# Blender 5.1.1
# www.blender.org
mtllib lantern.mtl
o Lantern_Pole
v 0.000000 -0.045000 0.000000
v 0.000000 -0.045000 1.800000
v -0.031820 -0.031820 0.000000
v -0.031820 -0.031820 1.800000
v -0.045000 0.000000 0.000000
v -0.045000 0.000000 1.800000
v -0.031820 0.031820 0.000000
v -0.031820 0.031820 1.800000
v 0.000000 0.045000 0.000000
v 0.000000 0.045000 1.800000
v 0.031820 0.031820 0.000000
v 0.031820 0.031820 1.800000
v 0.045000 0.000000 0.000000
v 0.045000 0.000000 1.800000
v 0.031820 -0.031820 0.000000
v 0.031820 -0.031820 1.800000
vn -0.3827 -0.9239 -0.0000
vn -0.9239 -0.3827 -0.0000
vn -0.9239 0.3827 -0.0000
vn -0.3827 0.9239 -0.0000
vn 0.3827 0.9239 -0.0000
vn 0.9239 0.3827 -0.0000
vn -0.0000 -0.0000 1.0000
vn 0.9239 -0.3827 -0.0000
vn 0.3827 -0.9239 -0.0000
vn -0.0000 -0.0000 -1.0000
vt 1.000000 0.500000
vt 1.000000 1.000000
vt 0.875000 1.000000
vt 0.875000 0.500000
vt 0.750000 1.000000
vt 0.750000 0.500000
vt 0.625000 1.000000
vt 0.625000 0.500000
vt 0.500000 1.000000
vt 0.500000 0.500000
vt 0.375000 1.000000
vt 0.375000 0.500000
vt 0.250000 1.000000
vt 0.250000 0.500000
vt 0.419706 0.419706
vt 0.250000 0.490000
vt 0.080294 0.419706
vt 0.010000 0.250000
vt 0.080294 0.080294
vt 0.250000 0.010000
vt 0.419706 0.080294
vt 0.490000 0.250000
vt 0.125000 1.000000
vt 0.125000 0.500000
vt 0.000000 1.000000
vt 0.000000 0.500000
vt 0.750000 0.490000
vt 0.919706 0.419706
vt 0.990000 0.250000
vt 0.919706 0.080294
vt 0.750000 0.010000
vt 0.580294 0.080294
vt 0.510000 0.250000
vt 0.580294 0.419706
s 0
f 1/1/1 2/2/1 4/3/1 3/4/1
f 3/4/2 4/3/2 6/5/2 5/6/2
f 5/6/3 6/5/3 8/7/3 7/8/3
f 7/8/4 8/7/4 10/9/4 9/10/4
f 9/10/5 10/9/5 12/11/5 11/12/5
f 11/12/6 12/11/6 14/13/6 13/14/6
f 4/15/7 2/16/7 16/17/7 14/18/7 12/19/7 10/20/7 8/21/7 6/22/7
f 13/14/8 14/13/8 16/23/8 15/24/8
f 15/24/9 16/23/9 2/25/9 1/26/9
f 1/27/10 3/28/10 5/29/10 7/30/10 9/31/10 11/32/10 13/33/10 15/34/10
o Lantern_Body
v 0.000000 -0.180000 1.760000
v 0.000000 -0.180000 2.080000
v -0.155885 -0.090000 1.760000
v -0.155885 -0.090000 2.080000
v -0.155885 0.090000 1.760000
v -0.155885 0.090000 2.080000
v 0.000000 0.180000 1.760000
v 0.000000 0.180000 2.080000
v 0.155885 0.090000 1.760000
v 0.155885 0.090000 2.080000
v 0.155885 -0.090000 1.760000
v 0.155885 -0.090000 2.080000
vn -0.5000 -0.8660 -0.0000
vn -1.0000 -0.0000 -0.0000
vn -0.5000 0.8660 -0.0000
vn 0.5000 0.8660 -0.0000
vn -0.0000 -0.0000 1.0000
vn 1.0000 -0.0000 -0.0000
vn 0.5000 -0.8660 -0.0000
vn -0.0000 -0.0000 -1.0000
vt 1.000000 0.500000
vt 1.000000 1.000000
vt 0.833333 1.000000
vt 0.833333 0.500000
vt 0.666667 1.000000
vt 0.666667 0.500000
vt 0.500000 1.000000
vt 0.500000 0.500000
vt 0.333333 1.000000
vt 0.333333 0.500000
vt 0.457846 0.370000
vt 0.250000 0.490000
vt 0.042154 0.370000
vt 0.042154 0.130000
vt 0.250000 0.010000
vt 0.457846 0.130000
vt 0.166667 1.000000
vt 0.166667 0.500000
vt -0.000000 1.000000
vt -0.000000 0.500000
vt 0.750000 0.490000
vt 0.957846 0.370000
vt 0.957846 0.130000
vt 0.750000 0.010000
vt 0.542154 0.130000
vt 0.542154 0.370000
s 0
f 17/35/11 18/36/11 20/37/11 19/38/11
f 19/38/12 20/37/12 22/39/12 21/40/12
f 21/40/13 22/39/13 24/41/13 23/42/13
f 23/42/14 24/41/14 26/43/14 25/44/14
f 20/45/15 18/46/15 28/47/15 26/48/15 24/49/15 22/50/15
f 25/44/16 26/43/16 28/51/16 27/52/16
f 27/52/17 28/51/17 18/53/17 17/54/17
f 17/55/18 19/56/18 21/57/18 23/58/18 25/59/18 27/60/18
o Lantern_Cap
v 0.000000 -0.220000 2.080000
v 0.000000 -0.040000 2.260000
v -0.190526 -0.110000 2.080000
v -0.034641 -0.020000 2.260000
v -0.190526 0.110000 2.080000
v -0.034641 0.020000 2.260000
v 0.000000 0.220000 2.080000
v 0.000000 0.040000 2.260000
v 0.190526 0.110000 2.080000
v 0.034641 0.020000 2.260000
v 0.190526 -0.110000 2.080000
v 0.034641 -0.020000 2.260000
vn -0.3780 -0.6547 0.6547
vn -0.7559 -0.0000 0.6547
vn -0.3780 0.6547 0.6547
vn 0.3780 0.6547 0.6547
vn -0.0000 -0.0000 1.0000
vn 0.7559 -0.0000 0.6547
vn 0.3780 -0.6547 0.6547
vn -0.0000 -0.0000 -1.0000
vt 1.000000 0.500000
vt 1.000000 1.000000
vt 0.833333 1.000000
vt 0.833333 0.500000
vt 0.666667 1.000000
vt 0.666667 0.500000
vt 0.500000 1.000000
vt 0.500000 0.500000
vt 0.333333 1.000000
vt 0.333333 0.500000
vt 0.457846 0.370000
vt 0.250000 0.490000
vt 0.042154 0.370000
vt 0.042154 0.130000
vt 0.250000 0.010000
vt 0.457846 0.130000
vt 0.166667 1.000000
vt 0.166667 0.500000
vt -0.000000 1.000000
vt -0.000000 0.500000
vt 0.750000 0.490000
vt 0.957846 0.370000
vt 0.957846 0.130000
vt 0.750000 0.010000
vt 0.542154 0.130000
vt 0.542154 0.370000
s 0
f 29/61/19 30/62/19 32/63/19 31/64/19
f 31/64/20 32/63/20 34/65/20 33/66/20
f 33/66/21 34/65/21 36/67/21 35/68/21
f 35/68/22 36/67/22 38/69/22 37/70/22
f 32/71/23 30/72/23 40/73/23 38/74/23 36/75/23 34/76/23
f 37/70/24 38/69/24 40/77/24 39/78/24
f 39/78/25 40/77/25 30/79/25 29/80/25
f 29/81/26 31/82/26 33/83/26 35/84/26 37/85/26 39/86/26
o Lantern_Flame
v 0.000000 0.000000 1.820000
v -0.072360 0.052572 1.875278
v 0.027639 0.085064 1.875278
v 0.089442 0.000000 1.875278
v 0.027639 -0.085064 1.875278
v -0.072360 -0.052572 1.875278
v -0.027639 0.085064 1.964721
v 0.072360 0.052572 1.964721
v 0.072360 -0.052572 1.964721
v -0.027639 -0.085064 1.964721
v -0.089442 0.000000 1.964721
v 0.000000 0.000000 2.020000
vn -0.1876 0.5774 -0.7947
vn -0.6071 -0.0000 -0.7947
vn 0.4911 0.3568 -0.7947
vn 0.4911 -0.3568 -0.7947
vn -0.1876 -0.5774 -0.7947
vn -0.9822 -0.0000 -0.1876
vn -0.3035 0.9342 -0.1876
vn 0.7946 0.5774 -0.1876
vn 0.7946 -0.5774 -0.1876
vn -0.3035 -0.9342 -0.1876
vn -0.7946 0.5774 0.1876
vn 0.3035 0.9342 0.1876
vn 0.9822 -0.0000 0.1876
vn 0.3035 -0.9342 0.1876
vn -0.7946 -0.5774 0.1876
vn -0.4911 0.3568 0.7947
vn 0.1876 0.5774 0.7947
vn 0.6071 -0.0000 0.7947
vn 0.1876 -0.5774 0.7947
vn -0.4911 -0.3568 0.7947
vt 0.181819 0.000000
vt 0.272728 0.157461
vt 0.090910 0.157461
vt 0.363637 0.000000
vt 0.454546 0.157461
vt 0.909091 0.000000
vt 1.000000 0.157461
vt 0.818182 0.157461
vt 0.727273 0.000000
vt 0.636364 0.157461
vt 0.545455 0.000000
vt 0.363637 0.314921
vt 0.181819 0.314921
vt 0.909091 0.314921
vt 0.727273 0.314921
vt 0.545455 0.314921
vt 0.000000 0.314921
vt 0.272728 0.472382
vt 0.090910 0.472382
vt 0.818182 0.472382
vt 0.636364 0.472382
vt 0.454546 0.472382
s 0
f 41/87/27 42/88/27 43/89/27
f 42/88/28 41/90/28 46/91/28
f 41/92/29 43/93/29 44/94/29
f 41/95/30 44/94/30 45/96/30
f 41/97/31 45/96/31 46/91/31
f 42/88/32 46/91/32 51/98/32
f 43/89/33 42/88/33 47/99/33
f 44/94/34 43/93/34 48/100/34
f 45/96/35 44/94/35 49/101/35
f 46/91/36 45/96/36 50/102/36
f 42/88/37 51/98/37 47/99/37
f 43/89/38 47/99/38 48/103/38
f 44/94/39 48/100/39 49/101/39
f 45/96/40 49/101/40 50/102/40
f 46/91/41 50/102/41 51/98/41
f 47/99/42 51/98/42 52/104/42
f 48/103/43 47/99/43 52/105/43
f 49/101/44 48/100/44 52/106/44
f 50/102/45 49/101/45 52/107/45
f 51/98/46 50/102/46 52/108/46
o Lantern_Base
v 0.000000 -0.120000 0.000000
v 0.000000 -0.120000 0.080000
v -0.084853 -0.084853 0.000000
v -0.084853 -0.084853 0.080000
v -0.120000 0.000000 0.000000
v -0.120000 0.000000 0.080000
v -0.084853 0.084853 0.000000
v -0.084853 0.084853 0.080000
v 0.000000 0.120000 0.000000
v 0.000000 0.120000 0.080000
v 0.084853 0.084853 0.000000
v 0.084853 0.084853 0.080000
v 0.120000 0.000000 0.000000
v 0.120000 0.000000 0.080000
v 0.084853 -0.084853 0.000000
v 0.084853 -0.084853 0.080000
vn -0.3827 -0.9239 -0.0000
vn -0.9239 -0.3827 -0.0000
vn -0.9239 0.3827 -0.0000
vn -0.3827 0.9239 -0.0000
vn 0.3827 0.9239 -0.0000
vn 0.9239 0.3827 -0.0000
vn -0.0000 -0.0000 1.0000
vn 0.9239 -0.3827 -0.0000
vn 0.3827 -0.9239 -0.0000
vn -0.0000 -0.0000 -1.0000
vt 1.000000 0.500000
vt 1.000000 1.000000
vt 0.875000 1.000000
vt 0.875000 0.500000
vt 0.750000 1.000000
vt 0.750000 0.500000
vt 0.625000 1.000000
vt 0.625000 0.500000
vt 0.500000 1.000000
vt 0.500000 0.500000
vt 0.375000 1.000000
vt 0.375000 0.500000
vt 0.250000 1.000000
vt 0.250000 0.500000
vt 0.419706 0.419706
vt 0.250000 0.490000
vt 0.080294 0.419706
vt 0.010000 0.250000
vt 0.080294 0.080294
vt 0.250000 0.010000
vt 0.419706 0.080294
vt 0.490000 0.250000
vt 0.125000 1.000000
vt 0.125000 0.500000
vt 0.000000 1.000000
vt 0.000000 0.500000
vt 0.750000 0.490000
vt 0.919706 0.419706
vt 0.990000 0.250000
vt 0.919706 0.080294
vt 0.750000 0.010000
vt 0.580294 0.080294
vt 0.510000 0.250000
vt 0.580294 0.419706
s 0
f 53/109/47 54/110/47 56/111/47 55/112/47
f 55/112/48 56/111/48 58/113/48 57/114/48
f 57/114/49 58/113/49 60/115/49 59/116/49
f 59/116/50 60/115/50 62/117/50 61/118/50
f 61/118/51 62/117/51 64/119/51 63/120/51
f 63/120/52 64/119/52 66/121/52 65/122/52
f 56/123/53 54/124/53 68/125/53 66/126/53 64/127/53 62/128/53 60/129/53 58/130/53
f 65/122/54 66/121/54 68/131/54 67/132/54
f 67/132/55 68/131/55 54/133/55 53/134/55
f 53/135/56 55/136/56 57/137/56 59/138/56 61/139/56 63/140/56 65/141/56 67/142/56
