# axis-converted-to-Y-up
# Blender 5.1.1
# www.blender.org
mtllib mob_dewa.mtl
o mob_dewa
v 0.000000 2.360635 -0.000000
v 0.000000 2.360635 -0.000000
v 0.000000 2.360635 -0.000000
v 0.000000 2.360635 -0.000000
v 0.000000 2.360635 -0.000000
v 0.000000 2.360635 -0.000000
v 0.000000 2.360635 -0.000000
v 0.000000 2.360635 -0.000000
v 0.000000 2.360635 -0.000000
v 0.000000 2.360635 -0.000000
v 0.000000 2.360635 -0.000000
v 0.000000 2.360635 -0.000000
v 0.000000 2.360635 -0.000000
v -0.075771 2.345613 -0.000000
v -0.065702 2.345613 -0.037968
v -0.037968 2.345613 -0.065702
v 0.000000 2.345613 -0.075772
v 0.037968 2.345613 -0.065702
v 0.065702 2.345613 -0.037968
v 0.075771 2.345613 -0.000000
v 0.065702 2.345613 0.037968
v 0.037968 2.345613 0.065701
v 0.000000 2.345613 0.075771
v -0.037968 2.345613 0.065701
v -0.065702 2.345613 0.037968
v -0.075771 2.345613 -0.000000
v -0.140152 2.302692 -0.000000
v -0.121333 2.302692 -0.069994
v -0.069994 2.302692 -0.121333
v 0.000000 2.302692 -0.140152
v 0.069994 2.302692 -0.121333
v 0.121333 2.302692 -0.069994
v 0.140152 2.302692 -0.000000
v 0.121333 2.302692 0.069994
v 0.069994 2.302692 0.121333
v 0.000000 2.302692 0.140152
v -0.069994 2.302692 0.121333
v -0.121333 2.302692 0.069994
v -0.140152 2.302692 -0.000000
v -0.183073 2.238311 -0.000000
v -0.158476 2.238311 -0.091454
v -0.091454 2.238311 -0.158476
v 0.000000 2.238311 -0.183073
v 0.091454 2.238311 -0.158476
v 0.158476 2.238311 -0.091454
v 0.183073 2.238311 -0.000000
v 0.158476 2.238311 0.091454
v 0.091454 2.238311 0.158476
v 0.000000 2.238311 0.183073
v -0.091454 2.238311 0.158476
v -0.158476 2.238311 0.091454
v -0.183073 2.238311 -0.000000
v -0.198095 2.162539 -0.000000
v -0.171517 2.162539 -0.099048
v -0.099048 2.162539 -0.171518
v 0.000000 2.162539 -0.198095
v 0.099048 2.162539 -0.171518
v 0.171517 2.162539 -0.099048
v 0.198095 2.162539 -0.000000
v 0.171517 2.162539 0.099048
v 0.099048 2.162539 0.171517
v 0.000000 2.162539 0.198095
v -0.099048 2.162539 0.171517
v -0.171517 2.162539 0.099048
v -0.198095 2.162539 -0.000000
v -0.183073 2.086768 -0.000000
v -0.158476 2.086768 -0.091454
v -0.091454 2.086768 -0.158476
v 0.000000 2.086768 -0.183073
v 0.091454 2.086768 -0.158476
v 0.158476 2.086768 -0.091454
v 0.183073 2.086768 -0.000000
v 0.158476 2.086768 0.091454
v 0.091454 2.086768 0.158476
v 0.000000 2.086768 0.183073
v -0.091454 2.086768 0.158476
v -0.158476 2.086768 0.091454
v -0.183073 2.086768 -0.000000
v -0.140152 2.022387 -0.000000
v -0.121333 2.022387 -0.069994
v -0.069994 2.022387 -0.121333
v 0.000000 2.022387 -0.140152
v 0.069994 2.022387 -0.121333
v 0.121333 2.022387 -0.069994
v 0.140152 2.022387 -0.000000
v 0.121333 2.022387 0.069994
v 0.069994 2.022387 0.121333
v 0.000000 2.022387 0.140152
v -0.069994 2.022387 0.121333
v -0.121333 2.022387 0.069994
v -0.140152 2.022387 -0.000000
v -0.075771 1.979467 -0.000000
v -0.065702 1.979467 -0.037968
v -0.037968 1.979467 -0.065702
v 0.000000 1.979467 -0.075772
v 0.037968 1.979467 -0.065702
v 0.065702 1.979467 -0.037968
v 0.075771 1.979467 -0.000000
v 0.065702 1.979467 0.037968
v 0.037968 1.979467 0.065701
v 0.000000 1.979467 0.075771
v -0.037968 1.979467 0.065701
v -0.065702 1.979467 0.037968
v -0.075771 1.979467 -0.000000
v 0.000000 1.964444 -0.000000
v 0.000000 1.964444 -0.000000
v 0.000000 1.964444 -0.000000
v 0.000000 1.964444 -0.000000
v 0.000000 1.964444 -0.000000
v 0.000000 1.964444 -0.000000
v 0.000000 1.964444 -0.000000
v 0.000000 1.964444 -0.000000
v 0.000000 1.964444 -0.000000
v 0.000000 1.964444 -0.000000
v 0.000000 1.964444 -0.000000
v 0.000000 1.964444 -0.000000
v 0.000000 1.964444 -0.000000
v 0.000000 2.600000 -0.000000
v -0.214603 2.600000 -0.000000
v -0.185879 2.600000 -0.107302
v -0.107302 2.600000 -0.185879
v 0.000000 2.600000 -0.214603
v 0.107302 2.600000 -0.185879
v 0.185879 2.600000 -0.107302
v 0.214603 2.600000 -0.000000
v 0.185879 2.600000 0.107301
v 0.107302 2.600000 0.185879
v 0.000000 2.600000 0.214603
v -0.107302 2.600000 0.185879
v -0.185879 2.600000 0.107301
v 0.000000 2.550476 -0.000000
v -0.214603 2.550476 -0.000000
v -0.185879 2.550476 -0.107302
v -0.107302 2.550476 -0.185879
v 0.000000 2.550476 -0.214603
v 0.107302 2.550476 -0.185879
v 0.185879 2.550476 -0.107302
v 0.214603 2.550476 -0.000000
v 0.185879 2.550476 0.107301
v 0.107302 2.550476 0.185879
v 0.000000 2.550476 0.214603
v -0.107302 2.550476 0.185879
v -0.185879 2.550476 0.107301
v -0.214603 2.600000 -0.000000
v -0.214603 2.550476 -0.000000
v -0.185879 2.600000 -0.107302
v -0.185879 2.550476 -0.107302
v -0.107302 2.600000 -0.185879
v -0.107302 2.550476 -0.185879
v 0.000000 2.600000 -0.214603
v 0.000000 2.550476 -0.214603
v 0.107302 2.600000 -0.185879
v 0.107302 2.550476 -0.185879
v 0.185879 2.600000 -0.107302
v 0.185879 2.550476 -0.107302
v 0.214603 2.600000 -0.000000
v 0.214603 2.550476 -0.000000
v 0.185879 2.600000 0.107301
v 0.185879 2.550476 0.107301
v 0.107302 2.600000 0.185879
v 0.107302 2.550476 0.185879
v 0.000000 2.600000 0.214603
v 0.000000 2.550476 0.214603
v -0.107302 2.600000 0.185879
v -0.107302 2.550476 0.185879
v -0.185879 2.600000 0.107301
v -0.185879 2.550476 0.107301
v -0.214603 2.600000 -0.000000
v -0.214603 2.550476 -0.000000
v 0.000000 1.766349 -0.000000
v -0.214603 1.766349 -0.000000
v -0.185879 1.766349 -0.107302
v -0.107302 1.766349 -0.185879
v 0.000000 1.766349 -0.214603
v 0.107302 1.766349 -0.185879
v 0.185879 1.766349 -0.107302
v 0.214603 1.766349 -0.000000
v 0.185879 1.766349 0.107301
v 0.107302 1.766349 0.185879
v 0.000000 1.766349 0.214603
v -0.107302 1.766349 0.185879
v -0.185879 1.766349 0.107301
v 0.000000 0.907936 -0.000000
v -0.214603 0.907936 -0.000000
v -0.185879 0.907936 -0.107302
v -0.107302 0.907936 -0.185879
v 0.000000 0.907936 -0.214603
v 0.107302 0.907936 -0.185879
v 0.185879 0.907936 -0.107302
v 0.214603 0.907936 -0.000000
v 0.185879 0.907936 0.107302
v 0.107302 0.907936 0.185879
v 0.000000 0.907936 0.214603
v -0.107302 0.907936 0.185879
v -0.185879 0.907936 0.107302
v -0.214603 1.766349 -0.000000
v -0.214603 0.907936 -0.000000
v -0.185879 1.766349 -0.107302
v -0.185879 0.907936 -0.107302
v -0.107302 1.766349 -0.185879
v -0.107302 0.907936 -0.185879
v 0.000000 1.766349 -0.214603
v 0.000000 0.907936 -0.214603
v 0.107302 1.766349 -0.185879
v 0.107302 0.907936 -0.185879
v 0.185879 1.766349 -0.107302
v 0.185879 0.907936 -0.107302
v 0.214603 1.766349 -0.000000
v 0.214603 0.907936 -0.000000
v 0.185879 1.766349 0.107301
v 0.185879 0.907936 0.107302
v 0.107302 1.766349 0.185879
v 0.107302 0.907936 0.185879
v 0.000000 1.766349 0.214603
v 0.000000 0.907936 0.214603
v -0.107302 1.766349 0.185879
v -0.107302 0.907936 0.185879
v -0.185879 1.766349 0.107301
v -0.185879 0.907936 0.107302
v -0.214603 1.766349 -0.000000
v -0.214603 0.907936 -0.000000
v 0.000000 0.660317 -0.000000
v 0.000000 0.660317 -0.000000
v 0.000000 0.660317 -0.000000
v 0.000000 0.660317 -0.000000
v 0.000000 0.660317 -0.000000
v 0.000000 0.660317 -0.000000
v 0.000000 0.660317 -0.000000
v 0.000000 0.660317 -0.000000
v 0.000000 0.660317 -0.000000
v 0.000000 0.660317 -0.000000
v 0.000000 0.660317 -0.000000
v 0.000000 0.660317 -0.000000
v 0.000000 0.660317 -0.000000
v -0.120013 0.636381 -0.000000
v -0.104000 0.636381 -0.060089
v -0.060089 0.636381 -0.104000
v 0.000000 0.636381 -0.120013
v 0.060089 0.636381 -0.104000
v 0.104000 0.636381 -0.060089
v 0.120013 0.636381 -0.000000
v 0.104000 0.636381 0.060089
v 0.060089 0.636381 0.104000
v 0.000000 0.636381 0.120013
v -0.060089 0.636381 0.104000
v -0.104000 0.636381 0.060089
v -0.120013 0.636381 -0.000000
v -0.221867 0.568533 -0.000000
v -0.192152 0.568533 -0.110933
v -0.110933 0.568533 -0.192152
v 0.000000 0.568533 -0.221867
v 0.110933 0.568533 -0.192152
v 0.192152 0.568533 -0.110933
v 0.221867 0.568533 -0.000000
v 0.192152 0.568533 0.110933
v 0.110933 0.568533 0.192152
v 0.000000 0.568533 0.221867
v -0.110933 0.568533 0.192152
v -0.192152 0.568533 0.110933
v -0.221867 0.568533 -0.000000
v -0.289714 0.466679 -0.000000
v -0.250921 0.466679 -0.144940
v -0.144940 0.466679 -0.250921
v 0.000000 0.466679 -0.289714
v 0.144940 0.466679 -0.250921
v 0.250921 0.466679 -0.144940
v 0.289714 0.466679 -0.000000
v 0.250921 0.466679 0.144940
v 0.144940 0.466679 0.250921
v 0.000000 0.466679 0.289714
v -0.144940 0.466679 0.250921
v -0.250921 0.466679 0.144940
v -0.289714 0.466679 -0.000000
v -0.313651 0.346667 -0.000000
v -0.271556 0.346667 -0.156825
v -0.156825 0.346667 -0.271556
v 0.000000 0.346667 -0.313651
v 0.156825 0.346667 -0.271556
v 0.271556 0.346667 -0.156825
v 0.313651 0.346667 -0.000000
v 0.271556 0.346667 0.156825
v 0.156825 0.346667 0.271556
v 0.000000 0.346667 0.313651
v -0.156825 0.346667 0.271556
v -0.271556 0.346667 0.156825
v -0.313651 0.346667 -0.000000
v -0.289714 0.226654 -0.000000
v -0.250921 0.226654 -0.144940
v -0.144940 0.226654 -0.250921
v 0.000000 0.226654 -0.289714
v 0.144940 0.226654 -0.250921
v 0.250921 0.226654 -0.144940
v 0.289714 0.226654 -0.000000
v 0.250921 0.226654 0.144940
v 0.144940 0.226654 0.250921
v 0.000000 0.226654 0.289714
v -0.144940 0.226654 0.250921
v -0.250921 0.226654 0.144940
v -0.289714 0.226654 -0.000000
v -0.221867 0.124800 -0.000000
v -0.192152 0.124800 -0.110933
v -0.110933 0.124800 -0.192152
v 0.000000 0.124800 -0.221867
v 0.110933 0.124800 -0.192152
v 0.192152 0.124800 -0.110933
v 0.221867 0.124800 -0.000000
v 0.192152 0.124800 0.110933
v 0.110933 0.124800 0.192152
v 0.000000 0.124800 0.221867
v -0.110933 0.124800 0.192152
v -0.192152 0.124800 0.110933
v -0.221867 0.124800 -0.000000
v -0.120013 0.056952 -0.000000
v -0.104000 0.056952 -0.060089
v -0.060089 0.056952 -0.104000
v 0.000000 0.056952 -0.120013
v 0.060089 0.056952 -0.104000
v 0.104000 0.056952 -0.060089
v 0.120013 0.056952 -0.000000
v 0.104000 0.056952 0.060089
v 0.060089 0.056952 0.104000
v 0.000000 0.056952 0.120013
v -0.060089 0.056952 0.104000
v -0.104000 0.056952 0.060089
v -0.120013 0.056952 -0.000000
v 0.000000 0.033016 -0.000000
v 0.000000 0.033016 -0.000000
v 0.000000 0.033016 -0.000000
v 0.000000 0.033016 -0.000000
v 0.000000 0.033016 -0.000000
v 0.000000 0.033016 -0.000000
v 0.000000 0.033016 -0.000000
v 0.000000 0.033016 -0.000000
v 0.000000 0.033016 -0.000000
v 0.000000 0.033016 -0.000000
v 0.000000 0.033016 -0.000000
v 0.000000 0.033016 -0.000000
v 0.000000 0.033016 -0.000000
v -0.297143 0.462222 -0.000000
v -0.297143 0.462222 -0.000000
v -0.297143 0.462222 -0.000000
v -0.297143 0.462222 -0.000000
v -0.297143 0.462222 -0.000000
v -0.297143 0.462222 -0.000000
v -0.297143 0.462222 -0.000000
v -0.297143 0.462222 -0.000000
v -0.297143 0.462222 -0.000000
v -0.297143 0.462222 -0.000000
v -0.297143 0.462222 -0.000000
v -0.297143 0.462222 -0.000000
v -0.297143 0.462222 -0.000000
v -0.385625 0.444559 -0.000000
v -0.373740 0.444559 -0.044241
v -0.341384 0.444559 -0.076597
v -0.297143 0.444559 -0.088483
v -0.252902 0.444559 -0.076597
v -0.220546 0.444559 -0.044241
v -0.208660 0.444559 -0.000000
v -0.220546 0.444559 0.044241
v -0.252902 0.444559 0.076597
v -0.297143 0.444559 0.088482
v -0.341384 0.444559 0.076597
v -0.373740 0.444559 0.044241
v -0.385625 0.444559 -0.000000
v -0.460571 0.394540 -0.000000
v -0.438616 0.394540 -0.081714
v -0.378857 0.394540 -0.141473
v -0.297143 0.394540 -0.163429
v -0.215429 0.394540 -0.141473
v -0.155670 0.394540 -0.081714
v -0.133714 0.394540 -0.000000
v -0.155670 0.394540 0.081714
v -0.215429 0.394540 0.141473
v -0.297143 0.394540 0.163429
v -0.378857 0.394540 0.141473
v -0.438616 0.394540 0.081714
v -0.460571 0.394540 -0.000000
v -0.510590 0.319594 -0.000000
v -0.482032 0.319594 -0.106806
v -0.403949 0.319594 -0.184889
v -0.297143 0.319594 -0.213448
v -0.190337 0.319594 -0.184889
v -0.112254 0.319594 -0.106806
v -0.083695 0.319594 -0.000000
v -0.112254 0.319594 0.106806
v -0.190337 0.319594 0.184889
v -0.297143 0.319594 0.213448
v -0.403949 0.319594 0.184889
v -0.482032 0.319594 0.106806
v -0.510590 0.319594 -0.000000
v -0.528254 0.231111 -0.000000
v -0.497219 0.231111 -0.115556
v -0.412698 0.231111 -0.200076
v -0.297143 0.231111 -0.231111
v -0.181587 0.231111 -0.200076
v -0.097067 0.231111 -0.115556
v -0.066032 0.231111 -0.000000
v -0.097067 0.231111 0.115556
v -0.181587 0.231111 0.200076
v -0.297143 0.231111 0.231111
v -0.412698 0.231111 0.200076
v -0.497219 0.231111 0.115556
v -0.528254 0.231111 -0.000000
v -0.510590 0.142629 -0.000000
v -0.482032 0.142629 -0.106806
v -0.403949 0.142629 -0.184889
v -0.297143 0.142629 -0.213448
v -0.190337 0.142629 -0.184889
v -0.112254 0.142629 -0.106806
v -0.083695 0.142629 -0.000000
v -0.112254 0.142629 0.106806
v -0.190337 0.142629 0.184889
v -0.297143 0.142629 0.213448
v -0.403949 0.142629 0.184889
v -0.482032 0.142629 0.106806
v -0.510590 0.142629 -0.000000
v -0.460571 0.067683 -0.000000
v -0.438616 0.067683 -0.081714
v -0.378857 0.067683 -0.141473
v -0.297143 0.067683 -0.163429
v -0.215429 0.067683 -0.141473
v -0.155670 0.067683 -0.081714
v -0.133714 0.067683 -0.000000
v -0.155670 0.067683 0.081714
v -0.215429 0.067683 0.141473
v -0.297143 0.067683 0.163429
v -0.378857 0.067683 0.141473
v -0.438616 0.067683 0.081714
v -0.460571 0.067683 -0.000000
v -0.385625 0.017663 -0.000000
v -0.373740 0.017663 -0.044241
v -0.341384 0.017663 -0.076597
v -0.297143 0.017663 -0.088483
v -0.252902 0.017663 -0.076597
v -0.220546 0.017663 -0.044241
v -0.208660 0.017663 -0.000000
v -0.220546 0.017663 0.044241
v -0.252902 0.017663 0.076597
v -0.297143 0.017663 0.088483
v -0.341384 0.017663 0.076597
v -0.373740 0.017663 0.044241
v -0.385625 0.017663 -0.000000
v -0.297143 0.000000 -0.000000
v -0.297143 0.000000 -0.000000
v -0.297143 0.000000 -0.000000
v -0.297143 0.000000 -0.000000
v -0.297143 0.000000 -0.000000
v -0.297143 0.000000 -0.000000
v -0.297143 0.000000 -0.000000
v -0.297143 0.000000 -0.000000
v -0.297143 0.000000 -0.000000
v -0.297143 0.000000 -0.000000
v -0.297143 0.000000 -0.000000
v -0.297143 0.000000 -0.000000
v -0.297143 0.000000 -0.000000
v 0.297143 0.462222 -0.000000
v 0.297143 0.462222 -0.000000
v 0.297143 0.462222 -0.000000
v 0.297143 0.462222 -0.000000
v 0.297143 0.462222 -0.000000
v 0.297143 0.462222 -0.000000
v 0.297143 0.462222 -0.000000
v 0.297143 0.462222 -0.000000
v 0.297143 0.462222 -0.000000
v 0.297143 0.462222 -0.000000
v 0.297143 0.462222 -0.000000
v 0.297143 0.462222 -0.000000
v 0.297143 0.462222 -0.000000
v 0.208660 0.444559 -0.000000
v 0.220546 0.444559 -0.044241
v 0.252902 0.444559 -0.076597
v 0.297143 0.444559 -0.088483
v 0.341384 0.444559 -0.076597
v 0.373740 0.444559 -0.044241
v 0.385625 0.444559 -0.000000
v 0.373740 0.444559 0.044241
v 0.341384 0.444559 0.076597
v 0.297143 0.444559 0.088482
v 0.252902 0.444559 0.076597
v 0.220546 0.444559 0.044241
v 0.208660 0.444559 -0.000000
v 0.133714 0.394540 -0.000000
v 0.155670 0.394540 -0.081714
v 0.215429 0.394540 -0.141473
v 0.297143 0.394540 -0.163429
v 0.378857 0.394540 -0.141473
v 0.438616 0.394540 -0.081714
v 0.460571 0.394540 -0.000000
v 0.438616 0.394540 0.081714
v 0.378857 0.394540 0.141473
v 0.297143 0.394540 0.163429
v 0.215429 0.394540 0.141473
v 0.155670 0.394540 0.081714
v 0.133714 0.394540 -0.000000
v 0.083695 0.319594 -0.000000
v 0.112254 0.319594 -0.106806
v 0.190337 0.319594 -0.184889
v 0.297143 0.319594 -0.213448
v 0.403949 0.319594 -0.184889
v 0.482032 0.319594 -0.106806
v 0.510590 0.319594 -0.000000
v 0.482032 0.319594 0.106806
v 0.403949 0.319594 0.184889
v 0.297143 0.319594 0.213448
v 0.190337 0.319594 0.184889
v 0.112254 0.319594 0.106806
v 0.083695 0.319594 -0.000000
v 0.066032 0.231111 -0.000000
v 0.097067 0.231111 -0.115556
v 0.181587 0.231111 -0.200076
v 0.297143 0.231111 -0.231111
v 0.412698 0.231111 -0.200076
v 0.497219 0.231111 -0.115556
v 0.528254 0.231111 -0.000000
v 0.497219 0.231111 0.115556
v 0.412698 0.231111 0.200076
v 0.297143 0.231111 0.231111
v 0.181587 0.231111 0.200076
v 0.097067 0.231111 0.115556
v 0.066032 0.231111 -0.000000
v 0.083695 0.142629 -0.000000
v 0.112254 0.142629 -0.106806
v 0.190337 0.142629 -0.184889
v 0.297143 0.142629 -0.213448
v 0.403949 0.142629 -0.184889
v 0.482032 0.142629 -0.106806
v 0.510590 0.142629 -0.000000
v 0.482032 0.142629 0.106806
v 0.403949 0.142629 0.184889
v 0.297143 0.142629 0.213448
v 0.190337 0.142629 0.184889
v 0.112254 0.142629 0.106806
v 0.083695 0.142629 -0.000000
v 0.133714 0.067683 -0.000000
v 0.155670 0.067683 -0.081714
v 0.215429 0.067683 -0.141473
v 0.297143 0.067683 -0.163429
v 0.378857 0.067683 -0.141473
v 0.438616 0.067683 -0.081714
v 0.460571 0.067683 -0.000000
v 0.438616 0.067683 0.081714
v 0.378857 0.067683 0.141473
v 0.297143 0.067683 0.163429
v 0.215429 0.067683 0.141473
v 0.155670 0.067683 0.081714
v 0.133714 0.067683 -0.000000
v 0.208660 0.017663 -0.000000
v 0.220546 0.017663 -0.044241
v 0.252902 0.017663 -0.076597
v 0.297143 0.017663 -0.088483
v 0.341384 0.017663 -0.076597
v 0.373740 0.017663 -0.044241
v 0.385625 0.017663 -0.000000
v 0.373740 0.017663 0.044241
v 0.341384 0.017663 0.076597
v 0.297143 0.017663 0.088483
v 0.252902 0.017663 0.076597
v 0.220546 0.017663 0.044241
v 0.208660 0.017663 -0.000000
v 0.297143 0.000000 -0.000000
v 0.297143 0.000000 -0.000000
v 0.297143 0.000000 -0.000000
v 0.297143 0.000000 -0.000000
v 0.297143 0.000000 -0.000000
v 0.297143 0.000000 -0.000000
v 0.297143 0.000000 -0.000000
v 0.297143 0.000000 -0.000000
v 0.297143 0.000000 -0.000000
v 0.297143 0.000000 -0.000000
v 0.297143 0.000000 -0.000000
v 0.297143 0.000000 -0.000000
v 0.297143 0.000000 -0.000000
v 0.429206 1.650794 -0.000000
v 0.363175 1.650794 -0.000000
v 0.372089 1.650794 -0.033016
v 0.396190 1.650794 -0.057118
v 0.429206 1.650794 -0.066032
v 0.462222 1.650794 -0.057118
v 0.486324 1.650794 -0.033016
v 0.495238 1.650794 -0.000000
v 0.486324 1.650794 0.033016
v 0.462222 1.650794 0.057117
v 0.429206 1.650794 0.066032
v 0.396190 1.650794 0.057117
v 0.372089 1.650794 0.033016
v 0.429206 0.858413 -0.000000
v 0.363175 0.858413 -0.000000
v 0.372089 0.858413 -0.033016
v 0.396190 0.858413 -0.057118
v 0.429206 0.858413 -0.066032
v 0.462222 0.858413 -0.057118
v 0.486324 0.858413 -0.033016
v 0.495238 0.858413 -0.000000
v 0.486324 0.858413 0.033016
v 0.462222 0.858413 0.057117
v 0.429206 0.858413 0.066032
v 0.396190 0.858413 0.057117
v 0.372089 0.858413 0.033016
v 0.363175 1.650794 -0.000000
v 0.363175 0.858413 -0.000000
v 0.372089 1.650794 -0.033016
v 0.372089 0.858413 -0.033016
v 0.396190 1.650794 -0.057118
v 0.396190 0.858413 -0.057118
v 0.429206 1.650794 -0.066032
v 0.429206 0.858413 -0.066032
v 0.462222 1.650794 -0.057118
v 0.462222 0.858413 -0.057118
v 0.486324 1.650794 -0.033016
v 0.486324 0.858413 -0.033016
v 0.495238 1.650794 -0.000000
v 0.495238 0.858413 -0.000000
v 0.486324 1.650794 0.033016
v 0.486324 0.858413 0.033016
v 0.462222 1.650794 0.057117
v 0.462222 0.858413 0.057117
v 0.429206 1.650794 0.066032
v 0.429206 0.858413 0.066032
v 0.396190 1.650794 0.057117
v 0.396190 0.858413 0.057117
v 0.372089 1.650794 0.033016
v 0.372089 0.858413 0.033016
v 0.363175 1.650794 -0.000000
v 0.363175 0.858413 -0.000000
v -0.429206 1.650794 -0.000000
v -0.495238 1.650794 -0.000000
v -0.486324 1.650794 -0.033016
v -0.462222 1.650794 -0.057118
v -0.429206 1.650794 -0.066032
v -0.396190 1.650794 -0.057118
v -0.372089 1.650794 -0.033016
v -0.363175 1.650794 -0.000000
v -0.372089 1.650794 0.033016
v -0.396190 1.650794 0.057117
v -0.429206 1.650794 0.066032
v -0.462222 1.650794 0.057117
v -0.486324 1.650794 0.033016
v -0.429206 0.858413 -0.000000
v -0.495238 0.858413 -0.000000
v -0.486324 0.858413 -0.033016
v -0.462222 0.858413 -0.057118
v -0.429206 0.858413 -0.066032
v -0.396190 0.858413 -0.057118
v -0.372089 0.858413 -0.033016
v -0.363175 0.858413 -0.000000
v -0.372089 0.858413 0.033016
v -0.396190 0.858413 0.057117
v -0.429206 0.858413 0.066032
v -0.462222 0.858413 0.057117
v -0.486324 0.858413 0.033016
v -0.495238 1.650794 -0.000000
v -0.495238 0.858413 -0.000000
v -0.486324 1.650794 -0.033016
v -0.486324 0.858413 -0.033016
v -0.462222 1.650794 -0.057118
v -0.462222 0.858413 -0.057118
v -0.429206 1.650794 -0.066032
v -0.429206 0.858413 -0.066032
v -0.396190 1.650794 -0.057118
v -0.396190 0.858413 -0.057118
v -0.372089 1.650794 -0.033016
v -0.372089 0.858413 -0.033016
v -0.363175 1.650794 -0.000000
v -0.363175 0.858413 -0.000000
v -0.372089 1.650794 0.033016
v -0.372089 0.858413 0.033016
v -0.396190 1.650794 0.057117
v -0.396190 0.858413 0.057117
v -0.429206 1.650794 0.066032
v -0.429206 0.858413 0.066032
v -0.462222 1.650794 0.057117
v -0.462222 0.858413 0.057117
v -0.486324 1.650794 0.033016
v -0.486324 0.858413 0.033016
v -0.495238 1.650794 -0.000000
v -0.495238 0.858413 -0.000000
vn 0.193600 -0.097700 0.976200
vn -0.192000 0.194500 0.961900
vn -0.000000 -1.000000 0.000000
vn -0.000100 1.000000 0.000000
vn -0.382700 0.923900 -0.000100
vn -0.331500 0.923900 -0.191200
vn -0.278300 -0.329700 0.902100
vn -0.473600 0.614000 0.631500
vn -0.000000 1.000000 0.000000
vn -0.191300 0.923900 -0.331400
vn -0.530600 -0.519500 0.669800
vn -0.467800 0.792500 0.391300
vn -0.000000 1.000000 -0.000100
vn -0.000300 0.923900 -0.382700
vn -0.000000 -0.633000 0.774200
vn -0.000000 0.852600 0.522600
vn 0.191200 0.923900 -0.331500
vn 0.530600 -0.519500 0.669700
vn 0.467800 0.792500 0.391300
vn 0.331400 0.923900 -0.191300
vn 0.278300 -0.329700 0.902100
vn 0.473600 0.614000 0.631500
vn 0.000100 1.000000 0.000000
vn 0.382700 0.923900 -0.000300
vn -0.193500 -0.097700 0.976200
vn 0.192000 0.194500 0.961900
vn 0.331500 0.923900 0.191200
vn -0.674400 0.136100 0.725700
vn -0.351400 -0.450400 0.820800
vn 0.191300 0.923900 0.331400
vn -0.942100 0.304700 0.139700
vn -0.535700 -0.821200 0.196400
vn -0.000000 1.000000 0.000100
vn 0.000300 0.923900 0.382700
vn -0.000000 0.398800 -0.917100
vn -0.000000 -0.942400 -0.334600
vn -0.191200 0.923900 0.331500
vn 0.942100 0.304700 0.139700
vn 0.535700 -0.821200 0.196400
vn -0.331400 0.923900 0.191300
vn 0.674400 0.136100 0.725700
vn 0.351400 -0.450400 0.820800
vn -0.382700 0.923900 0.000000
vn -0.707100 0.707100 0.000000
vn -0.612300 0.707100 -0.353800
vn -0.353800 0.707000 -0.612300
vn -0.000100 0.707100 -0.707100
vn 0.353800 0.707100 -0.612300
vn 0.612300 0.707000 -0.353800
vn 0.707100 0.707100 -0.000100
vn 0.612300 0.707100 0.353800
vn 0.353800 0.707000 0.612300
vn 0.000100 0.707100 0.707100
vn -0.353800 0.707100 0.612300
vn -0.612300 0.707000 0.353800
vn -0.923900 0.382700 -0.000100
vn -0.800100 0.382600 -0.461900
vn -0.461900 0.382700 -0.800100
vn 0.000100 0.382700 -0.923900
vn 0.461900 0.382600 -0.800100
vn 0.800100 0.382700 -0.461900
vn 0.923900 0.382700 0.000100
vn 0.800100 0.382600 0.461900
vn 0.461900 0.382700 0.800100
vn -0.000100 0.382700 0.923900
vn -0.461900 0.382600 0.800100
vn -0.800100 0.382700 0.461900
vn -0.923900 0.382700 0.000100
vn -1.000000 -0.000000 0.000000
vn -0.866000 -0.000000 -0.500000
vn -0.500300 -0.000100 -0.865900
vn -0.000000 -0.000100 -1.000000
vn 0.500300 0.000100 -0.865900
vn 0.865900 -0.000100 -0.500300
vn 1.000000 -0.000000 0.000100
vn 0.866000 -0.000000 0.500000
vn 0.500300 -0.000100 0.865900
vn -0.000000 -0.000100 1.000000
vn -0.500300 0.000100 0.865900
vn -0.865900 -0.000100 0.500300
vn -0.923900 -0.382700 -0.000100
vn -0.800100 -0.382700 -0.461900
vn -0.461900 -0.382600 -0.800100
vn -0.000000 -0.382700 -0.923900
vn 0.461900 -0.382700 -0.800100
vn 0.800100 -0.382600 -0.461900
vn 0.923900 -0.382700 0.000000
vn 0.800100 -0.382700 0.461900
vn 0.461900 -0.382600 0.800100
vn -0.000000 -0.382700 0.923900
vn -0.461900 -0.382700 0.800100
vn -0.800100 -0.382600 0.461900
vn -0.923900 -0.382700 0.000100
vn -0.707100 -0.707100 0.000000
vn -0.612400 -0.707000 -0.353600
vn -0.353600 -0.707100 -0.612400
vn -0.000000 -0.707100 -0.707100
vn 0.353600 -0.707000 -0.612400
vn 0.612400 -0.707100 -0.353600
vn 0.707100 -0.707100 0.000000
vn 0.612400 -0.707000 0.353600
vn 0.353600 -0.707100 0.612400
vn -0.000000 -0.707100 0.707100
vn -0.353600 -0.707000 0.612400
vn -0.612400 -0.707100 0.353600
vn -0.382700 -0.923900 0.000000
vn -0.331400 -0.923900 -0.191300
vn -0.191200 -0.923900 -0.331500
vn 0.000300 -0.923900 -0.382700
vn 0.191300 -0.923900 -0.331400
vn 0.331500 -0.923900 -0.191200
vn 0.382700 -0.923900 0.000300
vn 0.331400 -0.923900 0.191300
vn 0.191200 -0.923900 0.331500
vn -0.000300 -0.923900 0.382700
vn -0.191300 -0.923900 0.331400
vn -0.331500 -0.923900 0.191200
vn -0.382700 -0.923900 0.000100
vn -0.000100 -1.000000 0.000000
vn 0.362100 0.391800 -0.845800
vn 0.673000 -0.150100 -0.724200
vn 0.700600 0.665800 -0.256900
vn 0.922300 -0.361500 -0.136800
vn -0.000000 -1.000000 -0.000100
vn -0.000000 0.760700 0.649100
vn -0.000000 -0.492200 0.870500
vn -0.700600 0.665800 -0.256900
vn -0.922300 -0.361500 -0.136800
vn -0.362100 0.391800 -0.845800
vn -0.673000 -0.150100 -0.724200
vn 0.000100 -1.000000 0.000000
vn 0.192000 -0.194500 -0.961900
vn -0.193600 0.097700 -0.976200
vn 0.415700 -0.721000 -0.554300
vn 0.281200 0.299800 -0.911600
vn 0.233000 -0.952700 -0.194900
vn 0.557200 0.441600 -0.703300
vn -0.000000 -1.000000 0.000100
vn -0.000000 -0.998000 -0.063300
vn -0.000000 0.519500 -0.854500
vn -0.233000 -0.952700 -0.194900
vn -0.557200 0.441600 -0.703200
vn -0.415700 -0.721000 -0.554300
vn -0.281300 0.299800 -0.911600
vn -0.192000 -0.194500 -0.961900
vn 0.193500 0.097700 -0.976200
vn -1.000000 -0.000000 -0.000100
vn -0.866100 -0.000000 -0.499900
vn -0.499900 -0.000000 -0.866100
vn -0.000000 -0.000000 -1.000000
vn 0.499900 -0.000000 -0.866100
vn 0.866100 -0.000000 -0.499900
vn 1.000000 -0.000000 0.000000
vn 0.866100 -0.000000 0.499900
vn 0.499900 -0.000000 0.866100
vn -0.000000 -0.000000 1.000000
vn -0.499900 -0.000000 0.866100
vn -0.866100 -0.000000 0.499900
vn -1.000000 -0.000000 0.000100
vn 0.194700 -0.098300 0.975900
vn -0.190800 0.195600 0.961900
vn -0.276900 -0.330200 0.902400
vn -0.472400 0.614600 0.631800
vn -0.191100 0.923900 -0.331600
vn -0.529000 -0.519900 0.670800
vn -0.466600 0.792800 0.392000
vn -0.000100 0.923900 -0.382800
vn -0.000000 -0.633000 0.774100
vn -0.000000 0.852700 0.522400
vn 0.528900 -0.519900 0.670800
vn 0.466600 0.792800 0.392000
vn 0.331600 0.923900 -0.191100
vn 0.276900 -0.330200 0.902400
vn 0.472400 0.614600 0.631800
vn 0.382800 0.923900 -0.000100
vn -0.194600 -0.098300 0.975900
vn 0.190800 0.195600 0.961900
vn -0.675400 0.135500 0.724900
vn -0.352600 -0.449300 0.820900
vn 0.191100 0.923900 0.331600
vn -0.942700 0.304200 0.137400
vn -0.537000 -0.820600 0.195500
vn 0.000100 0.923900 0.382800
vn -0.000000 0.398100 -0.917300
vn -0.000000 -0.941900 -0.336000
vn 0.942600 0.304200 0.137500
vn 0.537000 -0.820600 0.195500
vn -0.331600 0.923900 0.191100
vn 0.675500 0.135500 0.724900
vn 0.352600 -0.449300 0.820900
vn -0.382700 0.923900 0.000100
vn -0.707100 0.707100 -0.000100
vn -0.612400 0.707100 -0.353500
vn -0.353500 0.707100 -0.612500
vn -0.000000 0.707100 -0.707100
vn 0.353500 0.707100 -0.612400
vn 0.612500 0.707100 -0.353500
vn 0.707100 0.707100 0.000000
vn 0.612400 0.707100 0.353500
vn 0.353500 0.707100 0.612500
vn -0.000000 0.707100 0.707100
vn -0.353500 0.707100 0.612400
vn -0.612500 0.707100 0.353500
vn -0.923900 0.382700 0.000000
vn -0.800100 0.382600 -0.462000
vn -0.000100 0.382700 -0.923900
vn 0.462000 0.382600 -0.800100
vn 0.923900 0.382700 -0.000100
vn 0.800100 0.382600 0.462000
vn 0.000100 0.382700 0.923900
vn -0.462000 0.382600 0.800100
vn -0.866000 -0.000100 -0.500100
vn -0.500100 0.000100 -0.866000
vn 0.500100 -0.000100 -0.866000
vn 0.866000 0.000100 -0.500100
vn 0.866000 -0.000100 0.500100
vn 0.500100 0.000100 0.866000
vn -0.500100 -0.000100 0.866000
vn -0.866000 0.000100 0.500100
vn -0.923900 -0.382700 0.000000
vn -0.612400 -0.707100 -0.353600
vn 0.353600 -0.707100 -0.612400
vn 0.612400 -0.707100 0.353600
vn -0.353600 -0.707100 0.612400
vn -0.707100 -0.707100 0.000100
vn -0.382700 -0.923900 -0.000100
vn -0.331600 -0.923900 -0.191100
vn 0.000100 -0.923900 -0.382800
vn 0.191100 -0.923900 -0.331600
vn 0.382800 -0.923900 0.000100
vn 0.331600 -0.923900 0.191100
vn -0.000100 -0.923900 0.382800
vn -0.191100 -0.923900 0.331600
vn 0.363300 0.390900 -0.845700
vn 0.674100 -0.149400 -0.723400
vn 0.701600 0.665200 -0.255400
vn 0.922900 -0.360800 -0.134500
vn -0.000000 0.760200 0.649700
vn -0.000000 -0.491400 0.871000
vn -0.701600 0.665200 -0.255400
vn -0.922900 -0.360800 -0.134600
vn -0.363300 0.390900 -0.845700
vn -0.674100 -0.149400 -0.723400
vn 0.190800 -0.195600 -0.961900
vn -0.194700 0.098300 -0.975900
vn 0.414500 -0.721700 -0.554400
vn 0.279800 0.300300 -0.911900
vn 0.232000 -0.953000 -0.194900
vn 0.555500 0.441900 -0.704400
vn -0.000000 -0.998000 -0.063200
vn -0.000000 0.519600 -0.854400
vn -0.232000 -0.953000 -0.194900
vn -0.555400 0.441900 -0.704400
vn -0.414500 -0.721700 -0.554400
vn -0.279800 0.300300 -0.911900
vn -0.190800 -0.195600 -0.961900
vn 0.194600 0.098300 -0.975900
vn 0.194800 -0.098400 0.975900
vn -0.190600 0.195800 0.961900
vn -0.331400 0.923900 -0.191500
vn -0.276300 -0.330200 0.902600
vn -0.472000 0.614700 0.631900
vn -0.191500 0.923900 -0.331400
vn -0.528400 -0.520000 0.671100
vn -0.466300 0.792900 0.392200
vn -0.000000 0.923900 -0.382700
vn -0.000000 -0.633100 0.774100
vn -0.000000 0.852700 0.522300
vn 0.191500 0.923900 -0.331400
vn 0.528500 -0.520000 0.671000
vn 0.466300 0.792900 0.392200
vn 0.331400 0.923900 -0.191500
vn 0.276400 -0.330200 0.902500
vn 0.472000 0.614700 0.631900
vn 0.382700 0.923900 0.000000
vn -0.194800 -0.098400 0.975900
vn 0.190600 0.195800 0.961900
vn 0.331400 0.923900 0.191500
vn -0.675700 0.135200 0.724700
vn -0.352900 -0.448800 0.821000
vn 0.191500 0.923900 0.331400
vn -0.942800 0.304000 0.136600
vn -0.537500 -0.820400 0.195100
vn -0.000000 0.923900 0.382700
vn -0.000000 0.398000 -0.917400
vn -0.000000 -0.941800 -0.336100
vn -0.191500 0.923900 0.331400
vn 0.942800 0.304000 0.136500
vn 0.537500 -0.820400 0.195100
vn -0.331400 0.923900 0.191500
vn 0.675700 0.135200 0.724700
vn 0.352900 -0.448800 0.821000
vn -0.612400 0.707000 -0.353600
vn -0.353800 0.707100 -0.612300
vn 0.000200 0.707100 -0.707100
vn 0.353600 0.707000 -0.612400
vn 0.612300 0.707100 -0.353800
vn 0.707100 0.707100 0.000200
vn 0.612400 0.707000 0.353600
vn 0.353800 0.707100 0.612300
vn -0.000200 0.707100 0.707100
vn -0.353600 0.707000 0.612400
vn -0.612300 0.707100 0.353800
vn -0.707100 0.707100 0.000100
vn -0.800100 0.382700 -0.461900
vn -0.461900 0.382600 -0.800200
vn -0.000100 0.382600 -0.923900
vn 0.461900 0.382700 -0.800100
vn 0.800200 0.382600 -0.461900
vn 0.923900 0.382600 -0.000100
vn 0.800100 0.382700 0.461900
vn 0.461900 0.382600 0.800200
vn 0.000100 0.382600 0.923900
vn -0.461900 0.382700 0.800100
vn -0.800200 0.382600 0.461900
vn -0.800100 -0.382600 -0.461900
vn -0.461900 -0.382700 -0.800100
vn -0.000000 -0.382600 -0.923900
vn 0.461900 -0.382600 -0.800100
vn 0.800100 -0.382700 -0.461900
vn 0.923900 -0.382600 0.000000
vn 0.800100 -0.382600 0.461900
vn 0.461900 -0.382700 0.800100
vn -0.000000 -0.382600 0.923900
vn -0.461900 -0.382600 0.800100
vn -0.800100 -0.382700 0.461900
vn -0.707100 -0.707100 -0.000100
vn -0.353600 -0.707000 -0.612400
vn 0.612400 -0.707000 -0.353600
vn 0.353600 -0.707000 0.612400
vn -0.612400 -0.707000 0.353600
vn -0.331400 -0.923900 -0.191500
vn -0.191500 -0.923900 -0.331400
vn -0.000000 -0.923900 -0.382700
vn 0.191500 -0.923900 -0.331400
vn 0.331400 -0.923900 -0.191500
vn 0.382700 -0.923900 0.000000
vn 0.331400 -0.923900 0.191500
vn 0.191500 -0.923900 0.331400
vn -0.000000 -0.923900 0.382700
vn -0.191500 -0.923900 0.331400
vn -0.331400 -0.923900 0.191500
vn 0.363600 0.390600 -0.845700
vn 0.674300 -0.149000 -0.723300
vn 0.702000 0.665100 -0.254800
vn 0.923100 -0.360600 -0.133700
vn -0.000000 -0.491300 0.871000
vn -0.702000 0.665100 -0.254800
vn -0.923100 -0.360600 -0.133700
vn -0.363600 0.390600 -0.845700
vn -0.674300 -0.149000 -0.723200
vn 0.190600 -0.195800 -0.961900
vn -0.194800 0.098400 -0.975900
vn 0.414200 -0.721800 -0.554500
vn 0.279300 0.300400 -0.912000
vn 0.231700 -0.953100 -0.194900
vn 0.554900 0.442100 -0.704700
vn -0.000000 -0.998000 -0.063100
vn -0.231700 -0.953100 -0.194900
vn -0.555000 0.442100 -0.704700
vn -0.414200 -0.721800 -0.554500
vn -0.279300 0.300400 -0.912000
vn -0.190600 -0.195800 -0.961900
vn 0.194800 0.098400 -0.975900
vn -1.000000 -0.000100 -0.000100
vn -0.865900 -0.000000 -0.500200
vn -0.866000 -0.000000 -0.500100
vn -0.500100 -0.000000 -0.866000
vn 0.500100 -0.000000 -0.866000
vn 0.866000 -0.000000 -0.500100
vn 0.865900 -0.000000 -0.500200
vn 0.866000 -0.000000 0.500100
vn 0.500100 -0.000000 0.866000
vn -0.500100 -0.000000 0.866000
vn -0.865900 -0.000000 0.500200
vn -0.866000 -0.000000 0.500100
vn -1.000000 0.000100 0.000100
vn 0.865900 -0.000000 0.500200
vt 0.000000 0.000000
vt 0.000000 0.125000
vt 0.083300 0.000000
vt 0.083300 0.125000
vt 0.166700 0.000000
vt 0.166700 0.125000
vt 0.250000 0.000000
vt 0.250000 0.125000
vt 0.333300 0.000000
vt 0.333300 0.125000
vt 0.416700 0.000000
vt 0.416700 0.125000
vt 0.500000 0.000000
vt 0.500000 0.125000
vt 0.583300 0.000000
vt 0.583300 0.125000
vt 0.666700 0.000000
vt 0.666700 0.125000
vt 0.750000 0.000000
vt 0.750000 0.125000
vt 0.833300 0.000000
vt 0.833300 0.125000
vt 0.916700 0.000000
vt 0.916700 0.125000
vt 1.000000 0.000000
vt 1.000000 0.125000
vt 0.000000 0.250000
vt 0.083300 0.250000
vt 0.166700 0.250000
vt 0.250000 0.250000
vt 0.333300 0.250000
vt 0.416700 0.250000
vt 0.500000 0.250000
vt 0.583300 0.250000
vt 0.666700 0.250000
vt 0.750000 0.250000
vt 0.833300 0.250000
vt 0.916700 0.250000
vt 1.000000 0.250000
vt 0.000000 0.375000
vt 0.083300 0.375000
vt 0.166700 0.375000
vt 0.250000 0.375000
vt 0.333300 0.375000
vt 0.416700 0.375000
vt 0.500000 0.375000
vt 0.583300 0.375000
vt 0.666700 0.375000
vt 0.750000 0.375000
vt 0.833300 0.375000
vt 0.916700 0.375000
vt 1.000000 0.375000
vt 0.000000 0.500000
vt 0.083300 0.500000
vt 0.166700 0.500000
vt 0.250000 0.500000
vt 0.333300 0.500000
vt 0.416700 0.500000
vt 0.500000 0.500000
vt 0.583300 0.500000
vt 0.666700 0.500000
vt 0.750000 0.500000
vt 0.833300 0.500000
vt 0.916700 0.500000
vt 1.000000 0.500000
vt 0.000000 0.625000
vt 0.083300 0.625000
vt 0.166700 0.625000
vt 0.250000 0.625000
vt 0.333300 0.625000
vt 0.416700 0.625000
vt 0.500000 0.625000
vt 0.583300 0.625000
vt 0.666700 0.625000
vt 0.750000 0.625000
vt 0.833300 0.625000
vt 0.916700 0.625000
vt 1.000000 0.625000
vt 0.000000 0.750000
vt 0.083300 0.750000
vt 0.166700 0.750000
vt 0.250000 0.750000
vt 0.333300 0.750000
vt 0.416700 0.750000
vt 0.500000 0.750000
vt 0.583300 0.750000
vt 0.666700 0.750000
vt 0.750000 0.750000
vt 0.833300 0.750000
vt 0.916700 0.750000
vt 1.000000 0.750000
vt 0.000000 0.875000
vt 0.083300 0.875000
vt 0.166700 0.875000
vt 0.250000 0.875000
vt 0.333300 0.875000
vt 0.416700 0.875000
vt 0.500000 0.875000
vt 0.583300 0.875000
vt 0.666700 0.875000
vt 0.750000 0.875000
vt 0.833300 0.875000
vt 0.916700 0.875000
vt 1.000000 0.875000
vt 0.000000 1.000000
vt 0.083300 1.000000
vt 0.166700 1.000000
vt 0.250000 1.000000
vt 0.333300 1.000000
vt 0.416700 1.000000
vt 0.500000 1.000000
vt 0.583300 1.000000
vt 0.666700 1.000000
vt 0.750000 1.000000
vt 0.833300 1.000000
vt 0.916700 1.000000
vt 1.000000 1.000000
vt 0.933000 0.750000
vt 0.750000 0.933000
vt 0.250000 0.933000
vt 0.067000 0.750000
vt 0.067000 0.250000
vt 0.250000 0.067000
vt 0.750000 0.067000
vt 0.933000 0.250000
s 0
f 1/1/1 14/2/2 2/3/3
s 1
f 2/3/4 14/2/5 15/4/6
s 0
f 2/3/7 15/4/8 3/5/3
s 1
f 3/5/9 15/4/6 16/6/10
s 0
f 3/5/11 16/6/12 4/7/3
s 1
f 4/7/13 16/6/10 17/8/14
s 0
f 4/7/15 17/8/16 5/9/3
s 1
f 5/9/13 17/8/14 18/10/17
s 0
f 5/9/18 18/10/19 6/11/3
s 1
f 6/11/9 18/10/17 19/12/20
s 0
f 6/11/21 19/12/22 7/13/3
s 1
f 7/13/23 19/12/20 20/14/24
s 0
f 7/13/25 20/14/26 8/15/3
s 1
f 8/15/23 20/14/24 21/16/27
s 0
f 8/15/28 21/16/29 9/17/9
s 1
f 9/17/9 21/16/27 22/18/30
s 0
f 9/17/31 22/18/32 10/19/9
s 1
f 10/19/33 22/18/30 23/20/34
s 0
f 10/19/35 23/20/36 11/21/9
s 1
f 11/21/33 23/20/34 24/22/37
s 0
f 11/21/38 24/22/39 12/23/9
s 1
f 12/23/9 24/22/37 25/24/40
s 0
f 12/23/41 25/24/42 13/25/9
s 1
f 13/25/4 25/24/40 26/26/43
f 14/2/5 27/27/44 15/4/6
f 15/4/6 27/27/44 28/28/45
f 15/4/6 28/28/45 16/6/10
f 16/6/10 28/28/45 29/29/46
f 16/6/10 29/29/46 17/8/14
f 17/8/14 29/29/46 30/30/47
f 17/8/14 30/30/47 18/10/17
f 18/10/17 30/30/47 31/31/48
f 18/10/17 31/31/48 19/12/20
f 19/12/20 31/31/48 32/32/49
f 19/12/20 32/32/49 20/14/24
f 20/14/24 32/32/49 33/33/50
f 20/14/24 33/33/50 21/16/27
f 21/16/27 33/33/50 34/34/51
f 21/16/27 34/34/51 22/18/30
f 22/18/30 34/34/51 35/35/52
f 22/18/30 35/35/52 23/20/34
f 23/20/34 35/35/52 36/36/53
f 23/20/34 36/36/53 24/22/37
f 24/22/37 36/36/53 37/37/54
f 24/22/37 37/37/54 25/24/40
f 25/24/40 37/37/54 38/38/55
f 25/24/40 38/38/55 26/26/43
f 26/26/43 38/38/55 39/39/44
f 27/27/44 40/40/56 28/28/45
f 28/28/45 40/40/56 41/41/57
f 28/28/45 41/41/57 29/29/46
f 29/29/46 41/41/57 42/42/58
f 29/29/46 42/42/58 30/30/47
f 30/30/47 42/42/58 43/43/59
f 30/30/47 43/43/59 31/31/48
f 31/31/48 43/43/59 44/44/60
f 31/31/48 44/44/60 32/32/49
f 32/32/49 44/44/60 45/45/61
f 32/32/49 45/45/61 33/33/50
f 33/33/50 45/45/61 46/46/62
f 33/33/50 46/46/62 34/34/51
f 34/34/51 46/46/62 47/47/63
f 34/34/51 47/47/63 35/35/52
f 35/35/52 47/47/63 48/48/64
f 35/35/52 48/48/64 36/36/53
f 36/36/53 48/48/64 49/49/65
f 36/36/53 49/49/65 37/37/54
f 37/37/54 49/49/65 50/50/66
f 37/37/54 50/50/66 38/38/55
f 38/38/55 50/50/66 51/51/67
f 38/38/55 51/51/67 39/39/44
f 39/39/44 51/51/67 52/52/68
f 40/40/56 53/53/69 41/41/57
f 41/41/57 53/53/69 54/54/70
f 41/41/57 54/54/70 42/42/58
f 42/42/58 54/54/70 55/55/71
f 42/42/58 55/55/71 43/43/59
f 43/43/59 55/55/71 56/56/72
f 43/43/59 56/56/72 44/44/60
f 44/44/60 56/56/72 57/57/73
f 44/44/60 57/57/73 45/45/61
f 45/45/61 57/57/73 58/58/74
f 45/45/61 58/58/74 46/46/62
f 46/46/62 58/58/74 59/59/75
f 46/46/62 59/59/75 47/47/63
f 47/47/63 59/59/75 60/60/76
f 47/47/63 60/60/76 48/48/64
f 48/48/64 60/60/76 61/61/77
f 48/48/64 61/61/77 49/49/65
f 49/49/65 61/61/77 62/62/78
f 49/49/65 62/62/78 50/50/66
f 50/50/66 62/62/78 63/63/79
f 50/50/66 63/63/79 51/51/67
f 51/51/67 63/63/79 64/64/80
f 51/51/67 64/64/80 52/52/68
f 52/52/68 64/64/80 65/65/69
f 53/53/69 66/66/81 54/54/70
f 54/54/70 66/66/81 67/67/82
f 54/54/70 67/67/82 55/55/71
f 55/55/71 67/67/82 68/68/83
f 55/55/71 68/68/83 56/56/72
f 56/56/72 68/68/83 69/69/84
f 56/56/72 69/69/84 57/57/73
f 57/57/73 69/69/84 70/70/85
f 57/57/73 70/70/85 58/58/74
f 58/58/74 70/70/85 71/71/86
f 58/58/74 71/71/86 59/59/75
f 59/59/75 71/71/86 72/72/87
f 59/59/75 72/72/87 60/60/76
f 60/60/76 72/72/87 73/73/88
f 60/60/76 73/73/88 61/61/77
f 61/61/77 73/73/88 74/74/89
f 61/61/77 74/74/89 62/62/78
f 62/62/78 74/74/89 75/75/90
f 62/62/78 75/75/90 63/63/79
f 63/63/79 75/75/90 76/76/91
f 63/63/79 76/76/91 64/64/80
f 64/64/80 76/76/91 77/77/92
f 64/64/80 77/77/92 65/65/69
f 65/65/69 77/77/92 78/78/93
f 66/66/81 79/79/94 67/67/82
f 67/67/82 79/79/94 80/80/95
f 67/67/82 80/80/95 68/68/83
f 68/68/83 80/80/95 81/81/96
f 68/68/83 81/81/96 69/69/84
f 69/69/84 81/81/96 82/82/97
f 69/69/84 82/82/97 70/70/85
f 70/70/85 82/82/97 83/83/98
f 70/70/85 83/83/98 71/71/86
f 71/71/86 83/83/98 84/84/99
f 71/71/86 84/84/99 72/72/87
f 72/72/87 84/84/99 85/85/100
f 72/72/87 85/85/100 73/73/88
f 73/73/88 85/85/100 86/86/101
f 73/73/88 86/86/101 74/74/89
f 74/74/89 86/86/101 87/87/102
f 74/74/89 87/87/102 75/75/90
f 75/75/90 87/87/102 88/88/103
f 75/75/90 88/88/103 76/76/91
f 76/76/91 88/88/103 89/89/104
f 76/76/91 89/89/104 77/77/92
f 77/77/92 89/89/104 90/90/105
f 77/77/92 90/90/105 78/78/93
f 78/78/93 90/90/105 91/91/94
f 79/79/94 92/92/106 80/80/95
f 80/80/95 92/92/106 93/93/107
f 80/80/95 93/93/107 81/81/96
f 81/81/96 93/93/107 94/94/108
f 81/81/96 94/94/108 82/82/97
f 82/82/97 94/94/108 95/95/109
f 82/82/97 95/95/109 83/83/98
f 83/83/98 95/95/109 96/96/110
f 83/83/98 96/96/110 84/84/99
f 84/84/99 96/96/110 97/97/111
f 84/84/99 97/97/111 85/85/100
f 85/85/100 97/97/111 98/98/112
f 85/85/100 98/98/112 86/86/101
f 86/86/101 98/98/112 99/99/113
f 86/86/101 99/99/113 87/87/102
f 87/87/102 99/99/113 100/100/114
f 87/87/102 100/100/114 88/88/103
f 88/88/103 100/100/114 101/101/115
f 88/88/103 101/101/115 89/89/104
f 89/89/104 101/101/115 102/102/116
f 89/89/104 102/102/116 90/90/105
f 90/90/105 102/102/116 103/103/117
f 90/90/105 103/103/117 91/91/94
f 91/91/94 103/103/117 104/104/118
f 92/92/106 105/105/119 93/93/107
s 0
f 93/93/120 105/105/3 106/106/121
s 1
f 93/93/107 106/106/3 94/94/108
s 0
f 94/94/122 106/106/3 107/107/123
s 1
f 94/94/108 107/107/124 95/95/109
s 0
f 95/95/125 107/107/3 108/108/126
s 1
f 95/95/109 108/108/124 96/96/110
s 0
f 96/96/127 108/108/3 109/109/128
s 1
f 96/96/110 109/109/3 97/97/111
s 0
f 97/97/129 109/109/3 110/110/130
s 1
f 97/97/111 110/110/131 98/98/112
s 0
f 98/98/132 110/110/9 111/111/133
s 1
f 98/98/112 111/111/131 99/99/113
s 0
f 99/99/134 111/111/9 112/112/135
s 1
f 99/99/113 112/112/3 100/100/114
s 0
f 100/100/136 112/112/9 113/113/137
s 1
f 100/100/114 113/113/138 101/101/115
s 0
f 101/101/139 113/113/9 114/114/140
s 1
f 101/101/115 114/114/138 102/102/116
s 0
f 102/102/141 114/114/9 115/115/142
s 1
f 102/102/116 115/115/3 103/103/117
s 0
f 103/103/143 115/115/9 116/116/144
s 1
f 103/103/117 116/116/119 104/104/118
s 0
f 104/104/145 116/116/9 117/117/146
s 1
f 118/59/9 120/118/9 119/65/9
f 118/59/9 121/119/9 120/118/9
f 118/59/9 122/111/9 121/119/9
f 118/59/9 123/120/9 122/111/9
f 118/59/9 124/121/9 123/120/9
f 118/59/9 125/53/9 124/121/9
f 118/59/9 126/122/9 125/53/9
f 118/59/9 127/123/9 126/122/9
f 118/59/9 128/13/9 127/123/9
f 118/59/9 129/124/9 128/13/9
f 118/59/9 130/125/9 129/124/9
f 118/59/9 119/65/9 130/125/9
f 131/59/3 132/65/3 133/118/3
f 131/59/3 133/118/3 134/119/3
f 131/59/3 134/119/3 135/111/3
f 131/59/3 135/111/3 136/120/3
f 131/59/3 136/120/3 137/121/3
f 131/59/3 137/121/3 138/53/3
f 131/59/3 138/53/3 139/122/3
f 131/59/3 139/122/3 140/123/3
f 131/59/3 140/123/3 141/13/3
f 131/59/3 141/13/3 142/124/3
f 131/59/3 142/124/3 143/125/3
f 131/59/3 143/125/3 132/65/3
f 144/105/147 146/106/148 145/1/147
f 145/1/147 146/106/148 147/3/148
f 146/106/148 148/107/149 147/3/148
f 147/3/148 148/107/149 149/5/149
f 148/107/149 150/108/150 149/5/149
f 149/5/149 150/108/150 151/7/150
f 150/108/150 152/109/151 151/7/150
f 151/7/150 152/109/151 153/9/151
f 152/109/151 154/110/152 153/9/151
f 153/9/151 154/110/152 155/11/152
f 154/110/152 156/111/153 155/11/152
f 155/11/152 156/111/153 157/13/153
f 156/111/153 158/112/154 157/13/153
f 157/13/153 158/112/154 159/15/154
f 158/112/154 160/113/155 159/15/154
f 159/15/154 160/113/155 161/17/155
f 160/113/155 162/114/156 161/17/155
f 161/17/155 162/114/156 163/19/156
f 162/114/156 164/115/157 163/19/156
f 163/19/156 164/115/157 165/21/157
f 164/115/157 166/116/158 165/21/157
f 165/21/157 166/116/158 167/23/158
f 166/116/158 168/117/159 167/23/158
f 167/23/158 168/117/159 169/25/159
f 170/59/9 172/118/9 171/65/9
f 170/59/9 173/119/9 172/118/9
f 170/59/9 174/111/9 173/119/9
f 170/59/9 175/120/9 174/111/9
f 170/59/9 176/121/9 175/120/9
f 170/59/9 177/53/9 176/121/9
f 170/59/9 178/122/9 177/53/9
f 170/59/9 179/123/9 178/122/9
f 170/59/9 180/13/9 179/123/9
f 170/59/9 181/124/9 180/13/9
f 170/59/9 182/125/9 181/124/9
f 170/59/9 171/65/9 182/125/9
f 183/59/3 184/65/3 185/118/3
f 183/59/3 185/118/3 186/119/3
f 183/59/3 186/119/3 187/111/3
f 183/59/3 187/111/3 188/120/3
f 183/59/3 188/120/3 189/121/3
f 183/59/3 189/121/3 190/53/3
f 183/59/3 190/53/3 191/122/3
f 183/59/3 191/122/3 192/123/3
f 183/59/3 192/123/3 193/13/3
f 183/59/3 193/13/3 194/124/3
f 183/59/3 194/124/3 195/125/3
f 183/59/3 195/125/3 184/65/3
f 196/105/147 198/106/148 197/1/147
f 197/1/147 198/106/148 199/3/148
f 198/106/148 200/107/149 199/3/148
f 199/3/148 200/107/149 201/5/149
f 200/107/149 202/108/150 201/5/149
f 201/5/149 202/108/150 203/7/150
f 202/108/150 204/109/151 203/7/150
f 203/7/150 204/109/151 205/9/151
f 204/109/151 206/110/152 205/9/151
f 205/9/151 206/110/152 207/11/152
f 206/110/152 208/111/153 207/11/152
f 207/11/152 208/111/153 209/13/153
f 208/111/153 210/112/154 209/13/153
f 209/13/153 210/112/154 211/15/154
f 210/112/154 212/113/155 211/15/154
f 211/15/154 212/113/155 213/17/155
f 212/113/155 214/114/156 213/17/155
f 213/17/155 214/114/156 215/19/156
f 214/114/156 216/115/157 215/19/156
f 215/19/156 216/115/157 217/21/157
f 216/115/157 218/116/158 217/21/157
f 217/21/157 218/116/158 219/23/158
f 218/116/158 220/117/159 219/23/158
f 219/23/158 220/117/159 221/25/159
s 0
f 222/1/160 235/2/161 223/3/3
s 1
f 223/3/9 235/2/5 236/4/6
s 0
f 223/3/162 236/4/163 224/5/3
s 1
f 224/5/9 236/4/6 237/6/164
s 0
f 224/5/165 237/6/166 225/7/3
s 1
f 225/7/9 237/6/164 238/8/167
s 0
f 225/7/168 238/8/169 226/9/3
s 1
f 226/9/9 238/8/167 239/10/17
s 0
f 226/9/170 239/10/171 227/11/3
s 1
f 227/11/9 239/10/17 240/12/172
s 0
f 227/11/173 240/12/174 228/13/3
s 1
f 228/13/9 240/12/172 241/14/175
s 0
f 228/13/176 241/14/177 229/15/3
s 1
f 229/15/9 241/14/175 242/16/27
s 0
f 229/15/178 242/16/179 230/17/9
s 1
f 230/17/9 242/16/27 243/18/180
s 0
f 230/17/181 243/18/182 231/19/9
s 1
f 231/19/9 243/18/180 244/20/183
s 0
f 231/19/184 244/20/185 232/21/9
s 1
f 232/21/9 244/20/183 245/22/37
s 0
f 232/21/186 245/22/187 233/23/9
s 1
f 233/23/9 245/22/37 246/24/188
s 0
f 233/23/189 246/24/190 234/25/9
s 1
f 234/25/9 246/24/188 247/26/191
f 235/2/5 248/27/192 236/4/6
f 236/4/6 248/27/192 249/28/193
f 236/4/6 249/28/193 237/6/164
f 237/6/164 249/28/193 250/29/194
f 237/6/164 250/29/194 238/8/167
f 238/8/167 250/29/194 251/30/195
f 238/8/167 251/30/195 239/10/17
f 239/10/17 251/30/195 252/31/196
f 239/10/17 252/31/196 240/12/172
f 240/12/172 252/31/196 253/32/197
f 240/12/172 253/32/197 241/14/175
f 241/14/175 253/32/197 254/33/198
f 241/14/175 254/33/198 242/16/27
f 242/16/27 254/33/198 255/34/199
f 242/16/27 255/34/199 243/18/180
f 243/18/180 255/34/199 256/35/200
f 243/18/180 256/35/200 244/20/183
f 244/20/183 256/35/200 257/36/201
f 244/20/183 257/36/201 245/22/37
f 245/22/37 257/36/201 258/37/202
f 245/22/37 258/37/202 246/24/188
f 246/24/188 258/37/202 259/38/203
f 246/24/188 259/38/203 247/26/191
f 247/26/191 259/38/203 260/39/44
f 248/27/192 261/40/204 249/28/193
f 249/28/193 261/40/204 262/41/205
f 249/28/193 262/41/205 250/29/194
f 250/29/194 262/41/205 263/42/58
f 250/29/194 263/42/58 251/30/195
f 251/30/195 263/42/58 264/43/206
f 251/30/195 264/43/206 252/31/196
f 252/31/196 264/43/206 265/44/207
f 252/31/196 265/44/207 253/32/197
f 253/32/197 265/44/207 266/45/61
f 253/32/197 266/45/61 254/33/198
f 254/33/198 266/45/61 267/46/208
f 254/33/198 267/46/208 255/34/199
f 255/34/199 267/46/208 268/47/209
f 255/34/199 268/47/209 256/35/200
f 256/35/200 268/47/209 269/48/64
f 256/35/200 269/48/64 257/36/201
f 257/36/201 269/48/64 270/49/210
f 257/36/201 270/49/210 258/37/202
f 258/37/202 270/49/210 271/50/211
f 258/37/202 271/50/211 259/38/203
f 259/38/203 271/50/211 272/51/67
f 259/38/203 272/51/67 260/39/44
f 260/39/44 272/51/67 273/52/68
f 261/40/204 274/53/69 262/41/205
f 262/41/205 274/53/69 275/54/212
f 262/41/205 275/54/212 263/42/58
f 263/42/58 275/54/212 276/55/213
f 263/42/58 276/55/213 264/43/206
f 264/43/206 276/55/213 277/56/150
f 264/43/206 277/56/150 265/44/207
f 265/44/207 277/56/150 278/57/214
f 265/44/207 278/57/214 266/45/61
f 266/45/61 278/57/214 279/58/215
f 266/45/61 279/58/215 267/46/208
f 267/46/208 279/58/215 280/59/153
f 267/46/208 280/59/153 268/47/209
f 268/47/209 280/59/153 281/60/216
f 268/47/209 281/60/216 269/48/64
f 269/48/64 281/60/216 282/61/217
f 269/48/64 282/61/217 270/49/210
f 270/49/210 282/61/217 283/62/156
f 270/49/210 283/62/156 271/50/211
f 271/50/211 283/62/156 284/63/218
f 271/50/211 284/63/218 272/51/67
f 272/51/67 284/63/218 285/64/219
f 272/51/67 285/64/219 273/52/68
f 273/52/68 285/64/219 286/65/69
f 274/53/69 287/66/81 275/54/212
f 275/54/212 287/66/81 288/67/82
f 275/54/212 288/67/82 276/55/213
f 276/55/213 288/67/82 289/68/83
f 276/55/213 289/68/83 277/56/150
f 277/56/150 289/68/83 290/69/84
f 277/56/150 290/69/84 278/57/214
f 278/57/214 290/69/84 291/70/85
f 278/57/214 291/70/85 279/58/215
f 279/58/215 291/70/85 292/71/86
f 279/58/215 292/71/86 280/59/153
f 280/59/153 292/71/86 293/72/87
f 280/59/153 293/72/87 281/60/216
f 281/60/216 293/72/87 294/73/88
f 281/60/216 294/73/88 282/61/217
f 282/61/217 294/73/88 295/74/89
f 282/61/217 295/74/89 283/62/156
f 283/62/156 295/74/89 296/75/90
f 283/62/156 296/75/90 284/63/218
f 284/63/218 296/75/90 297/76/91
f 284/63/218 297/76/91 285/64/219
f 285/64/219 297/76/91 298/77/92
f 285/64/219 298/77/92 286/65/69
f 286/65/69 298/77/92 299/78/220
f 287/66/81 300/79/94 288/67/82
f 288/67/82 300/79/94 301/80/221
f 288/67/82 301/80/221 289/68/83
f 289/68/83 301/80/221 302/81/96
f 289/68/83 302/81/96 290/69/84
f 290/69/84 302/81/96 303/82/97
f 290/69/84 303/82/97 291/70/85
f 291/70/85 303/82/97 304/83/222
f 291/70/85 304/83/222 292/71/86
f 292/71/86 304/83/222 305/84/99
f 292/71/86 305/84/99 293/72/87
f 293/72/87 305/84/99 306/85/100
f 293/72/87 306/85/100 294/73/88
f 294/73/88 306/85/100 307/86/223
f 294/73/88 307/86/223 295/74/89
f 295/74/89 307/86/223 308/87/102
f 295/74/89 308/87/102 296/75/90
f 296/75/90 308/87/102 309/88/103
f 296/75/90 309/88/103 297/76/91
f 297/76/91 309/88/103 310/89/224
f 297/76/91 310/89/224 298/77/92
f 298/77/92 310/89/224 311/90/105
f 298/77/92 311/90/105 299/78/220
f 299/78/220 311/90/105 312/91/225
f 300/79/94 313/92/226 301/80/221
f 301/80/221 313/92/226 314/93/227
f 301/80/221 314/93/227 302/81/96
f 302/81/96 314/93/227 315/94/108
f 302/81/96 315/94/108 303/82/97
f 303/82/97 315/94/108 316/95/228
f 303/82/97 316/95/228 304/83/222
f 304/83/222 316/95/228 317/96/229
f 304/83/222 317/96/229 305/84/99
f 305/84/99 317/96/229 318/97/111
f 305/84/99 318/97/111 306/85/100
f 306/85/100 318/97/111 319/98/230
f 306/85/100 319/98/230 307/86/223
f 307/86/223 319/98/230 320/99/231
f 307/86/223 320/99/231 308/87/102
f 308/87/102 320/99/231 321/100/114
f 308/87/102 321/100/114 309/88/103
f 309/88/103 321/100/114 322/101/232
f 309/88/103 322/101/232 310/89/224
f 310/89/224 322/101/232 323/102/233
f 310/89/224 323/102/233 311/90/105
f 311/90/105 323/102/233 324/103/117
f 311/90/105 324/103/117 312/91/225
f 312/91/225 324/103/117 325/104/118
f 313/92/226 326/105/3 314/93/227
s 0
f 314/93/234 326/105/3 327/106/235
s 1
f 314/93/227 327/106/3 315/94/108
s 0
f 315/94/236 327/106/3 328/107/237
s 1
f 315/94/108 328/107/3 316/95/228
s 0
f 316/95/238 328/107/3 329/108/239
s 1
f 316/95/228 329/108/3 317/96/229
s 0
f 317/96/240 329/108/3 330/109/241
s 1
f 317/96/229 330/109/3 318/97/111
s 0
f 318/97/242 330/109/3 331/110/243
s 1
f 318/97/111 331/110/3 319/98/230
s 0
f 319/98/244 331/110/9 332/111/245
s 1
f 319/98/230 332/111/3 320/99/231
s 0
f 320/99/246 332/111/9 333/112/247
s 1
f 320/99/231 333/112/3 321/100/114
s 0
f 321/100/248 333/112/9 334/113/249
s 1
f 321/100/114 334/113/3 322/101/232
s 0
f 322/101/250 334/113/9 335/114/251
s 1
f 322/101/232 335/114/3 323/102/233
s 0
f 323/102/252 335/114/9 336/115/253
s 1
f 323/102/233 336/115/3 324/103/117
s 0
f 324/103/254 336/115/9 337/116/255
s 1
f 324/103/117 337/116/3 325/104/118
s 0
f 325/104/256 337/116/9 338/117/257
f 339/1/258 352/2/259 340/3/3
s 1
f 340/3/9 352/2/43 353/4/260
s 0
f 340/3/261 353/4/262 341/5/3
s 1
f 341/5/9 353/4/260 354/6/263
s 0
f 341/5/264 354/6/265 342/7/3
s 1
f 342/7/9 354/6/263 355/8/266
s 0
f 342/7/267 355/8/268 343/9/3
s 1
f 343/9/9 355/8/266 356/10/269
s 0
f 343/9/270 356/10/271 344/11/3
s 1
f 344/11/9 356/10/269 357/12/272
s 0
f 344/11/273 357/12/274 345/13/3
s 1
f 345/13/9 357/12/272 358/14/275
s 0
f 345/13/276 358/14/277 346/15/3
s 1
f 346/15/9 358/14/275 359/16/278
s 0
f 346/15/279 359/16/280 347/17/9
s 1
f 347/17/9 359/16/278 360/18/281
s 0
f 347/17/282 360/18/283 348/19/9
s 1
f 348/19/9 360/18/281 361/20/284
s 0
f 348/19/285 361/20/286 349/21/9
s 1
f 349/21/9 361/20/284 362/22/287
s 0
f 349/21/288 362/22/289 350/23/9
s 1
f 350/23/9 362/22/287 363/24/290
s 0
f 350/23/291 363/24/292 351/25/9
s 1
f 351/25/9 363/24/290 364/26/43
f 352/2/43 365/27/192 353/4/260
f 353/4/260 365/27/192 366/28/293
f 353/4/260 366/28/293 354/6/263
f 354/6/263 366/28/293 367/29/294
f 354/6/263 367/29/294 355/8/266
f 355/8/266 367/29/294 368/30/295
f 355/8/266 368/30/295 356/10/269
f 356/10/269 368/30/295 369/31/296
f 356/10/269 369/31/296 357/12/272
f 357/12/272 369/31/296 370/32/297
f 357/12/272 370/32/297 358/14/275
f 358/14/275 370/32/297 371/33/298
f 358/14/275 371/33/298 359/16/278
f 359/16/278 371/33/298 372/34/299
f 359/16/278 372/34/299 360/18/281
f 360/18/281 372/34/299 373/35/300
f 360/18/281 373/35/300 361/20/284
f 361/20/284 373/35/300 374/36/301
f 361/20/284 374/36/301 362/22/287
f 362/22/287 374/36/301 375/37/302
f 362/22/287 375/37/302 363/24/290
f 363/24/290 375/37/302 376/38/303
f 363/24/290 376/38/303 364/26/43
f 364/26/43 376/38/303 377/39/304
f 365/27/192 378/40/56 366/28/293
f 366/28/293 378/40/56 379/41/305
f 366/28/293 379/41/305 367/29/294
f 367/29/294 379/41/305 380/42/306
f 367/29/294 380/42/306 368/30/295
f 368/30/295 380/42/306 381/43/307
f 368/30/295 381/43/307 369/31/296
f 369/31/296 381/43/307 382/44/308
f 369/31/296 382/44/308 370/32/297
f 370/32/297 382/44/308 383/45/309
f 370/32/297 383/45/309 371/33/298
f 371/33/298 383/45/309 384/46/310
f 371/33/298 384/46/310 372/34/299
f 372/34/299 384/46/310 385/47/311
f 372/34/299 385/47/311 373/35/300
f 373/35/300 385/47/311 386/48/312
f 373/35/300 386/48/312 374/36/301
f 374/36/301 386/48/312 387/49/313
f 374/36/301 387/49/313 375/37/302
f 375/37/302 387/49/313 388/50/314
f 375/37/302 388/50/314 376/38/303
f 376/38/303 388/50/314 389/51/315
f 376/38/303 389/51/315 377/39/304
f 377/39/304 389/51/315 390/52/204
f 378/40/56 391/53/147 379/41/305
f 379/41/305 391/53/147 392/54/212
f 379/41/305 392/54/212 380/42/306
f 380/42/306 392/54/212 393/55/213
f 380/42/306 393/55/213 381/43/307
f 381/43/307 393/55/213 394/56/150
f 381/43/307 394/56/150 382/44/308
f 382/44/308 394/56/150 395/57/214
f 382/44/308 395/57/214 383/45/309
f 383/45/309 395/57/214 396/58/215
f 383/45/309 396/58/215 384/46/310
f 384/46/310 396/58/215 397/59/153
f 384/46/310 397/59/153 385/47/311
f 385/47/311 397/59/153 398/60/216
f 385/47/311 398/60/216 386/48/312
f 386/48/312 398/60/216 399/61/217
f 386/48/312 399/61/217 387/49/313
f 387/49/313 399/61/217 400/62/156
f 387/49/313 400/62/156 388/50/314
f 388/50/314 400/62/156 401/63/218
f 388/50/314 401/63/218 389/51/315
f 389/51/315 401/63/218 402/64/219
f 389/51/315 402/64/219 390/52/204
f 390/52/204 402/64/219 403/65/159
f 391/53/147 404/66/220 392/54/212
f 392/54/212 404/66/220 405/67/316
f 392/54/212 405/67/316 393/55/213
f 393/55/213 405/67/316 406/68/317
f 393/55/213 406/68/317 394/56/150
f 394/56/150 406/68/317 407/69/318
f 394/56/150 407/69/318 395/57/214
f 395/57/214 407/69/318 408/70/319
f 395/57/214 408/70/319 396/58/215
f 396/58/215 408/70/319 409/71/320
f 396/58/215 409/71/320 397/59/153
f 397/59/153 409/71/320 410/72/321
f 397/59/153 410/72/321 398/60/216
f 398/60/216 410/72/321 411/73/322
f 398/60/216 411/73/322 399/61/217
f 399/61/217 411/73/322 412/74/323
f 399/61/217 412/74/323 400/62/156
f 400/62/156 412/74/323 413/75/324
f 400/62/156 413/75/324 401/63/218
f 401/63/218 413/75/324 414/76/325
f 401/63/218 414/76/325 402/64/219
f 402/64/219 414/76/325 415/77/326
f 402/64/219 415/77/326 403/65/159
f 403/65/159 415/77/326 416/78/93
f 404/66/220 417/79/327 405/67/316
f 405/67/316 417/79/327 418/80/221
f 405/67/316 418/80/221 406/68/317
f 406/68/317 418/80/221 419/81/328
f 406/68/317 419/81/328 407/69/318
f 407/69/318 419/81/328 420/82/97
f 407/69/318 420/82/97 408/70/319
f 408/70/319 420/82/97 421/83/222
f 408/70/319 421/83/222 409/71/320
f 409/71/320 421/83/222 422/84/329
f 409/71/320 422/84/329 410/72/321
f 410/72/321 422/84/329 423/85/100
f 410/72/321 423/85/100 411/73/322
f 411/73/322 423/85/100 424/86/223
f 411/73/322 424/86/223 412/74/323
f 412/74/323 424/86/223 425/87/330
f 412/74/323 425/87/330 413/75/324
f 413/75/324 425/87/330 426/88/103
f 413/75/324 426/88/103 414/76/325
f 414/76/325 426/88/103 427/89/224
f 414/76/325 427/89/224 415/77/326
f 415/77/326 427/89/224 428/90/331
f 415/77/326 428/90/331 416/78/93
f 416/78/93 428/90/331 429/91/225
f 417/79/327 430/92/106 418/80/221
f 418/80/221 430/92/106 431/93/332
f 418/80/221 431/93/332 419/81/328
f 419/81/328 431/93/332 432/94/333
f 419/81/328 432/94/333 420/82/97
f 420/82/97 432/94/333 433/95/334
f 420/82/97 433/95/334 421/83/222
f 421/83/222 433/95/334 434/96/335
f 421/83/222 434/96/335 422/84/329
f 422/84/329 434/96/335 435/97/336
f 422/84/329 435/97/336 423/85/100
f 423/85/100 435/97/336 436/98/337
f 423/85/100 436/98/337 424/86/223
f 424/86/223 436/98/337 437/99/338
f 424/86/223 437/99/338 425/87/330
f 425/87/330 437/99/338 438/100/339
f 425/87/330 438/100/339 426/88/103
f 426/88/103 438/100/339 439/101/340
f 426/88/103 439/101/340 427/89/224
f 427/89/224 439/101/340 440/102/341
f 427/89/224 440/102/341 428/90/331
f 428/90/331 440/102/341 441/103/342
f 428/90/331 441/103/342 429/91/225
f 429/91/225 441/103/342 442/104/106
f 430/92/106 443/105/3 431/93/332
s 0
f 431/93/343 443/105/3 444/106/344
s 1
f 431/93/332 444/106/3 432/94/333
s 0
f 432/94/345 444/106/3 445/107/346
s 1
f 432/94/333 445/107/3 433/95/334
s 0
f 433/95/238 445/107/3 446/108/347
s 1
f 433/95/334 446/108/3 434/96/335
s 0
f 434/96/348 446/108/3 447/109/349
s 1
f 434/96/335 447/109/3 435/97/336
s 0
f 435/97/350 447/109/3 448/110/351
s 1
f 435/97/336 448/110/3 436/98/337
s 0
f 436/98/352 448/110/9 449/111/353
s 1
f 436/98/337 449/111/3 437/99/338
s 0
f 437/99/354 449/111/9 450/112/355
s 1
f 437/99/338 450/112/3 438/100/339
s 0
f 438/100/356 450/112/9 451/113/357
s 1
f 438/100/339 451/113/3 439/101/340
s 0
f 439/101/358 451/113/9 452/114/251
s 1
f 439/101/340 452/114/3 440/102/341
s 0
f 440/102/359 452/114/9 453/115/360
s 1
f 440/102/341 453/115/3 441/103/342
s 0
f 441/103/361 453/115/9 454/116/362
s 1
f 441/103/342 454/116/3 442/104/106
s 0
f 442/104/363 454/116/9 455/117/364
f 456/1/258 469/2/259 457/3/3
s 1
f 457/3/9 469/2/43 470/4/260
s 0
f 457/3/261 470/4/262 458/5/3
s 1
f 458/5/9 470/4/260 471/6/263
s 0
f 458/5/264 471/6/265 459/7/3
s 1
f 459/7/9 471/6/263 472/8/266
s 0
f 459/7/267 472/8/268 460/9/3
s 1
f 460/9/9 472/8/266 473/10/269
s 0
f 460/9/270 473/10/271 461/11/3
s 1
f 461/11/9 473/10/269 474/12/272
s 0
f 461/11/273 474/12/274 462/13/3
s 1
f 462/13/9 474/12/272 475/14/275
s 0
f 462/13/276 475/14/277 463/15/3
s 1
f 463/15/9 475/14/275 476/16/278
s 0
f 463/15/279 476/16/280 464/17/9
s 1
f 464/17/9 476/16/278 477/18/281
s 0
f 464/17/282 477/18/283 465/19/9
s 1
f 465/19/9 477/18/281 478/20/284
s 0
f 465/19/285 478/20/286 466/21/9
s 1
f 466/21/9 478/20/284 479/22/287
s 0
f 466/21/288 479/22/289 467/23/9
s 1
f 467/23/9 479/22/287 480/24/290
s 0
f 467/23/291 480/24/292 468/25/9
s 1
f 468/25/9 480/24/290 481/26/43
f 469/2/43 482/27/192 470/4/260
f 470/4/260 482/27/192 483/28/293
f 470/4/260 483/28/293 471/6/263
f 471/6/263 483/28/293 484/29/294
f 471/6/263 484/29/294 472/8/266
f 472/8/266 484/29/294 485/30/295
f 472/8/266 485/30/295 473/10/269
f 473/10/269 485/30/295 486/31/296
f 473/10/269 486/31/296 474/12/272
f 474/12/272 486/31/296 487/32/297
f 474/12/272 487/32/297 475/14/275
f 475/14/275 487/32/297 488/33/298
f 475/14/275 488/33/298 476/16/278
f 476/16/278 488/33/298 489/34/299
f 476/16/278 489/34/299 477/18/281
f 477/18/281 489/34/299 490/35/300
f 477/18/281 490/35/300 478/20/284
f 478/20/284 490/35/300 491/36/301
f 478/20/284 491/36/301 479/22/287
f 479/22/287 491/36/301 492/37/302
f 479/22/287 492/37/302 480/24/290
f 480/24/290 492/37/302 493/38/303
f 480/24/290 493/38/303 481/26/43
f 481/26/43 493/38/303 494/39/304
f 482/27/192 495/40/56 483/28/293
f 483/28/293 495/40/56 496/41/305
f 483/28/293 496/41/305 484/29/294
f 484/29/294 496/41/305 497/42/306
f 484/29/294 497/42/306 485/30/295
f 485/30/295 497/42/306 498/43/307
f 485/30/295 498/43/307 486/31/296
f 486/31/296 498/43/307 499/44/308
f 486/31/296 499/44/308 487/32/297
f 487/32/297 499/44/308 500/45/309
f 487/32/297 500/45/309 488/33/298
f 488/33/298 500/45/309 501/46/310
f 488/33/298 501/46/310 489/34/299
f 489/34/299 501/46/310 502/47/311
f 489/34/299 502/47/311 490/35/300
f 490/35/300 502/47/311 503/48/312
f 490/35/300 503/48/312 491/36/301
f 491/36/301 503/48/312 504/49/313
f 491/36/301 504/49/313 492/37/302
f 492/37/302 504/49/313 505/50/314
f 492/37/302 505/50/314 493/38/303
f 493/38/303 505/50/314 506/51/315
f 493/38/303 506/51/315 494/39/304
f 494/39/304 506/51/315 507/52/204
f 495/40/56 508/53/147 496/41/305
f 496/41/305 508/53/147 509/54/212
f 496/41/305 509/54/212 497/42/306
f 497/42/306 509/54/212 510/55/213
f 497/42/306 510/55/213 498/43/307
f 498/43/307 510/55/213 511/56/150
f 498/43/307 511/56/150 499/44/308
f 499/44/308 511/56/150 512/57/214
f 499/44/308 512/57/214 500/45/309
f 500/45/309 512/57/214 513/58/215
f 500/45/309 513/58/215 501/46/310
f 501/46/310 513/58/215 514/59/153
f 501/46/310 514/59/153 502/47/311
f 502/47/311 514/59/153 515/60/216
f 502/47/311 515/60/216 503/48/312
f 503/48/312 515/60/216 516/61/217
f 503/48/312 516/61/217 504/49/313
f 504/49/313 516/61/217 517/62/156
f 504/49/313 517/62/156 505/50/314
f 505/50/314 517/62/156 518/63/218
f 505/50/314 518/63/218 506/51/315
f 506/51/315 518/63/218 519/64/219
f 506/51/315 519/64/219 507/52/204
f 507/52/204 519/64/219 520/65/159
f 508/53/147 521/66/220 509/54/212
f 509/54/212 521/66/220 522/67/316
f 509/54/212 522/67/316 510/55/213
f 510/55/213 522/67/316 523/68/317
f 510/55/213 523/68/317 511/56/150
f 511/56/150 523/68/317 524/69/318
f 511/56/150 524/69/318 512/57/214
f 512/57/214 524/69/318 525/70/319
f 512/57/214 525/70/319 513/58/215
f 513/58/215 525/70/319 526/71/320
f 513/58/215 526/71/320 514/59/153
f 514/59/153 526/71/320 527/72/321
f 514/59/153 527/72/321 515/60/216
f 515/60/216 527/72/321 528/73/322
f 515/60/216 528/73/322 516/61/217
f 516/61/217 528/73/322 529/74/323
f 516/61/217 529/74/323 517/62/156
f 517/62/156 529/74/323 530/75/324
f 517/62/156 530/75/324 518/63/218
f 518/63/218 530/75/324 531/76/325
f 518/63/218 531/76/325 519/64/219
f 519/64/219 531/76/325 532/77/326
f 519/64/219 532/77/326 520/65/159
f 520/65/159 532/77/326 533/78/93
f 521/66/220 534/79/327 522/67/316
f 522/67/316 534/79/327 535/80/221
f 522/67/316 535/80/221 523/68/317
f 523/68/317 535/80/221 536/81/328
f 523/68/317 536/81/328 524/69/318
f 524/69/318 536/81/328 537/82/97
f 524/69/318 537/82/97 525/70/319
f 525/70/319 537/82/97 538/83/222
f 525/70/319 538/83/222 526/71/320
f 526/71/320 538/83/222 539/84/329
f 526/71/320 539/84/329 527/72/321
f 527/72/321 539/84/329 540/85/100
f 527/72/321 540/85/100 528/73/322
f 528/73/322 540/85/100 541/86/223
f 528/73/322 541/86/223 529/74/323
f 529/74/323 541/86/223 542/87/330
f 529/74/323 542/87/330 530/75/324
f 530/75/324 542/87/330 543/88/103
f 530/75/324 543/88/103 531/76/325
f 531/76/325 543/88/103 544/89/224
f 531/76/325 544/89/224 532/77/326
f 532/77/326 544/89/224 545/90/331
f 532/77/326 545/90/331 533/78/93
f 533/78/93 545/90/331 546/91/225
f 534/79/327 547/92/106 535/80/221
f 535/80/221 547/92/106 548/93/332
f 535/80/221 548/93/332 536/81/328
f 536/81/328 548/93/332 549/94/333
f 536/81/328 549/94/333 537/82/97
f 537/82/97 549/94/333 550/95/334
f 537/82/97 550/95/334 538/83/222
f 538/83/222 550/95/334 551/96/335
f 538/83/222 551/96/335 539/84/329
f 539/84/329 551/96/335 552/97/336
f 539/84/329 552/97/336 540/85/100
f 540/85/100 552/97/336 553/98/337
f 540/85/100 553/98/337 541/86/223
f 541/86/223 553/98/337 554/99/338
f 541/86/223 554/99/338 542/87/330
f 542/87/330 554/99/338 555/100/339
f 542/87/330 555/100/339 543/88/103
f 543/88/103 555/100/339 556/101/340
f 543/88/103 556/101/340 544/89/224
f 544/89/224 556/101/340 557/102/341
f 544/89/224 557/102/341 545/90/331
f 545/90/331 557/102/341 558/103/342
f 545/90/331 558/103/342 546/91/225
f 546/91/225 558/103/342 559/104/106
f 547/92/106 560/105/3 548/93/332
s 0
f 548/93/343 560/105/3 561/106/344
s 1
f 548/93/332 561/106/3 549/94/333
s 0
f 549/94/345 561/106/3 562/107/346
s 1
f 549/94/333 562/107/3 550/95/334
s 0
f 550/95/238 562/107/3 563/108/347
s 1
f 550/95/334 563/108/3 551/96/335
s 0
f 551/96/348 563/108/3 564/109/349
s 1
f 551/96/335 564/109/3 552/97/336
s 0
f 552/97/350 564/109/3 565/110/351
s 1
f 552/97/336 565/110/3 553/98/337
s 0
f 553/98/352 565/110/9 566/111/353
s 1
f 553/98/337 566/111/3 554/99/338
s 0
f 554/99/354 566/111/9 567/112/355
s 1
f 554/99/338 567/112/3 555/100/339
s 0
f 555/100/356 567/112/9 568/113/357
s 1
f 555/100/339 568/113/3 556/101/340
s 0
f 556/101/358 568/113/9 569/114/251
s 1
f 556/101/340 569/114/3 557/102/341
s 0
f 557/102/359 569/114/9 570/115/360
s 1
f 557/102/341 570/115/3 558/103/342
s 0
f 558/103/361 570/115/9 571/116/362
s 1
f 558/103/342 571/116/3 559/104/106
s 0
f 559/104/363 571/116/9 572/117/364
s 1
f 573/59/9 575/118/9 574/65/9
f 573/59/9 576/119/9 575/118/9
f 573/59/9 577/111/9 576/119/9
f 573/59/9 578/120/9 577/111/9
f 573/59/9 579/121/9 578/120/9
f 573/59/9 580/53/9 579/121/9
f 573/59/9 581/122/9 580/53/9
f 573/59/9 582/123/9 581/122/9
f 573/59/9 583/13/9 582/123/9
f 573/59/9 584/124/9 583/13/9
f 573/59/9 585/125/9 584/124/9
f 573/59/9 574/65/9 585/125/9
f 586/59/3 587/65/3 588/118/3
f 586/59/3 588/118/3 589/119/3
f 586/59/3 589/119/3 590/111/3
f 586/59/3 590/111/3 591/120/3
f 586/59/3 591/120/3 592/121/3
f 586/59/3 592/121/3 593/53/3
f 586/59/3 593/53/3 594/122/3
f 586/59/3 594/122/3 595/123/3
f 586/59/3 595/123/3 596/13/3
f 586/59/3 596/13/3 597/124/3
f 586/59/3 597/124/3 598/125/3
f 586/59/3 598/125/3 587/65/3
f 599/105/365 601/106/366 600/1/147
f 600/1/147 601/106/366 602/3/367
f 601/106/366 603/107/368 602/3/367
f 602/3/367 603/107/368 604/5/368
f 603/107/368 605/108/150 604/5/368
f 604/5/368 605/108/150 606/7/150
f 605/108/150 607/109/369 606/7/150
f 606/7/150 607/109/369 608/9/369
f 607/109/369 609/110/370 608/9/369
f 608/9/369 609/110/370 610/11/371
f 609/110/370 611/111/153 610/11/371
f 610/11/371 611/111/153 612/13/153
f 611/111/153 613/112/372 612/13/153
f 612/13/153 613/112/372 614/15/372
f 613/112/372 615/113/373 614/15/372
f 614/15/372 615/113/373 616/17/373
f 615/113/373 617/114/156 616/17/373
f 616/17/373 617/114/156 618/19/156
f 617/114/156 619/115/374 618/19/156
f 618/19/156 619/115/374 620/21/374
f 619/115/374 621/116/375 620/21/374
f 620/21/374 621/116/375 622/23/376
f 621/116/375 623/117/159 622/23/376
f 622/23/376 623/117/159 624/25/377
f 625/59/9 627/118/9 626/65/9
f 625/59/9 628/119/9 627/118/9
f 625/59/9 629/111/9 628/119/9
f 625/59/9 630/120/9 629/111/9
f 625/59/9 631/121/9 630/120/9
f 625/59/9 632/53/9 631/121/9
f 625/59/9 633/122/9 632/53/9
f 625/59/9 634/123/9 633/122/9
f 625/59/9 635/13/9 634/123/9
f 625/59/9 636/124/9 635/13/9
f 625/59/9 637/125/9 636/124/9
f 625/59/9 626/65/9 637/125/9
f 638/59/3 639/65/3 640/118/3
f 638/59/3 640/118/3 641/119/3
f 638/59/3 641/119/3 642/111/3
f 638/59/3 642/111/3 643/120/3
f 638/59/3 643/120/3 644/121/3
f 638/59/3 644/121/3 645/53/3
f 638/59/3 645/53/3 646/122/3
f 638/59/3 646/122/3 647/123/3
f 638/59/3 647/123/3 648/13/3
f 638/59/3 648/13/3 649/124/3
f 638/59/3 649/124/3 650/125/3
f 638/59/3 650/125/3 639/65/3
f 651/105/365 653/106/367 652/1/147
f 652/1/147 653/106/367 654/3/367
f 653/106/367 655/107/368 654/3/367
f 654/3/367 655/107/368 656/5/368
f 655/107/368 657/108/150 656/5/368
f 656/5/368 657/108/150 658/7/150
f 657/108/150 659/109/369 658/7/150
f 658/7/150 659/109/369 660/9/369
f 659/109/369 661/110/371 660/9/369
f 660/9/369 661/110/371 662/11/370
f 661/110/371 663/111/153 662/11/370
f 662/11/370 663/111/153 664/13/153
f 663/111/153 665/112/378 664/13/153
f 664/13/153 665/112/378 666/15/372
f 665/112/378 667/113/373 666/15/372
f 666/15/372 667/113/373 668/17/373
f 667/113/373 669/114/156 668/17/373
f 668/17/373 669/114/156 670/19/156
f 669/114/156 671/115/374 670/19/156
f 670/19/156 671/115/374 672/21/374
f 671/115/374 673/116/376 672/21/374
f 672/21/374 673/116/376 674/23/375
f 673/116/376 675/117/159 674/23/375
f 674/23/375 675/117/159 676/25/377
