# axis-converted-to-Y-up
# Blender 5.1.1
# www.blender.org
mtllib mob_bebek_walk1.mtl
o mob_bebek_walk1
v 2.386635 0.007160 -0.103006
v 2.386635 0.086714 -0.023452
v 2.373978 0.007160 -0.108249
v 2.373978 0.086714 -0.028695
v 2.368735 0.007160 -0.120906
v 2.368735 0.086714 -0.041352
v 2.373978 0.007160 -0.133563
v 2.373978 0.086714 -0.054009
v 2.386635 0.007160 -0.138806
v 2.386635 0.086714 -0.059252
v 2.399292 0.007160 -0.133563
v 2.399292 0.086714 -0.054009
v 2.404535 0.007160 -0.120906
v 2.404535 0.086714 -0.041352
v 2.399292 0.007160 -0.108249
v 2.399292 0.086714 -0.028695
v 2.386635 0.000000 -0.068400
v 2.338280 0.006156 -0.090788
v 2.405104 0.006156 -0.108429
v 2.446406 0.006156 -0.062243
v 2.405104 0.006156 -0.016057
v 2.338280 0.006156 -0.033698
v 2.368165 0.016118 -0.098468
v 2.434990 0.016118 -0.080826
v 2.434990 0.016118 -0.023737
v 2.368165 0.016118 -0.006095
v 2.326864 0.016118 -0.052281
v 2.386635 0.022275 -0.046125
v 2.267303 0.007160 -0.103006
v 2.267303 0.086714 -0.023452
v 2.254646 0.007160 -0.108249
v 2.254646 0.086714 -0.028695
v 2.249403 0.007160 -0.120906
v 2.249403 0.086714 -0.041352
v 2.254646 0.007160 -0.133563
v 2.254646 0.086714 -0.054009
v 2.267303 0.007160 -0.138806
v 2.267303 0.086714 -0.059252
v 2.279960 0.007160 -0.133563
v 2.279960 0.086714 -0.054009
v 2.285203 0.007160 -0.120906
v 2.285203 0.086714 -0.041352
v 2.279960 0.007160 -0.108249
v 2.279960 0.086714 -0.028695
v 2.267303 0.000000 -0.068400
v 2.218948 0.006156 -0.090788
v 2.285773 0.006156 -0.108429
v 2.327074 0.006156 -0.062243
v 2.285773 0.006156 -0.016057
v 2.218948 0.006156 -0.033698
v 2.248834 0.016118 -0.098468
v 2.315658 0.016118 -0.080826
v 2.315658 0.016118 -0.023737
v 2.248834 0.016118 -0.006095
v 2.207533 0.016118 -0.052281
v 2.267303 0.022275 -0.046125
v 2.326969 0.033254 -0.106746
v 2.188810 0.097987 -0.192578
v 2.379740 0.097986 -0.285636
v 2.497742 0.097987 -0.042012
v 2.379740 0.097986 0.201610
v 2.188810 0.097987 0.108553
v 2.274198 0.242206 -0.243623
v 2.465128 0.242205 -0.150565
v 2.465128 0.242205 0.150566
v 2.274198 0.242206 0.243623
v 2.156196 0.242205 0.000000
v 2.326969 0.347675 0.000000
v 2.371422 0.073360 -0.271861
v 2.357987 0.050742 -0.232454
v 2.341786 0.037007 -0.171398
v 2.288175 0.037007 -0.145269
v 2.245762 0.050742 -0.177756
v 2.210588 0.073360 -0.193472
v 2.225405 0.091536 -0.243703
v 2.276779 0.088792 -0.282906
v 2.332628 0.091536 -0.295962
v 2.171794 0.091536 0.036092
v 2.164554 0.088792 -0.051207
v 2.171794 0.091536 -0.133018
v 2.288175 0.037007 -0.060715
v 2.245762 0.050742 -0.000758
v 2.210588 0.073360 0.060192
v 2.470824 0.073360 -0.066639
v 2.427347 0.050743 -0.089256
v 2.374921 0.037007 -0.102992
v 2.419374 0.091536 -0.253685
v 2.458366 0.088792 -0.194405
v 2.485642 0.091536 -0.116870
v 2.371422 0.073360 0.138581
v 2.357987 0.050742 0.053940
v 2.341786 0.037007 -0.034586
v 2.485642 0.091536 0.019944
v 2.458366 0.088792 0.091990
v 2.419374 0.091536 0.156758
v 2.332628 0.091536 0.199035
v 2.276779 0.088792 0.180491
v 2.225405 0.091536 0.146776
v 2.144320 0.204795 -0.042277
v 2.145383 0.156876 -0.088500
v 2.162636 0.120947 -0.145885
v 2.162636 0.120947 0.107781
v 2.145383 0.156876 0.088500
v 2.144320 0.204795 0.042278
v 2.297333 0.204796 -0.273629
v 2.326969 0.156876 -0.286396
v 2.356604 0.120947 -0.292682
v 2.195769 0.120947 -0.214293
v 2.214743 0.156876 -0.231699
v 2.243722 0.204796 -0.247500
v 2.491302 0.204796 -0.126833
v 2.508555 0.156876 -0.088500
v 2.509618 0.120947 -0.061330
v 2.410216 0.120947 -0.266552
v 2.439195 0.156876 -0.231699
v 2.458169 0.204796 -0.195240
v 2.458169 0.204796 0.195241
v 2.439195 0.156876 0.231699
v 2.410216 0.120947 0.228448
v 2.509618 0.120947 0.023225
v 2.508555 0.156876 0.088500
v 2.491302 0.204796 0.126833
v 2.243722 0.204796 0.247500
v 2.214743 0.156876 0.231699
v 2.195769 0.120947 0.176188
v 2.356604 0.120947 0.254577
v 2.326969 0.156876 0.286396
v 2.297333 0.204796 0.273630
v 2.168296 0.252715 -0.068407
v 2.195573 0.257187 -0.143197
v 2.234564 0.252715 -0.205221
v 2.321310 0.252715 -0.247499
v 2.377159 0.257187 -0.231698
v 2.428533 0.252715 -0.195240
v 2.482144 0.252715 -0.084555
v 2.489383 0.257187 0.000000
v 2.482144 0.252715 0.084555
v 2.428533 0.252715 0.195240
v 2.377159 0.257187 0.231698
v 2.321310 0.252715 0.247499
v 2.234564 0.252715 0.205222
v 2.195573 0.257187 0.143198
v 2.168296 0.252715 0.068407
v 2.312151 0.341560 -0.068406
v 2.295951 0.319181 -0.143197
v 2.282516 0.282331 -0.205221
v 2.183114 0.282329 0.000000
v 2.226591 0.319180 0.000000
v 2.279017 0.341560 0.000000
v 2.365762 0.341560 -0.042277
v 2.408176 0.319181 -0.088499
v 2.443350 0.282331 -0.126832
v 2.365762 0.341560 0.042278
v 2.408176 0.319181 0.088500
v 2.443350 0.282331 0.126833
v 2.312151 0.341560 0.068407
v 2.295951 0.319181 0.143197
v 2.282516 0.282331 0.205221
v 2.257890 0.327533 0.075283
v 2.205118 0.294941 0.075284
v 2.241583 0.294941 0.150567
v 2.353355 0.327533 0.121810
v 2.337048 0.294941 0.197094
v 2.396048 0.294941 0.168338
v 2.412355 0.327533 0.000000
v 2.455048 0.294941 0.046527
v 2.455048 0.294941 -0.046527
v 2.353355 0.327533 -0.121809
v 2.396048 0.294941 -0.168337
v 2.337048 0.294941 -0.197093
v 2.257890 0.327533 -0.075283
v 2.241583 0.294941 -0.150567
v 2.205118 0.294941 -0.075283
v 2.162424 0.209613 0.121811
v 2.172502 0.156876 0.168339
v 2.198889 0.209613 0.197095
v 2.353356 0.209613 0.272379
v 2.385969 0.156876 0.272379
v 2.412356 0.209613 0.243623
v 2.507821 0.209613 0.046528
v 2.517900 0.156876 0.000000
v 2.507821 0.209613 -0.046527
v 2.412356 0.209613 -0.243622
v 2.385970 0.156876 -0.272379
v 2.353356 0.209613 -0.272378
v 2.198889 0.209613 -0.197095
v 2.172502 0.156876 -0.168339
v 2.162424 0.209613 -0.121811
v 2.267968 0.156876 0.272379
v 2.241582 0.117991 0.221614
v 2.300582 0.117991 0.250370
v 2.481436 0.156876 0.168339
v 2.455049 0.117991 0.175087
v 2.491514 0.117991 0.099802
v 2.481436 0.156876 -0.168339
v 2.491514 0.117991 -0.143820
v 2.455049 0.117991 -0.219104
v 2.267968 0.156876 -0.272379
v 2.300582 0.117991 -0.294387
v 2.241582 0.117991 -0.265631
v 2.136038 0.156876 0.000000
v 2.146117 0.117991 -0.068536
v 2.146117 0.117991 0.024519
v 2.257890 0.065620 0.093958
v 2.300583 0.045616 0.027427
v 2.316890 0.065620 0.122714
v 2.412356 0.065620 0.076187
v 2.396048 0.045616 -0.019100
v 2.448820 0.065620 0.000904
v 2.448820 0.065620 -0.149663
v 2.396048 0.045616 -0.169666
v 2.412356 0.065620 -0.224946
v 2.198889 0.065620 -0.027852
v 2.198889 0.065620 -0.120907
v 2.241583 0.045616 -0.094383
v 2.316890 0.065620 -0.271473
v 2.300583 0.045616 -0.216193
v 2.257890 0.065620 -0.242717
v 2.326969 0.262385 -0.320514
v 2.326969 0.171547 -0.146810
v 2.266326 0.283812 -0.298978
v 2.322304 0.173194 -0.145154
v 2.251348 0.331959 -0.250589
v 2.321152 0.176899 -0.141432
v 2.293314 0.370568 -0.211785
v 2.324380 0.179869 -0.138447
v 2.360623 0.370568 -0.211785
v 2.329558 0.179869 -0.138447
v 2.402590 0.331959 -0.250589
v 2.332786 0.176899 -0.141432
v 2.387612 0.283812 -0.298978
v 2.331634 0.173194 -0.145154
v 2.326969 0.264826 0.071691
v 2.326969 0.385078 0.138325
v 2.388975 0.243256 0.101478
v 2.394142 0.361711 0.170595
v 2.388975 0.200116 0.161052
v 2.394142 0.314975 0.235133
v 2.326969 0.178546 0.190839
v 2.326969 0.291608 0.267403
v 2.264962 0.200116 0.161052
v 2.259795 0.314975 0.235133
v 2.264962 0.243256 0.101478
v 2.259795 0.361710 0.170595
v 2.326969 0.247610 0.214797
v 2.257890 0.304930 0.164609
v 2.353354 0.304930 0.133590
v 2.412356 0.304931 0.214797
v 2.353354 0.304930 0.296005
v 2.257890 0.304930 0.264986
v 2.300584 0.397679 0.133590
v 2.396048 0.397679 0.164609
v 2.396048 0.397679 0.264986
v 2.300584 0.397679 0.296005
v 2.241582 0.397679 0.214797
v 2.326969 0.455000 0.214797
v 2.342478 0.263096 0.167065
v 2.286366 0.263096 0.185297
v 2.301874 0.296788 0.137565
v 2.245761 0.296788 0.214797
v 2.286366 0.263096 0.244297
v 2.377158 0.263097 0.214797
v 2.392667 0.296788 0.167065
v 2.342478 0.263096 0.262529
v 2.392667 0.296788 0.262530
v 2.301874 0.296788 0.292030
v 2.236176 0.351305 0.185297
v 2.236176 0.351305 0.244297
v 2.326969 0.351305 0.119332
v 2.270856 0.351305 0.137564
v 2.417762 0.351305 0.185297
v 2.383082 0.351305 0.137564
v 2.383082 0.351305 0.292031
v 2.417762 0.351305 0.244297
v 2.270856 0.351305 0.292031
v 2.326969 0.351305 0.310263
v 2.261271 0.405821 0.167065
v 2.352064 0.405821 0.137565
v 2.408177 0.405821 0.214797
v 2.352064 0.405821 0.292030
v 2.261271 0.405821 0.262530
v 2.311460 0.439514 0.167065
v 2.276780 0.439513 0.214797
v 2.367573 0.439514 0.185297
v 2.367573 0.439514 0.244297
v 2.311460 0.439514 0.262529
v 2.380668 0.309178 0.262530
v 2.380668 0.341584 0.262530
v 2.380668 0.309178 0.381862
v 2.380668 0.341584 0.381862
v 2.273270 0.309178 0.262530
v 2.273270 0.341584 0.262530
v 2.273270 0.309178 0.381862
v 2.273270 0.341584 0.381862
v 2.374702 0.361026 0.238664
v 2.363908 0.369983 0.230822
v 2.378825 0.369983 0.225975
v 2.388043 0.369983 0.238664
v 2.378825 0.369983 0.251352
v 2.363908 0.369983 0.246506
v 2.370579 0.384474 0.225975
v 2.385495 0.384474 0.230822
v 2.385495 0.384474 0.246506
v 2.370579 0.384474 0.251352
v 2.361360 0.384474 0.238664
v 2.374702 0.393431 0.238664
v 2.279236 0.361026 0.238664
v 2.268443 0.369983 0.230822
v 2.283359 0.369983 0.225975
v 2.292578 0.369983 0.238664
v 2.283359 0.369983 0.251352
v 2.268443 0.369983 0.246506
v 2.275114 0.384474 0.225975
v 2.290030 0.384474 0.230822
v 2.290030 0.384474 0.246506
v 2.275114 0.384474 0.251352
v 2.265894 0.384474 0.238664
v 2.279236 0.393431 0.238664
vn -0.000000 -0.889000 0.458000
vn -0.000000 0.320800 0.947100
vn -0.584000 0.369600 0.722700
vn -0.469200 -0.814600 0.340900
vn -0.816600 0.556500 0.153300
vn -0.816600 -0.556500 -0.153300
vn -0.469200 0.814600 -0.340900
vn -0.584000 -0.369600 -0.722700
vn -0.000000 0.889000 -0.458000
vn -0.000000 -0.320800 -0.947100
vn 0.469300 0.814600 -0.340900
vn 0.584000 -0.369600 -0.722700
vn 0.816600 0.556500 0.153300
vn 0.816600 -0.556500 -0.153300
vn 0.584000 0.369600 0.722700
vn 0.469300 -0.814600 0.340900
vn -0.000600 -0.999800 -0.021600
vn -0.734100 -0.224500 -0.640900
vn 0.265100 -0.190100 -0.945300
vn -0.658000 -0.543200 0.521500
vn 0.944100 -0.325500 -0.053000
vn 0.197200 -0.691300 0.695200
vn -0.944100 0.325500 0.053000
vn -0.197200 0.691300 -0.695200
vn 0.658000 0.543200 -0.521500
vn 0.734100 0.224500 0.640900
vn -0.265100 0.190100 0.945300
vn 0.000600 0.999800 0.021600
vn 0.469200 0.814600 -0.340900
vn 0.469200 -0.814600 0.340900
vn -0.000700 -1.000000 -0.003700
vn -0.144300 -0.986600 -0.076100
vn 0.057100 -0.990500 -0.125400
vn -0.819900 -0.407300 -0.402200
vn -0.592200 -0.747300 -0.301400
vn -0.790900 -0.580800 -0.192700
vn 0.167500 -0.985900 -0.004800
vn 0.046100 -0.994600 0.092500
vn -0.126900 -0.990200 0.058500
vn -0.932800 -0.176500 -0.314300
vn 0.416600 -0.233000 -0.878700
vn 0.033500 -0.354100 -0.934600
vn 0.222500 0.139400 -0.964900
vn 0.783700 -0.621100 -0.000100
vn 0.785600 -0.597600 -0.160400
vn 0.950800 -0.292900 -0.101300
vn 0.196100 -0.895700 0.399000
vn 0.342700 -0.880500 0.327400
vn 0.431400 -0.704200 0.563900
vn -0.544400 -0.796700 0.262300
vn -0.367500 -0.873300 0.319800
vn -0.644400 -0.627200 0.437400
vn -0.827700 -0.048400 -0.559000
vn 0.604100 0.061700 -0.794600
vn 0.903400 -0.416600 0.101400
vn 0.147800 -0.751800 0.642600
vn -0.806900 -0.522300 0.276000
vn -0.353600 0.572500 -0.739800
vn -0.575500 0.590800 -0.565500
vn -0.270700 0.779100 -0.565400
vn 0.784500 0.485200 -0.386200
vn 0.606700 0.582500 -0.540900
vn 0.637800 0.703600 -0.313400
vn 0.784500 0.485200 0.386200
vn 0.833500 0.515500 0.198800
vn 0.637800 0.703600 0.313400
vn -0.353600 0.572500 0.739800
vn -0.024800 0.649100 0.760300
vn -0.270700 0.779100 0.565400
vn -0.894900 0.446400 0.000000
vn -0.842300 0.511400 0.170000
vn -0.746000 0.665900 0.000000
vn -0.261500 0.965200 0.000000
vn -0.080400 0.982200 0.169900
vn 0.001200 1.000000 0.000000
vn -0.525500 0.850800 0.000000
vn -0.375300 0.908200 0.185000
vn -0.644100 0.742200 0.185100
vn -0.174000 0.914700 0.364700
vn -0.485900 0.786800 0.380600
vn -0.740100 0.565000 0.364800
vn -0.575500 0.590800 0.565500
vn 0.212000 0.971600 0.105200
vn 0.148300 0.939200 0.309700
vn 0.068500 0.840300 0.537700
vn 0.436300 0.873700 0.215100
vn 0.392000 0.806400 0.442800
vn 0.326200 0.651100 0.685300
vn 0.606700 0.582500 0.540900
vn 0.212000 0.971600 -0.105200
vn 0.454900 0.890500 0.000000
vn 0.672500 0.732500 0.105600
vn 0.436300 0.873700 -0.215100
vn 0.672500 0.732600 -0.105600
vn 0.850500 0.526000 0.000000
vn 0.833500 0.515500 -0.198800
vn -0.080400 0.982200 -0.169900
vn 0.148300 0.939200 -0.309700
vn 0.392000 0.806400 -0.442800
vn -0.174000 0.914700 -0.364700
vn 0.068500 0.840300 -0.537700
vn 0.326200 0.651100 -0.685300
vn -0.024800 0.649100 -0.760300
vn -0.375300 0.908200 -0.185000
vn -0.485900 0.786800 -0.380600
vn -0.644100 0.742200 -0.185100
vn -0.740100 0.565000 -0.364800
vn -0.842300 0.511400 -0.170000
vn -0.963800 0.244900 0.105200
vn -0.971800 -0.080800 0.221600
vn -0.906300 0.287400 0.309900
vn -0.885800 -0.121900 0.447700
vn -0.782100 0.314600 0.537900
vn -0.706700 -0.188300 0.681900
vn -0.569200 0.312600 0.760400
vn -0.209900 0.339900 0.916700
vn -0.002300 -0.230800 0.973000
vn 0.201800 0.376400 0.904200
vn 0.411800 -0.201700 0.888700
vn 0.563500 0.348500 0.749100
vn 0.710900 -0.180800 0.679700
vn 0.792100 0.282600 0.541000
vn 0.914300 0.256300 0.313500
vn 0.970800 -0.085800 0.224200
vn 0.955800 0.274400 0.105600
vn 0.999800 -0.018000 0.007700
vn 0.955800 0.274400 -0.105600
vn 0.978100 0.028000 -0.206100
vn 0.914300 0.256300 -0.313500
vn 0.792100 0.282600 -0.541000
vn 0.726500 0.150500 -0.670500
vn 0.563500 0.348500 -0.749100
vn 0.425300 0.212700 -0.879700
vn 0.201800 0.376400 -0.904200
vn 0.003500 0.231600 -0.972800
vn -0.209900 0.339900 -0.916700
vn -0.569200 0.312600 -0.760400
vn -0.729600 0.149300 -0.667400
vn -0.782100 0.314600 -0.537900
vn -0.896800 0.094900 -0.432200
vn -0.906300 0.287400 -0.309900
vn -0.978100 0.027000 -0.206500
vn -0.963800 0.244900 -0.105200
vn -0.408700 -0.234400 0.882000
vn -0.413700 -0.730600 0.543100
vn -0.144700 -0.775900 0.614000
vn -0.177600 -0.915300 0.361600
vn 0.012600 -0.921600 0.387900
vn 0.882200 -0.150500 0.446200
vn 0.626000 -0.655100 0.423100
vn 0.787100 -0.555300 0.268500
vn 0.497700 -0.834100 0.237900
vn 0.650700 -0.748600 0.127100
vn 0.898400 0.077000 -0.432500
vn 0.924000 -0.219300 -0.313400
vn 0.820900 -0.098000 -0.562600
vn 0.753000 -0.539400 -0.376900
vn 0.640800 -0.422600 -0.641000
vn -0.427100 0.196900 -0.882500
vn -0.216300 0.077400 -0.973300
vn -0.605200 0.004700 -0.796000
vn -0.383400 -0.424200 -0.820400
vn -0.671300 -0.433600 -0.601100
vn -0.999100 -0.040500 0.008100
vn -0.937500 -0.332600 -0.102500
vn -0.887800 -0.449800 0.097700
vn -0.718600 -0.695400 -0.005200
vn -0.630500 -0.762500 0.145200
vn -0.402800 -0.895200 0.190600
vn -0.261500 -0.957400 0.122800
vn -0.217600 -0.946700 0.237600
vn -0.081100 -0.983300 0.163100
vn -0.035700 -0.962100 0.270300
vn 0.094200 -0.977200 0.190000
vn 0.144000 -0.945700 0.291400
vn 0.281300 -0.935700 0.212800
vn 0.223900 -0.969000 0.104300
vn 0.426900 -0.896800 0.115800
vn 0.363100 -0.931700 -0.006100
vn 0.578600 -0.815600 -0.006700
vn 0.540500 -0.825700 -0.161600
vn 0.283800 -0.947700 -0.145900
vn 0.457500 -0.810000 -0.366700
vn 0.149700 -0.934800 -0.322200
vn 0.289000 -0.727400 -0.622400
vn -0.469700 -0.880200 0.068000
vn -0.536200 -0.839200 -0.090700
vn -0.306200 -0.952000 -0.005300
vn -0.342800 -0.922700 -0.176100
vn -0.071600 -0.815900 -0.573800
vn -0.120500 -0.958300 -0.259300
vn -0.382900 -0.809400 -0.445300
vn -0.000000 -0.254600 -0.967000
vn -0.000000 -0.999500 0.031200
vn -0.524300 -0.821800 0.223300
vn -0.691600 -0.018300 -0.722000
vn -0.637400 -0.450600 0.625000
vn -0.854900 0.483300 -0.188700
vn -0.286700 -0.155100 0.945400
vn -0.387000 0.886800 0.252700
vn 0.286700 -0.155100 0.945400
vn 0.387000 0.886800 0.252700
vn 0.637400 -0.450600 0.625000
vn 0.854900 0.483300 -0.188700
vn 0.524300 -0.821800 0.223300
vn 0.691600 -0.018300 -0.722000
vn -0.000000 -0.085100 -0.996400
vn -0.000000 0.940600 -0.339600
vn 0.699900 0.714300 0.001600
vn 0.675300 -0.304700 -0.671700
vn 0.697800 0.270300 0.663300
vn 0.678600 -0.733900 -0.031100
vn -0.000000 0.042100 0.999100
vn -0.000000 -0.953900 0.300300
vn -0.697800 0.270300 0.663300
vn -0.678600 -0.733900 -0.031100
vn -0.699900 0.714300 0.001600
vn -0.675300 -0.304700 -0.671700
vn -0.000000 -1.000000 0.000000
vn -0.446000 -0.834300 -0.324000
vn 0.170400 -0.834300 -0.524300
vn -0.732900 -0.423400 -0.532500
vn -0.865100 -0.501700 0.000000
vn 0.551300 -0.834300 0.000000
vn 0.170400 -0.834300 0.524300
vn -0.446000 -0.834300 0.324000
vn -0.951100 -0.000000 -0.309000
vn 0.279900 -0.423400 -0.861600
vn -0.267300 -0.501700 -0.822700
vn -0.000000 -0.000000 -1.000000
vn 0.905900 -0.423400 0.000000
vn 0.699800 -0.501700 -0.508500
vn 0.951100 -0.000000 -0.309000
vn 0.279900 -0.423400 0.861600
vn 0.699800 -0.501700 0.508500
vn 0.587800 -0.000000 0.809000
vn -0.732900 -0.423400 0.532500
vn -0.267300 -0.501700 0.822700
vn -0.587800 -0.000000 0.809000
vn -0.587800 -0.000000 -0.809000
vn 0.587800 -0.000000 -0.809000
vn 0.951100 -0.000000 0.309000
vn -0.000000 -0.000000 1.000000
vn -0.951100 -0.000000 0.309000
vn -0.279900 0.423400 -0.861600
vn -0.699800 0.501700 -0.508500
vn -0.170400 0.834300 -0.524300
vn 0.732900 0.423400 -0.532500
vn 0.267300 0.501700 -0.822700
vn 0.446000 0.834300 -0.324000
vn 0.732900 0.423400 0.532500
vn 0.865100 0.501700 0.000000
vn 0.446000 0.834300 0.324000
vn -0.279900 0.423400 0.861600
vn 0.267300 0.501700 0.822700
vn -0.170400 0.834300 0.524300
vn -0.905900 0.423400 0.000000
vn -0.699800 0.501700 0.508500
vn -0.551300 0.834300 0.000000
vn -0.000000 1.000000 0.000000
vn 0.577400 -0.577400 -0.577400
vn 0.577400 0.577400 -0.577400
vn 0.577400 0.577400 0.577400
vn 0.577400 -0.577400 0.577400
vn -0.577400 0.577400 0.577400
vn -0.577400 -0.577400 0.577400
vn -0.577400 0.577400 -0.577400
vn -0.577400 -0.577400 -0.577400
vn -0.727700 -0.436900 -0.528700
vn 0.278000 -0.436900 -0.855500
vn -0.727700 -0.436900 0.528700
vn 0.899500 -0.436900 0.000000
vn 0.278000 -0.436900 0.855500
vn -0.899500 0.436900 0.000000
vn -0.278000 0.436900 -0.855500
vn 0.727700 0.436900 -0.528700
vn 0.727700 0.436900 0.528700
vn -0.278000 0.436900 0.855500
vn -0.277900 0.436900 -0.855500
vn -0.277900 0.436900 0.855500
vt 0.941847 0.609641
vt 0.941847 0.531369
vt 0.951879 0.533692
vt 0.951879 0.611963
vt 0.961901 0.531356
vt 0.961901 0.609627
vt 0.940775 0.097391
vt 0.940775 0.009777
vt 0.951608 0.010023
vt 0.951608 0.097637
vt 0.958806 0.013073
vt 0.958806 0.100687
vt 0.954305 0.447506
vt 0.954305 0.370458
vt 0.964343 0.368068
vt 0.964343 0.445115
vt 0.974358 0.370490
vt 0.974358 0.447538
vt 0.783934 0.681583
vt 0.783934 0.670996
vt 0.790162 0.662523
vt 0.798970 0.661128
vt 0.805198 0.667628
vt 0.805198 0.678215
vt 0.798970 0.686688
vt 0.790162 0.688083
vt 0.939553 0.334517
vt 0.939553 0.246965
vt 0.950401 0.246840
vt 0.950401 0.334391
vt 0.957836 0.243858
vt 0.957836 0.331409
vt 0.845819 0.671081
vt 0.845819 0.681657
vt 0.839649 0.688110
vt 0.830923 0.686660
vt 0.824753 0.678157
vt 0.824753 0.667581
vt 0.830923 0.661128
vt 0.839649 0.662578
vt 0.836519 0.302655
vt 0.823195 0.343653
vt 0.806042 0.308707
vt 0.874107 0.935975
vt 0.879208 0.895526
vt 0.908731 0.928422
vt 0.823194 0.262778
vt 0.874107 0.848319
vt 0.908731 0.874248
vt 0.956291 0.631518
vt 0.956291 0.674625
vt 0.941848 0.654175
vt 0.801635 0.329114
vt 0.801635 0.279131
vt 0.900476 0.852040
vt 0.921875 0.901546
vt 0.898385 0.327901
vt 0.871948 0.331557
vt 0.906918 0.305770
vt 0.919998 0.278467
vt 0.906918 0.251570
vt 0.441755 0.967692
vt 0.456218 0.947500
vt 0.456218 0.990223
vt 0.489754 0.966605
vt 0.475773 0.983485
vt 0.475773 0.947500
vt 0.898330 0.790270
vt 0.893442 0.760755
vt 0.923855 0.799212
vt 0.877221 0.284381
vt 0.871948 0.243858
vt 0.898330 0.722791
vt 0.923855 0.757508
vt 0.943410 0.801076
vt 0.943410 0.722805
vt 0.953442 0.725127
vt 0.953442 0.803399
vt 0.963464 0.722791
vt 0.963464 0.801063
vt 0.941430 0.935933
vt 0.941430 0.848319
vt 0.952263 0.848564
vt 0.952263 0.936178
vt 0.959461 0.851615
vt 0.959461 0.939229
vt 0.952819 0.216244
vt 0.952819 0.139196
vt 0.962857 0.136806
vt 0.962857 0.213853
vt 0.972873 0.139228
vt 0.972873 0.216276
vt 0.743115 0.681583
vt 0.743115 0.670996
vt 0.749343 0.662524
vt 0.758151 0.661128
vt 0.764379 0.667628
vt 0.764379 0.678215
vt 0.758151 0.686688
vt 0.749343 0.688083
vt 0.598362 0.948629
vt 0.598362 0.861078
vt 0.609210 0.860952
vt 0.609210 0.948504
vt 0.616645 0.857971
vt 0.616645 0.945522
vt 0.730553 0.958673
vt 0.730553 0.969248
vt 0.724382 0.975701
vt 0.715656 0.974251
vt 0.709486 0.965748
vt 0.709486 0.955173
vt 0.715656 0.948720
vt 0.724382 0.950170
vt 0.782080 0.302655
vt 0.768756 0.343653
vt 0.751603 0.308707
vt 0.642163 0.940401
vt 0.647264 0.899952
vt 0.676787 0.932848
vt 0.768756 0.262778
vt 0.642163 0.852745
vt 0.676787 0.878674
vt 0.968748 0.467093
vt 0.968748 0.510200
vt 0.954305 0.489750
vt 0.747196 0.329114
vt 0.747196 0.279131
vt 0.668532 0.856466
vt 0.689932 0.905972
vt 0.899607 0.093820
vt 0.873170 0.097476
vt 0.908140 0.071690
vt 0.921220 0.044386
vt 0.908140 0.017489
vt 0.407736 0.967692
vt 0.422200 0.947500
vt 0.422200 0.990223
vt 0.989826 0.650623
vt 0.975845 0.667503
vt 0.975845 0.631518
vt 0.714374 0.920223
vt 0.709486 0.890709
vt 0.739899 0.929165
vt 0.878443 0.050301
vt 0.873170 0.009777
vt 0.714374 0.852744
vt 0.739899 0.887461
vt 0.203352 0.914589
vt 0.242290 0.914146
vt 0.218764 0.952843
vt 0.127055 0.252383
vt 0.089504 0.251303
vt 0.102792 0.203546
vt 0.171649 0.935603
vt 0.166058 0.886250
vt 0.209716 0.872989
vt 0.148780 0.219965
vt 0.626429 0.071707
vt 0.600902 0.047678
vt 0.644532 0.037666
vt 0.626429 0.278213
vt 0.629330 0.231695
vt 0.662100 0.253677
vt 0.047868 0.783248
vt 0.040674 0.824965
vt 0.017147 0.782534
vt 0.203353 0.736022
vt 0.166059 0.735829
vt 0.171651 0.704053
vt 0.163914 0.277872
vt 0.662101 0.079721
vt 0.644530 0.305443
vt 0.040674 0.743836
vt 0.032410 0.045634
vt 0.041186 0.009777
vt 0.069053 0.045806
vt 0.047533 0.565721
vt 0.040424 0.523875
vt 0.078347 0.536501
vt 0.203428 0.612399
vt 0.165895 0.612896
vt 0.209669 0.575821
vt 0.379708 0.133840
vt 0.355446 0.182622
vt 0.342219 0.134646
vt 0.583668 0.631064
vt 0.549621 0.638448
vt 0.566619 0.592247
vt 0.692540 0.455807
vt 0.670187 0.496550
vt 0.658330 0.444615
vt 0.171745 0.412652
vt 0.219135 0.395043
vt 0.203427 0.433685
vt 0.615440 0.438034
vt 0.581262 0.487738
vt 0.573475 0.439166
vt 0.627954 0.490737
vt 0.542905 0.488376
vt 0.551447 0.541047
vt 0.594311 0.544894
vt 0.640261 0.546750
vt 0.609047 0.594971
vt 0.242572 0.433860
vt 0.515863 0.535585
vt 0.528912 0.592740
vt 0.262019 0.393742
vt 0.294491 0.097968
vt 0.299768 0.141338
vt 0.262856 0.153658
vt 0.336082 0.047386
vt 0.338161 0.087507
vt 0.515863 0.637760
vt 0.378879 0.045125
vt 0.380011 0.088684
vt 0.209668 0.475458
vt 0.267457 0.201349
vt 0.311127 0.190887
vt 0.251601 0.482241
vt 0.212324 0.526745
vt 0.282014 0.254147
vt 0.251601 0.537466
vt 0.327456 0.241767
vt 0.302538 0.297587
vt 0.262856 0.307093
vt 0.285495 0.338555
vt 0.165894 0.462352
vt 0.167215 0.513597
vt 0.167216 0.568822
vt 0.120692 0.499308
vt 0.119042 0.554398
vt 0.120692 0.604354
vt 0.078347 0.586682
vt 0.125480 0.444477
vt 0.077306 0.485278
vt 0.132939 0.395271
vt 0.083745 0.430582
vt 0.650633 0.396798
vt 0.041307 0.472879
vt 0.683398 0.368068
vt 0.690794 0.411191
vt 0.709980 0.495224
vt 0.723560 0.543974
vt 0.684797 0.546433
vt 0.085052 0.010983
vt 0.115356 0.056844
vt 0.694947 0.599132
vt 0.651154 0.600591
vt 0.697857 0.640205
vt 0.659568 0.646989
vt 0.618270 0.642857
vt 0.581543 0.669727
vt 0.582686 0.703237
vt 0.545335 0.678009
vt 0.009777 0.741260
vt 0.041347 0.705846
vt 0.451507 0.009777
vt 0.458197 0.039878
vt 0.417935 0.018341
vt 0.420014 0.058461
vt 0.485987 0.074483
vt 0.455462 0.086091
vt 0.416596 0.108254
vt 0.401414 0.166312
vt 0.423681 0.207624
vt 0.376272 0.225736
vt 0.440440 0.248656
vt 0.397746 0.271047
vt 0.347158 0.288997
vt 0.413986 0.306138
vt 0.368304 0.327953
vt 0.322051 0.338759
vt 0.171746 0.644392
vt 0.699164 0.097812
vt 0.720848 0.071229
vt 0.727642 0.123687
vt 0.684783 0.047037
vt 0.125481 0.644286
vt 0.083745 0.664523
vt 0.077306 0.629862
vt 0.662386 0.009777
vt 0.041307 0.642848
vt 0.040424 0.605071
vt 0.016986 0.566254
vt 0.202667 0.299583
vt 0.228888 0.260044
vt 0.233005 0.310415
vt 0.190869 0.242136
vt 0.009777 0.518022
vt 0.212232 0.196317
vt 0.243302 0.212430
vt 0.222149 0.152970
vt 0.170987 0.178368
vt 0.187603 0.136698
vt 0.722716 0.442470
vt 0.620885 0.682861
vt 0.664678 0.681402
vt 0.125611 0.704454
vt 0.077563 0.719048
vt 0.083717 0.684078
vt 0.121034 0.744603
vt 0.078741 0.762351
vt 0.443568 0.143893
vt 0.481751 0.125309
vt 0.465043 0.189203
vt 0.009777 0.830544
vt 0.041347 0.875675
vt 0.496308 0.172278
vt 0.475135 0.231770
vt 0.600902 0.315454
vt 0.294428 0.373711
vt 0.338234 0.372773
vt 0.668053 0.196755
vt 0.699163 0.219194
vt 0.704118 0.157134
vt 0.668054 0.132941
vt 0.630564 0.173178
vt 0.629330 0.115725
vt 0.009777 0.607380
vt 0.617433 0.011772
vt 0.205226 0.345085
vt 0.198295 0.374187
vt 0.164909 0.366399
vt 0.167207 0.327177
vt 0.571056 0.030735
vt 0.125979 0.340125
vt 0.127279 0.297239
vt 0.144967 0.114521
vt 0.123604 0.160340
vt 0.161028 0.078645
vt 0.094357 0.096451
vt 0.074721 0.143997
vt 0.049641 0.087440
vt 0.209717 0.772709
vt 0.212425 0.821804
vt 0.167504 0.780011
vt 0.167503 0.835191
vt 0.119457 0.794604
vt 0.121034 0.849563
vt 0.078741 0.812491
vt 0.077563 0.863513
vt 0.125610 0.904099
vt 0.083716 0.917827
vt 0.559079 0.306761
vt 0.571055 0.348513
vt 0.132738 0.952874
vt 0.551390 0.253102
vt 0.591507 0.269875
vt 0.590365 0.214582
vt 0.515863 0.230267
vt 0.548741 0.192787
vt 0.590365 0.150768
vt 0.515863 0.172282
vt 0.551390 0.131721
vt 0.591507 0.095921
vt 0.009777 0.077143
vt 0.029123 0.130939
vt 0.058370 0.194827
vt 0.251400 0.810712
vt 0.014500 0.183496
vt 0.251399 0.865892
vt 0.046905 0.243967
vt 0.009777 0.230710
vt 0.559080 0.075882
vt 0.517456 0.117901
vt 0.527794 0.064809
vt 0.083020 0.337159
vt 0.085318 0.297938
vt 0.261356 0.953773
vt 0.041448 0.286606
vt 0.376146 0.536241
vt 0.323408 0.678590
vt 0.320083 0.678348
vt 0.332918 0.533096
vt 0.316133 0.678348
vt 0.281574 0.533096
vt 0.490301 0.533096
vt 0.453269 0.674243
vt 0.449319 0.674275
vt 0.438954 0.533509
vt 0.445992 0.674243
vt 0.395701 0.533096
vt 0.922293 0.531356
vt 0.888997 0.670000
vt 0.884943 0.670000
vt 0.869588 0.531356
vt 0.863854 0.506250
vt 0.860648 0.508808
vt 0.856651 0.507905
vt 0.854872 0.504221
vt 0.856651 0.500530
vt 0.860648 0.499612
vt 0.863854 0.502157
vt 0.835318 0.369628
vt 0.781952 0.511801
vt 0.778906 0.511681
vt 0.795723 0.368068
vt 0.774859 0.511681
vt 0.743115 0.368068
vt 0.281574 0.453736
vt 0.304627 0.405671
vt 0.356426 0.393742
vt 0.397966 0.426932
vt 0.397966 0.480248
vt 0.356426 0.513542
vt 0.304627 0.501743
vt 0.747196 0.190135
vt 0.842562 0.189582
vt 0.852393 0.243223
vt 0.756271 0.239649
vt 0.876664 0.223582
vt 0.871947 0.136806
vt 0.933265 0.137587
vt 0.933265 0.224303
vt 0.750877 0.117251
vt 0.747196 0.019218
vt 0.799992 0.009777
vt 0.799611 0.108536
vt 0.853615 0.019218
vt 0.849109 0.117251
vt 0.407736 0.733970
vt 0.450541 0.698145
vt 0.493346 0.722800
vt 0.493346 0.783280
vt 0.450541 0.819106
vt 0.407736 0.794451
vt 0.417908 0.485375
vt 0.417521 0.393742
vt 0.478910 0.393742
vt 0.474575 0.485375
vt 0.756271 0.141418
vt 0.852393 0.136806
vt 0.894811 0.368068
vt 0.934750 0.400624
vt 0.934750 0.456619
vt 0.894811 0.480057
vt 0.854872 0.447501
vt 0.854872 0.391506
vt 0.749094 0.801478
vt 0.725222 0.833190
vt 0.714367 0.802893
vt 0.589245 0.770427
vt 0.609923 0.803667
vt 0.564719 0.803667
vt 0.740352 0.764518
vt 0.834799 0.825814
vt 0.794661 0.828764
vt 0.813673 0.793369
vt 0.859662 0.793369
vt 0.549466 0.759502
vt 0.673873 0.795024
vt 0.681008 0.829397
vt 0.642163 0.803608
vt 0.718082 0.729737
vt 0.696139 0.760724
vt 0.677500 0.722791
vt 0.795646 0.756949
vt 0.771647 0.788286
vt 0.768649 0.744667
vt 0.873888 0.756949
vt 0.836649 0.752891
vt 0.854811 0.722791
vt 0.585244 0.732207
vt 0.651514 0.761166
vt 0.281574 0.782422
vt 0.286928 0.742394
vt 0.314649 0.776760
vt 0.808822 0.722791
vt 0.743115 0.634193
vt 0.752895 0.603183
vt 0.778849 0.641574
vt 0.308484 0.905565
vt 0.284605 0.874018
vt 0.326563 0.869286
vt 0.386781 0.905564
vt 0.349464 0.909759
vt 0.372585 0.869286
vt 0.354318 0.765609
vt 0.329686 0.732511
vt 0.375131 0.732511
vt 0.775323 0.569185
vt 0.781956 0.535064
vt 0.815740 0.561264
vt 0.819477 0.634499
vt 0.797780 0.603363
vt 0.841694 0.599654
vt 0.850034 0.562876
vt 0.825870 0.531356
vt 0.388181 0.776760
vt 0.382191 0.833545
vt 0.347820 0.836708
vt 0.347410 0.698145
vt 0.307155 0.707141
vt 0.307726 0.833545
vt 0.849903 0.635572
vt 0.743115 0.560972
vt 0.381576 0.813990
vt 0.350802 0.804108
vt 0.367681 0.939505
vt 0.321659 0.939505
vt 0.281574 0.917416
vt 0.542111 0.722791
vt 0.515863 0.754407
vt 0.308044 0.813990
vt 0.642163 0.730489
vt 0.615253 0.722791
vt 0.622608 0.759503
vt 0.521586 0.794251
vt 0.541813 0.829545
vt 0.749039 0.728930
vt 0.582044 0.838416
vt 0.869072 0.828764
vt 0.557140 0.861066
vt 0.578807 0.857971
vt 0.578807 0.947273
vt 0.557140 0.950369
vt 0.768649 0.863003
vt 0.768911 0.848319
vt 0.853983 0.848319
vt 0.853721 0.863003
vt 0.537585 0.950893
vt 0.515863 0.948077
vt 0.515863 0.857971
vt 0.537585 0.860787
vt 0.408014 0.927945
vt 0.407736 0.913509
vt 0.492807 0.913509
vt 0.493085 0.927945
vt 0.854552 0.937074
vt 0.769480 0.937074
vt 0.408593 0.838661
vt 0.493664 0.838660
vt 0.353605 0.975871
vt 0.342670 0.978819
vt 0.343217 0.970281
vt 0.951568 0.970279
vt 0.941430 0.968337
vt 0.948719 0.958783
vt 0.353605 0.963659
vt 0.988023 0.259537
vt 0.977640 0.263877
vt 0.977391 0.253200
vt 0.988023 0.247165
vt 0.960512 0.962681
vt 0.948719 0.978139
vt 0.960512 0.974643
vt 0.342670 0.959060
vt 0.787729 0.960168
vt 0.787729 0.972218
vt 0.778777 0.964738
vt 0.977640 0.243858
vt 0.642483 0.979957
vt 0.642163 0.970690
vt 0.652810 0.976715
vt 0.775937 0.976126
vt 0.775937 0.956629
vt 0.281574 0.978746
vt 0.282217 0.967429
vt 0.292567 0.974109
vt 0.642483 0.959955
vt 0.652810 0.964353
vt 0.768649 0.966492
vt 0.281574 0.959060
vt 0.292567 0.961941
vt 0.384095 0.975871
vt 0.373160 0.978819
vt 0.373707 0.970282
vt 0.819115 0.967364
vt 0.814372 0.976532
vt 0.807284 0.966828
vt 0.384095 0.963659
vt 0.988023 0.299111
vt 0.977640 0.303451
vt 0.977391 0.292774
vt 0.988023 0.286739
vt 0.814372 0.956629
vt 0.825841 0.972329
vt 0.825841 0.960028
vt 0.373160 0.959060
vt 0.885545 0.975630
vt 0.874107 0.971839
vt 0.884023 0.965695
vt 0.977640 0.283432
vt 0.679604 0.979957
vt 0.679284 0.970690
vt 0.689931 0.976715
vt 0.874107 0.959416
vt 0.892614 0.965550
vt 0.312122 0.978746
vt 0.312765 0.967429
vt 0.323115 0.974108
vt 0.679605 0.959955
vt 0.689931 0.964353
vt 0.885545 0.955529
vt 0.312122 0.959060
vt 0.323115 0.961941
s 1
usemtl mob_bebek_mat.002
f 1/1/1 2/2/2 4/3/3 3/4/4
f 3/4/4 4/3/3 6/5/5 5/6/6
f 5/7/6 6/8/5 8/9/7 7/10/8
f 7/10/8 8/9/7 10/11/9 9/12/10
f 9/13/10 10/14/9 12/15/11 11/16/12
f 11/16/12 12/15/11 14/17/13 13/18/14
f 4/19/3 2/20/2 16/21/15 14/22/13 12/23/11 10/24/9 8/25/7 6/26/5
f 13/27/14 14/28/13 16/29/15 15/30/16
f 15/30/16 16/29/15 2/31/2 1/32/1
f 1/33/1 3/34/4 5/35/6 7/36/8 9/37/10 11/38/12 13/39/14 15/40/16
f 17/41/17 18/42/18 19/43/19
f 18/44/18 17/45/17 22/46/20
f 17/41/17 19/43/19 20/47/21
f 17/45/17 20/48/21 21/49/22
f 17/45/17 21/49/22 22/46/20
f 18/50/18 22/51/20 27/52/23
f 19/43/19 18/42/18 23/53/24
f 20/47/21 19/43/19 24/54/25
f 21/49/22 20/48/21 25/55/26
f 22/46/20 21/49/22 26/56/27
f 18/57/18 27/58/23 23/59/24
f 19/60/19 23/59/24 24/61/25
f 20/62/21 24/63/25 25/64/26
f 21/65/22 25/66/26 26/67/27
f 22/68/20 26/69/27 27/70/23
f 23/59/24 27/58/23 28/71/28
f 24/61/25 23/59/24 28/71/28
f 25/72/26 24/61/25 28/71/28
f 26/69/27 25/73/26 28/74/28
f 27/70/23 26/69/27 28/74/28
f 29/75/1 30/76/2 32/77/3 31/78/4
f 31/78/4 32/77/3 34/79/5 33/80/6
f 33/81/6 34/82/5 36/83/7 35/84/8
f 35/84/8 36/83/7 38/85/9 37/86/10
f 37/87/10 38/88/9 40/89/29 39/90/12
f 39/90/12 40/89/29 42/91/13 41/92/14
f 32/93/3 30/94/2 44/95/15 42/96/13 40/97/29 38/98/9 36/99/7 34/100/5
f 41/101/14 42/102/13 44/103/15 43/104/30
f 43/104/30 44/103/15 30/105/2 29/106/1
f 29/107/1 31/108/4 33/109/6 35/110/8 37/111/10 39/112/12 41/113/14 43/114/30
f 45/115/17 46/116/18 47/117/19
f 46/118/18 45/119/17 50/120/20
f 45/115/17 47/117/19 48/121/21
f 45/119/17 48/122/21 49/123/22
f 45/119/17 49/123/22 50/120/20
f 46/124/18 50/125/20 55/126/23
f 47/117/19 46/116/18 51/127/24
f 48/121/21 47/117/19 52/128/25
f 49/123/22 48/122/21 53/129/26
f 50/120/20 49/123/22 54/130/27
f 46/131/18 55/132/23 51/133/24
f 47/134/19 51/133/24 52/135/25
f 48/136/21 52/137/25 53/138/26
f 49/139/22 53/140/26 54/141/27
f 50/142/20 54/143/27 55/144/23
f 51/133/24 55/132/23 56/145/28
f 52/135/25 51/133/24 56/145/28
f 53/146/26 52/135/25 56/145/28
f 54/143/27 53/147/26 56/148/28
f 55/144/23 54/143/27 56/148/28
f 57/149/31 72/150/32 71/151/33
f 58/152/34 74/153/35 80/154/36
f 57/149/31 71/151/33 86/155/37
f 57/149/31 86/155/37 92/156/38
f 57/149/31 92/156/38 81/157/39
f 58/152/34 80/154/36 101/158/40
f 59/159/41 77/160/42 107/161/43
f 60/162/44 89/163/45 113/164/46
f 61/165/47 95/166/48 119/167/49
f 62/168/50 98/169/51 125/170/52
f 58/152/34 101/158/40 108/171/53
f 59/159/41 107/161/43 114/172/54
f 60/162/44 113/164/46 120/173/55
f 61/165/47 119/167/49 126/174/56
f 62/175/50 125/176/52 102/177/57
f 63/178/58 131/179/59 146/180/60
f 64/181/61 134/182/62 152/183/63
f 65/184/64 137/185/65 155/186/66
f 66/187/67 140/188/68 158/189/69
f 67/190/70 143/191/71 147/192/72
f 149/193/73 156/194/74 68/195/75
f 148/196/76 159/197/77 149/198/73
f 147/192/72 160/199/78 148/196/76
f 149/198/73 159/197/77 156/200/74
f 159/197/77 157/201/79 156/200/74
f 148/196/76 160/199/78 159/197/77
f 160/199/78 161/202/80 159/197/77
f 159/197/77 161/202/80 157/201/79
f 161/202/80 158/189/69 157/201/79
f 147/192/72 143/191/71 160/199/78
f 143/191/71 142/203/81 160/199/78
f 160/199/78 142/203/81 161/202/80
f 142/203/81 141/204/82 161/202/80
f 161/202/80 141/204/82 158/189/69
f 141/204/82 66/187/67 158/189/69
f 156/194/74 153/205/83 68/195/75
f 157/201/79 162/206/84 156/200/74
f 158/189/69 163/207/85 157/201/79
f 156/194/74 162/208/84 153/205/83
f 162/209/84 154/210/86 153/211/83
f 157/201/79 163/207/85 162/206/84
f 163/212/85 164/213/87 162/209/84
f 162/209/84 164/213/87 154/210/86
f 164/213/87 155/186/66 154/210/86
f 158/189/69 140/188/68 163/207/85
f 140/188/68 139/214/88 163/207/85
f 163/212/85 139/215/88 164/213/87
f 139/215/88 138/216/89 164/213/87
f 164/213/87 138/216/89 155/186/66
f 138/216/89 65/184/64 155/186/66
f 153/205/83 150/217/90 68/195/75
f 154/210/86 165/218/91 153/211/83
f 155/186/66 166/219/92 154/210/86
f 153/205/83 165/220/91 150/217/90
f 165/220/91 151/221/93 150/217/90
f 154/210/86 166/219/92 165/218/91
f 166/219/92 167/222/94 165/218/91
f 165/220/91 167/223/94 151/221/93
f 167/223/94 152/183/63 151/221/93
f 155/186/66 137/185/65 166/219/92
f 137/185/65 136/224/95 166/219/92
f 166/219/92 136/224/95 167/222/94
f 136/224/95 135/225/96 167/222/94
f 167/222/94 135/225/96 152/226/63
f 135/225/96 64/227/61 152/226/63
f 150/217/90 144/228/97 68/195/75
f 151/221/93 168/229/98 150/217/90
f 152/183/63 169/230/99 151/221/93
f 150/217/90 168/229/98 144/228/97
f 168/229/98 145/231/100 144/228/97
f 151/221/93 169/230/99 168/229/98
f 169/230/99 170/232/101 168/229/98
f 168/229/98 170/232/101 145/231/100
f 170/232/101 146/180/60 145/231/100
f 152/183/63 134/182/62 169/230/99
f 134/182/62 133/233/102 169/230/99
f 169/230/99 133/233/102 170/232/101
f 133/233/102 132/234/103 170/232/101
f 170/232/101 132/234/103 146/180/60
f 132/234/103 63/178/58 146/180/60
f 144/228/97 149/193/73 68/195/75
f 145/231/100 171/235/104 144/228/97
f 146/180/60 172/236/105 145/231/100
f 144/228/97 171/235/104 149/193/73
f 171/235/104 148/237/76 149/193/73
f 145/231/100 172/236/105 171/235/104
f 172/236/105 173/238/106 171/235/104
f 171/235/104 173/238/106 148/237/76
f 173/239/106 147/192/72 148/196/76
f 146/180/60 131/179/59 172/236/105
f 131/179/59 130/240/107 172/236/105
f 172/236/105 130/240/107 173/238/106
f 130/241/107 129/242/108 173/239/106
f 173/239/106 129/242/108 147/192/72
f 129/242/108 67/190/70 147/192/72
f 104/243/109 143/191/71 67/190/70
f 103/244/110 174/245/111 104/243/109
f 102/177/57 175/246/112 103/247/110
f 104/243/109 174/245/111 143/191/71
f 174/245/111 142/203/81 143/191/71
f 103/244/110 175/248/112 174/245/111
f 175/248/112 176/249/113 174/245/111
f 174/245/111 176/249/113 142/203/81
f 176/249/113 141/204/82 142/203/81
f 102/177/57 125/176/52 175/246/112
f 125/250/52 124/251/114 175/248/112
f 175/248/112 124/251/114 176/249/113
f 124/251/114 123/252/115 176/249/113
f 176/249/113 123/252/115 141/204/82
f 123/252/115 66/187/67 141/204/82
f 128/253/116 140/188/68 66/187/67
f 127/254/117 177/255/118 128/253/116
f 126/174/56 178/256/119 127/257/117
f 128/253/116 177/255/118 140/188/68
f 177/255/118 139/214/88 140/188/68
f 127/258/117 178/259/119 177/260/118
f 178/259/119 179/261/120 177/260/118
f 177/260/118 179/261/120 139/215/88
f 179/261/120 138/216/89 139/215/88
f 126/174/56 119/167/49 178/256/119
f 119/262/49 118/263/121 178/259/119
f 178/259/119 118/263/121 179/261/120
f 118/263/121 117/264/122 179/261/120
f 179/261/120 117/264/122 138/216/89
f 117/264/122 65/184/64 138/216/89
f 122/265/123 137/185/65 65/184/64
f 121/266/124 180/267/125 122/265/123
f 120/268/55 181/269/126 121/266/124
f 122/265/123 180/267/125 137/185/65
f 180/267/125 136/224/95 137/185/65
f 121/266/124 181/269/126 180/267/125
f 181/269/126 182/270/127 180/267/125
f 180/267/125 182/270/127 136/224/95
f 182/270/127 135/225/96 136/224/95
f 120/268/55 113/271/46 181/269/126
f 113/271/46 112/272/128 181/269/126
f 181/269/126 112/272/128 182/270/127
f 112/272/128 111/273/129 182/270/127
f 182/270/127 111/273/129 135/225/96
f 111/273/129 64/227/61 135/225/96
f 116/274/130 134/182/62 64/181/61
f 115/275/131 183/276/132 116/277/130
f 114/172/54 184/278/133 115/275/131
f 116/274/130 183/279/132 134/182/62
f 183/279/132 133/233/102 134/182/62
f 115/275/131 184/278/133 183/276/132
f 184/280/133 185/281/134 183/279/132
f 183/279/132 185/281/134 133/233/102
f 185/281/134 132/234/103 133/233/102
f 114/172/54 107/161/43 184/278/133
f 107/161/43 106/282/135 184/278/133
f 184/280/133 106/283/135 185/281/134
f 106/283/135 105/284/136 185/281/134
f 185/281/134 105/284/136 132/234/103
f 105/284/136 63/178/58 132/234/103
f 110/285/137 131/179/59 63/178/58
f 109/286/138 186/287/139 110/288/137
f 108/171/53 187/289/140 109/286/138
f 110/285/137 186/290/139 131/179/59
f 186/290/139 130/240/107 131/179/59
f 109/286/138 187/289/140 186/287/139
f 187/289/140 188/291/141 186/287/139
f 186/287/139 188/291/141 130/292/107
f 188/291/141 129/293/108 130/292/107
f 108/171/53 101/158/40 187/289/140
f 101/158/40 100/294/142 187/289/140
f 187/289/140 100/294/142 188/291/141
f 100/294/142 99/295/143 188/291/141
f 188/291/141 99/295/143 129/293/108
f 99/296/143 67/190/70 129/242/108
f 123/252/115 128/253/116 66/187/67
f 124/251/114 189/297/144 123/252/115
f 125/250/52 190/298/145 124/251/114
f 123/252/115 189/297/144 128/253/116
f 189/297/144 127/254/117 128/253/116
f 124/251/114 190/298/145 189/297/144
f 190/299/145 191/300/146 189/301/144
f 189/301/144 191/300/146 127/257/117
f 191/300/146 126/174/56 127/257/117
f 125/170/52 98/169/51 190/299/145
f 98/169/51 97/302/147 190/299/145
f 190/299/145 97/302/147 191/300/146
f 97/302/147 96/303/148 191/300/146
f 191/300/146 96/303/148 126/174/56
f 96/303/148 61/165/47 126/174/56
f 117/264/122 122/265/123 65/184/64
f 118/263/121 192/304/149 117/264/122
f 119/262/49 193/305/150 118/263/121
f 117/264/122 192/304/149 122/265/123
f 192/304/149 121/266/124 122/265/123
f 118/263/121 193/305/150 192/304/149
f 193/305/150 194/306/151 192/304/149
f 192/304/149 194/306/151 121/266/124
f 194/306/151 120/268/55 121/266/124
f 119/167/49 95/166/48 193/307/150
f 95/166/48 94/308/152 193/307/150
f 193/305/150 94/309/152 194/306/151
f 94/309/152 93/310/153 194/306/151
f 194/306/151 93/310/153 120/268/55
f 93/311/153 60/162/44 120/173/55
f 111/273/129 116/312/130 64/227/61
f 112/272/128 195/313/154 111/273/129
f 113/164/46 196/314/155 112/315/128
f 111/273/129 195/313/154 116/312/130
f 195/316/154 115/275/131 116/277/130
f 112/315/128 196/314/155 195/316/154
f 196/314/155 197/317/156 195/316/154
f 195/316/154 197/317/156 115/275/131
f 197/317/156 114/172/54 115/275/131
f 113/164/46 89/163/45 196/314/155
f 89/163/45 88/318/157 196/314/155
f 196/314/155 88/318/157 197/317/156
f 88/318/157 87/319/158 197/317/156
f 197/317/156 87/319/158 114/172/54
f 87/319/158 59/159/41 114/172/54
f 105/284/136 110/285/137 63/178/58
f 106/283/135 198/320/159 105/284/136
f 107/161/43 199/321/160 106/282/135
f 105/284/136 198/320/159 110/285/137
f 198/322/159 109/286/138 110/288/137
f 106/323/135 199/324/160 198/322/159
f 199/324/160 200/325/161 198/322/159
f 198/322/159 200/325/161 109/286/138
f 200/325/161 108/171/53 109/286/138
f 107/161/43 77/160/42 199/321/160
f 77/160/42 76/326/162 199/321/160
f 199/324/160 76/327/162 200/325/161
f 76/327/162 75/328/163 200/325/161
f 200/325/161 75/328/163 108/171/53
f 75/328/163 58/152/34 108/171/53
f 99/296/143 104/243/109 67/190/70
f 100/294/142 201/329/164 99/295/143
f 101/158/40 202/330/165 100/294/142
f 99/295/143 201/329/164 104/331/109
f 201/329/164 103/247/110 104/331/109
f 100/294/142 202/330/165 201/329/164
f 202/330/165 203/332/166 201/329/164
f 201/329/164 203/332/166 103/247/110
f 203/332/166 102/177/57 103/247/110
f 101/158/40 80/154/36 202/330/165
f 80/154/36 79/333/167 202/330/165
f 202/330/165 79/333/167 203/332/166
f 79/333/167 78/334/168 203/332/166
f 203/332/166 78/334/168 102/177/57
f 78/334/168 62/175/50 102/177/57
f 83/335/169 98/169/51 62/168/50
f 82/336/170 204/337/171 83/335/169
f 81/157/39 205/338/172 82/336/170
f 83/335/169 204/337/171 98/169/51
f 204/337/171 97/302/147 98/169/51
f 82/336/170 205/338/172 204/337/171
f 205/338/172 206/339/173 204/337/171
f 204/337/171 206/339/173 97/302/147
f 206/339/173 96/303/148 97/302/147
f 81/157/39 92/156/38 205/338/172
f 92/156/38 91/340/174 205/338/172
f 205/338/172 91/340/174 206/339/173
f 91/340/174 90/341/175 206/339/173
f 206/339/173 90/341/175 96/303/148
f 90/341/175 61/165/47 96/303/148
f 90/341/175 95/166/48 61/165/47
f 91/340/174 207/342/176 90/341/175
f 92/156/38 208/343/177 91/340/174
f 90/341/175 207/342/176 95/166/48
f 207/342/176 94/308/152 95/166/48
f 91/340/174 208/343/177 207/342/176
f 208/343/177 209/344/178 207/342/176
f 207/342/176 209/344/178 94/308/152
f 209/345/178 93/311/153 94/346/152
f 92/156/38 86/155/37 208/343/177
f 86/155/37 85/347/179 208/343/177
f 208/343/177 85/347/179 209/344/178
f 85/348/179 84/349/180 209/345/178
f 209/345/178 84/349/180 93/311/153
f 84/349/180 60/162/44 93/311/153
f 84/349/180 89/163/45 60/162/44
f 85/348/179 210/350/181 84/349/180
f 86/351/37 211/352/182 85/348/179
f 84/349/180 210/350/181 89/163/45
f 210/350/181 88/318/157 89/163/45
f 85/348/179 211/352/182 210/350/181
f 211/352/182 212/353/183 210/350/181
f 210/350/181 212/353/183 88/318/157
f 212/353/183 87/319/158 88/318/157
f 86/351/37 71/354/33 211/352/182
f 71/354/33 70/355/184 211/352/182
f 211/352/182 70/355/184 212/353/183
f 70/355/184 69/356/185 212/353/183
f 212/353/183 69/356/185 87/319/158
f 69/356/185 59/159/41 87/319/158
f 78/334/168 83/357/169 62/175/50
f 79/333/167 213/358/186 78/334/168
f 80/154/36 214/359/187 79/333/167
f 78/334/168 213/358/186 83/357/169
f 213/360/186 82/336/170 83/335/169
f 79/333/167 214/359/187 213/358/186
f 214/359/187 215/361/188 213/358/186
f 213/360/186 215/362/188 82/336/170
f 215/362/188 81/157/39 82/336/170
f 80/154/36 74/153/35 214/359/187
f 74/153/35 73/363/189 214/359/187
f 214/359/187 73/363/189 215/361/188
f 73/363/189 72/364/32 215/361/188
f 215/362/188 72/150/32 81/157/39
f 72/150/32 57/149/31 81/157/39
f 69/356/185 77/160/42 59/159/41
f 70/355/184 216/365/190 69/356/185
f 71/354/33 217/366/191 70/355/184
f 69/356/185 216/365/190 77/160/42
f 216/365/190 76/326/162 77/160/42
f 70/355/184 217/366/191 216/365/190
f 217/366/191 218/367/192 216/365/190
f 216/368/190 218/369/192 76/327/162
f 218/369/192 75/328/163 76/327/162
f 71/151/33 72/150/32 217/370/191
f 72/364/32 73/363/189 217/371/191
f 217/371/191 73/363/189 218/369/192
f 73/363/189 74/153/35 218/369/192
f 218/369/192 74/153/35 75/328/163
f 74/153/35 58/152/34 75/328/163
f 219/372/193 220/373/194 222/374/195 221/375/196
f 221/375/196 222/374/195 224/376/197 223/377/198
f 223/378/198 224/379/197 226/380/199 225/381/200
f 225/381/200 226/380/199 228/382/201 227/383/202
f 227/384/202 228/385/201 230/386/203 229/387/204
f 222/388/195 220/389/194 232/390/205 230/391/203 228/392/201 226/393/199 224/394/197
f 229/395/204 230/396/203 232/397/205 231/398/206
f 231/398/206 232/397/205 220/399/194 219/400/193
f 219/401/193 221/402/196 223/403/198 225/404/200 227/405/202 229/406/204 231/407/206
f 233/408/207 234/409/208 236/410/209 235/411/210
f 235/412/210 236/413/209 238/414/211 237/415/212
f 237/416/212 238/417/211 240/418/213 239/419/214
f 239/419/214 240/418/213 242/420/215 241/421/216
f 236/422/209 234/423/208 244/424/217 242/425/215 240/426/213 238/427/211
f 241/428/216 242/429/215 244/430/217 243/431/218
f 243/432/218 244/433/217 234/409/208 233/408/207
f 233/434/207 235/435/210 237/436/212 239/437/214 241/438/216 243/439/218
f 245/440/219 258/441/220 257/442/221
f 246/443/222 258/444/220 260/445/223
f 245/440/219 257/442/221 262/446/224
f 245/447/219 262/448/224 264/449/225
f 245/447/219 264/449/225 261/450/226
f 246/443/222 260/445/223 267/451/227
f 247/452/228 259/453/229 269/454/230
f 248/455/231 263/456/232 271/457/233
f 249/458/234 265/459/235 273/460/236
f 250/461/237 266/462/238 275/463/239
f 246/443/222 267/451/227 270/464/240
f 247/452/228 269/454/230 272/465/241
f 248/466/231 271/467/233 274/468/242
f 249/458/234 273/460/236 276/469/243
f 250/470/237 275/471/239 268/472/244
f 251/473/245 277/474/246 282/475/247
f 252/476/248 278/477/249 284/478/250
f 253/479/251 279/480/252 285/481/253
f 254/482/254 280/483/255 286/484/256
f 255/485/257 281/486/258 283/487/259
f 283/487/259 286/484/256 256/488/260
f 283/487/259 281/486/258 286/484/256
f 281/486/258 254/482/254 286/484/256
f 286/484/256 285/489/253 256/488/260
f 286/484/256 280/483/255 285/489/253
f 280/490/255 253/479/251 285/481/253
f 285/491/253 284/478/250 256/492/260
f 285/481/253 279/480/252 284/493/250
f 279/480/252 252/494/248 284/493/250
f 284/478/250 282/475/247 256/492/260
f 284/478/250 278/477/249 282/475/247
f 278/477/249 251/473/245 282/475/247
f 282/475/247 283/495/259 256/492/260
f 282/475/247 277/474/246 283/495/259
f 277/496/246 255/485/257 283/487/259
f 268/472/244 281/486/258 255/485/257
f 268/472/244 275/471/239 281/486/258
f 275/471/239 254/482/254 281/486/258
f 276/497/243 280/483/255 254/482/254
f 276/498/243 273/499/236 280/490/255
f 273/499/236 253/479/251 280/490/255
f 274/468/242 279/480/252 253/479/251
f 274/468/242 271/467/233 279/480/252
f 271/467/233 252/494/248 279/480/252
f 272/500/241 278/477/249 252/476/248
f 272/500/241 269/501/230 278/477/249
f 269/501/230 251/473/245 278/477/249
f 270/502/240 277/474/246 251/473/245
f 270/464/240 267/451/227 277/503/246
f 267/451/227 255/504/257 277/503/246
f 275/471/239 276/497/243 254/482/254
f 275/463/239 266/462/238 276/469/243
f 266/462/238 249/458/234 276/469/243
f 273/499/236 274/468/242 253/479/251
f 273/499/236 265/505/235 274/468/242
f 265/505/235 248/466/231 274/468/242
f 271/457/233 272/465/241 252/506/248
f 271/457/233 263/456/232 272/465/241
f 263/456/232 247/452/228 272/465/241
f 269/501/230 270/502/240 251/473/245
f 269/507/230 259/508/229 270/464/240
f 259/508/229 246/443/222 270/464/240
f 267/451/227 268/509/244 255/504/257
f 267/451/227 260/445/223 268/509/244
f 260/445/223 250/510/237 268/509/244
f 261/450/226 266/462/238 250/461/237
f 261/450/226 264/449/225 266/462/238
f 264/449/225 249/458/234 266/462/238
f 264/449/225 265/459/235 249/458/234
f 264/449/225 262/448/224 265/459/235
f 262/446/224 248/455/231 265/511/235
f 262/446/224 263/456/232 248/455/231
f 262/446/224 257/442/221 263/456/232
f 257/442/221 247/452/228 263/456/232
f 260/445/223 261/512/226 250/510/237
f 260/445/223 258/444/220 261/512/226
f 258/513/220 245/447/219 261/450/226
f 257/442/221 259/453/229 247/452/228
f 257/442/221 258/441/220 259/453/229
f 258/444/220 246/443/222 259/508/229
f 287/514/261 288/515/262 290/516/263 289/517/264
f 289/518/264 290/519/263 294/520/265 293/521/266
f 293/522/266 294/523/265 292/524/267 291/525/268
f 291/526/268 292/527/267 288/528/262 287/529/261
f 289/518/264 293/521/266 291/530/268 287/531/261
f 294/532/265 290/533/263 288/528/262 292/527/267
f 295/534/219 296/535/269 297/536/270
f 296/537/269 295/538/219 300/539/271
f 295/534/219 297/536/270 298/540/272
f 295/541/219 298/542/272 299/543/273
f 295/541/219 299/543/273 300/544/271
f 296/537/269 300/539/271 305/545/274
f 297/546/270 296/537/269 301/547/275
f 298/540/272 297/536/270 302/548/276
f 299/549/273 298/550/272 303/551/277
f 300/544/271 299/543/273 304/552/278
f 296/537/269 305/545/274 301/547/275
f 297/553/270 301/554/275 302/555/276
f 298/550/272 302/556/276 303/551/277
f 299/549/273 303/551/277 304/557/278
f 300/558/271 304/559/278 305/560/274
f 301/554/275 305/561/274 306/562/260
f 302/555/276 301/554/275 306/562/260
f 303/551/277 302/556/276 306/563/260
f 304/559/278 303/564/277 306/565/260
f 305/560/274 304/559/278 306/565/260
f 307/566/219 308/567/269 309/568/270
f 308/569/269 307/570/219 312/571/271
f 307/566/219 309/568/270 310/572/272
f 307/573/219 310/574/272 311/575/273
f 307/573/219 311/575/273 312/576/271
f 308/569/269 312/571/271 317/577/274
f 309/578/270 308/569/269 313/579/279
f 310/572/272 309/568/270 314/580/276
f 311/581/273 310/582/272 315/583/277
f 312/576/271 311/575/273 316/584/280
f 308/569/269 317/577/274 313/579/279
f 309/585/270 313/586/279 314/587/276
f 310/582/272 314/588/276 315/583/277
f 311/581/273 315/583/277 316/589/280
f 312/590/271 316/591/280 317/592/274
f 313/586/279 317/593/274 318/594/260
f 314/587/276 313/586/279 318/594/260
f 315/583/277 314/588/276 318/595/260
f 316/591/280 315/596/277 318/597/260
f 317/592/274 316/591/280 318/597/260
