# Blender 5.1.1
# www.blender.org
mtllib mob_kelelawar.mtl
o mob_kelelawar
v -0.120000 0.080000 0.000000
v -0.420000 0.340000 0.040000
v -0.660000 0.200000 0.060000
v -0.700000 -0.040000 0.060000
v -0.520000 -0.220000 0.040000
v -0.200000 -0.200000 0.020000
v -0.121795 0.079919 -0.019919
v -0.422057 0.340686 0.020118
v -0.662106 0.200464 0.040117
v -0.702109 -0.039748 0.040113
v -0.521856 -0.220180 0.020087
v -0.201178 -0.201087 0.000064
v 0.000000 0.200000 0.000000
v 0.000000 0.184776 0.055106
v 0.000000 0.076537 0.133039
v 0.000000 0.000000 0.144000
v 0.000000 -0.184776 0.055106
v 0.000000 -0.200000 0.000000
v -0.030615 0.184776 0.047724
v -0.056569 0.141421 0.088182
v -0.073910 0.076537 0.115215
v -0.080000 0.000000 0.124708
v -0.073910 -0.076537 0.115215
v -0.056569 -0.141421 0.088182
v -0.030615 -0.184776 0.047724
v -0.053026 0.184776 0.027553
v -0.097980 0.141421 0.050912
v -0.128016 0.076537 0.066519
v -0.138564 0.000000 0.072000
v -0.128016 -0.076537 0.066519
v -0.097980 -0.141421 0.050912
v -0.053026 -0.184776 0.027553
v -0.061229 0.184776 0.000000
v -0.113137 0.141421 0.000000
v -0.147821 0.076537 0.000000
v -0.160000 0.000000 0.000000
v -0.147821 -0.076537 0.000000
v -0.113137 -0.141421 0.000000
v -0.061229 -0.184776 0.000000
v -0.053026 0.184776 -0.027553
v -0.097980 0.141421 -0.050912
v -0.128016 0.076537 -0.066519
v -0.138564 0.000000 -0.072000
v -0.128016 -0.076537 -0.066519
v -0.097980 -0.141421 -0.050912
v -0.053026 -0.184776 -0.027553
v -0.030615 0.184776 -0.047724
v -0.056569 0.141421 -0.088182
v -0.073910 0.076537 -0.115215
v -0.080000 0.000000 -0.124708
v -0.073910 -0.076537 -0.115215
v -0.056569 -0.141421 -0.088182
v -0.030615 -0.184776 -0.047724
v -0.000000 0.184776 -0.055106
v -0.000000 0.141421 -0.101823
v -0.000000 0.076537 -0.133039
v -0.000000 0.000000 -0.144000
v -0.000000 -0.076537 -0.133039
v -0.000000 -0.141421 -0.101823
v -0.000000 -0.184776 -0.055106
v 0.030615 0.184776 -0.047724
v 0.056569 0.141421 -0.088182
v 0.073910 0.076537 -0.115215
v 0.080000 0.000000 -0.124708
v 0.073910 -0.076537 -0.115215
v 0.056569 -0.141421 -0.088182
v 0.030615 -0.184776 -0.047724
v 0.053026 0.184776 -0.027553
v 0.097980 0.141421 -0.050912
v 0.128016 0.076537 -0.066519
v 0.138564 0.000000 -0.072000
v 0.128016 -0.076537 -0.066519
v 0.097980 -0.141421 -0.050912
v 0.053026 -0.184776 -0.027553
v 0.061229 0.184776 -0.000000
v 0.113137 0.141421 -0.000000
v 0.147821 0.076537 0.000000
v 0.160000 0.000000 -0.000000
v 0.147821 -0.076537 0.000000
v 0.113137 -0.141421 -0.000000
v 0.061229 -0.184776 -0.000000
v 0.053026 0.184776 0.027553
v 0.097980 0.141421 0.050912
v 0.128016 0.076537 0.066519
v 0.138564 0.000000 0.072000
v 0.128016 -0.076537 0.066519
v 0.097980 -0.141421 0.050912
v 0.053026 -0.184776 0.027553
v 0.030615 0.184776 0.047724
v 0.056569 0.141421 0.088182
v 0.073910 0.076537 0.115215
v 0.080000 0.000000 0.124708
v 0.073910 -0.076537 0.115215
v 0.056569 -0.141421 0.088182
v 0.030615 -0.184776 0.047724
v 0.000000 0.141421 0.101823
v -0.000000 -0.076537 0.133039
v 0.000000 -0.141421 0.101823
v -0.000000 0.363500 -0.020000
v 0.000000 0.327328 0.071924
v 0.000000 0.125901 0.029749
v -0.000000 0.116500 -0.020000
v -0.026118 0.354099 0.023084
v -0.048260 0.327328 0.059608
v -0.063055 0.287261 0.084013
v -0.068250 0.240000 0.092583
v -0.063055 0.192739 0.084013
v -0.048260 0.152672 0.059608
v -0.026118 0.125901 0.023084
v -0.045238 0.354099 0.004874
v -0.083589 0.327328 0.025962
v -0.109214 0.287261 0.040052
v -0.118212 0.240000 0.045000
v -0.109214 0.192739 0.040052
v -0.083589 0.152672 0.025962
v -0.045238 0.125901 0.004874
v -0.052236 0.354099 -0.020000
v -0.096520 0.327328 -0.020000
v -0.126110 0.287261 -0.020000
v -0.136500 0.240000 -0.020000
v -0.126110 0.192739 -0.020000
v -0.096520 0.152672 -0.020000
v -0.052236 0.125901 -0.020000
v -0.045238 0.354099 -0.044874
v -0.083589 0.327328 -0.065962
v -0.109214 0.287261 -0.080052
v -0.118212 0.240000 -0.085000
v -0.109214 0.192739 -0.080052
v -0.083589 0.152672 -0.065962
v -0.045238 0.125901 -0.044874
v -0.026118 0.354099 -0.063084
v -0.048260 0.327328 -0.099608
v -0.063055 0.287261 -0.124013
v -0.068250 0.240000 -0.132583
v -0.063055 0.192739 -0.124013
v -0.048260 0.152672 -0.099608
v -0.026118 0.125901 -0.063084
v -0.000000 0.354099 -0.069749
v -0.000000 0.327328 -0.111924
v -0.000000 0.287261 -0.140104
v -0.000000 0.240000 -0.150000
v -0.000000 0.192739 -0.140104
v -0.000000 0.152672 -0.111924
v -0.000000 0.125901 -0.069749
v 0.026118 0.354099 -0.063084
v 0.048260 0.327328 -0.099608
v 0.063055 0.287261 -0.124013
v 0.068250 0.240000 -0.132583
v 0.063055 0.192739 -0.124013
v 0.048260 0.152672 -0.099608
v 0.026118 0.125901 -0.063084
v 0.045238 0.354099 -0.044874
v 0.083589 0.327328 -0.065962
v 0.109214 0.287261 -0.080052
v 0.118212 0.240000 -0.085000
v 0.109214 0.192739 -0.080052
v 0.083589 0.152672 -0.065962
v 0.045238 0.125901 -0.044874
v 0.052236 0.354099 -0.020000
v 0.096520 0.327328 -0.020000
v 0.126110 0.287261 -0.020000
v 0.136500 0.240000 -0.020000
v 0.126110 0.192739 -0.020000
v 0.096520 0.152672 -0.020000
v 0.052236 0.125901 -0.020000
v 0.045238 0.354099 0.004874
v 0.083589 0.327328 0.025962
v 0.109214 0.287261 0.040052
v 0.118212 0.240000 0.045000
v 0.109214 0.192739 0.040052
v 0.083589 0.152672 0.025962
v 0.045238 0.125901 0.004874
v 0.026118 0.354099 0.023084
v 0.048260 0.327328 0.059608
v 0.063055 0.287261 0.084013
v 0.068250 0.240000 0.092583
v 0.063055 0.192739 0.084013
v 0.048260 0.152672 0.059608
v 0.026118 0.125901 0.023084
v -0.000000 0.354099 0.029749
v -0.000000 0.287261 0.100104
v -0.000000 0.240000 0.110000
v -0.000000 0.192739 0.100104
v -0.000000 0.152672 0.071924
v 0.049098 0.304894 0.065000
v 0.005386 0.319097 0.045962
v -0.012720 0.324980 0.000000
v 0.005386 0.319097 -0.045962
v 0.049098 0.304894 -0.065000
v 0.092811 0.290691 -0.045962
v 0.110917 0.284808 -0.000000
v 0.092811 0.290691 0.045962
v 0.110902 0.495106 -0.000000
v 0.050000 0.294000 -0.115000
v 0.050000 0.282000 -0.094215
v 0.050000 0.258000 -0.094215
v 0.050000 0.246000 -0.115000
v 0.041515 0.290785 -0.106515
v 0.035303 0.282000 -0.100303
v 0.033029 0.270000 -0.098029
v 0.035303 0.258000 -0.100303
v 0.041515 0.249215 -0.106515
v 0.038000 0.290785 -0.115000
v 0.029215 0.282000 -0.115000
v 0.026000 0.270000 -0.115000
v 0.029215 0.258000 -0.115000
v 0.038000 0.249215 -0.115000
v 0.041515 0.290785 -0.123485
v 0.035303 0.282000 -0.129697
v 0.033029 0.270000 -0.131971
v 0.035303 0.258000 -0.129697
v 0.041515 0.249215 -0.123485
v 0.050000 0.290785 -0.127000
v 0.050000 0.282000 -0.135785
v 0.050000 0.270000 -0.139000
v 0.050000 0.258000 -0.135785
v 0.050000 0.249215 -0.127000
v 0.058485 0.290785 -0.123485
v 0.064697 0.282000 -0.129697
v 0.066971 0.270000 -0.131971
v 0.064697 0.258000 -0.129697
v 0.058485 0.249215 -0.123485
v 0.062000 0.290785 -0.115000
v 0.070785 0.282000 -0.115000
v 0.074000 0.270000 -0.115000
v 0.070785 0.258000 -0.115000
v 0.062000 0.249215 -0.115000
v 0.058485 0.290785 -0.106515
v 0.064697 0.282000 -0.100303
v 0.066971 0.270000 -0.098029
v 0.064697 0.258000 -0.100303
v 0.058485 0.249215 -0.106515
v 0.050000 0.290785 -0.103000
v 0.050000 0.270000 -0.091000
v 0.050000 0.249215 -0.103000
v 0.025000 0.215000 -0.137000
v 0.013587 0.215000 -0.128708
v 0.017947 0.215000 -0.115292
v 0.032053 0.215000 -0.115292
v 0.036413 0.215000 -0.128708
v 0.025000 0.165000 -0.125000
v 0.120000 0.080000 -0.000000
v 0.420000 0.340000 0.040000
v 0.660000 0.200000 0.060000
v 0.700000 -0.040000 0.060000
v 0.520000 -0.220000 0.040000
v 0.200000 -0.200000 0.020000
v 0.118205 0.080081 0.019919
v 0.417943 0.339314 0.059882
v 0.657894 0.199536 0.079883
v 0.697891 -0.040252 0.079887
v 0.518144 -0.219820 0.059913
v 0.198822 -0.198913 0.039936
v 0.112249 0.089102 -0.001033
v 0.412249 0.349102 0.038967
v 0.117498 0.084551 -0.010818
v 0.417498 0.344551 0.029182
v 0.125249 0.075449 -0.009784
v 0.425249 0.335449 0.030216
v 0.127751 0.070898 0.001033
v 0.427751 0.330898 0.041033
v 0.122502 0.075449 0.010818
v 0.422502 0.335449 0.050818
v 0.114751 0.084551 0.009784
v 0.414751 0.344551 0.049784
v 0.420000 0.352000 0.040000
v 0.420000 0.346000 0.050392
v 0.420000 0.334000 0.050392
v 0.420000 0.328000 0.040000
v 0.415757 0.350392 0.044243
v 0.412652 0.346000 0.047348
v 0.411515 0.340000 0.048485
v 0.412652 0.334000 0.047348
v 0.415757 0.329608 0.044243
v 0.414000 0.350392 0.040000
v 0.409608 0.346000 0.040000
v 0.408000 0.340000 0.040000
v 0.409608 0.334000 0.040000
v 0.414000 0.329608 0.040000
v 0.415757 0.350392 0.035757
v 0.412652 0.346000 0.032651
v 0.411515 0.340000 0.031515
v 0.412652 0.334000 0.032651
v 0.415757 0.329608 0.035757
v 0.420000 0.350392 0.034000
v 0.420000 0.346000 0.029608
v 0.420000 0.340000 0.028000
v 0.420000 0.334000 0.029608
v 0.420000 0.329608 0.034000
v 0.424243 0.350392 0.035757
v 0.427348 0.346000 0.032651
v 0.428485 0.340000 0.031515
v 0.427348 0.334000 0.032651
v 0.424243 0.329608 0.035757
v 0.426000 0.350392 0.040000
v 0.430392 0.346000 0.040000
v 0.432000 0.340000 0.040000
v 0.430392 0.334000 0.040000
v 0.426000 0.329608 0.040000
v 0.424243 0.350392 0.044243
v 0.427348 0.346000 0.047348
v 0.428485 0.340000 0.048485
v 0.427348 0.334000 0.047348
v 0.424243 0.329608 0.044243
v 0.420000 0.350392 0.046000
v 0.420000 0.340000 0.052000
v 0.420000 0.329608 0.046000
v 0.117428 0.091718 -0.000286
v 0.657428 0.211718 0.059714
v 0.119862 0.085859 -0.010472
v 0.659862 0.205859 0.049528
v 0.122434 0.074141 -0.010186
v 0.662434 0.194141 0.049814
v 0.122572 0.068282 0.000286
v 0.662572 0.188282 0.060286
v 0.120138 0.074141 0.010472
v 0.660138 0.194141 0.070472
v 0.117566 0.085859 0.010186
v 0.657566 0.205859 0.070186
v 0.660000 0.212000 0.060000
v 0.660000 0.206000 0.070392
v 0.660000 0.194000 0.070392
v 0.660000 0.188000 0.060000
v 0.655757 0.210392 0.064243
v 0.652652 0.206000 0.067348
v 0.651515 0.200000 0.068485
v 0.652652 0.194000 0.067348
v 0.655757 0.189608 0.064243
v 0.654000 0.210392 0.060000
v 0.649608 0.206000 0.060000
v 0.648000 0.200000 0.060000
v 0.649608 0.194000 0.060000
v 0.654000 0.189608 0.060000
v 0.655757 0.210392 0.055757
v 0.652652 0.206000 0.052651
v 0.651515 0.200000 0.051515
v 0.652652 0.194000 0.052651
v 0.655757 0.189608 0.055757
v 0.660000 0.210392 0.054000
v 0.660000 0.206000 0.049608
v 0.660000 0.200000 0.048000
v 0.660000 0.194000 0.049608
v 0.660000 0.189608 0.054000
v 0.664243 0.210392 0.055757
v 0.667349 0.206000 0.052651
v 0.668485 0.200000 0.051515
v 0.667349 0.194000 0.052651
v 0.664243 0.189608 0.055757
v 0.666000 0.210392 0.060000
v 0.670392 0.206000 0.060000
v 0.672000 0.200000 0.060000
v 0.670392 0.194000 0.060000
v 0.666000 0.189608 0.060000
v 0.664243 0.210392 0.064243
v 0.667349 0.206000 0.067348
v 0.668485 0.200000 0.068485
v 0.667349 0.194000 0.067348
v 0.664243 0.189608 0.064243
v 0.660000 0.210392 0.066000
v 0.660000 0.200000 0.072000
v 0.660000 0.189608 0.066000
v 0.122406 0.091754 0.000249
v 0.702406 -0.028246 0.060249
v 0.122272 0.085877 -0.010213
v 0.702272 -0.034123 0.049787
v 0.119866 0.074123 -0.010462
v 0.699866 -0.045877 0.049538
v 0.117594 0.068246 -0.000249
v 0.697594 -0.051754 0.059751
v 0.117728 0.074123 0.010213
v 0.697728 -0.045877 0.070213
v 0.120134 0.085877 0.010462
v 0.700134 -0.034123 0.070462
v 0.700000 -0.028000 0.060000
v 0.700000 -0.034000 0.070392
v 0.700000 -0.046000 0.070392
v 0.700000 -0.052000 0.060000
v 0.695757 -0.029608 0.064243
v 0.692652 -0.034000 0.067348
v 0.691515 -0.040000 0.068485
v 0.692652 -0.046000 0.067348
v 0.695757 -0.050392 0.064243
v 0.694000 -0.029608 0.060000
v 0.689608 -0.034000 0.060000
v 0.688000 -0.040000 0.060000
v 0.689608 -0.046000 0.060000
v 0.694000 -0.050392 0.060000
v 0.695757 -0.029608 0.055757
v 0.692652 -0.034000 0.052651
v 0.691515 -0.040000 0.051515
v 0.692652 -0.046000 0.052651
v 0.695757 -0.050392 0.055757
v 0.700000 -0.029608 0.054000
v 0.700000 -0.034000 0.049608
v 0.700000 -0.040000 0.048000
v 0.700000 -0.046000 0.049608
v 0.700000 -0.050392 0.054000
v 0.704243 -0.029608 0.055757
v 0.707348 -0.034000 0.052651
v 0.708485 -0.040000 0.051515
v 0.707348 -0.046000 0.052651
v 0.704243 -0.050392 0.055757
v 0.706000 -0.029608 0.060000
v 0.710392 -0.034000 0.060000
v 0.712000 -0.040000 0.060000
v 0.710392 -0.046000 0.060000
v 0.706000 -0.050392 0.060000
v 0.704243 -0.029608 0.064243
v 0.707348 -0.034000 0.067348
v 0.708485 -0.040000 0.068485
v 0.707348 -0.046000 0.067348
v 0.704243 -0.050392 0.064243
v 0.700000 -0.029608 0.066000
v 0.700000 -0.040000 0.072000
v 0.700000 -0.050392 0.066000
v 0.127141 0.089617 0.000714
v 0.527141 -0.210383 0.040714
v 0.124605 0.084809 -0.009984
v 0.524605 -0.215191 0.030016
v 0.117463 0.075191 -0.010698
v 0.517463 -0.224809 0.029302
v 0.112859 0.070383 -0.000714
v 0.512859 -0.229617 0.039286
v 0.115395 0.075191 0.009984
v 0.515395 -0.224809 0.049984
v 0.122537 0.084809 0.010698
v 0.522537 -0.215191 0.050698
v 0.520000 -0.208000 0.040000
v 0.520000 -0.214000 0.050392
v 0.520000 -0.226000 0.050392
v 0.520000 -0.232000 0.040000
v 0.515757 -0.209608 0.044243
v 0.512652 -0.214000 0.047348
v 0.511515 -0.220000 0.048485
v 0.512652 -0.226000 0.047348
v 0.515757 -0.230392 0.044243
v 0.514000 -0.209608 0.040000
v 0.509608 -0.214000 0.040000
v 0.508000 -0.220000 0.040000
v 0.509608 -0.226000 0.040000
v 0.514000 -0.230392 0.040000
v 0.515757 -0.209608 0.035757
v 0.512652 -0.214000 0.032651
v 0.511515 -0.220000 0.031515
v 0.512652 -0.226000 0.032651
v 0.515757 -0.230392 0.035757
v 0.520000 -0.209608 0.034000
v 0.520000 -0.214000 0.029608
v 0.520000 -0.220000 0.028000
v 0.520000 -0.226000 0.029608
v 0.520000 -0.230392 0.034000
v 0.524243 -0.209608 0.035757
v 0.527348 -0.214000 0.032651
v 0.528485 -0.220000 0.031515
v 0.527348 -0.226000 0.032651
v 0.524243 -0.230392 0.035757
v 0.526000 -0.209608 0.040000
v 0.530392 -0.214000 0.040000
v 0.532000 -0.220000 0.040000
v 0.530392 -0.226000 0.040000
v 0.526000 -0.230392 0.040000
v 0.524243 -0.209608 0.044243
v 0.527348 -0.214000 0.047348
v 0.528485 -0.220000 0.048485
v 0.527348 -0.226000 0.047348
v 0.524243 -0.230392 0.044243
v 0.520000 -0.209608 0.046000
v 0.520000 -0.220000 0.052000
v 0.520000 -0.230392 0.046000
v 0.131167 0.083390 0.002792
v 0.211167 -0.196610 0.022792
v 0.128104 0.081695 -0.008686
v 0.208104 -0.198305 0.011314
v 0.116937 0.078305 -0.011478
v 0.196937 -0.201695 0.008522
v 0.108833 0.076610 -0.002792
v 0.188833 -0.203390 0.017208
v 0.111896 0.078305 0.008686
v 0.191896 -0.201695 0.028686
v 0.123063 0.081695 0.011478
v 0.203063 -0.198305 0.031478
v 0.200000 -0.188000 0.020000
v 0.200000 -0.194000 0.030392
v 0.200000 -0.206000 0.030392
v 0.200000 -0.212000 0.020000
v 0.195757 -0.189608 0.024243
v 0.192652 -0.194000 0.027348
v 0.191515 -0.200000 0.028485
v 0.192652 -0.206000 0.027348
v 0.195757 -0.210392 0.024243
v 0.194000 -0.189608 0.020000
v 0.189608 -0.194000 0.020000
v 0.188000 -0.200000 0.020000
v 0.189608 -0.206000 0.020000
v 0.194000 -0.210392 0.020000
v 0.195757 -0.189608 0.015757
v 0.192652 -0.194000 0.012652
v 0.191515 -0.200000 0.011515
v 0.192652 -0.206000 0.012652
v 0.195757 -0.210392 0.015757
v 0.200000 -0.189608 0.014000
v 0.200000 -0.194000 0.009608
v 0.200000 -0.200000 0.008000
v 0.200000 -0.206000 0.009608
v 0.200000 -0.210392 0.014000
v 0.204243 -0.189608 0.015757
v 0.207348 -0.194000 0.012652
v 0.208485 -0.200000 0.011515
v 0.207348 -0.206000 0.012652
v 0.204243 -0.210392 0.015757
v 0.206000 -0.189608 0.020000
v 0.210392 -0.194000 0.020000
v 0.212000 -0.200000 0.020000
v 0.210392 -0.206000 0.020000
v 0.206000 -0.210392 0.020000
v 0.204243 -0.189608 0.024243
v 0.207348 -0.194000 0.027348
v 0.208485 -0.200000 0.028485
v 0.207348 -0.206000 0.027348
v 0.204243 -0.210392 0.024243
v 0.200000 -0.189608 0.026000
v 0.200000 -0.200000 0.032000
v 0.200000 -0.210392 0.026000
v 0.067914 -0.156703 -0.015827
v 0.077914 -0.276703 -0.035827
v 0.050014 -0.158351 -0.014885
v 0.060014 -0.278351 -0.034885
v 0.042100 -0.161649 0.000942
v 0.052100 -0.281649 -0.019058
v 0.052086 -0.163297 0.015827
v 0.062086 -0.283297 -0.004173
v 0.069986 -0.161649 0.014885
v 0.079986 -0.281649 -0.005115
v 0.077900 -0.158351 -0.000942
v 0.087900 -0.278351 -0.020942
v 0.070000 -0.262000 -0.020000
v 0.070000 -0.264412 -0.011000
v 0.070000 -0.271000 -0.004412
v 0.070000 -0.280000 -0.002000
v 0.070000 -0.289000 -0.004412
v 0.070000 -0.295588 -0.011000
v 0.070000 -0.298000 -0.020000
v 0.063636 -0.264412 -0.013636
v 0.058977 -0.271000 -0.008977
v 0.057272 -0.280000 -0.007272
v 0.058977 -0.289000 -0.008977
v 0.063636 -0.295588 -0.013636
v 0.061000 -0.264412 -0.020000
v 0.054412 -0.271000 -0.020000
v 0.052000 -0.280000 -0.020000
v 0.054412 -0.289000 -0.020000
v 0.061000 -0.295588 -0.020000
v 0.063636 -0.264412 -0.026364
v 0.058977 -0.271000 -0.031023
v 0.057272 -0.280000 -0.032728
v 0.058977 -0.289000 -0.031023
v 0.063636 -0.295588 -0.026364
v 0.070000 -0.264412 -0.029000
v 0.070000 -0.271000 -0.035588
v 0.070000 -0.280000 -0.038000
v 0.070000 -0.289000 -0.035588
v 0.070000 -0.295588 -0.029000
v 0.076364 -0.264412 -0.026364
v 0.081023 -0.271000 -0.031023
v 0.082728 -0.280000 -0.032728
v 0.081023 -0.289000 -0.031023
v 0.076364 -0.295588 -0.026364
v 0.079000 -0.264412 -0.020000
v 0.085588 -0.271000 -0.020000
v 0.088000 -0.280000 -0.020000
v 0.085588 -0.289000 -0.020000
v 0.079000 -0.295588 -0.020000
v 0.076364 -0.264412 -0.013636
v 0.081023 -0.271000 -0.008977
v 0.082728 -0.280000 -0.007272
v 0.081023 -0.289000 -0.008977
v 0.076364 -0.295588 -0.013636
v -0.049098 0.304894 0.065000
v -0.092811 0.290691 0.045962
v -0.110917 0.284808 0.000000
v -0.092811 0.290691 -0.045962
v -0.049098 0.304894 -0.065000
v -0.005386 0.319097 -0.045962
v 0.012720 0.324980 -0.000000
v -0.005386 0.319097 0.045962
v -0.110902 0.495106 0.000000
v -0.050000 0.294000 -0.115000
v -0.050000 0.282000 -0.094215
v -0.050000 0.258000 -0.094215
v -0.050000 0.246000 -0.115000
v -0.058485 0.290785 -0.106515
v -0.064697 0.282000 -0.100303
v -0.066971 0.270000 -0.098029
v -0.064697 0.258000 -0.100303
v -0.058485 0.249215 -0.106515
v -0.062000 0.290785 -0.115000
v -0.070785 0.282000 -0.115000
v -0.074000 0.270000 -0.115000
v -0.070785 0.258000 -0.115000
v -0.062000 0.249215 -0.115000
v -0.058485 0.290785 -0.123485
v -0.064697 0.282000 -0.129697
v -0.066971 0.270000 -0.131971
v -0.064697 0.258000 -0.129697
v -0.058485 0.249215 -0.123485
v -0.050000 0.290785 -0.127000
v -0.050000 0.282000 -0.135785
v -0.050000 0.270000 -0.139000
v -0.050000 0.258000 -0.135785
v -0.050000 0.249215 -0.127000
v -0.041515 0.290785 -0.123485
v -0.035303 0.282000 -0.129697
v -0.033029 0.270000 -0.131971
v -0.035303 0.258000 -0.129697
v -0.041515 0.249215 -0.123485
v -0.038000 0.290785 -0.115000
v -0.029215 0.282000 -0.115000
v -0.026000 0.270000 -0.115000
v -0.029215 0.258000 -0.115000
v -0.038000 0.249215 -0.115000
v -0.041515 0.290785 -0.106515
v -0.035303 0.282000 -0.100303
v -0.033029 0.270000 -0.098029
v -0.035303 0.258000 -0.100303
v -0.041515 0.249215 -0.106515
v -0.050000 0.290785 -0.103000
v -0.050000 0.270000 -0.091000
v -0.050000 0.249215 -0.103000
v -0.025000 0.215000 -0.137000
v -0.036413 0.215000 -0.128708
v -0.032053 0.215000 -0.115292
v -0.017947 0.215000 -0.115292
v -0.013587 0.215000 -0.128708
v -0.025000 0.165000 -0.125000
v -0.112249 0.089102 -0.001033
v -0.412249 0.349102 0.038967
v -0.114751 0.084551 0.009784
v -0.414751 0.344551 0.049784
v -0.122502 0.075449 0.010818
v -0.422502 0.335449 0.050818
v -0.127751 0.070898 0.001033
v -0.427751 0.330898 0.041034
v -0.125249 0.075449 -0.009784
v -0.425249 0.335449 0.030216
v -0.117498 0.084551 -0.010818
v -0.417498 0.344551 0.029182
v -0.420000 0.352000 0.040000
v -0.420000 0.346000 0.050392
v -0.420000 0.334000 0.050392
v -0.420000 0.328000 0.040000
v -0.424243 0.350392 0.044243
v -0.427348 0.346000 0.047349
v -0.428485 0.340000 0.048485
v -0.427348 0.334000 0.047349
v -0.424243 0.329608 0.044243
v -0.426000 0.350392 0.040000
v -0.430392 0.346000 0.040000
v -0.432000 0.340000 0.040000
v -0.430392 0.334000 0.040000
v -0.426000 0.329608 0.040000
v -0.424243 0.350392 0.035757
v -0.427348 0.346000 0.032652
v -0.428485 0.340000 0.031515
v -0.427348 0.334000 0.032652
v -0.424243 0.329608 0.035757
v -0.420000 0.350392 0.034000
v -0.420000 0.346000 0.029608
v -0.420000 0.340000 0.028000
v -0.420000 0.334000 0.029608
v -0.420000 0.329608 0.034000
v -0.415757 0.350392 0.035757
v -0.412652 0.346000 0.032652
v -0.411515 0.340000 0.031515
v -0.412652 0.334000 0.032652
v -0.415757 0.329608 0.035757
v -0.414000 0.350392 0.040000
v -0.409608 0.346000 0.040000
v -0.408000 0.340000 0.040000
v -0.409608 0.334000 0.040000
v -0.414000 0.329608 0.040000
v -0.415757 0.350392 0.044243
v -0.412652 0.346000 0.047349
v -0.411515 0.340000 0.048485
v -0.412652 0.334000 0.047349
v -0.415757 0.329608 0.044243
v -0.420000 0.350392 0.046000
v -0.420000 0.340000 0.052000
v -0.420000 0.329608 0.046000
v -0.117428 0.091718 -0.000286
v -0.657428 0.211718 0.059714
v -0.117566 0.085859 0.010186
v -0.657566 0.205859 0.070186
v -0.120138 0.074141 0.010472
v -0.660138 0.194141 0.070472
v -0.122572 0.068282 0.000286
v -0.662572 0.188282 0.060286
v -0.122434 0.074141 -0.010186
v -0.662434 0.194141 0.049814
v -0.119862 0.085859 -0.010472
v -0.659862 0.205859 0.049528
v -0.660000 0.212000 0.060000
v -0.660000 0.206000 0.070392
v -0.660000 0.194000 0.070392
v -0.660000 0.188000 0.060000
v -0.664243 0.210392 0.064243
v -0.667349 0.206000 0.067349
v -0.668485 0.200000 0.068485
v -0.667349 0.194000 0.067349
v -0.664243 0.189608 0.064243
v -0.666000 0.210392 0.060000
v -0.670392 0.206000 0.060000
v -0.672000 0.200000 0.060000
v -0.670392 0.194000 0.060000
v -0.666000 0.189608 0.060000
v -0.664243 0.210392 0.055757
v -0.667349 0.206000 0.052652
v -0.668485 0.200000 0.051515
v -0.667349 0.194000 0.052652
v -0.664243 0.189608 0.055757
v -0.660000 0.210392 0.054000
v -0.660000 0.206000 0.049608
v -0.660000 0.200000 0.048000
v -0.660000 0.194000 0.049608
v -0.660000 0.189608 0.054000
v -0.655757 0.210392 0.055757
v -0.652652 0.206000 0.052652
v -0.651515 0.200000 0.051515
v -0.652652 0.194000 0.052652
v -0.655757 0.189608 0.055757
v -0.654000 0.210392 0.060000
v -0.649608 0.206000 0.060000
v -0.648000 0.200000 0.060000
v -0.649608 0.194000 0.060000
v -0.654000 0.189608 0.060000
v -0.655757 0.210392 0.064243
v -0.652652 0.206000 0.067349
v -0.651515 0.200000 0.068485
v -0.652652 0.194000 0.067349
v -0.655757 0.189608 0.064243
v -0.660000 0.210392 0.066000
v -0.660000 0.200000 0.072000
v -0.660000 0.189608 0.066000
v -0.122406 0.091754 0.000249
v -0.702406 -0.028246 0.060249
v -0.120134 0.085877 0.010462
v -0.700134 -0.034123 0.070462
v -0.117728 0.074123 0.010213
v -0.697728 -0.045877 0.070213
v -0.117594 0.068246 -0.000249
v -0.697594 -0.051754 0.059751
v -0.119866 0.074123 -0.010462
v -0.699866 -0.045877 0.049538
v -0.122272 0.085877 -0.010213
v -0.702272 -0.034123 0.049787
v -0.700000 -0.028000 0.060000
v -0.700000 -0.034000 0.070392
v -0.700000 -0.046000 0.070392
v -0.700000 -0.052000 0.060000
v -0.704243 -0.029608 0.064243
v -0.707348 -0.034000 0.067349
v -0.708485 -0.040000 0.068485
v -0.707348 -0.046000 0.067349
v -0.704243 -0.050392 0.064243
v -0.706000 -0.029608 0.060000
v -0.710392 -0.034000 0.060000
v -0.712000 -0.040000 0.060000
v -0.710392 -0.046000 0.060000
v -0.706000 -0.050392 0.060000
v -0.704243 -0.029608 0.055757
v -0.707348 -0.034000 0.052652
v -0.708485 -0.040000 0.051515
v -0.707348 -0.046000 0.052652
v -0.704243 -0.050392 0.055757
v -0.700000 -0.029608 0.054000
v -0.700000 -0.034000 0.049608
v -0.700000 -0.040000 0.048000
v -0.700000 -0.046000 0.049608
v -0.700000 -0.050392 0.054000
v -0.695757 -0.029608 0.055757
v -0.692652 -0.034000 0.052652
v -0.691515 -0.040000 0.051515
v -0.692652 -0.046000 0.052652
v -0.695757 -0.050392 0.055757
v -0.694000 -0.029608 0.060000
v -0.689608 -0.034000 0.060000
v -0.688000 -0.040000 0.060000
v -0.689608 -0.046000 0.060000
v -0.694000 -0.050392 0.060000
v -0.695757 -0.029608 0.064243
v -0.692652 -0.034000 0.067349
v -0.691515 -0.040000 0.068485
v -0.692652 -0.046000 0.067349
v -0.695757 -0.050392 0.064243
v -0.700000 -0.029608 0.066000
v -0.700000 -0.040000 0.072000
v -0.700000 -0.050392 0.066000
v -0.127141 0.089617 0.000714
v -0.527141 -0.210383 0.040714
v -0.122537 0.084809 0.010698
v -0.522537 -0.215191 0.050698
v -0.115395 0.075191 0.009984
v -0.515395 -0.224809 0.049984
v -0.112859 0.070383 -0.000714
v -0.512859 -0.229617 0.039286
v -0.117463 0.075191 -0.010698
v -0.517463 -0.224809 0.029302
v -0.124605 0.084809 -0.009984
v -0.524605 -0.215191 0.030016
v -0.520000 -0.208000 0.040000
v -0.520000 -0.214000 0.050392
v -0.520000 -0.226000 0.050392
v -0.520000 -0.232000 0.040000
v -0.524243 -0.209608 0.044243
v -0.527348 -0.214000 0.047349
v -0.528485 -0.220000 0.048485
v -0.527348 -0.226000 0.047349
v -0.524243 -0.230392 0.044243
v -0.526000 -0.209608 0.040000
v -0.530392 -0.214000 0.040000
v -0.532000 -0.220000 0.040000
v -0.530392 -0.226000 0.040000
v -0.526000 -0.230392 0.040000
v -0.524243 -0.209608 0.035757
v -0.527348 -0.214000 0.032652
v -0.528485 -0.220000 0.031515
v -0.527348 -0.226000 0.032652
v -0.524243 -0.230392 0.035757
v -0.520000 -0.209608 0.034000
v -0.520000 -0.214000 0.029608
v -0.520000 -0.220000 0.028000
v -0.520000 -0.226000 0.029608
v -0.520000 -0.230392 0.034000
v -0.515757 -0.209608 0.035757
v -0.512652 -0.214000 0.032652
v -0.511515 -0.220000 0.031515
v -0.512652 -0.226000 0.032652
v -0.515757 -0.230392 0.035757
v -0.514000 -0.209608 0.040000
v -0.509608 -0.214000 0.040000
v -0.508000 -0.220000 0.040000
v -0.509608 -0.226000 0.040000
v -0.514000 -0.230392 0.040000
v -0.515757 -0.209608 0.044243
v -0.512652 -0.214000 0.047349
v -0.511515 -0.220000 0.048485
v -0.512652 -0.226000 0.047349
v -0.515757 -0.230392 0.044243
v -0.520000 -0.209608 0.046000
v -0.520000 -0.220000 0.052000
v -0.520000 -0.230392 0.046000
v -0.131167 0.083390 0.002792
v -0.211167 -0.196610 0.022792
v -0.123063 0.081695 0.011478
v -0.203063 -0.198305 0.031478
v -0.111896 0.078305 0.008686
v -0.191896 -0.201695 0.028686
v -0.108833 0.076610 -0.002792
v -0.188833 -0.203390 0.017208
v -0.116937 0.078305 -0.011478
v -0.196937 -0.201695 0.008522
v -0.128104 0.081695 -0.008686
v -0.208104 -0.198305 0.011314
v -0.200000 -0.188000 0.020000
v -0.200000 -0.194000 0.030392
v -0.200000 -0.206000 0.030392
v -0.200000 -0.212000 0.020000
v -0.204243 -0.189608 0.024243
v -0.207348 -0.194000 0.027348
v -0.208485 -0.200000 0.028485
v -0.207348 -0.206000 0.027348
v -0.204243 -0.210392 0.024243
v -0.206000 -0.189608 0.020000
v -0.210392 -0.194000 0.020000
v -0.212000 -0.200000 0.020000
v -0.210392 -0.206000 0.020000
v -0.206000 -0.210392 0.020000
v -0.204243 -0.189608 0.015757
v -0.207348 -0.194000 0.012652
v -0.208485 -0.200000 0.011515
v -0.207348 -0.206000 0.012652
v -0.204243 -0.210392 0.015757
v -0.200000 -0.189608 0.014000
v -0.200000 -0.194000 0.009608
v -0.200000 -0.200000 0.008000
v -0.200000 -0.206000 0.009608
v -0.200000 -0.210392 0.014000
v -0.195757 -0.189608 0.015757
v -0.192652 -0.194000 0.012652
v -0.191515 -0.200000 0.011515
v -0.192652 -0.206000 0.012652
v -0.195757 -0.210392 0.015757
v -0.194000 -0.189608 0.020000
v -0.189608 -0.194000 0.020000
v -0.188000 -0.200000 0.020000
v -0.189608 -0.206000 0.020000
v -0.194000 -0.210392 0.020000
v -0.195757 -0.189608 0.024243
v -0.192652 -0.194000 0.027348
v -0.191515 -0.200000 0.028485
v -0.192652 -0.206000 0.027348
v -0.195757 -0.210392 0.024243
v -0.200000 -0.189608 0.026000
v -0.200000 -0.200000 0.032000
v -0.200000 -0.210392 0.026000
v -0.067914 -0.156703 -0.015827
v -0.077914 -0.276703 -0.035827
v -0.077900 -0.158351 -0.000942
v -0.087900 -0.278351 -0.020942
v -0.069986 -0.161649 0.014885
v -0.079986 -0.281649 -0.005115
v -0.052086 -0.163297 0.015827
v -0.062086 -0.283297 -0.004173
v -0.042100 -0.161649 0.000942
v -0.052100 -0.281649 -0.019058
v -0.050014 -0.158351 -0.014885
v -0.060014 -0.278351 -0.034885
v -0.070000 -0.262000 -0.020000
v -0.070000 -0.264412 -0.011000
v -0.070000 -0.271000 -0.004412
v -0.070000 -0.280000 -0.002000
v -0.070000 -0.289000 -0.004412
v -0.070000 -0.295588 -0.011000
v -0.070000 -0.298000 -0.020000
v -0.076364 -0.264412 -0.013636
v -0.081023 -0.271000 -0.008977
v -0.082728 -0.280000 -0.007272
v -0.081023 -0.289000 -0.008977
v -0.076364 -0.295588 -0.013636
v -0.079000 -0.264412 -0.020000
v -0.085588 -0.271000 -0.020000
v -0.088000 -0.280000 -0.020000
v -0.085588 -0.289000 -0.020000
v -0.079000 -0.295588 -0.020000
v -0.076364 -0.264412 -0.026364
v -0.081023 -0.271000 -0.031023
v -0.082728 -0.280000 -0.032728
v -0.081023 -0.289000 -0.031023
v -0.076364 -0.295588 -0.026364
v -0.070000 -0.264412 -0.029000
v -0.070000 -0.271000 -0.035588
v -0.070000 -0.280000 -0.038000
v -0.070000 -0.289000 -0.035588
v -0.070000 -0.295588 -0.029000
v -0.063636 -0.264412 -0.026364
v -0.058977 -0.271000 -0.031023
v -0.057272 -0.280000 -0.032728
v -0.058977 -0.289000 -0.031023
v -0.063636 -0.295588 -0.026364
v -0.061000 -0.264412 -0.020000
v -0.054412 -0.271000 -0.020000
v -0.052000 -0.280000 -0.020000
v -0.054412 -0.289000 -0.020000
v -0.061000 -0.295588 -0.020000
v -0.063636 -0.264412 -0.013636
v -0.058977 -0.271000 -0.008977
v -0.057272 -0.280000 -0.007272
v -0.058977 -0.289000 -0.008977
v -0.063636 -0.295588 -0.013636
v -0.000000 0.252000 -0.120000
v -0.000000 0.249564 -0.107754
v -0.000000 0.232246 -0.090436
v -0.000000 0.220000 -0.088000
v -0.000000 0.190436 -0.107754
v -0.000000 0.188000 -0.120000
v -0.009184 0.249564 -0.109395
v -0.016971 0.242627 -0.100404
v -0.022173 0.232246 -0.094397
v -0.024000 0.220000 -0.092287
v -0.022173 0.207754 -0.094397
v -0.016971 0.197373 -0.100404
v -0.009184 0.190436 -0.109395
v -0.015908 0.249564 -0.113877
v -0.029394 0.242627 -0.108686
v -0.038405 0.232246 -0.105218
v -0.041569 0.220000 -0.104000
v -0.038405 0.207754 -0.105218
v -0.029394 0.197373 -0.108686
v -0.015908 0.190436 -0.113877
v -0.018369 0.249564 -0.120000
v -0.033941 0.242627 -0.120000
v -0.044346 0.232246 -0.120000
v -0.048000 0.220000 -0.120000
v -0.044346 0.207754 -0.120000
v -0.033941 0.197373 -0.120000
v -0.018369 0.190436 -0.120000
v -0.015908 0.249564 -0.126123
v -0.029394 0.242627 -0.131314
v -0.038405 0.232246 -0.134782
v -0.041569 0.220000 -0.136000
v -0.038405 0.207754 -0.134782
v -0.029394 0.197373 -0.131314
v -0.015908 0.190436 -0.126123
v -0.009184 0.249564 -0.130605
v -0.016971 0.242627 -0.139596
v -0.022173 0.232246 -0.145603
v -0.024000 0.220000 -0.147713
v -0.022173 0.207754 -0.145603
v -0.016971 0.197373 -0.139596
v -0.009184 0.190436 -0.130605
v -0.000000 0.249564 -0.132246
v -0.000000 0.242627 -0.142627
v -0.000000 0.232246 -0.149564
v -0.000000 0.220000 -0.152000
v -0.000000 0.207754 -0.149564
v -0.000000 0.197373 -0.142627
v -0.000000 0.190436 -0.132246
v 0.009184 0.249564 -0.130605
v 0.016971 0.242627 -0.139596
v 0.022173 0.232246 -0.145603
v 0.024000 0.220000 -0.147713
v 0.022173 0.207754 -0.145603
v 0.016971 0.197373 -0.139596
v 0.009184 0.190436 -0.130605
v 0.015908 0.249564 -0.126123
v 0.029394 0.242627 -0.131314
v 0.038405 0.232246 -0.134782
v 0.041569 0.220000 -0.136000
v 0.038405 0.207754 -0.134782
v 0.029394 0.197373 -0.131314
v 0.015908 0.190436 -0.126123
v 0.018369 0.249564 -0.120000
v 0.033941 0.242627 -0.120000
v 0.044346 0.232246 -0.120000
v 0.048000 0.220000 -0.120000
v 0.044346 0.207754 -0.120000
v 0.033941 0.197373 -0.120000
v 0.018369 0.190436 -0.120000
v 0.015908 0.249564 -0.113877
v 0.029394 0.242627 -0.108686
v 0.038405 0.232246 -0.105218
v 0.041569 0.220000 -0.104000
v 0.038405 0.207754 -0.105218
v 0.029394 0.197373 -0.108686
v 0.015908 0.190436 -0.113877
v 0.009184 0.249564 -0.109395
v 0.016971 0.242627 -0.100404
v 0.022173 0.232246 -0.094397
v 0.024000 0.220000 -0.092287
v 0.022173 0.207754 -0.094397
v 0.016971 0.197373 -0.100404
v 0.009184 0.190436 -0.109395
v -0.000000 0.242627 -0.097373
v -0.000000 0.207754 -0.090436
v -0.000000 0.197373 -0.097373
vn 0.1028 -0.0343 0.9941
vn 0.1065 -0.0178 0.9942
vn 0.1042 -0.0063 0.9945
vn 0.0589 0.0544 0.9968
vn -0.1028 0.0342 -0.9941
vn -0.1065 0.0178 -0.9942
vn -0.1042 0.0063 -0.9945
vn -0.0590 -0.0542 -0.9968
vn 0.6505 0.7577 -0.0514
vn -0.4978 0.8638 0.0771
vn -0.9808 0.1634 0.1069
vn -0.7018 -0.7091 0.0686
vn 0.9588 -0.2769 -0.0634
vn 0.0626 -0.9977 0.0270
vn -0.0000 0.5807 0.8141
vn -0.0000 0.8582 0.5134
vn -0.2330 0.8622 0.4498
vn -0.3761 0.5888 0.7155
vn -0.0000 -0.8582 0.5134
vn -0.0000 -0.5807 0.8141
vn -0.3761 -0.5888 0.7155
vn -0.2330 -0.8622 0.4498
vn -0.0000 -0.2849 0.9586
vn -0.0000 -0.0000 1.0000
vn -0.4676 -0.0000 0.8839
vn -0.4470 -0.2908 0.8460
vn -0.0000 0.2849 0.9586
vn -0.4470 0.2908 0.8460
vn -0.0000 1.0000 -0.0000
vn -0.0000 -1.0000 -0.0000
vn -0.8464 -0.0000 0.5325
vn -0.8062 -0.3033 0.5080
vn -0.6720 0.6057 0.4260
vn -0.8062 0.3033 0.5080
vn -0.4137 0.8706 0.2663
vn -0.4137 -0.8706 0.2663
vn -0.6720 -0.6057 0.4260
vn -0.4842 -0.8749 -0.0000
vn -0.9508 -0.3099 -0.0000
vn -0.7889 -0.6145 -0.0000
vn -0.9508 0.3099 -0.0000
vn -1.0000 -0.0000 -0.0000
vn -0.4842 0.8749 -0.0000
vn -0.7889 0.6145 -0.0000
vn -0.8062 0.3033 -0.5080
vn -0.8464 -0.0000 -0.5325
vn -0.4137 0.8706 -0.2663
vn -0.6720 0.6057 -0.4260
vn -0.6720 -0.6057 -0.4260
vn -0.4137 -0.8706 -0.2663
vn -0.8062 -0.3033 -0.5080
vn -0.3761 -0.5888 -0.7155
vn -0.2330 -0.8622 -0.4498
vn -0.4676 -0.0000 -0.8839
vn -0.4470 -0.2908 -0.8460
vn -0.3761 0.5888 -0.7155
vn -0.4470 0.2908 -0.8460
vn -0.2330 0.8622 -0.4498
vn -0.0000 0.5807 -0.8141
vn -0.0000 0.2849 -0.9586
vn -0.0000 0.8582 -0.5134
vn -0.0000 -0.8582 -0.5134
vn -0.0000 -0.2849 -0.9586
vn -0.0000 -0.5807 -0.8141
vn -0.0000 -0.0000 -1.0000
vn 0.2330 -0.8622 -0.4498
vn 0.4470 -0.2908 -0.8460
vn 0.3761 -0.5888 -0.7155
vn 0.4470 0.2908 -0.8460
vn 0.4676 -0.0000 -0.8839
vn 0.2330 0.8622 -0.4498
vn 0.3761 0.5888 -0.7155
vn 0.4137 0.8706 -0.2663
vn 0.6720 0.6057 -0.4260
vn 0.6720 -0.6057 -0.4260
vn 0.4137 -0.8706 -0.2663
vn 0.8464 -0.0000 -0.5325
vn 0.8062 -0.3033 -0.5080
vn 0.8062 0.3033 -0.5080
vn 0.7889 -0.6145 -0.0000
vn 0.4842 -0.8749 -0.0000
vn 1.0000 -0.0000 -0.0000
vn 0.9508 -0.3099 -0.0000
vn 0.7889 0.6145 -0.0000
vn 0.9508 0.3099 -0.0000
vn 0.4842 0.8749 -0.0000
vn 0.4137 0.8706 0.2663
vn 0.4137 -0.8706 0.2663
vn 0.8062 -0.3033 0.5080
vn 0.6720 -0.6057 0.4260
vn 0.8062 0.3033 0.5080
vn 0.8464 -0.0000 0.5325
vn 0.6720 0.6057 0.4260
vn 0.4470 -0.2908 0.8460
vn 0.3761 -0.5888 0.7155
vn 0.4470 0.2908 0.8460
vn 0.4676 -0.0000 0.8839
vn 0.2330 0.8622 0.4498
vn 0.3761 0.5888 0.7155
vn 0.2330 -0.8622 0.4498
vn -0.0000 -0.9197 0.3927
vn -0.0000 -0.7086 0.7056
vn -0.3392 -0.7120 0.6148
vn -0.1872 -0.9210 0.3418
vn -0.0000 -0.3871 0.9220
vn -0.4853 -0.0000 0.8744
vn -0.4462 -0.3904 0.8053
vn -0.0000 0.3871 0.9220
vn -0.0000 0.7086 0.7056
vn -0.3392 0.7120 0.6148
vn -0.4462 0.3904 0.8053
vn -0.0000 0.9197 0.3927
vn -0.1872 0.9210 0.3418
vn -0.5949 0.7190 0.3594
vn -0.7865 0.3971 0.4730
vn -0.3276 0.9236 0.1993
vn -0.3276 -0.9236 0.1993
vn -0.7865 -0.3971 0.4730
vn -0.5949 -0.7190 0.3594
vn -0.8574 -0.0000 0.5147
vn -0.3802 -0.9249 -0.0000
vn -0.9163 -0.4005 -0.0000
vn -0.6913 -0.7225 -0.0000
vn -0.9163 0.4005 -0.0000
vn -0.3802 0.9249 -0.0000
vn -0.6913 0.7225 -0.0000
vn -0.3276 0.9236 -0.1993
vn -0.5949 0.7190 -0.3594
vn -0.5949 -0.7190 -0.3594
vn -0.3276 -0.9236 -0.1993
vn -0.8574 -0.0000 -0.5147
vn -0.7865 -0.3971 -0.4730
vn -0.7865 0.3971 -0.4730
vn -0.3392 -0.7120 -0.6148
vn -0.1872 -0.9210 -0.3418
vn -0.4853 -0.0000 -0.8744
vn -0.4462 -0.3904 -0.8053
vn -0.3392 0.7120 -0.6148
vn -0.4462 0.3904 -0.8053
vn -0.1872 0.9210 -0.3418
vn -0.0000 0.9197 -0.3927
vn -0.0000 -0.9197 -0.3927
vn -0.0000 -0.3871 -0.9220
vn -0.0000 -0.7086 -0.7056
vn -0.0000 0.3871 -0.9220
vn -0.0000 0.7086 -0.7056
vn 0.4462 -0.3904 -0.8053
vn 0.3392 -0.7120 -0.6148
vn 0.4462 0.3904 -0.8053
vn 0.4853 -0.0000 -0.8744
vn 0.1872 0.9210 -0.3418
vn 0.3392 0.7120 -0.6148
vn 0.1872 -0.9210 -0.3418
vn 0.5949 -0.7190 -0.3594
vn 0.3276 -0.9236 -0.1993
vn 0.8574 -0.0000 -0.5147
vn 0.7865 -0.3971 -0.4730
vn 0.5949 0.7190 -0.3594
vn 0.7865 0.3971 -0.4730
vn 0.3276 0.9236 -0.1993
vn 0.9163 -0.4005 -0.0000
vn 0.6913 0.7225 -0.0000
vn 0.9163 0.4005 -0.0000
vn 0.3802 0.9249 -0.0000
vn 0.3802 -0.9249 -0.0000
vn 0.6913 -0.7225 -0.0000
vn 0.3276 -0.9236 0.1993
vn 0.7865 -0.3971 0.4730
vn 0.5949 -0.7190 0.3594
vn 0.7865 0.3971 0.4730
vn 0.8574 -0.0000 0.5147
vn 0.3276 0.9236 0.1993
vn 0.5949 0.7190 0.3594
vn 0.4462 0.3904 0.8053
vn 0.4853 -0.0000 0.8744
vn 0.1872 0.9210 0.3418
vn 0.3392 0.7120 0.6148
vn 0.3392 -0.7120 0.6148
vn 0.1872 -0.9210 0.3418
vn 0.4462 -0.3904 0.8053
vn -0.2597 0.3868 0.8849
vn -0.7527 0.5469 0.3665
vn -0.7527 0.5469 -0.3665
vn -0.2597 0.3868 -0.8849
vn 0.4374 0.1602 -0.8849
vn 0.9304 0.0001 -0.3665
vn -0.3090 -0.9511 -0.0000
vn 0.9304 0.0001 0.3665
vn 0.4374 0.1602 0.8849
vn -0.0000 -0.8383 0.5452
vn -0.3855 -0.8383 0.3855
vn -0.0000 -0.4744 0.8803
vn -0.7071 -0.0000 0.7071
vn -0.6225 -0.4744 0.6225
vn -0.0000 0.4744 0.8803
vn -0.0000 0.8383 0.5452
vn -0.3855 0.8383 0.3855
vn -0.6225 0.4744 0.6225
vn -0.5452 0.8383 -0.0000
vn -0.8803 0.4744 -0.0000
vn -0.8803 -0.4744 -0.0000
vn -0.5452 -0.8383 -0.0000
vn -0.6225 -0.4744 -0.6225
vn -0.3855 -0.8383 -0.3855
vn -0.6225 0.4744 -0.6225
vn -0.7071 -0.0000 -0.7071
vn -0.3855 0.8383 -0.3855
vn -0.0000 -0.4744 -0.8803
vn -0.0000 -0.8383 -0.5452
vn -0.0000 0.4744 -0.8803
vn -0.0000 0.8383 -0.5452
vn 0.6225 -0.4744 -0.6225
vn 0.3855 -0.8383 -0.3855
vn 0.6225 0.4744 -0.6225
vn 0.7071 -0.0000 -0.7071
vn 0.3855 0.8383 -0.3855
vn 0.8803 -0.4744 -0.0000
vn 0.5452 -0.8383 -0.0000
vn 0.8803 0.4744 -0.0000
vn 0.5452 0.8383 -0.0000
vn 0.6225 0.4744 0.6225
vn 0.7071 -0.0000 0.7071
vn 0.3855 0.8383 0.3855
vn 0.3855 -0.8383 0.3855
vn 0.6225 -0.4744 0.6225
vn -0.5770 -0.1906 -0.7942
vn -0.9336 -0.1906 0.3034
vn -0.0000 -0.1906 0.9817
vn 0.9336 -0.1906 0.3034
vn 0.5770 -0.1906 -0.7942
vn 0.1028 0.0343 -0.9941
vn 0.1065 0.0178 -0.9942
vn 0.1042 0.0063 -0.9945
vn 0.0589 -0.0544 -0.9968
vn -0.1029 -0.0343 0.9941
vn -0.1065 -0.0178 0.9942
vn -0.1042 -0.0063 0.9945
vn -0.0588 0.0545 0.9968
vn -0.6498 0.7584 -0.0514
vn 0.4973 0.8641 0.0770
vn 0.9807 0.1635 0.1069
vn 0.7014 -0.7094 0.0686
vn -0.9580 -0.2798 -0.0633
vn -0.0655 -0.9975 0.0267
vn -0.9705 0.2036 -0.1294
vn -0.0532 0.9986 -0.0071
vn 0.2934 0.6980 -0.6532
vn -0.6239 -0.0970 -0.7755
vn 0.8053 0.0970 -0.5849
vn -0.1120 -0.6980 -0.7073
vn 0.9705 -0.2036 0.1294
vn 0.0532 -0.9986 0.0071
vn 0.6239 0.0970 0.7755
vn -0.2934 -0.6980 0.6532
vn 0.1120 0.6980 0.7073
vn -0.8053 -0.0970 0.5849
vn -0.7618 0.6422 -0.0847
vn 0.4222 0.9053 0.0469
vn 0.5829 0.5184 -0.6257
vn -0.6011 0.2553 -0.7573
vn 0.7527 -0.2553 -0.6068
vn -0.4313 -0.5184 -0.7384
vn 0.7618 -0.6422 0.0847
vn -0.4222 -0.9053 -0.0469
vn 0.6011 -0.2553 0.7573
vn -0.5829 -0.5184 0.6257
vn 0.4313 0.5184 0.7384
vn -0.7527 0.2553 0.6068
vn -0.4354 0.8991 -0.0450
vn 0.7532 0.6532 0.0779
vn 0.7444 0.2651 -0.6129
vn -0.4443 0.5110 -0.7359
vn 0.5855 -0.5110 -0.6293
vn -0.6031 -0.2651 -0.7523
vn 0.4354 -0.8991 0.0450
vn -0.7532 -0.6532 -0.0779
vn 0.4442 -0.5110 0.7359
vn -0.7444 -0.2651 0.6129
vn 0.6031 0.2651 0.7523
vn -0.5855 0.5110 0.6293
vn -0.0149 0.9999 -0.0015
vn 0.9580 0.2702 0.0958
vn 0.7905 -0.0473 -0.6106
vn -0.1824 0.6824 -0.7079
vn 0.3189 -0.6824 -0.6578
vn -0.6539 0.0473 -0.7551
vn 0.0149 -0.9999 0.0015
vn -0.9580 -0.2702 -0.0958
vn 0.1824 -0.6824 0.7079
vn -0.7905 0.0473 0.6106
vn 0.6539 -0.0473 0.7551
vn -0.3189 0.6824 0.6578
vn 0.5702 0.8090 0.1426
vn 0.9046 -0.3613 0.2262
vn 0.7023 -0.4732 -0.5318
vn 0.3680 0.6971 -0.6154
vn -0.0351 -0.6971 -0.7161
vn -0.3695 0.4732 -0.7997
vn -0.5702 -0.8090 -0.1426
vn -0.9046 0.3613 -0.2262
vn -0.3680 -0.6971 0.6154
vn -0.7023 0.4732 0.5318
vn 0.3695 -0.4732 0.7997
vn 0.0351 0.6971 0.7161
vn 0.2984 0.7448 -0.5968
vn 0.3984 -0.4545 -0.7967
vn -0.3896 -0.5271 -0.7552
vn -0.4896 0.6723 -0.5553
vn -0.7380 -0.6723 -0.0585
vn -0.8380 0.5271 0.1414
vn -0.2984 -0.7448 0.5968
vn -0.3983 0.4545 0.7967
vn 0.4896 -0.6723 0.5553
vn 0.3896 0.5271 0.7552
vn 0.8380 -0.5271 -0.1414
vn 0.7380 0.6723 0.0585
vn -0.4374 0.1602 0.8849
vn -0.9304 0.0001 0.3665
vn -0.9304 0.0001 -0.3665
vn -0.4374 0.1602 -0.8849
vn 0.2597 0.3868 -0.8849
vn 0.7527 0.5469 -0.3665
vn 0.3090 -0.9511 -0.0000
vn 0.7527 0.5469 0.3665
vn 0.2597 0.3868 0.8849
vn 0.9705 0.2036 -0.1294
vn 0.0532 0.9986 -0.0071
vn -0.1120 0.6980 0.7073
vn 0.8053 -0.0970 0.5849
vn -0.6239 0.0970 0.7755
vn 0.2934 -0.6980 0.6532
vn -0.9705 -0.2036 0.1294
vn -0.0532 -0.9986 0.0071
vn -0.8053 0.0970 -0.5849
vn 0.1120 -0.6980 -0.7073
vn -0.2934 0.6980 -0.6532
vn 0.6239 -0.0970 -0.7755
vn 0.7618 0.6422 -0.0847
vn -0.4222 0.9053 0.0469
vn -0.4313 0.5184 0.7384
vn 0.7527 0.2553 0.6068
vn -0.6011 -0.2553 0.7573
vn 0.5829 -0.5184 0.6257
vn -0.7618 -0.6422 0.0846
vn 0.4222 -0.9053 -0.0469
vn -0.7527 -0.2553 -0.6068
vn 0.4313 -0.5184 -0.7384
vn -0.5829 0.5184 -0.6257
vn 0.6011 0.2553 -0.7573
vn 0.4354 0.8991 -0.0450
vn -0.7532 0.6532 0.0779
vn -0.6031 0.2651 0.7523
vn 0.5855 0.5110 0.6293
vn -0.4442 -0.5110 0.7359
vn 0.7444 -0.2651 0.6129
vn -0.4354 -0.8991 0.0450
vn 0.7532 -0.6532 -0.0779
vn -0.5855 -0.5110 -0.6293
vn 0.6031 -0.2651 -0.7523
vn -0.7444 0.2651 -0.6129
vn 0.4443 0.5110 -0.7359
vn 0.0149 0.9999 -0.0015
vn -0.9580 0.2702 0.0958
vn -0.6539 -0.0473 0.7551
vn 0.3189 0.6824 0.6578
vn -0.1824 -0.6824 0.7079
vn 0.7905 0.0473 0.6106
vn -0.0149 -0.9999 0.0015
vn 0.9580 -0.2702 -0.0958
vn -0.3189 -0.6824 -0.6578
vn 0.6539 0.0473 -0.7551
vn -0.7905 -0.0473 -0.6106
vn 0.1824 0.6824 -0.7079
vn -0.5702 0.8090 0.1426
vn -0.9046 -0.3613 0.2262
vn -0.3695 -0.4732 0.7997
vn -0.0351 0.6971 0.7161
vn 0.3680 -0.6971 0.6154
vn 0.7023 0.4732 0.5318
vn 0.5702 -0.8090 -0.1426
vn 0.9046 0.3613 -0.2262
vn 0.0351 -0.6971 -0.7161
vn 0.3695 0.4732 -0.7997
vn -0.7023 -0.4732 -0.5318
vn -0.3680 0.6971 -0.6154
vn -0.2984 0.7448 -0.5968
vn -0.3984 -0.4545 -0.7967
vn -0.8380 -0.5271 -0.1414
vn -0.7380 0.6723 0.0585
vn -0.4896 -0.6723 0.5553
vn -0.3896 0.5271 0.7552
vn 0.2984 -0.7448 0.5968
vn 0.3983 0.4545 0.7967
vn 0.7380 -0.6723 -0.0585
vn 0.8380 0.5271 0.1414
vn 0.3896 -0.5271 -0.7552
vn 0.4896 0.6723 -0.5553
vn -0.0000 -0.9160 0.4011
vn -0.1329 -0.9240 0.3585
vn -0.0000 -0.6963 0.7177
vn -0.0000 -0.3752 0.9270
vn -0.3459 -0.3989 0.8493
vn -0.2539 -0.7200 0.6459
vn -0.0000 0.3752 0.9270
vn -0.3459 0.3989 0.8493
vn -0.3815 -0.0000 0.9244
vn -0.0000 0.6963 0.7177
vn -0.0000 0.9160 0.4011
vn -0.1329 0.9240 0.3585
vn -0.2539 0.7200 0.6459
vn -0.2493 0.9422 0.2240
vn -0.4836 0.7733 0.4100
vn -0.4836 -0.7733 0.4100
vn -0.2493 -0.9422 0.2240
vn -0.7851 -0.0000 0.6194
vn -0.6927 -0.4555 0.5592
vn -0.6927 0.4555 0.5592
vn -0.5944 -0.8042 -0.0000
vn -0.3035 -0.9528 -0.0000
vn -0.8726 -0.4884 -0.0000
vn -0.5944 0.8042 -0.0000
vn -0.8726 0.4884 -0.0000
vn -0.3035 0.9528 -0.0000
vn -0.2493 0.9422 -0.2240
vn -0.2493 -0.9422 -0.2240
vn -0.6927 -0.4555 -0.5592
vn -0.4836 -0.7733 -0.4100
vn -0.6927 0.4555 -0.5592
vn -0.7851 -0.0000 -0.6194
vn -0.4836 0.7733 -0.4100
vn -0.3459 -0.3989 -0.8493
vn -0.2539 -0.7200 -0.6459
vn -0.3459 0.3989 -0.8493
vn -0.3815 -0.0000 -0.9244
vn -0.1329 0.9240 -0.3585
vn -0.2539 0.7200 -0.6459
vn -0.1329 -0.9240 -0.3585
vn -0.0000 -0.6963 -0.7177
vn -0.0000 -0.9160 -0.4011
vn -0.0000 -0.3752 -0.9270
vn -0.0000 0.6963 -0.7177
vn -0.0000 0.3752 -0.9270
vn -0.0000 0.9160 -0.4011
vn 0.3815 -0.0000 -0.9244
vn 0.3459 -0.3989 -0.8493
vn 0.2539 0.7200 -0.6459
vn 0.3459 0.3989 -0.8493
vn 0.1329 0.9240 -0.3585
vn 0.1329 -0.9240 -0.3585
vn 0.2539 -0.7200 -0.6459
vn 0.2493 -0.9422 -0.2240
vn 0.6927 -0.4555 -0.5592
vn 0.4836 -0.7733 -0.4100
vn 0.6927 0.4555 -0.5592
vn 0.7851 -0.0000 -0.6194
vn 0.2493 0.9422 -0.2240
vn 0.4836 0.7733 -0.4100
vn 0.8726 0.4884 -0.0000
vn 0.3035 0.9528 -0.0000
vn 0.5944 0.8042 -0.0000
vn 0.5944 -0.8042 -0.0000
vn 0.3035 -0.9528 -0.0000
vn 0.8726 -0.4884 -0.0000
vn 0.4836 -0.7733 0.4100
vn 0.2493 -0.9422 0.2240
vn 0.7851 -0.0000 0.6194
vn 0.6927 -0.4555 0.5592
vn 0.4836 0.7733 0.4100
vn 0.6927 0.4555 0.5592
vn 0.2493 0.9422 0.2240
vn 0.2539 0.7200 0.6459
vn 0.3459 0.3989 0.8493
vn 0.1329 0.9240 0.3585
vn 0.1329 -0.9240 0.3585
vn 0.3459 -0.3989 0.8493
vn 0.2539 -0.7200 0.6459
vn 0.3815 -0.0000 0.9244
s 0
usemtl KB_Membran
f 1//1 2//1 3//1
f 1//2 3//2 4//2
f 1//3 4//3 5//3
f 1//4 5//4 6//4
f 7//5 9//5 8//5
f 7//6 10//6 9//6
f 7//7 11//7 10//7
f 7//8 12//8 11//8
f 2//9 1//9 7//9 8//9
f 3//10 2//10 8//10 9//10
f 4//11 3//11 9//11 10//11
f 5//12 4//12 10//12 11//12
f 1//13 6//13 12//13 7//13
f 6//14 5//14 11//14 12//14
f 242//231 243//231 244//231
f 242//232 244//232 245//232
f 242//233 245//233 246//233
f 242//234 246//234 247//234
f 248//235 250//235 249//235
f 248//236 251//236 250//236
f 248//237 252//237 251//237
f 248//238 253//238 252//238
f 243//239 242//239 248//239 249//239
f 244//240 243//240 249//240 250//240
f 245//241 244//241 250//241 251//241
f 246//242 245//242 251//242 252//242
f 242//243 247//243 253//243 248//243
f 247//244 246//244 252//244 253//244
s 1
usemtl KB_Bulu
f 96//15 14//16 19//17 20//18
f 17//19 98//20 24//21 25//22
f 97//23 16//24 22//25 23//26
f 15//27 96//15 20//18 21//28
f 14//16 13//29 19//17
f 18//30 17//19 25//22
f 98//20 97//23 23//26 24//21
f 16//24 15//27 21//28 22//25
f 23//26 22//25 29//31 30//32
f 21//28 20//18 27//33 28//34
f 19//17 13//29 26//35
f 18//30 25//22 32//36
f 24//21 23//26 30//32 31//37
f 22//25 21//28 28//34 29//31
f 20//18 19//17 26//35 27//33
f 25//22 24//21 31//37 32//36
f 18//30 32//36 39//38
f 31//37 30//32 37//39 38//40
f 29//31 28//34 35//41 36//42
f 27//33 26//35 33//43 34//44
f 32//36 31//37 38//40 39//38
f 30//32 29//31 36//42 37//39
f 28//34 27//33 34//44 35//41
f 26//35 13//29 33//43
f 36//42 35//41 42//45 43//46
f 34//44 33//43 40//47 41//48
f 39//38 38//40 45//49 46//50
f 37//39 36//42 43//46 44//51
f 35//41 34//44 41//48 42//45
f 33//43 13//29 40//47
f 18//30 39//38 46//50
f 38//40 37//39 44//51 45//49
f 46//50 45//49 52//52 53//53
f 44//51 43//46 50//54 51//55
f 42//45 41//48 48//56 49//57
f 40//47 13//29 47//58
f 18//30 46//50 53//53
f 45//49 44//51 51//55 52//52
f 43//46 42//45 49//57 50//54
f 41//48 40//47 47//58 48//56
f 49//57 48//56 55//59 56//60
f 47//58 13//29 54//61
f 18//30 53//53 60//62
f 52//52 51//55 58//63 59//64
f 50//54 49//57 56//60 57//65
f 48//56 47//58 54//61 55//59
f 53//53 52//52 59//64 60//62
f 51//55 50//54 57//65 58//63
f 18//30 60//62 67//66
f 59//64 58//63 65//67 66//68
f 57//65 56//60 63//69 64//70
f 55//59 54//61 61//71 62//72
f 60//62 59//64 66//68 67//66
f 58//63 57//65 64//70 65//67
f 56//60 55//59 62//72 63//69
f 54//61 13//29 61//71
f 62//72 61//71 68//73 69//74
f 67//66 66//68 73//75 74//76
f 65//67 64//70 71//77 72//78
f 63//69 62//72 69//74 70//79
f 61//71 13//29 68//73
f 18//30 67//66 74//76
f 66//68 65//67 72//78 73//75
f 64//70 63//69 70//79 71//77
f 74//76 73//75 80//80 81//81
f 72//78 71//77 78//82 79//83
f 70//79 69//74 76//84 77//85
f 68//73 13//29 75//86
f 18//30 74//76 81//81
f 73//75 72//78 79//83 80//80
f 71//77 70//79 77//85 78//82
f 69//74 68//73 75//86 76//84
f 75//86 13//29 82//87
f 18//30 81//81 88//88
f 80//80 79//83 86//89 87//90
f 78//82 77//85 84//91 85//92
f 76//84 75//86 82//87 83//93
f 81//81 80//80 87//90 88//88
f 79//83 78//82 85//92 86//89
f 77//85 76//84 83//93 84//91
f 87//90 86//89 93//94 94//95
f 85//92 84//91 91//96 92//97
f 83//93 82//87 89//98 90//99
f 88//88 87//90 94//95 95//100
f 86//89 85//92 92//97 93//94
f 84//91 83//93 90//99 91//96
f 82//87 13//29 89//98
f 18//30 88//88 95//100
f 95//100 94//95 98//20 17//19
f 93//94 92//97 16//24 97//23
f 91//96 90//99 96//15 15//27
f 89//98 13//29 14//16
f 18//30 95//100 17//19
f 94//95 93//94 97//23 98//20
f 92//97 91//96 15//27 16//24
f 90//99 89//98 14//16 96//15
f 101//101 184//102 108//103 109//104
f 183//105 182//24 106//106 107//107
f 181//108 100//109 104//110 105//111
f 180//112 99//29 103//113
f 102//30 101//101 109//104
f 184//102 183//105 107//107 108//103
f 182//24 181//108 105//111 106//106
f 100//109 180//112 103//113 104//110
f 105//111 104//110 111//114 112//115
f 103//113 99//29 110//116
f 102//30 109//104 116//117
f 108//103 107//107 114//118 115//119
f 106//106 105//111 112//115 113//120
f 104//110 103//113 110//116 111//114
f 109//104 108//103 115//119 116//117
f 107//107 106//106 113//120 114//118
f 102//30 116//117 123//121
f 115//119 114//118 121//122 122//123
f 113//120 112//115 119//124 120//42
f 111//114 110//116 117//125 118//126
f 116//117 115//119 122//123 123//121
f 114//118 113//120 120//42 121//122
f 112//115 111//114 118//126 119//124
f 110//116 99//29 117//125
f 118//126 117//125 124//127 125//128
f 123//121 122//123 129//129 130//130
f 121//122 120//42 127//131 128//132
f 119//124 118//126 125//128 126//133
f 117//125 99//29 124//127
f 102//30 123//121 130//130
f 122//123 121//122 128//132 129//129
f 120//42 119//124 126//133 127//131
f 130//130 129//129 136//134 137//135
f 128//132 127//131 134//136 135//137
f 126//133 125//128 132//138 133//139
f 124//127 99//29 131//140
f 102//30 130//130 137//135
f 129//129 128//132 135//137 136//134
f 127//131 126//133 133//139 134//136
f 125//128 124//127 131//140 132//138
f 131//140 99//29 138//141
f 102//30 137//135 144//142
f 136//134 135//137 142//143 143//144
f 134//136 133//139 140//145 141//65
f 132//138 131//140 138//141 139//146
f 137//135 136//134 143//144 144//142
f 135//137 134//136 141//65 142//143
f 133//139 132//138 139//146 140//145
f 143//144 142//143 149//147 150//148
f 141//65 140//145 147//149 148//150
f 139//146 138//141 145//151 146//152
f 144//142 143//144 150//148 151//153
f 142//143 141//65 148//150 149//147
f 140//145 139//146 146//152 147//149
f 138//141 99//29 145//151
f 102//30 144//142 151//153
f 151//153 150//148 157//154 158//155
f 149//147 148//150 155//156 156//157
f 147//149 146//152 153//158 154//159
f 145//151 99//29 152//160
f 102//30 151//153 158//155
f 150//148 149//147 156//157 157//154
f 148//150 147//149 154//159 155//156
f 146//152 145//151 152//160 153//158
f 156//157 155//156 162//82 163//161
f 154//159 153//158 160//162 161//163
f 152//160 99//29 159//164
f 102//30 158//155 165//165
f 157//154 156//157 163//161 164//166
f 155//156 154//159 161//163 162//82
f 153//158 152//160 159//164 160//162
f 158//155 157//154 164//166 165//165
f 102//30 165//165 172//167
f 164//166 163//161 170//168 171//169
f 162//82 161//163 168//170 169//171
f 160//162 159//164 166//172 167//173
f 165//165 164//166 171//169 172//167
f 163//161 162//82 169//171 170//168
f 161//163 160//162 167//173 168//170
f 159//164 99//29 166//172
f 169//171 168//170 175//174 176//175
f 167//173 166//172 173//176 174//177
f 172//167 171//169 178//178 179//179
f 170//168 169//171 176//175 177//180
f 168//170 167//173 174//177 175//174
f 166//172 99//29 173//176
f 102//30 172//167 179//179
f 171//169 170//168 177//180 178//178
f 179//179 178//178 184//102 101//101
f 177//180 176//175 182//24 183//105
f 175//174 174//177 100//109 181//108
f 173//176 99//29 180//112
f 102//30 179//179 101//101
f 178//178 177//180 183//105 184//102
f 176//175 175//174 181//108 182//24
f 174//177 173//176 180//112 100//109
s 0
usemtl KB_Kulit
f 185//181 193//181 186//181
f 186//182 193//182 187//182
f 187//183 193//183 188//183
f 188//184 193//184 189//184
f 189//185 193//185 190//185
f 190//186 193//186 191//186
f 185//187 186//187 187//187 188//187 189//187 190//187 191//187 192//187
f 191//188 193//188 192//188
f 192//189 193//189 185//189
s 1
f 524//305 525//306 527//307 526//308
f 526//308 527//307 529//309 528//310
f 528//310 529//309 531//311 530//312
f 530//312 531//311 533//313 532//314
f 527//307 525//306 535//315 533//313 531//311 529//309
f 532//314 533//313 535//315 534//316
f 534//316 535//315 525//306 524//305
f 524//305 526//308 528//310 530//312 532//314 534//316
f 541//190 540//192 546//194 547//191
f 539//24 538//195 544//198 545//193
f 537//196 536//29 543//197
f 542//30 541//190 547//191
f 540//192 539//24 545//193 546//194
f 538//195 537//196 543//197 544//198
f 543//197 536//29 548//199
f 542//30 547//191 552//202
f 546//194 545//193 550//42 551//201
f 544//198 543//197 548//199 549//200
f 547//191 546//194 551//201 552//202
f 545//193 544//198 549//200 550//42
f 542//30 552//202 557//204
f 551//201 550//42 555//206 556//203
f 549//200 548//199 553//207 554//205
f 552//202 551//201 556//203 557//204
f 550//42 549//200 554//205 555//206
f 548//199 536//29 553//207
f 542//30 557//204 562//209
f 556//203 555//206 560//65 561//208
f 554//205 553//207 558//211 559//210
f 557//204 556//203 561//208 562//209
f 555//206 554//205 559//210 560//65
f 553//207 536//29 558//211
f 542//30 562//209 567//213
f 561//208 560//65 565//215 566//212
f 559//210 558//211 563//216 564//214
f 562//209 561//208 566//212 567//213
f 560//65 559//210 564//214 565//215
f 558//211 536//29 563//216
f 566//212 565//215 570//82 571//217
f 564//214 563//216 568//220 569//219
f 567//213 566//212 571//217 572//218
f 565//215 564//214 569//219 570//82
f 563//216 536//29 568//220
f 542//30 567//213 572//218
f 569//219 568//220 573//223 574//221
f 572//218 571//217 576//225 577//224
f 570//82 569//219 574//221 575//222
f 568//220 536//29 573//223
f 542//30 572//218 577//224
f 571//217 570//82 575//222 576//225
f 577//224 576//225 540//192 541//190
f 575//222 574//221 538//195 539//24
f 573//223 536//29 537//196
f 542//30 577//224 541//190
f 576//225 575//222 539//24 540//192
f 574//221 573//223 537//196 538//195
s 0
f 578//317 586//317 579//317
f 579//318 586//318 580//318
f 580//319 586//319 581//319
f 581//320 586//320 582//320
f 582//321 586//321 583//321
f 583//322 586//322 584//322
f 578//323 579//323 580//323 581//323 582//323 583//323 584//323 585//323
f 584//324 586//324 585//324
f 585//325 586//325 578//325
s 1
f 905//386 906//387 908//388 907//389
f 907//389 908//388 910//390 909//391
f 909//391 910//390 912//392 911//393
f 911//393 912//392 914//394 913//395
f 908//388 906//387 916//396 914//394 912//392 910//390
f 913//395 914//394 916//396 915//397
f 915//397 916//396 906//387 905//386
f 905//386 907//389 909//391 911//393 913//395 915//397
f 922//190 921//192 927//194 928//191
f 920//24 919//195 925//198 926//193
f 918//196 917//29 924//197
f 923//30 922//190 928//191
f 921//192 920//24 926//193 927//194
f 919//195 918//196 924//197 925//198
f 924//197 917//29 929//199
f 923//30 928//191 933//202
f 927//194 926//193 931//42 932//201
f 925//198 924//197 929//199 930//200
f 928//191 927//194 932//201 933//202
f 926//193 925//198 930//200 931//42
f 923//30 933//202 938//204
f 932//201 931//42 936//206 937//203
f 930//200 929//199 934//207 935//205
f 933//202 932//201 937//203 938//204
f 931//42 930//200 935//205 936//206
f 929//199 917//29 934//207
f 923//30 938//204 943//209
f 937//203 936//206 941//65 942//208
f 935//205 934//207 939//211 940//210
f 938//204 937//203 942//208 943//209
f 936//206 935//205 940//210 941//65
f 934//207 917//29 939//211
f 923//30 943//209 948//213
f 942//208 941//65 946//215 947//212
f 940//210 939//211 944//216 945//214
f 943//209 942//208 947//212 948//213
f 941//65 940//210 945//214 946//215
f 939//211 917//29 944//216
f 947//212 946//215 951//82 952//217
f 945//214 944//216 949//220 950//219
f 948//213 947//212 952//217 953//218
f 946//215 945//214 950//219 951//82
f 944//216 917//29 949//220
f 923//30 948//213 953//218
f 950//219 949//220 954//223 955//221
f 953//218 952//217 957//225 958//224
f 951//82 950//219 955//221 956//222
f 949//220 917//29 954//223
f 923//30 953//218 958//224
f 952//217 951//82 956//222 957//225
f 958//224 957//225 921//192 922//190
f 956//222 955//221 919//195 920//24
f 954//223 917//29 918//196
f 923//30 958//224 922//190
f 957//225 956//222 920//24 921//192
f 955//221 954//223 918//196 919//195
f 964//30 963//398 971//399
f 1044//400 1043//401 969//402 970//403
f 962//24 961//404 967//405 968//406
f 1042//407 960//408 965//409 966//410
f 963//398 1044//400 970//403 971//399
f 1043//401 962//24 968//406 969//402
f 961//404 1042//407 966//410 967//405
f 960//408 959//29 965//409
f 966//410 965//409 972//411 973//412
f 971//399 970//403 977//413 978//414
f 969//402 968//406 975//415 976//416
f 967//405 966//410 973//412 974//417
f 965//409 959//29 972//411
f 964//30 971//399 978//414
f 970//403 969//402 976//416 977//413
f 968//406 967//405 974//417 975//415
f 978//414 977//413 984//418 985//419
f 976//416 975//415 982//42 983//420
f 974//417 973//412 980//421 981//422
f 972//411 959//29 979//423
f 964//30 978//414 985//419
f 977//413 976//416 983//420 984//418
f 975//415 974//417 981//422 982//42
f 973//412 972//411 979//423 980//421
f 979//423 959//29 986//424
f 964//30 985//419 992//425
f 984//418 983//420 990//426 991//427
f 982//42 981//422 988//428 989//429
f 980//421 979//423 986//424 987//430
f 985//419 984//418 991//427 992//425
f 983//420 982//42 989//429 990//426
f 981//422 980//421 987//430 988//428
f 991//427 990//426 997//431 998//432
f 989//429 988//428 995//433 996//434
f 987//430 986//424 993//435 994//436
f 992//425 991//427 998//432 999//437
f 990//426 989//429 996//434 997//431
f 988//428 987//430 994//436 995//433
f 986//424 959//29 993//435
f 964//30 992//425 999//437
f 999//437 998//432 1005//438 1006//439
f 997//431 996//434 1003//65 1004//440
f 995//433 994//436 1001//441 1002//442
f 993//435 959//29 1000//443
f 964//30 999//437 1006//439
f 998//432 997//431 1004//440 1005//438
f 996//434 995//433 1002//442 1003//65
f 994//436 993//435 1000//443 1001//441
f 1004//440 1003//65 1010//444 1011//445
f 1002//442 1001//441 1008//446 1009//447
f 1000//443 959//29 1007//448
f 964//30 1006//439 1013//449
f 1005//438 1004//440 1011//445 1012//450
f 1003//65 1002//442 1009//447 1010//444
f 1001//441 1000//443 1007//448 1008//446
f 1006//439 1005//438 1012//450 1013//449
f 964//30 1013//449 1020//451
f 1012//450 1011//445 1018//452 1019//453
f 1010//444 1009//447 1016//454 1017//455
f 1008//446 1007//448 1014//456 1015//457
f 1013//449 1012//450 1019//453 1020//451
f 1011//445 1010//444 1017//455 1018//452
f 1009//447 1008//446 1015//457 1016//454
f 1007//448 959//29 1014//456
f 1017//455 1016//454 1023//458 1024//82
f 1015//457 1014//456 1021//459 1022//460
f 1020//451 1019//453 1026//461 1027//462
f 1018//452 1017//455 1024//82 1025//463
f 1016//454 1015//457 1022//460 1023//458
f 1014//456 959//29 1021//459
f 964//30 1020//451 1027//462
f 1019//453 1018//452 1025//463 1026//461
f 1027//462 1026//461 1033//464 1034//465
f 1025//463 1024//82 1031//466 1032//467
f 1023//458 1022//460 1029//468 1030//469
f 1021//459 959//29 1028//470
f 964//30 1027//462 1034//465
f 1026//461 1025//463 1032//467 1033//464
f 1024//82 1023//458 1030//469 1031//466
f 1022//460 1021//459 1028//470 1029//468
f 1030//469 1029//468 1036//471 1037//472
f 1028//470 959//29 1035//473
f 964//30 1034//465 1041//474
f 1033//464 1032//467 1039//475 1040//476
f 1031//466 1030//469 1037//472 1038//477
f 1029//468 1028//470 1035//473 1036//471
f 1034//465 1033//464 1040//476 1041//474
f 1032//467 1031//466 1038//477 1039//475
f 964//30 1041//474 963//398
f 1040//476 1039//475 1043//401 1044//400
f 1038//477 1037//472 961//404 962//24
f 1036//471 1035//473 960//408 1042//407
f 1041//474 1040//476 1044//400 963//398
f 1039//475 1038//477 962//24 1043//401
f 1037//472 1036//471 1042//407 961//404
f 1035//473 959//29 960//408
usemtl KB_Mata
f 197//30 235//190 202//191
f 196//192 234//24 200//193 201//194
f 195//195 233//196 198//197 199//198
f 235//190 196//192 201//194 202//191
f 234//24 195//195 199//198 200//193
f 233//196 194//29 198//197
f 199//198 198//197 203//199 204//200
f 202//191 201//194 206//201 207//202
f 200//193 199//198 204//200 205//42
f 198//197 194//29 203//199
f 197//30 202//191 207//202
f 201//194 200//193 205//42 206//201
f 207//202 206//201 211//203 212//204
f 205//42 204//200 209//205 210//206
f 203//199 194//29 208//207
f 197//30 207//202 212//204
f 206//201 205//42 210//206 211//203
f 204//200 203//199 208//207 209//205
f 212//204 211//203 216//208 217//209
f 210//206 209//205 214//210 215//65
f 208//207 194//29 213//211
f 197//30 212//204 217//209
f 211//203 210//206 215//65 216//208
f 209//205 208//207 213//211 214//210
f 217//209 216//208 221//212 222//213
f 215//65 214//210 219//214 220//215
f 213//211 194//29 218//216
f 197//30 217//209 222//213
f 216//208 215//65 220//215 221//212
f 214//210 213//211 218//216 219//214
f 222//213 221//212 226//217 227//218
f 220//215 219//214 224//219 225//82
f 218//216 194//29 223//220
f 197//30 222//213 227//218
f 221//212 220//215 225//82 226//217
f 219//214 218//216 223//220 224//219
f 225//82 224//219 229//221 230//222
f 223//220 194//29 228//223
f 197//30 227//218 232//224
f 226//217 225//82 230//222 231//225
f 224//219 223//220 228//223 229//221
f 227//218 226//217 231//225 232//224
f 228//223 194//29 233//196
f 197//30 232//224 235//190
f 231//225 230//222 234//24 196//192
f 229//221 228//223 233//196 195//195
f 232//224 231//225 196//192 235//190
f 230//222 229//221 195//195 234//24
f 628//190 589//192 594//194 595//191
f 627//24 588//195 592//198 593//193
f 626//196 587//29 591//197
f 590//30 628//190 595//191
f 589//192 627//24 593//193 594//194
f 588//195 626//196 591//197 592//198
f 593//193 592//198 597//200 598//42
f 591//197 587//29 596//199
f 590//30 595//191 600//202
f 594//194 593//193 598//42 599//201
f 592//198 591//197 596//199 597//200
f 595//191 594//194 599//201 600//202
f 596//199 587//29 601//207
f 590//30 600//202 605//204
f 599//201 598//42 603//206 604//203
f 597//200 596//199 601//207 602//205
f 600//202 599//201 604//203 605//204
f 598//42 597//200 602//205 603//206
f 590//30 605//204 610//209
f 604//203 603//206 608//65 609//208
f 602//205 601//207 606//211 607//210
f 605//204 604//203 609//208 610//209
f 603//206 602//205 607//210 608//65
f 601//207 587//29 606//211
f 590//30 610//209 615//213
f 609//208 608//65 613//215 614//212
f 607//210 606//211 611//216 612//214
f 610//209 609//208 614//212 615//213
f 608//65 607//210 612//214 613//215
f 606//211 587//29 611//216
f 590//30 615//213 620//218
f 614//212 613//215 618//82 619//217
f 612//214 611//216 616//220 617//219
f 615//213 614//212 619//217 620//218
f 613//215 612//214 617//219 618//82
f 611//216 587//29 616//220
f 619//217 618//82 623//222 624//225
f 617//219 616//220 621//223 622//221
f 620//218 619//217 624//225 625//224
f 618//82 617//219 622//221 623//222
f 616//220 587//29 621//223
f 590//30 620//218 625//224
f 622//221 621//223 626//196 588//195
f 625//224 624//225 589//192 628//190
f 623//222 622//221 588//195 627//24
f 621//223 587//29 626//196
f 590//30 625//224 628//190
f 624//225 623//222 627//24 589//192
s 0
usemtl KB_Taring
f 236//226 241//226 237//226
f 237//227 241//227 238//227
f 238//228 241//228 239//228
f 236//29 237//29 238//29 239//29 240//29
f 239//229 241//229 240//229
f 240//230 241//230 236//230
f 629//226 634//226 630//226
f 630//227 634//227 631//227
f 631//228 634//228 632//228
f 629//29 630//29 631//29 632//29 633//29
f 632//229 634//229 633//229
f 633//230 634//230 629//230
s 1
usemtl KB_Tulang
f 254//245 255//246 257//247 256//248
f 256//248 257//247 259//249 258//250
f 258//250 259//249 261//251 260//252
f 260//252 261//251 263//253 262//254
f 257//247 255//246 265//255 263//253 261//251 259//249
f 262//254 263//253 265//255 264//256
f 264//256 265//255 255//246 254//245
f 254//245 256//248 258//250 260//252 262//254 264//256
f 306//24 267//195 271//198 272//193
f 305//196 266//29 270//197
f 269//30 307//190 274//191
f 268//192 306//24 272//193 273//194
f 267//195 305//196 270//197 271//198
f 307//190 268//192 273//194 274//191
f 269//30 274//191 279//202
f 273//194 272//193 277//42 278//201
f 271//198 270//197 275//199 276//200
f 274//191 273//194 278//201 279//202
f 272//193 271//198 276//200 277//42
f 270//197 266//29 275//199
f 269//30 279//202 284//204
f 278//201 277//42 282//206 283//203
f 276//200 275//199 280//207 281//205
f 279//202 278//201 283//203 284//204
f 277//42 276//200 281//205 282//206
f 275//199 266//29 280//207
f 283//203 282//206 287//65 288//208
f 281//205 280//207 285//211 286//210
f 284//204 283//203 288//208 289//209
f 282//206 281//205 286//210 287//65
f 280//207 266//29 285//211
f 269//30 284//204 289//209
f 286//210 285//211 290//216 291//214
f 289//209 288//208 293//212 294//213
f 287//65 286//210 291//214 292//215
f 285//211 266//29 290//216
f 269//30 289//209 294//213
f 288//208 287//65 292//215 293//212
f 294//213 293//212 298//217 299//218
f 292//215 291//214 296//219 297//82
f 290//216 266//29 295//220
f 269//30 294//213 299//218
f 293//212 292//215 297//82 298//217
f 291//214 290//216 295//220 296//219
f 299//218 298//217 303//225 304//224
f 297//82 296//219 301//221 302//222
f 295//220 266//29 300//223
f 269//30 299//218 304//224
f 298//217 297//82 302//222 303//225
f 296//219 295//220 300//223 301//221
f 304//224 303//225 268//192 307//190
f 302//222 301//221 267//195 306//24
f 300//223 266//29 305//196
f 269//30 304//224 307//190
f 303//225 302//222 306//24 268//192
f 301//221 300//223 305//196 267//195
f 308//257 309//258 311//259 310//260
f 310//260 311//259 313//261 312//262
f 312//262 313//261 315//263 314//264
f 314//264 315//263 317//265 316//266
f 311//259 309//258 319//267 317//265 315//263 313//261
f 316//266 317//265 319//267 318//268
f 318//268 319//267 309//258 308//257
f 308//257 310//260 312//262 314//264 316//266 318//268
f 322//192 360//24 326//193 327//194
f 321//195 359//196 324//197 325//198
f 361//190 322//192 327//194 328//191
f 360//24 321//195 325//198 326//193
f 359//196 320//29 324//197
f 323//30 361//190 328//191
f 328//191 327//194 332//201 333//202
f 326//193 325//198 330//200 331//42
f 324//197 320//29 329//199
f 323//30 328//191 333//202
f 327//194 326//193 331//42 332//201
f 325//198 324//197 329//199 330//200
f 333//202 332//201 337//203 338//204
f 331//42 330//200 335//205 336//206
f 329//199 320//29 334//207
f 323//30 333//202 338//204
f 332//201 331//42 336//206 337//203
f 330//200 329//199 334//207 335//205
f 338//204 337//203 342//208 343//209
f 336//206 335//205 340//210 341//65
f 334//207 320//29 339//211
f 323//30 338//204 343//209
f 337//203 336//206 341//65 342//208
f 335//205 334//207 339//211 340//210
f 341//65 340//210 345//214 346//215
f 339//211 320//29 344//216
f 323//30 343//209 348//213
f 342//208 341//65 346//215 347//212
f 340//210 339//211 344//216 345//214
f 343//209 342//208 347//212 348//213
f 344//216 320//29 349//220
f 323//30 348//213 353//218
f 347//212 346//215 351//82 352//217
f 345//214 344//216 349//220 350//219
f 348//213 347//212 352//217 353//218
f 346//215 345//214 350//219 351//82
f 323//30 353//218 358//224
f 352//217 351//82 356//222 357//225
f 350//219 349//220 354//223 355//221
f 353//218 352//217 357//225 358//224
f 351//82 350//219 355//221 356//222
f 349//220 320//29 354//223
f 323//30 358//224 361//190
f 357//225 356//222 360//24 322//192
f 355//221 354//223 359//196 321//195
f 358//224 357//225 322//192 361//190
f 356//222 355//221 321//195 360//24
f 354//223 320//29 359//196
f 362//269 363//270 365//271 364//272
f 364//272 365//271 367//273 366//274
f 366//274 367//273 369//275 368//276
f 368//276 369//275 371//277 370//278
f 365//271 363//270 373//279 371//277 369//275 367//273
f 370//278 371//277 373//279 372//280
f 372//280 373//279 363//270 362//269
f 362//269 364//272 366//274 368//276 370//278 372//280
f 375//195 413//196 378//197 379//198
f 415//190 376//192 381//194 382//191
f 414//24 375//195 379//198 380//193
f 413//196 374//29 378//197
f 377//30 415//190 382//191
f 376//192 414//24 380//193 381//194
f 382//191 381//194 386//201 387//202
f 380//193 379//198 384//200 385//42
f 378//197 374//29 383//199
f 377//30 382//191 387//202
f 381//194 380//193 385//42 386//201
f 379//198 378//197 383//199 384//200
f 387//202 386//201 391//203 392//204
f 385//42 384//200 389//205 390//206
f 383//199 374//29 388//207
f 377//30 387//202 392//204
f 386//201 385//42 390//206 391//203
f 384//200 383//199 388//207 389//205
f 390//206 389//205 394//210 395//65
f 388//207 374//29 393//211
f 377//30 392//204 397//209
f 391//203 390//206 395//65 396//208
f 389//205 388//207 393//211 394//210
f 392//204 391//203 396//208 397//209
f 393//211 374//29 398//216
f 377//30 397//209 402//213
f 396//208 395//65 400//215 401//212
f 394//210 393//211 398//216 399//214
f 397//209 396//208 401//212 402//213
f 395//65 394//210 399//214 400//215
f 377//30 402//213 407//218
f 401//212 400//215 405//82 406//217
f 399//214 398//216 403//220 404//219
f 402//213 401//212 406//217 407//218
f 400//215 399//214 404//219 405//82
f 398//216 374//29 403//220
f 377//30 407//218 412//224
f 406//217 405//82 410//222 411//225
f 404//219 403//220 408//223 409//221
f 407//218 406//217 411//225 412//224
f 405//82 404//219 409//221 410//222
f 403//220 374//29 408//223
f 377//30 412//224 415//190
f 411//225 410//222 414//24 376//192
f 409//221 408//223 413//196 375//195
f 412//224 411//225 376//192 415//190
f 410//222 409//221 375//195 414//24
f 408//223 374//29 413//196
f 416//281 417//282 419//283 418//284
f 418//284 419//283 421//285 420//286
f 420//286 421//285 423//287 422//288
f 422//288 423//287 425//289 424//290
f 419//283 417//282 427//291 425//289 423//287 421//285
f 424//290 425//289 427//291 426//292
f 426//292 427//291 417//282 416//281
f 416//281 418//284 420//286 422//288 424//290 426//292
f 469//190 430//192 435//194 436//191
f 468//24 429//195 433//198 434//193
f 467//196 428//29 432//197
f 431//30 469//190 436//191
f 430//192 468//24 434//193 435//194
f 429//195 467//196 432//197 433//198
f 436//191 435//194 440//201 441//202
f 434//193 433//198 438//200 439//42
f 432//197 428//29 437//199
f 431//30 436//191 441//202
f 435//194 434//193 439//42 440//201
f 433//198 432//197 437//199 438//200
f 439//42 438//200 443//205 444//206
f 437//199 428//29 442//207
f 431//30 441//202 446//204
f 440//201 439//42 444//206 445//203
f 438//200 437//199 442//207 443//205
f 441//202 440//201 445//203 446//204
f 442//207 428//29 447//211
f 431//30 446//204 451//209
f 445//203 444//206 449//65 450//208
f 443//205 442//207 447//211 448//210
f 446//204 445//203 450//208 451//209
f 444//206 443//205 448//210 449//65
f 431//30 451//209 456//213
f 450//208 449//65 454//215 455//212
f 448//210 447//211 452//216 453//214
f 451//209 450//208 455//212 456//213
f 449//65 448//210 453//214 454//215
f 447//211 428//29 452//216
f 431//30 456//213 461//218
f 455//212 454//215 459//82 460//217
f 453//214 452//216 457//220 458//219
f 456//213 455//212 460//217 461//218
f 454//215 453//214 458//219 459//82
f 452//216 428//29 457//220
f 431//30 461//218 466//224
f 460//217 459//82 464//222 465//225
f 458//219 457//220 462//223 463//221
f 461//218 460//217 465//225 466//224
f 459//82 458//219 463//221 464//222
f 457//220 428//29 462//223
f 465//225 464//222 468//24 430//192
f 463//221 462//223 467//196 429//195
f 466//224 465//225 430//192 469//190
f 464//222 463//221 429//195 468//24
f 462//223 428//29 467//196
f 431//30 466//224 469//190
f 470//293 471//294 473//295 472//296
f 472//296 473//295 475//297 474//298
f 474//298 475//297 477//299 476//300
f 476//300 477//299 479//301 478//302
f 473//295 471//294 481//303 479//301 477//299 475//297
f 478//302 479//301 481//303 480//304
f 480//304 481//303 471//294 470//293
f 470//293 472//296 474//298 476//300 478//302 480//304
f 523//190 484//192 489//194 490//191
f 522//24 483//195 487//198 488//193
f 521//196 482//29 486//197
f 485//30 523//190 490//191
f 484//192 522//24 488//193 489//194
f 483//195 521//196 486//197 487//198
f 488//193 487//198 492//200 493//42
f 486//197 482//29 491//199
f 485//30 490//191 495//202
f 489//194 488//193 493//42 494//201
f 487//198 486//197 491//199 492//200
f 490//191 489//194 494//201 495//202
f 491//199 482//29 496//207
f 485//30 495//202 500//204
f 494//201 493//42 498//206 499//203
f 492//200 491//199 496//207 497//205
f 495//202 494//201 499//203 500//204
f 493//42 492//200 497//205 498//206
f 485//30 500//204 505//209
f 499//203 498//206 503//65 504//208
f 497//205 496//207 501//211 502//210
f 500//204 499//203 504//208 505//209
f 498//206 497//205 502//210 503//65
f 496//207 482//29 501//211
f 485//30 505//209 510//213
f 504//208 503//65 508//215 509//212
f 502//210 501//211 506//216 507//214
f 505//209 504//208 509//212 510//213
f 503//65 502//210 507//214 508//215
f 501//211 482//29 506//216
f 485//30 510//213 515//218
f 509//212 508//215 513//82 514//217
f 507//214 506//216 511//220 512//219
f 510//213 509//212 514//217 515//218
f 508//215 507//214 512//219 513//82
f 506//216 482//29 511//220
f 514//217 513//82 518//222 519//225
f 512//219 511//220 516//223 517//221
f 515//218 514//217 519//225 520//224
f 513//82 512//219 517//221 518//222
f 511//220 482//29 516//223
f 485//30 515//218 520//224
f 517//221 516//223 521//196 483//195
f 520//224 519//225 484//192 523//190
f 518//222 517//221 483//195 522//24
f 516//223 482//29 521//196
f 485//30 520//224 523//190
f 519//225 518//222 522//24 484//192
f 635//326 636//327 638//328 637//329
f 637//329 638//328 640//330 639//331
f 639//331 640//330 642//332 641//333
f 641//333 642//332 644//334 643//335
f 638//328 636//327 646//336 644//334 642//332 640//330
f 643//335 644//334 646//336 645//337
f 645//337 646//336 636//327 635//326
f 635//326 637//329 639//331 641//333 643//335 645//337
f 649//192 687//24 653//193 654//194
f 648//195 686//196 651//197 652//198
f 688//190 649//192 654//194 655//191
f 687//24 648//195 652//198 653//193
f 686//196 647//29 651//197
f 650//30 688//190 655//191
f 655//191 654//194 659//201 660//202
f 653//193 652//198 657//200 658//42
f 651//197 647//29 656//199
f 650//30 655//191 660//202
f 654//194 653//193 658//42 659//201
f 652//198 651//197 656//199 657//200
f 660//202 659//201 664//203 665//204
f 658//42 657//200 662//205 663//206
f 656//199 647//29 661//207
f 650//30 660//202 665//204
f 659//201 658//42 663//206 664//203
f 657//200 656//199 661//207 662//205
f 665//204 664//203 669//208 670//209
f 663//206 662//205 667//210 668//65
f 661//207 647//29 666//211
f 650//30 665//204 670//209
f 664//203 663//206 668//65 669//208
f 662//205 661//207 666//211 667//210
f 668//65 667//210 672//214 673//215
f 666//211 647//29 671//216
f 650//30 670//209 675//213
f 669//208 668//65 673//215 674//212
f 667//210 666//211 671//216 672//214
f 670//209 669//208 674//212 675//213
f 671//216 647//29 676//220
f 650//30 675//213 680//218
f 674//212 673//215 678//82 679//217
f 672//214 671//216 676//220 677//219
f 675//213 674//212 679//217 680//218
f 673//215 672//214 677//219 678//82
f 650//30 680//218 685//224
f 679//217 678//82 683//222 684//225
f 677//219 676//220 681//223 682//221
f 680//218 679//217 684//225 685//224
f 678//82 677//219 682//221 683//222
f 676//220 647//29 681//223
f 650//30 685//224 688//190
f 684//225 683//222 687//24 649//192
f 682//221 681//223 686//196 648//195
f 685//224 684//225 649//192 688//190
f 683//222 682//221 648//195 687//24
f 681//223 647//29 686//196
f 689//338 690//339 692//340 691//341
f 691//341 692//340 694//342 693//343
f 693//343 694//342 696//344 695//345
f 695//345 696//344 698//346 697//347
f 692//340 690//339 700//348 698//346 696//344 694//342
f 697//347 698//346 700//348 699//349
f 699//349 700//348 690//339 689//338
f 689//338 691//341 693//343 695//345 697//347 699//349
f 703//192 741//24 707//193 708//194
f 702//195 740//196 705//197 706//198
f 742//190 703//192 708//194 709//191
f 741//24 702//195 706//198 707//193
f 740//196 701//29 705//197
f 704//30 742//190 709//191
f 709//191 708//194 713//201 714//202
f 707//193 706//198 711//200 712//42
f 705//197 701//29 710//199
f 704//30 709//191 714//202
f 708//194 707//193 712//42 713//201
f 706//198 705//197 710//199 711//200
f 714//202 713//201 718//203 719//204
f 712//42 711//200 716//205 717//206
f 710//199 701//29 715//207
f 704//30 714//202 719//204
f 713//201 712//42 717//206 718//203
f 711//200 710//199 715//207 716//205
f 719//204 718//203 723//208 724//209
f 717//206 716//205 721//210 722//65
f 715//207 701//29 720//211
f 704//30 719//204 724//209
f 718//203 717//206 722//65 723//208
f 716//205 715//207 720//211 721//210
f 722//65 721//210 726//214 727//215
f 720//211 701//29 725//216
f 704//30 724//209 729//213
f 723//208 722//65 727//215 728//212
f 721//210 720//211 725//216 726//214
f 724//209 723//208 728//212 729//213
f 725//216 701//29 730//220
f 704//30 729//213 734//218
f 728//212 727//215 732//82 733//217
f 726//214 725//216 730//220 731//219
f 729//213 728//212 733//217 734//218
f 727//215 726//214 731//219 732//82
f 704//30 734//218 739//224
f 733//217 732//82 737//222 738//225
f 731//219 730//220 735//223 736//221
f 734//218 733//217 738//225 739//224
f 732//82 731//219 736//221 737//222
f 730//220 701//29 735//223
f 704//30 739//224 742//190
f 738//225 737//222 741//24 703//192
f 736//221 735//223 740//196 702//195
f 739//224 738//225 703//192 742//190
f 737//222 736//221 702//195 741//24
f 735//223 701//29 740//196
f 743//350 744//351 746//352 745//353
f 745//353 746//352 748//354 747//355
f 747//355 748//354 750//356 749//357
f 749//357 750//356 752//358 751//359
f 746//352 744//351 754//360 752//358 750//356 748//354
f 751//359 752//358 754//360 753//361
f 753//361 754//360 744//351 743//350
f 743//350 745//353 747//355 749//357 751//359 753//361
f 794//196 755//29 759//197
f 758//30 796//190 763//191
f 757//192 795//24 761//193 762//194
f 756//195 794//196 759//197 760//198
f 796//190 757//192 762//194 763//191
f 795//24 756//195 760//198 761//193
f 758//30 763//191 768//202
f 762//194 761//193 766//42 767//201
f 760//198 759//197 764//199 765//200
f 763//191 762//194 767//201 768//202
f 761//193 760//198 765//200 766//42
f 759//197 755//29 764//199
f 767//201 766//42 771//206 772//203
f 765//200 764//199 769//207 770//205
f 768//202 767//201 772//203 773//204
f 766//42 765//200 770//205 771//206
f 764//199 755//29 769//207
f 758//30 768//202 773//204
f 770//205 769//207 774//211 775//210
f 773//204 772//203 777//208 778//209
f 771//206 770//205 775//210 776//65
f 769//207 755//29 774//211
f 758//30 773//204 778//209
f 772//203 771//206 776//65 777//208
f 778//209 777//208 782//212 783//213
f 776//65 775//210 780//214 781//215
f 774//211 755//29 779//216
f 758//30 778//209 783//213
f 777//208 776//65 781//215 782//212
f 775//210 774//211 779//216 780//214
f 783//213 782//212 787//217 788//218
f 781//215 780//214 785//219 786//82
f 779//216 755//29 784//220
f 758//30 783//213 788//218
f 782//212 781//215 786//82 787//217
f 780//214 779//216 784//220 785//219
f 788//218 787//217 792//225 793//224
f 786//82 785//219 790//221 791//222
f 784//220 755//29 789//223
f 758//30 788//218 793//224
f 787//217 786//82 791//222 792//225
f 785//219 784//220 789//223 790//221
f 793//224 792//225 757//192 796//190
f 791//222 790//221 756//195 795//24
f 789//223 755//29 794//196
f 758//30 793//224 796//190
f 792//225 791//222 795//24 757//192
f 790//221 789//223 794//196 756//195
f 797//362 798//363 800//364 799//365
f 799//365 800//364 802//366 801//367
f 801//367 802//366 804//368 803//369
f 803//369 804//368 806//370 805//371
f 800//364 798//363 808//372 806//370 804//368 802//366
f 805//371 806//370 808//372 807//373
f 807//373 808//372 798//363 797//362
f 797//362 799//365 801//367 803//369 805//371 807//373
f 810//195 848//196 813//197 814//198
f 850//190 811//192 816//194 817//191
f 849//24 810//195 814//198 815//193
f 848//196 809//29 813//197
f 812//30 850//190 817//191
f 811//192 849//24 815//193 816//194
f 817//191 816//194 821//201 822//202
f 815//193 814//198 819//200 820//42
f 813//197 809//29 818//199
f 812//30 817//191 822//202
f 816//194 815//193 820//42 821//201
f 814//198 813//197 818//199 819//200
f 822//202 821//201 826//203 827//204
f 820//42 819//200 824//205 825//206
f 818//199 809//29 823//207
f 812//30 822//202 827//204
f 821//201 820//42 825//206 826//203
f 819//200 818//199 823//207 824//205
f 825//206 824//205 829//210 830//65
f 823//207 809//29 828//211
f 812//30 827//204 832//209
f 826//203 825//206 830//65 831//208
f 824//205 823//207 828//211 829//210
f 827//204 826//203 831//208 832//209
f 828//211 809//29 833//216
f 812//30 832//209 837//213
f 831//208 830//65 835//215 836//212
f 829//210 828//211 833//216 834//214
f 832//209 831//208 836//212 837//213
f 830//65 829//210 834//214 835//215
f 812//30 837//213 842//218
f 836//212 835//215 840//82 841//217
f 834//214 833//216 838//220 839//219
f 837//213 836//212 841//217 842//218
f 835//215 834//214 839//219 840//82
f 833//216 809//29 838//220
f 812//30 842//218 847//224
f 841//217 840//82 845//222 846//225
f 839//219 838//220 843//223 844//221
f 842//218 841//217 846//225 847//224
f 840//82 839//219 844//221 845//222
f 838//220 809//29 843//223
f 812//30 847//224 850//190
f 846//225 845//222 849//24 811//192
f 844//221 843//223 848//196 810//195
f 847//224 846//225 811//192 850//190
f 845//222 844//221 810//195 849//24
f 843//223 809//29 848//196
f 851//374 852//375 854//376 853//377
f 853//377 854//376 856//378 855//379
f 855//379 856//378 858//380 857//381
f 857//381 858//380 860//382 859//383
f 854//376 852//375 862//384 860//382 858//380 856//378
f 859//383 860//382 862//384 861//385
f 861//385 862//384 852//375 851//374
f 851//374 853//377 855//379 857//381 859//383 861//385
f 866//30 904//190 871//191
f 865//192 903//24 869//193 870//194
f 864//195 902//196 867//197 868//198
f 904//190 865//192 870//194 871//191
f 903//24 864//195 868//198 869//193
f 902//196 863//29 867//197
f 870//194 869//193 874//42 875//201
f 868//198 867//197 872//199 873//200
f 871//191 870//194 875//201 876//202
f 869//193 868//198 873//200 874//42
f 867//197 863//29 872//199
f 866//30 871//191 876//202
f 873//200 872//199 877//207 878//205
f 876//202 875//201 880//203 881//204
f 874//42 873//200 878//205 879//206
f 872//199 863//29 877//207
f 866//30 876//202 881//204
f 875//201 874//42 879//206 880//203
f 881//204 880//203 885//208 886//209
f 879//206 878//205 883//210 884//65
f 877//207 863//29 882//211
f 866//30 881//204 886//209
f 880//203 879//206 884//65 885//208
f 878//205 877//207 882//211 883//210
f 886//209 885//208 890//212 891//213
f 884//65 883//210 888//214 889//215
f 882//211 863//29 887//216
f 866//30 886//209 891//213
f 885//208 884//65 889//215 890//212
f 883//210 882//211 887//216 888//214
f 891//213 890//212 895//217 896//218
f 889//215 888//214 893//219 894//82
f 887//216 863//29 892//220
f 866//30 891//213 896//218
f 890//212 889//215 894//82 895//217
f 888//214 887//216 892//220 893//219
f 896//218 895//217 900//225 901//224
f 894//82 893//219 898//221 899//222
f 892//220 863//29 897//223
f 866//30 896//218 901//224
f 895//217 894//82 899//222 900//225
f 893//219 892//220 897//223 898//221
f 899//222 898//221 864//195 903//24
f 897//223 863//29 902//196
f 866//30 901//224 904//190
f 900//225 899//222 903//24 865//192
f 898//221 897//223 902//196 864//195
f 901//224 900//225 865//192 904//190
