# axis-converted-to-Y-up
# Blender 5.1.1
# www.blender.org
mtllib mob_kelinci_walk1.mtl
o mob_kelinci_walk1
v -2.681538 0.007013 0.107324
v -2.759153 0.069270 -0.004668
v -2.651892 0.069270 -0.048233
v -2.585600 0.069270 0.065819
v -2.651892 0.069270 0.179872
v -2.759153 0.069270 0.136307
v -2.711183 0.170179 -0.114053
v -2.603922 0.170179 -0.070488
v -2.603922 0.170179 0.070487
v -2.711183 0.170179 0.114052
v -2.777475 0.170178 -0.000001
v -2.681538 0.237802 -0.000001
v -2.656565 0.045585 -0.014465
v -2.664113 0.023833 0.029073
v -2.673213 0.010623 0.072893
v -2.703331 0.010623 0.085125
v -2.727158 0.023833 0.054679
v -2.746918 0.045585 0.022233
v -2.738595 0.063066 -0.021447
v -2.709733 0.060427 -0.036755
v -2.678359 0.063066 -0.045912
v -2.768712 0.063066 0.109539
v -2.772780 0.060427 0.071715
v -2.768712 0.063066 0.030370
v -2.703331 0.010623 0.124709
v -2.727158 0.023833 0.137542
v -2.746918 0.045585 0.140986
v -2.600722 0.045585 0.081609
v -2.625147 0.023834 0.096110
v -2.654599 0.010623 0.104917
v -2.629626 0.063066 -0.026120
v -2.607722 0.060427 0.004677
v -2.592398 0.063066 0.037930
v -2.656565 0.045585 0.177684
v -2.664113 0.023833 0.163148
v -2.673213 0.010623 0.136942
v -2.592398 0.063066 0.101979
v -2.607722 0.060427 0.138753
v -2.629626 0.063066 0.166029
v -2.678359 0.063066 0.185822
v -2.709733 0.060427 0.180185
v -2.738595 0.063066 0.161357
v -2.784147 0.147924 -0.006408
v -2.783550 0.119638 -0.009190
v -2.773858 0.091352 -0.008279
v -2.773858 0.091352 0.110475
v -2.783550 0.119638 0.073672
v -2.784147 0.147924 0.033176
v -2.698186 0.147924 -0.114716
v -2.681538 0.119638 -0.101836
v -2.664889 0.091352 -0.077002
v -2.755243 0.091352 -0.040304
v -2.744584 0.119638 -0.076229
v -2.728304 0.147924 -0.102484
v -2.589218 0.147924 -0.045993
v -2.579526 0.119638 -0.009190
v -2.578928 0.091352 0.031306
v -2.634771 0.091352 -0.064770
v -2.618491 0.119638 -0.076229
v -2.607832 0.147924 -0.078018
v -2.607832 0.147924 0.104786
v -2.618491 0.119638 0.140711
v -2.634771 0.091352 0.166966
v -2.578928 0.091352 0.070890
v -2.579526 0.119638 0.073672
v -2.589218 0.147924 0.072761
v -2.728304 0.147924 0.129251
v -2.744584 0.119638 0.140711
v -2.755243 0.091352 0.142500
v -2.664889 0.091352 0.179198
v -2.681538 0.119638 0.166318
v -2.698186 0.147924 0.141484
v -2.770677 0.176917 -0.032025
v -2.755354 0.179784 -0.067039
v -2.733449 0.176917 -0.096075
v -2.684717 0.176917 -0.115868
v -2.653342 0.179784 -0.108470
v -2.624481 0.176917 -0.091403
v -2.594363 0.176917 -0.039585
v -2.590296 0.179784 -0.000001
v -2.594363 0.176917 0.039584
v -2.624481 0.176917 0.091401
v -2.653342 0.179784 0.108469
v -2.684717 0.176917 0.115867
v -2.733449 0.176917 0.096074
v -2.755354 0.179784 0.067037
v -2.770677 0.176917 0.032024
v -2.689862 0.233881 -0.032025
v -2.698963 0.219533 -0.067038
v -2.706511 0.195905 -0.096075
v -2.762353 0.195905 -0.000001
v -2.737928 0.219532 -0.000001
v -2.708476 0.233881 -0.000001
v -2.659744 0.233881 -0.019793
v -2.635917 0.219533 -0.041432
v -2.616157 0.195905 -0.059377
v -2.659744 0.233881 0.019792
v -2.635917 0.219533 0.041431
v -2.616157 0.195905 0.059376
v -2.689862 0.233881 0.032024
v -2.698963 0.219533 0.067037
v -2.706511 0.195905 0.096074
v -2.720345 0.224887 0.035243
v -2.749991 0.203991 0.035243
v -2.729506 0.203991 0.070487
v -2.666714 0.224887 0.057025
v -2.675875 0.203991 0.092269
v -2.642730 0.203991 0.078807
v -2.633569 0.224887 -0.000001
v -2.609585 0.203991 0.021781
v -2.609585 0.203991 -0.021783
v -2.666714 0.224887 -0.057026
v -2.642730 0.203991 -0.078808
v -2.675875 0.203991 -0.092270
v -2.720345 0.224887 -0.035244
v -2.729506 0.203991 -0.070489
v -2.749991 0.203991 -0.035245
v -2.773976 0.150767 0.068514
v -2.768314 0.119638 0.111049
v -2.753491 0.150767 0.103758
v -2.666714 0.150767 0.139003
v -2.648392 0.119638 0.159755
v -2.633569 0.150767 0.125541
v -2.579938 0.150767 0.033270
v -2.574276 0.119638 0.032241
v -2.579938 0.150767 -0.010294
v -2.633569 0.150767 -0.102564
v -2.648392 0.119638 -0.095274
v -2.666714 0.150767 -0.116026
v -2.753491 0.150767 -0.080782
v -2.768314 0.119638 -0.046567
v -2.773976 0.150767 -0.045538
v -2.714684 0.119638 0.159755
v -2.729506 0.088508 0.167046
v -2.696361 0.088508 0.180508
v -2.594761 0.119638 0.111049
v -2.609585 0.088509 0.145264
v -2.589099 0.088509 0.110020
v -2.594761 0.119638 -0.046567
v -2.589099 0.088509 -0.004032
v -2.609585 0.088509 -0.039277
v -2.714684 0.119638 -0.095274
v -2.696361 0.088508 -0.074521
v -2.729506 0.088508 -0.061059
v -2.788799 0.119638 0.032241
v -2.783137 0.088509 0.031212
v -2.783137 0.088509 0.074775
v -2.720345 0.038141 0.165379
v -2.696361 0.018903 0.156423
v -2.687200 0.038141 0.178842
v -2.633569 0.038141 0.157060
v -2.642730 0.018903 0.134641
v -2.613084 0.038142 0.121815
v -2.613084 0.038142 0.051327
v -2.642730 0.018903 0.064153
v -2.633569 0.038141 0.016084
v -2.753490 0.038141 0.108353
v -2.753491 0.038141 0.064790
v -2.729506 0.018903 0.099397
v -2.687200 0.038141 -0.005698
v -2.696361 0.018903 0.042372
v -2.720345 0.038141 0.007764
v -2.681538 0.115512 0.134002
v -2.732286 0.154280 0.071286
v -2.662154 0.154280 0.048498
v -2.618809 0.154280 0.108156
v -2.662154 0.154280 0.167815
v -2.732286 0.154280 0.145027
v -2.700922 0.221234 0.039352
v -2.630789 0.221234 0.062140
v -2.630789 0.221234 0.135880
v -2.700922 0.221234 0.158668
v -2.744266 0.221234 0.099010
v -2.681538 0.263344 0.099010
v -2.670144 0.125986 0.091953
v -2.711367 0.125986 0.105347
v -2.699974 0.148774 0.055090
v -2.741196 0.148774 0.111828
v -2.711367 0.125986 0.148691
v -2.644667 0.125986 0.127019
v -2.633273 0.148774 0.076762
v -2.670144 0.125986 0.162085
v -2.633273 0.148774 0.146894
v -2.699974 0.148774 0.168566
v -2.748238 0.187166 0.077338
v -2.748238 0.187166 0.120682
v -2.681538 0.187166 0.028877
v -2.722761 0.187166 0.042272
v -2.614837 0.187166 0.077338
v -2.640315 0.187166 0.042272
v -2.640315 0.187166 0.155748
v -2.614837 0.187166 0.120682
v -2.722761 0.187166 0.155748
v -2.681538 0.187166 0.169142
v -2.729802 0.227216 0.063944
v -2.663102 0.227216 0.042272
v -2.621880 0.227216 0.099010
v -2.663102 0.227216 0.155748
v -2.729802 0.227216 0.134076
v -2.692931 0.251968 0.063944
v -2.718408 0.251968 0.099010
v -2.651709 0.251968 0.077338
v -2.651709 0.251968 0.120682
v -2.692931 0.251968 0.134076
v -2.653601 0.237384 0.090319
v -2.655590 0.416615 0.106811
v -2.671721 0.239395 0.078934
v -2.661630 0.417286 0.103016
v -2.674010 0.243914 0.057986
v -2.662393 0.418792 0.096033
v -2.658743 0.247538 0.043249
v -2.657304 0.420000 0.091120
v -2.637418 0.247538 0.045820
v -2.650195 0.420000 0.091978
v -2.626092 0.243914 0.063764
v -2.646420 0.418792 0.097959
v -2.633295 0.239395 0.083568
v -2.648821 0.417286 0.104560
v -2.652685 0.252785 0.095101
v -2.654811 0.404330 0.112732
v -2.663256 0.253958 0.088460
v -2.657831 0.404666 0.110834
v -2.664590 0.256594 0.076240
v -2.658213 0.405418 0.107343
v -2.655685 0.258708 0.067643
v -2.655669 0.406023 0.104887
v -2.643245 0.258708 0.069143
v -2.652115 0.406023 0.105315
v -2.636639 0.256594 0.079610
v -2.650227 0.405418 0.108306
v -2.640840 0.253958 0.091163
v -2.651427 0.404666 0.111607
v -2.709474 0.237384 0.090319
v -2.707485 0.416615 0.106811
v -2.729781 0.239395 0.083568
v -2.714255 0.417286 0.104560
v -2.736983 0.243914 0.063764
v -2.716655 0.418792 0.097959
v -2.725657 0.247538 0.045820
v -2.712880 0.420000 0.091978
v -2.704332 0.247538 0.043249
v -2.705771 0.420000 0.091120
v -2.689066 0.243914 0.057986
v -2.700683 0.418792 0.096033
v -2.691354 0.239395 0.078934
v -2.701445 0.417286 0.103016
v -2.710390 0.252785 0.095101
v -2.708264 0.404330 0.112732
v -2.722235 0.253958 0.091163
v -2.711648 0.404666 0.111607
v -2.726436 0.256594 0.079610
v -2.712849 0.405418 0.108306
v -2.719830 0.258708 0.069143
v -2.710961 0.406023 0.105315
v -2.707390 0.258708 0.067643
v -2.707407 0.406023 0.104887
v -2.698485 0.256594 0.076240
v -2.704863 0.405418 0.107343
v -2.699820 0.253958 0.088460
v -2.705244 0.404666 0.110834
v -2.681538 0.152641 0.167006
v -2.693478 0.161763 0.152249
v -2.676977 0.161763 0.146887
v -2.666778 0.161763 0.160924
v -2.676977 0.161763 0.174961
v -2.693478 0.161763 0.169600
v -2.686098 0.177258 0.142729
v -2.669597 0.177258 0.148091
v -2.669597 0.177258 0.165442
v -2.686098 0.177258 0.170803
v -2.696297 0.177258 0.156766
v -2.681538 0.187166 0.156766
v -2.648534 0.182685 0.140264
v -2.657490 0.190116 0.133758
v -2.645113 0.190116 0.129737
v -2.637464 0.190116 0.140264
v -2.645113 0.190116 0.150792
v -2.657490 0.190116 0.146771
v -2.651954 0.202140 0.129737
v -2.639579 0.202140 0.133758
v -2.639579 0.202140 0.146771
v -2.651954 0.202140 0.150792
v -2.659604 0.202140 0.140264
v -2.648534 0.209571 0.140264
v -2.714541 0.182685 0.140264
v -2.723497 0.190116 0.133758
v -2.711121 0.190116 0.129737
v -2.703471 0.190116 0.140264
v -2.711121 0.190116 0.150792
v -2.723497 0.190116 0.146771
v -2.717962 0.202140 0.129737
v -2.705586 0.202140 0.133758
v -2.705586 0.202140 0.146771
v -2.717962 0.202140 0.150792
v -2.725611 0.202140 0.140264
v -2.714541 0.209571 0.140264
v -2.615531 0.033829 0.110074
v -2.651353 0.058458 0.059821
v -2.601848 0.058458 0.038910
v -2.571252 0.058458 0.093655
v -2.601848 0.058458 0.148400
v -2.651353 0.058458 0.127489
v -2.629213 0.098309 0.012342
v -2.579708 0.098309 0.033253
v -2.579708 0.098309 0.100921
v -2.629213 0.098309 0.121832
v -2.659809 0.098309 0.067087
v -2.615531 0.122938 0.050668
v -2.607488 0.040483 0.073460
v -2.636586 0.040483 0.085751
v -2.628544 0.054959 0.043922
v -2.657642 0.054960 0.095987
v -2.636586 0.040483 0.125525
v -2.589504 0.040483 0.105638
v -2.581461 0.054959 0.063809
v -2.607488 0.040483 0.137816
v -2.581461 0.054959 0.128166
v -2.628544 0.054959 0.148053
v -2.662613 0.078383 0.060484
v -2.662613 0.078383 0.100258
v -2.615531 0.078383 0.016014
v -2.644629 0.078383 0.028305
v -2.568448 0.078383 0.060484
v -2.586432 0.078383 0.028305
v -2.586432 0.078383 0.132437
v -2.568448 0.078383 0.100258
v -2.644629 0.078383 0.132437
v -2.615531 0.078383 0.144728
v -2.649600 0.101807 0.032577
v -2.602517 0.101808 0.012689
v -2.573419 0.101807 0.064755
v -2.602517 0.101808 0.116820
v -2.649600 0.101807 0.096934
v -2.623573 0.116284 0.022926
v -2.641557 0.116284 0.055104
v -2.594475 0.116284 0.035217
v -2.594475 0.116284 0.074991
v -2.623573 0.116284 0.087282
v -2.747545 0.033829 0.110074
v -2.783367 0.058458 0.059821
v -2.733862 0.058458 0.038910
v -2.703266 0.058458 0.093655
v -2.733862 0.058458 0.148400
v -2.783367 0.058458 0.127489
v -2.761228 0.098309 0.012342
v -2.711722 0.098309 0.033253
v -2.711722 0.098309 0.100921
v -2.761228 0.098309 0.121832
v -2.791824 0.098309 0.067087
v -2.747545 0.122938 0.050668
v -2.739502 0.040483 0.073460
v -2.768600 0.040483 0.085751
v -2.760558 0.054959 0.043922
v -2.789656 0.054960 0.095987
v -2.768600 0.040483 0.125525
v -2.721518 0.040483 0.105638
v -2.713475 0.054959 0.063809
v -2.739502 0.040483 0.137816
v -2.713475 0.054959 0.128166
v -2.760558 0.054959 0.148053
v -2.794627 0.078383 0.060484
v -2.794627 0.078383 0.100258
v -2.747545 0.078383 0.016014
v -2.776643 0.078383 0.028305
v -2.700462 0.078383 0.060484
v -2.718446 0.078383 0.028305
v -2.718446 0.078383 0.132437
v -2.700462 0.078383 0.100258
v -2.776643 0.078383 0.132437
v -2.747545 0.078383 0.144728
v -2.781614 0.101807 0.032577
v -2.734531 0.101808 0.012689
v -2.705433 0.101807 0.064755
v -2.734531 0.101808 0.116820
v -2.781614 0.101807 0.096934
v -2.755587 0.116284 0.022926
v -2.773571 0.116284 0.055104
v -2.726489 0.116284 0.035217
v -2.726489 0.116284 0.074991
v -2.755587 0.116284 0.087282
v -2.640283 0.000000 0.208947
v -2.640283 0.090760 0.148441
v -2.650493 0.000000 0.204718
v -2.650493 0.090760 0.144212
v -2.654722 0.000000 0.194508
v -2.654722 0.090760 0.134002
v -2.650493 0.000000 0.184298
v -2.650493 0.090760 0.123792
v -2.640283 0.000000 0.180069
v -2.640283 0.090760 0.119563
v -2.630073 0.000000 0.184298
v -2.630073 0.090760 0.123792
v -2.625844 0.000000 0.194508
v -2.625844 0.090760 0.134002
v -2.630073 0.000000 0.204718
v -2.630073 0.090760 0.144212
v -2.722792 0.000000 0.208947
v -2.722792 0.090760 0.148441
v -2.733002 0.000000 0.204718
v -2.733002 0.090760 0.144212
v -2.737231 0.000000 0.194508
v -2.737231 0.090760 0.134002
v -2.733002 0.000000 0.184298
v -2.733002 0.090760 0.123792
v -2.722792 0.000000 0.180069
v -2.722792 0.090760 0.119563
v -2.712582 0.000000 0.184298
v -2.712582 0.090760 0.123792
v -2.708353 0.000000 0.194508
v -2.708353 0.090760 0.134002
v -2.712582 0.000000 0.204718
v -2.712582 0.090760 0.144212
v -2.681538 0.078383 -0.055769
v -2.711390 0.101188 -0.092660
v -2.670135 0.101188 -0.106065
v -2.644638 0.101188 -0.070971
v -2.670135 0.101188 -0.035878
v -2.711390 0.101188 -0.049283
v -2.692940 0.138088 -0.130665
v -2.651685 0.138088 -0.117260
v -2.651685 0.138088 -0.073883
v -2.692940 0.138088 -0.060478
v -2.718437 0.138088 -0.095571
v -2.681538 0.160892 -0.110775
v -2.674836 0.084545 -0.080503
v -2.699084 0.084545 -0.072624
v -2.692382 0.097949 -0.102187
v -2.716631 0.097949 -0.068812
v -2.699084 0.084545 -0.047128
v -2.659849 0.084545 -0.059876
v -2.653147 0.097949 -0.089439
v -2.674836 0.084545 -0.039249
v -2.653147 0.097949 -0.048185
v -2.692382 0.097949 -0.035437
v -2.720773 0.119638 -0.096019
v -2.720773 0.119638 -0.070523
v -2.681538 0.119638 -0.124526
v -2.705786 0.119638 -0.116647
v -2.642302 0.119638 -0.096019
v -2.657289 0.119638 -0.116647
v -2.657289 0.119638 -0.049896
v -2.642302 0.119638 -0.070523
v -2.705786 0.119638 -0.049896
v -2.681538 0.119638 -0.042017
v -2.709929 0.141327 -0.118358
v -2.670693 0.141327 -0.131106
v -2.646445 0.141327 -0.097731
v -2.670693 0.141327 -0.064355
v -2.709929 0.141327 -0.077104
v -2.688239 0.154731 -0.127294
v -2.703226 0.154731 -0.106667
v -2.663991 0.154731 -0.119415
v -2.663991 0.154731 -0.093919
v -2.688239 0.154731 -0.086040
vn -0.000300 -0.999900 0.010200
vn -0.205900 -0.972200 -0.111300
vn 0.075100 -0.981200 -0.177900
vn -0.663700 -0.643200 -0.381700
vn -0.546900 -0.777100 -0.311500
vn -0.773400 -0.597200 -0.212600
vn 0.275000 -0.961400 0.011900
vn 0.097600 -0.960400 0.261100
vn -0.241400 -0.957600 0.157100
vn -0.831800 -0.441600 -0.336200
vn 0.243700 -0.765200 -0.595800
vn 0.016100 -0.804300 -0.594000
vn 0.142000 -0.684200 -0.715400
vn 0.902500 -0.430700 0.004200
vn 0.791900 -0.581200 -0.187100
vn 0.943900 -0.308300 -0.117900
vn 0.372100 0.021500 0.928000
vn 0.640700 -0.143900 0.754200
vn 0.518500 0.254000 0.816500
vn -0.847900 -0.177600 0.499600
vn -0.675100 -0.160000 0.720100
vn -0.768400 0.144100 0.623500
vn -0.648200 -0.559000 -0.517000
vn 0.413900 -0.639800 -0.647500
vn 0.979900 -0.152300 0.129100
vn 0.179800 0.320500 0.930000
vn -0.925100 -0.003800 0.379700
vn -0.344800 0.220100 -0.912500
vn -0.606500 0.376900 -0.700000
vn -0.270400 0.687600 -0.673800
vn 0.810500 0.290900 -0.508400
vn 0.618600 0.374900 -0.690500
vn 0.660900 0.642300 -0.388200
vn 0.728600 0.544500 0.415600
vn 0.826300 0.514600 0.228700
vn 0.660900 0.642300 0.388200
vn -0.285700 0.651600 0.702700
vn -0.042500 0.666900 0.743900
vn -0.270400 0.687600 0.673800
vn -0.912800 0.408100 -0.018800
vn -0.841900 0.505800 0.188300
vn -0.786200 0.618000 0.000000
vn -0.293200 0.956100 0.000000
vn -0.090700 0.969500 0.227700
vn 0.000500 1.000000 0.000000
vn -0.573300 0.819400 0.000000
vn -0.411000 0.878900 0.242100
vn -0.681400 0.693500 0.233700
vn -0.186500 0.864900 0.466100
vn -0.505000 0.722700 0.471900
vn -0.710100 0.574800 0.406600
vn -0.505600 0.618700 0.601200
vn 0.237600 0.961100 0.140600
vn 0.160900 0.901500 0.401800
vn 0.069500 0.755700 0.651200
vn 0.472800 0.836000 0.278600
vn 0.404100 0.735000 0.544500
vn 0.283800 0.660100 0.695500
vn 0.560800 0.608300 0.561600
vn 0.237600 0.961100 -0.140600
vn 0.500500 0.865700 0.000000
vn 0.714200 0.687000 0.134000
vn 0.472800 0.836000 -0.278600
vn 0.714200 0.687000 -0.134000
vn 0.874800 0.484400 -0.009600
vn 0.870300 0.422800 -0.252800
vn -0.090700 0.969500 -0.227700
vn 0.160900 0.901500 -0.401800
vn 0.404100 0.735000 -0.544500
vn -0.186500 0.864900 -0.466100
vn 0.069500 0.755700 -0.651200
vn 0.334200 0.410400 -0.848500
vn -0.003900 0.361600 -0.932300
vn -0.411000 0.878900 -0.242100
vn -0.505000 0.722700 -0.471900
vn -0.681400 0.693500 -0.233700
vn -0.773800 0.429400 -0.465700
vn -0.876200 0.425700 -0.226000
vn -0.949200 0.293000 0.114600
vn -0.955000 0.161800 0.248600
vn -0.841700 0.425900 0.331800
vn -0.819100 0.318400 0.477100
vn -0.659300 0.535400 0.527900
vn -0.604600 0.433700 0.668200
vn -0.416900 0.619500 0.665100
vn -0.152800 0.659300 0.736200
vn -0.001000 0.543800 0.839200
vn 0.142800 0.655100 0.742000
vn 0.320600 0.521200 0.790900
vn 0.431800 0.609500 0.664800
vn 0.605800 0.433300 0.667300
vn 0.666400 0.529700 0.524800
vn 0.837100 0.427000 0.341900
vn 0.954900 0.161900 0.249000
vn 0.942500 0.313800 0.115100
vn 1.000000 0.008400 -0.000100
vn 0.972900 0.185900 -0.137300
vn 0.955000 -0.161800 -0.248600
vn 0.925000 0.025300 -0.379200
vn 0.763400 -0.109500 -0.636500
vn 0.604600 -0.433700 -0.668200
vn 0.526100 -0.123900 -0.841400
vn 0.323500 -0.508000 -0.798300
vn 0.184200 -0.171000 -0.967900
vn 0.001000 -0.543800 -0.839200
vn -0.165900 -0.259800 -0.951300
vn -0.533600 -0.197100 -0.822500
vn -0.605800 -0.433300 -0.667300
vn -0.770200 -0.041100 -0.636500
vn -0.823400 -0.302900 -0.479900
vn -0.920300 0.069200 -0.385000
vn -0.954900 -0.161900 -0.249000
vn -0.978800 0.156000 -0.132800
vn -0.323500 0.508000 0.798300
vn -0.524600 0.218100 0.823000
vn -0.179200 0.283500 0.942100
vn -0.366300 -0.119100 0.922800
vn 0.029100 -0.049800 0.998300
vn 0.823400 0.302900 0.479900
vn 0.770100 0.108900 0.628600
vn 0.925000 -0.035600 0.378300
vn 0.822800 -0.287200 0.490400
vn 0.897800 -0.380500 0.221700
vn 0.819100 -0.318400 -0.477100
vn 0.822800 -0.463300 -0.329300
vn 0.636000 -0.577600 -0.511700
vn 0.626200 -0.691500 -0.360200
vn 0.433900 -0.750900 -0.497800
vn -0.320600 -0.521200 -0.790900
vn -0.135400 -0.698400 -0.702800
vn -0.409900 -0.655100 -0.634700
vn -0.227600 -0.798400 -0.557400
vn -0.462900 -0.742300 -0.484500
vn -1.000000 -0.008400 0.000100
vn -0.935200 -0.333600 -0.119100
vn -0.974500 -0.181800 0.131100
vn -0.862900 -0.505400 0.006400
vn -0.896600 -0.360300 0.257600
vn -0.743800 -0.495500 0.448600
vn -0.520500 -0.790200 0.323600
vn -0.493000 -0.539400 0.682600
vn -0.191600 -0.843600 0.501600
vn -0.088700 -0.510400 0.855300
vn 0.227500 -0.771700 0.594000
vn 0.336500 -0.388700 0.857700
vn 0.596900 -0.560500 0.574000
vn 0.445200 -0.851000 0.278500
vn 0.728000 -0.634000 0.260700
vn 0.546800 -0.837200 0.011700
vn 0.764300 -0.644800 0.008800
vn 0.594600 -0.780100 -0.194700
vn 0.344300 -0.919100 -0.191800
vn 0.395500 -0.845200 -0.359400
vn 0.141600 -0.929000 -0.342000
vn 0.197600 -0.854200 -0.480900
vn -0.731600 -0.665500 0.147800
vn -0.651200 -0.750500 -0.112800
vn -0.474800 -0.880000 0.012300
vn -0.392700 -0.892900 -0.220400
vn -0.050100 -0.887400 -0.458300
vn -0.124100 -0.946100 -0.299200
vn -0.305900 -0.863100 -0.401900
vn -0.000200 -0.997700 0.067500
vn -0.383900 -0.895700 -0.224500
vn 0.134900 -0.919900 -0.368300
vn -0.661000 -0.578100 -0.478400
vn -0.853600 -0.520700 0.013000
vn 0.542300 -0.837400 0.068300
vn 0.199600 -0.679500 0.706000
vn -0.494500 -0.748400 0.442000
vn -0.944500 -0.044400 -0.325500
vn 0.238900 -0.640200 -0.730100
vn -0.222700 -0.705500 -0.672800
vn -0.004200 -0.128600 -0.991700
vn 0.893400 -0.449200 -0.006600
vn 0.624400 -0.645500 -0.439900
vn 0.942800 -0.056100 -0.328500
vn 0.317100 -0.115400 0.941400
vn 0.753800 -0.351700 0.555000
vn 0.591700 0.111600 0.798400
vn -0.789400 -0.267700 0.552400
vn -0.301100 -0.218300 0.928300
vn -0.599200 0.114800 0.792300
vn -0.572400 -0.112600 -0.812200
vn 0.578600 -0.104800 -0.808800
vn 0.957200 0.039500 0.286900
vn 0.006500 0.144600 0.989500
vn -0.956700 0.030500 0.289500
vn -0.279900 0.423400 -0.861600
vn -0.699800 0.501700 -0.508500
vn -0.170400 0.834300 -0.524300
vn 0.732900 0.423400 -0.532500
vn 0.267300 0.501700 -0.822700
vn 0.446000 0.834300 -0.324000
vn 0.732900 0.423400 0.532500
vn 0.865100 0.501700 0.000000
vn 0.446000 0.834300 0.324000
vn -0.279900 0.423400 0.861600
vn 0.267300 0.501700 0.822700
vn -0.170400 0.834300 0.524300
vn -0.905900 0.423400 0.000000
vn -0.699800 0.501700 0.508500
vn -0.551300 0.834300 0.000000
vn -0.000000 1.000000 0.000000
vn -0.081000 -0.736500 0.671500
vn -0.104300 0.491500 0.864600
vn -0.656100 0.548100 0.518800
vn -0.675100 -0.675300 0.296900
vn -0.728000 0.675400 -0.118200
vn -0.748300 -0.538200 -0.387900
vn -0.263100 0.778100 -0.570400
vn -0.249200 -0.428100 -0.868700
vn 0.391200 0.778100 -0.491500
vn 0.448500 -0.428100 -0.784600
vn 0.735200 0.675400 0.058200
vn 0.819000 -0.538200 -0.198900
vn 0.513900 0.548100 0.659900
vn 0.585200 -0.675300 0.448900
vn -0.080000 -0.744200 0.663200
vn -0.104900 0.481100 0.870400
vn -0.662500 0.538400 0.520900
vn -0.669300 -0.683400 0.291600
vn -0.735000 0.666900 -0.122700
vn -0.741600 -0.547600 -0.387600
vn -0.265300 0.770600 -0.579400
vn -0.246600 -0.438500 -0.864200
vn 0.395500 0.770600 -0.499700
vn 0.445000 -0.438500 -0.780800
vn 0.743100 0.666900 0.055500
vn 0.812500 -0.547600 -0.200200
vn 0.519700 0.538400 0.663400
vn 0.580800 -0.683400 0.442300
vn 0.081000 -0.736500 0.671500
vn 0.104300 0.491500 0.864600
vn -0.513900 0.548100 0.659900
vn -0.585200 -0.675300 0.448900
vn -0.735200 0.675400 0.058200
vn -0.819000 -0.538200 -0.198900
vn -0.391200 0.778100 -0.491500
vn -0.448500 -0.428100 -0.784600
vn 0.263100 0.778100 -0.570400
vn 0.249200 -0.428100 -0.868700
vn 0.728000 0.675400 -0.118200
vn 0.748300 -0.538200 -0.387900
vn 0.656100 0.548100 0.518800
vn 0.675100 -0.675300 0.296900
vn 0.080000 -0.744200 0.663200
vn 0.104900 0.481100 0.870400
vn -0.519700 0.538400 0.663400
vn -0.580800 -0.683400 0.442300
vn -0.743100 0.666900 0.055500
vn -0.812500 -0.547600 -0.200200
vn -0.395500 0.770600 -0.499700
vn -0.445000 -0.438500 -0.780800
vn 0.265300 0.770600 -0.579400
vn 0.246600 -0.438500 -0.864200
vn 0.735000 0.666900 -0.122700
vn 0.741600 -0.547600 -0.387600
vn 0.662500 0.538400 0.520900
vn 0.669300 -0.683400 0.291600
vn -0.001700 -0.970800 0.240100
vn -0.697000 -0.543800 -0.467400
vn 0.259900 -0.598900 -0.757500
vn -0.755900 -0.336100 0.561900
vn 0.894000 -0.447100 0.029500
vn 0.300300 -0.251900 0.920000
vn -0.901800 0.429200 -0.049800
vn -0.279000 0.324700 -0.903700
vn 0.731000 0.362400 -0.578200
vn 0.723500 0.501800 0.474100
vn -0.273700 0.548100 0.790400
vn -0.000000 -1.000000 0.000000
vn -0.727700 -0.436900 -0.528700
vn 0.278000 -0.436900 -0.855500
vn -0.727700 -0.436900 0.528700
vn 0.899500 -0.436900 0.000000
vn 0.278000 -0.436900 0.855500
vn -0.899500 0.436900 0.000000
vn -0.277900 0.436900 -0.855500
vn 0.727700 0.436900 -0.528700
vn 0.727700 0.436900 0.528700
vn -0.277900 0.436900 0.855500
vn 0.277900 -0.436900 -0.855500
vn 0.277900 -0.436900 0.855500
vn -0.278000 0.436900 -0.855500
vn -0.278000 0.436900 0.855500
vn -0.000300 -0.999400 0.033500
vn -0.368600 -0.911600 -0.181900
vn 0.134400 -0.945000 -0.298300
vn -0.657300 -0.663400 -0.357400
vn -0.835900 -0.548500 0.020500
vn 0.503100 -0.863400 0.037300
vn 0.190500 -0.814000 0.548700
vn -0.459200 -0.828000 0.321900
vn -0.958300 -0.144000 -0.247000
vn 0.246000 -0.781100 -0.573900
vn -0.228100 -0.815400 -0.532100
vn 0.008600 -0.495800 -0.868400
vn 0.880800 -0.473300 0.016100
vn 0.617100 -0.712400 -0.334000
vn 0.959200 -0.143600 -0.243400
vn 0.359000 -0.130700 0.924100
vn 0.788500 -0.378900 0.484400
vn 0.628500 0.390400 0.672700
vn -0.824500 -0.268500 0.498100
vn -0.345200 -0.267300 0.899700
vn -0.619300 0.391800 0.680400
vn -0.628500 -0.390400 -0.672700
vn 0.619300 -0.391800 -0.680400
vn 0.958300 0.144000 0.247000
vn -0.008600 0.495800 0.868400
vn -0.959200 0.143600 0.243400
vn -0.359000 0.130800 -0.924100
vn -0.788500 0.378900 -0.484400
vn -0.190500 0.814000 -0.548700
vn 0.824500 0.268500 -0.498100
vn 0.345200 0.267300 -0.899700
vn 0.459200 0.828000 -0.321900
vn 0.657300 0.663400 0.357400
vn 0.835900 0.548500 -0.020500
vn 0.368600 0.911600 0.181900
vn -0.246000 0.781100 0.573900
vn 0.228100 0.815400 0.532100
vn -0.134400 0.945000 0.298300
vn -0.880800 0.473300 -0.016100
vn -0.617100 0.712400 0.334000
vn -0.503100 0.863400 -0.037300
vn 0.000300 0.999400 -0.033500
vn -0.000000 -0.400500 0.916300
vn -0.000000 0.833000 0.553200
vn -0.499800 0.769900 0.396700
vn -0.576800 -0.446100 0.684300
vn -0.797500 0.592700 -0.113200
vn -0.797500 -0.592700 0.113100
vn -0.576800 0.446100 -0.684300
vn -0.499800 -0.769900 -0.396700
vn -0.000000 0.400500 -0.916300
vn -0.000000 -0.833000 -0.553200
vn 0.576800 0.446100 -0.684300
vn 0.499800 -0.769900 -0.396700
vn 0.797500 0.592700 -0.113200
vn 0.797500 -0.592700 0.113100
vn 0.499800 0.769900 0.396700
vn 0.576800 -0.446100 0.684300
vn -0.629600 -0.651700 -0.422900
vn -0.859000 -0.510900 0.032600
vn -0.939000 -0.179000 -0.293700
vn 0.215500 -0.744100 -0.632400
vn -0.202000 -0.778200 -0.594700
vn 0.005100 -0.525600 -0.850700
vn 0.899600 -0.435500 0.032100
vn 0.592900 -0.699100 -0.399700
vn 0.941100 -0.173800 -0.290000
vn 0.311200 0.054600 0.948800
vn 0.771400 -0.258000 0.581700
vn 0.545500 0.436900 0.715200
vn -0.794300 -0.148700 0.589100
vn -0.305400 -0.081700 0.948700
vn -0.536500 0.442600 0.718500
vn -0.545600 -0.436900 -0.715200
vn 0.536500 -0.442600 -0.718500
vn 0.939000 0.179000 0.293700
vn -0.005100 0.525600 0.850700
vn -0.941100 0.173800 0.290000
vn -0.311200 -0.054600 -0.948800
vn -0.771400 0.258000 -0.581700
vn -0.199600 0.679500 -0.706000
vn 0.794300 0.148700 -0.589100
vn 0.305400 0.081700 -0.948700
vn 0.494500 0.748400 -0.442000
vn 0.629600 0.651700 0.422900
vn 0.859000 0.510900 -0.032600
vn 0.383900 0.895700 0.224500
vn -0.215500 0.744100 0.632400
vn 0.202000 0.778200 0.594700
vn -0.134900 0.919900 0.368300
vn -0.899600 0.435500 -0.032100
vn -0.592900 0.699100 0.399800
vn -0.542300 0.837400 -0.068300
vn 0.000200 0.997700 -0.067500
vt 0.496917 0.408116
vt 0.526809 0.420453
vt 0.498670 0.441954
vt 0.250090 0.171981
vt 0.223973 0.164903
vt 0.243075 0.135885
vt 0.468295 0.414948
vt 0.477662 0.376757
vt 0.513826 0.380159
vt 0.274461 0.154729
vt 0.093366 0.415658
vt 0.064720 0.423238
vt 0.074488 0.390394
vt 0.159164 0.168189
vt 0.165654 0.199944
vt 0.134500 0.191521
vt 0.158436 0.024210
vt 0.165781 0.050940
vt 0.134218 0.028118
vt 0.568108 0.032009
vt 0.575955 0.061537
vt 0.544932 0.043927
vt 0.274756 0.195394
vt 0.110743 0.390394
vt 0.134831 0.149404
vt 0.568108 0.161258
vt 0.543115 0.179878
vt 0.544933 0.152803
vt 0.543115 0.012281
vt 0.363567 0.235357
vt 0.370051 0.208115
vt 0.390221 0.218064
vt 0.159191 0.305181
vt 0.129937 0.297331
vt 0.150075 0.279982
vt 0.046758 0.086916
vt 0.039812 0.123058
vt 0.019897 0.094556
vt 0.457624 0.098546
vt 0.450046 0.127051
vt 0.429750 0.096609
vt 0.362515 0.090533
vt 0.369755 0.059290
vt 0.389334 0.096069
vt 0.330754 0.401701
vt 0.302217 0.431681
vt 0.301413 0.394647
vt 0.363006 0.409605
vt 0.334662 0.443249
vt 0.389953 0.416382
vt 0.367237 0.451327
vt 0.303269 0.472362
vt 0.335831 0.484320
vt 0.304342 0.506322
vt 0.398107 0.063496
vt 0.373230 0.028078
vt 0.365230 0.487728
vt 0.445609 0.034338
vt 0.450046 0.068329
vt 0.420247 0.062754
vt 0.272662 0.410584
vt 0.270730 0.453024
vt 0.271899 0.494096
vt 0.241400 0.428198
vt 0.239373 0.470877
vt 0.215675 0.443029
vt 0.420247 0.127378
vt 0.445609 0.157261
vt 0.243623 0.506322
vt 0.216737 0.480349
vt 0.011070 0.064810
vt 0.039481 0.057644
vt 0.282932 0.367565
vt 0.249506 0.382463
vt 0.218149 0.400316
vt 0.262899 0.338147
vt 0.229451 0.352973
vt 0.246485 0.313973
vt 0.011434 0.136799
vt 0.036636 0.166563
vt 0.011070 0.183150
vt 0.039151 0.207293
vt 0.018904 0.220909
vt 0.045580 0.236912
vt 0.318835 0.362075
vt 0.300321 0.329078
vt 0.280266 0.299589
vt 0.338055 0.326655
vt 0.319778 0.293547
vt 0.354195 0.297503
vt 0.264165 0.281687
vt 0.093278 0.293991
vt 0.114973 0.271042
vt 0.299908 0.270562
vt 0.057427 0.297331
vt 0.075073 0.271042
vt 0.335972 0.270707
vt 0.030073 0.305181
vt 0.041309 0.279982
vt 0.352950 0.366646
vt 0.372408 0.331114
vt 0.385525 0.374724
vt 0.383794 0.304843
vt 0.372612 0.169367
vt 0.398107 0.182529
vt 0.397782 0.137776
vt 0.369460 0.126785
vt 0.337779 0.067276
vt 0.306294 0.044795
vt 0.341369 0.031809
vt 0.275008 0.029587
vt 0.306829 0.011070
vt 0.512866 0.025337
vt 0.478724 0.045898
vt 0.476725 0.011070
vt 0.514353 0.061475
vt 0.482886 0.081293
vt 0.482886 0.117585
vt 0.514354 0.137446
vt 0.478725 0.150463
vt 0.512866 0.169842
vt 0.476725 0.180259
vt 0.067862 0.030447
vt 0.035944 0.029631
vt 0.102971 0.041540
vt 0.102372 0.011070
vt 0.071501 0.063333
vt 0.071705 0.103762
vt 0.103399 0.126170
vt 0.068451 0.146929
vt 0.103186 0.172044
vt 0.068086 0.193281
vt 0.102707 0.214335
vt 0.070713 0.230114
vt 0.147710 0.328352
vt 0.130480 0.358927
vt 0.112369 0.324274
vt 0.092028 0.358414
vt 0.072470 0.324274
vt 0.054586 0.358928
vt 0.038943 0.328352
vt 0.338483 0.230985
vt 0.306530 0.217241
vt 0.341168 0.196749
vt 0.306102 0.177164
vt 0.340843 0.151996
vt 0.305912 0.132115
vt 0.337597 0.108989
vt 0.514866 0.100105
vt 0.549007 0.079544
vt 0.549008 0.119484
vt 0.579294 0.098337
vt 0.575956 0.134120
vt 0.103325 0.081201
vt 0.137836 0.061823
vt 0.138060 0.106316
vt 0.169042 0.089312
vt 0.166189 0.131796
vt 0.178832 0.330175
vt 0.102008 0.248903
vt 0.137107 0.227666
vt 0.166179 0.360419
vt 0.180089 0.396565
vt 0.145838 0.394559
vt 0.167921 0.231968
vt 0.156938 0.427680
vt 0.123382 0.423238
vt 0.011403 0.330175
vt 0.021820 0.360420
vt 0.041379 0.394559
vt 0.307154 0.248422
vt 0.011070 0.396565
vt 0.272087 0.228837
vt 0.034139 0.427680
vt 0.241212 0.230403
vt 0.243553 0.201682
vt 0.305978 0.086504
vt 0.271237 0.111673
vt 0.271438 0.065766
vt 0.240212 0.092669
vt 0.243440 0.052457
vt 0.250740 0.023422
vt 0.548686 0.314549
vt 0.529952 0.278342
vt 0.558991 0.291285
vt 0.532660 0.346356
vt 0.513665 0.305356
vt 0.494483 0.341458
vt 0.493445 0.270562
vt 0.473866 0.301611
vt 0.457624 0.271536
vt 0.456959 0.339233
vt 0.440194 0.304342
vt 0.430198 0.279168
vt 0.412093 0.306326
vt 0.423759 0.339898
vt 0.444376 0.379745
vt 0.193310 0.076823
vt 0.413450 0.381928
vt 0.193535 0.121315
vt 0.437350 0.419180
vt 0.412093 0.418916
vt 0.185238 0.163032
vt 0.436569 0.453679
vt 0.467495 0.451496
vt 0.192946 0.196313
vt 0.469998 0.483400
vt 0.162695 0.455048
vt 0.128444 0.453042
vt 0.500934 0.475712
vt 0.097396 0.470170
vt 0.094938 0.443536
vt 0.579099 0.322038
vt 0.215876 0.076963
vt 0.215675 0.122870
vt 0.567753 0.353445
vt 0.596325 0.362033
vt 0.582041 0.397789
vt 0.548571 0.389548
vt 0.587636 0.435431
vt 0.559839 0.430704
vt 0.063885 0.453042
vt 0.531892 0.457554
vt 0.534394 0.489458
vt 0.565362 0.465796
vt 0.033577 0.455048
vt 0.216200 0.195281
vt 0.290629 0.592614
vt 0.299048 0.553039
vt 0.326081 0.591968
vt 0.489767 0.612575
vt 0.482681 0.643873
vt 0.447856 0.620191
vt 0.299048 0.631377
vt 0.255309 0.616803
vt 0.255309 0.568388
vt 0.466549 0.578612
vt 0.638705 0.091297
vt 0.601434 0.077619
vt 0.635911 0.048591
vt 0.577590 0.612620
vt 0.545038 0.616934
vt 0.554472 0.576640
vt 0.655831 0.614860
vt 0.619587 0.620227
vt 0.646535 0.579992
vt 0.688636 0.379377
vt 0.649726 0.363505
vt 0.691298 0.341482
vt 0.512929 0.576598
vt 0.677535 0.073350
vt 0.600545 0.578676
vt 0.618465 0.336252
vt 0.618465 0.294325
vt 0.650052 0.316134
vt 0.726448 0.360688
vt 0.121565 0.600183
vt 0.085586 0.622277
vt 0.098817 0.582717
vt 0.709520 0.053193
vt 0.677535 0.026194
vt 0.710406 0.018983
vt 0.623435 0.544169
vt 0.581419 0.536406
vt 0.615588 0.511598
vt 0.689193 0.298784
vt 0.660038 0.272303
vt 0.707455 0.270562
vt 0.043213 0.625620
vt 0.011070 0.598041
vt 0.052763 0.597669
vt 0.024301 0.558482
vt 0.065723 0.558317
vt 0.726775 0.313317
vt 0.052764 0.519312
vt 0.011070 0.519684
vt 0.043214 0.492310
vt 0.098817 0.534290
vt 0.085586 0.495492
vt 0.121564 0.517793
vt 0.131640 0.558898
vt 0.485966 0.536364
vt 0.443897 0.544125
vt 0.452310 0.511598
vt 0.420894 0.579957
vt 0.412093 0.538540
vt 0.655831 0.538536
vt 0.545050 0.540707
vt 0.638706 0.011070
vt 0.522801 0.540698
vt 0.710406 0.095284
vt 0.668783 0.117681
vt 0.601435 0.030462
vt 0.522898 0.616932
vt 0.412093 0.614864
vt 0.215675 0.592226
vt 0.223200 0.550801
vt 0.223199 0.633170
vt 0.259414 0.655215
vt 0.585282 0.643871
vt 0.330187 0.630380
vt 0.621750 0.120318
vt 0.259415 0.528462
vt 0.330187 0.552041
vt 0.813417 0.695293
vt 0.829067 0.513311
vt 0.836892 0.513346
vt 0.836892 0.695399
vt 0.732547 0.195239
vt 0.746879 0.011147
vt 0.754106 0.011070
vt 0.754226 0.195008
vt 0.761295 0.011147
vt 0.775795 0.195239
vt 0.412093 0.841299
vt 0.412259 0.666956
vt 0.420037 0.666014
vt 0.435428 0.838471
vt 0.426299 0.666956
vt 0.454213 0.841299
vt 0.264626 0.938037
vt 0.256840 0.939709
vt 0.250596 0.934732
vt 0.250596 0.926854
vt 0.256840 0.922006
vt 0.264626 0.923840
vt 0.268091 0.930975
vt 0.812844 0.455624
vt 0.820612 0.270562
vt 0.828606 0.270562
vt 0.836824 0.455624
vt 0.795042 0.690156
vt 0.822942 0.511598
vt 0.057231 0.906882
vt 0.057231 0.930673
vt 0.040756 0.944319
vt 0.020213 0.937544
vt 0.011070 0.915451
vt 0.020213 0.894675
vt 0.040756 0.890861
vt 0.915861 0.425231
vt 0.925642 0.271368
vt 0.929555 0.271322
vt 0.929555 0.425069
vt 0.859032 0.668172
vt 0.867985 0.511637
vt 0.871599 0.511598
vt 0.871679 0.668038
vt 0.875194 0.511637
vt 0.884261 0.668172
vt 0.909823 0.160391
vt 0.909823 0.011477
vt 0.913720 0.011070
vt 0.923461 0.158966
vt 0.916843 0.011593
vt 0.934390 0.160796
vt 0.162498 0.620381
vt 0.160772 0.623969
vt 0.156891 0.624908
vt 0.153780 0.622493
vt 0.153780 0.618540
vt 0.156891 0.616028
vt 0.160772 0.616847
vt 0.936896 0.874614
vt 0.941858 0.717539
vt 0.945855 0.717539
vt 0.950884 0.874614
vt 0.905095 0.422409
vt 0.922566 0.270562
vt 0.751043 0.899733
vt 0.756633 0.912436
vt 0.751043 0.923593
vt 0.738483 0.924803
vt 0.728410 0.915154
vt 0.728410 0.901913
vt 0.738483 0.895050
vt 0.858964 0.453326
vt 0.866111 0.270562
vt 0.874108 0.270562
vt 0.882956 0.453326
vt 0.128141 0.831163
vt 0.147686 0.647999
vt 0.153915 0.647760
vt 0.146826 0.830446
vt 0.161723 0.647999
vt 0.170250 0.831163
vt 0.797935 0.187637
vt 0.812884 0.011935
vt 0.820060 0.011070
vt 0.819464 0.185040
vt 0.827300 0.011935
vt 0.841182 0.187637
vt 0.294250 0.938231
vt 0.290841 0.931039
vt 0.294250 0.923818
vt 0.301912 0.922006
vt 0.308057 0.926967
vt 0.308057 0.934966
vt 0.301912 0.939979
vt 0.748915 0.453738
vt 0.776530 0.270562
vt 0.784334 0.271430
vt 0.772326 0.456343
vt 0.790460 0.271430
vt 0.790704 0.456343
vt 0.863322 0.219762
vt 0.872559 0.197651
vt 0.893313 0.190688
vt 0.909957 0.204114
vt 0.909957 0.227821
vt 0.893313 0.243956
vt 0.872559 0.240369
vt 0.366007 0.962026
vt 0.370179 0.807603
vt 0.374178 0.807603
vt 0.380002 0.962026
vt 0.890192 0.873526
vt 0.903059 0.717659
vt 0.906173 0.717539
vt 0.901092 0.873108
vt 0.910077 0.717659
vt 0.914756 0.873526
vt 0.906401 0.662022
vt 0.915841 0.512031
vt 0.919429 0.511598
vt 0.918960 0.660508
vt 0.923049 0.512031
vt 0.931628 0.662022
vt 0.193400 0.622395
vt 0.190273 0.624857
vt 0.186374 0.623997
vt 0.184638 0.620464
vt 0.186374 0.616917
vt 0.190273 0.616028
vt 0.193400 0.618465
vt 0.863322 0.168548
vt 0.863322 0.011570
vt 0.867247 0.011479
vt 0.877059 0.168230
vt 0.870282 0.011070
vt 0.887683 0.166798
vt 0.784438 0.227893
vt 0.793649 0.217379
vt 0.806419 0.217379
vt 0.813132 0.227893
vt 0.808733 0.241003
vt 0.796534 0.246838
vt 0.785722 0.241003
vt 0.746615 0.235541
vt 0.762298 0.232048
vt 0.750934 0.247240
vt 0.750934 0.217379
vt 0.732546 0.241961
vt 0.732546 0.223505
vt 0.921544 0.465983
vt 0.905096 0.473968
vt 0.905096 0.455719
vt 0.708882 0.158256
vt 0.709700 0.173827
vt 0.692658 0.167906
vt 0.709700 0.142458
vt 0.692658 0.148519
vt 0.811598 0.928780
vt 0.795042 0.920710
vt 0.811510 0.910483
vt 0.692658 0.221128
vt 0.692658 0.201748
vt 0.708882 0.211311
vt 0.921698 0.447371
vt 0.795042 0.902138
vt 0.709699 0.195967
vt 0.709699 0.227324
vt 0.450081 0.208385
vt 0.450081 0.227768
vt 0.436654 0.217840
vt 0.431643 0.202399
vt 0.420247 0.218082
vt 0.431642 0.233761
vt 0.578946 0.913944
vt 0.584710 0.924526
vt 0.571406 0.919479
vt 0.592932 0.913298
vt 0.571406 0.905131
vt 0.584710 0.901311
vt 0.343751 0.935965
vt 0.331415 0.941954
vt 0.331415 0.928267
vt 0.723696 0.413365
vt 0.724310 0.425043
vt 0.711529 0.420603
vt 0.724310 0.401517
vt 0.711529 0.406063
vt 0.956255 0.467352
vt 0.943838 0.461300
vt 0.956189 0.453630
vt 0.215675 0.940877
vt 0.215675 0.926342
vt 0.227843 0.933514
vt 0.343867 0.922006
vt 0.943838 0.447371
vt 0.228456 0.922006
vt 0.228456 0.945524
vt 0.093196 0.914389
vt 0.079371 0.909895
vt 0.089564 0.902620
vt 0.101740 0.902625
vt 0.093196 0.890861
vt 0.079371 0.895354
vt 0.624780 0.913944
vt 0.630544 0.924526
vt 0.617240 0.919479
vt 0.638766 0.913298
vt 0.617240 0.905131
vt 0.630544 0.901311
vt 0.949232 0.910713
vt 0.936896 0.916702
vt 0.936896 0.903015
vt 0.723696 0.459032
vt 0.724310 0.470710
vt 0.711528 0.466269
vt 0.724310 0.447183
vt 0.711528 0.451729
vt 0.091787 0.956510
vt 0.079371 0.950458
vt 0.091721 0.942788
vt 0.833738 0.921009
vt 0.833738 0.906474
vt 0.845906 0.913646
vt 0.949348 0.896754
vt 0.079371 0.936529
vt 0.846519 0.902138
vt 0.846519 0.925656
vt 0.904017 0.919193
vt 0.890192 0.914700
vt 0.900386 0.907425
vt 0.912561 0.907430
vt 0.904017 0.895666
vt 0.890192 0.900159
vt 0.712708 0.723528
vt 0.736993 0.743532
vt 0.704746 0.755471
vt 0.755927 0.753287
vt 0.762397 0.718486
vt 0.684816 0.720313
vt 0.704746 0.686645
vt 0.736993 0.700995
vt 0.607087 0.213705
vt 0.601434 0.175947
vt 0.628244 0.193753
vt 0.814788 0.766506
vt 0.795042 0.747024
vt 0.822800 0.738812
vt 0.268770 0.755138
vt 0.262640 0.785463
vt 0.240751 0.769407
vt 0.289351 0.689600
vt 0.283971 0.720393
vt 0.266032 0.690670
vt 0.264166 0.824792
vt 0.268701 0.855671
vt 0.243096 0.838646
vt 0.630399 0.234289
vt 0.843057 0.767594
vt 0.253934 0.729192
vt 0.264166 0.884748
vt 0.241279 0.899866
vt 0.243096 0.873887
vt 0.241279 0.807603
vt 0.061096 0.647760
vt 0.088052 0.668280
vt 0.059112 0.673504
vt 0.011070 0.680967
vt 0.032253 0.656189
vt 0.029708 0.693023
vt 0.238250 0.704571
vt 0.222812 0.739685
vt 0.215675 0.707648
vt 0.083727 0.767982
vt 0.053776 0.770526
vt 0.072414 0.744168
vt 0.106001 0.701538
vt 0.101354 0.738944
vt 0.085507 0.705114
vt 0.056765 0.710426
vt 0.037929 0.736696
vt 0.025057 0.755268
vt 0.011070 0.719380
vt 0.655455 0.210218
vt 0.649714 0.172752
vt 0.670518 0.178516
vt 0.626490 0.151875
vt 0.652617 0.142458
vt 0.215675 0.825819
vt 0.220605 0.855783
vt 0.215675 0.882840
vt 0.242386 0.677355
vt 0.215821 0.772989
vt 0.854108 0.738812
vt 0.868052 0.766506
vt 0.833588 0.717539
vt 0.653381 0.241717
vt 0.859128 0.793594
vt 0.827820 0.793594
vt 0.806093 0.718241
vt 0.604921 0.241535
vt 0.604103 0.142458
vt 0.730150 0.661599
vt 0.755927 0.680918
vt 0.701064 0.656504
vt 0.677972 0.680918
vt 0.289351 0.755170
vt 0.677972 0.749744
vt 0.798145 0.780881
vt 0.730150 0.772963
vt 0.606142 0.733035
vt 0.630428 0.753038
vt 0.598180 0.764978
vt 0.649362 0.762793
vt 0.655831 0.727993
vt 0.578250 0.729820
vt 0.598180 0.696152
vt 0.630428 0.710502
vt 0.482006 0.737260
vt 0.476353 0.699502
vt 0.503163 0.717308
vt 0.030816 0.841633
vt 0.011070 0.822150
vt 0.038827 0.813939
vt 0.364586 0.755138
vt 0.358457 0.785463
vt 0.336568 0.769407
vt 0.385167 0.689600
vt 0.379787 0.720393
vt 0.361848 0.690670
vt 0.339332 0.824792
vt 0.343867 0.855671
vt 0.318262 0.838646
vt 0.505318 0.757845
vt 0.059085 0.842721
vt 0.349750 0.729192
vt 0.339332 0.884748
vt 0.316445 0.899866
vt 0.318262 0.873888
vt 0.316445 0.807603
vt 0.727997 0.511598
vt 0.754954 0.532118
vt 0.726014 0.537343
vt 0.677971 0.544806
vt 0.699155 0.520027
vt 0.696609 0.556862
vt 0.334066 0.704571
vt 0.318628 0.739685
vt 0.311491 0.707648
vt 0.750628 0.631820
vt 0.720678 0.634364
vt 0.739316 0.608007
vt 0.772902 0.565376
vt 0.768256 0.602782
vt 0.752408 0.568953
vt 0.723666 0.574265
vt 0.704830 0.600534
vt 0.691958 0.619106
vt 0.677971 0.583219
vt 0.530374 0.733773
vt 0.524633 0.696307
vt 0.545437 0.702071
vt 0.501409 0.675431
vt 0.527536 0.666014
vt 0.290841 0.825819
vt 0.295771 0.855783
vt 0.290841 0.882841
vt 0.338202 0.677355
vt 0.311638 0.772989
vt 0.070135 0.813939
vt 0.084080 0.841633
vt 0.049616 0.792666
vt 0.528300 0.765272
vt 0.075155 0.868721
vt 0.043847 0.868721
vt 0.022120 0.793368
vt 0.479840 0.765091
vt 0.479022 0.666014
vt 0.623584 0.671106
vt 0.649362 0.690425
vt 0.594499 0.666011
vt 0.571406 0.690424
vt 0.385167 0.755170
vt 0.571406 0.759251
vt 0.014173 0.856008
vt 0.623584 0.782470
vt 0.962917 0.613348
vt 0.962917 0.512193
vt 0.975251 0.512150
vt 0.975251 0.613304
vt 0.476353 0.988753
vt 0.476353 0.887361
vt 0.485540 0.887538
vt 0.485540 0.988930
vt 0.497871 0.887524
vt 0.497871 0.988916
vt 0.412093 0.965175
vt 0.412093 0.864022
vt 0.421402 0.863439
vt 0.421402 0.964592
vt 0.433722 0.863500
vt 0.433722 0.964653
vt 0.153780 0.593697
vt 0.153780 0.492310
vt 0.163199 0.492501
vt 0.163199 0.593888
vt 0.553968 0.223478
vt 0.545239 0.232211
vt 0.532894 0.232213
vt 0.524164 0.223482
vt 0.524164 0.211134
vt 0.532894 0.202401
vt 0.545239 0.202399
vt 0.553968 0.211130
vt 0.175506 0.492477
vt 0.175506 0.593863
vt 0.953768 0.612753
vt 0.953768 0.511598
vt 0.520011 0.908456
vt 0.520011 0.896107
vt 0.528300 0.887369
vt 0.540022 0.887361
vt 0.548310 0.896087
vt 0.548310 0.908435
vt 0.540022 0.917173
vt 0.528300 0.917182
vt 0.965680 0.112819
vt 0.965680 0.011665
vt 0.978013 0.011621
vt 0.978013 0.112776
vt 0.956530 0.236351
vt 0.956530 0.134959
vt 0.965717 0.135136
vt 0.965717 0.236528
vt 0.978048 0.135122
vt 0.978048 0.236514
vt 0.951695 0.372298
vt 0.951695 0.271145
vt 0.961004 0.270562
vt 0.961004 0.371715
vt 0.973324 0.270623
vt 0.973324 0.371776
vt 0.352327 0.629848
vt 0.352327 0.528462
vt 0.361746 0.528653
vt 0.361746 0.630039
vt 0.502024 0.223478
vt 0.493295 0.232211
vt 0.480950 0.232213
vt 0.472221 0.223482
vt 0.472221 0.211134
vt 0.480950 0.202401
vt 0.493295 0.202399
vt 0.502024 0.211130
vt 0.374053 0.528628
vt 0.374053 0.630015
vt 0.956530 0.112225
vt 0.956530 0.011070
vt 0.677972 0.916146
vt 0.677971 0.903797
vt 0.686260 0.895059
vt 0.697982 0.895051
vt 0.706270 0.903776
vt 0.706270 0.916125
vt 0.697982 0.924863
vt 0.686260 0.924871
vt 0.615497 0.842346
vt 0.620449 0.819067
vt 0.636351 0.841966
vt 0.522044 0.846810
vt 0.517876 0.865221
vt 0.497390 0.851290
vt 0.620449 0.865148
vt 0.594720 0.856576
vt 0.594720 0.828096
vt 0.508387 0.826832
vt 0.816966 0.862927
vt 0.795042 0.854881
vt 0.815323 0.837806
vt 0.697119 0.854528
vt 0.677972 0.857065
vt 0.683521 0.833363
vt 0.743144 0.855845
vt 0.721824 0.859002
vt 0.737676 0.835335
vt 0.169418 0.917311
vt 0.146529 0.907975
vt 0.170984 0.895021
vt 0.535668 0.825647
vt 0.839807 0.852370
vt 0.710623 0.834560
vt 0.128141 0.891944
vt 0.128141 0.867281
vt 0.146722 0.880110
vt 0.191660 0.906318
vt 0.683462 0.464971
vt 0.662298 0.477968
vt 0.670081 0.454697
vt 0.858622 0.840513
vt 0.839808 0.824631
vt 0.859144 0.820389
vt 0.724088 0.814262
vt 0.699372 0.809696
vt 0.719471 0.795103
vt 0.169745 0.869904
vt 0.152596 0.854327
vt 0.180488 0.853303
vt 0.637373 0.479934
vt 0.618465 0.463711
vt 0.642991 0.463492
vt 0.626248 0.440441
vt 0.650614 0.440344
vt 0.191853 0.878453
vt 0.642991 0.417400
vt 0.618465 0.417619
vt 0.637373 0.401517
vt 0.670081 0.426211
vt 0.662298 0.403388
vt 0.683462 0.416506
vt 0.689389 0.440686
vt 0.519808 0.801980
vt 0.495061 0.806545
vt 0.500010 0.787412
vt 0.481530 0.827623
vt 0.476353 0.803260
vt 0.743144 0.810949
vt 0.677979 0.812226
vt 0.816967 0.815734
vt 0.541476 0.804529
vt 0.859144 0.865272
vt 0.834659 0.878447
vt 0.795043 0.827142
vt 0.541533 0.849373
vt 0.476353 0.848156
vt 0.571406 0.842119
vt 0.575832 0.817751
vt 0.575832 0.866203
vt 0.597135 0.879171
vt 0.701644 0.872910
vt 0.638766 0.864562
vt 0.806993 0.879998
vt 0.597135 0.804610
vt 0.638766 0.818480
s 1
usemtl mob_kelinci_mat.002
f 1/1/1 16/2/2 15/3/3
f 2/4/4 18/5/5 24/6/6
f 1/1/1 15/3/3 30/7/7
f 1/1/1 30/7/7 36/8/8
f 1/1/1 36/8/8 25/9/9
f 2/4/4 24/6/6 45/10/10
f 3/11/11 21/12/12 51/13/13
f 4/14/14 33/15/15 57/16/16
f 5/17/17 39/18/18 63/19/19
f 6/20/20 42/21/21 69/22/22
f 2/4/4 45/10/10 52/23/23
f 3/11/11 51/13/13 58/24/24
f 4/14/14 57/16/16 64/25/25
f 5/26/17 63/27/19 70/28/26
f 6/20/20 69/22/22 46/29/27
f 7/30/28 75/31/29 90/32/30
f 8/33/31 78/34/32 96/35/33
f 9/36/34 81/37/35 99/38/36
f 10/39/37 84/40/38 102/41/39
f 11/42/40 87/43/41 91/44/42
f 93/45/43 100/46/44 12/47/45
f 92/48/46 103/49/47 93/45/43
f 91/50/42 104/51/48 92/48/46
f 93/45/43 103/49/47 100/46/44
f 103/49/47 101/52/49 100/46/44
f 92/48/46 104/51/48 103/49/47
f 104/51/48 105/53/50 103/49/47
f 103/49/47 105/53/50 101/52/49
f 105/53/50 102/54/39 101/52/49
f 91/44/42 87/43/41 104/55/48
f 87/43/41 86/56/51 104/55/48
f 104/51/48 86/57/51 105/53/50
f 86/58/51 85/59/52 105/60/50
f 105/60/50 85/59/52 102/41/39
f 85/59/52 10/39/37 102/41/39
f 100/46/44 97/61/53 12/47/45
f 101/52/49 106/62/54 100/46/44
f 102/54/39 107/63/55 101/52/49
f 100/46/44 106/62/54 97/61/53
f 106/62/54 98/64/56 97/61/53
f 101/52/49 107/63/55 106/62/54
f 107/63/55 108/65/57 106/62/54
f 106/62/54 108/65/57 98/64/56
f 108/65/57 99/66/36 98/64/56
f 102/41/39 84/40/38 107/67/55
f 84/40/38 83/68/58 107/67/55
f 107/63/55 83/69/58 108/65/57
f 83/69/58 82/70/59 108/65/57
f 108/71/57 82/72/59 99/38/36
f 82/72/59 9/36/34 99/38/36
f 97/61/53 94/73/60 12/47/45
f 98/64/56 109/74/61 97/61/53
f 99/66/36 110/75/62 98/64/56
f 97/61/53 109/74/61 94/73/60
f 109/74/61 95/76/63 94/73/60
f 98/64/56 110/75/62 109/74/61
f 110/75/62 111/77/64 109/74/61
f 109/74/61 111/77/64 95/76/63
f 111/77/64 96/78/33 95/76/63
f 99/38/36 81/37/35 110/79/62
f 81/37/35 80/80/65 110/79/62
f 110/79/62 80/80/65 111/81/64
f 80/80/65 79/82/66 111/81/64
f 111/81/64 79/82/66 96/83/33
f 79/82/66 8/84/31 96/83/33
f 94/73/60 88/85/67 12/47/45
f 95/76/63 112/86/68 94/73/60
f 96/78/33 113/87/69 95/76/63
f 94/73/60 112/86/68 88/85/67
f 112/86/68 89/88/70 88/85/67
f 95/76/63 113/87/69 112/86/68
f 113/87/69 114/89/71 112/86/68
f 112/86/68 114/89/71 89/88/70
f 114/89/71 90/90/30 89/88/70
f 96/78/33 78/91/32 113/87/69
f 78/34/32 77/92/72 113/93/69
f 113/87/69 77/94/72 114/89/71
f 77/92/72 76/95/73 114/96/71
f 114/89/71 76/97/73 90/90/30
f 76/95/73 7/98/28 90/99/30
f 88/85/67 93/45/43 12/47/45
f 89/88/70 115/100/74 88/85/67
f 90/90/30 116/101/75 89/88/70
f 88/85/67 115/100/74 93/45/43
f 115/100/74 92/48/46 93/45/43
f 89/88/70 116/101/75 115/100/74
f 116/101/75 117/102/76 115/100/74
f 115/100/74 117/102/76 92/48/46
f 117/102/76 91/50/42 92/48/46
f 90/90/30 75/103/29 116/101/75
f 75/31/29 74/104/77 116/105/75
f 116/105/75 74/104/77 117/106/76
f 74/104/77 73/107/78 117/106/76
f 117/106/76 73/107/78 91/44/42
f 73/107/78 11/42/40 91/44/42
f 48/108/79 87/43/41 11/42/40
f 47/109/80 118/110/81 48/108/79
f 46/111/27 119/112/82 47/109/80
f 48/108/79 118/110/81 87/43/41
f 118/110/81 86/56/51 87/43/41
f 47/109/80 119/112/82 118/110/81
f 119/113/82 120/114/83 118/115/81
f 118/115/81 120/114/83 86/58/51
f 120/114/83 85/59/52 86/58/51
f 46/29/27 69/22/22 119/113/82
f 69/22/22 68/116/84 119/113/82
f 119/113/82 68/116/84 120/114/83
f 68/116/84 67/117/85 120/114/83
f 120/114/83 67/117/85 85/59/52
f 67/117/85 10/39/37 85/59/52
f 72/118/86 84/40/38 10/39/37
f 71/119/87 121/120/88 72/118/86
f 70/28/26 122/121/89 71/119/87
f 72/118/86 121/120/88 84/40/38
f 121/120/88 83/68/58 84/40/38
f 71/119/87 122/121/89 121/120/88
f 122/121/89 123/122/90 121/120/88
f 121/120/88 123/122/90 83/68/58
f 123/123/90 82/72/59 83/124/58
f 70/28/26 63/27/19 122/121/89
f 63/19/19 62/125/91 122/126/89
f 122/126/89 62/125/91 123/123/90
f 62/125/91 61/127/92 123/123/90
f 123/123/90 61/127/92 82/72/59
f 61/127/92 9/36/34 82/72/59
f 66/128/93 81/37/35 9/36/34
f 65/129/94 124/130/95 66/128/93
f 64/25/25 125/131/96 65/129/94
f 66/128/93 124/130/95 81/37/35
f 124/130/95 80/80/65 81/37/35
f 65/129/94 125/131/96 124/130/95
f 125/131/96 126/132/97 124/130/95
f 124/130/95 126/132/97 80/80/65
f 126/132/97 79/82/66 80/80/65
f 64/25/25 57/16/16 125/131/96
f 57/16/16 56/133/98 125/131/96
f 125/131/96 56/133/98 126/132/97
f 56/133/98 55/134/99 126/132/97
f 126/132/97 55/134/99 79/82/66
f 55/134/99 8/84/31 79/82/66
f 60/135/100 78/34/32 8/33/31
f 59/136/101 127/137/102 60/135/100
f 58/24/24 128/138/103 59/136/101
f 60/135/100 127/137/102 78/34/32
f 127/137/102 77/92/72 78/34/32
f 59/136/101 128/138/103 127/137/102
f 128/138/103 129/139/104 127/137/102
f 127/137/102 129/139/104 77/92/72
f 129/139/104 76/95/73 77/92/72
f 58/24/24 51/13/13 128/138/103
f 51/13/13 50/140/105 128/138/103
f 128/138/103 50/140/105 129/139/104
f 50/140/105 49/141/106 129/139/104
f 129/139/104 49/141/106 76/95/73
f 49/141/106 7/98/28 76/95/73
f 54/142/107 75/31/29 7/30/28
f 53/143/108 130/144/109 54/142/107
f 52/23/23 131/145/110 53/143/108
f 54/142/107 130/144/109 75/31/29
f 130/144/109 74/104/77 75/31/29
f 53/143/108 131/145/110 130/144/109
f 131/145/110 132/146/111 130/144/109
f 130/144/109 132/146/111 74/104/77
f 132/146/111 73/107/78 74/104/77
f 52/23/23 45/10/10 131/145/110
f 45/10/10 44/147/112 131/145/110
f 131/145/110 44/147/112 132/146/111
f 44/147/112 43/148/113 132/146/111
f 132/146/111 43/148/113 73/107/78
f 43/148/113 11/42/40 73/107/78
f 67/117/85 72/118/86 10/39/37
f 68/116/84 133/149/114 67/117/85
f 69/22/22 134/150/115 68/116/84
f 67/117/85 133/149/114 72/118/86
f 133/149/114 71/119/87 72/118/86
f 68/116/84 134/150/115 133/149/114
f 134/150/115 135/151/116 133/149/114
f 133/149/114 135/151/116 71/119/87
f 135/151/116 70/28/26 71/119/87
f 69/22/22 42/21/21 134/150/115
f 42/21/21 41/152/117 134/150/115
f 134/150/115 41/152/117 135/151/116
f 41/152/117 40/153/118 135/151/116
f 135/151/116 40/153/118 70/28/26
f 40/153/118 5/26/17 70/28/26
f 61/127/92 66/128/93 9/36/34
f 62/125/91 136/154/119 61/127/92
f 63/19/19 137/155/120 62/125/91
f 61/127/92 136/154/119 66/128/93
f 136/154/119 65/129/94 66/128/93
f 62/125/91 137/155/120 136/154/119
f 137/155/120 138/156/121 136/154/119
f 136/154/119 138/156/121 65/129/94
f 138/156/121 64/25/25 65/129/94
f 63/19/19 39/18/18 137/155/120
f 39/18/18 38/157/122 137/155/120
f 137/155/120 38/157/122 138/156/121
f 38/157/122 37/158/123 138/156/121
f 138/156/121 37/158/123 64/25/25
f 37/158/123 4/14/14 64/25/25
f 55/159/99 60/135/100 8/33/31
f 56/133/98 139/160/124 55/134/99
f 57/16/16 140/161/125 56/133/98
f 55/159/99 139/162/124 60/135/100
f 139/162/124 59/136/101 60/135/100
f 56/133/98 140/161/125 139/160/124
f 140/163/125 141/164/126 139/162/124
f 139/162/124 141/164/126 59/136/101
f 141/164/126 58/24/24 59/136/101
f 57/16/16 33/15/15 140/161/125
f 33/15/15 32/165/127 140/161/125
f 140/163/125 32/166/127 141/164/126
f 32/166/127 31/167/128 141/164/126
f 141/164/126 31/167/128 58/24/24
f 31/167/128 3/11/11 58/24/24
f 49/141/106 54/168/107 7/98/28
f 50/140/105 142/169/129 49/141/106
f 51/13/13 143/170/130 50/140/105
f 49/141/106 142/169/129 54/168/107
f 142/171/129 53/143/108 54/142/107
f 50/140/105 143/170/130 142/169/129
f 143/170/130 144/172/131 142/169/129
f 142/171/129 144/173/131 53/143/108
f 144/173/131 52/23/23 53/143/108
f 51/13/13 21/12/12 143/170/130
f 21/12/12 20/174/132 143/170/130
f 143/170/130 20/174/132 144/172/131
f 20/175/132 19/176/133 144/173/131
f 144/173/131 19/176/133 52/23/23
f 19/176/133 2/4/4 52/23/23
f 43/148/113 48/108/79 11/42/40
f 44/147/112 145/177/134 43/148/113
f 45/10/10 146/178/135 44/147/112
f 43/148/113 145/177/134 48/108/79
f 145/177/134 47/109/80 48/108/79
f 44/147/112 146/178/135 145/177/134
f 146/178/135 147/179/136 145/177/134
f 145/177/134 147/179/136 47/109/80
f 147/179/136 46/111/27 47/109/80
f 45/10/10 24/6/6 146/178/135
f 24/6/6 23/180/137 146/178/135
f 146/178/135 23/180/137 147/179/136
f 23/180/137 22/181/138 147/179/136
f 147/179/136 22/181/138 46/111/27
f 22/181/138 6/182/20 46/111/27
f 27/183/139 42/184/21 6/185/20
f 26/186/140 148/187/141 27/183/139
f 25/9/9 149/188/142 26/186/140
f 27/183/139 148/187/141 42/184/21
f 148/187/141 41/189/117 42/184/21
f 26/186/140 149/188/142 148/187/141
f 149/188/142 150/190/143 148/187/141
f 148/187/141 150/190/143 41/189/117
f 150/190/143 40/191/118 41/189/117
f 25/9/9 36/8/8 149/188/142
f 36/8/8 35/192/144 149/188/142
f 149/188/142 35/192/144 150/190/143
f 35/192/144 34/193/145 150/190/143
f 150/190/143 34/193/145 40/191/118
f 34/193/145 5/194/17 40/191/118
f 34/193/145 39/195/18 5/194/17
f 35/192/144 151/196/146 34/193/145
f 36/8/8 152/197/147 35/192/144
f 34/193/145 151/196/146 39/195/18
f 151/198/146 38/157/122 39/18/18
f 35/192/144 152/197/147 151/196/146
f 152/197/147 153/199/148 151/196/146
f 151/198/146 153/200/148 38/157/122
f 153/200/148 37/158/123 38/157/122
f 36/8/8 30/7/7 152/197/147
f 30/7/7 29/201/149 152/197/147
f 152/197/147 29/201/149 153/199/148
f 29/201/149 28/202/150 153/199/148
f 153/200/148 28/203/150 37/158/123
f 28/203/150 4/14/14 37/158/123
f 28/203/150 33/15/15 4/14/14
f 29/201/149 154/204/151 28/202/150
f 30/7/7 155/205/152 29/201/149
f 28/203/150 154/206/151 33/15/15
f 154/206/151 32/165/127 33/15/15
f 29/201/149 155/205/152 154/204/151
f 155/205/152 156/207/153 154/204/151
f 154/208/151 156/209/153 32/166/127
f 156/209/153 31/167/128 32/166/127
f 30/7/7 15/3/3 155/205/152
f 15/3/3 14/210/154 155/205/152
f 155/205/152 14/210/154 156/207/153
f 14/211/154 13/212/155 156/209/153
f 156/209/153 13/212/155 31/167/128
f 13/212/155 3/11/11 31/167/128
f 22/213/138 27/183/139 6/185/20
f 23/180/137 157/214/156 22/181/138
f 24/6/6 158/215/157 23/180/137
f 22/213/138 157/216/156 27/183/139
f 157/216/156 26/186/140 27/183/139
f 23/217/137 158/218/157 157/216/156
f 158/218/157 159/219/158 157/216/156
f 157/216/156 159/219/158 26/186/140
f 159/219/158 25/9/9 26/186/140
f 24/6/6 18/5/5 158/215/157
f 18/220/5 17/221/159 158/218/157
f 158/218/157 17/221/159 159/219/158
f 17/221/159 16/2/2 159/219/158
f 159/219/158 16/2/2 25/9/9
f 16/2/2 1/1/1 25/9/9
f 13/212/155 21/12/12 3/11/11
f 14/211/154 160/222/160 13/212/155
f 15/3/3 161/223/161 14/210/154
f 13/212/155 160/222/160 21/12/12
f 160/222/160 20/174/132 21/12/12
f 14/210/154 161/223/161 160/224/160
f 161/223/161 162/225/162 160/224/160
f 160/222/160 162/226/162 20/174/132
f 162/227/162 19/176/133 20/175/132
f 15/3/3 16/2/2 161/223/161
f 16/2/2 17/221/159 161/223/161
f 161/223/161 17/221/159 162/225/162
f 17/221/159 18/220/5 162/225/162
f 162/227/162 18/5/5 19/176/133
f 18/5/5 2/4/4 19/176/133
f 163/228/163 176/229/164 175/230/165
f 164/231/166 176/232/164 178/233/167
f 163/228/163 175/230/165 180/234/168
f 163/228/163 180/234/168 182/235/169
f 163/228/163 182/235/169 179/236/170
f 164/231/166 178/233/167 185/237/171
f 165/238/172 177/239/173 187/240/174
f 166/241/175 181/242/176 189/243/177
f 167/244/178 183/245/179 191/246/180
f 168/247/181 184/248/182 193/249/183
f 164/231/166 185/237/171 188/250/184
f 165/238/172 187/240/174 190/251/185
f 166/241/175 189/243/177 192/252/186
f 167/253/178 191/254/180 194/255/187
f 168/247/181 193/249/183 186/256/188
f 169/257/189 195/258/190 200/259/191
f 170/260/192 196/261/193 202/262/194
f 171/263/195 197/264/196 203/265/197
f 172/266/198 198/267/199 204/268/200
f 173/269/201 199/270/202 201/271/203
f 201/271/203 204/272/200 174/273/204
f 201/271/203 199/270/202 204/272/200
f 199/274/202 172/266/198 204/268/200
f 204/272/200 203/275/197 174/273/204
f 204/272/200 198/276/199 203/275/197
f 198/276/199 171/277/195 203/275/197
f 203/275/197 202/278/194 174/273/204
f 203/275/197 197/279/196 202/278/194
f 197/279/196 170/280/192 202/278/194
f 202/278/194 200/259/191 174/273/204
f 202/278/194 196/281/193 200/259/191
f 196/281/193 169/257/189 200/259/191
f 200/259/191 201/271/203 174/273/204
f 200/259/191 195/258/190 201/271/203
f 195/282/190 173/283/201 201/284/203
f 186/285/188 199/286/202 173/283/201
f 186/256/188 193/249/183 199/274/202
f 193/249/183 172/266/198 199/274/202
f 194/255/187 198/267/199 172/266/198
f 194/255/187 191/254/180 198/267/199
f 191/246/180 171/263/195 198/287/199
f 192/252/186 197/264/196 171/263/195
f 192/252/186 189/243/177 197/264/196
f 189/243/177 170/288/192 197/264/196
f 190/251/185 196/261/193 170/260/192
f 190/251/185 187/240/174 196/261/193
f 187/240/174 169/289/189 196/261/193
f 188/250/184 195/282/190 169/290/189
f 188/250/184 185/237/171 195/282/190
f 185/237/171 173/283/201 195/282/190
f 193/249/183 194/255/187 172/266/198
f 193/249/183 184/248/182 194/255/187
f 184/248/182 167/253/178 194/255/187
f 191/246/180 192/252/186 171/263/195
f 191/246/180 183/245/179 192/252/186
f 183/245/179 166/241/175 192/252/186
f 189/291/177 190/251/185 170/260/192
f 189/291/177 181/292/176 190/251/185
f 181/292/176 165/238/172 190/251/185
f 187/240/174 188/293/184 169/289/189
f 187/240/174 177/239/173 188/293/184
f 177/294/173 164/231/166 188/250/184
f 185/237/171 186/285/188 173/283/201
f 185/237/171 178/233/167 186/285/188
f 178/233/167 168/295/181 186/285/188
f 179/236/170 184/296/182 168/297/181
f 179/236/170 182/235/169 184/296/182
f 182/235/169 167/298/178 184/296/182
f 182/235/169 183/299/179 167/298/178
f 182/235/169 180/234/168 183/299/179
f 180/300/168 166/241/175 183/245/179
f 180/300/168 181/242/176 166/241/175
f 180/234/168 175/230/165 181/301/176
f 175/302/165 165/238/172 181/292/176
f 178/303/167 179/236/170 168/297/181
f 178/303/167 176/229/164 179/236/170
f 176/229/164 163/228/163 179/236/170
f 175/302/165 177/239/173 165/238/172
f 175/230/165 176/229/164 177/304/173
f 176/232/164 164/231/166 177/294/173
f 205/305/205 206/306/206 208/307/207 207/308/208
f 207/309/208 208/310/207 210/311/209 209/312/210
f 209/312/210 210/311/209 212/313/211 211/314/212
f 211/315/212 212/316/211 214/317/213 213/318/214
f 213/318/214 214/317/213 216/319/215 215/320/216
f 208/321/207 206/322/206 218/323/217 216/324/215 214/325/213 212/326/211 210/327/209
f 215/328/216 216/329/215 218/330/217 217/331/218
f 217/332/218 218/333/217 206/306/206 205/305/205
f 205/334/205 207/335/208 209/336/210 211/337/212 213/338/214 215/339/216 217/340/218
f 219/341/219 220/342/220 222/343/221 221/344/222
f 221/345/222 222/346/221 224/347/223 223/348/224
f 223/348/224 224/347/223 226/349/225 225/350/226
f 225/351/226 226/352/225 228/353/227 227/354/228
f 227/354/228 228/353/227 230/355/229 229/356/230
f 222/357/221 220/358/220 232/359/231 230/360/229 228/361/227 226/362/225 224/363/223
f 229/364/230 230/365/229 232/366/231 231/367/232
f 231/368/232 232/369/231 220/342/220 219/341/219
f 219/370/219 221/371/222 223/372/224 225/373/226 227/374/228 229/375/230 231/376/232
f 233/377/233 234/378/234 236/379/235 235/380/236
f 235/381/236 236/382/235 238/383/237 237/384/238
f 237/384/238 238/383/237 240/385/239 239/386/240
f 239/387/240 240/388/239 242/389/241 241/390/242
f 241/390/242 242/389/241 244/391/243 243/392/244
f 236/393/235 234/394/234 246/395/245 244/396/243 242/397/241 240/398/239 238/399/237
f 243/400/244 244/401/243 246/402/245 245/403/246
f 245/403/246 246/402/245 234/404/234 233/405/233
f 233/406/233 235/407/236 237/408/238 239/409/240 241/410/242 243/411/244 245/412/246
f 247/413/247 248/414/248 250/415/249 249/416/250
f 249/417/250 250/418/249 252/419/251 251/420/252
f 251/420/252 252/419/251 254/421/253 253/422/254
f 253/423/254 254/424/253 256/425/255 255/426/256
f 255/426/256 256/425/255 258/427/257 257/428/258
f 250/429/249 248/430/248 260/431/259 258/432/257 256/433/255 254/434/253 252/435/251
f 257/436/258 258/437/257 260/438/259 259/439/260
f 259/439/260 260/438/259 248/440/248 247/441/247
f 247/442/247 249/443/250 251/444/252 253/445/254 255/446/256 257/447/258 259/448/260
f 261/449/261 262/450/262 263/451/263
f 262/450/262 261/449/261 266/452/264
f 261/449/261 263/451/263 264/453/265
f 261/449/261 264/453/265 265/454/266
f 261/449/261 265/454/266 266/452/264
f 262/455/262 266/456/264 271/457/267
f 263/458/263 262/459/262 267/460/268
f 264/461/265 263/458/263 268/462/269
f 265/463/266 264/464/265 269/465/270
f 266/466/264 265/467/266 270/468/271
f 262/455/262 271/457/267 267/469/268
f 263/458/263 267/460/268 268/462/269
f 264/464/265 268/470/269 269/465/270
f 265/467/266 269/471/270 270/468/271
f 266/466/264 270/468/271 271/472/267
f 267/473/268 271/474/267 272/475/204
f 268/476/269 267/473/268 272/475/204
f 269/477/270 268/476/269 272/475/204
f 270/478/271 269/477/270 272/475/204
f 271/474/267 270/478/271 272/475/204
f 273/479/272 274/480/273 275/481/274
f 274/480/273 273/479/272 278/482/275
f 273/479/272 275/481/274 276/483/276
f 273/479/272 276/483/276 277/484/277
f 273/479/272 277/484/277 278/482/275
f 274/485/273 278/486/275 283/487/278
f 275/488/274 274/489/273 279/490/279
f 276/491/276 275/488/274 280/492/280
f 277/493/277 276/494/276 281/495/281
f 278/496/275 277/497/277 282/498/282
f 274/485/273 283/487/278 279/499/279
f 275/488/274 279/490/279 280/492/280
f 276/494/276 280/500/280 281/495/281
f 277/497/277 281/501/281 282/498/282
f 278/496/275 282/498/282 283/502/278
f 279/503/279 283/504/278 284/505/204
f 280/506/280 279/503/279 284/505/204
f 281/507/281 280/506/280 284/505/204
f 282/508/282 281/507/281 284/505/204
f 283/504/278 282/508/282 284/505/204
f 285/509/272 286/510/273 287/511/283
f 286/510/273 285/509/272 290/512/275
f 285/509/272 287/511/283 288/513/276
f 285/509/272 288/513/276 289/514/284
f 285/509/272 289/514/284 290/512/275
f 286/515/273 290/516/275 295/517/278
f 287/518/283 286/519/273 291/520/285
f 288/521/276 287/518/283 292/522/280
f 289/523/284 288/524/276 293/525/281
f 290/526/275 289/527/284 294/528/286
f 286/515/273 295/517/278 291/529/285
f 287/518/283 291/520/285 292/522/280
f 288/524/276 292/530/280 293/525/281
f 289/527/284 293/531/281 294/528/286
f 290/526/275 294/528/286 295/532/278
f 291/533/285 295/534/278 296/535/204
f 292/536/280 291/533/285 296/535/204
f 293/537/281 292/536/280 296/535/204
f 294/538/286 293/537/281 296/535/204
f 295/534/278 294/538/286 296/535/204
f 297/539/287 310/540/288 309/541/289
f 298/542/290 310/540/288 312/543/291
f 297/539/287 309/541/289 314/544/292
f 297/539/287 314/544/292 316/545/293
f 297/539/287 316/545/293 313/546/294
f 298/547/290 312/548/291 319/549/295
f 299/550/296 311/551/297 321/552/298
f 300/553/299 315/554/300 323/555/301
f 301/556/302 317/557/303 325/558/304
f 302/559/305 318/560/306 327/561/307
f 298/547/290 319/549/295 322/562/308
f 299/550/296 321/552/298 324/563/309
f 300/553/299 323/555/301 326/564/310
f 301/565/302 325/566/304 328/567/311
f 302/559/305 327/561/307 320/568/312
f 303/569/313 329/570/314 334/571/315
f 304/572/316 330/573/317 336/574/318
f 305/575/319 331/576/320 337/577/321
f 306/578/322 332/579/323 338/580/324
f 307/581/325 333/582/326 335/583/327
f 335/583/327 338/580/324 308/584/328
f 335/583/327 333/582/326 338/580/324
f 333/582/326 306/578/322 338/580/324
f 338/580/324 337/585/321 308/584/328
f 338/580/324 332/579/323 337/585/321
f 332/579/323 305/586/319 337/585/321
f 337/585/321 336/574/318 308/584/328
f 337/585/321 331/587/320 336/574/318
f 331/587/320 304/572/316 336/574/318
f 336/574/318 334/571/315 308/584/328
f 336/574/318 330/573/317 334/571/315
f 330/573/317 303/569/313 334/571/315
f 334/571/315 335/583/327 308/584/328
f 334/571/315 329/570/314 335/583/327
f 329/588/314 307/589/325 335/590/327
f 320/591/312 333/592/326 307/589/325
f 320/568/312 327/561/307 333/593/326
f 327/561/307 306/594/322 333/593/326
f 328/567/311 332/595/323 306/594/322
f 328/567/311 325/566/304 332/595/323
f 325/558/304 305/575/319 332/596/323
f 326/564/310 331/576/320 305/575/319
f 326/564/310 323/555/301 331/576/320
f 323/555/301 304/597/316 331/576/320
f 324/563/309 330/598/317 304/599/316
f 324/563/309 321/552/298 330/598/317
f 321/552/298 303/600/313 330/598/317
f 322/562/308 329/588/314 303/601/313
f 322/562/308 319/549/295 329/588/314
f 319/549/295 307/589/325 329/588/314
f 327/561/307 328/567/311 306/594/322
f 327/561/307 318/560/306 328/567/311
f 318/560/306 301/565/302 328/567/311
f 325/558/304 326/564/310 305/575/319
f 325/558/304 317/557/303 326/564/310
f 317/557/303 300/553/299 326/564/310
f 323/602/301 324/563/309 304/599/316
f 323/602/301 315/603/300 324/563/309
f 315/603/300 299/550/296 324/563/309
f 321/552/298 322/604/308 303/600/313
f 321/552/298 311/551/297 322/604/308
f 311/605/297 298/547/290 322/562/308
f 319/549/295 320/591/312 307/589/325
f 319/549/295 312/548/291 320/591/312
f 312/548/291 302/606/305 320/591/312
f 313/546/294 318/607/306 302/608/305
f 313/546/294 316/545/293 318/607/306
f 316/545/293 301/609/302 318/607/306
f 316/545/293 317/610/303 301/609/302
f 316/545/293 314/544/292 317/610/303
f 314/611/292 300/553/299 317/557/303
f 314/611/292 315/554/300 300/553/299
f 314/544/292 309/541/289 315/612/300
f 309/613/289 299/550/296 315/603/300
f 312/543/291 313/546/294 302/608/305
f 312/543/291 310/540/288 313/546/294
f 310/540/288 297/539/287 313/546/294
f 309/613/289 311/551/297 299/550/296
f 309/541/289 310/540/288 311/614/297
f 310/540/288 298/542/290 311/614/297
f 339/615/287 352/616/288 351/617/289
f 340/618/290 352/616/288 354/619/291
f 339/615/287 351/617/289 356/620/292
f 339/615/287 356/620/292 358/621/293
f 339/615/287 358/621/293 355/622/294
f 340/623/290 354/624/291 361/625/295
f 341/626/296 353/627/297 363/628/298
f 342/629/299 357/630/300 365/631/301
f 343/632/302 359/633/303 367/634/304
f 344/635/305 360/636/306 369/637/307
f 340/623/290 361/625/295 364/638/308
f 341/626/296 363/628/298 366/639/309
f 342/629/299 365/631/301 368/640/310
f 343/641/302 367/642/304 370/643/311
f 344/635/305 369/637/307 362/644/312
f 345/645/313 371/646/314 376/647/315
f 346/648/316 372/649/317 378/650/318
f 347/651/319 373/652/320 379/653/321
f 348/654/322 374/655/323 380/656/324
f 349/657/325 375/658/326 377/659/327
f 377/659/327 380/656/324 350/660/328
f 377/659/327 375/658/326 380/656/324
f 375/658/326 348/654/322 380/656/324
f 380/656/324 379/661/321 350/660/328
f 380/656/324 374/655/323 379/661/321
f 374/655/323 347/662/319 379/661/321
f 379/661/321 378/650/318 350/660/328
f 379/661/321 373/663/320 378/650/318
f 373/663/320 346/648/316 378/650/318
f 378/650/318 376/647/315 350/660/328
f 378/650/318 372/649/317 376/647/315
f 372/649/317 345/645/313 376/647/315
f 376/647/315 377/659/327 350/660/328
f 376/647/315 371/646/314 377/659/327
f 371/664/314 349/665/325 377/666/327
f 362/667/312 375/668/326 349/665/325
f 362/644/312 369/637/307 375/669/326
f 369/637/307 348/670/322 375/669/326
f 370/643/311 374/671/323 348/670/322
f 370/643/311 367/642/304 374/671/323
f 367/634/304 347/651/319 374/672/323
f 368/640/310 373/652/320 347/651/319
f 368/640/310 365/631/301 373/652/320
f 365/631/301 346/673/316 373/652/320
f 366/639/309 372/674/317 346/675/316
f 366/639/309 363/628/298 372/674/317
f 363/628/298 345/676/313 372/674/317
f 364/638/308 371/664/314 345/677/313
f 364/638/308 361/625/295 371/664/314
f 361/625/295 349/665/325 371/664/314
f 369/637/307 370/643/311 348/670/322
f 369/637/307 360/636/306 370/643/311
f 360/636/306 343/641/302 370/643/311
f 367/634/304 368/640/310 347/651/319
f 367/634/304 359/633/303 368/640/310
f 359/633/303 342/629/299 368/640/310
f 365/678/301 366/639/309 346/675/316
f 365/678/301 357/679/300 366/639/309
f 357/679/300 341/626/296 366/639/309
f 363/628/298 364/680/308 345/676/313
f 363/628/298 353/627/297 364/680/308
f 353/681/297 340/623/290 364/638/308
f 361/625/295 362/667/312 349/665/325
f 361/625/295 354/624/291 362/667/312
f 354/624/291 344/682/305 362/667/312
f 355/622/294 360/683/306 344/684/305
f 355/622/294 358/621/293 360/683/306
f 358/621/293 343/685/302 360/683/306
f 358/621/293 359/686/303 343/685/302
f 358/621/293 356/620/292 359/686/303
f 356/687/292 342/629/299 359/633/303
f 356/687/292 357/630/300 342/629/299
f 356/620/292 351/617/289 357/688/300
f 351/689/289 341/626/296 357/679/300
f 354/619/291 355/622/294 344/684/305
f 354/619/291 352/616/288 355/622/294
f 352/616/288 339/615/287 355/622/294
f 351/689/289 353/627/297 341/626/296
f 351/617/289 352/616/288 353/690/297
f 352/616/288 340/618/290 353/690/297
f 381/691/329 382/692/330 384/693/331 383/694/332
f 383/695/332 384/696/331 386/697/333 385/698/334
f 385/698/334 386/697/333 388/699/335 387/700/336
f 387/701/336 388/702/335 390/703/337 389/704/338
f 389/704/338 390/703/337 392/705/339 391/706/340
f 391/707/340 392/708/339 394/709/341 393/710/342
f 384/711/331 382/712/330 396/713/343 394/714/341 392/715/339 390/716/337 388/717/335 386/718/333
f 393/710/342 394/709/341 396/719/343 395/720/344
f 395/721/344 396/722/343 382/692/330 381/691/329
f 381/723/329 383/724/332 385/725/334 387/726/336 389/727/338 391/728/340 393/729/342 395/730/344
f 397/731/329 398/732/330 400/733/331 399/734/332
f 399/735/332 400/736/331 402/737/333 401/738/334
f 401/738/334 402/737/333 404/739/335 403/740/336
f 403/741/336 404/742/335 406/743/337 405/744/338
f 405/744/338 406/743/337 408/745/339 407/746/340
f 407/747/340 408/748/339 410/749/341 409/750/342
f 400/751/331 398/752/330 412/753/343 410/754/341 408/755/339 406/756/337 404/757/335 402/758/333
f 409/750/342 410/749/341 412/759/343 411/760/344
f 411/761/344 412/762/343 398/732/330 397/731/329
f 397/763/329 399/764/332 401/765/334 403/766/336 405/767/338 407/768/340 409/769/342 411/770/344
f 413/771/163 426/772/164 425/773/165
f 414/774/345 426/775/164 428/776/346
f 413/771/163 425/773/165 430/777/168
f 413/771/163 430/777/168 432/778/169
f 413/771/163 432/778/169 429/779/170
f 414/774/345 428/776/346 435/780/347
f 415/781/348 427/782/349 437/783/350
f 416/784/351 431/785/352 439/786/353
f 417/787/354 433/788/355 441/789/356
f 418/790/357 434/791/358 443/792/359
f 414/774/345 435/780/347 438/793/360
f 415/781/348 437/783/350 440/794/361
f 416/784/351 439/786/353 442/795/362
f 417/796/354 441/797/356 444/798/363
f 418/790/357 443/792/359 436/799/364
f 419/800/365 445/801/366 450/802/367
f 420/803/368 446/804/369 452/805/370
f 421/806/371 447/807/372 453/808/373
f 422/809/374 448/810/375 454/811/376
f 423/812/377 449/813/378 451/814/379
f 451/814/379 454/815/376 424/816/380
f 451/814/379 449/813/378 454/815/376
f 449/817/378 422/809/374 454/811/376
f 454/815/376 453/818/373 424/816/380
f 454/815/376 448/819/375 453/818/373
f 448/819/375 421/820/371 453/818/373
f 453/818/373 452/821/370 424/816/380
f 453/818/373 447/822/372 452/821/370
f 447/822/372 420/823/368 452/821/370
f 452/821/370 450/802/367 424/816/380
f 452/821/370 446/824/369 450/802/367
f 446/824/369 419/800/365 450/802/367
f 450/802/367 451/814/379 424/816/380
f 450/802/367 445/801/366 451/814/379
f 445/825/366 423/826/377 451/827/379
f 436/828/364 449/829/378 423/826/377
f 436/799/364 443/792/359 449/817/378
f 443/792/359 422/809/374 449/817/378
f 444/798/363 448/810/375 422/809/374
f 444/798/363 441/797/356 448/810/375
f 441/789/356 421/806/371 448/830/375
f 442/795/362 447/807/372 421/806/371
f 442/795/362 439/786/353 447/807/372
f 439/786/353 420/831/368 447/807/372
f 440/794/361 446/804/369 420/803/368
f 440/794/361 437/783/350 446/804/369
f 437/783/350 419/832/365 446/804/369
f 438/793/360 445/825/366 419/833/365
f 438/793/360 435/780/347 445/825/366
f 435/780/347 423/826/377 445/825/366
f 443/792/359 444/798/363 422/809/374
f 443/792/359 434/791/358 444/798/363
f 434/791/358 417/796/354 444/798/363
f 441/789/356 442/795/362 421/806/371
f 441/789/356 433/788/355 442/795/362
f 433/788/355 416/784/351 442/795/362
f 439/834/353 440/794/361 420/803/368
f 439/834/353 431/835/352 440/794/361
f 431/835/352 415/781/348 440/794/361
f 437/783/350 438/836/360 419/832/365
f 437/783/350 427/782/349 438/836/360
f 427/837/349 414/774/345 438/793/360
f 435/780/347 436/828/364 423/826/377
f 435/780/347 428/776/346 436/828/364
f 428/776/346 418/838/357 436/828/364
f 429/779/170 434/839/358 418/840/357
f 429/779/170 432/778/169 434/839/358
f 432/778/169 417/841/354 434/839/358
f 432/778/169 433/842/355 417/841/354
f 432/778/169 430/777/168 433/842/355
f 430/843/168 416/784/351 433/788/355
f 430/843/168 431/785/352 416/784/351
f 430/777/168 425/773/165 431/844/352
f 425/845/165 415/781/348 431/835/352
f 428/846/346 429/779/170 418/840/357
f 428/846/346 426/772/164 429/779/170
f 426/772/164 413/771/163 429/779/170
f 425/845/165 427/782/349 415/781/348
f 425/773/165 426/772/164 427/847/349
f 426/775/164 414/774/345 427/837/349
