# axis-converted-to-Y-up
# Blender 5.1.1
# www.blender.org
mtllib mob_ayam_walk1.mtl
o mob_ayam_walk1
v 3.707865 0.011236 -0.097864
v 3.707865 0.108614 -0.000486
v 3.693961 0.011236 -0.103623
v 3.693961 0.108614 -0.006245
v 3.688202 0.011236 -0.117527
v 3.688202 0.108614 -0.020149
v 3.693961 0.011236 -0.131431
v 3.693961 0.108614 -0.034053
v 3.707865 0.011236 -0.137190
v 3.707865 0.108614 -0.039812
v 3.721769 0.011236 -0.131431
v 3.721769 0.108614 -0.034053
v 3.727528 0.011236 -0.117527
v 3.727528 0.108614 -0.020149
v 3.721769 0.011236 -0.103623
v 3.721769 0.108614 -0.006245
v 3.707865 0.000000 -0.083819
v 3.679409 0.010352 -0.088235
v 3.718734 0.010352 -0.097362
v 3.743039 0.010352 -0.073468
v 3.718734 0.010352 -0.049573
v 3.679409 0.010352 -0.058700
v 3.696996 0.027101 -0.080612
v 3.736321 0.027101 -0.071485
v 3.736321 0.027101 -0.041950
v 3.696996 0.027101 -0.032823
v 3.672691 0.027101 -0.056718
v 3.707865 0.037453 -0.046366
v 3.595505 0.011236 -0.097864
v 3.595505 0.108614 -0.000486
v 3.581601 0.011236 -0.103623
v 3.581601 0.108614 -0.006245
v 3.575842 0.011236 -0.117527
v 3.575842 0.108614 -0.020149
v 3.581601 0.011236 -0.131431
v 3.581601 0.108614 -0.034053
v 3.595505 0.011236 -0.137190
v 3.595505 0.108614 -0.039812
v 3.609409 0.011236 -0.131431
v 3.609409 0.108614 -0.034053
v 3.615168 0.011236 -0.117527
v 3.615168 0.108614 -0.020149
v 3.609409 0.011236 -0.103623
v 3.609409 0.108614 -0.006245
v 3.595505 0.000000 -0.083819
v 3.567049 0.010352 -0.088235
v 3.606375 0.010352 -0.097362
v 3.630680 0.010352 -0.073468
v 3.606375 0.010352 -0.049573
v 3.567049 0.010352 -0.058700
v 3.584636 0.027101 -0.080612
v 3.623962 0.027101 -0.071485
v 3.623962 0.027101 -0.041950
v 3.584636 0.027101 -0.032823
v 3.560331 0.027101 -0.056718
v 3.595505 0.037453 -0.046366
v 3.651685 0.050562 -0.089437
v 3.529729 0.115778 -0.143839
v 3.698267 0.115778 -0.217768
v 3.802432 0.115778 -0.024222
v 3.698267 0.115778 0.169325
v 3.529729 0.115778 0.095396
v 3.605103 0.272465 -0.193546
v 3.773642 0.272465 -0.119617
v 3.773642 0.272465 0.119618
v 3.605103 0.272465 0.193548
v 3.500939 0.272464 0.000001
v 3.651685 0.378721 0.000001
v 3.690925 0.090967 -0.212071
v 3.679066 0.068181 -0.185581
v 3.664765 0.054343 -0.140001
v 3.617441 0.054343 -0.119243
v 3.580002 0.068181 -0.142127
v 3.548953 0.090967 -0.149795
v 3.562032 0.109279 -0.185829
v 3.607381 0.106514 -0.217558
v 3.656681 0.109279 -0.227347
v 3.514708 0.109279 0.036454
v 3.508318 0.106514 -0.033485
v 3.514708 0.109279 -0.097895
v 3.617441 0.054343 -0.052069
v 3.580002 0.068181 -0.001509
v 3.548953 0.090967 0.051730
v 3.778669 0.090967 -0.049032
v 3.740292 0.068181 -0.071818
v 3.694013 0.054343 -0.085656
v 3.733254 0.109279 -0.193759
v 3.767673 0.106514 -0.147249
v 3.791750 0.109279 -0.085066
v 3.690925 0.090967 0.114005
v 3.679066 0.068181 0.041945
v 3.664765 0.054343 -0.031310
v 3.791750 0.109279 0.023626
v 3.767673 0.106514 0.080278
v 3.733254 0.109279 0.132318
v 3.656681 0.109279 0.165906
v 3.607381 0.106514 0.150588
v 3.562032 0.109279 0.124389
v 3.490456 0.234776 -0.033586
v 3.491395 0.186499 -0.070308
v 3.506624 0.138909 -0.101852
v 3.506624 0.138909 0.099672
v 3.491395 0.186499 0.070310
v 3.490456 0.234776 0.033588
v 3.625525 0.234776 -0.217385
v 3.651685 0.186499 -0.227527
v 3.677845 0.138909 -0.218476
v 3.535872 0.138909 -0.156200
v 3.552620 0.186499 -0.184073
v 3.578201 0.234776 -0.196626
v 3.796747 0.234776 -0.100761
v 3.811976 0.186499 -0.070308
v 3.812914 0.138910 -0.034677
v 3.725170 0.138909 -0.197717
v 3.750750 0.186499 -0.184073
v 3.767499 0.234776 -0.155109
v 3.767499 0.234776 0.155110
v 3.750750 0.186499 0.184075
v 3.725170 0.138909 0.195537
v 3.812914 0.138910 0.032497
v 3.811976 0.186499 0.070310
v 3.796747 0.234776 0.100763
v 3.578201 0.234776 0.196628
v 3.552620 0.186499 0.184075
v 3.535872 0.138909 0.154019
v 3.677845 0.138909 0.216295
v 3.651685 0.186499 0.227529
v 3.625525 0.234776 0.217386
v 3.511621 0.283052 -0.054345
v 3.535698 0.287557 -0.113763
v 3.570117 0.283053 -0.163038
v 3.646690 0.283053 -0.196626
v 3.695989 0.287557 -0.184072
v 3.741338 0.283053 -0.155108
v 3.788662 0.283053 -0.067174
v 3.795053 0.287557 0.000001
v 3.788662 0.283053 0.067176
v 3.741338 0.283053 0.155110
v 3.695989 0.287557 0.184074
v 3.646690 0.283053 0.196627
v 3.570117 0.283053 0.163040
v 3.535698 0.287557 0.113764
v 3.511621 0.283052 0.054347
v 3.638606 0.372561 -0.054345
v 3.624305 0.350014 -0.113762
v 3.612445 0.312889 -0.163037
v 3.524701 0.312888 0.000001
v 3.563079 0.350013 0.000001
v 3.609357 0.372561 0.000001
v 3.685929 0.372561 -0.033586
v 3.723369 0.350014 -0.070308
v 3.754418 0.312889 -0.100761
v 3.685929 0.372561 0.033588
v 3.723369 0.350014 0.070310
v 3.754418 0.312889 0.100763
v 3.638606 0.372561 0.054346
v 3.624305 0.350014 0.113764
v 3.612445 0.312889 0.163039
v 3.590708 0.358428 0.059810
v 3.544125 0.325593 0.059810
v 3.576313 0.325594 0.119619
v 3.674977 0.358428 0.096773
v 3.660583 0.325594 0.156582
v 3.712663 0.325594 0.133737
v 3.727058 0.358428 0.000001
v 3.764744 0.325593 0.036964
v 3.764744 0.325593 -0.036963
v 3.674977 0.358428 -0.096771
v 3.712663 0.325594 -0.133735
v 3.660583 0.325594 -0.156581
v 3.590708 0.358428 -0.059808
v 3.576313 0.325594 -0.119617
v 3.544125 0.325593 -0.059808
v 3.506438 0.239629 0.096773
v 3.515334 0.186499 0.133738
v 3.538626 0.239629 0.156583
v 3.674978 0.239629 0.216392
v 3.703767 0.186499 0.216393
v 3.727058 0.239629 0.193548
v 3.811328 0.239629 0.036964
v 3.820225 0.186499 0.000001
v 3.811328 0.239629 -0.036963
v 3.727059 0.239629 -0.193546
v 3.703767 0.186499 -0.216391
v 3.674978 0.239629 -0.216391
v 3.538626 0.239629 -0.156582
v 3.515334 0.186499 -0.133736
v 3.506438 0.239628 -0.096772
v 3.599604 0.186499 0.216393
v 3.576312 0.135931 0.189478
v 3.628393 0.135931 0.212323
v 3.788036 0.186499 0.133738
v 3.764745 0.135931 0.152514
v 3.796933 0.135931 0.092704
v 3.788036 0.186499 -0.133736
v 3.796933 0.135931 -0.100842
v 3.764745 0.135931 -0.160651
v 3.599604 0.186499 -0.216391
v 3.628393 0.135931 -0.220460
v 3.576312 0.135931 -0.197615
v 3.483146 0.186499 0.000001
v 3.492043 0.135931 -0.041032
v 3.492043 0.135931 0.032895
v 3.590707 0.083169 0.076906
v 3.628394 0.063017 0.019790
v 3.642788 0.083169 0.099751
v 3.727058 0.083169 0.062787
v 3.712663 0.063017 -0.017174
v 3.759246 0.083170 0.002979
v 3.759246 0.083170 -0.116638
v 3.712663 0.063017 -0.136791
v 3.727058 0.083170 -0.176447
v 3.538626 0.083170 -0.019866
v 3.538626 0.083170 -0.093793
v 3.576313 0.063017 -0.076982
v 3.642788 0.083169 -0.213411
v 3.628393 0.063017 -0.173755
v 3.590707 0.083170 -0.190566
v 3.803371 0.116105 -0.035131
v 3.770849 0.155039 -0.063217
v 3.815793 0.155039 -0.095344
v 3.843570 0.155040 -0.011235
v 3.815793 0.155039 0.072874
v 3.770849 0.155039 0.040747
v 3.790949 0.242369 -0.095344
v 3.835892 0.242369 -0.063217
v 3.835892 0.242369 0.040747
v 3.790949 0.242369 0.072874
v 3.763172 0.242369 -0.011235
v 3.803371 0.296340 -0.011235
v 3.810673 0.125054 -0.075619
v 3.784255 0.125054 -0.056735
v 3.791557 0.147373 -0.091227
v 3.765139 0.147373 -0.011235
v 3.784255 0.125054 0.004373
v 3.826999 0.125054 -0.026181
v 3.834301 0.147373 -0.060673
v 3.810673 0.125054 0.023257
v 3.834301 0.147373 0.038203
v 3.791557 0.147373 0.068757
v 3.760626 0.198704 -0.041789
v 3.760626 0.198704 0.019319
v 3.803371 0.198704 -0.110111
v 3.776953 0.198704 -0.091228
v 3.846115 0.198704 -0.041789
v 3.829788 0.198704 -0.091228
v 3.829788 0.198704 0.068758
v 3.846115 0.198704 0.019319
v 3.776953 0.198704 0.068758
v 3.803371 0.198704 0.087641
v 3.772441 0.250035 -0.060673
v 3.815185 0.250035 -0.091227
v 3.841602 0.250035 -0.011235
v 3.815185 0.250035 0.068757
v 3.772441 0.250035 0.038203
v 3.796069 0.281759 -0.060673
v 3.779742 0.281758 -0.011235
v 3.822486 0.281759 -0.041789
v 3.822486 0.281759 0.019319
v 3.796069 0.281759 0.038203
v 3.500000 0.116105 -0.035131
v 3.467479 0.155039 -0.063217
v 3.512422 0.155039 -0.095344
v 3.540199 0.155040 -0.011235
v 3.512422 0.155039 0.072874
v 3.467479 0.155039 0.040747
v 3.487578 0.242369 -0.095344
v 3.532522 0.242369 -0.063217
v 3.532522 0.242369 0.040747
v 3.487578 0.242369 0.072874
v 3.459801 0.242369 -0.011235
v 3.500000 0.296340 -0.011235
v 3.507301 0.125054 -0.075619
v 3.480884 0.125054 -0.056735
v 3.488186 0.147373 -0.091227
v 3.461769 0.147373 -0.011235
v 3.480884 0.125054 0.004373
v 3.523628 0.125054 -0.026181
v 3.530930 0.147373 -0.060673
v 3.507301 0.125054 0.023256
v 3.530930 0.147373 0.038203
v 3.488186 0.147373 0.068757
v 3.457256 0.198704 -0.041789
v 3.457256 0.198704 0.019319
v 3.500000 0.198704 -0.110111
v 3.473583 0.198704 -0.091228
v 3.542744 0.198704 -0.041789
v 3.526417 0.198704 -0.091228
v 3.526417 0.198704 0.068758
v 3.542744 0.198704 0.019319
v 3.473583 0.198704 0.068758
v 3.500000 0.198704 0.087641
v 3.469070 0.250035 -0.060673
v 3.511814 0.250035 -0.091227
v 3.538231 0.250035 -0.011235
v 3.511814 0.250035 0.068757
v 3.469070 0.250035 0.038203
v 3.492698 0.281759 -0.060673
v 3.476372 0.281758 -0.011235
v 3.519116 0.281759 -0.041789
v 3.519116 0.281759 0.019319
v 3.492698 0.281759 0.038203
v 3.651685 0.220062 0.146068
v 3.584610 0.275720 0.097335
v 3.677306 0.275720 0.067216
v 3.734596 0.275720 0.146068
v 3.677306 0.275720 0.224921
v 3.584610 0.275720 0.194801
v 3.626065 0.365779 0.067216
v 3.718761 0.365779 0.097335
v 3.718761 0.365779 0.194801
v 3.626065 0.365779 0.224921
v 3.568775 0.365779 0.146068
v 3.651685 0.421438 0.146068
v 3.666744 0.235099 0.099721
v 3.612259 0.235099 0.117424
v 3.627318 0.267814 0.071076
v 3.572833 0.267815 0.146068
v 3.612259 0.235099 0.174713
v 3.700418 0.235099 0.146068
v 3.715478 0.267815 0.099720
v 3.666744 0.235099 0.192416
v 3.715478 0.267815 0.192416
v 3.627318 0.267814 0.221061
v 3.563525 0.320749 0.117424
v 3.563525 0.320749 0.174713
v 3.651685 0.320749 0.053372
v 3.597199 0.320749 0.071075
v 3.739846 0.320749 0.117424
v 3.706171 0.320749 0.071075
v 3.706171 0.320749 0.221062
v 3.739846 0.320749 0.174713
v 3.597199 0.320749 0.221062
v 3.651685 0.320749 0.238765
v 3.587893 0.373685 0.099720
v 3.676053 0.373685 0.071076
v 3.730538 0.373685 0.146068
v 3.676053 0.373685 0.221061
v 3.587893 0.373685 0.192416
v 3.636626 0.406400 0.099721
v 3.602952 0.406399 0.146068
v 3.691111 0.406400 0.117424
v 3.691111 0.406400 0.174713
v 3.636626 0.406400 0.192416
v 3.651685 0.278034 0.207866
v 3.651685 0.311596 0.297754
v 3.625331 0.291819 0.207866
v 3.649489 0.312746 0.297754
v 3.618822 0.322794 0.207866
v 3.648947 0.315326 0.297754
v 3.637060 0.347635 0.207866
v 3.650466 0.317397 0.297754
v 3.666311 0.347635 0.207866
v 3.652905 0.317397 0.297754
v 3.684548 0.322794 0.207866
v 3.654424 0.315326 0.297754
v 3.678039 0.291819 0.207866
v 3.653881 0.312746 0.297754
v 3.651685 0.204806 0.202248
v 3.631359 0.228419 0.187481
v 3.659449 0.228419 0.178354
v 3.676810 0.228419 0.202248
v 3.659449 0.228419 0.226142
v 3.631359 0.228419 0.217015
v 3.643922 0.266625 0.178354
v 3.672011 0.266625 0.187481
v 3.672011 0.266625 0.217015
v 3.643922 0.266625 0.226142
v 3.626561 0.266625 0.202248
v 3.651685 0.290238 0.202248
v 3.679775 0.377653 0.150159
v 3.679775 0.453664 0.144282
v 3.662206 0.379479 0.141867
v 3.677579 0.453892 0.143245
v 3.657867 0.383581 0.123235
v 3.677037 0.454405 0.140917
v 3.670025 0.386871 0.108292
v 3.678557 0.454816 0.139049
v 3.689525 0.386871 0.108292
v 3.680994 0.454816 0.139049
v 3.701684 0.383581 0.123235
v 3.682513 0.454405 0.140917
v 3.697344 0.379479 0.141867
v 3.681971 0.453892 0.143245
v 3.651685 0.381772 0.157304
v 3.651685 0.455000 0.137641
v 3.634116 0.381772 0.148844
v 3.649489 0.455000 0.136583
v 3.629777 0.381772 0.129832
v 3.648947 0.455000 0.134207
v 3.641935 0.381772 0.114586
v 3.650466 0.455000 0.132301
v 3.661435 0.381772 0.114586
v 3.652905 0.455000 0.132301
v 3.673594 0.381772 0.129832
v 3.654424 0.455000 0.134207
v 3.669254 0.381772 0.148844
v 3.653881 0.455000 0.136583
v 3.623595 0.387352 0.163553
v 3.623595 0.454876 0.130889
v 3.606026 0.385526 0.155261
v 3.621399 0.454648 0.129852
v 3.601687 0.381424 0.136628
v 3.620857 0.454135 0.127523
v 3.613845 0.378133 0.121686
v 3.622377 0.453724 0.125655
v 3.633345 0.378133 0.121686
v 3.624814 0.453724 0.125655
v 3.645504 0.381424 0.136628
v 3.626334 0.454135 0.127523
v 3.641165 0.385526 0.155261
v 3.625792 0.454648 0.129852
v 3.691011 0.329903 0.191012
v 3.680848 0.338336 0.183628
v 3.694893 0.338336 0.179065
v 3.703573 0.338336 0.191012
v 3.694893 0.338336 0.202959
v 3.680848 0.338336 0.198396
v 3.687129 0.351981 0.179065
v 3.701174 0.351981 0.183628
v 3.701174 0.351981 0.198396
v 3.687129 0.351981 0.202959
v 3.678449 0.351981 0.191012
v 3.691011 0.360415 0.191012
v 3.612359 0.329903 0.191012
v 3.602196 0.338336 0.183628
v 3.616241 0.338336 0.179065
v 3.624922 0.338336 0.191012
v 3.616241 0.338336 0.202959
v 3.602196 0.338336 0.198396
v 3.608477 0.351981 0.179065
v 3.622522 0.351981 0.183628
v 3.622522 0.351981 0.198396
v 3.608477 0.351981 0.202959
v 3.599798 0.351981 0.191012
v 3.612359 0.360415 0.191012
v 3.696787 0.195751 -0.224746
v 3.669837 0.343840 -0.091795
v 3.676569 0.204749 -0.235552
v 3.665793 0.345641 -0.093956
v 3.674188 0.224970 -0.251108
v 3.665317 0.349685 -0.097067
v 3.691436 0.241184 -0.259699
v 3.668767 0.352928 -0.098786
v 3.715326 0.241184 -0.254856
v 3.673544 0.352928 -0.097817
v 3.727868 0.224970 -0.240227
v 3.676053 0.349685 -0.094891
v 3.719617 0.204749 -0.226827
v 3.674403 0.345641 -0.092211
v 3.651685 0.195751 -0.225890
v 3.651685 0.343840 -0.090234
v 3.629724 0.204749 -0.232464
v 3.647293 0.345641 -0.091549
v 3.624299 0.224970 -0.247236
v 3.646208 0.349685 -0.094504
v 3.639498 0.241184 -0.259082
v 3.649248 0.352928 -0.096873
v 3.663873 0.241184 -0.259082
v 3.654123 0.352928 -0.096873
v 3.679071 0.224970 -0.247236
v 3.657162 0.349685 -0.094504
v 3.673647 0.204749 -0.232464
v 3.656078 0.345641 -0.091549
v 3.606584 0.195751 -0.224746
v 3.633534 0.343840 -0.091795
v 3.583754 0.204749 -0.226827
v 3.628968 0.345641 -0.092211
v 3.575503 0.224970 -0.240227
v 3.627318 0.349685 -0.094891
v 3.588044 0.241184 -0.254856
v 3.629826 0.352928 -0.097817
v 3.611934 0.241184 -0.259699
v 3.634604 0.352928 -0.098786
v 3.629183 0.224970 -0.251108
v 3.638054 0.349685 -0.097067
v 3.626801 0.204749 -0.235552
v 3.637577 0.345641 -0.093956
vn -0.000000 -0.889000 0.458000
vn -0.000000 0.320900 0.947100
vn -0.584000 0.369600 0.722700
vn -0.469300 -0.814600 0.340900
vn -0.816600 0.556500 0.153300
vn -0.816600 -0.556500 -0.153300
vn -0.469300 0.814600 -0.340900
vn -0.584000 -0.369600 -0.722700
vn -0.000000 0.889000 -0.458000
vn -0.000000 -0.320900 -0.947100
vn 0.469300 0.814600 -0.340900
vn 0.584000 -0.369600 -0.722700
vn 0.816600 0.556500 0.153300
vn 0.816600 -0.556500 -0.153300
vn 0.584000 0.369600 0.722700
vn 0.469300 -0.814600 0.340900
vn -0.009900 -0.977400 -0.211300
vn -0.713500 -0.229800 -0.661900
vn 0.276200 -0.104800 -0.955400
vn -0.596600 -0.725200 0.343900
vn 0.888100 -0.421300 -0.183500
vn 0.165100 -0.825500 0.539700
vn -0.888100 0.421400 0.183500
vn -0.165100 0.825500 -0.539700
vn 0.596500 0.725200 -0.343900
vn 0.713500 0.229800 0.661900
vn -0.276200 0.104800 0.955400
vn 0.009900 0.977400 0.211300
vn -0.000000 0.320800 0.947100
vn -0.469200 -0.814600 0.340900
vn -0.469200 0.814600 -0.340900
vn -0.000000 -0.320800 -0.947100
vn -0.596500 -0.725200 0.343900
vn 0.888100 -0.421400 -0.183500
vn -0.000400 -1.000000 -0.005900
vn -0.166800 -0.980900 -0.099700
vn 0.067200 -0.983900 -0.165400
vn -0.841600 -0.286000 -0.458100
vn -0.656300 -0.656600 -0.371700
vn -0.836100 -0.499900 -0.225900
vn 0.190200 -0.981700 -0.007500
vn 0.051500 -0.992200 0.113100
vn -0.142000 -0.987300 0.071300
vn -0.924800 -0.182900 -0.333700
vn 0.396800 -0.030000 -0.917400
vn 0.033100 -0.137500 -0.990000
vn 0.215600 0.045000 -0.975400
vn 0.818700 -0.574200 -0.003000
vn 0.830200 -0.523900 -0.190600
vn 0.959100 -0.264500 -0.100900
vn 0.195300 -0.876300 0.440500
vn 0.347700 -0.862400 0.367800
vn 0.479200 -0.525100 0.703300
vn -0.556200 -0.776800 0.295400
vn -0.372800 -0.855400 0.359600
vn -0.688900 -0.484800 0.538800
vn -0.807500 -0.083700 -0.583900
vn 0.572000 -0.009300 -0.820200
vn 0.926200 -0.354800 0.127100
vn 0.157100 -0.548700 0.821100
vn -0.844500 -0.421100 0.330800
vn -0.345200 0.493200 -0.798500
vn -0.577000 0.523300 -0.627100
vn -0.279100 0.710000 -0.646600
vn 0.792000 0.431900 -0.431400
vn 0.609000 0.517300 -0.601200
vn 0.667700 0.649300 -0.364200
vn 0.792000 0.431900 0.431400
vn 0.855200 0.466800 0.225400
vn 0.667700 0.649300 0.364200
vn -0.345200 0.493200 0.798500
vn -0.024400 0.564500 0.825100
vn -0.279100 0.710000 0.646600
vn -0.915200 0.403000 0.000000
vn -0.864500 0.463800 0.193900
vn -0.786100 0.618200 0.000000
vn -0.293400 0.956000 0.000000
vn -0.090700 0.973000 0.212100
vn 0.000800 1.000000 0.000000
vn -0.573300 0.819400 0.000000
vn -0.412600 0.882400 0.225900
vn -0.684000 0.696200 0.218000
vn -0.189100 0.878000 0.439700
vn -0.512700 0.734000 0.445400
vn -0.755100 0.509700 0.412400
vn -0.577000 0.523300 0.627100
vn 0.237900 0.962400 0.130900
vn 0.162700 0.911500 0.377600
vn 0.071600 0.778300 0.623700
vn 0.475200 0.840500 0.260200
vn 0.412400 0.750300 0.516700
vn 0.324000 0.573100 0.752700
vn 0.609000 0.517300 0.601200
vn 0.237900 0.962400 -0.130900
vn 0.500500 0.865700 0.000000
vn 0.715000 0.687900 0.124700
vn 0.475200 0.840500 -0.260200
vn 0.715000 0.687900 -0.124700
vn 0.877700 0.479300 0.000000
vn 0.855200 0.466800 -0.225400
vn -0.090700 0.973000 -0.212100
vn 0.162700 0.911500 -0.377600
vn 0.412400 0.750300 -0.516700
vn -0.189100 0.878000 -0.439700
vn 0.071600 0.778300 -0.623700
vn 0.324000 0.573100 -0.752700
vn -0.024400 0.564500 -0.825100
vn -0.412600 0.882400 -0.225900
vn -0.512700 0.734000 -0.445400
vn -0.684000 0.696200 -0.218000
vn -0.755100 0.509700 -0.412400
vn -0.864500 0.463800 -0.193900
vn -0.969100 0.217100 0.116800
vn -0.971700 -0.007200 0.236100
vn -0.904700 0.253400 0.342600
vn -0.877100 0.002200 0.480200
vn -0.765800 0.272500 0.582500
vn -0.687700 -0.023100 0.725600
vn -0.541300 0.263100 0.798600
vn -0.195700 0.279700 0.939900
vn -0.008400 -0.027600 0.999600
vn 0.188800 0.312200 0.931100
vn 0.393900 -0.001200 0.919200
vn 0.538400 0.294800 0.789500
vn 0.696800 -0.018500 0.717000
vn 0.774200 0.243500 0.584200
vn 0.910600 0.225300 0.346400
vn 0.970500 -0.009600 0.240800
vn 0.962600 0.243800 0.117900
vn 1.000000 0.006900 0.000600
vn 0.962600 0.243800 -0.117900
vn 0.972100 0.004400 -0.234500
vn 0.910600 0.225300 -0.346400
vn 0.774200 0.243500 -0.584200
vn 0.690600 0.015800 -0.723100
vn 0.538400 0.294800 -0.789500
vn 0.394600 0.019200 -0.918700
vn 0.188800 0.312200 -0.931100
vn 0.007500 0.023100 -0.999700
vn -0.195700 0.279700 -0.939900
vn -0.541300 0.263100 -0.798600
vn -0.698100 0.016600 -0.715800
vn -0.765800 0.272500 -0.582500
vn -0.877700 0.012900 -0.479100
vn -0.904700 0.253400 -0.342600
vn -0.971500 0.003500 -0.237100
vn -0.969100 0.217100 -0.116800
vn -0.392500 -0.048900 0.918400
vn -0.453500 -0.569400 0.685600
vn -0.171300 -0.595900 0.784500
vn -0.179000 -0.897100 0.404000
vn 0.012600 -0.902500 0.430500
vn 0.876000 -0.030900 0.481300
vn 0.678600 -0.523700 0.515100
vn 0.826500 -0.459100 0.325800
vn 0.513400 -0.814100 0.271300
vn 0.679000 -0.719400 0.146400
vn 0.878400 0.006500 -0.477800
vn 0.919000 -0.213000 -0.331700
vn 0.797400 -0.117600 -0.591900
vn 0.791500 -0.423100 -0.440900
vn 0.650000 -0.252100 -0.716900
vn -0.395500 0.021500 -0.918200
vn -0.197000 0.016500 -0.980300
vn -0.578600 -0.038400 -0.814700
vn -0.380300 -0.228000 -0.896300
vn -0.683500 -0.273400 -0.676800
vn -0.999900 -0.011400 0.001900
vn -0.948200 -0.300200 -0.103600
vn -0.914300 -0.386500 0.120900
vn -0.760500 -0.649300 -0.007800
vn -0.657500 -0.735000 0.166100
vn -0.425300 -0.877200 0.222700
vn -0.284900 -0.947200 0.147400
vn -0.228700 -0.933300 0.276800
vn -0.087900 -0.976800 0.195400
vn -0.037200 -0.949100 0.312800
vn 0.101300 -0.968900 0.225800
vn 0.149100 -0.930500 0.334400
vn 0.297600 -0.921700 0.248900
vn 0.246000 -0.961000 0.126200
vn 0.459600 -0.877400 0.137500
vn 0.406100 -0.913800 -0.008900
vn 0.628300 -0.777900 -0.008900
vn 0.602300 -0.772400 -0.201500
vn 0.328200 -0.925400 -0.189700
vn 0.516200 -0.720400 -0.463200
vn 0.176500 -0.887000 -0.426700
vn 0.317000 -0.567600 -0.759900
vn -0.509300 -0.856800 0.080400
vn -0.594300 -0.796100 -0.113800
vn -0.344200 -0.938900 -0.008500
vn -0.395500 -0.889500 -0.228700
vn -0.081100 -0.685200 -0.723900
vn -0.142700 -0.927700 -0.344900
vn -0.434200 -0.704000 -0.562000
vn -0.003500 -0.999200 -0.039900
vn -0.592900 -0.756700 -0.275400
vn 0.239400 -0.813000 -0.530800
vn -0.901100 -0.283500 -0.328000
vn -0.922400 -0.385900 0.015600
vn 0.653400 -0.756800 -0.017900
vn 0.199300 -0.932200 0.302200
vn -0.509600 -0.842700 0.173600
vn -0.986900 0.001700 -0.161200
vn 0.447700 -0.380600 -0.809100
vn -0.445400 -0.465000 -0.765100
vn -0.000000 -0.000000 -1.000000
vn 0.956100 -0.293000 0.008200
vn 0.876400 -0.370000 -0.308300
vn 0.986900 -0.001700 -0.161200
vn 0.428200 -0.499200 0.753200
vn 0.800800 -0.498600 0.331900
vn 0.798000 0.006800 0.602600
vn -0.867400 -0.379900 0.321500
vn -0.366900 -0.626200 0.688000
vn -0.798000 -0.006800 0.602600
vn -0.798000 -0.006800 -0.602600
vn 0.798000 0.006800 -0.602600
vn 0.986900 -0.001700 0.161200
vn -0.000000 -0.000000 1.000000
vn -0.986900 0.001700 0.161200
vn -0.440200 0.415600 -0.795900
vn -0.873300 0.358700 -0.329700
vn -0.246000 0.835500 -0.491400
vn 0.896100 0.290600 -0.335600
vn 0.419500 0.502700 -0.755800
vn 0.629400 0.729200 -0.268700
vn 0.896100 0.290600 0.335600
vn 0.951600 0.307400 0.000000
vn 0.629400 0.729200 0.268700
vn -0.440200 0.415600 0.795900
vn 0.419500 0.502700 0.755800
vn -0.246000 0.835500 0.491400
vn -0.969500 0.245200 0.000000
vn -0.873300 0.358700 0.329700
vn -0.750100 0.661300 0.000000
vn 0.009000 1.000000 0.000000
vn -0.901100 -0.283500 -0.327900
vn -0.798000 -0.006900 0.602600
vn -0.798000 -0.006900 -0.602600
vn -0.000000 -1.000000 0.000000
vn -0.446000 -0.834300 -0.324000
vn 0.170400 -0.834300 -0.524300
vn -0.732900 -0.423400 -0.532500
vn -0.865100 -0.501700 0.000000
vn 0.551300 -0.834300 0.000000
vn 0.170400 -0.834300 0.524300
vn -0.446000 -0.834300 0.324000
vn -0.951100 -0.000000 -0.309000
vn 0.279900 -0.423400 -0.861600
vn -0.267300 -0.501700 -0.822700
vn 0.905900 -0.423400 0.000000
vn 0.699800 -0.501700 -0.508500
vn 0.951100 -0.000000 -0.309000
vn 0.279900 -0.423400 0.861600
vn 0.699800 -0.501700 0.508500
vn 0.587800 -0.000000 0.809000
vn -0.732900 -0.423400 0.532500
vn -0.267300 -0.501700 0.822700
vn -0.587800 -0.000000 0.809000
vn -0.587800 -0.000000 -0.809000
vn 0.587800 -0.000000 -0.809000
vn 0.951100 -0.000000 0.309000
vn -0.951100 -0.000000 0.309000
vn -0.279900 0.423400 -0.861600
vn -0.699800 0.501700 -0.508500
vn -0.170400 0.834300 -0.524300
vn 0.732900 0.423400 -0.532500
vn 0.267300 0.501700 -0.822700
vn 0.446000 0.834300 -0.324000
vn 0.732900 0.423400 0.532500
vn 0.865100 0.501700 0.000000
vn 0.446000 0.834300 0.324000
vn -0.279900 0.423400 0.861600
vn 0.267300 0.501700 0.822700
vn -0.170400 0.834300 0.524300
vn -0.905900 0.423400 0.000000
vn -0.699800 0.501700 0.508500
vn -0.551300 0.834300 0.000000
vn -0.000000 1.000000 0.000000
vn -0.000000 -0.877700 -0.479200
vn -0.000000 -0.666100 0.745900
vn -0.533700 -0.398200 0.746000
vn -0.691600 -0.529300 -0.491400
vn -0.651200 0.138900 0.746000
vn -0.847200 0.185300 -0.497900
vn -0.304400 0.592400 0.745900
vn -0.392100 0.782900 -0.483000
vn 0.304400 0.592400 0.745900
vn 0.392100 0.782900 -0.483000
vn 0.651300 0.138900 0.746000
vn 0.847200 0.185300 -0.497900
vn 0.533700 -0.398200 0.746000
vn 0.691600 -0.529300 -0.491400
vn -0.747100 -0.383800 -0.542800
vn 0.285300 -0.383800 -0.878200
vn -0.747100 -0.383800 0.542800
vn 0.923400 -0.383800 0.000000
vn 0.285300 -0.383800 0.878200
vn -0.923400 0.383800 0.000000
vn -0.285300 0.383800 -0.878200
vn 0.747100 0.383800 -0.542800
vn 0.747100 0.383800 0.542800
vn -0.285300 0.383800 0.878200
vn -0.000000 -0.681700 0.731600
vn -0.000000 0.563900 0.825900
vn -0.542800 0.616000 0.570900
vn -0.668300 -0.617000 0.415600
vn -0.679900 0.733300 -0.003800
vn -0.832300 -0.471600 -0.291200
vn -0.304400 0.828500 -0.470000
vn -0.370900 -0.354400 -0.858400
vn 0.304400 0.828500 -0.470000
vn 0.370900 -0.354400 -0.858400
vn 0.679800 0.733400 -0.003800
vn 0.832300 -0.471600 -0.291200
vn 0.542800 0.616000 0.570900
vn 0.668300 -0.617000 0.415600
vn -0.000000 -0.520900 0.853600
vn -0.000000 0.717300 0.696800
vn -0.544700 0.717400 0.434400
vn -0.667400 -0.520900 0.532200
vn -0.679300 0.717300 -0.155000
vn -0.832200 -0.520900 -0.189900
vn -0.302300 0.717300 -0.627700
vn -0.370400 -0.520900 -0.769100
vn 0.302300 0.717300 -0.627700
vn 0.370400 -0.520900 -0.769100
vn 0.679300 0.717300 -0.155000
vn 0.832200 -0.520900 -0.189900
vn 0.544700 0.717400 0.434400
vn 0.667400 -0.520900 0.532200
vn -0.000000 -0.337200 0.941400
vn -0.000000 0.842500 0.538700
vn -0.547000 0.789400 0.278600
vn -0.667800 -0.402500 0.626100
vn -0.678000 0.671500 -0.299000
vn -0.832500 -0.548100 -0.080300
vn -0.301100 0.577600 -0.758800
vn -0.371300 -0.664600 -0.648400
vn 0.301000 0.577600 -0.758700
vn 0.371300 -0.664600 -0.648400
vn 0.678000 0.671500 -0.299000
vn 0.832500 -0.548100 -0.080300
vn 0.547000 0.789400 0.278600
vn 0.667800 -0.402500 0.626100
vn -0.727700 -0.436900 -0.528700
vn 0.278000 -0.436900 -0.855500
vn -0.727700 -0.436900 0.528700
vn 0.899500 -0.436900 0.000000
vn 0.278000 -0.436900 0.855500
vn -0.899500 0.436900 0.000000
vn -0.278000 0.436900 -0.855500
vn 0.727700 0.436900 -0.528700
vn 0.727700 0.436900 0.528700
vn -0.278000 0.436900 0.855500
vn -0.011400 -0.998300 0.056300
vn -0.195600 -0.175800 0.964800
vn -0.736200 0.051200 0.674800
vn -0.605600 -0.748000 -0.271700
vn -0.800900 0.532300 0.274200
vn -0.665300 -0.217700 -0.714200
vn -0.351100 0.935600 0.035900
vn -0.174900 0.220200 -0.959700
vn 0.309400 0.935700 0.169800
vn 0.534800 0.220200 -0.815800
vn 0.630900 0.532300 0.564500
vn 0.890900 -0.217700 -0.398700
vn 0.415400 0.051100 0.908200
vn 0.663600 -0.748000 -0.014400
vn -0.000000 -0.998300 0.057500
vn -0.000000 -0.175800 0.984400
vn -0.587500 0.051200 0.807600
vn -0.647500 -0.748000 -0.145900
vn -0.730500 0.532300 0.427900
vn -0.793900 -0.217700 -0.567700
vn -0.337000 0.935700 0.104900
vn -0.362000 0.220200 -0.905800
vn 0.337000 0.935700 0.104900
vn 0.362000 0.220200 -0.905800
vn 0.730500 0.532300 0.427900
vn 0.793900 -0.217700 -0.567800
vn 0.587500 0.051200 0.807600
vn 0.647500 -0.748000 -0.145900
vn 0.011400 -0.998300 0.056300
vn 0.195600 -0.175800 0.964800
vn -0.415400 0.051100 0.908200
vn -0.663600 -0.748000 -0.014400
vn -0.630900 0.532300 0.564500
vn -0.890900 -0.217700 -0.398700
vn -0.309400 0.935600 0.169800
vn -0.534800 0.220200 -0.815800
vn 0.351100 0.935600 0.035900
vn 0.174900 0.220200 -0.959700
vn 0.800900 0.532300 0.274200
vn 0.665300 -0.217700 -0.714100
vn 0.736200 0.051200 0.674800
vn 0.605600 -0.748000 -0.271700
vt 0.887146 0.886962
vt 0.887146 0.777916
vt 0.897527 0.777848
vt 0.897527 0.886894
vt 0.488546 0.885072
vt 0.488546 0.776065
vt 0.499002 0.776193
vt 0.499002 0.885200
vt 0.509305 0.776053
vt 0.509305 0.885060
vt 0.269087 0.885161
vt 0.269087 0.776120
vt 0.279468 0.776198
vt 0.279468 0.885240
vt 0.289849 0.776120
vt 0.289849 0.885161
vt 0.767522 0.907118
vt 0.767522 0.798318
vt 0.777825 0.798627
vt 0.777825 0.907427
vt 0.090484 0.984858
vt 0.082543 0.976917
vt 0.082543 0.965681
vt 0.090484 0.957733
vt 0.101715 0.957728
vt 0.109656 0.965670
vt 0.109656 0.976905
vt 0.101715 0.984853
vt 0.788281 0.798343
vt 0.788281 0.907144
vt 0.876765 0.886894
vt 0.876765 0.777848
vt 0.694108 0.948553
vt 0.705340 0.948553
vt 0.713282 0.956499
vt 0.713281 0.967735
vt 0.705339 0.975680
vt 0.694107 0.975680
vt 0.686165 0.967735
vt 0.686165 0.956499
vt 0.168253 0.854359
vt 0.162384 0.877219
vt 0.149108 0.850166
vt 0.183864 0.872239
vt 0.162383 0.828466
vt 0.183864 0.842108
vt 0.986630 0.683712
vt 0.986630 0.705760
vt 0.968037 0.694636
vt 0.821723 0.944140
vt 0.821723 0.914778
vt 0.840410 0.927830
vt 0.822128 0.962285
vt 0.840660 0.957191
vt 0.767522 0.948713
vt 0.767738 0.930565
vt 0.786338 0.935512
vt 0.767738 0.978074
vt 0.786338 0.964875
vt 0.840660 0.909681
vt 0.968392 0.479089
vt 0.987452 0.468130
vt 0.987452 0.490179
vt 0.967471 0.712797
vt 0.720906 0.903701
vt 0.707636 0.925415
vt 0.701354 0.899628
vt 0.707636 0.876652
vt 0.686165 0.881648
vt 0.686165 0.911786
vt 0.890366 0.264037
vt 0.890366 0.154991
vt 0.900747 0.154923
vt 0.900747 0.263969
vt 0.225190 0.885138
vt 0.225190 0.776131
vt 0.235646 0.776260
vt 0.235646 0.885266
vt 0.245949 0.776120
vt 0.245949 0.885126
vt 0.821723 0.886465
vt 0.821723 0.777423
vt 0.832104 0.777502
vt 0.832104 0.886544
vt 0.842485 0.777423
vt 0.842485 0.886465
vt 0.888024 0.120369
vt 0.888024 0.011569
vt 0.898327 0.011878
vt 0.898327 0.120678
vt 0.019510 0.980025
vt 0.011569 0.972084
vt 0.011569 0.960849
vt 0.019510 0.952900
vt 0.030741 0.952896
vt 0.038682 0.960837
vt 0.038682 0.972072
vt 0.030741 0.980020
vt 0.908783 0.011594
vt 0.908783 0.120395
vt 0.879985 0.263969
vt 0.879985 0.154923
vt 0.435661 0.952572
vt 0.446893 0.952572
vt 0.454835 0.960517
vt 0.454835 0.971753
vt 0.446893 0.979699
vt 0.435661 0.979699
vt 0.427718 0.971754
vt 0.427718 0.960518
vt 0.097883 0.839760
vt 0.082543 0.857697
vt 0.082543 0.827562
vt 0.104021 0.862689
vt 0.104021 0.813930
vt 0.117295 0.835640
vt 0.987467 0.542537
vt 0.987467 0.564585
vt 0.968874 0.553462
vt 0.225190 0.942863
vt 0.225190 0.913500
vt 0.243876 0.926552
vt 0.225594 0.961008
vt 0.244126 0.955913
vt 0.345492 0.949319
vt 0.345707 0.931171
vt 0.364308 0.936118
vt 0.345707 0.978680
vt 0.364308 0.965480
vt 0.244126 0.908404
vt 0.149108 0.973760
vt 0.168168 0.962802
vt 0.168168 0.984850
vt 0.968307 0.571622
vt 0.117285 0.912876
vt 0.104015 0.934591
vt 0.097733 0.908804
vt 0.104014 0.885827
vt 0.082543 0.890824
vt 0.082543 0.920961
vt 0.321124 0.466994
vt 0.346576 0.492012
vt 0.311254 0.507520
vt 0.262138 0.248763
vt 0.234733 0.234569
vt 0.254295 0.209852
vt 0.289423 0.466953
vt 0.311254 0.426373
vt 0.346576 0.441860
vt 0.287416 0.234867
vt 0.062047 0.472871
vt 0.041907 0.448130
vt 0.078401 0.447987
vt 0.045779 0.155175
vt 0.039068 0.114755
vt 0.071084 0.129931
vt 0.492771 0.169210
vt 0.468176 0.180403
vt 0.468637 0.147072
vt 0.261140 0.070172
vt 0.254468 0.043280
vt 0.287028 0.043464
vt 0.288322 0.275045
vt 0.094081 0.479653
vt 0.071084 0.180078
vt 0.503513 0.141397
vt 0.286575 0.084427
vt 0.137989 0.358705
vt 0.133508 0.331844
vt 0.165754 0.351326
vt 0.165161 0.066114
vt 0.174085 0.040038
vt 0.193872 0.080410
vt 0.165161 0.244708
vt 0.171649 0.205351
vt 0.193872 0.230853
vt 0.541562 0.041063
vt 0.509738 0.039124
vt 0.531445 0.014234
vt 0.379092 0.159259
vt 0.386388 0.118509
vt 0.407417 0.158801
vt 0.491916 0.464620
vt 0.513748 0.424069
vt 0.523615 0.464533
vt 0.456993 0.464986
vt 0.477757 0.420213
vt 0.427718 0.465608
vt 0.442431 0.420756
vt 0.502692 0.380101
vt 0.466457 0.376129
vt 0.493212 0.343955
vt 0.416348 0.113848
vt 0.389795 0.073815
vt 0.435499 0.381135
vt 0.387295 0.036585
vt 0.416847 0.068768
vt 0.461113 0.344449
vt 0.566036 0.029159
vt 0.549071 0.439585
vt 0.540657 0.392662
vt 0.529357 0.348578
vt 0.576635 0.412581
vt 0.568231 0.365654
vt 0.599182 0.390504
vt 0.518268 0.319414
vt 0.472905 0.042089
vt 0.494536 0.011569
vt 0.555142 0.328729
vt 0.588915 0.350446
vt 0.174085 0.271622
vt 0.549071 0.489725
vt 0.579531 0.464917
vt 0.607105 0.437910
vt 0.576635 0.517539
vt 0.607105 0.493089
vt 0.599182 0.540923
vt 0.202052 0.183078
vt 0.174409 0.155115
vt 0.202052 0.127890
vt 0.171649 0.105056
vt 0.513748 0.505197
vt 0.540657 0.537124
vt 0.568231 0.565297
vt 0.502692 0.549928
vt 0.529357 0.582325
vt 0.493212 0.587341
vt 0.588915 0.581995
vt 0.555142 0.603515
vt 0.177062 0.415171
vt 0.158053 0.383482
vt 0.189379 0.379811
vt 0.518268 0.612940
vt 0.477757 0.509496
vt 0.466457 0.554696
vt 0.442431 0.510040
vt 0.461113 0.587835
vt 0.435499 0.550962
vt 0.390744 0.243666
vt 0.386842 0.199649
vt 0.416847 0.203144
vt 0.352815 0.134457
vt 0.319516 0.107198
vt 0.356257 0.087057
vt 0.319808 0.059527
vt 0.356756 0.041977
vt 0.320464 0.021450
vt 0.354175 0.011569
vt 0.594202 0.054570
vt 0.565708 0.063273
vt 0.530914 0.069432
vt 0.517234 0.105533
vt 0.493952 0.072315
vt 0.478875 0.111914
vt 0.455570 0.078560
vt 0.439985 0.050473
vt 0.444226 0.117412
vt 0.107389 0.293202
vt 0.139633 0.271317
vt 0.145043 0.300542
vt 0.138127 0.230359
vt 0.104237 0.207463
vt 0.140704 0.182534
vt 0.103813 0.154867
vt 0.140704 0.127346
vt 0.104237 0.102489
vt 0.138127 0.079916
vt 0.139633 0.039732
vt 0.132425 0.482277
vt 0.157437 0.450479
vt 0.168091 0.478870
vt 0.116712 0.450909
vt 0.145042 0.011569
vt 0.189415 0.446813
vt 0.140180 0.415630
vt 0.099599 0.415991
vt 0.121048 0.383873
vt 0.105879 0.351960
vt 0.067845 0.349185
vt 0.096473 0.323680
vt 0.320923 0.259199
vt 0.322000 0.296276
vt 0.358062 0.275758
vt 0.388655 0.280005
vt 0.357064 0.231541
vt 0.320102 0.212171
vt 0.353095 0.184603
vt 0.590069 0.092641
vt 0.555549 0.098891
vt 0.607896 0.122921
vt 0.578763 0.131713
vt 0.540471 0.138491
vt 0.284474 0.014245
vt 0.594196 0.158904
vt 0.561390 0.167964
vt 0.524607 0.171221
vt 0.105470 0.255131
vt 0.439985 0.154841
vt 0.070235 0.272539
vt 0.068578 0.227463
vt 0.042079 0.277812
vt 0.037218 0.240575
vt 0.039068 0.195896
vt 0.105470 0.055455
vt 0.068578 0.082977
vt 0.107389 0.018371
vt 0.070235 0.038754
vt 0.104474 0.507453
vt 0.037218 0.070721
vt 0.042079 0.034388
vt 0.067280 0.499366
vt 0.082761 0.380939
vt 0.059294 0.416219
vt 0.042599 0.381097
vt 0.032892 0.352246
vt 0.023208 0.416291
vt 0.011569 0.384303
vt 0.255762 0.274861
vt 0.319617 0.159795
vt 0.283476 0.187453
vt 0.283168 0.132266
vt 0.250772 0.159807
vt 0.253735 0.109559
vt 0.233892 0.084129
vt 0.374126 0.414251
vt 0.365708 0.366700
vt 0.396650 0.391204
vt 0.338154 0.394573
vt 0.386365 0.350389
vt 0.352596 0.328812
vt 0.326834 0.349655
vt 0.539650 0.197843
vt 0.300185 0.381831
vt 0.290683 0.344742
vt 0.315720 0.319414
vt 0.502768 0.195328
vt 0.263936 0.377271
vt 0.275255 0.422189
vt 0.258566 0.344507
vt 0.232955 0.381340
vt 0.239910 0.421931
vt 0.011569 0.200440
vt 0.254486 0.466779
vt 0.225190 0.466484
vt 0.019281 0.155524
vt 0.239910 0.511236
vt 0.275255 0.511494
vt 0.011569 0.111143
vt 0.263936 0.555882
vt 0.232955 0.551209
vt 0.258566 0.587952
vt 0.300185 0.551699
vt 0.290682 0.588187
vt 0.035035 0.479884
vt 0.225190 0.131938
vt 0.225498 0.187125
vt 0.404581 0.438937
vt 0.404581 0.494130
vt 0.377027 0.466811
vt 0.396650 0.541660
vt 0.374126 0.519235
vt 0.326834 0.583459
vt 0.338154 0.539072
vt 0.315720 0.613011
vt 0.011569 0.451322
vt 0.365708 0.566391
vt 0.352595 0.603665
vt 0.386365 0.581994
vt 0.839579 0.364416
vt 0.853592 0.387104
vt 0.833874 0.401208
vt 0.717894 0.343164
vt 0.744644 0.359354
vt 0.723294 0.381897
vt 0.821688 0.364303
vt 0.833874 0.327389
vt 0.853592 0.341482
vt 0.688132 0.359008
vt 0.806946 0.093007
vt 0.790639 0.102426
vt 0.790763 0.066312
vt 0.656401 0.530552
vt 0.651621 0.493775
vt 0.686213 0.507672
vt 0.657831 0.593709
vt 0.651621 0.567588
vt 0.687054 0.590414
vt 0.717894 0.420775
vt 0.722678 0.441964
vt 0.687751 0.441750
vt 0.687751 0.322318
vt 0.809844 0.061310
vt 0.686213 0.553291
vt 0.446578 0.864004
vt 0.427718 0.838371
vt 0.446629 0.832760
vt 0.688132 0.404626
vt 0.657425 0.319414
vt 0.652590 0.345048
vt 0.630243 0.345350
vt 0.716683 0.491774
vt 0.723006 0.471132
vt 0.744384 0.507915
vt 0.716683 0.569386
vt 0.721646 0.530498
vt 0.744384 0.553533
vt 0.446577 0.801182
vt 0.427718 0.801444
vt 0.434810 0.776053
vt 0.658073 0.381834
vt 0.652590 0.418861
vt 0.630624 0.382039
vt 0.823336 0.527275
vt 0.835522 0.490382
vt 0.841219 0.527035
vt 0.630243 0.419163
vt 0.657425 0.444993
vt 0.855240 0.504489
vt 0.849254 0.468130
vt 0.723006 0.590564
vt 0.855240 0.550100
vt 0.835522 0.564183
vt 0.849254 0.587544
vt 0.790763 0.029697
vt 0.774483 0.039225
vt 0.771558 0.011569
vt 0.687054 0.470981
vt 0.465408 0.826723
vt 0.465408 0.863649
vt 0.657831 0.468130
vt 0.771558 0.070813
vt 0.722678 0.322532
vt 0.744644 0.404972
vt 0.847586 0.304314
vt 0.829362 0.301183
vt 0.631083 0.567927
vt 0.630243 0.530805
vt 0.631083 0.494114
vt 0.809642 0.119742
vt 0.847586 0.423756
vt 0.839615 0.694946
vt 0.853627 0.717633
vt 0.833910 0.731738
vt 0.099220 0.554341
vt 0.125970 0.570531
vt 0.104620 0.593074
vt 0.821723 0.694832
vt 0.833910 0.657919
vt 0.853627 0.672011
vt 0.069458 0.570185
vt 0.184496 0.778594
vt 0.168189 0.788012
vt 0.168313 0.751899
vt 0.656401 0.679268
vt 0.651621 0.642491
vt 0.686213 0.656389
vt 0.657831 0.742425
vt 0.651621 0.716304
vt 0.687054 0.739130
vt 0.099220 0.631952
vt 0.104004 0.653141
vt 0.069077 0.652927
vt 0.069077 0.533495
vt 0.187394 0.746896
vt 0.686213 0.702007
vt 0.705024 0.853514
vt 0.686165 0.827880
vt 0.705076 0.822270
vt 0.069458 0.615803
vt 0.038751 0.530591
vt 0.033916 0.556225
vt 0.011569 0.556527
vt 0.716683 0.640491
vt 0.723006 0.619848
vt 0.744384 0.656632
vt 0.716683 0.718102
vt 0.721646 0.679214
vt 0.744384 0.702250
vt 0.705024 0.790692
vt 0.686165 0.790954
vt 0.693256 0.765563
vt 0.039399 0.593011
vt 0.033916 0.630038
vt 0.011950 0.593216
vt 0.832982 0.070713
vt 0.845169 0.033820
vt 0.850865 0.070473
vt 0.011569 0.630340
vt 0.038751 0.656170
vt 0.864887 0.047927
vt 0.858900 0.011569
vt 0.723006 0.739280
vt 0.864887 0.093539
vt 0.845169 0.107622
vt 0.858900 0.130982
vt 0.168313 0.715284
vt 0.152033 0.724811
vt 0.149108 0.697155
vt 0.687054 0.619698
vt 0.723854 0.816232
vt 0.723854 0.853159
vt 0.657831 0.616847
vt 0.149108 0.756400
vt 0.104004 0.533709
vt 0.125970 0.616149
vt 0.847622 0.634843
vt 0.829398 0.631712
vt 0.631083 0.716643
vt 0.630243 0.679521
vt 0.631083 0.642831
vt 0.187193 0.805328
vt 0.847622 0.754285
vt 0.688520 0.071131
vt 0.691283 0.107112
vt 0.654822 0.084763
vt 0.856112 0.213719
vt 0.856847 0.245013
vt 0.827905 0.237157
vt 0.664824 0.043188
vt 0.707467 0.039842
vt 0.723819 0.079349
vt 0.827905 0.195081
vt 0.294372 0.725241
vt 0.257270 0.731976
vt 0.274136 0.695200
vt 0.075931 0.769652
vt 0.048508 0.790792
vt 0.041942 0.754047
vt 0.456384 0.725113
vt 0.427718 0.729121
vt 0.435975 0.693354
vt 0.525562 0.727276
vt 0.493486 0.731856
vt 0.517283 0.696316
vt 0.856847 0.176932
vt 0.314782 0.693477
vt 0.078880 0.732492
vt 0.476621 0.695044
vt 0.793596 0.250946
vt 0.760644 0.234220
vt 0.791159 0.216963
vt 0.659393 0.272635
vt 0.631034 0.248220
vt 0.667963 0.247679
vt 0.728583 0.250196
vt 0.696838 0.269641
vt 0.708632 0.234490
vt 0.075930 0.697204
vt 0.041941 0.711464
vt 0.048507 0.679307
vt 0.496870 0.664649
vt 0.459772 0.657815
vt 0.490020 0.636078
vt 0.793595 0.179362
vt 0.760644 0.192143
vt 0.778531 0.154923
vt 0.642828 0.213069
vt 0.667963 0.178490
vt 0.679458 0.212833
vt 0.631034 0.179031
vt 0.659393 0.154923
vt 0.708632 0.191729
vt 0.696838 0.157691
vt 0.728583 0.177447
vt 0.737506 0.213691
vt 0.013087 0.733877
vt 0.011569 0.700863
vt 0.290984 0.657939
vt 0.253886 0.664780
vt 0.260734 0.636149
vt 0.820100 0.156738
vt 0.525564 0.659872
vt 0.427718 0.661774
vt 0.323036 0.661848
vt 0.233473 0.696438
vt 0.225190 0.659943
vt 0.108275 0.713331
vt 0.108275 0.755914
vt 0.011569 0.769764
vt 0.323036 0.729188
vt 0.225192 0.727348
vt 0.742675 0.047730
vt 0.748420 0.084552
vt 0.463262 0.752916
vt 0.683679 0.011569
vt 0.720599 0.017338
vt 0.648050 0.023031
vt 0.631034 0.056491
vt 0.631034 0.093764
vt 0.820101 0.266894
vt 0.726491 0.115000
vt 0.287492 0.752982
vt 0.657494 0.120415
vt 0.693066 0.131785
vt 0.459897 0.288373
vt 0.459330 0.220990
vt 0.460949 0.220980
vt 0.479326 0.288261
vt 0.564480 0.288491
vt 0.579107 0.221006
vt 0.580867 0.221006
vt 0.585610 0.288491
vt 0.582325 0.220980
vt 0.603101 0.288177
vt 0.918064 0.367755
vt 0.927518 0.301183
vt 0.929337 0.301183
vt 0.939897 0.367755
vt 0.502464 0.288178
vt 0.522871 0.220980
vt 0.524369 0.221007
vt 0.520435 0.288495
vt 0.969730 0.598849
vt 0.968307 0.597714
vt 0.968307 0.595894
vt 0.969730 0.594760
vt 0.971504 0.595165
vt 0.972293 0.596805
vt 0.971504 0.598444
vt 0.526111 0.221007
vt 0.541342 0.288495
vt 0.439985 0.288260
vt 0.457670 0.220980
vt 0.011569 0.849383
vt 0.011569 0.827544
vt 0.028642 0.813930
vt 0.049931 0.818792
vt 0.059405 0.838470
vt 0.049931 0.858145
vt 0.028642 0.863002
vt 0.951589 0.066891
vt 0.931921 0.056875
vt 0.951724 0.049967
vt 0.456732 0.913685
vt 0.445429 0.929434
vt 0.434684 0.913685
vt 0.937268 0.107957
vt 0.931921 0.090029
vt 0.952886 0.096847
vt 0.952886 0.118899
vt 0.931921 0.125710
vt 0.445787 0.887547
vt 0.932005 0.029110
vt 0.029111 0.929758
vt 0.011569 0.927996
vt 0.019438 0.902800
vt 0.047201 0.929758
vt 0.041460 0.903890
vt 0.566836 0.978491
vt 0.547040 0.971564
vt 0.566763 0.950709
vt 0.463394 0.887142
vt 0.951724 0.021967
vt 0.547040 0.943578
vt 0.427718 0.887142
vt 0.967471 0.660574
vt 0.967471 0.638522
vt 0.983200 0.649457
vt 0.931921 0.011569
vt 0.031550 0.886140
vt 0.566836 0.933209
vt 0.988431 0.631712
vt 0.930567 0.442458
vt 0.942025 0.391417
vt 0.943662 0.391611
vt 0.943662 0.444012
vt 0.920665 0.902986
vt 0.929314 0.852219
vt 0.931093 0.852219
vt 0.934896 0.902986
vt 0.932502 0.852170
vt 0.946173 0.902588
vt 0.387445 0.979254
vt 0.393815 0.932137
vt 0.395635 0.932137
vt 0.402005 0.979254
vt 0.919708 0.518570
vt 0.933765 0.468130
vt 0.935182 0.468234
vt 0.931046 0.519399
vt 0.969311 0.895212
vt 0.970095 0.893584
vt 0.971856 0.893145
vt 0.973268 0.894226
vt 0.973268 0.896013
vt 0.971856 0.897160
vt 0.970095 0.896804
vt 0.936958 0.468234
vt 0.945254 0.519399
vt 0.918064 0.438265
vt 0.940463 0.390893
vt 0.941172 0.926124
vt 0.952552 0.935052
vt 0.952552 0.949285
vt 0.941172 0.958105
vt 0.926981 0.954871
vt 0.920665 0.942018
vt 0.926981 0.929224
vt 0.931215 0.682286
vt 0.931215 0.631725
vt 0.932855 0.631712
vt 0.944333 0.682186
vt 0.630243 0.946803
vt 0.638859 0.896071
vt 0.640640 0.896071
vt 0.644493 0.946803
vt 0.642042 0.896026
vt 0.655711 0.946440
vt 0.966800 0.441462
vt 0.973170 0.390893
vt 0.974990 0.390893
vt 0.981360 0.441462
vt 0.919708 0.592977
vt 0.933777 0.542537
vt 0.935178 0.542637
vt 0.930917 0.593779
vt 0.968392 0.515360
vt 0.969181 0.513721
vt 0.970956 0.513317
vt 0.972379 0.514451
vt 0.972379 0.516270
vt 0.970956 0.517403
vt 0.969181 0.516999
vt 0.936959 0.542637
vt 0.945169 0.593779
vt 0.918097 0.682186
vt 0.929575 0.631712
vt 0.891210 0.913334
vt 0.897527 0.926446
vt 0.891210 0.939562
vt 0.877017 0.942805
vt 0.865634 0.933734
vt 0.865634 0.919179
vt 0.877017 0.910100
vt 0.931215 0.752220
vt 0.931215 0.705424
vt 0.932855 0.705569
vt 0.944333 0.753376
vt 0.923884 0.205644
vt 0.932485 0.154962
vt 0.934268 0.154962
vt 0.938152 0.205644
vt 0.935664 0.154923
vt 0.949316 0.205329
vt 0.963035 0.353188
vt 0.969404 0.301183
vt 0.971224 0.301183
vt 0.977594 0.353188
vt 0.920665 0.828289
vt 0.934718 0.777848
vt 0.936103 0.777941
vt 0.931751 0.829032
vt 0.969957 0.822491
vt 0.969179 0.820849
vt 0.969957 0.819213
vt 0.971704 0.818816
vt 0.973105 0.819956
vt 0.973105 0.821776
vt 0.971704 0.822904
vt 0.937890 0.777941
vt 0.946041 0.829032
vt 0.918097 0.753376
vt 0.929575 0.705569
vt 0.949340 0.257642
vt 0.935213 0.261065
vt 0.923885 0.252287
vt 0.923885 0.237920
vt 0.935213 0.228781
vt 0.949340 0.231753
vt 0.955627 0.244598
vt 0.873301 0.975004
vt 0.876120 0.983778
vt 0.865634 0.980375
vt 0.882600 0.974859
vt 0.865634 0.969353
vt 0.876120 0.965943
vt 0.322508 0.779448
vt 0.322508 0.790472
vt 0.313189 0.784923
vt 0.981873 0.165464
vt 0.972454 0.170073
vt 0.972509 0.159644
vt 0.969311 0.860974
vt 0.969758 0.852170
vt 0.978792 0.855482
vt 0.969758 0.870007
vt 0.978792 0.866506
vt 0.984276 0.026723
vt 0.974862 0.022103
vt 0.984228 0.016286
vt 0.312987 0.776120
vt 0.981873 0.154923
vt 0.974862 0.011569
vt 0.312987 0.793957
vt 0.967471 0.750365
vt 0.967471 0.739339
vt 0.975255 0.744820
vt 0.977951 0.753775
vt 0.984428 0.744856
vt 0.977951 0.735934
vt 0.599189 0.942908
vt 0.589974 0.942876
vt 0.596452 0.933956
vt 0.596452 0.951797
vt 0.606934 0.937365
vt 0.606934 0.948391
vt 0.322508 0.820424
vt 0.322508 0.831448
vt 0.313189 0.825899
vt 0.200725 0.973343
vt 0.191306 0.977952
vt 0.191361 0.967523
vt 0.312987 0.866875
vt 0.313434 0.858071
vt 0.322467 0.861383
vt 0.313434 0.875908
vt 0.322467 0.872407
vt 0.984276 0.065015
vt 0.974862 0.060395
vt 0.984228 0.054578
vt 0.312987 0.817095
vt 0.200725 0.962802
vt 0.974862 0.049861
vt 0.312987 0.834933
vt 0.979666 0.795678
vt 0.969179 0.792271
vt 0.976797 0.786561
vt 0.986146 0.786764
vt 0.979665 0.777848
vt 0.969179 0.781252
vt 0.589974 0.903618
vt 0.602237 0.802365
vt 0.605302 0.803805
vt 0.605302 0.910819
vt 0.767782 0.444993
vt 0.767782 0.301977
vt 0.771396 0.301828
vt 0.785855 0.444248
vt 0.773935 0.301183
vt 0.798550 0.441022
vt 0.878378 0.590729
vt 0.887819 0.468130
vt 0.891458 0.468130
vt 0.896570 0.590729
vt 0.346174 0.777188
vt 0.360647 0.636305
vt 0.363833 0.636149
vt 0.362104 0.776408
vt 0.354323 0.804435
vt 0.351855 0.806584
vt 0.348228 0.806478
vt 0.346174 0.804198
vt 0.347239 0.801460
vt 0.350621 0.800326
vt 0.353774 0.801650
vt 0.367196 0.636305
vt 0.378917 0.777188
vt 0.346174 0.907507
vt 0.364308 0.908033
vt 0.514505 0.938888
vt 0.500104 0.946433
vt 0.488551 0.938888
vt 0.488546 0.921934
vt 0.500092 0.908338
vt 0.514495 0.908338
vt 0.520909 0.921934
vt 0.646794 0.868054
vt 0.644231 0.765563
vt 0.647478 0.766530
vt 0.663027 0.872888
vt 0.548702 0.779227
vt 0.558182 0.636175
vt 0.561720 0.636175
vt 0.566390 0.779227
vt 0.564595 0.636078
vt 0.580767 0.778738
vt 0.876765 0.754710
vt 0.885857 0.631712
vt 0.889496 0.631712
vt 0.894959 0.754710
vt 0.149108 0.673180
vt 0.166117 0.530591
vt 0.169056 0.530759
vt 0.163801 0.674018
vt 0.742976 0.950314
vt 0.742976 0.953824
vt 0.740636 0.956441
vt 0.737718 0.956194
vt 0.736419 0.953268
vt 0.737718 0.949868
vt 0.740636 0.948553
vt 0.172567 0.530759
vt 0.181355 0.674018
vt 0.630243 0.872888
vt 0.640921 0.766530
vt 0.149108 0.926417
vt 0.149108 0.908924
vt 0.160533 0.900357
vt 0.174780 0.907167
vt 0.181121 0.924227
vt 0.174780 0.938689
vt 0.160533 0.939664
vt 0.548702 0.910072
vt 0.561155 0.808622
vt 0.564781 0.808517
vt 0.566836 0.909545
vt 0.767522 0.608575
vt 0.778217 0.468324
vt 0.781618 0.468130
vt 0.784527 0.607604
vt 0.784752 0.468324
vt 0.800198 0.608575
vt 0.876730 0.424504
vt 0.885409 0.301183
vt 0.889049 0.301183
vt 0.894926 0.424504
vt 0.767522 0.771040
vt 0.792373 0.631712
vt 0.794983 0.632413
vt 0.780573 0.774545
vt 0.558687 0.806473
vt 0.559236 0.803688
vt 0.562389 0.802365
vt 0.565771 0.803499
vt 0.566836 0.806237
vt 0.798585 0.632540
vt 0.798585 0.775180
vt 0.387445 0.908999
vt 0.387445 0.801620
vt 0.390637 0.800326
vt 0.403403 0.902532
vt 0.275491 0.938928
vt 0.269087 0.921974
vt 0.275501 0.908378
vt 0.289904 0.908378
vt 0.301450 0.921974
vt 0.301445 0.938928
vt 0.289892 0.946473
s 1
usemtl mob_ayam_mat.002
f 1/1/1 2/2/2 4/3/3 3/4/4
f 3/5/4 4/6/3 6/7/5 5/8/6
f 5/8/6 6/7/5 8/9/7 7/10/8
f 7/11/8 8/12/7 10/13/9 9/14/10
f 9/14/10 10/13/9 12/15/11 11/16/12
f 11/17/12 12/18/11 14/19/13 13/20/14
f 4/21/3 2/22/2 16/23/15 14/24/13 12/25/11 10/26/9 8/27/7 6/28/5
f 13/20/14 14/19/13 16/29/15 15/30/16
f 15/31/16 16/32/15 2/2/2 1/1/1
f 1/33/1 3/34/4 5/35/6 7/36/8 9/37/10 11/38/12 13/39/14 15/40/16
f 17/41/17 18/42/18 19/43/19
f 18/42/18 17/41/17 22/44/20
f 17/41/17 19/43/19 20/45/21
f 17/41/17 20/45/21 21/46/22
f 17/41/17 21/46/22 22/44/20
f 18/47/18 22/48/20 27/49/23
f 19/50/19 18/51/18 23/52/24
f 20/53/21 19/50/19 24/54/25
f 21/55/22 20/56/21 25/57/26
f 22/58/20 21/55/22 26/59/27
f 18/51/18 27/60/23 23/52/24
f 19/50/19 23/52/24 24/54/25
f 20/61/21 24/62/25 25/63/26
f 21/55/22 25/57/26 26/59/27
f 22/48/20 26/64/27 27/49/23
f 23/65/24 27/66/23 28/67/28
f 24/68/25 23/65/24 28/67/28
f 25/69/26 24/68/25 28/67/28
f 26/70/27 25/69/26 28/67/28
f 27/66/23 26/70/27 28/67/28
f 29/71/1 30/72/29 32/73/3 31/74/30
f 31/75/30 32/76/3 34/77/5 33/78/6
f 33/78/6 34/77/5 36/79/31 35/80/8
f 35/81/8 36/82/31 38/83/9 37/84/32
f 37/84/32 38/83/9 40/85/11 39/86/12
f 39/87/12 40/88/11 42/89/13 41/90/14
f 32/91/3 30/92/29 44/93/15 42/94/13 40/95/11 38/96/9 36/97/31 34/98/5
f 41/90/14 42/89/13 44/99/15 43/100/16
f 43/101/16 44/102/15 30/72/29 29/71/1
f 29/103/1 31/104/30 33/105/6 35/106/8 37/107/32 39/108/12 41/109/14 43/110/16
f 45/111/17 46/112/18 47/113/19
f 46/112/18 45/111/17 50/114/33
f 45/111/17 47/113/19 48/115/34
f 45/111/17 48/115/34 49/116/22
f 45/111/17 49/116/22 50/114/33
f 46/117/18 50/118/33 55/119/23
f 47/120/19 46/121/18 51/122/24
f 48/123/34 47/120/19 52/124/25
f 49/125/22 48/126/34 53/127/26
f 50/128/33 49/125/22 54/129/27
f 46/121/18 55/130/23 51/122/24
f 47/120/19 51/122/24 52/124/25
f 48/131/34 52/132/25 53/133/26
f 49/125/22 53/127/26 54/129/27
f 50/118/33 54/134/27 55/119/23
f 51/135/24 55/136/23 56/137/28
f 52/138/25 51/135/24 56/137/28
f 53/139/26 52/138/25 56/137/28
f 54/140/27 53/139/26 56/137/28
f 55/136/23 54/140/27 56/137/28
f 57/141/35 72/142/36 71/143/37
f 58/144/38 74/145/39 80/146/40
f 57/141/35 71/143/37 86/147/41
f 57/141/35 86/147/41 92/148/42
f 57/141/35 92/148/42 81/149/43
f 58/144/38 80/146/40 101/150/44
f 59/151/45 77/152/46 107/153/47
f 60/154/48 89/155/49 113/156/50
f 61/157/51 95/158/52 119/159/53
f 62/160/54 98/161/55 125/162/56
f 58/144/38 101/150/44 108/163/57
f 59/151/45 107/153/47 114/164/58
f 60/154/48 113/156/50 120/165/59
f 61/157/51 119/159/53 126/166/60
f 62/160/54 125/162/56 102/167/61
f 63/168/62 131/169/63 146/170/64
f 64/171/65 134/172/66 152/173/67
f 65/174/68 137/175/69 155/176/70
f 66/177/71 140/178/72 158/179/73
f 67/180/74 143/181/75 147/182/76
f 149/183/77 156/184/78 68/185/79
f 148/186/80 159/187/81 149/183/77
f 147/188/76 160/189/82 148/186/80
f 149/183/77 159/187/81 156/184/78
f 159/187/81 157/190/83 156/184/78
f 148/186/80 160/189/82 159/187/81
f 160/189/82 161/191/84 159/187/81
f 159/187/81 161/191/84 157/190/83
f 161/191/84 158/192/73 157/190/83
f 147/182/76 143/181/75 160/193/82
f 143/181/75 142/194/85 160/193/82
f 160/189/82 142/195/85 161/191/84
f 142/194/85 141/196/86 161/197/84
f 161/191/84 141/198/86 158/192/73
f 141/199/86 66/177/71 158/179/73
f 156/184/78 153/200/87 68/185/79
f 157/190/83 162/201/88 156/184/78
f 158/192/73 163/202/89 157/190/83
f 156/184/78 162/201/88 153/200/87
f 162/201/88 154/203/90 153/200/87
f 157/190/83 163/202/89 162/201/88
f 163/202/89 164/204/91 162/201/88
f 162/201/88 164/204/91 154/203/90
f 164/204/91 155/205/70 154/203/90
f 158/192/73 140/206/72 163/202/89
f 140/178/72 139/207/92 163/208/89
f 163/202/89 139/209/92 164/204/91
f 139/209/92 138/210/93 164/204/91
f 164/204/91 138/210/93 155/205/70
f 138/211/93 65/174/68 155/176/70
f 153/200/87 150/212/94 68/185/79
f 154/203/90 165/213/95 153/200/87
f 155/205/70 166/214/96 154/203/90
f 153/200/87 165/213/95 150/212/94
f 165/213/95 151/215/97 150/212/94
f 154/203/90 166/214/96 165/213/95
f 166/214/96 167/216/98 165/213/95
f 165/213/95 167/216/98 151/215/97
f 167/216/98 152/217/67 151/215/97
f 155/176/70 137/175/69 166/218/96
f 137/175/69 136/219/99 166/218/96
f 166/218/96 136/219/99 167/220/98
f 136/219/99 135/221/100 167/220/98
f 167/220/98 135/221/100 152/173/67
f 135/221/100 64/171/65 152/173/67
f 150/212/94 144/222/101 68/185/79
f 151/215/97 168/223/102 150/212/94
f 152/217/67 169/224/103 151/215/97
f 150/212/94 168/223/102 144/222/101
f 168/223/102 145/225/104 144/222/101
f 151/215/97 169/224/103 168/223/102
f 169/224/103 170/226/105 168/223/102
f 168/223/102 170/226/105 145/225/104
f 170/226/105 146/227/64 145/225/104
f 152/217/67 134/228/66 169/224/103
f 134/228/66 133/229/106 169/224/103
f 169/224/103 133/229/106 170/226/105
f 133/230/106 132/231/107 170/232/105
f 170/226/105 132/233/107 146/227/64
f 132/231/107 63/168/62 146/170/64
f 144/222/101 149/183/77 68/185/79
f 145/225/104 171/234/108 144/222/101
f 146/227/64 172/235/109 145/225/104
f 144/222/101 171/234/108 149/183/77
f 171/234/108 148/186/80 149/183/77
f 145/225/104 172/235/109 171/234/108
f 172/235/109 173/236/110 171/234/108
f 171/234/108 173/236/110 148/186/80
f 173/236/110 147/188/76 148/186/80
f 146/227/64 131/237/63 172/235/109
f 131/237/63 130/238/111 172/235/109
f 172/235/109 130/238/111 173/236/110
f 130/239/111 129/240/112 173/241/110
f 173/241/110 129/240/112 147/182/76
f 129/240/112 67/180/74 147/182/76
f 104/242/113 143/181/75 67/180/74
f 103/243/114 174/244/115 104/242/113
f 102/167/61 175/245/116 103/243/114
f 104/242/113 174/244/115 143/181/75
f 174/244/115 142/194/85 143/181/75
f 103/243/114 175/245/116 174/244/115
f 175/245/116 176/246/117 174/244/115
f 174/244/115 176/246/117 142/194/85
f 176/246/117 141/196/86 142/194/85
f 102/167/61 125/162/56 175/245/116
f 125/162/56 124/247/118 175/245/116
f 175/245/116 124/247/118 176/246/117
f 124/247/118 123/248/119 176/246/117
f 176/249/117 123/250/119 141/199/86
f 123/250/119 66/177/71 141/199/86
f 128/251/120 140/178/72 66/177/71
f 127/252/121 177/253/122 128/251/120
f 126/166/60 178/254/123 127/252/121
f 128/251/120 177/253/122 140/178/72
f 177/253/122 139/207/92 140/178/72
f 127/252/121 178/254/123 177/253/122
f 178/254/123 179/255/124 177/253/122
f 177/253/122 179/255/124 139/207/92
f 179/255/124 138/256/93 139/207/92
f 126/166/60 119/159/53 178/254/123
f 119/159/53 118/257/125 178/254/123
f 178/254/123 118/257/125 179/255/124
f 118/258/125 117/259/126 179/260/124
f 179/260/124 117/259/126 138/211/93
f 117/259/126 65/174/68 138/211/93
f 122/261/127 137/175/69 65/174/68
f 121/262/128 180/263/129 122/261/127
f 120/165/59 181/264/130 121/262/128
f 122/261/127 180/263/129 137/175/69
f 180/263/129 136/219/99 137/175/69
f 121/262/128 181/264/130 180/263/129
f 181/264/130 182/265/131 180/263/129
f 180/263/129 182/265/131 136/219/99
f 182/265/131 135/221/100 136/219/99
f 120/165/59 113/156/50 181/264/130
f 113/156/50 112/266/132 181/264/130
f 181/264/130 112/266/132 182/265/131
f 112/266/132 111/267/133 182/265/131
f 182/265/131 111/267/133 135/221/100
f 111/267/133 64/171/65 135/221/100
f 116/268/134 134/172/66 64/171/65
f 115/269/135 183/270/136 116/271/134
f 114/164/58 184/272/137 115/269/135
f 116/268/134 183/273/136 134/172/66
f 183/270/136 133/230/106 134/274/66
f 115/269/135 184/272/137 183/270/136
f 184/272/137 185/275/138 183/270/136
f 183/270/136 185/275/138 133/230/106
f 185/275/138 132/231/107 133/230/106
f 114/164/58 107/153/47 184/272/137
f 107/153/47 106/276/139 184/272/137
f 184/272/137 106/276/139 185/275/138
f 106/276/139 105/277/140 185/275/138
f 185/275/138 105/277/140 132/231/107
f 105/277/140 63/168/62 132/231/107
f 110/278/141 131/169/63 63/168/62
f 109/279/142 186/280/143 110/278/141
f 108/163/57 187/281/144 109/282/142
f 110/278/141 186/280/143 131/169/63
f 186/283/143 130/239/111 131/284/63
f 109/282/142 187/281/144 186/283/143
f 187/281/144 188/285/145 186/283/143
f 186/283/143 188/285/145 130/239/111
f 188/285/145 129/240/112 130/239/111
f 108/163/57 101/150/44 187/281/144
f 101/150/44 100/286/146 187/281/144
f 187/281/144 100/286/146 188/285/145
f 100/286/146 99/287/147 188/285/145
f 188/285/145 99/287/147 129/240/112
f 99/287/147 67/180/74 129/240/112
f 123/250/119 128/251/120 66/177/71
f 124/288/118 189/289/148 123/250/119
f 125/290/56 190/291/149 124/288/118
f 123/250/119 189/289/148 128/251/120
f 189/289/148 127/252/121 128/251/120
f 124/288/118 190/291/149 189/289/148
f 190/291/149 191/292/150 189/289/148
f 189/289/148 191/292/150 127/252/121
f 191/292/150 126/166/60 127/252/121
f 125/162/56 98/161/55 190/293/149
f 98/294/55 97/295/151 190/291/149
f 190/291/149 97/295/151 191/292/150
f 97/295/151 96/296/152 191/292/150
f 191/292/150 96/296/152 126/166/60
f 96/296/152 61/157/51 126/166/60
f 117/259/126 122/261/127 65/174/68
f 118/258/125 192/297/153 117/259/126
f 119/159/53 193/298/154 118/257/125
f 117/259/126 192/297/153 122/261/127
f 192/297/153 121/262/128 122/261/127
f 118/258/125 193/299/154 192/297/153
f 193/299/154 194/300/155 192/297/153
f 192/297/153 194/300/155 121/262/128
f 194/300/155 120/165/59 121/262/128
f 119/159/53 95/158/52 193/298/154
f 95/301/52 94/302/156 193/299/154
f 193/299/154 94/302/156 194/300/155
f 94/302/156 93/303/157 194/300/155
f 194/300/155 93/303/157 120/165/59
f 93/303/157 60/154/48 120/165/59
f 111/267/133 116/268/134 64/171/65
f 112/266/132 195/304/158 111/267/133
f 113/156/50 196/305/159 112/266/132
f 111/267/133 195/304/158 116/268/134
f 195/304/158 115/306/135 116/268/134
f 112/266/132 196/305/159 195/304/158
f 196/305/159 197/307/160 195/304/158
f 195/304/158 197/307/160 115/306/135
f 197/308/160 114/164/58 115/269/135
f 113/156/50 89/155/49 196/305/159
f 89/155/49 88/309/161 196/305/159
f 196/305/159 88/309/161 197/307/160
f 88/309/161 87/310/162 197/307/160
f 197/308/160 87/311/162 114/164/58
f 87/311/162 59/151/45 114/164/58
f 105/277/140 110/278/141 63/168/62
f 106/276/139 198/312/163 105/277/140
f 107/153/47 199/313/164 106/276/139
f 105/277/140 198/312/163 110/278/141
f 198/312/163 109/279/142 110/278/141
f 106/276/139 199/313/164 198/312/163
f 199/313/164 200/314/165 198/312/163
f 198/312/163 200/314/165 109/279/142
f 200/314/165 108/315/57 109/279/142
f 107/153/47 77/152/46 199/313/164
f 77/152/46 76/316/166 199/313/164
f 199/313/164 76/316/166 200/314/165
f 76/316/166 75/317/167 200/314/165
f 200/314/165 75/317/167 108/315/57
f 75/318/167 58/144/38 108/163/57
f 99/287/147 104/242/113 67/180/74
f 100/286/146 201/319/168 99/287/147
f 101/150/44 202/320/169 100/286/146
f 99/287/147 201/319/168 104/242/113
f 201/319/168 103/243/114 104/242/113
f 100/286/146 202/320/169 201/319/168
f 202/320/169 203/321/170 201/319/168
f 201/319/168 203/321/170 103/243/114
f 203/321/170 102/167/61 103/243/114
f 101/150/44 80/146/40 202/320/169
f 80/146/40 79/322/171 202/320/169
f 202/320/169 79/322/171 203/321/170
f 79/322/171 78/323/172 203/321/170
f 203/321/170 78/323/172 102/167/61
f 78/323/172 62/160/54 102/167/61
f 83/324/173 98/161/55 62/160/54
f 82/325/174 204/326/175 83/327/173
f 81/149/43 205/328/176 82/325/174
f 83/327/173 204/326/175 98/329/55
f 204/326/175 97/330/151 98/329/55
f 82/325/174 205/328/176 204/326/175
f 205/328/176 206/331/177 204/326/175
f 204/326/175 206/331/177 97/330/151
f 206/332/177 96/296/152 97/295/151
f 81/149/43 92/148/42 205/328/176
f 92/148/42 91/333/178 205/328/176
f 205/328/176 91/333/178 206/331/177
f 91/333/178 90/334/179 206/331/177
f 206/331/177 90/334/179 96/335/152
f 90/336/179 61/157/51 96/296/152
f 90/336/179 95/158/52 61/157/51
f 91/333/178 207/337/180 90/334/179
f 92/148/42 208/338/181 91/333/178
f 90/334/179 207/337/180 95/339/52
f 207/337/180 94/340/156 95/339/52
f 91/333/178 208/338/181 207/337/180
f 208/338/181 209/341/182 207/337/180
f 207/337/180 209/341/182 94/340/156
f 209/342/182 93/303/157 94/302/156
f 92/148/42 86/147/41 208/338/181
f 86/147/41 85/343/183 208/338/181
f 208/338/181 85/343/183 209/341/182
f 85/343/183 84/344/184 209/341/182
f 209/342/182 84/345/184 93/303/157
f 84/345/184 60/154/48 93/303/157
f 84/345/184 89/155/49 60/154/48
f 85/343/183 210/346/185 84/344/184
f 86/147/41 211/347/186 85/343/183
f 84/345/184 210/348/185 89/155/49
f 210/348/185 88/309/161 89/155/49
f 85/343/183 211/347/186 210/346/185
f 211/347/186 212/349/187 210/346/185
f 210/346/185 212/349/187 88/350/161
f 212/349/187 87/351/162 88/350/161
f 86/147/41 71/143/37 211/347/186
f 71/143/37 70/352/188 211/347/186
f 211/347/186 70/352/188 212/349/187
f 70/352/188 69/353/189 212/349/187
f 212/349/187 69/353/189 87/351/162
f 69/354/189 59/151/45 87/311/162
f 78/323/172 83/324/173 62/160/54
f 79/322/171 213/355/190 78/323/172
f 80/146/40 214/356/191 79/322/171
f 78/323/172 213/355/190 83/324/173
f 213/357/190 82/325/174 83/327/173
f 79/322/171 214/356/191 213/355/190
f 214/358/191 215/359/192 213/357/190
f 213/357/190 215/359/192 82/325/174
f 215/359/192 81/149/43 82/325/174
f 80/146/40 74/145/39 214/356/191
f 74/360/39 73/361/193 214/358/191
f 214/358/191 73/361/193 215/359/192
f 73/361/193 72/142/36 215/359/192
f 215/359/192 72/142/36 81/149/43
f 72/142/36 57/141/35 81/149/43
f 69/354/189 77/152/46 59/151/45
f 70/352/188 216/362/194 69/353/189
f 71/143/37 217/363/195 70/352/188
f 69/353/189 216/362/194 77/364/46
f 216/365/194 76/316/166 77/152/46
f 70/352/188 217/363/195 216/362/194
f 217/363/195 218/366/196 216/362/194
f 216/362/194 218/366/196 76/367/166
f 218/366/196 75/368/167 76/367/166
f 71/143/37 72/142/36 217/363/195
f 72/142/36 73/361/193 217/363/195
f 217/363/195 73/361/193 218/366/196
f 73/361/193 74/360/39 218/366/196
f 218/366/196 74/360/39 75/368/167
f 74/145/39 58/144/38 75/318/167
f 219/369/197 232/370/198 231/371/199
f 220/372/200 232/373/198 234/374/201
f 219/369/197 231/371/199 236/375/202
f 219/369/197 236/375/202 238/376/203
f 219/369/197 238/376/203 235/377/204
f 220/372/200 234/374/201 241/378/205
f 221/379/206 233/380/207 243/381/208
f 222/382/209 237/383/210 245/384/211
f 223/385/212 239/386/213 247/387/214
f 224/388/215 240/389/216 249/390/217
f 220/372/200 241/378/205 244/391/218
f 221/379/206 243/381/208 246/392/219
f 222/382/209 245/384/211 248/393/220
f 223/394/212 247/395/214 250/396/221
f 224/388/215 249/390/217 242/397/222
f 225/398/223 251/399/224 256/400/225
f 226/401/226 252/402/227 258/403/228
f 227/404/229 253/405/230 259/406/231
f 228/407/232 254/408/233 260/409/234
f 229/410/235 255/411/236 257/412/237
f 257/413/237 260/414/234 230/415/238
f 257/412/237 255/411/236 260/416/234
f 255/411/236 228/417/232 260/416/234
f 260/414/234 259/418/231 230/415/238
f 260/414/234 254/419/233 259/418/231
f 254/420/233 227/404/229 259/406/231
f 259/418/231 258/421/228 230/415/238
f 259/406/231 253/405/230 258/403/228
f 253/405/230 226/401/226 258/403/228
f 258/421/228 256/422/225 230/415/238
f 258/421/228 252/423/227 256/422/225
f 252/424/227 225/425/223 256/426/225
f 256/422/225 257/413/237 230/415/238
f 256/400/225 251/399/224 257/412/237
f 251/399/224 229/410/235 257/412/237
f 242/397/222 255/411/236 229/410/235
f 242/397/222 249/390/217 255/411/236
f 249/390/217 228/417/232 255/411/236
f 250/396/221 254/408/233 228/407/232
f 250/396/221 247/395/214 254/408/233
f 247/387/214 227/404/229 254/420/233
f 248/393/220 253/405/230 227/404/229
f 248/393/220 245/384/211 253/405/230
f 245/384/211 226/401/226 253/405/230
f 246/427/219 252/402/227 226/401/226
f 246/392/219 243/381/208 252/424/227
f 243/381/208 225/425/223 252/424/227
f 244/391/218 251/399/224 225/398/223
f 244/391/218 241/378/205 251/399/224
f 241/378/205 229/410/235 251/399/224
f 249/428/217 250/396/221 228/407/232
f 249/428/217 240/429/216 250/396/221
f 240/429/216 223/394/212 250/396/221
f 247/387/214 248/393/220 227/404/229
f 247/387/214 239/386/213 248/393/220
f 239/386/213 222/382/209 248/393/220
f 245/384/211 246/427/219 226/401/226
f 245/384/211 237/383/210 246/427/219
f 237/383/210 221/430/206 246/427/219
f 243/381/208 244/431/218 225/425/223
f 243/381/208 233/380/207 244/431/218
f 233/432/207 220/372/200 244/391/218
f 241/378/205 242/397/222 229/410/235
f 241/378/205 234/374/201 242/397/222
f 234/374/201 224/388/215 242/397/222
f 235/433/204 240/389/216 224/388/215
f 235/377/204 238/376/203 240/434/216
f 238/376/203 223/435/212 240/434/216
f 238/436/203 239/386/213 223/385/212
f 238/436/203 236/437/202 239/386/213
f 236/437/202 222/382/209 239/386/213
f 236/437/202 237/383/210 222/382/209
f 236/437/202 231/438/199 237/383/210
f 231/438/199 221/430/206 237/383/210
f 234/374/201 235/433/204 224/388/215
f 234/374/201 232/373/198 235/433/204
f 232/370/198 219/369/197 235/377/204
f 231/439/199 233/380/207 221/379/206
f 231/371/199 232/370/198 233/440/207
f 232/373/198 220/372/200 233/432/207
f 261/441/197 274/442/198 273/443/199
f 262/444/239 274/445/198 276/446/201
f 261/441/197 273/443/199 278/447/202
f 261/441/197 278/447/202 280/448/203
f 261/441/197 280/448/203 277/449/204
f 262/444/239 276/446/201 283/450/205
f 263/451/206 275/452/207 285/453/208
f 264/454/209 279/455/210 287/456/211
f 265/457/212 281/458/213 289/459/214
f 266/460/215 282/461/216 291/462/240
f 262/444/239 283/450/205 286/463/241
f 263/451/206 285/453/208 288/464/219
f 264/454/209 287/456/211 290/465/220
f 265/466/212 289/467/214 292/468/221
f 266/460/215 291/462/240 284/469/222
f 267/470/223 293/471/224 298/472/225
f 268/473/226 294/474/227 300/475/228
f 269/476/229 295/477/230 301/478/231
f 270/479/232 296/480/233 302/481/234
f 271/482/235 297/483/236 299/484/237
f 299/485/237 302/486/234 272/487/238
f 299/484/237 297/483/236 302/488/234
f 297/483/236 270/489/232 302/488/234
f 302/486/234 301/490/231 272/487/238
f 302/486/234 296/491/233 301/490/231
f 296/492/233 269/476/229 301/478/231
f 301/490/231 300/493/228 272/487/238
f 301/478/231 295/477/230 300/475/228
f 295/477/230 268/473/226 300/475/228
f 300/493/228 298/494/225 272/487/238
f 300/493/228 294/495/227 298/494/225
f 294/496/227 267/497/223 298/498/225
f 298/494/225 299/485/237 272/487/238
f 298/472/225 293/471/224 299/484/237
f 293/471/224 271/482/235 299/484/237
f 284/469/222 297/483/236 271/482/235
f 284/469/222 291/462/240 297/483/236
f 291/462/240 270/489/232 297/483/236
f 292/468/221 296/480/233 270/479/232
f 292/468/221 289/467/214 296/480/233
f 289/459/214 269/476/229 296/492/233
f 290/465/220 295/477/230 269/476/229
f 290/465/220 287/456/211 295/477/230
f 287/456/211 268/473/226 295/477/230
f 288/499/219 294/474/227 268/473/226
f 288/464/219 285/453/208 294/496/227
f 285/453/208 267/497/223 294/496/227
f 286/463/241 293/471/224 267/470/223
f 286/463/241 283/450/205 293/471/224
f 283/450/205 271/482/235 293/471/224
f 291/500/240 292/468/221 270/479/232
f 291/500/240 282/501/216 292/468/221
f 282/501/216 265/466/212 292/468/221
f 289/459/214 290/465/220 269/476/229
f 289/459/214 281/458/213 290/465/220
f 281/458/213 264/454/209 290/465/220
f 287/456/211 288/499/219 268/473/226
f 287/456/211 279/455/210 288/499/219
f 279/455/210 263/502/206 288/499/219
f 285/453/208 286/503/241 267/497/223
f 285/453/208 275/452/207 286/503/241
f 275/504/207 262/444/239 286/463/241
f 283/450/205 284/469/222 271/482/235
f 283/450/205 276/446/201 284/469/222
f 276/446/201 266/460/215 284/469/222
f 277/505/204 282/461/216 266/460/215
f 277/449/204 280/448/203 282/506/216
f 280/448/203 265/507/212 282/506/216
f 280/508/203 281/458/213 265/457/212
f 280/508/203 278/509/202 281/458/213
f 278/509/202 264/454/209 281/458/213
f 278/509/202 279/455/210 264/454/209
f 278/509/202 273/510/199 279/455/210
f 273/510/199 263/502/206 279/455/210
f 276/446/201 277/505/204 266/460/215
f 276/446/201 274/445/198 277/505/204
f 274/442/198 261/441/197 277/449/204
f 273/511/199 275/452/207 263/451/206
f 273/443/199 274/442/198 275/512/207
f 274/445/198 262/444/239 275/504/207
f 303/513/242 316/514/243 315/515/244
f 304/516/245 316/517/243 318/518/246
f 303/513/242 315/515/244 320/519/247
f 303/513/242 320/519/247 322/520/248
f 303/513/242 322/520/248 319/521/249
f 304/516/245 318/518/246 325/522/250
f 305/523/251 317/524/252 327/525/208
f 306/526/253 321/527/254 329/528/255
f 307/529/256 323/530/257 331/531/258
f 308/532/259 324/533/260 333/534/261
f 304/516/245 325/522/250 328/535/262
f 305/523/251 327/525/208 330/536/263
f 306/526/253 329/528/255 332/537/264
f 307/529/256 331/531/258 334/538/221
f 308/539/259 333/540/261 326/541/265
f 309/542/266 335/543/267 340/544/268
f 310/545/269 336/546/270 342/547/271
f 311/548/272 337/549/273 343/550/274
f 312/551/275 338/552/276 344/553/277
f 313/554/278 339/555/279 341/556/280
f 341/557/280 344/558/277 314/559/281
f 341/557/280 339/560/279 344/558/277
f 339/560/279 312/561/275 344/558/277
f 344/558/277 343/562/274 314/559/281
f 344/558/277 338/563/276 343/562/274
f 338/563/276 311/564/272 343/562/274
f 343/562/274 342/547/271 314/559/281
f 343/562/274 337/565/273 342/547/271
f 337/549/273 310/566/269 342/567/271
f 342/547/271 340/544/268 314/559/281
f 342/547/271 336/546/270 340/544/268
f 336/568/270 309/569/266 340/570/268
f 340/544/268 341/557/280 314/559/281
f 340/544/268 335/543/267 341/557/280
f 335/571/267 313/554/278 341/556/280
f 326/541/265 339/555/279 313/554/278
f 326/541/265 333/540/261 339/555/279
f 333/534/261 312/551/275 339/572/279
f 334/538/221 338/552/276 312/551/275
f 334/538/221 331/531/258 338/552/276
f 331/531/258 311/573/272 338/552/276
f 332/537/264 337/549/273 311/548/272
f 332/537/264 329/528/255 337/549/273
f 329/528/255 310/566/269 337/549/273
f 330/536/263 336/568/270 310/574/269
f 330/536/263 327/525/208 336/568/270
f 327/525/208 309/569/266 336/568/270
f 328/575/262 335/576/267 309/569/266
f 328/535/262 325/522/250 335/571/267
f 325/522/250 313/554/278 335/571/267
f 333/534/261 334/538/221 312/551/275
f 333/534/261 324/533/260 334/538/221
f 324/533/260 307/529/256 334/538/221
f 331/577/258 332/537/264 311/548/272
f 331/577/258 323/578/257 332/537/264
f 323/578/257 306/526/253 332/537/264
f 329/528/255 330/579/263 310/566/269
f 329/528/255 321/527/254 330/579/263
f 321/580/254 305/523/251 330/536/263
f 327/525/208 328/575/262 309/569/266
f 327/525/208 317/524/252 328/575/262
f 317/524/252 304/581/245 328/575/262
f 325/522/250 326/541/265 313/554/278
f 325/522/250 318/518/246 326/541/265
f 318/518/246 308/539/259 326/541/265
f 319/521/249 324/582/260 308/583/259
f 319/521/249 322/520/248 324/582/260
f 322/584/248 307/529/256 324/533/260
f 322/520/248 323/585/257 307/586/256
f 322/520/248 320/519/247 323/585/257
f 320/519/247 306/587/253 323/585/257
f 320/519/247 321/588/254 306/587/253
f 320/519/247 315/515/244 321/588/254
f 315/515/244 305/589/251 321/588/254
f 318/518/246 319/590/249 308/539/259
f 318/591/246 316/514/243 319/521/249
f 316/514/243 303/513/242 319/521/249
f 315/592/244 317/524/252 305/523/251
f 315/515/244 316/514/243 317/593/252
f 316/514/243 304/594/245 317/593/252
f 345/595/282 346/596/283 348/597/284 347/598/285
f 347/599/285 348/600/284 350/601/286 349/602/287
f 349/602/287 350/601/286 352/603/288 351/604/289
f 351/605/289 352/606/288 354/607/290 353/608/291
f 353/609/291 354/610/290 356/611/292 355/612/293
f 348/613/284 346/614/283 358/615/294 356/616/292 354/617/290 352/618/288 350/619/286
f 355/612/293 356/611/292 358/620/294 357/621/295
f 357/622/295 358/623/294 346/596/283 345/595/282
f 345/624/282 347/625/285 349/626/287 351/627/289 353/628/291 355/629/293 357/630/295
f 359/631/242 360/632/296 361/633/297
f 360/634/296 359/635/242 364/636/298
f 359/637/242 361/638/297 362/639/299
f 359/637/242 362/639/299 363/640/300
f 359/637/242 363/640/300 364/641/298
f 360/634/296 364/636/298 369/642/301
f 361/633/297 360/632/296 365/643/302
f 362/644/299 361/645/297 366/646/303
f 363/647/300 362/644/299 367/648/304
f 364/649/298 363/650/300 368/651/305
f 360/634/296 369/642/301 365/652/302
f 361/633/297 365/643/302 366/653/303
f 362/644/299 366/646/303 367/648/304
f 363/650/300 367/654/304 368/651/305
f 364/636/298 368/655/305 369/642/301
f 365/656/302 369/657/301 370/658/281
f 366/653/303 365/643/302 370/659/281
f 367/648/304 366/646/303 370/660/281
f 368/651/305 367/654/304 370/661/281
f 369/657/301 368/662/305 370/658/281
f 371/663/306 372/664/307 374/665/308 373/666/309
f 373/667/309 374/668/308 376/669/310 375/670/311
f 375/670/311 376/669/310 378/671/312 377/672/313
f 377/673/313 378/674/312 380/675/314 379/676/315
f 379/677/315 380/678/314 382/679/316 381/680/317
f 374/681/308 372/682/307 384/683/318 382/684/316 380/685/314 378/686/312 376/687/310
f 381/680/317 382/679/316 384/688/318 383/689/319
f 383/690/319 384/691/318 372/664/307 371/663/306
f 371/692/306 373/693/309 375/694/311 377/695/313 379/696/315 381/697/317 383/698/319
f 385/699/320 386/700/321 388/701/322 387/702/323
f 387/703/323 388/704/322 390/705/324 389/706/325
f 389/706/325 390/705/324 392/707/326 391/708/327
f 391/709/327 392/710/326 394/711/328 393/712/329
f 393/713/329 394/714/328 396/715/330 395/716/331
f 388/717/322 386/718/321 398/719/332 396/720/330 394/721/328 392/722/326 390/723/324
f 395/716/331 396/715/330 398/724/332 397/725/333
f 397/726/333 398/727/332 386/700/321 385/699/320
f 385/728/320 387/729/323 389/730/325 391/731/327 393/732/329 395/733/331 397/734/333
f 399/735/334 400/736/335 402/737/336 401/738/337
f 401/739/337 402/740/336 404/741/338 403/742/339
f 403/742/339 404/741/338 406/743/340 405/744/341
f 405/745/341 406/746/340 408/747/342 407/748/343
f 407/749/343 408/750/342 410/751/344 409/752/345
f 402/753/336 400/754/335 412/755/346 410/756/344 408/757/342 406/758/340 404/759/338
f 409/752/345 410/751/344 412/760/346 411/761/347
f 411/762/347 412/763/346 400/736/335 399/735/334
f 399/764/334 401/765/337 403/766/339 405/767/341 407/768/343 409/769/345 411/770/347
f 413/771/242 414/772/348 415/773/349
f 414/772/348 413/771/242 418/774/350
f 413/771/242 415/773/349 416/775/351
f 413/771/242 416/775/351 417/776/352
f 413/771/242 417/776/352 418/774/350
f 414/777/348 418/778/350 423/779/353
f 415/780/349 414/781/348 419/782/354
f 416/783/351 415/784/349 420/785/355
f 417/786/352 416/783/351 421/787/356
f 418/788/350 417/789/352 422/790/357
f 414/777/348 423/779/353 419/791/354
f 415/780/349 419/782/354 420/792/355
f 416/783/351 420/785/355 421/787/356
f 417/789/352 421/793/356 422/790/357
f 418/778/350 422/794/357 423/779/353
f 419/795/354 423/796/353 424/797/281
f 420/798/355 419/795/354 424/797/281
f 421/799/356 420/798/355 424/797/281
f 422/800/357 421/799/356 424/797/281
f 423/796/353 422/800/357 424/797/281
f 425/801/242 426/802/348 427/803/349
f 426/802/348 425/801/242 430/804/350
f 425/801/242 427/803/349 428/805/351
f 425/801/242 428/805/351 429/806/352
f 425/801/242 429/806/352 430/804/350
f 426/807/348 430/808/350 435/809/353
f 427/810/349 426/811/348 431/812/354
f 428/813/351 427/814/349 432/815/355
f 429/816/352 428/813/351 433/817/356
f 430/818/350 429/819/352 434/820/357
f 426/807/348 435/809/353 431/821/354
f 427/810/349 431/812/354 432/822/355
f 428/813/351 432/815/355 433/817/356
f 429/819/352 433/823/356 434/820/357
f 430/808/350 434/824/357 435/809/353
f 431/825/354 435/826/353 436/827/281
f 432/828/355 431/825/354 436/827/281
f 433/829/356 432/828/355 436/827/281
f 434/830/357 433/829/356 436/827/281
f 435/826/353 434/830/357 436/827/281
f 437/831/358 438/832/359 440/833/360 439/834/361
f 439/835/361 440/836/360 442/837/362 441/838/363
f 441/838/363 442/837/362 444/839/364 443/840/365
f 443/841/365 444/842/364 446/843/366 445/844/367
f 445/845/367 446/846/366 448/847/368 447/848/369
f 440/849/360 438/850/359 450/851/370 448/852/368 446/853/366 444/854/364 442/855/362
f 447/848/369 448/847/368 450/856/370 449/857/371
f 449/858/371 450/851/370 438/850/359 437/859/358
f 437/860/358 439/861/361 441/862/363 443/863/365 445/864/367 447/865/369 449/866/371
f 451/867/372 452/868/373 454/869/374 453/870/375
f 453/871/375 454/872/374 456/873/376 455/874/377
f 455/874/377 456/873/376 458/875/378 457/876/379
f 457/877/379 458/878/378 460/879/380 459/880/381
f 459/881/381 460/882/380 462/883/382 461/884/383
f 454/885/374 452/886/373 464/887/384 462/888/382 460/889/380 458/890/378 456/891/376
f 461/884/383 462/883/382 464/892/384 463/893/385
f 463/894/385 464/895/384 452/868/373 451/867/372
f 451/896/372 453/897/375 455/898/377 457/899/379 459/900/381 461/901/383 463/902/385
f 465/903/386 466/904/387 468/905/388 467/906/389
f 467/907/389 468/908/388 470/909/390 469/910/391
f 469/910/391 470/909/390 472/911/392 471/912/393
f 471/913/393 472/914/392 474/915/394 473/916/395
f 473/917/395 474/918/394 476/919/396 475/920/397
f 468/905/388 466/904/387 478/921/398 476/922/396 474/923/394 472/924/392 470/925/390
f 475/920/397 476/919/396 478/926/398 477/927/399
f 477/928/399 478/929/398 466/930/387 465/931/386
f 465/932/386 467/933/389 469/934/391 471/935/393 473/936/395 475/937/397 477/938/399
