# axis-converted-to-Y-up
# Blender 5.1.1
# www.blender.org
mtllib mob_kambing.mtl
o mob_kambing
v -1.046063 0.029426 -0.143548
v -1.046063 0.589735 -0.215998
v -1.078504 0.029426 -0.156986
v -1.078504 0.589735 -0.229436
v -1.091943 0.029426 -0.189428
v -1.091943 0.589735 -0.261878
v -1.078504 0.029426 -0.221869
v -1.078504 0.589735 -0.294319
v -1.046063 0.029426 -0.235308
v -1.046063 0.589735 -0.307758
v -1.013621 0.029426 -0.221869
v -1.013621 0.589735 -0.294319
v -1.000183 0.029426 -0.189428
v -1.000183 0.589735 -0.261878
v -1.013621 0.029426 -0.156986
v -1.013621 0.589735 -0.229436
v -1.046063 0.020250 -0.134372
v -1.046063 0.093658 -0.134372
v -1.084993 0.020250 -0.150498
v -1.084993 0.093658 -0.150498
v -1.101119 0.020250 -0.189428
v -1.101119 0.093658 -0.189428
v -1.084993 0.020250 -0.228358
v -1.084993 0.093658 -0.228358
v -1.046063 0.020250 -0.244484
v -1.046063 0.093658 -0.244484
v -1.007133 0.020250 -0.228358
v -1.007133 0.093658 -0.228358
v -0.991007 0.020250 -0.189428
v -0.991007 0.093658 -0.189428
v -1.007133 0.020250 -0.150498
v -1.007133 0.093658 -0.150498
v -1.046063 0.029426 0.370308
v -1.046063 0.589735 0.297858
v -1.078504 0.029426 0.356869
v -1.078504 0.589735 0.284419
v -1.091943 0.029426 0.324428
v -1.091943 0.589735 0.251978
v -1.078504 0.029426 0.291986
v -1.078504 0.589735 0.219536
v -1.046063 0.029426 0.278548
v -1.046063 0.589735 0.206098
v -1.013621 0.029426 0.291986
v -1.013621 0.589735 0.219536
v -1.000183 0.029426 0.324428
v -1.000183 0.589735 0.251978
v -1.013621 0.029426 0.356869
v -1.013621 0.589735 0.284419
v -1.046063 0.020250 0.379483
v -1.046063 0.093658 0.379483
v -1.084993 0.020250 0.363358
v -1.084993 0.093658 0.363358
v -1.101119 0.020250 0.324428
v -1.101119 0.093658 0.324428
v -1.084993 0.020250 0.285498
v -1.084993 0.093658 0.285498
v -1.046063 0.020250 0.269372
v -1.046063 0.093658 0.269372
v -1.007133 0.020250 0.285498
v -1.007133 0.093658 0.285498
v -0.991007 0.020250 0.324428
v -0.991007 0.093658 0.324428
v -1.007133 0.020250 0.363358
v -1.007133 0.093658 0.363358
v -1.339694 0.009176 -0.278548
v -1.339694 0.589735 -0.215998
v -1.372136 0.009176 -0.291986
v -1.372136 0.589735 -0.229436
v -1.385574 0.009176 -0.324428
v -1.385574 0.589735 -0.261878
v -1.372136 0.009176 -0.356869
v -1.372136 0.589735 -0.294319
v -1.339694 0.009176 -0.370308
v -1.339694 0.589735 -0.307758
v -1.307253 0.009176 -0.356869
v -1.307253 0.589735 -0.294319
v -1.293814 0.009176 -0.324428
v -1.293814 0.589735 -0.261878
v -1.307253 0.009176 -0.291986
v -1.307253 0.589735 -0.229436
v -1.339694 0.000000 -0.269372
v -1.339694 0.073408 -0.269372
v -1.378624 0.000000 -0.285498
v -1.378624 0.073408 -0.285498
v -1.394750 0.000000 -0.324428
v -1.394750 0.073408 -0.324428
v -1.378624 0.000000 -0.363358
v -1.378624 0.073408 -0.363358
v -1.339694 0.000000 -0.379484
v -1.339694 0.073408 -0.379484
v -1.300764 0.000000 -0.363358
v -1.300764 0.073408 -0.363358
v -1.284638 0.000000 -0.324428
v -1.284638 0.073408 -0.324428
v -1.300764 0.000000 -0.285498
v -1.300764 0.073408 -0.285498
v -1.339694 0.009176 0.235307
v -1.339694 0.589735 0.297857
v -1.372136 0.009176 0.221869
v -1.372136 0.589735 0.284419
v -1.385574 0.009176 0.189428
v -1.385574 0.589735 0.251978
v -1.372136 0.009176 0.156986
v -1.372136 0.589735 0.219536
v -1.339694 0.009176 0.143548
v -1.339694 0.589735 0.206098
v -1.307253 0.009176 0.156986
v -1.307253 0.589735 0.219536
v -1.293814 0.009176 0.189428
v -1.293814 0.589735 0.251978
v -1.307253 0.009176 0.221869
v -1.307253 0.589735 0.284419
v -1.339694 0.000000 0.244483
v -1.339694 0.073408 0.244483
v -1.378624 0.000000 0.228358
v -1.378624 0.073408 0.228358
v -1.394750 0.000000 0.189428
v -1.394750 0.073408 0.189428
v -1.378624 0.000000 0.150497
v -1.378624 0.073408 0.150497
v -1.339694 0.000000 0.134372
v -1.339694 0.073408 0.134372
v -1.300764 0.000000 0.150497
v -1.300764 0.073408 0.150497
v -1.284638 0.000000 0.189428
v -1.284638 0.073408 0.189428
v -1.300764 0.000000 0.228358
v -1.300764 0.073408 0.228358
v -1.192878 0.373526 0.067500
v -1.392073 0.527836 -0.236504
v -1.116795 0.527836 -0.379617
v -0.946661 0.527838 -0.004950
v -1.116795 0.527836 0.369717
v -1.392073 0.527836 0.226604
v -1.268962 0.761746 -0.379617
v -0.993684 0.761746 -0.236504
v -0.993684 0.761746 0.226604
v -1.268962 0.761746 0.369716
v -1.439096 0.761746 -0.004950
v -1.192878 0.906307 -0.004950
v -1.128787 0.472840 -0.320558
v -1.148157 0.412581 -0.152722
v -1.171515 0.381907 -0.037702
v -1.248810 0.361657 -0.132518
v -1.309961 0.392332 -0.203603
v -1.360674 0.472840 -0.200005
v -1.339311 0.513431 -0.305209
v -1.265241 0.507303 -0.361278
v -1.184719 0.513431 -0.385577
v -1.416606 0.513431 0.125086
v -1.427044 0.507303 -0.004950
v -1.416606 0.513431 -0.134987
v -1.248810 0.361657 -0.002482
v -1.309961 0.392332 0.068603
v -1.360674 0.472840 0.190105
v -0.985471 0.472841 -0.004950
v -1.048156 0.412582 0.067500
v -1.123743 0.381908 0.067500
v -1.059651 0.513431 -0.320559
v -1.003434 0.507303 -0.225172
v -0.964107 0.513432 -0.110153
v -1.128787 0.472840 0.310658
v -1.148157 0.412581 0.287722
v -1.171515 0.381907 0.172702
v -0.964107 0.513432 0.100253
v -1.003434 0.507303 0.215273
v -1.059651 0.513431 0.310659
v -1.184719 0.513431 0.375677
v -1.265241 0.507303 0.351377
v -1.339311 0.513431 0.295308
v -1.456218 0.710471 -0.069968
v -1.454685 0.644791 -0.141054
v -1.429811 0.579111 -0.200006
v -1.429811 0.579111 0.190106
v -1.454685 0.644791 0.131154
v -1.456218 0.710471 0.060068
v -1.235606 0.710471 -0.425764
v -1.192878 0.644791 -0.445398
v -1.150150 0.579111 -0.425764
v -1.382040 0.579111 -0.305210
v -1.354684 0.644791 -0.361279
v -1.312902 0.710471 -0.385579
v -0.955946 0.710471 -0.200006
v -0.931072 0.644791 -0.141054
v -0.929539 0.579111 -0.069968
v -1.072855 0.579111 -0.385579
v -1.031073 0.644791 -0.361279
v -1.003717 0.710471 -0.305210
v -1.003717 0.710471 0.295309
v -1.031073 0.644791 0.351379
v -1.072855 0.579111 0.375679
v -0.929539 0.579111 0.060068
v -0.931072 0.644791 0.131154
v -0.955946 0.710471 0.190106
v -1.312902 0.710471 0.375679
v -1.354684 0.644791 0.351379
v -1.382040 0.579111 0.295309
v -1.150150 0.579111 0.415863
v -1.192878 0.644791 0.435497
v -1.235606 0.710471 0.415863
v -1.421650 0.776150 -0.110153
v -1.382323 0.782280 -0.225173
v -1.326105 0.776151 -0.320559
v -1.201038 0.776151 -0.385577
v -1.120516 0.782280 -0.361278
v -1.046446 0.776151 -0.305209
v -0.969150 0.776151 -0.134987
v -0.958713 0.782280 -0.004950
v -0.969150 0.776151 0.125087
v -1.046446 0.776151 0.295308
v -1.120516 0.782280 0.351377
v -1.201038 0.776151 0.375677
v -1.326105 0.776151 0.310659
v -1.382323 0.782280 0.215272
v -1.421650 0.776150 0.100253
v -1.214242 0.897926 -0.110152
v -1.237599 0.867251 -0.225172
v -1.256969 0.816743 -0.320558
v -1.400285 0.816742 -0.004950
v -1.337601 0.867250 -0.004950
v -1.262014 0.897926 -0.004950
v -1.136947 0.897926 -0.069968
v -1.075796 0.867250 -0.141053
v -1.025083 0.816743 -0.200005
v -1.136947 0.897926 0.060068
v -1.075796 0.867250 0.131153
v -1.025083 0.816743 0.190105
v -1.214242 0.897926 0.100252
v -1.237599 0.867251 0.215272
v -1.256969 0.816743 0.310658
v -1.292475 0.878698 0.110827
v -1.368560 0.834027 0.110828
v -1.315986 0.834027 0.226606
v -1.154836 0.878699 0.182380
v -1.178346 0.834028 0.298159
v -1.093281 0.834028 0.253936
v -1.069771 0.878698 -0.004950
v -1.008216 0.834027 0.066603
v -1.008216 0.834027 -0.076504
v -1.154836 0.878699 -0.192281
v -1.093281 0.834028 -0.263836
v -1.178346 0.834028 -0.308060
v -1.292475 0.878698 -0.120727
v -1.315986 0.834027 -0.236506
v -1.368560 0.834027 -0.120728
v -1.430115 0.717073 0.182381
v -1.415585 0.644791 0.253937
v -1.377541 0.717073 0.298161
v -1.154835 0.717073 0.413939
v -1.107812 0.644791 0.413940
v -1.069769 0.717073 0.369716
v -0.932130 0.717073 0.066604
v -0.917599 0.644791 -0.004950
v -0.932130 0.717073 -0.076504
v -1.069769 0.717073 -0.379616
v -1.107812 0.644791 -0.423840
v -1.154835 0.717073 -0.423839
v -1.377541 0.717073 -0.308061
v -1.415585 0.644790 -0.263838
v -1.430115 0.717072 -0.192282
v -1.277944 0.644791 0.413940
v -1.315988 0.572509 0.369716
v -1.230922 0.572509 0.413939
v -0.970172 0.644791 0.253938
v -1.008215 0.572509 0.298162
v -0.955642 0.572509 0.182382
v -0.970172 0.644791 -0.263838
v -0.955642 0.572509 -0.192282
v -1.008215 0.572509 -0.308062
v -1.277944 0.644791 -0.423840
v -1.230922 0.572509 -0.423839
v -1.315988 0.572509 -0.379616
v -1.468158 0.644791 -0.004950
v -1.453627 0.572509 -0.076504
v -1.453627 0.572509 0.066604
v -1.292475 0.455556 0.253936
v -1.230921 0.380884 0.119831
v -1.207410 0.455556 0.298159
v -1.069771 0.455556 0.226605
v -1.093282 0.401134 0.183277
v -1.017196 0.455556 0.110827
v -1.017197 0.455556 -0.120728
v -1.093282 0.401134 -0.048278
v -1.069771 0.455556 -0.236506
v -1.377541 0.455556 0.066603
v -1.377541 0.455556 -0.076504
v -1.315986 0.380884 -0.067500
v -1.207410 0.455556 -0.308060
v -1.230922 0.380884 -0.254832
v -1.292475 0.455556 -0.263836
v -1.192878 0.617263 0.362089
v -1.305755 0.703493 0.280081
v -1.149764 0.703493 0.229395
v -1.053356 0.703493 0.362089
v -1.149764 0.703493 0.494783
v -1.305755 0.703493 0.444098
v -1.235993 0.843017 0.229395
v -1.080002 0.843017 0.280081
v -1.080002 0.843017 0.444098
v -1.235993 0.843017 0.494783
v -1.332401 0.843017 0.362089
v -1.192878 0.929247 0.362089
v -1.167536 0.640560 0.284094
v -1.259225 0.640560 0.313886
v -1.233884 0.691245 0.235890
v -1.325572 0.691245 0.362089
v -1.259225 0.640560 0.410293
v -1.110869 0.640560 0.362089
v -1.085527 0.691245 0.284094
v -1.167536 0.640560 0.440084
v -1.085527 0.691245 0.440084
v -1.233884 0.691245 0.488289
v -1.341236 0.773255 0.313886
v -1.341236 0.773255 0.410293
v -1.192878 0.773255 0.206098
v -1.284568 0.773255 0.235889
v -1.044521 0.773255 0.313886
v -1.101188 0.773255 0.235889
v -1.101188 0.773255 0.488290
v -1.044521 0.773255 0.410293
v -1.284568 0.773255 0.488289
v -1.192878 0.773255 0.518081
v -1.300230 0.855265 0.284094
v -1.151873 0.855265 0.235890
v -1.060184 0.855265 0.362089
v -1.151873 0.855265 0.488289
v -1.300230 0.855265 0.440084
v -1.218220 0.905950 0.284094
v -1.274888 0.905950 0.362089
v -1.126531 0.905950 0.313886
v -1.126531 0.905950 0.410293
v -1.218220 0.905950 0.440084
v -1.192878 0.637450 0.508905
v -1.258612 0.682087 0.450534
v -1.167771 0.682087 0.414458
v -1.111627 0.682087 0.508905
v -1.167771 0.682087 0.603353
v -1.258612 0.682087 0.567276
v -1.217986 0.754311 0.414458
v -1.127144 0.754311 0.450534
v -1.127144 0.754311 0.567276
v -1.217986 0.754311 0.603353
v -1.274130 0.754311 0.508905
v -1.192878 0.798948 0.508905
v -1.178121 0.649510 0.453391
v -1.231516 0.649510 0.474596
v -1.216758 0.675746 0.419081
v -1.270153 0.675746 0.508905
v -1.231516 0.649510 0.543214
v -1.145120 0.649510 0.508905
v -1.130361 0.675746 0.453390
v -1.178121 0.649510 0.564419
v -1.130361 0.675746 0.564420
v -1.216758 0.675746 0.598729
v -1.279275 0.718199 0.474595
v -1.279275 0.718199 0.543215
v -1.192878 0.718199 0.397876
v -1.246274 0.718199 0.419081
v -1.106482 0.718199 0.474595
v -1.139482 0.718199 0.419081
v -1.139482 0.718199 0.598730
v -1.106482 0.718199 0.543215
v -1.246274 0.718199 0.598730
v -1.192878 0.718199 0.619935
v -1.255395 0.760652 0.453390
v -1.168999 0.760652 0.419081
v -1.115604 0.760652 0.508905
v -1.168999 0.760652 0.598729
v -1.255395 0.760652 0.564420
v -1.207636 0.786889 0.453391
v -1.240637 0.786888 0.508905
v -1.154241 0.786889 0.474596
v -1.154241 0.786889 0.543214
v -1.207636 0.786889 0.564419
v -1.192878 0.597152 0.547923
v -1.192878 0.639381 0.631430
v -1.221574 0.610468 0.544226
v -1.207227 0.646039 0.629582
v -1.228662 0.640389 0.535920
v -1.210771 0.660999 0.625428
v -1.208803 0.664383 0.529259
v -1.200841 0.672996 0.622098
v -1.176953 0.664383 0.529259
v -1.184916 0.672996 0.622098
v -1.157095 0.640389 0.535920
v -1.174986 0.660999 0.625428
v -1.164182 0.610468 0.544226
v -1.178530 0.646039 0.629582
v -1.121097 0.934581 0.286598
v -1.101932 1.009909 0.094943
v -1.151912 0.918149 0.275301
v -1.117340 1.001694 0.089296
v -1.150286 0.885288 0.259033
v -1.116526 0.985263 0.081161
v -1.117844 0.868858 0.254061
v -1.100305 0.977048 0.078675
v -1.087028 0.885288 0.265358
v -1.084897 0.985263 0.084324
v -1.088655 0.918149 0.281626
v -1.085711 1.001694 0.092459
v -1.101119 1.030000 0.083158
v -1.101119 0.993388 -0.098536
v -1.132905 1.011740 0.084984
v -1.117011 0.984257 -0.097623
v -1.132905 0.975218 0.088636
v -1.117011 0.965997 -0.095797
v -1.101119 0.956956 0.090462
v -1.101119 0.956866 -0.094884
v -1.069332 0.975218 0.088636
v -1.085225 0.965997 -0.095797
v -1.069332 1.011740 0.084984
v -1.085225 0.984257 -0.097623
v -1.264659 0.934581 0.286598
v -1.283825 1.009909 0.094943
v -1.297102 0.918149 0.281626
v -1.300046 1.001694 0.092459
v -1.298728 0.885288 0.265358
v -1.300860 0.985263 0.084324
v -1.267913 0.868858 0.254061
v -1.285451 0.977048 0.078675
v -1.235471 0.885288 0.259033
v -1.269231 0.985263 0.081161
v -1.233844 0.918149 0.275301
v -1.268417 1.001694 0.089296
v -1.284638 1.030000 0.083158
v -1.284638 0.993388 -0.098536
v -1.316425 1.011740 0.084984
v -1.300531 0.984257 -0.097623
v -1.316425 0.975218 0.088636
v -1.300531 0.965997 -0.095797
v -1.284638 0.956956 0.090462
v -1.284638 0.956866 -0.094884
v -1.252852 0.975218 0.088636
v -1.268745 0.965997 -0.095797
v -1.252852 1.011740 0.084984
v -1.268745 0.984257 -0.097623
v -1.096130 0.746655 0.426321
v -0.959292 0.799855 0.371265
v -1.114326 0.793461 0.402137
v -0.961891 0.806542 0.367811
v -1.118821 0.805020 0.347797
v -0.962534 0.808193 0.360048
v -1.106229 0.772630 0.304218
v -0.960734 0.803566 0.353822
v -1.086031 0.720680 0.304218
v -0.957849 0.796145 0.353822
v -1.073438 0.688289 0.347797
v -0.956050 0.791517 0.360048
v -1.077933 0.699850 0.402137
v -0.956692 0.793169 0.367811
v -1.289627 0.746655 0.426321
v -1.426465 0.799855 0.371265
v -1.307824 0.699850 0.402137
v -1.429065 0.793169 0.367811
v -1.312319 0.688289 0.347797
v -1.429707 0.791517 0.360048
v -1.299726 0.720680 0.304218
v -1.427908 0.796145 0.353822
v -1.279528 0.772630 0.304218
v -1.425023 0.803566 0.353822
v -1.266936 0.805020 0.347797
v -1.423223 0.808193 0.360048
v -1.271430 0.793461 0.402137
v -1.423866 0.806542 0.367811
v -1.110295 0.765914 0.453849
v -1.128886 0.780117 0.440342
v -1.103193 0.780117 0.431994
v -1.087314 0.780117 0.453849
v -1.103193 0.780117 0.475705
v -1.128886 0.780117 0.467356
v -1.117396 0.803097 0.431994
v -1.091703 0.803097 0.440342
v -1.091703 0.803097 0.467356
v -1.117396 0.803097 0.475705
v -1.133275 0.803097 0.453849
v -1.110295 0.817300 0.453849
v -1.275462 0.765914 0.453849
v -1.294054 0.780117 0.440342
v -1.268361 0.780117 0.431994
v -1.252482 0.780117 0.453849
v -1.268361 0.780117 0.475705
v -1.294054 0.780117 0.467356
v -1.282564 0.803097 0.431994
v -1.256871 0.803097 0.440342
v -1.256871 0.803097 0.467356
v -1.282564 0.803097 0.475705
v -1.298443 0.803097 0.453849
v -1.275462 0.817300 0.453849
v -1.192878 0.736679 -0.294983
v -1.192878 0.590092 -0.379483
v -1.228749 0.725010 -0.282245
v -1.200052 0.587759 -0.376935
v -1.237608 0.698792 -0.253623
v -1.201824 0.582516 -0.371211
v -1.212785 0.677767 -0.230670
v -1.196860 0.578310 -0.366620
v -1.172972 0.677767 -0.230670
v -1.188897 0.578310 -0.366620
v -1.148149 0.698792 -0.253623
v -1.183933 0.582516 -0.371211
v -1.157008 0.725010 -0.282245
v -1.185705 0.587759 -0.376935
vn -0.000000 -0.630300 0.776400
vn -0.000000 0.630300 0.776400
vn -0.549000 0.630300 0.549000
vn -0.549000 -0.630300 0.549000
vn -0.776400 0.630300 0.000000
vn -0.776400 -0.630300 0.000000
vn -0.549000 0.630300 -0.549000
vn -0.549000 -0.630300 -0.549000
vn -0.000000 0.630300 -0.776400
vn -0.000000 -0.630300 -0.776400
vn 0.549000 0.630300 -0.549000
vn 0.549000 -0.630300 -0.549000
vn 0.776400 0.630300 0.000000
vn 0.776400 -0.630300 0.000000
vn 0.549000 0.630300 0.549000
vn 0.549000 -0.630300 0.549000
vn -0.001500 -1.000000 0.000000
vn -0.202800 -0.974700 -0.094400
vn 0.076600 -0.985400 -0.152200
vn -0.782100 -0.507300 -0.361900
vn -0.625900 -0.724600 -0.288500
vn -0.824500 -0.534700 -0.185000
vn 0.250000 -0.968200 0.000000
vn 0.076600 -0.985400 0.152200
vn -0.202800 -0.974700 0.094400
vn -0.916800 -0.269200 -0.295000
vn 0.359200 -0.609700 -0.706600
vn 0.025100 -0.688600 -0.724700
vn 0.219100 -0.371300 -0.902300
vn 0.886200 -0.463300 0.000000
vn 0.833200 -0.530100 -0.157700
vn 0.961600 -0.256200 -0.098700
vn 0.359200 -0.609700 0.706600
vn 0.576300 -0.620200 0.532200
vn 0.586100 -0.336700 0.736900
vn -0.782100 -0.507300 0.361900
vn -0.607200 -0.610600 0.508500
vn -0.802700 -0.300100 0.515400
vn -0.802700 -0.300100 -0.515400
vn 0.586100 -0.336700 -0.736900
vn 0.961600 -0.256200 0.098700
vn 0.219100 -0.371300 0.902300
vn -0.916800 -0.269200 0.295000
vn -0.359200 0.609700 -0.706600
vn -0.576300 0.620200 -0.532200
vn -0.267900 0.807900 -0.525000
vn 0.782100 0.507300 -0.361900
vn 0.607200 0.610600 -0.508500
vn 0.625900 0.724600 -0.288500
vn 0.782100 0.507300 0.361900
vn 0.824500 0.534700 0.185000
vn 0.625900 0.724600 0.288500
vn -0.359200 0.609700 0.706600
vn -0.025100 0.688600 0.724700
vn -0.267900 0.807900 0.525000
vn -0.886200 0.463300 0.000000
vn -0.833200 0.530100 0.157700
vn -0.729700 0.683700 0.000000
vn -0.250000 0.968200 0.000000
vn -0.076600 0.985400 0.152200
vn 0.001500 1.000000 0.000000
vn -0.507300 0.861800 0.000000
vn -0.361400 0.917300 0.167100
vn -0.628300 0.759300 0.169400
vn -0.168300 0.928500 0.331100
vn -0.475600 0.807200 0.349700
vn -0.734400 0.587400 0.339900
vn -0.576300 0.620200 0.532200
vn 0.202800 0.974700 0.094400
vn 0.143000 0.949300 0.279900
vn 0.067400 0.865600 0.496200
vn 0.421600 0.885600 0.194900
vn 0.384300 0.828600 0.407200
vn 0.328600 0.686200 0.649000
vn 0.607200 0.610600 0.508500
vn 0.202800 0.974700 -0.094400
vn 0.437900 0.899000 0.000000
vn 0.655600 0.748900 0.096500
vn 0.421600 0.885600 -0.194900
vn 0.655600 0.748900 -0.096500
vn 0.839100 0.544100 0.000000
vn 0.824500 0.534700 -0.185000
vn -0.076600 0.985400 -0.152200
vn 0.143000 0.949300 -0.279900
vn 0.384300 0.828600 -0.407200
vn -0.168300 0.928500 -0.331100
vn 0.067400 0.865600 -0.496200
vn 0.328600 0.686200 -0.649000
vn -0.025100 0.688600 -0.724700
vn -0.361400 0.917300 -0.167100
vn -0.475600 0.807200 -0.349700
vn -0.628300 0.759300 -0.169400
vn -0.734400 0.587400 -0.339900
vn -0.833200 0.530100 -0.157700
vn -0.961600 0.256200 0.098700
vn -0.979300 0.000300 0.202600
vn -0.907800 0.301700 0.291400
vn -0.907000 0.010400 0.421000
vn -0.791700 0.333500 0.511900
vn -0.748400 -0.001000 0.663300
vn -0.586100 0.336700 0.736900
vn -0.219100 0.371300 0.902300
vn -0.000000 -0.000000 1.000000
vn 0.210000 0.409300 0.887900
vn 0.447100 0.013400 0.894400
vn 0.578700 0.374400 0.724500
vn 0.748400 0.001000 0.663300
vn 0.802700 0.300100 0.515400
vn 0.916800 0.269200 0.295000
vn 0.979300 -0.000300 0.202600
vn 0.952900 0.286800 0.098800
vn 1.000000 0.009300 0.000000
vn 0.952900 0.286800 -0.098800
vn 0.979300 -0.000300 -0.202600
vn 0.916800 0.269200 -0.295000
vn 0.802700 0.300100 -0.515400
vn 0.748400 0.001000 -0.663300
vn 0.578700 0.374400 -0.724500
vn 0.447100 0.013400 -0.894400
vn 0.210000 0.409300 -0.887900
vn -0.000000 -0.000000 -1.000000
vn -0.219100 0.371300 -0.902300
vn -0.586100 0.336700 -0.736900
vn -0.748400 -0.001000 -0.663300
vn -0.791700 0.333500 -0.511900
vn -0.907000 0.010400 -0.421000
vn -0.907800 0.301700 -0.291400
vn -0.979300 0.000300 -0.202600
vn -0.961600 0.256200 -0.098700
vn -0.447100 -0.013400 0.894400
vn -0.578700 -0.374400 0.724500
vn -0.210000 -0.409300 0.887900
vn -0.328600 -0.686200 0.649000
vn 0.025100 -0.688600 0.724700
vn 0.907000 -0.010400 0.421000
vn 0.791700 -0.333500 0.511900
vn 0.907800 -0.301700 0.291400
vn 0.734400 -0.587400 0.339900
vn 0.833200 -0.530100 0.157700
vn 0.907000 -0.010400 -0.421000
vn 0.907800 -0.301700 -0.291400
vn 0.791700 -0.333500 -0.511900
vn 0.734400 -0.587400 -0.339900
vn 0.576300 -0.620200 -0.532200
vn -0.447100 -0.013400 -0.894400
vn -0.210000 -0.409300 -0.887900
vn -0.578700 -0.374400 -0.724500
vn -0.328600 -0.686200 -0.649000
vn -0.607200 -0.610600 -0.508500
vn -1.000000 -0.009300 0.000000
vn -0.952900 -0.286800 -0.098800
vn -0.952900 -0.286800 0.098800
vn -0.839100 -0.544100 0.000000
vn -0.824500 -0.534700 0.185000
vn -0.625900 -0.724600 0.288500
vn -0.421600 -0.885600 0.194900
vn -0.384300 -0.828600 0.407200
vn -0.143000 -0.949300 0.279900
vn -0.067400 -0.865600 0.496200
vn 0.168300 -0.928500 0.331100
vn 0.267900 -0.807900 0.525000
vn 0.475600 -0.807200 0.349700
vn 0.361400 -0.917300 0.167100
vn 0.628300 -0.759300 0.169400
vn 0.507300 -0.861800 0.000000
vn 0.729700 -0.683700 0.000000
vn 0.628300 -0.759300 -0.169400
vn 0.361400 -0.917300 -0.167100
vn 0.475600 -0.807200 -0.349700
vn 0.168300 -0.928500 -0.331100
vn 0.267900 -0.807900 -0.525000
vn -0.655600 -0.748900 0.096500
vn -0.655600 -0.748900 -0.096500
vn -0.437900 -0.899000 0.000000
vn -0.421600 -0.885600 -0.194900
vn -0.067400 -0.865600 -0.496200
vn -0.143000 -0.949300 -0.279900
vn -0.384300 -0.828600 -0.407200
vn -0.000000 -1.000000 0.000000
vn -0.425300 -0.850700 -0.309000
vn 0.162500 -0.850700 -0.500000
vn -0.723600 -0.447200 -0.525700
vn -0.850600 -0.525700 0.000000
vn 0.525700 -0.850700 0.000000
vn 0.162500 -0.850700 0.500000
vn -0.425300 -0.850700 0.309000
vn -0.951100 -0.000000 -0.309000
vn 0.276400 -0.447200 -0.850600
vn -0.262900 -0.525700 -0.809000
vn 0.894400 -0.447200 0.000000
vn 0.688200 -0.525700 -0.500000
vn 0.951100 -0.000000 -0.309000
vn 0.276400 -0.447200 0.850600
vn 0.688200 -0.525700 0.500000
vn 0.587800 -0.000000 0.809000
vn -0.723600 -0.447200 0.525700
vn -0.262900 -0.525700 0.809000
vn -0.587800 -0.000000 0.809000
vn -0.587800 -0.000000 -0.809000
vn 0.587800 -0.000000 -0.809000
vn 0.951100 -0.000000 0.309000
vn -0.951100 -0.000000 0.309000
vn -0.276400 0.447200 -0.850600
vn -0.688200 0.525700 -0.500000
vn -0.162500 0.850700 -0.500000
vn 0.723600 0.447200 -0.525700
vn 0.262900 0.525700 -0.809000
vn 0.425300 0.850700 -0.309000
vn 0.723600 0.447200 0.525700
vn 0.850600 0.525700 0.000000
vn 0.425300 0.850700 0.309000
vn -0.276400 0.447200 0.850600
vn 0.262900 0.525700 0.809000
vn -0.162500 0.850700 0.500000
vn -0.894400 0.447200 0.000000
vn -0.688200 0.525700 0.500000
vn -0.525700 0.850700 0.000000
vn -0.000000 1.000000 0.000000
vn -0.000500 -1.000000 0.000000
vn -0.399800 -0.883000 -0.246100
vn 0.155100 -0.900900 -0.405500
vn -0.737800 -0.499100 -0.454400
vn -0.828800 -0.559500 0.000000
vn 0.489100 -0.872200 0.000000
vn 0.155100 -0.900900 0.405500
vn -0.399800 -0.883000 0.246100
vn -0.963900 0.001300 -0.266300
vn 0.301700 -0.532500 -0.790800
vn -0.283500 -0.609700 -0.740200
vn 0.877200 -0.480100 0.000000
vn 0.695900 -0.577500 -0.426900
vn 0.963900 -0.001300 -0.266300
vn 0.301700 -0.532500 0.790800
vn 0.695900 -0.577500 0.426900
vn 0.646500 0.002800 0.762900
vn -0.737800 -0.499100 0.454400
vn -0.283500 -0.609700 0.740200
vn -0.646500 -0.002800 0.762900
vn -0.646500 -0.002800 -0.762900
vn 0.646500 0.002800 -0.762900
vn 0.963900 -0.001300 0.266300
vn -0.963900 0.001300 0.266300
vn -0.301700 0.532500 -0.790800
vn -0.695900 0.577500 -0.426900
vn -0.155100 0.900900 -0.405500
vn 0.737800 0.499100 -0.454400
vn 0.283500 0.609700 -0.740200
vn 0.399800 0.883000 -0.246100
vn 0.737800 0.499100 0.454400
vn 0.828800 0.559500 0.000000
vn 0.399800 0.883000 0.246100
vn -0.301700 0.532500 0.790800
vn 0.283500 0.609700 0.740200
vn -0.155100 0.900900 0.405500
vn -0.877200 0.480100 0.000000
vn -0.695900 0.577500 0.426900
vn -0.489100 0.872200 0.000000
vn 0.000600 1.000000 0.000000
vn -0.000000 -0.953300 -0.302000
vn -0.000000 -0.508000 0.861400
vn -0.562800 -0.246800 0.788900
vn -0.655000 -0.649400 -0.386400
vn -0.701900 0.340000 0.625900
vn -0.816800 0.033600 -0.576000
vn -0.312300 0.810600 0.495300
vn -0.363500 0.581300 -0.728000
vn 0.312300 0.810600 0.495300
vn 0.363500 0.581300 -0.728000
vn 0.701900 0.340000 0.625900
vn 0.816800 0.033600 -0.576000
vn 0.562800 -0.246800 0.788900
vn 0.655000 -0.649400 -0.386400
vn -0.087600 0.474800 0.875700
vn 0.023400 0.972000 -0.233600
vn -0.619500 0.629300 -0.469300
vn -0.773600 0.109000 0.624200
vn -0.585600 -0.056300 -0.808700
vn -0.737400 -0.622600 0.262000
vn 0.091200 -0.399000 -0.912400
vn -0.015100 -0.988400 0.151400
vn 0.734100 -0.056300 -0.676700
vn 0.670900 -0.622600 0.402900
vn 0.700200 0.629300 -0.337300
vn 0.634700 0.109000 0.765000
vn -0.000000 0.872800 0.488100
vn -0.000000 0.694300 -0.719700
vn -0.660300 0.315000 -0.681700
vn -0.710000 0.464900 0.528900
vn -0.660300 -0.443700 -0.605900
vn -0.710100 -0.350900 0.610500
vn -0.000000 -0.823100 -0.567900
vn -0.000000 -0.758900 0.651300
vn 0.660300 -0.443700 -0.605900
vn 0.710000 -0.350900 0.610500
vn 0.660300 0.315000 -0.681700
vn 0.710000 0.464900 0.528900
vn 0.087600 0.474800 0.875700
vn -0.023400 0.972000 -0.233600
vn -0.700200 0.629300 -0.337300
vn -0.634700 0.109000 0.765000
vn -0.734100 -0.056300 -0.676700
vn -0.670900 -0.622600 0.402900
vn -0.091200 -0.399000 -0.912400
vn 0.015100 -0.988400 0.151400
vn 0.585600 -0.056300 -0.808700
vn 0.737400 -0.622600 0.262000
vn 0.619500 0.629300 -0.469300
vn 0.773600 0.109000 0.624200
vn -0.450500 -0.175100 0.875500
vn 0.700000 0.272200 0.660200
vn 0.513000 0.753300 0.411600
vn -0.698500 0.462800 0.545800
vn 0.466800 0.872100 -0.146900
vn -0.759700 0.620400 -0.194800
vn 0.596200 0.539200 -0.594800
vn -0.588100 0.178900 -0.788700
vn 0.803800 0.005200 -0.594900
vn -0.312800 -0.529200 -0.788800
vn 0.933300 -0.327800 -0.146900
vn -0.141200 -0.970600 -0.194800
vn 0.887100 -0.208900 0.411700
vn -0.202400 -0.813100 0.545800
vn 0.450500 -0.175100 0.875500
vn -0.700000 0.272200 0.660200
vn -0.887100 -0.208900 0.411600
vn 0.202400 -0.813100 0.545800
vn -0.933300 -0.327800 -0.146900
vn 0.141200 -0.970600 -0.194800
vn -0.803800 0.005200 -0.594900
vn 0.312800 -0.529200 -0.788800
vn -0.596200 0.539200 -0.594800
vn 0.588100 0.178900 -0.788700
vn -0.466800 0.872100 -0.146900
vn 0.759700 0.620400 -0.194800
vn -0.513000 0.753300 0.411600
vn 0.698500 0.462800 0.545800
vn 0.276400 -0.447200 -0.850700
vn 0.276400 -0.447200 0.850700
vn -0.276400 0.447200 -0.850700
vn -0.276400 0.447200 0.850700
vn -0.000000 0.966000 -0.258400
vn -0.000000 -0.036200 -0.999300
vn -0.557000 -0.217400 -0.801500
vn -0.659200 0.751600 -0.024300
vn -0.694600 -0.624500 -0.357100
vn -0.821900 0.269800 0.501600
vn -0.309100 -0.951000 -0.000700
vn -0.365800 -0.116500 0.923400
vn 0.309100 -0.951000 -0.000700
vn 0.365800 -0.116500 0.923400
vn 0.694600 -0.624500 -0.357100
vn 0.821900 0.269800 0.501600
vn 0.557000 -0.217400 -0.801500
vn 0.659200 0.751600 -0.024300
vt 0.250197 0.807930
vt 0.250197 0.570598
vt 0.265337 0.570604
vt 0.265337 0.807936
vt 0.737771 0.510019
vt 0.737771 0.272612
vt 0.749419 0.272539
vt 0.749419 0.509947
vt 0.764497 0.272550
vt 0.764497 0.509957
vt 0.737771 0.248789
vt 0.737771 0.011645
vt 0.748609 0.012148
vt 0.748609 0.249293
vt 0.763750 0.012140
vt 0.763750 0.249284
vt 0.774326 0.011623
vt 0.774326 0.248768
vt 0.900972 0.473468
vt 0.913811 0.473442
vt 0.922890 0.484131
vt 0.922890 0.499273
vt 0.913811 0.509999
vt 0.900972 0.510025
vt 0.891894 0.499336
vt 0.891894 0.484194
vt 0.487309 0.795302
vt 0.475246 0.640940
vt 0.490347 0.641056
vt 0.502410 0.795419
vt 0.239328 0.808207
vt 0.239328 0.570875
vt 0.512514 0.803636
vt 0.511703 0.815140
vt 0.500451 0.823192
vt 0.485350 0.823076
vt 0.475246 0.814859
vt 0.476057 0.803354
vt 0.953808 0.304184
vt 0.953808 0.272539
vt 0.971977 0.272547
vt 0.971977 0.304191
vt 0.414731 0.924755
vt 0.446385 0.924755
vt 0.446471 0.938731
vt 0.414817 0.938731
vt 0.446459 0.956825
vt 0.414805 0.956825
vt 0.949458 0.782778
vt 0.917838 0.782759
vt 0.918450 0.769754
vt 0.950070 0.769773
vt 0.918450 0.751585
vt 0.950070 0.751603
vt 0.917838 0.738894
vt 0.949458 0.738913
vt 0.139045 0.906775
vt 0.154452 0.906744
vt 0.165346 0.919570
vt 0.165346 0.937741
vt 0.154452 0.950612
vt 0.139045 0.950643
vt 0.128151 0.937816
vt 0.128151 0.919646
vt 0.800533 0.863901
vt 0.797480 0.843484
vt 0.815566 0.842348
vt 0.818619 0.862766
vt 0.940765 0.304517
vt 0.940765 0.272872
vt 0.831408 0.871749
vt 0.831408 0.885588
vt 0.818619 0.896177
vt 0.800533 0.897312
vt 0.787744 0.888329
vt 0.787744 0.874490
vt 0.348709 0.807930
vt 0.348709 0.570598
vt 0.363849 0.570604
vt 0.363849 0.807936
vt 0.128151 0.806253
vt 0.128151 0.568846
vt 0.139798 0.568774
vt 0.139798 0.806181
vt 0.154877 0.568784
vt 0.154877 0.806191
vt 0.677971 0.509705
vt 0.677971 0.272561
vt 0.688808 0.273065
vt 0.688808 0.510209
vt 0.703950 0.273056
vt 0.703950 0.510200
vt 0.714525 0.272539
vt 0.714525 0.509684
vt 0.081045 0.913965
vt 0.093884 0.913939
vt 0.102963 0.924627
vt 0.102963 0.939770
vt 0.093884 0.950495
vt 0.081045 0.950521
vt 0.071967 0.939833
vt 0.071967 0.924690
vt 0.799807 0.687757
vt 0.787744 0.533395
vt 0.802845 0.533512
vt 0.814908 0.687874
vt 0.337840 0.808207
vt 0.337840 0.570876
vt 0.825012 0.696091
vt 0.824201 0.707595
vt 0.812949 0.715648
vt 0.797848 0.715531
vt 0.787744 0.707314
vt 0.788555 0.695810
vt 0.955056 0.407463
vt 0.955056 0.375819
vt 0.973225 0.375826
vt 0.973225 0.407471
vt 0.677971 0.937978
vt 0.709625 0.937978
vt 0.709711 0.951954
vt 0.678057 0.951954
vt 0.709699 0.970048
vt 0.678045 0.970048
vt 0.369459 0.953548
vt 0.337840 0.953530
vt 0.338452 0.940525
vt 0.370071 0.940543
vt 0.338452 0.922355
vt 0.370071 0.922374
vt 0.337840 0.909665
vt 0.369459 0.909683
vt 0.688865 0.870863
vt 0.704271 0.870831
vt 0.715165 0.883658
vt 0.715165 0.901829
vt 0.704271 0.914700
vt 0.688865 0.914731
vt 0.677970 0.901904
vt 0.677970 0.883734
vt 0.861048 0.668053
vt 0.857996 0.647635
vt 0.876082 0.646500
vt 0.879134 0.666917
vt 0.942014 0.407796
vt 0.942014 0.376152
vt 0.891923 0.675900
vt 0.891923 0.689740
vt 0.879134 0.700328
vt 0.861048 0.701464
vt 0.848259 0.692481
vt 0.848259 0.678641
vt 0.798612 0.509871
vt 0.798612 0.272539
vt 0.813753 0.272546
vt 0.813753 0.509877
vt 0.737771 0.770745
vt 0.737771 0.533338
vt 0.749419 0.533266
vt 0.749419 0.770673
vt 0.764497 0.533276
vt 0.764497 0.770683
vt 0.677971 0.248789
vt 0.677971 0.011645
vt 0.688808 0.012148
vt 0.688808 0.249293
vt 0.703950 0.012140
vt 0.703950 0.249284
vt 0.714525 0.011623
vt 0.714525 0.248768
vt 0.796822 0.920585
vt 0.809661 0.920559
vt 0.818739 0.931248
vt 0.818739 0.946390
vt 0.809661 0.957116
vt 0.796822 0.957142
vt 0.787744 0.946453
vt 0.787744 0.931311
vt 0.552211 0.801974
vt 0.540148 0.647612
vt 0.555249 0.647729
vt 0.567312 0.802091
vt 0.787744 0.510148
vt 0.787744 0.272817
vt 0.577416 0.810308
vt 0.576605 0.821812
vt 0.565353 0.829864
vt 0.550252 0.829748
vt 0.540148 0.821531
vt 0.540959 0.810026
vt 0.884646 0.145598
vt 0.884646 0.113954
vt 0.902815 0.113961
vt 0.902815 0.145605
vt 0.922257 0.932761
vt 0.953911 0.932761
vt 0.953998 0.946738
vt 0.922343 0.946738
vt 0.953985 0.964832
vt 0.922331 0.964832
vt 0.953179 0.213061
vt 0.921560 0.213043
vt 0.922172 0.200038
vt 0.953791 0.200056
vt 0.922172 0.181868
vt 0.953791 0.181887
vt 0.921560 0.169178
vt 0.953179 0.169196
vt 0.907322 0.533426
vt 0.922728 0.533395
vt 0.933623 0.546222
vt 0.933623 0.564393
vt 0.922728 0.577263
vt 0.907322 0.577295
vt 0.896428 0.564468
vt 0.896428 0.546297
vt 0.350629 0.853007
vt 0.347577 0.832589
vt 0.365663 0.831454
vt 0.368715 0.851871
vt 0.871603 0.145931
vt 0.871603 0.114287
vt 0.381504 0.860854
vt 0.381504 0.874694
vt 0.368715 0.885283
vt 0.350629 0.886418
vt 0.337840 0.877435
vt 0.337840 0.863595
vt 0.299453 0.807930
vt 0.299453 0.570598
vt 0.314593 0.570604
vt 0.314593 0.807936
vt 0.178123 0.806253
vt 0.178123 0.568846
vt 0.189771 0.568774
vt 0.189771 0.806181
vt 0.204849 0.568784
vt 0.204849 0.806191
vt 0.677971 0.770621
vt 0.677971 0.533477
vt 0.688808 0.533981
vt 0.688808 0.771125
vt 0.703950 0.533972
vt 0.703950 0.771116
vt 0.714525 0.533455
vt 0.714525 0.770600
vt 0.609742 0.915221
vt 0.622580 0.915195
vt 0.631659 0.925884
vt 0.631659 0.941026
vt 0.622580 0.951752
vt 0.609742 0.951778
vt 0.600663 0.941089
vt 0.600663 0.925947
vt 0.426794 0.795302
vt 0.414730 0.640940
vt 0.429831 0.641057
vt 0.441895 0.795419
vt 0.288584 0.808207
vt 0.288584 0.570875
vt 0.451999 0.803636
vt 0.451188 0.815140
vt 0.439936 0.823192
vt 0.424835 0.823076
vt 0.414730 0.814859
vt 0.415542 0.803354
vt 0.493050 0.973287
vt 0.493050 0.941643
vt 0.511219 0.941650
vt 0.511219 0.973294
vt 0.540148 0.932507
vt 0.571802 0.932507
vt 0.571889 0.946483
vt 0.540234 0.946483
vt 0.571876 0.964577
vt 0.540222 0.964577
vt 0.043243 0.939078
vt 0.011623 0.939059
vt 0.012235 0.926054
vt 0.043855 0.926073
vt 0.012235 0.907885
vt 0.043855 0.907903
vt 0.011623 0.895194
vt 0.043243 0.895213
vt 0.250222 0.907311
vt 0.265629 0.907280
vt 0.276523 0.920106
vt 0.276523 0.938277
vt 0.265629 0.951148
vt 0.250222 0.951179
vt 0.239328 0.938353
vt 0.239328 0.920182
vt 0.613452 0.858537
vt 0.610400 0.838120
vt 0.628486 0.836984
vt 0.631538 0.857401
vt 0.480008 0.973620
vt 0.480008 0.941976
vt 0.644327 0.866385
vt 0.644327 0.880224
vt 0.631538 0.890813
vt 0.613452 0.891948
vt 0.600663 0.882965
vt 0.600663 0.869126
vt 0.402351 0.193978
vt 0.420446 0.216970
vt 0.396429 0.239744
vt 0.611617 0.116108
vt 0.634394 0.129200
vt 0.613849 0.161430
vt 0.377368 0.198822
vt 0.389606 0.150758
vt 0.416230 0.161975
vt 0.587756 0.133918
vt 0.145874 0.491555
vt 0.138690 0.519385
vt 0.117473 0.500735
vt 0.281426 0.206793
vt 0.294565 0.250539
vt 0.263643 0.233588
vt 0.325010 0.035617
vt 0.312218 0.065424
vt 0.296140 0.034397
vt 0.391484 0.494662
vt 0.362071 0.508661
vt 0.371037 0.476650
vt 0.592176 0.084685
vt 0.133770 0.467090
vt 0.259426 0.178592
vt 0.320157 0.011623
vt 0.595180 0.306152
vt 0.570862 0.331117
vt 0.573910 0.294006
vt 0.517994 0.032837
vt 0.508891 0.063772
vt 0.492448 0.053452
vt 0.076281 0.054928
vt 0.101771 0.029544
vt 0.098486 0.069919
vt 0.056558 0.249604
vt 0.055086 0.204197
vt 0.081872 0.233908
vt 0.294981 0.415579
vt 0.266226 0.417270
vt 0.293294 0.392154
vt 0.502255 0.208173
vt 0.492584 0.248581
vt 0.479190 0.201151
vt 0.195175 0.166753
vt 0.173167 0.207126
vt 0.171675 0.160741
vt 0.216081 0.174453
vt 0.197141 0.218885
vt 0.468112 0.243977
vt 0.458395 0.191271
vt 0.170012 0.258967
vt 0.215116 0.227359
vt 0.190896 0.271791
vt 0.161816 0.303274
vt 0.486434 0.290558
vt 0.464757 0.284818
vt 0.360431 0.389611
vt 0.324577 0.401404
vt 0.327184 0.375778
vt 0.146519 0.184004
vt 0.143595 0.237871
vt 0.137349 0.290777
vt 0.114229 0.210566
vt 0.108022 0.265331
vt 0.129493 0.328226
vt 0.102348 0.311200
vt 0.076196 0.281982
vt 0.152057 0.129342
vt 0.120363 0.152267
vt 0.084790 0.179727
vt 0.125822 0.096139
vt 0.090885 0.119569
vt 0.058158 0.148371
vt 0.066162 0.094871
vt 0.182128 0.118679
vt 0.159551 0.080375
vt 0.130073 0.047677
vt 0.188770 0.073819
vt 0.163167 0.035942
vt 0.188699 0.037931
vt 0.132699 0.011623
vt 0.047764 0.441845
vt 0.034094 0.475383
vt 0.020001 0.444532
vt 0.011623 0.477713
vt 0.027546 0.501399
vt 0.207003 0.121547
vt 0.210619 0.077114
vt 0.481194 0.094773
vt 0.476330 0.148955
vt 0.458235 0.137597
vt 0.502066 0.109815
vt 0.500052 0.162238
vt 0.521725 0.238982
vt 0.547435 0.270465
vt 0.514923 0.285612
vt 0.543638 0.315890
vt 0.511568 0.326454
vt 0.353100 0.419890
vt 0.344241 0.454156
vt 0.382921 0.444329
vt 0.316843 0.432238
vt 0.280780 0.442044
vt 0.268750 0.474682
vt 0.249195 0.448143
vt 0.262848 0.506067
vt 0.239328 0.483372
vt 0.097764 0.343684
vt 0.064426 0.343684
vt 0.068437 0.318238
vt 0.239328 0.513305
vt 0.264945 0.045257
vt 0.288055 0.013061
vt 0.038935 0.311201
vt 0.045903 0.281983
vt 0.032856 0.233908
vt 0.011623 0.210565
vt 0.030847 0.179726
vt 0.239328 0.204442
vt 0.239328 0.145872
vt 0.012477 0.152266
vt 0.036941 0.119568
vt 0.248155 0.260996
vt 0.023216 0.096138
vt 0.049470 0.069918
vt 0.099914 0.405330
vt 0.066688 0.408095
vt 0.085586 0.381580
vt 0.117315 0.436059
vt 0.081296 0.438925
vt 0.099926 0.472910
vt 0.063360 0.475952
vt 0.083200 0.506487
vt 0.051022 0.506263
vt 0.539598 0.037921
vt 0.566347 0.055699
vt 0.533084 0.077681
vt 0.562015 0.103413
vt 0.528220 0.131863
vt 0.557096 0.158760
vt 0.526340 0.185620
vt 0.304901 0.464615
vt 0.334721 0.489053
vt 0.295033 0.499845
vt 0.325473 0.521166
vt 0.289945 0.528273
vt 0.351080 0.028575
vt 0.020740 0.265331
vt 0.279318 0.072269
vt 0.248155 0.091021
vt 0.265850 0.125165
vt 0.298603 0.110205
vt 0.287742 0.161553
vt 0.114275 0.372307
vt 0.147377 0.366931
vt 0.133666 0.399541
vt 0.277999 0.283622
vt 0.168100 0.397182
vt 0.152296 0.433525
vt 0.312885 0.296481
vt 0.298976 0.328658
vt 0.332687 0.332383
vt 0.165060 0.464947
vt 0.542134 0.011623
vt 0.068775 0.533503
vt 0.105340 0.530461
vt 0.569669 0.020290
vt 0.601391 0.017081
vt 0.598600 0.046022
vt 0.127614 0.545527
vt 0.626685 0.049597
vt 0.621000 0.081769
vt 0.552072 0.216322
vt 0.585867 0.187872
vt 0.580787 0.246599
vt 0.611716 0.216350
vt 0.604618 0.268155
vt 0.391360 0.519817
vt 0.386784 0.544520
vt 0.357088 0.536560
vt 0.401048 0.110838
vt 0.425412 0.126152
vt 0.406448 0.074246
vt 0.377148 0.061902
vt 0.317400 0.547351
vt 0.369681 0.102673
vt 0.346173 0.061825
vt 0.334380 0.102455
vt 0.358280 0.151391
vt 0.320912 0.155351
vt 0.344063 0.203287
vt 0.309459 0.206019
vt 0.328421 0.253282
vt 0.365789 0.249322
vt 0.349398 0.298317
vt 0.383963 0.288948
vt 0.366641 0.328784
vt 0.349308 0.352531
vt 0.620548 0.289288
vt 0.632113 0.241407
vt 0.637192 0.182680
vt 0.645063 0.260589
vt 0.654724 0.205938
vt 0.434988 0.183707
vt 0.654724 0.148885
vt 0.434239 0.241276
vt 0.168100 0.497267
vt 0.396806 0.318289
vt 0.413197 0.269294
vt 0.375765 0.350531
vt 0.161056 0.526644
vt 0.423238 0.293226
vt 0.647853 0.066072
vt 0.645062 0.095013
vt 0.045591 0.660942
vt 0.029824 0.676590
vt 0.012649 0.646119
vt 0.607657 0.595261
vt 0.600661 0.622843
vt 0.571562 0.601864
vt 0.042927 0.627286
vt 0.078815 0.646119
vt 0.070716 0.676590
vt 0.588129 0.565786
vt 0.453257 0.594339
vt 0.422650 0.582133
vt 0.449795 0.557942
vt 0.043847 0.590879
vt 0.011623 0.604936
vt 0.027140 0.568774
vt 0.104904 0.622919
vt 0.077790 0.604936
vt 0.103922 0.587607
vt 0.608065 0.467729
vt 0.574670 0.453764
vt 0.610338 0.433629
vt 0.627467 0.564468
vt 0.485795 0.578551
vt 0.068033 0.568774
vt 0.547384 0.431670
vt 0.546814 0.396630
vt 0.574670 0.412434
vt 0.640194 0.452120
vt 0.635259 0.534229
vt 0.604353 0.529912
vt 0.614036 0.507945
vt 0.514506 0.559521
vt 0.485796 0.537477
vt 0.516901 0.528554
vt 0.504699 0.425203
vt 0.490099 0.458905
vt 0.469415 0.423892
vt 0.608066 0.397413
vt 0.582483 0.376495
vt 0.622978 0.375479
vt 0.568333 0.536471
vt 0.540148 0.532375
vt 0.574699 0.509263
vt 0.414730 0.407487
vt 0.448527 0.392140
vt 0.433972 0.425131
vt 0.435415 0.375777
vt 0.640194 0.410789
vt 0.490099 0.392182
vt 0.448528 0.458863
vt 0.469163 0.484699
vt 0.414731 0.448724
vt 0.435415 0.483737
vt 0.453258 0.524459
vt 0.480901 0.507945
vt 0.548448 0.567308
vt 0.523568 0.407597
vt 0.523568 0.448834
vt 0.502680 0.483805
vt 0.516901 0.595015
vt 0.480900 0.615480
vt 0.422650 0.541059
vt 0.635212 0.599732
vt 0.540148 0.597850
vt 0.582482 0.484699
vt 0.546814 0.463504
vt 0.441874 0.617693
vt 0.560980 0.624365
vt 0.414731 0.600810
vt 0.838645 0.780469
vt 0.848172 0.792388
vt 0.830426 0.804025
vt 0.811853 0.059709
vt 0.797688 0.053282
vt 0.809054 0.034198
vt 0.819459 0.782111
vt 0.830426 0.756931
vt 0.848172 0.763282
vt 0.827444 0.047132
vt 0.690654 0.828903
vt 0.677971 0.814743
vt 0.696006 0.809644
vt 0.799376 0.781819
vt 0.807345 0.804819
vt 0.787744 0.794465
vt 0.818035 0.738979
vt 0.807345 0.757724
vt 0.798711 0.740178
vt 0.820348 0.247294
vt 0.806412 0.230362
vt 0.828308 0.230362
vt 0.827443 0.074211
vt 0.710212 0.829941
vt 0.787744 0.765359
vt 0.797572 0.211828
vt 0.804800 0.194583
vt 0.814921 0.209516
vt 0.839848 0.249160
vt 0.842943 0.079699
vt 0.845717 0.058882
vt 0.856895 0.064959
vt 0.043853 0.776259
vt 0.023325 0.779438
vt 0.032431 0.760668
vt 0.065732 0.732051
vt 0.056993 0.756329
vt 0.045292 0.734684
vt 0.043853 0.699837
vt 0.056993 0.711409
vt 0.032432 0.715749
vt 0.842943 0.033629
vt 0.845530 0.013150
vt 0.856895 0.037880
vt 0.011623 0.730031
vt 0.023945 0.739435
vt 0.023325 0.706756
vt 0.848357 0.228313
vt 0.834823 0.211828
vt 0.847360 0.206201
vt 0.011623 0.757793
vt 0.718598 0.809644
vt 0.704922 0.794372
vt 0.722912 0.794446
vt 0.827328 0.018869
vt 0.826696 0.194583
vt 0.075927 0.718668
vt 0.075927 0.746431
vt 0.063066 0.772416
vt 0.729090 0.828903
vt 0.723548 0.847585
vt 0.700956 0.847585
vt 0.686357 0.794446
vt 0.809054 0.078012
vt 0.811656 0.011623
vt 0.804420 0.249159
vt 0.836058 0.738894
vt 0.818035 0.819102
vt 0.797572 0.025018
vt 0.681030 0.838192
vt 0.836058 0.815095
vt 0.968269 0.888083
vt 0.969059 0.864849
vt 0.975644 0.866136
vt 0.981439 0.890656
vt 0.946137 0.510025
vt 0.949954 0.473590
vt 0.956484 0.472726
vt 0.959197 0.508296
vt 0.962203 0.473590
vt 0.970634 0.510025
vt 0.953154 0.076311
vt 0.941189 0.112648
vt 0.935690 0.110295
vt 0.942155 0.071604
vt 0.929119 0.110295
vt 0.929013 0.071604
vt 0.966357 0.859347
vt 0.969573 0.853773
vt 0.976285 0.852324
vt 0.981439 0.856092
vt 0.981154 0.862239
vt 0.190096 0.966572
vt 0.197468 0.927169
vt 0.202857 0.927080
vt 0.200875 0.966394
vt 0.209545 0.927169
vt 0.214250 0.966572
vt 0.842249 0.506913
vt 0.837000 0.494543
vt 0.842249 0.482164
vt 0.854045 0.479099
vt 0.863504 0.487655
vt 0.863504 0.501390
vt 0.854045 0.509960
vt 0.887220 0.828292
vt 0.879319 0.740748
vt 0.883005 0.738894
vt 0.894592 0.824584
vt 0.848259 0.623253
vt 0.851348 0.534602
vt 0.859225 0.534602
vt 0.864014 0.623253
vt 0.863809 0.533395
vt 0.873181 0.620839
vt 0.871603 0.248110
vt 0.871603 0.170678
vt 0.879133 0.169178
vt 0.886663 0.245109
vt 0.071967 0.978211
vt 0.078505 0.973768
vt 0.085043 0.976629
vt 0.085043 0.983934
vt 0.078505 0.988377
vt 0.071967 0.985516
vt 0.884959 0.171203
vt 0.898314 0.249160
vt 0.871418 0.829077
vt 0.871418 0.741141
vt 0.978173 0.689483
vt 0.978173 0.705301
vt 0.966208 0.713445
vt 0.954243 0.705771
vt 0.954243 0.689953
vt 0.966208 0.681809
vt 0.868647 0.379868
vt 0.860218 0.455852
vt 0.856118 0.453828
vt 0.860447 0.375819
vt 0.848206 0.453828
vt 0.844623 0.375819
vt 0.844394 0.455852
vt 0.837000 0.379868
vt 0.917519 0.272539
vt 0.915649 0.351141
vt 0.907845 0.351580
vt 0.901911 0.273418
vt 0.011623 0.965884
vt 0.017978 0.962324
vt 0.024333 0.966601
vt 0.024333 0.974437
vt 0.017978 0.977997
vt 0.011623 0.973720
vt 0.902837 0.351141
vt 0.891894 0.272539
vt 0.198424 0.903833
vt 0.201990 0.829500
vt 0.209903 0.829500
vt 0.214250 0.903833
vt 0.966971 0.627131
vt 0.979699 0.634385
vt 0.979699 0.650101
vt 0.966971 0.658563
vt 0.954242 0.651308
vt 0.954242 0.635592
vt 0.207168 0.456814
vt 0.203009 0.367999
vt 0.207159 0.366931
vt 0.215468 0.454677
vt 0.071967 0.890587
vt 0.071967 0.805006
vt 0.079751 0.805058
vt 0.087535 0.890692
vt 0.084816 0.802685
vt 0.097664 0.885945
vt 0.891894 0.448868
vt 0.891894 0.377687
vt 0.899348 0.375819
vt 0.906802 0.445132
vt 0.128151 0.980715
vt 0.131744 0.973890
vt 0.138216 0.973890
vt 0.141094 0.980715
vt 0.137501 0.987540
vt 0.131029 0.987540
vt 0.905331 0.378351
vt 0.918767 0.450195
vt 0.191347 0.456814
vt 0.195098 0.367999
vt 0.968782 0.533395
vt 0.980695 0.543263
vt 0.980695 0.557955
vt 0.968782 0.562779
vt 0.956869 0.552911
vt 0.956869 0.538219
vt 0.868647 0.276588
vt 0.860218 0.352572
vt 0.856118 0.350548
vt 0.860447 0.272539
vt 0.848206 0.350548
vt 0.844623 0.272539
vt 0.844394 0.352572
vt 0.837000 0.276588
vt 0.905766 0.011623
vt 0.903897 0.090225
vt 0.896093 0.090664
vt 0.890159 0.012502
vt 0.299770 0.953933
vt 0.306124 0.950374
vt 0.312479 0.954650
vt 0.312479 0.962487
vt 0.306124 0.966046
vt 0.299770 0.961770
vt 0.891085 0.090225
vt 0.880142 0.011623
vt 0.915170 0.701464
vt 0.918736 0.627131
vt 0.926649 0.627131
vt 0.930996 0.701464
vt 0.884147 0.946237
vt 0.896875 0.953491
vt 0.896875 0.969207
vt 0.884147 0.977669
vt 0.871418 0.970414
vt 0.871418 0.954698
vt 0.922257 0.900075
vt 0.940131 0.852324
vt 0.943111 0.853672
vt 0.943111 0.909514
vt 0.215341 0.480060
vt 0.203019 0.537130
vt 0.199592 0.537130
vt 0.191347 0.480060
vt 0.600663 0.695984
vt 0.643389 0.647612
vt 0.644789 0.649235
vt 0.610462 0.707347
vt 0.647958 0.650520
vt 0.632645 0.716342
vt 0.650510 0.650499
vt 0.650510 0.716196
vt 0.205258 0.539187
vt 0.204621 0.541752
vt 0.201589 0.542894
vt 0.198444 0.541752
vt 0.197556 0.539187
vt 0.011623 0.871947
vt 0.011623 0.804340
vt 0.015015 0.803819
vt 0.035368 0.868297
vt 0.016923 0.802685
vt 0.048720 0.860357
vt 0.137465 0.835058
vt 0.158394 0.829500
vt 0.175177 0.844314
vt 0.175177 0.868345
vt 0.158394 0.883497
vt 0.137465 0.878360
vt 0.128151 0.856803
vt 0.817645 0.169656
vt 0.800440 0.104273
vt 0.803477 0.102945
vt 0.838907 0.160363
vt 0.540148 0.886239
vt 0.568084 0.856686
vt 0.569778 0.859394
vt 0.552000 0.905196
vt 0.573162 0.859975
vt 0.575688 0.909260
vt 0.414730 0.901508
vt 0.424212 0.846943
vt 0.427552 0.846439
vt 0.438114 0.897978
vt 0.430216 0.846943
vt 0.456761 0.901508
vt 0.569357 0.853890
vt 0.572637 0.853111
vt 0.575455 0.854936
vt 0.575688 0.857991
vt 0.738412 0.930201
vt 0.748080 0.870831
vt 0.751513 0.870831
vt 0.762443 0.930201
vt 0.797572 0.171337
vt 0.797572 0.104513
vt 0.273400 0.831454
vt 0.285780 0.850219
vt 0.280545 0.873619
vt 0.261636 0.884033
vt 0.243293 0.873619
vt 0.239328 0.850219
vt 0.252727 0.831454
vt 0.973460 0.598934
vt 0.963206 0.603748
vt 0.968360 0.596422
vt 0.309725 0.920160
vt 0.309621 0.927127
vt 0.299770 0.925131
vt 0.983323 0.753665
vt 0.973316 0.757670
vt 0.973453 0.747679
vt 0.983323 0.742061
vt 0.738412 0.963315
vt 0.744629 0.956890
vt 0.744842 0.968514
vt 0.299834 0.914006
vt 0.956869 0.595770
vt 0.973460 0.587981
vt 0.963206 0.586025
vt 0.973316 0.738894
vt 0.754688 0.962416
vt 0.309725 0.909128
vt 0.934992 0.824356
vt 0.925287 0.823048
vt 0.934668 0.816546
vt 0.754343 0.953448
vt 0.754688 0.972256
vt 0.299770 0.907280
vt 0.917838 0.816546
vt 0.924066 0.811719
vt 0.933017 0.806025
vt 0.922616 0.806025
vt 0.958604 0.443952
vt 0.948351 0.448766
vt 0.953505 0.441440
vt 0.764497 0.806872
vt 0.764393 0.813839
vt 0.754542 0.811843
vt 0.986407 0.086376
vt 0.976401 0.090380
vt 0.976537 0.080390
vt 0.986407 0.074772
vt 0.958239 0.815891
vt 0.964456 0.809466
vt 0.964669 0.821090
vt 0.754606 0.800718
vt 0.942014 0.440788
vt 0.958604 0.432998
vt 0.948351 0.431043
vt 0.976401 0.071604
vt 0.974515 0.814992
vt 0.764497 0.795840
vt 0.957920 0.346095
vt 0.948214 0.344787
vt 0.957595 0.338284
vt 0.974170 0.806024
vt 0.974515 0.824833
vt 0.754542 0.793992
vt 0.940765 0.338285
vt 0.946993 0.333457
vt 0.955944 0.327763
vt 0.945543 0.327763
vt 0.638340 0.748253
vt 0.608199 0.813737
vt 0.606238 0.812742
vt 0.628537 0.743275
vt 0.602884 0.812004
vt 0.611769 0.739589
vt 0.600663 0.812081
vt 0.600663 0.739971
vt 0.508606 0.854283
vt 0.485728 0.918396
vt 0.483412 0.917057
vt 0.497027 0.847583
vt 0.480008 0.916828
vt 0.480008 0.846439
vt 0.871418 0.919897
vt 0.873599 0.918437
vt 0.877026 0.918644
vt 0.879118 0.920360
vt 0.878300 0.922295
vt 0.875188 0.922990
vt 0.872125 0.921923
vt 0.899010 0.861937
vt 0.888551 0.853354
vt 0.871418 0.852324
vt 0.939730 0.011623
vt 0.953093 0.012183
vt 0.959040 0.025543
vt 0.953093 0.041642
vt 0.939730 0.048358
vt 0.929013 0.040633
vt 0.929013 0.024285
s 1
usemtl mob_kambing_mat.001
f 1/1/1 2/2/2 4/3/3 3/4/4
f 3/5/4 4/6/3 6/7/5 5/8/6
f 5/8/6 6/7/5 8/9/7 7/10/8
f 7/11/8 8/12/7 10/13/9 9/14/10
f 9/14/10 10/13/9 12/15/11 11/16/12
f 11/16/12 12/15/11 14/17/13 13/18/14
f 4/19/3 2/20/2 16/21/15 14/22/13 12/23/11 10/24/9 8/25/7 6/26/5
f 13/27/14 14/28/13 16/29/15 15/30/16
f 15/31/16 16/32/15 2/2/2 1/1/1
f 1/33/1 3/34/4 5/35/6 7/36/8 9/37/10 11/38/12 13/27/14 15/30/16
f 17/39/1 18/40/2 20/41/3 19/42/4
f 19/43/4 20/44/3 22/45/5 21/46/6
f 21/46/6 22/45/5 24/47/7 23/48/8
f 23/49/8 24/50/7 26/51/9 25/52/10
f 25/52/10 26/51/9 28/53/11 27/54/12
f 27/54/12 28/53/11 30/55/13 29/56/14
f 20/57/3 18/58/2 32/59/15 30/60/13 28/61/11 26/62/9 24/63/7 22/64/5
f 29/65/14 30/66/13 32/67/15 31/68/16
f 31/69/16 32/70/15 18/40/2 17/39/1
f 17/71/1 19/72/4 21/73/6 23/74/8 25/75/10 27/76/12 29/65/14 31/68/16
f 33/77/1 34/78/2 36/79/3 35/80/4
f 35/81/4 36/82/3 38/83/5 37/84/6
f 37/84/6 38/83/5 40/85/7 39/86/8
f 39/87/8 40/88/7 42/89/9 41/90/10
f 41/90/10 42/89/9 44/91/11 43/92/12
f 43/92/12 44/91/11 46/93/13 45/94/14
f 36/95/3 34/96/2 48/97/15 46/98/13 44/99/11 42/100/9 40/101/7 38/102/5
f 45/103/14 46/104/13 48/105/15 47/106/16
f 47/107/16 48/108/15 34/78/2 33/77/1
f 33/109/1 35/110/4 37/111/6 39/112/8 41/113/10 43/114/12 45/103/14 47/106/16
f 49/115/1 50/116/2 52/117/3 51/118/4
f 51/119/4 52/120/3 54/121/5 53/122/6
f 53/122/6 54/121/5 56/123/7 55/124/8
f 55/125/8 56/126/7 58/127/9 57/128/10
f 57/128/10 58/127/9 60/129/11 59/130/12
f 59/130/12 60/129/11 62/131/13 61/132/14
f 52/133/3 50/134/2 64/135/15 62/136/13 60/137/11 58/138/9 56/139/7 54/140/5
f 61/141/14 62/142/13 64/143/15 63/144/16
f 63/145/16 64/146/15 50/116/2 49/115/1
f 49/147/1 51/148/4 53/149/6 55/150/8 57/151/10 59/152/12 61/141/14 63/144/16
f 65/153/1 66/154/2 68/155/3 67/156/4
f 67/157/4 68/158/3 70/159/5 69/160/6
f 69/160/6 70/159/5 72/161/7 71/162/8
f 71/163/8 72/164/7 74/165/9 73/166/10
f 73/166/10 74/165/9 76/167/11 75/168/12
f 75/168/12 76/167/11 78/169/13 77/170/14
f 68/171/3 66/172/2 80/173/15 78/174/13 76/175/11 74/176/9 72/177/7 70/178/5
f 77/179/14 78/180/13 80/181/15 79/182/16
f 79/183/16 80/184/15 66/154/2 65/153/1
f 65/185/1 67/186/4 69/187/6 71/188/8 73/189/10 75/190/12 77/179/14 79/182/16
f 81/191/1 82/192/2 84/193/3 83/194/4
f 83/195/4 84/196/3 86/197/5 85/198/6
f 85/198/6 86/197/5 88/199/7 87/200/8
f 87/201/8 88/202/7 90/203/9 89/204/10
f 89/204/10 90/203/9 92/205/11 91/206/12
f 91/206/12 92/205/11 94/207/13 93/208/14
f 84/209/3 82/210/2 96/211/15 94/212/13 92/213/11 90/214/9 88/215/7 86/216/5
f 93/217/14 94/218/13 96/219/15 95/220/16
f 95/221/16 96/222/15 82/192/2 81/191/1
f 81/223/1 83/224/4 85/225/6 87/226/8 89/227/10 91/228/12 93/217/14 95/220/16
f 97/229/1 98/230/2 100/231/3 99/232/4
f 99/233/4 100/234/3 102/235/5 101/236/6
f 101/236/6 102/235/5 104/237/7 103/238/8
f 103/239/8 104/240/7 106/241/9 105/242/10
f 105/242/10 106/241/9 108/243/11 107/244/12
f 107/244/12 108/243/11 110/245/13 109/246/14
f 100/247/3 98/248/2 112/249/15 110/250/13 108/251/11 106/252/9 104/253/7 102/254/5
f 109/255/14 110/256/13 112/257/15 111/258/16
f 111/259/16 112/260/15 98/230/2 97/229/1
f 97/261/1 99/262/4 101/263/6 103/264/8 105/265/10 107/266/12 109/255/14 111/258/16
f 113/267/1 114/268/2 116/269/3 115/270/4
f 115/271/4 116/272/3 118/273/5 117/274/6
f 117/274/6 118/273/5 120/275/7 119/276/8
f 119/277/8 120/278/7 122/279/9 121/280/10
f 121/280/10 122/279/9 124/281/11 123/282/12
f 123/282/12 124/281/11 126/283/13 125/284/14
f 116/285/3 114/286/2 128/287/15 126/288/13 124/289/11 122/290/9 120/291/7 118/292/5
f 125/293/14 126/294/13 128/295/15 127/296/16
f 127/297/16 128/298/15 114/268/2 113/267/1
f 113/299/1 115/300/4 117/301/6 119/302/8 121/303/10 123/304/12 125/293/14 127/296/16
f 129/305/17 144/306/18 143/307/19
f 130/308/20 146/309/21 152/310/22
f 129/305/17 143/307/19 158/311/23
f 129/305/17 158/311/23 164/312/24
f 129/305/17 164/312/24 153/313/25
f 130/308/20 152/310/22 173/314/26
f 131/315/27 149/316/28 179/317/29
f 132/318/30 161/319/31 185/320/32
f 133/321/33 167/322/34 191/323/35
f 134/324/36 170/325/37 197/326/38
f 130/308/20 173/314/26 180/327/39
f 131/315/27 179/317/29 186/328/40
f 132/318/30 185/320/32 192/329/41
f 133/321/33 191/323/35 198/330/42
f 134/331/36 197/332/38 174/333/43
f 135/334/44 203/335/45 218/336/46
f 136/337/47 206/338/48 224/339/49
f 137/340/50 209/341/51 227/342/52
f 138/343/53 212/344/54 230/345/55
f 139/346/56 215/347/57 219/348/58
f 221/349/59 228/350/60 140/351/61
f 220/352/62 231/353/63 221/349/59
f 219/348/58 232/354/64 220/355/62
f 221/349/59 231/353/63 228/350/60
f 231/353/63 229/356/65 228/350/60
f 220/352/62 232/357/64 231/353/63
f 232/357/64 233/358/66 231/353/63
f 231/353/63 233/358/66 229/356/65
f 233/358/66 230/359/55 229/356/65
f 219/348/58 215/347/57 232/354/64
f 215/347/57 214/360/67 232/354/64
f 232/354/64 214/360/67 233/361/66
f 214/362/67 213/363/68 233/364/66
f 233/364/66 213/363/68 230/345/55
f 213/363/68 138/343/53 230/345/55
f 228/350/60 225/365/69 140/351/61
f 229/356/65 234/366/70 228/350/60
f 230/359/55 235/367/71 229/356/65
f 228/350/60 234/366/70 225/365/69
f 234/366/70 226/368/72 225/365/69
f 229/356/65 235/367/71 234/366/70
f 235/367/71 236/369/73 234/366/70
f 234/366/70 236/369/73 226/368/72
f 236/369/73 227/342/52 226/368/72
f 230/359/55 212/370/54 235/367/71
f 212/370/54 211/371/74 235/367/71
f 235/367/71 211/371/74 236/369/73
f 211/371/74 210/372/75 236/369/73
f 236/369/73 210/372/75 227/342/52
f 210/372/75 137/340/50 227/342/52
f 225/365/69 222/373/76 140/351/61
f 226/368/72 237/374/77 225/365/69
f 227/342/52 238/375/78 226/368/72
f 225/365/69 237/374/77 222/373/76
f 237/374/77 223/376/79 222/373/76
f 226/368/72 238/375/78 237/374/77
f 238/375/78 239/377/80 237/374/77
f 237/374/77 239/377/80 223/376/79
f 239/377/80 224/339/49 223/376/79
f 227/342/52 209/341/51 238/375/78
f 209/341/51 208/378/81 238/375/78
f 238/375/78 208/378/81 239/377/80
f 208/378/81 207/379/82 239/377/80
f 239/377/80 207/379/82 224/339/49
f 207/379/82 136/337/47 224/339/49
f 222/373/76 216/380/83 140/351/61
f 223/376/79 240/381/84 222/373/76
f 224/339/49 241/382/85 223/376/79
f 222/373/76 240/381/84 216/380/83
f 240/381/84 217/383/86 216/380/83
f 223/376/79 241/382/85 240/381/84
f 241/382/85 242/384/87 240/381/84
f 240/381/84 242/384/87 217/383/86
f 242/384/87 218/385/46 217/383/86
f 224/339/49 206/338/48 241/382/85
f 206/338/48 205/386/88 241/382/85
f 241/382/85 205/386/88 242/384/87
f 205/387/88 204/388/89 242/389/87
f 242/389/87 204/388/89 218/390/46
f 204/388/89 135/391/44 218/390/46
f 216/380/83 221/349/59 140/351/61
f 217/383/86 243/392/90 216/380/83
f 218/385/46 244/393/91 217/383/86
f 216/380/83 243/392/90 221/349/59
f 243/392/90 220/352/62 221/349/59
f 217/383/86 244/393/91 243/392/90
f 244/394/91 245/395/92 243/396/90
f 243/396/90 245/395/92 220/355/62
f 245/395/92 219/348/58 220/355/62
f 218/336/46 203/335/45 244/394/91
f 203/335/45 202/397/93 244/394/91
f 244/394/91 202/397/93 245/395/92
f 202/397/93 201/398/94 245/395/92
f 245/395/92 201/398/94 219/348/58
f 201/398/94 139/346/56 219/348/58
f 176/399/95 215/347/57 139/346/56
f 175/400/96 246/401/97 176/399/95
f 174/333/43 247/402/98 175/400/96
f 176/399/95 246/401/97 215/347/57
f 246/401/97 214/360/67 215/347/57
f 175/400/96 247/402/98 246/401/97
f 247/402/98 248/403/99 246/401/97
f 246/401/97 248/403/99 214/360/67
f 248/404/99 213/363/68 214/362/67
f 174/333/43 197/332/38 247/402/98
f 197/326/38 196/405/100 247/406/98
f 247/406/98 196/405/100 248/404/99
f 196/405/100 195/407/101 248/404/99
f 248/404/99 195/407/101 213/363/68
f 195/407/101 138/343/53 213/363/68
f 200/408/102 212/344/54 138/343/53
f 199/409/103 249/410/104 200/408/102
f 198/411/42 250/412/105 199/409/103
f 200/408/102 249/410/104 212/344/54
f 249/413/104 211/371/74 212/370/54
f 199/409/103 250/412/105 249/410/104
f 250/414/105 251/415/106 249/413/104
f 249/413/104 251/415/106 211/371/74
f 251/415/106 210/372/75 211/371/74
f 198/411/42 191/416/35 250/412/105
f 191/323/35 190/417/107 250/418/105
f 250/414/105 190/419/107 251/415/106
f 190/419/107 189/420/108 251/415/106
f 251/415/106 189/420/108 210/372/75
f 189/420/108 137/340/50 210/372/75
f 194/421/109 209/341/51 137/340/50
f 193/422/110 252/423/111 194/421/109
f 192/329/41 253/424/112 193/425/110
f 194/421/109 252/423/111 209/341/51
f 252/423/111 208/378/81 209/341/51
f 193/422/110 253/426/112 252/423/111
f 253/426/112 254/427/113 252/423/111
f 252/423/111 254/427/113 208/378/81
f 254/427/113 207/379/82 208/378/81
f 192/329/41 185/320/32 253/424/112
f 185/320/32 184/428/114 253/424/112
f 253/426/112 184/429/114 254/427/113
f 184/429/114 183/430/115 254/427/113
f 254/427/113 183/430/115 207/379/82
f 183/430/115 136/337/47 207/379/82
f 188/431/116 206/432/48 136/433/47
f 187/434/117 255/435/118 188/431/116
f 186/328/40 256/436/119 187/434/117
f 188/431/116 255/435/118 206/432/48
f 255/435/118 205/387/88 206/432/48
f 187/434/117 256/436/119 255/435/118
f 256/436/119 257/437/120 255/435/118
f 255/435/118 257/437/120 205/387/88
f 257/437/120 204/388/89 205/387/88
f 186/328/40 179/317/29 256/436/119
f 179/317/29 178/438/121 256/436/119
f 256/436/119 178/438/121 257/437/120
f 178/438/121 177/439/122 257/437/120
f 257/437/120 177/439/122 204/388/89
f 177/439/122 135/391/44 204/388/89
f 182/440/123 203/335/45 135/334/44
f 181/441/124 258/442/125 182/440/123
f 180/327/39 259/443/126 181/441/124
f 182/440/123 258/442/125 203/335/45
f 258/442/125 202/397/93 203/335/45
f 181/441/124 259/443/126 258/442/125
f 259/443/126 260/444/127 258/442/125
f 258/442/125 260/444/127 202/397/93
f 260/444/127 201/398/94 202/397/93
f 180/327/39 173/314/26 259/443/126
f 173/314/26 172/445/128 259/443/126
f 259/443/126 172/445/128 260/444/127
f 172/445/128 171/446/129 260/444/127
f 260/444/127 171/446/129 201/398/94
f 171/446/129 139/346/56 201/398/94
f 195/407/101 200/408/102 138/343/53
f 196/405/100 261/447/130 195/407/101
f 197/326/38 262/448/131 196/405/100
f 195/407/101 261/447/130 200/408/102
f 261/447/130 199/409/103 200/408/102
f 196/405/100 262/448/131 261/447/130
f 262/448/131 263/449/132 261/447/130
f 261/447/130 263/449/132 199/409/103
f 263/449/132 198/411/42 199/409/103
f 197/326/38 170/325/37 262/448/131
f 170/325/37 169/450/133 262/448/131
f 262/448/131 169/450/133 263/449/132
f 169/450/133 168/451/134 263/449/132
f 263/449/132 168/451/134 198/411/42
f 168/452/134 133/321/33 198/330/42
f 189/420/108 194/421/109 137/340/50
f 190/419/107 264/453/135 189/420/108
f 191/323/35 265/454/136 190/417/107
f 189/420/108 264/453/135 194/421/109
f 264/453/135 193/422/110 194/421/109
f 190/417/107 265/454/136 264/455/135
f 265/454/136 266/456/137 264/455/135
f 264/455/135 266/456/137 193/425/110
f 266/456/137 192/329/41 193/425/110
f 191/323/35 167/322/34 265/454/136
f 167/322/34 166/457/138 265/454/136
f 265/454/136 166/457/138 266/456/137
f 166/457/138 165/458/139 266/456/137
f 266/456/137 165/458/139 192/329/41
f 165/458/139 132/318/30 192/329/41
f 183/459/115 188/431/116 136/433/47
f 184/460/114 267/461/140 183/459/115
f 185/320/32 268/462/141 184/428/114
f 183/459/115 267/461/140 188/431/116
f 267/461/140 187/434/117 188/431/116
f 184/460/114 268/463/141 267/461/140
f 268/463/141 269/464/142 267/461/140
f 267/461/140 269/464/142 187/434/117
f 269/464/142 186/328/40 187/434/117
f 185/320/32 161/319/31 268/462/141
f 161/319/31 160/465/143 268/462/141
f 268/462/141 160/465/143 269/466/142
f 160/465/143 159/467/144 269/466/142
f 269/464/142 159/468/144 186/328/40
f 159/468/144 131/315/27 186/328/40
f 177/469/122 182/440/123 135/334/44
f 178/438/121 270/470/145 177/439/122
f 179/317/29 271/471/146 178/438/121
f 177/469/122 270/472/145 182/440/123
f 270/472/145 181/441/124 182/440/123
f 178/438/121 271/471/146 270/470/145
f 271/473/146 272/474/147 270/472/145
f 270/472/145 272/474/147 181/441/124
f 272/474/147 180/327/39 181/441/124
f 179/317/29 149/316/28 271/471/146
f 149/316/28 148/475/148 271/471/146
f 271/473/146 148/476/148 272/474/147
f 148/476/148 147/477/149 272/474/147
f 272/474/147 147/477/149 180/327/39
f 147/477/149 130/308/20 180/327/39
f 171/446/129 176/399/95 139/346/56
f 172/445/128 273/478/150 171/446/129
f 173/314/26 274/479/151 172/445/128
f 171/446/129 273/478/150 176/399/95
f 273/478/150 175/400/96 176/399/95
f 172/445/128 274/479/151 273/478/150
f 274/479/151 275/480/152 273/478/150
f 273/478/150 275/480/152 175/400/96
f 275/480/152 174/333/43 175/400/96
f 173/314/26 152/310/22 274/479/151
f 152/310/22 151/481/153 274/479/151
f 274/479/151 151/481/153 275/480/152
f 151/481/153 150/482/154 275/480/152
f 275/480/152 150/482/154 174/333/43
f 150/482/154 134/331/36 174/333/43
f 155/483/155 170/325/37 134/324/36
f 154/484/156 276/485/157 155/483/155
f 153/313/25 277/486/158 154/487/156
f 155/483/155 276/485/157 170/325/37
f 276/485/157 169/450/133 170/325/37
f 154/487/156 277/486/158 276/488/157
f 277/486/158 278/489/159 276/488/157
f 276/485/157 278/490/159 169/450/133
f 278/490/159 168/451/134 169/450/133
f 153/313/25 164/312/24 277/486/158
f 164/312/24 163/491/160 277/486/158
f 277/486/158 163/491/160 278/489/159
f 163/491/160 162/492/161 278/489/159
f 278/489/159 162/492/161 168/452/134
f 162/492/161 133/321/33 168/452/134
f 162/492/161 167/322/34 133/321/33
f 163/491/160 279/493/162 162/492/161
f 164/312/24 280/494/163 163/491/160
f 162/492/161 279/493/162 167/322/34
f 279/493/162 166/457/138 167/322/34
f 163/491/160 280/494/163 279/493/162
f 280/494/163 281/495/164 279/493/162
f 279/493/162 281/495/164 166/457/138
f 281/495/164 165/458/139 166/457/138
f 164/312/24 158/311/23 280/494/163
f 158/311/23 157/496/165 280/494/163
f 280/494/163 157/496/165 281/495/164
f 157/496/165 156/497/166 281/495/164
f 281/495/164 156/497/166 165/458/139
f 156/497/166 132/318/30 165/458/139
f 156/497/166 161/319/31 132/318/30
f 157/496/165 282/498/167 156/497/166
f 158/311/23 283/499/168 157/496/165
f 156/497/166 282/498/167 161/319/31
f 282/498/167 160/465/143 161/319/31
f 157/496/165 283/499/168 282/498/167
f 283/499/168 284/500/169 282/498/167
f 282/498/167 284/500/169 160/465/143
f 284/500/169 159/467/144 160/465/143
f 158/311/23 143/307/19 283/499/168
f 143/307/19 142/501/170 283/499/168
f 283/499/168 142/501/170 284/500/169
f 142/501/170 141/502/171 284/500/169
f 284/500/169 141/502/171 159/467/144
f 141/502/171 131/503/27 159/467/144
f 150/482/154 155/504/155 134/331/36
f 151/481/153 285/505/172 150/482/154
f 152/310/22 286/506/173 151/481/153
f 150/482/154 285/505/172 155/504/155
f 285/505/172 154/507/156 155/504/155
f 151/481/153 286/506/173 285/505/172
f 286/506/173 287/508/174 285/505/172
f 285/505/172 287/508/174 154/507/156
f 287/509/174 153/313/25 154/487/156
f 152/310/22 146/309/21 286/506/173
f 146/309/21 145/510/175 286/506/173
f 286/506/173 145/510/175 287/508/174
f 145/511/175 144/306/18 287/509/174
f 287/509/174 144/306/18 153/313/25
f 144/306/18 129/305/17 153/313/25
f 141/512/171 149/316/28 131/315/27
f 142/501/170 288/513/176 141/502/171
f 143/307/19 289/514/177 142/501/170
f 141/502/171 288/513/176 149/515/28
f 288/516/176 148/475/148 149/316/28
f 142/501/170 289/514/177 288/513/176
f 289/514/177 290/517/178 288/513/176
f 288/518/176 290/519/178 148/476/148
f 290/519/178 147/477/149 148/476/148
f 143/307/19 144/306/18 289/514/177
f 144/306/18 145/511/175 289/514/177
f 289/514/177 145/511/175 290/517/178
f 145/510/175 146/309/21 290/519/178
f 290/519/178 146/309/21 147/477/149
f 146/309/21 130/308/20 147/477/149
f 291/520/179 304/521/180 303/522/181
f 292/523/182 304/524/180 306/525/183
f 291/520/179 303/522/181 308/526/184
f 291/520/179 308/526/184 310/527/185
f 291/520/179 310/527/185 307/528/186
f 292/523/182 306/525/183 313/529/187
f 293/530/188 305/531/189 315/532/121
f 294/533/190 309/534/191 317/535/192
f 295/536/193 311/537/194 319/538/195
f 296/539/196 312/540/197 321/541/198
f 292/523/182 313/529/187 316/542/199
f 293/530/188 315/532/121 318/543/200
f 294/533/190 317/535/192 320/544/201
f 295/545/193 319/546/195 322/547/103
f 296/539/196 321/541/198 314/548/202
f 297/549/203 323/550/204 328/551/205
f 298/552/206 324/553/207 330/554/208
f 299/555/209 325/556/210 331/557/211
f 300/558/212 326/559/213 332/560/214
f 301/561/215 327/562/216 329/563/217
f 329/564/217 332/565/214 302/566/218
f 329/564/217 327/567/216 332/565/214
f 327/568/216 300/558/212 332/560/214
f 332/565/214 331/557/211 302/566/218
f 332/565/214 326/569/213 331/557/211
f 326/569/213 299/555/209 331/557/211
f 331/557/211 330/570/208 302/566/218
f 331/557/211 325/556/210 330/570/208
f 325/556/210 298/571/206 330/570/208
f 330/570/208 328/572/205 302/566/218
f 330/570/208 324/573/207 328/572/205
f 324/553/207 297/574/203 328/575/205
f 328/572/205 329/564/217 302/566/218
f 328/551/205 323/550/204 329/563/217
f 323/550/204 301/561/215 329/563/217
f 314/576/202 327/562/216 301/561/215
f 314/548/202 321/541/198 327/568/216
f 321/541/198 300/558/212 327/568/216
f 322/547/103 326/559/213 300/558/212
f 322/547/103 319/546/195 326/559/213
f 319/577/195 299/555/209 326/569/213
f 320/578/201 325/556/210 299/555/209
f 320/578/201 317/579/192 325/556/210
f 317/579/192 298/571/206 325/556/210
f 318/543/200 324/553/207 298/552/206
f 318/543/200 315/532/121 324/553/207
f 315/532/121 297/574/203 324/553/207
f 316/542/199 323/550/204 297/549/203
f 316/542/199 313/529/187 323/550/204
f 313/529/187 301/561/215 323/550/204
f 321/541/198 322/547/103 300/558/212
f 321/541/198 312/540/197 322/547/103
f 312/540/197 295/545/193 322/547/103
f 319/577/195 320/578/201 299/555/209
f 319/538/195 311/537/194 320/544/201
f 311/537/194 294/533/190 320/544/201
f 317/580/192 318/543/200 298/552/206
f 317/580/192 309/581/191 318/543/200
f 309/581/191 293/530/188 318/543/200
f 315/532/121 316/582/199 297/574/203
f 315/532/121 305/531/189 316/582/199
f 305/583/189 292/523/182 316/542/199
f 313/529/187 314/576/202 301/561/215
f 313/529/187 306/525/183 314/576/202
f 306/525/183 296/584/196 314/576/202
f 307/585/186 312/540/197 296/539/196
f 307/585/186 310/586/185 312/540/197
f 310/586/185 295/545/193 312/540/197
f 310/527/185 311/537/194 295/536/193
f 310/527/185 308/526/184 311/537/194
f 308/526/184 294/533/190 311/537/194
f 308/526/184 309/534/191 294/533/190
f 308/526/184 303/522/181 309/534/191
f 303/587/181 293/530/188 309/581/191
f 306/525/183 307/588/186 296/584/196
f 306/525/183 304/524/180 307/588/186
f 304/521/180 291/520/179 307/528/186
f 303/587/181 305/531/189 293/530/188
f 303/587/181 304/589/180 305/531/189
f 304/524/180 292/523/182 305/583/189
f 333/590/219 346/591/220 345/592/221
f 334/593/222 346/594/220 348/595/223
f 333/590/219 345/592/221 350/596/224
f 333/590/219 350/596/224 352/597/225
f 333/590/219 352/597/225 349/598/226
f 334/593/222 348/595/223 355/599/227
f 335/600/228 347/601/229 357/602/121
f 336/603/230 351/604/231 359/605/232
f 337/606/233 353/607/234 361/608/235
f 338/609/236 354/610/237 363/611/238
f 334/593/222 355/599/227 358/612/239
f 335/600/228 357/602/121 360/613/240
f 336/603/230 359/605/232 362/614/241
f 337/615/233 361/616/235 364/617/103
f 338/609/236 363/611/238 356/618/242
f 339/619/243 365/620/244 370/621/245
f 340/622/246 366/623/247 372/624/248
f 341/625/249 367/626/250 373/627/251
f 342/628/252 368/629/253 374/630/254
f 343/631/255 369/632/256 371/633/257
f 371/634/257 374/630/254 344/635/258
f 371/634/257 369/636/256 374/630/254
f 369/637/256 342/638/252 374/639/254
f 374/630/254 373/627/251 344/635/258
f 374/630/254 368/629/253 373/627/251
f 368/629/253 341/625/249 373/627/251
f 373/627/251 372/624/248 344/635/258
f 373/627/251 367/626/250 372/624/248
f 367/626/250 340/622/246 372/624/248
f 372/624/248 370/640/245 344/635/258
f 372/624/248 366/623/247 370/640/245
f 366/641/247 339/642/243 370/643/245
f 370/640/245 371/634/257 344/635/258
f 370/621/245 365/620/244 371/633/257
f 365/620/244 343/631/255 371/633/257
f 356/644/242 369/632/256 343/631/255
f 356/618/242 363/611/238 369/637/256
f 363/611/238 342/638/252 369/637/256
f 364/617/103 368/645/253 342/638/252
f 364/617/103 361/616/235 368/645/253
f 361/646/235 341/625/249 368/629/253
f 362/647/241 367/626/250 341/625/249
f 362/647/241 359/648/232 367/626/250
f 359/648/232 340/622/246 367/626/250
f 360/613/240 366/641/247 340/649/246
f 360/613/240 357/602/121 366/641/247
f 357/602/121 339/642/243 366/641/247
f 358/612/239 365/620/244 339/619/243
f 358/612/239 355/599/227 365/620/244
f 355/599/227 343/631/255 365/620/244
f 363/611/238 364/617/103 342/638/252
f 363/611/238 354/610/237 364/617/103
f 354/610/237 337/615/233 364/617/103
f 361/646/235 362/647/241 341/625/249
f 361/608/235 353/607/234 362/614/241
f 353/607/234 336/603/230 362/614/241
f 359/650/232 360/613/240 340/649/246
f 359/650/232 351/651/231 360/613/240
f 351/651/231 335/600/228 360/613/240
f 357/602/121 358/652/239 339/642/243
f 357/602/121 347/601/229 358/652/239
f 347/653/229 334/593/222 358/612/239
f 355/599/227 356/644/242 343/631/255
f 355/599/227 348/595/223 356/644/242
f 348/595/223 338/654/236 356/644/242
f 349/655/226 354/610/237 338/609/236
f 349/598/226 352/597/225 354/656/237
f 352/597/225 337/606/233 354/656/237
f 352/597/225 353/607/234 337/606/233
f 352/597/225 350/596/224 353/607/234
f 350/596/224 336/603/230 353/607/234
f 350/596/224 351/604/231 336/603/230
f 350/596/224 345/592/221 351/604/231
f 345/592/221 335/657/228 351/604/231
f 348/595/223 349/658/226 338/654/236
f 348/595/223 346/594/220 349/658/226
f 346/591/220 333/590/219 349/598/226
f 345/659/221 347/601/229 335/600/228
f 345/592/221 346/591/220 347/660/229
f 346/594/220 334/593/222 347/653/229
f 375/661/259 376/662/260 378/663/261 377/664/262
f 377/665/262 378/666/261 380/667/263 379/668/264
f 379/668/264 380/667/263 382/669/265 381/670/266
f 381/671/266 382/672/265 384/673/267 383/674/268
f 383/674/268 384/673/267 386/675/269 385/676/270
f 378/663/261 376/662/260 388/677/271 386/678/269 384/679/267 382/680/265 380/681/263
f 385/682/270 386/683/269 388/684/271 387/685/272
f 387/685/272 388/684/271 376/686/260 375/687/259
f 375/688/259 377/689/262 379/690/264 381/691/266 383/692/268 385/693/270 387/694/272
f 389/695/273 390/696/274 392/697/275 391/698/276
f 391/699/276 392/700/275 394/701/277 393/702/278
f 393/702/278 394/701/277 396/703/279 395/704/280
f 395/705/280 396/706/279 398/707/281 397/708/282
f 392/709/275 390/710/274 400/711/283 398/712/281 396/713/279 394/714/277
f 397/708/282 398/707/281 400/715/283 399/716/284
f 399/717/284 400/718/283 390/696/274 389/695/273
f 389/719/273 391/720/276 393/721/278 395/722/280 397/723/282 399/724/284
f 401/725/285 402/726/286 404/727/287 403/728/288
f 403/728/288 404/727/287 406/729/289 405/730/290
f 405/730/290 406/729/289 408/731/291 407/732/292
f 407/733/292 408/734/291 410/735/293 409/736/294
f 404/737/287 402/738/286 412/739/295 410/740/293 408/741/291 406/742/289
f 409/736/294 410/735/293 412/743/295 411/744/296
f 411/745/296 412/746/295 402/747/286 401/748/285
f 401/749/285 403/750/288 405/751/290 407/752/292 409/753/294 411/754/296
f 413/755/297 414/756/298 416/757/299 415/758/300
f 415/759/300 416/760/299 418/761/301 417/762/302
f 417/762/302 418/761/301 420/763/303 419/764/304
f 419/765/304 420/766/303 422/767/305 421/768/306
f 416/769/299 414/770/298 424/771/307 422/772/305 420/773/303 418/774/301
f 421/768/306 422/767/305 424/775/307 423/776/308
f 423/777/308 424/778/307 414/756/298 413/755/297
f 413/779/297 415/780/300 417/781/302 419/782/304 421/783/306 423/784/308
f 425/785/285 426/786/286 428/787/287 427/788/288
f 427/788/288 428/787/287 430/789/289 429/790/290
f 429/790/290 430/789/289 432/791/291 431/792/292
f 431/793/292 432/794/291 434/795/293 433/796/294
f 428/797/287 426/798/286 436/799/295 434/800/293 432/801/291 430/802/289
f 433/796/294 434/795/293 436/803/295 435/804/296
f 435/805/296 436/806/295 426/807/286 425/808/285
f 425/809/285 427/810/288 429/811/290 431/812/292 433/813/294 435/814/296
f 437/815/309 438/816/310 440/817/311 439/818/312
f 439/819/312 440/820/311 442/821/313 441/822/314
f 441/823/314 442/824/313 444/825/315 443/826/316
f 443/826/316 444/825/315 446/827/317 445/828/318
f 445/828/318 446/827/317 448/829/319 447/830/320
f 440/820/311 438/831/310 450/832/321 448/833/319 446/834/317 444/835/315 442/821/313
f 447/836/320 448/837/319 450/838/321 449/839/322
f 449/839/322 450/838/321 438/840/310 437/841/309
f 437/842/309 439/843/312 441/844/314 443/845/316 445/846/318 447/847/320 449/848/322
f 451/849/323 452/850/324 454/851/325 453/852/326
f 453/853/326 454/854/325 456/855/327 455/856/328
f 455/856/328 456/855/327 458/857/329 457/858/330
f 457/859/330 458/860/329 460/861/331 459/862/332
f 459/862/332 460/861/331 462/863/333 461/864/334
f 454/854/325 452/865/324 464/866/335 462/867/333 460/868/331 458/857/329 456/855/327
f 461/869/334 462/870/333 464/871/335 463/872/336
f 463/873/336 464/874/335 452/850/324 451/849/323
f 451/875/323 453/876/326 455/877/328 457/878/330 459/879/332 461/880/334 463/881/336
f 465/882/179 466/883/182 467/884/337
f 466/885/182 465/886/179 470/887/196
f 465/888/179 467/889/337 468/890/190
f 465/888/179 468/890/190 469/891/338
f 465/892/179 469/893/338 470/894/196
f 466/885/182 470/887/196 475/895/215
f 467/884/337 466/883/182 471/896/339
f 468/897/190 467/884/337 472/898/206
f 469/891/338 468/890/190 473/899/209
f 470/894/196 469/893/338 474/900/340
f 466/885/182 475/895/215 471/901/339
f 467/884/337 471/896/339 472/898/206
f 468/902/190 472/903/206 473/904/209
f 469/893/338 473/905/209 474/900/340
f 470/894/196 474/900/340 475/906/215
f 471/901/339 475/895/215 476/907/218
f 472/903/206 471/908/339 476/909/218
f 473/904/209 472/903/206 476/909/218
f 474/910/340 473/904/209 476/909/218
f 475/911/215 474/910/340 476/909/218
f 477/912/179 478/913/182 479/914/337
f 478/915/182 477/916/179 482/917/196
f 477/918/179 479/919/337 480/920/190
f 477/918/179 480/920/190 481/921/338
f 477/922/179 481/923/338 482/924/196
f 478/915/182 482/917/196 487/925/215
f 479/914/337 478/913/182 483/926/339
f 480/927/190 479/914/337 484/928/206
f 481/921/338 480/920/190 485/929/209
f 482/924/196 481/923/338 486/930/340
f 478/915/182 487/925/215 483/931/339
f 479/914/337 483/926/339 484/928/206
f 480/932/190 484/933/206 485/934/209
f 481/923/338 485/935/209 486/930/340
f 482/924/196 486/930/340 487/936/215
f 483/931/339 487/925/215 488/937/218
f 484/933/206 483/938/339 488/939/218
f 485/934/209 484/933/206 488/939/218
f 486/940/340 485/934/209 488/939/218
f 487/941/215 486/940/340 488/939/218
f 489/942/341 490/943/342 492/944/343 491/945/344
f 491/945/344 492/944/343 494/946/345 493/947/346
f 493/947/346 494/946/345 496/948/347 495/949/348
f 495/950/348 496/951/347 498/952/349 497/953/350
f 497/953/350 498/952/349 500/954/351 499/955/352
f 492/956/343 490/957/342 502/958/353 500/959/351 498/960/349 496/961/347 494/962/345
f 499/963/352 500/959/351 502/958/353 501/964/354
f 501/964/354 502/958/353 490/957/342 489/965/341
f 489/966/341 491/967/344 493/968/346 495/969/348 497/970/350 499/971/352 501/972/354
