# axis-converted-to-Y-up
# Blender 5.1.1
# www.blender.org
mtllib mob_rubah_walk1.mtl
o mob_rubah_walk1
v -1.119879 0.007831 0.337321
v -1.119879 0.291204 0.160542
v -1.100498 0.007831 0.345349
v -1.100498 0.291204 0.168570
v -1.092470 0.007831 0.364731
v -1.092470 0.291204 0.187952
v -1.100498 0.007831 0.384112
v -1.100498 0.291204 0.207333
v -1.119879 0.007831 0.392140
v -1.119879 0.291204 0.215361
v -1.139261 0.007831 0.384112
v -1.139261 0.291204 0.207333
v -1.147289 0.007831 0.364731
v -1.147289 0.291204 0.187952
v -1.139261 0.007831 0.345349
v -1.139261 0.291204 0.168570
v -1.119879 0.000000 0.340192
v -1.119879 0.093976 0.277541
v -1.098837 0.000000 0.348908
v -1.098837 0.093976 0.286258
v -1.090120 0.000000 0.369951
v -1.090120 0.093976 0.307300
v -1.098837 0.000000 0.390994
v -1.098837 0.093976 0.328343
v -1.119879 0.000000 0.399710
v -1.119879 0.093976 0.337059
v -1.140922 0.000000 0.390994
v -1.140922 0.093976 0.328343
v -1.149639 0.000000 0.369951
v -1.149639 0.093976 0.307300
v -1.140922 0.000000 0.348908
v -1.140922 0.093976 0.286258
v -1.119879 0.007831 -0.038583
v -1.119879 0.291204 -0.215362
v -1.100498 0.007831 -0.030555
v -1.100498 0.291204 -0.207334
v -1.092470 0.007831 -0.011173
v -1.092470 0.291204 -0.187952
v -1.100498 0.007831 0.008209
v -1.100498 0.291204 -0.168570
v -1.119879 0.007831 0.016237
v -1.119879 0.291204 -0.160542
v -1.139261 0.007831 0.008209
v -1.139261 0.291204 -0.168570
v -1.147289 0.007831 -0.011173
v -1.147289 0.291204 -0.187952
v -1.139261 0.007831 -0.030555
v -1.139261 0.291204 -0.207334
v -1.119879 0.000000 -0.035712
v -1.119879 0.093976 -0.098362
v -1.098837 0.000000 -0.026995
v -1.098837 0.093976 -0.089646
v -1.090120 0.000000 -0.005953
v -1.090120 0.093976 -0.068603
v -1.098837 0.000000 0.015090
v -1.098837 0.093976 -0.047561
v -1.119879 0.000000 0.023806
v -1.119879 0.093976 -0.038844
v -1.140922 0.000000 0.015090
v -1.140922 0.093976 -0.047561
v -1.149639 0.000000 -0.005953
v -1.149639 0.093976 -0.068603
v -1.140922 0.000000 -0.026995
v -1.140922 0.093976 -0.089646
v -0.916265 0.007831 0.337321
v -0.916265 0.291204 0.160542
v -0.896883 0.007831 0.345349
v -0.896883 0.291204 0.168570
v -0.888856 0.007831 0.364731
v -0.888855 0.291204 0.187952
v -0.896883 0.007831 0.384112
v -0.896883 0.291204 0.207333
v -0.916265 0.007831 0.392140
v -0.916265 0.291204 0.215361
v -0.935647 0.007831 0.384112
v -0.935647 0.291204 0.207333
v -0.943675 0.007831 0.364731
v -0.943675 0.291204 0.187952
v -0.935647 0.007831 0.345349
v -0.935647 0.291204 0.168570
v -0.916265 0.000000 0.340192
v -0.916265 0.093976 0.277541
v -0.895222 0.000000 0.348908
v -0.895222 0.093976 0.286258
v -0.886506 0.000000 0.369951
v -0.886506 0.093976 0.307300
v -0.895222 0.000000 0.390994
v -0.895222 0.093976 0.328343
v -0.916265 0.000000 0.399710
v -0.916265 0.093976 0.337059
v -0.937308 0.000000 0.390994
v -0.937308 0.093976 0.328343
v -0.946024 0.000000 0.369951
v -0.946024 0.093976 0.307300
v -0.937308 0.000000 0.348908
v -0.937308 0.093976 0.286258
v -0.916265 0.007831 -0.038583
v -0.916265 0.291204 -0.215362
v -0.896883 0.007831 -0.030555
v -0.896883 0.291204 -0.207334
v -0.888855 0.007831 -0.011173
v -0.888855 0.291204 -0.187952
v -0.896883 0.007831 0.008209
v -0.896883 0.291204 -0.168570
v -0.916265 0.007831 0.016237
v -0.916265 0.291204 -0.160542
v -0.935647 0.007831 0.008209
v -0.935647 0.291204 -0.168570
v -0.943675 0.007831 -0.011173
v -0.943675 0.291204 -0.187952
v -0.935647 0.007831 -0.030555
v -0.935647 0.291204 -0.207334
v -0.916265 0.000000 -0.035712
v -0.916265 0.093976 -0.098362
v -0.895222 0.000000 -0.026995
v -0.895222 0.093976 -0.089646
v -0.886506 0.000000 -0.005953
v -0.886506 0.093976 -0.068603
v -0.895222 0.000000 0.015090
v -0.895222 0.093976 -0.047561
v -0.916265 0.000000 0.023806
v -0.916265 0.093976 -0.038844
v -0.937308 0.000000 0.015090
v -0.937308 0.093976 -0.047561
v -0.946024 0.000000 -0.005953
v -0.946024 0.093976 -0.068603
v -0.937308 0.000000 -0.026995
v -0.937308 0.093976 -0.089646
v -1.018072 0.167590 0.070273
v -0.882069 0.261097 0.166033
v -1.070020 0.261096 0.263745
v -1.186181 0.261097 0.007935
v -1.070020 0.261096 -0.247874
v -0.882069 0.261097 -0.150163
v -0.966125 0.424414 0.255809
v -1.154076 0.424414 0.158098
v -1.154076 0.424414 -0.158098
v -0.966125 0.424414 -0.255810
v -0.849964 0.424414 -0.000000
v -1.018072 0.525982 -0.000000
v -1.061831 0.225523 0.247138
v -1.048606 0.192853 0.203791
v -1.032659 0.173012 0.138487
v -0.979884 0.173012 0.111050
v -0.938132 0.192853 0.146357
v -0.903507 0.225523 0.164828
v -0.918093 0.251779 0.219154
v -0.968665 0.247815 0.260077
v -1.023643 0.251779 0.274027
v -0.865318 0.251779 -0.074637
v -0.858192 0.247815 0.016790
v -0.865318 0.251779 0.102932
v -0.979884 0.173012 0.022267
v -0.938132 0.192853 -0.039496
v -0.903507 0.225523 -0.101526
v -1.159683 0.225524 0.031650
v -1.116884 0.192853 0.053431
v -1.065276 0.173012 0.066659
v -1.109035 0.251779 0.229634
v -1.147418 0.247815 0.167150
v -1.174270 0.251779 0.085975
v -1.061831 0.225523 -0.183836
v -1.048606 0.192853 -0.096929
v -1.032659 0.173012 -0.005170
v -1.174270 0.251779 -0.057683
v -1.147418 0.247815 -0.133571
v -1.109035 0.251779 -0.201340
v -1.023643 0.251779 -0.245734
v -0.968665 0.247815 -0.226498
v -0.918093 0.251779 -0.190860
v -0.838273 0.388388 0.044392
v -0.839319 0.342242 0.092927
v -0.856303 0.296096 0.133177
v -0.856303 0.296096 -0.133177
v -0.839319 0.342242 -0.092927
v -0.838273 0.388388 -0.044392
v -0.988899 0.388389 0.287317
v -1.018072 0.342242 0.300723
v -1.047246 0.296096 0.287317
v -0.888920 0.296096 0.205008
v -0.907597 0.342242 0.243289
v -0.936124 0.388389 0.259881
v -1.179842 0.388389 0.133177
v -1.196826 0.342242 0.092927
v -1.197872 0.296097 0.044392
v -1.100021 0.296096 0.259881
v -1.128547 0.342242 0.243289
v -1.147225 0.388389 0.205008
v -1.147225 0.388389 -0.205008
v -1.128548 0.342242 -0.243290
v -1.100021 0.296096 -0.259881
v -1.197872 0.296097 -0.044392
v -1.196826 0.342242 -0.092927
v -1.179842 0.388389 -0.133177
v -0.936124 0.388389 -0.259881
v -0.907597 0.342242 -0.243290
v -0.888920 0.296096 -0.205008
v -1.047246 0.296096 -0.287317
v -1.018072 0.342242 -0.300723
v -0.988899 0.388389 -0.287317
v -0.861875 0.434534 0.071829
v -0.888726 0.438841 0.150361
v -0.927109 0.434534 0.215487
v -1.012501 0.434534 0.259880
v -1.067479 0.438841 0.243288
v -1.118052 0.434534 0.205007
v -1.170826 0.434534 0.088784
v -1.177953 0.438841 -0.000000
v -1.170826 0.434534 -0.088785
v -1.118052 0.434534 -0.205007
v -1.067479 0.438841 -0.243288
v -1.012502 0.434534 -0.259880
v -0.927109 0.434534 -0.215488
v -0.888726 0.438841 -0.150361
v -0.861875 0.434534 -0.071829
v -1.003486 0.520092 0.071828
v -0.987539 0.498541 0.150360
v -0.974313 0.463055 0.215487
v -0.876462 0.463054 -0.000000
v -0.919261 0.498541 -0.000000
v -0.970869 0.520092 -0.000000
v -1.056260 0.520092 0.044392
v -1.098012 0.498541 0.092926
v -1.132638 0.463055 0.133177
v -1.056260 0.520092 -0.044392
v -1.098012 0.498541 -0.092927
v -1.132638 0.463055 -0.133177
v -1.003486 0.520092 -0.071828
v -0.987539 0.498541 -0.150360
v -0.974313 0.463055 -0.215487
v -0.950071 0.506584 -0.079049
v -0.898123 0.475198 -0.079049
v -0.934019 0.475198 -0.158099
v -1.044046 0.506584 -0.127904
v -1.027995 0.475198 -0.206953
v -1.086074 0.475198 -0.176759
v -1.102126 0.506584 -0.000000
v -1.144154 0.475198 -0.048854
v -1.144154 0.475198 0.048855
v -1.044046 0.506584 0.127903
v -1.086074 0.475198 0.176758
v -1.027994 0.475198 0.206953
v -0.950071 0.506584 0.079049
v -0.934019 0.475198 0.158099
v -0.898123 0.475198 0.079049
v -0.856095 0.393028 -0.127904
v -0.866015 0.342242 -0.176759
v -0.891990 0.393028 -0.206955
v -1.044047 0.393028 -0.286004
v -1.076153 0.342242 -0.286005
v -1.102127 0.393028 -0.255810
v -1.196103 0.393027 -0.048855
v -1.206024 0.342242 -0.000000
v -1.196103 0.393028 0.048855
v -1.102127 0.393028 0.255809
v -1.076153 0.342242 0.286005
v -1.044047 0.393028 0.286004
v -0.891990 0.393028 0.206954
v -0.866015 0.342242 0.176760
v -0.856095 0.393027 0.127904
v -0.959992 0.342242 -0.286005
v -0.934017 0.291458 -0.255810
v -0.992097 0.291458 -0.286004
v -1.170128 0.342242 -0.176760
v -1.144154 0.291458 -0.206955
v -1.180050 0.291458 -0.127904
v -1.170128 0.342242 0.176760
v -1.180050 0.291458 0.127904
v -1.144154 0.291458 0.206954
v -0.959992 0.342242 0.286005
v -0.992097 0.291458 0.286004
v -0.934017 0.291458 0.255809
v -0.830120 0.342242 -0.000000
v -0.840042 0.291458 0.048855
v -0.840042 0.291458 -0.048855
v -0.950071 0.214343 -0.137654
v -0.992098 0.185448 -0.069536
v -1.008151 0.214343 -0.167850
v -1.102127 0.214343 -0.118994
v -1.086073 0.185448 -0.020681
v -1.138022 0.214343 -0.039945
v -1.138022 0.214343 0.118153
v -1.086073 0.185448 0.137417
v -1.102127 0.214343 0.197203
v -0.891991 0.214343 -0.009750
v -0.891991 0.214343 0.087959
v -0.934018 0.185448 0.058368
v -1.008150 0.214343 0.246057
v -0.992097 0.185448 0.186271
v -0.950071 0.214343 0.215863
v -1.018072 0.170331 -0.103843
v -0.933070 0.219033 -0.074554
v -1.050539 0.219033 -0.036386
v -1.123141 0.219033 -0.136311
v -1.050539 0.219033 -0.236237
v -0.933070 0.219033 -0.198068
v -0.985605 0.299976 -0.072364
v -1.103074 0.299976 -0.110532
v -1.103074 0.299976 -0.234046
v -0.985605 0.299976 -0.272215
v -0.913004 0.299976 -0.172289
v -1.018072 0.352876 -0.172289
v -1.037156 0.183489 -0.053881
v -0.968110 0.183489 -0.076316
v -0.987193 0.212115 -0.036665
v -0.918147 0.212115 -0.131699
v -0.968110 0.183489 -0.148915
v -1.079829 0.183490 -0.112616
v -1.098914 0.212115 -0.072965
v -1.037156 0.183489 -0.171349
v -1.098914 0.212115 -0.190434
v -0.987193 0.212115 -0.226734
v -0.906351 0.258434 -0.126279
v -0.906351 0.258434 -0.198878
v -1.018072 0.258434 -0.045109
v -0.949025 0.258434 -0.067543
v -1.129793 0.258434 -0.126279
v -1.087120 0.258434 -0.067543
v -1.087120 0.258434 -0.257614
v -1.129793 0.258434 -0.198878
v -0.949025 0.258434 -0.257614
v -1.018072 0.258434 -0.280048
v -0.937231 0.307489 -0.113554
v -1.048951 0.307489 -0.077255
v -1.117998 0.307489 -0.172289
v -1.048951 0.307489 -0.267324
v -0.937231 0.307489 -0.231024
v -0.998989 0.338583 -0.113555
v -0.956315 0.338583 -0.172289
v -1.068035 0.338583 -0.135989
v -1.068035 0.338583 -0.208589
v -0.998989 0.338583 -0.231023
v -1.018072 0.266265 -0.324426
v -0.921737 0.345622 -0.258925
v -1.054869 0.345622 -0.215667
v -1.137149 0.345622 -0.328916
v -1.054869 0.345622 -0.442165
v -0.921737 0.345622 -0.398907
v -0.981276 0.474966 -0.215667
v -1.114408 0.474966 -0.258925
v -1.114408 0.474966 -0.398907
v -0.981276 0.474966 -0.442165
v -0.898995 0.474966 -0.328916
v -1.018072 0.554903 -0.328916
v -1.039700 0.287281 -0.262350
v -0.961448 0.287281 -0.287776
v -0.983076 0.334268 -0.221210
v -0.904824 0.334268 -0.328916
v -0.961448 0.287281 -0.370055
v -1.088064 0.287281 -0.328916
v -1.109693 0.334268 -0.262350
v -1.039700 0.287281 -0.395481
v -1.109693 0.334268 -0.395481
v -0.983076 0.334268 -0.436622
v -0.891455 0.410294 -0.287776
v -0.891455 0.410294 -0.370055
v -1.018072 0.410294 -0.195783
v -0.939819 0.410294 -0.221209
v -1.144689 0.410294 -0.287776
v -1.096326 0.410294 -0.221209
v -1.096326 0.410294 -0.436622
v -1.144689 0.410294 -0.370055
v -0.939819 0.410294 -0.436622
v -1.018072 0.410294 -0.462048
v -0.926452 0.486321 -0.262350
v -1.053069 0.486321 -0.221210
v -1.131321 0.486321 -0.328916
v -1.053069 0.486321 -0.436622
v -0.926452 0.486321 -0.395481
v -0.996444 0.533306 -0.262350
v -0.948081 0.533306 -0.328916
v -1.074697 0.533306 -0.287776
v -1.074697 0.533306 -0.370055
v -0.996444 0.533306 -0.395481
v -1.018072 0.291204 -0.375904
v -1.018072 0.363508 -0.563856
v -0.956845 0.323232 -0.375904
v -1.008888 0.368313 -0.563856
v -0.941722 0.395197 -0.375904
v -1.006620 0.379107 -0.563856
v -0.984094 0.452908 -0.375904
v -1.012976 0.387765 -0.563856
v -1.052051 0.452908 -0.375904
v -1.023169 0.387765 -0.563856
v -1.094422 0.395197 -0.375904
v -1.029525 0.379107 -0.563856
v -1.079300 0.323232 -0.375904
v -1.027257 0.368313 -0.563856
v -1.018072 0.350749 -0.563856
v -1.001072 0.364856 -0.551504
v -1.024566 0.364856 -0.543871
v -1.039086 0.364856 -0.563856
v -1.024566 0.364856 -0.583840
v -1.001072 0.364856 -0.576207
v -1.011579 0.387680 -0.543871
v -1.035073 0.387680 -0.551504
v -1.035073 0.387680 -0.576207
v -1.011579 0.387680 -0.583840
v -0.997058 0.387680 -0.563856
v -1.018072 0.401788 -0.563856
v -1.090913 0.486852 -0.367798
v -1.096073 0.673994 -0.316370
v -1.050328 0.486852 -0.342983
v -1.093753 0.673994 -0.314952
v -1.044425 0.486852 -0.295780
v -1.093417 0.673994 -0.312255
v -1.077650 0.486852 -0.261735
v -1.095315 0.673994 -0.310309
v -1.124982 0.486852 -0.266484
v -1.098020 0.673994 -0.310580
v -1.150781 0.486852 -0.306451
v -1.099494 0.673994 -0.312865
v -1.135619 0.486852 -0.351540
v -1.098628 0.673994 -0.315441
v -1.093649 0.580423 -0.348357
v -1.096151 0.682500 -0.323422
v -1.073357 0.580423 -0.335949
v -1.094412 0.682500 -0.322359
v -1.070405 0.580423 -0.312348
v -1.094158 0.682500 -0.320336
v -1.087018 0.580423 -0.295326
v -1.095583 0.682500 -0.318877
v -1.110684 0.580423 -0.297700
v -1.097611 0.682500 -0.319080
v -1.123584 0.580423 -0.317683
v -1.098717 0.682500 -0.320793
v -1.116002 0.580423 -0.340228
v -1.098067 0.682500 -0.322725
v -0.945231 0.486852 -0.367798
v -0.940072 0.673994 -0.316370
v -0.900526 0.486852 -0.351540
v -0.937517 0.673994 -0.315441
v -0.885363 0.486852 -0.306451
v -0.936651 0.673994 -0.312865
v -0.911162 0.486852 -0.266484
v -0.938125 0.673994 -0.310580
v -0.958495 0.486852 -0.261735
v -0.940830 0.673994 -0.310309
v -0.991719 0.486852 -0.295780
v -0.942728 0.673994 -0.312255
v -0.985817 0.486852 -0.342983
v -0.942391 0.673994 -0.314952
v -0.942495 0.580423 -0.348357
v -0.939994 0.682500 -0.323422
v -0.920142 0.580423 -0.340228
v -0.938078 0.682500 -0.322725
v -0.912561 0.580423 -0.317683
v -0.937428 0.682500 -0.320793
v -0.925461 0.580423 -0.297700
v -0.938533 0.682500 -0.319080
v -0.949127 0.580423 -0.295326
v -0.940562 0.682500 -0.318877
v -0.965739 0.580423 -0.312348
v -0.941986 0.682500 -0.320336
v -0.962788 0.580423 -0.335949
v -0.941733 0.682500 -0.322359
v -1.080723 0.427307 -0.407229
v -1.063723 0.441414 -0.394877
v -1.087217 0.441414 -0.387244
v -1.101737 0.441414 -0.407229
v -1.087217 0.441414 -0.427214
v -1.063723 0.441414 -0.419581
v -1.074229 0.464239 -0.387244
v -1.097723 0.464239 -0.394877
v -1.097723 0.464239 -0.419581
v -1.074229 0.464239 -0.427214
v -1.059709 0.464239 -0.407229
v -1.080723 0.478345 -0.407229
v -0.955422 0.427307 -0.407229
v -0.938421 0.441414 -0.394877
v -0.961915 0.441414 -0.387244
v -0.976435 0.441414 -0.407229
v -0.961915 0.441414 -0.427214
v -0.938421 0.441414 -0.419581
v -0.948928 0.464239 -0.387244
v -0.972422 0.464239 -0.394877
v -0.972422 0.464239 -0.419581
v -0.948928 0.464239 -0.427214
v -0.934408 0.464239 -0.407229
v -0.955422 0.478345 -0.407229
v -1.018072 0.455222 0.184606
v -1.018072 0.531343 0.370082
v -0.923122 0.398732 0.201942
v -0.916340 0.470818 0.388655
v -0.923122 0.285753 0.236612
v -0.916340 0.349770 0.425802
v -1.018072 0.232734 0.280791
v -1.018072 0.289245 0.444376
v -1.113022 0.285753 0.236612
v -1.119804 0.349770 0.425802
v -1.113022 0.398732 0.201942
v -1.119804 0.470818 0.388655
v -1.018072 0.517942 0.344162
v -1.018072 0.593973 0.541678
v -0.916340 0.464118 0.375695
v -0.957034 0.561679 0.560598
v -0.916340 0.356469 0.438762
v -0.957034 0.497090 0.598438
v -1.018072 0.302646 0.470295
v -1.018072 0.464795 0.617358
v -1.119804 0.356469 0.438762
v -1.079111 0.497090 0.598438
v -1.119804 0.464118 0.375695
v -1.079111 0.561679 0.560598
v -1.018072 0.478345 0.626506
v -0.961404 0.525368 0.667678
v -1.039717 0.525368 0.693123
v -1.088117 0.525368 0.626506
v -1.039717 0.525368 0.559889
v -0.961404 0.525368 0.585334
v -0.996427 0.601452 0.693123
v -1.074741 0.601452 0.667678
v -1.074741 0.601452 0.585334
v -0.996427 0.601452 0.559889
v -0.948027 0.601452 0.626506
v -1.018072 0.648474 0.626506
v -1.030794 0.491050 0.665663
v -0.984764 0.491050 0.650706
v -0.997486 0.518688 0.689862
v -0.951455 0.518688 0.626506
v -0.984764 0.491050 0.602306
v -1.059244 0.491050 0.626506
v -1.071967 0.518688 0.665663
v -1.030794 0.491050 0.587349
v -1.071967 0.518688 0.587349
v -0.997486 0.518688 0.563150
v -0.943592 0.563410 0.650706
v -0.943592 0.563410 0.602306
v -1.018072 0.563410 0.704819
v -0.972041 0.563410 0.689863
v -1.092553 0.563410 0.650706
v -1.064103 0.563410 0.689863
v -1.064103 0.563410 0.563149
v -1.092553 0.563410 0.602306
v -0.972041 0.563410 0.563149
v -1.018072 0.563410 0.548193
v -0.964178 0.608131 0.665663
v -1.038659 0.608131 0.689862
v -1.084689 0.608131 0.626506
v -1.038658 0.608131 0.563150
v -0.964178 0.608131 0.587349
v -1.005350 0.635770 0.665663
v -0.976901 0.635770 0.626506
v -1.051381 0.635770 0.650706
v -1.051381 0.635770 0.602306
v -1.005350 0.635770 0.587349
vn -0.000000 -0.823800 -0.566900
vn -0.000000 0.412600 -0.910900
vn 0.575600 0.457200 -0.678000
vn 0.503600 -0.763200 -0.405000
vn 0.795200 0.596800 -0.107100
vn 0.795200 -0.596800 0.107100
vn 0.503600 0.763200 0.405000
vn 0.575600 -0.457200 0.678000
vn -0.000000 0.823800 0.566900
vn -0.000000 -0.412600 0.910900
vn -0.503600 0.763200 0.405000
vn -0.575600 -0.457200 0.678000
vn -0.795200 0.596800 -0.107100
vn -0.795200 -0.596800 0.107100
vn -0.575600 0.457200 -0.678000
vn -0.503600 -0.763200 -0.405000
vn -0.000000 -0.833000 -0.553200
vn -0.000000 0.400500 -0.916300
vn 0.576800 0.446100 -0.684300
vn 0.499800 -0.769900 -0.396700
vn 0.797500 0.592700 -0.113200
vn 0.797500 -0.592700 0.113200
vn 0.499800 0.769900 0.396700
vn 0.576800 -0.446100 0.684300
vn -0.000000 0.833000 0.553200
vn -0.000000 -0.400500 0.916300
vn -0.499800 0.769900 0.396700
vn -0.576800 -0.446100 0.684300
vn -0.797500 0.592700 -0.113200
vn -0.797500 -0.592700 0.113200
vn -0.576800 0.446100 -0.684300
vn -0.499800 -0.769900 -0.396700
vn 0.001300 -1.000000 0.004600
vn 0.204900 -0.973500 0.101400
vn -0.080700 -0.982600 0.167400
vn 0.835000 -0.400900 0.376800
vn 0.696200 -0.637400 0.330200
vn 0.854100 -0.484300 0.189800
vn -0.239200 -0.970900 0.005800
vn -0.067000 -0.989600 -0.127500
vn 0.183200 -0.979800 -0.080400
vn 0.925800 -0.235800 0.295400
vn -0.419200 -0.402600 0.813700
vn -0.040100 -0.469600 0.882000
vn -0.233200 -0.275600 0.932600
vn -0.878400 -0.477900 -0.006800
vn -0.855700 -0.492600 0.158800
vn -0.965100 -0.244000 0.095100
vn -0.304900 -0.739900 -0.599600
vn -0.494800 -0.745500 -0.446600
vn -0.571800 -0.396800 -0.718100
vn 0.718000 -0.610000 -0.335100
vn 0.517800 -0.734500 -0.438600
vn 0.783600 -0.355000 -0.509800
vn 0.821300 -0.239200 0.518000
vn -0.601300 -0.257400 0.756400
vn -0.957400 -0.269700 -0.103000
vn -0.208700 -0.440400 -0.873200
vn 0.908100 -0.298600 -0.293500
vn 0.362700 0.599400 0.713600
vn 0.582100 0.610000 0.537700
vn 0.272500 0.800100 0.534400
vn -0.787500 0.497200 0.364300
vn -0.613000 0.600400 0.513600
vn -0.634700 0.715100 0.292700
vn -0.787500 0.497200 -0.364300
vn -0.830800 0.524500 -0.186300
vn -0.634700 0.715100 -0.292700
vn 0.362700 0.599400 -0.713600
vn 0.025400 0.678900 -0.733700
vn 0.272500 0.800100 -0.534400
vn 0.891300 0.453500 0.000000
vn 0.839300 0.519900 -0.158900
vn 0.739000 0.673700 0.000000
vn 0.256500 0.966500 0.000000
vn 0.078600 0.984600 -0.156400
vn -0.001600 1.000000 0.000000
vn 0.517600 0.855600 0.000000
vn 0.369700 0.913300 -0.171100
vn 0.638000 0.750500 -0.172100
vn 0.172200 0.924900 -0.339100
vn 0.483800 0.799500 -0.356000
vn 0.741000 0.577200 -0.343100
vn 0.582100 0.610000 -0.537700
vn -0.208100 0.973300 -0.096900
vn -0.146500 0.946700 -0.287000
vn -0.068700 0.859500 -0.506400
vn -0.430600 0.880300 -0.199200
vn -0.391200 0.821400 -0.415000
vn -0.332500 0.676600 -0.657000
vn -0.613000 0.600400 -0.513600
vn -0.208100 0.973300 0.096900
vn -0.447500 0.894300 0.000000
vn -0.665400 0.740000 -0.098000
vn -0.430600 0.880300 0.199200
vn -0.665400 0.740000 0.098000
vn -0.845600 0.533800 0.000000
vn -0.830800 0.524500 0.186300
vn 0.078600 0.984600 0.156400
vn -0.146500 0.946700 0.287000
vn -0.391200 0.821400 0.415000
vn 0.172200 0.924900 0.339100
vn -0.068700 0.859500 0.506400
vn -0.332500 0.676600 0.657000
vn 0.025400 0.678900 0.733700
vn 0.369600 0.913300 0.171100
vn 0.483800 0.799500 0.356000
vn 0.638000 0.750500 0.172100
vn 0.741000 0.577200 0.343100
vn 0.839300 0.519900 0.158900
vn 0.963200 0.249800 -0.098900
vn 0.979300 0.000300 -0.202600
vn 0.909900 0.294500 -0.292200
vn 0.907000 0.010100 -0.421100
vn 0.793900 0.325800 -0.513400
vn 0.748300 -0.001000 -0.663300
vn 0.587700 0.329100 -0.739100
vn 0.219900 0.363100 -0.905400
vn -0.000000 -0.000000 -1.000000
vn -0.210800 0.400800 -0.891600
vn -0.447100 0.013100 -0.894400
vn -0.580700 0.366200 -0.727100
vn -0.748300 0.000900 -0.663300
vn -0.804500 0.293000 -0.516600
vn -0.918500 0.262600 -0.295600
vn -0.979300 -0.000300 -0.202600
vn -0.954900 0.279800 -0.099100
vn -1.000000 0.009100 0.000000
vn -0.954900 0.279800 0.099100
vn -0.979300 -0.000300 0.202600
vn -0.918500 0.262600 0.295600
vn -0.804500 0.293000 0.516600
vn -0.748300 0.000900 0.663300
vn -0.580700 0.366200 0.727100
vn -0.447100 0.013100 0.894400
vn -0.210800 0.400800 0.891600
vn -0.000000 -0.000000 1.000000
vn 0.219900 0.363100 0.905400
vn 0.587700 0.329100 0.739100
vn 0.748300 -0.001000 0.663300
vn 0.793900 0.325800 0.513400
vn 0.907000 0.010100 0.421100
vn 0.909900 0.294500 0.292200
vn 0.979300 0.000300 0.202600
vn 0.963200 0.249800 0.098900
vn 0.447100 -0.013100 -0.894400
vn 0.553100 -0.453600 -0.698800
vn 0.196800 -0.491800 -0.848200
vn 0.266600 -0.812600 -0.518300
vn -0.009200 -0.817600 -0.575800
vn -0.907000 -0.010100 -0.421100
vn -0.766500 -0.398300 -0.503800
vn -0.891800 -0.345000 -0.292700
vn -0.657700 -0.689700 -0.302900
vn -0.791600 -0.591400 -0.153300
vn -0.907000 -0.010100 0.421100
vn -0.921200 -0.260200 0.289200
vn -0.814900 -0.259400 0.518300
vn -0.794500 -0.483300 0.367800
vn -0.652100 -0.451800 0.608800
vn 0.447100 -0.013100 0.894400
vn 0.224300 -0.289200 0.930600
vn 0.606100 -0.271900 0.747500
vn 0.391900 -0.485300 0.781600
vn 0.687400 -0.451400 0.568900
vn 1.000000 -0.009100 0.000000
vn 0.957000 -0.274700 0.093800
vn 0.947200 -0.303600 -0.103600
vn 0.829500 -0.558500 -0.000100
vn 0.777700 -0.604200 -0.173600
vn 0.536000 -0.809200 -0.240700
vn 0.366300 -0.916100 -0.163300
vn 0.305300 -0.898400 -0.315800
vn 0.117400 -0.967600 -0.223600
vn 0.051100 -0.929000 -0.366600
vn -0.135900 -0.956100 -0.259600
vn -0.203700 -0.898100 -0.389800
vn -0.389300 -0.877800 -0.279100
vn -0.316900 -0.938000 -0.140300
vn -0.564100 -0.812600 -0.146300
vn -0.490100 -0.871700 0.006200
vn -0.713800 -0.700400 0.005200
vn -0.664300 -0.724100 0.185200
vn -0.384000 -0.904500 0.185400
vn -0.553300 -0.720700 0.417600
vn -0.198100 -0.893400 0.403200
vn -0.337500 -0.647400 0.683300
vn 0.609600 -0.788200 -0.084700
vn 0.668200 -0.736600 0.104400
vn 0.421000 -0.907000 0.005800
vn 0.453700 -0.864000 0.218500
vn 0.085900 -0.749900 0.655900
vn 0.163400 -0.929100 0.331800
vn 0.462500 -0.728300 0.505600
vn 0.000100 -0.999200 0.039100
vn 0.411300 -0.837200 0.360500
vn -0.167300 -0.791800 0.587500
vn 0.770900 -0.271400 0.576300
vn 0.802300 -0.596000 0.032400
vn -0.448300 -0.892600 0.048400
vn -0.112900 -0.942700 -0.313900
vn 0.318900 -0.927900 -0.193300
vn 0.956600 0.088600 0.277500
vn -0.308000 -0.092200 0.946900
vn 0.294800 -0.232600 0.926800
vn 0.007300 0.385600 0.922600
vn -0.852700 -0.521500 0.029700
vn -0.734300 -0.381900 0.561200
vn -0.953900 0.103900 0.281700
vn -0.201000 -0.780000 -0.592600
vn -0.548100 -0.750000 -0.370200
vn -0.554700 -0.263700 -0.789200
vn 0.588400 -0.703800 -0.398100
vn 0.186700 -0.813500 -0.550700
vn 0.569300 -0.264500 -0.778400
vn 0.569900 0.312700 0.759900
vn -0.582300 0.301300 0.755100
vn -0.938600 -0.129300 -0.320000
vn -0.011100 -0.309200 -0.950900
vn 0.936900 -0.122200 -0.327700
vn 0.253100 0.595700 0.762300
vn 0.634800 0.628000 0.450100
vn 0.142800 0.886800 0.439600
vn -0.676700 0.563400 0.473900
vn -0.237500 0.652100 0.720000
vn -0.373900 0.886800 0.271700
vn -0.714000 0.446800 -0.539000
vn -0.810300 0.585900 -0.011100
vn -0.373900 0.886800 -0.271700
vn 0.275900 0.408900 -0.869900
vn -0.262500 0.511200 -0.818400
vn 0.142800 0.886800 -0.439600
vn 0.861800 0.506900 -0.019200
vn 0.675500 0.540500 -0.501600
vn 0.462200 0.886800 0.000000
vn -0.000000 1.000000 0.000000
vn -0.000000 -0.999700 0.023100
vn 0.447400 -0.833800 0.323500
vn -0.171700 -0.832500 0.526800
vn 0.732900 -0.423400 0.532500
vn 0.865100 -0.501700 0.000000
vn -0.549200 -0.835700 -0.001500
vn -0.168000 -0.838500 -0.518400
vn 0.441500 -0.837500 -0.322100
vn 0.951100 -0.000000 0.309000
vn -0.279900 -0.423400 0.861600
vn 0.267300 -0.501700 0.822700
vn -0.905900 -0.423400 0.000000
vn -0.699800 -0.501700 0.508500
vn -0.951100 -0.000000 0.309000
vn -0.279900 -0.423400 -0.861600
vn -0.699800 -0.501700 -0.508500
vn -0.587800 -0.000000 -0.809000
vn 0.732900 -0.423400 -0.532500
vn 0.267300 -0.501700 -0.822700
vn 0.587800 -0.000000 -0.809000
vn 0.587800 -0.000000 0.809000
vn -0.587800 -0.000000 0.809000
vn -0.951100 -0.000000 -0.309000
vn 0.951100 -0.000000 -0.309000
vn 0.279900 0.423400 0.861600
vn 0.699800 0.501700 0.508500
vn 0.170400 0.834300 0.524300
vn -0.732900 0.423400 0.532500
vn -0.267300 0.501700 0.822700
vn -0.446000 0.834300 0.324000
vn -0.732900 0.423400 -0.532500
vn -0.865100 0.501700 0.000000
vn -0.446000 0.834300 -0.324000
vn 0.279900 0.423400 -0.861600
vn -0.267300 0.501700 -0.822700
vn 0.170400 0.834300 -0.524300
vn 0.905900 0.423400 0.000000
vn 0.699800 0.501700 -0.508500
vn 0.551300 0.834300 0.000000
vn -0.000000 -0.879800 0.475300
vn -0.000000 -0.662200 -0.749400
vn 0.530900 -0.395900 -0.749300
vn 0.693200 -0.530700 0.487700
vn 0.647700 0.138100 -0.749300
vn 0.849200 0.185800 0.494200
vn 0.302800 0.588900 -0.749300
vn 0.392900 0.784800 0.479200
vn -0.302800 0.588900 -0.749300
vn -0.392900 0.784800 0.479200
vn -0.647700 0.138100 -0.749300
vn -0.849200 0.185800 0.494200
vn -0.530900 -0.396000 -0.749300
vn -0.693200 -0.530700 0.487700
vn -0.000000 -1.000000 0.000000
vn 0.727700 -0.436900 0.528700
vn -0.278000 -0.436900 0.855500
vn 0.727700 -0.436900 -0.528700
vn -0.899500 -0.436900 0.000000
vn -0.278000 -0.436900 -0.855500
vn 0.899500 0.436900 0.000000
vn 0.278000 0.436900 0.855500
vn -0.727700 0.436900 0.528700
vn -0.727700 0.436900 -0.528700
vn 0.278000 0.436900 -0.855500
vn 0.085400 -0.518100 -0.851000
vn 0.069300 0.719900 -0.690600
vn 0.583200 0.719800 -0.376400
vn 0.718600 -0.518100 -0.463900
vn 0.657900 0.719900 0.221200
vn 0.810700 -0.518100 0.272600
vn 0.237200 0.719900 0.652300
vn 0.292300 -0.518100 0.803800
vn -0.362100 0.719800 0.592200
vn -0.446200 -0.518100 0.729700
vn -0.688700 0.719900 0.086100
vn -0.848700 -0.518100 0.106100
vn -0.496800 0.719800 -0.484800
vn -0.612100 -0.518100 -0.597400
vn 0.084700 -0.529300 -0.844200
vn 0.070300 0.709600 -0.701100
vn 0.591900 0.709700 -0.382100
vn 0.712800 -0.529200 -0.460200
vn 0.667900 0.709600 0.224600
vn 0.804200 -0.529300 0.270400
vn 0.240800 0.709700 0.662100
vn 0.290000 -0.529300 0.797400
vn -0.367500 0.709700 0.601100
vn -0.442600 -0.529300 0.723900
vn -0.699100 0.709600 0.087400
vn -0.841900 -0.529200 0.105300
vn -0.504200 0.709700 -0.492100
vn -0.607200 -0.529200 -0.592600
vn -0.085400 -0.518100 -0.851000
vn -0.069300 0.719900 -0.690600
vn 0.496800 0.719800 -0.484800
vn 0.612100 -0.518100 -0.597400
vn 0.688700 0.719900 0.086100
vn 0.848700 -0.518100 0.106100
vn 0.362100 0.719800 0.592200
vn 0.446200 -0.518100 0.729700
vn -0.237200 0.719900 0.652300
vn -0.292300 -0.518100 0.803800
vn -0.657900 0.719900 0.221200
vn -0.810700 -0.518100 0.272600
vn -0.583200 0.719800 -0.376400
vn -0.718600 -0.518100 -0.463900
vn -0.084700 -0.529300 -0.844200
vn -0.070300 0.709600 -0.701100
vn 0.504200 0.709700 -0.492100
vn 0.607200 -0.529200 -0.592600
vn 0.699100 0.709600 0.087400
vn 0.841900 -0.529200 0.105300
vn 0.367500 0.709700 0.601100
vn 0.442600 -0.529300 0.723900
vn -0.240800 0.709700 0.662100
vn -0.290000 -0.529300 0.797400
vn -0.667900 0.709600 0.224600
vn -0.804200 -0.529300 0.270400
vn -0.591900 0.709700 -0.382100
vn -0.712900 -0.529200 -0.460100
vn -0.000000 0.524800 -0.851200
vn -0.000000 0.952400 0.304700
vn 0.701700 0.557200 0.444100
vn 0.691000 0.123100 -0.712300
vn 0.702800 -0.176300 0.689200
vn 0.670600 -0.555000 -0.492200
vn -0.000000 -0.573200 0.819400
vn -0.000000 -0.973800 -0.227400
vn -0.702800 -0.176300 0.689200
vn -0.670600 -0.555000 -0.492200
vn -0.701700 0.557200 0.444100
vn -0.691000 0.123100 -0.712300
vn -0.000000 0.448200 -0.893900
vn -0.000000 0.980100 0.198400
vn 0.631600 0.663300 0.401500
vn 0.741000 0.072000 -0.667600
vn 0.626100 0.072500 0.776400
vn 0.740600 -0.633900 -0.222800
vn -0.000000 -0.237800 0.971300
vn -0.000000 -0.999900 0.017300
vn -0.626100 0.072500 0.776400
vn -0.740600 -0.633900 -0.222800
vn -0.631600 0.663300 0.401500
vn -0.741000 0.072000 -0.667600
vn 0.446000 -0.834300 0.324000
vn -0.170300 -0.834300 0.524300
vn -0.551300 -0.834300 0.000000
vn -0.170300 -0.834300 -0.524300
vn 0.446000 -0.834300 -0.324000
vt 0.812550 0.768841
vt 0.812550 0.642090
vt 0.821660 0.642732
vt 0.821660 0.769482
vt 0.121553 0.631551
vt 0.121553 0.538877
vt 0.130879 0.540570
vt 0.130879 0.633244
vt 0.911000 0.883821
vt 0.911000 0.794404
vt 0.920441 0.795798
vt 0.920441 0.885214
vt 0.846360 0.768410
vt 0.846360 0.642090
vt 0.855022 0.643018
vt 0.855022 0.769338
vt 0.864131 0.642327
vt 0.864131 0.768647
vt 0.672308 0.830695
vt 0.682264 0.742203
vt 0.691674 0.741288
vt 0.681718 0.829780
vt 0.768624 0.405803
vt 0.769900 0.412561
vt 0.764066 0.417642
vt 0.754539 0.418070
vt 0.746899 0.413594
vt 0.745623 0.406836
vt 0.751458 0.401755
vt 0.760985 0.401327
vt 0.745623 0.510189
vt 0.755151 0.509761
vt 0.803890 0.769704
vt 0.803890 0.642954
vt 0.691674 0.841038
vt 0.686388 0.846617
vt 0.676978 0.847532
vt 0.668956 0.843248
vt 0.667022 0.836274
vt 0.689739 0.834064
vt 0.922969 0.511465
vt 0.922969 0.469215
vt 0.932860 0.469912
vt 0.932860 0.512162
vt 0.947707 0.313151
vt 0.947707 0.282260
vt 0.957832 0.284098
vt 0.957832 0.314989
vt 0.957560 0.499020
vt 0.957560 0.469215
vt 0.967810 0.470728
vt 0.967810 0.500533
vt 0.803890 0.933425
vt 0.803890 0.891319
vt 0.813294 0.892326
vt 0.813294 0.934433
vt 0.823184 0.891576
vt 0.823184 0.933683
vt 0.449860 0.902493
vt 0.458339 0.874046
vt 0.468570 0.874874
vt 0.460091 0.903320
vt 0.691868 0.879454
vt 0.692103 0.886917
vt 0.684993 0.891388
vt 0.674701 0.890250
vt 0.667257 0.884167
vt 0.667022 0.876704
vt 0.674132 0.872232
vt 0.684424 0.873371
vt 0.667022 0.920128
vt 0.677313 0.921267
vt 0.913567 0.512403
vt 0.913567 0.470152
vt 0.468570 0.917262
vt 0.461851 0.922209
vt 0.451620 0.921382
vt 0.443870 0.915264
vt 0.443141 0.907440
vt 0.467841 0.909438
vt 0.803261 0.528078
vt 0.803261 0.401327
vt 0.812371 0.401969
vt 0.812371 0.528720
vt 0.879541 0.494002
vt 0.879541 0.401327
vt 0.888866 0.403020
vt 0.888866 0.495695
vt 0.902031 0.183237
vt 0.902031 0.093820
vt 0.911472 0.095214
vt 0.911472 0.184630
vt 0.859561 0.220140
vt 0.859561 0.093820
vt 0.868223 0.094748
vt 0.868223 0.221068
vt 0.877331 0.094058
vt 0.877331 0.220378
vt 0.497779 0.832509
vt 0.507735 0.744017
vt 0.517145 0.743101
vt 0.507189 0.831594
vt 0.256333 0.667469
vt 0.257609 0.674227
vt 0.251775 0.679308
vt 0.242248 0.679736
vt 0.234609 0.675260
vt 0.233332 0.668502
vt 0.239167 0.663421
vt 0.248694 0.662993
vt 0.233332 0.771854
vt 0.242860 0.771427
vt 0.794600 0.528941
vt 0.794600 0.402191
vt 0.517145 0.842852
vt 0.511858 0.848431
vt 0.502448 0.849346
vt 0.494427 0.845062
vt 0.492493 0.838087
vt 0.515210 0.835878
vt 0.389751 0.924719
vt 0.389751 0.882469
vt 0.399642 0.883165
vt 0.399642 0.925416
vt 0.947707 0.370581
vt 0.947707 0.339689
vt 0.957832 0.341527
vt 0.957832 0.372419
vt 0.334932 0.972542
vt 0.334932 0.942737
vt 0.345182 0.944250
vt 0.345182 0.974055
vt 0.233332 0.936747
vt 0.233332 0.894640
vt 0.242737 0.895647
vt 0.242737 0.937754
vt 0.252626 0.894898
vt 0.252626 0.937005
vt 0.085679 0.903970
vt 0.094158 0.875523
vt 0.104389 0.876350
vt 0.095911 0.904797
vt 0.324828 0.876223
vt 0.325064 0.883686
vt 0.317953 0.888158
vt 0.307662 0.887019
vt 0.300218 0.880937
vt 0.299982 0.873474
vt 0.307093 0.869002
vt 0.317384 0.870141
vt 0.299982 0.916898
vt 0.310274 0.918037
vt 0.380349 0.925657
vt 0.380349 0.883406
vt 0.104389 0.918739
vt 0.097670 0.923686
vt 0.087439 0.922858
vt 0.079689 0.916741
vt 0.078960 0.908917
vt 0.103661 0.910915
vt 0.825751 0.220571
vt 0.825751 0.093820
vt 0.834861 0.094462
vt 0.834861 0.221213
vt 0.408977 0.631886
vt 0.408977 0.539212
vt 0.418303 0.540905
vt 0.418303 0.633579
vt 0.913567 0.371676
vt 0.913567 0.282260
vt 0.923007 0.283653
vt 0.923007 0.373069
vt 0.607399 0.872270
vt 0.607399 0.745950
vt 0.616061 0.746877
vt 0.616061 0.873197
vt 0.625170 0.746187
vt 0.625170 0.872507
vt 0.563333 0.835357
vt 0.573289 0.746865
vt 0.582699 0.745950
vt 0.572743 0.834442
vt 0.128346 0.666388
vt 0.129622 0.673145
vt 0.123788 0.678227
vt 0.114261 0.678654
vt 0.106621 0.674179
vt 0.105345 0.667421
vt 0.111180 0.662340
vt 0.120707 0.661912
vt 0.105345 0.770773
vt 0.114872 0.770345
vt 0.817090 0.221435
vt 0.817090 0.094684
vt 0.582699 0.845701
vt 0.577413 0.851279
vt 0.568003 0.852195
vt 0.559981 0.847910
vt 0.558047 0.840936
vt 0.580765 0.838726
vt 0.922969 0.443577
vt 0.922969 0.401327
vt 0.932860 0.402024
vt 0.932860 0.444274
vt 0.957560 0.432219
vt 0.957560 0.401327
vt 0.967685 0.403165
vt 0.967685 0.434057
vt 0.965582 0.739709
vt 0.965582 0.709904
vt 0.975832 0.711417
vt 0.975832 0.741222
vt 0.922972 0.684197
vt 0.922972 0.642090
vt 0.932376 0.643097
vt 0.932376 0.685204
vt 0.942266 0.642348
vt 0.942266 0.684454
vt 0.563989 0.905341
vt 0.572468 0.876894
vt 0.582699 0.877722
vt 0.574220 0.906169
vt 0.917675 0.566767
vt 0.917911 0.574230
vt 0.910800 0.578702
vt 0.900509 0.577563
vt 0.893065 0.571481
vt 0.892829 0.564018
vt 0.899940 0.559546
vt 0.910231 0.560685
vt 0.892829 0.607442
vt 0.903121 0.608581
vt 0.913567 0.444515
vt 0.913567 0.402265
vt 0.582699 0.920110
vt 0.575980 0.925057
vt 0.565748 0.924230
vt 0.557998 0.918113
vt 0.557270 0.910289
vt 0.581970 0.912286
vt 0.845731 0.528078
vt 0.845731 0.401327
vt 0.854841 0.401969
vt 0.854841 0.528720
vt 0.879541 0.374934
vt 0.879541 0.282260
vt 0.888866 0.283953
vt 0.888866 0.376627
vt 0.888831 0.731506
vt 0.888831 0.642090
vt 0.898272 0.643483
vt 0.898272 0.732900
vt 0.837071 0.375700
vt 0.837071 0.249380
vt 0.845733 0.250307
vt 0.845733 0.376627
vt 0.854842 0.249617
vt 0.854842 0.375937
vt 0.448427 0.832509
vt 0.458383 0.744017
vt 0.467793 0.743101
vt 0.457837 0.831594
vt 0.777913 0.646566
vt 0.779190 0.653324
vt 0.773355 0.658405
vt 0.763828 0.658833
vt 0.756189 0.654357
vt 0.754913 0.647599
vt 0.760747 0.642518
vt 0.770274 0.642090
vt 0.754913 0.750951
vt 0.764440 0.750523
vt 0.837071 0.528941
vt 0.837071 0.402191
vt 0.467793 0.842852
vt 0.462507 0.848431
vt 0.453097 0.849346
vt 0.445075 0.845062
vt 0.443141 0.838087
vt 0.465858 0.835878
vt 0.873856 0.932925
vt 0.873856 0.890674
vt 0.883746 0.891371
vt 0.883746 0.933621
vt 0.955371 0.940806
vt 0.955371 0.909914
vt 0.965496 0.911752
vt 0.965496 0.942644
vt 0.299982 0.972542
vt 0.299982 0.942737
vt 0.310232 0.944250
vt 0.310232 0.974055
vt 0.607399 0.940004
vt 0.607399 0.897898
vt 0.616803 0.898905
vt 0.616803 0.941011
vt 0.626693 0.898155
vt 0.626693 0.940262
vt 0.499990 0.902493
vt 0.508469 0.874046
vt 0.518700 0.874873
vt 0.510221 0.903320
vt 0.768643 0.881178
vt 0.768879 0.888641
vt 0.761768 0.893113
vt 0.751476 0.891974
vt 0.744033 0.885892
vt 0.743797 0.878429
vt 0.750908 0.873957
vt 0.761199 0.875096
vt 0.743797 0.921853
vt 0.754089 0.922992
vt 0.864453 0.933862
vt 0.864453 0.891612
vt 0.518700 0.917262
vt 0.511981 0.922209
vt 0.501749 0.921382
vt 0.493999 0.915264
vt 0.493270 0.907440
vt 0.517971 0.909438
vt 0.128464 0.146887
vt 0.113964 0.128012
vt 0.131649 0.113342
vt 0.053519 0.076399
vt 0.071876 0.088427
vt 0.050832 0.109059
vt 0.303044 0.133344
vt 0.309628 0.100653
vt 0.320534 0.134316
vt 0.309628 0.166450
vt 0.131649 0.178751
vt 0.113964 0.168436
vt 0.034468 0.087349
vt 0.168633 0.508012
vt 0.156349 0.489999
vt 0.175118 0.492983
vt 0.388697 0.134958
vt 0.381780 0.102012
vt 0.403049 0.114074
vt 0.349857 0.249399
vt 0.359968 0.232078
vt 0.370331 0.251141
vt 0.053519 0.220366
vt 0.068517 0.240648
vt 0.045398 0.239982
vt 0.045398 0.053298
vt 0.187084 0.515021
vt 0.403049 0.154738
vt 0.066949 0.382510
vt 0.046846 0.386614
vt 0.056443 0.365051
vt 0.034468 0.208623
vt 0.349850 0.277616
vt 0.359378 0.294488
vt 0.335572 0.295178
vt 0.197801 0.053227
vt 0.212513 0.033069
vt 0.216324 0.063944
vt 0.197801 0.197096
vt 0.195400 0.164404
vt 0.216324 0.185135
vt 0.349850 0.511450
vt 0.331852 0.514512
vt 0.335572 0.492153
vt 0.387294 0.390781
vt 0.380406 0.423698
vt 0.367114 0.390505
vt 0.319502 0.391883
vt 0.308988 0.425766
vt 0.302512 0.393235
vt 0.342629 0.390848
vt 0.330275 0.427736
vt 0.356474 0.426978
vt 0.320620 0.461774
vt 0.344903 0.464266
vt 0.370454 0.460332
vt 0.359378 0.491464
vt 0.275282 0.160628
vt 0.258170 0.145804
vt 0.272316 0.127060
vt 0.299982 0.453100
vt 0.314610 0.489631
vt 0.258085 0.184893
vt 0.238178 0.166913
vt 0.273999 0.197945
vt 0.253891 0.222850
vt 0.235059 0.206536
vt 0.246737 0.249274
vt 0.230200 0.239112
vt 0.212513 0.219625
vt 0.258170 0.105407
vt 0.239253 0.124121
vt 0.216226 0.145763
vt 0.238178 0.082349
vt 0.216226 0.101306
vt 0.194379 0.123515
vt 0.195400 0.083610
vt 0.275282 0.095264
vt 0.258085 0.068501
vt 0.235059 0.045685
vt 0.299982 0.336185
vt 0.320620 0.324331
vt 0.308988 0.360108
vt 0.253891 0.034523
vt 0.273999 0.061117
vt 0.314610 0.300456
vt 0.230200 0.017719
vt 0.237415 0.478051
vt 0.224556 0.455622
vt 0.248170 0.454951
vt 0.233392 0.434222
vt 0.213116 0.437498
vt 0.330275 0.355478
vt 0.344903 0.319750
vt 0.356474 0.354720
vt 0.370454 0.322889
vt 0.380406 0.358040
vt 0.401914 0.411748
vt 0.415476 0.435317
vt 0.394772 0.450357
vt 0.024379 0.226195
vt 0.015433 0.189127
vt 0.406870 0.474494
vt 0.383201 0.487646
vt 0.100832 0.304356
vt 0.076513 0.300990
vt 0.092428 0.286139
vt 0.393467 0.506245
vt 0.370372 0.513397
vt 0.037177 0.322282
vt 0.017948 0.322460
vt 0.032643 0.306352
vt 0.045539 0.343341
vt 0.022911 0.343162
vt 0.033512 0.366696
vt 0.224079 0.261451
vt 0.012350 0.366892
vt 0.205246 0.245137
vt 0.025451 0.388479
vt 0.181471 0.240336
vt 0.189234 0.220210
vt 0.178658 0.186081
vt 0.159332 0.168892
vt 0.174774 0.146804
vt 0.419152 0.133540
vt 0.416076 0.175886
vt 0.156349 0.126202
vt 0.174774 0.102346
vt 0.416076 0.090762
vt 0.159332 0.084328
vt 0.178658 0.064889
vt 0.189234 0.033653
vt 0.211269 0.519499
vt 0.224699 0.500293
vt 0.235999 0.519499
vt 0.197784 0.497829
vt 0.205246 0.012350
vt 0.248489 0.499699
vt 0.211530 0.476039
vt 0.186219 0.473365
vt 0.200099 0.453383
vt 0.193820 0.430599
vt 0.214396 0.418757
vt 0.393467 0.283855
vt 0.383201 0.298470
vt 0.370372 0.275842
vt 0.024379 0.065234
vt 0.038313 0.033227
vt 0.406870 0.312919
vt 0.394772 0.333440
vt 0.015433 0.104506
vt 0.415476 0.350372
vt 0.401914 0.371170
vt 0.051973 0.302050
vt 0.060357 0.320700
vt 0.087242 0.321969
vt 0.070958 0.344234
vt 0.061851 0.261439
vt 0.110465 0.325741
vt 0.096678 0.345755
vt 0.080872 0.366204
vt 0.167988 0.208220
vt 0.383743 0.228041
vt 0.393247 0.243154
vt 0.407150 0.213657
vt 0.395745 0.192677
vt 0.371554 0.203247
vt 0.381780 0.167809
vt 0.167988 0.047369
vt 0.395745 0.075512
vt 0.181471 0.018942
vt 0.407150 0.051739
vt 0.383743 0.038465
vt 0.393247 0.020293
vt 0.370331 0.013083
vt 0.371554 0.065512
vt 0.359968 0.034685
vt 0.349857 0.015070
vt 0.177705 0.448501
vt 0.163959 0.470291
vt 0.173075 0.425671
vt 0.157049 0.445217
vt 0.061851 0.028494
vt 0.103888 0.024625
vt 0.086710 0.034623
vt 0.081314 0.012350
vt 0.068517 0.053965
vt 0.418441 0.392547
vt 0.030360 0.126601
vt 0.012350 0.147196
vt 0.030360 0.171089
vt 0.049689 0.149953
vt 0.050832 0.189908
vt 0.071876 0.209701
vt 0.093741 0.191384
vt 0.090992 0.228115
vt 0.114151 0.205409
vt 0.086710 0.256165
vt 0.110454 0.239466
vt 0.103897 0.370018
vt 0.321208 0.202298
vt 0.299982 0.190873
vt 0.314448 0.226735
vt 0.335917 0.231624
vt 0.086374 0.388479
vt 0.345870 0.206562
vt 0.331404 0.170700
vt 0.357872 0.171198
vt 0.344038 0.135032
vt 0.368636 0.135222
vt 0.357873 0.098787
vt 0.331404 0.098288
vt 0.345870 0.061739
vt 0.321208 0.064564
vt 0.335918 0.034232
vt 0.071529 0.172275
vt 0.071529 0.127787
vt 0.094688 0.149569
vt 0.093741 0.106763
vt 0.331416 0.012350
vt 0.314448 0.037160
vt 0.299982 0.073709
vt 0.110454 0.051011
vt 0.130761 0.076055
vt 0.114151 0.088937
vt 0.090991 0.067155
vt 0.714016 0.320141
vt 0.693140 0.305096
vt 0.716278 0.292032
vt 0.670235 0.293386
vt 0.667406 0.322425
vt 0.559119 0.183979
vt 0.569643 0.157197
vt 0.583912 0.185099
vt 0.569643 0.211000
vt 0.716278 0.345517
vt 0.693140 0.338151
vt 0.648906 0.304345
vt 0.506651 0.688819
vt 0.493328 0.714566
vt 0.484884 0.693427
vt 0.609585 0.185230
vt 0.599307 0.157933
vt 0.624216 0.167779
vt 0.684151 0.665164
vt 0.667022 0.650982
vt 0.690053 0.642090
vt 0.710248 0.713575
vt 0.696596 0.691748
vt 0.723670 0.695740
vt 0.663206 0.275842
vt 0.500306 0.665012
vt 0.624216 0.201031
vt 0.708331 0.667284
vt 0.730213 0.716588
vt 0.585768 0.275842
vt 0.599098 0.292885
vt 0.569825 0.293969
vt 0.670396 0.150807
vt 0.690196 0.137760
vt 0.693319 0.162372
vt 0.670396 0.207006
vt 0.667807 0.177938
vt 0.693319 0.195405
vt 0.585768 0.367183
vt 0.563085 0.366773
vt 0.569825 0.347658
vt 0.609170 0.319167
vt 0.599098 0.346574
vt 0.583580 0.319435
vt 0.559368 0.321011
vt 0.715708 0.208675
vt 0.713800 0.180523
vt 0.690196 0.224242
vt 0.715708 0.155227
vt 0.462877 0.650215
vt 0.473252 0.668847
vt 0.447454 0.678630
vt 0.460624 0.695344
vt 0.624206 0.336797
vt 0.610450 0.365020
vt 0.717127 0.646082
vt 0.730213 0.671955
vt 0.662753 0.224597
vt 0.648916 0.195979
vt 0.648916 0.162947
vt 0.486863 0.647001
vt 0.466274 0.718401
vt 0.443141 0.709256
vt 0.610450 0.278149
vt 0.624206 0.303616
vt 0.609948 0.226932
vt 0.599307 0.211735
vt 0.506651 0.644008
vt 0.609948 0.139877
vt 0.585310 0.137760
vt 0.690544 0.276306
vt 0.648906 0.337400
vt 0.670235 0.349623
vt 0.690544 0.362846
vt 0.671066 0.681672
vt 0.585310 0.229295
vt 0.561951 0.138687
vt 0.590650 0.610748
vt 0.607920 0.585528
vt 0.622726 0.611751
vt 0.621782 0.555351
vt 0.588757 0.552966
vt 0.555038 0.081397
vt 0.558665 0.048266
vt 0.583655 0.073504
vt 0.577135 0.106378
vt 0.562110 0.611751
vt 0.570458 0.585528
vt 0.610018 0.526503
vt 0.042582 0.623127
vt 0.012728 0.609148
vt 0.040742 0.592794
vt 0.615357 0.063233
vt 0.594120 0.037589
vt 0.629524 0.037589
vt 0.329756 0.616545
vt 0.314531 0.637138
vt 0.299982 0.604484
vt 0.384277 0.586338
vt 0.360343 0.603091
vt 0.360343 0.565686
vt 0.642322 0.542710
vt 0.073019 0.610138
vt 0.640939 0.073504
vt 0.328295 0.583441
vt 0.383883 0.558000
vt 0.041940 0.559623
vt 0.026703 0.538877
vt 0.063965 0.539489
vt 0.096853 0.589131
vt 0.072642 0.572811
vt 0.096242 0.556833
vt 0.622616 0.457048
vt 0.589558 0.459132
vt 0.608875 0.426701
vt 0.329755 0.552908
vt 0.299982 0.567079
vt 0.314531 0.539212
vt 0.216488 0.586315
vt 0.195645 0.612310
vt 0.184608 0.576370
vt 0.160296 0.602352
vt 0.156349 0.569372
vt 0.175126 0.630518
vt 0.623915 0.401327
vt 0.591789 0.401873
vt 0.642035 0.433759
vt 0.571438 0.426701
vt 0.558924 0.457048
vt 0.563340 0.401327
vt 0.178201 0.544199
vt 0.213550 0.554157
vt 0.231409 0.612311
vt 0.207097 0.638293
vt 0.643211 0.470552
vt 0.610778 0.486234
vt 0.573341 0.486234
vt 0.012350 0.571821
vt 0.236068 0.544199
vt 0.242475 0.576370
vt 0.634419 0.106378
vt 0.612590 0.095701
vt 0.096853 0.617229
vt 0.604535 0.012350
vt 0.064954 0.637212
vt 0.641025 0.579189
vt 0.572555 0.526503
vt 0.558047 0.555351
vt 0.383882 0.618522
vt 0.351836 0.636277
vt 0.572843 0.020294
vt 0.027692 0.636600
vt 0.355649 0.661838
vt 0.336325 0.744869
vt 0.331862 0.745138
vt 0.325899 0.663636
vt 0.327975 0.744869
vt 0.299982 0.661838
vt 0.411391 0.769136
vt 0.396238 0.857769
vt 0.391581 0.857769
vt 0.380349 0.769136
vt 0.720923 0.404675
vt 0.690737 0.491116
vt 0.687439 0.490614
vt 0.698936 0.401327
vt 0.682786 0.490614
vt 0.667911 0.401327
vt 0.751177 0.372233
vt 0.747537 0.375173
vt 0.742998 0.374239
vt 0.740978 0.370134
vt 0.742998 0.365950
vt 0.747537 0.364837
vt 0.751177 0.367633
vt 0.613725 0.636451
vt 0.586458 0.721097
vt 0.582569 0.721250
vt 0.587795 0.637470
vt 0.578106 0.721097
vt 0.558047 0.636451
vt 0.012350 0.705882
vt 0.019176 0.675454
vt 0.046588 0.661912
vt 0.073944 0.675454
vt 0.080645 0.705882
vt 0.061645 0.730284
vt 0.031251 0.730284
vt 0.864453 0.973515
vt 0.874146 0.967877
vt 0.873984 0.976916
vt 0.864453 0.962172
vt 0.743797 0.958474
vt 0.746939 0.947692
vt 0.754442 0.955269
vt 0.752484 0.965138
vt 0.557270 0.968018
vt 0.557525 0.959572
vt 0.567098 0.964988
vt 0.873984 0.958562
vt 0.718956 0.960372
vt 0.709095 0.964253
vt 0.709399 0.954518
vt 0.757568 0.947692
vt 0.760995 0.958474
vt 0.567098 0.953702
vt 0.684395 0.952636
vt 0.677635 0.955626
vt 0.675711 0.945967
vt 0.718956 0.949071
vt 0.965008 0.985681
vt 0.955371 0.981951
vt 0.965027 0.976199
vt 0.557270 0.949757
vt 0.681073 0.963426
vt 0.670336 0.963426
vt 0.667022 0.952636
vt 0.709095 0.945967
vt 0.955371 0.970618
vt 0.965008 0.967344
vt 0.032375 0.827583
vt 0.030869 0.754984
vt 0.031973 0.755095
vt 0.051691 0.829523
vt 0.864453 0.865975
vt 0.875152 0.794405
vt 0.876401 0.794405
vt 0.886301 0.865975
vt 0.742930 0.094570
vt 0.742930 0.012739
vt 0.743772 0.012710
vt 0.757659 0.094058
vt 0.744966 0.012350
vt 0.778565 0.087762
vt 0.743797 0.834401
vt 0.776406 0.776782
vt 0.777189 0.777532
vt 0.757507 0.847531
vt 0.778900 0.776123
vt 0.779190 0.777003
vt 0.778428 0.777631
vt 0.776668 0.775945
vt 0.777778 0.775651
vt 0.779190 0.849257
vt 0.012350 0.829523
vt 0.029725 0.755095
vt 0.900639 0.059318
vt 0.884849 0.050016
vt 0.878495 0.029113
vt 0.886361 0.012350
vt 0.902525 0.012350
vt 0.914814 0.029113
vt 0.913975 0.050016
vt 0.921013 0.949808
vt 0.920245 0.909914
vt 0.921073 0.909997
vt 0.930671 0.950778
vt 0.945347 0.247463
vt 0.950568 0.209330
vt 0.951504 0.209330
vt 0.956271 0.247463
vt 0.922972 0.754336
vt 0.922972 0.710150
vt 0.923603 0.710147
vt 0.930341 0.754299
vt 0.924507 0.709904
vt 0.940882 0.751463
vt 0.939514 0.044861
vt 0.955268 0.013219
vt 0.955867 0.013769
vt 0.946502 0.051284
vt 0.957128 0.012686
vt 0.957359 0.013342
vt 0.956797 0.013824
vt 0.955451 0.012587
vt 0.956279 0.012350
vt 0.957359 0.051925
vt 0.911000 0.950778
vt 0.919387 0.909997
vt 0.170803 0.929524
vt 0.174617 0.937856
vt 0.171243 0.948245
vt 0.163222 0.952869
vt 0.156593 0.948245
vt 0.156349 0.937856
vt 0.162673 0.929524
vt 0.317968 0.842339
vt 0.324183 0.769838
vt 0.325377 0.769950
vt 0.338865 0.844302
vt 0.803890 0.866619
vt 0.803890 0.795233
vt 0.805124 0.795149
vt 0.825496 0.865151
vt 0.805939 0.794404
vt 0.839753 0.852119
vt 0.380349 0.736697
vt 0.415260 0.661838
vt 0.416435 0.662210
vt 0.400922 0.743213
vt 0.417375 0.662280
vt 0.417375 0.744436
vt 0.243507 0.796934
vt 0.243742 0.797786
vt 0.242931 0.798469
vt 0.241684 0.798469
vt 0.240940 0.797786
vt 0.241259 0.796934
vt 0.242402 0.796554
vt 0.233332 0.869940
vt 0.255156 0.869940
vt 0.299982 0.844302
vt 0.323155 0.769950
vt 0.034983 0.902694
vt 0.019320 0.895602
vt 0.012350 0.875147
vt 0.019320 0.856732
vt 0.034983 0.854223
vt 0.047543 0.869510
vt 0.047543 0.891081
vt 0.945165 0.133664
vt 0.948334 0.093820
vt 0.949230 0.093905
vt 0.955613 0.134646
vt 0.942610 0.598122
vt 0.942610 0.560140
vt 0.943537 0.560093
vt 0.953425 0.597581
vt 0.944158 0.559546
vt 0.960668 0.591193
vt 0.902031 0.250630
vt 0.919051 0.209330
vt 0.919940 0.209584
vt 0.912406 0.253596
vt 0.920647 0.209617
vt 0.920647 0.253975
vt 0.950395 0.794689
vt 0.950572 0.795328
vt 0.949964 0.795841
vt 0.949028 0.795841
vt 0.948470 0.795328
vt 0.948710 0.794689
vt 0.949567 0.794404
vt 0.945141 0.833917
vt 0.956053 0.833917
vt 0.936172 0.134646
vt 0.947563 0.093904
vt 0.023666 0.951629
vt 0.015835 0.948084
vt 0.012350 0.937856
vt 0.015835 0.928648
vt 0.023666 0.927394
vt 0.029947 0.935037
vt 0.029947 0.945823
vt 0.803890 0.974086
vt 0.813583 0.968447
vt 0.813421 0.977487
vt 0.803890 0.962742
vt 0.484996 0.957692
vt 0.488139 0.946909
vt 0.495641 0.954486
vt 0.493683 0.964356
vt 0.966966 0.660351
vt 0.967221 0.651905
vt 0.976795 0.657320
vt 0.813421 0.959133
vt 0.088821 0.962790
vt 0.078960 0.966671
vt 0.079264 0.956937
vt 0.498768 0.946909
vt 0.502195 0.957692
vt 0.976795 0.646034
vt 0.962263 0.872396
vt 0.955774 0.868855
vt 0.962263 0.861447
vt 0.088821 0.951489
vt 0.617036 0.984049
vt 0.607399 0.980319
vt 0.617055 0.974567
vt 0.966966 0.642090
vt 0.951681 0.876333
vt 0.945141 0.867817
vt 0.951681 0.858617
vt 0.078960 0.948386
vt 0.607399 0.968985
vt 0.617036 0.965711
vt 0.233332 0.977407
vt 0.243026 0.971768
vt 0.242863 0.980808
vt 0.233332 0.966064
vt 0.449694 0.964400
vt 0.443141 0.955278
vt 0.453732 0.954042
vt 0.460296 0.961668
vt 0.380349 0.968618
vt 0.380604 0.960171
vt 0.390177 0.965587
vt 0.242863 0.962454
vt 0.123382 0.962790
vt 0.113521 0.966671
vt 0.113825 0.956937
vt 0.449694 0.946909
vt 0.460296 0.950858
vt 0.390177 0.954301
vt 0.953294 0.173125
vt 0.946805 0.169584
vt 0.953294 0.162175
vt 0.123382 0.951489
vt 0.987631 0.177683
vt 0.977994 0.173953
vt 0.987650 0.168201
vt 0.380349 0.950357
vt 0.942712 0.177062
vt 0.936172 0.168546
vt 0.942712 0.159346
vt 0.113521 0.948386
vt 0.977994 0.162620
vt 0.987631 0.159346
vt 0.443852 0.228097
vt 0.443852 0.138125
vt 0.495739 0.141457
vt 0.492280 0.231206
vt 0.534419 0.137760
vt 0.528381 0.227756
vt 0.668870 0.103156
vt 0.665639 0.012350
vt 0.718230 0.012350
vt 0.717955 0.103156
vt 0.667022 0.617390
vt 0.667022 0.527106
vt 0.719448 0.526503
vt 0.715953 0.616827
vt 0.156349 0.367072
vt 0.156349 0.313120
vt 0.202760 0.286151
vt 0.249171 0.313136
vt 0.249171 0.367089
vt 0.202760 0.394057
vt 0.448875 0.616913
vt 0.443141 0.526503
vt 0.481231 0.529068
vt 0.484426 0.619308
vt 0.533347 0.526503
vt 0.533068 0.616913
vt 0.530338 0.037560
vt 0.530338 0.087915
vt 0.487095 0.113060
vt 0.443852 0.087850
vt 0.443852 0.037495
vt 0.487095 0.012350
vt 0.443141 0.368594
vt 0.465003 0.275842
vt 0.495579 0.280661
vt 0.494100 0.376627
vt 0.519920 0.275842
vt 0.534668 0.368594
vt 0.156349 0.747511
vt 0.156349 0.662993
vt 0.187719 0.663211
vt 0.208632 0.747875
vt 0.740408 0.221435
vt 0.761201 0.138799
vt 0.792390 0.137760
vt 0.792390 0.219702
vt 0.740978 0.325130
vt 0.740978 0.292982
vt 0.767501 0.275842
vt 0.794024 0.290849
vt 0.794024 0.322996
vt 0.767501 0.340137
vt 0.443141 0.494594
vt 0.458079 0.401327
vt 0.481916 0.405652
vt 0.482870 0.501803
vt 0.512728 0.401327
vt 0.534224 0.494594
vt 0.058979 0.413179
vt 0.105609 0.439477
vt 0.105609 0.489976
vt 0.058979 0.514177
vt 0.012350 0.487879
vt 0.012350 0.437380
vt 0.837734 0.609102
vt 0.847893 0.594267
vt 0.856602 0.609692
vt 0.856047 0.576515
vt 0.836620 0.575113
vt 0.803265 0.052966
vt 0.805398 0.033477
vt 0.820098 0.048323
vt 0.816263 0.067660
vt 0.820946 0.609692
vt 0.825856 0.594267
vt 0.849127 0.559546
vt 0.761931 0.609105
vt 0.744370 0.600882
vt 0.760849 0.591262
vt 0.838747 0.042281
vt 0.826254 0.027196
vt 0.847080 0.027196
vt 0.173863 0.818065
vt 0.164907 0.830178
vt 0.156349 0.810970
vt 0.205934 0.800296
vt 0.191855 0.810151
vt 0.191855 0.788148
vt 0.868129 0.569079
vt 0.779836 0.601464
vt 0.853795 0.048323
vt 0.173004 0.798592
vt 0.205702 0.783626
vt 0.761554 0.571750
vt 0.752591 0.559546
vt 0.774509 0.559906
vt 0.793856 0.589107
vt 0.779614 0.579507
vt 0.793496 0.570108
vt 0.193815 0.887655
vt 0.174369 0.888881
vt 0.185732 0.869804
vt 0.173862 0.780631
vt 0.156349 0.788967
vt 0.164907 0.772575
vt 0.114336 0.820248
vt 0.102075 0.835539
vt 0.095583 0.814397
vt 0.081282 0.829681
vt 0.078960 0.810281
vt 0.090005 0.846250
vt 0.194579 0.854878
vt 0.175681 0.855199
vt 0.205238 0.873956
vt 0.163710 0.869804
vt 0.156349 0.887655
vt 0.158947 0.854878
vt 0.091814 0.795473
vt 0.112608 0.801331
vt 0.123113 0.835539
vt 0.108812 0.850823
vt 0.205930 0.895599
vt 0.186851 0.904824
vt 0.164829 0.904824
vt 0.744148 0.578925
vt 0.125854 0.795473
vt 0.129622 0.814398
vt 0.849960 0.067660
vt 0.837119 0.061380
vt 0.793856 0.605636
vt 0.832380 0.012350
vt 0.775091 0.617390
vt 0.867366 0.590538
vt 0.827090 0.559546
vt 0.818556 0.576515
vt 0.205702 0.819228
vt 0.186851 0.829672
vt 0.813738 0.017023
vt 0.753172 0.617030
s 1
usemtl mob_rubah_mat.002
f 1/1/1 2/2/2 4/3/3 3/4/4
f 3/5/4 4/6/3 6/7/5 5/8/6
f 5/9/6 6/10/5 8/11/7 7/12/8
f 7/13/8 8/14/7 10/15/9 9/16/10
f 9/16/10 10/15/9 12/17/11 11/18/12
f 11/19/12 12/20/11 14/21/13 13/22/14
f 4/23/3 2/24/2 16/25/15 14/26/13 12/27/11 10/28/9 8/29/7 6/30/5
f 13/31/14 14/26/13 16/25/15 15/32/16
f 15/33/16 16/34/15 2/2/2 1/1/1
f 1/35/1 3/36/4 5/37/6 7/38/8 9/39/10 11/19/12 13/22/14 15/40/16
f 17/41/17 18/42/18 20/43/19 19/44/20
f 19/45/20 20/46/19 22/47/21 21/48/22
f 21/49/22 22/50/21 24/51/23 23/52/24
f 23/53/24 24/54/23 26/55/25 25/56/26
f 25/56/26 26/55/25 28/57/27 27/58/28
f 27/59/28 28/60/27 30/61/29 29/62/30
f 20/63/19 18/64/18 32/65/31 30/66/29 28/67/27 26/68/25 24/69/23 22/70/21
f 29/71/30 30/66/29 32/65/31 31/72/32
f 31/73/32 32/74/31 18/42/18 17/41/17
f 17/75/17 19/76/20 21/77/22 23/78/24 25/79/26 27/59/28 29/62/30 31/80/32
f 33/81/1 34/82/2 36/83/3 35/84/4
f 35/85/4 36/86/3 38/87/5 37/88/6
f 37/89/6 38/90/5 40/91/7 39/92/8
f 39/93/8 40/94/7 42/95/9 41/96/10
f 41/96/10 42/95/9 44/97/11 43/98/12
f 43/99/12 44/100/11 46/101/13 45/102/14
f 36/103/3 34/104/2 48/105/15 46/106/13 44/107/11 42/108/9 40/109/7 38/110/5
f 45/111/14 46/106/13 48/105/15 47/112/16
f 47/113/16 48/114/15 34/82/2 33/81/1
f 33/115/1 35/116/4 37/117/6 39/118/8 41/119/10 43/99/12 45/102/14 47/120/16
f 49/121/17 50/122/18 52/123/19 51/124/20
f 51/125/20 52/126/19 54/127/21 53/128/22
f 53/129/22 54/130/21 56/131/23 55/132/24
f 55/133/24 56/134/23 58/135/25 57/136/26
f 57/136/26 58/135/25 60/137/27 59/138/28
f 59/139/28 60/140/27 62/141/29 61/142/30
f 52/143/19 50/144/18 64/145/31 62/146/29 60/147/27 58/148/25 56/149/23 54/150/21
f 61/151/30 62/146/29 64/145/31 63/152/32
f 63/153/32 64/154/31 50/122/18 49/121/17
f 49/155/17 51/156/20 53/157/22 55/158/24 57/159/26 59/139/28 61/142/30 63/160/32
f 65/161/1 66/162/2 68/163/3 67/164/4
f 67/165/4 68/166/3 70/167/5 69/168/6
f 69/169/6 70/170/5 72/171/7 71/172/8
f 71/173/8 72/174/7 74/175/9 73/176/10
f 73/176/10 74/175/9 76/177/11 75/178/12
f 75/179/12 76/180/11 78/181/13 77/182/14
f 68/183/3 66/184/2 80/185/15 78/186/13 76/187/11 74/188/9 72/189/7 70/190/5
f 77/191/14 78/186/13 80/185/15 79/192/16
f 79/193/16 80/194/15 66/162/2 65/161/1
f 65/195/1 67/196/4 69/197/6 71/198/8 73/199/10 75/179/12 77/182/14 79/200/16
f 81/201/17 82/202/18 84/203/19 83/204/20
f 83/205/20 84/206/19 86/207/21 85/208/22
f 85/209/22 86/210/21 88/211/23 87/212/24
f 87/213/24 88/214/23 90/215/25 89/216/26
f 89/216/26 90/215/25 92/217/27 91/218/28
f 91/219/28 92/220/27 94/221/29 93/222/30
f 84/223/19 82/224/18 96/225/31 94/226/29 92/227/27 90/228/25 88/229/23 86/230/21
f 93/231/30 94/226/29 96/225/31 95/232/32
f 95/233/32 96/234/31 82/202/18 81/201/17
f 81/235/17 83/236/20 85/237/22 87/238/24 89/239/26 91/219/28 93/222/30 95/240/32
f 97/241/1 98/242/2 100/243/3 99/244/4
f 99/245/4 100/246/3 102/247/5 101/248/6
f 101/249/6 102/250/5 104/251/7 103/252/8
f 103/253/8 104/254/7 106/255/9 105/256/10
f 105/256/10 106/255/9 108/257/11 107/258/12
f 107/259/12 108/260/11 110/261/13 109/262/14
f 100/263/3 98/264/2 112/265/15 110/266/13 108/267/11 106/268/9 104/269/7 102/270/5
f 109/271/14 110/266/13 112/265/15 111/272/16
f 111/273/16 112/274/15 98/242/2 97/241/1
f 97/275/1 99/276/4 101/277/6 103/278/8 105/279/10 107/259/12 109/262/14 111/280/16
f 113/281/17 114/282/18 116/283/19 115/284/20
f 115/285/20 116/286/19 118/287/21 117/288/22
f 117/289/22 118/290/21 120/291/23 119/292/24
f 119/293/24 120/294/23 122/295/25 121/296/26
f 121/296/26 122/295/25 124/297/27 123/298/28
f 123/299/28 124/300/27 126/301/29 125/302/30
f 116/303/19 114/304/18 128/305/31 126/306/29 124/307/27 122/308/25 120/309/23 118/310/21
f 125/311/30 126/306/29 128/305/31 127/312/32
f 127/313/32 128/314/31 114/282/18 113/281/17
f 113/315/17 115/316/20 117/317/22 119/318/24 121/319/26 123/299/28 125/302/30 127/320/32
f 129/321/33 144/322/34 143/323/35
f 130/324/36 146/325/37 152/326/38
f 129/327/33 143/328/35 158/329/39
f 129/327/33 158/329/39 164/330/40
f 129/321/33 164/331/40 153/332/41
f 130/324/36 152/326/38 173/333/42
f 131/334/43 149/335/44 179/336/45
f 132/337/46 161/338/47 185/339/48
f 133/340/49 167/341/50 191/342/51
f 134/343/52 170/344/53 197/345/54
f 130/324/36 173/333/42 180/346/55
f 131/334/43 179/336/45 186/347/56
f 132/337/46 185/339/48 192/348/57
f 133/349/49 191/350/51 198/351/58
f 134/343/52 197/345/54 174/352/59
f 135/353/60 203/354/61 218/355/62
f 136/356/63 206/357/64 224/358/65
f 137/359/66 209/360/67 227/361/68
f 138/362/69 212/363/70 230/364/71
f 139/365/72 215/366/73 219/367/74
f 221/368/75 228/369/76 140/370/77
f 220/371/78 231/372/79 221/368/75
f 219/367/74 232/373/80 220/371/78
f 221/368/75 231/372/79 228/369/76
f 231/372/79 229/374/81 228/369/76
f 220/371/78 232/373/80 231/372/79
f 232/373/80 233/375/82 231/372/79
f 231/372/79 233/375/82 229/374/81
f 233/375/82 230/364/71 229/374/81
f 219/367/74 215/366/73 232/373/80
f 215/366/73 214/376/83 232/373/80
f 232/373/80 214/376/83 233/375/82
f 214/376/83 213/377/84 233/375/82
f 233/375/82 213/377/84 230/364/71
f 213/377/84 138/362/69 230/364/71
f 228/378/76 225/379/85 140/380/77
f 229/374/81 234/381/86 228/369/76
f 230/364/71 235/382/87 229/374/81
f 228/378/76 234/383/86 225/379/85
f 234/383/86 226/384/88 225/379/85
f 229/385/81 235/386/87 234/383/86
f 235/386/87 236/387/89 234/383/86
f 234/383/86 236/387/89 226/384/88
f 236/387/89 227/361/68 226/384/88
f 230/364/71 212/363/70 235/382/87
f 212/388/70 211/389/90 235/386/87
f 235/386/87 211/389/90 236/387/89
f 211/389/90 210/390/91 236/387/89
f 236/387/89 210/390/91 227/361/68
f 210/390/91 137/359/66 227/361/68
f 225/379/85 222/391/92 140/380/77
f 226/384/88 237/392/93 225/379/85
f 227/361/68 238/393/94 226/384/88
f 225/379/85 237/392/93 222/391/92
f 237/392/93 223/394/95 222/391/92
f 226/384/88 238/393/94 237/392/93
f 238/393/94 239/395/96 237/392/93
f 237/392/93 239/395/96 223/394/95
f 239/395/96 224/358/65 223/394/95
f 227/361/68 209/360/67 238/393/94
f 209/360/67 208/396/97 238/393/94
f 238/393/94 208/396/97 239/395/96
f 208/396/97 207/397/98 239/395/96
f 239/395/96 207/397/98 224/358/65
f 207/397/98 136/356/63 224/358/65
f 222/391/92 216/398/99 140/380/77
f 223/394/95 240/399/100 222/391/92
f 224/358/65 241/400/101 223/394/95
f 222/391/92 240/399/100 216/398/99
f 240/401/100 217/402/102 216/403/99
f 223/394/95 241/400/101 240/399/100
f 241/400/101 242/404/103 240/399/100
f 240/399/100 242/404/103 217/405/102
f 242/406/103 218/355/62 217/402/102
f 224/358/65 206/357/64 241/400/101
f 206/357/64 205/407/104 241/400/101
f 241/400/101 205/407/104 242/404/103
f 205/408/104 204/409/105 242/410/103
f 242/410/103 204/409/105 218/411/62
f 204/409/105 135/412/60 218/411/62
f 216/403/99 221/368/75 140/370/77
f 217/402/102 243/413/106 216/403/99
f 218/355/62 244/414/107 217/402/102
f 216/403/99 243/413/106 221/368/75
f 243/413/106 220/371/78 221/368/75
f 217/402/102 244/414/107 243/413/106
f 244/414/107 245/415/108 243/413/106
f 243/413/106 245/415/108 220/371/78
f 245/415/108 219/367/74 220/371/78
f 218/355/62 203/354/61 244/414/107
f 203/354/61 202/416/109 244/414/107
f 244/414/107 202/416/109 245/415/108
f 202/416/109 201/417/110 245/415/108
f 245/415/108 201/417/110 219/367/74
f 201/417/110 139/365/72 219/367/74
f 176/418/111 215/366/73 139/365/72
f 175/419/112 246/420/113 176/418/111
f 174/352/59 247/421/114 175/422/112
f 176/418/111 246/420/113 215/366/73
f 246/420/113 214/376/83 215/366/73
f 175/419/112 247/423/114 246/420/113
f 247/423/114 248/424/115 246/420/113
f 246/420/113 248/424/115 214/376/83
f 248/424/115 213/377/84 214/376/83
f 174/352/59 197/345/54 247/421/114
f 197/425/54 196/426/116 247/427/114
f 247/423/114 196/428/116 248/424/115
f 196/428/116 195/429/117 248/424/115
f 248/424/115 195/429/117 213/377/84
f 195/429/117 138/362/69 213/377/84
f 200/430/118 212/431/70 138/432/69
f 199/433/119 249/434/120 200/430/118
f 198/351/58 250/435/121 199/433/119
f 200/430/118 249/434/120 212/431/70
f 249/436/120 211/389/90 212/388/70
f 199/433/119 250/435/121 249/434/120
f 250/435/121 251/437/122 249/434/120
f 249/436/120 251/438/122 211/389/90
f 251/438/122 210/390/91 211/389/90
f 198/351/58 191/350/51 250/435/121
f 191/350/51 190/439/123 250/435/121
f 250/435/121 190/439/123 251/437/122
f 190/440/123 189/441/124 251/438/122
f 251/438/122 189/441/124 210/390/91
f 189/441/124 137/359/66 210/390/91
f 194/442/125 209/360/67 137/359/66
f 193/443/126 252/444/127 194/442/125
f 192/348/57 253/445/128 193/446/126
f 194/442/125 252/444/127 209/360/67
f 252/444/127 208/396/97 209/360/67
f 193/443/126 253/447/128 252/444/127
f 253/447/128 254/448/129 252/444/127
f 252/444/127 254/448/129 208/396/97
f 254/448/129 207/397/98 208/396/97
f 192/348/57 185/339/48 253/445/128
f 185/339/48 184/449/130 253/445/128
f 253/447/128 184/450/130 254/448/129
f 184/450/130 183/451/131 254/448/129
f 254/448/129 183/451/131 207/397/98
f 183/451/131 136/356/63 207/397/98
f 188/452/132 206/357/64 136/356/63
f 187/453/133 255/454/134 188/455/132
f 186/347/56 256/456/135 187/453/133
f 188/452/132 255/457/134 206/357/64
f 255/454/134 205/408/104 206/458/64
f 187/453/133 256/456/135 255/454/134
f 256/456/135 257/459/136 255/454/134
f 255/454/134 257/459/136 205/408/104
f 257/459/136 204/409/105 205/408/104
f 186/347/56 179/336/45 256/456/135
f 179/336/45 178/460/137 256/456/135
f 256/456/135 178/460/137 257/459/136
f 178/460/137 177/461/138 257/459/136
f 257/459/136 177/461/138 204/409/105
f 177/461/138 135/412/60 204/409/105
f 182/462/139 203/463/61 135/412/60
f 181/464/140 258/465/141 182/466/139
f 180/346/55 259/467/142 181/468/140
f 182/466/139 258/465/141 203/354/61
f 258/465/141 202/416/109 203/354/61
f 181/464/140 259/469/142 258/465/141
f 259/469/142 260/470/143 258/465/141
f 258/465/141 260/470/143 202/416/109
f 260/470/143 201/417/110 202/416/109
f 180/346/55 173/333/42 259/467/142
f 173/333/42 172/471/144 259/467/142
f 259/469/142 172/472/144 260/470/143
f 172/472/144 171/473/145 260/470/143
f 260/470/143 171/473/145 201/417/110
f 171/473/145 139/365/72 201/417/110
f 195/474/117 200/430/118 138/432/69
f 196/426/116 261/475/146 195/474/117
f 197/425/54 262/476/147 196/426/116
f 195/474/117 261/475/146 200/430/118
f 261/475/146 199/433/119 200/430/118
f 196/426/116 262/476/147 261/475/146
f 262/476/147 263/477/148 261/475/146
f 261/475/146 263/477/148 199/433/119
f 263/477/148 198/351/58 199/433/119
f 197/345/54 170/344/53 262/478/147
f 170/479/53 169/480/149 262/476/147
f 262/476/147 169/480/149 263/477/148
f 169/480/149 168/481/150 263/477/148
f 263/477/148 168/481/150 198/351/58
f 168/481/150 133/349/49 198/351/58
f 189/441/124 194/442/125 137/359/66
f 190/440/123 264/482/151 189/441/124
f 191/342/51 265/483/152 190/484/123
f 189/441/124 264/482/151 194/442/125
f 264/482/151 193/443/126 194/442/125
f 190/484/123 265/483/152 264/485/151
f 265/483/152 266/486/153 264/485/151
f 264/485/151 266/486/153 193/446/126
f 266/486/153 192/348/57 193/446/126
f 191/342/51 167/341/50 265/483/152
f 167/341/50 166/487/154 265/483/152
f 265/483/152 166/487/154 266/486/153
f 166/487/154 165/488/155 266/486/153
f 266/486/153 165/488/155 192/348/57
f 165/488/155 132/337/46 192/348/57
f 183/451/131 188/452/132 136/356/63
f 184/450/130 267/489/156 183/451/131
f 185/339/48 268/490/157 184/449/130
f 183/451/131 267/489/156 188/452/132
f 267/489/156 187/491/133 188/452/132
f 184/449/130 268/490/157 267/492/156
f 268/490/157 269/493/158 267/492/156
f 267/492/156 269/493/158 187/494/133
f 269/493/158 186/495/56 187/494/133
f 185/339/48 161/338/47 268/490/157
f 161/338/47 160/496/159 268/490/157
f 268/490/157 160/496/159 269/493/158
f 160/496/159 159/497/160 269/493/158
f 269/493/158 159/497/160 186/495/56
f 159/497/160 131/498/43 186/495/56
f 177/461/138 182/462/139 135/412/60
f 178/460/137 270/499/161 177/461/138
f 179/336/45 271/500/162 178/460/137
f 177/461/138 270/499/161 182/462/139
f 270/499/161 181/501/140 182/462/139
f 178/460/137 271/500/162 270/499/161
f 271/500/162 272/502/163 270/499/161
f 270/499/161 272/502/163 181/501/140
f 272/503/163 180/346/55 181/468/140
f 179/336/45 149/335/44 271/500/162
f 149/504/44 148/505/164 271/506/162
f 271/506/162 148/505/164 272/503/163
f 148/505/164 147/507/165 272/503/163
f 272/503/163 147/507/165 180/346/55
f 147/507/165 130/324/36 180/346/55
f 171/473/145 176/418/111 139/365/72
f 172/472/144 273/508/166 171/473/145
f 173/333/42 274/509/167 172/471/144
f 171/473/145 273/508/166 176/418/111
f 273/508/166 175/419/112 176/418/111
f 172/471/144 274/509/167 273/510/166
f 274/509/167 275/511/168 273/510/166
f 273/510/166 275/511/168 175/422/112
f 275/511/168 174/352/59 175/422/112
f 173/333/42 152/326/38 274/509/167
f 152/326/38 151/512/169 274/509/167
f 274/509/167 151/512/169 275/511/168
f 151/512/169 150/513/170 275/511/168
f 275/511/168 150/513/170 174/352/59
f 150/513/170 134/343/52 174/352/59
f 155/514/171 170/344/53 134/343/52
f 154/515/172 276/516/173 155/514/171
f 153/332/41 277/517/174 154/515/172
f 155/514/171 276/516/173 170/344/53
f 276/516/173 169/518/149 170/344/53
f 154/515/172 277/517/174 276/516/173
f 277/517/174 278/519/175 276/516/173
f 276/516/173 278/519/175 169/518/149
f 278/520/175 168/481/150 169/480/149
f 153/332/41 164/331/40 277/517/174
f 164/330/40 163/521/176 277/522/174
f 277/522/174 163/521/176 278/523/175
f 163/521/176 162/524/177 278/523/175
f 278/520/175 162/525/177 168/481/150
f 162/525/177 133/349/49 168/481/150
f 162/524/177 167/341/50 133/340/49
f 163/521/176 279/526/178 162/524/177
f 164/330/40 280/527/179 163/521/176
f 162/524/177 279/526/178 167/341/50
f 279/526/178 166/487/154 167/341/50
f 163/521/176 280/527/179 279/526/178
f 280/527/179 281/528/180 279/526/178
f 279/526/178 281/528/180 166/487/154
f 281/528/180 165/488/155 166/487/154
f 164/330/40 158/329/39 280/527/179
f 158/329/39 157/529/181 280/527/179
f 280/527/179 157/529/181 281/528/180
f 157/529/181 156/530/182 281/528/180
f 281/528/180 156/530/182 165/488/155
f 156/530/182 132/337/46 165/488/155
f 156/530/182 161/338/47 132/337/46
f 157/529/181 282/531/183 156/530/182
f 158/329/39 283/532/184 157/529/181
f 156/530/182 282/531/183 161/338/47
f 282/531/183 160/496/159 161/338/47
f 157/529/181 283/532/184 282/531/183
f 283/532/184 284/533/185 282/531/183
f 282/531/183 284/533/185 160/496/159
f 284/533/185 159/497/160 160/496/159
f 158/329/39 143/328/35 283/532/184
f 143/328/35 142/534/186 283/532/184
f 283/532/184 142/534/186 284/533/185
f 142/534/186 141/535/187 284/533/185
f 284/533/185 141/535/187 159/497/160
f 141/535/187 131/498/43 159/497/160
f 150/513/170 155/514/171 134/343/52
f 151/512/169 285/536/188 150/513/170
f 152/326/38 286/537/189 151/512/169
f 150/513/170 285/536/188 155/514/171
f 285/536/188 154/515/172 155/514/171
f 151/512/169 286/537/189 285/536/188
f 286/537/189 287/538/190 285/536/188
f 285/536/188 287/538/190 154/515/172
f 287/538/190 153/332/41 154/515/172
f 152/326/38 146/325/37 286/537/189
f 146/325/37 145/539/191 286/537/189
f 286/537/189 145/539/191 287/538/190
f 145/539/191 144/322/34 287/538/190
f 287/538/190 144/322/34 153/332/41
f 144/322/34 129/321/33 153/332/41
f 141/535/187 149/540/44 131/498/43
f 142/534/186 288/541/192 141/535/187
f 143/328/35 289/542/193 142/534/186
f 141/535/187 288/541/192 149/540/44
f 288/543/192 148/505/164 149/504/44
f 142/544/186 289/545/193 288/543/192
f 289/545/193 290/546/194 288/543/192
f 288/543/192 290/546/194 148/505/164
f 290/546/194 147/507/165 148/505/164
f 143/323/35 144/322/34 289/545/193
f 144/322/34 145/539/191 289/545/193
f 289/545/193 145/539/191 290/546/194
f 145/539/191 146/325/37 290/546/194
f 290/546/194 146/325/37 147/507/165
f 146/325/37 130/324/36 147/507/165
f 291/547/195 304/548/196 303/549/197
f 292/550/198 304/548/196 306/551/199
f 291/552/195 303/553/197 308/554/200
f 291/552/195 308/554/200 310/555/201
f 291/547/195 310/556/201 307/557/202
f 292/550/198 306/551/199 313/558/203
f 293/559/204 305/560/205 315/561/206
f 294/562/207 309/563/208 317/564/209
f 295/565/210 311/566/211 319/567/212
f 296/568/213 312/569/214 321/570/215
f 292/550/198 313/558/203 316/571/216
f 293/559/204 315/561/206 318/572/217
f 294/562/207 317/564/209 320/573/218
f 295/565/210 319/567/212 322/574/219
f 296/568/213 321/570/215 314/575/220
f 297/576/221 323/577/222 328/578/223
f 298/579/224 324/580/225 330/581/226
f 299/582/227 325/583/228 331/584/229
f 300/585/230 326/586/231 332/587/232
f 301/588/233 327/589/234 329/590/235
f 329/590/235 332/587/232 302/591/236
f 329/590/235 327/589/234 332/587/232
f 327/589/234 300/585/230 332/587/232
f 332/592/232 331/584/229 302/593/236
f 332/592/232 326/594/231 331/584/229
f 326/594/231 299/582/227 331/584/229
f 331/584/229 330/581/226 302/593/236
f 331/584/229 325/583/228 330/581/226
f 325/583/228 298/579/224 330/581/226
f 330/581/226 328/595/223 302/593/236
f 330/596/226 324/597/225 328/598/223
f 324/597/225 297/599/221 328/598/223
f 328/578/223 329/590/235 302/591/236
f 328/578/223 323/577/222 329/590/235
f 323/577/222 301/588/233 329/590/235
f 314/600/220 327/589/234 301/588/233
f 314/600/220 321/601/215 327/589/234
f 321/601/215 300/585/230 327/589/234
f 322/574/219 326/602/231 300/603/230
f 322/574/219 319/567/212 326/602/231
f 319/604/212 299/582/227 326/594/231
f 320/605/218 325/583/228 299/582/227
f 320/605/218 317/606/209 325/583/228
f 317/606/209 298/579/224 325/583/228
f 318/572/217 324/597/225 298/607/224
f 318/572/217 315/561/206 324/597/225
f 315/561/206 297/599/221 324/597/225
f 316/608/216 323/609/222 297/599/221
f 316/610/216 313/611/203 323/577/222
f 313/611/203 301/588/233 323/577/222
f 321/570/215 322/574/219 300/603/230
f 321/570/215 312/569/214 322/574/219
f 312/569/214 295/565/210 322/574/219
f 319/604/212 320/605/218 299/582/227
f 319/612/212 311/613/211 320/573/218
f 311/613/211 294/562/207 320/573/218
f 317/614/209 318/572/217 298/607/224
f 317/564/209 309/563/208 318/615/217
f 309/563/208 293/616/204 318/615/217
f 315/561/206 316/608/216 297/599/221
f 315/561/206 305/560/205 316/608/216
f 305/617/205 292/550/198 316/571/216
f 313/611/203 314/600/220 301/588/233
f 313/558/203 306/551/199 314/618/220
f 306/551/199 296/619/213 314/618/220
f 307/557/202 312/620/214 296/619/213
f 307/557/202 310/556/201 312/620/214
f 310/621/201 295/565/210 312/569/214
f 310/555/201 311/613/211 295/622/210
f 310/555/201 308/554/200 311/613/211
f 308/554/200 294/562/207 311/613/211
f 308/554/200 309/563/208 294/562/207
f 308/554/200 303/553/197 309/563/208
f 303/553/197 293/616/204 309/563/208
f 306/551/199 307/557/202 296/619/213
f 306/551/199 304/548/196 307/557/202
f 304/548/196 291/547/195 307/557/202
f 303/553/197 305/623/205 293/616/204
f 303/549/197 304/548/196 305/617/205
f 304/548/196 292/550/198 305/617/205
f 333/624/237 346/625/238 345/626/239
f 334/627/240 346/625/238 348/628/241
f 333/629/237 345/630/239 350/631/242
f 333/629/237 350/631/242 352/632/243
f 333/624/237 352/633/243 349/634/244
f 334/627/240 348/628/241 355/635/245
f 335/636/246 347/637/247 357/638/137
f 336/639/248 351/640/249 359/641/250
f 337/642/251 353/643/252 361/644/253
f 338/645/254 354/646/255 363/647/256
f 334/627/240 355/635/245 358/648/257
f 335/636/246 357/638/137 360/649/258
f 336/639/248 359/641/250 362/650/259
f 337/642/251 361/644/253 364/651/119
f 338/645/254 363/647/256 356/652/260
f 339/653/261 365/654/262 370/655/263
f 340/656/264 366/657/265 372/658/266
f 341/659/267 367/660/268 373/661/269
f 342/662/270 368/663/271 374/664/272
f 343/665/273 369/666/274 371/667/275
f 371/667/275 374/668/272 344/669/236
f 371/667/275 369/666/274 374/668/272
f 369/666/274 342/670/270 374/668/272
f 374/671/272 373/661/269 344/672/236
f 374/671/272 368/673/271 373/661/269
f 368/673/271 341/659/267 373/661/269
f 373/661/269 372/674/266 344/672/236
f 373/661/269 367/660/268 372/674/266
f 367/660/268 340/675/264 372/674/266
f 372/674/266 370/676/263 344/672/236
f 372/658/266 366/657/265 370/655/263
f 366/657/265 339/653/261 370/655/263
f 370/677/263 371/667/275 344/669/236
f 370/677/263 365/678/262 371/667/275
f 365/678/262 343/665/273 371/667/275
f 356/679/260 369/666/274 343/665/273
f 356/679/260 363/680/256 369/666/274
f 363/680/256 342/670/270 369/666/274
f 364/651/119 368/663/271 342/662/270
f 364/651/119 361/644/253 368/663/271
f 361/681/253 341/659/267 368/673/271
f 362/682/259 367/660/268 341/659/267
f 362/682/259 359/683/250 367/660/268
f 359/683/250 340/675/264 367/660/268
f 360/649/258 366/657/265 340/656/264
f 360/649/258 357/638/137 366/657/265
f 357/638/137 339/653/261 366/657/265
f 358/684/257 365/654/262 339/653/261
f 358/685/257 355/686/245 365/678/262
f 355/686/245 343/665/273 365/678/262
f 363/647/256 364/651/119 342/662/270
f 363/647/256 354/646/255 364/651/119
f 354/646/255 337/642/251 364/651/119
f 361/681/253 362/682/259 341/659/267
f 361/687/253 353/688/252 362/650/259
f 353/688/252 336/639/248 362/650/259
f 359/689/250 360/649/258 340/656/264
f 359/641/250 351/640/249 360/690/258
f 351/691/249 335/636/246 360/649/258
f 357/638/137 358/684/257 339/653/261
f 357/638/137 347/637/247 358/684/257
f 347/692/247 334/627/240 358/648/257
f 355/686/245 356/679/260 343/665/273
f 355/635/245 348/628/241 356/693/260
f 348/628/241 338/694/254 356/693/260
f 349/695/244 354/646/255 338/645/254
f 349/695/244 352/696/243 354/646/255
f 352/696/243 337/642/251 354/646/255
f 352/696/243 353/643/252 337/642/251
f 352/632/243 350/631/242 353/688/252
f 350/631/242 336/639/248 353/688/252
f 350/631/242 351/640/249 336/639/248
f 350/631/242 345/630/239 351/640/249
f 345/630/239 335/697/246 351/640/249
f 348/628/241 349/634/244 338/694/254
f 348/628/241 346/625/238 349/634/244
f 346/625/238 333/624/237 349/634/244
f 345/698/239 347/637/247 335/636/246
f 345/626/239 346/625/238 347/692/247
f 346/625/238 334/627/240 347/692/247
f 375/699/276 376/700/277 378/701/278 377/702/279
f 377/702/279 378/701/278 380/703/280 379/704/281
f 379/705/281 380/706/280 382/707/282 381/708/283
f 381/709/283 382/710/282 384/711/284 383/712/285
f 383/712/285 384/711/284 386/713/286 385/714/287
f 378/715/278 376/716/277 388/717/288 386/718/286 384/719/284 382/720/282 380/721/280
f 385/722/287 386/723/286 388/724/288 387/725/289
f 387/725/289 388/724/288 376/726/277 375/727/276
f 375/728/276 377/729/279 379/730/281 381/731/283 383/732/285 385/733/287 387/734/289
f 389/735/290 390/736/291 391/737/292
f 390/736/291 389/735/290 394/738/293
f 389/739/290 391/740/292 392/741/294
f 389/739/290 392/741/294 393/742/295
f 389/743/290 393/744/295 394/745/293
f 390/736/291 394/738/293 399/746/296
f 391/747/292 390/748/291 395/749/297
f 392/741/294 391/740/292 396/750/298
f 393/742/295 392/741/294 397/751/299
f 394/745/293 393/744/295 398/752/300
f 390/753/291 399/754/296 395/755/297
f 391/747/292 395/749/297 396/756/298
f 392/757/294 396/758/298 397/759/299
f 393/744/295 397/760/299 398/752/300
f 394/761/293 398/762/300 399/754/296
f 395/755/297 399/754/296 400/763/236
f 396/756/298 395/749/297 400/764/236
f 397/759/299 396/758/298 400/765/236
f 398/766/300 397/759/299 400/765/236
f 399/754/296 398/762/300 400/763/236
f 401/767/301 402/768/302 404/769/303 403/770/304
f 403/771/304 404/772/303 406/773/305 405/774/306
f 405/775/306 406/776/305 408/777/307 407/778/308
f 407/778/308 408/777/307 410/779/309 409/780/310
f 409/781/310 410/782/309 412/783/311 411/784/312
f 404/785/303 402/786/302 414/787/313 412/783/311 410/782/309 408/788/307 406/789/305
f 411/784/312 412/783/311 414/787/313 413/790/314
f 413/791/314 414/792/313 402/768/302 401/767/301
f 401/793/301 403/794/304 405/795/306 407/796/308 409/797/310 411/798/312 413/799/314
f 415/800/315 416/801/316 418/802/317 417/803/318
f 417/804/318 418/805/317 420/806/319 419/807/320
f 419/808/320 420/809/319 422/810/321 421/811/322
f 421/811/322 422/810/321 424/812/323 423/813/324
f 423/814/324 424/815/323 426/816/325 425/817/326
f 418/818/317 416/819/316 428/820/327 426/816/325 424/815/323 422/821/321 420/822/319
f 425/817/326 426/816/325 428/820/327 427/823/328
f 427/824/328 428/825/327 416/801/316 415/800/315
f 415/826/315 417/827/318 419/828/320 421/829/322 423/830/324 425/831/326 427/832/328
f 429/833/329 430/834/330 432/835/331 431/836/332
f 431/837/332 432/838/331 434/839/333 433/840/334
f 433/840/334 434/839/333 436/841/335 435/842/336
f 435/843/336 436/844/335 438/845/337 437/846/338
f 437/846/338 438/845/337 440/847/339 439/848/340
f 432/849/331 430/850/330 442/851/341 440/852/339 438/853/337 436/854/335 434/855/333
f 439/856/340 440/852/339 442/851/341 441/857/342
f 441/858/342 442/859/341 430/834/330 429/833/329
f 429/860/329 431/861/332 433/862/334 435/863/336 437/864/338 439/865/340 441/866/342
f 443/867/343 444/868/344 446/869/345 445/870/346
f 445/871/346 446/872/345 448/873/347 447/874/348
f 447/874/348 448/873/347 450/875/349 449/876/350
f 449/877/350 450/878/349 452/879/351 451/880/352
f 451/880/352 452/879/351 454/881/353 453/882/354
f 446/883/345 444/884/344 456/885/355 454/886/353 452/887/351 450/888/349 448/889/347
f 453/890/354 454/886/353 456/885/355 455/891/356
f 455/892/356 456/893/355 444/868/344 443/867/343
f 443/894/343 445/895/346 447/896/348 449/897/350 451/898/352 453/899/354 455/900/356
f 457/901/290 458/902/291 459/903/292
f 458/902/291 457/901/290 462/904/293
f 457/905/290 459/906/292 460/907/294
f 457/905/290 460/907/294 461/908/295
f 457/909/290 461/910/295 462/911/293
f 458/902/291 462/904/293 467/912/296
f 459/913/292 458/914/291 463/915/297
f 460/907/294 459/906/292 464/916/298
f 461/908/295 460/907/294 465/917/299
f 462/911/293 461/910/295 466/918/300
f 458/919/291 467/920/296 463/921/297
f 459/913/292 463/915/297 464/922/298
f 460/923/294 464/924/298 465/925/299
f 461/910/295 465/926/299 466/918/300
f 462/927/293 466/928/300 467/920/296
f 463/921/297 467/920/296 468/929/236
f 464/922/298 463/915/297 468/930/236
f 465/925/299 464/924/298 468/931/236
f 466/932/300 465/925/299 468/931/236
f 467/920/296 466/928/300 468/929/236
f 469/933/290 470/934/291 471/935/292
f 470/934/291 469/933/290 474/936/293
f 469/937/290 471/938/292 472/939/294
f 469/937/290 472/939/294 473/940/295
f 469/941/290 473/942/295 474/943/293
f 470/934/291 474/936/293 479/944/296
f 471/945/292 470/946/291 475/947/297
f 472/939/294 471/938/292 476/948/298
f 473/940/295 472/939/294 477/949/299
f 474/943/293 473/942/295 478/950/300
f 470/951/291 479/952/296 475/953/297
f 471/945/292 475/947/297 476/954/298
f 472/955/294 476/956/298 477/957/299
f 473/942/295 477/958/299 478/950/300
f 474/959/293 478/960/300 479/952/296
f 475/953/297 479/952/296 480/961/236
f 476/954/298 475/947/297 480/962/236
f 477/957/299 476/956/298 480/963/236
f 478/964/300 477/957/299 480/963/236
f 479/952/296 478/960/300 480/961/236
f 481/965/357 482/966/358 484/967/359 483/968/360
f 483/968/360 484/967/359 486/969/361 485/970/362
f 485/971/362 486/972/361 488/973/363 487/974/364
f 487/975/364 488/976/363 490/977/365 489/978/366
f 484/979/359 482/980/358 492/981/367 490/982/365 488/983/363 486/984/361
f 489/985/366 490/986/365 492/987/367 491/988/368
f 491/988/368 492/987/367 482/989/358 481/990/357
f 481/991/357 483/992/360 485/993/362 487/994/364 489/995/366 491/996/368
f 493/997/369 494/998/370 496/999/371 495/1000/372
f 495/1000/372 496/999/371 498/1001/373 497/1002/374
f 497/1003/374 498/1004/373 500/1005/375 499/1006/376
f 499/1007/376 500/1008/375 502/1009/377 501/1010/378
f 496/1011/371 494/1012/370 504/1013/379 502/1014/377 500/1015/375 498/1016/373
f 501/1017/378 502/1018/377 504/1019/379 503/1020/380
f 503/1020/380 504/1019/379 494/1021/370 493/1022/369
f 493/1023/369 495/1024/372 497/1025/374 499/1026/376 501/1027/378 503/1028/380
f 505/1029/290 518/1030/381 517/1031/382
f 506/1032/240 518/1030/381 520/1033/241
f 505/1034/290 517/1035/382 522/1036/383
f 505/1034/290 522/1036/383 524/1037/384
f 505/1029/290 524/1038/384 521/1039/385
f 506/1032/240 520/1033/241 527/1040/245
f 507/1041/246 519/1042/247 529/1043/137
f 508/1044/248 523/1045/249 531/1046/250
f 509/1047/251 525/1048/252 533/1049/253
f 510/1050/254 526/1051/255 535/1052/256
f 506/1032/240 527/1040/245 530/1053/257
f 507/1041/246 529/1043/137 532/1054/258
f 508/1044/248 531/1046/250 534/1055/259
f 509/1047/251 533/1049/253 536/1056/119
f 510/1050/254 535/1052/256 528/1057/260
f 511/1058/261 537/1059/262 542/1060/263
f 512/1061/264 538/1062/265 544/1063/266
f 513/1064/267 539/1065/268 545/1066/269
f 514/1067/270 540/1068/271 546/1069/272
f 515/1070/273 541/1071/274 543/1072/275
f 543/1072/275 546/1073/272 516/1074/236
f 543/1072/275 541/1071/274 546/1073/272
f 541/1071/274 514/1075/270 546/1073/272
f 546/1076/272 545/1066/269 516/1077/236
f 546/1076/272 540/1078/271 545/1066/269
f 540/1078/271 513/1064/267 545/1066/269
f 545/1066/269 544/1079/266 516/1077/236
f 545/1066/269 539/1065/268 544/1079/266
f 539/1065/268 512/1080/264 544/1079/266
f 544/1079/266 542/1081/263 516/1077/236
f 544/1063/266 538/1062/265 542/1060/263
f 538/1062/265 511/1058/261 542/1060/263
f 542/1082/263 543/1072/275 516/1074/236
f 542/1082/263 537/1083/262 543/1072/275
f 537/1083/262 515/1070/273 543/1072/275
f 528/1084/260 541/1071/274 515/1070/273
f 528/1084/260 535/1085/256 541/1071/274
f 535/1085/256 514/1075/270 541/1071/274
f 536/1056/119 540/1068/271 514/1067/270
f 536/1056/119 533/1049/253 540/1068/271
f 533/1086/253 513/1064/267 540/1078/271
f 534/1087/259 539/1065/268 513/1064/267
f 534/1087/259 531/1088/250 539/1065/268
f 531/1088/250 512/1080/264 539/1065/268
f 532/1054/258 538/1062/265 512/1061/264
f 532/1054/258 529/1043/137 538/1062/265
f 529/1043/137 511/1058/261 538/1062/265
f 530/1089/257 537/1059/262 511/1058/261
f 530/1090/257 527/1091/245 537/1083/262
f 527/1091/245 515/1070/273 537/1083/262
f 535/1052/256 536/1056/119 514/1067/270
f 535/1052/256 526/1051/255 536/1056/119
f 526/1051/255 509/1047/251 536/1056/119
f 533/1086/253 534/1087/259 513/1064/267
f 533/1092/253 525/1093/252 534/1055/259
f 525/1093/252 508/1044/248 534/1055/259
f 531/1094/250 532/1054/258 512/1061/264
f 531/1046/250 523/1045/249 532/1095/258
f 523/1096/249 507/1041/246 532/1054/258
f 529/1043/137 530/1089/257 511/1058/261
f 529/1043/137 519/1042/247 530/1089/257
f 519/1097/247 506/1032/240 530/1053/257
f 527/1091/245 528/1084/260 515/1070/273
f 527/1040/245 520/1033/241 528/1098/260
f 520/1033/241 510/1099/254 528/1098/260
f 521/1100/385 526/1051/255 510/1050/254
f 521/1100/385 524/1101/384 526/1051/255
f 524/1101/384 509/1047/251 526/1051/255
f 524/1101/384 525/1048/252 509/1047/251
f 524/1037/384 522/1036/383 525/1093/252
f 522/1036/383 508/1044/248 525/1093/252
f 522/1036/383 523/1045/249 508/1044/248
f 522/1036/383 517/1035/382 523/1045/249
f 517/1035/382 507/1102/246 523/1045/249
f 520/1033/241 521/1039/385 510/1099/254
f 520/1033/241 518/1030/381 521/1039/385
f 518/1030/381 505/1029/290 521/1039/385
f 517/1103/382 519/1042/247 507/1041/246
f 517/1031/382 518/1030/381 519/1097/247
f 518/1030/381 506/1032/240 519/1097/247
