# axis-converted-to-Y-up
# Blender 5.1.1
# www.blender.org
mtllib mob_kuda_idle.mtl
o mob_kuda_idle
v 1.374300 0.012055 0.343575
v 1.374300 0.880035 0.343575
v 1.421185 0.012055 0.362995
v 1.421185 0.880035 0.362995
v 1.440604 0.012055 0.409879
v 1.440604 0.880035 0.409879
v 1.421185 0.012055 0.456763
v 1.421185 0.880035 0.456763
v 1.374300 0.012055 0.476183
v 1.374300 0.880035 0.476183
v 1.327416 0.012055 0.456763
v 1.327416 0.880035 0.456763
v 1.307997 0.012055 0.409879
v 1.307997 0.880035 0.409879
v 1.327416 0.012055 0.362995
v 1.327416 0.880035 0.362995
v 1.374300 0.000000 0.337548
v 1.374300 0.144663 0.337548
v 1.425446 0.000000 0.358734
v 1.425446 0.144663 0.358734
v 1.446632 0.000000 0.409879
v 1.446632 0.144663 0.409879
v 1.425446 0.000000 0.461025
v 1.425446 0.144663 0.461025
v 1.374300 0.000000 0.482211
v 1.374300 0.144663 0.482211
v 1.323155 0.000000 0.461025
v 1.323155 0.144663 0.461025
v 1.301969 0.000000 0.409879
v 1.301969 0.144663 0.409879
v 1.323155 0.000000 0.358734
v 1.323155 0.144663 0.358734
v 1.374300 0.012055 -0.476183
v 1.374300 0.880035 -0.476183
v 1.421185 0.012055 -0.456763
v 1.421185 0.880035 -0.456763
v 1.440604 0.012055 -0.409879
v 1.440604 0.880035 -0.409879
v 1.421185 0.012055 -0.362995
v 1.421185 0.880035 -0.362995
v 1.374300 0.012055 -0.343575
v 1.374300 0.880035 -0.343575
v 1.327416 0.012055 -0.362995
v 1.327416 0.880035 -0.362995
v 1.307997 0.012055 -0.409879
v 1.307997 0.880035 -0.409879
v 1.327416 0.012055 -0.456763
v 1.327416 0.880035 -0.456763
v 1.374300 0.000000 -0.482211
v 1.374300 0.144663 -0.482211
v 1.425446 0.000000 -0.461025
v 1.425446 0.144663 -0.461025
v 1.446632 0.000000 -0.409879
v 1.446632 0.144663 -0.409879
v 1.425446 0.000000 -0.358733
v 1.425446 0.144663 -0.358733
v 1.374300 0.000000 -0.337547
v 1.374300 0.144663 -0.337547
v 1.323155 0.000000 -0.358733
v 1.323155 0.144663 -0.358733
v 1.301969 0.000000 -0.409879
v 1.301969 0.144663 -0.409879
v 1.323155 0.000000 -0.461025
v 1.323155 0.144663 -0.461025
v 1.760069 0.012055 0.343575
v 1.760069 0.880035 0.343575
v 1.806953 0.012055 0.362995
v 1.806953 0.880035 0.362995
v 1.826373 0.012055 0.409879
v 1.826373 0.880035 0.409879
v 1.806953 0.012055 0.456763
v 1.806953 0.880035 0.456763
v 1.760069 0.012055 0.476183
v 1.760069 0.880035 0.476183
v 1.713185 0.012055 0.456763
v 1.713185 0.880035 0.456763
v 1.693765 0.012055 0.409879
v 1.693765 0.880035 0.409879
v 1.713185 0.012055 0.362995
v 1.713185 0.880035 0.362995
v 1.760069 0.000000 0.337548
v 1.760069 0.144663 0.337548
v 1.811215 0.000000 0.358734
v 1.811215 0.144663 0.358734
v 1.832401 0.000000 0.409879
v 1.832401 0.144663 0.409879
v 1.811215 0.000000 0.461025
v 1.811215 0.144663 0.461025
v 1.760069 0.000000 0.482211
v 1.760069 0.144663 0.482211
v 1.708923 0.000000 0.461025
v 1.708923 0.144663 0.461025
v 1.687737 0.000000 0.409879
v 1.687737 0.144663 0.409879
v 1.708923 0.000000 0.358734
v 1.708923 0.144663 0.358734
v 1.760069 0.012055 -0.476183
v 1.760069 0.880035 -0.476183
v 1.806953 0.012055 -0.456763
v 1.806953 0.880035 -0.456763
v 1.826373 0.012055 -0.409879
v 1.826373 0.880035 -0.409879
v 1.806953 0.012055 -0.362995
v 1.806953 0.880035 -0.362995
v 1.760069 0.012055 -0.343575
v 1.760069 0.880035 -0.343575
v 1.713185 0.012055 -0.362995
v 1.713185 0.880035 -0.362995
v 1.693765 0.012055 -0.409879
v 1.693765 0.880035 -0.409879
v 1.713185 0.012055 -0.456763
v 1.713185 0.880035 -0.456763
v 1.760069 0.000000 -0.482211
v 1.760069 0.144663 -0.482211
v 1.811215 0.000000 -0.461025
v 1.811215 0.144663 -0.461025
v 1.832401 0.000000 -0.409879
v 1.832401 0.144663 -0.409879
v 1.811215 0.000000 -0.358733
v 1.811215 0.144663 -0.358733
v 1.760069 0.000000 -0.337547
v 1.760069 0.144663 -0.337547
v 1.708923 0.000000 -0.358733
v 1.708923 0.144663 -0.358733
v 1.687737 0.000000 -0.409879
v 1.687737 0.144663 -0.409879
v 1.708922 0.000000 -0.461025
v 1.708922 0.144663 -0.461025
v 1.567185 0.599750 0.000000
v 1.872500 0.821324 0.377097
v 1.450567 0.821324 0.610161
v 1.189796 0.821327 0.000000
v 1.450567 0.821324 -0.610160
v 1.872499 0.821324 -0.377097
v 1.683803 1.179850 0.610161
v 1.261869 1.179850 0.377097
v 1.261869 1.179850 -0.377097
v 1.683803 1.179850 -0.610160
v 1.944574 1.179848 0.000000
v 1.567185 1.401425 0.000000
v 1.468949 0.737029 0.513982
v 1.498640 0.659612 0.358641
v 1.534440 0.612597 0.171326
v 1.652913 0.612597 0.105885
v 1.746643 0.659612 0.221651
v 1.824373 0.737029 0.317655
v 1.791628 0.799246 0.488985
v 1.678098 0.789851 0.580295
v 1.554679 0.799246 0.619870
v 1.910103 0.799246 -0.211770
v 1.926103 0.789853 0.000000
v 1.910103 0.799246 0.211770
v 1.652913 0.612597 -0.105885
v 1.746643 0.659612 -0.221650
v 1.824373 0.737029 -0.317656
v 1.249281 0.737030 0.000000
v 1.345361 0.659614 0.000000
v 1.461217 0.612597 0.000000
v 1.362980 0.799246 0.513984
v 1.276814 0.789853 0.358642
v 1.216536 0.799247 0.171327
v 1.468949 0.737029 -0.513982
v 1.498639 0.659612 -0.358640
v 1.534440 0.612597 -0.171326
v 1.216536 0.799247 -0.171327
v 1.276814 0.789853 -0.358642
v 1.362980 0.799246 -0.513983
v 1.554679 0.799246 -0.619870
v 1.678098 0.789851 -0.580295
v 1.791628 0.799246 -0.488984
v 1.970818 1.101257 0.105885
v 1.968468 1.000587 0.221651
v 1.930342 0.899916 0.317656
v 1.930342 0.899916 -0.317656
v 1.968468 1.000587 -0.221652
v 1.970818 1.101257 -0.105885
v 1.632675 1.101258 0.685313
v 1.567185 1.000587 0.717289
v 1.501694 0.899916 0.685313
v 1.857120 0.899916 0.488987
v 1.815192 1.000587 0.580299
v 1.751150 1.101258 0.619872
v 1.204027 1.101258 0.317656
v 1.165901 1.000587 0.221652
v 1.163551 0.899917 0.105885
v 1.383219 0.899916 0.619872
v 1.319178 1.000587 0.580298
v 1.277248 1.101258 0.488987
v 1.277248 1.101258 -0.488987
v 1.319178 1.000587 -0.580298
v 1.383219 0.899916 -0.619872
v 1.163551 0.899917 -0.105885
v 1.165901 1.000587 -0.221650
v 1.204027 1.101258 -0.317656
v 1.751150 1.101258 -0.619872
v 1.815192 1.000587 -0.580298
v 1.857120 0.899916 -0.488987
v 1.501695 0.899916 -0.685313
v 1.567185 1.000587 -0.717288
v 1.632675 1.101258 -0.685313
v 1.917834 1.201927 0.171327
v 1.857555 1.211322 0.358642
v 1.771389 1.201928 0.513984
v 1.579691 1.201928 0.619870
v 1.456271 1.211323 0.580295
v 1.342741 1.201928 0.488985
v 1.224267 1.201928 0.211770
v 1.208267 1.211322 0.000000
v 1.224267 1.201928 -0.211770
v 1.342741 1.201928 -0.488984
v 1.456271 1.211323 -0.580295
v 1.579691 1.201928 -0.619870
v 1.771389 1.201928 -0.513983
v 1.857555 1.211322 -0.358642
v 1.917834 1.201927 -0.171327
v 1.599929 1.388577 0.171326
v 1.635730 1.341562 0.358641
v 1.665419 1.264145 0.513982
v 1.885087 1.264144 0.000000
v 1.789008 1.341561 0.000000
v 1.673152 1.388577 0.000000
v 1.481456 1.388577 0.105885
v 1.387726 1.341562 0.221651
v 1.309996 1.264145 0.317656
v 1.481456 1.388577 -0.105885
v 1.387726 1.341562 -0.221650
v 1.309996 1.264145 -0.317655
v 1.599929 1.388577 -0.171326
v 1.635730 1.341562 -0.358640
v 1.665419 1.264145 -0.513982
v 1.719841 1.359108 -0.188548
v 1.836461 1.290637 -0.188549
v 1.755877 1.290638 -0.377098
v 1.508875 1.359108 -0.305076
v 1.544911 1.290638 -0.493627
v 1.414528 1.290638 -0.421606
v 1.378491 1.359108 0.000000
v 1.284144 1.290638 -0.116529
v 1.284144 1.290638 0.116529
v 1.508875 1.359108 0.305077
v 1.414528 1.290638 0.421607
v 1.544911 1.290638 0.493627
v 1.719841 1.359108 0.188548
v 1.755877 1.290638 0.377099
v 1.836461 1.290637 0.188549
v 1.930809 1.111377 -0.305079
v 1.908538 1.000587 -0.421609
v 1.850227 1.111377 -0.493630
v 1.508873 1.111377 -0.682181
v 1.436800 1.000587 -0.682182
v 1.378490 1.111377 -0.610160
v 1.167522 1.111377 -0.116529
v 1.145250 1.000587 0.000000
v 1.167522 1.111377 0.116529
v 1.378488 1.111377 0.610161
v 1.436800 1.000587 0.682182
v 1.508873 1.111377 0.682181
v 1.850227 1.111377 0.493631
v 1.908537 1.000586 0.421610
v 1.930809 1.111376 0.305079
v 1.697570 1.000587 -0.682182
v 1.755880 0.889797 -0.610160
v 1.625496 0.889797 -0.682181
v 1.225831 1.000587 -0.421610
v 1.284143 0.889797 -0.493631
v 1.203560 0.889797 -0.305080
v 1.225833 1.000587 0.421610
v 1.203560 0.889797 0.305080
v 1.284143 0.889797 0.493631
v 1.697570 1.000587 0.682182
v 1.625496 0.889797 0.682181
v 1.755880 0.889797 0.610161
v 1.989119 1.000587 0.000000
v 1.966847 0.889797 0.116529
v 1.966847 0.889797 -0.116528
v 1.719842 0.710536 -0.421607
v 1.625495 0.642066 -0.305078
v 1.589458 0.710536 -0.493628
v 1.378491 0.710536 -0.377098
v 1.414529 0.642066 -0.188548
v 1.297909 0.710537 -0.188548
v 1.297909 0.710537 0.188549
v 1.414529 0.642067 0.188549
v 1.378491 0.710537 0.377100
v 1.850225 0.710536 -0.116528
v 1.850225 0.710537 0.116529
v 1.755879 0.642067 0.000000
v 1.589459 0.710536 0.493627
v 1.625495 0.642066 0.305078
v 1.719843 0.710536 0.421608
v 1.567185 1.257288 -0.355557
v 1.567185 1.667737 -0.738638
v 1.358382 1.189214 -0.455049
v 1.431463 1.623488 -0.803309
v 1.358382 1.053066 -0.654036
v 1.431463 1.534992 -0.932650
v 1.567185 0.984991 -0.753529
v 1.567185 1.490744 -0.997320
v 1.775988 1.053066 -0.654035
v 1.702907 1.534992 -0.932650
v 1.775988 1.189214 -0.455049
v 1.702907 1.623488 -0.803309
v 1.567185 1.479784 -0.964421
v 1.678407 1.574745 -0.826575
v 1.524702 1.574745 -0.741379
v 1.429708 1.574746 -0.964421
v 1.524702 1.574745 -1.187463
v 1.678407 1.574745 -1.102267
v 1.609666 1.728399 -0.741379
v 1.455963 1.728399 -0.826575
v 1.455963 1.728399 -1.102267
v 1.609666 1.728399 -1.187463
v 1.704662 1.728397 -0.964421
v 1.567185 1.823359 -0.964421
v 1.542215 1.505440 -0.833321
v 1.632558 1.505440 -0.883398
v 1.607589 1.561256 -0.752297
v 1.697934 1.561257 -0.964421
v 1.632558 1.505440 -1.045445
v 1.486377 1.505440 -0.964421
v 1.461407 1.561257 -0.833321
v 1.542215 1.505440 -1.095521
v 1.461407 1.561257 -1.095521
v 1.607589 1.561256 -1.176546
v 1.713367 1.651572 -0.883398
v 1.713367 1.651572 -1.045445
v 1.567185 1.651572 -0.702219
v 1.657531 1.651572 -0.752296
v 1.421003 1.651572 -0.883398
v 1.476839 1.651572 -0.752296
v 1.476839 1.651572 -1.176547
v 1.421003 1.651572 -1.045445
v 1.657531 1.651572 -1.176547
v 1.567185 1.651572 -1.226623
v 1.672963 1.741886 -0.833321
v 1.526780 1.741887 -0.752297
v 1.436436 1.741886 -0.964421
v 1.526780 1.741887 -1.176546
v 1.672963 1.741886 -1.095521
v 1.592155 1.797703 -0.833321
v 1.647991 1.797703 -0.964421
v 1.501810 1.797703 -0.883398
v 1.501810 1.797703 -1.045445
v 1.592155 1.797703 -1.095521
v 1.567185 1.434577 -1.157305
v 1.654418 1.501216 -1.093927
v 1.533865 1.501216 -1.054757
v 1.459359 1.501216 -1.157305
v 1.533865 1.501216 -1.259854
v 1.654418 1.501216 -1.220684
v 1.600504 1.609043 -1.054757
v 1.479952 1.609043 -1.093927
v 1.479952 1.609043 -1.220684
v 1.600504 1.609043 -1.259854
v 1.675009 1.609043 -1.157305
v 1.567185 1.675682 -1.157305
v 1.547600 1.452580 -1.097029
v 1.618458 1.452581 -1.120054
v 1.598875 1.491750 -1.059777
v 1.669733 1.491750 -1.157305
v 1.618458 1.452581 -1.194558
v 1.503807 1.452581 -1.157305
v 1.484222 1.491750 -1.097029
v 1.547600 1.452580 -1.217582
v 1.484222 1.491750 -1.217582
v 1.598875 1.491750 -1.254834
v 1.681838 1.555129 -1.120054
v 1.681838 1.555129 -1.194558
v 1.567185 1.555129 -1.036753
v 1.638043 1.555129 -1.059776
v 1.452532 1.555129 -1.120054
v 1.496325 1.555129 -1.059776
v 1.496325 1.555129 -1.254835
v 1.452532 1.555129 -1.194558
v 1.638043 1.555129 -1.254835
v 1.567185 1.555129 -1.277858
v 1.650148 1.618509 -1.097029
v 1.535495 1.618509 -1.059777
v 1.464637 1.618509 -1.157305
v 1.535495 1.618509 -1.254834
v 1.650148 1.618509 -1.217582
v 1.586769 1.657678 -1.097029
v 1.630563 1.657678 -1.157305
v 1.515911 1.657678 -1.120054
v 1.515911 1.657678 -1.194558
v 1.586769 1.657678 -1.217582
v 1.506909 1.506908 -1.253748
v 1.524355 1.520237 -1.241073
v 1.500244 1.520237 -1.233238
v 1.485343 1.520237 -1.253748
v 1.500244 1.520237 -1.274257
v 1.524355 1.520237 -1.266423
v 1.513573 1.541801 -1.233238
v 1.489462 1.541801 -1.241073
v 1.489462 1.541801 -1.266423
v 1.513573 1.541801 -1.274257
v 1.528473 1.541801 -1.253748
v 1.506909 1.555129 -1.253748
v 1.627461 1.506908 -1.253748
v 1.644908 1.520237 -1.241073
v 1.620797 1.520237 -1.233238
v 1.605896 1.520237 -1.253748
v 1.620797 1.520237 -1.274257
v 1.644908 1.520237 -1.266423
v 1.634125 1.541801 -1.233238
v 1.610015 1.541801 -1.241073
v 1.610015 1.541801 -1.266423
v 1.634125 1.541801 -1.274257
v 1.649026 1.541801 -1.253748
v 1.627461 1.555129 -1.253748
v 1.488417 1.684550 -0.856935
v 1.486007 1.847724 -0.840992
v 1.527363 1.688608 -0.830804
v 1.490334 1.848175 -0.838088
v 1.530999 1.697725 -0.784764
v 1.490739 1.849187 -0.832973
v 1.496587 1.705038 -0.753483
v 1.486915 1.850000 -0.829498
v 1.450040 1.705038 -0.760518
v 1.481743 1.850000 -0.830279
v 1.426408 1.697725 -0.800571
v 1.479117 1.849187 -0.834729
v 1.443488 1.688608 -0.843480
v 1.481015 1.848175 -0.839497
v 1.645953 1.684550 -0.856935
v 1.648363 1.847724 -0.840992
v 1.690882 1.688608 -0.843480
v 1.653355 1.848175 -0.839497
v 1.707960 1.697725 -0.800571
v 1.655252 1.849187 -0.834729
v 1.684330 1.705038 -0.760518
v 1.652627 1.850000 -0.830279
v 1.637783 1.705038 -0.753483
v 1.647455 1.850000 -0.829498
v 1.603371 1.697725 -0.784764
v 1.643631 1.849187 -0.832973
v 1.607007 1.688608 -0.830804
v 1.644035 1.848175 -0.838088
v 1.446632 1.639516 -1.036753
v 1.472802 1.659509 -1.017739
v 1.436636 1.659509 -1.005989
v 1.414284 1.659509 -1.036753
v 1.436636 1.659509 -1.067517
v 1.472802 1.659509 -1.055766
v 1.456627 1.691856 -1.005989
v 1.420463 1.691856 -1.017739
v 1.420463 1.691856 -1.055766
v 1.456627 1.691856 -1.067517
v 1.478980 1.691856 -1.036753
v 1.446632 1.711848 -1.036753
v 1.687737 1.639516 -1.036753
v 1.713907 1.659509 -1.017739
v 1.677741 1.659509 -1.005989
v 1.655390 1.659509 -1.036753
v 1.677741 1.659509 -1.067517
v 1.713907 1.659509 -1.055766
v 1.697733 1.691856 -1.005989
v 1.661568 1.691856 -1.017739
v 1.661568 1.691856 -1.055766
v 1.697733 1.691856 -1.067517
v 1.720086 1.691856 -1.036753
v 1.687737 1.711848 -1.036753
v 1.567185 1.118906 -0.661305
v 1.567185 1.247721 -0.494775
v 1.642586 1.101498 -0.629438
v 1.576610 1.245545 -0.490791
v 1.661209 1.062381 -0.557836
v 1.578937 1.240656 -0.481840
v 1.609030 1.031012 -0.500414
v 1.572416 1.236734 -0.474663
v 1.525340 1.031012 -0.500414
v 1.561954 1.236734 -0.474663
v 1.473161 1.062381 -0.557836
v 1.555432 1.240656 -0.481840
v 1.491783 1.101498 -0.629438
v 1.557760 1.245545 -0.490791
v 1.567185 1.220170 -0.733636
v 1.567185 1.348986 -0.567106
v 1.642586 1.202762 -0.701769
v 1.576610 1.346810 -0.563123
v 1.661209 1.163646 -0.630167
v 1.578937 1.341920 -0.554172
v 1.609030 1.132277 -0.572746
v 1.572416 1.337999 -0.546994
v 1.525340 1.132277 -0.572746
v 1.561954 1.337999 -0.546994
v 1.473161 1.163646 -0.630167
v 1.555432 1.341920 -0.554172
v 1.491783 1.202762 -0.701769
v 1.557760 1.346810 -0.563123
v 1.567185 1.321434 -0.805968
v 1.567185 1.450250 -0.639438
v 1.642586 1.304027 -0.774101
v 1.576610 1.448074 -0.635455
v 1.661209 1.264910 -0.702499
v 1.578937 1.443184 -0.626504
v 1.609030 1.233541 -0.645077
v 1.572416 1.439263 -0.619326
v 1.525340 1.233541 -0.645077
v 1.561954 1.439263 -0.619326
v 1.473161 1.264910 -0.702499
v 1.555432 1.443184 -0.626504
v 1.491783 1.304027 -0.774101
v 1.557760 1.448074 -0.635455
v 1.567185 1.422699 -0.878300
v 1.567185 1.551514 -0.711769
v 1.642586 1.405291 -0.846433
v 1.576610 1.549338 -0.707786
v 1.661209 1.366174 -0.774831
v 1.578938 1.544448 -0.698835
v 1.609030 1.334805 -0.717409
v 1.572416 1.540527 -0.691658
v 1.525340 1.334805 -0.717409
v 1.561954 1.540527 -0.691658
v 1.473161 1.366174 -0.774831
v 1.555432 1.544448 -0.698835
v 1.491783 1.405291 -0.846433
v 1.557760 1.549338 -0.707786
v 1.567185 1.523963 -0.950631
v 1.567185 1.652778 -0.784101
v 1.642586 1.506555 -0.918764
v 1.576610 1.650602 -0.780118
v 1.661209 1.467438 -0.847162
v 1.578938 1.645713 -0.771167
v 1.609030 1.436069 -0.789740
v 1.572416 1.641791 -0.763989
v 1.525340 1.436069 -0.789740
v 1.561954 1.641791 -0.763989
v 1.473161 1.467438 -0.847162
v 1.555432 1.645713 -0.771167
v 1.491783 1.506555 -0.918764
v 1.557760 1.650602 -0.780118
v 1.567185 1.625227 -1.022963
v 1.567185 1.754043 -0.856433
v 1.642586 1.607819 -0.991096
v 1.576610 1.751867 -0.852449
v 1.661209 1.568703 -0.919494
v 1.578938 1.746977 -0.843499
v 1.609030 1.537333 -0.862072
v 1.572416 1.743055 -0.836321
v 1.525340 1.537333 -0.862072
v 1.561954 1.743055 -0.836321
v 1.473161 1.568703 -0.919494
v 1.555432 1.746977 -0.843499
v 1.491783 1.607819 -0.991096
v 1.557760 1.751867 -0.852449
v 1.567185 1.059936 0.708014
v 1.567185 0.634689 0.816975
v 1.640266 1.048344 0.667444
v 1.629825 0.624755 0.782201
v 1.640266 1.025162 0.586304
v 1.629825 0.604883 0.712652
v 1.567185 1.013571 0.545734
v 1.567185 0.594948 0.677879
v 1.494103 1.025162 0.586304
v 1.504544 0.604883 0.712652
v 1.494103 1.048344 0.667444
v 1.504544 0.624755 0.782201
v 1.567185 0.623790 0.675653
v 1.567185 0.236527 0.639395
v 1.504544 0.619304 0.711541
v 1.514984 0.232788 0.669300
v 1.504543 0.610333 0.783313
v 1.514984 0.225312 0.729111
v 1.567185 0.605847 0.819200
v 1.567185 0.221573 0.759017
v 1.629825 0.610333 0.783313
v 1.619385 0.225312 0.729111
v 1.629825 0.619304 0.711541
v 1.619385 0.232788 0.669300
vn -0.000000 -0.630300 -0.776400
vn -0.000000 0.630300 -0.776400
vn 0.549000 0.630300 -0.549000
vn 0.549000 -0.630300 -0.549000
vn 0.776400 0.630300 0.000000
vn 0.776400 -0.630300 0.000000
vn 0.549000 0.630300 0.549000
vn 0.549000 -0.630300 0.549000
vn -0.000000 0.630300 0.776400
vn -0.000000 -0.630300 0.776400
vn -0.549000 0.630300 0.549000
vn -0.549000 -0.630300 0.549000
vn -0.776400 0.630300 0.000000
vn -0.776400 -0.630300 0.000000
vn -0.549000 0.630300 -0.549000
vn -0.549000 -0.630300 -0.549000
vn 0.001900 -1.000000 0.000000
vn 0.202900 -0.975100 0.089000
vn -0.076400 -0.986700 0.143600
vn 0.787800 -0.511000 0.343900
vn 0.628800 -0.728100 0.273100
vn 0.826100 -0.535700 0.174800
vn -0.250100 -0.968200 0.000000
vn -0.076400 -0.986700 -0.143600
vn 0.202900 -0.975100 -0.089000
vn 0.921400 -0.270400 0.279300
vn -0.369400 -0.626900 0.686000
vn -0.025700 -0.708700 0.705000
vn -0.229000 -0.387900 0.892800
vn -0.886400 -0.462900 0.000000
vn -0.834500 -0.530600 0.148700
vn -0.962100 -0.256200 0.093200
vn -0.369400 -0.626900 -0.686000
vn -0.585400 -0.630100 -0.510100
vn -0.604000 -0.346700 -0.717700
vn 0.787800 -0.511000 -0.343900
vn 0.616000 -0.619300 -0.486800
vn 0.814600 -0.304600 -0.493600
vn 0.814600 -0.304600 0.493600
vn -0.604000 -0.346700 0.717700
vn -0.962100 -0.256200 -0.093200
vn -0.229000 -0.387900 -0.892800
vn 0.921400 -0.270400 -0.279300
vn 0.369400 0.626900 0.686000
vn 0.585400 0.630100 0.510100
vn 0.272100 0.820400 0.502900
vn -0.787800 0.511000 0.343900
vn -0.616000 0.619300 0.486800
vn -0.628800 0.728100 0.273100
vn -0.787800 0.511000 -0.343900
vn -0.826100 0.535700 -0.174800
vn -0.628800 0.728100 -0.273100
vn 0.369400 0.626900 -0.686000
vn 0.025700 0.708700 -0.705000
vn 0.272100 0.820400 -0.502900
vn 0.886400 0.462900 0.000000
vn 0.834500 0.530600 -0.148700
vn 0.729700 0.683800 0.000000
vn 0.250100 0.968200 0.000000
vn 0.076400 0.986700 -0.143600
vn -0.001900 1.000000 0.000000
vn 0.507300 0.861800 0.000000
vn 0.361900 0.918700 -0.157800
vn 0.629300 0.760500 -0.160000
vn 0.169300 0.934200 -0.314100
vn 0.478900 0.812700 -0.332000
vn 0.739300 0.591100 -0.322600
vn 0.585400 0.630100 -0.510100
vn -0.202900 0.975100 -0.089000
vn -0.143700 0.953500 -0.265000
vn -0.068400 0.877500 -0.474700
vn -0.422500 0.887500 -0.184000
vn -0.387900 0.836300 -0.387600
vn -0.336500 0.702200 -0.627500
vn -0.616000 0.619300 -0.486800
vn -0.202900 0.975100 0.089000
vn -0.437900 0.899000 0.000000
vn -0.655900 0.749300 -0.091000
vn -0.422500 0.887500 0.184000
vn -0.655900 0.749300 0.091000
vn -0.839100 0.544000 0.000000
vn -0.826100 0.535700 0.174800
vn 0.076400 0.986700 0.143600
vn -0.143700 0.953500 0.265000
vn -0.387900 0.836300 0.387600
vn 0.169300 0.934200 0.314100
vn -0.068400 0.877500 0.474700
vn -0.336400 0.702200 0.627500
vn 0.025700 0.708700 0.705000
vn 0.361900 0.918700 0.157800
vn 0.478900 0.812700 0.332000
vn 0.629300 0.760500 0.160000
vn 0.739300 0.591100 0.322600
vn 0.834500 0.530600 0.148700
vn 0.962100 0.256200 -0.093200
vn 0.981500 0.000300 -0.191400
vn 0.912100 0.303000 -0.276000
vn 0.916000 0.010500 -0.401000
vn 0.803400 0.338200 -0.490100
vn 0.766700 -0.001100 -0.642000
vn 0.604000 0.346700 -0.717700
vn 0.229000 0.387900 -0.892800
vn -0.000000 -0.000000 -1.000000
vn -0.219000 0.426700 -0.877500
vn -0.466500 0.014000 -0.884400
vn -0.595600 0.385200 -0.704900
vn -0.766700 0.001100 -0.642000
vn -0.814600 0.304600 -0.493600
vn -0.921400 0.270400 -0.279300
vn -0.981500 -0.000300 -0.191400
vn -0.953400 0.286900 -0.093200
vn -1.000000 0.009300 0.000000
vn -0.953400 0.286900 0.093200
vn -0.981500 -0.000300 0.191400
vn -0.921400 0.270400 0.279300
vn -0.814600 0.304600 0.493600
vn -0.766700 0.001100 0.642000
vn -0.595600 0.385200 0.704900
vn -0.466500 0.014000 0.884400
vn -0.219000 0.426700 0.877500
vn -0.000000 -0.000000 1.000000
vn 0.229000 0.387900 0.892800
vn 0.604000 0.346700 0.717700
vn 0.766700 -0.001100 0.642000
vn 0.803400 0.338200 0.490100
vn 0.916000 0.010500 0.401000
vn 0.912100 0.303000 0.276000
vn 0.981500 0.000300 0.191400
vn 0.962100 0.256200 0.093200
vn 0.466500 -0.014000 -0.884400
vn 0.595600 -0.385200 -0.704900
vn 0.219000 -0.426700 -0.877500
vn 0.336500 -0.702200 -0.627500
vn -0.025700 -0.708700 -0.705000
vn -0.916000 -0.010500 -0.401000
vn -0.803400 -0.338200 -0.490100
vn -0.912100 -0.303000 -0.276000
vn -0.739300 -0.591100 -0.322600
vn -0.834500 -0.530600 -0.148700
vn -0.916000 -0.010500 0.401000
vn -0.912100 -0.303000 0.276000
vn -0.803400 -0.338200 0.490100
vn -0.739300 -0.591100 0.322600
vn -0.585400 -0.630100 0.510100
vn 0.466500 -0.014000 0.884400
vn 0.219000 -0.426700 0.877500
vn 0.595600 -0.385200 0.704900
vn 0.336400 -0.702200 0.627500
vn 0.616000 -0.619300 0.486800
vn 1.000000 -0.009300 0.000000
vn 0.953400 -0.286900 0.093200
vn 0.953400 -0.286900 -0.093200
vn 0.839100 -0.544000 0.000000
vn 0.826100 -0.535700 -0.174800
vn 0.628800 -0.728100 -0.273100
vn 0.422500 -0.887500 -0.184000
vn 0.387900 -0.836300 -0.387600
vn 0.143700 -0.953500 -0.265000
vn 0.068400 -0.877500 -0.474700
vn -0.169300 -0.934200 -0.314100
vn -0.272100 -0.820400 -0.502900
vn -0.478900 -0.812700 -0.332000
vn -0.361900 -0.918700 -0.157800
vn -0.629300 -0.760500 -0.160000
vn -0.507300 -0.861800 0.000000
vn -0.729700 -0.683800 0.000000
vn -0.629300 -0.760500 0.160000
vn -0.361900 -0.918700 0.157800
vn -0.478900 -0.812700 0.332000
vn -0.169300 -0.934200 0.314100
vn -0.272100 -0.820400 0.502900
vn 0.655900 -0.749300 -0.091000
vn 0.655900 -0.749300 0.091000
vn 0.437900 -0.899000 0.000000
vn 0.422500 -0.887500 0.184000
vn 0.068400 -0.877500 0.474700
vn 0.143700 -0.953500 0.265000
vn 0.387900 -0.836300 0.387600
vn -0.000000 0.014300 0.999900
vn -0.000000 0.970900 0.239500
vn -0.645900 0.760300 -0.068300
vn -0.721600 -0.221000 0.656000
vn -0.645900 0.339100 -0.683900
vn -0.721600 -0.691500 -0.031700
vn -0.000000 0.128500 -0.991700
vn -0.000000 -0.926800 -0.375500
vn 0.645900 0.339100 -0.683900
vn 0.721600 -0.691500 -0.031700
vn 0.645900 0.760300 -0.068300
vn 0.721600 -0.221000 0.656000
vn 0.004000 -1.000000 0.000000
vn 0.464800 -0.858000 0.218400
vn -0.184000 -0.909000 0.374000
vn 0.806200 -0.457600 0.374900
vn 0.869700 -0.493500 0.000000
vn -0.560300 -0.828300 0.000000
vn -0.184000 -0.909000 -0.374000
vn 0.464800 -0.858000 -0.218400
vn 0.979400 0.002400 0.202000
vn -0.366100 -0.549500 0.751000
vn 0.345100 -0.626000 0.699300
vn -0.910700 -0.413000 0.000000
vn -0.766900 -0.535400 0.353900
vn -0.979400 -0.002400 0.202000
vn -0.366100 -0.549500 -0.751000
vn -0.766900 -0.535400 -0.353900
vn -0.736400 0.007500 -0.676500
vn 0.806200 -0.457600 -0.374900
vn 0.345100 -0.626000 -0.699300
vn 0.736400 -0.007500 -0.676500
vn 0.736400 -0.007500 0.676500
vn -0.736400 0.007500 0.676500
vn -0.979400 -0.002400 -0.202000
vn 0.979400 0.002400 -0.202000
vn 0.366100 0.549500 0.751000
vn 0.766900 0.535400 0.353900
vn 0.184000 0.909000 0.374000
vn -0.806200 0.457600 0.374900
vn -0.345100 0.626000 0.699300
vn -0.464800 0.858000 0.218400
vn -0.806200 0.457600 -0.374900
vn -0.869700 0.493500 0.000000
vn -0.464800 0.858000 -0.218400
vn 0.366100 0.549500 -0.751000
vn -0.345100 0.626000 -0.699300
vn 0.184000 0.909000 -0.374000
vn 0.910700 0.413000 0.000000
vn 0.766900 0.535400 -0.353900
vn 0.560300 0.828300 0.000000
vn -0.004000 1.000000 0.000000
vn -0.000000 -1.000000 0.000000
vn 0.425300 -0.850700 0.309000
vn -0.162500 -0.850700 0.500000
vn 0.723600 -0.447200 0.525700
vn 0.850600 -0.525700 0.000000
vn -0.525700 -0.850700 0.000000
vn -0.162500 -0.850700 -0.500000
vn 0.425300 -0.850700 -0.309000
vn 0.951100 -0.000000 0.309000
vn -0.276400 -0.447200 0.850700
vn 0.262900 -0.525700 0.809000
vn -0.894400 -0.447200 0.000000
vn -0.688200 -0.525700 0.500000
vn -0.951100 -0.000000 0.309000
vn -0.276400 -0.447200 -0.850700
vn -0.688200 -0.525700 -0.500000
vn -0.587800 -0.000000 -0.809000
vn 0.723600 -0.447200 -0.525700
vn 0.262900 -0.525700 -0.809000
vn 0.587800 -0.000000 -0.809000
vn 0.587800 -0.000000 0.809000
vn -0.587800 -0.000000 0.809000
vn -0.951100 -0.000000 -0.309000
vn 0.951100 -0.000000 -0.309000
vn 0.276400 0.447200 0.850600
vn 0.688200 0.525700 0.500000
vn 0.162400 0.850700 0.500000
vn -0.723600 0.447200 0.525700
vn -0.262900 0.525700 0.809000
vn -0.425300 0.850700 0.309000
vn -0.723600 0.447200 -0.525700
vn -0.850600 0.525700 0.000000
vn -0.425300 0.850700 -0.309000
vn 0.276400 0.447200 -0.850600
vn -0.262900 0.525700 -0.809000
vn 0.162400 0.850700 -0.500000
vn 0.894400 0.447200 0.000000
vn 0.688200 0.525700 -0.500000
vn 0.525700 0.850700 0.000000
vn -0.000000 1.000000 0.000000
vn 0.276400 0.447200 0.850700
vn 0.276400 0.447200 -0.850700
vn 0.111200 -0.668000 -0.735800
vn 0.121800 0.579800 -0.805600
vn 0.612300 0.631000 -0.476400
vn 0.730100 -0.603500 -0.320600
vn 0.658200 0.745700 0.103500
vn 0.787900 -0.458600 0.411000
vn 0.224700 0.837900 0.497500
vn 0.241000 -0.342400 0.908100
vn -0.361700 0.837800 0.408900
vn -0.498600 -0.342400 0.796300
vn -0.659300 0.745800 -0.095600
vn -0.874100 -0.458600 0.159900
vn -0.444200 0.630900 -0.636100
vn -0.602700 -0.603500 -0.522000
vn -0.111200 -0.668000 -0.735800
vn -0.121800 0.579800 -0.805600
vn 0.444200 0.630900 -0.636100
vn 0.602700 -0.603500 -0.522000
vn 0.659300 0.745800 -0.095600
vn 0.874100 -0.458600 0.159900
vn 0.361700 0.837800 0.408900
vn 0.498600 -0.342400 0.796300
vn -0.224700 0.837900 0.497500
vn -0.241000 -0.342400 0.908100
vn -0.658100 0.745700 0.103500
vn -0.787900 -0.458600 0.411000
vn -0.612300 0.630900 -0.476400
vn -0.730100 -0.603500 -0.320600
vn -0.000000 0.019400 -0.999800
vn -0.000000 0.981400 -0.191800
vn 0.499500 0.866100 0.019300
vn 0.693300 -0.140600 -0.706800
vn 0.622800 0.607000 0.493600
vn 0.864500 -0.500300 -0.048500
vn 0.277200 0.399200 0.873900
vn 0.384700 -0.788700 0.479500
vn -0.277200 0.399200 0.873900
vn -0.384700 -0.788700 0.479500
vn -0.622800 0.607000 0.493600
vn -0.864500 -0.500300 -0.048500
vn -0.499500 0.866100 0.019300
vn -0.693300 -0.140600 -0.706800
vn 0.277200 0.399200 0.874000
vn -0.000000 0.796400 0.604700
vn -0.000000 -0.381000 0.924600
vn 0.679300 -0.488700 0.547500
vn 0.693000 0.686500 0.220000
vn 0.679300 -0.704200 -0.206700
vn 0.693000 0.466700 -0.549500
vn -0.000000 -0.811900 -0.583800
vn -0.000000 0.356700 -0.934200
vn -0.679300 -0.704200 -0.206700
vn -0.693000 0.466700 -0.549500
vn -0.679300 -0.488700 0.547500
vn -0.693000 0.686500 0.220000
vn -0.000000 0.693100 -0.720900
vn -0.000000 -0.519700 -0.854400
vn -0.678400 -0.568200 -0.465700
vn -0.693900 0.643400 -0.323300
vn -0.678400 -0.665400 0.311500
vn -0.693900 0.544000 0.471700
vn -0.000000 -0.714000 0.700200
vn -0.000000 0.494300 0.869300
vn 0.678400 -0.665400 0.311500
vn 0.693900 0.544000 0.471700
vn 0.678400 -0.568200 -0.465700
vn 0.693900 0.643400 -0.323300
vt 0.773893 0.240225
vt 0.773893 0.058263
vt 0.785097 0.057824
vt 0.785097 0.239785
vt 0.793953 0.060150
vt 0.793953 0.242112
vt 0.597878 0.250335
vt 0.597878 0.058492
vt 0.609114 0.058602
vt 0.609114 0.250445
vt 0.617781 0.057824
vt 0.617781 0.249667
vt 0.235111 0.763806
vt 0.235111 0.577036
vt 0.246167 0.577601
vt 0.246167 0.764371
vt 0.255574 0.576035
vt 0.255574 0.762805
vt 0.336455 0.956234
vt 0.336455 0.944953
vt 0.343834 0.937004
vt 0.354269 0.937044
vt 0.361648 0.945049
vt 0.361648 0.956331
vt 0.354269 0.964279
vt 0.343834 0.964239
vt 0.715505 0.641309
vt 0.715505 0.449205
vt 0.726767 0.449141
vt 0.726767 0.641246
vt 0.735205 0.449849
vt 0.735205 0.641953
vt 0.950924 0.372855
vt 0.950924 0.361676
vt 0.958076 0.354245
vt 0.968190 0.354917
vt 0.975342 0.363297
vt 0.975342 0.374477
vt 0.968190 0.381907
vt 0.958076 0.381235
vt 0.913390 0.601493
vt 0.913390 0.571166
vt 0.925613 0.570686
vt 0.925613 0.601013
vt 0.935274 0.573224
vt 0.935274 0.603551
vt 0.833387 0.941239
vt 0.833387 0.909265
vt 0.845644 0.909385
vt 0.845644 0.941359
vt 0.855099 0.908536
vt 0.855099 0.940510
vt 0.900541 0.481361
vt 0.900541 0.450233
vt 0.912602 0.450849
vt 0.912602 0.481978
vt 0.922864 0.449141
vt 0.922864 0.480269
vt 0.012101 0.886603
vt 0.012101 0.874296
vt 0.020151 0.865625
vt 0.031535 0.865668
vt 0.039584 0.874402
vt 0.039584 0.886709
vt 0.031535 0.895380
vt 0.020151 0.895337
vt 0.928915 0.698242
vt 0.928915 0.666224
vt 0.941201 0.666155
vt 0.941201 0.698173
vt 0.950407 0.666927
vt 0.950407 0.698944
vt 0.873107 0.220975
vt 0.873107 0.208779
vt 0.880909 0.200673
vt 0.891943 0.201406
vt 0.899745 0.210548
vt 0.899745 0.222744
vt 0.891943 0.230850
vt 0.880909 0.230117
vt 0.503985 0.771347
vt 0.503985 0.589385
vt 0.515189 0.588945
vt 0.515189 0.770907
vt 0.524045 0.591272
vt 0.524045 0.773234
vt 0.671400 0.641653
vt 0.671400 0.449810
vt 0.682636 0.449920
vt 0.682636 0.641763
vt 0.691303 0.449141
vt 0.691303 0.640985
vt 0.625572 0.750477
vt 0.625572 0.563707
vt 0.636628 0.564272
vt 0.636628 0.751042
vt 0.646035 0.562706
vt 0.646035 0.749476
vt 0.928915 0.742376
vt 0.928915 0.731095
vt 0.936294 0.723146
vt 0.946729 0.723186
vt 0.954108 0.731192
vt 0.954108 0.742473
vt 0.946729 0.750422
vt 0.936294 0.750382
vt 0.686088 0.249992
vt 0.686088 0.057887
vt 0.697350 0.057824
vt 0.697350 0.249928
vt 0.705788 0.058531
vt 0.705788 0.250636
vt 0.947066 0.467751
vt 0.947066 0.456571
vt 0.954218 0.449141
vt 0.964332 0.449813
vt 0.971484 0.458193
vt 0.971484 0.469373
vt 0.964332 0.476803
vt 0.954218 0.476131
vt 0.904838 0.385052
vt 0.904838 0.354725
vt 0.917061 0.354245
vt 0.917061 0.384572
vt 0.926722 0.356784
vt 0.926722 0.387111
vt 0.581670 0.941548
vt 0.581670 0.909574
vt 0.593927 0.909694
vt 0.593927 0.941668
vt 0.603382 0.908845
vt 0.603382 0.940819
vt 0.900541 0.538400
vt 0.900541 0.507271
vt 0.912602 0.507888
vt 0.912602 0.539016
vt 0.922864 0.506180
vt 0.922864 0.537308
vt 0.398546 0.889323
vt 0.398546 0.877016
vt 0.406596 0.868345
vt 0.417980 0.868388
vt 0.426029 0.877122
vt 0.426029 0.889429
vt 0.417980 0.898100
vt 0.406596 0.898057
vt 0.012101 0.951669
vt 0.012101 0.919651
vt 0.024387 0.919582
vt 0.024387 0.951600
vt 0.033592 0.920354
vt 0.033592 0.952371
vt 0.878075 0.686457
vt 0.878075 0.674261
vt 0.885878 0.666155
vt 0.896911 0.666888
vt 0.904713 0.676030
vt 0.904713 0.688226
vt 0.896911 0.696332
vt 0.885878 0.695599
vt 0.354283 0.795112
vt 0.354283 0.613150
vt 0.365488 0.612711
vt 0.365488 0.794672
vt 0.374344 0.615037
vt 0.374344 0.796999
vt 0.128993 0.664804
vt 0.128993 0.472961
vt 0.140228 0.473071
vt 0.140228 0.664914
vt 0.148895 0.472293
vt 0.148895 0.664136
vt 0.279776 0.763806
vt 0.279776 0.577036
vt 0.290832 0.577601
vt 0.290832 0.764371
vt 0.300239 0.576035
vt 0.300239 0.762805
vt 0.190447 0.944779
vt 0.190447 0.933497
vt 0.197826 0.925548
vt 0.208261 0.925588
vt 0.215640 0.933594
vt 0.215640 0.944875
vt 0.208261 0.952824
vt 0.197826 0.952784
vt 0.729990 0.249992
vt 0.729990 0.057887
vt 0.741252 0.057824
vt 0.741252 0.249928
vt 0.749691 0.058531
vt 0.749691 0.250636
vt 0.947066 0.524789
vt 0.947066 0.513610
vt 0.954218 0.506180
vt 0.964332 0.506851
vt 0.971484 0.515231
vt 0.971484 0.526411
vt 0.964332 0.533841
vt 0.954218 0.533170
vt 0.894516 0.934989
vt 0.894516 0.904662
vt 0.906739 0.904183
vt 0.906739 0.934510
vt 0.916400 0.906721
vt 0.916400 0.937048
vt 0.923947 0.233376
vt 0.923947 0.201402
vt 0.936204 0.201523
vt 0.936204 0.233497
vt 0.945659 0.200673
vt 0.945659 0.232647
vt 0.904838 0.329427
vt 0.904838 0.298299
vt 0.916899 0.298915
vt 0.916899 0.330044
vt 0.927161 0.297207
vt 0.927161 0.328335
vt 0.450231 0.889323
vt 0.450231 0.877016
vt 0.458281 0.868345
vt 0.469665 0.868388
vt 0.477714 0.877122
vt 0.477714 0.889429
vt 0.469665 0.898100
vt 0.458281 0.898057
vt 0.095887 0.953880
vt 0.095887 0.921862
vt 0.108173 0.921793
vt 0.108173 0.953810
vt 0.117378 0.922565
vt 0.117378 0.954582
vt 0.878076 0.740835
vt 0.878076 0.728639
vt 0.885878 0.720533
vt 0.896911 0.721266
vt 0.904713 0.730408
vt 0.904713 0.742604
vt 0.896911 0.750710
vt 0.885878 0.749977
vt 0.759407 0.631543
vt 0.759407 0.449581
vt 0.770612 0.449141
vt 0.770612 0.631103
vt 0.779468 0.451468
vt 0.779468 0.633430
vt 0.641983 0.250335
vt 0.641983 0.058492
vt 0.653219 0.058602
vt 0.653219 0.250445
vt 0.661886 0.057824
vt 0.661886 0.249667
vt 0.190447 0.763806
vt 0.190447 0.577036
vt 0.201503 0.577601
vt 0.201503 0.764371
vt 0.210910 0.576035
vt 0.210910 0.762805
vt 0.243360 0.944779
vt 0.243360 0.933497
vt 0.250738 0.925548
vt 0.261174 0.925588
vt 0.268553 0.933594
vt 0.268553 0.944875
vt 0.261174 0.952824
vt 0.250738 0.952784
vt 0.581670 0.754874
vt 0.581670 0.562770
vt 0.592932 0.562706
vt 0.592932 0.754811
vt 0.601371 0.563413
vt 0.601371 0.755518
vt 0.951363 0.315817
vt 0.951363 0.304637
vt 0.958515 0.297207
vt 0.968629 0.297879
vt 0.975781 0.306259
vt 0.975781 0.317439
vt 0.968629 0.324869
vt 0.958515 0.324197
vt 0.772090 0.936245
vt 0.772090 0.905918
vt 0.784314 0.905439
vt 0.784314 0.935766
vt 0.793975 0.907977
vt 0.793975 0.938304
vt 0.926020 0.090527
vt 0.926020 0.058553
vt 0.938277 0.058673
vt 0.938277 0.090647
vt 0.947732 0.057824
vt 0.947732 0.089797
vt 0.894516 0.879364
vt 0.894516 0.848236
vt 0.906577 0.848853
vt 0.906577 0.879981
vt 0.916839 0.847144
vt 0.916839 0.878273
vt 0.503985 0.889839
vt 0.503985 0.877532
vt 0.512034 0.868861
vt 0.523418 0.868904
vt 0.531468 0.877638
vt 0.531468 0.889945
vt 0.523418 0.898616
vt 0.512034 0.898573
vt 0.926020 0.146935
vt 0.926020 0.114918
vt 0.938306 0.114849
vt 0.938306 0.146866
vt 0.947512 0.115620
vt 0.947512 0.147638
vt 0.887313 0.796794
vt 0.887313 0.784598
vt 0.895115 0.776492
vt 0.906149 0.777225
vt 0.913951 0.786367
vt 0.913951 0.798563
vt 0.906149 0.806668
vt 0.895115 0.805936
vt 0.099221 0.190334
vt 0.075436 0.172862
vt 0.098010 0.154561
vt 0.300012 0.396954
vt 0.316139 0.405465
vt 0.299910 0.433585
vt 0.122014 0.183901
vt 0.114275 0.220336
vt 0.085488 0.213513
vt 0.281404 0.412722
vt 0.092494 0.045148
vt 0.069770 0.050561
vt 0.076767 0.025249
vt 0.456409 0.193303
vt 0.462409 0.225161
vt 0.438779 0.216502
vt 0.460203 0.046004
vt 0.463475 0.073859
vt 0.441317 0.050036
vt 0.432384 0.345126
vt 0.429721 0.372834
vt 0.407748 0.357684
vt 0.286196 0.371708
vt 0.105553 0.032072
vt 0.438120 0.174117
vt 0.443699 0.025499
vt 0.419637 0.325975
vt 0.226859 0.323286
vt 0.219781 0.350666
vt 0.205051 0.338060
vt 0.104311 0.399626
vt 0.095904 0.371987
vt 0.124677 0.390190
vt 0.377496 0.108463
vt 0.372305 0.145035
vt 0.360083 0.115148
vt 0.258829 0.250469
vt 0.235441 0.246656
vt 0.257938 0.223297
vt 0.209793 0.469351
vt 0.199152 0.499343
vt 0.190676 0.461102
vt 0.281985 0.109039
vt 0.257938 0.141013
vt 0.258828 0.103948
vt 0.307898 0.117328
vt 0.283587 0.151501
vt 0.330081 0.127374
vt 0.310052 0.161590
vt 0.257559 0.184259
vt 0.283587 0.196778
vt 0.330081 0.168516
vt 0.307899 0.203450
vt 0.281986 0.232465
vt 0.235441 0.123230
vt 0.232363 0.167118
vt 0.232364 0.212396
vt 0.210466 0.147034
vt 0.207605 0.192826
vt 0.190447 0.169948
vt 0.210466 0.233157
vt 0.190447 0.211090
vt 0.374029 0.078113
vt 0.245584 0.080266
vt 0.218768 0.100265
vt 0.194010 0.125972
vt 0.231699 0.057097
vt 0.205173 0.078689
vt 0.148641 0.412853
vt 0.145778 0.379493
vt 0.354283 0.157721
vt 0.370536 0.188902
vt 0.355008 0.204367
vt 0.145778 0.444466
vt 0.124677 0.421229
vt 0.274350 0.071495
vt 0.261588 0.043330
vt 0.116976 0.358662
vt 0.291915 0.038736
vt 0.247993 0.021754
vt 0.279651 0.012101
vt 0.307175 0.014742
vt 0.085548 0.341389
vt 0.105804 0.327618
vt 0.075601 0.315570
vt 0.094222 0.305564
vt 0.068158 0.299165
vt 0.301649 0.074995
vt 0.319711 0.043766
vt 0.328114 0.085084
vt 0.195720 0.373555
vt 0.213570 0.389707
vt 0.190447 0.418691
vt 0.210198 0.432694
vt 0.223912 0.494570
vt 0.242278 0.519233
vt 0.214867 0.528873
vt 0.391099 0.338500
vt 0.405360 0.306515
vt 0.190447 0.529224
vt 0.235233 0.551834
vt 0.363425 0.354757
vt 0.376509 0.319860
vt 0.328115 0.203622
vt 0.301651 0.238811
vt 0.380473 0.372893
vt 0.357456 0.387229
vt 0.274352 0.261490
vt 0.245585 0.270261
vt 0.373831 0.435530
vt 0.354283 0.440969
vt 0.354283 0.417151
vt 0.398229 0.447451
vt 0.378465 0.457642
vt 0.218769 0.264081
vt 0.422759 0.012101
vt 0.420022 0.031716
vt 0.397086 0.024014
vt 0.394464 0.051017
vt 0.194010 0.244511
vt 0.374144 0.048814
vt 0.417771 0.063463
vt 0.394870 0.085112
vt 0.393804 0.126472
vt 0.415541 0.150044
vt 0.391394 0.170184
vt 0.415780 0.196401
vt 0.392119 0.216830
vt 0.373622 0.229806
vt 0.416920 0.238770
vt 0.395780 0.253629
vt 0.116976 0.448091
vt 0.095904 0.422209
vt 0.078122 0.391776
vt 0.048323 0.382812
vt 0.065741 0.360407
vt 0.022252 0.374936
vt 0.034998 0.351141
vt 0.054569 0.329363
vt 0.012101 0.346727
vt 0.027072 0.323763
vt 0.047667 0.307150
vt 0.245114 0.330337
vt 0.266599 0.347152
vt 0.239810 0.365056
vt 0.262416 0.387820
vt 0.234537 0.410192
vt 0.256568 0.433007
vt 0.230738 0.453379
vt 0.374523 0.406327
vt 0.402196 0.390070
vt 0.398704 0.423000
vt 0.426469 0.404607
vt 0.423375 0.432679
vt 0.421083 0.451690
vt 0.416228 0.104237
vt 0.441786 0.084936
vt 0.440613 0.130454
vt 0.464155 0.113332
vt 0.461344 0.156579
vt 0.085547 0.446519
vt 0.065741 0.415678
vt 0.442510 0.252576
vt 0.418850 0.273005
vt 0.054568 0.439903
vt 0.034998 0.406411
vt 0.466386 0.256895
vt 0.027072 0.428893
vt 0.142528 0.088196
vt 0.116348 0.061600
vt 0.133160 0.052529
vt 0.012101 0.396949
vt 0.246041 0.305167
vt 0.268539 0.294463
vt 0.268709 0.314983
vt 0.050219 0.032871
vt 0.059672 0.012101
vt 0.292335 0.310047
vt 0.291315 0.337748
vt 0.045025 0.065086
vt 0.025376 0.053012
vt 0.024622 0.087163
vt 0.307664 0.367223
vt 0.249629 0.478289
vt 0.277508 0.455917
vt 0.269996 0.501249
vt 0.260924 0.536296
vt 0.295307 0.476679
vt 0.286257 0.515967
vt 0.436450 0.298710
vt 0.448957 0.321528
vt 0.455190 0.350489
vt 0.479783 0.357831
vt 0.454407 0.382151
vt 0.100483 0.247441
vt 0.070022 0.235520
vt 0.478943 0.390489
vt 0.450915 0.415081
vt 0.130282 0.249803
vt 0.116305 0.274963
vt 0.143029 0.270353
vt 0.445671 0.440255
vt 0.479552 0.064045
vt 0.156502 0.242375
vt 0.140680 0.214852
vt 0.483864 0.100354
vt 0.165019 0.202278
vt 0.482691 0.145872
vt 0.146481 0.173534
vt 0.166245 0.161049
vt 0.476355 0.188126
vt 0.147118 0.129891
vt 0.122779 0.142465
vt 0.483864 0.221347
vt 0.164357 0.120282
vt 0.120701 0.097600
vt 0.096233 0.112115
vt 0.094232 0.073027
vt 0.466737 0.297207
vt 0.475577 0.325688
vt 0.315735 0.447930
vt 0.018814 0.188492
vt 0.030818 0.170470
vt 0.041881 0.215208
vt 0.057739 0.195194
vt 0.012101 0.146116
vt 0.026511 0.127931
vt 0.048979 0.150425
vt 0.069441 0.085451
vt 0.071519 0.130316
vt 0.044598 0.105592
vt 0.012101 0.110325
vt 0.503985 0.564744
vt 0.516411 0.449141
vt 0.551175 0.449141
vt 0.557468 0.564744
vt 0.503985 0.420426
vt 0.521210 0.297207
vt 0.552814 0.300141
vt 0.552607 0.424939
vt 0.581309 0.297207
vt 0.596445 0.420426
vt 0.508066 0.136341
vt 0.517703 0.012101
vt 0.552523 0.012101
vt 0.561635 0.136341
vt 0.012101 0.635241
vt 0.041893 0.619436
vt 0.071685 0.637493
vt 0.071685 0.671355
vt 0.041893 0.687160
vt 0.012101 0.669103
vt 0.012101 0.595234
vt 0.026578 0.475293
vt 0.057683 0.472293
vt 0.059955 0.590618
vt 0.086827 0.475293
vt 0.104791 0.595234
vt 0.446779 0.508912
vt 0.446779 0.562244
vt 0.400531 0.588509
vt 0.354283 0.561441
vt 0.354283 0.508109
vt 0.400531 0.481844
vt 0.428953 0.681064
vt 0.411344 0.665198
vt 0.429216 0.652072
vt 0.595694 0.503496
vt 0.581670 0.497757
vt 0.592348 0.474477
vt 0.446416 0.675407
vt 0.439173 0.702955
vt 0.417497 0.696645
vt 0.611788 0.487857
vt 0.428953 0.626521
vt 0.411343 0.633138
vt 0.417497 0.612711
vt 0.555555 0.227098
vt 0.559165 0.250445
vt 0.538289 0.243291
vt 0.558029 0.173324
vt 0.559417 0.197961
vt 0.539898 0.179247
vt 0.132040 0.752534
vt 0.111652 0.744788
vt 0.128500 0.729293
vt 0.613125 0.519406
vt 0.041374 0.769404
vt 0.023091 0.760218
vt 0.044043 0.751018
vt 0.538444 0.210854
vt 0.542095 0.160542
vt 0.149227 0.744788
vt 0.631338 0.525579
vt 0.632739 0.500836
vt 0.647198 0.508458
vt 0.047746 0.727981
vt 0.026837 0.735871
vt 0.038477 0.711362
vt 0.522349 0.195260
vt 0.518771 0.224578
vt 0.508066 0.201452
vt 0.676362 0.369766
vt 0.658970 0.376918
vt 0.658971 0.351736
vt 0.671246 0.317966
vt 0.677790 0.344904
vt 0.655964 0.321290
vt 0.639228 0.329590
vt 0.637144 0.353303
vt 0.639228 0.372431
vt 0.620647 0.323825
vt 0.620647 0.349007
vt 0.062878 0.711362
vt 0.632278 0.304040
vt 0.017526 0.720562
vt 0.012101 0.743634
vt 0.651098 0.297207
vt 0.629063 0.471904
vt 0.645861 0.476909
vt 0.611962 0.455908
vt 0.633021 0.449141
vt 0.144824 0.720588
vt 0.124549 0.711362
vt 0.677790 0.385649
vt 0.521123 0.173436
vt 0.522084 0.250445
vt 0.107249 0.720588
vt 0.095887 0.737725
vt 0.066318 0.735871
vt 0.062572 0.760218
vt 0.615462 0.538504
vt 0.594511 0.525524
vt 0.595990 0.449141
vt 0.121967 0.769860
vt 0.100716 0.761156
vt 0.573677 0.190822
vt 0.572222 0.222429
vt 0.446416 0.643347
vt 0.145189 0.769860
vt 0.399624 0.677711
vt 0.398546 0.648852
vt 0.363530 0.846903
vt 0.349131 0.849574
vt 0.355849 0.834740
vt 0.336455 0.848827
vt 0.344616 0.860037
vt 0.371402 0.834904
vt 0.374295 0.849840
vt 0.360531 0.858906
vt 0.785047 0.812304
vt 0.772137 0.806482
vt 0.784250 0.798228
vt 0.347885 0.823590
vt 0.339935 0.835871
vt 0.336455 0.823031
vt 0.594690 0.815413
vt 0.588076 0.823084
vt 0.581670 0.809614
vt 0.618639 0.801396
vt 0.608098 0.809614
vt 0.608121 0.793051
vt 0.796305 0.853535
vt 0.797132 0.868104
vt 0.782963 0.859552
vt 0.798401 0.806502
vt 0.833387 0.870569
vt 0.839302 0.857353
vt 0.846402 0.871651
vt 0.594044 0.801289
vt 0.618523 0.788045
vt 0.786260 0.844698
vt 0.809123 0.798199
vt 0.798401 0.789938
vt 0.809185 0.784777
vt 0.861007 0.871470
vt 0.855536 0.857882
vt 0.870314 0.862056
vt 0.594730 0.787233
vt 0.581693 0.793050
vt 0.588136 0.779720
vt 0.398546 0.749692
vt 0.404459 0.736307
vt 0.411784 0.749447
vt 0.413878 0.772718
vt 0.404458 0.763088
vt 0.420796 0.762981
vt 0.426341 0.749510
vt 0.420796 0.736201
vt 0.413878 0.727156
vt 0.435378 0.741549
vt 0.428052 0.728409
vt 0.870314 0.878403
vt 0.435378 0.758100
vt 0.863214 0.847757
vt 0.848927 0.847144
vt 0.428052 0.771741
vt 0.785047 0.784124
vt 0.795034 0.776504
vt 0.772137 0.789919
vt 0.778802 0.776492
vt 0.772091 0.852429
vt 0.772199 0.866687
vt 0.782963 0.875835
vt 0.772091 0.878775
vt 0.604470 0.779720
vt 0.855536 0.884334
vt 0.796305 0.881237
vt 0.839301 0.883804
vt 0.809186 0.811578
vt 0.795034 0.819869
vt 0.802466 0.844071
vt 0.809186 0.858536
vt 0.809186 0.874819
vt 0.618486 0.814845
vt 0.604409 0.823084
vt 0.362205 0.821201
vt 0.374344 0.823869
vt 0.329215 0.714348
vt 0.324441 0.716932
vt 0.324441 0.711391
vt 0.329284 0.718224
vt 0.329284 0.709259
vt 0.471461 0.679775
vt 0.470981 0.675847
vt 0.475970 0.678276
vt 0.329347 0.651744
vt 0.324441 0.649915
vt 0.329184 0.647052
vt 0.696142 0.016140
vt 0.695781 0.021126
vt 0.691276 0.018985
vt 0.695781 0.012101
vt 0.691276 0.013407
vt 0.329416 0.618430
vt 0.324441 0.616552
vt 0.329143 0.613649
vt 0.475673 0.672726
vt 0.324441 0.644283
vt 0.324441 0.610930
vt 0.470981 0.670795
vt 0.479054 0.674725
vt 0.329347 0.642632
vt 0.660396 0.012101
vt 0.665628 0.012101
vt 0.661791 0.015711
vt 0.329416 0.609334
vt 0.662736 0.020742
vt 0.658609 0.017441
vt 0.667074 0.017441
vt 0.725117 0.017190
vt 0.720343 0.019774
vt 0.720343 0.014233
vt 0.725187 0.021066
vt 0.725187 0.012101
vt 0.548728 0.673444
vt 0.548247 0.669516
vt 0.553237 0.671945
vt 0.329347 0.685057
vt 0.324441 0.683228
vt 0.329184 0.680365
vt 0.553113 0.701686
vt 0.552752 0.706671
vt 0.548247 0.704530
vt 0.552752 0.697646
vt 0.548247 0.698953
vt 0.329416 0.585132
vt 0.324441 0.583254
vt 0.329143 0.580350
vt 0.552940 0.666395
vt 0.324441 0.677597
vt 0.324441 0.577632
vt 0.548247 0.664465
vt 0.556321 0.668395
vt 0.329347 0.675946
vt 0.097675 0.657175
vt 0.102907 0.657175
vt 0.099070 0.660785
vt 0.329416 0.576035
vt 0.100014 0.665816
vt 0.095887 0.662516
vt 0.104353 0.662516
vt 0.296272 0.893564
vt 0.299345 0.860592
vt 0.300501 0.860592
vt 0.306680 0.893564
vt 0.658547 0.960100
vt 0.668170 0.925188
vt 0.669147 0.925228
vt 0.667343 0.960454
vt 0.670249 0.925228
vt 0.677260 0.960454
vt 0.938153 0.812066
vt 0.945226 0.776565
vt 0.946284 0.776564
vt 0.947674 0.812066
vt 0.947320 0.776492
vt 0.956997 0.811412
vt 0.695056 0.423321
vt 0.693923 0.423060
vt 0.693419 0.422030
vt 0.693923 0.421007
vt 0.695056 0.420760
vt 0.695965 0.421476
vt 0.695965 0.422616
vt 0.147426 0.960304
vt 0.152492 0.925726
vt 0.153650 0.925708
vt 0.157848 0.960141
vt 0.154454 0.925726
vt 0.165086 0.960304
vt 0.846615 0.536342
vt 0.846615 0.525980
vt 0.854564 0.519794
vt 0.864475 0.522440
vt 0.868887 0.531927
vt 0.864475 0.541111
vt 0.854564 0.543075
vt 0.959476 0.603787
vt 0.964157 0.570779
vt 0.965298 0.570686
vt 0.969745 0.602948
vt 0.966179 0.570779
vt 0.977676 0.603787
vt 0.150839 0.828793
vt 0.155167 0.794062
vt 0.156329 0.794062
vt 0.161299 0.828793
vt 0.292755 0.960445
vt 0.303278 0.925548
vt 0.304151 0.925645
vt 0.300615 0.961317
vt 0.305296 0.925645
vt 0.310916 0.961317
vt 0.722646 0.422625
vt 0.721761 0.423365
vt 0.720658 0.423128
vt 0.720167 0.422093
vt 0.720658 0.421039
vt 0.721761 0.420760
vt 0.722646 0.421466
vt 0.715505 0.960446
vt 0.723481 0.925481
vt 0.724559 0.925491
vt 0.725208 0.960535
vt 0.725572 0.925481
vt 0.734324 0.960446
vt 0.901874 0.984143
vt 0.893813 0.977470
vt 0.893813 0.967282
vt 0.901874 0.961250
vt 0.911927 0.963916
vt 0.916400 0.973274
vt 0.911927 0.982275
vt 0.555408 0.634448
vt 0.548247 0.638324
vt 0.548247 0.630013
vt 0.555512 0.640263
vt 0.555512 0.626815
vt 0.623017 0.025571
vt 0.622296 0.019679
vt 0.629781 0.023322
vt 0.555607 0.602613
vt 0.548247 0.599869
vt 0.555362 0.595575
vt 0.478279 0.601466
vt 0.477738 0.608944
vt 0.470980 0.605733
vt 0.477738 0.595407
vt 0.470980 0.597366
vt 0.478443 0.495489
vt 0.470980 0.492672
vt 0.478035 0.488317
vt 0.629335 0.014997
vt 0.548247 0.591422
vt 0.470981 0.484239
vt 0.622296 0.012101
vt 0.634407 0.017996
vt 0.555607 0.588945
vt 0.590518 0.012101
vt 0.598094 0.014152
vt 0.591123 0.017875
vt 0.478443 0.481844
vt 0.590519 0.025529
vt 0.585837 0.019132
vt 0.598094 0.022451
vt 0.478142 0.640778
vt 0.470981 0.644655
vt 0.470980 0.636344
vt 0.478246 0.646594
vt 0.478246 0.633146
vt 0.657827 0.423321
vt 0.657106 0.417428
vt 0.664591 0.421072
vt 0.478341 0.571205
vt 0.470981 0.568461
vt 0.478096 0.564167
vt 0.103185 0.625495
vt 0.102644 0.632973
vt 0.095887 0.629762
vt 0.102644 0.619436
vt 0.095887 0.621396
vt 0.478444 0.533336
vt 0.470981 0.530518
vt 0.478035 0.526163
vt 0.664145 0.412747
vt 0.470981 0.560015
vt 0.470981 0.522085
vt 0.657106 0.409851
vt 0.669217 0.415746
vt 0.478341 0.557538
vt 0.625329 0.409851
vt 0.632904 0.411902
vt 0.625933 0.415624
vt 0.478444 0.519691
vt 0.625329 0.423279
vt 0.620647 0.416882
vt 0.632904 0.420201
vt 0.108428 0.839668
vt 0.123090 0.797356
vt 0.125367 0.797558
vt 0.126637 0.841285
vt 0.715505 0.835884
vt 0.715505 0.789323
vt 0.717441 0.789045
vt 0.730996 0.833665
vt 0.719454 0.788067
vt 0.747097 0.825836
vt 0.859464 0.603765
vt 0.885472 0.570686
vt 0.886904 0.572019
vt 0.870914 0.614428
vt 0.889188 0.572358
vt 0.889188 0.617137
vt 0.121523 0.796018
vt 0.121844 0.794552
vt 0.123813 0.794062
vt 0.125946 0.794917
vt 0.126637 0.796473
vt 0.147426 0.901506
vt 0.159204 0.865487
vt 0.161510 0.865487
vt 0.165876 0.901506
vt 0.095887 0.828967
vt 0.899149 0.137320
vt 0.901818 0.155458
vt 0.893711 0.170003
vt 0.880934 0.170003
vt 0.873107 0.155458
vt 0.876125 0.137320
vt 0.887715 0.129248
vt 0.830696 0.246279
vt 0.845358 0.203967
vt 0.847635 0.204169
vt 0.848905 0.247896
vt 0.190447 0.836390
vt 0.190447 0.789829
vt 0.192383 0.789551
vt 0.205939 0.834171
vt 0.194396 0.788573
vt 0.222039 0.826342
vt 0.824150 0.699234
vt 0.850158 0.666155
vt 0.851590 0.667488
vt 0.835600 0.709897
vt 0.853874 0.667826
vt 0.853874 0.712605
vt 0.843791 0.202630
vt 0.844112 0.201164
vt 0.846081 0.200673
vt 0.848214 0.201528
vt 0.848905 0.203084
vt 0.398546 0.958321
vt 0.410324 0.922302
vt 0.412630 0.922302
vt 0.416996 0.958321
vt 0.818155 0.235578
vt 0.269402 0.868664
vt 0.272070 0.886801
vt 0.263964 0.901346
vt 0.251186 0.901346
vt 0.243360 0.886801
vt 0.246377 0.868664
vt 0.257967 0.860592
vt 0.830696 0.103429
vt 0.845358 0.061117
vt 0.847635 0.061319
vt 0.848905 0.105047
vt 0.012101 0.841423
vt 0.012101 0.794862
vt 0.014037 0.794585
vt 0.027592 0.839204
vt 0.016050 0.793606
vt 0.043693 0.831375
vt 0.833387 0.809571
vt 0.859396 0.776492
vt 0.860827 0.777825
vt 0.844838 0.820234
vt 0.863112 0.778163
vt 0.863112 0.822942
vt 0.843791 0.059780
vt 0.844112 0.058314
vt 0.846081 0.057824
vt 0.848214 0.058678
vt 0.848905 0.060234
vt 0.450231 0.958321
vt 0.462009 0.922302
vt 0.464316 0.922302
vt 0.468682 0.958321
vt 0.818155 0.092728
vt 0.216489 0.868664
vt 0.219158 0.886801
vt 0.211051 0.901346
vt 0.198274 0.901346
vt 0.190447 0.886801
vt 0.193465 0.868664
vt 0.205055 0.860592
vt 0.830696 0.174854
vt 0.845358 0.132542
vt 0.847635 0.132744
vt 0.848905 0.176472
vt 0.803670 0.618503
vt 0.803670 0.571942
vt 0.805606 0.571665
vt 0.819161 0.616284
vt 0.807619 0.570686
vt 0.835262 0.608455
vt 0.846615 0.482220
vt 0.872624 0.449141
vt 0.874055 0.450474
vt 0.858066 0.492883
vt 0.876339 0.450813
vt 0.876339 0.495592
vt 0.843791 0.131205
vt 0.844112 0.129739
vt 0.846081 0.129248
vt 0.848214 0.130103
vt 0.848905 0.131659
vt 0.503985 0.958837
vt 0.515763 0.922818
vt 0.518069 0.922818
vt 0.522435 0.958837
vt 0.818155 0.164153
vt 0.743910 0.869736
vt 0.743910 0.888069
vt 0.733772 0.901279
vt 0.721131 0.899419
vt 0.715505 0.883889
vt 0.721131 0.866384
vt 0.733772 0.860086
vt 0.411087 0.842526
vt 0.425749 0.800214
vt 0.428025 0.800416
vt 0.429296 0.844143
vt 0.658547 0.835469
vt 0.658547 0.788908
vt 0.660483 0.788631
vt 0.674038 0.833250
vt 0.662496 0.787652
vt 0.690139 0.825421
vt 0.850912 0.330286
vt 0.876921 0.297207
vt 0.878352 0.298540
vt 0.862362 0.340949
vt 0.880636 0.298878
vt 0.880636 0.343658
vt 0.424182 0.798876
vt 0.424503 0.797410
vt 0.426472 0.796920
vt 0.428605 0.797774
vt 0.429296 0.799330
vt 0.941041 0.879981
vt 0.952819 0.843962
vt 0.955125 0.843962
vt 0.959491 0.879981
vt 0.398546 0.831824
vt 0.899149 0.065895
vt 0.901818 0.084033
vt 0.893711 0.098578
vt 0.880934 0.098578
vt 0.873107 0.084033
vt 0.876125 0.065895
vt 0.887715 0.057823
vt 0.516526 0.843042
vt 0.531188 0.800730
vt 0.533464 0.800932
vt 0.534735 0.844659
vt 0.246241 0.836390
vt 0.246241 0.789829
vt 0.248177 0.789551
vt 0.261733 0.834171
vt 0.250190 0.788573
vt 0.277833 0.826342
vt 0.850912 0.400938
vt 0.876921 0.367859
vt 0.878352 0.369192
vt 0.862362 0.411601
vt 0.880636 0.369531
vt 0.880636 0.414310
vt 0.529620 0.799392
vt 0.529942 0.797926
vt 0.531910 0.797436
vt 0.534043 0.798290
vt 0.534735 0.799846
vt 0.940602 0.940201
vt 0.952380 0.904183
vt 0.954687 0.904183
vt 0.959053 0.940201
vt 0.503985 0.832340
vt 0.681259 0.865757
vt 0.686868 0.883211
vt 0.681259 0.898889
vt 0.668655 0.900986
vt 0.658547 0.887923
vt 0.658547 0.869536
vt 0.668655 0.859671
vt 0.734473 0.297426
vt 0.732180 0.394988
vt 0.718499 0.394800
vt 0.718511 0.297207
vt 0.704340 0.394988
vt 0.701992 0.297426
vt 0.822413 0.449141
vt 0.821368 0.546484
vt 0.805302 0.546484
vt 0.803670 0.449141
vt 0.747935 0.666155
vt 0.745358 0.763634
vt 0.731965 0.763865
vt 0.732310 0.666425
vt 0.109555 0.865487
vt 0.123224 0.873672
vt 0.123224 0.889724
vt 0.109555 0.897591
vt 0.095887 0.889406
vt 0.095887 0.873354
vt 0.717560 0.763634
vt 0.715505 0.666155
vt 0.690139 0.665965
vt 0.689013 0.763451
vt 0.672951 0.763451
vt 0.671400 0.665965
vt 0.581670 0.856402
vt 0.597741 0.847285
vt 0.613811 0.856848
vt 0.613811 0.875527
vt 0.597741 0.884643
vt 0.581670 0.875081
vt 0.786429 0.298399
vt 0.785080 0.384074
vt 0.774072 0.383080
vt 0.773219 0.297207
vt 0.761952 0.384074
vt 0.758674 0.298399
vt 0.475598 0.727448
vt 0.475598 0.807602
vt 0.462249 0.807359
vt 0.459579 0.727156
vt 0.799948 0.666155
vt 0.796781 0.751188
vt 0.785554 0.752290
vt 0.786476 0.667478
vt 0.792296 0.967027
vt 0.792296 0.979724
vt 0.782193 0.987899
vt 0.772091 0.983377
vt 0.772091 0.970680
vt 0.782193 0.962506
vt 0.773605 0.751188
vt 0.772137 0.666155
vt 0.826710 0.297207
vt 0.824983 0.376143
vt 0.811583 0.376143
vt 0.810630 0.297207
vt 0.350170 0.912802
vt 0.336455 0.906771
vt 0.336455 0.892489
vt 0.350170 0.884238
vt 0.363885 0.890269
vt 0.363885 0.904551
s 1
usemtl mob_kuda_mat.005
f 1/1/1 2/2/2 4/3/3 3/4/4
f 3/4/4 4/3/3 6/5/5 5/6/6
f 5/7/6 6/8/5 8/9/7 7/10/8
f 7/10/8 8/9/7 10/11/9 9/12/10
f 9/13/10 10/14/9 12/15/11 11/16/12
f 11/16/12 12/15/11 14/17/13 13/18/14
f 4/19/3 2/20/2 16/21/15 14/22/13 12/23/11 10/24/9 8/25/7 6/26/5
f 13/27/14 14/28/13 16/29/15 15/30/16
f 15/30/16 16/29/15 2/31/2 1/32/1
f 1/33/1 3/34/4 5/35/6 7/36/8 9/37/10 11/38/12 13/39/14 15/40/16
f 17/41/1 18/42/2 20/43/3 19/44/4
f 19/44/4 20/43/3 22/45/5 21/46/6
f 21/47/6 22/48/5 24/49/7 23/50/8
f 23/50/8 24/49/7 26/51/9 25/52/10
f 25/53/10 26/54/9 28/55/11 27/56/12
f 27/56/12 28/55/11 30/57/13 29/58/14
f 20/59/3 18/60/2 32/61/15 30/62/13 28/63/11 26/64/9 24/65/7 22/66/5
f 29/67/14 30/68/13 32/69/15 31/70/16
f 31/70/16 32/69/15 18/71/2 17/72/1
f 17/73/1 19/74/4 21/75/6 23/76/8 25/77/10 27/78/12 29/79/14 31/80/16
f 33/81/1 34/82/2 36/83/3 35/84/4
f 35/84/4 36/83/3 38/85/5 37/86/6
f 37/87/6 38/88/5 40/89/7 39/90/8
f 39/90/8 40/89/7 42/91/9 41/92/10
f 41/93/10 42/94/9 44/95/11 43/96/12
f 43/96/12 44/95/11 46/97/13 45/98/14
f 36/99/3 34/100/2 48/101/15 46/102/13 44/103/11 42/104/9 40/105/7 38/106/5
f 45/107/14 46/108/13 48/109/15 47/110/16
f 47/110/16 48/109/15 34/111/2 33/112/1
f 33/113/1 35/114/4 37/115/6 39/116/8 41/117/10 43/118/12 45/119/14 47/120/16
f 49/121/1 50/122/2 52/123/3 51/124/4
f 51/124/4 52/123/3 54/125/5 53/126/6
f 53/127/6 54/128/5 56/129/7 55/130/8
f 55/130/8 56/129/7 58/131/9 57/132/10
f 57/133/10 58/134/9 60/135/11 59/136/12
f 59/136/12 60/135/11 62/137/13 61/138/14
f 52/139/3 50/140/2 64/141/15 62/142/13 60/143/11 58/144/9 56/145/7 54/146/5
f 61/147/14 62/148/13 64/149/15 63/150/16
f 63/150/16 64/149/15 50/151/2 49/152/1
f 49/153/1 51/154/4 53/155/6 55/156/8 57/157/10 59/158/12 61/159/14 63/160/16
f 65/161/1 66/162/2 68/163/3 67/164/4
f 67/164/4 68/163/3 70/165/5 69/166/6
f 69/167/6 70/168/5 72/169/7 71/170/8
f 71/170/8 72/169/7 74/171/9 73/172/10
f 73/173/10 74/174/9 76/175/11 75/176/12
f 75/176/12 76/175/11 78/177/13 77/178/14
f 68/179/3 66/180/2 80/181/15 78/182/13 76/183/11 74/184/9 72/185/7 70/186/5
f 77/187/14 78/188/13 80/189/15 79/190/16
f 79/190/16 80/189/15 66/191/2 65/192/1
f 65/193/1 67/194/4 69/195/6 71/196/8 73/197/10 75/198/12 77/199/14 79/200/16
f 81/201/1 82/202/2 84/203/3 83/204/4
f 83/204/4 84/203/3 86/205/5 85/206/6
f 85/207/6 86/208/5 88/209/7 87/210/8
f 87/210/8 88/209/7 90/211/9 89/212/10
f 89/213/10 90/214/9 92/215/11 91/216/12
f 91/216/12 92/215/11 94/217/13 93/218/14
f 84/219/3 82/220/2 96/221/15 94/222/13 92/223/11 90/224/9 88/225/7 86/226/5
f 93/227/14 94/228/13 96/229/15 95/230/16
f 95/230/16 96/229/15 82/231/2 81/232/1
f 81/233/1 83/234/4 85/235/6 87/236/8 89/237/10 91/238/12 93/239/14 95/240/16
f 97/241/1 98/242/2 100/243/3 99/244/4
f 99/244/4 100/243/3 102/245/5 101/246/6
f 101/247/6 102/248/5 104/249/7 103/250/8
f 103/250/8 104/249/7 106/251/9 105/252/10
f 105/253/10 106/254/9 108/255/11 107/256/12
f 107/256/12 108/255/11 110/257/13 109/258/14
f 100/259/3 98/260/2 112/261/15 110/262/13 108/263/11 106/264/9 104/265/7 102/266/5
f 109/267/14 110/268/13 112/269/15 111/270/16
f 111/270/16 112/269/15 98/271/2 97/272/1
f 97/273/1 99/274/4 101/275/6 103/276/8 105/277/10 107/278/12 109/279/14 111/280/16
f 113/281/1 114/282/2 116/283/3 115/284/4
f 115/284/4 116/283/3 118/285/5 117/286/6
f 117/287/6 118/288/5 120/289/7 119/290/8
f 119/290/8 120/289/7 122/291/9 121/292/10
f 121/293/10 122/294/9 124/295/11 123/296/12
f 123/296/12 124/295/11 126/297/13 125/298/14
f 116/299/3 114/300/2 128/301/15 126/302/13 124/303/11 122/304/9 120/305/7 118/306/5
f 125/307/14 126/308/13 128/309/15 127/310/16
f 127/310/16 128/309/15 114/311/2 113/312/1
f 113/313/1 115/314/4 117/315/6 119/316/8 121/317/10 123/318/12 125/319/14 127/320/16
f 129/321/17 144/322/18 143/323/19
f 130/324/20 146/325/21 152/326/22
f 129/321/17 143/323/19 158/327/23
f 129/321/17 158/327/23 164/328/24
f 129/321/17 164/328/24 153/329/25
f 130/324/20 152/326/22 173/330/26
f 131/331/27 149/332/28 179/333/29
f 132/334/30 161/335/31 185/336/32
f 133/337/33 167/338/34 191/339/35
f 134/340/36 170/341/37 197/342/38
f 130/324/20 173/330/26 180/343/39
f 131/331/27 179/333/29 186/344/40
f 132/334/30 185/336/32 192/345/41
f 133/337/33 191/339/35 198/346/42
f 134/340/36 197/342/38 174/347/43
f 135/348/44 203/349/45 218/350/46
f 136/351/47 206/352/48 224/353/49
f 137/354/50 209/355/51 227/356/52
f 138/357/53 212/358/54 230/359/55
f 139/360/56 215/361/57 219/362/58
f 221/363/59 228/364/60 140/365/61
f 220/366/62 231/367/63 221/363/59
f 219/368/58 232/369/64 220/366/62
f 221/363/59 231/367/63 228/364/60
f 231/367/63 229/370/65 228/364/60
f 220/366/62 232/369/64 231/367/63
f 232/369/64 233/371/66 231/367/63
f 231/367/63 233/371/66 229/370/65
f 233/371/66 230/359/55 229/370/65
f 219/368/58 215/372/57 232/369/64
f 215/372/57 214/373/67 232/369/64
f 232/369/64 214/373/67 233/371/66
f 214/373/67 213/374/68 233/371/66
f 233/371/66 213/374/68 230/359/55
f 213/374/68 138/357/53 230/359/55
f 228/364/60 225/375/69 140/365/61
f 229/370/65 234/376/70 228/364/60
f 230/359/55 235/377/71 229/370/65
f 228/364/60 234/376/70 225/375/69
f 234/376/70 226/378/72 225/375/69
f 229/370/65 235/377/71 234/376/70
f 235/377/71 236/379/73 234/376/70
f 234/376/70 236/379/73 226/378/72
f 236/379/73 227/380/52 226/378/72
f 230/359/55 212/358/54 235/377/71
f 212/358/54 211/381/74 235/377/71
f 235/377/71 211/381/74 236/379/73
f 211/381/74 210/382/75 236/379/73
f 236/379/73 210/382/75 227/380/52
f 210/383/75 137/354/50 227/356/52
f 225/375/69 222/384/76 140/365/61
f 226/378/72 237/385/77 225/375/69
f 227/380/52 238/386/78 226/378/72
f 225/375/69 237/385/77 222/384/76
f 237/385/77 223/387/79 222/384/76
f 226/378/72 238/386/78 237/385/77
f 238/386/78 239/388/80 237/385/77
f 237/385/77 239/388/80 223/387/79
f 239/389/80 224/353/49 223/390/79
f 227/356/52 209/355/51 238/391/78
f 209/355/51 208/392/81 238/391/78
f 238/391/78 208/392/81 239/393/80
f 208/394/81 207/395/82 239/389/80
f 239/389/80 207/395/82 224/353/49
f 207/395/82 136/351/47 224/353/49
f 222/384/76 216/396/83 140/365/61
f 223/387/79 240/397/84 222/384/76
f 224/353/49 241/398/85 223/390/79
f 222/384/76 240/397/84 216/396/83
f 240/397/84 217/399/86 216/396/83
f 223/387/79 241/400/85 240/397/84
f 241/400/85 242/401/87 240/397/84
f 240/397/84 242/401/87 217/399/86
f 242/401/87 218/402/46 217/399/86
f 224/353/49 206/352/48 241/398/85
f 206/352/48 205/403/88 241/398/85
f 241/398/85 205/403/88 242/404/87
f 205/403/88 204/405/89 242/404/87
f 242/404/87 204/405/89 218/406/46
f 204/405/89 135/407/44 218/406/46
f 216/396/83 221/363/59 140/365/61
f 217/399/86 243/408/90 216/396/83
f 218/402/46 244/409/91 217/399/86
f 216/396/83 243/408/90 221/363/59
f 243/408/90 220/366/62 221/363/59
f 217/399/86 244/409/91 243/408/90
f 244/409/91 245/410/92 243/408/90
f 243/408/90 245/410/92 220/366/62
f 245/410/92 219/368/58 220/366/62
f 218/350/46 203/349/45 244/411/91
f 203/349/45 202/412/93 244/411/91
f 244/411/91 202/412/93 245/413/92
f 202/412/93 201/414/94 245/413/92
f 245/413/92 201/414/94 219/362/58
f 201/414/94 139/360/56 219/362/58
f 176/415/95 215/361/57 139/360/56
f 175/416/96 246/417/97 176/415/95
f 174/347/43 247/418/98 175/419/96
f 176/415/95 246/417/97 215/361/57
f 246/417/97 214/420/67 215/361/57
f 175/416/96 247/421/98 246/417/97
f 247/418/98 248/422/99 246/423/97
f 246/424/97 248/425/99 214/373/67
f 248/425/99 213/374/68 214/373/67
f 174/347/43 197/342/38 247/418/98
f 197/342/38 196/426/100 247/418/98
f 247/418/98 196/426/100 248/422/99
f 196/426/100 195/427/101 248/422/99
f 248/425/99 195/428/101 213/374/68
f 195/428/101 138/357/53 213/374/68
f 200/429/102 212/358/54 138/357/53
f 199/430/103 249/431/104 200/432/102
f 198/433/42 250/434/105 199/430/103
f 200/429/102 249/435/104 212/358/54
f 249/435/104 211/381/74 212/358/54
f 199/436/103 250/437/105 249/438/104
f 250/437/105 251/439/106 249/438/104
f 249/435/104 251/440/106 211/381/74
f 251/439/106 210/383/75 211/441/74
f 198/346/42 191/339/35 250/437/105
f 191/339/35 190/442/107 250/437/105
f 250/437/105 190/442/107 251/439/106
f 190/442/107 189/443/108 251/439/106
f 251/439/106 189/443/108 210/383/75
f 189/443/108 137/354/50 210/383/75
f 194/444/109 209/355/51 137/354/50
f 193/445/110 252/446/111 194/444/109
f 192/345/41 253/447/112 193/445/110
f 194/444/109 252/446/111 209/355/51
f 252/446/111 208/392/81 209/355/51
f 193/445/110 253/447/112 252/446/111
f 253/447/112 254/448/113 252/446/111
f 252/446/111 254/448/113 208/392/81
f 254/448/113 207/449/82 208/392/81
f 192/345/41 185/336/32 253/447/112
f 185/336/32 184/450/114 253/447/112
f 253/447/112 184/450/114 254/448/113
f 184/450/114 183/451/115 254/448/113
f 254/452/113 183/453/115 207/395/82
f 183/453/115 136/351/47 207/395/82
f 188/454/116 206/352/48 136/351/47
f 187/455/117 255/456/118 188/454/116
f 186/457/40 256/458/119 187/455/117
f 188/454/116 255/456/118 206/352/48
f 255/456/118 205/403/88 206/352/48
f 187/455/117 256/458/119 255/456/118
f 256/458/119 257/459/120 255/456/118
f 255/456/118 257/459/120 205/403/88
f 257/459/120 204/405/89 205/403/88
f 186/457/40 179/460/29 256/458/119
f 179/460/29 178/461/121 256/458/119
f 256/458/119 178/461/121 257/459/120
f 178/461/121 177/462/122 257/459/120
f 257/459/120 177/462/122 204/405/89
f 177/462/122 135/407/44 204/405/89
f 182/463/123 203/349/45 135/348/44
f 181/464/124 258/465/125 182/463/123
f 180/343/39 259/466/126 181/464/124
f 182/463/123 258/465/125 203/349/45
f 258/465/125 202/412/93 203/349/45
f 181/464/124 259/466/126 258/465/125
f 259/466/126 260/467/127 258/465/125
f 258/465/125 260/467/127 202/412/93
f 260/467/127 201/414/94 202/412/93
f 180/343/39 173/330/26 259/466/126
f 173/330/26 172/468/128 259/466/126
f 259/466/126 172/468/128 260/467/127
f 172/468/128 171/469/129 260/467/127
f 260/467/127 171/469/129 201/414/94
f 171/469/129 139/360/56 201/414/94
f 195/428/101 200/429/102 138/357/53
f 196/426/100 261/470/130 195/427/101
f 197/342/38 262/471/131 196/426/100
f 195/427/101 261/470/130 200/432/102
f 261/470/130 199/430/103 200/432/102
f 196/426/100 262/471/131 261/470/130
f 262/471/131 263/472/132 261/470/130
f 261/470/130 263/472/132 199/430/103
f 263/472/132 198/433/42 199/430/103
f 197/342/38 170/341/37 262/471/131
f 170/341/37 169/473/133 262/471/131
f 262/471/131 169/473/133 263/472/132
f 169/473/133 168/474/134 263/472/132
f 263/472/132 168/474/134 198/433/42
f 168/474/134 133/475/33 198/433/42
f 189/443/108 194/444/109 137/354/50
f 190/442/107 264/476/135 189/443/108
f 191/339/35 265/477/136 190/442/107
f 189/443/108 264/476/135 194/444/109
f 264/476/135 193/445/110 194/444/109
f 190/442/107 265/477/136 264/476/135
f 265/477/136 266/478/137 264/476/135
f 264/476/135 266/478/137 193/445/110
f 266/478/137 192/345/41 193/445/110
f 191/339/35 167/338/34 265/477/136
f 167/338/34 166/479/138 265/477/136
f 265/477/136 166/479/138 266/478/137
f 166/479/138 165/480/139 266/478/137
f 266/478/137 165/480/139 192/345/41
f 165/480/139 132/334/30 192/345/41
f 183/453/115 188/454/116 136/351/47
f 184/481/114 267/482/140 183/453/115
f 185/336/32 268/483/141 184/450/114
f 183/453/115 267/482/140 188/454/116
f 267/482/140 187/455/117 188/454/116
f 184/450/114 268/483/141 267/484/140
f 268/485/141 269/486/142 267/482/140
f 267/482/140 269/486/142 187/455/117
f 269/486/142 186/457/40 187/455/117
f 185/336/32 161/335/31 268/483/141
f 161/335/31 160/487/143 268/483/141
f 268/485/141 160/488/143 269/486/142
f 160/489/143 159/490/144 269/491/142
f 269/486/142 159/492/144 186/457/40
f 159/490/144 131/331/27 186/344/40
f 177/493/122 182/463/123 135/348/44
f 178/494/121 270/495/145 177/493/122
f 179/333/29 271/496/146 178/497/121
f 177/493/122 270/495/145 182/463/123
f 270/495/145 181/464/124 182/463/123
f 178/494/121 271/498/146 270/495/145
f 271/498/146 272/499/147 270/495/145
f 270/495/145 272/499/147 181/464/124
f 272/499/147 180/343/39 181/464/124
f 179/333/29 149/332/28 271/496/146
f 149/332/28 148/500/148 271/496/146
f 271/496/146 148/500/148 272/501/147
f 148/500/148 147/502/149 272/501/147
f 272/499/147 147/503/149 180/343/39
f 147/503/149 130/324/20 180/343/39
f 171/469/129 176/415/95 139/360/56
f 172/468/128 273/504/150 171/469/129
f 173/330/26 274/505/151 172/468/128
f 171/469/129 273/504/150 176/415/95
f 273/504/150 175/416/96 176/415/95
f 172/468/128 274/505/151 273/504/150
f 274/505/151 275/506/152 273/504/150
f 273/504/150 275/506/152 175/416/96
f 275/506/152 174/507/43 175/416/96
f 173/330/26 152/326/22 274/505/151
f 152/326/22 151/508/153 274/505/151
f 274/505/151 151/508/153 275/506/152
f 151/508/153 150/509/154 275/506/152
f 275/510/152 150/511/154 174/347/43
f 150/511/154 134/340/36 174/347/43
f 155/512/155 170/341/37 134/340/36
f 154/513/156 276/514/157 155/512/155
f 153/329/25 277/515/158 154/516/156
f 155/512/155 276/514/157 170/341/37
f 276/514/157 169/473/133 170/341/37
f 154/513/156 277/517/158 276/514/157
f 277/517/158 278/518/159 276/514/157
f 276/514/157 278/518/159 169/473/133
f 278/518/159 168/474/134 169/473/133
f 153/329/25 164/328/24 277/515/158
f 164/328/24 163/519/160 277/515/158
f 277/515/158 163/519/160 278/520/159
f 163/519/160 162/521/161 278/520/159
f 278/518/159 162/522/161 168/474/134
f 162/522/161 133/475/33 168/474/134
f 162/523/161 167/338/34 133/337/33
f 163/519/160 279/524/162 162/521/161
f 164/328/24 280/525/163 163/519/160
f 162/523/161 279/526/162 167/338/34
f 279/526/162 166/479/138 167/338/34
f 163/519/160 280/525/163 279/524/162
f 280/525/163 281/527/164 279/524/162
f 279/526/162 281/528/164 166/479/138
f 281/528/164 165/480/139 166/479/138
f 164/328/24 158/327/23 280/525/163
f 158/327/23 157/529/165 280/525/163
f 280/525/163 157/529/165 281/527/164
f 157/529/165 156/530/166 281/527/164
f 281/528/164 156/531/166 165/480/139
f 156/531/166 132/334/30 165/480/139
f 156/531/166 161/335/31 132/334/30
f 157/529/165 282/532/167 156/530/166
f 158/327/23 283/533/168 157/529/165
f 156/531/166 282/534/167 161/335/31
f 282/532/167 160/489/143 161/535/31
f 157/529/165 283/533/168 282/532/167
f 283/533/168 284/536/169 282/532/167
f 282/532/167 284/536/169 160/489/143
f 284/536/169 159/490/144 160/489/143
f 158/327/23 143/323/19 283/533/168
f 143/323/19 142/537/170 283/533/168
f 283/533/168 142/537/170 284/536/169
f 142/537/170 141/538/171 284/536/169
f 284/536/169 141/538/171 159/490/144
f 141/538/171 131/331/27 159/490/144
f 150/511/154 155/512/155 134/340/36
f 151/539/153 285/540/172 150/511/154
f 152/326/22 286/541/173 151/508/153
f 150/511/154 285/540/172 155/512/155
f 285/540/172 154/513/156 155/512/155
f 151/542/153 286/543/173 285/544/172
f 286/543/173 287/545/174 285/544/172
f 285/544/172 287/545/174 154/516/156
f 287/545/174 153/329/25 154/516/156
f 152/546/22 146/547/21 286/543/173
f 146/547/21 145/548/175 286/543/173
f 286/543/173 145/548/175 287/545/174
f 145/548/175 144/322/18 287/545/174
f 287/545/174 144/322/18 153/329/25
f 144/322/18 129/321/17 153/329/25
f 141/538/171 149/332/28 131/331/27
f 142/537/170 288/549/176 141/538/171
f 143/323/19 289/550/177 142/537/170
f 141/538/171 288/549/176 149/332/28
f 288/549/176 148/500/148 149/332/28
f 142/537/170 289/550/177 288/549/176
f 289/550/177 290/551/178 288/549/176
f 288/549/176 290/551/178 148/500/148
f 290/551/178 147/502/149 148/500/148
f 143/323/19 144/322/18 289/550/177
f 144/322/18 145/548/175 289/550/177
f 289/550/177 145/548/175 290/551/178
f 145/548/175 146/547/21 290/551/178
f 290/551/178 146/547/21 147/502/149
f 146/547/21 130/552/20 147/502/149
f 291/553/179 292/554/180 294/555/181 293/556/182
f 293/557/182 294/558/181 296/559/183 295/560/184
f 295/560/184 296/559/183 298/561/185 297/562/186
f 297/563/186 298/564/185 300/565/187 299/566/188
f 294/567/181 292/568/180 302/569/189 300/570/187 298/571/185 296/572/183
f 299/573/188 300/574/187 302/575/189 301/576/190
f 301/576/190 302/575/189 292/577/180 291/578/179
f 291/579/179 293/580/182 295/581/184 297/582/186 299/583/188 301/584/190
f 303/585/191 316/586/192 315/587/193
f 304/588/194 316/589/192 318/590/195
f 303/585/191 315/587/193 320/591/196
f 303/585/191 320/591/196 322/592/197
f 303/585/191 322/592/197 319/593/198
f 304/588/194 318/590/195 325/594/199
f 305/595/200 317/596/201 327/597/121
f 306/598/202 321/599/203 329/600/204
f 307/601/205 323/602/206 331/603/207
f 308/604/208 324/605/209 333/606/210
f 304/588/194 325/594/199 328/607/211
f 305/608/200 327/609/121 330/610/212
f 306/598/202 329/600/204 332/611/213
f 307/601/205 331/603/207 334/612/103
f 308/604/208 333/606/210 326/613/214
f 309/614/215 335/615/216 340/616/217
f 310/617/218 336/618/219 342/619/220
f 311/620/221 337/621/222 343/622/223
f 312/623/224 338/624/225 344/625/226
f 313/626/227 339/627/228 341/628/229
f 341/628/229 344/625/226 314/629/230
f 341/628/229 339/627/228 344/625/226
f 339/627/228 312/623/224 344/625/226
f 344/625/226 343/630/223 314/629/230
f 344/625/226 338/624/225 343/630/223
f 338/624/225 311/631/221 343/630/223
f 343/630/223 342/632/220 314/629/230
f 343/630/223 337/633/222 342/632/220
f 337/634/222 310/617/218 342/619/220
f 342/632/220 340/635/217 314/629/230
f 342/619/220 336/618/219 340/636/217
f 336/618/219 309/637/215 340/636/217
f 340/635/217 341/628/229 314/629/230
f 340/635/217 335/638/216 341/628/229
f 335/615/216 313/639/227 341/640/229
f 326/641/214 339/642/228 313/639/227
f 326/613/214 333/606/210 339/643/228
f 333/606/210 312/644/224 339/643/228
f 334/645/103 338/624/225 312/623/224
f 334/612/103 331/603/207 338/646/225
f 331/603/207 311/620/221 338/646/225
f 332/611/213 337/621/222 311/620/221
f 332/611/213 329/600/204 337/621/222
f 329/600/204 310/647/218 337/621/222
f 330/610/212 336/618/219 310/617/218
f 330/610/212 327/609/121 336/618/219
f 327/609/121 309/637/215 336/618/219
f 328/607/211 335/615/216 309/614/215
f 328/607/211 325/594/199 335/615/216
f 325/594/199 313/639/227 335/615/216
f 333/606/210 334/648/103 312/644/224
f 333/606/210 324/605/209 334/648/103
f 324/605/209 307/649/205 334/648/103
f 331/603/207 332/611/213 311/620/221
f 331/603/207 323/602/206 332/611/213
f 323/602/206 306/598/202 332/611/213
f 329/650/204 330/610/212 310/617/218
f 329/650/204 321/651/203 330/610/212
f 321/651/203 305/608/200 330/610/212
f 327/652/121 328/607/211 309/614/215
f 327/652/121 317/653/201 328/607/211
f 317/653/201 304/588/194 328/607/211
f 325/594/199 326/641/214 313/639/227
f 325/594/199 318/590/195 326/641/214
f 318/590/195 308/654/208 326/641/214
f 319/655/198 324/605/209 308/604/208
f 319/655/198 322/656/197 324/605/209
f 322/656/197 307/649/205 324/605/209
f 322/657/197 323/602/206 307/601/205
f 322/657/197 320/658/196 323/602/206
f 320/658/196 306/598/202 323/602/206
f 320/658/196 321/599/203 306/598/202
f 320/591/196 315/587/193 321/659/203
f 315/587/193 305/595/200 321/659/203
f 318/660/195 319/655/198 308/604/208
f 318/661/195 316/586/192 319/593/198
f 316/586/192 303/585/191 319/593/198
f 315/587/193 317/596/201 305/595/200
f 315/587/193 316/586/192 317/596/201
f 316/586/192 304/662/194 317/596/201
f 345/663/231 358/664/232 357/665/233
f 346/666/234 358/664/232 360/667/235
f 345/663/231 357/665/233 362/668/236
f 345/663/231 362/668/236 364/669/237
f 345/663/231 364/669/237 361/670/238
f 346/671/234 360/672/235 367/673/239
f 347/674/240 359/675/241 369/676/121
f 348/677/242 363/678/243 371/679/244
f 349/680/245 365/681/246 373/682/247
f 350/683/248 366/684/249 375/685/250
f 346/671/234 367/673/239 370/686/251
f 347/687/240 369/688/121 372/689/252
f 348/677/242 371/679/244 374/690/253
f 349/680/245 373/682/247 376/691/103
f 350/683/248 375/685/250 368/692/254
f 351/693/255 377/694/256 382/695/257
f 352/696/258 378/697/259 384/698/260
f 353/699/261 379/700/262 385/701/263
f 354/702/264 380/703/265 386/704/266
f 355/705/267 381/706/268 383/707/269
f 383/707/269 386/704/266 356/708/270
f 383/707/269 381/706/268 386/704/266
f 381/706/268 354/702/264 386/704/266
f 386/704/266 385/709/263 356/708/270
f 386/704/266 380/703/265 385/709/263
f 380/703/265 353/710/261 385/709/263
f 385/709/263 384/711/260 356/708/270
f 385/709/263 379/712/262 384/711/260
f 379/713/262 352/696/258 384/698/260
f 384/711/260 382/714/257 356/708/270
f 384/698/260 378/697/259 382/715/257
f 378/697/259 351/716/255 382/715/257
f 382/714/257 383/707/269 356/708/270
f 382/714/257 377/717/256 383/707/269
f 377/694/256 355/718/267 383/719/269
f 368/720/254 381/721/268 355/718/267
f 368/692/254 375/685/250 381/722/268
f 375/685/250 354/723/264 381/722/268
f 376/724/103 380/725/265 354/723/264
f 376/691/103 373/682/247 380/726/265
f 373/682/247 353/699/261 380/726/265
f 374/690/253 379/700/262 353/699/261
f 374/690/253 371/679/244 379/700/262
f 371/727/244 352/696/258 379/713/262
f 372/689/252 378/697/259 352/696/258
f 372/689/252 369/688/121 378/697/259
f 369/688/121 351/716/255 378/697/259
f 370/686/251 377/694/256 351/693/255
f 370/686/251 367/673/239 377/694/256
f 367/673/239 355/718/267 377/694/256
f 375/685/250 376/724/103 354/723/264
f 375/685/250 366/684/249 376/724/103
f 366/684/249 349/728/245 376/724/103
f 373/682/247 374/690/253 353/699/261
f 373/682/247 365/681/246 374/690/253
f 365/681/246 348/677/242 374/690/253
f 371/727/244 372/689/252 352/696/258
f 371/727/244 363/729/243 372/689/252
f 363/729/243 347/687/240 372/689/252
f 369/730/121 370/686/251 351/693/255
f 369/730/121 359/731/241 370/686/251
f 359/731/241 346/671/234 370/686/251
f 367/673/239 368/720/254 355/718/267
f 367/673/239 360/672/235 368/720/254
f 360/732/235 350/683/248 368/692/254
f 361/733/238 366/684/249 350/683/248
f 361/733/238 364/734/237 366/684/249
f 364/734/237 349/728/245 366/684/249
f 364/735/237 365/681/246 349/680/245
f 364/735/237 362/736/236 365/681/246
f 362/736/236 348/677/242 365/681/246
f 362/668/236 363/737/243 348/738/242
f 362/668/236 357/665/233 363/737/243
f 357/665/233 347/674/240 363/737/243
f 360/732/235 361/733/238 350/683/248
f 360/667/235 358/664/232 361/670/238
f 358/664/232 345/663/231 361/670/238
f 357/665/233 359/675/241 347/674/240
f 357/665/233 358/664/232 359/675/241
f 358/664/232 346/666/234 359/675/241
f 387/739/231 388/740/234 389/741/240
f 388/740/234 387/739/231 392/742/248
f 387/739/231 389/741/240 390/743/242
f 387/744/231 390/745/242 391/746/245
f 387/747/231 391/748/245 392/749/248
f 388/750/234 392/751/248 397/752/267
f 389/753/240 388/750/234 393/754/271
f 390/755/242 389/756/240 394/757/258
f 391/746/245 390/745/242 395/758/261
f 392/749/248 391/748/245 396/759/264
f 388/750/234 397/752/267 393/754/271
f 389/756/240 393/760/271 394/757/258
f 390/745/242 394/761/258 395/758/261
f 391/746/245 395/758/261 396/762/264
f 392/749/248 396/759/264 397/763/267
f 393/764/271 397/765/267 398/766/270
f 394/757/258 393/760/271 398/767/270
f 395/768/261 394/769/258 398/766/270
f 396/770/264 395/768/261 398/766/270
f 397/765/267 396/770/264 398/766/270
f 399/771/231 400/772/234 401/773/240
f 400/772/234 399/771/231 404/774/248
f 399/771/231 401/773/240 402/775/242
f 399/776/231 402/777/242 403/778/245
f 399/779/231 403/780/245 404/781/248
f 400/782/234 404/783/248 409/784/267
f 401/785/240 400/782/234 405/786/271
f 402/787/242 401/788/240 406/789/258
f 403/778/245 402/777/242 407/790/261
f 404/781/248 403/780/245 408/791/272
f 400/782/234 409/784/267 405/786/271
f 401/788/240 405/792/271 406/789/258
f 402/777/242 406/793/258 407/790/261
f 403/778/245 407/790/261 408/794/272
f 404/781/248 408/791/272 409/795/267
f 405/796/271 409/797/267 410/798/270
f 406/789/258 405/792/271 410/799/270
f 407/800/261 406/801/258 410/798/270
f 408/802/272 407/800/261 410/798/270
f 409/797/267 408/802/272 410/798/270
f 411/803/273 412/804/274 414/805/275 413/806/276
f 413/807/276 414/808/275 416/809/277 415/810/278
f 415/810/278 416/809/277 418/811/279 417/812/280
f 417/813/280 418/814/279 420/815/281 419/816/282
f 419/816/282 420/815/281 422/817/283 421/818/284
f 414/819/275 412/820/274 424/821/285 422/822/283 420/823/281 418/824/279 416/825/277
f 421/826/284 422/827/283 424/828/285 423/829/286
f 423/829/286 424/828/285 412/830/274 411/831/273
f 411/832/273 413/833/276 415/834/278 417/835/280 419/836/282 421/837/284 423/838/286
f 425/839/287 426/840/288 428/841/289 427/842/290
f 427/842/290 428/841/289 430/843/291 429/844/292
f 429/845/292 430/846/291 432/847/293 431/848/294
f 431/849/294 432/850/293 434/851/295 433/852/296
f 433/852/296 434/851/295 436/853/297 435/854/298
f 428/855/289 426/856/288 438/857/299 436/858/297 434/859/295 432/860/293 430/861/291
f 435/862/298 436/863/297 438/864/299 437/865/300
f 437/865/300 438/864/299 426/866/288 425/867/287
f 425/868/287 427/869/290 429/870/292 431/871/294 433/872/296 435/873/298 437/874/300
f 439/875/231 440/876/234 441/877/240
f 440/876/234 439/875/231 444/878/248
f 439/875/231 441/877/240 442/879/242
f 439/880/231 442/881/242 443/882/245
f 439/883/231 443/884/245 444/885/248
f 440/886/234 444/887/248 449/888/267
f 441/889/240 440/886/234 445/890/271
f 442/891/242 441/892/240 446/893/258
f 443/882/245 442/881/242 447/894/261
f 444/885/248 443/884/245 448/895/272
f 440/886/234 449/888/267 445/890/271
f 441/892/240 445/896/271 446/893/258
f 442/881/242 446/897/258 447/894/261
f 443/882/245 447/894/261 448/898/272
f 444/885/248 448/895/272 449/899/267
f 445/900/271 449/901/267 450/902/270
f 446/893/258 445/896/271 450/903/270
f 447/904/261 446/905/258 450/902/270
f 448/906/272 447/904/261 450/902/270
f 449/901/267 448/906/272 450/902/270
f 451/907/231 452/908/234 453/909/240
f 452/908/234 451/907/231 456/910/248
f 451/907/231 453/909/240 454/911/242
f 451/912/231 454/913/242 455/914/245
f 451/915/231 455/916/245 456/917/248
f 452/918/234 456/919/248 461/920/267
f 453/921/240 452/918/234 457/922/271
f 454/923/242 453/924/240 458/925/258
f 455/914/245 454/913/242 459/926/261
f 456/917/248 455/916/245 460/927/272
f 452/918/234 461/920/267 457/922/271
f 453/924/240 457/928/271 458/925/258
f 454/913/242 458/929/258 459/926/261
f 455/914/245 459/926/261 460/930/272
f 456/917/248 460/927/272 461/931/267
f 457/932/271 461/933/267 462/934/270
f 458/925/258 457/928/271 462/935/270
f 459/936/261 458/937/258 462/934/270
f 460/938/272 459/936/261 462/934/270
f 461/933/267 460/938/272 462/934/270
f 463/939/301 464/940/302 466/941/303 465/942/304
f 465/943/304 466/944/303 468/945/305 467/946/306
f 467/946/306 468/945/305 470/947/307 469/948/308
f 469/949/308 470/950/307 472/951/309 471/952/310
f 471/952/310 472/951/309 474/953/311 473/954/312
f 466/941/303 464/940/302 476/955/313 474/956/311 472/957/309 470/958/307 468/959/305
f 473/960/312 474/961/311 476/962/313 475/963/314
f 475/964/314 476/955/313 464/940/302 463/939/301
f 463/965/301 465/966/304 467/967/306 469/968/308 471/969/310 473/970/312 475/971/314
f 477/972/301 478/973/302 480/974/303 479/975/304
f 479/976/304 480/977/303 482/978/305 481/979/306
f 481/979/306 482/978/305 484/980/307 483/981/308
f 483/982/308 484/983/307 486/984/309 485/985/310
f 485/985/310 486/984/309 488/986/311 487/987/312
f 480/974/303 478/973/302 490/988/313 488/989/311 486/990/309 484/991/307 482/992/305
f 487/993/312 488/994/311 490/995/313 489/996/314
f 489/997/314 490/988/313 478/973/302 477/972/301
f 477/998/301 479/999/304 481/1000/306 483/1001/308 485/1002/310 487/1003/312 489/1004/314
f 491/1005/301 492/1006/302 494/1007/303 493/1008/304
f 493/1009/304 494/1010/303 496/1011/305 495/1012/306
f 495/1012/306 496/1011/305 498/1013/307 497/1014/308
f 497/1015/308 498/1016/307 500/1017/309 499/1018/310
f 499/1018/310 500/1017/309 502/1019/311 501/1020/312
f 494/1007/303 492/1006/302 504/1021/313 502/1022/311 500/1023/309 498/1024/307 496/1025/305
f 501/1026/312 502/1027/311 504/1028/313 503/1029/314
f 503/1030/314 504/1021/313 492/1006/302 491/1005/301
f 491/1031/301 493/1032/304 495/1033/306 497/1034/308 499/1035/310 501/1036/312 503/1037/314
f 505/1038/301 506/1039/302 508/1040/303 507/1041/304
f 507/1042/304 508/1043/303 510/1044/305 509/1045/306
f 509/1045/306 510/1044/305 512/1046/307 511/1047/308
f 511/1048/308 512/1049/307 514/1050/309 513/1051/310
f 513/1051/310 514/1050/309 516/1052/311 515/1053/312
f 508/1040/303 506/1039/302 518/1054/313 516/1055/311 514/1056/309 512/1057/307 510/1058/305
f 515/1059/312 516/1060/311 518/1061/313 517/1062/314
f 517/1063/314 518/1054/313 506/1039/302 505/1038/301
f 505/1064/301 507/1065/304 509/1066/306 511/1067/308 513/1068/310 515/1069/312 517/1070/314
f 519/1071/301 520/1072/302 522/1073/303 521/1074/304
f 521/1075/304 522/1076/303 524/1077/305 523/1078/306
f 523/1078/306 524/1077/305 526/1079/307 525/1080/308
f 525/1081/308 526/1082/307 528/1083/309 527/1084/310
f 527/1084/310 528/1083/309 530/1085/311 529/1086/312
f 522/1073/303 520/1072/302 532/1087/313 530/1088/311 528/1089/309 526/1090/307 524/1091/305
f 529/1092/312 530/1093/311 532/1094/313 531/1095/314
f 531/1096/314 532/1087/313 520/1072/302 519/1071/301
f 519/1097/301 521/1098/304 523/1099/306 525/1100/308 527/1101/310 529/1102/312 531/1103/314
f 533/1104/301 534/1105/302 536/1106/303 535/1107/304
f 535/1108/304 536/1109/303 538/1110/305 537/1111/306
f 537/1111/306 538/1110/305 540/1112/315 539/1113/308
f 539/1114/308 540/1115/315 542/1116/309 541/1117/310
f 541/1117/310 542/1116/309 544/1118/311 543/1119/312
f 536/1106/303 534/1105/302 546/1120/313 544/1121/311 542/1122/309 540/1123/315 538/1124/305
f 543/1125/312 544/1126/311 546/1127/313 545/1128/314
f 545/1129/314 546/1120/313 534/1105/302 533/1104/301
f 533/1130/301 535/1131/304 537/1132/306 539/1133/308 541/1134/310 543/1135/312 545/1136/314
f 547/1137/316 548/1138/317 550/1139/318 549/1140/319
f 549/1140/319 550/1139/318 552/1141/320 551/1142/321
f 551/1143/321 552/1144/320 554/1145/322 553/1146/323
f 553/1147/323 554/1148/322 556/1149/324 555/1150/325
f 550/1151/318 548/1152/317 558/1153/326 556/1154/324 554/1155/322 552/1156/320
f 555/1150/325 556/1149/324 558/1157/326 557/1158/327
f 557/1159/327 558/1160/326 548/1161/317 547/1162/316
f 547/1163/316 549/1164/319 551/1165/321 553/1166/323 555/1167/325 557/1168/327
f 559/1169/328 560/1170/329 562/1171/330 561/1172/331
f 561/1172/331 562/1171/330 564/1173/332 563/1174/333
f 563/1175/333 564/1176/332 566/1177/334 565/1178/335
f 565/1179/335 566/1180/334 568/1181/336 567/1182/337
f 562/1183/330 560/1184/329 570/1185/338 568/1186/336 566/1187/334 564/1188/332
f 567/1182/337 568/1181/336 570/1189/338 569/1190/339
f 569/1191/339 570/1192/338 560/1193/329 559/1194/328
f 559/1195/328 561/1196/331 563/1197/333 565/1198/335 567/1199/337 569/1200/339
