# axis-converted-to-Y-up
# Blender 5.1.1
# www.blender.org
mtllib mob_ayam.mtl
o mob_ayam
v 3.707865 0.016854 -0.002851
v 3.707865 0.162921 -0.002851
v 3.693961 0.016854 -0.008610
v 3.693961 0.162921 -0.008610
v 3.688202 0.016854 -0.022514
v 3.688202 0.162921 -0.022514
v 3.693961 0.016854 -0.036418
v 3.693961 0.162921 -0.036418
v 3.707865 0.016854 -0.042177
v 3.707865 0.162921 -0.042177
v 3.721769 0.016854 -0.036418
v 3.721769 0.162921 -0.036418
v 3.727528 0.016854 -0.022514
v 3.727528 0.162921 -0.022514
v 3.721769 0.016854 -0.008610
v 3.721769 0.162921 -0.008610
v 3.707865 0.000000 0.022430
v 3.679409 0.015528 0.007663
v 3.718734 0.015528 -0.001464
v 3.743039 0.015528 0.022430
v 3.718734 0.015528 0.046324
v 3.679409 0.015528 0.037198
v 3.696996 0.040652 -0.001464
v 3.736321 0.040652 0.007663
v 3.736321 0.040652 0.037198
v 3.696996 0.040652 0.046324
v 3.672691 0.040652 0.022430
v 3.707865 0.056180 0.022430
v 3.595505 0.026979 0.064649
v 3.595505 0.173046 0.064649
v 3.581601 0.026979 0.058890
v 3.581601 0.173046 0.058890
v 3.575842 0.026979 0.044986
v 3.575842 0.173046 0.044986
v 3.581601 0.026979 0.031082
v 3.581601 0.173046 0.031082
v 3.595505 0.026979 0.025323
v 3.595505 0.173046 0.025323
v 3.609409 0.026979 0.031082
v 3.609409 0.173046 0.031082
v 3.615168 0.026979 0.044986
v 3.615168 0.173046 0.044986
v 3.609409 0.026979 0.058890
v 3.609409 0.173046 0.058890
v 3.595505 0.010125 0.089930
v 3.567049 0.025653 0.075163
v 3.606375 0.025653 0.066036
v 3.630680 0.025653 0.089930
v 3.606375 0.025653 0.113824
v 3.567049 0.025653 0.104698
v 3.584636 0.050777 0.066036
v 3.623962 0.050777 0.075163
v 3.623962 0.050777 0.104698
v 3.584636 0.050777 0.113824
v 3.560331 0.050777 0.089930
v 3.595505 0.066305 0.089930
v 3.651685 0.085968 0.033750
v 3.529729 0.183791 -0.085867
v 3.698267 0.173666 -0.227296
v 3.802432 0.173667 -0.033750
v 3.698267 0.173666 0.159797
v 3.529729 0.183791 0.153368
v 3.605103 0.346952 -0.191071
v 3.773642 0.346952 -0.117142
v 3.773642 0.346952 0.122093
v 3.605103 0.346952 0.196022
v 3.500939 0.346951 0.002475
v 3.651685 0.444775 0.002475
v 3.690925 0.136450 -0.196788
v 3.679066 0.102272 -0.147513
v 3.664765 0.081515 -0.088095
v 3.617441 0.091640 0.000163
v 3.580002 0.112397 -0.036559
v 3.548953 0.146576 -0.067012
v 3.562032 0.174044 -0.121359
v 3.607381 0.169896 -0.150323
v 3.656681 0.163919 -0.230376
v 3.514708 0.174044 0.100925
v 3.508318 0.169896 0.033750
v 3.514708 0.174044 -0.033424
v 3.617441 0.091640 0.067337
v 3.580002 0.112397 0.104059
v 3.548953 0.146576 0.134513
v 3.778669 0.136451 -0.033750
v 3.740292 0.102272 -0.033750
v 3.694013 0.081515 -0.033750
v 3.733254 0.163919 -0.196788
v 3.767673 0.159771 -0.147513
v 3.791750 0.163919 -0.088096
v 3.690925 0.136450 0.129289
v 3.679066 0.102272 0.080013
v 3.664765 0.081515 0.020596
v 3.791750 0.163919 0.020596
v 3.767673 0.159771 0.080014
v 3.733254 0.163919 0.129289
v 3.656681 0.163919 0.162877
v 3.607381 0.169896 0.217823
v 3.562032 0.174044 0.188859
v 3.490456 0.312254 -0.031112
v 3.491395 0.267809 -0.067834
v 3.506624 0.218488 -0.067012
v 3.506624 0.218488 0.134513
v 3.491395 0.267809 0.072784
v 3.490456 0.312254 0.036062
v 3.625525 0.312254 -0.214910
v 3.651685 0.267809 -0.225053
v 3.677845 0.208363 -0.251135
v 3.535872 0.218488 -0.121359
v 3.552620 0.267809 -0.181599
v 3.578201 0.312254 -0.194152
v 3.796747 0.312254 -0.098287
v 3.811976 0.267809 -0.067834
v 3.812914 0.208364 -0.067337
v 3.725170 0.208363 -0.230377
v 3.750750 0.267809 -0.181599
v 3.767499 0.312254 -0.152634
v 3.767499 0.312254 0.157585
v 3.750750 0.267809 0.186549
v 3.725170 0.208363 0.162877
v 3.812914 0.208364 -0.000163
v 3.811976 0.267809 0.072784
v 3.796747 0.312254 0.103238
v 3.578201 0.312254 0.199102
v 3.552620 0.267809 0.186549
v 3.535872 0.218488 0.188860
v 3.677845 0.208363 0.183636
v 3.651685 0.267809 0.230003
v 3.625525 0.312254 0.219861
v 3.511621 0.356699 -0.051871
v 3.535698 0.360847 -0.111288
v 3.570117 0.356699 -0.160563
v 3.646690 0.356699 -0.194151
v 3.695989 0.360847 -0.181598
v 3.741338 0.356699 -0.152634
v 3.788662 0.356699 -0.064699
v 3.795053 0.360847 0.002475
v 3.788662 0.356699 0.069650
v 3.741338 0.356699 0.157584
v 3.695989 0.360847 0.186548
v 3.646690 0.356699 0.199102
v 3.570117 0.356699 0.165514
v 3.535698 0.360847 0.116239
v 3.511621 0.356699 0.056821
v 3.638606 0.439103 -0.051870
v 3.624305 0.418346 -0.111288
v 3.612445 0.384168 -0.160563
v 3.524701 0.384167 0.002475
v 3.563079 0.418345 0.002475
v 3.609357 0.439103 0.002475
v 3.685929 0.439103 -0.031112
v 3.723369 0.418346 -0.067834
v 3.754418 0.384167 -0.098287
v 3.685929 0.439103 0.036062
v 3.723369 0.418346 0.072784
v 3.754418 0.384167 0.103238
v 3.638606 0.439103 0.056821
v 3.624305 0.418346 0.116238
v 3.612445 0.384168 0.165514
v 3.590708 0.426093 0.062284
v 3.544125 0.395863 0.062284
v 3.576313 0.395864 0.122093
v 3.674977 0.426093 0.099247
v 3.660583 0.395864 0.159057
v 3.712663 0.395864 0.136211
v 3.727058 0.426093 0.002475
v 3.764744 0.395863 0.039439
v 3.764744 0.395863 -0.034488
v 3.674977 0.426093 -0.094297
v 3.712663 0.395864 -0.131261
v 3.660583 0.395864 -0.154106
v 3.590708 0.426093 -0.057334
v 3.576313 0.395864 -0.117143
v 3.544125 0.395863 -0.057334
v 3.506438 0.316722 0.099248
v 3.515334 0.267809 0.136212
v 3.538626 0.316722 0.159058
v 3.674978 0.316722 0.218867
v 3.703767 0.267809 0.218867
v 3.727058 0.316722 0.196022
v 3.811328 0.316722 0.039439
v 3.820225 0.267809 0.002475
v 3.811328 0.316722 -0.034488
v 3.727059 0.316722 -0.191071
v 3.703767 0.267809 -0.213917
v 3.674978 0.316722 -0.213916
v 3.538626 0.316722 -0.154107
v 3.515334 0.267808 -0.131262
v 3.506438 0.316721 -0.094298
v 3.599604 0.267809 0.218867
v 3.576312 0.214021 0.227297
v 3.628393 0.214021 0.250142
v 3.788036 0.267809 0.136212
v 3.764745 0.203896 0.122833
v 3.796933 0.203896 0.063023
v 3.788036 0.267809 -0.131262
v 3.796933 0.203896 -0.130523
v 3.764745 0.203896 -0.190332
v 3.599604 0.267809 -0.213917
v 3.628393 0.214021 -0.182641
v 3.576312 0.214021 -0.159796
v 3.483146 0.267809 0.002475
v 3.492043 0.214021 -0.003213
v 3.492043 0.214021 0.070714
v 3.590707 0.134879 0.167487
v 3.628394 0.104650 0.130523
v 3.642788 0.134879 0.190332
v 3.727058 0.124754 0.085868
v 3.712663 0.094525 0.026059
v 3.759246 0.124754 0.026059
v 3.759246 0.124754 -0.093559
v 3.712663 0.094525 -0.093559
v 3.727058 0.124754 -0.153368
v 3.538626 0.134879 0.070714
v 3.538626 0.134879 -0.003213
v 3.576313 0.104650 0.033750
v 3.642788 0.134879 -0.122831
v 3.628393 0.104650 -0.063022
v 3.590707 0.134879 -0.099986
v 3.803371 0.174157 -0.044986
v 3.770849 0.238845 -0.060743
v 3.815793 0.238845 -0.092870
v 3.843570 0.238846 -0.008761
v 3.815793 0.238845 0.075348
v 3.770849 0.238845 0.043221
v 3.790949 0.319244 -0.092870
v 3.835892 0.319244 -0.060743
v 3.835892 0.319244 0.043221
v 3.790949 0.319244 0.075348
v 3.763172 0.319244 -0.008761
v 3.803371 0.368933 -0.008761
v 3.810673 0.187581 -0.094423
v 3.784255 0.187581 -0.075540
v 3.791557 0.231788 -0.088753
v 3.765139 0.231788 -0.008761
v 3.784255 0.187581 -0.014432
v 3.826999 0.187582 -0.044986
v 3.834301 0.231788 -0.058198
v 3.810673 0.187581 0.004452
v 3.834301 0.231788 0.040677
v 3.791557 0.231788 0.071232
v 3.760626 0.279045 -0.039315
v 3.760626 0.279045 0.021793
v 3.803371 0.279045 -0.107637
v 3.776953 0.279045 -0.088753
v 3.846115 0.279045 -0.039315
v 3.829788 0.279045 -0.088753
v 3.829788 0.279045 0.071232
v 3.846115 0.279045 0.021793
v 3.776953 0.279045 0.071232
v 3.803371 0.279045 0.090116
v 3.772441 0.326302 -0.058198
v 3.815185 0.326302 -0.088753
v 3.841602 0.326302 -0.008761
v 3.815185 0.326302 0.071232
v 3.772441 0.326302 0.040677
v 3.796069 0.355508 -0.058198
v 3.779742 0.355508 -0.008761
v 3.822486 0.355508 -0.039315
v 3.822486 0.355508 0.021793
v 3.796069 0.355508 0.040677
v 3.500000 0.184282 0.022514
v 3.467479 0.238845 -0.060743
v 3.512422 0.238845 -0.092870
v 3.540199 0.238846 -0.008761
v 3.512422 0.238845 0.075348
v 3.467479 0.238845 0.043221
v 3.487578 0.319244 -0.092870
v 3.532522 0.319244 -0.060743
v 3.532522 0.319244 0.043221
v 3.487578 0.319244 0.075348
v 3.459801 0.319244 -0.008761
v 3.500000 0.368933 -0.008761
v 3.507301 0.197706 -0.026923
v 3.480884 0.197706 -0.008040
v 3.488186 0.231788 -0.088753
v 3.461769 0.231788 -0.008761
v 3.480884 0.197706 0.053068
v 3.523628 0.197707 0.022514
v 3.530930 0.231788 -0.058198
v 3.507301 0.197706 0.071952
v 3.530930 0.231788 0.040677
v 3.488186 0.231788 0.071231
v 3.457256 0.279045 -0.039315
v 3.457256 0.279045 0.021793
v 3.500000 0.279045 -0.107637
v 3.473583 0.279045 -0.088753
v 3.542744 0.279045 -0.039315
v 3.526417 0.279045 -0.088753
v 3.526417 0.279045 0.071232
v 3.542744 0.279045 0.021793
v 3.473583 0.279045 0.071232
v 3.500000 0.279045 0.090116
v 3.469070 0.326302 -0.058198
v 3.511814 0.326302 -0.088753
v 3.538231 0.326302 -0.008761
v 3.511814 0.326302 0.071231
v 3.469070 0.326302 0.040677
v 3.492698 0.355508 -0.058198
v 3.476372 0.355508 -0.008761
v 3.519116 0.355508 -0.039315
v 3.519116 0.355508 0.021793
v 3.492698 0.355508 0.040677
v 3.651685 0.298708 0.148543
v 3.584610 0.349949 0.099810
v 3.677306 0.349949 0.069690
v 3.734596 0.349949 0.148543
v 3.677306 0.349949 0.227395
v 3.584610 0.349949 0.197276
v 3.626065 0.432860 0.069690
v 3.718761 0.432860 0.099810
v 3.718761 0.432860 0.197276
v 3.626065 0.432860 0.227395
v 3.568775 0.432860 0.148543
v 3.651685 0.484101 0.148543
v 3.666744 0.312552 0.102195
v 3.612259 0.312552 0.119898
v 3.627318 0.342670 0.073550
v 3.572833 0.342671 0.148543
v 3.612259 0.312552 0.177187
v 3.700418 0.312552 0.148543
v 3.715478 0.342671 0.102194
v 3.666744 0.312552 0.194890
v 3.715478 0.342671 0.194890
v 3.627318 0.342670 0.223535
v 3.563525 0.391404 0.119898
v 3.563525 0.391404 0.177187
v 3.651685 0.391404 0.055846
v 3.597199 0.391404 0.073549
v 3.739846 0.391404 0.119898
v 3.706171 0.391404 0.073549
v 3.706171 0.391404 0.223536
v 3.739846 0.391404 0.177187
v 3.597199 0.391404 0.223536
v 3.651685 0.391404 0.241239
v 3.587893 0.440138 0.102194
v 3.676053 0.440139 0.073550
v 3.730538 0.440138 0.148543
v 3.676053 0.440139 0.223535
v 3.587893 0.440138 0.194890
v 3.636626 0.470257 0.102195
v 3.602952 0.470257 0.148543
v 3.691111 0.470257 0.119898
v 3.691111 0.470257 0.177187
v 3.636626 0.470257 0.194890
v 3.651685 0.352079 0.210340
v 3.651685 0.382977 0.300228
v 3.625331 0.364770 0.210340
v 3.649489 0.384035 0.300228
v 3.618822 0.393287 0.210340
v 3.648947 0.386412 0.300228
v 3.637060 0.416156 0.210340
v 3.650466 0.388317 0.300228
v 3.666311 0.416156 0.210340
v 3.652905 0.388317 0.300228
v 3.684548 0.393287 0.210340
v 3.654424 0.386412 0.300228
v 3.678039 0.364770 0.210340
v 3.653881 0.384035 0.300228
v 3.651685 0.284663 0.204723
v 3.631359 0.306402 0.189955
v 3.659449 0.306402 0.180828
v 3.676810 0.306402 0.204723
v 3.659449 0.306402 0.228617
v 3.631359 0.306402 0.219490
v 3.643922 0.341576 0.180828
v 3.672011 0.341576 0.189955
v 3.672011 0.341576 0.219490
v 3.643922 0.341576 0.228617
v 3.626561 0.341576 0.204723
v 3.651685 0.363315 0.204723
v 3.679775 0.443792 0.152634
v 3.679775 0.513770 0.146756
v 3.662206 0.445472 0.144342
v 3.677579 0.513980 0.145720
v 3.657867 0.449249 0.125709
v 3.677037 0.514452 0.143391
v 3.670025 0.452279 0.110767
v 3.678557 0.514831 0.141523
v 3.689525 0.452279 0.110767
v 3.680994 0.514831 0.141523
v 3.701684 0.449249 0.125709
v 3.682513 0.514452 0.143391
v 3.697344 0.445472 0.144342
v 3.681971 0.513980 0.145720
v 3.651685 0.447584 0.159779
v 3.651685 0.515000 0.140116
v 3.634116 0.447584 0.151318
v 3.649489 0.515000 0.139058
v 3.629777 0.447584 0.132306
v 3.648947 0.515000 0.136681
v 3.641935 0.447584 0.117060
v 3.650466 0.515000 0.134776
v 3.661435 0.447584 0.117060
v 3.652905 0.515000 0.134776
v 3.673594 0.447584 0.132306
v 3.654424 0.515000 0.136681
v 3.669254 0.447584 0.151318
v 3.653881 0.515000 0.139058
v 3.623595 0.452721 0.166028
v 3.623595 0.514886 0.133363
v 3.606026 0.451040 0.157735
v 3.621399 0.514676 0.132326
v 3.601687 0.447263 0.139103
v 3.620857 0.514204 0.129997
v 3.613845 0.444234 0.124161
v 3.622377 0.513825 0.128130
v 3.633345 0.444234 0.124161
v 3.624814 0.513825 0.128130
v 3.645504 0.447263 0.139103
v 3.626334 0.514204 0.129997
v 3.641165 0.451040 0.157735
v 3.625792 0.514676 0.132326
v 3.691011 0.399831 0.193487
v 3.680848 0.407595 0.186103
v 3.694893 0.407595 0.181539
v 3.703573 0.407595 0.193487
v 3.694893 0.407595 0.205434
v 3.680848 0.407595 0.200870
v 3.687129 0.420157 0.181539
v 3.701174 0.420157 0.186103
v 3.701174 0.420157 0.200870
v 3.687129 0.420157 0.205434
v 3.678449 0.420157 0.193487
v 3.691011 0.427921 0.193487
v 3.612359 0.399831 0.193487
v 3.602196 0.407595 0.186103
v 3.616241 0.407595 0.181539
v 3.624922 0.407595 0.193487
v 3.616241 0.407595 0.205434
v 3.602196 0.407595 0.200870
v 3.608477 0.420157 0.181539
v 3.622522 0.420157 0.186103
v 3.622522 0.420157 0.200870
v 3.608477 0.420157 0.205434
v 3.599798 0.420157 0.193487
v 3.612359 0.427921 0.193487
v 3.696787 0.276326 -0.222272
v 3.669837 0.412663 -0.089321
v 3.676569 0.284610 -0.233078
v 3.665793 0.414320 -0.091482
v 3.674188 0.303226 -0.248634
v 3.665317 0.418043 -0.094593
v 3.691436 0.318154 -0.257224
v 3.668767 0.421029 -0.096311
v 3.715326 0.318154 -0.252382
v 3.673544 0.421029 -0.095343
v 3.727868 0.303226 -0.237752
v 3.676053 0.418043 -0.092417
v 3.719617 0.284610 -0.224352
v 3.674403 0.414320 -0.089736
v 3.651685 0.276326 -0.223415
v 3.651685 0.412663 -0.087760
v 3.629724 0.284610 -0.229989
v 3.647293 0.414320 -0.089075
v 3.624299 0.303226 -0.244762
v 3.646208 0.418043 -0.092029
v 3.639498 0.318154 -0.256608
v 3.649248 0.421029 -0.094398
v 3.663873 0.318154 -0.256608
v 3.654123 0.421029 -0.094398
v 3.679071 0.303226 -0.244762
v 3.657162 0.418043 -0.092029
v 3.673647 0.284610 -0.229989
v 3.656078 0.414320 -0.089075
v 3.606584 0.276326 -0.222272
v 3.633534 0.412663 -0.089321
v 3.583754 0.284610 -0.224352
v 3.628968 0.414320 -0.089736
v 3.575503 0.303226 -0.237752
v 3.627318 0.418043 -0.092417
v 3.588044 0.318154 -0.252382
v 3.629826 0.421029 -0.095343
v 3.611934 0.318154 -0.257224
v 3.634604 0.421029 -0.096311
v 3.629183 0.303226 -0.248634
v 3.638054 0.418043 -0.094593
v 3.626801 0.284610 -0.233078
v 3.637577 0.414320 -0.091482
vn -0.000000 -0.630300 0.776400
vn -0.000000 0.630300 0.776400
vn -0.549000 0.630300 0.549000
vn -0.549000 -0.630300 0.549000
vn -0.776400 0.630300 0.000000
vn -0.776400 -0.630300 0.000000
vn -0.549000 0.630300 -0.549000
vn -0.549000 -0.630300 -0.549000
vn -0.000000 0.630300 -0.776400
vn -0.000000 -0.630300 -0.776400
vn 0.549000 0.630300 -0.549000
vn 0.549000 -0.630300 -0.549000
vn 0.776400 0.630300 0.000000
vn 0.776400 -0.630300 0.000000
vn 0.549000 0.630300 0.549000
vn 0.549000 -0.630300 0.549000
vn -0.001700 -1.000000 0.000000
vn -0.684700 -0.472100 -0.555200
vn 0.241000 -0.450900 -0.859400
vn -0.684700 -0.472100 0.555200
vn 0.879200 -0.476400 0.000000
vn 0.241000 -0.450900 0.859400
vn -0.879200 0.476400 0.000000
vn -0.241000 0.450900 -0.859400
vn 0.684700 0.472100 -0.555200
vn 0.684700 0.472100 0.555200
vn -0.241000 0.450900 0.859400
vn 0.001700 1.000000 0.000000
vn -0.000700 -1.000000 0.000000
vn -0.221300 -0.967600 -0.121500
vn 0.084300 -0.976900 -0.196600
vn -0.779700 -0.460100 -0.424700
vn -0.645000 -0.678500 -0.351400
vn -0.839800 -0.495700 -0.221500
vn 0.273000 -0.962000 0.000000
vn 0.084300 -0.976900 0.196600
vn -0.221300 -0.967600 0.121500
vn -0.906800 -0.242800 -0.344700
vn 0.338300 -0.522800 -0.782400
vn 0.023900 -0.594200 -0.804000
vn 0.194200 -0.300200 -0.933900
vn 0.902700 -0.430200 0.000000
vn 0.849200 -0.492600 -0.190200
vn 0.965200 -0.234000 -0.116500
vn 0.338300 -0.522800 0.782400
vn 0.564200 -0.552900 0.613100
vn 0.538400 -0.282700 0.793900
vn -0.779700 -0.460100 0.424700
vn -0.596100 -0.546900 0.587900
vn -0.770300 -0.262000 0.581400
vn -0.770300 -0.262000 -0.581400
vn 0.538400 -0.282700 -0.793900
vn 0.965200 -0.234000 0.116500
vn 0.194200 -0.300200 0.933900
vn -0.906800 -0.242800 0.344700
vn -0.338300 0.522800 -0.782400
vn -0.564200 0.552900 -0.613100
vn -0.268200 0.737200 -0.620200
vn 0.779700 0.460100 -0.424700
vn 0.596100 0.546900 -0.587900
vn 0.645000 0.678500 -0.351400
vn 0.779700 0.460100 0.424700
vn 0.839800 0.495700 0.221500
vn 0.645000 0.678500 0.351400
vn -0.338300 0.522800 0.782400
vn -0.023900 0.594200 0.804000
vn -0.268200 0.737200 0.620200
vn -0.902700 0.430200 0.000000
vn -0.849200 0.492600 0.190200
vn -0.761500 0.648100 0.000000
vn -0.273000 0.962000 0.000000
vn -0.084300 0.976900 0.196600
vn 0.000700 1.000000 0.000000
vn -0.543300 0.839500 0.000000
vn -0.388200 0.896800 0.212100
vn -0.657800 0.723500 0.209400
vn -0.178100 0.893000 0.413200
vn -0.491300 0.759600 0.426200
vn -0.739200 0.539200 0.403500
vn -0.564200 0.552900 0.613100
vn 0.221300 0.967600 0.121500
vn 0.152600 0.923000 0.353300
vn 0.068300 0.801500 0.594000
vn 0.449400 0.858900 0.245600
vn 0.394500 0.775100 0.493500
vn 0.315800 0.602700 0.732900
vn 0.596100 0.546900 0.587900
vn 0.221300 0.967600 -0.121500
vn 0.471800 0.881700 0.000000
vn 0.688200 0.715600 0.119800
vn 0.449400 0.858900 -0.245600
vn 0.688200 0.715600 -0.119800
vn 0.861100 0.508400 0.000000
vn 0.839800 0.495700 -0.221500
vn -0.084300 0.976900 -0.196600
vn 0.152600 0.923000 -0.353300
vn 0.394500 0.775100 -0.493500
vn -0.178100 0.893000 -0.413200
vn 0.068300 0.801500 -0.594000
vn 0.315800 0.602700 -0.732900
vn -0.023900 0.594200 -0.804000
vn -0.388200 0.896800 -0.212100
vn -0.491300 0.759600 -0.426200
vn -0.657800 0.723500 -0.209400
vn -0.739200 0.539200 -0.403500
vn -0.849200 0.492600 -0.190200
vn -0.965200 0.234000 0.116500
vn -0.971500 0.000200 0.237100
vn -0.899800 0.272500 0.340700
vn -0.877400 0.009200 0.479600
vn -0.761200 0.292600 0.578800
vn -0.693400 -0.000600 0.720500
vn -0.538400 0.282700 0.793900
vn -0.194200 0.300200 0.933900
vn -0.000000 -0.000000 1.000000
vn 0.187400 0.334200 0.923700
vn 0.394200 0.010800 0.918900
vn 0.534600 0.316000 0.783800
vn 0.693400 0.000600 0.720500
vn 0.770300 0.262000 0.581400
vn 0.906800 0.242800 0.344700
vn 0.971500 -0.000200 0.237100
vn 0.957800 0.262400 0.117300
vn 1.000000 0.008500 0.000000
vn 0.957800 0.262400 -0.117300
vn 0.971500 -0.000200 -0.237100
vn 0.906800 0.242800 -0.344700
vn 0.770300 0.262000 -0.581400
vn 0.693400 0.000600 -0.720500
vn 0.534600 0.316000 -0.783800
vn 0.394200 0.010800 -0.918900
vn 0.187400 0.334200 -0.923700
vn -0.000000 -0.000000 -1.000000
vn -0.194200 0.300200 -0.933900
vn -0.538400 0.282700 -0.793900
vn -0.693400 -0.000600 -0.720500
vn -0.761200 0.292600 -0.578800
vn -0.877400 0.009200 -0.479600
vn -0.899800 0.272500 -0.340700
vn -0.971500 0.000200 -0.237100
vn -0.965200 0.234000 -0.116500
vn -0.394200 -0.010800 0.918900
vn -0.534600 -0.316000 0.783800
vn -0.187400 -0.334200 0.923700
vn -0.315800 -0.602700 0.732900
vn 0.023900 -0.594200 0.804000
vn 0.877400 -0.009200 0.479600
vn 0.761200 -0.292600 0.578800
vn 0.899800 -0.272500 0.340700
vn 0.739200 -0.539200 0.403500
vn 0.849200 -0.492600 0.190200
vn 0.877400 -0.009200 -0.479600
vn 0.899800 -0.272500 -0.340700
vn 0.761200 -0.292600 -0.578800
vn 0.739200 -0.539200 -0.403500
vn 0.564200 -0.552900 -0.613100
vn -0.394200 -0.010800 -0.918900
vn -0.187400 -0.334200 -0.923700
vn -0.534600 -0.316000 -0.783800
vn -0.315800 -0.602700 -0.732900
vn -0.596100 -0.546900 -0.587900
vn -1.000000 -0.008500 0.000000
vn -0.957800 -0.262400 -0.117300
vn -0.957800 -0.262400 0.117300
vn -0.861100 -0.508400 0.000000
vn -0.839800 -0.495700 0.221500
vn -0.645000 -0.678500 0.351400
vn -0.449400 -0.858900 0.245600
vn -0.394500 -0.775100 0.493500
vn -0.152600 -0.923000 0.353300
vn -0.068300 -0.801500 0.594000
vn 0.178100 -0.893000 0.413200
vn 0.268200 -0.737200 0.620200
vn 0.491300 -0.759600 0.426200
vn 0.388200 -0.896800 0.212100
vn 0.657800 -0.723500 0.209400
vn 0.543300 -0.839500 0.000000
vn 0.761500 -0.648100 0.000000
vn 0.657800 -0.723500 -0.209400
vn 0.388200 -0.896800 -0.212100
vn 0.491300 -0.759600 -0.426200
vn 0.178100 -0.893000 -0.413200
vn 0.268200 -0.737200 -0.620200
vn -0.688200 -0.715600 0.119800
vn -0.688200 -0.715600 -0.119800
vn -0.471800 -0.881700 0.000000
vn -0.449400 -0.858900 -0.245600
vn -0.068300 -0.801500 -0.594000
vn -0.152600 -0.923000 -0.353300
vn -0.394500 -0.775100 -0.493500
vn -0.009200 -1.000000 0.000000
vn -0.611300 -0.748800 -0.256200
vn 0.240400 -0.851000 -0.466800
vn -0.890000 -0.311300 -0.333200
vn -0.944400 -0.328800 0.000000
vn 0.729000 -0.684600 0.000000
vn 0.240400 -0.851000 0.466800
vn -0.611300 -0.748800 0.256200
vn -0.986900 0.001800 -0.161200
vn 0.436200 -0.440300 -0.784800
vn -0.415500 -0.526000 -0.742100
vn 0.964700 -0.263300 0.000000
vn 0.865200 -0.381200 -0.325800
vn 0.986900 -0.001800 -0.161200
vn 0.436200 -0.440300 0.784800
vn 0.865200 -0.381200 0.325800
vn 0.797700 0.007400 0.603000
vn -0.890000 -0.311300 0.333200
vn -0.415500 -0.526000 0.742100
vn -0.797700 -0.007400 0.603000
vn -0.797700 -0.007400 -0.603000
vn 0.797700 0.007400 -0.603000
vn 0.986900 -0.001800 0.161200
vn -0.986900 0.001800 0.161200
vn -0.436200 0.440300 -0.784800
vn -0.865200 0.381200 -0.325800
vn -0.240400 0.851000 -0.466800
vn 0.890000 0.311300 -0.333200
vn 0.415500 0.526000 -0.742100
vn 0.611300 0.748800 -0.256200
vn 0.890000 0.311300 0.333200
vn 0.944400 0.328800 0.000000
vn 0.611300 0.748800 0.256200
vn -0.436200 0.440300 0.784800
vn 0.415500 0.526000 0.742100
vn -0.240400 0.851000 0.466800
vn -0.964700 0.263300 0.000000
vn -0.865200 0.381200 0.325800
vn -0.729000 0.684600 0.000000
vn 0.009200 1.000000 0.000000
vn -0.000000 -1.000000 0.000000
vn -0.425300 -0.850700 -0.309000
vn 0.162500 -0.850700 -0.500000
vn -0.723600 -0.447200 -0.525700
vn -0.850600 -0.525700 0.000000
vn 0.525700 -0.850700 0.000000
vn 0.162500 -0.850700 0.500000
vn -0.425300 -0.850700 0.309000
vn -0.951100 -0.000000 -0.309000
vn 0.276400 -0.447200 -0.850600
vn -0.262900 -0.525700 -0.809000
vn 0.894400 -0.447200 0.000000
vn 0.688200 -0.525700 -0.500000
vn 0.951100 -0.000000 -0.309000
vn 0.276400 -0.447200 0.850600
vn 0.688200 -0.525700 0.500000
vn 0.587800 -0.000000 0.809000
vn -0.723600 -0.447200 0.525700
vn -0.262900 -0.525700 0.809000
vn -0.587800 -0.000000 0.809000
vn -0.587800 -0.000000 -0.809000
vn 0.587800 -0.000000 -0.809000
vn 0.951100 -0.000000 0.309000
vn -0.951100 -0.000000 0.309000
vn -0.276400 0.447200 -0.850700
vn -0.688200 0.525700 -0.500000
vn -0.162500 0.850700 -0.500000
vn 0.723600 0.447200 -0.525700
vn 0.262900 0.525700 -0.809000
vn 0.425300 0.850700 -0.309000
vn 0.723600 0.447200 0.525700
vn 0.850600 0.525700 0.000000
vn 0.425300 0.850700 0.309000
vn -0.276400 0.447200 0.850600
vn 0.262900 0.525700 0.809000
vn -0.162500 0.850700 0.500000
vn -0.894400 0.447200 0.000000
vn -0.688200 0.525700 0.500000
vn -0.525700 0.850700 0.000000
vn -0.000000 1.000000 0.000000
vn -0.000000 -0.869400 -0.494100
vn -0.000000 -0.671000 0.741500
vn -0.524600 -0.418300 0.741500
vn -0.679700 -0.542100 -0.494100
vn -0.654200 0.149300 0.741500
vn -0.847600 0.193500 -0.494100
vn -0.291100 0.604500 0.741500
vn -0.377200 0.783300 -0.494100
vn 0.291100 0.604500 0.741500
vn 0.377200 0.783300 -0.494100
vn 0.654200 0.149300 0.741500
vn 0.847600 0.193400 -0.494100
vn 0.524500 -0.418300 0.741500
vn 0.679700 -0.542100 -0.494100
vn -0.742100 -0.398300 -0.539200
vn 0.283400 -0.398300 -0.872400
vn -0.742100 -0.398300 0.539200
vn 0.917300 -0.398300 0.000000
vn 0.283400 -0.398300 0.872400
vn -0.917300 0.398300 0.000000
vn -0.283400 0.398300 -0.872400
vn 0.742100 0.398300 -0.539200
vn 0.742100 0.398300 0.539200
vn -0.283400 0.398300 0.872400
vn -0.000000 -0.672900 0.739700
vn -0.000000 0.573600 0.819100
vn -0.538500 0.625200 0.564900
vn -0.671300 -0.608700 0.422900
vn -0.671600 0.740900 -0.006200
vn -0.837100 -0.464400 -0.289100
vn -0.298900 0.833800 -0.464200
vn -0.372600 -0.348600 -0.860000
vn 0.298900 0.833800 -0.464200
vn 0.372600 -0.348600 -0.860000
vn 0.671500 0.740900 -0.006200
vn 0.837100 -0.464400 -0.289100
vn 0.538500 0.625200 0.564900
vn 0.671300 -0.608700 0.422900
vn -0.000000 -0.512500 0.858700
vn -0.000000 0.724900 0.688900
vn -0.538500 0.725000 0.429500
vn -0.671300 -0.512500 0.535400
vn -0.671600 0.724900 -0.153300
vn -0.837100 -0.512500 -0.191100
vn -0.298900 0.724900 -0.620600
vn -0.372600 -0.512500 -0.773600
vn 0.298900 0.724900 -0.620600
vn 0.372600 -0.512500 -0.773600
vn 0.671600 0.724900 -0.153300
vn 0.837100 -0.512500 -0.191100
vn 0.538500 0.725000 0.429500
vn 0.671300 -0.512500 0.535400
vn -0.000000 -0.331700 0.943400
vn -0.000000 0.847300 0.531100
vn -0.538600 0.795800 0.276900
vn -0.671300 -0.396000 0.626500
vn -0.671500 0.680000 -0.294200
vn -0.837100 -0.540300 -0.085400
vn -0.298900 0.587200 -0.752300
vn -0.372600 -0.656000 -0.656400
vn 0.298900 0.587200 -0.752200
vn 0.372500 -0.656000 -0.656400
vn 0.671600 0.680000 -0.294200
vn 0.837100 -0.540300 -0.085400
vn 0.538500 0.795800 0.276900
vn 0.671300 -0.396000 0.626500
vn -0.276400 0.447200 0.850700
vn 0.276400 -0.447200 -0.850700
vn 0.276400 -0.447200 0.850700
vn -0.276400 0.447200 -0.850600
vn -0.011100 -0.998400 0.054800
vn -0.195700 -0.171900 0.965500
vn -0.733400 0.048400 0.678100
vn -0.599000 -0.757500 -0.259400
vn -0.796700 0.543500 0.264400
vn -0.668300 -0.216200 -0.711800
vn -0.338000 0.940500 0.035900
vn -0.166700 0.217900 -0.961600
vn 0.297300 0.940500 0.164800
vn 0.528000 0.217900 -0.820800
vn 0.630800 0.543500 0.553800
vn 0.892700 -0.216200 -0.395400
vn 0.411400 0.048400 0.910200
vn 0.652800 -0.757500 -0.005700
vn -0.000000 -0.998400 0.055900
vn -0.000000 -0.171900 0.985100
vn -0.584000 0.048400 0.810300
vn -0.638700 -0.757500 -0.135300
vn -0.728300 0.543500 0.417400
vn -0.796400 -0.216200 -0.564800
vn -0.324100 0.940500 0.102400
vn -0.354400 0.217900 -0.909300
vn 0.324100 0.940500 0.102400
vn 0.354400 0.217900 -0.909300
vn 0.728300 0.543500 0.417400
vn 0.796400 -0.216200 -0.564800
vn 0.584000 0.048400 0.810300
vn 0.638700 -0.757500 -0.135300
vn 0.011100 -0.998400 0.054800
vn 0.195700 -0.171900 0.965500
vn -0.411400 0.048400 0.910200
vn -0.652800 -0.757500 -0.005700
vn -0.630800 0.543500 0.553800
vn -0.892700 -0.216200 -0.395400
vn -0.297300 0.940500 0.164800
vn -0.528000 0.217900 -0.820800
vn 0.338000 0.940500 0.035900
vn 0.166700 0.217900 -0.961600
vn 0.796700 0.543500 0.264400
vn 0.668300 -0.216200 -0.711800
vn 0.733400 0.048400 0.678100
vn 0.599000 -0.757500 -0.259400
vt 0.887146 0.886962
vt 0.887146 0.777916
vt 0.897527 0.777848
vt 0.897527 0.886894
vt 0.488546 0.885072
vt 0.488546 0.776065
vt 0.499002 0.776193
vt 0.499002 0.885200
vt 0.509305 0.776053
vt 0.509305 0.885060
vt 0.269087 0.885161
vt 0.269087 0.776120
vt 0.279468 0.776198
vt 0.279468 0.885240
vt 0.289849 0.776120
vt 0.289849 0.885161
vt 0.767522 0.907118
vt 0.767522 0.798318
vt 0.777825 0.798627
vt 0.777825 0.907427
vt 0.090484 0.984858
vt 0.082543 0.976917
vt 0.082543 0.965681
vt 0.090484 0.957733
vt 0.101715 0.957728
vt 0.109656 0.965670
vt 0.109656 0.976905
vt 0.101715 0.984853
vt 0.788281 0.798343
vt 0.788281 0.907144
vt 0.876765 0.886894
vt 0.876765 0.777848
vt 0.694108 0.948553
vt 0.705340 0.948553
vt 0.713282 0.956499
vt 0.713281 0.967735
vt 0.705339 0.975680
vt 0.694107 0.975680
vt 0.686165 0.967735
vt 0.686165 0.956499
vt 0.168253 0.854359
vt 0.162384 0.877219
vt 0.149108 0.850166
vt 0.183864 0.872239
vt 0.162383 0.828466
vt 0.183864 0.842108
vt 0.986630 0.683712
vt 0.986630 0.705760
vt 0.968037 0.694636
vt 0.821723 0.944140
vt 0.821723 0.914778
vt 0.840410 0.927830
vt 0.822128 0.962285
vt 0.840660 0.957191
vt 0.767522 0.948713
vt 0.767738 0.930565
vt 0.786338 0.935512
vt 0.767738 0.978074
vt 0.786338 0.964875
vt 0.840660 0.909681
vt 0.968392 0.479089
vt 0.987452 0.468130
vt 0.987452 0.490179
vt 0.967471 0.712797
vt 0.720906 0.903701
vt 0.707636 0.925415
vt 0.701354 0.899628
vt 0.707636 0.876652
vt 0.686165 0.881648
vt 0.686165 0.911786
vt 0.890366 0.264037
vt 0.890366 0.154991
vt 0.900747 0.154923
vt 0.900747 0.263969
vt 0.225190 0.885138
vt 0.225190 0.776131
vt 0.235646 0.776260
vt 0.235646 0.885266
vt 0.245949 0.776120
vt 0.245949 0.885126
vt 0.821723 0.886465
vt 0.821723 0.777423
vt 0.832104 0.777502
vt 0.832104 0.886544
vt 0.842485 0.777423
vt 0.842485 0.886465
vt 0.888024 0.120369
vt 0.888024 0.011569
vt 0.898327 0.011878
vt 0.898327 0.120678
vt 0.019510 0.980025
vt 0.011569 0.972084
vt 0.011569 0.960849
vt 0.019510 0.952900
vt 0.030741 0.952896
vt 0.038682 0.960837
vt 0.038682 0.972072
vt 0.030741 0.980020
vt 0.908783 0.011594
vt 0.908783 0.120395
vt 0.879985 0.263969
vt 0.879985 0.154923
vt 0.435661 0.952572
vt 0.446893 0.952572
vt 0.454835 0.960517
vt 0.454835 0.971753
vt 0.446893 0.979699
vt 0.435661 0.979699
vt 0.427718 0.971754
vt 0.427718 0.960518
vt 0.097883 0.839760
vt 0.082543 0.857697
vt 0.082543 0.827562
vt 0.104021 0.862689
vt 0.104021 0.813930
vt 0.117295 0.835640
vt 0.987467 0.542537
vt 0.987467 0.564585
vt 0.968874 0.553462
vt 0.225190 0.942863
vt 0.225190 0.913500
vt 0.243876 0.926552
vt 0.225594 0.961008
vt 0.244126 0.955913
vt 0.345492 0.949319
vt 0.345707 0.931171
vt 0.364308 0.936118
vt 0.345707 0.978680
vt 0.364308 0.965480
vt 0.244126 0.908404
vt 0.149108 0.973760
vt 0.168168 0.962802
vt 0.168168 0.984850
vt 0.968307 0.571622
vt 0.117285 0.912876
vt 0.104015 0.934591
vt 0.097733 0.908804
vt 0.104014 0.885827
vt 0.082543 0.890824
vt 0.082543 0.920961
vt 0.321124 0.466994
vt 0.346576 0.492012
vt 0.311254 0.507520
vt 0.262138 0.248763
vt 0.234733 0.234569
vt 0.254295 0.209852
vt 0.289423 0.466953
vt 0.311254 0.426373
vt 0.346576 0.441860
vt 0.287416 0.234867
vt 0.062047 0.472871
vt 0.041907 0.448130
vt 0.078401 0.447987
vt 0.045779 0.155175
vt 0.039068 0.114755
vt 0.071084 0.129931
vt 0.492771 0.169210
vt 0.468176 0.180403
vt 0.468637 0.147072
vt 0.261140 0.070172
vt 0.254468 0.043280
vt 0.287028 0.043464
vt 0.288322 0.275045
vt 0.094081 0.479653
vt 0.071084 0.180078
vt 0.503513 0.141397
vt 0.286575 0.084427
vt 0.137989 0.358705
vt 0.133508 0.331844
vt 0.165754 0.351326
vt 0.165161 0.066114
vt 0.174085 0.040038
vt 0.193872 0.080410
vt 0.165161 0.244708
vt 0.171649 0.205351
vt 0.193872 0.230853
vt 0.541562 0.041063
vt 0.509738 0.039124
vt 0.531445 0.014234
vt 0.379092 0.159259
vt 0.386388 0.118509
vt 0.407417 0.158801
vt 0.491916 0.464620
vt 0.513748 0.424069
vt 0.523615 0.464533
vt 0.456993 0.464986
vt 0.477757 0.420213
vt 0.427718 0.465608
vt 0.442431 0.420756
vt 0.502692 0.380101
vt 0.466457 0.376129
vt 0.493212 0.343955
vt 0.416348 0.113848
vt 0.389795 0.073815
vt 0.435499 0.381135
vt 0.387295 0.036585
vt 0.416847 0.068768
vt 0.461113 0.344449
vt 0.566036 0.029159
vt 0.549071 0.439585
vt 0.540657 0.392662
vt 0.529357 0.348578
vt 0.576635 0.412581
vt 0.568231 0.365654
vt 0.599182 0.390504
vt 0.518268 0.319414
vt 0.472905 0.042089
vt 0.494536 0.011569
vt 0.555142 0.328729
vt 0.588915 0.350446
vt 0.174085 0.271622
vt 0.549071 0.489725
vt 0.579531 0.464917
vt 0.607105 0.437910
vt 0.576635 0.517539
vt 0.607105 0.493089
vt 0.599182 0.540923
vt 0.202052 0.183078
vt 0.174409 0.155115
vt 0.202052 0.127890
vt 0.171649 0.105056
vt 0.513748 0.505197
vt 0.540657 0.537124
vt 0.568231 0.565297
vt 0.502692 0.549928
vt 0.529357 0.582325
vt 0.493212 0.587341
vt 0.588915 0.581995
vt 0.555142 0.603515
vt 0.177062 0.415171
vt 0.158053 0.383482
vt 0.189379 0.379811
vt 0.518268 0.612940
vt 0.477757 0.509496
vt 0.466457 0.554696
vt 0.442431 0.510040
vt 0.461113 0.587835
vt 0.435499 0.550962
vt 0.390744 0.243666
vt 0.386842 0.199649
vt 0.416847 0.203144
vt 0.352815 0.134457
vt 0.319516 0.107198
vt 0.356257 0.087057
vt 0.319808 0.059527
vt 0.356756 0.041977
vt 0.320464 0.021450
vt 0.354175 0.011569
vt 0.594202 0.054570
vt 0.565708 0.063273
vt 0.530914 0.069432
vt 0.517234 0.105533
vt 0.493952 0.072315
vt 0.478875 0.111914
vt 0.455570 0.078560
vt 0.439985 0.050473
vt 0.444226 0.117412
vt 0.107389 0.293202
vt 0.139633 0.271317
vt 0.145043 0.300542
vt 0.138127 0.230359
vt 0.104237 0.207463
vt 0.140704 0.182534
vt 0.103813 0.154867
vt 0.140704 0.127346
vt 0.104237 0.102489
vt 0.138127 0.079916
vt 0.139633 0.039732
vt 0.132425 0.482277
vt 0.157437 0.450479
vt 0.168091 0.478870
vt 0.116712 0.450909
vt 0.145042 0.011569
vt 0.189415 0.446813
vt 0.140180 0.415630
vt 0.099599 0.415991
vt 0.121048 0.383873
vt 0.105879 0.351960
vt 0.067845 0.349185
vt 0.096473 0.323680
vt 0.320923 0.259199
vt 0.322000 0.296276
vt 0.358062 0.275758
vt 0.388655 0.280005
vt 0.357064 0.231541
vt 0.320102 0.212171
vt 0.353095 0.184603
vt 0.590069 0.092641
vt 0.555549 0.098891
vt 0.607896 0.122921
vt 0.578763 0.131713
vt 0.540471 0.138491
vt 0.284474 0.014245
vt 0.594196 0.158904
vt 0.561390 0.167964
vt 0.524607 0.171221
vt 0.105470 0.255131
vt 0.439985 0.154841
vt 0.070235 0.272539
vt 0.068578 0.227463
vt 0.042079 0.277812
vt 0.037218 0.240575
vt 0.039068 0.195896
vt 0.105470 0.055455
vt 0.068578 0.082977
vt 0.107389 0.018371
vt 0.070235 0.038754
vt 0.104474 0.507453
vt 0.037218 0.070721
vt 0.042079 0.034388
vt 0.067280 0.499366
vt 0.082761 0.380939
vt 0.059294 0.416219
vt 0.042599 0.381097
vt 0.032892 0.352246
vt 0.023208 0.416291
vt 0.011569 0.384303
vt 0.255762 0.274861
vt 0.319617 0.159795
vt 0.283476 0.187453
vt 0.283168 0.132266
vt 0.250772 0.159807
vt 0.253735 0.109559
vt 0.233892 0.084129
vt 0.374126 0.414251
vt 0.365708 0.366700
vt 0.396650 0.391204
vt 0.338154 0.394573
vt 0.386365 0.350389
vt 0.352596 0.328812
vt 0.326834 0.349655
vt 0.539650 0.197843
vt 0.300185 0.381831
vt 0.290683 0.344742
vt 0.315720 0.319414
vt 0.502768 0.195328
vt 0.263936 0.377271
vt 0.275255 0.422189
vt 0.258566 0.344507
vt 0.232955 0.381340
vt 0.239910 0.421931
vt 0.011569 0.200440
vt 0.254486 0.466779
vt 0.225190 0.466484
vt 0.019281 0.155524
vt 0.239910 0.511236
vt 0.275255 0.511494
vt 0.011569 0.111143
vt 0.263936 0.555882
vt 0.232955 0.551209
vt 0.258566 0.587952
vt 0.300185 0.551699
vt 0.290682 0.588187
vt 0.035035 0.479884
vt 0.225190 0.131938
vt 0.225498 0.187125
vt 0.404581 0.438937
vt 0.404581 0.494130
vt 0.377027 0.466811
vt 0.396650 0.541660
vt 0.374126 0.519235
vt 0.326834 0.583459
vt 0.338154 0.539072
vt 0.315720 0.613011
vt 0.011569 0.451322
vt 0.365708 0.566391
vt 0.352595 0.603665
vt 0.386365 0.581994
vt 0.839579 0.364416
vt 0.853592 0.387104
vt 0.833874 0.401208
vt 0.717894 0.343164
vt 0.744644 0.359354
vt 0.723294 0.381897
vt 0.821688 0.364303
vt 0.833874 0.327389
vt 0.853592 0.341482
vt 0.688132 0.359008
vt 0.806946 0.093007
vt 0.790639 0.102426
vt 0.790763 0.066312
vt 0.656401 0.530552
vt 0.651621 0.493775
vt 0.686213 0.507672
vt 0.657831 0.593709
vt 0.651621 0.567588
vt 0.687054 0.590414
vt 0.717894 0.420775
vt 0.722678 0.441964
vt 0.687751 0.441750
vt 0.687751 0.322318
vt 0.809844 0.061310
vt 0.686213 0.553291
vt 0.446578 0.864004
vt 0.427718 0.838371
vt 0.446629 0.832760
vt 0.688132 0.404626
vt 0.657425 0.319414
vt 0.652590 0.345048
vt 0.630243 0.345350
vt 0.716683 0.491774
vt 0.723006 0.471132
vt 0.744384 0.507915
vt 0.716683 0.569386
vt 0.721646 0.530498
vt 0.744384 0.553533
vt 0.446577 0.801182
vt 0.427718 0.801444
vt 0.434810 0.776053
vt 0.658073 0.381834
vt 0.652590 0.418861
vt 0.630624 0.382039
vt 0.823336 0.527275
vt 0.835522 0.490382
vt 0.841219 0.527035
vt 0.630243 0.419163
vt 0.657425 0.444993
vt 0.855240 0.504489
vt 0.849254 0.468130
vt 0.723006 0.590564
vt 0.855240 0.550100
vt 0.835522 0.564183
vt 0.849254 0.587544
vt 0.790763 0.029697
vt 0.774483 0.039225
vt 0.771558 0.011569
vt 0.687054 0.470981
vt 0.465408 0.826723
vt 0.465408 0.863649
vt 0.657831 0.468130
vt 0.771558 0.070813
vt 0.722678 0.322532
vt 0.744644 0.404972
vt 0.847586 0.304314
vt 0.829362 0.301183
vt 0.631083 0.567927
vt 0.630243 0.530805
vt 0.631083 0.494114
vt 0.809642 0.119742
vt 0.847586 0.423756
vt 0.839615 0.694946
vt 0.853627 0.717633
vt 0.833910 0.731738
vt 0.099220 0.554341
vt 0.125970 0.570531
vt 0.104620 0.593074
vt 0.821723 0.694832
vt 0.833910 0.657919
vt 0.853627 0.672011
vt 0.069458 0.570185
vt 0.184496 0.778594
vt 0.168189 0.788012
vt 0.168313 0.751899
vt 0.656401 0.679268
vt 0.651621 0.642491
vt 0.686213 0.656389
vt 0.657831 0.742425
vt 0.651621 0.716304
vt 0.687054 0.739130
vt 0.099220 0.631952
vt 0.104004 0.653141
vt 0.069077 0.652927
vt 0.069077 0.533495
vt 0.187394 0.746896
vt 0.686213 0.702007
vt 0.705024 0.853514
vt 0.686165 0.827880
vt 0.705076 0.822270
vt 0.069458 0.615803
vt 0.038751 0.530591
vt 0.033916 0.556225
vt 0.011569 0.556527
vt 0.716683 0.640491
vt 0.723006 0.619848
vt 0.744384 0.656632
vt 0.716683 0.718102
vt 0.721646 0.679214
vt 0.744384 0.702250
vt 0.705024 0.790692
vt 0.686165 0.790954
vt 0.693256 0.765563
vt 0.039399 0.593011
vt 0.033916 0.630038
vt 0.011950 0.593216
vt 0.832982 0.070713
vt 0.845169 0.033820
vt 0.850865 0.070473
vt 0.011569 0.630340
vt 0.038751 0.656170
vt 0.864887 0.047927
vt 0.858900 0.011569
vt 0.723006 0.739280
vt 0.864887 0.093539
vt 0.845169 0.107622
vt 0.858900 0.130982
vt 0.168313 0.715284
vt 0.152033 0.724811
vt 0.149108 0.697155
vt 0.687054 0.619698
vt 0.723854 0.816232
vt 0.723854 0.853159
vt 0.657831 0.616847
vt 0.149108 0.756400
vt 0.104004 0.533709
vt 0.125970 0.616149
vt 0.847622 0.634843
vt 0.829398 0.631712
vt 0.631083 0.716643
vt 0.630243 0.679521
vt 0.631083 0.642831
vt 0.187193 0.805328
vt 0.847622 0.754285
vt 0.688520 0.071131
vt 0.691283 0.107112
vt 0.654822 0.084763
vt 0.856112 0.213719
vt 0.856847 0.245013
vt 0.827905 0.237157
vt 0.664824 0.043188
vt 0.707467 0.039842
vt 0.723819 0.079349
vt 0.827905 0.195081
vt 0.294372 0.725241
vt 0.257270 0.731976
vt 0.274136 0.695200
vt 0.075931 0.769652
vt 0.048508 0.790792
vt 0.041942 0.754047
vt 0.456384 0.725113
vt 0.427718 0.729121
vt 0.435975 0.693354
vt 0.525562 0.727276
vt 0.493486 0.731856
vt 0.517283 0.696316
vt 0.856847 0.176932
vt 0.314782 0.693477
vt 0.078880 0.732492
vt 0.476621 0.695044
vt 0.793596 0.250946
vt 0.760644 0.234220
vt 0.791159 0.216963
vt 0.659393 0.272635
vt 0.631034 0.248220
vt 0.667963 0.247679
vt 0.728583 0.250196
vt 0.696838 0.269641
vt 0.708632 0.234490
vt 0.075930 0.697204
vt 0.041941 0.711464
vt 0.048507 0.679307
vt 0.496870 0.664649
vt 0.459772 0.657815
vt 0.490020 0.636078
vt 0.793595 0.179362
vt 0.760644 0.192143
vt 0.778531 0.154923
vt 0.642828 0.213069
vt 0.667963 0.178490
vt 0.679458 0.212833
vt 0.631034 0.179031
vt 0.659393 0.154923
vt 0.708632 0.191729
vt 0.696838 0.157691
vt 0.728583 0.177447
vt 0.737506 0.213691
vt 0.013087 0.733877
vt 0.011569 0.700863
vt 0.290984 0.657939
vt 0.253886 0.664780
vt 0.260734 0.636149
vt 0.820100 0.156738
vt 0.525564 0.659872
vt 0.427718 0.661774
vt 0.323036 0.661848
vt 0.233473 0.696438
vt 0.225190 0.659943
vt 0.108275 0.713331
vt 0.108275 0.755914
vt 0.011569 0.769764
vt 0.323036 0.729188
vt 0.225192 0.727348
vt 0.742675 0.047730
vt 0.748420 0.084552
vt 0.463262 0.752916
vt 0.683679 0.011569
vt 0.720599 0.017338
vt 0.648050 0.023031
vt 0.631034 0.056491
vt 0.631034 0.093764
vt 0.820101 0.266894
vt 0.726491 0.115000
vt 0.287492 0.752982
vt 0.657494 0.120415
vt 0.693066 0.131785
vt 0.459897 0.288373
vt 0.459330 0.220990
vt 0.460949 0.220980
vt 0.479326 0.288261
vt 0.564480 0.288491
vt 0.579107 0.221006
vt 0.580867 0.221006
vt 0.585610 0.288491
vt 0.582325 0.220980
vt 0.603101 0.288177
vt 0.918064 0.367755
vt 0.927518 0.301183
vt 0.929337 0.301183
vt 0.939897 0.367755
vt 0.502464 0.288178
vt 0.522871 0.220980
vt 0.524369 0.221007
vt 0.520435 0.288495
vt 0.969730 0.598849
vt 0.968307 0.597714
vt 0.968307 0.595894
vt 0.969730 0.594760
vt 0.971504 0.595165
vt 0.972293 0.596805
vt 0.971504 0.598444
vt 0.526111 0.221007
vt 0.541342 0.288495
vt 0.439985 0.288260
vt 0.457670 0.220980
vt 0.011569 0.849383
vt 0.011569 0.827544
vt 0.028642 0.813930
vt 0.049931 0.818792
vt 0.059405 0.838470
vt 0.049931 0.858145
vt 0.028642 0.863002
vt 0.951589 0.066891
vt 0.931921 0.056875
vt 0.951724 0.049967
vt 0.456732 0.913685
vt 0.445429 0.929434
vt 0.434684 0.913685
vt 0.937268 0.107957
vt 0.931921 0.090029
vt 0.952886 0.096847
vt 0.952886 0.118899
vt 0.931921 0.125710
vt 0.445787 0.887547
vt 0.932005 0.029110
vt 0.029111 0.929758
vt 0.011569 0.927996
vt 0.019438 0.902800
vt 0.047201 0.929758
vt 0.041460 0.903890
vt 0.566836 0.978491
vt 0.547040 0.971564
vt 0.566763 0.950709
vt 0.463394 0.887142
vt 0.951724 0.021967
vt 0.547040 0.943578
vt 0.427718 0.887142
vt 0.967471 0.660574
vt 0.967471 0.638522
vt 0.983200 0.649457
vt 0.931921 0.011569
vt 0.031550 0.886140
vt 0.566836 0.933209
vt 0.988431 0.631712
vt 0.930567 0.442458
vt 0.942025 0.391417
vt 0.943662 0.391611
vt 0.943662 0.444012
vt 0.920665 0.902986
vt 0.929314 0.852219
vt 0.931093 0.852219
vt 0.934896 0.902986
vt 0.932502 0.852170
vt 0.946173 0.902588
vt 0.387445 0.979254
vt 0.393815 0.932137
vt 0.395635 0.932137
vt 0.402005 0.979254
vt 0.919708 0.518570
vt 0.933765 0.468130
vt 0.935182 0.468234
vt 0.931046 0.519399
vt 0.969311 0.895212
vt 0.970095 0.893584
vt 0.971856 0.893145
vt 0.973268 0.894226
vt 0.973268 0.896013
vt 0.971856 0.897160
vt 0.970095 0.896804
vt 0.936958 0.468234
vt 0.945254 0.519399
vt 0.918064 0.438265
vt 0.940463 0.390893
vt 0.941172 0.926124
vt 0.952552 0.935052
vt 0.952552 0.949285
vt 0.941172 0.958105
vt 0.926981 0.954871
vt 0.920665 0.942018
vt 0.926981 0.929224
vt 0.931215 0.682286
vt 0.931215 0.631725
vt 0.932855 0.631712
vt 0.944333 0.682186
vt 0.630243 0.946803
vt 0.638859 0.896071
vt 0.640640 0.896071
vt 0.644493 0.946803
vt 0.642042 0.896026
vt 0.655711 0.946440
vt 0.966800 0.441462
vt 0.973170 0.390893
vt 0.974990 0.390893
vt 0.981360 0.441462
vt 0.919708 0.592977
vt 0.933777 0.542537
vt 0.935178 0.542637
vt 0.930917 0.593779
vt 0.968392 0.515360
vt 0.969181 0.513721
vt 0.970956 0.513317
vt 0.972379 0.514451
vt 0.972379 0.516270
vt 0.970956 0.517403
vt 0.969181 0.516999
vt 0.936959 0.542637
vt 0.945169 0.593779
vt 0.918097 0.682186
vt 0.929575 0.631712
vt 0.891210 0.913334
vt 0.897527 0.926446
vt 0.891210 0.939562
vt 0.877017 0.942805
vt 0.865634 0.933734
vt 0.865634 0.919179
vt 0.877017 0.910100
vt 0.931215 0.752220
vt 0.931215 0.705424
vt 0.932855 0.705569
vt 0.944333 0.753376
vt 0.923884 0.205644
vt 0.932485 0.154962
vt 0.934268 0.154962
vt 0.938152 0.205644
vt 0.935664 0.154923
vt 0.949316 0.205329
vt 0.963035 0.353188
vt 0.969404 0.301183
vt 0.971224 0.301183
vt 0.977594 0.353188
vt 0.920665 0.828289
vt 0.934718 0.777848
vt 0.936103 0.777941
vt 0.931751 0.829032
vt 0.969957 0.822491
vt 0.969179 0.820849
vt 0.969957 0.819213
vt 0.971704 0.818816
vt 0.973105 0.819956
vt 0.973105 0.821776
vt 0.971704 0.822904
vt 0.937890 0.777941
vt 0.946041 0.829032
vt 0.918097 0.753376
vt 0.929575 0.705569
vt 0.949340 0.257642
vt 0.935213 0.261065
vt 0.923885 0.252287
vt 0.923885 0.237920
vt 0.935213 0.228781
vt 0.949340 0.231753
vt 0.955627 0.244598
vt 0.873301 0.975004
vt 0.876120 0.983778
vt 0.865634 0.980375
vt 0.882600 0.974859
vt 0.865634 0.969353
vt 0.876120 0.965943
vt 0.322508 0.779448
vt 0.322508 0.790472
vt 0.313189 0.784923
vt 0.981873 0.165464
vt 0.972454 0.170073
vt 0.972509 0.159644
vt 0.969311 0.860974
vt 0.969758 0.852170
vt 0.978792 0.855482
vt 0.969758 0.870007
vt 0.978792 0.866506
vt 0.984276 0.026723
vt 0.974862 0.022103
vt 0.984228 0.016286
vt 0.312987 0.776120
vt 0.981873 0.154923
vt 0.974862 0.011569
vt 0.312987 0.793957
vt 0.967471 0.750365
vt 0.967471 0.739339
vt 0.975255 0.744820
vt 0.977951 0.753775
vt 0.984428 0.744856
vt 0.977951 0.735934
vt 0.599189 0.942908
vt 0.589974 0.942876
vt 0.596452 0.933956
vt 0.596452 0.951797
vt 0.606934 0.937365
vt 0.606934 0.948391
vt 0.322508 0.820424
vt 0.322508 0.831448
vt 0.313189 0.825899
vt 0.200725 0.973343
vt 0.191306 0.977952
vt 0.191361 0.967523
vt 0.312987 0.866875
vt 0.313434 0.858071
vt 0.322467 0.861383
vt 0.313434 0.875908
vt 0.322467 0.872407
vt 0.984276 0.065015
vt 0.974862 0.060395
vt 0.984228 0.054578
vt 0.312987 0.817095
vt 0.200725 0.962802
vt 0.974862 0.049861
vt 0.312987 0.834933
vt 0.979666 0.795678
vt 0.969179 0.792271
vt 0.976797 0.786561
vt 0.986146 0.786764
vt 0.979665 0.777848
vt 0.969179 0.781252
vt 0.589974 0.903618
vt 0.602237 0.802365
vt 0.605302 0.803805
vt 0.605302 0.910819
vt 0.767782 0.444993
vt 0.767782 0.301977
vt 0.771396 0.301828
vt 0.785855 0.444248
vt 0.773935 0.301183
vt 0.798550 0.441022
vt 0.878378 0.590729
vt 0.887819 0.468130
vt 0.891458 0.468130
vt 0.896570 0.590729
vt 0.346174 0.777188
vt 0.360647 0.636305
vt 0.363833 0.636149
vt 0.362104 0.776408
vt 0.354323 0.804435
vt 0.351855 0.806584
vt 0.348228 0.806478
vt 0.346174 0.804198
vt 0.347239 0.801460
vt 0.350621 0.800326
vt 0.353774 0.801650
vt 0.367196 0.636305
vt 0.378917 0.777188
vt 0.346174 0.907507
vt 0.364308 0.908033
vt 0.514505 0.938888
vt 0.500104 0.946433
vt 0.488551 0.938888
vt 0.488546 0.921934
vt 0.500092 0.908338
vt 0.514495 0.908338
vt 0.520909 0.921934
vt 0.646794 0.868054
vt 0.644231 0.765563
vt 0.647478 0.766530
vt 0.663027 0.872888
vt 0.548702 0.779227
vt 0.558182 0.636175
vt 0.561720 0.636175
vt 0.566390 0.779227
vt 0.564595 0.636078
vt 0.580767 0.778738
vt 0.876765 0.754710
vt 0.885857 0.631712
vt 0.889496 0.631712
vt 0.894959 0.754710
vt 0.149108 0.673180
vt 0.166117 0.530591
vt 0.169056 0.530759
vt 0.163801 0.674018
vt 0.742976 0.950314
vt 0.742976 0.953824
vt 0.740636 0.956441
vt 0.737718 0.956194
vt 0.736419 0.953268
vt 0.737718 0.949868
vt 0.740636 0.948553
vt 0.172567 0.530759
vt 0.181355 0.674018
vt 0.630243 0.872888
vt 0.640921 0.766530
vt 0.149108 0.926417
vt 0.149108 0.908924
vt 0.160533 0.900357
vt 0.174780 0.907167
vt 0.181121 0.924227
vt 0.174780 0.938689
vt 0.160533 0.939664
vt 0.548702 0.910072
vt 0.561155 0.808622
vt 0.564781 0.808517
vt 0.566836 0.909545
vt 0.767522 0.608575
vt 0.778217 0.468324
vt 0.781618 0.468130
vt 0.784527 0.607604
vt 0.784752 0.468324
vt 0.800198 0.608575
vt 0.876730 0.424504
vt 0.885409 0.301183
vt 0.889049 0.301183
vt 0.894926 0.424504
vt 0.767522 0.771040
vt 0.792373 0.631712
vt 0.794983 0.632413
vt 0.780573 0.774545
vt 0.558687 0.806473
vt 0.559236 0.803688
vt 0.562389 0.802365
vt 0.565771 0.803499
vt 0.566836 0.806237
vt 0.798585 0.632540
vt 0.798585 0.775180
vt 0.387445 0.908999
vt 0.387445 0.801620
vt 0.390637 0.800326
vt 0.403403 0.902532
vt 0.275491 0.938928
vt 0.269087 0.921974
vt 0.275501 0.908378
vt 0.289904 0.908378
vt 0.301450 0.921974
vt 0.301445 0.938928
vt 0.289892 0.946473
s 1
usemtl mob_ayam_mat.001
f 1/1/1 2/2/2 4/3/3 3/4/4
f 3/5/4 4/6/3 6/7/5 5/8/6
f 5/8/6 6/7/5 8/9/7 7/10/8
f 7/11/8 8/12/7 10/13/9 9/14/10
f 9/14/10 10/13/9 12/15/11 11/16/12
f 11/17/12 12/18/11 14/19/13 13/20/14
f 4/21/3 2/22/2 16/23/15 14/24/13 12/25/11 10/26/9 8/27/7 6/28/5
f 13/20/14 14/19/13 16/29/15 15/30/16
f 15/31/16 16/32/15 2/2/2 1/1/1
f 1/33/1 3/34/4 5/35/6 7/36/8 9/37/10 11/38/12 13/39/14 15/40/16
f 17/41/17 18/42/18 19/43/19
f 18/42/18 17/41/17 22/44/20
f 17/41/17 19/43/19 20/45/21
f 17/41/17 20/45/21 21/46/22
f 17/41/17 21/46/22 22/44/20
f 18/47/18 22/48/20 27/49/23
f 19/50/19 18/51/18 23/52/24
f 20/53/21 19/50/19 24/54/25
f 21/55/22 20/56/21 25/57/26
f 22/58/20 21/55/22 26/59/27
f 18/51/18 27/60/23 23/52/24
f 19/50/19 23/52/24 24/54/25
f 20/61/21 24/62/25 25/63/26
f 21/55/22 25/57/26 26/59/27
f 22/48/20 26/64/27 27/49/23
f 23/65/24 27/66/23 28/67/28
f 24/68/25 23/65/24 28/67/28
f 25/69/26 24/68/25 28/67/28
f 26/70/27 25/69/26 28/67/28
f 27/66/23 26/70/27 28/67/28
f 29/71/1 30/72/2 32/73/3 31/74/4
f 31/75/4 32/76/3 34/77/5 33/78/6
f 33/78/6 34/77/5 36/79/7 35/80/8
f 35/81/8 36/82/7 38/83/9 37/84/10
f 37/84/10 38/83/9 40/85/11 39/86/12
f 39/87/12 40/88/11 42/89/13 41/90/14
f 32/91/3 30/92/2 44/93/15 42/94/13 40/95/11 38/96/9 36/97/7 34/98/5
f 41/90/14 42/89/13 44/99/15 43/100/16
f 43/101/16 44/102/15 30/72/2 29/71/1
f 29/103/1 31/104/4 33/105/6 35/106/8 37/107/10 39/108/12 41/109/14 43/110/16
f 45/111/17 46/112/18 47/113/19
f 46/112/18 45/111/17 50/114/20
f 45/111/17 47/113/19 48/115/21
f 45/111/17 48/115/21 49/116/22
f 45/111/17 49/116/22 50/114/20
f 46/117/18 50/118/20 55/119/23
f 47/120/19 46/121/18 51/122/24
f 48/123/21 47/120/19 52/124/25
f 49/125/22 48/126/21 53/127/26
f 50/128/20 49/125/22 54/129/27
f 46/121/18 55/130/23 51/122/24
f 47/120/19 51/122/24 52/124/25
f 48/131/21 52/132/25 53/133/26
f 49/125/22 53/127/26 54/129/27
f 50/118/20 54/134/27 55/119/23
f 51/135/24 55/136/23 56/137/28
f 52/138/25 51/135/24 56/137/28
f 53/139/26 52/138/25 56/137/28
f 54/140/27 53/139/26 56/137/28
f 55/136/23 54/140/27 56/137/28
f 57/141/29 72/142/30 71/143/31
f 58/144/32 74/145/33 80/146/34
f 57/141/29 71/143/31 86/147/35
f 57/141/29 86/147/35 92/148/36
f 57/141/29 92/148/36 81/149/37
f 58/144/32 80/146/34 101/150/38
f 59/151/39 77/152/40 107/153/41
f 60/154/42 89/155/43 113/156/44
f 61/157/45 95/158/46 119/159/47
f 62/160/48 98/161/49 125/162/50
f 58/144/32 101/150/38 108/163/51
f 59/151/39 107/153/41 114/164/52
f 60/154/42 113/156/44 120/165/53
f 61/157/45 119/159/47 126/166/54
f 62/160/48 125/162/50 102/167/55
f 63/168/56 131/169/57 146/170/58
f 64/171/59 134/172/60 152/173/61
f 65/174/62 137/175/63 155/176/64
f 66/177/65 140/178/66 158/179/67
f 67/180/68 143/181/69 147/182/70
f 149/183/71 156/184/72 68/185/73
f 148/186/74 159/187/75 149/183/71
f 147/188/70 160/189/76 148/186/74
f 149/183/71 159/187/75 156/184/72
f 159/187/75 157/190/77 156/184/72
f 148/186/74 160/189/76 159/187/75
f 160/189/76 161/191/78 159/187/75
f 159/187/75 161/191/78 157/190/77
f 161/191/78 158/192/67 157/190/77
f 147/182/70 143/181/69 160/193/76
f 143/181/69 142/194/79 160/193/76
f 160/189/76 142/195/79 161/191/78
f 142/194/79 141/196/80 161/197/78
f 161/191/78 141/198/80 158/192/67
f 141/199/80 66/177/65 158/179/67
f 156/184/72 153/200/81 68/185/73
f 157/190/77 162/201/82 156/184/72
f 158/192/67 163/202/83 157/190/77
f 156/184/72 162/201/82 153/200/81
f 162/201/82 154/203/84 153/200/81
f 157/190/77 163/202/83 162/201/82
f 163/202/83 164/204/85 162/201/82
f 162/201/82 164/204/85 154/203/84
f 164/204/85 155/205/64 154/203/84
f 158/192/67 140/206/66 163/202/83
f 140/178/66 139/207/86 163/208/83
f 163/202/83 139/209/86 164/204/85
f 139/209/86 138/210/87 164/204/85
f 164/204/85 138/210/87 155/205/64
f 138/211/87 65/174/62 155/176/64
f 153/200/81 150/212/88 68/185/73
f 154/203/84 165/213/89 153/200/81
f 155/205/64 166/214/90 154/203/84
f 153/200/81 165/213/89 150/212/88
f 165/213/89 151/215/91 150/212/88
f 154/203/84 166/214/90 165/213/89
f 166/214/90 167/216/92 165/213/89
f 165/213/89 167/216/92 151/215/91
f 167/216/92 152/217/61 151/215/91
f 155/176/64 137/175/63 166/218/90
f 137/175/63 136/219/93 166/218/90
f 166/218/90 136/219/93 167/220/92
f 136/219/93 135/221/94 167/220/92
f 167/220/92 135/221/94 152/173/61
f 135/221/94 64/171/59 152/173/61
f 150/212/88 144/222/95 68/185/73
f 151/215/91 168/223/96 150/212/88
f 152/217/61 169/224/97 151/215/91
f 150/212/88 168/223/96 144/222/95
f 168/223/96 145/225/98 144/222/95
f 151/215/91 169/224/97 168/223/96
f 169/224/97 170/226/99 168/223/96
f 168/223/96 170/226/99 145/225/98
f 170/226/99 146/227/58 145/225/98
f 152/217/61 134/228/60 169/224/97
f 134/228/60 133/229/100 169/224/97
f 169/224/97 133/229/100 170/226/99
f 133/230/100 132/231/101 170/232/99
f 170/226/99 132/233/101 146/227/58
f 132/231/101 63/168/56 146/170/58
f 144/222/95 149/183/71 68/185/73
f 145/225/98 171/234/102 144/222/95
f 146/227/58 172/235/103 145/225/98
f 144/222/95 171/234/102 149/183/71
f 171/234/102 148/186/74 149/183/71
f 145/225/98 172/235/103 171/234/102
f 172/235/103 173/236/104 171/234/102
f 171/234/102 173/236/104 148/186/74
f 173/236/104 147/188/70 148/186/74
f 146/227/58 131/237/57 172/235/103
f 131/237/57 130/238/105 172/235/103
f 172/235/103 130/238/105 173/236/104
f 130/239/105 129/240/106 173/241/104
f 173/241/104 129/240/106 147/182/70
f 129/240/106 67/180/68 147/182/70
f 104/242/107 143/181/69 67/180/68
f 103/243/108 174/244/109 104/242/107
f 102/167/55 175/245/110 103/243/108
f 104/242/107 174/244/109 143/181/69
f 174/244/109 142/194/79 143/181/69
f 103/243/108 175/245/110 174/244/109
f 175/245/110 176/246/111 174/244/109
f 174/244/109 176/246/111 142/194/79
f 176/246/111 141/196/80 142/194/79
f 102/167/55 125/162/50 175/245/110
f 125/162/50 124/247/112 175/245/110
f 175/245/110 124/247/112 176/246/111
f 124/247/112 123/248/113 176/246/111
f 176/249/111 123/250/113 141/199/80
f 123/250/113 66/177/65 141/199/80
f 128/251/114 140/178/66 66/177/65
f 127/252/115 177/253/116 128/251/114
f 126/166/54 178/254/117 127/252/115
f 128/251/114 177/253/116 140/178/66
f 177/253/116 139/207/86 140/178/66
f 127/252/115 178/254/117 177/253/116
f 178/254/117 179/255/118 177/253/116
f 177/253/116 179/255/118 139/207/86
f 179/255/118 138/256/87 139/207/86
f 126/166/54 119/159/47 178/254/117
f 119/159/47 118/257/119 178/254/117
f 178/254/117 118/257/119 179/255/118
f 118/258/119 117/259/120 179/260/118
f 179/260/118 117/259/120 138/211/87
f 117/259/120 65/174/62 138/211/87
f 122/261/121 137/175/63 65/174/62
f 121/262/122 180/263/123 122/261/121
f 120/165/53 181/264/124 121/262/122
f 122/261/121 180/263/123 137/175/63
f 180/263/123 136/219/93 137/175/63
f 121/262/122 181/264/124 180/263/123
f 181/264/124 182/265/125 180/263/123
f 180/263/123 182/265/125 136/219/93
f 182/265/125 135/221/94 136/219/93
f 120/165/53 113/156/44 181/264/124
f 113/156/44 112/266/126 181/264/124
f 181/264/124 112/266/126 182/265/125
f 112/266/126 111/267/127 182/265/125
f 182/265/125 111/267/127 135/221/94
f 111/267/127 64/171/59 135/221/94
f 116/268/128 134/172/60 64/171/59
f 115/269/129 183/270/130 116/271/128
f 114/164/52 184/272/131 115/269/129
f 116/268/128 183/273/130 134/172/60
f 183/270/130 133/230/100 134/274/60
f 115/269/129 184/272/131 183/270/130
f 184/272/131 185/275/132 183/270/130
f 183/270/130 185/275/132 133/230/100
f 185/275/132 132/231/101 133/230/100
f 114/164/52 107/153/41 184/272/131
f 107/153/41 106/276/133 184/272/131
f 184/272/131 106/276/133 185/275/132
f 106/276/133 105/277/134 185/275/132
f 185/275/132 105/277/134 132/231/101
f 105/277/134 63/168/56 132/231/101
f 110/278/135 131/169/57 63/168/56
f 109/279/136 186/280/137 110/278/135
f 108/163/51 187/281/138 109/282/136
f 110/278/135 186/280/137 131/169/57
f 186/283/137 130/239/105 131/284/57
f 109/282/136 187/281/138 186/283/137
f 187/281/138 188/285/139 186/283/137
f 186/283/137 188/285/139 130/239/105
f 188/285/139 129/240/106 130/239/105
f 108/163/51 101/150/38 187/281/138
f 101/150/38 100/286/140 187/281/138
f 187/281/138 100/286/140 188/285/139
f 100/286/140 99/287/141 188/285/139
f 188/285/139 99/287/141 129/240/106
f 99/287/141 67/180/68 129/240/106
f 123/250/113 128/251/114 66/177/65
f 124/288/112 189/289/142 123/250/113
f 125/290/50 190/291/143 124/288/112
f 123/250/113 189/289/142 128/251/114
f 189/289/142 127/252/115 128/251/114
f 124/288/112 190/291/143 189/289/142
f 190/291/143 191/292/144 189/289/142
f 189/289/142 191/292/144 127/252/115
f 191/292/144 126/166/54 127/252/115
f 125/162/50 98/161/49 190/293/143
f 98/294/49 97/295/145 190/291/143
f 190/291/143 97/295/145 191/292/144
f 97/295/145 96/296/146 191/292/144
f 191/292/144 96/296/146 126/166/54
f 96/296/146 61/157/45 126/166/54
f 117/259/120 122/261/121 65/174/62
f 118/258/119 192/297/147 117/259/120
f 119/159/47 193/298/148 118/257/119
f 117/259/120 192/297/147 122/261/121
f 192/297/147 121/262/122 122/261/121
f 118/258/119 193/299/148 192/297/147
f 193/299/148 194/300/149 192/297/147
f 192/297/147 194/300/149 121/262/122
f 194/300/149 120/165/53 121/262/122
f 119/159/47 95/158/46 193/298/148
f 95/301/46 94/302/150 193/299/148
f 193/299/148 94/302/150 194/300/149
f 94/302/150 93/303/151 194/300/149
f 194/300/149 93/303/151 120/165/53
f 93/303/151 60/154/42 120/165/53
f 111/267/127 116/268/128 64/171/59
f 112/266/126 195/304/152 111/267/127
f 113/156/44 196/305/153 112/266/126
f 111/267/127 195/304/152 116/268/128
f 195/304/152 115/306/129 116/268/128
f 112/266/126 196/305/153 195/304/152
f 196/305/153 197/307/154 195/304/152
f 195/304/152 197/307/154 115/306/129
f 197/308/154 114/164/52 115/269/129
f 113/156/44 89/155/43 196/305/153
f 89/155/43 88/309/155 196/305/153
f 196/305/153 88/309/155 197/307/154
f 88/309/155 87/310/156 197/307/154
f 197/308/154 87/311/156 114/164/52
f 87/311/156 59/151/39 114/164/52
f 105/277/134 110/278/135 63/168/56
f 106/276/133 198/312/157 105/277/134
f 107/153/41 199/313/158 106/276/133
f 105/277/134 198/312/157 110/278/135
f 198/312/157 109/279/136 110/278/135
f 106/276/133 199/313/158 198/312/157
f 199/313/158 200/314/159 198/312/157
f 198/312/157 200/314/159 109/279/136
f 200/314/159 108/315/51 109/279/136
f 107/153/41 77/152/40 199/313/158
f 77/152/40 76/316/160 199/313/158
f 199/313/158 76/316/160 200/314/159
f 76/316/160 75/317/161 200/314/159
f 200/314/159 75/317/161 108/315/51
f 75/318/161 58/144/32 108/163/51
f 99/287/141 104/242/107 67/180/68
f 100/286/140 201/319/162 99/287/141
f 101/150/38 202/320/163 100/286/140
f 99/287/141 201/319/162 104/242/107
f 201/319/162 103/243/108 104/242/107
f 100/286/140 202/320/163 201/319/162
f 202/320/163 203/321/164 201/319/162
f 201/319/162 203/321/164 103/243/108
f 203/321/164 102/167/55 103/243/108
f 101/150/38 80/146/34 202/320/163
f 80/146/34 79/322/165 202/320/163
f 202/320/163 79/322/165 203/321/164
f 79/322/165 78/323/166 203/321/164
f 203/321/164 78/323/166 102/167/55
f 78/323/166 62/160/48 102/167/55
f 83/324/167 98/161/49 62/160/48
f 82/325/168 204/326/169 83/327/167
f 81/149/37 205/328/170 82/325/168
f 83/327/167 204/326/169 98/329/49
f 204/326/169 97/330/145 98/329/49
f 82/325/168 205/328/170 204/326/169
f 205/328/170 206/331/171 204/326/169
f 204/326/169 206/331/171 97/330/145
f 206/332/171 96/296/146 97/295/145
f 81/149/37 92/148/36 205/328/170
f 92/148/36 91/333/172 205/328/170
f 205/328/170 91/333/172 206/331/171
f 91/333/172 90/334/173 206/331/171
f 206/331/171 90/334/173 96/335/146
f 90/336/173 61/157/45 96/296/146
f 90/336/173 95/158/46 61/157/45
f 91/333/172 207/337/174 90/334/173
f 92/148/36 208/338/175 91/333/172
f 90/334/173 207/337/174 95/339/46
f 207/337/174 94/340/150 95/339/46
f 91/333/172 208/338/175 207/337/174
f 208/338/175 209/341/176 207/337/174
f 207/337/174 209/341/176 94/340/150
f 209/342/176 93/303/151 94/302/150
f 92/148/36 86/147/35 208/338/175
f 86/147/35 85/343/177 208/338/175
f 208/338/175 85/343/177 209/341/176
f 85/343/177 84/344/178 209/341/176
f 209/342/176 84/345/178 93/303/151
f 84/345/178 60/154/42 93/303/151
f 84/345/178 89/155/43 60/154/42
f 85/343/177 210/346/179 84/344/178
f 86/147/35 211/347/180 85/343/177
f 84/345/178 210/348/179 89/155/43
f 210/348/179 88/309/155 89/155/43
f 85/343/177 211/347/180 210/346/179
f 211/347/180 212/349/181 210/346/179
f 210/346/179 212/349/181 88/350/155
f 212/349/181 87/351/156 88/350/155
f 86/147/35 71/143/31 211/347/180
f 71/143/31 70/352/182 211/347/180
f 211/347/180 70/352/182 212/349/181
f 70/352/182 69/353/183 212/349/181
f 212/349/181 69/353/183 87/351/156
f 69/354/183 59/151/39 87/311/156
f 78/323/166 83/324/167 62/160/48
f 79/322/165 213/355/184 78/323/166
f 80/146/34 214/356/185 79/322/165
f 78/323/166 213/355/184 83/324/167
f 213/357/184 82/325/168 83/327/167
f 79/322/165 214/356/185 213/355/184
f 214/358/185 215/359/186 213/357/184
f 213/357/184 215/359/186 82/325/168
f 215/359/186 81/149/37 82/325/168
f 80/146/34 74/145/33 214/356/185
f 74/360/33 73/361/187 214/358/185
f 214/358/185 73/361/187 215/359/186
f 73/361/187 72/142/30 215/359/186
f 215/359/186 72/142/30 81/149/37
f 72/142/30 57/141/29 81/149/37
f 69/354/183 77/152/40 59/151/39
f 70/352/182 216/362/188 69/353/183
f 71/143/31 217/363/189 70/352/182
f 69/353/183 216/362/188 77/364/40
f 216/365/188 76/316/160 77/152/40
f 70/352/182 217/363/189 216/362/188
f 217/363/189 218/366/190 216/362/188
f 216/362/188 218/366/190 76/367/160
f 218/366/190 75/368/161 76/367/160
f 71/143/31 72/142/30 217/363/189
f 72/142/30 73/361/187 217/363/189
f 217/363/189 73/361/187 218/366/190
f 73/361/187 74/360/33 218/366/190
f 218/366/190 74/360/33 75/368/161
f 74/145/33 58/144/32 75/318/161
f 219/369/191 232/370/192 231/371/193
f 220/372/194 232/373/192 234/374/195
f 219/369/191 231/371/193 236/375/196
f 219/369/191 236/375/196 238/376/197
f 219/369/191 238/376/197 235/377/198
f 220/372/194 234/374/195 241/378/199
f 221/379/200 233/380/201 243/381/133
f 222/382/202 237/383/203 245/384/204
f 223/385/205 239/386/206 247/387/207
f 224/388/208 240/389/209 249/390/210
f 220/372/194 241/378/199 244/391/211
f 221/379/200 243/381/133 246/392/212
f 222/382/202 245/384/204 248/393/213
f 223/394/205 247/395/207 250/396/115
f 224/388/208 249/390/210 242/397/214
f 225/398/215 251/399/216 256/400/217
f 226/401/218 252/402/219 258/403/220
f 227/404/221 253/405/222 259/406/223
f 228/407/224 254/408/225 260/409/226
f 229/410/227 255/411/228 257/412/229
f 257/413/229 260/414/226 230/415/230
f 257/412/229 255/411/228 260/416/226
f 255/411/228 228/417/224 260/416/226
f 260/414/226 259/418/223 230/415/230
f 260/414/226 254/419/225 259/418/223
f 254/420/225 227/404/221 259/406/223
f 259/418/223 258/421/220 230/415/230
f 259/406/223 253/405/222 258/403/220
f 253/405/222 226/401/218 258/403/220
f 258/421/220 256/422/217 230/415/230
f 258/421/220 252/423/219 256/422/217
f 252/424/219 225/425/215 256/426/217
f 256/422/217 257/413/229 230/415/230
f 256/400/217 251/399/216 257/412/229
f 251/399/216 229/410/227 257/412/229
f 242/397/214 255/411/228 229/410/227
f 242/397/214 249/390/210 255/411/228
f 249/390/210 228/417/224 255/411/228
f 250/396/115 254/408/225 228/407/224
f 250/396/115 247/395/207 254/408/225
f 247/387/207 227/404/221 254/420/225
f 248/393/213 253/405/222 227/404/221
f 248/393/213 245/384/204 253/405/222
f 245/384/204 226/401/218 253/405/222
f 246/427/212 252/402/219 226/401/218
f 246/392/212 243/381/133 252/424/219
f 243/381/133 225/425/215 252/424/219
f 244/391/211 251/399/216 225/398/215
f 244/391/211 241/378/199 251/399/216
f 241/378/199 229/410/227 251/399/216
f 249/428/210 250/396/115 228/407/224
f 249/428/210 240/429/209 250/396/115
f 240/429/209 223/394/205 250/396/115
f 247/387/207 248/393/213 227/404/221
f 247/387/207 239/386/206 248/393/213
f 239/386/206 222/382/202 248/393/213
f 245/384/204 246/427/212 226/401/218
f 245/384/204 237/383/203 246/427/212
f 237/383/203 221/430/200 246/427/212
f 243/381/133 244/431/211 225/425/215
f 243/381/133 233/380/201 244/431/211
f 233/432/201 220/372/194 244/391/211
f 241/378/199 242/397/214 229/410/227
f 241/378/199 234/374/195 242/397/214
f 234/374/195 224/388/208 242/397/214
f 235/433/198 240/389/209 224/388/208
f 235/377/198 238/376/197 240/434/209
f 238/376/197 223/435/205 240/434/209
f 238/436/197 239/386/206 223/385/205
f 238/436/197 236/437/196 239/386/206
f 236/437/196 222/382/202 239/386/206
f 236/437/196 237/383/203 222/382/202
f 236/437/196 231/438/193 237/383/203
f 231/438/193 221/430/200 237/383/203
f 234/374/195 235/433/198 224/388/208
f 234/374/195 232/373/192 235/433/198
f 232/370/192 219/369/191 235/377/198
f 231/439/193 233/380/201 221/379/200
f 231/371/193 232/370/192 233/440/201
f 232/373/192 220/372/194 233/432/201
f 261/441/191 274/442/192 273/443/193
f 262/444/194 274/445/192 276/446/195
f 261/441/191 273/443/193 278/447/196
f 261/441/191 278/447/196 280/448/197
f 261/441/191 280/448/197 277/449/198
f 262/444/194 276/446/195 283/450/199
f 263/451/200 275/452/201 285/453/133
f 264/454/202 279/455/203 287/456/204
f 265/457/205 281/458/206 289/459/207
f 266/460/208 282/461/209 291/462/210
f 262/444/194 283/450/199 286/463/211
f 263/451/200 285/453/133 288/464/212
f 264/454/202 287/456/204 290/465/213
f 265/466/205 289/467/207 292/468/115
f 266/460/208 291/462/210 284/469/214
f 267/470/215 293/471/216 298/472/217
f 268/473/218 294/474/219 300/475/220
f 269/476/221 295/477/222 301/478/223
f 270/479/224 296/480/225 302/481/226
f 271/482/227 297/483/228 299/484/229
f 299/485/229 302/486/226 272/487/230
f 299/484/229 297/483/228 302/488/226
f 297/483/228 270/489/224 302/488/226
f 302/486/226 301/490/223 272/487/230
f 302/486/226 296/491/225 301/490/223
f 296/492/225 269/476/221 301/478/223
f 301/490/223 300/493/220 272/487/230
f 301/478/223 295/477/222 300/475/220
f 295/477/222 268/473/218 300/475/220
f 300/493/220 298/494/217 272/487/230
f 300/493/220 294/495/219 298/494/217
f 294/496/219 267/497/215 298/498/217
f 298/494/217 299/485/229 272/487/230
f 298/472/217 293/471/216 299/484/229
f 293/471/216 271/482/227 299/484/229
f 284/469/214 297/483/228 271/482/227
f 284/469/214 291/462/210 297/483/228
f 291/462/210 270/489/224 297/483/228
f 292/468/115 296/480/225 270/479/224
f 292/468/115 289/467/207 296/480/225
f 289/459/207 269/476/221 296/492/225
f 290/465/213 295/477/222 269/476/221
f 290/465/213 287/456/204 295/477/222
f 287/456/204 268/473/218 295/477/222
f 288/499/212 294/474/219 268/473/218
f 288/464/212 285/453/133 294/496/219
f 285/453/133 267/497/215 294/496/219
f 286/463/211 293/471/216 267/470/215
f 286/463/211 283/450/199 293/471/216
f 283/450/199 271/482/227 293/471/216
f 291/500/210 292/468/115 270/479/224
f 291/500/210 282/501/209 292/468/115
f 282/501/209 265/466/205 292/468/115
f 289/459/207 290/465/213 269/476/221
f 289/459/207 281/458/206 290/465/213
f 281/458/206 264/454/202 290/465/213
f 287/456/204 288/499/212 268/473/218
f 287/456/204 279/455/203 288/499/212
f 279/455/203 263/502/200 288/499/212
f 285/453/133 286/503/211 267/497/215
f 285/453/133 275/452/201 286/503/211
f 275/504/201 262/444/194 286/463/211
f 283/450/199 284/469/214 271/482/227
f 283/450/199 276/446/195 284/469/214
f 276/446/195 266/460/208 284/469/214
f 277/505/198 282/461/209 266/460/208
f 277/449/198 280/448/197 282/506/209
f 280/448/197 265/507/205 282/506/209
f 280/508/197 281/458/206 265/457/205
f 280/508/197 278/509/196 281/458/206
f 278/509/196 264/454/202 281/458/206
f 278/509/196 279/455/203 264/454/202
f 278/509/196 273/510/193 279/455/203
f 273/510/193 263/502/200 279/455/203
f 276/446/195 277/505/198 266/460/208
f 276/446/195 274/445/192 277/505/198
f 274/442/192 261/441/191 277/449/198
f 273/511/193 275/452/201 263/451/200
f 273/443/193 274/442/192 275/512/201
f 274/445/192 262/444/194 275/504/201
f 303/513/231 316/514/232 315/515/233
f 304/516/234 316/517/232 318/518/235
f 303/513/231 315/515/233 320/519/236
f 303/513/231 320/519/236 322/520/237
f 303/513/231 322/520/237 319/521/238
f 304/516/234 318/518/235 325/522/239
f 305/523/240 317/524/241 327/525/133
f 306/526/242 321/527/243 329/528/244
f 307/529/245 323/530/246 331/531/247
f 308/532/248 324/533/249 333/534/250
f 304/516/234 325/522/239 328/535/251
f 305/523/240 327/525/133 330/536/252
f 306/526/242 329/528/244 332/537/253
f 307/529/245 331/531/247 334/538/115
f 308/539/248 333/540/250 326/541/254
f 309/542/255 335/543/256 340/544/257
f 310/545/258 336/546/259 342/547/260
f 311/548/261 337/549/262 343/550/263
f 312/551/264 338/552/265 344/553/266
f 313/554/267 339/555/268 341/556/269
f 341/557/269 344/558/266 314/559/270
f 341/557/269 339/560/268 344/558/266
f 339/560/268 312/561/264 344/558/266
f 344/558/266 343/562/263 314/559/270
f 344/558/266 338/563/265 343/562/263
f 338/563/265 311/564/261 343/562/263
f 343/562/263 342/547/260 314/559/270
f 343/562/263 337/565/262 342/547/260
f 337/549/262 310/566/258 342/567/260
f 342/547/260 340/544/257 314/559/270
f 342/547/260 336/546/259 340/544/257
f 336/568/259 309/569/255 340/570/257
f 340/544/257 341/557/269 314/559/270
f 340/544/257 335/543/256 341/557/269
f 335/571/256 313/554/267 341/556/269
f 326/541/254 339/555/268 313/554/267
f 326/541/254 333/540/250 339/555/268
f 333/534/250 312/551/264 339/572/268
f 334/538/115 338/552/265 312/551/264
f 334/538/115 331/531/247 338/552/265
f 331/531/247 311/573/261 338/552/265
f 332/537/253 337/549/262 311/548/261
f 332/537/253 329/528/244 337/549/262
f 329/528/244 310/566/258 337/549/262
f 330/536/252 336/568/259 310/574/258
f 330/536/252 327/525/133 336/568/259
f 327/525/133 309/569/255 336/568/259
f 328/575/251 335/576/256 309/569/255
f 328/535/251 325/522/239 335/571/256
f 325/522/239 313/554/267 335/571/256
f 333/534/250 334/538/115 312/551/264
f 333/534/250 324/533/249 334/538/115
f 324/533/249 307/529/245 334/538/115
f 331/577/247 332/537/253 311/548/261
f 331/577/247 323/578/246 332/537/253
f 323/578/246 306/526/242 332/537/253
f 329/528/244 330/579/252 310/566/258
f 329/528/244 321/527/243 330/579/252
f 321/580/243 305/523/240 330/536/252
f 327/525/133 328/575/251 309/569/255
f 327/525/133 317/524/241 328/575/251
f 317/524/241 304/581/234 328/575/251
f 325/522/239 326/541/254 313/554/267
f 325/522/239 318/518/235 326/541/254
f 318/518/235 308/539/248 326/541/254
f 319/521/238 324/582/249 308/583/248
f 319/521/238 322/520/237 324/582/249
f 322/584/237 307/529/245 324/533/249
f 322/520/237 323/585/246 307/586/245
f 322/520/237 320/519/236 323/585/246
f 320/519/236 306/587/242 323/585/246
f 320/519/236 321/588/243 306/587/242
f 320/519/236 315/515/233 321/588/243
f 315/515/233 305/589/240 321/588/243
f 318/518/235 319/590/238 308/539/248
f 318/591/235 316/514/232 319/521/238
f 316/514/232 303/513/231 319/521/238
f 315/592/233 317/524/241 305/523/240
f 315/515/233 316/514/232 317/593/241
f 316/514/232 304/594/234 317/593/241
f 345/595/271 346/596/272 348/597/273 347/598/274
f 347/599/274 348/600/273 350/601/275 349/602/276
f 349/602/276 350/601/275 352/603/277 351/604/278
f 351/605/278 352/606/277 354/607/279 353/608/280
f 353/609/280 354/610/279 356/611/281 355/612/282
f 348/613/273 346/614/272 358/615/283 356/616/281 354/617/279 352/618/277 350/619/275
f 355/612/282 356/611/281 358/620/283 357/621/284
f 357/622/284 358/623/283 346/596/272 345/595/271
f 345/624/271 347/625/274 349/626/276 351/627/278 353/628/280 355/629/282 357/630/284
f 359/631/231 360/632/285 361/633/286
f 360/634/285 359/635/231 364/636/287
f 359/637/231 361/638/286 362/639/288
f 359/637/231 362/639/288 363/640/289
f 359/637/231 363/640/289 364/641/287
f 360/634/285 364/636/287 369/642/290
f 361/633/286 360/632/285 365/643/291
f 362/644/288 361/645/286 366/646/292
f 363/647/289 362/644/288 367/648/293
f 364/649/287 363/650/289 368/651/294
f 360/634/285 369/642/290 365/652/291
f 361/633/286 365/643/291 366/653/292
f 362/644/288 366/646/292 367/648/293
f 363/650/289 367/654/293 368/651/294
f 364/636/287 368/655/294 369/642/290
f 365/656/291 369/657/290 370/658/270
f 366/653/292 365/643/291 370/659/270
f 367/648/293 366/646/292 370/660/270
f 368/651/294 367/654/293 370/661/270
f 369/657/290 368/662/294 370/658/270
f 371/663/295 372/664/296 374/665/297 373/666/298
f 373/667/298 374/668/297 376/669/299 375/670/300
f 375/670/300 376/669/299 378/671/301 377/672/302
f 377/673/302 378/674/301 380/675/303 379/676/304
f 379/677/304 380/678/303 382/679/305 381/680/306
f 374/681/297 372/682/296 384/683/307 382/684/305 380/685/303 378/686/301 376/687/299
f 381/680/306 382/679/305 384/688/307 383/689/308
f 383/690/308 384/691/307 372/664/296 371/663/295
f 371/692/295 373/693/298 375/694/300 377/695/302 379/696/304 381/697/306 383/698/308
f 385/699/309 386/700/310 388/701/311 387/702/312
f 387/703/312 388/704/311 390/705/313 389/706/314
f 389/706/314 390/705/313 392/707/315 391/708/316
f 391/709/316 392/710/315 394/711/317 393/712/318
f 393/713/318 394/714/317 396/715/319 395/716/320
f 388/717/311 386/718/310 398/719/321 396/720/319 394/721/317 392/722/315 390/723/313
f 395/716/320 396/715/319 398/724/321 397/725/322
f 397/726/322 398/727/321 386/700/310 385/699/309
f 385/728/309 387/729/312 389/730/314 391/731/316 393/732/318 395/733/320 397/734/322
f 399/735/323 400/736/324 402/737/325 401/738/326
f 401/739/326 402/740/325 404/741/327 403/742/328
f 403/742/328 404/741/327 406/743/329 405/744/330
f 405/745/330 406/746/329 408/747/331 407/748/332
f 407/749/332 408/750/331 410/751/333 409/752/334
f 402/753/325 400/754/324 412/755/335 410/756/333 408/757/331 406/758/329 404/759/327
f 409/752/334 410/751/333 412/760/335 411/761/336
f 411/762/336 412/763/335 400/736/324 399/735/323
f 399/764/323 401/765/326 403/766/328 405/767/330 407/768/332 409/769/334 411/770/336
f 413/771/231 414/772/234 415/773/240
f 414/772/234 413/771/231 418/774/248
f 413/771/231 415/773/240 416/775/242
f 413/771/231 416/775/242 417/776/245
f 413/771/231 417/776/245 418/774/248
f 414/777/234 418/778/248 423/779/267
f 415/780/240 414/781/234 419/782/255
f 416/783/242 415/784/240 420/785/258
f 417/786/245 416/783/242 421/787/261
f 418/788/248 417/789/245 422/790/337
f 414/777/234 423/779/267 419/791/255
f 415/780/240 419/782/255 420/792/258
f 416/783/242 420/785/258 421/787/261
f 417/789/245 421/793/261 422/790/337
f 418/778/248 422/794/337 423/779/267
f 419/795/255 423/796/267 424/797/270
f 420/798/258 419/795/255 424/797/270
f 421/799/261 420/798/258 424/797/270
f 422/800/337 421/799/261 424/797/270
f 423/796/267 422/800/337 424/797/270
f 425/801/231 426/802/234 427/803/338
f 426/802/234 425/801/231 430/804/248
f 425/801/231 427/803/338 428/805/242
f 425/801/231 428/805/242 429/806/339
f 425/801/231 429/806/339 430/804/248
f 426/807/234 430/808/248 435/809/267
f 427/810/338 426/811/234 431/812/340
f 428/813/242 427/814/338 432/815/258
f 429/816/339 428/813/242 433/817/261
f 430/818/248 429/819/339 434/820/264
f 426/807/234 435/809/267 431/821/340
f 427/810/338 431/812/340 432/822/258
f 428/813/242 432/815/258 433/817/261
f 429/819/339 433/823/261 434/820/264
f 430/808/248 434/824/264 435/809/267
f 431/825/340 435/826/267 436/827/270
f 432/828/258 431/825/340 436/827/270
f 433/829/261 432/828/258 436/827/270
f 434/830/264 433/829/261 436/827/270
f 435/826/267 434/830/264 436/827/270
f 437/831/341 438/832/342 440/833/343 439/834/344
f 439/835/344 440/836/343 442/837/345 441/838/346
f 441/838/346 442/837/345 444/839/347 443/840/348
f 443/841/348 444/842/347 446/843/349 445/844/350
f 445/845/350 446/846/349 448/847/351 447/848/352
f 440/849/343 438/850/342 450/851/353 448/852/351 446/853/349 444/854/347 442/855/345
f 447/848/352 448/847/351 450/856/353 449/857/354
f 449/858/354 450/851/353 438/850/342 437/859/341
f 437/860/341 439/861/344 441/862/346 443/863/348 445/864/350 447/865/352 449/866/354
f 451/867/355 452/868/356 454/869/357 453/870/358
f 453/871/358 454/872/357 456/873/359 455/874/360
f 455/874/360 456/873/359 458/875/361 457/876/362
f 457/877/362 458/878/361 460/879/363 459/880/364
f 459/881/364 460/882/363 462/883/365 461/884/366
f 454/885/357 452/886/356 464/887/367 462/888/365 460/889/363 458/890/361 456/891/359
f 461/884/366 462/883/365 464/892/367 463/893/368
f 463/894/368 464/895/367 452/868/356 451/867/355
f 451/896/355 453/897/358 455/898/360 457/899/362 459/900/364 461/901/366 463/902/368
f 465/903/369 466/904/370 468/905/371 467/906/372
f 467/907/372 468/908/371 470/909/373 469/910/374
f 469/910/374 470/909/373 472/911/375 471/912/376
f 471/913/376 472/914/375 474/915/377 473/916/378
f 473/917/378 474/918/377 476/919/379 475/920/380
f 468/905/371 466/904/370 478/921/381 476/922/379 474/923/377 472/924/375 470/925/373
f 475/920/380 476/919/379 478/926/381 477/927/382
f 477/928/382 478/929/381 466/930/370 465/931/369
f 465/932/369 467/933/372 469/934/374 471/935/376 473/936/378 475/937/380 477/938/382
