# axis-converted-to-Y-up
# Blender 5.1.1
# www.blender.org
mtllib mob_sapi_idle.mtl
o mob_sapi_idle
v -4.103877 0.010973 -0.373080
v -4.103877 0.932699 -0.373080
v -4.165950 0.010973 -0.398791
v -4.165950 0.932699 -0.398791
v -4.191660 0.010973 -0.460864
v -4.191660 0.932699 -0.460864
v -4.165950 0.010973 -0.522936
v -4.165950 0.932699 -0.522936
v -4.103877 0.010973 -0.548647
v -4.103877 0.932699 -0.548647
v -4.041804 0.010973 -0.522936
v -4.041804 0.932699 -0.522936
v -4.016094 0.010973 -0.460864
v -4.016094 0.932699 -0.460864
v -4.041804 0.010973 -0.398791
v -4.041804 0.932699 -0.398791
v -4.103877 0.000000 -0.362107
v -4.103877 0.109729 -0.362107
v -4.173709 0.000000 -0.391032
v -4.173709 0.109729 -0.391032
v -4.202633 0.000000 -0.460864
v -4.202633 0.109729 -0.460864
v -4.173709 0.000000 -0.530695
v -4.173709 0.109729 -0.530695
v -4.103877 0.000000 -0.559620
v -4.103877 0.109729 -0.559620
v -4.034045 0.000000 -0.530695
v -4.034045 0.109729 -0.530695
v -4.005121 0.000000 -0.460864
v -4.005121 0.109729 -0.460864
v -4.034045 0.000000 -0.391032
v -4.034045 0.109729 -0.391032
v -4.103877 0.010973 0.548646
v -4.103877 0.932699 0.548646
v -4.165950 0.010973 0.522936
v -4.165950 0.932699 0.522936
v -4.191660 0.010973 0.460863
v -4.191660 0.932699 0.460863
v -4.165950 0.010973 0.398790
v -4.165950 0.932699 0.398790
v -4.103877 0.010973 0.373079
v -4.103877 0.932699 0.373079
v -4.041804 0.010973 0.398790
v -4.041804 0.932699 0.398790
v -4.016094 0.010973 0.460863
v -4.016094 0.932699 0.460863
v -4.041804 0.010973 0.522936
v -4.041804 0.932699 0.522936
v -4.103877 0.000000 0.559619
v -4.103877 0.109729 0.559619
v -4.173709 0.000000 0.530695
v -4.173709 0.109729 0.530695
v -4.202633 0.000000 0.460863
v -4.202633 0.109729 0.460863
v -4.173709 0.000000 0.391031
v -4.173709 0.109729 0.391031
v -4.103877 0.000000 0.362106
v -4.103877 0.109729 0.362106
v -4.034045 0.000000 0.391031
v -4.034045 0.109729 0.391031
v -4.005121 0.000000 0.460863
v -4.005121 0.109729 0.460863
v -4.034045 0.000000 0.530695
v -4.034045 0.109729 0.530695
v -4.674470 0.010973 -0.373080
v -4.674470 0.932699 -0.373080
v -4.736541 0.010973 -0.398791
v -4.736541 0.932699 -0.398791
v -4.762253 0.010973 -0.460864
v -4.762253 0.932699 -0.460864
v -4.736541 0.010973 -0.522936
v -4.736541 0.932699 -0.522936
v -4.674470 0.010973 -0.548647
v -4.674470 0.932699 -0.548647
v -4.612398 0.010973 -0.522936
v -4.612398 0.932699 -0.522936
v -4.586686 0.010973 -0.460864
v -4.586686 0.932699 -0.460864
v -4.612398 0.010973 -0.398791
v -4.612398 0.932699 -0.398791
v -4.674470 0.000000 -0.362107
v -4.674470 0.109729 -0.362107
v -4.744300 0.000000 -0.391032
v -4.744300 0.109729 -0.391032
v -4.773226 0.000000 -0.460864
v -4.773226 0.109729 -0.460864
v -4.744300 0.000000 -0.530695
v -4.744300 0.109729 -0.530695
v -4.674470 0.000000 -0.559620
v -4.674470 0.109729 -0.559620
v -4.604639 0.000000 -0.530695
v -4.604639 0.109729 -0.530695
v -4.575714 0.000000 -0.460864
v -4.575714 0.109729 -0.460864
v -4.604639 0.000000 -0.391032
v -4.604639 0.109729 -0.391032
v -4.674470 0.010973 0.548646
v -4.674470 0.932699 0.548646
v -4.736541 0.010973 0.522936
v -4.736541 0.932699 0.522936
v -4.762253 0.010973 0.460863
v -4.762253 0.932699 0.460863
v -4.736541 0.010973 0.398790
v -4.736541 0.932699 0.398790
v -4.674470 0.010973 0.373079
v -4.674470 0.932699 0.373079
v -4.612398 0.010973 0.398790
v -4.612398 0.932699 0.398790
v -4.586686 0.010973 0.460863
v -4.586686 0.932699 0.460863
v -4.612398 0.010973 0.522936
v -4.612398 0.932699 0.522936
v -4.674470 0.000000 0.559619
v -4.674470 0.109729 0.559619
v -4.744300 0.000000 0.530695
v -4.744300 0.109729 0.530695
v -4.773226 0.000000 0.460863
v -4.773226 0.109729 0.460863
v -4.744300 0.000000 0.391031
v -4.744300 0.109729 0.391031
v -4.674470 0.000000 0.362106
v -4.674470 0.109729 0.362106
v -4.604639 0.000000 0.391031
v -4.604639 0.109729 0.391031
v -4.575714 0.000000 0.460863
v -4.575714 0.109729 0.460863
v -4.604639 0.000000 0.530695
v -4.604639 0.109729 0.530695
v -4.389174 0.540966 -0.000000
v -4.754418 0.806033 -0.411312
v -4.249665 0.806033 -0.665523
v -3.937707 0.806035 -0.000000
v -4.249665 0.806033 0.665522
v -4.754418 0.806033 0.411311
v -4.528682 1.234932 -0.665523
v -4.023930 1.234932 -0.411312
v -4.023930 1.234932 0.411311
v -4.528682 1.234932 0.665522
v -4.840640 1.234930 -0.000000
v -4.389174 1.500000 -0.000000
v -4.271656 0.705191 -0.560617
v -4.307174 0.612579 -0.391182
v -4.350001 0.556334 -0.186872
v -4.491730 0.556334 -0.115493
v -4.603858 0.612579 -0.241762
v -4.696846 0.705191 -0.346478
v -4.657673 0.779620 -0.533352
v -4.521858 0.768383 -0.632947
v -4.374213 0.779620 -0.676112
v -4.799403 0.779621 0.230984
v -4.818542 0.768383 -0.000000
v -4.799403 0.779621 -0.230985
v -4.491730 0.556334 0.115492
v -4.603858 0.612579 0.241761
v -4.696846 0.705191 0.346478
v -4.008871 0.705193 -0.000000
v -4.123808 0.612580 -0.000000
v -4.262405 0.556334 -0.000000
v -4.144886 0.779620 -0.560620
v -4.041807 0.768383 -0.391183
v -3.969697 0.779621 -0.186872
v -4.271656 0.705191 0.560617
v -4.307174 0.612579 0.391181
v -4.350001 0.556334 0.186871
v -3.969697 0.779621 0.186872
v -4.041807 0.768383 0.391183
v -4.144886 0.779620 0.560619
v -4.374213 0.779620 0.676111
v -4.521858 0.768383 0.632946
v -4.657673 0.779620 0.533351
v -4.872036 1.140913 -0.115493
v -4.869225 1.020483 -0.241763
v -4.823615 0.900052 -0.346478
v -4.823615 0.900052 0.346478
v -4.869225 1.020483 0.241762
v -4.872036 1.140913 0.115492
v -4.467519 1.140914 -0.747494
v -4.389174 1.020483 -0.782371
v -4.310828 0.900052 -0.747494
v -4.736020 0.900052 -0.533354
v -4.685861 1.020483 -0.632951
v -4.609250 1.140914 -0.676115
v -3.954732 1.140914 -0.346478
v -3.909122 1.020483 -0.241763
v -3.906312 0.900053 -0.115493
v -4.169097 0.900052 -0.676115
v -4.092486 1.020483 -0.632951
v -4.042327 1.140914 -0.533354
v -4.042327 1.140914 0.533353
v -4.092486 1.020483 0.632950
v -4.169097 0.900052 0.676114
v -3.906312 0.900053 0.115492
v -3.909122 1.020483 0.241762
v -3.954732 1.140914 0.346478
v -4.609250 1.140914 0.676114
v -4.685861 1.020483 0.632950
v -4.736020 0.900052 0.533353
v -4.310828 0.900052 0.747493
v -4.389174 1.020483 0.782370
v -4.467519 1.140914 0.747493
v -4.808650 1.261344 -0.186873
v -4.736540 1.272583 -0.391183
v -4.633461 1.261345 -0.560620
v -4.404134 1.261345 -0.676112
v -4.256489 1.272583 -0.632947
v -4.120674 1.261345 -0.533352
v -3.978944 1.261344 -0.230985
v -3.959805 1.272583 -0.000000
v -3.978944 1.261344 0.230984
v -4.120674 1.261345 0.533351
v -4.256489 1.272583 0.632946
v -4.404134 1.261345 0.676111
v -4.633461 1.261345 0.560619
v -4.736540 1.272583 0.391182
v -4.808650 1.261344 0.186871
v -4.428346 1.484631 -0.186872
v -4.471173 1.428386 -0.391182
v -4.506691 1.335775 -0.560618
v -4.769476 1.335773 -0.000000
v -4.654539 1.428385 -0.000000
v -4.515942 1.484631 -0.000000
v -4.286617 1.484631 -0.115493
v -4.174490 1.428386 -0.241762
v -4.081502 1.335775 -0.346478
v -4.286617 1.484631 0.115492
v -4.174490 1.428386 0.241761
v -4.081502 1.335775 0.346478
v -4.428346 1.484631 0.186871
v -4.471173 1.428386 0.391181
v -4.506691 1.335775 0.560617
v -4.571794 1.449378 0.205655
v -4.711305 1.367467 0.205657
v -4.614904 1.367467 0.411313
v -4.319417 1.449378 0.332757
v -4.362528 1.367468 0.538415
v -4.206551 1.367468 0.459860
v -4.163442 1.449378 -0.000000
v -4.050575 1.367467 0.127101
v -4.050575 1.367467 -0.127102
v -4.319417 1.449378 -0.332758
v -4.206551 1.367468 -0.459861
v -4.362528 1.367468 -0.538416
v -4.571794 1.449378 -0.205656
v -4.614904 1.367467 -0.411314
v -4.711305 1.367467 -0.205657
v -4.824173 1.153019 0.332759
v -4.797530 1.020483 0.459863
v -4.727774 1.153021 0.538418
v -4.319417 1.153021 0.744076
v -4.233195 1.020483 0.744078
v -4.163439 1.153021 0.665522
v -3.911063 1.153019 0.127101
v -3.884418 1.020483 -0.000000
v -3.911063 1.153019 -0.127102
v -4.163439 1.153019 -0.665522
v -4.233195 1.020483 -0.744078
v -4.319417 1.153019 -0.744077
v -4.727774 1.153019 -0.538419
v -4.797530 1.020482 -0.459864
v -4.824173 1.153018 -0.332760
v -4.545152 1.020483 0.744078
v -4.614908 0.887945 0.665521
v -4.458930 0.887945 0.744076
v -3.980817 1.020483 0.459863
v -4.050574 0.887945 0.538420
v -3.954174 0.887946 0.332760
v -3.980817 1.020483 -0.459864
v -3.954174 0.887946 -0.332761
v -4.050574 0.887945 -0.538420
v -4.545152 1.020483 -0.744078
v -4.458930 0.887945 -0.744077
v -4.614908 0.887945 -0.665522
v -4.893929 1.020483 -0.000000
v -4.867284 0.887946 -0.127102
v -4.867284 0.887946 0.127101
v -4.571796 0.673499 0.459861
v -4.458929 0.591589 0.332758
v -4.415819 0.673499 0.538416
v -4.163442 0.673499 0.411312
v -4.206552 0.591589 0.205655
v -4.067041 0.673500 0.205655
v -4.067041 0.673500 -0.205657
v -4.206552 0.591589 -0.205657
v -4.163442 0.673499 -0.411314
v -4.727772 0.673499 0.127101
v -4.727772 0.673499 -0.127102
v -4.614905 0.591589 -0.000002
v -4.415819 0.673499 -0.538416
v -4.458930 0.591589 -0.332759
v -4.571796 0.673499 -0.459862
v -4.608632 1.073153 0.329188
v -4.783315 1.153219 0.214966
v -4.541910 1.153219 0.144372
v -4.392713 1.153220 0.329188
v -4.541910 1.153219 0.514004
v -4.783315 1.153219 0.443409
v -4.675353 1.282772 0.144372
v -4.433949 1.282772 0.214966
v -4.433949 1.282772 0.443409
v -4.675353 1.282772 0.514004
v -4.824551 1.282771 0.329188
v -4.608632 1.362838 0.329188
v -4.569415 1.094785 0.220557
v -4.711307 1.094785 0.262051
v -4.672090 1.141847 0.153419
v -4.813983 1.141847 0.329188
v -4.711307 1.094785 0.396324
v -4.481719 1.094785 0.329188
v -4.442500 1.141847 0.220557
v -4.569415 1.094785 0.437819
v -4.442500 1.141847 0.437819
v -4.672090 1.141847 0.504956
v -4.838223 1.217996 0.262051
v -4.838223 1.217996 0.396325
v -4.608632 1.217996 0.111924
v -4.750526 1.217996 0.153418
v -4.379042 1.217996 0.262051
v -4.466738 1.217996 0.153418
v -4.466738 1.217996 0.504957
v -4.379042 1.217996 0.396326
v -4.750526 1.217996 0.504957
v -4.608632 1.217996 0.546452
v -4.774765 1.294145 0.220557
v -4.545175 1.294145 0.153419
v -4.403281 1.294145 0.329188
v -4.545175 1.294145 0.504956
v -4.774765 1.294145 0.437819
v -4.647850 1.341206 0.220557
v -4.735545 1.341206 0.329188
v -4.505958 1.341206 0.262051
v -4.505958 1.341206 0.396324
v -4.647850 1.341206 0.437819
v -4.114850 0.937088 -0.219459
v -4.321293 1.031713 -0.354448
v -4.035997 1.031713 -0.437877
v -3.859674 1.031713 -0.219459
v -4.035997 1.031713 -0.001041
v -4.321293 1.031713 -0.084470
v -4.193703 1.184820 -0.437877
v -3.908408 1.184820 -0.354448
v -3.908408 1.184820 -0.084470
v -4.193703 1.184820 -0.001041
v -4.370027 1.184820 -0.219459
v -4.114850 1.279444 -0.219459
v -4.068503 0.962653 -0.347841
v -4.236193 0.962653 -0.298803
v -4.189846 1.018272 -0.427187
v -4.357537 1.018272 -0.219459
v -4.236193 0.962653 -0.140115
v -3.964861 0.962653 -0.219459
v -3.918512 1.018272 -0.347841
v -4.068503 0.962653 -0.091077
v -3.918512 1.018272 -0.091077
v -4.189846 1.018272 -0.011732
v -4.386184 1.108266 -0.298803
v -4.386184 1.108266 -0.140115
v -4.114850 1.108266 -0.476226
v -4.282543 1.108266 -0.427188
v -3.843517 1.108266 -0.298803
v -3.947157 1.108266 -0.427188
v -3.947157 1.108266 -0.011730
v -3.843517 1.108266 -0.140115
v -4.282543 1.108266 -0.011730
v -4.114850 1.108266 0.037308
v -4.311188 1.198261 -0.347841
v -4.039855 1.198261 -0.427187
v -3.872163 1.198261 -0.219459
v -4.039855 1.198261 -0.011732
v -4.311188 1.198261 -0.091077
v -4.161198 1.253879 -0.347841
v -4.264839 1.253879 -0.219459
v -3.993507 1.253879 -0.298803
v -3.993507 1.253879 -0.140115
v -4.161198 1.253879 -0.091077
v -4.389174 0.801024 0.680322
v -4.595616 0.958730 0.530334
v -4.310321 0.958730 0.437634
v -4.133997 0.958732 0.680322
v -4.310321 0.958730 0.923009
v -4.595616 0.958730 0.830309
v -4.468026 1.213910 0.437634
v -4.182731 1.213910 0.530334
v -4.182731 1.213910 0.830310
v -4.468026 1.213910 0.923009
v -4.644350 1.213909 0.680321
v -4.389174 1.371617 0.680322
v -4.342826 0.843632 0.537674
v -4.510516 0.843632 0.592162
v -4.464169 0.936329 0.449514
v -4.631861 0.936330 0.680321
v -4.510516 0.843632 0.768481
v -4.239184 0.843633 0.680322
v -4.192836 0.936330 0.537674
v -4.342826 0.843632 0.822969
v -4.192836 0.936330 0.822969
v -4.464169 0.936329 0.911129
v -4.660507 1.086321 0.592162
v -4.660507 1.086321 0.768481
v -4.389174 1.086321 0.395025
v -4.556866 1.086321 0.449512
v -4.117840 1.086321 0.592162
v -4.221481 1.086321 0.449512
v -4.221481 1.086321 0.911131
v -4.117840 1.086321 0.768481
v -4.556866 1.086321 0.911131
v -4.389174 1.086321 0.965618
v -4.585511 1.236311 0.537674
v -4.314178 1.236312 0.449514
v -4.146486 1.236311 0.680322
v -4.314178 1.236312 0.911130
v -4.585511 1.236311 0.822968
v -4.435521 1.329009 0.537674
v -4.539163 1.329008 0.680321
v -4.267830 1.329009 0.592162
v -4.267830 1.329009 0.768481
v -4.435521 1.329009 0.822968
v -4.389174 0.840527 0.943672
v -4.528919 0.927871 0.869832
v -4.335797 0.927871 0.824195
v -4.216439 0.927872 0.943672
v -4.335797 0.927871 1.063148
v -4.528919 0.927871 1.017512
v -4.442550 1.069203 0.824195
v -4.249428 1.069203 0.869832
v -4.249428 1.069203 1.017512
v -4.442550 1.069203 1.063148
v -4.561909 1.069202 0.943672
v -4.389174 1.156547 0.943672
v -4.357800 0.864125 0.873446
v -4.471314 0.864125 0.900271
v -4.439940 0.915465 0.830044
v -4.553453 0.915465 0.943672
v -4.471314 0.864125 0.987073
v -4.287643 0.864125 0.943672
v -4.256269 0.915465 0.873445
v -4.357800 0.864125 1.013898
v -4.256269 0.915465 1.013899
v -4.439940 0.915465 1.057300
v -4.572845 0.998537 0.900270
v -4.572845 0.998537 0.987074
v -4.389174 0.998537 0.803218
v -4.502688 0.998537 0.830043
v -4.205502 0.998537 0.900270
v -4.275659 0.998537 0.830043
v -4.275659 0.998537 1.057301
v -4.205502 0.998537 0.987074
v -4.502688 0.998537 1.057301
v -4.389174 0.998537 1.084126
v -4.522079 1.081609 0.873445
v -4.338408 1.081609 0.830044
v -4.224894 1.081609 0.943672
v -4.338408 1.081609 1.057300
v -4.522079 1.081609 1.013899
v -4.420547 1.132949 0.873446
v -4.490704 1.132949 0.943672
v -4.307034 1.132949 0.900271
v -4.307034 1.132949 0.987073
v -4.420547 1.132949 1.013898
v -4.323336 0.965618 1.042428
v -4.347156 0.983816 1.025122
v -4.314237 0.983816 1.014426
v -4.293892 0.983816 1.042428
v -4.314237 0.983816 1.070430
v -4.347156 0.983816 1.059735
v -4.332435 1.013258 1.014426
v -4.299516 1.013258 1.025122
v -4.299516 1.013258 1.059735
v -4.332435 1.013258 1.070430
v -4.352780 1.013258 1.042428
v -4.323336 1.031456 1.042428
v -4.455011 0.965618 1.042428
v -4.478831 0.983816 1.025122
v -4.445912 0.983816 1.014426
v -4.425567 0.983816 1.042428
v -4.445912 0.983816 1.070430
v -4.478831 0.983816 1.059735
v -4.464110 1.013258 1.014426
v -4.431191 1.013258 1.025122
v -4.431191 1.013258 1.059735
v -4.464110 1.013258 1.070430
v -4.484455 1.013258 1.042428
v -4.455011 1.031456 1.042428
v -4.229077 1.324535 0.597986
v -4.063854 1.359846 0.656994
v -4.208557 1.304184 0.564952
v -4.058723 1.354759 0.648736
v -4.193087 1.263483 0.570477
v -4.054855 1.344584 0.650117
v -4.198137 1.243131 0.609036
v -4.056118 1.339496 0.659757
v -4.218657 1.263483 0.642071
v -4.061247 1.344584 0.668015
v -4.234126 1.304184 0.636545
v -4.065115 1.354759 0.666634
v -4.549270 1.324535 0.597986
v -4.714493 1.359846 0.656994
v -4.544221 1.304184 0.636545
v -4.713232 1.354759 0.666634
v -4.559690 1.263483 0.642071
v -4.717100 1.344584 0.668015
v -4.580210 1.243131 0.609036
v -4.722229 1.339496 0.659757
v -4.585260 1.263483 0.570477
v -4.723492 1.344584 0.650117
v -4.569790 1.304184 0.564952
v -4.719623 1.354759 0.648736
v -4.179252 1.113427 0.702267
v -3.984612 1.146998 0.614484
v -4.192374 1.189514 0.665084
v -3.986070 1.155452 0.610353
v -4.195615 1.208307 0.581535
v -3.986431 1.157539 0.601070
v -4.186534 1.155652 0.514535
v -3.985421 1.151690 0.593624
v -4.171968 1.071202 0.514535
v -3.983803 1.142305 0.593624
v -4.162886 1.018547 0.581535
v -3.982794 1.136456 0.601070
v -4.166128 1.037339 0.665084
v -3.983154 1.138543 0.610353
v -4.599095 1.113427 0.702267
v -4.793735 1.146998 0.614484
v -4.612219 1.037339 0.665084
v -4.795193 1.138543 0.610353
v -4.615461 1.018547 0.581535
v -4.795553 1.136456 0.601069
v -4.606380 1.071202 0.514535
v -4.794545 1.142305 0.593624
v -4.591813 1.155652 0.514535
v -4.792926 1.151690 0.593624
v -4.582732 1.208307 0.581535
v -4.791916 1.157539 0.601069
v -4.585973 1.189514 0.665084
v -4.792277 1.155452 0.610353
v -4.257498 1.113753 0.811997
v -4.285288 1.134982 0.791807
v -4.246884 1.134982 0.779328
v -4.223147 1.134982 0.811997
v -4.246884 1.134982 0.844665
v -4.285288 1.134982 0.832187
v -4.268112 1.169333 0.779328
v -4.229708 1.169333 0.791807
v -4.229708 1.169333 0.832187
v -4.268112 1.169333 0.844665
v -4.291849 1.169333 0.811997
v -4.257498 1.190563 0.811997
v -4.520849 1.113753 0.811997
v -4.548639 1.134982 0.791806
v -4.510233 1.134982 0.779328
v -4.486498 1.134982 0.811997
v -4.510233 1.134982 0.844665
v -4.548639 1.134982 0.832187
v -4.531463 1.169333 0.779328
v -4.493059 1.169333 0.791806
v -4.493059 1.169333 0.832187
v -4.531463 1.169333 0.844665
v -4.555200 1.169333 0.811997
v -4.520849 1.190563 0.811997
v -4.389174 1.014838 -0.589399
v -4.389174 0.681575 -0.710886
v -4.427185 1.006688 -0.569024
v -4.417682 0.675462 -0.695604
v -4.427185 0.990386 -0.528270
v -4.417682 0.663236 -0.665040
v -4.389174 0.982236 -0.507895
v -4.389174 0.657123 -0.649758
v -4.351162 0.990386 -0.528270
v -4.360665 0.663236 -0.665040
v -4.351162 1.006688 -0.569024
v -4.360665 0.675462 -0.695604
v -4.389174 0.672269 -0.636528
v -4.389174 0.342351 -0.625531
v -4.351162 0.670808 -0.658425
v -4.360665 0.341256 -0.641953
v -4.351162 0.667890 -0.702220
v -4.360665 0.339066 -0.674800
v -4.389174 0.666429 -0.724116
v -4.389174 0.337971 -0.691223
v -4.427185 0.667890 -0.702220
v -4.417682 0.339066 -0.674800
v -4.427185 0.670808 -0.658425
v -4.417682 0.341256 -0.641953
v -4.389174 0.186540 -0.636431
v -4.436814 0.222934 -0.671043
v -4.370977 0.222934 -0.692434
v -4.330287 0.222934 -0.636431
v -4.370977 0.222934 -0.580427
v -4.436814 0.222934 -0.601819
v -4.407370 0.281821 -0.692434
v -4.341533 0.281821 -0.671042
v -4.341533 0.281821 -0.601819
v -4.407370 0.281821 -0.580427
v -4.448061 0.281821 -0.636431
v -4.389174 0.318215 -0.636431
v -4.389174 0.514631 -0.109730
v -4.492395 0.569828 -0.184723
v -4.349748 0.569828 -0.231073
v -4.261586 0.569828 -0.109730
v -4.349748 0.569828 0.011613
v -4.492395 0.569828 -0.034736
v -4.428600 0.659141 -0.231073
v -4.285952 0.659141 -0.184723
v -4.285952 0.659141 -0.034736
v -4.428600 0.659141 0.011613
v -4.516761 0.659141 -0.109730
v -4.389174 0.714338 -0.109730
v -4.366000 0.529543 -0.181053
v -4.449845 0.529543 -0.153809
v -4.426672 0.561988 -0.225134
v -4.510516 0.561988 -0.109730
v -4.449845 0.529543 -0.065650
v -4.314179 0.529544 -0.109730
v -4.291004 0.561988 -0.181054
v -4.366000 0.529543 -0.038407
v -4.291004 0.561988 -0.038406
v -4.426672 0.561988 0.005675
v -4.524841 0.614484 -0.153810
v -4.524841 0.614484 -0.065649
v -4.389174 0.614484 -0.252378
v -4.473020 0.614484 -0.225134
v -4.253508 0.614484 -0.153810
v -4.305327 0.614484 -0.225134
v -4.305327 0.614484 0.005675
v -4.253508 0.614484 -0.065649
v -4.473020 0.614484 0.005675
v -4.389174 0.614484 0.032918
v -4.487343 0.666981 -0.181054
v -4.351676 0.666981 -0.225134
v -4.267830 0.666981 -0.109730
v -4.351676 0.666981 0.005675
v -4.487343 0.666981 -0.038406
v -4.412347 0.699426 -0.181053
v -4.464168 0.699425 -0.109730
v -4.328502 0.699426 -0.153809
v -4.328502 0.699426 -0.065650
v -4.412347 0.699426 -0.038407
vn -0.000000 -0.630300 0.776400
vn -0.000000 0.630300 0.776400
vn -0.549000 0.630300 0.549000
vn -0.549000 -0.630300 0.549000
vn -0.776400 0.630300 0.000000
vn -0.776400 -0.630300 0.000000
vn -0.549000 0.630300 -0.549000
vn -0.549000 -0.630300 -0.549000
vn -0.000000 0.630300 -0.776400
vn -0.000000 -0.630300 -0.776400
vn 0.549000 0.630300 -0.549000
vn 0.549000 -0.630300 -0.549000
vn 0.776400 0.630300 0.000000
vn 0.776400 -0.630300 0.000000
vn 0.549000 0.630300 0.549000
vn 0.549000 -0.630300 0.549000
vn -0.001300 -1.000000 0.000000
vn -0.202700 -0.974400 -0.097300
vn 0.076700 -0.984600 -0.157000
vn -0.778900 -0.505200 -0.371500
vn -0.624300 -0.722600 -0.296900
vn -0.823600 -0.534200 -0.190500
vn 0.250000 -0.968200 0.000000
vn 0.076700 -0.984600 0.157000
vn -0.202700 -0.974400 0.097300
vn -0.914200 -0.268600 -0.303400
vn 0.353800 -0.600400 -0.717200
vn 0.024800 -0.677900 -0.734800
vn 0.214000 -0.362700 -0.907000
vn 0.886100 -0.463400 0.000000
vn 0.832400 -0.529800 -0.162500
vn 0.961300 -0.256100 -0.101800
vn 0.353800 -0.600400 0.717200
vn 0.571300 -0.614700 0.543800
vn 0.576600 -0.331400 0.746800
vn -0.778900 -0.505200 0.371500
vn -0.602300 -0.605800 0.520000
vn -0.796100 -0.297600 0.527000
vn -0.796100 -0.297600 -0.527000
vn 0.576600 -0.331400 -0.746800
vn 0.961300 -0.256100 0.101800
vn 0.214000 -0.362700 0.907000
vn -0.914200 -0.268600 0.303400
vn -0.353800 0.600400 -0.717200
vn -0.571300 0.614700 -0.543800
vn -0.265500 0.801000 -0.536600
vn 0.778900 0.505200 -0.371500
vn 0.602300 0.605800 -0.520000
vn 0.624300 0.722600 -0.296900
vn 0.778900 0.505200 0.371500
vn 0.823600 0.534200 0.190500
vn 0.624300 0.722600 0.296900
vn -0.353800 0.600400 0.717200
vn -0.024800 0.677900 0.734800
vn -0.265500 0.801000 0.536600
vn -0.886100 0.463400 0.000000
vn -0.832400 0.529800 0.162500
vn -0.729700 0.683700 0.000000
vn -0.250000 0.968200 0.000000
vn -0.076700 0.984600 0.157000
vn 0.001300 1.000000 0.000000
vn -0.507300 0.861800 0.000000
vn -0.361100 0.916500 0.172200
vn -0.627700 0.758600 0.174600
vn -0.167800 0.925200 0.340300
vn -0.473800 0.804100 0.359200
vn -0.731700 0.585400 0.349200
vn -0.571300 0.614700 0.543800
vn 0.202700 0.974400 0.097300
vn 0.142700 0.946900 0.288000
vn 0.066900 0.859000 0.507600
vn 0.421100 0.884500 0.200800
vn 0.382200 0.824200 0.417800
vn 0.324400 0.677600 0.660100
vn 0.602300 0.605800 0.520000
vn 0.202700 0.974400 -0.097300
vn 0.437900 0.899000 0.000000
vn 0.655400 0.748700 0.099500
vn 0.421100 0.884500 -0.200800
vn 0.655400 0.748700 -0.099500
vn 0.839100 0.544100 0.000000
vn 0.823600 0.534200 -0.190500
vn -0.076700 0.984600 -0.157000
vn 0.142700 0.946900 -0.288000
vn 0.382200 0.824200 -0.417800
vn -0.167800 0.925200 -0.340300
vn 0.066900 0.859000 -0.507600
vn 0.324400 0.677600 -0.660100
vn -0.024800 0.677900 -0.734800
vn -0.361100 0.916500 -0.172200
vn -0.473800 0.804100 -0.359200
vn -0.627700 0.758600 -0.174600
vn -0.731700 0.585400 -0.349200
vn -0.832400 0.529800 -0.162500
vn -0.961300 0.256100 0.101800
vn -0.978000 0.000300 0.208700
vn -0.905300 0.300900 0.299800
vn -0.901900 0.010400 0.431700
vn -0.785300 0.330800 0.523300
vn -0.738500 -0.000900 0.674300
vn -0.576600 0.331400 0.746800
vn -0.214000 0.362700 0.907000
vn -0.000000 -0.000000 1.000000
vn 0.205300 0.400300 0.893100
vn 0.437000 0.013100 0.899400
vn 0.569700 0.368700 0.734500
vn 0.738500 0.000900 0.674300
vn 0.796100 0.297600 0.526900
vn 0.914200 0.268600 0.303400
vn 0.978000 -0.000300 0.208700
vn 0.952600 0.286700 0.101900
vn 1.000000 0.009300 0.000000
vn 0.952600 0.286700 -0.101900
vn 0.978000 -0.000300 -0.208700
vn 0.914200 0.268600 -0.303400
vn 0.796100 0.297600 -0.526900
vn 0.738500 0.000900 -0.674300
vn 0.569700 0.368700 -0.734500
vn 0.437000 0.013100 -0.899400
vn 0.205300 0.400300 -0.893100
vn -0.000000 -0.000000 -1.000000
vn -0.214000 0.362700 -0.907000
vn -0.576600 0.331400 -0.746800
vn -0.738500 -0.000900 -0.674300
vn -0.785300 0.330800 -0.523300
vn -0.901900 0.010400 -0.431700
vn -0.905300 0.300900 -0.299800
vn -0.978000 0.000300 -0.208700
vn -0.961300 0.256100 -0.101800
vn -0.437000 -0.013100 0.899400
vn -0.569700 -0.368700 0.734500
vn -0.205300 -0.400300 0.893100
vn -0.324400 -0.677600 0.660100
vn 0.024800 -0.677900 0.734800
vn 0.901900 -0.010400 0.431700
vn 0.785300 -0.330800 0.523300
vn 0.905300 -0.300900 0.299800
vn 0.731700 -0.585400 0.349200
vn 0.832400 -0.529800 0.162500
vn 0.901900 -0.010400 -0.431700
vn 0.905300 -0.300900 -0.299800
vn 0.785300 -0.330800 -0.523300
vn 0.731700 -0.585400 -0.349200
vn 0.571300 -0.614700 -0.543800
vn -0.437000 -0.013100 -0.899400
vn -0.205300 -0.400300 -0.893100
vn -0.569700 -0.368700 -0.734500
vn -0.324400 -0.677600 -0.660100
vn -0.602300 -0.605800 -0.520000
vn -1.000000 -0.009300 0.000000
vn -0.952600 -0.286700 -0.101900
vn -0.952600 -0.286700 0.101900
vn -0.839100 -0.544100 0.000000
vn -0.823600 -0.534200 0.190500
vn -0.624300 -0.722600 0.296900
vn -0.421100 -0.884500 0.200800
vn -0.382200 -0.824200 0.417800
vn -0.142700 -0.946900 0.288000
vn -0.066900 -0.859000 0.507600
vn 0.167800 -0.925200 0.340300
vn 0.265500 -0.801000 0.536600
vn 0.473800 -0.804100 0.359200
vn 0.361100 -0.916500 0.172200
vn 0.627700 -0.758600 0.174600
vn 0.507300 -0.861800 0.000000
vn 0.729700 -0.683700 0.000000
vn 0.627700 -0.758600 -0.174600
vn 0.361100 -0.916500 -0.172200
vn 0.473800 -0.804100 -0.359200
vn 0.167800 -0.925200 -0.340300
vn 0.265500 -0.801000 -0.536600
vn -0.655400 -0.748700 0.099500
vn -0.655400 -0.748700 -0.099500
vn -0.437900 -0.899000 0.000000
vn -0.421100 -0.884500 -0.200800
vn -0.066900 -0.859000 -0.507600
vn -0.142700 -0.946900 -0.288000
vn -0.382200 -0.824200 -0.417800
vn -0.000100 -1.000000 0.000000
vn -0.298600 -0.924200 -0.238000
vn 0.113200 -0.917100 -0.382300
vn -0.638300 -0.580000 -0.506200
vn -0.745800 -0.666100 0.000000
vn 0.370900 -0.928700 0.000000
vn 0.113200 -0.917100 0.382300
vn -0.298600 -0.924200 0.238000
vn -0.943200 -0.001100 -0.332200
vn 0.235600 -0.563400 -0.791900
vn -0.218300 -0.640900 -0.735900
vn 0.806900 -0.590700 0.000000
vn 0.590600 -0.656200 -0.469700
vn 0.943200 0.001100 -0.332200
vn 0.235600 -0.563400 0.791900
vn 0.590600 -0.656200 0.469700
vn 0.555800 -0.001500 0.831300
vn -0.638300 -0.580000 0.506200
vn -0.218300 -0.640900 0.735900
vn -0.555800 0.001500 0.831300
vn -0.555800 0.001500 -0.831300
vn 0.555800 -0.001500 -0.831300
vn 0.943200 0.001100 0.332200
vn -0.943200 -0.001100 0.332200
vn -0.235600 0.563400 -0.791900
vn -0.590600 0.656200 -0.469700
vn -0.113200 0.917100 -0.382300
vn 0.638300 0.580000 -0.506200
vn 0.218300 0.640900 -0.735900
vn 0.298600 0.924200 -0.238000
vn 0.638300 0.580000 0.506200
vn 0.745800 0.666100 0.000000
vn 0.298600 0.924200 0.238000
vn -0.235600 0.563400 0.791900
vn 0.218300 0.640900 0.735900
vn -0.113200 0.917100 0.382300
vn -0.806900 0.590700 0.000000
vn -0.590600 0.656200 0.469700
vn -0.370900 0.928700 0.000000
vn 0.000100 1.000000 0.000000
vn 0.806900 -0.590600 0.000000
vn -0.806900 0.590600 0.000000
vn -0.000000 -1.000000 0.000000
vn -0.425300 -0.850700 -0.309000
vn 0.162500 -0.850700 -0.500000
vn -0.723600 -0.447200 -0.525700
vn -0.850600 -0.525700 0.000000
vn 0.525700 -0.850700 0.000000
vn 0.162500 -0.850700 0.500000
vn -0.425300 -0.850700 0.309000
vn -0.951100 -0.000000 -0.309000
vn 0.276400 -0.447200 -0.850600
vn -0.262900 -0.525700 -0.809000
vn 0.894400 -0.447200 0.000000
vn 0.688200 -0.525700 -0.500000
vn 0.951100 -0.000000 -0.309000
vn 0.276400 -0.447200 0.850600
vn 0.688200 -0.525700 0.500000
vn 0.587800 -0.000000 0.809000
vn -0.723600 -0.447200 0.525700
vn -0.262900 -0.525700 0.809000
vn -0.587800 -0.000000 0.809000
vn -0.587800 -0.000000 -0.809000
vn 0.587800 -0.000000 -0.809000
vn 0.951100 -0.000000 0.309000
vn -0.951100 -0.000000 0.309000
vn -0.276400 0.447200 -0.850600
vn -0.688200 0.525700 -0.500000
vn -0.162500 0.850700 -0.500000
vn 0.723600 0.447200 -0.525700
vn 0.262900 0.525700 -0.809000
vn 0.425300 0.850700 -0.309000
vn 0.723600 0.447200 0.525700
vn 0.850600 0.525700 0.000000
vn 0.425300 0.850700 0.309000
vn -0.276400 0.447200 0.850600
vn 0.262900 0.525700 0.809000
vn -0.162500 0.850700 0.500000
vn -0.894400 0.447200 0.000000
vn -0.688200 0.525700 0.500000
vn -0.525700 0.850700 0.000000
vn -0.000000 1.000000 0.000000
vn -0.001400 -1.000000 0.000000
vn -0.367600 -0.865100 -0.341200
vn 0.135900 -0.832500 -0.537000
vn -0.644300 -0.469700 -0.603600
vn -0.812500 -0.582900 0.000000
vn 0.463400 -0.886100 0.000000
vn 0.135900 -0.832500 0.537000
vn -0.367600 -0.865100 0.341200
vn -0.925600 -0.003000 -0.378400
vn 0.219300 -0.420400 -0.880400
vn -0.208700 -0.498800 -0.841200
vn 0.863300 -0.504800 0.000000
vn 0.609500 -0.547900 -0.572900
vn 0.925600 0.003000 -0.378400
vn 0.219300 -0.420400 0.880400
vn 0.609500 -0.547900 0.572900
vn 0.490800 -0.003200 0.871300
vn -0.644300 -0.469700 0.603600
vn -0.208700 -0.498800 0.841200
vn -0.490800 0.003200 0.871300
vn -0.490800 0.003200 -0.871300
vn 0.490800 -0.003200 -0.871300
vn 0.925600 0.003000 0.378400
vn -0.925600 -0.003000 0.378400
vn -0.219300 0.420400 -0.880400
vn -0.609500 0.547900 -0.572900
vn -0.135900 0.832500 -0.537000
vn 0.644300 0.469700 -0.603600
vn 0.208700 0.498800 -0.841200
vn 0.367600 0.865100 -0.341200
vn 0.644300 0.469700 0.603600
vn 0.812500 0.582900 0.000000
vn 0.367600 0.865100 0.341200
vn -0.219300 0.420400 0.880400
vn 0.208700 0.498800 0.841200
vn -0.135900 0.832500 0.537000
vn -0.863300 0.504800 0.000000
vn -0.609500 0.547900 0.572900
vn -0.463400 0.886100 0.000000
vn 0.001400 1.000000 0.000000
vn 0.276400 -0.447200 -0.850700
vn 0.276400 -0.447200 0.850700
vn -0.276400 0.447200 -0.850700
vn -0.276400 0.447200 0.850700
vn -0.768100 0.578600 -0.274300
vn 0.333700 0.935100 0.119200
vn 0.677100 0.594600 -0.433700
vn -0.374600 0.188300 -0.907900
vn 0.936000 -0.086600 -0.341200
vn -0.077900 -0.592300 -0.801900
vn 0.851500 -0.427200 0.304100
vn -0.174700 -0.982600 -0.062400
vn 0.508100 -0.086600 0.856900
vn -0.568300 -0.592300 0.571200
vn 0.249200 0.594600 0.764500
vn -0.865000 0.188300 0.465200
vn 0.768100 0.578600 -0.274300
vn -0.333700 0.935100 0.119200
vn -0.249200 0.594600 0.764500
vn 0.865000 0.188300 0.465200
vn -0.508100 -0.086600 0.856900
vn 0.568300 -0.592300 0.571200
vn -0.851500 -0.427200 0.304100
vn 0.174700 -0.982600 -0.062400
vn -0.936000 -0.086600 -0.341200
vn 0.077900 -0.592300 -0.801900
vn -0.677100 0.594500 -0.433700
vn 0.374600 0.188300 -0.907900
vn -0.453300 -0.078200 0.887900
vn 0.760100 0.131100 0.636500
vn 0.675500 0.621400 0.396800
vn -0.571300 0.605900 0.553600
vn 0.654600 0.742600 -0.141600
vn -0.600400 0.774900 -0.197600
vn 0.713200 0.403200 -0.573400
vn -0.518800 0.301500 -0.800000
vn 0.807000 -0.141000 -0.573400
vn -0.387800 -0.457800 -0.800000
vn 0.865600 -0.480400 -0.141600
vn -0.306200 -0.931200 -0.197600
vn 0.844700 -0.359300 0.396800
vn -0.335300 -0.762300 0.553600
vn 0.453300 -0.078200 0.887900
vn -0.760100 0.131100 0.636500
vn -0.844700 -0.359300 0.396800
vn 0.335300 -0.762300 0.553600
vn -0.865600 -0.480400 -0.141600
vn 0.306200 -0.931200 -0.197600
vn -0.807000 -0.141000 -0.573400
vn 0.387800 -0.457800 -0.800000
vn -0.713100 0.403200 -0.573400
vn 0.518800 0.301500 -0.800000
vn -0.654600 0.742600 -0.141600
vn 0.600400 0.774900 -0.197600
vn -0.675500 0.621500 0.396800
vn 0.571300 0.605900 0.553600
vn -0.000000 0.853100 -0.521700
vn -0.000000 -0.286200 -0.958200
vn -0.678400 -0.431700 -0.594500
vn -0.693900 0.704300 -0.149700
vn -0.678400 -0.722600 0.132800
vn -0.693900 0.406800 0.594200
vn -0.000000 -0.868100 0.496400
vn -0.000000 0.258000 0.966200
vn 0.678400 -0.722600 0.132800
vn 0.693900 0.406800 0.594200
vn 0.678400 -0.431700 -0.594500
vn 0.693900 0.704300 -0.149700
vn -0.000000 0.649500 0.760400
vn -0.000000 -0.569000 0.822300
vn 0.677800 -0.595000 0.431900
vn 0.694500 0.622800 0.360300
vn 0.677800 -0.647100 -0.349000
vn 0.694400 0.569500 -0.439800
vn -0.000000 -0.673100 -0.739500
vn -0.000000 0.542800 -0.839900
vn -0.677800 -0.647100 -0.349000
vn -0.694400 0.569500 -0.439800
vn -0.677800 -0.595100 0.431900
vn -0.694500 0.622800 0.360300
vn -0.336600 -0.909300 -0.244600
vn 0.128600 -0.909300 -0.395700
vn -0.676600 -0.548300 -0.491600
vn -0.780100 -0.625600 0.000000
vn 0.416100 -0.909300 0.000000
vn 0.128600 -0.909300 0.395700
vn -0.336600 -0.909300 0.244600
vn 0.258400 -0.548300 -0.795400
vn -0.241100 -0.625600 -0.741900
vn 0.836300 -0.548300 0.000000
vn 0.631100 -0.625600 -0.458500
vn 0.258400 -0.548300 0.795400
vn 0.631100 -0.625600 0.458500
vn -0.676600 -0.548300 0.491600
vn -0.241100 -0.625600 0.741900
vn -0.258400 0.548300 -0.795400
vn -0.631100 0.625600 -0.458500
vn -0.128600 0.909300 -0.395700
vn 0.676600 0.548300 -0.491600
vn 0.241100 0.625600 -0.741900
vn 0.336600 0.909300 -0.244500
vn 0.676600 0.548300 0.491600
vn 0.780100 0.625600 0.000000
vn 0.336600 0.909300 0.244500
vn -0.258400 0.548300 0.795400
vn 0.241100 0.625600 0.741900
vn -0.128600 0.909300 0.395700
vn -0.836300 0.548300 0.000000
vn -0.631100 0.625600 0.458500
vn -0.416100 0.909300 0.000000
vt 0.325476 0.762697
vt 0.325476 0.570044
vt 0.339508 0.570027
vt 0.339508 0.762680
vt 0.349898 0.570270
vt 0.349898 0.762924
vt 0.179984 0.434461
vt 0.179984 0.311142
vt 0.193993 0.311942
vt 0.193993 0.435261
vt 0.623218 0.683189
vt 0.623218 0.490557
vt 0.632621 0.490867
vt 0.632621 0.683499
vt 0.646649 0.490889
vt 0.646649 0.683521
vt 0.657085 0.490609
vt 0.657085 0.683241
vt 0.581981 0.430957
vt 0.590672 0.439908
vt 0.590672 0.453743
vt 0.581981 0.464359
vt 0.569689 0.465536
vt 0.560998 0.456586
vt 0.560998 0.442750
vt 0.569689 0.432135
vt 0.825707 0.401521
vt 0.825707 0.213482
vt 0.839748 0.213384
vt 0.839748 0.401424
vt 0.849990 0.215490
vt 0.849990 0.403529
vt 0.797227 0.464841
vt 0.786040 0.465200
vt 0.778130 0.455530
vt 0.778130 0.441494
vt 0.786040 0.431316
vt 0.797227 0.430957
vt 0.805137 0.440628
vt 0.805137 0.454663
vt 0.924216 0.433277
vt 0.947151 0.433277
vt 0.947170 0.449063
vt 0.924236 0.449063
vt 0.946896 0.460752
vt 0.923962 0.460752
vt 0.888144 0.077024
vt 0.902801 0.076187
vt 0.902801 0.091973
vt 0.888144 0.092810
vt 0.803031 0.887127
vt 0.825964 0.887092
vt 0.825631 0.897671
vt 0.802699 0.897706
vt 0.825631 0.913453
vt 0.802699 0.913488
vt 0.825964 0.925193
vt 0.803031 0.925229
vt 0.861699 0.639284
vt 0.871477 0.649354
vt 0.871477 0.664919
vt 0.861699 0.676861
vt 0.847871 0.678186
vt 0.838093 0.668117
vt 0.838093 0.652552
vt 0.847871 0.640609
vt 0.876858 0.433277
vt 0.899243 0.433277
vt 0.899353 0.449072
vt 0.876967 0.449072
vt 0.896984 0.460594
vt 0.874598 0.460594
vt 0.033789 0.913471
vt 0.021203 0.913874
vt 0.012304 0.902995
vt 0.012304 0.887206
vt 0.021203 0.875755
vt 0.033789 0.875351
vt 0.042688 0.886231
vt 0.042688 0.902020
vt 0.740171 0.683227
vt 0.740171 0.490574
vt 0.754203 0.490557
vt 0.754203 0.683210
vt 0.764593 0.490800
vt 0.764593 0.683454
vt 0.699197 0.831448
vt 0.699197 0.708129
vt 0.713206 0.708929
vt 0.713206 0.832249
vt 0.669169 0.406017
vt 0.669169 0.213384
vt 0.678572 0.213695
vt 0.678572 0.406327
vt 0.692600 0.213716
vt 0.692600 0.406348
vt 0.703036 0.213437
vt 0.703036 0.406069
vt 0.690547 0.430957
vt 0.699238 0.439908
vt 0.699238 0.453743
vt 0.690547 0.464359
vt 0.678255 0.465536
vt 0.669564 0.456586
vt 0.669564 0.442750
vt 0.678255 0.432135
vt 0.789202 0.678693
vt 0.789202 0.490654
vt 0.803243 0.490557
vt 0.803243 0.678596
vt 0.813484 0.492662
vt 0.813484 0.680702
vt 0.642315 0.917519
vt 0.631128 0.917878
vt 0.623218 0.908207
vt 0.623218 0.894172
vt 0.631128 0.883994
vt 0.642315 0.883635
vt 0.650225 0.893305
vt 0.650225 0.907340
vt 0.932846 0.369766
vt 0.955781 0.369766
vt 0.955800 0.385552
vt 0.932865 0.385552
vt 0.955526 0.397242
vt 0.932591 0.397242
vt 0.674834 0.947218
vt 0.689491 0.946381
vt 0.689491 0.962166
vt 0.674834 0.963003
vt 0.740503 0.899259
vt 0.763436 0.899223
vt 0.763103 0.909802
vt 0.740171 0.909838
vt 0.763103 0.925584
vt 0.740171 0.925620
vt 0.763436 0.937325
vt 0.740503 0.937360
vt 0.898204 0.306256
vt 0.907982 0.316326
vt 0.907982 0.331891
vt 0.898204 0.343833
vt 0.884376 0.345158
vt 0.874598 0.335088
vt 0.874598 0.319523
vt 0.884376 0.307581
vt 0.570003 0.904859
vt 0.592388 0.904859
vt 0.592497 0.920655
vt 0.570112 0.920655
vt 0.590129 0.932177
vt 0.567743 0.932177
vt 0.088781 0.913470
vt 0.076195 0.913874
vt 0.067296 0.902995
vt 0.067296 0.887206
vt 0.076195 0.875755
vt 0.088781 0.875351
vt 0.097680 0.886231
vt 0.097680 0.902020
vt 0.727645 0.406055
vt 0.727645 0.213402
vt 0.741677 0.213384
vt 0.741677 0.406038
vt 0.752068 0.213628
vt 0.752068 0.406281
vt 0.091914 0.831594
vt 0.091914 0.708275
vt 0.105923 0.709075
vt 0.105923 0.832394
vt 0.681694 0.683189
vt 0.681694 0.490557
vt 0.691097 0.490867
vt 0.691097 0.683499
vt 0.705126 0.490889
vt 0.705126 0.683521
vt 0.715562 0.490609
vt 0.715562 0.683241
vt 0.744830 0.430957
vt 0.753521 0.439908
vt 0.753521 0.453743
vt 0.744830 0.464359
vt 0.732538 0.465536
vt 0.723847 0.456586
vt 0.723847 0.442750
vt 0.732538 0.432135
vt 0.455189 0.805840
vt 0.455189 0.617800
vt 0.469229 0.617703
vt 0.469229 0.805743
vt 0.479471 0.619809
vt 0.479471 0.807848
vt 0.883339 0.916953
vt 0.872152 0.917312
vt 0.864241 0.907642
vt 0.864241 0.893607
vt 0.872152 0.883428
vt 0.883339 0.883069
vt 0.891249 0.892740
vt 0.891249 0.906775
vt 0.931257 0.554067
vt 0.954192 0.554067
vt 0.954211 0.569853
vt 0.931276 0.569853
vt 0.953937 0.581542
vt 0.931002 0.581542
vt 0.802699 0.950674
vt 0.817356 0.949837
vt 0.817356 0.965623
vt 0.802699 0.966460
vt 0.675166 0.883671
vt 0.698099 0.883635
vt 0.697766 0.894214
vt 0.674834 0.894249
vt 0.697766 0.909996
vt 0.674834 0.910032
vt 0.698099 0.921737
vt 0.675166 0.921772
vt 0.900316 0.490557
vt 0.910094 0.500626
vt 0.910094 0.516191
vt 0.900316 0.528134
vt 0.886488 0.529458
vt 0.876711 0.519389
vt 0.876711 0.503824
vt 0.886488 0.491881
vt 0.408557 0.902827
vt 0.430943 0.902827
vt 0.431052 0.918622
vt 0.408666 0.918622
vt 0.428683 0.930144
vt 0.406298 0.930144
vt 0.346960 0.915634
vt 0.334375 0.916038
vt 0.325476 0.905159
vt 0.325476 0.889369
vt 0.334375 0.877919
vt 0.346960 0.877515
vt 0.355859 0.888394
vt 0.355859 0.904184
vt 0.776676 0.406055
vt 0.776676 0.213402
vt 0.790708 0.213384
vt 0.790708 0.406038
vt 0.801099 0.213628
vt 0.801099 0.406281
vt 0.838093 0.613876
vt 0.838093 0.490557
vt 0.852102 0.491357
vt 0.852102 0.614676
vt 0.132620 0.672951
vt 0.132620 0.480319
vt 0.142023 0.480629
vt 0.142023 0.673261
vt 0.156052 0.480651
vt 0.156052 0.673283
vt 0.166488 0.480371
vt 0.166488 0.673004
vt 0.636264 0.430957
vt 0.644955 0.439908
vt 0.644955 0.453743
vt 0.636264 0.464359
vt 0.623972 0.465536
vt 0.615281 0.456586
vt 0.615281 0.442750
vt 0.623972 0.432135
vt 0.406298 0.805840
vt 0.406298 0.617800
vt 0.420338 0.617703
vt 0.420338 0.805743
vt 0.430580 0.619809
vt 0.430580 0.807848
vt 0.534335 0.915295
vt 0.523148 0.915654
vt 0.515238 0.905984
vt 0.515238 0.891949
vt 0.523148 0.881770
vt 0.534335 0.881411
vt 0.542245 0.891082
vt 0.542245 0.905117
vt 0.932846 0.306256
vt 0.955780 0.306256
vt 0.955800 0.322042
vt 0.932865 0.322042
vt 0.955526 0.333731
vt 0.932591 0.333731
vt 0.919247 0.950941
vt 0.933904 0.950104
vt 0.933904 0.965890
vt 0.919247 0.966727
vt 0.461848 0.896903
vt 0.484781 0.896867
vt 0.484448 0.907446
vt 0.461516 0.907482
vt 0.484448 0.923228
vt 0.461516 0.923264
vt 0.484781 0.934969
vt 0.461848 0.935004
vt 0.898204 0.369767
vt 0.907982 0.379836
vt 0.907982 0.395401
vt 0.898204 0.407344
vt 0.884376 0.408668
vt 0.874598 0.398599
vt 0.874598 0.383034
vt 0.884376 0.371091
vt 0.921506 0.898178
vt 0.943892 0.898178
vt 0.944001 0.913974
vt 0.921615 0.913974
vt 0.941632 0.925496
vt 0.919247 0.925496
vt 0.240818 0.918105
vt 0.228233 0.918509
vt 0.219334 0.907630
vt 0.219334 0.891840
vt 0.228233 0.880390
vt 0.240818 0.879986
vt 0.249717 0.890865
vt 0.249717 0.906654
vt 0.161398 0.156776
vt 0.137171 0.141840
vt 0.155933 0.117261
vt 0.048656 0.100509
vt 0.073857 0.110241
vt 0.054246 0.139352
vt 0.179575 0.146981
vt 0.175424 0.189927
vt 0.149217 0.186749
vt 0.029231 0.116965
vt 0.028097 0.387644
vt 0.012304 0.368243
vt 0.036734 0.361997
vt 0.312745 0.186642
vt 0.315803 0.220920
vt 0.289616 0.206914
vt 0.345737 0.036562
vt 0.342522 0.065545
vt 0.322469 0.036552
vt 0.536389 0.368430
vt 0.523571 0.395131
vt 0.511610 0.368310
vt 0.033381 0.074018
vt 0.051833 0.391533
vt 0.294678 0.162976
vt 0.332396 0.012304
vt 0.531544 0.341740
vt 0.477901 0.262520
vt 0.467210 0.234805
vt 0.497366 0.239821
vt 0.138431 0.404840
vt 0.129678 0.376482
vt 0.155375 0.390540
vt 0.231634 0.455190
vt 0.235991 0.416668
vt 0.254986 0.443051
vt 0.307673 0.544167
vt 0.287394 0.534581
vt 0.319039 0.518003
vt 0.445253 0.112376
vt 0.458835 0.076320
vt 0.469864 0.113345
vt 0.365475 0.407360
vt 0.339628 0.434880
vt 0.344335 0.396151
vt 0.500474 0.117107
vt 0.522049 0.080434
vt 0.530175 0.123378
vt 0.488862 0.074913
vt 0.549302 0.091370
vt 0.360831 0.451914
vt 0.330750 0.479114
vt 0.509912 0.039687
vt 0.540513 0.050105
vt 0.349502 0.497653
vt 0.477388 0.039603
vt 0.497089 0.012304
vt 0.527245 0.017321
vt 0.437609 0.342091
vt 0.424877 0.368847
vt 0.411226 0.352680
vt 0.318277 0.409896
vt 0.308888 0.454705
vt 0.297559 0.500445
vt 0.286056 0.426815
vt 0.274062 0.472949
vt 0.264506 0.513817
vt 0.244691 0.484613
vt 0.330928 0.366936
vt 0.299314 0.379931
vt 0.264487 0.398175
vt 0.312538 0.336885
vt 0.278409 0.350896
vt 0.292938 0.314169
vt 0.246294 0.371587
vt 0.261293 0.330747
vt 0.276688 0.302191
vt 0.360097 0.365368
vt 0.345338 0.330927
vt 0.324434 0.301891
vt 0.548461 0.201901
vt 0.519664 0.205358
vt 0.539342 0.165536
vt 0.356536 0.300166
vt 0.525363 0.242777
vt 0.303114 0.286218
vt 0.115870 0.344691
vt 0.145641 0.357559
vt 0.552648 0.236226
vt 0.527627 0.270649
vt 0.501170 0.271012
vt 0.552648 0.130242
vt 0.511088 0.162055
vt 0.487990 0.202931
vt 0.477901 0.156535
vt 0.456539 0.194857
vt 0.448875 0.150487
vt 0.431030 0.090580
vt 0.419183 0.069454
vt 0.446125 0.049860
vt 0.501930 0.338993
vt 0.521884 0.312718
vt 0.489408 0.309881
vt 0.467470 0.339122
vt 0.456339 0.312963
vt 0.480156 0.368338
vt 0.448987 0.368545
vt 0.429635 0.395482
vt 0.406298 0.385677
vt 0.439648 0.424726
vt 0.411715 0.416734
vt 0.453556 0.449122
vt 0.424878 0.446250
vt 0.258324 0.545418
vt 0.230418 0.544652
vt 0.234827 0.517923
vt 0.303729 0.013598
vt 0.292991 0.045329
vt 0.271465 0.028068
vt 0.263837 0.062850
vt 0.219334 0.483917
vt 0.254573 0.104991
vt 0.229458 0.119936
vt 0.241331 0.083389
vt 0.273599 0.133545
vt 0.244775 0.149485
vt 0.266843 0.181392
vt 0.219334 0.396934
vt 0.239204 0.197840
vt 0.221026 0.164829
vt 0.233257 0.349655
vt 0.263002 0.225520
vt 0.239386 0.236804
vt 0.219334 0.207811
vt 0.129678 0.430518
vt 0.155375 0.423936
vt 0.113795 0.401190
vt 0.082623 0.396412
vt 0.099881 0.369279
vt 0.065785 0.363966
vt 0.083264 0.336774
vt 0.099481 0.317410
vt 0.051017 0.334584
vt 0.068499 0.312581
vt 0.473365 0.285272
vt 0.452376 0.262895
vt 0.425487 0.253659
vt 0.438478 0.228324
vt 0.012304 0.091191
vt 0.020993 0.049107
vt 0.412065 0.212840
vt 0.428389 0.181927
vt 0.012304 0.139009
vt 0.406298 0.165406
vt 0.424874 0.136417
vt 0.458695 0.397879
vt 0.493155 0.397751
vt 0.471858 0.427396
vt 0.505193 0.424481
vt 0.484868 0.449005
vt 0.467472 0.464363
vt 0.282609 0.086661
vt 0.314872 0.072190
vt 0.304677 0.118567
vt 0.334967 0.106021
vt 0.323994 0.149828
vt 0.262453 0.261609
vt 0.290092 0.245161
vt 0.099881 0.428747
vt 0.083264 0.455710
vt 0.065785 0.423434
vt 0.317821 0.254840
vt 0.051017 0.447699
vt 0.036734 0.416033
vt 0.039762 0.311142
vt 0.022283 0.338334
vt 0.445252 0.283864
vt 0.067874 0.012304
vt 0.047225 0.039354
vt 0.037520 0.016878
vt 0.098486 0.020705
vt 0.078728 0.040409
vt 0.060962 0.069863
vt 0.408751 0.115998
vt 0.035266 0.163092
vt 0.020993 0.187879
vt 0.048523 0.212516
vt 0.037520 0.233019
vt 0.065369 0.251695
vt 0.064670 0.185871
vt 0.078338 0.229171
vt 0.091556 0.260450
vt 0.109995 0.244971
vt 0.116591 0.277259
vt 0.130938 0.218943
vt 0.139734 0.258037
vt 0.161316 0.226000
vt 0.536389 0.416268
vt 0.168575 0.261535
vt 0.144745 0.286534
vt 0.515092 0.445913
vt 0.185797 0.225595
vt 0.188616 0.254504
vt 0.492842 0.465948
vt 0.364841 0.059216
vt 0.358583 0.026311
vt 0.381689 0.092771
vt 0.361503 0.097132
vt 0.194725 0.182234
vt 0.375872 0.136543
vt 0.351308 0.143509
vt 0.381689 0.172980
vt 0.362297 0.180985
vt 0.337050 0.185639
vt 0.342294 0.221748
vt 0.173275 0.102263
vt 0.194486 0.135695
vt 0.366857 0.214782
vt 0.343475 0.253610
vt 0.022283 0.434555
vt 0.144996 0.073482
vt 0.159084 0.057826
vt 0.130143 0.036505
vt 0.012305 0.401639
vt 0.097636 0.205116
vt 0.084379 0.155692
vt 0.119218 0.173079
vt 0.105722 0.124933
vt 0.112418 0.052169
vt 0.126609 0.096606
vt 0.091770 0.079218
vt 0.233204 0.730668
vt 0.256383 0.729638
vt 0.242232 0.753437
vt 0.278036 0.727970
vt 0.268583 0.705023
vt 0.219334 0.745117
vt 0.219334 0.716176
vt 0.242231 0.706609
vt 0.288323 0.712024
vt 0.832205 0.751277
vt 0.833844 0.775059
vt 0.818451 0.766595
vt 0.794739 0.028308
vt 0.787334 0.012304
vt 0.806410 0.013622
vt 0.794846 0.076444
vt 0.793872 0.053388
vt 0.810514 0.067307
vt 0.571490 0.748382
vt 0.554563 0.768931
vt 0.553485 0.747066
vt 0.288324 0.740966
vt 0.819032 0.736086
vt 0.810451 0.039013
vt 0.535222 0.785582
vt 0.516316 0.785811
vt 0.532167 0.768931
vt 0.572128 0.728566
vt 0.173692 0.711719
vt 0.176974 0.736163
vt 0.154749 0.720376
vt 0.719389 0.012304
vt 0.743210 0.017731
vt 0.730314 0.028779
vt 0.693458 0.048212
vt 0.703307 0.025895
vt 0.715073 0.049885
vt 0.719389 0.092425
vt 0.703307 0.072988
vt 0.730315 0.075873
vt 0.173692 0.760927
vt 0.154845 0.773615
vt 0.154750 0.749300
vt 0.754976 0.070828
vt 0.739406 0.053120
vt 0.132620 0.757828
vt 0.743211 0.093931
vt 0.754976 0.041722
vt 0.132620 0.711029
vt 0.154845 0.697892
vt 0.135881 0.734068
vt 0.177129 0.775506
vt 0.549731 0.728566
vt 0.533387 0.748382
vt 0.515238 0.763945
vt 0.684270 0.063276
vt 0.684270 0.034170
vt 0.823052 0.027541
vt 0.819032 0.709759
vt 0.805405 0.724165
vt 0.802699 0.708062
vt 0.802699 0.750659
vt 0.804417 0.776070
vt 0.190806 0.723436
vt 0.190806 0.752360
vt 0.823052 0.051988
vt 0.834784 0.725695
vt 0.817511 0.789633
vt 0.268583 0.751852
vt 0.274172 0.688995
vt 0.253960 0.688791
vt 0.231534 0.691561
vt 0.552554 0.785811
vt 0.779648 0.065174
vt 0.779585 0.036881
vt 0.231534 0.767331
vt 0.253960 0.768461
vt 0.235726 0.619518
vt 0.263119 0.618301
vt 0.246395 0.646427
vt 0.288709 0.616330
vt 0.277537 0.589210
vt 0.219334 0.636595
vt 0.219334 0.602391
vt 0.246395 0.591085
vt 0.300867 0.597484
vt 0.775041 0.759134
vt 0.776979 0.787241
vt 0.758787 0.777237
vt 0.641127 0.727043
vt 0.632375 0.708130
vt 0.654920 0.709687
vt 0.641253 0.783930
vt 0.640102 0.756683
vt 0.659770 0.773132
vt 0.750750 0.141958
vt 0.730745 0.166244
vt 0.729471 0.140403
vt 0.300867 0.631688
vt 0.759474 0.741181
vt 0.659696 0.739695
vt 0.707887 0.185922
vt 0.685544 0.186193
vt 0.704276 0.166244
vt 0.751503 0.118540
vt 0.563777 0.628572
vt 0.567656 0.657461
vt 0.541390 0.638803
vt 0.602502 0.309881
vt 0.630655 0.316295
vt 0.615414 0.329351
vt 0.571857 0.352317
vt 0.583496 0.325942
vt 0.597402 0.354295
vt 0.602502 0.404569
vt 0.583497 0.381598
vt 0.615414 0.385007
vt 0.563778 0.686727
vt 0.541504 0.701722
vt 0.541391 0.672986
vt 0.644560 0.379045
vt 0.626158 0.358117
vt 0.515238 0.683064
vt 0.630655 0.406348
vt 0.644559 0.344647
vt 0.515238 0.627756
vt 0.541503 0.612231
vt 0.519092 0.654985
vt 0.567839 0.703957
vt 0.725035 0.118540
vt 0.705719 0.141958
vt 0.684270 0.160351
vt 0.560998 0.370120
vt 0.560998 0.335722
vt 0.674588 0.726136
vt 0.759474 0.710068
vt 0.743369 0.727093
vt 0.740171 0.708062
vt 0.740171 0.758404
vt 0.742201 0.788435
vt 0.584002 0.642419
vt 0.584002 0.676602
vt 0.674588 0.755028
vt 0.778090 0.728901
vt 0.757676 0.804464
vt 0.277538 0.644553
vt 0.284142 0.570268
vt 0.260256 0.570027
vt 0.233752 0.573300
vt 0.728371 0.186193
vt 0.623292 0.770612
vt 0.623218 0.737174
vt 0.233752 0.662847
vt 0.260256 0.664182
vt 0.431698 0.571761
vt 0.449409 0.546993
vt 0.463577 0.577071
vt 0.466525 0.519905
vt 0.434479 0.513948
vt 0.436933 0.593095
vt 0.406298 0.572920
vt 0.414009 0.544428
vt 0.459891 0.493122
vt 0.065987 0.558233
vt 0.044468 0.576588
vt 0.036018 0.545517
vt 0.032101 0.629753
vt 0.012304 0.615911
vt 0.044035 0.601196
vt 0.061656 0.683666
vt 0.045161 0.659553
vt 0.081714 0.659857
vt 0.630360 0.093406
vt 0.600647 0.080513
vt 0.632123 0.062820
vt 0.490527 0.513296
vt 0.067121 0.526315
vt 0.064342 0.628168
vt 0.577257 0.060970
vt 0.577681 0.030227
vt 0.600909 0.043755
vt 0.659399 0.080140
vt 0.597251 0.537765
vt 0.572343 0.555304
vt 0.572343 0.518563
vt 0.065219 0.495674
vt 0.035567 0.508745
vt 0.043285 0.480319
vt 0.582651 0.191535
vt 0.577257 0.159792
vt 0.608027 0.173571
vt 0.638153 0.217610
vt 0.609967 0.209305
vt 0.640650 0.188898
vt 0.543073 0.568700
vt 0.515238 0.556719
vt 0.540498 0.536746
vt 0.515238 0.519977
vt 0.543073 0.506192
vt 0.659661 0.043382
vt 0.630806 0.030870
vt 0.645467 0.012304
vt 0.634851 0.156817
vt 0.607939 0.139386
vt 0.582502 0.133375
vt 0.566764 0.490557
vt 0.598609 0.509115
vt 0.531471 0.587622
vt 0.609156 0.012534
vt 0.580397 0.217610
vt 0.080588 0.601501
vt 0.094288 0.630271
vt 0.094341 0.508746
vt 0.079609 0.480319
vt 0.012304 0.528343
vt 0.598609 0.568565
vt 0.566764 0.586748
vt 0.094792 0.545518
vt 0.012914 0.559018
vt 0.484048 0.546590
vt 0.424491 0.490557
vt 0.406298 0.515541
vt 0.608470 0.108766
vt 0.577257 0.089701
vt 0.030372 0.683666
vt 0.013001 0.651977
vt 0.108011 0.559019
vt 0.080792 0.576588
vt 0.490629 0.571075
vt 0.343772 0.838596
vt 0.349425 0.821039
vt 0.360182 0.839753
vt 0.355081 0.802992
vt 0.338672 0.801699
vt 0.349428 0.852906
vt 0.332025 0.842321
vt 0.332024 0.822626
vt 0.349429 0.787533
vt 0.811367 0.160226
vt 0.806175 0.178779
vt 0.793128 0.165636
vt 0.823742 0.129335
vt 0.821124 0.143222
vt 0.809641 0.125504
vt 0.558726 0.841385
vt 0.542563 0.842861
vt 0.551073 0.825144
vt 0.059350 0.733630
vt 0.051785 0.752727
vt 0.042192 0.733875
vt 0.366832 0.798118
vt 0.802367 0.143661
vt 0.525575 0.841385
vt 0.515238 0.828136
vt 0.531587 0.825144
vt 0.039928 0.769281
vt 0.021897 0.771731
vt 0.030776 0.754831
vt 0.051785 0.716868
vt 0.260136 0.823053
vt 0.247421 0.835496
vt 0.247421 0.812027
vt 0.791831 0.130082
vt 0.781645 0.147918
vt 0.776112 0.132392
vt 0.041553 0.842519
vt 0.027390 0.850743
vt 0.028425 0.829632
vt 0.044596 0.802431
vt 0.045300 0.822346
vt 0.030214 0.806069
vt 0.232956 0.844457
vt 0.219334 0.836895
vt 0.231445 0.824608
vt 0.015199 0.796339
vt 0.015887 0.814827
vt 0.219334 0.813426
vt 0.030776 0.718972
vt 0.023608 0.737208
vt 0.012304 0.730717
vt 0.012304 0.834465
vt 0.014126 0.850743
vt 0.245184 0.793069
vt 0.232957 0.804529
vt 0.261160 0.803957
vt 0.039928 0.708275
vt 0.012304 0.752879
vt 0.054694 0.838954
vt 0.523748 0.810420
vt 0.540052 0.811243
vt 0.793414 0.118540
vt 0.776112 0.167468
vt 0.261160 0.841932
vt 0.245183 0.854513
vt 0.785452 0.183036
vt 0.366829 0.818826
vt 0.227825 0.855377
vt 0.332027 0.789120
vt 0.067305 0.725210
vt 0.067305 0.747372
vt 0.055889 0.768327
vt 0.552483 0.856802
vt 0.532998 0.856802
vt 0.516109 0.847702
vt 0.366832 0.850693
vt 0.823477 0.164926
vt 0.325476 0.805692
vt 0.374507 0.651400
vt 0.380633 0.647601
vt 0.380736 0.654127
vt 0.374507 0.644282
vt 0.863458 0.788905
vt 0.864156 0.785262
vt 0.870036 0.787686
vt 0.374507 0.581710
vt 0.374516 0.576157
vt 0.380669 0.579686
vt 0.971779 0.439465
vt 0.975638 0.435195
vt 0.975763 0.442374
vt 0.380736 0.642610
vt 0.859393 0.783047
vt 0.863458 0.778207
vt 0.870036 0.781074
vt 0.380669 0.572466
vt 0.981882 0.438550
vt 0.740854 0.973656
vt 0.740171 0.967921
vt 0.746602 0.971155
vt 0.374507 0.570027
vt 0.981680 0.433277
vt 0.981882 0.444892
vt 0.746180 0.963932
vt 0.750577 0.967202
vt 0.380625 0.756378
vt 0.374507 0.759136
vt 0.374507 0.752518
vt 0.380753 0.749304
vt 0.740171 0.961969
vt 0.374507 0.687526
vt 0.380633 0.683728
vt 0.380736 0.690253
vt 0.374507 0.680408
vt 0.977516 0.680938
vt 0.978214 0.677295
vt 0.984094 0.679719
vt 0.374507 0.618001
vt 0.374516 0.612448
vt 0.380669 0.615978
vt 0.972194 0.182411
vt 0.976053 0.178141
vt 0.976178 0.185320
vt 0.380736 0.678736
vt 0.973451 0.675080
vt 0.977516 0.670240
vt 0.984094 0.673107
vt 0.380669 0.608757
vt 0.982297 0.181496
vt 0.969293 0.909865
vt 0.968610 0.904130
vt 0.975041 0.907364
vt 0.374507 0.606318
vt 0.982095 0.176223
vt 0.982297 0.187838
vt 0.974619 0.900141
vt 0.979016 0.903411
vt 0.380625 0.721937
vt 0.374507 0.724695
vt 0.374507 0.718077
vt 0.380753 0.714862
vt 0.968610 0.898178
vt 0.091909 0.970944
vt 0.097904 0.938483
vt 0.099903 0.939116
vt 0.099903 0.973473
vt 0.952632 0.851444
vt 0.956095 0.814241
vt 0.958389 0.814241
vt 0.961809 0.851444
vt 0.939691 0.035904
vt 0.950359 0.014362
vt 0.951916 0.015842
vt 0.945916 0.041822
vt 0.954138 0.015553
vt 0.954803 0.040666
vt 0.951025 0.012593
vt 0.953247 0.012304
vt 0.954803 0.013784
vt 0.177435 0.972208
vt 0.180994 0.936201
vt 0.183288 0.936201
vt 0.186611 0.972208
vt 0.524359 0.940263
vt 0.523508 0.969314
vt 0.521228 0.969314
vt 0.515238 0.940263
vt 0.623218 0.947742
vt 0.630148 0.942486
vt 0.637079 0.946234
vt 0.637079 0.955237
vt 0.630148 0.960492
vt 0.623218 0.956745
vt 0.948348 0.745314
vt 0.951765 0.708062
vt 0.954058 0.708062
vt 0.957521 0.745314
vt 0.935169 0.150897
vt 0.935169 0.119568
vt 0.937359 0.119747
vt 0.943928 0.151614
vt 0.938984 0.118540
vt 0.950431 0.146782
vt 0.953366 0.250555
vt 0.956622 0.213384
vt 0.958910 0.213384
vt 0.962521 0.250555
vt 0.058199 0.970328
vt 0.059143 0.968923
vt 0.061419 0.968902
vt 0.062750 0.970285
vt 0.061806 0.971690
vt 0.059530 0.971711
vt 0.864241 0.968880
vt 0.864241 0.942922
vt 0.866193 0.941921
vt 0.872049 0.964875
vt 0.067301 0.938483
vt 0.058199 0.938569
vt 0.964350 0.950104
vt 0.970188 0.955007
vt 0.970188 0.964168
vt 0.964350 0.968426
vt 0.958512 0.963523
vt 0.958512 0.954362
vt 0.894638 0.814241
vt 0.894638 0.857488
vt 0.892976 0.857523
vt 0.879681 0.814551
vt 0.891261 0.858461
vt 0.864242 0.822991
vt 0.740171 0.856980
vt 0.772485 0.829072
vt 0.773264 0.830181
vt 0.747184 0.866954
vt 0.775061 0.831032
vt 0.763362 0.874615
vt 0.776524 0.830985
vt 0.776524 0.874194
vt 0.490482 0.835007
vt 0.489293 0.836248
vt 0.487331 0.836108
vt 0.486074 0.834693
vt 0.486468 0.833068
vt 0.488217 0.832457
vt 0.490003 0.833320
vt 0.461516 0.858264
vt 0.472829 0.871001
vt 0.490482 0.872258
vt 0.893479 0.050485
vt 0.888144 0.035982
vt 0.893479 0.018990
vt 0.905468 0.012304
vt 0.915082 0.020960
vt 0.915082 0.038438
vt 0.905468 0.051578
vt 0.874351 0.709686
vt 0.888244 0.752685
vt 0.886582 0.753598
vt 0.859393 0.717905
vt 0.406298 0.878218
vt 0.406298 0.833572
vt 0.408054 0.833360
vt 0.422107 0.876310
vt 0.409699 0.832457
vt 0.436907 0.868188
vt 0.934703 0.521056
vt 0.945940 0.490557
vt 0.947920 0.490557
vt 0.952527 0.521056
vt 0.294933 0.888817
vt 0.290362 0.929736
vt 0.288406 0.929736
vt 0.277329 0.888817
vt 0.288808 0.932816
vt 0.287160 0.932206
vt 0.286981 0.930835
vt 0.291376 0.930835
vt 0.290685 0.932206
vt 0.832311 0.465453
vt 0.844115 0.428138
vt 0.846079 0.428138
vt 0.849990 0.465453
vt 0.889981 0.708062
vt 0.889981 0.752505
vt 0.614124 0.269393
vt 0.600966 0.281377
vt 0.584559 0.278893
vt 0.577257 0.263813
vt 0.584559 0.247491
vt 0.600966 0.242219
vt 0.614124 0.251966
vt 0.978820 0.564322
vt 0.985966 0.559891
vt 0.986087 0.567504
vt 0.978820 0.556017
vt 0.948842 0.679451
vt 0.944812 0.677876
vt 0.948842 0.671646
vt 0.976624 0.080060
vt 0.976634 0.073582
vt 0.983813 0.077700
vt 0.277329 0.964644
vt 0.281831 0.959663
vt 0.281977 0.968038
vt 0.986087 0.554067
vt 0.941258 0.682869
vt 0.936570 0.677176
vt 0.941258 0.670240
vt 0.983813 0.069276
vt 0.289116 0.963576
vt 0.568540 0.970420
vt 0.567743 0.963729
vt 0.575246 0.967502
vt 0.976624 0.066431
vt 0.288880 0.957425
vt 0.289116 0.970976
vt 0.574754 0.959075
vt 0.579883 0.962890
vt 0.987546 0.314510
vt 0.980408 0.317728
vt 0.980408 0.310006
vt 0.987696 0.306256
vt 0.567743 0.956785
vt 0.977135 0.500812
vt 0.984282 0.496381
vt 0.984403 0.503994
vt 0.977135 0.492507
vt 0.939911 0.188704
vt 0.940726 0.184454
vt 0.947585 0.187281
vt 0.975039 0.132169
vt 0.975050 0.125691
vt 0.982229 0.129809
vt 0.461516 0.966832
vt 0.466018 0.961851
vt 0.466164 0.970226
vt 0.984403 0.490557
vt 0.935169 0.181869
vt 0.939912 0.176223
vt 0.947585 0.179567
vt 0.982229 0.121385
vt 0.473303 0.965765
vt 0.407095 0.968388
vt 0.406298 0.961697
vt 0.413801 0.965470
vt 0.975039 0.118540
vt 0.473067 0.959613
vt 0.473303 0.973164
vt 0.413308 0.957043
vt 0.418438 0.960858
vt 0.986549 0.020558
vt 0.979412 0.023776
vt 0.979412 0.016055
vt 0.986699 0.012304
vt 0.406298 0.954753
vt 0.928024 0.814241
vt 0.928024 0.872235
vt 0.921441 0.873569
vt 0.919247 0.816021
vt 0.924173 0.213441
vt 0.925494 0.255346
vt 0.918618 0.255304
vt 0.915005 0.213384
vt 0.592497 0.810420
vt 0.590207 0.880225
vt 0.583335 0.880251
vt 0.583335 0.810454
vt 0.863535 0.012553
vt 0.861698 0.086636
vt 0.855921 0.086449
vt 0.855832 0.012304
vt 0.928757 0.260373
vt 0.925144 0.265357
vt 0.918268 0.265315
vt 0.915005 0.260288
vt 0.849792 0.086636
vt 0.847661 0.012553
vt 0.294933 0.793069
vt 0.294876 0.864208
vt 0.288002 0.864208
vt 0.285768 0.793069
vt 0.370010 0.940647
vt 0.377477 0.945308
vt 0.377477 0.954482
vt 0.370010 0.958994
vt 0.362543 0.954332
vt 0.362543 0.945159
vt 0.890397 0.214517
vt 0.890174 0.281648
vt 0.884617 0.280798
vt 0.882987 0.213385
vt 0.878325 0.281648
vt 0.874598 0.214517
vt 0.923739 0.708062
vt 0.921968 0.776585
vt 0.915105 0.776585
vt 0.914590 0.708062
vt 0.911961 0.625431
vt 0.911669 0.669901
vt 0.905569 0.667521
vt 0.903828 0.622257
vt 0.906154 0.678186
vt 0.900054 0.675806
vt 0.899762 0.670473
vt 0.911961 0.675234
vt 0.896085 0.626194
vt 0.910560 0.118540
vt 0.909741 0.187435
vt 0.902881 0.187435
vt 0.901414 0.118540
vt 0.232650 0.947339
vt 0.232650 0.956486
vt 0.225992 0.961411
vt 0.219334 0.957190
vt 0.219334 0.948043
vt 0.225992 0.943118
vt 0.325476 0.958227
vt 0.337727 0.950630
vt 0.337934 0.963682
vt 0.325476 0.943990
vt 0.020435 0.959879
vt 0.021831 0.952593
vt 0.033590 0.957441
vt 0.939691 0.089796
vt 0.939708 0.078690
vt 0.952015 0.085749
vt 0.132620 0.948577
vt 0.140338 0.940039
vt 0.140588 0.954396
vt 0.337934 0.940647
vt 0.012304 0.948163
vt 0.020435 0.938483
vt 0.033590 0.944217
vt 0.952015 0.071309
vt 0.152826 0.946747
vt 0.937936 0.645631
vt 0.936570 0.634161
vt 0.949433 0.640629
vt 0.939691 0.066431
vt 0.152421 0.936202
vt 0.152826 0.959432
vt 0.948588 0.626183
vt 0.957382 0.632723
vt 0.960583 0.784072
vt 0.948348 0.789589
vt 0.948348 0.776352
vt 0.960841 0.769923
vt 0.936570 0.622257
vt 0.631489 0.834210
vt 0.645900 0.834902
vt 0.637236 0.849090
vt 0.659751 0.834889
vt 0.653848 0.819813
vt 0.623218 0.842370
vt 0.623218 0.824029
vt 0.637236 0.819414
vt 0.666708 0.825074
vt 0.868688 0.145248
vt 0.869861 0.159253
vt 0.859219 0.154454
vt 0.886837 0.564858
vt 0.882016 0.554067
vt 0.894898 0.555269
vt 0.887270 0.595596
vt 0.886313 0.581041
vt 0.897808 0.590006
vt 0.167646 0.887983
vt 0.158371 0.901155
vt 0.155720 0.887277
vt 0.666708 0.843415
vt 0.859586 0.136181
vt 0.897554 0.571939
vt 0.147384 0.911593
vt 0.135272 0.911536
vt 0.143810 0.901155
vt 0.166453 0.875203
vt 0.828463 0.821878
vt 0.830350 0.837098
vt 0.816242 0.828219
vt 0.154716 0.800115
vt 0.169467 0.802022
vt 0.161868 0.809951
vt 0.138748 0.824419
vt 0.144896 0.809752
vt 0.152482 0.824237
vt 0.154716 0.850594
vt 0.144895 0.839423
vt 0.161867 0.839622
vt 0.828463 0.853072
vt 0.816806 0.862244
vt 0.816243 0.846555
vt 0.177054 0.834845
vt 0.167623 0.824758
vt 0.802699 0.853365
vt 0.169467 0.850031
vt 0.177054 0.816507
vt 0.802699 0.823699
vt 0.816806 0.814241
vt 0.804462 0.837968
vt 0.831262 0.862483
vt 0.151891 0.875203
vt 0.142872 0.887983
vt 0.132620 0.897658
vt 0.132620 0.834324
vt 0.132620 0.815986
vt 0.906393 0.564234
vt 0.859586 0.119983
vt 0.850197 0.128737
vt 0.848351 0.118540
vt 0.848351 0.144749
vt 0.849574 0.159824
vt 0.839633 0.828607
vt 0.839633 0.846942
vt 0.906393 0.580112
vt 0.870454 0.129688
vt 0.858626 0.167821
vt 0.653848 0.849489
vt 0.658044 0.809586
vt 0.645011 0.808539
vt 0.631166 0.808940
vt 0.158833 0.911535
vt 0.876965 0.588062
vt 0.876711 0.569995
vt 0.631165 0.856956
vt 0.876805 0.143947
vt 0.645011 0.859026
s 1
usemtl mob_sapi_mat.005
f 1/1/1 2/2/2 4/3/3 3/4/4
f 3/4/4 4/3/3 6/5/5 5/6/6
f 5/7/6 6/8/5 8/9/7 7/10/8
f 7/11/8 8/12/7 10/13/9 9/14/10
f 9/14/10 10/13/9 12/15/11 11/16/12
f 11/16/12 12/15/11 14/17/13 13/18/14
f 4/19/3 2/20/2 16/21/15 14/22/13 12/23/11 10/24/9 8/25/7 6/26/5
f 13/27/14 14/28/13 16/29/15 15/30/16
f 15/30/16 16/29/15 2/31/2 1/32/1
f 1/33/1 3/34/4 5/35/6 7/36/8 9/37/10 11/38/12 13/39/14 15/40/16
f 17/41/1 18/42/2 20/43/3 19/44/4
f 19/44/4 20/43/3 22/45/5 21/46/6
f 21/47/6 22/48/5 24/49/7 23/50/8
f 23/51/8 24/52/7 26/53/9 25/54/10
f 25/54/10 26/53/9 28/55/11 27/56/12
f 27/56/12 28/55/11 30/57/13 29/58/14
f 20/59/3 18/60/2 32/61/15 30/62/13 28/63/11 26/64/9 24/65/7 22/66/5
f 29/67/14 30/68/13 32/69/15 31/70/16
f 31/70/16 32/69/15 18/71/2 17/72/1
f 17/73/1 19/74/4 21/75/6 23/76/8 25/77/10 27/78/12 29/79/14 31/80/16
f 33/81/1 34/82/2 36/83/3 35/84/4
f 35/84/4 36/83/3 38/85/5 37/86/6
f 37/87/6 38/88/5 40/89/7 39/90/8
f 39/91/8 40/92/7 42/93/9 41/94/10
f 41/94/10 42/93/9 44/95/11 43/96/12
f 43/96/12 44/95/11 46/97/13 45/98/14
f 36/99/3 34/100/2 48/101/15 46/102/13 44/103/11 42/104/9 40/105/7 38/106/5
f 45/107/14 46/108/13 48/109/15 47/110/16
f 47/110/16 48/109/15 34/111/2 33/112/1
f 33/113/1 35/114/4 37/115/6 39/116/8 41/117/10 43/118/12 45/119/14 47/120/16
f 49/121/1 50/122/2 52/123/3 51/124/4
f 51/124/4 52/123/3 54/125/5 53/126/6
f 53/127/6 54/128/5 56/129/7 55/130/8
f 55/131/8 56/132/7 58/133/9 57/134/10
f 57/134/10 58/133/9 60/135/11 59/136/12
f 59/136/12 60/135/11 62/137/13 61/138/14
f 52/139/3 50/140/2 64/141/15 62/142/13 60/143/11 58/144/9 56/145/7 54/146/5
f 61/147/14 62/148/13 64/149/15 63/150/16
f 63/150/16 64/149/15 50/151/2 49/152/1
f 49/153/1 51/154/4 53/155/6 55/156/8 57/157/10 59/158/12 61/159/14 63/160/16
f 65/161/1 66/162/2 68/163/3 67/164/4
f 67/164/4 68/163/3 70/165/5 69/166/6
f 69/167/6 70/168/5 72/169/7 71/170/8
f 71/171/8 72/172/7 74/173/9 73/174/10
f 73/174/10 74/173/9 76/175/11 75/176/12
f 75/176/12 76/175/11 78/177/13 77/178/14
f 68/179/3 66/180/2 80/181/15 78/182/13 76/183/11 74/184/9 72/185/7 70/186/5
f 77/187/14 78/188/13 80/189/15 79/190/16
f 79/190/16 80/189/15 66/191/2 65/192/1
f 65/193/1 67/194/4 69/195/6 71/196/8 73/197/10 75/198/12 77/199/14 79/200/16
f 81/201/1 82/202/2 84/203/3 83/204/4
f 83/204/4 84/203/3 86/205/5 85/206/6
f 85/207/6 86/208/5 88/209/7 87/210/8
f 87/211/8 88/212/7 90/213/9 89/214/10
f 89/214/10 90/213/9 92/215/11 91/216/12
f 91/216/12 92/215/11 94/217/13 93/218/14
f 84/219/3 82/220/2 96/221/15 94/222/13 92/223/11 90/224/9 88/225/7 86/226/5
f 93/227/14 94/228/13 96/229/15 95/230/16
f 95/230/16 96/229/15 82/231/2 81/232/1
f 81/233/1 83/234/4 85/235/6 87/236/8 89/237/10 91/238/12 93/239/14 95/240/16
f 97/241/1 98/242/2 100/243/3 99/244/4
f 99/244/4 100/243/3 102/245/5 101/246/6
f 101/247/6 102/248/5 104/249/7 103/250/8
f 103/251/8 104/252/7 106/253/9 105/254/10
f 105/254/10 106/253/9 108/255/11 107/256/12
f 107/256/12 108/255/11 110/257/13 109/258/14
f 100/259/3 98/260/2 112/261/15 110/262/13 108/263/11 106/264/9 104/265/7 102/266/5
f 109/267/14 110/268/13 112/269/15 111/270/16
f 111/270/16 112/269/15 98/271/2 97/272/1
f 97/273/1 99/274/4 101/275/6 103/276/8 105/277/10 107/278/12 109/279/14 111/280/16
f 113/281/1 114/282/2 116/283/3 115/284/4
f 115/284/4 116/283/3 118/285/5 117/286/6
f 117/287/6 118/288/5 120/289/7 119/290/8
f 119/291/8 120/292/7 122/293/9 121/294/10
f 121/294/10 122/293/9 124/295/11 123/296/12
f 123/296/12 124/295/11 126/297/13 125/298/14
f 116/299/3 114/300/2 128/301/15 126/302/13 124/303/11 122/304/9 120/305/7 118/306/5
f 125/307/14 126/308/13 128/309/15 127/310/16
f 127/310/16 128/309/15 114/311/2 113/312/1
f 113/313/1 115/314/4 117/315/6 119/316/8 121/317/10 123/318/12 125/319/14 127/320/16
f 129/321/17 144/322/18 143/323/19
f 130/324/20 146/325/21 152/326/22
f 129/321/17 143/323/19 158/327/23
f 129/321/17 158/327/23 164/328/24
f 129/321/17 164/328/24 153/329/25
f 130/324/20 152/326/22 173/330/26
f 131/331/27 149/332/28 179/333/29
f 132/334/30 161/335/31 185/336/32
f 133/337/33 167/338/34 191/339/35
f 134/340/36 170/341/37 197/342/38
f 130/324/20 173/330/26 180/343/39
f 131/331/27 179/333/29 186/344/40
f 132/334/30 185/336/32 192/345/41
f 133/337/33 191/339/35 198/346/42
f 134/340/36 197/342/38 174/347/43
f 135/348/44 203/349/45 218/350/46
f 136/351/47 206/352/48 224/353/49
f 137/354/50 209/355/51 227/356/52
f 138/357/53 212/358/54 230/359/55
f 139/360/56 215/361/57 219/362/58
f 221/363/59 228/364/60 140/365/61
f 220/366/62 231/367/63 221/368/59
f 219/362/58 232/369/64 220/366/62
f 221/368/59 231/367/63 228/370/60
f 231/371/63 229/372/65 228/364/60
f 220/366/62 232/369/64 231/367/63
f 232/369/64 233/373/66 231/367/63
f 231/367/63 233/373/66 229/374/65
f 233/375/66 230/359/55 229/372/65
f 219/362/58 215/361/57 232/369/64
f 215/361/57 214/376/67 232/369/64
f 232/369/64 214/376/67 233/373/66
f 214/376/67 213/377/68 233/373/66
f 233/373/66 213/377/68 230/378/55
f 213/379/68 138/380/53 230/381/55
f 228/364/60 225/382/69 140/365/61
f 229/372/65 234/383/70 228/364/60
f 230/359/55 235/384/71 229/372/65
f 228/364/60 234/383/70 225/382/69
f 234/383/70 226/385/72 225/382/69
f 229/372/65 235/384/71 234/383/70
f 235/384/71 236/386/73 234/383/70
f 234/383/70 236/386/73 226/385/72
f 236/386/73 227/356/52 226/385/72
f 230/359/55 212/358/54 235/384/71
f 212/358/54 211/387/74 235/384/71
f 235/384/71 211/387/74 236/386/73
f 211/387/74 210/388/75 236/386/73
f 236/386/73 210/388/75 227/356/52
f 210/388/75 137/354/50 227/356/52
f 225/382/69 222/389/76 140/365/61
f 226/385/72 237/390/77 225/382/69
f 227/356/52 238/391/78 226/385/72
f 225/382/69 237/390/77 222/389/76
f 237/390/77 223/392/79 222/389/76
f 226/385/72 238/391/78 237/390/77
f 238/391/78 239/393/80 237/390/77
f 237/390/77 239/393/80 223/392/79
f 239/393/80 224/394/49 223/392/79
f 227/356/52 209/355/51 238/391/78
f 209/355/51 208/395/81 238/391/78
f 238/391/78 208/395/81 239/393/80
f 208/395/81 207/396/82 239/393/80
f 239/393/80 207/396/82 224/394/49
f 207/396/82 136/397/47 224/394/49
f 222/389/76 216/398/83 140/365/61
f 223/392/79 240/399/84 222/389/76
f 224/394/49 241/400/85 223/392/79
f 222/389/76 240/399/84 216/398/83
f 240/401/84 217/402/86 216/403/83
f 223/392/79 241/400/85 240/399/84
f 241/400/85 242/404/87 240/399/84
f 240/401/84 242/405/87 217/402/86
f 242/405/87 218/350/46 217/402/86
f 224/394/49 206/406/48 241/400/85
f 206/352/48 205/407/88 241/408/85
f 241/409/85 205/410/88 242/405/87
f 205/410/88 204/411/89 242/405/87
f 242/405/87 204/411/89 218/350/46
f 204/411/89 135/348/44 218/350/46
f 216/403/83 221/368/59 140/412/61
f 217/402/86 243/413/90 216/403/83
f 218/350/46 244/414/91 217/402/86
f 216/403/83 243/413/90 221/368/59
f 243/413/90 220/366/62 221/368/59
f 217/402/86 244/414/91 243/413/90
f 244/414/91 245/415/92 243/413/90
f 243/413/90 245/415/92 220/366/62
f 245/415/92 219/362/58 220/366/62
f 218/350/46 203/349/45 244/414/91
f 203/349/45 202/416/93 244/414/91
f 244/414/91 202/416/93 245/415/92
f 202/416/93 201/417/94 245/415/92
f 245/415/92 201/417/94 219/362/58
f 201/417/94 139/360/56 219/362/58
f 176/418/95 215/361/57 139/360/56
f 175/419/96 246/420/97 176/418/95
f 174/347/43 247/421/98 175/422/96
f 176/418/95 246/420/97 215/361/57
f 246/420/97 214/376/67 215/361/57
f 175/422/96 247/421/98 246/423/97
f 247/421/98 248/424/99 246/423/97
f 246/423/97 248/424/99 214/425/67
f 248/424/99 213/379/68 214/425/67
f 174/347/43 197/342/38 247/421/98
f 197/342/38 196/426/100 247/421/98
f 247/421/98 196/426/100 248/424/99
f 196/426/100 195/427/101 248/424/99
f 248/424/99 195/427/101 213/379/68
f 195/427/101 138/380/53 213/379/68
f 200/428/102 212/429/54 138/380/53
f 199/430/103 249/431/104 200/428/102
f 198/432/42 250/433/105 199/430/103
f 200/428/102 249/431/104 212/429/54
f 249/434/104 211/387/74 212/358/54
f 199/430/103 250/433/105 249/431/104
f 250/435/105 251/436/106 249/434/104
f 249/434/104 251/436/106 211/387/74
f 251/436/106 210/388/75 211/387/74
f 198/346/42 191/339/35 250/437/105
f 191/339/35 190/438/107 250/437/105
f 250/437/105 190/438/107 251/439/106
f 190/438/107 189/440/108 251/439/106
f 251/436/106 189/441/108 210/388/75
f 189/441/108 137/354/50 210/388/75
f 194/442/109 209/443/51 137/444/50
f 193/445/110 252/446/111 194/442/109
f 192/345/41 253/447/112 193/445/110
f 194/442/109 252/446/111 209/443/51
f 252/448/111 208/395/81 209/355/51
f 193/445/110 253/447/112 252/446/111
f 253/447/112 254/449/113 252/446/111
f 252/446/111 254/449/113 208/450/81
f 254/451/113 207/396/82 208/395/81
f 192/345/41 185/336/32 253/447/112
f 185/336/32 184/452/114 253/447/112
f 253/447/112 184/452/114 254/449/113
f 184/452/114 183/453/115 254/449/113
f 254/449/113 183/453/115 207/454/82
f 183/455/115 136/351/47 207/456/82
f 188/457/116 206/352/48 136/351/47
f 187/458/117 255/459/118 188/457/116
f 186/344/40 256/460/119 187/458/117
f 188/457/116 255/459/118 206/352/48
f 255/459/118 205/407/88 206/352/48
f 187/458/117 256/460/119 255/459/118
f 256/460/119 257/461/120 255/459/118
f 255/459/118 257/461/120 205/407/88
f 257/461/120 204/462/89 205/407/88
f 186/344/40 179/333/29 256/460/119
f 179/333/29 178/463/121 256/460/119
f 256/460/119 178/463/121 257/461/120
f 178/463/121 177/464/122 257/461/120
f 257/461/120 177/464/122 204/462/89
f 177/465/122 135/348/44 204/411/89
f 182/466/123 203/349/45 135/348/44
f 181/467/124 258/468/125 182/466/123
f 180/343/39 259/469/126 181/470/124
f 182/466/123 258/468/125 203/349/45
f 258/468/125 202/416/93 203/349/45
f 181/467/124 259/471/126 258/468/125
f 259/471/126 260/472/127 258/468/125
f 258/468/125 260/472/127 202/416/93
f 260/472/127 201/417/94 202/416/93
f 180/343/39 173/330/26 259/469/126
f 173/330/26 172/473/128 259/469/126
f 259/471/126 172/474/128 260/472/127
f 172/474/128 171/475/129 260/472/127
f 260/472/127 171/475/129 201/417/94
f 171/475/129 139/360/56 201/417/94
f 195/427/101 200/428/102 138/380/53
f 196/426/100 261/476/130 195/427/101
f 197/342/38 262/477/131 196/426/100
f 195/427/101 261/476/130 200/428/102
f 261/476/130 199/430/103 200/428/102
f 196/426/100 262/477/131 261/476/130
f 262/477/131 263/478/132 261/476/130
f 261/476/130 263/478/132 199/430/103
f 263/478/132 198/432/42 199/430/103
f 197/342/38 170/341/37 262/477/131
f 170/341/37 169/479/133 262/477/131
f 262/477/131 169/479/133 263/478/132
f 169/479/133 168/480/134 263/478/132
f 263/478/132 168/480/134 198/432/42
f 168/480/134 133/481/33 198/432/42
f 189/440/108 194/442/109 137/444/50
f 190/438/107 264/482/135 189/440/108
f 191/339/35 265/483/136 190/438/107
f 189/440/108 264/482/135 194/442/109
f 264/482/135 193/445/110 194/442/109
f 190/438/107 265/483/136 264/482/135
f 265/483/136 266/484/137 264/482/135
f 264/482/135 266/484/137 193/445/110
f 266/484/137 192/345/41 193/445/110
f 191/339/35 167/338/34 265/483/136
f 167/338/34 166/485/138 265/483/136
f 265/483/136 166/485/138 266/484/137
f 166/485/138 165/486/139 266/484/137
f 266/484/137 165/486/139 192/345/41
f 165/486/139 132/334/30 192/345/41
f 183/455/115 188/457/116 136/351/47
f 184/452/114 267/487/140 183/453/115
f 185/336/32 268/488/141 184/452/114
f 183/455/115 267/489/140 188/457/116
f 267/489/140 187/458/117 188/457/116
f 184/452/114 268/488/141 267/487/140
f 268/490/141 269/491/142 267/489/140
f 267/489/140 269/491/142 187/458/117
f 269/491/142 186/344/40 187/458/117
f 185/336/32 161/335/31 268/488/141
f 161/335/31 160/492/143 268/488/141
f 268/490/141 160/493/143 269/491/142
f 160/493/143 159/494/144 269/491/142
f 269/491/142 159/494/144 186/344/40
f 159/494/144 131/331/27 186/344/40
f 177/465/122 182/466/123 135/348/44
f 178/463/121 270/495/145 177/464/122
f 179/333/29 271/496/146 178/463/121
f 177/465/122 270/497/145 182/466/123
f 270/497/145 181/467/124 182/466/123
f 178/463/121 271/496/146 270/495/145
f 271/498/146 272/499/147 270/500/145
f 270/500/145 272/499/147 181/470/124
f 272/499/147 180/343/39 181/470/124
f 179/333/29 149/332/28 271/496/146
f 149/501/28 148/502/148 271/498/146
f 271/498/146 148/502/148 272/499/147
f 148/502/148 147/503/149 272/499/147
f 272/499/147 147/503/149 180/343/39
f 147/503/149 130/324/20 180/343/39
f 171/475/129 176/418/95 139/360/56
f 172/474/128 273/504/150 171/475/129
f 173/330/26 274/505/151 172/473/128
f 171/475/129 273/504/150 176/418/95
f 273/504/150 175/419/96 176/418/95
f 172/473/128 274/505/151 273/506/150
f 274/505/151 275/507/152 273/506/150
f 273/506/150 275/507/152 175/508/96
f 275/507/152 174/509/43 175/508/96
f 173/330/26 152/326/22 274/505/151
f 152/326/22 151/510/153 274/505/151
f 274/505/151 151/510/153 275/507/152
f 151/510/153 150/511/154 275/507/152
f 275/507/152 150/511/154 174/509/43
f 150/511/154 134/512/36 174/509/43
f 155/513/155 170/514/37 134/512/36
f 154/515/156 276/516/157 155/513/155
f 153/329/25 277/517/158 154/515/156
f 155/513/155 276/516/157 170/514/37
f 276/518/157 169/479/133 170/341/37
f 154/515/156 277/517/158 276/516/157
f 277/517/158 278/519/159 276/516/157
f 276/516/157 278/519/159 169/520/133
f 278/521/159 168/480/134 169/479/133
f 153/329/25 164/328/24 277/517/158
f 164/328/24 163/522/160 277/517/158
f 277/517/158 163/522/160 278/519/159
f 163/522/160 162/523/161 278/519/159
f 278/521/159 162/524/161 168/480/134
f 162/525/161 133/337/33 168/526/134
f 162/525/161 167/338/34 133/337/33
f 163/527/160 279/528/162 162/525/161
f 164/328/24 280/529/163 163/522/160
f 162/525/161 279/528/162 167/338/34
f 279/528/162 166/485/138 167/338/34
f 163/527/160 280/530/163 279/528/162
f 280/530/163 281/531/164 279/528/162
f 279/528/162 281/531/164 166/485/138
f 281/531/164 165/486/139 166/485/138
f 164/328/24 158/327/23 280/529/163
f 158/532/23 157/533/165 280/530/163
f 280/530/163 157/533/165 281/531/164
f 157/533/165 156/534/166 281/531/164
f 281/531/164 156/534/166 165/486/139
f 156/534/166 132/334/30 165/486/139
f 156/534/166 161/335/31 132/334/30
f 157/533/165 282/535/167 156/534/166
f 158/327/23 283/536/168 157/537/165
f 156/534/166 282/535/167 161/335/31
f 282/535/167 160/492/143 161/335/31
f 157/533/165 283/538/168 282/535/167
f 283/538/168 284/539/169 282/535/167
f 282/535/167 284/539/169 160/492/143
f 284/540/169 159/494/144 160/493/143
f 158/327/23 143/323/19 283/536/168
f 143/323/19 142/541/170 283/536/168
f 283/536/168 142/541/170 284/542/169
f 142/541/170 141/543/171 284/542/169
f 284/540/169 141/544/171 159/494/144
f 141/544/171 131/331/27 159/494/144
f 150/511/154 155/513/155 134/512/36
f 151/510/153 285/545/172 150/511/154
f 152/326/22 286/546/173 151/510/153
f 150/511/154 285/545/172 155/513/155
f 285/545/172 154/515/156 155/513/155
f 151/510/153 286/546/173 285/545/172
f 286/546/173 287/547/174 285/545/172
f 285/545/172 287/547/174 154/515/156
f 287/547/174 153/329/25 154/515/156
f 152/326/22 146/325/21 286/546/173
f 146/325/21 145/548/175 286/546/173
f 286/546/173 145/548/175 287/547/174
f 145/548/175 144/322/18 287/547/174
f 287/547/174 144/322/18 153/329/25
f 144/322/18 129/321/17 153/329/25
f 141/544/171 149/332/28 131/331/27
f 142/541/170 288/549/176 141/543/171
f 143/323/19 289/550/177 142/541/170
f 141/543/171 288/549/176 149/501/28
f 288/549/176 148/502/148 149/501/28
f 142/541/170 289/550/177 288/549/176
f 289/550/177 290/551/178 288/549/176
f 288/549/176 290/551/178 148/502/148
f 290/551/178 147/503/149 148/502/148
f 143/323/19 144/322/18 289/550/177
f 144/322/18 145/548/175 289/550/177
f 289/550/177 145/548/175 290/551/178
f 145/548/175 146/325/21 290/551/178
f 290/551/178 146/325/21 147/503/149
f 146/325/21 130/324/20 147/503/149
f 291/552/179 304/553/180 303/554/181
f 292/555/182 304/553/180 306/556/183
f 291/552/179 303/554/181 308/557/184
f 291/552/179 308/557/184 310/558/185
f 291/552/179 310/558/185 307/559/186
f 292/555/182 306/556/183 313/560/187
f 293/561/188 305/562/189 315/563/121
f 294/564/190 309/565/191 317/566/192
f 295/567/193 311/568/194 319/569/195
f 296/570/196 312/571/197 321/572/198
f 292/555/182 313/560/187 316/573/199
f 293/561/188 315/563/121 318/574/200
f 294/564/190 317/566/192 320/575/201
f 295/576/193 319/577/195 322/578/103
f 296/570/196 321/572/198 314/579/202
f 297/580/203 323/581/204 328/582/205
f 298/583/206 324/584/207 330/585/208
f 299/586/209 325/587/210 331/588/211
f 300/589/212 326/590/213 332/591/214
f 301/592/215 327/593/216 329/594/217
f 329/595/217 332/591/214 302/596/218
f 329/594/217 327/593/216 332/597/214
f 327/598/216 300/589/212 332/591/214
f 332/591/214 331/588/211 302/596/218
f 332/591/214 326/590/213 331/588/211
f 326/590/213 299/586/209 331/588/211
f 331/588/211 330/585/208 302/596/218
f 331/588/211 325/587/210 330/585/208
f 325/587/210 298/583/206 330/585/208
f 330/585/208 328/599/205 302/596/218
f 330/600/208 324/601/207 328/582/205
f 324/601/207 297/580/203 328/582/205
f 328/582/205 329/594/217 302/602/218
f 328/582/205 323/581/204 329/594/217
f 323/581/204 301/592/215 329/594/217
f 314/603/202 327/593/216 301/592/215
f 314/579/202 321/572/198 327/604/216
f 321/572/198 300/605/212 327/604/216
f 322/578/103 326/606/213 300/605/212
f 322/578/103 319/577/195 326/606/213
f 319/607/195 299/586/209 326/590/213
f 320/608/201 325/587/210 299/586/209
f 320/575/201 317/566/192 325/609/210
f 317/610/192 298/611/206 325/612/210
f 318/574/200 324/613/207 298/611/206
f 318/574/200 315/563/121 324/613/207
f 315/563/121 297/614/203 324/613/207
f 316/615/199 323/581/204 297/580/203
f 316/615/199 313/616/187 323/581/204
f 313/616/187 301/592/215 323/581/204
f 321/572/198 322/578/103 300/605/212
f 321/572/198 312/571/197 322/578/103
f 312/571/197 295/576/193 322/578/103
f 319/569/195 320/575/201 299/617/209
f 319/569/195 311/568/194 320/575/201
f 311/568/194 294/564/190 320/575/201
f 317/610/192 318/574/200 298/611/206
f 317/610/192 309/618/191 318/574/200
f 309/618/191 293/561/188 318/574/200
f 315/563/121 316/619/199 297/614/203
f 315/563/121 305/562/189 316/619/199
f 305/620/189 292/555/182 316/573/199
f 313/616/187 314/603/202 301/592/215
f 313/560/187 306/556/183 314/621/202
f 306/556/183 296/622/196 314/621/202
f 307/559/186 312/623/197 296/622/196
f 307/559/186 310/558/185 312/623/197
f 310/624/185 295/576/193 312/571/197
f 310/625/185 311/568/194 295/567/193
f 310/625/185 308/626/184 311/568/194
f 308/626/184 294/564/190 311/568/194
f 308/626/184 309/565/191 294/564/190
f 308/557/184 303/554/181 309/627/191
f 303/554/181 293/628/188 309/627/191
f 306/556/183 307/559/186 296/622/196
f 306/556/183 304/553/180 307/559/186
f 304/553/180 291/552/179 307/559/186
f 303/554/181 305/620/189 293/628/188
f 303/554/181 304/553/180 305/620/189
f 304/553/180 292/555/182 305/620/189
f 333/629/179 346/630/180 345/631/181
f 334/632/182 346/630/180 348/633/183
f 333/629/179 345/631/181 350/634/184
f 333/629/179 350/634/184 352/635/185
f 333/629/179 352/635/185 349/636/186
f 334/632/182 348/633/183 355/637/187
f 335/638/188 347/639/189 357/640/121
f 336/641/219 351/642/191 359/643/192
f 337/644/193 353/645/194 361/646/195
f 338/647/196 354/648/197 363/649/198
f 334/632/182 355/637/187 358/650/199
f 335/638/188 357/640/121 360/651/200
f 336/641/219 359/643/192 362/652/201
f 337/653/193 361/654/195 364/655/103
f 338/647/196 363/649/198 356/656/202
f 339/657/203 365/658/204 370/659/205
f 340/660/206 366/661/207 372/662/208
f 341/663/209 367/664/210 373/665/211
f 342/666/212 368/667/213 374/668/214
f 343/669/220 369/670/216 371/671/217
f 371/672/217 374/668/214 344/673/218
f 371/671/217 369/670/216 374/674/214
f 369/675/216 342/666/212 374/668/214
f 374/668/214 373/665/211 344/673/218
f 374/668/214 368/667/213 373/665/211
f 368/667/213 341/663/209 373/665/211
f 373/665/211 372/662/208 344/673/218
f 373/665/211 367/664/210 372/662/208
f 367/664/210 340/660/206 372/662/208
f 372/662/208 370/676/205 344/673/218
f 372/677/208 366/678/207 370/659/205
f 366/678/207 339/657/203 370/659/205
f 370/659/205 371/671/217 344/679/218
f 370/659/205 365/658/204 371/671/217
f 365/658/204 343/669/220 371/671/217
f 356/680/202 369/670/216 343/669/220
f 356/656/202 363/649/198 369/681/216
f 363/649/198 342/682/212 369/681/216
f 364/655/103 368/683/213 342/682/212
f 364/655/103 361/654/195 368/683/213
f 361/684/195 341/663/209 368/667/213
f 362/685/201 367/664/210 341/663/209
f 362/652/201 359/643/192 367/686/210
f 359/687/192 340/688/206 367/689/210
f 360/651/200 366/690/207 340/688/206
f 360/651/200 357/640/121 366/690/207
f 357/640/121 339/691/203 366/690/207
f 358/692/199 365/658/204 339/657/203
f 358/692/199 355/693/187 365/658/204
f 355/693/187 343/669/220 365/658/204
f 363/649/198 364/655/103 342/682/212
f 363/649/198 354/648/197 364/655/103
f 354/648/197 337/653/193 364/655/103
f 361/646/195 362/652/201 341/694/209
f 361/646/195 353/645/194 362/652/201
f 353/645/194 336/641/219 362/652/201
f 359/687/192 360/651/200 340/688/206
f 359/687/192 351/695/191 360/651/200
f 351/695/191 335/638/188 360/651/200
f 357/640/121 358/696/199 339/691/203
f 357/640/121 347/639/189 358/696/199
f 347/697/189 334/632/182 358/650/199
f 355/693/187 356/680/202 343/669/220
f 355/637/187 348/633/183 356/698/202
f 348/633/183 338/699/196 356/698/202
f 349/636/186 354/700/197 338/699/196
f 349/636/186 352/635/185 354/700/197
f 352/701/185 337/653/193 354/648/197
f 352/702/185 353/645/194 337/644/193
f 352/702/185 350/703/184 353/645/194
f 350/703/184 336/641/219 353/645/194
f 350/703/184 351/642/191 336/641/219
f 350/634/184 345/631/181 351/704/191
f 345/631/181 335/705/188 351/704/191
f 348/633/183 349/636/186 338/699/196
f 348/633/183 346/630/180 349/636/186
f 346/630/180 333/629/179 349/636/186
f 345/631/181 347/697/189 335/705/188
f 345/631/181 346/630/180 347/697/189
f 346/630/180 334/632/182 347/697/189
f 375/706/221 388/707/222 387/708/223
f 376/709/224 388/707/222 390/710/225
f 375/706/221 387/708/223 392/711/226
f 375/706/221 392/711/226 394/712/227
f 375/706/221 394/712/227 391/713/228
f 376/709/224 390/710/225 397/714/229
f 377/715/230 389/716/231 399/717/121
f 378/718/232 393/719/233 401/720/234
f 379/721/235 395/722/236 403/723/237
f 380/724/238 396/725/239 405/726/240
f 376/709/224 397/714/229 400/727/241
f 377/715/230 399/717/121 402/728/242
f 378/718/232 401/720/234 404/729/243
f 379/730/235 403/731/237 406/732/103
f 380/724/238 405/726/240 398/733/244
f 381/734/245 407/735/246 412/736/247
f 382/737/248 408/738/249 414/739/250
f 383/740/251 409/741/252 415/742/253
f 384/743/254 410/744/255 416/745/256
f 385/746/257 411/747/258 413/748/259
f 413/748/259 416/749/256 386/750/260
f 413/748/259 411/747/258 416/749/256
f 411/751/258 384/752/254 416/753/256
f 416/745/256 415/742/253 386/754/260
f 416/745/256 410/744/255 415/742/253
f 410/744/255 383/740/251 415/742/253
f 415/742/253 414/755/250 386/754/260
f 415/742/253 409/741/252 414/755/250
f 409/741/252 382/756/248 414/755/250
f 414/757/250 412/736/247 386/750/260
f 414/757/250 408/758/249 412/736/247
f 408/758/249 381/734/245 412/736/247
f 412/736/247 413/748/259 386/750/260
f 412/736/247 407/735/246 413/748/259
f 407/735/246 385/746/257 413/748/259
f 398/759/244 411/747/258 385/746/257
f 398/733/244 405/726/240 411/751/258
f 405/726/240 384/752/254 411/751/258
f 406/732/103 410/760/255 384/752/254
f 406/732/103 403/731/237 410/760/255
f 403/761/237 383/740/251 410/744/255
f 404/729/243 409/762/252 383/763/251
f 404/729/243 401/720/234 409/762/252
f 401/764/234 382/737/248 409/765/252
f 402/728/242 408/738/249 382/737/248
f 402/728/242 399/717/121 408/738/249
f 399/717/121 381/766/245 408/738/249
f 400/767/241 407/735/246 381/734/245
f 400/767/241 397/768/229 407/735/246
f 397/768/229 385/746/257 407/735/246
f 405/726/240 406/732/103 384/752/254
f 405/726/240 396/725/239 406/732/103
f 396/725/239 379/730/235 406/732/103
f 403/723/237 404/729/243 383/763/251
f 403/723/237 395/722/236 404/729/243
f 395/722/236 378/718/232 404/729/243
f 401/764/234 402/728/242 382/737/248
f 401/764/234 393/769/233 402/728/242
f 393/769/233 377/715/230 402/728/242
f 399/717/121 400/770/241 381/766/245
f 399/717/121 389/716/231 400/770/241
f 389/771/231 376/709/224 400/727/241
f 397/768/229 398/759/244 385/746/257
f 397/714/229 390/710/225 398/772/244
f 390/710/225 380/773/238 398/772/244
f 391/774/228 396/725/239 380/724/238
f 391/774/228 394/775/227 396/725/239
f 394/775/227 379/730/235 396/725/239
f 394/776/227 395/722/236 379/721/235
f 394/776/227 392/777/226 395/722/236
f 392/777/226 378/718/232 395/722/236
f 392/777/226 393/719/233 378/718/232
f 392/778/226 387/779/223 393/769/233
f 387/779/223 377/715/230 393/769/233
f 390/710/225 391/713/228 380/773/238
f 390/710/225 388/707/222 391/713/228
f 388/707/222 375/706/221 391/713/228
f 387/708/223 389/771/231 377/780/230
f 387/708/223 388/707/222 389/771/231
f 388/707/222 376/709/224 389/771/231
f 417/781/261 430/782/262 429/783/263
f 418/784/264 430/782/262 432/785/265
f 417/781/261 429/783/263 434/786/266
f 417/781/261 434/786/266 436/787/267
f 417/781/261 436/787/267 433/788/268
f 418/784/264 432/785/265 439/789/269
f 419/790/270 431/791/271 441/792/121
f 420/793/272 435/794/273 443/795/274
f 421/796/275 437/797/276 445/798/277
f 422/799/278 438/800/279 447/801/280
f 418/784/264 439/789/269 442/802/281
f 419/790/270 441/792/121 444/803/282
f 420/804/272 443/805/274 446/806/283
f 421/807/275 445/808/277 448/809/103
f 422/799/278 447/801/280 440/810/284
f 423/811/285 449/812/286 454/813/287
f 424/814/288 450/815/289 456/816/290
f 425/817/291 451/818/292 457/819/293
f 426/820/294 452/821/295 458/822/296
f 427/823/297 453/824/298 455/825/299
f 455/826/299 458/822/296 428/827/300
f 455/825/299 453/824/298 458/828/296
f 453/829/298 426/830/294 458/831/296
f 458/822/296 457/819/293 428/827/300
f 458/822/296 452/821/295 457/819/293
f 452/821/295 425/817/291 457/819/293
f 457/819/293 456/832/290 428/827/300
f 457/819/293 451/818/292 456/832/290
f 451/818/292 424/833/288 456/832/290
f 456/834/290 454/813/287 428/835/300
f 456/834/290 450/836/289 454/813/287
f 450/836/289 423/811/285 454/813/287
f 454/813/287 455/825/299 428/835/300
f 454/813/287 449/812/286 455/825/299
f 449/812/286 427/823/297 455/825/299
f 440/810/284 453/829/298 427/837/297
f 440/810/284 447/801/280 453/829/298
f 447/801/280 426/830/294 453/829/298
f 448/809/103 452/838/295 426/830/294
f 448/809/103 445/808/277 452/838/295
f 445/839/277 425/817/291 452/821/295
f 446/806/283 451/840/292 425/841/291
f 446/806/283 443/805/274 451/840/292
f 443/795/274 424/814/288 451/842/292
f 444/803/282 450/815/289 424/814/288
f 444/803/282 441/792/121 450/815/289
f 441/792/121 423/843/285 450/815/289
f 442/844/281 449/812/286 423/811/285
f 442/844/281 439/845/269 449/812/286
f 439/845/269 427/823/297 449/812/286
f 447/801/280 448/809/103 426/830/294
f 447/801/280 438/800/279 448/809/103
f 438/800/279 421/807/275 448/809/103
f 445/798/277 446/806/283 425/841/291
f 445/798/277 437/797/276 446/806/283
f 437/797/276 420/804/272 446/806/283
f 443/795/274 444/803/282 424/814/288
f 443/795/274 435/794/273 444/803/282
f 435/794/273 419/790/270 444/803/282
f 441/792/121 442/846/281 423/843/285
f 441/792/121 431/791/271 442/846/281
f 431/847/271 418/784/264 442/802/281
f 439/845/269 440/848/284 427/823/297
f 439/789/269 432/785/265 440/849/284
f 432/850/265 422/799/278 440/810/284
f 433/851/268 438/800/279 422/799/278
f 433/851/268 436/852/267 438/800/279
f 436/852/267 421/807/275 438/800/279
f 436/853/267 437/797/276 421/796/275
f 436/853/267 434/854/266 437/797/276
f 434/854/266 420/804/272 437/797/276
f 434/854/266 435/855/273 420/804/272
f 434/786/266 429/783/263 435/856/273
f 429/857/263 419/790/270 435/794/273
f 432/785/265 433/788/268 422/858/278
f 432/785/265 430/782/262 433/788/268
f 430/782/262 417/781/261 433/788/268
f 429/857/263 431/791/271 419/790/270
f 429/783/263 430/782/262 431/847/271
f 430/782/262 418/784/264 431/847/271
f 459/859/221 460/860/224 461/861/301
f 460/860/224 459/859/221 464/862/238
f 459/863/221 461/864/301 462/865/232
f 459/866/221 462/867/232 463/868/302
f 459/869/221 463/870/302 464/871/238
f 460/860/224 464/862/238 469/872/257
f 461/864/301 460/873/224 465/874/303
f 462/865/232 461/864/301 466/875/248
f 463/868/302 462/867/232 467/876/251
f 464/871/238 463/870/302 468/877/304
f 460/878/224 469/879/257 465/880/303
f 461/864/301 465/874/303 466/875/248
f 462/867/232 466/881/248 467/876/251
f 463/870/302 467/882/251 468/877/304
f 464/871/238 468/877/304 469/883/257
f 465/880/303 469/879/257 470/884/260
f 466/885/248 465/880/303 470/884/260
f 467/886/251 466/887/248 470/888/260
f 468/889/304 467/886/251 470/888/260
f 469/879/257 468/890/304 470/884/260
f 471/891/221 472/892/224 473/893/301
f 472/892/224 471/891/221 476/894/238
f 471/895/221 473/896/301 474/897/232
f 471/898/221 474/899/232 475/900/302
f 471/901/221 475/902/302 476/903/238
f 472/892/224 476/894/238 481/904/257
f 473/896/301 472/905/224 477/906/303
f 474/897/232 473/896/301 478/907/248
f 475/900/302 474/899/232 479/908/251
f 476/903/238 475/902/302 480/909/304
f 472/910/224 481/911/257 477/912/303
f 473/896/301 477/906/303 478/907/248
f 474/899/232 478/913/248 479/908/251
f 475/902/302 479/914/251 480/909/304
f 476/903/238 480/909/304 481/915/257
f 477/912/303 481/911/257 482/916/260
f 478/917/248 477/912/303 482/916/260
f 479/918/251 478/919/248 482/920/260
f 480/921/304 479/918/251 482/920/260
f 481/911/257 480/922/304 482/916/260
f 483/923/305 484/924/306 486/925/307 485/926/308
f 485/927/308 486/928/307 488/929/309 487/930/310
f 487/931/310 488/932/309 490/933/311 489/934/312
f 489/934/312 490/933/311 492/935/313 491/936/314
f 486/937/307 484/938/306 494/939/315 492/935/313 490/933/311 488/932/309
f 491/940/314 492/941/313 494/942/315 493/943/316
f 493/944/316 494/945/315 484/946/306 483/947/305
f 483/948/305 485/949/308 487/950/310 489/951/312 491/952/314 493/953/316
f 495/954/317 496/955/318 498/956/319 497/957/320
f 497/958/320 498/959/319 500/960/321 499/961/322
f 499/961/322 500/960/321 502/962/323 501/963/324
f 501/964/324 502/965/323 504/966/325 503/967/326
f 498/968/319 496/969/318 506/970/327 504/971/325 502/972/323 500/973/321
f 503/974/326 504/975/325 506/976/327 505/977/328
f 505/978/328 506/970/327 496/969/318 495/979/317
f 495/980/317 497/981/320 499/982/322 501/983/324 503/984/326 505/985/328
f 507/986/329 508/987/330 510/988/331 509/989/332
f 509/989/332 510/988/331 512/990/333 511/991/334
f 511/992/334 512/993/333 514/994/335 513/995/336
f 513/995/336 514/994/335 516/996/337 515/997/338
f 515/997/338 516/996/337 518/998/339 517/999/340
f 510/1000/331 508/1001/330 520/1002/341 518/1003/339 516/1004/337 514/1005/335 512/1006/333
f 517/1007/340 518/1003/339 520/1002/341 519/1008/342
f 519/1008/342 520/1002/341 508/1001/330 507/1009/329
f 507/1010/329 509/1011/332 511/1012/334 513/1013/336 515/1014/338 517/1015/340 519/1016/342
f 521/1017/343 522/1018/344 524/1019/345 523/1020/346
f 523/1021/346 524/1022/345 526/1023/347 525/1024/348
f 525/1024/348 526/1023/347 528/1025/349 527/1026/350
f 527/1027/350 528/1028/349 530/1029/351 529/1030/352
f 529/1031/352 530/1032/351 532/1033/353 531/1034/354
f 524/1035/345 522/1036/344 534/1037/355 532/1033/353 530/1032/351 528/1038/349 526/1039/347
f 531/1040/354 532/1041/353 534/1042/355 533/1043/356
f 533/1044/356 534/1045/355 522/1018/344 521/1017/343
f 521/1046/343 523/1047/346 525/1048/348 527/1049/350 529/1050/352 531/1051/354 533/1052/356
f 535/1053/221 536/1054/224 537/1055/301
f 536/1054/224 535/1053/221 540/1056/238
f 535/1057/221 537/1058/301 538/1059/232
f 535/1060/221 538/1061/232 539/1062/302
f 535/1063/221 539/1064/302 540/1065/238
f 536/1054/224 540/1056/238 545/1066/257
f 537/1058/301 536/1067/224 541/1068/303
f 538/1059/232 537/1058/301 542/1069/248
f 539/1062/302 538/1061/232 543/1070/251
f 540/1065/238 539/1064/302 544/1071/304
f 536/1072/224 545/1073/257 541/1074/303
f 537/1058/301 541/1068/303 542/1069/248
f 538/1061/232 542/1075/248 543/1070/251
f 539/1064/302 543/1076/251 544/1071/304
f 540/1065/238 544/1071/304 545/1077/257
f 541/1074/303 545/1073/257 546/1078/260
f 542/1079/248 541/1074/303 546/1078/260
f 543/1080/251 542/1081/248 546/1082/260
f 544/1083/304 543/1080/251 546/1082/260
f 545/1073/257 544/1084/304 546/1078/260
f 547/1085/221 548/1086/224 549/1087/230
f 548/1086/224 547/1085/221 552/1088/238
f 547/1089/221 549/1090/230 550/1091/232
f 547/1092/221 550/1093/232 551/1094/235
f 547/1095/221 551/1096/235 552/1097/238
f 548/1086/224 552/1088/238 557/1098/257
f 549/1090/230 548/1099/224 553/1100/303
f 550/1091/232 549/1090/230 554/1101/248
f 551/1094/235 550/1093/232 555/1102/251
f 552/1097/238 551/1096/235 556/1103/304
f 548/1104/224 557/1105/257 553/1106/303
f 549/1090/230 553/1100/303 554/1101/248
f 550/1093/232 554/1107/248 555/1102/251
f 551/1096/235 555/1108/251 556/1103/304
f 552/1097/238 556/1103/304 557/1109/257
f 553/1106/303 557/1105/257 558/1110/260
f 554/1111/248 553/1106/303 558/1110/260
f 555/1112/251 554/1113/248 558/1114/260
f 556/1115/304 555/1112/251 558/1114/260
f 557/1105/257 556/1116/304 558/1110/260
f 559/1117/357 560/1118/358 562/1119/359 561/1120/360
f 561/1121/360 562/1122/359 564/1123/361 563/1124/362
f 563/1125/362 564/1126/361 566/1127/363 565/1128/364
f 565/1129/364 566/1130/363 568/1131/365 567/1132/366
f 562/1122/359 560/1133/358 570/1134/367 568/1135/365 566/1136/363 564/1123/361
f 567/1132/366 568/1131/365 570/1137/367 569/1138/368
f 569/1139/368 570/1140/367 560/1141/358 559/1142/357
f 559/1143/357 561/1144/360 563/1145/362 565/1146/364 567/1147/366 569/1148/368
f 571/1149/369 572/1150/370 574/1151/371 573/1152/372
f 573/1152/372 574/1151/371 576/1153/373 575/1154/374
f 575/1155/374 576/1156/373 578/1157/375 577/1158/376
f 577/1159/376 578/1160/375 580/1161/377 579/1162/378
f 574/1163/371 572/1164/370 582/1165/379 580/1161/377 578/1160/375 576/1166/373
f 579/1162/378 580/1161/377 582/1165/379 581/1167/380
f 581/1168/380 582/1169/379 572/1170/370 571/1171/369
f 571/1172/369 573/1173/372 575/1174/374 577/1175/376 579/1176/378 581/1177/380
f 583/1178/221 584/1179/224 585/1180/301
f 584/1179/224 583/1178/221 588/1181/238
f 583/1182/221 585/1183/301 586/1184/232
f 583/1185/221 586/1186/232 587/1187/302
f 583/1188/221 587/1189/302 588/1190/238
f 584/1179/224 588/1181/238 593/1191/257
f 585/1183/301 584/1192/224 589/1193/303
f 586/1184/232 585/1183/301 590/1194/248
f 587/1187/302 586/1186/232 591/1195/251
f 588/1190/238 587/1189/302 592/1196/304
f 584/1197/224 593/1198/257 589/1199/303
f 585/1183/301 589/1193/303 590/1194/248
f 586/1186/232 590/1200/248 591/1195/251
f 587/1189/302 591/1201/251 592/1196/304
f 588/1190/238 592/1196/304 593/1202/257
f 589/1199/303 593/1198/257 594/1203/260
f 590/1204/248 589/1199/303 594/1203/260
f 591/1205/251 590/1206/248 594/1207/260
f 592/1208/304 591/1205/251 594/1207/260
f 593/1198/257 592/1209/304 594/1203/260
f 595/1210/221 608/1211/381 607/1212/382
f 596/1213/383 608/1211/381 610/1214/384
f 595/1210/221 607/1212/382 612/1215/385
f 595/1210/221 612/1215/385 614/1216/386
f 595/1210/221 614/1216/386 611/1217/387
f 596/1213/383 610/1214/384 617/1218/229
f 597/1219/388 609/1220/389 619/1221/121
f 598/1222/390 613/1223/391 621/1224/234
f 599/1225/392 615/1226/393 623/1227/237
f 600/1228/394 616/1229/395 625/1230/240
f 596/1213/383 617/1218/229 620/1231/241
f 597/1219/388 619/1221/121 622/1232/242
f 598/1222/390 621/1224/234 624/1233/243
f 599/1234/392 623/1235/237 626/1236/103
f 600/1228/394 625/1230/240 618/1237/244
f 601/1238/396 627/1239/397 632/1240/398
f 602/1241/399 628/1242/400 634/1243/401
f 603/1244/402 629/1245/403 635/1246/404
f 604/1247/405 630/1248/406 636/1249/407
f 605/1250/408 631/1251/409 633/1252/410
f 633/1253/410 636/1249/407 606/1254/260
f 633/1252/410 631/1251/409 636/1255/407
f 631/1256/409 604/1247/405 636/1249/407
f 636/1249/407 635/1246/404 606/1254/260
f 636/1249/407 630/1248/406 635/1246/404
f 630/1248/406 603/1244/402 635/1246/404
f 635/1246/404 634/1243/401 606/1254/260
f 635/1246/404 629/1245/403 634/1243/401
f 629/1245/403 602/1241/399 634/1243/401
f 634/1243/401 632/1257/398 606/1254/260
f 634/1258/401 628/1259/400 632/1240/398
f 628/1259/400 601/1238/396 632/1240/398
f 632/1240/398 633/1252/410 606/1260/260
f 632/1240/398 627/1239/397 633/1252/410
f 627/1239/397 605/1250/408 633/1252/410
f 618/1261/244 631/1251/409 605/1250/408
f 618/1237/244 625/1230/240 631/1262/409
f 625/1230/240 604/1263/405 631/1262/409
f 626/1236/103 630/1264/406 604/1263/405
f 626/1236/103 623/1235/237 630/1264/406
f 623/1265/237 603/1244/402 630/1248/406
f 624/1266/243 629/1245/403 603/1244/402
f 624/1233/243 621/1224/234 629/1267/403
f 621/1268/234 602/1269/399 629/1270/403
f 622/1232/242 628/1271/400 602/1269/399
f 622/1232/242 619/1221/121 628/1271/400
f 619/1221/121 601/1272/396 628/1271/400
f 620/1273/241 627/1239/397 601/1238/396
f 620/1273/241 617/1274/229 627/1239/397
f 617/1274/229 605/1250/408 627/1239/397
f 625/1230/240 626/1236/103 604/1263/405
f 625/1230/240 616/1229/395 626/1236/103
f 616/1229/395 599/1234/392 626/1236/103
f 623/1227/237 624/1233/243 603/1275/402
f 623/1227/237 615/1226/393 624/1233/243
f 615/1226/393 598/1222/390 624/1233/243
f 621/1268/234 622/1232/242 602/1269/399
f 621/1268/234 613/1276/391 622/1232/242
f 613/1276/391 597/1219/388 622/1232/242
f 619/1221/121 620/1277/241 601/1272/396
f 619/1221/121 609/1220/389 620/1277/241
f 609/1278/389 596/1213/383 620/1231/241
f 617/1274/229 618/1261/244 605/1250/408
f 617/1218/229 610/1214/384 618/1279/244
f 610/1214/384 600/1280/394 618/1279/244
f 611/1217/387 616/1281/395 600/1280/394
f 611/1217/387 614/1216/386 616/1281/395
f 614/1282/386 599/1234/392 616/1229/395
f 614/1283/386 615/1226/393 599/1225/392
f 614/1283/386 612/1284/385 615/1226/393
f 612/1284/385 598/1222/390 615/1226/393
f 612/1284/385 613/1223/391 598/1222/390
f 612/1215/385 607/1212/382 613/1285/391
f 607/1286/382 597/1219/388 613/1276/391
f 610/1214/384 611/1217/387 600/1280/394
f 610/1214/384 608/1211/381 611/1217/387
f 608/1211/381 595/1210/221 611/1217/387
f 607/1212/382 609/1278/389 597/1287/388
f 607/1212/382 608/1211/381 609/1278/389
f 608/1211/381 596/1213/383 609/1278/389
