# axis-converted-to-Y-up
# Blender 5.1.1
# www.blender.org
mtllib mob_kucing_idle.mtl
o mob_kucing_idle
v 0.895878 0.000000 -0.136870
v 0.895878 0.223970 -0.136870
v 0.878282 0.000000 -0.144159
v 0.878282 0.223970 -0.144159
v 0.870993 0.000000 -0.161756
v 0.870993 0.223970 -0.161756
v 0.878282 0.000000 -0.179352
v 0.878282 0.223970 -0.179352
v 0.895878 0.000000 -0.186641
v 0.895878 0.223970 -0.186641
v 0.913475 0.000000 -0.179352
v 0.913475 0.223970 -0.179352
v 0.920764 0.000000 -0.161756
v 0.920764 0.223970 -0.161756
v 0.913475 0.000000 -0.144159
v 0.913475 0.223970 -0.144159
v 0.895878 0.000000 0.186641
v 0.895878 0.223970 0.186641
v 0.878282 0.000000 0.179352
v 0.878282 0.223970 0.179352
v 0.870993 0.000000 0.161756
v 0.870993 0.223970 0.161756
v 0.878282 0.000000 0.144159
v 0.878282 0.223970 0.144159
v 0.895878 0.000000 0.136870
v 0.895878 0.223970 0.136870
v 0.913475 0.000000 0.144159
v 0.913475 0.223970 0.144159
v 0.920764 0.000000 0.161756
v 0.920764 0.223970 0.161756
v 0.913475 0.000000 0.179352
v 0.913475 0.223970 0.179352
v 0.721680 0.000000 -0.136870
v 0.721680 0.223970 -0.136870
v 0.704083 0.000000 -0.144159
v 0.704083 0.223970 -0.144159
v 0.696794 0.000000 -0.161756
v 0.696794 0.223970 -0.161756
v 0.704083 0.000000 -0.179352
v 0.704083 0.223970 -0.179352
v 0.721680 0.000000 -0.186641
v 0.721680 0.223970 -0.186641
v 0.739276 0.000000 -0.179352
v 0.739276 0.223970 -0.179352
v 0.746565 0.000000 -0.161756
v 0.746565 0.223970 -0.161756
v 0.739276 0.000000 -0.144159
v 0.739276 0.223970 -0.144159
v 0.721680 0.000000 0.186641
v 0.721680 0.223970 0.186641
v 0.704083 0.000000 0.179352
v 0.704083 0.223970 0.179352
v 0.696794 0.000000 0.161756
v 0.696794 0.223970 0.161756
v 0.704083 0.000000 0.144159
v 0.704083 0.223970 0.144159
v 0.721680 0.000000 0.136870
v 0.721680 0.223970 0.136870
v 0.739276 0.000000 0.144159
v 0.739276 0.223970 0.144159
v 0.746565 0.000000 0.161756
v 0.746565 0.223970 0.161756
v 0.739276 0.000000 0.179352
v 0.739276 0.223970 0.179352
v 0.808779 0.112482 0.000000
v 0.691731 0.194745 -0.144567
v 0.853486 0.194745 -0.233916
v 0.953458 0.194745 0.000000
v 0.853486 0.194745 0.233916
v 0.691731 0.194745 0.144567
v 0.764071 0.327851 -0.233916
v 0.925826 0.327851 -0.144567
v 0.925826 0.327851 0.144567
v 0.764071 0.327851 0.233916
v 0.664100 0.327850 0.000000
v 0.808779 0.410113 0.000000
v 0.846439 0.163449 -0.197044
v 0.835057 0.134707 -0.137491
v 0.821332 0.117252 -0.065681
v 0.775913 0.117252 -0.040593
v 0.739980 0.134708 -0.084973
v 0.710181 0.163449 -0.121779
v 0.722734 0.186547 -0.187461
v 0.766258 0.183060 -0.222466
v 0.813573 0.186547 -0.237637
v 0.677315 0.186548 0.081186
v 0.671182 0.183060 0.000000
v 0.677315 0.186548 -0.081186
v 0.775913 0.117252 0.040593
v 0.739980 0.134708 0.084973
v 0.710181 0.163449 0.121779
v 0.930652 0.163449 0.000000
v 0.893819 0.134708 0.000000
v 0.849403 0.117252 0.000000
v 0.887064 0.186547 -0.197045
v 0.920097 0.183060 -0.137492
v 0.943206 0.186548 -0.065681
v 0.846439 0.163449 0.197044
v 0.835057 0.134707 0.137491
v 0.821332 0.117252 0.065681
v 0.943206 0.186548 0.065681
v 0.920097 0.183060 0.137492
v 0.887064 0.186547 0.197045
v 0.813573 0.186547 0.237637
v 0.766258 0.183060 0.222466
v 0.722734 0.186547 0.187461
v 0.654039 0.298673 -0.040593
v 0.654940 0.261298 -0.084974
v 0.669556 0.223923 -0.121779
v 0.669556 0.223923 0.121779
v 0.654940 0.261298 0.084974
v 0.654039 0.298673 0.040593
v 0.783672 0.298673 -0.262727
v 0.808779 0.261298 -0.274985
v 0.833886 0.223923 -0.262727
v 0.697627 0.223922 -0.187461
v 0.713701 0.261298 -0.222467
v 0.738252 0.298673 -0.237638
v 0.948001 0.298673 -0.121779
v 0.962618 0.261298 -0.084974
v 0.963519 0.223923 -0.040593
v 0.879306 0.223922 -0.237638
v 0.903856 0.261298 -0.222467
v 0.919931 0.298673 -0.187461
v 0.919931 0.298673 0.187461
v 0.903856 0.261298 0.222467
v 0.879306 0.223922 0.237639
v 0.963519 0.223923 0.040593
v 0.962618 0.261298 0.084974
v 0.948001 0.298673 0.121779
v 0.738252 0.298673 0.237639
v 0.713701 0.261298 0.222467
v 0.697627 0.223922 0.187461
v 0.833886 0.223923 0.262727
v 0.808779 0.261298 0.274985
v 0.783672 0.298673 0.262727
v 0.674352 0.336048 -0.065681
v 0.697460 0.339535 -0.137492
v 0.730493 0.336048 -0.197045
v 0.803985 0.336048 -0.237637
v 0.851299 0.339535 -0.222466
v 0.894824 0.336048 -0.187461
v 0.940243 0.336048 -0.081186
v 0.946376 0.339535 0.000000
v 0.940243 0.336048 0.081186
v 0.894824 0.336048 0.187461
v 0.851299 0.339535 0.222466
v 0.803985 0.336048 0.237637
v 0.730493 0.336048 0.197045
v 0.697460 0.339535 0.137492
v 0.674352 0.336048 0.065681
v 0.796225 0.405344 -0.065681
v 0.782500 0.387888 -0.137491
v 0.771118 0.359147 -0.197044
v 0.686905 0.359146 0.000000
v 0.723739 0.387888 0.000000
v 0.768154 0.405343 0.000000
v 0.841644 0.405343 -0.040593
v 0.877577 0.387888 -0.084973
v 0.907376 0.359146 -0.121779
v 0.841644 0.405343 0.040593
v 0.877577 0.387888 0.084973
v 0.907376 0.359146 0.121779
v 0.796225 0.405344 0.065681
v 0.782500 0.387888 0.137491
v 0.771118 0.359147 0.197044
v 0.750256 0.394402 0.072283
v 0.705548 0.368982 0.072284
v 0.736440 0.368982 0.144567
v 0.831133 0.394403 0.116956
v 0.817318 0.368982 0.189241
v 0.867303 0.368982 0.161630
v 0.881118 0.394402 0.000000
v 0.917287 0.368982 0.044673
v 0.917287 0.368982 -0.044673
v 0.831133 0.394403 -0.116956
v 0.867303 0.368982 -0.161630
v 0.817318 0.368982 -0.189240
v 0.750256 0.394402 -0.072283
v 0.736440 0.368982 -0.144567
v 0.705548 0.368982 -0.072284
v 0.669377 0.302430 0.116957
v 0.677915 0.261298 0.161631
v 0.700270 0.302430 0.189242
v 0.831133 0.302430 0.261526
v 0.858764 0.261298 0.261526
v 0.881118 0.302430 0.233916
v 0.961996 0.302430 0.044673
v 0.970535 0.261298 0.000000
v 0.961996 0.302430 -0.044673
v 0.881118 0.302430 -0.233916
v 0.858764 0.261298 -0.261526
v 0.831133 0.302430 -0.261525
v 0.700270 0.302430 -0.189242
v 0.677915 0.261298 -0.161631
v 0.669377 0.302430 -0.116957
v 0.758794 0.261298 0.261526
v 0.736439 0.220166 0.233916
v 0.786424 0.220166 0.261526
v 0.939642 0.261298 0.161631
v 0.917288 0.220166 0.189242
v 0.948180 0.220166 0.116958
v 0.939642 0.261298 -0.161631
v 0.948180 0.220166 -0.116957
v 0.917288 0.220166 -0.189242
v 0.758794 0.261298 -0.261526
v 0.786424 0.220166 -0.261525
v 0.736439 0.220166 -0.233916
v 0.647023 0.261298 0.000000
v 0.655562 0.220166 -0.044673
v 0.655562 0.220166 0.044673
v 0.750255 0.153613 0.161630
v 0.786425 0.128193 0.116957
v 0.800240 0.153613 0.189241
v 0.881118 0.153613 0.144567
v 0.867302 0.128193 0.072283
v 0.912011 0.153614 0.072283
v 0.912010 0.153614 -0.072284
v 0.867302 0.128193 -0.072284
v 0.881118 0.153613 -0.144567
v 0.700271 0.153613 0.044673
v 0.700270 0.153613 -0.044673
v 0.736440 0.128193 0.000000
v 0.800239 0.153613 -0.189240
v 0.786424 0.128193 -0.116957
v 0.750255 0.153613 -0.161630
v 0.808779 0.223970 0.261298
v 0.718742 0.292751 0.195883
v 0.843169 0.292751 0.155454
v 0.920070 0.292751 0.261298
v 0.843169 0.292751 0.367142
v 0.718742 0.292751 0.326712
v 0.774388 0.404043 0.155454
v 0.898815 0.404043 0.195883
v 0.898815 0.404043 0.326713
v 0.774388 0.404043 0.367142
v 0.697488 0.404043 0.261298
v 0.808779 0.472825 0.261298
v 0.828993 0.242552 0.199085
v 0.755857 0.242552 0.222848
v 0.776071 0.282981 0.160635
v 0.702935 0.282981 0.261298
v 0.755857 0.242552 0.299747
v 0.874194 0.242553 0.261298
v 0.894409 0.282981 0.199085
v 0.828993 0.242552 0.323511
v 0.894409 0.282981 0.323511
v 0.776071 0.282981 0.361961
v 0.690441 0.348397 0.222848
v 0.690441 0.348397 0.299748
v 0.808779 0.348397 0.136870
v 0.735642 0.348397 0.160634
v 0.927116 0.348397 0.222848
v 0.881915 0.348397 0.160634
v 0.881915 0.348397 0.361962
v 0.927116 0.348397 0.299748
v 0.735642 0.348397 0.361962
v 0.808779 0.348397 0.385725
v 0.723149 0.413813 0.199085
v 0.841487 0.413814 0.160635
v 0.914622 0.413813 0.261298
v 0.841487 0.413814 0.361961
v 0.723149 0.413813 0.323511
v 0.788565 0.454242 0.199085
v 0.743364 0.454241 0.261298
v 0.861700 0.454242 0.222848
v 0.861700 0.454242 0.299747
v 0.788565 0.454242 0.323511
v 0.883435 0.410611 0.317290
v 0.883435 0.510153 0.264409
v 0.839659 0.410611 0.296208
v 0.881003 0.510153 0.263237
v 0.828846 0.410611 0.248838
v 0.880402 0.510153 0.260605
v 0.859141 0.410611 0.210851
v 0.882086 0.510153 0.258495
v 0.907729 0.410611 0.210851
v 0.884785 0.510153 0.258495
v 0.938024 0.410611 0.248838
v 0.886468 0.510153 0.260605
v 0.927212 0.410611 0.296209
v 0.885867 0.510153 0.263237
v 0.883435 0.416832 0.304847
v 0.883435 0.491489 0.276229
v 0.859115 0.416832 0.293135
v 0.881490 0.491489 0.275292
v 0.853108 0.416832 0.266819
v 0.881009 0.491489 0.273187
v 0.869939 0.416832 0.245715
v 0.882355 0.491489 0.271498
v 0.896932 0.416832 0.245715
v 0.884515 0.491489 0.271498
v 0.913762 0.416832 0.266819
v 0.885862 0.491489 0.273187
v 0.907756 0.416832 0.293135
v 0.885381 0.491489 0.275292
v 0.734122 0.410611 0.317290
v 0.734122 0.510153 0.264409
v 0.690346 0.410611 0.296208
v 0.731690 0.510153 0.263237
v 0.679533 0.410611 0.248838
v 0.731089 0.510153 0.260605
v 0.709828 0.410611 0.210851
v 0.732773 0.510153 0.258495
v 0.758416 0.410611 0.210851
v 0.735472 0.510153 0.258495
v 0.788711 0.410611 0.248838
v 0.737155 0.510153 0.260605
v 0.777899 0.410611 0.296208
v 0.736554 0.510153 0.263237
v 0.734122 0.416832 0.304847
v 0.734122 0.491489 0.276229
v 0.709802 0.416832 0.293135
v 0.732177 0.491489 0.275292
v 0.703796 0.416832 0.266819
v 0.731696 0.491489 0.273187
v 0.720626 0.416832 0.245715
v 0.733042 0.491489 0.271498
v 0.747619 0.416832 0.245715
v 0.735202 0.491489 0.271498
v 0.764449 0.416832 0.266819
v 0.736549 0.491489 0.273187
v 0.758443 0.416832 0.293135
v 0.736068 0.491489 0.275292
v 0.808779 0.261298 0.360840
v 0.763760 0.288810 0.328132
v 0.825974 0.288810 0.307918
v 0.864425 0.288811 0.360840
v 0.825974 0.288810 0.413762
v 0.763760 0.288810 0.393547
v 0.791584 0.333328 0.307918
v 0.853797 0.333328 0.328132
v 0.853797 0.333328 0.393548
v 0.791584 0.333328 0.413762
v 0.753133 0.333327 0.360840
v 0.808779 0.360840 0.360840
v 0.818886 0.268731 0.329733
v 0.782318 0.268731 0.341615
v 0.792425 0.284902 0.310508
v 0.755857 0.284902 0.360840
v 0.782318 0.268731 0.380065
v 0.841486 0.268731 0.360840
v 0.851594 0.284902 0.329733
v 0.818886 0.268731 0.391947
v 0.851594 0.284902 0.391947
v 0.792425 0.284902 0.411171
v 0.749610 0.311069 0.341615
v 0.749610 0.311069 0.380065
v 0.808779 0.311069 0.298626
v 0.772210 0.311069 0.310508
v 0.867948 0.311069 0.341615
v 0.845347 0.311069 0.310508
v 0.845347 0.311069 0.411172
v 0.867948 0.311069 0.380065
v 0.772210 0.311069 0.411172
v 0.808779 0.311069 0.423054
v 0.765964 0.337235 0.329733
v 0.825133 0.337235 0.310508
v 0.861701 0.337235 0.360840
v 0.825133 0.337235 0.411171
v 0.765964 0.337235 0.391947
v 0.798672 0.353406 0.329733
v 0.776071 0.353406 0.360840
v 0.835240 0.353406 0.341615
v 0.835240 0.353406 0.380065
v 0.798671 0.353406 0.391947
v 0.808779 0.292405 0.410611
v 0.795273 0.302722 0.400798
v 0.813938 0.302722 0.394735
v 0.825473 0.302722 0.410611
v 0.813938 0.302722 0.426487
v 0.795273 0.302722 0.420423
v 0.803620 0.319415 0.394735
v 0.822284 0.319415 0.400798
v 0.822284 0.319415 0.420423
v 0.803620 0.319415 0.426487
v 0.792085 0.319415 0.410611
v 0.808779 0.329733 0.410611
v 0.864771 0.348397 0.348397
v 0.846764 0.362153 0.335314
v 0.871649 0.362153 0.327228
v 0.887029 0.362153 0.348397
v 0.871649 0.362153 0.369566
v 0.846764 0.362153 0.361480
v 0.857893 0.384412 0.327228
v 0.882778 0.384412 0.335314
v 0.882778 0.384412 0.361480
v 0.857893 0.384412 0.369566
v 0.842513 0.384412 0.348397
v 0.864771 0.398168 0.348397
v 0.752786 0.348397 0.348397
v 0.734779 0.362153 0.335314
v 0.759664 0.362153 0.327228
v 0.775045 0.362153 0.348397
v 0.759664 0.362153 0.369566
v 0.734779 0.362153 0.361480
v 0.745909 0.384412 0.327228
v 0.770794 0.384412 0.335314
v 0.770794 0.384412 0.361480
v 0.745909 0.384412 0.369566
v 0.730528 0.384412 0.348397
v 0.752786 0.398168 0.348397
v 0.845828 0.314790 0.385632
v 0.995327 0.324752 0.435465
v 0.847287 0.311069 0.382184
v 0.995813 0.323512 0.434316
v 0.846386 0.307348 0.385818
v 0.995513 0.322271 0.435527
v 0.844927 0.311069 0.389267
v 0.995026 0.323512 0.436677
v 0.771730 0.314790 0.385632
v 0.622230 0.324752 0.435465
v 0.772631 0.311069 0.389267
v 0.622531 0.323512 0.436677
v 0.771171 0.307348 0.385818
v 0.622044 0.322271 0.435527
v 0.770270 0.311069 0.382184
v 0.621744 0.323512 0.434316
v 0.808779 0.308047 -0.198153
v 0.808779 0.367452 -0.330139
v 0.781840 0.294005 -0.204840
v 0.784534 0.354814 -0.336157
v 0.781840 0.265919 -0.218213
v 0.784534 0.329538 -0.348194
v 0.808779 0.251877 -0.224901
v 0.808779 0.316899 -0.354212
v 0.835718 0.265919 -0.218213
v 0.833024 0.329538 -0.348194
v 0.835718 0.294005 -0.204840
v 0.833024 0.354814 -0.336157
v 0.808779 0.349421 -0.318368
v 0.808779 0.491607 -0.364894
v 0.787227 0.345798 -0.330272
v 0.789921 0.488437 -0.375309
v 0.787227 0.338553 -0.354080
v 0.789921 0.482098 -0.396141
v 0.808779 0.334930 -0.365983
v 0.808779 0.478927 -0.406557
v 0.830330 0.338553 -0.354080
v 0.827636 0.482098 -0.396141
v 0.830330 0.345798 -0.330272
v 0.827636 0.488437 -0.375309
v 0.808779 0.496031 -0.400973
v 0.808779 0.600000 -0.323775
v 0.824943 0.490649 -0.393350
v 0.822249 0.595516 -0.317422
v 0.824943 0.479886 -0.378102
v 0.822249 0.586546 -0.304715
v 0.808779 0.474504 -0.370477
v 0.808779 0.582061 -0.298362
v 0.792615 0.479886 -0.378101
v 0.795309 0.586546 -0.304715
v 0.792615 0.490649 -0.393350
v 0.795309 0.595516 -0.317422
vn -0.000000 -0.630300 0.776400
vn -0.000000 0.630300 0.776400
vn -0.549000 0.630300 0.549000
vn -0.549000 -0.630300 0.549000
vn -0.776400 0.630300 0.000000
vn -0.776400 -0.630300 0.000000
vn -0.549000 0.630300 -0.549000
vn -0.549000 -0.630300 -0.549000
vn -0.000000 0.630300 -0.776400
vn -0.000000 -0.630300 -0.776400
vn 0.549000 0.630300 -0.549000
vn 0.549000 -0.630300 -0.549000
vn 0.776400 0.630300 0.000000
vn 0.776400 -0.630300 0.000000
vn 0.549000 0.630300 0.549000
vn 0.549000 -0.630300 0.549000
vn -0.001800 -1.000000 0.000000
vn -0.197100 -0.976600 -0.086400
vn 0.074200 -0.987500 -0.139200
vn -0.781500 -0.522400 -0.341100
vn -0.618600 -0.738400 -0.268500
vn -0.818800 -0.547200 -0.173300
vn 0.243000 -0.970000 0.000000
vn 0.074200 -0.987500 0.139200
vn -0.197100 -0.976600 0.086400
vn -0.919300 -0.278000 -0.278600
vn 0.365100 -0.638200 -0.677700
vn 0.025400 -0.719100 -0.694400
vn 0.228100 -0.397200 -0.888900
vn 0.880600 -0.473900 0.000000
vn 0.827300 -0.542000 -0.147400
vn 0.960200 -0.263500 -0.093000
vn 0.365100 -0.638200 0.677700
vn 0.578500 -0.641300 0.503900
vn 0.602000 -0.355500 0.715000
vn -0.781500 -0.522400 0.341100
vn -0.609000 -0.630600 0.481000
vn -0.812300 -0.312800 0.492200
vn -0.812300 -0.312800 -0.492200
vn 0.602000 -0.355500 -0.715000
vn 0.960200 -0.263500 0.093000
vn 0.228100 -0.397200 0.888900
vn -0.919300 -0.278000 0.278600
vn -0.365100 0.638200 -0.677700
vn -0.578500 0.641300 -0.503900
vn -0.266700 0.828500 -0.492400
vn 0.781500 0.522400 -0.341100
vn 0.609000 0.630600 -0.481000
vn 0.618600 0.738400 -0.268500
vn 0.781500 0.522400 0.341100
vn 0.818800 0.547200 0.173300
vn 0.618600 0.738400 0.268500
vn -0.365100 0.638200 0.677700
vn -0.025400 0.719100 0.694400
vn -0.266700 0.828500 0.492400
vn -0.880600 0.473900 0.000000
vn -0.827300 0.542000 0.147400
vn -0.719100 0.694900 0.000000
vn -0.243000 0.970000 0.000000
vn -0.074200 0.987500 0.139200
vn 0.001800 1.000000 0.000000
vn -0.495900 0.868400 0.000000
vn -0.352800 0.923000 0.153700
vn -0.618300 0.770100 0.157100
vn -0.164900 0.937800 0.305600
vn -0.469400 0.820900 0.325200
vn -0.731500 0.602500 0.319100
vn -0.578500 0.641300 0.503900
vn 0.197100 0.976600 0.086400
vn 0.139900 0.956100 0.257500
vn 0.066900 0.883600 0.463500
vn 0.412500 0.893100 0.179500
vn 0.379900 0.843800 0.379200
vn 0.331700 0.712600 0.618100
vn 0.609000 0.630600 0.481000
vn 0.197100 0.976600 -0.086400
vn 0.427200 0.904200 0.000000
vn 0.644800 0.759100 0.089400
vn 0.412500 0.893100 -0.179500
vn 0.644800 0.759100 -0.089400
vn 0.831500 0.555500 0.000000
vn 0.818800 0.547200 -0.173300
vn -0.074200 0.987500 -0.139200
vn 0.139900 0.956100 -0.257500
vn 0.379900 0.843800 -0.379200
vn -0.164900 0.937800 -0.305600
vn 0.066900 0.883600 -0.463500
vn 0.331700 0.712600 -0.618100
vn -0.025400 0.719100 -0.694400
vn -0.352800 0.923000 -0.153700
vn -0.469400 0.820900 -0.325200
vn -0.618300 0.770100 -0.157100
vn -0.731500 0.602500 -0.319100
vn -0.827300 0.542000 -0.147400
vn -0.960200 0.263500 0.093000
vn -0.981500 0.000300 0.191300
vn -0.909600 0.311300 0.275200
vn -0.916100 0.010800 0.400900
vn -0.800700 0.347000 0.488400
vn -0.766700 -0.001100 0.642000
vn -0.602000 0.355500 0.715000
vn -0.228100 0.397200 0.888900
vn -0.000000 -0.000000 1.000000
vn 0.218000 0.436400 0.873000
vn 0.466500 0.014400 0.884400
vn 0.593200 0.394500 0.701800
vn 0.766700 0.001100 0.642000
vn 0.812300 0.312800 0.492200
vn 0.919300 0.278000 0.278600
vn 0.981500 -0.000300 0.191300
vn 0.951000 0.294900 0.092900
vn 1.000000 0.009600 0.000000
vn 0.951000 0.294900 -0.092900
vn 0.981500 -0.000300 -0.191300
vn 0.919300 0.278000 -0.278600
vn 0.812300 0.312800 -0.492200
vn 0.766700 0.001100 -0.642000
vn 0.593200 0.394500 -0.701800
vn 0.466500 0.014400 -0.884400
vn 0.218000 0.436400 -0.873000
vn -0.000000 -0.000000 -1.000000
vn -0.228100 0.397200 -0.888900
vn -0.602000 0.355500 -0.715000
vn -0.766700 -0.001100 -0.642000
vn -0.800700 0.347000 -0.488400
vn -0.916100 0.010800 -0.400900
vn -0.909600 0.311300 -0.275200
vn -0.981500 0.000300 -0.191300
vn -0.960200 0.263500 -0.093000
vn -0.466500 -0.014400 0.884400
vn -0.593200 -0.394500 0.701800
vn -0.218000 -0.436400 0.873000
vn -0.331700 -0.712600 0.618100
vn 0.025400 -0.719100 0.694400
vn 0.916100 -0.010800 0.400900
vn 0.800700 -0.347000 0.488400
vn 0.909600 -0.311300 0.275200
vn 0.731500 -0.602500 0.319100
vn 0.827300 -0.542000 0.147400
vn 0.916100 -0.010800 -0.400900
vn 0.909600 -0.311300 -0.275200
vn 0.800700 -0.347000 -0.488400
vn 0.731500 -0.602500 -0.319100
vn 0.578500 -0.641300 -0.503900
vn -0.466500 -0.014400 -0.884400
vn -0.218000 -0.436400 -0.873000
vn -0.593200 -0.394500 -0.701800
vn -0.331700 -0.712600 -0.618100
vn -0.609000 -0.630600 -0.481000
vn -1.000000 -0.009600 0.000000
vn -0.951000 -0.294900 -0.092900
vn -0.951000 -0.294900 0.092900
vn -0.831500 -0.555500 0.000000
vn -0.818800 -0.547200 0.173300
vn -0.618600 -0.738400 0.268500
vn -0.412500 -0.893100 0.179500
vn -0.379900 -0.843800 0.379200
vn -0.139900 -0.956100 0.257500
vn -0.066900 -0.883600 0.463500
vn 0.164900 -0.937800 0.305600
vn 0.266700 -0.828500 0.492400
vn 0.469400 -0.820900 0.325200
vn 0.352800 -0.923000 0.153700
vn 0.618300 -0.770100 0.157100
vn 0.495900 -0.868400 0.000000
vn 0.719100 -0.694900 0.000000
vn 0.618300 -0.770100 -0.157100
vn 0.352800 -0.923000 -0.153700
vn 0.469400 -0.820900 -0.325200
vn 0.164900 -0.937800 -0.305600
vn 0.266700 -0.828500 -0.492400
vn -0.644800 -0.759100 0.089400
vn -0.644800 -0.759100 -0.089400
vn -0.427200 -0.904200 0.000000
vn -0.412500 -0.893100 -0.179500
vn -0.066900 -0.883600 -0.463500
vn -0.139900 -0.956100 -0.257500
vn -0.379900 -0.843800 -0.379200
vn -0.000000 -1.000000 0.000000
vn -0.425300 -0.850700 -0.309000
vn 0.162500 -0.850700 -0.500000
vn -0.723600 -0.447200 -0.525700
vn -0.850600 -0.525700 0.000000
vn 0.525700 -0.850700 0.000000
vn 0.162500 -0.850700 0.500000
vn -0.425300 -0.850700 0.309000
vn -0.951100 -0.000000 -0.309000
vn 0.276400 -0.447200 -0.850600
vn -0.262900 -0.525700 -0.809000
vn 0.894400 -0.447200 0.000000
vn 0.688200 -0.525700 -0.500000
vn 0.951100 -0.000000 -0.309000
vn 0.276400 -0.447200 0.850600
vn 0.688200 -0.525700 0.500000
vn 0.587800 -0.000000 0.809000
vn -0.723600 -0.447200 0.525700
vn -0.262900 -0.525700 0.809000
vn -0.587800 -0.000000 0.809000
vn -0.587800 -0.000000 -0.809000
vn 0.587800 -0.000000 -0.809000
vn 0.951100 -0.000000 0.309000
vn -0.951100 -0.000000 0.309000
vn -0.276400 0.447200 -0.850600
vn -0.688200 0.525700 -0.500000
vn -0.162500 0.850700 -0.500000
vn 0.723600 0.447200 -0.525700
vn 0.262900 0.525700 -0.809000
vn 0.425300 0.850700 -0.309000
vn 0.723600 0.447200 0.525700
vn 0.850600 0.525700 0.000000
vn 0.425300 0.850700 0.309000
vn -0.276400 0.447200 0.850600
vn 0.262900 0.525700 0.809000
vn -0.162500 0.850700 0.500000
vn -0.894400 0.447200 0.000000
vn -0.688200 0.525700 0.500000
vn -0.525700 0.850700 0.000000
vn -0.000000 1.000000 0.000000
vn -0.000000 -0.432400 0.901700
vn -0.000000 0.794600 0.607200
vn -0.474700 0.794600 0.378500
vn -0.705000 -0.432400 0.562200
vn -0.592000 0.794600 -0.135100
vn -0.879100 -0.432400 -0.200600
vn -0.263400 0.794600 -0.547000
vn -0.391200 -0.432400 -0.812400
vn 0.263400 0.794600 -0.547000
vn 0.391200 -0.432400 -0.812400
vn 0.592000 0.794600 -0.135100
vn 0.879100 -0.432400 -0.200600
vn 0.474700 0.794600 0.378500
vn 0.705000 -0.432400 0.562200
vn -0.000000 -0.480500 0.877000
vn -0.000000 0.753600 0.657400
vn -0.513900 0.753600 0.409900
vn -0.685700 -0.480500 0.546800
vn -0.640900 0.753600 -0.146300
vn -0.855000 -0.480500 -0.195200
vn -0.285200 0.753600 -0.592300
vn -0.380500 -0.480500 -0.790200
vn 0.285200 0.753600 -0.592300
vn 0.380500 -0.480500 -0.790200
vn 0.640900 0.753600 -0.146300
vn 0.855000 -0.480500 -0.195200
vn 0.513900 0.753600 0.409800
vn 0.685700 -0.480500 0.546800
vn -0.513900 0.753600 0.409800
vn 0.513900 0.753600 0.409900
vn -0.369400 -0.889700 -0.268400
vn 0.141100 -0.889700 -0.434300
vn -0.695400 -0.511100 -0.505200
vn -0.808000 -0.589200 0.000000
vn 0.456600 -0.889700 0.000000
vn 0.141100 -0.889700 0.434300
vn -0.369400 -0.889700 0.268400
vn 0.265600 -0.511100 -0.817500
vn -0.249700 -0.589200 -0.768400
vn 0.859500 -0.511100 0.000000
vn 0.653700 -0.589200 -0.474900
vn 0.265600 -0.511100 0.817500
vn 0.653700 -0.589200 0.474900
vn -0.695400 -0.511100 0.505200
vn -0.249700 -0.589200 0.768400
vn -0.265600 0.511100 -0.817500
vn -0.653700 0.589200 -0.474900
vn -0.141100 0.889700 -0.434300
vn 0.695400 0.511100 -0.505200
vn 0.249700 0.589200 -0.768400
vn 0.369400 0.889700 -0.268400
vn 0.695400 0.511100 0.505200
vn 0.808000 0.589200 0.000000
vn 0.369400 0.889700 0.268400
vn -0.265600 0.511100 0.817500
vn 0.249700 0.589200 0.768400
vn -0.141100 0.889700 0.434300
vn -0.859500 0.511100 0.000000
vn -0.653700 0.589200 0.474900
vn -0.456600 0.889700 0.000000
vn 0.276400 -0.447200 -0.850700
vn 0.276400 -0.447200 0.850700
vn -0.276400 0.447200 -0.850700
vn -0.276400 0.447200 0.850700
vn -0.601900 0.773000 -0.200600
vn 0.490700 0.855800 0.163600
vn 0.808500 0.046000 -0.586700
vn -0.281000 -0.045000 -0.958700
vn 0.612400 -0.763800 0.204100
vn -0.479100 -0.863100 -0.159700
vn 0.294600 0.046000 0.954500
vn -0.799900 -0.045100 0.598400
vn 0.601900 0.773000 -0.200600
vn -0.490800 0.855800 0.163600
vn -0.294700 0.046000 0.954500
vn 0.799900 -0.045100 0.598400
vn -0.612200 -0.763900 0.204100
vn 0.479100 -0.863100 -0.159700
vn -0.808500 0.046000 -0.586700
vn 0.281000 -0.045100 -0.958600
vn -0.000000 0.462200 0.886800
vn -0.000000 0.975500 -0.220000
vn -0.680800 0.620600 -0.389000
vn -0.691600 0.101700 0.715100
vn -0.680800 -0.089200 -0.727000
vn -0.691600 -0.619300 0.371800
vn -0.000000 -0.444000 -0.896000
vn -0.000000 -0.979800 0.200100
vn 0.680800 -0.089200 -0.727000
vn 0.691600 -0.619300 0.371800
vn 0.680800 0.620600 -0.389000
vn 0.691600 0.101700 0.715100
vn -0.000000 -0.343600 0.939100
vn -0.000000 0.820000 0.572400
vn -0.681000 0.705500 0.196300
vn -0.691400 -0.459900 0.557200
vn -0.681000 0.476600 -0.556000
vn -0.691400 -0.692300 -0.206600
vn -0.000000 0.362100 -0.932100
vn -0.000000 -0.808500 -0.588400
vn 0.681000 0.476600 -0.556000
vn 0.691400 -0.692300 -0.206600
vn 0.681000 0.705500 0.196300
vn 0.691400 -0.459900 0.557200
vn -0.000000 -0.030000 -0.999500
vn -0.000000 0.958600 -0.284700
vn 0.680200 0.732200 0.036200
vn 0.692200 -0.260500 -0.673100
vn 0.680200 0.279200 0.677800
vn 0.692200 -0.721400 -0.020100
vn -0.000000 0.052800 0.998600
vn -0.000000 -0.951900 0.306400
vn -0.680200 0.279200 0.677800
vn -0.692200 -0.721400 -0.020100
vn -0.680200 0.732200 0.036200
vn -0.692200 -0.260500 -0.673100
vt 0.227473 0.873790
vt 0.227473 0.717380
vt 0.240758 0.717386
vt 0.240758 0.873796
vt 0.778045 0.168053
vt 0.778045 0.011659
vt 0.788060 0.011810
vt 0.788060 0.168203
vt 0.801332 0.011794
vt 0.801332 0.168188
vt 0.809308 0.700603
vt 0.809308 0.544343
vt 0.818530 0.544772
vt 0.818530 0.701032
vt 0.831829 0.544783
vt 0.831829 0.701043
vt 0.715877 0.700648
vt 0.715877 0.544343
vt 0.726143 0.544663
vt 0.726143 0.700968
vt 0.738582 0.943984
vt 0.725282 0.943985
vt 0.715877 0.934579
vt 0.715877 0.921277
vt 0.725282 0.911871
vt 0.738582 0.911871
vt 0.747987 0.921277
vt 0.747987 0.934578
vt 0.739383 0.544615
vt 0.739383 0.700920
vt 0.218553 0.873702
vt 0.218553 0.717291
vt 0.806973 0.228181
vt 0.793673 0.228181
vt 0.784268 0.218775
vt 0.784268 0.205473
vt 0.793673 0.196068
vt 0.806973 0.196068
vt 0.816377 0.205474
vt 0.816377 0.218776
vt 0.864068 0.700842
vt 0.864068 0.544432
vt 0.877353 0.544438
vt 0.877353 0.700848
vt 0.762702 0.700737
vt 0.762702 0.544343
vt 0.772717 0.544493
vt 0.772717 0.700887
vt 0.785989 0.544478
vt 0.785989 0.700872
vt 0.809953 0.513757
vt 0.809953 0.357497
vt 0.819175 0.357925
vt 0.819175 0.514186
vt 0.832474 0.357937
vt 0.832474 0.514197
vt 0.168700 0.551304
vt 0.168700 0.395000
vt 0.178966 0.395320
vt 0.178966 0.551624
vt 0.949253 0.951188
vt 0.935953 0.951188
vt 0.926549 0.941783
vt 0.926549 0.928481
vt 0.935953 0.919075
vt 0.949254 0.919075
vt 0.958658 0.928480
vt 0.958658 0.941782
vt 0.192206 0.395271
vt 0.192206 0.551576
vt 0.855148 0.700753
vt 0.855148 0.544343
vt 0.034364 0.964345
vt 0.021064 0.964345
vt 0.011659 0.954939
vt 0.011659 0.941637
vt 0.021064 0.932232
vt 0.034364 0.932232
vt 0.043769 0.941638
vt 0.043769 0.954940
vt 0.272997 0.873790
vt 0.272997 0.717380
vt 0.286282 0.717386
vt 0.286282 0.873796
vt 0.763347 0.513890
vt 0.763347 0.357497
vt 0.773362 0.357647
vt 0.773362 0.514041
vt 0.786634 0.357632
vt 0.786634 0.514025
vt 0.824651 0.167920
vt 0.824651 0.011659
vt 0.833873 0.012088
vt 0.833873 0.168348
vt 0.847172 0.012100
vt 0.847172 0.168360
vt 0.364738 0.703587
vt 0.364738 0.547282
vt 0.375004 0.547603
vt 0.375004 0.703907
vt 0.935090 0.515508
vt 0.921789 0.515508
vt 0.912385 0.506102
vt 0.912385 0.492800
vt 0.921790 0.483395
vt 0.935090 0.483395
vt 0.944495 0.492800
vt 0.944494 0.506102
vt 0.388244 0.547554
vt 0.388244 0.703859
vt 0.264077 0.873702
vt 0.264077 0.717291
vt 0.185294 0.975547
vt 0.171993 0.975547
vt 0.162589 0.966141
vt 0.162589 0.952839
vt 0.171993 0.943434
vt 0.185294 0.943434
vt 0.194698 0.952840
vt 0.194698 0.966142
vt 0.318520 0.873790
vt 0.318520 0.717380
vt 0.331805 0.717386
vt 0.331805 0.873796
vt 0.731439 0.168053
vt 0.731439 0.011659
vt 0.741454 0.011810
vt 0.741454 0.168203
vt 0.754726 0.011794
vt 0.754726 0.168188
vt 0.513103 0.851642
vt 0.513103 0.695382
vt 0.522325 0.695810
vt 0.522325 0.852071
vt 0.535624 0.695822
vt 0.535624 0.852082
vt 0.716523 0.513801
vt 0.716523 0.357497
vt 0.726788 0.357817
vt 0.726788 0.514121
vt 0.751544 0.228181
vt 0.738244 0.228181
vt 0.728839 0.218775
vt 0.728840 0.205473
vt 0.738245 0.196068
vt 0.751545 0.196068
vt 0.760949 0.205473
vt 0.760949 0.218775
vt 0.740028 0.357768
vt 0.740028 0.514073
vt 0.309601 0.873702
vt 0.309601 0.717291
vt 0.832013 0.943070
vt 0.818713 0.943069
vt 0.809308 0.933663
vt 0.809308 0.920362
vt 0.818713 0.910956
vt 0.832013 0.910956
vt 0.841417 0.920362
vt 0.841417 0.933664
vt 0.100532 0.192217
vt 0.126493 0.217772
vt 0.096966 0.238775
vt 0.542326 0.464880
vt 0.562279 0.478540
vt 0.542064 0.510389
vt 0.072295 0.195422
vt 0.086575 0.147626
vt 0.120072 0.161439
vt 0.519688 0.482121
vt 0.591172 0.613097
vt 0.585598 0.586566
vt 0.610756 0.592312
vt 0.435915 0.138883
vt 0.425477 0.098129
vt 0.452298 0.107272
vt 0.459996 0.313869
vt 0.449602 0.283499
vt 0.479136 0.308508
vt 0.686771 0.381963
vt 0.691748 0.414519
vt 0.666167 0.397957
vt 0.526073 0.432800
vt 0.611243 0.628391
vt 0.458851 0.161103
vt 0.483525 0.334178
vt 0.666914 0.360585
vt 0.253709 0.345862
vt 0.234717 0.316713
vt 0.262980 0.321161
vt 0.375106 0.302114
vt 0.349083 0.328255
vt 0.365242 0.284308
vt 0.541096 0.227946
vt 0.540900 0.182297
vt 0.561866 0.213617
vt 0.305363 0.023249
vt 0.333384 0.025077
vt 0.306492 0.049401
vt 0.436717 0.553760
vt 0.425335 0.593791
vt 0.415453 0.545839
vt 0.283196 0.184875
vt 0.309803 0.142683
vt 0.311259 0.189354
vt 0.252381 0.179999
vt 0.278716 0.133071
vt 0.226670 0.175979
vt 0.247612 0.128176
vt 0.308078 0.091677
vt 0.276894 0.081741
vt 0.225014 0.129339
vt 0.248914 0.082365
vt 0.278229 0.044953
vt 0.338350 0.165000
vt 0.339415 0.111198
vt 0.337593 0.059868
vt 0.367836 0.138394
vt 0.369010 0.084429
vt 0.392134 0.116353
vt 0.364371 0.040759
vt 0.390478 0.069712
vt 0.551842 0.261798
vt 0.329387 0.220985
vt 0.360967 0.197371
vt 0.390561 0.170602
vt 0.349072 0.255588
vt 0.380696 0.232215
vt 0.561931 0.159612
vt 0.536442 0.126924
vt 0.554720 0.100371
vt 0.527796 0.074635
vt 0.392134 0.259985
vt 0.517761 0.036235
vt 0.542210 0.052125
vt 0.295300 0.233269
vt 0.313588 0.272502
vt 0.333318 0.307347
vt 0.277717 0.281302
vt 0.295804 0.320866
vt 0.315245 0.347581
vt 0.280908 0.352823
vt 0.262754 0.232763
vt 0.244970 0.281126
vt 0.231650 0.227868
vt 0.218553 0.271992
vt 0.441543 0.455124
vt 0.437111 0.507671
vt 0.415453 0.493402
vt 0.453102 0.585259
vt 0.475017 0.617540
vt 0.443927 0.631563
vt 0.497854 0.641796
vt 0.468552 0.662673
vt 0.416893 0.635401
vt 0.640546 0.377062
vt 0.611304 0.398625
vt 0.612127 0.357497
vt 0.437995 0.672063
vt 0.587200 0.419366
vt 0.585598 0.380632
vt 0.639655 0.417848
vt 0.613024 0.437145
vt 0.592141 0.451742
vt 0.612034 0.473300
vt 0.585598 0.477867
vt 0.637581 0.493533
vt 0.608450 0.502797
vt 0.663195 0.506424
vt 0.636602 0.521024
vt 0.354374 0.011659
vt 0.507988 0.324982
vt 0.533049 0.298430
vt 0.537879 0.326681
vt 0.559345 0.293344
vt 0.502488 0.290114
vt 0.524681 0.260255
vt 0.517919 0.211119
vt 0.488333 0.187259
vt 0.513566 0.156863
vt 0.481063 0.129341
vt 0.506355 0.097621
vt 0.474618 0.074574
vt 0.498262 0.049627
vt 0.664696 0.667925
vt 0.690934 0.651612
vt 0.686353 0.683494
vt 0.637632 0.648100
vt 0.666119 0.630080
vt 0.636706 0.608326
vt 0.692558 0.613952
vt 0.665583 0.590374
vt 0.689960 0.579453
vt 0.636612 0.572574
vt 0.663234 0.559686
vt 0.684618 0.555002
vt 0.479536 0.384073
vt 0.449882 0.409030
vt 0.459458 0.378113
vt 0.503619 0.402880
vt 0.471923 0.423931
vt 0.497531 0.450744
vt 0.464896 0.478210
vt 0.490251 0.506124
vt 0.460379 0.532035
vt 0.638633 0.457981
vt 0.667876 0.436418
vt 0.666786 0.476208
vt 0.693204 0.452517
vt 0.689767 0.486830
vt 0.077608 0.027542
vt 0.050121 0.033266
vt 0.061126 0.011660
vt 0.495716 0.242657
vt 0.470655 0.269209
vt 0.463213 0.215135
vt 0.440664 0.237763
vt 0.436078 0.185229
vt 0.494423 0.011660
vt 0.469627 0.028316
vt 0.444335 0.060036
vt 0.639299 0.688002
vt 0.440109 0.018253
vt 0.609886 0.666248
vt 0.418472 0.055433
vt 0.585598 0.682749
vt 0.586386 0.644944
vt 0.482590 0.357497
vt 0.637359 0.544343
vt 0.608483 0.562296
vt 0.507919 0.367217
vt 0.536888 0.364782
vt 0.533527 0.394030
vt 0.115201 0.357327
vt 0.146866 0.343063
vt 0.135563 0.371681
vt 0.558721 0.398248
vt 0.552396 0.430587
vt 0.482494 0.563597
vt 0.515129 0.536132
vt 0.507119 0.594707
vt 0.537092 0.565298
vt 0.527509 0.616839
vt 0.516407 0.654433
vt 0.158756 0.099803
vt 0.144601 0.055170
vt 0.169415 0.082462
vt 0.141303 0.127762
vt 0.127906 0.075343
vt 0.106620 0.109260
vt 0.111673 0.034333
vt 0.091043 0.060141
vt 0.071184 0.098846
vt 0.058266 0.058361
vt 0.029830 0.061525
vt 0.038463 0.097540
vt 0.054040 0.146659
vt 0.011660 0.105470
vt 0.022747 0.150141
vt 0.415453 0.198853
vt 0.041290 0.198899
vt 0.015424 0.201751
vt 0.415453 0.146309
vt 0.034182 0.250454
vt 0.065475 0.246971
vt 0.011659 0.248269
vt 0.033410 0.296276
vt 0.061333 0.298165
vt 0.061002 0.334976
vt 0.092935 0.289651
vt 0.089437 0.331812
vt 0.087126 0.357885
vt 0.540446 0.638215
vt 0.553992 0.590766
vt 0.562001 0.532191
vt 0.184519 0.125318
vt 0.171837 0.152542
vt 0.195234 0.181173
vt 0.178904 0.214538
vt 0.150551 0.186458
vt 0.178021 0.268803
vt 0.154745 0.245685
vt 0.120980 0.322762
vt 0.125123 0.271568
vt 0.153476 0.299648
vt 0.174257 0.315321
vt 0.071462 0.469669
vt 0.057345 0.512908
vt 0.025778 0.469465
vt 0.305081 0.659117
vt 0.296803 0.693972
vt 0.258544 0.667580
vt 0.057345 0.426021
vt 0.108422 0.442615
vt 0.108422 0.496314
vt 0.279515 0.621390
vt 0.663754 0.295445
vt 0.631189 0.321805
vt 0.620494 0.276259
vt 0.621751 0.124078
vt 0.585250 0.128426
vt 0.596085 0.084152
vt 0.708120 0.126134
vt 0.668263 0.132447
vt 0.698157 0.087846
vt 0.055822 0.684285
vt 0.027008 0.646866
vt 0.079236 0.646866
vt 0.330735 0.619236
vt 0.666433 0.248938
vt 0.647390 0.086637
vt 0.011659 0.605164
vt 0.034505 0.566140
vt 0.053277 0.600360
vt 0.102465 0.687895
vt 0.341235 0.495731
vt 0.301198 0.520238
vt 0.315316 0.476348
vt 0.663754 0.204328
vt 0.620494 0.222702
vt 0.631189 0.181592
vt 0.672608 0.048198
vt 0.625979 0.039551
vt 0.663512 0.011660
vt 0.100514 0.605163
vt 0.086732 0.566140
vt 0.133367 0.591497
vt 0.254337 0.523963
vt 0.218553 0.493389
vt 0.264239 0.492942
vt 0.232671 0.449499
vt 0.278356 0.449294
vt 0.128734 0.641388
vt 0.264239 0.406055
vt 0.218553 0.406501
vt 0.254337 0.376142
vt 0.315315 0.422649
vt 0.301198 0.379652
vt 0.341235 0.404373
vt 0.352275 0.449944
vt 0.585598 0.250809
vt 0.585250 0.208912
vt 0.300846 0.574618
vt 0.254231 0.583208
vt 0.263169 0.547282
vt 0.228656 0.622961
vt 0.218553 0.577160
vt 0.708120 0.041507
vt 0.585323 0.043970
vt 0.341372 0.579543
vt 0.705520 0.224042
vt 0.705521 0.277598
vt 0.585250 0.295569
vt 0.341419 0.664095
vt 0.218553 0.661790
vt 0.017959 0.687895
vt 0.145381 0.469019
vt 0.134342 0.423232
vt 0.094304 0.398725
vt 0.629859 0.158273
vt 0.011659 0.425574
vt 0.047444 0.395000
vt 0.683738 0.322632
vt 0.094304 0.539311
vt 0.134341 0.514590
vt 0.011659 0.512462
vt 0.047444 0.542821
vt 0.809308 0.887637
vt 0.825146 0.817822
vt 0.827031 0.817822
vt 0.843241 0.887637
vt 0.415453 0.864600
vt 0.446940 0.794943
vt 0.448547 0.794970
vt 0.444379 0.865084
vt 0.450319 0.794970
vt 0.476284 0.865084
vt 0.728839 0.322632
vt 0.755465 0.251572
vt 0.757192 0.251572
vt 0.759938 0.322632
vt 0.758859 0.251500
vt 0.789930 0.321337
vt 0.376412 0.509977
vt 0.378249 0.509558
vt 0.379723 0.510733
vt 0.379723 0.512618
vt 0.378249 0.513794
vt 0.376412 0.513374
vt 0.375594 0.511676
vt 0.813249 0.322287
vt 0.831436 0.251556
vt 0.833316 0.251556
vt 0.847094 0.322287
vt 0.834595 0.251500
vt 0.870106 0.321280
vt 0.489784 0.750472
vt 0.463256 0.771624
vt 0.430175 0.764070
vt 0.415453 0.733497
vt 0.430175 0.702928
vt 0.463256 0.695382
vt 0.489784 0.716541
vt 0.938661 0.284500
vt 0.947233 0.232202
vt 0.948741 0.232202
vt 0.957512 0.284500
vt 0.358339 0.940614
vt 0.375469 0.888403
vt 0.376755 0.888425
vt 0.374409 0.940883
vt 0.378173 0.888425
vt 0.392134 0.940883
vt 0.513103 0.928414
vt 0.527229 0.875459
vt 0.528611 0.875459
vt 0.530380 0.928414
vt 0.529944 0.875401
vt 0.547042 0.927695
vt 0.558943 0.831169
vt 0.558943 0.829661
vt 0.560122 0.828721
vt 0.561593 0.829057
vt 0.562247 0.830415
vt 0.561593 0.831774
vt 0.560122 0.832110
vt 0.923131 0.064489
vt 0.932934 0.011704
vt 0.934438 0.011704
vt 0.941934 0.064489
vt 0.935461 0.011659
vt 0.954718 0.063930
vt 0.622209 0.914974
vt 0.622209 0.933823
vt 0.607470 0.945576
vt 0.589091 0.941382
vt 0.580911 0.924400
vt 0.589091 0.907417
vt 0.607470 0.903222
vt 0.715877 0.888552
vt 0.731715 0.818738
vt 0.733600 0.818738
vt 0.749810 0.888552
vt 0.809308 0.794019
vt 0.840795 0.724362
vt 0.842402 0.724389
vt 0.838234 0.794503
vt 0.844174 0.724389
vt 0.870139 0.794503
vt 0.715877 0.795418
vt 0.742502 0.724359
vt 0.744230 0.724359
vt 0.746976 0.795418
vt 0.745896 0.724287
vt 0.776968 0.794123
vt 0.685267 0.715557
vt 0.683430 0.715137
vt 0.682612 0.713439
vt 0.683430 0.711740
vt 0.685267 0.711321
vt 0.686741 0.712496
vt 0.686741 0.714381
vt 0.109310 0.880864
vt 0.127497 0.810133
vt 0.129377 0.810133
vt 0.143155 0.880864
vt 0.130655 0.810077
vt 0.166166 0.879857
vt 0.085991 0.766304
vt 0.059462 0.787456
vt 0.026382 0.779902
vt 0.011660 0.749329
vt 0.026382 0.718760
vt 0.059462 0.711214
vt 0.085991 0.732373
vt 0.109310 0.956482
vt 0.117882 0.904183
vt 0.119390 0.904183
vt 0.128161 0.956482
vt 0.218553 0.949327
vt 0.235683 0.897115
vt 0.236969 0.897137
vt 0.234623 0.949595
vt 0.238387 0.897137
vt 0.252348 0.949595
vt 0.415453 0.941416
vt 0.429578 0.888461
vt 0.430960 0.888461
vt 0.432730 0.941416
vt 0.432293 0.888403
vt 0.449392 0.940697
vt 0.840351 0.199120
vt 0.839696 0.197762
vt 0.840351 0.196403
vt 0.841821 0.196067
vt 0.843000 0.197008
vt 0.843000 0.198516
vt 0.841821 0.199456
vt 0.645528 0.956299
vt 0.655330 0.903514
vt 0.656835 0.903514
vt 0.664331 0.956299
vt 0.657857 0.903469
vt 0.677115 0.955739
vt 0.308782 0.935281
vt 0.290404 0.939474
vt 0.275667 0.927719
vt 0.275667 0.908868
vt 0.290404 0.897115
vt 0.308782 0.901312
vt 0.316960 0.918297
vt 0.145341 0.748298
vt 0.147084 0.770993
vt 0.124199 0.756948
vt 0.148243 0.786758
vt 0.169222 0.776176
vt 0.130488 0.730845
vt 0.157260 0.728757
vt 0.167516 0.753570
vt 0.869388 0.861107
vt 0.866560 0.837715
vt 0.884752 0.848935
vt 0.647851 0.843935
vt 0.645528 0.823201
vt 0.663270 0.830265
vt 0.904345 0.182829
vt 0.906271 0.201014
vt 0.888576 0.196184
vt 0.904345 0.139632
vt 0.907293 0.159471
vt 0.889208 0.145119
vt 0.588377 0.866956
vt 0.585598 0.843596
vt 0.603832 0.856329
vt 0.885038 0.874566
vt 0.663270 0.856990
vt 0.889208 0.170510
vt 0.588377 0.821650
vt 0.603975 0.810184
vt 0.603832 0.829699
vt 0.603975 0.879903
vt 0.641844 0.783178
vt 0.618658 0.786865
vt 0.633548 0.769322
vt 0.659293 0.740963
vt 0.655686 0.764140
vt 0.643804 0.744509
vt 0.624531 0.711321
vt 0.645510 0.721903
vt 0.623372 0.727086
vt 0.585598 0.735216
vt 0.602193 0.718525
vt 0.600487 0.741131
vt 0.596297 0.779626
vt 0.585598 0.758674
vt 0.606776 0.767234
vt 0.621629 0.749781
vt 0.884752 0.823493
vt 0.903230 0.819178
vt 0.900339 0.836911
vt 0.622209 0.866005
vt 0.619398 0.843312
vt 0.622209 0.822917
vt 0.873577 0.158412
vt 0.870491 0.140750
vt 0.870491 0.181832
vt 0.872502 0.202093
vt 0.681722 0.843973
vt 0.679244 0.867257
vt 0.679244 0.821790
vt 0.903230 0.860344
vt 0.900825 0.880517
vt 0.663979 0.880150
vt 0.645528 0.866443
vt 0.663979 0.810184
vt 0.867022 0.879187
vt 0.869388 0.817822
vt 0.179398 0.733939
vt 0.183005 0.757116
vt 0.165556 0.714900
vt 0.142370 0.711214
vt 0.120009 0.718453
vt 0.109310 0.739405
vt 0.109310 0.762863
vt 0.125905 0.779554
vt 0.974440 0.882420
vt 0.962891 0.882384
vt 0.970946 0.871297
vt 0.970946 0.893472
vt 0.983979 0.875532
vt 0.983979 0.889238
vt 0.331728 0.975912
vt 0.320075 0.981643
vt 0.320075 0.968697
vt 0.773129 0.962184
vt 0.773491 0.951935
vt 0.784876 0.955530
vt 0.773491 0.974005
vt 0.784876 0.969170
vt 0.427118 0.983579
vt 0.415453 0.977935
vt 0.427108 0.970732
vt 0.967813 0.500450
vt 0.967813 0.486859
vt 0.979451 0.493355
vt 0.331750 0.962793
vt 0.415453 0.964735
vt 0.979524 0.483395
vt 0.979524 0.505386
vt 0.288701 0.984967
vt 0.275667 0.980731
vt 0.285166 0.973788
vt 0.296756 0.973881
vt 0.288701 0.962793
vt 0.275667 0.967027
vt 0.960979 0.616825
vt 0.945581 0.616777
vt 0.956321 0.601994
vt 0.956321 0.631562
vt 0.973698 0.607642
vt 0.973698 0.625916
vt 0.982502 0.194468
vt 0.966965 0.202109
vt 0.966965 0.184848
vt 0.472711 0.902068
vt 0.473194 0.888403
vt 0.488374 0.893197
vt 0.473194 0.917829
vt 0.488374 0.911383
vt 0.982859 0.731652
vt 0.967305 0.724127
vt 0.982846 0.714523
vt 0.472711 0.963890
vt 0.472711 0.945767
vt 0.488228 0.954428
vt 0.982531 0.176976
vt 0.967305 0.706527
vt 0.488326 0.941149
vt 0.488326 0.970471
vt 0.974749 0.387062
vt 0.957370 0.381413
vt 0.970035 0.372156
vt 0.985489 0.372280
vt 0.974748 0.357497
vt 0.957370 0.363141
vt 0.970035 0.425287
vt 0.974749 0.439946
vt 0.957370 0.434301
vt 0.985489 0.425162
vt 0.957370 0.416029
vt 0.974749 0.410381
vt 0.982842 0.675567
vt 0.967305 0.683208
vt 0.967305 0.665948
vt 0.067088 0.945897
vt 0.067571 0.932232
vt 0.082750 0.937025
vt 0.067571 0.961658
vt 0.082750 0.955212
vt 0.982859 0.780096
vt 0.967305 0.772571
vt 0.982846 0.762967
vt 0.966965 0.147076
vt 0.966965 0.128954
vt 0.982483 0.137615
vt 0.982871 0.658076
vt 0.967305 0.754971
vt 0.982580 0.124335
vt 0.982580 0.153657
vt 0.530482 0.981298
vt 0.513103 0.975650
vt 0.525768 0.966393
vt 0.541222 0.966517
vt 0.530482 0.951733
vt 0.513103 0.957378
vt 0.558943 0.805167
vt 0.560745 0.695382
vt 0.561646 0.695460
vt 0.561646 0.805402
vt 0.375594 0.486239
vt 0.377331 0.376197
vt 0.378200 0.376142
vt 0.378201 0.486075
vt 0.839696 0.222775
vt 0.840924 0.222775
vt 0.840925 0.224004
vt 0.839697 0.224004
vt 0.379069 0.376197
vt 0.380808 0.486239
vt 0.941336 0.767318
vt 0.943103 0.658076
vt 0.943986 0.658192
vt 0.943986 0.767667
vt 0.686289 0.738893
vt 0.686289 0.742572
vt 0.682612 0.742555
vt 0.682612 0.738876
vt 0.192063 0.810077
vt 0.193820 0.920021
vt 0.192961 0.920115
vt 0.189485 0.810359
vt 0.778343 0.818737
vt 0.776700 0.928536
vt 0.775823 0.928616
vt 0.775711 0.818976
vt 0.358833 0.856625
vt 0.358833 0.855495
vt 0.359898 0.855737
vt 0.359898 0.856866
vt 0.774962 0.928536
vt 0.773129 0.818737
vt 0.194698 0.810272
vt 0.194698 0.920086
vt 0.685779 0.765891
vt 0.685779 0.769361
vt 0.682612 0.769998
vt 0.682612 0.766527
vt 0.175645 0.591675
vt 0.176275 0.683649
vt 0.159212 0.687895
vt 0.156686 0.596393
vt 0.056412 0.907822
vt 0.056412 0.810775
vt 0.075812 0.811252
vt 0.077968 0.908351
vt 0.893417 0.357497
vt 0.890861 0.448055
vt 0.874063 0.452301
vt 0.874752 0.362214
vt 0.857000 0.448055
vt 0.855793 0.357497
vt 0.866560 0.931261
vt 0.866560 0.911993
vt 0.881091 0.903836
vt 0.895622 0.914947
vt 0.895622 0.934215
vt 0.881091 0.942371
vt 0.011659 0.908913
vt 0.013803 0.811422
vt 0.033093 0.810775
vt 0.033093 0.908195
vt 0.194309 0.596392
vt 0.193073 0.687895
vt 0.872430 0.475620
vt 0.889066 0.489076
vt 0.889066 0.509020
vt 0.872430 0.515508
vt 0.855793 0.502052
vt 0.855793 0.482108
vt 0.900672 0.758606
vt 0.900672 0.658076
vt 0.915849 0.658179
vt 0.918017 0.758724
vt 0.358833 0.831270
vt 0.362509 0.727332
vt 0.376989 0.728125
vt 0.375381 0.832176
vt 0.388244 0.727226
vt 0.388244 0.831149
vt 0.916736 0.457653
vt 0.918900 0.357727
vt 0.934051 0.357497
vt 0.934051 0.457390
vt 0.962891 0.840881
vt 0.962891 0.825803
vt 0.975616 0.817822
vt 0.988340 0.824919
vt 0.988340 0.839997
vt 0.975616 0.847978
vt 0.870491 0.116313
vt 0.870893 0.012040
vt 0.885440 0.011659
vt 0.887116 0.115878
vt 0.896549 0.012040
vt 0.899812 0.116313
vt 0.974777 0.569519
vt 0.960179 0.578675
vt 0.945581 0.570665
vt 0.945581 0.553499
vt 0.960179 0.544343
vt 0.974777 0.552353
vt 0.926549 0.895626
vt 0.926549 0.817822
vt 0.937402 0.817930
vt 0.939572 0.895756
vt 0.900672 0.633879
vt 0.904270 0.545024
vt 0.914849 0.545755
vt 0.913366 0.634757
vt 0.922262 0.544343
vt 0.922262 0.633062
vt 0.930612 0.202093
vt 0.931473 0.124335
vt 0.942336 0.124335
vt 0.943646 0.202093
vt 0.371706 0.964202
vt 0.376027 0.973608
vt 0.371504 0.983013
vt 0.362660 0.983013
vt 0.358339 0.973608
vt 0.362862 0.964202
vt 0.893425 0.321740
vt 0.893425 0.232895
vt 0.903857 0.232202
vt 0.905943 0.320908
vt 0.911689 0.233351
vt 0.915342 0.322287
vt 0.938661 0.324670
vt 0.938661 0.312250
vt 0.948304 0.307819
vt 0.957948 0.315809
vt 0.957948 0.328230
vt 0.948304 0.332660
s 1
usemtl mob_kucing_mat.005
f 1/1/1 2/2/2 4/3/3 3/4/4
f 3/5/4 4/6/3 6/7/5 5/8/6
f 5/8/6 6/7/5 8/9/7 7/10/8
f 7/11/8 8/12/7 10/13/9 9/14/10
f 9/14/10 10/13/9 12/15/11 11/16/12
f 11/17/12 12/18/11 14/19/13 13/20/14
f 4/21/3 2/22/2 16/23/15 14/24/13 12/25/11 10/26/9 8/27/7 6/28/5
f 13/20/14 14/19/13 16/29/15 15/30/16
f 15/31/16 16/32/15 2/2/2 1/1/1
f 1/33/1 3/34/4 5/35/6 7/36/8 9/37/10 11/38/12 13/39/14 15/40/16
f 17/41/1 18/42/2 20/43/3 19/44/4
f 19/45/4 20/46/3 22/47/5 21/48/6
f 21/48/6 22/47/5 24/49/7 23/50/8
f 23/51/8 24/52/7 26/53/9 25/54/10
f 25/54/10 26/53/9 28/55/11 27/56/12
f 27/57/12 28/58/11 30/59/13 29/60/14
f 20/61/3 18/62/2 32/63/15 30/64/13 28/65/11 26/66/9 24/67/7 22/68/5
f 29/60/14 30/59/13 32/69/15 31/70/16
f 31/71/16 32/72/15 18/42/2 17/41/1
f 17/73/1 19/74/4 21/75/6 23/76/8 25/77/10 27/78/12 29/79/14 31/80/16
f 33/81/1 34/82/2 36/83/3 35/84/4
f 35/85/4 36/86/3 38/87/5 37/88/6
f 37/88/6 38/87/5 40/89/7 39/90/8
f 39/91/8 40/92/7 42/93/9 41/94/10
f 41/94/10 42/93/9 44/95/11 43/96/12
f 43/97/12 44/98/11 46/99/13 45/100/14
f 36/101/3 34/102/2 48/103/15 46/104/13 44/105/11 42/106/9 40/107/7 38/108/5
f 45/100/14 46/99/13 48/109/15 47/110/16
f 47/111/16 48/112/15 34/82/2 33/81/1
f 33/113/1 35/114/4 37/115/6 39/116/8 41/117/10 43/118/12 45/119/14 47/120/16
f 49/121/1 50/122/2 52/123/3 51/124/4
f 51/125/4 52/126/3 54/127/5 53/128/6
f 53/128/6 54/127/5 56/129/7 55/130/8
f 55/131/8 56/132/7 58/133/9 57/134/10
f 57/134/10 58/133/9 60/135/11 59/136/12
f 59/137/12 60/138/11 62/139/13 61/140/14
f 52/141/3 50/142/2 64/143/15 62/144/13 60/145/11 58/146/9 56/147/7 54/148/5
f 61/140/14 62/139/13 64/149/15 63/150/16
f 63/151/16 64/152/15 50/122/2 49/121/1
f 49/153/1 51/154/4 53/155/6 55/156/8 57/157/10 59/158/12 61/159/14 63/160/16
f 65/161/17 80/162/18 79/163/19
f 66/164/20 82/165/21 88/166/22
f 65/161/17 79/163/19 94/167/23
f 65/161/17 94/167/23 100/168/24
f 65/161/17 100/168/24 89/169/25
f 66/164/20 88/166/22 109/170/26
f 67/171/27 85/172/28 115/173/29
f 68/174/30 97/175/31 121/176/32
f 69/177/33 103/178/34 127/179/35
f 70/180/36 106/181/37 133/182/38
f 66/164/20 109/170/26 116/183/39
f 67/171/27 115/173/29 122/184/40
f 68/174/30 121/176/32 128/185/41
f 69/177/33 127/179/35 134/186/42
f 70/180/36 133/182/38 110/187/43
f 71/188/44 139/189/45 154/190/46
f 72/191/47 142/192/48 160/193/49
f 73/194/50 145/195/51 163/196/52
f 74/197/53 148/198/54 166/199/55
f 75/200/56 151/201/57 155/202/58
f 157/203/59 164/204/60 76/205/61
f 156/206/62 167/207/63 157/203/59
f 155/208/58 168/209/64 156/206/62
f 157/203/59 167/207/63 164/204/60
f 167/207/63 165/210/65 164/204/60
f 156/206/62 168/209/64 167/207/63
f 168/209/64 169/211/66 167/207/63
f 167/207/63 169/211/66 165/210/65
f 169/211/66 166/199/55 165/210/65
f 155/208/58 151/212/57 168/209/64
f 151/212/57 150/213/67 168/209/64
f 168/209/64 150/213/67 169/211/66
f 150/213/67 149/214/68 169/211/66
f 169/211/66 149/214/68 166/199/55
f 149/214/68 74/197/53 166/199/55
f 164/204/60 161/215/69 76/205/61
f 165/210/65 170/216/70 164/204/60
f 166/199/55 171/217/71 165/210/65
f 164/204/60 170/216/70 161/215/69
f 170/216/70 162/218/72 161/215/69
f 165/210/65 171/217/71 170/216/70
f 171/217/71 172/219/73 170/216/70
f 170/216/70 172/219/73 162/218/72
f 172/219/73 163/220/52 162/218/72
f 166/199/55 148/198/54 171/217/71
f 148/198/54 147/221/74 171/217/71
f 171/217/71 147/221/74 172/219/73
f 147/221/74 146/222/75 172/219/73
f 172/219/73 146/222/75 163/220/52
f 146/223/75 73/194/50 163/196/52
f 161/215/69 158/224/76 76/205/61
f 162/218/72 173/225/77 161/215/69
f 163/220/52 174/226/78 162/218/72
f 161/215/69 173/225/77 158/224/76
f 173/225/77 159/227/79 158/224/76
f 162/218/72 174/226/78 173/225/77
f 174/226/78 175/228/80 173/225/77
f 173/225/77 175/228/80 159/227/79
f 175/228/80 160/193/49 159/227/79
f 163/196/52 145/195/51 174/229/78
f 145/195/51 144/230/81 174/229/78
f 174/229/78 144/230/81 175/231/80
f 144/230/81 143/232/82 175/231/80
f 175/228/80 143/233/82 160/193/49
f 143/232/82 72/234/47 160/235/49
f 158/224/76 152/236/83 76/205/61
f 159/227/79 176/237/84 158/224/76
f 160/193/49 177/238/85 159/227/79
f 158/224/76 176/237/84 152/236/83
f 176/237/84 153/239/86 152/236/83
f 159/227/79 177/238/85 176/237/84
f 177/238/85 178/240/87 176/237/84
f 176/237/84 178/240/87 153/239/86
f 178/240/87 154/190/46 153/239/86
f 160/193/49 142/192/48 177/238/85
f 142/192/48 141/241/88 177/238/85
f 177/238/85 141/241/88 178/240/87
f 141/241/88 140/242/89 178/240/87
f 178/240/87 140/242/89 154/190/46
f 140/242/89 71/188/44 154/190/46
f 152/236/83 157/203/59 76/205/61
f 153/239/86 179/243/90 152/236/83
f 154/190/46 180/244/91 153/239/86
f 152/236/83 179/243/90 157/203/59
f 179/243/90 156/206/62 157/203/59
f 153/239/86 180/244/91 179/243/90
f 180/244/91 181/245/92 179/243/90
f 179/243/90 181/245/92 156/206/62
f 181/245/92 155/208/58 156/206/62
f 154/190/46 139/189/45 180/244/91
f 139/189/45 138/246/93 180/244/91
f 180/244/91 138/246/93 181/245/92
f 138/247/93 137/248/94 181/249/92
f 181/249/92 137/248/94 155/202/58
f 137/248/94 75/200/56 155/202/58
f 112/250/95 151/201/57 75/200/56
f 111/251/96 182/252/97 112/250/95
f 110/253/43 183/254/98 111/251/96
f 112/250/95 182/252/97 151/201/57
f 182/252/97 150/255/67 151/201/57
f 111/251/96 183/254/98 182/252/97
f 183/256/98 184/257/99 182/258/97
f 182/252/97 184/259/99 150/255/67
f 184/257/99 149/260/68 150/261/67
f 110/187/43 133/182/38 183/256/98
f 133/182/38 132/262/100 183/256/98
f 183/256/98 132/262/100 184/257/99
f 132/262/100 131/263/101 184/257/99
f 184/257/99 131/263/101 149/260/68
f 131/263/101 74/264/53 149/260/68
f 136/265/102 148/266/54 74/264/53
f 135/267/103 185/268/104 136/265/102
f 134/269/42 186/270/105 135/267/103
f 136/265/102 185/268/104 148/266/54
f 185/271/104 147/221/74 148/198/54
f 135/267/103 186/270/105 185/268/104
f 186/272/105 187/273/106 185/274/104
f 185/274/104 187/273/106 147/275/74
f 187/273/106 146/223/75 147/275/74
f 134/186/42 127/179/35 186/272/105
f 127/179/35 126/276/107 186/272/105
f 186/272/105 126/276/107 187/273/106
f 126/276/107 125/277/108 187/273/106
f 187/273/106 125/277/108 146/223/75
f 125/277/108 73/194/50 146/223/75
f 130/278/109 145/195/51 73/194/50
f 129/279/110 188/280/111 130/278/109
f 128/185/41 189/281/112 129/279/110
f 130/278/109 188/280/111 145/195/51
f 188/280/111 144/230/81 145/195/51
f 129/279/110 189/281/112 188/280/111
f 189/281/112 190/282/113 188/280/111
f 188/280/111 190/282/113 144/230/81
f 190/282/113 143/232/82 144/230/81
f 128/185/41 121/176/32 189/281/112
f 121/176/32 120/283/114 189/281/112
f 189/281/112 120/283/114 190/282/113
f 120/283/114 119/284/115 190/282/113
f 190/282/113 119/284/115 143/232/82
f 119/284/115 72/234/47 143/232/82
f 124/285/116 142/286/48 72/287/47
f 123/288/117 191/289/118 124/285/116
f 122/184/40 192/290/119 123/288/117
f 124/285/116 191/289/118 142/286/48
f 191/289/118 141/291/88 142/286/48
f 123/288/117 192/290/119 191/289/118
f 192/290/119 193/292/120 191/289/118
f 191/289/118 193/292/120 141/291/88
f 193/292/120 140/293/89 141/291/88
f 122/184/40 115/173/29 192/290/119
f 115/173/29 114/294/121 192/290/119
f 192/290/119 114/294/121 193/292/120
f 114/294/121 113/295/122 193/292/120
f 193/292/120 113/295/122 140/293/89
f 113/295/122 71/296/44 140/293/89
f 118/297/123 139/298/45 71/299/44
f 117/300/124 194/301/125 118/297/123
f 116/183/39 195/302/126 117/300/124
f 118/297/123 194/301/125 139/298/45
f 194/301/125 138/247/93 139/298/45
f 117/300/124 195/302/126 194/301/125
f 195/302/126 196/303/127 194/301/125
f 194/301/125 196/303/127 138/247/93
f 196/303/127 137/248/94 138/247/93
f 116/183/39 109/170/26 195/302/126
f 109/170/26 108/304/128 195/302/126
f 195/302/126 108/304/128 196/303/127
f 108/304/128 107/305/129 196/303/127
f 196/303/127 107/305/129 137/248/94
f 107/305/129 75/200/56 137/248/94
f 131/263/101 136/265/102 74/264/53
f 132/262/100 197/306/130 131/263/101
f 133/182/38 198/307/131 132/262/100
f 131/263/101 197/306/130 136/265/102
f 197/306/130 135/267/103 136/265/102
f 132/262/100 198/307/131 197/306/130
f 198/307/131 199/308/132 197/306/130
f 197/306/130 199/308/132 135/267/103
f 199/308/132 134/269/42 135/267/103
f 133/182/38 106/181/37 198/307/131
f 106/181/37 105/309/133 198/307/131
f 198/307/131 105/309/133 199/308/132
f 105/309/133 104/310/134 199/308/132
f 199/308/132 104/310/134 134/269/42
f 104/311/134 69/312/33 134/313/42
f 125/277/108 130/278/109 73/194/50
f 126/276/107 200/314/135 125/277/108
f 127/179/35 201/315/136 126/276/107
f 125/277/108 200/314/135 130/278/109
f 200/314/135 129/279/110 130/278/109
f 126/276/107 201/315/136 200/314/135
f 201/315/136 202/316/137 200/314/135
f 200/314/135 202/316/137 129/279/110
f 202/316/137 128/185/41 129/279/110
f 127/179/35 103/178/34 201/315/136
f 103/178/34 102/317/138 201/315/136
f 201/315/136 102/317/138 202/316/137
f 102/317/138 101/318/139 202/316/137
f 202/316/137 101/318/139 128/185/41
f 101/318/139 68/174/30 128/185/41
f 119/284/115 124/319/116 72/234/47
f 120/283/114 203/320/140 119/284/115
f 121/176/32 204/321/141 120/283/114
f 119/284/115 203/320/140 124/319/116
f 203/322/140 123/288/117 124/285/116
f 120/283/114 204/321/141 203/320/140
f 204/321/141 205/323/142 203/320/140
f 203/322/140 205/324/142 123/288/117
f 205/324/142 122/184/40 123/288/117
f 121/176/32 97/175/31 204/321/141
f 97/175/31 96/325/143 204/321/141
f 204/321/141 96/325/143 205/323/142
f 96/326/143 95/327/144 205/324/142
f 205/324/142 95/327/144 122/184/40
f 95/327/144 67/171/27 122/184/40
f 113/328/122 118/297/123 71/299/44
f 114/294/121 206/329/145 113/295/122
f 115/173/29 207/330/146 114/294/121
f 113/328/122 206/331/145 118/297/123
f 206/331/145 117/300/124 118/297/123
f 114/294/121 207/330/146 206/329/145
f 207/332/146 208/333/147 206/331/145
f 206/331/145 208/333/147 117/300/124
f 208/333/147 116/183/39 117/300/124
f 115/173/29 85/172/28 207/330/146
f 85/334/28 84/335/148 207/336/146
f 207/332/146 84/337/148 208/333/147
f 84/337/148 83/338/149 208/333/147
f 208/333/147 83/338/149 116/183/39
f 83/338/149 66/164/20 116/183/39
f 107/305/129 112/250/95 75/200/56
f 108/304/128 209/339/150 107/305/129
f 109/170/26 210/340/151 108/304/128
f 107/305/129 209/339/150 112/250/95
f 209/339/150 111/251/96 112/250/95
f 108/304/128 210/340/151 209/339/150
f 210/340/151 211/341/152 209/339/150
f 209/339/150 211/341/152 111/251/96
f 211/341/152 110/253/43 111/251/96
f 109/170/26 88/166/22 210/340/151
f 88/166/22 87/342/153 210/340/151
f 210/340/151 87/342/153 211/341/152
f 87/342/153 86/343/154 211/341/152
f 211/341/152 86/343/154 110/253/43
f 86/343/154 70/344/36 110/253/43
f 91/345/155 106/346/37 70/347/36
f 90/348/156 212/349/157 91/345/155
f 89/169/25 213/350/158 90/348/156
f 91/345/155 212/349/157 106/346/37
f 212/349/157 105/351/133 106/346/37
f 90/348/156 213/350/158 212/349/157
f 213/350/158 214/352/159 212/349/157
f 212/349/157 214/352/159 105/351/133
f 214/352/159 104/311/134 105/351/133
f 89/169/25 100/168/24 213/350/158
f 100/168/24 99/353/160 213/350/158
f 213/350/158 99/353/160 214/352/159
f 99/353/160 98/354/161 214/352/159
f 214/352/159 98/354/161 104/311/134
f 98/354/161 69/312/33 104/311/134
f 98/354/161 103/355/34 69/312/33
f 99/353/160 215/356/162 98/354/161
f 100/168/24 216/357/163 99/353/160
f 98/354/161 215/356/162 103/355/34
f 215/356/162 102/358/138 103/355/34
f 99/353/160 216/357/163 215/356/162
f 216/357/163 217/359/164 215/356/162
f 215/356/162 217/359/164 102/358/138
f 217/360/164 101/318/139 102/317/138
f 100/168/24 94/167/23 216/357/163
f 94/167/23 93/361/165 216/357/163
f 216/357/163 93/361/165 217/359/164
f 93/361/165 92/362/166 217/359/164
f 217/360/164 92/363/166 101/318/139
f 92/363/166 68/174/30 101/318/139
f 92/363/166 97/175/31 68/174/30
f 93/361/165 218/364/167 92/362/166
f 94/167/23 219/365/168 93/361/165
f 92/362/166 218/364/167 97/366/31
f 218/364/167 96/367/143 97/366/31
f 93/361/165 219/365/168 218/364/167
f 219/365/168 220/368/169 218/364/167
f 218/364/167 220/368/169 96/367/143
f 220/368/169 95/369/144 96/367/143
f 94/167/23 79/163/19 219/365/168
f 79/163/19 78/370/170 219/365/168
f 219/365/168 78/370/170 220/368/169
f 78/370/170 77/371/171 220/368/169
f 220/368/169 77/371/171 95/369/144
f 77/371/171 67/372/27 95/369/144
f 86/343/154 91/373/155 70/344/36
f 87/342/153 221/374/172 86/343/154
f 88/166/22 222/375/173 87/342/153
f 86/376/154 221/377/172 91/345/155
f 221/377/172 90/348/156 91/345/155
f 87/378/153 222/379/173 221/377/172
f 222/379/173 223/380/174 221/377/172
f 221/377/172 223/380/174 90/348/156
f 223/380/174 89/169/25 90/348/156
f 88/166/22 82/165/21 222/375/173
f 82/381/21 81/382/175 222/379/173
f 222/379/173 81/382/175 223/380/174
f 81/382/175 80/162/18 223/380/174
f 223/380/174 80/162/18 89/169/25
f 80/162/18 65/161/17 89/169/25
f 77/371/171 85/334/28 67/372/27
f 78/370/170 224/383/176 77/371/171
f 79/163/19 225/384/177 78/370/170
f 77/371/171 224/383/176 85/334/28
f 224/383/176 84/335/148 85/334/28
f 78/370/170 225/384/177 224/383/176
f 225/384/177 226/385/178 224/383/176
f 224/383/176 226/385/178 84/335/148
f 226/385/178 83/386/149 84/335/148
f 79/163/19 80/162/18 225/384/177
f 80/162/18 81/382/175 225/384/177
f 225/384/177 81/382/175 226/385/178
f 81/382/175 82/381/21 226/385/178
f 226/385/178 82/381/21 83/386/149
f 82/165/21 66/164/20 83/338/149
f 227/387/179 240/388/180 239/389/181
f 228/390/182 240/391/180 242/392/183
f 227/387/179 239/389/181 244/393/184
f 227/387/179 244/393/184 246/394/185
f 227/387/179 246/394/185 243/395/186
f 228/390/182 242/392/183 249/396/187
f 229/397/188 241/398/189 251/399/121
f 230/400/190 245/401/191 253/402/192
f 231/403/193 247/404/194 255/405/195
f 232/406/196 248/407/197 257/408/198
f 228/390/182 249/396/187 252/409/199
f 229/397/188 251/399/121 254/410/200
f 230/400/190 253/402/192 256/411/201
f 231/412/193 255/413/195 258/414/103
f 232/406/196 257/408/198 250/415/202
f 233/416/203 259/417/204 264/418/205
f 234/419/206 260/420/207 266/421/208
f 235/422/209 261/423/210 267/424/211
f 236/425/212 262/426/213 268/427/214
f 237/428/215 263/429/216 265/430/217
f 265/430/217 268/431/214 238/432/218
f 265/430/217 263/429/216 268/431/214
f 263/433/216 236/425/212 268/427/214
f 268/431/214 267/434/211 238/432/218
f 268/431/214 262/435/213 267/434/211
f 262/435/213 235/436/209 267/434/211
f 267/434/211 266/437/208 238/432/218
f 267/434/211 261/438/210 266/437/208
f 261/438/210 234/439/206 266/437/208
f 266/437/208 264/418/205 238/432/218
f 266/437/208 260/440/207 264/418/205
f 260/420/207 233/441/203 264/442/205
f 264/418/205 265/430/217 238/432/218
f 264/418/205 259/417/204 265/430/217
f 259/443/204 237/444/215 265/445/217
f 250/446/202 263/447/216 237/444/215
f 250/415/202 257/408/198 263/433/216
f 257/408/198 236/425/212 263/433/216
f 258/414/103 262/426/213 236/425/212
f 258/414/103 255/413/195 262/426/213
f 255/405/195 235/422/209 262/448/213
f 256/411/201 261/423/210 235/422/209
f 256/411/201 253/402/192 261/423/210
f 253/402/192 234/449/206 261/423/210
f 254/410/200 260/420/207 234/419/206
f 254/410/200 251/399/121 260/420/207
f 251/399/121 233/441/203 260/420/207
f 252/409/199 259/443/204 233/450/203
f 252/409/199 249/396/187 259/443/204
f 249/396/187 237/444/215 259/443/204
f 257/408/198 258/414/103 236/425/212
f 257/408/198 248/407/197 258/414/103
f 248/407/197 231/412/193 258/414/103
f 255/405/195 256/411/201 235/422/209
f 255/405/195 247/404/194 256/411/201
f 247/404/194 230/400/190 256/411/201
f 253/451/192 254/410/200 234/419/206
f 253/451/192 245/452/191 254/410/200
f 245/452/191 229/397/188 254/410/200
f 251/399/121 252/453/199 233/441/203
f 251/399/121 241/398/189 252/453/199
f 241/454/189 228/390/182 252/409/199
f 249/396/187 250/446/202 237/444/215
f 249/396/187 242/392/183 250/446/202
f 242/392/183 232/455/196 250/446/202
f 243/456/186 248/407/197 232/406/196
f 243/395/186 246/394/185 248/457/197
f 246/394/185 231/458/193 248/457/197
f 246/394/185 247/459/194 231/458/193
f 246/394/185 244/393/184 247/459/194
f 244/460/184 230/400/190 247/404/194
f 244/393/184 245/461/191 230/462/190
f 244/393/184 239/389/181 245/461/191
f 239/463/181 229/397/188 245/452/191
f 242/464/183 243/395/186 232/465/196
f 242/464/183 240/388/180 243/395/186
f 240/388/180 227/387/179 243/395/186
f 239/463/181 241/398/189 229/397/188
f 239/389/181 240/388/180 241/466/189
f 240/388/180 228/467/182 241/466/189
f 269/468/219 270/469/220 272/470/221 271/471/222
f 271/472/222 272/473/221 274/474/223 273/475/224
f 273/475/224 274/474/223 276/476/225 275/477/226
f 275/478/226 276/479/225 278/480/227 277/481/228
f 277/481/228 278/480/227 280/482/229 279/483/230
f 272/484/221 270/485/220 282/486/231 280/487/229 278/488/227 276/489/225 274/490/223
f 279/491/230 280/492/229 282/493/231 281/494/232
f 281/494/232 282/493/231 270/495/220 269/496/219
f 269/497/219 271/498/222 273/499/224 275/500/226 277/501/228 279/502/230 281/503/232
f 283/504/233 284/505/234 286/506/235 285/507/236
f 285/508/236 286/509/235 288/510/237 287/511/238
f 287/511/238 288/510/237 290/512/239 289/513/240
f 289/514/240 290/515/239 292/516/241 291/517/242
f 291/517/242 292/516/241 294/518/243 293/519/244
f 286/520/235 284/521/234 296/522/245 294/523/243 292/524/241 290/525/239 288/526/237
f 293/527/244 294/528/243 296/529/245 295/530/246
f 295/530/246 296/529/245 284/531/234 283/532/233
f 283/533/233 285/534/236 287/535/238 289/536/240 291/537/242 293/538/244 295/539/246
f 297/540/219 298/541/220 300/542/221 299/543/222
f 299/544/222 300/545/221 302/546/223 301/547/224
f 301/547/224 302/546/223 304/548/225 303/549/226
f 303/550/226 304/551/225 306/552/227 305/553/228
f 305/553/228 306/552/227 308/554/229 307/555/230
f 300/556/221 298/557/220 310/558/231 308/559/229 306/560/227 304/561/225 302/562/223
f 307/563/230 308/564/229 310/565/231 309/566/232
f 309/566/232 310/565/231 298/567/220 297/568/219
f 297/569/219 299/570/222 301/571/224 303/572/226 305/573/228 307/574/230 309/575/232
f 311/576/233 312/577/234 314/578/247 313/579/236
f 313/580/236 314/581/247 316/582/237 315/583/238
f 315/583/238 316/582/237 318/584/239 317/585/240
f 317/586/240 318/587/239 320/588/241 319/589/242
f 319/589/242 320/588/241 322/590/243 321/591/244
f 314/592/247 312/593/234 324/594/248 322/595/243 320/596/241 318/597/239 316/598/237
f 321/599/244 322/600/243 324/601/248 323/602/246
f 323/602/246 324/601/248 312/603/234 311/604/233
f 311/605/233 313/606/236 315/607/238 317/608/240 319/609/242 321/610/244 323/611/246
f 325/612/179 338/613/249 337/614/250
f 326/615/251 338/613/249 340/616/252
f 325/612/179 337/614/250 342/617/253
f 325/612/179 342/617/253 344/618/254
f 325/612/179 344/618/254 341/619/255
f 326/620/251 340/621/252 347/622/187
f 327/623/256 339/624/257 349/625/121
f 328/626/258 343/627/259 351/628/192
f 329/629/260 345/630/261 353/631/195
f 330/632/262 346/633/263 355/634/198
f 326/620/251 347/622/187 350/635/199
f 327/623/256 349/625/121 352/636/200
f 328/626/258 351/628/192 354/637/201
f 329/638/260 353/639/195 356/640/103
f 330/632/262 355/634/198 348/641/202
f 331/642/264 357/643/265 362/644/266
f 332/645/267 358/646/268 364/647/269
f 333/648/270 359/649/271 365/650/272
f 334/651/273 360/652/274 366/653/275
f 335/654/276 361/655/277 363/656/278
f 363/656/278 366/653/275 336/657/218
f 363/656/278 361/655/277 366/653/275
f 361/655/277 334/651/273 366/653/275
f 366/653/275 365/650/272 336/657/218
f 366/653/275 360/652/274 365/650/272
f 360/652/274 333/648/270 365/650/272
f 365/650/272 364/647/269 336/657/218
f 365/650/272 359/649/271 364/647/269
f 359/649/271 332/645/267 364/647/269
f 364/647/269 362/644/266 336/657/218
f 364/647/269 358/646/268 362/644/266
f 358/646/268 331/642/264 362/644/266
f 362/644/266 363/656/278 336/657/218
f 362/644/266 357/643/265 363/656/278
f 357/643/265 335/654/276 363/656/278
f 348/658/202 361/659/277 335/660/276
f 348/641/202 355/634/198 361/661/277
f 355/634/198 334/662/273 361/661/277
f 356/640/103 360/663/274 334/662/273
f 356/640/103 353/639/195 360/663/274
f 353/631/195 333/664/270 360/665/274
f 354/637/201 359/666/271 333/664/270
f 354/637/201 351/628/192 359/666/271
f 351/628/192 332/667/267 359/666/271
f 352/636/200 358/668/268 332/669/267
f 352/636/200 349/625/121 358/668/268
f 349/625/121 331/670/264 358/668/268
f 350/635/199 357/671/265 331/672/264
f 350/635/199 347/622/187 357/671/265
f 347/622/187 335/660/276 357/671/265
f 355/634/198 356/640/103 334/662/273
f 355/634/198 346/633/263 356/640/103
f 346/633/263 329/638/260 356/640/103
f 353/631/195 354/637/201 333/664/270
f 353/631/195 345/630/261 354/637/201
f 345/630/261 328/626/258 354/637/201
f 351/673/192 352/636/200 332/669/267
f 351/673/192 343/674/259 352/636/200
f 343/674/259 327/623/256 352/636/200
f 349/625/121 350/675/199 331/670/264
f 349/625/121 339/624/257 350/675/199
f 339/676/257 326/620/251 350/635/199
f 347/622/187 348/658/202 335/660/276
f 347/622/187 340/621/252 348/658/202
f 340/621/252 330/677/262 348/658/202
f 341/619/255 346/678/263 330/679/262
f 341/619/255 344/618/254 346/678/263
f 344/618/254 329/680/260 346/678/263
f 344/618/254 345/681/261 329/680/260
f 344/618/254 342/617/253 345/681/261
f 342/617/253 328/682/258 345/681/261
f 342/617/253 343/683/259 328/682/258
f 342/617/253 337/614/250 343/683/259
f 337/614/250 327/684/256 343/683/259
f 340/616/252 341/619/255 330/679/262
f 340/616/252 338/613/249 341/619/255
f 338/613/249 325/612/179 341/619/255
f 337/614/250 339/685/257 327/684/256
f 337/614/250 338/613/249 339/685/257
f 338/613/249 326/615/251 339/685/257
f 367/686/179 368/687/182 369/688/279
f 368/687/182 367/686/179 372/689/196
f 367/686/179 369/688/279 370/690/190
f 367/686/179 370/690/190 371/691/280
f 367/686/179 371/691/280 372/689/196
f 368/692/182 372/693/196 377/694/215
f 369/695/279 368/696/182 373/697/281
f 370/698/190 369/695/279 374/699/206
f 371/700/280 370/701/190 375/702/209
f 372/703/196 371/704/280 376/705/282
f 368/692/182 377/694/215 373/706/281
f 369/695/279 373/697/281 374/699/206
f 370/701/190 374/707/206 375/702/209
f 371/704/280 375/708/209 376/705/282
f 372/703/196 376/705/282 377/709/215
f 373/710/281 377/711/215 378/712/218
f 374/713/206 373/710/281 378/712/218
f 375/714/209 374/713/206 378/712/218
f 376/715/282 375/714/209 378/712/218
f 377/711/215 376/715/282 378/712/218
f 379/716/179 380/717/182 381/718/279
f 380/717/182 379/716/179 384/719/196
f 379/716/179 381/718/279 382/720/190
f 379/716/179 382/720/190 383/721/280
f 379/716/179 383/721/280 384/719/196
f 380/722/182 384/723/196 389/724/215
f 381/725/279 380/726/182 385/727/281
f 382/728/190 381/725/279 386/729/206
f 383/730/280 382/731/190 387/732/209
f 384/733/196 383/734/280 388/735/282
f 380/722/182 389/724/215 385/736/281
f 381/725/279 385/727/281 386/729/206
f 382/731/190 386/737/206 387/732/209
f 383/734/280 387/738/209 388/735/282
f 384/733/196 388/735/282 389/739/215
f 385/740/281 389/741/215 390/742/218
f 386/743/206 385/740/281 390/742/218
f 387/744/209 386/743/206 390/742/218
f 388/745/282 387/744/209 390/742/218
f 389/741/215 388/745/282 390/742/218
f 391/746/179 392/747/182 393/748/279
f 392/747/182 391/746/179 396/749/196
f 391/746/179 393/748/279 394/750/190
f 391/746/179 394/750/190 395/751/280
f 391/746/179 395/751/280 396/749/196
f 392/752/182 396/753/196 401/754/215
f 393/755/279 392/756/182 397/757/281
f 394/758/190 393/755/279 398/759/206
f 395/760/280 394/761/190 399/762/209
f 396/763/196 395/764/280 400/765/282
f 392/752/182 401/754/215 397/766/281
f 393/755/279 397/757/281 398/759/206
f 394/761/190 398/767/206 399/762/209
f 395/764/280 399/768/209 400/765/282
f 396/763/196 400/765/282 401/769/215
f 397/770/281 401/771/215 402/772/218
f 398/773/206 397/770/281 402/772/218
f 399/774/209 398/773/206 402/772/218
f 400/775/282 399/774/209 402/772/218
f 401/771/215 400/775/282 402/772/218
f 403/776/283 404/777/284 406/778/285 405/779/286
f 405/780/286 406/781/285 408/782/287 407/783/288
f 406/784/285 404/785/284 410/786/289 408/787/287
f 407/783/288 408/782/287 410/788/289 409/789/290
f 409/790/290 410/791/289 404/792/284 403/793/283
f 403/794/283 405/795/286 407/796/288 409/797/290
f 411/798/291 412/799/292 414/800/293 413/801/294
f 413/802/294 414/803/293 416/804/295 415/805/296
f 414/806/293 412/807/292 418/808/297 416/809/295
f 415/805/296 416/804/295 418/810/297 417/811/298
f 417/812/298 418/813/297 412/799/292 411/798/291
f 411/814/291 413/815/294 415/816/296 417/817/298
f 419/818/299 420/819/300 422/820/301 421/821/302
f 421/822/302 422/823/301 424/824/303 423/825/304
f 423/826/304 424/827/303 426/828/305 425/829/306
f 425/829/306 426/828/305 428/830/307 427/831/308
f 422/832/301 420/833/300 430/834/309 428/835/307 426/836/305 424/837/303
f 427/838/308 428/839/307 430/840/309 429/841/310
f 429/842/310 430/843/309 420/819/300 419/818/299
f 419/844/299 421/845/302 423/846/304 425/847/306 427/848/308 429/849/310
f 431/850/311 432/851/312 434/852/313 433/853/314
f 433/854/314 434/855/313 436/856/315 435/857/316
f 435/857/316 436/856/315 438/858/317 437/859/318
f 437/860/318 438/861/317 440/862/319 439/863/320
f 434/864/313 432/865/312 442/866/321 440/867/319 438/868/317 436/869/315
f 439/870/320 440/871/319 442/872/321 441/873/322
f 441/873/322 442/872/321 432/874/312 431/875/311
f 431/876/311 433/877/314 435/878/316 437/879/318 439/880/320 441/881/322
f 443/882/323 444/883/324 446/884/325 445/885/326
f 445/886/326 446/887/325 448/888/327 447/889/328
f 447/889/328 448/888/327 450/890/329 449/891/330
f 449/892/330 450/893/329 452/894/331 451/895/332
f 446/896/325 444/897/324 454/898/333 452/899/331 450/900/329 448/901/327
f 451/902/332 452/903/331 454/904/333 453/905/334
f 453/905/334 454/904/333 444/906/324 443/907/323
f 443/908/323 445/909/326 447/910/328 449/911/330 451/912/332 453/913/334
