# axis-converted-to-Y-up
# Blender 5.1.1
# www.blender.org
mtllib mob_rubah_walk2.mtl
o mob_rubah_walk2
v -1.119879 0.005220 -0.016237
v -1.119879 0.200204 0.160542
v -1.100498 0.005220 -0.008209
v -1.100498 0.200204 0.168570
v -1.092470 0.005220 0.011173
v -1.092470 0.200204 0.187952
v -1.100498 0.005220 0.030555
v -1.100498 0.200204 0.207333
v -1.119879 0.005220 0.038582
v -1.119879 0.200204 0.215361
v -1.139261 0.005220 0.030555
v -1.139261 0.200204 0.207333
v -1.147289 0.005220 0.011173
v -1.147289 0.200204 0.187952
v -1.139261 0.005220 -0.008209
v -1.139261 0.200204 0.168570
v -1.119879 0.000000 -0.023807
v -1.119879 0.062651 0.038843
v -1.098837 0.000000 -0.015090
v -1.098837 0.062651 0.047560
v -1.090120 0.000000 0.005952
v -1.090120 0.062651 0.068602
v -1.098837 0.000000 0.026995
v -1.098837 0.062651 0.089645
v -1.119879 0.000000 0.035712
v -1.119879 0.062651 0.098361
v -1.140922 0.000000 0.026995
v -1.140922 0.062651 0.089645
v -1.149639 0.000000 0.005952
v -1.149639 0.062651 0.068602
v -1.140922 0.000000 -0.015090
v -1.140922 0.062651 0.047560
v -1.119879 0.005220 -0.392140
v -1.119879 0.200204 -0.215362
v -1.100498 0.005220 -0.384113
v -1.100498 0.200204 -0.207334
v -1.092470 0.005220 -0.364731
v -1.092470 0.200204 -0.187952
v -1.100498 0.005220 -0.345349
v -1.100498 0.200204 -0.168570
v -1.119879 0.005220 -0.337321
v -1.119879 0.200204 -0.160542
v -1.139261 0.005220 -0.345349
v -1.139261 0.200204 -0.168570
v -1.147289 0.005220 -0.364731
v -1.147289 0.200204 -0.187952
v -1.139261 0.005220 -0.384113
v -1.139261 0.200204 -0.207334
v -1.119879 0.000000 -0.399710
v -1.119879 0.062651 -0.337060
v -1.098837 0.000000 -0.390994
v -1.098837 0.062651 -0.328344
v -1.090120 0.000000 -0.369951
v -1.090120 0.062651 -0.307301
v -1.098837 0.000000 -0.348908
v -1.098837 0.062651 -0.286259
v -1.119879 0.000000 -0.340192
v -1.119879 0.062651 -0.277542
v -1.140922 0.000000 -0.348908
v -1.140922 0.062651 -0.286259
v -1.149639 0.000000 -0.369951
v -1.149639 0.062651 -0.307301
v -1.140922 0.000000 -0.390994
v -1.140922 0.062651 -0.328344
v -0.916265 0.005220 -0.016237
v -0.916265 0.200204 0.160542
v -0.896883 0.005220 -0.008209
v -0.896883 0.200204 0.168570
v -0.888855 0.005220 0.011173
v -0.888855 0.200204 0.187952
v -0.896883 0.005220 0.030555
v -0.896883 0.200204 0.207333
v -0.916265 0.005220 0.038583
v -0.916265 0.200204 0.215361
v -0.935647 0.005220 0.030555
v -0.935647 0.200204 0.207333
v -0.943675 0.005220 0.011173
v -0.943675 0.200204 0.187952
v -0.935647 0.005220 -0.008209
v -0.935647 0.200204 0.168570
v -0.916265 0.000000 -0.023807
v -0.916265 0.062651 0.038843
v -0.895222 0.000000 -0.015090
v -0.895222 0.062651 0.047560
v -0.886506 0.000000 0.005953
v -0.886506 0.062651 0.068602
v -0.895222 0.000000 0.026995
v -0.895222 0.062651 0.089645
v -0.916265 0.000000 0.035712
v -0.916265 0.062651 0.098361
v -0.937308 0.000000 0.026995
v -0.937308 0.062651 0.089645
v -0.946024 0.000000 0.005953
v -0.946024 0.062651 0.068602
v -0.937308 0.000000 -0.015090
v -0.937308 0.062651 0.047560
v -0.916265 0.005220 -0.392140
v -0.916265 0.200204 -0.215362
v -0.896883 0.005220 -0.384113
v -0.896883 0.200204 -0.207334
v -0.888855 0.005220 -0.364731
v -0.888855 0.200204 -0.187952
v -0.896883 0.005220 -0.345349
v -0.896883 0.200204 -0.168570
v -0.916265 0.005220 -0.337321
v -0.916265 0.200204 -0.160542
v -0.935647 0.005220 -0.345349
v -0.935647 0.200204 -0.168570
v -0.943675 0.005220 -0.364731
v -0.943675 0.200204 -0.187952
v -0.935647 0.005220 -0.384113
v -0.935647 0.200204 -0.207334
v -0.916265 0.000000 -0.399710
v -0.916265 0.062651 -0.337060
v -0.895222 0.000000 -0.390994
v -0.895222 0.062651 -0.328344
v -0.886506 0.000000 -0.369951
v -0.886506 0.062651 -0.307301
v -0.895222 0.000000 -0.348908
v -0.895222 0.062651 -0.286259
v -0.916265 0.000000 -0.340192
v -0.916265 0.062651 -0.277542
v -0.937308 0.000000 -0.348908
v -0.937308 0.062651 -0.286259
v -0.946024 0.000000 -0.369951
v -0.946024 0.062651 -0.307301
v -0.937308 0.000000 -0.390994
v -0.937308 0.062651 -0.328344
v -1.018072 0.111727 -0.070273
v -0.882069 0.174065 0.150162
v -1.070020 0.174065 0.247874
v -1.186181 0.174065 -0.007936
v -1.070020 0.174065 -0.263745
v -0.882069 0.174065 -0.166034
v -0.966125 0.333414 0.255809
v -1.154076 0.333414 0.158098
v -1.154076 0.333414 -0.158098
v -0.966125 0.333414 -0.255810
v -0.849964 0.333414 -0.000000
v -1.018072 0.434982 -0.000000
v -1.061831 0.150349 0.183836
v -1.048606 0.128569 0.096929
v -1.032659 0.115341 0.005169
v -0.979884 0.115341 -0.022267
v -0.938132 0.128569 0.039496
v -0.903507 0.150349 0.101526
v -0.918093 0.167853 0.190860
v -0.968665 0.165210 0.226498
v -1.023643 0.167853 0.245733
v -0.865318 0.167853 -0.102932
v -0.858192 0.165210 -0.016790
v -0.865318 0.167853 0.074637
v -0.979884 0.115341 -0.111051
v -0.938132 0.128569 -0.146357
v -0.903507 0.150349 -0.164828
v -1.159683 0.150350 -0.031650
v -1.116884 0.128569 -0.053431
v -1.065276 0.115341 -0.066659
v -1.109035 0.167853 0.201340
v -1.147418 0.165210 0.133571
v -1.174270 0.167853 0.057682
v -1.061831 0.150349 -0.247138
v -1.048606 0.128569 -0.203791
v -1.032659 0.115341 -0.138487
v -1.174270 0.167853 -0.085976
v -1.147418 0.165210 -0.167150
v -1.109035 0.167853 -0.229635
v -1.023643 0.167853 -0.274028
v -0.968665 0.165210 -0.260078
v -0.918093 0.167853 -0.219154
v -0.838273 0.297388 0.044392
v -0.839319 0.251242 0.092927
v -0.856303 0.205096 0.133177
v -0.856303 0.205096 -0.133177
v -0.839319 0.251242 -0.092927
v -0.838273 0.297388 -0.044392
v -0.988899 0.297389 0.287317
v -1.018072 0.251242 0.300723
v -1.047246 0.205096 0.287317
v -0.888920 0.205096 0.205008
v -0.907597 0.251242 0.243289
v -0.936124 0.297389 0.259881
v -1.179842 0.297389 0.133177
v -1.196826 0.251242 0.092927
v -1.197872 0.205097 0.044392
v -1.100021 0.205096 0.259881
v -1.128547 0.251242 0.243289
v -1.147225 0.297389 0.205008
v -1.147225 0.297389 -0.205008
v -1.128548 0.251242 -0.243290
v -1.100021 0.205096 -0.259881
v -1.197872 0.205097 -0.044392
v -1.196826 0.251242 -0.092927
v -1.179842 0.297389 -0.133177
v -0.936124 0.297389 -0.259881
v -0.907597 0.251242 -0.243290
v -0.888920 0.205096 -0.205008
v -1.047246 0.205096 -0.287317
v -1.018072 0.251242 -0.300723
v -0.988899 0.297389 -0.287317
v -0.861875 0.343534 0.071829
v -0.888726 0.347841 0.150361
v -0.927109 0.343534 0.215487
v -1.012501 0.343534 0.259880
v -1.067479 0.347841 0.243288
v -1.118052 0.343534 0.205007
v -1.170826 0.343534 0.088784
v -1.177953 0.347841 -0.000000
v -1.170826 0.343534 -0.088785
v -1.118052 0.343534 -0.205007
v -1.067479 0.347841 -0.243288
v -1.012502 0.343534 -0.259880
v -0.927109 0.343534 -0.215488
v -0.888726 0.347841 -0.150361
v -0.861875 0.343534 -0.071829
v -1.003486 0.429092 0.071828
v -0.987539 0.407541 0.150360
v -0.974313 0.372055 0.215487
v -0.876462 0.372054 -0.000000
v -0.919261 0.407541 -0.000000
v -0.970869 0.429092 -0.000000
v -1.056260 0.429092 0.044392
v -1.098012 0.407541 0.092926
v -1.132638 0.372055 0.133177
v -1.056260 0.429092 -0.044392
v -1.098012 0.407541 -0.092927
v -1.132638 0.372055 -0.133177
v -1.003486 0.429092 -0.071828
v -0.987539 0.407541 -0.150360
v -0.974313 0.372055 -0.215487
v -0.950071 0.415584 -0.079049
v -0.898123 0.384198 -0.079049
v -0.934019 0.384198 -0.158099
v -1.044046 0.415584 -0.127904
v -1.027995 0.384198 -0.206953
v -1.086074 0.384198 -0.176759
v -1.102126 0.415584 -0.000000
v -1.144154 0.384198 -0.048854
v -1.144154 0.384198 0.048855
v -1.044046 0.415584 0.127903
v -1.086074 0.384198 0.176758
v -1.027994 0.384198 0.206953
v -0.950071 0.415584 0.079049
v -0.934019 0.384198 0.158099
v -0.898123 0.384198 0.079049
v -0.856095 0.302028 -0.127904
v -0.866015 0.251242 -0.176759
v -0.891990 0.302028 -0.206955
v -1.044047 0.302028 -0.286004
v -1.076153 0.251242 -0.286005
v -1.102127 0.302028 -0.255810
v -1.196103 0.302027 -0.048855
v -1.206024 0.251242 -0.000000
v -1.196103 0.302028 0.048855
v -1.102127 0.302028 0.255809
v -1.076153 0.251242 0.286005
v -1.044047 0.302028 0.286004
v -0.891990 0.302028 0.206954
v -0.866015 0.251242 0.176760
v -0.856095 0.302027 0.127904
v -0.959992 0.251242 -0.286005
v -0.934017 0.200458 -0.255810
v -0.992097 0.200458 -0.286004
v -1.170128 0.251242 -0.176760
v -1.144154 0.200458 -0.206955
v -1.180050 0.200458 -0.127904
v -1.170128 0.251242 0.176760
v -1.180050 0.200458 0.127904
v -1.144154 0.200458 0.206954
v -0.959992 0.251242 0.286005
v -0.992097 0.200458 0.286004
v -0.934017 0.200458 0.255809
v -0.830120 0.251242 -0.000000
v -0.840042 0.200458 0.048855
v -0.840042 0.200458 -0.048855
v -0.950071 0.142896 -0.215863
v -0.992098 0.123632 -0.186271
v -1.008151 0.142896 -0.246058
v -1.102127 0.142896 -0.197202
v -1.086073 0.123632 -0.137416
v -1.138022 0.142896 -0.118153
v -1.138022 0.142896 0.039945
v -1.086073 0.123632 0.020682
v -1.102127 0.142896 0.118995
v -0.891991 0.142896 -0.087958
v -0.891991 0.142896 0.009751
v -0.934018 0.123632 -0.058368
v -1.008150 0.142896 0.167849
v -0.992097 0.123632 0.069536
v -0.950071 0.142896 0.137654
v -1.018072 0.113554 -0.240735
v -0.933070 0.146022 -0.146510
v -1.050539 0.146022 -0.108342
v -1.123141 0.146022 -0.208267
v -1.050539 0.146022 -0.308193
v -0.933070 0.146022 -0.270024
v -0.985605 0.208976 -0.072364
v -1.103074 0.208976 -0.110532
v -1.103074 0.208976 -0.234046
v -0.985605 0.208976 -0.272215
v -0.913004 0.208976 -0.172289
v -1.018072 0.261876 -0.172289
v -1.037156 0.122326 -0.173229
v -0.968110 0.122326 -0.195663
v -0.987193 0.141410 -0.117844
v -0.918147 0.141410 -0.212879
v -0.968110 0.122326 -0.268263
v -1.079829 0.122326 -0.231963
v -1.098914 0.141410 -0.154144
v -1.037156 0.122326 -0.290697
v -1.098914 0.141410 -0.271614
v -0.987193 0.141410 -0.307914
v -0.906351 0.172289 -0.145700
v -0.906351 0.172289 -0.218300
v -1.018072 0.172289 -0.064530
v -0.949025 0.172289 -0.086965
v -1.129793 0.172289 -0.145700
v -1.087120 0.172289 -0.086965
v -1.087120 0.172289 -0.277036
v -1.129793 0.172289 -0.218300
v -0.949025 0.172289 -0.277036
v -1.018072 0.172289 -0.299470
v -0.937231 0.216489 -0.113554
v -1.048951 0.216489 -0.077255
v -1.117998 0.216489 -0.172289
v -1.048951 0.216489 -0.267324
v -0.937231 0.216489 -0.231024
v -0.998989 0.247583 -0.113555
v -0.956315 0.247583 -0.172289
v -1.068035 0.247583 -0.135989
v -1.068035 0.247583 -0.208589
v -0.998989 0.247583 -0.231023
v -1.018072 0.177510 -0.333405
v -0.921737 0.254622 -0.258925
v -1.054869 0.254622 -0.215667
v -1.137149 0.254622 -0.328916
v -1.054869 0.254622 -0.442165
v -0.921737 0.254622 -0.398907
v -0.981276 0.383966 -0.215667
v -1.114408 0.383966 -0.258925
v -1.114408 0.383966 -0.398907
v -0.981276 0.383966 -0.442165
v -0.898995 0.383966 -0.328916
v -1.018072 0.463903 -0.328916
v -1.039700 0.196281 -0.262350
v -0.961448 0.196281 -0.287776
v -0.983076 0.243268 -0.221210
v -0.904824 0.243268 -0.328916
v -0.961448 0.196281 -0.370055
v -1.088064 0.196281 -0.328916
v -1.109693 0.243268 -0.262350
v -1.039700 0.196281 -0.395481
v -1.109693 0.243268 -0.395481
v -0.983076 0.243268 -0.436622
v -0.891455 0.319294 -0.287776
v -0.891455 0.319294 -0.370055
v -1.018072 0.319294 -0.195783
v -0.939819 0.319294 -0.221209
v -1.144689 0.319294 -0.287776
v -1.096326 0.319294 -0.221209
v -1.096326 0.319294 -0.436622
v -1.144689 0.319294 -0.370055
v -0.939819 0.319294 -0.436622
v -1.018072 0.319294 -0.462048
v -0.926452 0.395321 -0.262350
v -1.053069 0.395321 -0.221210
v -1.131321 0.395321 -0.328916
v -1.053069 0.395321 -0.436622
v -0.926452 0.395321 -0.395481
v -0.996444 0.442306 -0.262350
v -0.948081 0.442306 -0.328916
v -1.074697 0.442306 -0.287776
v -1.074697 0.442306 -0.370055
v -0.996444 0.442306 -0.395481
v -1.018072 0.200204 -0.375904
v -1.018072 0.272508 -0.563856
v -0.956845 0.232232 -0.375904
v -1.008888 0.277313 -0.563856
v -0.941722 0.304197 -0.375904
v -1.006620 0.288107 -0.563856
v -0.984094 0.361908 -0.375904
v -1.012976 0.296765 -0.563856
v -1.052051 0.361908 -0.375904
v -1.023169 0.296765 -0.563856
v -1.094422 0.304197 -0.375904
v -1.029525 0.288107 -0.563856
v -1.079300 0.232232 -0.375904
v -1.027257 0.277313 -0.563856
v -1.018072 0.259749 -0.563856
v -1.001072 0.273856 -0.551504
v -1.024566 0.273856 -0.543871
v -1.039086 0.273856 -0.563856
v -1.024566 0.273856 -0.583840
v -1.001072 0.273856 -0.576207
v -1.011579 0.296680 -0.543871
v -1.035073 0.296680 -0.551504
v -1.035073 0.296680 -0.576207
v -1.011579 0.296680 -0.583840
v -0.997058 0.296680 -0.563856
v -1.018072 0.310788 -0.563856
v -1.090913 0.395852 -0.367798
v -1.096073 0.582994 -0.316370
v -1.050328 0.395852 -0.342983
v -1.093753 0.582994 -0.314952
v -1.044425 0.395852 -0.295780
v -1.093417 0.582994 -0.312255
v -1.077650 0.395852 -0.261735
v -1.095315 0.582994 -0.310309
v -1.124982 0.395852 -0.266484
v -1.098020 0.582994 -0.310580
v -1.150781 0.395852 -0.306451
v -1.099494 0.582994 -0.312865
v -1.135619 0.395852 -0.351540
v -1.098628 0.582994 -0.315441
v -1.093649 0.489423 -0.348357
v -1.096151 0.591500 -0.323422
v -1.073357 0.489423 -0.335949
v -1.094412 0.591500 -0.322359
v -1.070405 0.489423 -0.312348
v -1.094158 0.591500 -0.320336
v -1.087018 0.489423 -0.295326
v -1.095583 0.591500 -0.318877
v -1.110684 0.489423 -0.297700
v -1.097611 0.591500 -0.319080
v -1.123584 0.489423 -0.317683
v -1.098717 0.591500 -0.320793
v -1.116002 0.489423 -0.340228
v -1.098067 0.591500 -0.322725
v -0.945231 0.395852 -0.367798
v -0.940072 0.582994 -0.316370
v -0.900526 0.395852 -0.351540
v -0.937517 0.582994 -0.315441
v -0.885363 0.395852 -0.306451
v -0.936651 0.582994 -0.312865
v -0.911162 0.395852 -0.266484
v -0.938125 0.582994 -0.310580
v -0.958495 0.395852 -0.261735
v -0.940830 0.582994 -0.310309
v -0.991719 0.395852 -0.295780
v -0.942728 0.582994 -0.312255
v -0.985817 0.395852 -0.342983
v -0.942391 0.582994 -0.314952
v -0.942495 0.489423 -0.348357
v -0.939994 0.591500 -0.323422
v -0.920142 0.489423 -0.340228
v -0.938078 0.591500 -0.322725
v -0.912561 0.489423 -0.317683
v -0.937428 0.591500 -0.320793
v -0.925461 0.489423 -0.297700
v -0.938533 0.591500 -0.319080
v -0.949127 0.489423 -0.295326
v -0.940562 0.591500 -0.318877
v -0.965739 0.489423 -0.312348
v -0.941986 0.591500 -0.320336
v -0.962788 0.489423 -0.335949
v -0.941733 0.591500 -0.322359
v -1.080723 0.336307 -0.407229
v -1.063723 0.350414 -0.394877
v -1.087217 0.350414 -0.387244
v -1.101737 0.350414 -0.407229
v -1.087217 0.350414 -0.427214
v -1.063723 0.350414 -0.419581
v -1.074229 0.373239 -0.387244
v -1.097723 0.373239 -0.394877
v -1.097723 0.373239 -0.419581
v -1.074229 0.373239 -0.427214
v -1.059709 0.373239 -0.407229
v -1.080723 0.387345 -0.407229
v -0.955422 0.336307 -0.407229
v -0.938421 0.350414 -0.394877
v -0.961915 0.350414 -0.387244
v -0.976435 0.350414 -0.407229
v -0.961915 0.350414 -0.427214
v -0.938421 0.350414 -0.419581
v -0.948928 0.373239 -0.387244
v -0.972422 0.373239 -0.394877
v -0.972422 0.373239 -0.419581
v -0.948928 0.373239 -0.427214
v -0.934408 0.373239 -0.407229
v -0.955422 0.387345 -0.407229
v -1.018072 0.364222 0.184606
v -1.018072 0.440343 0.370082
v -0.923122 0.307732 0.201942
v -0.916340 0.379818 0.388655
v -0.923122 0.194753 0.236612
v -0.916340 0.258770 0.425802
v -1.018072 0.155157 0.227104
v -1.018072 0.198245 0.444376
v -1.113022 0.194753 0.236612
v -1.119804 0.258770 0.425802
v -1.113022 0.307732 0.201942
v -1.119804 0.379818 0.388655
v -1.018072 0.426942 0.344162
v -1.018072 0.502973 0.541678
v -0.916340 0.373118 0.375695
v -0.957034 0.470679 0.560598
v -0.916340 0.265469 0.438762
v -0.957034 0.406089 0.598438
v -1.018072 0.211645 0.470295
v -1.018072 0.373795 0.617358
v -1.119804 0.265469 0.438762
v -1.079111 0.406089 0.598438
v -1.119804 0.373118 0.375695
v -1.079111 0.470679 0.560598
v -1.018072 0.387345 0.626506
v -0.961404 0.434368 0.667678
v -1.039717 0.434368 0.693123
v -1.088117 0.434368 0.626506
v -1.039717 0.434368 0.559889
v -0.961404 0.434368 0.585334
v -0.996427 0.510452 0.693123
v -1.074741 0.510452 0.667678
v -1.074741 0.510452 0.585334
v -0.996427 0.510452 0.559889
v -0.948027 0.510452 0.626506
v -1.018072 0.557474 0.626506
v -1.030794 0.400050 0.665663
v -0.984764 0.400050 0.650706
v -0.997486 0.427688 0.689862
v -0.951455 0.427688 0.626506
v -0.984764 0.400050 0.602306
v -1.059244 0.400050 0.626506
v -1.071967 0.427688 0.665663
v -1.030794 0.400050 0.587349
v -1.071967 0.427688 0.587349
v -0.997486 0.427688 0.563150
v -0.943592 0.472410 0.650706
v -0.943592 0.472410 0.602306
v -1.018072 0.472410 0.704819
v -0.972041 0.472410 0.689863
v -1.092553 0.472410 0.650706
v -1.064103 0.472410 0.689863
v -1.064103 0.472410 0.563149
v -1.092553 0.472410 0.602306
v -0.972041 0.472410 0.563149
v -1.018072 0.472410 0.548193
v -0.964178 0.517131 0.665663
v -1.038659 0.517131 0.689862
v -1.084689 0.517131 0.626506
v -1.038658 0.517131 0.563150
v -0.964178 0.517131 0.587349
v -1.005350 0.544770 0.665663
v -0.976901 0.544770 0.626506
v -1.051381 0.544770 0.650706
v -1.051381 0.544770 0.602306
v -1.005350 0.544770 0.587349
vn -0.000000 -0.340600 -0.940200
vn -0.000000 0.875900 -0.482500
vn 0.478000 0.803300 -0.355100
vn 0.582300 -0.389300 -0.713700
vn 0.811100 0.567100 0.143200
vn 0.811100 -0.567100 -0.143200
vn 0.582300 0.389300 0.713700
vn 0.478000 -0.803300 0.355100
vn -0.000000 0.340600 0.940200
vn -0.000000 -0.875900 0.482500
vn -0.582300 0.389300 0.713700
vn -0.478000 -0.803300 0.355100
vn -0.811100 0.567100 0.143200
vn -0.811100 -0.567100 -0.143200
vn -0.478000 0.803300 -0.355100
vn -0.582300 -0.389300 -0.713700
vn -0.000000 -0.320900 -0.947100
vn -0.000000 0.889000 -0.458000
vn 0.469200 0.814600 -0.340900
vn 0.584000 -0.369600 -0.722700
vn 0.816600 0.556500 0.153300
vn 0.816600 -0.556500 -0.153300
vn 0.584000 0.369600 0.722700
vn 0.469200 -0.814600 0.340900
vn -0.000000 0.320900 0.947100
vn -0.000000 -0.889000 0.458000
vn -0.584000 0.369600 0.722700
vn -0.469200 -0.814600 0.340900
vn -0.816600 0.556500 0.153300
vn -0.816600 -0.556500 -0.153300
vn -0.469200 0.814600 -0.340900
vn -0.584000 -0.369600 -0.722700
vn -0.000000 0.340700 0.940200
vn -0.000000 -0.340700 -0.940200
vn 0.000900 -1.000000 -0.003100
vn 0.124900 -0.990700 0.054300
vn -0.045400 -0.995300 0.085800
vn 0.649600 -0.697800 0.301900
vn 0.402300 -0.897900 0.178800
vn 0.692400 -0.705100 0.152700
vn -0.163900 -0.986500 -0.004100
vn -0.055200 -0.992000 -0.113500
vn 0.140500 -0.987700 -0.069100
vn 0.900000 -0.327100 0.288000
vn -0.270600 -0.804400 0.528900
vn -0.001300 -0.876400 0.481600
vn -0.203400 -0.471300 0.858200
vn -0.816300 -0.577600 0.006600
vn -0.707900 -0.692800 0.137600
vn -0.948200 -0.300100 0.104000
vn -0.397500 -0.496300 -0.771800
vn -0.606900 -0.560100 -0.563900
vn -0.598300 -0.281700 -0.750100
vn 0.790800 -0.497900 -0.356000
vn 0.638300 -0.559400 -0.528800
vn 0.815200 -0.264000 -0.515600
vn 0.771200 -0.389300 0.503700
vn -0.565800 -0.426400 0.705800
vn -0.958000 -0.270100 -0.096400
vn -0.230400 -0.300300 -0.925600
vn 0.920100 -0.261500 -0.291600
vn 0.362700 0.599400 0.713600
vn 0.582100 0.610000 0.537700
vn 0.272500 0.800100 0.534400
vn -0.787500 0.497200 0.364300
vn -0.613000 0.600400 0.513600
vn -0.634700 0.715100 0.292700
vn -0.787500 0.497200 -0.364300
vn -0.830800 0.524500 -0.186300
vn -0.634700 0.715100 -0.292700
vn 0.362700 0.599400 -0.713600
vn 0.025400 0.678900 -0.733700
vn 0.272500 0.800100 -0.534400
vn 0.891300 0.453500 0.000000
vn 0.839300 0.519900 -0.158900
vn 0.739000 0.673700 0.000000
vn 0.256500 0.966500 0.000000
vn 0.078600 0.984600 -0.156400
vn -0.001600 1.000000 0.000000
vn 0.517600 0.855600 0.000000
vn 0.369600 0.913300 -0.171100
vn 0.638000 0.750500 -0.172100
vn 0.172200 0.924900 -0.339100
vn 0.483800 0.799500 -0.356000
vn 0.741000 0.577200 -0.343100
vn 0.582100 0.610000 -0.537700
vn -0.208100 0.973300 -0.096900
vn -0.146500 0.946700 -0.287000
vn -0.068700 0.859500 -0.506400
vn -0.430600 0.880300 -0.199200
vn -0.391200 0.821400 -0.415000
vn -0.332500 0.676600 -0.657000
vn -0.613000 0.600400 -0.513600
vn -0.208100 0.973300 0.096900
vn -0.447500 0.894300 0.000000
vn -0.665400 0.740000 -0.098000
vn -0.430600 0.880300 0.199200
vn -0.665400 0.740000 0.098000
vn -0.845600 0.533800 0.000000
vn -0.830800 0.524500 0.186300
vn 0.078600 0.984600 0.156400
vn -0.146500 0.946700 0.287000
vn -0.391200 0.821400 0.415000
vn 0.172200 0.924900 0.339100
vn -0.068700 0.859500 0.506400
vn -0.332500 0.676600 0.657000
vn 0.025400 0.678900 0.733700
vn 0.369600 0.913300 0.171100
vn 0.483800 0.799500 0.356000
vn 0.638000 0.750500 0.172100
vn 0.741000 0.577200 0.343100
vn 0.839300 0.519900 0.158900
vn 0.963200 0.249800 -0.098900
vn 0.979300 0.000300 -0.202600
vn 0.909900 0.294500 -0.292200
vn 0.907000 0.010100 -0.421100
vn 0.793900 0.325800 -0.513400
vn 0.748300 -0.001000 -0.663300
vn 0.587700 0.329100 -0.739100
vn 0.219900 0.363100 -0.905400
vn -0.000000 -0.000000 -1.000000
vn -0.210800 0.400800 -0.891600
vn -0.447100 0.013100 -0.894400
vn -0.580700 0.366200 -0.727100
vn -0.748300 0.000900 -0.663300
vn -0.804500 0.293000 -0.516600
vn -0.918500 0.262600 -0.295600
vn -0.979300 -0.000300 -0.202600
vn -0.954900 0.279800 -0.099100
vn -1.000000 0.009100 0.000000
vn -0.954900 0.279800 0.099100
vn -0.979300 -0.000300 0.202600
vn -0.918500 0.262600 0.295600
vn -0.804500 0.293000 0.516600
vn -0.748300 0.000900 0.663300
vn -0.580700 0.366200 0.727100
vn -0.447100 0.013100 0.894400
vn -0.210800 0.400800 0.891600
vn -0.000000 -0.000000 1.000000
vn 0.219900 0.363100 0.905400
vn 0.587700 0.329100 0.739100
vn 0.748300 -0.001000 0.663300
vn 0.793900 0.325800 0.513400
vn 0.907000 0.010100 0.421100
vn 0.909900 0.294500 0.292200
vn 0.979300 0.000300 0.202600
vn 0.963200 0.249800 0.098900
vn 0.447100 -0.013100 -0.894400
vn 0.599700 -0.307500 -0.738800
vn 0.221300 -0.324800 -0.919500
vn 0.361600 -0.594100 -0.718500
vn -0.034700 -0.576500 -0.816300
vn -0.907000 -0.010100 -0.421100
vn -0.806200 -0.295700 -0.512400
vn -0.910800 -0.297800 -0.286000
vn -0.729400 -0.595100 -0.337400
vn -0.785200 -0.601700 -0.146200
vn -0.907000 -0.010100 0.421100
vn -0.874800 -0.390000 0.287500
vn -0.749600 -0.442100 0.492700
vn -0.567600 -0.781500 0.259200
vn -0.426600 -0.821700 0.378000
vn 0.447100 -0.013100 0.894400
vn 0.191400 -0.531200 0.825400
vn 0.538900 -0.496500 0.680500
vn 0.222200 -0.876200 0.427600
vn 0.443500 -0.812600 0.378100
vn 1.000000 -0.009100 0.000000
vn 0.932900 -0.345400 0.101600
vn 0.944700 -0.314800 -0.092200
vn 0.744300 -0.667800 -0.000700
vn 0.786300 -0.592900 -0.174000
vn 0.577500 -0.768600 -0.275300
vn 0.332700 -0.929400 -0.159600
vn 0.371100 -0.835900 -0.404500
vn 0.116200 -0.965300 -0.233700
vn 0.069300 -0.850500 -0.521300
vn -0.144300 -0.945900 -0.290500
vn -0.282800 -0.771400 -0.570000
vn -0.444600 -0.831400 -0.333400
vn -0.275600 -0.952100 -0.132400
vn -0.527800 -0.836400 -0.147700
vn -0.356200 -0.934400 -0.005300
vn -0.570000 -0.821700 -0.005900
vn -0.423400 -0.899500 0.108000
vn -0.221300 -0.970400 0.097000
vn -0.281400 -0.938500 0.199900
vn -0.093800 -0.979600 0.177900
vn -0.145300 -0.950100 0.276000
vn 0.525100 -0.847000 -0.082600
vn 0.464400 -0.883400 0.063500
vn 0.300100 -0.953900 -0.004400
vn 0.259100 -0.959100 0.114400
vn 0.035900 -0.966200 0.255400
vn 0.080700 -0.985000 0.152300
vn 0.218300 -0.949900 0.223800
vn -0.000000 -0.999600 -0.027000
vn 0.228100 -0.964100 0.136000
vn -0.079500 -0.972300 0.219600
vn 0.481900 -0.815600 0.320400
vn 0.715000 -0.697900 -0.040500
vn -0.332600 -0.942200 -0.040100
vn -0.133500 -0.862000 -0.488900
vn 0.321500 -0.900900 -0.291500
vn 0.926000 -0.194800 0.323300
vn -0.156000 -0.876000 0.456500
vn 0.142800 -0.897300 0.417600
vn -0.013700 -0.382700 0.923800
vn -0.777500 -0.627900 -0.036500
vn -0.440500 -0.849200 0.291300
vn -0.927200 -0.203700 0.314300
vn -0.309700 -0.101700 -0.945400
vn -0.710000 -0.434100 -0.554500
vn -0.577700 0.346800 -0.738900
vn 0.757100 -0.318100 -0.570600
vn 0.291000 -0.253400 -0.922600
vn 0.558100 0.364800 -0.745300
vn 0.558900 -0.339500 0.756500
vn -0.540800 -0.339100 0.769700
vn -0.956800 0.077500 -0.280300
vn 0.009700 0.460300 -0.887700
vn 0.960900 0.052700 -0.271800
vn 0.275900 0.408800 0.869900
vn 0.671200 0.548200 0.498900
vn 0.142800 0.886800 0.439600
vn -0.712000 0.451800 0.537600
vn -0.261500 0.515800 0.815800
vn -0.373900 0.886800 0.271700
vn -0.666500 0.581200 -0.466900
vn -0.801500 0.597900 0.011500
vn -0.373900 0.886800 -0.271700
vn 0.248200 0.616000 -0.747700
vn -0.233100 0.668700 -0.706100
vn 0.142800 0.886800 -0.439600
vn 0.854500 0.519200 0.019000
vn 0.624900 0.643200 -0.442500
vn 0.462200 0.886800 0.000000
vn -0.000000 1.000000 0.000000
vn -0.000000 -0.999800 -0.021100
vn 0.435300 -0.842500 0.317500
vn -0.165700 -0.843400 0.511200
vn 0.732900 -0.423400 0.532500
vn 0.865100 -0.501700 0.000000
vn -0.541200 -0.840900 0.001400
vn -0.169000 -0.838000 -0.518800
vn 0.440700 -0.839200 -0.318700
vn 0.951100 -0.000000 0.309000
vn -0.279900 -0.423400 0.861600
vn 0.267300 -0.501700 0.822700
vn -0.905900 -0.423400 0.000000
vn -0.699800 -0.501700 0.508500
vn -0.951100 -0.000000 0.309000
vn -0.279900 -0.423400 -0.861600
vn -0.699800 -0.501700 -0.508500
vn -0.587800 -0.000000 -0.809000
vn 0.732900 -0.423400 -0.532500
vn 0.267300 -0.501700 -0.822700
vn 0.587800 -0.000000 -0.809000
vn 0.587800 -0.000000 0.809000
vn -0.587800 -0.000000 0.809000
vn -0.951100 -0.000000 -0.309000
vn 0.951100 -0.000000 -0.309000
vn 0.279900 0.423400 0.861600
vn 0.699800 0.501700 0.508500
vn 0.170400 0.834300 0.524300
vn -0.732900 0.423400 0.532500
vn -0.267300 0.501700 0.822700
vn -0.446000 0.834300 0.324000
vn -0.732900 0.423400 -0.532500
vn -0.865100 0.501700 0.000000
vn -0.446000 0.834300 -0.324000
vn 0.279900 0.423400 -0.861600
vn -0.267300 0.501700 -0.822700
vn 0.170400 0.834300 -0.524300
vn 0.905900 0.423400 0.000000
vn 0.699800 0.501700 -0.508500
vn 0.551300 0.834300 0.000000
vn -0.000000 -0.879800 0.475300
vn -0.000000 -0.662200 -0.749400
vn 0.530900 -0.395900 -0.749300
vn 0.693200 -0.530700 0.487700
vn 0.647700 0.138100 -0.749300
vn 0.849200 0.185800 0.494200
vn 0.302800 0.588900 -0.749300
vn 0.392900 0.784800 0.479200
vn -0.302800 0.588900 -0.749300
vn -0.392900 0.784800 0.479200
vn -0.647700 0.138100 -0.749300
vn -0.849200 0.185800 0.494200
vn -0.530900 -0.396000 -0.749300
vn -0.693200 -0.530700 0.487700
vn -0.000000 -1.000000 0.000000
vn 0.727700 -0.436900 0.528700
vn -0.278000 -0.436900 0.855500
vn 0.727700 -0.436900 -0.528700
vn -0.899500 -0.436900 0.000000
vn -0.278000 -0.436900 -0.855500
vn 0.899500 0.436900 0.000000
vn 0.278000 0.436900 0.855500
vn -0.727700 0.436900 0.528700
vn -0.727700 0.436900 -0.528700
vn 0.278000 0.436900 -0.855500
vn 0.085400 -0.518100 -0.851000
vn 0.069300 0.719900 -0.690600
vn 0.583200 0.719800 -0.376400
vn 0.718600 -0.518100 -0.463900
vn 0.657900 0.719900 0.221200
vn 0.810700 -0.518100 0.272600
vn 0.237200 0.719900 0.652300
vn 0.292300 -0.518100 0.803800
vn -0.362100 0.719800 0.592200
vn -0.446200 -0.518100 0.729700
vn -0.688700 0.719900 0.086100
vn -0.848700 -0.518100 0.106100
vn -0.496800 0.719800 -0.484800
vn -0.612100 -0.518100 -0.597400
vn 0.084700 -0.529300 -0.844200
vn 0.070300 0.709600 -0.701100
vn 0.591900 0.709700 -0.382100
vn 0.712800 -0.529200 -0.460200
vn 0.667900 0.709600 0.224600
vn 0.804200 -0.529300 0.270400
vn 0.240800 0.709700 0.662100
vn 0.290000 -0.529300 0.797400
vn -0.367500 0.709700 0.601100
vn -0.442600 -0.529300 0.723900
vn -0.699100 0.709600 0.087400
vn -0.841900 -0.529200 0.105300
vn -0.504200 0.709700 -0.492100
vn -0.607200 -0.529200 -0.592600
vn -0.085400 -0.518100 -0.851000
vn -0.069300 0.719900 -0.690600
vn 0.496800 0.719800 -0.484800
vn 0.612100 -0.518100 -0.597400
vn 0.688700 0.719900 0.086100
vn 0.848700 -0.518100 0.106100
vn 0.362100 0.719800 0.592200
vn 0.446200 -0.518100 0.729700
vn -0.237200 0.719900 0.652300
vn -0.292300 -0.518100 0.803800
vn -0.657900 0.719900 0.221200
vn -0.810700 -0.518100 0.272600
vn -0.583200 0.719800 -0.376400
vn -0.718600 -0.518100 -0.463900
vn -0.084700 -0.529300 -0.844200
vn -0.070300 0.709600 -0.701100
vn 0.504200 0.709700 -0.492100
vn 0.607200 -0.529200 -0.592600
vn 0.699100 0.709600 0.087400
vn 0.841900 -0.529200 0.105300
vn 0.367500 0.709700 0.601100
vn 0.442600 -0.529300 0.723900
vn -0.240800 0.709700 0.662100
vn -0.290000 -0.529200 0.797400
vn -0.667900 0.709600 0.224600
vn -0.804200 -0.529300 0.270400
vn -0.591900 0.709700 -0.382100
vn -0.712900 -0.529200 -0.460100
vn -0.000000 0.566400 -0.824100
vn -0.000000 0.952400 0.304700
vn 0.701700 0.557200 0.444100
vn 0.671000 0.195100 -0.715400
vn 0.685900 -0.213800 0.695600
vn 0.681400 -0.586800 -0.437400
vn -0.000000 -0.614200 0.789100
vn -0.000000 -0.874800 -0.484500
vn -0.685900 -0.213800 0.695600
vn -0.681400 -0.586800 -0.437500
vn -0.701700 0.557200 0.444100
vn -0.671000 0.195100 -0.715400
vn -0.000000 0.448200 -0.893900
vn -0.000000 0.980100 0.198400
vn 0.631600 0.663300 0.401500
vn 0.741000 0.072000 -0.667600
vn 0.626100 0.072500 0.776400
vn 0.740600 -0.633900 -0.222800
vn -0.000000 -0.237800 0.971300
vn -0.000000 -0.999900 0.017300
vn -0.626100 0.072500 0.776400
vn -0.740600 -0.633900 -0.222800
vn -0.631600 0.663300 0.401500
vn -0.741000 0.072000 -0.667600
vn 0.446000 -0.834300 0.324000
vn -0.170300 -0.834300 0.524300
vn -0.551300 -0.834300 0.000000
vn -0.170300 -0.834300 -0.524300
vn 0.446000 -0.834300 -0.324000
vt 0.812550 0.768841
vt 0.812550 0.642090
vt 0.821660 0.642732
vt 0.821660 0.769482
vt 0.121553 0.631551
vt 0.121553 0.538877
vt 0.130879 0.540570
vt 0.130879 0.633244
vt 0.911000 0.883821
vt 0.911000 0.794404
vt 0.920441 0.795798
vt 0.920441 0.885214
vt 0.846360 0.768410
vt 0.846360 0.642090
vt 0.855022 0.643018
vt 0.855022 0.769338
vt 0.864131 0.642327
vt 0.864131 0.768647
vt 0.672308 0.830695
vt 0.682264 0.742203
vt 0.691674 0.741288
vt 0.681718 0.829780
vt 0.768624 0.405803
vt 0.769900 0.412561
vt 0.764066 0.417642
vt 0.754539 0.418070
vt 0.746899 0.413594
vt 0.745623 0.406836
vt 0.751458 0.401755
vt 0.760985 0.401327
vt 0.745623 0.510189
vt 0.755151 0.509761
vt 0.803890 0.769704
vt 0.803890 0.642954
vt 0.691674 0.841038
vt 0.686388 0.846617
vt 0.676978 0.847532
vt 0.668956 0.843248
vt 0.667022 0.836274
vt 0.689739 0.834064
vt 0.922969 0.511465
vt 0.922969 0.469215
vt 0.932860 0.469912
vt 0.932860 0.512162
vt 0.947707 0.313151
vt 0.947707 0.282260
vt 0.957832 0.284098
vt 0.957832 0.314989
vt 0.957560 0.499020
vt 0.957560 0.469215
vt 0.967810 0.470728
vt 0.967810 0.500533
vt 0.803890 0.933425
vt 0.803890 0.891319
vt 0.813294 0.892326
vt 0.813294 0.934433
vt 0.823184 0.891576
vt 0.823184 0.933683
vt 0.449860 0.902493
vt 0.458339 0.874046
vt 0.468570 0.874874
vt 0.460091 0.903320
vt 0.691868 0.879454
vt 0.692103 0.886917
vt 0.684993 0.891388
vt 0.674701 0.890250
vt 0.667257 0.884167
vt 0.667022 0.876704
vt 0.674132 0.872232
vt 0.684424 0.873371
vt 0.667022 0.920128
vt 0.677313 0.921267
vt 0.913567 0.512403
vt 0.913567 0.470152
vt 0.468570 0.917262
vt 0.461851 0.922209
vt 0.451620 0.921382
vt 0.443870 0.915264
vt 0.443141 0.907440
vt 0.467841 0.909438
vt 0.803261 0.528078
vt 0.803261 0.401327
vt 0.812371 0.401969
vt 0.812371 0.528720
vt 0.879541 0.494002
vt 0.879541 0.401327
vt 0.888866 0.403020
vt 0.888866 0.495695
vt 0.902031 0.183237
vt 0.902031 0.093820
vt 0.911472 0.095214
vt 0.911472 0.184630
vt 0.859561 0.220140
vt 0.859561 0.093820
vt 0.868223 0.094748
vt 0.868223 0.221068
vt 0.877331 0.094058
vt 0.877331 0.220378
vt 0.497779 0.832509
vt 0.507735 0.744017
vt 0.517145 0.743101
vt 0.507189 0.831594
vt 0.256333 0.667469
vt 0.257609 0.674227
vt 0.251775 0.679308
vt 0.242248 0.679736
vt 0.234609 0.675260
vt 0.233332 0.668502
vt 0.239167 0.663421
vt 0.248694 0.662993
vt 0.233332 0.771854
vt 0.242860 0.771427
vt 0.794600 0.528941
vt 0.794600 0.402191
vt 0.517145 0.842852
vt 0.511858 0.848431
vt 0.502448 0.849346
vt 0.494427 0.845062
vt 0.492493 0.838087
vt 0.515210 0.835878
vt 0.389751 0.924719
vt 0.389751 0.882469
vt 0.399642 0.883165
vt 0.399642 0.925416
vt 0.947707 0.370581
vt 0.947707 0.339689
vt 0.957832 0.341527
vt 0.957832 0.372419
vt 0.334932 0.972542
vt 0.334932 0.942737
vt 0.345182 0.944250
vt 0.345182 0.974055
vt 0.233332 0.936747
vt 0.233332 0.894640
vt 0.242737 0.895647
vt 0.242737 0.937754
vt 0.252626 0.894898
vt 0.252626 0.937005
vt 0.085679 0.903970
vt 0.094158 0.875523
vt 0.104389 0.876350
vt 0.095911 0.904797
vt 0.324828 0.876223
vt 0.325064 0.883686
vt 0.317953 0.888158
vt 0.307662 0.887019
vt 0.300218 0.880937
vt 0.299982 0.873474
vt 0.307093 0.869002
vt 0.317384 0.870141
vt 0.299982 0.916898
vt 0.310274 0.918037
vt 0.380349 0.925657
vt 0.380349 0.883406
vt 0.104389 0.918739
vt 0.097670 0.923686
vt 0.087439 0.922858
vt 0.079689 0.916741
vt 0.078960 0.908917
vt 0.103661 0.910915
vt 0.825751 0.220571
vt 0.825751 0.093820
vt 0.834861 0.094462
vt 0.834861 0.221213
vt 0.408977 0.631886
vt 0.408977 0.539212
vt 0.418303 0.540905
vt 0.418303 0.633579
vt 0.913567 0.371676
vt 0.913567 0.282260
vt 0.923007 0.283653
vt 0.923007 0.373069
vt 0.607399 0.872270
vt 0.607399 0.745950
vt 0.616061 0.746877
vt 0.616061 0.873197
vt 0.625170 0.746187
vt 0.625170 0.872507
vt 0.563333 0.835357
vt 0.573289 0.746865
vt 0.582699 0.745950
vt 0.572743 0.834442
vt 0.128346 0.666388
vt 0.129622 0.673145
vt 0.123788 0.678227
vt 0.114261 0.678654
vt 0.106621 0.674179
vt 0.105345 0.667421
vt 0.111180 0.662340
vt 0.120707 0.661912
vt 0.105345 0.770773
vt 0.114872 0.770345
vt 0.817090 0.221435
vt 0.817090 0.094684
vt 0.582699 0.845701
vt 0.577413 0.851279
vt 0.568003 0.852195
vt 0.559981 0.847910
vt 0.558047 0.840936
vt 0.580765 0.838726
vt 0.922969 0.443577
vt 0.922969 0.401327
vt 0.932860 0.402024
vt 0.932860 0.444274
vt 0.957560 0.432219
vt 0.957560 0.401327
vt 0.967685 0.403165
vt 0.967685 0.434057
vt 0.965582 0.739709
vt 0.965582 0.709904
vt 0.975832 0.711417
vt 0.975832 0.741222
vt 0.922972 0.684197
vt 0.922972 0.642090
vt 0.932376 0.643097
vt 0.932376 0.685204
vt 0.942266 0.642348
vt 0.942266 0.684454
vt 0.563989 0.905341
vt 0.572468 0.876894
vt 0.582699 0.877722
vt 0.574220 0.906169
vt 0.917675 0.566767
vt 0.917911 0.574230
vt 0.910800 0.578702
vt 0.900509 0.577563
vt 0.893065 0.571481
vt 0.892829 0.564018
vt 0.899940 0.559546
vt 0.910231 0.560685
vt 0.892829 0.607442
vt 0.903121 0.608581
vt 0.913567 0.444515
vt 0.913567 0.402265
vt 0.582699 0.920110
vt 0.575980 0.925057
vt 0.565748 0.924230
vt 0.557998 0.918113
vt 0.557270 0.910289
vt 0.581970 0.912286
vt 0.845731 0.528078
vt 0.845731 0.401327
vt 0.854841 0.401969
vt 0.854841 0.528720
vt 0.879541 0.374934
vt 0.879541 0.282260
vt 0.888866 0.283953
vt 0.888866 0.376627
vt 0.888831 0.731506
vt 0.888831 0.642090
vt 0.898272 0.643483
vt 0.898272 0.732900
vt 0.837071 0.375700
vt 0.837071 0.249380
vt 0.845733 0.250307
vt 0.845733 0.376627
vt 0.854842 0.249617
vt 0.854842 0.375937
vt 0.448427 0.832509
vt 0.458383 0.744017
vt 0.467793 0.743101
vt 0.457837 0.831594
vt 0.777913 0.646566
vt 0.779190 0.653324
vt 0.773355 0.658405
vt 0.763828 0.658833
vt 0.756189 0.654357
vt 0.754913 0.647599
vt 0.760747 0.642518
vt 0.770274 0.642090
vt 0.754913 0.750951
vt 0.764440 0.750523
vt 0.837071 0.528941
vt 0.837071 0.402191
vt 0.467793 0.842852
vt 0.462507 0.848431
vt 0.453097 0.849346
vt 0.445075 0.845062
vt 0.443141 0.838087
vt 0.465858 0.835878
vt 0.873856 0.932925
vt 0.873856 0.890674
vt 0.883746 0.891371
vt 0.883746 0.933621
vt 0.955371 0.940806
vt 0.955371 0.909914
vt 0.965496 0.911752
vt 0.965496 0.942644
vt 0.299982 0.972542
vt 0.299982 0.942737
vt 0.310232 0.944250
vt 0.310232 0.974055
vt 0.607399 0.940004
vt 0.607399 0.897898
vt 0.616803 0.898905
vt 0.616803 0.941011
vt 0.626693 0.898155
vt 0.626693 0.940262
vt 0.499990 0.902493
vt 0.508469 0.874046
vt 0.518700 0.874873
vt 0.510221 0.903320
vt 0.768643 0.881178
vt 0.768879 0.888641
vt 0.761768 0.893113
vt 0.751476 0.891974
vt 0.744033 0.885892
vt 0.743797 0.878429
vt 0.750908 0.873957
vt 0.761199 0.875096
vt 0.743797 0.921853
vt 0.754089 0.922992
vt 0.864453 0.933862
vt 0.864453 0.891612
vt 0.518700 0.917262
vt 0.511981 0.922209
vt 0.501749 0.921382
vt 0.493999 0.915264
vt 0.493270 0.907440
vt 0.517971 0.909438
vt 0.128464 0.146887
vt 0.113964 0.128012
vt 0.131649 0.113342
vt 0.053519 0.076399
vt 0.071876 0.088427
vt 0.050832 0.109059
vt 0.303044 0.133344
vt 0.309628 0.100653
vt 0.320534 0.134316
vt 0.309628 0.166450
vt 0.131649 0.178751
vt 0.113964 0.168436
vt 0.034468 0.087349
vt 0.168633 0.508012
vt 0.156349 0.489999
vt 0.175118 0.492983
vt 0.388697 0.134958
vt 0.381780 0.102012
vt 0.403049 0.114074
vt 0.349857 0.249399
vt 0.359968 0.232078
vt 0.370331 0.251141
vt 0.053519 0.220366
vt 0.068517 0.240648
vt 0.045398 0.239982
vt 0.045398 0.053298
vt 0.187084 0.515021
vt 0.403049 0.154738
vt 0.066949 0.382510
vt 0.046846 0.386614
vt 0.056443 0.365051
vt 0.034468 0.208623
vt 0.349850 0.277616
vt 0.359378 0.294488
vt 0.335572 0.295178
vt 0.197801 0.053227
vt 0.212513 0.033069
vt 0.216324 0.063944
vt 0.197801 0.197096
vt 0.195400 0.164404
vt 0.216324 0.185135
vt 0.349850 0.511450
vt 0.331852 0.514512
vt 0.335572 0.492153
vt 0.387294 0.390781
vt 0.380406 0.423698
vt 0.367114 0.390505
vt 0.319502 0.391883
vt 0.308988 0.425766
vt 0.302512 0.393235
vt 0.342629 0.390848
vt 0.330275 0.427736
vt 0.356474 0.426978
vt 0.320620 0.461774
vt 0.344903 0.464266
vt 0.370454 0.460332
vt 0.359378 0.491464
vt 0.275282 0.160628
vt 0.258170 0.145804
vt 0.272316 0.127060
vt 0.299982 0.453100
vt 0.314610 0.489631
vt 0.258085 0.184893
vt 0.238178 0.166913
vt 0.273999 0.197945
vt 0.253891 0.222850
vt 0.235059 0.206536
vt 0.246737 0.249274
vt 0.230200 0.239112
vt 0.212513 0.219625
vt 0.258170 0.105407
vt 0.239253 0.124121
vt 0.216226 0.145763
vt 0.238178 0.082349
vt 0.216226 0.101306
vt 0.194379 0.123515
vt 0.195400 0.083610
vt 0.275282 0.095264
vt 0.258085 0.068501
vt 0.235059 0.045685
vt 0.299982 0.336185
vt 0.320620 0.324331
vt 0.308988 0.360108
vt 0.253891 0.034523
vt 0.273999 0.061117
vt 0.314610 0.300456
vt 0.230200 0.017719
vt 0.237415 0.478051
vt 0.224556 0.455622
vt 0.248170 0.454951
vt 0.233392 0.434222
vt 0.213116 0.437498
vt 0.330275 0.355478
vt 0.344903 0.319750
vt 0.356474 0.354720
vt 0.370454 0.322889
vt 0.380406 0.358040
vt 0.401914 0.411748
vt 0.415476 0.435317
vt 0.394772 0.450357
vt 0.024379 0.226195
vt 0.015433 0.189127
vt 0.406870 0.474494
vt 0.383201 0.487646
vt 0.100832 0.304356
vt 0.076513 0.300990
vt 0.092428 0.286139
vt 0.393467 0.506245
vt 0.370372 0.513397
vt 0.037177 0.322282
vt 0.017948 0.322460
vt 0.032643 0.306352
vt 0.045539 0.343341
vt 0.022911 0.343162
vt 0.033512 0.366696
vt 0.224079 0.261451
vt 0.012350 0.366892
vt 0.205246 0.245137
vt 0.025451 0.388479
vt 0.181471 0.240336
vt 0.189234 0.220210
vt 0.178658 0.186081
vt 0.159332 0.168892
vt 0.174774 0.146804
vt 0.419152 0.133540
vt 0.416076 0.175886
vt 0.156349 0.126202
vt 0.174774 0.102346
vt 0.416076 0.090762
vt 0.159332 0.084328
vt 0.178658 0.064889
vt 0.189234 0.033653
vt 0.211269 0.519499
vt 0.224699 0.500293
vt 0.235999 0.519499
vt 0.197784 0.497829
vt 0.205246 0.012350
vt 0.248489 0.499699
vt 0.211530 0.476039
vt 0.186219 0.473365
vt 0.200099 0.453383
vt 0.193820 0.430599
vt 0.214396 0.418757
vt 0.393467 0.283855
vt 0.383201 0.298470
vt 0.370372 0.275842
vt 0.024379 0.065234
vt 0.038313 0.033227
vt 0.406870 0.312919
vt 0.394772 0.333440
vt 0.015433 0.104506
vt 0.415476 0.350372
vt 0.401914 0.371170
vt 0.051973 0.302050
vt 0.060357 0.320700
vt 0.087242 0.321969
vt 0.070958 0.344234
vt 0.061851 0.261439
vt 0.110465 0.325741
vt 0.096678 0.345755
vt 0.080872 0.366204
vt 0.167988 0.208220
vt 0.383743 0.228041
vt 0.393247 0.243154
vt 0.407150 0.213657
vt 0.395745 0.192677
vt 0.371554 0.203247
vt 0.381780 0.167809
vt 0.167988 0.047369
vt 0.395745 0.075512
vt 0.181471 0.018942
vt 0.407150 0.051739
vt 0.383743 0.038465
vt 0.393247 0.020293
vt 0.370331 0.013083
vt 0.371554 0.065512
vt 0.359968 0.034685
vt 0.349857 0.015070
vt 0.177705 0.448501
vt 0.163959 0.470291
vt 0.173075 0.425671
vt 0.157049 0.445217
vt 0.061851 0.028494
vt 0.103888 0.024625
vt 0.086710 0.034623
vt 0.081314 0.012350
vt 0.068517 0.053965
vt 0.418441 0.392547
vt 0.030360 0.126601
vt 0.012350 0.147196
vt 0.030360 0.171089
vt 0.049689 0.149953
vt 0.050832 0.189908
vt 0.071876 0.209701
vt 0.093741 0.191384
vt 0.090992 0.228115
vt 0.114151 0.205409
vt 0.086710 0.256165
vt 0.110454 0.239466
vt 0.103897 0.370018
vt 0.321208 0.202298
vt 0.299982 0.190873
vt 0.314448 0.226735
vt 0.335917 0.231624
vt 0.086374 0.388479
vt 0.345870 0.206562
vt 0.331404 0.170700
vt 0.357872 0.171198
vt 0.344038 0.135032
vt 0.368636 0.135222
vt 0.357873 0.098787
vt 0.331404 0.098288
vt 0.345870 0.061739
vt 0.321208 0.064564
vt 0.335918 0.034232
vt 0.071529 0.172275
vt 0.071529 0.127787
vt 0.094688 0.149569
vt 0.093741 0.106763
vt 0.331416 0.012350
vt 0.314448 0.037160
vt 0.299982 0.073709
vt 0.110454 0.051011
vt 0.130761 0.076055
vt 0.114151 0.088937
vt 0.090991 0.067155
vt 0.714016 0.320141
vt 0.693140 0.305096
vt 0.716278 0.292032
vt 0.670235 0.293386
vt 0.667406 0.322425
vt 0.559119 0.183979
vt 0.569643 0.157197
vt 0.583912 0.185099
vt 0.569643 0.211000
vt 0.716278 0.345517
vt 0.693140 0.338151
vt 0.648906 0.304345
vt 0.506651 0.688819
vt 0.493328 0.714566
vt 0.484884 0.693427
vt 0.609585 0.185230
vt 0.599307 0.157933
vt 0.624216 0.167779
vt 0.684151 0.665164
vt 0.667022 0.650982
vt 0.690053 0.642090
vt 0.710248 0.713575
vt 0.696596 0.691748
vt 0.723670 0.695740
vt 0.663206 0.275842
vt 0.500306 0.665012
vt 0.624216 0.201031
vt 0.708331 0.667284
vt 0.730213 0.716588
vt 0.585768 0.275842
vt 0.599098 0.292885
vt 0.569825 0.293969
vt 0.670396 0.150807
vt 0.690196 0.137760
vt 0.693319 0.162372
vt 0.670396 0.207006
vt 0.667807 0.177938
vt 0.693319 0.195405
vt 0.585768 0.367183
vt 0.563085 0.366773
vt 0.569825 0.347658
vt 0.609170 0.319167
vt 0.599098 0.346574
vt 0.583580 0.319435
vt 0.559368 0.321011
vt 0.715708 0.208675
vt 0.713800 0.180523
vt 0.690196 0.224242
vt 0.715708 0.155227
vt 0.462877 0.650215
vt 0.473252 0.668847
vt 0.447454 0.678630
vt 0.460624 0.695344
vt 0.624206 0.336797
vt 0.610450 0.365020
vt 0.717127 0.646082
vt 0.730213 0.671955
vt 0.662753 0.224597
vt 0.648916 0.195979
vt 0.648916 0.162947
vt 0.486863 0.647001
vt 0.466274 0.718401
vt 0.443141 0.709256
vt 0.610450 0.278149
vt 0.624206 0.303616
vt 0.609948 0.226932
vt 0.599307 0.211735
vt 0.506651 0.644008
vt 0.609948 0.139877
vt 0.585310 0.137760
vt 0.690544 0.276306
vt 0.648906 0.337400
vt 0.670235 0.349623
vt 0.690544 0.362846
vt 0.671066 0.681672
vt 0.585310 0.229295
vt 0.561951 0.138687
vt 0.590650 0.610748
vt 0.607920 0.585528
vt 0.622726 0.611751
vt 0.621782 0.555351
vt 0.588757 0.552966
vt 0.555038 0.081397
vt 0.558665 0.048266
vt 0.583655 0.073504
vt 0.577135 0.106378
vt 0.562110 0.611751
vt 0.570458 0.585528
vt 0.610018 0.526503
vt 0.042582 0.623127
vt 0.012728 0.609148
vt 0.040742 0.592794
vt 0.615357 0.063233
vt 0.594120 0.037589
vt 0.629524 0.037589
vt 0.329756 0.616545
vt 0.314531 0.637138
vt 0.299982 0.604484
vt 0.384277 0.586338
vt 0.360343 0.603091
vt 0.360343 0.565686
vt 0.642322 0.542710
vt 0.073019 0.610138
vt 0.640939 0.073504
vt 0.328295 0.583441
vt 0.383883 0.558000
vt 0.041940 0.559623
vt 0.026703 0.538877
vt 0.063965 0.539489
vt 0.096853 0.589131
vt 0.072642 0.572811
vt 0.096242 0.556833
vt 0.622616 0.457048
vt 0.589558 0.459132
vt 0.608875 0.426701
vt 0.329755 0.552908
vt 0.299982 0.567079
vt 0.314531 0.539212
vt 0.216488 0.586315
vt 0.195645 0.612310
vt 0.184608 0.576370
vt 0.160296 0.602352
vt 0.156349 0.569372
vt 0.175126 0.630518
vt 0.623915 0.401327
vt 0.591789 0.401873
vt 0.642035 0.433759
vt 0.571438 0.426701
vt 0.558924 0.457048
vt 0.563340 0.401327
vt 0.178201 0.544199
vt 0.213550 0.554157
vt 0.231409 0.612311
vt 0.207097 0.638293
vt 0.643211 0.470552
vt 0.610778 0.486234
vt 0.573341 0.486234
vt 0.012350 0.571821
vt 0.236068 0.544199
vt 0.242475 0.576370
vt 0.634419 0.106378
vt 0.612590 0.095701
vt 0.096853 0.617229
vt 0.604535 0.012350
vt 0.064954 0.637212
vt 0.641025 0.579189
vt 0.572555 0.526503
vt 0.558047 0.555351
vt 0.383882 0.618522
vt 0.351836 0.636277
vt 0.572843 0.020294
vt 0.027692 0.636600
vt 0.355649 0.661838
vt 0.336325 0.744869
vt 0.331862 0.745138
vt 0.325899 0.663636
vt 0.327975 0.744869
vt 0.299982 0.661838
vt 0.411391 0.769136
vt 0.396238 0.857769
vt 0.391581 0.857769
vt 0.380349 0.769136
vt 0.720923 0.404675
vt 0.690737 0.491116
vt 0.687439 0.490614
vt 0.698936 0.401327
vt 0.682786 0.490614
vt 0.667911 0.401327
vt 0.751177 0.372233
vt 0.747537 0.375173
vt 0.742998 0.374239
vt 0.740978 0.370134
vt 0.742998 0.365950
vt 0.747537 0.364837
vt 0.751177 0.367633
vt 0.613725 0.636451
vt 0.586458 0.721097
vt 0.582569 0.721250
vt 0.587795 0.637470
vt 0.578106 0.721097
vt 0.558047 0.636451
vt 0.012350 0.705882
vt 0.019176 0.675454
vt 0.046588 0.661912
vt 0.073944 0.675454
vt 0.080645 0.705882
vt 0.061645 0.730284
vt 0.031251 0.730284
vt 0.864453 0.973515
vt 0.874146 0.967877
vt 0.873984 0.976916
vt 0.864453 0.962172
vt 0.743797 0.958474
vt 0.746939 0.947692
vt 0.754442 0.955269
vt 0.752484 0.965138
vt 0.557270 0.968018
vt 0.557525 0.959572
vt 0.567098 0.964988
vt 0.873984 0.958562
vt 0.718956 0.960372
vt 0.709095 0.964253
vt 0.709399 0.954518
vt 0.757568 0.947692
vt 0.760995 0.958474
vt 0.567098 0.953702
vt 0.684395 0.952636
vt 0.677635 0.955626
vt 0.675711 0.945967
vt 0.718956 0.949071
vt 0.965008 0.985681
vt 0.955371 0.981951
vt 0.965027 0.976199
vt 0.557270 0.949757
vt 0.681073 0.963426
vt 0.670336 0.963426
vt 0.667022 0.952636
vt 0.709095 0.945967
vt 0.955371 0.970618
vt 0.965008 0.967344
vt 0.032375 0.827583
vt 0.030869 0.754984
vt 0.031973 0.755095
vt 0.051691 0.829523
vt 0.864453 0.865975
vt 0.875152 0.794405
vt 0.876401 0.794405
vt 0.886301 0.865975
vt 0.742930 0.094570
vt 0.742930 0.012739
vt 0.743772 0.012710
vt 0.757659 0.094058
vt 0.744966 0.012350
vt 0.778565 0.087762
vt 0.743797 0.834401
vt 0.776406 0.776782
vt 0.777189 0.777532
vt 0.757507 0.847531
vt 0.778900 0.776123
vt 0.779190 0.777003
vt 0.778428 0.777631
vt 0.776668 0.775945
vt 0.777778 0.775651
vt 0.779190 0.849257
vt 0.012350 0.829523
vt 0.029725 0.755095
vt 0.900639 0.059318
vt 0.884849 0.050016
vt 0.878495 0.029113
vt 0.886361 0.012350
vt 0.902525 0.012350
vt 0.914814 0.029113
vt 0.913975 0.050016
vt 0.921013 0.949808
vt 0.920245 0.909914
vt 0.921073 0.909997
vt 0.930671 0.950778
vt 0.945347 0.247463
vt 0.950568 0.209330
vt 0.951504 0.209330
vt 0.956271 0.247463
vt 0.922972 0.754336
vt 0.922972 0.710150
vt 0.923603 0.710147
vt 0.930341 0.754299
vt 0.924507 0.709904
vt 0.940882 0.751463
vt 0.939514 0.044861
vt 0.955268 0.013219
vt 0.955867 0.013769
vt 0.946502 0.051284
vt 0.957128 0.012686
vt 0.957359 0.013342
vt 0.956797 0.013824
vt 0.955451 0.012587
vt 0.956279 0.012350
vt 0.957359 0.051925
vt 0.911000 0.950778
vt 0.919387 0.909997
vt 0.170803 0.929524
vt 0.174617 0.937856
vt 0.171243 0.948245
vt 0.163222 0.952869
vt 0.156593 0.948245
vt 0.156349 0.937856
vt 0.162673 0.929524
vt 0.317968 0.842339
vt 0.324183 0.769838
vt 0.325377 0.769950
vt 0.338865 0.844302
vt 0.803890 0.866619
vt 0.803890 0.795233
vt 0.805124 0.795149
vt 0.825496 0.865151
vt 0.805939 0.794404
vt 0.839753 0.852119
vt 0.380349 0.736697
vt 0.415260 0.661838
vt 0.416435 0.662210
vt 0.400922 0.743213
vt 0.417375 0.662280
vt 0.417375 0.744436
vt 0.243507 0.796934
vt 0.243742 0.797786
vt 0.242931 0.798469
vt 0.241684 0.798469
vt 0.240940 0.797786
vt 0.241259 0.796934
vt 0.242402 0.796554
vt 0.233332 0.869940
vt 0.255156 0.869940
vt 0.299982 0.844302
vt 0.323155 0.769950
vt 0.034983 0.902694
vt 0.019320 0.895602
vt 0.012350 0.875147
vt 0.019320 0.856732
vt 0.034983 0.854223
vt 0.047543 0.869510
vt 0.047543 0.891081
vt 0.945165 0.133664
vt 0.948334 0.093820
vt 0.949230 0.093905
vt 0.955613 0.134646
vt 0.942610 0.598122
vt 0.942610 0.560140
vt 0.943537 0.560093
vt 0.953425 0.597581
vt 0.944158 0.559546
vt 0.960668 0.591193
vt 0.902031 0.250630
vt 0.919051 0.209330
vt 0.919940 0.209584
vt 0.912406 0.253596
vt 0.920647 0.209617
vt 0.920647 0.253975
vt 0.950395 0.794689
vt 0.950572 0.795328
vt 0.949964 0.795841
vt 0.949028 0.795841
vt 0.948470 0.795328
vt 0.948710 0.794689
vt 0.949567 0.794404
vt 0.945141 0.833917
vt 0.956053 0.833917
vt 0.936172 0.134646
vt 0.947563 0.093904
vt 0.023666 0.951629
vt 0.015835 0.948084
vt 0.012350 0.937856
vt 0.015835 0.928648
vt 0.023666 0.927394
vt 0.029947 0.935037
vt 0.029947 0.945823
vt 0.803890 0.974086
vt 0.813583 0.968447
vt 0.813421 0.977487
vt 0.803890 0.962742
vt 0.484996 0.957692
vt 0.488139 0.946909
vt 0.495641 0.954486
vt 0.493683 0.964356
vt 0.966966 0.660351
vt 0.967221 0.651905
vt 0.976795 0.657320
vt 0.813421 0.959133
vt 0.088821 0.962790
vt 0.078960 0.966671
vt 0.079264 0.956937
vt 0.498768 0.946909
vt 0.502195 0.957692
vt 0.976795 0.646034
vt 0.962263 0.872396
vt 0.955774 0.868855
vt 0.962263 0.861447
vt 0.088821 0.951489
vt 0.617036 0.984049
vt 0.607399 0.980319
vt 0.617055 0.974567
vt 0.966966 0.642090
vt 0.951681 0.876333
vt 0.945141 0.867817
vt 0.951681 0.858617
vt 0.078960 0.948386
vt 0.607399 0.968985
vt 0.617036 0.965711
vt 0.233332 0.977407
vt 0.243026 0.971768
vt 0.242863 0.980808
vt 0.233332 0.966064
vt 0.449694 0.964400
vt 0.443141 0.955278
vt 0.453732 0.954042
vt 0.460296 0.961668
vt 0.380349 0.968618
vt 0.380604 0.960171
vt 0.390177 0.965587
vt 0.242863 0.962454
vt 0.123382 0.962790
vt 0.113521 0.966671
vt 0.113825 0.956937
vt 0.449694 0.946909
vt 0.460296 0.950858
vt 0.390177 0.954301
vt 0.953294 0.173125
vt 0.946805 0.169584
vt 0.953294 0.162175
vt 0.123382 0.951489
vt 0.987631 0.177683
vt 0.977994 0.173953
vt 0.987650 0.168201
vt 0.380349 0.950357
vt 0.942712 0.177062
vt 0.936172 0.168546
vt 0.942712 0.159346
vt 0.113521 0.948386
vt 0.977994 0.162620
vt 0.987631 0.159346
vt 0.443852 0.228097
vt 0.443852 0.138125
vt 0.495739 0.141457
vt 0.492280 0.231206
vt 0.534419 0.137760
vt 0.528381 0.227756
vt 0.668870 0.103156
vt 0.665639 0.012350
vt 0.718230 0.012350
vt 0.717955 0.103156
vt 0.667022 0.617390
vt 0.667022 0.527106
vt 0.719448 0.526503
vt 0.715953 0.616827
vt 0.156349 0.367072
vt 0.156349 0.313120
vt 0.202760 0.286151
vt 0.249171 0.313136
vt 0.249171 0.367089
vt 0.202760 0.394057
vt 0.448875 0.616913
vt 0.443141 0.526503
vt 0.481231 0.529068
vt 0.484426 0.619308
vt 0.533347 0.526503
vt 0.533068 0.616913
vt 0.530338 0.037560
vt 0.530338 0.087915
vt 0.487095 0.113060
vt 0.443852 0.087850
vt 0.443852 0.037495
vt 0.487095 0.012350
vt 0.443141 0.368594
vt 0.465003 0.275842
vt 0.495579 0.280661
vt 0.494100 0.376627
vt 0.519920 0.275842
vt 0.534668 0.368594
vt 0.156349 0.747511
vt 0.156349 0.662993
vt 0.187719 0.663211
vt 0.208632 0.747875
vt 0.740408 0.221435
vt 0.761201 0.138799
vt 0.792390 0.137760
vt 0.792390 0.219702
vt 0.740978 0.325130
vt 0.740978 0.292982
vt 0.767501 0.275842
vt 0.794024 0.290849
vt 0.794024 0.322996
vt 0.767501 0.340137
vt 0.443141 0.494594
vt 0.458079 0.401327
vt 0.481916 0.405652
vt 0.482870 0.501803
vt 0.512728 0.401327
vt 0.534224 0.494594
vt 0.058979 0.413179
vt 0.105609 0.439477
vt 0.105609 0.489976
vt 0.058979 0.514177
vt 0.012350 0.487879
vt 0.012350 0.437380
vt 0.837734 0.609102
vt 0.847893 0.594267
vt 0.856602 0.609692
vt 0.856047 0.576515
vt 0.836620 0.575113
vt 0.803265 0.052966
vt 0.805398 0.033477
vt 0.820098 0.048323
vt 0.816263 0.067660
vt 0.820946 0.609692
vt 0.825856 0.594267
vt 0.849127 0.559546
vt 0.761931 0.609105
vt 0.744370 0.600882
vt 0.760849 0.591262
vt 0.838747 0.042281
vt 0.826254 0.027196
vt 0.847080 0.027196
vt 0.173863 0.818065
vt 0.164907 0.830178
vt 0.156349 0.810970
vt 0.205934 0.800296
vt 0.191855 0.810151
vt 0.191855 0.788148
vt 0.868129 0.569079
vt 0.779836 0.601464
vt 0.853795 0.048323
vt 0.173004 0.798592
vt 0.205702 0.783626
vt 0.761554 0.571750
vt 0.752591 0.559546
vt 0.774509 0.559906
vt 0.793856 0.589107
vt 0.779614 0.579507
vt 0.793496 0.570108
vt 0.193815 0.887655
vt 0.174369 0.888881
vt 0.185732 0.869804
vt 0.173862 0.780631
vt 0.156349 0.788967
vt 0.164907 0.772575
vt 0.114336 0.820248
vt 0.102075 0.835539
vt 0.095583 0.814397
vt 0.081282 0.829681
vt 0.078960 0.810281
vt 0.090005 0.846250
vt 0.194579 0.854878
vt 0.175681 0.855199
vt 0.205238 0.873956
vt 0.163710 0.869804
vt 0.156349 0.887655
vt 0.158947 0.854878
vt 0.091814 0.795473
vt 0.112608 0.801331
vt 0.123113 0.835539
vt 0.108812 0.850823
vt 0.205930 0.895599
vt 0.186851 0.904824
vt 0.164829 0.904824
vt 0.744148 0.578925
vt 0.125854 0.795473
vt 0.129622 0.814398
vt 0.849960 0.067660
vt 0.837119 0.061380
vt 0.793856 0.605636
vt 0.832380 0.012350
vt 0.775091 0.617390
vt 0.867366 0.590538
vt 0.827090 0.559546
vt 0.818556 0.576515
vt 0.205702 0.819228
vt 0.186851 0.829672
vt 0.813738 0.017023
vt 0.753172 0.617030
s 1
usemtl mob_rubah_mat.003
f 1/1/1 2/2/2 4/3/3 3/4/4
f 3/5/4 4/6/3 6/7/5 5/8/6
f 5/9/6 6/10/5 8/11/7 7/12/8
f 7/13/8 8/14/7 10/15/9 9/16/10
f 9/16/10 10/15/9 12/17/11 11/18/12
f 11/19/12 12/20/11 14/21/13 13/22/14
f 4/23/3 2/24/2 16/25/15 14/26/13 12/27/11 10/28/9 8/29/7 6/30/5
f 13/31/14 14/26/13 16/25/15 15/32/16
f 15/33/16 16/34/15 2/2/2 1/1/1
f 1/35/1 3/36/4 5/37/6 7/38/8 9/39/10 11/19/12 13/22/14 15/40/16
f 17/41/17 18/42/18 20/43/19 19/44/20
f 19/45/20 20/46/19 22/47/21 21/48/22
f 21/49/22 22/50/21 24/51/23 23/52/24
f 23/53/24 24/54/23 26/55/25 25/56/26
f 25/56/26 26/55/25 28/57/27 27/58/28
f 27/59/28 28/60/27 30/61/29 29/62/30
f 20/63/19 18/64/18 32/65/31 30/66/29 28/67/27 26/68/25 24/69/23 22/70/21
f 29/71/30 30/66/29 32/65/31 31/72/32
f 31/73/32 32/74/31 18/42/18 17/41/17
f 17/75/17 19/76/20 21/77/22 23/78/24 25/79/26 27/59/28 29/62/30 31/80/32
f 33/81/1 34/82/2 36/83/3 35/84/4
f 35/85/4 36/86/3 38/87/5 37/88/6
f 37/89/6 38/90/5 40/91/7 39/92/8
f 39/93/8 40/94/7 42/95/33 41/96/10
f 41/96/10 42/95/33 44/97/11 43/98/12
f 43/99/12 44/100/11 46/101/13 45/102/14
f 36/103/3 34/104/2 48/105/15 46/106/13 44/107/11 42/108/33 40/109/7 38/110/5
f 45/111/14 46/106/13 48/105/15 47/112/16
f 47/113/16 48/114/15 34/82/2 33/81/1
f 33/115/1 35/116/4 37/117/6 39/118/8 41/119/10 43/99/12 45/102/14 47/120/16
f 49/121/17 50/122/18 52/123/19 51/124/20
f 51/125/20 52/126/19 54/127/21 53/128/22
f 53/129/22 54/130/21 56/131/23 55/132/24
f 55/133/24 56/134/23 58/135/25 57/136/26
f 57/136/26 58/135/25 60/137/27 59/138/28
f 59/139/28 60/140/27 62/141/29 61/142/30
f 52/143/19 50/144/18 64/145/31 62/146/29 60/147/27 58/148/25 56/149/23 54/150/21
f 61/151/30 62/146/29 64/145/31 63/152/32
f 63/153/32 64/154/31 50/122/18 49/121/17
f 49/155/17 51/156/20 53/157/22 55/158/24 57/159/26 59/139/28 61/142/30 63/160/32
f 65/161/34 66/162/2 68/163/3 67/164/4
f 67/165/4 68/166/3 70/167/5 69/168/6
f 69/169/6 70/170/5 72/171/7 71/172/8
f 71/173/8 72/174/7 74/175/9 73/176/10
f 73/176/10 74/175/9 76/177/11 75/178/12
f 75/179/12 76/180/11 78/181/13 77/182/14
f 68/183/3 66/184/2 80/185/15 78/186/13 76/187/11 74/188/9 72/189/7 70/190/5
f 77/191/14 78/186/13 80/185/15 79/192/16
f 79/193/16 80/194/15 66/162/2 65/161/34
f 65/195/34 67/196/4 69/197/6 71/198/8 73/199/10 75/179/12 77/182/14 79/200/16
f 81/201/17 82/202/18 84/203/19 83/204/20
f 83/205/20 84/206/19 86/207/21 85/208/22
f 85/209/22 86/210/21 88/211/23 87/212/24
f 87/213/24 88/214/23 90/215/25 89/216/26
f 89/216/26 90/215/25 92/217/27 91/218/28
f 91/219/28 92/220/27 94/221/29 93/222/30
f 84/223/19 82/224/18 96/225/31 94/226/29 92/227/27 90/228/25 88/229/23 86/230/21
f 93/231/30 94/226/29 96/225/31 95/232/32
f 95/233/32 96/234/31 82/202/18 81/201/17
f 81/235/17 83/236/20 85/237/22 87/238/24 89/239/26 91/219/28 93/222/30 95/240/32
f 97/241/1 98/242/2 100/243/3 99/244/4
f 99/245/4 100/246/3 102/247/5 101/248/6
f 101/249/6 102/250/5 104/251/7 103/252/8
f 103/253/8 104/254/7 106/255/9 105/256/10
f 105/256/10 106/255/9 108/257/11 107/258/12
f 107/259/12 108/260/11 110/261/13 109/262/14
f 100/263/3 98/264/2 112/265/15 110/266/13 108/267/11 106/268/9 104/269/7 102/270/5
f 109/271/14 110/266/13 112/265/15 111/272/16
f 111/273/16 112/274/15 98/242/2 97/241/1
f 97/275/1 99/276/4 101/277/6 103/278/8 105/279/10 107/259/12 109/262/14 111/280/16
f 113/281/17 114/282/18 116/283/19 115/284/20
f 115/285/20 116/286/19 118/287/21 117/288/22
f 117/289/22 118/290/21 120/291/23 119/292/24
f 119/293/24 120/294/23 122/295/25 121/296/26
f 121/296/26 122/295/25 124/297/27 123/298/28
f 123/299/28 124/300/27 126/301/29 125/302/30
f 116/303/19 114/304/18 128/305/31 126/306/29 124/307/27 122/308/25 120/309/23 118/310/21
f 125/311/30 126/306/29 128/305/31 127/312/32
f 127/313/32 128/314/31 114/282/18 113/281/17
f 113/315/17 115/316/20 117/317/22 119/318/24 121/319/26 123/299/28 125/302/30 127/320/32
f 129/321/35 144/322/36 143/323/37
f 130/324/38 146/325/39 152/326/40
f 129/327/35 143/328/37 158/329/41
f 129/327/35 158/329/41 164/330/42
f 129/321/35 164/331/42 153/332/43
f 130/324/38 152/326/40 173/333/44
f 131/334/45 149/335/46 179/336/47
f 132/337/48 161/338/49 185/339/50
f 133/340/51 167/341/52 191/342/53
f 134/343/54 170/344/55 197/345/56
f 130/324/38 173/333/44 180/346/57
f 131/334/45 179/336/47 186/347/58
f 132/337/48 185/339/50 192/348/59
f 133/349/51 191/350/53 198/351/60
f 134/343/54 197/345/56 174/352/61
f 135/353/62 203/354/63 218/355/64
f 136/356/65 206/357/66 224/358/67
f 137/359/68 209/360/69 227/361/70
f 138/362/71 212/363/72 230/364/73
f 139/365/74 215/366/75 219/367/76
f 221/368/77 228/369/78 140/370/79
f 220/371/80 231/372/81 221/368/77
f 219/367/76 232/373/82 220/371/80
f 221/368/77 231/372/81 228/369/78
f 231/372/81 229/374/83 228/369/78
f 220/371/80 232/373/82 231/372/81
f 232/373/82 233/375/84 231/372/81
f 231/372/81 233/375/84 229/374/83
f 233/375/84 230/364/73 229/374/83
f 219/367/76 215/366/75 232/373/82
f 215/366/75 214/376/85 232/373/82
f 232/373/82 214/376/85 233/375/84
f 214/376/85 213/377/86 233/375/84
f 233/375/84 213/377/86 230/364/73
f 213/377/86 138/362/71 230/364/73
f 228/378/78 225/379/87 140/380/79
f 229/374/83 234/381/88 228/369/78
f 230/364/73 235/382/89 229/374/83
f 228/378/78 234/383/88 225/379/87
f 234/383/88 226/384/90 225/379/87
f 229/385/83 235/386/89 234/383/88
f 235/386/89 236/387/91 234/383/88
f 234/383/88 236/387/91 226/384/90
f 236/387/91 227/361/70 226/384/90
f 230/364/73 212/363/72 235/382/89
f 212/388/72 211/389/92 235/386/89
f 235/386/89 211/389/92 236/387/91
f 211/389/92 210/390/93 236/387/91
f 236/387/91 210/390/93 227/361/70
f 210/390/93 137/359/68 227/361/70
f 225/379/87 222/391/94 140/380/79
f 226/384/90 237/392/95 225/379/87
f 227/361/70 238/393/96 226/384/90
f 225/379/87 237/392/95 222/391/94
f 237/392/95 223/394/97 222/391/94
f 226/384/90 238/393/96 237/392/95
f 238/393/96 239/395/98 237/392/95
f 237/392/95 239/395/98 223/394/97
f 239/395/98 224/358/67 223/394/97
f 227/361/70 209/360/69 238/393/96
f 209/360/69 208/396/99 238/393/96
f 238/393/96 208/396/99 239/395/98
f 208/396/99 207/397/100 239/395/98
f 239/395/98 207/397/100 224/358/67
f 207/397/100 136/356/65 224/358/67
f 222/391/94 216/398/101 140/380/79
f 223/394/97 240/399/102 222/391/94
f 224/358/67 241/400/103 223/394/97
f 222/391/94 240/399/102 216/398/101
f 240/401/102 217/402/104 216/403/101
f 223/394/97 241/400/103 240/399/102
f 241/400/103 242/404/105 240/399/102
f 240/399/102 242/404/105 217/405/104
f 242/406/105 218/355/64 217/402/104
f 224/358/67 206/357/66 241/400/103
f 206/357/66 205/407/106 241/400/103
f 241/400/103 205/407/106 242/404/105
f 205/408/106 204/409/107 242/410/105
f 242/410/105 204/409/107 218/411/64
f 204/409/107 135/412/62 218/411/64
f 216/403/101 221/368/77 140/370/79
f 217/402/104 243/413/108 216/403/101
f 218/355/64 244/414/109 217/402/104
f 216/403/101 243/413/108 221/368/77
f 243/413/108 220/371/80 221/368/77
f 217/402/104 244/414/109 243/413/108
f 244/414/109 245/415/110 243/413/108
f 243/413/108 245/415/110 220/371/80
f 245/415/110 219/367/76 220/371/80
f 218/355/64 203/354/63 244/414/109
f 203/354/63 202/416/111 244/414/109
f 244/414/109 202/416/111 245/415/110
f 202/416/111 201/417/112 245/415/110
f 245/415/110 201/417/112 219/367/76
f 201/417/112 139/365/74 219/367/76
f 176/418/113 215/366/75 139/365/74
f 175/419/114 246/420/115 176/418/113
f 174/352/61 247/421/116 175/422/114
f 176/418/113 246/420/115 215/366/75
f 246/420/115 214/376/85 215/366/75
f 175/419/114 247/423/116 246/420/115
f 247/423/116 248/424/117 246/420/115
f 246/420/115 248/424/117 214/376/85
f 248/424/117 213/377/86 214/376/85
f 174/352/61 197/345/56 247/421/116
f 197/425/56 196/426/118 247/427/116
f 247/423/116 196/428/118 248/424/117
f 196/428/118 195/429/119 248/424/117
f 248/424/117 195/429/119 213/377/86
f 195/429/119 138/362/71 213/377/86
f 200/430/120 212/431/72 138/432/71
f 199/433/121 249/434/122 200/430/120
f 198/351/60 250/435/123 199/433/121
f 200/430/120 249/434/122 212/431/72
f 249/436/122 211/389/92 212/388/72
f 199/433/121 250/435/123 249/434/122
f 250/435/123 251/437/124 249/434/122
f 249/436/122 251/438/124 211/389/92
f 251/438/124 210/390/93 211/389/92
f 198/351/60 191/350/53 250/435/123
f 191/350/53 190/439/125 250/435/123
f 250/435/123 190/439/125 251/437/124
f 190/440/125 189/441/126 251/438/124
f 251/438/124 189/441/126 210/390/93
f 189/441/126 137/359/68 210/390/93
f 194/442/127 209/360/69 137/359/68
f 193/443/128 252/444/129 194/442/127
f 192/348/59 253/445/130 193/446/128
f 194/442/127 252/444/129 209/360/69
f 252/444/129 208/396/99 209/360/69
f 193/443/128 253/447/130 252/444/129
f 253/447/130 254/448/131 252/444/129
f 252/444/129 254/448/131 208/396/99
f 254/448/131 207/397/100 208/396/99
f 192/348/59 185/339/50 253/445/130
f 185/339/50 184/449/132 253/445/130
f 253/447/130 184/450/132 254/448/131
f 184/450/132 183/451/133 254/448/131
f 254/448/131 183/451/133 207/397/100
f 183/451/133 136/356/65 207/397/100
f 188/452/134 206/357/66 136/356/65
f 187/453/135 255/454/136 188/455/134
f 186/347/58 256/456/137 187/453/135
f 188/452/134 255/457/136 206/357/66
f 255/454/136 205/408/106 206/458/66
f 187/453/135 256/456/137 255/454/136
f 256/456/137 257/459/138 255/454/136
f 255/454/136 257/459/138 205/408/106
f 257/459/138 204/409/107 205/408/106
f 186/347/58 179/336/47 256/456/137
f 179/336/47 178/460/139 256/456/137
f 256/456/137 178/460/139 257/459/138
f 178/460/139 177/461/140 257/459/138
f 257/459/138 177/461/140 204/409/107
f 177/461/140 135/412/62 204/409/107
f 182/462/141 203/463/63 135/412/62
f 181/464/142 258/465/143 182/466/141
f 180/346/57 259/467/144 181/468/142
f 182/466/141 258/465/143 203/354/63
f 258/465/143 202/416/111 203/354/63
f 181/464/142 259/469/144 258/465/143
f 259/469/144 260/470/145 258/465/143
f 258/465/143 260/470/145 202/416/111
f 260/470/145 201/417/112 202/416/111
f 180/346/57 173/333/44 259/467/144
f 173/333/44 172/471/146 259/467/144
f 259/469/144 172/472/146 260/470/145
f 172/472/146 171/473/147 260/470/145
f 260/470/145 171/473/147 201/417/112
f 171/473/147 139/365/74 201/417/112
f 195/474/119 200/430/120 138/432/71
f 196/426/118 261/475/148 195/474/119
f 197/425/56 262/476/149 196/426/118
f 195/474/119 261/475/148 200/430/120
f 261/475/148 199/433/121 200/430/120
f 196/426/118 262/476/149 261/475/148
f 262/476/149 263/477/150 261/475/148
f 261/475/148 263/477/150 199/433/121
f 263/477/150 198/351/60 199/433/121
f 197/345/56 170/344/55 262/478/149
f 170/479/55 169/480/151 262/476/149
f 262/476/149 169/480/151 263/477/150
f 169/480/151 168/481/152 263/477/150
f 263/477/150 168/481/152 198/351/60
f 168/481/152 133/349/51 198/351/60
f 189/441/126 194/442/127 137/359/68
f 190/440/125 264/482/153 189/441/126
f 191/342/53 265/483/154 190/484/125
f 189/441/126 264/482/153 194/442/127
f 264/482/153 193/443/128 194/442/127
f 190/484/125 265/483/154 264/485/153
f 265/483/154 266/486/155 264/485/153
f 264/485/153 266/486/155 193/446/128
f 266/486/155 192/348/59 193/446/128
f 191/342/53 167/341/52 265/483/154
f 167/341/52 166/487/156 265/483/154
f 265/483/154 166/487/156 266/486/155
f 166/487/156 165/488/157 266/486/155
f 266/486/155 165/488/157 192/348/59
f 165/488/157 132/337/48 192/348/59
f 183/451/133 188/452/134 136/356/65
f 184/450/132 267/489/158 183/451/133
f 185/339/50 268/490/159 184/449/132
f 183/451/133 267/489/158 188/452/134
f 267/489/158 187/491/135 188/452/134
f 184/449/132 268/490/159 267/492/158
f 268/490/159 269/493/160 267/492/158
f 267/492/158 269/493/160 187/494/135
f 269/493/160 186/495/58 187/494/135
f 185/339/50 161/338/49 268/490/159
f 161/338/49 160/496/161 268/490/159
f 268/490/159 160/496/161 269/493/160
f 160/496/161 159/497/162 269/493/160
f 269/493/160 159/497/162 186/495/58
f 159/497/162 131/498/45 186/495/58
f 177/461/140 182/462/141 135/412/62
f 178/460/139 270/499/163 177/461/140
f 179/336/47 271/500/164 178/460/139
f 177/461/140 270/499/163 182/462/141
f 270/499/163 181/501/142 182/462/141
f 178/460/139 271/500/164 270/499/163
f 271/500/164 272/502/165 270/499/163
f 270/499/163 272/502/165 181/501/142
f 272/503/165 180/346/57 181/468/142
f 179/336/47 149/335/46 271/500/164
f 149/504/46 148/505/166 271/506/164
f 271/506/164 148/505/166 272/503/165
f 148/505/166 147/507/167 272/503/165
f 272/503/165 147/507/167 180/346/57
f 147/507/167 130/324/38 180/346/57
f 171/473/147 176/418/113 139/365/74
f 172/472/146 273/508/168 171/473/147
f 173/333/44 274/509/169 172/471/146
f 171/473/147 273/508/168 176/418/113
f 273/508/168 175/419/114 176/418/113
f 172/471/146 274/509/169 273/510/168
f 274/509/169 275/511/170 273/510/168
f 273/510/168 275/511/170 175/422/114
f 275/511/170 174/352/61 175/422/114
f 173/333/44 152/326/40 274/509/169
f 152/326/40 151/512/171 274/509/169
f 274/509/169 151/512/171 275/511/170
f 151/512/171 150/513/172 275/511/170
f 275/511/170 150/513/172 174/352/61
f 150/513/172 134/343/54 174/352/61
f 155/514/173 170/344/55 134/343/54
f 154/515/174 276/516/175 155/514/173
f 153/332/43 277/517/176 154/515/174
f 155/514/173 276/516/175 170/344/55
f 276/516/175 169/518/151 170/344/55
f 154/515/174 277/517/176 276/516/175
f 277/517/176 278/519/177 276/516/175
f 276/516/175 278/519/177 169/518/151
f 278/520/177 168/481/152 169/480/151
f 153/332/43 164/331/42 277/517/176
f 164/330/42 163/521/178 277/522/176
f 277/522/176 163/521/178 278/523/177
f 163/521/178 162/524/179 278/523/177
f 278/520/177 162/525/179 168/481/152
f 162/525/179 133/349/51 168/481/152
f 162/524/179 167/341/52 133/340/51
f 163/521/178 279/526/180 162/524/179
f 164/330/42 280/527/181 163/521/178
f 162/524/179 279/526/180 167/341/52
f 279/526/180 166/487/156 167/341/52
f 163/521/178 280/527/181 279/526/180
f 280/527/181 281/528/182 279/526/180
f 279/526/180 281/528/182 166/487/156
f 281/528/182 165/488/157 166/487/156
f 164/330/42 158/329/41 280/527/181
f 158/329/41 157/529/183 280/527/181
f 280/527/181 157/529/183 281/528/182
f 157/529/183 156/530/184 281/528/182
f 281/528/182 156/530/184 165/488/157
f 156/530/184 132/337/48 165/488/157
f 156/530/184 161/338/49 132/337/48
f 157/529/183 282/531/185 156/530/184
f 158/329/41 283/532/186 157/529/183
f 156/530/184 282/531/185 161/338/49
f 282/531/185 160/496/161 161/338/49
f 157/529/183 283/532/186 282/531/185
f 283/532/186 284/533/187 282/531/185
f 282/531/185 284/533/187 160/496/161
f 284/533/187 159/497/162 160/496/161
f 158/329/41 143/328/37 283/532/186
f 143/328/37 142/534/188 283/532/186
f 283/532/186 142/534/188 284/533/187
f 142/534/188 141/535/189 284/533/187
f 284/533/187 141/535/189 159/497/162
f 141/535/189 131/498/45 159/497/162
f 150/513/172 155/514/173 134/343/54
f 151/512/171 285/536/190 150/513/172
f 152/326/40 286/537/191 151/512/171
f 150/513/172 285/536/190 155/514/173
f 285/536/190 154/515/174 155/514/173
f 151/512/171 286/537/191 285/536/190
f 286/537/191 287/538/192 285/536/190
f 285/536/190 287/538/192 154/515/174
f 287/538/192 153/332/43 154/515/174
f 152/326/40 146/325/39 286/537/191
f 146/325/39 145/539/193 286/537/191
f 286/537/191 145/539/193 287/538/192
f 145/539/193 144/322/36 287/538/192
f 287/538/192 144/322/36 153/332/43
f 144/322/36 129/321/35 153/332/43
f 141/535/189 149/540/46 131/498/45
f 142/534/188 288/541/194 141/535/189
f 143/328/37 289/542/195 142/534/188
f 141/535/189 288/541/194 149/540/46
f 288/543/194 148/505/166 149/504/46
f 142/544/188 289/545/195 288/543/194
f 289/545/195 290/546/196 288/543/194
f 288/543/194 290/546/196 148/505/166
f 290/546/196 147/507/167 148/505/166
f 143/323/37 144/322/36 289/545/195
f 144/322/36 145/539/193 289/545/195
f 289/545/195 145/539/193 290/546/196
f 145/539/193 146/325/39 290/546/196
f 290/546/196 146/325/39 147/507/167
f 146/325/39 130/324/38 147/507/167
f 291/547/197 304/548/198 303/549/199
f 292/550/200 304/548/198 306/551/201
f 291/552/197 303/553/199 308/554/202
f 291/552/197 308/554/202 310/555/203
f 291/547/197 310/556/203 307/557/204
f 292/550/200 306/551/201 313/558/205
f 293/559/206 305/560/207 315/561/208
f 294/562/209 309/563/210 317/564/211
f 295/565/212 311/566/213 319/567/214
f 296/568/215 312/569/216 321/570/217
f 292/550/200 313/558/205 316/571/218
f 293/559/206 315/561/208 318/572/219
f 294/562/209 317/564/211 320/573/220
f 295/565/212 319/567/214 322/574/221
f 296/568/215 321/570/217 314/575/222
f 297/576/223 323/577/224 328/578/225
f 298/579/226 324/580/227 330/581/228
f 299/582/229 325/583/230 331/584/231
f 300/585/232 326/586/233 332/587/234
f 301/588/235 327/589/236 329/590/237
f 329/590/237 332/587/234 302/591/238
f 329/590/237 327/589/236 332/587/234
f 327/589/236 300/585/232 332/587/234
f 332/592/234 331/584/231 302/593/238
f 332/592/234 326/594/233 331/584/231
f 326/594/233 299/582/229 331/584/231
f 331/584/231 330/581/228 302/593/238
f 331/584/231 325/583/230 330/581/228
f 325/583/230 298/579/226 330/581/228
f 330/581/228 328/595/225 302/593/238
f 330/596/228 324/597/227 328/598/225
f 324/597/227 297/599/223 328/598/225
f 328/578/225 329/590/237 302/591/238
f 328/578/225 323/577/224 329/590/237
f 323/577/224 301/588/235 329/590/237
f 314/600/222 327/589/236 301/588/235
f 314/600/222 321/601/217 327/589/236
f 321/601/217 300/585/232 327/589/236
f 322/574/221 326/602/233 300/603/232
f 322/574/221 319/567/214 326/602/233
f 319/604/214 299/582/229 326/594/233
f 320/605/220 325/583/230 299/582/229
f 320/605/220 317/606/211 325/583/230
f 317/606/211 298/579/226 325/583/230
f 318/572/219 324/597/227 298/607/226
f 318/572/219 315/561/208 324/597/227
f 315/561/208 297/599/223 324/597/227
f 316/608/218 323/609/224 297/599/223
f 316/610/218 313/611/205 323/577/224
f 313/611/205 301/588/235 323/577/224
f 321/570/217 322/574/221 300/603/232
f 321/570/217 312/569/216 322/574/221
f 312/569/216 295/565/212 322/574/221
f 319/604/214 320/605/220 299/582/229
f 319/612/214 311/613/213 320/573/220
f 311/613/213 294/562/209 320/573/220
f 317/614/211 318/572/219 298/607/226
f 317/564/211 309/563/210 318/615/219
f 309/563/210 293/616/206 318/615/219
f 315/561/208 316/608/218 297/599/223
f 315/561/208 305/560/207 316/608/218
f 305/617/207 292/550/200 316/571/218
f 313/611/205 314/600/222 301/588/235
f 313/558/205 306/551/201 314/618/222
f 306/551/201 296/619/215 314/618/222
f 307/557/204 312/620/216 296/619/215
f 307/557/204 310/556/203 312/620/216
f 310/621/203 295/565/212 312/569/216
f 310/555/203 311/613/213 295/622/212
f 310/555/203 308/554/202 311/613/213
f 308/554/202 294/562/209 311/613/213
f 308/554/202 309/563/210 294/562/209
f 308/554/202 303/553/199 309/563/210
f 303/553/199 293/616/206 309/563/210
f 306/551/201 307/557/204 296/619/215
f 306/551/201 304/548/198 307/557/204
f 304/548/198 291/547/197 307/557/204
f 303/553/199 305/623/207 293/616/206
f 303/549/199 304/548/198 305/617/207
f 304/548/198 292/550/200 305/617/207
f 333/624/239 346/625/240 345/626/241
f 334/627/242 346/625/240 348/628/243
f 333/629/239 345/630/241 350/631/244
f 333/629/239 350/631/244 352/632/245
f 333/624/239 352/633/245 349/634/246
f 334/627/242 348/628/243 355/635/247
f 335/636/248 347/637/249 357/638/139
f 336/639/250 351/640/251 359/641/252
f 337/642/253 353/643/254 361/644/255
f 338/645/256 354/646/257 363/647/258
f 334/627/242 355/635/247 358/648/259
f 335/636/248 357/638/139 360/649/260
f 336/639/250 359/641/252 362/650/261
f 337/642/253 361/644/255 364/651/121
f 338/645/256 363/647/258 356/652/262
f 339/653/263 365/654/264 370/655/265
f 340/656/266 366/657/267 372/658/268
f 341/659/269 367/660/270 373/661/271
f 342/662/272 368/663/273 374/664/274
f 343/665/275 369/666/276 371/667/277
f 371/667/277 374/668/274 344/669/238
f 371/667/277 369/666/276 374/668/274
f 369/666/276 342/670/272 374/668/274
f 374/671/274 373/661/271 344/672/238
f 374/671/274 368/673/273 373/661/271
f 368/673/273 341/659/269 373/661/271
f 373/661/271 372/674/268 344/672/238
f 373/661/271 367/660/270 372/674/268
f 367/660/270 340/675/266 372/674/268
f 372/674/268 370/676/265 344/672/238
f 372/658/268 366/657/267 370/655/265
f 366/657/267 339/653/263 370/655/265
f 370/677/265 371/667/277 344/669/238
f 370/677/265 365/678/264 371/667/277
f 365/678/264 343/665/275 371/667/277
f 356/679/262 369/666/276 343/665/275
f 356/679/262 363/680/258 369/666/276
f 363/680/258 342/670/272 369/666/276
f 364/651/121 368/663/273 342/662/272
f 364/651/121 361/644/255 368/663/273
f 361/681/255 341/659/269 368/673/273
f 362/682/261 367/660/270 341/659/269
f 362/682/261 359/683/252 367/660/270
f 359/683/252 340/675/266 367/660/270
f 360/649/260 366/657/267 340/656/266
f 360/649/260 357/638/139 366/657/267
f 357/638/139 339/653/263 366/657/267
f 358/684/259 365/654/264 339/653/263
f 358/685/259 355/686/247 365/678/264
f 355/686/247 343/665/275 365/678/264
f 363/647/258 364/651/121 342/662/272
f 363/647/258 354/646/257 364/651/121
f 354/646/257 337/642/253 364/651/121
f 361/681/255 362/682/261 341/659/269
f 361/687/255 353/688/254 362/650/261
f 353/688/254 336/639/250 362/650/261
f 359/689/252 360/649/260 340/656/266
f 359/641/252 351/640/251 360/690/260
f 351/691/251 335/636/248 360/649/260
f 357/638/139 358/684/259 339/653/263
f 357/638/139 347/637/249 358/684/259
f 347/692/249 334/627/242 358/648/259
f 355/686/247 356/679/262 343/665/275
f 355/635/247 348/628/243 356/693/262
f 348/628/243 338/694/256 356/693/262
f 349/695/246 354/646/257 338/645/256
f 349/695/246 352/696/245 354/646/257
f 352/696/245 337/642/253 354/646/257
f 352/696/245 353/643/254 337/642/253
f 352/632/245 350/631/244 353/688/254
f 350/631/244 336/639/250 353/688/254
f 350/631/244 351/640/251 336/639/250
f 350/631/244 345/630/241 351/640/251
f 345/630/241 335/697/248 351/640/251
f 348/628/243 349/634/246 338/694/256
f 348/628/243 346/625/240 349/634/246
f 346/625/240 333/624/239 349/634/246
f 345/698/241 347/637/249 335/636/248
f 345/626/241 346/625/240 347/692/249
f 346/625/240 334/627/242 347/692/249
f 375/699/278 376/700/279 378/701/280 377/702/281
f 377/702/281 378/701/280 380/703/282 379/704/283
f 379/705/283 380/706/282 382/707/284 381/708/285
f 381/709/285 382/710/284 384/711/286 383/712/287
f 383/712/287 384/711/286 386/713/288 385/714/289
f 378/715/280 376/716/279 388/717/290 386/718/288 384/719/286 382/720/284 380/721/282
f 385/722/289 386/723/288 388/724/290 387/725/291
f 387/725/291 388/724/290 376/726/279 375/727/278
f 375/728/278 377/729/281 379/730/283 381/731/285 383/732/287 385/733/289 387/734/291
f 389/735/292 390/736/293 391/737/294
f 390/736/293 389/735/292 394/738/295
f 389/739/292 391/740/294 392/741/296
f 389/739/292 392/741/296 393/742/297
f 389/743/292 393/744/297 394/745/295
f 390/736/293 394/738/295 399/746/298
f 391/747/294 390/748/293 395/749/299
f 392/741/296 391/740/294 396/750/300
f 393/742/297 392/741/296 397/751/301
f 394/745/295 393/744/297 398/752/302
f 390/753/293 399/754/298 395/755/299
f 391/747/294 395/749/299 396/756/300
f 392/757/296 396/758/300 397/759/301
f 393/744/297 397/760/301 398/752/302
f 394/761/295 398/762/302 399/754/298
f 395/755/299 399/754/298 400/763/238
f 396/756/300 395/749/299 400/764/238
f 397/759/301 396/758/300 400/765/238
f 398/766/302 397/759/301 400/765/238
f 399/754/298 398/762/302 400/763/238
f 401/767/303 402/768/304 404/769/305 403/770/306
f 403/771/306 404/772/305 406/773/307 405/774/308
f 405/775/308 406/776/307 408/777/309 407/778/310
f 407/778/310 408/777/309 410/779/311 409/780/312
f 409/781/312 410/782/311 412/783/313 411/784/314
f 404/785/305 402/786/304 414/787/315 412/783/313 410/782/311 408/788/309 406/789/307
f 411/784/314 412/783/313 414/787/315 413/790/316
f 413/791/316 414/792/315 402/768/304 401/767/303
f 401/793/303 403/794/306 405/795/308 407/796/310 409/797/312 411/798/314 413/799/316
f 415/800/317 416/801/318 418/802/319 417/803/320
f 417/804/320 418/805/319 420/806/321 419/807/322
f 419/808/322 420/809/321 422/810/323 421/811/324
f 421/811/324 422/810/323 424/812/325 423/813/326
f 423/814/326 424/815/325 426/816/327 425/817/328
f 418/818/319 416/819/318 428/820/329 426/816/327 424/815/325 422/821/323 420/822/321
f 425/817/328 426/816/327 428/820/329 427/823/330
f 427/824/330 428/825/329 416/801/318 415/800/317
f 415/826/317 417/827/320 419/828/322 421/829/324 423/830/326 425/831/328 427/832/330
f 429/833/331 430/834/332 432/835/333 431/836/334
f 431/837/334 432/838/333 434/839/335 433/840/336
f 433/840/336 434/839/335 436/841/337 435/842/338
f 435/843/338 436/844/337 438/845/339 437/846/340
f 437/846/340 438/845/339 440/847/341 439/848/342
f 432/849/333 430/850/332 442/851/343 440/852/341 438/853/339 436/854/337 434/855/335
f 439/856/342 440/852/341 442/851/343 441/857/344
f 441/858/344 442/859/343 430/834/332 429/833/331
f 429/860/331 431/861/334 433/862/336 435/863/338 437/864/340 439/865/342 441/866/344
f 443/867/345 444/868/346 446/869/347 445/870/348
f 445/871/348 446/872/347 448/873/349 447/874/350
f 447/874/350 448/873/349 450/875/351 449/876/352
f 449/877/352 450/878/351 452/879/353 451/880/354
f 451/880/354 452/879/353 454/881/355 453/882/356
f 446/883/347 444/884/346 456/885/357 454/886/355 452/887/353 450/888/351 448/889/349
f 453/890/356 454/886/355 456/885/357 455/891/358
f 455/892/358 456/893/357 444/868/346 443/867/345
f 443/894/345 445/895/348 447/896/350 449/897/352 451/898/354 453/899/356 455/900/358
f 457/901/292 458/902/293 459/903/294
f 458/902/293 457/901/292 462/904/295
f 457/905/292 459/906/294 460/907/296
f 457/905/292 460/907/296 461/908/297
f 457/909/292 461/910/297 462/911/295
f 458/902/293 462/904/295 467/912/298
f 459/913/294 458/914/293 463/915/299
f 460/907/296 459/906/294 464/916/300
f 461/908/297 460/907/296 465/917/301
f 462/911/295 461/910/297 466/918/302
f 458/919/293 467/920/298 463/921/299
f 459/913/294 463/915/299 464/922/300
f 460/923/296 464/924/300 465/925/301
f 461/910/297 465/926/301 466/918/302
f 462/927/295 466/928/302 467/920/298
f 463/921/299 467/920/298 468/929/238
f 464/922/300 463/915/299 468/930/238
f 465/925/301 464/924/300 468/931/238
f 466/932/302 465/925/301 468/931/238
f 467/920/298 466/928/302 468/929/238
f 469/933/292 470/934/293 471/935/294
f 470/934/293 469/933/292 474/936/295
f 469/937/292 471/938/294 472/939/296
f 469/937/292 472/939/296 473/940/297
f 469/941/292 473/942/297 474/943/295
f 470/934/293 474/936/295 479/944/298
f 471/945/294 470/946/293 475/947/299
f 472/939/296 471/938/294 476/948/300
f 473/940/297 472/939/296 477/949/301
f 474/943/295 473/942/297 478/950/302
f 470/951/293 479/952/298 475/953/299
f 471/945/294 475/947/299 476/954/300
f 472/955/296 476/956/300 477/957/301
f 473/942/297 477/958/301 478/950/302
f 474/959/295 478/960/302 479/952/298
f 475/953/299 479/952/298 480/961/238
f 476/954/300 475/947/299 480/962/238
f 477/957/301 476/956/300 480/963/238
f 478/964/302 477/957/301 480/963/238
f 479/952/298 478/960/302 480/961/238
f 481/965/359 482/966/360 484/967/361 483/968/362
f 483/968/362 484/967/361 486/969/363 485/970/364
f 485/971/364 486/972/363 488/973/365 487/974/366
f 487/975/366 488/976/365 490/977/367 489/978/368
f 484/979/361 482/980/360 492/981/369 490/982/367 488/983/365 486/984/363
f 489/985/368 490/986/367 492/987/369 491/988/370
f 491/988/370 492/987/369 482/989/360 481/990/359
f 481/991/359 483/992/362 485/993/364 487/994/366 489/995/368 491/996/370
f 493/997/371 494/998/372 496/999/373 495/1000/374
f 495/1000/374 496/999/373 498/1001/375 497/1002/376
f 497/1003/376 498/1004/375 500/1005/377 499/1006/378
f 499/1007/378 500/1008/377 502/1009/379 501/1010/380
f 496/1011/373 494/1012/372 504/1013/381 502/1014/379 500/1015/377 498/1016/375
f 501/1017/380 502/1018/379 504/1019/381 503/1020/382
f 503/1020/382 504/1019/381 494/1021/372 493/1022/371
f 493/1023/371 495/1024/374 497/1025/376 499/1026/378 501/1027/380 503/1028/382
f 505/1029/292 518/1030/383 517/1031/384
f 506/1032/242 518/1030/383 520/1033/243
f 505/1034/292 517/1035/384 522/1036/385
f 505/1034/292 522/1036/385 524/1037/386
f 505/1029/292 524/1038/386 521/1039/387
f 506/1032/242 520/1033/243 527/1040/247
f 507/1041/248 519/1042/249 529/1043/139
f 508/1044/250 523/1045/251 531/1046/252
f 509/1047/253 525/1048/254 533/1049/255
f 510/1050/256 526/1051/257 535/1052/258
f 506/1032/242 527/1040/247 530/1053/259
f 507/1041/248 529/1043/139 532/1054/260
f 508/1044/250 531/1046/252 534/1055/261
f 509/1047/253 533/1049/255 536/1056/121
f 510/1050/256 535/1052/258 528/1057/262
f 511/1058/263 537/1059/264 542/1060/265
f 512/1061/266 538/1062/267 544/1063/268
f 513/1064/269 539/1065/270 545/1066/271
f 514/1067/272 540/1068/273 546/1069/274
f 515/1070/275 541/1071/276 543/1072/277
f 543/1072/277 546/1073/274 516/1074/238
f 543/1072/277 541/1071/276 546/1073/274
f 541/1071/276 514/1075/272 546/1073/274
f 546/1076/274 545/1066/271 516/1077/238
f 546/1076/274 540/1078/273 545/1066/271
f 540/1078/273 513/1064/269 545/1066/271
f 545/1066/271 544/1079/268 516/1077/238
f 545/1066/271 539/1065/270 544/1079/268
f 539/1065/270 512/1080/266 544/1079/268
f 544/1079/268 542/1081/265 516/1077/238
f 544/1063/268 538/1062/267 542/1060/265
f 538/1062/267 511/1058/263 542/1060/265
f 542/1082/265 543/1072/277 516/1074/238
f 542/1082/265 537/1083/264 543/1072/277
f 537/1083/264 515/1070/275 543/1072/277
f 528/1084/262 541/1071/276 515/1070/275
f 528/1084/262 535/1085/258 541/1071/276
f 535/1085/258 514/1075/272 541/1071/276
f 536/1056/121 540/1068/273 514/1067/272
f 536/1056/121 533/1049/255 540/1068/273
f 533/1086/255 513/1064/269 540/1078/273
f 534/1087/261 539/1065/270 513/1064/269
f 534/1087/261 531/1088/252 539/1065/270
f 531/1088/252 512/1080/266 539/1065/270
f 532/1054/260 538/1062/267 512/1061/266
f 532/1054/260 529/1043/139 538/1062/267
f 529/1043/139 511/1058/263 538/1062/267
f 530/1089/259 537/1059/264 511/1058/263
f 530/1090/259 527/1091/247 537/1083/264
f 527/1091/247 515/1070/275 537/1083/264
f 535/1052/258 536/1056/121 514/1067/272
f 535/1052/258 526/1051/257 536/1056/121
f 526/1051/257 509/1047/253 536/1056/121
f 533/1086/255 534/1087/261 513/1064/269
f 533/1092/255 525/1093/254 534/1055/261
f 525/1093/254 508/1044/250 534/1055/261
f 531/1094/252 532/1054/260 512/1061/266
f 531/1046/252 523/1045/251 532/1095/260
f 523/1096/251 507/1041/248 532/1054/260
f 529/1043/139 530/1089/259 511/1058/263
f 529/1043/139 519/1042/249 530/1089/259
f 519/1097/249 506/1032/242 530/1053/259
f 527/1091/247 528/1084/262 515/1070/275
f 527/1040/247 520/1033/243 528/1098/262
f 520/1033/243 510/1099/256 528/1098/262
f 521/1100/387 526/1051/257 510/1050/256
f 521/1100/387 524/1101/386 526/1051/257
f 524/1101/386 509/1047/253 526/1051/257
f 524/1101/386 525/1048/254 509/1047/253
f 524/1037/386 522/1036/385 525/1093/254
f 522/1036/385 508/1044/250 525/1093/254
f 522/1036/385 523/1045/251 508/1044/250
f 522/1036/385 517/1035/384 523/1045/251
f 517/1035/384 507/1102/248 523/1045/251
f 520/1033/243 521/1039/387 510/1099/256
f 520/1033/243 518/1030/383 521/1039/387
f 518/1030/383 505/1029/292 521/1039/387
f 517/1103/384 519/1042/249 507/1041/248
f 517/1031/384 518/1030/383 519/1097/249
f 518/1030/383 506/1032/242 519/1097/249
