# axis-converted-to-Y-up
# Blender 5.1.1
# www.blender.org
mtllib mob_rubah.mtl
o mob_rubah
v -1.119879 0.020993 0.204417
v -1.119879 0.309259 0.163760
v -1.100498 0.020993 0.212445
v -1.100498 0.309259 0.171788
v -1.092470 0.020993 0.231827
v -1.092470 0.309259 0.191170
v -1.100498 0.020993 0.251208
v -1.100498 0.309259 0.210551
v -1.119879 0.020993 0.259236
v -1.119879 0.309259 0.218579
v -1.139261 0.020993 0.251208
v -1.139261 0.309259 0.210551
v -1.147289 0.020993 0.231827
v -1.147289 0.309259 0.191170
v -1.139261 0.020993 0.212445
v -1.139261 0.309259 0.171788
v -1.119879 0.013162 0.202068
v -1.119879 0.107138 0.202068
v -1.098837 0.013162 0.210784
v -1.098837 0.107138 0.210784
v -1.090120 0.013162 0.231827
v -1.090120 0.107138 0.231827
v -1.098837 0.013162 0.252869
v -1.098837 0.107138 0.252869
v -1.119879 0.013162 0.261586
v -1.119879 0.107138 0.261586
v -1.140922 0.013162 0.252869
v -1.140922 0.107138 0.252869
v -1.149639 0.013162 0.231827
v -1.149639 0.107138 0.231827
v -1.140922 0.013162 0.210784
v -1.140922 0.107138 0.210784
v -1.119879 0.020993 -0.171487
v -1.119879 0.309259 -0.212144
v -1.100498 0.020993 -0.163459
v -1.100498 0.309259 -0.204116
v -1.092470 0.020993 -0.144077
v -1.092470 0.309259 -0.184734
v -1.100498 0.020993 -0.124695
v -1.100498 0.309259 -0.165352
v -1.119879 0.020993 -0.116667
v -1.119879 0.309259 -0.157324
v -1.139261 0.020993 -0.124695
v -1.139261 0.309259 -0.165352
v -1.147289 0.020993 -0.144077
v -1.147289 0.309259 -0.184734
v -1.139261 0.020993 -0.163459
v -1.139261 0.309259 -0.204116
v -1.119879 0.013162 -0.173836
v -1.119879 0.107138 -0.173836
v -1.098837 0.013162 -0.165120
v -1.098837 0.107138 -0.165120
v -1.090120 0.013162 -0.144077
v -1.090120 0.107138 -0.144077
v -1.098837 0.013162 -0.123034
v -1.098837 0.107138 -0.123034
v -1.119879 0.013162 -0.114318
v -1.119879 0.107138 -0.114318
v -1.140922 0.013162 -0.123034
v -1.140922 0.107138 -0.123034
v -1.149639 0.013162 -0.144077
v -1.149639 0.107138 -0.144077
v -1.140922 0.013162 -0.165120
v -1.140922 0.107138 -0.165120
v -0.916265 0.007831 0.116667
v -0.916265 0.309259 0.163760
v -0.896883 0.007831 0.124695
v -0.896883 0.309259 0.171788
v -0.888855 0.007831 0.144077
v -0.888855 0.309259 0.191170
v -0.896883 0.007831 0.163458
v -0.896883 0.309259 0.210551
v -0.916265 0.007831 0.171486
v -0.916265 0.309259 0.218579
v -0.935647 0.007831 0.163458
v -0.935647 0.309259 0.210551
v -0.943675 0.007831 0.144077
v -0.943675 0.309259 0.191170
v -0.935647 0.007831 0.124695
v -0.935647 0.309259 0.171788
v -0.916265 0.000000 0.114318
v -0.916265 0.093976 0.114318
v -0.895222 0.000000 0.123034
v -0.895222 0.093976 0.123034
v -0.886506 0.000000 0.144077
v -0.886506 0.093976 0.144077
v -0.895222 0.000000 0.165120
v -0.895222 0.093976 0.165120
v -0.916265 0.000000 0.173836
v -0.916265 0.093976 0.173836
v -0.937308 0.000000 0.165120
v -0.937308 0.093976 0.165120
v -0.946024 0.000000 0.144077
v -0.946024 0.093976 0.144077
v -0.937308 0.000000 0.123034
v -0.937308 0.093976 0.123034
v -0.916265 0.007831 -0.259237
v -0.916265 0.309259 -0.212144
v -0.896883 0.007831 -0.251209
v -0.896883 0.309259 -0.204116
v -0.888855 0.007831 -0.231827
v -0.888855 0.309259 -0.184734
v -0.896883 0.007831 -0.212445
v -0.896883 0.309259 -0.165352
v -0.916265 0.007831 -0.204417
v -0.916265 0.309259 -0.157324
v -0.935647 0.007831 -0.212445
v -0.935647 0.309259 -0.165352
v -0.943675 0.007831 -0.231827
v -0.943675 0.309259 -0.184734
v -0.935647 0.007831 -0.251209
v -0.935647 0.309259 -0.204116
v -0.916265 0.000000 -0.261586
v -0.916265 0.093976 -0.261586
v -0.895222 0.000000 -0.252870
v -0.895222 0.093976 -0.252870
v -0.886506 0.000000 -0.231827
v -0.886506 0.093976 -0.231827
v -0.895222 0.000000 -0.210784
v -0.895222 0.093976 -0.210784
v -0.916265 0.000000 -0.202068
v -0.916265 0.093976 -0.202068
v -0.937308 0.000000 -0.210784
v -0.937308 0.093976 -0.210784
v -0.946024 0.000000 -0.231827
v -0.946024 0.093976 -0.231827
v -0.937308 0.000000 -0.252870
v -0.937308 0.093976 -0.252870
v -1.018072 0.167590 -0.043875
v -0.882069 0.261097 0.114223
v -1.070020 0.274259 0.299684
v -1.186181 0.274260 0.043875
v -1.070020 0.274259 -0.211935
v -0.882069 0.261097 -0.201973
v -0.966125 0.431897 0.259026
v -1.154076 0.431897 0.161316
v -1.154076 0.431897 -0.154880
v -0.966125 0.431897 -0.252592
v -0.849964 0.431897 0.003218
v -1.018072 0.525404 0.003218
v -1.061831 0.238685 0.259362
v -1.048606 0.206015 0.194235
v -1.032659 0.186174 0.115703
v -0.979884 0.173012 0.000517
v -0.938132 0.192853 0.049051
v -0.903507 0.225523 0.089302
v -0.918093 0.251779 0.161132
v -0.968665 0.247815 0.199413
v -1.023643 0.264941 0.303755
v -0.865318 0.251779 -0.132660
v -0.858192 0.247815 -0.043875
v -0.865318 0.251779 0.044909
v -0.979884 0.173012 -0.088267
v -0.938132 0.192853 -0.136802
v -0.903507 0.225523 -0.177052
v -1.159683 0.238686 0.043875
v -1.116884 0.206015 0.043875
v -1.065276 0.186174 0.043875
v -1.109035 0.264941 0.259362
v -1.147418 0.260978 0.194236
v -1.174270 0.264941 0.115704
v -1.061831 0.238685 -0.171612
v -1.048606 0.206015 -0.106485
v -1.032659 0.186174 -0.027953
v -1.174270 0.264941 -0.027954
v -1.147418 0.260978 -0.106486
v -1.109035 0.264941 -0.171613
v -1.023643 0.264941 -0.216005
v -0.968665 0.247815 -0.287163
v -0.918093 0.251779 -0.248882
v -0.838273 0.398730 0.047609
v -0.839319 0.356247 0.096144
v -0.856303 0.313763 0.136395
v -0.856303 0.313763 -0.129959
v -0.839319 0.356247 -0.089709
v -0.838273 0.398730 -0.041175
v -0.988899 0.398731 0.290534
v -1.018072 0.356247 0.303941
v -1.047246 0.313763 0.290534
v -0.888920 0.313763 0.208226
v -0.907597 0.356247 0.246507
v -0.936124 0.398731 0.263098
v -1.179842 0.398731 0.136395
v -1.196826 0.356247 0.096144
v -1.197872 0.313764 0.047609
v -1.100021 0.313763 0.263098
v -1.128547 0.356247 0.246507
v -1.147225 0.398731 0.208226
v -1.147225 0.398731 -0.201790
v -1.128548 0.356247 -0.240072
v -1.100021 0.313763 -0.256663
v -1.197872 0.313764 -0.041175
v -1.196826 0.356247 -0.089709
v -1.179842 0.398731 -0.129959
v -0.936124 0.398731 -0.256663
v -0.907597 0.356247 -0.240072
v -0.888920 0.313763 -0.201790
v -1.047246 0.313763 -0.284100
v -1.018072 0.356247 -0.297506
v -0.988899 0.398731 -0.284100
v -0.861875 0.441215 0.075047
v -0.888726 0.445179 0.153579
v -0.927109 0.441215 0.218705
v -1.012501 0.441215 0.263097
v -1.067479 0.445179 0.246506
v -1.118052 0.441215 0.208225
v -1.170826 0.441215 0.092001
v -1.177953 0.445179 0.003218
v -1.170826 0.441215 -0.085568
v -1.118052 0.441215 -0.201789
v -1.067479 0.445179 -0.240070
v -1.012502 0.441215 -0.256663
v -0.927109 0.441215 -0.212271
v -0.888726 0.445179 -0.147143
v -0.861875 0.441215 -0.068612
v -1.003486 0.519982 0.075046
v -0.987539 0.500141 0.153578
v -0.974313 0.467471 0.218705
v -0.876462 0.467470 0.003218
v -0.919261 0.500141 0.003218
v -0.970869 0.519982 0.003218
v -1.056260 0.519982 0.047609
v -1.098012 0.500141 0.096143
v -1.132638 0.467471 0.136395
v -1.056260 0.519982 -0.041175
v -1.098012 0.500141 -0.089709
v -1.132638 0.467471 -0.129959
v -1.003486 0.519982 -0.068611
v -0.987539 0.500141 -0.147142
v -0.974313 0.467471 -0.212269
v -0.950071 0.507546 -0.075831
v -0.898123 0.478651 -0.075831
v -0.934019 0.478651 -0.154881
v -1.044046 0.507546 -0.124686
v -1.027995 0.478651 -0.203735
v -1.086074 0.478651 -0.173541
v -1.102126 0.507546 0.003218
v -1.144154 0.478651 -0.045637
v -1.144154 0.478651 0.052073
v -1.044046 0.507546 0.131121
v -1.086074 0.478651 0.179976
v -1.027994 0.478651 0.210171
v -0.950071 0.507546 0.082266
v -0.934019 0.478651 0.161317
v -0.898123 0.478651 0.082266
v -0.856095 0.403002 -0.124686
v -0.866015 0.356247 -0.173541
v -0.891990 0.403002 -0.203737
v -1.044047 0.403002 -0.282786
v -1.076153 0.356247 -0.282788
v -1.102127 0.403002 -0.252592
v -1.196103 0.403001 -0.045638
v -1.206024 0.356247 0.003218
v -1.196103 0.403002 0.052073
v -1.102127 0.403002 0.259026
v -1.076153 0.356247 0.289222
v -1.044047 0.403002 0.289221
v -0.891990 0.403002 0.210172
v -0.866015 0.356247 0.179978
v -0.856095 0.403001 0.131122
v -0.959992 0.356247 -0.282788
v -0.934017 0.309492 -0.252592
v -0.992097 0.309492 -0.282786
v -1.170128 0.356247 -0.173542
v -1.144154 0.309492 -0.203737
v -1.180050 0.309492 -0.124686
v -1.170128 0.356247 0.179978
v -1.180050 0.309492 0.131122
v -1.144154 0.309492 0.210172
v -0.959992 0.356247 0.289222
v -0.992097 0.309492 0.289221
v -0.934017 0.309492 0.259026
v -0.830120 0.356247 0.003218
v -0.840042 0.309492 0.052073
v -0.840042 0.309492 -0.045638
v -0.950071 0.214343 -0.220634
v -0.992098 0.185448 -0.171779
v -1.008151 0.214343 -0.250829
v -1.102127 0.227505 -0.114223
v -1.086073 0.198610 -0.035174
v -1.138022 0.227505 -0.035174
v -1.138022 0.227505 0.122924
v -1.086073 0.198610 0.122924
v -1.102127 0.227505 0.201974
v -0.891991 0.214343 -0.092729
v -0.891991 0.214343 0.004980
v -0.934018 0.185448 -0.043875
v -1.008150 0.214343 0.163078
v -0.992097 0.185448 0.084028
v -0.950071 0.214343 0.132883
v -1.018072 0.170331 -0.216164
v -0.933070 0.219033 -0.154407
v -1.050539 0.232195 -0.028489
v -1.123141 0.232195 -0.128414
v -1.050539 0.232195 -0.228340
v -0.933070 0.219033 -0.277921
v -0.985605 0.317335 -0.069146
v -1.103074 0.317335 -0.107315
v -1.103074 0.317335 -0.230828
v -0.985605 0.317335 -0.268998
v -0.913004 0.317335 -0.169071
v -1.018072 0.366036 -0.169071
v -1.037156 0.196652 -0.069680
v -0.968110 0.183489 -0.179864
v -0.987193 0.212115 -0.121130
v -0.918147 0.212115 -0.216164
v -0.968110 0.183489 -0.252464
v -1.079829 0.196652 -0.128414
v -1.098914 0.225277 -0.069679
v -1.037156 0.196652 -0.187148
v -1.098914 0.225277 -0.187149
v -0.987193 0.212115 -0.311199
v -0.906351 0.258434 -0.179864
v -0.906351 0.258434 -0.252464
v -1.018072 0.258434 -0.098694
v -0.949025 0.258434 -0.121129
v -1.129793 0.271597 -0.092115
v -1.087120 0.271597 -0.033379
v -1.087120 0.271597 -0.223450
v -1.129793 0.271597 -0.164714
v -0.949025 0.258434 -0.311200
v -1.018072 0.258434 -0.333634
v -0.937231 0.324252 -0.110337
v -1.048951 0.324252 -0.074038
v -1.117998 0.324252 -0.169071
v -1.048951 0.324252 -0.264107
v -0.937231 0.324252 -0.227806
v -0.998989 0.352879 -0.110338
v -0.956315 0.352878 -0.169071
v -1.068035 0.352879 -0.132771
v -1.068035 0.352879 -0.205371
v -0.998989 0.352879 -0.227805
v -1.018072 0.266265 -0.372791
v -0.921737 0.359358 -0.255708
v -1.054869 0.359358 -0.212449
v -1.137149 0.359358 -0.325699
v -1.054869 0.359358 -0.438947
v -0.921737 0.359358 -0.395690
v -0.981276 0.478437 -0.212449
v -1.114408 0.478437 -0.255708
v -1.114408 0.478437 -0.395690
v -0.981276 0.478437 -0.438947
v -0.898995 0.478437 -0.325699
v -1.018072 0.552030 -0.325699
v -1.039700 0.305648 -0.259133
v -0.961448 0.305648 -0.284558
v -0.983076 0.348905 -0.217992
v -0.904824 0.348905 -0.325699
v -0.961448 0.305648 -0.366838
v -1.088064 0.305648 -0.325699
v -1.109693 0.348905 -0.259133
v -1.039700 0.305648 -0.392264
v -1.109693 0.348905 -0.392264
v -0.983076 0.348905 -0.433405
v -0.891455 0.418898 -0.284558
v -0.891455 0.418898 -0.366838
v -1.018072 0.418898 -0.192566
v -0.939819 0.418898 -0.217991
v -1.144689 0.418898 -0.284558
v -1.096326 0.418898 -0.217991
v -1.096326 0.418898 -0.433405
v -1.144689 0.418898 -0.366838
v -0.939819 0.418898 -0.433405
v -1.018072 0.418898 -0.458831
v -0.926452 0.488890 -0.259133
v -1.053069 0.488890 -0.217992
v -1.131321 0.488890 -0.325699
v -1.053069 0.488890 -0.433405
v -0.926452 0.488890 -0.392264
v -0.996444 0.532147 -0.259133
v -0.948081 0.532147 -0.325699
v -1.074697 0.532147 -0.284558
v -1.074697 0.532147 -0.366838
v -0.996444 0.532147 -0.392264
v -1.018072 0.309259 -0.372687
v -1.018072 0.375825 -0.560639
v -0.956845 0.338745 -0.372687
v -1.008888 0.380248 -0.560639
v -0.941722 0.404999 -0.372687
v -1.006620 0.390186 -0.560639
v -0.984094 0.458130 -0.372687
v -1.012976 0.398156 -0.560639
v -1.052051 0.458130 -0.372687
v -1.023169 0.398156 -0.560639
v -1.094422 0.404999 -0.372687
v -1.029525 0.390186 -0.560639
v -1.079300 0.338745 -0.372687
v -1.027257 0.380248 -0.560639
v -1.018072 0.364078 -0.560639
v -1.001072 0.377066 -0.548287
v -1.024566 0.377066 -0.540654
v -1.039086 0.377066 -0.560639
v -1.024566 0.377066 -0.580623
v -1.001072 0.377066 -0.572990
v -1.011579 0.398079 -0.540654
v -1.035073 0.398079 -0.548287
v -1.035073 0.398079 -0.572990
v -1.011579 0.398079 -0.580623
v -0.997058 0.398079 -0.560639
v -1.018072 0.411066 -0.560639
v -1.090913 0.489380 -0.364581
v -1.096073 0.661669 -0.313153
v -1.050328 0.489380 -0.339765
v -1.093753 0.661669 -0.311735
v -1.044425 0.489380 -0.292563
v -1.093417 0.661669 -0.309038
v -1.077650 0.489380 -0.258518
v -1.095315 0.661669 -0.307092
v -1.124982 0.489380 -0.263267
v -1.098020 0.661669 -0.307363
v -1.150781 0.489380 -0.303233
v -1.099494 0.661669 -0.309648
v -1.135619 0.489380 -0.348323
v -1.098628 0.661669 -0.312224
v -1.093649 0.575524 -0.345140
v -1.096151 0.669500 -0.320205
v -1.073357 0.575524 -0.332732
v -1.094412 0.669500 -0.319142
v -1.070405 0.575524 -0.309131
v -1.094158 0.669500 -0.317119
v -1.087018 0.575524 -0.292108
v -1.095583 0.669500 -0.315660
v -1.110684 0.575524 -0.294483
v -1.097611 0.669500 -0.315862
v -1.123584 0.575524 -0.314466
v -1.098717 0.669500 -0.317576
v -1.116002 0.575524 -0.337010
v -1.098067 0.669500 -0.319507
v -0.945231 0.489380 -0.364581
v -0.940072 0.661669 -0.313153
v -0.900526 0.489380 -0.348323
v -0.937517 0.661669 -0.312224
v -0.885363 0.489380 -0.303233
v -0.936651 0.661669 -0.309648
v -0.911162 0.489380 -0.263267
v -0.938125 0.661669 -0.307363
v -0.958495 0.489380 -0.258518
v -0.940830 0.661669 -0.307092
v -0.991719 0.489380 -0.292563
v -0.942728 0.661669 -0.309038
v -0.985817 0.489380 -0.339765
v -0.942391 0.661669 -0.311735
v -0.942495 0.575524 -0.345140
v -0.939994 0.669500 -0.320205
v -0.920142 0.575524 -0.337010
v -0.938078 0.669500 -0.319507
v -0.912561 0.575524 -0.314466
v -0.937428 0.669500 -0.317576
v -0.925461 0.575524 -0.294483
v -0.938533 0.669500 -0.315862
v -0.949127 0.575524 -0.292108
v -0.940562 0.669500 -0.315660
v -0.965739 0.575524 -0.309131
v -0.941986 0.669500 -0.317119
v -0.962788 0.575524 -0.332732
v -0.941733 0.669500 -0.319142
v -1.080723 0.434560 -0.404012
v -1.063723 0.447548 -0.391659
v -1.087217 0.447548 -0.384026
v -1.101737 0.447548 -0.404012
v -1.087217 0.447548 -0.423996
v -1.063723 0.447548 -0.416363
v -1.074229 0.468561 -0.384026
v -1.097723 0.468561 -0.391659
v -1.097723 0.468561 -0.416363
v -1.074229 0.468561 -0.423996
v -1.059709 0.468561 -0.404012
v -1.080723 0.481548 -0.404012
v -0.955422 0.434560 -0.404012
v -0.938421 0.447548 -0.391659
v -0.961915 0.447548 -0.384026
v -0.976435 0.447548 -0.404012
v -0.961915 0.447548 -0.423996
v -0.938421 0.447548 -0.416363
v -0.948928 0.468561 -0.384026
v -0.972422 0.468561 -0.391659
v -0.972422 0.468561 -0.416363
v -0.948928 0.468561 -0.423996
v -0.934408 0.468561 -0.404012
v -0.955422 0.481548 -0.404012
v -1.018072 0.460260 0.187824
v -1.018072 0.530340 0.373300
v -0.923122 0.408253 0.205160
v -0.916340 0.474618 0.391872
v -0.923122 0.304241 0.239830
v -0.916340 0.363177 0.429019
v -1.018072 0.232734 0.210073
v -1.018072 0.307456 0.447593
v -1.113022 0.304241 0.239830
v -1.119804 0.363177 0.429019
v -1.113022 0.408253 0.205160
v -1.119804 0.474618 0.391872
v -1.018072 0.518002 0.347380
v -1.018072 0.587999 0.544895
v -0.916340 0.468450 0.378912
v -0.957034 0.558268 0.563816
v -0.916340 0.369345 0.441979
v -0.957034 0.498805 0.601656
v -1.018072 0.319793 0.473513
v -1.018072 0.469073 0.620575
v -1.119804 0.369345 0.441979
v -1.079111 0.498805 0.601656
v -1.119804 0.468450 0.378912
v -1.079111 0.558268 0.563816
v -1.018072 0.481548 0.629723
v -0.961404 0.524838 0.670895
v -1.039717 0.524838 0.696341
v -1.088117 0.524838 0.629723
v -1.039717 0.524838 0.563106
v -0.961404 0.524838 0.588552
v -0.996427 0.594885 0.696341
v -1.074741 0.594885 0.670895
v -1.074741 0.594885 0.588552
v -0.996427 0.594885 0.563106
v -0.948027 0.594885 0.629723
v -1.018072 0.638175 0.629723
v -1.030794 0.493244 0.668880
v -0.984764 0.493244 0.653923
v -0.997486 0.518689 0.693079
v -0.951455 0.518689 0.629723
v -0.984764 0.493244 0.605523
v -1.059244 0.493244 0.629723
v -1.071967 0.518689 0.668880
v -1.030794 0.493244 0.590566
v -1.071967 0.518689 0.590566
v -0.997486 0.518689 0.566368
v -0.943592 0.559861 0.653923
v -0.943592 0.559861 0.605523
v -1.018072 0.559861 0.708036
v -0.972041 0.559861 0.693080
v -1.092553 0.559861 0.653923
v -1.064103 0.559861 0.693080
v -1.064103 0.559861 0.566366
v -1.092553 0.559861 0.605523
v -0.972041 0.559861 0.566366
v -1.018072 0.559861 0.551411
v -0.964178 0.601034 0.668880
v -1.038659 0.601034 0.693079
v -1.084689 0.601034 0.629723
v -1.038658 0.601034 0.566368
v -0.964178 0.601034 0.590566
v -1.005350 0.626479 0.668880
v -0.976901 0.626479 0.629723
v -1.051381 0.626479 0.653923
v -1.051381 0.626479 0.605523
v -1.005350 0.626479 0.590566
vn -0.000000 -0.630300 -0.776400
vn -0.000000 0.630300 -0.776400
vn 0.549000 0.630300 -0.549000
vn 0.549000 -0.630300 -0.549000
vn 0.776400 0.630300 0.000000
vn 0.776400 -0.630300 0.000000
vn 0.549000 0.630300 0.549000
vn 0.549000 -0.630300 0.549000
vn -0.000000 0.630300 0.776400
vn -0.000000 -0.630300 0.776400
vn -0.549000 0.630300 0.549000
vn -0.549000 -0.630300 0.549000
vn -0.776400 0.630300 0.000000
vn -0.776400 -0.630300 0.000000
vn -0.549000 0.630300 -0.549000
vn -0.549000 -0.630300 -0.549000
vn 0.001400 -1.000000 0.000000
vn 0.193000 -0.977100 0.089700
vn -0.072800 -0.986800 0.144600
vn 0.771600 -0.526500 0.357000
vn 0.608900 -0.742000 0.280400
vn 0.812200 -0.554100 0.182200
vn -0.238100 -0.971200 0.000000
vn -0.072800 -0.986800 -0.144600
vn 0.193000 -0.977100 -0.089700
vn 0.913300 -0.282000 0.293700
vn -0.352500 -0.629000 0.692900
vn -0.024600 -0.706600 0.707200
vn -0.217600 -0.386800 0.896100
vn -0.876200 -0.481900 0.000000
vn -0.821000 -0.549400 0.155200
vn -0.958200 -0.268500 0.098400
vn -0.352500 -0.629000 -0.692900
vn -0.565100 -0.639200 -0.521600
vn -0.583000 -0.351500 -0.732500
vn 0.771600 -0.526500 -0.357000
vn 0.595800 -0.629700 -0.498600
vn 0.798900 -0.313900 -0.513000
vn 0.798900 -0.313900 0.513000
vn -0.583000 -0.351500 0.732500
vn -0.958200 -0.268500 -0.098400
vn -0.217600 -0.386800 -0.896100
vn 0.913300 -0.282000 -0.293700
vn 0.352500 0.629000 0.692900
vn 0.565100 0.639200 0.521600
vn 0.259100 0.822000 0.507100
vn -0.771600 0.526500 0.357000
vn -0.595800 0.629700 0.498600
vn -0.608900 0.742000 0.280400
vn -0.771600 0.526500 -0.357000
vn -0.812200 0.554100 -0.182200
vn -0.608900 0.742000 -0.280400
vn 0.352500 0.629000 -0.692900
vn 0.024600 0.706600 -0.707200
vn 0.259100 0.822000 -0.507100
vn 0.876200 0.481900 0.000000
vn 0.821000 0.549400 -0.155200
vn 0.711800 0.702300 0.000000
vn 0.238100 0.971200 0.000000
vn 0.072800 0.986800 -0.144600
vn -0.001400 1.000000 0.000000
vn 0.488100 0.872800 0.000000
vn 0.346100 0.924500 -0.159800
vn 0.609800 0.775400 -0.164300
vn 0.161100 0.934900 -0.316300
vn 0.460000 0.821100 -0.337800
vn 0.721500 0.606700 -0.333700
vn 0.565100 0.639200 -0.521600
vn -0.193000 0.977100 -0.089700
vn -0.136600 0.954000 -0.266900
vn -0.064900 0.876400 -0.477100
vn -0.404900 0.895100 -0.186900
vn -0.371100 0.841500 -0.392700
vn -0.321100 0.704100 -0.633400
vn -0.595800 0.629700 -0.498600
vn -0.193000 0.977100 0.089700
vn -0.420000 0.907500 0.000000
vn -0.636800 0.765400 -0.093600
vn -0.404900 0.895100 0.186900
vn -0.636800 0.765400 0.093600
vn -0.826200 0.563400 0.000000
vn -0.812200 0.554100 0.182200
vn 0.072800 0.986800 0.144600
vn -0.136600 0.954000 0.266900
vn -0.371100 0.841500 0.392700
vn 0.161100 0.934900 0.316300
vn -0.064900 0.876400 0.477100
vn -0.321100 0.704100 0.633400
vn 0.024600 0.706600 0.707200
vn 0.346100 0.924500 0.159800
vn 0.460000 0.821100 0.337800
vn 0.609800 0.775400 0.164300
vn 0.721500 0.606700 0.333700
vn 0.821000 0.549400 0.155200
vn 0.958200 0.268500 -0.098400
vn 0.979300 0.000300 -0.202600
vn 0.903500 0.315600 -0.290000
vn 0.907000 0.010900 -0.420900
vn 0.787300 0.348200 -0.508800
vn 0.748400 -0.001000 -0.663200
vn 0.583000 0.351500 -0.732500
vn 0.217600 0.386800 -0.896100
vn -0.000000 -0.000000 -1.000000
vn -0.208400 0.425600 -0.880600
vn -0.447100 0.014000 -0.894400
vn -0.574900 0.390100 -0.719300
vn -0.748400 0.001000 -0.663200
vn -0.798900 0.313900 -0.513000
vn -0.913300 0.282000 -0.293700
vn -0.979300 -0.000300 -0.202600
vn -0.948800 0.300300 -0.098400
vn -1.000000 0.009800 0.000000
vn -0.948800 0.300300 0.098400
vn -0.979300 -0.000300 0.202600
vn -0.913300 0.282000 0.293700
vn -0.798900 0.313900 0.513000
vn -0.748400 0.001000 0.663200
vn -0.574900 0.390100 0.719300
vn -0.447100 0.014000 0.894400
vn -0.208400 0.425600 0.880600
vn -0.000000 -0.000000 1.000000
vn 0.217600 0.386800 0.896100
vn 0.583000 0.351500 0.732500
vn 0.748400 -0.001000 0.663300
vn 0.787300 0.348200 0.508800
vn 0.907000 0.010900 0.420900
vn 0.903500 0.315600 0.290000
vn 0.979300 0.000300 0.202600
vn 0.958200 0.268500 0.098400
vn 0.447100 -0.014000 -0.894400
vn 0.574900 -0.390100 -0.719300
vn 0.208400 -0.425600 -0.880600
vn 0.321100 -0.704100 -0.633400
vn -0.024600 -0.706600 -0.707200
vn -0.907000 -0.010900 -0.420900
vn -0.787300 -0.348200 -0.508800
vn -0.903500 -0.315600 -0.290000
vn -0.721500 -0.606700 -0.333700
vn -0.821000 -0.549400 -0.155200
vn -0.907000 -0.010900 0.420900
vn -0.903500 -0.315600 0.290000
vn -0.787300 -0.348200 0.508800
vn -0.721500 -0.606700 0.333700
vn -0.565100 -0.639200 0.521600
vn 0.447100 -0.014000 0.894400
vn 0.208400 -0.425600 0.880600
vn 0.574900 -0.390100 0.719300
vn 0.321100 -0.704100 0.633400
vn 0.595800 -0.629700 0.498600
vn 1.000000 -0.009800 0.000000
vn 0.948800 -0.300300 0.098400
vn 0.948800 -0.300300 -0.098400
vn 0.826200 -0.563400 0.000000
vn 0.812200 -0.554100 -0.182200
vn 0.608900 -0.742000 -0.280400
vn 0.404900 -0.895100 -0.186900
vn 0.371100 -0.841500 -0.392700
vn 0.136600 -0.954000 -0.266900
vn 0.064900 -0.876400 -0.477100
vn -0.161100 -0.934900 -0.316300
vn -0.259100 -0.822000 -0.507100
vn -0.460000 -0.821100 -0.337800
vn -0.346100 -0.924500 -0.159800
vn -0.609800 -0.775400 -0.164300
vn -0.488100 -0.872800 0.000000
vn -0.711800 -0.702300 0.000000
vn -0.609800 -0.775400 0.164300
vn -0.346100 -0.924500 0.159800
vn -0.460000 -0.821100 0.337800
vn -0.161100 -0.934900 0.316300
vn -0.259100 -0.822000 0.507100
vn 0.636800 -0.765400 -0.093600
vn 0.636800 -0.765400 0.093600
vn 0.420000 -0.907500 0.000000
vn 0.404900 -0.895100 0.186900
vn 0.064900 -0.876400 0.477100
vn 0.136600 -0.954000 0.266900
vn 0.371100 -0.841500 0.392700
vn -0.000000 -1.000000 0.000000
vn 0.353500 -0.899500 0.256800
vn -0.135000 -0.899500 0.415500
vn 0.686500 -0.529200 0.498700
vn 0.794700 -0.607000 0.000000
vn -0.436900 -0.899500 0.000000
vn -0.135000 -0.899500 -0.415500
vn 0.353500 -0.899500 -0.256800
vn 0.951100 -0.000000 0.309000
vn -0.262200 -0.529200 0.807000
vn 0.245600 -0.607000 0.755800
vn -0.848500 -0.529200 0.000000
vn -0.642900 -0.607000 0.467100
vn -0.951100 -0.000000 0.309000
vn -0.262200 -0.529200 -0.807000
vn -0.642900 -0.607000 -0.467100
vn -0.587800 -0.000000 -0.809000
vn 0.686500 -0.529200 -0.498700
vn 0.245600 -0.607000 -0.755800
vn 0.587800 -0.000000 -0.809000
vn 0.587800 -0.000000 0.809000
vn -0.587800 -0.000000 0.809000
vn -0.951100 -0.000000 -0.309000
vn 0.951100 -0.000000 -0.309000
vn 0.262200 0.529200 0.807000
vn 0.642900 0.607000 0.467100
vn 0.135000 0.899500 0.415500
vn -0.686500 0.529200 0.498700
vn -0.245600 0.607000 0.755800
vn -0.353500 0.899500 0.256800
vn -0.686500 0.529200 -0.498700
vn -0.794700 0.607000 0.000000
vn -0.353500 0.899500 -0.256800
vn 0.262200 0.529200 -0.807000
vn -0.245600 0.607000 -0.755800
vn 0.135000 0.899500 -0.415500
vn 0.848500 0.529200 0.000000
vn 0.642900 0.607000 -0.467100
vn 0.436900 0.899500 0.000000
vn -0.000000 1.000000 0.000000
vn 0.425300 -0.850700 0.309000
vn -0.162500 -0.850700 0.500000
vn 0.723600 -0.447200 0.525700
vn 0.850600 -0.525700 0.000000
vn -0.525700 -0.850700 0.000000
vn -0.162500 -0.850700 -0.500000
vn 0.425300 -0.850700 -0.309000
vn -0.276400 -0.447200 0.850600
vn 0.262900 -0.525700 0.809000
vn -0.894400 -0.447200 0.000000
vn -0.688200 -0.525700 0.500000
vn -0.276400 -0.447200 -0.850600
vn -0.688200 -0.525700 -0.500000
vn 0.723600 -0.447200 -0.525700
vn 0.262900 -0.525700 -0.809000
vn 0.276400 0.447200 0.850600
vn 0.688200 0.525700 0.500000
vn 0.162500 0.850700 0.500000
vn -0.723600 0.447200 0.525700
vn -0.262900 0.525700 0.809000
vn -0.425300 0.850700 0.309000
vn -0.723600 0.447200 -0.525700
vn -0.850600 0.525700 0.000000
vn -0.425300 0.850700 -0.309000
vn 0.276400 0.447200 -0.850600
vn -0.262900 0.525700 -0.809000
vn 0.162500 0.850700 -0.500000
vn 0.894400 0.447200 0.000000
vn 0.688200 0.525700 -0.500000
vn 0.525700 0.850700 0.000000
vn -0.000000 -0.871400 0.490500
vn -0.000000 -0.667400 -0.744700
vn 0.521800 -0.416100 -0.744700
vn 0.681300 -0.543300 0.490500
vn 0.650700 0.148500 -0.744700
vn 0.849600 0.193900 0.490500
vn 0.289600 0.601300 -0.744700
vn 0.378100 0.785100 0.490500
vn -0.289600 0.601300 -0.744700
vn -0.378100 0.785100 0.490500
vn -0.650600 0.148500 -0.744700
vn -0.849600 0.193900 0.490500
vn -0.521800 -0.416100 -0.744700
vn -0.681300 -0.543300 0.490500
vn -0.276400 -0.447200 0.850700
vn -0.276400 -0.447200 -0.850700
vn 0.276400 0.447200 0.850700
vn 0.276400 0.447200 -0.850700
vn 0.085900 -0.509600 -0.856100
vn 0.068500 0.727600 -0.682500
vn 0.576400 0.727600 -0.372000
vn 0.722900 -0.509600 -0.466600
vn 0.650200 0.727700 0.218600
vn 0.815600 -0.509600 0.274300
vn 0.234400 0.727600 0.644600
vn 0.294100 -0.509600 0.808600
vn -0.357900 0.727600 0.585300
vn -0.448900 -0.509600 0.734100
vn -0.680600 0.727700 0.085100
vn -0.853800 -0.509600 0.106800
vn -0.491000 0.727600 -0.479100
vn -0.615800 -0.509600 -0.600900
vn 0.085200 -0.521600 -0.849000
vn 0.069600 0.716700 -0.693900
vn 0.585800 0.716800 -0.378200
vn 0.716800 -0.521500 -0.462700
vn 0.661100 0.716600 0.222300
vn 0.808700 -0.521600 0.272000
vn 0.238300 0.716700 0.655400
vn 0.291600 -0.521600 0.801800
vn -0.363800 0.716700 0.595000
vn -0.445100 -0.521600 0.727900
vn -0.692000 0.716700 0.086500
vn -0.846600 -0.521500 0.105900
vn -0.499100 0.716700 -0.487000
vn -0.610600 -0.521500 -0.595900
vn -0.085900 -0.509600 -0.856100
vn -0.068500 0.727600 -0.682500
vn 0.491000 0.727600 -0.479100
vn 0.615800 -0.509600 -0.600900
vn 0.680600 0.727700 0.085100
vn 0.853800 -0.509600 0.106800
vn 0.357900 0.727600 0.585300
vn 0.448900 -0.509600 0.734100
vn -0.234400 0.727600 0.644600
vn -0.294100 -0.509600 0.808600
vn -0.650200 0.727700 0.218600
vn -0.815600 -0.509600 0.274300
vn -0.576400 0.727600 -0.372000
vn -0.722900 -0.509600 -0.466600
vn -0.085200 -0.521600 -0.849000
vn -0.069600 0.716700 -0.693900
vn 0.499100 0.716700 -0.487100
vn 0.610600 -0.521500 -0.595900
vn 0.692000 0.716700 0.086500
vn 0.846600 -0.521500 0.105900
vn 0.363800 0.716700 0.595000
vn 0.445100 -0.521600 0.727900
vn -0.238300 0.716700 0.655400
vn -0.291600 -0.521600 0.801800
vn -0.661100 0.716600 0.222300
vn -0.808700 -0.521600 0.272000
vn -0.585800 0.716800 -0.378200
vn -0.716900 -0.521500 -0.462700
vn -0.000000 0.543100 -0.839600
vn -0.000000 0.950600 0.310400
vn 0.696000 0.569400 0.437500
vn 0.676200 0.172800 -0.716200
vn 0.696000 -0.193000 0.691600
vn 0.676200 -0.567900 -0.469300
vn -0.000000 -0.574200 0.818700
vn -0.000000 -0.938300 -0.345800
vn -0.696000 -0.193000 0.691600
vn -0.676200 -0.567900 -0.469300
vn -0.696000 0.569400 0.437500
vn -0.676200 0.172800 -0.716200
vn -0.000000 0.437200 -0.899400
vn -0.000000 0.980100 0.198300
vn 0.623900 0.676200 0.391700
vn 0.737600 0.077900 -0.670700
vn 0.623900 0.068400 0.778500
vn 0.737600 -0.640600 -0.213500
vn -0.000000 -0.235500 0.971900
vn -0.000000 -0.999900 0.015100
vn -0.623900 0.068400 0.778500
vn -0.737600 -0.640600 -0.213500
vn -0.623900 0.676200 0.391700
vn -0.737600 0.077900 -0.670700
vn -0.162400 -0.850700 0.500000
vn -0.162400 -0.850700 -0.500000
vt 0.812550 0.768841
vt 0.812550 0.642090
vt 0.821660 0.642732
vt 0.821660 0.769482
vt 0.121553 0.631551
vt 0.121553 0.538877
vt 0.130879 0.540570
vt 0.130879 0.633244
vt 0.911000 0.883821
vt 0.911000 0.794404
vt 0.920441 0.795798
vt 0.920441 0.885214
vt 0.846360 0.768410
vt 0.846360 0.642090
vt 0.855022 0.643018
vt 0.855022 0.769338
vt 0.864131 0.642327
vt 0.864131 0.768647
vt 0.672308 0.830695
vt 0.682264 0.742203
vt 0.691674 0.741288
vt 0.681718 0.829780
vt 0.768624 0.405803
vt 0.769900 0.412561
vt 0.764066 0.417642
vt 0.754539 0.418070
vt 0.746899 0.413594
vt 0.745623 0.406836
vt 0.751458 0.401755
vt 0.760985 0.401327
vt 0.745623 0.510189
vt 0.755151 0.509761
vt 0.803890 0.769704
vt 0.803890 0.642954
vt 0.691674 0.841038
vt 0.686388 0.846617
vt 0.676978 0.847532
vt 0.668956 0.843248
vt 0.667022 0.836274
vt 0.689739 0.834064
vt 0.922969 0.511465
vt 0.922969 0.469215
vt 0.932860 0.469912
vt 0.932860 0.512162
vt 0.947707 0.313151
vt 0.947707 0.282260
vt 0.957832 0.284098
vt 0.957832 0.314989
vt 0.957560 0.499020
vt 0.957560 0.469215
vt 0.967810 0.470728
vt 0.967810 0.500533
vt 0.803890 0.933425
vt 0.803890 0.891319
vt 0.813294 0.892326
vt 0.813294 0.934433
vt 0.823184 0.891576
vt 0.823184 0.933683
vt 0.449860 0.902493
vt 0.458339 0.874046
vt 0.468570 0.874874
vt 0.460091 0.903320
vt 0.691868 0.879454
vt 0.692103 0.886917
vt 0.684993 0.891388
vt 0.674701 0.890250
vt 0.667257 0.884167
vt 0.667022 0.876704
vt 0.674132 0.872232
vt 0.684424 0.873371
vt 0.667022 0.920128
vt 0.677313 0.921267
vt 0.913567 0.512403
vt 0.913567 0.470152
vt 0.468570 0.917262
vt 0.461851 0.922209
vt 0.451620 0.921382
vt 0.443870 0.915264
vt 0.443141 0.907440
vt 0.467841 0.909438
vt 0.803261 0.528078
vt 0.803261 0.401327
vt 0.812371 0.401969
vt 0.812371 0.528720
vt 0.879541 0.494002
vt 0.879541 0.401327
vt 0.888866 0.403020
vt 0.888866 0.495695
vt 0.902031 0.183237
vt 0.902031 0.093820
vt 0.911472 0.095214
vt 0.911472 0.184630
vt 0.859561 0.220140
vt 0.859561 0.093820
vt 0.868223 0.094748
vt 0.868223 0.221068
vt 0.877331 0.094058
vt 0.877331 0.220378
vt 0.497779 0.832509
vt 0.507735 0.744017
vt 0.517145 0.743101
vt 0.507189 0.831594
vt 0.256333 0.667469
vt 0.257609 0.674227
vt 0.251775 0.679308
vt 0.242248 0.679736
vt 0.234609 0.675260
vt 0.233332 0.668502
vt 0.239167 0.663421
vt 0.248694 0.662993
vt 0.233332 0.771854
vt 0.242860 0.771427
vt 0.794600 0.528941
vt 0.794600 0.402191
vt 0.517145 0.842852
vt 0.511858 0.848431
vt 0.502448 0.849346
vt 0.494427 0.845062
vt 0.492493 0.838087
vt 0.515210 0.835878
vt 0.389751 0.924719
vt 0.389751 0.882469
vt 0.399642 0.883165
vt 0.399642 0.925416
vt 0.947707 0.370581
vt 0.947707 0.339689
vt 0.957832 0.341527
vt 0.957832 0.372419
vt 0.334932 0.972542
vt 0.334932 0.942737
vt 0.345182 0.944250
vt 0.345182 0.974055
vt 0.233332 0.936747
vt 0.233332 0.894640
vt 0.242737 0.895647
vt 0.242737 0.937754
vt 0.252626 0.894898
vt 0.252626 0.937005
vt 0.085679 0.903970
vt 0.094158 0.875523
vt 0.104389 0.876350
vt 0.095911 0.904797
vt 0.324828 0.876223
vt 0.325064 0.883686
vt 0.317953 0.888158
vt 0.307662 0.887019
vt 0.300218 0.880937
vt 0.299982 0.873474
vt 0.307093 0.869002
vt 0.317384 0.870141
vt 0.299982 0.916898
vt 0.310274 0.918037
vt 0.380349 0.925657
vt 0.380349 0.883406
vt 0.104389 0.918739
vt 0.097670 0.923686
vt 0.087439 0.922858
vt 0.079689 0.916741
vt 0.078960 0.908917
vt 0.103661 0.910915
vt 0.825751 0.220571
vt 0.825751 0.093820
vt 0.834861 0.094462
vt 0.834861 0.221213
vt 0.408977 0.631886
vt 0.408977 0.539212
vt 0.418303 0.540905
vt 0.418303 0.633579
vt 0.913567 0.371676
vt 0.913567 0.282260
vt 0.923007 0.283653
vt 0.923007 0.373069
vt 0.607399 0.872270
vt 0.607399 0.745950
vt 0.616061 0.746877
vt 0.616061 0.873197
vt 0.625170 0.746187
vt 0.625170 0.872507
vt 0.563333 0.835357
vt 0.573289 0.746865
vt 0.582699 0.745950
vt 0.572743 0.834442
vt 0.128346 0.666388
vt 0.129622 0.673145
vt 0.123788 0.678227
vt 0.114261 0.678654
vt 0.106621 0.674179
vt 0.105345 0.667421
vt 0.111180 0.662340
vt 0.120707 0.661912
vt 0.105345 0.770773
vt 0.114872 0.770345
vt 0.817090 0.221435
vt 0.817090 0.094684
vt 0.582699 0.845701
vt 0.577413 0.851279
vt 0.568003 0.852195
vt 0.559981 0.847910
vt 0.558047 0.840936
vt 0.580765 0.838726
vt 0.922969 0.443577
vt 0.922969 0.401327
vt 0.932860 0.402024
vt 0.932860 0.444274
vt 0.957560 0.432219
vt 0.957560 0.401327
vt 0.967685 0.403165
vt 0.967685 0.434057
vt 0.965582 0.739709
vt 0.965582 0.709904
vt 0.975832 0.711417
vt 0.975832 0.741222
vt 0.922972 0.684197
vt 0.922972 0.642090
vt 0.932376 0.643097
vt 0.932376 0.685204
vt 0.942266 0.642348
vt 0.942266 0.684454
vt 0.563989 0.905341
vt 0.572468 0.876894
vt 0.582699 0.877722
vt 0.574220 0.906169
vt 0.917675 0.566767
vt 0.917911 0.574230
vt 0.910800 0.578702
vt 0.900509 0.577563
vt 0.893065 0.571481
vt 0.892829 0.564018
vt 0.899940 0.559546
vt 0.910231 0.560685
vt 0.892829 0.607442
vt 0.903121 0.608581
vt 0.913567 0.444515
vt 0.913567 0.402265
vt 0.582699 0.920110
vt 0.575980 0.925057
vt 0.565748 0.924230
vt 0.557998 0.918113
vt 0.557270 0.910289
vt 0.581970 0.912286
vt 0.845731 0.528078
vt 0.845731 0.401327
vt 0.854841 0.401969
vt 0.854841 0.528720
vt 0.879541 0.374934
vt 0.879541 0.282260
vt 0.888866 0.283953
vt 0.888866 0.376627
vt 0.888831 0.731506
vt 0.888831 0.642090
vt 0.898272 0.643483
vt 0.898272 0.732900
vt 0.837071 0.375700
vt 0.837071 0.249380
vt 0.845733 0.250307
vt 0.845733 0.376627
vt 0.854842 0.249617
vt 0.854842 0.375937
vt 0.448427 0.832509
vt 0.458383 0.744017
vt 0.467793 0.743101
vt 0.457837 0.831594
vt 0.777913 0.646566
vt 0.779190 0.653324
vt 0.773355 0.658405
vt 0.763828 0.658833
vt 0.756189 0.654357
vt 0.754913 0.647599
vt 0.760747 0.642518
vt 0.770274 0.642090
vt 0.754913 0.750951
vt 0.764440 0.750523
vt 0.837071 0.528941
vt 0.837071 0.402191
vt 0.467793 0.842852
vt 0.462507 0.848431
vt 0.453097 0.849346
vt 0.445075 0.845062
vt 0.443141 0.838087
vt 0.465858 0.835878
vt 0.873856 0.932925
vt 0.873856 0.890674
vt 0.883746 0.891371
vt 0.883746 0.933621
vt 0.955371 0.940806
vt 0.955371 0.909914
vt 0.965496 0.911752
vt 0.965496 0.942644
vt 0.299982 0.972542
vt 0.299982 0.942737
vt 0.310232 0.944250
vt 0.310232 0.974055
vt 0.607399 0.940004
vt 0.607399 0.897898
vt 0.616803 0.898905
vt 0.616803 0.941011
vt 0.626693 0.898155
vt 0.626693 0.940262
vt 0.499990 0.902493
vt 0.508469 0.874046
vt 0.518700 0.874873
vt 0.510221 0.903320
vt 0.768643 0.881178
vt 0.768879 0.888641
vt 0.761768 0.893113
vt 0.751476 0.891974
vt 0.744033 0.885892
vt 0.743797 0.878429
vt 0.750908 0.873957
vt 0.761199 0.875096
vt 0.743797 0.921853
vt 0.754089 0.922992
vt 0.864453 0.933862
vt 0.864453 0.891612
vt 0.518700 0.917262
vt 0.511981 0.922209
vt 0.501749 0.921382
vt 0.493999 0.915264
vt 0.493270 0.907440
vt 0.517971 0.909438
vt 0.128464 0.146887
vt 0.113964 0.128012
vt 0.131649 0.113342
vt 0.053519 0.076399
vt 0.071876 0.088427
vt 0.050832 0.109059
vt 0.303044 0.133344
vt 0.309628 0.100653
vt 0.320534 0.134316
vt 0.309628 0.166450
vt 0.131649 0.178751
vt 0.113964 0.168436
vt 0.034468 0.087349
vt 0.168633 0.508012
vt 0.156349 0.489999
vt 0.175118 0.492983
vt 0.388697 0.134958
vt 0.381780 0.102012
vt 0.403049 0.114074
vt 0.349857 0.249399
vt 0.359968 0.232078
vt 0.370331 0.251141
vt 0.053519 0.220366
vt 0.068517 0.240648
vt 0.045398 0.239982
vt 0.045398 0.053298
vt 0.187084 0.515021
vt 0.403049 0.154738
vt 0.066949 0.382510
vt 0.046846 0.386614
vt 0.056443 0.365051
vt 0.034468 0.208623
vt 0.349850 0.277616
vt 0.359378 0.294488
vt 0.335572 0.295178
vt 0.197801 0.053227
vt 0.212513 0.033069
vt 0.216324 0.063944
vt 0.197801 0.197096
vt 0.195400 0.164404
vt 0.216324 0.185135
vt 0.349850 0.511450
vt 0.331852 0.514512
vt 0.335572 0.492153
vt 0.387294 0.390781
vt 0.380406 0.423698
vt 0.367114 0.390505
vt 0.319502 0.391883
vt 0.308988 0.425766
vt 0.302512 0.393235
vt 0.342629 0.390848
vt 0.330275 0.427736
vt 0.356474 0.426978
vt 0.320620 0.461774
vt 0.344903 0.464266
vt 0.370454 0.460332
vt 0.359378 0.491464
vt 0.275282 0.160628
vt 0.258170 0.145804
vt 0.272316 0.127060
vt 0.299982 0.453100
vt 0.314610 0.489631
vt 0.258085 0.184893
vt 0.238178 0.166913
vt 0.273999 0.197945
vt 0.253891 0.222850
vt 0.235059 0.206536
vt 0.246737 0.249274
vt 0.230200 0.239112
vt 0.212513 0.219625
vt 0.258170 0.105407
vt 0.239253 0.124121
vt 0.216226 0.145763
vt 0.238178 0.082349
vt 0.216226 0.101306
vt 0.194379 0.123515
vt 0.195400 0.083610
vt 0.275282 0.095264
vt 0.258085 0.068501
vt 0.235059 0.045685
vt 0.299982 0.336185
vt 0.320620 0.324331
vt 0.308988 0.360108
vt 0.253891 0.034523
vt 0.273999 0.061117
vt 0.314610 0.300456
vt 0.230200 0.017719
vt 0.237415 0.478051
vt 0.224556 0.455622
vt 0.248170 0.454951
vt 0.233392 0.434222
vt 0.213116 0.437498
vt 0.330275 0.355478
vt 0.344903 0.319750
vt 0.356474 0.354720
vt 0.370454 0.322889
vt 0.380406 0.358040
vt 0.401914 0.411748
vt 0.415476 0.435317
vt 0.394772 0.450357
vt 0.024379 0.226195
vt 0.015433 0.189127
vt 0.406870 0.474494
vt 0.383201 0.487646
vt 0.100832 0.304356
vt 0.076513 0.300990
vt 0.092428 0.286139
vt 0.393467 0.506245
vt 0.370372 0.513397
vt 0.037177 0.322282
vt 0.017948 0.322460
vt 0.032643 0.306352
vt 0.045539 0.343341
vt 0.022911 0.343162
vt 0.033512 0.366696
vt 0.224079 0.261451
vt 0.012350 0.366892
vt 0.205246 0.245137
vt 0.025451 0.388479
vt 0.181471 0.240336
vt 0.189234 0.220210
vt 0.178658 0.186081
vt 0.159332 0.168892
vt 0.174774 0.146804
vt 0.419152 0.133540
vt 0.416076 0.175886
vt 0.156349 0.126202
vt 0.174774 0.102346
vt 0.416076 0.090762
vt 0.159332 0.084328
vt 0.178658 0.064889
vt 0.189234 0.033653
vt 0.211269 0.519499
vt 0.224699 0.500293
vt 0.235999 0.519499
vt 0.197784 0.497829
vt 0.205246 0.012350
vt 0.248489 0.499699
vt 0.211530 0.476039
vt 0.186219 0.473365
vt 0.200099 0.453383
vt 0.193820 0.430599
vt 0.214396 0.418757
vt 0.393467 0.283855
vt 0.383201 0.298470
vt 0.370372 0.275842
vt 0.024379 0.065234
vt 0.038313 0.033227
vt 0.406870 0.312919
vt 0.394772 0.333440
vt 0.015433 0.104506
vt 0.415476 0.350372
vt 0.401914 0.371170
vt 0.051973 0.302050
vt 0.060357 0.320700
vt 0.087242 0.321969
vt 0.070958 0.344234
vt 0.061851 0.261439
vt 0.110465 0.325741
vt 0.096678 0.345755
vt 0.080872 0.366204
vt 0.167988 0.208220
vt 0.383743 0.228041
vt 0.393247 0.243154
vt 0.407150 0.213657
vt 0.395745 0.192677
vt 0.371554 0.203247
vt 0.381780 0.167809
vt 0.167988 0.047369
vt 0.395745 0.075512
vt 0.181471 0.018942
vt 0.407150 0.051739
vt 0.383743 0.038465
vt 0.393247 0.020293
vt 0.370331 0.013083
vt 0.371554 0.065512
vt 0.359968 0.034685
vt 0.349857 0.015070
vt 0.177705 0.448501
vt 0.163959 0.470291
vt 0.173075 0.425671
vt 0.157049 0.445217
vt 0.061851 0.028494
vt 0.103888 0.024625
vt 0.086710 0.034623
vt 0.081314 0.012350
vt 0.068517 0.053965
vt 0.418441 0.392547
vt 0.030360 0.126601
vt 0.012350 0.147196
vt 0.030360 0.171089
vt 0.049689 0.149953
vt 0.050832 0.189908
vt 0.071876 0.209701
vt 0.093741 0.191384
vt 0.090992 0.228115
vt 0.114151 0.205409
vt 0.086710 0.256165
vt 0.110454 0.239466
vt 0.103897 0.370018
vt 0.321208 0.202298
vt 0.299982 0.190873
vt 0.314448 0.226735
vt 0.335917 0.231624
vt 0.086374 0.388479
vt 0.345870 0.206562
vt 0.331404 0.170700
vt 0.357872 0.171198
vt 0.344038 0.135032
vt 0.368636 0.135222
vt 0.357873 0.098787
vt 0.331404 0.098288
vt 0.345870 0.061739
vt 0.321208 0.064564
vt 0.335918 0.034232
vt 0.071529 0.172275
vt 0.071529 0.127787
vt 0.094688 0.149569
vt 0.093741 0.106763
vt 0.331416 0.012350
vt 0.314448 0.037160
vt 0.299982 0.073709
vt 0.110454 0.051011
vt 0.130761 0.076055
vt 0.114151 0.088937
vt 0.090991 0.067155
vt 0.714016 0.320141
vt 0.693140 0.305096
vt 0.716278 0.292032
vt 0.670235 0.293386
vt 0.667406 0.322425
vt 0.559119 0.183979
vt 0.569643 0.157197
vt 0.583912 0.185099
vt 0.569643 0.211000
vt 0.716278 0.345517
vt 0.693140 0.338151
vt 0.648906 0.304345
vt 0.506651 0.688819
vt 0.493328 0.714566
vt 0.484884 0.693427
vt 0.609585 0.185230
vt 0.599307 0.157933
vt 0.624216 0.167779
vt 0.684151 0.665164
vt 0.667022 0.650982
vt 0.690053 0.642090
vt 0.710248 0.713575
vt 0.696596 0.691748
vt 0.723670 0.695740
vt 0.663206 0.275842
vt 0.500306 0.665012
vt 0.624216 0.201031
vt 0.708331 0.667284
vt 0.730213 0.716588
vt 0.585768 0.275842
vt 0.599098 0.292885
vt 0.569825 0.293969
vt 0.670396 0.150807
vt 0.690196 0.137760
vt 0.693319 0.162372
vt 0.670396 0.207006
vt 0.667807 0.177938
vt 0.693319 0.195405
vt 0.585768 0.367183
vt 0.563085 0.366773
vt 0.569825 0.347658
vt 0.609170 0.319167
vt 0.599098 0.346574
vt 0.583580 0.319435
vt 0.559368 0.321011
vt 0.715708 0.208675
vt 0.713800 0.180523
vt 0.690196 0.224242
vt 0.715708 0.155227
vt 0.462877 0.650215
vt 0.473252 0.668847
vt 0.447454 0.678630
vt 0.460624 0.695344
vt 0.624206 0.336797
vt 0.610450 0.365020
vt 0.717127 0.646082
vt 0.730213 0.671955
vt 0.662753 0.224597
vt 0.648916 0.195979
vt 0.648916 0.162947
vt 0.486863 0.647001
vt 0.466274 0.718401
vt 0.443141 0.709256
vt 0.610450 0.278149
vt 0.624206 0.303616
vt 0.609948 0.226932
vt 0.599307 0.211735
vt 0.506651 0.644008
vt 0.609948 0.139877
vt 0.585310 0.137760
vt 0.690544 0.276306
vt 0.648906 0.337400
vt 0.670235 0.349623
vt 0.690544 0.362846
vt 0.671066 0.681672
vt 0.585310 0.229295
vt 0.561951 0.138687
vt 0.590650 0.610748
vt 0.607920 0.585528
vt 0.622726 0.611751
vt 0.621782 0.555351
vt 0.588757 0.552966
vt 0.555038 0.081397
vt 0.558665 0.048266
vt 0.583655 0.073504
vt 0.577135 0.106378
vt 0.562110 0.611751
vt 0.570458 0.585528
vt 0.610018 0.526503
vt 0.042582 0.623127
vt 0.012728 0.609148
vt 0.040742 0.592794
vt 0.615357 0.063233
vt 0.594120 0.037589
vt 0.629524 0.037589
vt 0.329756 0.616545
vt 0.314531 0.637138
vt 0.299982 0.604484
vt 0.384277 0.586338
vt 0.360343 0.603091
vt 0.360343 0.565686
vt 0.642322 0.542710
vt 0.073019 0.610138
vt 0.640939 0.073504
vt 0.328295 0.583441
vt 0.383883 0.558000
vt 0.041940 0.559623
vt 0.026703 0.538877
vt 0.063965 0.539489
vt 0.096853 0.589131
vt 0.072642 0.572811
vt 0.096242 0.556833
vt 0.622616 0.457048
vt 0.589558 0.459132
vt 0.608875 0.426701
vt 0.329755 0.552908
vt 0.299982 0.567079
vt 0.314531 0.539212
vt 0.216488 0.586315
vt 0.195645 0.612310
vt 0.184608 0.576370
vt 0.160296 0.602352
vt 0.156349 0.569372
vt 0.175126 0.630518
vt 0.623915 0.401327
vt 0.591789 0.401873
vt 0.642035 0.433759
vt 0.571438 0.426701
vt 0.558924 0.457048
vt 0.563340 0.401327
vt 0.178201 0.544199
vt 0.213550 0.554157
vt 0.231409 0.612311
vt 0.207097 0.638293
vt 0.643211 0.470552
vt 0.610778 0.486234
vt 0.573341 0.486234
vt 0.012350 0.571821
vt 0.236068 0.544199
vt 0.242475 0.576370
vt 0.634419 0.106378
vt 0.612590 0.095701
vt 0.096853 0.617229
vt 0.604535 0.012350
vt 0.064954 0.637212
vt 0.641025 0.579189
vt 0.572555 0.526503
vt 0.558047 0.555351
vt 0.383882 0.618522
vt 0.351836 0.636277
vt 0.572843 0.020294
vt 0.027692 0.636600
vt 0.355649 0.661838
vt 0.336325 0.744869
vt 0.331862 0.745138
vt 0.325899 0.663636
vt 0.327975 0.744869
vt 0.299982 0.661838
vt 0.411391 0.769136
vt 0.396238 0.857769
vt 0.391581 0.857769
vt 0.380349 0.769136
vt 0.720923 0.404675
vt 0.690737 0.491116
vt 0.687439 0.490614
vt 0.698936 0.401327
vt 0.682786 0.490614
vt 0.667911 0.401327
vt 0.751177 0.372233
vt 0.747537 0.375173
vt 0.742998 0.374239
vt 0.740978 0.370134
vt 0.742998 0.365950
vt 0.747537 0.364837
vt 0.751177 0.367633
vt 0.613725 0.636451
vt 0.586458 0.721097
vt 0.582569 0.721250
vt 0.587795 0.637470
vt 0.578106 0.721097
vt 0.558047 0.636451
vt 0.012350 0.705882
vt 0.019176 0.675454
vt 0.046588 0.661912
vt 0.073944 0.675454
vt 0.080645 0.705882
vt 0.061645 0.730284
vt 0.031251 0.730284
vt 0.864453 0.973515
vt 0.874146 0.967877
vt 0.873984 0.976916
vt 0.864453 0.962172
vt 0.743797 0.958474
vt 0.746939 0.947692
vt 0.754442 0.955269
vt 0.752484 0.965138
vt 0.557270 0.968018
vt 0.557525 0.959572
vt 0.567098 0.964988
vt 0.873984 0.958562
vt 0.718956 0.960372
vt 0.709095 0.964253
vt 0.709399 0.954518
vt 0.757568 0.947692
vt 0.760995 0.958474
vt 0.567098 0.953702
vt 0.684395 0.952636
vt 0.677635 0.955626
vt 0.675711 0.945967
vt 0.718956 0.949071
vt 0.965008 0.985681
vt 0.955371 0.981951
vt 0.965027 0.976199
vt 0.557270 0.949757
vt 0.681073 0.963426
vt 0.670336 0.963426
vt 0.667022 0.952636
vt 0.709095 0.945967
vt 0.955371 0.970618
vt 0.965008 0.967344
vt 0.032375 0.827583
vt 0.030869 0.754984
vt 0.031973 0.755095
vt 0.051691 0.829523
vt 0.864453 0.865975
vt 0.875152 0.794405
vt 0.876401 0.794405
vt 0.886301 0.865975
vt 0.742930 0.094570
vt 0.742930 0.012739
vt 0.743772 0.012710
vt 0.757659 0.094058
vt 0.744966 0.012350
vt 0.778565 0.087762
vt 0.743797 0.834401
vt 0.776406 0.776782
vt 0.777189 0.777532
vt 0.757507 0.847531
vt 0.778900 0.776123
vt 0.779190 0.777003
vt 0.778428 0.777631
vt 0.776668 0.775945
vt 0.777778 0.775651
vt 0.779190 0.849257
vt 0.012350 0.829523
vt 0.029725 0.755095
vt 0.900639 0.059318
vt 0.884849 0.050016
vt 0.878495 0.029113
vt 0.886361 0.012350
vt 0.902525 0.012350
vt 0.914814 0.029113
vt 0.913975 0.050016
vt 0.921013 0.949808
vt 0.920245 0.909914
vt 0.921073 0.909997
vt 0.930671 0.950778
vt 0.945347 0.247463
vt 0.950568 0.209330
vt 0.951504 0.209330
vt 0.956271 0.247463
vt 0.922972 0.754336
vt 0.922972 0.710150
vt 0.923603 0.710147
vt 0.930341 0.754299
vt 0.924507 0.709904
vt 0.940882 0.751463
vt 0.939514 0.044861
vt 0.955268 0.013219
vt 0.955867 0.013769
vt 0.946502 0.051284
vt 0.957128 0.012686
vt 0.957359 0.013342
vt 0.956797 0.013824
vt 0.955451 0.012587
vt 0.956279 0.012350
vt 0.957359 0.051925
vt 0.911000 0.950778
vt 0.919387 0.909997
vt 0.170803 0.929524
vt 0.174617 0.937856
vt 0.171243 0.948245
vt 0.163222 0.952869
vt 0.156593 0.948245
vt 0.156349 0.937856
vt 0.162673 0.929524
vt 0.317968 0.842339
vt 0.324183 0.769838
vt 0.325377 0.769950
vt 0.338865 0.844302
vt 0.803890 0.866619
vt 0.803890 0.795233
vt 0.805124 0.795149
vt 0.825496 0.865151
vt 0.805939 0.794404
vt 0.839753 0.852119
vt 0.380349 0.736697
vt 0.415260 0.661838
vt 0.416435 0.662210
vt 0.400922 0.743213
vt 0.417375 0.662280
vt 0.417375 0.744436
vt 0.243507 0.796934
vt 0.243742 0.797786
vt 0.242931 0.798469
vt 0.241684 0.798469
vt 0.240940 0.797786
vt 0.241259 0.796934
vt 0.242402 0.796554
vt 0.233332 0.869940
vt 0.255156 0.869940
vt 0.299982 0.844302
vt 0.323155 0.769950
vt 0.034983 0.902694
vt 0.019320 0.895602
vt 0.012350 0.875147
vt 0.019320 0.856732
vt 0.034983 0.854223
vt 0.047543 0.869510
vt 0.047543 0.891081
vt 0.945165 0.133664
vt 0.948334 0.093820
vt 0.949230 0.093905
vt 0.955613 0.134646
vt 0.942610 0.598122
vt 0.942610 0.560140
vt 0.943537 0.560093
vt 0.953425 0.597581
vt 0.944158 0.559546
vt 0.960668 0.591193
vt 0.902031 0.250630
vt 0.919051 0.209330
vt 0.919940 0.209584
vt 0.912406 0.253596
vt 0.920647 0.209617
vt 0.920647 0.253975
vt 0.950395 0.794689
vt 0.950572 0.795328
vt 0.949964 0.795841
vt 0.949028 0.795841
vt 0.948470 0.795328
vt 0.948710 0.794689
vt 0.949567 0.794404
vt 0.945141 0.833917
vt 0.956053 0.833917
vt 0.936172 0.134646
vt 0.947563 0.093904
vt 0.023666 0.951629
vt 0.015835 0.948084
vt 0.012350 0.937856
vt 0.015835 0.928648
vt 0.023666 0.927394
vt 0.029947 0.935037
vt 0.029947 0.945823
vt 0.803890 0.974086
vt 0.813583 0.968447
vt 0.813421 0.977487
vt 0.803890 0.962742
vt 0.484996 0.957692
vt 0.488139 0.946909
vt 0.495641 0.954486
vt 0.493683 0.964356
vt 0.966966 0.660351
vt 0.967221 0.651905
vt 0.976795 0.657320
vt 0.813421 0.959133
vt 0.088821 0.962790
vt 0.078960 0.966671
vt 0.079264 0.956937
vt 0.498768 0.946909
vt 0.502195 0.957692
vt 0.976795 0.646034
vt 0.962263 0.872396
vt 0.955774 0.868855
vt 0.962263 0.861447
vt 0.088821 0.951489
vt 0.617036 0.984049
vt 0.607399 0.980319
vt 0.617055 0.974567
vt 0.966966 0.642090
vt 0.951681 0.876333
vt 0.945141 0.867817
vt 0.951681 0.858617
vt 0.078960 0.948386
vt 0.607399 0.968985
vt 0.617036 0.965711
vt 0.233332 0.977407
vt 0.243026 0.971768
vt 0.242863 0.980808
vt 0.233332 0.966064
vt 0.449694 0.964400
vt 0.443141 0.955278
vt 0.453732 0.954042
vt 0.460296 0.961668
vt 0.380349 0.968618
vt 0.380604 0.960171
vt 0.390177 0.965587
vt 0.242863 0.962454
vt 0.123382 0.962790
vt 0.113521 0.966671
vt 0.113825 0.956937
vt 0.449694 0.946909
vt 0.460296 0.950858
vt 0.390177 0.954301
vt 0.953294 0.173125
vt 0.946805 0.169584
vt 0.953294 0.162175
vt 0.123382 0.951489
vt 0.987631 0.177683
vt 0.977994 0.173953
vt 0.987650 0.168201
vt 0.380349 0.950357
vt 0.942712 0.177062
vt 0.936172 0.168546
vt 0.942712 0.159346
vt 0.113521 0.948386
vt 0.977994 0.162620
vt 0.987631 0.159346
vt 0.443852 0.228097
vt 0.443852 0.138125
vt 0.495739 0.141457
vt 0.492280 0.231206
vt 0.534419 0.137760
vt 0.528381 0.227756
vt 0.668870 0.103156
vt 0.665639 0.012350
vt 0.718230 0.012350
vt 0.717955 0.103156
vt 0.667022 0.617390
vt 0.667022 0.527106
vt 0.719448 0.526503
vt 0.715953 0.616827
vt 0.156349 0.367072
vt 0.156349 0.313120
vt 0.202760 0.286151
vt 0.249171 0.313136
vt 0.249171 0.367089
vt 0.202760 0.394057
vt 0.448875 0.616913
vt 0.443141 0.526503
vt 0.481231 0.529068
vt 0.484426 0.619308
vt 0.533347 0.526503
vt 0.533068 0.616913
vt 0.530338 0.037560
vt 0.530338 0.087915
vt 0.487095 0.113060
vt 0.443852 0.087850
vt 0.443852 0.037495
vt 0.487095 0.012350
vt 0.443141 0.368594
vt 0.465003 0.275842
vt 0.495579 0.280661
vt 0.494100 0.376627
vt 0.519920 0.275842
vt 0.534668 0.368594
vt 0.156349 0.747511
vt 0.156349 0.662993
vt 0.187719 0.663211
vt 0.208632 0.747875
vt 0.740408 0.221435
vt 0.761201 0.138799
vt 0.792390 0.137760
vt 0.792390 0.219702
vt 0.740978 0.325130
vt 0.740978 0.292982
vt 0.767501 0.275842
vt 0.794024 0.290849
vt 0.794024 0.322996
vt 0.767501 0.340137
vt 0.443141 0.494594
vt 0.458079 0.401327
vt 0.481916 0.405652
vt 0.482870 0.501803
vt 0.512728 0.401327
vt 0.534224 0.494594
vt 0.058979 0.413179
vt 0.105609 0.439477
vt 0.105609 0.489976
vt 0.058979 0.514177
vt 0.012350 0.487879
vt 0.012350 0.437380
vt 0.837734 0.609102
vt 0.847893 0.594267
vt 0.856602 0.609692
vt 0.856047 0.576515
vt 0.836620 0.575113
vt 0.803265 0.052966
vt 0.805398 0.033477
vt 0.820098 0.048323
vt 0.816263 0.067660
vt 0.820946 0.609692
vt 0.825856 0.594267
vt 0.849127 0.559546
vt 0.761931 0.609105
vt 0.744370 0.600882
vt 0.760849 0.591262
vt 0.838747 0.042281
vt 0.826254 0.027196
vt 0.847080 0.027196
vt 0.173863 0.818065
vt 0.164907 0.830178
vt 0.156349 0.810970
vt 0.205934 0.800296
vt 0.191855 0.810151
vt 0.191855 0.788148
vt 0.868129 0.569079
vt 0.779836 0.601464
vt 0.853795 0.048323
vt 0.173004 0.798592
vt 0.205702 0.783626
vt 0.761554 0.571750
vt 0.752591 0.559546
vt 0.774509 0.559906
vt 0.793856 0.589107
vt 0.779614 0.579507
vt 0.793496 0.570108
vt 0.193815 0.887655
vt 0.174369 0.888881
vt 0.185732 0.869804
vt 0.173862 0.780631
vt 0.156349 0.788967
vt 0.164907 0.772575
vt 0.114336 0.820248
vt 0.102075 0.835539
vt 0.095583 0.814397
vt 0.081282 0.829681
vt 0.078960 0.810281
vt 0.090005 0.846250
vt 0.194579 0.854878
vt 0.175681 0.855199
vt 0.205238 0.873956
vt 0.163710 0.869804
vt 0.156349 0.887655
vt 0.158947 0.854878
vt 0.091814 0.795473
vt 0.112608 0.801331
vt 0.123113 0.835539
vt 0.108812 0.850823
vt 0.205930 0.895599
vt 0.186851 0.904824
vt 0.164829 0.904824
vt 0.744148 0.578925
vt 0.125854 0.795473
vt 0.129622 0.814398
vt 0.849960 0.067660
vt 0.837119 0.061380
vt 0.793856 0.605636
vt 0.832380 0.012350
vt 0.775091 0.617390
vt 0.867366 0.590538
vt 0.827090 0.559546
vt 0.818556 0.576515
vt 0.205702 0.819228
vt 0.186851 0.829672
vt 0.813738 0.017023
vt 0.753172 0.617030
s 1
usemtl mob_rubah_mat.001
f 1/1/1 2/2/2 4/3/3 3/4/4
f 3/5/4 4/6/3 6/7/5 5/8/6
f 5/9/6 6/10/5 8/11/7 7/12/8
f 7/13/8 8/14/7 10/15/9 9/16/10
f 9/16/10 10/15/9 12/17/11 11/18/12
f 11/19/12 12/20/11 14/21/13 13/22/14
f 4/23/3 2/24/2 16/25/15 14/26/13 12/27/11 10/28/9 8/29/7 6/30/5
f 13/31/14 14/26/13 16/25/15 15/32/16
f 15/33/16 16/34/15 2/2/2 1/1/1
f 1/35/1 3/36/4 5/37/6 7/38/8 9/39/10 11/19/12 13/22/14 15/40/16
f 17/41/1 18/42/2 20/43/3 19/44/4
f 19/45/4 20/46/3 22/47/5 21/48/6
f 21/49/6 22/50/5 24/51/7 23/52/8
f 23/53/8 24/54/7 26/55/9 25/56/10
f 25/56/10 26/55/9 28/57/11 27/58/12
f 27/59/12 28/60/11 30/61/13 29/62/14
f 20/63/3 18/64/2 32/65/15 30/66/13 28/67/11 26/68/9 24/69/7 22/70/5
f 29/71/14 30/66/13 32/65/15 31/72/16
f 31/73/16 32/74/15 18/42/2 17/41/1
f 17/75/1 19/76/4 21/77/6 23/78/8 25/79/10 27/59/12 29/62/14 31/80/16
f 33/81/1 34/82/2 36/83/3 35/84/4
f 35/85/4 36/86/3 38/87/5 37/88/6
f 37/89/6 38/90/5 40/91/7 39/92/8
f 39/93/8 40/94/7 42/95/9 41/96/10
f 41/96/10 42/95/9 44/97/11 43/98/12
f 43/99/12 44/100/11 46/101/13 45/102/14
f 36/103/3 34/104/2 48/105/15 46/106/13 44/107/11 42/108/9 40/109/7 38/110/5
f 45/111/14 46/106/13 48/105/15 47/112/16
f 47/113/16 48/114/15 34/82/2 33/81/1
f 33/115/1 35/116/4 37/117/6 39/118/8 41/119/10 43/99/12 45/102/14 47/120/16
f 49/121/1 50/122/2 52/123/3 51/124/4
f 51/125/4 52/126/3 54/127/5 53/128/6
f 53/129/6 54/130/5 56/131/7 55/132/8
f 55/133/8 56/134/7 58/135/9 57/136/10
f 57/136/10 58/135/9 60/137/11 59/138/12
f 59/139/12 60/140/11 62/141/13 61/142/14
f 52/143/3 50/144/2 64/145/15 62/146/13 60/147/11 58/148/9 56/149/7 54/150/5
f 61/151/14 62/146/13 64/145/15 63/152/16
f 63/153/16 64/154/15 50/122/2 49/121/1
f 49/155/1 51/156/4 53/157/6 55/158/8 57/159/10 59/139/12 61/142/14 63/160/16
f 65/161/1 66/162/2 68/163/3 67/164/4
f 67/165/4 68/166/3 70/167/5 69/168/6
f 69/169/6 70/170/5 72/171/7 71/172/8
f 71/173/8 72/174/7 74/175/9 73/176/10
f 73/176/10 74/175/9 76/177/11 75/178/12
f 75/179/12 76/180/11 78/181/13 77/182/14
f 68/183/3 66/184/2 80/185/15 78/186/13 76/187/11 74/188/9 72/189/7 70/190/5
f 77/191/14 78/186/13 80/185/15 79/192/16
f 79/193/16 80/194/15 66/162/2 65/161/1
f 65/195/1 67/196/4 69/197/6 71/198/8 73/199/10 75/179/12 77/182/14 79/200/16
f 81/201/1 82/202/2 84/203/3 83/204/4
f 83/205/4 84/206/3 86/207/5 85/208/6
f 85/209/6 86/210/5 88/211/7 87/212/8
f 87/213/8 88/214/7 90/215/9 89/216/10
f 89/216/10 90/215/9 92/217/11 91/218/12
f 91/219/12 92/220/11 94/221/13 93/222/14
f 84/223/3 82/224/2 96/225/15 94/226/13 92/227/11 90/228/9 88/229/7 86/230/5
f 93/231/14 94/226/13 96/225/15 95/232/16
f 95/233/16 96/234/15 82/202/2 81/201/1
f 81/235/1 83/236/4 85/237/6 87/238/8 89/239/10 91/219/12 93/222/14 95/240/16
f 97/241/1 98/242/2 100/243/3 99/244/4
f 99/245/4 100/246/3 102/247/5 101/248/6
f 101/249/6 102/250/5 104/251/7 103/252/8
f 103/253/8 104/254/7 106/255/9 105/256/10
f 105/256/10 106/255/9 108/257/11 107/258/12
f 107/259/12 108/260/11 110/261/13 109/262/14
f 100/263/3 98/264/2 112/265/15 110/266/13 108/267/11 106/268/9 104/269/7 102/270/5
f 109/271/14 110/266/13 112/265/15 111/272/16
f 111/273/16 112/274/15 98/242/2 97/241/1
f 97/275/1 99/276/4 101/277/6 103/278/8 105/279/10 107/259/12 109/262/14 111/280/16
f 113/281/1 114/282/2 116/283/3 115/284/4
f 115/285/4 116/286/3 118/287/5 117/288/6
f 117/289/6 118/290/5 120/291/7 119/292/8
f 119/293/8 120/294/7 122/295/9 121/296/10
f 121/296/10 122/295/9 124/297/11 123/298/12
f 123/299/12 124/300/11 126/301/13 125/302/14
f 116/303/3 114/304/2 128/305/15 126/306/13 124/307/11 122/308/9 120/309/7 118/310/5
f 125/311/14 126/306/13 128/305/15 127/312/16
f 127/313/16 128/314/15 114/282/2 113/281/1
f 113/315/1 115/316/4 117/317/6 119/318/8 121/319/10 123/299/12 125/302/14 127/320/16
f 129/321/17 144/322/18 143/323/19
f 130/324/20 146/325/21 152/326/22
f 129/327/17 143/328/19 158/329/23
f 129/327/17 158/329/23 164/330/24
f 129/321/17 164/331/24 153/332/25
f 130/324/20 152/326/22 173/333/26
f 131/334/27 149/335/28 179/336/29
f 132/337/30 161/338/31 185/339/32
f 133/340/33 167/341/34 191/342/35
f 134/343/36 170/344/37 197/345/38
f 130/324/20 173/333/26 180/346/39
f 131/334/27 179/336/29 186/347/40
f 132/337/30 185/339/32 192/348/41
f 133/349/33 191/350/35 198/351/42
f 134/343/36 197/345/38 174/352/43
f 135/353/44 203/354/45 218/355/46
f 136/356/47 206/357/48 224/358/49
f 137/359/50 209/360/51 227/361/52
f 138/362/53 212/363/54 230/364/55
f 139/365/56 215/366/57 219/367/58
f 221/368/59 228/369/60 140/370/61
f 220/371/62 231/372/63 221/368/59
f 219/367/58 232/373/64 220/371/62
f 221/368/59 231/372/63 228/369/60
f 231/372/63 229/374/65 228/369/60
f 220/371/62 232/373/64 231/372/63
f 232/373/64 233/375/66 231/372/63
f 231/372/63 233/375/66 229/374/65
f 233/375/66 230/364/55 229/374/65
f 219/367/58 215/366/57 232/373/64
f 215/366/57 214/376/67 232/373/64
f 232/373/64 214/376/67 233/375/66
f 214/376/67 213/377/68 233/375/66
f 233/375/66 213/377/68 230/364/55
f 213/377/68 138/362/53 230/364/55
f 228/378/60 225/379/69 140/380/61
f 229/374/65 234/381/70 228/369/60
f 230/364/55 235/382/71 229/374/65
f 228/378/60 234/383/70 225/379/69
f 234/383/70 226/384/72 225/379/69
f 229/385/65 235/386/71 234/383/70
f 235/386/71 236/387/73 234/383/70
f 234/383/70 236/387/73 226/384/72
f 236/387/73 227/361/52 226/384/72
f 230/364/55 212/363/54 235/382/71
f 212/388/54 211/389/74 235/386/71
f 235/386/71 211/389/74 236/387/73
f 211/389/74 210/390/75 236/387/73
f 236/387/73 210/390/75 227/361/52
f 210/390/75 137/359/50 227/361/52
f 225/379/69 222/391/76 140/380/61
f 226/384/72 237/392/77 225/379/69
f 227/361/52 238/393/78 226/384/72
f 225/379/69 237/392/77 222/391/76
f 237/392/77 223/394/79 222/391/76
f 226/384/72 238/393/78 237/392/77
f 238/393/78 239/395/80 237/392/77
f 237/392/77 239/395/80 223/394/79
f 239/395/80 224/358/49 223/394/79
f 227/361/52 209/360/51 238/393/78
f 209/360/51 208/396/81 238/393/78
f 238/393/78 208/396/81 239/395/80
f 208/396/81 207/397/82 239/395/80
f 239/395/80 207/397/82 224/358/49
f 207/397/82 136/356/47 224/358/49
f 222/391/76 216/398/83 140/380/61
f 223/394/79 240/399/84 222/391/76
f 224/358/49 241/400/85 223/394/79
f 222/391/76 240/399/84 216/398/83
f 240/401/84 217/402/86 216/403/83
f 223/394/79 241/400/85 240/399/84
f 241/400/85 242/404/87 240/399/84
f 240/399/84 242/404/87 217/405/86
f 242/406/87 218/355/46 217/402/86
f 224/358/49 206/357/48 241/400/85
f 206/357/48 205/407/88 241/400/85
f 241/400/85 205/407/88 242/404/87
f 205/408/88 204/409/89 242/410/87
f 242/410/87 204/409/89 218/411/46
f 204/409/89 135/412/44 218/411/46
f 216/403/83 221/368/59 140/370/61
f 217/402/86 243/413/90 216/403/83
f 218/355/46 244/414/91 217/402/86
f 216/403/83 243/413/90 221/368/59
f 243/413/90 220/371/62 221/368/59
f 217/402/86 244/414/91 243/413/90
f 244/414/91 245/415/92 243/413/90
f 243/413/90 245/415/92 220/371/62
f 245/415/92 219/367/58 220/371/62
f 218/355/46 203/354/45 244/414/91
f 203/354/45 202/416/93 244/414/91
f 244/414/91 202/416/93 245/415/92
f 202/416/93 201/417/94 245/415/92
f 245/415/92 201/417/94 219/367/58
f 201/417/94 139/365/56 219/367/58
f 176/418/95 215/366/57 139/365/56
f 175/419/96 246/420/97 176/418/95
f 174/352/43 247/421/98 175/422/96
f 176/418/95 246/420/97 215/366/57
f 246/420/97 214/376/67 215/366/57
f 175/419/96 247/423/98 246/420/97
f 247/423/98 248/424/99 246/420/97
f 246/420/97 248/424/99 214/376/67
f 248/424/99 213/377/68 214/376/67
f 174/352/43 197/345/38 247/421/98
f 197/425/38 196/426/100 247/427/98
f 247/423/98 196/428/100 248/424/99
f 196/428/100 195/429/101 248/424/99
f 248/424/99 195/429/101 213/377/68
f 195/429/101 138/362/53 213/377/68
f 200/430/102 212/431/54 138/432/53
f 199/433/103 249/434/104 200/430/102
f 198/351/42 250/435/105 199/433/103
f 200/430/102 249/434/104 212/431/54
f 249/436/104 211/389/74 212/388/54
f 199/433/103 250/435/105 249/434/104
f 250/435/105 251/437/106 249/434/104
f 249/436/104 251/438/106 211/389/74
f 251/438/106 210/390/75 211/389/74
f 198/351/42 191/350/35 250/435/105
f 191/350/35 190/439/107 250/435/105
f 250/435/105 190/439/107 251/437/106
f 190/440/107 189/441/108 251/438/106
f 251/438/106 189/441/108 210/390/75
f 189/441/108 137/359/50 210/390/75
f 194/442/109 209/360/51 137/359/50
f 193/443/110 252/444/111 194/442/109
f 192/348/41 253/445/112 193/446/110
f 194/442/109 252/444/111 209/360/51
f 252/444/111 208/396/81 209/360/51
f 193/443/110 253/447/112 252/444/111
f 253/447/112 254/448/113 252/444/111
f 252/444/111 254/448/113 208/396/81
f 254/448/113 207/397/82 208/396/81
f 192/348/41 185/339/32 253/445/112
f 185/339/32 184/449/114 253/445/112
f 253/447/112 184/450/114 254/448/113
f 184/450/114 183/451/115 254/448/113
f 254/448/113 183/451/115 207/397/82
f 183/451/115 136/356/47 207/397/82
f 188/452/116 206/357/48 136/356/47
f 187/453/117 255/454/118 188/455/116
f 186/347/40 256/456/119 187/453/117
f 188/452/116 255/457/118 206/357/48
f 255/454/118 205/408/88 206/458/48
f 187/453/117 256/456/119 255/454/118
f 256/456/119 257/459/120 255/454/118
f 255/454/118 257/459/120 205/408/88
f 257/459/120 204/409/89 205/408/88
f 186/347/40 179/336/29 256/456/119
f 179/336/29 178/460/121 256/456/119
f 256/456/119 178/460/121 257/459/120
f 178/460/121 177/461/122 257/459/120
f 257/459/120 177/461/122 204/409/89
f 177/461/122 135/412/44 204/409/89
f 182/462/123 203/463/45 135/412/44
f 181/464/124 258/465/125 182/466/123
f 180/346/39 259/467/126 181/468/124
f 182/466/123 258/465/125 203/354/45
f 258/465/125 202/416/93 203/354/45
f 181/464/124 259/469/126 258/465/125
f 259/469/126 260/470/127 258/465/125
f 258/465/125 260/470/127 202/416/93
f 260/470/127 201/417/94 202/416/93
f 180/346/39 173/333/26 259/467/126
f 173/333/26 172/471/128 259/467/126
f 259/469/126 172/472/128 260/470/127
f 172/472/128 171/473/129 260/470/127
f 260/470/127 171/473/129 201/417/94
f 171/473/129 139/365/56 201/417/94
f 195/474/101 200/430/102 138/432/53
f 196/426/100 261/475/130 195/474/101
f 197/425/38 262/476/131 196/426/100
f 195/474/101 261/475/130 200/430/102
f 261/475/130 199/433/103 200/430/102
f 196/426/100 262/476/131 261/475/130
f 262/476/131 263/477/132 261/475/130
f 261/475/130 263/477/132 199/433/103
f 263/477/132 198/351/42 199/433/103
f 197/345/38 170/344/37 262/478/131
f 170/479/37 169/480/133 262/476/131
f 262/476/131 169/480/133 263/477/132
f 169/480/133 168/481/134 263/477/132
f 263/477/132 168/481/134 198/351/42
f 168/481/134 133/349/33 198/351/42
f 189/441/108 194/442/109 137/359/50
f 190/440/107 264/482/135 189/441/108
f 191/342/35 265/483/136 190/484/107
f 189/441/108 264/482/135 194/442/109
f 264/482/135 193/443/110 194/442/109
f 190/484/107 265/483/136 264/485/135
f 265/483/136 266/486/137 264/485/135
f 264/485/135 266/486/137 193/446/110
f 266/486/137 192/348/41 193/446/110
f 191/342/35 167/341/34 265/483/136
f 167/341/34 166/487/138 265/483/136
f 265/483/136 166/487/138 266/486/137
f 166/487/138 165/488/139 266/486/137
f 266/486/137 165/488/139 192/348/41
f 165/488/139 132/337/30 192/348/41
f 183/451/115 188/452/116 136/356/47
f 184/450/114 267/489/140 183/451/115
f 185/339/32 268/490/141 184/449/114
f 183/451/115 267/489/140 188/452/116
f 267/489/140 187/491/117 188/452/116
f 184/449/114 268/490/141 267/492/140
f 268/490/141 269/493/142 267/492/140
f 267/492/140 269/493/142 187/494/117
f 269/493/142 186/495/40 187/494/117
f 185/339/32 161/338/31 268/490/141
f 161/338/31 160/496/143 268/490/141
f 268/490/141 160/496/143 269/493/142
f 160/496/143 159/497/144 269/493/142
f 269/493/142 159/497/144 186/495/40
f 159/497/144 131/498/27 186/495/40
f 177/461/122 182/462/123 135/412/44
f 178/460/121 270/499/145 177/461/122
f 179/336/29 271/500/146 178/460/121
f 177/461/122 270/499/145 182/462/123
f 270/499/145 181/501/124 182/462/123
f 178/460/121 271/500/146 270/499/145
f 271/500/146 272/502/147 270/499/145
f 270/499/145 272/502/147 181/501/124
f 272/503/147 180/346/39 181/468/124
f 179/336/29 149/335/28 271/500/146
f 149/504/28 148/505/148 271/506/146
f 271/506/146 148/505/148 272/503/147
f 148/505/148 147/507/149 272/503/147
f 272/503/147 147/507/149 180/346/39
f 147/507/149 130/324/20 180/346/39
f 171/473/129 176/418/95 139/365/56
f 172/472/128 273/508/150 171/473/129
f 173/333/26 274/509/151 172/471/128
f 171/473/129 273/508/150 176/418/95
f 273/508/150 175/419/96 176/418/95
f 172/471/128 274/509/151 273/510/150
f 274/509/151 275/511/152 273/510/150
f 273/510/150 275/511/152 175/422/96
f 275/511/152 174/352/43 175/422/96
f 173/333/26 152/326/22 274/509/151
f 152/326/22 151/512/153 274/509/151
f 274/509/151 151/512/153 275/511/152
f 151/512/153 150/513/154 275/511/152
f 275/511/152 150/513/154 174/352/43
f 150/513/154 134/343/36 174/352/43
f 155/514/155 170/344/37 134/343/36
f 154/515/156 276/516/157 155/514/155
f 153/332/25 277/517/158 154/515/156
f 155/514/155 276/516/157 170/344/37
f 276/516/157 169/518/133 170/344/37
f 154/515/156 277/517/158 276/516/157
f 277/517/158 278/519/159 276/516/157
f 276/516/157 278/519/159 169/518/133
f 278/520/159 168/481/134 169/480/133
f 153/332/25 164/331/24 277/517/158
f 164/330/24 163/521/160 277/522/158
f 277/522/158 163/521/160 278/523/159
f 163/521/160 162/524/161 278/523/159
f 278/520/159 162/525/161 168/481/134
f 162/525/161 133/349/33 168/481/134
f 162/524/161 167/341/34 133/340/33
f 163/521/160 279/526/162 162/524/161
f 164/330/24 280/527/163 163/521/160
f 162/524/161 279/526/162 167/341/34
f 279/526/162 166/487/138 167/341/34
f 163/521/160 280/527/163 279/526/162
f 280/527/163 281/528/164 279/526/162
f 279/526/162 281/528/164 166/487/138
f 281/528/164 165/488/139 166/487/138
f 164/330/24 158/329/23 280/527/163
f 158/329/23 157/529/165 280/527/163
f 280/527/163 157/529/165 281/528/164
f 157/529/165 156/530/166 281/528/164
f 281/528/164 156/530/166 165/488/139
f 156/530/166 132/337/30 165/488/139
f 156/530/166 161/338/31 132/337/30
f 157/529/165 282/531/167 156/530/166
f 158/329/23 283/532/168 157/529/165
f 156/530/166 282/531/167 161/338/31
f 282/531/167 160/496/143 161/338/31
f 157/529/165 283/532/168 282/531/167
f 283/532/168 284/533/169 282/531/167
f 282/531/167 284/533/169 160/496/143
f 284/533/169 159/497/144 160/496/143
f 158/329/23 143/328/19 283/532/168
f 143/328/19 142/534/170 283/532/168
f 283/532/168 142/534/170 284/533/169
f 142/534/170 141/535/171 284/533/169
f 284/533/169 141/535/171 159/497/144
f 141/535/171 131/498/27 159/497/144
f 150/513/154 155/514/155 134/343/36
f 151/512/153 285/536/172 150/513/154
f 152/326/22 286/537/173 151/512/153
f 150/513/154 285/536/172 155/514/155
f 285/536/172 154/515/156 155/514/155
f 151/512/153 286/537/173 285/536/172
f 286/537/173 287/538/174 285/536/172
f 285/536/172 287/538/174 154/515/156
f 287/538/174 153/332/25 154/515/156
f 152/326/22 146/325/21 286/537/173
f 146/325/21 145/539/175 286/537/173
f 286/537/173 145/539/175 287/538/174
f 145/539/175 144/322/18 287/538/174
f 287/538/174 144/322/18 153/332/25
f 144/322/18 129/321/17 153/332/25
f 141/535/171 149/540/28 131/498/27
f 142/534/170 288/541/176 141/535/171
f 143/328/19 289/542/177 142/534/170
f 141/535/171 288/541/176 149/540/28
f 288/543/176 148/505/148 149/504/28
f 142/544/170 289/545/177 288/543/176
f 289/545/177 290/546/178 288/543/176
f 288/543/176 290/546/178 148/505/148
f 290/546/178 147/507/149 148/505/148
f 143/323/19 144/322/18 289/545/177
f 144/322/18 145/539/175 289/545/177
f 289/545/177 145/539/175 290/546/178
f 145/539/175 146/325/21 290/546/178
f 290/546/178 146/325/21 147/507/149
f 146/325/21 130/324/20 147/507/149
f 291/547/179 304/548/180 303/549/181
f 292/550/182 304/548/180 306/551/183
f 291/552/179 303/553/181 308/554/184
f 291/552/179 308/554/184 310/555/185
f 291/547/179 310/556/185 307/557/186
f 292/550/182 306/551/183 313/558/187
f 293/559/188 305/560/189 315/561/121
f 294/562/190 309/563/191 317/564/192
f 295/565/193 311/566/194 319/567/195
f 296/568/196 312/569/197 321/570/198
f 292/550/182 313/558/187 316/571/199
f 293/559/188 315/561/121 318/572/200
f 294/562/190 317/564/192 320/573/201
f 295/565/193 319/567/195 322/574/103
f 296/568/196 321/570/198 314/575/202
f 297/576/203 323/577/204 328/578/205
f 298/579/206 324/580/207 330/581/208
f 299/582/209 325/583/210 331/584/211
f 300/585/212 326/586/213 332/587/214
f 301/588/215 327/589/216 329/590/217
f 329/590/217 332/587/214 302/591/218
f 329/590/217 327/589/216 332/587/214
f 327/589/216 300/585/212 332/587/214
f 332/592/214 331/584/211 302/593/218
f 332/592/214 326/594/213 331/584/211
f 326/594/213 299/582/209 331/584/211
f 331/584/211 330/581/208 302/593/218
f 331/584/211 325/583/210 330/581/208
f 325/583/210 298/579/206 330/581/208
f 330/581/208 328/595/205 302/593/218
f 330/596/208 324/597/207 328/598/205
f 324/597/207 297/599/203 328/598/205
f 328/578/205 329/590/217 302/591/218
f 328/578/205 323/577/204 329/590/217
f 323/577/204 301/588/215 329/590/217
f 314/600/202 327/589/216 301/588/215
f 314/600/202 321/601/198 327/589/216
f 321/601/198 300/585/212 327/589/216
f 322/574/103 326/602/213 300/603/212
f 322/574/103 319/567/195 326/602/213
f 319/604/195 299/582/209 326/594/213
f 320/605/201 325/583/210 299/582/209
f 320/605/201 317/606/192 325/583/210
f 317/606/192 298/579/206 325/583/210
f 318/572/200 324/597/207 298/607/206
f 318/572/200 315/561/121 324/597/207
f 315/561/121 297/599/203 324/597/207
f 316/608/199 323/609/204 297/599/203
f 316/610/199 313/611/187 323/577/204
f 313/611/187 301/588/215 323/577/204
f 321/570/198 322/574/103 300/603/212
f 321/570/198 312/569/197 322/574/103
f 312/569/197 295/565/193 322/574/103
f 319/604/195 320/605/201 299/582/209
f 319/612/195 311/613/194 320/573/201
f 311/613/194 294/562/190 320/573/201
f 317/614/192 318/572/200 298/607/206
f 317/564/192 309/563/191 318/615/200
f 309/563/191 293/616/188 318/615/200
f 315/561/121 316/608/199 297/599/203
f 315/561/121 305/560/189 316/608/199
f 305/617/189 292/550/182 316/571/199
f 313/611/187 314/600/202 301/588/215
f 313/558/187 306/551/183 314/618/202
f 306/551/183 296/619/196 314/618/202
f 307/557/186 312/620/197 296/619/196
f 307/557/186 310/556/185 312/620/197
f 310/621/185 295/565/193 312/569/197
f 310/555/185 311/613/194 295/622/193
f 310/555/185 308/554/184 311/613/194
f 308/554/184 294/562/190 311/613/194
f 308/554/184 309/563/191 294/562/190
f 308/554/184 303/553/181 309/563/191
f 303/553/181 293/616/188 309/563/191
f 306/551/183 307/557/186 296/619/196
f 306/551/183 304/548/180 307/557/186
f 304/548/180 291/547/179 307/557/186
f 303/553/181 305/623/189 293/616/188
f 303/549/181 304/548/180 305/617/189
f 304/548/180 292/550/182 305/617/189
f 333/624/179 346/625/219 345/626/220
f 334/627/221 346/625/219 348/628/222
f 333/629/179 345/630/220 350/631/223
f 333/629/179 350/631/223 352/632/224
f 333/624/179 352/633/224 349/634/225
f 334/627/221 348/628/222 355/635/187
f 335/636/226 347/637/227 357/638/121
f 336/639/228 351/640/229 359/641/192
f 337/642/230 353/643/231 361/644/195
f 338/645/232 354/646/233 363/647/198
f 334/627/221 355/635/187 358/648/199
f 335/636/226 357/638/121 360/649/200
f 336/639/228 359/641/192 362/650/201
f 337/642/230 361/644/195 364/651/103
f 338/645/232 363/647/198 356/652/202
f 339/653/234 365/654/235 370/655/236
f 340/656/237 366/657/238 372/658/239
f 341/659/240 367/660/241 373/661/242
f 342/662/243 368/663/244 374/664/245
f 343/665/246 369/666/247 371/667/248
f 371/667/248 374/668/245 344/669/218
f 371/667/248 369/666/247 374/668/245
f 369/666/247 342/670/243 374/668/245
f 374/671/245 373/661/242 344/672/218
f 374/671/245 368/673/244 373/661/242
f 368/673/244 341/659/240 373/661/242
f 373/661/242 372/674/239 344/672/218
f 373/661/242 367/660/241 372/674/239
f 367/660/241 340/675/237 372/674/239
f 372/674/239 370/676/236 344/672/218
f 372/658/239 366/657/238 370/655/236
f 366/657/238 339/653/234 370/655/236
f 370/677/236 371/667/248 344/669/218
f 370/677/236 365/678/235 371/667/248
f 365/678/235 343/665/246 371/667/248
f 356/679/202 369/666/247 343/665/246
f 356/679/202 363/680/198 369/666/247
f 363/680/198 342/670/243 369/666/247
f 364/651/103 368/663/244 342/662/243
f 364/651/103 361/644/195 368/663/244
f 361/681/195 341/659/240 368/673/244
f 362/682/201 367/660/241 341/659/240
f 362/682/201 359/683/192 367/660/241
f 359/683/192 340/675/237 367/660/241
f 360/649/200 366/657/238 340/656/237
f 360/649/200 357/638/121 366/657/238
f 357/638/121 339/653/234 366/657/238
f 358/684/199 365/654/235 339/653/234
f 358/685/199 355/686/187 365/678/235
f 355/686/187 343/665/246 365/678/235
f 363/647/198 364/651/103 342/662/243
f 363/647/198 354/646/233 364/651/103
f 354/646/233 337/642/230 364/651/103
f 361/681/195 362/682/201 341/659/240
f 361/687/195 353/688/231 362/650/201
f 353/688/231 336/639/228 362/650/201
f 359/689/192 360/649/200 340/656/237
f 359/641/192 351/640/229 360/690/200
f 351/691/229 335/636/226 360/649/200
f 357/638/121 358/684/199 339/653/234
f 357/638/121 347/637/227 358/684/199
f 347/692/227 334/627/221 358/648/199
f 355/686/187 356/679/202 343/665/246
f 355/635/187 348/628/222 356/693/202
f 348/628/222 338/694/232 356/693/202
f 349/695/225 354/646/233 338/645/232
f 349/695/225 352/696/224 354/646/233
f 352/696/224 337/642/230 354/646/233
f 352/696/224 353/643/231 337/642/230
f 352/632/224 350/631/223 353/688/231
f 350/631/223 336/639/228 353/688/231
f 350/631/223 351/640/229 336/639/228
f 350/631/223 345/630/220 351/640/229
f 345/630/220 335/697/226 351/640/229
f 348/628/222 349/634/225 338/694/232
f 348/628/222 346/625/219 349/634/225
f 346/625/219 333/624/179 349/634/225
f 345/698/220 347/637/227 335/636/226
f 345/626/220 346/625/219 347/692/227
f 346/625/219 334/627/221 347/692/227
f 375/699/249 376/700/250 378/701/251 377/702/252
f 377/702/252 378/701/251 380/703/253 379/704/254
f 379/705/254 380/706/253 382/707/255 381/708/256
f 381/709/256 382/710/255 384/711/257 383/712/258
f 383/712/258 384/711/257 386/713/259 385/714/260
f 378/715/251 376/716/250 388/717/261 386/718/259 384/719/257 382/720/255 380/721/253
f 385/722/260 386/723/259 388/724/261 387/725/262
f 387/725/262 388/724/261 376/726/250 375/727/249
f 375/728/249 377/729/252 379/730/254 381/731/256 383/732/258 385/733/260 387/734/262
f 389/735/179 390/736/221 391/737/263
f 390/736/221 389/735/179 394/738/232
f 389/739/179 391/740/263 392/741/228
f 389/739/179 392/741/228 393/742/264
f 389/743/179 393/744/264 394/745/232
f 390/736/221 394/738/232 399/746/246
f 391/747/263 390/748/221 395/749/265
f 392/741/228 391/740/263 396/750/237
f 393/742/264 392/741/228 397/751/240
f 394/745/232 393/744/264 398/752/266
f 390/753/221 399/754/246 395/755/265
f 391/747/263 395/749/265 396/756/237
f 392/757/228 396/758/237 397/759/240
f 393/744/264 397/760/240 398/752/266
f 394/761/232 398/762/266 399/754/246
f 395/755/265 399/754/246 400/763/218
f 396/756/237 395/749/265 400/764/218
f 397/759/240 396/758/237 400/765/218
f 398/766/266 397/759/240 400/765/218
f 399/754/246 398/762/266 400/763/218
f 401/767/267 402/768/268 404/769/269 403/770/270
f 403/771/270 404/772/269 406/773/271 405/774/272
f 405/775/272 406/776/271 408/777/273 407/778/274
f 407/778/274 408/777/273 410/779/275 409/780/276
f 409/781/276 410/782/275 412/783/277 411/784/278
f 404/785/269 402/786/268 414/787/279 412/783/277 410/782/275 408/788/273 406/789/271
f 411/784/278 412/783/277 414/787/279 413/790/280
f 413/791/280 414/792/279 402/768/268 401/767/267
f 401/793/267 403/794/270 405/795/272 407/796/274 409/797/276 411/798/278 413/799/280
f 415/800/281 416/801/282 418/802/283 417/803/284
f 417/804/284 418/805/283 420/806/285 419/807/286
f 419/808/286 420/809/285 422/810/287 421/811/288
f 421/811/288 422/810/287 424/812/289 423/813/290
f 423/814/290 424/815/289 426/816/291 425/817/292
f 418/818/283 416/819/282 428/820/293 426/816/291 424/815/289 422/821/287 420/822/285
f 425/817/292 426/816/291 428/820/293 427/823/294
f 427/824/294 428/825/293 416/801/282 415/800/281
f 415/826/281 417/827/284 419/828/286 421/829/288 423/830/290 425/831/292 427/832/294
f 429/833/295 430/834/296 432/835/297 431/836/298
f 431/837/298 432/838/297 434/839/299 433/840/300
f 433/840/300 434/839/299 436/841/301 435/842/302
f 435/843/302 436/844/301 438/845/303 437/846/304
f 437/846/304 438/845/303 440/847/305 439/848/306
f 432/849/297 430/850/296 442/851/307 440/852/305 438/853/303 436/854/301 434/855/299
f 439/856/306 440/852/305 442/851/307 441/857/308
f 441/858/308 442/859/307 430/834/296 429/833/295
f 429/860/295 431/861/298 433/862/300 435/863/302 437/864/304 439/865/306 441/866/308
f 443/867/309 444/868/310 446/869/311 445/870/312
f 445/871/312 446/872/311 448/873/313 447/874/314
f 447/874/314 448/873/313 450/875/315 449/876/316
f 449/877/316 450/878/315 452/879/317 451/880/318
f 451/880/318 452/879/317 454/881/319 453/882/320
f 446/883/311 444/884/310 456/885/321 454/886/319 452/887/317 450/888/315 448/889/313
f 453/890/320 454/886/319 456/885/321 455/891/322
f 455/892/322 456/893/321 444/868/310 443/867/309
f 443/894/309 445/895/312 447/896/314 449/897/316 451/898/318 453/899/320 455/900/322
f 457/901/179 458/902/221 459/903/263
f 458/902/221 457/901/179 462/904/232
f 457/905/179 459/906/263 460/907/228
f 457/905/179 460/907/228 461/908/264
f 457/909/179 461/910/264 462/911/232
f 458/902/221 462/904/232 467/912/246
f 459/913/263 458/914/221 463/915/265
f 460/907/228 459/906/263 464/916/237
f 461/908/264 460/907/228 465/917/240
f 462/911/232 461/910/264 466/918/266
f 458/919/221 467/920/246 463/921/265
f 459/913/263 463/915/265 464/922/237
f 460/923/228 464/924/237 465/925/240
f 461/910/264 465/926/240 466/918/266
f 462/927/232 466/928/266 467/920/246
f 463/921/265 467/920/246 468/929/218
f 464/922/237 463/915/265 468/930/218
f 465/925/240 464/924/237 468/931/218
f 466/932/266 465/925/240 468/931/218
f 467/920/246 466/928/266 468/929/218
f 469/933/179 470/934/221 471/935/263
f 470/934/221 469/933/179 474/936/232
f 469/937/179 471/938/263 472/939/228
f 469/937/179 472/939/228 473/940/264
f 469/941/179 473/942/264 474/943/232
f 470/934/221 474/936/232 479/944/246
f 471/945/263 470/946/221 475/947/265
f 472/939/228 471/938/263 476/948/237
f 473/940/264 472/939/228 477/949/240
f 474/943/232 473/942/264 478/950/266
f 470/951/221 479/952/246 475/953/265
f 471/945/263 475/947/265 476/954/237
f 472/955/228 476/956/237 477/957/240
f 473/942/264 477/958/240 478/950/266
f 474/959/232 478/960/266 479/952/246
f 475/953/265 479/952/246 480/961/218
f 476/954/237 475/947/265 480/962/218
f 477/957/240 476/956/237 480/963/218
f 478/964/266 477/957/240 480/963/218
f 479/952/246 478/960/266 480/961/218
f 481/965/323 482/966/324 484/967/325 483/968/326
f 483/968/326 484/967/325 486/969/327 485/970/328
f 485/971/328 486/972/327 488/973/329 487/974/330
f 487/975/330 488/976/329 490/977/331 489/978/332
f 484/979/325 482/980/324 492/981/333 490/982/331 488/983/329 486/984/327
f 489/985/332 490/986/331 492/987/333 491/988/334
f 491/988/334 492/987/333 482/989/324 481/990/323
f 481/991/323 483/992/326 485/993/328 487/994/330 489/995/332 491/996/334
f 493/997/335 494/998/336 496/999/337 495/1000/338
f 495/1000/338 496/999/337 498/1001/339 497/1002/340
f 497/1003/340 498/1004/339 500/1005/341 499/1006/342
f 499/1007/342 500/1008/341 502/1009/343 501/1010/344
f 496/1011/337 494/1012/336 504/1013/345 502/1014/343 500/1015/341 498/1016/339
f 501/1017/344 502/1018/343 504/1019/345 503/1020/346
f 503/1020/346 504/1019/345 494/1021/336 493/1022/335
f 493/1023/335 495/1024/338 497/1025/340 499/1026/342 501/1027/344 503/1028/346
f 505/1029/179 518/1030/219 517/1031/347
f 506/1032/221 518/1030/219 520/1033/222
f 505/1034/179 517/1035/347 522/1036/223
f 505/1034/179 522/1036/223 524/1037/348
f 505/1029/179 524/1038/348 521/1039/225
f 506/1032/221 520/1033/222 527/1040/187
f 507/1041/263 519/1042/227 529/1043/121
f 508/1044/228 523/1045/229 531/1046/192
f 509/1047/264 525/1048/231 533/1049/195
f 510/1050/232 526/1051/233 535/1052/198
f 506/1032/221 527/1040/187 530/1053/199
f 507/1041/263 529/1043/121 532/1054/200
f 508/1044/228 531/1046/192 534/1055/201
f 509/1047/264 533/1049/195 536/1056/103
f 510/1050/232 535/1052/198 528/1057/202
f 511/1058/265 537/1059/235 542/1060/236
f 512/1061/237 538/1062/238 544/1063/239
f 513/1064/240 539/1065/241 545/1066/242
f 514/1067/266 540/1068/244 546/1069/245
f 515/1070/246 541/1071/247 543/1072/248
f 543/1072/248 546/1073/245 516/1074/218
f 543/1072/248 541/1071/247 546/1073/245
f 541/1071/247 514/1075/266 546/1073/245
f 546/1076/245 545/1066/242 516/1077/218
f 546/1076/245 540/1078/244 545/1066/242
f 540/1078/244 513/1064/240 545/1066/242
f 545/1066/242 544/1079/239 516/1077/218
f 545/1066/242 539/1065/241 544/1079/239
f 539/1065/241 512/1080/237 544/1079/239
f 544/1079/239 542/1081/236 516/1077/218
f 544/1063/239 538/1062/238 542/1060/236
f 538/1062/238 511/1058/265 542/1060/236
f 542/1082/236 543/1072/248 516/1074/218
f 542/1082/236 537/1083/235 543/1072/248
f 537/1083/235 515/1070/246 543/1072/248
f 528/1084/202 541/1071/247 515/1070/246
f 528/1084/202 535/1085/198 541/1071/247
f 535/1085/198 514/1075/266 541/1071/247
f 536/1056/103 540/1068/244 514/1067/266
f 536/1056/103 533/1049/195 540/1068/244
f 533/1086/195 513/1064/240 540/1078/244
f 534/1087/201 539/1065/241 513/1064/240
f 534/1087/201 531/1088/192 539/1065/241
f 531/1088/192 512/1080/237 539/1065/241
f 532/1054/200 538/1062/238 512/1061/237
f 532/1054/200 529/1043/121 538/1062/238
f 529/1043/121 511/1058/265 538/1062/238
f 530/1089/199 537/1059/235 511/1058/265
f 530/1090/199 527/1091/187 537/1083/235
f 527/1091/187 515/1070/246 537/1083/235
f 535/1052/198 536/1056/103 514/1067/266
f 535/1052/198 526/1051/233 536/1056/103
f 526/1051/233 509/1047/264 536/1056/103
f 533/1086/195 534/1087/201 513/1064/240
f 533/1092/195 525/1093/231 534/1055/201
f 525/1093/231 508/1044/228 534/1055/201
f 531/1094/192 532/1054/200 512/1061/237
f 531/1046/192 523/1045/229 532/1095/200
f 523/1096/229 507/1041/263 532/1054/200
f 529/1043/121 530/1089/199 511/1058/265
f 529/1043/121 519/1042/227 530/1089/199
f 519/1097/227 506/1032/221 530/1053/199
f 527/1091/187 528/1084/202 515/1070/246
f 527/1040/187 520/1033/222 528/1098/202
f 520/1033/222 510/1099/232 528/1098/202
f 521/1100/225 526/1051/233 510/1050/232
f 521/1100/225 524/1101/348 526/1051/233
f 524/1101/348 509/1047/264 526/1051/233
f 524/1101/348 525/1048/231 509/1047/264
f 524/1037/348 522/1036/223 525/1093/231
f 522/1036/223 508/1044/228 525/1093/231
f 522/1036/223 523/1045/229 508/1044/228
f 522/1036/223 517/1035/347 523/1045/229
f 517/1035/347 507/1102/263 523/1045/229
f 520/1033/222 521/1039/225 510/1099/232
f 520/1033/222 518/1030/219 521/1039/225
f 518/1030/219 505/1029/179 521/1039/225
f 517/1103/347 519/1042/227 507/1041/263
f 517/1031/347 518/1030/219 519/1097/227
f 518/1030/219 506/1032/221 519/1097/227
