# Procedural Low-Poly Mesh
v -0.5000 0.3500 -0.8000
v -0.5000 1.2500 -0.8000
v 0.5000 1.2500 -0.8000
v 0.5000 0.3500 -0.8000
v 0.5000 0.3500 0.8000
v 0.5000 1.2500 0.8000
v -0.5000 1.2500 0.8000
v -0.5000 0.3500 0.8000
v -0.5000 0.3500 0.8000
v -0.5000 1.2500 0.8000
v -0.5000 1.2500 -0.8000
v -0.5000 0.3500 -0.8000
v 0.5000 0.3500 -0.8000
v 0.5000 1.2500 -0.8000
v 0.5000 1.2500 0.8000
v 0.5000 0.3500 0.8000
v -0.5000 1.2500 -0.8000
v -0.5000 1.2500 0.8000
v 0.5000 1.2500 0.8000
v 0.5000 1.2500 -0.8000
v -0.5000 0.3500 0.8000
v -0.5000 0.3500 -0.8000
v 0.5000 0.3500 -0.8000
v 0.5000 0.3500 0.8000
v -0.3000 1.0500 0.5000
v -0.3000 1.6500 0.5000
v 0.3000 1.6500 0.5000
v 0.3000 1.0500 0.5000
v 0.3000 1.0500 1.1000
v 0.3000 1.6500 1.1000
v -0.3000 1.6500 1.1000
v -0.3000 1.0500 1.1000
v -0.3000 1.0500 1.1000
v -0.3000 1.6500 1.1000
v -0.3000 1.6500 0.5000
v -0.3000 1.0500 0.5000
v 0.3000 1.0500 0.5000
v 0.3000 1.6500 0.5000
v 0.3000 1.6500 1.1000
v 0.3000 1.0500 1.1000
v -0.3000 1.6500 0.5000
v -0.3000 1.6500 1.1000
v 0.3000 1.6500 1.1000
v 0.3000 1.6500 0.5000
v -0.3000 1.0500 1.1000
v -0.3000 1.0500 0.5000
v 0.3000 1.0500 0.5000
v 0.3000 1.0500 1.1000
v -0.2250 1.0000 0.9450
v -0.2250 1.3000 0.9450
v 0.2250 1.3000 0.9450
v 0.2250 1.0000 0.9450
v 0.2250 1.0000 1.2950
v 0.2250 1.3000 1.2950
v -0.2250 1.3000 1.2950
v -0.2250 1.0000 1.2950
v -0.2250 1.0000 1.2950
v -0.2250 1.3000 1.2950
v -0.2250 1.3000 0.9450
v -0.2250 1.0000 0.9450
v 0.2250 1.0000 0.9450
v 0.2250 1.3000 0.9450
v 0.2250 1.3000 1.2950
v 0.2250 1.0000 1.2950
v -0.2250 1.3000 0.9450
v -0.2250 1.3000 1.2950
v 0.2250 1.3000 1.2950
v 0.2250 1.3000 0.9450
v -0.2250 1.0000 1.2950
v -0.2250 1.0000 0.9450
v 0.2250 1.0000 0.9450
v 0.2250 1.0000 1.2950
v -0.2281 1.5684 0.8000
v -0.1754 1.5971 0.8000
v -0.1825 1.5933 0.8300
v -0.2018 1.5827 0.8520
v -0.2281 1.5684 0.8600
v -0.2544 1.5540 0.8520
v -0.2737 1.5435 0.8300
v -0.2807 1.5396 0.8000
v -0.2737 1.5435 0.7700
v -0.2544 1.5540 0.7480
v -0.2281 1.5684 0.7400
v -0.2018 1.5827 0.7480
v -0.1825 1.5933 0.7700
v -0.1754 1.5971 0.8000
v -0.3719 1.8316 0.8000
v -0.1825 1.5933 0.8300
v -0.3719 1.8316 0.8000
v -0.2018 1.5827 0.8520
v -0.3719 1.8316 0.8000
v -0.2281 1.5684 0.8600
v -0.3719 1.8316 0.8000
v -0.2544 1.5540 0.8520
v -0.3719 1.8316 0.8000
v -0.2737 1.5435 0.8300
v -0.3719 1.8316 0.8000
v -0.2807 1.5396 0.8000
v -0.3719 1.8316 0.8000
v -0.2737 1.5435 0.7700
v -0.3719 1.8316 0.8000
v -0.2544 1.5540 0.7480
v -0.3719 1.8316 0.8000
v -0.2281 1.5684 0.7400
v -0.3719 1.8316 0.8000
v -0.2018 1.5827 0.7480
v -0.3719 1.8316 0.8000
v -0.1825 1.5933 0.7700
v -0.3719 1.8316 0.8000
v -0.1754 1.5971 0.8000
v -0.3719 1.8316 0.8000
v 0.2281 1.5684 0.8000
v 0.2807 1.5396 0.8000
v 0.2737 1.5435 0.8300
v 0.2544 1.5540 0.8520
v 0.2281 1.5684 0.8600
v 0.2018 1.5827 0.8520
v 0.1825 1.5933 0.8300
v 0.1754 1.5971 0.8000
v 0.1825 1.5933 0.7700
v 0.2018 1.5827 0.7480
v 0.2281 1.5684 0.7400
v 0.2544 1.5540 0.7480
v 0.2737 1.5435 0.7700
v 0.2807 1.5396 0.8000
v 0.3719 1.8316 0.8000
v 0.2737 1.5435 0.8300
v 0.3719 1.8316 0.8000
v 0.2544 1.5540 0.8520
v 0.3719 1.8316 0.8000
v 0.2281 1.5684 0.8600
v 0.3719 1.8316 0.8000
v 0.2018 1.5827 0.8520
v 0.3719 1.8316 0.8000
v 0.1825 1.5933 0.8300
v 0.3719 1.8316 0.8000
v 0.1754 1.5971 0.8000
v 0.3719 1.8316 0.8000
v 0.1825 1.5933 0.7700
v 0.3719 1.8316 0.8000
v 0.2018 1.5827 0.7480
v 0.3719 1.8316 0.8000
v 0.2281 1.5684 0.7400
v 0.3719 1.8316 0.8000
v 0.2544 1.5540 0.7480
v 0.3719 1.8316 0.8000
v 0.2737 1.5435 0.7700
v 0.3719 1.8316 0.8000
v 0.2807 1.5396 0.8000
v 0.3719 1.8316 0.8000
v -0.5342 1.4392 0.6400
v -0.5046 1.5347 0.6400
v -0.2658 1.4608 0.6400
v -0.2954 1.3653 0.6400
v -0.2954 1.3653 0.7600
v -0.2658 1.4608 0.7600
v -0.5046 1.5347 0.7600
v -0.5342 1.4392 0.7600
v -0.5342 1.4392 0.7600
v -0.5046 1.5347 0.7600
v -0.5046 1.5347 0.6400
v -0.5342 1.4392 0.6400
v -0.2954 1.3653 0.6400
v -0.2658 1.4608 0.6400
v -0.2658 1.4608 0.7600
v -0.2954 1.3653 0.7600
v -0.5046 1.5347 0.6400
v -0.5046 1.5347 0.7600
v -0.2658 1.4608 0.7600
v -0.2658 1.4608 0.6400
v -0.5342 1.4392 0.7600
v -0.5342 1.4392 0.6400
v -0.2954 1.3653 0.6400
v -0.2954 1.3653 0.7600
v 0.2954 1.3653 0.6400
v 0.2658 1.4608 0.6400
v 0.5046 1.5347 0.6400
v 0.5342 1.4392 0.6400
v 0.5342 1.4392 0.7600
v 0.5046 1.5347 0.7600
v 0.2658 1.4608 0.7600
v 0.2954 1.3653 0.7600
v 0.2954 1.3653 0.7600
v 0.2658 1.4608 0.7600
v 0.2658 1.4608 0.6400
v 0.2954 1.3653 0.6400
v 0.5342 1.4392 0.6400
v 0.5046 1.5347 0.6400
v 0.5046 1.5347 0.7600
v 0.5342 1.4392 0.7600
v 0.2658 1.4608 0.6400
v 0.2658 1.4608 0.7600
v 0.5046 1.5347 0.7600
v 0.5046 1.5347 0.6400
v 0.2954 1.3653 0.7600
v 0.2954 1.3653 0.6400
v 0.5342 1.4392 0.6400
v 0.5342 1.4392 0.7600
v -0.3500 0.7000 0.5500
v -0.2600 0.7000 0.5500
v -0.2721 0.7000 0.5950
v -0.3050 0.7000 0.6279
v -0.3500 0.7000 0.6400
v -0.3950 0.7000 0.6279
v -0.4279 0.7000 0.5950
v -0.4400 0.7000 0.5500
v -0.4279 0.7000 0.5050
v -0.3950 0.7000 0.4721
v -0.3500 0.7000 0.4600
v -0.3050 0.7000 0.4721
v -0.2721 0.7000 0.5050
v -0.3500 0.0000 0.5500
v -0.2600 0.0000 0.5500
v -0.2721 0.0000 0.5950
v -0.3050 0.0000 0.6279
v -0.3500 0.0000 0.6400
v -0.3950 0.0000 0.6279
v -0.4279 0.0000 0.5950
v -0.4400 0.0000 0.5500
v -0.4279 0.0000 0.5050
v -0.3950 0.0000 0.4721
v -0.3500 0.0000 0.4600
v -0.3050 0.0000 0.4721
v -0.2721 0.0000 0.5050
v -0.2600 0.7000 0.5500
v -0.2600 0.0000 0.5500
v -0.2721 0.7000 0.5950
v -0.2721 0.0000 0.5950
v -0.3050 0.7000 0.6279
v -0.3050 0.0000 0.6279
v -0.3500 0.7000 0.6400
v -0.3500 0.0000 0.6400
v -0.3950 0.7000 0.6279
v -0.3950 0.0000 0.6279
v -0.4279 0.7000 0.5950
v -0.4279 0.0000 0.5950
v -0.4400 0.7000 0.5500
v -0.4400 0.0000 0.5500
v -0.4279 0.7000 0.5050
v -0.4279 0.0000 0.5050
v -0.3950 0.7000 0.4721
v -0.3950 0.0000 0.4721
v -0.3500 0.7000 0.4600
v -0.3500 0.0000 0.4600
v -0.3050 0.7000 0.4721
v -0.3050 0.0000 0.4721
v -0.2721 0.7000 0.5050
v -0.2721 0.0000 0.5050
v -0.2600 0.7000 0.5500
v -0.2600 0.0000 0.5500
v 0.3500 0.7000 0.5500
v 0.4400 0.7000 0.5500
v 0.4279 0.7000 0.5950
v 0.3950 0.7000 0.6279
v 0.3500 0.7000 0.6400
v 0.3050 0.7000 0.6279
v 0.2721 0.7000 0.5950
v 0.2600 0.7000 0.5500
v 0.2721 0.7000 0.5050
v 0.3050 0.7000 0.4721
v 0.3500 0.7000 0.4600
v 0.3950 0.7000 0.4721
v 0.4279 0.7000 0.5050
v 0.3500 0.0000 0.5500
v 0.4400 0.0000 0.5500
v 0.4279 0.0000 0.5950
v 0.3950 0.0000 0.6279
v 0.3500 0.0000 0.6400
v 0.3050 0.0000 0.6279
v 0.2721 0.0000 0.5950
v 0.2600 0.0000 0.5500
v 0.2721 0.0000 0.5050
v 0.3050 0.0000 0.4721
v 0.3500 0.0000 0.4600
v 0.3950 0.0000 0.4721
v 0.4279 0.0000 0.5050
v 0.4400 0.7000 0.5500
v 0.4400 0.0000 0.5500
v 0.4279 0.7000 0.5950
v 0.4279 0.0000 0.5950
v 0.3950 0.7000 0.6279
v 0.3950 0.0000 0.6279
v 0.3500 0.7000 0.6400
v 0.3500 0.0000 0.6400
v 0.3050 0.7000 0.6279
v 0.3050 0.0000 0.6279
v 0.2721 0.7000 0.5950
v 0.2721 0.0000 0.5950
v 0.2600 0.7000 0.5500
v 0.2600 0.0000 0.5500
v 0.2721 0.7000 0.5050
v 0.2721 0.0000 0.5050
v 0.3050 0.7000 0.4721
v 0.3050 0.0000 0.4721
v 0.3500 0.7000 0.4600
v 0.3500 0.0000 0.4600
v 0.3950 0.7000 0.4721
v 0.3950 0.0000 0.4721
v 0.4279 0.7000 0.5050
v 0.4279 0.0000 0.5050
v 0.4400 0.7000 0.5500
v 0.4400 0.0000 0.5500
v -0.3500 0.7000 -0.5500
v -0.2600 0.7000 -0.5500
v -0.2721 0.7000 -0.5050
v -0.3050 0.7000 -0.4721
v -0.3500 0.7000 -0.4600
v -0.3950 0.7000 -0.4721
v -0.4279 0.7000 -0.5050
v -0.4400 0.7000 -0.5500
v -0.4279 0.7000 -0.5950
v -0.3950 0.7000 -0.6279
v -0.3500 0.7000 -0.6400
v -0.3050 0.7000 -0.6279
v -0.2721 0.7000 -0.5950
v -0.3500 0.0000 -0.5500
v -0.2600 0.0000 -0.5500
v -0.2721 0.0000 -0.5050
v -0.3050 0.0000 -0.4721
v -0.3500 0.0000 -0.4600
v -0.3950 0.0000 -0.4721
v -0.4279 0.0000 -0.5050
v -0.4400 0.0000 -0.5500
v -0.4279 0.0000 -0.5950
v -0.3950 0.0000 -0.6279
v -0.3500 0.0000 -0.6400
v -0.3050 0.0000 -0.6279
v -0.2721 0.0000 -0.5950
v -0.2600 0.7000 -0.5500
v -0.2600 0.0000 -0.5500
v -0.2721 0.7000 -0.5050
v -0.2721 0.0000 -0.5050
v -0.3050 0.7000 -0.4721
v -0.3050 0.0000 -0.4721
v -0.3500 0.7000 -0.4600
v -0.3500 0.0000 -0.4600
v -0.3950 0.7000 -0.4721
v -0.3950 0.0000 -0.4721
v -0.4279 0.7000 -0.5050
v -0.4279 0.0000 -0.5050
v -0.4400 0.7000 -0.5500
v -0.4400 0.0000 -0.5500
v -0.4279 0.7000 -0.5950
v -0.4279 0.0000 -0.5950
v -0.3950 0.7000 -0.6279
v -0.3950 0.0000 -0.6279
v -0.3500 0.7000 -0.6400
v -0.3500 0.0000 -0.6400
v -0.3050 0.7000 -0.6279
v -0.3050 0.0000 -0.6279
v -0.2721 0.7000 -0.5950
v -0.2721 0.0000 -0.5950
v -0.2600 0.7000 -0.5500
v -0.2600 0.0000 -0.5500
v 0.3500 0.7000 -0.5500
v 0.4400 0.7000 -0.5500
v 0.4279 0.7000 -0.5050
v 0.3950 0.7000 -0.4721
v 0.3500 0.7000 -0.4600
v 0.3050 0.7000 -0.4721
v 0.2721 0.7000 -0.5050
v 0.2600 0.7000 -0.5500
v 0.2721 0.7000 -0.5950
v 0.3050 0.7000 -0.6279
v 0.3500 0.7000 -0.6400
v 0.3950 0.7000 -0.6279
v 0.4279 0.7000 -0.5950
v 0.3500 0.0000 -0.5500
v 0.4400 0.0000 -0.5500
v 0.4279 0.0000 -0.5050
v 0.3950 0.0000 -0.4721
v 0.3500 0.0000 -0.4600
v 0.3050 0.0000 -0.4721
v 0.2721 0.0000 -0.5050
v 0.2600 0.0000 -0.5500
v 0.2721 0.0000 -0.5950
v 0.3050 0.0000 -0.6279
v 0.3500 0.0000 -0.6400
v 0.3950 0.0000 -0.6279
v 0.4279 0.0000 -0.5950
v 0.4400 0.7000 -0.5500
v 0.4400 0.0000 -0.5500
v 0.4279 0.7000 -0.5050
v 0.4279 0.0000 -0.5050
v 0.3950 0.7000 -0.4721
v 0.3950 0.0000 -0.4721
v 0.3500 0.7000 -0.4600
v 0.3500 0.0000 -0.4600
v 0.3050 0.7000 -0.4721
v 0.3050 0.0000 -0.4721
v 0.2721 0.7000 -0.5050
v 0.2721 0.0000 -0.5050
v 0.2600 0.7000 -0.5500
v 0.2600 0.0000 -0.5500
v 0.2721 0.7000 -0.5950
v 0.2721 0.0000 -0.5950
v 0.3050 0.7000 -0.6279
v 0.3050 0.0000 -0.6279
v 0.3500 0.7000 -0.6400
v 0.3500 0.0000 -0.6400
v 0.3950 0.7000 -0.6279
v 0.3950 0.0000 -0.6279
v 0.4279 0.7000 -0.5950
v 0.4279 0.0000 -0.5950
v 0.4400 0.7000 -0.5500
v 0.4400 0.0000 -0.5500
vt 0.0000 0.0000
vt 0.0000 1.0000
vt 1.0000 1.0000
vt 1.0000 0.0000
vt 0.0000 0.0000
vt 0.0000 1.0000
vt 1.0000 1.0000
vt 1.0000 0.0000
vt 0.0000 0.0000
vt 0.0000 1.0000
vt 1.0000 1.0000
vt 1.0000 0.0000
vt 0.0000 0.0000
vt 0.0000 1.0000
vt 1.0000 1.0000
vt 1.0000 0.0000
vt 0.0000 0.0000
vt 0.0000 1.0000
vt 1.0000 1.0000
vt 1.0000 0.0000
vt 0.0000 0.0000
vt 0.0000 1.0000
vt 1.0000 1.0000
vt 1.0000 0.0000
vt 0.0000 0.0000
vt 0.0000 1.0000
vt 1.0000 1.0000
vt 1.0000 0.0000
vt 0.0000 0.0000
vt 0.0000 1.0000
vt 1.0000 1.0000
vt 1.0000 0.0000
vt 0.0000 0.0000
vt 0.0000 1.0000
vt 1.0000 1.0000
vt 1.0000 0.0000
vt 0.0000 0.0000
vt 0.0000 1.0000
vt 1.0000 1.0000
vt 1.0000 0.0000
vt 0.0000 0.0000
vt 0.0000 1.0000
vt 1.0000 1.0000
vt 1.0000 0.0000
vt 0.0000 0.0000
vt 0.0000 1.0000
vt 1.0000 1.0000
vt 1.0000 0.0000
vt 0.0000 0.0000
vt 0.0000 1.0000
vt 1.0000 1.0000
vt 1.0000 0.0000
vt 0.0000 0.0000
vt 0.0000 1.0000
vt 1.0000 1.0000
vt 1.0000 0.0000
vt 0.0000 0.0000
vt 0.0000 1.0000
vt 1.0000 1.0000
vt 1.0000 0.0000
vt 0.0000 0.0000
vt 0.0000 1.0000
vt 1.0000 1.0000
vt 1.0000 0.0000
vt 0.0000 0.0000
vt 0.0000 1.0000
vt 1.0000 1.0000
vt 1.0000 0.0000
vt 0.0000 0.0000
vt 0.0000 1.0000
vt 1.0000 1.0000
vt 1.0000 0.0000
vt 0.5000 0.5000
vt 1.0000 0.5000
vt 0.9330 0.7500
vt 0.7500 0.9330
vt 0.5000 1.0000
vt 0.2500 0.9330
vt 0.0670 0.7500
vt 0.0000 0.5000
vt 0.0670 0.2500
vt 0.2500 0.0670
vt 0.5000 0.0000
vt 0.7500 0.0670
vt 0.9330 0.2500
vt 0.0000 0.0000
vt 0.0000 1.0000
vt 0.0833 0.0000
vt 0.0833 1.0000
vt 0.1667 0.0000
vt 0.1667 1.0000
vt 0.2500 0.0000
vt 0.2500 1.0000
vt 0.3333 0.0000
vt 0.3333 1.0000
vt 0.4167 0.0000
vt 0.4167 1.0000
vt 0.5000 0.0000
vt 0.5000 1.0000
vt 0.5833 0.0000
vt 0.5833 1.0000
vt 0.6667 0.0000
vt 0.6667 1.0000
vt 0.7500 0.0000
vt 0.7500 1.0000
vt 0.8333 0.0000
vt 0.8333 1.0000
vt 0.9167 0.0000
vt 0.9167 1.0000
vt 1.0000 0.0000
vt 1.0000 1.0000
vt 0.5000 0.5000
vt 1.0000 0.5000
vt 0.9330 0.7500
vt 0.7500 0.9330
vt 0.5000 1.0000
vt 0.2500 0.9330
vt 0.0670 0.7500
vt 0.0000 0.5000
vt 0.0670 0.2500
vt 0.2500 0.0670
vt 0.5000 0.0000
vt 0.7500 0.0670
vt 0.9330 0.2500
vt 0.0000 0.0000
vt 0.0000 1.0000
vt 0.0833 0.0000
vt 0.0833 1.0000
vt 0.1667 0.0000
vt 0.1667 1.0000
vt 0.2500 0.0000
vt 0.2500 1.0000
vt 0.3333 0.0000
vt 0.3333 1.0000
vt 0.4167 0.0000
vt 0.4167 1.0000
vt 0.5000 0.0000
vt 0.5000 1.0000
vt 0.5833 0.0000
vt 0.5833 1.0000
vt 0.6667 0.0000
vt 0.6667 1.0000
vt 0.7500 0.0000
vt 0.7500 1.0000
vt 0.8333 0.0000
vt 0.8333 1.0000
vt 0.9167 0.0000
vt 0.9167 1.0000
vt 1.0000 0.0000
vt 1.0000 1.0000
vt 0.0000 0.0000
vt 0.0000 1.0000
vt 1.0000 1.0000
vt 1.0000 0.0000
vt 0.0000 0.0000
vt 0.0000 1.0000
vt 1.0000 1.0000
vt 1.0000 0.0000
vt 0.0000 0.0000
vt 0.0000 1.0000
vt 1.0000 1.0000
vt 1.0000 0.0000
vt 0.0000 0.0000
vt 0.0000 1.0000
vt 1.0000 1.0000
vt 1.0000 0.0000
vt 0.0000 0.0000
vt 0.0000 1.0000
vt 1.0000 1.0000
vt 1.0000 0.0000
vt 0.0000 0.0000
vt 0.0000 1.0000
vt 1.0000 1.0000
vt 1.0000 0.0000
vt 0.0000 0.0000
vt 0.0000 1.0000
vt 1.0000 1.0000
vt 1.0000 0.0000
vt 0.0000 0.0000
vt 0.0000 1.0000
vt 1.0000 1.0000
vt 1.0000 0.0000
vt 0.0000 0.0000
vt 0.0000 1.0000
vt 1.0000 1.0000
vt 1.0000 0.0000
vt 0.0000 0.0000
vt 0.0000 1.0000
vt 1.0000 1.0000
vt 1.0000 0.0000
vt 0.0000 0.0000
vt 0.0000 1.0000
vt 1.0000 1.0000
vt 1.0000 0.0000
vt 0.0000 0.0000
vt 0.0000 1.0000
vt 1.0000 1.0000
vt 1.0000 0.0000
vt 0.5000 0.5000
vt 1.0000 0.5000
vt 0.9330 0.7500
vt 0.7500 0.9330
vt 0.5000 1.0000
vt 0.2500 0.9330
vt 0.0670 0.7500
vt 0.0000 0.5000
vt 0.0670 0.2500
vt 0.2500 0.0670
vt 0.5000 0.0000
vt 0.7500 0.0670
vt 0.9330 0.2500
vt 0.5000 0.5000
vt 1.0000 0.5000
vt 0.9330 0.7500
vt 0.7500 0.9330
vt 0.5000 1.0000
vt 0.2500 0.9330
vt 0.0670 0.7500
vt 0.0000 0.5000
vt 0.0670 0.2500
vt 0.2500 0.0670
vt 0.5000 0.0000
vt 0.7500 0.0670
vt 0.9330 0.2500
vt 0.0000 1.0000
vt 0.0000 0.0000
vt 0.0833 1.0000
vt 0.0833 0.0000
vt 0.1667 1.0000
vt 0.1667 0.0000
vt 0.2500 1.0000
vt 0.2500 0.0000
vt 0.3333 1.0000
vt 0.3333 0.0000
vt 0.4167 1.0000
vt 0.4167 0.0000
vt 0.5000 1.0000
vt 0.5000 0.0000
vt 0.5833 1.0000
vt 0.5833 0.0000
vt 0.6667 1.0000
vt 0.6667 0.0000
vt 0.7500 1.0000
vt 0.7500 0.0000
vt 0.8333 1.0000
vt 0.8333 0.0000
vt 0.9167 1.0000
vt 0.9167 0.0000
vt 1.0000 1.0000
vt 1.0000 0.0000
vt 0.5000 0.5000
vt 1.0000 0.5000
vt 0.9330 0.7500
vt 0.7500 0.9330
vt 0.5000 1.0000
vt 0.2500 0.9330
vt 0.0670 0.7500
vt 0.0000 0.5000
vt 0.0670 0.2500
vt 0.2500 0.0670
vt 0.5000 0.0000
vt 0.7500 0.0670
vt 0.9330 0.2500
vt 0.5000 0.5000
vt 1.0000 0.5000
vt 0.9330 0.7500
vt 0.7500 0.9330
vt 0.5000 1.0000
vt 0.2500 0.9330
vt 0.0670 0.7500
vt 0.0000 0.5000
vt 0.0670 0.2500
vt 0.2500 0.0670
vt 0.5000 0.0000
vt 0.7500 0.0670
vt 0.9330 0.2500
vt 0.0000 1.0000
vt 0.0000 0.0000
vt 0.0833 1.0000
vt 0.0833 0.0000
vt 0.1667 1.0000
vt 0.1667 0.0000
vt 0.2500 1.0000
vt 0.2500 0.0000
vt 0.3333 1.0000
vt 0.3333 0.0000
vt 0.4167 1.0000
vt 0.4167 0.0000
vt 0.5000 1.0000
vt 0.5000 0.0000
vt 0.5833 1.0000
vt 0.5833 0.0000
vt 0.6667 1.0000
vt 0.6667 0.0000
vt 0.7500 1.0000
vt 0.7500 0.0000
vt 0.8333 1.0000
vt 0.8333 0.0000
vt 0.9167 1.0000
vt 0.9167 0.0000
vt 1.0000 1.0000
vt 1.0000 0.0000
vt 0.5000 0.5000
vt 1.0000 0.5000
vt 0.9330 0.7500
vt 0.7500 0.9330
vt 0.5000 1.0000
vt 0.2500 0.9330
vt 0.0670 0.7500
vt 0.0000 0.5000
vt 0.0670 0.2500
vt 0.2500 0.0670
vt 0.5000 0.0000
vt 0.7500 0.0670
vt 0.9330 0.2500
vt 0.5000 0.5000
vt 1.0000 0.5000
vt 0.9330 0.7500
vt 0.7500 0.9330
vt 0.5000 1.0000
vt 0.2500 0.9330
vt 0.0670 0.7500
vt 0.0000 0.5000
vt 0.0670 0.2500
vt 0.2500 0.0670
vt 0.5000 0.0000
vt 0.7500 0.0670
vt 0.9330 0.2500
vt 0.0000 1.0000
vt 0.0000 0.0000
vt 0.0833 1.0000
vt 0.0833 0.0000
vt 0.1667 1.0000
vt 0.1667 0.0000
vt 0.2500 1.0000
vt 0.2500 0.0000
vt 0.3333 1.0000
vt 0.3333 0.0000
vt 0.4167 1.0000
vt 0.4167 0.0000
vt 0.5000 1.0000
vt 0.5000 0.0000
vt 0.5833 1.0000
vt 0.5833 0.0000
vt 0.6667 1.0000
vt 0.6667 0.0000
vt 0.7500 1.0000
vt 0.7500 0.0000
vt 0.8333 1.0000
vt 0.8333 0.0000
vt 0.9167 1.0000
vt 0.9167 0.0000
vt 1.0000 1.0000
vt 1.0000 0.0000
vt 0.5000 0.5000
vt 1.0000 0.5000
vt 0.9330 0.7500
vt 0.7500 0.9330
vt 0.5000 1.0000
vt 0.2500 0.9330
vt 0.0670 0.7500
vt 0.0000 0.5000
vt 0.0670 0.2500
vt 0.2500 0.0670
vt 0.5000 0.0000
vt 0.7500 0.0670
vt 0.9330 0.2500
vt 0.5000 0.5000
vt 1.0000 0.5000
vt 0.9330 0.7500
vt 0.7500 0.9330
vt 0.5000 1.0000
vt 0.2500 0.9330
vt 0.0670 0.7500
vt 0.0000 0.5000
vt 0.0670 0.2500
vt 0.2500 0.0670
vt 0.5000 0.0000
vt 0.7500 0.0670
vt 0.9330 0.2500
vt 0.0000 1.0000
vt 0.0000 0.0000
vt 0.0833 1.0000
vt 0.0833 0.0000
vt 0.1667 1.0000
vt 0.1667 0.0000
vt 0.2500 1.0000
vt 0.2500 0.0000
vt 0.3333 1.0000
vt 0.3333 0.0000
vt 0.4167 1.0000
vt 0.4167 0.0000
vt 0.5000 1.0000
vt 0.5000 0.0000
vt 0.5833 1.0000
vt 0.5833 0.0000
vt 0.6667 1.0000
vt 0.6667 0.0000
vt 0.7500 1.0000
vt 0.7500 0.0000
vt 0.8333 1.0000
vt 0.8333 0.0000
vt 0.9167 1.0000
vt 0.9167 0.0000
vt 1.0000 1.0000
vt 1.0000 0.0000
vn 0.0000 0.0000 -1.0000
vn 0.0000 0.0000 -1.0000
vn 0.0000 0.0000 -1.0000
vn 0.0000 0.0000 -1.0000
vn 0.0000 0.0000 1.0000
vn 0.0000 0.0000 1.0000
vn 0.0000 0.0000 1.0000
vn 0.0000 0.0000 1.0000
vn -1.0000 0.0000 0.0000
vn -1.0000 0.0000 0.0000
vn -1.0000 0.0000 0.0000
vn -1.0000 0.0000 0.0000
vn 1.0000 0.0000 0.0000
vn 1.0000 0.0000 0.0000
vn 1.0000 0.0000 0.0000
vn 1.0000 0.0000 0.0000
vn 0.0000 1.0000 0.0000
vn 0.0000 1.0000 0.0000
vn 0.0000 1.0000 0.0000
vn 0.0000 1.0000 0.0000
vn 0.0000 -1.0000 0.0000
vn 0.0000 -1.0000 0.0000
vn 0.0000 -1.0000 0.0000
vn 0.0000 -1.0000 0.0000
vn 0.0000 0.0000 -1.0000
vn 0.0000 0.0000 -1.0000
vn 0.0000 0.0000 -1.0000
vn 0.0000 0.0000 -1.0000
vn 0.0000 0.0000 1.0000
vn 0.0000 0.0000 1.0000
vn 0.0000 0.0000 1.0000
vn 0.0000 0.0000 1.0000
vn -1.0000 0.0000 0.0000
vn -1.0000 0.0000 0.0000
vn -1.0000 0.0000 0.0000
vn -1.0000 0.0000 0.0000
vn 1.0000 0.0000 0.0000
vn 1.0000 0.0000 0.0000
vn 1.0000 0.0000 0.0000
vn 1.0000 0.0000 0.0000
vn 0.0000 1.0000 0.0000
vn 0.0000 1.0000 0.0000
vn 0.0000 1.0000 0.0000
vn 0.0000 1.0000 0.0000
vn 0.0000 -1.0000 0.0000
vn 0.0000 -1.0000 0.0000
vn 0.0000 -1.0000 0.0000
vn 0.0000 -1.0000 0.0000
vn 0.0000 0.0000 -1.0000
vn 0.0000 0.0000 -1.0000
vn 0.0000 0.0000 -1.0000
vn 0.0000 0.0000 -1.0000
vn 0.0000 0.0000 1.0000
vn 0.0000 0.0000 1.0000
vn 0.0000 0.0000 1.0000
vn 0.0000 0.0000 1.0000
vn -1.0000 0.0000 0.0000
vn -1.0000 0.0000 0.0000
vn -1.0000 0.0000 0.0000
vn -1.0000 0.0000 0.0000
vn 1.0000 0.0000 0.0000
vn 1.0000 0.0000 0.0000
vn 1.0000 0.0000 0.0000
vn 1.0000 0.0000 0.0000
vn 0.0000 1.0000 0.0000
vn 0.0000 1.0000 0.0000
vn 0.0000 1.0000 0.0000
vn 0.0000 1.0000 0.0000
vn 0.0000 -1.0000 0.0000
vn 0.0000 -1.0000 0.0000
vn 0.0000 -1.0000 0.0000
vn 0.0000 -1.0000 0.0000
vn 0.4794 -0.8776 0.0000
vn 0.4794 -0.8776 0.0000
vn 0.4794 -0.8776 0.0000
vn 0.4794 -0.8776 0.0000
vn 0.4794 -0.8776 0.0000
vn 0.4794 -0.8776 0.0000
vn 0.4794 -0.8776 0.0000
vn 0.4794 -0.8776 0.0000
vn 0.4794 -0.8776 0.0000
vn 0.4794 -0.8776 0.0000
vn 0.4794 -0.8776 0.0000
vn 0.4794 -0.8776 0.0000
vn 0.4794 -0.8776 0.0000
vn 0.5705 0.8213 0.0000
vn 0.5705 0.8213 0.0000
vn 0.4654 0.7638 0.4472
vn 0.4654 0.7638 0.4472
vn 0.1781 0.6069 0.7746
vn 0.1781 0.6069 0.7746
vn -0.2144 0.3925 0.8944
vn -0.2144 0.3925 0.8944
vn -0.6069 0.1781 0.7746
vn -0.6069 0.1781 0.7746
vn -0.8942 0.0211 0.4472
vn -0.8942 0.0211 0.4472
vn -0.9993 -0.0363 0.0000
vn -0.9993 -0.0363 0.0000
vn -0.8942 0.0211 -0.4472
vn -0.8942 0.0211 -0.4472
vn -0.6069 0.1781 -0.7746
vn -0.6069 0.1781 -0.7746
vn -0.2144 0.3925 -0.8944
vn -0.2144 0.3925 -0.8944
vn 0.1781 0.6069 -0.7746
vn 0.1781 0.6069 -0.7746
vn 0.4654 0.7638 -0.4472
vn 0.4654 0.7638 -0.4472
vn 0.5705 0.8213 -0.0000
vn 0.5705 0.8213 -0.0000
vn -0.4794 -0.8776 0.0000
vn -0.4794 -0.8776 0.0000
vn -0.4794 -0.8776 0.0000
vn -0.4794 -0.8776 0.0000
vn -0.4794 -0.8776 0.0000
vn -0.4794 -0.8776 0.0000
vn -0.4794 -0.8776 0.0000
vn -0.4794 -0.8776 0.0000
vn -0.4794 -0.8776 0.0000
vn -0.4794 -0.8776 0.0000
vn -0.4794 -0.8776 0.0000
vn -0.4794 -0.8776 0.0000
vn -0.4794 -0.8776 0.0000
vn 0.9993 -0.0363 0.0000
vn 0.9993 -0.0363 0.0000
vn 0.8942 0.0211 0.4472
vn 0.8942 0.0211 0.4472
vn 0.6069 0.1781 0.7746
vn 0.6069 0.1781 0.7746
vn 0.2144 0.3925 0.8944
vn 0.2144 0.3925 0.8944
vn -0.1781 0.6069 0.7746
vn -0.1781 0.6069 0.7746
vn -0.4654 0.7638 0.4472
vn -0.4654 0.7638 0.4472
vn -0.5705 0.8213 0.0000
vn -0.5705 0.8213 0.0000
vn -0.4654 0.7638 -0.4472
vn -0.4654 0.7638 -0.4472
vn -0.1781 0.6069 -0.7746
vn -0.1781 0.6069 -0.7746
vn 0.2144 0.3925 -0.8944
vn 0.2144 0.3925 -0.8944
vn 0.6069 0.1781 -0.7746
vn 0.6069 0.1781 -0.7746
vn 0.8942 0.0211 -0.4472
vn 0.8942 0.0211 -0.4472
vn 0.9993 -0.0363 -0.0000
vn 0.9993 -0.0363 -0.0000
vn 0.0000 0.0000 -1.0000
vn 0.0000 0.0000 -1.0000
vn 0.0000 0.0000 -1.0000
vn 0.0000 0.0000 -1.0000
vn 0.0000 0.0000 1.0000
vn 0.0000 0.0000 1.0000
vn 0.0000 0.0000 1.0000
vn 0.0000 0.0000 1.0000
vn -0.9553 0.2955 0.0000
vn -0.9553 0.2955 0.0000
vn -0.9553 0.2955 0.0000
vn -0.9553 0.2955 0.0000
vn 0.9553 -0.2955 0.0000
vn 0.9553 -0.2955 0.0000
vn 0.9553 -0.2955 0.0000
vn 0.9553 -0.2955 0.0000
vn 0.2955 0.9553 0.0000
vn 0.2955 0.9553 0.0000
vn 0.2955 0.9553 0.0000
vn 0.2955 0.9553 0.0000
vn -0.2955 -0.9553 0.0000
vn -0.2955 -0.9553 0.0000
vn -0.2955 -0.9553 0.0000
vn -0.2955 -0.9553 0.0000
vn 0.0000 0.0000 -1.0000
vn 0.0000 0.0000 -1.0000
vn 0.0000 0.0000 -1.0000
vn 0.0000 0.0000 -1.0000
vn 0.0000 0.0000 1.0000
vn 0.0000 0.0000 1.0000
vn 0.0000 0.0000 1.0000
vn 0.0000 0.0000 1.0000
vn -0.9553 -0.2955 0.0000
vn -0.9553 -0.2955 0.0000
vn -0.9553 -0.2955 0.0000
vn -0.9553 -0.2955 0.0000
vn 0.9553 0.2955 0.0000
vn 0.9553 0.2955 0.0000
vn 0.9553 0.2955 0.0000
vn 0.9553 0.2955 0.0000
vn -0.2955 0.9553 0.0000
vn -0.2955 0.9553 0.0000
vn -0.2955 0.9553 0.0000
vn -0.2955 0.9553 0.0000
vn 0.2955 -0.9553 0.0000
vn 0.2955 -0.9553 0.0000
vn 0.2955 -0.9553 0.0000
vn 0.2955 -0.9553 0.0000
vn 0.0000 1.0000 0.0000
vn 0.0000 1.0000 0.0000
vn 0.0000 1.0000 0.0000
vn 0.0000 1.0000 0.0000
vn 0.0000 1.0000 0.0000
vn 0.0000 1.0000 0.0000
vn 0.0000 1.0000 0.0000
vn 0.0000 1.0000 0.0000
vn 0.0000 1.0000 0.0000
vn 0.0000 1.0000 0.0000
vn 0.0000 1.0000 0.0000
vn 0.0000 1.0000 0.0000
vn 0.0000 1.0000 0.0000
vn 0.0000 -1.0000 0.0000
vn 0.0000 -1.0000 0.0000
vn 0.0000 -1.0000 0.0000
vn 0.0000 -1.0000 0.0000
vn 0.0000 -1.0000 0.0000
vn 0.0000 -1.0000 0.0000
vn 0.0000 -1.0000 0.0000
vn 0.0000 -1.0000 0.0000
vn 0.0000 -1.0000 0.0000
vn 0.0000 -1.0000 0.0000
vn 0.0000 -1.0000 0.0000
vn 0.0000 -1.0000 0.0000
vn 0.0000 -1.0000 0.0000
vn 1.0000 0.0000 0.0000
vn 1.0000 0.0000 0.0000
vn 0.8660 0.0000 0.5000
vn 0.8660 0.0000 0.5000
vn 0.5000 0.0000 0.8660
vn 0.5000 0.0000 0.8660
vn 0.0000 0.0000 1.0000
vn 0.0000 0.0000 1.0000
vn -0.5000 0.0000 0.8660
vn -0.5000 0.0000 0.8660
vn -0.8660 0.0000 0.5000
vn -0.8660 0.0000 0.5000
vn -1.0000 0.0000 0.0000
vn -1.0000 0.0000 0.0000
vn -0.8660 0.0000 -0.5000
vn -0.8660 0.0000 -0.5000
vn -0.5000 0.0000 -0.8660
vn -0.5000 0.0000 -0.8660
vn -0.0000 0.0000 -1.0000
vn -0.0000 0.0000 -1.0000
vn 0.5000 0.0000 -0.8660
vn 0.5000 0.0000 -0.8660
vn 0.8660 0.0000 -0.5000
vn 0.8660 0.0000 -0.5000
vn 1.0000 0.0000 -0.0000
vn 1.0000 0.0000 -0.0000
vn 0.0000 1.0000 0.0000
vn 0.0000 1.0000 0.0000
vn 0.0000 1.0000 0.0000
vn 0.0000 1.0000 0.0000
vn 0.0000 1.0000 0.0000
vn 0.0000 1.0000 0.0000
vn 0.0000 1.0000 0.0000
vn 0.0000 1.0000 0.0000
vn 0.0000 1.0000 0.0000
vn 0.0000 1.0000 0.0000
vn 0.0000 1.0000 0.0000
vn 0.0000 1.0000 0.0000
vn 0.0000 1.0000 0.0000
vn 0.0000 -1.0000 0.0000
vn 0.0000 -1.0000 0.0000
vn 0.0000 -1.0000 0.0000
vn 0.0000 -1.0000 0.0000
vn 0.0000 -1.0000 0.0000
vn 0.0000 -1.0000 0.0000
vn 0.0000 -1.0000 0.0000
vn 0.0000 -1.0000 0.0000
vn 0.0000 -1.0000 0.0000
vn 0.0000 -1.0000 0.0000
vn 0.0000 -1.0000 0.0000
vn 0.0000 -1.0000 0.0000
vn 0.0000 -1.0000 0.0000
vn 1.0000 0.0000 0.0000
vn 1.0000 0.0000 0.0000
vn 0.8660 0.0000 0.5000
vn 0.8660 0.0000 0.5000
vn 0.5000 0.0000 0.8660
vn 0.5000 0.0000 0.8660
vn 0.0000 0.0000 1.0000
vn 0.0000 0.0000 1.0000
vn -0.5000 0.0000 0.8660
vn -0.5000 0.0000 0.8660
vn -0.8660 0.0000 0.5000
vn -0.8660 0.0000 0.5000
vn -1.0000 0.0000 0.0000
vn -1.0000 0.0000 0.0000
vn -0.8660 0.0000 -0.5000
vn -0.8660 0.0000 -0.5000
vn -0.5000 0.0000 -0.8660
vn -0.5000 0.0000 -0.8660
vn -0.0000 0.0000 -1.0000
vn -0.0000 0.0000 -1.0000
vn 0.5000 0.0000 -0.8660
vn 0.5000 0.0000 -0.8660
vn 0.8660 0.0000 -0.5000
vn 0.8660 0.0000 -0.5000
vn 1.0000 0.0000 -0.0000
vn 1.0000 0.0000 -0.0000
vn 0.0000 1.0000 0.0000
vn 0.0000 1.0000 0.0000
vn 0.0000 1.0000 0.0000
vn 0.0000 1.0000 0.0000
vn 0.0000 1.0000 0.0000
vn 0.0000 1.0000 0.0000
vn 0.0000 1.0000 0.0000
vn 0.0000 1.0000 0.0000
vn 0.0000 1.0000 0.0000
vn 0.0000 1.0000 0.0000
vn 0.0000 1.0000 0.0000
vn 0.0000 1.0000 0.0000
vn 0.0000 1.0000 0.0000
vn 0.0000 -1.0000 0.0000
vn 0.0000 -1.0000 0.0000
vn 0.0000 -1.0000 0.0000
vn 0.0000 -1.0000 0.0000
vn 0.0000 -1.0000 0.0000
vn 0.0000 -1.0000 0.0000
vn 0.0000 -1.0000 0.0000
vn 0.0000 -1.0000 0.0000
vn 0.0000 -1.0000 0.0000
vn 0.0000 -1.0000 0.0000
vn 0.0000 -1.0000 0.0000
vn 0.0000 -1.0000 0.0000
vn 0.0000 -1.0000 0.0000
vn 1.0000 0.0000 0.0000
vn 1.0000 0.0000 0.0000
vn 0.8660 0.0000 0.5000
vn 0.8660 0.0000 0.5000
vn 0.5000 0.0000 0.8660
vn 0.5000 0.0000 0.8660
vn 0.0000 0.0000 1.0000
vn 0.0000 0.0000 1.0000
vn -0.5000 0.0000 0.8660
vn -0.5000 0.0000 0.8660
vn -0.8660 0.0000 0.5000
vn -0.8660 0.0000 0.5000
vn -1.0000 0.0000 0.0000
vn -1.0000 0.0000 0.0000
vn -0.8660 0.0000 -0.5000
vn -0.8660 0.0000 -0.5000
vn -0.5000 0.0000 -0.8660
vn -0.5000 0.0000 -0.8660
vn -0.0000 0.0000 -1.0000
vn -0.0000 0.0000 -1.0000
vn 0.5000 0.0000 -0.8660
vn 0.5000 0.0000 -0.8660
vn 0.8660 0.0000 -0.5000
vn 0.8660 0.0000 -0.5000
vn 1.0000 0.0000 -0.0000
vn 1.0000 0.0000 -0.0000
vn 0.0000 1.0000 0.0000
vn 0.0000 1.0000 0.0000
vn 0.0000 1.0000 0.0000
vn 0.0000 1.0000 0.0000
vn 0.0000 1.0000 0.0000
vn 0.0000 1.0000 0.0000
vn 0.0000 1.0000 0.0000
vn 0.0000 1.0000 0.0000
vn 0.0000 1.0000 0.0000
vn 0.0000 1.0000 0.0000
vn 0.0000 1.0000 0.0000
vn 0.0000 1.0000 0.0000
vn 0.0000 1.0000 0.0000
vn 0.0000 -1.0000 0.0000
vn 0.0000 -1.0000 0.0000
vn 0.0000 -1.0000 0.0000
vn 0.0000 -1.0000 0.0000
vn 0.0000 -1.0000 0.0000
vn 0.0000 -1.0000 0.0000
vn 0.0000 -1.0000 0.0000
vn 0.0000 -1.0000 0.0000
vn 0.0000 -1.0000 0.0000
vn 0.0000 -1.0000 0.0000
vn 0.0000 -1.0000 0.0000
vn 0.0000 -1.0000 0.0000
vn 0.0000 -1.0000 0.0000
vn 1.0000 0.0000 0.0000
vn 1.0000 0.0000 0.0000
vn 0.8660 0.0000 0.5000
vn 0.8660 0.0000 0.5000
vn 0.5000 0.0000 0.8660
vn 0.5000 0.0000 0.8660
vn 0.0000 0.0000 1.0000
vn 0.0000 0.0000 1.0000
vn -0.5000 0.0000 0.8660
vn -0.5000 0.0000 0.8660
vn -0.8660 0.0000 0.5000
vn -0.8660 0.0000 0.5000
vn -1.0000 0.0000 0.0000
vn -1.0000 0.0000 0.0000
vn -0.8660 0.0000 -0.5000
vn -0.8660 0.0000 -0.5000
vn -0.5000 0.0000 -0.8660
vn -0.5000 0.0000 -0.8660
vn -0.0000 0.0000 -1.0000
vn -0.0000 0.0000 -1.0000
vn 0.5000 0.0000 -0.8660
vn 0.5000 0.0000 -0.8660
vn 0.8660 0.0000 -0.5000
vn 0.8660 0.0000 -0.5000
vn 1.0000 0.0000 -0.0000
vn 1.0000 0.0000 -0.0000
f 1/1/1 2/2/2 3/3/3
f 1/1/1 3/3/3 4/4/4
f 5/5/5 6/6/6 7/7/7
f 5/5/5 7/7/7 8/8/8
f 9/9/9 10/10/10 11/11/11
f 9/9/9 11/11/11 12/12/12
f 13/13/13 14/14/14 15/15/15
f 13/13/13 15/15/15 16/16/16
f 17/17/17 18/18/18 19/19/19
f 17/17/17 19/19/19 20/20/20
f 21/21/21 22/22/22 23/23/23
f 21/21/21 23/23/23 24/24/24
f 25/25/25 26/26/26 27/27/27
f 25/25/25 27/27/27 28/28/28
f 29/29/29 30/30/30 31/31/31
f 29/29/29 31/31/31 32/32/32
f 33/33/33 34/34/34 35/35/35
f 33/33/33 35/35/35 36/36/36
f 37/37/37 38/38/38 39/39/39
f 37/37/37 39/39/39 40/40/40
f 41/41/41 42/42/42 43/43/43
f 41/41/41 43/43/43 44/44/44
f 45/45/45 46/46/46 47/47/47
f 45/45/45 47/47/47 48/48/48
f 49/49/49 50/50/50 51/51/51
f 49/49/49 51/51/51 52/52/52
f 53/53/53 54/54/54 55/55/55
f 53/53/53 55/55/55 56/56/56
f 57/57/57 58/58/58 59/59/59
f 57/57/57 59/59/59 60/60/60
f 61/61/61 62/62/62 63/63/63
f 61/61/61 63/63/63 64/64/64
f 65/65/65 66/66/66 67/67/67
f 65/65/65 67/67/67 68/68/68
f 69/69/69 70/70/70 71/71/71
f 69/69/69 71/71/71 72/72/72
f 73/73/73 74/74/74 75/75/75
f 73/73/73 75/75/75 76/76/76
f 73/73/73 76/76/76 77/77/77
f 73/73/73 77/77/77 78/78/78
f 73/73/73 78/78/78 79/79/79
f 73/73/73 79/79/79 80/80/80
f 73/73/73 80/80/80 81/81/81
f 73/73/73 81/81/81 82/82/82
f 73/73/73 82/82/82 83/83/83
f 73/73/73 83/83/83 84/84/84
f 73/73/73 84/84/84 85/85/85
f 73/73/73 85/85/85 74/74/74
f 86/86/86 88/88/88 87/87/87
f 88/88/88 90/90/90 89/89/89
f 90/90/90 92/92/92 91/91/91
f 92/92/92 94/94/94 93/93/93
f 94/94/94 96/96/96 95/95/95
f 96/96/96 98/98/98 97/97/97
f 98/98/98 100/100/100 99/99/99
f 100/100/100 102/102/102 101/101/101
f 102/102/102 104/104/104 103/103/103
f 104/104/104 106/106/106 105/105/105
f 106/106/106 108/108/108 107/107/107
f 108/108/108 110/110/110 109/109/109
f 112/112/112 113/113/113 114/114/114
f 112/112/112 114/114/114 115/115/115
f 112/112/112 115/115/115 116/116/116
f 112/112/112 116/116/116 117/117/117
f 112/112/112 117/117/117 118/118/118
f 112/112/112 118/118/118 119/119/119
f 112/112/112 119/119/119 120/120/120
f 112/112/112 120/120/120 121/121/121
f 112/112/112 121/121/121 122/122/122
f 112/112/112 122/122/122 123/123/123
f 112/112/112 123/123/123 124/124/124
f 112/112/112 124/124/124 113/113/113
f 125/125/125 127/127/127 126/126/126
f 127/127/127 129/129/129 128/128/128
f 129/129/129 131/131/131 130/130/130
f 131/131/131 133/133/133 132/132/132
f 133/133/133 135/135/135 134/134/134
f 135/135/135 137/137/137 136/136/136
f 137/137/137 139/139/139 138/138/138
f 139/139/139 141/141/141 140/140/140
f 141/141/141 143/143/143 142/142/142
f 143/143/143 145/145/145 144/144/144
f 145/145/145 147/147/147 146/146/146
f 147/147/147 149/149/149 148/148/148
f 151/151/151 152/152/152 153/153/153
f 151/151/151 153/153/153 154/154/154
f 155/155/155 156/156/156 157/157/157
f 155/155/155 157/157/157 158/158/158
f 159/159/159 160/160/160 161/161/161
f 159/159/159 161/161/161 162/162/162
f 163/163/163 164/164/164 165/165/165
f 163/163/163 165/165/165 166/166/166
f 167/167/167 168/168/168 169/169/169
f 167/167/167 169/169/169 170/170/170
f 171/171/171 172/172/172 173/173/173
f 171/171/171 173/173/173 174/174/174
f 175/175/175 176/176/176 177/177/177
f 175/175/175 177/177/177 178/178/178
f 179/179/179 180/180/180 181/181/181
f 179/179/179 181/181/181 182/182/182
f 183/183/183 184/184/184 185/185/185
f 183/183/183 185/185/185 186/186/186
f 187/187/187 188/188/188 189/189/189
f 187/187/187 189/189/189 190/190/190
f 191/191/191 192/192/192 193/193/193
f 191/191/191 193/193/193 194/194/194
f 195/195/195 196/196/196 197/197/197
f 195/195/195 197/197/197 198/198/198
f 199/199/199 201/201/201 200/200/200
f 199/199/199 202/202/202 201/201/201
f 199/199/199 203/203/203 202/202/202
f 199/199/199 204/204/204 203/203/203
f 199/199/199 205/205/205 204/204/204
f 199/199/199 206/206/206 205/205/205
f 199/199/199 207/207/207 206/206/206
f 199/199/199 208/208/208 207/207/207
f 199/199/199 209/209/209 208/208/208
f 199/199/199 210/210/210 209/209/209
f 199/199/199 211/211/211 210/210/210
f 199/199/199 200/200/200 211/211/211
f 212/212/212 213/213/213 214/214/214
f 212/212/212 214/214/214 215/215/215
f 212/212/212 215/215/215 216/216/216
f 212/212/212 216/216/216 217/217/217
f 212/212/212 217/217/217 218/218/218
f 212/212/212 218/218/218 219/219/219
f 212/212/212 219/219/219 220/220/220
f 212/212/212 220/220/220 221/221/221
f 212/212/212 221/221/221 222/222/222
f 212/212/212 222/222/222 223/223/223
f 212/212/212 223/223/223 224/224/224
f 212/212/212 224/224/224 213/213/213
f 225/225/225 227/227/227 226/226/226
f 226/226/226 227/227/227 228/228/228
f 227/227/227 229/229/229 228/228/228
f 228/228/228 229/229/229 230/230/230
f 229/229/229 231/231/231 230/230/230
f 230/230/230 231/231/231 232/232/232
f 231/231/231 233/233/233 232/232/232
f 232/232/232 233/233/233 234/234/234
f 233/233/233 235/235/235 234/234/234
f 234/234/234 235/235/235 236/236/236
f 235/235/235 237/237/237 236/236/236
f 236/236/236 237/237/237 238/238/238
f 237/237/237 239/239/239 238/238/238
f 238/238/238 239/239/239 240/240/240
f 239/239/239 241/241/241 240/240/240
f 240/240/240 241/241/241 242/242/242
f 241/241/241 243/243/243 242/242/242
f 242/242/242 243/243/243 244/244/244
f 243/243/243 245/245/245 244/244/244
f 244/244/244 245/245/245 246/246/246
f 245/245/245 247/247/247 246/246/246
f 246/246/246 247/247/247 248/248/248
f 247/247/247 249/249/249 248/248/248
f 248/248/248 249/249/249 250/250/250
f 251/251/251 253/253/253 252/252/252
f 251/251/251 254/254/254 253/253/253
f 251/251/251 255/255/255 254/254/254
f 251/251/251 256/256/256 255/255/255
f 251/251/251 257/257/257 256/256/256
f 251/251/251 258/258/258 257/257/257
f 251/251/251 259/259/259 258/258/258
f 251/251/251 260/260/260 259/259/259
f 251/251/251 261/261/261 260/260/260
f 251/251/251 262/262/262 261/261/261
f 251/251/251 263/263/263 262/262/262
f 251/251/251 252/252/252 263/263/263
f 264/264/264 265/265/265 266/266/266
f 264/264/264 266/266/266 267/267/267
f 264/264/264 267/267/267 268/268/268
f 264/264/264 268/268/268 269/269/269
f 264/264/264 269/269/269 270/270/270
f 264/264/264 270/270/270 271/271/271
f 264/264/264 271/271/271 272/272/272
f 264/264/264 272/272/272 273/273/273
f 264/264/264 273/273/273 274/274/274
f 264/264/264 274/274/274 275/275/275
f 264/264/264 275/275/275 276/276/276
f 264/264/264 276/276/276 265/265/265
f 277/277/277 279/279/279 278/278/278
f 278/278/278 279/279/279 280/280/280
f 279/279/279 281/281/281 280/280/280
f 280/280/280 281/281/281 282/282/282
f 281/281/281 283/283/283 282/282/282
f 282/282/282 283/283/283 284/284/284
f 283/283/283 285/285/285 284/284/284
f 284/284/284 285/285/285 286/286/286
f 285/285/285 287/287/287 286/286/286
f 286/286/286 287/287/287 288/288/288
f 287/287/287 289/289/289 288/288/288
f 288/288/288 289/289/289 290/290/290
f 289/289/289 291/291/291 290/290/290
f 290/290/290 291/291/291 292/292/292
f 291/291/291 293/293/293 292/292/292
f 292/292/292 293/293/293 294/294/294
f 293/293/293 295/295/295 294/294/294
f 294/294/294 295/295/295 296/296/296
f 295/295/295 297/297/297 296/296/296
f 296/296/296 297/297/297 298/298/298
f 297/297/297 299/299/299 298/298/298
f 298/298/298 299/299/299 300/300/300
f 299/299/299 301/301/301 300/300/300
f 300/300/300 301/301/301 302/302/302
f 303/303/303 305/305/305 304/304/304
f 303/303/303 306/306/306 305/305/305
f 303/303/303 307/307/307 306/306/306
f 303/303/303 308/308/308 307/307/307
f 303/303/303 309/309/309 308/308/308
f 303/303/303 310/310/310 309/309/309
f 303/303/303 311/311/311 310/310/310
f 303/303/303 312/312/312 311/311/311
f 303/303/303 313/313/313 312/312/312
f 303/303/303 314/314/314 313/313/313
f 303/303/303 315/315/315 314/314/314
f 303/303/303 304/304/304 315/315/315
f 316/316/316 317/317/317 318/318/318
f 316/316/316 318/318/318 319/319/319
f 316/316/316 319/319/319 320/320/320
f 316/316/316 320/320/320 321/321/321
f 316/316/316 321/321/321 322/322/322
f 316/316/316 322/322/322 323/323/323
f 316/316/316 323/323/323 324/324/324
f 316/316/316 324/324/324 325/325/325
f 316/316/316 325/325/325 326/326/326
f 316/316/316 326/326/326 327/327/327
f 316/316/316 327/327/327 328/328/328
f 316/316/316 328/328/328 317/317/317
f 329/329/329 331/331/331 330/330/330
f 330/330/330 331/331/331 332/332/332
f 331/331/331 333/333/333 332/332/332
f 332/332/332 333/333/333 334/334/334
f 333/333/333 335/335/335 334/334/334
f 334/334/334 335/335/335 336/336/336
f 335/335/335 337/337/337 336/336/336
f 336/336/336 337/337/337 338/338/338
f 337/337/337 339/339/339 338/338/338
f 338/338/338 339/339/339 340/340/340
f 339/339/339 341/341/341 340/340/340
f 340/340/340 341/341/341 342/342/342
f 341/341/341 343/343/343 342/342/342
f 342/342/342 343/343/343 344/344/344
f 343/343/343 345/345/345 344/344/344
f 344/344/344 345/345/345 346/346/346
f 345/345/345 347/347/347 346/346/346
f 346/346/346 347/347/347 348/348/348
f 347/347/347 349/349/349 348/348/348
f 348/348/348 349/349/349 350/350/350
f 349/349/349 351/351/351 350/350/350
f 350/350/350 351/351/351 352/352/352
f 351/351/351 353/353/353 352/352/352
f 352/352/352 353/353/353 354/354/354
f 355/355/355 357/357/357 356/356/356
f 355/355/355 358/358/358 357/357/357
f 355/355/355 359/359/359 358/358/358
f 355/355/355 360/360/360 359/359/359
f 355/355/355 361/361/361 360/360/360
f 355/355/355 362/362/362 361/361/361
f 355/355/355 363/363/363 362/362/362
f 355/355/355 364/364/364 363/363/363
f 355/355/355 365/365/365 364/364/364
f 355/355/355 366/366/366 365/365/365
f 355/355/355 367/367/367 366/366/366
f 355/355/355 356/356/356 367/367/367
f 368/368/368 369/369/369 370/370/370
f 368/368/368 370/370/370 371/371/371
f 368/368/368 371/371/371 372/372/372
f 368/368/368 372/372/372 373/373/373
f 368/368/368 373/373/373 374/374/374
f 368/368/368 374/374/374 375/375/375
f 368/368/368 375/375/375 376/376/376
f 368/368/368 376/376/376 377/377/377
f 368/368/368 377/377/377 378/378/378
f 368/368/368 378/378/378 379/379/379
f 368/368/368 379/379/379 380/380/380
f 368/368/368 380/380/380 369/369/369
f 381/381/381 383/383/383 382/382/382
f 382/382/382 383/383/383 384/384/384
f 383/383/383 385/385/385 384/384/384
f 384/384/384 385/385/385 386/386/386
f 385/385/385 387/387/387 386/386/386
f 386/386/386 387/387/387 388/388/388
f 387/387/387 389/389/389 388/388/388
f 388/388/388 389/389/389 390/390/390
f 389/389/389 391/391/391 390/390/390
f 390/390/390 391/391/391 392/392/392
f 391/391/391 393/393/393 392/392/392
f 392/392/392 393/393/393 394/394/394
f 393/393/393 395/395/395 394/394/394
f 394/394/394 395/395/395 396/396/396
f 395/395/395 397/397/397 396/396/396
f 396/396/396 397/397/397 398/398/398
f 397/397/397 399/399/399 398/398/398
f 398/398/398 399/399/399 400/400/400
f 399/399/399 401/401/401 400/400/400
f 400/400/400 401/401/401 402/402/402
f 401/401/401 403/403/403 402/402/402
f 402/402/402 403/403/403 404/404/404
f 403/403/403 405/405/405 404/404/404
f 404/404/404 405/405/405 406/406/406