# Procedural Low-Poly Mesh
v 0.0000 0.4250 0.0000
v 0.0000 0.4250 0.0000
v 0.0000 0.4250 0.0000
v 0.0000 0.4250 0.0000
v 0.0000 0.4250 0.0000
v 0.0000 0.4250 0.0000
v 0.0000 0.4250 0.0000
v 0.0000 0.4250 0.0000
v 0.0000 0.4250 0.0000
v 0.0000 0.4250 0.0000
v 0.0000 0.4250 0.0000
v 0.0000 0.4250 0.0000
v 0.0000 0.4250 0.0000
v 0.0670 0.4117 0.0000
v 0.0580 0.4117 0.0431
v 0.0335 0.4117 0.0746
v 0.0000 0.4117 0.0861
v -0.0335 0.4117 0.0746
v -0.0580 0.4117 0.0431
v -0.0670 0.4117 0.0000
v -0.0580 0.4117 -0.0431
v -0.0335 0.4117 -0.0746
v -0.0000 0.4117 -0.0861
v 0.0335 0.4117 -0.0746
v 0.0580 0.4117 -0.0431
v 0.0670 0.4117 -0.0000
v 0.1237 0.3737 0.0000
v 0.1072 0.3737 0.0795
v 0.0619 0.3737 0.1378
v 0.0000 0.3737 0.1591
v -0.0619 0.3737 0.1378
v -0.1072 0.3737 0.0795
v -0.1237 0.3737 0.0000
v -0.1072 0.3737 -0.0795
v -0.0619 0.3737 -0.1378
v -0.0000 0.3737 -0.1591
v 0.0619 0.3737 -0.1378
v 0.1072 0.3737 -0.0795
v 0.1237 0.3737 -0.0000
v 0.1617 0.3170 0.0000
v 0.1400 0.3170 0.1039
v 0.0808 0.3170 0.1800
v 0.0000 0.3170 0.2079
v -0.0808 0.3170 0.1800
v -0.1400 0.3170 0.1039
v -0.1617 0.3170 0.0000
v -0.1400 0.3170 -0.1039
v -0.0808 0.3170 -0.1800
v -0.0000 0.3170 -0.2079
v 0.0808 0.3170 -0.1800
v 0.1400 0.3170 -0.1039
v 0.1617 0.3170 -0.0000
v 0.1750 0.2500 0.0000
v 0.1516 0.2500 0.1125
v 0.0875 0.2500 0.1949
v 0.0000 0.2500 0.2250
v -0.0875 0.2500 0.1949
v -0.1516 0.2500 0.1125
v -0.1750 0.2500 0.0000
v -0.1516 0.2500 -0.1125
v -0.0875 0.2500 -0.1949
v -0.0000 0.2500 -0.2250
v 0.0875 0.2500 -0.1949
v 0.1516 0.2500 -0.1125
v 0.1750 0.2500 -0.0000
v 0.1617 0.1830 0.0000
v 0.1400 0.1830 0.1039
v 0.0808 0.1830 0.1800
v 0.0000 0.1830 0.2079
v -0.0808 0.1830 0.1800
v -0.1400 0.1830 0.1039
v -0.1617 0.1830 0.0000
v -0.1400 0.1830 -0.1039
v -0.0808 0.1830 -0.1800
v -0.0000 0.1830 -0.2079
v 0.0808 0.1830 -0.1800
v 0.1400 0.1830 -0.1039
v 0.1617 0.1830 -0.0000
v 0.1237 0.1263 0.0000
v 0.1072 0.1263 0.0795
v 0.0619 0.1263 0.1378
v 0.0000 0.1263 0.1591
v -0.0619 0.1263 0.1378
v -0.1072 0.1263 0.0795
v -0.1237 0.1263 0.0000
v -0.1072 0.1263 -0.0795
v -0.0619 0.1263 -0.1378
v -0.0000 0.1263 -0.1591
v 0.0619 0.1263 -0.1378
v 0.1072 0.1263 -0.0795
v 0.1237 0.1263 -0.0000
v 0.0670 0.0883 0.0000
v 0.0580 0.0883 0.0431
v 0.0335 0.0883 0.0746
v 0.0000 0.0883 0.0861
v -0.0335 0.0883 0.0746
v -0.0580 0.0883 0.0431
v -0.0670 0.0883 0.0000
v -0.0580 0.0883 -0.0431
v -0.0335 0.0883 -0.0746
v -0.0000 0.0883 -0.0861
v 0.0335 0.0883 -0.0746
v 0.0580 0.0883 -0.0431
v 0.0670 0.0883 -0.0000
v 0.0000 0.0750 0.0000
v 0.0000 0.0750 0.0000
v 0.0000 0.0750 0.0000
v 0.0000 0.0750 0.0000
v -0.0000 0.0750 0.0000
v -0.0000 0.0750 0.0000
v -0.0000 0.0750 0.0000
v -0.0000 0.0750 -0.0000
v -0.0000 0.0750 -0.0000
v -0.0000 0.0750 -0.0000
v 0.0000 0.0750 -0.0000
v 0.0000 0.0750 -0.0000
v 0.0000 0.0750 -0.0000
v 0.0000 0.6300 0.1600
v 0.0000 0.6300 0.1600
v 0.0000 0.6300 0.1600
v 0.0000 0.6300 0.1600
v 0.0000 0.6300 0.1600
v 0.0000 0.6300 0.1600
v 0.0000 0.6300 0.1600
v 0.0000 0.6300 0.1600
v 0.0000 0.6300 0.1600
v 0.0000 0.6300 0.1600
v 0.0000 0.6300 0.1600
v 0.0000 0.6300 0.1600
v 0.0000 0.6300 0.1600
v 0.0497 0.6201 0.1600
v 0.0431 0.6201 0.1849
v 0.0249 0.6201 0.2031
v 0.0000 0.6201 0.2097
v -0.0249 0.6201 0.2031
v -0.0431 0.6201 0.1849
v -0.0497 0.6201 0.1600
v -0.0431 0.6201 0.1351
v -0.0249 0.6201 0.1169
v -0.0000 0.6201 0.1103
v 0.0249 0.6201 0.1169
v 0.0431 0.6201 0.1351
v 0.0497 0.6201 0.1600
v 0.0919 0.5919 0.1600
v 0.0796 0.5919 0.2060
v 0.0460 0.5919 0.2396
v 0.0000 0.5919 0.2519
v -0.0460 0.5919 0.2396
v -0.0796 0.5919 0.2060
v -0.0919 0.5919 0.1600
v -0.0796 0.5919 0.1140
v -0.0460 0.5919 0.0804
v -0.0000 0.5919 0.0681
v 0.0460 0.5919 0.0804
v 0.0796 0.5919 0.1140
v 0.0919 0.5919 0.1600
v 0.1201 0.5497 0.1600
v 0.1040 0.5497 0.2201
v 0.0601 0.5497 0.2640
v 0.0000 0.5497 0.2801
v -0.0601 0.5497 0.2640
v -0.1040 0.5497 0.2201
v -0.1201 0.5497 0.1600
v -0.1040 0.5497 0.0999
v -0.0601 0.5497 0.0560
v -0.0000 0.5497 0.0399
v 0.0601 0.5497 0.0560
v 0.1040 0.5497 0.0999
v 0.1201 0.5497 0.1600
v 0.1300 0.5000 0.1600
v 0.1126 0.5000 0.2250
v 0.0650 0.5000 0.2726
v 0.0000 0.5000 0.2900
v -0.0650 0.5000 0.2726
v -0.1126 0.5000 0.2250
v -0.1300 0.5000 0.1600
v -0.1126 0.5000 0.0950
v -0.0650 0.5000 0.0474
v -0.0000 0.5000 0.0300
v 0.0650 0.5000 0.0474
v 0.1126 0.5000 0.0950
v 0.1300 0.5000 0.1600
v 0.1201 0.4503 0.1600
v 0.1040 0.4503 0.2201
v 0.0601 0.4503 0.2640
v 0.0000 0.4503 0.2801
v -0.0601 0.4503 0.2640
v -0.1040 0.4503 0.2201
v -0.1201 0.4503 0.1600
v -0.1040 0.4503 0.0999
v -0.0601 0.4503 0.0560
v -0.0000 0.4503 0.0399
v 0.0601 0.4503 0.0560
v 0.1040 0.4503 0.0999
v 0.1201 0.4503 0.1600
v 0.0919 0.4081 0.1600
v 0.0796 0.4081 0.2060
v 0.0460 0.4081 0.2396
v 0.0000 0.4081 0.2519
v -0.0460 0.4081 0.2396
v -0.0796 0.4081 0.2060
v -0.0919 0.4081 0.1600
v -0.0796 0.4081 0.1140
v -0.0460 0.4081 0.0804
v -0.0000 0.4081 0.0681
v 0.0460 0.4081 0.0804
v 0.0796 0.4081 0.1140
v 0.0919 0.4081 0.1600
v 0.0497 0.3799 0.1600
v 0.0431 0.3799 0.1849
v 0.0249 0.3799 0.2031
v 0.0000 0.3799 0.2097
v -0.0249 0.3799 0.2031
v -0.0431 0.3799 0.1849
v -0.0497 0.3799 0.1600
v -0.0431 0.3799 0.1351
v -0.0249 0.3799 0.1169
v -0.0000 0.3799 0.1103
v 0.0249 0.3799 0.1169
v 0.0431 0.3799 0.1351
v 0.0497 0.3799 0.1600
v 0.0000 0.3700 0.1600
v 0.0000 0.3700 0.1600
v 0.0000 0.3700 0.1600
v 0.0000 0.3700 0.1600
v -0.0000 0.3700 0.1600
v -0.0000 0.3700 0.1600
v -0.0000 0.3700 0.1600
v -0.0000 0.3700 0.1600
v -0.0000 0.3700 0.1600
v -0.0000 0.3700 0.1600
v 0.0000 0.3700 0.1600
v 0.0000 0.3700 0.1600
v 0.0000 0.3700 0.1600
v -0.0917 0.5665 0.1058
v -0.1260 0.9078 0.0362
v -0.0663 0.9138 0.0362
v -0.0320 0.5725 0.1058
v -0.0340 0.5922 0.2038
v -0.0683 0.9335 0.1342
v -0.1280 0.9275 0.1342
v -0.0937 0.5862 0.2038
v -0.0937 0.5862 0.2038
v -0.1280 0.9275 0.1342
v -0.1260 0.9078 0.0362
v -0.0917 0.5665 0.1058
v -0.0320 0.5725 0.1058
v -0.0663 0.9138 0.0362
v -0.0683 0.9335 0.1342
v -0.0340 0.5922 0.2038
v -0.1260 0.9078 0.0362
v -0.1280 0.9275 0.1342
v -0.0683 0.9335 0.1342
v -0.0663 0.9138 0.0362
v -0.0937 0.5862 0.2038
v -0.0917 0.5665 0.1058
v -0.0320 0.5725 0.1058
v -0.0340 0.5922 0.2038
v 0.0320 0.5725 0.1058
v 0.0663 0.9138 0.0362
v 0.1260 0.9078 0.0362
v 0.0917 0.5665 0.1058
v 0.0937 0.5862 0.2038
v 0.1280 0.9275 0.1342
v 0.0683 0.9335 0.1342
v 0.0340 0.5922 0.2038
v 0.0340 0.5922 0.2038
v 0.0683 0.9335 0.1342
v 0.0663 0.9138 0.0362
v 0.0320 0.5725 0.1058
v 0.0917 0.5665 0.1058
v 0.1260 0.9078 0.0362
v 0.1280 0.9275 0.1342
v 0.0937 0.5862 0.2038
v 0.0663 0.9138 0.0362
v 0.0683 0.9335 0.1342
v 0.1280 0.9275 0.1342
v 0.1260 0.9078 0.0362
v 0.0340 0.5922 0.2038
v 0.0320 0.5725 0.1058
v 0.0917 0.5665 0.1058
v 0.0937 0.5862 0.2038
v -0.1000 0.1900 0.1200
v -0.0700 0.1900 0.1200
v -0.0740 0.1900 0.1350
v -0.0850 0.1900 0.1460
v -0.1000 0.1900 0.1500
v -0.1150 0.1900 0.1460
v -0.1260 0.1900 0.1350
v -0.1300 0.1900 0.1200
v -0.1260 0.1900 0.1050
v -0.1150 0.1900 0.0940
v -0.1000 0.1900 0.0900
v -0.0850 0.1900 0.0940
v -0.0740 0.1900 0.1050
v -0.1000 0.0100 0.1200
v -0.0700 0.0100 0.1200
v -0.0740 0.0100 0.1350
v -0.0850 0.0100 0.1460
v -0.1000 0.0100 0.1500
v -0.1150 0.0100 0.1460
v -0.1260 0.0100 0.1350
v -0.1300 0.0100 0.1200
v -0.1260 0.0100 0.1050
v -0.1150 0.0100 0.0940
v -0.1000 0.0100 0.0900
v -0.0850 0.0100 0.0940
v -0.0740 0.0100 0.1050
v -0.0700 0.1900 0.1200
v -0.0700 0.0100 0.1200
v -0.0740 0.1900 0.1350
v -0.0740 0.0100 0.1350
v -0.0850 0.1900 0.1460
v -0.0850 0.0100 0.1460
v -0.1000 0.1900 0.1500
v -0.1000 0.0100 0.1500
v -0.1150 0.1900 0.1460
v -0.1150 0.0100 0.1460
v -0.1260 0.1900 0.1350
v -0.1260 0.0100 0.1350
v -0.1300 0.1900 0.1200
v -0.1300 0.0100 0.1200
v -0.1260 0.1900 0.1050
v -0.1260 0.0100 0.1050
v -0.1150 0.1900 0.0940
v -0.1150 0.0100 0.0940
v -0.1000 0.1900 0.0900
v -0.1000 0.0100 0.0900
v -0.0850 0.1900 0.0940
v -0.0850 0.0100 0.0940
v -0.0740 0.1900 0.1050
v -0.0740 0.0100 0.1050
v -0.0700 0.1900 0.1200
v -0.0700 0.0100 0.1200
v 0.1000 0.1900 0.1200
v 0.1300 0.1900 0.1200
v 0.1260 0.1900 0.1350
v 0.1150 0.1900 0.1460
v 0.1000 0.1900 0.1500
v 0.0850 0.1900 0.1460
v 0.0740 0.1900 0.1350
v 0.0700 0.1900 0.1200
v 0.0740 0.1900 0.1050
v 0.0850 0.1900 0.0940
v 0.1000 0.1900 0.0900
v 0.1150 0.1900 0.0940
v 0.1260 0.1900 0.1050
v 0.1000 0.0100 0.1200
v 0.1300 0.0100 0.1200
v 0.1260 0.0100 0.1350
v 0.1150 0.0100 0.1460
v 0.1000 0.0100 0.1500
v 0.0850 0.0100 0.1460
v 0.0740 0.0100 0.1350
v 0.0700 0.0100 0.1200
v 0.0740 0.0100 0.1050
v 0.0850 0.0100 0.0940
v 0.1000 0.0100 0.0900
v 0.1150 0.0100 0.0940
v 0.1260 0.0100 0.1050
v 0.1300 0.1900 0.1200
v 0.1300 0.0100 0.1200
v 0.1260 0.1900 0.1350
v 0.1260 0.0100 0.1350
v 0.1150 0.1900 0.1460
v 0.1150 0.0100 0.1460
v 0.1000 0.1900 0.1500
v 0.1000 0.0100 0.1500
v 0.0850 0.1900 0.1460
v 0.0850 0.0100 0.1460
v 0.0740 0.1900 0.1350
v 0.0740 0.0100 0.1350
v 0.0700 0.1900 0.1200
v 0.0700 0.0100 0.1200
v 0.0740 0.1900 0.1050
v 0.0740 0.0100 0.1050
v 0.0850 0.1900 0.0940
v 0.0850 0.0100 0.0940
v 0.1000 0.1900 0.0900
v 0.1000 0.0100 0.0900
v 0.1150 0.1900 0.0940
v 0.1150 0.0100 0.0940
v 0.1260 0.1900 0.1050
v 0.1260 0.0100 0.1050
v 0.1300 0.1900 0.1200
v 0.1300 0.0100 0.1200
v -0.1000 0.1900 -0.1200
v -0.0700 0.1900 -0.1200
v -0.0740 0.1900 -0.1050
v -0.0850 0.1900 -0.0940
v -0.1000 0.1900 -0.0900
v -0.1150 0.1900 -0.0940
v -0.1260 0.1900 -0.1050
v -0.1300 0.1900 -0.1200
v -0.1260 0.1900 -0.1350
v -0.1150 0.1900 -0.1460
v -0.1000 0.1900 -0.1500
v -0.0850 0.1900 -0.1460
v -0.0740 0.1900 -0.1350
v -0.1000 0.0100 -0.1200
v -0.0700 0.0100 -0.1200
v -0.0740 0.0100 -0.1050
v -0.0850 0.0100 -0.0940
v -0.1000 0.0100 -0.0900
v -0.1150 0.0100 -0.0940
v -0.1260 0.0100 -0.1050
v -0.1300 0.0100 -0.1200
v -0.1260 0.0100 -0.1350
v -0.1150 0.0100 -0.1460
v -0.1000 0.0100 -0.1500
v -0.0850 0.0100 -0.1460
v -0.0740 0.0100 -0.1350
v -0.0700 0.1900 -0.1200
v -0.0700 0.0100 -0.1200
v -0.0740 0.1900 -0.1050
v -0.0740 0.0100 -0.1050
v -0.0850 0.1900 -0.0940
v -0.0850 0.0100 -0.0940
v -0.1000 0.1900 -0.0900
v -0.1000 0.0100 -0.0900
v -0.1150 0.1900 -0.0940
v -0.1150 0.0100 -0.0940
v -0.1260 0.1900 -0.1050
v -0.1260 0.0100 -0.1050
v -0.1300 0.1900 -0.1200
v -0.1300 0.0100 -0.1200
v -0.1260 0.1900 -0.1350
v -0.1260 0.0100 -0.1350
v -0.1150 0.1900 -0.1460
v -0.1150 0.0100 -0.1460
v -0.1000 0.1900 -0.1500
v -0.1000 0.0100 -0.1500
v -0.0850 0.1900 -0.1460
v -0.0850 0.0100 -0.1460
v -0.0740 0.1900 -0.1350
v -0.0740 0.0100 -0.1350
v -0.0700 0.1900 -0.1200
v -0.0700 0.0100 -0.1200
v 0.1000 0.1900 -0.1200
v 0.1300 0.1900 -0.1200
v 0.1260 0.1900 -0.1050
v 0.1150 0.1900 -0.0940
v 0.1000 0.1900 -0.0900
v 0.0850 0.1900 -0.0940
v 0.0740 0.1900 -0.1050
v 0.0700 0.1900 -0.1200
v 0.0740 0.1900 -0.1350
v 0.0850 0.1900 -0.1460
v 0.1000 0.1900 -0.1500
v 0.1150 0.1900 -0.1460
v 0.1260 0.1900 -0.1350
v 0.1000 0.0100 -0.1200
v 0.1300 0.0100 -0.1200
v 0.1260 0.0100 -0.1050
v 0.1150 0.0100 -0.0940
v 0.1000 0.0100 -0.0900
v 0.0850 0.0100 -0.0940
v 0.0740 0.0100 -0.1050
v 0.0700 0.0100 -0.1200
v 0.0740 0.0100 -0.1350
v 0.0850 0.0100 -0.1460
v 0.1000 0.0100 -0.1500
v 0.1150 0.0100 -0.1460
v 0.1260 0.0100 -0.1350
v 0.1300 0.1900 -0.1200
v 0.1300 0.0100 -0.1200
v 0.1260 0.1900 -0.1050
v 0.1260 0.0100 -0.1050
v 0.1150 0.1900 -0.0940
v 0.1150 0.0100 -0.0940
v 0.1000 0.1900 -0.0900
v 0.1000 0.0100 -0.0900
v 0.0850 0.1900 -0.0940
v 0.0850 0.0100 -0.0940
v 0.0740 0.1900 -0.1050
v 0.0740 0.0100 -0.1050
v 0.0700 0.1900 -0.1200
v 0.0700 0.0100 -0.1200
v 0.0740 0.1900 -0.1350
v 0.0740 0.0100 -0.1350
v 0.0850 0.1900 -0.1460
v 0.0850 0.0100 -0.1460
v 0.1000 0.1900 -0.1500
v 0.1000 0.0100 -0.1500
v 0.1150 0.1900 -0.1460
v 0.1150 0.0100 -0.1460
v 0.1260 0.1900 -0.1350
v 0.1260 0.0100 -0.1350
v 0.1300 0.1900 -0.1200
v 0.1300 0.0100 -0.1200
v 0.0000 0.3250 -0.2400
v 0.0000 0.3250 -0.2400
v 0.0000 0.3250 -0.2400
v 0.0000 0.3250 -0.2400
v 0.0000 0.3250 -0.2400
v 0.0000 0.3250 -0.2400
v 0.0000 0.3250 -0.2400
v 0.0000 0.3250 -0.2400
v 0.0000 0.3250 -0.2400
v 0.0000 0.3250 -0.2400
v 0.0000 0.3250 -0.2400
v 0.0000 0.3250 -0.2400
v 0.0000 0.3250 -0.2400
v 0.0172 0.3216 -0.2400
v 0.0149 0.3216 -0.2314
v 0.0086 0.3216 -0.2251
v 0.0000 0.3216 -0.2228
v -0.0086 0.3216 -0.2251
v -0.0149 0.3216 -0.2314
v -0.0172 0.3216 -0.2400
v -0.0149 0.3216 -0.2486
v -0.0086 0.3216 -0.2549
v -0.0000 0.3216 -0.2572
v 0.0086 0.3216 -0.2549
v 0.0149 0.3216 -0.2486
v 0.0172 0.3216 -0.2400
v 0.0318 0.3118 -0.2400
v 0.0276 0.3118 -0.2241
v 0.0159 0.3118 -0.2124
v 0.0000 0.3118 -0.2082
v -0.0159 0.3118 -0.2124
v -0.0276 0.3118 -0.2241
v -0.0318 0.3118 -0.2400
v -0.0276 0.3118 -0.2559
v -0.0159 0.3118 -0.2676
v -0.0000 0.3118 -0.2718
v 0.0159 0.3118 -0.2676
v 0.0276 0.3118 -0.2559
v 0.0318 0.3118 -0.2400
v 0.0416 0.2972 -0.2400
v 0.0360 0.2972 -0.2192
v 0.0208 0.2972 -0.2040
v 0.0000 0.2972 -0.1984
v -0.0208 0.2972 -0.2040
v -0.0360 0.2972 -0.2192
v -0.0416 0.2972 -0.2400
v -0.0360 0.2972 -0.2608
v -0.0208 0.2972 -0.2760
v -0.0000 0.2972 -0.2816
v 0.0208 0.2972 -0.2760
v 0.0360 0.2972 -0.2608
v 0.0416 0.2972 -0.2400
v 0.0450 0.2800 -0.2400
v 0.0390 0.2800 -0.2175
v 0.0225 0.2800 -0.2010
v 0.0000 0.2800 -0.1950
v -0.0225 0.2800 -0.2010
v -0.0390 0.2800 -0.2175
v -0.0450 0.2800 -0.2400
v -0.0390 0.2800 -0.2625
v -0.0225 0.2800 -0.2790
v -0.0000 0.2800 -0.2850
v 0.0225 0.2800 -0.2790
v 0.0390 0.2800 -0.2625
v 0.0450 0.2800 -0.2400
v 0.0416 0.2628 -0.2400
v 0.0360 0.2628 -0.2192
v 0.0208 0.2628 -0.2040
v 0.0000 0.2628 -0.1984
v -0.0208 0.2628 -0.2040
v -0.0360 0.2628 -0.2192
v -0.0416 0.2628 -0.2400
v -0.0360 0.2628 -0.2608
v -0.0208 0.2628 -0.2760
v -0.0000 0.2628 -0.2816
v 0.0208 0.2628 -0.2760
v 0.0360 0.2628 -0.2608
v 0.0416 0.2628 -0.2400
v 0.0318 0.2482 -0.2400
v 0.0276 0.2482 -0.2241
v 0.0159 0.2482 -0.2124
v 0.0000 0.2482 -0.2082
v -0.0159 0.2482 -0.2124
v -0.0276 0.2482 -0.2241
v -0.0318 0.2482 -0.2400
v -0.0276 0.2482 -0.2559
v -0.0159 0.2482 -0.2676
v -0.0000 0.2482 -0.2718
v 0.0159 0.2482 -0.2676
v 0.0276 0.2482 -0.2559
v 0.0318 0.2482 -0.2400
v 0.0172 0.2384 -0.2400
v 0.0149 0.2384 -0.2314
v 0.0086 0.2384 -0.2251
v 0.0000 0.2384 -0.2228
v -0.0086 0.2384 -0.2251
v -0.0149 0.2384 -0.2314
v -0.0172 0.2384 -0.2400
v -0.0149 0.2384 -0.2486
v -0.0086 0.2384 -0.2549
v -0.0000 0.2384 -0.2572
v 0.0086 0.2384 -0.2549
v 0.0149 0.2384 -0.2486
v 0.0172 0.2384 -0.2400
v 0.0000 0.2350 -0.2400
v 0.0000 0.2350 -0.2400
v 0.0000 0.2350 -0.2400
v 0.0000 0.2350 -0.2400
v -0.0000 0.2350 -0.2400
v -0.0000 0.2350 -0.2400
v -0.0000 0.2350 -0.2400
v -0.0000 0.2350 -0.2400
v -0.0000 0.2350 -0.2400
v -0.0000 0.2350 -0.2400
v 0.0000 0.2350 -0.2400
v 0.0000 0.2350 -0.2400
v 0.0000 0.2350 -0.2400
vt 0.0000 0.0000
vt 0.0833 0.0000
vt 0.1667 0.0000
vt 0.2500 0.0000
vt 0.3333 0.0000
vt 0.4167 0.0000
vt 0.5000 0.0000
vt 0.5833 0.0000
vt 0.6667 0.0000
vt 0.7500 0.0000
vt 0.8333 0.0000
vt 0.9167 0.0000
vt 1.0000 0.0000
vt 0.0000 0.1250
vt 0.0833 0.1250
vt 0.1667 0.1250
vt 0.2500 0.1250
vt 0.3333 0.1250
vt 0.4167 0.1250
vt 0.5000 0.1250
vt 0.5833 0.1250
vt 0.6667 0.1250
vt 0.7500 0.1250
vt 0.8333 0.1250
vt 0.9167 0.1250
vt 1.0000 0.1250
vt 0.0000 0.2500
vt 0.0833 0.2500
vt 0.1667 0.2500
vt 0.2500 0.2500
vt 0.3333 0.2500
vt 0.4167 0.2500
vt 0.5000 0.2500
vt 0.5833 0.2500
vt 0.6667 0.2500
vt 0.7500 0.2500
vt 0.8333 0.2500
vt 0.9167 0.2500
vt 1.0000 0.2500
vt 0.0000 0.3750
vt 0.0833 0.3750
vt 0.1667 0.3750
vt 0.2500 0.3750
vt 0.3333 0.3750
vt 0.4167 0.3750
vt 0.5000 0.3750
vt 0.5833 0.3750
vt 0.6667 0.3750
vt 0.7500 0.3750
vt 0.8333 0.3750
vt 0.9167 0.3750
vt 1.0000 0.3750
vt 0.0000 0.5000
vt 0.0833 0.5000
vt 0.1667 0.5000
vt 0.2500 0.5000
vt 0.3333 0.5000
vt 0.4167 0.5000
vt 0.5000 0.5000
vt 0.5833 0.5000
vt 0.6667 0.5000
vt 0.7500 0.5000
vt 0.8333 0.5000
vt 0.9167 0.5000
vt 1.0000 0.5000
vt 0.0000 0.6250
vt 0.0833 0.6250
vt 0.1667 0.6250
vt 0.2500 0.6250
vt 0.3333 0.6250
vt 0.4167 0.6250
vt 0.5000 0.6250
vt 0.5833 0.6250
vt 0.6667 0.6250
vt 0.7500 0.6250
vt 0.8333 0.6250
vt 0.9167 0.6250
vt 1.0000 0.6250
vt 0.0000 0.7500
vt 0.0833 0.7500
vt 0.1667 0.7500
vt 0.2500 0.7500
vt 0.3333 0.7500
vt 0.4167 0.7500
vt 0.5000 0.7500
vt 0.5833 0.7500
vt 0.6667 0.7500
vt 0.7500 0.7500
vt 0.8333 0.7500
vt 0.9167 0.7500
vt 1.0000 0.7500
vt 0.0000 0.8750
vt 0.0833 0.8750
vt 0.1667 0.8750
vt 0.2500 0.8750
vt 0.3333 0.8750
vt 0.4167 0.8750
vt 0.5000 0.8750
vt 0.5833 0.8750
vt 0.6667 0.8750
vt 0.7500 0.8750
vt 0.8333 0.8750
vt 0.9167 0.8750
vt 1.0000 0.8750
vt 0.0000 1.0000
vt 0.0833 1.0000
vt 0.1667 1.0000
vt 0.2500 1.0000
vt 0.3333 1.0000
vt 0.4167 1.0000
vt 0.5000 1.0000
vt 0.5833 1.0000
vt 0.6667 1.0000
vt 0.7500 1.0000
vt 0.8333 1.0000
vt 0.9167 1.0000
vt 1.0000 1.0000
vt 0.0000 0.0000
vt 0.0833 0.0000
vt 0.1667 0.0000
vt 0.2500 0.0000
vt 0.3333 0.0000
vt 0.4167 0.0000
vt 0.5000 0.0000
vt 0.5833 0.0000
vt 0.6667 0.0000
vt 0.7500 0.0000
vt 0.8333 0.0000
vt 0.9167 0.0000
vt 1.0000 0.0000
vt 0.0000 0.1250
vt 0.0833 0.1250
vt 0.1667 0.1250
vt 0.2500 0.1250
vt 0.3333 0.1250
vt 0.4167 0.1250
vt 0.5000 0.1250
vt 0.5833 0.1250
vt 0.6667 0.1250
vt 0.7500 0.1250
vt 0.8333 0.1250
vt 0.9167 0.1250
vt 1.0000 0.1250
vt 0.0000 0.2500
vt 0.0833 0.2500
vt 0.1667 0.2500
vt 0.2500 0.2500
vt 0.3333 0.2500
vt 0.4167 0.2500
vt 0.5000 0.2500
vt 0.5833 0.2500
vt 0.6667 0.2500
vt 0.7500 0.2500
vt 0.8333 0.2500
vt 0.9167 0.2500
vt 1.0000 0.2500
vt 0.0000 0.3750
vt 0.0833 0.3750
vt 0.1667 0.3750
vt 0.2500 0.3750
vt 0.3333 0.3750
vt 0.4167 0.3750
vt 0.5000 0.3750
vt 0.5833 0.3750
vt 0.6667 0.3750
vt 0.7500 0.3750
vt 0.8333 0.3750
vt 0.9167 0.3750
vt 1.0000 0.3750
vt 0.0000 0.5000
vt 0.0833 0.5000
vt 0.1667 0.5000
vt 0.2500 0.5000
vt 0.3333 0.5000
vt 0.4167 0.5000
vt 0.5000 0.5000
vt 0.5833 0.5000
vt 0.6667 0.5000
vt 0.7500 0.5000
vt 0.8333 0.5000
vt 0.9167 0.5000
vt 1.0000 0.5000
vt 0.0000 0.6250
vt 0.0833 0.6250
vt 0.1667 0.6250
vt 0.2500 0.6250
vt 0.3333 0.6250
vt 0.4167 0.6250
vt 0.5000 0.6250
vt 0.5833 0.6250
vt 0.6667 0.6250
vt 0.7500 0.6250
vt 0.8333 0.6250
vt 0.9167 0.6250
vt 1.0000 0.6250
vt 0.0000 0.7500
vt 0.0833 0.7500
vt 0.1667 0.7500
vt 0.2500 0.7500
vt 0.3333 0.7500
vt 0.4167 0.7500
vt 0.5000 0.7500
vt 0.5833 0.7500
vt 0.6667 0.7500
vt 0.7500 0.7500
vt 0.8333 0.7500
vt 0.9167 0.7500
vt 1.0000 0.7500
vt 0.0000 0.8750
vt 0.0833 0.8750
vt 0.1667 0.8750
vt 0.2500 0.8750
vt 0.3333 0.8750
vt 0.4167 0.8750
vt 0.5000 0.8750
vt 0.5833 0.8750
vt 0.6667 0.8750
vt 0.7500 0.8750
vt 0.8333 0.8750
vt 0.9167 0.8750
vt 1.0000 0.8750
vt 0.0000 1.0000
vt 0.0833 1.0000
vt 0.1667 1.0000
vt 0.2500 1.0000
vt 0.3333 1.0000
vt 0.4167 1.0000
vt 0.5000 1.0000
vt 0.5833 1.0000
vt 0.6667 1.0000
vt 0.7500 1.0000
vt 0.8333 1.0000
vt 0.9167 1.0000
vt 1.0000 1.0000
vt 0.0000 0.0000
vt 0.0000 1.0000
vt 1.0000 1.0000
vt 1.0000 0.0000
vt 0.0000 0.0000
vt 0.0000 1.0000
vt 1.0000 1.0000
vt 1.0000 0.0000
vt 0.0000 0.0000
vt 0.0000 1.0000
vt 1.0000 1.0000
vt 1.0000 0.0000
vt 0.0000 0.0000
vt 0.0000 1.0000
vt 1.0000 1.0000
vt 1.0000 0.0000
vt 0.0000 0.0000
vt 0.0000 1.0000
vt 1.0000 1.0000
vt 1.0000 0.0000
vt 0.0000 0.0000
vt 0.0000 1.0000
vt 1.0000 1.0000
vt 1.0000 0.0000
vt 0.0000 0.0000
vt 0.0000 1.0000
vt 1.0000 1.0000
vt 1.0000 0.0000
vt 0.0000 0.0000
vt 0.0000 1.0000
vt 1.0000 1.0000
vt 1.0000 0.0000
vt 0.0000 0.0000
vt 0.0000 1.0000
vt 1.0000 1.0000
vt 1.0000 0.0000
vt 0.0000 0.0000
vt 0.0000 1.0000
vt 1.0000 1.0000
vt 1.0000 0.0000
vt 0.0000 0.0000
vt 0.0000 1.0000
vt 1.0000 1.0000
vt 1.0000 0.0000
vt 0.0000 0.0000
vt 0.0000 1.0000
vt 1.0000 1.0000
vt 1.0000 0.0000
vt 0.5000 0.5000
vt 1.0000 0.5000
vt 0.9330 0.7500
vt 0.7500 0.9330
vt 0.5000 1.0000
vt 0.2500 0.9330
vt 0.0670 0.7500
vt 0.0000 0.5000
vt 0.0670 0.2500
vt 0.2500 0.0670
vt 0.5000 0.0000
vt 0.7500 0.0670
vt 0.9330 0.2500
vt 0.5000 0.5000
vt 1.0000 0.5000
vt 0.9330 0.7500
vt 0.7500 0.9330
vt 0.5000 1.0000
vt 0.2500 0.9330
vt 0.0670 0.7500
vt 0.0000 0.5000
vt 0.0670 0.2500
vt 0.2500 0.0670
vt 0.5000 0.0000
vt 0.7500 0.0670
vt 0.9330 0.2500
vt 0.0000 1.0000
vt 0.0000 0.0000
vt 0.0833 1.0000
vt 0.0833 0.0000
vt 0.1667 1.0000
vt 0.1667 0.0000
vt 0.2500 1.0000
vt 0.2500 0.0000
vt 0.3333 1.0000
vt 0.3333 0.0000
vt 0.4167 1.0000
vt 0.4167 0.0000
vt 0.5000 1.0000
vt 0.5000 0.0000
vt 0.5833 1.0000
vt 0.5833 0.0000
vt 0.6667 1.0000
vt 0.6667 0.0000
vt 0.7500 1.0000
vt 0.7500 0.0000
vt 0.8333 1.0000
vt 0.8333 0.0000
vt 0.9167 1.0000
vt 0.9167 0.0000
vt 1.0000 1.0000
vt 1.0000 0.0000
vt 0.5000 0.5000
vt 1.0000 0.5000
vt 0.9330 0.7500
vt 0.7500 0.9330
vt 0.5000 1.0000
vt 0.2500 0.9330
vt 0.0670 0.7500
vt 0.0000 0.5000
vt 0.0670 0.2500
vt 0.2500 0.0670
vt 0.5000 0.0000
vt 0.7500 0.0670
vt 0.9330 0.2500
vt 0.5000 0.5000
vt 1.0000 0.5000
vt 0.9330 0.7500
vt 0.7500 0.9330
vt 0.5000 1.0000
vt 0.2500 0.9330
vt 0.0670 0.7500
vt 0.0000 0.5000
vt 0.0670 0.2500
vt 0.2500 0.0670
vt 0.5000 0.0000
vt 0.7500 0.0670
vt 0.9330 0.2500
vt 0.0000 1.0000
vt 0.0000 0.0000
vt 0.0833 1.0000
vt 0.0833 0.0000
vt 0.1667 1.0000
vt 0.1667 0.0000
vt 0.2500 1.0000
vt 0.2500 0.0000
vt 0.3333 1.0000
vt 0.3333 0.0000
vt 0.4167 1.0000
vt 0.4167 0.0000
vt 0.5000 1.0000
vt 0.5000 0.0000
vt 0.5833 1.0000
vt 0.5833 0.0000
vt 0.6667 1.0000
vt 0.6667 0.0000
vt 0.7500 1.0000
vt 0.7500 0.0000
vt 0.8333 1.0000
vt 0.8333 0.0000
vt 0.9167 1.0000
vt 0.9167 0.0000
vt 1.0000 1.0000
vt 1.0000 0.0000
vt 0.5000 0.5000
vt 1.0000 0.5000
vt 0.9330 0.7500
vt 0.7500 0.9330
vt 0.5000 1.0000
vt 0.2500 0.9330
vt 0.0670 0.7500
vt 0.0000 0.5000
vt 0.0670 0.2500
vt 0.2500 0.0670
vt 0.5000 0.0000
vt 0.7500 0.0670
vt 0.9330 0.2500
vt 0.5000 0.5000
vt 1.0000 0.5000
vt 0.9330 0.7500
vt 0.7500 0.9330
vt 0.5000 1.0000
vt 0.2500 0.9330
vt 0.0670 0.7500
vt 0.0000 0.5000
vt 0.0670 0.2500
vt 0.2500 0.0670
vt 0.5000 0.0000
vt 0.7500 0.0670
vt 0.9330 0.2500
vt 0.0000 1.0000
vt 0.0000 0.0000
vt 0.0833 1.0000
vt 0.0833 0.0000
vt 0.1667 1.0000
vt 0.1667 0.0000
vt 0.2500 1.0000
vt 0.2500 0.0000
vt 0.3333 1.0000
vt 0.3333 0.0000
vt 0.4167 1.0000
vt 0.4167 0.0000
vt 0.5000 1.0000
vt 0.5000 0.0000
vt 0.5833 1.0000
vt 0.5833 0.0000
vt 0.6667 1.0000
vt 0.6667 0.0000
vt 0.7500 1.0000
vt 0.7500 0.0000
vt 0.8333 1.0000
vt 0.8333 0.0000
vt 0.9167 1.0000
vt 0.9167 0.0000
vt 1.0000 1.0000
vt 1.0000 0.0000
vt 0.5000 0.5000
vt 1.0000 0.5000
vt 0.9330 0.7500
vt 0.7500 0.9330
vt 0.5000 1.0000
vt 0.2500 0.9330
vt 0.0670 0.7500
vt 0.0000 0.5000
vt 0.0670 0.2500
vt 0.2500 0.0670
vt 0.5000 0.0000
vt 0.7500 0.0670
vt 0.9330 0.2500
vt 0.5000 0.5000
vt 1.0000 0.5000
vt 0.9330 0.7500
vt 0.7500 0.9330
vt 0.5000 1.0000
vt 0.2500 0.9330
vt 0.0670 0.7500
vt 0.0000 0.5000
vt 0.0670 0.2500
vt 0.2500 0.0670
vt 0.5000 0.0000
vt 0.7500 0.0670
vt 0.9330 0.2500
vt 0.0000 1.0000
vt 0.0000 0.0000
vt 0.0833 1.0000
vt 0.0833 0.0000
vt 0.1667 1.0000
vt 0.1667 0.0000
vt 0.2500 1.0000
vt 0.2500 0.0000
vt 0.3333 1.0000
vt 0.3333 0.0000
vt 0.4167 1.0000
vt 0.4167 0.0000
vt 0.5000 1.0000
vt 0.5000 0.0000
vt 0.5833 1.0000
vt 0.5833 0.0000
vt 0.6667 1.0000
vt 0.6667 0.0000
vt 0.7500 1.0000
vt 0.7500 0.0000
vt 0.8333 1.0000
vt 0.8333 0.0000
vt 0.9167 1.0000
vt 0.9167 0.0000
vt 1.0000 1.0000
vt 1.0000 0.0000
vt 0.0000 0.0000
vt 0.0833 0.0000
vt 0.1667 0.0000
vt 0.2500 0.0000
vt 0.3333 0.0000
vt 0.4167 0.0000
vt 0.5000 0.0000
vt 0.5833 0.0000
vt 0.6667 0.0000
vt 0.7500 0.0000
vt 0.8333 0.0000
vt 0.9167 0.0000
vt 1.0000 0.0000
vt 0.0000 0.1250
vt 0.0833 0.1250
vt 0.1667 0.1250
vt 0.2500 0.1250
vt 0.3333 0.1250
vt 0.4167 0.1250
vt 0.5000 0.1250
vt 0.5833 0.1250
vt 0.6667 0.1250
vt 0.7500 0.1250
vt 0.8333 0.1250
vt 0.9167 0.1250
vt 1.0000 0.1250
vt 0.0000 0.2500
vt 0.0833 0.2500
vt 0.1667 0.2500
vt 0.2500 0.2500
vt 0.3333 0.2500
vt 0.4167 0.2500
vt 0.5000 0.2500
vt 0.5833 0.2500
vt 0.6667 0.2500
vt 0.7500 0.2500
vt 0.8333 0.2500
vt 0.9167 0.2500
vt 1.0000 0.2500
vt 0.0000 0.3750
vt 0.0833 0.3750
vt 0.1667 0.3750
vt 0.2500 0.3750
vt 0.3333 0.3750
vt 0.4167 0.3750
vt 0.5000 0.3750
vt 0.5833 0.3750
vt 0.6667 0.3750
vt 0.7500 0.3750
vt 0.8333 0.3750
vt 0.9167 0.3750
vt 1.0000 0.3750
vt 0.0000 0.5000
vt 0.0833 0.5000
vt 0.1667 0.5000
vt 0.2500 0.5000
vt 0.3333 0.5000
vt 0.4167 0.5000
vt 0.5000 0.5000
vt 0.5833 0.5000
vt 0.6667 0.5000
vt 0.7500 0.5000
vt 0.8333 0.5000
vt 0.9167 0.5000
vt 1.0000 0.5000
vt 0.0000 0.6250
vt 0.0833 0.6250
vt 0.1667 0.6250
vt 0.2500 0.6250
vt 0.3333 0.6250
vt 0.4167 0.6250
vt 0.5000 0.6250
vt 0.5833 0.6250
vt 0.6667 0.6250
vt 0.7500 0.6250
vt 0.8333 0.6250
vt 0.9167 0.6250
vt 1.0000 0.6250
vt 0.0000 0.7500
vt 0.0833 0.7500
vt 0.1667 0.7500
vt 0.2500 0.7500
vt 0.3333 0.7500
vt 0.4167 0.7500
vt 0.5000 0.7500
vt 0.5833 0.7500
vt 0.6667 0.7500
vt 0.7500 0.7500
vt 0.8333 0.7500
vt 0.9167 0.7500
vt 1.0000 0.7500
vt 0.0000 0.8750
vt 0.0833 0.8750
vt 0.1667 0.8750
vt 0.2500 0.8750
vt 0.3333 0.8750
vt 0.4167 0.8750
vt 0.5000 0.8750
vt 0.5833 0.8750
vt 0.6667 0.8750
vt 0.7500 0.8750
vt 0.8333 0.8750
vt 0.9167 0.8750
vt 1.0000 0.8750
vt 0.0000 1.0000
vt 0.0833 1.0000
vt 0.1667 1.0000
vt 0.2500 1.0000
vt 0.3333 1.0000
vt 0.4167 1.0000
vt 0.5000 1.0000
vt 0.5833 1.0000
vt 0.6667 1.0000
vt 0.7500 1.0000
vt 0.8333 1.0000
vt 0.9167 1.0000
vt 1.0000 1.0000
vn 0.0000 1.0000 0.0000
vn 0.0000 1.0000 0.0000
vn 0.0000 1.0000 0.0000
vn 0.0000 1.0000 0.0000
vn -0.0000 1.0000 0.0000
vn -0.0000 1.0000 0.0000
vn -0.0000 1.0000 0.0000
vn -0.0000 1.0000 -0.0000
vn -0.0000 1.0000 -0.0000
vn -0.0000 1.0000 -0.0000
vn 0.0000 1.0000 -0.0000
vn 0.0000 1.0000 -0.0000
vn 0.0000 1.0000 -0.0000
vn 0.3827 0.9239 0.0000
vn 0.3314 0.9239 0.1913
vn 0.1913 0.9239 0.3314
vn 0.0000 0.9239 0.3827
vn -0.1913 0.9239 0.3314
vn -0.3314 0.9239 0.1913
vn -0.3827 0.9239 0.0000
vn -0.3314 0.9239 -0.1913
vn -0.1913 0.9239 -0.3314
vn -0.0000 0.9239 -0.3827
vn 0.1913 0.9239 -0.3314
vn 0.3314 0.9239 -0.1913
vn 0.3827 0.9239 -0.0000
vn 0.7071 0.7071 0.0000
vn 0.6124 0.7071 0.3536
vn 0.3536 0.7071 0.6124
vn 0.0000 0.7071 0.7071
vn -0.3536 0.7071 0.6124
vn -0.6124 0.7071 0.3536
vn -0.7071 0.7071 0.0000
vn -0.6124 0.7071 -0.3536
vn -0.3536 0.7071 -0.6124
vn -0.0000 0.7071 -0.7071
vn 0.3536 0.7071 -0.6124
vn 0.6124 0.7071 -0.3536
vn 0.7071 0.7071 -0.0000
vn 0.9239 0.3827 0.0000
vn 0.8001 0.3827 0.4619
vn 0.4619 0.3827 0.8001
vn 0.0000 0.3827 0.9239
vn -0.4619 0.3827 0.8001
vn -0.8001 0.3827 0.4619
vn -0.9239 0.3827 0.0000
vn -0.8001 0.3827 -0.4619
vn -0.4619 0.3827 -0.8001
vn -0.0000 0.3827 -0.9239
vn 0.4619 0.3827 -0.8001
vn 0.8001 0.3827 -0.4619
vn 0.9239 0.3827 -0.0000
vn 1.0000 0.0000 0.0000
vn 0.8660 0.0000 0.5000
vn 0.5000 0.0000 0.8660
vn 0.0000 0.0000 1.0000
vn -0.5000 0.0000 0.8660
vn -0.8660 0.0000 0.5000
vn -1.0000 0.0000 0.0000
vn -0.8660 0.0000 -0.5000
vn -0.5000 0.0000 -0.8660
vn -0.0000 0.0000 -1.0000
vn 0.5000 0.0000 -0.8660
vn 0.8660 0.0000 -0.5000
vn 1.0000 0.0000 -0.0000
vn 0.9239 -0.3827 0.0000
vn 0.8001 -0.3827 0.4619
vn 0.4619 -0.3827 0.8001
vn 0.0000 -0.3827 0.9239
vn -0.4619 -0.3827 0.8001
vn -0.8001 -0.3827 0.4619
vn -0.9239 -0.3827 0.0000
vn -0.8001 -0.3827 -0.4619
vn -0.4619 -0.3827 -0.8001
vn -0.0000 -0.3827 -0.9239
vn 0.4619 -0.3827 -0.8001
vn 0.8001 -0.3827 -0.4619
vn 0.9239 -0.3827 -0.0000
vn 0.7071 -0.7071 0.0000
vn 0.6124 -0.7071 0.3536
vn 0.3536 -0.7071 0.6124
vn 0.0000 -0.7071 0.7071
vn -0.3536 -0.7071 0.6124
vn -0.6124 -0.7071 0.3536
vn -0.7071 -0.7071 0.0000
vn -0.6124 -0.7071 -0.3536
vn -0.3536 -0.7071 -0.6124
vn -0.0000 -0.7071 -0.7071
vn 0.3536 -0.7071 -0.6124
vn 0.6124 -0.7071 -0.3536
vn 0.7071 -0.7071 -0.0000
vn 0.3827 -0.9239 0.0000
vn 0.3314 -0.9239 0.1913
vn 0.1913 -0.9239 0.3314
vn 0.0000 -0.9239 0.3827
vn -0.1913 -0.9239 0.3314
vn -0.3314 -0.9239 0.1913
vn -0.3827 -0.9239 0.0000
vn -0.3314 -0.9239 -0.1913
vn -0.1913 -0.9239 -0.3314
vn -0.0000 -0.9239 -0.3827
vn 0.1913 -0.9239 -0.3314
vn 0.3314 -0.9239 -0.1913
vn 0.3827 -0.9239 -0.0000
vn 0.0000 -1.0000 0.0000
vn 0.0000 -1.0000 0.0000
vn 0.0000 -1.0000 0.0000
vn 0.0000 -1.0000 0.0000
vn -0.0000 -1.0000 0.0000
vn -0.0000 -1.0000 0.0000
vn -0.0000 -1.0000 0.0000
vn -0.0000 -1.0000 -0.0000
vn -0.0000 -1.0000 -0.0000
vn -0.0000 -1.0000 -0.0000
vn 0.0000 -1.0000 -0.0000
vn 0.0000 -1.0000 -0.0000
vn 0.0000 -1.0000 -0.0000
vn 0.0000 1.0000 0.0000
vn 0.0000 1.0000 0.0000
vn 0.0000 1.0000 0.0000
vn 0.0000 1.0000 0.0000
vn -0.0000 1.0000 0.0000
vn -0.0000 1.0000 0.0000
vn -0.0000 1.0000 0.0000
vn -0.0000 1.0000 -0.0000
vn -0.0000 1.0000 -0.0000
vn -0.0000 1.0000 -0.0000
vn 0.0000 1.0000 -0.0000
vn 0.0000 1.0000 -0.0000
vn 0.0000 1.0000 -0.0000
vn 0.3827 0.9239 0.0000
vn 0.3314 0.9239 0.1913
vn 0.1913 0.9239 0.3314
vn 0.0000 0.9239 0.3827
vn -0.1913 0.9239 0.3314
vn -0.3314 0.9239 0.1913
vn -0.3827 0.9239 0.0000
vn -0.3314 0.9239 -0.1913
vn -0.1913 0.9239 -0.3314
vn -0.0000 0.9239 -0.3827
vn 0.1913 0.9239 -0.3314
vn 0.3314 0.9239 -0.1913
vn 0.3827 0.9239 -0.0000
vn 0.7071 0.7071 0.0000
vn 0.6124 0.7071 0.3536
vn 0.3536 0.7071 0.6124
vn 0.0000 0.7071 0.7071
vn -0.3536 0.7071 0.6124
vn -0.6124 0.7071 0.3536
vn -0.7071 0.7071 0.0000
vn -0.6124 0.7071 -0.3536
vn -0.3536 0.7071 -0.6124
vn -0.0000 0.7071 -0.7071
vn 0.3536 0.7071 -0.6124
vn 0.6124 0.7071 -0.3536
vn 0.7071 0.7071 -0.0000
vn 0.9239 0.3827 0.0000
vn 0.8001 0.3827 0.4619
vn 0.4619 0.3827 0.8001
vn 0.0000 0.3827 0.9239
vn -0.4619 0.3827 0.8001
vn -0.8001 0.3827 0.4619
vn -0.9239 0.3827 0.0000
vn -0.8001 0.3827 -0.4619
vn -0.4619 0.3827 -0.8001
vn -0.0000 0.3827 -0.9239
vn 0.4619 0.3827 -0.8001
vn 0.8001 0.3827 -0.4619
vn 0.9239 0.3827 -0.0000
vn 1.0000 0.0000 0.0000
vn 0.8660 0.0000 0.5000
vn 0.5000 0.0000 0.8660
vn 0.0000 0.0000 1.0000
vn -0.5000 0.0000 0.8660
vn -0.8660 0.0000 0.5000
vn -1.0000 0.0000 0.0000
vn -0.8660 0.0000 -0.5000
vn -0.5000 0.0000 -0.8660
vn -0.0000 0.0000 -1.0000
vn 0.5000 0.0000 -0.8660
vn 0.8660 0.0000 -0.5000
vn 1.0000 0.0000 -0.0000
vn 0.9239 -0.3827 0.0000
vn 0.8001 -0.3827 0.4619
vn 0.4619 -0.3827 0.8001
vn 0.0000 -0.3827 0.9239
vn -0.4619 -0.3827 0.8001
vn -0.8001 -0.3827 0.4619
vn -0.9239 -0.3827 0.0000
vn -0.8001 -0.3827 -0.4619
vn -0.4619 -0.3827 -0.8001
vn -0.0000 -0.3827 -0.9239
vn 0.4619 -0.3827 -0.8001
vn 0.8001 -0.3827 -0.4619
vn 0.9239 -0.3827 -0.0000
vn 0.7071 -0.7071 0.0000
vn 0.6124 -0.7071 0.3536
vn 0.3536 -0.7071 0.6124
vn 0.0000 -0.7071 0.7071
vn -0.3536 -0.7071 0.6124
vn -0.6124 -0.7071 0.3536
vn -0.7071 -0.7071 0.0000
vn -0.6124 -0.7071 -0.3536
vn -0.3536 -0.7071 -0.6124
vn -0.0000 -0.7071 -0.7071
vn 0.3536 -0.7071 -0.6124
vn 0.6124 -0.7071 -0.3536
vn 0.7071 -0.7071 -0.0000
vn 0.3827 -0.9239 0.0000
vn 0.3314 -0.9239 0.1913
vn 0.1913 -0.9239 0.3314
vn 0.0000 -0.9239 0.3827
vn -0.1913 -0.9239 0.3314
vn -0.3314 -0.9239 0.1913
vn -0.3827 -0.9239 0.0000
vn -0.3314 -0.9239 -0.1913
vn -0.1913 -0.9239 -0.3314
vn -0.0000 -0.9239 -0.3827
vn 0.1913 -0.9239 -0.3314
vn 0.3314 -0.9239 -0.1913
vn 0.3827 -0.9239 -0.0000
vn 0.0000 -1.0000 0.0000
vn 0.0000 -1.0000 0.0000
vn 0.0000 -1.0000 0.0000
vn 0.0000 -1.0000 0.0000
vn -0.0000 -1.0000 0.0000
vn -0.0000 -1.0000 0.0000
vn -0.0000 -1.0000 0.0000
vn -0.0000 -1.0000 -0.0000
vn -0.0000 -1.0000 -0.0000
vn -0.0000 -1.0000 -0.0000
vn 0.0000 -1.0000 -0.0000
vn 0.0000 -1.0000 -0.0000
vn 0.0000 -1.0000 -0.0000
vn 0.0198 -0.1977 -0.9801
vn 0.0198 -0.1977 -0.9801
vn 0.0198 -0.1977 -0.9801
vn 0.0198 -0.1977 -0.9801
vn -0.0198 0.1977 0.9801
vn -0.0198 0.1977 0.9801
vn -0.0198 0.1977 0.9801
vn -0.0198 0.1977 0.9801
vn -0.9950 -0.0998 0.0000
vn -0.9950 -0.0998 0.0000
vn -0.9950 -0.0998 0.0000
vn -0.9950 -0.0998 0.0000
vn 0.9950 0.0998 0.0000
vn 0.9950 0.0998 0.0000
vn 0.9950 0.0998 0.0000
vn 0.9950 0.0998 0.0000
vn -0.0978 0.9752 -0.1987
vn -0.0978 0.9752 -0.1987
vn -0.0978 0.9752 -0.1987
vn -0.0978 0.9752 -0.1987
vn 0.0978 -0.9752 0.1987
vn 0.0978 -0.9752 0.1987
vn 0.0978 -0.9752 0.1987
vn 0.0978 -0.9752 0.1987
vn -0.0198 -0.1977 -0.9801
vn -0.0198 -0.1977 -0.9801
vn -0.0198 -0.1977 -0.9801
vn -0.0198 -0.1977 -0.9801
vn 0.0198 0.1977 0.9801
vn 0.0198 0.1977 0.9801
vn 0.0198 0.1977 0.9801
vn 0.0198 0.1977 0.9801
vn -0.9950 0.0998 0.0000
vn -0.9950 0.0998 0.0000
vn -0.9950 0.0998 0.0000
vn -0.9950 0.0998 0.0000
vn 0.9950 -0.0998 0.0000
vn 0.9950 -0.0998 0.0000
vn 0.9950 -0.0998 0.0000
vn 0.9950 -0.0998 0.0000
vn 0.0978 0.9752 -0.1987
vn 0.0978 0.9752 -0.1987
vn 0.0978 0.9752 -0.1987
vn 0.0978 0.9752 -0.1987
vn -0.0978 -0.9752 0.1987
vn -0.0978 -0.9752 0.1987
vn -0.0978 -0.9752 0.1987
vn -0.0978 -0.9752 0.1987
vn 0.0000 1.0000 0.0000
vn 0.0000 1.0000 0.0000
vn 0.0000 1.0000 0.0000
vn 0.0000 1.0000 0.0000
vn 0.0000 1.0000 0.0000
vn 0.0000 1.0000 0.0000
vn 0.0000 1.0000 0.0000
vn 0.0000 1.0000 0.0000
vn 0.0000 1.0000 0.0000
vn 0.0000 1.0000 0.0000
vn 0.0000 1.0000 0.0000
vn 0.0000 1.0000 0.0000
vn 0.0000 1.0000 0.0000
vn 0.0000 -1.0000 0.0000
vn 0.0000 -1.0000 0.0000
vn 0.0000 -1.0000 0.0000
vn 0.0000 -1.0000 0.0000
vn 0.0000 -1.0000 0.0000
vn 0.0000 -1.0000 0.0000
vn 0.0000 -1.0000 0.0000
vn 0.0000 -1.0000 0.0000
vn 0.0000 -1.0000 0.0000
vn 0.0000 -1.0000 0.0000
vn 0.0000 -1.0000 0.0000
vn 0.0000 -1.0000 0.0000
vn 0.0000 -1.0000 0.0000
vn 1.0000 0.0000 0.0000
vn 1.0000 0.0000 0.0000
vn 0.8660 0.0000 0.5000
vn 0.8660 0.0000 0.5000
vn 0.5000 0.0000 0.8660
vn 0.5000 0.0000 0.8660
vn 0.0000 0.0000 1.0000
vn 0.0000 0.0000 1.0000
vn -0.5000 0.0000 0.8660
vn -0.5000 0.0000 0.8660
vn -0.8660 0.0000 0.5000
vn -0.8660 0.0000 0.5000
vn -1.0000 0.0000 0.0000
vn -1.0000 0.0000 0.0000
vn -0.8660 0.0000 -0.5000
vn -0.8660 0.0000 -0.5000
vn -0.5000 0.0000 -0.8660
vn -0.5000 0.0000 -0.8660
vn -0.0000 0.0000 -1.0000
vn -0.0000 0.0000 -1.0000
vn 0.5000 0.0000 -0.8660
vn 0.5000 0.0000 -0.8660
vn 0.8660 0.0000 -0.5000
vn 0.8660 0.0000 -0.5000
vn 1.0000 0.0000 -0.0000
vn 1.0000 0.0000 -0.0000
vn 0.0000 1.0000 0.0000
vn 0.0000 1.0000 0.0000
vn 0.0000 1.0000 0.0000
vn 0.0000 1.0000 0.0000
vn 0.0000 1.0000 0.0000
vn 0.0000 1.0000 0.0000
vn 0.0000 1.0000 0.0000
vn 0.0000 1.0000 0.0000
vn 0.0000 1.0000 0.0000
vn 0.0000 1.0000 0.0000
vn 0.0000 1.0000 0.0000
vn 0.0000 1.0000 0.0000
vn 0.0000 1.0000 0.0000
vn 0.0000 -1.0000 0.0000
vn 0.0000 -1.0000 0.0000
vn 0.0000 -1.0000 0.0000
vn 0.0000 -1.0000 0.0000
vn 0.0000 -1.0000 0.0000
vn 0.0000 -1.0000 0.0000
vn 0.0000 -1.0000 0.0000
vn 0.0000 -1.0000 0.0000
vn 0.0000 -1.0000 0.0000
vn 0.0000 -1.0000 0.0000
vn 0.0000 -1.0000 0.0000
vn 0.0000 -1.0000 0.0000
vn 0.0000 -1.0000 0.0000
vn 1.0000 0.0000 0.0000
vn 1.0000 0.0000 0.0000
vn 0.8660 0.0000 0.5000
vn 0.8660 0.0000 0.5000
vn 0.5000 0.0000 0.8660
vn 0.5000 0.0000 0.8660
vn 0.0000 0.0000 1.0000
vn 0.0000 0.0000 1.0000
vn -0.5000 0.0000 0.8660
vn -0.5000 0.0000 0.8660
vn -0.8660 0.0000 0.5000
vn -0.8660 0.0000 0.5000
vn -1.0000 0.0000 0.0000
vn -1.0000 0.0000 0.0000
vn -0.8660 0.0000 -0.5000
vn -0.8660 0.0000 -0.5000
vn -0.5000 0.0000 -0.8660
vn -0.5000 0.0000 -0.8660
vn -0.0000 0.0000 -1.0000
vn -0.0000 0.0000 -1.0000
vn 0.5000 0.0000 -0.8660
vn 0.5000 0.0000 -0.8660
vn 0.8660 0.0000 -0.5000
vn 0.8660 0.0000 -0.5000
vn 1.0000 0.0000 -0.0000
vn 1.0000 0.0000 -0.0000
vn 0.0000 1.0000 0.0000
vn 0.0000 1.0000 0.0000
vn 0.0000 1.0000 0.0000
vn 0.0000 1.0000 0.0000
vn 0.0000 1.0000 0.0000
vn 0.0000 1.0000 0.0000
vn 0.0000 1.0000 0.0000
vn 0.0000 1.0000 0.0000
vn 0.0000 1.0000 0.0000
vn 0.0000 1.0000 0.0000
vn 0.0000 1.0000 0.0000
vn 0.0000 1.0000 0.0000
vn 0.0000 1.0000 0.0000
vn 0.0000 -1.0000 0.0000
vn 0.0000 -1.0000 0.0000
vn 0.0000 -1.0000 0.0000
vn 0.0000 -1.0000 0.0000
vn 0.0000 -1.0000 0.0000
vn 0.0000 -1.0000 0.0000
vn 0.0000 -1.0000 0.0000
vn 0.0000 -1.0000 0.0000
vn 0.0000 -1.0000 0.0000
vn 0.0000 -1.0000 0.0000
vn 0.0000 -1.0000 0.0000
vn 0.0000 -1.0000 0.0000
vn 0.0000 -1.0000 0.0000
vn 1.0000 0.0000 0.0000
vn 1.0000 0.0000 0.0000
vn 0.8660 0.0000 0.5000
vn 0.8660 0.0000 0.5000
vn 0.5000 0.0000 0.8660
vn 0.5000 0.0000 0.8660
vn 0.0000 0.0000 1.0000
vn 0.0000 0.0000 1.0000
vn -0.5000 0.0000 0.8660
vn -0.5000 0.0000 0.8660
vn -0.8660 0.0000 0.5000
vn -0.8660 0.0000 0.5000
vn -1.0000 0.0000 0.0000
vn -1.0000 0.0000 0.0000
vn -0.8660 0.0000 -0.5000
vn -0.8660 0.0000 -0.5000
vn -0.5000 0.0000 -0.8660
vn -0.5000 0.0000 -0.8660
vn -0.0000 0.0000 -1.0000
vn -0.0000 0.0000 -1.0000
vn 0.5000 0.0000 -0.8660
vn 0.5000 0.0000 -0.8660
vn 0.8660 0.0000 -0.5000
vn 0.8660 0.0000 -0.5000
vn 1.0000 0.0000 -0.0000
vn 1.0000 0.0000 -0.0000
vn 0.0000 1.0000 0.0000
vn 0.0000 1.0000 0.0000
vn 0.0000 1.0000 0.0000
vn 0.0000 1.0000 0.0000
vn 0.0000 1.0000 0.0000
vn 0.0000 1.0000 0.0000
vn 0.0000 1.0000 0.0000
vn 0.0000 1.0000 0.0000
vn 0.0000 1.0000 0.0000
vn 0.0000 1.0000 0.0000
vn 0.0000 1.0000 0.0000
vn 0.0000 1.0000 0.0000
vn 0.0000 1.0000 0.0000
vn 0.0000 -1.0000 0.0000
vn 0.0000 -1.0000 0.0000
vn 0.0000 -1.0000 0.0000
vn 0.0000 -1.0000 0.0000
vn 0.0000 -1.0000 0.0000
vn 0.0000 -1.0000 0.0000
vn 0.0000 -1.0000 0.0000
vn 0.0000 -1.0000 0.0000
vn 0.0000 -1.0000 0.0000
vn 0.0000 -1.0000 0.0000
vn 0.0000 -1.0000 0.0000
vn 0.0000 -1.0000 0.0000
vn 0.0000 -1.0000 0.0000
vn 1.0000 0.0000 0.0000
vn 1.0000 0.0000 0.0000
vn 0.8660 0.0000 0.5000
vn 0.8660 0.0000 0.5000
vn 0.5000 0.0000 0.8660
vn 0.5000 0.0000 0.8660
vn 0.0000 0.0000 1.0000
vn 0.0000 0.0000 1.0000
vn -0.5000 0.0000 0.8660
vn -0.5000 0.0000 0.8660
vn -0.8660 0.0000 0.5000
vn -0.8660 0.0000 0.5000
vn -1.0000 0.0000 0.0000
vn -1.0000 0.0000 0.0000
vn -0.8660 0.0000 -0.5000
vn -0.8660 0.0000 -0.5000
vn -0.5000 0.0000 -0.8660
vn -0.5000 0.0000 -0.8660
vn -0.0000 0.0000 -1.0000
vn -0.0000 0.0000 -1.0000
vn 0.5000 0.0000 -0.8660
vn 0.5000 0.0000 -0.8660
vn 0.8660 0.0000 -0.5000
vn 0.8660 0.0000 -0.5000
vn 1.0000 0.0000 -0.0000
vn 1.0000 0.0000 -0.0000
vn 0.0000 1.0000 0.0000
vn 0.0000 1.0000 0.0000
vn 0.0000 1.0000 0.0000
vn 0.0000 1.0000 0.0000
vn -0.0000 1.0000 0.0000
vn -0.0000 1.0000 0.0000
vn -0.0000 1.0000 0.0000
vn -0.0000 1.0000 -0.0000
vn -0.0000 1.0000 -0.0000
vn -0.0000 1.0000 -0.0000
vn 0.0000 1.0000 -0.0000
vn 0.0000 1.0000 -0.0000
vn 0.0000 1.0000 -0.0000
vn 0.3827 0.9239 0.0000
vn 0.3314 0.9239 0.1913
vn 0.1913 0.9239 0.3314
vn 0.0000 0.9239 0.3827
vn -0.1913 0.9239 0.3314
vn -0.3314 0.9239 0.1913
vn -0.3827 0.9239 0.0000
vn -0.3314 0.9239 -0.1913
vn -0.1913 0.9239 -0.3314
vn -0.0000 0.9239 -0.3827
vn 0.1913 0.9239 -0.3314
vn 0.3314 0.9239 -0.1913
vn 0.3827 0.9239 -0.0000
vn 0.7071 0.7071 0.0000
vn 0.6124 0.7071 0.3536
vn 0.3536 0.7071 0.6124
vn 0.0000 0.7071 0.7071
vn -0.3536 0.7071 0.6124
vn -0.6124 0.7071 0.3536
vn -0.7071 0.7071 0.0000
vn -0.6124 0.7071 -0.3536
vn -0.3536 0.7071 -0.6124
vn -0.0000 0.7071 -0.7071
vn 0.3536 0.7071 -0.6124
vn 0.6124 0.7071 -0.3536
vn 0.7071 0.7071 -0.0000
vn 0.9239 0.3827 0.0000
vn 0.8001 0.3827 0.4619
vn 0.4619 0.3827 0.8001
vn 0.0000 0.3827 0.9239
vn -0.4619 0.3827 0.8001
vn -0.8001 0.3827 0.4619
vn -0.9239 0.3827 0.0000
vn -0.8001 0.3827 -0.4619
vn -0.4619 0.3827 -0.8001
vn -0.0000 0.3827 -0.9239
vn 0.4619 0.3827 -0.8001
vn 0.8001 0.3827 -0.4619
vn 0.9239 0.3827 -0.0000
vn 1.0000 0.0000 0.0000
vn 0.8660 0.0000 0.5000
vn 0.5000 0.0000 0.8660
vn 0.0000 0.0000 1.0000
vn -0.5000 0.0000 0.8660
vn -0.8660 0.0000 0.5000
vn -1.0000 0.0000 0.0000
vn -0.8660 0.0000 -0.5000
vn -0.5000 0.0000 -0.8660
vn -0.0000 0.0000 -1.0000
vn 0.5000 0.0000 -0.8660
vn 0.8660 0.0000 -0.5000
vn 1.0000 0.0000 -0.0000
vn 0.9239 -0.3827 0.0000
vn 0.8001 -0.3827 0.4619
vn 0.4619 -0.3827 0.8001
vn 0.0000 -0.3827 0.9239
vn -0.4619 -0.3827 0.8001
vn -0.8001 -0.3827 0.4619
vn -0.9239 -0.3827 0.0000
vn -0.8001 -0.3827 -0.4619
vn -0.4619 -0.3827 -0.8001
vn -0.0000 -0.3827 -0.9239
vn 0.4619 -0.3827 -0.8001
vn 0.8001 -0.3827 -0.4619
vn 0.9239 -0.3827 -0.0000
vn 0.7071 -0.7071 0.0000
vn 0.6124 -0.7071 0.3536
vn 0.3536 -0.7071 0.6124
vn 0.0000 -0.7071 0.7071
vn -0.3536 -0.7071 0.6124
vn -0.6124 -0.7071 0.3536
vn -0.7071 -0.7071 0.0000
vn -0.6124 -0.7071 -0.3536
vn -0.3536 -0.7071 -0.6124
vn -0.0000 -0.7071 -0.7071
vn 0.3536 -0.7071 -0.6124
vn 0.6124 -0.7071 -0.3536
vn 0.7071 -0.7071 -0.0000
vn 0.3827 -0.9239 0.0000
vn 0.3314 -0.9239 0.1913
vn 0.1913 -0.9239 0.3314
vn 0.0000 -0.9239 0.3827
vn -0.1913 -0.9239 0.3314
vn -0.3314 -0.9239 0.1913
vn -0.3827 -0.9239 0.0000
vn -0.3314 -0.9239 -0.1913
vn -0.1913 -0.9239 -0.3314
vn -0.0000 -0.9239 -0.3827
vn 0.1913 -0.9239 -0.3314
vn 0.3314 -0.9239 -0.1913
vn 0.3827 -0.9239 -0.0000
vn 0.0000 -1.0000 0.0000
vn 0.0000 -1.0000 0.0000
vn 0.0000 -1.0000 0.0000
vn 0.0000 -1.0000 0.0000
vn -0.0000 -1.0000 0.0000
vn -0.0000 -1.0000 0.0000
vn -0.0000 -1.0000 0.0000
vn -0.0000 -1.0000 -0.0000
vn -0.0000 -1.0000 -0.0000
vn -0.0000 -1.0000 -0.0000
vn 0.0000 -1.0000 -0.0000
vn 0.0000 -1.0000 -0.0000
vn 0.0000 -1.0000 -0.0000
f 1/1/1 14/14/14 2/2/2
f 2/2/2 14/14/14 15/15/15
f 2/2/2 15/15/15 3/3/3
f 3/3/3 15/15/15 16/16/16
f 3/3/3 16/16/16 4/4/4
f 4/4/4 16/16/16 17/17/17
f 4/4/4 17/17/17 5/5/5
f 5/5/5 17/17/17 18/18/18
f 5/5/5 18/18/18 6/6/6
f 6/6/6 18/18/18 19/19/19
f 6/6/6 19/19/19 7/7/7
f 7/7/7 19/19/19 20/20/20
f 7/7/7 20/20/20 8/8/8
f 8/8/8 20/20/20 21/21/21
f 8/8/8 21/21/21 9/9/9
f 9/9/9 21/21/21 22/22/22
f 9/9/9 22/22/22 10/10/10
f 10/10/10 22/22/22 23/23/23
f 10/10/10 23/23/23 11/11/11
f 11/11/11 23/23/23 24/24/24
f 11/11/11 24/24/24 12/12/12
f 12/12/12 24/24/24 25/25/25
f 12/12/12 25/25/25 13/13/13
f 13/13/13 25/25/25 26/26/26
f 14/14/14 27/27/27 15/15/15
f 15/15/15 27/27/27 28/28/28
f 15/15/15 28/28/28 16/16/16
f 16/16/16 28/28/28 29/29/29
f 16/16/16 29/29/29 17/17/17
f 17/17/17 29/29/29 30/30/30
f 17/17/17 30/30/30 18/18/18
f 18/18/18 30/30/30 31/31/31
f 18/18/18 31/31/31 19/19/19
f 19/19/19 31/31/31 32/32/32
f 19/19/19 32/32/32 20/20/20
f 20/20/20 32/32/32 33/33/33
f 20/20/20 33/33/33 21/21/21
f 21/21/21 33/33/33 34/34/34
f 21/21/21 34/34/34 22/22/22
f 22/22/22 34/34/34 35/35/35
f 22/22/22 35/35/35 23/23/23
f 23/23/23 35/35/35 36/36/36
f 23/23/23 36/36/36 24/24/24
f 24/24/24 36/36/36 37/37/37
f 24/24/24 37/37/37 25/25/25
f 25/25/25 37/37/37 38/38/38
f 25/25/25 38/38/38 26/26/26
f 26/26/26 38/38/38 39/39/39
f 27/27/27 40/40/40 28/28/28
f 28/28/28 40/40/40 41/41/41
f 28/28/28 41/41/41 29/29/29
f 29/29/29 41/41/41 42/42/42
f 29/29/29 42/42/42 30/30/30
f 30/30/30 42/42/42 43/43/43
f 30/30/30 43/43/43 31/31/31
f 31/31/31 43/43/43 44/44/44
f 31/31/31 44/44/44 32/32/32
f 32/32/32 44/44/44 45/45/45
f 32/32/32 45/45/45 33/33/33
f 33/33/33 45/45/45 46/46/46
f 33/33/33 46/46/46 34/34/34
f 34/34/34 46/46/46 47/47/47
f 34/34/34 47/47/47 35/35/35
f 35/35/35 47/47/47 48/48/48
f 35/35/35 48/48/48 36/36/36
f 36/36/36 48/48/48 49/49/49
f 36/36/36 49/49/49 37/37/37
f 37/37/37 49/49/49 50/50/50
f 37/37/37 50/50/50 38/38/38
f 38/38/38 50/50/50 51/51/51
f 38/38/38 51/51/51 39/39/39
f 39/39/39 51/51/51 52/52/52
f 40/40/40 53/53/53 41/41/41
f 41/41/41 53/53/53 54/54/54
f 41/41/41 54/54/54 42/42/42
f 42/42/42 54/54/54 55/55/55
f 42/42/42 55/55/55 43/43/43
f 43/43/43 55/55/55 56/56/56
f 43/43/43 56/56/56 44/44/44
f 44/44/44 56/56/56 57/57/57
f 44/44/44 57/57/57 45/45/45
f 45/45/45 57/57/57 58/58/58
f 45/45/45 58/58/58 46/46/46
f 46/46/46 58/58/58 59/59/59
f 46/46/46 59/59/59 47/47/47
f 47/47/47 59/59/59 60/60/60
f 47/47/47 60/60/60 48/48/48
f 48/48/48 60/60/60 61/61/61
f 48/48/48 61/61/61 49/49/49
f 49/49/49 61/61/61 62/62/62
f 49/49/49 62/62/62 50/50/50
f 50/50/50 62/62/62 63/63/63
f 50/50/50 63/63/63 51/51/51
f 51/51/51 63/63/63 64/64/64
f 51/51/51 64/64/64 52/52/52
f 52/52/52 64/64/64 65/65/65
f 53/53/53 66/66/66 54/54/54
f 54/54/54 66/66/66 67/67/67
f 54/54/54 67/67/67 55/55/55
f 55/55/55 67/67/67 68/68/68
f 55/55/55 68/68/68 56/56/56
f 56/56/56 68/68/68 69/69/69
f 56/56/56 69/69/69 57/57/57
f 57/57/57 69/69/69 70/70/70
f 57/57/57 70/70/70 58/58/58
f 58/58/58 70/70/70 71/71/71
f 58/58/58 71/71/71 59/59/59
f 59/59/59 71/71/71 72/72/72
f 59/59/59 72/72/72 60/60/60
f 60/60/60 72/72/72 73/73/73
f 60/60/60 73/73/73 61/61/61
f 61/61/61 73/73/73 74/74/74
f 61/61/61 74/74/74 62/62/62
f 62/62/62 74/74/74 75/75/75
f 62/62/62 75/75/75 63/63/63
f 63/63/63 75/75/75 76/76/76
f 63/63/63 76/76/76 64/64/64
f 64/64/64 76/76/76 77/77/77
f 64/64/64 77/77/77 65/65/65
f 65/65/65 77/77/77 78/78/78
f 66/66/66 79/79/79 67/67/67
f 67/67/67 79/79/79 80/80/80
f 67/67/67 80/80/80 68/68/68
f 68/68/68 80/80/80 81/81/81
f 68/68/68 81/81/81 69/69/69
f 69/69/69 81/81/81 82/82/82
f 69/69/69 82/82/82 70/70/70
f 70/70/70 82/82/82 83/83/83
f 70/70/70 83/83/83 71/71/71
f 71/71/71 83/83/83 84/84/84
f 71/71/71 84/84/84 72/72/72
f 72/72/72 84/84/84 85/85/85
f 72/72/72 85/85/85 73/73/73
f 73/73/73 85/85/85 86/86/86
f 73/73/73 86/86/86 74/74/74
f 74/74/74 86/86/86 87/87/87
f 74/74/74 87/87/87 75/75/75
f 75/75/75 87/87/87 88/88/88
f 75/75/75 88/88/88 76/76/76
f 76/76/76 88/88/88 89/89/89
f 76/76/76 89/89/89 77/77/77
f 77/77/77 89/89/89 90/90/90
f 77/77/77 90/90/90 78/78/78
f 78/78/78 90/90/90 91/91/91
f 79/79/79 92/92/92 80/80/80
f 80/80/80 92/92/92 93/93/93
f 80/80/80 93/93/93 81/81/81
f 81/81/81 93/93/93 94/94/94
f 81/81/81 94/94/94 82/82/82
f 82/82/82 94/94/94 95/95/95
f 82/82/82 95/95/95 83/83/83
f 83/83/83 95/95/95 96/96/96
f 83/83/83 96/96/96 84/84/84
f 84/84/84 96/96/96 97/97/97
f 84/84/84 97/97/97 85/85/85
f 85/85/85 97/97/97 98/98/98
f 85/85/85 98/98/98 86/86/86
f 86/86/86 98/98/98 99/99/99
f 86/86/86 99/99/99 87/87/87
f 87/87/87 99/99/99 100/100/100
f 87/87/87 100/100/100 88/88/88
f 88/88/88 100/100/100 101/101/101
f 88/88/88 101/101/101 89/89/89
f 89/89/89 101/101/101 102/102/102
f 89/89/89 102/102/102 90/90/90
f 90/90/90 102/102/102 103/103/103
f 90/90/90 103/103/103 91/91/91
f 91/91/91 103/103/103 104/104/104
f 92/92/92 105/105/105 93/93/93
f 93/93/93 105/105/105 106/106/106
f 93/93/93 106/106/106 94/94/94
f 94/94/94 106/106/106 107/107/107
f 94/94/94 107/107/107 95/95/95
f 95/95/95 107/107/107 108/108/108
f 95/95/95 108/108/108 96/96/96
f 96/96/96 108/108/108 109/109/109
f 96/96/96 109/109/109 97/97/97
f 97/97/97 109/109/109 110/110/110
f 97/97/97 110/110/110 98/98/98
f 98/98/98 110/110/110 111/111/111
f 98/98/98 111/111/111 99/99/99
f 99/99/99 111/111/111 112/112/112
f 99/99/99 112/112/112 100/100/100
f 100/100/100 112/112/112 113/113/113
f 100/100/100 113/113/113 101/101/101
f 101/101/101 113/113/113 114/114/114
f 101/101/101 114/114/114 102/102/102
f 102/102/102 114/114/114 115/115/115
f 102/102/102 115/115/115 103/103/103
f 103/103/103 115/115/115 116/116/116
f 103/103/103 116/116/116 104/104/104
f 104/104/104 116/116/116 117/117/117
f 118/118/118 131/131/131 119/119/119
f 119/119/119 131/131/131 132/132/132
f 119/119/119 132/132/132 120/120/120
f 120/120/120 132/132/132 133/133/133
f 120/120/120 133/133/133 121/121/121
f 121/121/121 133/133/133 134/134/134
f 121/121/121 134/134/134 122/122/122
f 122/122/122 134/134/134 135/135/135
f 122/122/122 135/135/135 123/123/123
f 123/123/123 135/135/135 136/136/136
f 123/123/123 136/136/136 124/124/124
f 124/124/124 136/136/136 137/137/137
f 124/124/124 137/137/137 125/125/125
f 125/125/125 137/137/137 138/138/138
f 125/125/125 138/138/138 126/126/126
f 126/126/126 138/138/138 139/139/139
f 126/126/126 139/139/139 127/127/127
f 127/127/127 139/139/139 140/140/140
f 127/127/127 140/140/140 128/128/128
f 128/128/128 140/140/140 141/141/141
f 128/128/128 141/141/141 129/129/129
f 129/129/129 141/141/141 142/142/142
f 129/129/129 142/142/142 130/130/130
f 130/130/130 142/142/142 143/143/143
f 131/131/131 144/144/144 132/132/132
f 132/132/132 144/144/144 145/145/145
f 132/132/132 145/145/145 133/133/133
f 133/133/133 145/145/145 146/146/146
f 133/133/133 146/146/146 134/134/134
f 134/134/134 146/146/146 147/147/147
f 134/134/134 147/147/147 135/135/135
f 135/135/135 147/147/147 148/148/148
f 135/135/135 148/148/148 136/136/136
f 136/136/136 148/148/148 149/149/149
f 136/136/136 149/149/149 137/137/137
f 137/137/137 149/149/149 150/150/150
f 137/137/137 150/150/150 138/138/138
f 138/138/138 150/150/150 151/151/151
f 138/138/138 151/151/151 139/139/139
f 139/139/139 151/151/151 152/152/152
f 139/139/139 152/152/152 140/140/140
f 140/140/140 152/152/152 153/153/153
f 140/140/140 153/153/153 141/141/141
f 141/141/141 153/153/153 154/154/154
f 141/141/141 154/154/154 142/142/142
f 142/142/142 154/154/154 155/155/155
f 142/142/142 155/155/155 143/143/143
f 143/143/143 155/155/155 156/156/156
f 144/144/144 157/157/157 145/145/145
f 145/145/145 157/157/157 158/158/158
f 145/145/145 158/158/158 146/146/146
f 146/146/146 158/158/158 159/159/159
f 146/146/146 159/159/159 147/147/147
f 147/147/147 159/159/159 160/160/160
f 147/147/147 160/160/160 148/148/148
f 148/148/148 160/160/160 161/161/161
f 148/148/148 161/161/161 149/149/149
f 149/149/149 161/161/161 162/162/162
f 149/149/149 162/162/162 150/150/150
f 150/150/150 162/162/162 163/163/163
f 150/150/150 163/163/163 151/151/151
f 151/151/151 163/163/163 164/164/164
f 151/151/151 164/164/164 152/152/152
f 152/152/152 164/164/164 165/165/165
f 152/152/152 165/165/165 153/153/153
f 153/153/153 165/165/165 166/166/166
f 153/153/153 166/166/166 154/154/154
f 154/154/154 166/166/166 167/167/167
f 154/154/154 167/167/167 155/155/155
f 155/155/155 167/167/167 168/168/168
f 155/155/155 168/168/168 156/156/156
f 156/156/156 168/168/168 169/169/169
f 157/157/157 170/170/170 158/158/158
f 158/158/158 170/170/170 171/171/171
f 158/158/158 171/171/171 159/159/159
f 159/159/159 171/171/171 172/172/172
f 159/159/159 172/172/172 160/160/160
f 160/160/160 172/172/172 173/173/173
f 160/160/160 173/173/173 161/161/161
f 161/161/161 173/173/173 174/174/174
f 161/161/161 174/174/174 162/162/162
f 162/162/162 174/174/174 175/175/175
f 162/162/162 175/175/175 163/163/163
f 163/163/163 175/175/175 176/176/176
f 163/163/163 176/176/176 164/164/164
f 164/164/164 176/176/176 177/177/177
f 164/164/164 177/177/177 165/165/165
f 165/165/165 177/177/177 178/178/178
f 165/165/165 178/178/178 166/166/166
f 166/166/166 178/178/178 179/179/179
f 166/166/166 179/179/179 167/167/167
f 167/167/167 179/179/179 180/180/180
f 167/167/167 180/180/180 168/168/168
f 168/168/168 180/180/180 181/181/181
f 168/168/168 181/181/181 169/169/169
f 169/169/169 181/181/181 182/182/182
f 170/170/170 183/183/183 171/171/171
f 171/171/171 183/183/183 184/184/184
f 171/171/171 184/184/184 172/172/172
f 172/172/172 184/184/184 185/185/185
f 172/172/172 185/185/185 173/173/173
f 173/173/173 185/185/185 186/186/186
f 173/173/173 186/186/186 174/174/174
f 174/174/174 186/186/186 187/187/187
f 174/174/174 187/187/187 175/175/175
f 175/175/175 187/187/187 188/188/188
f 175/175/175 188/188/188 176/176/176
f 176/176/176 188/188/188 189/189/189
f 176/176/176 189/189/189 177/177/177
f 177/177/177 189/189/189 190/190/190
f 177/177/177 190/190/190 178/178/178
f 178/178/178 190/190/190 191/191/191
f 178/178/178 191/191/191 179/179/179
f 179/179/179 191/191/191 192/192/192
f 179/179/179 192/192/192 180/180/180
f 180/180/180 192/192/192 193/193/193
f 180/180/180 193/193/193 181/181/181
f 181/181/181 193/193/193 194/194/194
f 181/181/181 194/194/194 182/182/182
f 182/182/182 194/194/194 195/195/195
f 183/183/183 196/196/196 184/184/184
f 184/184/184 196/196/196 197/197/197
f 184/184/184 197/197/197 185/185/185
f 185/185/185 197/197/197 198/198/198
f 185/185/185 198/198/198 186/186/186
f 186/186/186 198/198/198 199/199/199
f 186/186/186 199/199/199 187/187/187
f 187/187/187 199/199/199 200/200/200
f 187/187/187 200/200/200 188/188/188
f 188/188/188 200/200/200 201/201/201
f 188/188/188 201/201/201 189/189/189
f 189/189/189 201/201/201 202/202/202
f 189/189/189 202/202/202 190/190/190
f 190/190/190 202/202/202 203/203/203
f 190/190/190 203/203/203 191/191/191
f 191/191/191 203/203/203 204/204/204
f 191/191/191 204/204/204 192/192/192
f 192/192/192 204/204/204 205/205/205
f 192/192/192 205/205/205 193/193/193
f 193/193/193 205/205/205 206/206/206
f 193/193/193 206/206/206 194/194/194
f 194/194/194 206/206/206 207/207/207
f 194/194/194 207/207/207 195/195/195
f 195/195/195 207/207/207 208/208/208
f 196/196/196 209/209/209 197/197/197
f 197/197/197 209/209/209 210/210/210
f 197/197/197 210/210/210 198/198/198
f 198/198/198 210/210/210 211/211/211
f 198/198/198 211/211/211 199/199/199
f 199/199/199 211/211/211 212/212/212
f 199/199/199 212/212/212 200/200/200
f 200/200/200 212/212/212 213/213/213
f 200/200/200 213/213/213 201/201/201
f 201/201/201 213/213/213 214/214/214
f 201/201/201 214/214/214 202/202/202
f 202/202/202 214/214/214 215/215/215
f 202/202/202 215/215/215 203/203/203
f 203/203/203 215/215/215 216/216/216
f 203/203/203 216/216/216 204/204/204
f 204/204/204 216/216/216 217/217/217
f 204/204/204 217/217/217 205/205/205
f 205/205/205 217/217/217 218/218/218
f 205/205/205 218/218/218 206/206/206
f 206/206/206 218/218/218 219/219/219
f 206/206/206 219/219/219 207/207/207
f 207/207/207 219/219/219 220/220/220
f 207/207/207 220/220/220 208/208/208
f 208/208/208 220/220/220 221/221/221
f 209/209/209 222/222/222 210/210/210
f 210/210/210 222/222/222 223/223/223
f 210/210/210 223/223/223 211/211/211
f 211/211/211 223/223/223 224/224/224
f 211/211/211 224/224/224 212/212/212
f 212/212/212 224/224/224 225/225/225
f 212/212/212 225/225/225 213/213/213
f 213/213/213 225/225/225 226/226/226
f 213/213/213 226/226/226 214/214/214
f 214/214/214 226/226/226 227/227/227
f 214/214/214 227/227/227 215/215/215
f 215/215/215 227/227/227 228/228/228
f 215/215/215 228/228/228 216/216/216
f 216/216/216 228/228/228 229/229/229
f 216/216/216 229/229/229 217/217/217
f 217/217/217 229/229/229 230/230/230
f 217/217/217 230/230/230 218/218/218
f 218/218/218 230/230/230 231/231/231
f 218/218/218 231/231/231 219/219/219
f 219/219/219 231/231/231 232/232/232
f 219/219/219 232/232/232 220/220/220
f 220/220/220 232/232/232 233/233/233
f 220/220/220 233/233/233 221/221/221
f 221/221/221 233/233/233 234/234/234
f 235/235/235 236/236/236 237/237/237
f 235/235/235 237/237/237 238/238/238
f 239/239/239 240/240/240 241/241/241
f 239/239/239 241/241/241 242/242/242
f 243/243/243 244/244/244 245/245/245
f 243/243/243 245/245/245 246/246/246
f 247/247/247 248/248/248 249/249/249
f 247/247/247 249/249/249 250/250/250
f 251/251/251 252/252/252 253/253/253
f 251/251/251 253/253/253 254/254/254
f 255/255/255 256/256/256 257/257/257
f 255/255/255 257/257/257 258/258/258
f 259/259/259 260/260/260 261/261/261
f 259/259/259 261/261/261 262/262/262
f 263/263/263 264/264/264 265/265/265
f 263/263/263 265/265/265 266/266/266
f 267/267/267 268/268/268 269/269/269
f 267/267/267 269/269/269 270/270/270
f 271/271/271 272/272/272 273/273/273
f 271/271/271 273/273/273 274/274/274
f 275/275/275 276/276/276 277/277/277
f 275/275/275 277/277/277 278/278/278
f 279/279/279 280/280/280 281/281/281
f 279/279/279 281/281/281 282/282/282
f 283/283/283 285/285/285 284/284/284
f 283/283/283 286/286/286 285/285/285
f 283/283/283 287/287/287 286/286/286
f 283/283/283 288/288/288 287/287/287
f 283/283/283 289/289/289 288/288/288
f 283/283/283 290/290/290 289/289/289
f 283/283/283 291/291/291 290/290/290
f 283/283/283 292/292/292 291/291/291
f 283/283/283 293/293/293 292/292/292
f 283/283/283 294/294/294 293/293/293
f 283/283/283 295/295/295 294/294/294
f 283/283/283 284/284/284 295/295/295
f 296/296/296 297/297/297 298/298/298
f 296/296/296 298/298/298 299/299/299
f 296/296/296 299/299/299 300/300/300
f 296/296/296 300/300/300 301/301/301
f 296/296/296 301/301/301 302/302/302
f 296/296/296 302/302/302 303/303/303
f 296/296/296 303/303/303 304/304/304
f 296/296/296 304/304/304 305/305/305
f 296/296/296 305/305/305 306/306/306
f 296/296/296 306/306/306 307/307/307
f 296/296/296 307/307/307 308/308/308
f 296/296/296 308/308/308 297/297/297
f 309/309/309 311/311/311 310/310/310
f 310/310/310 311/311/311 312/312/312
f 311/311/311 313/313/313 312/312/312
f 312/312/312 313/313/313 314/314/314
f 313/313/313 315/315/315 314/314/314
f 314/314/314 315/315/315 316/316/316
f 315/315/315 317/317/317 316/316/316
f 316/316/316 317/317/317 318/318/318
f 317/317/317 319/319/319 318/318/318
f 318/318/318 319/319/319 320/320/320
f 319/319/319 321/321/321 320/320/320
f 320/320/320 321/321/321 322/322/322
f 321/321/321 323/323/323 322/322/322
f 322/322/322 323/323/323 324/324/324
f 323/323/323 325/325/325 324/324/324
f 324/324/324 325/325/325 326/326/326
f 325/325/325 327/327/327 326/326/326
f 326/326/326 327/327/327 328/328/328
f 327/327/327 329/329/329 328/328/328
f 328/328/328 329/329/329 330/330/330
f 329/329/329 331/331/331 330/330/330
f 330/330/330 331/331/331 332/332/332
f 331/331/331 333/333/333 332/332/332
f 332/332/332 333/333/333 334/334/334
f 335/335/335 337/337/337 336/336/336
f 335/335/335 338/338/338 337/337/337
f 335/335/335 339/339/339 338/338/338
f 335/335/335 340/340/340 339/339/339
f 335/335/335 341/341/341 340/340/340
f 335/335/335 342/342/342 341/341/341
f 335/335/335 343/343/343 342/342/342
f 335/335/335 344/344/344 343/343/343
f 335/335/335 345/345/345 344/344/344
f 335/335/335 346/346/346 345/345/345
f 335/335/335 347/347/347 346/346/346
f 335/335/335 336/336/336 347/347/347
f 348/348/348 349/349/349 350/350/350
f 348/348/348 350/350/350 351/351/351
f 348/348/348 351/351/351 352/352/352
f 348/348/348 352/352/352 353/353/353
f 348/348/348 353/353/353 354/354/354
f 348/348/348 354/354/354 355/355/355
f 348/348/348 355/355/355 356/356/356
f 348/348/348 356/356/356 357/357/357
f 348/348/348 357/357/357 358/358/358
f 348/348/348 358/358/358 359/359/359
f 348/348/348 359/359/359 360/360/360
f 348/348/348 360/360/360 349/349/349
f 361/361/361 363/363/363 362/362/362
f 362/362/362 363/363/363 364/364/364
f 363/363/363 365/365/365 364/364/364
f 364/364/364 365/365/365 366/366/366
f 365/365/365 367/367/367 366/366/366
f 366/366/366 367/367/367 368/368/368
f 367/367/367 369/369/369 368/368/368
f 368/368/368 369/369/369 370/370/370
f 369/369/369 371/371/371 370/370/370
f 370/370/370 371/371/371 372/372/372
f 371/371/371 373/373/373 372/372/372
f 372/372/372 373/373/373 374/374/374
f 373/373/373 375/375/375 374/374/374
f 374/374/374 375/375/375 376/376/376
f 375/375/375 377/377/377 376/376/376
f 376/376/376 377/377/377 378/378/378
f 377/377/377 379/379/379 378/378/378
f 378/378/378 379/379/379 380/380/380
f 379/379/379 381/381/381 380/380/380
f 380/380/380 381/381/381 382/382/382
f 381/381/381 383/383/383 382/382/382
f 382/382/382 383/383/383 384/384/384
f 383/383/383 385/385/385 384/384/384
f 384/384/384 385/385/385 386/386/386
f 387/387/387 389/389/389 388/388/388
f 387/387/387 390/390/390 389/389/389
f 387/387/387 391/391/391 390/390/390
f 387/387/387 392/392/392 391/391/391
f 387/387/387 393/393/393 392/392/392
f 387/387/387 394/394/394 393/393/393
f 387/387/387 395/395/395 394/394/394
f 387/387/387 396/396/396 395/395/395
f 387/387/387 397/397/397 396/396/396
f 387/387/387 398/398/398 397/397/397
f 387/387/387 399/399/399 398/398/398
f 387/387/387 388/388/388 399/399/399
f 400/400/400 401/401/401 402/402/402
f 400/400/400 402/402/402 403/403/403
f 400/400/400 403/403/403 404/404/404
f 400/400/400 404/404/404 405/405/405
f 400/400/400 405/405/405 406/406/406
f 400/400/400 406/406/406 407/407/407
f 400/400/400 407/407/407 408/408/408
f 400/400/400 408/408/408 409/409/409
f 400/400/400 409/409/409 410/410/410
f 400/400/400 410/410/410 411/411/411
f 400/400/400 411/411/411 412/412/412
f 400/400/400 412/412/412 401/401/401
f 413/413/413 415/415/415 414/414/414
f 414/414/414 415/415/415 416/416/416
f 415/415/415 417/417/417 416/416/416
f 416/416/416 417/417/417 418/418/418
f 417/417/417 419/419/419 418/418/418
f 418/418/418 419/419/419 420/420/420
f 419/419/419 421/421/421 420/420/420
f 420/420/420 421/421/421 422/422/422
f 421/421/421 423/423/423 422/422/422
f 422/422/422 423/423/423 424/424/424
f 423/423/423 425/425/425 424/424/424
f 424/424/424 425/425/425 426/426/426
f 425/425/425 427/427/427 426/426/426
f 426/426/426 427/427/427 428/428/428
f 427/427/427 429/429/429 428/428/428
f 428/428/428 429/429/429 430/430/430
f 429/429/429 431/431/431 430/430/430
f 430/430/430 431/431/431 432/432/432
f 431/431/431 433/433/433 432/432/432
f 432/432/432 433/433/433 434/434/434
f 433/433/433 435/435/435 434/434/434
f 434/434/434 435/435/435 436/436/436
f 435/435/435 437/437/437 436/436/436
f 436/436/436 437/437/437 438/438/438
f 439/439/439 441/441/441 440/440/440
f 439/439/439 442/442/442 441/441/441
f 439/439/439 443/443/443 442/442/442
f 439/439/439 444/444/444 443/443/443
f 439/439/439 445/445/445 444/444/444
f 439/439/439 446/446/446 445/445/445
f 439/439/439 447/447/447 446/446/446
f 439/439/439 448/448/448 447/447/447
f 439/439/439 449/449/449 448/448/448
f 439/439/439 450/450/450 449/449/449
f 439/439/439 451/451/451 450/450/450
f 439/439/439 440/440/440 451/451/451
f 452/452/452 453/453/453 454/454/454
f 452/452/452 454/454/454 455/455/455
f 452/452/452 455/455/455 456/456/456
f 452/452/452 456/456/456 457/457/457
f 452/452/452 457/457/457 458/458/458
f 452/452/452 458/458/458 459/459/459
f 452/452/452 459/459/459 460/460/460
f 452/452/452 460/460/460 461/461/461
f 452/452/452 461/461/461 462/462/462
f 452/452/452 462/462/462 463/463/463
f 452/452/452 463/463/463 464/464/464
f 452/452/452 464/464/464 453/453/453
f 465/465/465 467/467/467 466/466/466
f 466/466/466 467/467/467 468/468/468
f 467/467/467 469/469/469 468/468/468
f 468/468/468 469/469/469 470/470/470
f 469/469/469 471/471/471 470/470/470
f 470/470/470 471/471/471 472/472/472
f 471/471/471 473/473/473 472/472/472
f 472/472/472 473/473/473 474/474/474
f 473/473/473 475/475/475 474/474/474
f 474/474/474 475/475/475 476/476/476
f 475/475/475 477/477/477 476/476/476
f 476/476/476 477/477/477 478/478/478
f 477/477/477 479/479/479 478/478/478
f 478/478/478 479/479/479 480/480/480
f 479/479/479 481/481/481 480/480/480
f 480/480/480 481/481/481 482/482/482
f 481/481/481 483/483/483 482/482/482
f 482/482/482 483/483/483 484/484/484
f 483/483/483 485/485/485 484/484/484
f 484/484/484 485/485/485 486/486/486
f 485/485/485 487/487/487 486/486/486
f 486/486/486 487/487/487 488/488/488
f 487/487/487 489/489/489 488/488/488
f 488/488/488 489/489/489 490/490/490
f 491/491/491 504/504/504 492/492/492
f 492/492/492 504/504/504 505/505/505
f 492/492/492 505/505/505 493/493/493
f 493/493/493 505/505/505 506/506/506
f 493/493/493 506/506/506 494/494/494
f 494/494/494 506/506/506 507/507/507
f 494/494/494 507/507/507 495/495/495
f 495/495/495 507/507/507 508/508/508
f 495/495/495 508/508/508 496/496/496
f 496/496/496 508/508/508 509/509/509
f 496/496/496 509/509/509 497/497/497
f 497/497/497 509/509/509 510/510/510
f 497/497/497 510/510/510 498/498/498
f 498/498/498 510/510/510 511/511/511
f 498/498/498 511/511/511 499/499/499
f 499/499/499 511/511/511 512/512/512
f 499/499/499 512/512/512 500/500/500
f 500/500/500 512/512/512 513/513/513
f 500/500/500 513/513/513 501/501/501
f 501/501/501 513/513/513 514/514/514
f 501/501/501 514/514/514 502/502/502
f 502/502/502 514/514/514 515/515/515
f 502/502/502 515/515/515 503/503/503
f 503/503/503 515/515/515 516/516/516
f 504/504/504 517/517/517 505/505/505
f 505/505/505 517/517/517 518/518/518
f 505/505/505 518/518/518 506/506/506
f 506/506/506 518/518/518 519/519/519
f 506/506/506 519/519/519 507/507/507
f 507/507/507 519/519/519 520/520/520
f 507/507/507 520/520/520 508/508/508
f 508/508/508 520/520/520 521/521/521
f 508/508/508 521/521/521 509/509/509
f 509/509/509 521/521/521 522/522/522
f 509/509/509 522/522/522 510/510/510
f 510/510/510 522/522/522 523/523/523
f 510/510/510 523/523/523 511/511/511
f 511/511/511 523/523/523 524/524/524
f 511/511/511 524/524/524 512/512/512
f 512/512/512 524/524/524 525/525/525
f 512/512/512 525/525/525 513/513/513
f 513/513/513 525/525/525 526/526/526
f 513/513/513 526/526/526 514/514/514
f 514/514/514 526/526/526 527/527/527
f 514/514/514 527/527/527 515/515/515
f 515/515/515 527/527/527 528/528/528
f 515/515/515 528/528/528 516/516/516
f 516/516/516 528/528/528 529/529/529
f 517/517/517 530/530/530 518/518/518
f 518/518/518 530/530/530 531/531/531
f 518/518/518 531/531/531 519/519/519
f 519/519/519 531/531/531 532/532/532
f 519/519/519 532/532/532 520/520/520
f 520/520/520 532/532/532 533/533/533
f 520/520/520 533/533/533 521/521/521
f 521/521/521 533/533/533 534/534/534
f 521/521/521 534/534/534 522/522/522
f 522/522/522 534/534/534 535/535/535
f 522/522/522 535/535/535 523/523/523
f 523/523/523 535/535/535 536/536/536
f 523/523/523 536/536/536 524/524/524
f 524/524/524 536/536/536 537/537/537
f 524/524/524 537/537/537 525/525/525
f 525/525/525 537/537/537 538/538/538
f 525/525/525 538/538/538 526/526/526
f 526/526/526 538/538/538 539/539/539
f 526/526/526 539/539/539 527/527/527
f 527/527/527 539/539/539 540/540/540
f 527/527/527 540/540/540 528/528/528
f 528/528/528 540/540/540 541/541/541
f 528/528/528 541/541/541 529/529/529
f 529/529/529 541/541/541 542/542/542
f 530/530/530 543/543/543 531/531/531
f 531/531/531 543/543/543 544/544/544
f 531/531/531 544/544/544 532/532/532
f 532/532/532 544/544/544 545/545/545
f 532/532/532 545/545/545 533/533/533
f 533/533/533 545/545/545 546/546/546
f 533/533/533 546/546/546 534/534/534
f 534/534/534 546/546/546 547/547/547
f 534/534/534 547/547/547 535/535/535
f 535/535/535 547/547/547 548/548/548
f 535/535/535 548/548/548 536/536/536
f 536/536/536 548/548/548 549/549/549
f 536/536/536 549/549/549 537/537/537
f 537/537/537 549/549/549 550/550/550
f 537/537/537 550/550/550 538/538/538
f 538/538/538 550/550/550 551/551/551
f 538/538/538 551/551/551 539/539/539
f 539/539/539 551/551/551 552/552/552
f 539/539/539 552/552/552 540/540/540
f 540/540/540 552/552/552 553/553/553
f 540/540/540 553/553/553 541/541/541
f 541/541/541 553/553/553 554/554/554
f 541/541/541 554/554/554 542/542/542
f 542/542/542 554/554/554 555/555/555
f 543/543/543 556/556/556 544/544/544
f 544/544/544 556/556/556 557/557/557
f 544/544/544 557/557/557 545/545/545
f 545/545/545 557/557/557 558/558/558
f 545/545/545 558/558/558 546/546/546
f 546/546/546 558/558/558 559/559/559
f 546/546/546 559/559/559 547/547/547
f 547/547/547 559/559/559 560/560/560
f 547/547/547 560/560/560 548/548/548
f 548/548/548 560/560/560 561/561/561
f 548/548/548 561/561/561 549/549/549
f 549/549/549 561/561/561 562/562/562
f 549/549/549 562/562/562 550/550/550
f 550/550/550 562/562/562 563/563/563
f 550/550/550 563/563/563 551/551/551
f 551/551/551 563/563/563 564/564/564
f 551/551/551 564/564/564 552/552/552
f 552/552/552 564/564/564 565/565/565
f 552/552/552 565/565/565 553/553/553
f 553/553/553 565/565/565 566/566/566
f 553/553/553 566/566/566 554/554/554
f 554/554/554 566/566/566 567/567/567
f 554/554/554 567/567/567 555/555/555
f 555/555/555 567/567/567 568/568/568
f 556/556/556 569/569/569 557/557/557
f 557/557/557 569/569/569 570/570/570
f 557/557/557 570/570/570 558/558/558
f 558/558/558 570/570/570 571/571/571
f 558/558/558 571/571/571 559/559/559
f 559/559/559 571/571/571 572/572/572
f 559/559/559 572/572/572 560/560/560
f 560/560/560 572/572/572 573/573/573
f 560/560/560 573/573/573 561/561/561
f 561/561/561 573/573/573 574/574/574
f 561/561/561 574/574/574 562/562/562
f 562/562/562 574/574/574 575/575/575
f 562/562/562 575/575/575 563/563/563
f 563/563/563 575/575/575 576/576/576
f 563/563/563 576/576/576 564/564/564
f 564/564/564 576/576/576 577/577/577
f 564/564/564 577/577/577 565/565/565
f 565/565/565 577/577/577 578/578/578
f 565/565/565 578/578/578 566/566/566
f 566/566/566 578/578/578 579/579/579
f 566/566/566 579/579/579 567/567/567
f 567/567/567 579/579/579 580/580/580
f 567/567/567 580/580/580 568/568/568
f 568/568/568 580/580/580 581/581/581
f 569/569/569 582/582/582 570/570/570
f 570/570/570 582/582/582 583/583/583
f 570/570/570 583/583/583 571/571/571
f 571/571/571 583/583/583 584/584/584
f 571/571/571 584/584/584 572/572/572
f 572/572/572 584/584/584 585/585/585
f 572/572/572 585/585/585 573/573/573
f 573/573/573 585/585/585 586/586/586
f 573/573/573 586/586/586 574/574/574
f 574/574/574 586/586/586 587/587/587
f 574/574/574 587/587/587 575/575/575
f 575/575/575 587/587/587 588/588/588
f 575/575/575 588/588/588 576/576/576
f 576/576/576 588/588/588 589/589/589
f 576/576/576 589/589/589 577/577/577
f 577/577/577 589/589/589 590/590/590
f 577/577/577 590/590/590 578/578/578
f 578/578/578 590/590/590 591/591/591
f 578/578/578 591/591/591 579/579/579
f 579/579/579 591/591/591 592/592/592
f 579/579/579 592/592/592 580/580/580
f 580/580/580 592/592/592 593/593/593
f 580/580/580 593/593/593 581/581/581
f 581/581/581 593/593/593 594/594/594
f 582/582/582 595/595/595 583/583/583
f 583/583/583 595/595/595 596/596/596
f 583/583/583 596/596/596 584/584/584
f 584/584/584 596/596/596 597/597/597
f 584/584/584 597/597/597 585/585/585
f 585/585/585 597/597/597 598/598/598
f 585/585/585 598/598/598 586/586/586
f 586/586/586 598/598/598 599/599/599
f 586/586/586 599/599/599 587/587/587
f 587/587/587 599/599/599 600/600/600
f 587/587/587 600/600/600 588/588/588
f 588/588/588 600/600/600 601/601/601
f 588/588/588 601/601/601 589/589/589
f 589/589/589 601/601/601 602/602/602
f 589/589/589 602/602/602 590/590/590
f 590/590/590 602/602/602 603/603/603
f 590/590/590 603/603/603 591/591/591
f 591/591/591 603/603/603 604/604/604
f 591/591/591 604/604/604 592/592/592
f 592/592/592 604/604/604 605/605/605
f 592/592/592 605/605/605 593/593/593
f 593/593/593 605/605/605 606/606/606
f 593/593/593 606/606/606 594/594/594
f 594/594/594 606/606/606 607/607/607