# Blender 5.1.1
# www.blender.org
mtllib mob_banaspati.mtl
o mob_banaspati
v 0.070000 0.855000 -0.480000
v 0.070000 0.905000 -0.480000
v 0.070000 0.855000 -0.460000
v 0.070000 0.905000 -0.460000
v -0.070000 0.855000 -0.480000
v -0.070000 0.905000 -0.480000
v -0.070000 0.855000 -0.460000
v -0.070000 0.905000 -0.460000
v 0.000000 0.530000 0.000000
v -0.303915 0.762168 -0.220805
v 0.116083 0.762168 -0.357273
v 0.375659 0.762169 -0.000000
v 0.116083 0.762168 0.357273
v -0.303915 0.762168 0.220805
v -0.116083 1.137832 -0.357273
v 0.303915 1.137832 -0.220805
v 0.303915 1.137832 0.220805
v -0.116083 1.137832 0.357273
v -0.375659 1.137830 0.000000
v 0.000000 1.370000 0.000000
v 0.068231 0.592725 -0.209998
v -0.178636 0.592725 -0.129785
v -0.110405 0.729190 -0.339785
v -0.357272 0.729191 0.000000
v -0.178635 0.592725 0.129785
v 0.220807 0.592726 -0.000000
v 0.289039 0.729191 -0.209999
v 0.068231 0.592725 0.209998
v 0.289040 0.729191 0.209999
v -0.110405 0.729190 0.339785
v -0.399444 0.950000 -0.129785
v -0.399444 0.950000 0.129785
v -0.000000 0.950000 -0.420000
v -0.246870 0.950000 -0.339787
v 0.399444 0.950000 -0.129785
v 0.246870 0.950000 -0.339787
v 0.246870 0.950000 0.339787
v 0.399444 0.950000 0.129785
v -0.246870 0.950000 0.339787
v 0.000000 0.950000 0.420000
v -0.289040 1.170809 -0.209999
v 0.110405 1.170810 -0.339785
v 0.357272 1.170809 -0.000000
v 0.110405 1.170810 0.339785
v -0.289039 1.170809 0.209999
v -0.068231 1.307275 -0.209998
v -0.220807 1.307274 0.000000
v 0.178635 1.307275 -0.129785
v 0.178636 1.307275 0.129785
v -0.068231 1.307275 0.209998
v -0.199611 0.929201 0.184860
v -0.333289 0.890174 0.106075
v -0.343697 0.915935 -0.051494
v -0.220427 0.980722 -0.130279
v -0.086748 1.019749 -0.051494
v -0.076340 0.993988 0.106075
v -0.433981 1.509289 0.132710
v -0.156386 0.918837 0.394475
v -0.287815 0.874924 0.314488
v -0.288727 0.877564 0.154512
v -0.158209 0.924115 0.074524
v -0.026780 0.968028 0.154512
v -0.025868 0.965389 0.314488
v -0.400423 1.625466 0.247500
v -0.100690 0.939676 0.550551
v -0.235222 0.905590 0.470932
v -0.232249 0.890295 0.311692
v -0.094744 0.909086 0.232072
v 0.039788 0.943173 0.311692
v 0.036815 0.958468 0.470932
v -0.224283 1.575506 0.326409
v 0.000000 0.921670 0.614147
v -0.138564 0.910536 0.534926
v -0.138564 0.888269 0.376483
v 0.000000 0.877135 0.297262
v 0.138564 0.888269 0.376483
v 0.138564 0.910536 0.534926
v 0.000000 1.663656 0.348296
v 0.089762 0.917983 0.556155
v -0.047743 0.936775 0.476536
v -0.050716 0.921480 0.317296
v 0.083816 0.887393 0.237676
v 0.221320 0.868602 0.317296
v 0.224294 0.883896 0.476536
v 0.235211 1.666256 0.320804
v 0.191540 0.956004 0.396355
v 0.061022 1.002556 0.316367
v 0.061934 1.005195 0.156392
v 0.193363 0.961283 0.076404
v 0.323881 0.914731 0.156392
v 0.322969 0.912091 0.316367
v 0.365269 1.459049 0.245620
v 0.218270 0.945037 0.193643
v 0.095000 1.009825 0.114858
v 0.105408 1.035585 -0.042711
v 0.239086 0.996558 -0.121496
v 0.362356 0.931771 -0.042711
v 0.351948 0.906011 0.114858
v 0.415322 1.432757 0.123927
v 0.126534 0.871986 -0.072456
v 0.004063 0.941837 -0.148098
v 0.021067 0.991074 -0.299380
v 0.160543 0.970460 -0.375022
v 0.283014 0.900610 -0.299381
v 0.266010 0.851372 -0.148098
v 0.414182 1.704894 0.061739
v 0.094748 0.894176 -0.187733
v -0.034677 0.954533 -0.259886
v -0.021491 1.022368 -0.404193
v 0.121120 1.029846 -0.476347
v 0.250545 0.969490 -0.404193
v 0.237359 0.901655 -0.259886
v 0.214066 1.508014 -0.065681
v -0.000000 0.889229 -0.242849
v -0.138564 0.926787 -0.313485
v -0.138564 1.001903 -0.454756
v -0.000000 1.039460 -0.525392
v 0.138564 1.001903 -0.454756
v 0.138564 0.926787 -0.313485
v -0.000000 1.498924 -0.099879
v -0.066238 0.846904 -0.259284
v -0.208849 0.854382 -0.331438
v -0.222035 0.922217 -0.475745
v -0.092610 0.982574 -0.547899
v 0.050002 0.975096 -0.475745
v 0.063187 0.907261 -0.331438
v -0.242576 1.754085 0.005871
v -0.152035 0.896253 -0.045557
v -0.291511 0.875640 -0.121199
v -0.308515 0.924877 -0.272482
v -0.186044 0.994728 -0.348123
v -0.046568 1.015342 -0.272482
v -0.029564 0.966104 -0.121199
v -0.388681 1.581480 0.034840
v -0.184151 0.869060 0.238189
v -0.299789 0.831787 0.168629
v -0.305545 0.846354 0.029508
v -0.195664 0.898195 -0.040053
v -0.080027 0.935468 0.029508
v -0.074270 0.920900 0.168629
v -0.564743 1.832217 0.213907
v -0.177258 0.899288 0.459221
v -0.292549 0.861749 0.389229
v -0.291904 0.859707 0.249245
v -0.175969 0.895205 0.179253
v -0.060678 0.932745 0.249245
v -0.061323 0.934786 0.389229
v -0.436930 1.721369 0.306020
v -0.096850 0.886654 0.611103
v -0.214963 0.858314 0.541490
v -0.212406 0.843851 0.402262
v -0.091736 0.857727 0.332649
v 0.026378 0.886067 0.402262
v 0.023820 0.900531 0.541490
v -0.256623 1.790358 0.373513
v -0.006246 0.929419 0.653439
v -0.127393 0.918548 0.584119
v -0.127211 0.899077 0.445480
v -0.005881 0.890478 0.376160
v 0.115266 0.901349 0.445480
v 0.115083 0.920819 0.584119
v -0.012722 1.620718 0.414971
v 0.087788 0.886999 0.622147
v -0.033172 0.898380 0.552584
v -0.035631 0.882961 0.413457
v 0.082871 0.856162 0.343894
v 0.203832 0.844781 0.413457
v 0.206290 0.860200 0.552584
v 0.231736 1.789832 0.378670
v 0.145311 0.868081 0.481454
v 0.028725 0.901420 0.411480
v 0.027618 0.897766 0.271532
v 0.143096 0.860773 0.201558
v 0.259681 0.827434 0.271532
v 0.260789 0.831089 0.411480
v 0.445915 1.859945 0.313125
v 0.207986 0.892511 0.271189
v 0.097511 0.942924 0.201519
v 0.102450 0.955577 0.062180
v 0.217864 0.917817 -0.007490
v 0.328339 0.867404 0.062180
v 0.323400 0.854751 0.201519
v 0.533366 1.726095 0.217755
v 0.189569 0.869916 0.024162
v 0.082848 0.929755 -0.043882
v 0.094925 0.960318 -0.179971
v 0.213723 0.931043 -0.248015
v 0.320444 0.871204 -0.179971
v 0.308367 0.840641 -0.043882
v 0.553005 1.789658 0.118951
v 0.157766 0.863910 -0.191465
v 0.049666 0.924215 -0.256870
v 0.064693 0.971787 -0.387679
v 0.187819 0.959054 -0.453084
v 0.295919 0.898750 -0.387679
v 0.280892 0.851178 -0.256870
v 0.440751 1.759799 0.017018
v 0.111665 0.892820 -0.285791
v -0.002380 0.944169 -0.348694
v 0.008313 1.004652 -0.474502
v 0.133051 1.013785 -0.537406
v 0.247097 0.962435 -0.474502
v 0.236404 0.901953 -0.348694
v 0.228558 1.553986 -0.113791
v 0.004678 0.844057 -0.413897
v -0.116253 0.878048 -0.475706
v -0.115637 0.943760 -0.599325
v 0.005909 0.975480 -0.661134
v 0.126839 0.941488 -0.599325
v 0.126224 0.875777 -0.475706
v 0.013492 1.784954 -0.072255
v -0.084140 0.858213 -0.349113
v -0.208773 0.869863 -0.411811
v -0.218575 0.931342 -0.537208
v -0.103745 0.981172 -0.599906
v 0.020887 0.969522 -0.537208
v 0.030690 0.908043 -0.411811
v -0.223123 1.729904 -0.067181
v -0.174184 0.886836 -0.181470
v -0.297678 0.876291 -0.246572
v -0.312601 0.925532 -0.376774
v -0.204031 0.985319 -0.441875
v -0.080538 0.995864 -0.376774
v -0.065614 0.946623 -0.246572
v -0.401011 1.635264 -0.022959
v -0.243554 0.917188 0.038039
v -0.362842 0.889354 -0.029752
v -0.375530 0.921859 -0.165334
v -0.268929 0.982197 -0.233125
v -0.149641 1.010031 -0.165334
v -0.136953 0.977527 -0.029752
v -0.490049 1.548681 0.067938
v -0.000000 1.190000 -0.360000
v -0.000000 1.060364 -0.276851
v -0.000000 0.785985 -0.325558
v -0.000000 0.770000 -0.360000
v -0.038268 1.174015 -0.330173
v -0.070711 1.128492 -0.304886
v -0.092388 1.060364 -0.287991
v -0.100000 0.980000 -0.282058
v -0.092388 0.899637 -0.287991
v -0.070711 0.831508 -0.304886
v -0.038268 0.785985 -0.330173
v -0.066283 1.174015 -0.342779
v -0.122475 1.128492 -0.328180
v -0.160021 1.060364 -0.318425
v -0.173205 0.980000 -0.315000
v -0.160021 0.899637 -0.318425
v -0.122475 0.831508 -0.328180
v -0.066283 0.785985 -0.342779
v -0.076537 1.174015 -0.360000
v -0.141421 1.128492 -0.360000
v -0.184776 1.060364 -0.360000
v -0.200000 0.980000 -0.360000
v -0.184776 0.899637 -0.360000
v -0.141421 0.831508 -0.360000
v -0.076537 0.785985 -0.360000
v -0.066283 1.174015 -0.377221
v -0.122475 1.128492 -0.391820
v -0.160021 1.060364 -0.401575
v -0.173205 0.980000 -0.405000
v -0.160021 0.899637 -0.401575
v -0.122475 0.831508 -0.391820
v -0.066283 0.785985 -0.377221
v -0.038268 1.174015 -0.389827
v -0.070711 1.128492 -0.415114
v -0.092388 1.060364 -0.432009
v -0.100000 0.980000 -0.437942
v -0.092388 0.899637 -0.432009
v -0.070711 0.831508 -0.415114
v -0.038268 0.785985 -0.389827
v -0.000000 1.174015 -0.394442
v -0.000000 1.128492 -0.423640
v -0.000000 1.060364 -0.443149
v -0.000000 0.980000 -0.450000
v -0.000000 0.899637 -0.443149
v -0.000000 0.831508 -0.423640
v -0.000000 0.785985 -0.394442
v 0.038268 1.174015 -0.389827
v 0.070711 1.128492 -0.415114
v 0.092388 1.060364 -0.432009
v 0.100000 0.980000 -0.437942
v 0.092388 0.899637 -0.432009
v 0.070711 0.831508 -0.415114
v 0.038268 0.785985 -0.389827
v 0.066283 1.174015 -0.377221
v 0.122474 1.128492 -0.391820
v 0.160021 1.060364 -0.401575
v 0.173205 0.980000 -0.405000
v 0.160021 0.899637 -0.401575
v 0.122474 0.831508 -0.391820
v 0.066283 0.785985 -0.377221
v 0.076537 1.174015 -0.360000
v 0.141421 1.128492 -0.360000
v 0.184776 1.060364 -0.360000
v 0.200000 0.980000 -0.360000
v 0.184776 0.899637 -0.360000
v 0.141421 0.831508 -0.360000
v 0.076537 0.785985 -0.360000
v 0.066283 1.174015 -0.342779
v 0.122474 1.128492 -0.328180
v 0.160021 1.060364 -0.318425
v 0.173205 0.980000 -0.315000
v 0.160021 0.899637 -0.318425
v 0.122474 0.831508 -0.328180
v 0.066283 0.785985 -0.342779
v 0.038268 1.174015 -0.330173
v 0.070711 1.128492 -0.304886
v 0.092388 1.060364 -0.287991
v 0.100000 0.980000 -0.282058
v 0.092388 0.899637 -0.287991
v 0.070711 0.831508 -0.304886
v 0.038268 0.785985 -0.330173
v -0.000000 1.174015 -0.325558
v -0.000000 1.128492 -0.296360
v -0.000000 0.980000 -0.270000
v -0.000000 0.899637 -0.276851
v -0.000000 0.831508 -0.296360
v 0.080000 1.085000 -0.450000
v 0.080000 1.077631 -0.422500
v 0.080000 1.057500 -0.402369
v 0.080000 1.030000 -0.395000
v 0.080000 1.002500 -0.402369
v 0.080000 0.982369 -0.422500
v 0.080000 0.975000 -0.450000
v 0.060555 1.077631 -0.430555
v 0.046319 1.057500 -0.416320
v 0.041109 1.030000 -0.411109
v 0.046319 1.002500 -0.416320
v 0.060555 0.982369 -0.430555
v 0.052500 1.077631 -0.450000
v 0.032369 1.057500 -0.450000
v 0.025000 1.030000 -0.450000
v 0.032369 1.002500 -0.450000
v 0.052500 0.982369 -0.450000
v 0.060555 1.077631 -0.469445
v 0.046319 1.057500 -0.483680
v 0.041109 1.030000 -0.488891
v 0.046319 1.002500 -0.483680
v 0.060555 0.982369 -0.469445
v 0.080000 1.077631 -0.477500
v 0.080000 1.057500 -0.497631
v 0.080000 1.030000 -0.505000
v 0.080000 1.002500 -0.497631
v 0.080000 0.982369 -0.477500
v 0.099445 1.077631 -0.469445
v 0.113680 1.057500 -0.483680
v 0.118891 1.030000 -0.488891
v 0.113680 1.002500 -0.483680
v 0.099445 0.982369 -0.469445
v 0.107500 1.077631 -0.450000
v 0.127631 1.057500 -0.450000
v 0.135000 1.030000 -0.450000
v 0.127631 1.002500 -0.450000
v 0.107500 0.982369 -0.450000
v 0.099445 1.077631 -0.430555
v 0.113680 1.057500 -0.416320
v 0.118891 1.030000 -0.411109
v 0.113680 1.002500 -0.416320
v 0.099445 0.982369 -0.430555
v 0.342464 0.643336 -0.185387
v 0.462464 0.273336 -0.285387
v 0.302866 0.636501 -0.207615
v 0.422866 0.266501 -0.307615
v 0.261589 0.620000 -0.196093
v 0.381589 0.250000 -0.296093
v 0.242813 0.603499 -0.157571
v 0.362813 0.233499 -0.257571
v 0.257536 0.596664 -0.114613
v 0.377536 0.226664 -0.214613
v 0.297134 0.603499 -0.092385
v 0.417134 0.233499 -0.192385
v 0.338411 0.620000 -0.103907
v 0.458411 0.250000 -0.203907
v 0.357187 0.636501 -0.142429
v 0.477187 0.266501 -0.242429
v 0.420000 0.310000 -0.250000
v 0.420000 0.280000 -0.198039
v 0.420000 0.220000 -0.198039
v 0.420000 0.190000 -0.250000
v 0.398787 0.301962 -0.228787
v 0.383258 0.280000 -0.213258
v 0.377574 0.250000 -0.207574
v 0.383258 0.220000 -0.213258
v 0.398787 0.198039 -0.228787
v 0.390000 0.301962 -0.250000
v 0.368038 0.280000 -0.250000
v 0.360000 0.250000 -0.250000
v 0.368038 0.220000 -0.250000
v 0.390000 0.198039 -0.250000
v 0.398787 0.301962 -0.271213
v 0.383258 0.280000 -0.286742
v 0.377574 0.250000 -0.292426
v 0.383258 0.220000 -0.286742
v 0.398787 0.198039 -0.271213
v 0.420000 0.301962 -0.280000
v 0.420000 0.280000 -0.301962
v 0.420000 0.250000 -0.310000
v 0.420000 0.220000 -0.301962
v 0.420000 0.198039 -0.280000
v 0.441213 0.301962 -0.271213
v 0.456742 0.280000 -0.286742
v 0.462426 0.250000 -0.292426
v 0.456742 0.220000 -0.286742
v 0.441213 0.198039 -0.271213
v 0.450000 0.301962 -0.250000
v 0.471961 0.280000 -0.250000
v 0.480000 0.250000 -0.250000
v 0.471961 0.220000 -0.250000
v 0.450000 0.198039 -0.250000
v 0.441213 0.301962 -0.228787
v 0.456742 0.280000 -0.213258
v 0.462426 0.250000 -0.207574
v 0.456742 0.220000 -0.213258
v 0.441213 0.198039 -0.228787
v 0.420000 0.301962 -0.220000
v 0.420000 0.250000 -0.190000
v 0.420000 0.198039 -0.220000
v 0.442219 0.270456 -0.301845
v 0.472219 0.060456 -0.371845
v 0.396715 0.264464 -0.303372
v 0.426715 0.054464 -0.373372
v 0.364851 0.250000 -0.273635
v 0.394851 0.040000 -0.343635
v 0.365293 0.235536 -0.230053
v 0.395293 0.025536 -0.300053
v 0.397781 0.229544 -0.198155
v 0.427781 0.019544 -0.268155
v 0.443285 0.235536 -0.196628
v 0.473285 0.025536 -0.266628
v 0.475149 0.250000 -0.226365
v 0.505149 0.040000 -0.296365
v 0.474707 0.264464 -0.269947
v 0.504707 0.054464 -0.339947
v 0.450000 0.100000 -0.320000
v 0.450000 0.070000 -0.268039
v 0.450000 0.010000 -0.268039
v 0.450000 -0.020000 -0.320000
v 0.428787 0.091962 -0.298787
v 0.413258 0.070000 -0.283258
v 0.407574 0.040000 -0.277574
v 0.413258 0.010000 -0.283258
v 0.428787 -0.011962 -0.298787
v 0.420000 0.091962 -0.320000
v 0.398038 0.070000 -0.320000
v 0.390000 0.040000 -0.320000
v 0.398038 0.010000 -0.320000
v 0.420000 -0.011962 -0.320000
v 0.428787 0.091962 -0.341213
v 0.413258 0.070000 -0.356742
v 0.407574 0.040000 -0.362426
v 0.413258 0.010000 -0.356742
v 0.428787 -0.011962 -0.341213
v 0.450000 0.091962 -0.350000
v 0.450000 0.070000 -0.371962
v 0.450000 0.040000 -0.380000
v 0.450000 0.010000 -0.371962
v 0.450000 -0.011962 -0.350000
v 0.471213 0.091962 -0.341213
v 0.486742 0.070000 -0.356742
v 0.492426 0.040000 -0.362426
v 0.486742 0.010000 -0.356742
v 0.471213 -0.011962 -0.341213
v 0.480000 0.091962 -0.320000
v 0.501962 0.070000 -0.320000
v 0.510000 0.040000 -0.320000
v 0.501962 0.010000 -0.320000
v 0.480000 -0.011962 -0.320000
v 0.471213 0.091962 -0.298787
v 0.486742 0.070000 -0.283258
v 0.492426 0.040000 -0.277574
v 0.486742 0.010000 -0.283258
v 0.471213 -0.011962 -0.298787
v 0.450000 0.091962 -0.290000
v 0.450000 0.040000 -0.260000
v 0.450000 -0.011962 -0.290000
v 0.448872 0.061813 -0.322633
v 0.388872 0.041813 -0.462633
v 0.431924 0.050906 -0.313811
v 0.371924 0.030906 -0.453811
v 0.433052 0.029094 -0.311179
v 0.373052 0.009094 -0.451179
v 0.451128 0.018187 -0.317367
v 0.391128 -0.001813 -0.457367
v 0.468076 0.029094 -0.326189
v 0.408076 0.009094 -0.466189
v 0.466948 0.050906 -0.328822
v 0.406948 0.030906 -0.468821
v 0.390000 0.042000 -0.460000
v 0.390000 0.039053 -0.449000
v 0.390000 0.031000 -0.440947
v 0.390000 0.020000 -0.438000
v 0.390000 0.009000 -0.440947
v 0.390000 0.000947 -0.449000
v 0.390000 -0.002000 -0.460000
v 0.382222 0.039053 -0.452222
v 0.376528 0.031000 -0.446528
v 0.374444 0.020000 -0.444444
v 0.376528 0.009000 -0.446528
v 0.382222 0.000947 -0.452222
v 0.379000 0.039053 -0.460000
v 0.370947 0.031000 -0.460000
v 0.368000 0.020000 -0.460000
v 0.370947 0.009000 -0.460000
v 0.379000 0.000947 -0.460000
v 0.382222 0.039053 -0.467778
v 0.376528 0.031000 -0.473472
v 0.374444 0.020000 -0.475556
v 0.376528 0.009000 -0.473472
v 0.382222 0.000947 -0.467778
v 0.390000 0.039053 -0.471000
v 0.390000 0.031000 -0.479053
v 0.390000 0.020000 -0.482000
v 0.390000 0.009000 -0.479053
v 0.390000 0.000947 -0.471000
v 0.397778 0.039053 -0.467778
v 0.403472 0.031000 -0.473472
v 0.405556 0.020000 -0.475556
v 0.403472 0.009000 -0.473472
v 0.397778 0.000947 -0.467778
v 0.401000 0.039053 -0.460000
v 0.409053 0.031000 -0.460000
v 0.412000 0.020000 -0.460000
v 0.409053 0.009000 -0.460000
v 0.401000 0.000947 -0.460000
v 0.397778 0.039053 -0.452222
v 0.403472 0.031000 -0.446528
v 0.405556 0.020000 -0.444444
v 0.403472 0.009000 -0.446528
v 0.397778 0.000947 -0.452222
v 0.450000 0.061779 -0.323111
v 0.450000 0.041779 -0.463111
v 0.430947 0.050890 -0.321556
v 0.430947 0.030889 -0.461556
v 0.430947 0.029111 -0.318444
v 0.430947 0.009111 -0.458444
v 0.450000 0.018221 -0.316889
v 0.450000 -0.001779 -0.456889
v 0.469053 0.029111 -0.318444
v 0.469053 0.009111 -0.458444
v 0.469053 0.050890 -0.321556
v 0.469053 0.030889 -0.461556
v 0.450000 0.042000 -0.460000
v 0.450000 0.039053 -0.449000
v 0.450000 0.031000 -0.440947
v 0.450000 0.020000 -0.438000
v 0.450000 0.009000 -0.440947
v 0.450000 0.000947 -0.449000
v 0.450000 -0.002000 -0.460000
v 0.442222 0.039053 -0.452222
v 0.436528 0.031000 -0.446528
v 0.434444 0.020000 -0.444444
v 0.436528 0.009000 -0.446528
v 0.442222 0.000947 -0.452222
v 0.439000 0.039053 -0.460000
v 0.430947 0.031000 -0.460000
v 0.428000 0.020000 -0.460000
v 0.430947 0.009000 -0.460000
v 0.439000 0.000947 -0.460000
v 0.442222 0.039053 -0.467778
v 0.436528 0.031000 -0.473472
v 0.434444 0.020000 -0.475556
v 0.436528 0.009000 -0.473472
v 0.442222 0.000947 -0.467778
v 0.450000 0.039053 -0.471000
v 0.450000 0.031000 -0.479053
v 0.450000 0.020000 -0.482000
v 0.450000 0.009000 -0.479053
v 0.450000 0.000947 -0.471000
v 0.457778 0.039053 -0.467778
v 0.463472 0.031000 -0.473472
v 0.465556 0.020000 -0.475556
v 0.463472 0.009000 -0.473472
v 0.457778 0.000947 -0.467778
v 0.461000 0.039053 -0.460000
v 0.469053 0.031000 -0.460000
v 0.472000 0.020000 -0.460000
v 0.469053 0.009000 -0.460000
v 0.461000 0.000947 -0.460000
v 0.457778 0.039053 -0.452222
v 0.463472 0.031000 -0.446528
v 0.465556 0.020000 -0.444444
v 0.463472 0.009000 -0.446528
v 0.457778 0.000947 -0.452222
v 0.451128 0.061813 -0.322633
v 0.511128 0.041813 -0.462633
v 0.433052 0.050906 -0.328822
v 0.493052 0.030906 -0.468821
v 0.431924 0.029094 -0.326189
v 0.491924 0.009094 -0.466189
v 0.448872 0.018187 -0.317367
v 0.508872 -0.001813 -0.457367
v 0.466948 0.029094 -0.311179
v 0.526948 0.009094 -0.451179
v 0.468076 0.050906 -0.313811
v 0.528076 0.030906 -0.453811
v 0.510000 0.042000 -0.460000
v 0.510000 0.039053 -0.449000
v 0.510000 0.031000 -0.440947
v 0.510000 0.020000 -0.438000
v 0.510000 0.009000 -0.440947
v 0.510000 0.000947 -0.449000
v 0.510000 -0.002000 -0.460000
v 0.502222 0.039053 -0.452222
v 0.496528 0.031000 -0.446528
v 0.494444 0.020000 -0.444444
v 0.496528 0.009000 -0.446528
v 0.502222 0.000947 -0.452222
v 0.499000 0.039053 -0.460000
v 0.490947 0.031000 -0.460000
v 0.488000 0.020000 -0.460000
v 0.490947 0.009000 -0.460000
v 0.499000 0.000947 -0.460000
v 0.502222 0.039053 -0.467778
v 0.496528 0.031000 -0.473472
v 0.494444 0.020000 -0.475556
v 0.496528 0.009000 -0.473472
v 0.502222 0.000947 -0.467778
v 0.510000 0.039053 -0.471000
v 0.510000 0.031000 -0.479053
v 0.510000 0.020000 -0.482000
v 0.510000 0.009000 -0.479053
v 0.510000 0.000947 -0.471000
v 0.517778 0.039053 -0.467778
v 0.523472 0.031000 -0.473472
v 0.525556 0.020000 -0.475556
v 0.523472 0.009000 -0.473472
v 0.517778 0.000947 -0.467778
v 0.521000 0.039053 -0.460000
v 0.529052 0.031000 -0.460000
v 0.532000 0.020000 -0.460000
v 0.529052 0.009000 -0.460000
v 0.521000 0.000947 -0.460000
v 0.517778 0.039053 -0.452222
v 0.523472 0.031000 -0.446528
v 0.525556 0.020000 -0.444444
v 0.523472 0.009000 -0.446528
v 0.517778 0.000947 -0.452222
v -0.080000 1.085000 -0.450000
v -0.080000 1.077631 -0.422500
v -0.080000 1.057500 -0.402369
v -0.080000 1.030000 -0.395000
v -0.080000 1.002500 -0.402369
v -0.080000 0.982369 -0.422500
v -0.080000 0.975000 -0.450000
v -0.099445 1.077631 -0.430555
v -0.113681 1.057500 -0.416320
v -0.118891 1.030000 -0.411109
v -0.113681 1.002500 -0.416320
v -0.099445 0.982369 -0.430555
v -0.107500 1.077631 -0.450000
v -0.127631 1.057500 -0.450000
v -0.135000 1.030000 -0.450000
v -0.127631 1.002500 -0.450000
v -0.107500 0.982369 -0.450000
v -0.099445 1.077631 -0.469445
v -0.113681 1.057500 -0.483680
v -0.118891 1.030000 -0.488891
v -0.113681 1.002500 -0.483680
v -0.099445 0.982369 -0.469445
v -0.080000 1.077631 -0.477500
v -0.080000 1.057500 -0.497631
v -0.080000 1.030000 -0.505000
v -0.080000 1.002500 -0.497631
v -0.080000 0.982369 -0.477500
v -0.060555 1.077631 -0.469445
v -0.046320 1.057500 -0.483680
v -0.041109 1.030000 -0.488891
v -0.046320 1.002500 -0.483680
v -0.060555 0.982369 -0.469445
v -0.052500 1.077631 -0.450000
v -0.032369 1.057500 -0.450000
v -0.025000 1.030000 -0.450000
v -0.032369 1.002500 -0.450000
v -0.052500 0.982369 -0.450000
v -0.060555 1.077631 -0.430555
v -0.046320 1.057500 -0.416320
v -0.041109 1.030000 -0.411109
v -0.046320 1.002500 -0.416320
v -0.060555 0.982369 -0.430555
v -0.342464 0.643336 -0.185387
v -0.462464 0.273336 -0.285387
v -0.357187 0.636501 -0.142429
v -0.477187 0.266501 -0.242429
v -0.338411 0.620000 -0.103907
v -0.458411 0.250000 -0.203907
v -0.297134 0.603499 -0.092385
v -0.417134 0.233499 -0.192385
v -0.257536 0.596664 -0.114613
v -0.377536 0.226664 -0.214613
v -0.242813 0.603499 -0.157571
v -0.362813 0.233499 -0.257571
v -0.261589 0.620000 -0.196093
v -0.381589 0.250000 -0.296093
v -0.302866 0.636501 -0.207615
v -0.422866 0.266501 -0.307615
v -0.420000 0.310000 -0.250000
v -0.420000 0.280000 -0.198038
v -0.420000 0.220000 -0.198038
v -0.420000 0.190000 -0.250000
v -0.441213 0.301962 -0.228787
v -0.456742 0.280000 -0.213258
v -0.462426 0.250000 -0.207574
v -0.456742 0.220000 -0.213258
v -0.441213 0.198039 -0.228787
v -0.450000 0.301962 -0.250000
v -0.471962 0.280000 -0.250000
v -0.480000 0.250000 -0.250000
v -0.471962 0.220000 -0.250000
v -0.450000 0.198039 -0.250000
v -0.441213 0.301962 -0.271213
v -0.456742 0.280000 -0.286742
v -0.462426 0.250000 -0.292426
v -0.456742 0.220000 -0.286742
v -0.441213 0.198039 -0.271213
v -0.420000 0.301962 -0.280000
v -0.420000 0.280000 -0.301962
v -0.420000 0.250000 -0.310000
v -0.420000 0.220000 -0.301962
v -0.420000 0.198039 -0.280000
v -0.398787 0.301962 -0.271213
v -0.383258 0.280000 -0.286742
v -0.377574 0.250000 -0.292426
v -0.383258 0.220000 -0.286742
v -0.398787 0.198039 -0.271213
v -0.390000 0.301962 -0.250000
v -0.368038 0.280000 -0.250000
v -0.360000 0.250000 -0.250000
v -0.368038 0.220000 -0.250000
v -0.390000 0.198039 -0.250000
v -0.398787 0.301962 -0.228787
v -0.383258 0.280000 -0.213258
v -0.377574 0.250000 -0.207574
v -0.383258 0.220000 -0.213258
v -0.398787 0.198039 -0.228787
v -0.420000 0.301962 -0.220000
v -0.420000 0.250000 -0.190000
v -0.420000 0.198039 -0.220000
v -0.442219 0.270456 -0.301845
v -0.472219 0.060456 -0.371845
v -0.474707 0.264464 -0.269947
v -0.504707 0.054464 -0.339947
v -0.475149 0.250000 -0.226365
v -0.505149 0.040000 -0.296365
v -0.443285 0.235536 -0.196628
v -0.473285 0.025536 -0.266628
v -0.397781 0.229544 -0.198155
v -0.427781 0.019544 -0.268155
v -0.365293 0.235536 -0.230053
v -0.395293 0.025536 -0.300053
v -0.364851 0.250000 -0.273635
v -0.394851 0.040000 -0.343635
v -0.396715 0.264464 -0.303372
v -0.426715 0.054464 -0.373372
v -0.450000 0.100000 -0.320000
v -0.450000 0.070000 -0.268038
v -0.450000 0.010000 -0.268038
v -0.450000 -0.020000 -0.320000
v -0.471213 0.091962 -0.298787
v -0.486742 0.070000 -0.283258
v -0.492426 0.040000 -0.277574
v -0.486742 0.010000 -0.283258
v -0.471213 -0.011962 -0.298787
v -0.480000 0.091962 -0.320000
v -0.501962 0.070000 -0.320000
v -0.510000 0.040000 -0.320000
v -0.501962 0.010000 -0.320000
v -0.480000 -0.011962 -0.320000
v -0.471213 0.091962 -0.341213
v -0.486742 0.070000 -0.356742
v -0.492426 0.040000 -0.362426
v -0.486742 0.010000 -0.356742
v -0.471213 -0.011962 -0.341213
v -0.450000 0.091962 -0.350000
v -0.450000 0.070000 -0.371962
v -0.450000 0.040000 -0.380000
v -0.450000 0.010000 -0.371962
v -0.450000 -0.011962 -0.350000
v -0.428787 0.091962 -0.341213
v -0.413258 0.070000 -0.356742
v -0.407574 0.040000 -0.362426
v -0.413258 0.010000 -0.356742
v -0.428787 -0.011962 -0.341213
v -0.420000 0.091962 -0.320000
v -0.398038 0.070000 -0.320000
v -0.390000 0.040000 -0.320000
v -0.398038 0.010000 -0.320000
v -0.420000 -0.011962 -0.320000
v -0.428787 0.091962 -0.298787
v -0.413258 0.070000 -0.283258
v -0.407574 0.040000 -0.277574
v -0.413258 0.010000 -0.283258
v -0.428787 -0.011962 -0.298787
v -0.450000 0.091962 -0.290000
v -0.450000 0.040000 -0.260000
v -0.450000 -0.011962 -0.290000
v -0.448872 0.061813 -0.322633
v -0.388872 0.041813 -0.462633
v -0.466948 0.050906 -0.328821
v -0.406948 0.030906 -0.468821
v -0.468076 0.029094 -0.326189
v -0.408076 0.009094 -0.466189
v -0.451128 0.018187 -0.317367
v -0.391128 -0.001813 -0.457367
v -0.433052 0.029094 -0.311179
v -0.373052 0.009094 -0.451179
v -0.431924 0.050906 -0.313811
v -0.371924 0.030906 -0.453811
v -0.390000 0.042000 -0.460000
v -0.390000 0.039053 -0.449000
v -0.390000 0.031000 -0.440947
v -0.390000 0.020000 -0.438000
v -0.390000 0.009000 -0.440947
v -0.390000 0.000947 -0.449000
v -0.390000 -0.002000 -0.460000
v -0.397778 0.039053 -0.452222
v -0.403472 0.031000 -0.446528
v -0.405556 0.020000 -0.444444
v -0.403472 0.009000 -0.446528
v -0.397778 0.000947 -0.452222
v -0.401000 0.039053 -0.460000
v -0.409053 0.031000 -0.460000
v -0.412000 0.020000 -0.460000
v -0.409053 0.009000 -0.460000
v -0.401000 0.000947 -0.460000
v -0.397778 0.039053 -0.467778
v -0.403472 0.031000 -0.473472
v -0.405556 0.020000 -0.475556
v -0.403472 0.009000 -0.473472
v -0.397778 0.000947 -0.467778
v -0.390000 0.039053 -0.471000
v -0.390000 0.031000 -0.479053
v -0.390000 0.020000 -0.482000
v -0.390000 0.009000 -0.479053
v -0.390000 0.000947 -0.471000
v -0.382222 0.039053 -0.467778
v -0.376528 0.031000 -0.473472
v -0.374444 0.020000 -0.475556
v -0.376528 0.009000 -0.473472
v -0.382222 0.000947 -0.467778
v -0.379000 0.039053 -0.460000
v -0.370947 0.031000 -0.460000
v -0.368000 0.020000 -0.460000
v -0.370947 0.009000 -0.460000
v -0.379000 0.000947 -0.460000
v -0.382222 0.039053 -0.452222
v -0.376528 0.031000 -0.446528
v -0.374444 0.020000 -0.444444
v -0.376528 0.009000 -0.446528
v -0.382222 0.000947 -0.452222
v -0.450000 0.061779 -0.323111
v -0.450000 0.041779 -0.463111
v -0.469053 0.050890 -0.321556
v -0.469053 0.030889 -0.461556
v -0.469053 0.029111 -0.318444
v -0.469053 0.009111 -0.458444
v -0.450000 0.018221 -0.316889
v -0.450000 -0.001779 -0.456889
v -0.430947 0.029111 -0.318444
v -0.430947 0.009111 -0.458444
v -0.430947 0.050890 -0.321556
v -0.430947 0.030889 -0.461556
v -0.450000 0.042000 -0.460000
v -0.450000 0.039053 -0.449000
v -0.450000 0.031000 -0.440947
v -0.450000 0.020000 -0.438000
v -0.450000 0.009000 -0.440947
v -0.450000 0.000947 -0.449000
v -0.450000 -0.002000 -0.460000
v -0.457778 0.039053 -0.452222
v -0.463472 0.031000 -0.446528
v -0.465556 0.020000 -0.444444
v -0.463472 0.009000 -0.446528
v -0.457778 0.000947 -0.452222
v -0.461000 0.039053 -0.460000
v -0.469053 0.031000 -0.460000
v -0.472000 0.020000 -0.460000
v -0.469053 0.009000 -0.460000
v -0.461000 0.000947 -0.460000
v -0.457778 0.039053 -0.467778
v -0.463472 0.031000 -0.473472
v -0.465556 0.020000 -0.475556
v -0.463472 0.009000 -0.473472
v -0.457778 0.000947 -0.467778
v -0.450000 0.039053 -0.471000
v -0.450000 0.031000 -0.479053
v -0.450000 0.020000 -0.482000
v -0.450000 0.009000 -0.479053
v -0.450000 0.000947 -0.471000
v -0.442222 0.039053 -0.467778
v -0.436528 0.031000 -0.473472
v -0.434444 0.020000 -0.475556
v -0.436528 0.009000 -0.473472
v -0.442222 0.000947 -0.467778
v -0.439000 0.039053 -0.460000
v -0.430947 0.031000 -0.460000
v -0.428000 0.020000 -0.460000
v -0.430947 0.009000 -0.460000
v -0.439000 0.000947 -0.460000
v -0.442222 0.039053 -0.452222
v -0.436528 0.031000 -0.446528
v -0.434444 0.020000 -0.444444
v -0.436528 0.009000 -0.446528
v -0.442222 0.000947 -0.452222
v -0.451128 0.061813 -0.322633
v -0.511128 0.041813 -0.462633
v -0.468076 0.050906 -0.313811
v -0.528076 0.030906 -0.453811
v -0.466948 0.029094 -0.311179
v -0.526948 0.009094 -0.451178
v -0.448872 0.018187 -0.317367
v -0.508872 -0.001813 -0.457367
v -0.431924 0.029094 -0.326189
v -0.491924 0.009094 -0.466189
v -0.433052 0.050906 -0.328821
v -0.493052 0.030906 -0.468821
v -0.510000 0.042000 -0.460000
v -0.510000 0.039053 -0.449000
v -0.510000 0.031000 -0.440947
v -0.510000 0.020000 -0.438000
v -0.510000 0.009000 -0.440947
v -0.510000 0.000947 -0.449000
v -0.510000 -0.002000 -0.460000
v -0.517778 0.039053 -0.452222
v -0.523472 0.031000 -0.446528
v -0.525556 0.020000 -0.444444
v -0.523472 0.009000 -0.446528
v -0.517778 0.000947 -0.452222
v -0.521000 0.039053 -0.460000
v -0.529053 0.031000 -0.460000
v -0.532000 0.020000 -0.460000
v -0.529053 0.009000 -0.460000
v -0.521000 0.000947 -0.460000
v -0.517778 0.039053 -0.467778
v -0.523472 0.031000 -0.473472
v -0.525556 0.020000 -0.475556
v -0.523472 0.009000 -0.473472
v -0.517778 0.000947 -0.467778
v -0.510000 0.039053 -0.471000
v -0.510000 0.031000 -0.479053
v -0.510000 0.020000 -0.482000
v -0.510000 0.009000 -0.479053
v -0.510000 0.000947 -0.471000
v -0.502222 0.039053 -0.467778
v -0.496528 0.031000 -0.473472
v -0.494444 0.020000 -0.475556
v -0.496528 0.009000 -0.473472
v -0.502222 0.000947 -0.467778
v -0.499000 0.039053 -0.460000
v -0.490947 0.031000 -0.460000
v -0.488000 0.020000 -0.460000
v -0.490947 0.009000 -0.460000
v -0.499000 0.000947 -0.460000
v -0.502222 0.039053 -0.452222
v -0.496528 0.031000 -0.446528
v -0.494444 0.020000 -0.444444
v -0.496528 0.009000 -0.446528
v -0.502222 0.000947 -0.452222
vn 1.0000 -0.0000 -0.0000
vn -0.0000 -0.0000 1.0000
vn -1.0000 -0.0000 -0.0000
vn -0.0000 -0.0000 -1.0000
vn -0.0000 -1.0000 -0.0000
vn -0.0000 1.0000 -0.0000
vn -0.1024 -0.9435 -0.3151
vn -0.7002 -0.6617 -0.2680
vn 0.2680 -0.9435 -0.1947
vn 0.2680 -0.9435 0.1947
vn -0.1024 -0.9435 0.3151
vn -0.9050 -0.3304 -0.2680
vn -0.0247 -0.3304 -0.9435
vn 0.8897 -0.3304 -0.3151
vn 0.5746 -0.3304 0.7488
vn -0.5346 -0.3304 0.7779
vn -0.8026 -0.1256 -0.5831
vn 0.3066 -0.1256 -0.9435
vn 0.9921 -0.1256 -0.0000
vn 0.3066 -0.1256 0.9435
vn -0.8026 -0.1256 0.5831
vn -0.4089 0.6617 -0.6284
vn 0.4713 0.6617 -0.5831
vn 0.7002 0.6617 0.2680
vn -0.0385 0.6617 0.7488
vn -0.7240 0.6617 0.1947
vn -0.2680 0.9435 0.1947
vn -0.4911 0.7947 0.3568
vn -0.4089 0.6617 0.6284
vn 0.1024 0.9435 0.3151
vn 0.1876 0.7947 0.5773
vn 0.4713 0.6617 0.5831
vn 0.3313 0.9435 -0.0000
vn 0.6071 0.7947 -0.0000
vn 0.7002 0.6617 -0.2680
vn 0.1024 0.9435 -0.3151
vn 0.1876 0.7947 -0.5773
vn -0.0385 0.6617 -0.7488
vn -0.2680 0.9435 -0.1947
vn -0.4911 0.7947 -0.3568
vn -0.7240 0.6617 -0.1947
vn -0.8897 0.3304 0.3151
vn -0.7947 0.1876 0.5773
vn -0.5746 0.3304 0.7488
vn 0.0247 0.3304 0.9435
vn 0.3035 0.1876 0.9342
vn 0.5346 0.3304 0.7779
vn 0.9050 0.3304 0.2680
vn 0.9822 0.1876 -0.0000
vn 0.9050 0.3304 -0.2680
vn 0.5346 0.3304 -0.7779
vn 0.3035 0.1876 -0.9342
vn 0.0247 0.3304 -0.9435
vn -0.5746 0.3304 -0.7488
vn -0.7947 0.1876 -0.5773
vn -0.8897 0.3304 -0.3151
vn -0.3066 0.1256 0.9435
vn -0.3035 -0.1876 0.9342
vn -0.0247 -0.3304 0.9435
vn 0.8026 0.1256 0.5831
vn 0.7947 -0.1876 0.5773
vn 0.8897 -0.3304 0.3151
vn 0.8026 0.1256 -0.5831
vn 0.7947 -0.1876 -0.5773
vn 0.5746 -0.3304 -0.7488
vn -0.3066 0.1256 -0.9435
vn -0.3035 -0.1876 -0.9342
vn -0.5346 -0.3304 -0.7779
vn -0.9921 0.1256 -0.0000
vn -0.9822 -0.1876 -0.0000
vn -0.9050 -0.3304 0.2680
vn -0.4713 -0.6617 0.5831
vn -0.1876 -0.7947 0.5773
vn 0.0385 -0.6617 0.7488
vn 0.4089 -0.6617 0.6284
vn 0.4911 -0.7947 0.3568
vn 0.7240 -0.6617 0.1947
vn 0.7240 -0.6617 -0.1947
vn 0.4911 -0.7947 -0.3568
vn 0.4089 -0.6617 -0.6284
vn -0.7002 -0.6617 0.2680
vn -0.6071 -0.7947 -0.0000
vn -0.3313 -0.9435 -0.0000
vn 0.0385 -0.6617 -0.7488
vn -0.1876 -0.7947 -0.5773
vn -0.4713 -0.6617 -0.5831
vn -0.4791 -0.1154 0.8701
vn -0.9860 -0.1620 0.0386
vn -0.5890 0.1565 -0.7928
vn 0.3150 0.5217 -0.7928
vn 0.3689 -0.9131 -0.1736
vn 0.8218 0.5684 0.0386
vn 0.4248 0.2499 0.8701
vn -0.5195 -0.0017 0.8545
vn -0.9890 -0.1481 0.0032
vn -0.5292 0.0264 -0.8481
vn 0.4001 0.3473 -0.8481
vn 0.3264 -0.9451 -0.0175
vn 0.8696 0.4938 0.0032
vn 0.4098 0.3193 0.8545
vn -0.5349 0.1865 0.8240
vn -0.9997 0.0120 -0.0198
vn -0.5034 0.0244 -0.8637
vn 0.4576 0.2112 -0.8637
vn 0.1899 -0.9770 0.0974
vn 0.9224 0.3857 -0.0198
vn 0.4261 0.3733 0.8240
vn -0.4921 0.2936 0.8195
vn -0.9843 0.1750 -0.0246
vn -0.4921 0.0564 -0.8687
vn 0.4921 0.0564 -0.8687
vn -0.0000 -0.9903 0.1392
vn 0.9843 0.1750 -0.0246
vn 0.4921 0.2936 0.8195
vn -0.4343 0.3460 0.8317
vn -0.9334 0.3584 -0.0170
vn -0.4660 0.1830 -0.8657
vn 0.5006 -0.0049 -0.8657
vn -0.1899 -0.9770 0.0974
vn 0.9997 -0.0173 -0.0170
vn 0.5323 0.1581 0.8317
vn -0.3794 0.3833 0.8421
vn -0.8318 0.5551 0.0044
vn -0.3698 0.4110 -0.8333
vn 0.5446 0.0952 -0.8333
vn -0.3264 -0.9451 -0.0175
vn 0.9971 -0.0765 0.0044
vn 0.5351 0.0675 0.8421
vn -0.4040 0.2874 0.8684
vn -0.7968 0.6025 0.0459
vn -0.2953 0.5563 -0.7767
vn 0.5989 0.1950 -0.7767
vn -0.3689 -0.9131 -0.1736
vn 0.9917 -0.1201 0.0459
vn 0.4902 -0.0739 0.8684
vn -0.5096 0.0375 0.8596
vn -0.8855 0.4619 0.0508
vn -0.3277 0.5640 -0.7580
vn 0.6059 0.2415 -0.7580
vn -0.3087 -0.8937 -0.3256
vn 0.9818 -0.1829 0.0508
vn 0.4241 -0.2850 0.8596
vn -0.5108 -0.0711 0.8568
vn -0.9200 0.3803 0.0947
vn -0.3715 0.6454 -0.6674
vn 0.5862 0.4592 -0.6674
vn -0.1721 -0.8853 -0.4319
vn 0.9955 0.0079 0.0947
vn 0.4470 -0.2572 0.8568
vn -0.4874 -0.1993 0.8501
vn -0.9748 0.1970 0.1047
vn -0.4874 0.5933 -0.6406
vn 0.4874 0.5933 -0.6406
vn -0.0000 -0.8829 -0.4695
vn 0.9748 0.1970 0.1047
vn 0.4874 -0.1993 0.8501
vn -0.4399 -0.3297 0.8353
vn -0.9962 -0.0608 0.0625
vn -0.5812 0.3969 -0.7104
vn 0.3901 0.5858 -0.7104
vn 0.1721 -0.8853 -0.4319
vn 0.9464 0.3168 0.0625
vn 0.5314 -0.1409 0.8353
vn -0.4325 -0.2510 0.8660
vn -0.9868 -0.1496 0.0622
vn -0.6132 0.2722 -0.7415
vn 0.3146 0.5926 -0.7415
vn 0.3087 -0.8937 -0.3256
vn 0.8688 0.4912 0.0622
vn 0.4952 0.0694 0.8660
vn -0.4693 -0.1636 0.8678
vn -0.9664 -0.2565 0.0131
vn -0.5400 0.0154 -0.8415
vn 0.3836 0.3804 -0.8415
vn 0.3652 -0.9242 -0.1119
vn 0.8808 0.4734 0.0131
vn 0.4543 0.2014 0.8678
vn -0.5179 -0.0042 0.8554
vn -0.9862 -0.1658 -0.0021
vn -0.5100 -0.0292 -0.8597
vn 0.4343 0.2691 -0.8597
vn 0.3012 -0.9534 0.0153
vn 0.9025 0.4307 -0.0021
vn 0.4264 0.2941 0.8554
vn -0.5262 0.1280 0.8407
vn -0.9988 -0.0471 -0.0135
vn -0.4948 -0.0495 -0.8676
vn 0.4818 0.1232 -0.8676
vn 0.1731 -0.9793 0.1049
vn 0.9544 0.2983 -0.0135
vn 0.4504 0.3007 0.8407
vn -0.4957 0.2791 0.8225
vn -0.9875 0.1557 -0.0232
vn -0.4934 0.0416 -0.8688
vn 0.4926 0.0508 -0.8688
vn 0.0093 -0.9902 0.1391
vn 0.9844 0.1742 -0.0232
vn 0.4903 0.2883 0.8225
vn -0.4545 0.2988 0.8392
vn -0.9592 0.2823 -0.0143
vn -0.4846 0.1096 -0.8678
vn 0.4947 -0.0466 -0.8678
vn -0.1565 -0.9814 0.1115
vn 0.9994 -0.0300 -0.0143
vn 0.5249 0.1426 0.8392
vn -0.4349 0.2772 0.8567
vn -0.9170 0.3988 -0.0032
vn -0.4485 0.2323 -0.8630
vn 0.5020 -0.0558 -0.8630
vn -0.2899 -0.9567 0.0273
vn 0.9841 -0.1774 -0.0032
vn 0.5156 -0.0109 0.8567
vn -0.4426 0.2284 0.8671
vn -0.8738 0.4860 0.0132
vn -0.3821 0.3835 -0.8408
vn 0.5408 0.0232 -0.8408
vn -0.3619 -0.9272 -0.0970
vn 0.9720 -0.2345 0.0132
vn 0.4803 -0.1319 0.8671
vn -0.4920 0.1053 0.8642
vn -0.8793 0.4753 0.0287
vn -0.3437 0.4806 -0.8068
vn 0.5794 0.1159 -0.8068
vn -0.3572 -0.9040 -0.2347
vn 0.9667 -0.2541 0.0287
vn 0.4311 -0.2594 0.8642
vn -0.5296 -0.0300 0.8477
vn -0.9104 0.4113 0.0450
vn -0.3452 0.5539 -0.7577
vn 0.6007 0.2551 -0.7577
vn -0.2814 -0.8910 -0.3563
vn 0.9815 -0.1862 0.0450
vn 0.4163 -0.3288 0.8477
vn -0.5223 -0.1270 0.8432
vn -0.9419 0.3270 0.0771
vn -0.3921 0.6096 -0.6890
vn 0.5773 0.4382 -0.6890
vn -0.1564 -0.8849 -0.4387
vn 0.9969 -0.0158 0.0771
vn 0.4471 -0.2984 0.8432
vn -0.4991 -0.2916 0.8160
vn -0.9916 0.1165 0.0570
vn -0.4915 0.5153 -0.7020
vn 0.5011 0.5060 -0.7020
vn -0.0083 -0.8830 -0.4694
vn 0.9936 0.0979 0.0570
vn 0.4935 -0.3009 0.8160
vn -0.4479 -0.3390 0.8273
vn -0.9975 -0.0400 0.0584
vn -0.5681 0.4150 -0.7106
vn 0.4109 0.5711 -0.7106
vn 0.1410 -0.8845 -0.4447
vn 0.9605 0.2722 0.0584
vn 0.5311 -0.1829 0.8273
vn -0.4228 -0.3086 0.8521
vn -0.9870 -0.1509 0.0561
vn -0.6053 0.2935 -0.7399
vn 0.3405 0.5801 -0.7399
vn 0.2697 -0.8900 -0.3675
vn 0.9047 0.4224 0.0561
vn 0.5230 -0.0220 0.8521
vn -0.4442 -0.2146 0.8698
vn -0.9797 -0.1956 0.0448
vn -0.5987 0.1810 -0.7803
vn 0.3177 0.5387 -0.7803
vn 0.3521 -0.9022 -0.2492
vn 0.8531 0.5198 0.0448
vn 0.4721 0.1431 0.8698
vn -0.0000 -0.7430 0.6693
vn -0.0000 -0.4079 0.9130
vn -0.2421 -0.4507 0.8592
vn -0.1602 -0.7724 0.6146
vn -0.0000 -0.1797 0.9837
vn -0.2746 -0.0000 0.9616
vn -0.2684 -0.2033 0.9416
vn -0.0000 0.1797 0.9837
vn -0.0000 0.4079 0.9130
vn -0.2421 0.4507 0.8592
vn -0.2684 0.2033 0.9416
vn -0.0000 0.7430 0.6693
vn -0.1602 0.7724 0.6146
vn -0.5387 0.5731 0.6176
vn -0.6461 0.2840 0.7084
vn -0.3311 0.8421 0.4257
vn -0.3311 -0.8421 0.4257
vn -0.6461 -0.2840 0.7084
vn -0.5387 -0.5731 0.6176
vn -0.6783 -0.0000 0.7348
vn -0.4519 -0.8921 -0.0000
vn -0.9373 -0.3485 -0.0000
vn -0.7511 -0.6602 -0.0000
vn -0.9373 0.3485 -0.0000
vn -0.4519 0.8921 -0.0000
vn -0.7511 0.6602 -0.0000
vn -0.3311 0.8421 -0.4257
vn -0.5387 0.5731 -0.6176
vn -0.5387 -0.5731 -0.6176
vn -0.3311 -0.8421 -0.4257
vn -0.6783 -0.0000 -0.7348
vn -0.6461 -0.2840 -0.7084
vn -0.6461 0.2840 -0.7084
vn -0.2421 -0.4507 -0.8592
vn -0.1602 -0.7724 -0.6146
vn -0.2746 -0.0000 -0.9616
vn -0.2684 -0.2033 -0.9416
vn -0.2421 0.4507 -0.8592
vn -0.2684 0.2033 -0.9416
vn -0.1602 0.7724 -0.6146
vn -0.0000 0.7430 -0.6693
vn -0.0000 -0.7430 -0.6693
vn -0.0000 -0.1797 -0.9837
vn -0.0000 -0.4079 -0.9130
vn -0.0000 0.1797 -0.9837
vn -0.0000 0.4079 -0.9130
vn 0.2684 -0.2033 -0.9416
vn 0.2421 -0.4507 -0.8592
vn 0.2684 0.2033 -0.9416
vn 0.2746 -0.0000 -0.9616
vn 0.1602 0.7724 -0.6146
vn 0.2421 0.4507 -0.8592
vn 0.1602 -0.7724 -0.6146
vn 0.5387 -0.5731 -0.6176
vn 0.3311 -0.8421 -0.4257
vn 0.6783 -0.0000 -0.7348
vn 0.6461 -0.2840 -0.7084
vn 0.5387 0.5731 -0.6176
vn 0.6461 0.2840 -0.7084
vn 0.3311 0.8421 -0.4257
vn 0.9373 -0.3485 -0.0000
vn 0.7511 0.6602 -0.0000
vn 0.9373 0.3485 -0.0000
vn 0.4519 0.8921 -0.0000
vn 0.4519 -0.8921 -0.0000
vn 0.7511 -0.6602 -0.0000
vn 0.3311 -0.8421 0.4257
vn 0.6461 -0.2840 0.7084
vn 0.5387 -0.5731 0.6176
vn 0.6461 0.2840 0.7084
vn 0.6783 -0.0000 0.7348
vn 0.3311 0.8421 0.4257
vn 0.5387 0.5731 0.6176
vn 0.2684 0.2033 0.9416
vn 0.2746 -0.0000 0.9616
vn 0.1602 0.7724 0.6146
vn 0.2421 0.4507 0.8592
vn 0.2421 -0.4507 0.8592
vn 0.1602 -0.7724 0.6146
vn 0.2684 -0.2033 0.9416
vn -0.0000 -0.8383 0.5452
vn -0.0000 -0.4744 0.8803
vn -0.6225 -0.4744 0.6225
vn -0.3855 -0.8383 0.3855
vn -0.0000 0.4744 0.8803
vn -0.6225 0.4744 0.6225
vn -0.7071 -0.0000 0.7071
vn -0.0000 0.8383 0.5452
vn -0.3855 0.8383 0.3855
vn -0.8803 0.4744 -0.0000
vn -0.5452 0.8383 -0.0000
vn -0.5452 -0.8383 -0.0000
vn -0.8803 -0.4744 -0.0000
vn -0.3855 0.8383 -0.3855
vn -0.3855 -0.8383 -0.3855
vn -0.7071 -0.0000 -0.7071
vn -0.6225 -0.4744 -0.6225
vn -0.6225 0.4744 -0.6225
vn -0.0000 -0.8383 -0.5452
vn -0.0000 -0.4744 -0.8803
vn -0.0000 0.8383 -0.5452
vn -0.0000 0.4744 -0.8803
vn 0.3855 -0.8383 -0.3855
vn 0.7071 -0.0000 -0.7071
vn 0.6225 -0.4744 -0.6225
vn 0.3855 0.8383 -0.3855
vn 0.6225 0.4744 -0.6225
vn 0.5452 -0.8383 -0.0000
vn 0.8803 -0.4744 -0.0000
vn 0.5452 0.8383 -0.0000
vn 0.8803 0.4744 -0.0000
vn 0.7071 -0.0000 0.7071
vn 0.6225 -0.4744 0.6225
vn 0.3855 0.8383 0.3855
vn 0.6225 0.4744 0.6225
vn 0.3855 -0.8383 0.3855
vn 0.3612 0.8826 -0.3010
vn 0.7378 -0.2787 -0.6148
vn 0.2254 -0.3671 -0.9025
vn -0.1512 0.7942 -0.5886
vn -0.3087 -0.5806 -0.7534
vn -0.6853 0.5806 -0.4395
vn -0.5517 -0.7942 -0.2549
vn -0.9283 0.3671 0.0590
vn -0.3612 -0.8826 0.3010
vn -0.7378 0.2787 0.6148
vn 0.1512 -0.7942 0.5886
vn -0.2254 0.3671 0.9025
vn 0.6853 -0.5806 0.4395
vn 0.3087 0.5806 0.7534
vn 0.9283 -0.3671 -0.0590
vn 0.5517 0.7942 0.2549
vn 0.2029 0.8572 -0.4734
vn 0.3722 -0.3278 -0.8684
vn -0.2167 -0.4053 -0.8881
vn -0.3859 0.7797 -0.4931
vn -0.6290 -0.5925 -0.5033
vn -0.7983 0.5925 -0.1083
vn -0.6233 -0.7797 0.0606
vn -0.7925 0.4053 0.4556
vn -0.2029 -0.8572 0.4734
vn -0.3722 0.3278 0.8684
vn 0.3859 -0.7797 0.4931
vn 0.2167 0.4053 0.8881
vn 0.7983 -0.5925 0.1083
vn 0.6290 0.5925 0.5033
vn 0.7925 -0.4053 -0.4556
vn 0.6233 0.7797 -0.0606
vn 0.1976 0.8651 0.4611
vn -0.2789 0.7062 -0.6507
vn -0.8893 0.3134 -0.3330
vn -0.4128 0.4722 0.7788
vn -0.8487 -0.4722 -0.2382
vn -0.3722 -0.3134 0.8736
vn -0.1976 -0.8651 -0.4611
vn 0.2789 -0.7062 0.6507
vn 0.4128 -0.4722 -0.7788
vn 0.8893 -0.3134 0.3330
vn 0.3722 0.3134 -0.8736
vn 0.8487 0.4722 0.2382
vn -0.0000 0.8707 0.4918
vn -0.0000 0.6982 -0.7159
vn -0.6862 0.3060 -0.6599
vn -0.6862 0.4785 0.5478
vn -0.6862 -0.4785 -0.5478
vn -0.6862 -0.3060 0.6599
vn -0.0000 -0.8707 -0.4918
vn -0.0000 -0.6982 0.7159
vn 0.6862 -0.4785 -0.5478
vn 0.6862 -0.3060 0.6599
vn 0.6862 0.3060 -0.6599
vn 0.6862 0.4785 0.5478
vn -0.1976 0.8651 0.4611
vn 0.2789 0.7062 -0.6507
vn -0.3722 0.3134 -0.8736
vn -0.8487 0.4722 0.2382
vn -0.4128 -0.4722 -0.7788
vn -0.8893 -0.3134 0.3330
vn 0.1976 -0.8651 -0.4611
vn -0.2789 -0.7062 0.6507
vn 0.8487 -0.4722 -0.2382
vn 0.3722 -0.3134 0.8736
vn 0.8893 0.3134 -0.3330
vn 0.4128 0.4722 0.7788
vn -0.3612 0.8826 -0.3010
vn -0.7378 -0.2787 -0.6148
vn -0.9283 -0.3671 -0.0590
vn -0.5517 0.7942 0.2549
vn -0.6853 -0.5806 0.4395
vn -0.3087 0.5806 0.7534
vn -0.1512 -0.7942 0.5886
vn 0.2254 0.3671 0.9025
vn 0.3612 -0.8826 0.3010
vn 0.7378 0.2787 0.6148
vn 0.5517 -0.7942 -0.2549
vn 0.9283 0.3671 0.0590
vn 0.3087 -0.5806 -0.7534
vn 0.6853 0.5806 -0.4395
vn -0.2254 -0.3671 -0.9025
vn 0.1512 0.7942 -0.5886
vn -0.2029 0.8572 -0.4734
vn -0.3722 -0.3278 -0.8684
vn -0.7925 -0.4053 -0.4556
vn -0.6233 0.7797 -0.0606
vn -0.7983 -0.5925 0.1083
vn -0.6290 0.5925 0.5033
vn -0.3859 -0.7797 0.4931
vn -0.2167 0.4053 0.8881
vn 0.2029 -0.8572 0.4734
vn 0.3722 0.3278 0.8684
vn 0.6233 -0.7797 0.0606
vn 0.7925 0.4053 0.4556
vn 0.6290 -0.5925 -0.5033
vn 0.7983 0.5925 -0.1083
vn 0.2167 -0.4053 -0.8881
vn 0.3859 0.7797 -0.4931
vt 0.375000 0.000000
vt 0.625000 0.000000
vt 0.625000 0.250000
vt 0.375000 0.250000
vt 0.625000 0.500000
vt 0.375000 0.500000
vt 0.625000 0.750000
vt 0.375000 0.750000
vt 0.625000 1.000000
vt 0.375000 1.000000
vt 0.125000 0.500000
vt 0.125000 0.750000
vt 0.875000 0.500000
vt 0.875000 0.750000
vt 0.181819 0.000000
vt 0.227273 0.078731
vt 0.136365 0.078731
vt 0.272728 0.157461
vt 0.318182 0.078731
vt 0.363637 0.157461
vt 0.909091 0.000000
vt 0.954545 0.078731
vt 0.863636 0.078731
vt 0.727273 0.000000
vt 0.772727 0.078731
vt 0.681818 0.078731
vt 0.545455 0.000000
vt 0.590909 0.078731
vt 0.500000 0.078731
vt 0.318182 0.236191
vt 0.090910 0.157461
vt 0.181819 0.157461
vt 0.136365 0.236191
vt 0.818182 0.157461
vt 0.909091 0.157461
vt 0.863636 0.236191
vt 0.636364 0.157461
vt 0.727273 0.157461
vt 0.681818 0.236191
vt 0.454546 0.157461
vt 0.545455 0.157461
vt 0.500000 0.236191
vt 0.227273 0.236191
vt 0.045455 0.236191
vt 0.772727 0.236191
vt 0.590909 0.236191
vt 0.409092 0.236191
vt 0.181819 0.314921
vt 0.272728 0.314921
vt 0.227273 0.393651
vt 0.000000 0.314921
vt 0.090910 0.314921
vt 0.045455 0.393651
vt 0.727273 0.314921
vt 0.818182 0.314921
vt 0.772727 0.393651
vt 0.545455 0.314921
vt 0.636364 0.314921
vt 0.590909 0.393651
vt 0.363637 0.314921
vt 0.454546 0.314921
vt 0.409092 0.393651
vt 0.500000 0.393651
vt 0.454546 0.472382
vt 0.681818 0.393651
vt 0.636364 0.472382
vt 0.863636 0.393651
vt 0.818182 0.472382
vt 0.909091 0.314921
vt 0.136365 0.393651
vt 0.090910 0.472382
vt 0.318182 0.393651
vt 0.272728 0.472382
vt 0.954545 0.236191
vt 1.000000 0.157461
vt 0.409092 0.078731
vt 0.363637 0.000000
vt 0.250000 0.490000
vt 0.250000 0.250000
vt 0.457846 0.370000
vt 0.457846 0.130000
vt 0.250000 0.010000
vt 0.042154 0.130000
vt 0.750000 0.490000
vt 0.957846 0.370000
vt 0.957846 0.130000
vt 0.750000 0.010000
vt 0.542154 0.130000
vt 0.542154 0.370000
vt 0.042154 0.370000
vt 0.250000 0.490000
vt 0.457846 0.370000
vt 0.457846 0.130000
vt 0.250000 0.010000
vt 0.042154 0.130000
vt 0.750000 0.490000
vt 0.957846 0.370000
vt 0.957846 0.130000
vt 0.750000 0.010000
vt 0.542154 0.130000
vt 0.542154 0.370000
vt 0.042154 0.370000
vt 0.750000 0.125000
vt 0.750000 0.250000
vt 0.666667 0.250000
vt 0.666667 0.125000
vt 0.750000 0.375000
vt 0.750000 0.500000
vt 0.666667 0.500000
vt 0.666667 0.375000
vt 0.750000 0.625000
vt 0.750000 0.750000
vt 0.666667 0.750000
vt 0.666667 0.625000
vt 0.750000 0.875000
vt 0.708333 1.000000
vt 0.666667 0.875000
vt 0.708333 0.000000
vt 0.583333 0.750000
vt 0.583333 0.625000
vt 0.583333 0.875000
vt 0.583333 0.125000
vt 0.583333 0.375000
vt 0.583333 0.250000
vt 0.583333 0.500000
vt 0.541667 0.000000
vt 0.500000 0.125000
vt 0.500000 0.375000
vt 0.500000 0.250000
vt 0.500000 0.625000
vt 0.500000 0.500000
vt 0.500000 0.875000
vt 0.500000 0.750000
vt 0.541667 1.000000
vt 0.416667 0.875000
vt 0.416667 0.750000
vt 0.416667 0.250000
vt 0.416667 0.125000
vt 0.416667 0.500000
vt 0.416667 0.375000
vt 0.416667 0.625000
vt 0.458333 1.000000
vt 0.458333 0.000000
vt 0.333333 0.250000
vt 0.333333 0.125000
vt 0.333333 0.500000
vt 0.333333 0.375000
vt 0.333333 0.750000
vt 0.333333 0.625000
vt 0.333333 0.875000
vt 0.291667 1.000000
vt 0.250000 0.875000
vt 0.291667 0.000000
vt 0.250000 0.125000
vt 0.250000 0.375000
vt 0.250000 0.250000
vt 0.250000 0.625000
vt 0.250000 0.500000
vt 0.250000 0.750000
vt 0.166667 0.375000
vt 0.166667 0.250000
vt 0.166667 0.625000
vt 0.166667 0.500000
vt 0.166667 0.875000
vt 0.166667 0.750000
vt 0.166667 0.125000
vt 0.208333 1.000000
vt 0.208333 0.000000
vt 0.083333 0.250000
vt 0.083333 0.125000
vt 0.083333 0.500000
vt 0.083333 0.375000
vt 0.083333 0.750000
vt 0.083333 0.625000
vt 0.125000 1.000000
vt 0.083333 0.875000
vt 0.125000 0.000000
vt 0.000000 0.500000
vt 0.000000 0.375000
vt 0.000000 0.750000
vt 0.000000 0.625000
vt 0.041667 1.000000
vt 0.000000 0.875000
vt 0.041667 0.000000
vt 0.000000 0.125000
vt 0.000000 0.250000
vt 0.958333 0.000000
vt 1.000000 0.125000
vt 0.916667 0.125000
vt 1.000000 0.250000
vt 1.000000 0.375000
vt 0.916667 0.375000
vt 0.916667 0.250000
vt 1.000000 0.500000
vt 1.000000 0.625000
vt 0.916667 0.625000
vt 0.916667 0.500000
vt 1.000000 0.750000
vt 1.000000 0.875000
vt 0.916667 0.875000
vt 0.916667 0.750000
vt 0.958333 1.000000
vt 0.833333 0.625000
vt 0.833333 0.500000
vt 0.833333 0.875000
vt 0.833333 0.750000
vt 0.833333 0.250000
vt 0.833333 0.125000
vt 0.833333 0.375000
vt 0.875000 1.000000
vt 0.875000 0.000000
vt 0.791667 1.000000
vt 0.791667 0.000000
vt 0.750000 0.166667
vt 0.750000 0.333333
vt 0.625000 0.333333
vt 0.625000 0.166667
vt 0.750000 0.500000
vt 0.750000 0.666667
vt 0.625000 0.666667
vt 0.750000 0.833333
vt 0.687500 1.000000
vt 0.625000 0.833333
vt 0.687500 0.000000
vt 0.500000 0.666667
vt 0.562500 1.000000
vt 0.500000 0.833333
vt 0.562500 0.000000
vt 0.500000 0.166667
vt 0.500000 0.333333
vt 0.437500 1.000000
vt 0.375000 0.833333
vt 0.437500 0.000000
vt 0.375000 0.166667
vt 0.375000 0.333333
vt 0.375000 0.666667
vt 0.312500 0.000000
vt 0.250000 0.166667
vt 0.250000 0.333333
vt 0.250000 0.833333
vt 0.250000 0.666667
vt 0.312500 1.000000
vt 0.187500 0.000000
vt 0.125000 0.166667
vt 0.125000 0.333333
vt 0.125000 0.833333
vt 0.125000 0.666667
vt 0.187500 1.000000
vt 0.062500 0.000000
vt 0.000000 0.166667
vt 0.000000 0.333333
vt 0.000000 0.833333
vt 0.000000 0.666667
vt 0.062500 1.000000
vt 1.000000 0.333333
vt 0.875000 0.333333
vt 1.000000 0.666667
vt 1.000000 0.833333
vt 0.875000 0.833333
vt 0.875000 0.666667
vt 1.000000 0.166667
vt 0.875000 0.166667
vt 0.937500 1.000000
vt 0.937500 0.000000
vt 0.812500 1.000000
vt 0.812500 0.000000
vt 1.000000 1.000000
vt 0.875000 1.000000
vt 0.750000 1.000000
vt 0.500000 1.000000
vt 0.250000 1.000000
vt 0.419706 0.419706
vt 0.080294 0.419706
vt 0.010000 0.250000
vt 0.080294 0.080294
vt 0.419706 0.080294
vt 0.490000 0.250000
vt 0.125000 1.000000
vt 0.000000 1.000000
vt 0.919706 0.419706
vt 0.990000 0.250000
vt 0.919706 0.080294
vt 0.580294 0.080294
vt 0.510000 0.250000
vt 0.580294 0.419706
vt 0.750000 0.833333
vt 0.625000 0.833333
vt 0.500000 0.833333
vt 0.375000 0.833333
vt 0.250000 0.833333
vt 0.125000 0.833333
vt 0.000000 0.833333
vt 1.000000 0.833333
vt 0.875000 0.833333
vt 0.833333 1.000000
vt 0.833333 0.500000
vt 0.666667 1.000000
vt 0.666667 0.500000
vt 0.500000 1.000000
vt 0.500000 0.500000
vt 0.333333 1.000000
vt 0.333333 0.500000
vt 0.042154 0.370000
vt 0.042154 0.130000
vt 0.166667 1.000000
vt 0.166667 0.500000
vt -0.000000 1.000000
vt -0.000000 0.500000
vt 0.750000 0.666667
vt 0.500000 0.666667
vt 0.250000 0.666667
vt 0.000000 0.666667
vt 1.000000 0.666667
s 0
usemtl BP_Mata
f 1/1/1 2/2/1 4/3/1 3/4/1
f 3/4/2 4/3/2 8/5/2 7/6/2
f 7/6/3 8/5/3 6/7/3 5/8/3
f 5/8/4 6/7/4 2/9/4 1/10/4
f 3/11/5 7/6/5 5/8/5 1/12/5
f 8/5/6 4/13/6 2/14/6 6/7/6
s 1
f 324/214/349 323/215/350 329/216/351 330/217/352
f 322/218/2 321/219/353 327/220/354 328/5/355
f 320/221/356 319/222/6 326/223/357
f 325/224/5 324/214/349 330/217/352
f 323/215/350 322/218/2 328/5/355 329/216/351
f 321/219/353 320/221/356 326/223/357 327/220/354
f 328/5/355 327/220/354 332/225/358 333/131/3
f 326/223/357 319/226/6 331/227/359
f 325/228/5 330/217/352 335/229/360
f 329/216/351 328/5/355 333/131/3 334/230/361
f 327/220/354 326/223/357 331/227/359 332/225/358
f 330/217/352 329/216/351 334/230/361 335/229/360
f 331/227/359 319/231/6 336/232/362
f 325/233/5 335/229/360 340/234/363
f 334/230/361 333/131/3 338/6/364 339/235/365
f 332/225/358 331/227/359 336/232/362 337/236/366
f 335/229/360 334/230/361 339/235/365 340/234/363
f 333/131/3 332/225/358 337/236/366 338/6/364
f 325/237/5 340/234/363 345/238/367
f 339/235/365 338/6/364 343/158/4 344/239/368
f 337/236/366 336/232/362 341/240/369 342/241/370
f 340/234/363 339/235/365 344/239/368 345/238/367
f 338/6/364 337/236/366 342/241/370 343/158/4
f 336/232/362 319/242/6 341/240/369
f 325/243/5 345/238/367 350/244/371
f 344/239/368 343/158/4 348/11/372 349/245/373
f 342/241/370 341/240/369 346/246/374 347/247/375
f 345/238/367 344/239/368 349/245/373 350/244/371
f 343/158/4 342/241/370 347/247/375 348/11/372
f 341/240/369 319/248/6 346/246/374
f 325/249/5 350/244/371 355/250/376
f 349/245/373 348/11/372 353/178/1 354/251/377
f 347/247/375 346/246/374 351/252/378 352/253/379
f 350/244/371 349/245/373 354/251/377 355/250/376
f 348/11/372 347/247/375 352/253/379 353/178/1
f 346/246/374 319/254/6 351/252/378
f 354/255/377 353/194/1 358/13/380 359/256/381
f 352/257/379 351/258/378 356/259/382 357/260/383
f 355/261/376 354/255/377 359/256/381 360/262/384
f 353/194/1 352/257/379 357/260/383 358/13/380
f 351/258/378 319/263/6 356/259/382
f 325/264/5 355/261/376 360/262/384
f 357/260/383 356/259/382 320/221/356 321/219/353
f 360/262/384 359/256/381 323/215/350 324/214/349
f 358/13/380 357/260/383 321/219/353 322/218/2
f 356/259/382 319/265/6 320/221/356
f 325/266/5 360/262/384 324/214/349
f 359/256/381 358/13/380 322/218/2 323/215/350
f 640/221/356 639/222/6 646/223/357
f 645/224/5 644/214/349 650/217/352
f 643/215/350 642/218/2 648/5/355 649/216/351
f 641/219/353 640/221/356 646/223/357 647/220/354
f 644/214/349 643/215/350 649/216/351 650/217/352
f 642/218/2 641/219/353 647/220/354 648/5/355
f 645/228/5 650/217/352 655/229/360
f 649/216/351 648/5/355 653/131/3 654/230/361
f 647/220/354 646/223/357 651/227/359 652/225/358
f 650/217/352 649/216/351 654/230/361 655/229/360
f 648/5/355 647/220/354 652/225/358 653/131/3
f 646/223/357 639/226/6 651/227/359
f 654/230/361 653/131/3 658/6/364 659/235/365
f 652/225/358 651/227/359 656/232/362 657/236/366
f 655/229/360 654/230/361 659/235/365 660/234/363
f 653/131/3 652/225/358 657/236/366 658/6/364
f 651/227/359 639/231/6 656/232/362
f 645/233/5 655/229/360 660/234/363
f 657/236/366 656/232/362 661/240/369 662/241/370
f 660/234/363 659/235/365 664/239/368 665/238/367
f 658/6/364 657/236/366 662/241/370 663/158/4
f 656/232/362 639/242/6 661/240/369
f 645/237/5 660/234/363 665/238/367
f 659/235/365 658/6/364 663/158/4 664/239/368
f 665/238/367 664/239/368 669/245/373 670/244/371
f 663/158/4 662/241/370 667/247/375 668/11/372
f 661/240/369 639/248/6 666/246/374
f 645/243/5 665/238/367 670/244/371
f 664/239/368 663/158/4 668/11/372 669/245/373
f 662/241/370 661/240/369 666/246/374 667/247/375
f 670/244/371 669/245/373 674/251/377 675/250/376
f 668/11/372 667/247/375 672/253/379 673/178/1
f 666/246/374 639/254/6 671/252/378
f 645/249/5 670/244/371 675/250/376
f 669/245/373 668/11/372 673/178/1 674/251/377
f 667/247/375 666/246/374 671/252/378 672/253/379
f 675/261/376 674/255/377 679/256/381 680/262/384
f 673/194/1 672/257/379 677/260/383 678/13/380
f 671/258/378 639/263/6 676/259/382
f 645/264/5 675/261/376 680/262/384
f 674/255/377 673/194/1 678/13/380 679/256/381
f 672/257/379 671/258/378 676/259/382 677/260/383
f 680/262/384 679/256/381 643/215/350 644/214/349
f 678/13/380 677/260/383 641/219/353 642/218/2
f 676/259/382 639/265/6 640/221/356
f 645/266/5 680/262/384 644/214/349
f 679/256/381 678/13/380 642/218/2 643/215/350
f 677/260/383 676/259/382 640/221/356 641/219/353
s 0
usemtl BP_Inti
f 9/15/7 22/16/7 21/17/7
f 10/18/8 22/19/8 24/20/8
f 9/21/9 21/22/9 26/23/9
f 9/24/10 26/25/10 28/26/10
f 9/27/11 28/28/11 25/29/11
f 10/18/12 24/20/12 31/30/12
f 11/31/13 23/32/13 33/33/13
f 12/34/14 27/35/14 35/36/14
f 13/37/15 29/38/15 37/39/15
f 14/40/16 30/41/16 39/42/16
f 10/18/17 31/30/17 34/43/17
f 11/31/18 33/33/18 36/44/18
f 12/34/19 35/36/19 38/45/19
f 13/37/20 37/39/20 40/46/20
f 14/40/21 39/42/21 32/47/21
f 15/48/22 41/49/22 46/50/22
f 16/51/23 42/52/23 48/53/23
f 17/54/24 43/55/24 49/56/24
f 18/57/25 44/58/25 50/59/25
f 19/60/26 45/61/26 47/62/26
f 47/62/27 50/63/27 20/64/27
f 47/62/28 45/61/28 50/63/28
f 45/61/29 18/57/29 50/63/29
f 50/59/30 49/65/30 20/66/30
f 50/59/31 44/58/31 49/65/31
f 44/58/32 17/54/32 49/65/32
f 49/56/33 48/67/33 20/68/33
f 49/56/34 43/55/34 48/67/34
f 43/55/35 16/69/35 48/67/35
f 48/53/36 46/70/36 20/71/36
f 48/53/37 42/52/37 46/70/37
f 42/52/38 15/48/38 46/70/38
f 46/50/39 47/72/39 20/73/39
f 46/50/40 41/49/40 47/72/40
f 41/49/41 19/60/41 47/72/41
f 32/47/42 45/61/42 19/60/42
f 32/47/43 39/42/43 45/61/43
f 39/42/44 18/57/44 45/61/44
f 40/46/45 44/58/45 18/57/45
f 40/46/46 37/39/46 44/58/46
f 37/39/47 17/54/47 44/58/47
f 38/45/48 43/55/48 17/54/48
f 38/45/49 35/36/49 43/55/49
f 35/36/50 16/69/50 43/55/50
f 36/44/51 42/52/51 16/51/51
f 36/44/52 33/33/52 42/52/52
f 33/33/53 15/48/53 42/52/53
f 34/43/54 41/49/54 15/48/54
f 34/43/55 31/30/55 41/49/55
f 31/30/56 19/60/56 41/49/56
f 39/42/57 40/46/57 18/57/57
f 39/42/58 30/41/58 40/46/58
f 30/41/59 13/37/59 40/46/59
f 37/39/60 38/45/60 17/54/60
f 37/39/61 29/38/61 38/45/61
f 29/38/62 12/34/62 38/45/62
f 35/36/63 36/74/63 16/69/63
f 35/36/64 27/35/64 36/74/64
f 27/35/65 11/75/65 36/74/65
f 33/33/66 34/43/66 15/48/66
f 33/33/67 23/32/67 34/43/67
f 23/32/68 10/18/68 34/43/68
f 31/30/69 32/47/69 19/60/69
f 31/30/70 24/20/70 32/47/70
f 24/20/71 14/40/71 32/47/71
f 25/29/72 30/41/72 14/40/72
f 25/29/73 28/28/73 30/41/73
f 28/28/74 13/37/74 30/41/74
f 28/26/75 29/38/75 13/37/75
f 28/26/76 26/25/76 29/38/76
f 26/25/77 12/34/77 29/38/77
f 26/23/78 27/35/78 12/34/78
f 26/23/79 21/22/79 27/35/79
f 21/22/80 11/75/80 27/35/80
f 24/20/81 25/76/81 14/40/81
f 24/20/82 22/19/82 25/76/82
f 22/19/83 9/77/83 25/76/83
f 21/17/84 23/32/84 11/31/84
f 21/17/85 22/16/85 23/32/85
f 22/16/86 10/18/86 23/32/86
usemtl BP_Api
f 51/78/87 57/79/87 52/80/87
f 52/80/88 57/79/88 53/81/88
f 53/81/89 57/79/89 54/82/89
f 54/82/90 57/79/90 55/83/90
f 51/84/91 52/85/91 53/86/91 54/87/91 55/88/91 56/89/91
f 55/83/92 57/79/92 56/90/92
f 56/90/93 57/79/93 51/78/93
f 58/78/94 64/79/94 59/80/94
f 59/80/95 64/79/95 60/81/95
f 60/81/96 64/79/96 61/82/96
f 61/82/97 64/79/97 62/83/97
f 58/84/98 59/85/98 60/86/98 61/87/98 62/88/98 63/89/98
f 62/83/99 64/79/99 63/90/99
f 63/90/100 64/79/100 58/78/100
f 65/78/101 71/79/101 66/80/101
f 66/80/102 71/79/102 67/81/102
f 67/81/103 71/79/103 68/82/103
f 68/82/104 71/79/104 69/83/104
f 65/84/105 66/85/105 67/86/105 68/87/105 69/88/105 70/89/105
f 69/83/106 71/79/106 70/90/106
f 70/90/107 71/79/107 65/78/107
f 72/78/108 78/79/108 73/80/108
f 73/80/109 78/79/109 74/81/109
f 74/81/110 78/79/110 75/82/110
f 75/82/111 78/79/111 76/83/111
f 72/84/112 73/85/112 74/86/112 75/87/112 76/88/112 77/89/112
f 76/83/113 78/79/113 77/90/113
f 77/90/114 78/79/114 72/78/114
f 79/78/115 85/79/115 80/80/115
f 80/80/116 85/79/116 81/81/116
f 81/81/117 85/79/117 82/82/117
f 82/82/118 85/79/118 83/83/118
f 79/84/119 80/85/119 81/86/119 82/87/119 83/88/119 84/89/119
f 83/83/120 85/79/120 84/90/120
f 84/90/121 85/79/121 79/78/121
f 86/78/122 92/79/122 87/80/122
f 87/80/123 92/79/123 88/81/123
f 88/81/124 92/79/124 89/82/124
f 89/82/125 92/79/125 90/83/125
f 86/84/126 87/85/126 88/86/126 89/87/126 90/88/126 91/89/126
f 90/83/127 92/79/127 91/90/127
f 91/90/128 92/79/128 86/78/128
f 93/78/129 99/79/129 94/80/129
f 94/80/130 99/79/130 95/81/130
f 95/81/131 99/79/131 96/82/131
f 96/82/132 99/79/132 97/83/132
f 93/84/133 94/85/133 95/86/133 96/87/133 97/88/133 98/89/133
f 97/83/134 99/79/134 98/90/134
f 98/90/135 99/79/135 93/78/135
f 100/78/136 106/79/136 101/80/136
f 101/80/137 106/79/137 102/81/137
f 102/81/138 106/79/138 103/82/138
f 103/82/139 106/79/139 104/83/139
f 100/84/140 101/85/140 102/86/140 103/87/140 104/88/140 105/89/140
f 104/83/141 106/79/141 105/90/141
f 105/90/142 106/79/142 100/78/142
f 107/78/143 113/79/143 108/80/143
f 108/80/144 113/79/144 109/81/144
f 109/81/145 113/79/145 110/82/145
f 110/82/146 113/79/146 111/83/146
f 107/84/147 108/85/147 109/86/147 110/87/147 111/88/147 112/89/147
f 111/83/148 113/79/148 112/90/148
f 112/90/149 113/79/149 107/78/149
f 114/78/150 120/79/150 115/80/150
f 115/80/151 120/79/151 116/81/151
f 116/81/152 120/79/152 117/82/152
f 117/82/153 120/79/153 118/83/153
f 114/84/154 115/85/154 116/86/154 117/87/154 118/88/154 119/89/154
f 118/83/155 120/79/155 119/90/155
f 119/90/156 120/79/156 114/78/156
f 121/78/157 127/79/157 122/80/157
f 122/80/158 127/79/158 123/81/158
f 123/81/159 127/79/159 124/82/159
f 124/82/160 127/79/160 125/83/160
f 121/84/161 122/85/161 123/86/161 124/87/161 125/88/161 126/89/161
f 125/83/162 127/79/162 126/90/162
f 126/90/163 127/79/163 121/78/163
f 128/78/164 134/79/164 129/80/164
f 129/80/165 134/79/165 130/81/165
f 130/81/166 134/79/166 131/82/166
f 131/82/167 134/79/167 132/83/167
f 128/84/168 129/85/168 130/86/168 131/87/168 132/88/168 133/89/168
f 132/83/169 134/79/169 133/90/169
f 133/90/170 134/79/170 128/78/170
usemtl BP_ApiLuar
f 135/91/171 141/79/171 136/92/171
f 136/92/172 141/79/172 137/93/172
f 137/93/173 141/79/173 138/94/173
f 138/94/174 141/79/174 139/95/174
f 135/96/175 136/97/175 137/98/175 138/99/175 139/100/175 140/101/175
f 139/95/176 141/79/176 140/102/176
f 140/102/177 141/79/177 135/91/177
f 142/91/178 148/79/178 143/92/178
f 143/92/179 148/79/179 144/93/179
f 144/93/180 148/79/180 145/94/180
f 145/94/181 148/79/181 146/95/181
f 142/96/182 143/97/182 144/98/182 145/99/182 146/100/182 147/101/182
f 146/95/183 148/79/183 147/102/183
f 147/102/184 148/79/184 142/91/184
f 149/91/185 155/79/185 150/92/185
f 150/92/186 155/79/186 151/93/186
f 151/93/187 155/79/187 152/94/187
f 152/94/188 155/79/188 153/95/188
f 149/96/189 150/97/189 151/98/189 152/99/189 153/100/189 154/101/189
f 153/95/190 155/79/190 154/102/190
f 154/102/191 155/79/191 149/91/191
f 156/91/192 162/79/192 157/92/192
f 157/92/193 162/79/193 158/93/193
f 158/93/194 162/79/194 159/94/194
f 159/94/195 162/79/195 160/95/195
f 156/96/196 157/97/196 158/98/196 159/99/196 160/100/196 161/101/196
f 160/95/197 162/79/197 161/102/197
f 161/102/198 162/79/198 156/91/198
f 163/91/199 169/79/199 164/92/199
f 164/92/200 169/79/200 165/93/200
f 165/93/201 169/79/201 166/94/201
f 166/94/202 169/79/202 167/95/202
f 163/96/203 164/97/203 165/98/203 166/99/203 167/100/203 168/101/203
f 167/95/204 169/79/204 168/102/204
f 168/102/205 169/79/205 163/91/205
f 170/91/206 176/79/206 171/92/206
f 171/92/207 176/79/207 172/93/207
f 172/93/208 176/79/208 173/94/208
f 173/94/209 176/79/209 174/95/209
f 170/96/210 171/97/210 172/98/210 173/99/210 174/100/210 175/101/210
f 174/95/211 176/79/211 175/102/211
f 175/102/212 176/79/212 170/91/212
f 177/91/213 183/79/213 178/92/213
f 178/92/214 183/79/214 179/93/214
f 179/93/215 183/79/215 180/94/215
f 180/94/216 183/79/216 181/95/216
f 177/96/217 178/97/217 179/98/217 180/99/217 181/100/217 182/101/217
f 181/95/218 183/79/218 182/102/218
f 182/102/219 183/79/219 177/91/219
f 184/91/220 190/79/220 185/92/220
f 185/92/221 190/79/221 186/93/221
f 186/93/222 190/79/222 187/94/222
f 187/94/223 190/79/223 188/95/223
f 184/96/224 185/97/224 186/98/224 187/99/224 188/100/224 189/101/224
f 188/95/225 190/79/225 189/102/225
f 189/102/226 190/79/226 184/91/226
f 191/91/227 197/79/227 192/92/227
f 192/92/228 197/79/228 193/93/228
f 193/93/229 197/79/229 194/94/229
f 194/94/230 197/79/230 195/95/230
f 191/96/231 192/97/231 193/98/231 194/99/231 195/100/231 196/101/231
f 195/95/232 197/79/232 196/102/232
f 196/102/233 197/79/233 191/91/233
f 198/91/234 204/79/234 199/92/234
f 199/92/235 204/79/235 200/93/235
f 200/93/236 204/79/236 201/94/236
f 201/94/237 204/79/237 202/95/237
f 198/96/238 199/97/238 200/98/238 201/99/238 202/100/238 203/101/238
f 202/95/239 204/79/239 203/102/239
f 203/102/240 204/79/240 198/91/240
f 205/91/241 211/79/241 206/92/241
f 206/92/242 211/79/242 207/93/242
f 207/93/243 211/79/243 208/94/243
f 208/94/244 211/79/244 209/95/244
f 205/96/245 206/97/245 207/98/245 208/99/245 209/100/245 210/101/245
f 209/95/246 211/79/246 210/102/246
f 210/102/247 211/79/247 205/91/247
f 212/91/248 218/79/248 213/92/248
f 213/92/249 218/79/249 214/93/249
f 214/93/250 218/79/250 215/94/250
f 215/94/251 218/79/251 216/95/251
f 212/96/252 213/97/252 214/98/252 215/99/252 216/100/252 217/101/252
f 216/95/253 218/79/253 217/102/253
f 217/102/254 218/79/254 212/91/254
f 219/91/255 225/79/255 220/92/255
f 220/92/256 225/79/256 221/93/256
f 221/93/257 225/79/257 222/94/257
f 222/94/258 225/79/258 223/95/258
f 219/96/259 220/97/259 221/98/259 222/99/259 223/100/259 224/101/259
f 223/95/260 225/79/260 224/102/260
f 224/102/261 225/79/261 219/91/261
f 226/91/262 232/79/262 227/92/262
f 227/92/263 232/79/263 228/93/263
f 228/93/264 232/79/264 229/94/264
f 229/94/265 232/79/265 230/95/265
f 226/96/266 227/97/266 228/98/266 229/99/266 230/100/266 231/101/266
f 230/95/267 232/79/267 231/102/267
f 231/102/268 232/79/268 226/91/268
s 1
usemtl BP_Tengkorak
f 235/103/269 318/104/270 242/105/271 243/106/272
f 317/107/273 316/108/2 240/109/274 241/110/275
f 234/111/276 315/112/277 238/113/278 239/114/279
f 314/115/280 233/116/6 237/117/281
f 236/118/5 235/103/269 243/106/272
f 318/104/270 317/107/273 241/110/275 242/105/271
f 316/108/2 234/111/276 239/114/279 240/109/274
f 315/112/277 314/115/280 237/117/281 238/113/278
f 239/114/279 238/113/278 245/119/282 246/120/283
f 237/117/281 233/9/6 244/121/284
f 236/2/5 243/106/272 250/122/285
f 242/105/271 241/110/275 248/123/286 249/124/287
f 240/109/274 239/114/279 246/120/283 247/125/288
f 238/113/278 237/117/281 244/121/284 245/119/282
f 243/106/272 242/105/271 249/124/287 250/122/285
f 241/110/275 240/109/274 247/125/288 248/123/286
f 236/126/5 250/122/285 257/127/289
f 249/124/287 248/123/286 255/128/290 256/129/291
f 247/125/288 246/120/283 253/130/292 254/131/3
f 245/119/282 244/121/284 251/132/293 252/133/294
f 250/122/285 249/124/287 256/129/291 257/127/289
f 248/123/286 247/125/288 254/131/3 255/128/290
f 246/120/283 245/119/282 252/133/294 253/130/292
f 244/121/284 233/134/6 251/132/293
f 252/133/294 251/132/293 258/135/295 259/136/296
f 257/127/289 256/129/291 263/137/297 264/138/298
f 255/128/290 254/131/3 261/139/299 262/140/300
f 253/130/292 252/133/294 259/136/296 260/141/301
f 251/132/293 233/142/6 258/135/295
f 236/143/5 257/127/289 264/138/298
f 256/129/291 255/128/290 262/140/300 263/137/297
f 254/131/3 253/130/292 260/141/301 261/139/299
f 264/138/298 263/137/297 270/144/302 271/145/303
f 262/140/300 261/139/299 268/146/304 269/147/305
f 260/141/301 259/136/296 266/148/306 267/149/307
f 258/135/295 233/10/6 265/150/308
f 236/1/5 264/138/298 271/145/303
f 263/137/297 262/140/300 269/147/305 270/144/302
f 261/139/299 260/141/301 267/149/307 268/146/304
f 259/136/296 258/135/295 265/150/308 266/148/306
f 265/150/308 233/151/6 272/152/309
f 236/153/5 271/145/303 278/154/310
f 270/144/302 269/147/305 276/155/311 277/156/312
f 268/146/304 267/149/307 274/157/313 275/158/4
f 266/148/306 265/150/308 272/152/309 273/159/314
f 271/145/303 270/144/302 277/156/312 278/154/310
f 269/147/305 268/146/304 275/158/4 276/155/311
f 267/149/307 266/148/306 273/159/314 274/157/313
f 277/156/312 276/155/311 283/160/315 284/161/316
f 275/158/4 274/157/313 281/162/317 282/163/318
f 273/159/314 272/152/309 279/164/319 280/165/320
f 278/154/310 277/156/312 284/161/316 285/166/321
f 276/155/311 275/158/4 282/163/318 283/160/315
f 274/157/313 273/159/314 280/165/320 281/162/317
f 272/152/309 233/167/6 279/164/319
f 236/168/5 278/154/310 285/166/321
f 285/166/321 284/161/316 291/169/322 292/170/323
f 283/160/315 282/163/318 289/171/324 290/172/325
f 281/162/317 280/165/320 287/173/326 288/174/327
f 279/164/319 233/175/6 286/176/328
f 236/177/5 285/166/321 292/170/323
f 284/161/316 283/160/315 290/172/325 291/169/322
f 282/163/318 281/162/317 288/174/327 289/171/324
f 280/165/320 279/164/319 286/176/328 287/173/326
f 290/172/325 289/171/324 296/178/1 297/179/329
f 288/174/327 287/173/326 294/180/330 295/181/331
f 286/176/328 233/182/6 293/183/332
f 236/184/5 292/170/323 299/185/333
f 291/169/322 290/172/325 297/179/329 298/186/334
f 289/171/324 288/174/327 295/181/331 296/178/1
f 287/173/326 286/176/328 293/183/332 294/180/330
f 292/170/323 291/169/322 298/186/334 299/185/333
f 236/187/5 299/188/333 306/189/335
f 298/190/334 297/191/329 304/192/336 305/193/337
f 296/194/1 295/195/331 302/196/338 303/197/339
f 294/198/330 293/199/332 300/200/340 301/201/341
f 299/188/333 298/190/334 305/193/337 306/189/335
f 297/191/329 296/194/1 303/197/339 304/192/336
f 295/195/331 294/198/330 301/201/341 302/196/338
f 293/199/332 233/202/6 300/200/340
f 303/197/339 302/196/338 309/203/342 310/204/343
f 301/201/341 300/200/340 307/205/344 308/206/345
f 306/189/335 305/193/337 312/207/346 313/208/347
f 304/192/336 303/197/339 310/204/343 311/209/348
f 302/196/338 301/201/341 308/206/345 309/203/342
f 300/200/340 233/210/6 307/205/344
f 236/211/5 306/189/335 313/208/347
f 305/193/337 304/192/336 311/209/348 312/207/346
f 313/208/347 312/207/346 318/104/270 235/103/269
f 311/209/348 310/204/343 316/108/2 317/107/273
f 309/203/342 308/206/345 315/112/277 234/111/276
f 307/205/344 233/212/6 314/115/280
f 236/213/5 313/208/347 235/103/269
f 312/207/346 311/209/348 317/107/273 318/104/270
f 310/204/343 309/203/342 234/111/276 316/108/2
f 308/206/345 307/205/344 314/115/280 315/112/277
usemtl BP_Tangan
f 361/194/385 362/267/386 364/268/387 363/13/388
f 363/13/388 364/268/387 366/269/389 365/218/390
f 365/218/390 366/269/389 368/9/391 367/5/392
f 367/5/392 368/9/391 370/270/393 369/131/394
f 369/131/394 370/270/393 372/10/395 371/6/396
f 371/6/396 372/10/395 374/271/397 373/158/398
f 364/272/387 362/78/386 376/273/399 374/274/397 372/275/395 370/82/393 368/276/391 366/277/389
f 373/158/398 374/271/397 376/278/399 375/11/400
f 375/11/400 376/278/399 362/279/386 361/178/385
f 361/84/385 363/280/388 365/281/390 367/282/392 369/87/394 371/283/396 373/284/398 375/285/400
f 380/224/5 418/214/349 385/217/352
f 379/215/350 417/218/2 383/5/355 384/216/351
f 378/219/353 416/286/356 381/287/357 382/220/354
f 418/214/349 379/215/350 384/216/351 385/217/352
f 417/218/2 378/219/353 382/220/354 383/5/355
f 416/286/356 377/222/6 381/287/357
f 385/217/352 384/216/351 389/230/361 390/229/360
f 383/5/355 382/220/354 387/225/358 388/131/3
f 381/287/357 377/226/6 386/288/359
f 380/228/5 385/217/352 390/229/360
f 384/216/351 383/5/355 388/131/3 389/230/361
f 382/220/354 381/287/357 386/288/359 387/225/358
f 390/229/360 389/230/361 394/235/365 395/234/363
f 388/131/3 387/225/358 392/236/366 393/6/364
f 386/288/359 377/231/6 391/289/362
f 380/233/5 390/229/360 395/234/363
f 389/230/361 388/131/3 393/6/364 394/235/365
f 387/225/358 386/288/359 391/289/362 392/236/366
f 395/234/363 394/235/365 399/239/368 400/238/367
f 393/6/364 392/236/366 397/241/370 398/158/4
f 391/289/362 377/242/6 396/290/369
f 380/237/5 395/234/363 400/238/367
f 394/235/365 393/6/364 398/158/4 399/239/368
f 392/236/366 391/289/362 396/290/369 397/241/370
f 400/238/367 399/239/368 404/245/373 405/244/371
f 398/158/4 397/241/370 402/247/375 403/11/372
f 396/290/369 377/248/6 401/291/374
f 380/243/5 400/238/367 405/244/371
f 399/239/368 398/158/4 403/11/372 404/245/373
f 397/241/370 396/290/369 401/291/374 402/247/375
f 403/11/372 402/247/375 407/253/379 408/178/1
f 401/291/374 377/254/6 406/292/378
f 380/249/5 405/244/371 410/250/376
f 404/245/373 403/11/372 408/178/1 409/251/377
f 402/247/375 401/291/374 406/292/378 407/253/379
f 405/244/371 404/245/373 409/251/377 410/250/376
f 406/293/378 377/263/6 411/294/382
f 380/264/5 410/261/376 415/262/384
f 409/255/377 408/194/1 413/13/380 414/256/381
f 407/257/379 406/293/378 411/294/382 412/260/383
f 410/261/376 409/255/377 414/256/381 415/262/384
f 408/194/1 407/257/379 412/260/383 413/13/380
f 380/266/5 415/262/384 418/214/349
f 414/256/381 413/13/380 417/218/2 379/215/350
f 412/260/383 411/294/382 416/286/356 378/219/353
f 415/262/384 414/256/381 379/215/350 418/214/349
f 413/13/380 412/260/383 378/219/353 417/218/2
f 411/294/382 377/265/6 416/286/356
f 419/194/401 420/267/402 422/268/403 421/13/404
f 421/13/404 422/268/403 424/269/405 423/218/406
f 423/218/406 424/269/405 426/9/407 425/5/408
f 425/5/408 426/9/407 428/270/409 427/131/410
f 427/131/410 428/270/409 430/10/411 429/6/412
f 429/6/412 430/10/411 432/271/413 431/158/414
f 422/272/403 420/78/402 434/273/415 432/274/413 430/275/411 428/82/409 426/276/407 424/277/405
f 431/158/414 432/271/413 434/278/415 433/11/416
f 433/11/416 434/278/415 420/279/402 419/178/401
f 419/84/401 421/280/404 423/281/406 425/282/408 427/87/410 429/283/412 431/284/414 433/285/416
f 475/218/2 436/219/353 440/220/354 441/5/355
f 474/286/356 435/222/6 439/287/357
f 438/224/5 476/214/349 443/217/352
f 437/215/350 475/218/2 441/5/355 442/216/351
f 436/219/353 474/286/356 439/287/357 440/220/354
f 476/214/349 437/215/350 442/216/351 443/217/352
f 438/228/5 443/217/352 448/229/360
f 442/216/351 441/5/355 446/131/3 447/230/361
f 440/220/354 439/287/357 444/288/359 445/225/358
f 443/217/352 442/216/351 447/230/361 448/229/360
f 441/5/355 440/220/354 445/225/358 446/131/3
f 439/287/357 435/226/6 444/288/359
f 438/233/5 448/229/360 453/234/363
f 447/230/361 446/131/3 451/6/364 452/235/365
f 445/225/358 444/288/359 449/289/362 450/236/366
f 448/229/360 447/230/361 452/235/365 453/234/363
f 446/131/3 445/225/358 450/236/366 451/6/364
f 444/288/359 435/231/6 449/289/362
f 452/235/365 451/6/364 456/158/4 457/239/368
f 450/236/366 449/289/362 454/290/369 455/241/370
f 453/234/363 452/235/365 457/239/368 458/238/367
f 451/6/364 450/236/366 455/241/370 456/158/4
f 449/289/362 435/242/6 454/290/369
f 438/237/5 453/234/363 458/238/367
f 455/241/370 454/290/369 459/291/374 460/247/375
f 458/238/367 457/239/368 462/245/373 463/244/371
f 456/158/4 455/241/370 460/247/375 461/11/372
f 454/290/369 435/248/6 459/291/374
f 438/243/5 458/238/367 463/244/371
f 457/239/368 456/158/4 461/11/372 462/245/373
f 463/244/371 462/245/373 467/251/377 468/250/376
f 461/11/372 460/247/375 465/253/379 466/178/1
f 459/291/374 435/254/6 464/292/378
f 438/249/5 463/244/371 468/250/376
f 462/245/373 461/11/372 466/178/1 467/251/377
f 460/247/375 459/291/374 464/292/378 465/253/379
f 468/261/376 467/255/377 472/256/381 473/262/384
f 466/194/1 465/257/379 470/260/383 471/13/380
f 464/293/378 435/263/6 469/294/382
f 438/264/5 468/261/376 473/262/384
f 467/255/377 466/194/1 471/13/380 472/256/381
f 465/257/379 464/293/378 469/294/382 470/260/383
f 473/262/384 472/256/381 437/215/350 476/214/349
f 471/13/380 470/260/383 436/219/353 475/218/2
f 469/294/382 435/265/6 474/286/356
f 438/266/5 473/262/384 476/214/349
f 472/256/381 471/13/380 475/218/2 437/215/350
f 470/260/383 469/294/382 474/286/356 436/219/353
f 477/194/417 478/267/418 480/295/419 479/296/420
f 479/296/420 480/295/419 482/297/421 481/298/422
f 481/298/422 482/297/421 484/299/423 483/300/424
f 483/300/424 484/299/423 486/301/425 485/302/426
f 480/80/419 478/78/418 488/303/427 486/304/425 484/82/423 482/81/421
f 485/302/426 486/301/425 488/305/427 487/306/428
f 487/306/428 488/305/427 478/307/418 477/308/417
f 477/84/417 479/85/420 481/86/422 483/87/424 485/88/426 487/89/428
f 493/215/350 492/218/2 498/5/355 499/216/351
f 491/309/353 490/221/356 496/223/357 497/220/354
f 494/214/349 493/215/350 499/216/351 500/217/352
f 492/218/2 491/309/353 497/220/354 498/5/355
f 490/221/356 489/222/6 496/223/357
f 495/224/5 494/214/349 500/217/352
f 500/217/352 499/216/351 504/230/361 505/229/360
f 498/5/355 497/220/354 502/310/358 503/131/3
f 496/223/357 489/226/6 501/227/359
f 495/228/5 500/217/352 505/229/360
f 499/216/351 498/5/355 503/131/3 504/230/361
f 497/220/354 496/223/357 501/227/359 502/310/358
f 505/229/360 504/230/361 509/235/365 510/234/363
f 503/131/3 502/310/358 507/236/366 508/6/364
f 501/227/359 489/231/6 506/232/362
f 495/233/5 505/229/360 510/234/363
f 504/230/361 503/131/3 508/6/364 509/235/365
f 502/310/358 501/227/359 506/232/362 507/236/366
f 510/234/363 509/235/365 514/239/368 515/238/367
f 508/6/364 507/236/366 512/311/370 513/158/4
f 506/232/362 489/242/6 511/240/369
f 495/237/5 510/234/363 515/238/367
f 509/235/365 508/6/364 513/158/4 514/239/368
f 507/236/366 506/232/362 511/240/369 512/311/370
f 513/158/4 512/311/370 517/247/375 518/11/372
f 511/240/369 489/248/6 516/246/374
f 495/243/5 515/238/367 520/244/371
f 514/239/368 513/158/4 518/11/372 519/245/373
f 512/311/370 511/240/369 516/246/374 517/247/375
f 515/238/367 514/239/368 519/245/373 520/244/371
f 516/246/374 489/254/6 521/252/378
f 495/249/5 520/244/371 525/250/376
f 519/245/373 518/11/372 523/178/1 524/251/377
f 517/247/375 516/246/374 521/252/378 522/312/379
f 520/244/371 519/245/373 524/251/377 525/250/376
f 518/11/372 517/247/375 522/312/379 523/178/1
f 495/264/5 525/261/376 530/262/384
f 524/255/377 523/194/1 528/13/380 529/256/381
f 522/313/379 521/258/378 526/259/382 527/260/383
f 525/261/376 524/255/377 529/256/381 530/262/384
f 523/194/1 522/313/379 527/260/383 528/13/380
f 521/258/378 489/263/6 526/259/382
f 495/266/5 530/262/384 494/214/349
f 529/256/381 528/13/380 492/218/2 493/215/350
f 527/260/383 526/259/382 490/221/356 491/309/353
f 530/262/384 529/256/381 493/215/350 494/214/349
f 528/13/380 527/260/383 491/309/353 492/218/2
f 526/259/382 489/265/6 490/221/356
f 531/194/429 532/267/430 534/295/431 533/296/432
f 533/296/432 534/295/431 536/297/433 535/298/434
f 535/298/434 536/297/433 538/299/435 537/300/436
f 537/300/436 538/299/435 540/301/437 539/302/438
f 534/80/431 532/78/430 542/303/439 540/304/437 538/82/435 536/81/433
f 539/302/438 540/301/437 542/305/439 541/306/440
f 541/306/440 542/305/439 532/307/430 531/308/429
f 531/84/429 533/85/432 535/86/434 537/87/436 539/88/438 541/89/440
f 544/221/356 543/222/6 550/223/357
f 549/224/5 548/214/349 554/217/352
f 547/215/350 546/218/2 552/5/355 553/216/351
f 545/309/353 544/221/356 550/223/357 551/220/354
f 548/214/349 547/215/350 553/216/351 554/217/352
f 546/218/2 545/309/353 551/220/354 552/5/355
f 549/228/5 554/217/352 559/229/360
f 553/216/351 552/5/355 557/131/3 558/230/361
f 551/220/354 550/223/357 555/227/359 556/310/358
f 554/217/352 553/216/351 558/230/361 559/229/360
f 552/5/355 551/220/354 556/310/358 557/131/3
f 550/223/357 543/226/6 555/227/359
f 558/230/361 557/131/3 562/6/364 563/235/365
f 556/310/358 555/227/359 560/232/362 561/236/366
f 559/229/360 558/230/361 563/235/365 564/234/363
f 557/131/3 556/310/358 561/236/366 562/6/364
f 555/227/359 543/231/6 560/232/362
f 549/233/5 559/229/360 564/234/363
f 561/236/366 560/232/362 565/240/369 566/311/370
f 564/234/363 563/235/365 568/239/368 569/238/367
f 562/6/364 561/236/366 566/311/370 567/158/4
f 560/232/362 543/242/6 565/240/369
f 549/237/5 564/234/363 569/238/367
f 563/235/365 562/6/364 567/158/4 568/239/368
f 569/238/367 568/239/368 573/245/373 574/244/371
f 567/158/4 566/311/370 571/247/375 572/11/372
f 565/240/369 543/248/6 570/246/374
f 549/243/5 569/238/367 574/244/371
f 568/239/368 567/158/4 572/11/372 573/245/373
f 566/311/370 565/240/369 570/246/374 571/247/375
f 574/244/371 573/245/373 578/251/377 579/250/376
f 572/11/372 571/247/375 576/312/379 577/178/1
f 570/246/374 543/254/6 575/252/378
f 549/249/5 574/244/371 579/250/376
f 573/245/373 572/11/372 577/178/1 578/251/377
f 571/247/375 570/246/374 575/252/378 576/312/379
f 579/261/376 578/255/377 583/256/381 584/262/384
f 577/194/1 576/313/379 581/260/383 582/13/380
f 575/258/378 543/263/6 580/259/382
f 549/264/5 579/261/376 584/262/384
f 578/255/377 577/194/1 582/13/380 583/256/381
f 576/313/379 575/258/378 580/259/382 581/260/383
f 584/262/384 583/256/381 547/215/350 548/214/349
f 582/13/380 581/260/383 545/309/353 546/218/2
f 580/259/382 543/265/6 544/221/356
f 549/266/5 584/262/384 548/214/349
f 583/256/381 582/13/380 546/218/2 547/215/350
f 581/260/383 580/259/382 544/221/356 545/309/353
f 585/194/441 586/267/442 588/295/443 587/296/444
f 587/296/444 588/295/443 590/297/445 589/298/446
f 589/298/446 590/297/445 592/299/447 591/300/448
f 591/300/448 592/299/447 594/301/449 593/302/450
f 588/80/443 586/78/442 596/303/451 594/304/449 592/82/447 590/81/445
f 593/302/450 594/301/449 596/305/451 595/306/452
f 595/306/452 596/305/451 586/307/442 585/308/441
f 585/84/441 587/85/444 589/86/446 591/87/448 593/88/450 595/89/452
f 602/214/349 601/215/350 607/216/351 608/217/352
f 600/218/2 599/309/353 605/220/354 606/5/355
f 598/221/356 597/222/6 604/223/357
f 603/224/5 602/214/349 608/217/352
f 601/215/350 600/218/2 606/5/355 607/216/351
f 599/309/353 598/221/356 604/223/357 605/220/354
f 606/5/355 605/220/354 610/310/358 611/131/3
f 604/223/357 597/226/6 609/227/359
f 603/228/5 608/217/352 613/229/360
f 607/216/351 606/5/355 611/131/3 612/230/361
f 605/220/354 604/223/357 609/227/359 610/310/358
f 608/217/352 607/216/351 612/230/361 613/229/360
f 609/227/359 597/231/6 614/232/362
f 603/233/5 613/229/360 618/234/363
f 612/230/361 611/131/3 616/6/364 617/235/365
f 610/310/358 609/227/359 614/232/362 615/236/366
f 613/229/360 612/230/361 617/235/365 618/234/363
f 611/131/3 610/310/358 615/236/366 616/6/364
f 603/237/5 618/234/363 623/238/367
f 617/235/365 616/6/364 621/158/4 622/239/368
f 615/236/366 614/232/362 619/240/369 620/311/370
f 618/234/363 617/235/365 622/239/368 623/238/367
f 616/6/364 615/236/366 620/311/370 621/158/4
f 614/232/362 597/242/6 619/240/369
f 603/243/5 623/238/367 628/244/371
f 622/239/368 621/158/4 626/11/372 627/245/373
f 620/311/370 619/240/369 624/246/374 625/247/375
f 623/238/367 622/239/368 627/245/373 628/244/371
f 621/158/4 620/311/370 625/247/375 626/11/372
f 619/240/369 597/248/6 624/246/374
f 603/249/5 628/244/371 633/250/376
f 627/245/373 626/11/372 631/178/1 632/251/377
f 625/247/375 624/246/374 629/252/378 630/312/379
f 628/244/371 627/245/373 632/251/377 633/250/376
f 626/11/372 625/247/375 630/312/379 631/178/1
f 624/246/374 597/254/6 629/252/378
f 632/255/377 631/194/1 636/13/380 637/256/381
f 630/313/379 629/258/378 634/259/382 635/260/383
f 633/261/376 632/255/377 637/256/381 638/262/384
f 631/194/1 630/313/379 635/260/383 636/13/380
f 629/258/378 597/263/6 634/259/382
f 603/264/5 633/261/376 638/262/384
f 635/260/383 634/259/382 598/221/356 599/309/353
f 638/262/384 637/256/381 601/215/350 602/214/349
f 636/13/380 635/260/383 599/309/353 600/218/2
f 634/259/382 597/265/6 598/221/356
f 603/266/5 638/262/384 602/214/349
f 637/256/381 636/13/380 600/218/2 601/215/350
f 681/194/453 682/267/454 684/268/455 683/13/456
f 683/13/456 684/268/455 686/269/457 685/218/458
f 685/218/458 686/269/457 688/9/459 687/5/460
f 687/5/460 688/9/459 690/270/461 689/131/462
f 689/131/462 690/270/461 692/10/463 691/6/464
f 691/6/464 692/10/463 694/271/465 693/158/466
f 684/272/455 682/78/454 696/273/467 694/274/465 692/275/463 690/82/461 688/276/459 686/277/457
f 693/158/466 694/271/465 696/278/467 695/11/468
f 695/11/468 696/278/467 682/279/454 681/178/453
f 681/84/453 683/280/456 685/281/458 687/282/460 689/87/462 691/283/464 693/284/466 695/285/468
f 738/214/349 699/215/350 704/216/351 705/217/352
f 737/218/2 698/219/353 702/220/354 703/5/355
f 736/286/356 697/222/6 701/287/357
f 700/224/5 738/214/349 705/217/352
f 699/215/350 737/218/2 703/5/355 704/216/351
f 698/219/353 736/286/356 701/287/357 702/220/354
f 703/5/355 702/220/354 707/225/358 708/131/3
f 701/287/357 697/226/6 706/288/359
f 700/228/5 705/217/352 710/229/360
f 704/216/351 703/5/355 708/131/3 709/230/361
f 702/220/354 701/287/357 706/288/359 707/225/358
f 705/217/352 704/216/351 709/230/361 710/229/360
f 706/288/359 697/231/6 711/289/362
f 700/233/5 710/229/360 715/234/363
f 709/230/361 708/131/3 713/6/364 714/235/365
f 707/225/358 706/288/359 711/289/362 712/236/366
f 710/229/360 709/230/361 714/235/365 715/234/363
f 708/131/3 707/225/358 712/236/366 713/6/364
f 700/237/5 715/234/363 720/238/367
f 714/235/365 713/6/364 718/158/4 719/239/368
f 712/236/366 711/289/362 716/290/369 717/241/370
f 715/234/363 714/235/365 719/239/368 720/238/367
f 713/6/364 712/236/366 717/241/370 718/158/4
f 711/289/362 697/242/6 716/290/369
f 700/243/5 720/238/367 725/244/371
f 719/239/368 718/158/4 723/11/372 724/245/373
f 717/241/370 716/290/369 721/291/374 722/247/375
f 720/238/367 719/239/368 724/245/373 725/244/371
f 718/158/4 717/241/370 722/247/375 723/11/372
f 716/290/369 697/248/6 721/291/374
f 700/249/5 725/244/371 730/250/376
f 724/245/373 723/11/372 728/178/1 729/251/377
f 722/247/375 721/291/374 726/292/378 727/253/379
f 725/244/371 724/245/373 729/251/377 730/250/376
f 723/11/372 722/247/375 727/253/379 728/178/1
f 721/291/374 697/254/6 726/292/378
f 729/255/377 728/194/1 733/13/380 734/256/381
f 727/257/379 726/293/378 731/294/382 732/260/383
f 730/261/376 729/255/377 734/256/381 735/262/384
f 728/194/1 727/257/379 732/260/383 733/13/380
f 726/293/378 697/263/6 731/294/382
f 700/264/5 730/261/376 735/262/384
f 732/260/383 731/294/382 736/286/356 698/219/353
f 735/262/384 734/256/381 699/215/350 738/214/349
f 733/13/380 732/260/383 698/219/353 737/218/2
f 731/294/382 697/265/6 736/286/356
f 700/266/5 735/262/384 738/214/349
f 734/256/381 733/13/380 737/218/2 699/215/350
f 739/194/469 740/267/470 742/268/471 741/13/472
f 741/13/472 742/268/471 744/269/473 743/218/474
f 743/218/474 744/269/473 746/9/475 745/5/476
f 745/5/476 746/9/475 748/270/477 747/131/478
f 747/131/478 748/270/477 750/10/479 749/6/480
f 749/6/480 750/10/479 752/271/481 751/158/482
f 742/272/471 740/78/470 754/273/483 752/274/481 750/275/479 748/82/477 746/276/475 744/277/473
f 751/158/482 752/271/481 754/278/483 753/11/484
f 753/11/484 754/278/483 740/279/470 739/178/469
f 739/84/469 741/280/472 743/281/474 745/282/476 747/87/478 749/283/480 751/284/482 753/285/484
f 758/224/5 796/214/349 763/217/352
f 757/215/350 795/218/2 761/5/355 762/216/351
f 756/219/353 794/286/356 759/287/357 760/220/354
f 796/214/349 757/215/350 762/216/351 763/217/352
f 795/218/2 756/219/353 760/220/354 761/5/355
f 794/286/356 755/222/6 759/287/357
f 763/217/352 762/216/351 767/230/361 768/229/360
f 761/5/355 760/220/354 765/225/358 766/131/3
f 759/287/357 755/226/6 764/288/359
f 758/228/5 763/217/352 768/229/360
f 762/216/351 761/5/355 766/131/3 767/230/361
f 760/220/354 759/287/357 764/288/359 765/225/358
f 768/229/360 767/230/361 772/235/365 773/234/363
f 766/131/3 765/225/358 770/236/366 771/6/364
f 764/288/359 755/231/6 769/289/362
f 758/233/5 768/229/360 773/234/363
f 767/230/361 766/131/3 771/6/364 772/235/365
f 765/225/358 764/288/359 769/289/362 770/236/366
f 773/234/363 772/235/365 777/239/368 778/238/367
f 771/6/364 770/236/366 775/241/370 776/158/4
f 769/289/362 755/242/6 774/290/369
f 758/237/5 773/234/363 778/238/367
f 772/235/365 771/6/364 776/158/4 777/239/368
f 770/236/366 769/289/362 774/290/369 775/241/370
f 778/238/367 777/239/368 782/245/373 783/244/371
f 776/158/4 775/241/370 780/247/375 781/11/372
f 774/290/369 755/248/6 779/291/374
f 758/243/5 778/238/367 783/244/371
f 777/239/368 776/158/4 781/11/372 782/245/373
f 775/241/370 774/290/369 779/291/374 780/247/375
f 781/11/372 780/247/375 785/253/379 786/178/1
f 779/291/374 755/254/6 784/292/378
f 758/249/5 783/244/371 788/250/376
f 782/245/373 781/11/372 786/178/1 787/251/377
f 780/247/375 779/291/374 784/292/378 785/253/379
f 783/244/371 782/245/373 787/251/377 788/250/376
f 784/293/378 755/263/6 789/294/382
f 758/264/5 788/261/376 793/262/384
f 787/255/377 786/194/1 791/13/380 792/256/381
f 785/257/379 784/293/378 789/294/382 790/260/383
f 788/261/376 787/255/377 792/256/381 793/262/384
f 786/194/1 785/257/379 790/260/383 791/13/380
f 758/266/5 793/262/384 796/214/349
f 792/256/381 791/13/380 795/218/2 757/215/350
f 790/260/383 789/294/382 794/286/356 756/219/353
f 793/262/384 792/256/381 757/215/350 796/214/349
f 791/13/380 790/260/383 756/219/353 795/218/2
f 789/294/382 755/265/6 794/286/356
f 797/194/441 798/267/442 800/295/443 799/296/444
f 799/296/444 800/295/443 802/297/445 801/298/446
f 801/298/446 802/297/445 804/299/447 803/300/448
f 803/300/448 804/299/447 806/301/449 805/302/450
f 800/80/443 798/78/442 808/303/451 806/304/449 804/82/447 802/81/445
f 805/302/450 806/301/449 808/305/451 807/306/452
f 807/306/452 808/305/451 798/307/442 797/308/441
f 797/84/441 799/85/444 801/86/446 803/87/448 805/88/450 807/89/452
f 814/214/349 813/215/350 819/216/351 820/217/352
f 812/218/2 811/309/353 817/220/354 818/5/355
f 810/221/356 809/222/6 816/223/357
f 815/224/5 814/214/349 820/217/352
f 813/215/350 812/218/2 818/5/355 819/216/351
f 811/309/353 810/221/356 816/223/357 817/220/354
f 816/223/357 809/226/6 821/227/359
f 815/228/5 820/217/352 825/229/360
f 819/216/351 818/5/355 823/131/3 824/230/361
f 817/220/354 816/223/357 821/227/359 822/310/358
f 820/217/352 819/216/351 824/230/361 825/229/360
f 818/5/355 817/220/354 822/310/358 823/131/3
f 815/233/5 825/229/360 830/234/363
f 824/230/361 823/131/3 828/6/364 829/235/365
f 822/310/358 821/227/359 826/232/362 827/236/366
f 825/229/360 824/230/361 829/235/365 830/234/363
f 823/131/3 822/310/358 827/236/366 828/6/364
f 821/227/359 809/231/6 826/232/362
f 815/237/5 830/234/363 835/238/367
f 829/235/365 828/6/364 833/158/4 834/239/368
f 827/236/366 826/232/362 831/240/369 832/311/370
f 830/234/363 829/235/365 834/239/368 835/238/367
f 828/6/364 827/236/366 832/311/370 833/158/4
f 826/232/362 809/242/6 831/240/369
f 815/243/5 835/238/367 840/244/371
f 834/239/368 833/158/4 838/11/372 839/245/373
f 832/311/370 831/240/369 836/246/374 837/247/375
f 835/238/367 834/239/368 839/245/373 840/244/371
f 833/158/4 832/311/370 837/247/375 838/11/372
f 831/240/369 809/248/6 836/246/374
f 839/245/373 838/11/372 843/178/1 844/251/377
f 837/247/375 836/246/374 841/252/378 842/312/379
f 840/244/371 839/245/373 844/251/377 845/250/376
f 838/11/372 837/247/375 842/312/379 843/178/1
f 836/246/374 809/254/6 841/252/378
f 815/249/5 840/244/371 845/250/376
f 842/313/379 841/258/378 846/259/382 847/260/383
f 845/261/376 844/255/377 849/256/381 850/262/384
f 843/194/1 842/313/379 847/260/383 848/13/380
f 841/258/378 809/263/6 846/259/382
f 815/264/5 845/261/376 850/262/384
f 844/255/377 843/194/1 848/13/380 849/256/381
f 850/262/384 849/256/381 813/215/350 814/214/349
f 848/13/380 847/260/383 811/309/353 812/218/2
f 846/259/382 809/265/6 810/221/356
f 815/266/5 850/262/384 814/214/349
f 849/256/381 848/13/380 812/218/2 813/215/350
f 847/260/383 846/259/382 810/221/356 811/309/353
f 851/194/429 852/267/430 854/295/431 853/296/432
f 853/296/432 854/295/431 856/297/433 855/298/434
f 855/298/434 856/297/433 858/299/435 857/300/436
f 857/300/436 858/299/435 860/301/437 859/302/438
f 854/80/431 852/78/430 862/303/439 860/304/437 858/82/435 856/81/433
f 859/302/438 860/301/437 862/305/439 861/306/440
f 861/306/440 862/305/439 852/307/430 851/308/429
f 851/84/429 853/85/432 855/86/434 857/87/436 859/88/438 861/89/440
f 867/215/350 866/218/2 872/5/355 873/216/351
f 865/309/353 864/221/356 870/223/357 871/220/354
f 868/214/349 867/215/350 873/216/351 874/217/352
f 866/218/2 865/309/353 871/220/354 872/5/355
f 864/221/356 863/222/6 870/223/357
f 869/224/5 868/214/349 874/217/352
f 874/217/352 873/216/351 878/230/361 879/229/360
f 872/5/355 871/220/354 876/310/358 877/131/3
f 870/223/357 863/226/6 875/227/359
f 869/228/5 874/217/352 879/229/360
f 873/216/351 872/5/355 877/131/3 878/230/361
f 871/220/354 870/223/357 875/227/359 876/310/358
f 879/229/360 878/230/361 883/235/365 884/234/363
f 877/131/3 876/310/358 881/236/366 882/6/364
f 875/227/359 863/231/6 880/232/362
f 869/233/5 879/229/360 884/234/363
f 878/230/361 877/131/3 882/6/364 883/235/365
f 876/310/358 875/227/359 880/232/362 881/236/366
f 884/234/363 883/235/365 888/239/368 889/238/367
f 882/6/364 881/236/366 886/311/370 887/158/4
f 880/232/362 863/242/6 885/240/369
f 869/237/5 884/234/363 889/238/367
f 883/235/365 882/6/364 887/158/4 888/239/368
f 881/236/366 880/232/362 885/240/369 886/311/370
f 887/158/4 886/311/370 891/247/375 892/11/372
f 885/240/369 863/248/6 890/246/374
f 869/243/5 889/238/367 894/244/371
f 888/239/368 887/158/4 892/11/372 893/245/373
f 886/311/370 885/240/369 890/246/374 891/247/375
f 889/238/367 888/239/368 893/245/373 894/244/371
f 890/246/374 863/254/6 895/252/378
f 869/249/5 894/244/371 899/250/376
f 893/245/373 892/11/372 897/178/1 898/251/377
f 891/247/375 890/246/374 895/252/378 896/312/379
f 894/244/371 893/245/373 898/251/377 899/250/376
f 892/11/372 891/247/375 896/312/379 897/178/1
f 869/264/5 899/261/376 904/262/384
f 898/255/377 897/194/1 902/13/380 903/256/381
f 896/313/379 895/258/378 900/259/382 901/260/383
f 899/261/376 898/255/377 903/256/381 904/262/384
f 897/194/1 896/313/379 901/260/383 902/13/380
f 895/258/378 863/263/6 900/259/382
f 869/266/5 904/262/384 868/214/349
f 903/256/381 902/13/380 866/218/2 867/215/350
f 901/260/383 900/259/382 864/221/356 865/309/353
f 904/262/384 903/256/381 867/215/350 868/214/349
f 902/13/380 901/260/383 865/309/353 866/218/2
f 900/259/382 863/265/6 864/221/356
f 905/194/417 906/267/418 908/295/419 907/296/420
f 907/296/420 908/295/419 910/297/421 909/298/422
f 909/298/422 910/297/421 912/299/423 911/300/424
f 911/300/424 912/299/423 914/301/425 913/302/426
f 908/80/419 906/78/418 916/303/427 914/304/425 912/82/423 910/81/421
f 913/302/426 914/301/425 916/305/427 915/306/428
f 915/306/428 916/305/427 906/307/418 905/308/417
f 905/84/417 907/85/420 909/86/422 911/87/424 913/88/426 915/89/428
f 918/221/356 917/222/6 924/223/357
f 923/224/5 922/214/349 928/217/352
f 921/215/350 920/218/2 926/5/355 927/216/351
f 919/309/353 918/221/356 924/223/357 925/220/354
f 922/214/349 921/215/350 927/216/351 928/217/352
f 920/218/2 919/309/353 925/220/354 926/5/355
f 923/228/5 928/217/352 933/229/360
f 927/216/351 926/5/355 931/131/3 932/230/361
f 925/220/354 924/223/357 929/227/359 930/310/358
f 928/217/352 927/216/351 932/230/361 933/229/360
f 926/5/355 925/220/354 930/310/358 931/131/3
f 924/223/357 917/226/6 929/227/359
f 932/230/361 931/131/3 936/6/364 937/235/365
f 930/310/358 929/227/359 934/232/362 935/236/366
f 933/229/360 932/230/361 937/235/365 938/234/363
f 931/131/3 930/310/358 935/236/366 936/6/364
f 929/227/359 917/231/6 934/232/362
f 923/233/5 933/229/360 938/234/363
f 935/236/366 934/232/362 939/240/369 940/311/370
f 938/234/363 937/235/365 942/239/368 943/238/367
f 936/6/364 935/236/366 940/311/370 941/158/4
f 934/232/362 917/242/6 939/240/369
f 923/237/5 938/234/363 943/238/367
f 937/235/365 936/6/364 941/158/4 942/239/368
f 943/238/367 942/239/368 947/245/373 948/244/371
f 941/158/4 940/311/370 945/247/375 946/11/372
f 939/240/369 917/248/6 944/246/374
f 923/243/5 943/238/367 948/244/371
f 942/239/368 941/158/4 946/11/372 947/245/373
f 940/311/370 939/240/369 944/246/374 945/247/375
f 948/244/371 947/245/373 952/251/377 953/250/376
f 946/11/372 945/247/375 950/312/379 951/178/1
f 944/246/374 917/254/6 949/252/378
f 923/249/5 948/244/371 953/250/376
f 947/245/373 946/11/372 951/178/1 952/251/377
f 945/247/375 944/246/374 949/252/378 950/312/379
f 953/261/376 952/255/377 957/256/381 958/262/384
f 951/194/1 950/313/379 955/260/383 956/13/380
f 949/258/378 917/263/6 954/259/382
f 923/264/5 953/261/376 958/262/384
f 952/255/377 951/194/1 956/13/380 957/256/381
f 950/313/379 949/258/378 954/259/382 955/260/383
f 958/262/384 957/256/381 921/215/350 922/214/349
f 956/13/380 955/260/383 919/309/353 920/218/2
f 954/259/382 917/265/6 918/221/356
f 923/266/5 958/262/384 922/214/349
f 957/256/381 956/13/380 920/218/2 921/215/350
f 955/260/383 954/259/382 918/221/356 919/309/353
