# axis-converted-to-Y-up
# Blender 5.1.1
# www.blender.org
mtllib mob_sapi_walk2.mtl
o mob_sapi_walk2
v -4.103877 0.007315 -0.785764
v -4.103877 0.748794 -0.373080
v -4.165950 0.007315 -0.811475
v -4.165950 0.748794 -0.398791
v -4.191660 0.007315 -0.873548
v -4.191660 0.748794 -0.460864
v -4.165950 0.007315 -0.935621
v -4.165950 0.748794 -0.522936
v -4.103877 0.007315 -0.961331
v -4.103877 0.748794 -0.548647
v -4.041804 0.007315 -0.935621
v -4.041804 0.748794 -0.522936
v -4.016094 0.007315 -0.873548
v -4.016094 0.748794 -0.460864
v -4.041804 0.007315 -0.811475
v -4.041804 0.748794 -0.398791
v -4.103877 0.000000 -0.782107
v -4.103877 0.073152 -0.708954
v -4.173709 0.000000 -0.811032
v -4.173709 0.073152 -0.737879
v -4.202633 0.000000 -0.880864
v -4.202633 0.073152 -0.807710
v -4.173709 0.000000 -0.950695
v -4.173709 0.073152 -0.877542
v -4.103877 0.000000 -0.979620
v -4.103877 0.073152 -0.906467
v -4.034045 0.000000 -0.950695
v -4.034045 0.073152 -0.877542
v -4.005121 0.000000 -0.880864
v -4.005121 0.073152 -0.807710
v -4.034045 0.000000 -0.811032
v -4.034045 0.073152 -0.737879
v -4.103877 0.007315 0.135962
v -4.103877 0.748794 0.548646
v -4.165950 0.007315 0.110251
v -4.165950 0.748794 0.522936
v -4.191660 0.007315 0.048178
v -4.191660 0.748794 0.460863
v -4.165950 0.007315 -0.013894
v -4.165950 0.748794 0.398790
v -4.103877 0.007315 -0.039605
v -4.103877 0.748794 0.373079
v -4.041804 0.007315 -0.013894
v -4.041804 0.748794 0.398790
v -4.016094 0.007315 0.048179
v -4.016094 0.748794 0.460863
v -4.041804 0.007315 0.110251
v -4.041804 0.748794 0.522936
v -4.103877 0.000000 0.139619
v -4.103877 0.073152 0.212773
v -4.173709 0.000000 0.110695
v -4.173709 0.073152 0.183848
v -4.202633 0.000000 0.040863
v -4.202633 0.073152 0.114016
v -4.173709 0.000000 -0.028969
v -4.173709 0.073152 0.044184
v -4.103877 0.000000 -0.057894
v -4.103877 0.073152 0.015260
v -4.034045 0.000000 -0.028969
v -4.034045 0.073152 0.044184
v -4.005121 0.000000 0.040863
v -4.005121 0.073152 0.114016
v -4.034045 0.000000 0.110695
v -4.034045 0.073152 0.183848
v -4.674470 0.007315 -0.785765
v -4.674470 0.748794 -0.373080
v -4.736541 0.007315 -0.811475
v -4.736541 0.748794 -0.398791
v -4.762253 0.007315 -0.873548
v -4.762253 0.748794 -0.460864
v -4.736541 0.007315 -0.935621
v -4.736541 0.748794 -0.522936
v -4.674470 0.007315 -0.961331
v -4.674470 0.748794 -0.548647
v -4.612398 0.007315 -0.935621
v -4.612398 0.748794 -0.522936
v -4.586686 0.007315 -0.873548
v -4.586686 0.748794 -0.460864
v -4.612398 0.007315 -0.811475
v -4.612398 0.748794 -0.398791
v -4.674470 0.000000 -0.782107
v -4.674470 0.073152 -0.708954
v -4.744300 0.000000 -0.811032
v -4.744300 0.073152 -0.737879
v -4.773226 0.000000 -0.880864
v -4.773226 0.073152 -0.807710
v -4.744300 0.000000 -0.950695
v -4.744300 0.073152 -0.877542
v -4.674470 0.000000 -0.979620
v -4.674470 0.073152 -0.906467
v -4.604639 0.000000 -0.950695
v -4.604639 0.073152 -0.877542
v -4.575714 0.000000 -0.880864
v -4.575714 0.073152 -0.807710
v -4.604639 0.000000 -0.811032
v -4.604639 0.073152 -0.737879
v -4.674470 0.007315 0.135962
v -4.674470 0.748794 0.548646
v -4.736541 0.007315 0.110251
v -4.736541 0.748794 0.522936
v -4.762253 0.007315 0.048178
v -4.762253 0.748794 0.460863
v -4.736541 0.007315 -0.013894
v -4.736541 0.748794 0.398790
v -4.674470 0.007315 -0.039605
v -4.674470 0.748794 0.373079
v -4.612398 0.007315 -0.013894
v -4.612398 0.748794 0.398790
v -4.586686 0.007315 0.048178
v -4.586686 0.748794 0.460863
v -4.612398 0.007315 0.110251
v -4.612398 0.748794 0.522936
v -4.674470 0.000000 0.139619
v -4.674470 0.073152 0.212772
v -4.744300 0.000000 0.110695
v -4.744300 0.073152 0.183848
v -4.773226 0.000000 0.040863
v -4.773226 0.073152 0.114016
v -4.744300 0.000000 -0.028969
v -4.744300 0.073152 0.044184
v -4.674470 0.000000 -0.057894
v -4.674470 0.073152 0.015260
v -4.604639 0.000000 -0.028969
v -4.604639 0.073152 0.044184
v -4.575714 0.000000 0.040863
v -4.575714 0.073152 0.114016
v -4.604639 0.000000 0.110695
v -4.604639 0.073152 0.183848
v -4.389174 0.360644 -0.059357
v -4.754418 0.611209 -0.411312
v -4.249665 0.611209 -0.665523
v -3.937707 0.611211 -0.000000
v -4.249665 0.611209 0.665522
v -4.754418 0.611209 0.411311
v -4.528682 1.077081 -0.665523
v -4.023930 1.077081 -0.411312
v -4.023930 1.077081 0.411311
v -4.528682 1.077081 0.665522
v -4.840640 1.077079 -0.000000
v -4.389174 1.365000 -0.000000
v -4.271656 0.501673 -0.560617
v -4.307174 0.408386 -0.402796
v -4.350001 0.370890 -0.235982
v -4.491730 0.370890 -0.164603
v -4.603858 0.408386 -0.253375
v -4.696846 0.501673 -0.346478
v -4.657673 0.582519 -0.533352
v -4.521858 0.570313 -0.632947
v -4.374213 0.582519 -0.676112
v -4.799403 0.582520 0.230984
v -4.818542 0.570313 -0.000000
v -4.799403 0.582520 -0.230985
v -4.491730 0.370890 0.066381
v -4.603858 0.408386 0.230147
v -4.696846 0.501673 0.346478
v -4.008871 0.501675 -0.000000
v -4.123808 0.408387 -0.011614
v -4.262405 0.370890 -0.049111
v -4.144886 0.582519 -0.560620
v -4.041807 0.570313 -0.391183
v -3.969697 0.582520 -0.186872
v -4.271656 0.501673 0.560617
v -4.307174 0.408386 0.379568
v -4.350001 0.370890 0.137760
v -3.969697 0.582520 0.186872
v -4.041807 0.570313 0.391183
v -4.144886 0.582519 0.560619
v -4.374213 0.582519 0.676111
v -4.521858 0.570313 0.632946
v -4.657673 0.582519 0.533351
v -4.872036 0.974957 -0.115493
v -4.869225 0.844146 -0.241763
v -4.823615 0.713332 -0.346478
v -4.823615 0.713332 0.346478
v -4.869225 0.844146 0.241762
v -4.872036 0.974957 0.115492
v -4.467519 0.974958 -0.747494
v -4.389174 0.844146 -0.782371
v -4.310828 0.713332 -0.747494
v -4.736020 0.713332 -0.533354
v -4.685861 0.844146 -0.632951
v -4.609250 0.974958 -0.676115
v -3.954732 0.974958 -0.346478
v -3.909122 0.844146 -0.241763
v -3.906312 0.713333 -0.115493
v -4.169097 0.713332 -0.676115
v -4.092486 0.844146 -0.632951
v -4.042327 0.974958 -0.533354
v -4.042327 0.974958 0.533353
v -4.092486 0.844146 0.632950
v -4.169097 0.713332 0.676114
v -3.906312 0.713333 0.115492
v -3.909122 0.844146 0.241762
v -3.954732 0.974958 0.346478
v -4.609250 0.974958 0.676114
v -4.685861 0.844146 0.632950
v -4.736020 0.713332 0.533353
v -4.310828 0.713332 0.747493
v -4.389174 0.844146 0.782370
v -4.467519 0.974958 0.747493
v -4.808650 1.105770 -0.186873
v -4.736540 1.117977 -0.391183
v -4.633461 1.105771 -0.560620
v -4.404134 1.105771 -0.676112
v -4.256489 1.117977 -0.632947
v -4.120674 1.105771 -0.533352
v -3.978944 1.105770 -0.230985
v -3.959805 1.117977 -0.000000
v -3.978944 1.105770 0.230984
v -4.120674 1.105771 0.533351
v -4.256489 1.117977 0.632946
v -4.404134 1.105771 0.676111
v -4.633461 1.105771 0.560619
v -4.736540 1.117977 0.391182
v -4.808650 1.105770 0.186871
v -4.428346 1.348306 -0.186872
v -4.471173 1.287213 -0.391182
v -4.506691 1.186617 -0.560618
v -4.769476 1.186615 -0.000000
v -4.654539 1.287212 -0.000000
v -4.515942 1.348306 -0.000000
v -4.286617 1.348306 -0.115493
v -4.174490 1.287213 -0.241762
v -4.081502 1.186617 -0.346478
v -4.286617 1.348306 0.115492
v -4.174490 1.287213 0.241761
v -4.081502 1.186617 0.346478
v -4.428346 1.348306 0.186871
v -4.471173 1.287213 0.391181
v -4.506691 1.186617 0.560617
v -4.571794 1.310014 0.205655
v -4.711305 1.221042 0.205657
v -4.614904 1.221042 0.411313
v -4.319417 1.310014 0.332757
v -4.362528 1.221043 0.538415
v -4.206551 1.221043 0.459860
v -4.163442 1.310014 -0.000000
v -4.050575 1.221042 0.127101
v -4.050575 1.221042 -0.127102
v -4.319417 1.310014 -0.332758
v -4.206551 1.221043 -0.459861
v -4.362528 1.221043 -0.538416
v -4.571794 1.310014 -0.205656
v -4.614904 1.221042 -0.411314
v -4.711305 1.221042 -0.205657
v -4.824173 0.988107 0.332759
v -4.797530 0.844146 0.459863
v -4.727774 0.988108 0.538418
v -4.319417 0.988108 0.744076
v -4.233195 0.844146 0.744078
v -4.163439 0.988108 0.665522
v -3.911063 0.988107 0.127101
v -3.884418 0.844146 -0.000000
v -3.911063 0.988107 -0.127102
v -4.163439 0.988107 -0.665522
v -4.233195 0.844146 -0.744078
v -4.319417 0.988107 -0.744077
v -4.727774 0.988107 -0.538419
v -4.797530 0.844143 -0.459864
v -4.824173 0.988106 -0.332760
v -4.545152 0.844146 0.744078
v -4.614908 0.700182 0.665521
v -4.458930 0.700182 0.744076
v -3.980817 0.844146 0.459863
v -4.050574 0.700182 0.538420
v -3.954174 0.700183 0.332760
v -3.980817 0.844146 -0.459864
v -3.954174 0.700183 -0.332761
v -4.050574 0.700182 -0.538420
v -4.545152 0.844146 -0.744078
v -4.458930 0.700182 -0.744077
v -4.614908 0.700182 -0.665522
v -4.893929 0.844146 -0.000000
v -4.867284 0.700183 -0.127102
v -4.867284 0.700183 0.127101
v -4.571796 0.467248 0.459861
v -4.458929 0.394392 0.307151
v -4.415819 0.467248 0.538416
v -4.163442 0.467248 0.411312
v -4.206552 0.394392 0.180048
v -4.067041 0.467251 0.205655
v -4.067041 0.467251 -0.205657
v -4.206552 0.394392 -0.231265
v -4.163442 0.467248 -0.411314
v -4.727772 0.467248 0.127101
v -4.727772 0.467248 -0.127102
v -4.614905 0.394392 -0.025609
v -4.415819 0.467248 -0.538416
v -4.458930 0.394392 -0.358367
v -4.571796 0.467248 -0.459862
v -4.608632 0.901355 0.329188
v -4.783315 0.988324 0.214966
v -4.541910 0.988324 0.144372
v -4.392713 0.988326 0.329188
v -4.541910 0.988324 0.514004
v -4.783315 0.988324 0.443409
v -4.675353 1.129046 0.144372
v -4.433949 1.129046 0.214966
v -4.433949 1.129046 0.443409
v -4.675353 1.129046 0.514004
v -4.824551 1.129045 0.329188
v -4.608632 1.216014 0.329188
v -4.569415 0.924853 0.220557
v -4.711307 0.924853 0.262051
v -4.672090 0.975971 0.153419
v -4.813983 0.975971 0.329188
v -4.711307 0.924853 0.396324
v -4.481719 0.924853 0.329188
v -4.442500 0.975971 0.220557
v -4.569415 0.924853 0.437819
v -4.442500 0.975971 0.437819
v -4.672090 0.975971 0.504956
v -4.838223 1.058685 0.262051
v -4.838223 1.058685 0.396325
v -4.608632 1.058685 0.111924
v -4.750526 1.058685 0.153418
v -4.379042 1.058685 0.262051
v -4.466738 1.058685 0.153418
v -4.466738 1.058685 0.504957
v -4.379042 1.058685 0.396326
v -4.750526 1.058685 0.504957
v -4.608632 1.058685 0.546452
v -4.774765 1.141398 0.220557
v -4.545175 1.141398 0.153419
v -4.403281 1.141398 0.329188
v -4.545175 1.141398 0.504956
v -4.774765 1.141398 0.437819
v -4.647850 1.192518 0.220557
v -4.735545 1.192518 0.329188
v -4.505958 1.192518 0.262051
v -4.505958 1.192518 0.396324
v -4.647850 1.192518 0.437819
v -4.114850 0.753562 -0.219459
v -4.321293 0.856343 -0.354448
v -4.035997 0.856343 -0.437877
v -3.859674 0.856343 -0.219459
v -4.035997 0.856343 -0.001041
v -4.321293 0.856343 -0.084470
v -4.193703 1.022649 -0.437877
v -3.908408 1.022649 -0.354448
v -3.908408 1.022649 -0.084470
v -4.193703 1.022649 -0.001041
v -4.370027 1.022649 -0.219459
v -4.114850 1.125430 -0.219459
v -4.068503 0.781330 -0.347841
v -4.236193 0.781330 -0.298803
v -4.189846 0.841744 -0.427187
v -4.357537 0.841744 -0.219459
v -4.236193 0.781330 -0.140115
v -3.964861 0.781330 -0.219459
v -3.918512 0.841744 -0.347841
v -4.068503 0.781330 -0.091077
v -3.918512 0.841744 -0.091077
v -4.189846 0.841744 -0.011732
v -4.386184 0.939496 -0.298803
v -4.386184 0.939496 -0.140115
v -4.114850 0.939496 -0.476226
v -4.282543 0.939496 -0.427188
v -3.843517 0.939496 -0.298803
v -3.947157 0.939496 -0.427188
v -3.947157 0.939496 -0.011730
v -3.843517 0.939496 -0.140115
v -4.282543 0.939496 -0.011730
v -4.114850 0.939496 0.037308
v -4.311188 1.037248 -0.347841
v -4.039855 1.037248 -0.427187
v -3.872163 1.037248 -0.219459
v -4.039855 1.037248 -0.011732
v -4.311188 1.037248 -0.091077
v -4.161198 1.097662 -0.347841
v -4.264839 1.097662 -0.219459
v -3.993507 1.097662 -0.298803
v -3.993507 1.097662 -0.140115
v -4.161198 1.097662 -0.091077
v -4.389174 0.605767 0.680322
v -4.595616 0.777069 0.530334
v -4.310321 0.777069 0.437634
v -4.133997 0.777070 0.680322
v -4.310321 0.777069 0.923009
v -4.595616 0.777069 0.830309
v -4.468026 1.054248 0.437634
v -4.182731 1.054248 0.530334
v -4.182731 1.054248 0.830310
v -4.468026 1.054248 0.923009
v -4.644350 1.054247 0.680321
v -4.389174 1.225549 0.680322
v -4.342826 0.652049 0.537674
v -4.510516 0.652049 0.592162
v -4.464169 0.752737 0.449514
v -4.631861 0.752738 0.680321
v -4.510516 0.652049 0.768481
v -4.239184 0.652050 0.680322
v -4.192836 0.752738 0.537674
v -4.342826 0.652049 0.822969
v -4.192836 0.752738 0.822969
v -4.464169 0.752737 0.911129
v -4.660507 0.915658 0.592162
v -4.660507 0.915658 0.768481
v -4.389174 0.915658 0.395025
v -4.556866 0.915658 0.449512
v -4.117840 0.915658 0.592162
v -4.221481 0.915658 0.449512
v -4.221481 0.915658 0.911131
v -4.117840 0.915658 0.768481
v -4.556866 0.915658 0.911131
v -4.389174 0.915658 0.965618
v -4.585511 1.078579 0.537674
v -4.314178 1.078580 0.449514
v -4.146486 1.078579 0.680322
v -4.314178 1.078580 0.911130
v -4.585511 1.078579 0.822968
v -4.435521 1.179268 0.537674
v -4.539163 1.179267 0.680321
v -4.267830 1.179268 0.592162
v -4.267830 1.179268 0.768481
v -4.435521 1.179268 0.822968
v -4.389174 0.648676 0.943672
v -4.528919 0.743550 0.869832
v -4.335797 0.743550 0.824195
v -4.216439 0.743551 0.943672
v -4.335797 0.743550 1.063148
v -4.528919 0.743550 1.017512
v -4.442550 0.897065 0.824195
v -4.249428 0.897065 0.869832
v -4.249428 0.897065 1.017512
v -4.442550 0.897065 1.063148
v -4.561909 0.897064 0.943672
v -4.389174 0.991939 0.943672
v -4.357800 0.674309 0.873446
v -4.471314 0.674309 0.900271
v -4.439940 0.730074 0.830044
v -4.553453 0.730074 0.943672
v -4.471314 0.674309 0.987073
v -4.287643 0.674309 0.943672
v -4.256269 0.730074 0.873445
v -4.357800 0.674309 1.013898
v -4.256269 0.730074 1.013899
v -4.439940 0.730074 1.057300
v -4.572845 0.820307 0.900270
v -4.572845 0.820307 0.987074
v -4.389174 0.820307 0.803218
v -4.502688 0.820307 0.830043
v -4.205502 0.820307 0.900270
v -4.275659 0.820307 0.830043
v -4.275659 0.820307 1.057301
v -4.205502 0.820307 0.987074
v -4.502688 0.820307 1.057301
v -4.389174 0.820307 1.084126
v -4.522079 0.910541 0.873445
v -4.338408 0.910541 0.830044
v -4.224894 0.910541 0.943672
v -4.338408 0.910541 1.057300
v -4.522079 0.910541 1.013899
v -4.420547 0.966306 0.873446
v -4.490704 0.966306 0.943672
v -4.307034 0.966306 0.900271
v -4.307034 0.966306 0.987073
v -4.420547 0.966306 1.013898
v -4.323336 0.784551 1.042428
v -4.347156 0.804317 1.025122
v -4.314237 0.804317 1.014426
v -4.293892 0.804317 1.042428
v -4.314237 0.804317 1.070430
v -4.347156 0.804317 1.059735
v -4.332435 0.836298 1.014426
v -4.299516 0.836298 1.025122
v -4.299516 0.836298 1.059735
v -4.332435 0.836298 1.070430
v -4.352780 0.836298 1.042428
v -4.323336 0.856064 1.042428
v -4.455011 0.784551 1.042428
v -4.478831 0.804317 1.025122
v -4.445912 0.804317 1.014426
v -4.425567 0.804317 1.042428
v -4.445912 0.804317 1.070430
v -4.478831 0.804317 1.059735
v -4.464110 0.836298 1.014426
v -4.431191 0.836298 1.025122
v -4.431191 0.836298 1.059735
v -4.464110 0.836298 1.070430
v -4.484455 0.836298 1.042428
v -4.455011 0.856064 1.042428
v -4.229077 1.174409 0.597986
v -4.063854 1.212764 0.656994
v -4.208557 1.152303 0.564952
v -4.058723 1.207238 0.648736
v -4.193087 1.108093 0.570477
v -4.054855 1.196186 0.650117
v -4.198137 1.085988 0.609036
v -4.056118 1.190659 0.659757
v -4.218657 1.108093 0.642071
v -4.061247 1.196186 0.668015
v -4.234126 1.152303 0.636545
v -4.065115 1.207238 0.666634
v -4.549270 1.174409 0.597986
v -4.714493 1.212764 0.656994
v -4.544221 1.152303 0.636545
v -4.713232 1.207238 0.666634
v -4.559690 1.108093 0.642071
v -4.717100 1.196186 0.668015
v -4.580210 1.085988 0.609036
v -4.722229 1.190659 0.659757
v -4.585260 1.108093 0.570477
v -4.723492 1.196186 0.650117
v -4.569790 1.152303 0.564952
v -4.719623 1.207238 0.648736
v -4.179252 0.945102 0.702267
v -3.984612 0.981566 0.614484
v -4.192374 1.027748 0.665084
v -3.986070 0.990749 0.610353
v -4.195615 1.048160 0.581535
v -3.986431 0.993016 0.601070
v -4.186534 0.990967 0.514535
v -3.985421 0.986663 0.593624
v -4.171968 0.899236 0.514535
v -3.983803 0.976469 0.593624
v -4.162886 0.842043 0.581535
v -3.982794 0.970116 0.601070
v -4.166128 0.862455 0.665084
v -3.983154 0.972383 0.610353
v -4.599095 0.945102 0.702267
v -4.793735 0.981566 0.614484
v -4.612219 0.862455 0.665084
v -4.795193 0.972383 0.610353
v -4.615461 0.842043 0.581535
v -4.795553 0.970116 0.601069
v -4.606380 0.899236 0.514535
v -4.794545 0.976469 0.593624
v -4.591813 0.990967 0.514535
v -4.792926 0.986663 0.593624
v -4.582732 1.048160 0.581535
v -4.791916 0.993016 0.601069
v -4.585973 1.027748 0.665084
v -4.792277 0.990749 0.610353
v -4.257498 0.945455 0.811997
v -4.285288 0.968515 0.791807
v -4.246884 0.968515 0.779328
v -4.223147 0.968515 0.811997
v -4.246884 0.968515 0.844665
v -4.285288 0.968515 0.832187
v -4.268112 1.005827 0.779328
v -4.229708 1.005827 0.791807
v -4.229708 1.005827 0.832187
v -4.268112 1.005827 0.844665
v -4.291849 1.005827 0.811997
v -4.257498 1.028888 0.811997
v -4.520849 0.945455 0.811997
v -4.548639 0.968515 0.791806
v -4.510233 0.968515 0.779328
v -4.486498 0.968515 0.811997
v -4.510233 0.968515 0.844665
v -4.548639 0.968515 0.832187
v -4.531463 1.005827 0.779328
v -4.493059 1.005827 0.791806
v -4.493059 1.005827 0.832187
v -4.531463 1.005827 0.844665
v -4.555200 1.005827 0.811997
v -4.520849 1.028888 0.811997
v -4.389174 0.838014 -0.589399
v -4.389174 0.476021 -0.710886
v -4.427185 0.829161 -0.569024
v -4.417682 0.469382 -0.695604
v -4.427185 0.811454 -0.528270
v -4.417682 0.456101 -0.665040
v -4.389174 0.802601 -0.507895
v -4.389174 0.449461 -0.649758
v -4.351162 0.811454 -0.528270
v -4.360665 0.456101 -0.665040
v -4.351162 0.829161 -0.569024
v -4.360665 0.469382 -0.695604
v -4.389174 0.465913 -0.636528
v -4.389174 0.228234 -0.817297
v -4.351162 0.464326 -0.658425
v -4.360665 0.227504 -0.834449
v -4.351162 0.461156 -0.702220
v -4.360665 0.226044 -0.868756
v -4.389174 0.459570 -0.724116
v -4.389174 0.225314 -0.885909
v -4.427185 0.461156 -0.702220
v -4.417682 0.226044 -0.868756
v -4.427185 0.464326 -0.658425
v -4.417682 0.227504 -0.834449
v -4.389174 0.124360 -0.932071
v -4.436814 0.148622 -0.942420
v -4.370977 0.148622 -0.963811
v -4.330287 0.148622 -0.907808
v -4.370977 0.148622 -0.851804
v -4.436814 0.148622 -0.873196
v -4.407370 0.187881 -0.924553
v -4.341533 0.187881 -0.903162
v -4.341533 0.187881 -0.833938
v -4.407370 0.187881 -0.812546
v -4.448061 0.187881 -0.868550
v -4.389174 0.212143 -0.844288
v -4.389174 0.343087 -0.186643
v -4.492395 0.379885 -0.224838
v -4.349748 0.379885 -0.271188
v -4.261586 0.379885 -0.149845
v -4.349748 0.379885 -0.028501
v -4.492395 0.379885 -0.074851
v -4.428600 0.451653 -0.231073
v -4.285952 0.451653 -0.184723
v -4.285952 0.451653 -0.034736
v -4.428600 0.451653 0.011613
v -4.516761 0.451653 -0.109730
v -4.389174 0.511609 -0.109730
v -4.366000 0.353029 -0.248025
v -4.449845 0.353029 -0.220781
v -4.426672 0.374659 -0.270477
v -4.510516 0.374659 -0.155072
v -4.449845 0.353029 -0.132623
v -4.314179 0.353029 -0.176701
v -4.291004 0.374659 -0.226396
v -4.366000 0.353029 -0.105379
v -4.291004 0.374659 -0.083748
v -4.426672 0.374659 -0.039668
v -4.524841 0.409656 -0.164154
v -4.524841 0.409656 -0.075993
v -4.389174 0.409656 -0.262722
v -4.473020 0.409656 -0.235478
v -4.253508 0.409656 -0.164154
v -4.305327 0.409656 -0.235478
v -4.305327 0.409656 -0.004669
v -4.253508 0.409656 -0.075993
v -4.473020 0.409656 -0.004669
v -4.389174 0.409656 0.022574
v -4.487343 0.460169 -0.181054
v -4.351676 0.460169 -0.225134
v -4.267830 0.460169 -0.109730
v -4.351676 0.460169 0.005675
v -4.487343 0.460169 -0.038406
v -4.412347 0.495410 -0.181053
v -4.464168 0.495409 -0.109730
v -4.328502 0.495410 -0.153809
v -4.328502 0.495410 -0.065650
v -4.412347 0.495410 -0.038407
vn -0.000000 -0.808200 0.589000
vn -0.000000 0.432500 0.901600
vn -0.573600 0.474900 0.667400
vn -0.509300 -0.752000 0.418400
vn -0.791800 0.603000 0.097300
vn -0.791800 -0.603000 -0.097300
vn -0.509300 0.752000 -0.418400
vn -0.573600 -0.474900 -0.667400
vn -0.000000 0.808200 -0.589000
vn -0.000000 -0.432500 -0.901600
vn 0.509300 0.752000 -0.418400
vn 0.573600 -0.474900 -0.667400
vn 0.791800 0.603000 0.097300
vn 0.791800 -0.603000 -0.097300
vn 0.573600 0.474900 0.667400
vn 0.509300 -0.752000 0.418400
vn -0.000000 -0.889000 0.458000
vn -0.000000 0.320800 0.947100
vn -0.584000 0.369600 0.722700
vn -0.469200 -0.814600 0.340900
vn -0.816600 0.556500 0.153300
vn -0.816600 -0.556500 -0.153300
vn -0.469200 0.814600 -0.340900
vn -0.584000 -0.369600 -0.722700
vn -0.000000 0.889000 -0.458000
vn -0.000000 -0.320800 -0.947100
vn 0.469200 0.814600 -0.340900
vn 0.584000 -0.369600 -0.722700
vn 0.816600 0.556500 0.153300
vn 0.816600 -0.556500 -0.153300
vn 0.584000 0.369600 0.722700
vn 0.469200 -0.814600 0.340900
vn 0.573500 -0.474900 -0.667400
vn 0.573500 0.474900 0.667400
vn -0.000800 -1.000000 -0.003700
vn -0.148800 -0.985900 -0.076000
vn 0.058800 -0.990400 -0.125300
vn -0.793700 -0.476200 -0.378500
vn -0.645900 -0.699200 -0.306400
vn -0.841100 -0.504700 -0.194400
vn 0.172700 -0.985000 -0.004800
vn 0.047500 -0.994600 0.092400
vn -0.130900 -0.989700 0.058500
vn -0.918900 -0.249800 -0.305200
vn 0.363100 -0.570600 -0.736600
vn 0.025500 -0.649400 -0.760000
vn 0.216000 -0.339700 -0.915400
vn 0.900200 -0.435400 0.000000
vn 0.849700 -0.500400 -0.166100
vn 0.965900 -0.238000 -0.102200
vn 0.363100 -0.570600 0.736600
vn 0.587100 -0.585200 0.559300
vn 0.580800 -0.309700 0.752800
vn -0.793700 -0.476200 0.378500
vn -0.618300 -0.576200 0.534400
vn -0.801200 -0.277400 0.530300
vn -0.801200 -0.277400 -0.530300
vn 0.580800 -0.309700 -0.752800
vn 0.965900 -0.238000 0.102200
vn 0.216000 -0.339700 0.915400
vn -0.918900 -0.249800 0.305200
vn -0.363100 0.570600 -0.736600
vn -0.587100 0.585200 -0.559300
vn -0.278400 0.777500 -0.563900
vn 0.793700 0.476200 -0.378500
vn 0.618300 0.576200 -0.534400
vn 0.649300 0.694900 -0.309200
vn 0.793700 0.476200 0.378500
vn 0.841100 0.504700 0.194400
vn 0.649300 0.694900 0.309200
vn -0.363100 0.570600 0.736600
vn -0.025500 0.649400 0.760000
vn -0.278400 0.777500 0.563900
vn -0.900200 0.435400 0.000000
vn -0.849700 0.500400 0.166100
vn -0.756000 0.654500 0.000000
vn -0.269100 0.963100 0.000000
vn -0.082700 0.982000 0.169700
vn 0.001400 1.000000 0.000000
vn -0.537100 0.843500 0.000000
vn -0.385100 0.904300 0.184100
vn -0.655400 0.732900 0.182500
vn -0.179100 0.914000 0.364100
vn -0.497100 0.781200 0.377600
vn -0.750100 0.555800 0.358300
vn -0.587100 0.585200 0.559300
vn 0.218300 0.970200 0.105000
vn 0.152800 0.938600 0.309300
vn 0.070600 0.840400 0.537400
vn 0.447000 0.868600 0.213700
vn 0.402000 0.802800 0.440400
vn 0.335000 0.649300 0.682800
vn 0.618300 0.576200 0.534400
vn 0.218300 0.970200 -0.105000
vn 0.465800 0.884900 0.000000
vn 0.683500 0.722500 0.104000
vn 0.447000 0.868600 -0.213700
vn 0.683500 0.722500 -0.104000
vn 0.857500 0.514600 0.000000
vn 0.841100 0.504700 -0.194400
vn -0.082700 0.982000 -0.169700
vn 0.152800 0.938600 -0.309300
vn 0.402000 0.802800 -0.440400
vn -0.179100 0.914000 -0.364100
vn 0.070600 0.840400 -0.537400
vn 0.335000 0.649300 -0.682800
vn -0.025500 0.649400 -0.760000
vn -0.385100 0.904300 -0.184100
vn -0.497100 0.781200 -0.377600
vn -0.655400 0.732900 -0.182500
vn -0.750100 0.555800 -0.358300
vn -0.849700 0.500400 -0.166100
vn -0.965900 0.238000 0.102200
vn -0.978000 0.000300 0.208800
vn -0.911200 0.280400 0.301800
vn -0.901900 0.009600 0.431800
vn -0.791300 0.309000 0.527600
vn -0.738400 -0.000900 0.674300
vn -0.580800 0.309700 0.752800
vn -0.216000 0.339700 0.915400
vn -0.000000 -0.000000 1.000000
vn 0.207500 0.376200 0.903000
vn 0.437000 0.012200 0.899400
vn 0.575000 0.345500 0.741700
vn 0.738400 0.000900 0.674300
vn 0.801200 0.277400 0.530300
vn 0.918900 0.249800 0.305200
vn 0.978000 -0.000200 0.208800
vn 0.958300 0.266900 0.102600
vn 1.000000 0.008600 0.000000
vn 0.958300 0.266900 -0.102600
vn 0.978000 -0.000200 -0.208800
vn 0.918900 0.249800 -0.305200
vn 0.801200 0.277400 -0.530300
vn 0.738400 0.000900 -0.674300
vn 0.575000 0.345400 -0.741700
vn 0.437000 0.012200 -0.899400
vn 0.207500 0.376200 -0.903000
vn -0.000000 -0.000000 -1.000000
vn -0.216000 0.339700 -0.915400
vn -0.580800 0.309700 -0.752800
vn -0.738400 -0.000900 -0.674300
vn -0.791300 0.309000 -0.527600
vn -0.901900 0.009600 -0.431800
vn -0.911200 0.280400 -0.301800
vn -0.978000 0.000300 -0.208800
vn -0.965900 0.238000 -0.102200
vn -0.437000 -0.012200 0.899400
vn -0.575000 -0.345500 0.741700
vn -0.207500 -0.376200 0.903000
vn -0.335000 -0.649300 0.682800
vn 0.025500 -0.649400 0.760000
vn 0.901900 -0.009600 0.431800
vn 0.791300 -0.309000 0.527600
vn 0.911200 -0.280400 0.301800
vn 0.750100 -0.555800 0.358300
vn 0.849700 -0.500400 0.166100
vn 0.901900 -0.009600 -0.431800
vn 0.911200 -0.280400 -0.301800
vn 0.791300 -0.309000 -0.527600
vn 0.750100 -0.555800 -0.358300
vn 0.587100 -0.585200 -0.559300
vn -0.437000 -0.012200 -0.899400
vn -0.207500 -0.376200 -0.903000
vn -0.575000 -0.345500 -0.741700
vn -0.335000 -0.649300 -0.682800
vn -0.618300 -0.576200 -0.534400
vn -1.000000 -0.008600 0.000000
vn -0.958300 -0.266900 -0.102600
vn -0.958300 -0.266900 0.102600
vn -0.857500 -0.514600 0.000000
vn -0.841100 -0.504700 0.194400
vn -0.637100 -0.709300 0.301700
vn -0.362500 -0.915700 0.173200
vn -0.374900 -0.831000 0.410900
vn -0.108500 -0.970600 0.214800
vn -0.065100 -0.862100 0.502500
vn 0.139100 -0.948800 0.283500
vn 0.273700 -0.788800 0.550400
vn 0.469600 -0.807800 0.356300
vn 0.287500 -0.948400 0.133600
vn 0.619100 -0.765300 0.176500
vn 0.457400 -0.889300 0.001300
vn 0.746100 -0.665800 0.000700
vn 0.636800 -0.750700 -0.176000
vn 0.327600 -0.931500 -0.158200
vn 0.490600 -0.789700 -0.368500
vn 0.166400 -0.927200 -0.335600
vn 0.278100 -0.778400 -0.562700
vn -0.654200 -0.749900 0.098500
vn -0.661700 -0.743600 -0.096000
vn -0.372100 -0.928200 -0.002400
vn -0.400700 -0.896500 -0.189000
vn -0.070600 -0.844300 -0.531200
vn -0.135800 -0.951400 -0.276300
vn -0.396900 -0.809500 -0.432500
vn -0.000100 -1.000000 0.000000
vn -0.317900 -0.913800 -0.252900
vn 0.120400 -0.906000 -0.405900
vn -0.650500 -0.557700 -0.515500
vn -0.764400 -0.644700 0.000000
vn 0.394900 -0.918700 0.000000
vn 0.120400 -0.906000 0.405900
vn -0.317900 -0.913800 0.252900
vn -0.943200 -0.001000 -0.332100
vn 0.239900 -0.540900 -0.806200
vn -0.223500 -0.618900 -0.753000
vn 0.822700 -0.568500 0.000000
vn 0.605100 -0.634600 -0.480800
vn 0.943200 0.001000 -0.332100
vn 0.239900 -0.540900 0.806200
vn 0.605100 -0.634600 0.480800
vn 0.555900 -0.001500 0.831300
vn -0.650500 -0.557700 0.515500
vn -0.223500 -0.618900 0.753000
vn -0.555900 0.001500 0.831300
vn -0.555900 0.001500 -0.831300
vn 0.555900 -0.001500 -0.831300
vn 0.943200 0.001000 0.332100
vn -0.943200 -0.001000 0.332100
vn -0.239900 0.540900 -0.806200
vn -0.605100 0.634600 -0.480800
vn -0.120400 0.906000 -0.405900
vn 0.650500 0.557700 -0.515500
vn 0.223500 0.618900 -0.753000
vn 0.317900 0.913800 -0.252900
vn 0.650500 0.557700 0.515500
vn 0.764400 0.644700 0.000000
vn 0.317900 0.913800 0.252900
vn -0.239900 0.540900 0.806200
vn 0.223500 0.618900 0.753000
vn -0.120400 0.906000 0.405900
vn -0.822700 0.568500 0.000000
vn -0.605100 0.634600 0.480800
vn -0.394900 0.918700 0.000000
vn 0.000100 1.000000 0.000000
vn -0.000000 -1.000000 0.000000
vn -0.446000 -0.834300 -0.324000
vn 0.170400 -0.834300 -0.524300
vn -0.732900 -0.423400 -0.532500
vn -0.865100 -0.501700 0.000000
vn 0.551300 -0.834300 0.000000
vn 0.170400 -0.834300 0.524300
vn -0.446000 -0.834300 0.324000
vn -0.951100 -0.000000 -0.309000
vn 0.279900 -0.423400 -0.861600
vn -0.267300 -0.501700 -0.822700
vn 0.905900 -0.423400 0.000000
vn 0.699800 -0.501700 -0.508500
vn 0.951100 -0.000000 -0.309000
vn 0.279900 -0.423400 0.861600
vn 0.699800 -0.501700 0.508500
vn 0.587800 -0.000000 0.809000
vn -0.732900 -0.423400 0.532500
vn -0.267300 -0.501700 0.822700
vn -0.587800 -0.000000 0.809000
vn -0.587800 -0.000000 -0.809000
vn 0.587800 -0.000000 -0.809000
vn 0.951100 -0.000000 0.309000
vn -0.951100 -0.000000 0.309000
vn -0.279900 0.423400 -0.861600
vn -0.699800 0.501700 -0.508500
vn -0.170400 0.834300 -0.524300
vn 0.732900 0.423400 -0.532500
vn 0.267300 0.501700 -0.822700
vn 0.446000 0.834300 -0.324000
vn 0.732900 0.423400 0.532500
vn 0.865100 0.501700 0.000000
vn 0.446000 0.834300 0.324000
vn -0.279900 0.423400 0.861600
vn 0.267300 0.501700 0.822700
vn -0.170400 0.834300 0.524300
vn -0.905900 0.423400 0.000000
vn -0.699800 0.501700 0.508500
vn -0.551300 0.834300 0.000000
vn -0.000000 1.000000 0.000000
vn -0.001500 -1.000000 0.000000
vn -0.387600 -0.850000 -0.356800
vn 0.143100 -0.815200 -0.561200
vn -0.653700 -0.445700 -0.611600
vn -0.828800 -0.559600 0.000000
vn 0.489000 -0.872300 0.000000
vn 0.143100 -0.815200 0.561200
vn -0.387600 -0.850000 0.356800
vn -0.925600 -0.002800 -0.378400
vn 0.222000 -0.397200 -0.890500
vn -0.212300 -0.474600 -0.854200
vn 0.877000 -0.480600 0.000000
vn 0.621300 -0.524200 -0.582500
vn 0.925600 0.002800 -0.378400
vn 0.222000 -0.397200 0.890500
vn 0.621300 -0.524200 0.582500
vn 0.490800 -0.003000 0.871300
vn -0.653700 -0.445700 0.611600
vn -0.212300 -0.474600 0.854200
vn -0.490800 0.003000 0.871300
vn -0.490800 0.003000 -0.871300
vn 0.490800 -0.003000 -0.871300
vn 0.925600 0.002800 0.378400
vn -0.925600 -0.002800 0.378400
vn -0.222000 0.397200 -0.890500
vn -0.621300 0.524200 -0.582500
vn -0.143100 0.815200 -0.561200
vn 0.653700 0.445700 -0.611600
vn 0.212300 0.474600 -0.854200
vn 0.387600 0.850000 -0.356800
vn 0.653700 0.445700 0.611600
vn 0.828800 0.559600 0.000000
vn 0.387600 0.850000 0.356800
vn -0.222000 0.397200 0.890500
vn 0.212300 0.474600 0.854200
vn -0.143100 0.815200 0.561200
vn -0.877000 0.480600 0.000000
vn -0.621300 0.524200 0.582500
vn -0.489000 0.872300 0.000000
vn 0.001500 1.000000 0.000000
vn -0.727700 -0.436900 -0.528700
vn 0.278000 -0.436900 -0.855500
vn -0.727700 -0.436900 0.528700
vn 0.899500 -0.436900 0.000000
vn 0.278000 -0.436900 0.855500
vn -0.899500 0.436900 0.000000
vn -0.278000 0.436900 -0.855500
vn 0.727700 0.436900 -0.528700
vn 0.727700 0.436900 0.528700
vn -0.278000 0.436900 0.855500
vn -0.761100 0.589000 -0.271800
vn 0.333600 0.935200 0.119100
vn 0.687600 0.579900 -0.437000
vn -0.370600 0.179900 -0.911200
vn 0.935700 -0.077300 -0.344100
vn -0.082800 -0.582400 -0.808700
vn 0.851100 -0.428000 0.304000
vn -0.168300 -0.983900 -0.060100
vn 0.506000 -0.077300 0.859000
vn -0.576300 -0.582400 0.573300
vn 0.255200 0.579900 0.773700
vn -0.864000 0.179900 0.470300
vn 0.761000 0.589000 -0.271800
vn -0.333600 0.935100 0.119100
vn -0.255200 0.579900 0.773700
vn 0.864000 0.179900 0.470300
vn -0.506000 -0.077300 0.859000
vn 0.576300 -0.582400 0.573300
vn -0.851100 -0.428000 0.304000
vn 0.168300 -0.983900 -0.060100
vn -0.935700 -0.077300 -0.344100
vn 0.082800 -0.582400 -0.808700
vn -0.687600 0.579800 -0.437000
vn 0.370600 0.179900 -0.911200
vn -0.458200 -0.077800 0.885500
vn 0.764800 0.126400 0.631700
vn 0.684500 0.601900 0.411300
vn -0.560500 0.601800 0.568900
vn 0.662600 0.733800 -0.150100
vn -0.584000 0.785100 -0.206300
vn 0.721300 0.382400 -0.577500
vn -0.516700 0.290600 -0.805300
vn 0.808600 -0.127800 -0.574300
vn -0.392100 -0.445100 -0.805100
vn 0.869000 -0.472100 -0.148400
vn -0.293700 -0.933500 -0.205800
vn 0.846200 -0.343400 0.407300
vn -0.331300 -0.753300 0.568200
vn 0.458200 -0.077800 0.885500
vn -0.764800 0.126400 0.631700
vn -0.846200 -0.343400 0.407300
vn 0.331300 -0.753300 0.568200
vn -0.869000 -0.472100 -0.148400
vn 0.293700 -0.933500 -0.205800
vn -0.808600 -0.127800 -0.574300
vn 0.392100 -0.445100 -0.805100
vn -0.721300 0.382400 -0.577500
vn 0.516700 0.290600 -0.805300
vn -0.662600 0.733800 -0.150100
vn 0.584000 0.785100 -0.206300
vn -0.684500 0.601900 0.411300
vn 0.560500 0.601800 0.568900
vn 0.277900 -0.436900 -0.855500
vn 0.277900 -0.436900 0.855500
vn -0.277900 0.436900 -0.855500
vn -0.277900 0.436900 0.855500
vn -0.000000 0.854500 -0.519400
vn -0.000000 -0.282500 -0.959300
vn -0.678700 -0.429700 -0.595600
vn -0.695000 0.704300 -0.144400
vn -0.680900 -0.721100 0.128200
vn -0.693400 0.406500 0.594900
vn -0.000000 -0.868300 0.496000
vn -0.000000 0.255600 0.966800
vn 0.680900 -0.721100 0.128200
vn 0.693400 0.406500 0.594900
vn 0.678700 -0.429700 -0.595600
vn 0.695000 0.704300 -0.144400
vn -0.000000 0.402500 0.915400
vn -0.000000 -0.824900 0.565200
vn 0.668100 -0.702400 0.245600
vn 0.716200 0.448000 0.535100
vn 0.695700 -0.469500 -0.543600
vn 0.700100 0.662400 -0.266800
vn -0.000000 -0.393600 -0.919300
vn -0.000000 0.804600 -0.593800
vn -0.695700 -0.469500 -0.543600
vn -0.700000 0.662400 -0.266800
vn -0.668100 -0.702400 0.245600
vn -0.716200 0.448000 0.535100
vn -0.003500 -0.977500 -0.210900
vn -0.751400 -0.212000 -0.624800
vn 0.298100 -0.099500 -0.949300
vn -0.646600 -0.691400 0.322200
vn 0.893900 -0.427100 -0.136000
vn 0.212800 -0.819600 0.531900
vn -0.893900 0.427100 0.136000
vn -0.212800 0.819600 -0.531900
vn 0.646600 0.691400 -0.322200
vn 0.751400 0.212000 0.624800
vn -0.298100 0.099500 0.949300
vn 0.003500 0.977500 0.210900
vn -0.000000 -0.999700 -0.023600
vn -0.300600 -0.914800 -0.269700
vn 0.124800 -0.882700 -0.453100
vn -0.748800 -0.347200 -0.564500
vn -0.696800 -0.716200 -0.037800
vn 0.313000 -0.949100 -0.035800
vn 0.075600 -0.974800 0.210000
vn -0.216200 -0.967600 0.130300
vn -0.960800 0.043500 -0.273900
vn 0.307100 -0.140000 -0.941300
vn -0.287900 -0.286500 -0.913800
vn -0.009600 0.443500 -0.896200
vn 0.762300 -0.646400 -0.033500
vn 0.699000 -0.462800 -0.545200
vn 0.956900 0.067400 -0.282300
vn 0.152500 -0.881200 0.447400
vn 0.428500 -0.857600 0.284500
vn 0.543200 -0.327400 0.773200
vn -0.470600 -0.824300 0.314600
vn -0.139200 -0.902400 0.407800
vn -0.560600 -0.328100 0.760300
vn -0.561000 0.347500 -0.751300
vn 0.580100 0.329800 -0.744800
vn 0.928000 -0.200000 0.314400
vn 0.013200 -0.368600 0.929500
vn -0.926800 -0.191200 0.323300
vn -0.245000 0.626700 -0.739800
vn -0.614100 0.657800 -0.436000
vn -0.136300 0.897500 -0.419500
vn 0.657500 0.594900 -0.462400
vn 0.229300 0.681000 -0.695400
vn 0.356800 0.897500 -0.259300
vn 0.702700 0.476700 0.528200
vn 0.787200 0.616700 0.010200
vn 0.356800 0.897500 0.259300
vn -0.272600 0.437200 0.857100
vn 0.256800 0.541800 0.800300
vn -0.136300 0.897500 0.419500
vn -0.842600 0.538300 0.016600
vn -0.659100 0.571400 0.489000
vn -0.441100 0.897500 0.000000
vt 0.325476 0.762697
vt 0.325476 0.570044
vt 0.339508 0.570027
vt 0.339508 0.762680
vt 0.349898 0.570270
vt 0.349898 0.762924
vt 0.179984 0.434461
vt 0.179984 0.311142
vt 0.193993 0.311942
vt 0.193993 0.435261
vt 0.623218 0.683189
vt 0.623218 0.490557
vt 0.632621 0.490867
vt 0.632621 0.683499
vt 0.646649 0.490889
vt 0.646649 0.683521
vt 0.657085 0.490609
vt 0.657085 0.683241
vt 0.581981 0.430957
vt 0.590672 0.439908
vt 0.590672 0.453743
vt 0.581981 0.464359
vt 0.569689 0.465536
vt 0.560998 0.456586
vt 0.560998 0.442750
vt 0.569689 0.432135
vt 0.825707 0.401521
vt 0.825707 0.213482
vt 0.839748 0.213384
vt 0.839748 0.401424
vt 0.849990 0.215490
vt 0.849990 0.403529
vt 0.797227 0.464841
vt 0.786040 0.465200
vt 0.778130 0.455530
vt 0.778130 0.441494
vt 0.786040 0.431316
vt 0.797227 0.430957
vt 0.805137 0.440628
vt 0.805137 0.454663
vt 0.924216 0.433277
vt 0.947151 0.433277
vt 0.947170 0.449063
vt 0.924236 0.449063
vt 0.946896 0.460752
vt 0.923962 0.460752
vt 0.888144 0.077024
vt 0.902801 0.076187
vt 0.902801 0.091973
vt 0.888144 0.092810
vt 0.803031 0.887127
vt 0.825964 0.887092
vt 0.825631 0.897671
vt 0.802699 0.897706
vt 0.825631 0.913453
vt 0.802699 0.913488
vt 0.825964 0.925193
vt 0.803031 0.925229
vt 0.861699 0.639284
vt 0.871477 0.649354
vt 0.871477 0.664919
vt 0.861699 0.676861
vt 0.847871 0.678186
vt 0.838093 0.668117
vt 0.838093 0.652552
vt 0.847871 0.640609
vt 0.876858 0.433277
vt 0.899243 0.433277
vt 0.899353 0.449072
vt 0.876967 0.449072
vt 0.896984 0.460594
vt 0.874598 0.460594
vt 0.033789 0.913471
vt 0.021203 0.913874
vt 0.012304 0.902995
vt 0.012304 0.887206
vt 0.021203 0.875755
vt 0.033789 0.875351
vt 0.042688 0.886231
vt 0.042688 0.902020
vt 0.740171 0.683227
vt 0.740171 0.490574
vt 0.754203 0.490557
vt 0.754203 0.683210
vt 0.764593 0.490800
vt 0.764593 0.683454
vt 0.699197 0.831448
vt 0.699197 0.708129
vt 0.713206 0.708929
vt 0.713206 0.832249
vt 0.669169 0.406017
vt 0.669169 0.213384
vt 0.678572 0.213695
vt 0.678572 0.406327
vt 0.692600 0.213716
vt 0.692600 0.406348
vt 0.703036 0.213437
vt 0.703036 0.406069
vt 0.690547 0.430957
vt 0.699238 0.439908
vt 0.699238 0.453743
vt 0.690547 0.464359
vt 0.678255 0.465536
vt 0.669564 0.456586
vt 0.669564 0.442750
vt 0.678255 0.432135
vt 0.789202 0.678693
vt 0.789202 0.490654
vt 0.803243 0.490557
vt 0.803243 0.678596
vt 0.813484 0.492662
vt 0.813484 0.680702
vt 0.642315 0.917519
vt 0.631128 0.917878
vt 0.623218 0.908207
vt 0.623218 0.894172
vt 0.631128 0.883994
vt 0.642315 0.883635
vt 0.650225 0.893305
vt 0.650225 0.907340
vt 0.932846 0.369766
vt 0.955781 0.369766
vt 0.955800 0.385552
vt 0.932865 0.385552
vt 0.955526 0.397242
vt 0.932591 0.397242
vt 0.674834 0.947218
vt 0.689491 0.946381
vt 0.689491 0.962166
vt 0.674834 0.963003
vt 0.740503 0.899259
vt 0.763436 0.899223
vt 0.763103 0.909802
vt 0.740171 0.909838
vt 0.763103 0.925584
vt 0.740171 0.925620
vt 0.763436 0.937325
vt 0.740503 0.937360
vt 0.898204 0.306256
vt 0.907982 0.316326
vt 0.907982 0.331891
vt 0.898204 0.343833
vt 0.884376 0.345158
vt 0.874598 0.335088
vt 0.874598 0.319523
vt 0.884376 0.307581
vt 0.570003 0.904859
vt 0.592388 0.904859
vt 0.592497 0.920655
vt 0.570112 0.920655
vt 0.590129 0.932177
vt 0.567743 0.932177
vt 0.088781 0.913470
vt 0.076195 0.913874
vt 0.067296 0.902995
vt 0.067296 0.887206
vt 0.076195 0.875755
vt 0.088781 0.875351
vt 0.097680 0.886231
vt 0.097680 0.902020
vt 0.727645 0.406055
vt 0.727645 0.213402
vt 0.741677 0.213384
vt 0.741677 0.406038
vt 0.752068 0.213628
vt 0.752068 0.406281
vt 0.091914 0.831594
vt 0.091914 0.708275
vt 0.105923 0.709075
vt 0.105923 0.832394
vt 0.681694 0.683189
vt 0.681694 0.490557
vt 0.691097 0.490867
vt 0.691097 0.683499
vt 0.705126 0.490889
vt 0.705126 0.683521
vt 0.715562 0.490609
vt 0.715562 0.683241
vt 0.744830 0.430957
vt 0.753521 0.439908
vt 0.753521 0.453743
vt 0.744830 0.464359
vt 0.732538 0.465536
vt 0.723847 0.456586
vt 0.723847 0.442750
vt 0.732538 0.432135
vt 0.455189 0.805840
vt 0.455189 0.617800
vt 0.469229 0.617703
vt 0.469229 0.805743
vt 0.479471 0.619809
vt 0.479471 0.807848
vt 0.883339 0.916953
vt 0.872152 0.917312
vt 0.864241 0.907642
vt 0.864241 0.893607
vt 0.872152 0.883428
vt 0.883339 0.883069
vt 0.891249 0.892740
vt 0.891249 0.906775
vt 0.931257 0.554067
vt 0.954192 0.554067
vt 0.954211 0.569853
vt 0.931276 0.569853
vt 0.953937 0.581542
vt 0.931002 0.581542
vt 0.802699 0.950674
vt 0.817356 0.949837
vt 0.817356 0.965623
vt 0.802699 0.966460
vt 0.675166 0.883671
vt 0.698099 0.883635
vt 0.697766 0.894214
vt 0.674834 0.894249
vt 0.697766 0.909996
vt 0.674834 0.910032
vt 0.698099 0.921737
vt 0.675166 0.921772
vt 0.900316 0.490557
vt 0.910094 0.500626
vt 0.910094 0.516191
vt 0.900316 0.528134
vt 0.886488 0.529458
vt 0.876711 0.519389
vt 0.876711 0.503824
vt 0.886488 0.491881
vt 0.408557 0.902827
vt 0.430943 0.902827
vt 0.431052 0.918622
vt 0.408666 0.918622
vt 0.428683 0.930144
vt 0.406298 0.930144
vt 0.346960 0.915634
vt 0.334375 0.916038
vt 0.325476 0.905159
vt 0.325476 0.889369
vt 0.334375 0.877919
vt 0.346960 0.877515
vt 0.355859 0.888394
vt 0.355859 0.904184
vt 0.776676 0.406055
vt 0.776676 0.213402
vt 0.790708 0.213384
vt 0.790708 0.406038
vt 0.801099 0.213628
vt 0.801099 0.406281
vt 0.838093 0.613876
vt 0.838093 0.490557
vt 0.852102 0.491357
vt 0.852102 0.614676
vt 0.132620 0.672951
vt 0.132620 0.480319
vt 0.142023 0.480629
vt 0.142023 0.673261
vt 0.156052 0.480651
vt 0.156052 0.673283
vt 0.166488 0.480371
vt 0.166488 0.673004
vt 0.636264 0.430957
vt 0.644955 0.439908
vt 0.644955 0.453743
vt 0.636264 0.464359
vt 0.623972 0.465536
vt 0.615281 0.456586
vt 0.615281 0.442750
vt 0.623972 0.432135
vt 0.406298 0.805840
vt 0.406298 0.617800
vt 0.420338 0.617703
vt 0.420338 0.805743
vt 0.430580 0.619809
vt 0.430580 0.807848
vt 0.534335 0.915295
vt 0.523148 0.915654
vt 0.515238 0.905984
vt 0.515238 0.891949
vt 0.523148 0.881770
vt 0.534335 0.881411
vt 0.542245 0.891082
vt 0.542245 0.905117
vt 0.932846 0.306256
vt 0.955780 0.306256
vt 0.955800 0.322042
vt 0.932865 0.322042
vt 0.955526 0.333731
vt 0.932591 0.333731
vt 0.919247 0.950941
vt 0.933904 0.950104
vt 0.933904 0.965890
vt 0.919247 0.966727
vt 0.461848 0.896903
vt 0.484781 0.896867
vt 0.484448 0.907446
vt 0.461516 0.907482
vt 0.484448 0.923228
vt 0.461516 0.923264
vt 0.484781 0.934969
vt 0.461848 0.935004
vt 0.898204 0.369767
vt 0.907982 0.379836
vt 0.907982 0.395401
vt 0.898204 0.407344
vt 0.884376 0.408668
vt 0.874598 0.398599
vt 0.874598 0.383034
vt 0.884376 0.371091
vt 0.921506 0.898178
vt 0.943892 0.898178
vt 0.944001 0.913974
vt 0.921615 0.913974
vt 0.941632 0.925496
vt 0.919247 0.925496
vt 0.240818 0.918105
vt 0.228233 0.918509
vt 0.219334 0.907630
vt 0.219334 0.891840
vt 0.228233 0.880390
vt 0.240818 0.879986
vt 0.249717 0.890865
vt 0.249717 0.906654
vt 0.161398 0.156776
vt 0.137171 0.141840
vt 0.155933 0.117261
vt 0.048656 0.100509
vt 0.073857 0.110241
vt 0.054246 0.139352
vt 0.179575 0.146981
vt 0.175424 0.189927
vt 0.149217 0.186749
vt 0.029231 0.116965
vt 0.028097 0.387644
vt 0.012304 0.368243
vt 0.036734 0.361997
vt 0.312745 0.186642
vt 0.315803 0.220920
vt 0.289616 0.206914
vt 0.345737 0.036562
vt 0.342522 0.065545
vt 0.322469 0.036552
vt 0.536389 0.368430
vt 0.523571 0.395131
vt 0.511610 0.368310
vt 0.033381 0.074018
vt 0.051833 0.391533
vt 0.294678 0.162976
vt 0.332396 0.012304
vt 0.531544 0.341740
vt 0.477901 0.262520
vt 0.467210 0.234805
vt 0.497366 0.239821
vt 0.138431 0.404840
vt 0.129678 0.376482
vt 0.155375 0.390540
vt 0.231634 0.455190
vt 0.235991 0.416668
vt 0.254986 0.443051
vt 0.307673 0.544167
vt 0.287394 0.534581
vt 0.319039 0.518003
vt 0.445253 0.112376
vt 0.458835 0.076320
vt 0.469864 0.113345
vt 0.365475 0.407360
vt 0.339628 0.434880
vt 0.344335 0.396151
vt 0.500474 0.117107
vt 0.522049 0.080434
vt 0.530175 0.123378
vt 0.488862 0.074913
vt 0.549302 0.091370
vt 0.360831 0.451914
vt 0.330750 0.479114
vt 0.509912 0.039687
vt 0.540513 0.050105
vt 0.349502 0.497653
vt 0.477388 0.039603
vt 0.497089 0.012304
vt 0.527245 0.017321
vt 0.437609 0.342091
vt 0.424877 0.368847
vt 0.411226 0.352680
vt 0.318277 0.409896
vt 0.308888 0.454705
vt 0.297559 0.500445
vt 0.286056 0.426815
vt 0.274062 0.472949
vt 0.264506 0.513817
vt 0.244691 0.484613
vt 0.330928 0.366936
vt 0.299314 0.379931
vt 0.264487 0.398175
vt 0.312538 0.336885
vt 0.278409 0.350896
vt 0.292938 0.314169
vt 0.246294 0.371587
vt 0.261293 0.330747
vt 0.276688 0.302191
vt 0.360097 0.365368
vt 0.345338 0.330927
vt 0.324434 0.301891
vt 0.548461 0.201901
vt 0.519664 0.205358
vt 0.539342 0.165536
vt 0.356536 0.300166
vt 0.525363 0.242777
vt 0.303114 0.286218
vt 0.115870 0.344691
vt 0.145641 0.357559
vt 0.552648 0.236226
vt 0.527627 0.270649
vt 0.501170 0.271012
vt 0.552648 0.130242
vt 0.511088 0.162055
vt 0.487990 0.202931
vt 0.477901 0.156535
vt 0.456539 0.194857
vt 0.448875 0.150487
vt 0.431030 0.090580
vt 0.419183 0.069454
vt 0.446125 0.049860
vt 0.501930 0.338993
vt 0.521884 0.312718
vt 0.489408 0.309881
vt 0.467470 0.339122
vt 0.456339 0.312963
vt 0.480156 0.368338
vt 0.448987 0.368545
vt 0.429635 0.395482
vt 0.406298 0.385677
vt 0.439648 0.424726
vt 0.411715 0.416734
vt 0.453556 0.449122
vt 0.424878 0.446250
vt 0.258324 0.545418
vt 0.230418 0.544652
vt 0.234827 0.517923
vt 0.303729 0.013598
vt 0.292991 0.045329
vt 0.271465 0.028068
vt 0.263837 0.062850
vt 0.219334 0.483917
vt 0.254573 0.104991
vt 0.229458 0.119936
vt 0.241331 0.083389
vt 0.273599 0.133545
vt 0.244775 0.149485
vt 0.266843 0.181392
vt 0.219334 0.396934
vt 0.239204 0.197840
vt 0.221026 0.164829
vt 0.233257 0.349655
vt 0.263002 0.225520
vt 0.239386 0.236804
vt 0.219334 0.207811
vt 0.129678 0.430518
vt 0.155375 0.423936
vt 0.113795 0.401190
vt 0.082623 0.396412
vt 0.099881 0.369279
vt 0.065785 0.363966
vt 0.083264 0.336774
vt 0.099481 0.317410
vt 0.051017 0.334584
vt 0.068499 0.312581
vt 0.473365 0.285272
vt 0.452376 0.262895
vt 0.425487 0.253659
vt 0.438478 0.228324
vt 0.012304 0.091191
vt 0.020993 0.049107
vt 0.412065 0.212840
vt 0.428389 0.181927
vt 0.012304 0.139009
vt 0.406298 0.165406
vt 0.424874 0.136417
vt 0.458695 0.397879
vt 0.493155 0.397751
vt 0.471858 0.427396
vt 0.505193 0.424481
vt 0.484868 0.449005
vt 0.467472 0.464363
vt 0.282609 0.086661
vt 0.314872 0.072190
vt 0.304677 0.118567
vt 0.334967 0.106021
vt 0.323994 0.149828
vt 0.262453 0.261609
vt 0.290092 0.245161
vt 0.099881 0.428747
vt 0.083264 0.455710
vt 0.065785 0.423434
vt 0.317821 0.254840
vt 0.051017 0.447699
vt 0.036734 0.416033
vt 0.039762 0.311142
vt 0.022283 0.338334
vt 0.445252 0.283864
vt 0.067874 0.012304
vt 0.047225 0.039354
vt 0.037520 0.016878
vt 0.098486 0.020705
vt 0.078728 0.040409
vt 0.060962 0.069863
vt 0.408751 0.115998
vt 0.035266 0.163092
vt 0.020993 0.187879
vt 0.048523 0.212516
vt 0.037520 0.233019
vt 0.065369 0.251695
vt 0.064670 0.185871
vt 0.078338 0.229171
vt 0.091556 0.260450
vt 0.109995 0.244971
vt 0.116591 0.277259
vt 0.130938 0.218943
vt 0.139734 0.258037
vt 0.161316 0.226000
vt 0.536389 0.416268
vt 0.168575 0.261535
vt 0.144745 0.286534
vt 0.515092 0.445913
vt 0.185797 0.225595
vt 0.188616 0.254504
vt 0.492842 0.465948
vt 0.364841 0.059216
vt 0.358583 0.026311
vt 0.381689 0.092771
vt 0.361503 0.097132
vt 0.194725 0.182234
vt 0.375872 0.136543
vt 0.351308 0.143509
vt 0.381689 0.172980
vt 0.362297 0.180985
vt 0.337050 0.185639
vt 0.342294 0.221748
vt 0.173275 0.102263
vt 0.194486 0.135695
vt 0.366857 0.214782
vt 0.343475 0.253610
vt 0.022283 0.434555
vt 0.144996 0.073482
vt 0.159084 0.057826
vt 0.130143 0.036505
vt 0.012305 0.401639
vt 0.097636 0.205116
vt 0.084379 0.155692
vt 0.119218 0.173079
vt 0.105722 0.124933
vt 0.112418 0.052169
vt 0.126609 0.096606
vt 0.091770 0.079218
vt 0.233204 0.730668
vt 0.256383 0.729638
vt 0.242232 0.753437
vt 0.278036 0.727970
vt 0.268583 0.705023
vt 0.219334 0.745117
vt 0.219334 0.716176
vt 0.242231 0.706609
vt 0.288323 0.712024
vt 0.832205 0.751277
vt 0.833844 0.775059
vt 0.818451 0.766595
vt 0.794739 0.028308
vt 0.787334 0.012304
vt 0.806410 0.013622
vt 0.794846 0.076444
vt 0.793872 0.053388
vt 0.810514 0.067307
vt 0.571490 0.748382
vt 0.554563 0.768931
vt 0.553485 0.747066
vt 0.288324 0.740966
vt 0.819032 0.736086
vt 0.810451 0.039013
vt 0.535222 0.785582
vt 0.516316 0.785811
vt 0.532167 0.768931
vt 0.572128 0.728566
vt 0.173692 0.711719
vt 0.176974 0.736163
vt 0.154749 0.720376
vt 0.719389 0.012304
vt 0.743210 0.017731
vt 0.730314 0.028779
vt 0.693458 0.048212
vt 0.703307 0.025895
vt 0.715073 0.049885
vt 0.719389 0.092425
vt 0.703307 0.072988
vt 0.730315 0.075873
vt 0.173692 0.760927
vt 0.154845 0.773615
vt 0.154750 0.749300
vt 0.754976 0.070828
vt 0.739406 0.053120
vt 0.132620 0.757828
vt 0.743211 0.093931
vt 0.754976 0.041722
vt 0.132620 0.711029
vt 0.154845 0.697892
vt 0.135881 0.734068
vt 0.177129 0.775506
vt 0.549731 0.728566
vt 0.533387 0.748382
vt 0.515238 0.763945
vt 0.684270 0.063276
vt 0.684270 0.034170
vt 0.823052 0.027541
vt 0.819032 0.709759
vt 0.805405 0.724165
vt 0.802699 0.708062
vt 0.802699 0.750659
vt 0.804417 0.776070
vt 0.190806 0.723436
vt 0.190806 0.752360
vt 0.823052 0.051988
vt 0.834784 0.725695
vt 0.817511 0.789633
vt 0.268583 0.751852
vt 0.274172 0.688995
vt 0.253960 0.688791
vt 0.231534 0.691561
vt 0.552554 0.785811
vt 0.779648 0.065174
vt 0.779585 0.036881
vt 0.231534 0.767331
vt 0.253960 0.768461
vt 0.235726 0.619518
vt 0.263119 0.618301
vt 0.246395 0.646427
vt 0.288709 0.616330
vt 0.277537 0.589210
vt 0.219334 0.636595
vt 0.219334 0.602391
vt 0.246395 0.591085
vt 0.300867 0.597484
vt 0.775041 0.759134
vt 0.776979 0.787241
vt 0.758787 0.777237
vt 0.641127 0.727043
vt 0.632375 0.708130
vt 0.654920 0.709687
vt 0.641253 0.783930
vt 0.640102 0.756683
vt 0.659770 0.773132
vt 0.750750 0.141958
vt 0.730745 0.166244
vt 0.729471 0.140403
vt 0.300867 0.631688
vt 0.759474 0.741181
vt 0.659696 0.739695
vt 0.707887 0.185922
vt 0.685544 0.186193
vt 0.704276 0.166244
vt 0.751503 0.118540
vt 0.563777 0.628572
vt 0.567656 0.657461
vt 0.541390 0.638803
vt 0.602502 0.309881
vt 0.630655 0.316295
vt 0.615414 0.329351
vt 0.571857 0.352317
vt 0.583496 0.325942
vt 0.597402 0.354295
vt 0.602502 0.404569
vt 0.583497 0.381598
vt 0.615414 0.385007
vt 0.563778 0.686727
vt 0.541504 0.701722
vt 0.541391 0.672986
vt 0.644560 0.379045
vt 0.626158 0.358117
vt 0.515238 0.683064
vt 0.630655 0.406348
vt 0.644559 0.344647
vt 0.515238 0.627756
vt 0.541503 0.612231
vt 0.519092 0.654985
vt 0.567839 0.703957
vt 0.725035 0.118540
vt 0.705719 0.141958
vt 0.684270 0.160351
vt 0.560998 0.370120
vt 0.560998 0.335722
vt 0.674588 0.726136
vt 0.759474 0.710068
vt 0.743369 0.727093
vt 0.740171 0.708062
vt 0.740171 0.758404
vt 0.742201 0.788435
vt 0.584002 0.642419
vt 0.584002 0.676602
vt 0.674588 0.755028
vt 0.778090 0.728901
vt 0.757676 0.804464
vt 0.277538 0.644553
vt 0.284142 0.570268
vt 0.260256 0.570027
vt 0.233752 0.573300
vt 0.728371 0.186193
vt 0.623292 0.770612
vt 0.623218 0.737174
vt 0.233752 0.662847
vt 0.260256 0.664182
vt 0.431698 0.571761
vt 0.449409 0.546993
vt 0.463577 0.577071
vt 0.466525 0.519905
vt 0.434479 0.513948
vt 0.436933 0.593095
vt 0.406298 0.572920
vt 0.414009 0.544428
vt 0.459891 0.493122
vt 0.065987 0.558233
vt 0.044468 0.576588
vt 0.036018 0.545517
vt 0.032101 0.629753
vt 0.012304 0.615911
vt 0.044035 0.601196
vt 0.061656 0.683666
vt 0.045161 0.659553
vt 0.081714 0.659857
vt 0.630360 0.093406
vt 0.600647 0.080513
vt 0.632123 0.062820
vt 0.490527 0.513296
vt 0.067121 0.526315
vt 0.064342 0.628168
vt 0.577257 0.060970
vt 0.577681 0.030227
vt 0.600909 0.043755
vt 0.659399 0.080140
vt 0.597251 0.537765
vt 0.572343 0.555304
vt 0.572343 0.518563
vt 0.065219 0.495674
vt 0.035567 0.508745
vt 0.043285 0.480319
vt 0.582651 0.191535
vt 0.577257 0.159792
vt 0.608027 0.173571
vt 0.638153 0.217610
vt 0.609967 0.209305
vt 0.640650 0.188898
vt 0.543073 0.568700
vt 0.515238 0.556719
vt 0.540498 0.536746
vt 0.515238 0.519977
vt 0.543073 0.506192
vt 0.659661 0.043382
vt 0.630806 0.030870
vt 0.645467 0.012304
vt 0.634851 0.156817
vt 0.607939 0.139386
vt 0.582502 0.133375
vt 0.566764 0.490557
vt 0.598609 0.509115
vt 0.531471 0.587622
vt 0.609156 0.012534
vt 0.580397 0.217610
vt 0.080588 0.601501
vt 0.094288 0.630271
vt 0.094341 0.508746
vt 0.079609 0.480319
vt 0.012304 0.528343
vt 0.598609 0.568565
vt 0.566764 0.586748
vt 0.094792 0.545518
vt 0.012914 0.559018
vt 0.484048 0.546590
vt 0.424491 0.490557
vt 0.406298 0.515541
vt 0.608470 0.108766
vt 0.577257 0.089701
vt 0.030372 0.683666
vt 0.013001 0.651977
vt 0.108011 0.559019
vt 0.080792 0.576588
vt 0.490629 0.571075
vt 0.343772 0.838596
vt 0.349425 0.821039
vt 0.360182 0.839753
vt 0.355081 0.802992
vt 0.338672 0.801699
vt 0.349428 0.852906
vt 0.332025 0.842321
vt 0.332024 0.822626
vt 0.349429 0.787533
vt 0.811367 0.160226
vt 0.806175 0.178779
vt 0.793128 0.165636
vt 0.823742 0.129335
vt 0.821124 0.143222
vt 0.809641 0.125504
vt 0.558726 0.841385
vt 0.542563 0.842861
vt 0.551073 0.825144
vt 0.059350 0.733630
vt 0.051785 0.752727
vt 0.042192 0.733875
vt 0.366832 0.798118
vt 0.802367 0.143661
vt 0.525575 0.841385
vt 0.515238 0.828136
vt 0.531587 0.825144
vt 0.039928 0.769281
vt 0.021897 0.771731
vt 0.030776 0.754831
vt 0.051785 0.716868
vt 0.260136 0.823053
vt 0.247421 0.835496
vt 0.247421 0.812027
vt 0.791831 0.130082
vt 0.781645 0.147918
vt 0.776112 0.132392
vt 0.041553 0.842519
vt 0.027390 0.850743
vt 0.028425 0.829632
vt 0.044596 0.802431
vt 0.045300 0.822346
vt 0.030214 0.806069
vt 0.232956 0.844457
vt 0.219334 0.836895
vt 0.231445 0.824608
vt 0.015199 0.796339
vt 0.015887 0.814827
vt 0.219334 0.813426
vt 0.030776 0.718972
vt 0.023608 0.737208
vt 0.012304 0.730717
vt 0.012304 0.834465
vt 0.014126 0.850743
vt 0.245184 0.793069
vt 0.232957 0.804529
vt 0.261160 0.803957
vt 0.039928 0.708275
vt 0.012304 0.752879
vt 0.054694 0.838954
vt 0.523748 0.810420
vt 0.540052 0.811243
vt 0.793414 0.118540
vt 0.776112 0.167468
vt 0.261160 0.841932
vt 0.245183 0.854513
vt 0.785452 0.183036
vt 0.366829 0.818826
vt 0.227825 0.855377
vt 0.332027 0.789120
vt 0.067305 0.725210
vt 0.067305 0.747372
vt 0.055889 0.768327
vt 0.552483 0.856802
vt 0.532998 0.856802
vt 0.516109 0.847702
vt 0.366832 0.850693
vt 0.823477 0.164926
vt 0.325476 0.805692
vt 0.374507 0.651400
vt 0.380633 0.647601
vt 0.380736 0.654127
vt 0.374507 0.644282
vt 0.863458 0.788905
vt 0.864156 0.785262
vt 0.870036 0.787686
vt 0.374507 0.581710
vt 0.374516 0.576157
vt 0.380669 0.579686
vt 0.971779 0.439465
vt 0.975638 0.435195
vt 0.975763 0.442374
vt 0.380736 0.642610
vt 0.859393 0.783047
vt 0.863458 0.778207
vt 0.870036 0.781074
vt 0.380669 0.572466
vt 0.981882 0.438550
vt 0.740854 0.973656
vt 0.740171 0.967921
vt 0.746602 0.971155
vt 0.374507 0.570027
vt 0.981680 0.433277
vt 0.981882 0.444892
vt 0.746180 0.963932
vt 0.750577 0.967202
vt 0.380625 0.756378
vt 0.374507 0.759136
vt 0.374507 0.752518
vt 0.380753 0.749304
vt 0.740171 0.961969
vt 0.374507 0.687526
vt 0.380633 0.683728
vt 0.380736 0.690253
vt 0.374507 0.680408
vt 0.977516 0.680938
vt 0.978214 0.677295
vt 0.984094 0.679719
vt 0.374507 0.618001
vt 0.374516 0.612448
vt 0.380669 0.615978
vt 0.972194 0.182411
vt 0.976053 0.178141
vt 0.976178 0.185320
vt 0.380736 0.678736
vt 0.973451 0.675080
vt 0.977516 0.670240
vt 0.984094 0.673107
vt 0.380669 0.608757
vt 0.982297 0.181496
vt 0.969293 0.909865
vt 0.968610 0.904130
vt 0.975041 0.907364
vt 0.374507 0.606318
vt 0.982095 0.176223
vt 0.982297 0.187838
vt 0.974619 0.900141
vt 0.979016 0.903411
vt 0.380625 0.721937
vt 0.374507 0.724695
vt 0.374507 0.718077
vt 0.380753 0.714862
vt 0.968610 0.898178
vt 0.091909 0.970944
vt 0.097904 0.938483
vt 0.099903 0.939116
vt 0.099903 0.973473
vt 0.952632 0.851444
vt 0.956095 0.814241
vt 0.958389 0.814241
vt 0.961809 0.851444
vt 0.939691 0.035904
vt 0.950359 0.014362
vt 0.951916 0.015842
vt 0.945916 0.041822
vt 0.954138 0.015553
vt 0.954803 0.040666
vt 0.951025 0.012593
vt 0.953247 0.012304
vt 0.954803 0.013784
vt 0.177435 0.972208
vt 0.180994 0.936201
vt 0.183288 0.936201
vt 0.186611 0.972208
vt 0.524359 0.940263
vt 0.523508 0.969314
vt 0.521228 0.969314
vt 0.515238 0.940263
vt 0.623218 0.947742
vt 0.630148 0.942486
vt 0.637079 0.946234
vt 0.637079 0.955237
vt 0.630148 0.960492
vt 0.623218 0.956745
vt 0.948348 0.745314
vt 0.951765 0.708062
vt 0.954058 0.708062
vt 0.957521 0.745314
vt 0.935169 0.150897
vt 0.935169 0.119568
vt 0.937359 0.119747
vt 0.943928 0.151614
vt 0.938984 0.118540
vt 0.950431 0.146782
vt 0.953366 0.250555
vt 0.956622 0.213384
vt 0.958910 0.213384
vt 0.962521 0.250555
vt 0.058199 0.970328
vt 0.059143 0.968923
vt 0.061419 0.968902
vt 0.062750 0.970285
vt 0.061806 0.971690
vt 0.059530 0.971711
vt 0.864241 0.968880
vt 0.864241 0.942922
vt 0.866193 0.941921
vt 0.872049 0.964875
vt 0.067301 0.938483
vt 0.058199 0.938569
vt 0.964350 0.950104
vt 0.970188 0.955007
vt 0.970188 0.964168
vt 0.964350 0.968426
vt 0.958512 0.963523
vt 0.958512 0.954362
vt 0.894638 0.814241
vt 0.894638 0.857488
vt 0.892976 0.857523
vt 0.879681 0.814551
vt 0.891261 0.858461
vt 0.864242 0.822991
vt 0.740171 0.856980
vt 0.772485 0.829072
vt 0.773264 0.830181
vt 0.747184 0.866954
vt 0.775061 0.831032
vt 0.763362 0.874615
vt 0.776524 0.830985
vt 0.776524 0.874194
vt 0.490482 0.835007
vt 0.489293 0.836248
vt 0.487331 0.836108
vt 0.486074 0.834693
vt 0.486468 0.833068
vt 0.488217 0.832457
vt 0.490003 0.833320
vt 0.461516 0.858264
vt 0.472829 0.871001
vt 0.490482 0.872258
vt 0.893479 0.050485
vt 0.888144 0.035982
vt 0.893479 0.018990
vt 0.905468 0.012304
vt 0.915082 0.020960
vt 0.915082 0.038438
vt 0.905468 0.051578
vt 0.874351 0.709686
vt 0.888244 0.752685
vt 0.886582 0.753598
vt 0.859393 0.717905
vt 0.406298 0.878218
vt 0.406298 0.833572
vt 0.408054 0.833360
vt 0.422107 0.876310
vt 0.409699 0.832457
vt 0.436907 0.868188
vt 0.934703 0.521056
vt 0.945940 0.490557
vt 0.947920 0.490557
vt 0.952527 0.521056
vt 0.294933 0.888817
vt 0.290362 0.929736
vt 0.288406 0.929736
vt 0.277329 0.888817
vt 0.288808 0.932816
vt 0.287160 0.932206
vt 0.286981 0.930835
vt 0.291376 0.930835
vt 0.290685 0.932206
vt 0.832311 0.465453
vt 0.844115 0.428138
vt 0.846079 0.428138
vt 0.849990 0.465453
vt 0.889981 0.708062
vt 0.889981 0.752505
vt 0.614124 0.269393
vt 0.600966 0.281377
vt 0.584559 0.278893
vt 0.577257 0.263813
vt 0.584559 0.247491
vt 0.600966 0.242219
vt 0.614124 0.251966
vt 0.978820 0.564322
vt 0.985966 0.559891
vt 0.986087 0.567504
vt 0.978820 0.556017
vt 0.948842 0.679451
vt 0.944812 0.677876
vt 0.948842 0.671646
vt 0.976624 0.080060
vt 0.976634 0.073582
vt 0.983813 0.077700
vt 0.277329 0.964644
vt 0.281831 0.959663
vt 0.281977 0.968038
vt 0.986087 0.554067
vt 0.941258 0.682869
vt 0.936570 0.677176
vt 0.941258 0.670240
vt 0.983813 0.069276
vt 0.289116 0.963576
vt 0.568540 0.970420
vt 0.567743 0.963729
vt 0.575246 0.967502
vt 0.976624 0.066431
vt 0.288880 0.957425
vt 0.289116 0.970976
vt 0.574754 0.959075
vt 0.579883 0.962890
vt 0.987546 0.314510
vt 0.980408 0.317728
vt 0.980408 0.310006
vt 0.987696 0.306256
vt 0.567743 0.956785
vt 0.977135 0.500812
vt 0.984282 0.496381
vt 0.984403 0.503994
vt 0.977135 0.492507
vt 0.939911 0.188704
vt 0.940726 0.184454
vt 0.947585 0.187281
vt 0.975039 0.132169
vt 0.975050 0.125691
vt 0.982229 0.129809
vt 0.461516 0.966832
vt 0.466018 0.961851
vt 0.466164 0.970226
vt 0.984403 0.490557
vt 0.935169 0.181869
vt 0.939912 0.176223
vt 0.947585 0.179567
vt 0.982229 0.121385
vt 0.473303 0.965765
vt 0.407095 0.968388
vt 0.406298 0.961697
vt 0.413801 0.965470
vt 0.975039 0.118540
vt 0.473067 0.959613
vt 0.473303 0.973164
vt 0.413308 0.957043
vt 0.418438 0.960858
vt 0.986549 0.020558
vt 0.979412 0.023776
vt 0.979412 0.016055
vt 0.986699 0.012304
vt 0.406298 0.954753
vt 0.928024 0.814241
vt 0.928024 0.872235
vt 0.921441 0.873569
vt 0.919247 0.816021
vt 0.924173 0.213441
vt 0.925494 0.255346
vt 0.918618 0.255304
vt 0.915005 0.213384
vt 0.592497 0.810420
vt 0.590207 0.880225
vt 0.583335 0.880251
vt 0.583335 0.810454
vt 0.863535 0.012553
vt 0.861698 0.086636
vt 0.855921 0.086449
vt 0.855832 0.012304
vt 0.928757 0.260373
vt 0.925144 0.265357
vt 0.918268 0.265315
vt 0.915005 0.260288
vt 0.849792 0.086636
vt 0.847661 0.012553
vt 0.294933 0.793069
vt 0.294876 0.864208
vt 0.288002 0.864208
vt 0.285768 0.793069
vt 0.370010 0.940647
vt 0.377477 0.945308
vt 0.377477 0.954482
vt 0.370010 0.958994
vt 0.362543 0.954332
vt 0.362543 0.945159
vt 0.890397 0.214517
vt 0.890174 0.281648
vt 0.884617 0.280798
vt 0.882987 0.213385
vt 0.878325 0.281648
vt 0.874598 0.214517
vt 0.923739 0.708062
vt 0.921968 0.776585
vt 0.915105 0.776585
vt 0.914590 0.708062
vt 0.911961 0.625431
vt 0.911669 0.669901
vt 0.905569 0.667521
vt 0.903828 0.622257
vt 0.906154 0.678186
vt 0.900054 0.675806
vt 0.899762 0.670473
vt 0.911961 0.675234
vt 0.896085 0.626194
vt 0.910560 0.118540
vt 0.909741 0.187435
vt 0.902881 0.187435
vt 0.901414 0.118540
vt 0.232650 0.947339
vt 0.232650 0.956486
vt 0.225992 0.961411
vt 0.219334 0.957190
vt 0.219334 0.948043
vt 0.225992 0.943118
vt 0.325476 0.958227
vt 0.337727 0.950630
vt 0.337934 0.963682
vt 0.325476 0.943990
vt 0.020435 0.959879
vt 0.021831 0.952593
vt 0.033590 0.957441
vt 0.939691 0.089796
vt 0.939708 0.078690
vt 0.952015 0.085749
vt 0.132620 0.948577
vt 0.140338 0.940039
vt 0.140588 0.954396
vt 0.337934 0.940647
vt 0.012304 0.948163
vt 0.020435 0.938483
vt 0.033590 0.944217
vt 0.952015 0.071309
vt 0.152826 0.946747
vt 0.937936 0.645631
vt 0.936570 0.634161
vt 0.949433 0.640629
vt 0.939691 0.066431
vt 0.152421 0.936202
vt 0.152826 0.959432
vt 0.948588 0.626183
vt 0.957382 0.632723
vt 0.960583 0.784072
vt 0.948348 0.789589
vt 0.948348 0.776352
vt 0.960841 0.769923
vt 0.936570 0.622257
vt 0.631489 0.834210
vt 0.645900 0.834902
vt 0.637236 0.849090
vt 0.659751 0.834889
vt 0.653848 0.819813
vt 0.623218 0.842370
vt 0.623218 0.824029
vt 0.637236 0.819414
vt 0.666708 0.825074
vt 0.868688 0.145248
vt 0.869861 0.159253
vt 0.859219 0.154454
vt 0.886837 0.564858
vt 0.882016 0.554067
vt 0.894898 0.555269
vt 0.887270 0.595596
vt 0.886313 0.581041
vt 0.897808 0.590006
vt 0.167646 0.887983
vt 0.158371 0.901155
vt 0.155720 0.887277
vt 0.666708 0.843415
vt 0.859586 0.136181
vt 0.897554 0.571939
vt 0.147384 0.911593
vt 0.135272 0.911536
vt 0.143810 0.901155
vt 0.166453 0.875203
vt 0.828463 0.821878
vt 0.830350 0.837098
vt 0.816242 0.828219
vt 0.154716 0.800115
vt 0.169467 0.802022
vt 0.161868 0.809951
vt 0.138748 0.824419
vt 0.144896 0.809752
vt 0.152482 0.824237
vt 0.154716 0.850594
vt 0.144895 0.839423
vt 0.161867 0.839622
vt 0.828463 0.853072
vt 0.816806 0.862244
vt 0.816243 0.846555
vt 0.177054 0.834845
vt 0.167623 0.824758
vt 0.802699 0.853365
vt 0.169467 0.850031
vt 0.177054 0.816507
vt 0.802699 0.823699
vt 0.816806 0.814241
vt 0.804462 0.837968
vt 0.831262 0.862483
vt 0.151891 0.875203
vt 0.142872 0.887983
vt 0.132620 0.897658
vt 0.132620 0.834324
vt 0.132620 0.815986
vt 0.906393 0.564234
vt 0.859586 0.119983
vt 0.850197 0.128737
vt 0.848351 0.118540
vt 0.848351 0.144749
vt 0.849574 0.159824
vt 0.839633 0.828607
vt 0.839633 0.846942
vt 0.906393 0.580112
vt 0.870454 0.129688
vt 0.858626 0.167821
vt 0.653848 0.849489
vt 0.658044 0.809586
vt 0.645011 0.808539
vt 0.631166 0.808940
vt 0.158833 0.911535
vt 0.876965 0.588062
vt 0.876711 0.569995
vt 0.631165 0.856956
vt 0.876805 0.143947
vt 0.645011 0.859026
s 1
usemtl mob_sapi_mat.003
f 1/1/1 2/2/2 4/3/3 3/4/4
f 3/4/4 4/3/3 6/5/5 5/6/6
f 5/7/6 6/8/5 8/9/7 7/10/8
f 7/11/8 8/12/7 10/13/9 9/14/10
f 9/14/10 10/13/9 12/15/11 11/16/12
f 11/16/12 12/15/11 14/17/13 13/18/14
f 4/19/3 2/20/2 16/21/15 14/22/13 12/23/11 10/24/9 8/25/7 6/26/5
f 13/27/14 14/28/13 16/29/15 15/30/16
f 15/30/16 16/29/15 2/31/2 1/32/1
f 1/33/1 3/34/4 5/35/6 7/36/8 9/37/10 11/38/12 13/39/14 15/40/16
f 17/41/17 18/42/18 20/43/19 19/44/20
f 19/44/20 20/43/19 22/45/21 21/46/22
f 21/47/22 22/48/21 24/49/23 23/50/24
f 23/51/24 24/52/23 26/53/25 25/54/26
f 25/54/26 26/53/25 28/55/27 27/56/28
f 27/56/28 28/55/27 30/57/29 29/58/30
f 20/59/19 18/60/18 32/61/31 30/62/29 28/63/27 26/64/25 24/65/23 22/66/21
f 29/67/30 30/68/29 32/69/31 31/70/32
f 31/70/32 32/69/31 18/71/18 17/72/17
f 17/73/17 19/74/20 21/75/22 23/76/24 25/77/26 27/78/28 29/79/30 31/80/32
f 33/81/1 34/82/2 36/83/3 35/84/4
f 35/84/4 36/83/3 38/85/5 37/86/6
f 37/87/6 38/88/5 40/89/7 39/90/8
f 39/91/8 40/92/7 42/93/9 41/94/10
f 41/94/10 42/93/9 44/95/11 43/96/12
f 43/96/12 44/95/11 46/97/13 45/98/14
f 36/99/3 34/100/2 48/101/15 46/102/13 44/103/11 42/104/9 40/105/7 38/106/5
f 45/107/14 46/108/13 48/109/15 47/110/16
f 47/110/16 48/109/15 34/111/2 33/112/1
f 33/113/1 35/114/4 37/115/6 39/116/8 41/117/10 43/118/12 45/119/14 47/120/16
f 49/121/17 50/122/18 52/123/19 51/124/20
f 51/124/20 52/123/19 54/125/21 53/126/22
f 53/127/22 54/128/21 56/129/23 55/130/24
f 55/131/24 56/132/23 58/133/25 57/134/26
f 57/134/26 58/133/25 60/135/27 59/136/28
f 59/136/28 60/135/27 62/137/29 61/138/30
f 52/139/19 50/140/18 64/141/31 62/142/29 60/143/27 58/144/25 56/145/23 54/146/21
f 61/147/30 62/148/29 64/149/31 63/150/32
f 63/150/32 64/149/31 50/151/18 49/152/17
f 49/153/17 51/154/20 53/155/22 55/156/24 57/157/26 59/158/28 61/159/30 63/160/32
f 65/161/1 66/162/2 68/163/3 67/164/4
f 67/164/4 68/163/3 70/165/5 69/166/6
f 69/167/6 70/168/5 72/169/7 71/170/8
f 71/171/8 72/172/7 74/173/9 73/174/10
f 73/174/10 74/173/9 76/175/11 75/176/33
f 75/176/33 76/175/11 78/177/13 77/178/14
f 68/179/3 66/180/2 80/181/34 78/182/13 76/183/11 74/184/9 72/185/7 70/186/5
f 77/187/14 78/188/13 80/189/34 79/190/16
f 79/190/16 80/189/34 66/191/2 65/192/1
f 65/193/1 67/194/4 69/195/6 71/196/8 73/197/10 75/198/33 77/199/14 79/200/16
f 81/201/17 82/202/18 84/203/19 83/204/20
f 83/204/20 84/203/19 86/205/21 85/206/22
f 85/207/22 86/208/21 88/209/23 87/210/24
f 87/211/24 88/212/23 90/213/25 89/214/26
f 89/214/26 90/213/25 92/215/27 91/216/28
f 91/216/28 92/215/27 94/217/29 93/218/30
f 84/219/19 82/220/18 96/221/31 94/222/29 92/223/27 90/224/25 88/225/23 86/226/21
f 93/227/30 94/228/29 96/229/31 95/230/32
f 95/230/32 96/229/31 82/231/18 81/232/17
f 81/233/17 83/234/20 85/235/22 87/236/24 89/237/26 91/238/28 93/239/30 95/240/32
f 97/241/1 98/242/2 100/243/3 99/244/4
f 99/244/4 100/243/3 102/245/5 101/246/6
f 101/247/6 102/248/5 104/249/7 103/250/8
f 103/251/8 104/252/7 106/253/9 105/254/10
f 105/254/10 106/253/9 108/255/11 107/256/33
f 107/256/33 108/255/11 110/257/13 109/258/14
f 100/259/3 98/260/2 112/261/34 110/262/13 108/263/11 106/264/9 104/265/7 102/266/5
f 109/267/14 110/268/13 112/269/34 111/270/16
f 111/270/16 112/269/34 98/271/2 97/272/1
f 97/273/1 99/274/4 101/275/6 103/276/8 105/277/10 107/278/33 109/279/14 111/280/16
f 113/281/17 114/282/18 116/283/19 115/284/20
f 115/284/20 116/283/19 118/285/21 117/286/22
f 117/287/22 118/288/21 120/289/23 119/290/24
f 119/291/24 120/292/23 122/293/25 121/294/26
f 121/294/26 122/293/25 124/295/27 123/296/28
f 123/296/28 124/295/27 126/297/29 125/298/30
f 116/299/19 114/300/18 128/301/31 126/302/29 124/303/27 122/304/25 120/305/23 118/306/21
f 125/307/30 126/308/29 128/309/31 127/310/32
f 127/310/32 128/309/31 114/311/18 113/312/17
f 113/313/17 115/314/20 117/315/22 119/316/24 121/317/26 123/318/28 125/319/30 127/320/32
f 129/321/35 144/322/36 143/323/37
f 130/324/38 146/325/39 152/326/40
f 129/321/35 143/323/37 158/327/41
f 129/321/35 158/327/41 164/328/42
f 129/321/35 164/328/42 153/329/43
f 130/324/38 152/326/40 173/330/44
f 131/331/45 149/332/46 179/333/47
f 132/334/48 161/335/49 185/336/50
f 133/337/51 167/338/52 191/339/53
f 134/340/54 170/341/55 197/342/56
f 130/324/38 173/330/44 180/343/57
f 131/331/45 179/333/47 186/344/58
f 132/334/48 185/336/50 192/345/59
f 133/337/51 191/339/53 198/346/60
f 134/340/54 197/342/56 174/347/61
f 135/348/62 203/349/63 218/350/64
f 136/351/65 206/352/66 224/353/67
f 137/354/68 209/355/69 227/356/70
f 138/357/71 212/358/72 230/359/73
f 139/360/74 215/361/75 219/362/76
f 221/363/77 228/364/78 140/365/79
f 220/366/80 231/367/81 221/368/77
f 219/362/76 232/369/82 220/366/80
f 221/368/77 231/367/81 228/370/78
f 231/371/81 229/372/83 228/364/78
f 220/366/80 232/369/82 231/367/81
f 232/369/82 233/373/84 231/367/81
f 231/367/81 233/373/84 229/374/83
f 233/375/84 230/359/73 229/372/83
f 219/362/76 215/361/75 232/369/82
f 215/361/75 214/376/85 232/369/82
f 232/369/82 214/376/85 233/373/84
f 214/376/85 213/377/86 233/373/84
f 233/373/84 213/377/86 230/378/73
f 213/379/86 138/380/71 230/381/73
f 228/364/78 225/382/87 140/365/79
f 229/372/83 234/383/88 228/364/78
f 230/359/73 235/384/89 229/372/83
f 228/364/78 234/383/88 225/382/87
f 234/383/88 226/385/90 225/382/87
f 229/372/83 235/384/89 234/383/88
f 235/384/89 236/386/91 234/383/88
f 234/383/88 236/386/91 226/385/90
f 236/386/91 227/356/70 226/385/90
f 230/359/73 212/358/72 235/384/89
f 212/358/72 211/387/92 235/384/89
f 235/384/89 211/387/92 236/386/91
f 211/387/92 210/388/93 236/386/91
f 236/386/91 210/388/93 227/356/70
f 210/388/93 137/354/68 227/356/70
f 225/382/87 222/389/94 140/365/79
f 226/385/90 237/390/95 225/382/87
f 227/356/70 238/391/96 226/385/90
f 225/382/87 237/390/95 222/389/94
f 237/390/95 223/392/97 222/389/94
f 226/385/90 238/391/96 237/390/95
f 238/391/96 239/393/98 237/390/95
f 237/390/95 239/393/98 223/392/97
f 239/393/98 224/394/67 223/392/97
f 227/356/70 209/355/69 238/391/96
f 209/355/69 208/395/99 238/391/96
f 238/391/96 208/395/99 239/393/98
f 208/395/99 207/396/100 239/393/98
f 239/393/98 207/396/100 224/394/67
f 207/396/100 136/397/65 224/394/67
f 222/389/94 216/398/101 140/365/79
f 223/392/97 240/399/102 222/389/94
f 224/394/67 241/400/103 223/392/97
f 222/389/94 240/399/102 216/398/101
f 240/401/102 217/402/104 216/403/101
f 223/392/97 241/400/103 240/399/102
f 241/400/103 242/404/105 240/399/102
f 240/401/102 242/405/105 217/402/104
f 242/405/105 218/350/64 217/402/104
f 224/394/67 206/406/66 241/400/103
f 206/352/66 205/407/106 241/408/103
f 241/409/103 205/410/106 242/405/105
f 205/410/106 204/411/107 242/405/105
f 242/405/105 204/411/107 218/350/64
f 204/411/107 135/348/62 218/350/64
f 216/403/101 221/368/77 140/412/79
f 217/402/104 243/413/108 216/403/101
f 218/350/64 244/414/109 217/402/104
f 216/403/101 243/413/108 221/368/77
f 243/413/108 220/366/80 221/368/77
f 217/402/104 244/414/109 243/413/108
f 244/414/109 245/415/110 243/413/108
f 243/413/108 245/415/110 220/366/80
f 245/415/110 219/362/76 220/366/80
f 218/350/64 203/349/63 244/414/109
f 203/349/63 202/416/111 244/414/109
f 244/414/109 202/416/111 245/415/110
f 202/416/111 201/417/112 245/415/110
f 245/415/110 201/417/112 219/362/76
f 201/417/112 139/360/74 219/362/76
f 176/418/113 215/361/75 139/360/74
f 175/419/114 246/420/115 176/418/113
f 174/347/61 247/421/116 175/422/114
f 176/418/113 246/420/115 215/361/75
f 246/420/115 214/376/85 215/361/75
f 175/422/114 247/421/116 246/423/115
f 247/421/116 248/424/117 246/423/115
f 246/423/115 248/424/117 214/425/85
f 248/424/117 213/379/86 214/425/85
f 174/347/61 197/342/56 247/421/116
f 197/342/56 196/426/118 247/421/116
f 247/421/116 196/426/118 248/424/117
f 196/426/118 195/427/119 248/424/117
f 248/424/117 195/427/119 213/379/86
f 195/427/119 138/380/71 213/379/86
f 200/428/120 212/429/72 138/380/71
f 199/430/121 249/431/122 200/428/120
f 198/432/60 250/433/123 199/430/121
f 200/428/120 249/431/122 212/429/72
f 249/434/122 211/387/92 212/358/72
f 199/430/121 250/433/123 249/431/122
f 250/435/123 251/436/124 249/434/122
f 249/434/122 251/436/124 211/387/92
f 251/436/124 210/388/93 211/387/92
f 198/346/60 191/339/53 250/437/123
f 191/339/53 190/438/125 250/437/123
f 250/437/123 190/438/125 251/439/124
f 190/438/125 189/440/126 251/439/124
f 251/436/124 189/441/126 210/388/93
f 189/441/126 137/354/68 210/388/93
f 194/442/127 209/443/69 137/444/68
f 193/445/128 252/446/129 194/442/127
f 192/345/59 253/447/130 193/445/128
f 194/442/127 252/446/129 209/443/69
f 252/448/129 208/395/99 209/355/69
f 193/445/128 253/447/130 252/446/129
f 253/447/130 254/449/131 252/446/129
f 252/446/129 254/449/131 208/450/99
f 254/451/131 207/396/100 208/395/99
f 192/345/59 185/336/50 253/447/130
f 185/336/50 184/452/132 253/447/130
f 253/447/130 184/452/132 254/449/131
f 184/452/132 183/453/133 254/449/131
f 254/449/131 183/453/133 207/454/100
f 183/455/133 136/351/65 207/456/100
f 188/457/134 206/352/66 136/351/65
f 187/458/135 255/459/136 188/457/134
f 186/344/58 256/460/137 187/458/135
f 188/457/134 255/459/136 206/352/66
f 255/459/136 205/407/106 206/352/66
f 187/458/135 256/460/137 255/459/136
f 256/460/137 257/461/138 255/459/136
f 255/459/136 257/461/138 205/407/106
f 257/461/138 204/462/107 205/407/106
f 186/344/58 179/333/47 256/460/137
f 179/333/47 178/463/139 256/460/137
f 256/460/137 178/463/139 257/461/138
f 178/463/139 177/464/140 257/461/138
f 257/461/138 177/464/140 204/462/107
f 177/465/140 135/348/62 204/411/107
f 182/466/141 203/349/63 135/348/62
f 181/467/142 258/468/143 182/466/141
f 180/343/57 259/469/144 181/470/142
f 182/466/141 258/468/143 203/349/63
f 258/468/143 202/416/111 203/349/63
f 181/467/142 259/471/144 258/468/143
f 259/471/144 260/472/145 258/468/143
f 258/468/143 260/472/145 202/416/111
f 260/472/145 201/417/112 202/416/111
f 180/343/57 173/330/44 259/469/144
f 173/330/44 172/473/146 259/469/144
f 259/471/144 172/474/146 260/472/145
f 172/474/146 171/475/147 260/472/145
f 260/472/145 171/475/147 201/417/112
f 171/475/147 139/360/74 201/417/112
f 195/427/119 200/428/120 138/380/71
f 196/426/118 261/476/148 195/427/119
f 197/342/56 262/477/149 196/426/118
f 195/427/119 261/476/148 200/428/120
f 261/476/148 199/430/121 200/428/120
f 196/426/118 262/477/149 261/476/148
f 262/477/149 263/478/150 261/476/148
f 261/476/148 263/478/150 199/430/121
f 263/478/150 198/432/60 199/430/121
f 197/342/56 170/341/55 262/477/149
f 170/341/55 169/479/151 262/477/149
f 262/477/149 169/479/151 263/478/150
f 169/479/151 168/480/152 263/478/150
f 263/478/150 168/480/152 198/432/60
f 168/480/152 133/481/51 198/432/60
f 189/440/126 194/442/127 137/444/68
f 190/438/125 264/482/153 189/440/126
f 191/339/53 265/483/154 190/438/125
f 189/440/126 264/482/153 194/442/127
f 264/482/153 193/445/128 194/442/127
f 190/438/125 265/483/154 264/482/153
f 265/483/154 266/484/155 264/482/153
f 264/482/153 266/484/155 193/445/128
f 266/484/155 192/345/59 193/445/128
f 191/339/53 167/338/52 265/483/154
f 167/338/52 166/485/156 265/483/154
f 265/483/154 166/485/156 266/484/155
f 166/485/156 165/486/157 266/484/155
f 266/484/155 165/486/157 192/345/59
f 165/486/157 132/334/48 192/345/59
f 183/455/133 188/457/134 136/351/65
f 184/452/132 267/487/158 183/453/133
f 185/336/50 268/488/159 184/452/132
f 183/455/133 267/489/158 188/457/134
f 267/489/158 187/458/135 188/457/134
f 184/452/132 268/488/159 267/487/158
f 268/490/159 269/491/160 267/489/158
f 267/489/158 269/491/160 187/458/135
f 269/491/160 186/344/58 187/458/135
f 185/336/50 161/335/49 268/488/159
f 161/335/49 160/492/161 268/488/159
f 268/490/159 160/493/161 269/491/160
f 160/493/161 159/494/162 269/491/160
f 269/491/160 159/494/162 186/344/58
f 159/494/162 131/331/45 186/344/58
f 177/465/140 182/466/141 135/348/62
f 178/463/139 270/495/163 177/464/140
f 179/333/47 271/496/164 178/463/139
f 177/465/140 270/497/163 182/466/141
f 270/497/163 181/467/142 182/466/141
f 178/463/139 271/496/164 270/495/163
f 271/498/164 272/499/165 270/500/163
f 270/500/163 272/499/165 181/470/142
f 272/499/165 180/343/57 181/470/142
f 179/333/47 149/332/46 271/496/164
f 149/501/46 148/502/166 271/498/164
f 271/498/164 148/502/166 272/499/165
f 148/502/166 147/503/167 272/499/165
f 272/499/165 147/503/167 180/343/57
f 147/503/167 130/324/38 180/343/57
f 171/475/147 176/418/113 139/360/74
f 172/474/146 273/504/168 171/475/147
f 173/330/44 274/505/169 172/473/146
f 171/475/147 273/504/168 176/418/113
f 273/504/168 175/419/114 176/418/113
f 172/473/146 274/505/169 273/506/168
f 274/505/169 275/507/170 273/506/168
f 273/506/168 275/507/170 175/508/114
f 275/507/170 174/509/61 175/508/114
f 173/330/44 152/326/40 274/505/169
f 152/326/40 151/510/171 274/505/169
f 274/505/169 151/510/171 275/507/170
f 151/510/171 150/511/172 275/507/170
f 275/507/170 150/511/172 174/509/61
f 150/511/172 134/512/54 174/509/61
f 155/513/173 170/514/55 134/512/54
f 154/515/174 276/516/175 155/513/173
f 153/329/43 277/517/176 154/515/174
f 155/513/173 276/516/175 170/514/55
f 276/518/175 169/479/151 170/341/55
f 154/515/174 277/517/176 276/516/175
f 277/517/176 278/519/177 276/516/175
f 276/516/175 278/519/177 169/520/151
f 278/521/177 168/480/152 169/479/151
f 153/329/43 164/328/42 277/517/176
f 164/328/42 163/522/178 277/517/176
f 277/517/176 163/522/178 278/519/177
f 163/522/178 162/523/179 278/519/177
f 278/521/177 162/524/179 168/480/152
f 162/525/179 133/337/51 168/526/152
f 162/525/179 167/338/52 133/337/51
f 163/527/178 279/528/180 162/525/179
f 164/328/42 280/529/181 163/522/178
f 162/525/179 279/528/180 167/338/52
f 279/528/180 166/485/156 167/338/52
f 163/527/178 280/530/181 279/528/180
f 280/530/181 281/531/182 279/528/180
f 279/528/180 281/531/182 166/485/156
f 281/531/182 165/486/157 166/485/156
f 164/328/42 158/327/41 280/529/181
f 158/532/41 157/533/183 280/530/181
f 280/530/181 157/533/183 281/531/182
f 157/533/183 156/534/184 281/531/182
f 281/531/182 156/534/184 165/486/157
f 156/534/184 132/334/48 165/486/157
f 156/534/184 161/335/49 132/334/48
f 157/533/183 282/535/185 156/534/184
f 158/327/41 283/536/186 157/537/183
f 156/534/184 282/535/185 161/335/49
f 282/535/185 160/492/161 161/335/49
f 157/533/183 283/538/186 282/535/185
f 283/538/186 284/539/187 282/535/185
f 282/535/185 284/539/187 160/492/161
f 284/540/187 159/494/162 160/493/161
f 158/327/41 143/323/37 283/536/186
f 143/323/37 142/541/188 283/536/186
f 283/536/186 142/541/188 284/542/187
f 142/541/188 141/543/189 284/542/187
f 284/540/187 141/544/189 159/494/162
f 141/544/189 131/331/45 159/494/162
f 150/511/172 155/513/173 134/512/54
f 151/510/171 285/545/190 150/511/172
f 152/326/40 286/546/191 151/510/171
f 150/511/172 285/545/190 155/513/173
f 285/545/190 154/515/174 155/513/173
f 151/510/171 286/546/191 285/545/190
f 286/546/191 287/547/192 285/545/190
f 285/545/190 287/547/192 154/515/174
f 287/547/192 153/329/43 154/515/174
f 152/326/40 146/325/39 286/546/191
f 146/325/39 145/548/193 286/546/191
f 286/546/191 145/548/193 287/547/192
f 145/548/193 144/322/36 287/547/192
f 287/547/192 144/322/36 153/329/43
f 144/322/36 129/321/35 153/329/43
f 141/544/189 149/332/46 131/331/45
f 142/541/188 288/549/194 141/543/189
f 143/323/37 289/550/195 142/541/188
f 141/543/189 288/549/194 149/501/46
f 288/549/194 148/502/166 149/501/46
f 142/541/188 289/550/195 288/549/194
f 289/550/195 290/551/196 288/549/194
f 288/549/194 290/551/196 148/502/166
f 290/551/196 147/503/167 148/502/166
f 143/323/37 144/322/36 289/550/195
f 144/322/36 145/548/193 289/550/195
f 289/550/195 145/548/193 290/551/196
f 145/548/193 146/325/39 290/551/196
f 290/551/196 146/325/39 147/503/167
f 146/325/39 130/324/38 147/503/167
f 291/552/197 304/553/198 303/554/199
f 292/555/200 304/553/198 306/556/201
f 291/552/197 303/554/199 308/557/202
f 291/552/197 308/557/202 310/558/203
f 291/552/197 310/558/203 307/559/204
f 292/555/200 306/556/201 313/560/205
f 293/561/206 305/562/207 315/563/139
f 294/564/208 309/565/209 317/566/210
f 295/567/211 311/568/212 319/569/213
f 296/570/214 312/571/215 321/572/216
f 292/555/200 313/560/205 316/573/217
f 293/561/206 315/563/139 318/574/218
f 294/564/208 317/566/210 320/575/219
f 295/576/211 319/577/213 322/578/121
f 296/570/214 321/572/216 314/579/220
f 297/580/221 323/581/222 328/582/223
f 298/583/224 324/584/225 330/585/226
f 299/586/227 325/587/228 331/588/229
f 300/589/230 326/590/231 332/591/232
f 301/592/233 327/593/234 329/594/235
f 329/595/235 332/591/232 302/596/236
f 329/594/235 327/593/234 332/597/232
f 327/598/234 300/589/230 332/591/232
f 332/591/232 331/588/229 302/596/236
f 332/591/232 326/590/231 331/588/229
f 326/590/231 299/586/227 331/588/229
f 331/588/229 330/585/226 302/596/236
f 331/588/229 325/587/228 330/585/226
f 325/587/228 298/583/224 330/585/226
f 330/585/226 328/599/223 302/596/236
f 330/600/226 324/601/225 328/582/223
f 324/601/225 297/580/221 328/582/223
f 328/582/223 329/594/235 302/602/236
f 328/582/223 323/581/222 329/594/235
f 323/581/222 301/592/233 329/594/235
f 314/603/220 327/593/234 301/592/233
f 314/579/220 321/572/216 327/604/234
f 321/572/216 300/605/230 327/604/234
f 322/578/121 326/606/231 300/605/230
f 322/578/121 319/577/213 326/606/231
f 319/607/213 299/586/227 326/590/231
f 320/608/219 325/587/228 299/586/227
f 320/575/219 317/566/210 325/609/228
f 317/610/210 298/611/224 325/612/228
f 318/574/218 324/613/225 298/611/224
f 318/574/218 315/563/139 324/613/225
f 315/563/139 297/614/221 324/613/225
f 316/615/217 323/581/222 297/580/221
f 316/615/217 313/616/205 323/581/222
f 313/616/205 301/592/233 323/581/222
f 321/572/216 322/578/121 300/605/230
f 321/572/216 312/571/215 322/578/121
f 312/571/215 295/576/211 322/578/121
f 319/569/213 320/575/219 299/617/227
f 319/569/213 311/568/212 320/575/219
f 311/568/212 294/564/208 320/575/219
f 317/610/210 318/574/218 298/611/224
f 317/610/210 309/618/209 318/574/218
f 309/618/209 293/561/206 318/574/218
f 315/563/139 316/619/217 297/614/221
f 315/563/139 305/562/207 316/619/217
f 305/620/207 292/555/200 316/573/217
f 313/616/205 314/603/220 301/592/233
f 313/560/205 306/556/201 314/621/220
f 306/556/201 296/622/214 314/621/220
f 307/559/204 312/623/215 296/622/214
f 307/559/204 310/558/203 312/623/215
f 310/624/203 295/576/211 312/571/215
f 310/625/203 311/568/212 295/567/211
f 310/625/203 308/626/202 311/568/212
f 308/626/202 294/564/208 311/568/212
f 308/626/202 309/565/209 294/564/208
f 308/557/202 303/554/199 309/627/209
f 303/554/199 293/628/206 309/627/209
f 306/556/201 307/559/204 296/622/214
f 306/556/201 304/553/198 307/559/204
f 304/553/198 291/552/197 307/559/204
f 303/554/199 305/620/207 293/628/206
f 303/554/199 304/553/198 305/620/207
f 304/553/198 292/555/200 305/620/207
f 333/629/197 346/630/198 345/631/199
f 334/632/200 346/630/198 348/633/201
f 333/629/197 345/631/199 350/634/202
f 333/629/197 350/634/202 352/635/203
f 333/629/197 352/635/203 349/636/204
f 334/632/200 348/633/201 355/637/205
f 335/638/206 347/639/207 357/640/139
f 336/641/208 351/642/209 359/643/210
f 337/644/211 353/645/212 361/646/213
f 338/647/214 354/648/215 363/649/216
f 334/632/200 355/637/205 358/650/217
f 335/638/206 357/640/139 360/651/218
f 336/641/208 359/643/210 362/652/219
f 337/653/211 361/654/213 364/655/121
f 338/647/214 363/649/216 356/656/220
f 339/657/221 365/658/222 370/659/223
f 340/660/224 366/661/225 372/662/226
f 341/663/227 367/664/228 373/665/229
f 342/666/230 368/667/231 374/668/232
f 343/669/233 369/670/234 371/671/235
f 371/672/235 374/668/232 344/673/236
f 371/671/235 369/670/234 374/674/232
f 369/675/234 342/666/230 374/668/232
f 374/668/232 373/665/229 344/673/236
f 374/668/232 368/667/231 373/665/229
f 368/667/231 341/663/227 373/665/229
f 373/665/229 372/662/226 344/673/236
f 373/665/229 367/664/228 372/662/226
f 367/664/228 340/660/224 372/662/226
f 372/662/226 370/676/223 344/673/236
f 372/677/226 366/678/225 370/659/223
f 366/678/225 339/657/221 370/659/223
f 370/659/223 371/671/235 344/679/236
f 370/659/223 365/658/222 371/671/235
f 365/658/222 343/669/233 371/671/235
f 356/680/220 369/670/234 343/669/233
f 356/656/220 363/649/216 369/681/234
f 363/649/216 342/682/230 369/681/234
f 364/655/121 368/683/231 342/682/230
f 364/655/121 361/654/213 368/683/231
f 361/684/213 341/663/227 368/667/231
f 362/685/219 367/664/228 341/663/227
f 362/652/219 359/643/210 367/686/228
f 359/687/210 340/688/224 367/689/228
f 360/651/218 366/690/225 340/688/224
f 360/651/218 357/640/139 366/690/225
f 357/640/139 339/691/221 366/690/225
f 358/692/217 365/658/222 339/657/221
f 358/692/217 355/693/205 365/658/222
f 355/693/205 343/669/233 365/658/222
f 363/649/216 364/655/121 342/682/230
f 363/649/216 354/648/215 364/655/121
f 354/648/215 337/653/211 364/655/121
f 361/646/213 362/652/219 341/694/227
f 361/646/213 353/645/212 362/652/219
f 353/645/212 336/641/208 362/652/219
f 359/687/210 360/651/218 340/688/224
f 359/687/210 351/695/209 360/651/218
f 351/695/209 335/638/206 360/651/218
f 357/640/139 358/696/217 339/691/221
f 357/640/139 347/639/207 358/696/217
f 347/697/207 334/632/200 358/650/217
f 355/693/205 356/680/220 343/669/233
f 355/637/205 348/633/201 356/698/220
f 348/633/201 338/699/214 356/698/220
f 349/636/204 354/700/215 338/699/214
f 349/636/204 352/635/203 354/700/215
f 352/701/203 337/653/211 354/648/215
f 352/702/203 353/645/212 337/644/211
f 352/702/203 350/703/202 353/645/212
f 350/703/202 336/641/208 353/645/212
f 350/703/202 351/642/209 336/641/208
f 350/634/202 345/631/199 351/704/209
f 345/631/199 335/705/206 351/704/209
f 348/633/201 349/636/204 338/699/214
f 348/633/201 346/630/198 349/636/204
f 346/630/198 333/629/197 349/636/204
f 345/631/199 347/697/207 335/705/206
f 345/631/199 346/630/198 347/697/207
f 346/630/198 334/632/200 347/697/207
f 375/706/237 388/707/238 387/708/239
f 376/709/240 388/707/238 390/710/241
f 375/706/237 387/708/239 392/711/242
f 375/706/237 392/711/242 394/712/243
f 375/706/237 394/712/243 391/713/244
f 376/709/240 390/710/241 397/714/245
f 377/715/246 389/716/247 399/717/139
f 378/718/248 393/719/249 401/720/250
f 379/721/251 395/722/252 403/723/253
f 380/724/254 396/725/255 405/726/256
f 376/709/240 397/714/245 400/727/257
f 377/715/246 399/717/139 402/728/258
f 378/718/248 401/720/250 404/729/259
f 379/730/251 403/731/253 406/732/121
f 380/724/254 405/726/256 398/733/260
f 381/734/261 407/735/262 412/736/263
f 382/737/264 408/738/265 414/739/266
f 383/740/267 409/741/268 415/742/269
f 384/743/270 410/744/271 416/745/272
f 385/746/273 411/747/274 413/748/275
f 413/748/275 416/749/272 386/750/276
f 413/748/275 411/747/274 416/749/272
f 411/751/274 384/752/270 416/753/272
f 416/745/272 415/742/269 386/754/276
f 416/745/272 410/744/271 415/742/269
f 410/744/271 383/740/267 415/742/269
f 415/742/269 414/755/266 386/754/276
f 415/742/269 409/741/268 414/755/266
f 409/741/268 382/756/264 414/755/266
f 414/757/266 412/736/263 386/750/276
f 414/757/266 408/758/265 412/736/263
f 408/758/265 381/734/261 412/736/263
f 412/736/263 413/748/275 386/750/276
f 412/736/263 407/735/262 413/748/275
f 407/735/262 385/746/273 413/748/275
f 398/759/260 411/747/274 385/746/273
f 398/733/260 405/726/256 411/751/274
f 405/726/256 384/752/270 411/751/274
f 406/732/121 410/760/271 384/752/270
f 406/732/121 403/731/253 410/760/271
f 403/761/253 383/740/267 410/744/271
f 404/729/259 409/762/268 383/763/267
f 404/729/259 401/720/250 409/762/268
f 401/764/250 382/737/264 409/765/268
f 402/728/258 408/738/265 382/737/264
f 402/728/258 399/717/139 408/738/265
f 399/717/139 381/766/261 408/738/265
f 400/767/257 407/735/262 381/734/261
f 400/767/257 397/768/245 407/735/262
f 397/768/245 385/746/273 407/735/262
f 405/726/256 406/732/121 384/752/270
f 405/726/256 396/725/255 406/732/121
f 396/725/255 379/730/251 406/732/121
f 403/723/253 404/729/259 383/763/267
f 403/723/253 395/722/252 404/729/259
f 395/722/252 378/718/248 404/729/259
f 401/764/250 402/728/258 382/737/264
f 401/764/250 393/769/249 402/728/258
f 393/769/249 377/715/246 402/728/258
f 399/717/139 400/770/257 381/766/261
f 399/717/139 389/716/247 400/770/257
f 389/771/247 376/709/240 400/727/257
f 397/768/245 398/759/260 385/746/273
f 397/714/245 390/710/241 398/772/260
f 390/710/241 380/773/254 398/772/260
f 391/774/244 396/725/255 380/724/254
f 391/774/244 394/775/243 396/725/255
f 394/775/243 379/730/251 396/725/255
f 394/776/243 395/722/252 379/721/251
f 394/776/243 392/777/242 395/722/252
f 392/777/242 378/718/248 395/722/252
f 392/777/242 393/719/249 378/718/248
f 392/778/242 387/779/239 393/769/249
f 387/779/239 377/715/246 393/769/249
f 390/710/241 391/713/244 380/773/254
f 390/710/241 388/707/238 391/713/244
f 388/707/238 375/706/237 391/713/244
f 387/708/239 389/771/247 377/780/246
f 387/708/239 388/707/238 389/771/247
f 388/707/238 376/709/240 389/771/247
f 417/781/277 430/782/278 429/783/279
f 418/784/280 430/782/278 432/785/281
f 417/781/277 429/783/279 434/786/282
f 417/781/277 434/786/282 436/787/283
f 417/781/277 436/787/283 433/788/284
f 418/784/280 432/785/281 439/789/285
f 419/790/286 431/791/287 441/792/139
f 420/793/288 435/794/289 443/795/290
f 421/796/291 437/797/292 445/798/293
f 422/799/294 438/800/295 447/801/296
f 418/784/280 439/789/285 442/802/297
f 419/790/286 441/792/139 444/803/298
f 420/804/288 443/805/290 446/806/299
f 421/807/291 445/808/293 448/809/121
f 422/799/294 447/801/296 440/810/300
f 423/811/301 449/812/302 454/813/303
f 424/814/304 450/815/305 456/816/306
f 425/817/307 451/818/308 457/819/309
f 426/820/310 452/821/311 458/822/312
f 427/823/313 453/824/314 455/825/315
f 455/826/315 458/822/312 428/827/316
f 455/825/315 453/824/314 458/828/312
f 453/829/314 426/830/310 458/831/312
f 458/822/312 457/819/309 428/827/316
f 458/822/312 452/821/311 457/819/309
f 452/821/311 425/817/307 457/819/309
f 457/819/309 456/832/306 428/827/316
f 457/819/309 451/818/308 456/832/306
f 451/818/308 424/833/304 456/832/306
f 456/834/306 454/813/303 428/835/316
f 456/834/306 450/836/305 454/813/303
f 450/836/305 423/811/301 454/813/303
f 454/813/303 455/825/315 428/835/316
f 454/813/303 449/812/302 455/825/315
f 449/812/302 427/823/313 455/825/315
f 440/810/300 453/829/314 427/837/313
f 440/810/300 447/801/296 453/829/314
f 447/801/296 426/830/310 453/829/314
f 448/809/121 452/838/311 426/830/310
f 448/809/121 445/808/293 452/838/311
f 445/839/293 425/817/307 452/821/311
f 446/806/299 451/840/308 425/841/307
f 446/806/299 443/805/290 451/840/308
f 443/795/290 424/814/304 451/842/308
f 444/803/298 450/815/305 424/814/304
f 444/803/298 441/792/139 450/815/305
f 441/792/139 423/843/301 450/815/305
f 442/844/297 449/812/302 423/811/301
f 442/844/297 439/845/285 449/812/302
f 439/845/285 427/823/313 449/812/302
f 447/801/296 448/809/121 426/830/310
f 447/801/296 438/800/295 448/809/121
f 438/800/295 421/807/291 448/809/121
f 445/798/293 446/806/299 425/841/307
f 445/798/293 437/797/292 446/806/299
f 437/797/292 420/804/288 446/806/299
f 443/795/290 444/803/298 424/814/304
f 443/795/290 435/794/289 444/803/298
f 435/794/289 419/790/286 444/803/298
f 441/792/139 442/846/297 423/843/301
f 441/792/139 431/791/287 442/846/297
f 431/847/287 418/784/280 442/802/297
f 439/845/285 440/848/300 427/823/313
f 439/789/285 432/785/281 440/849/300
f 432/850/281 422/799/294 440/810/300
f 433/851/284 438/800/295 422/799/294
f 433/851/284 436/852/283 438/800/295
f 436/852/283 421/807/291 438/800/295
f 436/853/283 437/797/292 421/796/291
f 436/853/283 434/854/282 437/797/292
f 434/854/282 420/804/288 437/797/292
f 434/854/282 435/855/289 420/804/288
f 434/786/282 429/783/279 435/856/289
f 429/857/279 419/790/286 435/794/289
f 432/785/281 433/788/284 422/858/294
f 432/785/281 430/782/278 433/788/284
f 430/782/278 417/781/277 433/788/284
f 429/857/279 431/791/287 419/790/286
f 429/783/279 430/782/278 431/847/287
f 430/782/278 418/784/280 431/847/287
f 459/859/237 460/860/317 461/861/318
f 460/860/317 459/859/237 464/862/319
f 459/863/237 461/864/318 462/865/320
f 459/866/237 462/867/320 463/868/321
f 459/869/237 463/870/321 464/871/319
f 460/860/317 464/862/319 469/872/322
f 461/864/318 460/873/317 465/874/323
f 462/865/320 461/864/318 466/875/324
f 463/868/321 462/867/320 467/876/325
f 464/871/319 463/870/321 468/877/326
f 460/878/317 469/879/322 465/880/323
f 461/864/318 465/874/323 466/875/324
f 462/867/320 466/881/324 467/876/325
f 463/870/321 467/882/325 468/877/326
f 464/871/319 468/877/326 469/883/322
f 465/880/323 469/879/322 470/884/276
f 466/885/324 465/880/323 470/884/276
f 467/886/325 466/887/324 470/888/276
f 468/889/326 467/886/325 470/888/276
f 469/879/322 468/890/326 470/884/276
f 471/891/237 472/892/317 473/893/318
f 472/892/317 471/891/237 476/894/319
f 471/895/237 473/896/318 474/897/320
f 471/898/237 474/899/320 475/900/321
f 471/901/237 475/902/321 476/903/319
f 472/892/317 476/894/319 481/904/322
f 473/896/318 472/905/317 477/906/323
f 474/897/320 473/896/318 478/907/324
f 475/900/321 474/899/320 479/908/325
f 476/903/319 475/902/321 480/909/326
f 472/910/317 481/911/322 477/912/323
f 473/896/318 477/906/323 478/907/324
f 474/899/320 478/913/324 479/908/325
f 475/902/321 479/914/325 480/909/326
f 476/903/319 480/909/326 481/915/322
f 477/912/323 481/911/322 482/916/276
f 478/917/324 477/912/323 482/916/276
f 479/918/325 478/919/324 482/920/276
f 480/921/326 479/918/325 482/920/276
f 481/911/322 480/922/326 482/916/276
f 483/923/327 484/924/328 486/925/329 485/926/330
f 485/927/330 486/928/329 488/929/331 487/930/332
f 487/931/332 488/932/331 490/933/333 489/934/334
f 489/934/334 490/933/333 492/935/335 491/936/336
f 486/937/329 484/938/328 494/939/337 492/935/335 490/933/333 488/932/331
f 491/940/336 492/941/335 494/942/337 493/943/338
f 493/944/338 494/945/337 484/946/328 483/947/327
f 483/948/327 485/949/330 487/950/332 489/951/334 491/952/336 493/953/338
f 495/954/339 496/955/340 498/956/341 497/957/342
f 497/958/342 498/959/341 500/960/343 499/961/344
f 499/961/344 500/960/343 502/962/345 501/963/346
f 501/964/346 502/965/345 504/966/347 503/967/348
f 498/968/341 496/969/340 506/970/349 504/971/347 502/972/345 500/973/343
f 503/974/348 504/975/347 506/976/349 505/977/350
f 505/978/350 506/970/349 496/969/340 495/979/339
f 495/980/339 497/981/342 499/982/344 501/983/346 503/984/348 505/985/350
f 507/986/351 508/987/352 510/988/353 509/989/354
f 509/989/354 510/988/353 512/990/355 511/991/356
f 511/992/356 512/993/355 514/994/357 513/995/358
f 513/995/358 514/994/357 516/996/359 515/997/360
f 515/997/360 516/996/359 518/998/361 517/999/362
f 510/1000/353 508/1001/352 520/1002/363 518/1003/361 516/1004/359 514/1005/357 512/1006/355
f 517/1007/362 518/1003/361 520/1002/363 519/1008/364
f 519/1008/364 520/1002/363 508/1001/352 507/1009/351
f 507/1010/351 509/1011/354 511/1012/356 513/1013/358 515/1014/360 517/1015/362 519/1016/364
f 521/1017/365 522/1018/366 524/1019/367 523/1020/368
f 523/1021/368 524/1022/367 526/1023/369 525/1024/370
f 525/1024/370 526/1023/369 528/1025/371 527/1026/372
f 527/1027/372 528/1028/371 530/1029/373 529/1030/374
f 529/1031/374 530/1032/373 532/1033/375 531/1034/376
f 524/1035/367 522/1036/366 534/1037/377 532/1033/375 530/1032/373 528/1038/371 526/1039/369
f 531/1040/376 532/1041/375 534/1042/377 533/1043/378
f 533/1044/378 534/1045/377 522/1018/366 521/1017/365
f 521/1046/365 523/1047/368 525/1048/370 527/1049/372 529/1050/374 531/1051/376 533/1052/378
f 535/1053/237 536/1054/317 537/1055/379
f 536/1054/317 535/1053/237 540/1056/319
f 535/1057/237 537/1058/379 538/1059/320
f 535/1060/237 538/1061/320 539/1062/380
f 535/1063/237 539/1064/380 540/1065/319
f 536/1054/317 540/1056/319 545/1066/322
f 537/1058/379 536/1067/317 541/1068/381
f 538/1059/320 537/1058/379 542/1069/324
f 539/1062/380 538/1061/320 543/1070/325
f 540/1065/319 539/1064/380 544/1071/382
f 536/1072/317 545/1073/322 541/1074/381
f 537/1058/379 541/1068/381 542/1069/324
f 538/1061/320 542/1075/324 543/1070/325
f 539/1064/380 543/1076/325 544/1071/382
f 540/1065/319 544/1071/382 545/1077/322
f 541/1074/381 545/1073/322 546/1078/276
f 542/1079/324 541/1074/381 546/1078/276
f 543/1080/325 542/1081/324 546/1082/276
f 544/1083/382 543/1080/325 546/1082/276
f 545/1073/322 544/1084/382 546/1078/276
f 547/1085/237 548/1086/317 549/1087/318
f 548/1086/317 547/1085/237 552/1088/319
f 547/1089/237 549/1090/318 550/1091/320
f 547/1092/237 550/1093/320 551/1094/321
f 547/1095/237 551/1096/321 552/1097/319
f 548/1086/317 552/1088/319 557/1098/322
f 549/1090/318 548/1099/317 553/1100/381
f 550/1091/320 549/1090/318 554/1101/324
f 551/1094/321 550/1093/320 555/1102/325
f 552/1097/319 551/1096/321 556/1103/382
f 548/1104/317 557/1105/322 553/1106/381
f 549/1090/318 553/1100/381 554/1101/324
f 550/1093/320 554/1107/324 555/1102/325
f 551/1096/321 555/1108/325 556/1103/382
f 552/1097/319 556/1103/382 557/1109/322
f 553/1106/381 557/1105/322 558/1110/276
f 554/1111/324 553/1106/381 558/1110/276
f 555/1112/325 554/1113/324 558/1114/276
f 556/1115/382 555/1112/325 558/1114/276
f 557/1105/322 556/1116/382 558/1110/276
f 559/1117/383 560/1118/384 562/1119/385 561/1120/386
f 561/1121/386 562/1122/385 564/1123/387 563/1124/388
f 563/1125/388 564/1126/387 566/1127/389 565/1128/390
f 565/1129/390 566/1130/389 568/1131/391 567/1132/392
f 562/1122/385 560/1133/384 570/1134/393 568/1135/391 566/1136/389 564/1123/387
f 567/1132/392 568/1131/391 570/1137/393 569/1138/394
f 569/1139/394 570/1140/393 560/1141/384 559/1142/383
f 559/1143/383 561/1144/386 563/1145/388 565/1146/390 567/1147/392 569/1148/394
f 571/1149/395 572/1150/396 574/1151/397 573/1152/398
f 573/1152/398 574/1151/397 576/1153/399 575/1154/400
f 575/1155/400 576/1156/399 578/1157/401 577/1158/402
f 577/1159/402 578/1160/401 580/1161/403 579/1162/404
f 574/1163/397 572/1164/396 582/1165/405 580/1161/403 578/1160/401 576/1166/399
f 579/1162/404 580/1161/403 582/1165/405 581/1167/406
f 581/1168/406 582/1169/405 572/1170/396 571/1171/395
f 571/1172/395 573/1173/398 575/1174/400 577/1175/402 579/1176/404 581/1177/406
f 583/1178/407 584/1179/408 585/1180/409
f 584/1179/408 583/1178/407 588/1181/410
f 583/1182/407 585/1183/409 586/1184/411
f 583/1185/407 586/1186/411 587/1187/412
f 583/1188/407 587/1189/412 588/1190/410
f 584/1179/408 588/1181/410 593/1191/413
f 585/1183/409 584/1192/408 589/1193/414
f 586/1184/411 585/1183/409 590/1194/415
f 587/1187/412 586/1186/411 591/1195/416
f 588/1190/410 587/1189/412 592/1196/417
f 584/1197/408 593/1198/413 589/1199/414
f 585/1183/409 589/1193/414 590/1194/415
f 586/1186/411 590/1200/415 591/1195/416
f 587/1189/412 591/1201/416 592/1196/417
f 588/1190/410 592/1196/417 593/1202/413
f 589/1199/414 593/1198/413 594/1203/418
f 590/1204/415 589/1199/414 594/1203/418
f 591/1205/416 590/1206/415 594/1207/418
f 592/1208/417 591/1205/416 594/1207/418
f 593/1198/413 592/1209/417 594/1203/418
f 595/1210/419 608/1211/420 607/1212/421
f 596/1213/422 608/1211/420 610/1214/423
f 595/1210/419 607/1212/421 612/1215/424
f 595/1210/419 612/1215/424 614/1216/425
f 595/1210/419 614/1216/425 611/1217/426
f 596/1213/422 610/1214/423 617/1218/427
f 597/1219/428 609/1220/429 619/1221/430
f 598/1222/431 613/1223/432 621/1224/433
f 599/1225/434 615/1226/435 623/1227/436
f 600/1228/437 616/1229/438 625/1230/439
f 596/1213/422 617/1218/427 620/1231/440
f 597/1219/428 619/1221/430 622/1232/441
f 598/1222/431 621/1224/433 624/1233/442
f 599/1234/434 623/1235/436 626/1236/443
f 600/1228/437 625/1230/439 618/1237/444
f 601/1238/445 627/1239/446 632/1240/447
f 602/1241/448 628/1242/449 634/1243/450
f 603/1244/451 629/1245/452 635/1246/453
f 604/1247/454 630/1248/455 636/1249/456
f 605/1250/457 631/1251/458 633/1252/459
f 633/1253/459 636/1249/456 606/1254/276
f 633/1252/459 631/1251/458 636/1255/456
f 631/1256/458 604/1247/454 636/1249/456
f 636/1249/456 635/1246/453 606/1254/276
f 636/1249/456 630/1248/455 635/1246/453
f 630/1248/455 603/1244/451 635/1246/453
f 635/1246/453 634/1243/450 606/1254/276
f 635/1246/453 629/1245/452 634/1243/450
f 629/1245/452 602/1241/448 634/1243/450
f 634/1243/450 632/1257/447 606/1254/276
f 634/1258/450 628/1259/449 632/1240/447
f 628/1259/449 601/1238/445 632/1240/447
f 632/1240/447 633/1252/459 606/1260/276
f 632/1240/447 627/1239/446 633/1252/459
f 627/1239/446 605/1250/457 633/1252/459
f 618/1261/444 631/1251/458 605/1250/457
f 618/1237/444 625/1230/439 631/1262/458
f 625/1230/439 604/1263/454 631/1262/458
f 626/1236/443 630/1264/455 604/1263/454
f 626/1236/443 623/1235/436 630/1264/455
f 623/1265/436 603/1244/451 630/1248/455
f 624/1266/442 629/1245/452 603/1244/451
f 624/1233/442 621/1224/433 629/1267/452
f 621/1268/433 602/1269/448 629/1270/452
f 622/1232/441 628/1271/449 602/1269/448
f 622/1232/441 619/1221/430 628/1271/449
f 619/1221/430 601/1272/445 628/1271/449
f 620/1273/440 627/1239/446 601/1238/445
f 620/1273/440 617/1274/427 627/1239/446
f 617/1274/427 605/1250/457 627/1239/446
f 625/1230/439 626/1236/443 604/1263/454
f 625/1230/439 616/1229/438 626/1236/443
f 616/1229/438 599/1234/434 626/1236/443
f 623/1227/436 624/1233/442 603/1275/451
f 623/1227/436 615/1226/435 624/1233/442
f 615/1226/435 598/1222/431 624/1233/442
f 621/1268/433 622/1232/441 602/1269/448
f 621/1268/433 613/1276/432 622/1232/441
f 613/1276/432 597/1219/428 622/1232/441
f 619/1221/430 620/1277/440 601/1272/445
f 619/1221/430 609/1220/429 620/1277/440
f 609/1278/429 596/1213/422 620/1231/440
f 617/1274/427 618/1261/444 605/1250/457
f 617/1218/427 610/1214/423 618/1279/444
f 610/1214/423 600/1280/437 618/1279/444
f 611/1217/426 616/1281/438 600/1280/437
f 611/1217/426 614/1216/425 616/1281/438
f 614/1282/425 599/1234/434 616/1229/438
f 614/1283/425 615/1226/435 599/1225/434
f 614/1283/425 612/1284/424 615/1226/435
f 612/1284/424 598/1222/431 615/1226/435
f 612/1284/424 613/1223/432 598/1222/431
f 612/1215/424 607/1212/421 613/1285/432
f 607/1286/421 597/1219/428 613/1276/432
f 610/1214/423 611/1217/426 600/1280/437
f 610/1214/423 608/1211/420 611/1217/426
f 608/1211/420 595/1210/419 611/1217/426
f 607/1212/421 609/1278/429 597/1287/428
f 607/1212/421 608/1211/420 609/1278/429
f 608/1211/420 596/1213/422 609/1278/429
