# axis-converted-to-Y-up
# Blender 5.1.1
# www.blender.org
mtllib mob_ayam_walk2.mtl
o mob_ayam_walk2
v 3.707865 0.016854 0.159663
v 3.707865 0.162921 0.062285
v 3.693961 0.016854 0.153904
v 3.693961 0.162921 0.056526
v 3.688202 0.016854 0.140000
v 3.688202 0.162921 0.042622
v 3.693961 0.016854 0.126096
v 3.693961 0.162921 0.028718
v 3.707865 0.016854 0.120337
v 3.707865 0.162921 0.022959
v 3.721769 0.016854 0.126096
v 3.721769 0.162921 0.028718
v 3.727528 0.016854 0.140000
v 3.727528 0.162921 0.042622
v 3.721769 0.016854 0.153904
v 3.721769 0.162921 0.056526
v 3.707865 0.000000 0.196180
v 3.679409 0.015528 0.171061
v 3.718734 0.015528 0.161934
v 3.743039 0.015528 0.185828
v 3.718734 0.015528 0.209723
v 3.679409 0.015528 0.200596
v 3.696996 0.040652 0.145184
v 3.736321 0.040652 0.154311
v 3.736321 0.040652 0.183846
v 3.696996 0.040652 0.192973
v 3.672691 0.040652 0.169078
v 3.707865 0.056180 0.158727
v 3.595505 0.016854 0.159663
v 3.595505 0.162921 0.062285
v 3.581601 0.016854 0.153904
v 3.581601 0.162921 0.056526
v 3.575842 0.016854 0.140000
v 3.575842 0.162921 0.042622
v 3.581601 0.016854 0.126096
v 3.581601 0.162921 0.028718
v 3.595505 0.016854 0.120337
v 3.595505 0.162921 0.022959
v 3.609409 0.016854 0.126096
v 3.609409 0.162921 0.028718
v 3.615168 0.016854 0.140000
v 3.615168 0.162921 0.042622
v 3.609409 0.016854 0.153904
v 3.609409 0.162921 0.056526
v 3.595505 0.000000 0.196180
v 3.567049 0.015528 0.171061
v 3.606375 0.015528 0.161934
v 3.630680 0.015528 0.185828
v 3.606375 0.015528 0.209723
v 3.567049 0.015528 0.200596
v 3.584636 0.040652 0.145184
v 3.623962 0.040652 0.154311
v 3.623962 0.040652 0.183846
v 3.584636 0.040652 0.192973
v 3.560331 0.040652 0.169078
v 3.595505 0.056180 0.158727
v 3.651685 0.075843 0.089439
v 3.529729 0.173666 -0.095395
v 3.698267 0.173666 -0.169324
v 3.802432 0.173667 0.024223
v 3.698267 0.173666 0.217769
v 3.529729 0.173666 0.143840
v 3.605103 0.342465 -0.193546
v 3.773642 0.342465 -0.119617
v 3.773642 0.342465 0.119618
v 3.605103 0.342465 0.193548
v 3.500939 0.342464 0.000001
v 3.651685 0.448721 0.000001
v 3.690925 0.136450 -0.114004
v 3.679066 0.102272 -0.041944
v 3.664765 0.081515 0.031312
v 3.617441 0.081515 0.052070
v 3.580002 0.102272 0.001510
v 3.548953 0.136451 -0.051729
v 3.562032 0.163919 -0.124387
v 3.607381 0.159771 -0.150587
v 3.656681 0.163919 -0.165905
v 3.514708 0.163919 0.097896
v 3.508318 0.159771 0.033486
v 3.514708 0.163919 -0.036453
v 3.617441 0.081515 0.119244
v 3.580002 0.102272 0.142128
v 3.548953 0.136451 0.149796
v 3.778669 0.136451 0.049033
v 3.740292 0.102272 0.071819
v 3.694013 0.081515 0.085658
v 3.733254 0.163919 -0.132317
v 3.767673 0.159771 -0.080277
v 3.791750 0.163919 -0.023625
v 3.690925 0.136450 0.212072
v 3.679066 0.102272 0.185582
v 3.664765 0.081515 0.140003
v 3.791750 0.163919 0.085067
v 3.767673 0.159771 0.147250
v 3.733254 0.163919 0.193760
v 3.656681 0.163919 0.227348
v 3.607381 0.159771 0.217559
v 3.562032 0.163919 0.185831
v 3.490456 0.304776 -0.033586
v 3.491395 0.256499 -0.070308
v 3.506624 0.208363 -0.099670
v 3.506624 0.208363 0.101854
v 3.491395 0.256499 0.070310
v 3.490456 0.304776 0.033588
v 3.625525 0.304776 -0.217385
v 3.651685 0.256499 -0.227527
v 3.677845 0.208363 -0.216293
v 3.535872 0.208363 -0.154018
v 3.552620 0.256499 -0.184073
v 3.578201 0.304776 -0.196626
v 3.796747 0.304776 -0.100761
v 3.811976 0.256499 -0.070308
v 3.812914 0.208364 -0.032496
v 3.725170 0.208363 -0.195535
v 3.750750 0.256499 -0.184073
v 3.767499 0.304776 -0.155109
v 3.767499 0.304776 0.155110
v 3.750750 0.256499 0.184075
v 3.725170 0.208363 0.197719
v 3.812914 0.208364 0.034678
v 3.811976 0.256499 0.070310
v 3.796747 0.304776 0.100763
v 3.578201 0.304776 0.196628
v 3.552620 0.256499 0.184075
v 3.535872 0.208363 0.156201
v 3.677845 0.208363 0.218477
v 3.651685 0.256499 0.227529
v 3.625525 0.304776 0.217386
v 3.511621 0.353052 -0.054345
v 3.535698 0.357557 -0.113763
v 3.570117 0.353053 -0.163038
v 3.646690 0.353053 -0.196626
v 3.695989 0.357557 -0.184072
v 3.741338 0.353053 -0.155108
v 3.788662 0.353053 -0.067174
v 3.795053 0.357557 0.000001
v 3.788662 0.353053 0.067176
v 3.741338 0.353053 0.155110
v 3.695989 0.357557 0.184074
v 3.646690 0.353053 0.196627
v 3.570117 0.353053 0.163040
v 3.535698 0.357557 0.113764
v 3.511621 0.353052 0.054347
v 3.638606 0.442561 -0.054345
v 3.624305 0.420014 -0.113762
v 3.612445 0.382889 -0.163037
v 3.524701 0.382888 0.000001
v 3.563079 0.420013 0.000001
v 3.609357 0.442561 0.000001
v 3.685929 0.442561 -0.033586
v 3.723369 0.420014 -0.070308
v 3.754418 0.382889 -0.100761
v 3.685929 0.442561 0.033588
v 3.723369 0.420014 0.070310
v 3.754418 0.382889 0.100763
v 3.638606 0.442561 0.054346
v 3.624305 0.420014 0.113764
v 3.612445 0.382889 0.163039
v 3.590708 0.428428 0.059810
v 3.544125 0.395593 0.059810
v 3.576313 0.395594 0.119619
v 3.674977 0.428428 0.096773
v 3.660583 0.395594 0.156582
v 3.712663 0.395594 0.133737
v 3.727058 0.428428 0.000001
v 3.764744 0.395593 0.036964
v 3.764744 0.395593 -0.036963
v 3.674977 0.428428 -0.096771
v 3.712663 0.395594 -0.133735
v 3.660583 0.395594 -0.156581
v 3.590708 0.428428 -0.059808
v 3.576313 0.395594 -0.119617
v 3.544125 0.395593 -0.059808
v 3.506438 0.309629 0.096773
v 3.515334 0.256499 0.133738
v 3.538626 0.309629 0.156583
v 3.674978 0.309629 0.216392
v 3.703767 0.256499 0.216393
v 3.727058 0.309629 0.193548
v 3.811328 0.309629 0.036964
v 3.820225 0.256499 0.000001
v 3.811328 0.309629 -0.036963
v 3.727059 0.309629 -0.193546
v 3.703767 0.256499 -0.216391
v 3.674978 0.309629 -0.216391
v 3.538626 0.309629 -0.156582
v 3.515334 0.256499 -0.133736
v 3.506438 0.309628 -0.096772
v 3.599604 0.256499 0.216393
v 3.576312 0.203896 0.197617
v 3.628393 0.203896 0.220462
v 3.788036 0.256499 0.133738
v 3.764745 0.203896 0.160653
v 3.796933 0.203896 0.100843
v 3.788036 0.256499 -0.133736
v 3.796933 0.203896 -0.092703
v 3.764745 0.203896 -0.152513
v 3.599604 0.256499 -0.216391
v 3.628393 0.203896 -0.212322
v 3.576312 0.203896 -0.189477
v 3.483146 0.256499 0.000001
v 3.492043 0.203896 -0.032894
v 3.492043 0.203896 0.041033
v 3.590707 0.124754 0.190568
v 3.628394 0.094525 0.173756
v 3.642788 0.124754 0.213413
v 3.727058 0.124754 0.176449
v 3.712663 0.094525 0.136792
v 3.759246 0.124754 0.116639
v 3.759246 0.124754 -0.002978
v 3.712663 0.094525 0.017174
v 3.727058 0.124754 -0.062787
v 3.538626 0.124754 0.093794
v 3.538626 0.124754 0.019867
v 3.576313 0.094525 0.076983
v 3.642788 0.124754 -0.099750
v 3.628393 0.094525 -0.019789
v 3.590707 0.124754 -0.076906
v 3.803371 0.174157 0.012660
v 3.770849 0.225039 -0.063217
v 3.815793 0.225039 -0.095344
v 3.843570 0.225040 -0.011235
v 3.815793 0.225039 0.072874
v 3.770849 0.225039 0.040747
v 3.790949 0.312369 -0.095344
v 3.835892 0.312369 -0.063217
v 3.835892 0.312369 0.040747
v 3.790949 0.312369 0.072874
v 3.763172 0.312369 -0.011235
v 3.803371 0.366340 -0.011235
v 3.810673 0.187581 -0.045727
v 3.784255 0.187581 -0.026843
v 3.791557 0.217373 -0.091227
v 3.765139 0.217373 -0.011235
v 3.784255 0.187581 0.034264
v 3.826999 0.187582 0.003710
v 3.834301 0.217373 -0.060673
v 3.810673 0.187581 0.053148
v 3.834301 0.217373 0.038203
v 3.791557 0.217373 0.068757
v 3.760626 0.268704 -0.041789
v 3.760626 0.268704 0.019319
v 3.803371 0.268704 -0.110111
v 3.776953 0.268704 -0.091228
v 3.846115 0.268704 -0.041789
v 3.829788 0.268704 -0.091228
v 3.829788 0.268704 0.068758
v 3.846115 0.268704 0.019319
v 3.776953 0.268704 0.068758
v 3.803371 0.268704 0.087641
v 3.772441 0.320035 -0.060673
v 3.815185 0.320035 -0.091227
v 3.841602 0.320035 -0.011235
v 3.815185 0.320035 0.068757
v 3.772441 0.320035 0.038203
v 3.796069 0.351759 -0.060673
v 3.779742 0.351758 -0.011235
v 3.822486 0.351759 -0.041789
v 3.822486 0.351759 0.019319
v 3.796069 0.351759 0.038203
v 3.500000 0.174157 0.012660
v 3.467479 0.225039 -0.063217
v 3.512422 0.225039 -0.095344
v 3.540199 0.225040 -0.011235
v 3.512422 0.225039 0.072874
v 3.467479 0.225039 0.040747
v 3.487578 0.312369 -0.095344
v 3.532522 0.312369 -0.063217
v 3.532522 0.312369 0.040747
v 3.487578 0.312369 0.072874
v 3.459801 0.312369 -0.011235
v 3.500000 0.366340 -0.011235
v 3.507301 0.187581 -0.045727
v 3.480884 0.187581 -0.026844
v 3.488186 0.217373 -0.091227
v 3.461769 0.217373 -0.011235
v 3.480884 0.187581 0.034264
v 3.523628 0.187582 0.003710
v 3.530930 0.217373 -0.060673
v 3.507301 0.187581 0.053148
v 3.530930 0.217373 0.038203
v 3.488186 0.217373 0.068757
v 3.457256 0.268704 -0.041789
v 3.457256 0.268704 0.019319
v 3.500000 0.268704 -0.110111
v 3.473583 0.268704 -0.091228
v 3.542744 0.268704 -0.041789
v 3.526417 0.268704 -0.091228
v 3.526417 0.268704 0.068758
v 3.542744 0.268704 0.019319
v 3.473583 0.268704 0.068758
v 3.500000 0.268704 0.087641
v 3.469070 0.320035 -0.060673
v 3.511814 0.320035 -0.091227
v 3.538231 0.320035 -0.011235
v 3.511814 0.320035 0.068757
v 3.469070 0.320035 0.038203
v 3.492698 0.351759 -0.060673
v 3.476372 0.351758 -0.011235
v 3.519116 0.351759 -0.041789
v 3.519116 0.351759 0.019319
v 3.492698 0.351759 0.038203
v 3.651685 0.290062 0.146068
v 3.584610 0.345720 0.097335
v 3.677306 0.345720 0.067216
v 3.734596 0.345720 0.146068
v 3.677306 0.345720 0.224921
v 3.584610 0.345720 0.194801
v 3.626065 0.435779 0.067216
v 3.718761 0.435779 0.097335
v 3.718761 0.435779 0.194801
v 3.626065 0.435779 0.224921
v 3.568775 0.435779 0.146068
v 3.651685 0.491438 0.146068
v 3.666744 0.305099 0.099721
v 3.612259 0.305099 0.117424
v 3.627318 0.337814 0.071076
v 3.572833 0.337815 0.146068
v 3.612259 0.305099 0.174713
v 3.700418 0.305099 0.146068
v 3.715478 0.337815 0.099720
v 3.666744 0.305099 0.192416
v 3.715478 0.337815 0.192416
v 3.627318 0.337814 0.221061
v 3.563525 0.390749 0.117424
v 3.563525 0.390749 0.174713
v 3.651685 0.390749 0.053372
v 3.597199 0.390749 0.071075
v 3.739846 0.390749 0.117424
v 3.706171 0.390749 0.071075
v 3.706171 0.390749 0.221062
v 3.739846 0.390749 0.174713
v 3.597199 0.390749 0.221062
v 3.651685 0.390749 0.238765
v 3.587893 0.443685 0.099720
v 3.676053 0.443685 0.071076
v 3.730538 0.443685 0.146068
v 3.676053 0.443685 0.221061
v 3.587893 0.443685 0.192416
v 3.636626 0.476400 0.099721
v 3.602952 0.476399 0.146068
v 3.691111 0.476400 0.117424
v 3.691111 0.476400 0.174713
v 3.636626 0.476400 0.192416
v 3.651685 0.348034 0.207866
v 3.651685 0.381596 0.297754
v 3.625331 0.361819 0.207866
v 3.649489 0.382746 0.297754
v 3.618822 0.392794 0.207866
v 3.648947 0.385326 0.297754
v 3.637060 0.417635 0.207866
v 3.650466 0.387397 0.297754
v 3.666311 0.417635 0.207866
v 3.652905 0.387397 0.297754
v 3.684548 0.392794 0.207866
v 3.654424 0.385326 0.297754
v 3.678039 0.361819 0.207866
v 3.653881 0.382746 0.297754
v 3.651685 0.274806 0.202248
v 3.631359 0.298419 0.187481
v 3.659449 0.298419 0.178354
v 3.676810 0.298419 0.202248
v 3.659449 0.298419 0.226142
v 3.631359 0.298419 0.217015
v 3.643922 0.336625 0.178354
v 3.672011 0.336625 0.187481
v 3.672011 0.336625 0.217015
v 3.643922 0.336625 0.226142
v 3.626561 0.336625 0.202248
v 3.651685 0.360238 0.202248
v 3.679775 0.447653 0.150159
v 3.679775 0.523664 0.144282
v 3.662206 0.449479 0.141867
v 3.677579 0.523892 0.143245
v 3.657867 0.453581 0.123235
v 3.677037 0.524405 0.140917
v 3.670025 0.456871 0.108292
v 3.678557 0.524816 0.139049
v 3.689525 0.456871 0.108292
v 3.680994 0.524816 0.139049
v 3.701684 0.453581 0.123235
v 3.682513 0.524405 0.140917
v 3.697344 0.449479 0.141867
v 3.681971 0.523892 0.143245
v 3.651685 0.451772 0.157304
v 3.651685 0.525000 0.137641
v 3.634116 0.451772 0.148844
v 3.649489 0.525000 0.136583
v 3.629777 0.451772 0.129832
v 3.648947 0.525000 0.134207
v 3.641935 0.451772 0.114586
v 3.650466 0.525000 0.132301
v 3.661435 0.451772 0.114586
v 3.652905 0.525000 0.132301
v 3.673594 0.451772 0.129832
v 3.654424 0.525000 0.134207
v 3.669254 0.451772 0.148844
v 3.653881 0.525000 0.136583
v 3.623595 0.457352 0.163553
v 3.623595 0.524876 0.130889
v 3.606026 0.455526 0.155261
v 3.621399 0.524648 0.129852
v 3.601687 0.451424 0.136628
v 3.620857 0.524135 0.127523
v 3.613845 0.448133 0.121686
v 3.622377 0.523724 0.125655
v 3.633345 0.448133 0.121686
v 3.624814 0.523724 0.125655
v 3.645504 0.451424 0.136628
v 3.626334 0.524135 0.127523
v 3.641165 0.455526 0.155261
v 3.625792 0.524648 0.129852
v 3.691011 0.399903 0.191012
v 3.680848 0.408336 0.183628
v 3.694893 0.408336 0.179065
v 3.703573 0.408336 0.191012
v 3.694893 0.408336 0.202959
v 3.680848 0.408336 0.198396
v 3.687129 0.421981 0.179065
v 3.701174 0.421981 0.183628
v 3.701174 0.421981 0.198396
v 3.687129 0.421981 0.202959
v 3.678449 0.421981 0.191012
v 3.691011 0.430415 0.191012
v 3.612359 0.399903 0.191012
v 3.602196 0.408336 0.183628
v 3.616241 0.408336 0.179065
v 3.624922 0.408336 0.191012
v 3.616241 0.408336 0.202959
v 3.602196 0.408336 0.198396
v 3.608477 0.421981 0.179065
v 3.622522 0.421981 0.183628
v 3.622522 0.421981 0.198396
v 3.608477 0.421981 0.202959
v 3.599798 0.421981 0.191012
v 3.612359 0.430415 0.191012
v 3.696787 0.265751 -0.224746
v 3.669837 0.413840 -0.091795
v 3.676569 0.274749 -0.235552
v 3.665793 0.415641 -0.093956
v 3.674188 0.294970 -0.251108
v 3.665317 0.419685 -0.097067
v 3.691436 0.311184 -0.259699
v 3.668767 0.422927 -0.098786
v 3.715326 0.311184 -0.254856
v 3.673544 0.422927 -0.097817
v 3.727868 0.294970 -0.240227
v 3.676053 0.419685 -0.094891
v 3.719617 0.274749 -0.226827
v 3.674403 0.415641 -0.092211
v 3.651685 0.265751 -0.225890
v 3.651685 0.413840 -0.090234
v 3.629724 0.274749 -0.232464
v 3.647293 0.415641 -0.091549
v 3.624299 0.294970 -0.247236
v 3.646208 0.419685 -0.094504
v 3.639498 0.311184 -0.259082
v 3.649248 0.422927 -0.096873
v 3.663873 0.311184 -0.259082
v 3.654123 0.422927 -0.096873
v 3.679071 0.294970 -0.247236
v 3.657162 0.419685 -0.094504
v 3.673647 0.274749 -0.232464
v 3.656078 0.415641 -0.091549
v 3.606584 0.265751 -0.224746
v 3.633534 0.413840 -0.091795
v 3.583754 0.274749 -0.226827
v 3.628968 0.415641 -0.092211
v 3.575503 0.294970 -0.240227
v 3.627318 0.419685 -0.094891
v 3.588044 0.311184 -0.254856
v 3.629826 0.422927 -0.097817
v 3.611934 0.311184 -0.259699
v 3.634604 0.422927 -0.098786
v 3.629183 0.294970 -0.251108
v 3.638054 0.419685 -0.097067
v 3.626801 0.274749 -0.235552
v 3.637577 0.415641 -0.093956
vn -0.000000 -0.400500 0.916300
vn -0.000000 0.833000 0.553200
vn -0.499800 0.769900 0.396700
vn -0.576800 -0.446100 0.684300
vn -0.797500 0.592700 -0.113100
vn -0.797500 -0.592700 0.113100
vn -0.576800 0.446100 -0.684300
vn -0.499800 -0.769900 -0.396700
vn -0.000000 0.400500 -0.916300
vn -0.000000 -0.833000 -0.553200
vn 0.576800 0.446100 -0.684300
vn 0.499800 -0.769900 -0.396700
vn 0.797500 0.592700 -0.113100
vn 0.797500 -0.592700 0.113100
vn 0.499800 0.769900 0.396700
vn 0.576800 -0.446100 0.684300
vn -0.007000 -0.970700 0.240400
vn -0.647300 -0.647800 -0.401700
vn 0.198300 -0.734500 -0.649000
vn -0.721100 -0.259400 0.642400
vn 0.890000 -0.433900 0.140500
vn 0.276900 -0.117100 0.953700
vn -0.889900 0.433900 -0.140500
vn -0.276900 0.117100 -0.953700
vn 0.721100 0.259400 -0.642400
vn 0.647300 0.647800 0.401700
vn -0.198300 0.734500 0.649000
vn 0.007000 0.970700 -0.240400
vn 0.889900 -0.433900 0.140500
vn -0.000600 -1.000000 0.008700
vn -0.207000 -0.972700 -0.104800
vn 0.075600 -0.983000 -0.167200
vn -0.678200 -0.639400 -0.362300
vn -0.556800 -0.776700 -0.294600
vn -0.780200 -0.592900 -0.199600
vn 0.275000 -0.961400 0.010300
vn 0.096600 -0.966000 0.239700
vn -0.240000 -0.960000 0.144200
vn -0.877700 -0.332900 -0.344800
vn 0.255900 -0.773100 -0.580300
vn 0.016800 -0.814900 -0.579400
vn 0.167600 -0.472900 -0.865000
vn 0.902300 -0.431000 0.003000
vn 0.797900 -0.576800 -0.175300
vn 0.953900 -0.271000 -0.128800
vn 0.395000 -0.023200 0.918400
vn 0.662100 -0.184300 0.726400
vn 0.568000 -0.022500 0.822700
vn -0.859100 -0.203100 0.469800
vn -0.695500 -0.198300 0.690600
vn -0.808400 -0.071200 0.584400
vn -0.723300 -0.398100 -0.564300
vn 0.502200 -0.444400 -0.741800
vn 0.974800 -0.198300 0.102500
vn 0.217800 0.012100 0.975900
vn -0.930400 -0.137800 0.339600
vn -0.345200 0.493200 -0.798500
vn -0.577000 0.523300 -0.627100
vn -0.279100 0.710000 -0.646600
vn 0.792000 0.431900 -0.431400
vn 0.609000 0.517300 -0.601200
vn 0.667700 0.649300 -0.364200
vn 0.792000 0.431900 0.431400
vn 0.855200 0.466800 0.225400
vn 0.667700 0.649300 0.364200
vn -0.345200 0.493200 0.798500
vn -0.024400 0.564500 0.825100
vn -0.279100 0.710000 0.646600
vn -0.915200 0.403000 0.000000
vn -0.864500 0.463800 0.193900
vn -0.786100 0.618200 0.000000
vn -0.293400 0.956000 0.000000
vn -0.090700 0.973000 0.212100
vn 0.000800 1.000000 0.000000
vn -0.573300 0.819400 0.000000
vn -0.412600 0.882400 0.225900
vn -0.684000 0.696200 0.218000
vn -0.189100 0.878000 0.439700
vn -0.512700 0.734000 0.445400
vn -0.755100 0.509700 0.412400
vn -0.577000 0.523300 0.627100
vn 0.237900 0.962400 0.130900
vn 0.162700 0.911500 0.377600
vn 0.071600 0.778300 0.623700
vn 0.475200 0.840500 0.260200
vn 0.412400 0.750300 0.516700
vn 0.324000 0.573100 0.752700
vn 0.609000 0.517300 0.601200
vn 0.237900 0.962400 -0.130900
vn 0.500500 0.865700 0.000000
vn 0.715000 0.687900 0.124700
vn 0.475200 0.840500 -0.260200
vn 0.715000 0.687900 -0.124700
vn 0.877700 0.479300 0.000000
vn 0.855200 0.466800 -0.225400
vn -0.090700 0.973000 -0.212100
vn 0.162700 0.911500 -0.377600
vn 0.412400 0.750300 -0.516700
vn -0.189100 0.878000 -0.439700
vn 0.071600 0.778300 -0.623700
vn 0.324000 0.573100 -0.752700
vn -0.024400 0.564500 -0.825100
vn -0.412600 0.882400 -0.225900
vn -0.512700 0.734000 -0.445400
vn -0.684000 0.696200 -0.218000
vn -0.755100 0.509700 -0.412400
vn -0.864500 0.463800 -0.193900
vn -0.969100 0.217100 0.116800
vn -0.971400 0.005100 0.237400
vn -0.904700 0.253400 0.342600
vn -0.877700 0.013600 0.479100
vn -0.765800 0.272500 0.582500
vn -0.698200 0.018000 0.715700
vn -0.541300 0.263100 0.798600
vn -0.195700 0.279700 0.939900
vn 0.007600 0.024500 0.999700
vn 0.188800 0.312200 0.931100
vn 0.394600 0.019900 0.918600
vn 0.538400 0.294800 0.789500
vn 0.690400 0.017200 0.723200
vn 0.774200 0.243500 0.584200
vn 0.910600 0.225300 0.346400
vn 0.972200 0.005900 0.234200
vn 0.962600 0.243800 0.117900
vn 1.000000 0.007600 -0.000600
vn 0.962600 0.243800 -0.117900
vn 0.970700 -0.007600 -0.240300
vn 0.910600 0.225300 -0.346400
vn 0.774200 0.243500 -0.584200
vn 0.696300 -0.016300 -0.717500
vn 0.538400 0.294800 -0.789500
vn 0.393900 -0.000200 -0.919200
vn 0.188800 0.312200 -0.931100
vn -0.007600 -0.024900 -0.999700
vn -0.195700 0.279700 -0.939900
vn -0.541300 0.263100 -0.798600
vn -0.688300 -0.020500 -0.725100
vn -0.765800 0.272500 -0.582500
vn -0.877100 0.003000 -0.480200
vn -0.904700 0.253400 -0.342600
vn -0.971600 -0.005400 -0.236600
vn -0.969100 0.217100 -0.116800
vn -0.395500 0.023600 0.918200
vn -0.578000 -0.035300 0.815300
vn -0.195300 0.001900 0.980800
vn -0.385500 -0.169000 0.907100
vn 0.030800 -0.102000 0.994300
vn 0.878400 0.008800 0.477800
vn 0.798300 -0.089400 0.595600
vn 0.928600 -0.158000 0.335700
vn 0.830900 -0.312600 0.460300
vn 0.897400 -0.390800 0.205000
vn 0.876100 -0.027200 -0.481300
vn 0.865000 -0.368900 -0.340200
vn 0.714500 -0.437400 -0.546000
vn 0.639300 -0.688800 -0.341700
vn 0.449700 -0.753900 -0.479000
vn -0.392600 -0.044400 -0.918600
vn -0.178400 -0.521600 -0.834300
vn -0.481700 -0.489700 -0.726800
vn -0.237900 -0.806600 -0.541000
vn -0.479000 -0.744200 -0.465600
vn -1.000000 -0.008600 -0.001900
vn -0.945800 -0.299600 -0.125600
vn -0.968300 -0.225500 0.107400
vn -0.862600 -0.505900 0.005500
vn -0.896800 -0.372200 0.239300
vn -0.746300 -0.517900 0.418100
vn -0.518000 -0.801600 0.298500
vn -0.500100 -0.577700 0.645200
vn -0.191100 -0.864500 0.464800
vn -0.091200 -0.562900 0.821400
vn 0.228200 -0.800700 0.553900
vn 0.347500 -0.441600 0.827200
vn 0.601400 -0.590700 0.538000
vn 0.442800 -0.859200 0.256300
vn 0.725900 -0.644300 0.240800
vn 0.546400 -0.837400 0.010000
vn 0.763900 -0.645300 0.007500
vn 0.600200 -0.778600 -0.183000
vn 0.347900 -0.920000 -0.180500
vn 0.404800 -0.848100 -0.341800
vn 0.144900 -0.934500 -0.325200
vn 0.205000 -0.862300 -0.463100
vn -0.729200 -0.670600 0.136300
vn -0.654100 -0.749000 -0.105800
vn -0.474300 -0.880300 0.010500
vn -0.397400 -0.893800 -0.207700
vn -0.051900 -0.896200 -0.440700
vn -0.126500 -0.950500 -0.283600
vn -0.314600 -0.868100 -0.383900
vn -0.003900 -0.998400 0.056600
vn -0.582900 -0.783900 -0.213600
vn 0.229800 -0.896400 -0.379000
vn -0.879900 -0.341200 -0.330700
vn -0.946200 -0.323400 -0.014500
vn 0.735200 -0.677700 0.015700
vn 0.249100 -0.757900 0.603000
vn -0.654500 -0.685900 0.317900
vn -0.986900 0.001700 -0.161200
vn 0.431900 -0.470800 -0.769300
vn -0.383900 -0.582900 -0.716100
vn -0.000000 -0.000000 -1.000000
vn 0.966700 -0.255900 -0.008600
vn 0.834400 -0.434500 -0.339100
vn 0.986900 -0.001700 -0.161200
vn 0.451900 -0.349500 0.820800
vn 0.897000 -0.309900 0.315200
vn 0.798000 0.006800 0.602600
vn -0.909300 -0.250600 0.332200
vn -0.462200 -0.406100 0.788300
vn -0.798000 -0.006800 0.602600
vn -0.798000 -0.006800 -0.602600
vn 0.798000 0.006800 -0.602600
vn 0.986900 -0.001700 0.161200
vn -0.000000 -0.000000 1.000000
vn -0.986900 0.001700 0.161200
vn -0.440200 0.415600 -0.795900
vn -0.873300 0.358700 -0.329700
vn -0.246000 0.835500 -0.491400
vn 0.896100 0.290600 -0.335600
vn 0.419500 0.502700 -0.755800
vn 0.629400 0.729200 -0.268700
vn 0.896100 0.290600 0.335600
vn 0.951600 0.307400 0.000000
vn 0.629400 0.729200 0.268700
vn -0.440200 0.415600 0.795900
vn 0.419500 0.502700 0.755800
vn -0.246000 0.835500 0.491400
vn -0.969500 0.245200 0.000000
vn -0.873300 0.358700 0.329700
vn -0.750100 0.661300 0.000000
vn 0.009000 1.000000 0.000000
vn -0.879900 -0.341200 -0.330600
vn -0.654600 -0.685900 0.317900
vn -0.798000 -0.006900 0.602600
vn -0.798000 -0.006900 -0.602600
vn -0.000000 -1.000000 0.000000
vn -0.446000 -0.834300 -0.324000
vn 0.170400 -0.834300 -0.524300
vn -0.732900 -0.423400 -0.532500
vn -0.865100 -0.501700 0.000000
vn 0.551300 -0.834300 0.000000
vn 0.170400 -0.834300 0.524300
vn -0.446000 -0.834300 0.324000
vn -0.951100 -0.000000 -0.309000
vn 0.279900 -0.423400 -0.861600
vn -0.267300 -0.501700 -0.822700
vn 0.905900 -0.423400 0.000000
vn 0.699800 -0.501700 -0.508500
vn 0.951100 -0.000000 -0.309000
vn 0.279900 -0.423400 0.861600
vn 0.699800 -0.501700 0.508500
vn 0.587800 -0.000000 0.809000
vn -0.732900 -0.423400 0.532500
vn -0.267300 -0.501700 0.822700
vn -0.587800 -0.000000 0.809000
vn -0.587800 -0.000000 -0.809000
vn 0.587800 -0.000000 -0.809000
vn 0.951100 -0.000000 0.309000
vn -0.951100 -0.000000 0.309000
vn -0.279900 0.423400 -0.861600
vn -0.699800 0.501700 -0.508500
vn -0.170400 0.834300 -0.524300
vn 0.732900 0.423400 -0.532500
vn 0.267300 0.501700 -0.822700
vn 0.446000 0.834300 -0.324000
vn 0.732900 0.423400 0.532500
vn 0.865100 0.501700 0.000000
vn 0.446000 0.834300 0.324000
vn -0.279900 0.423400 0.861600
vn 0.267300 0.501700 0.822700
vn -0.170400 0.834300 0.524300
vn -0.905900 0.423400 0.000000
vn -0.699800 0.501700 0.508500
vn -0.551300 0.834300 0.000000
vn -0.000000 1.000000 0.000000
vn -0.000000 -0.877700 -0.479200
vn -0.000000 -0.666100 0.745900
vn -0.533700 -0.398200 0.746000
vn -0.691600 -0.529300 -0.491400
vn -0.651200 0.138900 0.746000
vn -0.847200 0.185300 -0.497900
vn -0.304400 0.592400 0.745900
vn -0.392100 0.782900 -0.483000
vn 0.304400 0.592400 0.745900
vn 0.392100 0.782900 -0.483000
vn 0.651300 0.138900 0.746000
vn 0.847200 0.185300 -0.497900
vn 0.533700 -0.398200 0.746000
vn 0.691600 -0.529300 -0.491400
vn -0.747100 -0.383800 -0.542800
vn 0.285300 -0.383800 -0.878200
vn -0.747100 -0.383800 0.542800
vn 0.923400 -0.383800 0.000000
vn 0.285300 -0.383800 0.878200
vn -0.923400 0.383800 0.000000
vn -0.285300 0.383800 -0.878200
vn 0.747100 0.383800 -0.542800
vn 0.747100 0.383800 0.542800
vn -0.285300 0.383800 0.878200
vn -0.000000 -0.681700 0.731600
vn -0.000000 0.563900 0.825900
vn -0.542800 0.616000 0.570900
vn -0.668300 -0.617000 0.415600
vn -0.679900 0.733300 -0.003800
vn -0.832300 -0.471600 -0.291200
vn -0.304400 0.828500 -0.470000
vn -0.370900 -0.354400 -0.858400
vn 0.304400 0.828500 -0.470000
vn 0.370900 -0.354400 -0.858400
vn 0.679800 0.733400 -0.003800
vn 0.832300 -0.471600 -0.291200
vn 0.542800 0.616000 0.570900
vn 0.668300 -0.617000 0.415600
vn -0.000000 -0.520900 0.853600
vn -0.000000 0.717300 0.696800
vn -0.544700 0.717400 0.434400
vn -0.667400 -0.520900 0.532200
vn -0.679300 0.717300 -0.155000
vn -0.832200 -0.520900 -0.189900
vn -0.302300 0.717300 -0.627700
vn -0.370400 -0.520900 -0.769100
vn 0.302300 0.717300 -0.627700
vn 0.370400 -0.520900 -0.769100
vn 0.679300 0.717300 -0.155000
vn 0.832200 -0.520900 -0.189900
vn 0.544700 0.717400 0.434400
vn 0.667400 -0.520900 0.532200
vn -0.000000 -0.337200 0.941400
vn -0.000000 0.842500 0.538700
vn -0.547000 0.789400 0.278600
vn -0.667800 -0.402500 0.626100
vn -0.678000 0.671500 -0.299000
vn -0.832500 -0.548100 -0.080300
vn -0.301100 0.577600 -0.758800
vn -0.371300 -0.664600 -0.648400
vn 0.301000 0.577600 -0.758700
vn 0.371300 -0.664600 -0.648400
vn 0.678000 0.671500 -0.299000
vn 0.832500 -0.548100 -0.080300
vn 0.547000 0.789400 0.278600
vn 0.667800 -0.402500 0.626100
vn -0.727700 -0.436900 -0.528700
vn 0.278000 -0.436900 -0.855500
vn -0.727700 -0.436900 0.528700
vn 0.899500 -0.436900 0.000000
vn 0.278000 -0.436900 0.855500
vn -0.899500 0.436900 0.000000
vn -0.278000 0.436900 -0.855500
vn 0.727700 0.436900 -0.528700
vn 0.727700 0.436900 0.528700
vn -0.278000 0.436900 0.855500
vn -0.011400 -0.998300 0.056300
vn -0.195600 -0.175800 0.964800
vn -0.736200 0.051200 0.674800
vn -0.605600 -0.748000 -0.271700
vn -0.800900 0.532300 0.274200
vn -0.665300 -0.217700 -0.714200
vn -0.351100 0.935600 0.035900
vn -0.174900 0.220200 -0.959700
vn 0.309400 0.935700 0.169800
vn 0.534800 0.220200 -0.815800
vn 0.630900 0.532300 0.564500
vn 0.890900 -0.217700 -0.398700
vn 0.415400 0.051100 0.908200
vn 0.663600 -0.748000 -0.014400
vn -0.000000 -0.998300 0.057500
vn -0.000000 -0.175800 0.984400
vn -0.587500 0.051200 0.807600
vn -0.647500 -0.748000 -0.145900
vn -0.730500 0.532300 0.427900
vn -0.793900 -0.217700 -0.567700
vn -0.337000 0.935700 0.104900
vn -0.362000 0.220200 -0.905800
vn 0.337000 0.935700 0.104900
vn 0.362000 0.220200 -0.905800
vn 0.730500 0.532300 0.427900
vn 0.793900 -0.217700 -0.567800
vn 0.587500 0.051200 0.807600
vn 0.647500 -0.747900 -0.145900
vn 0.011400 -0.998300 0.056300
vn 0.195600 -0.175800 0.964800
vn -0.415400 0.051100 0.908200
vn -0.663600 -0.748000 -0.014400
vn -0.630900 0.532300 0.564500
vn -0.890900 -0.217700 -0.398700
vn -0.309400 0.935600 0.169800
vn -0.534800 0.220200 -0.815800
vn 0.351100 0.935600 0.035900
vn 0.174900 0.220200 -0.959700
vn 0.800900 0.532300 0.274200
vn 0.665300 -0.217700 -0.714100
vn 0.736200 0.051200 0.674800
vn 0.605600 -0.748000 -0.271700
vt 0.887146 0.886962
vt 0.887146 0.777916
vt 0.897527 0.777848
vt 0.897527 0.886894
vt 0.488546 0.885072
vt 0.488546 0.776065
vt 0.499002 0.776193
vt 0.499002 0.885200
vt 0.509305 0.776053
vt 0.509305 0.885060
vt 0.269087 0.885161
vt 0.269087 0.776120
vt 0.279468 0.776198
vt 0.279468 0.885240
vt 0.289849 0.776120
vt 0.289849 0.885161
vt 0.767522 0.907118
vt 0.767522 0.798318
vt 0.777825 0.798627
vt 0.777825 0.907427
vt 0.090484 0.984858
vt 0.082543 0.976917
vt 0.082543 0.965681
vt 0.090484 0.957733
vt 0.101715 0.957728
vt 0.109656 0.965670
vt 0.109656 0.976905
vt 0.101715 0.984853
vt 0.788281 0.798343
vt 0.788281 0.907144
vt 0.876765 0.886894
vt 0.876765 0.777848
vt 0.694108 0.948553
vt 0.705340 0.948553
vt 0.713282 0.956499
vt 0.713281 0.967735
vt 0.705339 0.975680
vt 0.694107 0.975680
vt 0.686165 0.967735
vt 0.686165 0.956499
vt 0.168253 0.854359
vt 0.162384 0.877219
vt 0.149108 0.850166
vt 0.183864 0.872239
vt 0.162383 0.828466
vt 0.183864 0.842108
vt 0.986630 0.683712
vt 0.986630 0.705760
vt 0.968037 0.694636
vt 0.821723 0.944140
vt 0.821723 0.914778
vt 0.840410 0.927830
vt 0.822128 0.962285
vt 0.840660 0.957191
vt 0.767522 0.948713
vt 0.767738 0.930565
vt 0.786338 0.935512
vt 0.767738 0.978074
vt 0.786338 0.964875
vt 0.840660 0.909681
vt 0.968392 0.479089
vt 0.987452 0.468130
vt 0.987452 0.490179
vt 0.967471 0.712797
vt 0.720906 0.903701
vt 0.707636 0.925415
vt 0.701354 0.899628
vt 0.707636 0.876652
vt 0.686165 0.881648
vt 0.686165 0.911786
vt 0.890366 0.264037
vt 0.890366 0.154991
vt 0.900747 0.154923
vt 0.900747 0.263969
vt 0.225190 0.885138
vt 0.225190 0.776131
vt 0.235646 0.776260
vt 0.235646 0.885266
vt 0.245949 0.776120
vt 0.245949 0.885126
vt 0.821723 0.886465
vt 0.821723 0.777423
vt 0.832104 0.777502
vt 0.832104 0.886544
vt 0.842485 0.777423
vt 0.842485 0.886465
vt 0.888024 0.120369
vt 0.888024 0.011569
vt 0.898327 0.011878
vt 0.898327 0.120678
vt 0.019510 0.980025
vt 0.011569 0.972084
vt 0.011569 0.960849
vt 0.019510 0.952900
vt 0.030741 0.952896
vt 0.038682 0.960837
vt 0.038682 0.972072
vt 0.030741 0.980020
vt 0.908783 0.011594
vt 0.908783 0.120395
vt 0.879985 0.263969
vt 0.879985 0.154923
vt 0.435661 0.952572
vt 0.446893 0.952572
vt 0.454835 0.960517
vt 0.454835 0.971753
vt 0.446893 0.979699
vt 0.435661 0.979699
vt 0.427718 0.971754
vt 0.427718 0.960518
vt 0.097883 0.839760
vt 0.082543 0.857697
vt 0.082543 0.827562
vt 0.104021 0.862689
vt 0.104021 0.813930
vt 0.117295 0.835640
vt 0.987467 0.542537
vt 0.987467 0.564585
vt 0.968874 0.553462
vt 0.225190 0.942863
vt 0.225190 0.913500
vt 0.243876 0.926552
vt 0.225594 0.961008
vt 0.244126 0.955913
vt 0.345492 0.949319
vt 0.345707 0.931171
vt 0.364308 0.936118
vt 0.345707 0.978680
vt 0.364308 0.965480
vt 0.244126 0.908404
vt 0.149108 0.973760
vt 0.168168 0.962802
vt 0.168168 0.984850
vt 0.968307 0.571622
vt 0.117285 0.912876
vt 0.104015 0.934591
vt 0.097733 0.908804
vt 0.104014 0.885827
vt 0.082543 0.890824
vt 0.082543 0.920961
vt 0.321124 0.466994
vt 0.346576 0.492012
vt 0.311254 0.507520
vt 0.262138 0.248763
vt 0.234733 0.234569
vt 0.254295 0.209852
vt 0.289423 0.466953
vt 0.311254 0.426373
vt 0.346576 0.441860
vt 0.287416 0.234867
vt 0.062047 0.472871
vt 0.041907 0.448130
vt 0.078401 0.447987
vt 0.045779 0.155175
vt 0.039068 0.114755
vt 0.071084 0.129931
vt 0.492771 0.169210
vt 0.468176 0.180403
vt 0.468637 0.147072
vt 0.261140 0.070172
vt 0.254468 0.043280
vt 0.287028 0.043464
vt 0.288322 0.275045
vt 0.094081 0.479653
vt 0.071084 0.180078
vt 0.503513 0.141397
vt 0.286575 0.084427
vt 0.137989 0.358705
vt 0.133508 0.331844
vt 0.165754 0.351326
vt 0.165161 0.066114
vt 0.174085 0.040038
vt 0.193872 0.080410
vt 0.165161 0.244708
vt 0.171649 0.205351
vt 0.193872 0.230853
vt 0.541562 0.041063
vt 0.509738 0.039124
vt 0.531445 0.014234
vt 0.379092 0.159259
vt 0.386388 0.118509
vt 0.407417 0.158801
vt 0.491916 0.464620
vt 0.513748 0.424069
vt 0.523615 0.464533
vt 0.456993 0.464986
vt 0.477757 0.420213
vt 0.427718 0.465608
vt 0.442431 0.420756
vt 0.502692 0.380101
vt 0.466457 0.376129
vt 0.493212 0.343955
vt 0.416348 0.113848
vt 0.389795 0.073815
vt 0.435499 0.381135
vt 0.387295 0.036585
vt 0.416847 0.068768
vt 0.461113 0.344449
vt 0.566036 0.029159
vt 0.549071 0.439585
vt 0.540657 0.392662
vt 0.529357 0.348578
vt 0.576635 0.412581
vt 0.568231 0.365654
vt 0.599182 0.390504
vt 0.518268 0.319414
vt 0.472905 0.042089
vt 0.494536 0.011569
vt 0.555142 0.328729
vt 0.588915 0.350446
vt 0.174085 0.271622
vt 0.549071 0.489725
vt 0.579531 0.464917
vt 0.607105 0.437910
vt 0.576635 0.517539
vt 0.607105 0.493089
vt 0.599182 0.540923
vt 0.202052 0.183078
vt 0.174409 0.155115
vt 0.202052 0.127890
vt 0.171649 0.105056
vt 0.513748 0.505197
vt 0.540657 0.537124
vt 0.568231 0.565297
vt 0.502692 0.549928
vt 0.529357 0.582325
vt 0.493212 0.587341
vt 0.588915 0.581995
vt 0.555142 0.603515
vt 0.177062 0.415171
vt 0.158053 0.383482
vt 0.189379 0.379811
vt 0.518268 0.612940
vt 0.477757 0.509496
vt 0.466457 0.554696
vt 0.442431 0.510040
vt 0.461113 0.587835
vt 0.435499 0.550962
vt 0.390744 0.243666
vt 0.386842 0.199649
vt 0.416847 0.203144
vt 0.352815 0.134457
vt 0.319516 0.107198
vt 0.356257 0.087057
vt 0.319808 0.059527
vt 0.356756 0.041977
vt 0.320464 0.021450
vt 0.354175 0.011569
vt 0.594202 0.054570
vt 0.565708 0.063273
vt 0.530914 0.069432
vt 0.517234 0.105533
vt 0.493952 0.072315
vt 0.478875 0.111914
vt 0.455570 0.078560
vt 0.439985 0.050473
vt 0.444226 0.117412
vt 0.107389 0.293202
vt 0.139633 0.271317
vt 0.145043 0.300542
vt 0.138127 0.230359
vt 0.104237 0.207463
vt 0.140704 0.182534
vt 0.103813 0.154867
vt 0.140704 0.127346
vt 0.104237 0.102489
vt 0.138127 0.079916
vt 0.139633 0.039732
vt 0.132425 0.482277
vt 0.157437 0.450479
vt 0.168091 0.478870
vt 0.116712 0.450909
vt 0.145042 0.011569
vt 0.189415 0.446813
vt 0.140180 0.415630
vt 0.099599 0.415991
vt 0.121048 0.383873
vt 0.105879 0.351960
vt 0.067845 0.349185
vt 0.096473 0.323680
vt 0.320923 0.259199
vt 0.322000 0.296276
vt 0.358062 0.275758
vt 0.388655 0.280005
vt 0.357064 0.231541
vt 0.320102 0.212171
vt 0.353095 0.184603
vt 0.590069 0.092641
vt 0.555549 0.098891
vt 0.607896 0.122921
vt 0.578763 0.131713
vt 0.540471 0.138491
vt 0.284474 0.014245
vt 0.594196 0.158904
vt 0.561390 0.167964
vt 0.524607 0.171221
vt 0.105470 0.255131
vt 0.439985 0.154841
vt 0.070235 0.272539
vt 0.068578 0.227463
vt 0.042079 0.277812
vt 0.037218 0.240575
vt 0.039068 0.195896
vt 0.105470 0.055455
vt 0.068578 0.082977
vt 0.107389 0.018371
vt 0.070235 0.038754
vt 0.104474 0.507453
vt 0.037218 0.070721
vt 0.042079 0.034388
vt 0.067280 0.499366
vt 0.082761 0.380939
vt 0.059294 0.416219
vt 0.042599 0.381097
vt 0.032892 0.352246
vt 0.023208 0.416291
vt 0.011569 0.384303
vt 0.255762 0.274861
vt 0.319617 0.159795
vt 0.283476 0.187453
vt 0.283168 0.132266
vt 0.250772 0.159807
vt 0.253735 0.109559
vt 0.233892 0.084129
vt 0.374126 0.414251
vt 0.365708 0.366700
vt 0.396650 0.391204
vt 0.338154 0.394573
vt 0.386365 0.350389
vt 0.352596 0.328812
vt 0.326834 0.349655
vt 0.539650 0.197843
vt 0.300185 0.381831
vt 0.290683 0.344742
vt 0.315720 0.319414
vt 0.502768 0.195328
vt 0.263936 0.377271
vt 0.275255 0.422189
vt 0.258566 0.344507
vt 0.232955 0.381340
vt 0.239910 0.421931
vt 0.011569 0.200440
vt 0.254486 0.466779
vt 0.225190 0.466484
vt 0.019281 0.155524
vt 0.239910 0.511236
vt 0.275255 0.511494
vt 0.011569 0.111143
vt 0.263936 0.555882
vt 0.232955 0.551209
vt 0.258566 0.587952
vt 0.300185 0.551699
vt 0.290682 0.588187
vt 0.035035 0.479884
vt 0.225190 0.131938
vt 0.225498 0.187125
vt 0.404581 0.438937
vt 0.404581 0.494130
vt 0.377027 0.466811
vt 0.396650 0.541660
vt 0.374126 0.519235
vt 0.326834 0.583459
vt 0.338154 0.539072
vt 0.315720 0.613011
vt 0.011569 0.451322
vt 0.365708 0.566391
vt 0.352595 0.603665
vt 0.386365 0.581994
vt 0.839579 0.364416
vt 0.853592 0.387104
vt 0.833874 0.401208
vt 0.717894 0.343164
vt 0.744644 0.359354
vt 0.723294 0.381897
vt 0.821688 0.364303
vt 0.833874 0.327389
vt 0.853592 0.341482
vt 0.688132 0.359008
vt 0.806946 0.093007
vt 0.790639 0.102426
vt 0.790763 0.066312
vt 0.656401 0.530552
vt 0.651621 0.493775
vt 0.686213 0.507672
vt 0.657831 0.593709
vt 0.651621 0.567588
vt 0.687054 0.590414
vt 0.717894 0.420775
vt 0.722678 0.441964
vt 0.687751 0.441750
vt 0.687751 0.322318
vt 0.809844 0.061310
vt 0.686213 0.553291
vt 0.446578 0.864004
vt 0.427718 0.838371
vt 0.446629 0.832760
vt 0.688132 0.404626
vt 0.657425 0.319414
vt 0.652590 0.345048
vt 0.630243 0.345350
vt 0.716683 0.491774
vt 0.723006 0.471132
vt 0.744384 0.507915
vt 0.716683 0.569386
vt 0.721646 0.530498
vt 0.744384 0.553533
vt 0.446577 0.801182
vt 0.427718 0.801444
vt 0.434810 0.776053
vt 0.658073 0.381834
vt 0.652590 0.418861
vt 0.630624 0.382039
vt 0.823336 0.527275
vt 0.835522 0.490382
vt 0.841219 0.527035
vt 0.630243 0.419163
vt 0.657425 0.444993
vt 0.855240 0.504489
vt 0.849254 0.468130
vt 0.723006 0.590564
vt 0.855240 0.550100
vt 0.835522 0.564183
vt 0.849254 0.587544
vt 0.790763 0.029697
vt 0.774483 0.039225
vt 0.771558 0.011569
vt 0.687054 0.470981
vt 0.465408 0.826723
vt 0.465408 0.863649
vt 0.657831 0.468130
vt 0.771558 0.070813
vt 0.722678 0.322532
vt 0.744644 0.404972
vt 0.847586 0.304314
vt 0.829362 0.301183
vt 0.631083 0.567927
vt 0.630243 0.530805
vt 0.631083 0.494114
vt 0.809642 0.119742
vt 0.847586 0.423756
vt 0.839615 0.694946
vt 0.853627 0.717633
vt 0.833910 0.731738
vt 0.099220 0.554341
vt 0.125970 0.570531
vt 0.104620 0.593074
vt 0.821723 0.694832
vt 0.833910 0.657919
vt 0.853627 0.672011
vt 0.069458 0.570185
vt 0.184496 0.778594
vt 0.168189 0.788012
vt 0.168313 0.751899
vt 0.656401 0.679268
vt 0.651621 0.642491
vt 0.686213 0.656389
vt 0.657831 0.742425
vt 0.651621 0.716304
vt 0.687054 0.739130
vt 0.099220 0.631952
vt 0.104004 0.653141
vt 0.069077 0.652927
vt 0.069077 0.533495
vt 0.187394 0.746896
vt 0.686213 0.702007
vt 0.705024 0.853514
vt 0.686165 0.827880
vt 0.705076 0.822270
vt 0.069458 0.615803
vt 0.038751 0.530591
vt 0.033916 0.556225
vt 0.011569 0.556527
vt 0.716683 0.640491
vt 0.723006 0.619848
vt 0.744384 0.656632
vt 0.716683 0.718102
vt 0.721646 0.679214
vt 0.744384 0.702250
vt 0.705024 0.790692
vt 0.686165 0.790954
vt 0.693256 0.765563
vt 0.039399 0.593011
vt 0.033916 0.630038
vt 0.011950 0.593216
vt 0.832982 0.070713
vt 0.845169 0.033820
vt 0.850865 0.070473
vt 0.011569 0.630340
vt 0.038751 0.656170
vt 0.864887 0.047927
vt 0.858900 0.011569
vt 0.723006 0.739280
vt 0.864887 0.093539
vt 0.845169 0.107622
vt 0.858900 0.130982
vt 0.168313 0.715284
vt 0.152033 0.724811
vt 0.149108 0.697155
vt 0.687054 0.619698
vt 0.723854 0.816232
vt 0.723854 0.853159
vt 0.657831 0.616847
vt 0.149108 0.756400
vt 0.104004 0.533709
vt 0.125970 0.616149
vt 0.847622 0.634843
vt 0.829398 0.631712
vt 0.631083 0.716643
vt 0.630243 0.679521
vt 0.631083 0.642831
vt 0.187193 0.805328
vt 0.847622 0.754285
vt 0.688520 0.071131
vt 0.691283 0.107112
vt 0.654822 0.084763
vt 0.856112 0.213719
vt 0.856847 0.245013
vt 0.827905 0.237157
vt 0.664824 0.043188
vt 0.707467 0.039842
vt 0.723819 0.079349
vt 0.827905 0.195081
vt 0.294372 0.725241
vt 0.257270 0.731976
vt 0.274136 0.695200
vt 0.075931 0.769652
vt 0.048508 0.790792
vt 0.041942 0.754047
vt 0.456384 0.725113
vt 0.427718 0.729121
vt 0.435975 0.693354
vt 0.525562 0.727276
vt 0.493486 0.731856
vt 0.517283 0.696316
vt 0.856847 0.176932
vt 0.314782 0.693477
vt 0.078880 0.732492
vt 0.476621 0.695044
vt 0.793596 0.250946
vt 0.760644 0.234220
vt 0.791159 0.216963
vt 0.659393 0.272635
vt 0.631034 0.248220
vt 0.667963 0.247679
vt 0.728583 0.250196
vt 0.696838 0.269641
vt 0.708632 0.234490
vt 0.075930 0.697204
vt 0.041941 0.711464
vt 0.048507 0.679307
vt 0.496870 0.664649
vt 0.459772 0.657815
vt 0.490020 0.636078
vt 0.793595 0.179362
vt 0.760644 0.192143
vt 0.778531 0.154923
vt 0.642828 0.213069
vt 0.667963 0.178490
vt 0.679458 0.212833
vt 0.631034 0.179031
vt 0.659393 0.154923
vt 0.708632 0.191729
vt 0.696838 0.157691
vt 0.728583 0.177447
vt 0.737506 0.213691
vt 0.013087 0.733877
vt 0.011569 0.700863
vt 0.290984 0.657939
vt 0.253886 0.664780
vt 0.260734 0.636149
vt 0.820100 0.156738
vt 0.525564 0.659872
vt 0.427718 0.661774
vt 0.323036 0.661848
vt 0.233473 0.696438
vt 0.225190 0.659943
vt 0.108275 0.713331
vt 0.108275 0.755914
vt 0.011569 0.769764
vt 0.323036 0.729188
vt 0.225192 0.727348
vt 0.742675 0.047730
vt 0.748420 0.084552
vt 0.463262 0.752916
vt 0.683679 0.011569
vt 0.720599 0.017338
vt 0.648050 0.023031
vt 0.631034 0.056491
vt 0.631034 0.093764
vt 0.820101 0.266894
vt 0.726491 0.115000
vt 0.287492 0.752982
vt 0.657494 0.120415
vt 0.693066 0.131785
vt 0.459897 0.288373
vt 0.459330 0.220990
vt 0.460949 0.220980
vt 0.479326 0.288261
vt 0.564480 0.288491
vt 0.579107 0.221006
vt 0.580867 0.221006
vt 0.585610 0.288491
vt 0.582325 0.220980
vt 0.603101 0.288177
vt 0.918064 0.367755
vt 0.927518 0.301183
vt 0.929337 0.301183
vt 0.939897 0.367755
vt 0.502464 0.288178
vt 0.522871 0.220980
vt 0.524369 0.221007
vt 0.520435 0.288495
vt 0.969730 0.598849
vt 0.968307 0.597714
vt 0.968307 0.595894
vt 0.969730 0.594760
vt 0.971504 0.595165
vt 0.972293 0.596805
vt 0.971504 0.598444
vt 0.526111 0.221007
vt 0.541342 0.288495
vt 0.439985 0.288260
vt 0.457670 0.220980
vt 0.011569 0.849383
vt 0.011569 0.827544
vt 0.028642 0.813930
vt 0.049931 0.818792
vt 0.059405 0.838470
vt 0.049931 0.858145
vt 0.028642 0.863002
vt 0.951589 0.066891
vt 0.931921 0.056875
vt 0.951724 0.049967
vt 0.456732 0.913685
vt 0.445429 0.929434
vt 0.434684 0.913685
vt 0.937268 0.107957
vt 0.931921 0.090029
vt 0.952886 0.096847
vt 0.952886 0.118899
vt 0.931921 0.125710
vt 0.445787 0.887547
vt 0.932005 0.029110
vt 0.029111 0.929758
vt 0.011569 0.927996
vt 0.019438 0.902800
vt 0.047201 0.929758
vt 0.041460 0.903890
vt 0.566836 0.978491
vt 0.547040 0.971564
vt 0.566763 0.950709
vt 0.463394 0.887142
vt 0.951724 0.021967
vt 0.547040 0.943578
vt 0.427718 0.887142
vt 0.967471 0.660574
vt 0.967471 0.638522
vt 0.983200 0.649457
vt 0.931921 0.011569
vt 0.031550 0.886140
vt 0.566836 0.933209
vt 0.988431 0.631712
vt 0.930567 0.442458
vt 0.942025 0.391417
vt 0.943662 0.391611
vt 0.943662 0.444012
vt 0.920665 0.902986
vt 0.929314 0.852219
vt 0.931093 0.852219
vt 0.934896 0.902986
vt 0.932502 0.852170
vt 0.946173 0.902588
vt 0.387445 0.979254
vt 0.393815 0.932137
vt 0.395635 0.932137
vt 0.402005 0.979254
vt 0.919708 0.518570
vt 0.933765 0.468130
vt 0.935182 0.468234
vt 0.931046 0.519399
vt 0.969311 0.895212
vt 0.970095 0.893584
vt 0.971856 0.893145
vt 0.973268 0.894226
vt 0.973268 0.896013
vt 0.971856 0.897160
vt 0.970095 0.896804
vt 0.936958 0.468234
vt 0.945254 0.519399
vt 0.918064 0.438265
vt 0.940463 0.390893
vt 0.941172 0.926124
vt 0.952552 0.935052
vt 0.952552 0.949285
vt 0.941172 0.958105
vt 0.926981 0.954871
vt 0.920665 0.942018
vt 0.926981 0.929224
vt 0.931215 0.682286
vt 0.931215 0.631725
vt 0.932855 0.631712
vt 0.944333 0.682186
vt 0.630243 0.946803
vt 0.638859 0.896071
vt 0.640640 0.896071
vt 0.644493 0.946803
vt 0.642042 0.896026
vt 0.655711 0.946440
vt 0.966800 0.441462
vt 0.973170 0.390893
vt 0.974990 0.390893
vt 0.981360 0.441462
vt 0.919708 0.592977
vt 0.933777 0.542537
vt 0.935178 0.542637
vt 0.930917 0.593779
vt 0.968392 0.515360
vt 0.969181 0.513721
vt 0.970956 0.513317
vt 0.972379 0.514451
vt 0.972379 0.516270
vt 0.970956 0.517403
vt 0.969181 0.516999
vt 0.936959 0.542637
vt 0.945169 0.593779
vt 0.918097 0.682186
vt 0.929575 0.631712
vt 0.891210 0.913334
vt 0.897527 0.926446
vt 0.891210 0.939562
vt 0.877017 0.942805
vt 0.865634 0.933734
vt 0.865634 0.919179
vt 0.877017 0.910100
vt 0.931215 0.752220
vt 0.931215 0.705424
vt 0.932855 0.705569
vt 0.944333 0.753376
vt 0.923884 0.205644
vt 0.932485 0.154962
vt 0.934268 0.154962
vt 0.938152 0.205644
vt 0.935664 0.154923
vt 0.949316 0.205329
vt 0.963035 0.353188
vt 0.969404 0.301183
vt 0.971224 0.301183
vt 0.977594 0.353188
vt 0.920665 0.828289
vt 0.934718 0.777848
vt 0.936103 0.777941
vt 0.931751 0.829032
vt 0.969957 0.822491
vt 0.969179 0.820849
vt 0.969957 0.819213
vt 0.971704 0.818816
vt 0.973105 0.819956
vt 0.973105 0.821776
vt 0.971704 0.822904
vt 0.937890 0.777941
vt 0.946041 0.829032
vt 0.918097 0.753376
vt 0.929575 0.705569
vt 0.949340 0.257642
vt 0.935213 0.261065
vt 0.923885 0.252287
vt 0.923885 0.237920
vt 0.935213 0.228781
vt 0.949340 0.231753
vt 0.955627 0.244598
vt 0.873301 0.975004
vt 0.876120 0.983778
vt 0.865634 0.980375
vt 0.882600 0.974859
vt 0.865634 0.969353
vt 0.876120 0.965943
vt 0.322508 0.779448
vt 0.322508 0.790472
vt 0.313189 0.784923
vt 0.981873 0.165464
vt 0.972454 0.170073
vt 0.972509 0.159644
vt 0.969311 0.860974
vt 0.969758 0.852170
vt 0.978792 0.855482
vt 0.969758 0.870007
vt 0.978792 0.866506
vt 0.984276 0.026723
vt 0.974862 0.022103
vt 0.984228 0.016286
vt 0.312987 0.776120
vt 0.981873 0.154923
vt 0.974862 0.011569
vt 0.312987 0.793957
vt 0.967471 0.750365
vt 0.967471 0.739339
vt 0.975255 0.744820
vt 0.977951 0.753775
vt 0.984428 0.744856
vt 0.977951 0.735934
vt 0.599189 0.942908
vt 0.589974 0.942876
vt 0.596452 0.933956
vt 0.596452 0.951797
vt 0.606934 0.937365
vt 0.606934 0.948391
vt 0.322508 0.820424
vt 0.322508 0.831448
vt 0.313189 0.825899
vt 0.200725 0.973343
vt 0.191306 0.977952
vt 0.191361 0.967523
vt 0.312987 0.866875
vt 0.313434 0.858071
vt 0.322467 0.861383
vt 0.313434 0.875908
vt 0.322467 0.872407
vt 0.984276 0.065015
vt 0.974862 0.060395
vt 0.984228 0.054578
vt 0.312987 0.817095
vt 0.200725 0.962802
vt 0.974862 0.049861
vt 0.312987 0.834933
vt 0.979666 0.795678
vt 0.969179 0.792271
vt 0.976797 0.786561
vt 0.986146 0.786764
vt 0.979665 0.777848
vt 0.969179 0.781252
vt 0.589974 0.903618
vt 0.602237 0.802365
vt 0.605302 0.803805
vt 0.605302 0.910819
vt 0.767782 0.444993
vt 0.767782 0.301977
vt 0.771396 0.301828
vt 0.785855 0.444248
vt 0.773935 0.301183
vt 0.798550 0.441022
vt 0.878378 0.590729
vt 0.887819 0.468130
vt 0.891458 0.468130
vt 0.896570 0.590729
vt 0.346174 0.777188
vt 0.360647 0.636305
vt 0.363833 0.636149
vt 0.362104 0.776408
vt 0.354323 0.804435
vt 0.351855 0.806584
vt 0.348228 0.806478
vt 0.346174 0.804198
vt 0.347239 0.801460
vt 0.350621 0.800326
vt 0.353774 0.801650
vt 0.367196 0.636305
vt 0.378917 0.777188
vt 0.346174 0.907507
vt 0.364308 0.908033
vt 0.514505 0.938888
vt 0.500104 0.946433
vt 0.488551 0.938888
vt 0.488546 0.921934
vt 0.500092 0.908338
vt 0.514495 0.908338
vt 0.520909 0.921934
vt 0.646794 0.868054
vt 0.644231 0.765563
vt 0.647478 0.766530
vt 0.663027 0.872888
vt 0.548702 0.779227
vt 0.558182 0.636175
vt 0.561720 0.636175
vt 0.566390 0.779227
vt 0.564595 0.636078
vt 0.580767 0.778738
vt 0.876765 0.754710
vt 0.885857 0.631712
vt 0.889496 0.631712
vt 0.894959 0.754710
vt 0.149108 0.673180
vt 0.166117 0.530591
vt 0.169056 0.530759
vt 0.163801 0.674018
vt 0.742976 0.950314
vt 0.742976 0.953824
vt 0.740636 0.956441
vt 0.737718 0.956194
vt 0.736419 0.953268
vt 0.737718 0.949868
vt 0.740636 0.948553
vt 0.172567 0.530759
vt 0.181355 0.674018
vt 0.630243 0.872888
vt 0.640921 0.766530
vt 0.149108 0.926417
vt 0.149108 0.908924
vt 0.160533 0.900357
vt 0.174780 0.907167
vt 0.181121 0.924227
vt 0.174780 0.938689
vt 0.160533 0.939664
vt 0.548702 0.910072
vt 0.561155 0.808622
vt 0.564781 0.808517
vt 0.566836 0.909545
vt 0.767522 0.608575
vt 0.778217 0.468324
vt 0.781618 0.468130
vt 0.784527 0.607604
vt 0.784752 0.468324
vt 0.800198 0.608575
vt 0.876730 0.424504
vt 0.885409 0.301183
vt 0.889049 0.301183
vt 0.894926 0.424504
vt 0.767522 0.771040
vt 0.792373 0.631712
vt 0.794983 0.632413
vt 0.780573 0.774545
vt 0.558687 0.806473
vt 0.559236 0.803688
vt 0.562389 0.802365
vt 0.565771 0.803499
vt 0.566836 0.806237
vt 0.798585 0.632540
vt 0.798585 0.775180
vt 0.387445 0.908999
vt 0.387445 0.801620
vt 0.390637 0.800326
vt 0.403403 0.902532
vt 0.275491 0.938928
vt 0.269087 0.921974
vt 0.275501 0.908378
vt 0.289904 0.908378
vt 0.301450 0.921974
vt 0.301445 0.938928
vt 0.289892 0.946473
s 1
usemtl mob_ayam_mat.003
f 1/1/1 2/2/2 4/3/3 3/4/4
f 3/5/4 4/6/3 6/7/5 5/8/6
f 5/8/6 6/7/5 8/9/7 7/10/8
f 7/11/8 8/12/7 10/13/9 9/14/10
f 9/14/10 10/13/9 12/15/11 11/16/12
f 11/17/12 12/18/11 14/19/13 13/20/14
f 4/21/3 2/22/2 16/23/15 14/24/13 12/25/11 10/26/9 8/27/7 6/28/5
f 13/20/14 14/19/13 16/29/15 15/30/16
f 15/31/16 16/32/15 2/2/2 1/1/1
f 1/33/1 3/34/4 5/35/6 7/36/8 9/37/10 11/38/12 13/39/14 15/40/16
f 17/41/17 18/42/18 19/43/19
f 18/42/18 17/41/17 22/44/20
f 17/41/17 19/43/19 20/45/21
f 17/41/17 20/45/21 21/46/22
f 17/41/17 21/46/22 22/44/20
f 18/47/18 22/48/20 27/49/23
f 19/50/19 18/51/18 23/52/24
f 20/53/21 19/50/19 24/54/25
f 21/55/22 20/56/21 25/57/26
f 22/58/20 21/55/22 26/59/27
f 18/51/18 27/60/23 23/52/24
f 19/50/19 23/52/24 24/54/25
f 20/61/21 24/62/25 25/63/26
f 21/55/22 25/57/26 26/59/27
f 22/48/20 26/64/27 27/49/23
f 23/65/24 27/66/23 28/67/28
f 24/68/25 23/65/24 28/67/28
f 25/69/26 24/68/25 28/67/28
f 26/70/27 25/69/26 28/67/28
f 27/66/23 26/70/27 28/67/28
f 29/71/1 30/72/2 32/73/3 31/74/4
f 31/75/4 32/76/3 34/77/5 33/78/6
f 33/78/6 34/77/5 36/79/7 35/80/8
f 35/81/8 36/82/7 38/83/9 37/84/10
f 37/84/10 38/83/9 40/85/11 39/86/12
f 39/87/12 40/88/11 42/89/13 41/90/14
f 32/91/3 30/92/2 44/93/15 42/94/13 40/95/11 38/96/9 36/97/7 34/98/5
f 41/90/14 42/89/13 44/99/15 43/100/16
f 43/101/16 44/102/15 30/72/2 29/71/1
f 29/103/1 31/104/4 33/105/6 35/106/8 37/107/10 39/108/12 41/109/14 43/110/16
f 45/111/17 46/112/18 47/113/19
f 46/112/18 45/111/17 50/114/20
f 45/111/17 47/113/19 48/115/29
f 45/111/17 48/115/29 49/116/22
f 45/111/17 49/116/22 50/114/20
f 46/117/18 50/118/20 55/119/23
f 47/120/19 46/121/18 51/122/24
f 48/123/29 47/120/19 52/124/25
f 49/125/22 48/126/29 53/127/26
f 50/128/20 49/125/22 54/129/27
f 46/121/18 55/130/23 51/122/24
f 47/120/19 51/122/24 52/124/25
f 48/131/29 52/132/25 53/133/26
f 49/125/22 53/127/26 54/129/27
f 50/118/20 54/134/27 55/119/23
f 51/135/24 55/136/23 56/137/28
f 52/138/25 51/135/24 56/137/28
f 53/139/26 52/138/25 56/137/28
f 54/140/27 53/139/26 56/137/28
f 55/136/23 54/140/27 56/137/28
f 57/141/30 72/142/31 71/143/32
f 58/144/33 74/145/34 80/146/35
f 57/141/30 71/143/32 86/147/36
f 57/141/30 86/147/36 92/148/37
f 57/141/30 92/148/37 81/149/38
f 58/144/33 80/146/35 101/150/39
f 59/151/40 77/152/41 107/153/42
f 60/154/43 89/155/44 113/156/45
f 61/157/46 95/158/47 119/159/48
f 62/160/49 98/161/50 125/162/51
f 58/144/33 101/150/39 108/163/52
f 59/151/40 107/153/42 114/164/53
f 60/154/43 113/156/45 120/165/54
f 61/157/46 119/159/48 126/166/55
f 62/160/49 125/162/51 102/167/56
f 63/168/57 131/169/58 146/170/59
f 64/171/60 134/172/61 152/173/62
f 65/174/63 137/175/64 155/176/65
f 66/177/66 140/178/67 158/179/68
f 67/180/69 143/181/70 147/182/71
f 149/183/72 156/184/73 68/185/74
f 148/186/75 159/187/76 149/183/72
f 147/188/71 160/189/77 148/186/75
f 149/183/72 159/187/76 156/184/73
f 159/187/76 157/190/78 156/184/73
f 148/186/75 160/189/77 159/187/76
f 160/189/77 161/191/79 159/187/76
f 159/187/76 161/191/79 157/190/78
f 161/191/79 158/192/68 157/190/78
f 147/182/71 143/181/70 160/193/77
f 143/181/70 142/194/80 160/193/77
f 160/189/77 142/195/80 161/191/79
f 142/194/80 141/196/81 161/197/79
f 161/191/79 141/198/81 158/192/68
f 141/199/81 66/177/66 158/179/68
f 156/184/73 153/200/82 68/185/74
f 157/190/78 162/201/83 156/184/73
f 158/192/68 163/202/84 157/190/78
f 156/184/73 162/201/83 153/200/82
f 162/201/83 154/203/85 153/200/82
f 157/190/78 163/202/84 162/201/83
f 163/202/84 164/204/86 162/201/83
f 162/201/83 164/204/86 154/203/85
f 164/204/86 155/205/65 154/203/85
f 158/192/68 140/206/67 163/202/84
f 140/178/67 139/207/87 163/208/84
f 163/202/84 139/209/87 164/204/86
f 139/209/87 138/210/88 164/204/86
f 164/204/86 138/210/88 155/205/65
f 138/211/88 65/174/63 155/176/65
f 153/200/82 150/212/89 68/185/74
f 154/203/85 165/213/90 153/200/82
f 155/205/65 166/214/91 154/203/85
f 153/200/82 165/213/90 150/212/89
f 165/213/90 151/215/92 150/212/89
f 154/203/85 166/214/91 165/213/90
f 166/214/91 167/216/93 165/213/90
f 165/213/90 167/216/93 151/215/92
f 167/216/93 152/217/62 151/215/92
f 155/176/65 137/175/64 166/218/91
f 137/175/64 136/219/94 166/218/91
f 166/218/91 136/219/94 167/220/93
f 136/219/94 135/221/95 167/220/93
f 167/220/93 135/221/95 152/173/62
f 135/221/95 64/171/60 152/173/62
f 150/212/89 144/222/96 68/185/74
f 151/215/92 168/223/97 150/212/89
f 152/217/62 169/224/98 151/215/92
f 150/212/89 168/223/97 144/222/96
f 168/223/97 145/225/99 144/222/96
f 151/215/92 169/224/98 168/223/97
f 169/224/98 170/226/100 168/223/97
f 168/223/97 170/226/100 145/225/99
f 170/226/100 146/227/59 145/225/99
f 152/217/62 134/228/61 169/224/98
f 134/228/61 133/229/101 169/224/98
f 169/224/98 133/229/101 170/226/100
f 133/230/101 132/231/102 170/232/100
f 170/226/100 132/233/102 146/227/59
f 132/231/102 63/168/57 146/170/59
f 144/222/96 149/183/72 68/185/74
f 145/225/99 171/234/103 144/222/96
f 146/227/59 172/235/104 145/225/99
f 144/222/96 171/234/103 149/183/72
f 171/234/103 148/186/75 149/183/72
f 145/225/99 172/235/104 171/234/103
f 172/235/104 173/236/105 171/234/103
f 171/234/103 173/236/105 148/186/75
f 173/236/105 147/188/71 148/186/75
f 146/227/59 131/237/58 172/235/104
f 131/237/58 130/238/106 172/235/104
f 172/235/104 130/238/106 173/236/105
f 130/239/106 129/240/107 173/241/105
f 173/241/105 129/240/107 147/182/71
f 129/240/107 67/180/69 147/182/71
f 104/242/108 143/181/70 67/180/69
f 103/243/109 174/244/110 104/242/108
f 102/167/56 175/245/111 103/243/109
f 104/242/108 174/244/110 143/181/70
f 174/244/110 142/194/80 143/181/70
f 103/243/109 175/245/111 174/244/110
f 175/245/111 176/246/112 174/244/110
f 174/244/110 176/246/112 142/194/80
f 176/246/112 141/196/81 142/194/80
f 102/167/56 125/162/51 175/245/111
f 125/162/51 124/247/113 175/245/111
f 175/245/111 124/247/113 176/246/112
f 124/247/113 123/248/114 176/246/112
f 176/249/112 123/250/114 141/199/81
f 123/250/114 66/177/66 141/199/81
f 128/251/115 140/178/67 66/177/66
f 127/252/116 177/253/117 128/251/115
f 126/166/55 178/254/118 127/252/116
f 128/251/115 177/253/117 140/178/67
f 177/253/117 139/207/87 140/178/67
f 127/252/116 178/254/118 177/253/117
f 178/254/118 179/255/119 177/253/117
f 177/253/117 179/255/119 139/207/87
f 179/255/119 138/256/88 139/207/87
f 126/166/55 119/159/48 178/254/118
f 119/159/48 118/257/120 178/254/118
f 178/254/118 118/257/120 179/255/119
f 118/258/120 117/259/121 179/260/119
f 179/260/119 117/259/121 138/211/88
f 117/259/121 65/174/63 138/211/88
f 122/261/122 137/175/64 65/174/63
f 121/262/123 180/263/124 122/261/122
f 120/165/54 181/264/125 121/262/123
f 122/261/122 180/263/124 137/175/64
f 180/263/124 136/219/94 137/175/64
f 121/262/123 181/264/125 180/263/124
f 181/264/125 182/265/126 180/263/124
f 180/263/124 182/265/126 136/219/94
f 182/265/126 135/221/95 136/219/94
f 120/165/54 113/156/45 181/264/125
f 113/156/45 112/266/127 181/264/125
f 181/264/125 112/266/127 182/265/126
f 112/266/127 111/267/128 182/265/126
f 182/265/126 111/267/128 135/221/95
f 111/267/128 64/171/60 135/221/95
f 116/268/129 134/172/61 64/171/60
f 115/269/130 183/270/131 116/271/129
f 114/164/53 184/272/132 115/269/130
f 116/268/129 183/273/131 134/172/61
f 183/270/131 133/230/101 134/274/61
f 115/269/130 184/272/132 183/270/131
f 184/272/132 185/275/133 183/270/131
f 183/270/131 185/275/133 133/230/101
f 185/275/133 132/231/102 133/230/101
f 114/164/53 107/153/42 184/272/132
f 107/153/42 106/276/134 184/272/132
f 184/272/132 106/276/134 185/275/133
f 106/276/134 105/277/135 185/275/133
f 185/275/133 105/277/135 132/231/102
f 105/277/135 63/168/57 132/231/102
f 110/278/136 131/169/58 63/168/57
f 109/279/137 186/280/138 110/278/136
f 108/163/52 187/281/139 109/282/137
f 110/278/136 186/280/138 131/169/58
f 186/283/138 130/239/106 131/284/58
f 109/282/137 187/281/139 186/283/138
f 187/281/139 188/285/140 186/283/138
f 186/283/138 188/285/140 130/239/106
f 188/285/140 129/240/107 130/239/106
f 108/163/52 101/150/39 187/281/139
f 101/150/39 100/286/141 187/281/139
f 187/281/139 100/286/141 188/285/140
f 100/286/141 99/287/142 188/285/140
f 188/285/140 99/287/142 129/240/107
f 99/287/142 67/180/69 129/240/107
f 123/250/114 128/251/115 66/177/66
f 124/288/113 189/289/143 123/250/114
f 125/290/51 190/291/144 124/288/113
f 123/250/114 189/289/143 128/251/115
f 189/289/143 127/252/116 128/251/115
f 124/288/113 190/291/144 189/289/143
f 190/291/144 191/292/145 189/289/143
f 189/289/143 191/292/145 127/252/116
f 191/292/145 126/166/55 127/252/116
f 125/162/51 98/161/50 190/293/144
f 98/294/50 97/295/146 190/291/144
f 190/291/144 97/295/146 191/292/145
f 97/295/146 96/296/147 191/292/145
f 191/292/145 96/296/147 126/166/55
f 96/296/147 61/157/46 126/166/55
f 117/259/121 122/261/122 65/174/63
f 118/258/120 192/297/148 117/259/121
f 119/159/48 193/298/149 118/257/120
f 117/259/121 192/297/148 122/261/122
f 192/297/148 121/262/123 122/261/122
f 118/258/120 193/299/149 192/297/148
f 193/299/149 194/300/150 192/297/148
f 192/297/148 194/300/150 121/262/123
f 194/300/150 120/165/54 121/262/123
f 119/159/48 95/158/47 193/298/149
f 95/301/47 94/302/151 193/299/149
f 193/299/149 94/302/151 194/300/150
f 94/302/151 93/303/152 194/300/150
f 194/300/150 93/303/152 120/165/54
f 93/303/152 60/154/43 120/165/54
f 111/267/128 116/268/129 64/171/60
f 112/266/127 195/304/153 111/267/128
f 113/156/45 196/305/154 112/266/127
f 111/267/128 195/304/153 116/268/129
f 195/304/153 115/306/130 116/268/129
f 112/266/127 196/305/154 195/304/153
f 196/305/154 197/307/155 195/304/153
f 195/304/153 197/307/155 115/306/130
f 197/308/155 114/164/53 115/269/130
f 113/156/45 89/155/44 196/305/154
f 89/155/44 88/309/156 196/305/154
f 196/305/154 88/309/156 197/307/155
f 88/309/156 87/310/157 197/307/155
f 197/308/155 87/311/157 114/164/53
f 87/311/157 59/151/40 114/164/53
f 105/277/135 110/278/136 63/168/57
f 106/276/134 198/312/158 105/277/135
f 107/153/42 199/313/159 106/276/134
f 105/277/135 198/312/158 110/278/136
f 198/312/158 109/279/137 110/278/136
f 106/276/134 199/313/159 198/312/158
f 199/313/159 200/314/160 198/312/158
f 198/312/158 200/314/160 109/279/137
f 200/314/160 108/315/52 109/279/137
f 107/153/42 77/152/41 199/313/159
f 77/152/41 76/316/161 199/313/159
f 199/313/159 76/316/161 200/314/160
f 76/316/161 75/317/162 200/314/160
f 200/314/160 75/317/162 108/315/52
f 75/318/162 58/144/33 108/163/52
f 99/287/142 104/242/108 67/180/69
f 100/286/141 201/319/163 99/287/142
f 101/150/39 202/320/164 100/286/141
f 99/287/142 201/319/163 104/242/108
f 201/319/163 103/243/109 104/242/108
f 100/286/141 202/320/164 201/319/163
f 202/320/164 203/321/165 201/319/163
f 201/319/163 203/321/165 103/243/109
f 203/321/165 102/167/56 103/243/109
f 101/150/39 80/146/35 202/320/164
f 80/146/35 79/322/166 202/320/164
f 202/320/164 79/322/166 203/321/165
f 79/322/166 78/323/167 203/321/165
f 203/321/165 78/323/167 102/167/56
f 78/323/167 62/160/49 102/167/56
f 83/324/168 98/161/50 62/160/49
f 82/325/169 204/326/170 83/327/168
f 81/149/38 205/328/171 82/325/169
f 83/327/168 204/326/170 98/329/50
f 204/326/170 97/330/146 98/329/50
f 82/325/169 205/328/171 204/326/170
f 205/328/171 206/331/172 204/326/170
f 204/326/170 206/331/172 97/330/146
f 206/332/172 96/296/147 97/295/146
f 81/149/38 92/148/37 205/328/171
f 92/148/37 91/333/173 205/328/171
f 205/328/171 91/333/173 206/331/172
f 91/333/173 90/334/174 206/331/172
f 206/331/172 90/334/174 96/335/147
f 90/336/174 61/157/46 96/296/147
f 90/336/174 95/158/47 61/157/46
f 91/333/173 207/337/175 90/334/174
f 92/148/37 208/338/176 91/333/173
f 90/334/174 207/337/175 95/339/47
f 207/337/175 94/340/151 95/339/47
f 91/333/173 208/338/176 207/337/175
f 208/338/176 209/341/177 207/337/175
f 207/337/175 209/341/177 94/340/151
f 209/342/177 93/303/152 94/302/151
f 92/148/37 86/147/36 208/338/176
f 86/147/36 85/343/178 208/338/176
f 208/338/176 85/343/178 209/341/177
f 85/343/178 84/344/179 209/341/177
f 209/342/177 84/345/179 93/303/152
f 84/345/179 60/154/43 93/303/152
f 84/345/179 89/155/44 60/154/43
f 85/343/178 210/346/180 84/344/179
f 86/147/36 211/347/181 85/343/178
f 84/345/179 210/348/180 89/155/44
f 210/348/180 88/309/156 89/155/44
f 85/343/178 211/347/181 210/346/180
f 211/347/181 212/349/182 210/346/180
f 210/346/180 212/349/182 88/350/156
f 212/349/182 87/351/157 88/350/156
f 86/147/36 71/143/32 211/347/181
f 71/143/32 70/352/183 211/347/181
f 211/347/181 70/352/183 212/349/182
f 70/352/183 69/353/184 212/349/182
f 212/349/182 69/353/184 87/351/157
f 69/354/184 59/151/40 87/311/157
f 78/323/167 83/324/168 62/160/49
f 79/322/166 213/355/185 78/323/167
f 80/146/35 214/356/186 79/322/166
f 78/323/167 213/355/185 83/324/168
f 213/357/185 82/325/169 83/327/168
f 79/322/166 214/356/186 213/355/185
f 214/358/186 215/359/187 213/357/185
f 213/357/185 215/359/187 82/325/169
f 215/359/187 81/149/38 82/325/169
f 80/146/35 74/145/34 214/356/186
f 74/360/34 73/361/188 214/358/186
f 214/358/186 73/361/188 215/359/187
f 73/361/188 72/142/31 215/359/187
f 215/359/187 72/142/31 81/149/38
f 72/142/31 57/141/30 81/149/38
f 69/354/184 77/152/41 59/151/40
f 70/352/183 216/362/189 69/353/184
f 71/143/32 217/363/190 70/352/183
f 69/353/184 216/362/189 77/364/41
f 216/365/189 76/316/161 77/152/41
f 70/352/183 217/363/190 216/362/189
f 217/363/190 218/366/191 216/362/189
f 216/362/189 218/366/191 76/367/161
f 218/366/191 75/368/162 76/367/161
f 71/143/32 72/142/31 217/363/190
f 72/142/31 73/361/188 217/363/190
f 217/363/190 73/361/188 218/366/191
f 73/361/188 74/360/34 218/366/191
f 218/366/191 74/360/34 75/368/162
f 74/145/34 58/144/33 75/318/162
f 219/369/192 232/370/193 231/371/194
f 220/372/195 232/373/193 234/374/196
f 219/369/192 231/371/194 236/375/197
f 219/369/192 236/375/197 238/376/198
f 219/369/192 238/376/198 235/377/199
f 220/372/195 234/374/196 241/378/200
f 221/379/201 233/380/202 243/381/203
f 222/382/204 237/383/205 245/384/206
f 223/385/207 239/386/208 247/387/209
f 224/388/210 240/389/211 249/390/212
f 220/372/195 241/378/200 244/391/213
f 221/379/201 243/381/203 246/392/214
f 222/382/204 245/384/206 248/393/215
f 223/394/207 247/395/209 250/396/216
f 224/388/210 249/390/212 242/397/217
f 225/398/218 251/399/219 256/400/220
f 226/401/221 252/402/222 258/403/223
f 227/404/224 253/405/225 259/406/226
f 228/407/227 254/408/228 260/409/229
f 229/410/230 255/411/231 257/412/232
f 257/413/232 260/414/229 230/415/233
f 257/412/232 255/411/231 260/416/229
f 255/411/231 228/417/227 260/416/229
f 260/414/229 259/418/226 230/415/233
f 260/414/229 254/419/228 259/418/226
f 254/420/228 227/404/224 259/406/226
f 259/418/226 258/421/223 230/415/233
f 259/406/226 253/405/225 258/403/223
f 253/405/225 226/401/221 258/403/223
f 258/421/223 256/422/220 230/415/233
f 258/421/223 252/423/222 256/422/220
f 252/424/222 225/425/218 256/426/220
f 256/422/220 257/413/232 230/415/233
f 256/400/220 251/399/219 257/412/232
f 251/399/219 229/410/230 257/412/232
f 242/397/217 255/411/231 229/410/230
f 242/397/217 249/390/212 255/411/231
f 249/390/212 228/417/227 255/411/231
f 250/396/216 254/408/228 228/407/227
f 250/396/216 247/395/209 254/408/228
f 247/387/209 227/404/224 254/420/228
f 248/393/215 253/405/225 227/404/224
f 248/393/215 245/384/206 253/405/225
f 245/384/206 226/401/221 253/405/225
f 246/427/214 252/402/222 226/401/221
f 246/392/214 243/381/203 252/424/222
f 243/381/203 225/425/218 252/424/222
f 244/391/213 251/399/219 225/398/218
f 244/391/213 241/378/200 251/399/219
f 241/378/200 229/410/230 251/399/219
f 249/428/212 250/396/216 228/407/227
f 249/428/212 240/429/211 250/396/216
f 240/429/211 223/394/207 250/396/216
f 247/387/209 248/393/215 227/404/224
f 247/387/209 239/386/208 248/393/215
f 239/386/208 222/382/204 248/393/215
f 245/384/206 246/427/214 226/401/221
f 245/384/206 237/383/205 246/427/214
f 237/383/205 221/430/201 246/427/214
f 243/381/203 244/431/213 225/425/218
f 243/381/203 233/380/202 244/431/213
f 233/432/202 220/372/195 244/391/213
f 241/378/200 242/397/217 229/410/230
f 241/378/200 234/374/196 242/397/217
f 234/374/196 224/388/210 242/397/217
f 235/433/199 240/389/211 224/388/210
f 235/377/199 238/376/198 240/434/211
f 238/376/198 223/435/207 240/434/211
f 238/436/198 239/386/208 223/385/207
f 238/436/198 236/437/197 239/386/208
f 236/437/197 222/382/204 239/386/208
f 236/437/197 237/383/205 222/382/204
f 236/437/197 231/438/194 237/383/205
f 231/438/194 221/430/201 237/383/205
f 234/374/196 235/433/199 224/388/210
f 234/374/196 232/373/193 235/433/199
f 232/370/193 219/369/192 235/377/199
f 231/439/194 233/380/202 221/379/201
f 231/371/194 232/370/193 233/440/202
f 232/373/193 220/372/195 233/432/202
f 261/441/192 274/442/193 273/443/194
f 262/444/234 274/445/193 276/446/196
f 261/441/192 273/443/194 278/447/197
f 261/441/192 278/447/197 280/448/198
f 261/441/192 280/448/198 277/449/235
f 262/444/234 276/446/196 283/450/200
f 263/451/201 275/452/202 285/453/203
f 264/454/204 279/455/205 287/456/206
f 265/457/207 281/458/208 289/459/209
f 266/460/210 282/461/211 291/462/236
f 262/444/234 283/450/200 286/463/237
f 263/451/201 285/453/203 288/464/214
f 264/454/204 287/456/206 290/465/215
f 265/466/207 289/467/209 292/468/216
f 266/460/210 291/462/236 284/469/217
f 267/470/218 293/471/219 298/472/220
f 268/473/221 294/474/222 300/475/223
f 269/476/224 295/477/225 301/478/226
f 270/479/227 296/480/228 302/481/229
f 271/482/230 297/483/231 299/484/232
f 299/485/232 302/486/229 272/487/233
f 299/484/232 297/483/231 302/488/229
f 297/483/231 270/489/227 302/488/229
f 302/486/229 301/490/226 272/487/233
f 302/486/229 296/491/228 301/490/226
f 296/492/228 269/476/224 301/478/226
f 301/490/226 300/493/223 272/487/233
f 301/478/226 295/477/225 300/475/223
f 295/477/225 268/473/221 300/475/223
f 300/493/223 298/494/220 272/487/233
f 300/493/223 294/495/222 298/494/220
f 294/496/222 267/497/218 298/498/220
f 298/494/220 299/485/232 272/487/233
f 298/472/220 293/471/219 299/484/232
f 293/471/219 271/482/230 299/484/232
f 284/469/217 297/483/231 271/482/230
f 284/469/217 291/462/236 297/483/231
f 291/462/236 270/489/227 297/483/231
f 292/468/216 296/480/228 270/479/227
f 292/468/216 289/467/209 296/480/228
f 289/459/209 269/476/224 296/492/228
f 290/465/215 295/477/225 269/476/224
f 290/465/215 287/456/206 295/477/225
f 287/456/206 268/473/221 295/477/225
f 288/499/214 294/474/222 268/473/221
f 288/464/214 285/453/203 294/496/222
f 285/453/203 267/497/218 294/496/222
f 286/463/237 293/471/219 267/470/218
f 286/463/237 283/450/200 293/471/219
f 283/450/200 271/482/230 293/471/219
f 291/500/236 292/468/216 270/479/227
f 291/500/236 282/501/211 292/468/216
f 282/501/211 265/466/207 292/468/216
f 289/459/209 290/465/215 269/476/224
f 289/459/209 281/458/208 290/465/215
f 281/458/208 264/454/204 290/465/215
f 287/456/206 288/499/214 268/473/221
f 287/456/206 279/455/205 288/499/214
f 279/455/205 263/502/201 288/499/214
f 285/453/203 286/503/237 267/497/218
f 285/453/203 275/452/202 286/503/237
f 275/504/202 262/444/234 286/463/237
f 283/450/200 284/469/217 271/482/230
f 283/450/200 276/446/196 284/469/217
f 276/446/196 266/460/210 284/469/217
f 277/505/235 282/461/211 266/460/210
f 277/449/235 280/448/198 282/506/211
f 280/448/198 265/507/207 282/506/211
f 280/508/198 281/458/208 265/457/207
f 280/508/198 278/509/197 281/458/208
f 278/509/197 264/454/204 281/458/208
f 278/509/197 279/455/205 264/454/204
f 278/509/197 273/510/194 279/455/205
f 273/510/194 263/502/201 279/455/205
f 276/446/196 277/505/235 266/460/210
f 276/446/196 274/445/193 277/505/235
f 274/442/193 261/441/192 277/449/235
f 273/511/194 275/452/202 263/451/201
f 273/443/194 274/442/193 275/512/202
f 274/445/193 262/444/234 275/504/202
f 303/513/238 316/514/239 315/515/240
f 304/516/241 316/517/239 318/518/242
f 303/513/238 315/515/240 320/519/243
f 303/513/238 320/519/243 322/520/244
f 303/513/238 322/520/244 319/521/245
f 304/516/241 318/518/242 325/522/246
f 305/523/247 317/524/248 327/525/203
f 306/526/249 321/527/250 329/528/251
f 307/529/252 323/530/253 331/531/254
f 308/532/255 324/533/256 333/534/257
f 304/516/241 325/522/246 328/535/258
f 305/523/247 327/525/203 330/536/259
f 306/526/249 329/528/251 332/537/260
f 307/529/252 331/531/254 334/538/216
f 308/539/255 333/540/257 326/541/261
f 309/542/262 335/543/263 340/544/264
f 310/545/265 336/546/266 342/547/267
f 311/548/268 337/549/269 343/550/270
f 312/551/271 338/552/272 344/553/273
f 313/554/274 339/555/275 341/556/276
f 341/557/276 344/558/273 314/559/277
f 341/557/276 339/560/275 344/558/273
f 339/560/275 312/561/271 344/558/273
f 344/558/273 343/562/270 314/559/277
f 344/558/273 338/563/272 343/562/270
f 338/563/272 311/564/268 343/562/270
f 343/562/270 342/547/267 314/559/277
f 343/562/270 337/565/269 342/547/267
f 337/549/269 310/566/265 342/567/267
f 342/547/267 340/544/264 314/559/277
f 342/547/267 336/546/266 340/544/264
f 336/568/266 309/569/262 340/570/264
f 340/544/264 341/557/276 314/559/277
f 340/544/264 335/543/263 341/557/276
f 335/571/263 313/554/274 341/556/276
f 326/541/261 339/555/275 313/554/274
f 326/541/261 333/540/257 339/555/275
f 333/534/257 312/551/271 339/572/275
f 334/538/216 338/552/272 312/551/271
f 334/538/216 331/531/254 338/552/272
f 331/531/254 311/573/268 338/552/272
f 332/537/260 337/549/269 311/548/268
f 332/537/260 329/528/251 337/549/269
f 329/528/251 310/566/265 337/549/269
f 330/536/259 336/568/266 310/574/265
f 330/536/259 327/525/203 336/568/266
f 327/525/203 309/569/262 336/568/266
f 328/575/258 335/576/263 309/569/262
f 328/535/258 325/522/246 335/571/263
f 325/522/246 313/554/274 335/571/263
f 333/534/257 334/538/216 312/551/271
f 333/534/257 324/533/256 334/538/216
f 324/533/256 307/529/252 334/538/216
f 331/577/254 332/537/260 311/548/268
f 331/577/254 323/578/253 332/537/260
f 323/578/253 306/526/249 332/537/260
f 329/528/251 330/579/259 310/566/265
f 329/528/251 321/527/250 330/579/259
f 321/580/250 305/523/247 330/536/259
f 327/525/203 328/575/258 309/569/262
f 327/525/203 317/524/248 328/575/258
f 317/524/248 304/581/241 328/575/258
f 325/522/246 326/541/261 313/554/274
f 325/522/246 318/518/242 326/541/261
f 318/518/242 308/539/255 326/541/261
f 319/521/245 324/582/256 308/583/255
f 319/521/245 322/520/244 324/582/256
f 322/584/244 307/529/252 324/533/256
f 322/520/244 323/585/253 307/586/252
f 322/520/244 320/519/243 323/585/253
f 320/519/243 306/587/249 323/585/253
f 320/519/243 321/588/250 306/587/249
f 320/519/243 315/515/240 321/588/250
f 315/515/240 305/589/247 321/588/250
f 318/518/242 319/590/245 308/539/255
f 318/591/242 316/514/239 319/521/245
f 316/514/239 303/513/238 319/521/245
f 315/592/240 317/524/248 305/523/247
f 315/515/240 316/514/239 317/593/248
f 316/514/239 304/594/241 317/593/248
f 345/595/278 346/596/279 348/597/280 347/598/281
f 347/599/281 348/600/280 350/601/282 349/602/283
f 349/602/283 350/601/282 352/603/284 351/604/285
f 351/605/285 352/606/284 354/607/286 353/608/287
f 353/609/287 354/610/286 356/611/288 355/612/289
f 348/613/280 346/614/279 358/615/290 356/616/288 354/617/286 352/618/284 350/619/282
f 355/612/289 356/611/288 358/620/290 357/621/291
f 357/622/291 358/623/290 346/596/279 345/595/278
f 345/624/278 347/625/281 349/626/283 351/627/285 353/628/287 355/629/289 357/630/291
f 359/631/238 360/632/292 361/633/293
f 360/634/292 359/635/238 364/636/294
f 359/637/238 361/638/293 362/639/295
f 359/637/238 362/639/295 363/640/296
f 359/637/238 363/640/296 364/641/294
f 360/634/292 364/636/294 369/642/297
f 361/633/293 360/632/292 365/643/298
f 362/644/295 361/645/293 366/646/299
f 363/647/296 362/644/295 367/648/300
f 364/649/294 363/650/296 368/651/301
f 360/634/292 369/642/297 365/652/298
f 361/633/293 365/643/298 366/653/299
f 362/644/295 366/646/299 367/648/300
f 363/650/296 367/654/300 368/651/301
f 364/636/294 368/655/301 369/642/297
f 365/656/298 369/657/297 370/658/277
f 366/653/299 365/643/298 370/659/277
f 367/648/300 366/646/299 370/660/277
f 368/651/301 367/654/300 370/661/277
f 369/657/297 368/662/301 370/658/277
f 371/663/302 372/664/303 374/665/304 373/666/305
f 373/667/305 374/668/304 376/669/306 375/670/307
f 375/670/307 376/669/306 378/671/308 377/672/309
f 377/673/309 378/674/308 380/675/310 379/676/311
f 379/677/311 380/678/310 382/679/312 381/680/313
f 374/681/304 372/682/303 384/683/314 382/684/312 380/685/310 378/686/308 376/687/306
f 381/680/313 382/679/312 384/688/314 383/689/315
f 383/690/315 384/691/314 372/664/303 371/663/302
f 371/692/302 373/693/305 375/694/307 377/695/309 379/696/311 381/697/313 383/698/315
f 385/699/316 386/700/317 388/701/318 387/702/319
f 387/703/319 388/704/318 390/705/320 389/706/321
f 389/706/321 390/705/320 392/707/322 391/708/323
f 391/709/323 392/710/322 394/711/324 393/712/325
f 393/713/325 394/714/324 396/715/326 395/716/327
f 388/717/318 386/718/317 398/719/328 396/720/326 394/721/324 392/722/322 390/723/320
f 395/716/327 396/715/326 398/724/328 397/725/329
f 397/726/329 398/727/328 386/700/317 385/699/316
f 385/728/316 387/729/319 389/730/321 391/731/323 393/732/325 395/733/327 397/734/329
f 399/735/330 400/736/331 402/737/332 401/738/333
f 401/739/333 402/740/332 404/741/334 403/742/335
f 403/742/335 404/741/334 406/743/336 405/744/337
f 405/745/337 406/746/336 408/747/338 407/748/339
f 407/749/339 408/750/338 410/751/340 409/752/341
f 402/753/332 400/754/331 412/755/342 410/756/340 408/757/338 406/758/336 404/759/334
f 409/752/341 410/751/340 412/760/342 411/761/343
f 411/762/343 412/763/342 400/736/331 399/735/330
f 399/764/330 401/765/333 403/766/335 405/767/337 407/768/339 409/769/341 411/770/343
f 413/771/238 414/772/344 415/773/345
f 414/772/344 413/771/238 418/774/346
f 413/771/238 415/773/345 416/775/347
f 413/771/238 416/775/347 417/776/348
f 413/771/238 417/776/348 418/774/346
f 414/777/344 418/778/346 423/779/349
f 415/780/345 414/781/344 419/782/350
f 416/783/347 415/784/345 420/785/351
f 417/786/348 416/783/347 421/787/352
f 418/788/346 417/789/348 422/790/353
f 414/777/344 423/779/349 419/791/350
f 415/780/345 419/782/350 420/792/351
f 416/783/347 420/785/351 421/787/352
f 417/789/348 421/793/352 422/790/353
f 418/778/346 422/794/353 423/779/349
f 419/795/350 423/796/349 424/797/277
f 420/798/351 419/795/350 424/797/277
f 421/799/352 420/798/351 424/797/277
f 422/800/353 421/799/352 424/797/277
f 423/796/349 422/800/353 424/797/277
f 425/801/238 426/802/344 427/803/345
f 426/802/344 425/801/238 430/804/346
f 425/801/238 427/803/345 428/805/347
f 425/801/238 428/805/347 429/806/348
f 425/801/238 429/806/348 430/804/346
f 426/807/344 430/808/346 435/809/349
f 427/810/345 426/811/344 431/812/350
f 428/813/347 427/814/345 432/815/351
f 429/816/348 428/813/347 433/817/352
f 430/818/346 429/819/348 434/820/353
f 426/807/344 435/809/349 431/821/350
f 427/810/345 431/812/350 432/822/351
f 428/813/347 432/815/351 433/817/352
f 429/819/348 433/823/352 434/820/353
f 430/808/346 434/824/353 435/809/349
f 431/825/350 435/826/349 436/827/277
f 432/828/351 431/825/350 436/827/277
f 433/829/352 432/828/351 436/827/277
f 434/830/353 433/829/352 436/827/277
f 435/826/349 434/830/353 436/827/277
f 437/831/354 438/832/355 440/833/356 439/834/357
f 439/835/357 440/836/356 442/837/358 441/838/359
f 441/838/359 442/837/358 444/839/360 443/840/361
f 443/841/361 444/842/360 446/843/362 445/844/363
f 445/845/363 446/846/362 448/847/364 447/848/365
f 440/849/356 438/850/355 450/851/366 448/852/364 446/853/362 444/854/360 442/855/358
f 447/848/365 448/847/364 450/856/366 449/857/367
f 449/858/367 450/851/366 438/850/355 437/859/354
f 437/860/354 439/861/357 441/862/359 443/863/361 445/864/363 447/865/365 449/866/367
f 451/867/368 452/868/369 454/869/370 453/870/371
f 453/871/371 454/872/370 456/873/372 455/874/373
f 455/874/373 456/873/372 458/875/374 457/876/375
f 457/877/375 458/878/374 460/879/376 459/880/377
f 459/881/377 460/882/376 462/883/378 461/884/379
f 454/885/370 452/886/369 464/887/380 462/888/378 460/889/376 458/890/374 456/891/372
f 461/884/379 462/883/378 464/892/380 463/893/381
f 463/894/381 464/895/380 452/868/369 451/867/368
f 451/896/368 453/897/371 455/898/373 457/899/375 459/900/377 461/901/379 463/902/381
f 465/903/382 466/904/383 468/905/384 467/906/385
f 467/907/385 468/908/384 470/909/386 469/910/387
f 469/910/387 470/909/386 472/911/388 471/912/389
f 471/913/389 472/914/388 474/915/390 473/916/391
f 473/917/391 474/918/390 476/919/392 475/920/393
f 468/905/384 466/904/383 478/921/394 476/922/392 474/923/390 472/924/388 470/925/386
f 475/920/393 476/919/392 478/926/394 477/927/395
f 477/928/395 478/929/394 466/930/383 465/931/382
f 465/932/382 467/933/385 469/934/387 471/935/389 473/936/391 475/937/393 477/938/395
