# axis-converted-to-Y-up
# Blender 5.1.1
# www.blender.org
mtllib mob_jago.mtl
o mob_jago
v -1.516942 0.007566 -0.013240
v -1.516942 0.136184 -0.013240
v -1.507579 0.007566 -0.009362
v -1.507579 0.136184 -0.009362
v -1.503702 0.007566 -0.000000
v -1.503702 0.136184 -0.000000
v -1.507579 0.007566 0.009362
v -1.507579 0.136184 0.009362
v -1.516942 0.007566 0.013240
v -1.516942 0.136184 0.013240
v -1.526304 0.007566 0.009362
v -1.526304 0.136184 0.009362
v -1.530182 0.007566 -0.000000
v -1.530182 0.136184 -0.000000
v -1.526304 0.007566 -0.009362
v -1.526304 0.136184 -0.009362
v -1.516942 0.000000 -0.037829
v -1.497781 0.006274 -0.022914
v -1.524260 0.006274 -0.013695
v -1.540626 0.006274 -0.037829
v -1.524260 0.006274 -0.061963
v -1.497781 0.006274 -0.052745
v -1.509623 0.016424 -0.013695
v -1.536103 0.016424 -0.022914
v -1.536103 0.016424 -0.052745
v -1.509623 0.016424 -0.061963
v -1.493257 0.016424 -0.037829
v -1.516942 0.022697 -0.037829
v -1.516942 0.032423 -0.000576
v -1.516942 0.062719 0.022872
v -1.511027 0.031057 0.001923
v -1.515759 0.062446 0.023372
v -1.509566 0.027989 0.007541
v -1.515466 0.061832 0.024495
v -1.513659 0.025528 0.012045
v -1.516285 0.061340 0.025396
v -1.520225 0.025528 0.012045
v -1.517598 0.061340 0.025396
v -1.524318 0.027989 0.007541
v -1.518417 0.061832 0.024495
v -1.522857 0.031057 0.001923
v -1.518125 0.062446 0.023372
v -1.433718 0.007566 -0.013240
v -1.433718 0.136184 -0.013240
v -1.424356 0.007566 -0.009362
v -1.424356 0.136184 -0.009362
v -1.420478 0.007566 -0.000000
v -1.420478 0.136184 -0.000000
v -1.424356 0.007566 0.009362
v -1.424356 0.136184 0.009362
v -1.433718 0.007566 0.013240
v -1.433718 0.136184 0.013240
v -1.443080 0.007566 0.009362
v -1.443080 0.136184 0.009362
v -1.446958 0.007566 -0.000000
v -1.446958 0.136184 -0.000000
v -1.443080 0.007566 -0.009362
v -1.443080 0.136184 -0.009362
v -1.433718 0.000000 -0.037829
v -1.414557 0.006274 -0.022914
v -1.441037 0.006274 -0.013695
v -1.457403 0.006274 -0.037829
v -1.441037 0.006274 -0.061963
v -1.414557 0.006274 -0.052745
v -1.426399 0.016424 -0.013695
v -1.452879 0.016424 -0.022914
v -1.452879 0.016424 -0.052745
v -1.426399 0.016424 -0.061963
v -1.410033 0.016424 -0.037829
v -1.433718 0.022697 -0.037829
v -1.433718 0.032423 -0.000576
v -1.433718 0.062719 0.022872
v -1.427803 0.031057 0.001923
v -1.432535 0.062446 0.023372
v -1.426342 0.027989 0.007541
v -1.432243 0.061832 0.024495
v -1.430435 0.025528 0.012045
v -1.433062 0.061340 0.025396
v -1.437001 0.025528 0.012045
v -1.434375 0.061340 0.025396
v -1.441094 0.027989 0.007541
v -1.435193 0.061832 0.024495
v -1.439633 0.031057 0.001923
v -1.434901 0.062446 0.023372
v -1.475330 0.057500 -0.000000
v -1.387735 0.134453 0.079550
v -1.508787 0.134453 0.128717
v -1.583602 0.134454 -0.000000
v -1.508787 0.134453 -0.128717
v -1.387735 0.134453 -0.079551
v -1.441872 0.258968 0.128717
v -1.562925 0.258968 0.079550
v -1.562925 0.258968 -0.079551
v -1.441872 0.258968 -0.128717
v -1.367057 0.258968 -0.000000
v -1.475330 0.335921 -0.000000
v -1.503514 0.105177 0.108427
v -1.494996 0.078290 0.075657
v -1.484724 0.061962 0.036142
v -1.450734 0.061962 0.022337
v -1.423844 0.078290 0.046758
v -1.401543 0.105177 0.067011
v -1.410937 0.126785 0.103154
v -1.443509 0.123523 0.122416
v -1.478918 0.126785 0.130765
v -1.376947 0.126785 -0.044674
v -1.372357 0.123523 -0.000000
v -1.376947 0.126785 0.044674
v -1.450734 0.061962 -0.022337
v -1.423844 0.078290 -0.046759
v -1.401543 0.105177 -0.067011
v -1.566536 0.105178 -0.000000
v -1.538971 0.078291 -0.000000
v -1.505732 0.061962 -0.000000
v -1.533916 0.126785 0.108428
v -1.558637 0.123523 0.075657
v -1.575931 0.126785 0.036142
v -1.503514 0.105177 -0.108427
v -1.494996 0.078290 -0.075657
v -1.484724 0.061962 -0.036142
v -1.575931 0.126785 -0.036142
v -1.558637 0.123523 -0.075658
v -1.533916 0.126785 -0.108428
v -1.478918 0.126785 -0.130765
v -1.443509 0.123523 -0.122417
v -1.410937 0.126785 -0.103154
v -1.359528 0.231673 0.022337
v -1.360202 0.196711 0.046758
v -1.371140 0.161748 0.067011
v -1.371140 0.161748 -0.067011
v -1.360202 0.196711 -0.046759
v -1.359528 0.231673 -0.022337
v -1.456541 0.231674 0.144570
v -1.475330 0.196711 0.151316
v -1.494119 0.161748 0.144570
v -1.392147 0.161748 0.103154
v -1.404177 0.196711 0.122417
v -1.422550 0.231674 0.130765
v -1.579520 0.231673 0.067011
v -1.590458 0.196711 0.046758
v -1.591132 0.161748 0.022337
v -1.528110 0.161748 0.130765
v -1.546483 0.196711 0.122417
v -1.558512 0.231674 0.103154
v -1.558512 0.231674 -0.103154
v -1.546483 0.196711 -0.122417
v -1.528110 0.161748 -0.130765
v -1.591132 0.161748 -0.022337
v -1.590458 0.196711 -0.046759
v -1.579520 0.231673 -0.067012
v -1.422550 0.231674 -0.130765
v -1.404177 0.196711 -0.122417
v -1.392148 0.161748 -0.103154
v -1.494119 0.161748 -0.144571
v -1.475330 0.196711 -0.151316
v -1.456541 0.231674 -0.144571
v -1.374729 0.266636 0.036142
v -1.392023 0.269899 0.075657
v -1.416744 0.266636 0.108428
v -1.471742 0.266636 0.130765
v -1.507151 0.269899 0.122416
v -1.539723 0.266636 0.103154
v -1.573713 0.266636 0.044674
v -1.578303 0.269899 -0.000000
v -1.573713 0.266636 -0.044674
v -1.539723 0.266636 -0.103154
v -1.507151 0.269899 -0.122417
v -1.471742 0.266636 -0.130765
v -1.416744 0.266636 -0.108428
v -1.392023 0.269899 -0.075658
v -1.374729 0.266636 -0.036142
v -1.465935 0.331459 0.036142
v -1.455664 0.315131 0.075657
v -1.447146 0.288244 0.108427
v -1.384124 0.288244 -0.000000
v -1.411689 0.315130 -0.000000
v -1.444928 0.331459 -0.000000
v -1.499925 0.331459 0.022337
v -1.526816 0.315131 0.046758
v -1.549117 0.288244 0.067011
v -1.499925 0.331459 -0.022337
v -1.526816 0.315131 -0.046759
v -1.549117 0.288244 -0.067012
v -1.465935 0.331459 -0.036142
v -1.455664 0.315131 -0.075657
v -1.447146 0.288244 -0.108427
v -1.431533 0.321225 -0.039775
v -1.398075 0.297445 -0.039776
v -1.421194 0.297445 -0.079551
v -1.492059 0.321225 -0.064358
v -1.481720 0.297445 -0.104133
v -1.519127 0.297445 -0.088940
v -1.529466 0.321225 -0.000000
v -1.556534 0.297445 -0.024583
v -1.556534 0.297445 0.024582
v -1.492059 0.321225 0.064358
v -1.519127 0.297445 0.088940
v -1.481720 0.297445 0.104133
v -1.431533 0.321225 0.039775
v -1.421194 0.297445 0.079551
v -1.398075 0.297445 0.039776
v -1.371006 0.235188 -0.064358
v -1.377396 0.196711 -0.088941
v -1.394125 0.235188 -0.104134
v -1.492059 0.235188 -0.143910
v -1.512737 0.196711 -0.143910
v -1.529467 0.235188 -0.128717
v -1.589992 0.235188 -0.024583
v -1.596382 0.196711 -0.000000
v -1.589992 0.235188 0.024582
v -1.529467 0.235188 0.128716
v -1.512737 0.196711 0.143910
v -1.492059 0.235188 0.143910
v -1.394125 0.235188 0.104134
v -1.377396 0.196710 0.088941
v -1.371006 0.235188 0.064358
v -1.437923 0.196711 -0.143910
v -1.421193 0.158233 -0.128717
v -1.458600 0.158233 -0.143910
v -1.573264 0.196711 -0.088941
v -1.556534 0.158233 -0.104134
v -1.579653 0.158233 -0.064359
v -1.573264 0.196711 0.088941
v -1.579653 0.158233 0.064358
v -1.556534 0.158233 0.104134
v -1.437923 0.196711 0.143910
v -1.458600 0.158233 0.143910
v -1.421193 0.158233 0.128716
v -1.354277 0.196711 -0.000000
v -1.360667 0.158233 0.024582
v -1.360667 0.158233 -0.024583
v -1.431533 0.095976 -0.088941
v -1.458601 0.072197 -0.064358
v -1.468940 0.095976 -0.104134
v -1.529466 0.095976 -0.079551
v -1.519127 0.072197 -0.039775
v -1.552585 0.095977 -0.039775
v -1.552585 0.095977 0.039776
v -1.519127 0.072197 0.039776
v -1.529466 0.095976 0.079551
v -1.394126 0.095976 -0.024583
v -1.394125 0.095977 0.024582
v -1.421194 0.072197 -0.000000
v -1.468939 0.095976 0.104133
v -1.458601 0.072197 0.064358
v -1.431533 0.095976 0.088940
v -1.588817 0.123890 0.007566
v -1.565550 0.168326 0.041375
v -1.597704 0.168326 0.062270
v -1.617576 0.168326 0.007566
v -1.597704 0.168326 -0.047139
v -1.565550 0.168326 -0.026243
v -1.579930 0.240227 0.062270
v -1.612084 0.240227 0.041375
v -1.612084 0.240227 -0.026243
v -1.579930 0.240227 -0.047139
v -1.560057 0.240226 0.007566
v -1.588817 0.284663 0.007566
v -1.594041 0.135895 0.039720
v -1.575141 0.135895 0.027438
v -1.580364 0.162014 0.059593
v -1.561465 0.162014 0.007566
v -1.575141 0.135895 -0.012307
v -1.605721 0.135895 0.007566
v -1.610945 0.162014 0.039720
v -1.594041 0.135895 -0.024589
v -1.610945 0.162014 -0.024589
v -1.580364 0.162014 -0.044461
v -1.558236 0.204276 0.027438
v -1.558236 0.204276 -0.012307
v -1.588817 0.204276 0.071875
v -1.569916 0.204276 0.059593
v -1.619398 0.204276 0.027438
v -1.607717 0.204276 0.059593
v -1.607717 0.204276 -0.044462
v -1.619398 0.204276 -0.012307
v -1.569916 0.204276 -0.044462
v -1.588817 0.204276 -0.056744
v -1.566688 0.246539 0.039720
v -1.597269 0.246539 0.059593
v -1.616169 0.246539 0.007566
v -1.597269 0.246539 -0.044461
v -1.566688 0.246539 -0.024589
v -1.583593 0.272658 0.039720
v -1.571912 0.272657 0.007566
v -1.602493 0.272658 0.027438
v -1.602493 0.272658 -0.012307
v -1.583593 0.272658 -0.024589
v -1.361843 0.123890 0.007566
v -1.338575 0.168326 0.041375
v -1.370730 0.168326 0.062270
v -1.390603 0.168326 0.007566
v -1.370730 0.168326 -0.047139
v -1.338575 0.168326 -0.026243
v -1.352956 0.240227 0.062270
v -1.385110 0.240227 0.041375
v -1.385110 0.240227 -0.026243
v -1.352956 0.240227 -0.047139
v -1.333083 0.240226 0.007566
v -1.361843 0.284663 0.007566
v -1.367067 0.135895 0.039720
v -1.348167 0.135895 0.027438
v -1.353390 0.162014 0.059593
v -1.334491 0.162014 0.007566
v -1.348167 0.135895 -0.012307
v -1.378748 0.135895 0.007566
v -1.383971 0.162014 0.039720
v -1.367067 0.135895 -0.024589
v -1.383971 0.162014 -0.024589
v -1.353390 0.162014 -0.044461
v -1.331262 0.204276 0.027438
v -1.331262 0.204276 -0.012307
v -1.361843 0.204276 0.071875
v -1.342943 0.204276 0.059593
v -1.392424 0.204276 0.027438
v -1.380743 0.204276 0.059593
v -1.380743 0.204276 -0.044462
v -1.392424 0.204276 -0.012307
v -1.342943 0.204276 -0.044462
v -1.361843 0.204276 -0.056744
v -1.339714 0.246539 0.039720
v -1.370295 0.246539 0.059593
v -1.389195 0.246539 0.007566
v -1.370295 0.246539 -0.044461
v -1.339714 0.246539 -0.024589
v -1.356619 0.272658 0.039720
v -1.344938 0.272657 0.007566
v -1.375519 0.272658 0.027438
v -1.375519 0.272658 -0.012307
v -1.356619 0.272658 -0.024589
v -1.475330 0.265597 -0.017265
v -1.475330 0.342849 -0.061860
v -1.527747 0.257634 -0.046461
v -1.508091 0.337872 -0.080108
v -1.527747 0.241709 -0.104855
v -1.508091 0.327918 -0.116603
v -1.475330 0.233746 -0.134052
v -1.475330 0.322941 -0.134851
v -1.422912 0.241709 -0.104855
v -1.442569 0.327918 -0.116603
v -1.422912 0.257634 -0.046461
v -1.442569 0.337872 -0.080108
v -1.475330 0.306415 -0.113487
v -1.434270 0.337781 -0.083655
v -1.491013 0.337781 -0.065218
v -1.526083 0.337782 -0.113487
v -1.491013 0.337781 -0.161756
v -1.434270 0.337781 -0.143319
v -1.459647 0.388535 -0.065218
v -1.516390 0.388535 -0.083655
v -1.516390 0.388535 -0.143319
v -1.459647 0.388535 -0.161756
v -1.424577 0.388535 -0.113487
v -1.475330 0.419902 -0.113487
v -1.484548 0.314889 -0.085116
v -1.451196 0.314889 -0.095953
v -1.460414 0.333326 -0.067581
v -1.427061 0.333326 -0.113487
v -1.451196 0.314889 -0.131022
v -1.505162 0.314889 -0.113487
v -1.514380 0.333326 -0.085115
v -1.484548 0.314889 -0.141858
v -1.514380 0.333326 -0.141859
v -1.460414 0.333326 -0.159393
v -1.421363 0.363158 -0.095953
v -1.421363 0.363158 -0.131022
v -1.475330 0.363158 -0.056744
v -1.441977 0.363158 -0.067581
v -1.529296 0.363158 -0.095953
v -1.508683 0.363158 -0.067580
v -1.508683 0.363158 -0.159394
v -1.529296 0.363158 -0.131022
v -1.441977 0.363158 -0.159394
v -1.475330 0.363158 -0.170230
v -1.436280 0.392990 -0.085115
v -1.490246 0.392990 -0.067581
v -1.523598 0.392990 -0.113487
v -1.490246 0.392990 -0.159393
v -1.436280 0.392990 -0.141859
v -1.466112 0.411427 -0.085116
v -1.445498 0.411427 -0.113487
v -1.499464 0.411427 -0.095953
v -1.499464 0.411427 -0.131022
v -1.466112 0.411427 -0.141858
v -1.500864 0.390155 -0.100787
v -1.500864 0.467619 -0.101442
v -1.486077 0.391744 -0.093845
v -1.499090 0.467810 -0.100609
v -1.482424 0.395314 -0.078247
v -1.498652 0.468238 -0.098737
v -1.492658 0.398177 -0.065738
v -1.499880 0.468582 -0.097236
v -1.509071 0.398177 -0.065738
v -1.501849 0.468582 -0.097236
v -1.519304 0.395314 -0.078247
v -1.503077 0.468238 -0.098737
v -1.515652 0.391744 -0.093845
v -1.502639 0.467810 -0.100609
v -1.483841 0.392111 -0.106816
v -1.483841 0.468803 -0.095887
v -1.469054 0.392644 -0.099715
v -1.482067 0.468867 -0.095035
v -1.465401 0.393843 -0.083758
v -1.481629 0.469011 -0.093121
v -1.475635 0.394805 -0.070962
v -1.482857 0.469126 -0.091585
v -1.492048 0.394805 -0.070962
v -1.484826 0.469126 -0.091585
v -1.502281 0.393843 -0.083758
v -1.486054 0.469011 -0.093121
v -1.498629 0.392644 -0.099715
v -1.485616 0.468867 -0.095035
v -1.466818 0.394945 -0.112485
v -1.466818 0.469143 -0.090218
v -1.452030 0.394411 -0.105384
v -1.465044 0.469079 -0.089366
v -1.448378 0.393212 -0.089427
v -1.464605 0.468935 -0.087452
v -1.458612 0.392251 -0.076631
v -1.465834 0.468820 -0.085916
v -1.475025 0.392251 -0.076631
v -1.467803 0.468820 -0.085916
v -1.485258 0.393212 -0.089427
v -1.469031 0.468935 -0.087452
v -1.481606 0.394411 -0.105384
v -1.468593 0.469079 -0.089366
v -1.449795 0.398595 -0.117667
v -1.449795 0.468632 -0.084562
v -1.435008 0.397006 -0.110725
v -1.448021 0.468441 -0.083729
v -1.431355 0.393436 -0.095127
v -1.447583 0.468013 -0.081857
v -1.441589 0.390573 -0.082618
v -1.448811 0.467669 -0.080356
v -1.458002 0.390573 -0.082618
v -1.450780 0.467669 -0.080356
v -1.468236 0.393436 -0.095127
v -1.452008 0.468013 -0.081857
v -1.464583 0.397006 -0.110725
v -1.451570 0.468441 -0.083729
v -1.475330 0.275395 -0.151316
v -1.456169 0.298815 -0.137395
v -1.482649 0.298815 -0.128791
v -1.499014 0.298816 -0.151316
v -1.482649 0.298815 -0.173841
v -1.456169 0.298815 -0.165237
v -1.468011 0.336711 -0.128791
v -1.494491 0.336711 -0.137395
v -1.494491 0.336711 -0.165237
v -1.468011 0.336711 -0.173841
v -1.451645 0.336711 -0.151316
v -1.475330 0.360132 -0.151316
v -1.479632 0.281723 -0.138076
v -1.464067 0.281723 -0.143133
v -1.468369 0.295489 -0.129893
v -1.452805 0.295489 -0.151316
v -1.464067 0.281723 -0.159499
v -1.489251 0.281723 -0.151316
v -1.493553 0.295489 -0.138076
v -1.479632 0.281723 -0.164556
v -1.493553 0.295489 -0.164556
v -1.468369 0.295489 -0.172739
v -1.450146 0.317763 -0.143133
v -1.450146 0.317763 -0.159499
v -1.475330 0.317763 -0.124836
v -1.459765 0.317763 -0.129893
v -1.500514 0.317763 -0.143133
v -1.490895 0.317763 -0.129893
v -1.490895 0.317763 -0.172739
v -1.500514 0.317763 -0.159499
v -1.459765 0.317763 -0.172739
v -1.475330 0.317763 -0.177796
v -1.457106 0.340038 -0.138076
v -1.482291 0.340038 -0.129893
v -1.497855 0.340038 -0.151316
v -1.482291 0.340038 -0.172739
v -1.457106 0.340038 -0.164556
v -1.471028 0.353804 -0.138076
v -1.461408 0.353804 -0.151316
v -1.486593 0.353804 -0.143133
v -1.486593 0.353804 -0.159499
v -1.471028 0.353804 -0.164556
v -1.475330 0.336678 -0.149425
v -1.475330 0.353701 -0.206168
v -1.460542 0.343800 -0.149425
v -1.473851 0.354413 -0.206168
v -1.456890 0.359801 -0.149425
v -1.473486 0.356013 -0.206168
v -1.467123 0.372634 -0.149425
v -1.474509 0.357297 -0.206168
v -1.483536 0.372634 -0.149425
v -1.476150 0.357297 -0.206168
v -1.493770 0.359801 -0.149425
v -1.477174 0.356013 -0.206168
v -1.490118 0.343800 -0.149425
v -1.476809 0.354413 -0.206168
v -1.501810 0.365050 -0.147533
v -1.494967 0.370278 -0.142561
v -1.504424 0.370278 -0.139488
v -1.510269 0.370278 -0.147533
v -1.504424 0.370278 -0.155578
v -1.494967 0.370278 -0.152505
v -1.499196 0.378736 -0.139488
v -1.508653 0.378736 -0.142561
v -1.508653 0.378736 -0.152505
v -1.499196 0.378736 -0.155578
v -1.493351 0.378736 -0.147533
v -1.501810 0.383964 -0.147533
v -1.448850 0.365050 -0.147533
v -1.442006 0.370278 -0.142561
v -1.451464 0.370278 -0.139488
v -1.457309 0.370278 -0.147533
v -1.451464 0.370278 -0.155578
v -1.442006 0.370278 -0.152505
v -1.446236 0.378736 -0.139488
v -1.455693 0.378736 -0.142561
v -1.455693 0.378736 -0.152505
v -1.446236 0.378736 -0.155578
v -1.440391 0.378736 -0.147533
v -1.448850 0.383964 -0.147533
v -1.501810 0.254703 0.099378
v -1.501810 0.359364 0.195361
v -1.485430 0.248404 0.106432
v -1.487068 0.353695 0.201710
v -1.485430 0.235807 0.120541
v -1.487068 0.342358 0.214408
v -1.501810 0.229508 0.127596
v -1.501810 0.336689 0.220757
v -1.518190 0.235807 0.120541
v -1.516553 0.342358 0.214408
v -1.518190 0.248404 0.106432
v -1.516553 0.353695 0.201710
v -1.501810 0.351142 0.192480
v -1.501810 0.483173 0.220815
v -1.488051 0.349584 0.200269
v -1.489689 0.481800 0.227677
v -1.488051 0.346469 0.215849
v -1.489689 0.479055 0.241402
v -1.501810 0.344911 0.223639
v -1.501810 0.477683 0.248265
v -1.515570 0.346469 0.215849
v -1.513932 0.479055 0.241402
v -1.515570 0.349584 0.200269
v -1.513932 0.481800 0.227677
v -1.501810 0.487562 0.245241
v -1.501810 0.600000 0.168009
v -1.512949 0.483995 0.239890
v -1.511311 0.596957 0.163446
v -1.512949 0.476861 0.229189
v -1.511311 0.590872 0.154317
v -1.501810 0.473293 0.223838
v -1.501810 0.587830 0.149754
v -1.490671 0.476861 0.229189
v -1.492309 0.590872 0.154317
v -1.490671 0.483995 0.239890
v -1.492309 0.596957 0.163446
v -1.475330 0.254703 0.099378
v -1.475330 0.359364 0.195361
v -1.458949 0.248404 0.106432
v -1.460588 0.353695 0.201710
v -1.458949 0.235807 0.120541
v -1.460588 0.342358 0.214408
v -1.475330 0.229508 0.127596
v -1.475330 0.336689 0.220757
v -1.491710 0.235807 0.120541
v -1.490072 0.342358 0.214408
v -1.491710 0.248404 0.106432
v -1.490072 0.353695 0.201710
v -1.475330 0.351142 0.192480
v -1.475330 0.483173 0.220815
v -1.461570 0.349584 0.200269
v -1.463208 0.481800 0.227677
v -1.461570 0.346469 0.215849
v -1.463208 0.479055 0.241402
v -1.475330 0.344911 0.223639
v -1.475330 0.477683 0.248265
v -1.489089 0.346469 0.215849
v -1.487451 0.479055 0.241402
v -1.489089 0.349584 0.200269
v -1.487451 0.481800 0.227677
v -1.475330 0.487562 0.245241
v -1.475330 0.600000 0.168009
v -1.486469 0.483995 0.239890
v -1.484831 0.596957 0.163446
v -1.486469 0.476861 0.229189
v -1.484831 0.590872 0.154317
v -1.475330 0.473293 0.223838
v -1.475330 0.587830 0.149754
v -1.464191 0.476861 0.229189
v -1.465829 0.590872 0.154317
v -1.464191 0.483995 0.239890
v -1.465829 0.596957 0.163446
v -1.448850 0.254703 0.099378
v -1.448850 0.359364 0.195361
v -1.432469 0.248404 0.106432
v -1.434107 0.353695 0.201710
v -1.432469 0.235807 0.120541
v -1.434107 0.342358 0.214408
v -1.448850 0.229508 0.127596
v -1.448850 0.336689 0.220757
v -1.465230 0.235807 0.120541
v -1.463592 0.342358 0.214408
v -1.465230 0.248404 0.106432
v -1.463592 0.353695 0.201710
v -1.448850 0.351142 0.192480
v -1.448850 0.483173 0.220815
v -1.435090 0.349584 0.200269
v -1.436728 0.481800 0.227677
v -1.435090 0.346469 0.215849
v -1.436728 0.479055 0.241402
v -1.448850 0.344911 0.223639
v -1.448850 0.477683 0.248265
v -1.462609 0.346469 0.215849
v -1.460971 0.479055 0.241402
v -1.462609 0.349584 0.200269
v -1.460971 0.481800 0.227677
v -1.448850 0.487562 0.245241
v -1.448850 0.600000 0.168009
v -1.459988 0.483995 0.239890
v -1.458350 0.596957 0.163446
v -1.459988 0.476861 0.229189
v -1.458350 0.590872 0.154317
v -1.448850 0.473293 0.223838
v -1.448850 0.587830 0.149754
v -1.437711 0.476861 0.229189
v -1.439349 0.590872 0.154317
v -1.437711 0.483995 0.239890
v -1.439349 0.596957 0.163446
vn -0.000000 -0.630300 -0.776400
vn -0.000000 0.630300 -0.776400
vn 0.549000 0.630300 -0.549000
vn 0.549000 -0.630300 -0.549000
vn 0.776400 0.630300 0.000000
vn 0.776400 -0.630300 0.000000
vn 0.549000 0.630300 0.549000
vn 0.549000 -0.630300 0.549000
vn -0.000000 0.630300 0.776400
vn -0.000000 -0.630300 0.776400
vn -0.549000 0.630300 0.549000
vn -0.549000 -0.630300 0.549000
vn -0.776400 0.630300 0.000000
vn -0.776400 -0.630300 0.000000
vn -0.549000 0.630300 -0.549000
vn -0.549000 -0.630300 -0.549000
vn 0.000100 -1.000000 0.000000
vn 0.724300 -0.466500 0.507600
vn -0.282300 -0.464800 0.839200
vn 0.724300 -0.466500 -0.507600
vn -0.884200 -0.467200 0.000000
vn -0.282300 -0.464800 -0.839200
vn 0.884200 0.467200 0.000000
vn 0.282300 0.464800 0.839200
vn -0.724300 0.466500 0.507600
vn -0.724300 0.466500 -0.507600
vn 0.282300 0.464800 -0.839200
vn -0.000100 1.000000 0.000000
vn -0.000000 -0.095400 -0.995400
vn -0.000000 0.948300 -0.317400
vn 0.573200 0.816000 -0.075100
vn 0.647300 -0.244800 -0.721900
vn 0.714700 0.518800 0.469200
vn 0.807100 -0.580600 -0.107300
vn 0.318100 0.280100 0.905700
vn 0.359200 -0.849800 0.385700
vn -0.318100 0.280100 0.905800
vn -0.359200 -0.849800 0.385700
vn -0.714900 0.518500 0.469200
vn -0.807100 -0.580600 -0.107300
vn -0.573200 0.816000 -0.075100
vn -0.647300 -0.244800 -0.721900
vn 0.573200 0.816000 -0.075000
vn 0.714600 0.518700 0.469200
vn 0.807100 -0.580600 -0.107200
vn -0.318100 0.280000 0.905800
vn -0.714800 0.518500 0.469200
vn -0.807100 -0.580600 -0.107200
vn 0.000500 -1.000000 0.000000
vn 0.239300 -0.960600 0.141600
vn -0.091400 -0.969000 0.229400
vn 0.781700 -0.422800 0.458500
vn 0.663000 -0.639300 0.389500
vn 0.853200 -0.462000 0.242000
vn -0.295300 -0.955400 0.000000
vn -0.091400 -0.969000 -0.229400
vn 0.239300 -0.960600 -0.141600
vn 0.902300 -0.221600 0.369900
vn -0.329700 -0.467100 0.820500
vn -0.023400 -0.533800 0.845300
vn -0.183800 -0.260300 0.947900
vn -0.916300 -0.400500 0.000000
vn -0.863200 -0.459800 0.208700
vn -0.968500 -0.215200 0.125500
vn -0.329700 -0.467100 -0.820500
vn -0.561200 -0.504600 -0.656100
vn -0.516600 -0.249000 -0.819200
vn 0.781700 -0.422800 -0.458500
vn 0.593500 -0.500300 -0.630400
vn 0.754600 -0.235200 -0.612600
vn 0.754600 -0.235200 0.612600
vn -0.516600 -0.249000 0.819200
vn -0.968500 -0.215200 -0.125500
vn -0.183800 -0.260300 -0.947900
vn 0.902300 -0.221600 -0.369900
vn 0.329700 0.467100 0.820500
vn 0.561200 0.504600 0.656100
vn 0.271400 0.684800 0.676300
vn -0.781700 0.422800 0.458500
vn -0.593500 0.500300 0.630400
vn -0.663000 0.639300 0.389500
vn -0.781700 0.422800 -0.458500
vn -0.853200 0.462000 -0.242000
vn -0.663000 0.639300 -0.389500
vn 0.329700 0.467100 -0.820500
vn 0.023400 0.533800 -0.845300
vn 0.271400 0.684800 -0.676300
vn 0.916300 0.400500 0.000000
vn 0.863200 0.459800 -0.208700
vn 0.788500 0.615000 0.000000
vn 0.295300 0.955400 0.000000
vn 0.091400 0.969000 -0.229400
vn -0.000500 1.000000 0.000000
vn 0.576300 0.817300 0.000000
vn 0.413500 0.877300 -0.243600
vn 0.684000 0.690700 -0.234600
vn 0.187600 0.863100 -0.468800
vn 0.507000 0.720000 -0.473800
vn 0.746500 0.500000 -0.438900
vn 0.561200 0.504600 -0.656100
vn -0.239300 0.960600 -0.141600
vn -0.161900 0.900100 -0.404400
vn -0.069800 0.753200 -0.654100
vn -0.475300 0.834000 -0.280100
vn -0.405800 0.732400 -0.546800
vn -0.311400 0.546500 -0.777400
vn -0.593500 0.500300 -0.630400
vn -0.239300 0.960600 0.141600
vn -0.503400 0.864000 0.000000
vn -0.716800 0.684200 -0.134600
vn -0.475300 0.834000 0.280100
vn -0.716800 0.684200 0.134600
vn -0.879200 0.476400 0.000000
vn -0.853200 0.462000 0.242000
vn 0.091400 0.969000 0.229400
vn -0.161900 0.900100 0.404400
vn -0.405800 0.732400 0.546800
vn 0.187600 0.863100 0.468800
vn -0.069800 0.753200 0.654100
vn -0.311400 0.546500 0.777400
vn 0.023400 0.533800 0.845300
vn 0.413500 0.877300 0.243600
vn 0.507000 0.720000 0.473800
vn 0.684000 0.690700 0.234600
vn 0.746500 0.500000 0.438900
vn 0.863200 0.459800 0.208700
vn 0.968500 0.215200 -0.125500
vn 0.967200 0.000200 -0.254200
vn 0.896800 0.249200 -0.365600
vn 0.861900 0.008300 -0.507000
vn 0.746700 0.263500 -0.610800
vn 0.667200 -0.000400 -0.744900
vn 0.516600 0.249000 -0.819200
vn 0.183800 0.260300 -0.947900
vn -0.000000 -0.000000 -1.000000
vn -0.177700 0.291200 -0.940000
vn -0.371300 0.009400 -0.928500
vn -0.514700 0.279300 -0.810600
vn -0.667200 0.000400 -0.744900
vn -0.754600 0.235200 -0.612600
vn -0.902300 0.221600 -0.369900
vn -0.967200 -0.000200 -0.254200
vn -0.962000 0.241700 -0.126900
vn -1.000000 0.007800 0.000000
vn -0.962000 0.241700 0.126900
vn -0.967200 -0.000200 0.254200
vn -0.902300 0.221600 0.369900
vn -0.754600 0.235200 0.612600
vn -0.667200 0.000400 0.744900
vn -0.514700 0.279300 0.810600
vn -0.371300 0.009400 0.928500
vn -0.177700 0.291200 0.940000
vn -0.000000 -0.000000 1.000000
vn 0.183800 0.260300 0.947900
vn 0.516600 0.249000 0.819200
vn 0.667200 -0.000400 0.744900
vn 0.746700 0.263500 0.610800
vn 0.861900 0.008300 0.507000
vn 0.896800 0.249200 0.365600
vn 0.967200 0.000200 0.254200
vn 0.968500 0.215200 0.125500
vn 0.371300 -0.009400 -0.928500
vn 0.514700 -0.279300 -0.810600
vn 0.177700 -0.291200 -0.940000
vn 0.311400 -0.546500 -0.777400
vn -0.023400 -0.533800 -0.845300
vn -0.861900 -0.008300 -0.507000
vn -0.746700 -0.263500 -0.610800
vn -0.896800 -0.249200 -0.365600
vn -0.746500 -0.500000 -0.438900
vn -0.863200 -0.459800 -0.208700
vn -0.861900 -0.008300 0.507000
vn -0.896800 -0.249200 0.365600
vn -0.746700 -0.263500 0.610800
vn -0.746500 -0.500000 0.438900
vn -0.561200 -0.504600 0.656100
vn 0.371300 -0.009400 0.928500
vn 0.177700 -0.291200 0.940000
vn 0.514700 -0.279300 0.810600
vn 0.311400 -0.546500 0.777400
vn 0.593500 -0.500300 0.630400
vn 1.000000 -0.007800 0.000000
vn 0.962000 -0.241700 0.126900
vn 0.962000 -0.241700 -0.126900
vn 0.879200 -0.476400 0.000000
vn 0.853200 -0.462000 -0.242000
vn 0.663000 -0.639300 -0.389500
vn 0.475300 -0.834000 -0.280100
vn 0.405800 -0.732400 -0.546800
vn 0.161900 -0.900100 -0.404400
vn 0.069800 -0.753200 -0.654100
vn -0.187600 -0.863100 -0.468800
vn -0.271400 -0.684800 -0.676300
vn -0.507000 -0.720000 -0.473800
vn -0.413500 -0.877300 -0.243600
vn -0.684000 -0.690700 -0.234600
vn -0.576300 -0.817300 0.000000
vn -0.788500 -0.615000 0.000000
vn -0.684000 -0.690700 0.234600
vn -0.413500 -0.877300 0.243600
vn -0.507000 -0.720000 0.473800
vn -0.187500 -0.863100 0.468800
vn -0.271400 -0.684800 0.676300
vn 0.716800 -0.684200 -0.134600
vn 0.716800 -0.684200 0.134600
vn 0.503400 -0.864000 0.000000
vn 0.475300 -0.834000 0.280100
vn 0.069800 -0.753200 0.654100
vn 0.161900 -0.900100 0.404400
vn 0.405800 -0.732400 0.546800
vn 0.006700 -1.000000 0.000000
vn 0.656400 -0.687300 0.311100
vn -0.254000 -0.787700 0.561200
vn 0.895800 -0.253300 0.365100
vn 0.962000 -0.273200 0.000000
vn -0.783700 -0.621100 0.000000
vn -0.254000 -0.787700 -0.561200
vn 0.656400 -0.687300 -0.311100
vn 0.984500 0.001400 0.175700
vn -0.431900 -0.352300 0.830200
vn 0.412900 -0.439100 0.797900
vn -0.976300 -0.216500 0.000000
vn -0.876400 -0.318100 0.361500
vn -0.984500 -0.001400 0.175700
vn -0.431900 -0.352300 -0.830200
vn -0.876500 -0.318100 -0.361500
vn -0.776700 0.005000 -0.629800
vn 0.895800 -0.253300 -0.365100
vn 0.412900 -0.439100 -0.797900
vn 0.776700 -0.005000 -0.629800
vn 0.776700 -0.005000 0.629800
vn -0.776700 0.005000 0.629800
vn -0.984500 -0.001400 -0.175700
vn 0.984500 0.001400 -0.175700
vn 0.431900 0.352300 0.830200
vn 0.876400 0.318100 0.361500
vn 0.254000 0.787700 0.561200
vn -0.895800 0.253300 0.365100
vn -0.412900 0.439100 0.797900
vn -0.656400 0.687300 0.311100
vn -0.895800 0.253300 -0.365100
vn -0.962000 0.273100 0.000000
vn -0.656400 0.687300 -0.311100
vn 0.431900 0.352300 -0.830200
vn -0.412900 0.439100 -0.797900
vn 0.254000 0.787700 -0.561200
vn 0.976300 0.216500 0.000000
vn 0.876400 0.318100 -0.361500
vn 0.783700 0.621100 0.000000
vn -0.006600 1.000000 0.000000
vn -0.876500 -0.318100 0.361500
vn 0.876500 0.318100 0.361500
vn 0.431900 0.352300 -0.830300
vn -0.000000 -0.268000 0.963400
vn -0.000000 0.866600 0.499000
vn -0.614400 0.773300 0.156800
vn -0.743900 -0.381000 0.549100
vn -0.614400 0.586600 -0.527700
vn -0.743900 -0.607000 -0.279600
vn -0.000000 0.493200 -0.869900
vn -0.000000 -0.720000 -0.693900
vn 0.614400 0.586600 -0.527700
vn 0.743900 -0.607000 -0.279600
vn 0.614400 0.773300 0.156800
vn 0.743900 -0.381000 0.549100
vn -0.000000 -1.000000 0.000000
vn 0.425300 -0.850700 0.309000
vn -0.162500 -0.850700 0.500000
vn 0.723600 -0.447200 0.525700
vn 0.850600 -0.525700 0.000000
vn -0.525700 -0.850700 0.000000
vn -0.162500 -0.850700 -0.500000
vn 0.425300 -0.850700 -0.309000
vn 0.951100 -0.000000 0.309000
vn -0.276400 -0.447200 0.850600
vn 0.262900 -0.525700 0.809000
vn -0.894400 -0.447200 0.000000
vn -0.688200 -0.525700 0.500000
vn -0.951100 -0.000000 0.309000
vn -0.276400 -0.447200 -0.850600
vn -0.688200 -0.525700 -0.500000
vn -0.587800 -0.000000 -0.809000
vn 0.723600 -0.447200 -0.525700
vn 0.262900 -0.525700 -0.809000
vn 0.587800 -0.000000 -0.809000
vn 0.587800 -0.000000 0.809000
vn -0.587800 -0.000000 0.809000
vn -0.951100 -0.000000 -0.309000
vn 0.951100 -0.000000 -0.309000
vn 0.276400 0.447200 0.850600
vn 0.688200 0.525700 0.500000
vn 0.162500 0.850700 0.500000
vn -0.723600 0.447200 0.525700
vn -0.262900 0.525700 0.809000
vn -0.425300 0.850700 0.309000
vn -0.723600 0.447200 -0.525700
vn -0.850600 0.525700 0.000000
vn -0.425300 0.850700 -0.309000
vn 0.276400 0.447200 -0.850600
vn -0.262900 0.525700 -0.809000
vn 0.162500 0.850700 -0.500000
vn 0.894400 0.447200 0.000000
vn 0.688200 0.525700 -0.500000
vn 0.525700 0.850700 0.000000
vn -0.000000 1.000000 0.000000
vn -0.000000 -0.713000 -0.701200
vn -0.000000 0.524200 -0.851600
vn 0.557600 0.584100 -0.589900
vn 0.658700 -0.642200 -0.391900
vn 0.695300 0.718700 -0.001700
vn 0.821400 -0.483200 0.302900
vn 0.309400 0.826700 0.470000
vn 0.365600 -0.355700 0.860100
vn -0.309400 0.826700 0.470000
vn -0.365600 -0.355700 0.860100
vn -0.695300 0.718700 -0.001700
vn -0.821400 -0.483200 0.302900
vn -0.557600 0.584100 -0.589900
vn -0.658700 -0.642200 -0.391900
vn -0.000000 -0.600200 -0.799800
vn -0.000000 0.645500 -0.763700
vn 0.557600 0.665700 -0.495900
vn 0.658700 -0.576500 -0.483500
vn 0.695300 0.710900 0.105700
vn 0.821400 -0.523000 0.227300
vn 0.309500 0.747100 0.588200
vn 0.365600 -0.480200 0.797300
vn -0.309400 0.747200 0.588200
vn -0.365600 -0.480200 0.797300
vn -0.695300 0.710900 0.105700
vn -0.821400 -0.523100 0.227300
vn -0.557600 0.665700 -0.495900
vn -0.658700 -0.576500 -0.483500
vn -0.000000 -0.474000 -0.880500
vn -0.000000 0.752400 -0.658700
vn 0.557600 0.732300 -0.390900
vn 0.658700 -0.497700 -0.564200
vn 0.695300 0.687100 0.210800
vn 0.821400 -0.551200 0.146600
vn 0.309400 0.650900 0.693300
vn 0.365600 -0.594000 0.716600
vn -0.309500 0.650900 0.693300
vn -0.365600 -0.594000 0.716600
vn -0.695300 0.687100 0.210800
vn -0.821400 -0.551200 0.146600
vn -0.557600 0.732300 -0.390900
vn -0.658700 -0.497700 -0.564200
vn -0.000000 -0.337100 -0.941500
vn -0.000000 0.842400 -0.538800
vn 0.557600 0.782500 -0.277100
vn 0.658700 -0.407800 -0.632200
vn 0.695300 0.648000 0.311100
vn 0.821400 -0.566900 0.062600
vn 0.309500 0.539900 0.782800
vn 0.365600 -0.694400 0.619800
vn -0.309500 0.539900 0.782800
vn -0.365600 -0.694400 0.619800
vn -0.695300 0.647900 0.311100
vn -0.821400 -0.566900 0.062600
vn -0.557600 0.782500 -0.277100
vn -0.658700 -0.407800 -0.632300
vn 0.539300 -0.745400 0.391800
vn -0.206000 -0.745400 0.634000
vn 0.767600 -0.316000 0.557700
vn 0.920900 -0.389900 0.000000
vn -0.666600 -0.745400 0.000000
vn -0.206000 -0.745400 -0.634000
vn 0.539300 -0.745400 -0.391800
vn -0.293200 -0.316000 0.902300
vn 0.284600 -0.389900 0.875800
vn -0.948800 -0.316000 0.000000
vn -0.745000 -0.389900 0.541300
vn -0.293200 -0.316000 -0.902300
vn -0.745000 -0.389900 -0.541300
vn 0.767600 -0.316000 -0.557700
vn 0.284600 -0.389900 -0.875800
vn 0.293200 0.316000 0.902300
vn 0.745000 0.389900 0.541300
vn 0.206000 0.745400 0.634000
vn -0.767600 0.316000 0.557700
vn -0.284600 0.389900 0.875800
vn -0.539300 0.745400 0.391800
vn -0.767600 0.316000 -0.557700
vn -0.920900 0.389900 0.000000
vn -0.539300 0.745400 -0.391800
vn 0.293200 0.316000 -0.902300
vn -0.284600 0.389900 -0.875800
vn 0.206000 0.745400 -0.634000
vn 0.948800 0.316000 0.000000
vn 0.745000 0.389900 -0.541300
vn 0.666600 0.745400 0.000000
vn -0.000000 -0.860400 0.509600
vn -0.000000 -0.686000 -0.727600
vn 0.536300 -0.427700 -0.727700
vn 0.672700 -0.536500 0.509600
vn 0.668800 0.152700 -0.727600
vn 0.838900 0.191500 0.509600
vn 0.297600 0.618000 -0.727700
vn 0.373300 0.775200 0.509600
vn -0.297600 0.618000 -0.727600
vn -0.373300 0.775200 0.509600
vn -0.668800 0.152700 -0.727600
vn -0.838900 0.191500 0.509600
vn -0.536300 -0.427700 -0.727700
vn -0.672700 -0.536500 0.509600
vn -0.276400 -0.447200 0.850700
vn -0.276400 -0.447200 -0.850700
vn 0.276400 0.447200 0.850700
vn 0.276400 0.447200 -0.850700
vn -0.000000 0.079000 -0.996900
vn -0.000000 0.983900 -0.178600
vn 0.682900 0.721300 0.115500
vn 0.689600 -0.186100 -0.699900
vn 0.682900 0.196200 0.703700
vn 0.689600 -0.716400 -0.106000
vn -0.000000 -0.066400 0.997800
vn -0.000000 -0.981600 0.191000
vn -0.682900 0.196200 0.703700
vn -0.689600 -0.716400 -0.106000
vn -0.682900 0.721300 0.115500
vn -0.689600 -0.186100 -0.699900
vn -0.000000 -0.436800 -0.899600
vn -0.000000 0.757900 -0.652400
vn 0.682700 0.680600 -0.265900
vn 0.689700 -0.514900 -0.509100
vn 0.682700 0.526000 0.507200
vn 0.689700 -0.671100 0.271900
vn -0.000000 0.448700 0.893700
vn -0.000000 -0.749200 0.662400
vn -0.682700 0.526000 0.507200
vn -0.689700 -0.671100 0.271900
vn -0.682700 0.680600 -0.265900
vn -0.689700 -0.514900 -0.509100
vn -0.000000 -0.061400 0.998100
vn -0.000000 0.949200 0.314700
vn -0.682700 0.730500 -0.013300
vn -0.689700 -0.282300 0.666800
vn -0.682700 0.293200 -0.669200
vn -0.689700 -0.724100 0.004200
vn -0.000000 0.074600 -0.997200
vn -0.000000 -0.945000 -0.327200
vn 0.682700 0.293200 -0.669200
vn 0.689700 -0.724100 0.004200
vn 0.682700 0.730500 -0.013300
vn 0.689700 -0.282300 0.666800
vn -0.000000 -0.061500 0.998100
vn -0.689700 -0.724100 0.004100
vn 0.689700 -0.724100 0.004100
vt 0.839799 0.172387
vt 0.839799 0.072171
vt 0.847240 0.072553
vt 0.847240 0.172769
vt 0.811834 0.507882
vt 0.811834 0.406758
vt 0.819239 0.406791
vt 0.819239 0.507914
vt 0.826555 0.406756
vt 0.826555 0.507879
vt 0.776843 0.851030
vt 0.776843 0.750873
vt 0.784121 0.751321
vt 0.784121 0.851479
vt 0.791561 0.750927
vt 0.791561 0.851084
vt 0.652947 0.813038
vt 0.652947 0.711931
vt 0.660255 0.711999
vt 0.660255 0.813105
vt 0.959318 0.018260
vt 0.959318 0.026215
vt 0.953756 0.031891
vt 0.945890 0.031965
vt 0.940328 0.026392
vt 0.940328 0.018437
vt 0.945890 0.012761
vt 0.953756 0.012687
vt 0.667667 0.711937
vt 0.667667 0.813043
vt 0.832522 0.172822
vt 0.832522 0.072606
vt 0.943496 0.937652
vt 0.943496 0.929699
vt 0.949037 0.924138
vt 0.956874 0.924226
vt 0.962415 0.929912
vt 0.962415 0.937865
vt 0.956874 0.943426
vt 0.949037 0.943338
vt 0.857453 0.904814
vt 0.838011 0.903079
vt 0.851112 0.885424
vt 0.851112 0.922017
vt 0.872310 0.893450
vt 0.872310 0.916066
vt 0.181790 0.366743
vt 0.181790 0.390196
vt 0.173848 0.378416
vt 0.984499 0.416638
vt 0.982513 0.437191
vt 0.976053 0.427782
vt 0.945630 0.857776
vt 0.945904 0.839023
vt 0.953685 0.846108
vt 0.945904 0.876970
vt 0.953685 0.869560
vt 0.976053 0.492992
vt 0.976053 0.471966
vt 0.984487 0.483121
vt 0.173705 0.359630
vt 0.976053 0.406756
vt 0.982562 0.462566
vt 0.173705 0.397578
vt 0.223788 0.894795
vt 0.244977 0.902904
vt 0.229140 0.912808
vt 0.210694 0.912499
vt 0.223789 0.931549
vt 0.244977 0.925620
vt 0.214976 0.980672
vt 0.218524 0.958757
vt 0.219502 0.958566
vt 0.219865 0.979719
vt 0.953015 0.256656
vt 0.955897 0.226900
vt 0.956907 0.226900
vt 0.958068 0.256656
vt 0.957703 0.226897
vt 0.962044 0.256644
vt 0.178598 0.466733
vt 0.180286 0.440298
vt 0.181318 0.440298
vt 0.183759 0.466733
vt 0.945672 0.652084
vt 0.950073 0.622331
vt 0.950864 0.622339
vt 0.949626 0.652127
vt 0.217668 0.958256
vt 0.217578 0.957440
vt 0.218322 0.956924
vt 0.219340 0.957097
vt 0.219865 0.957827
vt 0.951876 0.622339
vt 0.954686 0.652127
vt 0.210694 0.978166
vt 0.698261 0.197423
vt 0.698261 0.192446
vt 0.701486 0.189987
vt 0.705507 0.191898
vt 0.707297 0.196739
vt 0.705507 0.200866
vt 0.701486 0.201170
vt 0.836739 0.327113
vt 0.836739 0.226897
vt 0.844179 0.227280
vt 0.844179 0.327495
vt 0.819728 0.728469
vt 0.819728 0.627346
vt 0.827133 0.627379
vt 0.827133 0.728502
vt 0.834449 0.627344
vt 0.834449 0.728467
vt 0.819728 0.854035
vt 0.819728 0.753877
vt 0.827006 0.754326
vt 0.827006 0.854483
vt 0.834446 0.753931
vt 0.834446 0.854089
vt 0.579985 0.822017
vt 0.579985 0.720911
vt 0.587293 0.720978
vt 0.587293 0.822085
vt 0.961114 0.712948
vt 0.961114 0.720903
vt 0.955552 0.726579
vt 0.947686 0.726652
vt 0.942125 0.721079
vt 0.942125 0.713125
vt 0.947686 0.707448
vt 0.955552 0.707375
vt 0.594705 0.720916
vt 0.594705 0.822023
vt 0.829462 0.327548
vt 0.829462 0.227333
vt 0.945648 0.767391
vt 0.945648 0.759438
vt 0.951189 0.753877
vt 0.959026 0.753965
vt 0.964567 0.759651
vt 0.964567 0.767604
vt 0.959026 0.773165
vt 0.951189 0.773077
vt 0.165830 0.913633
vt 0.160569 0.894836
vt 0.181719 0.900836
vt 0.147497 0.913794
vt 0.181719 0.923503
vt 0.160568 0.931511
vt 0.070439 0.798736
vt 0.070439 0.822189
vt 0.062498 0.810409
vt 0.965176 0.167015
vt 0.963190 0.187568
vt 0.956730 0.178159
vt 0.337428 0.916550
vt 0.337702 0.897797
vt 0.345483 0.904882
vt 0.337702 0.935744
vt 0.345483 0.928334
vt 0.147497 0.987312
vt 0.147497 0.966286
vt 0.155931 0.977442
vt 0.062354 0.791624
vt 0.956730 0.157133
vt 0.154005 0.956886
vt 0.062354 0.829572
vt 0.721141 0.886186
vt 0.742329 0.894296
vt 0.726492 0.904199
vt 0.708046 0.903890
vt 0.721141 0.922941
vt 0.742329 0.917012
vt 0.249522 0.980672
vt 0.253070 0.958757
vt 0.254048 0.958566
vt 0.254411 0.979719
vt 0.954719 0.565216
vt 0.957601 0.535460
vt 0.958611 0.535460
vt 0.959772 0.565216
vt 0.959406 0.535458
vt 0.963748 0.565205
vt 0.178598 0.518543
vt 0.180286 0.492108
vt 0.181318 0.492108
vt 0.183759 0.518543
vt 0.952972 0.341671
vt 0.957373 0.311918
vt 0.958164 0.311926
vt 0.956925 0.341714
vt 0.252214 0.958256
vt 0.252124 0.957440
vt 0.252868 0.956924
vt 0.253886 0.957097
vt 0.254411 0.957827
vt 0.959176 0.311926
vt 0.961985 0.341714
vt 0.245240 0.978166
vt 0.693042 0.851992
vt 0.693042 0.847015
vt 0.696267 0.844556
vt 0.700288 0.846466
vt 0.702078 0.851308
vt 0.700288 0.855435
vt 0.696267 0.855739
vt 0.076147 0.338297
vt 0.056854 0.320340
vt 0.083578 0.309748
vt 0.165101 0.056875
vt 0.185319 0.071570
vt 0.165234 0.084850
vt 0.100094 0.337687
vt 0.083578 0.365547
vt 0.056854 0.354826
vt 0.142211 0.061747
vt 0.463449 0.372371
vt 0.440101 0.379108
vt 0.451066 0.353123
vt 0.245831 0.116229
vt 0.234561 0.089599
vt 0.263336 0.094763
vt 0.437729 0.117487
vt 0.418193 0.125150
vt 0.423079 0.095658
vt 0.138300 0.179054
vt 0.139957 0.198690
vt 0.113315 0.192620
vt 0.148068 0.034189
vt 0.478024 0.350995
vt 0.270137 0.129219
vt 0.449537 0.094816
vt 0.119635 0.164668
vt 0.408263 0.276663
vt 0.388722 0.268936
vt 0.412159 0.251561
vt 0.330135 0.036090
vt 0.332896 0.016948
vt 0.354882 0.041435
vt 0.354356 0.158801
vt 0.354755 0.130625
vt 0.375286 0.144803
vt 0.301086 0.414559
vt 0.277553 0.415158
vt 0.296757 0.394948
vt 0.056309 0.096779
vt 0.044247 0.123313
vt 0.033639 0.092004
vt 0.298232 0.305174
vt 0.281715 0.333204
vt 0.274301 0.304612
vt 0.324468 0.307310
vt 0.308828 0.337344
vt 0.346308 0.310856
vt 0.335282 0.340471
vt 0.289892 0.365987
vt 0.317105 0.371320
vt 0.019719 0.121128
vt 0.034895 0.153270
vt 0.340212 0.371935
vt 0.320795 0.397790
vt 0.254990 0.322541
vt 0.261239 0.356458
vt 0.269516 0.390433
vt 0.233949 0.343666
vt 0.240105 0.378699
vt 0.216582 0.362960
vt 0.249693 0.408292
vt 0.224103 0.393832
vt 0.364304 0.176068
vt 0.254990 0.287922
vt 0.231828 0.306624
vt 0.210694 0.328864
vt 0.233949 0.271196
vt 0.210694 0.290764
vt 0.216582 0.259100
vt 0.375781 0.110601
vt 0.350382 0.095625
vt 0.368296 0.072682
vt 0.341152 0.061713
vt 0.281715 0.277187
vt 0.261239 0.256711
vt 0.240105 0.240851
vt 0.289892 0.248726
vt 0.269516 0.229038
vt 0.439212 0.243300
vt 0.418880 0.226897
vt 0.493032 0.245179
vt 0.485452 0.266119
vt 0.468879 0.240959
vt 0.459442 0.266277
vt 0.431537 0.270373
vt 0.308828 0.275697
vt 0.296757 0.226897
vt 0.317105 0.248024
vt 0.335282 0.278824
vt 0.033119 0.060039
vt 0.012687 0.087730
vt 0.392093 0.241718
vt 0.068137 0.012687
vt 0.060384 0.037071
vt 0.039564 0.029710
vt 0.056424 0.067804
vt 0.073590 0.118463
vt 0.096318 0.143118
vt 0.063686 0.150248
vt 0.089022 0.175672
vt 0.056730 0.181010
vt 0.031607 0.179217
vt 0.083088 0.201631
vt 0.521348 0.071575
vt 0.507489 0.043123
vt 0.530384 0.043726
vt 0.513190 0.018363
vt 0.492915 0.021727
vt 0.480528 0.041039
vt 0.469567 0.014991
vt 0.464910 0.067213
vt 0.452704 0.037722
vt 0.435651 0.067314
vt 0.441963 0.012687
vt 0.423587 0.038648
vt 0.416652 0.016674
vt 0.409526 0.068974
vt 0.401156 0.043563
vt 0.344139 0.200683
vt 0.336985 0.181213
vt 0.331083 0.153127
vt 0.300830 0.142730
vt 0.327135 0.119762
vt 0.293599 0.106607
vt 0.319650 0.081842
vt 0.286593 0.070602
vt 0.310679 0.049759
vt 0.305576 0.022092
vt 0.491880 0.322532
vt 0.477591 0.293578
vt 0.500948 0.292992
vt 0.464977 0.325495
vt 0.447923 0.295919
vt 0.435449 0.326986
vt 0.420075 0.299375
vt 0.393614 0.298486
vt 0.380058 0.325126
vt 0.371683 0.293360
vt 0.118987 0.039072
vt 0.124331 0.013615
vt 0.091814 0.021074
vt 0.085368 0.051403
vt 0.112071 0.071303
vt 0.081115 0.084157
vt 0.494439 0.068681
vt 0.530420 0.101068
vt 0.507057 0.100566
vt 0.477385 0.098273
vt 0.514924 0.127957
vt 0.488910 0.127862
vt 0.461002 0.123789
vt 0.313184 0.201522
vt 0.307578 0.175436
vt 0.401156 0.100697
vt 0.280537 0.193189
vt 0.274042 0.162280
vt 0.257369 0.201522
vt 0.249394 0.176498
vt 0.245566 0.145351
vt 0.280498 0.038239
vt 0.254447 0.063004
vt 0.275910 0.012687
vt 0.248830 0.032556
vt 0.500913 0.350304
vt 0.226358 0.059792
vt 0.224355 0.034267
vt 0.483720 0.375666
vt 0.406188 0.326858
vt 0.423242 0.356434
vt 0.394121 0.355456
vt 0.371683 0.350457
vt 0.412496 0.381381
vt 0.387179 0.377331
vt 0.154753 0.015424
vt 0.174710 0.040260
vt 0.104260 0.107155
vt 0.137878 0.094824
vt 0.129596 0.132579
vt 0.160264 0.119663
vt 0.150183 0.153463
vt 0.162742 0.174490
vt 0.035875 0.371186
vt 0.042097 0.401119
vt 0.018611 0.382759
vt 0.063141 0.385748
vt 0.522513 0.148788
vt 0.498355 0.153083
vt 0.071507 0.412918
vt 0.468684 0.150789
vt 0.091816 0.393629
vt 0.448359 0.167105
vt 0.441630 0.142536
vt 0.119093 0.394056
vt 0.098781 0.414923
vt 0.110727 0.366887
vt 0.421571 0.152287
vt 0.229299 0.183993
vt 0.137270 0.363396
vt 0.222804 0.153085
vt 0.126390 0.335310
vt 0.148330 0.331343
vt 0.223579 0.120864
vt 0.137270 0.301988
vt 0.110728 0.305479
vt 0.210694 0.091729
vt 0.119094 0.271240
vt 0.142303 0.270184
vt 0.122900 0.244353
vt 0.091816 0.276824
vt 0.098781 0.247525
vt 0.103220 0.227497
vt 0.177037 0.143389
vt 0.185319 0.105634
vt 0.012687 0.351367
vt 0.012687 0.313415
vt 0.033731 0.335997
vt 0.018611 0.279302
vt 0.035875 0.298997
vt 0.079659 0.227006
vt 0.071507 0.252149
vt 0.063141 0.286388
vt 0.051788 0.233871
vt 0.042097 0.263806
vt 0.026212 0.248190
vt 0.158129 0.846424
vt 0.147497 0.829264
vt 0.162356 0.819819
vt 0.441428 0.488942
vt 0.430357 0.514356
vt 0.414894 0.493941
vt 0.171540 0.844662
vt 0.162356 0.869461
vt 0.147497 0.859944
vt 0.430560 0.460741
vt 0.670702 0.156399
vt 0.658301 0.163566
vt 0.658325 0.131375
vt 0.253432 0.522799
vt 0.228245 0.527650
vt 0.237775 0.494569
vt 0.296707 0.522467
vt 0.278802 0.527650
vt 0.294456 0.494374
vt 0.388268 0.488942
vt 0.373773 0.493775
vt 0.373899 0.460639
vt 0.455705 0.460639
vt 0.672886 0.127133
vt 0.269020 0.494569
vt 0.126258 0.515404
vt 0.124079 0.486704
vt 0.138653 0.488271
vt 0.399313 0.460741
vt 0.457700 0.432286
vt 0.440124 0.427440
vt 0.439933 0.406756
vt 0.226906 0.466187
vt 0.212782 0.460977
vt 0.237983 0.440533
vt 0.280065 0.466187
vt 0.253429 0.461293
vt 0.269228 0.440533
vt 0.151045 0.463203
vt 0.138649 0.456021
vt 0.153215 0.440298
vt 0.414920 0.432460
vt 0.389565 0.427440
vt 0.414788 0.406859
vt 0.036732 0.829236
vt 0.027547 0.854166
vt 0.023366 0.827657
vt 0.389374 0.406756
vt 0.371683 0.432286
vt 0.012687 0.844668
vt 0.016957 0.873054
vt 0.294585 0.460977
vt 0.012687 0.813868
vt 0.027547 0.804330
vt 0.658301 0.072171
vt 0.658325 0.096465
vt 0.643740 0.076413
vt 0.645930 0.104224
vt 0.212653 0.494374
vt 0.153223 0.492477
vt 0.138653 0.523161
vt 0.210694 0.522467
vt 0.643740 0.132898
vt 0.455579 0.493775
vt 0.399110 0.514356
vt 0.138648 0.547364
vt 0.124079 0.543157
vt 0.279037 0.547900
vt 0.253601 0.548095
vt 0.228480 0.547900
vt 0.672847 0.179218
vt 0.151864 0.800548
vt 0.108711 0.836698
vt 0.098079 0.819537
vt 0.112938 0.810092
vt 0.082432 0.522484
vt 0.071361 0.547898
vt 0.055898 0.527482
vt 0.122122 0.834935
vt 0.112938 0.859734
vt 0.098079 0.850217
vt 0.071564 0.494283
vt 0.660880 0.311125
vt 0.648479 0.318292
vt 0.648503 0.286101
vt 0.525813 0.489023
vt 0.500626 0.493874
vt 0.510155 0.460793
vt 0.569088 0.488691
vt 0.551183 0.493874
vt 0.566837 0.460598
vt 0.029272 0.522484
vt 0.014778 0.527317
vt 0.014903 0.494181
vt 0.096710 0.494181
vt 0.663064 0.281859
vt 0.541401 0.460793
vt 0.596642 0.481862
vt 0.594463 0.453163
vt 0.609037 0.454729
vt 0.040318 0.494283
vt 0.098704 0.465828
vt 0.081128 0.460981
vt 0.080937 0.440298
vt 0.499287 0.432410
vt 0.485163 0.427201
vt 0.510364 0.406756
vt 0.552446 0.432410
vt 0.525810 0.427517
vt 0.541609 0.406756
vt 0.621429 0.429661
vt 0.609032 0.422480
vt 0.623599 0.406756
vt 0.055925 0.466002
vt 0.030570 0.460981
vt 0.055792 0.440400
vt 0.234738 0.825602
vt 0.225554 0.850532
vt 0.221372 0.824023
vt 0.030378 0.440298
vt 0.012687 0.465828
vt 0.210694 0.841034
vt 0.214963 0.869420
vt 0.566966 0.427201
vt 0.210694 0.810234
vt 0.225554 0.800696
vt 0.648479 0.226897
vt 0.648503 0.251191
vt 0.633918 0.231140
vt 0.636107 0.258951
vt 0.485034 0.460598
vt 0.623607 0.458936
vt 0.609037 0.489619
vt 0.483075 0.488691
vt 0.633918 0.287624
vt 0.096584 0.527317
vt 0.040114 0.547898
vt 0.609032 0.513822
vt 0.594463 0.509616
vt 0.551418 0.514123
vt 0.525982 0.514318
vt 0.500861 0.514123
vt 0.663025 0.333944
vt 0.102446 0.790822
vt 0.374708 0.580309
vt 0.439716 0.581003
vt 0.437825 0.607142
vt 0.371683 0.622131
vt 0.579985 0.695536
vt 0.589058 0.627344
vt 0.618800 0.627344
vt 0.627572 0.695536
vt 0.551486 0.622093
vt 0.483075 0.606645
vt 0.485027 0.581286
vt 0.554610 0.581519
vt 0.483075 0.555145
vt 0.551486 0.539693
vt 0.652947 0.642128
vt 0.678705 0.627344
vt 0.704464 0.642166
vt 0.704464 0.671773
vt 0.678705 0.686556
vt 0.652947 0.671734
vt 0.648982 0.474801
vt 0.657742 0.406756
vt 0.687485 0.406756
vt 0.696569 0.474801
vt 0.371683 0.539731
vt 0.437825 0.555641
vt 0.526323 0.250762
vt 0.567433 0.226897
vt 0.608543 0.250606
vt 0.608543 0.298179
vt 0.567433 0.322044
vt 0.526323 0.298336
vt 0.597713 0.141537
vt 0.582866 0.160427
vt 0.574563 0.134205
vt 0.569919 0.173506
vt 0.593599 0.179218
vt 0.596503 0.117998
vt 0.618365 0.134205
vt 0.609936 0.160427
vt 0.641944 0.560645
vt 0.633204 0.582611
vt 0.620017 0.558824
vt 0.144756 0.634162
vt 0.120883 0.638152
vt 0.131577 0.615741
vt 0.596967 0.070129
vt 0.579557 0.084209
vt 0.574954 0.059998
vt 0.228883 0.616189
vt 0.210744 0.621172
vt 0.215757 0.596228
vt 0.273777 0.619595
vt 0.252836 0.620691
vt 0.268160 0.597933
vt 0.631019 0.539693
vt 0.157963 0.613704
vt 0.598716 0.046018
vt 0.241771 0.595930
vt 0.618227 0.601114
vt 0.594522 0.601969
vt 0.606076 0.582611
vt 0.118686 0.595466
vt 0.100541 0.590418
vt 0.123458 0.575309
vt 0.163576 0.592001
vt 0.142639 0.590959
vt 0.149843 0.573273
vt 0.596967 0.023652
vt 0.574954 0.032679
vt 0.579556 0.012688
vt 0.012687 0.623583
vt 0.015079 0.599496
vt 0.031144 0.618357
vt 0.595792 0.560645
vt 0.581335 0.578182
vt 0.579985 0.551657
vt 0.053152 0.634564
vt 0.054248 0.611056
vt 0.028724 0.641927
vt 0.039507 0.592134
vt 0.026916 0.578968
vt 0.066684 0.592134
vt 0.050618 0.573273
vt 0.556540 0.047437
vt 0.555795 0.026668
vt 0.075117 0.618357
vt 0.072697 0.641927
vt 0.603891 0.539693
vt 0.254952 0.577470
vt 0.273777 0.576710
vt 0.231080 0.573470
vt 0.210694 0.577976
vt 0.105559 0.615407
vt 0.618005 0.034269
vt 0.618005 0.061588
vt 0.555795 0.070871
vt 0.163576 0.634856
vt 0.100492 0.633593
vt 0.260049 0.638293
vt 0.233661 0.636290
vt 0.615666 0.110567
vt 0.606164 0.085192
vt 0.571864 0.110567
vt 0.555795 0.128894
vt 0.638416 0.601969
vt 0.558226 0.152996
vt 0.655885 0.898962
vt 0.658682 0.838600
vt 0.660096 0.838600
vt 0.667667 0.898962
vt 0.897689 0.682000
vt 0.905545 0.622348
vt 0.907059 0.622348
vt 0.910304 0.682000
vt 0.908258 0.622331
vt 0.920297 0.681854
vt 0.012687 0.956681
vt 0.018808 0.898429
vt 0.020356 0.898429
vt 0.025588 0.956681
vt 0.889795 0.466298
vt 0.901969 0.406756
vt 0.903168 0.406786
vt 0.899787 0.466552
vt 0.403336 0.195957
vt 0.401827 0.195611
vt 0.401156 0.194215
vt 0.401827 0.192822
vt 0.403336 0.192480
vt 0.404545 0.193447
vt 0.404545 0.194994
vt 0.904682 0.406786
vt 0.912402 0.466552
vt 0.644442 0.897964
vt 0.657309 0.838480
vt 0.531922 0.373525
vt 0.526323 0.361903
vt 0.531922 0.350284
vt 0.544503 0.347419
vt 0.554592 0.355465
vt 0.554592 0.368362
vt 0.544503 0.376400
vt 0.591460 0.906063
vt 0.591901 0.847460
vt 0.593313 0.847500
vt 0.603231 0.906397
vt 0.905042 0.286543
vt 0.912904 0.226912
vt 0.914419 0.226912
vt 0.917662 0.286543
vt 0.915616 0.226897
vt 0.927640 0.286417
vt 0.937777 0.466875
vt 0.943664 0.406756
vt 0.945212 0.406756
vt 0.950678 0.466875
vt 0.897685 0.813416
vt 0.909847 0.753877
vt 0.911042 0.753905
vt 0.907648 0.813648
vt 0.432641 0.195603
vt 0.431131 0.195944
vt 0.429920 0.194982
vt 0.429920 0.193440
vt 0.431131 0.192480
vt 0.432641 0.192825
vt 0.433313 0.194215
vt 0.912557 0.753905
vt 0.920273 0.813648
vt 0.579985 0.906397
vt 0.590524 0.847500
vt 0.590050 0.376240
vt 0.579967 0.368200
vt 0.579967 0.355374
vt 0.590050 0.347419
vt 0.602622 0.350326
vt 0.608218 0.361906
vt 0.602622 0.373439
vt 0.779792 0.932317
vt 0.780460 0.876854
vt 0.781873 0.876994
vt 0.791561 0.933482
vt 0.906755 0.595076
vt 0.914629 0.535470
vt 0.916144 0.535470
vt 0.919380 0.595076
vt 0.917340 0.535458
vt 0.929344 0.594972
vt 0.260113 0.861331
vt 0.265760 0.800696
vt 0.267308 0.800696
vt 0.273014 0.861331
vt 0.897685 0.898558
vt 0.909828 0.839023
vt 0.911020 0.839048
vt 0.907622 0.898763
vt 0.460845 0.195894
vt 0.459352 0.195512
vt 0.458688 0.194124
vt 0.459352 0.192775
vt 0.460845 0.192480
vt 0.462043 0.193462
vt 0.462043 0.194981
vt 0.912536 0.839048
vt 0.920255 0.898763
vt 0.768314 0.933482
vt 0.779083 0.876994
vt 0.696754 0.030848
vt 0.699371 0.018280
vt 0.710531 0.012687
vt 0.721830 0.018280
vt 0.724761 0.030848
vt 0.717115 0.040926
vt 0.704651 0.040926
vt 0.109563 0.936187
vt 0.110444 0.885109
vt 0.111856 0.885345
vt 0.121325 0.938158
vt 0.908103 0.131758
vt 0.915994 0.072180
vt 0.917510 0.072180
vt 0.920731 0.131758
vt 0.918704 0.072171
vt 0.930684 0.131680
vt 0.299152 0.957587
vt 0.304561 0.897797
vt 0.306109 0.897797
vt 0.312053 0.957587
vt 0.905042 0.371447
vt 0.917159 0.311918
vt 0.918349 0.311939
vt 0.914956 0.371621
vt 0.490696 0.193976
vt 0.490047 0.195360
vt 0.488588 0.195804
vt 0.487418 0.194974
vt 0.487418 0.193495
vt 0.488588 0.192480
vt 0.490047 0.192694
vt 0.919866 0.311939
vt 0.927597 0.371621
vt 0.098079 0.938158
vt 0.109066 0.885345
vt 0.750136 0.030803
vt 0.752348 0.018267
vt 0.762831 0.012687
vt 0.773692 0.018267
vt 0.776751 0.030803
vt 0.769705 0.040857
vt 0.757861 0.040857
vt 0.696222 0.363230
vt 0.700466 0.352631
vt 0.707899 0.363095
vt 0.799230 0.587680
vt 0.791739 0.599672
vt 0.788008 0.587806
vt 0.700466 0.373429
vt 0.688439 0.369350
vt 0.688439 0.356497
vt 0.798240 0.572217
vt 0.872581 0.582737
vt 0.861438 0.585419
vt 0.866423 0.568526
vt 0.729026 0.585992
vt 0.718452 0.584822
vt 0.728054 0.569809
vt 0.307632 0.857312
vt 0.299178 0.860724
vt 0.301506 0.842546
vt 0.328602 0.858618
vt 0.318816 0.860233
vt 0.325969 0.843010
vt 0.808294 0.574449
vt 0.878748 0.567743
vt 0.740141 0.574219
vt 0.313643 0.842243
vt 0.777901 0.582760
vt 0.775471 0.566879
vt 0.785703 0.569325
vt 0.860412 0.553452
vt 0.851955 0.550010
vt 0.862653 0.539086
vt 0.881380 0.552120
vt 0.871595 0.550530
vt 0.874978 0.538303
vt 0.749589 0.561703
vt 0.740141 0.555533
vt 0.750096 0.547445
vt 0.319801 0.828010
vt 0.308658 0.825323
vt 0.317904 0.815634
vt 0.795308 0.556239
vt 0.785703 0.551290
vt 0.798241 0.543036
vt 0.869229 0.024761
vt 0.858884 0.032223
vt 0.859024 0.020611
vt 0.868830 0.037329
vt 0.328602 0.826565
vt 0.848429 0.024761
vt 0.848030 0.037329
vt 0.299152 0.828527
vt 0.305767 0.815937
vt 0.852311 0.012688
vt 0.738009 0.543036
vt 0.729026 0.554202
vt 0.865166 0.012687
vt 0.808294 0.545268
vt 0.805989 0.555969
vt 0.854285 0.568205
vt 0.750096 0.577679
vt 0.738009 0.591956
vt 0.718452 0.566136
vt 0.881380 0.584152
vt 0.851930 0.582191
vt 0.322202 0.872422
vt 0.309876 0.871655
vt 0.734560 0.601969
vt 0.724605 0.598509
vt 0.713225 0.373025
vt 0.870682 0.595076
vt 0.779201 0.596781
vt 0.713225 0.352227
vt 0.705282 0.344739
vt 0.919660 0.158198
vt 0.919930 0.199455
vt 0.918774 0.199348
vt 0.908103 0.157133
vt 0.371683 0.941677
vt 0.379987 0.896884
vt 0.381242 0.896884
vt 0.384232 0.941677
vt 0.382260 0.896869
vt 0.394411 0.941525
vt 0.063868 0.898429
vt 0.058095 0.944442
vt 0.056804 0.944442
vt 0.050963 0.898429
vt 0.483075 0.941493
vt 0.495200 0.896831
vt 0.496226 0.896849
vt 0.493333 0.941671
vt 0.518882 0.193908
vt 0.518325 0.195071
vt 0.517074 0.195369
vt 0.516071 0.194577
vt 0.516071 0.193291
vt 0.517074 0.192480
vt 0.518326 0.192755
vt 0.497477 0.896849
vt 0.505851 0.941671
vt 0.931355 0.157133
vt 0.921099 0.199348
vt 0.643380 0.027248
vt 0.648926 0.015604
vt 0.661387 0.012687
vt 0.671380 0.020694
vt 0.671380 0.033595
vt 0.661387 0.041676
vt 0.648926 0.038851
vt 0.775353 0.965725
vt 0.768314 0.965176
vt 0.772885 0.958857
vt 0.772885 0.971343
vt 0.780281 0.961118
vt 0.780281 0.968835
vt 0.098079 0.975975
vt 0.098248 0.970584
vt 0.104848 0.974155
vt 0.626768 0.723279
vt 0.626768 0.731097
vt 0.620131 0.727168
vt 0.344203 0.970649
vt 0.337428 0.973570
vt 0.337607 0.966531
vt 0.620080 0.803205
vt 0.620178 0.796960
vt 0.626756 0.799316
vt 0.620178 0.809608
vt 0.626756 0.807133
vt 0.104848 0.966465
vt 0.620080 0.720911
vt 0.344203 0.962954
vt 0.098079 0.963532
vt 0.620080 0.733560
vt 0.964950 0.369580
vt 0.964950 0.377320
vt 0.959980 0.372800
vt 0.337428 0.961119
vt 0.952972 0.373290
vt 0.957547 0.367089
vt 0.957547 0.379613
vt 0.962153 0.123093
vt 0.960620 0.116201
vt 0.967999 0.118726
vt 0.956059 0.122375
vt 0.967999 0.126460
vt 0.960620 0.128716
vt 0.483075 0.979489
vt 0.483244 0.974097
vt 0.489843 0.977669
vt 0.626768 0.761303
vt 0.626768 0.769121
vt 0.620131 0.765193
vt 0.812432 0.968388
vt 0.805656 0.971308
vt 0.805835 0.964269
vt 0.062354 0.861193
vt 0.062452 0.854947
vt 0.069031 0.857303
vt 0.062452 0.867596
vt 0.069031 0.865121
vt 0.489843 0.969979
vt 0.620080 0.758935
vt 0.812432 0.960692
vt 0.483075 0.967046
vt 0.620080 0.771585
vt 0.957626 0.801031
vt 0.957626 0.808771
vt 0.952656 0.804250
vt 0.805656 0.958857
vt 0.945648 0.804741
vt 0.950223 0.798540
vt 0.950223 0.811064
vt 0.701273 0.319364
vt 0.700740 0.231064
vt 0.712372 0.226897
vt 0.714197 0.314735
vt 0.147497 0.775174
vt 0.148214 0.663527
vt 0.161596 0.663527
vt 0.162366 0.775174
vt 0.698261 0.164612
vt 0.700399 0.076225
vt 0.711923 0.072171
vt 0.711066 0.160108
vt 0.723580 0.076225
vt 0.724018 0.164612
vt 0.595045 0.931771
vt 0.600410 0.943356
vt 0.595562 0.954941
vt 0.585350 0.954941
vt 0.579985 0.943356
vt 0.584832 0.931771
vt 0.210694 0.775321
vt 0.211458 0.663668
vt 0.224838 0.663668
vt 0.225560 0.775321
vt 0.688439 0.314735
vt 0.689189 0.226897
vt 0.787561 0.367064
vt 0.793506 0.354192
vt 0.804813 0.354192
vt 0.810174 0.367064
vt 0.804228 0.379936
vt 0.792922 0.379936
vt 0.750230 0.326782
vt 0.751186 0.226897
vt 0.760852 0.228691
vt 0.761202 0.328817
vt 0.729838 0.860811
vt 0.730575 0.754639
vt 0.741578 0.754639
vt 0.742329 0.860811
vt 0.721944 0.507223
vt 0.722327 0.406756
vt 0.731718 0.408571
vt 0.732604 0.509284
vt 0.741382 0.406756
vt 0.743574 0.507223
vt 0.651979 0.364212
vt 0.651979 0.375052
vt 0.642949 0.380998
vt 0.633918 0.376105
vt 0.633918 0.365265
vt 0.642949 0.359319
vt 0.859824 0.728502
vt 0.860556 0.622331
vt 0.871559 0.622331
vt 0.872314 0.728502
vt 0.739572 0.328817
vt 0.741797 0.228691
vt 0.894603 0.030468
vt 0.894604 0.018176
vt 0.904778 0.012687
vt 0.914953 0.019490
vt 0.914953 0.031782
vt 0.904778 0.037270
vt 0.795212 0.322855
vt 0.796474 0.226897
vt 0.804044 0.228770
vt 0.804087 0.325051
vt 0.872615 0.179410
vt 0.873354 0.072171
vt 0.881980 0.072171
vt 0.882728 0.179410
vt 0.768949 0.503488
vt 0.769007 0.406756
vt 0.776372 0.408645
vt 0.777583 0.505703
vt 0.783942 0.406756
vt 0.786459 0.503488
vt 0.929134 0.496944
vt 0.936604 0.493028
vt 0.944074 0.496996
vt 0.944074 0.504879
vt 0.936604 0.508794
vt 0.929134 0.504827
vt 0.173705 0.334255
vt 0.174452 0.227006
vt 0.183078 0.227006
vt 0.183818 0.334255
vt 0.786577 0.325051
vt 0.789109 0.228770
vt 0.846768 0.947392
vt 0.855525 0.952010
vt 0.855525 0.961338
vt 0.846768 0.966047
vt 0.838011 0.961429
vt 0.838011 0.952101
vt 0.311986 0.665937
vt 0.311453 0.577636
vt 0.323085 0.573470
vt 0.324910 0.661307
vt 0.749393 0.183818
vt 0.750110 0.072171
vt 0.763493 0.072171
vt 0.764263 0.183818
vt 0.483075 0.739909
vt 0.485212 0.651521
vt 0.496737 0.647468
vt 0.495879 0.735405
vt 0.508394 0.651521
vt 0.508832 0.739909
vt 0.534207 0.938345
vt 0.534207 0.925578
vt 0.543474 0.917103
vt 0.552741 0.921395
vt 0.552741 0.934162
vt 0.543474 0.942636
vt 0.250935 0.775321
vt 0.251700 0.663668
vt 0.265080 0.663668
vt 0.265802 0.775321
vt 0.299152 0.661307
vt 0.299902 0.573470
vt 0.739572 0.367064
vt 0.745518 0.354192
vt 0.756825 0.354192
vt 0.762186 0.367064
vt 0.756240 0.379936
vt 0.744933 0.379936
vt 0.740497 0.727228
vt 0.741453 0.627344
vt 0.751118 0.629137
vt 0.751468 0.729264
vt 0.851930 0.512928
vt 0.852666 0.406756
vt 0.863670 0.406756
vt 0.864421 0.512928
vt 0.422815 0.747974
vt 0.423198 0.647506
vt 0.432589 0.649322
vt 0.433475 0.750034
vt 0.442253 0.647506
vt 0.444445 0.747974
vt 0.916750 0.722753
vt 0.907219 0.727917
vt 0.897689 0.722810
vt 0.897689 0.712539
vt 0.907219 0.707375
vt 0.916750 0.712482
vt 0.859820 0.860049
vt 0.860552 0.753877
vt 0.871555 0.753877
vt 0.872310 0.860049
vt 0.729838 0.729264
vt 0.732063 0.629137
vt 0.422815 0.925803
vt 0.422815 0.913511
vt 0.432990 0.908023
vt 0.443165 0.914825
vt 0.443165 0.927117
vt 0.432990 0.932606
vt 0.798272 0.168129
vt 0.799535 0.072171
vt 0.807105 0.074044
vt 0.807148 0.170325
vt 0.422815 0.882648
vt 0.423555 0.775409
vt 0.432180 0.775409
vt 0.432928 0.882648
vt 0.052929 0.764034
vt 0.052987 0.667302
vt 0.060351 0.669191
vt 0.061563 0.766249
vt 0.067922 0.667302
vt 0.070439 0.764034
vt 0.422815 0.961896
vt 0.430285 0.957981
vt 0.437755 0.961948
vt 0.437755 0.969831
vt 0.430285 0.973746
vt 0.422815 0.969779
vt 0.693042 0.819181
vt 0.693790 0.711931
vt 0.702415 0.711931
vt 0.703155 0.819181
vt 0.789637 0.170325
vt 0.792170 0.074044
vt 0.716803 0.948316
vt 0.725560 0.952934
vt 0.725560 0.962262
vt 0.716803 0.966971
vt 0.708046 0.962353
vt 0.708046 0.953025
vt 0.680153 0.601969
vt 0.679620 0.513669
vt 0.691252 0.509502
vt 0.693077 0.597340
vt 0.534207 0.759115
vt 0.534923 0.647468
vt 0.548306 0.647468
vt 0.549076 0.759115
vt 0.371683 0.739947
vt 0.373821 0.651560
vt 0.385345 0.647506
vt 0.384488 0.735443
vt 0.397002 0.651560
vt 0.397440 0.739947
vt 0.653863 0.924337
vt 0.663284 0.932953
vt 0.663284 0.945511
vt 0.653863 0.949453
vt 0.644442 0.940837
vt 0.644442 0.928279
vt 0.012687 0.778955
vt 0.013452 0.667302
vt 0.026832 0.667302
vt 0.027554 0.778955
vt 0.667319 0.597340
vt 0.668069 0.509502
vt 0.822655 0.022125
vt 0.822655 0.036303
vt 0.812391 0.041044
vt 0.802126 0.031607
vt 0.802126 0.017429
vt 0.812391 0.012687
vt 0.111150 0.763411
vt 0.112106 0.663527
vt 0.121772 0.665320
vt 0.122122 0.765447
vt 0.483075 0.871456
vt 0.483811 0.765284
vt 0.494815 0.765284
vt 0.495565 0.871456
vt 0.322082 0.541000
vt 0.322465 0.440533
vt 0.331855 0.442348
vt 0.332741 0.543061
vt 0.341520 0.440533
vt 0.343712 0.541000
vt 0.870991 0.376217
vt 0.861460 0.381381
vt 0.851930 0.376274
vt 0.851930 0.366003
vt 0.861460 0.360839
vt 0.870991 0.365946
vt 0.371683 0.871494
vt 0.372415 0.765322
vt 0.383418 0.765322
vt 0.384173 0.871494
vt 0.100492 0.765447
vt 0.102717 0.665320
vt 0.918121 0.941785
vt 0.907903 0.948617
vt 0.897685 0.943209
vt 0.897685 0.930970
vt 0.907903 0.924138
vt 0.918121 0.929546
vt 0.785478 0.723302
vt 0.786741 0.627344
vt 0.794310 0.629217
vt 0.794353 0.725498
vt 0.534207 0.891728
vt 0.534946 0.784490
vt 0.543572 0.784490
vt 0.544320 0.891728
vt 0.299152 0.788044
vt 0.299210 0.691312
vt 0.306575 0.693201
vt 0.307786 0.790259
vt 0.314145 0.691312
vt 0.316662 0.788044
vt 0.889795 0.505135
vt 0.889795 0.496701
vt 0.896777 0.491927
vt 0.903759 0.495586
vt 0.903759 0.504020
vt 0.896777 0.508794
vt 0.869554 0.334147
vt 0.870301 0.226897
vt 0.878927 0.226897
vt 0.879667 0.334147
vt 0.776843 0.725498
vt 0.779375 0.629217
vt 0.964816 0.072171
vt 0.973574 0.076789
vt 0.973574 0.086117
vt 0.964816 0.090826
vt 0.956059 0.086208
vt 0.956059 0.076881
s 1
usemtl mob_jago_mat.001
f 1/1/1 2/2/2 4/3/3 3/4/4
f 3/5/4 4/6/3 6/7/5 5/8/6
f 5/8/6 6/7/5 8/9/7 7/10/8
f 7/11/8 8/12/7 10/13/9 9/14/10
f 9/14/10 10/13/9 12/15/11 11/16/12
f 11/17/12 12/18/11 14/19/13 13/20/14
f 4/21/3 2/22/2 16/23/15 14/24/13 12/25/11 10/26/9 8/27/7 6/28/5
f 13/20/14 14/19/13 16/29/15 15/30/16
f 15/31/16 16/32/15 2/2/2 1/1/1
f 1/33/1 3/34/4 5/35/6 7/36/8 9/37/10 11/38/12 13/39/14 15/40/16
f 17/41/17 18/42/18 19/43/19
f 18/42/18 17/41/17 22/44/20
f 17/41/17 19/43/19 20/45/21
f 17/41/17 20/45/21 21/46/22
f 17/41/17 21/46/22 22/44/20
f 18/47/18 22/48/20 27/49/23
f 19/50/19 18/51/18 23/52/24
f 20/53/21 19/54/19 24/55/25
f 21/56/22 20/53/21 25/57/26
f 22/58/20 21/59/22 26/60/27
f 18/47/18 27/49/23 23/61/24
f 19/50/19 23/52/24 24/62/25
f 20/53/21 24/55/25 25/57/26
f 21/59/22 25/63/26 26/60/27
f 22/48/20 26/64/27 27/49/23
f 23/65/24 27/66/23 28/67/28
f 24/68/25 23/65/24 28/67/28
f 25/69/26 24/68/25 28/67/28
f 26/70/27 25/69/26 28/67/28
f 27/66/23 26/70/27 28/67/28
f 29/71/29 30/72/30 32/73/31 31/74/32
f 31/75/32 32/76/31 34/77/33 33/78/34
f 33/78/34 34/77/33 36/79/35 35/80/36
f 35/81/36 36/82/35 38/83/37 37/84/38
f 37/85/38 38/86/37 40/87/39 39/88/40
f 32/73/31 30/72/30 42/89/41 40/90/39 38/91/37 36/92/35 34/93/33
f 39/88/40 40/87/39 42/94/41 41/95/42
f 41/96/42 42/89/41 30/72/30 29/71/29
f 29/97/29 31/98/32 33/99/34 35/100/36 37/101/38 39/102/40 41/103/42
f 43/104/1 44/105/2 46/106/3 45/107/4
f 45/108/4 46/109/3 48/110/5 47/111/6
f 47/111/6 48/110/5 50/112/7 49/113/8
f 49/114/8 50/115/7 52/116/9 51/117/10
f 51/117/10 52/116/9 54/118/11 53/119/12
f 53/120/12 54/121/11 56/122/13 55/123/14
f 46/124/3 44/125/2 58/126/15 56/127/13 54/128/11 52/129/9 50/130/7 48/131/5
f 55/123/14 56/122/13 58/132/15 57/133/16
f 57/134/16 58/135/15 44/105/2 43/104/1
f 43/136/1 45/137/4 47/138/6 49/139/8 51/140/10 53/141/12 55/142/14 57/143/16
f 59/144/17 60/145/18 61/146/19
f 60/145/18 59/144/17 64/147/20
f 59/144/17 61/146/19 62/148/21
f 59/144/17 62/148/21 63/149/22
f 59/144/17 63/149/22 64/147/20
f 60/150/18 64/151/20 69/152/23
f 61/153/19 60/154/18 65/155/24
f 62/156/21 61/157/19 66/158/25
f 63/159/22 62/156/21 67/160/26
f 64/161/20 63/162/22 68/163/27
f 60/150/18 69/152/23 65/164/24
f 61/153/19 65/155/24 66/165/25
f 62/156/21 66/158/25 67/160/26
f 63/162/22 67/166/26 68/163/27
f 64/151/20 68/167/27 69/152/23
f 65/168/24 69/169/23 70/170/28
f 66/171/25 65/168/24 70/170/28
f 67/172/26 66/171/25 70/170/28
f 68/173/27 67/172/26 70/170/28
f 69/169/23 68/173/27 70/170/28
f 71/174/29 72/175/30 74/176/43 73/177/32
f 73/178/32 74/179/43 76/180/44 75/181/45
f 75/181/45 76/180/44 78/182/35 77/183/36
f 77/184/36 78/185/35 80/186/46 79/187/38
f 79/188/38 80/189/46 82/190/47 81/191/48
f 74/176/43 72/175/30 84/192/41 82/193/47 80/194/46 78/195/35 76/196/44
f 81/191/48 82/190/47 84/197/41 83/198/42
f 83/199/42 84/192/41 72/175/30 71/174/29
f 71/200/29 73/201/32 75/202/45 77/203/36 79/204/38 81/205/48 83/206/42
f 85/207/49 100/208/50 99/209/51
f 86/210/52 102/211/53 108/212/54
f 85/207/49 99/209/51 114/213/55
f 85/207/49 114/213/55 120/214/56
f 85/207/49 120/214/56 109/215/57
f 86/210/52 108/212/54 129/216/58
f 87/217/59 105/218/60 135/219/61
f 88/220/62 117/221/63 141/222/64
f 89/223/65 123/224/66 147/225/67
f 90/226/68 126/227/69 153/228/70
f 86/210/52 129/216/58 136/229/71
f 87/217/59 135/219/61 142/230/72
f 88/220/62 141/222/64 148/231/73
f 89/223/65 147/225/67 154/232/74
f 90/226/68 153/228/70 130/233/75
f 91/234/76 159/235/77 174/236/78
f 92/237/79 162/238/80 180/239/81
f 93/240/82 165/241/83 183/242/84
f 94/243/85 168/244/86 186/245/87
f 95/246/88 171/247/89 175/248/90
f 177/249/91 184/250/92 96/251/93
f 176/252/94 187/253/95 177/249/91
f 175/254/90 188/255/96 176/252/94
f 177/249/91 187/253/95 184/250/92
f 187/253/95 185/256/97 184/250/92
f 176/252/94 188/255/96 187/253/95
f 188/255/96 189/257/98 187/253/95
f 187/253/95 189/257/98 185/256/97
f 189/257/98 186/245/87 185/256/97
f 175/248/90 171/247/89 188/258/96
f 171/247/89 170/259/99 188/258/96
f 188/255/96 170/260/99 189/257/98
f 170/260/99 169/261/100 189/257/98
f 189/257/98 169/261/100 186/245/87
f 169/261/100 94/243/85 186/245/87
f 184/250/92 181/262/101 96/251/93
f 185/256/97 190/263/102 184/250/92
f 186/245/87 191/264/103 185/256/97
f 184/250/92 190/263/102 181/262/101
f 190/263/102 182/265/104 181/262/101
f 185/256/97 191/264/103 190/263/102
f 191/264/103 192/266/105 190/263/102
f 190/263/102 192/266/105 182/265/104
f 192/266/105 183/267/84 182/265/104
f 186/245/87 168/244/86 191/264/103
f 168/244/86 167/268/106 191/264/103
f 191/264/103 167/268/106 192/266/105
f 167/268/106 166/269/107 192/266/105
f 192/266/105 166/269/107 183/267/84
f 166/270/107 93/240/82 183/242/84
f 181/262/101 178/271/108 96/251/93
f 182/265/104 193/272/109 181/262/101
f 183/267/84 194/273/110 182/265/104
f 181/262/101 193/272/109 178/271/108
f 193/272/109 179/274/111 178/271/108
f 182/265/104 194/273/110 193/272/109
f 194/273/110 195/275/112 193/272/109
f 193/272/109 195/275/112 179/274/111
f 195/275/112 180/276/81 179/274/111
f 183/242/84 165/241/83 194/277/110
f 165/241/83 164/278/113 194/277/110
f 194/277/110 164/278/113 195/279/112
f 164/278/113 163/280/114 195/279/112
f 195/279/112 163/280/114 180/239/81
f 163/280/114 92/237/79 180/239/81
f 178/271/108 172/281/115 96/251/93
f 179/274/111 196/282/116 178/271/108
f 180/276/81 197/283/117 179/274/111
f 178/271/108 196/282/116 172/281/115
f 196/282/116 173/284/118 172/281/115
f 179/274/111 197/283/117 196/282/116
f 197/283/117 198/285/119 196/282/116
f 196/282/116 198/285/119 173/284/118
f 198/286/119 174/236/78 173/287/118
f 180/288/81 162/289/80 197/290/117
f 162/289/80 161/291/120 197/290/117
f 197/290/117 161/291/120 198/286/119
f 161/291/120 160/292/121 198/286/119
f 198/286/119 160/292/121 174/236/78
f 160/292/121 91/234/76 174/236/78
f 172/281/115 177/249/91 96/251/93
f 173/284/118 199/293/122 172/281/115
f 174/294/78 200/295/123 173/284/118
f 172/281/115 199/293/122 177/249/91
f 199/293/122 176/252/94 177/249/91
f 173/284/118 200/295/123 199/293/122
f 200/295/123 201/296/124 199/293/122
f 199/293/122 201/296/124 176/252/94
f 201/297/124 175/248/90 176/298/94
f 174/236/78 159/235/77 200/299/123
f 159/300/77 158/301/125 200/302/123
f 200/302/123 158/301/125 201/297/124
f 158/301/125 157/303/126 201/297/124
f 201/297/124 157/303/126 175/248/90
f 157/303/126 95/246/88 175/248/90
f 132/304/127 171/247/89 95/246/88
f 131/305/128 202/306/129 132/304/127
f 130/233/75 203/307/130 131/305/128
f 132/304/127 202/306/129 171/247/89
f 202/306/129 170/259/99 171/247/89
f 131/305/128 203/307/130 202/306/129
f 203/307/130 204/308/131 202/306/129
f 202/306/129 204/308/131 170/259/99
f 204/308/131 169/309/100 170/259/99
f 130/233/75 153/228/70 203/307/130
f 153/228/70 152/310/132 203/307/130
f 203/307/130 152/310/132 204/308/131
f 152/311/132 151/312/133 204/313/131
f 204/313/131 151/312/133 169/314/100
f 151/312/133 94/315/85 169/314/100
f 156/316/134 168/317/86 94/315/85
f 155/318/135 205/319/136 156/316/134
f 154/232/74 206/320/137 155/318/135
f 156/316/134 205/319/136 168/317/86
f 205/319/136 167/321/106 168/317/86
f 155/318/135 206/320/137 205/319/136
f 206/320/137 207/322/138 205/319/136
f 205/319/136 207/322/138 167/321/106
f 207/322/138 166/323/107 167/321/106
f 154/232/74 147/225/67 206/320/137
f 147/225/67 146/324/139 206/320/137
f 206/320/137 146/324/139 207/322/138
f 146/324/139 145/325/140 207/322/138
f 207/326/138 145/327/140 166/270/107
f 145/327/140 93/240/82 166/270/107
f 150/328/141 165/241/83 93/240/82
f 149/329/142 208/330/143 150/328/141
f 148/231/73 209/331/144 149/329/142
f 150/328/141 208/330/143 165/241/83
f 208/330/143 164/278/113 165/241/83
f 149/329/142 209/331/144 208/330/143
f 209/331/144 210/332/145 208/330/143
f 208/330/143 210/332/145 164/278/113
f 210/332/145 163/280/114 164/278/113
f 148/231/73 141/222/64 209/331/144
f 141/222/64 140/333/146 209/331/144
f 209/331/144 140/333/146 210/332/145
f 140/333/146 139/334/147 210/332/145
f 210/332/145 139/334/147 163/280/114
f 139/334/147 92/237/79 163/280/114
f 144/335/148 162/238/80 92/237/79
f 143/336/149 211/337/150 144/338/148
f 142/230/72 212/339/151 143/336/149
f 144/338/148 211/337/150 162/289/80
f 211/337/150 161/291/120 162/289/80
f 143/336/149 212/339/151 211/337/150
f 212/339/151 213/340/152 211/337/150
f 211/337/150 213/340/152 161/291/120
f 213/340/152 160/292/121 161/291/120
f 142/230/72 135/219/61 212/339/151
f 135/219/61 134/341/153 212/339/151
f 212/339/151 134/341/153 213/340/152
f 134/341/153 133/342/154 213/340/152
f 213/340/152 133/342/154 160/292/121
f 133/342/154 91/234/76 160/292/121
f 138/343/155 159/235/77 91/234/76
f 137/344/156 214/345/157 138/343/155
f 136/229/71 215/346/158 137/347/156
f 138/343/155 214/345/157 159/235/77
f 214/348/157 158/301/125 159/300/77
f 137/347/156 215/346/158 214/348/157
f 215/346/158 216/349/159 214/348/157
f 214/348/157 216/349/159 158/301/125
f 216/349/159 157/303/126 158/301/125
f 136/229/71 129/216/58 215/346/158
f 129/216/58 128/350/160 215/346/158
f 215/346/158 128/350/160 216/349/159
f 128/350/160 127/351/161 216/349/159
f 216/349/159 127/351/161 157/303/126
f 127/351/161 95/246/88 157/303/126
f 151/312/133 156/316/134 94/315/85
f 152/311/132 217/352/162 151/312/133
f 153/353/70 218/354/163 152/311/132
f 151/312/133 217/352/162 156/316/134
f 217/352/162 155/318/135 156/316/134
f 152/311/132 218/354/163 217/352/162
f 218/354/163 219/355/164 217/352/162
f 217/352/162 219/355/164 155/318/135
f 219/355/164 154/232/74 155/318/135
f 153/353/70 126/356/69 218/354/163
f 126/356/69 125/357/165 218/354/163
f 218/354/163 125/357/165 219/355/164
f 125/357/165 124/358/166 219/355/164
f 219/355/164 124/358/166 154/232/74
f 124/358/166 89/223/65 154/232/74
f 145/327/140 150/328/141 93/240/82
f 146/359/139 220/360/167 145/327/140
f 147/225/67 221/361/168 146/324/139
f 145/327/140 220/360/167 150/328/141
f 220/360/167 149/329/142 150/328/141
f 146/359/139 221/362/168 220/360/167
f 221/362/168 222/363/169 220/360/167
f 220/360/167 222/363/169 149/329/142
f 222/363/169 148/231/73 149/329/142
f 147/225/67 123/224/66 221/361/168
f 123/364/66 122/365/170 221/362/168
f 221/362/168 122/365/170 222/363/169
f 122/365/170 121/366/171 222/363/169
f 222/363/169 121/366/171 148/231/73
f 121/366/171 88/220/62 148/231/73
f 139/334/147 144/335/148 92/237/79
f 140/333/146 223/367/172 139/334/147
f 141/222/64 224/368/173 140/333/146
f 139/334/147 223/367/172 144/335/148
f 223/367/172 143/369/149 144/335/148
f 140/333/146 224/368/173 223/367/172
f 224/368/173 225/370/174 223/367/172
f 223/367/172 225/370/174 143/369/149
f 225/371/174 142/230/72 143/336/149
f 141/222/64 117/221/63 224/368/173
f 117/221/63 116/372/175 224/368/173
f 224/368/173 116/372/175 225/370/174
f 116/372/175 115/373/176 225/370/174
f 225/371/174 115/374/176 142/230/72
f 115/374/176 87/217/59 142/230/72
f 133/342/154 138/343/155 91/234/76
f 134/341/153 226/375/177 133/342/154
f 135/219/61 227/376/178 134/341/153
f 133/342/154 226/375/177 138/343/155
f 226/375/177 137/344/156 138/343/155
f 134/341/153 227/376/178 226/375/177
f 227/376/178 228/377/179 226/375/177
f 226/375/177 228/377/179 137/344/156
f 228/377/179 136/378/71 137/344/156
f 135/219/61 105/218/60 227/376/178
f 105/218/60 104/379/180 227/376/178
f 227/376/178 104/379/180 228/377/179
f 104/379/180 103/380/181 228/377/179
f 228/381/179 103/382/181 136/229/71
f 103/382/181 86/210/52 136/229/71
f 127/351/161 132/304/127 95/246/88
f 128/350/160 229/383/182 127/351/161
f 129/216/58 230/384/183 128/350/160
f 127/351/161 229/383/182 132/304/127
f 229/383/182 131/305/128 132/304/127
f 128/350/160 230/384/183 229/383/182
f 230/384/183 231/385/184 229/383/182
f 229/383/182 231/385/184 131/305/128
f 231/385/184 130/233/75 131/305/128
f 129/216/58 108/212/54 230/384/183
f 108/212/54 107/386/185 230/384/183
f 230/384/183 107/386/185 231/385/184
f 107/386/185 106/387/186 231/385/184
f 231/385/184 106/387/186 130/233/75
f 106/387/186 90/226/68 130/233/75
f 111/388/187 126/227/69 90/226/68
f 110/389/188 232/390/189 111/391/187
f 109/215/57 233/392/190 110/389/188
f 111/393/187 232/394/189 126/356/69
f 232/394/189 125/357/165 126/356/69
f 110/389/188 233/392/190 232/390/189
f 233/392/190 234/395/191 232/390/189
f 232/394/189 234/396/191 125/357/165
f 234/396/191 124/358/166 125/357/165
f 109/215/57 120/214/56 233/392/190
f 120/214/56 119/397/192 233/392/190
f 233/392/190 119/397/192 234/395/191
f 119/398/192 118/399/193 234/396/191
f 234/396/191 118/399/193 124/358/166
f 118/399/193 89/223/65 124/358/166
f 118/399/193 123/224/66 89/223/65
f 119/397/192 235/400/194 118/401/193
f 120/214/56 236/402/195 119/397/192
f 118/399/193 235/403/194 123/224/66
f 235/404/194 122/365/170 123/364/66
f 119/397/192 236/402/195 235/400/194
f 236/402/195 237/405/196 235/400/194
f 235/404/194 237/406/196 122/365/170
f 237/406/196 121/366/171 122/365/170
f 120/214/56 114/213/55 236/402/195
f 114/213/55 113/407/197 236/402/195
f 236/402/195 113/407/197 237/405/196
f 113/407/197 112/408/198 237/405/196
f 237/406/196 112/409/198 121/366/171
f 112/409/198 88/220/62 121/366/171
f 112/409/198 117/221/63 88/220/62
f 113/407/197 238/410/199 112/408/198
f 114/213/55 239/411/200 113/407/197
f 112/409/198 238/412/199 117/221/63
f 238/412/199 116/372/175 117/221/63
f 113/407/197 239/411/200 238/410/199
f 239/411/200 240/413/201 238/410/199
f 238/410/199 240/413/201 116/414/175
f 240/413/201 115/415/176 116/414/175
f 114/213/55 99/209/51 239/411/200
f 99/209/51 98/416/202 239/411/200
f 239/411/200 98/416/202 240/413/201
f 98/416/202 97/417/203 240/413/201
f 240/413/201 97/417/203 115/415/176
f 97/417/203 87/418/59 115/415/176
f 106/387/186 111/388/187 90/226/68
f 107/386/185 241/419/204 106/387/186
f 108/212/54 242/420/205 107/386/185
f 106/387/186 241/419/204 111/388/187
f 241/421/204 110/389/188 111/391/187
f 107/386/185 242/420/205 241/419/204
f 242/422/205 243/423/206 241/421/204
f 241/421/204 243/423/206 110/389/188
f 243/423/206 109/215/57 110/389/188
f 108/212/54 102/211/53 242/420/205
f 102/424/53 101/425/207 242/422/205
f 242/422/205 101/425/207 243/423/206
f 101/425/207 100/208/50 243/423/206
f 243/423/206 100/208/50 109/215/57
f 100/208/50 85/207/49 109/215/57
f 97/417/203 105/426/60 87/418/59
f 98/416/202 244/427/208 97/417/203
f 99/209/51 245/428/209 98/416/202
f 97/417/203 244/427/208 105/426/60
f 244/427/208 104/429/180 105/426/60
f 98/416/202 245/428/209 244/427/208
f 245/428/209 246/430/210 244/427/208
f 244/427/208 246/430/210 104/429/180
f 246/430/210 103/431/181 104/429/180
f 99/209/51 100/208/50 245/428/209
f 100/208/50 101/425/207 245/428/209
f 245/428/209 101/425/207 246/430/210
f 101/425/207 102/424/53 246/430/210
f 246/430/210 102/424/53 103/431/181
f 102/211/53 86/210/52 103/382/181
f 247/432/211 260/433/212 259/434/213
f 248/435/214 260/436/212 262/437/215
f 247/432/211 259/434/213 264/438/216
f 247/432/211 264/438/216 266/439/217
f 247/432/211 266/439/217 263/440/218
f 248/435/214 262/437/215 269/441/219
f 249/442/220 261/443/221 271/444/153
f 250/445/222 265/446/223 273/447/224
f 251/448/225 267/449/226 275/450/227
f 252/451/228 268/452/229 277/453/230
f 248/435/214 269/441/219 272/454/231
f 249/442/220 271/444/153 274/455/232
f 250/445/222 273/447/224 276/456/233
f 251/457/225 275/458/227 278/459/135
f 252/451/228 277/453/230 270/460/234
f 253/461/235 279/462/236 284/463/237
f 254/464/238 280/465/239 286/466/240
f 255/467/241 281/468/242 287/469/243
f 256/470/244 282/471/245 288/472/246
f 257/473/247 283/474/248 285/475/249
f 285/476/249 288/477/246 258/478/250
f 285/475/249 283/474/248 288/479/246
f 283/474/248 256/480/244 288/479/246
f 288/477/246 287/481/243 258/478/250
f 288/477/246 282/482/245 287/481/243
f 282/483/245 255/467/241 287/469/243
f 287/481/243 286/484/240 258/478/250
f 287/469/243 281/468/242 286/466/240
f 281/468/242 254/464/238 286/466/240
f 286/484/240 284/485/237 258/478/250
f 286/486/240 280/487/239 284/488/237
f 280/487/239 253/489/235 284/488/237
f 284/485/237 285/476/249 258/478/250
f 284/463/237 279/462/236 285/475/249
f 279/462/236 257/473/247 285/475/249
f 270/460/234 283/474/248 257/473/247
f 270/460/234 277/453/230 283/474/248
f 277/453/230 256/480/244 283/474/248
f 278/459/135 282/471/245 256/470/244
f 278/459/135 275/458/227 282/471/245
f 275/450/227 255/467/241 282/483/245
f 276/456/233 281/468/242 255/467/241
f 276/456/233 273/447/224 281/468/242
f 273/447/224 254/464/238 281/468/242
f 274/490/232 280/465/239 254/464/238
f 274/455/232 271/444/153 280/487/239
f 271/444/153 253/489/235 280/487/239
f 272/454/231 279/462/236 253/461/235
f 272/454/231 269/441/219 279/462/236
f 269/441/219 257/473/247 279/462/236
f 277/491/230 278/459/135 256/470/244
f 277/491/230 268/492/229 278/459/135
f 268/492/229 251/457/225 278/459/135
f 275/450/227 276/456/233 255/467/241
f 275/450/227 267/449/226 276/456/233
f 267/449/226 250/445/222 276/456/233
f 273/447/224 274/490/232 254/464/238
f 273/447/224 265/446/223 274/490/232
f 265/446/223 249/493/220 274/490/232
f 271/444/153 272/494/231 253/489/235
f 271/444/153 261/443/221 272/494/231
f 261/495/221 248/435/214 272/454/231
f 269/441/219 270/460/234 257/473/247
f 269/441/219 262/437/215 270/460/234
f 262/437/215 252/451/228 270/460/234
f 263/496/218 268/452/229 252/451/228
f 263/497/218 266/498/217 268/492/229
f 266/498/217 251/457/225 268/492/229
f 266/499/217 267/449/226 251/448/225
f 266/499/217 264/500/216 267/449/226
f 264/500/216 250/445/222 267/449/226
f 264/500/216 265/446/223 250/445/222
f 264/500/216 259/501/213 265/446/223
f 259/501/213 249/493/220 265/446/223
f 262/437/215 263/496/218 252/451/228
f 262/437/215 260/436/212 263/496/218
f 260/433/212 247/432/211 263/440/218
f 259/502/213 261/443/221 249/442/220
f 259/434/213 260/433/212 261/503/221
f 260/436/212 248/435/214 261/495/221
f 289/504/211 302/505/212 301/506/213
f 290/507/214 302/508/212 304/509/215
f 289/504/211 301/506/213 306/510/216
f 289/504/211 306/510/216 308/511/217
f 289/504/211 308/511/217 305/512/218
f 290/507/214 304/509/215 311/513/219
f 291/514/220 303/515/221 313/516/153
f 292/517/222 307/518/251 315/519/224
f 293/520/225 309/521/226 317/522/227
f 294/523/228 310/524/229 319/525/230
f 290/507/214 311/513/219 314/526/231
f 291/514/220 313/516/153 316/527/232
f 292/517/222 315/519/224 318/528/233
f 293/529/225 317/530/227 320/531/135
f 294/523/228 319/525/230 312/532/234
f 295/533/235 321/534/252 326/535/237
f 296/536/238 322/537/239 328/538/240
f 297/539/241 323/540/242 329/541/243
f 298/542/253 324/543/245 330/544/246
f 299/545/247 325/546/248 327/547/249
f 327/548/249 330/549/246 300/550/250
f 327/547/249 325/546/248 330/551/246
f 325/546/248 298/552/253 330/551/246
f 330/549/246 329/553/243 300/550/250
f 330/549/246 324/554/245 329/553/243
f 324/555/245 297/539/241 329/541/243
f 329/553/243 328/556/240 300/550/250
f 329/541/243 323/540/242 328/538/240
f 323/540/242 296/536/238 328/538/240
f 328/556/240 326/557/237 300/550/250
f 328/558/240 322/559/239 326/560/237
f 322/559/239 295/561/235 326/560/237
f 326/557/237 327/548/249 300/550/250
f 326/535/237 321/534/252 327/547/249
f 321/534/252 299/545/247 327/547/249
f 312/532/234 325/546/248 299/545/247
f 312/532/234 319/525/230 325/546/248
f 319/525/230 298/552/253 325/546/248
f 320/531/135 324/543/245 298/542/253
f 320/531/135 317/530/227 324/543/245
f 317/522/227 297/539/241 324/555/245
f 318/528/233 323/540/242 297/539/241
f 318/528/233 315/519/224 323/540/242
f 315/519/224 296/536/238 323/540/242
f 316/562/232 322/537/239 296/536/238
f 316/527/232 313/516/153 322/559/239
f 313/516/153 295/561/235 322/559/239
f 314/526/231 321/534/252 295/533/235
f 314/526/231 311/513/219 321/534/252
f 311/513/219 299/545/247 321/534/252
f 319/563/230 320/531/135 298/542/253
f 319/563/230 310/564/229 320/531/135
f 310/564/229 293/529/225 320/531/135
f 317/522/227 318/528/233 297/539/241
f 317/522/227 309/521/226 318/528/233
f 309/521/226 292/517/222 318/528/233
f 315/519/224 316/562/232 296/536/238
f 315/519/224 307/518/251 316/562/232
f 307/518/251 291/565/220 316/562/232
f 313/516/153 314/566/231 295/561/235
f 313/516/153 303/515/221 314/566/231
f 303/567/221 290/507/214 314/526/231
f 311/513/219 312/532/234 299/545/247
f 311/513/219 304/509/215 312/532/234
f 304/509/215 294/523/228 312/532/234
f 305/568/218 310/524/229 294/523/228
f 305/569/218 308/570/217 310/564/229
f 308/570/217 293/529/225 310/564/229
f 308/571/217 309/521/226 293/520/225
f 308/571/217 306/572/216 309/521/226
f 306/572/216 292/517/222 309/521/226
f 306/572/216 307/518/251 292/517/222
f 306/572/216 301/573/213 307/518/251
f 301/573/213 291/565/220 307/518/251
f 304/509/215 305/568/218 294/523/228
f 304/509/215 302/508/212 305/568/218
f 302/505/212 289/504/211 305/512/218
f 301/574/213 303/515/221 291/514/220
f 301/506/213 302/505/212 303/575/221
f 302/508/212 290/507/214 303/567/221
f 331/576/254 332/577/255 334/578/256 333/579/257
f 333/580/257 334/581/256 336/582/258 335/583/259
f 335/584/259 336/585/258 338/586/260 337/587/261
f 337/587/261 338/586/260 340/588/262 339/589/263
f 334/590/256 332/591/255 342/592/264 340/593/262 338/594/260 336/595/258
f 339/596/263 340/597/262 342/598/264 341/599/265
f 341/600/265 342/601/264 332/577/255 331/576/254
f 331/602/254 333/603/257 335/604/259 337/605/261 339/606/263 341/607/265
f 343/608/266 356/609/267 355/610/268
f 344/611/269 356/609/267 358/612/270
f 343/608/266 355/610/268 360/613/271
f 343/608/266 360/613/271 362/614/272
f 343/608/266 362/614/272 359/615/273
f 344/616/269 358/617/270 365/618/274
f 345/619/275 357/620/276 367/621/153
f 346/622/277 361/623/278 369/624/279
f 347/625/280 363/626/281 371/627/282
f 348/628/283 364/629/284 373/630/285
f 344/616/269 365/618/274 368/631/286
f 345/619/275 367/621/153 370/632/287
f 346/622/277 369/624/279 372/633/288
f 347/625/280 371/627/282 374/634/135
f 348/635/283 373/636/285 366/637/289
f 349/638/290 375/639/291 380/640/292
f 350/641/293 376/642/294 382/643/295
f 351/644/296 377/645/297 383/646/298
f 352/647/299 378/648/300 384/649/301
f 353/650/302 379/651/303 381/652/304
f 381/653/304 384/649/301 354/654/305
f 381/653/304 379/655/303 384/649/301
f 379/655/303 352/647/299 384/649/301
f 384/649/301 383/656/298 354/654/305
f 384/649/301 378/648/300 383/656/298
f 378/648/300 351/657/296 383/656/298
f 383/656/298 382/658/295 354/654/305
f 383/656/298 377/659/297 382/658/295
f 377/645/297 350/660/293 382/661/295
f 382/658/295 380/662/292 354/654/305
f 382/643/295 376/642/294 380/640/292
f 376/642/294 349/638/290 380/640/292
f 380/662/292 381/653/304 354/654/305
f 380/662/292 375/663/291 381/653/304
f 375/664/291 353/650/302 381/652/304
f 366/637/289 379/651/303 353/650/302
f 366/637/289 373/636/285 379/651/303
f 373/630/285 352/665/299 379/666/303
f 374/634/135 378/667/300 352/665/299
f 374/634/135 371/627/282 378/667/300
f 371/627/282 351/668/296 378/667/300
f 372/633/288 377/645/297 351/644/296
f 372/633/288 369/624/279 377/645/297
f 369/624/279 350/660/293 377/645/297
f 370/632/287 376/642/294 350/641/293
f 370/632/287 367/621/153 376/642/294
f 367/621/153 349/638/290 376/642/294
f 368/669/286 375/639/291 349/638/290
f 368/631/286 365/618/274 375/664/291
f 365/618/274 353/650/302 375/664/291
f 373/630/285 374/634/135 352/665/299
f 373/630/285 364/629/284 374/634/135
f 364/629/284 347/625/280 374/634/135
f 371/670/282 372/633/288 351/644/296
f 371/670/282 363/671/281 372/633/288
f 363/671/281 346/622/277 372/633/288
f 369/624/279 370/672/287 350/660/293
f 369/624/279 361/623/278 370/672/287
f 361/673/278 345/619/275 370/632/287
f 367/621/153 368/669/286 349/638/290
f 367/621/153 357/620/276 368/669/286
f 357/620/276 344/674/269 368/669/286
f 365/618/274 366/637/289 353/650/302
f 365/618/274 358/617/270 366/637/289
f 358/617/270 348/635/283 366/637/289
f 359/675/273 364/629/284 348/628/283
f 359/675/273 362/676/272 364/629/284
f 362/676/272 347/625/280 364/629/284
f 362/676/272 363/626/281 347/625/280
f 362/614/272 360/613/271 363/677/281
f 360/678/271 346/622/277 363/671/281
f 360/678/271 361/623/278 346/622/277
f 360/613/271 355/610/268 361/679/278
f 355/610/268 345/680/275 361/679/278
f 358/617/270 359/681/273 348/635/283
f 358/612/270 356/609/267 359/615/273
f 356/609/267 343/608/266 359/615/273
f 355/610/268 357/682/276 345/680/275
f 355/610/268 356/609/267 357/682/276
f 356/609/267 344/611/269 357/682/276
f 385/683/306 386/684/307 388/685/308 387/686/309
f 387/687/309 388/688/308 390/689/310 389/690/311
f 389/690/311 390/689/310 392/691/312 391/692/313
f 391/693/313 392/694/312 394/695/314 393/696/315
f 393/697/315 394/698/314 396/699/316 395/700/317
f 388/701/308 386/702/307 398/703/318 396/704/316 394/705/314 392/706/312 390/707/310
f 395/700/317 396/699/316 398/708/318 397/709/319
f 397/710/319 398/711/318 386/684/307 385/683/306
f 385/712/306 387/713/309 389/714/311 391/715/313 393/716/315 395/717/317 397/718/319
f 399/719/320 400/720/321 402/721/322 401/722/323
f 401/723/323 402/724/322 404/725/324 403/726/325
f 403/726/325 404/725/324 406/727/326 405/728/327
f 405/729/327 406/730/326 408/731/328 407/732/329
f 407/733/329 408/734/328 410/735/330 409/736/331
f 402/737/322 400/738/321 412/739/332 410/740/330 408/741/328 406/742/326 404/743/324
f 409/736/331 410/735/330 412/744/332 411/745/333
f 411/746/333 412/747/332 400/720/321 399/719/320
f 399/748/320 401/749/323 403/750/325 405/751/327 407/752/329 409/753/331 411/754/333
f 413/755/334 414/756/335 416/757/336 415/758/337
f 415/759/337 416/760/336 418/761/338 417/762/339
f 417/762/339 418/761/338 420/763/340 419/764/341
f 419/765/341 420/766/340 422/767/342 421/768/343
f 421/769/343 422/770/342 424/771/344 423/772/345
f 416/773/336 414/774/335 426/775/346 424/776/344 422/777/342 420/778/340 418/779/338
f 423/772/345 424/771/344 426/780/346 425/781/347
f 425/782/347 426/783/346 414/756/335 413/755/334
f 413/784/334 415/785/337 417/786/339 419/787/341 421/788/343 423/789/345 425/790/347
f 427/791/348 428/792/349 430/793/350 429/794/351
f 429/795/351 430/796/350 432/797/352 431/798/353
f 431/798/353 432/797/352 434/799/354 433/800/355
f 433/801/355 434/802/354 436/803/356 435/804/357
f 435/805/357 436/806/356 438/807/358 437/808/359
f 430/809/350 428/810/349 440/811/360 438/812/358 436/813/356 434/814/354 432/815/352
f 437/808/359 438/807/358 440/816/360 439/817/361
f 439/818/361 440/819/360 428/792/349 427/791/348
f 427/820/348 429/821/351 431/822/353 433/823/355 435/824/357 437/825/359 439/826/361
f 441/827/266 454/828/362 453/829/363
f 442/830/364 454/831/362 456/832/365
f 441/827/266 453/829/363 458/833/366
f 441/827/266 458/833/366 460/834/367
f 441/827/266 460/834/367 457/835/368
f 442/830/364 456/832/365 463/836/274
f 443/837/369 455/838/370 465/839/153
f 444/840/371 459/841/372 467/842/279
f 445/843/373 461/844/374 469/845/282
f 446/846/375 462/847/376 471/848/285
f 442/830/364 463/836/274 466/849/286
f 443/837/369 465/839/153 468/850/287
f 444/840/371 467/842/279 470/851/288
f 445/843/373 469/845/282 472/852/135
f 446/853/375 471/854/285 464/855/289
f 447/856/377 473/857/378 478/858/379
f 448/859/380 474/860/381 480/861/382
f 449/862/383 475/863/384 481/864/385
f 450/865/386 476/866/387 482/867/388
f 451/868/389 477/869/390 479/870/391
f 479/871/391 482/872/388 452/873/305
f 479/871/391 477/874/390 482/872/388
f 477/875/390 450/865/386 482/867/388
f 482/872/388 481/876/385 452/873/305
f 482/872/388 476/877/387 481/876/385
f 476/866/387 449/878/383 481/879/385
f 481/876/385 480/880/382 452/873/305
f 481/864/385 475/863/384 480/881/382
f 475/863/384 448/882/380 480/881/382
f 480/880/382 478/883/379 452/873/305
f 480/861/382 474/860/381 478/858/379
f 474/860/381 447/856/377 478/858/379
f 478/883/379 479/871/391 452/873/305
f 478/884/379 473/885/378 479/870/391
f 473/885/378 451/868/389 479/870/391
f 464/855/289 477/869/390 451/868/389
f 464/855/289 471/854/285 477/869/390
f 471/848/285 450/865/386 477/875/390
f 472/852/135 476/866/387 450/865/386
f 472/852/135 469/845/282 476/866/387
f 469/845/282 449/878/383 476/866/387
f 470/851/288 475/863/384 449/862/383
f 470/851/288 467/842/279 475/863/384
f 467/842/279 448/882/380 475/863/384
f 468/850/287 474/860/381 448/859/380
f 468/850/287 465/839/153 474/860/381
f 465/839/153 447/856/377 474/860/381
f 466/886/286 473/857/378 447/856/377
f 466/849/286 463/836/274 473/885/378
f 463/836/274 451/868/389 473/885/378
f 471/848/285 472/852/135 450/865/386
f 471/848/285 462/847/376 472/852/135
f 462/847/376 445/843/373 472/852/135
f 469/887/282 470/851/288 449/862/383
f 469/887/282 461/888/374 470/851/288
f 461/888/374 444/840/371 470/851/288
f 467/842/279 468/889/287 448/882/380
f 467/842/279 459/841/372 468/889/287
f 459/890/372 443/837/369 468/850/287
f 465/839/153 466/886/286 447/856/377
f 465/839/153 455/838/370 466/886/286
f 455/838/370 442/891/364 466/886/286
f 463/836/274 464/855/289 451/868/389
f 463/836/274 456/832/365 464/855/289
f 456/832/365 446/853/375 464/855/289
f 457/892/368 462/847/376 446/846/375
f 457/892/368 460/893/367 462/847/376
f 460/893/367 445/843/373 462/847/376
f 460/893/367 461/844/374 445/843/373
f 460/894/367 458/895/366 461/888/374
f 458/895/366 444/840/371 461/888/374
f 458/895/366 459/841/372 444/840/371
f 458/833/366 453/829/363 459/896/372
f 453/897/363 443/837/369 459/890/372
f 456/832/365 457/898/368 446/853/375
f 456/832/365 454/831/362 457/898/368
f 454/828/362 441/827/266 457/835/368
f 453/897/363 455/838/370 443/837/369
f 453/829/363 454/828/362 455/899/370
f 454/828/362 442/900/364 455/899/370
f 483/901/392 484/902/393 486/903/394 485/904/395
f 485/905/395 486/906/394 488/907/396 487/908/397
f 487/908/397 488/907/396 490/909/398 489/910/399
f 489/911/399 490/912/398 492/913/400 491/914/401
f 491/915/401 492/916/400 494/917/402 493/918/403
f 486/919/394 484/920/393 496/921/404 494/922/402 492/923/400 490/924/398 488/925/396
f 493/918/403 494/917/402 496/926/404 495/927/405
f 495/928/405 496/929/404 484/902/393 483/901/392
f 483/930/392 485/931/395 487/932/397 489/933/399 491/934/401 493/935/403 495/936/405
f 497/937/266 498/938/269 499/939/406
f 498/938/269 497/937/266 502/940/283
f 497/937/266 499/939/406 500/941/277
f 497/937/266 500/941/277 501/942/407
f 497/943/266 501/944/407 502/945/283
f 498/946/269 502/947/283 507/948/302
f 499/949/406 498/950/269 503/951/408
f 500/952/277 499/953/406 504/954/293
f 501/955/407 500/952/277 505/956/296
f 502/945/283 501/944/407 506/957/409
f 498/946/269 507/948/302 503/958/408
f 499/949/406 503/951/408 504/959/293
f 500/952/277 504/954/293 505/956/296
f 501/944/407 505/960/296 506/957/409
f 502/947/283 506/961/409 507/948/302
f 503/962/408 507/963/302 508/964/305
f 504/959/293 503/951/408 508/965/305
f 505/966/296 504/967/293 508/964/305
f 506/968/409 505/966/296 508/964/305
f 507/963/302 506/968/409 508/964/305
f 509/969/266 510/970/269 511/971/406
f 510/970/269 509/969/266 514/972/283
f 509/969/266 511/971/406 512/973/277
f 509/969/266 512/973/277 513/974/407
f 509/975/266 513/976/407 514/977/283
f 510/978/269 514/979/283 519/980/302
f 511/981/406 510/982/269 515/983/408
f 512/984/277 511/985/406 516/986/293
f 513/987/407 512/984/277 517/988/296
f 514/977/283 513/976/407 518/989/409
f 510/978/269 519/980/302 515/990/408
f 511/981/406 515/983/408 516/991/293
f 512/984/277 516/986/293 517/988/296
f 513/976/407 517/992/296 518/989/409
f 514/979/283 518/993/409 519/980/302
f 515/994/408 519/995/302 520/996/305
f 516/991/293 515/983/408 520/997/305
f 517/998/296 516/999/293 520/996/305
f 518/1000/409 517/998/296 520/996/305
f 519/995/302 518/1000/409 520/996/305
f 521/1001/410 522/1002/411 524/1003/412 523/1004/413
f 523/1005/413 524/1006/412 526/1007/414 525/1008/415
f 525/1009/415 526/1010/414 528/1011/416 527/1012/417
f 527/1012/417 528/1011/416 530/1013/418 529/1014/419
f 524/1015/412 522/1016/411 532/1017/420 530/1018/418 528/1019/416 526/1020/414
f 529/1021/419 530/1022/418 532/1023/420 531/1024/421
f 531/1025/421 532/1026/420 522/1002/411 521/1001/410
f 521/1027/410 523/1028/413 525/1029/415 527/1030/417 529/1031/419 531/1032/421
f 533/1033/422 534/1034/423 536/1035/424 535/1036/425
f 535/1037/425 536/1038/424 538/1039/426 537/1040/427
f 537/1041/427 538/1042/426 540/1043/428 539/1044/429
f 539/1044/429 540/1043/428 542/1045/430 541/1046/431
f 536/1047/424 534/1048/423 544/1049/432 542/1050/430 540/1051/428 538/1052/426
f 541/1053/431 542/1054/430 544/1055/432 543/1056/433
f 543/1057/433 544/1058/432 534/1034/423 533/1033/422
f 533/1059/422 535/1060/425 537/1061/427 539/1062/429 541/1063/431 543/1064/433
f 545/1065/434 546/1066/435 548/1067/436 547/1068/437
f 547/1069/437 548/1070/436 550/1071/438 549/1072/439
f 549/1073/439 550/1074/438 552/1075/440 551/1076/441
f 551/1076/441 552/1075/440 554/1077/442 553/1078/443
f 548/1079/436 546/1080/435 556/1081/444 554/1082/442 552/1083/440 550/1084/438
f 553/1085/443 554/1086/442 556/1087/444 555/1088/445
f 555/1089/445 556/1090/444 546/1066/435 545/1065/434
f 545/1091/434 547/1092/437 549/1093/439 551/1094/441 553/1095/443 555/1096/445
f 557/1097/410 558/1098/411 560/1099/412 559/1100/413
f 559/1101/413 560/1102/412 562/1103/414 561/1104/415
f 561/1105/415 562/1106/414 564/1107/416 563/1108/417
f 563/1108/417 564/1107/416 566/1109/418 565/1110/419
f 560/1111/412 558/1112/411 568/1113/420 566/1114/418 564/1115/416 562/1116/414
f 565/1117/419 566/1118/418 568/1119/420 567/1120/421
f 567/1121/421 568/1122/420 558/1098/411 557/1097/410
f 557/1123/410 559/1124/413 561/1125/415 563/1126/417 565/1127/419 567/1128/421
f 569/1129/422 570/1130/423 572/1131/424 571/1132/425
f 571/1133/425 572/1134/424 574/1135/426 573/1136/427
f 573/1137/427 574/1138/426 576/1139/428 575/1140/429
f 575/1140/429 576/1139/428 578/1141/430 577/1142/431
f 572/1143/424 570/1144/423 580/1145/432 578/1146/430 576/1147/428 574/1148/426
f 577/1149/431 578/1150/430 580/1151/432 579/1152/433
f 579/1153/433 580/1154/432 570/1130/423 569/1129/422
f 569/1155/422 571/1156/425 573/1157/427 575/1158/429 577/1159/431 579/1160/433
f 581/1161/434 582/1162/435 584/1163/436 583/1164/437
f 583/1165/437 584/1166/436 586/1167/438 585/1168/439
f 585/1169/439 586/1170/438 588/1171/440 587/1172/441
f 587/1172/441 588/1171/440 590/1173/442 589/1174/443
f 584/1175/436 582/1176/435 592/1177/444 590/1178/442 588/1179/440 586/1180/438
f 589/1181/443 590/1182/442 592/1183/444 591/1184/445
f 591/1185/445 592/1186/444 582/1162/435 581/1161/434
f 581/1187/434 583/1188/437 585/1189/439 587/1190/441 589/1191/443 591/1192/445
f 593/1193/410 594/1194/411 596/1195/412 595/1196/413
f 595/1197/413 596/1198/412 598/1199/414 597/1200/415
f 597/1201/415 598/1202/414 600/1203/416 599/1204/417
f 599/1204/417 600/1203/416 602/1205/418 601/1206/419
f 596/1207/412 594/1208/411 604/1209/420 602/1210/418 600/1211/416 598/1212/414
f 601/1213/419 602/1214/418 604/1215/420 603/1216/421
f 603/1217/421 604/1218/420 594/1194/411 593/1193/410
f 593/1219/410 595/1220/413 597/1221/415 599/1222/417 601/1223/419 603/1224/421
f 605/1225/422 606/1226/423 608/1227/424 607/1228/425
f 607/1229/425 608/1230/424 610/1231/426 609/1232/427
f 609/1233/427 610/1234/426 612/1235/428 611/1236/429
f 611/1236/429 612/1235/428 614/1237/430 613/1238/431
f 608/1239/424 606/1240/423 616/1241/432 614/1242/430 612/1243/428 610/1244/426
f 613/1245/431 614/1246/430 616/1247/432 615/1248/433
f 615/1249/433 616/1250/432 606/1226/423 605/1225/422
f 605/1251/422 607/1252/425 609/1253/427 611/1254/429 613/1255/431 615/1256/433
f 617/1257/446 618/1258/435 620/1259/436 619/1260/437
f 619/1261/437 620/1262/436 622/1263/438 621/1264/447
f 621/1265/447 622/1266/438 624/1267/440 623/1268/441
f 623/1268/441 624/1267/440 626/1269/442 625/1270/448
f 620/1271/436 618/1272/435 628/1273/444 626/1274/442 624/1275/440 622/1276/438
f 625/1277/448 626/1278/442 628/1279/444 627/1280/445
f 627/1281/445 628/1282/444 618/1258/435 617/1257/446
f 617/1283/446 619/1284/437 621/1285/447 623/1286/441 625/1287/448 627/1288/445
