# axis-converted-to-Y-up
# Blender 5.1.1
# www.blender.org
mtllib mob_kelinci_idle.mtl
o mob_kelinci_idle
v -2.681538 0.007013 -0.000001
v -2.759153 0.069270 -0.070488
v -2.651892 0.069270 -0.114053
v -2.585600 0.069270 -0.000001
v -2.651892 0.069270 0.114052
v -2.759153 0.069270 0.070487
v -2.711183 0.170006 -0.114053
v -2.603922 0.170006 -0.070488
v -2.603922 0.170006 0.070487
v -2.711183 0.170006 0.114052
v -2.777475 0.170005 -0.000001
v -2.681538 0.232262 -0.000001
v -2.656565 0.045585 -0.096075
v -2.664113 0.023833 -0.067038
v -2.673213 0.010623 -0.032025
v -2.703331 0.010623 -0.019793
v -2.727158 0.023833 -0.041432
v -2.746918 0.045585 -0.059377
v -2.738595 0.063066 -0.091403
v -2.709733 0.060427 -0.108470
v -2.678359 0.063066 -0.115868
v -2.768712 0.063066 0.039584
v -2.772780 0.060427 -0.000001
v -2.768712 0.063066 -0.039585
v -2.703331 0.010623 0.019792
v -2.727158 0.023833 0.041431
v -2.746918 0.045585 0.059376
v -2.600722 0.045585 -0.000001
v -2.625147 0.023834 -0.000001
v -2.654599 0.010623 -0.000001
v -2.629626 0.063066 -0.096075
v -2.607722 0.060427 -0.067039
v -2.592398 0.063066 -0.032025
v -2.656565 0.045585 0.096074
v -2.664113 0.023833 0.067037
v -2.673213 0.010623 0.032024
v -2.592398 0.063066 0.032024
v -2.607722 0.060427 0.067037
v -2.629626 0.063066 0.096074
v -2.678359 0.063066 0.115867
v -2.709733 0.060427 0.108469
v -2.738595 0.063066 0.091401
v -2.784147 0.147924 -0.019793
v -2.783550 0.119638 -0.041432
v -2.773858 0.091352 -0.059378
v -2.773858 0.091352 0.059376
v -2.783550 0.119638 0.041431
v -2.784147 0.147924 0.019792
v -2.698186 0.147924 -0.128101
v -2.681538 0.119638 -0.134078
v -2.664889 0.091352 -0.128101
v -2.755243 0.091352 -0.091403
v -2.744584 0.119638 -0.108471
v -2.728304 0.147924 -0.115868
v -2.589218 0.147924 -0.059378
v -2.579526 0.119638 -0.041432
v -2.578928 0.091352 -0.019793
v -2.634771 0.091352 -0.115868
v -2.618491 0.119638 -0.108471
v -2.607832 0.147924 -0.091403
v -2.607832 0.147924 0.091401
v -2.618491 0.119638 0.108470
v -2.634771 0.091352 0.115867
v -2.578928 0.091352 0.019792
v -2.579526 0.119638 0.041431
v -2.589218 0.147924 0.059376
v -2.728304 0.147924 0.115867
v -2.744584 0.119638 0.108470
v -2.755243 0.091352 0.091401
v -2.664889 0.091352 0.128099
v -2.681538 0.119638 0.134076
v -2.698186 0.147924 0.128099
v -2.770677 0.176209 -0.032025
v -2.755354 0.178849 -0.067039
v -2.733449 0.176209 -0.096075
v -2.684717 0.176209 -0.115868
v -2.653342 0.178849 -0.108470
v -2.624481 0.176209 -0.091403
v -2.594363 0.176209 -0.039585
v -2.590296 0.178849 -0.000001
v -2.594363 0.176209 0.039584
v -2.624481 0.176209 0.091401
v -2.653342 0.178849 0.108469
v -2.684717 0.176209 0.115867
v -2.733449 0.176209 0.096074
v -2.755354 0.178849 0.067037
v -2.770677 0.176209 0.032024
v -2.689862 0.228653 -0.032025
v -2.698963 0.215443 -0.067038
v -2.706511 0.193691 -0.096075
v -2.762353 0.193690 -0.000001
v -2.737928 0.215442 -0.000001
v -2.708476 0.228653 -0.000001
v -2.659744 0.228653 -0.019793
v -2.635917 0.215443 -0.041432
v -2.616157 0.193691 -0.059377
v -2.659744 0.228653 0.019792
v -2.635917 0.215443 0.041431
v -2.616157 0.193691 0.059376
v -2.689862 0.228653 0.032024
v -2.698963 0.215443 0.067037
v -2.706511 0.193691 0.096074
v -2.720345 0.220372 0.035243
v -2.749991 0.201134 0.035243
v -2.729506 0.201134 0.070487
v -2.666714 0.220372 0.057025
v -2.675875 0.201134 0.092269
v -2.642730 0.201134 0.078807
v -2.633569 0.220372 -0.000001
v -2.609585 0.201134 0.021781
v -2.609585 0.201134 -0.021783
v -2.666714 0.220372 -0.057026
v -2.642730 0.201134 -0.078808
v -2.675875 0.201134 -0.092270
v -2.720345 0.220372 -0.035244
v -2.729506 0.201134 -0.070489
v -2.749991 0.201134 -0.035245
v -2.773976 0.150767 0.057025
v -2.768314 0.119638 0.078807
v -2.753491 0.150767 0.092269
v -2.666714 0.150767 0.127514
v -2.648392 0.119638 0.127514
v -2.633569 0.150767 0.114052
v -2.579938 0.150767 0.021781
v -2.574276 0.119638 -0.000001
v -2.579938 0.150767 -0.021783
v -2.633569 0.150767 -0.114053
v -2.648392 0.119638 -0.127515
v -2.666714 0.150767 -0.127515
v -2.753491 0.150767 -0.092271
v -2.768314 0.119638 -0.078809
v -2.773976 0.150767 -0.057027
v -2.714684 0.119638 0.127514
v -2.729506 0.088508 0.114052
v -2.696361 0.088508 0.127514
v -2.594761 0.119638 0.078808
v -2.609585 0.088509 0.092270
v -2.589099 0.088509 0.057025
v -2.594761 0.119638 -0.078809
v -2.589099 0.088509 -0.057027
v -2.609585 0.088509 -0.092271
v -2.714684 0.119638 -0.127515
v -2.696361 0.088508 -0.127515
v -2.729506 0.088508 -0.114053
v -2.788799 0.119638 -0.000001
v -2.783137 0.088509 -0.021783
v -2.783137 0.088509 0.021781
v -2.720345 0.038141 0.078807
v -2.696361 0.018903 0.057025
v -2.687200 0.038141 0.092269
v -2.633569 0.038141 0.070487
v -2.642730 0.018903 0.035243
v -2.613084 0.038142 0.035243
v -2.613084 0.038142 -0.035245
v -2.642730 0.018903 -0.035245
v -2.633569 0.038141 -0.070489
v -2.753490 0.038141 0.021781
v -2.753491 0.038141 -0.021783
v -2.729506 0.018903 -0.000001
v -2.687200 0.038141 -0.092270
v -2.696361 0.018903 -0.057026
v -2.720345 0.038141 -0.078808
v -2.681538 0.115512 0.099010
v -2.732286 0.154280 0.062140
v -2.662154 0.154280 0.039352
v -2.618809 0.154280 0.099010
v -2.662154 0.154280 0.158668
v -2.732286 0.154280 0.135880
v -2.700922 0.217009 0.039352
v -2.630789 0.217009 0.062140
v -2.630789 0.217009 0.135880
v -2.700922 0.217009 0.158668
v -2.744266 0.217009 0.099010
v -2.681538 0.255777 0.099010
v -2.670144 0.125986 0.063944
v -2.711367 0.125986 0.077338
v -2.699974 0.148774 0.042272
v -2.741196 0.148774 0.099010
v -2.711367 0.125986 0.120682
v -2.644667 0.125986 0.099010
v -2.633273 0.148774 0.063944
v -2.670144 0.125986 0.134076
v -2.633273 0.148774 0.134076
v -2.699974 0.148774 0.155748
v -2.748238 0.185645 0.077338
v -2.748238 0.185645 0.120682
v -2.681538 0.185645 0.028877
v -2.722761 0.185645 0.042272
v -2.614837 0.185645 0.077338
v -2.640315 0.185645 0.042272
v -2.640315 0.185645 0.155748
v -2.614837 0.185645 0.120682
v -2.722761 0.185645 0.155748
v -2.681538 0.185645 0.169142
v -2.729802 0.222516 0.063944
v -2.663102 0.222516 0.042272
v -2.621880 0.222516 0.099010
v -2.663102 0.222516 0.155748
v -2.729802 0.222516 0.134076
v -2.692931 0.245303 0.063944
v -2.718408 0.245303 0.099010
v -2.651709 0.245303 0.077338
v -2.651709 0.245303 0.120682
v -2.692931 0.245303 0.134076
v -2.653601 0.231877 0.090319
v -2.655590 0.396884 0.106811
v -2.671721 0.233729 0.078934
v -2.661630 0.397501 0.103016
v -2.674010 0.237889 0.057986
v -2.662393 0.398888 0.096033
v -2.658743 0.241225 0.043249
v -2.657304 0.400000 0.091120
v -2.637418 0.241225 0.045820
v -2.650195 0.400000 0.091978
v -2.626092 0.237889 0.063764
v -2.646420 0.398888 0.097959
v -2.633295 0.233729 0.083568
v -2.648821 0.397501 0.104560
v -2.652685 0.246056 0.095101
v -2.654811 0.385574 0.112732
v -2.663256 0.247136 0.088460
v -2.657831 0.385883 0.110834
v -2.664590 0.249563 0.076240
v -2.658213 0.386576 0.107343
v -2.655685 0.251509 0.067643
v -2.655669 0.387132 0.104887
v -2.643245 0.251509 0.069143
v -2.652115 0.387132 0.105315
v -2.636639 0.249563 0.079610
v -2.650227 0.386576 0.108306
v -2.640840 0.247136 0.091163
v -2.651427 0.385883 0.111607
v -2.709474 0.231877 0.090319
v -2.707485 0.396884 0.106811
v -2.729781 0.233729 0.083568
v -2.714255 0.397501 0.104560
v -2.736983 0.237889 0.063764
v -2.716655 0.398888 0.097959
v -2.725657 0.241225 0.045820
v -2.712880 0.400000 0.091978
v -2.704332 0.241225 0.043249
v -2.705771 0.400000 0.091120
v -2.689066 0.237889 0.057986
v -2.700683 0.398888 0.096033
v -2.691354 0.233729 0.078934
v -2.701445 0.397501 0.103016
v -2.710390 0.246056 0.095101
v -2.708264 0.385574 0.112732
v -2.722235 0.247136 0.091163
v -2.711648 0.385883 0.111607
v -2.726436 0.249563 0.079610
v -2.712849 0.386576 0.108306
v -2.719830 0.251509 0.069143
v -2.710961 0.387132 0.105315
v -2.707390 0.251509 0.067643
v -2.707407 0.387132 0.104887
v -2.698485 0.249563 0.076240
v -2.704863 0.386576 0.107343
v -2.699820 0.247136 0.088460
v -2.705244 0.385883 0.110834
v -2.681538 0.152641 0.156766
v -2.693478 0.161763 0.148091
v -2.676977 0.161763 0.142729
v -2.666778 0.161763 0.156766
v -2.676977 0.161763 0.170803
v -2.693478 0.161763 0.165442
v -2.686098 0.176523 0.142729
v -2.669597 0.176523 0.148091
v -2.669597 0.176523 0.165442
v -2.686098 0.176523 0.170803
v -2.696297 0.176523 0.156766
v -2.681538 0.185645 0.156766
v -2.648534 0.181519 0.140264
v -2.657490 0.188361 0.133758
v -2.645113 0.188361 0.129737
v -2.637464 0.188361 0.140264
v -2.645113 0.188361 0.150792
v -2.657490 0.188361 0.146771
v -2.651954 0.199430 0.129737
v -2.639579 0.199430 0.133758
v -2.639579 0.199430 0.146771
v -2.651954 0.199430 0.150792
v -2.659604 0.199430 0.140264
v -2.648534 0.206272 0.140264
v -2.714541 0.181519 0.140264
v -2.723497 0.188361 0.133758
v -2.711121 0.188361 0.129737
v -2.703471 0.188361 0.140264
v -2.711121 0.188361 0.150792
v -2.723497 0.188361 0.146771
v -2.717962 0.199430 0.129737
v -2.705586 0.199430 0.133758
v -2.705586 0.199430 0.146771
v -2.717962 0.199430 0.150792
v -2.725611 0.199430 0.140264
v -2.714541 0.206272 0.140264
v -2.615531 0.033829 0.020627
v -2.651353 0.058458 -0.013207
v -2.601848 0.058458 -0.034118
v -2.571252 0.058458 0.020627
v -2.601848 0.058458 0.075372
v -2.651353 0.058458 0.054461
v -2.629213 0.098309 -0.034118
v -2.579708 0.098309 -0.013207
v -2.579708 0.098309 0.054461
v -2.629213 0.098309 0.075372
v -2.659809 0.098309 0.020627
v -2.615531 0.122938 0.020627
v -2.607488 0.040483 -0.011551
v -2.636586 0.040483 0.000739
v -2.628544 0.054959 -0.031439
v -2.657642 0.054960 0.020627
v -2.636586 0.040483 0.040514
v -2.589504 0.040483 0.020627
v -2.581461 0.054959 -0.011552
v -2.607488 0.040483 0.052805
v -2.581461 0.054959 0.052805
v -2.628544 0.054959 0.072692
v -2.662613 0.078383 0.000739
v -2.662613 0.078383 0.040514
v -2.615531 0.078383 -0.043730
v -2.644629 0.078383 -0.031439
v -2.568448 0.078383 0.000739
v -2.586432 0.078383 -0.031439
v -2.586432 0.078383 0.072693
v -2.568448 0.078383 0.040514
v -2.644629 0.078383 0.072693
v -2.615531 0.078383 0.084983
v -2.649600 0.101807 -0.011552
v -2.602517 0.101808 -0.031439
v -2.573419 0.101807 0.020627
v -2.602517 0.101808 0.072692
v -2.649600 0.101807 0.052805
v -2.623573 0.116284 -0.011551
v -2.641557 0.116284 0.020627
v -2.594475 0.116284 0.000739
v -2.594475 0.116284 0.040514
v -2.623573 0.116284 0.052805
v -2.747545 0.033829 0.020627
v -2.783367 0.058458 -0.013207
v -2.733862 0.058458 -0.034118
v -2.703266 0.058458 0.020627
v -2.733862 0.058458 0.075372
v -2.783367 0.058458 0.054461
v -2.761228 0.098309 -0.034118
v -2.711722 0.098309 -0.013207
v -2.711722 0.098309 0.054461
v -2.761228 0.098309 0.075372
v -2.791824 0.098309 0.020627
v -2.747545 0.122938 0.020627
v -2.739502 0.040483 -0.011551
v -2.768600 0.040483 0.000739
v -2.760558 0.054959 -0.031439
v -2.789656 0.054960 0.020627
v -2.768600 0.040483 0.040514
v -2.721518 0.040483 0.020627
v -2.713475 0.054959 -0.011552
v -2.739502 0.040483 0.052805
v -2.713475 0.054959 0.052805
v -2.760558 0.054959 0.072692
v -2.794627 0.078383 0.000739
v -2.794627 0.078383 0.040514
v -2.747545 0.078383 -0.043730
v -2.776643 0.078383 -0.031439
v -2.700462 0.078383 0.000739
v -2.718446 0.078383 -0.031439
v -2.718446 0.078383 0.072693
v -2.700462 0.078383 0.040514
v -2.776643 0.078383 0.072693
v -2.747545 0.078383 0.084983
v -2.781614 0.101807 -0.011552
v -2.734531 0.101808 -0.031439
v -2.705433 0.101807 0.020627
v -2.734531 0.101808 0.072692
v -2.781614 0.101807 0.052805
v -2.755587 0.116284 -0.011551
v -2.773571 0.116284 0.020627
v -2.726489 0.116284 0.000739
v -2.726489 0.116284 0.040514
v -2.755587 0.116284 0.052805
v -2.640283 0.000000 0.096947
v -2.640283 0.090760 0.096947
v -2.650493 0.000000 0.092718
v -2.650493 0.090760 0.092718
v -2.654722 0.000000 0.082508
v -2.654722 0.090760 0.082508
v -2.650493 0.000000 0.072298
v -2.650493 0.090760 0.072298
v -2.640283 0.000000 0.068069
v -2.640283 0.090760 0.068069
v -2.630073 0.000000 0.072298
v -2.630073 0.090760 0.072298
v -2.625844 0.000000 0.082508
v -2.625844 0.090760 0.082508
v -2.630073 0.000000 0.092718
v -2.630073 0.090760 0.092718
v -2.722792 0.000000 0.096947
v -2.722792 0.090760 0.096947
v -2.733002 0.000000 0.092718
v -2.733002 0.090760 0.092718
v -2.737231 0.000000 0.082508
v -2.737231 0.090760 0.082508
v -2.733002 0.000000 0.072298
v -2.733002 0.090760 0.072298
v -2.722792 0.000000 0.068069
v -2.722792 0.090760 0.068069
v -2.712582 0.000000 0.072298
v -2.712582 0.090760 0.072298
v -2.708353 0.000000 0.082508
v -2.708353 0.090760 0.082508
v -2.712582 0.000000 0.092718
v -2.712582 0.090760 0.092718
v -2.681538 0.078383 -0.115513
v -2.711390 0.101188 -0.137202
v -2.670135 0.101188 -0.150606
v -2.644638 0.101188 -0.115513
v -2.670135 0.101188 -0.080420
v -2.711390 0.101188 -0.093824
v -2.692940 0.138088 -0.150606
v -2.651685 0.138088 -0.137202
v -2.651685 0.138088 -0.093824
v -2.692940 0.138088 -0.080420
v -2.718437 0.138088 -0.115513
v -2.681538 0.160892 -0.115513
v -2.674836 0.084545 -0.136140
v -2.699084 0.084545 -0.128261
v -2.692382 0.097949 -0.148888
v -2.716631 0.097949 -0.115513
v -2.699084 0.084545 -0.102765
v -2.659849 0.084545 -0.115513
v -2.653147 0.097949 -0.136140
v -2.674836 0.084545 -0.094886
v -2.653147 0.097949 -0.094886
v -2.692382 0.097949 -0.082138
v -2.720773 0.119638 -0.128261
v -2.720773 0.119638 -0.102765
v -2.681538 0.119638 -0.156767
v -2.705786 0.119638 -0.148889
v -2.642302 0.119638 -0.128261
v -2.657289 0.119638 -0.148889
v -2.657289 0.119638 -0.082137
v -2.642302 0.119638 -0.102765
v -2.705786 0.119638 -0.082137
v -2.681538 0.119638 -0.074259
v -2.709929 0.141327 -0.136140
v -2.670693 0.141327 -0.148888
v -2.646445 0.141327 -0.115513
v -2.670693 0.141327 -0.082138
v -2.709929 0.141327 -0.094886
v -2.688239 0.154731 -0.136140
v -2.703226 0.154731 -0.115513
v -2.663991 0.154731 -0.128261
v -2.663991 0.154731 -0.102765
v -2.688239 0.154731 -0.094886
vn -0.000400 -1.000000 0.000000
vn -0.221000 -0.966500 -0.130500
vn 0.084300 -0.973800 -0.211300
vn -0.768700 -0.453600 -0.450900
vn -0.638900 -0.671800 -0.374900
vn -0.836600 -0.493800 -0.237400
vn 0.272800 -0.962100 0.000000
vn 0.084300 -0.973800 0.211300
vn -0.221000 -0.966500 0.130500
vn -0.898200 -0.240600 -0.368000
vn 0.323100 -0.499200 -0.804000
vn 0.022900 -0.566500 -0.823700
vn 0.182400 -0.281800 -0.942000
vn 0.902600 -0.430400 0.000000
vn 0.846600 -0.491400 -0.204500
vn 0.964200 -0.233800 -0.125100
vn 0.323100 -0.499200 0.804000
vn 0.548300 -0.537100 0.641000
vn 0.513900 -0.269800 0.814300
vn -0.768700 -0.453600 0.450900
vn -0.580400 -0.532700 0.616000
vn -0.750600 -0.255100 0.609500
vn -0.750600 -0.255100 -0.609500
vn 0.513900 -0.269800 -0.814300
vn 0.964200 -0.233800 0.125100
vn 0.182400 -0.281800 0.942000
vn -0.898200 -0.240600 0.368000
vn -0.323100 0.499200 -0.804000
vn -0.548300 0.537100 -0.641000
vn -0.260300 0.715800 -0.648000
vn 0.768700 0.453600 -0.450900
vn 0.580400 0.532700 -0.616000
vn 0.638900 0.671800 -0.374900
vn 0.768700 0.453600 0.450900
vn 0.836600 0.493800 0.237400
vn 0.638900 0.671800 0.374900
vn -0.323100 0.499200 0.804000
vn -0.022900 0.566500 0.823700
vn -0.260300 0.715800 0.648000
vn -0.902600 0.430400 0.000000
vn -0.846600 0.491400 0.204500
vn -0.761600 0.648000 0.000000
vn -0.272800 0.962100 0.000000
vn -0.084300 0.973800 0.211300
vn 0.000400 1.000000 0.000000
vn -0.543300 0.839500 0.000000
vn -0.386800 0.893600 0.227500
vn -0.655500 0.721000 0.224600
vn -0.175900 0.881200 0.438900
vn -0.484400 0.748900 0.452200
vn -0.729800 0.532400 0.428900
vn -0.548300 0.537100 0.641000
vn 0.221000 0.966500 0.130500
vn 0.151100 0.914000 0.376600
vn 0.066500 0.780300 0.621900
vn 0.447300 0.854800 0.263200
vn 0.387200 0.760600 0.521100
vn 0.303300 0.579100 0.756700
vn 0.580400 0.532700 0.616000
vn 0.221000 0.966500 -0.130500
vn 0.471800 0.881700 0.000000
vn 0.687400 0.714700 0.128900
vn 0.447300 0.854800 -0.263200
vn 0.687400 0.714700 -0.128900
vn 0.861100 0.508400 0.000000
vn 0.836600 0.493800 -0.237400
vn -0.084300 0.973800 -0.211300
vn 0.151100 0.914000 -0.376600
vn 0.387200 0.760600 -0.521100
vn -0.175900 0.881200 -0.438900
vn 0.066500 0.780300 -0.621900
vn 0.303300 0.579100 -0.756700
vn -0.022900 0.566500 -0.823700
vn -0.386800 0.893600 -0.227500
vn -0.484400 0.748900 -0.452200
vn -0.655500 0.721000 -0.224600
vn -0.729800 0.532400 -0.428900
vn -0.846600 0.491400 -0.204500
vn -0.964200 0.233800 0.125100
vn -0.967200 0.000200 0.254200
vn -0.891600 0.270000 0.363400
vn -0.861900 0.009000 0.507000
vn -0.742000 0.285200 0.606800
vn -0.667200 -0.000400 0.744900
vn -0.513900 0.269800 0.814300
vn -0.182400 0.281800 0.942000
vn -0.000000 -0.000000 1.000000
vn 0.176400 0.314400 0.932800
vn 0.371300 0.010200 0.928500
vn 0.511100 0.301900 0.804800
vn 0.667100 0.000400 0.744900
vn 0.750600 0.255100 0.609500
vn 0.898200 0.240600 0.368000
vn 0.967200 -0.000200 0.254200
vn 0.956800 0.262100 0.126200
vn 1.000000 0.008500 0.000000
vn 0.956800 0.262100 -0.126200
vn 0.967200 -0.000200 -0.254200
vn 0.898200 0.240600 -0.368000
vn 0.750600 0.255100 -0.609500
vn 0.667100 0.000400 -0.744900
vn 0.511100 0.301900 -0.804800
vn 0.371300 0.010200 -0.928500
vn 0.176400 0.314400 -0.932800
vn -0.000000 -0.000000 -1.000000
vn -0.182400 0.281800 -0.942000
vn -0.513900 0.269800 -0.814300
vn -0.667100 -0.000400 -0.744900
vn -0.742000 0.285200 -0.606800
vn -0.861900 0.009000 -0.507000
vn -0.891600 0.270000 -0.363400
vn -0.967200 0.000200 -0.254200
vn -0.964200 0.233800 -0.125100
vn -0.371300 -0.010200 0.928500
vn -0.511100 -0.301900 0.804800
vn -0.176400 -0.314400 0.932800
vn -0.303300 -0.579100 0.756700
vn 0.022900 -0.566500 0.823700
vn 0.861900 -0.009000 0.507000
vn 0.742000 -0.285200 0.606800
vn 0.891600 -0.270000 0.363400
vn 0.729800 -0.532400 0.428900
vn 0.846600 -0.491400 0.204500
vn 0.861900 -0.009000 -0.507000
vn 0.891600 -0.270000 -0.363400
vn 0.742000 -0.285200 -0.606800
vn 0.729800 -0.532400 -0.428900
vn 0.548300 -0.537100 -0.641000
vn -0.371300 -0.010200 -0.928500
vn -0.176400 -0.314400 -0.932800
vn -0.511100 -0.301900 -0.804800
vn -0.303300 -0.579100 -0.756700
vn -0.580400 -0.532700 -0.616000
vn -1.000000 -0.008500 0.000000
vn -0.956800 -0.262100 -0.126200
vn -0.956800 -0.262100 0.126200
vn -0.861100 -0.508400 0.000000
vn -0.836600 -0.493800 0.237400
vn -0.638900 -0.671800 0.374900
vn -0.447300 -0.854800 0.263200
vn -0.387200 -0.760600 0.521100
vn -0.151100 -0.914000 0.376600
vn -0.066500 -0.780300 0.621900
vn 0.175900 -0.881200 0.438900
vn 0.260300 -0.715800 0.648000
vn 0.484400 -0.748900 0.452200
vn 0.386800 -0.893600 0.227500
vn 0.655500 -0.721000 0.224600
vn 0.543300 -0.839500 0.000000
vn 0.761600 -0.648000 0.000000
vn 0.655500 -0.721000 -0.224600
vn 0.386800 -0.893600 -0.227500
vn 0.484400 -0.748900 -0.452200
vn 0.175900 -0.881200 -0.438900
vn 0.260300 -0.715800 -0.648000
vn -0.687400 -0.714700 0.128900
vn -0.687400 -0.714700 -0.128900
vn -0.471800 -0.881700 0.000000
vn -0.447300 -0.854800 -0.263200
vn -0.066500 -0.780300 -0.621900
vn -0.151100 -0.914000 -0.376600
vn -0.387200 -0.760600 -0.521100
vn -0.000000 -1.000000 0.000000
vn -0.425300 -0.850700 -0.309000
vn 0.162500 -0.850700 -0.500000
vn -0.723600 -0.447200 -0.525700
vn -0.850600 -0.525700 0.000000
vn 0.525700 -0.850700 0.000000
vn 0.162500 -0.850700 0.500000
vn -0.425300 -0.850700 0.309000
vn -0.951100 -0.000000 -0.309000
vn 0.276400 -0.447200 -0.850600
vn -0.262900 -0.525700 -0.809000
vn 0.894400 -0.447200 0.000000
vn 0.688200 -0.525700 -0.500000
vn 0.951100 -0.000000 -0.309000
vn 0.276400 -0.447200 0.850600
vn 0.688200 -0.525700 0.500000
vn 0.587800 -0.000000 0.809000
vn -0.723600 -0.447200 0.525700
vn -0.262900 -0.525700 0.809000
vn -0.587800 -0.000000 0.809000
vn -0.587800 -0.000000 -0.809000
vn 0.587800 -0.000000 -0.809000
vn 0.951100 -0.000000 0.309000
vn -0.951100 -0.000000 0.309000
vn -0.276400 0.447200 -0.850600
vn -0.688200 0.525700 -0.500000
vn -0.162500 0.850700 -0.500000
vn 0.723600 0.447200 -0.525700
vn 0.262900 0.525700 -0.809000
vn 0.425300 0.850700 -0.309000
vn 0.723600 0.447200 0.525700
vn 0.850600 0.525700 0.000000
vn 0.425300 0.850700 0.309000
vn -0.276400 0.447200 0.850600
vn 0.262900 0.525700 0.809000
vn -0.162500 0.850700 0.500000
vn -0.894400 0.447200 0.000000
vn -0.688200 0.525700 0.500000
vn -0.525700 0.850700 0.000000
vn -0.000000 1.000000 0.000000
vn -0.081400 -0.733200 0.675100
vn -0.104000 0.495700 0.862200
vn -0.655000 0.552000 0.516000
vn -0.675900 -0.672500 0.301600
vn -0.724500 0.678500 -0.121000
vn -0.751000 -0.536000 -0.385700
vn -0.260300 0.780000 -0.569100
vn -0.250100 -0.426500 -0.869200
vn 0.388100 0.780000 -0.490900
vn 0.449600 -0.426500 -0.784900
vn 0.732500 0.678500 0.054700
vn 0.821100 -0.536000 -0.196100
vn 0.513500 0.552000 0.656900
vn 0.584800 -0.672500 0.453600
vn -0.080300 -0.741600 0.666100
vn -0.104700 0.484600 0.868500
vn -0.661900 0.541500 0.518400
vn -0.669500 -0.681400 0.295900
vn -0.732200 0.669400 -0.125700
vn -0.743900 -0.546100 -0.385300
vn -0.262800 0.771900 -0.578800
vn -0.247500 -0.437600 -0.864400
vn 0.392800 0.772000 -0.499700
vn 0.445900 -0.437600 -0.780800
vn 0.741100 0.669400 0.052000
vn 0.814100 -0.546100 -0.197400
vn 0.519700 0.541500 0.660900
vn 0.580000 -0.681400 0.446500
vn 0.081400 -0.733200 0.675100
vn 0.104000 0.495700 0.862200
vn -0.513500 0.552000 0.656900
vn -0.584900 -0.672500 0.453600
vn -0.732500 0.678500 0.054700
vn -0.821100 -0.536000 -0.196200
vn -0.388100 0.780000 -0.490900
vn -0.449600 -0.426500 -0.784900
vn 0.260300 0.780000 -0.569100
vn 0.250100 -0.426500 -0.869200
vn 0.724500 0.678500 -0.121000
vn 0.751000 -0.536000 -0.385700
vn 0.655000 0.552000 0.516000
vn 0.675900 -0.672500 0.301600
vn 0.080300 -0.741600 0.666100
vn 0.104700 0.484600 0.868500
vn -0.519700 0.541500 0.660900
vn -0.580000 -0.681400 0.446500
vn -0.741100 0.669400 0.052000
vn -0.814100 -0.546100 -0.197400
vn -0.392900 0.772000 -0.499700
vn -0.445900 -0.437600 -0.780800
vn 0.262800 0.771900 -0.578800
vn 0.247500 -0.437600 -0.864400
vn 0.732200 0.669400 -0.125700
vn 0.743900 -0.546100 -0.385300
vn 0.661900 0.541500 0.518400
vn 0.669500 -0.681400 0.295900
vn 0.276400 -0.447200 -0.850700
vn 0.276400 -0.447200 0.850700
vn -0.276400 0.447200 -0.850700
vn -0.276400 0.447200 0.850700
vn -0.000900 -1.000000 0.000000
vn -0.404100 -0.883800 -0.236000
vn 0.157400 -0.906800 -0.391100
vn -0.747300 -0.500500 -0.437100
vn -0.831200 -0.555900 0.000000
vn 0.493000 -0.870000 0.000000
vn 0.157400 -0.906800 0.391100
vn -0.404100 -0.883800 0.236000
vn -0.967300 0.001700 -0.253600
vn 0.311700 -0.544400 -0.778700
vn -0.292700 -0.621000 -0.727100
vn 0.879400 -0.476100 0.000000
vn 0.704800 -0.578800 -0.410100
vn 0.967300 -0.001700 -0.253600
vn 0.311700 -0.544400 0.778700
vn 0.704800 -0.578800 0.410100
vn 0.663900 0.003800 0.747800
vn -0.747300 -0.500500 0.437100
vn -0.292700 -0.621000 0.727100
vn -0.664000 -0.003800 0.747800
vn -0.664000 -0.003800 -0.747800
vn 0.663900 0.003800 -0.747800
vn 0.967300 -0.001700 0.253600
vn -0.967300 0.001700 0.253600
vn -0.311700 0.544400 -0.778700
vn -0.704800 0.578800 -0.410100
vn -0.157400 0.906800 -0.391100
vn 0.747300 0.500500 -0.437100
vn 0.292700 0.621000 -0.727100
vn 0.404100 0.883800 -0.236000
vn 0.747300 0.500500 0.437100
vn 0.831200 0.555900 0.000000
vn 0.404100 0.883800 0.236000
vn -0.311700 0.544400 0.778700
vn 0.292700 0.621000 0.727100
vn -0.157400 0.906800 0.391100
vn -0.879400 0.476100 0.000000
vn -0.704800 0.578800 0.410100
vn -0.493000 0.870000 0.000000
vn 0.000900 1.000000 0.000000
vn 0.664000 0.003800 0.747800
vn -0.663900 -0.003800 0.747800
vn -0.663900 -0.003800 -0.747800
vn 0.664000 0.003800 -0.747800
vn -0.000000 -0.630300 0.776400
vn -0.000000 0.630300 0.776400
vn -0.549000 0.630300 0.549000
vn -0.549000 -0.630300 0.549000
vn -0.776400 0.630300 0.000000
vn -0.776400 -0.630300 0.000000
vn -0.549000 0.630300 -0.549000
vn -0.549000 -0.630300 -0.549000
vn -0.000000 0.630300 -0.776400
vn -0.000000 -0.630300 -0.776400
vn 0.549000 0.630300 -0.549000
vn 0.549000 -0.630300 -0.549000
vn 0.776400 0.630300 0.000000
vn 0.776400 -0.630300 0.000000
vn 0.549000 0.630300 0.549000
vn 0.549000 -0.630300 0.549000
vn 0.162400 -0.850700 -0.500000
vn 0.162400 -0.850700 0.500000
vn -0.162400 0.850700 -0.500000
vn -0.162400 0.850700 0.500000
vt 0.496917 0.408116
vt 0.526809 0.420453
vt 0.498670 0.441954
vt 0.250090 0.171981
vt 0.223973 0.164903
vt 0.243075 0.135885
vt 0.468295 0.414948
vt 0.477662 0.376757
vt 0.513826 0.380159
vt 0.274461 0.154729
vt 0.093366 0.415658
vt 0.064720 0.423238
vt 0.074488 0.390394
vt 0.159164 0.168189
vt 0.165654 0.199944
vt 0.134500 0.191521
vt 0.158436 0.024210
vt 0.165781 0.050940
vt 0.134218 0.028118
vt 0.568108 0.032009
vt 0.575955 0.061537
vt 0.544932 0.043927
vt 0.274756 0.195394
vt 0.110743 0.390394
vt 0.134831 0.149404
vt 0.568108 0.161258
vt 0.543115 0.179878
vt 0.544933 0.152803
vt 0.543115 0.012281
vt 0.363567 0.235357
vt 0.370051 0.208115
vt 0.390221 0.218064
vt 0.159191 0.305181
vt 0.129937 0.297331
vt 0.150075 0.279982
vt 0.046758 0.086916
vt 0.039812 0.123058
vt 0.019897 0.094556
vt 0.457624 0.098546
vt 0.450046 0.127051
vt 0.429750 0.096609
vt 0.362515 0.090533
vt 0.369755 0.059290
vt 0.389334 0.096069
vt 0.330754 0.401701
vt 0.302217 0.431681
vt 0.301413 0.394647
vt 0.363006 0.409605
vt 0.334662 0.443249
vt 0.389953 0.416382
vt 0.367237 0.451327
vt 0.303269 0.472362
vt 0.335831 0.484320
vt 0.304342 0.506322
vt 0.398107 0.063496
vt 0.373230 0.028078
vt 0.365230 0.487728
vt 0.445609 0.034338
vt 0.450046 0.068329
vt 0.420247 0.062754
vt 0.272662 0.410584
vt 0.270730 0.453024
vt 0.271899 0.494096
vt 0.241400 0.428198
vt 0.239373 0.470877
vt 0.215675 0.443029
vt 0.420247 0.127378
vt 0.445609 0.157261
vt 0.243623 0.506322
vt 0.216737 0.480349
vt 0.011070 0.064810
vt 0.039481 0.057644
vt 0.282932 0.367565
vt 0.249506 0.382463
vt 0.218149 0.400316
vt 0.262899 0.338147
vt 0.229451 0.352973
vt 0.246485 0.313973
vt 0.011434 0.136799
vt 0.036636 0.166563
vt 0.011070 0.183150
vt 0.039151 0.207293
vt 0.018904 0.220909
vt 0.045580 0.236912
vt 0.318835 0.362075
vt 0.300321 0.329078
vt 0.280266 0.299589
vt 0.338055 0.326655
vt 0.319778 0.293547
vt 0.354195 0.297503
vt 0.264165 0.281687
vt 0.093278 0.293991
vt 0.114973 0.271042
vt 0.299908 0.270562
vt 0.057427 0.297331
vt 0.075073 0.271042
vt 0.335972 0.270707
vt 0.030073 0.305181
vt 0.041309 0.279982
vt 0.352950 0.366646
vt 0.372408 0.331114
vt 0.385525 0.374724
vt 0.383794 0.304843
vt 0.372612 0.169367
vt 0.398107 0.182529
vt 0.397782 0.137776
vt 0.369460 0.126785
vt 0.337779 0.067276
vt 0.306294 0.044795
vt 0.341369 0.031809
vt 0.275008 0.029587
vt 0.306829 0.011070
vt 0.512866 0.025337
vt 0.478724 0.045898
vt 0.476725 0.011070
vt 0.514353 0.061475
vt 0.482886 0.081293
vt 0.482886 0.117585
vt 0.514354 0.137446
vt 0.478725 0.150463
vt 0.512866 0.169842
vt 0.476725 0.180259
vt 0.067862 0.030447
vt 0.035944 0.029631
vt 0.102971 0.041540
vt 0.102372 0.011070
vt 0.071501 0.063333
vt 0.071705 0.103762
vt 0.103399 0.126170
vt 0.068451 0.146929
vt 0.103186 0.172044
vt 0.068086 0.193281
vt 0.102707 0.214335
vt 0.070713 0.230114
vt 0.147710 0.328352
vt 0.130480 0.358927
vt 0.112369 0.324274
vt 0.092028 0.358414
vt 0.072470 0.324274
vt 0.054586 0.358928
vt 0.038943 0.328352
vt 0.338483 0.230985
vt 0.306530 0.217241
vt 0.341168 0.196749
vt 0.306102 0.177164
vt 0.340843 0.151996
vt 0.305912 0.132115
vt 0.337597 0.108989
vt 0.514866 0.100105
vt 0.549007 0.079544
vt 0.549008 0.119484
vt 0.579294 0.098337
vt 0.575956 0.134120
vt 0.103325 0.081201
vt 0.137836 0.061823
vt 0.138060 0.106316
vt 0.169042 0.089312
vt 0.166189 0.131796
vt 0.178832 0.330175
vt 0.102008 0.248903
vt 0.137107 0.227666
vt 0.166179 0.360419
vt 0.180089 0.396565
vt 0.145838 0.394559
vt 0.167921 0.231968
vt 0.156938 0.427680
vt 0.123382 0.423238
vt 0.011403 0.330175
vt 0.021820 0.360420
vt 0.041379 0.394559
vt 0.307154 0.248422
vt 0.011070 0.396565
vt 0.272087 0.228837
vt 0.034139 0.427680
vt 0.241212 0.230403
vt 0.243553 0.201682
vt 0.305978 0.086504
vt 0.271237 0.111673
vt 0.271438 0.065766
vt 0.240212 0.092669
vt 0.243440 0.052457
vt 0.250740 0.023422
vt 0.548686 0.314549
vt 0.529952 0.278342
vt 0.558991 0.291285
vt 0.532660 0.346356
vt 0.513665 0.305356
vt 0.494483 0.341458
vt 0.493445 0.270562
vt 0.473866 0.301611
vt 0.457624 0.271536
vt 0.456959 0.339233
vt 0.440194 0.304342
vt 0.430198 0.279168
vt 0.412093 0.306326
vt 0.423759 0.339898
vt 0.444376 0.379745
vt 0.193310 0.076823
vt 0.413450 0.381928
vt 0.193535 0.121315
vt 0.437350 0.419180
vt 0.412093 0.418916
vt 0.185238 0.163032
vt 0.436569 0.453679
vt 0.467495 0.451496
vt 0.192946 0.196313
vt 0.469998 0.483400
vt 0.162695 0.455048
vt 0.128444 0.453042
vt 0.500934 0.475712
vt 0.097396 0.470170
vt 0.094938 0.443536
vt 0.579099 0.322038
vt 0.215876 0.076963
vt 0.215675 0.122870
vt 0.567753 0.353445
vt 0.596325 0.362033
vt 0.582041 0.397789
vt 0.548571 0.389548
vt 0.587636 0.435431
vt 0.559839 0.430704
vt 0.063885 0.453042
vt 0.531892 0.457554
vt 0.534394 0.489458
vt 0.565362 0.465796
vt 0.033577 0.455048
vt 0.216200 0.195281
vt 0.290629 0.592614
vt 0.299048 0.553039
vt 0.326081 0.591968
vt 0.489767 0.612575
vt 0.482681 0.643873
vt 0.447856 0.620191
vt 0.299048 0.631377
vt 0.255309 0.616803
vt 0.255309 0.568388
vt 0.466549 0.578612
vt 0.638705 0.091297
vt 0.601434 0.077619
vt 0.635911 0.048591
vt 0.577590 0.612620
vt 0.545038 0.616934
vt 0.554472 0.576640
vt 0.655831 0.614860
vt 0.619587 0.620227
vt 0.646535 0.579992
vt 0.688636 0.379377
vt 0.649726 0.363505
vt 0.691298 0.341482
vt 0.512929 0.576598
vt 0.677535 0.073350
vt 0.600545 0.578676
vt 0.618465 0.336252
vt 0.618465 0.294325
vt 0.650052 0.316134
vt 0.726448 0.360688
vt 0.121565 0.600183
vt 0.085586 0.622277
vt 0.098817 0.582717
vt 0.709520 0.053193
vt 0.677535 0.026194
vt 0.710406 0.018983
vt 0.623435 0.544169
vt 0.581419 0.536406
vt 0.615588 0.511598
vt 0.689193 0.298784
vt 0.660038 0.272303
vt 0.707455 0.270562
vt 0.043213 0.625620
vt 0.011070 0.598041
vt 0.052763 0.597669
vt 0.024301 0.558482
vt 0.065723 0.558317
vt 0.726775 0.313317
vt 0.052764 0.519312
vt 0.011070 0.519684
vt 0.043214 0.492310
vt 0.098817 0.534290
vt 0.085586 0.495492
vt 0.121564 0.517793
vt 0.131640 0.558898
vt 0.485966 0.536364
vt 0.443897 0.544125
vt 0.452310 0.511598
vt 0.420894 0.579957
vt 0.412093 0.538540
vt 0.655831 0.538536
vt 0.545050 0.540707
vt 0.638706 0.011070
vt 0.522801 0.540698
vt 0.710406 0.095284
vt 0.668783 0.117681
vt 0.601435 0.030462
vt 0.522898 0.616932
vt 0.412093 0.614864
vt 0.215675 0.592226
vt 0.223200 0.550801
vt 0.223199 0.633170
vt 0.259414 0.655215
vt 0.585282 0.643871
vt 0.330187 0.630380
vt 0.621750 0.120318
vt 0.259415 0.528462
vt 0.330187 0.552041
vt 0.813417 0.695293
vt 0.829067 0.513311
vt 0.836892 0.513346
vt 0.836892 0.695399
vt 0.732547 0.195239
vt 0.746879 0.011147
vt 0.754106 0.011070
vt 0.754226 0.195008
vt 0.761295 0.011147
vt 0.775795 0.195239
vt 0.412093 0.841299
vt 0.412259 0.666956
vt 0.420037 0.666014
vt 0.435428 0.838471
vt 0.426299 0.666956
vt 0.454213 0.841299
vt 0.264626 0.938037
vt 0.256840 0.939709
vt 0.250596 0.934732
vt 0.250596 0.926854
vt 0.256840 0.922006
vt 0.264626 0.923840
vt 0.268091 0.930975
vt 0.812844 0.455624
vt 0.820612 0.270562
vt 0.828606 0.270562
vt 0.836824 0.455624
vt 0.795042 0.690156
vt 0.822942 0.511598
vt 0.057231 0.906882
vt 0.057231 0.930673
vt 0.040756 0.944319
vt 0.020213 0.937544
vt 0.011070 0.915451
vt 0.020213 0.894675
vt 0.040756 0.890861
vt 0.915861 0.425231
vt 0.925642 0.271368
vt 0.929555 0.271322
vt 0.929555 0.425069
vt 0.859032 0.668172
vt 0.867985 0.511637
vt 0.871599 0.511598
vt 0.871679 0.668038
vt 0.875194 0.511637
vt 0.884261 0.668172
vt 0.909823 0.160391
vt 0.909823 0.011477
vt 0.913720 0.011070
vt 0.923461 0.158966
vt 0.916843 0.011593
vt 0.934390 0.160796
vt 0.162498 0.620381
vt 0.160772 0.623969
vt 0.156891 0.624908
vt 0.153780 0.622493
vt 0.153780 0.618540
vt 0.156891 0.616028
vt 0.160772 0.616847
vt 0.936896 0.874614
vt 0.941858 0.717539
vt 0.945855 0.717539
vt 0.950884 0.874614
vt 0.905095 0.422409
vt 0.922566 0.270562
vt 0.751043 0.899733
vt 0.756633 0.912436
vt 0.751043 0.923593
vt 0.738483 0.924803
vt 0.728410 0.915154
vt 0.728410 0.901913
vt 0.738483 0.895050
vt 0.858964 0.453326
vt 0.866111 0.270562
vt 0.874108 0.270562
vt 0.882956 0.453326
vt 0.128141 0.831163
vt 0.147686 0.647999
vt 0.153915 0.647760
vt 0.146826 0.830446
vt 0.161723 0.647999
vt 0.170250 0.831163
vt 0.797935 0.187637
vt 0.812884 0.011935
vt 0.820060 0.011070
vt 0.819464 0.185040
vt 0.827300 0.011935
vt 0.841182 0.187637
vt 0.294250 0.938231
vt 0.290841 0.931039
vt 0.294250 0.923818
vt 0.301912 0.922006
vt 0.308057 0.926967
vt 0.308057 0.934966
vt 0.301912 0.939979
vt 0.748915 0.453738
vt 0.776530 0.270562
vt 0.784334 0.271430
vt 0.772326 0.456343
vt 0.790460 0.271430
vt 0.790704 0.456343
vt 0.863322 0.219762
vt 0.872559 0.197651
vt 0.893313 0.190688
vt 0.909957 0.204114
vt 0.909957 0.227821
vt 0.893313 0.243956
vt 0.872559 0.240369
vt 0.366007 0.962026
vt 0.370179 0.807603
vt 0.374178 0.807603
vt 0.380002 0.962026
vt 0.890192 0.873526
vt 0.903059 0.717659
vt 0.906173 0.717539
vt 0.901092 0.873108
vt 0.910077 0.717659
vt 0.914756 0.873526
vt 0.906401 0.662022
vt 0.915841 0.512031
vt 0.919429 0.511598
vt 0.918960 0.660508
vt 0.923049 0.512031
vt 0.931628 0.662022
vt 0.193400 0.622395
vt 0.190273 0.624857
vt 0.186374 0.623997
vt 0.184638 0.620464
vt 0.186374 0.616917
vt 0.190273 0.616028
vt 0.193400 0.618465
vt 0.863322 0.168548
vt 0.863322 0.011570
vt 0.867247 0.011479
vt 0.877059 0.168230
vt 0.870282 0.011070
vt 0.887683 0.166798
vt 0.784438 0.227893
vt 0.793649 0.217379
vt 0.806419 0.217379
vt 0.813132 0.227893
vt 0.808733 0.241003
vt 0.796534 0.246838
vt 0.785722 0.241003
vt 0.746615 0.235541
vt 0.762298 0.232048
vt 0.750934 0.247240
vt 0.750934 0.217379
vt 0.732546 0.241961
vt 0.732546 0.223505
vt 0.921544 0.465983
vt 0.905096 0.473968
vt 0.905096 0.455719
vt 0.708882 0.158256
vt 0.709700 0.173827
vt 0.692658 0.167906
vt 0.709700 0.142458
vt 0.692658 0.148519
vt 0.811598 0.928780
vt 0.795042 0.920710
vt 0.811510 0.910483
vt 0.692658 0.221128
vt 0.692658 0.201748
vt 0.708882 0.211311
vt 0.921698 0.447371
vt 0.795042 0.902138
vt 0.709699 0.195967
vt 0.709699 0.227324
vt 0.450081 0.208385
vt 0.450081 0.227768
vt 0.436654 0.217840
vt 0.431643 0.202399
vt 0.420247 0.218082
vt 0.431642 0.233761
vt 0.578946 0.913944
vt 0.584710 0.924526
vt 0.571406 0.919479
vt 0.592932 0.913298
vt 0.571406 0.905131
vt 0.584710 0.901311
vt 0.343751 0.935965
vt 0.331415 0.941954
vt 0.331415 0.928267
vt 0.723696 0.413365
vt 0.724310 0.425043
vt 0.711529 0.420603
vt 0.724310 0.401517
vt 0.711529 0.406063
vt 0.956255 0.467352
vt 0.943838 0.461300
vt 0.956189 0.453630
vt 0.215675 0.940877
vt 0.215675 0.926342
vt 0.227843 0.933514
vt 0.343867 0.922006
vt 0.943838 0.447371
vt 0.228456 0.922006
vt 0.228456 0.945524
vt 0.093196 0.914389
vt 0.079371 0.909895
vt 0.089564 0.902620
vt 0.101740 0.902625
vt 0.093196 0.890861
vt 0.079371 0.895354
vt 0.624780 0.913944
vt 0.630544 0.924526
vt 0.617240 0.919479
vt 0.638766 0.913298
vt 0.617240 0.905131
vt 0.630544 0.901311
vt 0.949232 0.910713
vt 0.936896 0.916702
vt 0.936896 0.903015
vt 0.723696 0.459032
vt 0.724310 0.470710
vt 0.711528 0.466269
vt 0.724310 0.447183
vt 0.711528 0.451729
vt 0.091787 0.956510
vt 0.079371 0.950458
vt 0.091721 0.942788
vt 0.833738 0.921009
vt 0.833738 0.906474
vt 0.845906 0.913646
vt 0.949348 0.896754
vt 0.079371 0.936529
vt 0.846519 0.902138
vt 0.846519 0.925656
vt 0.904017 0.919193
vt 0.890192 0.914700
vt 0.900386 0.907425
vt 0.912561 0.907430
vt 0.904017 0.895666
vt 0.890192 0.900159
vt 0.712708 0.723528
vt 0.736993 0.743532
vt 0.704746 0.755471
vt 0.755927 0.753287
vt 0.762397 0.718486
vt 0.684816 0.720313
vt 0.704746 0.686645
vt 0.736993 0.700995
vt 0.607087 0.213705
vt 0.601434 0.175947
vt 0.628244 0.193753
vt 0.814788 0.766506
vt 0.795042 0.747024
vt 0.822800 0.738812
vt 0.268770 0.755138
vt 0.262640 0.785463
vt 0.240751 0.769407
vt 0.289351 0.689600
vt 0.283971 0.720393
vt 0.266032 0.690670
vt 0.264166 0.824792
vt 0.268701 0.855671
vt 0.243096 0.838646
vt 0.630399 0.234289
vt 0.843057 0.767594
vt 0.253934 0.729192
vt 0.264166 0.884748
vt 0.241279 0.899866
vt 0.243096 0.873887
vt 0.241279 0.807603
vt 0.061096 0.647760
vt 0.088052 0.668280
vt 0.059112 0.673504
vt 0.011070 0.680967
vt 0.032253 0.656189
vt 0.029708 0.693023
vt 0.238250 0.704571
vt 0.222812 0.739685
vt 0.215675 0.707648
vt 0.083727 0.767982
vt 0.053776 0.770526
vt 0.072414 0.744168
vt 0.106001 0.701538
vt 0.101354 0.738944
vt 0.085507 0.705114
vt 0.056765 0.710426
vt 0.037929 0.736696
vt 0.025057 0.755268
vt 0.011070 0.719380
vt 0.655455 0.210218
vt 0.649714 0.172752
vt 0.670518 0.178516
vt 0.626490 0.151875
vt 0.652617 0.142458
vt 0.215675 0.825819
vt 0.220605 0.855783
vt 0.215675 0.882840
vt 0.242386 0.677355
vt 0.215821 0.772989
vt 0.854108 0.738812
vt 0.868052 0.766506
vt 0.833588 0.717539
vt 0.653381 0.241717
vt 0.859128 0.793594
vt 0.827820 0.793594
vt 0.806093 0.718241
vt 0.604921 0.241535
vt 0.604103 0.142458
vt 0.730150 0.661599
vt 0.755927 0.680918
vt 0.701064 0.656504
vt 0.677972 0.680918
vt 0.289351 0.755170
vt 0.677972 0.749744
vt 0.798145 0.780881
vt 0.730150 0.772963
vt 0.606142 0.733035
vt 0.630428 0.753038
vt 0.598180 0.764978
vt 0.649362 0.762793
vt 0.655831 0.727993
vt 0.578250 0.729820
vt 0.598180 0.696152
vt 0.630428 0.710502
vt 0.482006 0.737260
vt 0.476353 0.699502
vt 0.503163 0.717308
vt 0.030816 0.841633
vt 0.011070 0.822150
vt 0.038827 0.813939
vt 0.364586 0.755138
vt 0.358457 0.785463
vt 0.336568 0.769407
vt 0.385167 0.689600
vt 0.379787 0.720393
vt 0.361848 0.690670
vt 0.339332 0.824792
vt 0.343867 0.855671
vt 0.318262 0.838646
vt 0.505318 0.757845
vt 0.059085 0.842721
vt 0.349750 0.729192
vt 0.339332 0.884748
vt 0.316445 0.899866
vt 0.318262 0.873888
vt 0.316445 0.807603
vt 0.727997 0.511598
vt 0.754954 0.532118
vt 0.726014 0.537343
vt 0.677971 0.544806
vt 0.699155 0.520027
vt 0.696609 0.556862
vt 0.334066 0.704571
vt 0.318628 0.739685
vt 0.311491 0.707648
vt 0.750628 0.631820
vt 0.720678 0.634364
vt 0.739316 0.608007
vt 0.772902 0.565376
vt 0.768256 0.602782
vt 0.752408 0.568953
vt 0.723666 0.574265
vt 0.704830 0.600534
vt 0.691958 0.619106
vt 0.677971 0.583219
vt 0.530374 0.733773
vt 0.524633 0.696307
vt 0.545437 0.702071
vt 0.501409 0.675431
vt 0.527536 0.666014
vt 0.290841 0.825819
vt 0.295771 0.855783
vt 0.290841 0.882841
vt 0.338202 0.677355
vt 0.311638 0.772989
vt 0.070135 0.813939
vt 0.084080 0.841633
vt 0.049616 0.792666
vt 0.528300 0.765272
vt 0.075155 0.868721
vt 0.043847 0.868721
vt 0.022120 0.793368
vt 0.479840 0.765091
vt 0.479022 0.666014
vt 0.623584 0.671106
vt 0.649362 0.690425
vt 0.594499 0.666011
vt 0.571406 0.690424
vt 0.385167 0.755170
vt 0.571406 0.759251
vt 0.014173 0.856008
vt 0.623584 0.782470
vt 0.962917 0.613348
vt 0.962917 0.512193
vt 0.975251 0.512150
vt 0.975251 0.613304
vt 0.476353 0.988753
vt 0.476353 0.887361
vt 0.485540 0.887538
vt 0.485540 0.988930
vt 0.497871 0.887524
vt 0.497871 0.988916
vt 0.412093 0.965175
vt 0.412093 0.864022
vt 0.421402 0.863439
vt 0.421402 0.964592
vt 0.433722 0.863500
vt 0.433722 0.964653
vt 0.153780 0.593697
vt 0.153780 0.492310
vt 0.163199 0.492501
vt 0.163199 0.593888
vt 0.553968 0.223478
vt 0.545239 0.232211
vt 0.532894 0.232213
vt 0.524164 0.223482
vt 0.524164 0.211134
vt 0.532894 0.202401
vt 0.545239 0.202399
vt 0.553968 0.211130
vt 0.175506 0.492477
vt 0.175506 0.593863
vt 0.953768 0.612753
vt 0.953768 0.511598
vt 0.520011 0.908456
vt 0.520011 0.896107
vt 0.528300 0.887369
vt 0.540022 0.887361
vt 0.548310 0.896087
vt 0.548310 0.908435
vt 0.540022 0.917173
vt 0.528300 0.917182
vt 0.965680 0.112819
vt 0.965680 0.011665
vt 0.978013 0.011621
vt 0.978013 0.112776
vt 0.956530 0.236351
vt 0.956530 0.134959
vt 0.965717 0.135136
vt 0.965717 0.236528
vt 0.978048 0.135122
vt 0.978048 0.236514
vt 0.951695 0.372298
vt 0.951695 0.271145
vt 0.961004 0.270562
vt 0.961004 0.371715
vt 0.973324 0.270623
vt 0.973324 0.371776
vt 0.352327 0.629848
vt 0.352327 0.528462
vt 0.361746 0.528653
vt 0.361746 0.630039
vt 0.502024 0.223478
vt 0.493295 0.232211
vt 0.480950 0.232213
vt 0.472221 0.223482
vt 0.472221 0.211134
vt 0.480950 0.202401
vt 0.493295 0.202399
vt 0.502024 0.211130
vt 0.374053 0.528628
vt 0.374053 0.630015
vt 0.956530 0.112225
vt 0.956530 0.011070
vt 0.677972 0.916146
vt 0.677971 0.903797
vt 0.686260 0.895059
vt 0.697982 0.895051
vt 0.706270 0.903776
vt 0.706270 0.916125
vt 0.697982 0.924863
vt 0.686260 0.924871
vt 0.615497 0.842346
vt 0.620449 0.819067
vt 0.636351 0.841966
vt 0.522044 0.846810
vt 0.517876 0.865221
vt 0.497390 0.851290
vt 0.620449 0.865148
vt 0.594720 0.856576
vt 0.594720 0.828096
vt 0.508387 0.826832
vt 0.816966 0.862927
vt 0.795042 0.854881
vt 0.815323 0.837806
vt 0.697119 0.854528
vt 0.677972 0.857065
vt 0.683521 0.833363
vt 0.743144 0.855845
vt 0.721824 0.859002
vt 0.737676 0.835335
vt 0.169418 0.917311
vt 0.146529 0.907975
vt 0.170984 0.895021
vt 0.535668 0.825647
vt 0.839807 0.852370
vt 0.710623 0.834560
vt 0.128141 0.891944
vt 0.128141 0.867281
vt 0.146722 0.880110
vt 0.191660 0.906318
vt 0.683462 0.464971
vt 0.662298 0.477968
vt 0.670081 0.454697
vt 0.858622 0.840513
vt 0.839808 0.824631
vt 0.859144 0.820389
vt 0.724088 0.814262
vt 0.699372 0.809696
vt 0.719471 0.795103
vt 0.169745 0.869904
vt 0.152596 0.854327
vt 0.180488 0.853303
vt 0.637373 0.479934
vt 0.618465 0.463711
vt 0.642991 0.463492
vt 0.626248 0.440441
vt 0.650614 0.440344
vt 0.191853 0.878453
vt 0.642991 0.417400
vt 0.618465 0.417619
vt 0.637373 0.401517
vt 0.670081 0.426211
vt 0.662298 0.403388
vt 0.683462 0.416506
vt 0.689389 0.440686
vt 0.519808 0.801980
vt 0.495061 0.806545
vt 0.500010 0.787412
vt 0.481530 0.827623
vt 0.476353 0.803260
vt 0.743144 0.810949
vt 0.677979 0.812226
vt 0.816967 0.815734
vt 0.541476 0.804529
vt 0.859144 0.865272
vt 0.834659 0.878447
vt 0.795043 0.827142
vt 0.541533 0.849373
vt 0.476353 0.848156
vt 0.571406 0.842119
vt 0.575832 0.817751
vt 0.575832 0.866203
vt 0.597135 0.879171
vt 0.701644 0.872910
vt 0.638766 0.864562
vt 0.806993 0.879998
vt 0.597135 0.804610
vt 0.638766 0.818480
s 1
usemtl mob_kelinci_mat.005
f 1/1/1 16/2/2 15/3/3
f 2/4/4 18/5/5 24/6/6
f 1/1/1 15/3/3 30/7/7
f 1/1/1 30/7/7 36/8/8
f 1/1/1 36/8/8 25/9/9
f 2/4/4 24/6/6 45/10/10
f 3/11/11 21/12/12 51/13/13
f 4/14/14 33/15/15 57/16/16
f 5/17/17 39/18/18 63/19/19
f 6/20/20 42/21/21 69/22/22
f 2/4/4 45/10/10 52/23/23
f 3/11/11 51/13/13 58/24/24
f 4/14/14 57/16/16 64/25/25
f 5/26/17 63/27/19 70/28/26
f 6/20/20 69/22/22 46/29/27
f 7/30/28 75/31/29 90/32/30
f 8/33/31 78/34/32 96/35/33
f 9/36/34 81/37/35 99/38/36
f 10/39/37 84/40/38 102/41/39
f 11/42/40 87/43/41 91/44/42
f 93/45/43 100/46/44 12/47/45
f 92/48/46 103/49/47 93/45/43
f 91/50/42 104/51/48 92/48/46
f 93/45/43 103/49/47 100/46/44
f 103/49/47 101/52/49 100/46/44
f 92/48/46 104/51/48 103/49/47
f 104/51/48 105/53/50 103/49/47
f 103/49/47 105/53/50 101/52/49
f 105/53/50 102/54/39 101/52/49
f 91/44/42 87/43/41 104/55/48
f 87/43/41 86/56/51 104/55/48
f 104/51/48 86/57/51 105/53/50
f 86/58/51 85/59/52 105/60/50
f 105/60/50 85/59/52 102/41/39
f 85/59/52 10/39/37 102/41/39
f 100/46/44 97/61/53 12/47/45
f 101/52/49 106/62/54 100/46/44
f 102/54/39 107/63/55 101/52/49
f 100/46/44 106/62/54 97/61/53
f 106/62/54 98/64/56 97/61/53
f 101/52/49 107/63/55 106/62/54
f 107/63/55 108/65/57 106/62/54
f 106/62/54 108/65/57 98/64/56
f 108/65/57 99/66/36 98/64/56
f 102/41/39 84/40/38 107/67/55
f 84/40/38 83/68/58 107/67/55
f 107/63/55 83/69/58 108/65/57
f 83/69/58 82/70/59 108/65/57
f 108/71/57 82/72/59 99/38/36
f 82/72/59 9/36/34 99/38/36
f 97/61/53 94/73/60 12/47/45
f 98/64/56 109/74/61 97/61/53
f 99/66/36 110/75/62 98/64/56
f 97/61/53 109/74/61 94/73/60
f 109/74/61 95/76/63 94/73/60
f 98/64/56 110/75/62 109/74/61
f 110/75/62 111/77/64 109/74/61
f 109/74/61 111/77/64 95/76/63
f 111/77/64 96/78/33 95/76/63
f 99/38/36 81/37/35 110/79/62
f 81/37/35 80/80/65 110/79/62
f 110/79/62 80/80/65 111/81/64
f 80/80/65 79/82/66 111/81/64
f 111/81/64 79/82/66 96/83/33
f 79/82/66 8/84/31 96/83/33
f 94/73/60 88/85/67 12/47/45
f 95/76/63 112/86/68 94/73/60
f 96/78/33 113/87/69 95/76/63
f 94/73/60 112/86/68 88/85/67
f 112/86/68 89/88/70 88/85/67
f 95/76/63 113/87/69 112/86/68
f 113/87/69 114/89/71 112/86/68
f 112/86/68 114/89/71 89/88/70
f 114/89/71 90/90/30 89/88/70
f 96/78/33 78/91/32 113/87/69
f 78/34/32 77/92/72 113/93/69
f 113/87/69 77/94/72 114/89/71
f 77/92/72 76/95/73 114/96/71
f 114/89/71 76/97/73 90/90/30
f 76/95/73 7/98/28 90/99/30
f 88/85/67 93/45/43 12/47/45
f 89/88/70 115/100/74 88/85/67
f 90/90/30 116/101/75 89/88/70
f 88/85/67 115/100/74 93/45/43
f 115/100/74 92/48/46 93/45/43
f 89/88/70 116/101/75 115/100/74
f 116/101/75 117/102/76 115/100/74
f 115/100/74 117/102/76 92/48/46
f 117/102/76 91/50/42 92/48/46
f 90/90/30 75/103/29 116/101/75
f 75/31/29 74/104/77 116/105/75
f 116/105/75 74/104/77 117/106/76
f 74/104/77 73/107/78 117/106/76
f 117/106/76 73/107/78 91/44/42
f 73/107/78 11/42/40 91/44/42
f 48/108/79 87/43/41 11/42/40
f 47/109/80 118/110/81 48/108/79
f 46/111/27 119/112/82 47/109/80
f 48/108/79 118/110/81 87/43/41
f 118/110/81 86/56/51 87/43/41
f 47/109/80 119/112/82 118/110/81
f 119/113/82 120/114/83 118/115/81
f 118/115/81 120/114/83 86/58/51
f 120/114/83 85/59/52 86/58/51
f 46/29/27 69/22/22 119/113/82
f 69/22/22 68/116/84 119/113/82
f 119/113/82 68/116/84 120/114/83
f 68/116/84 67/117/85 120/114/83
f 120/114/83 67/117/85 85/59/52
f 67/117/85 10/39/37 85/59/52
f 72/118/86 84/40/38 10/39/37
f 71/119/87 121/120/88 72/118/86
f 70/28/26 122/121/89 71/119/87
f 72/118/86 121/120/88 84/40/38
f 121/120/88 83/68/58 84/40/38
f 71/119/87 122/121/89 121/120/88
f 122/121/89 123/122/90 121/120/88
f 121/120/88 123/122/90 83/68/58
f 123/123/90 82/72/59 83/124/58
f 70/28/26 63/27/19 122/121/89
f 63/19/19 62/125/91 122/126/89
f 122/126/89 62/125/91 123/123/90
f 62/125/91 61/127/92 123/123/90
f 123/123/90 61/127/92 82/72/59
f 61/127/92 9/36/34 82/72/59
f 66/128/93 81/37/35 9/36/34
f 65/129/94 124/130/95 66/128/93
f 64/25/25 125/131/96 65/129/94
f 66/128/93 124/130/95 81/37/35
f 124/130/95 80/80/65 81/37/35
f 65/129/94 125/131/96 124/130/95
f 125/131/96 126/132/97 124/130/95
f 124/130/95 126/132/97 80/80/65
f 126/132/97 79/82/66 80/80/65
f 64/25/25 57/16/16 125/131/96
f 57/16/16 56/133/98 125/131/96
f 125/131/96 56/133/98 126/132/97
f 56/133/98 55/134/99 126/132/97
f 126/132/97 55/134/99 79/82/66
f 55/134/99 8/84/31 79/82/66
f 60/135/100 78/34/32 8/33/31
f 59/136/101 127/137/102 60/135/100
f 58/24/24 128/138/103 59/136/101
f 60/135/100 127/137/102 78/34/32
f 127/137/102 77/92/72 78/34/32
f 59/136/101 128/138/103 127/137/102
f 128/138/103 129/139/104 127/137/102
f 127/137/102 129/139/104 77/92/72
f 129/139/104 76/95/73 77/92/72
f 58/24/24 51/13/13 128/138/103
f 51/13/13 50/140/105 128/138/103
f 128/138/103 50/140/105 129/139/104
f 50/140/105 49/141/106 129/139/104
f 129/139/104 49/141/106 76/95/73
f 49/141/106 7/98/28 76/95/73
f 54/142/107 75/31/29 7/30/28
f 53/143/108 130/144/109 54/142/107
f 52/23/23 131/145/110 53/143/108
f 54/142/107 130/144/109 75/31/29
f 130/144/109 74/104/77 75/31/29
f 53/143/108 131/145/110 130/144/109
f 131/145/110 132/146/111 130/144/109
f 130/144/109 132/146/111 74/104/77
f 132/146/111 73/107/78 74/104/77
f 52/23/23 45/10/10 131/145/110
f 45/10/10 44/147/112 131/145/110
f 131/145/110 44/147/112 132/146/111
f 44/147/112 43/148/113 132/146/111
f 132/146/111 43/148/113 73/107/78
f 43/148/113 11/42/40 73/107/78
f 67/117/85 72/118/86 10/39/37
f 68/116/84 133/149/114 67/117/85
f 69/22/22 134/150/115 68/116/84
f 67/117/85 133/149/114 72/118/86
f 133/149/114 71/119/87 72/118/86
f 68/116/84 134/150/115 133/149/114
f 134/150/115 135/151/116 133/149/114
f 133/149/114 135/151/116 71/119/87
f 135/151/116 70/28/26 71/119/87
f 69/22/22 42/21/21 134/150/115
f 42/21/21 41/152/117 134/150/115
f 134/150/115 41/152/117 135/151/116
f 41/152/117 40/153/118 135/151/116
f 135/151/116 40/153/118 70/28/26
f 40/153/118 5/26/17 70/28/26
f 61/127/92 66/128/93 9/36/34
f 62/125/91 136/154/119 61/127/92
f 63/19/19 137/155/120 62/125/91
f 61/127/92 136/154/119 66/128/93
f 136/154/119 65/129/94 66/128/93
f 62/125/91 137/155/120 136/154/119
f 137/155/120 138/156/121 136/154/119
f 136/154/119 138/156/121 65/129/94
f 138/156/121 64/25/25 65/129/94
f 63/19/19 39/18/18 137/155/120
f 39/18/18 38/157/122 137/155/120
f 137/155/120 38/157/122 138/156/121
f 38/157/122 37/158/123 138/156/121
f 138/156/121 37/158/123 64/25/25
f 37/158/123 4/14/14 64/25/25
f 55/159/99 60/135/100 8/33/31
f 56/133/98 139/160/124 55/134/99
f 57/16/16 140/161/125 56/133/98
f 55/159/99 139/162/124 60/135/100
f 139/162/124 59/136/101 60/135/100
f 56/133/98 140/161/125 139/160/124
f 140/163/125 141/164/126 139/162/124
f 139/162/124 141/164/126 59/136/101
f 141/164/126 58/24/24 59/136/101
f 57/16/16 33/15/15 140/161/125
f 33/15/15 32/165/127 140/161/125
f 140/163/125 32/166/127 141/164/126
f 32/166/127 31/167/128 141/164/126
f 141/164/126 31/167/128 58/24/24
f 31/167/128 3/11/11 58/24/24
f 49/141/106 54/168/107 7/98/28
f 50/140/105 142/169/129 49/141/106
f 51/13/13 143/170/130 50/140/105
f 49/141/106 142/169/129 54/168/107
f 142/171/129 53/143/108 54/142/107
f 50/140/105 143/170/130 142/169/129
f 143/170/130 144/172/131 142/169/129
f 142/171/129 144/173/131 53/143/108
f 144/173/131 52/23/23 53/143/108
f 51/13/13 21/12/12 143/170/130
f 21/12/12 20/174/132 143/170/130
f 143/170/130 20/174/132 144/172/131
f 20/175/132 19/176/133 144/173/131
f 144/173/131 19/176/133 52/23/23
f 19/176/133 2/4/4 52/23/23
f 43/148/113 48/108/79 11/42/40
f 44/147/112 145/177/134 43/148/113
f 45/10/10 146/178/135 44/147/112
f 43/148/113 145/177/134 48/108/79
f 145/177/134 47/109/80 48/108/79
f 44/147/112 146/178/135 145/177/134
f 146/178/135 147/179/136 145/177/134
f 145/177/134 147/179/136 47/109/80
f 147/179/136 46/111/27 47/109/80
f 45/10/10 24/6/6 146/178/135
f 24/6/6 23/180/137 146/178/135
f 146/178/135 23/180/137 147/179/136
f 23/180/137 22/181/138 147/179/136
f 147/179/136 22/181/138 46/111/27
f 22/181/138 6/182/20 46/111/27
f 27/183/139 42/184/21 6/185/20
f 26/186/140 148/187/141 27/183/139
f 25/9/9 149/188/142 26/186/140
f 27/183/139 148/187/141 42/184/21
f 148/187/141 41/189/117 42/184/21
f 26/186/140 149/188/142 148/187/141
f 149/188/142 150/190/143 148/187/141
f 148/187/141 150/190/143 41/189/117
f 150/190/143 40/191/118 41/189/117
f 25/9/9 36/8/8 149/188/142
f 36/8/8 35/192/144 149/188/142
f 149/188/142 35/192/144 150/190/143
f 35/192/144 34/193/145 150/190/143
f 150/190/143 34/193/145 40/191/118
f 34/193/145 5/194/17 40/191/118
f 34/193/145 39/195/18 5/194/17
f 35/192/144 151/196/146 34/193/145
f 36/8/8 152/197/147 35/192/144
f 34/193/145 151/196/146 39/195/18
f 151/198/146 38/157/122 39/18/18
f 35/192/144 152/197/147 151/196/146
f 152/197/147 153/199/148 151/196/146
f 151/198/146 153/200/148 38/157/122
f 153/200/148 37/158/123 38/157/122
f 36/8/8 30/7/7 152/197/147
f 30/7/7 29/201/149 152/197/147
f 152/197/147 29/201/149 153/199/148
f 29/201/149 28/202/150 153/199/148
f 153/200/148 28/203/150 37/158/123
f 28/203/150 4/14/14 37/158/123
f 28/203/150 33/15/15 4/14/14
f 29/201/149 154/204/151 28/202/150
f 30/7/7 155/205/152 29/201/149
f 28/203/150 154/206/151 33/15/15
f 154/206/151 32/165/127 33/15/15
f 29/201/149 155/205/152 154/204/151
f 155/205/152 156/207/153 154/204/151
f 154/208/151 156/209/153 32/166/127
f 156/209/153 31/167/128 32/166/127
f 30/7/7 15/3/3 155/205/152
f 15/3/3 14/210/154 155/205/152
f 155/205/152 14/210/154 156/207/153
f 14/211/154 13/212/155 156/209/153
f 156/209/153 13/212/155 31/167/128
f 13/212/155 3/11/11 31/167/128
f 22/213/138 27/183/139 6/185/20
f 23/180/137 157/214/156 22/181/138
f 24/6/6 158/215/157 23/180/137
f 22/213/138 157/216/156 27/183/139
f 157/216/156 26/186/140 27/183/139
f 23/217/137 158/218/157 157/216/156
f 158/218/157 159/219/158 157/216/156
f 157/216/156 159/219/158 26/186/140
f 159/219/158 25/9/9 26/186/140
f 24/6/6 18/5/5 158/215/157
f 18/220/5 17/221/159 158/218/157
f 158/218/157 17/221/159 159/219/158
f 17/221/159 16/2/2 159/219/158
f 159/219/158 16/2/2 25/9/9
f 16/2/2 1/1/1 25/9/9
f 13/212/155 21/12/12 3/11/11
f 14/211/154 160/222/160 13/212/155
f 15/3/3 161/223/161 14/210/154
f 13/212/155 160/222/160 21/12/12
f 160/222/160 20/174/132 21/12/12
f 14/210/154 161/223/161 160/224/160
f 161/223/161 162/225/162 160/224/160
f 160/222/160 162/226/162 20/174/132
f 162/227/162 19/176/133 20/175/132
f 15/3/3 16/2/2 161/223/161
f 16/2/2 17/221/159 161/223/161
f 161/223/161 17/221/159 162/225/162
f 17/221/159 18/220/5 162/225/162
f 162/227/162 18/5/5 19/176/133
f 18/5/5 2/4/4 19/176/133
f 163/228/163 176/229/164 175/230/165
f 164/231/166 176/232/164 178/233/167
f 163/228/163 175/230/165 180/234/168
f 163/228/163 180/234/168 182/235/169
f 163/228/163 182/235/169 179/236/170
f 164/231/166 178/233/167 185/237/171
f 165/238/172 177/239/173 187/240/105
f 166/241/174 181/242/175 189/243/176
f 167/244/177 183/245/178 191/246/179
f 168/247/180 184/248/181 193/249/182
f 164/231/166 185/237/171 188/250/183
f 165/238/172 187/240/105 190/251/184
f 166/241/174 189/243/176 192/252/185
f 167/253/177 191/254/179 194/255/87
f 168/247/180 193/249/182 186/256/186
f 169/257/187 195/258/188 200/259/189
f 170/260/190 196/261/191 202/262/192
f 171/263/193 197/264/194 203/265/195
f 172/266/196 198/267/197 204/268/198
f 173/269/199 199/270/200 201/271/201
f 201/271/201 204/272/198 174/273/202
f 201/271/201 199/270/200 204/272/198
f 199/274/200 172/266/196 204/268/198
f 204/272/198 203/275/195 174/273/202
f 204/272/198 198/276/197 203/275/195
f 198/276/197 171/277/193 203/275/195
f 203/275/195 202/278/192 174/273/202
f 203/275/195 197/279/194 202/278/192
f 197/279/194 170/280/190 202/278/192
f 202/278/192 200/259/189 174/273/202
f 202/278/192 196/281/191 200/259/189
f 196/281/191 169/257/187 200/259/189
f 200/259/189 201/271/201 174/273/202
f 200/259/189 195/258/188 201/271/201
f 195/282/188 173/283/199 201/284/201
f 186/285/186 199/286/200 173/283/199
f 186/256/186 193/249/182 199/274/200
f 193/249/182 172/266/196 199/274/200
f 194/255/87 198/267/197 172/266/196
f 194/255/87 191/254/179 198/267/197
f 191/246/179 171/263/193 198/287/197
f 192/252/185 197/264/194 171/263/193
f 192/252/185 189/243/176 197/264/194
f 189/243/176 170/288/190 197/264/194
f 190/251/184 196/261/191 170/260/190
f 190/251/184 187/240/105 196/261/191
f 187/240/105 169/289/187 196/261/191
f 188/250/183 195/282/188 169/290/187
f 188/250/183 185/237/171 195/282/188
f 185/237/171 173/283/199 195/282/188
f 193/249/182 194/255/87 172/266/196
f 193/249/182 184/248/181 194/255/87
f 184/248/181 167/253/177 194/255/87
f 191/246/179 192/252/185 171/263/193
f 191/246/179 183/245/178 192/252/185
f 183/245/178 166/241/174 192/252/185
f 189/291/176 190/251/184 170/260/190
f 189/291/176 181/292/175 190/251/184
f 181/292/175 165/238/172 190/251/184
f 187/240/105 188/293/183 169/289/187
f 187/240/105 177/239/173 188/293/183
f 177/294/173 164/231/166 188/250/183
f 185/237/171 186/285/186 173/283/199
f 185/237/171 178/233/167 186/285/186
f 178/233/167 168/295/180 186/285/186
f 179/236/170 184/296/181 168/297/180
f 179/236/170 182/235/169 184/296/181
f 182/235/169 167/298/177 184/296/181
f 182/235/169 183/299/178 167/298/177
f 182/235/169 180/234/168 183/299/178
f 180/300/168 166/241/174 183/245/178
f 180/300/168 181/242/175 166/241/174
f 180/234/168 175/230/165 181/301/175
f 175/302/165 165/238/172 181/292/175
f 178/303/167 179/236/170 168/297/180
f 178/303/167 176/229/164 179/236/170
f 176/229/164 163/228/163 179/236/170
f 175/302/165 177/239/173 165/238/172
f 175/230/165 176/229/164 177/304/173
f 176/232/164 164/231/166 177/294/173
f 205/305/203 206/306/204 208/307/205 207/308/206
f 207/309/206 208/310/205 210/311/207 209/312/208
f 209/312/208 210/311/207 212/313/209 211/314/210
f 211/315/210 212/316/209 214/317/211 213/318/212
f 213/318/212 214/317/211 216/319/213 215/320/214
f 208/321/205 206/322/204 218/323/215 216/324/213 214/325/211 212/326/209 210/327/207
f 215/328/214 216/329/213 218/330/215 217/331/216
f 217/332/216 218/333/215 206/306/204 205/305/203
f 205/334/203 207/335/206 209/336/208 211/337/210 213/338/212 215/339/214 217/340/216
f 219/341/217 220/342/218 222/343/219 221/344/220
f 221/345/220 222/346/219 224/347/221 223/348/222
f 223/348/222 224/347/221 226/349/223 225/350/224
f 225/351/224 226/352/223 228/353/225 227/354/226
f 227/354/226 228/353/225 230/355/227 229/356/228
f 222/357/219 220/358/218 232/359/229 230/360/227 228/361/225 226/362/223 224/363/221
f 229/364/228 230/365/227 232/366/229 231/367/230
f 231/368/230 232/369/229 220/342/218 219/341/217
f 219/370/217 221/371/220 223/372/222 225/373/224 227/374/226 229/375/228 231/376/230
f 233/377/231 234/378/232 236/379/233 235/380/234
f 235/381/234 236/382/233 238/383/235 237/384/236
f 237/384/236 238/383/235 240/385/237 239/386/238
f 239/387/238 240/388/237 242/389/239 241/390/240
f 241/390/240 242/389/239 244/391/241 243/392/242
f 236/393/233 234/394/232 246/395/243 244/396/241 242/397/239 240/398/237 238/399/235
f 243/400/242 244/401/241 246/402/243 245/403/244
f 245/403/244 246/402/243 234/404/232 233/405/231
f 233/406/231 235/407/234 237/408/236 239/409/238 241/410/240 243/411/242 245/412/244
f 247/413/245 248/414/246 250/415/247 249/416/248
f 249/417/248 250/418/247 252/419/249 251/420/250
f 251/420/250 252/419/249 254/421/251 253/422/252
f 253/423/252 254/424/251 256/425/253 255/426/254
f 255/426/254 256/425/253 258/427/255 257/428/256
f 250/429/247 248/430/246 260/431/257 258/432/255 256/433/253 254/434/251 252/435/249
f 257/436/256 258/437/255 260/438/257 259/439/258
f 259/439/258 260/438/257 248/440/246 247/441/245
f 247/442/245 249/443/248 251/444/250 253/445/252 255/446/254 257/447/256 259/448/258
f 261/449/163 262/450/166 263/451/259
f 262/450/166 261/449/163 266/452/180
f 261/449/163 263/451/259 264/453/174
f 261/449/163 264/453/174 265/454/260
f 261/449/163 265/454/260 266/452/180
f 262/455/166 266/456/180 271/457/199
f 263/458/259 262/459/166 267/460/261
f 264/461/174 263/458/259 268/462/190
f 265/463/260 264/464/174 269/465/193
f 266/466/180 265/467/260 270/468/262
f 262/455/166 271/457/199 267/469/261
f 263/458/259 267/460/261 268/462/190
f 264/464/174 268/470/190 269/465/193
f 265/467/260 269/471/193 270/468/262
f 266/466/180 270/468/262 271/472/199
f 267/473/261 271/474/199 272/475/202
f 268/476/190 267/473/261 272/475/202
f 269/477/193 268/476/190 272/475/202
f 270/478/262 269/477/193 272/475/202
f 271/474/199 270/478/262 272/475/202
f 273/479/163 274/480/166 275/481/259
f 274/480/166 273/479/163 278/482/180
f 273/479/163 275/481/259 276/483/174
f 273/479/163 276/483/174 277/484/260
f 273/479/163 277/484/260 278/482/180
f 274/485/166 278/486/180 283/487/199
f 275/488/259 274/489/166 279/490/261
f 276/491/174 275/488/259 280/492/190
f 277/493/260 276/494/174 281/495/193
f 278/496/180 277/497/260 282/498/262
f 274/485/166 283/487/199 279/499/261
f 275/488/259 279/490/261 280/492/190
f 276/494/174 280/500/190 281/495/193
f 277/497/260 281/501/193 282/498/262
f 278/496/180 282/498/262 283/502/199
f 279/503/261 283/504/199 284/505/202
f 280/506/190 279/503/261 284/505/202
f 281/507/193 280/506/190 284/505/202
f 282/508/262 281/507/193 284/505/202
f 283/504/199 282/508/262 284/505/202
f 285/509/163 286/510/166 287/511/259
f 286/510/166 285/509/163 290/512/180
f 285/509/163 287/511/259 288/513/174
f 285/509/163 288/513/174 289/514/260
f 285/509/163 289/514/260 290/512/180
f 286/515/166 290/516/180 295/517/199
f 287/518/259 286/519/166 291/520/261
f 288/521/174 287/518/259 292/522/190
f 289/523/260 288/524/174 293/525/193
f 290/526/180 289/527/260 294/528/262
f 286/515/166 295/517/199 291/529/261
f 287/518/259 291/520/261 292/522/190
f 288/524/174 292/530/190 293/525/193
f 289/527/260 293/531/193 294/528/262
f 290/526/180 294/528/262 295/532/199
f 291/533/261 295/534/199 296/535/202
f 292/536/190 291/533/261 296/535/202
f 293/537/193 292/536/190 296/535/202
f 294/538/262 293/537/193 296/535/202
f 295/534/199 294/538/262 296/535/202
f 297/539/263 310/540/264 309/541/265
f 298/542/266 310/540/264 312/543/267
f 297/539/263 309/541/265 314/544/268
f 297/539/263 314/544/268 316/545/269
f 297/539/263 316/545/269 313/546/270
f 298/547/266 312/548/267 319/549/271
f 299/550/272 311/551/273 321/552/105
f 300/553/274 315/554/275 323/555/276
f 301/556/277 317/557/278 325/558/279
f 302/559/280 318/560/281 327/561/282
f 298/547/266 319/549/271 322/562/283
f 299/550/272 321/552/105 324/563/284
f 300/553/274 323/555/276 326/564/285
f 301/565/277 325/566/279 328/567/87
f 302/559/280 327/561/282 320/568/286
f 303/569/287 329/570/288 334/571/289
f 304/572/290 330/573/291 336/574/292
f 305/575/293 331/576/294 337/577/295
f 306/578/296 332/579/297 338/580/298
f 307/581/299 333/582/300 335/583/301
f 335/583/301 338/580/298 308/584/302
f 335/583/301 333/582/300 338/580/298
f 333/582/300 306/578/296 338/580/298
f 338/580/298 337/585/295 308/584/302
f 338/580/298 332/579/297 337/585/295
f 332/579/297 305/586/293 337/585/295
f 337/585/295 336/574/292 308/584/302
f 337/585/295 331/587/294 336/574/292
f 331/587/294 304/572/290 336/574/292
f 336/574/292 334/571/289 308/584/302
f 336/574/292 330/573/291 334/571/289
f 330/573/291 303/569/287 334/571/289
f 334/571/289 335/583/301 308/584/302
f 334/571/289 329/570/288 335/583/301
f 329/588/288 307/589/299 335/590/301
f 320/591/286 333/592/300 307/589/299
f 320/568/286 327/561/282 333/593/300
f 327/561/282 306/594/296 333/593/300
f 328/567/87 332/595/297 306/594/296
f 328/567/87 325/566/279 332/595/297
f 325/558/279 305/575/293 332/596/297
f 326/564/285 331/576/294 305/575/293
f 326/564/285 323/555/276 331/576/294
f 323/555/276 304/597/290 331/576/294
f 324/563/284 330/598/291 304/599/290
f 324/563/284 321/552/105 330/598/291
f 321/552/105 303/600/287 330/598/291
f 322/562/283 329/588/288 303/601/287
f 322/562/283 319/549/271 329/588/288
f 319/549/271 307/589/299 329/588/288
f 327/561/282 328/567/87 306/594/296
f 327/561/282 318/560/281 328/567/87
f 318/560/281 301/565/277 328/567/87
f 325/558/279 326/564/285 305/575/293
f 325/558/279 317/557/278 326/564/285
f 317/557/278 300/553/274 326/564/285
f 323/602/276 324/563/284 304/599/290
f 323/602/276 315/603/275 324/563/284
f 315/603/275 299/550/272 324/563/284
f 321/552/105 322/604/283 303/600/287
f 321/552/105 311/551/273 322/604/283
f 311/605/273 298/547/266 322/562/283
f 319/549/271 320/591/286 307/589/299
f 319/549/271 312/548/267 320/591/286
f 312/548/267 302/606/280 320/591/286
f 313/546/270 318/607/281 302/608/280
f 313/546/270 316/545/269 318/607/281
f 316/545/269 301/609/277 318/607/281
f 316/545/269 317/610/278 301/609/277
f 316/545/269 314/544/268 317/610/278
f 314/611/268 300/553/274 317/557/278
f 314/611/268 315/554/275 300/553/274
f 314/544/268 309/541/265 315/612/275
f 309/613/265 299/550/272 315/603/275
f 312/543/267 313/546/270 302/608/280
f 312/543/267 310/540/264 313/546/270
f 310/540/264 297/539/263 313/546/270
f 309/613/265 311/551/273 299/550/272
f 309/541/265 310/540/264 311/614/273
f 310/540/264 298/542/266 311/614/273
f 339/615/263 352/616/264 351/617/265
f 340/618/266 352/616/264 354/619/267
f 339/615/263 351/617/265 356/620/268
f 339/615/263 356/620/268 358/621/269
f 339/615/263 358/621/269 355/622/270
f 340/623/266 354/624/267 361/625/271
f 341/626/272 353/627/273 363/628/105
f 342/629/274 357/630/275 365/631/276
f 343/632/277 359/633/278 367/634/303
f 344/635/280 360/636/281 369/637/304
f 340/623/266 361/625/271 364/638/305
f 341/626/272 363/628/105 366/639/306
f 342/629/274 365/631/276 368/640/285
f 343/641/277 367/642/303 370/643/87
f 344/635/280 369/637/304 362/644/286
f 345/645/287 371/646/288 376/647/289
f 346/648/290 372/649/291 378/650/292
f 347/651/293 373/652/294 379/653/295
f 348/654/296 374/655/297 380/656/298
f 349/657/299 375/658/300 377/659/301
f 377/659/301 380/656/298 350/660/302
f 377/659/301 375/658/300 380/656/298
f 375/658/300 348/654/296 380/656/298
f 380/656/298 379/661/295 350/660/302
f 380/656/298 374/655/297 379/661/295
f 374/655/297 347/662/293 379/661/295
f 379/661/295 378/650/292 350/660/302
f 379/661/295 373/663/294 378/650/292
f 373/663/294 346/648/290 378/650/292
f 378/650/292 376/647/289 350/660/302
f 378/650/292 372/649/291 376/647/289
f 372/649/291 345/645/287 376/647/289
f 376/647/289 377/659/301 350/660/302
f 376/647/289 371/646/288 377/659/301
f 371/664/288 349/665/299 377/666/301
f 362/667/286 375/668/300 349/665/299
f 362/644/286 369/637/304 375/669/300
f 369/637/304 348/670/296 375/669/300
f 370/643/87 374/671/297 348/670/296
f 370/643/87 367/642/303 374/671/297
f 367/634/303 347/651/293 374/672/297
f 368/640/285 373/652/294 347/651/293
f 368/640/285 365/631/276 373/652/294
f 365/631/276 346/673/290 373/652/294
f 366/639/306 372/674/291 346/675/290
f 366/639/306 363/628/105 372/674/291
f 363/628/105 345/676/287 372/674/291
f 364/638/305 371/664/288 345/677/287
f 364/638/305 361/625/271 371/664/288
f 361/625/271 349/665/299 371/664/288
f 369/637/304 370/643/87 348/670/296
f 369/637/304 360/636/281 370/643/87
f 360/636/281 343/641/277 370/643/87
f 367/634/303 368/640/285 347/651/293
f 367/634/303 359/633/278 368/640/285
f 359/633/278 342/629/274 368/640/285
f 365/678/276 366/639/306 346/675/290
f 365/678/276 357/679/275 366/639/306
f 357/679/275 341/626/272 366/639/306
f 363/628/105 364/680/305 345/676/287
f 363/628/105 353/627/273 364/680/305
f 353/681/273 340/623/266 364/638/305
f 361/625/271 362/667/286 349/665/299
f 361/625/271 354/624/267 362/667/286
f 354/624/267 344/682/280 362/667/286
f 355/622/270 360/683/281 344/684/280
f 355/622/270 358/621/269 360/683/281
f 358/621/269 343/685/277 360/683/281
f 358/621/269 359/686/278 343/685/277
f 358/621/269 356/620/268 359/686/278
f 356/687/268 342/629/274 359/633/278
f 356/687/268 357/630/275 342/629/274
f 356/620/268 351/617/265 357/688/275
f 351/689/265 341/626/272 357/679/275
f 354/619/267 355/622/270 344/684/280
f 354/619/267 352/616/264 355/622/270
f 352/616/264 339/615/263 355/622/270
f 351/689/265 353/627/273 341/626/272
f 351/617/265 352/616/264 353/690/273
f 352/616/264 340/618/266 353/690/273
f 381/691/307 382/692/308 384/693/309 383/694/310
f 383/695/310 384/696/309 386/697/311 385/698/312
f 385/698/312 386/697/311 388/699/313 387/700/314
f 387/701/314 388/702/313 390/703/315 389/704/316
f 389/704/316 390/703/315 392/705/317 391/706/318
f 391/707/318 392/708/317 394/709/319 393/710/320
f 384/711/309 382/712/308 396/713/321 394/714/319 392/715/317 390/716/315 388/717/313 386/718/311
f 393/710/320 394/709/319 396/719/321 395/720/322
f 395/721/322 396/722/321 382/692/308 381/691/307
f 381/723/307 383/724/310 385/725/312 387/726/314 389/727/316 391/728/318 393/729/320 395/730/322
f 397/731/307 398/732/308 400/733/309 399/734/310
f 399/735/310 400/736/309 402/737/311 401/738/312
f 401/738/312 402/737/311 404/739/313 403/740/314
f 403/741/314 404/742/313 406/743/315 405/744/316
f 405/744/316 406/743/315 408/745/317 407/746/318
f 407/747/318 408/748/317 410/749/319 409/750/320
f 400/751/309 398/752/308 412/753/321 410/754/319 408/755/317 406/756/315 404/757/313 402/758/311
f 409/750/320 410/749/319 412/759/321 411/760/322
f 411/761/322 412/762/321 398/732/308 397/731/307
f 397/763/307 399/764/310 401/765/312 403/766/314 405/767/316 407/768/318 409/769/320 411/770/322
f 413/771/163 426/772/164 425/773/323
f 414/774/166 426/775/164 428/776/167
f 413/771/163 425/773/323 430/777/168
f 413/771/163 430/777/168 432/778/324
f 413/771/163 432/778/324 429/779/170
f 414/774/166 428/776/167 435/780/171
f 415/781/259 427/782/173 437/783/105
f 416/784/174 431/785/175 439/786/176
f 417/787/260 433/788/178 441/789/179
f 418/790/180 434/791/181 443/792/182
f 414/774/166 435/780/171 438/793/183
f 415/781/259 437/783/105 440/794/184
f 416/784/174 439/786/176 442/795/185
f 417/796/260 441/797/179 444/798/87
f 418/790/180 443/792/182 436/799/186
f 419/800/187 445/801/188 450/802/325
f 420/803/190 446/804/191 452/805/192
f 421/806/193 447/807/194 453/808/195
f 422/809/196 448/810/197 454/811/326
f 423/812/199 449/813/200 451/814/201
f 451/814/201 454/815/326 424/816/202
f 451/814/201 449/813/200 454/815/326
f 449/817/200 422/809/196 454/811/326
f 454/815/326 453/818/195 424/816/202
f 454/815/326 448/819/197 453/818/195
f 448/819/197 421/820/193 453/818/195
f 453/818/195 452/821/192 424/816/202
f 453/818/195 447/822/194 452/821/192
f 447/822/194 420/823/190 452/821/192
f 452/821/192 450/802/325 424/816/202
f 452/821/192 446/824/191 450/802/325
f 446/824/191 419/800/187 450/802/325
f 450/802/325 451/814/201 424/816/202
f 450/802/325 445/801/188 451/814/201
f 445/825/188 423/826/199 451/827/201
f 436/828/186 449/829/200 423/826/199
f 436/799/186 443/792/182 449/817/200
f 443/792/182 422/809/196 449/817/200
f 444/798/87 448/810/197 422/809/196
f 444/798/87 441/797/179 448/810/197
f 441/789/179 421/806/193 448/830/197
f 442/795/185 447/807/194 421/806/193
f 442/795/185 439/786/176 447/807/194
f 439/786/176 420/831/190 447/807/194
f 440/794/184 446/804/191 420/803/190
f 440/794/184 437/783/105 446/804/191
f 437/783/105 419/832/187 446/804/191
f 438/793/183 445/825/188 419/833/187
f 438/793/183 435/780/171 445/825/188
f 435/780/171 423/826/199 445/825/188
f 443/792/182 444/798/87 422/809/196
f 443/792/182 434/791/181 444/798/87
f 434/791/181 417/796/260 444/798/87
f 441/789/179 442/795/185 421/806/193
f 441/789/179 433/788/178 442/795/185
f 433/788/178 416/784/174 442/795/185
f 439/834/176 440/794/184 420/803/190
f 439/834/176 431/835/175 440/794/184
f 431/835/175 415/781/259 440/794/184
f 437/783/105 438/836/183 419/832/187
f 437/783/105 427/782/173 438/836/183
f 427/837/173 414/774/166 438/793/183
f 435/780/171 436/828/186 423/826/199
f 435/780/171 428/776/167 436/828/186
f 428/776/167 418/838/180 436/828/186
f 429/779/170 434/839/181 418/840/180
f 429/779/170 432/778/324 434/839/181
f 432/778/324 417/841/260 434/839/181
f 432/778/324 433/842/178 417/841/260
f 432/778/324 430/777/168 433/842/178
f 430/843/168 416/784/174 433/788/178
f 430/843/168 431/785/175 416/784/174
f 430/777/168 425/773/323 431/844/175
f 425/845/323 415/781/259 431/835/175
f 428/846/167 429/779/170 418/840/180
f 428/846/167 426/772/164 429/779/170
f 426/772/164 413/771/163 429/779/170
f 425/845/323 427/782/173 415/781/259
f 425/773/323 426/772/164 427/847/173
f 426/775/164 414/774/166 427/837/173
