# axis-converted-to-Y-up
# Blender 5.1.1
# www.blender.org
mtllib mob_sapi_walk1.mtl
o mob_sapi_walk1
v -4.103877 0.010973 0.039603
v -4.103877 0.958794 -0.373080
v -4.165950 0.010973 0.013892
v -4.165950 0.958794 -0.398791
v -4.191660 0.010973 -0.048180
v -4.191660 0.958794 -0.460864
v -4.165950 0.010973 -0.110253
v -4.165950 0.958794 -0.522936
v -4.103877 0.010973 -0.135964
v -4.103877 0.958794 -0.548647
v -4.041804 0.010973 -0.110253
v -4.041804 0.958794 -0.522936
v -4.016094 0.010973 -0.048180
v -4.016094 0.958794 -0.460864
v -4.041804 0.010973 0.013892
v -4.041804 0.958794 -0.398791
v -4.103877 0.000000 0.057892
v -4.103877 0.109729 -0.015262
v -4.173709 0.000000 0.028967
v -4.173709 0.109729 -0.044186
v -4.202633 0.000000 -0.040865
v -4.202633 0.109729 -0.114018
v -4.173709 0.000000 -0.110696
v -4.173709 0.109729 -0.183850
v -4.103877 0.000000 -0.139621
v -4.103877 0.109729 -0.212774
v -4.034045 0.000000 -0.110696
v -4.034045 0.109729 -0.183850
v -4.005121 0.000000 -0.040865
v -4.005121 0.109729 -0.114018
v -4.034045 0.000000 0.028967
v -4.034045 0.109729 -0.044186
v -4.103877 0.010973 0.961330
v -4.103877 0.958794 0.548646
v -4.165950 0.010973 0.935619
v -4.165950 0.958794 0.522936
v -4.191660 0.010973 0.873546
v -4.191660 0.958794 0.460863
v -4.165950 0.010973 0.811473
v -4.165950 0.958794 0.398790
v -4.103877 0.010973 0.785763
v -4.103877 0.958794 0.373079
v -4.041804 0.010973 0.811473
v -4.041804 0.958794 0.398790
v -4.016094 0.010973 0.873546
v -4.016094 0.958794 0.460863
v -4.041804 0.010973 0.935619
v -4.041804 0.958794 0.522936
v -4.103877 0.000000 0.979618
v -4.103877 0.109729 0.906465
v -4.173709 0.000000 0.950693
v -4.173709 0.109729 0.877540
v -4.202633 0.000000 0.880862
v -4.202633 0.109729 0.807709
v -4.173709 0.000000 0.811030
v -4.173709 0.109729 0.737877
v -4.103877 0.000000 0.782105
v -4.103877 0.109729 0.708952
v -4.034045 0.000000 0.811030
v -4.034045 0.109729 0.737877
v -4.005121 0.000000 0.880862
v -4.005121 0.109729 0.807709
v -4.034045 0.000000 0.950693
v -4.034045 0.109729 0.877540
v -4.674470 0.010973 0.039603
v -4.674470 0.958794 -0.373080
v -4.736541 0.010973 0.013892
v -4.736541 0.958794 -0.398791
v -4.762253 0.010973 -0.048180
v -4.762253 0.958794 -0.460864
v -4.736541 0.010973 -0.110253
v -4.736541 0.958794 -0.522936
v -4.674470 0.010973 -0.135964
v -4.674470 0.958794 -0.548647
v -4.612398 0.010973 -0.110253
v -4.612398 0.958794 -0.522936
v -4.586686 0.010973 -0.048180
v -4.586686 0.958794 -0.460864
v -4.612398 0.010973 0.013892
v -4.612398 0.958794 -0.398791
v -4.674470 0.000000 0.057892
v -4.674470 0.109729 -0.015262
v -4.744300 0.000000 0.028967
v -4.744300 0.109729 -0.044186
v -4.773226 0.000000 -0.040865
v -4.773226 0.109729 -0.114018
v -4.744300 0.000000 -0.110696
v -4.744300 0.109729 -0.183850
v -4.674470 0.000000 -0.139621
v -4.674470 0.109729 -0.212774
v -4.604639 0.000000 -0.110696
v -4.604639 0.109729 -0.183850
v -4.575714 0.000000 -0.040865
v -4.575714 0.109729 -0.114018
v -4.604639 0.000000 0.028967
v -4.604639 0.109729 -0.044186
v -4.674470 0.010973 0.961330
v -4.674470 0.958794 0.548646
v -4.736541 0.010973 0.935619
v -4.736541 0.958794 0.522936
v -4.762253 0.010973 0.873546
v -4.762253 0.958794 0.460863
v -4.736541 0.010973 0.811473
v -4.736541 0.958794 0.398790
v -4.674470 0.010973 0.785763
v -4.674470 0.958794 0.373079
v -4.612398 0.010973 0.811473
v -4.612398 0.958794 0.398790
v -4.586686 0.010973 0.873546
v -4.586686 0.958794 0.460863
v -4.612398 0.010973 0.935619
v -4.612398 0.958794 0.522936
v -4.674470 0.000000 0.979618
v -4.674470 0.109729 0.906465
v -4.744300 0.000000 0.950693
v -4.744300 0.109729 0.877540
v -4.773226 0.000000 0.880862
v -4.773226 0.109729 0.807708
v -4.744300 0.000000 0.811030
v -4.744300 0.109729 0.737877
v -4.674470 0.000000 0.782105
v -4.674470 0.109729 0.708952
v -4.604639 0.000000 0.811030
v -4.604639 0.109729 0.737877
v -4.575714 0.000000 0.880862
v -4.575714 0.109729 0.807708
v -4.604639 0.000000 0.950693
v -4.604639 0.109729 0.877540
v -4.389174 0.540966 0.059356
v -4.754418 0.821209 -0.411312
v -4.249665 0.821209 -0.665523
v -3.937707 0.821211 -0.000000
v -4.249665 0.821209 0.665522
v -4.754418 0.821209 0.411311
v -4.528682 1.287081 -0.665523
v -4.023930 1.287081 -0.411312
v -4.023930 1.287081 0.411311
v -4.528682 1.287081 0.665522
v -4.840640 1.287079 -0.000000
v -4.389174 1.575000 -0.000000
v -4.271656 0.711673 -0.560617
v -4.307174 0.612579 -0.379568
v -4.350001 0.556334 -0.137761
v -4.491730 0.556334 -0.066382
v -4.603858 0.612579 -0.230148
v -4.696846 0.711673 -0.346478
v -4.657673 0.792519 -0.533352
v -4.521858 0.780313 -0.632947
v -4.374213 0.792519 -0.676112
v -4.799403 0.792520 0.230984
v -4.818542 0.780313 -0.000000
v -4.799403 0.792520 -0.230985
v -4.491730 0.556334 0.164602
v -4.603858 0.612579 0.253375
v -4.696846 0.711673 0.346478
v -4.008871 0.711675 -0.000000
v -4.123808 0.612580 0.011612
v -4.262405 0.556334 0.049110
v -4.144886 0.792519 -0.560620
v -4.041807 0.780313 -0.391183
v -3.969697 0.792520 -0.186872
v -4.271656 0.711673 0.560617
v -4.307174 0.612579 0.402795
v -4.350001 0.556334 0.235981
v -3.969697 0.792520 0.186872
v -4.041807 0.780313 0.391183
v -4.144886 0.792519 0.560619
v -4.374213 0.792519 0.676111
v -4.521858 0.780313 0.632946
v -4.657673 0.792519 0.533351
v -4.872036 1.184957 -0.115493
v -4.869225 1.054146 -0.241763
v -4.823615 0.923332 -0.346478
v -4.823615 0.923332 0.346478
v -4.869225 1.054146 0.241762
v -4.872036 1.184957 0.115492
v -4.467519 1.184958 -0.747494
v -4.389174 1.054146 -0.782371
v -4.310828 0.923332 -0.747494
v -4.736020 0.923332 -0.533354
v -4.685861 1.054146 -0.632951
v -4.609250 1.184958 -0.676115
v -3.954732 1.184958 -0.346478
v -3.909122 1.054146 -0.241763
v -3.906312 0.923333 -0.115493
v -4.169097 0.923332 -0.676115
v -4.092486 1.054146 -0.632951
v -4.042327 1.184958 -0.533354
v -4.042327 1.184958 0.533353
v -4.092486 1.054146 0.632950
v -4.169097 0.923332 0.676114
v -3.906312 0.923333 0.115492
v -3.909122 1.054146 0.241762
v -3.954732 1.184958 0.346478
v -4.609250 1.184958 0.676114
v -4.685861 1.054146 0.632950
v -4.736020 0.923332 0.533353
v -4.310828 0.923332 0.747493
v -4.389174 1.054146 0.782370
v -4.467519 1.184958 0.747493
v -4.808650 1.315770 -0.186873
v -4.736540 1.327977 -0.391183
v -4.633461 1.315771 -0.560620
v -4.404134 1.315771 -0.676112
v -4.256489 1.327977 -0.632947
v -4.120674 1.315771 -0.533352
v -3.978944 1.315770 -0.230985
v -3.959805 1.327977 -0.000000
v -3.978944 1.315770 0.230984
v -4.120674 1.315771 0.533351
v -4.256489 1.327977 0.632946
v -4.404134 1.315771 0.676111
v -4.633461 1.315771 0.560619
v -4.736540 1.327977 0.391182
v -4.808650 1.315770 0.186871
v -4.428346 1.558306 -0.186872
v -4.471173 1.497213 -0.391182
v -4.506691 1.396618 -0.560618
v -4.769476 1.396615 -0.000000
v -4.654539 1.497212 -0.000000
v -4.515942 1.558306 -0.000000
v -4.286617 1.558306 -0.115493
v -4.174490 1.497213 -0.241762
v -4.081502 1.396618 -0.346478
v -4.286617 1.558306 0.115492
v -4.174490 1.497213 0.241761
v -4.081502 1.396618 0.346478
v -4.428346 1.558306 0.186871
v -4.471173 1.497213 0.391181
v -4.506691 1.396618 0.560617
v -4.571794 1.520014 0.205655
v -4.711305 1.431042 0.205657
v -4.614904 1.431042 0.411313
v -4.319417 1.520014 0.332757
v -4.362528 1.431043 0.538415
v -4.206551 1.431043 0.459860
v -4.163442 1.520014 -0.000000
v -4.050575 1.431042 0.127101
v -4.050575 1.431042 -0.127102
v -4.319417 1.520014 -0.332758
v -4.206551 1.431043 -0.459861
v -4.362528 1.431043 -0.538416
v -4.571794 1.520014 -0.205656
v -4.614904 1.431042 -0.411314
v -4.711305 1.431042 -0.205657
v -4.824173 1.198107 0.332759
v -4.797530 1.054146 0.459863
v -4.727774 1.198108 0.538418
v -4.319417 1.198108 0.744076
v -4.233195 1.054146 0.744078
v -4.163439 1.198108 0.665522
v -3.911063 1.198107 0.127101
v -3.884418 1.054146 -0.000000
v -3.911063 1.198107 -0.127102
v -4.163439 1.198107 -0.665522
v -4.233195 1.054146 -0.744078
v -4.319417 1.198107 -0.744077
v -4.727774 1.198107 -0.538419
v -4.797530 1.054143 -0.459864
v -4.824173 1.198106 -0.332760
v -4.545152 1.054146 0.744078
v -4.614908 0.910182 0.665521
v -4.458930 0.910182 0.744076
v -3.980817 1.054146 0.459863
v -4.050574 0.910182 0.538420
v -3.954174 0.910183 0.332760
v -3.980817 1.054146 -0.459864
v -3.954174 0.910183 -0.332761
v -4.050574 0.910182 -0.538420
v -4.545152 1.054146 -0.744078
v -4.458930 0.910182 -0.744077
v -4.614908 0.910182 -0.665522
v -4.893929 1.054146 -0.000000
v -4.867284 0.910183 -0.127102
v -4.867284 0.910183 0.127101
v -4.571796 0.677248 0.459861
v -4.458929 0.591589 0.358365
v -4.415819 0.677248 0.538416
v -4.163442 0.677248 0.411312
v -4.206552 0.591589 0.231262
v -4.067041 0.677251 0.205655
v -4.067041 0.677251 -0.205657
v -4.206552 0.591589 -0.180051
v -4.163442 0.677248 -0.411314
v -4.727772 0.677248 0.127101
v -4.727772 0.677248 -0.127102
v -4.614905 0.591589 0.025605
v -4.415819 0.677248 -0.538416
v -4.458930 0.591589 -0.307153
v -4.571796 0.677248 -0.459862
v -4.608632 1.111355 0.329188
v -4.783315 1.198324 0.214966
v -4.541910 1.198324 0.144372
v -4.392713 1.198326 0.329188
v -4.541910 1.198324 0.514004
v -4.783315 1.198324 0.443409
v -4.675353 1.339046 0.144372
v -4.433949 1.339046 0.214966
v -4.433949 1.339046 0.443409
v -4.675353 1.339046 0.514004
v -4.824551 1.339045 0.329188
v -4.608632 1.426014 0.329188
v -4.569415 1.134853 0.220557
v -4.711307 1.134853 0.262051
v -4.672090 1.185971 0.153419
v -4.813983 1.185971 0.329188
v -4.711307 1.134853 0.396324
v -4.481719 1.134853 0.329188
v -4.442500 1.185971 0.220557
v -4.569415 1.134853 0.437819
v -4.442500 1.185971 0.437819
v -4.672090 1.185971 0.504956
v -4.838223 1.268685 0.262051
v -4.838223 1.268685 0.396325
v -4.608632 1.268685 0.111924
v -4.750526 1.268685 0.153418
v -4.379042 1.268685 0.262051
v -4.466738 1.268685 0.153418
v -4.466738 1.268685 0.504957
v -4.379042 1.268685 0.396326
v -4.750526 1.268685 0.504957
v -4.608632 1.268685 0.546452
v -4.774765 1.351398 0.220557
v -4.545175 1.351398 0.153419
v -4.403281 1.351398 0.329188
v -4.545175 1.351398 0.504956
v -4.774765 1.351398 0.437819
v -4.647850 1.402518 0.220557
v -4.735545 1.402518 0.329188
v -4.505958 1.402518 0.262051
v -4.505958 1.402518 0.396324
v -4.647850 1.402518 0.437819
v -4.114850 0.963562 -0.219459
v -4.321293 1.066343 -0.354448
v -4.035997 1.066343 -0.437877
v -3.859674 1.066343 -0.219459
v -4.035997 1.066343 -0.001041
v -4.321293 1.066343 -0.084470
v -4.193703 1.232649 -0.437877
v -3.908408 1.232649 -0.354448
v -3.908408 1.232649 -0.084470
v -4.193703 1.232649 -0.001041
v -4.370027 1.232649 -0.219459
v -4.114850 1.335430 -0.219459
v -4.068503 0.991330 -0.347841
v -4.236193 0.991330 -0.298803
v -4.189846 1.051744 -0.427187
v -4.357537 1.051744 -0.219459
v -4.236193 0.991330 -0.140115
v -3.964861 0.991330 -0.219459
v -3.918512 1.051744 -0.347841
v -4.068503 0.991330 -0.091077
v -3.918512 1.051744 -0.091077
v -4.189846 1.051744 -0.011732
v -4.386184 1.149496 -0.298803
v -4.386184 1.149496 -0.140115
v -4.114850 1.149496 -0.476226
v -4.282543 1.149496 -0.427188
v -3.843517 1.149496 -0.298803
v -3.947157 1.149496 -0.427188
v -3.947157 1.149496 -0.011730
v -3.843517 1.149496 -0.140115
v -4.282543 1.149496 -0.011730
v -4.114850 1.149496 0.037308
v -4.311188 1.247249 -0.347841
v -4.039855 1.247249 -0.427187
v -3.872163 1.247249 -0.219459
v -4.039855 1.247249 -0.011732
v -4.311188 1.247249 -0.091077
v -4.161198 1.307662 -0.347841
v -4.264839 1.307662 -0.219459
v -3.993507 1.307662 -0.298803
v -3.993507 1.307662 -0.140115
v -4.161198 1.307662 -0.091077
v -4.389174 0.815767 0.680322
v -4.595616 0.987069 0.530334
v -4.310321 0.987069 0.437634
v -4.133997 0.987070 0.680322
v -4.310321 0.987069 0.923009
v -4.595616 0.987069 0.830309
v -4.468026 1.264248 0.437634
v -4.182731 1.264248 0.530334
v -4.182731 1.264248 0.830310
v -4.468026 1.264248 0.923009
v -4.644350 1.264247 0.680321
v -4.389174 1.435549 0.680322
v -4.342826 0.862049 0.537674
v -4.510516 0.862049 0.592162
v -4.464169 0.962737 0.449514
v -4.631861 0.962738 0.680321
v -4.510516 0.862049 0.768481
v -4.239184 0.862050 0.680322
v -4.192836 0.962738 0.537674
v -4.342826 0.862049 0.822969
v -4.192836 0.962738 0.822969
v -4.464169 0.962737 0.911129
v -4.660507 1.125658 0.592162
v -4.660507 1.125658 0.768481
v -4.389174 1.125658 0.395025
v -4.556866 1.125658 0.449512
v -4.117840 1.125658 0.592162
v -4.221481 1.125658 0.449512
v -4.221481 1.125658 0.911131
v -4.117840 1.125658 0.768481
v -4.556866 1.125658 0.911131
v -4.389174 1.125658 0.965618
v -4.585511 1.288579 0.537674
v -4.314178 1.288580 0.449514
v -4.146486 1.288579 0.680322
v -4.314178 1.288580 0.911130
v -4.585511 1.288579 0.822968
v -4.435521 1.389268 0.537674
v -4.539163 1.389267 0.680321
v -4.267830 1.389268 0.592162
v -4.267830 1.389268 0.768481
v -4.435521 1.389268 0.822968
v -4.389174 0.858676 0.943672
v -4.528919 0.953550 0.869832
v -4.335797 0.953550 0.824195
v -4.216439 0.953551 0.943672
v -4.335797 0.953550 1.063148
v -4.528919 0.953550 1.017512
v -4.442550 1.107065 0.824195
v -4.249428 1.107065 0.869832
v -4.249428 1.107065 1.017512
v -4.442550 1.107065 1.063148
v -4.561909 1.107064 0.943672
v -4.389174 1.201939 0.943672
v -4.357800 0.884309 0.873446
v -4.471314 0.884309 0.900271
v -4.439940 0.940074 0.830044
v -4.553453 0.940074 0.943672
v -4.471314 0.884309 0.987073
v -4.287643 0.884309 0.943672
v -4.256269 0.940074 0.873445
v -4.357800 0.884309 1.013898
v -4.256269 0.940074 1.013899
v -4.439940 0.940074 1.057300
v -4.572845 1.030307 0.900270
v -4.572845 1.030307 0.987074
v -4.389174 1.030307 0.803218
v -4.502688 1.030307 0.830043
v -4.205502 1.030307 0.900270
v -4.275659 1.030307 0.830043
v -4.275659 1.030307 1.057301
v -4.205502 1.030307 0.987074
v -4.502688 1.030307 1.057301
v -4.389174 1.030307 1.084126
v -4.522079 1.120541 0.873445
v -4.338408 1.120541 0.830044
v -4.224894 1.120541 0.943672
v -4.338408 1.120541 1.057300
v -4.522079 1.120541 1.013899
v -4.420547 1.176306 0.873446
v -4.490704 1.176306 0.943672
v -4.307034 1.176306 0.900271
v -4.307034 1.176306 0.987073
v -4.420547 1.176306 1.013898
v -4.323336 0.994551 1.042428
v -4.347156 1.014317 1.025122
v -4.314237 1.014317 1.014426
v -4.293892 1.014317 1.042428
v -4.314237 1.014317 1.070430
v -4.347156 1.014317 1.059735
v -4.332435 1.046298 1.014426
v -4.299516 1.046298 1.025122
v -4.299516 1.046298 1.059735
v -4.332435 1.046298 1.070430
v -4.352780 1.046298 1.042428
v -4.323336 1.066064 1.042428
v -4.455011 0.994551 1.042428
v -4.478831 1.014317 1.025122
v -4.445912 1.014317 1.014426
v -4.425567 1.014317 1.042428
v -4.445912 1.014317 1.070430
v -4.478831 1.014317 1.059735
v -4.464110 1.046298 1.014426
v -4.431191 1.046298 1.025122
v -4.431191 1.046298 1.059735
v -4.464110 1.046298 1.070430
v -4.484455 1.046298 1.042428
v -4.455011 1.066064 1.042428
v -4.229077 1.384409 0.597986
v -4.063854 1.422764 0.656994
v -4.208557 1.362303 0.564952
v -4.058723 1.417238 0.648736
v -4.193087 1.318093 0.570477
v -4.054855 1.406186 0.650117
v -4.198137 1.295988 0.609036
v -4.056118 1.400659 0.659757
v -4.218657 1.318093 0.642071
v -4.061247 1.406186 0.668015
v -4.234126 1.362303 0.636545
v -4.065115 1.417238 0.666634
v -4.549270 1.384409 0.597986
v -4.714493 1.422764 0.656994
v -4.544221 1.362303 0.636545
v -4.713232 1.417238 0.666634
v -4.559690 1.318093 0.642071
v -4.717100 1.406186 0.668015
v -4.580210 1.295988 0.609036
v -4.722229 1.400659 0.659757
v -4.585260 1.318093 0.570477
v -4.723492 1.406186 0.650117
v -4.569790 1.362303 0.564952
v -4.719623 1.417238 0.648736
v -4.179252 1.155102 0.702267
v -3.984612 1.191566 0.614484
v -4.192374 1.237748 0.665084
v -3.986070 1.200750 0.610353
v -4.195615 1.258160 0.581535
v -3.986431 1.203017 0.601070
v -4.186534 1.200967 0.514535
v -3.985421 1.196663 0.593624
v -4.171968 1.109236 0.514535
v -3.983803 1.186469 0.593624
v -4.162886 1.052043 0.581535
v -3.982794 1.180116 0.601070
v -4.166128 1.072455 0.665084
v -3.983154 1.182383 0.610353
v -4.599095 1.155102 0.702267
v -4.793735 1.191566 0.614484
v -4.612219 1.072455 0.665084
v -4.795193 1.182383 0.610353
v -4.615461 1.052043 0.581535
v -4.795553 1.180116 0.601069
v -4.606380 1.109236 0.514535
v -4.794545 1.186469 0.593624
v -4.591813 1.200967 0.514535
v -4.792926 1.196663 0.593624
v -4.582732 1.258160 0.581535
v -4.791916 1.203017 0.601069
v -4.585973 1.237748 0.665084
v -4.792277 1.200750 0.610353
v -4.257498 1.155455 0.811997
v -4.285288 1.178515 0.791807
v -4.246884 1.178515 0.779328
v -4.223147 1.178515 0.811997
v -4.246884 1.178515 0.844665
v -4.285288 1.178515 0.832187
v -4.268112 1.215827 0.779328
v -4.229708 1.215827 0.791807
v -4.229708 1.215827 0.832187
v -4.268112 1.215827 0.844665
v -4.291849 1.215827 0.811997
v -4.257498 1.238888 0.811997
v -4.520849 1.155455 0.811997
v -4.548639 1.178515 0.791806
v -4.510233 1.178515 0.779328
v -4.486498 1.178515 0.811997
v -4.510233 1.178515 0.844665
v -4.548639 1.178515 0.832187
v -4.531463 1.215827 0.779328
v -4.493059 1.215827 0.791806
v -4.493059 1.215827 0.832187
v -4.531463 1.215827 0.844665
v -4.555200 1.215827 0.811997
v -4.520849 1.238888 0.811997
v -4.389174 1.048014 -0.589399
v -4.389174 0.686021 -0.710886
v -4.427185 1.039161 -0.569024
v -4.417682 0.679381 -0.695604
v -4.427185 1.021454 -0.528270
v -4.417682 0.666101 -0.665040
v -4.389174 1.012601 -0.507895
v -4.389174 0.659461 -0.649758
v -4.351162 1.021454 -0.528270
v -4.360665 0.666101 -0.665040
v -4.351162 1.039161 -0.569024
v -4.360665 0.679381 -0.695604
v -4.389174 0.675913 -0.636528
v -4.389174 0.342351 -0.433766
v -4.351162 0.674326 -0.658425
v -4.360665 0.341256 -0.449458
v -4.351162 0.671156 -0.702220
v -4.360665 0.339066 -0.480844
v -4.389174 0.669569 -0.724116
v -4.389174 0.337971 -0.496538
v -4.427185 0.671156 -0.702220
v -4.417682 0.339066 -0.480844
v -4.427185 0.674326 -0.658425
v -4.417682 0.341256 -0.449458
v -4.389174 0.186540 -0.340791
v -4.436814 0.222934 -0.399665
v -4.370977 0.222934 -0.421057
v -4.330287 0.222934 -0.365053
v -4.370977 0.222934 -0.309050
v -4.436814 0.222934 -0.330442
v -4.407370 0.281821 -0.460316
v -4.341533 0.281821 -0.438924
v -4.341533 0.281821 -0.369700
v -4.407370 0.281821 -0.348309
v -4.448061 0.281821 -0.404312
v -4.389174 0.318215 -0.428575
v -4.389174 0.514631 -0.032817
v -4.492395 0.569828 -0.144608
v -4.349748 0.569828 -0.190958
v -4.261586 0.569828 -0.069615
v -4.349748 0.569828 0.051728
v -4.492395 0.569828 0.005379
v -4.428600 0.661653 -0.231073
v -4.285952 0.661653 -0.184723
v -4.285952 0.661653 -0.034736
v -4.428600 0.661653 0.011613
v -4.516761 0.661653 -0.109730
v -4.389174 0.721609 -0.109730
v -4.366000 0.529543 -0.114082
v -4.449845 0.529543 -0.086838
v -4.426672 0.561988 -0.179793
v -4.510516 0.561988 -0.064388
v -4.449845 0.529543 0.001321
v -4.314179 0.529544 -0.042760
v -4.291004 0.561988 -0.135713
v -4.366000 0.529543 0.028564
v -4.291004 0.561988 0.006936
v -4.426672 0.561988 0.051016
v -4.524841 0.614484 -0.143467
v -4.524841 0.614484 -0.055306
v -4.389174 0.614484 -0.242035
v -4.473020 0.614484 -0.214791
v -4.253508 0.614484 -0.143467
v -4.305327 0.614484 -0.214791
v -4.305327 0.614484 0.016018
v -4.253508 0.614484 -0.055306
v -4.473020 0.614484 0.016018
v -4.389174 0.614484 0.043262
v -4.487343 0.670169 -0.181054
v -4.351676 0.670169 -0.225134
v -4.267830 0.670169 -0.109730
v -4.351676 0.670169 0.005675
v -4.487343 0.670169 -0.038406
v -4.412347 0.705410 -0.181053
v -4.464168 0.705409 -0.109730
v -4.328502 0.705410 -0.153809
v -4.328502 0.705410 -0.065650
v -4.412347 0.705410 -0.038407
vn -0.000000 -0.471200 0.882000
vn -0.000000 0.776600 0.630000
vn -0.519100 0.730100 0.444300
vn -0.569400 -0.508200 0.646100
vn -0.786200 0.612900 -0.078300
vn -0.786200 -0.612900 0.078300
vn -0.569400 0.508200 -0.646100
vn -0.519100 -0.730100 -0.444300
vn -0.000000 0.471200 -0.882000
vn -0.000000 -0.776600 -0.630000
vn 0.569400 0.508200 -0.646100
vn 0.519100 -0.730100 -0.444300
vn 0.786200 0.612900 -0.078300
vn 0.786200 -0.612900 0.078300
vn 0.519100 0.730100 0.444300
vn 0.569400 -0.508200 0.646100
vn -0.000000 -0.400500 0.916300
vn -0.000000 0.833000 0.553200
vn -0.499800 0.769900 0.396700
vn -0.576800 -0.446100 0.684300
vn -0.797500 0.592700 -0.113100
vn -0.797500 -0.592700 0.113100
vn -0.576800 0.446100 -0.684300
vn -0.499800 -0.769900 -0.396700
vn -0.000000 0.400500 -0.916300
vn -0.000000 -0.833000 -0.553200
vn 0.576800 0.446100 -0.684300
vn 0.499800 -0.769900 -0.396700
vn 0.797500 0.592700 -0.113100
vn 0.797500 -0.592700 0.113100
vn 0.499800 0.769900 0.396700
vn 0.576800 -0.446100 0.684300
vn -0.797500 0.592700 -0.113200
vn -0.797500 -0.592700 0.113200
vn 0.797500 0.592700 -0.113200
vn 0.797500 -0.592700 0.113200
vn -0.001200 -1.000000 0.005500
vn -0.191700 -0.977600 -0.086400
vn 0.070100 -0.988100 -0.137200
vn -0.793700 -0.476200 -0.378500
vn -0.643300 -0.701900 -0.305900
vn -0.841100 -0.504700 -0.194400
vn 0.251300 -0.967900 0.006800
vn 0.085600 -0.979200 0.184000
vn -0.216200 -0.970000 0.111200
vn -0.918900 -0.249800 -0.305200
vn 0.363100 -0.570600 -0.736600
vn 0.025500 -0.649400 -0.760000
vn 0.216000 -0.339700 -0.915400
vn 0.900200 -0.435400 0.000000
vn 0.849700 -0.500400 -0.166100
vn 0.965900 -0.238000 -0.102200
vn 0.363100 -0.570600 0.736600
vn 0.587100 -0.585200 0.559300
vn 0.580800 -0.309700 0.752800
vn -0.793700 -0.476200 0.378500
vn -0.618300 -0.576200 0.534400
vn -0.801200 -0.277400 0.530300
vn -0.801200 -0.277400 -0.530300
vn 0.580800 -0.309700 -0.752800
vn 0.965900 -0.238000 0.102200
vn 0.216000 -0.339700 0.915400
vn -0.918900 -0.249800 0.305200
vn -0.363100 0.570600 -0.736600
vn -0.587100 0.585200 -0.559300
vn -0.278400 0.777500 -0.563900
vn 0.793700 0.476200 -0.378500
vn 0.618300 0.576200 -0.534400
vn 0.649300 0.694900 -0.309200
vn 0.793700 0.476200 0.378500
vn 0.841100 0.504700 0.194400
vn 0.649300 0.694900 0.309200
vn -0.363100 0.570600 0.736600
vn -0.025500 0.649400 0.760000
vn -0.278400 0.777500 0.563900
vn -0.900200 0.435400 0.000000
vn -0.849700 0.500400 0.166100
vn -0.756000 0.654500 0.000000
vn -0.269100 0.963100 0.000000
vn -0.082700 0.982000 0.169700
vn 0.001400 1.000000 0.000000
vn -0.537100 0.843500 0.000000
vn -0.385100 0.904300 0.184100
vn -0.655400 0.732900 0.182500
vn -0.179100 0.914000 0.364100
vn -0.497100 0.781200 0.377600
vn -0.750100 0.555800 0.358300
vn -0.587100 0.585200 0.559300
vn 0.218300 0.970200 0.105000
vn 0.152800 0.938600 0.309300
vn 0.070600 0.840400 0.537400
vn 0.447000 0.868600 0.213700
vn 0.402000 0.802800 0.440400
vn 0.335000 0.649300 0.682800
vn 0.618300 0.576200 0.534400
vn 0.218300 0.970200 -0.105000
vn 0.465800 0.884900 0.000000
vn 0.683500 0.722500 0.104000
vn 0.447000 0.868600 -0.213700
vn 0.683500 0.722500 -0.104000
vn 0.857500 0.514600 0.000000
vn 0.841100 0.504700 -0.194400
vn -0.082700 0.982000 -0.169700
vn 0.152800 0.938600 -0.309300
vn 0.402000 0.802800 -0.440400
vn -0.179100 0.914000 -0.364100
vn 0.070600 0.840400 -0.537400
vn 0.335000 0.649300 -0.682800
vn -0.025500 0.649400 -0.760000
vn -0.385100 0.904300 -0.184100
vn -0.497100 0.781200 -0.377600
vn -0.655400 0.732900 -0.182500
vn -0.750100 0.555800 -0.358300
vn -0.849700 0.500400 -0.166100
vn -0.965900 0.238000 0.102200
vn -0.978000 0.000300 0.208800
vn -0.911200 0.280400 0.301800
vn -0.901900 0.009600 0.431800
vn -0.791300 0.309000 0.527600
vn -0.738400 -0.000900 0.674300
vn -0.580800 0.309700 0.752800
vn -0.216000 0.339700 0.915400
vn -0.000000 -0.000000 1.000000
vn 0.207500 0.376200 0.903000
vn 0.437000 0.012200 0.899400
vn 0.575000 0.345500 0.741700
vn 0.738400 0.000900 0.674300
vn 0.801200 0.277400 0.530300
vn 0.918900 0.249800 0.305200
vn 0.978000 -0.000200 0.208800
vn 0.958300 0.266900 0.102600
vn 1.000000 0.008600 0.000000
vn 0.958300 0.266900 -0.102600
vn 0.978000 -0.000200 -0.208800
vn 0.918900 0.249800 -0.305200
vn 0.801200 0.277400 -0.530300
vn 0.738400 0.000900 -0.674300
vn 0.575000 0.345400 -0.741700
vn 0.437000 0.012200 -0.899400
vn 0.207500 0.376200 -0.903000
vn -0.000000 -0.000000 -1.000000
vn -0.216000 0.339700 -0.915400
vn -0.580800 0.309700 -0.752800
vn -0.738400 -0.000900 -0.674300
vn -0.791300 0.309000 -0.527600
vn -0.901900 0.009600 -0.431800
vn -0.911200 0.280400 -0.301800
vn -0.978000 0.000300 -0.208800
vn -0.965900 0.238000 -0.102200
vn -0.437000 -0.012200 0.899400
vn -0.575000 -0.345500 0.741700
vn -0.207500 -0.376200 0.903000
vn -0.335000 -0.649300 0.682800
vn 0.025500 -0.649400 0.760000
vn 0.901900 -0.009600 0.431800
vn 0.791300 -0.309000 0.527600
vn 0.911200 -0.280400 0.301800
vn 0.750100 -0.555800 0.358300
vn 0.849700 -0.500400 0.166100
vn 0.901900 -0.009600 -0.431800
vn 0.911200 -0.280400 -0.301800
vn 0.791300 -0.309000 -0.527600
vn 0.750100 -0.555800 -0.358300
vn 0.587100 -0.585200 -0.559300
vn -0.437000 -0.012200 -0.899400
vn -0.207500 -0.376200 -0.903000
vn -0.575000 -0.345500 -0.741700
vn -0.335000 -0.649300 -0.682800
vn -0.618300 -0.576200 -0.534400
vn -1.000000 -0.008600 0.000000
vn -0.958300 -0.266900 -0.102600
vn -0.958300 -0.266900 0.102600
vn -0.857500 -0.514600 0.000000
vn -0.841100 -0.504700 0.194400
vn -0.652400 -0.691400 0.310500
vn -0.457600 -0.862300 0.216700
vn -0.411700 -0.793300 0.448500
vn -0.162200 -0.928100 0.335000
vn -0.072700 -0.832000 0.550000
vn 0.190700 -0.902500 0.386100
vn 0.280300 -0.773100 0.569000
vn 0.505300 -0.773800 0.382000
vn 0.393200 -0.899200 0.191900
vn 0.658900 -0.730200 0.180500
vn 0.521100 -0.853500 -0.002000
vn 0.754000 -0.656800 -0.000800
vn 0.641100 -0.745600 -0.181800
vn 0.348700 -0.923000 -0.163000
vn 0.483000 -0.794400 -0.368200
vn 0.159300 -0.932200 -0.325100
vn 0.275700 -0.783900 -0.556300
vn -0.683000 -0.723300 0.101400
vn -0.674100 -0.731300 -0.103900
vn -0.447800 -0.894100 0.003000
vn -0.412900 -0.888900 -0.198300
vn -0.067300 -0.852300 -0.518800
vn -0.132600 -0.955400 -0.264000
vn -0.387700 -0.817600 -0.425700
vn -0.000100 -1.000000 0.000000
vn -0.317900 -0.913800 -0.252900
vn 0.120400 -0.906000 -0.405900
vn -0.650500 -0.557700 -0.515500
vn -0.764400 -0.644700 0.000000
vn 0.394900 -0.918700 0.000000
vn 0.120400 -0.906000 0.405900
vn -0.317900 -0.913800 0.252900
vn -0.943200 -0.001000 -0.332100
vn 0.239900 -0.540900 -0.806200
vn -0.223500 -0.618900 -0.753000
vn 0.822700 -0.568500 0.000000
vn 0.605100 -0.634600 -0.480800
vn 0.943200 0.001000 -0.332100
vn 0.239900 -0.540900 0.806200
vn 0.605100 -0.634600 0.480800
vn 0.555900 -0.001500 0.831300
vn -0.650500 -0.557700 0.515500
vn -0.223500 -0.618900 0.753000
vn -0.555900 0.001500 0.831300
vn -0.555900 0.001500 -0.831300
vn 0.555900 -0.001500 -0.831300
vn 0.943200 0.001000 0.332100
vn -0.943200 -0.001000 0.332100
vn -0.239900 0.540900 -0.806200
vn -0.605100 0.634600 -0.480800
vn -0.120400 0.906000 -0.405900
vn 0.650500 0.557700 -0.515500
vn 0.223500 0.618900 -0.753000
vn 0.317900 0.913800 -0.252900
vn 0.650500 0.557700 0.515500
vn 0.764400 0.644700 0.000000
vn 0.317900 0.913800 0.252900
vn -0.239900 0.540900 0.806200
vn 0.223500 0.618900 0.753000
vn -0.120400 0.906000 0.405900
vn -0.822700 0.568500 0.000000
vn -0.605100 0.634600 0.480800
vn -0.394900 0.918700 0.000000
vn 0.000100 1.000000 0.000000
vn -0.000000 -1.000000 0.000000
vn -0.446000 -0.834300 -0.324000
vn 0.170400 -0.834300 -0.524300
vn -0.732900 -0.423400 -0.532500
vn -0.865100 -0.501700 0.000000
vn 0.551300 -0.834300 0.000000
vn 0.170400 -0.834300 0.524300
vn -0.446000 -0.834300 0.324000
vn -0.951100 -0.000000 -0.309000
vn 0.279900 -0.423400 -0.861600
vn -0.267300 -0.501700 -0.822700
vn 0.905900 -0.423400 0.000000
vn 0.699800 -0.501700 -0.508500
vn 0.951100 -0.000000 -0.309000
vn 0.279900 -0.423400 0.861600
vn 0.699800 -0.501700 0.508500
vn 0.587800 -0.000000 0.809000
vn -0.732900 -0.423400 0.532500
vn -0.267300 -0.501700 0.822700
vn -0.587800 -0.000000 0.809000
vn -0.587800 -0.000000 -0.809000
vn 0.587800 -0.000000 -0.809000
vn 0.951100 -0.000000 0.309000
vn -0.951100 -0.000000 0.309000
vn -0.279900 0.423400 -0.861600
vn -0.699800 0.501700 -0.508500
vn -0.170400 0.834300 -0.524300
vn 0.732900 0.423400 -0.532500
vn 0.267300 0.501700 -0.822700
vn 0.446000 0.834300 -0.324000
vn 0.732900 0.423400 0.532500
vn 0.865100 0.501700 0.000000
vn 0.446000 0.834300 0.324000
vn -0.279900 0.423400 0.861600
vn 0.267300 0.501700 0.822700
vn -0.170400 0.834300 0.524300
vn -0.905900 0.423400 0.000000
vn -0.699800 0.501700 0.508500
vn -0.551300 0.834300 0.000000
vn -0.000000 1.000000 0.000000
vn -0.001500 -1.000000 0.000000
vn -0.387600 -0.850000 -0.356800
vn 0.143100 -0.815200 -0.561200
vn -0.653700 -0.445700 -0.611600
vn -0.828800 -0.559600 0.000000
vn 0.489000 -0.872300 0.000000
vn 0.143100 -0.815200 0.561200
vn -0.387600 -0.850000 0.356800
vn -0.925600 -0.002800 -0.378400
vn 0.222000 -0.397200 -0.890500
vn -0.212300 -0.474600 -0.854200
vn 0.877000 -0.480600 0.000000
vn 0.621300 -0.524200 -0.582500
vn 0.925600 0.002800 -0.378400
vn 0.222000 -0.397200 0.890500
vn 0.621300 -0.524200 0.582500
vn 0.490800 -0.003000 0.871300
vn -0.653700 -0.445700 0.611600
vn -0.212300 -0.474600 0.854200
vn -0.490800 0.003000 0.871300
vn -0.490800 0.003000 -0.871300
vn 0.490800 -0.003000 -0.871300
vn 0.925600 0.002800 0.378400
vn -0.925600 -0.002800 0.378400
vn -0.222000 0.397200 -0.890500
vn -0.621300 0.524200 -0.582500
vn -0.143100 0.815200 -0.561200
vn 0.653700 0.445700 -0.611600
vn 0.212300 0.474600 -0.854200
vn 0.387600 0.850000 -0.356800
vn 0.653700 0.445700 0.611600
vn 0.828800 0.559600 0.000000
vn 0.387600 0.850000 0.356800
vn -0.222000 0.397200 0.890500
vn 0.212300 0.474600 0.854200
vn -0.143100 0.815200 0.561200
vn -0.877000 0.480600 0.000000
vn -0.621300 0.524200 0.582500
vn -0.489000 0.872300 0.000000
vn 0.001500 1.000000 0.000000
vn -0.727700 -0.436900 -0.528700
vn 0.278000 -0.436900 -0.855500
vn -0.727700 -0.436900 0.528700
vn 0.899500 -0.436900 0.000000
vn 0.278000 -0.436900 0.855500
vn -0.899500 0.436900 0.000000
vn -0.278000 0.436900 -0.855500
vn 0.727700 0.436900 -0.528700
vn 0.727700 0.436900 0.528700
vn -0.278000 0.436900 0.855500
vn -0.761100 0.589000 -0.271800
vn 0.333600 0.935200 0.119100
vn 0.687600 0.579900 -0.437000
vn -0.370600 0.179900 -0.911200
vn 0.935700 -0.077300 -0.344100
vn -0.082800 -0.582400 -0.808700
vn 0.851100 -0.428000 0.304000
vn -0.168300 -0.983900 -0.060100
vn 0.506000 -0.077300 0.859000
vn -0.576300 -0.582400 0.573300
vn 0.255200 0.579900 0.773700
vn -0.864000 0.179900 0.470300
vn 0.761000 0.589000 -0.271800
vn -0.333600 0.935200 0.119200
vn -0.255200 0.579900 0.773700
vn 0.864000 0.179900 0.470300
vn -0.506000 -0.077300 0.859000
vn 0.576300 -0.582400 0.573300
vn -0.851100 -0.428000 0.304000
vn 0.168300 -0.983900 -0.060100
vn -0.935700 -0.077300 -0.344100
vn 0.082800 -0.582400 -0.808700
vn -0.687600 0.579800 -0.437000
vn 0.370600 0.179900 -0.911200
vn -0.458200 -0.077800 0.885500
vn 0.764800 0.126400 0.631700
vn 0.684500 0.601900 0.411300
vn -0.560500 0.601800 0.568900
vn 0.662600 0.733800 -0.150100
vn -0.584000 0.785100 -0.206300
vn 0.721300 0.382400 -0.577500
vn -0.516700 0.290600 -0.805300
vn 0.808600 -0.127800 -0.574300
vn -0.392100 -0.445100 -0.805100
vn 0.869000 -0.472100 -0.148400
vn -0.293700 -0.933500 -0.205800
vn 0.846200 -0.343400 0.407300
vn -0.331300 -0.753300 0.568200
vn 0.458200 -0.077800 0.885500
vn -0.764800 0.126400 0.631700
vn -0.846200 -0.343400 0.407300
vn 0.331300 -0.753300 0.568200
vn -0.869000 -0.472100 -0.148400
vn 0.293700 -0.933500 -0.205800
vn -0.808600 -0.127800 -0.574300
vn 0.392100 -0.445100 -0.805100
vn -0.721300 0.382400 -0.577500
vn 0.516700 0.290600 -0.805300
vn -0.662600 0.733800 -0.150100
vn 0.584000 0.785100 -0.206300
vn -0.684500 0.601900 0.411300
vn 0.560500 0.601800 0.568900
vn 0.277900 -0.436900 -0.855500
vn 0.277900 -0.436900 0.855500
vn -0.277900 0.436900 -0.855500
vn -0.277900 0.436900 0.855500
vn -0.000000 0.854500 -0.519400
vn -0.000000 -0.282500 -0.959300
vn -0.678700 -0.429700 -0.595600
vn -0.695000 0.704300 -0.144400
vn -0.680900 -0.721100 0.128200
vn -0.693400 0.406500 0.594900
vn -0.000000 -0.868300 0.496000
vn -0.000000 0.255600 0.966800
vn 0.680900 -0.721100 0.128200
vn 0.693400 0.406500 0.594900
vn 0.678700 -0.429700 -0.595600
vn 0.695000 0.704300 -0.144400
vn -0.000000 0.823100 0.568000
vn -0.000000 -0.369300 0.929300
vn 0.691800 -0.456300 0.559600
vn 0.690100 0.688700 0.222500
vn 0.674000 -0.707000 -0.214300
vn 0.701500 0.436200 -0.563600
vn -0.000000 -0.841900 -0.539600
vn -0.000000 0.337300 -0.941400
vn -0.674000 -0.707000 -0.214300
vn -0.701500 0.436200 -0.563600
vn -0.691800 -0.456300 0.559600
vn -0.690100 0.688700 0.222500
vn -0.001700 -0.970800 0.240100
vn -0.689200 -0.613900 -0.384900
vn 0.245000 -0.726500 -0.642100
vn -0.759800 -0.224500 0.610100
vn 0.905400 -0.413100 0.098000
vn 0.299900 -0.110100 0.947600
vn -0.905400 0.413000 -0.098000
vn -0.299900 0.110100 -0.947600
vn 0.759800 0.224500 -0.610100
vn 0.689200 0.613900 0.384900
vn -0.245000 0.726500 0.642100
vn 0.001700 0.970800 -0.240000
vn -0.000000 -0.999400 0.034300
vn -0.304000 -0.934400 -0.185800
vn 0.107800 -0.947400 -0.301200
vn -0.577700 -0.716000 -0.391900
vn -0.787300 -0.615800 0.031700
vn 0.426300 -0.903500 0.044100
vn 0.159100 -0.815200 0.556900
vn -0.390900 -0.855200 0.340500
vn -0.937400 -0.117600 -0.327800
vn 0.197300 -0.788500 -0.582500
vn -0.182800 -0.821800 -0.539600
vn 0.010800 -0.296600 -0.954900
vn 0.840200 -0.541600 0.028600
vn 0.536600 -0.761800 -0.362800
vn 0.939000 -0.125000 -0.320300
vn 0.306200 -0.127700 0.943400
vn 0.724100 -0.410400 0.554300
vn 0.583300 0.292900 0.757600
vn -0.763600 -0.300400 0.571500
vn -0.291600 -0.266800 0.918600
vn -0.571000 0.304300 0.762400
vn -0.570500 -0.254200 -0.781000
vn 0.556200 -0.253000 -0.791600
vn 0.954000 0.100300 0.282400
vn -0.007200 0.376500 0.926400
vn -0.956800 0.084900 0.278200
vn -0.272800 0.436100 -0.857600
vn -0.663600 0.563500 -0.492000
vn -0.136300 0.897500 -0.419500
vn 0.705000 0.471300 -0.530000
vn 0.257900 0.536400 -0.803600
vn 0.356800 0.897500 -0.259300
vn 0.667300 0.578500 0.469100
vn 0.796100 0.605100 -0.010000
vn 0.356800 0.897500 0.259300
vn -0.249700 0.608200 0.753500
vn 0.233500 0.665700 0.708700
vn -0.136300 0.897500 0.419500
vn -0.849900 0.526700 -0.016800
vn -0.623800 0.643700 0.443300
vn -0.441100 0.897500 0.000000
vt 0.325476 0.762697
vt 0.325476 0.570044
vt 0.339508 0.570027
vt 0.339508 0.762680
vt 0.349898 0.570270
vt 0.349898 0.762924
vt 0.179984 0.434461
vt 0.179984 0.311142
vt 0.193993 0.311942
vt 0.193993 0.435261
vt 0.623218 0.683189
vt 0.623218 0.490557
vt 0.632621 0.490867
vt 0.632621 0.683499
vt 0.646649 0.490889
vt 0.646649 0.683521
vt 0.657085 0.490609
vt 0.657085 0.683241
vt 0.581981 0.430957
vt 0.590672 0.439908
vt 0.590672 0.453743
vt 0.581981 0.464359
vt 0.569689 0.465536
vt 0.560998 0.456586
vt 0.560998 0.442750
vt 0.569689 0.432135
vt 0.825707 0.401521
vt 0.825707 0.213482
vt 0.839748 0.213384
vt 0.839748 0.401424
vt 0.849990 0.215490
vt 0.849990 0.403529
vt 0.797227 0.464841
vt 0.786040 0.465200
vt 0.778130 0.455530
vt 0.778130 0.441494
vt 0.786040 0.431316
vt 0.797227 0.430957
vt 0.805137 0.440628
vt 0.805137 0.454663
vt 0.924216 0.433277
vt 0.947151 0.433277
vt 0.947170 0.449063
vt 0.924236 0.449063
vt 0.946896 0.460752
vt 0.923962 0.460752
vt 0.888144 0.077024
vt 0.902801 0.076187
vt 0.902801 0.091973
vt 0.888144 0.092810
vt 0.803031 0.887127
vt 0.825964 0.887092
vt 0.825631 0.897671
vt 0.802699 0.897706
vt 0.825631 0.913453
vt 0.802699 0.913488
vt 0.825964 0.925193
vt 0.803031 0.925229
vt 0.861699 0.639284
vt 0.871477 0.649354
vt 0.871477 0.664919
vt 0.861699 0.676861
vt 0.847871 0.678186
vt 0.838093 0.668117
vt 0.838093 0.652552
vt 0.847871 0.640609
vt 0.876858 0.433277
vt 0.899243 0.433277
vt 0.899353 0.449072
vt 0.876967 0.449072
vt 0.896984 0.460594
vt 0.874598 0.460594
vt 0.033789 0.913471
vt 0.021203 0.913874
vt 0.012304 0.902995
vt 0.012304 0.887206
vt 0.021203 0.875755
vt 0.033789 0.875351
vt 0.042688 0.886231
vt 0.042688 0.902020
vt 0.740171 0.683227
vt 0.740171 0.490574
vt 0.754203 0.490557
vt 0.754203 0.683210
vt 0.764593 0.490800
vt 0.764593 0.683454
vt 0.699197 0.831448
vt 0.699197 0.708129
vt 0.713206 0.708929
vt 0.713206 0.832249
vt 0.669169 0.406017
vt 0.669169 0.213384
vt 0.678572 0.213695
vt 0.678572 0.406327
vt 0.692600 0.213716
vt 0.692600 0.406348
vt 0.703036 0.213437
vt 0.703036 0.406069
vt 0.690547 0.430957
vt 0.699238 0.439908
vt 0.699238 0.453743
vt 0.690547 0.464359
vt 0.678255 0.465536
vt 0.669564 0.456586
vt 0.669564 0.442750
vt 0.678255 0.432135
vt 0.789202 0.678693
vt 0.789202 0.490654
vt 0.803243 0.490557
vt 0.803243 0.678596
vt 0.813484 0.492662
vt 0.813484 0.680702
vt 0.642315 0.917519
vt 0.631128 0.917878
vt 0.623218 0.908207
vt 0.623218 0.894172
vt 0.631128 0.883994
vt 0.642315 0.883635
vt 0.650225 0.893305
vt 0.650225 0.907340
vt 0.932846 0.369766
vt 0.955781 0.369766
vt 0.955800 0.385552
vt 0.932865 0.385552
vt 0.955526 0.397242
vt 0.932591 0.397242
vt 0.674834 0.947218
vt 0.689491 0.946381
vt 0.689491 0.962166
vt 0.674834 0.963003
vt 0.740503 0.899259
vt 0.763436 0.899223
vt 0.763103 0.909802
vt 0.740171 0.909838
vt 0.763103 0.925584
vt 0.740171 0.925620
vt 0.763436 0.937325
vt 0.740503 0.937360
vt 0.898204 0.306256
vt 0.907982 0.316326
vt 0.907982 0.331891
vt 0.898204 0.343833
vt 0.884376 0.345158
vt 0.874598 0.335088
vt 0.874598 0.319523
vt 0.884376 0.307581
vt 0.570003 0.904859
vt 0.592388 0.904859
vt 0.592497 0.920655
vt 0.570112 0.920655
vt 0.590129 0.932177
vt 0.567743 0.932177
vt 0.088781 0.913470
vt 0.076195 0.913874
vt 0.067296 0.902995
vt 0.067296 0.887206
vt 0.076195 0.875755
vt 0.088781 0.875351
vt 0.097680 0.886231
vt 0.097680 0.902020
vt 0.727645 0.406055
vt 0.727645 0.213402
vt 0.741677 0.213384
vt 0.741677 0.406038
vt 0.752068 0.213628
vt 0.752068 0.406281
vt 0.091914 0.831594
vt 0.091914 0.708275
vt 0.105923 0.709075
vt 0.105923 0.832394
vt 0.681694 0.683189
vt 0.681694 0.490557
vt 0.691097 0.490867
vt 0.691097 0.683499
vt 0.705126 0.490889
vt 0.705126 0.683521
vt 0.715562 0.490609
vt 0.715562 0.683241
vt 0.744830 0.430957
vt 0.753521 0.439908
vt 0.753521 0.453743
vt 0.744830 0.464359
vt 0.732538 0.465536
vt 0.723847 0.456586
vt 0.723847 0.442750
vt 0.732538 0.432135
vt 0.455189 0.805840
vt 0.455189 0.617800
vt 0.469229 0.617703
vt 0.469229 0.805743
vt 0.479471 0.619809
vt 0.479471 0.807848
vt 0.883339 0.916953
vt 0.872152 0.917312
vt 0.864241 0.907642
vt 0.864241 0.893607
vt 0.872152 0.883428
vt 0.883339 0.883069
vt 0.891249 0.892740
vt 0.891249 0.906775
vt 0.931257 0.554067
vt 0.954192 0.554067
vt 0.954211 0.569853
vt 0.931276 0.569853
vt 0.953937 0.581542
vt 0.931002 0.581542
vt 0.802699 0.950674
vt 0.817356 0.949837
vt 0.817356 0.965623
vt 0.802699 0.966460
vt 0.675166 0.883671
vt 0.698099 0.883635
vt 0.697766 0.894214
vt 0.674834 0.894249
vt 0.697766 0.909996
vt 0.674834 0.910032
vt 0.698099 0.921737
vt 0.675166 0.921772
vt 0.900316 0.490557
vt 0.910094 0.500626
vt 0.910094 0.516191
vt 0.900316 0.528134
vt 0.886488 0.529458
vt 0.876711 0.519389
vt 0.876711 0.503824
vt 0.886488 0.491881
vt 0.408557 0.902827
vt 0.430943 0.902827
vt 0.431052 0.918622
vt 0.408666 0.918622
vt 0.428683 0.930144
vt 0.406298 0.930144
vt 0.346960 0.915634
vt 0.334375 0.916038
vt 0.325476 0.905159
vt 0.325476 0.889369
vt 0.334375 0.877919
vt 0.346960 0.877515
vt 0.355859 0.888394
vt 0.355859 0.904184
vt 0.776676 0.406055
vt 0.776676 0.213402
vt 0.790708 0.213384
vt 0.790708 0.406038
vt 0.801099 0.213628
vt 0.801099 0.406281
vt 0.838093 0.613876
vt 0.838093 0.490557
vt 0.852102 0.491357
vt 0.852102 0.614676
vt 0.132620 0.672951
vt 0.132620 0.480319
vt 0.142023 0.480629
vt 0.142023 0.673261
vt 0.156052 0.480651
vt 0.156052 0.673283
vt 0.166488 0.480371
vt 0.166488 0.673004
vt 0.636264 0.430957
vt 0.644955 0.439908
vt 0.644955 0.453743
vt 0.636264 0.464359
vt 0.623972 0.465536
vt 0.615281 0.456586
vt 0.615281 0.442750
vt 0.623972 0.432135
vt 0.406298 0.805840
vt 0.406298 0.617800
vt 0.420338 0.617703
vt 0.420338 0.805743
vt 0.430580 0.619809
vt 0.430580 0.807848
vt 0.534335 0.915295
vt 0.523148 0.915654
vt 0.515238 0.905984
vt 0.515238 0.891949
vt 0.523148 0.881770
vt 0.534335 0.881411
vt 0.542245 0.891082
vt 0.542245 0.905117
vt 0.932846 0.306256
vt 0.955780 0.306256
vt 0.955800 0.322042
vt 0.932865 0.322042
vt 0.955526 0.333731
vt 0.932591 0.333731
vt 0.919247 0.950941
vt 0.933904 0.950104
vt 0.933904 0.965890
vt 0.919247 0.966727
vt 0.461848 0.896903
vt 0.484781 0.896867
vt 0.484448 0.907446
vt 0.461516 0.907482
vt 0.484448 0.923228
vt 0.461516 0.923264
vt 0.484781 0.934969
vt 0.461848 0.935004
vt 0.898204 0.369767
vt 0.907982 0.379836
vt 0.907982 0.395401
vt 0.898204 0.407344
vt 0.884376 0.408668
vt 0.874598 0.398599
vt 0.874598 0.383034
vt 0.884376 0.371091
vt 0.921506 0.898178
vt 0.943892 0.898178
vt 0.944001 0.913974
vt 0.921615 0.913974
vt 0.941632 0.925496
vt 0.919247 0.925496
vt 0.240818 0.918105
vt 0.228233 0.918509
vt 0.219334 0.907630
vt 0.219334 0.891840
vt 0.228233 0.880390
vt 0.240818 0.879986
vt 0.249717 0.890865
vt 0.249717 0.906654
vt 0.161398 0.156776
vt 0.137171 0.141840
vt 0.155933 0.117261
vt 0.048656 0.100509
vt 0.073857 0.110241
vt 0.054246 0.139352
vt 0.179575 0.146981
vt 0.175424 0.189927
vt 0.149217 0.186749
vt 0.029231 0.116965
vt 0.028097 0.387644
vt 0.012304 0.368243
vt 0.036734 0.361997
vt 0.312745 0.186642
vt 0.315803 0.220920
vt 0.289616 0.206914
vt 0.345737 0.036562
vt 0.342522 0.065545
vt 0.322469 0.036552
vt 0.536389 0.368430
vt 0.523571 0.395131
vt 0.511610 0.368310
vt 0.033381 0.074018
vt 0.051833 0.391533
vt 0.294678 0.162976
vt 0.332396 0.012304
vt 0.531544 0.341740
vt 0.477901 0.262520
vt 0.467210 0.234805
vt 0.497366 0.239821
vt 0.138431 0.404840
vt 0.129678 0.376482
vt 0.155375 0.390540
vt 0.231634 0.455190
vt 0.235991 0.416668
vt 0.254986 0.443051
vt 0.307673 0.544167
vt 0.287394 0.534581
vt 0.319039 0.518003
vt 0.445253 0.112376
vt 0.458835 0.076320
vt 0.469864 0.113345
vt 0.365475 0.407360
vt 0.339628 0.434880
vt 0.344335 0.396151
vt 0.500474 0.117107
vt 0.522049 0.080434
vt 0.530175 0.123378
vt 0.488862 0.074913
vt 0.549302 0.091370
vt 0.360831 0.451914
vt 0.330750 0.479114
vt 0.509912 0.039687
vt 0.540513 0.050105
vt 0.349502 0.497653
vt 0.477388 0.039603
vt 0.497089 0.012304
vt 0.527245 0.017321
vt 0.437609 0.342091
vt 0.424877 0.368847
vt 0.411226 0.352680
vt 0.318277 0.409896
vt 0.308888 0.454705
vt 0.297559 0.500445
vt 0.286056 0.426815
vt 0.274062 0.472949
vt 0.264506 0.513817
vt 0.244691 0.484613
vt 0.330928 0.366936
vt 0.299314 0.379931
vt 0.264487 0.398175
vt 0.312538 0.336885
vt 0.278409 0.350896
vt 0.292938 0.314169
vt 0.246294 0.371587
vt 0.261293 0.330747
vt 0.276688 0.302191
vt 0.360097 0.365368
vt 0.345338 0.330927
vt 0.324434 0.301891
vt 0.548461 0.201901
vt 0.519664 0.205358
vt 0.539342 0.165536
vt 0.356536 0.300166
vt 0.525363 0.242777
vt 0.303114 0.286218
vt 0.115870 0.344691
vt 0.145641 0.357559
vt 0.552648 0.236226
vt 0.527627 0.270649
vt 0.501170 0.271012
vt 0.552648 0.130242
vt 0.511088 0.162055
vt 0.487990 0.202931
vt 0.477901 0.156535
vt 0.456539 0.194857
vt 0.448875 0.150487
vt 0.431030 0.090580
vt 0.419183 0.069454
vt 0.446125 0.049860
vt 0.501930 0.338993
vt 0.521884 0.312718
vt 0.489408 0.309881
vt 0.467470 0.339122
vt 0.456339 0.312963
vt 0.480156 0.368338
vt 0.448987 0.368545
vt 0.429635 0.395482
vt 0.406298 0.385677
vt 0.439648 0.424726
vt 0.411715 0.416734
vt 0.453556 0.449122
vt 0.424878 0.446250
vt 0.258324 0.545418
vt 0.230418 0.544652
vt 0.234827 0.517923
vt 0.303729 0.013598
vt 0.292991 0.045329
vt 0.271465 0.028068
vt 0.263837 0.062850
vt 0.219334 0.483917
vt 0.254573 0.104991
vt 0.229458 0.119936
vt 0.241331 0.083389
vt 0.273599 0.133545
vt 0.244775 0.149485
vt 0.266843 0.181392
vt 0.219334 0.396934
vt 0.239204 0.197840
vt 0.221026 0.164829
vt 0.233257 0.349655
vt 0.263002 0.225520
vt 0.239386 0.236804
vt 0.219334 0.207811
vt 0.129678 0.430518
vt 0.155375 0.423936
vt 0.113795 0.401190
vt 0.082623 0.396412
vt 0.099881 0.369279
vt 0.065785 0.363966
vt 0.083264 0.336774
vt 0.099481 0.317410
vt 0.051017 0.334584
vt 0.068499 0.312581
vt 0.473365 0.285272
vt 0.452376 0.262895
vt 0.425487 0.253659
vt 0.438478 0.228324
vt 0.012304 0.091191
vt 0.020993 0.049107
vt 0.412065 0.212840
vt 0.428389 0.181927
vt 0.012304 0.139009
vt 0.406298 0.165406
vt 0.424874 0.136417
vt 0.458695 0.397879
vt 0.493155 0.397751
vt 0.471858 0.427396
vt 0.505193 0.424481
vt 0.484868 0.449005
vt 0.467472 0.464363
vt 0.282609 0.086661
vt 0.314872 0.072190
vt 0.304677 0.118567
vt 0.334967 0.106021
vt 0.323994 0.149828
vt 0.262453 0.261609
vt 0.290092 0.245161
vt 0.099881 0.428747
vt 0.083264 0.455710
vt 0.065785 0.423434
vt 0.317821 0.254840
vt 0.051017 0.447699
vt 0.036734 0.416033
vt 0.039762 0.311142
vt 0.022283 0.338334
vt 0.445252 0.283864
vt 0.067874 0.012304
vt 0.047225 0.039354
vt 0.037520 0.016878
vt 0.098486 0.020705
vt 0.078728 0.040409
vt 0.060962 0.069863
vt 0.408751 0.115998
vt 0.035266 0.163092
vt 0.020993 0.187879
vt 0.048523 0.212516
vt 0.037520 0.233019
vt 0.065369 0.251695
vt 0.064670 0.185871
vt 0.078338 0.229171
vt 0.091556 0.260450
vt 0.109995 0.244971
vt 0.116591 0.277259
vt 0.130938 0.218943
vt 0.139734 0.258037
vt 0.161316 0.226000
vt 0.536389 0.416268
vt 0.168575 0.261535
vt 0.144745 0.286534
vt 0.515092 0.445913
vt 0.185797 0.225595
vt 0.188616 0.254504
vt 0.492842 0.465948
vt 0.364841 0.059216
vt 0.358583 0.026311
vt 0.381689 0.092771
vt 0.361503 0.097132
vt 0.194725 0.182234
vt 0.375872 0.136543
vt 0.351308 0.143509
vt 0.381689 0.172980
vt 0.362297 0.180985
vt 0.337050 0.185639
vt 0.342294 0.221748
vt 0.173275 0.102263
vt 0.194486 0.135695
vt 0.366857 0.214782
vt 0.343475 0.253610
vt 0.022283 0.434555
vt 0.144996 0.073482
vt 0.159084 0.057826
vt 0.130143 0.036505
vt 0.012305 0.401639
vt 0.097636 0.205116
vt 0.084379 0.155692
vt 0.119218 0.173079
vt 0.105722 0.124933
vt 0.112418 0.052169
vt 0.126609 0.096606
vt 0.091770 0.079218
vt 0.233204 0.730668
vt 0.256383 0.729638
vt 0.242232 0.753437
vt 0.278036 0.727970
vt 0.268583 0.705023
vt 0.219334 0.745117
vt 0.219334 0.716176
vt 0.242231 0.706609
vt 0.288323 0.712024
vt 0.832205 0.751277
vt 0.833844 0.775059
vt 0.818451 0.766595
vt 0.794739 0.028308
vt 0.787334 0.012304
vt 0.806410 0.013622
vt 0.794846 0.076444
vt 0.793872 0.053388
vt 0.810514 0.067307
vt 0.571490 0.748382
vt 0.554563 0.768931
vt 0.553485 0.747066
vt 0.288324 0.740966
vt 0.819032 0.736086
vt 0.810451 0.039013
vt 0.535222 0.785582
vt 0.516316 0.785811
vt 0.532167 0.768931
vt 0.572128 0.728566
vt 0.173692 0.711719
vt 0.176974 0.736163
vt 0.154749 0.720376
vt 0.719389 0.012304
vt 0.743210 0.017731
vt 0.730314 0.028779
vt 0.693458 0.048212
vt 0.703307 0.025895
vt 0.715073 0.049885
vt 0.719389 0.092425
vt 0.703307 0.072988
vt 0.730315 0.075873
vt 0.173692 0.760927
vt 0.154845 0.773615
vt 0.154750 0.749300
vt 0.754976 0.070828
vt 0.739406 0.053120
vt 0.132620 0.757828
vt 0.743211 0.093931
vt 0.754976 0.041722
vt 0.132620 0.711029
vt 0.154845 0.697892
vt 0.135881 0.734068
vt 0.177129 0.775506
vt 0.549731 0.728566
vt 0.533387 0.748382
vt 0.515238 0.763945
vt 0.684270 0.063276
vt 0.684270 0.034170
vt 0.823052 0.027541
vt 0.819032 0.709759
vt 0.805405 0.724165
vt 0.802699 0.708062
vt 0.802699 0.750659
vt 0.804417 0.776070
vt 0.190806 0.723436
vt 0.190806 0.752360
vt 0.823052 0.051988
vt 0.834784 0.725695
vt 0.817511 0.789633
vt 0.268583 0.751852
vt 0.274172 0.688995
vt 0.253960 0.688791
vt 0.231534 0.691561
vt 0.552554 0.785811
vt 0.779648 0.065174
vt 0.779585 0.036881
vt 0.231534 0.767331
vt 0.253960 0.768461
vt 0.235726 0.619518
vt 0.263119 0.618301
vt 0.246395 0.646427
vt 0.288709 0.616330
vt 0.277537 0.589210
vt 0.219334 0.636595
vt 0.219334 0.602391
vt 0.246395 0.591085
vt 0.300867 0.597484
vt 0.775041 0.759134
vt 0.776979 0.787241
vt 0.758787 0.777237
vt 0.641127 0.727043
vt 0.632375 0.708130
vt 0.654920 0.709687
vt 0.641253 0.783930
vt 0.640102 0.756683
vt 0.659770 0.773132
vt 0.750750 0.141958
vt 0.730745 0.166244
vt 0.729471 0.140403
vt 0.300867 0.631688
vt 0.759474 0.741181
vt 0.659696 0.739695
vt 0.707887 0.185922
vt 0.685544 0.186193
vt 0.704276 0.166244
vt 0.751503 0.118540
vt 0.563777 0.628572
vt 0.567656 0.657461
vt 0.541390 0.638803
vt 0.602502 0.309881
vt 0.630655 0.316295
vt 0.615414 0.329351
vt 0.571857 0.352317
vt 0.583496 0.325942
vt 0.597402 0.354295
vt 0.602502 0.404569
vt 0.583497 0.381598
vt 0.615414 0.385007
vt 0.563778 0.686727
vt 0.541504 0.701722
vt 0.541391 0.672986
vt 0.644560 0.379045
vt 0.626158 0.358117
vt 0.515238 0.683064
vt 0.630655 0.406348
vt 0.644559 0.344647
vt 0.515238 0.627756
vt 0.541503 0.612231
vt 0.519092 0.654985
vt 0.567839 0.703957
vt 0.725035 0.118540
vt 0.705719 0.141958
vt 0.684270 0.160351
vt 0.560998 0.370120
vt 0.560998 0.335722
vt 0.674588 0.726136
vt 0.759474 0.710068
vt 0.743369 0.727093
vt 0.740171 0.708062
vt 0.740171 0.758404
vt 0.742201 0.788435
vt 0.584002 0.642419
vt 0.584002 0.676602
vt 0.674588 0.755028
vt 0.778090 0.728901
vt 0.757676 0.804464
vt 0.277538 0.644553
vt 0.284142 0.570268
vt 0.260256 0.570027
vt 0.233752 0.573300
vt 0.728371 0.186193
vt 0.623292 0.770612
vt 0.623218 0.737174
vt 0.233752 0.662847
vt 0.260256 0.664182
vt 0.431698 0.571761
vt 0.449409 0.546993
vt 0.463577 0.577071
vt 0.466525 0.519905
vt 0.434479 0.513948
vt 0.436933 0.593095
vt 0.406298 0.572920
vt 0.414009 0.544428
vt 0.459891 0.493122
vt 0.065987 0.558233
vt 0.044468 0.576588
vt 0.036018 0.545517
vt 0.032101 0.629753
vt 0.012304 0.615911
vt 0.044035 0.601196
vt 0.061656 0.683666
vt 0.045161 0.659553
vt 0.081714 0.659857
vt 0.630360 0.093406
vt 0.600647 0.080513
vt 0.632123 0.062820
vt 0.490527 0.513296
vt 0.067121 0.526315
vt 0.064342 0.628168
vt 0.577257 0.060970
vt 0.577681 0.030227
vt 0.600909 0.043755
vt 0.659399 0.080140
vt 0.597251 0.537765
vt 0.572343 0.555304
vt 0.572343 0.518563
vt 0.065219 0.495674
vt 0.035567 0.508745
vt 0.043285 0.480319
vt 0.582651 0.191535
vt 0.577257 0.159792
vt 0.608027 0.173571
vt 0.638153 0.217610
vt 0.609967 0.209305
vt 0.640650 0.188898
vt 0.543073 0.568700
vt 0.515238 0.556719
vt 0.540498 0.536746
vt 0.515238 0.519977
vt 0.543073 0.506192
vt 0.659661 0.043382
vt 0.630806 0.030870
vt 0.645467 0.012304
vt 0.634851 0.156817
vt 0.607939 0.139386
vt 0.582502 0.133375
vt 0.566764 0.490557
vt 0.598609 0.509115
vt 0.531471 0.587622
vt 0.609156 0.012534
vt 0.580397 0.217610
vt 0.080588 0.601501
vt 0.094288 0.630271
vt 0.094341 0.508746
vt 0.079609 0.480319
vt 0.012304 0.528343
vt 0.598609 0.568565
vt 0.566764 0.586748
vt 0.094792 0.545518
vt 0.012914 0.559018
vt 0.484048 0.546590
vt 0.424491 0.490557
vt 0.406298 0.515541
vt 0.608470 0.108766
vt 0.577257 0.089701
vt 0.030372 0.683666
vt 0.013001 0.651977
vt 0.108011 0.559019
vt 0.080792 0.576588
vt 0.490629 0.571075
vt 0.343772 0.838596
vt 0.349425 0.821039
vt 0.360182 0.839753
vt 0.355081 0.802992
vt 0.338672 0.801699
vt 0.349428 0.852906
vt 0.332025 0.842321
vt 0.332024 0.822626
vt 0.349429 0.787533
vt 0.811367 0.160226
vt 0.806175 0.178779
vt 0.793128 0.165636
vt 0.823742 0.129335
vt 0.821124 0.143222
vt 0.809641 0.125504
vt 0.558726 0.841385
vt 0.542563 0.842861
vt 0.551073 0.825144
vt 0.059350 0.733630
vt 0.051785 0.752727
vt 0.042192 0.733875
vt 0.366832 0.798118
vt 0.802367 0.143661
vt 0.525575 0.841385
vt 0.515238 0.828136
vt 0.531587 0.825144
vt 0.039928 0.769281
vt 0.021897 0.771731
vt 0.030776 0.754831
vt 0.051785 0.716868
vt 0.260136 0.823053
vt 0.247421 0.835496
vt 0.247421 0.812027
vt 0.791831 0.130082
vt 0.781645 0.147918
vt 0.776112 0.132392
vt 0.041553 0.842519
vt 0.027390 0.850743
vt 0.028425 0.829632
vt 0.044596 0.802431
vt 0.045300 0.822346
vt 0.030214 0.806069
vt 0.232956 0.844457
vt 0.219334 0.836895
vt 0.231445 0.824608
vt 0.015199 0.796339
vt 0.015887 0.814827
vt 0.219334 0.813426
vt 0.030776 0.718972
vt 0.023608 0.737208
vt 0.012304 0.730717
vt 0.012304 0.834465
vt 0.014126 0.850743
vt 0.245184 0.793069
vt 0.232957 0.804529
vt 0.261160 0.803957
vt 0.039928 0.708275
vt 0.012304 0.752879
vt 0.054694 0.838954
vt 0.523748 0.810420
vt 0.540052 0.811243
vt 0.793414 0.118540
vt 0.776112 0.167468
vt 0.261160 0.841932
vt 0.245183 0.854513
vt 0.785452 0.183036
vt 0.366829 0.818826
vt 0.227825 0.855377
vt 0.332027 0.789120
vt 0.067305 0.725210
vt 0.067305 0.747372
vt 0.055889 0.768327
vt 0.552483 0.856802
vt 0.532998 0.856802
vt 0.516109 0.847702
vt 0.366832 0.850693
vt 0.823477 0.164926
vt 0.325476 0.805692
vt 0.374507 0.651400
vt 0.380633 0.647601
vt 0.380736 0.654127
vt 0.374507 0.644282
vt 0.863458 0.788905
vt 0.864156 0.785262
vt 0.870036 0.787686
vt 0.374507 0.581710
vt 0.374516 0.576157
vt 0.380669 0.579686
vt 0.971779 0.439465
vt 0.975638 0.435195
vt 0.975763 0.442374
vt 0.380736 0.642610
vt 0.859393 0.783047
vt 0.863458 0.778207
vt 0.870036 0.781074
vt 0.380669 0.572466
vt 0.981882 0.438550
vt 0.740854 0.973656
vt 0.740171 0.967921
vt 0.746602 0.971155
vt 0.374507 0.570027
vt 0.981680 0.433277
vt 0.981882 0.444892
vt 0.746180 0.963932
vt 0.750577 0.967202
vt 0.380625 0.756378
vt 0.374507 0.759136
vt 0.374507 0.752518
vt 0.380753 0.749304
vt 0.740171 0.961969
vt 0.374507 0.687526
vt 0.380633 0.683728
vt 0.380736 0.690253
vt 0.374507 0.680408
vt 0.977516 0.680938
vt 0.978214 0.677295
vt 0.984094 0.679719
vt 0.374507 0.618001
vt 0.374516 0.612448
vt 0.380669 0.615978
vt 0.972194 0.182411
vt 0.976053 0.178141
vt 0.976178 0.185320
vt 0.380736 0.678736
vt 0.973451 0.675080
vt 0.977516 0.670240
vt 0.984094 0.673107
vt 0.380669 0.608757
vt 0.982297 0.181496
vt 0.969293 0.909865
vt 0.968610 0.904130
vt 0.975041 0.907364
vt 0.374507 0.606318
vt 0.982095 0.176223
vt 0.982297 0.187838
vt 0.974619 0.900141
vt 0.979016 0.903411
vt 0.380625 0.721937
vt 0.374507 0.724695
vt 0.374507 0.718077
vt 0.380753 0.714862
vt 0.968610 0.898178
vt 0.091909 0.970944
vt 0.097904 0.938483
vt 0.099903 0.939116
vt 0.099903 0.973473
vt 0.952632 0.851444
vt 0.956095 0.814241
vt 0.958389 0.814241
vt 0.961809 0.851444
vt 0.939691 0.035904
vt 0.950359 0.014362
vt 0.951916 0.015842
vt 0.945916 0.041822
vt 0.954138 0.015553
vt 0.954803 0.040666
vt 0.951025 0.012593
vt 0.953247 0.012304
vt 0.954803 0.013784
vt 0.177435 0.972208
vt 0.180994 0.936201
vt 0.183288 0.936201
vt 0.186611 0.972208
vt 0.524359 0.940263
vt 0.523508 0.969314
vt 0.521228 0.969314
vt 0.515238 0.940263
vt 0.623218 0.947742
vt 0.630148 0.942486
vt 0.637079 0.946234
vt 0.637079 0.955237
vt 0.630148 0.960492
vt 0.623218 0.956745
vt 0.948348 0.745314
vt 0.951765 0.708062
vt 0.954058 0.708062
vt 0.957521 0.745314
vt 0.935169 0.150897
vt 0.935169 0.119568
vt 0.937359 0.119747
vt 0.943928 0.151614
vt 0.938984 0.118540
vt 0.950431 0.146782
vt 0.953366 0.250555
vt 0.956622 0.213384
vt 0.958910 0.213384
vt 0.962521 0.250555
vt 0.058199 0.970328
vt 0.059143 0.968923
vt 0.061419 0.968902
vt 0.062750 0.970285
vt 0.061806 0.971690
vt 0.059530 0.971711
vt 0.864241 0.968880
vt 0.864241 0.942922
vt 0.866193 0.941921
vt 0.872049 0.964875
vt 0.067301 0.938483
vt 0.058199 0.938569
vt 0.964350 0.950104
vt 0.970188 0.955007
vt 0.970188 0.964168
vt 0.964350 0.968426
vt 0.958512 0.963523
vt 0.958512 0.954362
vt 0.894638 0.814241
vt 0.894638 0.857488
vt 0.892976 0.857523
vt 0.879681 0.814551
vt 0.891261 0.858461
vt 0.864242 0.822991
vt 0.740171 0.856980
vt 0.772485 0.829072
vt 0.773264 0.830181
vt 0.747184 0.866954
vt 0.775061 0.831032
vt 0.763362 0.874615
vt 0.776524 0.830985
vt 0.776524 0.874194
vt 0.490482 0.835007
vt 0.489293 0.836248
vt 0.487331 0.836108
vt 0.486074 0.834693
vt 0.486468 0.833068
vt 0.488217 0.832457
vt 0.490003 0.833320
vt 0.461516 0.858264
vt 0.472829 0.871001
vt 0.490482 0.872258
vt 0.893479 0.050485
vt 0.888144 0.035982
vt 0.893479 0.018990
vt 0.905468 0.012304
vt 0.915082 0.020960
vt 0.915082 0.038438
vt 0.905468 0.051578
vt 0.874351 0.709686
vt 0.888244 0.752685
vt 0.886582 0.753598
vt 0.859393 0.717905
vt 0.406298 0.878218
vt 0.406298 0.833572
vt 0.408054 0.833360
vt 0.422107 0.876310
vt 0.409699 0.832457
vt 0.436907 0.868188
vt 0.934703 0.521056
vt 0.945940 0.490557
vt 0.947920 0.490557
vt 0.952527 0.521056
vt 0.294933 0.888817
vt 0.290362 0.929736
vt 0.288406 0.929736
vt 0.277329 0.888817
vt 0.288808 0.932816
vt 0.287160 0.932206
vt 0.286981 0.930835
vt 0.291376 0.930835
vt 0.290685 0.932206
vt 0.832311 0.465453
vt 0.844115 0.428138
vt 0.846079 0.428138
vt 0.849990 0.465453
vt 0.889981 0.708062
vt 0.889981 0.752505
vt 0.614124 0.269393
vt 0.600966 0.281377
vt 0.584559 0.278893
vt 0.577257 0.263813
vt 0.584559 0.247491
vt 0.600966 0.242219
vt 0.614124 0.251966
vt 0.978820 0.564322
vt 0.985966 0.559891
vt 0.986087 0.567504
vt 0.978820 0.556017
vt 0.948842 0.679451
vt 0.944812 0.677876
vt 0.948842 0.671646
vt 0.976624 0.080060
vt 0.976634 0.073582
vt 0.983813 0.077700
vt 0.277329 0.964644
vt 0.281831 0.959663
vt 0.281977 0.968038
vt 0.986087 0.554067
vt 0.941258 0.682869
vt 0.936570 0.677176
vt 0.941258 0.670240
vt 0.983813 0.069276
vt 0.289116 0.963576
vt 0.568540 0.970420
vt 0.567743 0.963729
vt 0.575246 0.967502
vt 0.976624 0.066431
vt 0.288880 0.957425
vt 0.289116 0.970976
vt 0.574754 0.959075
vt 0.579883 0.962890
vt 0.987546 0.314510
vt 0.980408 0.317728
vt 0.980408 0.310006
vt 0.987696 0.306256
vt 0.567743 0.956785
vt 0.977135 0.500812
vt 0.984282 0.496381
vt 0.984403 0.503994
vt 0.977135 0.492507
vt 0.939911 0.188704
vt 0.940726 0.184454
vt 0.947585 0.187281
vt 0.975039 0.132169
vt 0.975050 0.125691
vt 0.982229 0.129809
vt 0.461516 0.966832
vt 0.466018 0.961851
vt 0.466164 0.970226
vt 0.984403 0.490557
vt 0.935169 0.181869
vt 0.939912 0.176223
vt 0.947585 0.179567
vt 0.982229 0.121385
vt 0.473303 0.965765
vt 0.407095 0.968388
vt 0.406298 0.961697
vt 0.413801 0.965470
vt 0.975039 0.118540
vt 0.473067 0.959613
vt 0.473303 0.973164
vt 0.413308 0.957043
vt 0.418438 0.960858
vt 0.986549 0.020558
vt 0.979412 0.023776
vt 0.979412 0.016055
vt 0.986699 0.012304
vt 0.406298 0.954753
vt 0.928024 0.814241
vt 0.928024 0.872235
vt 0.921441 0.873569
vt 0.919247 0.816021
vt 0.924173 0.213441
vt 0.925494 0.255346
vt 0.918618 0.255304
vt 0.915005 0.213384
vt 0.592497 0.810420
vt 0.590207 0.880225
vt 0.583335 0.880251
vt 0.583335 0.810454
vt 0.863535 0.012553
vt 0.861698 0.086636
vt 0.855921 0.086449
vt 0.855832 0.012304
vt 0.928757 0.260373
vt 0.925144 0.265357
vt 0.918268 0.265315
vt 0.915005 0.260288
vt 0.849792 0.086636
vt 0.847661 0.012553
vt 0.294933 0.793069
vt 0.294876 0.864208
vt 0.288002 0.864208
vt 0.285768 0.793069
vt 0.370010 0.940647
vt 0.377477 0.945308
vt 0.377477 0.954482
vt 0.370010 0.958994
vt 0.362543 0.954332
vt 0.362543 0.945159
vt 0.890397 0.214517
vt 0.890174 0.281648
vt 0.884617 0.280798
vt 0.882987 0.213385
vt 0.878325 0.281648
vt 0.874598 0.214517
vt 0.923739 0.708062
vt 0.921968 0.776585
vt 0.915105 0.776585
vt 0.914590 0.708062
vt 0.911961 0.625431
vt 0.911669 0.669901
vt 0.905569 0.667521
vt 0.903828 0.622257
vt 0.906154 0.678186
vt 0.900054 0.675806
vt 0.899762 0.670473
vt 0.911961 0.675234
vt 0.896085 0.626194
vt 0.910560 0.118540
vt 0.909741 0.187435
vt 0.902881 0.187435
vt 0.901414 0.118540
vt 0.232650 0.947339
vt 0.232650 0.956486
vt 0.225992 0.961411
vt 0.219334 0.957190
vt 0.219334 0.948043
vt 0.225992 0.943118
vt 0.325476 0.958227
vt 0.337727 0.950630
vt 0.337934 0.963682
vt 0.325476 0.943990
vt 0.020435 0.959879
vt 0.021831 0.952593
vt 0.033590 0.957441
vt 0.939691 0.089796
vt 0.939708 0.078690
vt 0.952015 0.085749
vt 0.132620 0.948577
vt 0.140338 0.940039
vt 0.140588 0.954396
vt 0.337934 0.940647
vt 0.012304 0.948163
vt 0.020435 0.938483
vt 0.033590 0.944217
vt 0.952015 0.071309
vt 0.152826 0.946747
vt 0.937936 0.645631
vt 0.936570 0.634161
vt 0.949433 0.640629
vt 0.939691 0.066431
vt 0.152421 0.936202
vt 0.152826 0.959432
vt 0.948588 0.626183
vt 0.957382 0.632723
vt 0.960583 0.784072
vt 0.948348 0.789589
vt 0.948348 0.776352
vt 0.960841 0.769923
vt 0.936570 0.622257
vt 0.631489 0.834210
vt 0.645900 0.834902
vt 0.637236 0.849090
vt 0.659751 0.834889
vt 0.653848 0.819813
vt 0.623218 0.842370
vt 0.623218 0.824029
vt 0.637236 0.819414
vt 0.666708 0.825074
vt 0.868688 0.145248
vt 0.869861 0.159253
vt 0.859219 0.154454
vt 0.886837 0.564858
vt 0.882016 0.554067
vt 0.894898 0.555269
vt 0.887270 0.595596
vt 0.886313 0.581041
vt 0.897808 0.590006
vt 0.167646 0.887983
vt 0.158371 0.901155
vt 0.155720 0.887277
vt 0.666708 0.843415
vt 0.859586 0.136181
vt 0.897554 0.571939
vt 0.147384 0.911593
vt 0.135272 0.911536
vt 0.143810 0.901155
vt 0.166453 0.875203
vt 0.828463 0.821878
vt 0.830350 0.837098
vt 0.816242 0.828219
vt 0.154716 0.800115
vt 0.169467 0.802022
vt 0.161868 0.809951
vt 0.138748 0.824419
vt 0.144896 0.809752
vt 0.152482 0.824237
vt 0.154716 0.850594
vt 0.144895 0.839423
vt 0.161867 0.839622
vt 0.828463 0.853072
vt 0.816806 0.862244
vt 0.816243 0.846555
vt 0.177054 0.834845
vt 0.167623 0.824758
vt 0.802699 0.853365
vt 0.169467 0.850031
vt 0.177054 0.816507
vt 0.802699 0.823699
vt 0.816806 0.814241
vt 0.804462 0.837968
vt 0.831262 0.862483
vt 0.151891 0.875203
vt 0.142872 0.887983
vt 0.132620 0.897658
vt 0.132620 0.834324
vt 0.132620 0.815986
vt 0.906393 0.564234
vt 0.859586 0.119983
vt 0.850197 0.128737
vt 0.848351 0.118540
vt 0.848351 0.144749
vt 0.849574 0.159824
vt 0.839633 0.828607
vt 0.839633 0.846942
vt 0.906393 0.580112
vt 0.870454 0.129688
vt 0.858626 0.167821
vt 0.653848 0.849489
vt 0.658044 0.809586
vt 0.645011 0.808539
vt 0.631166 0.808940
vt 0.158833 0.911535
vt 0.876965 0.588062
vt 0.876711 0.569995
vt 0.631165 0.856956
vt 0.876805 0.143947
vt 0.645011 0.859026
s 1
usemtl mob_sapi_mat.002
f 1/1/1 2/2/2 4/3/3 3/4/4
f 3/4/4 4/3/3 6/5/5 5/6/6
f 5/7/6 6/8/5 8/9/7 7/10/8
f 7/11/8 8/12/7 10/13/9 9/14/10
f 9/14/10 10/13/9 12/15/11 11/16/12
f 11/16/12 12/15/11 14/17/13 13/18/14
f 4/19/3 2/20/2 16/21/15 14/22/13 12/23/11 10/24/9 8/25/7 6/26/5
f 13/27/14 14/28/13 16/29/15 15/30/16
f 15/30/16 16/29/15 2/31/2 1/32/1
f 1/33/1 3/34/4 5/35/6 7/36/8 9/37/10 11/38/12 13/39/14 15/40/16
f 17/41/17 18/42/18 20/43/19 19/44/20
f 19/44/20 20/43/19 22/45/21 21/46/22
f 21/47/22 22/48/21 24/49/23 23/50/24
f 23/51/24 24/52/23 26/53/25 25/54/26
f 25/54/26 26/53/25 28/55/27 27/56/28
f 27/56/28 28/55/27 30/57/29 29/58/30
f 20/59/19 18/60/18 32/61/31 30/62/29 28/63/27 26/64/25 24/65/23 22/66/21
f 29/67/30 30/68/29 32/69/31 31/70/32
f 31/70/32 32/69/31 18/71/18 17/72/17
f 17/73/17 19/74/20 21/75/22 23/76/24 25/77/26 27/78/28 29/79/30 31/80/32
f 33/81/1 34/82/2 36/83/3 35/84/4
f 35/84/4 36/83/3 38/85/5 37/86/6
f 37/87/6 38/88/5 40/89/7 39/90/8
f 39/91/8 40/92/7 42/93/9 41/94/10
f 41/94/10 42/93/9 44/95/11 43/96/12
f 43/96/12 44/95/11 46/97/13 45/98/14
f 36/99/3 34/100/2 48/101/15 46/102/13 44/103/11 42/104/9 40/105/7 38/106/5
f 45/107/14 46/108/13 48/109/15 47/110/16
f 47/110/16 48/109/15 34/111/2 33/112/1
f 33/113/1 35/114/4 37/115/6 39/116/8 41/117/10 43/118/12 45/119/14 47/120/16
f 49/121/17 50/122/18 52/123/19 51/124/20
f 51/124/20 52/123/19 54/125/21 53/126/22
f 53/127/22 54/128/21 56/129/23 55/130/24
f 55/131/24 56/132/23 58/133/25 57/134/26
f 57/134/26 58/133/25 60/135/27 59/136/28
f 59/136/28 60/135/27 62/137/29 61/138/30
f 52/139/19 50/140/18 64/141/31 62/142/29 60/143/27 58/144/25 56/145/23 54/146/21
f 61/147/30 62/148/29 64/149/31 63/150/32
f 63/150/32 64/149/31 50/151/18 49/152/17
f 49/153/17 51/154/20 53/155/22 55/156/24 57/157/26 59/158/28 61/159/30 63/160/32
f 65/161/1 66/162/2 68/163/3 67/164/4
f 67/164/4 68/163/3 70/165/5 69/166/6
f 69/167/6 70/168/5 72/169/7 71/170/8
f 71/171/8 72/172/7 74/173/9 73/174/10
f 73/174/10 74/173/9 76/175/11 75/176/12
f 75/176/12 76/175/11 78/177/13 77/178/14
f 68/179/3 66/180/2 80/181/15 78/182/13 76/183/11 74/184/9 72/185/7 70/186/5
f 77/187/14 78/188/13 80/189/15 79/190/16
f 79/190/16 80/189/15 66/191/2 65/192/1
f 65/193/1 67/194/4 69/195/6 71/196/8 73/197/10 75/198/12 77/199/14 79/200/16
f 81/201/17 82/202/18 84/203/19 83/204/20
f 83/204/20 84/203/19 86/205/33 85/206/34
f 85/207/34 86/208/33 88/209/23 87/210/24
f 87/211/24 88/212/23 90/213/25 89/214/26
f 89/214/26 90/213/25 92/215/27 91/216/28
f 91/216/28 92/215/27 94/217/35 93/218/36
f 84/219/19 82/220/18 96/221/31 94/222/35 92/223/27 90/224/25 88/225/23 86/226/33
f 93/227/36 94/228/35 96/229/31 95/230/32
f 95/230/32 96/229/31 82/231/18 81/232/17
f 81/233/17 83/234/20 85/235/34 87/236/24 89/237/26 91/238/28 93/239/36 95/240/32
f 97/241/1 98/242/2 100/243/3 99/244/4
f 99/244/4 100/243/3 102/245/5 101/246/6
f 101/247/6 102/248/5 104/249/7 103/250/8
f 103/251/8 104/252/7 106/253/9 105/254/10
f 105/254/10 106/253/9 108/255/11 107/256/12
f 107/256/12 108/255/11 110/257/13 109/258/14
f 100/259/3 98/260/2 112/261/15 110/262/13 108/263/11 106/264/9 104/265/7 102/266/5
f 109/267/14 110/268/13 112/269/15 111/270/16
f 111/270/16 112/269/15 98/271/2 97/272/1
f 97/273/1 99/274/4 101/275/6 103/276/8 105/277/10 107/278/12 109/279/14 111/280/16
f 113/281/17 114/282/18 116/283/19 115/284/20
f 115/284/20 116/283/19 118/285/33 117/286/34
f 117/287/34 118/288/33 120/289/23 119/290/24
f 119/291/24 120/292/23 122/293/25 121/294/26
f 121/294/26 122/293/25 124/295/27 123/296/28
f 123/296/28 124/295/27 126/297/35 125/298/36
f 116/299/19 114/300/18 128/301/31 126/302/35 124/303/27 122/304/25 120/305/23 118/306/33
f 125/307/36 126/308/35 128/309/31 127/310/32
f 127/310/32 128/309/31 114/311/18 113/312/17
f 113/313/17 115/314/20 117/315/34 119/316/24 121/317/26 123/318/28 125/319/36 127/320/32
f 129/321/37 144/322/38 143/323/39
f 130/324/40 146/325/41 152/326/42
f 129/321/37 143/323/39 158/327/43
f 129/321/37 158/327/43 164/328/44
f 129/321/37 164/328/44 153/329/45
f 130/324/40 152/326/42 173/330/46
f 131/331/47 149/332/48 179/333/49
f 132/334/50 161/335/51 185/336/52
f 133/337/53 167/338/54 191/339/55
f 134/340/56 170/341/57 197/342/58
f 130/324/40 173/330/46 180/343/59
f 131/331/47 179/333/49 186/344/60
f 132/334/50 185/336/52 192/345/61
f 133/337/53 191/339/55 198/346/62
f 134/340/56 197/342/58 174/347/63
f 135/348/64 203/349/65 218/350/66
f 136/351/67 206/352/68 224/353/69
f 137/354/70 209/355/71 227/356/72
f 138/357/73 212/358/74 230/359/75
f 139/360/76 215/361/77 219/362/78
f 221/363/79 228/364/80 140/365/81
f 220/366/82 231/367/83 221/368/79
f 219/362/78 232/369/84 220/366/82
f 221/368/79 231/367/83 228/370/80
f 231/371/83 229/372/85 228/364/80
f 220/366/82 232/369/84 231/367/83
f 232/369/84 233/373/86 231/367/83
f 231/367/83 233/373/86 229/374/85
f 233/375/86 230/359/75 229/372/85
f 219/362/78 215/361/77 232/369/84
f 215/361/77 214/376/87 232/369/84
f 232/369/84 214/376/87 233/373/86
f 214/376/87 213/377/88 233/373/86
f 233/373/86 213/377/88 230/378/75
f 213/379/88 138/380/73 230/381/75
f 228/364/80 225/382/89 140/365/81
f 229/372/85 234/383/90 228/364/80
f 230/359/75 235/384/91 229/372/85
f 228/364/80 234/383/90 225/382/89
f 234/383/90 226/385/92 225/382/89
f 229/372/85 235/384/91 234/383/90
f 235/384/91 236/386/93 234/383/90
f 234/383/90 236/386/93 226/385/92
f 236/386/93 227/356/72 226/385/92
f 230/359/75 212/358/74 235/384/91
f 212/358/74 211/387/94 235/384/91
f 235/384/91 211/387/94 236/386/93
f 211/387/94 210/388/95 236/386/93
f 236/386/93 210/388/95 227/356/72
f 210/388/95 137/354/70 227/356/72
f 225/382/89 222/389/96 140/365/81
f 226/385/92 237/390/97 225/382/89
f 227/356/72 238/391/98 226/385/92
f 225/382/89 237/390/97 222/389/96
f 237/390/97 223/392/99 222/389/96
f 226/385/92 238/391/98 237/390/97
f 238/391/98 239/393/100 237/390/97
f 237/390/97 239/393/100 223/392/99
f 239/393/100 224/394/69 223/392/99
f 227/356/72 209/355/71 238/391/98
f 209/355/71 208/395/101 238/391/98
f 238/391/98 208/395/101 239/393/100
f 208/395/101 207/396/102 239/393/100
f 239/393/100 207/396/102 224/394/69
f 207/396/102 136/397/67 224/394/69
f 222/389/96 216/398/103 140/365/81
f 223/392/99 240/399/104 222/389/96
f 224/394/69 241/400/105 223/392/99
f 222/389/96 240/399/104 216/398/103
f 240/401/104 217/402/106 216/403/103
f 223/392/99 241/400/105 240/399/104
f 241/400/105 242/404/107 240/399/104
f 240/401/104 242/405/107 217/402/106
f 242/405/107 218/350/66 217/402/106
f 224/394/69 206/406/68 241/400/105
f 206/352/68 205/407/108 241/408/105
f 241/409/105 205/410/108 242/405/107
f 205/410/108 204/411/109 242/405/107
f 242/405/107 204/411/109 218/350/66
f 204/411/109 135/348/64 218/350/66
f 216/403/103 221/368/79 140/412/81
f 217/402/106 243/413/110 216/403/103
f 218/350/66 244/414/111 217/402/106
f 216/403/103 243/413/110 221/368/79
f 243/413/110 220/366/82 221/368/79
f 217/402/106 244/414/111 243/413/110
f 244/414/111 245/415/112 243/413/110
f 243/413/110 245/415/112 220/366/82
f 245/415/112 219/362/78 220/366/82
f 218/350/66 203/349/65 244/414/111
f 203/349/65 202/416/113 244/414/111
f 244/414/111 202/416/113 245/415/112
f 202/416/113 201/417/114 245/415/112
f 245/415/112 201/417/114 219/362/78
f 201/417/114 139/360/76 219/362/78
f 176/418/115 215/361/77 139/360/76
f 175/419/116 246/420/117 176/418/115
f 174/347/63 247/421/118 175/422/116
f 176/418/115 246/420/117 215/361/77
f 246/420/117 214/376/87 215/361/77
f 175/422/116 247/421/118 246/423/117
f 247/421/118 248/424/119 246/423/117
f 246/423/117 248/424/119 214/425/87
f 248/424/119 213/379/88 214/425/87
f 174/347/63 197/342/58 247/421/118
f 197/342/58 196/426/120 247/421/118
f 247/421/118 196/426/120 248/424/119
f 196/426/120 195/427/121 248/424/119
f 248/424/119 195/427/121 213/379/88
f 195/427/121 138/380/73 213/379/88
f 200/428/122 212/429/74 138/380/73
f 199/430/123 249/431/124 200/428/122
f 198/432/62 250/433/125 199/430/123
f 200/428/122 249/431/124 212/429/74
f 249/434/124 211/387/94 212/358/74
f 199/430/123 250/433/125 249/431/124
f 250/435/125 251/436/126 249/434/124
f 249/434/124 251/436/126 211/387/94
f 251/436/126 210/388/95 211/387/94
f 198/346/62 191/339/55 250/437/125
f 191/339/55 190/438/127 250/437/125
f 250/437/125 190/438/127 251/439/126
f 190/438/127 189/440/128 251/439/126
f 251/436/126 189/441/128 210/388/95
f 189/441/128 137/354/70 210/388/95
f 194/442/129 209/443/71 137/444/70
f 193/445/130 252/446/131 194/442/129
f 192/345/61 253/447/132 193/445/130
f 194/442/129 252/446/131 209/443/71
f 252/448/131 208/395/101 209/355/71
f 193/445/130 253/447/132 252/446/131
f 253/447/132 254/449/133 252/446/131
f 252/446/131 254/449/133 208/450/101
f 254/451/133 207/396/102 208/395/101
f 192/345/61 185/336/52 253/447/132
f 185/336/52 184/452/134 253/447/132
f 253/447/132 184/452/134 254/449/133
f 184/452/134 183/453/135 254/449/133
f 254/449/133 183/453/135 207/454/102
f 183/455/135 136/351/67 207/456/102
f 188/457/136 206/352/68 136/351/67
f 187/458/137 255/459/138 188/457/136
f 186/344/60 256/460/139 187/458/137
f 188/457/136 255/459/138 206/352/68
f 255/459/138 205/407/108 206/352/68
f 187/458/137 256/460/139 255/459/138
f 256/460/139 257/461/140 255/459/138
f 255/459/138 257/461/140 205/407/108
f 257/461/140 204/462/109 205/407/108
f 186/344/60 179/333/49 256/460/139
f 179/333/49 178/463/141 256/460/139
f 256/460/139 178/463/141 257/461/140
f 178/463/141 177/464/142 257/461/140
f 257/461/140 177/464/142 204/462/109
f 177/465/142 135/348/64 204/411/109
f 182/466/143 203/349/65 135/348/64
f 181/467/144 258/468/145 182/466/143
f 180/343/59 259/469/146 181/470/144
f 182/466/143 258/468/145 203/349/65
f 258/468/145 202/416/113 203/349/65
f 181/467/144 259/471/146 258/468/145
f 259/471/146 260/472/147 258/468/145
f 258/468/145 260/472/147 202/416/113
f 260/472/147 201/417/114 202/416/113
f 180/343/59 173/330/46 259/469/146
f 173/330/46 172/473/148 259/469/146
f 259/471/146 172/474/148 260/472/147
f 172/474/148 171/475/149 260/472/147
f 260/472/147 171/475/149 201/417/114
f 171/475/149 139/360/76 201/417/114
f 195/427/121 200/428/122 138/380/73
f 196/426/120 261/476/150 195/427/121
f 197/342/58 262/477/151 196/426/120
f 195/427/121 261/476/150 200/428/122
f 261/476/150 199/430/123 200/428/122
f 196/426/120 262/477/151 261/476/150
f 262/477/151 263/478/152 261/476/150
f 261/476/150 263/478/152 199/430/123
f 263/478/152 198/432/62 199/430/123
f 197/342/58 170/341/57 262/477/151
f 170/341/57 169/479/153 262/477/151
f 262/477/151 169/479/153 263/478/152
f 169/479/153 168/480/154 263/478/152
f 263/478/152 168/480/154 198/432/62
f 168/480/154 133/481/53 198/432/62
f 189/440/128 194/442/129 137/444/70
f 190/438/127 264/482/155 189/440/128
f 191/339/55 265/483/156 190/438/127
f 189/440/128 264/482/155 194/442/129
f 264/482/155 193/445/130 194/442/129
f 190/438/127 265/483/156 264/482/155
f 265/483/156 266/484/157 264/482/155
f 264/482/155 266/484/157 193/445/130
f 266/484/157 192/345/61 193/445/130
f 191/339/55 167/338/54 265/483/156
f 167/338/54 166/485/158 265/483/156
f 265/483/156 166/485/158 266/484/157
f 166/485/158 165/486/159 266/484/157
f 266/484/157 165/486/159 192/345/61
f 165/486/159 132/334/50 192/345/61
f 183/455/135 188/457/136 136/351/67
f 184/452/134 267/487/160 183/453/135
f 185/336/52 268/488/161 184/452/134
f 183/455/135 267/489/160 188/457/136
f 267/489/160 187/458/137 188/457/136
f 184/452/134 268/488/161 267/487/160
f 268/490/161 269/491/162 267/489/160
f 267/489/160 269/491/162 187/458/137
f 269/491/162 186/344/60 187/458/137
f 185/336/52 161/335/51 268/488/161
f 161/335/51 160/492/163 268/488/161
f 268/490/161 160/493/163 269/491/162
f 160/493/163 159/494/164 269/491/162
f 269/491/162 159/494/164 186/344/60
f 159/494/164 131/331/47 186/344/60
f 177/465/142 182/466/143 135/348/64
f 178/463/141 270/495/165 177/464/142
f 179/333/49 271/496/166 178/463/141
f 177/465/142 270/497/165 182/466/143
f 270/497/165 181/467/144 182/466/143
f 178/463/141 271/496/166 270/495/165
f 271/498/166 272/499/167 270/500/165
f 270/500/165 272/499/167 181/470/144
f 272/499/167 180/343/59 181/470/144
f 179/333/49 149/332/48 271/496/166
f 149/501/48 148/502/168 271/498/166
f 271/498/166 148/502/168 272/499/167
f 148/502/168 147/503/169 272/499/167
f 272/499/167 147/503/169 180/343/59
f 147/503/169 130/324/40 180/343/59
f 171/475/149 176/418/115 139/360/76
f 172/474/148 273/504/170 171/475/149
f 173/330/46 274/505/171 172/473/148
f 171/475/149 273/504/170 176/418/115
f 273/504/170 175/419/116 176/418/115
f 172/473/148 274/505/171 273/506/170
f 274/505/171 275/507/172 273/506/170
f 273/506/170 275/507/172 175/508/116
f 275/507/172 174/509/63 175/508/116
f 173/330/46 152/326/42 274/505/171
f 152/326/42 151/510/173 274/505/171
f 274/505/171 151/510/173 275/507/172
f 151/510/173 150/511/174 275/507/172
f 275/507/172 150/511/174 174/509/63
f 150/511/174 134/512/56 174/509/63
f 155/513/175 170/514/57 134/512/56
f 154/515/176 276/516/177 155/513/175
f 153/329/45 277/517/178 154/515/176
f 155/513/175 276/516/177 170/514/57
f 276/518/177 169/479/153 170/341/57
f 154/515/176 277/517/178 276/516/177
f 277/517/178 278/519/179 276/516/177
f 276/516/177 278/519/179 169/520/153
f 278/521/179 168/480/154 169/479/153
f 153/329/45 164/328/44 277/517/178
f 164/328/44 163/522/180 277/517/178
f 277/517/178 163/522/180 278/519/179
f 163/522/180 162/523/181 278/519/179
f 278/521/179 162/524/181 168/480/154
f 162/525/181 133/337/53 168/526/154
f 162/525/181 167/338/54 133/337/53
f 163/527/180 279/528/182 162/525/181
f 164/328/44 280/529/183 163/522/180
f 162/525/181 279/528/182 167/338/54
f 279/528/182 166/485/158 167/338/54
f 163/527/180 280/530/183 279/528/182
f 280/530/183 281/531/184 279/528/182
f 279/528/182 281/531/184 166/485/158
f 281/531/184 165/486/159 166/485/158
f 164/328/44 158/327/43 280/529/183
f 158/532/43 157/533/185 280/530/183
f 280/530/183 157/533/185 281/531/184
f 157/533/185 156/534/186 281/531/184
f 281/531/184 156/534/186 165/486/159
f 156/534/186 132/334/50 165/486/159
f 156/534/186 161/335/51 132/334/50
f 157/533/185 282/535/187 156/534/186
f 158/327/43 283/536/188 157/537/185
f 156/534/186 282/535/187 161/335/51
f 282/535/187 160/492/163 161/335/51
f 157/533/185 283/538/188 282/535/187
f 283/538/188 284/539/189 282/535/187
f 282/535/187 284/539/189 160/492/163
f 284/540/189 159/494/164 160/493/163
f 158/327/43 143/323/39 283/536/188
f 143/323/39 142/541/190 283/536/188
f 283/536/188 142/541/190 284/542/189
f 142/541/190 141/543/191 284/542/189
f 284/540/189 141/544/191 159/494/164
f 141/544/191 131/331/47 159/494/164
f 150/511/174 155/513/175 134/512/56
f 151/510/173 285/545/192 150/511/174
f 152/326/42 286/546/193 151/510/173
f 150/511/174 285/545/192 155/513/175
f 285/545/192 154/515/176 155/513/175
f 151/510/173 286/546/193 285/545/192
f 286/546/193 287/547/194 285/545/192
f 285/545/192 287/547/194 154/515/176
f 287/547/194 153/329/45 154/515/176
f 152/326/42 146/325/41 286/546/193
f 146/325/41 145/548/195 286/546/193
f 286/546/193 145/548/195 287/547/194
f 145/548/195 144/322/38 287/547/194
f 287/547/194 144/322/38 153/329/45
f 144/322/38 129/321/37 153/329/45
f 141/544/191 149/332/48 131/331/47
f 142/541/190 288/549/196 141/543/191
f 143/323/39 289/550/197 142/541/190
f 141/543/191 288/549/196 149/501/48
f 288/549/196 148/502/168 149/501/48
f 142/541/190 289/550/197 288/549/196
f 289/550/197 290/551/198 288/549/196
f 288/549/196 290/551/198 148/502/168
f 290/551/198 147/503/169 148/502/168
f 143/323/39 144/322/38 289/550/197
f 144/322/38 145/548/195 289/550/197
f 289/550/197 145/548/195 290/551/198
f 145/548/195 146/325/41 290/551/198
f 290/551/198 146/325/41 147/503/169
f 146/325/41 130/324/40 147/503/169
f 291/552/199 304/553/200 303/554/201
f 292/555/202 304/553/200 306/556/203
f 291/552/199 303/554/201 308/557/204
f 291/552/199 308/557/204 310/558/205
f 291/552/199 310/558/205 307/559/206
f 292/555/202 306/556/203 313/560/207
f 293/561/208 305/562/209 315/563/141
f 294/564/210 309/565/211 317/566/212
f 295/567/213 311/568/214 319/569/215
f 296/570/216 312/571/217 321/572/218
f 292/555/202 313/560/207 316/573/219
f 293/561/208 315/563/141 318/574/220
f 294/564/210 317/566/212 320/575/221
f 295/576/213 319/577/215 322/578/123
f 296/570/216 321/572/218 314/579/222
f 297/580/223 323/581/224 328/582/225
f 298/583/226 324/584/227 330/585/228
f 299/586/229 325/587/230 331/588/231
f 300/589/232 326/590/233 332/591/234
f 301/592/235 327/593/236 329/594/237
f 329/595/237 332/591/234 302/596/238
f 329/594/237 327/593/236 332/597/234
f 327/598/236 300/589/232 332/591/234
f 332/591/234 331/588/231 302/596/238
f 332/591/234 326/590/233 331/588/231
f 326/590/233 299/586/229 331/588/231
f 331/588/231 330/585/228 302/596/238
f 331/588/231 325/587/230 330/585/228
f 325/587/230 298/583/226 330/585/228
f 330/585/228 328/599/225 302/596/238
f 330/600/228 324/601/227 328/582/225
f 324/601/227 297/580/223 328/582/225
f 328/582/225 329/594/237 302/602/238
f 328/582/225 323/581/224 329/594/237
f 323/581/224 301/592/235 329/594/237
f 314/603/222 327/593/236 301/592/235
f 314/579/222 321/572/218 327/604/236
f 321/572/218 300/605/232 327/604/236
f 322/578/123 326/606/233 300/605/232
f 322/578/123 319/577/215 326/606/233
f 319/607/215 299/586/229 326/590/233
f 320/608/221 325/587/230 299/586/229
f 320/575/221 317/566/212 325/609/230
f 317/610/212 298/611/226 325/612/230
f 318/574/220 324/613/227 298/611/226
f 318/574/220 315/563/141 324/613/227
f 315/563/141 297/614/223 324/613/227
f 316/615/219 323/581/224 297/580/223
f 316/615/219 313/616/207 323/581/224
f 313/616/207 301/592/235 323/581/224
f 321/572/218 322/578/123 300/605/232
f 321/572/218 312/571/217 322/578/123
f 312/571/217 295/576/213 322/578/123
f 319/569/215 320/575/221 299/617/229
f 319/569/215 311/568/214 320/575/221
f 311/568/214 294/564/210 320/575/221
f 317/610/212 318/574/220 298/611/226
f 317/610/212 309/618/211 318/574/220
f 309/618/211 293/561/208 318/574/220
f 315/563/141 316/619/219 297/614/223
f 315/563/141 305/562/209 316/619/219
f 305/620/209 292/555/202 316/573/219
f 313/616/207 314/603/222 301/592/235
f 313/560/207 306/556/203 314/621/222
f 306/556/203 296/622/216 314/621/222
f 307/559/206 312/623/217 296/622/216
f 307/559/206 310/558/205 312/623/217
f 310/624/205 295/576/213 312/571/217
f 310/625/205 311/568/214 295/567/213
f 310/625/205 308/626/204 311/568/214
f 308/626/204 294/564/210 311/568/214
f 308/626/204 309/565/211 294/564/210
f 308/557/204 303/554/201 309/627/211
f 303/554/201 293/628/208 309/627/211
f 306/556/203 307/559/206 296/622/216
f 306/556/203 304/553/200 307/559/206
f 304/553/200 291/552/199 307/559/206
f 303/554/201 305/620/209 293/628/208
f 303/554/201 304/553/200 305/620/209
f 304/553/200 292/555/202 305/620/209
f 333/629/199 346/630/200 345/631/201
f 334/632/202 346/630/200 348/633/203
f 333/629/199 345/631/201 350/634/204
f 333/629/199 350/634/204 352/635/205
f 333/629/199 352/635/205 349/636/206
f 334/632/202 348/633/203 355/637/207
f 335/638/208 347/639/209 357/640/141
f 336/641/210 351/642/211 359/643/212
f 337/644/213 353/645/214 361/646/215
f 338/647/216 354/648/217 363/649/218
f 334/632/202 355/637/207 358/650/219
f 335/638/208 357/640/141 360/651/220
f 336/641/210 359/643/212 362/652/221
f 337/653/213 361/654/215 364/655/123
f 338/647/216 363/649/218 356/656/222
f 339/657/223 365/658/224 370/659/225
f 340/660/226 366/661/227 372/662/228
f 341/663/229 367/664/230 373/665/231
f 342/666/232 368/667/233 374/668/234
f 343/669/235 369/670/236 371/671/237
f 371/672/237 374/668/234 344/673/238
f 371/671/237 369/670/236 374/674/234
f 369/675/236 342/666/232 374/668/234
f 374/668/234 373/665/231 344/673/238
f 374/668/234 368/667/233 373/665/231
f 368/667/233 341/663/229 373/665/231
f 373/665/231 372/662/228 344/673/238
f 373/665/231 367/664/230 372/662/228
f 367/664/230 340/660/226 372/662/228
f 372/662/228 370/676/225 344/673/238
f 372/677/228 366/678/227 370/659/225
f 366/678/227 339/657/223 370/659/225
f 370/659/225 371/671/237 344/679/238
f 370/659/225 365/658/224 371/671/237
f 365/658/224 343/669/235 371/671/237
f 356/680/222 369/670/236 343/669/235
f 356/656/222 363/649/218 369/681/236
f 363/649/218 342/682/232 369/681/236
f 364/655/123 368/683/233 342/682/232
f 364/655/123 361/654/215 368/683/233
f 361/684/215 341/663/229 368/667/233
f 362/685/221 367/664/230 341/663/229
f 362/652/221 359/643/212 367/686/230
f 359/687/212 340/688/226 367/689/230
f 360/651/220 366/690/227 340/688/226
f 360/651/220 357/640/141 366/690/227
f 357/640/141 339/691/223 366/690/227
f 358/692/219 365/658/224 339/657/223
f 358/692/219 355/693/207 365/658/224
f 355/693/207 343/669/235 365/658/224
f 363/649/218 364/655/123 342/682/232
f 363/649/218 354/648/217 364/655/123
f 354/648/217 337/653/213 364/655/123
f 361/646/215 362/652/221 341/694/229
f 361/646/215 353/645/214 362/652/221
f 353/645/214 336/641/210 362/652/221
f 359/687/212 360/651/220 340/688/226
f 359/687/212 351/695/211 360/651/220
f 351/695/211 335/638/208 360/651/220
f 357/640/141 358/696/219 339/691/223
f 357/640/141 347/639/209 358/696/219
f 347/697/209 334/632/202 358/650/219
f 355/693/207 356/680/222 343/669/235
f 355/637/207 348/633/203 356/698/222
f 348/633/203 338/699/216 356/698/222
f 349/636/206 354/700/217 338/699/216
f 349/636/206 352/635/205 354/700/217
f 352/701/205 337/653/213 354/648/217
f 352/702/205 353/645/214 337/644/213
f 352/702/205 350/703/204 353/645/214
f 350/703/204 336/641/210 353/645/214
f 350/703/204 351/642/211 336/641/210
f 350/634/204 345/631/201 351/704/211
f 345/631/201 335/705/208 351/704/211
f 348/633/203 349/636/206 338/699/216
f 348/633/203 346/630/200 349/636/206
f 346/630/200 333/629/199 349/636/206
f 345/631/201 347/697/209 335/705/208
f 345/631/201 346/630/200 347/697/209
f 346/630/200 334/632/202 347/697/209
f 375/706/239 388/707/240 387/708/241
f 376/709/242 388/707/240 390/710/243
f 375/706/239 387/708/241 392/711/244
f 375/706/239 392/711/244 394/712/245
f 375/706/239 394/712/245 391/713/246
f 376/709/242 390/710/243 397/714/247
f 377/715/248 389/716/249 399/717/141
f 378/718/250 393/719/251 401/720/252
f 379/721/253 395/722/254 403/723/255
f 380/724/256 396/725/257 405/726/258
f 376/709/242 397/714/247 400/727/259
f 377/715/248 399/717/141 402/728/260
f 378/718/250 401/720/252 404/729/261
f 379/730/253 403/731/255 406/732/123
f 380/724/256 405/726/258 398/733/262
f 381/734/263 407/735/264 412/736/265
f 382/737/266 408/738/267 414/739/268
f 383/740/269 409/741/270 415/742/271
f 384/743/272 410/744/273 416/745/274
f 385/746/275 411/747/276 413/748/277
f 413/748/277 416/749/274 386/750/278
f 413/748/277 411/747/276 416/749/274
f 411/751/276 384/752/272 416/753/274
f 416/745/274 415/742/271 386/754/278
f 416/745/274 410/744/273 415/742/271
f 410/744/273 383/740/269 415/742/271
f 415/742/271 414/755/268 386/754/278
f 415/742/271 409/741/270 414/755/268
f 409/741/270 382/756/266 414/755/268
f 414/757/268 412/736/265 386/750/278
f 414/757/268 408/758/267 412/736/265
f 408/758/267 381/734/263 412/736/265
f 412/736/265 413/748/277 386/750/278
f 412/736/265 407/735/264 413/748/277
f 407/735/264 385/746/275 413/748/277
f 398/759/262 411/747/276 385/746/275
f 398/733/262 405/726/258 411/751/276
f 405/726/258 384/752/272 411/751/276
f 406/732/123 410/760/273 384/752/272
f 406/732/123 403/731/255 410/760/273
f 403/761/255 383/740/269 410/744/273
f 404/729/261 409/762/270 383/763/269
f 404/729/261 401/720/252 409/762/270
f 401/764/252 382/737/266 409/765/270
f 402/728/260 408/738/267 382/737/266
f 402/728/260 399/717/141 408/738/267
f 399/717/141 381/766/263 408/738/267
f 400/767/259 407/735/264 381/734/263
f 400/767/259 397/768/247 407/735/264
f 397/768/247 385/746/275 407/735/264
f 405/726/258 406/732/123 384/752/272
f 405/726/258 396/725/257 406/732/123
f 396/725/257 379/730/253 406/732/123
f 403/723/255 404/729/261 383/763/269
f 403/723/255 395/722/254 404/729/261
f 395/722/254 378/718/250 404/729/261
f 401/764/252 402/728/260 382/737/266
f 401/764/252 393/769/251 402/728/260
f 393/769/251 377/715/248 402/728/260
f 399/717/141 400/770/259 381/766/263
f 399/717/141 389/716/249 400/770/259
f 389/771/249 376/709/242 400/727/259
f 397/768/247 398/759/262 385/746/275
f 397/714/247 390/710/243 398/772/262
f 390/710/243 380/773/256 398/772/262
f 391/774/246 396/725/257 380/724/256
f 391/774/246 394/775/245 396/725/257
f 394/775/245 379/730/253 396/725/257
f 394/776/245 395/722/254 379/721/253
f 394/776/245 392/777/244 395/722/254
f 392/777/244 378/718/250 395/722/254
f 392/777/244 393/719/251 378/718/250
f 392/778/244 387/779/241 393/769/251
f 387/779/241 377/715/248 393/769/251
f 390/710/243 391/713/246 380/773/256
f 390/710/243 388/707/240 391/713/246
f 388/707/240 375/706/239 391/713/246
f 387/708/241 389/771/249 377/780/248
f 387/708/241 388/707/240 389/771/249
f 388/707/240 376/709/242 389/771/249
f 417/781/279 430/782/280 429/783/281
f 418/784/282 430/782/280 432/785/283
f 417/781/279 429/783/281 434/786/284
f 417/781/279 434/786/284 436/787/285
f 417/781/279 436/787/285 433/788/286
f 418/784/282 432/785/283 439/789/287
f 419/790/288 431/791/289 441/792/141
f 420/793/290 435/794/291 443/795/292
f 421/796/293 437/797/294 445/798/295
f 422/799/296 438/800/297 447/801/298
f 418/784/282 439/789/287 442/802/299
f 419/790/288 441/792/141 444/803/300
f 420/804/290 443/805/292 446/806/301
f 421/807/293 445/808/295 448/809/123
f 422/799/296 447/801/298 440/810/302
f 423/811/303 449/812/304 454/813/305
f 424/814/306 450/815/307 456/816/308
f 425/817/309 451/818/310 457/819/311
f 426/820/312 452/821/313 458/822/314
f 427/823/315 453/824/316 455/825/317
f 455/826/317 458/822/314 428/827/318
f 455/825/317 453/824/316 458/828/314
f 453/829/316 426/830/312 458/831/314
f 458/822/314 457/819/311 428/827/318
f 458/822/314 452/821/313 457/819/311
f 452/821/313 425/817/309 457/819/311
f 457/819/311 456/832/308 428/827/318
f 457/819/311 451/818/310 456/832/308
f 451/818/310 424/833/306 456/832/308
f 456/834/308 454/813/305 428/835/318
f 456/834/308 450/836/307 454/813/305
f 450/836/307 423/811/303 454/813/305
f 454/813/305 455/825/317 428/835/318
f 454/813/305 449/812/304 455/825/317
f 449/812/304 427/823/315 455/825/317
f 440/810/302 453/829/316 427/837/315
f 440/810/302 447/801/298 453/829/316
f 447/801/298 426/830/312 453/829/316
f 448/809/123 452/838/313 426/830/312
f 448/809/123 445/808/295 452/838/313
f 445/839/295 425/817/309 452/821/313
f 446/806/301 451/840/310 425/841/309
f 446/806/301 443/805/292 451/840/310
f 443/795/292 424/814/306 451/842/310
f 444/803/300 450/815/307 424/814/306
f 444/803/300 441/792/141 450/815/307
f 441/792/141 423/843/303 450/815/307
f 442/844/299 449/812/304 423/811/303
f 442/844/299 439/845/287 449/812/304
f 439/845/287 427/823/315 449/812/304
f 447/801/298 448/809/123 426/830/312
f 447/801/298 438/800/297 448/809/123
f 438/800/297 421/807/293 448/809/123
f 445/798/295 446/806/301 425/841/309
f 445/798/295 437/797/294 446/806/301
f 437/797/294 420/804/290 446/806/301
f 443/795/292 444/803/300 424/814/306
f 443/795/292 435/794/291 444/803/300
f 435/794/291 419/790/288 444/803/300
f 441/792/141 442/846/299 423/843/303
f 441/792/141 431/791/289 442/846/299
f 431/847/289 418/784/282 442/802/299
f 439/845/287 440/848/302 427/823/315
f 439/789/287 432/785/283 440/849/302
f 432/850/283 422/799/296 440/810/302
f 433/851/286 438/800/297 422/799/296
f 433/851/286 436/852/285 438/800/297
f 436/852/285 421/807/293 438/800/297
f 436/853/285 437/797/294 421/796/293
f 436/853/285 434/854/284 437/797/294
f 434/854/284 420/804/290 437/797/294
f 434/854/284 435/855/291 420/804/290
f 434/786/284 429/783/281 435/856/291
f 429/857/281 419/790/288 435/794/291
f 432/785/283 433/788/286 422/858/296
f 432/785/283 430/782/280 433/788/286
f 430/782/280 417/781/279 433/788/286
f 429/857/281 431/791/289 419/790/288
f 429/783/281 430/782/280 431/847/289
f 430/782/280 418/784/282 431/847/289
f 459/859/239 460/860/319 461/861/320
f 460/860/319 459/859/239 464/862/321
f 459/863/239 461/864/320 462/865/322
f 459/866/239 462/867/322 463/868/323
f 459/869/239 463/870/323 464/871/321
f 460/860/319 464/862/321 469/872/324
f 461/864/320 460/873/319 465/874/325
f 462/865/322 461/864/320 466/875/326
f 463/868/323 462/867/322 467/876/327
f 464/871/321 463/870/323 468/877/328
f 460/878/319 469/879/324 465/880/325
f 461/864/320 465/874/325 466/875/326
f 462/867/322 466/881/326 467/876/327
f 463/870/323 467/882/327 468/877/328
f 464/871/321 468/877/328 469/883/324
f 465/880/325 469/879/324 470/884/278
f 466/885/326 465/880/325 470/884/278
f 467/886/327 466/887/326 470/888/278
f 468/889/328 467/886/327 470/888/278
f 469/879/324 468/890/328 470/884/278
f 471/891/239 472/892/319 473/893/320
f 472/892/319 471/891/239 476/894/321
f 471/895/239 473/896/320 474/897/322
f 471/898/239 474/899/322 475/900/323
f 471/901/239 475/902/323 476/903/321
f 472/892/319 476/894/321 481/904/324
f 473/896/320 472/905/319 477/906/325
f 474/897/322 473/896/320 478/907/326
f 475/900/323 474/899/322 479/908/327
f 476/903/321 475/902/323 480/909/328
f 472/910/319 481/911/324 477/912/325
f 473/896/320 477/906/325 478/907/326
f 474/899/322 478/913/326 479/908/327
f 475/902/323 479/914/327 480/909/328
f 476/903/321 480/909/328 481/915/324
f 477/912/325 481/911/324 482/916/278
f 478/917/326 477/912/325 482/916/278
f 479/918/327 478/919/326 482/920/278
f 480/921/328 479/918/327 482/920/278
f 481/911/324 480/922/328 482/916/278
f 483/923/329 484/924/330 486/925/331 485/926/332
f 485/927/332 486/928/331 488/929/333 487/930/334
f 487/931/334 488/932/333 490/933/335 489/934/336
f 489/934/336 490/933/335 492/935/337 491/936/338
f 486/937/331 484/938/330 494/939/339 492/935/337 490/933/335 488/932/333
f 491/940/338 492/941/337 494/942/339 493/943/340
f 493/944/340 494/945/339 484/946/330 483/947/329
f 483/948/329 485/949/332 487/950/334 489/951/336 491/952/338 493/953/340
f 495/954/341 496/955/342 498/956/343 497/957/344
f 497/958/344 498/959/343 500/960/345 499/961/346
f 499/961/346 500/960/345 502/962/347 501/963/348
f 501/964/348 502/965/347 504/966/349 503/967/350
f 498/968/343 496/969/342 506/970/351 504/971/349 502/972/347 500/973/345
f 503/974/350 504/975/349 506/976/351 505/977/352
f 505/978/352 506/970/351 496/969/342 495/979/341
f 495/980/341 497/981/344 499/982/346 501/983/348 503/984/350 505/985/352
f 507/986/353 508/987/354 510/988/355 509/989/356
f 509/989/356 510/988/355 512/990/357 511/991/358
f 511/992/358 512/993/357 514/994/359 513/995/360
f 513/995/360 514/994/359 516/996/361 515/997/362
f 515/997/362 516/996/361 518/998/363 517/999/364
f 510/1000/355 508/1001/354 520/1002/365 518/1003/363 516/1004/361 514/1005/359 512/1006/357
f 517/1007/364 518/1003/363 520/1002/365 519/1008/366
f 519/1008/366 520/1002/365 508/1001/354 507/1009/353
f 507/1010/353 509/1011/356 511/1012/358 513/1013/360 515/1014/362 517/1015/364 519/1016/366
f 521/1017/367 522/1018/368 524/1019/369 523/1020/370
f 523/1021/370 524/1022/369 526/1023/371 525/1024/372
f 525/1024/372 526/1023/371 528/1025/373 527/1026/374
f 527/1027/374 528/1028/373 530/1029/375 529/1030/376
f 529/1031/376 530/1032/375 532/1033/377 531/1034/378
f 524/1035/369 522/1036/368 534/1037/379 532/1033/377 530/1032/375 528/1038/373 526/1039/371
f 531/1040/378 532/1041/377 534/1042/379 533/1043/380
f 533/1044/380 534/1045/379 522/1018/368 521/1017/367
f 521/1046/367 523/1047/370 525/1048/372 527/1049/374 529/1050/376 531/1051/378 533/1052/380
f 535/1053/239 536/1054/319 537/1055/381
f 536/1054/319 535/1053/239 540/1056/321
f 535/1057/239 537/1058/381 538/1059/322
f 535/1060/239 538/1061/322 539/1062/382
f 535/1063/239 539/1064/382 540/1065/321
f 536/1054/319 540/1056/321 545/1066/324
f 537/1058/381 536/1067/319 541/1068/383
f 538/1059/322 537/1058/381 542/1069/326
f 539/1062/382 538/1061/322 543/1070/327
f 540/1065/321 539/1064/382 544/1071/384
f 536/1072/319 545/1073/324 541/1074/383
f 537/1058/381 541/1068/383 542/1069/326
f 538/1061/322 542/1075/326 543/1070/327
f 539/1064/382 543/1076/327 544/1071/384
f 540/1065/321 544/1071/384 545/1077/324
f 541/1074/383 545/1073/324 546/1078/278
f 542/1079/326 541/1074/383 546/1078/278
f 543/1080/327 542/1081/326 546/1082/278
f 544/1083/384 543/1080/327 546/1082/278
f 545/1073/324 544/1084/384 546/1078/278
f 547/1085/239 548/1086/319 549/1087/320
f 548/1086/319 547/1085/239 552/1088/321
f 547/1089/239 549/1090/320 550/1091/322
f 547/1092/239 550/1093/322 551/1094/323
f 547/1095/239 551/1096/323 552/1097/321
f 548/1086/319 552/1088/321 557/1098/324
f 549/1090/320 548/1099/319 553/1100/383
f 550/1091/322 549/1090/320 554/1101/326
f 551/1094/323 550/1093/322 555/1102/327
f 552/1097/321 551/1096/323 556/1103/384
f 548/1104/319 557/1105/324 553/1106/383
f 549/1090/320 553/1100/383 554/1101/326
f 550/1093/322 554/1107/326 555/1102/327
f 551/1096/323 555/1108/327 556/1103/384
f 552/1097/321 556/1103/384 557/1109/324
f 553/1106/383 557/1105/324 558/1110/278
f 554/1111/326 553/1106/383 558/1110/278
f 555/1112/327 554/1113/326 558/1114/278
f 556/1115/384 555/1112/327 558/1114/278
f 557/1105/324 556/1116/384 558/1110/278
f 559/1117/385 560/1118/386 562/1119/387 561/1120/388
f 561/1121/388 562/1122/387 564/1123/389 563/1124/390
f 563/1125/390 564/1126/389 566/1127/391 565/1128/392
f 565/1129/392 566/1130/391 568/1131/393 567/1132/394
f 562/1122/387 560/1133/386 570/1134/395 568/1135/393 566/1136/391 564/1123/389
f 567/1132/394 568/1131/393 570/1137/395 569/1138/396
f 569/1139/396 570/1140/395 560/1141/386 559/1142/385
f 559/1143/385 561/1144/388 563/1145/390 565/1146/392 567/1147/394 569/1148/396
f 571/1149/397 572/1150/398 574/1151/399 573/1152/400
f 573/1152/400 574/1151/399 576/1153/401 575/1154/402
f 575/1155/402 576/1156/401 578/1157/403 577/1158/404
f 577/1159/404 578/1160/403 580/1161/405 579/1162/406
f 574/1163/399 572/1164/398 582/1165/407 580/1161/405 578/1160/403 576/1166/401
f 579/1162/406 580/1161/405 582/1165/407 581/1167/408
f 581/1168/408 582/1169/407 572/1170/398 571/1171/397
f 571/1172/397 573/1173/400 575/1174/402 577/1175/404 579/1176/406 581/1177/408
f 583/1178/409 584/1179/410 585/1180/411
f 584/1179/410 583/1178/409 588/1181/412
f 583/1182/409 585/1183/411 586/1184/413
f 583/1185/409 586/1186/413 587/1187/414
f 583/1188/409 587/1189/414 588/1190/412
f 584/1179/410 588/1181/412 593/1191/415
f 585/1183/411 584/1192/410 589/1193/416
f 586/1184/413 585/1183/411 590/1194/417
f 587/1187/414 586/1186/413 591/1195/418
f 588/1190/412 587/1189/414 592/1196/419
f 584/1197/410 593/1198/415 589/1199/416
f 585/1183/411 589/1193/416 590/1194/417
f 586/1186/413 590/1200/417 591/1195/418
f 587/1189/414 591/1201/418 592/1196/419
f 588/1190/412 592/1196/419 593/1202/415
f 589/1199/416 593/1198/415 594/1203/420
f 590/1204/417 589/1199/416 594/1203/420
f 591/1205/418 590/1206/417 594/1207/420
f 592/1208/419 591/1205/418 594/1207/420
f 593/1198/415 592/1209/419 594/1203/420
f 595/1210/421 608/1211/422 607/1212/423
f 596/1213/424 608/1211/422 610/1214/425
f 595/1210/421 607/1212/423 612/1215/426
f 595/1210/421 612/1215/426 614/1216/427
f 595/1210/421 614/1216/427 611/1217/428
f 596/1213/424 610/1214/425 617/1218/429
f 597/1219/430 609/1220/431 619/1221/432
f 598/1222/433 613/1223/434 621/1224/435
f 599/1225/436 615/1226/437 623/1227/438
f 600/1228/439 616/1229/440 625/1230/441
f 596/1213/424 617/1218/429 620/1231/442
f 597/1219/430 619/1221/432 622/1232/443
f 598/1222/433 621/1224/435 624/1233/444
f 599/1234/436 623/1235/438 626/1236/445
f 600/1228/439 625/1230/441 618/1237/446
f 601/1238/447 627/1239/448 632/1240/449
f 602/1241/450 628/1242/451 634/1243/452
f 603/1244/453 629/1245/454 635/1246/455
f 604/1247/456 630/1248/457 636/1249/458
f 605/1250/459 631/1251/460 633/1252/461
f 633/1253/461 636/1249/458 606/1254/278
f 633/1252/461 631/1251/460 636/1255/458
f 631/1256/460 604/1247/456 636/1249/458
f 636/1249/458 635/1246/455 606/1254/278
f 636/1249/458 630/1248/457 635/1246/455
f 630/1248/457 603/1244/453 635/1246/455
f 635/1246/455 634/1243/452 606/1254/278
f 635/1246/455 629/1245/454 634/1243/452
f 629/1245/454 602/1241/450 634/1243/452
f 634/1243/452 632/1257/449 606/1254/278
f 634/1258/452 628/1259/451 632/1240/449
f 628/1259/451 601/1238/447 632/1240/449
f 632/1240/449 633/1252/461 606/1260/278
f 632/1240/449 627/1239/448 633/1252/461
f 627/1239/448 605/1250/459 633/1252/461
f 618/1261/446 631/1251/460 605/1250/459
f 618/1237/446 625/1230/441 631/1262/460
f 625/1230/441 604/1263/456 631/1262/460
f 626/1236/445 630/1264/457 604/1263/456
f 626/1236/445 623/1235/438 630/1264/457
f 623/1265/438 603/1244/453 630/1248/457
f 624/1266/444 629/1245/454 603/1244/453
f 624/1233/444 621/1224/435 629/1267/454
f 621/1268/435 602/1269/450 629/1270/454
f 622/1232/443 628/1271/451 602/1269/450
f 622/1232/443 619/1221/432 628/1271/451
f 619/1221/432 601/1272/447 628/1271/451
f 620/1273/442 627/1239/448 601/1238/447
f 620/1273/442 617/1274/429 627/1239/448
f 617/1274/429 605/1250/459 627/1239/448
f 625/1230/441 626/1236/445 604/1263/456
f 625/1230/441 616/1229/440 626/1236/445
f 616/1229/440 599/1234/436 626/1236/445
f 623/1227/438 624/1233/444 603/1275/453
f 623/1227/438 615/1226/437 624/1233/444
f 615/1226/437 598/1222/433 624/1233/444
f 621/1268/435 622/1232/443 602/1269/450
f 621/1268/435 613/1276/434 622/1232/443
f 613/1276/434 597/1219/430 622/1232/443
f 619/1221/432 620/1277/442 601/1272/447
f 619/1221/432 609/1220/431 620/1277/442
f 609/1278/431 596/1213/424 620/1231/442
f 617/1274/429 618/1261/446 605/1250/459
f 617/1218/429 610/1214/425 618/1279/446
f 610/1214/425 600/1280/439 618/1279/446
f 611/1217/428 616/1281/440 600/1280/439
f 611/1217/428 614/1216/427 616/1281/440
f 614/1282/427 599/1234/436 616/1229/440
f 614/1283/427 615/1226/437 599/1225/436
f 614/1283/427 612/1284/426 615/1226/437
f 612/1284/426 598/1222/433 615/1226/437
f 612/1284/426 613/1223/434 598/1222/433
f 612/1215/426 607/1212/423 613/1285/434
f 607/1286/423 597/1219/430 613/1276/434
f 610/1214/425 611/1217/428 600/1280/439
f 610/1214/425 608/1211/422 611/1217/428
f 608/1211/422 595/1210/421 611/1217/428
f 607/1212/423 609/1278/431 597/1287/430
f 607/1212/423 608/1211/422 609/1278/431
f 608/1211/422 596/1213/424 609/1278/431
