# Blender 5.1.1
# www.blender.org
mtllib mob_kuntilanak.mtl
o mob_kuntilanak
v -0.275000 1.442000 -0.850000
v -0.287000 1.430000 -0.850000
v -0.275000 1.418000 -0.850000
v -0.263000 1.430000 -0.850000
v -0.275000 1.430000 -0.910000
v 0.000000 0.250000 0.550000
v 0.000000 1.550000 0.200000
v -0.275000 0.250000 0.476314
v -0.100000 1.550000 0.173205
v -0.476314 0.250000 0.275000
v -0.173205 1.550000 0.100000
v -0.550000 0.250000 0.000000
v -0.200000 1.550000 0.000000
v -0.476314 0.250000 -0.275000
v -0.173205 1.550000 -0.100000
v -0.275000 0.250000 -0.476314
v -0.100000 1.550000 -0.173205
v -0.000000 0.250000 -0.550000
v -0.000000 1.550000 -0.200000
v 0.275000 0.250000 -0.476314
v 0.100000 1.550000 -0.173205
v 0.476314 0.250000 -0.275000
v 0.173205 1.550000 -0.100000
v 0.550000 0.250000 0.000000
v 0.200000 1.550000 -0.000000
v 0.476314 0.250000 0.275000
v 0.173205 1.550000 0.100000
v 0.275000 0.250000 0.476314
v 0.100000 1.550000 0.173205
v 0.000000 1.500000 0.200000
v 0.000000 1.860000 0.200000
v -0.117557 1.500000 0.161803
v -0.117557 1.860000 0.161803
v -0.190211 1.500000 0.061803
v -0.190211 1.860000 0.061803
v -0.190211 1.500000 -0.061803
v -0.190211 1.860000 -0.061803
v -0.117557 1.500000 -0.161803
v -0.117557 1.860000 -0.161803
v -0.000000 1.500000 -0.200000
v -0.000000 1.860000 -0.200000
v 0.117557 1.500000 -0.161803
v 0.117557 1.860000 -0.161803
v 0.190211 1.500000 -0.061803
v 0.190211 1.860000 -0.061803
v 0.190211 1.500000 0.061803
v 0.190211 1.860000 0.061803
v 0.117557 1.500000 0.161803
v 0.117557 1.860000 0.161803
v -0.500000 0.320000 -0.090000
v -0.585595 0.320000 -0.027811
v -0.552901 0.320000 0.072812
v -0.447099 0.320000 0.072812
v -0.414405 0.320000 -0.027811
v -0.500000 0.040000 0.000000
v -0.433013 0.320000 0.160000
v -0.518608 0.320000 0.222188
v -0.485913 0.320000 0.322811
v -0.380112 0.320000 0.322811
v -0.347418 0.320000 0.222188
v -0.433013 0.040000 0.250000
v -0.250000 0.320000 0.343013
v -0.335595 0.320000 0.405201
v -0.302901 0.320000 0.505824
v -0.197099 0.320000 0.505824
v -0.164405 0.320000 0.405201
v -0.250000 0.040000 0.433013
v 0.000000 0.320000 0.410000
v -0.085595 0.320000 0.472188
v -0.052901 0.320000 0.572811
v 0.052901 0.320000 0.572811
v 0.085595 0.320000 0.472188
v 0.000000 0.040000 0.500000
v 0.250000 0.320000 0.343013
v 0.164405 0.320000 0.405201
v 0.197099 0.320000 0.505824
v 0.302901 0.320000 0.505824
v 0.335595 0.320000 0.405201
v 0.250000 0.040000 0.433013
v 0.433013 0.320000 0.160000
v 0.347418 0.320000 0.222188
v 0.380112 0.320000 0.322811
v 0.485913 0.320000 0.322811
v 0.518608 0.320000 0.222188
v 0.433013 0.040000 0.250000
v 0.500000 0.320000 -0.090000
v 0.414405 0.320000 -0.027812
v 0.447099 0.320000 0.072812
v 0.552901 0.320000 0.072811
v 0.585595 0.320000 -0.027812
v 0.500000 0.040000 -0.000000
v 0.433013 0.320000 -0.340000
v 0.347418 0.320000 -0.277812
v 0.380112 0.320000 -0.177188
v 0.485913 0.320000 -0.177189
v 0.518608 0.320000 -0.277812
v 0.433013 0.040000 -0.250000
v 0.250000 0.320000 -0.523013
v 0.164405 0.320000 -0.460824
v 0.197099 0.320000 -0.360201
v 0.302901 0.320000 -0.360201
v 0.335595 0.320000 -0.460824
v 0.250000 0.040000 -0.433013
v -0.000000 0.320000 -0.590000
v -0.085595 0.320000 -0.527812
v -0.052901 0.320000 -0.427188
v 0.052901 0.320000 -0.427188
v 0.085595 0.320000 -0.527812
v -0.000000 0.040000 -0.500000
v -0.250000 0.320000 -0.523013
v -0.335595 0.320000 -0.460824
v -0.302901 0.320000 -0.360201
v -0.197099 0.320000 -0.360201
v -0.164405 0.320000 -0.460824
v -0.250000 0.040000 -0.433013
v -0.433013 0.320000 -0.340000
v -0.518608 0.320000 -0.277811
v -0.485913 0.320000 -0.177188
v -0.380112 0.320000 -0.177188
v -0.347418 0.320000 -0.277811
v -0.433013 0.040000 -0.250000
v -0.000000 2.207000 -0.000000
v 0.000000 2.192765 0.061803
v 0.000000 2.091562 0.149207
v 0.000000 2.020000 0.161500
v 0.000000 1.948438 0.149207
v 0.000000 1.847234 0.061803
v 0.000000 1.833000 0.000000
v -0.029926 2.192765 0.053523
v -0.055296 2.152229 0.098898
v -0.072247 2.091562 0.129217
v -0.078200 2.020000 0.139863
v -0.072247 1.948438 0.129217
v -0.055296 1.887771 0.098898
v -0.029926 1.847234 0.053523
v -0.051833 2.192765 0.030902
v -0.095775 2.152229 0.057099
v -0.125136 2.091562 0.074603
v -0.135446 2.020000 0.080750
v -0.125136 1.948438 0.074603
v -0.095775 1.887771 0.057099
v -0.051833 1.847234 0.030902
v -0.059852 2.192765 -0.000000
v -0.110592 2.152229 -0.000000
v -0.144495 2.091562 0.000000
v -0.156400 2.020000 0.000000
v -0.144495 1.948438 0.000000
v -0.110592 1.887771 0.000000
v -0.059852 1.847234 0.000000
v -0.051833 2.192765 -0.030902
v -0.095775 2.152229 -0.057099
v -0.125136 2.091562 -0.074603
v -0.135446 2.020000 -0.080750
v -0.125136 1.948438 -0.074603
v -0.095775 1.887771 -0.057099
v -0.051833 1.847234 -0.030902
v -0.029926 2.192765 -0.053523
v -0.055296 2.152229 -0.098898
v -0.072247 2.091562 -0.129217
v -0.078200 2.020000 -0.139863
v -0.072247 1.948438 -0.129217
v -0.055296 1.887771 -0.098898
v -0.029926 1.847234 -0.053523
v -0.000000 2.192765 -0.061803
v -0.000000 2.152229 -0.114198
v -0.000000 2.091562 -0.149207
v -0.000000 2.020000 -0.161500
v -0.000000 1.948438 -0.149207
v -0.000000 1.887771 -0.114198
v -0.000000 1.847234 -0.061803
v 0.029926 2.192765 -0.053523
v 0.055296 2.152229 -0.098898
v 0.072247 2.091562 -0.129217
v 0.078200 2.020000 -0.139863
v 0.072247 1.948438 -0.129217
v 0.055296 1.887771 -0.098898
v 0.029926 1.847234 -0.053523
v 0.051833 2.192765 -0.030902
v 0.095775 2.152229 -0.057099
v 0.125136 2.091562 -0.074603
v 0.135446 2.020000 -0.080750
v 0.125136 1.948438 -0.074603
v 0.095775 1.887771 -0.057099
v 0.051833 1.847234 -0.030902
v 0.059852 2.192765 -0.000000
v 0.110592 2.152229 -0.000000
v 0.144495 2.091562 -0.000000
v 0.156400 2.020000 -0.000000
v 0.144495 1.948438 -0.000000
v 0.110592 1.887771 -0.000000
v 0.059852 1.847234 -0.000000
v 0.051833 2.192765 0.030902
v 0.095775 2.152229 0.057099
v 0.125136 2.091562 0.074603
v 0.135446 2.020000 0.080750
v 0.125136 1.948438 0.074603
v 0.095775 1.887771 0.057099
v 0.051833 1.847234 0.030902
v 0.029926 2.192765 0.053523
v 0.055296 2.152229 0.098898
v 0.072247 2.091562 0.129217
v 0.078200 2.020000 0.139863
v 0.072247 1.948438 0.129217
v 0.055296 1.887771 0.098898
v 0.029926 1.847234 0.053523
v 0.000000 2.152229 0.114198
v 0.000000 1.887771 0.114198
v 0.000000 2.280000 0.020000
v 0.000000 2.156537 0.204776
v 0.000000 1.895224 0.096537
v 0.000000 1.880000 0.020000
v -0.038268 2.264776 0.086283
v -0.070711 2.221421 0.142475
v -0.092388 2.156537 0.180021
v -0.100000 2.080000 0.193205
v -0.092388 2.003463 0.180021
v -0.070711 1.938579 0.142475
v -0.038268 1.895224 0.086283
v -0.066283 2.264776 0.058268
v -0.122474 2.221421 0.090711
v -0.160021 2.156537 0.112388
v -0.173205 2.080000 0.120000
v -0.160021 2.003463 0.112388
v -0.122474 1.938579 0.090711
v -0.066283 1.895224 0.058268
v -0.076537 2.264776 0.020000
v -0.141421 2.221421 0.020000
v -0.184776 2.156537 0.020000
v -0.200000 2.080000 0.020000
v -0.184776 2.003463 0.020000
v -0.141421 1.938579 0.020000
v -0.076537 1.895224 0.020000
v -0.066283 2.264776 -0.018268
v -0.122474 2.221421 -0.050711
v -0.160021 2.156537 -0.072388
v -0.173205 2.080000 -0.080000
v -0.160021 2.003463 -0.072388
v -0.122474 1.938579 -0.050711
v -0.066283 1.895224 -0.018268
v -0.038268 2.264776 -0.046283
v -0.070711 2.221421 -0.102475
v -0.092388 2.156537 -0.140021
v -0.100000 2.080000 -0.153205
v -0.092388 2.003463 -0.140021
v -0.070711 1.938579 -0.102474
v -0.038268 1.895224 -0.046283
v -0.000000 2.264776 -0.056537
v 0.000000 2.221421 -0.121421
v 0.000000 2.156537 -0.164776
v 0.000000 2.080000 -0.180000
v 0.000000 2.003463 -0.164776
v 0.000000 1.938579 -0.121421
v -0.000000 1.895224 -0.056537
v 0.038268 2.264776 -0.046283
v 0.070711 2.221421 -0.102475
v 0.092388 2.156537 -0.140021
v 0.100000 2.080000 -0.153205
v 0.092388 2.003463 -0.140021
v 0.070711 1.938579 -0.102474
v 0.038268 1.895224 -0.046283
v 0.066283 2.264776 -0.018268
v 0.122474 2.221421 -0.050711
v 0.160021 2.156537 -0.072388
v 0.173205 2.080000 -0.080000
v 0.160021 2.003463 -0.072388
v 0.122474 1.938579 -0.050711
v 0.066283 1.895224 -0.018268
v 0.076537 2.264776 0.020000
v 0.141421 2.221421 0.020000
v 0.184776 2.156537 0.020000
v 0.200000 2.080000 0.020000
v 0.184776 2.003463 0.020000
v 0.141421 1.938579 0.020000
v 0.076537 1.895224 0.020000
v 0.066283 2.264776 0.058268
v 0.122474 2.221421 0.090711
v 0.160021 2.156537 0.112388
v 0.173205 2.080000 0.120000
v 0.160021 2.003463 0.112388
v 0.122474 1.938579 0.090711
v 0.066283 1.895224 0.058268
v 0.038268 2.264776 0.086283
v 0.070711 2.221421 0.142475
v 0.092388 2.156537 0.180021
v 0.100000 2.080000 0.193205
v 0.092388 2.003463 0.180021
v 0.070711 1.938579 0.142475
v 0.038268 1.895224 0.086283
v -0.000000 2.264776 0.096537
v -0.000000 2.221421 0.161421
v -0.000000 2.080000 0.220000
v -0.000000 2.003463 0.204776
v -0.000000 1.938579 0.161421
v 0.160000 1.175000 -0.120000
v 0.160000 2.025000 -0.120000
v 0.160000 1.175000 -0.000000
v 0.160000 2.025000 -0.000000
v -0.160000 1.175000 -0.120000
v -0.160000 2.025000 -0.120000
v -0.160000 1.175000 0.000000
v -0.160000 2.025000 0.000000
v 0.200000 0.900000 0.050000
v 0.200000 2.000000 0.050000
v 0.200000 0.900000 0.150000
v 0.200000 2.000000 0.150000
v -0.200000 0.900000 0.050000
v -0.200000 2.000000 0.050000
v -0.200000 0.900000 0.150000
v -0.200000 2.000000 0.150000
v -0.040000 2.022000 -0.140000
v -0.040000 2.019053 -0.129000
v -0.040000 2.011000 -0.120947
v -0.040000 2.000000 -0.118000
v -0.040000 1.989000 -0.120947
v -0.040000 1.980947 -0.129000
v -0.040000 1.978000 -0.140000
v -0.047778 2.019053 -0.132222
v -0.053472 2.011000 -0.126528
v -0.055556 2.000000 -0.124444
v -0.053472 1.989000 -0.126528
v -0.047778 1.980947 -0.132222
v -0.051000 2.019053 -0.140000
v -0.059053 2.011000 -0.140000
v -0.062000 2.000000 -0.140000
v -0.059053 1.989000 -0.140000
v -0.051000 1.980947 -0.140000
v -0.047778 2.019053 -0.147778
v -0.053472 2.011000 -0.153472
v -0.055556 2.000000 -0.155556
v -0.053472 1.989000 -0.153472
v -0.047778 1.980947 -0.147778
v -0.040000 2.019053 -0.151000
v -0.040000 2.011000 -0.159053
v -0.040000 2.000000 -0.162000
v -0.040000 1.989000 -0.159053
v -0.040000 1.980947 -0.151000
v -0.032222 2.019053 -0.147778
v -0.026528 2.011000 -0.153472
v -0.024444 2.000000 -0.155556
v -0.026528 1.989000 -0.153472
v -0.032222 1.980947 -0.147778
v -0.029000 2.019053 -0.140000
v -0.020947 2.011000 -0.140000
v -0.018000 2.000000 -0.140000
v -0.020947 1.989000 -0.140000
v -0.029000 1.980947 -0.140000
v -0.032222 2.019053 -0.132222
v -0.026528 2.011000 -0.126528
v -0.024444 2.000000 -0.124444
v -0.026528 1.989000 -0.126528
v -0.032222 1.980947 -0.132222
v 0.225365 1.821851 -0.026827
v 0.285365 1.621851 -0.326827
v 0.189125 1.809593 -0.025904
v 0.249125 1.609593 -0.325904
v 0.170971 1.780000 -0.009806
v 0.230971 1.580000 -0.309806
v 0.181537 1.750407 0.012036
v 0.241537 1.550407 -0.287964
v 0.214634 1.738149 0.026827
v 0.274634 1.538149 -0.273173
v 0.250875 1.750407 0.025904
v 0.310875 1.550407 -0.274096
v 0.269029 1.780000 0.009806
v 0.329029 1.580000 -0.290194
v 0.258463 1.809593 -0.012036
v 0.318463 1.609593 -0.312036
v 0.280000 1.630000 -0.300000
v 0.280000 1.623301 -0.275000
v 0.280000 1.605000 -0.256699
v 0.280000 1.580000 -0.250000
v 0.280000 1.555000 -0.256699
v 0.280000 1.536699 -0.275000
v 0.280000 1.530000 -0.300000
v 0.262322 1.623301 -0.282322
v 0.249381 1.605000 -0.269381
v 0.244645 1.580000 -0.264645
v 0.249381 1.555000 -0.269381
v 0.262322 1.536699 -0.282322
v 0.255000 1.623301 -0.300000
v 0.236699 1.605000 -0.300000
v 0.230000 1.580000 -0.300000
v 0.236699 1.555000 -0.300000
v 0.255000 1.536699 -0.300000
v 0.262322 1.623301 -0.317678
v 0.249381 1.605000 -0.330619
v 0.244645 1.580000 -0.335355
v 0.249381 1.555000 -0.330619
v 0.262322 1.536699 -0.317678
v 0.280000 1.623301 -0.325000
v 0.280000 1.605000 -0.343301
v 0.280000 1.580000 -0.350000
v 0.280000 1.555000 -0.343301
v 0.280000 1.536699 -0.325000
v 0.297678 1.623301 -0.317678
v 0.310619 1.605000 -0.330619
v 0.315355 1.580000 -0.335355
v 0.310619 1.555000 -0.330619
v 0.297678 1.536699 -0.317678
v 0.305000 1.623301 -0.300000
v 0.323301 1.605000 -0.300000
v 0.330000 1.580000 -0.300000
v 0.323301 1.555000 -0.300000
v 0.305000 1.536699 -0.300000
v 0.297678 1.623301 -0.282322
v 0.310619 1.605000 -0.269381
v 0.315355 1.580000 -0.264645
v 0.310619 1.555000 -0.269381
v 0.297678 1.536699 -0.282322
v 0.278507 1.628529 -0.311946
v 0.238507 1.548529 -0.631946
v 0.243862 1.614315 -0.304062
v 0.203862 1.534315 -0.624062
v 0.230386 1.580000 -0.293798
v 0.190386 1.500000 -0.613798
v 0.245973 1.545685 -0.287168
v 0.205973 1.465685 -0.607168
v 0.281493 1.531471 -0.288054
v 0.241493 1.451471 -0.608054
v 0.316138 1.545685 -0.295939
v 0.276138 1.465685 -0.615938
v 0.329614 1.580000 -0.306202
v 0.289614 1.500000 -0.626202
v 0.314026 1.614315 -0.312832
v 0.274026 1.534315 -0.632832
v 0.240000 1.550000 -0.620000
v 0.240000 1.543301 -0.595000
v 0.240000 1.525000 -0.576699
v 0.240000 1.500000 -0.570000
v 0.240000 1.475000 -0.576699
v 0.240000 1.456699 -0.595000
v 0.240000 1.450000 -0.620000
v 0.222322 1.543301 -0.602322
v 0.209381 1.525000 -0.589381
v 0.204645 1.500000 -0.584645
v 0.209381 1.475000 -0.589381
v 0.222322 1.456699 -0.602322
v 0.215000 1.543301 -0.620000
v 0.196699 1.525000 -0.620000
v 0.190000 1.500000 -0.620000
v 0.196699 1.475000 -0.620000
v 0.215000 1.456699 -0.620000
v 0.222322 1.543301 -0.637678
v 0.209381 1.525000 -0.650619
v 0.204645 1.500000 -0.655355
v 0.209381 1.475000 -0.650619
v 0.222322 1.456699 -0.637678
v 0.240000 1.543301 -0.645000
v 0.240000 1.525000 -0.663301
v 0.240000 1.500000 -0.670000
v 0.240000 1.475000 -0.663301
v 0.240000 1.456699 -0.645000
v 0.257678 1.543301 -0.637678
v 0.270619 1.525000 -0.650619
v 0.275355 1.500000 -0.655355
v 0.270619 1.475000 -0.650619
v 0.257678 1.456699 -0.637678
v 0.265000 1.543301 -0.620000
v 0.283301 1.525000 -0.620000
v 0.290000 1.500000 -0.620000
v 0.283301 1.475000 -0.620000
v 0.265000 1.456699 -0.620000
v 0.257678 1.543301 -0.602322
v 0.270619 1.525000 -0.589381
v 0.275355 1.500000 -0.584645
v 0.270619 1.475000 -0.589381
v 0.257678 1.456699 -0.602322
v 0.240000 1.555000 -0.660000
v 0.240000 1.547631 -0.632500
v 0.240000 1.527500 -0.612369
v 0.240000 1.500000 -0.605000
v 0.240000 1.472500 -0.612369
v 0.240000 1.452369 -0.632500
v 0.240000 1.445000 -0.660000
v 0.220554 1.547631 -0.640555
v 0.206319 1.527500 -0.626320
v 0.201109 1.500000 -0.621109
v 0.206319 1.472500 -0.626320
v 0.220554 1.452369 -0.640555
v 0.212500 1.547631 -0.660000
v 0.192369 1.527500 -0.660000
v 0.185000 1.500000 -0.660000
v 0.192369 1.472500 -0.660000
v 0.212500 1.452369 -0.660000
v 0.220554 1.547631 -0.679445
v 0.206319 1.527500 -0.693681
v 0.201109 1.500000 -0.698891
v 0.206319 1.472500 -0.693681
v 0.220554 1.452369 -0.679445
v 0.240000 1.547631 -0.687500
v 0.240000 1.527500 -0.707631
v 0.240000 1.500000 -0.715000
v 0.240000 1.472500 -0.707631
v 0.240000 1.452369 -0.687500
v 0.259445 1.547631 -0.679445
v 0.273680 1.527500 -0.693681
v 0.278891 1.500000 -0.698891
v 0.273680 1.472500 -0.693681
v 0.259445 1.452369 -0.679445
v 0.267500 1.547631 -0.660000
v 0.287631 1.527500 -0.660000
v 0.295000 1.500000 -0.660000
v 0.287631 1.472500 -0.660000
v 0.267500 1.452369 -0.660000
v 0.259445 1.547631 -0.640555
v 0.273680 1.527500 -0.626320
v 0.278891 1.500000 -0.621109
v 0.273680 1.472500 -0.626320
v 0.259445 1.452369 -0.640555
v 0.239118 1.511268 -0.684032
v 0.204118 1.451268 -0.844032
v 0.228578 1.503482 -0.678807
v 0.193578 1.443482 -0.838807
v 0.233823 1.490884 -0.675230
v 0.198823 1.430884 -0.835230
v 0.247604 1.490884 -0.678245
v 0.212604 1.430884 -0.838245
v 0.250876 1.503482 -0.683685
v 0.215876 1.443482 -0.843685
v 0.205000 1.452000 -0.840000
v 0.205000 1.446000 -0.829608
v 0.205000 1.434000 -0.829608
v 0.205000 1.428000 -0.840000
v 0.200757 1.450392 -0.835757
v 0.197651 1.446000 -0.832651
v 0.196515 1.440000 -0.831515
v 0.197651 1.434000 -0.832651
v 0.200757 1.429608 -0.835757
v 0.199000 1.450392 -0.840000
v 0.194608 1.446000 -0.840000
v 0.193000 1.440000 -0.840000
v 0.194608 1.434000 -0.840000
v 0.199000 1.429608 -0.840000
v 0.200757 1.450392 -0.844243
v 0.197651 1.446000 -0.847348
v 0.196515 1.440000 -0.848485
v 0.197651 1.434000 -0.847348
v 0.200757 1.429608 -0.844243
v 0.205000 1.450392 -0.846000
v 0.205000 1.446000 -0.850392
v 0.205000 1.440000 -0.852000
v 0.205000 1.434000 -0.850392
v 0.205000 1.429608 -0.846000
v 0.209243 1.450392 -0.844243
v 0.212348 1.446000 -0.847348
v 0.213485 1.440000 -0.848485
v 0.212348 1.434000 -0.847348
v 0.209243 1.429608 -0.844243
v 0.211000 1.450392 -0.840000
v 0.215392 1.446000 -0.840000
v 0.217000 1.440000 -0.840000
v 0.215392 1.434000 -0.840000
v 0.211000 1.429608 -0.840000
v 0.209243 1.450392 -0.835757
v 0.212348 1.446000 -0.832651
v 0.213485 1.440000 -0.831515
v 0.212348 1.434000 -0.832651
v 0.209243 1.429608 -0.835757
v 0.205000 1.450392 -0.834000
v 0.205000 1.440000 -0.828000
v 0.205000 1.429608 -0.834000
v 0.205000 1.442000 -0.850000
v 0.193000 1.430000 -0.850000
v 0.205000 1.418000 -0.850000
v 0.217000 1.430000 -0.850000
v 0.205000 1.430000 -0.910000
v 0.240000 1.511236 -0.684214
v 0.240000 1.451236 -0.844213
v 0.228587 1.503472 -0.681302
v 0.228587 1.443472 -0.841302
v 0.232946 1.490910 -0.676591
v 0.232946 1.430910 -0.836591
v 0.247053 1.490910 -0.676591
v 0.247053 1.430910 -0.836591
v 0.251413 1.503472 -0.681302
v 0.251413 1.443472 -0.841302
v 0.240000 1.452000 -0.840000
v 0.240000 1.446000 -0.829608
v 0.240000 1.434000 -0.829608
v 0.240000 1.428000 -0.840000
v 0.235757 1.450392 -0.835757
v 0.232651 1.446000 -0.832651
v 0.231515 1.440000 -0.831515
v 0.232651 1.434000 -0.832651
v 0.235757 1.429608 -0.835757
v 0.234000 1.450392 -0.840000
v 0.229608 1.446000 -0.840000
v 0.228000 1.440000 -0.840000
v 0.229608 1.434000 -0.840000
v 0.234000 1.429608 -0.840000
v 0.235757 1.450392 -0.844243
v 0.232651 1.446000 -0.847348
v 0.231515 1.440000 -0.848485
v 0.232651 1.434000 -0.847348
v 0.235757 1.429608 -0.844243
v 0.240000 1.450392 -0.846000
v 0.240000 1.446000 -0.850392
v 0.240000 1.440000 -0.852000
v 0.240000 1.434000 -0.850392
v 0.240000 1.429608 -0.846000
v 0.244243 1.450392 -0.844243
v 0.247348 1.446000 -0.847348
v 0.248485 1.440000 -0.848485
v 0.247348 1.434000 -0.847348
v 0.244243 1.429608 -0.844243
v 0.246000 1.450392 -0.840000
v 0.250392 1.446000 -0.840000
v 0.252000 1.440000 -0.840000
v 0.250392 1.434000 -0.840000
v 0.246000 1.429608 -0.840000
v 0.244243 1.450392 -0.835757
v 0.247348 1.446000 -0.832651
v 0.248485 1.440000 -0.831515
v 0.247348 1.434000 -0.832651
v 0.244243 1.429608 -0.835757
v 0.240000 1.450392 -0.834000
v 0.240000 1.440000 -0.828000
v 0.240000 1.429608 -0.834000
v 0.240000 1.442000 -0.850000
v 0.228000 1.430000 -0.850000
v 0.240000 1.418000 -0.850000
v 0.252000 1.430000 -0.850000
v 0.240000 1.430000 -0.910000
v 0.240882 1.511268 -0.684032
v 0.275882 1.451268 -0.844032
v 0.229124 1.503482 -0.683685
v 0.264124 1.443482 -0.843685
v 0.232396 1.490884 -0.678245
v 0.267396 1.430884 -0.838245
v 0.246177 1.490884 -0.675230
v 0.281177 1.430884 -0.835230
v 0.251422 1.503482 -0.678807
v 0.286422 1.443482 -0.838807
v 0.275000 1.452000 -0.840000
v 0.275000 1.446000 -0.829608
v 0.275000 1.434000 -0.829608
v 0.275000 1.428000 -0.840000
v 0.270757 1.450392 -0.835757
v 0.267651 1.446000 -0.832651
v 0.266515 1.440000 -0.831515
v 0.267651 1.434000 -0.832651
v 0.270757 1.429608 -0.835757
v 0.269000 1.450392 -0.840000
v 0.264608 1.446000 -0.840000
v 0.263000 1.440000 -0.840000
v 0.264608 1.434000 -0.840000
v 0.269000 1.429608 -0.840000
v 0.270757 1.450392 -0.844243
v 0.267651 1.446000 -0.847348
v 0.266515 1.440000 -0.848485
v 0.267651 1.434000 -0.847348
v 0.270757 1.429608 -0.844243
v 0.275000 1.450392 -0.846000
v 0.275000 1.446000 -0.850392
v 0.275000 1.440000 -0.852000
v 0.275000 1.434000 -0.850392
v 0.275000 1.429608 -0.846000
v 0.279243 1.450392 -0.844243
v 0.282348 1.446000 -0.847348
v 0.283485 1.440000 -0.848485
v 0.282348 1.434000 -0.847348
v 0.279243 1.429608 -0.844243
v 0.281000 1.450392 -0.840000
v 0.285392 1.446000 -0.840000
v 0.287000 1.440000 -0.840000
v 0.285392 1.434000 -0.840000
v 0.281000 1.429608 -0.840000
v 0.279243 1.450392 -0.835757
v 0.282348 1.446000 -0.832651
v 0.283485 1.440000 -0.831515
v 0.282348 1.434000 -0.832651
v 0.279243 1.429608 -0.835757
v 0.275000 1.450392 -0.834000
v 0.275000 1.440000 -0.828000
v 0.275000 1.429608 -0.834000
v 0.275000 1.442000 -0.850000
v 0.263000 1.430000 -0.850000
v 0.275000 1.418000 -0.850000
v 0.287000 1.430000 -0.850000
v 0.275000 1.430000 -0.910000
v -0.225365 1.821851 -0.026827
v -0.285366 1.621851 -0.326827
v -0.258463 1.809593 -0.012036
v -0.318463 1.609593 -0.312036
v -0.269029 1.780000 0.009806
v -0.329029 1.580000 -0.290194
v -0.250875 1.750407 0.025904
v -0.310875 1.550407 -0.274096
v -0.214635 1.738149 0.026828
v -0.274635 1.538149 -0.273172
v -0.181537 1.750407 0.012036
v -0.241537 1.550407 -0.287964
v -0.170971 1.780000 -0.009806
v -0.230971 1.580000 -0.309806
v -0.189125 1.809593 -0.025904
v -0.249125 1.609593 -0.325904
v -0.280000 1.630000 -0.300000
v -0.280000 1.623301 -0.275000
v -0.280000 1.605000 -0.256699
v -0.280000 1.580000 -0.250000
v -0.280000 1.555000 -0.256699
v -0.280000 1.536699 -0.275000
v -0.280000 1.530000 -0.300000
v -0.297678 1.623301 -0.282322
v -0.310619 1.605000 -0.269381
v -0.315355 1.580000 -0.264645
v -0.310619 1.555000 -0.269381
v -0.297678 1.536699 -0.282322
v -0.305000 1.623301 -0.300000
v -0.323301 1.605000 -0.300000
v -0.330000 1.580000 -0.300000
v -0.323301 1.555000 -0.300000
v -0.305000 1.536699 -0.300000
v -0.297678 1.623301 -0.317678
v -0.310619 1.605000 -0.330619
v -0.315355 1.580000 -0.335355
v -0.310619 1.555000 -0.330619
v -0.297678 1.536699 -0.317678
v -0.280000 1.623301 -0.325000
v -0.280000 1.605000 -0.343301
v -0.280000 1.580000 -0.350000
v -0.280000 1.555000 -0.343301
v -0.280000 1.536699 -0.325000
v -0.262322 1.623301 -0.317678
v -0.249381 1.605000 -0.330619
v -0.244645 1.580000 -0.335355
v -0.249381 1.555000 -0.330619
v -0.262322 1.536699 -0.317678
v -0.255000 1.623301 -0.300000
v -0.236699 1.605000 -0.300000
v -0.230000 1.580000 -0.300000
v -0.236699 1.555000 -0.300000
v -0.255000 1.536699 -0.300000
v -0.262322 1.623301 -0.282322
v -0.249381 1.605000 -0.269381
v -0.244645 1.580000 -0.264645
v -0.249381 1.555000 -0.269381
v -0.262322 1.536699 -0.282322
v -0.278507 1.628529 -0.311946
v -0.238507 1.548529 -0.631946
v -0.314027 1.614315 -0.312832
v -0.274027 1.534315 -0.632832
v -0.329614 1.580000 -0.306202
v -0.289614 1.500000 -0.626202
v -0.316138 1.545685 -0.295938
v -0.276138 1.465685 -0.615938
v -0.281493 1.531471 -0.288054
v -0.241493 1.451471 -0.608054
v -0.245974 1.545685 -0.287168
v -0.205974 1.465685 -0.607168
v -0.230386 1.580000 -0.293798
v -0.190386 1.500000 -0.613798
v -0.243862 1.614315 -0.304062
v -0.203862 1.534315 -0.624062
v -0.240000 1.550000 -0.620000
v -0.240000 1.543301 -0.595000
v -0.240000 1.525000 -0.576699
v -0.240000 1.500000 -0.570000
v -0.240000 1.475000 -0.576699
v -0.240000 1.456699 -0.595000
v -0.240000 1.450000 -0.620000
v -0.257678 1.543301 -0.602322
v -0.270619 1.525000 -0.589381
v -0.275355 1.500000 -0.584645
v -0.270619 1.475000 -0.589381
v -0.257678 1.456699 -0.602322
v -0.265000 1.543301 -0.620000
v -0.283301 1.525000 -0.620000
v -0.290000 1.500000 -0.620000
v -0.283301 1.475000 -0.620000
v -0.265000 1.456699 -0.620000
v -0.257678 1.543301 -0.637678
v -0.270619 1.525000 -0.650619
v -0.275355 1.500000 -0.655355
v -0.270619 1.475000 -0.650619
v -0.257678 1.456699 -0.637678
v -0.240000 1.543301 -0.645000
v -0.240000 1.525000 -0.663301
v -0.240000 1.500000 -0.670000
v -0.240000 1.475000 -0.663301
v -0.240000 1.456699 -0.645000
v -0.222322 1.543301 -0.637678
v -0.209381 1.525000 -0.650619
v -0.204645 1.500000 -0.655355
v -0.209381 1.475000 -0.650619
v -0.222322 1.456699 -0.637678
v -0.215000 1.543301 -0.620000
v -0.196699 1.525000 -0.620000
v -0.190000 1.500000 -0.620000
v -0.196699 1.475000 -0.620000
v -0.215000 1.456699 -0.620000
v -0.222322 1.543301 -0.602322
v -0.209381 1.525000 -0.589381
v -0.204645 1.500000 -0.584645
v -0.209381 1.475000 -0.589381
v -0.222322 1.456699 -0.602322
v -0.240000 1.555000 -0.660000
v -0.240000 1.547631 -0.632500
v -0.240000 1.527500 -0.612369
v -0.240000 1.500000 -0.605000
v -0.240000 1.472500 -0.612369
v -0.240000 1.452369 -0.632500
v -0.240000 1.445000 -0.660000
v -0.259445 1.547631 -0.640555
v -0.273681 1.527500 -0.626320
v -0.278891 1.500000 -0.621109
v -0.273681 1.472500 -0.626320
v -0.259445 1.452369 -0.640555
v -0.267500 1.547631 -0.660000
v -0.287631 1.527500 -0.660000
v -0.295000 1.500000 -0.660000
v -0.287631 1.472500 -0.660000
v -0.267500 1.452369 -0.660000
v -0.259445 1.547631 -0.679445
v -0.273681 1.527500 -0.693681
v -0.278891 1.500000 -0.698891
v -0.273681 1.472500 -0.693681
v -0.259445 1.452369 -0.679445
v -0.240000 1.547631 -0.687500
v -0.240000 1.527500 -0.707631
v -0.240000 1.500000 -0.715000
v -0.240000 1.472500 -0.707631
v -0.240000 1.452369 -0.687500
v -0.220555 1.547631 -0.679445
v -0.206320 1.527500 -0.693681
v -0.201109 1.500000 -0.698891
v -0.206320 1.472500 -0.693681
v -0.220555 1.452369 -0.679445
v -0.212500 1.547631 -0.660000
v -0.192369 1.527500 -0.660000
v -0.185000 1.500000 -0.660000
v -0.192369 1.472500 -0.660000
v -0.212500 1.452369 -0.660000
v -0.220555 1.547631 -0.640555
v -0.206320 1.527500 -0.626320
v -0.201109 1.500000 -0.621109
v -0.206320 1.472500 -0.626320
v -0.220555 1.452369 -0.640555
v -0.239118 1.511268 -0.684032
v -0.204118 1.451268 -0.844032
v -0.250877 1.503482 -0.683685
v -0.215877 1.443482 -0.843685
v -0.247604 1.490884 -0.678245
v -0.212604 1.430884 -0.838245
v -0.233823 1.490884 -0.675230
v -0.198823 1.430884 -0.835230
v -0.228578 1.503482 -0.678807
v -0.193578 1.443482 -0.838807
v -0.205000 1.452000 -0.840000
v -0.205000 1.446000 -0.829608
v -0.205000 1.434000 -0.829608
v -0.205000 1.428000 -0.840000
v -0.209243 1.450392 -0.835757
v -0.212349 1.446000 -0.832651
v -0.213485 1.440000 -0.831515
v -0.212349 1.434000 -0.832651
v -0.209243 1.429608 -0.835757
v -0.211000 1.450392 -0.840000
v -0.215392 1.446000 -0.840000
v -0.217000 1.440000 -0.840000
v -0.215392 1.434000 -0.840000
v -0.211000 1.429608 -0.840000
v -0.209243 1.450392 -0.844243
v -0.212349 1.446000 -0.847348
v -0.213485 1.440000 -0.848485
v -0.212349 1.434000 -0.847348
v -0.209243 1.429608 -0.844243
v -0.205000 1.450392 -0.846000
v -0.205000 1.446000 -0.850392
v -0.205000 1.440000 -0.852000
v -0.205000 1.434000 -0.850392
v -0.205000 1.429608 -0.846000
v -0.200757 1.450392 -0.844243
v -0.197652 1.446000 -0.847348
v -0.196515 1.440000 -0.848485
v -0.197652 1.434000 -0.847348
v -0.200757 1.429608 -0.844243
v -0.199000 1.450392 -0.840000
v -0.194608 1.446000 -0.840000
v -0.193000 1.440000 -0.840000
v -0.194608 1.434000 -0.840000
v -0.199000 1.429608 -0.840000
v -0.200757 1.450392 -0.835757
v -0.197652 1.446000 -0.832651
v -0.196515 1.440000 -0.831515
v -0.197652 1.434000 -0.832651
v -0.200757 1.429608 -0.835757
v -0.205000 1.450392 -0.834000
v -0.205000 1.440000 -0.828000
v -0.205000 1.429608 -0.834000
v -0.205000 1.442000 -0.850000
v -0.217000 1.430000 -0.850000
v -0.205000 1.418000 -0.850000
v -0.193000 1.430000 -0.850000
v -0.205000 1.430000 -0.910000
v -0.240000 1.511236 -0.684214
v -0.240000 1.451236 -0.844213
v -0.251413 1.503472 -0.681302
v -0.251413 1.443472 -0.841302
v -0.247053 1.490910 -0.676591
v -0.247053 1.430910 -0.836591
v -0.232947 1.490910 -0.676591
v -0.232947 1.430910 -0.836591
v -0.228587 1.503472 -0.681302
v -0.228587 1.443472 -0.841302
v -0.240000 1.452000 -0.840000
v -0.240000 1.446000 -0.829608
v -0.240000 1.434000 -0.829608
v -0.240000 1.428000 -0.840000
v -0.244243 1.450392 -0.835757
v -0.247349 1.446000 -0.832651
v -0.248485 1.440000 -0.831515
v -0.247349 1.434000 -0.832651
v -0.244243 1.429608 -0.835757
v -0.246000 1.450392 -0.840000
v -0.250392 1.446000 -0.840000
v -0.252000 1.440000 -0.840000
v -0.250392 1.434000 -0.840000
v -0.246000 1.429608 -0.840000
v -0.244243 1.450392 -0.844243
v -0.247349 1.446000 -0.847348
v -0.248485 1.440000 -0.848485
v -0.247349 1.434000 -0.847348
v -0.244243 1.429608 -0.844243
v -0.240000 1.450392 -0.846000
v -0.240000 1.446000 -0.850392
v -0.240000 1.440000 -0.852000
v -0.240000 1.434000 -0.850392
v -0.240000 1.429608 -0.846000
v -0.235757 1.450392 -0.844243
v -0.232652 1.446000 -0.847348
v -0.231515 1.440000 -0.848485
v -0.232652 1.434000 -0.847348
v -0.235757 1.429608 -0.844243
v -0.234000 1.450392 -0.840000
v -0.229608 1.446000 -0.840000
v -0.228000 1.440000 -0.840000
v -0.229608 1.434000 -0.840000
v -0.234000 1.429608 -0.840000
v -0.235757 1.450392 -0.835757
v -0.232652 1.446000 -0.832651
v -0.231515 1.440000 -0.831515
v -0.232652 1.434000 -0.832651
v -0.235757 1.429608 -0.835757
v -0.240000 1.450392 -0.834000
v -0.240000 1.440000 -0.828000
v -0.240000 1.429608 -0.834000
v -0.240000 1.442000 -0.850000
v -0.252000 1.430000 -0.850000
v -0.240000 1.418000 -0.850000
v -0.228000 1.430000 -0.850000
v -0.240000 1.430000 -0.910000
v -0.240882 1.511268 -0.684032
v -0.275882 1.451268 -0.844032
v -0.251422 1.503482 -0.678807
v -0.286422 1.443482 -0.838807
v -0.246177 1.490884 -0.675230
v -0.281177 1.430884 -0.835230
v -0.232396 1.490884 -0.678245
v -0.267396 1.430884 -0.838245
v -0.229124 1.503482 -0.683685
v -0.264124 1.443482 -0.843685
v -0.275000 1.452000 -0.840000
v -0.275000 1.446000 -0.829608
v -0.275000 1.434000 -0.829608
v -0.275000 1.428000 -0.840000
v -0.279243 1.450392 -0.835757
v -0.282349 1.446000 -0.832651
v -0.283485 1.440000 -0.831515
v -0.282349 1.434000 -0.832651
v -0.279243 1.429608 -0.835757
v -0.281000 1.450392 -0.840000
v -0.285392 1.446000 -0.840000
v -0.287000 1.440000 -0.840000
v -0.285392 1.434000 -0.840000
v -0.281000 1.429608 -0.840000
v -0.279243 1.450392 -0.844243
v -0.282349 1.446000 -0.847348
v -0.283485 1.440000 -0.848485
v -0.282349 1.434000 -0.847348
v -0.279243 1.429608 -0.844243
v -0.275000 1.450392 -0.846000
v -0.275000 1.446000 -0.850392
v -0.275000 1.440000 -0.852000
v -0.275000 1.434000 -0.850392
v -0.275000 1.429608 -0.846000
v -0.270757 1.450392 -0.844243
v -0.267652 1.446000 -0.847348
v -0.266515 1.440000 -0.848485
v -0.267652 1.434000 -0.847348
v -0.270757 1.429608 -0.844243
v -0.269000 1.450392 -0.840000
v -0.264608 1.446000 -0.840000
v -0.263000 1.440000 -0.840000
v -0.264608 1.434000 -0.840000
v -0.269000 1.429608 -0.840000
v -0.270757 1.450392 -0.835757
v -0.267652 1.446000 -0.832651
v -0.266515 1.440000 -0.831515
v -0.267652 1.434000 -0.832651
v -0.270757 1.429608 -0.835757
v -0.275000 1.450392 -0.834000
v -0.275000 1.440000 -0.828000
v -0.275000 1.429608 -0.834000
vn -0.7001 0.7001 -0.1400
vn -0.7001 -0.7001 -0.1400
vn -0.0000 -0.0000 1.0000
vn 0.7001 -0.7001 -0.1400
vn 0.7001 0.7001 -0.1400
vn -0.2505 0.2517 0.9348
vn -0.6843 0.2517 0.6843
vn -0.9348 0.2517 0.2505
vn -0.9348 0.2517 -0.2505
vn -0.6843 0.2517 -0.6843
vn -0.2505 0.2517 -0.9348
vn 0.2505 0.2517 -0.9348
vn 0.6843 0.2517 -0.6843
vn 0.9348 0.2517 -0.2505
vn 0.9348 0.2517 0.2505
vn -0.0000 1.0000 -0.0000
vn 0.6843 0.2517 0.6843
vn 0.2505 0.2517 0.9348
vn -0.0000 -1.0000 -0.0000
vn -0.0000 -0.6437 0.7653
vn -0.0000 0.6437 0.7653
vn -0.4498 0.6437 0.6191
vn -0.4498 -0.6437 0.6191
vn -0.7278 0.6437 0.2365
vn -0.7278 -0.6437 0.2365
vn -0.7278 0.6437 -0.2365
vn -0.7278 -0.6437 -0.2365
vn -0.4498 0.6437 -0.6191
vn -0.4498 -0.6437 -0.6191
vn -0.0000 0.6437 -0.7653
vn -0.0000 -0.6437 -0.7653
vn 0.4498 0.6437 -0.6191
vn 0.4498 -0.6437 -0.6191
vn 0.7278 0.6437 -0.2365
vn 0.7278 -0.6437 -0.2365
vn 0.7278 0.6437 0.2365
vn 0.7278 -0.6437 0.2365
vn 0.4498 0.6437 0.6191
vn 0.4498 -0.6437 0.6191
vn -0.5689 -0.2517 -0.7830
vn -0.9204 -0.2517 0.2991
vn -0.0000 -0.2517 0.9678
vn 0.9204 -0.2517 0.2991
vn 0.5689 -0.2517 -0.7830
vn -0.0000 -0.8894 0.4572
vn -0.0000 -0.6419 0.7668
vn -0.3928 -0.6393 0.6610
vn -0.2355 -0.8882 0.3945
vn -0.0000 -0.3307 0.9437
vn -0.5098 -0.0000 0.8603
vn -0.4817 -0.3286 0.8124
vn -0.0000 0.3307 0.9437
vn -0.0000 0.6419 0.7668
vn -0.3928 0.6393 0.6610
vn -0.4817 0.3286 0.8124
vn -0.0000 0.8894 0.4572
vn -0.2355 0.8882 0.3945
vn -0.4050 0.8859 0.2261
vn -0.4050 -0.8859 0.2261
vn -0.8245 -0.3246 0.4634
vn -0.6743 -0.6343 0.3782
vn -0.8245 0.3246 0.4634
vn -0.8716 -0.0000 0.4902
vn -0.6743 0.6343 0.3782
vn -0.9465 -0.3226 -0.0000
vn -0.7751 -0.6318 -0.0000
vn -0.9465 0.3226 -0.0000
vn -1.0000 -0.0000 -0.0000
vn -0.4660 0.8848 -0.0000
vn -0.7751 0.6318 -0.0000
vn -0.4660 -0.8848 -0.0000
vn -0.6743 -0.6343 -0.3782
vn -0.4050 -0.8859 -0.2261
vn -0.8716 -0.0000 -0.4902
vn -0.8245 -0.3246 -0.4634
vn -0.6743 0.6343 -0.3782
vn -0.8245 0.3246 -0.4634
vn -0.4050 0.8859 -0.2261
vn -0.5098 -0.0000 -0.8603
vn -0.4817 -0.3286 -0.8124
vn -0.3928 0.6393 -0.6610
vn -0.4817 0.3286 -0.8124
vn -0.2355 0.8882 -0.3945
vn -0.2355 -0.8882 -0.3945
vn -0.3928 -0.6393 -0.6610
vn -0.0000 -0.8894 -0.4572
vn -0.0000 -0.3307 -0.9437
vn -0.0000 -0.6419 -0.7668
vn -0.0000 0.3307 -0.9437
vn -0.0000 -0.0000 -1.0000
vn -0.0000 0.8894 -0.4572
vn -0.0000 0.6419 -0.7668
vn 0.4817 0.3286 -0.8124
vn 0.5098 -0.0000 -0.8603
vn 0.2355 0.8882 -0.3945
vn 0.3928 0.6393 -0.6610
vn 0.3928 -0.6393 -0.6610
vn 0.2355 -0.8882 -0.3945
vn 0.4817 -0.3286 -0.8124
vn 0.6743 -0.6343 -0.3782
vn 0.4050 -0.8859 -0.2261
vn 0.8716 -0.0000 -0.4902
vn 0.8245 -0.3246 -0.4634
vn 0.6743 0.6343 -0.3782
vn 0.8245 0.3246 -0.4634
vn 0.4050 0.8859 -0.2261
vn 0.7751 0.6318 -0.0000
vn 0.9465 0.3226 -0.0000
vn 0.4660 0.8848 -0.0000
vn 0.4660 -0.8848 -0.0000
vn 0.9465 -0.3226 -0.0000
vn 0.7751 -0.6318 -0.0000
vn 1.0000 -0.0000 -0.0000
vn 0.4050 -0.8859 0.2261
vn 0.8245 -0.3246 0.4634
vn 0.6743 -0.6343 0.3782
vn 0.8245 0.3246 0.4634
vn 0.8716 -0.0000 0.4902
vn 0.4050 0.8859 0.2261
vn 0.6743 0.6343 0.3782
vn 0.2355 0.8882 0.3945
vn 0.3928 0.6393 0.6610
vn 0.3928 -0.6393 0.6610
vn 0.2355 -0.8882 0.3945
vn 0.5098 -0.0000 0.8603
vn 0.4817 -0.3286 0.8124
vn 0.4817 0.3286 0.8124
vn -0.0000 -0.3718 0.9283
vn -0.5000 -0.0000 0.8660
vn -0.4642 -0.3718 0.8040
vn -0.0000 0.3718 0.9283
vn -0.0000 0.6913 0.7226
vn -0.3613 0.6913 0.6258
vn -0.4642 0.3718 0.8040
vn -0.0000 0.9122 0.4097
vn -0.2049 0.9122 0.3548
vn -0.0000 -0.9122 0.4097
vn -0.2049 -0.9122 0.3548
vn -0.0000 -0.6913 0.7226
vn -0.3613 -0.6913 0.6258
vn -0.3548 -0.9122 0.2049
vn -0.8040 -0.3718 0.4642
vn -0.6258 -0.6913 0.3613
vn -0.8040 0.3718 0.4642
vn -0.8660 -0.0000 0.5000
vn -0.3548 0.9122 0.2049
vn -0.6258 0.6913 0.3613
vn -0.4097 0.9122 -0.0000
vn -0.7226 0.6913 -0.0000
vn -0.7226 -0.6913 -0.0000
vn -0.4097 -0.9122 -0.0000
vn -0.9283 -0.3718 -0.0000
vn -0.9283 0.3718 -0.0000
vn -0.6258 -0.6913 -0.3613
vn -0.3548 -0.9122 -0.2049
vn -0.8660 -0.0000 -0.5000
vn -0.8040 -0.3718 -0.4642
vn -0.6258 0.6913 -0.3613
vn -0.8040 0.3718 -0.4642
vn -0.3548 0.9122 -0.2049
vn -0.2049 0.9122 -0.3548
vn -0.2049 -0.9122 -0.3548
vn -0.4642 -0.3718 -0.8040
vn -0.3613 -0.6913 -0.6258
vn -0.4642 0.3718 -0.8040
vn -0.5000 -0.0000 -0.8660
vn -0.3613 0.6913 -0.6258
vn -0.0000 -0.3718 -0.9283
vn -0.0000 -0.6913 -0.7226
vn -0.0000 0.3718 -0.9283
vn -0.0000 0.9122 -0.4097
vn -0.0000 0.6913 -0.7226
vn -0.0000 -0.9122 -0.4097
vn 0.3613 -0.6913 -0.6258
vn 0.2049 -0.9122 -0.3548
vn 0.5000 -0.0000 -0.8660
vn 0.4642 -0.3718 -0.8040
vn 0.3613 0.6913 -0.6258
vn 0.4642 0.3718 -0.8040
vn 0.2049 0.9122 -0.3548
vn 0.8660 -0.0000 -0.5000
vn 0.8040 -0.3718 -0.4642
vn 0.6258 0.6913 -0.3613
vn 0.8040 0.3718 -0.4642
vn 0.3548 0.9122 -0.2049
vn 0.3548 -0.9122 -0.2049
vn 0.6258 -0.6913 -0.3613
vn 0.4097 -0.9122 -0.0000
vn 0.9283 -0.3718 -0.0000
vn 0.7226 -0.6913 -0.0000
vn 0.9283 0.3718 -0.0000
vn 0.4097 0.9122 -0.0000
vn 0.7226 0.6913 -0.0000
vn 0.8040 0.3718 0.4642
vn 0.8660 -0.0000 0.5000
vn 0.3548 0.9122 0.2049
vn 0.6258 0.6913 0.3613
vn 0.6258 -0.6913 0.3613
vn 0.3548 -0.9122 0.2049
vn 0.8040 -0.3718 0.4642
vn 0.3613 -0.6913 0.6258
vn 0.2049 -0.9122 0.3548
vn 0.5000 -0.0000 0.8660
vn 0.4642 -0.3718 0.8040
vn 0.3613 0.6913 0.6258
vn 0.4642 0.3718 0.8040
vn 0.2049 0.9122 0.3548
vn -0.0000 -0.8383 0.5452
vn -0.3855 -0.8383 0.3855
vn -0.0000 -0.4744 0.8803
vn -0.7071 -0.0000 0.7071
vn -0.6225 -0.4744 0.6225
vn -0.0000 0.4744 0.8803
vn -0.0000 0.8383 0.5452
vn -0.3855 0.8383 0.3855
vn -0.6225 0.4744 0.6225
vn -0.8803 -0.4744 -0.0000
vn -0.5452 0.8383 -0.0000
vn -0.8803 0.4744 -0.0000
vn -0.5452 -0.8383 -0.0000
vn -0.3855 0.8383 -0.3855
vn -0.6225 0.4744 -0.6225
vn -0.6225 -0.4744 -0.6225
vn -0.3855 -0.8383 -0.3855
vn -0.7071 -0.0000 -0.7071
vn -0.0000 -0.4744 -0.8803
vn -0.0000 -0.8383 -0.5452
vn -0.0000 0.4744 -0.8803
vn -0.0000 0.8383 -0.5452
vn 0.6225 -0.4744 -0.6225
vn 0.3855 -0.8383 -0.3855
vn 0.6225 0.4744 -0.6225
vn 0.7071 -0.0000 -0.7071
vn 0.3855 0.8383 -0.3855
vn 0.8803 -0.4744 -0.0000
vn 0.5452 -0.8383 -0.0000
vn 0.8803 0.4744 -0.0000
vn 0.5452 0.8383 -0.0000
vn 0.6225 -0.4744 0.6225
vn 0.3855 -0.8383 0.3855
vn 0.6225 0.4744 0.6225
vn 0.7071 -0.0000 0.7071
vn 0.3855 0.8383 0.3855
vn -0.0201 0.9947 0.1007
vn 0.1868 0.3050 -0.9339
vn -0.3760 0.1147 -0.9195
vn -0.5829 0.8044 0.1151
vn -0.6579 -0.3449 -0.6696
vn -0.8648 0.3449 0.3650
vn -0.4938 -0.8044 -0.3304
vn -0.7007 -0.1147 0.7042
vn 0.0201 -0.9947 -0.1007
vn -0.1868 -0.3050 0.9339
vn 0.5829 -0.8044 -0.1151
vn 0.3760 -0.1147 0.9195
vn 0.8648 -0.3449 -0.3650
vn 0.6579 0.3449 0.6696
vn 0.7007 0.1147 -0.7042
vn 0.4938 0.8044 0.3304
vn 0.0527 0.9053 0.4215
vn -0.0991 0.6018 -0.7925
vn -0.6370 0.3811 -0.6701
vn -0.4853 0.6846 0.5439
vn -0.8463 -0.1517 -0.5107
vn -0.6945 0.1517 0.7033
vn -0.6042 -0.6846 -0.4077
vn -0.4525 -0.3811 0.8062
vn -0.0527 -0.9053 -0.4215
vn 0.0991 -0.6018 0.7925
vn 0.4853 -0.6846 -0.5439
vn 0.6370 -0.3811 0.6701
vn 0.6945 -0.1517 -0.7033
vn 0.8463 0.1517 0.5107
vn 0.4525 0.3811 -0.8062
vn 0.6042 0.6846 0.4077
vn 0.0605 0.9591 0.2765
vn -0.1786 0.5493 -0.8163
vn -0.8840 0.0281 -0.4666
vn -0.6450 0.4380 0.6263
vn -0.5330 -0.8151 -0.2272
vn -0.2939 -0.4052 0.8657
vn 0.3894 -0.8151 -0.4290
vn 0.6285 -0.4052 0.6639
vn 0.6085 0.0281 -0.7931
vn 0.8475 0.4380 0.2998
vn -0.0000 0.9612 0.2758
vn -0.0000 0.5429 -0.8398
vn -0.7639 0.0232 -0.6449
vn -0.7639 0.4416 0.4706
vn -0.4721 -0.8176 -0.3296
vn -0.4721 -0.3993 0.7859
vn 0.4721 -0.8176 -0.3296
vn 0.4721 -0.3993 0.7859
vn 0.7639 0.0232 -0.6449
vn 0.7639 0.4416 0.4706
vn -0.0605 0.9591 0.2765
vn 0.1786 0.5493 -0.8163
vn -0.6085 0.0281 -0.7931
vn -0.8475 0.4380 0.2998
vn -0.3894 -0.8151 -0.4290
vn -0.6285 -0.4052 0.6639
vn 0.5330 -0.8151 -0.2272
vn 0.2939 -0.4052 0.8657
vn 0.8840 0.0281 -0.4666
vn 0.6450 0.4380 0.6263
vn 0.0201 0.9947 0.1007
vn -0.1868 0.3050 -0.9339
vn -0.7007 0.1147 -0.7042
vn -0.4938 0.8044 0.3304
vn -0.8648 -0.3449 -0.3650
vn -0.6579 0.3449 0.6696
vn -0.5829 -0.8044 -0.1151
vn -0.3760 -0.1147 0.9195
vn -0.0201 -0.9947 -0.1007
vn 0.1868 -0.3050 0.9339
vn 0.4938 -0.8044 -0.3304
vn 0.7007 -0.1147 0.7042
vn 0.6579 -0.3449 -0.6696
vn 0.8648 0.3449 0.3650
vn 0.3760 0.1147 -0.9195
vn 0.5829 0.8044 0.1151
vn -0.0527 0.9053 0.4215
vn 0.0991 0.6018 -0.7925
vn -0.4525 0.3811 -0.8062
vn -0.6042 0.6846 0.4077
vn -0.6945 -0.1517 -0.7033
vn -0.8463 0.1517 0.5107
vn -0.4853 -0.6846 -0.5439
vn -0.6370 -0.3811 0.6701
vn 0.0527 -0.9053 -0.4215
vn -0.0991 -0.6018 0.7925
vn 0.6042 -0.6846 -0.4077
vn 0.4525 -0.3811 0.8062
vn 0.8463 -0.1517 -0.5107
vn 0.6945 0.1517 0.7033
vn 0.6370 0.3811 -0.6701
vn 0.4853 0.6846 0.5439
vt 0.250000 0.490000
vt 0.250000 0.250000
vt 0.490000 0.250000
vt 0.250000 0.010000
vt 0.750000 0.490000
vt 0.990000 0.250000
vt 0.750000 0.010000
vt 0.510000 0.250000
vt 0.010000 0.250000
vt 1.000000 0.500000
vt 1.000000 1.000000
vt 0.916667 1.000000
vt 0.916667 0.500000
vt 0.833333 1.000000
vt 0.833333 0.500000
vt 0.750000 1.000000
vt 0.750000 0.500000
vt 0.666667 1.000000
vt 0.666667 0.500000
vt 0.583333 1.000000
vt 0.583333 0.500000
vt 0.500000 1.000000
vt 0.500000 0.500000
vt 0.416667 1.000000
vt 0.416667 0.500000
vt 0.333333 1.000000
vt 0.333333 0.500000
vt 0.250000 1.000000
vt 0.250000 0.500000
vt 0.166667 1.000000
vt 0.166667 0.500000
vt 0.370000 0.457846
vt 0.130000 0.457846
vt 0.042154 0.370000
vt 0.010000 0.250000
vt 0.042154 0.130000
vt 0.130000 0.042154
vt 0.250000 0.010000
vt 0.370000 0.042154
vt 0.457846 0.130000
vt 0.457846 0.370000
vt 0.083333 1.000000
vt 0.083333 0.500000
vt 0.000000 1.000000
vt 0.000000 0.500000
vt 0.870000 0.457846
vt 0.957846 0.370000
vt 0.957846 0.130000
vt 0.870000 0.042154
vt 0.750000 0.010000
vt 0.630000 0.042154
vt 0.542154 0.130000
vt 0.542154 0.370000
vt 0.630000 0.457846
vt 0.900000 1.000000
vt 0.900000 0.500000
vt 0.800000 1.000000
vt 0.800000 0.500000
vt 0.700000 1.000000
vt 0.700000 0.500000
vt 0.600000 1.000000
vt 0.600000 0.500000
vt 0.500000 1.000000
vt 0.500000 0.500000
vt 0.400000 1.000000
vt 0.400000 0.500000
vt 0.300000 1.000000
vt 0.300000 0.500000
vt 0.200000 1.000000
vt 0.200000 0.500000
vt 0.391068 0.444164
vt 0.108932 0.444164
vt 0.021746 0.324164
vt 0.021746 0.175836
vt 0.108932 0.055836
vt 0.391068 0.055836
vt 0.478254 0.175836
vt 0.478254 0.324164
vt 0.100000 1.000000
vt 0.100000 0.500000
vt -0.000000 1.000000
vt -0.000000 0.500000
vt 0.891068 0.444164
vt 0.978254 0.324164
vt 0.978254 0.175836
vt 0.891068 0.055836
vt 0.608932 0.055836
vt 0.521746 0.175836
vt 0.521746 0.324164
vt 0.608932 0.444164
vt 0.478254 0.324164
vt 0.108932 0.055836
vt 0.978254 0.324164
vt 0.521746 0.324164
vt 0.021746 0.324164
vt 0.750000 0.125000
vt 0.750000 0.250000
vt 0.666667 0.250000
vt 0.666667 0.125000
vt 0.750000 0.375000
vt 0.750000 0.500000
vt 0.666667 0.500000
vt 0.666667 0.375000
vt 0.750000 0.625000
vt 0.750000 0.750000
vt 0.666667 0.750000
vt 0.666667 0.625000
vt 0.750000 0.875000
vt 0.708333 1.000000
vt 0.666667 0.875000
vt 0.708333 0.000000
vt 0.625000 1.000000
vt 0.583333 0.875000
vt 0.625000 0.000000
vt 0.583333 0.125000
vt 0.583333 0.375000
vt 0.583333 0.250000
vt 0.583333 0.625000
vt 0.583333 0.500000
vt 0.583333 0.750000
vt 0.500000 0.375000
vt 0.500000 0.250000
vt 0.500000 0.625000
vt 0.500000 0.500000
vt 0.500000 0.875000
vt 0.500000 0.750000
vt 0.500000 0.125000
vt 0.541667 1.000000
vt 0.541667 0.000000
vt 0.416667 0.250000
vt 0.416667 0.125000
vt 0.416667 0.500000
vt 0.416667 0.375000
vt 0.416667 0.750000
vt 0.416667 0.625000
vt 0.458333 1.000000
vt 0.416667 0.875000
vt 0.458333 0.000000
vt 0.333333 0.500000
vt 0.333333 0.375000
vt 0.333333 0.750000
vt 0.333333 0.625000
vt 0.375000 1.000000
vt 0.333333 0.875000
vt 0.375000 0.000000
vt 0.333333 0.125000
vt 0.333333 0.250000
vt 0.291667 0.000000
vt 0.250000 0.125000
vt 0.250000 0.375000
vt 0.250000 0.625000
vt 0.250000 0.500000
vt 0.250000 0.875000
vt 0.250000 0.750000
vt 0.291667 1.000000
vt 0.166667 0.625000
vt 0.166667 0.500000
vt 0.166667 0.875000
vt 0.166667 0.750000
vt 0.166667 0.250000
vt 0.166667 0.125000
vt 0.166667 0.375000
vt 0.208333 1.000000
vt 0.208333 0.000000
vt 0.083333 0.250000
vt 0.083333 0.125000
vt 0.083333 0.500000
vt 0.083333 0.375000
vt 0.083333 0.750000
vt 0.083333 0.625000
vt 0.125000 1.000000
vt 0.083333 0.875000
vt 0.125000 0.000000
vt 0.000000 0.750000
vt 0.000000 0.625000
vt 0.041667 1.000000
vt 0.000000 0.875000
vt 0.041667 0.000000
vt 0.000000 0.125000
vt 0.000000 0.375000
vt 0.000000 0.250000
vt 0.000000 0.500000
vt 0.958333 0.000000
vt 1.000000 0.125000
vt 0.916667 0.125000
vt 1.000000 0.250000
vt 1.000000 0.375000
vt 0.916667 0.375000
vt 0.916667 0.250000
vt 1.000000 0.625000
vt 0.916667 0.625000
vt 0.916667 0.500000
vt 1.000000 0.750000
vt 1.000000 0.875000
vt 0.916667 0.875000
vt 0.916667 0.750000
vt 0.958333 1.000000
vt 0.833333 0.875000
vt 0.833333 0.750000
vt 0.833333 0.250000
vt 0.833333 0.125000
vt 0.833333 0.500000
vt 0.833333 0.375000
vt 0.833333 0.625000
vt 0.875000 1.000000
vt 0.875000 0.000000
vt 0.791667 1.000000
vt 0.791667 0.000000
vt 0.750000 0.375000
vt 0.750000 0.500000
vt 0.666667 0.750000
vt 0.750000 0.875000
vt 0.583333 0.625000
vt 0.583333 0.750000
vt 0.541667 1.000000
vt 0.541667 0.000000
vt 0.333333 0.625000
vt 0.333333 0.750000
vt 0.250000 0.250000
vt 0.250000 0.875000
vt 0.250000 0.750000
vt 0.250000 0.125000
vt 0.291667 1.000000
vt 0.291667 0.000000
vt 0.166667 0.125000
vt 0.166667 0.875000
vt 0.083333 0.750000
vt 0.125000 1.000000
vt 0.083333 0.875000
vt 0.125000 0.000000
vt 0.083333 0.125000
vt 0.083333 0.250000
vt 0.041667 0.000000
vt 0.041667 1.000000
vt 0.916667 0.125000
vt 0.833333 0.250000
vt 0.833333 0.125000
vt 0.833333 0.750000
vt 0.875000 1.000000
vt 0.833333 0.875000
vt 0.875000 0.000000
vt 0.625000 0.250000
vt 0.375000 0.250000
vt 0.625000 0.500000
vt 0.375000 0.500000
vt 0.625000 0.750000
vt 0.375000 0.750000
vt 0.125000 0.500000
vt 0.125000 0.750000
vt 0.875000 0.500000
vt 0.875000 0.750000
vt 0.687500 0.000000
vt 0.750000 0.166667
vt 0.625000 0.166667
vt 0.750000 0.333333
vt 0.625000 0.333333
vt 0.750000 0.666667
vt 0.750000 0.833333
vt 0.625000 0.833333
vt 0.625000 0.666667
vt 0.687500 1.000000
vt 0.500000 0.333333
vt 0.500000 0.833333
vt 0.500000 0.666667
vt 0.500000 0.166667
vt 0.562500 1.000000
vt 0.562500 0.000000
vt 0.375000 0.833333
vt 0.375000 0.666667
vt 0.375000 0.333333
vt 0.375000 0.166667
vt 0.437500 1.000000
vt 0.437500 0.000000
vt 0.250000 0.333333
vt 0.250000 0.166667
vt 0.250000 0.666667
vt 0.312500 1.000000
vt 0.250000 0.833333
vt 0.312500 0.000000
vt 0.125000 0.333333
vt 0.125000 0.166667
vt 0.125000 0.666667
vt 0.187500 1.000000
vt 0.125000 0.833333
vt 0.187500 0.000000
vt 0.000000 0.333333
vt 0.000000 0.166667
vt 0.000000 0.666667
vt 0.062500 1.000000
vt 0.000000 0.833333
vt 0.062500 0.000000
vt 1.000000 0.166667
vt 1.000000 0.333333
vt 0.875000 0.333333
vt 0.875000 0.166667
vt 1.000000 0.666667
vt 0.875000 0.666667
vt 1.000000 0.833333
vt 0.937500 1.000000
vt 0.875000 0.833333
vt 0.937500 0.000000
vt 0.812500 1.000000
vt 0.812500 0.000000
vt 0.750000 1.000000
vt 0.500000 1.000000
vt 0.250000 1.000000
vt 0.419706 0.419706
vt 0.080294 0.419706
vt 0.080294 0.080294
vt 0.419706 0.080294
vt 0.000000 1.000000
vt 0.919706 0.419706
vt 0.919706 0.080294
vt 0.580294 0.080294
vt 0.580294 0.419706
vt 0.750000 0.666667
vt 0.750000 0.833333
vt 0.625000 0.833333
vt 0.500000 0.833333
vt 0.500000 0.666667
vt 0.375000 0.833333
vt 0.250000 0.666667
vt 0.250000 0.833333
vt 0.125000 0.833333
vt 0.000000 0.666667
vt 0.000000 0.833333
vt 1.000000 0.666667
vt 1.000000 0.833333
vt 0.875000 0.833333
vt 0.800000 1.000000
vt 0.800000 0.500000
vt 0.600000 1.000000
vt 0.600000 0.500000
vt 0.400000 1.000000
vt 0.400000 0.500000
vt 0.200000 1.000000
vt 0.200000 0.500000
vt 0.000000 1.000000
vt 0.000000 0.500000
vt 0.625000 0.666667
vt 0.375000 0.666667
vt 0.125000 0.666667
vt 0.875000 0.666667
s 0
usemtl KN_Kuku
f 1/1/1 5/2/1 2/3/1
f 2/3/2 5/2/2 3/4/2
f 1/5/3 2/6/3 3/7/3 4/8/3
f 3/4/4 5/2/4 4/9/4
f 4/9/5 5/2/5 1/1/5
f 562/1/1 566/2/1 563/3/1
f 563/3/2 566/2/2 564/4/2
f 562/5/3 563/6/3 564/7/3 565/8/3
f 564/4/4 566/2/4 565/9/4
f 565/9/5 566/2/5 562/1/5
f 619/1/1 623/2/1 620/3/1
f 620/3/2 623/2/2 621/4/2
f 619/5/3 620/6/3 621/7/3 622/8/3
f 621/4/4 623/2/4 622/9/4
f 622/9/5 623/2/5 619/1/5
f 676/1/1 680/2/1 677/3/1
f 677/3/2 680/2/2 678/4/2
f 676/5/3 677/6/3 678/7/3 679/8/3
f 678/4/4 680/2/4 679/9/4
f 679/9/5 680/2/5 676/1/5
f 891/1/1 895/2/1 892/3/1
f 892/3/2 895/2/2 893/4/2
f 891/5/3 892/6/3 893/7/3 894/8/3
f 893/4/4 895/2/4 894/9/4
f 894/9/5 895/2/5 891/1/5
f 948/1/1 952/2/1 949/3/1
f 949/3/2 952/2/2 950/4/2
f 948/5/3 949/6/3 950/7/3 951/8/3
f 950/4/4 952/2/4 951/9/4
f 951/9/5 952/2/5 948/1/5
usemtl KN_Gaun
f 6/10/6 7/11/6 9/12/6 8/13/6
f 8/13/7 9/12/7 11/14/7 10/15/7
f 10/15/8 11/14/8 13/16/8 12/17/8
f 12/17/9 13/16/9 15/18/9 14/19/9
f 14/19/10 15/18/10 17/20/10 16/21/10
f 16/21/11 17/20/11 19/22/11 18/23/11
f 18/23/12 19/22/12 21/24/12 20/25/12
f 20/25/13 21/24/13 23/26/13 22/27/13
f 22/27/14 23/26/14 25/28/14 24/29/14
f 24/29/15 25/28/15 27/30/15 26/31/15
f 9/32/16 7/1/16 29/33/16 27/34/16 25/35/16 23/36/16 21/37/16 19/38/16 17/39/16 15/40/16 13/3/16 11/41/16
f 26/31/17 27/30/17 29/42/17 28/43/17
f 28/43/18 29/42/18 7/44/18 6/45/18
f 6/5/19 8/46/19 10/47/19 12/6/19 14/48/19 16/49/19 18/50/19 20/51/19 22/52/19 24/8/19 26/53/19 28/54/19
s 1
f 30/10/20 31/11/21 33/55/22 32/56/23
f 32/56/23 33/55/22 35/57/24 34/58/25
f 34/58/25 35/57/24 37/59/26 36/60/27
f 36/60/27 37/59/26 39/61/28 38/62/29
f 38/62/29 39/61/28 41/63/30 40/64/31
f 40/64/31 41/63/30 43/65/32 42/66/33
f 42/66/33 43/65/32 45/67/34 44/68/35
f 44/68/35 45/67/34 47/69/36 46/70/37
f 33/71/22 31/1/21 49/72/38 47/73/36 45/74/34 43/75/32 41/38/30 39/76/28 37/77/26 35/78/24
f 46/70/37 47/69/36 49/79/38 48/80/39
f 48/80/39 49/79/38 31/81/21 30/82/20
f 30/5/20 32/83/23 34/84/25 36/85/27 38/86/29 40/50/31 42/87/33 44/88/35 46/89/37 48/90/39
f 352/10/244 353/11/245 355/205/246 354/250/247
f 354/250/247 355/205/246 357/304/248 356/101/249
f 356/101/249 357/304/248 359/112/250 358/244/251
f 358/244/251 359/112/250 361/305/252 360/124/253
f 360/124/253 361/305/252 363/143/254 362/245/255
f 362/245/255 363/143/254 365/306/256 364/152/257
f 355/307/246 353/1/245 367/308/258 365/35/256 363/309/254 361/38/252 359/310/250 357/3/248
f 364/152/257 365/306/256 367/171/258 366/248/259
f 366/248/259 367/171/258 353/311/245 352/182/244
f 352/5/244 354/312/247 356/6/249 358/313/251 360/50/253 362/314/255 364/8/257 366/315/259
f 374/252/19 373/253/208 379/254/209
f 372/255/210 371/101/3 377/244/211 378/256/212
f 370/316/213 369/317/214 375/318/215 376/260/216
f 373/253/208 372/255/210 378/256/212 379/254/209
f 371/101/3 370/316/213 376/260/216 377/244/211
f 369/317/214 368/261/16 375/318/215
f 376/260/216 375/318/215 380/319/218 381/320/219
f 379/254/209 378/256/212 383/262/217 384/265/220
f 377/244/211 376/260/216 381/320/219 382/124/68
f 375/318/215 368/266/16 380/319/218
f 374/267/19 379/254/209 384/265/220
f 378/256/212 377/244/211 382/124/68 383/262/217
f 384/265/220 383/262/217 388/270/223 389/271/224
f 382/124/68 381/320/219 386/269/222 387/245/225
f 380/319/218 368/272/16 385/321/221
f 374/273/19 384/265/220 389/271/224
f 383/262/217 382/124/68 387/245/225 388/270/223
f 381/320/219 380/319/218 385/321/221 386/269/222
f 389/271/224 388/270/223 393/274/226 394/275/227
f 387/245/225 386/269/222 391/322/228 392/152/90
f 385/321/221 368/277/16 390/323/229
f 374/279/19 389/271/224 394/275/227
f 388/270/223 387/245/225 392/152/90 393/274/226
f 386/269/222 385/321/221 390/323/229 391/322/228
f 394/275/227 393/274/226 398/280/230 399/281/231
f 392/152/90 391/322/228 396/282/232 397/248/233
f 390/323/229 368/283/16 395/324/234
f 374/285/19 394/275/227 399/281/231
f 393/274/226 392/152/90 397/248/233 398/280/230
f 391/322/228 390/323/229 395/324/234 396/282/232
f 399/281/231 398/280/230 403/286/235 404/287/236
f 397/248/233 396/282/232 401/325/237 402/182/113
f 395/324/234 368/289/16 400/326/238
f 374/291/19 399/281/231 404/287/236
f 398/280/230 397/248/233 402/182/113 403/286/235
f 396/282/232 395/324/234 400/326/238 401/325/237
f 402/10/113 401/327/237 406/297/241 407/250/242
f 400/328/238 368/299/16 405/329/243
f 374/301/19 404/292/236 409/295/240
f 403/293/235 402/10/113 407/250/242 408/294/239
f 401/327/237 400/328/238 405/329/243 406/297/241
f 404/292/236 403/293/235 408/294/239 409/295/240
f 405/329/243 368/302/16 369/317/214
f 374/303/19 409/295/240 373/253/208
f 408/294/239 407/250/242 371/101/3 372/255/210
f 406/297/241 405/329/243 369/317/214 370/316/213
f 409/295/240 408/294/239 372/255/210 373/253/208
f 407/250/242 406/297/241 370/316/213 371/101/3
f 410/10/260 411/11/261 413/205/262 412/250/263
f 412/250/263 413/205/262 415/304/264 414/101/265
f 414/101/265 415/304/264 417/112/266 416/244/267
f 416/244/267 417/112/266 419/305/268 418/124/269
f 418/124/269 419/305/268 421/143/270 420/245/271
f 420/245/271 421/143/270 423/306/272 422/152/273
f 413/307/262 411/1/261 425/308/274 423/35/272 421/309/270 419/38/268 417/310/266 415/3/264
f 422/152/273 423/306/272 425/171/274 424/248/275
f 424/248/275 425/171/274 411/311/261 410/182/260
f 410/5/260 412/312/263 414/6/265 416/313/267 418/50/269 420/314/271 422/8/273 424/315/275
f 432/252/19 431/253/208 437/254/209
f 430/255/210 429/101/3 435/244/211 436/256/212
f 428/316/213 427/317/214 433/318/215 434/260/216
f 431/253/208 430/255/210 436/256/212 437/254/209
f 429/101/3 428/316/213 434/260/216 435/244/211
f 427/317/214 426/261/16 433/318/215
f 437/254/209 436/256/212 441/262/217 442/265/220
f 435/244/211 434/260/216 439/320/219 440/124/68
f 433/318/215 426/266/16 438/319/218
f 432/267/19 437/254/209 442/265/220
f 436/256/212 435/244/211 440/124/68 441/262/217
f 434/260/216 433/318/215 438/319/218 439/320/219
f 442/265/220 441/262/217 446/270/223 447/271/224
f 440/124/68 439/320/219 444/269/222 445/245/225
f 438/319/218 426/272/16 443/321/221
f 432/273/19 442/265/220 447/271/224
f 441/262/217 440/124/68 445/245/225 446/270/223
f 439/320/219 438/319/218 443/321/221 444/269/222
f 447/271/224 446/270/223 451/274/226 452/275/227
f 445/245/225 444/269/222 449/322/228 450/152/90
f 443/321/221 426/277/16 448/323/229
f 432/279/19 447/271/224 452/275/227
f 446/270/223 445/245/225 450/152/90 451/274/226
f 444/269/222 443/321/221 448/323/229 449/322/228
f 452/275/227 451/274/226 456/280/230 457/281/231
f 450/152/90 449/322/228 454/282/232 455/248/233
f 448/323/229 426/283/16 453/324/234
f 432/285/19 452/275/227 457/281/231
f 451/274/226 450/152/90 455/248/233 456/280/230
f 449/322/228 448/323/229 453/324/234 454/282/232
f 455/248/233 454/282/232 459/325/237 460/182/113
f 453/324/234 426/289/16 458/326/238
f 432/291/19 457/281/231 462/287/236
f 456/280/230 455/248/233 460/182/113 461/286/235
f 454/282/232 453/324/234 458/326/238 459/325/237
f 457/281/231 456/280/230 461/286/235 462/287/236
f 458/328/238 426/299/16 463/329/243
f 432/301/19 462/292/236 467/295/240
f 461/293/235 460/10/113 465/250/242 466/294/239
f 459/327/237 458/328/238 463/329/243 464/297/241
f 462/292/236 461/293/235 466/294/239 467/295/240
f 460/10/113 459/327/237 464/297/241 465/250/242
f 432/303/19 467/295/240 431/253/208
f 466/294/239 465/250/242 429/101/3 430/255/210
f 464/297/241 463/329/243 427/317/214 428/316/213
f 467/295/240 466/294/239 430/255/210 431/253/208
f 465/250/242 464/297/241 428/316/213 429/101/3
f 463/329/243 426/302/16 427/317/214
f 681/10/306 682/11/307 684/205/308 683/250/309
f 683/250/309 684/205/308 686/304/310 685/101/311
f 685/101/311 686/304/310 688/112/312 687/244/313
f 687/244/313 688/112/312 690/305/314 689/124/315
f 689/124/315 690/305/314 692/143/316 691/245/317
f 691/245/317 692/143/316 694/306/318 693/152/319
f 684/307/308 682/1/307 696/308/320 694/35/318 692/309/316 690/38/314 688/310/312 686/3/310
f 693/152/319 694/306/318 696/171/320 695/248/321
f 695/248/321 696/171/320 682/311/307 681/182/306
f 681/5/306 683/312/309 685/6/311 687/313/313 689/50/315 691/314/317 693/8/319 695/315/321
f 703/252/19 702/253/208 708/254/209
f 701/255/210 700/101/3 706/244/211 707/256/212
f 699/316/213 698/317/214 704/318/215 705/260/216
f 702/253/208 701/255/210 707/256/212 708/254/209
f 700/101/3 699/316/213 705/260/216 706/244/211
f 698/317/214 697/261/16 704/318/215
f 708/254/209 707/256/212 712/262/217 713/265/220
f 706/244/211 705/260/216 710/320/219 711/124/68
f 704/318/215 697/266/16 709/319/218
f 703/267/19 708/254/209 713/265/220
f 707/256/212 706/244/211 711/124/68 712/262/217
f 705/260/216 704/318/215 709/319/218 710/320/219
f 713/265/220 712/262/217 717/270/223 718/271/224
f 711/124/68 710/320/219 715/269/222 716/245/225
f 709/319/218 697/272/16 714/321/221
f 703/273/19 713/265/220 718/271/224
f 712/262/217 711/124/68 716/245/225 717/270/223
f 710/320/219 709/319/218 714/321/221 715/269/222
f 718/271/224 717/270/223 722/274/226 723/275/227
f 716/245/225 715/269/222 720/322/228 721/152/90
f 714/321/221 697/277/16 719/323/229
f 703/279/19 718/271/224 723/275/227
f 717/270/223 716/245/225 721/152/90 722/274/226
f 715/269/222 714/321/221 719/323/229 720/322/228
f 723/275/227 722/274/226 727/280/230 728/281/231
f 721/152/90 720/322/228 725/282/232 726/248/233
f 719/323/229 697/283/16 724/324/234
f 703/285/19 723/275/227 728/281/231
f 722/274/226 721/152/90 726/248/233 727/280/230
f 720/322/228 719/323/229 724/324/234 725/282/232
f 726/248/233 725/282/232 730/325/237 731/182/113
f 724/324/234 697/289/16 729/326/238
f 703/291/19 728/281/231 733/287/236
f 727/280/230 726/248/233 731/182/113 732/286/235
f 725/282/232 724/324/234 729/326/238 730/325/237
f 728/281/231 727/280/230 732/286/235 733/287/236
f 729/328/238 697/299/16 734/329/243
f 703/301/19 733/292/236 738/295/240
f 732/293/235 731/10/113 736/250/242 737/294/239
f 730/327/237 729/328/238 734/329/243 735/297/241
f 733/292/236 732/293/235 737/294/239 738/295/240
f 731/10/113 730/327/237 735/297/241 736/250/242
f 703/303/19 738/295/240 702/253/208
f 737/294/239 736/250/242 700/101/3 701/255/210
f 735/297/241 734/329/243 698/317/214 699/316/213
f 738/295/240 737/294/239 701/255/210 702/253/208
f 736/250/242 735/297/241 699/316/213 700/101/3
f 734/329/243 697/302/16 698/317/214
f 739/10/322 740/11/323 742/205/324 741/250/325
f 741/250/325 742/205/324 744/304/326 743/101/327
f 743/101/327 744/304/326 746/112/328 745/244/329
f 745/244/329 746/112/328 748/305/330 747/124/331
f 747/124/331 748/305/330 750/143/332 749/245/333
f 749/245/333 750/143/332 752/306/334 751/152/335
f 742/307/324 740/1/323 754/308/336 752/35/334 750/309/332 748/38/330 746/310/328 744/3/326
f 751/152/335 752/306/334 754/171/336 753/248/337
f 753/248/337 754/171/336 740/311/323 739/182/322
f 739/5/322 741/312/325 743/6/327 745/313/329 747/50/331 749/314/333 751/8/335 753/315/337
f 759/255/210 758/101/3 764/244/211 765/256/212
f 757/316/213 756/317/214 762/318/215 763/260/216
f 760/253/208 759/255/210 765/256/212 766/254/209
f 758/101/3 757/316/213 763/260/216 764/244/211
f 756/317/214 755/261/16 762/318/215
f 761/252/19 760/253/208 766/254/209
f 766/254/209 765/256/212 770/262/217 771/265/220
f 764/244/211 763/260/216 768/320/219 769/124/68
f 762/318/215 755/266/16 767/319/218
f 761/267/19 766/254/209 771/265/220
f 765/256/212 764/244/211 769/124/68 770/262/217
f 763/260/216 762/318/215 767/319/218 768/320/219
f 771/265/220 770/262/217 775/270/223 776/271/224
f 769/124/68 768/320/219 773/269/222 774/245/225
f 767/319/218 755/272/16 772/321/221
f 761/273/19 771/265/220 776/271/224
f 770/262/217 769/124/68 774/245/225 775/270/223
f 768/320/219 767/319/218 772/321/221 773/269/222
f 776/271/224 775/270/223 780/274/226 781/275/227
f 774/245/225 773/269/222 778/322/228 779/152/90
f 772/321/221 755/277/16 777/323/229
f 761/279/19 776/271/224 781/275/227
f 775/270/223 774/245/225 779/152/90 780/274/226
f 773/269/222 772/321/221 777/323/229 778/322/228
f 779/152/90 778/322/228 783/282/232 784/248/233
f 777/323/229 755/283/16 782/324/234
f 761/285/19 781/275/227 786/281/231
f 780/274/226 779/152/90 784/248/233 785/280/230
f 778/322/228 777/323/229 782/324/234 783/282/232
f 781/275/227 780/274/226 785/280/230 786/281/231
f 782/324/234 755/289/16 787/326/238
f 761/291/19 786/281/231 791/287/236
f 785/280/230 784/248/233 789/182/113 790/286/235
f 783/282/232 782/324/234 787/326/238 788/325/237
f 786/281/231 785/280/230 790/286/235 791/287/236
f 784/248/233 783/282/232 788/325/237 789/182/113
f 761/301/19 791/292/236 796/295/240
f 790/293/235 789/10/113 794/250/242 795/294/239
f 788/327/237 787/328/238 792/329/243 793/297/241
f 791/292/236 790/293/235 795/294/239 796/295/240
f 789/10/113 788/327/237 793/297/241 794/250/242
f 787/328/238 755/299/16 792/329/243
f 761/303/19 796/295/240 760/253/208
f 795/294/239 794/250/242 758/101/3 759/255/210
f 793/297/241 792/329/243 756/317/214 757/316/213
f 796/295/240 795/294/239 759/255/210 760/253/208
f 794/250/242 793/297/241 757/316/213 758/101/3
f 792/329/243 755/302/16 756/317/214
s 0
usemtl KN_GaunBayang
f 50/1/40 55/2/40 51/91/40
f 51/91/41 55/2/41 52/76/41
f 52/76/42 55/2/42 53/92/42
f 50/5/16 51/93/16 52/86/16 53/87/16 54/94/16
f 53/92/43 55/2/43 54/95/43
f 54/95/44 55/2/44 50/1/44
f 56/1/40 61/2/40 57/91/40
f 57/91/41 61/2/41 58/76/41
f 58/76/42 61/2/42 59/92/42
f 56/5/16 57/93/16 58/86/16 59/87/16 60/94/16
f 59/92/43 61/2/43 60/95/43
f 60/95/44 61/2/44 56/1/44
f 62/1/40 67/2/40 63/91/40
f 63/91/41 67/2/41 64/76/41
f 64/76/42 67/2/42 65/92/42
f 62/5/16 63/93/16 64/86/16 65/87/16 66/94/16
f 65/92/43 67/2/43 66/95/43
f 66/95/44 67/2/44 62/1/44
f 68/1/40 73/2/40 69/91/40
f 69/91/41 73/2/41 70/76/41
f 70/76/42 73/2/42 71/92/42
f 68/5/16 69/93/16 70/86/16 71/87/16 72/94/16
f 71/92/43 73/2/43 72/95/43
f 72/95/44 73/2/44 68/1/44
f 74/1/40 79/2/40 75/91/40
f 75/91/41 79/2/41 76/76/41
f 76/76/42 79/2/42 77/92/42
f 74/5/16 75/93/16 76/86/16 77/87/16 78/94/16
f 77/92/43 79/2/43 78/95/43
f 78/95/44 79/2/44 74/1/44
f 80/1/40 85/2/40 81/91/40
f 81/91/41 85/2/41 82/76/41
f 82/76/42 85/2/42 83/92/42
f 80/5/16 81/93/16 82/86/16 83/87/16 84/94/16
f 83/92/43 85/2/43 84/95/43
f 84/95/44 85/2/44 80/1/44
f 86/1/40 91/2/40 87/91/40
f 87/91/41 91/2/41 88/76/41
f 88/76/42 91/2/42 89/92/42
f 86/5/16 87/93/16 88/86/16 89/87/16 90/94/16
f 89/92/43 91/2/43 90/95/43
f 90/95/44 91/2/44 86/1/44
f 92/1/40 97/2/40 93/91/40
f 93/91/41 97/2/41 94/76/41
f 94/76/42 97/2/42 95/92/42
f 92/5/16 93/93/16 94/86/16 95/87/16 96/94/16
f 95/92/43 97/2/43 96/95/43
f 96/95/44 97/2/44 92/1/44
f 98/1/40 103/2/40 99/91/40
f 99/91/41 103/2/41 100/76/41
f 100/76/42 103/2/42 101/92/42
f 98/5/16 99/93/16 100/86/16 101/87/16 102/94/16
f 101/92/43 103/2/43 102/95/43
f 102/95/44 103/2/44 98/1/44
f 104/1/40 109/2/40 105/91/40
f 105/91/41 109/2/41 106/76/41
f 106/76/42 109/2/42 107/92/42
f 104/5/16 105/93/16 106/86/16 107/87/16 108/94/16
f 107/92/43 109/2/43 108/95/43
f 108/95/44 109/2/44 104/1/44
f 110/1/40 115/2/40 111/91/40
f 111/91/41 115/2/41 112/76/41
f 112/76/42 115/2/42 113/92/42
f 110/5/16 111/93/16 112/86/16 113/87/16 114/94/16
f 113/92/43 115/2/43 114/95/43
f 114/95/44 115/2/44 110/1/44
f 116/1/40 121/2/40 117/91/40
f 117/91/41 121/2/41 118/76/41
f 118/76/42 121/2/42 119/92/42
f 116/5/16 117/93/16 118/86/16 119/87/16 120/94/16
f 119/92/43 121/2/43 120/95/43
f 120/95/44 121/2/44 116/1/44
s 1
usemtl KN_Kulit
f 127/96/45 207/97/46 134/98/47 135/99/48
f 126/100/49 125/101/3 132/102/50 133/103/51
f 124/104/52 206/105/53 130/106/54 131/107/55
f 123/108/56 122/109/16 129/110/57
f 128/111/19 127/96/45 135/99/48
f 207/97/46 126/100/49 133/103/51 134/98/47
f 125/101/3 124/104/52 131/107/55 132/102/50
f 206/105/53 123/108/56 129/110/57 130/106/54
f 129/110/57 122/112/16 136/113/58
f 128/114/19 135/99/48 142/115/59
f 134/98/47 133/103/51 140/116/60 141/117/61
f 132/102/50 131/107/55 138/118/62 139/119/63
f 130/106/54 129/110/57 136/113/58 137/120/64
f 135/99/48 134/98/47 141/117/61 142/115/59
f 133/103/51 132/102/50 139/119/63 140/116/60
f 131/107/55 130/106/54 137/120/64 138/118/62
f 141/117/61 140/116/60 147/121/65 148/122/66
f 139/119/63 138/118/62 145/123/67 146/124/68
f 137/120/64 136/113/58 143/125/69 144/126/70
f 142/115/59 141/117/61 148/122/66 149/127/71
f 140/116/60 139/119/63 146/124/68 147/121/65
f 138/118/62 137/120/64 144/126/70 145/123/67
f 136/113/58 122/128/16 143/125/69
f 128/129/19 142/115/59 149/127/71
f 149/127/71 148/122/66 155/130/72 156/131/73
f 147/121/65 146/124/68 153/132/74 154/133/75
f 145/123/67 144/126/70 151/134/76 152/135/77
f 143/125/69 122/136/16 150/137/78
f 128/138/19 149/127/71 156/131/73
f 148/122/66 147/121/65 154/133/75 155/130/72
f 146/124/68 145/123/67 152/135/77 153/132/74
f 144/126/70 143/125/69 150/137/78 151/134/76
f 154/133/75 153/132/74 160/139/79 161/140/80
f 152/135/77 151/134/76 158/141/81 159/142/82
f 150/137/78 122/143/16 157/144/83
f 128/145/19 156/131/73 163/146/84
f 155/130/72 154/133/75 161/140/80 162/147/85
f 153/132/74 152/135/77 159/142/82 160/139/79
f 151/134/76 150/137/78 157/144/83 158/141/81
f 156/131/73 155/130/72 162/147/85 163/146/84
f 128/148/19 163/146/84 170/149/86
f 162/147/85 161/140/80 168/150/87 169/2/88
f 160/139/79 159/142/82 166/151/89 167/152/90
f 158/141/81 157/144/83 164/153/91 165/154/92
f 163/146/84 162/147/85 169/2/88 170/149/86
f 161/140/80 160/139/79 167/152/90 168/150/87
f 159/142/82 158/141/81 165/154/92 166/151/89
f 157/144/83 122/155/16 164/153/91
f 167/152/90 166/151/89 173/156/93 174/157/94
f 165/154/92 164/153/91 171/158/95 172/159/96
f 170/149/86 169/2/88 176/160/97 177/161/98
f 168/150/87 167/152/90 174/157/94 175/162/99
f 166/151/89 165/154/92 172/159/96 173/156/93
f 164/153/91 122/163/16 171/158/95
f 128/164/19 170/149/86 177/161/98
f 169/2/88 168/150/87 175/162/99 176/160/97
f 177/161/98 176/160/97 183/165/100 184/166/101
f 175/162/99 174/157/94 181/167/102 182/168/103
f 173/156/93 172/159/96 179/169/104 180/170/105
f 171/158/95 122/171/16 178/172/106
f 128/173/19 177/161/98 184/166/101
f 176/160/97 175/162/99 182/168/103 183/165/100
f 174/157/94 173/156/93 180/170/105 181/167/102
f 172/159/96 171/158/95 178/172/106 179/169/104
f 180/170/105 179/169/104 186/174/107 187/175/108
f 178/172/106 122/176/16 185/177/109
f 128/178/19 184/166/101 191/179/110
f 183/165/100 182/168/103 189/180/111 190/181/112
f 181/167/102 180/170/105 187/175/108 188/182/113
f 179/169/104 178/172/106 185/177/109 186/174/107
f 184/166/101 183/165/100 190/181/112 191/179/110
f 182/168/103 181/167/102 188/182/113 189/180/111
f 128/183/19 191/184/110 198/185/114
f 190/186/112 189/187/111 196/188/115 197/189/116
f 188/10/113 187/190/108 194/191/117 195/192/118
f 186/193/107 185/194/109 192/195/119 193/196/120
f 191/184/110 190/186/112 197/189/116 198/185/114
f 189/187/111 188/10/113 195/192/118 196/188/115
f 187/190/108 186/193/107 193/196/120 194/191/117
f 185/194/109 122/197/16 192/195/119
f 193/196/120 192/195/119 199/198/121 200/199/122
f 198/185/114 197/189/116 204/200/123 205/201/124
f 196/188/115 195/192/118 202/202/125 203/203/126
f 194/191/117 193/196/120 200/199/122 201/204/127
f 192/195/119 122/205/16 199/198/121
f 128/206/19 198/185/114 205/201/124
f 197/189/116 196/188/115 203/203/126 204/200/123
f 195/192/118 194/191/117 201/204/127 202/202/125
f 205/201/124 204/200/123 207/97/46 127/96/45
f 203/203/126 202/202/125 125/101/3 126/100/49
f 201/204/127 200/199/122 206/105/53 124/104/52
f 199/198/121 122/207/16 123/108/56
f 128/208/19 205/201/124 127/96/45
f 204/200/123 203/203/126 126/100/49 207/97/46
f 202/202/125 201/204/127 124/104/52 125/101/3
f 200/199/122 199/198/121 123/108/56 206/105/53
f 472/255/210 471/101/3 477/244/211 478/256/212
f 470/316/213 469/258/214 475/259/215 476/260/216
f 473/253/208 472/255/210 478/256/212 479/254/209
f 471/101/3 470/316/213 476/260/216 477/244/211
f 469/258/214 468/261/16 475/259/215
f 474/252/19 473/253/208 479/254/209
f 479/254/209 478/256/212 483/262/217 484/265/220
f 477/244/211 476/260/216 481/320/219 482/124/68
f 475/259/215 468/266/16 480/263/218
f 474/267/19 479/254/209 484/265/220
f 478/256/212 477/244/211 482/124/68 483/262/217
f 476/260/216 475/259/215 480/263/218 481/320/219
f 484/265/220 483/262/217 488/270/223 489/271/224
f 482/124/68 481/320/219 486/269/222 487/245/225
f 480/263/218 468/272/16 485/268/221
f 474/273/19 484/265/220 489/271/224
f 483/262/217 482/124/68 487/245/225 488/270/223
f 481/320/219 480/263/218 485/268/221 486/269/222
f 489/271/224 488/270/223 493/274/226 494/275/227
f 487/245/225 486/269/222 491/322/228 492/152/90
f 485/268/221 468/277/16 490/278/229
f 474/279/19 489/271/224 494/275/227
f 488/270/223 487/245/225 492/152/90 493/274/226
f 486/269/222 485/268/221 490/278/229 491/322/228
f 492/152/90 491/322/228 496/282/232 497/248/233
f 490/278/229 468/283/16 495/284/234
f 474/285/19 494/275/227 499/281/231
f 493/274/226 492/152/90 497/248/233 498/280/230
f 491/322/228 490/278/229 495/284/234 496/282/232
f 494/275/227 493/274/226 498/280/230 499/281/231
f 495/284/234 468/289/16 500/290/238
f 474/291/19 499/281/231 504/287/236
f 498/280/230 497/248/233 502/182/113 503/286/235
f 496/282/232 495/284/234 500/290/238 501/325/237
f 499/281/231 498/280/230 503/286/235 504/287/236
f 497/248/233 496/282/232 501/325/237 502/182/113
f 474/301/19 504/292/236 509/295/240
f 503/293/235 502/10/113 507/250/242 508/294/239
f 501/327/237 500/298/238 505/300/243 506/297/241
f 504/292/236 503/293/235 508/294/239 509/295/240
f 502/10/113 501/327/237 506/297/241 507/250/242
f 500/298/238 468/299/16 505/300/243
f 474/303/19 509/295/240 473/253/208
f 508/294/239 507/250/242 471/101/3 472/255/210
f 506/297/241 505/300/243 469/258/214 470/316/213
f 509/295/240 508/294/239 472/255/210 473/253/208
f 507/250/242 506/297/241 470/316/213 471/101/3
f 505/300/243 468/302/16 469/258/214
f 510/10/276 511/11/277 513/330/278 512/331/279
f 512/331/279 513/330/278 515/332/280 514/333/281
f 514/333/281 515/332/280 517/334/282 516/335/283
f 513/91/278 511/1/277 519/95/284 517/92/282 515/76/280
f 516/335/283 517/334/282 519/336/284 518/337/285
f 518/337/285 519/336/284 511/338/277 510/339/276
f 510/5/276 512/93/279 514/86/281 516/87/283 518/94/285
f 523/252/19 561/253/208 528/254/209
f 522/255/210 560/101/3 526/244/211 527/256/212
f 521/257/213 559/258/214 524/259/215 525/340/216
f 561/253/208 522/255/210 527/256/212 528/254/209
f 560/101/3 521/257/213 525/340/216 526/244/211
f 559/258/214 520/261/16 524/259/215
f 527/256/212 526/244/211 531/124/68 532/262/217
f 525/340/216 524/259/215 529/263/218 530/264/219
f 528/254/209 527/256/212 532/262/217 533/265/220
f 526/244/211 525/340/216 530/264/219 531/124/68
f 524/259/215 520/266/16 529/263/218
f 523/267/19 528/254/209 533/265/220
f 530/264/219 529/263/218 534/268/221 535/341/222
f 533/265/220 532/262/217 537/270/223 538/271/224
f 531/124/68 530/264/219 535/341/222 536/245/225
f 529/263/218 520/272/16 534/268/221
f 523/273/19 533/265/220 538/271/224
f 532/262/217 531/124/68 536/245/225 537/270/223
f 538/271/224 537/270/223 542/274/226 543/275/227
f 536/245/225 535/341/222 540/276/228 541/152/90
f 534/268/221 520/277/16 539/278/229
f 523/279/19 538/271/224 543/275/227
f 537/270/223 536/245/225 541/152/90 542/274/226
f 535/341/222 534/268/221 539/278/229 540/276/228
f 543/275/227 542/274/226 547/280/230 548/281/231
f 541/152/90 540/276/228 545/342/232 546/248/233
f 539/278/229 520/283/16 544/284/234
f 523/285/19 543/275/227 548/281/231
f 542/274/226 541/152/90 546/248/233 547/280/230
f 540/276/228 539/278/229 544/284/234 545/342/232
f 548/281/231 547/280/230 552/286/235 553/287/236
f 546/248/233 545/342/232 550/288/237 551/182/113
f 544/284/234 520/289/16 549/290/238
f 523/291/19 548/281/231 553/287/236
f 547/280/230 546/248/233 551/182/113 552/286/235
f 545/342/232 544/284/234 549/290/238 550/288/237
f 553/292/236 552/293/235 557/294/239 558/295/240
f 551/10/113 550/296/237 555/343/241 556/250/242
f 549/298/238 520/299/16 554/300/243
f 523/301/19 553/292/236 558/295/240
f 552/293/235 551/10/113 556/250/242 557/294/239
f 550/296/237 549/298/238 554/300/243 555/343/241
f 556/250/242 555/343/241 521/257/213 560/101/3
f 554/300/243 520/302/16 559/258/214
f 523/303/19 558/295/240 561/253/208
f 557/294/239 556/250/242 560/101/3 522/255/210
f 555/343/241 554/300/243 559/258/214 521/257/213
f 558/295/240 557/294/239 522/255/210 561/253/208
f 567/10/286 568/11/287 570/330/288 569/331/289
f 569/331/289 570/330/288 572/332/290 571/333/291
f 571/333/291 572/332/290 574/334/292 573/335/293
f 570/91/288 568/1/287 576/95/294 574/92/292 572/76/290
f 573/335/293 574/334/292 576/336/294 575/337/295
f 575/337/295 576/336/294 568/338/287 567/339/286
f 567/5/286 569/93/289 571/86/291 573/87/293 575/94/295
f 618/253/208 579/255/210 584/256/212 585/254/209
f 617/101/3 578/257/213 582/340/216 583/244/211
f 616/258/214 577/261/16 581/259/215
f 580/252/19 618/253/208 585/254/209
f 579/255/210 617/101/3 583/244/211 584/256/212
f 578/257/213 616/258/214 581/259/215 582/340/216
f 580/267/19 585/254/209 590/265/220
f 584/256/212 583/244/211 588/124/68 589/262/217
f 582/340/216 581/259/215 586/263/218 587/264/219
f 585/254/209 584/256/212 589/262/217 590/265/220
f 583/244/211 582/340/216 587/264/219 588/124/68
f 581/259/215 577/266/16 586/263/218
f 580/273/19 590/265/220 595/271/224
f 589/262/217 588/124/68 593/245/225 594/270/223
f 587/264/219 586/263/218 591/268/221 592/341/222
f 590/265/220 589/262/217 594/270/223 595/271/224
f 588/124/68 587/264/219 592/341/222 593/245/225
f 586/263/218 577/272/16 591/268/221
f 580/279/19 595/271/224 600/275/227
f 594/270/223 593/245/225 598/152/90 599/274/226
f 592/341/222 591/268/221 596/278/229 597/276/228
f 595/271/224 594/270/223 599/274/226 600/275/227
f 593/245/225 592/341/222 597/276/228 598/152/90
f 591/268/221 577/277/16 596/278/229
f 599/274/226 598/152/90 603/248/233 604/280/230
f 597/276/228 596/278/229 601/284/234 602/342/232
f 600/275/227 599/274/226 604/280/230 605/281/231
f 598/152/90 597/276/228 602/342/232 603/248/233
f 596/278/229 577/283/16 601/284/234
f 580/285/19 600/275/227 605/281/231
f 602/342/232 601/284/234 606/290/238 607/288/237
f 605/281/231 604/280/230 609/286/235 610/287/236
f 603/248/233 602/342/232 607/288/237 608/182/113
f 601/284/234 577/289/16 606/290/238
f 580/291/19 605/281/231 610/287/236
f 604/280/230 603/248/233 608/182/113 609/286/235
f 610/292/236 609/293/235 614/294/239 615/295/240
f 608/10/113 607/296/237 612/343/241 613/250/242
f 606/298/238 577/299/16 611/300/243
f 580/301/19 610/292/236 615/295/240
f 609/293/235 608/10/113 613/250/242 614/294/239
f 607/296/237 606/298/238 611/300/243 612/343/241
f 615/295/240 614/294/239 579/255/210 618/253/208
f 613/250/242 612/343/241 578/257/213 617/101/3
f 611/300/243 577/302/16 616/258/214
f 580/303/19 615/295/240 618/253/208
f 614/294/239 613/250/242 617/101/3 579/255/210
f 612/343/241 611/300/243 616/258/214 578/257/213
f 624/10/296 625/11/297 627/330/298 626/331/299
f 626/331/299 627/330/298 629/332/300 628/333/301
f 628/333/301 629/332/300 631/334/302 630/335/303
f 627/91/298 625/1/297 633/95/304 631/92/302 629/76/300
f 630/335/303 631/334/302 633/336/304 632/337/305
f 632/337/305 633/336/304 625/338/297 624/339/296
f 624/5/296 626/93/299 628/86/301 630/87/303 632/94/305
f 675/253/208 636/255/210 641/256/212 642/254/209
f 674/101/3 635/257/213 639/340/216 640/244/211
f 673/258/214 634/261/16 638/259/215
f 637/252/19 675/253/208 642/254/209
f 636/255/210 674/101/3 640/244/211 641/256/212
f 635/257/213 673/258/214 638/259/215 639/340/216
f 638/259/215 634/266/16 643/263/218
f 637/267/19 642/254/209 647/265/220
f 641/256/212 640/244/211 645/124/68 646/262/217
f 639/340/216 638/259/215 643/263/218 644/264/219
f 642/254/209 641/256/212 646/262/217 647/265/220
f 640/244/211 639/340/216 644/264/219 645/124/68
f 637/273/19 647/265/220 652/271/224
f 646/262/217 645/124/68 650/245/225 651/270/223
f 644/264/219 643/263/218 648/268/221 649/341/222
f 647/265/220 646/262/217 651/270/223 652/271/224
f 645/124/68 644/264/219 649/341/222 650/245/225
f 643/263/218 634/272/16 648/268/221
f 637/279/19 652/271/224 657/275/227
f 651/270/223 650/245/225 655/152/90 656/274/226
f 649/341/222 648/268/221 653/278/229 654/276/228
f 652/271/224 651/270/223 656/274/226 657/275/227
f 650/245/225 649/341/222 654/276/228 655/152/90
f 648/268/221 634/277/16 653/278/229
f 637/285/19 657/275/227 662/281/231
f 656/274/226 655/152/90 660/248/233 661/280/230
f 654/276/228 653/278/229 658/284/234 659/342/232
f 657/275/227 656/274/226 661/280/230 662/281/231
f 655/152/90 654/276/228 659/342/232 660/248/233
f 653/278/229 634/283/16 658/284/234
f 661/280/230 660/248/233 665/182/113 666/286/235
f 659/342/232 658/284/234 663/290/238 664/288/237
f 662/281/231 661/280/230 666/286/235 667/287/236
f 660/248/233 659/342/232 664/288/237 665/182/113
f 658/284/234 634/289/16 663/290/238
f 637/291/19 662/281/231 667/287/236
f 664/296/237 663/298/238 668/300/243 669/343/241
f 667/292/236 666/293/235 671/294/239 672/295/240
f 665/10/113 664/296/237 669/343/241 670/250/242
f 663/298/238 634/299/16 668/300/243
f 637/301/19 667/292/236 672/295/240
f 666/293/235 665/10/113 670/250/242 671/294/239
f 672/295/240 671/294/239 636/255/210 675/253/208
f 670/250/242 669/343/241 635/257/213 674/101/3
f 668/300/243 634/302/16 673/258/214
f 637/303/19 672/295/240 675/253/208
f 671/294/239 670/250/242 674/101/3 636/255/210
f 669/343/241 668/300/243 673/258/214 635/257/213
f 802/253/208 801/255/210 807/256/212 808/254/209
f 800/101/3 799/316/213 805/260/216 806/244/211
f 798/258/214 797/261/16 804/259/215
f 803/252/19 802/253/208 808/254/209
f 801/255/210 800/101/3 806/244/211 807/256/212
f 799/316/213 798/258/214 804/259/215 805/260/216
f 804/259/215 797/266/16 809/263/218
f 803/267/19 808/254/209 813/265/220
f 807/256/212 806/244/211 811/124/68 812/262/217
f 805/260/216 804/259/215 809/263/218 810/320/219
f 808/254/209 807/256/212 812/262/217 813/265/220
f 806/244/211 805/260/216 810/320/219 811/124/68
f 803/273/19 813/265/220 818/271/224
f 812/262/217 811/124/68 816/245/225 817/270/223
f 810/320/219 809/263/218 814/268/221 815/269/222
f 813/265/220 812/262/217 817/270/223 818/271/224
f 811/124/68 810/320/219 815/269/222 816/245/225
f 809/263/218 797/272/16 814/268/221
f 803/279/19 818/271/224 823/275/227
f 817/270/223 816/245/225 821/152/90 822/274/226
f 815/269/222 814/268/221 819/278/229 820/322/228
f 818/271/224 817/270/223 822/274/226 823/275/227
f 816/245/225 815/269/222 820/322/228 821/152/90
f 814/268/221 797/277/16 819/278/229
f 803/285/19 823/275/227 828/281/231
f 822/274/226 821/152/90 826/248/233 827/280/230
f 820/322/228 819/278/229 824/284/234 825/282/232
f 823/275/227 822/274/226 827/280/230 828/281/231
f 821/152/90 820/322/228 825/282/232 826/248/233
f 819/278/229 797/283/16 824/284/234
f 827/280/230 826/248/233 831/182/113 832/286/235
f 825/282/232 824/284/234 829/290/238 830/325/237
f 828/281/231 827/280/230 832/286/235 833/287/236
f 826/248/233 825/282/232 830/325/237 831/182/113
f 824/284/234 797/289/16 829/290/238
f 803/291/19 828/281/231 833/287/236
f 830/327/237 829/298/238 834/300/243 835/297/241
f 833/292/236 832/293/235 837/294/239 838/295/240
f 831/10/113 830/327/237 835/297/241 836/250/242
f 829/298/238 797/299/16 834/300/243
f 803/301/19 833/292/236 838/295/240
f 832/293/235 831/10/113 836/250/242 837/294/239
f 838/295/240 837/294/239 801/255/210 802/253/208
f 836/250/242 835/297/241 799/316/213 800/101/3
f 834/300/243 797/302/16 798/258/214
f 803/303/19 838/295/240 802/253/208
f 837/294/239 836/250/242 800/101/3 801/255/210
f 835/297/241 834/300/243 798/258/214 799/316/213
f 839/10/296 840/11/297 842/330/298 841/331/299
f 841/331/299 842/330/298 844/332/300 843/333/301
f 843/333/301 844/332/300 846/334/302 845/335/303
f 842/91/298 840/1/297 848/95/304 846/92/302 844/76/300
f 845/335/303 846/334/302 848/336/304 847/337/305
f 847/337/305 848/336/304 840/338/297 839/339/296
f 839/5/296 841/93/299 843/86/301 845/87/303 847/94/305
f 851/255/210 889/101/3 855/244/211 856/256/212
f 850/257/213 888/258/214 853/259/215 854/340/216
f 890/253/208 851/255/210 856/256/212 857/254/209
f 889/101/3 850/257/213 854/340/216 855/244/211
f 888/258/214 849/261/16 853/259/215
f 852/252/19 890/253/208 857/254/209
f 857/254/209 856/256/212 861/262/217 862/265/220
f 855/244/211 854/340/216 859/264/219 860/124/68
f 853/259/215 849/266/16 858/263/218
f 852/267/19 857/254/209 862/265/220
f 856/256/212 855/244/211 860/124/68 861/262/217
f 854/340/216 853/259/215 858/263/218 859/264/219
f 862/265/220 861/262/217 866/270/223 867/271/224
f 860/124/68 859/264/219 864/341/222 865/245/225
f 858/263/218 849/272/16 863/268/221
f 852/273/19 862/265/220 867/271/224
f 861/262/217 860/124/68 865/245/225 866/270/223
f 859/264/219 858/263/218 863/268/221 864/341/222
f 867/271/224 866/270/223 871/274/226 872/275/227
f 865/245/225 864/341/222 869/276/228 870/152/90
f 863/268/221 849/277/16 868/278/229
f 852/279/19 867/271/224 872/275/227
f 866/270/223 865/245/225 870/152/90 871/274/226
f 864/341/222 863/268/221 868/278/229 869/276/228
f 870/152/90 869/276/228 874/342/232 875/248/233
f 868/278/229 849/283/16 873/284/234
f 852/285/19 872/275/227 877/281/231
f 871/274/226 870/152/90 875/248/233 876/280/230
f 869/276/228 868/278/229 873/284/234 874/342/232
f 872/275/227 871/274/226 876/280/230 877/281/231
f 873/284/234 849/289/16 878/290/238
f 852/291/19 877/281/231 882/287/236
f 876/280/230 875/248/233 880/182/113 881/286/235
f 874/342/232 873/284/234 878/290/238 879/288/237
f 877/281/231 876/280/230 881/286/235 882/287/236
f 875/248/233 874/342/232 879/288/237 880/182/113
f 852/301/19 882/292/236 887/295/240
f 881/293/235 880/10/113 885/250/242 886/294/239
f 879/296/237 878/298/238 883/300/243 884/343/241
f 882/292/236 881/293/235 886/294/239 887/295/240
f 880/10/113 879/296/237 884/343/241 885/250/242
f 878/298/238 849/299/16 883/300/243
f 852/303/19 887/295/240 890/253/208
f 886/294/239 885/250/242 889/101/3 851/255/210
f 884/343/241 883/300/243 888/258/214 850/257/213
f 887/295/240 886/294/239 851/255/210 890/253/208
f 885/250/242 884/343/241 850/257/213 889/101/3
f 883/300/243 849/302/16 888/258/214
f 896/10/286 897/11/287 899/330/288 898/331/289
f 898/331/289 899/330/288 901/332/290 900/333/291
f 900/333/291 901/332/290 903/334/292 902/335/293
f 899/91/288 897/1/287 905/95/294 903/92/292 901/76/290
f 902/335/293 903/334/292 905/336/294 904/337/295
f 904/337/295 905/336/294 897/338/287 896/339/286
f 896/5/286 898/93/289 900/86/291 902/87/293 904/94/295
f 909/252/19 947/253/208 914/254/209
f 908/255/210 946/101/3 912/244/211 913/256/212
f 907/257/213 945/258/214 910/259/215 911/340/216
f 947/253/208 908/255/210 913/256/212 914/254/209
f 946/101/3 907/257/213 911/340/216 912/244/211
f 945/258/214 906/261/16 910/259/215
f 914/254/209 913/256/212 918/262/217 919/265/220
f 912/244/211 911/340/216 916/264/219 917/124/68
f 910/259/215 906/266/16 915/263/218
f 909/267/19 914/254/209 919/265/220
f 913/256/212 912/244/211 917/124/68 918/262/217
f 911/340/216 910/259/215 915/263/218 916/264/219
f 919/265/220 918/262/217 923/270/223 924/271/224
f 917/124/68 916/264/219 921/341/222 922/245/225
f 915/263/218 906/272/16 920/268/221
f 909/273/19 919/265/220 924/271/224
f 918/262/217 917/124/68 922/245/225 923/270/223
f 916/264/219 915/263/218 920/268/221 921/341/222
f 924/271/224 923/270/223 928/274/226 929/275/227
f 922/245/225 921/341/222 926/276/228 927/152/90
f 920/268/221 906/277/16 925/278/229
f 909/279/19 924/271/224 929/275/227
f 923/270/223 922/245/225 927/152/90 928/274/226
f 921/341/222 920/268/221 925/278/229 926/276/228
f 929/275/227 928/274/226 933/280/230 934/281/231
f 927/152/90 926/276/228 931/342/232 932/248/233
f 925/278/229 906/283/16 930/284/234
f 909/285/19 929/275/227 934/281/231
f 928/274/226 927/152/90 932/248/233 933/280/230
f 926/276/228 925/278/229 930/284/234 931/342/232
f 932/248/233 931/342/232 936/288/237 937/182/113
f 930/284/234 906/289/16 935/290/238
f 909/291/19 934/281/231 939/287/236
f 933/280/230 932/248/233 937/182/113 938/286/235
f 931/342/232 930/284/234 935/290/238 936/288/237
f 934/281/231 933/280/230 938/286/235 939/287/236
f 935/298/238 906/299/16 940/300/243
f 909/301/19 939/292/236 944/295/240
f 938/293/235 937/10/113 942/250/242 943/294/239
f 936/296/237 935/298/238 940/300/243 941/343/241
f 939/292/236 938/293/235 943/294/239 944/295/240
f 937/10/113 936/296/237 941/343/241 942/250/242
f 909/303/19 944/295/240 947/253/208
f 943/294/239 942/250/242 946/101/3 908/255/210
f 941/343/241 940/300/243 945/258/214 907/257/213
f 944/295/240 943/294/239 908/255/210 947/253/208
f 942/250/242 941/343/241 907/257/213 946/101/3
f 940/300/243 906/302/16 945/258/214
f 953/10/276 954/11/277 956/330/278 955/331/279
f 955/331/279 956/330/278 958/332/280 957/333/281
f 957/333/281 958/332/280 960/334/282 959/335/283
f 956/91/278 954/1/277 962/95/284 960/92/282 958/76/280
f 959/335/283 960/334/282 962/336/284 961/337/285
f 961/337/285 962/336/284 954/338/277 953/339/276
f 953/5/276 955/93/279 957/86/281 959/87/283 961/94/285
f 1002/258/214 963/261/16 967/259/215
f 966/252/19 1004/253/208 971/254/209
f 965/255/210 1003/101/3 969/244/211 970/256/212
f 964/257/213 1002/258/214 967/259/215 968/340/216
f 1004/253/208 965/255/210 970/256/212 971/254/209
f 1003/101/3 964/257/213 968/340/216 969/244/211
f 966/267/19 971/254/209 976/265/220
f 970/256/212 969/244/211 974/124/68 975/262/217
f 968/340/216 967/259/215 972/263/218 973/264/219
f 971/254/209 970/256/212 975/262/217 976/265/220
f 969/244/211 968/340/216 973/264/219 974/124/68
f 967/259/215 963/266/16 972/263/218
f 975/262/217 974/124/68 979/245/225 980/270/223
f 973/264/219 972/263/218 977/268/221 978/341/222
f 976/265/220 975/262/217 980/270/223 981/271/224
f 974/124/68 973/264/219 978/341/222 979/245/225
f 972/263/218 963/272/16 977/268/221
f 966/273/19 976/265/220 981/271/224
f 978/341/222 977/268/221 982/278/229 983/276/228
f 981/271/224 980/270/223 985/274/226 986/275/227
f 979/245/225 978/341/222 983/276/228 984/152/90
f 977/268/221 963/277/16 982/278/229
f 966/279/19 981/271/224 986/275/227
f 980/270/223 979/245/225 984/152/90 985/274/226
f 986/275/227 985/274/226 990/280/230 991/281/231
f 984/152/90 983/276/228 988/342/232 989/248/233
f 982/278/229 963/283/16 987/284/234
f 966/285/19 986/275/227 991/281/231
f 985/274/226 984/152/90 989/248/233 990/280/230
f 983/276/228 982/278/229 987/284/234 988/342/232
f 991/281/231 990/280/230 995/286/235 996/287/236
f 989/248/233 988/342/232 993/288/237 994/182/113
f 987/284/234 963/289/16 992/290/238
f 966/291/19 991/281/231 996/287/236
f 990/280/230 989/248/233 994/182/113 995/286/235
f 988/342/232 987/284/234 992/290/238 993/288/237
f 996/292/236 995/293/235 1000/294/239 1001/295/240
f 994/10/113 993/296/237 998/343/241 999/250/242
f 992/298/238 963/299/16 997/300/243
f 966/301/19 996/292/236 1001/295/240
f 995/293/235 994/10/113 999/250/242 1000/294/239
f 993/296/237 992/298/238 997/300/243 998/343/241
f 1001/295/240 1000/294/239 965/255/210 1004/253/208
f 999/250/242 998/343/241 964/257/213 1003/101/3
f 997/300/243 963/302/16 1002/258/214
f 966/303/19 1001/295/240 1004/253/208
f 1000/294/239 999/250/242 1003/101/3 965/255/210
f 998/343/241 997/300/243 1002/258/214 964/257/213
usemtl KN_Rambut
f 292/209/128 291/210/3 215/102/129 216/103/130
f 209/104/131 290/105/132 213/211/133 214/107/134
f 289/212/135 208/109/16 212/110/136
f 211/111/19 210/96/137 218/99/138
f 293/97/139 292/209/128 216/103/130 217/98/140
f 291/210/3 209/104/131 214/107/134 215/102/129
f 290/105/132 289/212/135 212/110/136 213/211/133
f 210/96/137 293/97/139 217/98/140 218/99/138
f 211/114/19 218/99/138 225/115/141
f 217/98/140 216/103/130 223/116/142 224/117/143
f 215/102/129 214/107/134 221/213/144 222/119/145
f 213/211/133 212/110/136 219/113/146 220/214/147
f 218/99/138 217/98/140 224/117/143 225/115/141
f 216/103/130 215/102/129 222/119/145 223/116/142
f 214/107/134 213/211/133 220/214/147 221/213/144
f 212/110/136 208/112/16 219/113/146
f 220/214/147 219/113/146 226/125/148 227/126/149
f 225/115/141 224/117/143 231/122/150 232/127/151
f 223/116/142 222/119/145 229/124/68 230/121/152
f 221/213/144 220/214/147 227/126/149 228/123/153
f 219/113/146 208/215/16 226/125/148
f 211/216/19 225/115/141 232/127/151
f 224/117/143 223/116/142 230/121/152 231/122/150
f 222/119/145 221/213/144 228/123/153 229/124/68
f 232/127/151 231/122/150 238/130/154 239/131/155
f 230/121/152 229/124/68 236/132/156 237/133/157
f 228/123/153 227/126/149 234/134/158 235/135/159
f 226/125/148 208/136/16 233/137/160
f 211/138/19 232/127/151 239/131/155
f 231/122/150 230/121/152 237/133/157 238/130/154
f 229/124/68 228/123/153 235/135/159 236/132/156
f 227/126/149 226/125/148 233/137/160 234/134/158
f 233/137/160 208/143/16 240/144/161
f 211/145/19 239/131/155 246/146/162
f 238/130/154 237/133/157 244/140/163 245/147/164
f 236/132/156 235/135/159 242/217/165 243/139/166
f 234/134/158 233/137/160 240/144/161 241/218/167
f 239/131/155 238/130/154 245/147/164 246/146/162
f 237/133/157 236/132/156 243/139/166 244/140/163
f 235/135/159 234/134/158 241/218/167 242/217/165
f 245/147/164 244/140/163 251/150/168 252/219/169
f 243/139/166 242/217/165 249/151/170 250/152/90
f 241/218/167 240/144/161 247/220/171 248/221/172
f 246/146/162 245/147/164 252/219/169 253/222/173
f 244/140/163 243/139/166 250/152/90 251/150/168
f 242/217/165 241/218/167 248/221/172 249/151/170
f 240/144/161 208/223/16 247/220/171
f 211/224/19 246/146/162 253/222/173
f 253/222/173 252/219/169 259/160/174 260/225/175
f 251/150/168 250/152/90 257/157/176 258/162/177
f 249/151/170 248/221/172 255/159/178 256/156/179
f 247/220/171 208/163/16 254/226/180
f 211/164/19 253/222/173 260/225/175
f 252/219/169 251/150/168 258/162/177 259/160/174
f 250/152/90 249/151/170 256/156/179 257/157/176
f 248/221/172 247/220/171 254/226/180 255/159/178
f 258/162/177 257/157/176 264/167/181 265/168/182
f 256/156/179 255/159/178 262/227/183 263/170/184
f 254/226/180 208/228/16 261/229/185
f 211/230/19 260/225/175 267/231/186
f 259/160/174 258/162/177 265/168/182 266/232/187
f 257/157/176 256/156/179 263/170/184 264/167/181
f 255/159/178 254/226/180 261/229/185 262/227/183
f 260/225/175 259/160/174 266/232/187 267/231/186
f 211/233/19 267/231/186 274/179/188
f 266/232/187 265/168/182 272/180/189 273/181/190
f 264/167/181 263/170/184 270/175/191 271/182/113
f 262/227/183 261/229/185 268/177/192 269/174/193
f 267/231/186 266/232/187 273/181/190 274/179/188
f 265/168/182 264/167/181 271/182/113 272/180/189
f 263/170/184 262/227/183 269/174/193 270/175/191
f 261/229/185 208/234/16 268/177/192
f 271/10/113 270/190/191 277/191/194 278/192/195
f 269/193/193 268/194/192 275/195/196 276/196/197
f 274/184/188 273/186/190 280/189/198 281/235/199
f 272/187/189 271/10/113 278/192/195 279/188/200
f 270/190/191 269/193/193 276/196/197 277/191/194
f 268/194/192 208/197/16 275/195/196
f 211/183/19 274/184/188 281/235/199
f 273/186/190 272/187/189 279/188/200 280/189/198
f 281/235/199 280/189/198 287/236/201 288/237/202
f 279/188/200 278/192/195 285/202/203 286/203/204
f 277/191/194 276/196/197 283/238/205 284/204/206
f 275/195/196 208/239/16 282/240/207
f 211/241/19 281/235/199 288/237/202
f 280/189/198 279/188/200 286/203/204 287/236/201
f 278/192/195 277/191/194 284/204/206 285/202/203
f 276/196/197 275/195/196 282/240/207 283/238/205
f 284/204/206 283/238/205 290/105/132 209/104/131
f 282/240/207 208/207/16 289/212/135
f 211/208/19 288/237/202 210/96/137
f 287/236/201 286/203/204 292/209/128 293/97/139
f 285/202/203 284/204/206 209/104/131 291/210/3
f 283/238/205 282/240/207 289/212/135 290/105/132
f 288/237/202 287/236/201 293/97/139 210/96/137
f 286/203/204 285/202/203 291/210/3 292/209/128
s 0
f 294/145/113 295/114/113 297/242/113 296/243/113
f 296/243/3 297/242/3 301/244/3 300/245/3
f 300/245/68 301/244/68 299/246/68 298/247/68
f 298/247/90 299/246/90 295/112/90 294/143/90
f 296/248/19 300/245/19 298/247/19 294/249/19
f 301/244/16 297/250/16 295/251/16 299/246/16
f 302/145/113 303/114/113 305/242/113 304/243/113
f 304/243/3 305/242/3 309/244/3 308/245/3
f 308/245/68 309/244/68 307/246/68 306/247/68
f 306/247/90 307/246/90 303/112/90 302/143/90
f 304/248/19 308/245/19 306/247/19 302/249/19
f 309/244/16 305/250/16 303/251/16 307/246/16
s 1
usemtl KN_Mata
f 316/252/19 315/253/208 321/254/209
f 314/255/210 313/101/3 319/244/211 320/256/212
f 312/257/213 311/258/214 317/259/215 318/260/216
f 315/253/208 314/255/210 320/256/212 321/254/209
f 313/101/3 312/257/213 318/260/216 319/244/211
f 311/258/214 310/261/16 317/259/215
f 320/256/212 319/244/211 324/124/68 325/262/217
f 318/260/216 317/259/215 322/263/218 323/264/219
f 321/254/209 320/256/212 325/262/217 326/265/220
f 319/244/211 318/260/216 323/264/219 324/124/68
f 317/259/215 310/266/16 322/263/218
f 316/267/19 321/254/209 326/265/220
f 323/264/219 322/263/218 327/268/221 328/269/222
f 326/265/220 325/262/217 330/270/223 331/271/224
f 324/124/68 323/264/219 328/269/222 329/245/225
f 322/263/218 310/272/16 327/268/221
f 316/273/19 326/265/220 331/271/224
f 325/262/217 324/124/68 329/245/225 330/270/223
f 331/271/224 330/270/223 335/274/226 336/275/227
f 329/245/225 328/269/222 333/276/228 334/152/90
f 327/268/221 310/277/16 332/278/229
f 316/279/19 331/271/224 336/275/227
f 330/270/223 329/245/225 334/152/90 335/274/226
f 328/269/222 327/268/221 332/278/229 333/276/228
f 336/275/227 335/274/226 340/280/230 341/281/231
f 334/152/90 333/276/228 338/282/232 339/248/233
f 332/278/229 310/283/16 337/284/234
f 316/285/19 336/275/227 341/281/231
f 335/274/226 334/152/90 339/248/233 340/280/230
f 333/276/228 332/278/229 337/284/234 338/282/232
f 341/281/231 340/280/230 345/286/235 346/287/236
f 339/248/233 338/282/232 343/288/237 344/182/113
f 337/284/234 310/289/16 342/290/238
f 316/291/19 341/281/231 346/287/236
f 340/280/230 339/248/233 344/182/113 345/286/235
f 338/282/232 337/284/234 342/290/238 343/288/237
f 346/292/236 345/293/235 350/294/239 351/295/240
f 344/10/113 343/296/237 348/297/241 349/250/242
f 342/298/238 310/299/16 347/300/243
f 316/301/19 346/292/236 351/295/240
f 345/293/235 344/10/113 349/250/242 350/294/239
f 343/296/237 342/298/238 347/300/243 348/297/241
f 349/250/242 348/297/241 312/257/213 313/101/3
f 347/300/243 310/302/16 311/258/214
f 316/303/19 351/295/240 315/253/208
f 350/294/239 349/250/242 313/101/3 314/255/210
f 348/297/241 347/300/243 311/258/214 312/257/213
f 351/295/240 350/294/239 314/255/210 315/253/208
