# Blender 5.1.1
# www.blender.org
mtllib npc_kapten_kuro_walk1.mtl
o npc_kapten_kuro_walk1
v -0.105227 -0.088287 1.052209
v 0.105578 -0.088616 1.052074
v -0.106779 -0.086143 1.115692
v 0.107236 -0.083722 1.118397
v -0.142972 -0.017973 1.123992
v 0.142885 -0.016639 1.123410
v 0.107105 0.066358 1.100991
v -0.107608 0.066111 1.100992
v -0.000357 0.081198 1.094120
v -0.000298 0.086404 1.179903
v 0.000200 -0.101282 1.117044
v 0.000162 -0.102120 1.052141
v -0.142972 -0.017973 1.123992
v 0.142885 -0.016639 1.123410
v -0.106658 0.064484 1.046789
v 0.106469 0.064036 1.046769
v -0.000091 0.078109 1.046779
v 0.142995 -0.018317 1.050149
v -0.143065 -0.017726 1.050225
v 0.105745 -0.093649 1.019117
v -0.107765 -0.093972 1.019107
v -0.143002 -0.018314 1.031116
v 0.142673 -0.017871 1.031507
v 0.029971 0.081301 0.857790
v -0.034326 0.081561 0.857812
v -0.000223 0.081447 0.920155
v -0.000979 -0.108732 1.010891
v -0.001896 -0.125472 0.858284
v -0.001404 -0.122745 0.922044
v -0.057089 0.076612 0.985302
v 0.056575 0.076700 0.985305
v -0.126203 0.052658 0.989359
v 0.125468 0.052414 0.989347
v -0.110372 0.069799 0.985307
v 0.109855 0.069663 0.985300
v 0.142995 -0.018317 1.050149
v -0.143065 -0.017726 1.050225
v -0.143002 -0.018314 1.031116
v 0.142673 -0.017871 1.031507
v -0.114878 0.073019 1.188089
v -0.145767 -0.016743 1.203520
v -0.116157 -0.087191 1.211577
v 0.116558 -0.085863 1.212929
v 0.145849 -0.015958 1.203229
v 0.114390 0.073240 1.188089
v 0.000200 -0.105785 1.212253
v -0.124836 0.079259 1.275187
v 0.124386 0.079454 1.275187
v -0.000225 0.094296 1.265686
v -0.145767 -0.016743 1.203520
v 0.145849 -0.015958 1.203229
v -0.157548 -0.007145 1.319511
v -0.135156 -0.090541 1.335585
v 0.157795 -0.026413 1.319510
v 0.135534 -0.090306 1.335585
v -0.000112 -0.115439 1.340814
v -0.111100 0.022825 1.443644
v 0.110929 0.022783 1.442603
v 0.131224 -0.065053 1.445041
v -0.041808 0.027370 1.439505
v 0.167018 -0.059457 1.369536
v -0.167104 -0.059587 1.370430
v -0.000190 0.071476 1.365639
v 0.042119 0.027508 1.439506
v -0.057518 -0.050915 1.479052
v 0.057764 -0.050777 1.479052
v -0.114947 -0.019657 1.452410
v 0.114833 -0.019712 1.451302
v 0.133320 -0.088182 1.397201
v -0.133400 -0.088224 1.398359
v 0.135266 0.049897 1.393801
v -0.135413 0.049837 1.394861
v 0.170861 0.015021 1.370868
v -0.171008 0.014886 1.371704
v -0.157548 -0.007145 1.319511
v 0.157795 -0.026413 1.319510
v 0.167018 -0.059457 1.369536
v 0.167018 -0.059457 1.369536
v -0.167104 -0.059587 1.370430
v -0.167104 -0.059587 1.370430
v -0.057518 -0.050915 1.479052
v 0.057764 -0.050777 1.479052
v -0.114947 -0.019657 1.452410
v 0.114833 -0.019712 1.451302
v 0.170861 0.015021 1.370868
v -0.171008 0.014886 1.371704
v -0.180871 -0.065659 1.441255
v -0.124539 -0.061503 1.337094
v -0.173750 -0.071575 1.320428
v -0.221921 -0.057571 1.319613
v -0.211749 0.029873 1.321021
v -0.138469 0.018588 1.328349
v -0.142647 -0.058747 1.144426
v -0.228156 0.013628 1.150363
v -0.180099 0.084099 1.185410
v -0.152130 0.084200 1.140567
v -0.216150 0.081439 1.145049
v -0.220892 -0.068761 1.386095
v -0.213937 0.018951 1.381377
v -0.220909 -0.020730 1.420058
v -0.161928 0.041538 1.395551
v -0.159496 -0.082248 1.398562
v -0.183385 0.041288 1.325208
v -0.224494 -0.016958 1.217228
v -0.182534 -0.000669 1.150481
v -0.181782 -0.034099 1.229068
v -0.135157 -0.066800 1.218832
v -0.210462 0.025245 1.408458
v -0.208160 -0.072849 1.413081
v -0.182612 0.097594 1.142451
v -0.173750 -0.071575 1.320428
v -0.180099 0.084099 1.185410
v -0.220909 -0.020730 1.420058
v -0.220909 -0.020730 1.420058
v -0.161928 0.041538 1.395551
v -0.161928 0.041538 1.395551
v -0.159496 -0.082248 1.398562
v -0.159496 -0.082248 1.398562
v -0.183385 0.041288 1.325208
v -0.182534 -0.000669 1.150481
v -0.181782 -0.034099 1.229068
v -0.210462 0.025245 1.408458
v -0.208160 -0.072849 1.413081
v -0.182612 0.097594 1.142451
v 0.123414 -0.061510 1.337111
v 0.172635 -0.090401 1.320457
v 0.220801 -0.077014 1.319632
v 0.210621 0.011479 1.321040
v 0.137363 0.018593 1.328387
v 0.140372 -0.058695 1.142748
v 0.230090 -0.133241 1.149268
v 0.178976 -0.035972 1.185429
v 0.150687 -0.069505 1.140584
v 0.214713 -0.068889 1.145076
v 0.219827 -0.067703 1.386122
v 0.212770 0.017860 1.381421
v 0.220919 -0.020711 1.419830
v 0.160807 0.041582 1.395560
v 0.158373 -0.082217 1.398590
v 0.182257 0.026051 1.325222
v 0.224636 -0.113012 1.217565
v 0.181467 -0.149371 1.148234
v 0.180511 -0.121523 1.228994
v 0.135051 -0.066919 1.219369
v 0.207080 -0.072223 1.413117
v 0.209309 0.024679 1.408482
v 0.181151 -0.054701 1.142449
v 0.172635 -0.090401 1.320457
v 0.178976 -0.035972 1.185429
v 0.220919 -0.020711 1.419830
v 0.220919 -0.020711 1.419830
v 0.160807 0.041582 1.395560
v 0.160807 0.041582 1.395560
v 0.158373 -0.082217 1.398590
v 0.158373 -0.082217 1.398590
v 0.182257 0.026051 1.325222
v 0.181467 -0.149371 1.148234
v 0.180511 -0.121523 1.228994
v 0.207080 -0.072223 1.413117
v 0.209309 0.024679 1.408482
v 0.181151 -0.054701 1.142449
v -0.000228 -0.070151 1.479756
v -0.045145 0.019058 1.568869
v -0.038281 -0.041186 1.588397
v 0.040065 -0.041630 1.588097
v 0.046508 0.019134 1.568869
v 0.000682 0.043238 1.562779
v -0.000537 0.008844 1.596158
v -0.038281 -0.041186 1.588397
v 0.040065 -0.041630 1.588097
v -0.000537 0.008844 1.596158
v 0.113302 -0.112599 0.867812
v 0.147175 -0.029972 0.893773
v 0.144468 0.040791 0.931912
v 0.113241 0.075288 0.923810
v 0.110465 -0.109076 0.930955
v 0.029291 -0.008992 0.577754
v 0.072463 0.136128 0.577716
v 0.117466 0.007869 0.531252
v 0.132579 0.109412 0.531227
v 0.149390 0.113494 0.577722
v 0.016834 0.109623 0.531227
v 0.134434 -0.037827 0.577760
v 0.115269 -0.113582 0.831819
v 0.008671 -0.089445 0.831094
v 0.117948 0.072616 0.882330
v 0.038070 -0.065889 0.577767
v 0.008617 -0.126562 0.831604
v 0.169298 0.033242 0.577741
v 0.072463 0.147659 0.531217
v 0.031739 0.008185 0.531252
v 0.120254 -0.008413 0.577753
v 0.136041 0.097785 0.577725
v 0.147175 -0.029972 0.893773
v 0.029291 -0.008992 0.577754
v 0.029291 -0.008992 0.577754
v 0.072463 0.136128 0.577716
v 0.132579 0.109412 0.531227
v 0.149390 0.113494 0.577722
v 0.016834 0.109623 0.531227
v 0.134434 -0.037827 0.577760
v 0.008671 -0.089445 0.831094
v 0.038070 -0.065889 0.577767
v 0.169298 0.033242 0.577741
v 0.169298 0.033242 0.577741
v 0.169298 0.033242 0.577741
v 0.120254 -0.008413 0.577753
v 0.136041 0.097785 0.577725
v 0.136041 0.097785 0.577725
v 0.136041 0.097785 0.577725
v -0.116002 -0.112825 0.867798
v -0.149052 -0.030067 0.893760
v -0.145748 0.040831 0.931920
v -0.114087 0.075112 0.923807
v -0.113288 -0.109343 0.930940
v -0.002758 0.034413 0.829608
v -0.030767 -0.136764 0.598753
v -0.118943 -0.148587 0.556802
v -0.134053 -0.047344 0.556784
v -0.073937 0.007758 0.598725
v -0.150857 -0.015980 0.598731
v -0.018308 -0.047175 0.556782
v -0.135901 -0.166625 0.598759
v -0.117825 -0.112756 0.831612
v -0.011306 -0.088177 0.831148
v -0.119108 0.073648 0.882504
v -0.040147 -0.194662 0.598763
v -0.011542 -0.125610 0.831642
v -0.170765 -0.095894 0.598745
v -0.073937 -0.008526 0.556775
v -0.033215 -0.148505 0.556802
v -0.121730 -0.136891 0.598754
v -0.137515 -0.031179 0.598732
v -0.149052 -0.030067 0.893760
v -0.030767 -0.136764 0.598753
v -0.030767 -0.136764 0.598753
v -0.134053 -0.047344 0.556784
v -0.073937 0.007758 0.598725
v -0.150857 -0.015980 0.598731
v -0.018308 -0.047175 0.556782
v -0.135901 -0.166625 0.598759
v -0.011306 -0.088177 0.831148
v -0.040147 -0.194662 0.598763
v -0.170765 -0.095894 0.598745
v -0.170765 -0.095894 0.598745
v -0.170765 -0.095894 0.598745
v -0.121730 -0.136891 0.598754
v -0.137515 -0.031179 0.598732
v -0.137515 -0.031179 0.598732
v -0.137515 -0.031179 0.598732
v -0.021458 -0.068067 0.488799
v -0.131817 -0.067229 0.490259
v -0.078091 -0.046584 0.473744
v -0.017621 -0.176314 0.381828
v -0.047411 -0.261399 0.153397
v -0.136292 -0.177214 0.383119
v -0.105603 -0.265216 0.152636
v -0.039283 -0.206632 0.386752
v -0.116490 -0.172132 0.487151
v -0.035363 -0.172076 0.486475
v -0.076899 -0.037047 0.495177
v -0.116234 -0.207794 0.384944
v -0.021458 -0.068067 0.488799
v -0.131817 -0.067229 0.490259
v -0.036634 -0.180172 0.153022
v -0.073193 -0.157899 0.153786
v -0.119252 -0.174788 0.154093
v -0.096230 -0.292783 0.075569
v -0.047376 -0.124848 0.117362
v -0.124328 -0.129184 0.104173
v -0.042606 -0.139818 0.075374
v -0.057259 -0.287064 0.075561
v -0.129023 -0.139628 0.075374
v -0.042679 -0.182521 0.133427
v -0.113147 -0.177829 0.134565
v -0.073818 -0.157198 0.140481
v -0.051559 -0.280979 0.103626
v -0.103951 -0.285746 0.103250
v -0.036634 -0.180172 0.153022
v -0.119252 -0.174788 0.154093
v -0.096230 -0.292783 0.075569
v -0.047376 -0.124848 0.117362
v -0.124328 -0.129184 0.104173
v -0.042606 -0.139818 0.075374
v -0.042606 -0.139818 0.075374
v -0.042606 -0.139818 0.075374
v -0.057259 -0.287064 0.075561
v -0.129023 -0.139628 0.075374
v -0.129023 -0.139628 0.075374
v -0.129023 -0.139628 0.075374
v -0.042679 -0.182521 0.133427
v -0.042679 -0.182521 0.133427
v -0.042679 -0.182521 0.133427
v -0.113147 -0.177829 0.134565
v -0.113147 -0.177829 0.134565
v -0.113147 -0.177829 0.134565
v -0.073818 -0.157198 0.140481
v -0.051559 -0.280979 0.103626
v -0.103951 -0.285746 0.103250
v -0.102407 -0.051101 0.075262
v -0.100879 -0.046621 0.095261
v -0.067074 -0.046874 0.075256
v -0.068177 -0.043438 0.096352
v -0.047832 -0.116078 0.111500
v -0.123032 -0.119457 0.103520
v -0.102407 -0.051101 0.075262
v -0.067074 -0.046874 0.075256
v 0.019984 0.133802 0.457161
v 0.130343 0.133664 0.458777
v 0.076543 0.165953 0.438820
v 0.016146 0.099081 0.337549
v 0.045624 0.166193 0.084053
v 0.134816 0.097523 0.338318
v 0.103817 0.166013 0.083181
v 0.037808 0.065706 0.342093
v 0.033887 0.032351 0.453131
v 0.115014 0.031896 0.453714
v 0.075425 0.161232 0.462518
v 0.114758 0.065737 0.340215
v 0.019984 0.133802 0.457161
v 0.130343 0.133664 0.458777
v 0.035178 0.251380 0.083781
v 0.071724 0.273035 0.084806
v 0.117801 0.256023 0.085002
v 0.096084 0.190802 -0.002271
v 0.124175 0.334813 0.029470
v 0.042460 0.344025 -0.002451
v 0.047230 0.330784 0.044089
v 0.057138 0.196613 -0.002278
v 0.128869 0.344109 -0.002452
v 0.112345 0.265911 0.063251
v 0.040654 0.262256 0.062002
v 0.073010 0.282774 0.069883
v 0.102985 0.178987 0.028420
v 0.050569 0.181982 0.028853
v 0.035178 0.251380 0.083781
v 0.117801 0.256023 0.085002
v 0.096084 0.190802 -0.002271
v 0.124175 0.334813 0.029470
v 0.042460 0.344025 -0.002451
v 0.042460 0.344025 -0.002451
v 0.042460 0.344025 -0.002451
v 0.047230 0.330784 0.044089
v 0.057138 0.196613 -0.002278
v 0.128869 0.344109 -0.002452
v 0.128869 0.344109 -0.002452
v 0.128869 0.344109 -0.002452
v 0.112345 0.265911 0.063251
v 0.112345 0.265911 0.063251
v 0.112345 0.265911 0.063251
v 0.040654 0.262256 0.062002
v 0.040654 0.262256 0.062002
v 0.040654 0.262256 0.062002
v 0.073010 0.282774 0.069883
v 0.102985 0.178987 0.028420
v 0.050569 0.181982 0.028853
v 0.102261 0.433155 -0.002556
v 0.100733 0.424259 0.019611
v 0.066928 0.437591 -0.002561
v 0.068031 0.426745 0.020820
v 0.047686 0.343697 0.037594
v 0.122879 0.345417 0.028749
v 0.102261 0.433155 -0.002556
v 0.066928 0.437591 -0.002561
v 0.183253 -0.158130 1.126114
v 0.231045 -0.144440 1.117106
v 0.143964 -0.057699 1.109755
v 0.149173 -0.054329 1.052065
v 0.197012 -0.172198 1.075199
v 0.237279 -0.091682 1.078158
v 0.207141 -0.080187 1.060783
v 0.163085 -0.094653 1.046872
v 0.182469 -0.153271 0.883483
v 0.231133 -0.147801 0.888428
v 0.225377 -0.242458 0.881545
v 0.210050 -0.185856 0.872772
v 0.181986 -0.234495 0.877788
v 0.217019 -0.074498 1.130321
v 0.153941 -0.077460 1.120505
v 0.245309 -0.191075 0.886769
v 0.170299 -0.189853 0.879864
v 0.195903 -0.165160 1.101165
v 0.233416 -0.160336 1.078587
v 0.183931 -0.061483 1.125034
v 0.183253 -0.158130 1.126114
v 0.197012 -0.172198 1.075199
v 0.207141 -0.080187 1.060783
v 0.182469 -0.153271 0.883483
v 0.231133 -0.147801 0.888428
v 0.231133 -0.147801 0.888428
v 0.231133 -0.147801 0.888428
v 0.225377 -0.242458 0.881545
v 0.225377 -0.242458 0.881545
v 0.225377 -0.242458 0.881545
v 0.210050 -0.185856 0.872772
v 0.181986 -0.234495 0.877788
v 0.245309 -0.191075 0.886769
v 0.170299 -0.189853 0.879864
v 0.195903 -0.165160 1.101165
v 0.183931 -0.061483 1.125034
v -0.184579 0.010826 1.126784
v -0.229049 0.028906 1.116136
v -0.144741 -0.056053 1.109052
v -0.146906 -0.054326 1.052084
v -0.193289 0.030553 1.075236
v -0.235031 0.108701 1.078384
v -0.203418 0.133366 1.060819
v -0.160817 0.129315 1.046889
v -0.179772 0.116056 0.878865
v -0.180353 0.193645 0.884726
v -0.229905 0.195401 0.889612
v -0.224518 0.105474 0.882496
v -0.211615 0.172102 0.870405
v -0.215728 0.086862 1.130297
v -0.153439 0.091263 1.120491
v -0.244424 0.153115 0.887856
v -0.168432 0.159456 0.881056
v -0.194704 0.020304 1.101519
v -0.230389 0.039790 1.078673
v -0.183055 0.103837 1.125038
v -0.184579 0.010826 1.126784
v -0.193289 0.030553 1.075236
v -0.203418 0.133366 1.060819
v -0.179772 0.116056 0.878865
v -0.180353 0.193645 0.884726
v -0.229905 0.195401 0.889612
v -0.229905 0.195401 0.889612
v -0.229905 0.195401 0.889612
v -0.224518 0.105474 0.882496
v -0.224518 0.105474 0.882496
v -0.224518 0.105474 0.882496
v -0.211615 0.172102 0.870405
v -0.244424 0.153115 0.887856
v -0.168432 0.159456 0.881056
v -0.194704 0.020304 1.101519
v -0.183055 0.103837 1.125038
v -0.062430 0.011390 1.531516
v -0.046667 0.048705 1.513235
v -0.049963 -0.059179 1.593295
v -0.039382 -0.084474 1.669752
v -0.035741 0.086715 1.689566
v -0.057984 0.067405 1.613070
v -0.053992 0.078414 1.635035
v 0.000166 -0.052662 1.716214
v -0.059737 0.080300 1.590991
v -0.068355 0.008354 1.566245
v 0.061729 0.011431 1.531479
v 0.045818 0.048770 1.513220
v 0.049510 -0.059099 1.593266
v 0.038928 -0.084430 1.669583
v 0.035374 0.086756 1.689599
v 0.057198 0.067507 1.613034
v 0.053141 0.078495 1.635004
v 0.058835 0.080402 1.590960
v 0.067565 0.008468 1.566208
v -0.060061 0.054479 1.669285
v 0.058502 0.054688 1.669947
v 0.080155 -0.009898 1.619055
v -0.080455 -0.009664 1.619624
v 0.067582 0.022243 1.626627
v -0.068203 0.022154 1.626667
v 0.070395 -0.025404 1.626033
v -0.071358 -0.025372 1.626276
v -0.017002 0.092336 1.575263
v 0.016161 0.092361 1.575254
v 0.005964 0.096744 1.618679
v 0.006319 0.119632 1.579204
v -0.000414 0.099048 1.641016
v -0.007019 0.096745 1.618683
v -0.000365 0.115225 1.570897
v 0.019868 0.089184 1.499956
v -0.020666 0.089139 1.499968
v 0.068316 -0.033735 1.677983
v -0.068241 -0.033721 1.677531
v -0.048601 -0.025869 1.706332
v 0.052056 0.034293 1.697546
v -0.028150 0.061673 1.716761
v 0.028012 0.061519 1.716584
v 0.048547 -0.025882 1.705457
v -0.053642 0.034302 1.698342
v 0.015057 0.087514 1.613375
v -0.016036 0.087463 1.613393
v -0.000422 0.102143 1.566694
v 0.018679 0.010027 1.725616
v -0.018581 0.010097 1.725742
v 0.047871 0.081416 1.542282
v -0.048715 0.081342 1.542304
v 0.016517 0.099823 1.535285
v -0.017339 0.099801 1.535291
v -0.007189 0.119626 1.579209
v -0.000426 0.053840 1.492939
v -0.000350 0.009289 1.506616
v -0.000396 -0.006588 1.555192
v -0.001784 -0.090479 1.602346
v -0.000227 -0.073864 1.578118
v -0.039382 -0.084474 1.669752
v -0.048601 -0.025869 1.706332
v -0.018581 0.010097 1.725742
v -0.000350 0.009289 1.506616
v -0.000396 -0.006588 1.555192
v -0.001784 -0.090479 1.602346
v -0.000227 -0.073864 1.578118
v -0.209250 0.178680 0.877300
v -0.199950 0.177130 0.877300
v -0.199950 0.155430 0.877300
v -0.209250 0.155430 0.877300
v -0.220100 0.196893 0.837000
v -0.201500 0.194955 0.833900
v -0.201500 0.174805 0.833900
v -0.217000 0.173643 0.837000
v -0.229400 0.210068 0.818400
v -0.223200 -0.005583 0.785098
v -0.213900 -0.009626 0.782301
v -0.204600 -0.007739 0.787895
v 0.209250 -0.172480 0.877300
v 0.199950 -0.174030 0.877300
v 0.199950 -0.195730 0.877300
v 0.209250 -0.195730 0.877300
v 0.220100 -0.184493 0.837000
v 0.201500 -0.188755 0.833900
v 0.201500 -0.208905 0.833900
v 0.217000 -0.207743 0.837000
v 0.229400 -0.185268 0.818400
v 0.223200 -0.000617 0.784300
v 0.213900 -0.002774 0.781200
v 0.204600 -0.004661 0.787400
vn 0.5729 0.8145 -0.0909
vn -0.5797 0.8112 -0.0768
vn 0.5792 0.8150 0.0177
vn -0.5908 0.8068 0.0067
vn 0.8838 0.4677 0.0130
vn -0.8833 0.4687 0.0095
vn -0.6122 -0.7878 0.0673
vn 0.6182 -0.7834 0.0644
vn 0.0002 -0.9979 0.0649
vn 0.0009 -0.9972 0.0743
vn -0.0072 0.9999 0.0107
vn 0.0004 0.9963 -0.0863
vn 0.9221 -0.3862 0.0256
vn -0.9193 -0.3925 0.0278
vn 0.5906 -0.8044 -0.0638
vn -0.5930 -0.8029 -0.0603
vn -0.0017 -0.9999 0.0130
vn -0.8826 0.4701 0.0073
vn 0.8819 0.4714 -0.0045
vn -0.5687 0.8085 -0.1514
vn 0.5743 0.7992 -0.1777
vn 0.8952 0.4403 -0.0686
vn -0.8936 0.4470 -0.0404
vn 0.1489 -0.9863 0.0713
vn -0.0525 -0.9642 0.2599
vn -0.0005 -0.9994 -0.0335
vn 0.0005 0.9866 -0.1629
vn 0.0058 0.9988 -0.0488
vn -0.0014 0.9954 -0.0962
vn 0.0763 -0.9953 -0.0596
vn -0.0775 -0.9951 -0.0619
vn 0.8293 -0.5315 -0.1728
vn -0.8315 -0.5295 -0.1679
vn 0.4478 -0.8881 -0.1038
vn -0.4541 -0.8846 -0.1060
vn -0.9142 -0.4052 0.0070
vn 0.9144 -0.4047 0.0063
vn 0.9437 -0.3172 -0.0943
vn -0.9428 -0.3208 -0.0911
vn 0.6309 -0.7673 0.1149
vn 0.9100 0.4098 0.0624
vn 0.6192 0.7810 0.0813
vn -0.6123 0.7844 0.0988
vn -0.9050 0.4143 0.0965
vn -0.6319 -0.7675 0.1078
vn -0.0075 0.9983 0.0579
vn 0.5960 -0.8028 0.0177
vn -0.6093 -0.7926 0.0234
vn 0.0007 -0.9983 -0.0581
vn 0.9414 -0.3228 0.0979
vn -0.9397 -0.3349 0.0690
vn 0.9177 0.3243 0.2294
vn 0.6022 0.7892 0.1209
vn -0.8945 0.3817 0.2329
vn -0.5811 0.8066 0.1088
vn -0.0018 0.9960 -0.0891
vn 0.1548 -0.5947 -0.7889
vn -0.1587 -0.5956 -0.7874
vn -0.2804 0.5423 -0.7920
vn 0.2090 -0.8700 -0.4466
vn -0.7152 0.6462 0.2662
vn 0.7271 0.6069 0.3209
vn -0.0004 -0.9379 -0.3470
vn -0.2145 -0.8709 -0.4422
vn 0.2779 0.6412 -0.7153
vn -0.3092 0.7081 -0.6348
vn 0.3050 -0.2119 -0.9285
vn -0.3067 -0.2179 -0.9266
vn -0.2603 0.9494 -0.1758
vn 0.2373 0.9615 -0.1385
vn -0.3043 -0.9073 -0.2901
vn 0.3027 -0.9072 -0.2923
vn -0.8916 -0.3923 0.2260
vn 0.8938 -0.3910 0.2195
vn 0.9584 -0.1536 0.2405
vn -0.9646 -0.1238 0.2329
vn -0.9764 0.0466 0.2108
vn 0.5446 -0.4565 -0.7035
vn 0.9719 0.0470 0.2308
vn -0.5634 -0.4489 -0.6936
vn 0.8359 -0.2736 -0.4758
vn -0.8443 -0.2699 -0.4629
vn 0.2998 -0.2188 -0.9286
vn -0.3631 -0.0026 -0.9318
vn 0.7275 0.3152 -0.6094
vn -0.7470 0.2962 -0.5952
vn 0.3465 0.4837 -0.8038
vn -0.8631 0.4708 -0.1825
vn -0.2900 0.9059 0.3087
vn 0.8015 0.5804 0.1441
vn 0.8062 -0.5767 -0.1322
vn -0.8613 -0.4579 -0.2200
vn -0.3288 0.9012 0.2825
vn 0.8596 0.4793 0.1773
vn -0.4228 -0.8661 -0.2668
vn -0.8233 -0.5528 -0.1285
vn 0.7815 -0.5883 -0.2076
vn 0.7844 0.6201 -0.0145
vn 0.8368 -0.5474 -0.0114
vn 0.4811 0.0152 -0.8765
vn 0.3994 -0.9159 -0.0390
vn 0.2165 0.9706 0.1053
vn 0.3883 -0.9033 -0.1825
vn 0.8295 0.5195 0.2052
vn 0.8168 0.5397 0.2038
vn 0.5606 0.8239 0.0829
vn -0.4871 0.8719 0.0513
vn 0.7563 -0.6520 0.0545
vn 0.4668 0.6360 -0.6145
vn 0.3932 -0.8660 -0.3091
vn 0.2714 0.9417 0.1987
vn 0.3708 -0.8877 -0.2727
vn 0.9990 -0.0405 -0.0206
vn 0.3058 -0.2780 -0.9106
vn 0.2522 -0.9671 -0.0346
vn -0.9473 -0.1661 -0.2740
vn -0.8800 0.1245 -0.4584
vn 0.2006 0.9769 0.0737
vn -0.4429 -0.8906 -0.1034
vn 0.2750 0.8806 0.3859
vn 0.2630 0.8950 0.3602
vn 0.2815 -0.4847 -0.8282
vn 0.6093 0.7745 -0.1701
vn -0.4052 -0.8723 -0.2739
vn 0.9101 0.2858 -0.3002
vn -0.2643 0.9352 -0.2357
vn -0.8430 0.5185 -0.1434
vn -0.7739 -0.6083 0.1765
vn 0.7590 -0.6509 -0.0163
vn 0.5575 -0.7876 -0.2623
vn -0.8727 0.4461 -0.1985
vn 0.3298 -0.8494 0.4120
vn -0.2171 -0.9544 0.2048
vn -0.7745 -0.6068 0.1789
vn -0.8231 0.5573 -0.1090
vn -0.8063 -0.5848 0.0890
vn -0.3000 -0.2813 -0.9115
vn -0.3939 -0.9106 0.1247
vn -0.1820 0.9828 -0.0306
vn -0.4259 -0.8857 0.1848
vn -0.8323 0.5181 -0.1971
vn 0.9082 0.4053 -0.1044
vn 0.7883 0.6146 -0.0303
vn 0.9643 0.2200 0.1476
vn -0.3023 0.4768 -0.8254
vn -0.2788 -0.4820 -0.8306
vn 0.3847 -0.8379 0.3872
vn 0.4549 0.8739 -0.1714
vn -0.3570 -0.8534 0.3800
vn -0.9991 -0.0416 0.0009
vn -0.3375 0.1548 -0.9285
vn -0.2692 -0.9611 -0.0619
vn 0.9482 -0.1526 -0.2787
vn -0.2489 0.9647 -0.0857
vn 0.8778 0.0798 -0.4723
vn 0.1774 -0.9246 0.3372
vn -0.2888 0.8928 -0.3456
vn -0.2646 0.9102 -0.3186
vn -0.6072 0.7790 -0.1563
vn -0.7496 -0.6582 0.0700
vn -0.3901 -0.8636 0.3195
vn -0.0032 0.9478 -0.3190
vn 0.7579 -0.4958 -0.4239
vn 0.8676 -0.0611 -0.4935
vn -0.0741 0.8199 -0.5677
vn -0.7567 -0.4954 -0.4266
vn -0.0013 -0.9424 -0.3344
vn 0.0139 -0.4937 -0.8695
vn 0.0750 0.8109 -0.5804
vn -0.8657 -0.0652 -0.4962
vn -0.0029 0.1554 -0.9878
vn -0.5891 0.8056 -0.0629
vn -0.9231 0.3832 -0.0320
vn -0.9220 -0.3770 -0.0878
vn -0.4274 -0.9030 -0.0446
vn -0.5806 0.8068 -0.1092
vn 0.8385 0.4870 0.2445
vn 0.0501 -0.9831 -0.1761
vn -0.6443 0.7154 0.2703
vn -0.5045 -0.8393 -0.2027
vn -0.7047 -0.6932 -0.1510
vn 0.7269 -0.6775 -0.1123
vn -0.6947 0.7059 0.1384
vn -0.5952 0.8012 0.0610
vn 0.6263 0.0671 0.7767
vn -0.4002 -0.9107 -0.1025
vn 0.1319 0.0206 0.9911
vn -0.0437 0.9956 0.0835
vn -0.9641 -0.2392 -0.1153
vn 0.0250 -0.9764 -0.2147
vn 0.6498 0.7100 0.2714
vn -0.0000 0.0002 1.0000
vn -0.5086 -0.8434 -0.1730
vn -0.9986 -0.0432 -0.0314
vn 0.9859 0.1322 0.1027
vn 0.0751 0.0051 0.9972
vn -0.9849 0.1466 0.0922
vn 0.9852 0.1448 0.0918
vn 0.2452 -0.9573 0.1533
vn -0.5104 0.8474 0.1466
vn -0.0000 0.0003 1.0000
vn -0.8975 0.4403 0.0252
vn -0.0001 0.0002 1.0000
vn -0.5798 0.7575 0.2999
vn -0.9832 0.1462 0.1097
vn 0.5925 0.8041 -0.0487
vn 0.9110 0.4019 -0.0928
vn 0.9200 -0.3865 -0.0642
vn 0.4207 -0.9054 -0.0569
vn 0.5858 0.8027 -0.1117
vn 0.1184 -0.8306 0.5441
vn -0.9916 0.1263 0.0267
vn 0.6566 0.7293 -0.1924
vn 0.9890 0.1476 0.0106
vn -0.0809 -0.9388 0.3348
vn 0.0001 0.0001 1.0000
vn -0.7934 -0.5646 0.2274
vn 0.5918 0.7896 -0.1626
vn -0.7199 0.0589 0.6916
vn 0.4996 -0.8613 0.0930
vn 0.0787 -0.0058 0.9969
vn 0.0013 0.9991 -0.0416
vn -0.0184 -0.9315 0.3633
vn -0.6598 0.7263 -0.1927
vn 0.7196 0.6798 -0.1417
vn 0.9984 -0.0535 -0.0192
vn 0.3217 -0.0520 0.9454
vn -0.0816 0.8963 -0.4359
vn 0.5128 -0.8064 0.2947
vn 0.7818 -0.6117 0.1205
vn -0.9893 0.1455 0.0052
vn 0.6105 0.7607 -0.2203
vn -0.0614 -0.9759 0.2092
vn -0.3426 0.9191 -0.1947
vn 0.8850 0.4362 -0.1625
vn 0.9702 -0.2417 -0.0175
vn 0.9887 0.1476 0.0247
vn 0.4896 -0.7993 0.3484
vn -0.9944 0.1009 -0.0324
vn 0.4434 -0.8403 0.3118
vn 0.0163 -0.9310 0.3647
vn -0.9697 0.2400 -0.0457
vn -0.7120 0.6885 -0.1378
vn 0.9707 0.2333 -0.0576
vn 0.6583 0.7313 -0.1784
vn -0.4584 0.8572 -0.2349
vn 0.6184 0.7310 -0.2884
vn -0.6306 0.7244 -0.2785
vn 0.0054 -0.9101 0.4144
vn 0.4678 0.8511 -0.2383
vn -0.4452 -0.8349 0.3237
vn 0.9933 0.1074 -0.0427
vn -0.9802 0.1075 0.1665
vn -0.1007 -0.9746 0.2001
vn 0.9799 0.1196 0.1597
vn 0.4600 0.8851 -0.0707
vn -0.3628 -0.5059 -0.7826
vn 0.6474 -0.2976 -0.7017
vn -0.9729 -0.2310 0.0048
vn -0.0000 0.0013 1.0000
vn 0.9667 -0.2550 -0.0230
vn -0.5290 -0.8239 0.2035
vn 0.9692 0.1273 0.2110
vn -0.0084 -0.4924 -0.8704
vn -0.8325 0.5540 0.0054
vn 0.4342 0.8410 -0.3228
vn -0.4961 -0.8237 0.2748
vn 0.3327 -0.9023 0.2743
vn -0.9992 0.0290 -0.0258
vn 0.9736 0.1278 -0.1891
vn -0.9945 0.0441 -0.0948
vn -0.6416 0.7662 -0.0358
vn 0.9770 0.1364 -0.1639
vn -0.9591 0.0008 0.2832
vn -0.9691 0.1136 0.2191
vn -0.4197 -0.2751 -0.8650
vn 0.9796 0.1284 -0.1549
vn 0.3608 -0.9119 0.1957
vn 0.3532 -0.4360 -0.8277
vn -0.0880 -0.9950 -0.0483
vn -0.5134 0.8123 -0.2767
vn 0.7553 0.6546 -0.0322
vn 0.6866 -0.7200 0.1013
vn 0.5064 -0.7214 -0.4723
vn -0.6073 -0.7886 0.0967
vn -0.4314 -0.7647 -0.4786
vn -0.6957 -0.3945 -0.6003
vn 0.7272 -0.2425 -0.6422
vn 0.4377 -0.8635 -0.2504
vn -0.9951 0.0993 -0.0007
vn -0.0142 -0.9668 -0.2552
vn 0.9646 0.2417 0.1054
vn 0.6655 0.6847 0.2972
vn -0.9666 0.2375 0.0963
vn -0.6475 0.7095 0.2781
vn 0.4500 0.8410 0.3003
vn 0.6444 0.7351 0.2109
vn -0.6346 0.7439 0.2096
vn 0.0041 -0.9749 -0.2226
vn -0.4620 0.8370 0.2932
vn 0.9958 0.0911 0.0050
vn -0.4364 -0.8618 -0.2585
vn 0.9681 0.1019 0.2290
vn 0.1007 -0.9144 -0.3920
vn -0.9645 0.1248 0.2328
vn -0.5548 0.7124 0.4299
vn -0.9859 0.1347 -0.0988
vn 0.9628 -0.2353 -0.1326
vn 0.9995 0.0247 -0.0221
vn 0.7123 0.5653 0.4160
vn -0.9881 0.1459 -0.0479
vn -0.9708 0.1239 0.2054
vn 0.9696 0.1013 0.2229
vn 0.0548 -0.8383 -0.5424
vn -0.6539 0.6846 0.3222
vn 0.6473 0.7156 0.2627
vn 0.4977 -0.8276 -0.2594
vn -0.3293 -0.8955 -0.2995
vn -0.0000 0.0012 1.0000
vn -0.5095 -0.2612 -0.8199
vn 0.9983 0.0419 -0.0417
vn 0.2165 -0.4372 -0.8729
vn -0.9514 -0.2556 -0.1720
vn -0.9883 0.1349 -0.0710
vn -0.3466 -0.8629 -0.3679
vn -0.3084 -0.3756 -0.8740
vn 0.9509 -0.0104 0.3095
vn 0.5117 -0.7973 -0.3203
vn 0.3850 -0.2678 -0.8832
vn 0.0241 -0.3963 -0.9178
vn -0.6191 0.7573 0.2078
vn 0.7121 0.5932 0.3754
vn -0.5553 -0.7536 -0.3516
vn -0.5060 -0.5561 -0.6593
vn 0.4621 -0.7959 -0.3910
vn 0.4555 -0.5848 -0.6712
vn 0.6545 -0.3232 -0.6835
vn -0.6861 -0.2105 -0.6964
vn -0.3062 0.8758 -0.3731
vn -0.8199 0.4971 -0.2839
vn 0.4158 -0.8697 0.2659
vn -0.3240 0.9031 0.2819
vn -0.2909 0.8928 -0.3440
vn -0.8597 -0.5108 0.0036
vn -0.4439 -0.8724 0.2045
vn -0.4750 -0.8298 0.2928
vn 0.0668 -0.2601 0.9633
vn -0.9196 -0.3676 0.1385
vn 0.4612 0.6912 -0.5564
vn 0.0626 -0.1207 0.9907
vn 0.0317 0.0844 0.9959
vn -0.7803 -0.6250 0.0224
vn -0.3342 -0.9179 0.2141
vn -0.3750 -0.0505 0.9257
vn 0.1822 -0.0723 0.9806
vn -0.3694 0.8725 -0.3197
vn -0.7660 0.5824 -0.2723
vn -0.3881 -0.8965 0.2136
vn 0.8992 0.4019 0.1730
vn 0.9168 0.3993 -0.0118
vn 0.1875 -0.9149 0.3576
vn 0.6355 -0.6997 0.3264
vn -0.0551 -0.3536 0.9338
vn 0.0882 -0.9324 0.3506
vn -0.3846 -0.1608 0.9089
vn -0.3627 0.0461 0.9308
vn -0.0605 0.1369 0.9887
vn -0.8701 0.4665 -0.1589
vn -0.3757 -0.0572 0.9250
vn 0.4724 0.6557 -0.5889
vn -0.9928 0.1149 -0.0331
vn 0.9975 0.0677 0.0206
vn 0.9004 0.4297 0.0683
vn 0.3672 -0.8658 0.3399
vn 0.8421 0.5388 -0.0226
vn 0.8550 0.5075 0.1066
vn -0.2895 0.9534 0.0846
vn -0.2613 0.9357 0.2368
vn 0.8616 0.4988 0.0942
vn 0.8342 -0.4494 -0.3197
vn 0.4086 -0.8171 -0.4067
vn -0.7463 -0.6376 -0.1911
vn -0.0655 0.1124 0.9915
vn -0.5498 -0.7970 -0.2499
vn -0.0883 -0.9316 -0.3527
vn 0.8848 0.4333 0.1715
vn -0.0914 -0.2605 0.9611
vn 0.7299 -0.5859 -0.3520
vn -0.8375 -0.5231 -0.1578
vn 0.9993 -0.0354 -0.0151
vn -0.9852 -0.1400 0.0987
vn 0.8246 0.5519 0.1247
vn 0.7674 0.6183 0.1696
vn -0.3786 -0.8597 -0.3428
vn 0.2876 0.8947 0.3417
vn 0.2843 0.9071 0.3104
vn -0.1965 -0.9223 -0.3327
vn -0.6632 0.4668 0.5850
vn -0.1653 -0.3683 0.9149
vn 0.0565 -0.6083 0.7917
vn 0.5555 -0.2240 0.8007
vn 0.9026 -0.3999 -0.1592
vn 0.0395 0.1710 0.9845
vn 0.1257 0.7501 0.6493
vn 0.4319 0.0794 0.8984
vn 0.5123 -0.1015 0.8528
vn 0.4800 -0.0234 0.8770
vn -0.2583 -0.0706 0.9635
vn 0.3474 0.8911 0.2919
vn 0.3664 -0.8358 -0.4089
vn 0.7352 0.4884 0.4701
vn 0.7016 -0.0399 0.7114
vn 0.6652 0.5925 0.4543
vn 0.7761 0.6291 -0.0438
vn 0.4613 -0.7817 -0.4198
vn 0.8263 -0.5414 -0.1554
vn 0.7256 -0.6844 0.0709
vn -0.0067 0.5152 -0.8571
vn 0.7435 -0.6577 -0.1210
vn 0.9009 0.2643 0.3442
vn -0.7361 0.4877 0.4695
vn -0.7008 -0.0408 0.7122
vn -0.6640 0.5956 0.4520
vn -0.4888 0.8243 -0.2859
vn -0.4689 -0.7764 -0.4211
vn -0.8251 -0.5435 -0.1542
vn -0.7262 -0.6840 0.0687
vn -0.7420 -0.6595 -0.1205
vn -0.9011 0.2630 0.3448
vn 0.9299 -0.2957 -0.2187
vn -0.9288 -0.2904 -0.2302
vn -0.9650 0.1689 -0.2007
vn 0.9654 0.1472 -0.2153
vn -0.9789 -0.1766 -0.1027
vn 0.9798 -0.1781 -0.0910
vn -0.9534 0.3017 -0.0051
vn 0.9538 0.3004 -0.0060
vn 0.5340 -0.8439 -0.0526
vn -0.5327 -0.8446 -0.0540
vn -0.3747 -0.9236 -0.0813
vn -0.5463 -0.8322 0.0944
vn 0.0005 -0.9993 -0.0370
vn 0.3775 -0.9225 -0.0808
vn -0.0028 -0.5410 0.8410
vn -0.3706 -0.5902 0.7171
vn 0.3712 -0.5899 0.7171
vn -0.9181 0.2459 -0.3109
vn 0.9185 0.2498 -0.3064
vn 0.3773 0.3743 -0.8471
vn -0.8216 -0.1566 -0.5481
vn 0.3604 -0.4160 -0.8349
vn -0.3771 -0.4102 -0.8304
vn -0.6159 0.2264 -0.7546
vn 0.8165 -0.1548 -0.5562
vn -0.5329 -0.8387 0.1120
vn 0.5361 -0.8364 0.1137
vn 0.0020 -0.8764 0.4816
vn -0.2713 0.0080 -0.9625
vn 0.5729 -0.0363 -0.8188
vn -0.7848 -0.5680 0.2481
vn 0.7853 -0.5671 0.2483
vn -0.2614 -0.9573 0.1231
vn 0.2626 -0.9570 0.1234
vn 0.5466 -0.8317 0.0972
vn 0.0003 0.1167 0.9932
vn -0.3073 0.6240 0.7185
vn 0.2255 0.7071 0.6702
vn -0.3167 0.9209 0.2271
vn 0.3554 0.5844 0.7295
vn 0.1383 0.8694 -0.4744
vn 0.7472 0.1225 -0.6532
vn 0.0761 0.0301 -0.9966
vn 0.3070 0.6245 0.7182
vn -0.2259 0.7069 0.6702
vn 0.4551 0.8084 0.3733
vn -0.3576 0.6063 0.7103
vn -0.6504 0.6271 0.4286
vn 0.8367 0.5164 0.1826
vn 0.5903 -0.7284 -0.3477
vn -0.5497 -0.8019 -0.2342
vn -0.7276 0.4040 0.5544
vn 0.6410 0.7118 0.2873
vn 0.4357 -0.3169 -0.8424
vn -0.6304 -0.4295 -0.6466
vn -0.8384 -0.0301 0.5442
vn -0.3122 0.0850 -0.9462
vn -0.4297 -0.8890 0.1582
vn -0.2011 -0.7770 0.5965
vn 0.5193 0.8434 -0.1381
vn -0.6862 0.6812 -0.2551
vn -0.7730 -0.6144 0.1577
vn 0.6646 -0.6596 0.3511
vn 0.4363 0.8976 -0.0634
vn -0.7119 0.3207 -0.6248
vn -0.7569 -0.6333 0.1613
vn 0.5561 -0.7426 0.3733
vn -0.5655 -0.0982 -0.8189
vn -0.3699 -0.1020 0.9234
vn -0.0786 -0.7645 0.6398
vn 0.2034 -0.9791 0.0072
vt 0.665969 0.669257
vt 0.622885 0.710336
vt 0.665903 0.713295
vt 0.433020 0.670552
vt 0.386724 0.669302
vt 0.432087 0.708712
vt 0.386779 0.713646
vt 0.385100 0.761452
vt 0.667685 0.761276
vt 0.628489 0.767164
vt 0.972847 0.713340
vt 0.928433 0.667209
vt 0.973318 0.669307
vt 0.621889 0.670471
vt 0.523848 0.670523
vt 0.523871 0.709537
vt 0.523871 0.766773
vt 0.426450 0.766352
vt 0.928815 0.699798
vt 0.734581 0.713691
vt 0.775471 0.667220
vt 0.774899 0.699799
vt 0.769317 0.752144
vt 0.733797 0.761491
vt 0.975033 0.761316
vt 0.853199 0.695656
vt 0.853359 0.667204
vt 0.853234 0.747213
vt 0.931982 0.752144
vt 0.735421 0.669352
vt 0.378018 0.831177
vt 0.415028 0.840899
vt 0.674866 0.831177
vt 0.523683 0.844063
vt 0.639896 0.840899
vt 0.726716 0.831209
vt 0.982213 0.831209
vt 0.937990 0.804490
vt 0.853278 0.798768
vt 0.763332 0.804490
vt 0.372273 0.861821
vt 0.638565 0.877936
vt 0.680410 0.861283
vt 0.416084 0.878633
vt 0.417358 0.907382
vt 0.469175 0.927109
vt 0.523614 0.927549
vt 0.578474 0.927109
vt 0.637305 0.906676
vt 0.944530 0.875809
vt 0.853298 0.858864
vt 0.990067 0.862053
vt 0.997757 0.861312
vt 0.718626 0.862555
vt 0.929901 0.905164
vt 0.878729 0.903298
vt 0.771588 0.905789
vt 0.756974 0.876446
vt 0.828284 0.903298
vt 0.808841 0.927131
vt 0.932248 0.930427
vt 0.898133 0.927131
vt 0.427177 0.941069
vt 0.881367 0.981061
vt 0.853823 0.977381
vt 0.810404 0.992847
vt 0.826278 0.981061
vt 0.547835 0.992652
vt 0.500739 0.992832
vt 0.897494 0.992667
vt 0.853090 0.997471
vt 0.523428 0.997457
vt 0.431494 0.650658
vt 0.523163 0.645731
vt 0.432753 0.597658
vt 0.522611 0.554008
vt 0.431122 0.559704
vt 0.522907 0.592334
vt 0.386762 0.657816
vt 0.373312 0.575255
vt 0.621989 0.650664
vt 0.665776 0.658051
vt 0.680257 0.575262
vt 0.613705 0.597664
vt 0.615411 0.559710
vt 0.876474 0.553606
vt 0.830352 0.553619
vt 0.851755 0.536710
vt 0.853279 0.591092
vt 0.898631 0.630255
vt 0.810311 0.630253
vt 0.735459 0.657866
vt 0.753379 0.598202
vt 0.765127 0.632711
vt 0.729860 0.575314
vt 0.936524 0.593306
vt 0.955294 0.598198
vt 0.943874 0.632704
vt 0.973124 0.658101
vt 0.979101 0.575321
vt 0.772410 0.593302
vt 0.774642 0.630261
vt 0.736794 0.385313
vt 0.750308 0.395301
vt 0.716809 0.395366
vt 0.769392 0.568478
vt 0.794046 0.302035
vt 0.794762 0.316313
vt 0.740219 0.313049
vt 0.796543 0.357334
vt 0.383672 0.312961
vt 0.382328 0.357283
vt 0.417579 0.357365
vt 0.796543 0.385282
vt 0.417679 0.385319
vt 0.380247 0.385234
vt 0.430026 0.537952
vt 0.842408 0.357365
vt 0.510852 0.311989
vt 0.467821 0.310485
vt 0.469112 0.357364
vt 0.850767 0.385399
vt 0.499617 0.395366
vt 0.475256 0.385319
vt 0.419160 0.395343
vt 0.516813 0.537979
vt 0.840515 0.312076
vt 0.479795 0.240744
vt 0.501729 0.088272
vt 0.465812 0.088541
vt 0.793180 0.088893
vt 0.843921 0.088383
vt 0.419053 0.310935
vt 0.381413 0.088986
vt 0.408458 0.241605
vt 0.430831 0.088035
vt 0.744618 0.089097
vt 0.420516 0.242834
vt 0.466773 0.244038
vt 0.792805 0.080029
vt 0.741567 0.055840
vt 0.837464 0.064628
vt 0.385083 0.075974
vt 0.431824 0.055105
vt 0.436465 0.036660
vt 0.463318 0.055355
vt 0.840287 0.075328
vt 0.378362 0.055725
vt 0.508095 0.075215
vt 0.505271 0.064514
vt 0.775621 0.019416
vt 0.810578 0.033466
vt 0.776540 0.032740
vt 0.811241 0.019412
vt 0.840331 0.006654
vt 0.822807 0.051908
vt 0.763224 0.046591
vt 0.738745 0.006654
vt 0.459892 0.036656
vt 0.375539 0.006537
vt 0.748287 0.076087
vt 0.939354 0.568376
vt 0.958253 0.395302
vt 0.912014 0.385284
vt 0.970328 0.357367
vt 0.972409 0.385315
vt 0.914466 0.301816
vt 0.913795 0.316060
vt 0.865425 0.312853
vt 0.992399 0.395367
vt 0.628114 0.395344
vt 0.616593 0.538074
vt 0.629590 0.385321
vt 0.693556 0.395287
vt 0.673564 0.385235
vt 0.671483 0.357285
vt 0.670139 0.313736
vt 0.630997 0.357367
vt 0.863532 0.357367
vt 0.846617 0.527719
vt 0.858625 0.527685
vt 0.533870 0.357284
vt 0.581358 0.385321
vt 0.579464 0.357366
vt 0.853709 0.385401
vt 0.546636 0.395367
vt 0.912014 0.357336
vt 0.535764 0.312765
vt 0.544898 0.088326
vt 0.569437 0.240895
vt 0.585194 0.088516
vt 0.858319 0.088437
vt 0.911835 0.089051
vt 0.629523 0.310740
vt 0.640773 0.241358
vt 0.670450 0.089059
vt 0.620176 0.087991
vt 0.960872 0.089171
vt 0.968984 0.313824
vt 0.580755 0.310389
vt 0.582458 0.243641
vt 0.628716 0.242512
vt 0.667170 0.075984
vt 0.674281 0.055671
vt 0.619676 0.055055
vt 0.615527 0.036606
vt 0.677103 0.006482
vt 0.912608 0.080081
vt 0.957592 0.076096
vt 0.964703 0.055786
vt 0.538189 0.075233
vt 0.588167 0.055316
vt 0.542142 0.064459
vt 0.592116 0.036601
vt 0.865563 0.064573
vt 0.880684 0.051853
vt 0.942582 0.046536
vt 0.892912 0.033412
vt 0.930190 0.019361
vt 0.929271 0.032685
vt 0.892249 0.019357
vt 0.862696 0.006599
vt 0.967525 0.006599
vt 0.861610 0.075346
vt 0.769276 0.931092
vt 0.627452 0.940403
vt 0.710972 0.861849
vt 0.126824 0.340942
vt 0.064275 0.276097
vt 0.057506 0.431516
vt 0.119026 0.277718
vt 0.151719 0.278993
vt 0.154673 0.345378
vt 0.325092 0.260688
vt 0.325008 0.278993
vt 0.300703 0.276506
vt 0.306068 0.332941
vt 0.246732 0.275094
vt 0.030226 0.311103
vt 0.041830 0.275598
vt 0.239925 0.469567
vt 0.221962 0.485307
vt 0.236991 0.420157
vt 0.986526 0.920843
vt 0.980796 0.939300
vt 0.309211 0.417044
vt 0.310321 0.471735
vt 0.683502 0.891961
vt 0.991550 0.890797
vt 0.677258 0.921677
vt 0.324121 0.486268
vt 0.331839 0.421052
vt 0.122407 0.490568
vt 0.160832 0.486269
vt 0.124024 0.438600
vt 0.271935 0.499996
vt 0.060969 0.487396
vt 0.673448 0.949279
vt 0.207100 0.425844
vt 0.327962 0.345378
vt 0.018672 0.485308
vt 0.023811 0.425844
vt 0.234707 0.492146
vt 0.314705 0.494782
vt 0.158550 0.421052
vt 0.319997 0.217921
vt 0.322545 0.239298
vt 0.299604 0.250029
vt 0.117733 0.250367
vt 0.151803 0.260688
vt 0.225053 0.261079
vt 0.219246 0.206670
vt 0.246565 0.262799
vt 0.041764 0.261079
vt 0.064310 0.259353
vt 0.114161 0.202636
vt 0.054639 0.198333
vt 0.146708 0.217921
vt 0.149256 0.239298
vt 0.243460 0.218497
vt 0.300301 0.218190
vt 0.219099 0.063276
vt 0.131797 0.056782
vt 0.035810 0.063276
vt 0.050075 0.062719
vt 0.072746 0.051513
vt 0.079408 0.060154
vt 0.263852 0.060294
vt 0.256035 0.051513
vt 0.305086 0.056782
vt 0.064599 0.760898
vt 0.057613 0.605475
vt 0.030467 0.725821
vt 0.126997 0.696307
vt 0.119393 0.757881
vt 0.154799 0.691337
vt 0.150722 0.755921
vt 0.300949 0.759073
vt 0.306271 0.703935
vt 0.328088 0.691337
vt 0.225406 0.761334
vt 0.213756 0.725821
vt 0.246983 0.761766
vt 0.309204 0.619644
vt 0.311121 0.564956
vt 0.324129 0.550528
vt 0.375441 0.922378
vt 0.379426 0.949279
vt 0.160840 0.550528
vt 0.124125 0.598303
vt 0.158601 0.615730
vt 0.238967 0.567243
vt 0.271868 0.536446
vt 0.236991 0.616665
vt 0.207144 0.611051
vt 0.221985 0.551626
vt 0.234151 0.544663
vt 0.369214 0.892687
vt 0.717114 0.891405
vt 0.122514 0.546386
vt 0.061081 0.549605
vt 0.728124 0.939300
vt 0.315128 0.541928
vt 0.722147 0.921471
vt 0.018696 0.551626
vt 0.331890 0.615730
vt 0.023855 0.611052
vt 0.147186 0.818476
vt 0.147731 0.796983
vt 0.116760 0.787063
vt 0.298568 0.787230
vt 0.324011 0.755921
vt 0.148276 0.775502
vt 0.321565 0.775502
vt 0.055184 0.838376
vt 0.064744 0.777498
vt 0.042168 0.775684
vt 0.246938 0.773864
vt 0.225457 0.775683
vt 0.114706 0.834010
vt 0.321020 0.796983
vt 0.300765 0.818150
vt 0.320474 0.818476
vt 0.243911 0.817863
vt 0.219741 0.829833
vt 0.264028 0.975435
vt 0.305477 0.979045
vt 0.079730 0.975591
vt 0.050105 0.972979
vt 0.036452 0.829833
vt 0.035772 0.972431
vt 0.071250 0.987297
vt 0.132188 0.979045
vt 0.115837 0.978743
vt 0.254539 0.987296
vt 0.219061 0.972431
vt 0.549275 0.006482
vt 0.498139 0.006537
vt 0.512745 0.357283
vt 0.738875 0.357366
vt 0.360259 0.395286
vt 0.528931 0.537953
vt 0.115224 0.056994
vt 0.042117 0.761335
vt 0.225119 0.275598
vt 0.035957 0.206670
vt 0.213515 0.311103
vt 0.528963 0.369448
vt 0.516954 0.369482
vt 0.934489 0.630258
vt 0.905387 0.412259
vt 0.830238 0.540211
vt 0.939179 0.716244
vt 0.631596 0.481351
vt 0.730823 0.538345
vt 0.617232 0.393167
vt 0.999848 0.353271
vt 0.998083 0.257840
vt 0.765503 0.300529
vt 0.601151 0.200653
vt 0.760884 0.163043
vt 0.060670 0.715483
vt 0.169082 0.539093
vt 0.094455 0.412028
vt 0.234659 0.300225
vt 0.269489 0.538030
vt 0.383737 0.392904
vt 0.239158 0.162758
vt -0.005354 0.064715
vt -0.001917 0.257840
vt 0.399872 0.200454
vt 0.468957 0.171514
vt 0.994646 0.064715
vt -0.000152 0.353271
vt -0.002483 0.450220
vt 0.997517 0.450220
vt -0.060821 0.716244
vt -0.143479 0.856629
vt 0.000832 0.897551
vt 0.688645 0.820741
vt 0.582015 0.891548
vt 0.856521 0.856629
vt 0.348120 0.706927
vt 0.154757 0.745017
vt 0.795677 0.512803
vt 0.312637 0.817477
vt 0.653858 0.704461
vt 0.610534 0.567371
vt 0.571377 0.782281
vt 0.203890 0.510393
vt 0.369252 0.481074
vt 0.390383 0.567122
vt 0.428743 0.782327
vt 0.845682 0.743381
vt 0.652514 0.088101
vt 0.488266 0.501345
vt 0.467019 0.330020
vt 0.467482 0.481036
vt 0.348633 0.087934
vt 0.500497 0.589470
vt 0.501323 0.007467
vt 0.457442 0.032644
vt 0.543736 0.032739
vt 0.513207 0.501378
vt 0.533986 0.481144
vt 0.490219 0.343687
vt 0.534125 0.330095
vt 0.500533 0.295504
vt 0.500373 0.311181
vt 0.510698 0.343722
vt 0.532099 0.171578
vt 0.143888 0.853064
vt 0.417290 0.890797
vt 0.232631 0.930197
vt 0.767180 0.930729
vt -0.232820 0.930729
vt 0.200000 0.400000
vt 0.250000 0.400000
vt 0.250000 0.300000
vt 0.200000 0.300000
vt 0.250000 0.350000
vt 0.250000 0.250000
vt 0.200000 0.350000
vt 0.200000 0.250000
vt 0.180000 0.220000
vt 0.200000 0.150000
vt 0.230000 0.150000
vt 0.260000 0.150000
s 1
usemtl npc_kapten_kuro_mat
f 18/1/18 4/2/4 6/3/6
f 1/4/1 19/5/19 3/6/3
f 5/7/5 41/8/41 3/6/3
f 44/9/44 4/2/4 43/10/43
f 5/7/5 3/6/3 19/5/19
f 14/11/14 16/12/16 36/13/36
f 2/14/2 12/15/12 11/16/11
f 1/4/1 3/6/3 11/16/11
f 46/17/46 3/6/3 42/18/42
f 7/19/7 16/12/16 14/11/14
f 13/20/13 15/21/15 8/22/8
f 8/22/8 40/23/40 50/24/50
f 7/19/7 14/11/14 51/25/51
f 16/12/16 7/19/7 9/26/9
f 15/21/15 17/27/17 9/26/9
f 8/22/8 15/21/15 9/26/9
f 9/26/9 10/28/10 40/23/40
f 9/26/9 7/19/7 45/29/45
f 17/27/17 16/12/16 9/26/9
f 4/2/4 18/1/18 2/14/2
f 13/20/13 37/30/37 15/21/15
f 10/28/10 9/26/9 45/29/45
f 9/26/9 40/23/40 8/22/8
f 8/22/8 50/24/50 13/20/13
f 41/8/41 42/18/42 3/6/3
f 4/2/4 11/16/11 46/17/46
f 6/3/6 4/2/4 44/9/44
f 7/19/7 51/25/51 45/29/45
f 43/10/43 4/2/4 46/17/46
f 52/31/52 53/32/53 42/18/42
f 54/33/54 44/9/44 43/10/43
f 43/10/43 46/17/46 56/34/56
f 43/10/43 56/34/56 55/35/55
f 50/24/50 40/23/40 75/36/75
f 45/29/45 76/37/76 48/38/48
f 49/39/49 10/28/10 48/38/48
f 47/40/47 40/23/40 10/28/10
f 47/40/47 10/28/10 49/39/49
f 40/23/40 47/40/47 75/36/75
f 10/28/10 45/29/45 48/38/48
f 45/29/45 51/25/51 76/37/76
f 54/33/54 43/10/43 55/35/55
f 42/18/42 53/32/53 56/34/56
f 41/8/41 52/31/52 42/18/42
f 46/17/46 42/18/42 56/34/56
f 53/32/53 52/31/52 62/41/62
f 69/42/69 61/43/61 55/35/55
f 53/32/53 70/44/70 56/34/56
f 87/45/87 65/46/65 162/47/162
f 69/42/69 56/34/56 162/47/162
f 66/48/66 59/49/59 162/47/162
f 71/50/71 63/51/63 48/38/48
f 73/52/73 76/37/76 77/53/77
f 63/51/63 49/39/49 48/38/48
f 61/43/61 54/33/54 55/35/55
f 47/40/47 74/54/74 75/36/75
f 47/40/47 49/39/49 63/51/63
f 58/55/58 64/56/64 63/51/63
f 63/51/63 57/57/57 72/58/72
f 57/57/57 60/59/60 81/60/81
f 58/55/58 68/61/68 82/62/82
f 64/56/64 60/59/60 63/51/63
f 82/62/82 64/56/64 58/55/58
f 63/51/63 60/59/60 57/57/57
f 70/44/70 162/47/162 56/34/56
f 67/63/67 65/46/65 87/45/87
f 59/49/59 69/42/69 162/47/162
f 166/64/166 167/65/167 64/56/64
f 167/65/167 60/59/60 64/56/64
f 164/66/164 81/60/81 163/67/163
f 81/60/81 60/59/60 163/67/163
f 165/68/165 162/47/162 169/69/169
f 66/48/66 162/47/162 165/68/165
f 166/64/166 82/62/82 170/70/170
f 166/64/166 64/56/64 82/62/82
f 167/65/167 163/67/163 60/59/60
f 162/47/162 65/46/65 169/69/169
f 167/65/167 166/64/166 168/71/168
f 163/67/163 167/65/167 168/71/168
f 171/72/171 165/68/165 169/69/169
f 163/67/163 168/71/168 164/66/164
f 166/64/166 170/70/170 168/71/168
f 21/73/21 1/4/1 27/74/27
f 215/75/210 28/76/28 211/77/206
f 29/78/29 215/75/210 27/74/27
f 22/79/22 19/5/19 1/4/1
f 21/73/21 22/79/22 1/4/1
f 212/80/207 22/79/22 215/75/210
f 212/80/207 215/75/210 211/77/206
f 27/74/27 2/14/2 20/81/20
f 23/82/23 2/14/2 18/1/18
f 20/81/20 2/14/2 23/82/23
f 173/83/173 176/84/176 23/82/23
f 173/83/173 172/85/172 176/84/176
f 24/86/24 25/87/25 216/88/211
f 26/89/26 31/90/31 30/91/30
f 38/92/38 15/21/15 37/30/37
f 213/93/208 32/94/32 38/92/38
f 213/93/208 38/92/38 234/95/226
f 175/96/175 31/90/31 26/89/26
f 175/96/175 174/97/174 33/98/33
f 33/98/33 39/99/39 16/12/16
f 16/12/16 39/99/39 36/13/36
f 174/97/174 194/100/194 39/99/39
f 27/74/27 1/4/1 12/15/12
f 176/84/176 28/76/28 29/78/29
f 27/74/27 176/84/176 29/78/29
f 26/89/26 24/86/24 175/96/175
f 17/27/17 31/90/31 16/12/16
f 32/94/32 214/101/209 34/102/34
f 30/91/30 15/21/15 34/102/34
f 21/73/21 27/74/27 215/75/210
f 22/79/22 21/73/21 215/75/210
f 23/82/23 176/84/176 20/81/20
f 20/81/20 176/84/176 27/74/27
f 29/78/29 28/76/28 215/75/210
f 28/76/28 176/84/176 172/85/172
f 233/103/216 221/104/216 229/105/216
f 226/106/220 213/93/208 239/104/230
f 253/107/241 261/108/249 252/109/240
f 252/109/240 261/108/249 230/110/223
f 264/111/252 219/112/214 218/113/213
f 226/106/220 220/114/215 25/87/25
f 232/115/225 219/112/214 248/116/237
f 224/117/218 212/80/207 211/77/206
f 222/118/217 220/114/215 230/110/223
f 251/119/239 260/120/248 231/121/224
f 25/87/25 222/118/217 216/88/211
f 25/87/25 220/114/215 222/118/217
f 222/118/217 217/122/212 216/88/211
f 239/104/230 213/93/208 234/95/226
f 227/123/221 235/124/227 223/125/192
f 28/76/28 228/126/222 224/117/218
f 226/106/220 25/87/25 214/101/209
f 263/127/251 222/118/217 230/110/223
f 260/120/248 251/119/239 254/128/242
f 265/129/253 255/130/243 254/128/242
f 266/131/254 279/132/267 263/127/251
f 265/129/253 254/128/242 251/119/239
f 218/113/213 259/133/247 264/111/252
f 267/134/255 256/135/244 257/136/245
f 267/134/255 264/111/252 256/135/244
f 280/137/268 266/131/254 252/109/240
f 260/120/248 259/133/247 218/113/213
f 257/136/245 256/135/244 262/138/250
f 258/139/246 255/130/243 257/136/245
f 266/131/254 253/107/241 252/109/240
f 263/127/251 253/107/241 266/131/254
f 259/133/247 258/139/246 262/138/250
f 255/130/243 258/139/246 254/128/242
f 276/140/264 270/141/258 269/142/257
f 275/143/263 257/136/245 278/144/266
f 268/145/256 299/144/282 277/146/265
f 255/130/243 298/146/281 278/144/266
f 297/140/280 274/147/262 266/131/254
f 299/144/282 283/148/270 294/143/277
f 291/149/274 282/150/269 277/146/265
f 292/149/275 255/130/243 265/129/253
f 300/151/283 303/152/286 301/153/284
f 303/152/286 300/151/283 302/154/285
f 271/155/259 303/152/286 302/154/285
f 303/152/286 304/156/287 301/153/284
f 305/157/288 273/158/261 300/151/283
f 305/157/288 269/142/257 270/141/258
f 301/153/284 305/157/288 300/151/283
f 284/155/260 307/154/260 306/151/260
f 306/151/260 288/158/260 284/155/260
f 281/145/260 272/159/260 289/160/260
f 295/161/278 266/131/254 280/137/268
f 175/96/175 186/162/186 174/97/174
f 174/97/174 186/162/186 181/163/181
f 24/86/24 178/164/178 186/162/186
f 178/164/178 180/165/180 193/166/193
f 310/167/291 318/168/299 308/169/289
f 189/170/189 194/100/194 181/163/181
f 183/171/183 184/172/184 173/83/173
f 192/173/192 204/174/201 208/175/201
f 198/176/197 309/177/290 179/178/179
f 216/88/211 182/179/182 24/86/24
f 318/168/299 182/179/182 308/169/289
f 182/179/182 178/164/178 24/86/24
f 216/88/211 225/180/219 185/181/185
f 200/182/198 177/183/177 191/184/191
f 216/88/211 185/181/185 195/185/195
f 179/178/179 207/173/204 198/176/197
f 201/171/192 196/183/196 187/186/187
f 201/171/192 192/173/192 196/183/196
f 178/164/178 190/187/190 180/165/180
f 318/168/299 180/165/180 190/187/190
f 200/182/198 191/184/191 320/188/301
f 322/189/303 311/190/292 312/191/293
f 322/189/303 320/188/301 311/190/292
f 336/192/317 323/193/304 308/169/289
f 317/194/298 309/177/290 313/195/294
f 309/177/290 324/196/305 313/195/294
f 324/196/305 314/197/295 313/195/294
f 337/198/318 321/199/302 323/193/304
f 316/200/297 179/178/179 317/194/298
f 314/197/295 312/191/293 315/201/296
f 311/190/292 315/201/296 312/191/293
f 323/193/304 321/199/302 310/167/291
f 308/169/289 323/193/304 310/167/291
f 316/200/297 315/201/296 311/190/292
f 314/197/295 315/201/296 319/202/300
f 331/203/312 314/197/295 324/196/305
f 348/203/324 326/204/307 334/205/315
f 325/206/306 334/205/315 330/207/311
f 333/208/314 349/209/325 323/193/304
f 354/208/330 339/210/320 350/209/326
f 332/211/313 312/191/293 335/212/316
f 351/211/327 356/212/332 328/213/309
f 325/206/306 329/214/310 356/212/332
f 312/191/293 314/197/295 355/205/331
f 343/215/322 361/216/337 362/217/338
f 360/218/336 357/219/333 358/220/334
f 359/221/335 357/219/333 360/218/336
f 327/222/308 359/221/335 360/218/336
f 361/216/337 327/222/308 360/218/336
f 339/210/320 362/217/338 345/223/323
f 362/217/338 357/219/333 345/223/323
f 363/219/319 364/221/319 340/222/319
f 363/219/319 340/222/319 346/223/319
f 352/224/328 323/193/304 336/192/317
f 57/57/57 81/60/81 83/225/83
f 84/226/84 59/49/59 66/48/66
f 55/35/55 56/34/56 69/42/69
f 70/44/70 87/45/87 162/47/162
f 53/32/53 62/41/62 70/44/70
f 48/38/48 73/52/73 71/50/71
f 58/55/58 63/51/63 71/50/71
f 63/51/63 72/58/72 47/40/47
f 48/38/48 76/37/76 73/52/73
f 47/40/47 72/58/72 74/54/74
f 74/54/74 79/227/79 75/36/75
f 144/228/144 133/229/133 129/230/129
f 144/228/144 130/231/130 133/229/133
f 142/232/142 130/231/130 143/233/143
f 365/234/339 157/235/157 131/236/131
f 131/236/131 141/237/141 134/238/134
f 129/230/129 133/229/133 132/239/132
f 133/229/133 147/240/147 132/239/132
f 136/241/136 138/242/138 128/243/128
f 146/244/146 137/245/137 58/55/58
f 136/241/136 128/243/128 127/246/127
f 135/247/135 136/241/136 127/246/127
f 69/42/69 59/49/59 139/248/139
f 71/50/71 73/52/73 152/249/152
f 145/250/145 139/248/139 59/49/59
f 154/251/154 127/246/127 126/252/126
f 78/253/78 155/254/155 125/255/125
f 135/247/135 150/256/150 136/241/136
f 125/255/125 129/230/129 85/257/85
f 68/61/68 58/55/58 137/245/137
f 151/258/151 59/49/59 84/226/84
f 127/246/127 154/251/154 135/247/135
f 128/243/128 138/242/138 140/259/140
f 126/252/126 141/237/141 158/260/158
f 153/261/153 129/230/129 156/262/156
f 136/241/136 160/263/160 138/242/138
f 135/247/135 159/264/159 150/256/150
f 155/254/155 148/265/148 125/255/125
f 369/266/343 382/267/356 366/268/340
f 130/231/130 367/269/341 133/229/133
f 141/237/141 127/246/127 128/243/128
f 157/235/157 158/260/158 131/236/131
f 131/236/131 158/260/158 141/237/141
f 143/233/143 130/231/130 144/228/144
f 130/231/130 142/232/142 385/270/359
f 365/234/339 131/236/131 366/268/340
f 131/236/131 134/238/134 366/268/340
f 130/231/130 385/270/359 367/269/341
f 384/271/358 371/272/345 378/273/352
f 400/274/374 147/240/147 379/275/353
f 368/276/342 372/277/346 379/275/353
f 379/275/353 367/269/341 368/276/342
f 386/278/360 368/276/342 367/269/341
f 367/269/341 385/270/359 399/279/373
f 370/280/344 383/281/357 366/268/340
f 134/238/134 378/273/352 366/268/340
f 378/273/352 370/280/344 366/268/340
f 370/280/344 371/272/345 374/282/348
f 386/278/360 375/283/349 368/276/342
f 389/284/363 373/285/347 376/286/350
f 376/286/350 373/285/347 381/287/355
f 380/288/354 395/289/369 392/290/366
f 96/291/96 92/292/92 95/293/95
f 107/294/107 96/291/96 93/295/93
f 106/296/106 93/295/93 105/297/105
f 94/298/94 104/299/104 121/300/121
f 110/301/110 112/302/112 97/303/97
f 90/304/90 98/305/98 102/306/102
f 109/307/109 100/308/100 87/45/87
f 117/309/117 88/310/88 89/311/89
f 98/305/98 99/312/99 113/313/113
f 99/312/99 90/304/90 91/314/91
f 98/305/98 90/304/90 99/312/99
f 103/315/103 101/316/101 91/314/91
f 108/317/108 113/313/113 99/312/99
f 118/318/118 70/44/70 62/41/62
f 72/58/72 57/57/57 115/319/115
f 80/320/80 86/321/86 88/310/88
f 100/308/100 67/63/67 87/45/87
f 101/316/101 99/312/99 91/314/91
f 114/322/114 57/57/57 83/225/83
f 98/305/98 123/323/123 102/306/102
f 97/303/97 91/314/91 104/299/104
f 115/319/115 57/57/57 122/324/122
f 86/321/86 116/325/116 92/292/92
f 90/304/90 102/306/102 111/326/111
f 92/292/92 116/325/116 119/327/119
f 405/328/379 418/329/392 403/330/377
f 94/298/94 402/331/376 97/303/97
f 90/304/90 111/326/111 104/299/104
f 97/303/97 104/299/104 94/298/94
f 94/298/94 121/300/121 120/332/120
f 106/296/106 107/294/107 93/295/93
f 401/333/375 105/297/105 93/295/93
f 107/294/107 92/292/92 96/291/96
f 401/333/375 93/295/93 403/330/377
f 94/298/94 120/332/120 421/334/395
f 94/298/94 421/334/395 402/331/376
f 93/295/93 96/291/96 403/330/377
f 408/335/382 415/336/389 420/337/394
f 97/303/97 414/338/388 436/339/410
f 404/340/378 403/330/377 415/336/389
f 96/291/96 415/336/389 403/330/377
f 405/328/379 403/330/377 404/340/378
f 421/334/395 435/341/409 402/331/376
f 419/342/393 402/331/376 422/343/396
f 414/338/388 402/331/376 406/344/380
f 407/345/381 414/338/388 406/344/380
f 416/346/390 419/342/393 412/347/386
f 417/348/391 408/335/382 410/349/384
f 408/335/382 423/350/397 411/351/385
f 413/352/387 429/353/403 409/354/383
f 426/351/400 413/352/387 425/349/399
f 434/348/408 413/352/387 409/354/383
f 433/346/407 432/355/406 427/356/401
f 86/321/86 92/292/92 88/310/88
f 117/309/117 80/320/80 88/310/88
f 85/257/85 129/230/129 153/261/153
f 125/255/125 85/257/85 78/253/78
f 72/58/72 115/319/115 74/54/74
f 152/249/152 58/55/58 71/50/71
f 87/45/87 70/44/70 118/318/118
f 69/42/69 139/248/139 61/43/61
f 347/207/319 341/357/319 344/214/319
f 285/358/271 287/159/272 277/146/265
f 184/172/184 28/76/28 172/85/172
f 316/200/297 311/190/292 320/188/301
f 259/133/247 256/135/244 264/111/252
f 179/178/179 309/177/290 317/194/298
f 313/195/294 319/202/300 317/194/298
f 231/121/224 240/359/231 251/119/239
f 260/120/248 254/128/242 258/139/246
f 231/121/224 218/113/213 236/124/228
f 258/139/246 259/133/247 260/120/248
f 191/184/191 179/178/179 316/200/297
f 316/200/297 317/194/298 315/201/296
f 318/168/299 190/187/190 182/179/182
f 321/199/302 318/168/299 310/167/291
f 252/109/240 230/110/223 237/360/229
f 263/127/251 261/108/249 253/107/241
f 241/125/232 244/361/235 212/80/207
f 211/77/206 28/76/28 224/117/218
f 183/171/183 203/186/200 184/172/184
f 243/123/234 241/125/232 224/117/218
f 184/172/184 203/186/200 188/362/188
f 304/156/287 271/155/259 269/142/257
f 361/216/337 358/220/334 362/217/338
f 304/156/287 269/142/257 305/157/288
f 303/152/286 271/155/259 304/156/287
f 301/153/284 304/156/287 305/157/288
f 305/157/288 270/141/258 273/158/261
f 343/215/322 327/222/308 361/216/337
f 360/218/336 358/220/334 361/216/337
f 343/215/322 362/217/338 339/210/320
f 358/220/334 357/219/333 362/217/338
f 274/147/262 279/132/267 266/131/254
f 282/150/269 285/358/271 277/146/265
f 326/204/307 330/207/311 334/205/315
f 349/209/325 337/198/318 323/193/304
f 322/189/303 312/191/293 332/211/313
f 343/215/322 354/208/330 353/224/329
f 267/134/255 257/136/245 275/143/263
f 270/141/258 276/140/264 296/161/279
f 266/131/254 295/161/278 297/140/280
f 269/142/257 293/147/276 276/140/264
f 343/215/322 339/210/320 354/208/330
f 333/208/314 323/193/304 352/224/328
f 331/203/312 355/205/331 314/197/295
f 356/212/332 334/205/315 325/206/306
f 342/357/321 356/212/332 329/214/310
f 355/205/331 335/212/316 312/191/293
f 268/145/256 277/146/265 287/159/272
f 292/149/275 298/146/281 255/130/243
f 255/130/243 278/144/266 257/136/245
f 299/144/282 268/145/256 290/160/273
f 241/125/232 212/80/207 224/117/218
f 173/83/173 184/172/184 172/85/172
f 406/344/380 419/342/393 416/346/390
f 424/354/398 430/353/404 404/340/378
f 393/283/367 376/286/350 377/363/351
f 370/280/344 374/282/348 397/288/371
f 372/277/346 388/285/362 390/284/364
f 368/276/342 396/363/370 398/287/372
f 25/87/25 26/89/26 214/101/209
f 26/89/26 25/87/25 24/86/24
f 181/163/181 194/100/194 174/97/174
f 237/360/229 230/110/223 220/114/215
f 408/335/382 420/337/394 423/350/397
f 414/338/388 97/303/97 402/331/376
f 124/364/124 415/336/389 96/291/96
f 404/340/378 415/336/389 408/335/382
f 161/365/161 384/271/358 134/238/134
f 371/272/345 370/280/344 378/273/352
f 387/366/361 400/274/374 372/277/346
f 367/269/341 379/275/353 133/229/133
f 344/214/319 338/206/319 347/207/319
f 272/159/260 286/358/260 289/160/260
f 299/144/282 290/160/273 283/148/270
f 328/213/309 356/212/332 342/357/321
f 140/259/140 134/238/134 128/243/128
f 141/237/141 128/243/128 134/238/134
f 149/367/149 134/238/134 140/259/140
f 129/230/129 132/239/132 156/262/156
f 92/292/92 119/327/119 95/293/95
f 112/302/112 103/315/103 97/303/97
f 103/315/103 91/314/91 97/303/97
f 90/304/90 104/299/104 91/314/91
f 148/265/148 143/233/143 125/255/125
f 127/246/127 141/237/141 126/252/126
f 125/255/125 144/228/144 129/230/129
f 143/233/143 144/228/144 125/255/125
f 104/299/104 111/326/111 121/300/121
f 89/311/89 88/310/88 106/296/106
f 106/296/106 88/310/88 107/294/107
f 88/310/88 92/292/92 107/294/107
f 214/101/209 213/93/208 226/106/220
f 239/104/230 220/114/215 226/106/220
f 186/162/186 178/164/178 181/163/181
f 24/86/24 186/162/186 175/96/175
f 2/14/2 11/16/11 4/2/4
f 11/16/11 3/6/3 46/17/46
f 406/344/380 428/356/402 407/345/381
f 410/349/384 408/335/382 411/351/385
f 430/353/404 405/328/379 404/340/378
f 417/348/391 404/340/378 408/335/382
f 432/355/406 433/346/407 431/347/405
f 413/352/387 434/348/408 425/349/399
f 372/277/346 390/284/364 387/366/361
f 383/281/357 394/290/368 369/266/343
f 368/276/342 398/287/372 372/277/346
f 376/286/350 381/287/355 377/363/351
f 375/283/349 396/363/370 368/276/342
f 395/289/369 380/288/354 391/282/365
f 383/281/357 397/288/371 394/290/368
f 406/344/380 416/346/390 428/356/402
f 314/197/295 319/202/300 313/195/294
f 319/202/300 315/201/296 317/194/298
f 257/136/245 262/138/250 258/139/246
f 259/133/247 262/138/250 256/135/244
f 424/354/398 404/340/378 417/348/391
f 372/277/346 398/287/372 388/285/362
f 12/15/12 1/4/1 11/16/11
f 27/74/27 12/15/12 2/14/2
f 382/267/356 365/234/339 366/268/340
f 367/269/341 399/279/373 386/278/360
f 418/329/392 401/333/375 403/330/377
f 435/341/409 422/343/396 402/331/376
f 57/57/57 114/322/114 122/324/122
f 101/316/101 108/317/108 99/312/99
f 98/305/98 113/313/113 123/323/123
f 109/307/109 87/45/87 118/318/118
f 135/247/135 154/251/154 159/264/159
f 145/250/145 59/49/59 151/258/151
f 136/241/136 150/256/150 160/263/160
f 146/244/146 58/55/58 152/249/152
f 383/281/357 369/266/343 366/268/340
f 370/280/344 397/288/371 383/281/357
f 406/344/380 402/331/376 419/342/393
f 419/342/393 422/343/396 412/347/386
f 96/291/96 95/293/95 124/364/124
f 97/303/97 436/339/410 110/301/110
f 161/365/161 134/238/134 149/367/149
f 147/240/147 133/229/133 379/275/353
f 384/271/358 378/273/352 134/238/134
f 400/274/374 379/275/353 372/277/346
f 407/345/381 436/339/410 414/338/388
f 124/364/124 420/337/394 415/336/389
f 225/180/219 216/88/211 217/122/212
f 236/124/228 218/113/213 232/115/225
f 216/88/211 195/185/195 182/179/182
f 228/126/222 243/123/234 224/117/218
f 184/172/184 188/362/188 28/76/28
f 227/123/221 187/186/187 196/183/196
f 235/124/227 227/123/221 196/183/196
f 228/126/222 28/76/28 188/362/188
f 228/126/222 188/362/188 203/186/200
f 243/123/234 228/126/222 203/186/200
f 202/368/199 242/369/233 236/124/228
f 177/183/177 202/368/199 236/124/228
f 247/115/192 245/361/192 223/125/192
f 246/105/236 239/104/230 234/95/226
f 183/171/183 173/83/173 205/174/202
f 26/89/26 30/91/30 214/101/209
f 17/27/17 15/21/15 30/91/30
f 31/90/31 17/27/17 30/91/30
f 31/90/31 175/96/175 35/370/35
f 32/94/32 15/21/15 38/92/38
f 213/93/208 214/101/209 32/94/32
f 35/370/35 33/98/33 16/12/16
f 174/97/174 39/99/39 33/98/33
f 32/94/32 34/102/34 15/21/15
f 30/91/30 34/102/34 214/101/209
f 31/90/31 35/370/35 16/12/16
f 175/96/175 33/98/33 35/370/35
f 321/199/302 180/165/180 318/168/299
f 190/187/190 178/164/178 182/179/182
f 263/127/251 230/110/223 261/108/249
f 233/103/216 238/114/216 221/104/216
f 236/124/228 240/359/231 231/121/224
f 260/120/248 218/113/213 231/121/224
f 320/188/301 191/184/191 316/200/297
f 177/183/177 179/178/179 191/184/191
f 201/171/192 204/174/201 192/173/192
f 207/173/204 179/178/179 177/183/177
f 235/124/227 247/115/192 223/125/192
f 218/113/213 219/112/214 232/115/225
f 247/115/192 249/116/192 245/361/192
f 207/173/204 209/175/205 198/176/197
f 206/170/203 199/163/192 210/166/192
f 197/164/192 210/166/192 199/163/192
f 237/360/229 220/114/215 250/103/238
f 439/371/413 463/372/437 440/373/414
f 442/374/416 461/375/435 445/376/419
f 495/377/469 493/378/467 446/379/420
f 487/380/461 445/376/419 437/381/411
f 450/382/424 462/383/436 449/384/423
f 455/385/429 449/384/423 462/383/436
f 460/386/434 454/387/428 455/385/429
f 447/388/421 492/389/466 500/390/474
f 486/391/460 454/387/428 488/392/462
f 499/393/473 437/381/411 493/378/467
f 455/385/429 500/390/474 502/394/476
f 449/384/423 494/395/468 450/382/424
f 440/373/414 501/396/475 439/371/413
f 496/397/470 475/398/449 444/399/418
f 480/400/454 477/401/451 497/402/471
f 457/403/431 462/383/436 473/404/447
f 446/379/420 459/405/433 463/372/437
f 446/379/420 463/372/437 439/371/413
f 457/403/431 473/404/447 476/406/450
f 446/379/420 461/375/435 459/405/433
f 461/375/435 446/379/420 445/376/419
f 456/407/430 461/375/435 443/408/417
f 443/408/417 461/375/435 442/374/416
f 441/409/415 456/407/430 443/408/417
f 463/372/437 461/375/435 456/407/430
f 460/386/434 455/385/429 458/410/432
f 452/411/426 454/387/428 460/386/434
f 460/386/434 457/403/431 453/412/427
f 453/412/427 452/411/426 460/386/434
f 451/413/425 453/412/427 457/403/431
f 462/383/436 460/386/434 458/410/432
f 457/403/431 476/406/450 451/413/425
f 462/383/436 458/410/432 455/385/429
f 457/403/431 460/386/434 462/383/436
f 463/372/437 456/407/430 474/414/448
f 459/405/433 461/375/435 463/372/437
f 487/380/461 437/381/411 438/415/412
f 454/387/428 486/391/460 447/388/421
f 466/416/440 465/417/439 481/418/455
f 447/388/421 486/391/460 448/419/422
f 465/417/439 454/387/428 481/418/455
f 453/412/427 481/418/455 452/411/426
f 466/416/440 453/412/427 468/420/442
f 481/418/455 453/412/427 466/416/440
f 491/421/465 471/422/445 472/423/446
f 488/392/462 472/423/446 471/422/445
f 468/420/442 451/413/425 441/409/415
f 443/408/417 468/420/442 441/409/415
f 453/412/427 451/413/425 468/420/442
f 469/424/443 466/416/440 468/420/442
f 442/374/416 482/425/456 443/408/417
f 443/408/417 469/424/443 468/420/442
f 467/426/441 466/416/440 469/424/443
f 482/425/456 442/374/416 445/376/419
f 464/427/438 469/424/443 482/425/456
f 464/427/438 483/428/457 470/429/444
f 490/430/464 464/427/438 470/429/444
f 488/392/462 465/417/439 483/428/457
f 438/415/412 472/423/446 487/380/461
f 472/423/446 438/415/412 491/421/465
f 454/387/428 447/388/421 455/385/429
f 445/376/419 487/380/461 489/431/463
f 444/399/418 450/382/424 496/397/470
f 450/382/424 473/404/447 462/383/436
f 450/382/424 444/399/418 479/432/453
f 440/373/414 474/414/448 497/402/471
f 440/373/414 463/372/437 474/414/448
f 497/402/471 474/414/448 480/400/454
f 474/414/448 456/407/430 480/400/454
f 479/432/453 476/406/450 473/404/447
f 478/433/452 451/413/425 476/406/450
f 451/413/425 478/433/452 477/401/451
f 484/434/458 478/433/452 479/432/453
f 484/434/458 477/401/451 478/433/452
f 450/382/424 479/432/453 473/404/447
f 484/434/458 479/432/453 444/399/418
f 497/402/471 477/401/451 485/435/459
f 441/409/415 451/413/425 477/401/451
f 441/409/415 480/400/454 456/407/430
f 441/409/415 477/401/451 480/400/454
f 492/389/466 447/388/421 448/419/422
f 438/415/412 499/393/473 491/421/465
f 481/418/455 454/387/428 452/411/426
f 469/424/443 443/408/417 482/425/456
f 464/427/438 482/425/456 445/376/419
f 464/427/438 445/376/419 489/431/463
f 483/428/457 465/417/439 470/429/444
f 444/399/418 498/436/472 484/434/458
f 478/433/452 476/406/450 479/432/453
f 498/436/472 444/399/418 475/398/449
f 484/434/458 498/436/472 477/401/451
f 454/387/428 465/417/439 488/392/462
f 471/422/445 448/419/422 486/391/460
f 446/379/420 437/381/411 445/376/419
f 487/380/461 472/423/446 489/431/463
f 483/428/457 489/431/463 488/392/462
f 471/422/445 486/391/460 488/392/462
f 464/427/438 489/431/463 483/428/457
f 489/431/463 472/423/446 488/392/462
f 470/429/444 465/417/439 467/426/441
f 467/426/441 490/430/464 470/429/444
f 469/424/443 464/427/438 490/430/464
f 467/426/441 465/417/439 466/416/440
f 467/426/441 469/424/443 490/430/464
f 448/419/422 471/422/445 491/421/465
f 437/381/411 499/393/473 438/415/412
f 437/381/411 446/379/420 493/378/467
f 491/421/465 492/389/466 448/419/422
f 495/377/469 446/379/420 439/371/413
f 447/388/421 500/390/474 455/385/429
f 494/395/468 496/397/470 450/382/424
f 494/395/468 449/384/423 502/394/476
f 449/384/423 455/385/429 502/394/476
f 501/396/475 495/377/469 439/371/413
f 503/437/477 504/438/478 508/439/482 507/440/481
f 504/438/478 505/441/479 509/442/483 508/439/482
f 505/441/479 506/443/480 510/444/484 509/442/483
f 506/443/480 503/437/477 507/440/481 510/444/484
f 507/440/481 508/439/482 511/445/485
f 508/439/482 509/442/483 511/445/485
f 509/442/483 510/444/484 511/445/485
f 510/444/484 507/440/481 511/445/485
f 507/440/481 511/445/485 512/446/486
f 508/439/482 511/445/485 513/447/487
f 508/439/482 513/447/487 514/448/488
f 509/442/483 514/448/488 513/447/487
f 509/442/483 513/447/487 510/444/484
f 510/444/484 513/447/487 512/446/486
f 512/446/486 513/447/487 514/448/488
f 519/440/493 520/439/494 516/438/490 515/437/489
f 520/439/494 521/442/495 517/441/491 516/438/490
f 521/442/495 522/444/496 518/443/492 517/441/491
f 522/444/496 519/440/493 515/437/489 518/443/492
f 523/445/497 520/439/494 519/440/493
f 523/445/497 521/442/495 520/439/494
f 523/445/497 522/444/496 521/442/495
f 523/445/497 519/440/493 522/444/496
f 524/446/498 523/445/497 519/440/493
f 525/447/499 523/445/497 520/439/494
f 526/448/500 525/447/499 520/439/494
f 525/447/499 526/448/500 521/442/495
f 522/444/496 525/447/499 521/442/495
f 524/446/498 525/447/499 522/444/496
f 526/448/500 525/447/499 524/446/498
