# Blender 5.1.1
# www.blender.org
mtllib npc_joko_walk1.mtl
o npc_joko_walk1
v 0.035891 0.159775 0.093327
v 0.032773 0.244689 0.093634
v 0.084577 0.280748 0.093737
v 0.093082 0.146778 0.093332
v 0.122724 0.244708 0.093632
v 0.027744 0.143292 0.458437
v 0.121057 0.143155 0.460053
v 0.076294 0.160119 0.440105
v 0.015444 0.114054 0.323897
v 0.138804 0.100806 0.363148
v 0.069310 0.067742 0.343999
v 0.034780 0.058975 0.454644
v 0.116782 0.058762 0.454910
v 0.074737 0.163099 0.463799
v 0.035891 0.159775 0.093327
v 0.032773 0.244689 0.093634
v 0.032773 0.244689 0.093634
v 0.032773 0.244689 0.093634
v 0.084577 0.280748 0.093737
v 0.093082 0.146778 0.093332
v 0.122724 0.244708 0.093632
v 0.122724 0.244708 0.093632
v 0.122724 0.244708 0.093632
v 0.027744 0.143292 0.458437
v 0.121057 0.143155 0.460053
v 0.103791 0.170122 0.046307
v 0.103591 0.186102 -0.000212
v 0.113593 0.226910 0.106202
v 0.090300 0.159166 0.104732
v 0.133681 0.322310 0.055468
v 0.037568 0.333717 -0.000386
v 0.040012 0.320461 0.061660
v 0.040243 0.226914 0.106202
v 0.040050 0.186230 -0.000212
v 0.036781 0.170191 0.046307
v 0.136494 0.333802 -0.000386
v 0.043906 0.272881 0.012853
v 0.042289 0.159370 0.104732
v 0.082007 0.254500 0.106937
v 0.113301 0.288386 0.081789
v 0.043783 0.279713 0.087293
v 0.118324 0.272792 0.012853
v 0.116150 0.277140 -0.000319
v 0.044875 0.277308 -0.000483
v 0.037603 0.179885 0.014958
v 0.103706 0.179849 0.014958
v 0.113593 0.226910 0.106202
v 0.133681 0.322310 0.055468
v 0.037568 0.333717 -0.000386
v 0.040243 0.226914 0.106202
v 0.136494 0.333802 -0.000386
v 0.136494 0.333802 -0.000386
v 0.043906 0.272881 0.012853
v 0.043906 0.272881 0.012853
v 0.113301 0.288386 0.081789
v 0.043783 0.279713 0.087293
v 0.118324 0.272792 0.012853
v 0.118324 0.272792 0.012853
v 0.116150 0.277140 -0.000319
v 0.044875 0.277308 -0.000483
v 0.117946 0.423887 -0.000492
v 0.115447 0.410106 0.034815
v 0.069271 0.423973 -0.000492
v 0.073095 0.409930 0.036027
v 0.129792 0.355470 0.050303
v 0.040416 0.354477 0.054006
v 0.117946 0.423887 -0.000492
v 0.117946 0.423887 -0.000492
v 0.115447 0.410106 0.034815
v 0.069271 0.423973 -0.000492
v 0.129792 0.355470 0.050303
v -0.037086 -0.286841 0.163068
v -0.033985 -0.188775 0.163281
v -0.087732 -0.152658 0.163355
v -0.094718 -0.286845 0.163067
v -0.122338 -0.188758 0.163282
v -0.030988 -0.065890 0.491252
v -0.120581 -0.065051 0.492711
v -0.077870 -0.059720 0.476205
v -0.016906 -0.177752 0.370831
v -0.140296 -0.166918 0.406840
v -0.070785 -0.212836 0.389338
v -0.116302 -0.153823 0.489370
v -0.038031 -0.153795 0.489061
v -0.076210 -0.042480 0.497635
v -0.037086 -0.286841 0.163068
v -0.033985 -0.188775 0.163281
v -0.033985 -0.188775 0.163281
v -0.033985 -0.188775 0.163281
v -0.087732 -0.152658 0.163355
v -0.094718 -0.286845 0.163067
v -0.122338 -0.188758 0.163282
v -0.122338 -0.188758 0.163282
v -0.122338 -0.188758 0.163282
v -0.030988 -0.065890 0.491252
v -0.120581 -0.065051 0.492711
v -0.105582 -0.292087 0.120786
v -0.105064 -0.304432 0.078795
v -0.041256 -0.132569 0.134382
v -0.113468 -0.198846 0.174772
v -0.091929 -0.267487 0.173460
v -0.135389 -0.134418 0.128844
v -0.038840 -0.156797 0.078608
v -0.041545 -0.198843 0.174772
v -0.040561 -0.304314 0.078795
v -0.038053 -0.292021 0.120786
v -0.138628 -0.156751 0.078608
v -0.044577 -0.209903 0.090563
v -0.084935 -0.170904 0.175429
v -0.043469 -0.267282 0.173460
v -0.115060 -0.152289 0.152641
v -0.045070 -0.157600 0.157609
v -0.120655 -0.209716 0.090563
v -0.117320 -0.213375 0.078680
v -0.045448 -0.213536 0.078532
v -0.038535 -0.301420 0.092493
v -0.105920 -0.301455 0.092493
v -0.105582 -0.292087 0.120786
v -0.113468 -0.198846 0.174772
v -0.135389 -0.134418 0.128844
v -0.135389 -0.134418 0.128844
v -0.041545 -0.198843 0.174772
v -0.138628 -0.156751 0.078608
v -0.138628 -0.156751 0.078608
v -0.044577 -0.209903 0.090563
v -0.115060 -0.152289 0.152641
v -0.045070 -0.157600 0.157609
v -0.120655 -0.209716 0.090563
v -0.120655 -0.209716 0.090563
v -0.117320 -0.213375 0.078680
v -0.045448 -0.213536 0.078532
v -0.118995 -0.066847 0.078494
v -0.115100 -0.059197 0.110146
v -0.071803 -0.066764 0.078493
v -0.074039 -0.058638 0.111239
v -0.131863 -0.104402 0.124155
v -0.041472 -0.103156 0.127469
v -0.118995 -0.066847 0.078494
v -0.115100 -0.059197 0.110146
v -0.131863 -0.104402 0.124155
v -0.086284 -0.077239 1.053484
v -0.096832 0.055179 1.048061
v 0.096638 0.054731 1.048052
v 0.086585 -0.077567 1.053354
v -0.086361 -0.066162 1.116968
v 0.086665 -0.064408 1.119675
v -0.114684 -0.015895 1.125268
v 0.114583 -0.014929 1.124689
v 0.095646 0.042541 1.117103
v -0.096095 0.042362 1.117101
v -0.000312 0.061219 1.110230
v -0.000097 0.065057 1.048057
v 0.111972 -0.012692 1.051431
v -0.112058 -0.012101 1.051498
v -0.000283 0.077270 1.180236
v -0.135706 -0.015617 1.205740
v -0.105153 -0.074676 1.212853
v 0.105495 -0.073587 1.214207
v 0.135772 -0.014974 1.205429
v 0.000171 -0.097538 1.213530
v -0.121434 -0.015548 1.032386
v 0.121116 -0.015104 1.032792
v 0.000152 -0.074138 1.118322
v -0.096832 0.055179 1.048061
v 0.096638 0.054731 1.048052
v -0.114684 -0.015895 1.125268
v 0.114583 -0.014929 1.124689
v 0.111972 -0.012692 1.051431
v -0.112058 -0.012101 1.051498
v -0.135706 -0.015617 1.205740
v 0.135772 -0.014974 1.205429
v 0.098720 -0.090091 1.020401
v -0.100636 -0.090414 1.020378
v 0.029957 0.079429 0.859071
v -0.034276 0.079712 0.859095
v -0.000188 0.079499 0.921433
v -0.000958 -0.101960 1.012169
v -0.001910 -0.112058 0.859562
v -0.001403 -0.126256 0.923321
v -0.002745 0.034504 0.830898
v -0.011208 -0.094632 0.824490
v 0.008575 -0.095878 0.824435
v -0.002314 -0.085698 0.837307
v -0.002745 0.034504 0.830898
v -0.114473 0.059375 1.189076
v 0.114010 0.059556 1.189078
v -0.124836 0.083425 1.276463
v 0.124386 0.083620 1.276465
v -0.000225 0.098462 1.266963
v -0.161741 0.000295 1.320786
v -0.143277 -0.082038 1.336704
v 0.161987 -0.033852 1.320789
v 0.143654 -0.081803 1.336706
v -0.000130 -0.115439 1.342247
v -0.111100 0.022825 1.442697
v -0.125148 -0.063115 1.445269
v 0.110929 0.022783 1.441658
v 0.125090 -0.063165 1.444094
v -0.041808 0.027370 1.440782
v -0.000191 0.075641 1.366916
v 0.042119 0.027490 1.440784
v -0.114947 -0.019657 1.451464
v 0.114834 -0.019712 1.450361
v 0.133320 -0.082319 1.398479
v -0.133400 -0.082361 1.399635
v 0.135266 0.041647 1.395079
v -0.135413 0.041586 1.396137
v -0.161741 0.000295 1.320786
v 0.161987 -0.033852 1.320789
v -0.114947 -0.019657 1.451464
v 0.114834 -0.019712 1.450361
v -0.114125 -0.058347 1.405782
v -0.118591 0.023852 1.401150
v -0.134918 -0.062904 1.338024
v -0.191249 -0.058564 1.321875
v -0.226940 -0.052847 1.334745
v -0.221398 0.029377 1.336428
v -0.142179 0.030164 1.328497
v -0.154320 0.024198 1.146145
v -0.216923 0.021275 1.151038
v -0.181292 0.089677 1.185549
v -0.158809 0.087414 1.141220
v -0.208644 0.088423 1.144409
v -0.228105 -0.054474 1.397210
v -0.223272 0.015421 1.393106
v -0.211093 -0.020028 1.425598
v -0.214455 0.031194 1.301789
v -0.217385 -0.026603 1.297852
v -0.163199 0.041495 1.395663
v -0.160767 -0.082291 1.398674
v -0.194395 0.045288 1.326226
v -0.222853 -0.009058 1.216382
v -0.176313 -0.031753 1.230411
v -0.145890 -0.069281 1.219678
v -0.114125 -0.058347 1.405782
v -0.114125 -0.058347 1.405782
v -0.118591 0.023852 1.401150
v -0.191249 -0.058564 1.321875
v -0.181292 0.089677 1.185549
v -0.208644 0.088423 1.144409
v -0.228105 -0.054474 1.397210
v -0.228105 -0.054474 1.397210
v -0.223272 0.015421 1.393106
v -0.211093 -0.020028 1.425598
v -0.163199 0.041495 1.395663
v -0.163199 0.041495 1.395663
v -0.160767 -0.082291 1.398674
v -0.160767 -0.082291 1.398674
v -0.194395 0.045288 1.326226
v -0.176313 -0.031753 1.230411
v 0.113285 -0.058257 1.405855
v 0.117684 0.023939 1.401156
v 0.133801 -0.062891 1.338045
v 0.190120 -0.092108 1.321893
v 0.225802 -0.076737 1.334762
v 0.220261 0.006729 1.336446
v 0.141062 0.030154 1.328517
v 0.153283 -0.139776 1.143643
v 0.216306 -0.137886 1.148891
v 0.180142 -0.047122 1.185552
v 0.157382 -0.081631 1.141245
v 0.206639 -0.078239 1.144388
v 0.226966 -0.054482 1.397223
v 0.222131 0.015396 1.393128
v 0.209958 -0.019992 1.425616
v 0.213418 -0.014792 1.301780
v 0.216152 -0.080825 1.297897
v 0.162077 0.041528 1.395672
v 0.159644 -0.082246 1.398702
v 0.193265 0.014981 1.326245
v 0.223239 -0.120658 1.217251
v 0.175275 -0.134976 1.229307
v 0.143211 -0.068413 1.220277
v 0.113285 -0.058257 1.405855
v 0.113285 -0.058257 1.405855
v 0.117684 0.023939 1.401156
v 0.190120 -0.092108 1.321893
v 0.180142 -0.047122 1.185552
v 0.206639 -0.078239 1.144388
v 0.226966 -0.054482 1.397223
v 0.226966 -0.054482 1.397223
v 0.222131 0.015396 1.393128
v 0.209958 -0.019992 1.425616
v 0.162077 0.041528 1.395672
v 0.162077 0.041528 1.395672
v 0.159644 -0.082246 1.398702
v 0.159644 -0.082246 1.398702
v 0.193265 0.014981 1.326245
v 0.175275 -0.134976 1.229307
v -0.000263 -0.070132 1.481053
v -0.063282 -0.050915 1.480293
v 0.063528 -0.050777 1.480294
v -0.045145 0.019057 1.570149
v -0.038280 -0.041186 1.589676
v 0.040065 -0.041631 1.589370
v 0.046507 0.019134 1.570141
v 0.000681 0.043238 1.564055
v -0.000537 0.008844 1.597434
v -0.063282 -0.050915 1.480293
v 0.063528 -0.050777 1.480294
v -0.038280 -0.041186 1.589676
v 0.040065 -0.041631 1.589370
v -0.000537 0.008844 1.597434
v 0.095751 -0.107040 0.869087
v 0.137593 -0.030007 0.895053
v 0.135031 0.040845 0.933193
v 0.104684 0.073406 0.930328
v 0.101082 -0.121532 0.932239
v 0.021769 0.040757 0.520845
v 0.072314 0.149561 0.531721
v 0.124730 0.040638 0.521628
v 0.133749 0.119153 0.565790
v 0.152640 0.075714 0.713549
v 0.020953 0.121964 0.536428
v 0.123544 0.001778 0.594955
v 0.096320 -0.096807 0.825173
v 0.052108 0.114145 0.693230
v 0.122074 0.095857 0.727031
v 0.121664 0.131348 0.501864
v 0.106391 0.073091 0.906396
v 0.135031 0.040845 0.933193
v 0.133749 0.119153 0.565790
v 0.152640 0.075714 0.713549
v 0.020953 0.121964 0.536428
v 0.121664 0.131348 0.501864
v -0.099635 -0.107281 0.869072
v -0.139485 -0.030113 0.895033
v -0.136353 0.040902 0.933200
v -0.105567 0.073249 0.930320
v -0.103879 -0.121810 0.932213
v -0.025009 -0.130123 0.548819
v -0.124265 -0.129770 0.549528
v -0.133290 -0.024531 0.589606
v -0.073788 -0.014835 0.558967
v -0.154154 0.020884 0.722715
v -0.024189 -0.039663 0.563040
v -0.123080 -0.125490 0.615357
v -0.098985 -0.096024 0.824962
v -0.055229 0.047059 0.704476
v -0.123274 0.049062 0.734892
v -0.121191 -0.051332 0.531173
v -0.107432 0.073558 0.906485
v -0.136353 0.040902 0.933200
v -0.133290 -0.024531 0.589606
v -0.154154 0.020884 0.722715
v -0.024189 -0.039663 0.563040
v -0.121191 -0.051332 0.531173
v 0.184916 -0.161875 1.123049
v 0.219223 -0.159599 1.116185
v 0.154373 -0.161249 1.110793
v 0.151952 -0.172289 1.052310
v 0.216000 -0.180101 1.076872
v 0.237344 -0.135506 1.078764
v 0.219954 -0.088095 1.061912
v 0.159771 -0.102575 1.046580
v 0.192866 -0.168194 0.884867
v 0.226791 -0.168436 0.888942
v 0.226395 -0.214590 0.883091
v 0.211271 -0.193933 0.872882
v 0.193438 -0.215155 0.879347
v 0.208255 -0.082176 1.127776
v 0.158647 -0.082979 1.122649
v 0.182807 -0.151829 1.148023
v 0.184916 -0.161875 1.123049
v 0.219223 -0.159599 1.116185
v 0.216000 -0.180101 1.076872
v 0.219954 -0.088095 1.061912
v 0.226791 -0.168436 0.888942
v 0.226395 -0.214590 0.883091
v 0.211271 -0.193933 0.872882
v 0.208255 -0.082176 1.127776
v 0.182807 -0.151829 1.148023
v -0.185669 0.017623 1.126896
v -0.218702 0.027975 1.115367
v -0.154432 0.030349 1.110050
v -0.149685 -0.054420 1.052329
v -0.212276 0.037202 1.076909
v -0.233620 0.080376 1.078807
v -0.216230 0.140428 1.061949
v -0.157504 0.137455 1.046597
v -0.192464 0.150661 0.878654
v -0.192536 0.194549 0.884840
v -0.229082 0.191179 0.888899
v -0.228925 0.148406 0.883019
v -0.212774 0.179696 0.870511
v -0.209957 0.096766 1.128065
v -0.160861 0.099766 1.122827
v -0.183619 0.008120 1.150622
v -0.185669 0.017623 1.126896
v -0.218702 0.027975 1.115367
v -0.212276 0.037202 1.076909
v -0.216230 0.140428 1.061949
v -0.229082 0.191179 0.888899
v -0.228925 0.148406 0.883019
v -0.212774 0.179696 0.870511
v -0.209957 0.096766 1.128065
v -0.183619 0.008120 1.150622
v -0.060643 0.005602 1.536653
v -0.019903 0.052138 1.506097
v -0.036268 -0.075141 1.584586
v -0.039382 -0.086759 1.686198
v -0.029643 0.090379 1.693442
v -0.053657 0.063366 1.616004
v -0.050428 0.079555 1.634156
v 0.034470 -0.027492 1.732728
v -0.058102 0.059998 1.601271
v -0.063366 0.008354 1.566245
v 0.059940 0.005643 1.536616
v 0.019057 0.052203 1.506083
v 0.035815 -0.075061 1.584557
v 0.038928 -0.085825 1.699498
v 0.034339 0.090985 1.700995
v 0.052873 0.063467 1.615968
v 0.049584 0.079636 1.634125
v 0.057206 0.060101 1.601240
v 0.062578 0.008468 1.566208
v -0.058334 0.058452 1.675580
v 0.053881 0.066505 1.667107
v 0.080146 -0.012132 1.611970
v -0.080463 -0.011897 1.612539
v 0.069463 0.022243 1.626627
v -0.070087 0.022154 1.626667
v 0.076896 -0.027605 1.644639
v -0.075642 -0.017471 1.645081
v -0.017407 0.094566 1.571024
v 0.016562 0.094591 1.571015
v 0.005428 0.097702 1.622869
v 0.005161 0.112947 1.588645
v -0.000414 0.105044 1.641800
v -0.006485 0.097703 1.622874
v -0.005993 0.112948 1.588647
v -0.006874 0.120255 1.575047
v 0.006174 0.120268 1.575041
v 0.021450 0.088014 1.505112
v -0.022247 0.087969 1.505124
v -0.024775 -0.038598 1.752230
v 0.085704 -0.035147 1.687481
v -0.085629 -0.026628 1.699143
v -0.063612 0.060712 1.733275
v 0.075618 0.058892 1.716790
v 0.005197 0.085030 1.748486
v 0.037278 0.060133 1.727875
v 0.065334 -0.018300 1.721823
v -0.012387 0.103906 1.727082
v -0.077203 0.072422 1.715847
v 0.012543 0.087360 1.614862
v -0.013520 0.087309 1.614879
v -0.000423 0.101895 1.565967
v -0.060643 0.005602 1.536653
v -0.036268 -0.075141 1.584586
v -0.039382 -0.086759 1.686198
v -0.063366 0.008354 1.566245
v -0.024775 -0.038598 1.752230
v -0.209250 0.186599 0.877300
v -0.199950 0.185049 0.877300
v -0.199950 0.163349 0.877300
v -0.209250 0.163349 0.877300
v -0.220100 0.204811 0.837000
v -0.201500 0.202874 0.833900
v -0.201500 0.182724 0.833900
v -0.217000 0.181561 0.837000
v -0.229400 0.217986 0.818400
v -0.223200 -0.009631 0.786399
v -0.213900 -0.013675 0.783603
v -0.204600 -0.011788 0.789196
v 0.209250 -0.180399 0.877300
v 0.199950 -0.181949 0.877300
v 0.199950 -0.203649 0.877300
v 0.209250 -0.203649 0.877300
v 0.220100 -0.192411 0.837000
v 0.201500 -0.196674 0.833900
v 0.201500 -0.216824 0.833900
v 0.217000 -0.215661 0.837000
v 0.229400 -0.193186 0.818400
v 0.223200 0.003431 0.784300
v 0.213900 0.001275 0.781200
v 0.204600 -0.000612 0.787400
vn -0.7036 -0.5368 0.4656
vn -0.3181 0.4546 0.8320
vn 0.0353 0.4492 0.8927
vn 0.2955 -0.6219 0.7252
vn 0.9205 -0.2795 0.2730
vn 0.3596 -0.9151 -0.1823
vn -0.3687 -0.9066 -0.2053
vn -0.0094 -0.9859 -0.1670
vn 0.9367 0.3381 0.0910
vn -0.9205 0.3819 0.0833
vn 0.0679 0.9648 0.2541
vn 0.6557 0.7309 0.1896
vn -0.6701 0.7278 0.1459
vn -0.0011 -0.9991 -0.0430
vn 0.7955 0.5582 0.2358
vn -0.8795 -0.0340 0.4747
vn 0.9975 -0.0103 0.0692
vn 0.5582 -0.8013 -0.2150
vn -0.0678 -0.9602 -0.2711
vn -0.5091 0.7949 0.3301
vn 0.3775 0.3971 0.8365
vn -0.9660 0.1996 0.1642
vn -0.6731 -0.7119 -0.2004
vn 0.9998 0.0165 0.0082
vn -0.9975 -0.0316 -0.0630
vn -0.6496 0.7485 0.1335
vn -0.5361 0.4910 0.6867
vn -0.3494 -0.3766 0.8580
vn 0.1375 0.0956 0.9859
vn -0.6897 -0.2081 -0.6935
vn -0.0001 0.1169 0.9931
vn 0.7464 -0.2158 -0.6295
vn 0.4847 -0.1471 0.8622
vn 0.5630 0.4281 0.7070
vn 0.7214 0.6744 0.1572
vn -0.9889 0.1474 -0.0195
vn 0.9973 -0.0666 0.0305
vn 0.0540 -0.4669 0.8826
vn -0.8119 -0.4502 -0.3718
vn -0.9373 0.1671 -0.3059
vn 0.3839 -0.4414 -0.8110
vn -0.5908 -0.7494 -0.2989
vn -0.0012 -0.9496 -0.3135
vn 0.5886 -0.0367 0.8076
vn 0.7226 0.6318 0.2806
vn -0.6366 0.7250 0.2629
vn 0.4573 0.4773 0.7504
vn -0.9651 0.1997 -0.1695
vn 0.9944 -0.1041 0.0165
vn -0.4432 0.6439 0.6236
vn -0.0000 0.1041 0.9946
vn -0.9785 -0.2015 -0.0432
vn -0.0000 0.2124 0.9772
vn 0.7781 -0.5849 -0.2292
vn -0.0775 -0.5475 -0.8332
vn 0.9978 -0.0662 0.0064
vn -0.9745 0.1608 0.1562
vn 0.0003 0.2120 0.9773
vn -0.5892 0.0822 0.8038
vn -0.0015 -0.9490 -0.3152
vn -0.9620 -0.2492 -0.1113
vn -0.9370 -0.2978 -0.1826
vn 0.4734 -0.8322 -0.2888
vn 0.3222 -0.6792 -0.6594
vn -0.9721 -0.2228 -0.0734
vn 0.6957 -0.3218 -0.6422
vn -0.0042 -0.9324 -0.3615
vn -0.0000 0.0012 1.0000
vn -0.0225 -0.6626 -0.7486
vn -0.4164 -0.2417 -0.8765
vn 0.2874 -0.3771 0.8804
vn 0.8461 -0.0279 0.5322
vn -0.0642 0.5477 0.8342
vn -0.2504 -0.4371 0.8639
vn -0.4710 0.4500 0.7587
vn -0.3322 -0.8620 0.3830
vn 0.3494 -0.8654 0.3592
vn 0.0110 -0.8997 0.4364
vn -0.9440 0.3041 -0.1279
vn 0.9264 0.3463 -0.1480
vn -0.0650 0.9260 -0.3720
vn 0.6371 0.6794 -0.3639
vn -0.6483 0.6910 -0.3196
vn 0.0066 -0.8658 0.5003
vn -0.6000 0.7701 -0.2166
vn 0.3770 0.5595 0.7382
vn -0.9965 -0.0094 0.0825
vn -0.5315 -0.7916 0.3015
vn 0.1215 -0.9315 0.3429
vn 0.5087 0.8334 -0.2159
vn -0.8593 -0.2430 0.4501
vn 0.9788 0.1974 0.0545
vn 0.6991 -0.6706 0.2481
vn -0.9990 0.0092 0.0439
vn 0.9994 -0.0343 -0.0090
vn 0.5889 0.7311 -0.3444
vn 0.5017 0.6806 0.5339
vn -0.7584 -0.2665 -0.5948
vn 0.5498 -0.2337 0.8019
vn -0.0678 0.4243 0.9030
vn 0.8109 0.1817 -0.5563
vn -0.7222 0.0543 0.6895
vn -0.5707 -0.1271 0.8113
vn -0.5398 0.6390 0.5481
vn -0.7221 0.6407 -0.2608
vn 0.9426 0.2782 -0.1845
vn -0.9962 -0.0638 0.0601
vn 0.3864 -0.8687 0.3098
vn 0.0499 0.2718 0.9611
vn 0.1147 -0.6984 -0.7065
vn -0.4784 -0.5038 -0.7193
vn 0.9778 0.2071 -0.0310
vn -0.0023 -0.9560 0.2933
vn -0.7133 -0.0438 0.6995
vn -0.7344 0.6683 -0.1182
vn 0.6471 0.7404 -0.1819
vn 0.9826 0.1850 0.0142
vn -0.5590 0.5314 0.6365
vn 0.9628 0.2456 -0.1126
vn 0.6411 -0.3849 -0.6639
vn 0.4881 0.7309 0.4770
vn 0.1658 0.0860 0.9824
vn 0.9722 -0.2122 0.0995
vn -0.4553 -0.3923 0.7992
vn 0.8943 0.1562 -0.4193
vn -0.9969 -0.0644 0.0452
vn 0.9783 0.1393 0.1532
vn -0.0009 -0.3499 0.9368
vn 0.6955 0.0945 0.7123
vn -0.0015 -0.9573 0.2892
vn 0.9566 -0.2898 0.0312
vn 0.9342 -0.3554 -0.0291
vn -0.4118 -0.6005 0.6854
vn -0.3352 -0.8491 -0.4083
vn 0.3226 -0.2495 -0.9131
vn -0.7312 -0.4060 -0.5482
vn 0.0026 -0.5510 0.8345
vn 0.0304 -0.8482 -0.5288
vn 0.9656 -0.2515 0.0653
vn 0.5251 0.7782 -0.3446
vn 0.4595 -0.8785 -0.1304
vn -0.4636 -0.8766 -0.1293
vn -0.5335 0.7777 -0.3325
vn 0.5769 0.8145 0.0611
vn -0.5843 0.8094 0.0587
vn 0.8717 0.4663 0.1504
vn -0.8680 0.4752 0.1442
vn -0.6797 -0.7274 0.0943
vn 0.6854 -0.7222 0.0929
vn -0.0000 -0.9981 0.0622
vn -0.0018 -0.9949 -0.1008
vn -0.9326 0.1675 -0.3197
vn 0.9338 0.1628 -0.3185
vn 0.0008 -0.9709 0.2394
vn 0.8679 0.4659 0.1723
vn 0.5946 0.7828 0.1836
vn -0.5746 0.7917 0.2075
vn -0.8479 0.4715 0.2423
vn -0.0073 0.9870 0.1608
vn 0.9434 0.0641 -0.3255
vn -0.9465 0.0635 -0.3163
vn -0.0079 0.9976 0.0682
vn 0.9178 -0.2511 -0.3076
vn -0.9182 -0.2558 -0.3023
vn 0.9550 -0.2668 0.1293
vn -0.9529 -0.2750 0.1281
vn -0.9750 -0.2203 0.0280
vn 0.9753 -0.2195 0.0234
vn 0.9417 -0.2201 0.2545
vn -0.9471 -0.2391 0.2141
vn -0.6143 0.7072 -0.3499
vn 0.6171 0.6956 -0.3679
vn 0.1765 -0.9830 0.0501
vn -0.0455 -0.9692 0.2420
vn -0.0007 -0.9979 -0.0650
vn -0.0005 0.9232 -0.3844
vn 0.0031 0.9417 0.3363
vn -0.0015 1.0000 -0.0084
vn -0.0394 -0.9179 0.3949
vn -0.6670 0.6763 0.3126
vn 0.5436 0.6859 0.4838
vn -0.0503 0.3109 0.9491
vn 0.7515 0.3202 0.5768
vn 0.6701 -0.6760 0.3067
vn -0.6752 -0.6761 0.2949
vn 0.5977 -0.8016 0.0158
vn -0.6292 -0.7772 0.0103
vn 0.0007 -0.9998 0.0182
vn 0.9607 0.2757 0.0331
vn 0.7712 0.6357 -0.0321
vn -0.9210 0.3851 0.0596
vn -0.7343 0.6763 -0.0588
vn -0.0015 0.9985 -0.0551
vn 0.1852 -0.6203 -0.7622
vn 0.3071 0.5769 -0.7569
vn -0.1892 -0.6212 -0.7605
vn -0.3076 0.5799 -0.7544
vn 0.2178 -0.8643 -0.4534
vn -0.0004 -0.9292 -0.3696
vn -0.2233 -0.8652 -0.4489
vn 0.3801 0.0425 -0.9240
vn -0.3276 -0.2184 -0.9192
vn -0.5868 0.7967 0.1449
vn 0.5387 0.8291 0.1500
vn -0.5856 -0.7191 0.3742
vn 0.5376 -0.7659 0.3527
vn 0.9274 -0.3316 -0.1732
vn -0.9566 -0.2362 -0.1708
vn 0.3203 -0.2192 -0.9216
vn -0.3847 0.0422 -0.9221
vn 0.9400 -0.3386 -0.0415
vn 0.9834 0.1699 -0.0641
vn -0.6800 0.6712 0.2951
vn -0.0085 0.9579 0.2871
vn 0.7819 0.5640 0.2657
vn 0.8304 -0.5570 -0.0113
vn -0.7940 -0.6054 0.0549
vn -0.8668 0.4480 0.2190
vn 0.8569 0.4783 0.1924
vn -0.3526 -0.9230 -0.1542
vn -0.7671 -0.6215 -0.1588
vn 0.9571 -0.2676 -0.1109
vn 0.8368 0.5468 0.0298
vn 0.5688 -0.4725 -0.6732
vn 0.6433 -0.3397 -0.6862
vn 0.9076 -0.4188 -0.0295
vn 0.9263 0.3317 0.1790
vn 0.4066 -0.8873 -0.2179
vn 0.3264 0.9404 0.0953
vn 0.5328 -0.8332 -0.1481
vn 0.8449 0.4851 0.2253
vn 0.6384 0.7128 0.2904
vn -0.2637 0.8840 0.3861
vn 0.8783 0.0208 -0.4777
vn -0.8783 0.4126 0.2418
vn -0.8544 -0.4641 0.2337
vn 0.3593 0.8715 0.3338
vn 0.4030 -0.8829 -0.2410
vn -0.0133 -0.9587 -0.2840
vn 0.8977 -0.0874 -0.4319
vn 0.3876 0.5642 -0.7290
vn 0.8566 -0.5069 -0.0963
vn 0.3824 0.3777 -0.8433
vn 0.2776 -0.8175 -0.5046
vn -0.3394 -0.9392 0.0522
vn -0.3026 0.9377 0.1708
vn 0.2542 0.8823 -0.3962
vn -0.2684 -0.9503 -0.1577
vn 0.3268 0.8769 0.3525
vn -0.9074 -0.4200 0.0165
vn -0.9828 0.1824 -0.0287
vn 0.8758 0.4757 0.0812
vn 0.3789 0.8832 -0.2765
vn -0.8376 0.5461 -0.0154
vn -0.7832 -0.5635 0.2628
vn 0.5076 -0.7852 0.3546
vn 0.8734 0.4690 -0.1314
vn -0.8782 0.4489 -0.1649
vn -0.3589 -0.8411 0.4047
vn 0.7379 -0.6050 0.2992
vn -0.9570 -0.2683 0.1104
vn -0.8926 0.4297 -0.1365
vn -0.7938 -0.5968 0.1172
vn -0.6414 -0.3405 -0.6875
vn -0.8635 -0.4176 0.2828
vn -0.9122 0.3971 -0.1008
vn -0.3771 -0.9113 0.1650
vn -0.2547 0.8797 -0.4016
vn -0.4330 -0.8361 0.3370
vn -0.8628 0.4906 -0.1222
vn 0.8025 0.5681 -0.1826
vn 0.9933 0.0747 0.0879
vn -0.8700 0.0184 -0.4928
vn 0.8794 0.4123 0.2379
vn 0.8548 -0.4645 0.2315
vn -0.4135 0.8828 -0.2228
vn 0.1531 -0.8320 0.5333
vn 0.0118 -0.9239 0.3825
vn -0.8978 -0.0874 -0.4316
vn -0.3844 0.5636 -0.7312
vn -0.5670 -0.4724 -0.6748
vn -0.3769 0.3791 -0.8451
vn -0.2781 -0.8126 -0.5122
vn 0.1591 -0.9804 0.1163
vn -0.3474 0.8942 -0.2824
vn 0.4714 0.8783 0.0794
vn -0.2480 -0.9050 0.3455
vn -0.3449 0.8949 -0.2833
vn 0.0008 0.9536 -0.3011
vn 0.3125 0.7506 -0.5822
vn -0.3160 0.7588 -0.5695
vn 0.7463 -0.5057 -0.4327
vn 0.8511 -0.0716 -0.5202
vn -0.0726 0.8244 -0.5614
vn -0.7451 -0.5053 -0.4353
vn -0.0014 -0.9424 -0.3344
vn 0.0138 -0.4937 -0.8695
vn 0.8204 -0.3128 -0.4786
vn -0.8291 -0.3094 -0.4656
vn 0.0733 0.8155 -0.5741
vn -0.8490 -0.0755 -0.5230
vn -0.0030 0.1554 -0.9878
vn -0.5393 0.8167 0.2052
vn -0.9709 0.2382 -0.0258
vn -0.7010 -0.6991 -0.1411
vn -0.4192 -0.9034 -0.0903
vn -0.5595 0.8274 -0.0482
vn 0.7256 0.6195 0.2995
vn 0.0277 -0.9829 -0.1823
vn -0.7158 0.6305 0.3001
vn -0.3926 -0.9086 -0.1427
vn -0.5959 -0.7877 -0.1563
vn 0.4796 -0.8629 -0.1597
vn -0.6206 0.7055 0.3423
vn -0.5057 0.8241 0.2552
vn 0.1563 -0.9723 -0.1735
vn -0.4030 -0.9004 -0.1641
vn -0.4354 -0.8817 -0.1817
vn -0.4025 -0.9100 -0.0993
vn -0.9900 -0.0341 -0.1369
vn -0.9875 0.0704 0.1411
vn -0.9769 0.1988 0.0790
vn 0.9973 0.0066 0.0727
vn -0.9973 -0.0182 0.0714
vn 0.5506 0.8064 0.2157
vn 0.9724 0.2225 -0.0697
vn 0.9878 -0.0392 -0.1508
vn 0.4128 -0.9052 -0.1009
vn 0.5628 0.8248 -0.0541
vn -0.7509 0.6570 -0.0671
vn 0.7467 0.6597 -0.0844
vn 0.9901 0.0911 0.1067
vn -0.0328 -0.9050 0.4241
vn 0.9850 0.1727 0.0002
vn -0.9976 0.0082 0.0681
vn 0.6377 0.7673 -0.0685
vn 0.4707 0.8822 -0.0075
vn -0.3148 -0.9009 0.2989
vn 0.3757 -0.9048 0.2005
vn 0.4316 -0.8299 0.3537
vn 0.4372 -0.8992 0.0146
vn 0.7279 -0.6808 -0.0818
vn 0.3697 -0.8309 0.4157
vn 0.6103 -0.7572 0.2327
vn -0.4776 -0.8037 0.3549
vn 0.9925 -0.0104 0.1218
vn -0.2545 0.8432 -0.4736
vn 0.0073 0.9281 -0.3722
vn 0.7299 0.6337 -0.2563
vn 0.8189 0.5735 -0.0237
vn 0.1299 0.9528 -0.2743
vn -0.9880 0.0047 -0.1543
vn 0.1637 -0.9524 0.2570
vn 0.6981 -0.6593 0.2792
vn 0.5288 -0.5464 0.6495
vn -0.9706 -0.0538 0.2345
vn -0.9403 0.0152 0.3401
vn 0.1377 -0.0566 0.9889
vn 0.5218 0.6789 0.5165
vn 0.0381 -0.9763 0.2130
vn 0.6597 -0.7346 0.1588
vn 0.3971 0.8869 -0.2360
vn 0.1137 0.9878 -0.1066
vn -0.8364 0.3737 -0.4010
vn -0.8915 0.4324 -0.1353
vn -0.9379 -0.3469 -0.0080
vn -0.0557 -0.7965 0.6020
vn -0.0142 0.9661 0.2577
vn -0.6398 -0.0912 0.7631
vn -0.9719 -0.1755 -0.1570
vn -0.3597 0.8829 -0.3018
vn -0.1698 0.8668 0.4688
vn -0.0055 0.9362 0.3514
vn -0.8599 0.5089 -0.0401
vn -0.2830 0.9586 -0.0308
vn 0.6033 0.7968 -0.0328
vn 0.9927 0.0495 -0.1101
vn 0.9237 -0.3246 -0.2036
vn -0.7516 -0.6340 -0.1818
vn -0.5669 0.2908 0.7707
vn -0.5418 -0.7689 0.3395
vn 0.9483 -0.0778 0.3076
vn 0.9759 0.0115 0.2180
vn -0.1402 -0.2904 0.9466
vn -0.0299 -0.8834 -0.4677
vn -0.6584 -0.6654 -0.3518
vn -0.3893 0.8241 0.4115
vn 0.3003 0.9207 0.2495
vn 0.9385 0.3441 -0.0281
vn 0.8789 0.4250 0.2166
vn -0.1542 -0.8960 -0.4163
vn 0.0656 -0.9978 0.0030
vn 0.1932 0.5570 0.8077
vn 0.7156 -0.0926 0.6924
vn 0.9476 -0.1521 -0.2810
vn 0.3462 0.8649 0.3636
vn 0.9236 -0.2444 0.2954
vn 0.2221 0.2442 0.9439
vn 0.8555 0.4819 0.1895
vn 0.7984 0.5867 -0.1357
vn 0.3686 -0.9230 0.1106
vn 0.7875 -0.6099 0.0881
vn 0.7283 -0.6574 0.1931
vn -0.3759 0.2311 -0.8974
vn 0.8445 -0.5350 0.0246
vn -0.0003 0.8463 0.5327
vn -0.6775 0.5902 0.4389
vn -0.2211 0.2439 0.9443
vn -0.3802 0.7140 0.5879
vn -0.4026 0.8441 -0.3542
vn -0.4635 -0.8654 -0.1903
vn -0.7860 -0.6119 0.0877
vn -0.7364 -0.6436 0.2084
vn -0.8430 -0.5372 0.0271
vn -0.8718 0.2661 0.4112
vn 0.8761 -0.4433 0.1895
vn -0.8920 -0.4467 0.0701
vn -0.9836 0.0779 0.1628
vn 0.9839 0.1310 0.1220
vn -0.9630 -0.2691 -0.0176
vn 0.9637 -0.2668 0.0053
vn -0.9663 0.2408 0.0907
vn 0.9829 0.1791 0.0424
vn 0.6822 -0.7281 0.0678
vn -0.6820 -0.7282 0.0671
vn -0.3926 -0.9158 0.0855
vn -0.5349 -0.7538 -0.3817
vn 0.0085 -0.9966 0.0820
vn 0.3956 -0.9145 0.0853
vn 0.5343 -0.7559 -0.3783
vn 0.4811 -0.8395 0.2527
vn -0.4838 -0.8382 0.2516
vn -0.4374 -0.5783 0.6887
vn 0.4381 -0.5776 0.6888
vn 0.5784 0.2572 -0.7742
vn -0.9427 0.3158 -0.1076
vn 0.9387 0.2665 -0.2186
vn 0.5438 -0.2104 -0.8124
vn -0.7965 -0.4214 -0.4336
vn -0.2285 -0.4744 -0.8502
vn -0.4852 -0.2912 -0.8245
vn -0.5920 0.1853 -0.7844
vn 0.0985 -0.9561 -0.2758
vn 0.8396 -0.5259 -0.1361
vn -0.6701 -0.7292 0.1391
vn 0.6729 -0.7262 0.1409
vn 0.0014 -0.7832 0.6218
vn -0.0002 0.9603 0.2790
vn -0.0005 0.7034 0.7108
vn 0.0306 0.9772 -0.2102
vn 0.9730 -0.0803 0.2165
vn -0.2158 0.4319 -0.8757
vn -0.6504 0.6271 0.4286
vn 0.8367 0.5164 0.1826
vn 0.5903 -0.7284 -0.3477
vn -0.5497 -0.8019 -0.2342
vn -0.7272 0.4042 0.5547
vn 0.6354 0.7147 0.2924
vn 0.4341 -0.3236 -0.8408
vn -0.6275 -0.4345 -0.6461
vn -0.8356 -0.0195 0.5490
vn -0.3200 0.0578 -0.9457
vn -0.4268 -0.8923 0.1474
vn -0.1969 -0.7821 0.5913
vn 0.5193 0.8434 -0.1381
vn -0.6862 0.6812 -0.2551
vn -0.7730 -0.6144 0.1577
vn 0.6646 -0.6596 0.3511
vn 0.4316 0.8997 -0.0658
vn -0.7111 0.3227 -0.6247
vn -0.7529 -0.6380 0.1617
vn 0.5533 -0.7446 0.3733
vn -0.5655 -0.0879 -0.8200
vn -0.3626 -0.1141 0.9249
vn -0.0764 -0.7644 0.6402
vn 0.2042 -0.9789 0.0084
vt 0.681607 0.063656
vt 0.641789 0.041784
vt 0.633358 0.052034
vt 0.682335 0.057269
vt 0.863231 0.071066
vt 0.970031 0.070543
vt 0.914463 0.066863
vt 0.873297 0.046083
vt 0.980757 0.042222
vt 0.539438 0.001714
vt 0.539485 0.001696
vt 0.588122 0.001409
vt 0.587608 0.041784
vt 0.540862 0.056982
vt 0.591050 0.052034
vt 0.546663 0.064862
vt 0.641664 0.001229
vt 0.588175 0.001230
vt 0.641736 0.001409
vt 0.980614 0.001226
vt 0.980177 0.001005
vt 0.862084 0.001670
vt 0.859284 0.001068
vt 0.682304 0.042104
vt 0.685590 0.001229
vt 0.876805 0.001435
vt 0.944048 0.001553
vt 0.685327 0.001380
vt 0.945149 0.021791
vt 0.944323 0.032769
vt 0.882728 0.035102
vt 0.890046 0.022374
vt 0.937660 0.001233
vt 0.882726 0.001311
vt 0.862495 0.066438
vt 0.635068 0.055603
vt 0.681822 0.069710
vt 0.591051 0.055411
vt 0.843304 0.071074
vt 0.736195 0.070581
vt 0.833265 0.046062
vt 0.373881 0.063364
vt 0.420839 0.041901
vt 0.374319 0.042101
vt 0.421162 0.001648
vt 0.420627 0.001203
vt 0.472806 0.001203
vt 0.473107 0.041901
vt 0.376573 0.068279
vt 0.429371 0.051344
vt 0.791046 0.066957
vt 0.517169 0.001438
vt 0.517278 0.001456
vt 0.469722 0.051343
vt 0.511556 0.067887
vt 0.515408 0.056999
vt 0.373958 0.001302
vt 0.407194 0.001144
vt 0.730937 0.001267
vt 0.847636 0.001400
vt 0.844461 0.001256
vt 0.730142 0.001464
vt 0.473016 0.001330
vt 0.761722 0.032749
vt 0.729951 0.042218
vt 0.762407 0.021078
vt 0.763350 0.001181
vt 0.816463 0.021541
vt 0.824062 0.001262
vt 0.823951 0.035071
vt 0.735270 0.066521
vt 0.790308 0.074866
vt 0.736540 0.074401
vt 0.469624 0.056071
vt 0.509868 0.071772
vt 0.970940 0.066379
vt 0.844031 0.066463
vt 0.762560 0.000793
vt 0.409278 0.001580
vt 0.850808 0.000535
vt 0.864549 0.074800
vt 0.915669 0.074462
vt 0.551730 0.070345
vt 0.970329 0.073893
vt 0.428227 0.056149
vt 0.380507 0.072060
vt 0.842377 0.074346
vt 0.648083 0.668036
vt 0.625968 0.709486
vt 0.670698 0.712487
vt 0.448174 0.669338
vt 0.413007 0.668081
vt 0.441368 0.707846
vt 0.389631 0.712841
vt 0.382977 0.761093
vt 0.677454 0.760916
vt 0.632135 0.766849
vt 0.977621 0.712532
vt 0.932934 0.665980
vt 0.969277 0.668085
vt 0.607892 0.669256
vt 0.528410 0.708673
vt 0.528421 0.766453
vt 0.429966 0.766029
vt 0.932332 0.707883
vt 0.738632 0.712886
vt 0.783263 0.665992
vt 0.783710 0.707884
vt 0.777707 0.751711
vt 0.731978 0.761133
vt 0.984376 0.760956
vt 0.859846 0.703700
vt 0.859976 0.665978
vt 0.859878 0.746733
vt 0.938351 0.751710
vt 0.744732 0.668131
vt 0.382026 0.831469
vt 0.418522 0.841275
vt 0.677763 0.831469
vt 0.528249 0.844475
vt 0.637591 0.841275
vt 0.731780 0.831502
vt 0.986186 0.831501
vt 0.949768 0.804533
vt 0.859899 0.798757
vt 0.766274 0.804534
vt 0.373742 0.865250
vt 0.636248 0.878660
vt 0.685844 0.864708
vt 0.419588 0.879363
vt 0.424594 0.907034
vt 0.473419 0.928296
vt 0.528179 0.928739
vt 0.583365 0.928296
vt 0.631255 0.906322
vt 0.951862 0.876523
vt 0.859919 0.859414
vt 0.984490 0.865478
vt 0.999524 0.864737
vt 0.733989 0.865985
vt 0.937097 0.904797
vt 0.885587 0.904262
vt 0.781367 0.905428
vt 0.766617 0.877167
vt 0.834671 0.904262
vt 0.815141 0.928318
vt 0.939465 0.930109
vt 0.905079 0.928317
vt 0.430783 0.930758
vt 0.888250 0.982750
vt 0.860449 0.979035
vt 0.816811 0.994646
vt 0.832647 0.982750
vt 0.552626 0.994449
vt 0.505091 0.994631
vt 0.903559 0.994464
vt 0.859710 0.999313
vt 0.527992 0.999299
vt 0.439467 0.649264
vt 0.527736 0.644289
vt 0.527466 0.590394
vt 0.527167 0.551697
vt 0.440083 0.557452
vt 0.437506 0.595775
vt 0.407319 0.656490
vt 0.409216 0.573159
vt 0.615255 0.649271
vt 0.653630 0.656727
vt 0.651550 0.573170
vt 0.616683 0.595781
vt 0.613481 0.557458
vt 0.887982 0.551312
vt 0.827944 0.551325
vt 0.858362 0.534258
vt 0.859900 0.589147
vt 0.777983 0.594554
vt 0.371169 0.665942
vt 0.376537 0.596265
vt 0.939303 0.594558
vt 0.978719 0.596318
vt 0.683065 0.596261
vt 0.680842 0.665930
vt 0.738308 0.596323
vt 0.378574 0.373565
vt 0.370294 0.463088
vt 0.420807 0.390918
vt 0.774793 0.471327
vt 0.740328 0.463160
vt 0.748608 0.373646
vt 0.802144 0.297403
vt 0.802867 0.311813
vt 0.748712 0.308475
vt 0.749465 0.334351
vt 0.804664 0.353032
vt 0.378770 0.308418
vt 0.378497 0.334276
vt 0.421347 0.346677
vt 0.815989 0.450867
vt 0.440499 0.535486
vt 0.843324 0.307622
vt 0.516238 0.307436
vt 0.472768 0.346202
vt 0.524361 0.355713
vt 0.846080 0.355796
vt 0.521458 0.535206
vt 0.526644 0.534194
vt 0.776872 0.580089
vt 0.467124 0.305901
vt 0.481102 0.226475
vt 0.509789 0.071705
vt 0.469849 0.055836
vt 0.790328 0.074962
vt 0.842340 0.074422
vt 0.424794 0.306356
vt 0.380595 0.072268
vt 0.411046 0.250928
vt 0.428489 0.056150
vt 0.736585 0.074459
vt 0.447614 0.238856
vt 0.940323 0.580040
vt 0.982604 0.463071
vt 0.919770 0.352741
vt 0.974324 0.373437
vt 0.949823 0.471224
vt 0.974219 0.309320
vt 0.973467 0.334657
vt 0.922245 0.297183
vt 0.921567 0.311557
vt 0.875852 0.308211
vt 0.634934 0.391159
vt 0.688452 0.462999
vt 0.613778 0.535609
vt 0.680171 0.373355
vt 0.634392 0.346608
vt 0.682502 0.334562
vt 0.873096 0.355608
vt 0.907443 0.450713
vt 0.526905 0.542977
vt 0.533579 0.535172
vt 0.531380 0.355524
vt 0.582971 0.346133
vt 0.539503 0.308220
vt 0.588616 0.305805
vt 0.551542 0.070302
vt 0.574638 0.226628
vt 0.590997 0.055481
vt 0.864598 0.074872
vt 0.915663 0.074708
vt 0.630946 0.306159
vt 0.682229 0.309200
vt 0.644694 0.250679
vt 0.681616 0.069736
vt 0.635066 0.055753
vt 0.970300 0.073954
vt 0.608125 0.238454
vt 0.779033 0.930781
vt 0.625031 0.930085
vt 0.715986 0.865279
vt 0.251463 0.276135
vt 0.213128 0.428006
vt 0.219685 0.312379
vt 0.132828 0.342603
vt 0.072290 0.277129
vt 0.052237 0.433730
vt 0.129853 0.440859
vt 0.158440 0.423171
vt 0.159682 0.347509
vt 0.152093 0.279863
vt 0.121484 0.278596
vt 0.330783 0.423171
vt 0.311178 0.431347
vt 0.305878 0.401672
vt 0.246458 0.405985
vt 0.242530 0.434299
vt 0.302203 0.278300
vt 0.309780 0.334264
vt 0.037342 0.312379
vt 0.059120 0.276135
vt 0.245331 0.481052
vt 0.225319 0.487931
vt 0.960015 0.941268
vt 0.984439 0.922746
vt 0.303301 0.483115
vt 0.692864 0.892820
vt 0.987722 0.891645
vt 0.328252 0.488899
vt 0.127345 0.498567
vt 0.155909 0.488899
vt 0.645583 0.941246
vt 0.982927 0.947301
vt 0.058888 0.495494
vt 0.688777 0.947280
vt 0.022976 0.487931
vt 0.030785 0.428006
vt 0.151678 0.218499
vt 0.128682 0.251200
vt 0.147252 0.250884
vt 0.332025 0.347509
vt 0.324656 0.259025
vt 0.324436 0.279862
vt 0.309596 0.250884
vt 0.152313 0.259025
vt 0.059063 0.198788
vt 0.040316 0.207170
vt 0.056986 0.262293
vt 0.067375 0.261716
vt 0.119036 0.203117
vt 0.276998 0.219099
vt 0.314021 0.218499
vt 0.249329 0.262293
vt 0.232659 0.207170
vt 0.243360 0.063270
vt 0.279818 0.057851
vt 0.117475 0.057851
vt 0.097651 0.057189
vt 0.060441 0.062420
vt 0.041017 0.063270
vt 0.077441 0.050850
vt 0.259784 0.050850
vt 0.213169 0.606894
vt 0.246502 0.628854
vt 0.251716 0.758772
vt 0.072616 0.757881
vt 0.052339 0.601284
vt 0.036770 0.722545
vt 0.133727 0.692905
vt 0.129948 0.594050
vt 0.159335 0.686362
vt 0.305252 0.754689
vt 0.310585 0.701086
vt 0.331678 0.686362
vt 0.305923 0.633070
vt 0.311171 0.603366
vt 0.030826 0.606895
vt 0.123769 0.754257
vt 0.059373 0.758772
vt 0.303191 0.551604
vt 0.328261 0.545923
vt 0.155918 0.545923
vt 0.158488 0.611602
vt 0.733350 0.948004
vt 0.731771 0.923383
vt 0.758483 0.941939
vt 0.245234 0.553776
vt 0.242529 0.600532
vt 0.225343 0.547030
vt 0.733733 0.892259
vt 0.371263 0.893552
vt 0.127453 0.536405
vt 0.059002 0.539523
vt 0.372328 0.947981
vt 0.410231 0.941916
vt 0.219113 0.722544
vt 0.330831 0.611602
vt 0.023000 0.547030
vt 0.148045 0.784432
vt 0.154124 0.772602
vt 0.129537 0.784240
vt 0.310388 0.784432
vt 0.154926 0.752819
vt 0.327269 0.752819
vt 0.326467 0.772602
vt 0.059612 0.835957
vt 0.067841 0.773192
vt 0.057333 0.772374
vt 0.119586 0.831551
vt 0.152160 0.815882
vt 0.277452 0.815286
vt 0.314503 0.815882
vt 0.249676 0.772374
vt 0.233158 0.827331
vt 0.280099 0.977130
vt 0.242795 0.971710
vt 0.059935 0.972439
vt 0.040815 0.827331
vt 0.040452 0.971711
vt 0.098255 0.978132
vt 0.117756 0.977130
vt 0.076005 0.986001
vt 0.258348 0.986001
vt 0.937862 0.301029
vt 0.818862 0.549447
vt 0.943817 0.689731
vt 0.634516 0.458271
vt 0.736820 0.488742
vt 0.644740 0.400625
vt 0.240446 0.251412
vt -0.240300 0.252194
vt -0.062137 0.301029
vt 0.762085 0.137388
vt 0.543734 0.037073
vt 0.055663 0.740827
vt 0.165656 0.544295
vt 0.061124 0.300556
vt 0.197544 0.422367
vt 0.263546 0.487867
vt 0.356896 0.399917
vt 0.237832 0.136615
vt 0.458573 0.036805
vt -0.237915 0.137388
vt -0.056183 0.689731
vt 0.830960 0.755524
vt 0.665861 0.909705
vt 0.940801 0.956730
vt 0.094974 0.884125
vt -0.059199 0.956730
vt 0.486064 0.974303
vt 0.364763 0.655515
vt 0.158633 0.707437
vt 0.759700 0.252194
vt 0.801834 0.425477
vt 0.321375 0.844942
vt 0.656686 0.686679
vt 0.608014 0.532443
vt 0.564193 0.763691
vt 0.367043 0.457591
vt 0.393556 0.531810
vt 0.426887 0.792621
vt 0.468468 0.292592
vt 0.491027 0.314849
vt 0.491879 0.365390
vt 0.472586 0.459759
vt 0.489532 0.493355
vt 0.500821 0.568272
vt 0.435519 0.031243
vt 0.568444 0.031489
vt 0.500995 0.275123
vt 0.510376 0.314937
vt 0.512765 0.493436
vt 0.509796 0.365458
vt 0.529849 0.459952
vt 0.533605 0.292802
vt 0.524120 0.896797
vt 0.160970 0.844315
vt 0.658523 0.845641
vt 0.374037 0.888198
vt 0.200000 0.400000
vt 0.250000 0.400000
vt 0.250000 0.300000
vt 0.200000 0.300000
vt 0.250000 0.350000
vt 0.250000 0.250000
vt 0.200000 0.350000
vt 0.200000 0.250000
vt 0.180000 0.220000
vt 0.200000 0.150000
vt 0.230000 0.150000
vt 0.260000 0.150000
s 1
usemtl npc_joko_mat.001
f 28/1/28 26/2/26 29/3/29
f 40/4/40 26/2/26 28/1/28
f 41/5/41 55/6/55 39/7/39
f 32/8/32 30/9/30 55/6/55
f 44/10/44 37/11/37 45/12/45
f 35/13/35 37/11/37 56/14/56
f 38/15/38 35/13/35 33/16/33
f 27/17/27 34/18/34 45/12/45
f 35/13/35 26/2/26 46/19/46
f 29/3/29 26/2/26 35/13/35
f 36/20/36 42/21/42 30/9/30
f 51/20/51 31/22/31 53/23/53
f 49/22/49 32/8/32 54/23/54
f 48/24/48 57/25/57 26/2/26
f 54/23/54 60/26/60 43/27/43
f 54/23/54 32/8/32 41/5/41
f 44/10/44 27/17/27 59/28/59
f 61/29/61 65/20/65 62/30/62
f 66/31/66 71/30/70 32/8/32
f 66/31/66 69/29/69 71/30/70
f 64/32/64 67/33/67 69/29/69
f 63/34/63 67/33/67 64/32/64
f 63/34/63 64/32/64 66/31/66
f 49/22/49 63/34/63 66/31/66
f 68/33/68 70/34/68 31/22/31
f 71/30/70 36/20/36 30/9/30
f 68/33/68 31/22/31 51/20/51
f 29/3/29 35/13/35 38/15/38
f 41/5/41 39/7/39 50/35/50
f 52/33/52 65/20/65 61/29/61
f 71/30/70 30/9/30 32/8/32
f 64/32/64 69/29/69 66/31/66
f 32/8/32 49/22/49 66/31/66
f 4/36/4 5/37/5 28/1/28
f 1/38/1 4/36/4 29/3/29
f 38/15/38 1/38/1 29/3/29
f 112/39/111 111/40/110 99/41/98
f 126/42/125 97/43/96 102/44/101
f 98/45/97 117/46/116 116/47/115
f 106/48/105 116/47/115 117/46/116
f 100/49/99 101/50/100 97/43/96
f 101/50/100 106/48/105 97/43/96
f 111/40/110 112/39/111 109/51/108
f 116/47/115 108/52/107 115/53/114
f 101/50/100 110/54/109 106/48/105
f 106/48/105 104/55/103 127/56/126
f 120/57/119 113/43/112 107/58/106
f 123/59/122 125/60/124 103/61/102
f 103/61/102 125/60/124 99/41/98
f 128/58/127 117/46/116 98/45/97
f 125/60/124 123/59/122 129/62/128
f 127/56/126 108/52/107 106/48/105
f 105/63/104 115/53/114 98/45/97
f 136/64/135 99/41/98 121/65/120
f 140/59/139 132/66/131 133/64/132
f 138/67/137 135/68/134 139/66/138
f 135/68/134 138/67/137 134/69/133
f 134/69/133 137/70/136 135/68/134
f 137/70/136 103/61/102 99/41/98
f 135/68/134 137/70/136 139/66/138
f 103/61/102 134/69/133 138/67/137
f 124/67/123 132/66/131 140/59/139
f 138/67/137 123/59/122 103/61/102
f 111/40/110 109/51/108 119/71/118
f 110/54/109 104/55/103 106/48/105
f 139/66/138 137/70/136 136/64/135
f 123/59/122 136/64/135 121/65/120
f 137/70/136 134/69/133 103/61/102
f 137/70/136 99/41/98 136/64/135
f 74/72/73 76/73/75 119/71/118
f 72/74/71 73/75/72 104/55/103
f 100/49/99 97/43/96 126/42/125
f 121/65/120 99/41/98 111/40/110
f 48/24/48 26/2/26 40/4/40
f 55/6/55 47/76/47 39/7/39
f 112/39/111 122/77/121 109/51/108
f 112/39/111 99/41/98 125/60/124
f 33/16/33 35/13/35 56/14/56
f 32/8/32 55/6/55 41/5/41
f 46/19/46 57/25/57 27/17/27
f 53/23/53 58/21/58 51/20/51
f 118/44/117 113/43/112 120/57/119
f 125/60/124 129/62/128 114/78/113
f 54/23/54 43/27/43 42/21/42
f 57/25/57 59/28/59 27/17/27
f 37/11/37 35/13/35 45/12/45
f 34/18/34 27/17/27 44/10/44
f 128/58/127 97/43/96 117/46/116
f 115/53/114 130/79/129 98/45/97
f 116/47/115 115/53/114 105/63/104
f 131/80/130 125/60/124 114/78/113
f 98/45/97 116/47/115 105/63/104
f 106/48/105 108/52/107 116/47/115
f 106/48/105 117/46/116 97/43/96
f 128/58/127 98/45/97 130/79/129
f 44/10/44 45/12/45 34/18/34
f 46/19/46 45/12/45 35/13/35
f 45/12/45 46/19/46 27/17/27
f 57/25/57 46/19/46 26/2/26
f 2/81/2 50/35/50 3/82/3
f 1/38/1 33/16/33 16/83/16
f 33/16/33 1/38/1 38/15/38
f 3/82/3 47/76/47 21/84/21
f 75/85/74 100/49/99 92/86/91
f 74/72/73 122/77/121 87/87/86
f 72/74/71 101/50/100 75/85/74
f 29/3/29 4/36/4 28/1/28
f 100/49/99 75/85/74 101/50/100
f 109/51/108 74/72/73 119/71/118
f 122/77/121 74/72/73 109/51/108
f 110/54/109 72/74/71 104/55/103
f 101/50/100 72/74/71 110/54/109
f 50/35/50 39/7/39 3/82/3
f 39/7/39 47/76/47 3/82/3
f 153/88/152 146/89/145 148/90/147
f 141/91/140 154/92/153 145/93/144
f 147/94/146 156/95/155 145/93/144
f 159/96/158 146/89/145 158/97/157
f 147/94/146 145/93/144 154/92/153
f 167/98/166 143/99/142 168/100/167
f 144/101/143 141/91/140 163/102/162
f 141/91/140 145/93/144 163/102/162
f 160/103/159 145/93/144 157/104/156
f 149/105/148 143/99/142 167/98/166
f 166/106/165 142/107/141 150/108/149
f 150/108/149 185/109/184 170/110/169
f 149/105/148 167/98/166 171/111/170
f 143/99/142 149/105/148 151/112/150
f 142/107/141 152/113/151 151/112/150
f 150/108/149 142/107/141 151/112/150
f 151/112/150 155/114/154 185/109/184
f 151/112/150 149/105/148 186/115/185
f 152/113/151 143/99/142 151/112/150
f 146/89/145 153/88/152 144/101/143
f 166/106/165 169/116/168 142/107/141
f 155/114/154 151/112/150 186/115/185
f 151/112/150 185/109/184 150/108/149
f 150/108/149 170/110/169 166/106/165
f 156/95/155 157/104/156 145/93/144
f 146/89/145 163/102/162 160/103/159
f 148/90/147 146/89/145 159/96/158
f 149/105/148 171/111/170 186/115/185
f 158/97/157 146/89/145 160/103/159
f 190/117/189 191/118/190 157/104/156
f 192/119/191 159/96/158 158/97/157
f 158/97/157 160/103/159 194/120/193
f 158/97/157 194/120/193 193/121/192
f 170/110/169 185/109/184 208/122/207
f 186/115/185 209/123/208 188/124/187
f 189/125/188 155/114/154 188/124/187
f 187/126/186 185/109/184 155/114/154
f 187/126/186 155/114/154 189/125/188
f 185/109/184 187/126/186 208/122/207
f 155/114/154 186/115/185 188/124/187
f 186/115/185 171/111/170 209/123/208
f 192/119/191 158/97/157 193/121/192
f 157/104/156 191/118/190 194/120/193
f 156/95/155 190/117/189 157/104/156
f 160/103/159 157/104/156 194/120/193
f 191/118/190 190/117/189 212/127/211
f 204/128/203 251/129/250 193/121/192
f 191/118/190 205/130/204 194/120/193
f 196/131/195 291/132/290 290/133/289
f 204/128/203 194/120/193 290/133/289
f 292/134/291 198/135/197 290/133/289
f 206/136/205 200/137/199 188/124/187
f 252/138/251 209/123/208 274/139/273
f 200/137/199 189/125/188 188/124/187
f 251/129/250 192/119/191 193/121/192
f 187/126/186 213/140/212 208/122/207
f 187/126/186 189/125/188 200/137/199
f 197/141/196 201/142/200 200/137/199
f 200/137/199 195/143/194 207/144/206
f 195/143/194 199/145/198 299/146/298
f 197/141/196 203/147/202 300/148/299
f 201/142/200 199/145/198 200/137/199
f 300/148/299 201/142/200 197/141/196
f 200/137/199 199/145/198 195/143/194
f 205/130/204 290/133/289 194/120/193
f 202/149/201 291/132/290 196/131/195
f 198/135/197 204/128/203 290/133/289
f 296/150/295 297/151/296 201/142/200
f 297/151/296 199/145/198 201/142/200
f 294/152/293 299/146/298 293/153/292
f 299/146/298 199/145/198 293/153/292
f 295/154/294 290/133/289 301/155/300
f 292/134/291 290/133/289 295/154/294
f 296/150/295 300/148/299 302/156/301
f 296/150/295 201/142/200 300/148/299
f 297/151/296 293/153/292 199/145/198
f 290/133/289 291/132/290 301/155/300
f 297/151/296 296/150/295 298/157/297
f 293/153/292 297/151/296 298/157/297
f 303/158/302 295/154/294 301/155/300
f 293/153/292 298/157/297 294/152/293
f 296/150/295 302/156/301 298/157/297
f 173/159/172 141/91/140 177/160/176
f 179/161/178 178/162/177 326/163/325
f 179/161/178 330/164/329 177/160/176
f 161/165/160 154/92/153 141/91/140
f 173/159/172 161/165/160 141/91/140
f 327/166/326 161/165/160 330/164/329
f 327/166/326 330/164/329 326/163/325
f 177/160/176 144/101/143 172/167/171
f 162/168/161 144/101/143 153/88/152
f 172/167/171 144/101/143 162/168/161
f 305/169/304 308/170/307 162/168/161
f 305/169/304 304/171/303 308/170/307
f 174/172/173 175/173/174 180/174/179
f 176/175/175 152/113/151 329/176/328
f 161/165/160 164/177/163 154/92/153
f 328/178/327 164/177/163 161/165/160
f 328/178/327 161/165/160 327/166/326
f 307/179/306 152/113/151 176/175/175
f 307/179/306 306/180/305 143/99/142
f 321/181/320 162/168/161 165/182/164
f 165/182/164 162/168/161 153/88/152
f 321/181/320 305/169/304 162/168/161
f 177/160/176 141/91/140 144/101/143
f 304/171/303 178/162/177 179/161/178
f 177/160/176 308/170/307 179/161/178
f 176/175/175 174/172/173 307/179/306
f 152/113/151 307/179/306 143/99/142
f 343/183/342 329/176/328 142/107/141
f 152/113/151 142/107/141 329/176/328
f 173/159/172 177/160/176 330/164/329
f 161/165/160 173/159/172 330/164/329
f 162/168/161 308/170/307 172/167/171
f 172/167/171 308/170/307 177/160/176
f 179/161/178 326/163/325 330/164/329
f 179/161/178 308/170/307 304/171/303
f 333/184/332 335/185/334 337/186/336
f 340/187/339 345/188/344 344/189/343
f 79/190/78 85/191/84 78/192/77
f 341/193/340 78/192/77 334/194/333
f 96/195/95 347/196/346 332/197/331
f 340/187/339 334/194/333 339/198/338
f 332/197/331 333/184/332 337/186/336
f 338/199/337 327/166/326 326/163/325
f 77/200/76 334/194/333 85/191/84
f 95/201/94 331/202/330 336/203/335
f 175/173/174 346/204/345 180/174/179
f 175/173/174 339/198/338 346/204/345
f 336/203/335 181/205/180 184/206/183
f 335/185/334 328/178/327 327/166/326
f 331/202/330 332/197/331 337/186/336
f 338/199/337 178/162/177 181/205/180
f 181/205/180 337/186/336 338/199/337
f 342/207/341 339/198/338 175/173/174
f 77/200/76 346/204/345 334/194/333
f 84/208/83 95/201/94 80/209/79
f 88/210/87 86/211/85 80/209/79
f 90/212/89 89/213/88 77/200/76
f 88/210/87 80/209/79 95/201/94
f 332/197/331 83/214/82 96/195/95
f 93/215/92 81/216/80 91/217/90
f 93/215/92 96/195/95 81/216/80
f 94/218/93 90/212/89 78/192/77
f 84/208/83 83/214/82 331/202/330
f 91/217/90 81/216/80 82/219/81
f 82/219/81 86/211/85 91/217/90
f 90/212/89 79/190/78 78/192/77
f 77/200/76 79/190/78 90/212/89
f 83/214/82 82/219/81 81/216/80
f 86/211/85 82/219/81 80/209/79
f 307/179/306 320/220/319 306/180/305
f 306/180/305 320/220/319 313/221/312
f 310/222/309 312/223/311 318/224/317
f 7/225/7 319/226/318 310/222/309
f 8/227/8 14/228/14 6/229/6
f 315/230/314 305/169/304 323/231/322
f 315/230/314 316/232/315 305/169/304
f 315/230/314 322/233/321 311/234/310
f 322/233/321 325/235/324 311/234/310
f 180/174/179 314/236/313 174/172/173
f 310/222/309 314/236/313 6/229/6
f 314/236/313 310/222/309 317/237/316
f 184/206/183 183/238/182 182/239/181
f 324/240/323 309/241/308 24/242/24
f 184/206/183 182/239/181 324/240/323
f 315/230/314 323/231/322 322/233/321
f 311/234/310 309/241/308 315/230/314
f 315/230/314 309/241/308 182/239/181
f 317/237/316 318/224/317 320/220/319
f 7/225/7 310/222/309 14/228/14
f 309/241/308 12/243/12 24/242/24
f 17/244/17 9/245/9 15/246/15
f 17/244/17 24/242/24 9/245/9
f 18/247/18 19/248/19 6/229/6
f 13/249/13 25/250/25 10/251/10
f 25/250/25 22/252/22 10/251/10
f 22/252/22 20/253/20 10/251/10
f 23/254/23 7/225/7 19/248/19
f 12/243/12 311/234/310 13/249/13
f 20/253/20 15/246/15 11/255/11
f 9/245/9 11/255/11 15/246/15
f 19/248/19 7/225/7 8/227/8
f 6/229/6 19/248/19 8/227/8
f 12/243/12 11/255/11 9/245/9
f 20/253/20 11/255/11 10/251/10
f 195/143/194 299/146/298 210/256/209
f 211/257/210 198/135/197 292/134/291
f 193/121/192 194/120/193 204/128/203
f 205/130/204 196/131/195 290/133/289
f 191/118/190 212/127/211 205/130/204
f 188/124/187 252/138/251 206/136/205
f 197/141/196 200/137/199 206/136/205
f 200/137/199 207/144/206 187/126/186
f 188/124/187 209/123/208 252/138/251
f 187/126/186 207/144/206 213/140/212
f 213/140/212 235/258/234 208/122/207
f 262/259/261 270/260/269 260/261/259
f 273/262/272 261/263/260 257/264/256
f 257/264/256 253/265/252 273/262/272
f 254/266/253 272/267/271 253/265/252
f 363/268/362 258/269/257 272/267/271
f 277/270/276 255/271/254 267/272/266
f 266/273/265 270/260/269 262/259/261
f 256/274/255 266/273/265 255/271/254
f 259/275/258 271/276/270 262/259/261
f 257/264/256 261/263/260 278/277/277
f 261/263/260 279/278/278 278/277/277
f 264/279/263 268/280/267 256/274/255
f 265/281/264 197/141/196 282/282/281
f 264/279/263 256/274/255 255/271/254
f 263/283/262 264/279/263 255/271/254
f 204/128/203 198/135/197 269/284/268
f 206/136/205 252/138/251 284/285/283
f 286/286/285 255/271/254 277/270/276
f 275/287/274 287/288/286 253/265/252
f 198/135/197 211/257/210 283/289/282
f 280/290/279 265/281/264 282/282/281
f 253/265/252 257/264/256 276/291/275
f 203/147/202 197/141/196 265/281/264
f 281/292/280 198/135/197 283/289/282
f 255/271/254 286/286/285 263/283/262
f 256/274/255 268/280/267 270/260/269
f 266/273/265 262/259/261 271/276/270
f 277/270/276 267/272/266 271/276/270
f 267/272/266 255/271/254 266/273/265
f 285/293/284 257/264/256 288/294/287
f 282/282/281 197/141/196 284/285/283
f 269/284/268 198/135/197 281/292/280
f 287/288/286 254/266/253 253/265/252
f 288/294/287 257/264/256 278/277/277
f 256/274/255 270/260/269 266/273/265
f 352/295/351 350/296/349 349/297/348
f 258/269/257 350/296/349 261/263/260
f 271/276/270 267/272/266 266/273/265
f 289/298/288 271/276/270 259/275/258
f 272/267/271 258/269/257 273/262/272
f 289/298/288 277/270/276 271/276/270
f 261/263/260 273/262/272 258/269/257
f 272/267/271 273/262/272 253/265/252
f 348/299/347 372/300/371 259/275/258
f 348/299/347 259/275/258 365/301/364
f 259/275/258 262/259/261 365/301/364
f 258/269/257 364/302/363 350/296/349
f 355/303/354 354/304/353 361/305/360
f 279/278/278 261/263/260 362/306/361
f 351/307/350 355/303/354 362/306/361
f 362/306/361 350/296/349 351/307/350
f 364/302/363 349/297/348 350/296/349
f 351/307/350 350/296/349 352/295/351
f 353/308/352 366/309/365 365/301/364
f 262/259/261 371/310/370 365/301/364
f 371/310/370 353/308/352 365/301/364
f 353/308/352 367/311/366 357/312/356
f 353/308/352 357/312/356 358/313/357
f 352/295/351 369/314/368 351/307/350
f 351/307/350 360/315/359 356/316/355
f 355/303/354 356/316/355 368/317/367
f 368/317/367 356/316/355 359/318/358
f 359/318/358 356/316/355 360/315/359
f 357/312/356 370/319/369 358/313/357
f 231/320/230 227/321/226 223/322/222
f 222/323/221 218/324/217 221/325/220
f 218/324/217 222/323/221 234/326/233
f 214/327/213 234/326/233 233/328/232
f 220/329/219 232/330/231 250/331/249
f 232/330/231 227/321/226 228/332/227
f 228/332/227 227/321/226 216/333/215
f 218/324/217 249/334/248 221/325/220
f 219/335/218 234/326/233 222/323/221
f 222/323/221 221/325/220 240/336/239
f 216/333/215 224/337/223 230/338/229
f 247/339/246 214/327/213 215/340/214
f 241/341/240 225/342/224 226/343/225
f 226/343/225 195/143/194 210/256/209
f 243/344/242 216/333/215 217/345/216
f 224/337/223 216/333/215 243/344/242
f 231/320/230 229/346/228 217/345/216
f 195/143/194 225/342/224 245/347/244
f 248/348/247 205/130/204 212/127/211
f 207/144/206 195/143/194 245/347/244
f 236/349/235 237/350/236 214/327/213
f 242/351/241 244/352/243 196/131/195
f 244/352/243 202/149/201 196/131/195
f 229/346/228 243/344/242 217/345/216
f 225/342/224 195/143/194 226/343/225
f 242/351/241 196/131/195 248/348/247
f 227/321/226 217/345/216 216/333/215
f 231/320/230 223/322/222 239/353/238
f 238/354/237 228/332/227 216/333/215
f 223/322/222 227/321/226 232/330/231
f 237/350/236 246/355/245 218/324/217
f 216/333/215 230/338/229 238/354/237
f 217/345/216 227/321/226 231/320/230
f 218/324/217 246/355/245 249/334/248
f 374/356/373 373/357/372 375/358/374
f 220/329/219 390/359/389 223/322/222
f 238/354/237 232/330/231 228/332/227
f 223/322/222 232/330/231 220/329/219
f 232/330/231 238/354/237 250/331/249
f 214/327/213 233/328/232 215/340/214
f 373/357/372 388/360/387 219/335/218
f 218/324/217 234/326/233 214/327/213
f 234/326/233 219/335/218 233/328/232
f 373/357/372 219/335/218 375/358/374
f 220/329/219 250/331/249 397/361/396
f 220/329/219 389/362/388 390/359/389
f 219/335/218 222/323/221 375/358/374
f 380/363/379 387/364/386 386/365/385
f 240/336/239 386/365/385 387/364/386
f 376/366/375 375/358/374 387/364/386
f 222/323/221 387/364/386 375/358/374
f 377/367/376 375/358/374 376/366/375
f 375/358/374 377/367/376 374/356/373
f 378/368/377 390/359/389 391/369/390
f 396/370/395 390/359/389 378/368/377
f 379/371/378 396/370/395 378/368/377
f 378/368/377 384/372/383 383/373/382
f 378/368/377 391/369/390 384/372/383
f 376/366/375 380/363/379 382/374/381
f 380/363/379 392/375/391 393/376/392
f 381/377/380 394/378/393 376/366/375
f 385/379/384 394/378/393 381/377/380
f 393/376/392 385/379/384 382/374/381
f 382/374/381 385/379/384 381/377/380
f 384/372/383 395/380/394 383/373/382
f 237/350/236 218/324/217 214/327/213
f 247/339/246 236/349/235 214/327/213
f 276/291/275 257/264/256 285/293/284
f 253/265/252 276/291/275 275/287/274
f 207/144/206 245/347/244 213/140/212
f 284/285/283 197/141/196 206/136/205
f 196/131/195 205/130/204 248/348/247
f 204/128/203 269/284/268 251/129/250
f 181/205/180 336/203/335 331/202/330
f 316/232/315 178/162/177 304/171/303
f 12/243/12 9/245/9 24/242/24
f 83/214/82 81/216/80 96/195/95
f 311/234/310 25/250/25 13/249/13
f 10/251/10 11/255/11 13/249/13
f 331/202/330 95/201/94 84/208/83
f 84/208/83 80/209/79 82/219/81
f 83/214/82 332/197/331 331/202/330
f 82/219/81 83/214/82 84/208/83
f 309/241/308 311/234/310 12/243/12
f 12/243/12 13/249/13 11/255/11
f 14/228/14 310/222/309 6/229/6
f 7/225/7 14/228/14 8/227/8
f 341/193/340 334/194/333 344/189/343
f 77/200/76 85/191/84 79/190/78
f 337/186/336 335/185/334 327/166/326
f 326/163/325 178/162/177 338/199/337
f 315/230/314 182/239/181 316/232/315
f 331/202/330 337/186/336 181/205/180
f 178/162/177 183/238/182 181/205/180
f 182/239/181 309/241/308 324/240/323
f 316/232/315 182/239/181 178/162/177
f 183/238/182 178/162/177 182/239/181
f 183/238/182 184/206/183 181/205/180
f 337/186/336 327/166/326 338/199/337
f 305/169/304 316/232/315 304/171/303
f 382/374/381 380/363/379 393/376/392
f 381/377/380 376/366/375 382/374/381
f 378/368/377 383/373/382 379/371/378
f 394/378/393 377/367/376 376/366/375
f 369/314/368 359/318/358 360/315/359
f 369/314/368 360/315/359 351/307/350
f 353/308/352 358/313/357 366/309/365
f 355/303/354 368/317/367 354/304/353
f 351/307/350 356/316/355 355/303/354
f 175/173/174 176/175/175 329/176/328
f 176/175/175 175/173/174 174/172/173
f 323/231/322 305/169/304 321/181/320
f 340/187/339 342/207/341 345/188/344
f 380/363/379 386/365/385 392/375/391
f 396/370/395 223/322/222 390/359/389
f 240/336/239 387/364/386 222/323/221
f 376/366/375 387/364/386 380/363/379
f 362/306/361 361/305/360 279/278/278
f 367/311/366 353/308/352 371/310/370
f 361/305/360 362/306/361 355/303/354
f 350/296/349 362/306/361 261/263/260
f 364/302/363 258/269/257 363/268/362
f 372/300/371 289/298/288 259/275/258
f 388/360/387 233/328/232 219/335/218
f 220/329/219 397/361/396 389/362/388
f 339/198/338 334/194/333 346/204/345
f 342/207/341 175/173/174 329/176/328
f 314/236/313 317/237/316 174/172/173
f 310/222/309 318/224/317 317/237/316
f 342/207/341 343/183/342 345/188/344
f 344/189/343 334/194/333 340/187/339
f 318/224/317 312/223/311 313/221/312
f 174/172/173 317/237/316 320/220/319
f 78/192/77 85/191/84 334/194/333
f 347/196/346 333/184/332 332/197/331
f 319/226/318 312/223/311 310/222/309
f 325/235/324 25/250/25 311/234/310
f 144/101/143 163/102/162 146/89/145
f 163/102/162 145/93/144 160/103/159
f 340/187/339 339/198/338 342/207/341
f 329/176/328 343/183/342 342/207/341
f 320/220/319 318/224/317 313/221/312
f 174/172/173 320/220/319 307/179/306
f 400/381/399 424/382/423 401/383/400
f 403/384/402 422/385/421 406/386/405
f 416/387/415 407/388/406 450/389/449
f 406/386/405 398/390/397 435/391/434
f 411/392/410 423/393/422 410/394/409
f 416/387/415 410/394/409 419/395/418
f 421/396/420 415/397/414 416/387/415
f 408/398/407 407/388/406 416/387/415
f 415/397/414 434/399/433 408/398/407
f 449/400/448 407/388/406 408/398/407
f 416/387/415 450/389/449 410/394/409
f 410/394/409 451/401/450 411/392/410
f 451/401/450 410/394/409 450/389/449
f 438/402/437 439/403/438 436/404/435
f 405/405/404 411/392/410 453/406/452
f 441/407/440 436/404/435 439/403/438
f 418/408/417 423/393/422 437/409/436
f 452/410/451 420/411/419 400/381/399
f 420/411/419 424/382/423 400/381/399
f 418/408/417 437/409/436 440/412/439
f 452/410/451 422/385/421 420/411/419
f 422/385/421 452/410/451 406/386/405
f 417/413/416 403/384/402 404/414/403
f 417/413/416 422/385/421 403/384/402
f 402/415/401 417/413/416 404/414/403
f 424/382/423 422/385/421 417/413/416
f 421/396/420 416/387/415 419/395/418
f 413/416/412 415/397/414 421/396/420
f 421/396/420 418/408/417 413/416/412
f 414/417/413 413/416/412 418/408/417
f 412/418/411 414/417/413 418/408/417
f 423/393/422 421/396/420 419/395/418
f 418/408/417 440/412/439 412/418/411
f 423/393/422 419/395/418 410/394/409
f 418/408/417 421/396/420 423/393/422
f 424/382/423 417/413/416 438/402/437
f 420/411/419 422/385/421 424/382/423
f 452/410/451 398/390/397 406/386/405
f 434/399/433 415/397/414 426/419/425
f 433/420/432 426/419/425 428/421/427
f 415/397/414 408/398/407 416/387/415
f 426/419/425 415/397/414 446/422/445
f 414/417/413 446/422/445 413/416/412
f 427/423/426 414/417/413 429/424/428
f 446/422/445 414/417/413 427/423/426
f 409/425/408 434/399/433 399/426/398
f 448/427/447 435/391/434 434/399/433
f 429/424/428 412/418/411 402/415/401
f 404/414/403 429/424/428 402/415/401
f 432/428/431 448/427/447 433/420/432
f 414/417/413 412/418/411 429/424/428
f 430/429/429 427/423/426 429/424/428
f 428/421/427 427/423/426 430/429/429
f 431/430/430 428/421/427 430/429/429
f 432/428/431 428/421/427 431/430/430
f 403/384/402 447/431/446 404/414/403
f 404/414/403 430/429/429 429/424/428
f 431/430/430 425/432/424 432/428/431
f 447/431/446 403/384/402 406/386/405
f 425/432/424 430/429/429 447/431/446
f 441/407/440 439/403/438 444/433/443
f 425/432/424 448/427/447 432/428/431
f 430/429/429 425/432/424 431/430/430
f 426/419/425 427/423/426 428/421/427
f 432/428/431 433/420/432 428/421/427
f 434/399/433 426/419/425 448/427/447
f 435/391/434 425/432/424 406/386/405
f 435/391/434 399/426/398 434/399/433
f 409/425/408 408/398/407 434/399/433
f 399/426/398 435/391/434 398/390/397
f 453/406/452 411/392/410 451/401/450
f 405/405/404 453/406/452 441/407/440
f 411/392/410 437/409/436 423/393/422
f 411/392/410 443/434/442 437/409/436
f 401/383/400 438/402/437 436/404/435
f 401/383/400 424/382/423 438/402/437
f 439/403/438 438/402/437 445/435/444
f 438/402/437 417/413/416 445/435/444
f 443/434/442 440/412/439 437/409/436
f 442/436/441 412/418/411 440/412/439
f 412/418/411 441/407/440 444/433/443
f 412/418/411 442/436/441 441/407/440
f 442/436/441 440/412/439 443/434/442
f 405/405/404 441/407/440 442/436/441
f 405/405/404 443/434/442 411/392/410
f 442/436/441 443/434/442 405/405/404
f 445/435/444 444/433/443 439/403/438
f 402/415/401 412/418/411 444/433/443
f 402/415/401 445/435/444 417/413/416
f 402/415/401 444/433/443 445/435/444
f 408/398/407 409/425/408 399/426/398
f 449/400/448 408/398/407 399/426/398
f 426/419/425 446/422/445 427/423/426
f 446/422/445 415/397/414 413/416/412
f 430/429/429 404/414/403 447/431/446
f 425/432/424 447/431/446 406/386/405
f 425/432/424 435/391/434 448/427/447
f 448/427/447 426/419/425 433/420/432
f 454/437/453 455/438/454 459/439/458 458/440/457
f 455/438/454 456/441/455 460/442/459 459/439/458
f 456/441/455 457/443/456 461/444/460 460/442/459
f 457/443/456 454/437/453 458/440/457 461/444/460
f 458/440/457 459/439/458 462/445/461
f 459/439/458 460/442/459 462/445/461
f 460/442/459 461/444/460 462/445/461
f 461/444/460 458/440/457 462/445/461
f 458/440/457 462/445/461 463/446/462
f 459/439/458 462/445/461 464/447/463
f 459/439/458 464/447/463 465/448/464
f 460/442/459 465/448/464 464/447/463
f 460/442/459 464/447/463 461/444/460
f 461/444/460 464/447/463 463/446/462
f 463/446/462 464/447/463 465/448/464
f 470/440/469 471/439/470 467/438/466 466/437/465
f 471/439/470 472/442/471 468/441/467 467/438/466
f 472/442/471 473/444/472 469/443/468 468/441/467
f 473/444/472 470/440/469 466/437/465 469/443/468
f 474/445/473 471/439/470 470/440/469
f 474/445/473 472/442/471 471/439/470
f 474/445/473 473/444/472 472/442/471
f 474/445/473 470/440/469 473/444/472
f 475/446/474 474/445/473 470/440/469
f 476/447/475 474/445/473 471/439/470
f 477/448/476 476/447/475 471/439/470
f 476/447/475 477/448/476 472/442/471
f 473/444/472 476/447/475 472/442/471
f 475/446/474 476/447/475 473/444/472
f 477/448/476 476/447/475 475/446/474
