# Blender 5.1.1
# www.blender.org
mtllib npc_maya_walk3.mtl
o npc_maya_walk3
v 0.011507 -0.071746 0.843681
v 0.045880 0.011778 0.517537
v 0.106632 0.011621 0.520423
v 0.132115 0.077225 0.563084
v 0.156572 0.064871 0.637444
v 0.047974 0.124889 0.637429
v 0.073388 0.110366 0.541449
v 0.008005 0.059353 0.637446
v 0.023385 0.077458 0.539115
v 0.151292 -0.146524 0.887551
v 0.159501 -0.031643 0.925515
v 0.000011 0.063363 0.841505
v 0.089134 -0.106154 0.864036
v 0.130577 0.096148 0.939965
v 0.097617 -0.117252 0.900066
v 0.154257 -0.143655 0.913993
v 0.131025 0.093966 0.921434
v 0.115251 0.079950 0.507187
v 0.140562 -0.027604 0.637468
v 0.073971 -0.051506 0.637474
v 0.024129 -0.035314 0.637469
v 0.114579 0.124391 0.637429
v 0.076723 0.107184 0.637434
v 0.142051 0.065399 0.637444
v 0.017609 0.060883 0.637445
v 0.119380 -0.012422 0.637464
v 0.033017 -0.019199 0.637465
v 0.077943 -0.029540 0.637468
v 0.132115 0.077225 0.563084
v 0.156572 0.064871 0.637444
v 0.156572 0.064871 0.637444
v 0.156572 0.064871 0.637444
v 0.047974 0.124889 0.637429
v 0.008005 0.059353 0.637446
v 0.008005 0.059353 0.637446
v 0.008005 0.059353 0.637446
v 0.023385 0.077458 0.539115
v 0.159501 -0.031643 0.925515
v 0.000011 0.063363 0.841505
v 0.115251 0.079950 0.507187
v 0.140562 -0.027604 0.637468
v 0.073971 -0.051506 0.637474
v 0.024129 -0.035314 0.637469
v 0.114579 0.124391 0.637429
v 0.076723 0.107184 0.637434
v 0.142051 0.065399 0.637444
v 0.142051 0.065399 0.637444
v 0.142051 0.065399 0.637444
v 0.017609 0.060883 0.637445
v 0.017609 0.060883 0.637445
v 0.017609 0.060883 0.637445
v 0.119380 -0.012422 0.637464
v 0.033017 -0.019199 0.637465
v 0.077943 -0.029540 0.637468
v 0.032962 0.093574 0.874834
v 0.041310 -0.104036 0.845926
v -0.033742 0.093758 0.873520
v -0.042171 -0.104077 0.845462
v 0.105944 -0.111391 0.989273
v -0.107867 -0.111659 0.989263
v -0.151141 0.032587 1.009818
v 0.152671 -0.100972 1.010209
v 0.125879 0.078391 1.013708
v -0.124327 0.078185 1.013698
v -0.073932 0.116095 1.009395
v 0.075554 0.116087 1.009394
v 0.000041 -0.096626 0.857299
v 0.047029 -0.116832 0.877693
v -0.048647 -0.116921 0.877705
v 0.000120 -0.124261 0.904488
v -0.061049 0.112142 0.940000
v 0.061803 0.112080 0.939994
v -0.001032 -0.118489 0.989268
v 0.000278 0.109217 1.056948
v 0.125879 0.078391 1.013708
v -0.124327 0.078185 1.013698
v 0.111074 0.080548 0.465245
v 0.034019 0.079364 0.465219
v 0.073541 0.100689 0.469523
v 0.038231 0.021292 0.455842
v 0.027857 0.036149 0.338636
v 0.062388 0.084483 0.105067
v 0.058398 0.120104 0.105045
v 0.076629 0.135828 0.105035
v 0.106787 0.021236 0.455738
v 0.125996 0.035211 0.337760
v 0.083572 0.082322 0.105067
v 0.095796 0.120022 0.105044
v 0.074359 0.098137 0.448059
v 0.073294 0.009517 0.336216
v 0.111074 0.080548 0.465245
v 0.034019 0.079364 0.465219
v 0.058398 0.120104 0.105045
v 0.095796 0.120022 0.105044
v 0.091271 0.069927 0.029661
v 0.089009 0.081735 -0.000233
v 0.095573 0.123601 0.084651
v 0.084028 0.086226 0.084695
v 0.123965 0.221272 0.034648
v 0.051893 0.224570 -0.000401
v 0.056618 0.220341 0.040813
v 0.058620 0.123911 0.084651
v 0.057430 0.087509 -0.000240
v 0.050574 0.071476 0.029660
v 0.124137 0.224655 -0.000401
v 0.062187 0.088697 0.084692
v 0.075735 0.139587 0.084632
v 0.062306 0.173913 0.068128
v 0.095573 0.123601 0.084651
v 0.123965 0.221272 0.034648
v 0.051893 0.224570 -0.000401
v 0.056618 0.220341 0.040813
v 0.058620 0.123911 0.084651
v 0.124137 0.224655 -0.000401
v 0.062306 0.173913 0.068128
v 0.106797 0.291667 -0.000480
v 0.106048 0.285882 0.019085
v 0.072111 0.302795 -0.000493
v 0.070036 0.296232 0.020285
v 0.123758 0.234620 0.032089
v 0.057329 0.234514 0.035778
v -0.011453 -0.071693 0.843714
v -0.045446 -0.074259 0.545737
v -0.104474 -0.073556 0.548342
v -0.130368 0.005667 0.587151
v -0.156880 0.014776 0.653942
v -0.073863 0.032007 0.567394
v -0.025434 -0.001460 0.565237
v -0.009553 0.009536 0.653943
v -0.050074 0.074361 0.653931
v -0.150452 0.033236 0.887343
v -0.158686 0.133646 0.925555
v -0.087959 -0.106236 0.863576
v -0.129833 0.096272 0.939980
v -0.097388 -0.117480 0.900050
v -0.154834 0.025837 0.914080
v -0.128637 0.094635 0.921594
v -0.114057 -0.009799 0.536575
v -0.139045 -0.078099 0.653960
v -0.073322 -0.101953 0.653964
v -0.023971 -0.085708 0.653961
v -0.115998 0.074078 0.653931
v -0.078086 0.057342 0.653934
v -0.141322 0.015863 0.653942
v -0.019450 0.011476 0.653943
v -0.117551 -0.062448 0.653957
v -0.032678 -0.069165 0.653958
v -0.076539 -0.079542 0.653960
v -0.130368 0.005667 0.587151
v -0.156880 0.014776 0.653942
v -0.156880 0.014776 0.653942
v -0.156880 0.014776 0.653942
v -0.025434 -0.001460 0.565237
v -0.009553 0.009536 0.653943
v -0.009553 0.009536 0.653943
v -0.009553 0.009536 0.653943
v -0.050074 0.074361 0.653931
v -0.158686 0.133646 0.925555
v -0.114057 -0.009799 0.536575
v -0.139045 -0.078099 0.653960
v -0.073322 -0.101953 0.653964
v -0.023971 -0.085708 0.653961
v -0.115998 0.074078 0.653931
v -0.078086 0.057342 0.653934
v -0.141322 0.015863 0.653942
v -0.141322 0.015863 0.653942
v -0.141322 0.015863 0.653942
v -0.019450 0.011476 0.653943
v -0.019450 0.011476 0.653943
v -0.019450 0.011476 0.653943
v -0.117551 -0.062448 0.653957
v -0.032678 -0.069165 0.653958
v -0.076539 -0.079542 0.653960
v -0.110440 -0.023147 0.498591
v -0.035283 -0.022184 0.498565
v -0.073860 -0.000459 0.502484
v -0.038944 -0.083984 0.490174
v -0.028575 -0.104491 0.384666
v -0.061799 -0.128922 0.173753
v -0.057809 -0.093285 0.173735
v -0.077302 -0.077543 0.173725
v -0.105727 -0.084074 0.490081
v -0.125847 -0.105698 0.383887
v -0.082980 -0.131089 0.173756
v -0.095204 -0.093364 0.173733
v -0.074697 -0.009645 0.482989
v -0.073611 -0.131848 0.382638
v -0.110440 -0.023147 0.498591
v -0.035283 -0.022184 0.498565
v -0.057809 -0.093285 0.173735
v -0.095204 -0.093364 0.173733
v -0.090865 -0.166274 0.105796
v -0.089354 -0.163576 0.078802
v -0.056208 -0.012656 0.115602
v -0.095207 -0.095917 0.155360
v -0.083465 -0.133348 0.155407
v -0.123552 -0.013603 0.110040
v -0.051483 -0.020717 0.078621
v -0.058271 -0.095613 0.155359
v -0.055917 -0.157856 0.078795
v -0.050164 -0.164781 0.105794
v -0.124081 -0.020671 0.078621
v -0.076470 -0.081096 0.155341
v -0.061626 -0.130872 0.155404
v -0.061931 -0.050704 0.140349
v -0.056208 -0.012656 0.115602
v -0.095207 -0.095917 0.155360
v -0.123552 -0.013603 0.110040
v -0.051483 -0.020717 0.078621
v -0.058271 -0.095613 0.155359
v -0.124081 -0.020671 0.078621
v -0.061931 -0.050704 0.140349
v -0.106391 0.046187 0.078536
v -0.105642 0.046334 0.095986
v -0.071700 0.057273 0.078522
v -0.069625 0.057001 0.097067
v -0.123709 -0.001000 0.107729
v -0.056589 -0.000006 0.111057
v -0.097224 -0.081625 1.051526
v -0.134923 -0.009828 1.054783
v 0.092732 0.084963 1.056940
v 0.098030 -0.081490 1.051532
v 0.137500 -0.009704 1.054791
v -0.092176 0.085151 1.056956
v -0.126193 0.005107 1.154898
v 0.126911 0.005983 1.154315
v 0.087546 -0.065782 1.158529
v 0.083693 -0.058023 1.087220
v -0.086463 -0.066184 1.158871
v -0.084660 -0.057495 1.087497
v 0.117695 -0.008575 1.085043
v -0.118950 -0.008075 1.085202
v 0.089464 0.089108 1.147919
v -0.089082 0.088946 1.147919
v 0.000191 0.112358 1.146514
v 0.000542 -0.074466 1.158700
v -0.000483 -0.066243 1.087358
v 0.000403 -0.090041 1.051529
v 0.092732 0.084963 1.056940
v -0.092176 0.085151 1.056956
v -0.126193 0.005107 1.154898
v 0.126911 0.005983 1.154315
v 0.117695 -0.008575 1.085043
v -0.118950 -0.008075 1.085202
v -0.132464 -0.008452 1.285426
v 0.130454 -0.008247 1.285426
v -0.085735 0.098149 1.216567
v 0.086161 0.098328 1.216567
v 0.000213 0.112027 1.220319
v -0.082732 0.119211 1.261170
v 0.083112 0.119382 1.261170
v 0.088724 0.117647 1.302102
v -0.087485 0.117563 1.302102
v 0.130229 0.063194 1.293764
v -0.130583 0.063049 1.293764
v 0.000619 0.108006 1.299415
v 0.000190 0.110215 1.263835
v -0.132464 -0.008452 1.285426
v 0.130454 -0.008247 1.285426
v -0.111114 -0.084211 1.332381
v 0.112533 -0.084005 1.332380
v 0.000432 -0.098752 1.339836
v -0.110773 -0.060974 1.432368
v 0.110818 -0.060971 1.432235
v 0.102857 0.002486 1.429945
v -0.133113 0.030374 1.374549
v 0.032035 0.009297 1.433031
v -0.102896 0.002479 1.429969
v 0.131673 0.031260 1.374679
v -0.030313 0.009185 1.433053
v -0.125577 -0.077062 1.375309
v 0.126279 -0.076830 1.375393
v -0.146022 -0.025426 1.353582
v 0.145512 -0.025296 1.353552
v -0.110773 -0.060974 1.432368
v 0.110818 -0.060971 1.432235
v 0.102857 0.002486 1.429945
v -0.133113 0.030374 1.374549
v -0.133113 0.030374 1.374549
v -0.102896 0.002479 1.429969
v 0.131673 0.031260 1.374679
v 0.131673 0.031260 1.374679
v -0.125577 -0.077062 1.375309
v -0.125577 -0.077062 1.375309
v 0.126279 -0.076830 1.375393
v 0.126279 -0.076830 1.375393
v -0.146022 -0.025426 1.353582
v -0.146022 -0.025426 1.353582
v 0.145512 -0.025296 1.353552
v 0.145512 -0.025296 1.353552
v 0.001424 -0.067333 1.479318
v -0.042488 -0.055015 1.471596
v 0.044525 -0.055275 1.471489
v -0.035425 0.014594 1.562382
v -0.025448 -0.033011 1.579038
v 0.028293 -0.033408 1.578739
v 0.037924 0.014662 1.562382
v 0.000497 0.006313 1.583927
v 0.001249 0.034998 1.551367
v -0.042488 -0.055015 1.471596
v 0.044525 -0.055275 1.471489
v -0.025448 -0.033011 1.579038
v 0.028293 -0.033408 1.578739
v 0.000497 0.006313 1.583927
v 0.105514 -0.031182 1.439469
v 0.105514 -0.031182 1.439469
v 0.105514 -0.031182 1.439469
v -0.105538 -0.031282 1.439488
v -0.105538 -0.031282 1.439488
v -0.105538 -0.031282 1.439488
v -0.123160 -0.066345 1.356288
v -0.163494 -0.070053 1.345246
v -0.208726 -0.053139 1.349008
v -0.202135 0.014450 1.350628
v -0.126001 0.015857 1.355068
v -0.155143 -0.016917 1.147549
v -0.203595 -0.021553 1.153329
v -0.178531 0.046591 1.185451
v -0.157337 0.040629 1.142336
v -0.210017 0.038991 1.147023
v -0.197475 0.001248 1.397892
v -0.199637 -0.055198 1.399560
v -0.190852 -0.024422 1.425048
v -0.132258 0.026336 1.395133
v -0.125863 -0.072682 1.397728
v -0.116753 -0.020572 1.363472
v -0.140143 0.025473 1.351486
v -0.206326 0.021429 1.275926
v -0.206563 -0.041418 1.276903
v -0.163617 0.036962 1.271958
v -0.139740 0.006936 1.270052
v -0.137411 -0.062990 1.270916
v -0.172132 -0.050715 1.274037
v -0.213070 0.028173 1.279633
v -0.157145 0.045419 1.274485
v -0.217253 -0.046279 1.281132
v -0.170793 -0.061059 1.277298
v -0.131316 -0.070745 1.273730
v -0.134234 0.015642 1.272667
v -0.163494 -0.070053 1.345246
v -0.203595 -0.021553 1.153329
v -0.178531 0.046591 1.185451
v -0.210017 0.038991 1.147023
v -0.132258 0.026336 1.395133
v -0.125863 -0.072682 1.397728
v -0.140143 0.025473 1.351486
v -0.206326 0.021429 1.275926
v -0.206563 -0.041418 1.276903
v -0.163617 0.036962 1.271958
v -0.163617 0.036962 1.271958
v -0.163617 0.036962 1.271958
v -0.139740 0.006936 1.270052
v -0.137411 -0.062990 1.270916
v -0.172132 -0.050715 1.274037
v -0.172132 -0.050715 1.274037
v -0.172132 -0.050715 1.274037
v -0.213070 0.028173 1.279633
v -0.157145 0.045419 1.274485
v -0.157145 0.045419 1.274485
v -0.157145 0.045419 1.274485
v -0.217253 -0.046279 1.281132
v -0.170793 -0.061059 1.277298
v -0.170793 -0.061059 1.277298
v -0.170793 -0.061059 1.277298
v -0.131316 -0.070745 1.273730
v -0.134234 0.015642 1.272667
v 0.123090 -0.066366 1.356304
v 0.163431 -0.078263 1.345263
v 0.208658 -0.059925 1.349018
v 0.202051 0.008269 1.350620
v 0.125916 0.015839 1.355056
v 0.155453 -0.097420 1.147483
v 0.203905 -0.099874 1.153262
v 0.178453 -0.021549 1.185452
v 0.157810 -0.041851 1.142257
v 0.210497 -0.041716 1.146952
v 0.197388 0.001225 1.397885
v 0.199569 -0.055224 1.399570
v 0.190775 -0.024422 1.425050
v 0.132159 0.026257 1.395122
v 0.125796 -0.072772 1.397736
v 0.116675 -0.020579 1.363473
v 0.140052 0.025455 1.351473
v 0.206528 -0.011816 1.275856
v 0.206680 -0.074272 1.276918
v 0.163540 0.001244 1.271860
v 0.137529 -0.062043 1.270940
v 0.139937 0.007877 1.269981
v 0.172253 -0.084668 1.274067
v 0.217276 -0.077974 1.281169
v 0.213147 -0.004113 1.279566
v 0.157052 0.010611 1.274391
v 0.170818 -0.094213 1.277360
v 0.131336 -0.070244 1.273782
v 0.134308 0.016140 1.272597
v 0.163431 -0.078263 1.345263
v 0.203905 -0.099874 1.153262
v 0.178453 -0.021549 1.185452
v 0.210497 -0.041716 1.146952
v 0.132159 0.026257 1.395122
v 0.125796 -0.072772 1.397736
v 0.140052 0.025455 1.351473
v 0.206528 -0.011816 1.275856
v 0.206680 -0.074272 1.276918
v 0.163540 0.001244 1.271860
v 0.163540 0.001244 1.271860
v 0.163540 0.001244 1.271860
v 0.137529 -0.062043 1.270940
v 0.139937 0.007877 1.269981
v 0.172253 -0.084668 1.274067
v 0.172253 -0.084668 1.274067
v 0.172253 -0.084668 1.274067
v 0.217276 -0.077974 1.281169
v 0.213147 -0.004113 1.279566
v 0.157052 0.010611 1.274391
v 0.157052 0.010611 1.274391
v 0.157052 0.010611 1.274391
v 0.170818 -0.094213 1.277360
v 0.170818 -0.094213 1.277360
v 0.170818 -0.094213 1.277360
v 0.131336 -0.070244 1.273782
v 0.134308 0.016140 1.272597
v 0.159622 -0.100791 1.123063
v 0.205965 -0.103722 1.126425
v 0.212262 -0.041988 1.133206
v 0.159178 -0.043702 1.128142
v 0.155853 -0.102741 1.044875
v 0.206772 -0.110747 1.070526
v 0.210838 -0.035106 1.059542
v 0.160624 -0.043713 1.042282
v 0.191015 -0.117747 0.879156
v 0.191452 -0.079419 0.883863
v 0.221359 -0.080520 0.887947
v 0.221269 -0.116162 0.883268
v 0.229159 -0.076205 1.074532
v 0.206990 -0.099515 0.875546
v 0.180811 -0.103899 1.131842
v 0.205965 -0.103722 1.126425
v 0.212262 -0.041988 1.133206
v 0.206772 -0.110747 1.070526
v 0.210838 -0.035106 1.059542
v 0.221359 -0.080520 0.887947
v 0.221269 -0.116162 0.883268
v 0.206990 -0.099515 0.875546
v -0.159423 -0.009182 1.122941
v -0.205766 -0.013388 1.126303
v -0.211997 0.043823 1.133112
v -0.158914 0.044022 1.128048
v -0.155651 0.018119 1.044876
v -0.206569 0.000485 1.070526
v -0.210636 0.080245 1.059542
v -0.160421 0.078120 1.042282
v -0.191383 0.065262 0.879151
v -0.191829 0.101822 0.883868
v -0.221745 0.099178 0.887952
v -0.221646 0.065292 0.883264
v -0.228956 0.033524 1.074532
v -0.207540 0.085339 0.875560
v -0.180554 -0.016551 1.131804
v -0.205766 -0.013388 1.126303
v -0.211997 0.043823 1.133112
v -0.206569 0.000485 1.070526
v -0.210636 0.080245 1.059542
v -0.221745 0.099178 0.887952
v -0.221646 0.065292 0.883264
v -0.207540 0.085339 0.875560
v -0.054270 0.003968 1.545637
v -0.067073 -0.073277 1.540486
v -0.038898 -0.065221 1.719407
v -0.033873 0.093525 1.682123
v -0.015823 -0.025514 1.752903
v -0.060820 0.002930 1.571672
v 0.055660 0.004019 1.545634
v 0.072702 -0.073203 1.539789
v 0.034519 -0.074113 1.711341
v 0.062037 0.003059 1.571667
v -0.039488 0.085235 1.713770
v 0.036820 0.101540 1.713675
v 0.077687 -0.024972 1.616212
v -0.076335 -0.025075 1.616217
v -0.075444 -0.043589 1.682254
v 0.065069 0.006080 1.633094
v -0.063750 0.005977 1.633099
v 0.089163 -0.043692 1.678437
v 0.036789 0.092976 1.681351
v -0.013001 0.094991 1.569099
v -0.014974 0.085641 1.501882
v -0.052628 0.068545 1.579134
v 0.007912 0.097582 1.619383
v 0.014201 0.095020 1.569098
v 0.004835 0.116771 1.570565
v 0.016258 0.085714 1.501880
v 0.053813 0.068661 1.579130
v 0.058179 0.061215 1.611685
v 0.049696 0.082667 1.634934
v 0.000600 0.100726 1.639613
v -0.048553 0.082574 1.634937
v -0.006984 0.097582 1.619383
v -0.003623 0.116771 1.570565
v -0.056962 0.061100 1.611690
v 0.037357 0.075596 1.742679
v -0.038410 0.019788 1.735214
v -0.079199 -0.080355 1.646789
v 0.085042 -0.080241 1.649586
v -0.061599 0.003118 1.717898
v 0.067781 0.017212 1.714868
v -0.063551 0.050437 1.687307
v 0.069048 0.052204 1.682040
v -0.046528 -0.109680 1.604618
v 0.048032 -0.109571 1.605009
v 0.000779 -0.091385 1.522314
v -0.090502 0.002457 1.556434
v 0.096355 0.007745 1.555552
v 0.086527 -0.013245 1.586206
v -0.082983 -0.013378 1.585090
v -0.076865 -0.070234 1.593479
v 0.078595 -0.070166 1.593474
v -0.030667 0.046007 1.515354
v 0.031998 0.046069 1.515351
v -0.022920 0.091887 1.738795
v -0.004078 0.119801 1.577619
v 0.005132 0.119801 1.577619
v -0.053798 0.058666 1.667194
v 0.055916 0.058443 1.666806
v -0.012894 0.089146 1.611973
v 0.013951 0.089204 1.611972
v 0.000600 0.099960 1.566327
v -0.054270 0.003968 1.545637
v -0.067073 -0.073277 1.540486
v -0.038898 -0.065221 1.719407
v -0.015823 -0.025514 1.752903
v -0.046528 -0.109680 1.604618
v -0.054270 0.003968 1.545637
v -0.067073 -0.073277 1.540486
v -0.038898 -0.065221 1.719407
v -0.033873 0.093525 1.682123
v -0.015823 -0.025514 1.752903
v -0.060820 0.002930 1.571672
v 0.055660 0.004019 1.545634
v 0.072702 -0.073203 1.539789
v 0.034519 -0.074113 1.711341
v 0.062037 0.003059 1.571667
v -0.039488 0.085235 1.713770
v 0.036820 0.101540 1.713675
v 0.077687 -0.024972 1.616212
v -0.076335 -0.025075 1.616217
v -0.075444 -0.043589 1.682254
v 0.065069 0.006080 1.633094
v -0.063750 0.005977 1.633099
v 0.089163 -0.043692 1.678437
v 0.036789 0.092976 1.681351
v -0.013001 0.094991 1.569099
v -0.014974 0.085641 1.501882
v -0.052628 0.068545 1.579134
v 0.007912 0.097582 1.619383
v 0.014201 0.095020 1.569098
v 0.004835 0.116771 1.570565
v 0.016258 0.085714 1.501880
v 0.053813 0.068661 1.579130
v 0.058179 0.061215 1.611685
v 0.049696 0.082667 1.634934
v 0.000600 0.100726 1.639613
v -0.048553 0.082574 1.634937
v -0.006984 0.097582 1.619383
v -0.003623 0.116771 1.570565
v -0.056962 0.061100 1.611690
v 0.037357 0.075596 1.742679
v -0.038410 0.019788 1.735214
v -0.079199 -0.080355 1.646789
v 0.085042 -0.080241 1.649586
v -0.061599 0.003118 1.717898
v 0.067781 0.017212 1.714868
v -0.063551 0.050437 1.687307
v 0.069048 0.052204 1.682040
v -0.046528 -0.109680 1.604618
v 0.048032 -0.109571 1.605009
v 0.000779 -0.091385 1.522314
v -0.090502 0.002457 1.556434
v 0.096355 0.007745 1.555552
v 0.086527 -0.013245 1.586206
v -0.082983 -0.013378 1.585090
v -0.076865 -0.070234 1.593479
v 0.078595 -0.070166 1.593474
v -0.030667 0.046007 1.515354
v 0.031998 0.046069 1.515351
v -0.022920 0.091887 1.738795
v -0.004078 0.119801 1.577619
v 0.005132 0.119801 1.577619
v -0.053798 0.058666 1.667194
v 0.055916 0.058443 1.666806
v -0.012894 0.089146 1.611973
v 0.013951 0.089204 1.611972
v 0.000600 0.099960 1.566327
v -0.054270 0.003968 1.545637
v -0.067073 -0.073277 1.540486
v -0.038898 -0.065221 1.719407
v -0.015823 -0.025514 1.752903
v -0.046528 -0.109680 1.604618
v -0.209250 0.094948 0.877300
v -0.199950 0.093398 0.877300
v -0.199950 0.071698 0.877300
v -0.209250 0.071698 0.877300
v -0.220100 0.105604 0.837000
v -0.201500 0.103085 0.833900
v -0.201500 0.082935 0.833900
v -0.217000 0.082354 0.837000
v -0.229400 0.115291 0.818400
v -0.223200 -0.006413 0.786430
v -0.213900 -0.009984 0.783633
v -0.204600 -0.009041 0.789226
v 0.209250 -0.088748 0.877300
v 0.199950 -0.090298 0.877300
v 0.199950 -0.111998 0.877300
v 0.209250 -0.111998 0.877300
v 0.220100 -0.093204 0.837000
v 0.201500 -0.096885 0.833900
v 0.201500 -0.117035 0.833900
v 0.217000 -0.116454 0.837000
v 0.229400 -0.090491 0.818400
v 0.223200 0.000213 0.784300
v 0.213900 -0.002416 0.781200
v 0.204600 -0.003359 0.787400
vn 0.7851 0.3165 0.5324
vn 0.6086 0.7685 0.1975
vn -0.6363 0.7321 0.2432
vn -0.9497 0.2325 0.2098
vn -0.9860 0.1370 0.0950
vn -0.0000 0.0003 1.0000
vn 0.0282 -0.9994 0.0218
vn 0.9880 0.1373 0.0705
vn 0.5505 -0.8343 -0.0303
vn -0.4239 0.8936 0.1476
vn -0.9979 -0.0156 -0.0629
vn 0.0558 -0.9431 0.3279
vn 0.1284 0.9401 0.3158
vn -0.6991 -0.7147 0.0191
vn 0.2185 0.9742 0.0560
vn -0.5336 0.8385 -0.1103
vn -0.6500 -0.7600 0.0006
vn -0.9698 0.1582 0.1854
vn -0.7760 0.5895 0.2245
vn -0.0269 0.9624 0.2703
vn 0.7826 0.5898 0.1992
vn -0.9489 0.2704 0.1629
vn -0.0000 0.0002 1.0000
vn -0.7138 0.6666 0.2147
vn -0.4871 -0.8732 -0.0153
vn -0.8651 -0.5009 -0.0265
vn 0.4601 -0.8847 -0.0753
vn 0.8341 -0.5516 -0.0082
vn 0.9506 0.2857 0.1213
vn -0.9731 -0.2182 -0.0733
vn 0.5723 0.5791 0.5806
vn -0.5474 -0.8338 0.0713
vn -0.4371 -0.8966 -0.0708
vn 0.0353 -0.9988 -0.0343
vn -0.5131 -0.8576 -0.0347
vn 0.5929 -0.8023 -0.0691
vn 0.9655 0.2217 0.1368
vn 0.6739 0.6947 0.2517
vn -0.0678 0.9606 0.2694
vn 0.1205 -0.9739 0.1924
vn 0.2286 0.8998 0.3716
vn -0.0697 -0.9571 0.2813
vn -0.2751 0.9265 0.2567
vn 0.0124 0.9493 -0.3142
vn 0.5960 0.7757 -0.2074
vn 0.9377 -0.0518 -0.3435
vn -0.7036 0.5353 -0.4674
vn -0.8892 -0.2693 -0.3700
vn 0.7532 -0.3690 -0.5445
vn 0.2717 -0.9448 -0.1831
vn -0.2733 -0.9440 -0.1850
vn 0.0009 0.6641 0.7476
vn -0.0000 0.9490 0.3153
vn 0.0033 0.9500 0.3122
vn -0.0009 0.9859 0.1674
vn 0.1150 -0.9741 0.1946
vn -0.1166 -0.9727 0.2006
vn -0.0003 0.9685 -0.2492
vn -0.0005 -0.9917 -0.1286
vn -0.7351 -0.6389 -0.2270
vn 0.4310 -0.8617 -0.2678
vn -0.4660 -0.8845 0.0227
vn 0.4631 -0.8857 0.0321
vn 0.0054 -0.9919 0.1267
vn 0.7073 0.7060 -0.0361
vn 0.9095 0.4007 0.1110
vn 0.6897 0.6886 0.2241
vn 0.9928 0.0849 0.0849
vn 0.0053 -0.9921 -0.1251
vn -0.6866 0.7267 -0.0208
vn -0.9096 0.4059 0.0885
vn -0.5267 0.8121 0.2513
vn -0.9570 0.2608 0.1268
vn -0.0064 -0.9997 -0.0246
vn 0.0336 0.9878 0.1519
vn -0.9989 0.0421 -0.0195
vn 0.9954 0.0960 -0.0070
vn 0.6508 -0.7546 -0.0836
vn -0.6336 -0.7684 -0.0900
vn -0.5695 0.8216 0.0259
vn -0.4507 0.5337 0.7156
vn -0.9617 0.2611 -0.0839
vn -0.5851 0.8045 -0.1017
vn -0.9772 0.2117 -0.0189
vn 0.7144 -0.0150 0.6996
vn 0.9880 -0.0288 -0.1515
vn 0.9978 0.0107 -0.0661
vn 0.5428 0.3680 0.7550
vn 0.6960 0.7162 0.0507
vn -0.7131 0.1572 0.6833
vn 0.7397 0.6614 -0.1242
vn 0.0104 -0.6579 -0.7531
vn -0.0524 -0.4657 -0.8834
vn -0.5481 -0.6742 -0.4950
vn -0.4891 -0.2859 -0.8240
vn 0.7929 -0.1599 0.5879
vn 0.2833 -0.4110 -0.8665
vn 0.5994 -0.6731 -0.4332
vn -0.7521 -0.1777 0.6346
vn 0.9796 -0.0381 -0.1972
vn -0.5861 -0.6207 0.5208
vn -0.5772 -0.5608 -0.5936
vn 0.3504 -0.8022 0.4833
vn 0.4474 -0.6771 -0.5843
vn -0.7428 -0.2748 -0.6105
vn 0.6537 -0.3021 -0.6938
vn -0.8155 0.3048 0.4920
vn -0.6331 0.7728 -0.0432
vn 0.6527 0.7576 0.0053
vn 0.9590 0.2386 0.1529
vn 0.9841 0.1727 -0.0408
vn -0.0312 -0.9424 0.3329
vn -0.5439 -0.8028 0.2442
vn 0.9781 0.1983 0.0636
vn 0.9939 -0.0214 -0.1085
vn 0.5439 0.8174 0.1898
vn -0.3518 -0.9361 0.0016
vn 0.5750 0.7991 0.1757
vn 0.9760 0.1966 0.0932
vn -0.3747 -0.9171 0.1361
vn 0.9722 0.1748 0.1555
vn 0.7779 0.6274 -0.0343
vn 0.0209 0.9984 0.0520
vn -0.7639 0.6424 0.0616
vn -0.0219 -0.9598 0.2799
vn 0.9559 0.2761 0.0998
vn -0.9771 0.1979 0.0780
vn -0.7561 0.6518 0.0585
vn 0.0715 0.9972 -0.0201
vn 0.4841 -0.8293 0.2790
vn 0.7429 -0.6589 0.1182
vn -0.9662 0.2548 0.0402
vn -0.8096 -0.5723 0.1303
vn -0.9911 0.1257 0.0439
vn -0.4706 -0.8758 0.1074
vn -0.7745 -0.6225 0.1121
vn 0.5344 -0.7703 0.3480
vn 0.4634 -0.8816 0.0896
vn 0.5081 -0.8267 0.2418
vn -0.5869 -0.7890 0.1818
vn 0.7694 0.6382 0.0282
vn 0.9977 0.0587 -0.0329
vn -0.4306 -0.8467 0.3124
vn 0.0166 -0.8985 0.4387
vn -0.6969 0.6688 -0.2590
vn -0.9148 0.4034 -0.0205
vn -0.7012 0.7130 0.0040
vn -0.9933 0.0811 0.0826
vn 0.0266 -0.9761 0.2156
vn 0.6646 0.6945 -0.2755
vn 0.9158 0.3993 -0.0426
vn 0.5353 0.8446 -0.0123
vn 0.9646 0.2554 0.0663
vn 0.0316 -0.9522 0.3038
vn -0.0338 0.9879 -0.1511
vn 0.4681 -0.8315 0.2992
vn -0.9950 0.0967 -0.0235
vn -0.6203 -0.7680 0.1594
vn 0.6554 -0.7415 0.1439
vn 0.5640 0.8018 -0.1975
vn 0.4550 0.6242 0.6351
vn -0.3636 -0.4129 -0.8351
vn 0.9511 0.2597 -0.1671
vn 0.5595 0.7458 -0.3617
vn 0.5643 -0.2642 -0.7821
vn -0.7871 -0.0190 0.6165
vn -0.9984 0.0080 -0.0566
vn -0.5460 0.4527 0.7050
vn -0.6925 0.7097 -0.1293
vn 0.8006 0.1758 0.5729
vn 0.0168 -0.7865 -0.6173
vn -0.7179 0.6115 -0.3326
vn 0.0563 -0.4894 -0.8703
vn -0.9856 -0.0284 -0.1667
vn 0.5839 -0.7059 -0.4011
vn 0.9717 0.2110 -0.1065
vn -0.7052 -0.1354 0.6960
vn -0.5947 -0.7415 -0.3106
vn 0.6661 -0.1469 0.7312
vn -0.9770 -0.0372 -0.2100
vn 0.5808 -0.5478 0.6021
vn 0.5751 -0.6359 -0.5148
vn -0.3550 -0.7268 0.5880
vn -0.4281 -0.7600 -0.4890
vn 0.7635 -0.2937 -0.5752
vn -0.6764 -0.3111 -0.6676
vn 0.5298 0.7008 -0.4776
vn 0.9418 0.1649 -0.2930
vn -0.7724 -0.3533 -0.5278
vn -0.3120 0.7181 -0.6221
vn -0.9061 -0.0235 -0.4225
vn 0.7929 -0.3454 -0.5019
vn 0.8594 0.5072 0.0644
vn -0.8626 0.5018 0.0640
vn -0.5500 0.8254 0.1274
vn -0.5114 0.8058 -0.2986
vn 0.5400 0.8318 0.1285
vn 0.5262 0.7992 -0.2905
vn -0.8786 0.2992 -0.3722
vn 0.8983 0.3029 -0.3183
vn -0.6555 -0.7544 0.0348
vn 0.6568 -0.7532 0.0371
vn 0.0005 -0.9991 0.0416
vn -0.0010 0.9922 0.1246
vn 0.0028 0.9702 -0.2422
vn -0.0016 0.8750 -0.4841
vn -0.5511 -0.8180 -0.1646
vn 0.5502 -0.8192 -0.1618
vn 0.9313 -0.3627 0.0348
vn -0.9319 -0.3614 0.0310
vn -0.9635 -0.2056 0.1714
vn 0.9619 -0.2326 0.1439
vn 0.9707 -0.1946 0.1409
vn -0.9725 -0.1862 0.1402
vn 0.6307 -0.7484 0.2052
vn -0.6367 -0.7433 0.2053
vn 0.0010 -0.9984 0.0568
vn 0.3874 -0.9094 0.1514
vn -0.3875 -0.9092 0.1522
vn -0.3654 -0.8883 -0.2783
vn 0.3549 -0.8911 -0.2829
vn -0.9402 -0.3175 0.1236
vn 0.9338 -0.3360 0.1226
vn 0.0011 -0.9363 -0.3512
vn 0.0006 -0.9986 -0.0520
vn 0.8958 0.4062 0.1802
vn -0.9081 0.3786 0.1790
vn 0.5582 0.8231 0.1050
vn -0.5758 0.8107 0.1055
vn -0.0007 0.9990 -0.0440
vn 0.3350 0.7338 -0.5910
vn -0.3422 0.7345 -0.5860
vn -0.0944 -0.6336 -0.7679
vn 0.6867 -0.6139 -0.3893
vn -0.2822 -0.8371 -0.4687
vn 0.0916 -0.6408 -0.7622
vn -0.6854 -0.6131 -0.3929
vn 0.2826 -0.8363 -0.4698
vn 0.4641 0.8846 -0.0452
vn -0.4711 0.8809 -0.0443
vn 0.8459 0.4532 0.2811
vn -0.9488 -0.2839 0.1386
vn 0.2038 0.5704 -0.7957
vn -0.2023 0.5690 -0.7971
vn -0.1465 -0.5402 -0.8287
vn 0.9773 -0.1964 -0.0791
vn -0.5152 -0.8448 -0.1443
vn 0.1436 -0.5389 -0.8300
vn 0.4402 -0.8697 -0.2233
vn -0.9736 -0.2262 -0.0322
vn -0.2978 0.9362 -0.1867
vn 0.9361 0.3471 -0.0559
vn -0.9444 0.3192 -0.0784
vn 0.3579 0.9201 -0.1593
vn 0.9556 -0.2675 0.1235
vn 0.0782 0.0070 -0.9969
vn -0.8462 0.4420 0.2976
vn -0.0835 -0.0010 -0.9965
vn -0.0008 0.9552 -0.2960
vn 0.8553 -0.3248 -0.4037
vn -0.8592 -0.3231 -0.3968
vn 0.7711 -0.4879 -0.4091
vn 0.8680 0.0082 -0.4964
vn -0.0535 0.7655 -0.6412
vn -0.7691 -0.4889 -0.4118
vn 0.0108 -0.5093 -0.8605
vn -0.0006 -0.9742 -0.2256
vn 0.3392 0.7488 -0.5695
vn -0.3432 0.7538 -0.5603
vn 0.0557 0.7563 -0.6519
vn -0.8666 0.0038 -0.4990
vn -0.0046 0.1264 -0.9920
vn -0.1468 -0.4097 -0.9003
vn -0.4982 0.1198 -0.8587
vn -0.1629 -0.0473 -0.9855
vn 0.1423 -0.4080 -0.9018
vn 0.4864 0.1217 -0.8652
vn 0.1630 -0.0477 -0.9855
vn -0.8123 0.5700 -0.1237
vn -0.0257 0.9991 0.0341
vn 0.8341 0.5450 -0.0850
vn 0.7331 -0.6404 -0.2288
vn -0.9093 -0.3935 -0.1355
vn -0.7278 0.6305 0.2696
vn -0.0299 0.9706 0.2390
vn 0.3741 -0.9168 -0.1400
vn -0.7326 -0.6798 0.0342
vn 0.9917 -0.1008 -0.0799
vn 0.7206 -0.5472 -0.4259
vn 0.7148 0.5860 -0.3817
vn 0.5914 -0.0817 -0.8022
vn -0.0880 -0.9298 -0.3574
vn 0.3336 0.9391 -0.0826
vn -0.6397 -0.0637 -0.7660
vn -0.6090 -0.7895 0.0762
vn 0.8464 -0.5219 -0.1054
vn 0.2725 0.2095 0.9391
vn -0.7379 -0.6727 -0.0548
vn -0.9544 -0.2934 0.0552
vn -0.4656 0.8051 0.3676
vn 0.2623 0.9229 0.2818
vn 0.3334 -0.1856 0.9243
vn -0.1501 -0.1799 0.9722
vn 0.3065 0.1596 0.9384
vn 0.1684 0.3254 0.9305
vn -0.6270 0.7636 0.1541
vn -0.2330 -0.1417 0.9621
vn 0.3030 0.9528 -0.0170
vn 0.9812 0.1921 0.0178
vn -0.2322 -0.9725 0.0203
vn 0.0038 -0.9907 -0.1364
vn 0.5366 -0.6090 -0.5841
vn -0.0394 0.9668 -0.2523
vn 0.1753 -0.9755 -0.1327
vn 0.3489 -0.1529 0.9246
vn 0.7706 0.6299 0.0973
vn 0.3243 -0.9324 -0.1597
vn 0.2113 -0.4171 0.8840
vn -0.1467 -0.1784 0.9729
vn -0.3417 -0.0640 0.9376
vn -0.1232 0.2413 0.9626
vn 0.1958 0.3179 0.9277
vn 0.2697 0.9497 0.1592
vn 0.1631 0.3158 0.9347
vn 0.7285 -0.6461 -0.2276
vn 0.2121 -0.4252 0.8799
vn 0.2257 -0.9417 -0.2497
vn -0.7919 -0.6104 0.0168
vn 0.8529 0.5204 -0.0418
vn 0.3088 0.9467 0.0921
vn 0.1956 0.3343 0.9219
vn 0.2457 0.9641 0.1012
vn -0.1076 0.2635 0.9586
vn -0.9198 -0.3810 0.0944
vn 0.8639 0.4914 -0.1103
vn -0.2992 0.9240 -0.2381
vn -0.8442 0.4916 -0.2138
vn -0.7404 -0.6694 -0.0614
vn 0.9092 -0.3940 -0.1344
vn 0.7533 0.6577 0.0001
vn -0.9792 0.1918 -0.0662
vn 0.1969 -0.9202 0.3384
vn 0.7090 -0.6552 0.2610
vn -0.9961 -0.0838 -0.0277
vn -0.7186 -0.5734 -0.3935
vn -0.7188 0.5517 -0.4230
vn -0.5912 -0.0819 -0.8023
vn 0.0341 -0.9250 -0.3784
vn -0.1324 0.9822 -0.1330
vn 0.6383 -0.0634 -0.7672
vn 0.5140 -0.8531 0.0898
vn -0.7768 -0.6195 0.1130
vn -0.8339 0.5388 -0.1200
vn -0.2137 -0.9241 0.3167
vn 0.2937 0.1107 0.9495
vn 0.4827 -0.7908 0.3764
vn 0.4566 0.8771 -0.1490
vn -0.7717 0.5888 -0.2404
vn -0.8070 -0.5905 -0.0115
vn -0.2630 -0.9565 0.1259
vn 0.1086 0.3014 0.9473
vn 0.1866 0.1930 0.9633
vn 0.5942 -0.7774 0.2063
vn 0.3468 0.9379 -0.0091
vn 0.0367 0.9873 -0.1546
vn -0.3289 -0.9226 0.2015
vn -0.0141 -0.9824 0.1864
vn -0.6130 -0.6775 -0.4065
vn 0.0718 0.9611 -0.2668
vn -0.2665 -0.9632 0.0361
vn -0.3459 -0.1435 0.9272
vn -0.2855 0.2381 0.9283
vn -0.1813 -0.3658 0.9128
vn -0.1763 -0.3687 0.9127
vn -0.3016 -0.9334 0.1942
vn 0.9222 0.3860 0.0233
vn 0.1389 -0.2078 0.9683
vn -0.2694 0.9442 -0.1894
vn -0.1804 0.3448 0.9212
vn 0.1158 0.3082 0.9442
vn -0.3250 0.1628 0.9316
vn -0.3159 -0.1844 0.9307
vn -0.1748 -0.3743 0.9107
vn -0.1816 -0.3717 0.9104
vn -0.2439 -0.9609 0.1312
vn 0.5231 0.8406 -0.1406
vn -0.1862 0.3552 0.9160
vn -0.3013 0.9204 -0.2490
vn 0.8389 0.5436 0.0282
vn 0.1089 -0.2319 0.9666
vn 0.7213 0.6925 -0.0115
vn 0.0236 0.9948 -0.0989
vn 0.0463 -0.9989 0.0041
vn 0.7104 -0.6990 0.0822
vn 0.8086 0.5869 0.0423
vn 0.1414 0.9882 -0.0589
vn 0.1527 -0.9871 0.0479
vn 0.7012 -0.6965 0.1525
vn 0.5096 0.6149 0.6017
vn 0.5097 -0.6069 0.6098
vn -0.0816 -0.8594 0.5048
vn -0.1003 0.9178 0.3841
vn -0.9935 0.0700 -0.0894
vn 0.0570 -0.0828 0.9949
vn 0.0649 0.9977 -0.0199
vn -0.9574 0.2198 -0.1875
vn -0.9852 0.0078 -0.1715
vn -0.8321 0.5487 -0.0806
vn -0.9158 -0.4013 0.0191
vn -0.9604 -0.0734 0.2688
vn -0.9336 0.0116 0.3582
vn -0.5657 -0.1059 0.8178
vn -0.7211 0.6365 0.2737
vn -0.0139 0.9530 0.3025
vn -0.0547 -0.9320 -0.3584
vn -0.7173 -0.6690 -0.1948
vn -0.7990 0.5531 0.2358
vn -0.1354 0.9450 0.2978
vn -0.1449 -0.9410 -0.3057
vn -0.7137 -0.6942 -0.0935
vn -0.5240 0.4819 0.7023
vn -0.5019 -0.7239 0.4733
vn 0.0945 -0.9709 0.2202
vn 0.0851 0.7796 0.6205
vn 0.9945 0.0826 -0.0639
vn 0.5911 -0.1088 0.7992
vn -0.0558 0.9234 0.3798
vn 0.9752 0.2015 -0.0915
vn 0.9804 0.0103 -0.1968
vn 0.8284 0.5464 0.1233
vn 0.9086 -0.3974 -0.1282
vn 0.9444 -0.0869 0.3171
vn 0.9549 0.0110 0.2967
vn -0.0528 -0.1618 0.9854
vn 0.0606 0.1298 0.9897
vn 0.3363 0.4086 0.8485
vn 0.6985 0.3530 -0.6225
vn 0.4993 -0.8662 -0.0191
vn -0.2692 0.3112 -0.9114
vn 0.7709 -0.6339 -0.0616
vn -0.4509 -0.2476 0.8575
vn -0.6393 0.4093 0.6510
vn -0.2998 0.6933 -0.6553
vn -0.7382 -0.6675 -0.0975
vn 0.7793 -0.5548 -0.2914
vn -0.4620 -0.8653 -0.1943
vn -0.9655 -0.2579 -0.0353
vn 0.9694 -0.2311 -0.0829
vn 0.9386 0.1108 -0.3268
vn -0.9555 -0.2707 0.1169
vn 0.9718 -0.2339 0.0311
vn -0.9361 0.1252 -0.3287
vn -0.4860 -0.8663 0.1156
vn 0.6378 -0.7551 0.1520
vn 0.3851 -0.4827 0.7865
vn 0.8345 -0.5399 0.1102
vn -0.3835 -0.9235 -0.0116
vn -0.6444 -0.7500 0.1494
vn -0.4147 -0.5949 0.6886
vn -0.3841 -0.4843 0.7860
vn -0.8337 -0.5413 0.1093
vn -0.9034 -0.4281 0.0261
vn -0.7300 -0.6670 0.1492
vn -0.0004 -0.9998 0.0216
vn 0.7345 -0.6640 0.1400
vn 0.3874 -0.9219 -0.0107
vn 0.4102 -0.5645 0.7163
vn 0.9041 -0.4264 0.0262
vn -0.5031 -0.3433 -0.7931
vn 0.6281 -0.0674 -0.7752
vn 0.8315 0.5193 -0.1973
vn -0.8222 0.5476 -0.1556
vn 0.8025 -0.0119 -0.5966
vn -0.7897 -0.0264 -0.6129
vn 0.9383 -0.3382 -0.0717
vn -0.9116 -0.4060 0.0650
vn 0.0870 0.9962 0.0017
vn -0.3420 0.9397 0.0068
vn 0.0071 0.5362 0.8441
vn 0.7590 -0.5910 0.2734
vn -0.7205 -0.6473 0.2489
vn -0.7865 -0.4261 -0.4471
vn 0.8096 -0.4422 -0.3860
vn 0.9309 0.3583 0.0707
vn -0.9303 0.3621 0.0586
vn 0.5403 0.1945 0.8187
vn -0.5411 0.1933 0.8184
vn 0.3881 -0.6369 -0.6661
vn 0.5074 -0.8614 -0.0237
vn -0.5046 -0.8629 -0.0276
vn 0.9160 -0.3901 0.0936
vn -0.8739 -0.4313 0.2242
vn 0.6512 -0.7443 0.1482
vn -0.6465 -0.7489 0.1455
vn 0.0359 -0.7245 0.6883
vn 0.7054 -0.4441 0.5524
vn 0.8782 0.3370 0.3395
vn 0.0218 0.8328 -0.5531
vn 0.7099 0.0807 -0.6997
vn 0.6803 0.7329 -0.0019
vn -0.6232 0.7108 0.3262
vn 0.8110 0.5764 0.1001
vn 0.6438 -0.7345 -0.2146
vn -0.5875 -0.8056 -0.0761
vn -0.7343 0.4640 0.4955
vn 0.7383 0.6704 0.0736
vn 0.4531 -0.2862 -0.8443
vn -0.6623 -0.4384 -0.6075
vn -0.8608 -0.1194 0.4948
vn -0.2538 0.3449 -0.9037
vn -0.4732 -0.8685 0.1476
vn -0.2871 -0.7444 0.6029
vn 0.5575 0.8296 0.0305
vn -0.7350 0.6661 -0.1269
vn -0.7377 -0.6733 0.0505
vn 0.6454 -0.7282 0.2307
vn 0.5186 0.8393 0.1630
vn -0.7310 0.3358 -0.5941
vn -0.8339 -0.5513 0.0253
vn 0.6529 -0.7150 0.2502
vn -0.5607 -0.2668 -0.7839
vn -0.4548 0.0436 0.8895
vn -0.1074 -0.6879 0.7178
vn 0.1864 -0.9737 0.1314
vt 0.612984 0.418955
vt 0.662581 0.418891
vt 0.627144 0.347229
vt 0.665647 0.373324
vt 0.655314 0.339074
vt 0.568677 0.430628
vt 0.538134 0.430615
vt 0.548662 0.546760
vt 0.916714 0.418934
vt 0.879111 0.430561
vt 0.860506 0.418973
vt 0.959321 0.418969
vt 0.939909 0.430561
vt 0.955812 0.373406
vt 0.914670 0.360129
vt 0.914764 0.316079
vt 0.954525 0.313468
vt 0.870560 0.313452
vt 0.864045 0.358721
vt 0.528253 0.430537
vt 0.530399 0.545348
vt 0.534139 0.418895
vt 0.589915 0.345459
vt 0.537678 0.358638
vt 0.544195 0.313363
vt 0.957084 0.339159
vt 0.585227 0.307645
vt 0.577039 0.235822
vt 0.597039 0.092684
vt 0.559134 0.092654
vt 0.864867 0.092767
vt 0.911498 0.092754
vt 0.627238 0.307581
vt 0.652754 0.313379
vt 0.637179 0.235286
vt 0.640722 0.092655
vt 0.610021 0.092686
vt 0.949031 0.092767
vt 0.604883 0.234351
vt 0.915265 0.302930
vt 0.640585 0.080161
vt 0.614739 0.046470
vt 0.610300 0.080192
vt 0.657984 0.049510
vt 0.867262 0.070146
vt 0.962423 0.052206
vt 0.910950 0.080262
vt 0.561529 0.070031
vt 0.589799 0.046468
vt 0.558043 0.053288
vt 0.596916 0.080190
vt 0.559270 0.080161
vt 0.613352 0.028149
vt 0.594001 0.028145
vt 0.658090 -0.001970
vt 0.555148 -0.001970
vt 0.925656 0.026545
vt 0.962529 -0.001850
vt 0.953915 0.045479
vt 0.872593 0.047739
vt 0.863776 0.055983
vt 0.891340 0.027280
vt 0.926114 0.014557
vt 0.892611 0.014548
vt 0.860881 -0.001850
vt 0.865003 0.080275
vt 0.948895 0.080275
vt 0.616060 0.572222
vt 0.662218 0.595414
vt 0.671480 0.430533
vt 0.577969 0.557845
vt 0.625964 0.430609
vt 0.571111 0.418970
vt 0.543580 0.418961
vt 0.929999 0.592943
vt 0.869913 0.564374
vt 0.854620 0.430615
vt 0.849723 0.543989
vt 0.962277 0.595472
vt 0.929725 0.604297
vt 0.523355 0.543925
vt 0.388526 0.373521
vt 0.385476 0.418890
vt 0.429114 0.347211
vt 0.400739 0.313381
vt 0.398522 0.339173
vt 0.465286 0.345441
vt 0.476444 0.418969
vt 0.789620 0.418933
vt 0.735399 0.418967
vt 0.792207 0.360164
vt 0.828097 0.313452
vt 0.834131 0.358722
vt 0.503322 0.418960
vt 0.511428 0.418894
vt 0.837798 0.418971
vt 0.792209 0.316104
vt 0.744368 0.339259
vt 0.746585 0.313470
vt 0.501726 0.313363
vt 0.507762 0.358638
vt 0.766389 0.430560
vt 0.819033 0.430560
vt 0.517494 0.430536
vt 0.734374 0.373603
vt 0.469270 0.307690
vt 0.476540 0.236025
vt 0.487922 0.092729
vt 0.458011 0.092758
vt 0.844596 0.092841
vt 0.795902 0.092828
vt 0.428346 0.307627
vt 0.416931 0.235497
vt 0.445032 0.092760
vt 0.402751 0.092729
vt 0.750763 0.092841
vt 0.448942 0.234659
vt 0.791696 0.302867
vt 0.842070 0.070174
vt 0.735327 0.052169
vt 0.845577 0.055947
vt 0.441125 0.028250
vt 0.465141 0.046584
vt 0.461616 0.028245
vt 0.440199 0.046585
vt 0.402749 0.080253
vt 0.444735 0.080284
vt 0.796412 0.080355
vt 0.458117 0.080282
vt 0.487639 0.080253
vt 0.485396 0.070059
vt 0.385055 -0.001870
vt 0.385379 0.049474
vt 0.491798 -0.001870
vt 0.488903 0.053251
vt 0.743612 0.045443
vt 0.733713 -0.001750
vt 0.781116 0.026509
vt 0.780658 0.014657
vt 0.813501 0.027243
vt 0.812230 0.014648
vt 0.848472 -0.001750
vt 0.836962 0.047702
vt 0.750760 0.080367
vt 0.844313 0.080367
vt 0.375026 0.430532
vt 0.380399 0.595437
vt 0.431150 0.572096
vt 0.428985 0.430608
vt 0.469446 0.557566
vt 0.497505 0.546476
vt 0.478415 0.430628
vt 0.508658 0.430614
vt 0.516329 0.545370
vt 0.770895 0.593038
vt 0.829041 0.563569
vt 0.770162 0.604303
vt 0.843862 0.430613
vt 0.740233 0.595496
vt 0.725866 0.430609
vt 0.522715 0.634612
vt 0.463768 0.672734
vt 0.523595 0.672743
vt 0.523421 0.582664
vt 0.588270 0.634610
vt 0.583167 0.579931
vt 0.457246 0.634604
vt 0.523373 0.553724
vt 0.552167 0.566238
vt 0.493537 0.566245
vt 0.430728 0.647136
vt 0.420525 0.674671
vt 0.428465 0.588482
vt 0.463668 0.579925
vt 0.583421 0.672738
vt 0.616905 0.647376
vt 0.625918 0.674675
vt 0.665808 0.675914
vt 0.666121 0.649427
vt 0.617877 0.588427
vt 0.812309 0.604288
vt 0.371454 0.649421
vt 0.926847 0.649480
vt 0.896010 0.646806
vt 0.849886 0.675949
vt 0.804415 0.646807
vt 0.773536 0.649474
vt 0.919430 0.675964
vt 0.371156 0.675924
vt 0.785499 0.675974
vt 0.887585 0.604285
vt 0.574635 0.694588
vt 0.600799 0.738293
vt 0.656965 0.735651
vt 0.471468 0.694757
vt 0.395663 0.736009
vt 0.450221 0.738502
vt 0.414749 0.693310
vt 0.634839 0.693213
vt 0.523051 0.694679
vt 0.523679 0.738404
vt 0.917428 0.731707
vt 0.957136 0.735694
vt 0.749182 0.736052
vt 0.787395 0.731707
vt 0.849833 0.730827
vt 0.948266 0.693261
vt 0.758133 0.693358
vt 0.725353 0.816042
vt 0.978649 0.816042
vt 0.783643 0.773763
vt 0.928944 0.773763
vt 0.849846 0.776050
vt 0.391820 0.816008
vt 0.425045 0.844844
vt 0.659137 0.816007
vt 0.623435 0.844844
vt 0.523612 0.849424
vt 0.850095 0.824518
vt 0.831141 0.906484
vt 0.788373 0.826157
vt 0.783682 0.930154
vt 0.725088 0.930460
vt 0.791286 0.801075
vt 0.756163 0.821093
vt 0.869345 0.906471
vt 0.956831 0.870698
vt 0.954634 0.904585
vt 0.916998 0.930088
vt 0.976262 0.930449
vt 0.916975 0.826157
vt 0.913536 0.801075
vt 0.955946 0.821093
vt 0.849832 0.802716
vt 0.749455 0.870619
vt 0.978205 0.857800
vt 0.395413 0.857787
vt 0.416182 0.871144
vt 0.640099 0.871196
vt 0.524220 0.934873
vt 0.639992 0.926015
vt 0.414971 0.926097
vt 0.487311 0.930131
vt 0.746707 0.904600
vt 0.404658 0.950436
vt 0.560633 0.930066
vt 0.892953 0.985724
vt 0.850481 0.978958
vt 0.784123 0.995969
vt 0.808009 0.985724
vt 0.540686 0.995771
vt 0.507753 0.995953
vt 0.917052 0.995786
vt 0.850020 0.998932
vt 0.523652 0.998917
vt 0.727361 0.857818
vt 0.649346 0.950424
vt 0.656462 0.857769
vt 0.070412 0.178660
vt 0.035222 0.188443
vt 0.041721 0.254019
vt 0.079135 0.253749
vt 0.115906 0.180199
vt 0.126310 0.239153
vt 0.134643 0.196075
vt 0.147879 0.238532
vt 0.101043 0.052193
vt 0.119696 0.053283
vt 0.072550 0.056211
vt 0.053254 0.057269
vt 0.262276 0.198032
vt 0.298550 0.196075
vt 0.301786 0.238532
vt 0.235628 0.244019
vt 0.219129 0.188442
vt 0.227161 0.057269
vt 0.273603 0.053283
vt 0.086192 0.048612
vt 0.250099 0.048612
vt 0.045021 0.286113
vt 0.051287 0.352815
vt 0.079924 0.264552
vt 0.140210 0.357773
vt 0.164677 0.357732
vt 0.133774 0.352839
vt 0.127591 0.257959
vt 0.156862 0.352803
vt 0.327034 0.407371
vt 0.292486 0.407393
vt 0.295612 0.357685
vt 0.244663 0.352771
vt 0.228928 0.286113
vt 0.237573 0.254550
vt 0.240941 0.409920
vt 0.239195 0.357691
vt 0.303021 0.259031
vt 0.292409 0.352768
vt 0.047890 0.414934
vt 0.075613 0.418487
vt 0.074303 0.357773
vt 0.043666 0.264550
vt 0.292259 0.446408
vt 0.163581 0.449774
vt 0.106883 0.468489
vt 0.166174 0.483130
vt 0.138333 0.418578
vt 0.163127 0.407371
vt 0.269282 0.466742
vt 0.297989 0.494859
vt 0.249286 0.445995
vt 0.275277 0.498896
vt 0.217670 0.479018
vt 0.221846 0.448621
vt 0.249609 0.500931
vt 0.047938 0.448621
vt 0.080429 0.352839
vt 0.043763 0.479018
vt 0.103686 0.425038
vt 0.327488 0.449774
vt 0.221797 0.414933
vt 0.218611 0.357750
vt 0.139484 0.244329
vt 0.149114 0.259031
vt 0.070860 0.861110
vt 0.043482 0.785701
vt 0.035600 0.851230
vt 0.080951 0.786078
vt 0.116355 0.859511
vt 0.126622 0.800610
vt 0.135010 0.843512
vt 0.148146 0.801134
vt 0.101636 0.987538
vt 0.120259 0.986388
vt 0.073138 0.983555
vt 0.053813 0.982435
vt 0.262614 0.841548
vt 0.302054 0.801134
vt 0.298918 0.843512
vt 0.237389 0.795701
vt 0.219507 0.851230
vt 0.227720 0.982435
vt 0.274167 0.986388
vt 0.250297 0.991101
vt 0.086390 0.991101
vt 0.051450 0.687512
vt 0.081668 0.775128
vt 0.081344 0.687536
vt 0.074882 0.681966
vt 0.044841 0.681943
vt 0.138420 0.621138
vt 0.140788 0.681966
vt 0.163201 0.632257
vt 0.150814 0.780504
vt 0.157748 0.687500
vt 0.129341 0.781679
vt 0.296129 0.681878
vt 0.329136 0.681925
vt 0.293274 0.687465
vt 0.239264 0.785028
vt 0.245527 0.687467
vt 0.239715 0.681885
vt 0.225357 0.687511
vt 0.229178 0.753608
vt 0.045271 0.753608
vt 0.045357 0.775028
vt 0.221833 0.591159
vt 0.249240 0.593626
vt 0.240979 0.629713
vt 0.163562 0.589914
vt 0.106982 0.571710
vt 0.047926 0.591159
vt 0.075703 0.621300
vt 0.327108 0.632257
vt 0.292206 0.593154
vt 0.327469 0.589914
vt 0.292517 0.632160
vt 0.269227 0.572864
vt 0.134691 0.687536
vt 0.103782 0.614733
vt 0.044439 0.561847
vt 0.249614 0.538752
vt 0.275354 0.540757
vt 0.047967 0.624837
vt 0.297992 0.544755
vt 0.320258 0.556100
vt 0.218748 0.681943
vt 0.221875 0.624836
vt 0.304721 0.780504
vt 0.140491 0.795329
vt 0.166351 0.556100
vt 0.218346 0.561847
vt 0.320081 0.483130
vt 0.968219 0.430610
vt 0.440325 0.418954
vt 0.225195 0.352815
vt 0.320769 0.352803
vt 0.044703 0.357750
vt 0.165229 0.681925
vt 0.321655 0.687500
vt 0.328584 0.357732
vt 0.885065 0.576428
vt 0.848378 0.717557
vt 0.924389 0.860057
vt 0.663106 0.745258
vt 0.770361 0.860188
vt 0.243809 0.290626
vt 0.247549 0.189457
vt 0.255578 0.228157
vt 0.127474 0.369075
vt 0.215767 0.345663
vt 0.119383 0.159975
vt 0.001085 0.090787
vt 0.716677 0.928877
vt 0.582116 0.851091
vt 0.062195 0.827535
vt -0.075611 0.860057
vt -0.067589 0.993679
vt 0.166292 0.701863
vt 0.122872 0.586485
vt 0.876306 0.369879
vt 0.758812 0.232082
vt 0.789827 0.342169
vt 0.761528 0.291258
vt 0.757564 0.530525
vt 0.815743 0.462233
vt 0.247857 0.529862
vt 0.188349 0.461441
vt 0.443993 0.851737
vt 0.422121 0.962343
vt 0.549111 0.948944
vt 0.342823 0.724246
vt 0.269683 0.848956
vt 0.617215 0.325904
vt 0.535061 0.026625
vt 0.528766 0.288937
vt 0.497773 0.324131
vt 0.480302 0.288797
vt 0.491517 0.484691
vt 0.391391 0.325356
vt 0.474470 0.026464
vt 0.478819 0.455101
vt 0.411507 0.543693
vt 0.373612 0.451352
vt 0.504349 0.563706
vt 0.504477 0.278512
vt 0.439226 0.725239
vt 0.565973 0.728649
vt 0.596928 0.544199
vt 0.498087 0.296425
vt 0.517818 0.484767
vt 0.510712 0.324178
vt 0.510279 0.296468
vt 0.634655 0.451944
vt 0.530642 0.455240
vt -0.242281 0.190022
vt -0.111483 0.163390
vt 0.062829 0.410716
vt -0.059536 0.409665
vt 0.609053 0.075702
vt 0.757719 0.190022
vt 0.401610 0.075380
vt 0.636072 0.667663
vt 0.370326 0.665576
vt 0.932411 0.993679
vt 0.940464 0.409665
vt 0.888517 0.163390
vt 0.200000 0.400000
vt 0.250000 0.400000
vt 0.250000 0.300000
vt 0.200000 0.300000
vt 0.250000 0.350000
vt 0.250000 0.250000
vt 0.200000 0.350000
vt 0.200000 0.250000
vt 0.180000 0.220000
vt 0.200000 0.150000
vt 0.230000 0.150000
vt 0.260000 0.150000
s 1
usemtl npc_maya_mat.001
f 26/1/24 24/2/22 3/3/3
f 4/4/4 18/5/18 3/3/3
f 20/6/20 21/7/21 56/8/41
f 23/9/6 6/10/6 25/11/23
f 23/9/6 46/12/23 22/13/6
f 29/14/25 47/12/35 7/15/7
f 79/16/64 77/17/62 7/15/7
f 78/18/63 7/15/7 9/19/9
f 79/16/64 7/15/7 78/18/63
f 45/9/34 49/11/36 7/15/7
f 8/20/8 1/21/1 21/7/21
f 50/22/37 2/23/2 37/24/29
f 37/24/29 2/23/2 92/25/77
f 77/17/62 40/26/32 7/15/7
f 80/27/65 81/28/66 92/25/77
f 81/28/66 82/29/67 83/30/68
f 92/25/77 81/28/66 83/30/68
f 93/31/78 84/32/69 78/18/63
f 85/33/70 91/34/76 86/35/71
f 86/35/71 88/36/73 87/37/72
f 91/34/76 88/36/73 86/35/71
f 94/38/79 77/17/62 84/32/69
f 90/39/75 85/33/70 86/35/71
f 85/33/70 90/39/75 80/27/65
f 87/37/72 90/39/75 86/35/71
f 82/29/67 90/39/75 87/37/72
f 84/32/69 77/17/62 89/40/74
f 78/18/63 84/32/69 89/40/74
f 81/28/66 80/27/65 90/39/75
f 82/29/67 81/28/66 90/39/75
f 97/41/82 95/42/80 98/43/83
f 99/44/84 95/42/80 97/41/82
f 108/45/93 110/46/95 107/47/92
f 115/48/100 104/49/89 101/50/86
f 106/51/91 104/49/89 102/52/87
f 96/53/81 103/54/88 104/49/89
f 104/49/89 95/42/80 96/53/81
f 98/43/83 95/42/80 104/49/89
f 105/55/90 95/42/80 99/44/84
f 105/55/90 100/56/85 103/54/88
f 100/56/85 101/50/86 104/49/89
f 105/55/90 96/53/81 95/42/80
f 103/54/88 96/53/81 105/55/90
f 104/49/89 103/54/88 100/56/85
f 117/57/102 114/58/99 120/59/105
f 121/60/106 120/59/105 112/61/97
f 121/60/106 117/57/102 120/59/105
f 119/62/104 116/63/101 117/57/102
f 118/64/103 116/63/101 119/62/104
f 111/65/96 118/64/103 119/62/104
f 121/60/106 111/65/96 119/62/104
f 116/63/101 118/64/103 111/65/96
f 120/59/105 114/58/99 110/46/95
f 116/63/101 111/65/96 114/58/99
f 98/43/83 104/49/89 106/51/91
f 108/45/93 107/47/92 113/66/98
f 116/63/101 114/58/99 117/57/102
f 120/59/105 110/46/95 112/61/97
f 119/62/104 117/57/102 121/60/106
f 112/61/97 111/65/96 121/60/106
f 113/66/98 84/32/69 93/31/78
f 113/66/98 107/47/92 84/32/69
f 102/52/87 83/30/68 82/29/67
f 106/51/91 102/52/87 82/29/67
f 109/67/94 94/38/79 84/32/69
f 107/47/92 109/67/94 84/32/69
f 87/37/72 88/36/73 97/41/82
f 98/43/83 87/37/72 97/41/82
f 82/29/67 87/37/72 98/43/83
f 106/51/91 82/29/67 98/43/83
f 89/40/74 79/16/64 78/18/63
f 89/40/74 77/17/62 79/16/64
f 92/25/77 2/23/2 80/27/65
f 85/33/70 3/3/3 91/34/76
f 2/23/2 3/3/3 85/33/70
f 80/27/65 2/23/2 85/33/70
f 10/68/10 11/69/11 5/70/5
f 48/2/6 52/1/6 30/70/6
f 13/71/13 19/72/19 20/6/20
f 42/6/6 28/73/6 27/74/6
f 33/10/27 44/13/33 17/75/17
f 55/76/40 34/77/28 33/10/27
f 12/78/12 34/77/28 55/76/40
f 10/68/10 19/72/19 13/71/13
f 38/79/30 14/80/14 17/75/17
f 17/75/17 55/76/40 33/10/27
f 39/81/31 1/21/1 8/20/8
f 125/82/110 144/83/126 124/84/109
f 174/85/142 138/86/121 124/84/109
f 123/87/108 124/84/109 148/88/129
f 143/89/125 165/90/139 127/91/112
f 175/92/143 128/93/113 127/91/112
f 147/94/128 145/95/127 123/87/108
f 128/93/113 168/96/140 127/91/112
f 175/92/143 127/91/112 176/97/144
f 159/98/137 188/99/156 127/91/112
f 189/100/157 123/87/108 153/101/132
f 166/90/23 164/89/23 142/102/23
f 130/103/23 164/89/23 169/96/23
f 129/104/23 170/95/23 172/94/23
f 149/105/130 159/98/137 127/91/112
f 177/106/145 189/100/157 178/107/146
f 178/107/146 180/108/148 179/109/147
f 189/100/157 180/108/148 178/107/146
f 190/110/158 175/92/143 181/111/149
f 182/112/150 183/113/151 174/85/142
f 183/113/151 184/114/152 185/115/153
f 174/85/142 183/113/151 185/115/153
f 191/116/159 181/111/149 188/99/156
f 187/117/155 183/113/151 182/112/150
f 182/112/150 177/106/145 187/117/155
f 184/114/152 183/113/151 187/117/155
f 179/109/147 184/114/152 187/117/155
f 181/111/149 186/118/154 188/99/156
f 175/92/143 186/118/154 181/111/149
f 178/107/146 187/117/155 177/106/145
f 179/109/147 187/117/155 178/107/146
f 205/119/173 197/120/165 194/121/162
f 193/122/161 201/123/169 200/124/168
f 201/123/169 193/122/161 192/125/160
f 195/126/163 196/127/164 192/125/160
f 196/127/164 201/123/169 192/125/160
f 197/120/165 205/119/173 203/128/171
f 196/127/164 204/129/172 201/123/169
f 201/123/169 199/130/167 212/131/180
f 202/132/170 208/133/176 192/125/160
f 202/132/170 200/124/168 198/134/166
f 198/134/166 200/124/168 201/123/169
f 202/132/170 192/125/160 193/122/161
f 200/124/168 202/132/170 193/122/161
f 201/123/169 206/135/174 198/134/166
f 217/136/185 194/121/162 197/120/165
f 211/137/179 214/138/182 217/136/185
f 213/139/181 216/140/184 214/138/182
f 216/140/184 213/139/181 215/141/183
f 209/142/177 216/140/184 215/141/183
f 218/143/186 209/142/177 194/121/162
f 216/140/184 218/143/186 214/138/182
f 209/142/177 215/141/183 213/139/181
f 213/139/181 214/138/182 211/137/179
f 213/139/181 211/137/179 209/142/177
f 197/120/165 203/128/171 207/144/175
f 204/129/172 199/130/167 201/123/169
f 214/138/182 218/143/186 217/136/185
f 211/137/179 217/136/185 197/120/165
f 216/140/184 209/142/177 218/143/186
f 218/143/186 194/121/162 217/136/185
f 195/126/163 184/114/152 196/127/164
f 195/126/163 185/115/153 184/114/152
f 181/111/149 191/116/159 207/144/175
f 203/128/171 181/111/149 207/144/175
f 210/145/178 181/111/149 203/128/171
f 210/145/178 190/110/158 181/111/149
f 179/109/147 180/108/148 199/130/167
f 204/129/172 179/109/147 199/130/167
f 196/127/164 179/109/147 204/129/172
f 196/127/164 184/114/152 179/109/147
f 186/118/154 176/97/144 188/99/156
f 186/118/154 175/92/143 176/97/144
f 174/85/142 124/84/109 182/112/150
f 177/106/145 123/87/108 189/100/157
f 124/84/109 123/87/108 177/106/145
f 182/112/150 124/84/109 177/106/145
f 126/146/111 132/147/115 131/148/114
f 139/149/122 126/146/111 131/148/114
f 133/150/116 58/151/43 140/152/123
f 141/153/124 58/151/43 122/154/107
f 137/155/120 57/156/42 134/157/117
f 57/156/42 157/103/135 154/158/133
f 57/156/42 154/158/133 12/78/12
f 139/149/122 133/150/116 140/152/123
f 158/159/136 150/160/131 137/155/120
f 57/156/42 137/155/120 157/103/135
f 39/81/31 155/104/134 122/154/107
f 73/161/58 219/162/187 238/163/206
f 70/164/55 59/165/44 15/166/15
f 73/161/58 70/164/55 60/167/45
f 67/168/52 70/164/55 68/169/53
f 70/164/55 67/168/52 69/170/54
f 61/171/46 220/172/188 219/162/187
f 60/167/45 61/171/46 219/162/187
f 61/171/46 60/167/45 136/173/119
f 136/173/119 60/167/45 135/174/118
f 59/165/44 73/161/58 222/175/190
f 62/176/47 222/175/190 223/177/191
f 59/165/44 222/175/190 62/176/47
f 221/178/189 63/179/48 223/177/191
f 62/176/47 16/180/16 59/165/44
f 16/180/16 15/166/15 59/165/44
f 57/156/42 55/76/40 71/181/56
f 61/171/46 64/182/49 220/172/188
f 132/147/115 64/182/49 61/171/46
f 132/147/115 61/171/46 136/173/119
f 38/79/30 75/183/60 14/80/14
f 66/184/51 74/185/59 65/186/50
f 63/179/48 62/176/47 223/177/191
f 11/69/11 16/180/16 62/176/47
f 66/184/51 65/186/50 71/181/56
f 134/157/117 65/186/50 76/187/61
f 75/183/60 239/188/207 66/184/51
f 11/69/11 62/176/47 63/179/48
f 64/182/49 224/189/192 220/172/188
f 134/157/117 76/187/61 158/159/136
f 239/188/207 74/185/59 66/184/51
f 75/183/60 66/184/51 14/80/14
f 71/181/56 65/186/50 134/157/117
f 65/186/50 240/190/208 76/187/61
f 67/168/52 39/81/31 122/154/107
f 57/156/42 12/78/12 55/76/40
f 122/154/107 58/151/43 67/168/52
f 1/21/1 39/81/31 67/168/52
f 14/80/14 72/191/57 55/76/40
f 67/168/52 68/169/53 56/8/41
f 69/170/54 135/174/118 70/164/55
f 135/174/118 60/167/45 70/164/55
f 15/166/15 68/169/53 70/164/55
f 136/173/119 131/148/114 132/147/115
f 136/173/119 135/174/118 131/148/114
f 135/174/118 133/150/116 131/148/114
f 135/174/118 69/170/54 133/150/116
f 69/170/54 58/151/43 133/150/116
f 67/168/52 58/151/43 69/170/54
f 67/168/52 56/8/41 1/21/1
f 68/169/53 13/71/13 56/8/41
f 15/166/15 13/71/13 68/169/53
f 15/166/15 16/180/16 10/68/10
f 15/166/15 10/68/10 13/71/13
f 10/68/10 16/180/16 11/69/11
f 228/192/196 227/193/195 226/194/194
f 230/195/198 225/196/193 229/197/197
f 225/196/193 230/195/198 232/198/200
f 226/194/194 231/199/199 228/192/196
f 228/192/196 237/200/205 236/201/204
f 230/195/198 229/197/197 236/201/204
f 233/202/201 239/188/207 242/203/210
f 241/204/209 240/190/208 234/205/202
f 239/188/207 233/202/201 235/206/203
f 240/190/208 74/185/59 235/206/203
f 239/188/207 243/207/211 242/203/210
f 240/190/208 241/204/209 244/208/212
f 224/189/192 232/198/200 220/172/188
f 230/195/198 219/162/187 220/172/188
f 232/198/200 230/195/198 220/172/188
f 223/177/191 231/199/199 221/178/189
f 222/175/190 228/192/196 223/177/191
f 228/192/196 231/199/199 223/177/191
f 237/200/205 222/175/190 238/163/206
f 219/162/187 230/195/198 237/200/205
f 240/190/208 235/206/203 234/205/202
f 234/205/202 245/209/213 241/204/209
f 233/202/201 242/203/210 246/210/214
f 235/206/203 247/211/215 234/205/202
f 233/202/201 246/210/214 248/212/216
f 235/206/203 248/212/216 249/213/217
f 234/205/202 247/211/215 245/209/213
f 235/206/203 233/202/201 248/212/216
f 235/206/203 249/213/217 247/211/215
f 258/214/226 260/215/228 229/197/197
f 225/196/193 258/214/226 229/197/197
f 259/216/227 227/193/195 261/217/229
f 226/194/194 227/193/195 259/216/227
f 229/197/197 260/215/228 262/218/230
f 227/193/195 236/201/204 262/218/230
f 227/193/195 262/218/230 261/217/229
f 256/219/224 270/220/238 253/221/221
f 270/220/238 292/222/260 308/223/276
f 250/224/218 255/225/223 247/211/215
f 267/226/235 269/227/237 265/228/233
f 293/229/261 267/226/235 305/230/273
f 252/231/220 251/232/219 254/233/222
f 251/232/219 256/219/224 257/234/225
f 257/234/225 249/213/217 251/232/219
f 249/213/217 250/224/218 247/211/215
f 251/232/219 248/212/216 254/233/222
f 253/221/221 270/220/238 266/235/234
f 255/225/223 253/221/221 266/235/234
f 269/227/237 252/231/220 254/233/222
f 269/227/237 246/210/214 274/236/242
f 248/212/216 251/232/219 249/213/217
f 267/226/235 270/220/238 256/219/224
f 267/226/235 252/231/220 269/227/237
f 255/225/223 250/224/218 253/221/221
f 250/224/218 257/234/225 256/219/224
f 273/237/241 271/238/239 258/214/226
f 272/239/240 259/216/227 261/217/229
f 260/215/228 271/238/239 262/218/230
f 271/238/239 291/240/259 262/218/230
f 272/239/240 291/240/259 264/241/232
f 272/239/240 262/218/230 291/240/259
f 248/212/216 246/210/214 254/233/222
f 246/210/214 269/227/237 254/233/222
f 245/209/213 255/225/223 266/235/234
f 247/211/215 255/225/223 245/209/213
f 263/242/231 300/243/268 291/240/259
f 270/220/238 268/244/236 266/235/234
f 267/226/235 265/228/233 305/230/273
f 309/245/277 300/243/268 263/242/231
f 264/241/232 291/240/259 301/246/269
f 297/247/265 299/248/267 267/226/235
f 299/248/267 270/220/238 267/226/235
f 295/249/263 292/222/260 294/250/262
f 292/222/260 270/220/238 294/250/262
f 296/251/264 291/240/259 302/252/270
f 301/246/269 291/240/259 296/251/264
f 297/247/265 293/229/261 303/253/271
f 297/247/265 267/226/235 293/229/261
f 294/250/262 299/248/267 298/254/266
f 304/255/272 296/251/264 302/252/270
f 294/250/262 298/254/266 295/249/263
f 297/247/265 303/253/271 298/254/266
f 291/240/259 300/243/268 302/252/270
f 299/248/267 294/250/262 270/220/238
f 299/248/267 297/247/265 298/254/266
f 271/238/239 260/215/228 258/214/226
f 263/242/231 291/240/259 271/238/239
f 261/217/229 262/218/230 272/239/240
f 270/220/238 308/223/276 268/244/236
f 287/256/255 245/209/213 266/235/234
f 301/246/269 306/257/274 264/241/232
f 289/258/257 259/216/227 272/239/240
f 430/259/398 429/260/397 425/261/393
f 425/261/393 426/262/394 430/259/398
f 427/263/395 430/259/398 426/262/394
f 426/262/394 423/264/391 427/263/395
f 428/265/396 427/263/395 423/264/391
f 423/264/391 424/266/392 428/265/396
f 428/265/396 431/267/399 427/263/395
f 434/268/402 431/267/399 428/265/396
f 427/263/395 432/269/400 430/259/398
f 431/267/399 432/269/400 427/263/395
f 430/259/398 433/270/401 429/260/397
f 432/269/400 433/270/401 430/259/398
f 435/271/403 440/272/408 438/273/406
f 439/274/407 435/271/403 438/273/406
f 441/275/409 435/271/403 439/274/407
f 442/276/410 443/277/411 435/271/403
f 435/271/403 441/275/409 442/276/410
f 435/271/403 443/277/411 440/272/408
f 433/270/401 432/269/400 436/278/404
f 443/277/411 442/276/410 444/279/412
f 431/267/399 436/278/404 432/269/400
f 431/267/399 434/268/402 436/278/404
f 374/280/342 386/281/354 375/282/343
f 394/283/362 393/284/361 387/285/355
f 372/286/340 408/285/376 389/287/357
f 368/288/336 369/289/337 390/290/358
f 384/291/352 398/292/366 376/293/344
f 370/294/338 391/295/359 369/289/337
f 373/296/341 385/297/353 376/293/344
f 383/298/351 371/299/339 395/300/363
f 375/282/343 399/301/367 374/280/342
f 368/288/336 378/302/346 369/289/337
f 381/303/349 290/304/258 285/305/253
f 367/306/335 381/303/349 396/307/364
f 379/308/347 378/302/346 276/309/244
f 377/310/345 369/289/337 378/302/346
f 379/308/347 377/310/345 378/302/346
f 307/311/275 379/308/347 276/309/244
f 281/312/249 380/313/348 277/314/245
f 370/294/338 369/289/337 377/310/345
f 277/314/245 380/313/348 377/310/345
f 383/298/351 400/315/368 371/299/339
f 388/316/356 372/286/340 375/282/343
f 394/283/362 409/316/377 422/300/390
f 282/317/250 290/304/258 400/315/368
f 382/318/350 371/299/339 290/304/258
f 381/303/349 367/306/335 290/304/258
f 377/310/345 380/313/348 370/294/338
f 378/302/346 368/288/336 401/319/369
f 277/314/245 379/308/347 307/311/275
f 367/306/335 421/283/389 382/318/350
f 367/306/335 382/318/350 290/304/258
f 370/294/338 402/320/370 392/321/360
f 370/294/338 380/313/348 402/320/370
f 425/261/393 399/301/367 375/282/343
f 426/262/394 425/261/393 375/282/343
f 426/262/394 375/282/343 372/286/340
f 423/264/391 426/262/394 372/286/340
f 437/322/405 372/286/340 397/323/365
f 424/266/392 423/264/391 437/322/405
f 439/274/407 438/273/406 373/296/341
f 376/293/344 439/274/407 373/296/341
f 423/264/391 372/286/340 437/322/405
f 424/266/392 437/322/405 397/323/365
f 452/324/420 447/325/415 451/326/419
f 447/325/415 452/324/420 448/327/416
f 449/328/417 448/327/416 452/324/420
f 448/327/416 449/328/417 445/329/413
f 450/330/418 445/329/413 449/328/417
f 445/329/413 450/330/418 446/331/414
f 450/330/418 449/328/417 453/332/421
f 456/333/424 450/330/418 453/332/421
f 449/328/417 452/324/420 454/334/422
f 453/332/421 449/328/417 454/334/422
f 452/324/420 451/326/419 455/335/423
f 454/334/422 452/324/420 455/335/423
f 457/336/425 460/337/428 462/338/430
f 461/339/429 460/337/428 457/336/425
f 463/340/431 461/339/429 457/336/425
f 464/341/432 457/336/425 465/342/433
f 457/336/425 464/341/432 463/340/431
f 457/336/425 462/338/430 465/342/433
f 458/343/426 464/341/432 465/342/433
f 453/332/421 466/344/434 456/333/424
f 454/334/422 455/335/423 466/344/434
f 454/334/422 466/344/434 453/332/421
f 330/345/298 319/346/287 331/347/299
f 352/347/320 339/348/307 335/349/303
f 311/350/279 338/351/306 312/352/280
f 317/353/285 333/354/301 316/355/284
f 336/356/304 337/357/305 329/358/297
f 320/359/288 328/360/296 348/358/316
f 336/356/304 347/360/315 334/361/302
f 349/362/317 328/360/296 318/363/286
f 319/346/287 342/364/310 343/365/311
f 324/366/292 321/367/289 314/368/282
f 325/369/293 288/370/256 311/350/279
f 344/371/312 315/372/283 288/370/256
f 340/373/308 322/374/290 345/375/313
f 340/373/308 313/376/281 322/374/290
f 313/376/281 314/368/282 321/367/289
f 313/376/281 321/367/289 322/374/290
f 321/367/289 323/377/291 322/374/290
f 332/378/300 331/347/299 316/355/284
f 366/348/334 326/379/294 315/372/283
f 344/371/312 288/370/256 278/380/246
f 315/372/283 326/379/294 288/370/256
f 311/350/279 312/352/280 325/369/293
f 280/381/248 310/382/278 323/377/291
f 344/371/312 327/383/295 315/372/283
f 280/381/248 323/377/291 321/367/289
f 322/374/290 275/384/243 345/375/313
f 275/384/243 283/385/251 345/375/313
f 275/384/243 323/377/291 310/382/278
f 353/378/321 365/351/333 352/347/320
f 311/350/279 288/370/256 326/379/294
f 358/386/326 334/361/302 350/362/318
f 314/368/282 346/387/314 324/366/292
f 343/365/311 447/325/415 448/327/416
f 319/346/287 343/365/311 448/327/416
f 319/346/287 448/327/416 445/329/413
f 319/346/287 445/329/413 316/355/284
f 341/388/309 460/337/428 461/339/429
f 320/359/288 341/388/309 461/339/429
f 459/389/427 446/331/414 317/353/285
f 316/355/284 445/329/413 459/389/427
f 445/329/413 446/331/414 459/389/427
f 316/355/284 459/389/427 317/353/285
f 321/367/289 324/366/292 280/381/248
f 288/370/256 325/369/293 284/390/252
f 290/304/258 371/299/339 400/315/368
f 378/302/346 401/319/369 276/309/244
f 275/384/243 322/374/290 323/377/291
f 279/391/247 280/381/248 324/366/292
f 276/309/244 401/319/369 286/392/254
f 377/310/345 379/308/347 277/314/245
f 66/184/51 71/181/56 72/191/57
f 72/191/57 71/181/56 55/76/40
f 66/184/51 72/191/57 14/80/14
f 71/181/56 134/157/117 57/156/42
f 60/167/45 219/162/187 73/161/58
f 59/165/44 70/164/55 73/161/58
f 195/126/163 192/125/160 208/133/176
f 110/46/95 109/67/94 107/47/92
f 205/119/173 210/145/178 203/128/171
f 201/123/169 212/131/180 206/135/174
f 102/52/87 104/49/89 115/48/100
f 112/61/97 110/46/95 108/45/93
f 228/192/196 236/201/204 227/193/195
f 236/201/204 229/197/197 262/218/230
f 237/200/205 230/195/198 236/201/204
f 222/175/190 237/200/205 228/192/196
f 73/161/58 238/163/206 222/175/190
f 237/200/205 238/163/206 219/162/187
f 267/226/235 256/219/224 252/231/220
f 250/224/218 256/219/224 253/221/221
f 252/231/220 256/219/224 251/232/219
f 250/224/218 249/213/217 257/234/225
f 74/185/59 240/190/208 65/186/50
f 74/185/59 239/188/207 235/206/203
f 150/160/131 163/102/138 137/155/120
f 158/159/136 137/155/120 134/157/117
f 38/79/30 17/75/17 31/393/26
f 14/80/14 55/76/40 17/75/17
f 138/86/121 125/82/110 124/84/109
f 188/99/156 176/97/144 127/91/112
f 18/5/18 91/34/76 3/3/3
f 40/26/32 29/14/25 7/15/7
f 146/394/23 151/146/23 160/149/23
f 131/148/114 133/150/116 139/149/122
f 19/72/19 10/68/10 5/70/5
f 41/72/23 52/1/6 42/6/6
f 141/153/124 140/152/123 58/151/43
f 146/394/23 161/152/23 173/88/23
f 13/71/13 20/6/20 56/8/41
f 54/73/39 2/23/2 53/74/38
f 155/104/134 141/153/124 122/154/107
f 172/94/23 161/152/23 162/153/23
f 21/7/21 1/21/1 56/8/41
f 35/20/6 43/7/6 27/74/6
f 23/9/6 22/13/6 6/10/6
f 44/13/33 31/393/26 17/75/17
f 166/90/23 142/102/23 152/160/23
f 163/102/138 157/103/135 137/155/120
f 164/89/23 130/103/23 142/102/23
f 143/89/125 127/91/112 168/96/140
f 6/10/6 36/77/23 25/11/23
f 7/15/7 47/12/35 45/9/34
f 24/2/22 4/4/4 3/3/3
f 46/12/23 32/393/23 22/13/6
f 167/83/23 151/146/23 146/394/23
f 165/90/139 149/105/130 127/91/112
f 49/11/36 9/19/9 7/15/7
f 35/20/6 27/74/6 51/22/6
f 145/95/127 153/101/132 123/87/108
f 169/96/23 156/158/23 130/103/23
f 52/1/6 41/72/23 30/70/6
f 26/1/24 3/3/3 54/73/39
f 124/84/109 144/83/126 171/394/141
f 160/149/23 161/152/23 146/394/23
f 42/6/6 27/74/6 43/7/6
f 50/22/37 53/74/38 2/23/2
f 129/104/23 172/94/23 162/153/23
f 123/87/108 148/88/129 147/94/128
f 3/3/3 2/23/2 54/73/39
f 52/1/6 28/73/6 42/6/6
f 172/94/23 173/88/23 161/152/23
f 171/394/141 148/88/129 124/84/109
f 414/295/382 405/395/373 403/291/371
f 384/291/352 376/293/344 385/297/353
f 361/356/329 357/361/325 313/376/281
f 328/360/296 320/359/288 318/363/286
f 340/373/308 362/357/330 361/356/329
f 320/359/288 348/358/316 341/388/309
f 410/396/378 385/297/353 373/296/341
f 404/297/372 413/290/381 403/291/371
f 406/281/374 415/397/383 409/316/377
f 384/291/352 407/395/375 398/292/366
f 342/364/310 319/346/287 330/345/298
f 314/368/282 357/361/325 359/386/327
f 366/348/334 327/383/295 360/349/328
f 319/346/287 316/355/284 331/347/299
f 332/378/300 316/355/284 333/354/301
f 338/351/306 326/379/294 366/348/334
f 396/307/364 418/284/386 421/283/389
f 408/285/376 372/286/340 388/316/356
f 386/281/354 388/316/356 375/282/343
f 421/283/389 395/300/363 382/318/350
f 354/354/322 363/398/331 353/378/321
f 355/399/323 341/388/309 348/358/316
f 372/286/340 389/287/357 397/323/365
f 419/400/387 404/297/372 411/396/379
f 419/400/387 413/290/381 404/297/372
f 390/290/358 369/289/337 391/295/359
f 414/295/382 403/291/371 413/290/381
f 370/294/338 392/321/360 391/295/359
f 414/295/382 416/321/384 405/395/373
f 417/397/385 383/298/351 395/300/363
f 393/284/361 412/287/380 387/285/355
f 368/288/336 390/290/358 420/400/388
f 334/361/302 347/360/315 350/362/318
f 357/361/325 314/368/282 313/376/281
f 352/347/320 335/349/303 351/345/319
f 314/368/282 359/386/327 346/387/314
f 329/358/297 347/360/315 336/356/304
f 340/373/308 361/356/329 313/376/281
f 337/357/305 356/399/324 329/358/297
f 364/398/332 312/352/280 338/351/306
f 394/283/362 387/285/355 409/316/377
f 396/307/364 421/283/389 367/306/335
f 365/351/333 353/378/321 363/398/331
f 311/350/279 326/379/294 338/351/306
f 415/397/383 422/300/390 409/316/377
f 395/300/363 371/299/339 382/318/350
f 352/347/320 365/351/333 339/348/307
f 315/372/283 327/383/295 366/348/334
f 503/401/471 481/402/449 469/403/437
f 481/402/449 507/404/475 505/405/473
f 476/406/444 473/407/441 513/408/481
f 513/408/481 517/409/485 514/410/482
f 476/406/444 513/408/481 514/410/482
f 474/411/442 473/407/441 511/412/479
f 502/413/470 505/405/473 477/414/445
f 502/413/470 469/403/437 505/405/473
f 475/415/443 530/416/498 471/417/439
f 484/418/452 504/419/472 475/415/443
f 516/420/484 512/421/480 515/422/483
f 472/423/440 515/422/483 512/421/480
f 472/423/440 483/424/451 480/425/448
f 505/405/473 507/404/475 477/414/445
f 480/425/448 481/402/449 503/401/471
f 482/426/450 476/406/444 479/427/447
f 504/419/472 484/418/452 479/427/447
f 478/428/446 501/429/469 520/430/488
f 478/428/446 508/431/476 506/432/474
f 506/432/474 508/431/476 484/418/452
f 488/433/456 487/434/455 486/435/454
f 522/436/490 490/437/458 489/438/457
f 493/439/461 490/437/458 492/440/460
f 490/437/458 493/439/461 526/441/494
f 495/442/463 526/441/494 494/443/462
f 526/441/494 495/442/463 489/438/457
f 495/442/463 496/444/464 489/438/457
f 492/440/460 490/437/458 527/445/495
f 527/445/495 487/434/455 492/440/460
f 496/444/464 485/446/453 470/447/438
f 497/448/465 496/444/464 470/447/438
f 470/447/438 485/446/453 478/428/446
f 520/430/488 470/447/438 478/428/446
f 486/435/454 527/445/495 491/449/459
f 495/442/463 485/446/453 496/444/464
f 498/450/466 489/438/457 496/444/464
f 521/451/489 522/436/490 498/450/466
f 521/451/489 491/449/459 522/436/490
f 486/435/454 491/449/459 499/452/467
f 498/450/466 496/444/464 497/448/465
f 500/453/468 525/454/493 497/448/465
f 499/452/467 521/451/489 486/435/454
f 525/454/493 500/453/468 488/433/456
f 486/435/454 498/450/466 525/454/493
f 511/412/479 473/407/441 467/455/435
f 468/456/436 511/412/479 467/455/435
f 510/457/478 530/416/498 475/415/443
f 511/412/479 509/458/477 510/457/478
f 500/453/468 472/423/440 488/433/456
f 487/434/455 488/433/456 518/459/486
f 472/423/440 528/460/496 488/433/456
f 494/443/462 493/439/461 476/406/444
f 493/439/461 473/407/441 476/406/444
f 519/461/487 493/439/461 492/440/460
f 483/424/451 472/423/440 500/453/468
f 483/424/451 500/453/468 497/448/465
f 523/462/491 497/448/465 470/447/438
f 494/443/462 476/406/444 482/426/450
f 482/426/450 495/442/463 494/443/462
f 524/463/492 495/442/463 482/426/450
f 471/417/439 501/429/469 506/432/474
f 478/428/446 506/432/474 501/429/469
f 531/464/499 502/413/470 520/430/488
f 506/432/474 475/415/443 471/417/439
f 469/403/437 502/413/470 531/464/499
f 501/429/469 471/417/439 520/430/488
f 503/401/471 469/403/437 532/465/500
f 483/424/451 481/402/449 480/425/448
f 504/419/472 510/457/478 475/415/443
f 482/426/450 479/427/447 484/418/452
f 477/414/445 507/404/475 470/447/438
f 481/402/449 505/405/473 469/403/437
f 484/418/452 475/415/443 506/432/474
f 478/428/446 485/446/453 508/431/476
f 483/424/451 507/404/475 481/402/449
f 483/424/451 523/462/491 507/404/475
f 524/463/492 508/431/476 485/446/453
f 482/426/450 484/418/452 508/431/476
f 474/411/442 511/412/479 510/457/478
f 516/420/484 503/401/471 532/465/500
f 510/457/478 509/458/477 530/416/498
f 517/409/485 510/457/478 504/419/472
f 472/423/440 512/421/480 528/460/496
f 468/456/436 509/458/477 511/412/479
f 503/401/471 516/420/484 480/425/448
f 529/466/497 528/460/496 512/421/480
f 474/411/442 513/408/481 473/407/441
f 504/419/472 479/427/447 517/409/485
f 517/409/485 479/427/447 514/410/482
f 479/427/447 476/406/444 514/410/482
f 516/420/484 515/422/483 480/425/448
f 480/425/448 515/422/483 472/423/440
f 529/466/497 516/420/484 532/465/500
f 516/420/484 529/466/497 512/421/480
f 474/411/442 510/457/478 517/409/485
f 517/409/485 513/408/481 474/411/442
f 528/460/496 518/459/486 488/433/456
f 473/407/441 493/439/461 519/461/487
f 470/447/438 520/430/488 477/414/445
f 477/414/445 520/430/488 502/413/470
f 499/452/467 491/449/459 521/451/489
f 521/451/489 498/450/466 486/435/454
f 491/449/459 490/437/458 522/436/490
f 522/436/490 489/438/457 498/450/466
f 483/424/451 497/448/465 523/462/491
f 523/462/491 470/447/438 507/404/475
f 485/446/453 495/442/463 524/463/492
f 482/426/450 508/431/476 524/463/492
f 519/461/487 492/440/460 487/434/455
f 487/434/455 518/459/486 519/461/487
f 518/459/486 473/407/441 519/461/487
f 467/455/435 473/407/441 518/459/486
f 498/450/466 497/448/465 525/454/493
f 486/435/454 525/454/493 488/433/456
f 490/437/458 526/441/494 489/438/457
f 526/441/494 493/439/461 494/443/462
f 486/435/454 487/434/455 527/445/495
f 527/445/495 490/437/458 491/449/459
f 569/401/471 547/402/449 535/403/437
f 547/402/449 573/404/475 571/405/473
f 542/406/444 539/407/441 579/408/481
f 579/408/481 583/409/485 580/410/482
f 542/406/444 579/408/481 580/410/482
f 540/411/442 539/407/441 577/412/479
f 568/413/470 571/405/473 543/414/445
f 568/413/470 535/403/437 571/405/473
f 541/415/443 596/416/498 537/417/439
f 550/418/452 570/419/472 541/415/443
f 582/420/484 578/421/480 581/422/483
f 538/423/440 581/422/483 578/421/480
f 538/423/440 549/424/451 546/425/448
f 571/405/473 573/404/475 543/414/445
f 546/425/448 547/402/449 569/401/471
f 548/426/450 542/406/444 545/427/447
f 570/419/472 550/418/452 545/427/447
f 544/428/446 567/429/469 586/430/488
f 544/428/446 574/431/476 572/432/474
f 572/432/474 574/431/476 550/418/452
f 554/433/456 553/434/455 552/435/454
f 588/436/490 556/437/458 555/438/457
f 559/439/461 556/437/458 558/440/460
f 556/437/458 559/439/461 592/441/494
f 561/442/463 592/441/494 560/443/462
f 592/441/494 561/442/463 555/438/457
f 561/442/463 562/444/464 555/438/457
f 558/440/460 556/437/458 593/445/495
f 593/445/495 553/434/455 558/440/460
f 562/444/464 551/446/453 536/447/438
f 563/448/465 562/444/464 536/447/438
f 536/447/438 551/446/453 544/428/446
f 586/430/488 536/447/438 544/428/446
f 552/435/454 593/445/495 557/449/459
f 561/442/463 551/446/453 562/444/464
f 564/450/466 555/438/457 562/444/464
f 587/451/489 588/436/490 564/450/466
f 587/451/489 557/449/459 588/436/490
f 552/435/454 557/449/459 565/452/467
f 564/450/466 562/444/464 563/448/465
f 566/453/468 591/454/493 563/448/465
f 565/452/467 587/451/489 552/435/454
f 591/454/493 566/453/468 554/433/456
f 552/435/454 564/450/466 591/454/493
f 577/412/479 539/407/441 533/455/435
f 534/456/436 577/412/479 533/455/435
f 576/457/478 596/416/498 541/415/443
f 577/412/479 575/458/477 576/457/478
f 566/453/468 538/423/440 554/433/456
f 553/434/455 554/433/456 584/459/486
f 538/423/440 594/460/496 554/433/456
f 560/443/462 559/439/461 542/406/444
f 559/439/461 539/407/441 542/406/444
f 585/461/487 559/439/461 558/440/460
f 549/424/451 538/423/440 566/453/468
f 549/424/451 566/453/468 563/448/465
f 589/462/491 563/448/465 536/447/438
f 560/443/462 542/406/444 548/426/450
f 548/426/450 561/442/463 560/443/462
f 590/463/492 561/442/463 548/426/450
f 537/417/439 567/429/469 572/432/474
f 544/428/446 572/432/474 567/429/469
f 597/464/499 568/413/470 586/430/488
f 572/432/474 541/415/443 537/417/439
f 535/403/437 568/413/470 597/464/499
f 567/429/469 537/417/439 586/430/488
f 569/401/471 535/403/437 598/465/500
f 549/424/451 547/402/449 546/425/448
f 570/419/472 576/457/478 541/415/443
f 548/426/450 545/427/447 550/418/452
f 543/414/445 573/404/475 536/447/438
f 547/402/449 571/405/473 535/403/437
f 550/418/452 541/415/443 572/432/474
f 544/428/446 551/446/453 574/431/476
f 549/424/451 573/404/475 547/402/449
f 549/424/451 589/462/491 573/404/475
f 590/463/492 574/431/476 551/446/453
f 548/426/450 550/418/452 574/431/476
f 540/411/442 577/412/479 576/457/478
f 582/420/484 569/401/471 598/465/500
f 576/457/478 575/458/477 596/416/498
f 583/409/485 576/457/478 570/419/472
f 538/423/440 578/421/480 594/460/496
f 534/456/436 575/458/477 577/412/479
f 569/401/471 582/420/484 546/425/448
f 595/466/497 594/460/496 578/421/480
f 540/411/442 579/408/481 539/407/441
f 570/419/472 545/427/447 583/409/485
f 583/409/485 545/427/447 580/410/482
f 545/427/447 542/406/444 580/410/482
f 582/420/484 581/422/483 546/425/448
f 546/425/448 581/422/483 538/423/440
f 595/466/497 582/420/484 598/465/500
f 582/420/484 595/466/497 578/421/480
f 540/411/442 576/457/478 583/409/485
f 583/409/485 579/408/481 540/411/442
f 594/460/496 584/459/486 554/433/456
f 539/407/441 559/439/461 585/461/487
f 536/447/438 586/430/488 543/414/445
f 543/414/445 586/430/488 568/413/470
f 565/452/467 557/449/459 587/451/489
f 587/451/489 564/450/466 552/435/454
f 557/449/459 556/437/458 588/436/490
f 588/436/490 555/438/457 564/450/466
f 549/424/451 563/448/465 589/462/491
f 589/462/491 536/447/438 573/404/475
f 551/446/453 561/442/463 590/463/492
f 548/426/450 574/431/476 590/463/492
f 585/461/487 558/440/460 553/434/455
f 553/434/455 584/459/486 585/461/487
f 584/459/486 539/407/441 585/461/487
f 533/455/435 539/407/441 584/459/486
f 564/450/466 563/448/465 591/454/493
f 552/435/454 591/454/493 554/433/456
f 556/437/458 592/441/494 555/438/457
f 592/441/494 559/439/461 560/443/462
f 552/435/454 553/434/455 593/445/495
f 593/445/495 556/437/458 557/449/459
f 599/467/501 600/468/502 604/469/506 603/470/505
f 600/468/502 601/471/503 605/472/507 604/469/506
f 601/471/503 602/473/504 606/474/508 605/472/507
f 602/473/504 599/467/501 603/470/505 606/474/508
f 603/470/505 604/469/506 607/475/509
f 604/469/506 605/472/507 607/475/509
f 605/472/507 606/474/508 607/475/509
f 606/474/508 603/470/505 607/475/509
f 603/470/505 607/475/509 608/476/510
f 604/469/506 607/475/509 609/477/511
f 604/469/506 609/477/511 610/478/512
f 605/472/507 610/478/512 609/477/511
f 605/472/507 609/477/511 606/474/508
f 606/474/508 609/477/511 608/476/510
f 608/476/510 609/477/511 610/478/512
f 615/470/517 616/469/518 612/468/514 611/467/513
f 616/469/518 617/472/519 613/471/515 612/468/514
f 617/472/519 618/474/520 614/473/516 613/471/515
f 618/474/520 615/470/517 611/467/513 614/473/516
f 619/475/521 616/469/518 615/470/517
f 619/475/521 617/472/519 616/469/518
f 619/475/521 618/474/520 617/472/519
f 619/475/521 615/470/517 618/474/520
f 620/476/522 619/475/521 615/470/517
f 621/477/523 619/475/521 616/469/518
f 622/478/524 621/477/523 616/469/518
f 621/477/523 622/478/524 617/472/519
f 618/474/520 621/477/523 617/472/519
f 620/476/522 621/477/523 618/474/520
f 622/478/524 621/477/523 620/476/522
