# Blender 5.1.1
# www.blender.org
mtllib npc_sari_walk2.mtl
o npc_sari_walk2
v 0.048163 -0.189667 0.557770
v 0.124759 -0.150021 0.560369
v 0.133642 -0.042334 0.592524
v 0.140682 0.007018 0.720538
v 0.076956 0.058579 0.779382
v 0.092137 -0.026033 0.573006
v 0.046723 -0.025506 0.552822
v 0.049461 -0.212644 0.492932
v 0.138928 -0.053247 0.887551
v 0.146464 0.020573 0.925522
v 0.089134 -0.098142 0.864034
v 0.116425 0.056088 0.939975
v 0.097617 -0.108695 0.911621
v 0.141649 -0.058686 0.918139
v 0.061804 0.068490 0.939975
v 0.116823 0.053907 0.921444
v 0.129817 -0.061771 0.542094
v 0.133642 -0.042334 0.592524
v 0.140682 0.007018 0.720538
v 0.146464 0.020573 0.925522
v 0.129817 -0.061771 0.542094
v 0.128491 -0.076774 0.504252
v 0.049365 -0.046574 0.498057
v 0.092329 -0.050334 0.508109
v 0.037543 -0.245129 0.402793
v 0.062388 -0.320708 0.186280
v 0.058398 -0.151505 0.186185
v 0.088944 -0.159356 0.186190
v 0.123529 -0.168472 0.495690
v 0.125996 -0.172855 0.401964
v 0.103558 -0.268751 0.186252
v 0.118716 -0.185210 0.186203
v 0.093355 -0.058267 0.488742
v 0.088005 -0.218476 0.400581
v 0.128491 -0.076774 0.504252
v 0.118716 -0.185210 0.186203
v 0.089483 -0.282675 0.106019
v 0.078842 -0.263316 0.078620
v 0.095572 -0.205036 0.157309
v 0.084028 -0.242865 0.155950
v 0.117899 -0.132321 0.105915
v 0.053957 -0.143602 0.078493
v 0.058218 -0.130437 0.111476
v 0.058620 -0.204726 0.157309
v 0.069232 -0.262405 0.078619
v 0.052584 -0.281127 0.106017
v 0.121705 -0.143517 0.078493
v 0.059895 -0.231365 0.090473
v 0.062187 -0.240395 0.155948
v 0.075735 -0.188824 0.157984
v 0.108554 -0.163902 0.116913
v 0.062306 -0.163593 0.138490
v 0.096587 -0.231454 0.090473
v 0.083645 -0.246576 0.078602
v 0.067114 -0.246508 0.078454
v 0.056150 -0.278107 0.092325
v 0.085136 -0.280752 0.092328
v 0.058509 -0.163322 0.144616
v 0.088922 -0.170875 0.142848
v 0.118632 -0.203278 0.136001
v 0.062287 -0.351798 0.102644
v 0.103312 -0.296274 0.112974
v 0.095572 -0.205036 0.157309
v 0.095572 -0.205036 0.157309
v 0.095572 -0.205036 0.157309
v 0.084028 -0.242865 0.155950
v 0.117899 -0.132321 0.105915
v 0.053957 -0.143602 0.078493
v 0.058218 -0.130437 0.111476
v 0.058620 -0.204726 0.157309
v 0.058620 -0.204726 0.157309
v 0.058620 -0.204726 0.157309
v 0.121705 -0.143517 0.078493
v 0.062187 -0.240395 0.155948
v 0.075735 -0.188824 0.157984
v 0.108554 -0.163902 0.116913
v 0.062306 -0.163593 0.138490
v 0.058509 -0.163322 0.144616
v 0.088922 -0.170875 0.142848
v 0.118632 -0.203278 0.136001
v 0.118632 -0.203278 0.136001
v 0.118632 -0.203278 0.136001
v 0.062287 -0.351798 0.102644
v 0.103312 -0.296274 0.112974
v 0.099690 -0.069211 0.078414
v 0.098422 -0.068533 0.091442
v 0.074983 -0.068083 0.078413
v 0.076924 -0.065622 0.092534
v 0.115441 -0.120140 0.103607
v 0.058922 -0.118562 0.106934
v 0.032962 0.064191 0.874834
v 0.041309 -0.104949 0.845927
v -0.033742 0.064375 0.873521
v -0.042170 -0.104989 0.845462
v 0.094489 -0.099642 0.989273
v -0.096413 -0.099910 0.989263
v -0.133166 -0.034414 1.009818
v 0.134696 -0.034044 1.010210
v 0.121067 0.041626 1.013708
v -0.119516 0.041421 1.013698
v -0.073932 0.069105 1.009395
v 0.075554 0.069097 1.009394
v 0.047028 -0.113276 0.877693
v -0.048646 -0.113365 0.877705
v 0.000120 -0.115706 0.916046
v -0.001032 -0.106741 0.989268
v 0.121067 0.041626 1.013708
v -0.119516 0.041421 1.013698
v -0.047730 -0.020349 0.530814
v -0.122501 0.017526 0.533695
v -0.131896 0.103991 0.569694
v -0.141010 0.065857 0.711567
v -0.092574 0.133364 0.547798
v -0.048908 0.147684 0.525372
v -0.079167 0.077247 0.776914
v -0.138074 -0.053377 0.887342
v -0.145633 0.020255 0.925562
v -0.087959 -0.098225 0.863575
v -0.115670 0.056213 0.939989
v -0.097388 -0.108922 0.911606
v -0.142097 -0.059114 0.918226
v -0.061049 0.068552 0.939984
v -0.114604 0.054575 0.921603
v -0.128723 0.117473 0.513633
v -0.131896 0.103991 0.569694
v -0.141010 0.065857 0.711567
v -0.145633 0.020255 0.925562
v -0.128723 0.117473 0.513633
v -0.127890 0.126893 0.471530
v -0.050762 0.163431 0.464660
v -0.092570 0.151961 0.475842
v -0.050095 -0.000113 0.459095
v -0.038302 0.028430 0.359402
v -0.061799 0.097249 0.119200
v -0.057809 0.266568 0.119092
v -0.089616 0.258759 0.119095
v -0.122436 0.042216 0.462115
v -0.125847 0.101255 0.358493
v -0.102966 0.149212 0.119167
v -0.118123 0.232855 0.119116
v -0.093620 0.157058 0.454231
v -0.088282 0.056510 0.357120
v -0.127890 0.126893 0.471530
v -0.118123 0.232855 0.119116
v -0.089082 0.189653 0.030311
v -0.078110 0.227521 -0.000090
v -0.057768 0.338147 0.036078
v -0.095207 0.232657 0.087111
v -0.083465 0.195672 0.085614
v -0.117443 0.340014 0.029914
v -0.053555 0.347389 -0.000258
v -0.058271 0.232962 0.087111
v -0.067550 0.228359 -0.000091
v -0.052183 0.191147 0.030309
v -0.121646 0.347435 -0.000259
v -0.058427 0.251204 0.013042
v -0.076470 0.247256 0.087858
v -0.061626 0.198151 0.085610
v -0.108167 0.301027 0.042217
v -0.061931 0.286780 0.066136
v -0.096725 0.251391 0.013042
v -0.082783 0.244287 -0.000113
v -0.065494 0.244226 -0.000277
v -0.055175 0.203407 0.015118
v -0.085103 0.200814 0.015121
v -0.058040 0.282879 0.072883
v -0.089691 0.275747 0.070925
v -0.118168 0.248735 0.063341
v -0.102696 0.171188 0.037838
v -0.061713 0.122623 0.026399
v -0.057768 0.338147 0.036078
v -0.095207 0.232657 0.087111
v -0.095207 0.232657 0.087111
v -0.095207 0.232657 0.087111
v -0.083465 0.195672 0.085614
v -0.117443 0.340014 0.029914
v -0.053555 0.347389 -0.000258
v -0.058271 0.232962 0.087111
v -0.058271 0.232962 0.087111
v -0.058271 0.232962 0.087111
v -0.121646 0.347435 -0.000259
v -0.076470 0.247256 0.087858
v -0.061626 0.198151 0.085610
v -0.108167 0.301027 0.042217
v -0.061931 0.286780 0.066136
v -0.058040 0.282879 0.072883
v -0.089691 0.275747 0.070925
v -0.118168 0.248735 0.063341
v -0.118168 0.248735 0.063341
v -0.118168 0.248735 0.063341
v -0.102696 0.171188 0.037838
v -0.061713 0.122623 0.026399
v -0.099288 0.421671 -0.000363
v -0.097249 0.413636 0.013856
v -0.074581 0.422762 -0.000365
v -0.075751 0.415764 0.015065
v -0.115324 0.353787 0.027352
v -0.058145 0.353097 0.031040
v -0.088485 -0.071459 1.051527
v -0.116922 -0.009828 1.054783
v 0.081821 0.034921 1.070379
v 0.089291 -0.071324 1.051532
v 0.119206 -0.009704 1.054791
v -0.081381 0.035109 1.070395
v -0.086842 -0.008100 1.154898
v 0.087562 -0.007224 1.154315
v 0.068292 -0.052446 1.158529
v 0.067089 -0.049020 1.100658
v -0.067265 -0.052847 1.158871
v -0.067993 -0.048493 1.100935
v 0.087493 -0.008575 1.098482
v -0.088470 -0.008075 1.098641
v 0.075328 0.044067 1.149579
v -0.074891 0.043904 1.149579
v 0.000213 0.056812 1.147215
v 0.000519 -0.061131 1.158700
v -0.000458 -0.057241 1.100796
v 0.000403 -0.079875 1.051530
v 0.000234 0.053023 1.070387
v 0.081821 0.034921 1.070379
v -0.081381 0.035109 1.070395
v -0.086842 -0.008100 1.154898
v 0.087562 -0.007224 1.154315
v 0.087493 -0.008575 1.098482
v -0.088470 -0.008075 1.098641
v -0.122545 -0.008452 1.285426
v 0.120559 -0.008247 1.285426
v -0.085735 0.062565 1.227895
v 0.086162 0.062744 1.227895
v 0.000213 0.073834 1.249731
v -0.082732 0.099797 1.262021
v 0.083111 0.099967 1.262021
v 0.088724 0.106592 1.302102
v -0.087485 0.106507 1.302102
v 0.126419 0.052138 1.293764
v -0.126797 0.051993 1.293764
v 0.000620 0.096950 1.299415
v 0.000190 0.090800 1.264687
v -0.122545 -0.008452 1.285426
v 0.120559 -0.008247 1.285426
v -0.106972 -0.084211 1.332381
v 0.108391 -0.084005 1.332380
v 0.000432 -0.098752 1.339836
v -0.110773 -0.058762 1.430698
v 0.110818 -0.058760 1.430565
v 0.102857 0.000546 1.428275
v -0.133113 0.026609 1.378607
v 0.032035 0.009297 1.433031
v -0.102896 0.000540 1.428299
v 0.131673 0.027437 1.378737
v -0.030313 0.009185 1.433053
v -0.125576 -0.073799 1.379367
v 0.126279 -0.073581 1.379451
v -0.146021 -0.025426 1.370016
v 0.145512 -0.025296 1.369986
v -0.110773 -0.058762 1.430698
v 0.110818 -0.058760 1.430565
v 0.102857 0.000546 1.428275
v -0.133113 0.026609 1.378607
v -0.133113 0.026609 1.378607
v -0.102896 0.000540 1.428299
v 0.131673 0.027437 1.378737
v 0.131673 0.027437 1.378737
v -0.125576 -0.073799 1.379367
v -0.125576 -0.073799 1.379367
v 0.126279 -0.073581 1.379451
v 0.126279 -0.073581 1.379451
v -0.146021 -0.025426 1.370016
v -0.146021 -0.025426 1.370016
v 0.145512 -0.025296 1.369986
v 0.145512 -0.025296 1.369986
v 0.001424 -0.064136 1.479318
v -0.042488 -0.051818 1.471596
v 0.044525 -0.052078 1.471489
v -0.035425 0.010522 1.562382
v -0.025448 -0.033011 1.579038
v 0.028293 -0.033408 1.578739
v 0.037924 0.010590 1.562381
v 0.000497 0.006313 1.583927
v 0.001249 0.030926 1.551367
v -0.042488 -0.051818 1.471596
v 0.044525 -0.052078 1.471489
v -0.025448 -0.033011 1.579038
v 0.028293 -0.033408 1.578739
v 0.000497 0.006313 1.583927
v 0.105513 -0.030919 1.437799
v 0.105513 -0.030919 1.437799
v 0.105513 -0.030919 1.437799
v -0.105538 -0.031013 1.437818
v -0.105538 -0.031013 1.437818
v -0.105538 -0.031013 1.437818
v -0.137029 -0.060693 1.357417
v -0.163832 -0.072719 1.345128
v -0.198196 -0.057628 1.347993
v -0.191220 -0.000142 1.349747
v -0.139469 0.010016 1.356338
v -0.158191 -0.140448 1.147818
v -0.197708 -0.141826 1.152810
v -0.178531 -0.055618 1.185451
v -0.160385 -0.085834 1.142604
v -0.204130 -0.084829 1.146505
v -0.193967 -0.000905 1.397618
v -0.196291 -0.052702 1.399229
v -0.190852 -0.024422 1.425048
v -0.141051 0.017612 1.396037
v -0.135258 -0.064121 1.398421
v -0.130407 -0.021077 1.364676
v -0.153477 0.010409 1.352802
v -0.163832 -0.072719 1.345128
v -0.197708 -0.141826 1.152810
v -0.178531 -0.055618 1.185451
v -0.204130 -0.084829 1.146505
v -0.141051 0.017612 1.396037
v -0.135258 -0.064121 1.398421
v -0.153477 0.010409 1.352802
v 0.136951 -0.060696 1.357423
v 0.163755 -0.056199 1.345129
v 0.198120 -0.043256 1.347994
v 0.191143 0.012915 1.349748
v 0.139392 0.010016 1.356334
v 0.158500 0.025947 1.147751
v 0.198017 0.020825 1.152744
v 0.178453 0.080660 1.185452
v 0.160857 0.084456 1.142526
v 0.204609 0.082533 1.146433
v 0.193884 -0.000928 1.397614
v 0.196220 -0.052727 1.399235
v 0.190775 -0.024422 1.425050
v 0.140965 0.017549 1.396039
v 0.135180 -0.064195 1.398414
v 0.130330 -0.021067 1.364677
v 0.153400 0.021174 1.352803
v 0.163755 -0.056199 1.345129
v 0.198017 0.020825 1.152744
v 0.178453 0.080660 1.185452
v 0.204609 0.082533 1.146433
v 0.140965 0.017549 1.396039
v 0.135180 -0.064195 1.398414
v 0.153400 0.021174 1.352803
v 0.162669 0.036312 1.123332
v 0.200078 0.032073 1.125906
v 0.206374 0.089993 1.132687
v 0.162226 0.090545 1.128410
v 0.158901 0.078343 1.045144
v 0.203824 0.056299 1.070266
v 0.207891 0.138119 1.059282
v 0.163671 0.138829 1.042551
v 0.195667 0.159415 0.879517
v 0.195906 0.189139 0.884305
v 0.218313 0.186230 0.887728
v 0.218420 0.159175 0.882969
v 0.226211 0.088588 1.074272
v 0.206990 0.177015 0.875546
v 0.180811 0.028465 1.131843
v 0.200078 0.032073 1.125906
v 0.206374 0.089993 1.132687
v 0.203824 0.056299 1.070266
v 0.207891 0.138119 1.059282
v 0.218313 0.186230 0.887728
v 0.218420 0.159175 0.882969
v 0.206990 0.177015 0.875546
v -0.162470 -0.146555 1.123210
v -0.199879 -0.148863 1.125785
v -0.206111 -0.087822 1.132593
v -0.161962 -0.090478 1.128317
v -0.158699 -0.163166 1.045144
v -0.203622 -0.166367 1.070267
v -0.207689 -0.092786 1.059282
v -0.163469 -0.104624 1.042551
v -0.196039 -0.206314 0.879517
v -0.196278 -0.172999 0.884305
v -0.218694 -0.173340 0.887728
v -0.218802 -0.203964 0.882969
v -0.226009 -0.131075 1.074272
v -0.207540 -0.191184 0.875560
v -0.180554 -0.148936 1.131804
v -0.199879 -0.148863 1.125785
v -0.206111 -0.087822 1.132593
v -0.203622 -0.166367 1.070267
v -0.207689 -0.092786 1.059282
v -0.218694 -0.173340 0.887728
v -0.218802 -0.203964 0.882969
v -0.207540 -0.191184 0.875560
v -0.054270 0.003968 1.545637
v -0.067073 -0.073277 1.540486
v -0.038898 -0.065221 1.719407
v -0.033873 0.093525 1.682123
v -0.015823 -0.025514 1.752903
v -0.060820 0.002930 1.571672
v 0.055660 0.004019 1.545634
v 0.072702 -0.073203 1.539789
v 0.034519 -0.074113 1.711341
v 0.062037 0.003059 1.571667
v -0.039488 0.085235 1.713770
v 0.036820 0.101540 1.713675
v 0.077687 -0.024972 1.616212
v -0.076335 -0.025075 1.616217
v -0.075444 -0.043589 1.682254
v 0.065069 0.006080 1.633094
v -0.063750 0.005977 1.633099
v 0.089163 -0.043692 1.678437
v 0.036789 0.092976 1.681351
v -0.013001 0.094991 1.569099
v -0.014974 0.085641 1.501882
v -0.052628 0.068545 1.579134
v 0.007912 0.097582 1.619383
v 0.014201 0.095020 1.569098
v 0.004835 0.116771 1.570565
v 0.016258 0.085714 1.501880
v 0.053813 0.068661 1.579130
v 0.058179 0.061215 1.611685
v 0.049696 0.082667 1.634934
v 0.000600 0.100726 1.639613
v -0.048553 0.082574 1.634937
v -0.006984 0.097582 1.619383
v -0.003623 0.116771 1.570565
v -0.056962 0.061100 1.611690
v 0.037357 0.075596 1.742679
v -0.038410 0.019788 1.735214
v -0.079199 -0.080355 1.646789
v 0.085042 -0.080241 1.649586
v -0.061599 0.003118 1.717898
v 0.067781 0.017212 1.714868
v -0.063551 0.050437 1.687307
v 0.069048 0.052204 1.682040
v -0.046528 -0.109680 1.604618
v 0.048032 -0.109571 1.605009
v 0.000779 -0.091385 1.522314
v -0.090502 0.002457 1.556434
v 0.096355 0.007745 1.555552
v 0.086527 -0.013245 1.586206
v -0.082983 -0.013378 1.585090
v -0.076865 -0.070234 1.593479
v 0.078595 -0.070166 1.593474
v -0.030667 0.046007 1.515354
v 0.031998 0.046069 1.515351
v -0.022920 0.091887 1.738795
v -0.004078 0.119801 1.577619
v 0.005132 0.119801 1.577619
v -0.053798 0.058666 1.667194
v 0.055916 0.058443 1.666806
v -0.012894 0.089146 1.611973
v 0.013951 0.089204 1.611972
v 0.000600 0.099960 1.566327
v -0.054270 0.003968 1.545637
v -0.067073 -0.073277 1.540486
v -0.038898 -0.065221 1.719407
v -0.015823 -0.025514 1.752903
v -0.046528 -0.109680 1.604618
v -0.054270 0.003968 1.545637
v -0.067073 -0.073277 1.540486
v -0.038898 -0.065221 1.719407
v -0.033873 0.093525 1.682123
v -0.015823 -0.025514 1.752903
v -0.060820 0.002930 1.571672
v 0.055660 0.004019 1.545634
v 0.072702 -0.073203 1.539789
v 0.034519 -0.074113 1.711341
v 0.062037 0.003059 1.571667
v -0.039488 0.085235 1.713770
v 0.036820 0.101540 1.713675
v 0.077687 -0.024972 1.616212
v -0.076335 -0.025075 1.616217
v -0.075444 -0.043589 1.682254
v 0.065069 0.006080 1.633094
v -0.063750 0.005977 1.633099
v 0.089163 -0.043692 1.678437
v 0.036789 0.092976 1.681351
v -0.013001 0.094991 1.569099
v -0.014974 0.085641 1.501882
v -0.052628 0.068545 1.579134
v 0.007912 0.097582 1.619383
v 0.014201 0.095020 1.569098
v 0.004835 0.116771 1.570565
v 0.016258 0.085714 1.501880
v 0.053813 0.068661 1.579130
v 0.058179 0.061215 1.611685
v 0.049696 0.082667 1.634934
v 0.000600 0.100726 1.639613
v -0.048553 0.082574 1.634937
v -0.006984 0.097582 1.619383
v -0.003623 0.116771 1.570565
v -0.056962 0.061100 1.611690
v 0.037357 0.075596 1.742679
v -0.038410 0.019788 1.735214
v -0.079199 -0.080355 1.646789
v 0.085042 -0.080241 1.649586
v -0.061599 0.003118 1.717898
v 0.067781 0.017212 1.714868
v -0.063551 0.050437 1.687307
v 0.069048 0.052204 1.682040
v -0.046528 -0.109680 1.604618
v 0.048032 -0.109571 1.605009
v 0.000779 -0.091385 1.522314
v -0.090502 0.002457 1.556434
v 0.096355 0.007745 1.555552
v 0.086527 -0.013245 1.586206
v -0.082983 -0.013378 1.585090
v -0.076865 -0.070234 1.593479
v 0.078595 -0.070166 1.593474
v -0.030667 0.046007 1.515354
v 0.031998 0.046069 1.515351
v -0.022920 0.091887 1.738795
v -0.004078 0.119801 1.577619
v 0.005132 0.119801 1.577619
v -0.053798 0.058666 1.667194
v 0.055916 0.058443 1.666806
v -0.012894 0.089146 1.611973
v 0.013951 0.089204 1.611972
v 0.000600 0.099960 1.566327
v -0.054270 0.003968 1.545637
v -0.067073 -0.073277 1.540486
v -0.038898 -0.065221 1.719407
v -0.015823 -0.025514 1.752903
v -0.046528 -0.109680 1.604618
v -0.209250 -0.180596 0.877300
v -0.199950 -0.182146 0.877300
v -0.199950 -0.203846 0.877300
v -0.209250 -0.203846 0.877300
v -0.220100 -0.192608 0.837000
v -0.201500 -0.196871 0.833900
v -0.201500 -0.217021 0.833900
v -0.217000 -0.215858 0.837000
v -0.229400 -0.193383 0.818400
v -0.223200 0.003526 0.784300
v -0.213900 0.001369 0.781200
v -0.204600 -0.000518 0.787400
v 0.209250 0.186796 0.877300
v 0.199950 0.185246 0.877300
v 0.199950 0.163546 0.877300
v 0.209250 0.163546 0.877300
v 0.220100 0.205008 0.837000
v 0.201500 0.203071 0.833900
v 0.201500 0.182921 0.833900
v 0.217000 0.181758 0.837000
v 0.229400 0.218183 0.818400
v 0.223200 -0.009726 0.786430
v 0.213900 -0.013769 0.783633
v 0.204600 -0.011882 0.789226
vn 0.2930 0.9141 -0.2802
vn -0.8282 0.5444 -0.1330
vn -0.9968 0.0724 0.0329
vn -0.9964 0.0819 0.0205
vn -0.2900 -0.9409 0.1749
vn -0.3321 -0.8763 0.3491
vn -0.5476 -0.8121 0.2014
vn 0.2638 0.9067 -0.3291
vn -0.9255 0.3738 0.0606
vn -0.9973 0.0176 -0.0713
vn -0.4352 0.8993 0.0429
vn -0.5251 -0.8508 0.0205
vn -0.4677 0.8826 0.0483
vn -0.9184 0.3955 0.0045
vn -0.1184 -0.9900 0.0770
vn -0.4991 -0.8629 0.0800
vn -0.9974 0.0639 0.0326
vn -0.4785 -0.8087 0.3421
vn -0.4663 -0.8433 0.2673
vn -0.7600 -0.6497 0.0192
vn -0.4857 -0.8056 0.3393
vn -0.5370 -0.7915 0.2917
vn -0.6015 -0.7572 0.2547
vn -0.3580 -0.8729 0.3315
vn 0.4235 0.8670 -0.2626
vn 0.1939 0.9362 -0.2931
vn -0.6841 -0.7051 0.1866
vn -0.4510 -0.8497 0.2732
vn -0.8420 0.5166 -0.1554
vn -0.9885 0.1510 -0.0060
vn -0.9015 0.4142 -0.1252
vn -0.9867 0.1624 -0.0096
vn -0.3704 -0.8741 0.3143
vn -0.5083 0.8213 -0.2590
vn -0.9988 0.0482 0.0035
vn -0.6323 -0.7280 0.2650
vn -0.5924 0.7931 -0.1417
vn -0.3088 0.3283 0.8927
vn -0.9618 0.1994 -0.1876
vn -0.5730 0.6015 -0.5567
vn -0.5766 -0.2985 -0.7606
vn 0.8165 0.1320 0.5621
vn 0.3261 -0.4290 -0.8424
vn 0.9977 -0.0447 -0.0509
vn 0.2864 0.2782 0.9168
vn 0.7027 0.7009 -0.1221
vn -0.8449 0.3016 0.4418
vn 0.6957 -0.1274 0.7070
vn 0.7172 0.4660 -0.5181
vn -0.0651 -0.5747 -0.8158
vn -0.9510 0.1760 -0.2543
vn -0.2181 -0.6394 -0.7372
vn -0.7257 0.0817 0.6831
vn -0.3911 -0.1675 0.9050
vn 0.3883 -0.2451 0.8884
vn 0.6317 0.5597 0.5363
vn -0.4528 0.7272 0.5160
vn -0.6652 -0.7203 0.1966
vn 0.2595 0.4411 0.8591
vn -0.6720 -0.7068 0.2211
vn -0.3843 -0.4388 0.8122
vn 0.4981 -0.4242 0.7562
vn 0.5236 0.4166 0.7432
vn 0.6847 -0.2707 0.6767
vn -0.4658 -0.5408 -0.7004
vn 0.4619 -0.3655 0.8081
vn -0.9533 0.2218 -0.2049
vn 0.6470 -0.1566 0.7463
vn 0.9926 0.0087 -0.1211
vn 0.4124 -0.4093 -0.8139
vn -0.0065 0.4656 0.8850
vn -0.7307 -0.0978 0.6757
vn -0.6475 -0.1817 0.7400
vn -0.6910 -0.3030 0.6563
vn -0.3208 0.7372 0.5947
vn -0.2612 -0.5072 -0.8213
vn 0.9894 -0.0435 -0.1387
vn 0.3625 0.2739 0.8908
vn -0.5152 -0.8283 0.2204
vn 0.6027 0.4077 0.6859
vn -0.9820 0.1779 -0.0628
vn 0.6628 -0.2810 0.6941
vn 0.3758 0.8770 -0.2995
vn -0.8598 0.4790 -0.1767
vn -0.5358 -0.5991 0.5949
vn -0.5178 -0.6916 -0.5036
vn 0.5205 -0.6021 0.6055
vn 0.4043 -0.7747 -0.4861
vn -0.7011 -0.3376 -0.6281
vn 0.6896 -0.3748 -0.6197
vn -0.0561 -0.9969 0.0549
vn 0.0033 0.9944 0.1056
vn 0.0046 -0.9999 -0.0153
vn 0.1262 0.9535 0.2738
vn -0.4495 0.8521 -0.2680
vn 0.4624 0.8435 -0.2732
vn 0.9276 0.2185 -0.3030
vn -0.9276 0.2335 -0.2915
vn -0.9050 -0.2471 -0.3462
vn 0.9064 -0.2386 -0.3486
vn 0.2450 -0.9473 -0.2064
vn -0.2460 -0.9468 -0.2074
vn -0.1140 0.9808 0.1581
vn 0.1183 0.9801 0.1592
vn -0.0017 0.9988 -0.0494
vn -0.0002 0.9642 -0.2652
vn -0.5390 -0.8093 -0.2334
vn 0.5420 -0.8069 -0.2347
vn 0.6823 0.7203 0.1254
vn 0.8206 0.5437 0.1761
vn 0.9940 0.0749 0.0796
vn 0.9914 0.1118 0.0676
vn 0.3640 -0.9049 -0.2206
vn -0.4274 -0.8703 -0.2447
vn 0.0097 -0.9978 -0.0651
vn 0.9066 0.3918 0.1566
vn 0.9980 0.0139 -0.0610
vn 0.4767 0.8392 0.2618
vn 0.5336 -0.8455 0.0209
vn 0.4643 0.8837 0.0588
vn 0.9225 0.3855 0.0210
vn 0.1167 -0.9905 0.0721
vn 0.4657 -0.8850 0.0016
vn 0.9962 0.0720 0.0496
vn 0.5201 -0.8339 -0.1847
vn 0.4172 -0.8871 -0.1974
vn 0.7520 -0.6545 -0.0786
vn 0.5292 -0.8306 -0.1736
vn 0.9985 0.0517 0.0184
vn -0.4682 -0.8655 -0.1778
vn 0.3954 -0.8893 -0.2300
vn 0.7387 0.6437 0.2000
vn 0.7799 0.6022 0.1707
vn 0.8777 0.4661 0.1109
vn -0.5018 -0.8233 -0.2653
vn 0.4608 -0.8469 -0.2654
vn 0.8471 0.5037 0.1695
vn 0.9839 0.1568 0.0856
vn 0.8989 0.4139 0.1440
vn 0.9834 0.1649 0.0754
vn 0.4036 -0.8807 -0.2480
vn 0.5100 0.8204 0.2586
vn 0.5741 -0.7919 -0.2082
vn 0.6585 -0.7248 -0.2028
vn 0.5763 0.7862 0.2233
vn 0.3027 0.2626 0.9162
vn -0.1826 -0.3603 -0.9148
vn 0.9739 0.2189 -0.0607
vn 0.5451 0.8221 -0.1642
vn 0.9717 0.2283 -0.0600
vn -0.6413 0.1369 0.7549
vn -0.9957 -0.0231 -0.0897
vn -0.3104 0.2189 0.9251
vn -0.6927 0.6935 0.1981
vn 0.6568 0.2679 0.7049
vn -0.7832 -0.1749 0.5967
vn 0.0607 -0.4566 -0.8876
vn -0.6929 0.6910 -0.2058
vn 0.2138 -0.4291 -0.8776
vn 0.1933 -0.5132 -0.8362
vn 0.7321 0.0674 0.6779
vn 0.3467 -0.3722 0.8610
vn -0.4006 -0.4146 0.8171
vn -0.6578 0.4030 0.6363
vn 0.4549 0.5458 0.7037
vn -0.0305 0.2741 0.9612
vn -0.2413 0.3678 0.8980
vn -0.7806 -0.3303 0.5306
vn -0.6635 -0.5176 0.5402
vn -0.8479 -0.3458 0.4019
vn -0.9951 0.0120 -0.0977
vn 0.3858 -0.4542 -0.8030
vn -0.7982 -0.3145 0.5137
vn -0.4417 0.3645 0.8198
vn -0.5274 -0.5160 0.6750
vn 0.4206 -0.2608 -0.8690
vn -0.8251 -0.2003 0.5283
vn 0.3473 0.2997 0.8886
vn -0.3208 -0.3628 -0.8749
vn -0.4885 0.0095 0.8725
vn 0.8360 -0.2433 0.4919
vn 0.1733 0.5614 0.8092
vn -0.4600 -0.2433 0.8539
vn 0.9752 0.1807 -0.1274
vn -0.9874 -0.0435 -0.1524
vn -0.3516 -0.8856 -0.3034
vn 0.4773 -0.8285 -0.2929
vn 0.9826 0.1786 0.0508
vn 0.6840 -0.6938 -0.2255
vn -0.5404 0.3556 0.7626
vn 0.9047 0.4106 0.1140
vn 0.8701 0.4753 0.1308
vn 0.5298 -0.7389 0.4163
vn 0.4950 -0.5278 -0.6902
vn -0.4822 -0.7577 0.4397
vn -0.4428 -0.5894 -0.6757
vn 0.6532 -0.2978 -0.6961
vn -0.6567 -0.3038 -0.6903
vn 0.4974 0.7240 -0.4780
vn 0.8735 -0.0164 -0.4865
vn -0.7295 -0.4236 -0.5370
vn -0.4954 0.7280 -0.4739
vn -0.8655 -0.0176 -0.5006
vn 0.7514 -0.4165 -0.5117
vn 0.9005 0.4182 0.1194
vn -0.9032 0.4115 0.1223
vn -0.5833 0.7954 0.1647
vn -0.5466 0.7884 -0.2821
vn 0.5713 0.8040 0.1650
vn 0.5596 0.7803 -0.2792
vn -0.8909 0.1999 -0.4079
vn 0.9021 0.1995 -0.3826
vn -0.6656 -0.7286 0.1616
vn 0.6671 -0.7267 0.1639
vn 0.0005 -0.9901 0.1404
vn -0.0014 0.9907 0.1363
vn 0.0035 0.9813 -0.1923
vn -0.0017 0.9136 -0.4066
vn -0.0006 -0.9866 -0.1633
vn -0.4893 -0.8454 -0.2142
vn 0.4854 -0.8477 -0.2140
vn 0.9717 -0.2037 0.1196
vn -0.9724 -0.2047 0.1119
vn -0.9919 -0.1266 0.0043
vn 0.9832 -0.1801 -0.0285
vn 0.9580 -0.0986 0.2694
vn -0.9601 -0.0846 0.2666
vn 0.6118 -0.6526 0.4471
vn -0.6203 -0.6444 0.4471
vn 0.0009 -0.8457 0.5337
vn 0.3389 -0.8225 0.4568
vn -0.3389 -0.8218 0.4580
vn -0.3694 -0.9149 -0.1627
vn 0.3588 -0.9184 -0.1664
vn -0.9410 -0.2663 0.2089
vn 0.9345 -0.2869 0.2107
vn 0.0012 -0.9772 -0.2122
vn 0.0004 -0.8692 0.4945
vn 0.8877 0.3693 0.2750
vn -0.9005 0.3377 0.2741
vn 0.5590 0.8169 0.1424
vn -0.5756 0.8049 0.1443
vn -0.0007 0.9998 -0.0185
vn 0.3366 0.7355 -0.5880
vn -0.3439 0.7359 -0.5833
vn -0.1288 -0.6227 -0.7718
vn 0.7123 -0.6292 -0.3110
vn -0.2763 -0.8484 -0.4515
vn 0.1252 -0.6300 -0.7665
vn -0.7098 -0.6298 -0.3154
vn 0.2765 -0.8478 -0.4525
vn 0.5186 0.8548 -0.0203
vn -0.5268 0.8498 -0.0178
vn 0.8489 0.4207 0.3200
vn -0.9343 -0.2815 0.2189
vn 0.2216 0.5906 -0.7759
vn -0.2203 0.5893 -0.7773
vn -0.1538 -0.5560 -0.8168
vn 0.9207 -0.2743 0.2778
vn -0.0071 -0.8873 -0.4612
vn 0.1513 -0.5549 -0.8181
vn -0.0224 -0.8731 -0.4870
vn -0.9024 -0.2897 0.3190
vn 0.2453 0.9090 -0.3370
vn 0.8783 0.4166 0.2347
vn -0.8904 0.3980 0.2210
vn -0.2417 0.9100 -0.3370
vn 0.9409 -0.2677 0.2074
vn -0.6524 -0.0038 -0.7578
vn -0.8518 0.4045 0.3329
vn 0.6586 -0.0104 -0.7524
vn -0.0008 0.9573 -0.2892
vn 0.8585 -0.3377 -0.3860
vn -0.8622 -0.3359 -0.3793
vn 0.7838 -0.4752 -0.3998
vn 0.8642 0.0055 -0.5032
vn -0.0536 0.7784 -0.6255
vn -0.7812 -0.4767 -0.4030
vn 0.0114 -0.5646 -0.8253
vn -0.0007 -0.9764 -0.2162
vn 0.3393 0.7603 -0.5539
vn -0.3432 0.7651 -0.5449
vn 0.0562 0.7691 -0.6366
vn -0.8627 0.0008 -0.5058
vn -0.0046 0.1264 -0.9920
vn -0.1762 -0.4271 -0.8868
vn -0.5123 0.1232 -0.8499
vn -0.1440 -0.0499 -0.9883
vn 0.1710 -0.4254 -0.8887
vn 0.5003 0.1254 -0.8567
vn 0.1440 -0.0504 -0.9883
vn -0.8609 0.5035 -0.0736
vn -0.2970 0.9268 -0.2299
vn 0.8795 0.4571 -0.1328
vn 0.7160 -0.6834 0.1425
vn -0.7021 -0.6986 0.1380
vn -0.7560 0.6456 -0.1081
vn -0.0375 0.9453 -0.3239
vn -0.3350 -0.8310 0.4442
vn -0.7028 -0.6047 0.3747
vn 0.9984 -0.0356 -0.0444
vn 0.7339 -0.6237 -0.2692
vn 0.7454 0.5713 -0.3436
vn 0.6300 -0.0835 -0.7721
vn 0.1710 -0.8803 -0.4426
vn 0.2762 0.8632 0.4226
vn -0.8293 -0.1110 -0.5476
vn -0.1242 -0.9335 0.3364
vn 0.3125 0.9106 -0.2706
vn 0.9823 0.1557 -0.1043
vn 0.4469 -0.8366 0.3170
vn -0.0027 -0.9211 0.3894
vn 0.6065 -0.6474 0.4616
vn 0.2011 0.9331 -0.2982
vn 0.2511 -0.9508 0.1813
vn 0.6534 0.7493 0.1080
vn -0.0099 0.9481 0.3178
vn -0.8393 0.5305 0.1190
vn -0.7473 -0.6329 -0.2023
vn 0.8878 -0.4505 -0.0940
vn 0.7311 0.5980 0.3284
vn 0.0456 0.9331 0.3568
vn 0.2991 -0.9319 -0.2050
vn 0.7338 -0.6685 -0.1210
vn -0.9936 -0.0604 -0.0956
vn -0.7442 -0.5753 -0.3394
vn -0.7298 0.6325 -0.2594
vn -0.6299 -0.0837 -0.7722
vn -0.1743 -0.8508 -0.4958
vn -0.5186 0.7759 0.3592
vn 0.8261 -0.0652 -0.5597
vn 0.5987 -0.7943 -0.1030
vn -0.3078 0.9345 0.1789
vn -0.9873 0.1566 0.0269
vn -0.4002 -0.8577 -0.3228
vn -0.0130 -0.9471 -0.3206
vn -0.3725 -0.7375 0.5633
vn -0.2046 0.9483 -0.2425
vn -0.2260 -0.9449 -0.2370
vn 0.7090 0.6059 0.3608
vn 0.0234 0.9023 0.4304
vn 0.0436 -0.8754 -0.4815
vn 0.7179 -0.6318 -0.2922
vn 0.7959 0.5135 0.3209
vn 0.1448 0.8802 0.4520
vn 0.1487 -0.8902 -0.4307
vn 0.7249 -0.6641 -0.1830
vn 0.5318 0.4286 0.7304
vn 0.5056 -0.7805 0.3678
vn -0.1163 -0.9920 0.0499
vn -0.0983 0.7102 0.6971
vn -0.9940 0.0896 -0.0626
vn 0.1325 -0.2268 0.9649
vn 0.0644 0.8890 0.4534
vn -0.9786 0.1904 -0.0778
vn -0.9735 0.0170 -0.2280
vn -0.8165 0.5411 0.2015
vn -0.8988 -0.3919 -0.1965
vn -0.9449 -0.1008 0.3115
vn -0.9648 -0.0077 0.2628
vn -0.6751 -0.1304 0.7261
vn -0.7386 0.6654 -0.1086
vn -0.0138 0.9734 -0.2287
vn -0.0702 -0.9819 0.1760
vn -0.7131 -0.6733 0.1955
vn -0.8152 0.5774 -0.0441
vn -0.1578 0.9612 -0.2264
vn -0.1770 -0.9611 0.2123
vn -0.6990 -0.6625 0.2694
vn -0.4973 0.6829 0.5350
vn -0.5165 -0.5587 0.6489
vn 0.0875 -0.7961 0.5989
vn 0.1375 0.9570 0.2553
vn 0.9909 0.0567 -0.1219
vn 0.6374 -0.1205 0.7610
vn -0.0621 0.9912 -0.1168
vn 0.9384 0.2233 -0.2638
vn 0.9808 0.0133 -0.1947
vn 0.8179 0.5410 -0.1959
vn 0.9103 -0.4079 0.0706
vn 0.9714 -0.0713 0.2263
vn 0.9325 -0.0052 0.3612
vn -0.1324 -0.0660 0.9890
vn 0.0606 0.1298 0.9897
vn 0.3363 0.4086 0.8485
vn 0.6985 0.3530 -0.6225
vn 0.4993 -0.8662 -0.0191
vn -0.2692 0.3112 -0.9114
vn 0.7709 -0.6339 -0.0616
vn -0.4509 -0.2476 0.8575
vn -0.6393 0.4093 0.6510
vn -0.2998 0.6933 -0.6553
vn -0.7382 -0.6675 -0.0975
vn 0.7793 -0.5548 -0.2914
vn -0.4620 -0.8653 -0.1943
vn -0.9655 -0.2579 -0.0353
vn 0.9694 -0.2311 -0.0829
vn 0.9386 0.1108 -0.3268
vn -0.9555 -0.2707 0.1169
vn 0.9718 -0.2339 0.0311
vn -0.9361 0.1252 -0.3287
vn -0.4860 -0.8663 0.1156
vn 0.6378 -0.7551 0.1520
vn 0.3851 -0.4827 0.7865
vn 0.8345 -0.5399 0.1102
vn -0.3835 -0.9235 -0.0116
vn -0.6444 -0.7500 0.1494
vn -0.4147 -0.5949 0.6886
vn -0.3841 -0.4843 0.7860
vn -0.8337 -0.5413 0.1093
vn -0.9034 -0.4281 0.0261
vn -0.7300 -0.6670 0.1492
vn -0.0004 -0.9998 0.0216
vn 0.7345 -0.6640 0.1400
vn 0.3874 -0.9219 -0.0107
vn 0.4102 -0.5645 0.7163
vn 0.9041 -0.4264 0.0262
vn -0.5031 -0.3433 -0.7931
vn 0.6281 -0.0674 -0.7752
vn 0.8315 0.5193 -0.1973
vn -0.8222 0.5476 -0.1556
vn 0.8025 -0.0119 -0.5966
vn -0.7897 -0.0264 -0.6129
vn 0.9383 -0.3382 -0.0717
vn -0.9116 -0.4060 0.0650
vn 0.0870 0.9962 0.0017
vn -0.3420 0.9397 0.0068
vn 0.0071 0.5362 0.8441
vn 0.7590 -0.5910 0.2734
vn -0.7205 -0.6473 0.2489
vn -0.7865 -0.4261 -0.4471
vn 0.8096 -0.4422 -0.3860
vn 0.9309 0.3583 0.0707
vn -0.9303 0.3621 0.0586
vn 0.5403 0.1945 0.8187
vn -0.5411 0.1933 0.8184
vn 0.3881 -0.6369 -0.6661
vn 0.5074 -0.8614 -0.0237
vn -0.5046 -0.8629 -0.0276
vn 0.9160 -0.3901 0.0936
vn -0.8739 -0.4313 0.2242
vn 0.6512 -0.7443 0.1482
vn -0.6465 -0.7489 0.1455
vn 0.0359 -0.7245 0.6883
vn 0.7054 -0.4441 0.5524
vn 0.8782 0.3370 0.3395
vn 0.0218 0.8328 -0.5531
vn 0.7099 0.0807 -0.6997
vn 0.6803 0.7329 -0.0019
vn -0.5193 0.8434 -0.1381
vn 0.6862 0.6812 -0.2551
vn 0.7730 -0.6144 0.1577
vn -0.6646 -0.6596 0.3511
vn -0.4315 0.8997 -0.0658
vn 0.7110 0.3228 -0.6247
vn 0.7528 -0.6381 0.1617
vn -0.5532 -0.7447 0.3733
vn 0.5655 -0.0877 -0.8200
vn 0.3624 -0.1144 0.9250
vn 0.0764 -0.7644 0.6402
vn -0.2042 -0.9789 0.0084
vn 0.6504 0.6271 0.4286
vn -0.8367 0.5164 0.1826
vn -0.5903 -0.7284 -0.3477
vn 0.5497 -0.8019 -0.2342
vn 0.7272 0.4042 0.5548
vn -0.6353 0.7148 0.2925
vn -0.4341 -0.3237 -0.8407
vn 0.6274 -0.4346 -0.6461
vn 0.8356 -0.0192 0.5491
vn 0.3201 0.0572 -0.9457
vn 0.4267 -0.8923 0.1471
vn 0.1969 -0.7822 0.5911
vt 0.668374 0.462048
vt 0.664061 0.375115
vt 0.631228 0.349030
vt 0.661716 0.340867
vt 0.908894 0.361927
vt 0.966853 0.462122
vt 0.919749 0.502057
vt 0.962539 0.375196
vt 0.909012 0.317871
vt 0.959384 0.315263
vt 0.882691 0.311043
vt 0.881071 0.348219
vt 0.960196 0.340953
vt 0.888224 0.099266
vt 0.906937 0.099274
vt 0.630474 0.309387
vt 0.660905 0.315175
vt 0.654861 0.245730
vt 0.658427 0.099183
vt 0.625060 0.099238
vt 0.967359 0.099295
vt 0.608709 0.244796
vt 0.556299 0.309465
vt 0.564220 0.099251
vt 0.909640 0.304721
vt 0.548997 0.246295
vt 0.644248 0.079569
vt 0.615935 0.044744
vt 0.613094 0.078650
vt 0.652200 0.052129
vt 0.867658 0.066900
vt 0.961134 0.052246
vt 0.898845 0.080139
vt 0.865154 0.048552
vt 0.966858 0.044774
vt 0.602231 0.006990
vt 0.597808 0.025151
vt 0.595512 0.035442
vt 0.559656 0.056784
vt 0.593329 0.044742
vt 0.560159 0.048435
vt 0.564096 0.078648
vt 0.558902 0.069569
vt 0.609417 0.017104
vt 0.603528 0.017103
vt 0.613273 0.035445
vt 0.660257 0.003132
vt 0.620289 0.025151
vt 0.657926 0.044657
vt 0.557550 0.003132
vt 0.612358 0.007090
vt 0.926626 0.026396
vt 0.969190 0.003252
vt 0.937053 0.034663
vt 0.885342 0.036922
vt 0.896369 0.027137
vt 0.927403 0.017549
vt 0.895181 0.017549
vt 0.862542 0.003252
vt 0.888360 0.079682
vt 0.888292 0.085084
vt 0.906924 0.085091
vt 0.967307 0.085112
vt 0.953181 0.079682
vt 0.658375 0.084999
vt 0.624909 0.085049
vt 0.564158 0.085062
vt 0.555504 0.347276
vt 0.611114 0.570117
vt 0.666297 0.593332
vt 0.580606 0.555737
vt 0.551306 0.544664
vt 0.924017 0.590870
vt 0.965556 0.593390
vt 0.923772 0.602220
vt 0.872641 0.562297
vt 0.389001 0.375312
vt 0.383417 0.462232
vt 0.431277 0.349013
vt 0.391456 0.315178
vt 0.390946 0.340967
vt 0.496753 0.347257
vt 0.500159 0.544379
vt 0.738650 0.462304
vt 0.744234 0.375393
vt 0.795736 0.361963
vt 0.821350 0.311043
vt 0.822486 0.348219
vt 0.795738 0.317897
vt 0.746177 0.341054
vt 0.746686 0.315265
vt 0.791049 0.502316
vt 0.817034 0.099341
vt 0.797547 0.099347
vt 0.431317 0.309433
vt 0.405248 0.245941
vt 0.431306 0.099311
vt 0.388410 0.099257
vt 0.738434 0.099368
vt 0.452243 0.245105
vt 0.495303 0.309510
vt 0.488133 0.099326
vt 0.795095 0.304657
vt 0.502529 0.246498
vt 0.843876 0.066927
vt 0.744534 0.052273
vt 0.846427 0.048515
vt 0.394510 0.052157
vt 0.442321 0.044858
vt 0.388826 0.044620
vt 0.449043 0.017203
vt 0.444759 0.035553
vt 0.463095 0.035550
vt 0.464929 0.044858
vt 0.402451 0.079662
vt 0.443255 0.078743
vt 0.805602 0.080233
vt 0.461102 0.025251
vt 0.456773 0.007090
vt 0.488238 0.078741
vt 0.495813 0.069662
vt 0.496078 0.056812
vt 0.437638 0.025251
vt 0.386251 0.003233
vt 0.497698 0.003233
vt 0.495117 0.048398
vt 0.446180 0.007189
vt 0.455514 0.017203
vt 0.773790 0.034627
vt 0.738852 0.044738
vt 0.736276 0.003351
vt 0.784862 0.026360
vt 0.783613 0.017649
vt 0.814585 0.027101
vt 0.815303 0.017648
vt 0.849008 0.003351
vt 0.825371 0.036886
vt 0.752474 0.079775
vt 0.388381 0.085000
vt 0.431472 0.085049
vt 0.738407 0.085112
vt 0.797501 0.085093
vt 0.816751 0.079775
vt 0.816892 0.085085
vt 0.488186 0.085063
vt 0.377775 0.593356
vt 0.441399 0.569989
vt 0.472104 0.555459
vt 0.782239 0.590964
vt 0.831777 0.561492
vt 0.781587 0.602226
vt 0.745492 0.593413
vt 0.525363 0.632487
vt 0.471783 0.670604
vt 0.526242 0.670613
vt 0.526069 0.587633
vt 0.583887 0.632484
vt 0.585804 0.584902
vt 0.466924 0.632478
vt 0.444407 0.645019
vt 0.426268 0.672548
vt 0.438935 0.588915
vt 0.466327 0.584895
vt 0.580703 0.670606
vt 0.608523 0.645259
vt 0.622910 0.672552
vt 0.668097 0.682066
vt 0.666523 0.647339
vt 0.612783 0.588861
vt 0.815048 0.602215
vt 0.373777 0.647333
vt 0.926617 0.647393
vt 0.898734 0.644727
vt 0.852591 0.682106
vt 0.807156 0.644727
vt 0.779231 0.647387
vt 0.922730 0.682115
vt 0.377142 0.682077
vt 0.789692 0.682124
vt 0.890311 0.602211
vt 0.496190 0.564140
vt 0.554809 0.564133
vt 0.572718 0.700687
vt 0.602953 0.736147
vt 0.656897 0.733528
vt 0.480123 0.700857
vt 0.398346 0.733885
vt 0.453882 0.736356
vt 0.415607 0.699417
vt 0.638594 0.699320
vt 0.525714 0.700779
vt 0.526314 0.736259
vt 0.918753 0.730626
vt 0.958499 0.733571
vt 0.752483 0.733928
vt 0.793668 0.730628
vt 0.852578 0.729168
vt 0.958456 0.699367
vt 0.751486 0.699464
vt 0.730611 0.813893
vt 0.978713 0.813891
vt 0.787024 0.778589
vt 0.927809 0.778589
vt 0.852580 0.791958
vt 0.394730 0.813858
vt 0.429554 0.842688
vt 0.660960 0.813857
vt 0.627520 0.842687
vt 0.526260 0.847268
vt 0.852828 0.822375
vt 0.833877 0.904316
vt 0.793210 0.824014
vt 0.786419 0.927978
vt 0.728936 0.927268
vt 0.788864 0.799466
vt 0.761870 0.818950
vt 0.872074 0.904302
vt 0.959721 0.871026
vt 0.976737 0.901396
vt 0.919726 0.927913
vt 0.978366 0.927256
vt 0.920509 0.824013
vt 0.925940 0.799465
vt 0.956502 0.818950
vt 0.852564 0.801105
vt 0.755581 0.870948
vt 0.981905 0.865708
vt 0.396499 0.865697
vt 0.418155 0.871466
vt 0.638480 0.871519
vt 0.526867 0.932697
vt 0.671145 0.902822
vt 0.383684 0.902904
vt 0.489964 0.927955
vt 0.730553 0.901411
vt 0.405151 0.947243
vt 0.563275 0.927890
vt 0.895681 0.983544
vt 0.853214 0.976779
vt 0.786858 0.993783
vt 0.810747 0.983544
vt 0.543331 0.993585
vt 0.510405 0.993768
vt 0.919781 0.993601
vt 0.852752 0.996746
vt 0.526301 0.996731
vt 0.732354 0.865728
vt 0.651742 0.947231
vt 0.657287 0.865679
vt 0.066740 0.176497
vt 0.035398 0.186385
vt 0.042062 0.252520
vt 0.077461 0.252238
vt 0.116589 0.178051
vt 0.127096 0.237596
vt 0.135413 0.194093
vt 0.148681 0.236977
vt 0.099309 0.048764
vt 0.117948 0.049872
vt 0.075097 0.052822
vt 0.055808 0.053898
vt 0.263893 0.196070
vt 0.300431 0.194093
vt 0.303700 0.236977
vt 0.237079 0.242520
vt 0.220415 0.186385
vt 0.230826 0.053898
vt 0.272965 0.049872
vt 0.086577 0.045153
vt 0.251594 0.045153
vt 0.045295 0.285028
vt 0.045199 0.415122
vt 0.078257 0.263149
vt 0.166608 0.407499
vt 0.128390 0.256591
vt 0.134532 0.418803
vt 0.149929 0.257682
vt 0.321626 0.407499
vt 0.289986 0.407532
vt 0.304946 0.257682
vt 0.246452 0.410085
vt 0.230313 0.285028
vt 0.239043 0.253155
vt 0.080041 0.418712
vt 0.044026 0.263155
vt 0.292337 0.446929
vt 0.167705 0.450317
vt 0.107476 0.469211
vt 0.164657 0.484011
vt 0.270969 0.467464
vt 0.298262 0.495864
vt 0.252519 0.446513
vt 0.276823 0.499941
vt 0.221885 0.479858
vt 0.219643 0.449151
vt 0.252593 0.501997
vt 0.044626 0.449151
vt 0.104282 0.425329
vt 0.046868 0.479858
vt 0.322724 0.450317
vt 0.220217 0.415122
vt 0.140303 0.242826
vt 0.067192 0.853732
vt 0.043841 0.772477
vt 0.035780 0.843759
vt 0.075394 0.772848
vt 0.117041 0.852117
vt 0.127412 0.792626
vt 0.135784 0.835963
vt 0.148952 0.793164
vt 0.099908 0.981421
vt 0.118518 0.980268
vt 0.075691 0.977399
vt 0.056372 0.976275
vt 0.264236 0.833979
vt 0.303970 0.793164
vt 0.300801 0.835962
vt 0.238857 0.787677
vt 0.220798 0.843759
vt 0.231389 0.976275
vt 0.273535 0.980268
vt 0.251796 0.985025
vt 0.086778 0.985025
vt 0.045548 0.745158
vt 0.076118 0.761789
vt 0.045275 0.615084
vt 0.080129 0.611513
vt 0.134617 0.611349
vt 0.130159 0.773506
vt 0.166681 0.622593
vt 0.151646 0.772329
vt 0.321698 0.622593
vt 0.306663 0.772329
vt 0.290015 0.622506
vt 0.240751 0.776897
vt 0.246489 0.620035
vt 0.230565 0.745156
vt 0.045734 0.761696
vt 0.219631 0.581074
vt 0.252476 0.583580
vt 0.167688 0.579817
vt 0.107575 0.561424
vt 0.044614 0.581074
vt 0.292288 0.583102
vt 0.322706 0.579817
vt 0.270915 0.562605
vt 0.104377 0.604879
vt 0.047506 0.551475
vt 0.252599 0.528154
vt 0.276895 0.530179
vt 0.298263 0.534218
vt 0.319842 0.545671
vt 0.220293 0.615084
vt 0.141320 0.787295
vt 0.164825 0.545671
vt 0.222524 0.551475
vt 0.319676 0.484011
vt 0.885065 0.576428
vt 0.848378 0.717557
vt 0.924389 0.860057
vt 0.663106 0.745258
vt 0.770361 0.860188
vt 0.243809 0.290626
vt 0.247549 0.189457
vt 0.255578 0.228157
vt 0.127474 0.369075
vt 0.215767 0.345663
vt 0.119383 0.159975
vt 0.001085 0.090787
vt 0.716677 0.928877
vt 0.582116 0.851091
vt 0.062195 0.827535
vt -0.075611 0.860057
vt -0.067589 0.993679
vt 0.166292 0.701863
vt 0.122872 0.586485
vt 0.876306 0.369879
vt 0.758812 0.232082
vt 0.789827 0.342169
vt 0.761528 0.291258
vt 0.757564 0.530525
vt 0.815743 0.462233
vt 0.247857 0.529862
vt 0.188349 0.461441
vt 0.443993 0.851737
vt 0.422121 0.962343
vt 0.549111 0.948944
vt 0.342823 0.724246
vt 0.269683 0.848956
vt 0.617215 0.325904
vt 0.535061 0.026625
vt 0.528766 0.288937
vt 0.497773 0.324131
vt 0.480302 0.288797
vt 0.491517 0.484691
vt 0.391391 0.325356
vt 0.474470 0.026464
vt 0.478819 0.455101
vt 0.411507 0.543693
vt 0.373612 0.451352
vt 0.504349 0.563706
vt 0.504477 0.278512
vt 0.439226 0.725239
vt 0.565973 0.728649
vt 0.596928 0.544199
vt 0.498087 0.296425
vt 0.517818 0.484767
vt 0.510712 0.324178
vt 0.510279 0.296468
vt 0.634655 0.451944
vt 0.530642 0.455240
vt -0.242281 0.190022
vt -0.111483 0.163390
vt 0.062829 0.410716
vt -0.059536 0.409665
vt 0.609053 0.075702
vt 0.757719 0.190022
vt 0.401610 0.075380
vt 0.636072 0.667663
vt 0.370326 0.665576
vt 0.932411 0.993679
vt 0.940464 0.409665
vt 0.888517 0.163390
vt 0.200000 0.400000
vt 0.250000 0.400000
vt 0.250000 0.300000
vt 0.200000 0.300000
vt 0.250000 0.350000
vt 0.250000 0.250000
vt 0.200000 0.350000
vt 0.200000 0.250000
vt 0.180000 0.220000
vt 0.200000 0.150000
vt 0.230000 0.150000
vt 0.260000 0.150000
s 1
usemtl npc_sari_mat.001
f 4/1/4 3/2/3 2/3/2
f 3/2/3 17/4/17 2/3/2
f 6/5/6 19/6/19 5/7/5
f 18/8/18 19/6/19 6/5/6
f 24/9/24 22/10/22 6/5/6
f 23/11/23 6/5/6 7/12/7
f 24/9/24 6/5/6 23/11/23
f 22/10/22 21/13/21 6/5/6
f 27/14/27 28/15/28 23/11/23
f 29/16/29 35/17/35 30/18/30
f 30/18/30 32/19/32 31/20/31
f 35/17/35 32/19/32 30/18/30
f 36/21/36 22/10/22 28/15/28
f 31/20/31 29/16/29 30/18/30
f 29/16/29 34/22/34 8/23/8
f 31/20/31 34/22/34 29/16/29
f 26/24/26 34/22/34 31/20/31
f 28/15/28 22/10/22 33/25/33
f 23/11/23 28/15/28 33/25/33
f 25/26/25 8/23/8 34/22/34
f 26/24/26 25/26/25 34/22/34
f 39/27/39 37/28/37 40/29/40
f 51/30/51 37/28/37 39/27/39
f 52/31/52 76/32/76 50/33/50
f 43/34/43 41/35/41 76/32/76
f 55/36/55 48/37/48 56/38/56
f 77/39/77 46/40/46 69/41/69
f 49/42/49 46/40/46 44/43/44
f 38/44/38 45/45/45 56/38/56
f 46/40/46 37/28/37 57/46/57
f 40/29/40 37/28/37 46/40/46
f 47/47/47 53/48/53 67/49/67
f 47/47/47 42/50/42 48/37/48
f 42/50/42 69/41/69 48/37/48
f 67/49/67 53/48/53 37/28/37
f 48/37/48 55/36/55 54/51/54
f 46/40/46 48/37/48 69/41/69
f 55/36/55 38/44/38 54/51/54
f 86/52/86 73/53/73 89/54/89
f 90/55/90 89/54/89 43/34/43
f 90/55/90 86/52/86 89/54/89
f 88/56/88 85/57/85 86/52/86
f 87/58/87 85/57/85 88/56/88
f 68/59/68 87/58/87 88/56/88
f 90/55/90 68/59/68 88/56/88
f 85/57/85 87/58/87 68/59/68
f 89/54/89 73/53/73 41/35/41
f 85/57/85 68/59/68 73/53/73
f 40/29/40 46/40/46 49/42/49
f 52/31/52 50/33/50 70/60/70
f 85/57/85 73/53/73 86/52/86
f 89/54/89 41/35/41 43/34/43
f 88/56/88 86/52/86 90/55/90
f 43/34/43 68/59/68 90/55/90
f 58/61/58 28/15/28 27/14/27
f 71/60/71 75/33/75 59/62/59
f 79/62/79 60/63/60 28/15/28
f 59/62/59 63/64/63 80/63/80
f 31/20/31 32/19/32 81/65/81
f 66/29/66 62/66/62 64/27/64
f 26/24/26 31/20/31 84/66/84
f 74/42/74 61/67/61 66/29/66
f 33/25/33 24/9/24 23/11/23
f 33/25/33 22/10/22 24/9/24
f 29/16/29 2/3/2 35/17/35
f 1/68/1 2/3/2 29/16/29
f 8/23/8 1/68/1 29/16/29
f 9/69/9 10/70/10 4/1/4
f 2/3/2 9/69/9 4/1/4
f 11/71/11 2/3/2 92/72/92
f 2/3/2 1/68/1 92/72/92
f 5/7/5 19/6/19 16/73/16
f 9/69/9 2/3/2 11/71/11
f 20/74/20 12/75/12 16/73/16
f 16/73/16 91/76/91 5/7/5
f 111/77/111 112/78/112 110/79/110
f 129/80/129 124/81/124 110/79/110
f 109/82/109 110/79/110 94/83/94
f 126/84/126 125/85/125 113/86/113
f 130/87/130 114/88/114 113/86/113
f 130/87/130 113/86/113 131/89/131
f 128/90/128 143/91/143 113/86/113
f 113/86/113 115/92/115 126/84/126
f 125/85/125 128/90/128 113/86/113
f 135/93/135 130/87/130 136/94/136
f 137/95/137 138/96/138 129/80/129
f 138/96/138 139/97/139 140/98/140
f 129/80/129 138/96/138 140/98/140
f 144/99/144 136/94/136 143/91/143
f 142/100/142 139/97/139 137/95/137
f 137/95/137 132/101/132 142/100/142
f 139/97/139 138/96/138 137/95/137
f 134/102/134 139/97/139 142/100/142
f 136/94/136 141/103/141 143/91/143
f 130/87/130 141/103/141 136/94/136
f 133/104/133 142/100/142 132/101/132
f 134/102/134 142/100/142 133/104/133
f 160/105/160 159/106/159 147/107/147
f 184/108/184 145/109/145 150/110/150
f 146/111/146 165/112/165 164/113/164
f 154/114/154 164/113/164 165/112/165
f 148/115/148 149/116/149 145/109/145
f 149/116/149 154/114/154 145/109/145
f 159/106/159 160/105/160 157/117/157
f 164/113/164 156/118/156 163/119/163
f 149/116/149 158/120/158 154/114/154
f 154/114/154 152/121/152 185/122/185
f 161/123/161 150/110/150 145/109/145
f 155/124/155 156/118/156 151/125/151
f 151/125/151 156/118/156 171/126/171
f 162/127/162 161/123/161 165/112/165
f 156/118/156 155/124/155 161/123/161
f 154/114/154 171/126/171 156/118/156
f 153/128/153 163/119/163 146/111/146
f 197/129/197 147/107/147 176/130/176
f 181/131/181 194/132/194 197/129/197
f 193/133/193 196/134/196 194/132/194
f 196/134/196 193/133/193 195/135/195
f 177/136/177 196/134/196 195/135/195
f 198/137/198 177/136/177 147/107/147
f 196/134/196 198/137/198 194/132/194
f 177/136/177 195/135/195 193/133/193
f 193/133/193 194/132/194 181/131/181
f 193/133/193 181/131/181 177/136/177
f 159/106/159 157/117/157 172/138/172
f 158/120/158 152/121/152 154/114/154
f 194/132/194 198/137/198 197/129/197
f 181/131/181 197/129/197 176/130/176
f 196/134/196 177/136/177 198/137/198
f 198/137/198 147/107/147 197/129/197
f 173/115/173 168/139/168 169/140/169
f 191/140/191 188/139/188 139/97/139
f 136/94/136 144/99/144 189/141/189
f 182/117/182 167/142/167 174/138/174
f 178/143/178 166/144/166 167/142/167
f 187/142/187 186/144/186 136/94/136
f 175/116/175 169/140/169 170/145/170
f 192/145/192 191/140/191 134/102/134
f 141/103/141 131/89/131 143/91/143
f 141/103/141 130/87/130 131/89/131
f 129/80/129 110/79/110 137/95/137
f 110/79/110 109/82/109 132/101/132
f 137/95/137 110/79/110 132/101/132
f 112/78/112 117/146/117 116/147/116
f 110/79/110 112/78/112 116/147/116
f 118/148/118 94/83/94 110/79/110
f 123/149/123 93/150/93 119/151/119
f 116/147/116 118/148/118 110/79/110
f 127/152/127 126/84/126 123/149/123
f 93/150/93 123/149/123 115/92/115
f 106/153/106 199/154/199 218/155/218
f 105/156/105 95/157/95 13/158/13
f 106/153/106 105/156/105 96/159/96
f 97/160/97 200/161/200 199/154/199
f 96/159/96 97/160/97 199/154/199
f 97/160/97 96/159/96 121/162/121
f 121/162/121 96/159/96 120/163/120
f 95/157/95 106/153/106 202/164/202
f 98/165/98 202/164/202 203/166/203
f 95/157/95 202/164/202 98/165/98
f 201/167/201 99/168/99 203/166/203
f 98/165/98 14/169/14 95/157/95
f 14/169/14 13/158/13 95/157/95
f 93/150/93 91/76/91 122/170/122
f 97/160/97 100/171/100 200/161/200
f 117/146/117 100/171/100 97/160/97
f 117/146/117 97/160/97 121/162/121
f 20/74/20 107/172/107 12/75/12
f 102/173/102 219/174/219 101/175/101
f 99/168/99 98/165/98 203/166/203
f 10/70/10 14/169/14 98/165/98
f 102/173/102 101/175/101 122/170/122
f 119/151/119 101/175/101 108/176/108
f 107/172/107 220/177/220 102/173/102
f 10/70/10 98/165/98 99/168/99
f 100/171/100 204/178/204 200/161/200
f 119/151/119 108/176/108 127/152/127
f 220/177/220 219/174/219 102/173/102
f 107/172/107 102/173/102 12/75/12
f 122/170/122 101/175/101 119/151/119
f 101/175/101 221/179/221 108/176/108
f 12/75/12 15/180/15 91/76/91
f 104/181/104 120/163/120 105/156/105
f 120/163/120 96/159/96 105/156/105
f 13/158/13 103/182/103 105/156/105
f 121/162/121 116/147/116 117/146/117
f 121/162/121 120/163/120 116/147/116
f 120/163/120 118/148/118 116/147/116
f 120/163/120 104/181/104 118/148/118
f 104/181/104 94/83/94 118/148/118
f 103/182/103 11/71/11 92/72/92
f 13/158/13 11/71/11 103/182/103
f 13/158/13 14/169/14 9/69/9
f 13/158/13 9/69/9 11/71/11
f 9/69/9 14/169/14 10/70/10
f 208/183/208 207/184/207 206/185/206
f 210/186/210 205/187/205 209/188/209
f 205/187/205 210/186/210 212/189/212
f 206/185/206 211/190/211 208/183/208
f 208/183/208 217/191/217 216/192/216
f 210/186/210 209/188/209 216/192/216
f 213/193/213 220/177/220 223/194/223
f 222/195/222 221/179/221 214/196/214
f 220/177/220 213/193/213 215/197/215
f 221/179/221 219/174/219 215/197/215
f 220/177/220 224/198/224 223/194/223
f 221/179/221 222/195/222 225/199/225
f 204/178/204 212/189/212 200/161/200
f 210/186/210 199/154/199 200/161/200
f 212/189/212 210/186/210 200/161/200
f 203/166/203 211/190/211 201/167/201
f 202/164/202 208/183/208 203/166/203
f 208/183/208 211/190/211 203/166/203
f 217/191/217 202/164/202 218/155/218
f 199/154/199 210/186/210 217/191/217
f 221/179/221 215/197/215 214/196/214
f 214/196/214 226/200/226 222/195/222
f 213/193/213 223/194/223 227/201/227
f 215/197/215 228/202/228 214/196/214
f 213/193/213 227/201/227 229/203/229
f 215/197/215 229/203/229 230/204/230
f 214/196/214 228/202/228 226/200/226
f 215/197/215 213/193/213 229/203/229
f 215/197/215 230/204/230 228/202/228
f 239/205/239 241/206/241 209/188/209
f 205/187/205 239/205/239 209/188/209
f 240/207/240 207/184/207 242/208/242
f 206/185/206 207/184/207 240/207/240
f 209/188/209 241/206/241 243/209/243
f 207/184/207 216/192/216 243/209/243
f 207/184/207 243/209/243 242/208/242
f 237/210/237 251/211/251 234/212/234
f 251/211/251 273/213/273 289/214/289
f 231/215/231 236/216/236 228/202/228
f 248/217/248 250/218/250 246/219/246
f 274/220/274 248/217/248 286/221/286
f 233/222/233 232/223/232 235/224/235
f 232/223/232 237/210/237 238/225/238
f 238/225/238 230/204/230 232/223/232
f 230/204/230 231/215/231 228/202/228
f 232/223/232 229/203/229 235/224/235
f 234/212/234 251/211/251 247/226/247
f 236/216/236 234/212/234 247/226/247
f 250/218/250 233/222/233 235/224/235
f 250/218/250 227/201/227 255/227/255
f 229/203/229 232/223/232 230/204/230
f 248/217/248 251/211/251 237/210/237
f 248/217/248 233/222/233 250/218/250
f 236/216/236 231/215/231 234/212/234
f 231/215/231 238/225/238 237/210/237
f 254/228/254 252/229/252 239/205/239
f 253/230/253 240/207/240 242/208/242
f 241/206/241 252/229/252 243/209/243
f 252/229/252 272/231/272 243/209/243
f 253/230/253 272/231/272 245/232/245
f 253/230/253 243/209/243 272/231/272
f 229/203/229 227/201/227 235/224/235
f 227/201/227 250/218/250 235/224/235
f 226/200/226 236/216/236 247/226/247
f 228/202/228 236/216/236 226/200/226
f 244/233/244 281/234/281 272/231/272
f 251/211/251 249/235/249 247/226/247
f 248/217/248 246/219/246 286/221/286
f 290/236/290 281/234/281 244/233/244
f 245/232/245 272/231/272 282/237/282
f 278/238/278 280/239/280 248/217/248
f 280/239/280 251/211/251 248/217/248
f 276/240/276 273/213/273 275/241/275
f 273/213/273 251/211/251 275/241/275
f 277/242/277 272/231/272 283/243/283
f 282/237/282 272/231/272 277/242/277
f 278/238/278 274/220/274 284/244/284
f 278/238/278 248/217/248 274/220/274
f 275/241/275 280/239/280 279/245/279
f 285/246/285 277/242/277 283/243/283
f 275/241/275 279/245/279 276/240/276
f 278/238/278 284/244/284 279/245/279
f 272/231/272 281/234/281 283/243/283
f 280/239/280 275/241/275 251/211/251
f 280/239/280 278/238/278 279/245/279
f 252/229/252 241/206/241 239/205/239
f 244/233/244 272/231/272 252/229/252
f 242/208/242 243/209/243 253/230/253
f 251/211/251 289/214/289 249/235/249
f 268/247/268 226/200/226 247/226/247
f 282/237/282 287/248/287 245/232/245
f 270/249/270 240/207/240 253/230/253
f 347/250/347 346/251/346 342/252/342
f 342/252/342 343/253/343 347/250/347
f 344/254/344 347/250/347 343/253/343
f 343/253/343 340/255/340 344/254/344
f 345/256/345 344/254/344 340/255/340
f 340/255/340 341/257/341 345/256/345
f 345/256/345 348/258/348 344/254/344
f 351/259/351 348/258/348 345/256/345
f 344/254/344 349/260/349 347/250/347
f 348/258/348 349/260/349 344/254/344
f 347/250/347 350/261/350 346/251/346
f 349/260/349 350/261/350 347/250/347
f 352/262/352 357/263/357 355/264/355
f 356/265/356 352/262/352 355/264/355
f 358/266/358 352/262/352 356/265/356
f 359/267/359 360/268/360 352/262/352
f 352/262/352 358/266/358 359/267/359
f 352/262/352 360/268/360 357/263/357
f 350/261/350 349/260/349 353/269/353
f 360/268/360 359/267/359 361/270/361
f 348/258/348 353/269/353 349/260/349
f 348/258/348 351/259/351 353/269/353
f 323/271/323 332/272/332 324/273/324
f 317/274/317 321/275/321 316/276/316
f 321/275/321 317/274/317 322/277/322
f 333/278/333 318/279/318 334/280/334
f 319/281/319 335/282/335 325/283/325
f 319/281/319 325/283/325 318/279/318
f 334/280/334 318/279/318 325/283/325
f 332/272/332 320/284/320 324/273/324
f 324/273/324 336/285/336 323/271/323
f 333/278/333 327/286/327 318/279/318
f 330/287/330 271/288/271 266/289/266
f 316/276/316 330/287/330 317/274/317
f 328/290/328 327/286/327 257/291/257
f 326/292/326 318/279/318 327/286/327
f 328/290/328 326/292/326 327/286/327
f 288/293/288 328/290/328 257/291/257
f 262/294/262 329/295/329 258/296/258
f 319/281/319 318/279/318 326/292/326
f 258/296/258 329/295/329 326/292/326
f 332/272/332 337/297/337 320/284/320
f 331/298/331 321/275/321 324/273/324
f 324/273/324 320/284/320 331/298/331
f 263/299/263 271/288/271 337/297/337
f 331/298/331 320/284/320 271/288/271
f 330/287/330 316/276/316 271/288/271
f 326/292/326 329/295/329 319/281/319
f 327/286/327 333/278/333 338/300/338
f 258/296/258 328/290/328 288/293/288
f 316/276/316 321/275/321 331/298/331
f 316/276/316 331/298/331 271/288/271
f 319/281/319 339/301/339 335/282/335
f 319/281/319 329/295/329 339/301/339
f 342/252/342 336/285/336 324/273/324
f 343/253/343 342/252/342 324/273/324
f 343/253/343 324/273/324 321/275/321
f 340/255/340 343/253/343 321/275/321
f 354/302/354 321/275/321 322/277/322
f 341/257/341 340/255/340 354/302/354
f 356/265/356 355/264/355 334/280/334
f 325/283/325 356/265/356 334/280/334
f 340/255/340 321/275/321 354/302/354
f 341/257/341 354/302/354 322/277/322
f 369/303/369 364/304/364 368/305/368
f 364/304/364 369/303/369 365/306/365
f 366/307/366 365/306/365 369/303/369
f 365/306/365 366/307/366 362/308/362
f 367/309/367 362/308/362 366/307/366
f 362/308/362 367/309/367 363/310/363
f 367/309/367 366/307/366 370/311/370
f 373/312/373 367/309/367 370/311/370
f 366/307/366 369/303/369 371/313/371
f 370/311/370 366/307/366 371/313/371
f 369/303/369 368/305/368 372/314/372
f 371/313/371 369/303/369 372/314/372
f 374/315/374 377/316/377 379/317/379
f 378/318/378 377/316/377 374/315/374
f 380/319/380 378/318/378 374/315/374
f 381/320/381 374/315/374 382/321/382
f 374/315/374 381/320/381 380/319/380
f 374/315/374 379/317/379 382/321/382
f 375/322/375 381/320/381 382/321/382
f 370/311/370 383/323/383 373/312/373
f 371/313/371 372/314/372 383/323/383
f 371/313/371 383/323/383 370/311/370
f 299/324/299 300/325/300 308/326/308
f 296/327/296 308/326/308 300/325/300
f 292/328/292 297/329/297 293/330/293
f 298/331/298 293/330/293 297/329/297
f 309/332/309 310/333/310 294/334/294
f 301/335/301 294/334/294 310/333/310
f 301/335/301 295/336/295 294/334/294
f 295/336/295 301/335/301 311/337/311
f 300/325/300 299/324/299 312/338/312
f 305/339/305 302/340/302 295/336/295
f 306/341/306 269/342/269 292/328/292
f 313/343/313 296/327/296 269/342/269
f 309/332/309 303/344/303 314/345/314
f 309/332/309 294/334/294 303/344/303
f 294/334/294 295/336/295 302/340/302
f 294/334/294 302/340/302 303/344/303
f 302/340/302 304/346/304 303/344/303
f 307/347/307 300/325/300 297/329/297
f 300/325/300 307/347/307 296/327/296
f 313/343/313 269/342/269 259/348/259
f 296/327/296 307/347/307 269/342/269
f 292/328/292 293/330/293 306/341/306
f 261/349/261 291/350/291 304/346/304
f 313/343/313 308/326/308 296/327/296
f 261/349/261 304/346/304 302/340/302
f 303/344/303 256/351/256 314/345/314
f 256/351/256 264/352/264 314/345/314
f 256/351/256 304/346/304 291/350/291
f 292/328/292 307/347/307 297/329/297
f 292/328/292 269/342/269 307/347/307
f 295/336/295 311/337/311 315/353/315
f 295/336/295 315/353/315 305/339/305
f 312/338/312 364/304/364 365/306/365
f 300/325/300 312/338/312 365/306/365
f 300/325/300 365/306/365 362/308/362
f 300/325/300 362/308/362 297/329/297
f 310/333/310 377/316/377 378/318/378
f 301/335/301 310/333/310 378/318/378
f 376/354/376 363/310/363 298/331/298
f 297/329/297 362/308/362 376/354/376
f 362/308/362 363/310/363 376/354/376
f 297/329/297 376/354/376 298/331/298
f 302/340/302 305/339/305 261/349/261
f 269/342/269 306/341/306 265/355/265
f 271/288/271 320/284/320 337/297/337
f 327/286/327 338/300/338 257/291/257
f 256/351/256 303/344/303 304/346/304
f 260/356/260 261/349/261 305/339/305
f 257/291/257 338/300/338 267/357/267
f 326/292/326 328/290/328 258/296/258
f 102/173/102 122/170/122 15/180/15
f 15/180/15 122/170/122 91/76/91
f 102/173/102 15/180/15 12/75/12
f 122/170/122 119/151/119 93/150/93
f 96/159/96 199/154/199 106/153/106
f 95/157/95 105/156/105 106/153/106
f 148/115/148 145/109/145 184/108/184
f 176/130/176 147/107/147 159/106/159
f 67/49/67 37/28/37 51/30/51
f 76/32/76 65/64/65 50/33/50
f 160/105/160 179/143/179 157/117/157
f 154/114/154 185/122/185 171/126/171
f 44/43/44 46/40/46 77/39/77
f 43/34/43 76/32/76 52/31/52
f 208/183/208 216/192/216 207/184/207
f 216/192/216 209/188/209 243/209/243
f 217/191/217 210/186/210 216/192/216
f 202/164/202 217/191/217 208/183/208
f 106/153/106 218/155/218 202/164/202
f 217/191/217 218/155/218 199/154/199
f 248/217/248 237/210/237 233/222/233
f 231/215/231 237/210/237 234/212/234
f 233/222/233 237/210/237 232/223/232
f 231/215/231 230/204/230 238/225/238
f 219/174/219 221/179/221 101/175/101
f 219/174/219 220/177/220 215/197/215
f 126/84/126 115/92/115 123/149/123
f 127/152/127 123/149/123 119/151/119
f 20/74/20 16/73/16 19/6/19
f 12/75/12 91/76/91 16/73/16
f 124/81/124 111/77/111 110/79/110
f 143/91/143 131/89/131 113/86/113
f 17/4/17 35/17/35 2/3/2
f 21/13/21 18/8/18 6/5/6
f 5/7/5 91/76/91 93/150/93
f 5/7/5 93/150/93 115/92/115
f 104/181/104 105/156/105 103/182/103
f 94/83/94 104/181/104 103/182/103
f 94/83/94 103/182/103 92/72/92
f 109/82/109 94/83/94 92/72/92
f 1/68/1 109/82/109 92/72/92
f 115/92/115 114/88/114 7/12/7
f 6/5/6 5/7/5 7/12/7
f 7/12/7 5/7/5 115/92/115
f 113/86/113 114/88/114 115/92/115
f 53/48/53 54/51/54 57/46/57
f 48/37/48 53/48/53 47/47/47
f 155/124/155 150/110/150 161/123/161
f 156/118/156 161/123/161 162/127/162
f 48/37/48 54/51/54 53/48/53
f 54/51/54 38/44/38 57/46/57
f 48/37/48 46/40/46 56/38/56
f 45/45/45 38/44/38 55/36/55
f 161/123/161 145/109/145 165/112/165
f 163/119/163 162/127/162 146/111/146
f 164/113/164 163/119/163 153/128/153
f 163/119/163 156/118/156 162/127/162
f 146/111/146 164/113/164 153/128/153
f 154/114/154 156/118/156 164/113/164
f 154/114/154 165/112/165 145/109/145
f 162/127/162 165/112/165 146/111/146
f 55/36/55 56/38/56 45/45/45
f 57/46/57 56/38/56 46/40/46
f 56/38/56 57/46/57 38/44/38
f 53/48/53 57/46/57 37/28/37
f 7/12/7 114/88/114 130/87/130
f 23/11/23 7/12/7 130/87/130
f 27/14/27 23/11/23 130/87/130
f 27/14/27 130/87/130 135/93/135
f 109/82/109 1/68/1 8/23/8
f 132/101/132 109/82/109 8/23/8
f 132/101/132 8/23/8 25/26/25
f 133/104/133 132/101/132 25/26/25
f 133/104/133 25/26/25 26/24/26
f 134/102/134 133/104/133 26/24/26
f 27/14/27 135/93/135 186/144/186
f 71/60/71 78/61/78 178/143/178
f 72/43/72 180/121/180 183/120/183
f 74/42/74 72/43/72 183/120/183
f 134/102/134 26/24/26 83/67/83
f 183/120/183 170/145/170 74/42/74
f 71/60/71 59/62/59 78/61/78
f 58/61/58 27/14/27 186/144/186
f 186/144/186 135/93/135 136/94/136
f 78/61/78 166/144/166 178/143/178
f 187/142/187 136/94/136 189/141/189
f 178/143/178 167/142/167 182/117/182
f 188/139/188 140/98/140 139/97/139
f 167/142/167 190/141/190 174/138/174
f 58/61/58 79/62/79 28/15/28
f 75/33/75 63/64/63 59/62/59
f 60/63/60 36/21/36 28/15/28
f 62/66/62 82/65/82 64/27/64
f 173/115/173 169/140/169 175/116/175
f 191/140/191 139/97/139 134/102/134
f 175/116/175 170/145/170 183/120/183
f 192/145/192 134/102/134 83/67/83
f 83/67/83 26/24/26 84/66/84
f 170/145/170 61/67/61 74/42/74
f 84/66/84 31/20/31 81/65/81
f 61/67/61 62/66/62 66/29/66
f 420/358/420 398/359/398 386/360/386
f 398/359/398 424/361/424 422/362/422
f 393/363/393 390/364/390 430/365/430
f 430/365/430 434/366/434 431/367/431
f 393/363/393 430/365/430 431/367/431
f 391/368/391 390/364/390 428/369/428
f 419/370/419 422/362/422 394/371/394
f 419/370/419 386/360/386 422/362/422
f 392/372/392 447/373/447 388/374/388
f 401/375/401 421/376/421 392/372/392
f 433/377/433 429/378/429 432/379/432
f 389/380/389 432/379/432 429/378/429
f 389/380/389 400/381/400 397/382/397
f 422/362/422 424/361/424 394/371/394
f 397/382/397 398/359/398 420/358/420
f 399/383/399 393/363/393 396/384/396
f 421/376/421 401/375/401 396/384/396
f 395/385/395 418/386/418 437/387/437
f 395/385/395 425/388/425 423/389/423
f 423/389/423 425/388/425 401/375/401
f 405/390/405 404/391/404 403/392/403
f 439/393/439 407/394/407 406/395/406
f 410/396/410 407/394/407 409/397/409
f 407/394/407 410/396/410 443/398/443
f 412/399/412 443/398/443 411/400/411
f 443/398/443 412/399/412 406/395/406
f 412/399/412 413/401/413 406/395/406
f 409/397/409 407/394/407 444/402/444
f 444/402/444 404/391/404 409/397/409
f 413/401/413 402/403/402 387/404/387
f 414/405/414 413/401/413 387/404/387
f 387/404/387 402/403/402 395/385/395
f 437/387/437 387/404/387 395/385/395
f 403/392/403 444/402/444 408/406/408
f 412/399/412 402/403/402 413/401/413
f 415/407/415 406/395/406 413/401/413
f 438/408/438 439/393/439 415/407/415
f 438/408/438 408/406/408 439/393/439
f 403/392/403 408/406/408 416/409/416
f 415/407/415 413/401/413 414/405/414
f 417/410/417 442/411/442 414/405/414
f 416/409/416 438/408/438 403/392/403
f 442/411/442 417/410/417 405/390/405
f 403/392/403 415/407/415 442/411/442
f 428/369/428 390/364/390 384/412/384
f 385/413/385 428/369/428 384/412/384
f 427/414/427 447/373/447 392/372/392
f 428/369/428 426/415/426 427/414/427
f 417/410/417 389/380/389 405/390/405
f 404/391/404 405/390/405 435/416/435
f 389/380/389 445/417/445 405/390/405
f 411/400/411 410/396/410 393/363/393
f 410/396/410 390/364/390 393/363/393
f 436/418/436 410/396/410 409/397/409
f 400/381/400 389/380/389 417/410/417
f 400/381/400 417/410/417 414/405/414
f 440/419/440 414/405/414 387/404/387
f 411/400/411 393/363/393 399/383/399
f 399/383/399 412/399/412 411/400/411
f 441/420/441 412/399/412 399/383/399
f 388/374/388 418/386/418 423/389/423
f 395/385/395 423/389/423 418/386/418
f 448/421/448 419/370/419 437/387/437
f 423/389/423 392/372/392 388/374/388
f 386/360/386 419/370/419 448/421/448
f 418/386/418 388/374/388 437/387/437
f 420/358/420 386/360/386 449/422/449
f 400/381/400 398/359/398 397/382/397
f 421/376/421 427/414/427 392/372/392
f 399/383/399 396/384/396 401/375/401
f 394/371/394 424/361/424 387/404/387
f 398/359/398 422/362/422 386/360/386
f 401/375/401 392/372/392 423/389/423
f 395/385/395 402/403/402 425/388/425
f 400/381/400 424/361/424 398/359/398
f 400/381/400 440/419/440 424/361/424
f 441/420/441 425/388/425 402/403/402
f 399/383/399 401/375/401 425/388/425
f 391/368/391 428/369/428 427/414/427
f 433/377/433 420/358/420 449/422/449
f 427/414/427 426/415/426 447/373/447
f 434/366/434 427/414/427 421/376/421
f 389/380/389 429/378/429 445/417/445
f 385/413/385 426/415/426 428/369/428
f 420/358/420 433/377/433 397/382/397
f 446/423/446 445/417/445 429/378/429
f 391/368/391 430/365/430 390/364/390
f 421/376/421 396/384/396 434/366/434
f 434/366/434 396/384/396 431/367/431
f 396/384/396 393/363/393 431/367/431
f 433/377/433 432/379/432 397/382/397
f 397/382/397 432/379/432 389/380/389
f 446/423/446 433/377/433 449/422/449
f 433/377/433 446/423/446 429/378/429
f 391/368/391 427/414/427 434/366/434
f 434/366/434 430/365/430 391/368/391
f 445/417/445 435/416/435 405/390/405
f 390/364/390 410/396/410 436/418/436
f 387/404/387 437/387/437 394/371/394
f 394/371/394 437/387/437 419/370/419
f 416/409/416 408/406/408 438/408/438
f 438/408/438 415/407/415 403/392/403
f 408/406/408 407/394/407 439/393/439
f 439/393/439 406/395/406 415/407/415
f 400/381/400 414/405/414 440/419/440
f 440/419/440 387/404/387 424/361/424
f 402/403/402 412/399/412 441/420/441
f 399/383/399 425/388/425 441/420/441
f 436/418/436 409/397/409 404/391/404
f 404/391/404 435/416/435 436/418/436
f 435/416/435 390/364/390 436/418/436
f 384/412/384 390/364/390 435/416/435
f 415/407/415 414/405/414 442/411/442
f 403/392/403 442/411/442 405/390/405
f 407/394/407 443/398/443 406/395/406
f 443/398/443 410/396/410 411/400/411
f 403/392/403 404/391/404 444/402/444
f 444/402/444 407/394/407 408/406/408
f 486/358/420 464/359/398 452/360/386
f 464/359/398 490/361/424 488/362/422
f 459/363/393 456/364/390 496/365/430
f 496/365/430 500/366/434 497/367/431
f 459/363/393 496/365/430 497/367/431
f 457/368/391 456/364/390 494/369/428
f 485/370/419 488/362/422 460/371/394
f 485/370/419 452/360/386 488/362/422
f 458/372/392 513/373/447 454/374/388
f 467/375/401 487/376/421 458/372/392
f 499/377/433 495/378/429 498/379/432
f 455/380/389 498/379/432 495/378/429
f 455/380/389 466/381/400 463/382/397
f 488/362/422 490/361/424 460/371/394
f 463/382/397 464/359/398 486/358/420
f 465/383/399 459/363/393 462/384/396
f 487/376/421 467/375/401 462/384/396
f 461/385/395 484/386/418 503/387/437
f 461/385/395 491/388/425 489/389/423
f 489/389/423 491/388/425 467/375/401
f 471/390/405 470/391/404 469/392/403
f 505/393/439 473/394/407 472/395/406
f 476/396/410 473/394/407 475/397/409
f 473/394/407 476/396/410 509/398/443
f 478/399/412 509/398/443 477/400/411
f 509/398/443 478/399/412 472/395/406
f 478/399/412 479/401/413 472/395/406
f 475/397/409 473/394/407 510/402/444
f 510/402/444 470/391/404 475/397/409
f 479/401/413 468/403/402 453/404/387
f 480/405/414 479/401/413 453/404/387
f 453/404/387 468/403/402 461/385/395
f 503/387/437 453/404/387 461/385/395
f 469/392/403 510/402/444 474/406/408
f 478/399/412 468/403/402 479/401/413
f 481/407/415 472/395/406 479/401/413
f 504/408/438 505/393/439 481/407/415
f 504/408/438 474/406/408 505/393/439
f 469/392/403 474/406/408 482/409/416
f 481/407/415 479/401/413 480/405/414
f 483/410/417 508/411/442 480/405/414
f 482/409/416 504/408/438 469/392/403
f 508/411/442 483/410/417 471/390/405
f 469/392/403 481/407/415 508/411/442
f 494/369/428 456/364/390 450/412/384
f 451/413/385 494/369/428 450/412/384
f 493/414/427 513/373/447 458/372/392
f 494/369/428 492/415/426 493/414/427
f 483/410/417 455/380/389 471/390/405
f 470/391/404 471/390/405 501/416/435
f 455/380/389 511/417/445 471/390/405
f 477/400/411 476/396/410 459/363/393
f 476/396/410 456/364/390 459/363/393
f 502/418/436 476/396/410 475/397/409
f 466/381/400 455/380/389 483/410/417
f 466/381/400 483/410/417 480/405/414
f 506/419/440 480/405/414 453/404/387
f 477/400/411 459/363/393 465/383/399
f 465/383/399 478/399/412 477/400/411
f 507/420/441 478/399/412 465/383/399
f 454/374/388 484/386/418 489/389/423
f 461/385/395 489/389/423 484/386/418
f 514/421/448 485/370/419 503/387/437
f 489/389/423 458/372/392 454/374/388
f 452/360/386 485/370/419 514/421/448
f 484/386/418 454/374/388 503/387/437
f 486/358/420 452/360/386 515/422/449
f 466/381/400 464/359/398 463/382/397
f 487/376/421 493/414/427 458/372/392
f 465/383/399 462/384/396 467/375/401
f 460/371/394 490/361/424 453/404/387
f 464/359/398 488/362/422 452/360/386
f 467/375/401 458/372/392 489/389/423
f 461/385/395 468/403/402 491/388/425
f 466/381/400 490/361/424 464/359/398
f 466/381/400 506/419/440 490/361/424
f 507/420/441 491/388/425 468/403/402
f 465/383/399 467/375/401 491/388/425
f 457/368/391 494/369/428 493/414/427
f 499/377/433 486/358/420 515/422/449
f 493/414/427 492/415/426 513/373/447
f 500/366/434 493/414/427 487/376/421
f 455/380/389 495/378/429 511/417/445
f 451/413/385 492/415/426 494/369/428
f 486/358/420 499/377/433 463/382/397
f 512/423/446 511/417/445 495/378/429
f 457/368/391 496/365/430 456/364/390
f 487/376/421 462/384/396 500/366/434
f 500/366/434 462/384/396 497/367/431
f 462/384/396 459/363/393 497/367/431
f 499/377/433 498/379/432 463/382/397
f 463/382/397 498/379/432 455/380/389
f 512/423/446 499/377/433 515/422/449
f 499/377/433 512/423/446 495/378/429
f 457/368/391 493/414/427 500/366/434
f 500/366/434 496/365/430 457/368/391
f 511/417/445 501/416/435 471/390/405
f 456/364/390 476/396/410 502/418/436
f 453/404/387 503/387/437 460/371/394
f 460/371/394 503/387/437 485/370/419
f 482/409/416 474/406/408 504/408/438
f 504/408/438 481/407/415 469/392/403
f 474/406/408 473/394/407 505/393/439
f 505/393/439 472/395/406 481/407/415
f 466/381/400 480/405/414 506/419/440
f 506/419/440 453/404/387 490/361/424
f 468/403/402 478/399/412 507/420/441
f 465/383/399 491/388/425 507/420/441
f 502/418/436 475/397/409 470/391/404
f 470/391/404 501/416/435 502/418/436
f 501/416/435 456/364/390 502/418/436
f 450/412/384 456/364/390 501/416/435
f 481/407/415 480/405/414 508/411/442
f 469/392/403 508/411/442 471/390/405
f 473/394/407 509/398/443 472/395/406
f 509/398/443 476/396/410 477/400/411
f 469/392/403 470/391/404 510/402/444
f 510/402/444 473/394/407 474/406/408
f 516/424/450 517/425/451 521/426/455 520/427/454
f 517/425/451 518/428/452 522/429/456 521/426/455
f 518/428/452 519/430/453 523/431/457 522/429/456
f 519/430/453 516/424/450 520/427/454 523/431/457
f 520/427/454 521/426/455 524/432/458
f 521/426/455 522/429/456 524/432/458
f 522/429/456 523/431/457 524/432/458
f 523/431/457 520/427/454 524/432/458
f 520/427/454 524/432/458 525/433/459
f 521/426/455 524/432/458 526/434/460
f 521/426/455 526/434/460 527/435/461
f 522/429/456 527/435/461 526/434/460
f 522/429/456 526/434/460 523/431/457
f 523/431/457 526/434/460 525/433/459
f 525/433/459 526/434/460 527/435/461
f 532/427/466 533/426/467 529/425/463 528/424/462
f 533/426/467 534/429/468 530/428/464 529/425/463
f 534/429/468 535/431/469 531/430/465 530/428/464
f 535/431/469 532/427/466 528/424/462 531/430/465
f 536/432/470 533/426/467 532/427/466
f 536/432/470 534/429/468 533/426/467
f 536/432/470 535/431/469 534/429/468
f 536/432/470 532/427/466 535/431/469
f 537/433/471 536/432/470 532/427/466
f 538/434/472 536/432/470 533/426/467
f 539/435/473 538/434/472 533/426/467
f 538/434/472 539/435/473 534/429/468
f 535/431/469 538/434/472 534/429/468
f 537/433/471 538/434/472 535/431/469
f 539/435/473 538/434/472 537/433/471
