# Blender 5.1.1
# www.blender.org
mtllib npc_maya_walk2.mtl
o npc_maya_walk2
v 0.011507 -0.071746 0.843681
v 0.045880 -0.119943 0.545763
v 0.106632 -0.118782 0.548367
v 0.132115 -0.033703 0.586854
v 0.156572 -0.012110 0.653940
v 0.047974 0.047902 0.653927
v 0.073388 -0.010438 0.567336
v 0.008005 -0.017627 0.653941
v 0.023385 -0.044412 0.565230
v 0.151292 0.123253 0.887551
v 0.159501 0.216779 0.925515
v 0.000011 0.063363 0.841505
v 0.089134 -0.106154 0.864036
v 0.130577 0.096148 0.939965
v 0.097617 -0.117252 0.900066
v 0.154257 0.111248 0.913993
v 0.131025 0.093966 0.921434
v 0.115251 -0.056496 0.536426
v 0.140562 -0.104574 0.653961
v 0.073971 -0.128473 0.653967
v 0.024129 -0.112283 0.653963
v 0.114579 0.047404 0.653927
v 0.076723 0.030199 0.653931
v 0.142051 -0.011581 0.653940
v 0.017609 -0.016097 0.653941
v 0.119380 -0.089394 0.653958
v 0.033017 -0.096170 0.653959
v 0.077943 -0.106510 0.653962
v 0.132115 -0.033703 0.586854
v 0.156572 -0.012110 0.653940
v 0.156572 -0.012110 0.653940
v 0.156572 -0.012110 0.653940
v 0.047974 0.047902 0.653927
v 0.008005 -0.017627 0.653941
v 0.008005 -0.017627 0.653941
v 0.008005 -0.017627 0.653941
v 0.023385 -0.044412 0.565230
v 0.159501 0.216779 0.925515
v 0.000011 0.063363 0.841505
v 0.115251 -0.056496 0.536426
v 0.140562 -0.104574 0.653961
v 0.073971 -0.128473 0.653967
v 0.024129 -0.112283 0.653963
v 0.114579 0.047404 0.653927
v 0.076723 0.030199 0.653931
v 0.142051 -0.011581 0.653940
v 0.142051 -0.011581 0.653940
v 0.142051 -0.011581 0.653940
v 0.017609 -0.016097 0.653941
v 0.017609 -0.016097 0.653941
v 0.017609 -0.016097 0.653941
v 0.119380 -0.089394 0.653958
v 0.033017 -0.096170 0.653959
v 0.077943 -0.106510 0.653962
v 0.032962 0.093574 0.874834
v 0.041310 -0.104036 0.845926
v -0.033742 0.093758 0.873520
v -0.042171 -0.104077 0.845462
v 0.105944 -0.111391 0.989273
v -0.107867 -0.111659 0.989263
v -0.151141 -0.168415 1.009818
v 0.152671 0.099810 1.010209
v 0.125879 0.078391 1.013708
v -0.124327 0.078185 1.013698
v -0.073932 0.116095 1.009395
v 0.075554 0.116087 1.009394
v 0.000041 -0.096626 0.857299
v 0.047029 -0.116832 0.877693
v -0.048647 -0.116921 0.877705
v 0.000120 -0.124261 0.904488
v -0.061049 0.112142 0.940000
v 0.061803 0.112080 0.939994
v -0.001032 -0.118489 0.989268
v 0.000278 0.109217 1.056948
v 0.125879 0.078391 1.013708
v -0.124327 0.078185 1.013698
v 0.111074 -0.075045 0.498587
v 0.034019 -0.076241 0.498563
v 0.073541 -0.052951 0.502446
v 0.038231 -0.138594 0.490104
v 0.027857 -0.177244 0.384363
v 0.062388 -0.235539 0.173643
v 0.058398 -0.199928 0.173623
v 0.076629 -0.184209 0.173614
v 0.106787 -0.138697 0.490010
v 0.125996 -0.178581 0.383573
v 0.083572 -0.237700 0.173643
v 0.095796 -0.200011 0.173622
v 0.074359 -0.065302 0.483082
v 0.073294 -0.204981 0.382179
v 0.111074 -0.075045 0.498587
v 0.034019 -0.076241 0.498563
v 0.058398 -0.199928 0.173623
v 0.095796 -0.200011 0.173622
v 0.091271 -0.284519 0.105614
v 0.089009 -0.286360 0.078644
v 0.095573 -0.205741 0.155225
v 0.084028 -0.243096 0.155264
v 0.123965 -0.130899 0.110113
v 0.051893 -0.143601 0.078493
v 0.056618 -0.129015 0.115674
v 0.058620 -0.205432 0.155224
v 0.057430 -0.280588 0.078638
v 0.050574 -0.282971 0.105613
v 0.124137 -0.143516 0.078493
v 0.062187 -0.240627 0.155262
v 0.075735 -0.189764 0.155208
v 0.062306 -0.162973 0.140318
v 0.095573 -0.205741 0.155225
v 0.123965 -0.130899 0.110113
v 0.051893 -0.143601 0.078493
v 0.056618 -0.129015 0.115674
v 0.058620 -0.205432 0.155224
v 0.124137 -0.143516 0.078493
v 0.062306 -0.162973 0.140318
v 0.106797 -0.076539 0.078421
v 0.106048 -0.073393 0.096072
v 0.072111 -0.065417 0.078410
v 0.070036 -0.062495 0.097155
v 0.123758 -0.118718 0.107805
v 0.057329 -0.117140 0.111132
v -0.011453 -0.071693 0.843714
v -0.045446 0.057476 0.517508
v -0.104474 0.056860 0.520396
v -0.130368 0.116445 0.563413
v -0.156880 0.091756 0.637446
v -0.073863 0.152782 0.541514
v -0.025434 0.120407 0.539122
v -0.009553 0.086515 0.637448
v -0.050074 0.151347 0.637434
v -0.150452 -0.236658 0.887343
v -0.158686 -0.114754 0.925555
v -0.087959 -0.106236 0.863576
v -0.129833 0.096272 0.939980
v -0.097388 -0.117480 0.900050
v -0.154834 -0.229018 0.914080
v -0.128637 0.094635 0.921594
v -0.114057 0.126571 0.507353
v -0.139045 -0.001128 0.637466
v -0.073322 -0.024985 0.637471
v -0.023971 -0.008737 0.637467
v -0.115998 0.151063 0.637434
v -0.078086 0.134325 0.637438
v -0.141322 0.092842 0.637446
v -0.019450 0.088456 0.637447
v -0.117551 0.014524 0.637462
v -0.032678 0.007807 0.637464
v -0.076539 -0.002571 0.637466
v -0.130368 0.116445 0.563413
v -0.156880 0.091756 0.637446
v -0.156880 0.091756 0.637446
v -0.156880 0.091756 0.637446
v -0.025434 0.120407 0.539122
v -0.009553 0.086515 0.637448
v -0.009553 0.086515 0.637448
v -0.009553 0.086515 0.637448
v -0.050074 0.151347 0.637434
v -0.158686 -0.114754 0.925555
v -0.114057 0.126571 0.507353
v -0.139045 -0.001128 0.637466
v -0.073322 -0.024985 0.637471
v -0.023971 -0.008737 0.637467
v -0.115998 0.151063 0.637434
v -0.078086 0.134325 0.637438
v -0.141322 0.092842 0.637446
v -0.141322 0.092842 0.637446
v -0.141322 0.092842 0.637446
v -0.019450 0.088456 0.637447
v -0.019450 0.088456 0.637447
v -0.019450 0.088456 0.637447
v -0.117551 0.014524 0.637462
v -0.032678 0.007807 0.637464
v -0.076539 -0.002571 0.637466
v -0.110440 0.132444 0.465250
v -0.035283 0.133420 0.465222
v -0.073860 0.153163 0.469565
v -0.038944 0.075866 0.455921
v -0.028575 0.108749 0.338971
v -0.061799 0.191045 0.105189
v -0.057809 0.226691 0.105169
v -0.077302 0.242437 0.105158
v -0.105727 0.075823 0.455818
v -0.125847 0.107935 0.338109
v -0.082980 0.188876 0.105192
v -0.095204 0.226612 0.105167
v -0.074697 0.153841 0.447957
v -0.073611 0.082418 0.336724
v -0.110440 0.132444 0.465250
v -0.035283 0.133420 0.465222
v -0.057809 0.226691 0.105169
v -0.095204 0.226612 0.105167
v -0.090865 0.188081 0.029863
v -0.089354 0.204438 -0.000058
v -0.056208 0.336737 0.040732
v -0.095207 0.233357 0.084801
v -0.083465 0.195902 0.084854
v -0.123552 0.338604 0.034567
v -0.051483 0.347389 -0.000259
v -0.058271 0.233662 0.084801
v -0.055917 0.210162 -0.000066
v -0.050164 0.189574 0.029861
v -0.124081 0.347435 -0.000259
v -0.076470 0.248188 0.084780
v -0.061626 0.198380 0.084850
v -0.061931 0.286166 0.068162
v -0.056208 0.336737 0.040732
v -0.095207 0.233357 0.084801
v -0.123552 0.338604 0.034567
v -0.051483 0.347389 -0.000259
v -0.058271 0.233662 0.084801
v -0.124081 0.347435 -0.000259
v -0.061931 0.286166 0.068162
v -0.106391 0.414336 -0.000353
v -0.105642 0.405652 0.018990
v -0.071700 0.425429 -0.000369
v -0.069625 0.415772 0.020187
v -0.123709 0.352377 0.032006
v -0.056589 0.351687 0.035694
v -0.097224 -0.081625 1.051526
v -0.134923 -0.009828 1.054783
v 0.092732 0.084963 1.056940
v 0.098030 -0.081490 1.051532
v 0.137500 -0.009704 1.054791
v -0.092176 0.085151 1.056956
v -0.126193 0.005107 1.154898
v 0.126911 0.005983 1.154315
v 0.087546 -0.065782 1.158529
v 0.083693 -0.058023 1.087220
v -0.086463 -0.066184 1.158871
v -0.084660 -0.057495 1.087497
v 0.117695 -0.008575 1.085043
v -0.118950 -0.008075 1.085202
v 0.089464 0.089108 1.147919
v -0.089082 0.088946 1.147919
v 0.000191 0.112358 1.146514
v 0.000542 -0.074466 1.158700
v -0.000483 -0.066243 1.087358
v 0.000403 -0.090041 1.051529
v 0.092732 0.084963 1.056940
v -0.092176 0.085151 1.056956
v -0.126193 0.005107 1.154898
v 0.126911 0.005983 1.154315
v 0.117695 -0.008575 1.085043
v -0.118950 -0.008075 1.085202
v -0.132464 -0.008452 1.285426
v 0.130454 -0.008247 1.285426
v -0.085735 0.098149 1.216567
v 0.086161 0.098328 1.216567
v 0.000213 0.112027 1.220319
v -0.082732 0.119211 1.261170
v 0.083112 0.119382 1.261170
v 0.088724 0.117647 1.302102
v -0.087485 0.117563 1.302102
v 0.130229 0.063194 1.293764
v -0.130583 0.063049 1.293764
v 0.000619 0.108006 1.299415
v 0.000190 0.110215 1.263835
v -0.132464 -0.008452 1.285426
v 0.130454 -0.008247 1.285426
v -0.111114 -0.084211 1.332381
v 0.112533 -0.084005 1.332380
v 0.000432 -0.098752 1.339836
v -0.110773 -0.060974 1.432368
v 0.110818 -0.060971 1.432235
v 0.102857 0.002486 1.429945
v -0.133113 0.030374 1.374549
v 0.032035 0.009297 1.433031
v -0.102896 0.002479 1.429969
v 0.131673 0.031260 1.374679
v -0.030313 0.009185 1.433053
v -0.125577 -0.077062 1.375309
v 0.126279 -0.076830 1.375393
v -0.146022 -0.025426 1.353582
v 0.145512 -0.025296 1.353552
v -0.110773 -0.060974 1.432368
v 0.110818 -0.060971 1.432235
v 0.102857 0.002486 1.429945
v -0.133113 0.030374 1.374549
v -0.133113 0.030374 1.374549
v -0.102896 0.002479 1.429969
v 0.131673 0.031260 1.374679
v 0.131673 0.031260 1.374679
v -0.125577 -0.077062 1.375309
v -0.125577 -0.077062 1.375309
v 0.126279 -0.076830 1.375393
v 0.126279 -0.076830 1.375393
v -0.146022 -0.025426 1.353582
v -0.146022 -0.025426 1.353582
v 0.145512 -0.025296 1.353552
v 0.145512 -0.025296 1.353552
v 0.001424 -0.067333 1.479318
v -0.042488 -0.055015 1.471596
v 0.044525 -0.055275 1.471489
v -0.035425 0.014594 1.562382
v -0.025448 -0.033011 1.579038
v 0.028293 -0.033408 1.578739
v 0.037924 0.014662 1.562382
v 0.000497 0.006313 1.583927
v 0.001249 0.034998 1.551367
v -0.042488 -0.055015 1.471596
v 0.044525 -0.055275 1.471489
v -0.025448 -0.033011 1.579038
v 0.028293 -0.033408 1.578739
v 0.000497 0.006313 1.583927
v 0.105514 -0.031182 1.439469
v 0.105514 -0.031182 1.439469
v 0.105514 -0.031182 1.439469
v -0.105538 -0.031282 1.439488
v -0.105538 -0.031282 1.439488
v -0.105538 -0.031282 1.439488
v -0.123160 -0.066345 1.356288
v -0.163494 -0.082377 1.345246
v -0.208726 -0.063347 1.349008
v -0.202135 0.005153 1.350628
v -0.126001 0.015857 1.355068
v -0.155143 -0.140446 1.147549
v -0.203595 -0.141830 1.153329
v -0.178531 -0.055618 1.185451
v -0.157337 -0.085832 1.142336
v -0.210017 -0.084833 1.147023
v -0.197475 0.001248 1.397892
v -0.199637 -0.055198 1.399560
v -0.190852 -0.024422 1.425048
v -0.132258 0.026336 1.395133
v -0.125863 -0.072682 1.397728
v -0.116753 -0.020572 1.363472
v -0.140143 0.025473 1.351486
v -0.206326 -0.029888 1.275926
v -0.206563 -0.092185 1.276903
v -0.163617 -0.016587 1.271958
v -0.139740 0.006936 1.270052
v -0.137411 -0.062990 1.270916
v -0.172132 -0.103095 1.274037
v -0.213070 -0.021059 1.279633
v -0.157145 -0.006708 1.274485
v -0.217253 -0.094668 1.281132
v -0.170793 -0.111604 1.277298
v -0.131316 -0.070745 1.273730
v -0.134234 0.015642 1.272667
v -0.163494 -0.082377 1.345246
v -0.203595 -0.141830 1.153329
v -0.178531 -0.055618 1.185451
v -0.210017 -0.084833 1.147023
v -0.132258 0.026336 1.395133
v -0.125863 -0.072682 1.397728
v -0.140143 0.025473 1.351486
v -0.206326 -0.029888 1.275926
v -0.206563 -0.092185 1.276903
v -0.163617 -0.016587 1.271958
v -0.163617 -0.016587 1.271958
v -0.163617 -0.016587 1.271958
v -0.139740 0.006936 1.270052
v -0.137411 -0.062990 1.270916
v -0.172132 -0.103095 1.274037
v -0.172132 -0.103095 1.274037
v -0.172132 -0.103095 1.274037
v -0.213070 -0.021059 1.279633
v -0.157145 -0.006708 1.274485
v -0.157145 -0.006708 1.274485
v -0.157145 -0.006708 1.274485
v -0.217253 -0.094668 1.281132
v -0.170793 -0.111604 1.277298
v -0.170793 -0.111604 1.277298
v -0.170793 -0.111604 1.277298
v -0.131316 -0.070745 1.273730
v -0.134234 0.015642 1.272667
v 0.123090 -0.066366 1.356304
v 0.163431 -0.065949 1.345263
v 0.208658 -0.049723 1.349018
v 0.202051 0.017571 1.350620
v 0.125916 0.015839 1.355056
v 0.155453 0.026146 1.147483
v 0.203905 0.020441 1.153262
v 0.178453 0.080659 1.185452
v 0.157810 0.084654 1.142257
v 0.210497 0.082148 1.146952
v 0.197388 0.001225 1.397885
v 0.199569 -0.055224 1.399570
v 0.190775 -0.024422 1.425050
v 0.132159 0.026257 1.395122
v 0.125796 -0.072772 1.397736
v 0.116675 -0.020579 1.363473
v 0.140052 0.025455 1.351473
v 0.206528 0.039540 1.275856
v 0.206680 -0.023513 1.276918
v 0.163540 0.054847 1.271860
v 0.137529 -0.062043 1.270940
v 0.139937 0.007877 1.269981
v 0.172253 -0.032306 1.274067
v 0.217276 -0.029606 1.281169
v 0.213147 0.045155 1.279566
v 0.157052 0.062791 1.274391
v 0.170818 -0.043703 1.277360
v 0.131336 -0.070244 1.273782
v 0.134308 0.016140 1.272597
v 0.163431 -0.065949 1.345263
v 0.203905 0.020441 1.153262
v 0.178453 0.080659 1.185452
v 0.210497 0.082148 1.146952
v 0.132159 0.026257 1.395122
v 0.125796 -0.072772 1.397736
v 0.140052 0.025455 1.351473
v 0.206528 0.039540 1.275856
v 0.206680 -0.023513 1.276918
v 0.163540 0.054847 1.271860
v 0.163540 0.054847 1.271860
v 0.163540 0.054847 1.271860
v 0.137529 -0.062043 1.270940
v 0.139937 0.007877 1.269981
v 0.172253 -0.032306 1.274067
v 0.172253 -0.032306 1.274067
v 0.172253 -0.032306 1.274067
v 0.217276 -0.029606 1.281169
v 0.213147 0.045155 1.279566
v 0.157052 0.062791 1.274391
v 0.157052 0.062791 1.274391
v 0.157052 0.062791 1.274391
v 0.170818 -0.043703 1.277360
v 0.170818 -0.043703 1.277360
v 0.170818 -0.043703 1.277360
v 0.131336 -0.070244 1.273782
v 0.134308 0.016140 1.272597
v 0.159622 0.036511 1.123063
v 0.205965 0.031689 1.126425
v 0.212262 0.089609 1.133206
v 0.159178 0.090743 1.128142
v 0.155853 0.078542 1.044875
v 0.206772 0.056107 1.070526
v 0.210838 0.137927 1.059542
v 0.160624 0.139028 1.042282
v 0.191015 0.156753 0.879156
v 0.191452 0.192432 0.883863
v 0.221359 0.189034 0.887947
v 0.221269 0.156024 0.883268
v 0.229159 0.088395 1.074532
v 0.206990 0.177015 0.875546
v 0.180811 0.028464 1.131842
v 0.205965 0.031689 1.126425
v 0.212262 0.089609 1.133206
v 0.206772 0.056107 1.070526
v 0.210838 0.137927 1.059542
v 0.221359 0.189034 0.887947
v 0.221269 0.156024 0.883268
v 0.206990 0.177015 0.875546
v -0.159423 -0.146552 1.122941
v -0.205766 -0.148867 1.126303
v -0.211997 -0.087826 1.133112
v -0.158914 -0.090476 1.128048
v -0.155651 -0.163163 1.044876
v -0.206569 -0.166369 1.070526
v -0.210636 -0.092787 1.059542
v -0.160421 -0.104621 1.042282
v -0.191383 -0.209240 0.879151
v -0.191829 -0.170027 0.883868
v -0.221745 -0.170374 0.887952
v -0.221646 -0.206896 0.883264
v -0.228956 -0.131076 1.074532
v -0.207540 -0.191183 0.875560
v -0.180554 -0.148936 1.131804
v -0.205766 -0.148867 1.126303
v -0.211997 -0.087826 1.133112
v -0.206569 -0.166369 1.070526
v -0.210636 -0.092787 1.059542
v -0.221745 -0.170374 0.887952
v -0.221646 -0.206896 0.883264
v -0.207540 -0.191183 0.875560
v -0.054270 0.003968 1.545637
v -0.067073 -0.073277 1.540486
v -0.038898 -0.065221 1.719407
v -0.033873 0.093525 1.682123
v -0.015823 -0.025514 1.752903
v -0.060820 0.002930 1.571672
v 0.055660 0.004019 1.545634
v 0.072702 -0.073203 1.539789
v 0.034519 -0.074113 1.711341
v 0.062037 0.003059 1.571667
v -0.039488 0.085235 1.713770
v 0.036820 0.101540 1.713675
v 0.077687 -0.024972 1.616212
v -0.076335 -0.025075 1.616217
v -0.075444 -0.043589 1.682254
v 0.065069 0.006080 1.633094
v -0.063750 0.005977 1.633099
v 0.089163 -0.043692 1.678437
v 0.036789 0.092976 1.681351
v -0.013001 0.094991 1.569099
v -0.014974 0.085641 1.501882
v -0.052628 0.068545 1.579134
v 0.007912 0.097582 1.619383
v 0.014201 0.095020 1.569098
v 0.004835 0.116771 1.570565
v 0.016258 0.085714 1.501880
v 0.053813 0.068661 1.579130
v 0.058179 0.061215 1.611685
v 0.049696 0.082667 1.634934
v 0.000600 0.100726 1.639613
v -0.048553 0.082574 1.634937
v -0.006984 0.097582 1.619383
v -0.003623 0.116771 1.570565
v -0.056962 0.061100 1.611690
v 0.037357 0.075596 1.742679
v -0.038410 0.019788 1.735214
v -0.079199 -0.080355 1.646789
v 0.085042 -0.080241 1.649586
v -0.061599 0.003118 1.717898
v 0.067781 0.017212 1.714868
v -0.063551 0.050437 1.687307
v 0.069048 0.052204 1.682040
v -0.046528 -0.109680 1.604618
v 0.048032 -0.109571 1.605009
v 0.000779 -0.091385 1.522314
v -0.090502 0.002457 1.556434
v 0.096355 0.007745 1.555552
v 0.086527 -0.013245 1.586206
v -0.082983 -0.013378 1.585090
v -0.076865 -0.070234 1.593479
v 0.078595 -0.070166 1.593474
v -0.030667 0.046007 1.515354
v 0.031998 0.046069 1.515351
v -0.022920 0.091887 1.738795
v -0.004078 0.119801 1.577619
v 0.005132 0.119801 1.577619
v -0.053798 0.058666 1.667194
v 0.055916 0.058443 1.666806
v -0.012894 0.089146 1.611973
v 0.013951 0.089204 1.611972
v 0.000600 0.099960 1.566327
v -0.054270 0.003968 1.545637
v -0.067073 -0.073277 1.540486
v -0.038898 -0.065221 1.719407
v -0.015823 -0.025514 1.752903
v -0.046528 -0.109680 1.604618
v -0.054270 0.003968 1.545637
v -0.067073 -0.073277 1.540486
v -0.038898 -0.065221 1.719407
v -0.033873 0.093525 1.682123
v -0.015823 -0.025514 1.752903
v -0.060820 0.002930 1.571672
v 0.055660 0.004019 1.545634
v 0.072702 -0.073203 1.539789
v 0.034519 -0.074113 1.711341
v 0.062037 0.003059 1.571667
v -0.039488 0.085235 1.713770
v 0.036820 0.101540 1.713675
v 0.077687 -0.024972 1.616212
v -0.076335 -0.025075 1.616217
v -0.075444 -0.043589 1.682254
v 0.065069 0.006080 1.633094
v -0.063750 0.005977 1.633099
v 0.089163 -0.043692 1.678437
v 0.036789 0.092976 1.681351
v -0.013001 0.094991 1.569099
v -0.014974 0.085641 1.501882
v -0.052628 0.068545 1.579134
v 0.007912 0.097582 1.619383
v 0.014201 0.095020 1.569098
v 0.004835 0.116771 1.570565
v 0.016258 0.085714 1.501880
v 0.053813 0.068661 1.579130
v 0.058179 0.061215 1.611685
v 0.049696 0.082667 1.634934
v 0.000600 0.100726 1.639613
v -0.048553 0.082574 1.634937
v -0.006984 0.097582 1.619383
v -0.003623 0.116771 1.570565
v -0.056962 0.061100 1.611690
v 0.037357 0.075596 1.742679
v -0.038410 0.019788 1.735214
v -0.079199 -0.080355 1.646789
v 0.085042 -0.080241 1.649586
v -0.061599 0.003118 1.717898
v 0.067781 0.017212 1.714868
v -0.063551 0.050437 1.687307
v 0.069048 0.052204 1.682040
v -0.046528 -0.109680 1.604618
v 0.048032 -0.109571 1.605009
v 0.000779 -0.091385 1.522314
v -0.090502 0.002457 1.556434
v 0.096355 0.007745 1.555552
v 0.086527 -0.013245 1.586206
v -0.082983 -0.013378 1.585090
v -0.076865 -0.070234 1.593479
v 0.078595 -0.070166 1.593474
v -0.030667 0.046007 1.515354
v 0.031998 0.046069 1.515351
v -0.022920 0.091887 1.738795
v -0.004078 0.119801 1.577619
v 0.005132 0.119801 1.577619
v -0.053798 0.058666 1.667194
v 0.055916 0.058443 1.666806
v -0.012894 0.089146 1.611973
v 0.013951 0.089204 1.611972
v 0.000600 0.099960 1.566327
v -0.054270 0.003968 1.545637
v -0.067073 -0.073277 1.540486
v -0.038898 -0.065221 1.719407
v -0.015823 -0.025514 1.752903
v -0.046528 -0.109680 1.604618
v -0.209250 -0.180596 0.877300
v -0.199950 -0.182146 0.877300
v -0.199950 -0.203846 0.877300
v -0.209250 -0.203846 0.877300
v -0.220100 -0.192608 0.837000
v -0.201500 -0.196871 0.833900
v -0.201500 -0.217021 0.833900
v -0.217000 -0.215858 0.837000
v -0.229400 -0.193383 0.818400
v -0.223200 0.003525 0.784300
v -0.213900 0.001369 0.781200
v -0.204600 -0.000518 0.787400
v 0.209250 0.186796 0.877300
v 0.199950 0.185246 0.877300
v 0.199950 0.163546 0.877300
v 0.209250 0.163546 0.877300
v 0.220100 0.205008 0.837000
v 0.201500 0.203071 0.833900
v 0.201500 0.182921 0.833900
v 0.217000 0.181758 0.837000
v 0.229400 0.218183 0.818400
v 0.223200 -0.009725 0.786430
v 0.213900 -0.013769 0.783633
v 0.204600 -0.011882 0.789226
vn 0.8350 0.2960 0.4638
vn 0.6180 0.7658 -0.1779
vn -0.6643 0.7391 -0.1117
vn -0.9647 0.2445 0.0982
vn -0.9790 0.1659 -0.1183
vn -0.0000 0.0002 1.0000
vn 0.0364 -0.8894 0.4557
vn 0.9900 0.1392 0.0214
vn 0.5109 -0.7751 0.3718
vn -0.9896 0.1436 0.0089
vn -0.9950 0.0106 -0.0989
vn -0.1103 -0.9296 0.3516
vn -0.6129 0.7793 0.1302
vn 0.5580 -0.8264 0.0750
vn -0.6252 0.7626 0.1659
vn -0.9854 0.1422 0.0932
vn 0.5796 -0.7945 0.1813
vn -0.9738 0.1648 0.1567
vn -0.7689 0.6221 -0.1472
vn -0.0173 0.9967 -0.0790
vn 0.7361 0.6761 -0.0314
vn -0.9609 0.2732 0.0449
vn -0.7929 0.6050 -0.0726
vn -0.4492 -0.7995 0.3987
vn -0.6326 -0.7387 0.2325
vn 0.4799 -0.8552 0.1957
vn 0.8034 -0.5633 0.1928
vn 0.9571 0.2893 -0.0167
vn 0.9664 -0.2300 0.1153
vn -0.8062 0.4105 0.4260
vn -0.4937 -0.7473 0.4448
vn -0.4630 -0.8680 0.1795
vn 0.0282 -0.9053 0.4238
vn -0.4770 -0.7983 0.3677
vn 0.5641 -0.7640 0.3134
vn 0.9731 0.2278 0.0356
vn 0.7748 0.6305 -0.0464
vn -0.0735 0.9790 -0.1900
vn 0.0259 -0.9432 0.3313
vn 0.3031 0.9324 0.1969
vn -0.1656 -0.9761 0.1407
vn -0.2030 0.8848 0.4194
vn -0.6316 0.7508 -0.1931
vn -0.5073 0.8271 -0.2419
vn 0.3080 0.6877 -0.6575
vn -0.6058 -0.3227 -0.7272
vn -0.1102 -0.4753 -0.8729
vn 0.8940 -0.2613 -0.3639
vn 0.2717 -0.9448 -0.1831
vn -0.2733 -0.9440 -0.1850
vn 0.0009 0.6641 0.7476
vn -0.0000 0.9490 0.3153
vn 0.0033 0.9500 0.3122
vn -0.0009 0.9859 0.1674
vn 0.1150 -0.9741 0.1946
vn -0.1166 -0.9727 0.2006
vn -0.0003 0.9685 -0.2492
vn -0.0005 -0.9917 -0.1286
vn -0.2779 -0.9195 -0.2780
vn 0.7745 -0.5929 -0.2206
vn -0.4168 -0.8074 0.4176
vn 0.4124 -0.8052 0.4261
vn 0.0034 -0.8390 0.5441
vn 0.6858 0.6348 -0.3559
vn 0.9153 0.3943 -0.0816
vn 0.7023 0.7024 -0.1155
vn 0.9938 0.0824 0.0740
vn 0.0051 -0.9357 0.3528
vn -0.6599 0.6552 -0.3677
vn -0.9136 0.3928 -0.1051
vn -0.5393 0.8281 -0.1531
vn -0.9653 0.2584 0.0369
vn -0.0070 -0.8992 0.4375
vn 0.0352 0.9554 -0.2931
vn -0.9982 0.0568 -0.0209
vn 0.9910 0.1238 -0.0510
vn 0.6290 -0.7294 0.2690
vn -0.6123 -0.7425 0.2716
vn -0.5700 0.7686 -0.2905
vn -0.4389 0.6778 0.5899
vn -0.9451 0.2585 -0.1999
vn -0.5433 0.7005 -0.4628
vn -0.9674 0.2100 -0.1413
vn 0.8132 -0.0193 0.5817
vn 0.9854 -0.0277 -0.1680
vn 0.9983 0.0111 -0.0578
vn 0.5324 0.5064 0.6783
vn 0.7022 0.6830 -0.2011
vn -0.8328 0.1825 0.5226
vn 0.6959 0.5822 -0.4204
vn 0.0160 -0.8222 -0.5690
vn -0.0493 -0.5306 -0.8462
vn -0.5887 -0.7248 -0.3579
vn -0.6082 -0.2863 -0.7404
vn 0.6508 -0.1285 0.7483
vn 0.3992 -0.4462 -0.8010
vn 0.6462 -0.7253 -0.2375
vn -0.6124 -0.1374 0.7785
vn 0.9786 -0.0372 -0.2024
vn -0.5793 -0.5013 0.6427
vn -0.5778 -0.6765 -0.4566
vn 0.3618 -0.6741 0.6440
vn 0.4143 -0.8025 -0.4293
vn -0.7694 -0.3153 -0.5555
vn 0.6794 -0.3333 -0.6537
vn -0.7628 0.3192 0.5623
vn -0.6146 0.7281 0.3035
vn 0.6193 0.7069 0.3418
vn 0.9409 0.2280 0.2506
vn 0.9757 0.1445 0.1648
vn -0.0186 -0.9927 -0.1191
vn -0.5541 -0.8172 -0.1588
vn 0.1289 0.9813 0.1427
vn 0.9990 -0.0058 -0.0444
vn -0.3789 0.8564 0.3507
vn 0.7352 -0.6769 0.0350
vn -0.5412 0.8403 -0.0312
vn 0.2857 0.9125 -0.2928
vn 0.6663 -0.7455 -0.0179
vn 0.9679 0.1681 0.1871
vn 0.7514 0.5576 0.3529
vn 0.0287 0.9271 0.3737
vn -0.7982 0.5447 0.2572
vn -0.0265 -0.9814 -0.1900
vn 0.9384 0.2731 0.2115
vn -0.9686 0.1895 0.1610
vn -0.6426 0.6813 0.3505
vn 0.0626 0.9147 0.3993
vn 0.4961 -0.8567 -0.1414
vn 0.8892 -0.4497 -0.0838
vn -0.9556 0.2507 0.1548
vn -0.8300 -0.5536 -0.0681
vn -0.9883 0.1254 0.0871
vn -0.4441 -0.8812 -0.1618
vn 0.9864 -0.1391 -0.0879
vn 0.5674 -0.8226 -0.0364
vn 0.4295 -0.8893 -0.1575
vn 0.5187 -0.8399 -0.1600
vn -0.5869 -0.7860 -0.1942
vn 0.6749 0.6666 0.3165
vn 0.9983 0.0494 -0.0321
vn -0.4582 -0.8839 -0.0936
vn 0.0161 -0.9997 -0.0177
vn -0.7117 0.6989 0.0707
vn -0.9079 0.3855 0.1649
vn -0.6823 0.6587 0.3171
vn -0.9914 0.0869 0.0974
vn 0.0253 -0.9663 -0.2563
vn 0.6859 0.7232 0.0810
vn 0.9124 0.3835 0.1429
vn 0.5161 0.7766 0.3613
vn 0.9523 0.2630 0.1545
vn 0.0305 -0.9841 -0.1747
vn -0.0317 0.9585 0.2834
vn 0.4948 -0.8636 -0.0965
vn -0.9973 0.0740 -0.0017
vn -0.6160 -0.7628 -0.1966
vn 0.6491 -0.7344 -0.1985
vn 0.5704 0.8119 0.1240
vn 0.4641 0.4888 0.7387
vn -0.2469 -0.3859 -0.8889
vn 0.9634 0.2625 -0.0539
vn 0.5866 0.8096 0.0227
vn 0.4444 -0.2678 -0.8548
vn -0.6727 -0.0142 0.7398
vn -0.9976 0.0089 -0.0690
vn -0.5596 0.3311 0.7598
vn -0.6970 0.7056 0.1280
vn 0.6685 0.1478 0.7289
vn 0.0146 -0.6263 -0.7794
vn -0.7477 0.6636 -0.0235
vn 0.0582 -0.4352 -0.8985
vn -0.9878 -0.0293 -0.1530
vn 0.5356 -0.6472 -0.5425
vn 0.9772 0.2119 0.0101
vn -0.8267 -0.1659 0.5377
vn -0.5383 -0.6713 -0.5095
vn 0.7888 -0.1897 0.5846
vn -0.9783 -0.0384 -0.2036
vn 0.5860 -0.6538 0.4787
vn 0.5710 -0.5239 -0.6321
vn -0.3476 -0.8308 0.4346
vn -0.4571 -0.6311 -0.6267
vn 0.7402 -0.2507 -0.6239
vn -0.6537 -0.2804 -0.7029
vn 0.2088 0.6798 -0.7030
vn 0.9329 -0.0208 -0.3596
vn -0.7724 -0.3533 -0.5278
vn -0.5709 0.6886 -0.4471
vn -0.9813 0.1834 -0.0584
vn 0.7929 -0.3454 -0.5019
vn 0.8594 0.5072 0.0644
vn -0.8626 0.5018 0.0640
vn -0.5500 0.8254 0.1274
vn -0.5114 0.8058 -0.2986
vn 0.5400 0.8318 0.1285
vn 0.5262 0.7992 -0.2905
vn -0.8786 0.2992 -0.3722
vn 0.8983 0.3029 -0.3183
vn -0.6555 -0.7544 0.0348
vn 0.6568 -0.7532 0.0371
vn 0.0005 -0.9991 0.0416
vn -0.0010 0.9922 0.1246
vn 0.0028 0.9702 -0.2422
vn -0.0016 0.8750 -0.4841
vn -0.5511 -0.8180 -0.1646
vn 0.5502 -0.8192 -0.1618
vn 0.9313 -0.3627 0.0348
vn -0.9319 -0.3614 0.0310
vn -0.9635 -0.2056 0.1714
vn 0.9619 -0.2326 0.1439
vn 0.9707 -0.1946 0.1409
vn -0.9725 -0.1862 0.1402
vn 0.6307 -0.7484 0.2052
vn -0.6367 -0.7433 0.2053
vn 0.0010 -0.9984 0.0568
vn 0.3874 -0.9094 0.1514
vn -0.3875 -0.9092 0.1522
vn -0.3654 -0.8883 -0.2783
vn 0.3549 -0.8911 -0.2829
vn -0.9402 -0.3175 0.1236
vn 0.9338 -0.3360 0.1226
vn 0.0011 -0.9363 -0.3512
vn 0.0006 -0.9986 -0.0520
vn 0.8958 0.4062 0.1802
vn -0.9081 0.3786 0.1790
vn 0.5582 0.8231 0.1050
vn -0.5758 0.8107 0.1055
vn -0.0007 0.9990 -0.0440
vn 0.3350 0.7338 -0.5910
vn -0.3422 0.7345 -0.5860
vn -0.0944 -0.6336 -0.7679
vn 0.6867 -0.6139 -0.3893
vn -0.2822 -0.8371 -0.4687
vn 0.0916 -0.6408 -0.7622
vn -0.6854 -0.6131 -0.3929
vn 0.2826 -0.8363 -0.4698
vn 0.4641 0.8846 -0.0452
vn -0.4711 0.8809 -0.0443
vn 0.8459 0.4532 0.2811
vn -0.9488 -0.2839 0.1386
vn 0.2038 0.5704 -0.7957
vn -0.2023 0.5690 -0.7971
vn -0.1465 -0.5402 -0.8287
vn 0.9773 -0.1964 -0.0791
vn -0.5152 -0.8448 -0.1443
vn 0.1436 -0.5389 -0.8300
vn 0.4402 -0.8697 -0.2233
vn -0.9736 -0.2262 -0.0322
vn -0.2978 0.9362 -0.1867
vn 0.9361 0.3471 -0.0559
vn -0.9444 0.3192 -0.0784
vn 0.3579 0.9201 -0.1593
vn 0.9556 -0.2675 0.1235
vn 0.0782 0.0070 -0.9969
vn -0.8462 0.4420 0.2976
vn -0.0835 -0.0010 -0.9965
vn -0.0008 0.9552 -0.2960
vn 0.8553 -0.3248 -0.4037
vn -0.8592 -0.3231 -0.3968
vn 0.7711 -0.4879 -0.4091
vn 0.8680 0.0082 -0.4964
vn -0.0535 0.7655 -0.6412
vn -0.7691 -0.4889 -0.4118
vn 0.0108 -0.5093 -0.8605
vn -0.0006 -0.9742 -0.2256
vn 0.3392 0.7488 -0.5695
vn -0.3432 0.7538 -0.5603
vn 0.0557 0.7563 -0.6519
vn -0.8666 0.0038 -0.4990
vn -0.0046 0.1264 -0.9920
vn -0.1468 -0.4097 -0.9003
vn -0.4982 0.1198 -0.8587
vn -0.1629 -0.0473 -0.9855
vn 0.1423 -0.4080 -0.9018
vn 0.4864 0.1217 -0.8652
vn 0.1630 -0.0477 -0.9855
vn -0.8850 0.4517 -0.1127
vn -0.4775 0.8779 -0.0363
vn 0.8488 0.4588 -0.2629
vn 0.7447 -0.6669 0.0273
vn -0.9093 -0.3935 -0.1355
vn -0.7551 0.6477 -0.1020
vn -0.0290 0.9530 -0.3017
vn 0.3540 -0.8653 0.3548
vn -0.6979 -0.6012 0.3892
vn 0.9978 -0.0635 -0.0184
vn 0.7179 -0.5860 -0.3757
vn 0.7210 0.5344 -0.4410
vn 0.5914 -0.0817 -0.8022
vn -0.0662 -0.9365 -0.3443
vn 0.0500 0.9931 -0.1062
vn -0.6397 -0.0637 -0.7660
vn -0.4660 -0.8790 0.1009
vn 0.7423 -0.6279 0.2339
vn 0.2948 0.2740 0.9154
vn 0.5923 -0.6984 0.4018
vn -0.2194 -0.7737 0.5943
vn -0.9774 0.2113 0.0078
vn -0.6399 0.7094 -0.2954
vn 0.2984 -0.1748 0.9383
vn 0.5773 -0.5365 0.6156
vn 0.3381 0.1591 0.9276
vn 0.2013 0.3890 0.8990
vn -0.8902 0.4555 -0.0033
vn -0.0608 -0.2517 0.9659
vn 0.2905 0.8927 -0.3445
vn 0.9772 0.1854 -0.1034
vn -0.2240 -0.8465 0.4831
vn 0.0016 -0.9252 0.3794
vn 0.5366 -0.6090 -0.5841
vn -0.0395 0.9562 -0.2902
vn 0.3082 -0.9450 0.1095
vn 0.3413 -0.1253 0.9316
vn 0.8568 0.4753 -0.1999
vn 0.3081 -0.8860 0.3466
vn 0.1742 -0.3423 0.9233
vn 0.5769 -0.5357 0.6166
vn 0.1293 -0.3588 0.9244
vn -0.3342 0.0842 0.9387
vn -0.2723 0.3067 0.9120
vn 0.2554 0.8993 -0.3551
vn 0.1950 0.3776 0.9052
vn 0.8390 -0.5379 0.0819
vn 0.1745 -0.3497 0.9205
vn 0.2754 -0.9117 0.3048
vn 0.6971 -0.7032 0.1400
vn 0.7181 0.6003 -0.3522
vn 0.2836 0.8695 -0.4045
vn -0.2508 0.2933 0.9225
vn -0.7121 0.6695 -0.2115
vn -0.2310 0.1664 0.9586
vn -0.3665 -0.8800 0.3022
vn 0.7817 0.6113 -0.1239
vn -0.3001 0.9491 0.0958
vn -0.8280 0.5607 -0.0069
vn -0.7266 -0.6163 -0.3036
vn 0.9092 -0.3940 -0.1344
vn 0.7295 0.5878 0.3498
vn -0.9815 0.1836 0.0543
vn 0.1925 -0.9644 -0.1812
vn 0.7326 -0.6690 -0.1254
vn -0.9910 -0.0939 -0.0956
vn -0.7213 -0.5346 -0.4403
vn -0.7131 0.6020 -0.3592
vn -0.5912 -0.0819 -0.8023
vn 0.0563 -0.9186 -0.3913
vn -0.4138 0.9041 -0.1069
vn 0.6383 -0.0634 -0.7672
vn 0.6449 -0.7613 0.0667
vn -0.8615 -0.4718 -0.1876
vn -0.7247 0.6506 0.2268
vn 0.8461 -0.5101 -0.1547
vn -0.0389 0.3415 0.9391
vn 0.9843 -0.1734 0.0343
vn -0.5194 0.7475 0.4141
vn -0.8841 0.4659 0.0375
vn -0.6704 -0.6544 -0.3498
vn -0.1907 -0.8896 -0.4151
vn -0.3450 0.3170 0.8834
vn 0.0636 0.2836 0.9568
vn 0.9515 -0.2975 0.0783
vn -0.1403 0.9882 0.0620
vn 0.0358 0.9261 0.3755
vn -0.3196 -0.8960 -0.3083
vn -0.0154 -0.9437 -0.3305
vn -0.6130 -0.6775 -0.4065
vn 0.0726 0.9708 -0.2285
vn -0.1262 -0.9694 -0.2105
vn -0.3550 -0.1799 0.9174
vn -0.2685 0.1860 0.9452
vn -0.2223 -0.4501 0.8649
vn 0.2045 -0.1415 0.9686
vn -0.2913 -0.9016 -0.3196
vn 0.2270 0.7766 0.5877
vn 0.3626 -0.0464 0.9308
vn -0.2592 0.9082 0.3286
vn -0.1527 0.2919 0.9442
vn -0.3374 0.3002 0.8922
vn -0.2934 0.1609 0.9423
vn -0.3553 -0.1949 0.9142
vn 0.2078 -0.1425 0.9677
vn -0.2230 -0.4565 0.8613
vn 0.8990 -0.4378 -0.0138
vn -0.5589 0.8041 0.2026
vn -0.1577 0.3007 0.9406
vn -0.2998 0.9158 0.2674
vn 0.5070 0.8248 0.2503
vn 0.2774 -0.1131 0.9541
vn 0.7045 0.6111 0.3610
vn 0.0213 0.9061 0.4225
vn 0.0368 -0.8739 -0.4846
vn 0.7149 -0.6345 -0.2939
vn 0.7943 0.5196 0.3147
vn 0.1278 0.8858 0.4461
vn 0.1318 -0.8882 -0.4402
vn 0.7204 -0.6653 -0.1962
vn 0.5360 0.4195 0.7326
vn 0.5016 -0.7672 0.3996
vn -0.1013 -0.9926 0.0676
vn -0.0778 0.7117 0.6982
vn -0.9952 0.0891 -0.0402
vn 0.0496 -0.1899 0.9805
vn 0.0599 0.8878 0.4563
vn -0.9803 0.1888 -0.0581
vn -0.9799 0.0171 -0.1986
vn -0.8139 0.5366 0.2229
vn -0.9005 -0.3908 -0.1908
vn -0.9320 -0.0915 0.3508
vn -0.9587 0.0048 0.2844
vn -0.5943 -0.1113 0.7965
vn -0.7330 0.6707 -0.1134
vn -0.0134 0.9711 -0.2384
vn -0.0605 -0.9831 0.1729
vn -0.7101 -0.6759 0.1972
vn -0.8130 0.5796 -0.0554
vn -0.1390 0.9615 -0.2369
vn -0.1577 -0.9662 0.2038
vn -0.6949 -0.6702 0.2608
vn -0.5037 0.6728 0.5419
vn -0.5163 -0.5449 0.6607
vn 0.0756 -0.7908 0.6073
vn 0.1089 0.9612 0.2535
vn 0.9932 0.0590 -0.0999
vn 0.5632 -0.1037 0.8198
vn -0.0573 0.9922 -0.1109
vn 0.9462 0.2225 -0.2351
vn 0.9845 0.0141 -0.1749
vn 0.8207 0.5413 -0.1826
vn 0.9113 -0.4031 0.0841
vn 0.9665 -0.0641 0.2484
vn 0.9231 0.0086 0.3844
vn -0.0553 -0.0631 0.9965
vn 0.0606 0.1298 0.9897
vn 0.3363 0.4086 0.8485
vn 0.6985 0.3530 -0.6225
vn 0.4993 -0.8662 -0.0191
vn -0.2692 0.3112 -0.9114
vn 0.7709 -0.6339 -0.0616
vn -0.4509 -0.2476 0.8575
vn -0.6393 0.4093 0.6510
vn -0.2998 0.6933 -0.6553
vn -0.7382 -0.6675 -0.0975
vn 0.7793 -0.5548 -0.2914
vn -0.4620 -0.8653 -0.1943
vn -0.9655 -0.2579 -0.0353
vn 0.9694 -0.2311 -0.0829
vn 0.9386 0.1108 -0.3268
vn -0.9555 -0.2707 0.1169
vn 0.9718 -0.2339 0.0311
vn -0.9361 0.1252 -0.3287
vn -0.4860 -0.8663 0.1156
vn 0.6378 -0.7551 0.1520
vn 0.3851 -0.4827 0.7865
vn 0.8345 -0.5399 0.1102
vn -0.3835 -0.9235 -0.0116
vn -0.6444 -0.7500 0.1494
vn -0.4147 -0.5949 0.6886
vn -0.3841 -0.4843 0.7860
vn -0.8337 -0.5413 0.1093
vn -0.9034 -0.4281 0.0261
vn -0.7300 -0.6670 0.1492
vn -0.0004 -0.9998 0.0216
vn 0.7345 -0.6640 0.1400
vn 0.3874 -0.9219 -0.0107
vn 0.4102 -0.5645 0.7163
vn 0.9041 -0.4264 0.0262
vn -0.5031 -0.3433 -0.7931
vn 0.6281 -0.0674 -0.7752
vn 0.8315 0.5193 -0.1973
vn -0.8222 0.5476 -0.1556
vn 0.8025 -0.0119 -0.5966
vn -0.7897 -0.0264 -0.6129
vn 0.9383 -0.3382 -0.0717
vn -0.9116 -0.4060 0.0650
vn 0.0870 0.9962 0.0017
vn -0.3420 0.9397 0.0068
vn 0.0071 0.5362 0.8441
vn 0.7590 -0.5910 0.2734
vn -0.7205 -0.6473 0.2489
vn -0.7865 -0.4261 -0.4471
vn 0.8096 -0.4422 -0.3860
vn 0.9309 0.3583 0.0707
vn -0.9303 0.3621 0.0586
vn 0.5403 0.1945 0.8187
vn -0.5411 0.1933 0.8184
vn 0.3881 -0.6369 -0.6661
vn 0.5074 -0.8614 -0.0237
vn -0.5046 -0.8629 -0.0276
vn 0.9160 -0.3901 0.0936
vn -0.8739 -0.4313 0.2242
vn 0.6512 -0.7443 0.1482
vn -0.6465 -0.7489 0.1455
vn 0.0359 -0.7245 0.6883
vn 0.7054 -0.4441 0.5524
vn 0.8782 0.3370 0.3395
vn 0.0218 0.8328 -0.5531
vn 0.7099 0.0807 -0.6997
vn 0.6803 0.7329 -0.0019
vn -0.5193 0.8434 -0.1381
vn 0.6862 0.6812 -0.2551
vn 0.7730 -0.6144 0.1577
vn -0.6646 -0.6596 0.3511
vn -0.4315 0.8997 -0.0658
vn 0.7110 0.3228 -0.6247
vn 0.7528 -0.6381 0.1617
vn -0.5532 -0.7447 0.3733
vn 0.5655 -0.0877 -0.8200
vn 0.3624 -0.1144 0.9250
vn 0.0764 -0.7644 0.6402
vn -0.2042 -0.9789 0.0085
vn 0.6504 0.6271 0.4286
vn -0.8367 0.5164 0.1826
vn -0.5903 -0.7284 -0.3477
vn 0.5497 -0.8019 -0.2342
vn 0.7272 0.4042 0.5548
vn -0.6353 0.7148 0.2925
vn -0.4341 -0.3237 -0.8407
vn 0.6274 -0.4346 -0.6461
vn 0.8356 -0.0192 0.5491
vn 0.3201 0.0572 -0.9457
vn 0.4267 -0.8924 0.1471
vn 0.1968 -0.7822 0.5912
vt 0.612984 0.418955
vt 0.662581 0.418891
vt 0.627144 0.347229
vt 0.665647 0.373324
vt 0.655314 0.339074
vt 0.568677 0.430628
vt 0.538134 0.430615
vt 0.548662 0.546760
vt 0.916714 0.418934
vt 0.879111 0.430561
vt 0.860506 0.418973
vt 0.959321 0.418969
vt 0.939909 0.430561
vt 0.955812 0.373406
vt 0.914670 0.360129
vt 0.914764 0.316079
vt 0.954525 0.313468
vt 0.870560 0.313452
vt 0.864045 0.358721
vt 0.528253 0.430537
vt 0.530399 0.545348
vt 0.534139 0.418895
vt 0.589915 0.345459
vt 0.537678 0.358638
vt 0.544195 0.313363
vt 0.957084 0.339159
vt 0.585227 0.307645
vt 0.577039 0.235822
vt 0.597039 0.092684
vt 0.559134 0.092654
vt 0.864867 0.092767
vt 0.911498 0.092754
vt 0.627238 0.307581
vt 0.652754 0.313379
vt 0.637179 0.235286
vt 0.640722 0.092655
vt 0.610021 0.092686
vt 0.949031 0.092767
vt 0.604883 0.234351
vt 0.915265 0.302930
vt 0.640585 0.080161
vt 0.614739 0.046470
vt 0.610300 0.080192
vt 0.657984 0.049510
vt 0.867262 0.070146
vt 0.962423 0.052206
vt 0.910950 0.080262
vt 0.561529 0.070031
vt 0.589799 0.046468
vt 0.558043 0.053288
vt 0.596916 0.080190
vt 0.559270 0.080161
vt 0.613352 0.028149
vt 0.594001 0.028145
vt 0.658090 -0.001970
vt 0.555148 -0.001970
vt 0.925656 0.026545
vt 0.962529 -0.001850
vt 0.953915 0.045479
vt 0.872593 0.047739
vt 0.863776 0.055983
vt 0.891340 0.027280
vt 0.926114 0.014557
vt 0.892611 0.014548
vt 0.860881 -0.001850
vt 0.865003 0.080275
vt 0.948895 0.080275
vt 0.616060 0.572222
vt 0.662218 0.595414
vt 0.671480 0.430533
vt 0.577969 0.557845
vt 0.625964 0.430609
vt 0.571111 0.418970
vt 0.543580 0.418961
vt 0.929999 0.592943
vt 0.869913 0.564374
vt 0.854620 0.430615
vt 0.849723 0.543989
vt 0.962277 0.595472
vt 0.929725 0.604297
vt 0.523355 0.543925
vt 0.388526 0.373521
vt 0.385476 0.418890
vt 0.429114 0.347211
vt 0.400739 0.313381
vt 0.398522 0.339173
vt 0.465286 0.345441
vt 0.476444 0.418969
vt 0.789620 0.418933
vt 0.735399 0.418967
vt 0.792207 0.360164
vt 0.828097 0.313452
vt 0.834131 0.358722
vt 0.503322 0.418960
vt 0.511428 0.418894
vt 0.837798 0.418971
vt 0.792209 0.316104
vt 0.744368 0.339259
vt 0.746585 0.313470
vt 0.501726 0.313363
vt 0.507762 0.358638
vt 0.766389 0.430560
vt 0.819033 0.430560
vt 0.517494 0.430536
vt 0.734374 0.373603
vt 0.469270 0.307690
vt 0.476540 0.236025
vt 0.487922 0.092729
vt 0.458011 0.092758
vt 0.844596 0.092841
vt 0.795902 0.092828
vt 0.428346 0.307627
vt 0.416931 0.235497
vt 0.445032 0.092760
vt 0.402751 0.092729
vt 0.750763 0.092841
vt 0.448942 0.234659
vt 0.791696 0.302867
vt 0.842070 0.070174
vt 0.735327 0.052169
vt 0.845577 0.055947
vt 0.441125 0.028250
vt 0.465141 0.046584
vt 0.461616 0.028245
vt 0.440199 0.046585
vt 0.402749 0.080253
vt 0.444735 0.080284
vt 0.796412 0.080355
vt 0.458117 0.080282
vt 0.487639 0.080253
vt 0.485396 0.070059
vt 0.385055 -0.001870
vt 0.385379 0.049474
vt 0.491798 -0.001870
vt 0.488903 0.053251
vt 0.743612 0.045443
vt 0.733713 -0.001750
vt 0.781116 0.026509
vt 0.780658 0.014657
vt 0.813501 0.027243
vt 0.812230 0.014648
vt 0.848472 -0.001750
vt 0.836962 0.047702
vt 0.750760 0.080367
vt 0.844313 0.080367
vt 0.375026 0.430532
vt 0.380399 0.595437
vt 0.431150 0.572096
vt 0.428985 0.430608
vt 0.469446 0.557566
vt 0.497505 0.546476
vt 0.478415 0.430628
vt 0.508658 0.430614
vt 0.516329 0.545370
vt 0.770895 0.593038
vt 0.829041 0.563569
vt 0.770162 0.604303
vt 0.843862 0.430613
vt 0.740233 0.595496
vt 0.725866 0.430609
vt 0.522715 0.634612
vt 0.463768 0.672734
vt 0.523595 0.672743
vt 0.523421 0.582664
vt 0.588270 0.634610
vt 0.583167 0.579931
vt 0.457246 0.634604
vt 0.523373 0.553724
vt 0.552167 0.566238
vt 0.493537 0.566245
vt 0.430728 0.647136
vt 0.420525 0.674671
vt 0.428465 0.588482
vt 0.463668 0.579925
vt 0.583421 0.672738
vt 0.616905 0.647376
vt 0.625918 0.674675
vt 0.665808 0.675914
vt 0.666121 0.649427
vt 0.617877 0.588427
vt 0.812309 0.604288
vt 0.371454 0.649421
vt 0.926847 0.649480
vt 0.896010 0.646806
vt 0.849886 0.675949
vt 0.804415 0.646807
vt 0.773536 0.649474
vt 0.919430 0.675964
vt 0.371156 0.675924
vt 0.785499 0.675974
vt 0.887585 0.604285
vt 0.574635 0.694588
vt 0.600799 0.738293
vt 0.656965 0.735651
vt 0.471468 0.694757
vt 0.395663 0.736009
vt 0.450221 0.738502
vt 0.414749 0.693310
vt 0.634839 0.693213
vt 0.523051 0.694679
vt 0.523679 0.738404
vt 0.917428 0.731707
vt 0.957136 0.735694
vt 0.749182 0.736052
vt 0.787395 0.731707
vt 0.849833 0.730827
vt 0.948266 0.693261
vt 0.758133 0.693358
vt 0.725353 0.816042
vt 0.978649 0.816042
vt 0.783643 0.773763
vt 0.928944 0.773763
vt 0.849846 0.776050
vt 0.391820 0.816008
vt 0.425045 0.844844
vt 0.659137 0.816007
vt 0.623435 0.844844
vt 0.523612 0.849424
vt 0.850095 0.824518
vt 0.831141 0.906484
vt 0.788373 0.826157
vt 0.783682 0.930154
vt 0.725088 0.930460
vt 0.791286 0.801075
vt 0.756163 0.821093
vt 0.869345 0.906471
vt 0.956831 0.870698
vt 0.954634 0.904585
vt 0.916998 0.930088
vt 0.976262 0.930449
vt 0.916975 0.826157
vt 0.913536 0.801075
vt 0.955946 0.821093
vt 0.849832 0.802716
vt 0.749455 0.870619
vt 0.978205 0.857800
vt 0.395413 0.857787
vt 0.416182 0.871144
vt 0.640099 0.871196
vt 0.524220 0.934873
vt 0.639992 0.926015
vt 0.414971 0.926097
vt 0.487311 0.930131
vt 0.746707 0.904600
vt 0.404658 0.950436
vt 0.560633 0.930066
vt 0.892953 0.985724
vt 0.850481 0.978958
vt 0.784123 0.995969
vt 0.808009 0.985724
vt 0.540686 0.995771
vt 0.507753 0.995953
vt 0.917052 0.995786
vt 0.850020 0.998932
vt 0.523652 0.998917
vt 0.727361 0.857818
vt 0.649346 0.950424
vt 0.656462 0.857769
vt 0.070412 0.178660
vt 0.035222 0.188443
vt 0.041721 0.254019
vt 0.079135 0.253749
vt 0.115906 0.180199
vt 0.126310 0.239153
vt 0.134643 0.196075
vt 0.147879 0.238532
vt 0.101043 0.052193
vt 0.119696 0.053283
vt 0.072550 0.056211
vt 0.053254 0.057269
vt 0.262276 0.198032
vt 0.298550 0.196075
vt 0.301786 0.238532
vt 0.235628 0.244019
vt 0.219129 0.188442
vt 0.227161 0.057269
vt 0.273603 0.053283
vt 0.086192 0.048612
vt 0.250099 0.048612
vt 0.045021 0.286113
vt 0.051287 0.352815
vt 0.079924 0.264552
vt 0.140210 0.357773
vt 0.164677 0.357732
vt 0.133774 0.352839
vt 0.127591 0.257959
vt 0.156862 0.352803
vt 0.327034 0.407371
vt 0.292486 0.407393
vt 0.295612 0.357685
vt 0.244663 0.352771
vt 0.228928 0.286113
vt 0.237573 0.254550
vt 0.240941 0.409920
vt 0.239195 0.357691
vt 0.303021 0.259031
vt 0.292409 0.352768
vt 0.047890 0.414934
vt 0.075613 0.418487
vt 0.074303 0.357773
vt 0.043666 0.264550
vt 0.292259 0.446408
vt 0.163581 0.449774
vt 0.106883 0.468489
vt 0.166174 0.483130
vt 0.138333 0.418578
vt 0.163127 0.407371
vt 0.269282 0.466742
vt 0.297989 0.494859
vt 0.249286 0.445995
vt 0.275277 0.498896
vt 0.217670 0.479018
vt 0.221846 0.448621
vt 0.249609 0.500931
vt 0.047938 0.448621
vt 0.080429 0.352839
vt 0.043763 0.479018
vt 0.103686 0.425038
vt 0.327488 0.449774
vt 0.221797 0.414933
vt 0.218611 0.357750
vt 0.139484 0.244329
vt 0.149114 0.259031
vt 0.070860 0.861110
vt 0.043482 0.785701
vt 0.035600 0.851230
vt 0.080951 0.786078
vt 0.116355 0.859511
vt 0.126622 0.800610
vt 0.135010 0.843512
vt 0.148146 0.801134
vt 0.101636 0.987538
vt 0.120259 0.986388
vt 0.073138 0.983555
vt 0.053813 0.982435
vt 0.262614 0.841548
vt 0.302054 0.801134
vt 0.298918 0.843512
vt 0.237389 0.795701
vt 0.219507 0.851230
vt 0.227720 0.982435
vt 0.274167 0.986388
vt 0.250297 0.991101
vt 0.086390 0.991101
vt 0.051450 0.687512
vt 0.081668 0.775128
vt 0.081344 0.687536
vt 0.074882 0.681966
vt 0.044841 0.681943
vt 0.138420 0.621138
vt 0.140788 0.681966
vt 0.163201 0.632257
vt 0.150814 0.780504
vt 0.157748 0.687500
vt 0.129341 0.781679
vt 0.296129 0.681878
vt 0.329136 0.681925
vt 0.293274 0.687465
vt 0.239264 0.785028
vt 0.245527 0.687467
vt 0.239715 0.681885
vt 0.225357 0.687511
vt 0.229178 0.753608
vt 0.045271 0.753608
vt 0.045357 0.775028
vt 0.221833 0.591159
vt 0.249240 0.593626
vt 0.240979 0.629713
vt 0.163562 0.589914
vt 0.106982 0.571710
vt 0.047926 0.591159
vt 0.075703 0.621300
vt 0.327108 0.632257
vt 0.292206 0.593154
vt 0.327469 0.589914
vt 0.292517 0.632160
vt 0.269227 0.572864
vt 0.134691 0.687536
vt 0.103782 0.614733
vt 0.044439 0.561847
vt 0.249614 0.538752
vt 0.275354 0.540757
vt 0.047967 0.624837
vt 0.297992 0.544755
vt 0.320258 0.556100
vt 0.218748 0.681943
vt 0.221875 0.624836
vt 0.304721 0.780504
vt 0.140491 0.795329
vt 0.166351 0.556100
vt 0.218346 0.561847
vt 0.320081 0.483130
vt 0.968219 0.430610
vt 0.440325 0.418954
vt 0.225195 0.352815
vt 0.320769 0.352803
vt 0.044703 0.357750
vt 0.165229 0.681925
vt 0.321655 0.687500
vt 0.328584 0.357732
vt 0.885065 0.576428
vt 0.848378 0.717557
vt 0.924389 0.860057
vt 0.663106 0.745258
vt 0.770361 0.860188
vt 0.243809 0.290626
vt 0.247549 0.189457
vt 0.255578 0.228157
vt 0.127474 0.369075
vt 0.215767 0.345663
vt 0.119383 0.159975
vt 0.001085 0.090787
vt 0.716677 0.928877
vt 0.582116 0.851091
vt 0.062195 0.827535
vt -0.075611 0.860057
vt -0.067589 0.993679
vt 0.166292 0.701863
vt 0.122872 0.586485
vt 0.876306 0.369879
vt 0.758812 0.232082
vt 0.789827 0.342169
vt 0.761528 0.291258
vt 0.757564 0.530525
vt 0.815743 0.462233
vt 0.247857 0.529862
vt 0.188349 0.461441
vt 0.443993 0.851737
vt 0.422121 0.962343
vt 0.549111 0.948944
vt 0.342823 0.724246
vt 0.269683 0.848956
vt 0.617215 0.325904
vt 0.535061 0.026625
vt 0.528766 0.288937
vt 0.497773 0.324131
vt 0.480302 0.288797
vt 0.491517 0.484691
vt 0.391391 0.325356
vt 0.474470 0.026464
vt 0.478819 0.455101
vt 0.411507 0.543693
vt 0.373612 0.451352
vt 0.504349 0.563706
vt 0.504477 0.278512
vt 0.439226 0.725239
vt 0.565973 0.728649
vt 0.596928 0.544199
vt 0.498087 0.296425
vt 0.517818 0.484767
vt 0.510712 0.324178
vt 0.510279 0.296468
vt 0.634655 0.451944
vt 0.530642 0.455240
vt -0.242281 0.190022
vt -0.111483 0.163390
vt 0.062829 0.410716
vt -0.059536 0.409665
vt 0.609053 0.075702
vt 0.757719 0.190022
vt 0.401610 0.075380
vt 0.636072 0.667663
vt 0.370326 0.665576
vt 0.932411 0.993679
vt 0.940464 0.409665
vt 0.888517 0.163390
vt 0.200000 0.400000
vt 0.250000 0.400000
vt 0.250000 0.300000
vt 0.200000 0.300000
vt 0.250000 0.350000
vt 0.250000 0.250000
vt 0.200000 0.350000
vt 0.200000 0.250000
vt 0.180000 0.220000
vt 0.200000 0.150000
vt 0.230000 0.150000
vt 0.260000 0.150000
s 1
usemtl npc_maya_mat.001
f 26/1/23 24/2/22 3/3/3
f 4/4/4 18/5/18 3/3/3
f 20/6/20 21/7/21 56/8/40
f 23/9/6 6/10/6 25/11/6
f 23/9/6 46/12/6 22/13/6
f 29/14/24 47/12/34 7/15/7
f 79/16/63 77/17/61 7/15/7
f 78/18/62 7/15/7 9/19/9
f 79/16/63 7/15/7 78/18/62
f 45/9/33 49/11/35 7/15/7
f 8/20/8 1/21/1 21/7/21
f 50/22/36 2/23/2 37/24/28
f 37/24/28 2/23/2 92/25/76
f 77/17/61 40/26/31 7/15/7
f 80/27/64 81/28/65 92/25/76
f 81/28/65 82/29/66 83/30/67
f 92/25/76 81/28/65 83/30/67
f 93/31/77 84/32/68 78/18/62
f 85/33/69 91/34/75 86/35/70
f 86/35/70 88/36/72 87/37/71
f 91/34/75 88/36/72 86/35/70
f 94/38/78 77/17/61 84/32/68
f 90/39/74 85/33/69 86/35/70
f 85/33/69 90/39/74 80/27/64
f 87/37/71 90/39/74 86/35/70
f 82/29/66 90/39/74 87/37/71
f 84/32/68 77/17/61 89/40/73
f 78/18/62 84/32/68 89/40/73
f 81/28/65 80/27/64 90/39/74
f 82/29/66 81/28/65 90/39/74
f 97/41/81 95/42/79 98/43/82
f 99/44/83 95/42/79 97/41/81
f 108/45/92 110/46/94 107/47/91
f 115/48/99 104/49/88 101/50/85
f 106/51/90 104/49/88 102/52/86
f 96/53/80 103/54/87 104/49/88
f 104/49/88 95/42/79 96/53/80
f 98/43/82 95/42/79 104/49/88
f 105/55/89 95/42/79 99/44/83
f 105/55/89 100/56/84 103/54/87
f 100/56/84 101/50/85 104/49/88
f 105/55/89 96/53/80 95/42/79
f 103/54/87 96/53/80 105/55/89
f 104/49/88 103/54/87 100/56/84
f 117/57/101 114/58/98 120/59/104
f 121/60/105 120/59/104 112/61/96
f 121/60/105 117/57/101 120/59/104
f 119/62/103 116/63/100 117/57/101
f 118/64/102 116/63/100 119/62/103
f 111/65/95 118/64/102 119/62/103
f 121/60/105 111/65/95 119/62/103
f 116/63/100 118/64/102 111/65/95
f 120/59/104 114/58/98 110/46/94
f 116/63/100 111/65/95 114/58/98
f 98/43/82 104/49/88 106/51/90
f 108/45/92 107/47/91 113/66/97
f 116/63/100 114/58/98 117/57/101
f 120/59/104 110/46/94 112/61/96
f 119/62/103 117/57/101 121/60/105
f 112/61/96 111/65/95 121/60/105
f 113/66/97 84/32/68 93/31/77
f 113/66/97 107/47/91 84/32/68
f 102/52/86 83/30/67 82/29/66
f 106/51/90 102/52/86 82/29/66
f 109/67/93 94/38/78 84/32/68
f 107/47/91 109/67/93 84/32/68
f 87/37/71 88/36/72 97/41/81
f 98/43/82 87/37/71 97/41/81
f 82/29/66 87/37/71 98/43/82
f 106/51/90 82/29/66 98/43/82
f 89/40/73 79/16/63 78/18/62
f 89/40/73 77/17/61 79/16/63
f 92/25/76 2/23/2 80/27/64
f 85/33/69 3/3/3 91/34/75
f 2/23/2 3/3/3 85/33/69
f 80/27/64 2/23/2 85/33/69
f 10/68/10 11/69/11 5/70/5
f 48/2/6 52/1/6 30/70/6
f 13/71/13 19/72/19 20/6/20
f 42/6/6 28/73/6 27/74/6
f 33/10/26 44/13/32 17/75/17
f 55/76/39 34/77/27 33/10/26
f 12/78/12 34/77/27 55/76/39
f 10/68/10 19/72/19 13/71/13
f 38/79/29 14/80/14 17/75/17
f 17/75/17 55/76/39 33/10/26
f 39/81/30 1/21/1 8/20/8
f 125/82/109 144/83/125 124/84/108
f 174/85/141 138/86/120 124/84/108
f 123/87/107 124/84/108 148/88/128
f 143/89/124 165/90/138 127/91/111
f 175/92/142 128/93/112 127/91/111
f 147/94/127 145/95/126 123/87/107
f 128/93/112 168/96/139 127/91/111
f 175/92/142 127/91/111 176/97/143
f 159/98/136 188/99/155 127/91/111
f 189/100/156 123/87/107 153/101/131
f 166/90/6 164/89/6 142/102/6
f 130/103/6 164/89/6 169/96/6
f 129/104/6 170/95/6 172/94/6
f 149/105/129 159/98/136 127/91/111
f 177/106/144 189/100/156 178/107/145
f 178/107/145 180/108/147 179/109/146
f 189/100/156 180/108/147 178/107/145
f 190/110/157 175/92/142 181/111/148
f 182/112/149 183/113/150 174/85/141
f 183/113/150 184/114/151 185/115/152
f 174/85/141 183/113/150 185/115/152
f 191/116/158 181/111/148 188/99/155
f 187/117/154 183/113/150 182/112/149
f 182/112/149 177/106/144 187/117/154
f 184/114/151 183/113/150 187/117/154
f 179/109/146 184/114/151 187/117/154
f 181/111/148 186/118/153 188/99/155
f 175/92/142 186/118/153 181/111/148
f 178/107/145 187/117/154 177/106/144
f 179/109/146 187/117/154 178/107/145
f 205/119/172 197/120/164 194/121/161
f 193/122/160 201/123/168 200/124/167
f 201/123/168 193/122/160 192/125/159
f 195/126/162 196/127/163 192/125/159
f 196/127/163 201/123/168 192/125/159
f 197/120/164 205/119/172 203/128/170
f 196/127/163 204/129/171 201/123/168
f 201/123/168 199/130/166 212/131/179
f 202/132/169 208/133/175 192/125/159
f 202/132/169 200/124/167 198/134/165
f 198/134/165 200/124/167 201/123/168
f 202/132/169 192/125/159 193/122/160
f 200/124/167 202/132/169 193/122/160
f 201/123/168 206/135/173 198/134/165
f 217/136/184 194/121/161 197/120/164
f 211/137/178 214/138/181 217/136/184
f 213/139/180 216/140/183 214/138/181
f 216/140/183 213/139/180 215/141/182
f 209/142/176 216/140/183 215/141/182
f 218/143/185 209/142/176 194/121/161
f 216/140/183 218/143/185 214/138/181
f 209/142/176 215/141/182 213/139/180
f 213/139/180 214/138/181 211/137/178
f 213/139/180 211/137/178 209/142/176
f 197/120/164 203/128/170 207/144/174
f 204/129/171 199/130/166 201/123/168
f 214/138/181 218/143/185 217/136/184
f 211/137/178 217/136/184 197/120/164
f 216/140/183 209/142/176 218/143/185
f 218/143/185 194/121/161 217/136/184
f 195/126/162 184/114/151 196/127/163
f 195/126/162 185/115/152 184/114/151
f 181/111/148 191/116/158 207/144/174
f 203/128/170 181/111/148 207/144/174
f 210/145/177 181/111/148 203/128/170
f 210/145/177 190/110/157 181/111/148
f 179/109/146 180/108/147 199/130/166
f 204/129/171 179/109/146 199/130/166
f 196/127/163 179/109/146 204/129/171
f 196/127/163 184/114/151 179/109/146
f 186/118/153 176/97/143 188/99/155
f 186/118/153 175/92/142 176/97/143
f 174/85/141 124/84/108 182/112/149
f 177/106/144 123/87/107 189/100/156
f 124/84/108 123/87/107 177/106/144
f 182/112/149 124/84/108 177/106/144
f 126/146/110 132/147/114 131/148/113
f 139/149/121 126/146/110 131/148/113
f 133/150/115 58/151/42 140/152/122
f 141/153/123 58/151/42 122/154/106
f 137/155/119 57/156/41 134/157/116
f 57/156/41 157/103/134 154/158/132
f 57/156/41 154/158/132 12/78/12
f 139/149/121 133/150/115 140/152/122
f 158/159/135 150/160/130 137/155/119
f 57/156/41 137/155/119 157/103/134
f 39/81/30 155/104/133 122/154/106
f 73/161/57 219/162/186 238/163/205
f 70/164/54 59/165/43 15/166/15
f 73/161/57 70/164/54 60/167/44
f 67/168/51 70/164/54 68/169/52
f 70/164/54 67/168/51 69/170/53
f 61/171/45 220/172/187 219/162/186
f 60/167/44 61/171/45 219/162/186
f 61/171/45 60/167/44 136/173/118
f 136/173/118 60/167/44 135/174/117
f 59/165/43 73/161/57 222/175/189
f 62/176/46 222/175/189 223/177/190
f 59/165/43 222/175/189 62/176/46
f 221/178/188 63/179/47 223/177/190
f 62/176/46 16/180/16 59/165/43
f 16/180/16 15/166/15 59/165/43
f 57/156/41 55/76/39 71/181/55
f 61/171/45 64/182/48 220/172/187
f 132/147/114 64/182/48 61/171/45
f 132/147/114 61/171/45 136/173/118
f 38/79/29 75/183/59 14/80/14
f 66/184/50 74/185/58 65/186/49
f 63/179/47 62/176/46 223/177/190
f 11/69/11 16/180/16 62/176/46
f 66/184/50 65/186/49 71/181/55
f 134/157/116 65/186/49 76/187/60
f 75/183/59 239/188/206 66/184/50
f 11/69/11 62/176/46 63/179/47
f 64/182/48 224/189/191 220/172/187
f 134/157/116 76/187/60 158/159/135
f 239/188/206 74/185/58 66/184/50
f 75/183/59 66/184/50 14/80/14
f 71/181/55 65/186/49 134/157/116
f 65/186/49 240/190/207 76/187/60
f 67/168/51 39/81/30 122/154/106
f 57/156/41 12/78/12 55/76/39
f 122/154/106 58/151/42 67/168/51
f 1/21/1 39/81/30 67/168/51
f 14/80/14 72/191/56 55/76/39
f 67/168/51 68/169/52 56/8/40
f 69/170/53 135/174/117 70/164/54
f 135/174/117 60/167/44 70/164/54
f 15/166/15 68/169/52 70/164/54
f 136/173/118 131/148/113 132/147/114
f 136/173/118 135/174/117 131/148/113
f 135/174/117 133/150/115 131/148/113
f 135/174/117 69/170/53 133/150/115
f 69/170/53 58/151/42 133/150/115
f 67/168/51 58/151/42 69/170/53
f 67/168/51 56/8/40 1/21/1
f 68/169/52 13/71/13 56/8/40
f 15/166/15 13/71/13 68/169/52
f 15/166/15 16/180/16 10/68/10
f 15/166/15 10/68/10 13/71/13
f 10/68/10 16/180/16 11/69/11
f 228/192/195 227/193/194 226/194/193
f 230/195/197 225/196/192 229/197/196
f 225/196/192 230/195/197 232/198/199
f 226/194/193 231/199/198 228/192/195
f 228/192/195 237/200/204 236/201/203
f 230/195/197 229/197/196 236/201/203
f 233/202/200 239/188/206 242/203/209
f 241/204/208 240/190/207 234/205/201
f 239/188/206 233/202/200 235/206/202
f 240/190/207 74/185/58 235/206/202
f 239/188/206 243/207/210 242/203/209
f 240/190/207 241/204/208 244/208/211
f 224/189/191 232/198/199 220/172/187
f 230/195/197 219/162/186 220/172/187
f 232/198/199 230/195/197 220/172/187
f 223/177/190 231/199/198 221/178/188
f 222/175/189 228/192/195 223/177/190
f 228/192/195 231/199/198 223/177/190
f 237/200/204 222/175/189 238/163/205
f 219/162/186 230/195/197 237/200/204
f 240/190/207 235/206/202 234/205/201
f 234/205/201 245/209/212 241/204/208
f 233/202/200 242/203/209 246/210/213
f 235/206/202 247/211/214 234/205/201
f 233/202/200 246/210/213 248/212/215
f 235/206/202 248/212/215 249/213/216
f 234/205/201 247/211/214 245/209/212
f 235/206/202 233/202/200 248/212/215
f 235/206/202 249/213/216 247/211/214
f 258/214/225 260/215/227 229/197/196
f 225/196/192 258/214/225 229/197/196
f 259/216/226 227/193/194 261/217/228
f 226/194/193 227/193/194 259/216/226
f 229/197/196 260/215/227 262/218/229
f 227/193/194 236/201/203 262/218/229
f 227/193/194 262/218/229 261/217/228
f 256/219/223 270/220/237 253/221/220
f 270/220/237 292/222/259 308/223/275
f 250/224/217 255/225/222 247/211/214
f 267/226/234 269/227/236 265/228/232
f 293/229/260 267/226/234 305/230/272
f 252/231/219 251/232/218 254/233/221
f 251/232/218 256/219/223 257/234/224
f 257/234/224 249/213/216 251/232/218
f 249/213/216 250/224/217 247/211/214
f 251/232/218 248/212/215 254/233/221
f 253/221/220 270/220/237 266/235/233
f 255/225/222 253/221/220 266/235/233
f 269/227/236 252/231/219 254/233/221
f 269/227/236 246/210/213 274/236/241
f 248/212/215 251/232/218 249/213/216
f 267/226/234 270/220/237 256/219/223
f 267/226/234 252/231/219 269/227/236
f 255/225/222 250/224/217 253/221/220
f 250/224/217 257/234/224 256/219/223
f 273/237/240 271/238/238 258/214/225
f 272/239/239 259/216/226 261/217/228
f 260/215/227 271/238/238 262/218/229
f 271/238/238 291/240/258 262/218/229
f 272/239/239 291/240/258 264/241/231
f 272/239/239 262/218/229 291/240/258
f 248/212/215 246/210/213 254/233/221
f 246/210/213 269/227/236 254/233/221
f 245/209/212 255/225/222 266/235/233
f 247/211/214 255/225/222 245/209/212
f 263/242/230 300/243/267 291/240/258
f 270/220/237 268/244/235 266/235/233
f 267/226/234 265/228/232 305/230/272
f 309/245/276 300/243/267 263/242/230
f 264/241/231 291/240/258 301/246/268
f 297/247/264 299/248/266 267/226/234
f 299/248/266 270/220/237 267/226/234
f 295/249/262 292/222/259 294/250/261
f 292/222/259 270/220/237 294/250/261
f 296/251/263 291/240/258 302/252/269
f 301/246/268 291/240/258 296/251/263
f 297/247/264 293/229/260 303/253/270
f 297/247/264 267/226/234 293/229/260
f 294/250/261 299/248/266 298/254/265
f 304/255/271 296/251/263 302/252/269
f 294/250/261 298/254/265 295/249/262
f 297/247/264 303/253/270 298/254/265
f 291/240/258 300/243/267 302/252/269
f 299/248/266 294/250/261 270/220/237
f 299/248/266 297/247/264 298/254/265
f 271/238/238 260/215/227 258/214/225
f 263/242/230 291/240/258 271/238/238
f 261/217/228 262/218/229 272/239/239
f 270/220/237 308/223/275 268/244/235
f 287/256/254 245/209/212 266/235/233
f 301/246/268 306/257/273 264/241/231
f 289/258/256 259/216/226 272/239/239
f 430/259/397 429/260/396 425/261/392
f 425/261/392 426/262/393 430/259/397
f 427/263/394 430/259/397 426/262/393
f 426/262/393 423/264/390 427/263/394
f 428/265/395 427/263/394 423/264/390
f 423/264/390 424/266/391 428/265/395
f 428/265/395 431/267/398 427/263/394
f 434/268/401 431/267/398 428/265/395
f 427/263/394 432/269/399 430/259/397
f 431/267/398 432/269/399 427/263/394
f 430/259/397 433/270/400 429/260/396
f 432/269/399 433/270/400 430/259/397
f 435/271/402 440/272/407 438/273/405
f 439/274/406 435/271/402 438/273/405
f 441/275/408 435/271/402 439/274/406
f 442/276/409 443/277/410 435/271/402
f 435/271/402 441/275/408 442/276/409
f 435/271/402 443/277/410 440/272/407
f 433/270/400 432/269/399 436/278/403
f 443/277/410 442/276/409 444/279/411
f 431/267/398 436/278/403 432/269/399
f 431/267/398 434/268/401 436/278/403
f 374/280/341 386/281/353 375/282/342
f 394/283/361 393/284/360 387/285/354
f 372/286/339 408/285/375 389/287/356
f 368/288/335 369/289/336 390/290/357
f 384/291/351 398/292/365 376/293/343
f 370/294/337 391/295/358 369/289/336
f 373/296/340 385/297/352 376/293/343
f 383/298/350 371/299/338 395/300/362
f 375/282/342 399/301/366 374/280/341
f 368/288/335 378/302/345 369/289/336
f 381/303/348 290/304/257 285/305/252
f 367/306/334 381/303/348 396/307/363
f 379/308/346 378/302/345 276/309/243
f 377/310/344 369/289/336 378/302/345
f 379/308/346 377/310/344 378/302/345
f 307/311/274 379/308/346 276/309/243
f 281/312/248 380/313/347 277/314/244
f 370/294/337 369/289/336 377/310/344
f 277/314/244 380/313/347 377/310/344
f 383/298/350 400/315/367 371/299/338
f 388/316/355 372/286/339 375/282/342
f 394/283/361 409/316/376 422/300/389
f 282/317/249 290/304/257 400/315/367
f 382/318/349 371/299/338 290/304/257
f 381/303/348 367/306/334 290/304/257
f 377/310/344 380/313/347 370/294/337
f 378/302/345 368/288/335 401/319/368
f 277/314/244 379/308/346 307/311/274
f 367/306/334 421/283/388 382/318/349
f 367/306/334 382/318/349 290/304/257
f 370/294/337 402/320/369 392/321/359
f 370/294/337 380/313/347 402/320/369
f 425/261/392 399/301/366 375/282/342
f 426/262/393 425/261/392 375/282/342
f 426/262/393 375/282/342 372/286/339
f 423/264/390 426/262/393 372/286/339
f 437/322/404 372/286/339 397/323/364
f 424/266/391 423/264/390 437/322/404
f 439/274/406 438/273/405 373/296/340
f 376/293/343 439/274/406 373/296/340
f 423/264/390 372/286/339 437/322/404
f 424/266/391 437/322/404 397/323/364
f 452/324/419 447/325/414 451/326/418
f 447/325/414 452/324/419 448/327/415
f 449/328/416 448/327/415 452/324/419
f 448/327/415 449/328/416 445/329/412
f 450/330/417 445/329/412 449/328/416
f 445/329/412 450/330/417 446/331/413
f 450/330/417 449/328/416 453/332/420
f 456/333/423 450/330/417 453/332/420
f 449/328/416 452/324/419 454/334/421
f 453/332/420 449/328/416 454/334/421
f 452/324/419 451/326/418 455/335/422
f 454/334/421 452/324/419 455/335/422
f 457/336/424 460/337/427 462/338/429
f 461/339/428 460/337/427 457/336/424
f 463/340/430 461/339/428 457/336/424
f 464/341/431 457/336/424 465/342/432
f 457/336/424 464/341/431 463/340/430
f 457/336/424 462/338/429 465/342/432
f 458/343/425 464/341/431 465/342/432
f 453/332/420 466/344/433 456/333/423
f 454/334/421 455/335/422 466/344/433
f 454/334/421 466/344/433 453/332/420
f 330/345/297 319/346/286 331/347/298
f 352/347/319 339/348/306 335/349/302
f 311/350/278 338/351/305 312/352/279
f 317/353/284 333/354/300 316/355/283
f 336/356/303 337/357/304 329/358/296
f 320/359/287 328/360/295 348/358/315
f 336/356/303 347/360/314 334/361/301
f 349/362/316 328/360/295 318/363/285
f 319/346/286 342/364/309 343/365/310
f 324/366/291 321/367/288 314/368/281
f 325/369/292 288/370/255 311/350/278
f 344/371/311 315/372/282 288/370/255
f 340/373/307 322/374/289 345/375/312
f 340/373/307 313/376/280 322/374/289
f 313/376/280 314/368/281 321/367/288
f 313/376/280 321/367/288 322/374/289
f 321/367/288 323/377/290 322/374/289
f 332/378/299 331/347/298 316/355/283
f 366/348/333 326/379/293 315/372/282
f 344/371/311 288/370/255 278/380/245
f 315/372/282 326/379/293 288/370/255
f 311/350/278 312/352/279 325/369/292
f 280/381/247 310/382/277 323/377/290
f 344/371/311 327/383/294 315/372/282
f 280/381/247 323/377/290 321/367/288
f 322/374/289 275/384/242 345/375/312
f 275/384/242 283/385/250 345/375/312
f 275/384/242 323/377/290 310/382/277
f 353/378/320 365/351/332 352/347/319
f 311/350/278 288/370/255 326/379/293
f 358/386/325 334/361/301 350/362/317
f 314/368/281 346/387/313 324/366/291
f 343/365/310 447/325/414 448/327/415
f 319/346/286 343/365/310 448/327/415
f 319/346/286 448/327/415 445/329/412
f 319/346/286 445/329/412 316/355/283
f 341/388/308 460/337/427 461/339/428
f 320/359/287 341/388/308 461/339/428
f 459/389/426 446/331/413 317/353/284
f 316/355/283 445/329/412 459/389/426
f 445/329/412 446/331/413 459/389/426
f 316/355/283 459/389/426 317/353/284
f 321/367/288 324/366/291 280/381/247
f 288/370/255 325/369/292 284/390/251
f 290/304/257 371/299/338 400/315/367
f 378/302/345 401/319/368 276/309/243
f 275/384/242 322/374/289 323/377/290
f 279/391/246 280/381/247 324/366/291
f 276/309/243 401/319/368 286/392/253
f 377/310/344 379/308/346 277/314/244
f 66/184/50 71/181/55 72/191/56
f 72/191/56 71/181/55 55/76/39
f 66/184/50 72/191/56 14/80/14
f 71/181/55 134/157/116 57/156/41
f 60/167/44 219/162/186 73/161/57
f 59/165/43 70/164/54 73/161/57
f 195/126/162 192/125/159 208/133/175
f 110/46/94 109/67/93 107/47/91
f 205/119/172 210/145/177 203/128/170
f 201/123/168 212/131/179 206/135/173
f 102/52/86 104/49/88 115/48/99
f 112/61/96 110/46/94 108/45/92
f 228/192/195 236/201/203 227/193/194
f 236/201/203 229/197/196 262/218/229
f 237/200/204 230/195/197 236/201/203
f 222/175/189 237/200/204 228/192/195
f 73/161/57 238/163/205 222/175/189
f 237/200/204 238/163/205 219/162/186
f 267/226/234 256/219/223 252/231/219
f 250/224/217 256/219/223 253/221/220
f 252/231/219 256/219/223 251/232/218
f 250/224/217 249/213/216 257/234/224
f 74/185/58 240/190/207 65/186/49
f 74/185/58 239/188/206 235/206/202
f 150/160/130 163/102/137 137/155/119
f 158/159/135 137/155/119 134/157/116
f 38/79/29 17/75/17 31/393/25
f 14/80/14 55/76/39 17/75/17
f 138/86/120 125/82/109 124/84/108
f 188/99/155 176/97/143 127/91/111
f 18/5/18 91/34/75 3/3/3
f 40/26/31 29/14/24 7/15/7
f 146/394/6 151/146/6 160/149/6
f 131/148/113 133/150/115 139/149/121
f 19/72/19 10/68/10 5/70/5
f 41/72/6 52/1/6 42/6/6
f 141/153/123 140/152/122 58/151/42
f 146/394/6 161/152/6 173/88/6
f 13/71/13 20/6/20 56/8/40
f 54/73/38 2/23/2 53/74/37
f 155/104/133 141/153/123 122/154/106
f 172/94/6 161/152/6 162/153/6
f 21/7/21 1/21/1 56/8/40
f 35/20/6 43/7/6 27/74/6
f 23/9/6 22/13/6 6/10/6
f 44/13/32 31/393/25 17/75/17
f 166/90/6 142/102/6 152/160/6
f 163/102/137 157/103/134 137/155/119
f 164/89/6 130/103/6 142/102/6
f 143/89/124 127/91/111 168/96/139
f 6/10/6 36/77/6 25/11/6
f 7/15/7 47/12/34 45/9/33
f 24/2/22 4/4/4 3/3/3
f 46/12/6 32/393/6 22/13/6
f 167/83/6 151/146/6 146/394/6
f 165/90/138 149/105/129 127/91/111
f 49/11/35 9/19/9 7/15/7
f 35/20/6 27/74/6 51/22/6
f 145/95/126 153/101/131 123/87/107
f 169/96/6 156/158/6 130/103/6
f 52/1/6 41/72/6 30/70/6
f 26/1/23 3/3/3 54/73/38
f 124/84/108 144/83/125 171/394/140
f 160/149/6 161/152/6 146/394/6
f 42/6/6 27/74/6 43/7/6
f 50/22/36 53/74/37 2/23/2
f 129/104/6 172/94/6 162/153/6
f 123/87/107 148/88/128 147/94/127
f 3/3/3 2/23/2 54/73/38
f 52/1/6 28/73/6 42/6/6
f 172/94/6 173/88/6 161/152/6
f 171/394/140 148/88/128 124/84/108
f 414/295/381 405/395/372 403/291/370
f 384/291/351 376/293/343 385/297/352
f 361/356/328 357/361/324 313/376/280
f 328/360/295 320/359/287 318/363/285
f 340/373/307 362/357/329 361/356/328
f 320/359/287 348/358/315 341/388/308
f 410/396/377 385/297/352 373/296/340
f 404/297/371 413/290/380 403/291/370
f 406/281/373 415/397/382 409/316/376
f 384/291/351 407/395/374 398/292/365
f 342/364/309 319/346/286 330/345/297
f 314/368/281 357/361/324 359/386/326
f 366/348/333 327/383/294 360/349/327
f 319/346/286 316/355/283 331/347/298
f 332/378/299 316/355/283 333/354/300
f 338/351/305 326/379/293 366/348/333
f 396/307/363 418/284/385 421/283/388
f 408/285/375 372/286/339 388/316/355
f 386/281/353 388/316/355 375/282/342
f 421/283/388 395/300/362 382/318/349
f 354/354/321 363/398/330 353/378/320
f 355/399/322 341/388/308 348/358/315
f 372/286/339 389/287/356 397/323/364
f 419/400/386 404/297/371 411/396/378
f 419/400/386 413/290/380 404/297/371
f 390/290/357 369/289/336 391/295/358
f 414/295/381 403/291/370 413/290/380
f 370/294/337 392/321/359 391/295/358
f 414/295/381 416/321/383 405/395/372
f 417/397/384 383/298/350 395/300/362
f 393/284/360 412/287/379 387/285/354
f 368/288/335 390/290/357 420/400/387
f 334/361/301 347/360/314 350/362/317
f 357/361/324 314/368/281 313/376/280
f 352/347/319 335/349/302 351/345/318
f 314/368/281 359/386/326 346/387/313
f 329/358/296 347/360/314 336/356/303
f 340/373/307 361/356/328 313/376/280
f 337/357/304 356/399/323 329/358/296
f 364/398/331 312/352/279 338/351/305
f 394/283/361 387/285/354 409/316/376
f 396/307/363 421/283/388 367/306/334
f 365/351/332 353/378/320 363/398/330
f 311/350/278 326/379/293 338/351/305
f 415/397/382 422/300/389 409/316/376
f 395/300/362 371/299/338 382/318/349
f 352/347/319 365/351/332 339/348/306
f 315/372/282 327/383/294 366/348/333
f 503/401/470 481/402/448 469/403/436
f 481/402/448 507/404/474 505/405/472
f 476/406/443 473/407/440 513/408/480
f 513/408/480 517/409/484 514/410/481
f 476/406/443 513/408/480 514/410/481
f 474/411/441 473/407/440 511/412/478
f 502/413/469 505/405/472 477/414/444
f 502/413/469 469/403/436 505/405/472
f 475/415/442 530/416/497 471/417/438
f 484/418/451 504/419/471 475/415/442
f 516/420/483 512/421/479 515/422/482
f 472/423/439 515/422/482 512/421/479
f 472/423/439 483/424/450 480/425/447
f 505/405/472 507/404/474 477/414/444
f 480/425/447 481/402/448 503/401/470
f 482/426/449 476/406/443 479/427/446
f 504/419/471 484/418/451 479/427/446
f 478/428/445 501/429/468 520/430/487
f 478/428/445 508/431/475 506/432/473
f 506/432/473 508/431/475 484/418/451
f 488/433/455 487/434/454 486/435/453
f 522/436/489 490/437/457 489/438/456
f 493/439/460 490/437/457 492/440/459
f 490/437/457 493/439/460 526/441/493
f 495/442/462 526/441/493 494/443/461
f 526/441/493 495/442/462 489/438/456
f 495/442/462 496/444/463 489/438/456
f 492/440/459 490/437/457 527/445/494
f 527/445/494 487/434/454 492/440/459
f 496/444/463 485/446/452 470/447/437
f 497/448/464 496/444/463 470/447/437
f 470/447/437 485/446/452 478/428/445
f 520/430/487 470/447/437 478/428/445
f 486/435/453 527/445/494 491/449/458
f 495/442/462 485/446/452 496/444/463
f 498/450/465 489/438/456 496/444/463
f 521/451/488 522/436/489 498/450/465
f 521/451/488 491/449/458 522/436/489
f 486/435/453 491/449/458 499/452/466
f 498/450/465 496/444/463 497/448/464
f 500/453/467 525/454/492 497/448/464
f 499/452/466 521/451/488 486/435/453
f 525/454/492 500/453/467 488/433/455
f 486/435/453 498/450/465 525/454/492
f 511/412/478 473/407/440 467/455/434
f 468/456/435 511/412/478 467/455/434
f 510/457/477 530/416/497 475/415/442
f 511/412/478 509/458/476 510/457/477
f 500/453/467 472/423/439 488/433/455
f 487/434/454 488/433/455 518/459/485
f 472/423/439 528/460/495 488/433/455
f 494/443/461 493/439/460 476/406/443
f 493/439/460 473/407/440 476/406/443
f 519/461/486 493/439/460 492/440/459
f 483/424/450 472/423/439 500/453/467
f 483/424/450 500/453/467 497/448/464
f 523/462/490 497/448/464 470/447/437
f 494/443/461 476/406/443 482/426/449
f 482/426/449 495/442/462 494/443/461
f 524/463/491 495/442/462 482/426/449
f 471/417/438 501/429/468 506/432/473
f 478/428/445 506/432/473 501/429/468
f 531/464/498 502/413/469 520/430/487
f 506/432/473 475/415/442 471/417/438
f 469/403/436 502/413/469 531/464/498
f 501/429/468 471/417/438 520/430/487
f 503/401/470 469/403/436 532/465/499
f 483/424/450 481/402/448 480/425/447
f 504/419/471 510/457/477 475/415/442
f 482/426/449 479/427/446 484/418/451
f 477/414/444 507/404/474 470/447/437
f 481/402/448 505/405/472 469/403/436
f 484/418/451 475/415/442 506/432/473
f 478/428/445 485/446/452 508/431/475
f 483/424/450 507/404/474 481/402/448
f 483/424/450 523/462/490 507/404/474
f 524/463/491 508/431/475 485/446/452
f 482/426/449 484/418/451 508/431/475
f 474/411/441 511/412/478 510/457/477
f 516/420/483 503/401/470 532/465/499
f 510/457/477 509/458/476 530/416/497
f 517/409/484 510/457/477 504/419/471
f 472/423/439 512/421/479 528/460/495
f 468/456/435 509/458/476 511/412/478
f 503/401/470 516/420/483 480/425/447
f 529/466/496 528/460/495 512/421/479
f 474/411/441 513/408/480 473/407/440
f 504/419/471 479/427/446 517/409/484
f 517/409/484 479/427/446 514/410/481
f 479/427/446 476/406/443 514/410/481
f 516/420/483 515/422/482 480/425/447
f 480/425/447 515/422/482 472/423/439
f 529/466/496 516/420/483 532/465/499
f 516/420/483 529/466/496 512/421/479
f 474/411/441 510/457/477 517/409/484
f 517/409/484 513/408/480 474/411/441
f 528/460/495 518/459/485 488/433/455
f 473/407/440 493/439/460 519/461/486
f 470/447/437 520/430/487 477/414/444
f 477/414/444 520/430/487 502/413/469
f 499/452/466 491/449/458 521/451/488
f 521/451/488 498/450/465 486/435/453
f 491/449/458 490/437/457 522/436/489
f 522/436/489 489/438/456 498/450/465
f 483/424/450 497/448/464 523/462/490
f 523/462/490 470/447/437 507/404/474
f 485/446/452 495/442/462 524/463/491
f 482/426/449 508/431/475 524/463/491
f 519/461/486 492/440/459 487/434/454
f 487/434/454 518/459/485 519/461/486
f 518/459/485 473/407/440 519/461/486
f 467/455/434 473/407/440 518/459/485
f 498/450/465 497/448/464 525/454/492
f 486/435/453 525/454/492 488/433/455
f 490/437/457 526/441/493 489/438/456
f 526/441/493 493/439/460 494/443/461
f 486/435/453 487/434/454 527/445/494
f 527/445/494 490/437/457 491/449/458
f 569/401/470 547/402/448 535/403/436
f 547/402/448 573/404/474 571/405/472
f 542/406/443 539/407/440 579/408/480
f 579/408/480 583/409/484 580/410/481
f 542/406/443 579/408/480 580/410/481
f 540/411/441 539/407/440 577/412/478
f 568/413/469 571/405/472 543/414/444
f 568/413/469 535/403/436 571/405/472
f 541/415/442 596/416/497 537/417/438
f 550/418/451 570/419/471 541/415/442
f 582/420/483 578/421/479 581/422/482
f 538/423/439 581/422/482 578/421/479
f 538/423/439 549/424/450 546/425/447
f 571/405/472 573/404/474 543/414/444
f 546/425/447 547/402/448 569/401/470
f 548/426/449 542/406/443 545/427/446
f 570/419/471 550/418/451 545/427/446
f 544/428/445 567/429/468 586/430/487
f 544/428/445 574/431/475 572/432/473
f 572/432/473 574/431/475 550/418/451
f 554/433/455 553/434/454 552/435/453
f 588/436/489 556/437/457 555/438/456
f 559/439/460 556/437/457 558/440/459
f 556/437/457 559/439/460 592/441/493
f 561/442/462 592/441/493 560/443/461
f 592/441/493 561/442/462 555/438/456
f 561/442/462 562/444/463 555/438/456
f 558/440/459 556/437/457 593/445/494
f 593/445/494 553/434/454 558/440/459
f 562/444/463 551/446/452 536/447/437
f 563/448/464 562/444/463 536/447/437
f 536/447/437 551/446/452 544/428/445
f 586/430/487 536/447/437 544/428/445
f 552/435/453 593/445/494 557/449/458
f 561/442/462 551/446/452 562/444/463
f 564/450/465 555/438/456 562/444/463
f 587/451/488 588/436/489 564/450/465
f 587/451/488 557/449/458 588/436/489
f 552/435/453 557/449/458 565/452/466
f 564/450/465 562/444/463 563/448/464
f 566/453/467 591/454/492 563/448/464
f 565/452/466 587/451/488 552/435/453
f 591/454/492 566/453/467 554/433/455
f 552/435/453 564/450/465 591/454/492
f 577/412/478 539/407/440 533/455/434
f 534/456/435 577/412/478 533/455/434
f 576/457/477 596/416/497 541/415/442
f 577/412/478 575/458/476 576/457/477
f 566/453/467 538/423/439 554/433/455
f 553/434/454 554/433/455 584/459/485
f 538/423/439 594/460/495 554/433/455
f 560/443/461 559/439/460 542/406/443
f 559/439/460 539/407/440 542/406/443
f 585/461/486 559/439/460 558/440/459
f 549/424/450 538/423/439 566/453/467
f 549/424/450 566/453/467 563/448/464
f 589/462/490 563/448/464 536/447/437
f 560/443/461 542/406/443 548/426/449
f 548/426/449 561/442/462 560/443/461
f 590/463/491 561/442/462 548/426/449
f 537/417/438 567/429/468 572/432/473
f 544/428/445 572/432/473 567/429/468
f 597/464/498 568/413/469 586/430/487
f 572/432/473 541/415/442 537/417/438
f 535/403/436 568/413/469 597/464/498
f 567/429/468 537/417/438 586/430/487
f 569/401/470 535/403/436 598/465/499
f 549/424/450 547/402/448 546/425/447
f 570/419/471 576/457/477 541/415/442
f 548/426/449 545/427/446 550/418/451
f 543/414/444 573/404/474 536/447/437
f 547/402/448 571/405/472 535/403/436
f 550/418/451 541/415/442 572/432/473
f 544/428/445 551/446/452 574/431/475
f 549/424/450 573/404/474 547/402/448
f 549/424/450 589/462/490 573/404/474
f 590/463/491 574/431/475 551/446/452
f 548/426/449 550/418/451 574/431/475
f 540/411/441 577/412/478 576/457/477
f 582/420/483 569/401/470 598/465/499
f 576/457/477 575/458/476 596/416/497
f 583/409/484 576/457/477 570/419/471
f 538/423/439 578/421/479 594/460/495
f 534/456/435 575/458/476 577/412/478
f 569/401/470 582/420/483 546/425/447
f 595/466/496 594/460/495 578/421/479
f 540/411/441 579/408/480 539/407/440
f 570/419/471 545/427/446 583/409/484
f 583/409/484 545/427/446 580/410/481
f 545/427/446 542/406/443 580/410/481
f 582/420/483 581/422/482 546/425/447
f 546/425/447 581/422/482 538/423/439
f 595/466/496 582/420/483 598/465/499
f 582/420/483 595/466/496 578/421/479
f 540/411/441 576/457/477 583/409/484
f 583/409/484 579/408/480 540/411/441
f 594/460/495 584/459/485 554/433/455
f 539/407/440 559/439/460 585/461/486
f 536/447/437 586/430/487 543/414/444
f 543/414/444 586/430/487 568/413/469
f 565/452/466 557/449/458 587/451/488
f 587/451/488 564/450/465 552/435/453
f 557/449/458 556/437/457 588/436/489
f 588/436/489 555/438/456 564/450/465
f 549/424/450 563/448/464 589/462/490
f 589/462/490 536/447/437 573/404/474
f 551/446/452 561/442/462 590/463/491
f 548/426/449 574/431/475 590/463/491
f 585/461/486 558/440/459 553/434/454
f 553/434/454 584/459/485 585/461/486
f 584/459/485 539/407/440 585/461/486
f 533/455/434 539/407/440 584/459/485
f 564/450/465 563/448/464 591/454/492
f 552/435/453 591/454/492 554/433/455
f 556/437/457 592/441/493 555/438/456
f 592/441/493 559/439/460 560/443/461
f 552/435/453 553/434/454 593/445/494
f 593/445/494 556/437/457 557/449/458
f 599/467/500 600/468/501 604/469/505 603/470/504
f 600/468/501 601/471/502 605/472/506 604/469/505
f 601/471/502 602/473/503 606/474/507 605/472/506
f 602/473/503 599/467/500 603/470/504 606/474/507
f 603/470/504 604/469/505 607/475/508
f 604/469/505 605/472/506 607/475/508
f 605/472/506 606/474/507 607/475/508
f 606/474/507 603/470/504 607/475/508
f 603/470/504 607/475/508 608/476/509
f 604/469/505 607/475/508 609/477/510
f 604/469/505 609/477/510 610/478/511
f 605/472/506 610/478/511 609/477/510
f 605/472/506 609/477/510 606/474/507
f 606/474/507 609/477/510 608/476/509
f 608/476/509 609/477/510 610/478/511
f 615/470/516 616/469/517 612/468/513 611/467/512
f 616/469/517 617/472/518 613/471/514 612/468/513
f 617/472/518 618/474/519 614/473/515 613/471/514
f 618/474/519 615/470/516 611/467/512 614/473/515
f 619/475/520 616/469/517 615/470/516
f 619/475/520 617/472/518 616/469/517
f 619/475/520 618/474/519 617/472/518
f 619/475/520 615/470/516 618/474/519
f 620/476/521 619/475/520 615/470/516
f 621/477/522 619/475/520 616/469/517
f 622/478/523 621/477/522 616/469/517
f 621/477/522 622/478/523 617/472/518
f 618/474/519 621/477/522 617/472/518
f 620/476/521 621/477/522 618/474/519
f 622/478/523 621/477/522 620/476/521
