# Blender 5.1.1
# www.blender.org
mtllib npc_bowo_walk3.mtl
o npc_bowo_walk3
v -0.057332 -0.054555 0.678844
v 0.057542 -0.054767 0.678757
v -0.064980 -0.054546 0.719801
v 0.065254 -0.052984 0.721546
v -0.089630 -0.010703 0.725156
v 0.089575 -0.009842 0.724781
v 0.072598 0.045473 0.710317
v -0.072936 0.045313 0.710317
v -0.000240 0.057211 0.705884
v -0.000193 0.059023 0.761228
v 0.000137 -0.065783 0.720674
v -0.057332 -0.054555 0.678844
v 0.057542 -0.054767 0.678757
v -0.089630 -0.010703 0.725156
v 0.089575 -0.009842 0.724781
v -0.066283 0.037955 0.675348
v 0.066164 0.037666 0.675335
v -0.000059 0.048996 0.675341
v 0.078136 -0.008189 0.677515
v -0.078179 -0.007807 0.677564
v 0.065606 -0.060489 0.657495
v -0.066869 -0.060697 0.657488
v -0.084720 -0.010031 0.665236
v 0.084516 -0.009745 0.665488
v 0.019336 0.053561 0.553413
v -0.022145 0.053728 0.553427
v -0.000144 0.053655 0.593649
v -0.000631 -0.068146 0.652188
v -0.001224 -0.071850 0.553732
v -0.000906 -0.076412 0.594867
v -0.066283 0.037955 0.675348
v -0.066283 0.037955 0.675348
v 0.066164 0.037666 0.675335
v 0.066164 0.037666 0.675335
v -0.000059 0.048996 0.675341
v 0.078136 -0.008189 0.677515
v 0.078136 -0.008189 0.677515
v -0.078179 -0.007807 0.677564
v -0.078179 -0.007807 0.677564
v -0.074840 0.048224 0.766509
v -0.094035 -0.010802 0.776464
v -0.074940 -0.053961 0.781662
v 0.075199 -0.053104 0.782535
v 0.094087 -0.010296 0.776276
v 0.074526 0.048367 0.766509
v 0.000129 -0.070302 0.782098
v -0.080539 0.051135 0.822701
v 0.080249 0.051261 0.822701
v -0.000145 0.060836 0.816571
v -0.094035 -0.010802 0.776464
v 0.094087 -0.010296 0.776276
v -0.094855 -0.010901 0.851297
v -0.087198 -0.052928 0.861667
v 0.095015 -0.010749 0.851297
v 0.087441 -0.052776 0.861667
v -0.000072 -0.074477 0.865041
v -0.071678 0.014726 0.929949
v -0.084698 -0.041936 0.931608
v 0.071567 0.014699 0.929278
v 0.084660 -0.041970 0.930850
v -0.026973 0.017658 0.928713
v 0.103608 -0.038360 0.886604
v -0.103664 -0.038443 0.887180
v -0.000123 0.046113 0.881057
v 0.027174 0.017747 0.928713
v -0.037108 -0.032849 0.954226
v 0.037267 -0.032759 0.954226
v 0.086013 -0.053109 0.901419
v -0.086064 -0.053136 0.902167
v 0.087269 0.026869 0.899226
v -0.087364 0.026830 0.899910
v 0.105992 0.014777 0.887463
v -0.106085 0.014690 0.888002
v -0.094855 -0.010901 0.851297
v 0.095015 -0.010749 0.851297
v 0.103608 -0.038360 0.886604
v 0.103608 -0.038360 0.886604
v -0.103664 -0.038443 0.887180
v -0.103664 -0.038443 0.887180
v -0.037108 -0.032849 0.954226
v 0.037267 -0.032759 0.954226
v 0.105992 0.014777 0.887463
v -0.106085 0.014690 0.888002
v -0.086166 -0.042199 0.863190
v -0.122495 -0.050624 0.852775
v -0.143265 -0.043296 0.860873
v -0.139802 0.013353 0.861920
v -0.090977 0.021457 0.856999
v -0.099256 -0.038231 0.731978
v -0.118442 0.015446 0.764979
v -0.101628 0.001889 0.736198
v -0.137842 0.003175 0.738613
v -0.140363 -0.034043 0.902057
v -0.137183 0.009322 0.899448
v -0.133378 -0.013142 0.922026
v -0.139761 0.008395 0.839926
v -0.141372 -0.037845 0.837484
v -0.104469 0.026799 0.900356
v -0.102900 -0.053063 0.902298
v -0.124667 0.021510 0.855533
v -0.141835 -0.042230 0.756102
v -0.118464 -0.050529 0.757810
v -0.121116 0.016374 0.800076
v -0.135980 0.005374 0.801546
v -0.139255 -0.039210 0.802514
v -0.119641 -0.048601 0.800939
v -0.091145 -0.042053 0.798343
v -0.095625 0.009971 0.797941
v -0.123738 -0.051803 0.805252
v -0.088188 -0.043975 0.802018
v -0.092979 0.016859 0.801509
v -0.144420 -0.040767 0.806896
v -0.141779 0.008517 0.805912
v -0.125794 0.020381 0.804330
v -0.122495 -0.050624 0.852775
v -0.118442 0.015446 0.764979
v -0.137842 0.003175 0.738613
v -0.140363 -0.034043 0.902057
v -0.140363 -0.034043 0.902057
v -0.137183 0.009322 0.899448
v -0.133378 -0.013142 0.922026
v -0.104469 0.026799 0.900356
v -0.104469 0.026799 0.900356
v -0.102900 -0.053063 0.902298
v -0.102900 -0.053063 0.902298
v -0.124667 0.021510 0.855533
v -0.118464 -0.050529 0.757810
v -0.121116 0.016374 0.800076
v -0.121116 0.016374 0.800076
v -0.121116 0.016374 0.800076
v -0.135980 0.005374 0.801546
v -0.139255 -0.039210 0.802514
v -0.119641 -0.048601 0.800939
v -0.119641 -0.048601 0.800939
v -0.119641 -0.048601 0.800939
v -0.091145 -0.042053 0.798343
v -0.095625 0.009971 0.797941
v -0.123738 -0.051803 0.805252
v -0.123738 -0.051803 0.805252
v -0.123738 -0.051803 0.805252
v -0.088188 -0.043975 0.802018
v -0.092979 0.016859 0.801509
v -0.144420 -0.040767 0.806896
v -0.141779 0.008517 0.805912
v -0.125794 0.020381 0.804330
v -0.125794 0.020381 0.804330
v -0.125794 0.020381 0.804330
v 0.085444 -0.042194 0.863204
v 0.121773 -0.050621 0.852791
v 0.142543 -0.043296 0.860887
v 0.139075 0.013354 0.861930
v 0.090249 0.021462 0.857008
v 0.098719 -0.038213 0.732007
v 0.117718 0.015450 0.764991
v 0.100759 0.001892 0.736219
v 0.136974 0.003178 0.738637
v 0.139662 -0.033352 0.902056
v 0.136436 0.008629 0.899474
v 0.133383 -0.013128 0.921889
v 0.139036 0.008395 0.839939
v 0.140647 -0.037845 0.837496
v 0.103746 0.026827 0.900361
v 0.102175 -0.053043 0.902316
v 0.123939 0.021512 0.855542
v 0.141110 -0.042234 0.756114
v 0.117739 -0.050525 0.757823
v 0.135210 0.005387 0.801525
v 0.138548 -0.039210 0.802564
v 0.118932 -0.048611 0.801003
v 0.120415 0.016355 0.800046
v 0.090437 -0.042074 0.798398
v 0.094855 0.009968 0.797914
v 0.122935 -0.051828 0.805294
v 0.087386 -0.044019 0.802050
v 0.092149 0.016829 0.801449
v 0.143619 -0.040773 0.806921
v 0.140948 0.008514 0.805862
v 0.125004 0.020347 0.804268
v 0.121773 -0.050621 0.852791
v 0.117718 0.015450 0.764991
v 0.136974 0.003178 0.738637
v 0.139662 -0.033352 0.902056
v 0.139662 -0.033352 0.902056
v 0.136436 0.008629 0.899474
v 0.133383 -0.013128 0.921889
v 0.103746 0.026827 0.900361
v 0.103746 0.026827 0.900361
v 0.102175 -0.053043 0.902316
v 0.102175 -0.053043 0.902316
v 0.123939 0.021512 0.855542
v 0.117739 -0.050525 0.757823
v 0.135210 0.005387 0.801525
v 0.138548 -0.039210 0.802564
v 0.118932 -0.048611 0.801003
v 0.118932 -0.048611 0.801003
v 0.118932 -0.048611 0.801003
v 0.120415 0.016355 0.800046
v 0.120415 0.016355 0.800046
v 0.120415 0.016355 0.800046
v 0.090437 -0.042074 0.798398
v 0.094855 0.009968 0.797914
v 0.122935 -0.051828 0.805294
v 0.122935 -0.051828 0.805294
v 0.122935 -0.051828 0.805294
v 0.087386 -0.044019 0.802050
v 0.092149 0.016829 0.801449
v 0.143619 -0.040773 0.806921
v 0.140948 0.008514 0.805862
v 0.125004 0.020347 0.804268
v 0.125004 0.020347 0.804268
v 0.125004 0.020347 0.804268
v -0.000147 -0.045259 0.954681
v -0.029126 0.012295 1.012173
v -0.024697 -0.026572 1.024771
v 0.025848 -0.026858 1.024578
v 0.030005 0.012344 1.012173
v 0.000440 0.027895 1.008244
v -0.000346 0.005706 1.029779
v -0.024697 -0.026572 1.024771
v 0.025848 -0.026858 1.024578
v -0.000346 0.005706 1.029779
v 0.061803 -0.068582 0.559878
v 0.094952 -0.019337 0.576628
v 0.093205 0.026317 0.601233
v 0.073058 0.049681 0.596006
v 0.067182 -0.073342 0.600617
v 0.019778 -0.015796 0.335211
v 0.046750 0.070020 0.342219
v 0.074455 -0.015804 0.335715
v 0.086507 0.053291 0.340447
v 0.094668 0.025227 0.459534
v 0.009500 0.052698 0.345249
v 0.075031 -0.030571 0.383073
v 0.062120 -0.064292 0.536655
v 0.005594 -0.063724 0.536191
v 0.071767 0.047958 0.569245
v 0.093205 0.026317 0.601233
v 0.086507 0.053291 0.340447
v 0.094668 0.025227 0.459534
v 0.009500 0.052698 0.345249
v -0.064271 -0.068728 0.559869
v -0.096163 -0.019398 0.576620
v -0.094031 0.026343 0.601238
v -0.073605 0.049568 0.596004
v -0.069004 -0.073514 0.600607
v -0.001780 0.022202 0.535231
v -0.020730 -0.071056 0.353571
v -0.075408 -0.070914 0.354025
v -0.087457 -0.000540 0.358432
v -0.047701 0.016731 0.360110
v -0.095619 0.006958 0.465753
v -0.010451 0.000298 0.362744
v -0.075982 -0.071738 0.396453
v -0.063829 -0.063759 0.536522
v -0.007294 -0.062906 0.536226
v -0.001502 -0.057137 0.544495
v -0.072515 0.048623 0.569357
v -0.094031 0.026343 0.601238
v -0.001780 0.022202 0.535231
v -0.087457 -0.000540 0.358432
v -0.095619 0.006958 0.465753
v -0.010451 0.000298 0.362744
v -0.020653 -0.003458 0.316421
v -0.078997 -0.003076 0.317362
v -0.050381 0.001320 0.306714
v -0.010469 -0.072718 0.247413
v -0.022169 -0.105264 0.095144
v -0.092373 -0.073440 0.248246
v -0.064560 -0.107643 0.094653
v -0.047477 -0.095746 0.250592
v -0.074615 -0.074830 0.315360
v -0.023508 -0.074721 0.314924
v -0.049612 0.006852 0.320541
v -0.036173 -0.094790 0.097674
v -0.053130 -0.094843 0.097674
v -0.020653 -0.003458 0.316421
v -0.078997 -0.003076 0.317362
v -0.022169 -0.105264 0.095144
v -0.022169 -0.105264 0.095144
v -0.022169 -0.105264 0.095144
v -0.022169 -0.105264 0.095144
v -0.064560 -0.107643 0.094653
v -0.064560 -0.107643 0.094653
v -0.064560 -0.107643 0.094653
v -0.036173 -0.094790 0.097674
v -0.036173 -0.094790 0.097674
v -0.053130 -0.094843 0.097674
v -0.053130 -0.094843 0.097674
v -0.053130 -0.094843 0.097674
v -0.019980 -0.055818 0.094909
v -0.046758 -0.039047 0.095399
v -0.077532 -0.052461 0.095600
v -0.064245 -0.064824 0.097653
v -0.033082 -0.064793 0.097653
v -0.047624 -0.051034 0.097636
v -0.061031 -0.111370 0.049825
v -0.083205 -0.010774 0.064377
v -0.027896 -0.013836 0.049701
v -0.038801 -0.107680 0.049820
v -0.084782 -0.013714 0.049701
v -0.035431 -0.113325 0.066776
v -0.065292 -0.112671 0.066529
v -0.031989 -0.032864 0.088366
v -0.075581 -0.026455 0.073090
v -0.040080 -0.060007 0.054172
v -0.019980 -0.055818 0.094909
v -0.019980 -0.055818 0.094909
v -0.019980 -0.055818 0.094909
v -0.046758 -0.039047 0.095399
v -0.046758 -0.039047 0.095399
v -0.046758 -0.039047 0.095399
v -0.046758 -0.039047 0.095399
v -0.077532 -0.052461 0.095600
v -0.077532 -0.052461 0.095600
v -0.077532 -0.052461 0.095600
v -0.064245 -0.064824 0.097653
v -0.064245 -0.064824 0.097653
v -0.064245 -0.064824 0.097653
v -0.064245 -0.064824 0.097653
v -0.064245 -0.064824 0.097653
v -0.033082 -0.064793 0.097653
v -0.033082 -0.064793 0.097653
v -0.033082 -0.064793 0.097653
v -0.033082 -0.064793 0.097653
v -0.033082 -0.064793 0.097653
v -0.047624 -0.051034 0.097636
v -0.047624 -0.051034 0.097636
v -0.083205 -0.010774 0.064377
v -0.027896 -0.013836 0.049701
v -0.084782 -0.013714 0.049701
v -0.031989 -0.032864 0.088366
v -0.075581 -0.026455 0.073090
v 0.019702 0.064150 0.294937
v 0.078046 0.064220 0.295980
v 0.049382 0.072370 0.283111
v 0.009517 0.018940 0.217775
v 0.020977 0.036492 0.048806
v 0.091421 0.018010 0.218271
v 0.063368 0.036290 0.048242
v 0.046525 -0.005078 0.220708
v 0.022555 -0.006111 0.292340
v 0.073663 -0.006347 0.292717
v 0.048661 0.073362 0.298399
v 0.052244 0.048369 0.051637
v 0.035319 0.048422 0.051638
v 0.019702 0.064150 0.294937
v 0.078046 0.064220 0.295980
v 0.020977 0.036492 0.048806
v 0.020977 0.036492 0.048806
v 0.020977 0.036492 0.048806
v 0.020977 0.036492 0.048806
v 0.063368 0.036290 0.048242
v 0.063368 0.036290 0.048242
v 0.063368 0.036290 0.048242
v 0.052244 0.048369 0.051637
v 0.052244 0.048369 0.051637
v 0.052244 0.048369 0.051637
v 0.035319 0.048422 0.051638
v 0.035319 0.048422 0.051638
v 0.019027 0.088424 0.048635
v 0.045811 0.104981 0.049294
v 0.076585 0.091540 0.049423
v 0.031696 0.078519 0.051617
v 0.063675 0.078313 0.051617
v 0.047103 0.092267 0.051600
v 0.060929 0.047915 -0.001465
v 0.083111 0.143420 0.014687
v 0.027802 0.145576 -0.001580
v 0.029303 0.142744 0.020882
v 0.038745 0.051663 -0.001470
v 0.084688 0.145630 -0.001580
v 0.064676 0.040867 0.017055
v 0.034769 0.040106 0.017338
v 0.031391 0.113580 0.041301
v 0.075274 0.124886 0.024371
v 0.039994 0.097881 0.003365
v 0.019027 0.088424 0.048635
v 0.019027 0.088424 0.048635
v 0.019027 0.088424 0.048635
v 0.045811 0.104981 0.049294
v 0.045811 0.104981 0.049294
v 0.045811 0.104981 0.049294
v 0.045811 0.104981 0.049294
v 0.076585 0.091540 0.049423
v 0.076585 0.091540 0.049423
v 0.076585 0.091540 0.049423
v 0.031696 0.078519 0.051617
v 0.031696 0.078519 0.051617
v 0.031696 0.078519 0.051617
v 0.031696 0.078519 0.051617
v 0.031696 0.078519 0.051617
v 0.063675 0.078313 0.051617
v 0.063675 0.078313 0.051617
v 0.063675 0.078313 0.051617
v 0.063675 0.078313 0.051617
v 0.063675 0.078313 0.051617
v 0.047103 0.092267 0.051600
v 0.047103 0.092267 0.051600
v 0.083111 0.143420 0.014687
v 0.027802 0.145576 -0.001580
v 0.029303 0.142744 0.020882
v 0.084688 0.145630 -0.001580
v 0.031391 0.113580 0.041301
v 0.075274 0.124886 0.024371
v -0.074160 -0.012682 0.935604
v -0.074160 -0.012682 0.935604
v 0.074086 -0.012718 0.934890
v 0.074086 -0.012718 0.934890
v 0.138974 -0.038330 0.729512
v 0.120499 -0.046003 0.727142
v 0.140579 -0.042349 0.720044
v 0.105039 -0.042312 0.717120
v 0.097213 -0.035082 0.678838
v 0.138534 -0.046065 0.694684
v 0.152304 -0.053513 0.695904
v 0.141085 0.016913 0.685032
v 0.102258 0.011281 0.675140
v 0.123609 0.008070 0.570810
v 0.145496 0.006928 0.573438
v 0.145241 -0.021433 0.569664
v 0.135483 -0.005636 0.563077
v 0.123978 -0.020892 0.567248
v 0.138542 0.006816 0.729064
v 0.101007 0.003359 0.723073
v 0.120499 -0.046003 0.727142
v 0.140579 -0.042349 0.720044
v 0.138534 -0.046065 0.694684
v 0.141085 0.016913 0.685032
v 0.145496 0.006928 0.573438
v 0.145241 -0.021433 0.569664
v 0.135483 -0.005636 0.563077
v 0.138542 0.006816 0.729064
v -0.139513 -0.038307 0.729483
v -0.121240 -0.046007 0.727148
v -0.139253 -0.042679 0.719429
v -0.105903 -0.042708 0.716713
v -0.095750 -0.035082 0.678849
v -0.136132 -0.046065 0.694708
v -0.149902 -0.017751 0.695932
v -0.138683 0.016913 0.685056
v -0.100795 0.011281 0.675152
v -0.123350 -0.020830 0.566802
v -0.123396 0.008981 0.570792
v -0.146974 0.007789 0.573411
v -0.146873 -0.021229 0.569617
v -0.136453 -0.004068 0.561548
v -0.137770 0.006787 0.729057
v -0.100704 0.003331 0.723064
v -0.121240 -0.046007 0.727148
v -0.139253 -0.042679 0.719429
v -0.136132 -0.046065 0.694708
v -0.138683 0.016913 0.685056
v -0.146974 0.007789 0.573411
v -0.146873 -0.021229 0.569617
v -0.136453 -0.004068 0.561548
v -0.137770 0.006787 0.729057
v -0.029398 -0.009909 0.069966
v -0.069070 0.028528 0.049647
v -0.069275 0.028707 0.059409
v -0.042544 0.040135 0.049632
v -0.041811 0.041049 0.060505
v -0.029678 -0.003314 0.067942
v -0.082335 -0.004427 0.063956
v -0.029398 -0.009909 0.069966
v 0.068976 0.188178 -0.001630
v 0.069180 0.185140 0.009190
v 0.042450 0.199922 -0.001644
v 0.041716 0.197137 0.010407
v 0.029584 0.150144 0.018640
v 0.082241 0.150190 0.014222
v -0.036223 0.007192 0.990744
v 0.000486 -0.026498 0.982659
v -0.021853 0.056416 1.085163
v -0.039239 0.004746 1.011214
v 0.035910 0.007225 0.990742
v 0.039046 0.004829 1.011211
v 0.064852 -0.008658 1.007131
v -0.063981 -0.008725 1.007134
v -0.066515 -0.013975 1.029863
v 0.041980 0.008062 1.048719
v -0.041129 0.007996 1.048721
v 0.067430 -0.013975 1.029861
v 0.023734 0.056062 1.084666
v -0.011459 0.061344 1.012499
v -0.009660 0.057544 0.970067
v -0.033954 0.050192 1.018913
v 0.005104 0.062957 1.044733
v 0.012233 0.061362 1.012498
v 0.003119 0.075337 1.013207
v 0.010489 0.057591 0.970066
v 0.034718 0.050267 1.018911
v 0.037535 0.039494 1.039797
v 0.032062 0.053656 1.050027
v 0.000387 0.065307 1.053046
v -0.031325 0.053596 1.050029
v -0.004505 0.062957 1.044733
v -0.002338 0.075337 1.013208
v -0.036750 0.039419 1.039800
v -0.036827 -0.036983 1.015768
v 0.043655 -0.036740 1.016697
v 0.013465 -0.054515 0.977476
v -0.029496 -0.007620 0.991929
v 0.030490 -0.007620 0.991928
v -0.054872 -0.037118 0.986907
v 0.056036 -0.037658 0.986734
v -0.021807 0.033315 0.975178
v 0.022665 0.033354 0.975176
v -0.002631 0.077292 1.017759
v 0.003311 0.077292 1.017759
v -0.034709 0.037849 1.075609
v 0.036075 0.037706 1.075358
v 0.000387 0.065275 1.009575
v 0.000457 -0.058744 1.009304
v 0.000392 0.000739 0.995757
v 0.000448 0.007209 0.990743
v -0.009396 0.053309 1.038203
v 0.010078 0.053347 1.038202
v -0.065869 -0.000365 1.027928
v 0.066729 -0.000298 1.027924
v -0.050625 0.009535 1.055022
v 0.052247 0.009542 1.055379
v 0.000941 0.056239 1.084914
v 0.000459 -0.066925 1.119904
v 0.011354 -0.057437 1.123387
v 0.033681 -0.043205 1.116174
v 0.044763 -0.024957 1.096112
v 0.056215 -0.012926 1.077569
v 0.062664 -0.003314 1.074640
v 0.061172 0.003767 1.062212
v 0.023951 -0.067633 1.103054
v 0.047478 -0.047198 1.067819
v 0.061962 -0.034944 1.052163
v 0.069076 -0.028855 1.039160
v 0.000458 -0.076074 1.087687
v 0.000426 -0.074414 1.055894
v 0.000457 -0.069100 1.032784
v 0.000457 -0.067598 1.017055
v -0.010436 -0.057437 1.123387
v -0.023033 -0.067633 1.103055
v -0.046225 -0.047212 1.068054
v -0.061046 -0.034944 1.052165
v -0.068161 -0.028855 1.039162
v -0.032764 -0.043205 1.116175
v -0.043846 -0.024957 1.096114
v -0.055298 -0.012926 1.077571
v -0.061748 -0.003313 1.074642
v -0.060256 0.003767 1.062214
v 0.000648 -0.039766 1.135334
v -0.023033 -0.015841 1.133584
v -0.030869 0.006723 1.120847
v -0.039684 0.025913 1.099677
v -0.040494 0.042176 1.093483
v -0.042473 0.043630 1.084893
v 0.000459 -0.004148 1.137172
v 0.000459 0.027766 1.128500
v 0.000459 0.053955 1.107225
v 0.000459 0.065190 1.099824
v 0.000459 0.069404 1.091728
v 0.023951 -0.015840 1.133583
v 0.031787 0.006723 1.120846
v 0.040601 0.025913 1.099676
v 0.041411 0.042176 1.093482
v 0.043390 0.043630 1.084892
v 0.044716 -0.055108 1.025837
v 0.044225 -0.058356 1.034470
v -0.043271 -0.054740 1.025738
v -0.043801 -0.058183 1.035793
v 0.040128 -0.056159 1.042392
v -0.039213 -0.056158 1.042394
v -0.024871 0.058481 1.088349
v 0.025788 0.058480 1.088349
v -0.012448 -0.054399 0.977479
v -0.034204 -0.058330 0.996618
v 0.035243 -0.058992 0.996603
v -0.009688 -0.064699 0.993674
v 0.010654 -0.064859 0.993670
v 0.063683 -0.042588 1.004151
v -0.059687 -0.042382 1.003695
v 0.071522 -0.022587 1.013825
v -0.067672 -0.023041 1.013358
v 0.000486 -0.026498 0.982659
v -0.029496 -0.007620 0.991929
v 0.000457 -0.058744 1.009304
v 0.000392 0.000739 0.995757
v 0.000459 -0.066925 1.119904
v 0.000458 -0.076074 1.087687
v 0.000426 -0.074414 1.055894
v 0.000457 -0.069100 1.032784
v 0.000457 -0.067598 1.017055
v 0.000648 -0.039766 1.135334
v 0.000459 -0.004148 1.137172
v 0.000459 -0.004148 1.137172
v -0.012448 -0.054399 0.977479
v -0.009688 -0.064699 0.993674
v -0.135000 0.002000 0.566000
v -0.129000 0.001000 0.566000
v -0.129000 -0.013000 0.566000
v -0.135000 -0.013000 0.566000
v -0.142000 0.004000 0.540000
v -0.130000 0.002000 0.538000
v -0.130000 -0.011000 0.538000
v -0.140000 -0.011000 0.540000
v -0.148000 0.008000 0.528000
v -0.144000 -0.004467 0.507586
v -0.138000 -0.006771 0.505782
v -0.132000 -0.006163 0.509390
v 0.135000 0.002000 0.566000
v 0.129000 0.001000 0.566000
v 0.129000 -0.013000 0.566000
v 0.135000 -0.013000 0.566000
v 0.142000 0.004000 0.540000
v 0.130000 0.002000 0.538000
v 0.130000 -0.011000 0.538000
v 0.140000 -0.011000 0.540000
v 0.148000 0.008000 0.528000
v 0.144000 0.000467 0.506000
v 0.138000 -0.001229 0.504000
v 0.132000 -0.001837 0.508000
vn 0.5449 0.8232 0.1595
vn -0.5505 0.8242 0.1327
vn 0.5982 0.7936 0.1113
vn -0.6084 0.7873 0.1000
vn 0.8697 0.4709 0.1477
vn -0.8664 0.4774 0.1466
vn -0.6605 -0.7303 0.1740
vn 0.6660 -0.7258 0.1723
vn 0.0003 -0.9884 0.1518
vn 0.0009 -0.9992 0.0390
vn -0.0082 0.9931 0.1167
vn 0.4531 0.7665 -0.4551
vn -0.4717 0.7726 -0.4250
vn 0.9581 -0.2517 0.1366
vn -0.9561 -0.2582 0.1384
vn 0.6539 -0.7057 0.2728
vn -0.6543 -0.7034 0.2777
vn -0.0027 -0.9657 0.2597
vn -0.8792 0.4377 0.1881
vn 0.8776 0.4332 0.2051
vn -0.6000 0.7486 -0.2823
vn 0.6022 0.7384 -0.3035
vn 0.9385 0.0799 -0.3358
vn -0.9418 0.0791 -0.3267
vn 0.1231 -0.9853 0.1183
vn -0.0682 -0.9722 0.2239
vn -0.0005 -0.9993 -0.0377
vn -0.0005 0.9567 -0.2912
vn 0.0044 0.9494 0.3140
vn -0.0014 1.0000 -0.0096
vn 0.9050 -0.2803 -0.3200
vn 0.2798 -0.9459 -0.1643
vn -0.2849 -0.9438 -0.1677
vn -0.9053 -0.2850 -0.3150
vn -0.0009 -0.9937 -0.1123
vn -0.9462 -0.2366 0.2207
vn -0.8802 0.0440 -0.4726
vn 0.9479 -0.2361 0.2137
vn 0.8801 0.0361 -0.4734
vn 0.6523 -0.7552 0.0643
vn 0.9021 0.4265 0.0650
vn 0.6427 0.7626 0.0724
vn -0.6451 0.7600 0.0790
vn -0.9009 0.4283 0.0704
vn -0.6487 -0.7583 0.0643
vn -0.0075 0.9986 0.0521
vn 0.6440 -0.7650 -0.0051
vn -0.6408 -0.7676 -0.0059
vn 0.0007 -0.9961 -0.0888
vn 0.9543 -0.2968 0.0346
vn -0.9520 -0.3042 0.0344
vn 0.9410 0.2752 0.1969
vn 0.6583 0.7406 0.1350
vn -0.9410 0.2742 0.1983
vn -0.6583 0.7401 0.1378
vn -0.0016 0.9953 -0.0968
vn 0.1764 -0.6282 -0.7578
vn 0.2908 0.5879 -0.7549
vn -0.1808 -0.6292 -0.7559
vn -0.2918 0.5912 -0.7519
vn 0.2209 -0.8688 -0.4432
vn -0.6908 0.6524 0.3119
vn 0.6796 0.6598 0.3206
vn -0.0004 -0.9367 -0.3502
vn -0.2264 -0.8697 -0.4387
vn 0.3126 0.7112 -0.6297
vn -0.3165 0.7203 -0.6173
vn -0.1940 0.9758 -0.1006
vn 0.1919 0.9757 -0.1059
vn -0.1882 -0.9558 -0.2257
vn 0.1880 -0.9552 -0.2286
vn -0.8361 -0.4950 0.2367
vn 0.8323 -0.4965 0.2465
vn 0.9689 -0.0872 0.2314
vn -0.9685 -0.0910 0.2319
vn -0.9635 0.0389 0.2649
vn 0.7727 -0.3221 -0.5470
vn 0.9629 0.0398 0.2669
vn -0.7929 -0.2978 -0.5317
vn 0.8423 -0.2714 -0.4656
vn -0.8505 -0.2676 -0.4528
vn 0.8740 0.2337 -0.4260
vn -0.8881 0.2023 -0.4127
vn -0.8524 0.4930 -0.1743
vn -0.2363 0.9709 0.0387
vn 0.8196 0.5730 0.0039
vn 0.8278 -0.5609 -0.0089
vn -0.7266 -0.6799 -0.0991
vn -0.8611 0.4563 0.2242
vn -0.2847 -0.9345 0.2137
vn -0.7537 -0.6458 0.1220
vn -0.0787 -0.9969 -0.0029
vn 0.8829 0.4410 -0.1613
vn 0.6013 -0.5185 -0.6079
vn 0.4087 0.4216 -0.8095
vn 0.9075 -0.4202 0.0020
vn 0.9112 0.4116 -0.0152
vn 0.4614 -0.8795 -0.1165
vn 0.3982 0.9003 -0.1758
vn 0.5228 -0.8524 0.0063
vn 0.8337 0.5508 0.0395
vn -0.3782 0.9214 0.0893
vn -0.0236 -0.7100 0.7038
vn 0.5067 -0.2267 0.8318
vn 0.8758 0.4774 -0.0709
vn 0.3985 0.9147 -0.0673
vn -0.8174 0.5713 0.0741
vn -0.7640 -0.6369 0.1028
vn 0.3432 0.5830 0.7364
vn -0.5577 0.4653 0.6873
vn -0.2834 -0.3875 0.8772
vn 0.5731 0.2619 0.7765
vn 0.5088 -0.2180 0.8328
vn 0.3900 -0.4170 0.8210
vn 0.4085 0.9127 0.0084
vn 0.4747 -0.8781 0.0594
vn 0.9809 -0.1943 0.0071
vn 0.4365 0.6132 -0.6584
vn 0.9650 -0.0857 -0.2479
vn 0.8479 -0.5188 -0.1091
vn 0.7090 -0.3791 -0.5946
vn 0.2327 -0.9586 -0.1639
vn -0.8393 -0.5060 -0.1989
vn -0.8275 0.5211 -0.2093
vn 0.2044 0.9764 -0.0702
vn -0.0042 -0.9981 0.0617
vn 0.3449 0.9375 0.0462
vn 0.3897 -0.4168 0.8212
vn -0.2430 -0.9700 0.0071
vn 0.5694 -0.8218 0.0215
vn 0.8773 -0.4799 -0.0092
vn 0.5384 0.3447 0.7690
vn -0.2280 0.9724 -0.0497
vn 0.3354 0.5755 0.7458
vn -0.1427 0.8532 0.5016
vn -0.5587 0.4580 0.6914
vn -0.5092 -0.2335 0.8284
vn -0.1428 0.8549 0.4988
vn 0.4684 0.8829 -0.0342
vn -0.2182 0.9757 -0.0202
vn -0.8081 0.5890 0.0118
vn -0.7364 -0.6715 0.0822
vn 0.8701 0.4845 -0.0906
vn 0.8851 -0.4634 -0.0426
vn -0.0215 -0.7394 0.6729
vn -0.0661 -0.9958 0.0640
vn 0.5963 -0.8028 0.0046
vn 0.8516 0.4903 -0.1853
vn -0.4084 0.9128 0.0084
vn -0.8195 0.5731 0.0016
vn -0.8278 -0.5609 -0.0116
vn 0.7268 -0.6784 -0.1072
vn 0.8597 0.4606 0.2208
vn 0.2833 -0.9350 0.2132
vn 0.7573 -0.6368 0.1447
vn -0.9800 -0.1876 -0.0661
vn -0.8885 0.4280 -0.1656
vn -0.8538 -0.5073 -0.1168
vn -0.7162 -0.3902 -0.5786
vn -0.9072 -0.4207 0.0037
vn -0.9112 0.4117 -0.0137
vn -0.4715 -0.8726 -0.1275
vn -0.2135 0.9735 -0.0814
vn -0.5227 -0.8525 0.0069
vn -0.8344 0.5499 0.0375
vn 0.3802 0.9205 0.0902
vn -0.5084 -0.2264 0.8309
vn -0.8763 0.4766 -0.0701
vn 0.2276 0.9725 -0.0494
vn -0.3914 -0.4174 0.8201
vn 0.8168 0.5718 0.0759
vn 0.7648 -0.6360 0.1031
vn -0.3433 0.5840 0.7356
vn 0.5490 0.4592 0.6984
vn 0.2821 -0.3833 0.8795
vn -0.5758 0.2649 0.7735
vn -0.5101 -0.2179 0.8320
vn -0.3915 -0.4174 0.8200
vn 0.2361 0.9710 0.0380
vn -0.4774 -0.8767 0.0594
vn 0.0799 -0.9967 -0.0124
vn -0.4382 0.6188 -0.6519
vn -0.9720 -0.0881 -0.2179
vn -0.6055 -0.5265 -0.5967
vn -0.4058 0.4359 -0.8034
vn -0.2418 -0.9540 -0.1774
vn 0.8529 -0.4796 -0.2062
vn -0.4058 0.8951 -0.1848
vn 0.8390 0.4973 -0.2210
vn 0.0042 -0.9980 0.0624
vn -0.3439 0.9379 0.0458
vn -0.8774 -0.4797 -0.0078
vn -0.5420 0.3447 0.7664
vn -0.3988 0.9146 -0.0671
vn 0.1405 0.8490 0.5094
vn -0.3355 0.5764 0.7451
vn 0.0231 -0.7084 0.7054
vn -0.5707 -0.8209 0.0223
vn 0.2419 -0.9703 0.0064
vn 0.5469 0.4563 0.7019
vn 0.5020 -0.2313 0.8334
vn 0.1406 0.8507 0.5065
vn 0.2179 0.9757 -0.0213
vn -0.4690 0.8825 -0.0339
vn 0.8082 0.5888 0.0101
vn 0.7368 -0.6712 0.0812
vn -0.8705 0.4841 -0.0889
vn -0.8847 -0.4644 -0.0401
vn 0.0211 -0.7378 0.6747
vn 0.0659 -0.9957 0.0645
vn -0.5963 -0.8027 0.0059
vn 0.0009 0.9517 -0.3071
vn 0.7579 -0.4958 -0.4239
vn 0.8676 -0.0611 -0.4935
vn -0.0741 0.8199 -0.5677
vn -0.7567 -0.4954 -0.4266
vn -0.0013 -0.9424 -0.3344
vn 0.0139 -0.4937 -0.8695
vn 0.0750 0.8109 -0.5804
vn -0.8657 -0.0652 -0.4962
vn -0.0029 0.1554 -0.9878
vn -0.4893 0.8584 0.1542
vn -0.9653 0.2608 -0.0155
vn -0.7355 -0.6744 -0.0645
vn -0.4608 -0.8868 -0.0353
vn -0.5482 0.8356 -0.0362
vn 0.6636 0.7091 0.2383
vn 0.0134 -0.9966 -0.0815
vn -0.6603 0.7174 0.2221
vn -0.4319 -0.8969 -0.0947
vn -0.8347 -0.5473 -0.0609
vn 0.4481 -0.8919 -0.0613
vn -0.6035 0.7672 0.2173
vn -0.4729 0.8658 0.1636
vn 0.5620 0.7021 0.4373
vn -0.4534 -0.8913 0.0103
vn -0.9909 -0.0594 -0.1204
vn -0.9724 0.1663 0.1635
vn -0.9789 0.1868 0.0829
vn 0.9802 0.1173 0.1595
vn 0.5006 0.8488 0.1703
vn 0.9691 0.2437 -0.0373
vn 0.9892 -0.0643 -0.1314
vn 0.4546 -0.8894 -0.0478
vn 0.5522 0.8326 -0.0422
vn -0.0444 -0.9313 0.3616
vn -0.6813 0.7315 0.0276
vn 0.6747 0.7380 0.0054
vn 0.9789 0.1706 0.1121
vn -0.0112 -0.9732 0.2296
vn 0.9845 0.1687 0.0476
vn -0.4170 -0.8847 0.2082
vn 0.6148 0.7887 0.0028
vn 0.4576 0.8882 0.0401
vn -0.6418 0.6829 0.3490
vn -0.0481 0.2900 0.9558
vn 0.4682 -0.8789 0.0913
vn 0.7502 -0.6599 -0.0428
vn 0.5427 0.5151 0.6634
vn 0.3966 -0.9016 0.1729
vn 0.7428 -0.6619 0.1005
vn -0.9858 0.1153 0.1217
vn -0.9983 0.0274 0.0506
vn 0.2760 -0.9443 0.1792
vn 0.0068 -0.9644 0.2642
vn -0.9222 0.3809 -0.0665
vn -0.6790 0.7339 -0.0200
vn 0.9129 0.4029 -0.0649
vn 0.5483 0.8362 0.0102
vn -0.0418 0.9882 -0.1474
vn 0.6636 0.7216 -0.1975
vn -0.6834 0.7122 -0.1604
vn -0.0022 -0.9629 0.2698
vn 0.0007 -0.2340 0.9722
vn -0.2818 -0.9401 0.1920
vn 0.9990 0.0395 0.0227
vn 0.1659 -0.0164 0.9860
vn 0.0017 -0.2311 0.9729
vn 0.2080 -0.0046 0.9781
vn -0.1837 -0.0674 0.9807
vn -0.2127 -0.0667 0.9748
vn -0.7431 0.5695 -0.3515
vn 0.4702 0.6742 -0.5695
vn -0.9981 0.0002 0.0623
vn -0.0761 -0.9725 0.2203
vn 0.9843 0.1343 0.1142
vn 0.1596 0.1699 0.9724
vn 0.4040 0.6186 0.6739
vn 0.9575 0.1633 -0.2379
vn -0.6975 -0.1493 0.7009
vn -0.5776 0.3990 0.7121
vn 0.7017 -0.2135 0.6798
vn -0.6532 0.7552 -0.0546
vn 0.6383 0.7528 -0.1610
vn 0.0992 -0.5483 -0.8303
vn 0.1677 -0.5038 -0.8474
vn -0.5962 0.0084 0.8028
vn -0.5180 -0.8328 0.1953
vn 0.1078 0.1434 0.9838
vn -0.0445 0.1170 0.9921
vn -0.1584 0.1922 0.9685
vn 0.3924 -0.8972 0.2024
vn 0.3540 -0.4278 -0.8316
vn 0.9355 0.1780 -0.3051
vn -0.9987 0.0513 -0.0047
vn -0.2475 -0.2628 -0.9326
vn 0.0889 -0.4317 -0.8976
vn 0.5865 -0.2584 -0.7676
vn -0.7888 0.2620 0.5560
vn 0.8054 0.1734 0.5668
vn -0.9972 0.0559 -0.0493
vn 0.8837 0.1395 -0.4468
vn 0.3103 -0.9472 -0.0809
vn -0.3025 -0.9482 -0.0970
vn -0.0057 -0.9980 -0.0631
vn 0.9216 0.3849 0.0512
vn 0.7214 0.6648 0.1938
vn -0.9111 0.4074 0.0628
vn -0.6113 0.7503 0.2519
vn 0.0411 0.9845 0.1705
vn 0.6912 0.7176 0.0852
vn -0.6790 0.7321 0.0549
vn 0.0023 -1.0000 -0.0097
vn 0.0116 -0.2606 0.9654
vn -0.1771 -0.0206 0.9840
vn 0.9996 0.0162 0.0211
vn -0.9997 0.0254 -0.0040
vn -0.0007 -0.2302 0.9732
vn -0.2332 -0.0056 0.9724
vn 0.2107 -0.0798 0.9743
vn 0.2455 -0.0794 0.9661
vn -0.4742 0.8095 -0.3461
vn 0.6990 0.6945 -0.1706
vn 0.9986 -0.0072 0.0532
vn 0.0716 -0.9917 -0.1065
vn -0.9807 0.1326 0.1439
vn 0.1607 0.1920 0.9682
vn -0.4201 0.5203 0.7435
vn -0.5108 -0.2489 -0.8229
vn 0.7828 -0.1724 0.5979
vn 0.9856 0.1623 0.0476
vn 0.5834 0.3132 0.7494
vn -0.7067 0.1658 0.6878
vn -0.6359 0.7715 0.0202
vn 0.6409 0.7539 0.1444
vn -0.0967 -0.5103 -0.8546
vn -0.9107 0.1484 -0.3855
vn 0.6148 0.0036 0.7887
vn 0.5254 -0.8466 -0.0849
vn -0.1155 0.1479 0.9822
vn 0.0474 0.1182 0.9919
vn -0.1440 0.1625 0.9762
vn -0.3980 -0.9121 -0.0987
vn 0.2417 -0.2720 -0.9315
vn 0.9982 0.0502 0.0333
vn -0.9493 0.1991 -0.2432
vn -0.3436 -0.4090 -0.8454
vn -0.0832 -0.4076 -0.9094
vn -0.9736 0.1715 -0.1508
vn 0.6909 0.2471 0.6795
vn 0.2463 -0.4100 -0.8782
vn -0.7939 -0.2449 0.5565
vn 0.9988 0.0481 -0.0068
vn -0.1582 -0.4800 -0.8629
vn 0.3422 0.0051 -0.9396
vn 0.2872 -0.2185 -0.9326
vn -0.2931 -0.2175 -0.9310
vn -0.3464 0.0043 -0.9381
vn -0.8615 0.4941 -0.1167
vn -0.3808 0.9243 -0.0241
vn 0.0024 0.9999 -0.0168
vn 0.6498 0.7591 0.0406
vn 0.8123 0.5675 0.1345
vn 0.1343 0.9884 0.0707
vn -0.5517 0.8245 -0.1259
vn 0.1623 -0.9837 -0.0771
vn 0.7129 -0.6996 0.0482
vn 0.5203 -0.6704 0.5290
vn -0.9628 -0.0666 0.2619
vn -0.9537 0.0174 0.3001
vn 0.1379 -0.1324 0.9816
vn 0.5259 0.5610 0.6393
vn 0.1446 -0.9552 -0.2583
vn 0.7553 -0.6437 -0.1236
vn 0.1603 0.9591 0.2334
vn -0.7848 0.4211 -0.4546
vn 0.4737 0.8803 0.0271
vn -0.9847 -0.1654 -0.0550
vn -0.0641 -0.9295 0.3632
vn -0.0079 0.8577 0.5142
vn -0.6568 -0.0937 0.7483
vn -0.9825 -0.0726 -0.1714
vn 0.8838 0.4679 -0.0067
vn -0.1628 0.9662 0.2000
vn 0.0003 1.0000 -0.0074
vn -0.6313 0.7754 0.0138
vn -0.8166 0.5642 0.1220
vn -0.1365 0.9876 0.0771
vn 0.9927 0.0536 -0.1077
vn 0.9434 -0.3254 -0.0639
vn -0.7180 -0.6947 0.0433
vn -0.5306 0.5627 0.6339
vn -0.5275 -0.6829 0.5053
vn 0.9656 -0.0701 0.2506
vn 0.9673 0.0187 0.2530
vn -0.1479 -0.1656 0.9750
vn -0.1482 -0.9498 -0.2756
vn -0.7643 -0.6222 -0.1695
vn 0.3856 0.9224 -0.0236
vn 0.8787 0.4302 -0.2067
vn 0.8994 0.4360 0.0314
vn -0.1677 -0.9824 -0.0827
vn 0.0566 -0.9431 0.3277
vn 0.0168 0.8606 0.5090
vn 0.6985 -0.0904 0.7098
vn 0.9868 -0.1015 -0.1266
vn -0.9877 0.1560 -0.0145
vn 0.5560 -0.5280 0.6420
vn 0.5937 -0.5924 -0.5446
vn -0.3336 -0.7196 0.6089
vn -0.3597 -0.7930 -0.4916
vn -0.6937 -0.2912 -0.6588
vn 0.7205 -0.2744 -0.6369
vn -0.3341 -0.4277 -0.8399
vn -0.5744 -0.5975 0.5595
vn -0.5819 -0.5274 -0.6190
vn 0.3220 -0.8041 0.4998
vn 0.3808 -0.7076 -0.5952
vn 0.6753 -0.2715 -0.6858
vn -0.6979 -0.2514 -0.6706
vn 0.6473 0.5518 0.5258
vn 0.1217 -0.2501 0.9606
vn 0.3685 -0.8258 0.4269
vn 0.7500 -0.4995 0.4335
vn -0.6393 0.5638 0.5229
vn -0.7490 -0.4961 0.4393
vn -0.6672 -0.5116 0.5414
vn 0.7186 -0.4657 0.5164
vn 0.9965 0.0808 -0.0197
vn -0.6437 -0.7072 0.2926
vn 0.6452 -0.7095 0.2835
vn -0.9917 0.0772 -0.1026
vn -0.3973 -0.8299 0.3917
vn 0.5814 -0.8110 0.0648
vn 0.3487 -0.5487 0.7598
vn 0.7779 -0.6283 -0.0134
vn -0.4008 -0.9158 0.0255
vn -0.5792 -0.8128 0.0623
vn -0.3737 -0.6546 0.6571
vn -0.3475 -0.5502 0.7593
vn -0.7826 -0.6224 -0.0125
vn -0.9153 -0.4021 -0.0239
vn -0.6918 -0.6849 0.2289
vn -0.0006 -1.0000 0.0063
vn 0.6966 -0.6820 0.2227
vn 0.4042 -0.9144 0.0242
vn 0.3684 -0.6532 0.6616
vn 0.9137 -0.4053 -0.0302
vn 0.6052 0.7939 0.0587
vn -0.6265 0.7794 0.0057
vn -0.1515 0.4061 0.9012
vn -0.0000 -0.4328 0.9015
vn -0.1845 -0.5620 0.8063
vn 0.6181 0.1547 0.7707
vn -0.5870 0.1460 0.7963
vn 0.5407 0.0761 0.8378
vn -0.5479 0.0801 0.8327
vn 0.4531 -0.8910 -0.0292
vn -0.4504 -0.8922 -0.0328
vn 0.6913 -0.6054 0.3945
vn -0.6971 -0.5973 0.3966
vn 0.0009 -0.7538 0.6571
vn -0.2624 0.9632 0.0577
vn -0.1735 -0.1417 0.9746
vn -0.0022 0.6517 0.7585
vn 0.6594 -0.7395 0.1352
vn -0.6566 -0.7423 0.1334
vn 0.7976 -0.6026 -0.0262
vn -0.7803 -0.6248 -0.0284
vn 0.4932 -0.7515 0.4382
vn -0.5104 -0.7458 0.4281
vn -0.0028 -0.9178 0.3969
vn -0.2681 0.7581 -0.5945
vn -0.3791 0.5223 -0.7639
vn -0.7624 0.3224 -0.5611
vn -0.8989 0.1488 -0.4121
vn -0.8153 0.2416 -0.5262
vn -0.9064 -0.0120 -0.4222
vn -0.8837 -0.4560 0.1057
vn -0.5475 0.7902 -0.2755
vn -0.7516 0.6276 -0.2028
vn -0.8126 0.5039 -0.2927
vn -0.9459 0.2965 0.1320
vn -0.3081 0.9500 -0.0508
vn -0.4256 0.8994 0.1000
vn -0.2898 0.9499 0.1169
vn -0.3040 0.8374 0.4543
vn 0.3782 0.5215 -0.7649
vn 0.5489 0.7896 -0.2745
vn 0.7505 0.6286 -0.2039
vn 0.8116 0.5024 -0.2983
vn 0.9451 0.2965 0.1371
vn 0.7619 0.3263 -0.5594
vn 0.9005 0.1518 -0.4074
vn 0.8148 0.2432 -0.5262
vn 0.9064 -0.0047 -0.4224
vn 0.8803 -0.4585 0.1216
vn 0.2931 0.2890 -0.9114
vn 0.5366 0.0094 -0.8438
vn 0.6964 -0.2546 -0.6710
vn 0.7079 -0.2639 -0.6552
vn 0.6832 -0.4540 -0.5719
vn 0.7395 -0.6483 0.1815
vn 0.2195 -0.1449 -0.9648
vn -0.0000 -0.5162 -0.8565
vn -0.0000 -0.5543 -0.8323
vn -0.0000 -0.7433 -0.6690
vn 0.0022 -0.9801 0.1983
vn -0.5422 0.0092 -0.8402
vn -0.6971 -0.2519 -0.6713
vn -0.7079 -0.2639 -0.6551
vn -0.6904 -0.4503 -0.5662
vn -0.7592 -0.6289 0.1674
vn -0.5537 0.6331 0.5410
vn -0.5076 0.8596 -0.0582
vn 0.5441 0.6092 0.5769
vn 0.5147 0.8535 -0.0808
vn -0.4390 0.8595 -0.2617
vn 0.4194 0.8580 -0.2965
vn 0.5088 -0.8575 0.0762
vn -0.5086 -0.8602 0.0364
vn 0.2778 0.3533 0.8933
vn 0.4134 0.9091 -0.0517
vn -0.3926 0.9193 -0.0285
vn 0.2441 0.9678 -0.0612
vn -0.1211 0.9900 0.0724
vn -0.7847 0.6069 -0.1259
vn 0.7547 0.6279 -0.1904
vn -0.9587 0.2844 -0.0030
vn 0.9255 0.3780 -0.0257
vn -0.0470 -0.3209 0.9459
vn 0.2159 -0.5791 0.7861
vn 0.3891 0.8882 0.2445
vn 0.3734 0.2695 0.8876
vn 0.2673 0.7570 -0.5963
vn 0.3078 0.9501 -0.0513
vn 0.4270 0.8987 0.0996
vn 0.2911 0.9493 0.1184
vn 0.3103 0.8352 0.4540
vn -0.2988 0.2898 -0.9093
vn -0.1262 0.0505 -0.9907
vn -0.2678 -0.2527 -0.9298
vn 0.0022 0.4651 0.8853
vn 0.0065 0.9746 0.2237
vn -0.5923 0.7828 0.1908
vn 0.7772 0.6293 -0.0048
vn 0.6941 -0.7158 -0.0773
vn -0.6198 -0.7802 0.0843
vn -0.7081 0.5858 0.3941
vn 0.8321 0.3910 -0.3934
vn 0.7860 -0.1191 -0.6066
vn -0.8407 -0.4672 -0.2737
vn -0.7588 -0.6264 0.1784
vn 0.2504 0.8341 0.4914
vn -0.2102 -0.4568 0.8644
vn -0.4729 -0.2840 0.8341
vn 0.5923 0.7828 0.1908
vn -0.7772 0.6293 -0.0048
vn -0.6941 -0.7158 -0.0773
vn 0.6198 -0.7802 0.0843
vn 0.6966 0.6027 0.3892
vn -0.8185 0.3686 -0.4408
vn -0.8387 -0.1445 -0.5250
vn 0.8466 -0.4920 -0.2028
vn 0.6728 -0.7371 0.0637
vn -0.2406 0.8012 0.5480
vn 0.2667 -0.7021 0.6602
vn 0.5462 -0.3326 0.7688
vt 0.672992 0.664934
vt 0.611401 0.706399
vt 0.683749 0.709386
vt 0.445924 0.666242
vt 0.382579 0.664979
vt 0.438731 0.704760
vt 0.371810 0.709740
vt 0.373404 0.757993
vt 0.680822 0.757815
vt 0.620754 0.763755
vt 0.985002 0.709431
vt 0.932156 0.662876
vt 0.980700 0.664984
vt 0.604149 0.666161
vt 0.525066 0.705594
vt 0.525059 0.763366
vt 0.429364 0.762935
vt 0.928884 0.695761
vt 0.719689 0.709785
vt 0.776061 0.662887
vt 0.774107 0.695761
vt 0.772317 0.748597
vt 0.719132 0.758032
vt 0.984943 0.757855
vt 0.853221 0.691577
vt 0.853392 0.662867
vt 0.853266 0.743617
vt 0.930697 0.748596
vt 0.722569 0.665029
vt 0.377651 0.828368
vt 0.417837 0.838174
vt 0.677392 0.828368
vt 0.524869 0.841373
vt 0.632267 0.838174
vt 0.718361 0.828400
vt 0.982230 0.828400
vt 0.936079 0.801432
vt 0.853311 0.795656
vt 0.766958 0.801432
vt 0.369367 0.862149
vt 0.630924 0.875558
vt 0.681888 0.861607
vt 0.418902 0.876261
vt 0.420188 0.903934
vt 0.470039 0.925194
vt 0.524799 0.925637
vt 0.579985 0.925194
vt 0.629652 0.903222
vt 0.942680 0.873422
vt 0.853332 0.856313
vt 0.969607 0.862376
vt 0.990311 0.861635
vt 0.727160 0.862884
vt 0.927915 0.901696
vt 0.879000 0.901161
vt 0.776007 0.902327
vt 0.761257 0.874065
vt 0.828084 0.901161
vt 0.798553 0.925216
vt 0.930284 0.927008
vt 0.908491 0.925216
vt 0.430098 0.927656
vt 0.881662 0.979648
vt 0.853861 0.975934
vt 0.800224 0.991544
vt 0.826059 0.979648
vt 0.549246 0.991348
vt 0.501711 0.991529
vt 0.907753 0.991363
vt 0.853122 0.996212
vt 0.524612 0.996198
vt 0.436955 0.646166
vt 0.524343 0.641191
vt 0.434947 0.592676
vt 0.523787 0.548604
vt 0.439398 0.554359
vt 0.524086 0.587294
vt 0.405109 0.653388
vt 0.403669 0.570059
vt 0.611732 0.646172
vt 0.648158 0.653625
vt 0.647217 0.570067
vt 0.613215 0.592682
vt 0.608156 0.554365
vt 0.888122 0.548208
vt 0.821867 0.548221
vt 0.851774 0.531156
vt 0.853312 0.586043
vt 0.765591 0.588274
vt 0.372973 0.662837
vt 0.367671 0.593163
vt 0.950829 0.588278
vt 0.980529 0.593217
vt 0.687163 0.593160
vt 0.681093 0.662826
vt 0.733476 0.593221
vt 0.366112 0.348116
vt 0.358437 0.460000
vt 0.417690 0.387833
vt 0.766615 0.563218
vt 0.736066 0.460072
vt 0.793587 0.294295
vt 0.794310 0.308704
vt 0.751696 0.305398
vt 0.743740 0.348200
vt 0.374069 0.305310
vt 0.418229 0.343598
vt 0.796107 0.349931
vt 0.439813 0.532398
vt 0.843619 0.352695
vt 0.515514 0.304328
vt 0.469651 0.343123
vt 0.515108 0.352612
vt 0.518077 0.532118
vt 0.523264 0.531092
vt 0.834026 0.304417
vt 0.467039 0.302816
vt 0.479301 0.232433
vt 0.512099 0.101651
vt 0.464658 0.101936
vt 0.796558 0.101487
vt 0.842942 0.100976
vt 0.418975 0.303270
vt 0.378023 0.102371
vt 0.402275 0.233302
vt 0.430785 0.101425
vt 0.742332 0.101696
vt 0.444497 0.235762
vt 0.949614 0.563115
vt 0.969935 0.459983
vt 0.912391 0.349639
vt 0.954304 0.306180
vt 0.962260 0.347990
vt 0.914866 0.294075
vt 0.914188 0.308449
vt 0.871974 0.305200
vt 0.630458 0.388074
vt 0.690543 0.459912
vt 0.608454 0.532521
vt 0.682868 0.347907
vt 0.629917 0.343529
vt 0.674911 0.306092
vt 0.862381 0.352506
vt 0.523525 0.539889
vt 0.530199 0.532084
vt 0.533872 0.352423
vt 0.578496 0.343054
vt 0.533466 0.305112
vt 0.581108 0.302719
vt 0.536873 0.101705
vt 0.568846 0.232586
vt 0.583300 0.101911
vt 0.865104 0.101030
vt 0.911943 0.101647
vt 0.629171 0.303073
vt 0.645872 0.233053
vt 0.670960 0.102445
vt 0.617173 0.101381
vt 0.963672 0.101771
vt 0.603650 0.235361
vt 0.773674 0.927680
vt 0.619707 0.926984
vt 0.710077 0.862177
vt 0.226626 0.354359
vt 0.250255 0.354333
vt 0.221318 0.359382
vt 0.128332 0.267616
vt 0.076234 0.273703
vt 0.067108 0.354404
vt 0.134896 0.354408
vt 0.163959 0.298571
vt 0.162195 0.354358
vt 0.326301 0.258648
vt 0.332842 0.298571
vt 0.305577 0.259754
vt 0.334495 0.421014
vt 0.314225 0.429262
vt 0.306809 0.399324
vt 0.246021 0.359354
vt 0.240823 0.432240
vt 0.246870 0.403675
vt 0.311030 0.293850
vt 0.251919 0.272693
vt 0.038407 0.309284
vt 0.063036 0.272693
vt 0.247746 0.481033
vt 0.225547 0.486339
vt 0.983910 0.919646
vt 0.957986 0.939322
vt 0.302173 0.483092
vt 0.688908 0.889718
vt 0.980112 0.888544
vt 0.685465 0.944176
vt 0.329378 0.487316
vt 0.131769 0.497068
vt 0.160495 0.487316
vt 0.136430 0.438857
vt 0.982414 0.944198
vt 0.053440 0.431666
vt 0.062715 0.493968
vt 0.638090 0.939299
vt 0.220770 0.425891
vt 0.309934 0.359346
vt 0.308046 0.354324
vt 0.331078 0.354358
vt 0.036664 0.486339
vt 0.031887 0.425891
vt 0.165611 0.421014
vt 0.037743 0.354359
vt 0.032434 0.359382
vt 0.058379 0.359439
vt 0.133117 0.247536
vt 0.157418 0.258648
vt 0.151675 0.247229
vt 0.310559 0.247229
vt 0.062891 0.194674
vt 0.034068 0.203129
vt 0.048074 0.260196
vt 0.074084 0.256688
vt 0.123388 0.199041
vt 0.156140 0.214557
vt 0.277676 0.215162
vt 0.315023 0.214557
vt 0.246957 0.260196
vt 0.232951 0.203129
vt 0.243745 0.057975
vt 0.280522 0.052508
vt 0.121639 0.052508
vt 0.101816 0.051841
vt 0.064282 0.057117
vt 0.044862 0.057975
vt 0.081429 0.045446
vt 0.260313 0.045446
vt 0.246126 0.667039
vt 0.250401 0.672105
vt 0.221417 0.667068
vt 0.076563 0.752941
vt 0.067317 0.672176
vt 0.038652 0.717293
vt 0.128705 0.758930
vt 0.135089 0.672181
vt 0.164216 0.727875
vt 0.305827 0.766653
vt 0.311236 0.732533
vt 0.333100 0.727875
vt 0.310025 0.667031
vt 0.306854 0.627034
vt 0.246915 0.622782
vt 0.314218 0.597075
vt 0.032533 0.667068
vt 0.037882 0.672132
vt 0.058549 0.667125
vt 0.063291 0.753833
vt 0.302986 0.543251
vt 0.329387 0.539131
vt 0.365806 0.944879
vt 0.411914 0.939299
vt 0.160503 0.539131
vt 0.136532 0.587677
vt 0.165663 0.605382
vt 0.719424 0.944901
vt 0.717861 0.920282
vt 0.750472 0.939322
vt 0.246772 0.545419
vt 0.240823 0.594216
vt 0.220815 0.600634
vt 0.225571 0.540247
vt 0.362381 0.890451
vt 0.721646 0.889157
vt 0.131878 0.529529
vt 0.062829 0.532675
vt 0.226765 0.672132
vt 0.334546 0.605382
vt 0.252174 0.753833
vt 0.308168 0.672097
vt 0.036688 0.540247
vt 0.053548 0.594975
vt 0.031931 0.600634
vt 0.152475 0.779726
vt 0.157733 0.767787
vt 0.133979 0.779518
vt 0.311358 0.779725
vt 0.331227 0.672130
vt 0.162344 0.672131
vt 0.326617 0.767787
vt 0.063445 0.831694
vt 0.074526 0.769816
vt 0.048453 0.766129
vt 0.123942 0.827250
vt 0.156625 0.811444
vt 0.278134 0.810843
vt 0.315509 0.811444
vt 0.247336 0.766129
vt 0.233454 0.822993
vt 0.280805 0.974098
vt 0.243175 0.968631
vt 0.063771 0.969366
vt 0.034571 0.822993
vt 0.044292 0.968632
vt 0.102425 0.975109
vt 0.121922 0.974099
vt 0.079981 0.983047
vt 0.258864 0.983047
vt 0.335159 0.359382
vt 0.137620 0.359444
vt 0.166276 0.359382
vt 0.227290 0.309284
vt 0.227535 0.717292
vt 0.335267 0.667067
vt 0.166384 0.667067
vt 0.137778 0.667130
vt 0.616956 0.087609
vt 0.671002 0.088763
vt 0.536767 0.088014
vt 0.584118 0.088005
vt 0.431251 0.087656
vt 0.464082 0.088038
vt 0.512051 0.087978
vt 0.378182 0.088721
vt 0.742491 0.090408
vt 0.842895 0.089665
vt 0.864999 0.089701
vt 0.963714 0.090450
vt 0.796368 0.092291
vt 0.912333 0.092397
vt 0.845728 0.069839
vt 0.800230 0.079499
vt 0.757416 0.059926
vt 0.434868 0.029545
vt 0.430860 0.046957
vt 0.473965 0.047215
vt 0.433284 0.079442
vt 0.473267 0.079442
vt 0.380214 0.044720
vt 0.387383 0.053802
vt 0.508233 0.069725
vt 0.510671 0.050546
vt 0.785321 0.014464
vt 0.819968 0.025781
vt 0.785129 0.024638
vt 0.819278 0.014449
vt 0.849577 0.009540
vt 0.838888 0.041041
vt 0.772847 0.036887
vt 0.748764 0.009539
vt 0.848165 0.056671
vt 0.750247 0.044836
vt 0.470796 0.029540
vt 0.378730 0.009421
vt 0.671575 0.079404
vt 0.671967 0.053774
vt 0.628200 0.046907
vt 0.624676 0.029490
vt 0.680821 0.009366
vt 0.920102 0.079499
vt 0.873029 0.069811
vt 0.966121 0.059899
vt 0.547088 0.069697
vt 0.586554 0.047174
vt 0.545876 0.049740
vt 0.590293 0.029485
vt 0.871066 0.056616
vt 0.885600 0.041737
vt 0.953143 0.037583
vt 0.899263 0.026477
vt 0.931656 0.015159
vt 0.931848 0.025334
vt 0.899952 0.015145
vt 0.869654 0.009484
vt 0.973491 0.044782
vt 0.974973 0.009484
vt 0.554464 0.009366
vt 0.565929 0.014025
vt 0.507206 0.078653
vt 0.490624 0.014080
vt 0.679338 0.044665
vt 0.873316 0.079517
vt 0.751551 0.079517
vt 0.626273 0.079442
vt 0.587071 0.079442
vt 0.548126 0.079404
vt 0.389782 0.079404
vt 0.502083 0.009421
vt 0.844701 0.079517
vt 0.967983 0.079517
vt 0.260129 0.273146
vt 0.512672 0.003895
vt -0.183630 0.026357
vt 0.741434 0.273276
vt 0.730713 0.495291
vt 0.761158 0.373636
vt 0.847816 0.238680
vt 0.845430 0.059466
vt 0.773038 0.251944
vt 0.271183 0.495158
vt 0.238713 0.373441
vt 0.225983 0.251762
vt 0.150305 0.058424
vt 0.152388 0.241284
vt 0.628714 0.309333
vt 0.547627 0.017711
vt 0.533858 0.280529
vt 0.496489 0.308351
vt 0.472436 0.280493
vt 0.491263 0.463761
vt 0.376764 0.309188
vt 0.459236 0.017648
vt 0.482364 0.426646
vt 0.369991 0.507364
vt 0.365727 0.439323
vt 0.502976 0.522877
vt 0.503068 0.262320
vt 0.441915 0.681197
vt 0.501860 0.686489
vt 0.635541 0.507520
vt 0.560930 0.682218
vt 0.508436 0.281750
vt 0.496803 0.281744
vt 0.515346 0.463773
vt 0.508805 0.308358
vt 0.639649 0.439458
vt 0.524678 0.426675
vt 0.199460 0.006408
vt 0.602480 0.003660
vt 0.726132 0.151208
vt 0.276277 0.151108
vt 0.405859 0.003591
vt 0.618580 0.648574
vt 0.385263 0.647036
vt 0.718810 0.543858
vt -0.003384 0.216909
vt 0.080785 0.199993
vt 0.021319 0.183854
vt 0.282032 0.545854
vt 0.190897 0.387846
vt 0.960757 0.007113
vt 0.913592 0.200023
vt 0.972747 0.183866
vt 0.872892 0.299443
vt 0.996616 0.216909
vt 0.134307 0.304809
vt -0.205100 0.005440
vt 0.802303 0.291946
vt 0.807696 0.388027
vt 0.816370 0.004497
vt 0.198763 0.294467
vt 0.792987 0.006482
vt 0.993142 0.031922
vt -0.006858 0.031922
vt 0.032627 0.007088
vt 0.028087 0.927135
vt 0.106982 0.881251
vt 0.052414 0.833900
vt 0.124726 0.620316
vt 0.172846 0.783583
vt 0.167731 0.524738
vt 0.095965 0.471261
vt 0.217370 0.670908
vt 0.245188 0.651465
vt 0.186024 0.446227
vt 0.262776 0.576171
vt -0.003111 0.908485
vt -0.002710 0.744481
vt -0.002812 0.555356
vt -0.002924 0.417009
vt -0.002970 0.323294
vt 0.100299 0.424683
vt 0.105131 0.372731
vt 0.996889 0.908485
vt 0.942144 0.833958
vt 0.964908 0.927161
vt 0.997290 0.744481
vt 0.997188 0.555356
vt 0.871508 0.621823
vt 0.899190 0.471359
vt 0.829360 0.524889
vt 0.811731 0.446397
vt 0.894082 0.432603
vt 0.890754 0.372169
vt 0.887134 0.881333
vt 0.823405 0.783692
vt 0.781044 0.671046
vt 0.754389 0.651618
vt 0.737481 0.576321
vt 0.995442 0.994319
vt 0.822964 0.978869
vt 0.702916 0.898455
vt 0.654332 0.794027
vt 0.620867 0.753793
vt 0.622489 0.702479
vt 0.660144 0.997660
vt 0.505979 0.939379
vt 0.503254 0.832830
vt 0.502710 0.786499
vt 0.565711 0.719822
vt 0.502559 0.747096
vt -0.004558 0.994319
vt 0.334620 0.997660
vt 0.170157 0.978811
vt 0.300336 0.898377
vt 0.336569 0.997660
vt 0.349915 0.793927
vt 0.383553 0.753691
vt 0.439441 0.719760
vt 0.381729 0.702373
vt 0.997030 0.323294
vt 0.997076 0.417009
vt -0.039243 0.007113
vt -0.027253 0.183866
vt 0.200000 0.400000
vt 0.250000 0.400000
vt 0.250000 0.300000
vt 0.200000 0.300000
vt 0.250000 0.350000
vt 0.250000 0.250000
vt 0.200000 0.350000
vt 0.200000 0.250000
vt 0.180000 0.220000
vt 0.200000 0.150000
vt 0.230000 0.150000
vt 0.260000 0.150000
s 1
usemtl npc_bowo_mat.001
f 19/1/19 4/2/4 6/3/6
f 1/4/1 20/5/20 3/6/3
f 5/7/5 41/8/41 3/6/3
f 44/9/44 4/2/4 43/10/43
f 5/7/5 3/6/3 20/5/20
f 15/11/15 17/12/17 36/13/36
f 2/14/2 1/4/1 11/15/11
f 1/4/1 3/6/3 11/15/11
f 46/16/46 3/6/3 42/17/42
f 7/18/7 17/12/17 15/11/15
f 14/19/14 16/20/16 8/21/8
f 8/21/8 40/22/40 50/23/50
f 7/18/7 15/11/15 51/24/51
f 17/12/17 7/18/7 9/25/9
f 16/20/16 18/26/18 9/25/9
f 8/21/8 16/20/16 9/25/9
f 9/25/9 10/27/10 40/22/40
f 9/25/9 7/18/7 45/28/45
f 18/26/18 17/12/17 9/25/9
f 4/2/4 19/1/19 2/14/2
f 14/19/14 38/29/38 16/20/16
f 10/27/10 9/25/9 45/28/45
f 9/25/9 40/22/40 8/21/8
f 8/21/8 50/23/50 14/19/14
f 41/8/41 42/17/42 3/6/3
f 4/2/4 11/15/11 46/16/46
f 6/3/6 4/2/4 44/9/44
f 7/18/7 51/24/51 45/28/45
f 43/10/43 4/2/4 46/16/46
f 52/30/52 53/31/53 42/17/42
f 54/32/54 44/9/44 43/10/43
f 43/10/43 46/16/46 56/33/56
f 43/10/43 56/33/56 55/34/55
f 50/23/50 40/22/40 74/35/74
f 45/28/45 75/36/75 48/37/48
f 49/38/49 10/27/10 48/37/48
f 47/39/47 40/22/40 10/27/10
f 47/39/47 10/27/10 49/38/49
f 40/22/40 47/39/47 74/35/74
f 10/27/10 45/28/45 48/37/48
f 45/28/45 51/24/51 75/36/75
f 54/32/54 43/10/43 55/34/55
f 42/17/42 53/31/53 56/33/56
f 41/8/41 52/30/52 42/17/42
f 46/16/46 42/17/42 56/33/56
f 53/31/53 52/30/52 63/40/63
f 68/41/68 62/42/62 55/34/55
f 53/31/53 69/43/69 56/33/56
f 58/44/58 66/45/66 212/46/212
f 68/41/68 56/33/56 212/46/212
f 67/47/67 60/48/60 212/46/212
f 70/49/70 64/50/64 48/37/48
f 72/51/72 75/36/75 76/52/76
f 64/50/64 49/38/49 48/37/48
f 62/42/62 54/32/54 55/34/55
f 47/39/47 73/53/73 74/35/74
f 47/39/47 49/38/49 64/50/64
f 59/54/59 65/55/65 64/50/64
f 64/50/64 57/56/57 71/57/71
f 57/56/57 61/58/61 80/59/80
f 59/54/59 407/60/367 81/61/81
f 65/55/65 61/58/61 64/50/64
f 81/61/81 65/55/65 59/54/59
f 64/50/64 61/58/61 57/56/57
f 69/43/69 212/46/212 56/33/56
f 405/62/365 66/45/66 58/44/58
f 60/48/60 68/41/68 212/46/212
f 216/63/216 217/64/217 65/55/65
f 217/64/217 61/58/61 65/55/65
f 214/65/214 80/59/80 213/66/213
f 80/59/80 61/58/61 213/66/213
f 215/67/215 212/46/212 219/68/219
f 67/47/67 212/46/212 215/67/215
f 216/63/216 81/61/81 220/69/220
f 216/63/216 65/55/65 81/61/81
f 217/64/217 213/66/213 61/58/61
f 212/46/212 66/45/66 219/68/219
f 217/64/217 216/63/216 218/70/218
f 213/66/213 217/64/217 218/70/218
f 221/71/221 215/67/215 219/68/219
f 213/66/213 218/70/218 214/65/214
f 216/63/216 220/69/220 218/70/218
f 22/72/22 12/4/12 28/73/28
f 245/74/245 29/75/29 241/76/241
f 30/77/30 245/74/245 28/73/28
f 23/78/23 39/5/39 12/4/12
f 22/72/22 23/78/23 12/4/12
f 242/79/242 23/78/23 245/74/245
f 242/79/242 245/74/245 241/76/241
f 28/73/28 13/14/13 21/80/21
f 24/81/24 13/14/13 37/1/37
f 21/80/21 13/14/13 24/81/24
f 223/82/223 226/83/226 24/81/24
f 223/82/223 222/84/222 226/83/226
f 25/85/25 26/86/26 246/87/246
f 27/88/27 35/26/35 244/89/244
f 23/78/23 31/90/31 39/5/39
f 243/91/243 31/90/31 23/78/23
f 243/91/243 23/78/23 242/79/242
f 225/92/225 35/26/35 27/88/27
f 225/92/225 224/93/224 33/12/33
f 237/94/237 24/81/24 34/95/34
f 34/95/34 24/81/24 37/1/37
f 237/94/237 223/82/223 24/81/24
f 28/73/28 12/4/12 13/14/13
f 226/83/226 29/75/29 30/77/30
f 28/73/28 226/83/226 30/77/30
f 27/88/27 25/85/25 225/92/225
f 35/26/35 225/92/225 33/12/33
f 258/96/258 244/89/244 32/20/32
f 35/26/35 32/20/32 244/89/244
f 22/72/22 28/73/28 245/74/245
f 23/78/23 22/72/22 245/74/245
f 24/81/24 226/83/226 21/80/21
f 21/80/21 226/83/226 28/73/28
f 30/77/30 29/75/29 245/74/245
f 29/75/29 226/83/226 222/84/222
f 249/97/249 251/98/251 253/99/253
f 257/100/257 258/96/258 261/101/261
f 265/102/265 273/103/273 264/104/264
f 264/104/264 273/103/273 260/105/260
f 277/106/276 249/97/249 248/107/248
f 257/100/257 250/108/250 26/86/26
f 248/107/248 249/97/249 253/99/253
f 254/109/254 242/79/242 241/76/241
f 252/110/252 250/108/250 273/103/273
f 263/111/263 247/112/247 262/113/262
f 26/86/26 252/110/252 246/87/246
f 26/86/26 250/108/250 252/110/252
f 262/113/262 255/114/255 259/115/259
f 251/98/251 243/91/243 242/79/242
f 247/112/247 248/107/248 253/99/253
f 254/109/254 29/75/29 255/114/255
f 255/114/255 253/99/253 254/109/254
f 257/100/257 26/86/26 244/89/244
f 276/116/275 252/110/252 273/103/273
f 272/117/272 263/111/263 266/118/266
f 290/119/284 267/120/267 266/118/266
f 291/121/285 306/122/298 276/116/275
f 290/119/284 266/118/266 263/111/263
f 248/107/248 271/123/271 277/106/276
f 292/124/286 268/125/268 269/126/269
f 292/124/286 277/106/276 268/125/268
f 313/127/302 291/121/285 264/104/264
f 272/117/272 271/123/271 247/112/247
f 269/126/269 268/125/268 270/128/270
f 270/128/270 267/120/267 269/126/269
f 291/121/285 265/102/265 264/104/264
f 276/116/275 265/102/265 291/121/285
f 271/123/271 270/128/270 268/125/268
f 267/120/267 270/128/270 266/118/266
f 225/92/225 236/129/236 224/93/224
f 224/93/224 236/129/236 231/130/231
f 25/85/25 228/131/228 236/129/236
f 334/132/314 230/133/230 228/131/228
f 335/134/315 343/135/323 333/136/313
f 233/137/233 223/82/223 239/138/239
f 233/137/233 234/139/234 223/82/223
f 233/137/233 238/140/238 229/141/229
f 238/140/238 347/142/327 229/141/229
f 246/87/246 232/143/232 25/85/25
f 228/131/228 232/143/232 333/136/313
f 232/143/232 228/131/228 25/85/25
f 259/115/259 256/144/256 235/145/235
f 240/146/240 227/147/227 346/148/326
f 259/115/259 235/145/235 240/146/240
f 233/137/233 239/138/239 238/140/238
f 229/141/229 227/147/227 233/137/233
f 233/137/233 227/147/227 235/145/235
f 228/131/228 230/133/230 236/129/236
f 334/132/314 228/131/228 343/135/323
f 227/147/227 341/149/321 346/148/326
f 360/150/334 336/151/316 337/152/317
f 360/150/334 346/148/326 336/151/316
f 377/153/349 361/154/335 333/136/313
f 342/155/322 347/142/327 338/156/318
f 347/142/327 362/157/336 338/156/318
f 362/157/336 339/158/319 338/156/318
f 384/159/353 334/132/314 361/154/335
f 341/149/321 229/141/229 342/155/322
f 339/158/319 337/152/317 340/160/320
f 336/151/316 340/160/320 337/152/317
f 361/154/335 334/132/314 335/134/315
f 333/136/313 361/154/335 335/134/315
f 341/149/321 340/160/320 336/151/316
f 339/158/319 340/160/320 338/156/318
f 57/56/57 80/59/80 406/161/366
f 408/162/368 60/48/60 67/47/67
f 55/34/55 56/33/56 68/41/68
f 69/43/69 58/44/58 212/46/212
f 53/31/53 63/40/63 69/43/69
f 48/37/48 72/51/72 70/49/70
f 59/54/59 64/50/64 70/49/70
f 64/50/64 71/57/71 47/39/47
f 48/37/48 75/36/75 72/51/72
f 47/39/47 71/57/71 73/53/73
f 73/53/73 78/163/78 74/35/74
f 170/164/170 167/165/167 178/166/178
f 153/167/153 155/168/155 172/169/172
f 171/170/171 153/167/153 172/169/172
f 166/171/166 171/170/171 169/172/169
f 410/173/370 191/174/191 409/175/369
f 149/176/149 150/177/150 161/178/161
f 167/165/167 177/179/177 178/166/178
f 151/180/151 160/181/160 150/177/150
f 409/175/369 165/182/165 156/183/156
f 172/169/172 155/168/155 154/184/154
f 155/168/155 181/185/181 154/184/154
f 158/186/158 162/187/162 151/180/151
f 184/188/184 159/189/159 59/54/59
f 158/186/158 151/180/151 150/177/150
f 157/190/157 158/186/158 150/177/150
f 68/41/68 60/48/60 163/191/163
f 70/49/70 72/51/72 186/192/186
f 182/193/182 163/191/163 60/48/60
f 188/194/188 150/177/150 149/176/149
f 77/195/77 189/196/189 148/197/148
f 183/198/183 159/189/159 184/188/184
f 148/197/148 152/199/152 82/200/82
f 407/60/367 59/54/59 159/189/159
f 185/201/185 60/48/60 408/162/368
f 150/177/150 188/194/188 157/190/157
f 151/180/151 162/187/162 164/202/164
f 167/165/167 176/203/176 177/179/177
f 168/204/168 165/182/165 194/205/194
f 161/178/161 150/177/150 160/181/160
f 187/206/187 152/199/152 190/207/190
f 184/188/184 59/54/59 186/192/186
f 182/193/182 60/48/60 185/201/185
f 189/196/189 179/208/179 148/197/148
f 197/209/197 209/210/209 175/211/175
f 151/180/151 164/202/164 160/181/160
f 412/212/372 425/213/385 411/214/371
f 153/167/153 412/212/372 155/168/155
f 165/182/165 168/204/168 156/183/156
f 191/174/191 165/182/165 409/175/369
f 191/174/191 194/205/194 165/182/165
f 166/171/166 153/167/153 171/170/171
f 153/167/153 166/171/166 425/213/385
f 410/173/370 409/175/369 426/215/386
f 409/175/369 156/183/156 426/215/386
f 153/167/153 425/213/385 412/212/372
f 417/216/377 416/217/376 423/218/383
f 181/185/181 155/168/155 424/219/384
f 413/220/373 417/216/377 424/219/384
f 424/219/384 412/212/372 413/220/373
f 414/221/374 413/220/373 412/212/372
f 412/212/372 411/214/371 414/221/374
f 415/222/375 427/223/387 426/215/386
f 156/183/156 432/224/392 426/215/386
f 432/224/392 415/222/375 426/215/386
f 415/222/375 428/225/388 419/226/379
f 415/222/375 419/226/379 420/227/380
f 414/221/374 430/228/390 413/220/373
f 413/220/373 422/229/382 418/230/378
f 417/216/377 418/230/378 429/231/389
f 429/231/389 418/230/378 421/232/381
f 421/232/381 418/230/378 422/229/382
f 419/226/379 431/233/391 420/227/380
f 113/234/113 104/235/104 114/236/114
f 91/237/91 108/238/108 90/239/90
f 108/238/108 91/237/91 89/240/89
f 107/241/107 89/240/89 102/242/102
f 433/243/393 101/244/101 127/245/127
f 112/246/112 104/235/104 113/234/113
f 97/247/97 96/248/96 86/249/86
f 145/250/145 103/251/103 111/252/111
f 91/237/91 90/239/90 92/253/92
f 86/249/86 93/254/93 99/255/99
f 118/256/118 95/257/95 58/44/58
f 124/258/124 84/259/84 85/260/85
f 119/261/119 94/262/94 121/263/121
f 120/264/120 86/249/86 87/265/87
f 93/254/93 86/249/86 120/264/120
f 100/266/100 98/267/98 87/265/87
f 57/56/57 121/263/121 94/262/94
f 125/268/125 69/43/69 63/40/63
f 71/57/71 57/56/57 122/269/122
f 79/270/79 83/271/83 84/259/84
f 95/257/95 405/62/365 58/44/58
f 98/267/98 120/264/120 87/265/87
f 121/263/121 57/56/57 406/161/366
f 118/256/118 58/44/58 125/268/125
f 96/248/96 87/265/87 86/249/86
f 104/235/104 128/272/128 114/236/114
f 115/273/115 97/247/97 86/249/86
f 117/274/117 105/275/105 101/244/101
f 122/269/122 57/56/57 94/262/94
f 83/271/83 123/276/123 88/277/88
f 86/249/86 99/255/99 115/273/115
f 87/265/87 96/248/96 100/266/100
f 88/277/88 123/276/123 126/278/126
f 435/279/395 434/280/394 436/281/396
f 433/243/393 450/282/410 117/274/117
f 105/275/105 106/283/106 101/244/101
f 117/274/117 101/244/101 433/243/393
f 101/244/101 106/283/106 127/245/127
f 133/284/133 107/241/107 102/242/102
f 434/280/394 102/242/102 89/240/89
f 107/241/107 108/238/108 89/240/89
f 434/280/394 89/240/89 436/281/396
f 433/243/393 127/245/127 449/285/409
f 433/243/393 449/285/409 450/282/410
f 89/240/89 91/237/91 436/281/396
f 441/286/401 448/287/408 447/288/407
f 92/253/92 447/288/407 448/287/408
f 437/289/397 436/281/396 448/287/408
f 91/237/91 448/287/408 436/281/396
f 438/290/398 436/281/396 437/289/397
f 436/281/396 438/290/398 435/279/395
f 439/291/399 450/282/410 451/292/411
f 456/293/416 450/282/410 439/291/399
f 440/294/400 456/293/416 439/291/399
f 439/291/399 445/295/405 444/296/404
f 439/291/399 451/292/411 445/295/405
f 437/289/397 441/286/401 443/297/403
f 441/286/401 452/298/412 453/299/413
f 442/300/402 454/301/414 437/289/397
f 446/302/406 454/301/414 442/300/402
f 453/299/413 446/302/406 443/297/403
f 443/297/403 446/302/406 442/300/402
f 445/295/405 455/303/415 444/296/404
f 83/271/83 88/277/88 84/259/84
f 124/258/124 79/270/79 84/259/84
f 82/200/82 152/199/152 187/206/187
f 148/197/148 82/200/82 77/195/77
f 71/57/71 122/269/122 73/53/73
f 186/192/186 59/54/59 70/49/70
f 58/44/58 69/43/69 125/268/125
f 68/41/68 163/191/163 62/42/62
f 255/114/255 262/113/262 247/112/247
f 234/139/234 29/75/29 222/84/222
f 341/149/321 336/151/316 346/148/326
f 271/123/271 268/125/268 277/106/276
f 229/141/229 347/142/327 342/155/322
f 338/156/318 340/160/320 342/155/322
f 247/112/247 263/111/263 272/117/272
f 272/117/272 266/118/266 270/128/270
f 271/123/271 248/107/248 247/112/247
f 270/128/270 271/123/271 272/117/272
f 227/147/227 229/141/229 341/149/321
f 341/149/321 342/155/322 340/160/320
f 343/135/323 228/131/228 333/136/313
f 334/132/314 343/135/323 335/134/315
f 273/103/273 250/108/250 260/105/260
f 276/116/275 273/103/273 265/102/265
f 253/99/253 251/98/251 242/79/242
f 241/76/241 29/75/29 254/109/254
f 233/137/233 235/145/235 234/139/234
f 247/112/247 253/99/253 255/114/255
f 29/75/29 256/144/256 255/114/255
f 235/145/235 227/147/227 240/146/240
f 234/139/234 235/145/235 29/75/29
f 256/144/256 29/75/29 235/145/235
f 256/144/256 259/115/259 255/114/255
f 253/99/253 242/79/242 254/109/254
f 223/82/223 234/139/234 222/84/222
f 443/297/403 441/286/401 453/299/413
f 442/300/402 437/289/397 443/297/403
f 439/291/399 444/296/404 440/294/400
f 454/301/414 438/290/398 437/289/397
f 430/228/390 421/232/381 422/229/382
f 430/228/390 422/229/382 413/220/373
f 415/222/375 420/227/380 427/223/387
f 417/216/377 429/231/389 416/217/376
f 413/220/373 418/230/378 417/216/377
f 26/86/26 27/88/27 244/89/244
f 27/88/27 26/86/26 25/85/25
f 239/138/239 223/82/223 237/94/237
f 260/105/260 257/100/257 261/101/261
f 441/286/401 447/288/407 452/298/412
f 456/293/416 117/274/117 450/282/410
f 92/253/92 448/287/408 91/237/91
f 437/289/397 448/287/408 441/286/401
f 424/219/384 423/218/383 181/185/181
f 428/225/388 415/222/375 432/224/392
f 423/218/383 424/219/384 417/216/377
f 412/212/372 424/219/384 155/168/155
f 198/164/198 156/183/156 192/165/192
f 167/165/167 193/204/193 176/203/176
f 193/204/193 173/304/173 176/203/176
f 168/204/168 192/165/192 156/183/156
f 195/172/195 174/305/174 202/306/202
f 193/204/193 196/205/196 173/304/173
f 180/307/180 156/183/156 198/164/198
f 172/169/172 154/184/154 199/209/199
f 108/238/108 129/251/129 90/239/90
f 116/308/116 130/272/130 117/274/117
f 130/272/130 131/235/131 117/274/117
f 104/235/104 112/246/112 132/275/132
f 105/275/105 117/274/117 131/235/131
f 132/275/132 112/246/112 109/309/109
f 132/275/132 109/309/109 134/283/134
f 135/284/135 138/310/138 110/311/110
f 135/284/135 110/311/110 136/241/136
f 136/241/136 110/311/110 111/252/111
f 200/170/200 175/211/175 174/305/174
f 195/172/195 200/170/200 174/305/174
f 200/170/200 201/169/201 175/211/175
f 197/209/197 175/211/175 201/169/201
f 103/251/103 137/238/137 111/252/111
f 136/241/136 111/252/111 137/238/137
f 179/208/179 203/306/203 148/197/148
f 207/203/207 204/304/204 149/176/149
f 148/197/148 205/305/205 152/199/152
f 203/306/203 205/305/205 148/197/148
f 205/305/205 206/211/206 152/199/152
f 210/210/210 152/199/152 206/211/206
f 143/246/143 115/273/115 139/309/139
f 85/260/85 84/259/84 140/310/140
f 140/310/140 84/259/84 141/311/141
f 84/259/84 88/277/88 141/311/141
f 146/250/146 142/252/142 88/277/88
f 141/311/141 88/277/88 142/252/142
f 144/234/144 97/247/97 143/246/143
f 97/247/97 115/273/115 143/246/143
f 96/248/96 144/234/144 100/266/100
f 96/248/96 97/247/97 144/234/144
f 208/179/208 207/203/207 161/178/161
f 161/178/161 207/203/207 149/176/149
f 160/181/160 164/202/164 208/179/208
f 160/181/160 208/179/208 161/178/161
f 126/278/126 146/250/146 88/277/88
f 144/234/144 147/236/147 100/266/100
f 208/179/208 164/202/164 211/166/211
f 190/207/190 152/199/152 210/210/210
f 244/89/244 258/96/258 257/100/257
f 260/105/260 250/108/250 257/100/257
f 236/129/236 230/133/230 231/130/231
f 25/85/25 236/129/236 225/92/225
f 2/14/2 11/15/11 4/2/4
f 11/15/11 3/6/3 46/16/46
f 352/158/324 344/312/324 348/152/324
f 364/313/330 355/312/330 353/158/330
f 363/314/325 349/152/325 345/315/325
f 356/312/328 358/315/328 350/152/328
f 275/316/274 278/120/274 274/317/274
f 294/318/277 285/317/277 279/120/277
f 293/319/280 282/126/280 287/316/280
f 283/126/278 280/120/278 288/316/278
f 314/127/300 316/320/300 309/121/300
f 315/124/281 284/126/281 317/319/281
f 307/119/279 321/318/279 281/120/279
f 308/122/299 310/121/299 322/321/299
f 378/153/350 387/322/350 380/154/350
f 379/150/329 351/152/329 388/314/329
f 385/157/331 392/313/331 354/158/331
f 386/159/351 381/154/351 393/323/351
f 323/321/287 311/121/287 295/324/287
f 318/320/301 326/324/301 312/121/301
f 394/323/337 382/154/337 365/325/337
f 389/322/352 397/325/352 383/154/352
f 303/326/295 327/327/307 304/328/296
f 296/329/288 302/330/294 301/331/293
f 289/332/283 286/333/282 302/330/294
f 302/330/294 297/334/289 332/335/312
f 301/331/293 331/336/311 457/337/417
f 458/338/418 461/339/421 459/340/419
f 461/339/421 458/338/418 460/341/420
f 298/342/290 461/339/421 460/341/420
f 461/339/421 462/343/422 459/340/419
f 463/344/423 300/345/292 458/338/418
f 463/344/423 464/346/424 328/347/308
f 459/340/419 463/344/423 458/338/418
f 298/342/290 460/341/420 458/338/418
f 458/338/418 300/345/292 298/342/290
f 296/329/288 299/348/291 330/349/310
f 395/350/356 375/351/347 372/352/344
f 366/353/338 372/352/344 371/354/343
f 398/355/358 374/356/346 404/357/364
f 403/358/363 373/359/345 369/360/341
f 366/353/338 370/361/342 373/359/345
f 401/362/361 469/363/429 470/364/430
f 468/365/428 465/366/425 466/367/426
f 467/368/427 465/366/425 468/365/428
f 368/369/340 467/368/427 468/365/428
f 469/363/429 368/369/340 468/365/428
f 367/370/339 470/364/430 402/371/362
f 470/364/430 465/366/425 402/371/362
f 465/366/425 467/368/427 368/369/340
f 465/366/425 368/369/340 402/371/362
f 371/354/343 400/372/360 376/373/348
f 324/374/305 331/336/311 301/331/293
f 462/343/422 298/342/290 464/346/424
f 469/363/429 466/367/426 470/364/430
f 462/343/422 464/346/424 463/344/423
f 461/339/421 298/342/290 462/343/422
f 459/340/419 462/343/422 463/344/423
f 463/344/423 328/347/308 300/345/292
f 401/362/361 368/369/340 469/363/429
f 468/365/428 466/367/426 469/363/429
f 401/362/361 470/364/430 367/370/339
f 466/367/426 465/366/425 470/364/430
f 301/331/293 457/337/417 305/375/297
f 375/351/347 399/376/359 372/352/344
f 374/356/346 398/355/358 390/377/354
f 304/328/296 327/327/307 319/378/303
f 304/328/296 464/346/424 303/326/295
f 401/362/361 367/370/339 404/357/364
f 395/350/356 372/352/344 357/379/332
f 373/359/345 372/352/344 366/353/338
f 376/373/348 373/359/345 370/361/342
f 372/352/344 373/359/345 359/380/333
f 296/329/288 301/331/293 299/348/291
f 324/374/305 301/331/293 286/333/282
f 302/330/294 296/329/288 330/349/310
f 370/361/342 366/353/338 371/354/343
f 299/348/291 305/375/297 330/349/310
f 302/330/294 330/349/310 297/334/289
f 369/360/341 373/359/345 376/373/348
f 391/381/355 359/380/333 373/359/345
f 359/380/333 357/379/332 372/352/344
f 320/382/304 289/332/283 302/330/294
f 286/333/282 301/331/293 302/330/294
f 457/337/417 329/383/309 305/375/297
f 303/326/295 325/384/306 327/327/307
f 391/381/355 373/359/345 403/358/363
f 401/362/361 404/357/364 374/356/346
f 302/330/294 332/335/312 320/382/304
f 328/347/308 464/346/424 304/328/296
f 398/355/358 404/357/364 396/385/357
f 399/376/359 371/354/343 372/352/344
f 371/354/343 376/373/348 370/361/342
f 369/360/341 376/373/348 400/372/360
f 305/375/297 299/348/291 301/331/293
f 305/375/297 329/383/309 330/349/310
f 476/386/436 515/387/475 514/388/474
f 474/389/434 481/390/441 518/391/478
f 578/392/538 504/393/464 478/394/438
f 480/395/440 476/386/436 519/396/479
f 477/397/437 505/398/465 577/399/537
f 486/400/446 485/401/445 484/402/444
f 509/403/469 488/404/448 487/405/447
f 491/406/451 488/404/448 490/407/450
f 488/404/448 491/406/451 517/408/477
f 493/409/453 517/408/477 492/410/452
f 517/408/477 493/409/453 487/405/447
f 493/409/453 494/411/454 487/405/447
f 490/407/450 488/404/448 512/412/472
f 512/412/472 485/401/445 490/407/450
f 494/411/454 483/413/443 522/414/482
f 495/415/455 494/411/454 473/416/433
f 497/417/457 512/412/472 489/418/449
f 493/409/453 483/413/443 494/411/454
f 496/419/456 487/405/447 494/411/454
f 508/420/468 509/403/469 496/419/456
f 508/420/468 489/418/449 509/403/469
f 484/402/444 512/412/472 497/417/457
f 496/419/456 494/411/454 495/415/455
f 498/421/458 516/422/476 495/415/455
f 497/417/457 508/420/468 484/402/444
f 516/422/476 498/421/458 486/400/446
f 484/402/444 496/419/456 516/422/476
f 514/388/474 503/423/463 476/386/436
f 498/421/458 474/389/434 486/400/446
f 485/401/445 486/400/446 506/424/466
f 474/389/434 471/425/431 486/400/446
f 492/410/452 491/406/451 476/386/436
f 491/406/451 475/426/435 476/386/436
f 507/427/467 491/406/451 490/407/450
f 481/390/441 474/389/434 498/421/458
f 481/390/441 498/421/458 495/415/455
f 510/428/470 495/415/455 473/416/433
f 492/410/452 476/386/436 480/395/440
f 480/395/440 493/409/453 492/410/452
f 511/429/471 493/409/453 480/395/440
f 481/390/441 520/430/480 518/391/478
f 513/431/473 574/432/534 576/433/536
f 521/434/481 519/396/479 482/435/442
f 572/436/532 573/437/533 575/438/535
f 499/439/459 583/440/543 573/437/533
f 500/441/460 574/432/534 513/431/473
f 514/388/474 502/442/462 503/423/463
f 580/443/540 479/444/439 499/439/459
f 474/389/434 584/445/544 515/387/475
f 579/446/539 500/441/460 482/435/442
f 505/398/465 477/397/437 503/423/463
f 477/397/437 476/386/436 503/423/463
f 504/393/464 582/447/542 478/394/438
f 478/394/438 582/447/542 474/389/434
f 504/393/464 472/448/432 582/447/542
f 581/449/541 501/450/461 505/398/465
f 471/425/431 506/424/466 486/400/446
f 475/426/435 491/406/451 507/427/467
f 497/417/457 489/418/449 508/420/468
f 508/420/468 496/419/456 484/402/444
f 489/418/449 488/404/448 509/403/469
f 509/403/469 487/405/447 496/419/456
f 481/390/441 495/415/455 510/428/470
f 483/413/443 493/409/453 511/429/471
f 507/427/467 490/407/450 485/401/445
f 485/401/445 506/424/466 507/427/467
f 506/424/466 515/387/475 507/427/467
f 484/402/444 485/401/445 512/412/472
f 512/412/472 488/404/448 489/418/449
f 502/442/462 581/449/541 503/423/463
f 472/448/432 504/393/464 572/436/532
f 505/398/465 503/423/463 581/449/541
f 506/424/466 471/425/431 515/387/475
f 475/426/435 515/387/475 476/386/436
f 474/389/434 582/447/542 584/445/544
f 515/387/475 471/425/431 474/389/434
f 515/387/475 475/426/435 507/427/467
f 496/419/456 495/415/455 516/422/476
f 484/402/444 516/422/476 486/400/446
f 488/404/448 517/408/477 487/405/447
f 517/408/477 491/406/451 492/410/452
f 478/394/438 474/389/434 518/391/478
f 518/391/478 479/444/439 580/443/540
f 477/397/437 519/396/479 476/386/436
f 519/396/479 579/446/539 482/435/442
f 479/444/439 518/391/478 520/430/480
f 480/395/440 519/396/479 521/434/481
f 473/416/433 494/411/454 522/414/482
f 510/428/470 520/430/480 481/390/441
f 511/429/471 480/395/440 521/434/481
f 524/451/484 525/452/485 530/453/490
f 531/454/491 525/452/485 526/455/486
f 530/453/490 525/452/485 531/454/491
f 532/456/492 568/457/528 531/454/491
f 526/455/486 527/458/487 531/454/491
f 532/456/492 528/459/488 533/460/493
f 527/458/487 528/459/488 532/456/492
f 533/460/493 529/461/489 482/435/442
f 528/459/488 529/461/489 533/460/493
f 529/461/489 521/434/481 482/435/442
f 523/462/483 530/453/490 534/463/494
f 524/451/484 530/453/490 523/462/483
f 535/464/495 530/453/490 531/454/491
f 534/463/494 530/453/490 535/464/495
f 535/464/495 568/457/528 536/465/496
f 531/454/491 568/457/528 535/464/495
f 537/466/497 565/467/525 564/468/524
f 536/465/496 565/467/525 537/466/497
f 513/431/473 564/468/524 500/441/460
f 537/466/497 564/468/524 513/431/473
f 585/469/545 539/470/499 538/471/498
f 586/472/546 539/470/499 585/469/545
f 539/470/499 587/473/547 540/474/500
f 586/472/546 587/473/547 539/470/499
f 540/474/500 569/475/529 541/476/501
f 540/474/500 587/473/547 569/475/529
f 542/477/502 567/478/527 566/479/526
f 541/476/501 567/478/527 542/477/502
f 479/444/439 566/479/526 499/439/459
f 542/477/502 566/479/526 479/444/439
f 543/480/503 538/471/498 539/470/499
f 543/480/503 540/474/500 544/481/504
f 539/470/499 540/474/500 543/480/503
f 545/482/505 540/474/500 541/476/501
f 544/481/504 540/474/500 545/482/505
f 546/483/506 541/476/501 542/477/502
f 545/482/505 541/476/501 546/483/506
f 547/484/507 542/477/502 479/444/439
f 546/483/506 542/477/502 547/484/507
f 547/484/507 479/444/439 520/430/480
f 548/485/508 585/469/545 538/471/498
f 549/486/509 538/471/498 543/480/503
f 548/485/508 538/471/498 549/486/509
f 550/487/510 543/480/503 544/481/504
f 549/486/509 543/480/503 550/487/510
f 550/487/510 545/482/505 551/488/511
f 544/481/504 545/482/505 550/487/510
f 551/488/511 546/483/506 552/489/512
f 545/482/505 546/483/506 551/488/511
f 553/490/513 546/483/506 547/484/507
f 552/489/512 546/483/506 553/490/513
f 520/430/480 553/490/513 547/484/507
f 510/428/470 553/490/513 520/430/480
f 554/491/514 548/485/508 549/486/509
f 555/492/515 549/486/509 550/487/510
f 554/491/514 549/486/509 555/492/515
f 556/493/516 550/487/510 551/488/511
f 555/492/515 550/487/510 556/493/516
f 556/493/516 552/489/512 557/494/517
f 551/488/511 552/489/512 556/493/516
f 557/494/517 570/495/530 558/496/518
f 552/489/512 570/495/530 557/494/517
f 473/416/433 553/490/513 510/428/470
f 558/496/518 570/495/530 473/416/433
f 590/497/550 591/498/551 559/499/519
f 559/499/519 555/492/515 560/500/520
f 592/501/552 555/492/515 559/499/519
f 560/500/520 556/493/516 561/502/521
f 555/492/515 556/493/516 560/500/520
f 556/493/516 562/503/522 561/502/521
f 557/494/517 562/503/522 556/493/516
f 562/503/522 571/504/531 563/505/523
f 562/503/522 557/494/517 571/504/531
f 483/413/443 563/505/523 571/504/531
f 511/429/471 563/505/523 483/413/443
f 524/451/484 523/462/483 590/497/550
f 559/499/519 524/451/484 590/497/550
f 525/452/485 524/451/484 559/499/519
f 526/455/486 559/499/519 560/500/520
f 525/452/485 559/499/519 526/455/486
f 527/458/487 560/500/520 561/502/521
f 528/459/488 561/502/521 562/503/522
f 527/458/487 561/502/521 528/459/488
f 529/461/489 562/503/522 563/505/523
f 528/459/488 562/503/522 529/461/489
f 521/434/481 563/505/523 511/429/471
f 529/461/489 563/505/523 521/434/481
f 500/441/460 564/468/524 482/435/442
f 482/435/442 564/468/524 533/460/493
f 526/455/486 560/500/520 527/458/487
f 564/468/524 565/467/525 533/460/493
f 533/460/493 565/467/525 532/456/492
f 568/457/528 565/467/525 536/465/496
f 499/439/459 566/479/526 583/440/543
f 583/440/543 566/479/526 589/506/549
f 566/479/526 567/478/527 589/506/549
f 589/506/549 567/478/527 588/507/548
f 569/475/529 567/478/527 541/476/501
f 531/454/491 527/458/487 532/456/492
f 532/456/492 565/467/525 568/457/528
f 587/473/547 588/507/548 569/475/529
f 588/507/548 567/478/527 569/475/529
f 522/414/482 558/496/518 473/416/433
f 522/414/482 483/413/443 558/496/518
f 553/490/513 570/495/530 552/489/512
f 553/490/513 473/416/433 570/495/530
f 557/494/517 558/496/518 571/504/531
f 558/496/518 483/413/443 571/504/531
f 504/393/464 573/437/533 572/436/532
f 504/393/464 578/392/538 573/437/533
f 505/398/465 501/450/461 574/432/534
f 505/398/465 574/432/534 577/399/537
f 501/450/461 593/508/553 594/509/554
f 501/450/461 581/449/541 593/508/553
f 583/440/543 575/438/535 573/437/533
f 513/431/473 576/433/536 594/509/554
f 501/450/461 576/433/536 574/432/534
f 501/450/461 594/509/554 576/433/536
f 500/441/460 579/446/539 577/399/537
f 500/441/460 577/399/537 574/432/534
f 499/439/459 578/392/538 580/443/540
f 499/439/459 573/437/533 578/392/538
f 519/396/479 477/397/437 579/446/539
f 477/397/437 577/399/537 579/446/539
f 518/391/478 580/443/540 478/394/438
f 478/394/438 580/443/540 578/392/538
f 595/510/555 596/511/556 600/512/560 599/513/559
f 596/511/556 597/514/557 601/515/561 600/512/560
f 597/514/557 598/516/558 602/517/562 601/515/561
f 598/516/558 595/510/555 599/513/559 602/517/562
f 599/513/559 600/512/560 603/518/563
f 600/512/560 601/515/561 603/518/563
f 601/515/561 602/517/562 603/518/563
f 602/517/562 599/513/559 603/518/563
f 599/513/559 603/518/563 604/519/564
f 600/512/560 603/518/563 605/520/565
f 600/512/560 605/520/565 606/521/566
f 601/515/561 606/521/566 605/520/565
f 601/515/561 605/520/565 602/517/562
f 602/517/562 605/520/565 604/519/564
f 604/519/564 605/520/565 606/521/566
f 611/513/571 612/512/572 608/511/568 607/510/567
f 612/512/572 613/515/573 609/514/569 608/511/568
f 613/515/573 614/517/574 610/516/570 609/514/569
f 614/517/574 611/513/571 607/510/567 610/516/570
f 615/518/575 612/512/572 611/513/571
f 615/518/575 613/515/573 612/512/572
f 615/518/575 614/517/574 613/515/573
f 615/518/575 611/513/571 614/517/574
f 616/519/576 615/518/575 611/513/571
f 617/520/577 615/518/575 612/512/572
f 618/521/578 617/520/577 612/512/572
f 617/520/577 618/521/578 613/515/573
f 614/517/574 617/520/577 613/515/573
f 616/519/576 617/520/577 614/517/574
f 618/521/578 617/520/577 616/519/576
