# Blender 5.1.1
# www.blender.org
mtllib npc_arya_walk3.mtl
o npc_arya_walk3
v -0.118242 -0.090321 1.052208
v 0.118686 -0.090649 1.052074
v -0.118801 -0.087086 1.115692
v 0.119306 -0.084666 1.118397
v -0.157562 0.030207 1.123992
v 0.157476 -0.059387 1.123410
v 0.130185 0.094374 1.113730
v -0.130778 0.094127 1.113731
v -0.000424 0.132718 1.106859
v -0.000332 0.111115 1.179903
v 0.000253 -0.100041 1.117044
v 0.000234 -0.100417 1.052141
v -0.157562 0.030207 1.123992
v 0.157476 -0.059387 1.123410
v -0.128375 0.098595 1.041182
v 0.128238 0.098147 1.041162
v -0.000063 0.130465 1.034652
v 0.153465 -0.077572 1.050149
v -0.153475 0.041515 1.050224
v 0.122416 -0.100501 1.019117
v -0.124586 -0.100823 1.019107
v -0.153396 0.044509 1.031116
v 0.153131 -0.080621 1.031507
v 0.029971 0.100692 0.857790
v -0.034326 0.100951 0.857812
v -0.000223 0.110312 0.920155
v -0.001111 -0.112334 1.010891
v -0.001904 -0.119865 0.858284
v -0.001402 -0.126936 0.922044
v -0.061784 0.119007 0.985302
v 0.061265 0.119095 0.985305
v -0.126386 0.090089 0.985307
v 0.125863 0.089953 0.985301
v -0.128375 0.098595 1.041182
v 0.128238 0.098147 1.041162
v 0.153465 -0.077572 1.050149
v -0.153475 0.041515 1.050224
v -0.126386 0.090089 0.985307
v 0.125863 0.089953 0.985301
v -0.128662 0.082096 1.188089
v -0.152345 0.016526 1.203520
v -0.125082 -0.088748 1.211577
v 0.125534 -0.087420 1.212929
v 0.152438 -0.043740 1.203229
v 0.128119 0.082317 1.188089
v 0.000226 -0.106635 1.212253
v -0.128580 0.079259 1.275187
v 0.128118 0.079454 1.275187
v -0.000231 0.094296 1.265686
v -0.152345 0.016526 1.203520
v 0.152438 -0.043740 1.203229
v -0.147510 -0.016897 1.319511
v -0.132572 -0.090541 1.335585
v 0.147766 -0.016661 1.319510
v 0.132962 -0.090306 1.335585
v -0.000115 -0.111002 1.340814
v -0.111100 0.022825 1.443643
v -0.122695 -0.065000 1.446215
v 0.110929 0.022783 1.442603
v 0.122637 -0.065053 1.445041
v -0.041808 0.027370 1.439505
v 0.157561 -0.059457 1.369536
v -0.157649 -0.059587 1.370430
v -0.000191 0.068801 1.365639
v 0.042119 0.027508 1.439505
v -0.057518 -0.050915 1.479052
v 0.057764 -0.050777 1.479051
v -0.114947 -0.019657 1.452409
v 0.114833 -0.019712 1.451302
v 0.133320 -0.086367 1.397200
v -0.133400 -0.086409 1.398359
v 0.135266 0.041192 1.393801
v -0.135413 0.041131 1.394861
v 0.161186 0.015021 1.370868
v -0.161331 0.014885 1.371704
v -0.147510 -0.016897 1.319511
v 0.147766 -0.016661 1.319510
v 0.157561 -0.059457 1.369536
v 0.157561 -0.059457 1.369536
v -0.157649 -0.059587 1.370430
v -0.157649 -0.059587 1.370430
v -0.057518 -0.050915 1.479052
v 0.057764 -0.050777 1.479051
v -0.114947 -0.019657 1.452409
v 0.114833 -0.019712 1.451302
v 0.161186 0.015021 1.370868
v -0.161331 0.014885 1.371704
v -0.127712 -0.058492 1.337326
v -0.173859 -0.069284 1.320390
v -0.216910 -0.051572 1.298567
v -0.213255 0.025296 1.301000
v -0.138469 0.018588 1.328349
v -0.145820 -0.055736 1.144658
v -0.219279 -0.015516 1.149533
v -0.179998 0.055048 1.185445
v -0.155194 0.049492 1.140837
v -0.216150 0.047725 1.145049
v -0.217422 -0.059849 1.332426
v -0.212978 0.025631 1.327201
v -0.208878 -0.020324 1.418998
v -0.161928 0.041538 1.395551
v -0.159496 -0.082248 1.398562
v -0.183385 0.041354 1.325208
v -0.220108 -0.033790 1.216794
v -0.182642 -0.030243 1.150443
v -0.181890 -0.048938 1.229030
v -0.138330 -0.063790 1.219064
v -0.209142 0.019242 1.391860
v -0.212251 -0.064165 1.397066
v -0.182410 0.057591 1.142521
v -0.173859 -0.069284 1.320390
v -0.179998 0.055048 1.185445
v -0.208878 -0.020324 1.418998
v -0.208878 -0.020324 1.418998
v -0.161928 0.041538 1.395551
v -0.161928 0.041538 1.395551
v -0.159496 -0.082248 1.398562
v -0.159496 -0.082248 1.398562
v -0.183385 0.041354 1.325208
v -0.182642 -0.030243 1.150443
v -0.181890 -0.048938 1.229030
v -0.209142 0.019242 1.391860
v -0.212251 -0.064165 1.397066
v -0.182410 0.057591 1.142521
v 0.126583 -0.058495 1.337339
v 0.172739 -0.086470 1.320414
v 0.215785 -0.076988 1.298577
v 0.212137 0.000802 1.301036
v 0.137363 0.018593 1.328387
v 0.143540 -0.055680 1.142974
v 0.221207 -0.097072 1.148433
v 0.178879 -0.012721 1.185469
v 0.153752 -0.035002 1.140854
v 0.214713 -0.035180 1.145076
v 0.216352 -0.071537 1.332432
v 0.211807 0.009848 1.327262
v 0.208887 -0.020324 1.418769
v 0.160806 0.041582 1.395560
v 0.158373 -0.082217 1.398590
v 0.182256 0.025982 1.325222
v 0.220246 -0.089719 1.217126
v 0.181571 -0.113149 1.148191
v 0.180614 -0.100443 1.228951
v 0.138220 -0.063904 1.219596
v 0.211157 -0.063559 1.397082
v 0.207996 0.018647 1.391899
v 0.180957 -0.026276 1.142529
v 0.172739 -0.086470 1.320414
v 0.178879 -0.012721 1.185469
v 0.208887 -0.020324 1.418769
v 0.208887 -0.020324 1.418769
v 0.160806 0.041582 1.395560
v 0.160806 0.041582 1.395560
v 0.158373 -0.082217 1.398590
v 0.158373 -0.082217 1.398590
v 0.182256 0.025982 1.325222
v 0.181571 -0.113149 1.148191
v 0.180614 -0.100443 1.228951
v 0.211157 -0.063559 1.397082
v 0.207996 0.018647 1.391899
v 0.180957 -0.026276 1.142529
v -0.000228 -0.070151 1.479756
v -0.045145 0.019058 1.568869
v -0.038281 -0.041186 1.588396
v 0.040065 -0.041630 1.588097
v 0.046508 0.019134 1.568869
v 0.000682 0.043238 1.562778
v -0.000537 0.008844 1.596158
v -0.038281 -0.041186 1.588396
v 0.040065 -0.041630 1.588097
v -0.000537 0.008844 1.596158
v 0.111350 -0.111819 0.867812
v 0.153069 -0.118547 0.893773
v 0.151775 -0.009460 0.931904
v 0.117787 0.096136 0.923805
v 0.115680 -0.120843 0.930958
v 0.032700 -0.039158 0.519578
v 0.072463 0.115610 0.530436
v 0.117360 -0.039172 0.520362
v 0.135202 0.076859 0.527693
v 0.148372 0.058266 0.712273
v 0.014613 0.075939 0.535136
v 0.121925 -0.056499 0.593767
v 0.111950 -0.105510 0.831817
v 0.008671 -0.108509 0.831098
v 0.117948 0.093195 0.896811
v 0.151775 -0.009460 0.931904
v 0.135202 0.076859 0.527693
v 0.148372 0.058266 0.712273
v 0.014613 0.075939 0.535136
v -0.115332 -0.112045 0.867797
v -0.154979 0.058511 0.893760
v -0.153040 0.153430 0.931913
v -0.118633 0.095960 0.923803
v -0.118433 -0.121109 0.930942
v -0.002758 0.053718 0.829604
v -0.034177 -0.123355 0.547568
v -0.118837 -0.123134 0.548275
v -0.136676 -0.005123 0.555102
v -0.073937 0.034467 0.557700
v -0.149846 0.031404 0.721445
v -0.016087 -0.003825 0.561786
v -0.123399 -0.118852 0.614035
v -0.114506 -0.104684 0.831611
v -0.011306 -0.107242 0.831152
v -0.002327 -0.095106 0.843968
v -0.119108 0.094227 0.896986
v -0.153040 0.153430 0.931913
v -0.002758 0.053718 0.829604
v -0.136676 -0.005123 0.555102
v -0.149846 0.031404 0.721445
v -0.016087 -0.003825 0.561786
v -0.019883 -0.013894 0.489989
v -0.135496 -0.013302 0.491448
v -0.078091 0.013232 0.474932
v -0.020978 -0.104204 0.383018
v -0.047411 -0.160705 0.154593
v -0.133647 -0.105323 0.384309
v -0.105603 -0.164393 0.153832
v -0.043523 -0.139898 0.387944
v -0.114391 -0.130273 0.488348
v -0.038956 -0.130104 0.487672
v -0.076899 0.019154 0.496365
v -0.115090 -0.140755 0.386137
v -0.019883 -0.013894 0.489989
v -0.135496 -0.013302 0.491448
v -0.036633 -0.070160 0.154210
v -0.073193 -0.044165 0.154968
v -0.119252 -0.064957 0.155280
v -0.096230 -0.173716 0.076761
v -0.047376 -0.012342 0.121425
v -0.124328 -0.014103 0.110297
v -0.042606 -0.020718 0.076567
v -0.057259 -0.167996 0.076754
v -0.129023 -0.020528 0.076566
v -0.042679 -0.073075 0.135432
v -0.113147 -0.068575 0.136570
v -0.073818 -0.045091 0.142482
v -0.051559 -0.166506 0.105632
v -0.103951 -0.171210 0.105256
v -0.036633 -0.070160 0.154210
v -0.119252 -0.064957 0.155280
v -0.096230 -0.173716 0.076761
v -0.047376 -0.012342 0.121425
v -0.124328 -0.014103 0.110297
v -0.042606 -0.020718 0.076567
v -0.042606 -0.020718 0.076567
v -0.042606 -0.020718 0.076567
v -0.057259 -0.167996 0.076754
v -0.129023 -0.020528 0.076566
v -0.129023 -0.020528 0.076566
v -0.129023 -0.020528 0.076566
v -0.042679 -0.073075 0.135432
v -0.042679 -0.073075 0.135432
v -0.042679 -0.073075 0.135432
v -0.113147 -0.068575 0.136570
v -0.113147 -0.068575 0.136570
v -0.113147 -0.068575 0.136570
v -0.073818 -0.045091 0.142482
v -0.051559 -0.166506 0.105632
v -0.103951 -0.171210 0.105256
v -0.102407 0.068018 0.076454
v -0.100879 0.070664 0.105495
v -0.067074 0.072245 0.076449
v -0.068177 0.073663 0.106586
v -0.047832 -0.002232 0.117628
v -0.123032 -0.004264 0.109648
v -0.102407 0.068018 0.076454
v -0.067074 0.072245 0.076449
v 0.018409 0.089441 0.457158
v 0.134022 0.089549 0.458774
v 0.076543 0.121905 0.438815
v 0.019502 0.036411 0.337546
v 0.045624 0.055000 0.084056
v 0.132171 0.034970 0.338315
v 0.103817 0.054688 0.083182
v 0.042048 -0.000817 0.342093
v 0.037480 -0.025217 0.453136
v 0.112915 -0.025584 0.453719
v 0.075425 0.120791 0.462514
v 0.113615 -0.001072 0.340215
v 0.018409 0.089441 0.457158
v 0.134022 0.089549 0.458774
v 0.035178 0.149403 0.083777
v 0.071724 0.175067 0.084797
v 0.117801 0.154232 0.084998
v 0.096084 0.071720 -0.002271
v 0.124175 0.219735 0.034938
v 0.042460 0.224915 -0.002451
v 0.047230 0.218275 0.047271
v 0.057138 0.077530 -0.002278
v 0.128870 0.224999 -0.002451
v 0.112345 0.156663 0.064153
v 0.040654 0.152818 0.062904
v 0.073010 0.178387 0.070780
v 0.102985 0.064438 0.029322
v 0.050569 0.067499 0.029755
v 0.035178 0.149403 0.083777
v 0.117801 0.154232 0.084998
v 0.096084 0.071720 -0.002271
v 0.124175 0.219735 0.034938
v 0.042460 0.224915 -0.002451
v 0.042460 0.224915 -0.002451
v 0.042460 0.224915 -0.002451
v 0.047230 0.218275 0.047271
v 0.057138 0.077530 -0.002278
v 0.128870 0.224999 -0.002451
v 0.128870 0.224999 -0.002451
v 0.128870 0.224999 -0.002451
v 0.112345 0.156663 0.064153
v 0.112345 0.156663 0.064153
v 0.112345 0.156663 0.064153
v 0.040654 0.152818 0.062904
v 0.040654 0.152818 0.062904
v 0.040654 0.152818 0.062904
v 0.073010 0.178387 0.070780
v 0.102985 0.064438 0.029322
v 0.050569 0.067499 0.029755
v 0.102261 0.314029 -0.002556
v 0.100733 0.306992 0.029634
v 0.066928 0.318464 -0.002561
v 0.068031 0.309662 0.030843
v 0.047686 0.229855 0.043065
v 0.122879 0.230228 0.034220
v 0.102261 0.314029 -0.002556
v 0.066928 0.318464 -0.002561
v 0.183357 -0.117761 1.126072
v 0.226654 -0.102311 1.116667
v 0.147132 -0.054684 1.109982
v 0.152342 -0.110167 1.052293
v 0.197116 -0.122282 1.075156
v 0.232784 -0.045356 1.077762
v 0.207044 -0.033565 1.060823
v 0.166150 -0.042580 1.047142
v 0.190785 -0.076566 0.884664
v 0.226411 -0.077634 0.888889
v 0.225967 -0.124877 0.883071
v 0.210050 -0.101091 0.872771
v 0.191358 -0.124725 0.879182
v 0.217018 -0.038023 1.130321
v 0.157006 -0.039193 1.120775
v 0.226933 -0.055991 0.936456
v 0.220763 -0.139092 0.937471
v 0.178225 -0.060483 0.931980
v 0.177431 -0.130573 0.933051
v 0.181966 -0.125478 0.907474
v 0.224756 -0.128899 0.916607
v 0.183583 -0.070763 0.910147
v 0.226112 -0.068544 0.917213
v 0.236287 -0.098288 0.938069
v 0.168844 -0.095939 0.931733
v 0.196007 -0.120112 1.101122
v 0.229026 -0.110985 1.078148
v 0.183737 -0.029792 1.125113
v 0.183357 -0.117761 1.126072
v 0.197116 -0.122282 1.075156
v 0.207044 -0.033565 1.060823
v 0.226411 -0.077634 0.888889
v 0.225967 -0.124877 0.883071
v 0.210050 -0.101091 0.872771
v 0.226933 -0.055991 0.936456
v 0.226933 -0.055991 0.936456
v 0.226933 -0.055991 0.936456
v 0.220763 -0.139092 0.937471
v 0.220763 -0.139092 0.937471
v 0.220763 -0.139092 0.937471
v 0.178225 -0.060483 0.931980
v 0.177431 -0.130573 0.933051
v 0.181966 -0.125478 0.907474
v 0.224756 -0.128899 0.916607
v 0.224756 -0.128899 0.916607
v 0.224756 -0.128899 0.916607
v 0.183583 -0.070763 0.910147
v 0.226112 -0.068544 0.917213
v 0.226112 -0.068544 0.917213
v 0.226112 -0.068544 0.917213
v 0.236287 -0.098288 0.938069
v 0.168844 -0.095939 0.931733
v 0.196007 -0.120112 1.101122
v 0.183737 -0.029792 1.125113
v -0.184687 -0.023191 1.126747
v -0.224663 -0.006882 1.115702
v -0.147914 -0.053043 1.109285
v -0.150079 0.007532 1.052316
v -0.193397 -0.013130 1.075198
v -0.230536 0.062714 1.077988
v -0.203317 0.080954 1.060855
v -0.163882 0.077043 1.047159
v -0.190330 0.058092 0.878483
v -0.190436 0.105450 0.884636
v -0.228813 0.102719 0.888858
v -0.228619 0.056593 0.883008
v -0.211615 0.086893 0.870405
v -0.215728 0.050382 1.130297
v -0.156503 0.052791 1.120761
v -0.225663 0.105611 0.938095
v -0.176070 0.102827 0.933674
v -0.219871 0.021621 0.938941
v -0.175182 0.031643 0.934654
v -0.226929 0.100845 0.917277
v -0.225761 0.039920 0.916646
v -0.182720 0.101335 0.910209
v -0.180593 0.046682 0.907033
v -0.235360 0.062427 0.939636
v -0.166934 0.067117 0.933406
v -0.194813 -0.018451 1.101481
v -0.226003 -0.003021 1.078239
v -0.182853 0.060568 1.125108
v -0.184687 -0.023191 1.126747
v -0.193397 -0.013130 1.075198
v -0.203317 0.080954 1.060855
v -0.228813 0.102719 0.888858
v -0.228619 0.056593 0.883008
v -0.211615 0.086893 0.870405
v -0.225663 0.105611 0.938095
v -0.225663 0.105611 0.938095
v -0.225663 0.105611 0.938095
v -0.176070 0.102827 0.933674
v -0.219871 0.021621 0.938941
v -0.219871 0.021621 0.938941
v -0.219871 0.021621 0.938941
v -0.175182 0.031643 0.934654
v -0.226929 0.100845 0.917277
v -0.226929 0.100845 0.917277
v -0.226929 0.100845 0.917277
v -0.225761 0.039920 0.916646
v -0.225761 0.039920 0.916646
v -0.225761 0.039920 0.916646
v -0.182720 0.101335 0.910209
v -0.180593 0.046682 0.907033
v -0.235360 0.062427 0.939636
v -0.166934 0.067117 0.933406
v -0.194813 -0.018451 1.101481
v -0.182853 0.060568 1.125108
v -0.060643 0.005602 1.536653
v -0.019903 0.052138 1.506097
v -0.036268 -0.075141 1.584586
v -0.039382 -0.086759 1.686198
v -0.029643 0.090379 1.693442
v -0.053657 0.063366 1.616004
v -0.050428 0.079555 1.634156
v 0.034470 -0.027492 1.732728
v -0.058102 0.059998 1.601271
v -0.063366 0.008354 1.566245
v 0.059940 0.005643 1.536616
v 0.019057 0.052203 1.506083
v 0.035815 -0.075061 1.584557
v 0.038928 -0.085825 1.699498
v 0.034339 0.090985 1.700995
v 0.052873 0.063467 1.615968
v 0.049584 0.079636 1.634125
v 0.057206 0.060101 1.601240
v 0.062578 0.008468 1.566208
v -0.058334 0.058452 1.675580
v 0.053881 0.066505 1.667107
v 0.080146 -0.012132 1.611970
v -0.080463 -0.011897 1.612539
v 0.069463 0.022243 1.626627
v -0.070087 0.022154 1.626667
v 0.076896 -0.027605 1.644639
v -0.075642 -0.017471 1.645081
v -0.017407 0.094566 1.571024
v 0.016562 0.094591 1.571015
v 0.005428 0.097702 1.622869
v 0.005161 0.112947 1.588645
v -0.000414 0.105044 1.641800
v -0.006485 0.097703 1.622874
v -0.005993 0.112948 1.588647
v -0.006874 0.120255 1.575047
v 0.006174 0.120268 1.575041
v 0.021450 0.088014 1.505112
v -0.022247 0.087969 1.505124
v -0.024775 -0.038598 1.752230
v 0.085704 -0.035147 1.687481
v -0.085629 -0.026628 1.699143
v -0.063612 0.060712 1.733275
v 0.075618 0.058892 1.716790
v 0.005197 0.085030 1.748486
v 0.037278 0.060133 1.727875
v 0.065334 -0.018300 1.721823
v -0.012387 0.103906 1.727082
v -0.077203 0.072422 1.715847
v 0.012543 0.087360 1.614862
v -0.013520 0.087309 1.614879
v -0.000423 0.101895 1.565967
v -0.060643 0.005602 1.536653
v -0.036268 -0.075141 1.584586
v -0.039382 -0.086759 1.686198
v -0.063366 0.008354 1.566245
v -0.024775 -0.038598 1.752230
v -0.209250 0.094764 0.877300
v -0.199950 0.093214 0.877300
v -0.199950 0.071514 0.877300
v -0.209250 0.071514 0.877300
v -0.220100 0.105420 0.837000
v -0.201500 0.102902 0.833900
v -0.201500 0.082752 0.833900
v -0.217000 0.082170 0.837000
v -0.229400 0.115108 0.818400
v -0.223200 -0.006196 0.786290
v -0.213900 -0.009767 0.783493
v -0.204600 -0.008824 0.789087
v 0.209250 -0.088564 0.877300
v 0.199950 -0.090114 0.877300
v 0.199950 -0.111814 0.877300
v 0.209250 -0.111814 0.877300
v 0.220100 -0.093020 0.837000
v 0.201500 -0.096702 0.833900
v 0.201500 -0.116852 0.833900
v 0.217000 -0.116270 0.837000
v 0.229400 -0.090308 0.818400
v 0.223200 -0.000004 0.784300
v 0.213900 -0.002633 0.781200
v 0.204600 -0.003576 0.787400
vn 0.6453 0.7411 -0.1856
vn -0.2374 0.9555 -0.1752
vn 0.6477 0.7617 0.0179
vn -0.3595 0.9302 -0.0745
vn 0.9494 0.3103 0.0487
vn -0.5251 0.8301 -0.1879
vn -0.7357 -0.6738 -0.0692
vn 0.6629 -0.7441 -0.0834
vn 0.0005 -0.9935 -0.1139
vn 0.0008 -0.9769 -0.2138
vn -0.0065 0.9997 0.0215
vn 0.0005 0.9896 -0.1441
vn 0.9138 -0.3988 -0.0770
vn -0.9868 -0.1599 0.0267
vn 0.5265 -0.8501 0.0116
vn -0.5942 -0.8039 0.0272
vn -0.0015 -0.9980 0.0631
vn -0.7316 0.6760 -0.0880
vn 0.9965 0.0801 0.0226
vn -0.2877 0.9273 -0.2394
vn 0.6718 0.7088 -0.2153
vn 0.9937 -0.1008 -0.0486
vn -0.8755 0.4664 -0.1267
vn 0.1069 -0.9764 0.1877
vn -0.0403 -0.9556 0.2918
vn -0.0011 -0.9887 0.1496
vn 0.0004 0.9728 -0.2318
vn 0.0047 0.9513 0.3083
vn -0.0012 0.9998 -0.0196
vn 0.1972 -0.9759 0.0938
vn -0.1981 -0.9758 0.0922
vn 0.2163 -0.7529 -0.6216
vn -0.9875 -0.1579 -0.0000
vn 0.9007 -0.4292 0.0670
vn -0.9881 -0.1409 0.0611
vn -0.9866 -0.1371 0.0881
vn 0.9147 -0.4040 -0.0113
vn 0.1418 -0.9898 0.0149
vn -0.6124 -0.7869 0.0760
vn 0.6752 -0.7292 -0.1108
vn 0.9610 0.2753 0.0269
vn 0.6684 0.7422 0.0496
vn -0.5813 0.8136 0.0135
vn -0.8186 0.5694 -0.0755
vn -0.7279 -0.6802 -0.0858
vn -0.0069 0.9990 0.0438
vn 0.6487 -0.7537 -0.1053
vn -0.6455 -0.7564 -0.1058
vn 0.0007 -0.9759 -0.2182
vn 0.9198 -0.3705 -0.1296
vn -0.9826 -0.1851 -0.0171
vn 0.9597 0.2418 0.1430
vn 0.6220 0.7793 0.0763
vn -0.9490 0.2851 0.1344
vn -0.6225 0.7787 0.0784
vn -0.0017 0.9951 -0.0988
vn 0.1889 -0.6244 -0.7579
vn 0.3194 0.5606 -0.7640
vn -0.1928 -0.6253 -0.7562
vn -0.3206 0.5635 -0.7614
vn 0.2097 -0.8767 -0.4329
vn -0.7762 0.5625 0.2846
vn 0.7671 0.5713 0.2919
vn -0.0004 -0.9368 -0.3497
vn -0.2151 -0.8776 -0.4285
vn 0.3137 0.7169 -0.6226
vn -0.3178 0.7262 -0.6096
vn 0.3875 0.0595 -0.9200
vn -0.3246 -0.2182 -0.9203
vn -0.2479 0.9575 -0.1473
vn 0.2451 0.9575 -0.1521
vn -0.2099 -0.9617 -0.1764
vn 0.2078 -0.9615 -0.1798
vn -0.8958 -0.3882 0.2163
vn 0.8934 -0.3893 0.2240
vn 0.9799 -0.0767 0.1842
vn -0.9815 -0.0757 0.1757
vn -0.9728 0.0433 0.2275
vn 0.6488 -0.4167 -0.6367
vn 0.9721 0.0441 0.2305
vn -0.6755 -0.3932 -0.6238
vn 0.8359 -0.2736 -0.4758
vn -0.8443 -0.2699 -0.4629
vn 0.3181 -0.2191 -0.9224
vn -0.3911 0.0595 -0.9184
vn 0.8457 0.1823 -0.5015
vn -0.8627 0.1501 -0.4829
vn -0.8745 0.4624 -0.1463
vn 0.2638 0.9505 0.1643
vn 0.8146 0.5679 0.1181
vn 0.8694 -0.4902 -0.0626
vn -0.8641 -0.4873 -0.1256
vn -0.4908 0.8458 0.2091
vn 0.8277 0.5534 0.0935
vn -0.3894 -0.9158 -0.0984
vn -0.7830 -0.6215 -0.0234
vn 0.7783 -0.6207 -0.0945
vn 0.8035 0.5909 0.0722
vn 0.8339 -0.5490 -0.0561
vn 0.4245 0.2981 -0.8549
vn 0.4398 -0.8899 -0.1214
vn 0.2903 0.9544 0.0689
vn 0.4727 -0.8750 -0.1046
vn 0.8218 0.5553 0.1276
vn 0.5789 0.7942 0.1849
vn 0.2949 0.9541 0.0518
vn -0.6004 0.7958 0.0785
vn 0.8774 -0.4685 -0.1035
vn 0.4147 0.5201 -0.7467
vn 0.2700 -0.9550 -0.1228
vn -0.2991 0.9276 0.2239
vn 0.2862 -0.9545 -0.0831
vn 0.9967 -0.0415 -0.0702
vn 0.4000 -0.4504 -0.7982
vn 0.2347 -0.9584 -0.1626
vn -0.8833 -0.4415 -0.1576
vn -0.8203 0.5275 -0.2211
vn 0.2398 0.9627 -0.1252
vn -0.4524 -0.8918 0.0048
vn 0.3587 0.9062 0.2240
vn 0.3122 0.9282 0.2025
vn 0.4024 -0.5615 -0.7231
vn 0.8551 0.5174 -0.0317
vn -0.2930 -0.9515 -0.0941
vn 0.9207 0.3187 -0.2254
vn -0.2931 0.9466 -0.1348
vn -0.8104 0.5750 -0.1120
vn -0.8674 -0.4854 0.1097
vn 0.7726 -0.6349 -0.0049
vn 0.9963 0.0691 0.0514
vn -0.8430 0.5131 -0.1616
vn 0.2832 -0.9153 0.2864
vn 0.6581 -0.7267 0.1969
vn -0.7636 -0.6397 0.0881
vn -0.8295 0.5509 -0.0924
vn -0.8330 -0.5451 0.0948
vn -0.3953 -0.4582 -0.7961
vn -0.4457 -0.8915 0.0814
vn -0.2511 0.9581 -0.1380
vn -0.4843 -0.8649 0.1321
vn -0.8266 0.5556 -0.0899
vn 0.8349 0.5470 -0.0605
vn 0.6768 0.7360 0.0149
vn 0.9264 0.3591 0.1135
vn -0.4132 0.5216 -0.7464
vn -0.4008 -0.5649 -0.7213
vn 0.2804 -0.9212 0.2696
vn 0.5070 0.8610 -0.0407
vn -0.2788 -0.9228 0.2658
vn -0.4191 0.3061 -0.8548
vn -0.9989 -0.0400 -0.0249
vn -0.2432 -0.9544 -0.1732
vn 0.8509 -0.5109 -0.1221
vn -0.3183 0.9394 -0.1273
vn 0.8713 0.3863 -0.3026
vn 0.1747 -0.9494 0.2610
vn -0.3685 0.9112 -0.1842
vn -0.3107 0.9386 -0.1499
vn -0.8774 0.4648 -0.1192
vn -0.8570 -0.5150 0.0200
vn -0.2643 -0.9393 0.2188
vn 0.0008 0.9523 -0.3053
vn 0.7579 -0.4958 -0.4239
vn 0.8676 -0.0611 -0.4935
vn -0.0741 0.8199 -0.5677
vn -0.7567 -0.4954 -0.4266
vn -0.0013 -0.9424 -0.3344
vn 0.0139 -0.4937 -0.8695
vn 0.0750 0.8109 -0.5804
vn -0.8657 -0.0652 -0.4962
vn -0.0029 0.1554 -0.9878
vn -0.0145 0.9870 0.1602
vn -0.6798 0.7314 0.0552
vn -0.9959 -0.0804 -0.0411
vn -0.6419 -0.7610 0.0938
vn -0.1474 0.9847 -0.0935
vn 0.6459 0.7352 0.2058
vn 0.0227 -0.9985 -0.0500
vn -0.6470 0.7360 0.1993
vn -0.5429 -0.8374 -0.0638
vn -0.8069 -0.5904 -0.0213
vn 0.5807 -0.8135 -0.0327
vn -0.6430 0.7363 0.2107
vn -0.0190 0.9797 0.1996
vn 0.5555 0.7203 0.4155
vn -0.6285 -0.7778 0.0082
vn -0.9463 -0.3229 -0.0160
vn -0.9872 0.1457 0.0654
vn -0.9912 0.0936 0.0939
vn 0.9876 0.1323 0.0840
vn 0.6457 0.7483 0.1518
vn 0.9964 0.0837 0.0120
vn 0.9820 -0.1412 -0.1255
vn -0.3939 -0.9188 0.0269
vn 0.6209 0.7839 -0.0044
vn -0.0276 -0.9180 0.3957
vn -0.6573 0.7534 -0.0165
vn 0.6562 0.7541 -0.0280
vn 0.9890 0.1451 0.0287
vn -0.0197 -0.9664 0.2565
vn 0.9896 0.1432 0.0155
vn -0.5453 -0.8103 0.2144
vn 0.6620 0.7493 -0.0193
vn 0.6540 0.7550 0.0480
vn -0.6327 0.7012 0.3286
vn -0.0473 0.2408 0.9694
vn -0.3430 -0.9144 0.2150
vn -0.8277 -0.5568 0.0699
vn 0.6292 0.4531 0.6315
vn 0.5028 -0.8451 0.1816
vn 0.3921 -0.8858 0.2483
vn -0.9906 0.1273 0.0494
vn -0.9929 0.1187 -0.0026
vn 0.4610 -0.8748 0.1491
vn 0.0101 -0.9761 0.2173
vn -0.9704 0.2415 -0.0026
vn -0.6988 0.7153 -0.0086
vn 0.9757 0.2189 -0.0086
vn 0.6434 0.7647 -0.0353
vn -0.4851 0.8716 -0.0705
vn 0.6124 0.7846 -0.0968
vn -0.6224 0.7780 -0.0859
vn -0.0069 -0.9735 0.2285
vn 0.5197 0.8508 -0.0777
vn -0.4721 -0.8667 0.1614
vn 0.9916 0.1281 -0.0195
vn -0.9797 0.0995 0.1741
vn -0.0973 -0.9806 0.1700
vn 0.9790 0.1127 0.1702
vn 0.4856 0.8705 0.0796
vn -0.3882 -0.3893 -0.8353
vn 0.6055 -0.2732 -0.7475
vn -0.9734 -0.2280 -0.0245
vn -0.0000 0.0013 1.0000
vn 0.9648 -0.2587 -0.0475
vn -0.5697 -0.7788 0.2626
vn 0.9668 0.1170 0.2272
vn -0.0204 -0.4268 -0.9041
vn -0.8071 0.5841 0.0857
vn 0.5189 0.8501 -0.0900
vn -0.5608 -0.7955 0.2295
vn 0.4023 -0.8879 0.2233
vn -0.9992 0.0298 -0.0263
vn 0.9788 0.1320 -0.1569
vn -0.9958 0.0454 -0.0790
vn -0.6697 0.7366 0.0942
vn 0.9829 0.1410 -0.1185
vn -0.9541 -0.0048 0.2993
vn -0.9664 0.1036 0.2352
vn -0.4106 -0.2349 -0.8810
vn 0.9807 0.1318 -0.1441
vn 0.4138 -0.8727 0.2592
vn 0.3406 -0.3508 -0.8723
vn -0.0842 -0.9934 0.0779
vn -0.5931 0.8039 -0.0450
vn 0.7293 0.6817 0.0577
vn 0.6645 -0.7469 0.0229
vn 0.5120 -0.6730 -0.5338
vn -0.5816 -0.8133 0.0170
vn -0.4407 -0.7188 -0.5377
vn -0.6789 -0.2933 -0.6731
vn 0.7218 -0.2150 -0.6578
vn 0.4950 -0.8637 -0.0946
vn -0.4782 -0.8706 -0.1156
vn -0.0078 -0.9940 -0.1088
vn 0.9675 0.2431 0.0700
vn 0.6670 0.7134 0.2151
vn -0.9731 0.2218 0.0624
vn -0.6478 0.7370 0.1931
vn 0.4783 0.8551 0.2001
vn 0.6250 0.7625 0.1674
vn -0.6162 0.7711 0.1606
vn 0.0068 -0.9981 -0.0616
vn -0.5148 0.8365 0.1876
vn 0.9928 0.1180 0.0219
vn -0.9916 0.1289 0.0121
vn 0.9770 0.0945 0.1912
vn 0.1029 -0.9837 -0.1474
vn -0.9746 0.1172 0.1908
vn -0.5463 0.7701 0.3294
vn -0.9850 0.1381 -0.1035
vn 0.9688 -0.2313 -0.0894
vn 0.9996 0.0236 -0.0126
vn 0.7060 0.6216 0.3394
vn -0.9874 0.1483 -0.0548
vn -0.9731 0.1183 0.1976
vn 0.9714 0.0963 0.2170
vn 0.0523 -0.9728 -0.2257
vn -0.6799 0.6973 0.2269
vn 0.6427 0.7317 0.2270
vn 0.5749 -0.8166 -0.0519
vn -0.4105 -0.9085 -0.0780
vn -0.0000 0.0012 1.0000
vn -0.5405 -0.2645 -0.7987
vn 0.9981 0.0421 -0.0456
vn 0.3026 -0.3906 -0.8694
vn -0.9584 -0.2592 -0.1196
vn -0.9853 0.1381 -0.1009
vn -0.4295 -0.9021 -0.0410
vn -0.3371 -0.3429 -0.8768
vn 0.9451 -0.0170 0.3264
vn 0.5873 -0.8093 -0.0110
vn 0.4114 -0.2506 -0.8763
vn 0.0270 -0.4010 -0.9157
vn -0.6122 0.7725 0.1685
vn 0.7427 0.6042 0.2887
vn -0.6018 -0.7707 -0.2092
vn -0.5143 -0.5898 -0.6226
vn 0.5096 -0.8277 -0.2349
vn 0.4529 -0.6297 -0.6311
vn 0.6607 -0.2732 -0.6991
vn -0.7059 -0.1994 -0.6797
vn -0.3701 0.8984 -0.2365
vn -0.8338 0.5060 -0.2209
vn 0.8802 -0.2012 0.4299
vn 0.8437 0.5178 -0.1415
vn -0.3483 0.9224 -0.1670
vn -0.8588 -0.5089 -0.0584
vn -0.4165 -0.9080 0.0457
vn 0.6766 -0.7166 0.1692
vn 0.4973 -0.6084 0.6185
vn -0.0604 -0.8474 0.5275
vn -0.9671 -0.0171 0.2537
vn 0.1292 -0.0918 0.9874
vn 0.4935 0.6008 0.6289
vn -0.7535 -0.6530 -0.0765
vn 0.5663 -0.7887 0.2393
vn -0.9495 -0.3074 0.0625
vn 0.2261 0.9680 -0.1091
vn 0.4904 -0.7208 0.4898
vn 0.6447 0.7644 0.0048
vn 0.6521 0.6689 0.3569
vn -0.9550 0.2605 0.1416
vn 0.6037 -0.6083 0.5152
vn -0.9538 -0.1399 0.2659
vn -0.9449 0.0404 0.3247
vn 0.9084 -0.0270 0.4173
vn -0.4277 0.8873 -0.1728
vn -0.7857 0.5996 -0.1520
vn -0.2508 -0.9657 0.0678
vn 0.8196 0.5446 0.1777
vn 0.5461 0.8064 -0.2269
vn 0.1621 -0.9742 0.1573
vn -0.9795 -0.0156 0.2011
vn -0.0202 0.8813 0.4720
vn -0.6314 -0.0889 0.7703
vn 0.0923 -0.9812 0.1696
vn 0.0271 -0.8378 0.5453
vn -0.9626 -0.2062 0.1756
vn 0.1269 0.8814 0.4549
vn -0.8844 0.4650 -0.0410
vn -0.9346 0.3556 -0.0051
vn 0.6508 -0.7369 0.1828
vn 0.5859 0.7506 0.3055
vn 0.7111 0.6490 0.2704
vn -0.9992 0.0228 -0.0333
vn 0.0968 0.9229 0.3726
vn 0.0535 0.9912 0.1208
vn 0.5922 -0.7210 0.3598
vn 0.0129 -0.8594 0.5111
vn -0.9996 0.0161 -0.0223
vn -0.0011 -0.9522 0.3056
vn -0.9956 0.0932 0.0083
vn 0.9889 -0.0150 0.1482
vn 0.8029 0.5828 0.1253
vn 0.2806 -0.9458 0.1632
vn 0.6062 0.7951 0.0151
vn 0.8499 0.5266 -0.0188
vn -0.4382 0.8602 0.2608
vn -0.8664 0.4146 0.2783
vn 0.0868 0.8715 0.4827
vn 0.8455 -0.4830 -0.2278
vn 0.3871 -0.8776 -0.2828
vn -0.6926 -0.7136 -0.1058
vn -0.5068 0.4701 0.7226
vn -0.5053 -0.7367 0.4494
vn 0.9710 -0.0260 0.2376
vn 0.9886 -0.0114 0.1503
vn -0.1344 -0.2168 0.9669
vn 0.7277 -0.6442 -0.2356
vn -0.7900 -0.6040 -0.1052
vn -0.0919 -0.9748 -0.2033
vn -0.5940 -0.7959 -0.1170
vn 0.8894 0.4418 0.1173
vn -0.4885 0.6946 0.5282
vn 0.9975 0.0154 -0.0691
vn -0.0774 0.8054 0.5877
vn -0.7120 -0.6901 0.1294
vn -0.6631 0.5247 0.5339
vn 0.9995 0.0275 0.0162
vn -0.9900 -0.0716 0.1212
vn 0.5815 0.8086 0.0894
vn 0.7788 0.6236 0.0678
vn -0.2882 -0.9342 -0.2101
vn 0.3546 0.9218 0.1570
vn 0.3366 0.9282 0.1586
vn -0.1679 -0.9636 -0.2081
vn 0.0635 -0.9750 0.2129
vn 0.0266 0.7437 0.6680
vn 0.6898 -0.0882 0.7186
vn -0.0346 -0.9737 0.2250
vn 0.9375 -0.3406 -0.0718
vn 0.9756 -0.2194 -0.0091
vn -0.6179 -0.7457 0.2492
vn -0.2143 0.9444 0.2493
vn -0.1071 0.7545 0.6475
vn 0.9343 0.3539 0.0436
vn -0.6784 0.6777 0.2836
vn -0.0192 -0.9838 0.1784
vn 0.9823 -0.1508 0.1113
vn 0.0005 -0.9978 -0.0658
vn 0.9566 0.2414 0.1631
vn -0.0388 0.8940 0.4464
vn 0.9970 0.0199 -0.0749
vn -0.5819 -0.7628 0.2821
vn -0.5930 0.6448 0.4823
vn 0.9694 0.0628 0.2373
vn -0.9149 -0.0095 0.4035
vn 0.4092 0.9041 0.1234
vn 0.2453 -0.9315 -0.2685
vn 0.9236 -0.2444 0.2954
vn 0.2221 0.2442 0.9439
vn 0.8555 0.4819 0.1895
vn 0.7984 0.5867 -0.1357
vn 0.3686 -0.9230 0.1106
vn 0.7875 -0.6099 0.0881
vn 0.7283 -0.6574 0.1931
vn -0.3759 0.2311 -0.8974
vn 0.8445 -0.5350 0.0246
vn -0.0003 0.8463 0.5327
vn -0.6775 0.5902 0.4389
vn -0.2211 0.2439 0.9443
vn -0.3802 0.7140 0.5879
vn -0.4026 0.8441 -0.3542
vn -0.4635 -0.8654 -0.1903
vn -0.7860 -0.6119 0.0877
vn -0.7364 -0.6436 0.2084
vn -0.8430 -0.5372 0.0271
vn -0.8718 0.2661 0.4112
vn 0.8761 -0.4433 0.1895
vn -0.8920 -0.4467 0.0701
vn -0.9836 0.0779 0.1628
vn 0.9839 0.1310 0.1220
vn -0.9630 -0.2691 -0.0176
vn 0.9637 -0.2668 0.0053
vn -0.9663 0.2408 0.0907
vn 0.9829 0.1791 0.0424
vn 0.6822 -0.7281 0.0678
vn -0.6820 -0.7282 0.0671
vn -0.3926 -0.9158 0.0855
vn -0.5349 -0.7538 -0.3817
vn 0.0085 -0.9966 0.0820
vn 0.3956 -0.9145 0.0853
vn 0.5343 -0.7559 -0.3783
vn 0.4811 -0.8395 0.2527
vn -0.4838 -0.8382 0.2516
vn -0.4374 -0.5783 0.6887
vn 0.4381 -0.5776 0.6888
vn 0.5784 0.2572 -0.7742
vn -0.9427 0.3158 -0.1076
vn 0.9387 0.2665 -0.2186
vn 0.5438 -0.2104 -0.8124
vn -0.7965 -0.4214 -0.4336
vn -0.2285 -0.4744 -0.8502
vn -0.4852 -0.2912 -0.8245
vn -0.5920 0.1853 -0.7844
vn 0.0985 -0.9561 -0.2758
vn 0.8396 -0.5259 -0.1361
vn -0.6701 -0.7292 0.1391
vn 0.6729 -0.7262 0.1409
vn 0.0014 -0.7832 0.6218
vn -0.0002 0.9603 0.2790
vn -0.0005 0.7034 0.7108
vn 0.0306 0.9772 -0.2102
vn 0.9730 -0.0803 0.2165
vn -0.2158 0.4319 -0.8757
vn -0.6232 0.7108 0.3262
vn 0.8110 0.5764 0.1001
vn 0.6438 -0.7345 -0.2146
vn -0.5875 -0.8056 -0.0761
vn -0.7343 0.4640 0.4955
vn 0.7390 0.6698 0.0726
vn 0.4535 -0.2853 -0.8444
vn -0.6628 -0.4379 -0.6075
vn -0.8609 -0.1207 0.4942
vn -0.2525 0.3485 -0.9027
vn -0.4735 -0.8680 0.1496
vn -0.2887 -0.7420 0.6051
vn 0.5575 0.8296 0.0305
vn -0.7350 0.6661 -0.1269
vn -0.7377 -0.6733 0.0505
vn 0.6454 -0.7282 0.2307
vn 0.5190 0.8390 0.1632
vn -0.7311 0.3357 -0.5940
vn -0.8343 -0.5508 0.0250
vn 0.6532 -0.7147 0.2500
vn -0.5604 -0.2682 -0.7836
vn -0.4554 0.0447 0.8891
vn -0.1074 -0.6881 0.7176
vn 0.1864 -0.9736 0.1315
vt 0.637888 0.665405
vt 0.607772 0.706867
vt 0.657044 0.709854
vt 0.447046 0.666710
vt 0.415761 0.665450
vt 0.446168 0.705227
vt 0.395723 0.710208
vt 0.390949 0.758459
vt 0.661919 0.758282
vt 0.617750 0.764224
vt 0.970999 0.709899
vt 0.934253 0.663337
vt 0.971147 0.665455
vt 0.606833 0.666628
vt 0.528702 0.666680
vt 0.528725 0.706058
vt 0.528725 0.763833
vt 0.436191 0.763405
vt 0.936500 0.696230
vt 0.738651 0.710253
vt 0.779563 0.663349
vt 0.777125 0.696231
vt 0.772714 0.749064
vt 0.733878 0.758499
vt 0.975874 0.758321
vt 0.852880 0.692050
vt 0.853041 0.663332
vt 0.852916 0.744087
vt 0.940920 0.749064
vt 0.738508 0.665500
vt 0.380367 0.828834
vt 0.424663 0.838647
vt 0.672603 0.828834
vt 0.528535 0.841840
vt 0.629263 0.838647
vt 0.730316 0.828867
vt 0.980414 0.828866
vt 0.946984 0.801898
vt 0.852960 0.796122
vt 0.767205 0.801899
vt 0.374569 0.859763
vt 0.627920 0.876030
vt 0.678199 0.859221
vt 0.425729 0.876733
vt 0.427014 0.905749
vt 0.473705 0.925661
vt 0.528465 0.926104
vt 0.583651 0.925661
vt 0.626648 0.905037
vt 0.953585 0.873882
vt 0.852981 0.856779
vt 0.978689 0.859998
vt 0.994254 0.859250
vt 0.732680 0.860505
vt 0.938820 0.903511
vt 0.878649 0.901627
vt 0.774075 0.904142
vt 0.759325 0.874525
vt 0.827733 0.901628
vt 0.808202 0.925683
vt 0.941189 0.928823
vt 0.898140 0.925683
vt 0.436925 0.929471
vt 0.881311 0.980115
vt 0.853510 0.976401
vt 0.809873 0.992011
vt 0.825708 0.980115
vt 0.552912 0.991815
vt 0.505377 0.991996
vt 0.897402 0.991830
vt 0.852771 0.996679
vt 0.528278 0.996664
vt 0.445609 0.646632
vt 0.528010 0.641657
vt 0.437931 0.593138
vt 0.527453 0.549077
vt 0.436711 0.554830
vt 0.527752 0.587761
vt 0.414994 0.653857
vt 0.405703 0.570526
vt 0.606928 0.646638
vt 0.638510 0.654094
vt 0.646856 0.570533
vt 0.614053 0.593144
vt 0.614609 0.554836
vt 0.878538 0.548674
vt 0.831820 0.548687
vt 0.851423 0.531622
vt 0.852961 0.586509
vt 0.897419 0.626038
vt 0.816442 0.626036
vt 0.381244 0.663299
vt 0.377526 0.593629
vt 0.378990 0.625991
vt 0.940223 0.588744
vt 0.673516 0.625987
vt 0.674517 0.593626
vt 0.671462 0.663287
vt 0.737474 0.593687
vt 0.775986 0.588740
vt 0.778240 0.626045
vt 0.380185 0.348590
vt 0.376381 0.460466
vt 0.418635 0.388308
vt 0.772940 0.563684
vt 0.735104 0.460538
vt 0.797824 0.294756
vt 0.798547 0.309168
vt 0.753521 0.305875
vt 0.752070 0.348674
vt 0.381637 0.305787
vt 0.419904 0.344077
vt 0.800344 0.350394
vt 0.437193 0.532864
vt 0.844121 0.353169
vt 0.518099 0.304805
vt 0.474656 0.343602
vt 0.519627 0.353086
vt 0.521744 0.532588
vt 0.526930 0.531558
vt 0.842593 0.304894
vt 0.473050 0.303295
vt 0.482814 0.232896
vt 0.515151 0.079003
vt 0.464740 0.079274
vt 0.800795 0.079626
vt 0.842279 0.079115
vt 0.419273 0.303750
vt 0.380868 0.079723
vt 0.409168 0.233765
vt 0.429432 0.078764
vt 0.751794 0.079835
vt 0.422982 0.235010
vt 0.469671 0.236225
vt 0.800416 0.070680
vt 0.748714 0.046269
vt 0.835761 0.055138
vt 0.384573 0.066590
vt 0.430434 0.045526
vt 0.435119 0.026910
vt 0.462223 0.045779
vt 0.838611 0.065938
vt 0.391748 0.046153
vt 0.511483 0.065824
vt 0.508633 0.055023
vt 0.783072 0.014547
vt 0.812613 0.028728
vt 0.783999 0.027995
vt 0.813282 0.014543
vt 0.838655 0.006903
vt 0.824078 0.038912
vt 0.770559 0.033546
vt 0.745866 0.006903
vt 0.458764 0.026905
vt 0.388899 0.006785
vt 0.755498 0.066704
vt 0.943078 0.563581
vt 0.974961 0.593683
vt 0.977214 0.460449
vt 0.912852 0.350102
vt 0.965817 0.306657
vt 0.967268 0.348464
vt 0.915327 0.294536
vt 0.914649 0.308912
vt 0.862706 0.305677
vt 0.637677 0.388548
vt 0.684319 0.460378
vt 0.614954 0.532988
vt 0.680515 0.348381
vt 0.636407 0.344007
vt 0.679063 0.306569
vt 0.861177 0.352980
vt 0.527191 0.540355
vt 0.533865 0.532554
vt 0.536685 0.352897
vt 0.581655 0.343533
vt 0.538214 0.305589
vt 0.583261 0.303199
vt 0.539418 0.079057
vt 0.573498 0.233049
vt 0.591383 0.079249
vt 0.865664 0.079170
vt 0.909771 0.079786
vt 0.637038 0.303553
vt 0.647144 0.233516
vt 0.671470 0.079797
vt 0.626691 0.078719
vt 0.955274 0.079910
vt 0.586641 0.235824
vt 0.633329 0.234684
vt 0.668159 0.066600
vt 0.669753 0.046098
vt 0.626186 0.045476
vt 0.621999 0.026855
vt 0.672602 0.006730
vt 0.910551 0.070732
vt 0.951963 0.066714
vt 0.959140 0.046214
vt 0.542740 0.065843
vt 0.594383 0.045739
vt 0.546730 0.054968
vt 0.598369 0.026850
vt 0.872975 0.055083
vt 0.882026 0.038857
vt 0.940805 0.033491
vt 0.897001 0.028673
vt 0.928297 0.014491
vt 0.927370 0.027940
vt 0.896332 0.014488
vt 0.870081 0.006848
vt 0.961989 0.006848
vt 0.868985 0.065956
vt 0.770811 0.929495
vt 0.616703 0.928799
vt 0.714518 0.859792
vt 0.134866 0.338450
vt 0.071844 0.273113
vt 0.065024 0.429711
vt 0.127009 0.274747
vt 0.159799 0.276031
vt 0.162775 0.342919
vt 0.328869 0.257588
vt 0.328784 0.276031
vt 0.304371 0.273526
vt 0.309776 0.330389
vt 0.249991 0.272103
vt 0.037688 0.308385
vt 0.049305 0.272611
vt 0.243133 0.468050
vt 0.215033 0.483909
vt 0.210211 0.423995
vt 0.979503 0.919336
vt 0.973719 0.947872
vt 0.240177 0.418265
vt 0.312944 0.415129
vt 0.314062 0.470234
vt 0.681319 0.890185
vt 0.984573 0.889010
vt 0.675017 0.920177
vt 0.337966 0.484877
vt 0.335667 0.419167
vt 0.130416 0.489209
vt 0.158981 0.484877
vt 0.132046 0.436847
vt 0.318479 0.493456
vt 0.237875 0.490800
vt 0.068512 0.486014
vt 0.671172 0.947850
vt 0.331761 0.342919
vt 0.026047 0.483909
vt 0.031225 0.423995
vt 0.275385 0.498709
vt 0.156681 0.419167
vt 0.323735 0.214497
vt 0.326302 0.236036
vt 0.303263 0.246848
vt 0.125707 0.247188
vt 0.159884 0.257588
vt 0.228224 0.257981
vt 0.222373 0.203161
vt 0.249823 0.259715
vt 0.049238 0.257981
vt 0.071879 0.256243
vt 0.122108 0.199097
vt 0.062134 0.194761
vt 0.154749 0.214497
vt 0.157317 0.236036
vt 0.246694 0.215077
vt 0.303965 0.214768
vt 0.222077 0.097052
vt 0.289380 0.086800
vt 0.267220 0.097111
vt 0.239311 0.088033
vt 0.149934 0.097207
vt 0.062168 0.085302
vt 0.087095 0.096869
vt 0.107214 0.082461
vt 0.040325 0.088033
vt 0.057426 0.096868
vt 0.043134 0.059248
vt 0.062530 0.058399
vt 0.080379 0.046828
vt 0.101600 0.053169
vt 0.242120 0.059248
vt 0.259365 0.046828
vt 0.280401 0.053828
vt 0.072170 0.757836
vt 0.065131 0.601235
vt 0.037931 0.722493
vt 0.135040 0.692755
vt 0.127379 0.754796
vt 0.162903 0.687748
vt 0.158794 0.752821
vt 0.304619 0.755997
vt 0.309981 0.700442
vt 0.331888 0.687747
vt 0.228580 0.758276
vt 0.216917 0.722493
vt 0.250244 0.758711
vt 0.335718 0.611568
vt 0.314867 0.560409
vt 0.337974 0.545872
vt 0.377765 0.920885
vt 0.381788 0.947850
vt 0.158989 0.545872
vt 0.132147 0.594009
vt 0.156732 0.611569
vt 0.242167 0.562714
vt 0.237315 0.539963
vt 0.312937 0.615511
vt 0.240176 0.612510
vt 0.210255 0.606854
vt 0.215057 0.546978
vt 0.275317 0.531684
vt 0.318906 0.537207
vt 0.371481 0.890917
vt 0.731154 0.889624
vt 0.130524 0.541699
vt 0.068625 0.544942
vt 0.731737 0.947872
vt 0.725705 0.919969
vt 0.026071 0.546979
vt 0.031269 0.606854
vt 0.155231 0.815850
vt 0.155780 0.794194
vt 0.124726 0.784199
vt 0.302220 0.784368
vt 0.327780 0.752821
vt 0.156329 0.772551
vt 0.325315 0.772551
vt 0.062683 0.835900
vt 0.072317 0.774562
vt 0.049645 0.772733
vt 0.250199 0.770900
vt 0.228631 0.772733
vt 0.122657 0.831501
vt 0.324766 0.794194
vt 0.304433 0.815522
vt 0.324216 0.815850
vt 0.247148 0.815233
vt 0.222872 0.827293
vt 0.238997 0.940929
vt 0.280696 0.977077
vt 0.241526 0.971658
vt 0.267405 0.932169
vt 0.309324 0.932152
vt 0.087413 0.932414
vt 0.057448 0.932394
vt 0.033886 0.827293
vt 0.023056 0.932224
vt 0.123933 0.932407
vt 0.107833 0.946803
vt 0.130741 0.942132
vt 0.078872 0.985950
vt 0.121711 0.977078
vt 0.102234 0.978082
vt 0.042541 0.971658
vt 0.061998 0.972388
vt 0.257857 0.985949
vt 0.543836 0.006730
vt 0.511527 0.006785
vt 0.061913 0.943634
vt 0.150338 0.932153
vt 0.121416 0.053828
vt 0.023091 0.097052
vt 0.123321 0.096843
vt 0.049594 0.758276
vt 0.228290 0.272611
vt 0.033387 0.203161
vt 0.216674 0.308385
vt 0.040011 0.940929
vt 0.222042 0.932224
vt 0.289727 0.942132
vt 0.130394 0.086800
vt 0.308919 0.097207
vt 0.938169 0.626041
vt 0.937862 0.301029
vt 0.818862 0.549447
vt 0.943817 0.689731
vt 0.634516 0.458271
vt 0.736820 0.488742
vt 0.644740 0.400625
vt 0.240446 0.251412
vt -0.240300 0.252194
vt -0.062137 0.301029
vt 0.762085 0.137388
vt 0.543734 0.037073
vt 0.055663 0.740827
vt 0.165656 0.544295
vt 0.061124 0.300556
vt 0.197544 0.422367
vt 0.263546 0.487867
vt 0.356896 0.399917
vt 0.237832 0.136615
vt 0.458573 0.036805
vt -0.237915 0.137388
vt -0.056183 0.689731
vt 0.830960 0.755524
vt 0.665861 0.909705
vt 0.940801 0.956730
vt 0.094974 0.884125
vt -0.059199 0.956730
vt 0.486064 0.974303
vt 0.364763 0.655515
vt 0.158633 0.707437
vt 0.759700 0.252194
vt 0.801834 0.425477
vt 0.321375 0.844942
vt 0.656686 0.686679
vt 0.608014 0.532443
vt 0.564193 0.763691
vt 0.367043 0.457591
vt 0.393556 0.531810
vt 0.426887 0.792621
vt 0.468468 0.292592
vt 0.491027 0.314849
vt 0.491879 0.365390
vt 0.472586 0.459759
vt 0.489532 0.493355
vt 0.500821 0.568272
vt 0.435519 0.031243
vt 0.568444 0.031489
vt 0.500995 0.275123
vt 0.510376 0.314937
vt 0.512765 0.493436
vt 0.509796 0.365458
vt 0.529849 0.459952
vt 0.533605 0.292802
vt 0.524120 0.896797
vt 0.160970 0.844315
vt 0.658523 0.845641
vt 0.374037 0.888198
vt 0.200000 0.400000
vt 0.250000 0.400000
vt 0.250000 0.300000
vt 0.200000 0.300000
vt 0.250000 0.350000
vt 0.250000 0.250000
vt 0.200000 0.350000
vt 0.200000 0.250000
vt 0.180000 0.220000
vt 0.200000 0.150000
vt 0.230000 0.150000
vt 0.260000 0.150000
s 1
usemtl npc_arya_mat.001
f 18/1/18 4/2/4 6/3/6
f 1/4/1 19/5/19 3/6/3
f 5/7/5 41/8/41 3/6/3
f 44/9/44 4/2/4 43/10/43
f 5/7/5 3/6/3 19/5/19
f 14/11/14 16/12/16 36/13/36
f 2/14/2 12/15/12 11/16/11
f 1/4/1 3/6/3 11/16/11
f 46/17/46 3/6/3 42/18/42
f 7/19/7 16/12/16 14/11/14
f 13/20/13 15/21/15 8/22/8
f 8/22/8 40/23/40 50/24/50
f 7/19/7 14/11/14 51/25/51
f 16/12/16 7/19/7 9/26/9
f 15/21/15 17/27/17 9/26/9
f 8/22/8 15/21/15 9/26/9
f 9/26/9 10/28/10 40/23/40
f 9/26/9 7/19/7 45/29/45
f 17/27/17 16/12/16 9/26/9
f 4/2/4 18/1/18 2/14/2
f 13/20/13 37/30/37 15/21/15
f 10/28/10 9/26/9 45/29/45
f 9/26/9 40/23/40 8/22/8
f 8/22/8 50/24/50 13/20/13
f 41/8/41 42/18/42 3/6/3
f 4/2/4 11/16/11 46/17/46
f 6/3/6 4/2/4 44/9/44
f 7/19/7 51/25/51 45/29/45
f 43/10/43 4/2/4 46/17/46
f 52/31/52 53/32/53 42/18/42
f 54/33/54 44/9/44 43/10/43
f 43/10/43 46/17/46 56/34/56
f 43/10/43 56/34/56 55/35/55
f 50/24/50 40/23/40 76/36/76
f 45/29/45 77/37/77 48/38/48
f 49/39/49 10/28/10 48/38/48
f 47/40/47 40/23/40 10/28/10
f 47/40/47 10/28/10 49/39/49
f 40/23/40 47/40/47 76/36/76
f 10/28/10 45/29/45 48/38/48
f 45/29/45 51/25/51 77/37/77
f 54/33/54 43/10/43 55/35/55
f 42/18/42 53/32/53 56/34/56
f 41/8/41 52/31/52 42/18/42
f 46/17/46 42/18/42 56/34/56
f 53/32/53 52/31/52 63/41/63
f 70/42/70 62/43/62 55/35/55
f 53/32/53 71/44/71 56/34/56
f 58/45/58 66/46/66 162/47/162
f 70/42/70 56/34/56 162/47/162
f 67/48/67 60/49/60 162/47/162
f 72/50/72 64/51/64 48/38/48
f 74/52/74 77/37/77 78/53/78
f 64/51/64 49/39/49 48/38/48
f 62/43/62 54/33/54 55/35/55
f 47/40/47 75/54/75 76/36/76
f 47/40/47 49/39/49 64/51/64
f 59/55/59 65/56/65 64/51/64
f 64/51/64 57/57/57 73/58/73
f 57/57/57 61/59/61 82/60/82
f 59/55/59 69/61/69 83/62/83
f 65/56/65 61/59/61 64/51/64
f 83/62/83 65/56/65 59/55/59
f 64/51/64 61/59/61 57/57/57
f 71/44/71 162/47/162 56/34/56
f 68/63/68 66/46/66 58/45/58
f 60/49/60 70/42/70 162/47/162
f 166/64/166 167/65/167 65/56/65
f 167/65/167 61/59/61 65/56/65
f 164/66/164 82/60/82 163/67/163
f 82/60/82 61/59/61 163/67/163
f 165/68/165 162/47/162 169/69/169
f 67/48/67 162/47/162 165/68/165
f 166/64/166 83/62/83 170/70/170
f 166/64/166 65/56/65 83/62/83
f 167/65/167 163/67/163 61/59/61
f 162/47/162 66/46/66 169/69/169
f 167/65/167 166/64/166 168/71/168
f 163/67/163 167/65/167 168/71/168
f 171/72/171 165/68/165 169/69/169
f 163/67/163 168/71/168 164/66/164
f 166/64/166 170/70/170 168/71/168
f 21/73/21 1/4/1 27/74/27
f 195/75/195 28/76/28 191/77/191
f 29/78/29 195/75/195 27/74/27
f 22/79/22 19/5/19 1/4/1
f 21/73/21 22/79/22 1/4/1
f 192/80/192 22/79/22 195/75/195
f 192/80/192 195/75/195 191/77/191
f 27/74/27 2/14/2 20/81/20
f 23/82/23 2/14/2 18/1/18
f 20/81/20 2/14/2 23/82/23
f 173/83/173 176/84/176 23/82/23
f 173/83/173 172/85/172 176/84/176
f 24/86/24 25/87/25 196/88/196
f 26/89/26 31/90/31 30/91/30
f 22/79/22 34/92/34 19/5/19
f 193/93/193 32/94/32 22/79/22
f 193/93/193 22/79/22 192/80/192
f 175/95/175 31/90/31 26/89/26
f 33/96/33 174/97/174 23/82/23
f 33/96/33 23/82/23 35/98/35
f 35/98/35 23/82/23 18/1/18
f 174/97/174 173/83/173 23/82/23
f 27/74/27 1/4/1 12/15/12
f 176/84/176 28/76/28 29/78/29
f 27/74/27 176/84/176 29/78/29
f 26/89/26 24/86/24 175/95/175
f 17/27/17 31/90/31 16/12/16
f 208/99/208 194/100/194 38/101/38
f 30/91/30 15/21/15 38/101/38
f 21/73/21 27/74/27 195/75/195
f 22/79/22 21/73/21 195/75/195
f 23/82/23 176/84/176 20/81/20
f 20/81/20 176/84/176 27/74/27
f 29/78/29 28/76/28 195/75/195
f 28/76/28 176/84/176 172/85/172
f 199/102/199 201/103/201 203/104/203
f 207/105/207 208/99/208 211/106/211
f 215/107/215 223/108/223 214/109/214
f 214/109/214 223/108/223 210/110/210
f 226/111/226 199/102/199 198/112/198
f 207/105/207 200/113/200 25/87/25
f 198/112/198 199/102/199 203/104/203
f 204/114/204 192/80/192 191/77/191
f 202/115/202 200/113/200 223/108/223
f 213/116/213 197/117/197 212/118/212
f 25/87/25 202/115/202 196/88/196
f 25/87/25 200/113/200 202/115/202
f 212/118/212 205/119/205 209/120/209
f 201/103/201 193/93/193 192/80/192
f 197/117/197 198/112/198 203/104/203
f 204/114/204 28/76/28 205/119/205
f 205/119/205 203/104/203 204/114/204
f 207/105/207 25/87/25 194/100/194
f 225/121/225 202/115/202 223/108/223
f 222/122/222 213/116/213 216/123/216
f 227/124/227 217/125/217 216/123/216
f 228/126/228 241/127/241 225/121/225
f 227/124/227 216/123/216 213/116/213
f 198/112/198 221/128/221 226/111/226
f 229/129/229 218/130/218 219/131/219
f 229/129/229 226/111/226 218/130/218
f 242/132/242 228/126/228 214/109/214
f 222/122/222 221/128/221 197/117/197
f 219/131/219 218/130/218 224/133/224
f 220/134/220 217/125/217 219/131/219
f 228/126/228 215/107/215 214/109/214
f 225/121/225 215/107/215 228/126/228
f 221/128/221 220/134/220 224/133/224
f 217/125/217 220/134/220 216/123/216
f 238/135/238 232/136/232 231/137/231
f 237/138/237 219/131/219 240/139/240
f 230/140/230 261/139/256 239/141/239
f 217/125/217 260/141/255 240/139/240
f 259/135/254 236/142/236 228/126/228
f 261/139/256 245/143/244 256/138/251
f 253/144/248 244/145/243 239/141/239
f 254/144/249 217/125/217 227/124/227
f 262/146/257 265/147/260 263/148/258
f 265/147/260 262/146/257 264/149/259
f 233/150/233 265/147/260 264/149/259
f 265/147/260 266/151/261 263/148/258
f 267/152/262 235/153/235 262/146/257
f 267/152/262 231/137/231 232/136/232
f 263/148/258 267/152/262 262/146/257
f 246/150/234 269/149/234 268/146/234
f 268/146/234 250/153/234 246/150/234
f 243/140/234 234/154/234 251/155/234
f 257/156/252 228/126/228 242/132/242
f 175/95/175 186/157/186 187/158/187
f 187/158/187 186/157/186 181/159/181
f 24/86/24 178/160/178 186/157/186
f 271/161/264 180/162/180 178/160/178
f 272/163/265 280/164/273 270/165/263
f 183/166/183 173/83/173 189/167/189
f 183/166/183 184/168/184 173/83/173
f 183/166/183 188/169/188 179/170/179
f 188/169/188 283/171/276 179/170/179
f 196/88/196 182/172/182 24/86/24
f 178/160/178 182/172/182 270/165/263
f 182/172/182 178/160/178 24/86/24
f 209/120/209 206/173/206 185/174/185
f 190/175/190 177/176/177 282/177/275
f 209/120/209 185/174/185 190/175/190
f 183/166/183 189/167/189 188/169/188
f 179/170/179 177/176/177 183/166/183
f 183/166/183 177/176/177 185/174/185
f 178/160/178 180/162/180 186/157/186
f 271/161/264 178/160/178 280/164/273
f 177/176/177 278/178/271 282/177/275
f 284/179/277 273/180/266 274/181/267
f 284/179/277 282/177/275 273/180/266
f 298/182/291 285/183/278 270/165/263
f 279/184/272 283/171/276 275/185/268
f 283/171/276 286/186/279 275/185/268
f 286/186/279 276/187/269 275/185/268
f 299/188/292 271/161/264 285/183/278
f 278/178/271 179/170/179 279/184/272
f 276/187/269 274/181/267 277/189/270
f 273/180/266 277/189/270 274/181/267
f 285/183/278 271/161/264 272/163/265
f 270/165/263 285/183/278 272/163/265
f 278/178/271 277/189/270 273/180/266
f 276/187/269 277/189/270 281/190/274
f 293/191/286 276/187/269 286/186/279
f 310/191/298 288/192/281 296/193/289
f 287/194/280 296/193/289 292/195/285
f 295/196/288 311/197/299 285/183/278
f 316/196/304 301/198/294 312/197/300
f 294/199/287 274/181/267 297/200/290
f 313/199/301 318/200/306 290/201/283
f 287/194/280 291/202/284 318/200/306
f 274/181/267 276/187/269 317/193/305
f 305/203/296 323/204/311 324/205/312
f 322/206/310 319/207/307 320/208/308
f 321/209/309 319/207/307 322/206/310
f 289/210/282 321/209/309 322/206/310
f 323/204/311 289/210/282 322/206/310
f 301/198/294 324/205/312 307/211/297
f 324/205/312 319/207/307 307/211/297
f 325/207/293 326/209/293 302/210/293
f 325/207/293 302/210/293 308/211/293
f 314/212/302 285/183/278 298/182/291
f 57/57/57 82/60/82 84/213/84
f 85/214/85 60/49/60 67/48/67
f 55/35/55 56/34/56 70/42/70
f 71/44/71 58/45/58 162/47/162
f 53/32/53 63/41/63 71/44/71
f 48/38/48 74/52/74 72/50/72
f 59/55/59 64/51/64 72/50/72
f 64/51/64 73/58/73 47/40/47
f 48/38/48 77/37/77 74/52/74
f 47/40/47 73/58/73 75/54/75
f 75/54/75 80/215/80 76/36/76
f 144/216/144 133/217/133 129/218/129
f 144/216/144 130/219/130 133/217/133
f 142/220/142 130/219/130 143/221/143
f 327/222/313 157/223/157 131/224/131
f 131/224/131 141/225/141 134/226/134
f 129/218/129 133/217/133 132/227/132
f 133/217/133 147/228/147 132/227/132
f 136/229/136 138/230/138 140/231/140
f 146/232/146 137/233/137 59/55/59
f 136/229/136 128/234/128 127/235/127
f 135/236/135 136/229/136 127/235/127
f 70/42/70 60/49/60 139/237/139
f 72/50/72 74/52/74 152/238/152
f 145/239/145 139/237/139 60/49/60
f 154/240/154 135/236/135 126/241/126
f 79/242/79 155/243/155 125/244/125
f 135/236/135 159/245/159 160/246/160
f 125/244/125 129/218/129 86/247/86
f 69/61/69 59/55/59 137/233/137
f 150/248/150 60/49/60 85/214/85
f 127/235/127 126/241/126 135/236/135
f 128/234/128 136/229/136 140/231/140
f 126/241/126 141/225/141 158/249/158
f 153/250/153 129/218/129 156/251/156
f 136/229/136 160/246/160 138/230/138
f 160/246/160 159/245/159 151/252/151
f 155/243/155 148/253/148 125/244/125
f 331/254/317 352/255/338 328/256/314
f 130/219/130 329/257/315 133/217/133
f 141/225/141 127/235/127 128/234/128
f 157/223/157 158/249/158 131/224/131
f 131/224/131 158/249/158 141/225/141
f 143/221/143 130/219/130 144/216/144
f 130/219/130 142/220/142 355/258/341
f 327/222/313 131/224/131 328/256/314
f 131/224/131 134/226/134 328/256/314
f 130/219/130 355/258/341 329/257/315
f 354/259/340 333/260/319 340/261/326
f 380/262/366 147/228/147 341/263/327
f 330/264/316 334/265/320 341/263/327
f 341/263/327 329/257/315 330/264/316
f 356/266/342 330/264/316 329/257/315
f 329/257/315 355/258/341 379/267/365
f 332/268/318 353/269/339 328/256/314
f 134/226/134 340/261/326 328/256/314
f 340/261/326 332/268/318 328/256/314
f 332/268/318 333/260/319 342/270/328
f 347/271/333 350/272/336 349/273/335
f 356/266/342 343/274/329 330/264/316
f 348/275/334 351/276/337 346/277/332
f 374/278/360 344/279/330 348/275/334
f 336/280/322 335/281/321 338/282/324
f 338/282/324 335/281/321 339/283/325
f 358/284/344 360/285/346 337/286/323
f 96/287/96 92/288/92 95/289/95
f 107/290/107 96/287/96 93/291/93
f 106/292/106 93/291/93 105/293/105
f 94/294/94 104/295/104 121/296/121
f 110/297/110 112/298/112 97/299/97
f 89/300/89 98/301/98 102/302/102
f 109/303/109 100/304/100 58/45/58
f 117/305/117 88/306/88 111/307/111
f 98/301/98 99/308/99 108/309/108
f 99/308/99 90/310/90 91/311/91
f 98/301/98 90/310/90 99/308/99
f 103/312/103 101/313/101 99/308/99
f 108/309/108 113/314/113 123/315/123
f 118/316/118 71/44/71 63/41/63
f 73/58/73 57/57/57 115/317/115
f 81/318/81 87/319/87 88/306/88
f 100/304/100 68/63/68 58/45/58
f 103/312/103 99/308/99 91/311/91
f 114/320/114 57/57/57 84/213/84
f 98/301/98 123/315/123 102/302/102
f 97/299/97 91/311/91 104/295/104
f 115/317/115 57/57/57 122/321/122
f 87/319/87 116/322/116 92/288/92
f 90/310/90 98/301/98 89/300/89
f 92/288/92 116/322/116 119/323/119
f 385/324/371 406/325/392 383/326/369
f 94/294/94 382/327/368 97/299/97
f 90/310/90 89/300/89 104/295/104
f 97/299/97 104/295/104 94/294/94
f 94/294/94 121/296/121 120/328/120
f 106/292/106 107/290/107 93/291/93
f 381/329/367 105/293/105 93/291/93
f 107/290/107 92/288/92 96/287/96
f 381/329/367 93/291/93 383/326/369
f 94/294/94 120/328/120 409/330/395
f 94/294/94 409/330/395 382/327/368
f 93/291/93 96/287/96 383/326/369
f 388/331/374 395/332/381 408/333/394
f 97/299/97 394/334/380 434/335/420
f 384/336/370 383/326/369 395/332/381
f 96/287/96 395/332/381 383/326/369
f 385/324/371 383/326/369 384/336/370
f 409/330/395 433/337/419 382/327/368
f 407/338/393 382/327/368 410/339/396
f 394/334/380 382/327/368 386/340/372
f 387/341/373 394/334/380 386/340/372
f 400/342/386 392/343/378 391/344/377
f 404/345/390 407/338/393 398/346/384
f 405/347/391 388/331/374 397/348/383
f 388/331/374 411/349/397 396/350/382
f 399/351/385 403/352/389 401/353/387
f 393/354/379 413/355/399 389/356/375
f 412/357/398 393/354/379 390/358/376
f 390/358/376 393/354/379 389/356/375
f 392/343/378 414/359/400 391/344/377
f 87/319/87 92/288/92 88/306/88
f 117/305/117 81/318/81 88/306/88
f 86/247/86 129/218/129 153/250/153
f 125/244/125 86/247/86 79/242/79
f 73/58/73 115/317/115 75/54/75
f 152/238/152 59/55/59 72/50/72
f 58/45/58 71/44/71 118/316/118
f 70/42/70 139/237/139 62/43/62
f 309/195/293 303/360/293 306/202/293
f 247/361/245 249/154/246 239/141/239
f 205/119/205 212/118/212 197/117/197
f 184/168/184 28/76/28 172/85/172
f 278/178/271 273/180/266 282/177/275
f 221/128/221 218/130/218 226/111/226
f 179/170/179 283/171/276 279/184/272
f 275/185/268 281/190/274 279/184/272
f 197/117/197 213/116/213 222/122/222
f 222/122/222 216/123/216 220/134/220
f 221/128/221 198/112/198 197/117/197
f 220/134/220 221/128/221 222/122/222
f 177/176/177 179/170/179 278/178/271
f 278/178/271 279/184/272 277/189/270
f 280/164/273 178/160/178 270/165/263
f 271/161/264 280/164/273 272/163/265
f 223/108/223 200/113/200 210/110/210
f 225/121/225 223/108/223 215/107/215
f 203/104/203 201/103/201 192/80/192
f 191/77/191 28/76/28 204/114/204
f 183/166/183 185/174/185 184/168/184
f 197/117/197 203/104/203 205/119/205
f 28/76/28 206/173/206 205/119/205
f 185/174/185 177/176/177 190/175/190
f 184/168/184 185/174/185 28/76/28
f 206/173/206 28/76/28 185/174/185
f 206/173/206 209/120/209 205/119/205
f 266/151/261 233/150/233 231/137/231
f 323/204/311 320/208/308 324/205/312
f 266/151/261 231/137/231 267/152/262
f 265/147/260 233/150/233 266/151/261
f 263/148/258 266/151/261 267/152/262
f 267/152/262 232/136/232 235/153/235
f 305/203/296 289/210/282 323/204/311
f 322/206/310 320/208/308 323/204/311
f 305/203/296 324/205/312 301/198/294
f 320/208/308 319/207/307 324/205/312
f 236/142/236 241/127/241 228/126/228
f 244/145/243 247/361/245 239/141/239
f 288/192/281 292/195/285 296/193/289
f 311/197/299 299/188/292 285/183/278
f 284/179/277 274/181/267 294/199/287
f 305/203/296 316/196/304 315/212/303
f 229/129/229 219/131/219 237/138/237
f 232/136/232 238/135/238 258/156/253
f 228/126/228 257/156/252 259/135/254
f 231/137/231 255/142/250 238/135/238
f 305/203/296 301/198/294 316/196/304
f 295/196/288 285/183/278 314/212/302
f 293/191/286 317/193/305 276/187/269
f 318/200/306 296/193/289 287/194/280
f 304/360/295 318/200/306 291/202/284
f 317/193/305 297/200/290 274/181/267
f 230/140/230 239/141/239 249/154/246
f 254/144/249 260/141/255 217/125/217
f 217/125/217 240/139/240 219/131/219
f 261/139/256 230/140/230 252/155/247
f 203/104/203 192/80/192 204/114/204
f 173/83/173 184/168/184 172/85/172
f 390/358/376 402/362/388 412/357/398
f 389/356/375 430/352/416 390/358/376
f 386/340/372 407/338/393 404/345/390
f 422/351/408 419/363/405 384/336/370
f 359/364/345 338/282/324 339/283/325
f 359/364/345 339/283/325 369/277/355
f 332/268/318 342/270/328 377/272/363
f 334/265/320 367/279/353 361/365/347
f 330/264/316 345/366/331 378/276/364
f 25/87/25 26/89/26 194/100/194
f 26/89/26 25/87/25 24/86/24
f 189/167/189 173/83/173 174/97/174
f 210/110/210 207/105/207 211/106/211
f 388/331/374 408/333/394 411/349/397
f 394/334/380 97/299/97 382/327/368
f 124/367/124 395/332/381 96/287/96
f 384/336/370 395/332/381 388/331/374
f 161/368/161 354/259/340 134/226/134
f 333/260/319 332/268/318 340/261/326
f 357/369/343 380/262/366 334/265/320
f 329/257/315 341/263/327 133/217/133
f 306/202/293 300/194/293 309/195/293
f 234/154/234 248/361/234 251/155/234
f 261/139/256 252/155/247 245/143/244
f 290/201/283 318/200/306 304/360/295
f 140/231/140 134/226/134 128/234/128
f 141/225/141 128/234/128 134/226/134
f 149/370/149 134/226/134 140/231/140
f 129/218/129 132/227/132 156/251/156
f 92/288/92 119/323/119 95/289/95
f 112/298/112 103/312/103 97/299/97
f 103/312/103 91/311/91 97/299/97
f 90/310/90 104/295/104 91/311/91
f 148/253/148 143/221/143 125/244/125
f 127/235/127 141/225/141 126/241/126
f 125/244/125 144/216/144 129/218/129
f 143/221/143 144/216/144 125/244/125
f 104/295/104 89/300/89 121/296/121
f 111/307/111 88/306/88 106/292/106
f 106/292/106 88/306/88 107/290/107
f 88/306/88 92/288/92 107/290/107
f 194/100/194 208/99/208 207/105/207
f 210/110/210 200/113/200 207/105/207
f 186/157/186 180/162/180 181/159/181
f 24/86/24 186/157/186 175/95/175
f 2/14/2 11/16/11 4/2/4
f 11/16/11 3/6/3 46/17/46
f 418/348/404 415/350/401 423/371/409
f 386/340/372 416/372/402 387/341/373
f 403/352/389 432/347/418 429/362/415
f 397/348/383 388/331/374 396/350/382
f 424/342/410 431/345/417 426/373/412
f 419/363/405 385/324/371 384/336/370
f 430/352/416 413/355/399 427/353/413
f 405/347/391 384/336/370 388/331/374
f 417/372/403 431/345/417 424/342/410
f 402/362/388 425/371/411 412/357/398
f 399/351/385 401/353/387 420/363/406
f 400/342/386 428/373/414 392/343/378
f 429/362/415 418/348/404 423/371/409
f 430/352/416 402/362/388 390/358/376
f 403/352/389 399/351/385 432/347/418
f 389/356/375 413/355/399 430/352/416
f 337/286/323 370/271/356 375/273/361
f 334/265/320 361/365/347 357/369/343
f 364/274/350 371/374/357 368/366/354
f 353/269/339 365/375/351 331/254/317
f 376/278/362 373/275/359 336/280/322
f 330/264/316 378/276/364 334/265/320
f 373/275/359 369/277/355 335/281/321
f 343/274/329 345/366/331 330/264/316
f 371/374/357 346/277/332 368/366/354
f 369/277/355 339/283/325 335/281/321
f 366/375/352 350/272/336 347/271/333
f 372/374/358 359/364/345 369/277/355
f 344/279/330 351/276/337 348/275/334
f 373/275/359 335/281/321 336/280/322
f 362/365/348 344/279/330 374/278/360
f 337/286/323 375/273/361 358/284/344
f 353/269/339 377/272/363 365/375/351
f 350/272/336 363/270/349 349/273/335
f 386/340/372 404/345/390 416/372/402
f 431/345/417 421/346/407 426/373/412
f 276/187/269 281/190/274 275/185/268
f 281/190/274 277/189/270 279/184/272
f 219/131/219 224/133/224 220/134/220
f 221/128/221 224/133/224 218/130/218
f 432/347/418 418/348/404 429/362/415
f 422/351/408 384/336/370 405/347/391
f 334/265/320 378/276/364 367/279/353
f 351/276/337 368/366/354 346/277/332
f 12/15/12 1/4/1 11/16/11
f 27/74/27 12/15/12 2/14/2
f 352/255/338 327/222/313 328/256/314
f 329/257/315 379/267/365 356/266/342
f 406/325/392 381/329/367 383/326/369
f 433/337/419 410/339/396 382/327/368
f 57/57/57 114/320/114 122/321/122
f 101/313/101 108/309/108 99/308/99
f 98/301/98 108/309/108 123/315/123
f 109/303/109 58/45/58 118/316/118
f 135/236/135 154/240/154 159/245/159
f 145/239/145 60/49/60 150/248/150
f 136/229/136 135/236/135 160/246/160
f 146/232/146 59/55/59 152/238/152
f 353/269/339 331/254/317 328/256/314
f 332/268/318 377/272/363 353/269/339
f 386/340/372 382/327/368 407/338/393
f 407/338/393 410/339/396 398/346/384
f 96/287/96 95/289/95 124/367/124
f 97/299/97 434/335/420 110/297/110
f 161/368/161 134/226/134 149/370/149
f 147/228/147 133/217/133 341/263/327
f 354/259/340 340/261/326 134/226/134
f 380/262/366 341/263/327 334/265/320
f 387/341/373 434/335/420 394/334/380
f 124/367/124 408/333/394 395/332/381
f 26/89/26 30/91/30 194/100/194
f 17/27/17 15/21/15 30/91/30
f 31/90/31 17/27/17 30/91/30
f 31/90/31 175/95/175 39/376/39
f 22/79/22 32/94/32 34/92/34
f 30/91/30 38/101/38 194/100/194
f 175/95/175 187/158/187 39/376/39
f 31/90/31 39/376/39 16/12/16
f 437/377/423 461/378/447 438/379/424
f 440/380/426 459/381/445 443/382/429
f 453/383/439 444/384/430 487/385/473
f 443/382/429 435/386/421 472/387/458
f 448/388/434 460/389/446 447/390/433
f 453/383/439 447/390/433 456/391/442
f 458/392/444 452/393/438 453/383/439
f 445/394/431 444/384/430 453/383/439
f 452/393/438 471/395/457 445/394/431
f 486/396/472 444/384/430 445/394/431
f 453/383/439 487/385/473 447/390/433
f 447/390/433 488/397/474 448/388/434
f 488/397/474 447/390/433 487/385/473
f 475/398/461 476/399/462 473/400/459
f 442/401/428 448/388/434 490/402/476
f 478/403/464 473/400/459 476/399/462
f 455/404/441 460/389/446 474/405/460
f 489/406/475 457/407/443 437/377/423
f 457/407/443 461/378/447 437/377/423
f 455/404/441 474/405/460 477/408/463
f 489/406/475 459/381/445 457/407/443
f 459/381/445 489/406/475 443/382/429
f 454/409/440 440/380/426 441/410/427
f 454/409/440 459/381/445 440/380/426
f 439/411/425 454/409/440 441/410/427
f 461/378/447 459/381/445 454/409/440
f 458/392/444 453/383/439 456/391/442
f 450/412/436 452/393/438 458/392/444
f 458/392/444 455/404/441 450/412/436
f 451/413/437 450/412/436 455/404/441
f 449/414/435 451/413/437 455/404/441
f 460/389/446 458/392/444 456/391/442
f 455/404/441 477/408/463 449/414/435
f 460/389/446 456/391/442 447/390/433
f 455/404/441 458/392/444 460/389/446
f 461/378/447 454/409/440 475/398/461
f 457/407/443 459/381/445 461/378/447
f 489/406/475 435/386/421 443/382/429
f 471/395/457 452/393/438 463/415/449
f 470/416/456 463/415/449 465/417/451
f 452/393/438 445/394/431 453/383/439
f 463/415/449 452/393/438 483/418/469
f 451/413/437 483/418/469 450/412/436
f 464/419/450 451/413/437 466/420/452
f 483/418/469 451/413/437 464/419/450
f 446/421/432 471/395/457 436/422/422
f 485/423/471 472/387/458 471/395/457
f 466/420/452 449/414/435 439/411/425
f 441/410/427 466/420/452 439/411/425
f 469/424/455 485/423/471 470/416/456
f 451/413/437 449/414/435 466/420/452
f 467/425/453 464/419/450 466/420/452
f 465/417/451 464/419/450 467/425/453
f 468/426/454 465/417/451 467/425/453
f 469/424/455 465/417/451 468/426/454
f 440/380/426 484/427/470 441/410/427
f 441/410/427 467/425/453 466/420/452
f 468/426/454 462/428/448 469/424/455
f 484/427/470 440/380/426 443/382/429
f 462/428/448 467/425/453 484/427/470
f 478/403/464 476/399/462 481/429/467
f 462/428/448 485/423/471 469/424/455
f 467/425/453 462/428/448 468/426/454
f 463/415/449 464/419/450 465/417/451
f 469/424/455 470/416/456 465/417/451
f 471/395/457 463/415/449 485/423/471
f 472/387/458 462/428/448 443/382/429
f 472/387/458 436/422/422 471/395/457
f 446/421/432 445/394/431 471/395/457
f 436/422/422 472/387/458 435/386/421
f 490/402/476 448/388/434 488/397/474
f 442/401/428 490/402/476 478/403/464
f 448/388/434 474/405/460 460/389/446
f 448/388/434 480/430/466 474/405/460
f 438/379/424 475/398/461 473/400/459
f 438/379/424 461/378/447 475/398/461
f 476/399/462 475/398/461 482/431/468
f 475/398/461 454/409/440 482/431/468
f 480/430/466 477/408/463 474/405/460
f 479/432/465 449/414/435 477/408/463
f 449/414/435 478/403/464 481/429/467
f 449/414/435 479/432/465 478/403/464
f 479/432/465 477/408/463 480/430/466
f 442/401/428 478/403/464 479/432/465
f 442/401/428 480/430/466 448/388/434
f 479/432/465 480/430/466 442/401/428
f 482/431/468 481/429/467 476/399/462
f 439/411/425 449/414/435 481/429/467
f 439/411/425 482/431/468 454/409/440
f 439/411/425 481/429/467 482/431/468
f 445/394/431 446/421/432 436/422/422
f 486/396/472 445/394/431 436/422/422
f 463/415/449 483/418/469 464/419/450
f 483/418/469 452/393/438 450/412/436
f 467/425/453 441/410/427 484/427/470
f 462/428/448 484/427/470 443/382/429
f 462/428/448 472/387/458 485/423/471
f 485/423/471 463/415/449 470/416/456
f 491/433/477 492/434/478 496/435/482 495/436/481
f 492/434/478 493/437/479 497/438/483 496/435/482
f 493/437/479 494/439/480 498/440/484 497/438/483
f 494/439/480 491/433/477 495/436/481 498/440/484
f 495/436/481 496/435/482 499/441/485
f 496/435/482 497/438/483 499/441/485
f 497/438/483 498/440/484 499/441/485
f 498/440/484 495/436/481 499/441/485
f 495/436/481 499/441/485 500/442/486
f 496/435/482 499/441/485 501/443/487
f 496/435/482 501/443/487 502/444/488
f 497/438/483 502/444/488 501/443/487
f 497/438/483 501/443/487 498/440/484
f 498/440/484 501/443/487 500/442/486
f 500/442/486 501/443/487 502/444/488
f 507/436/493 508/435/494 504/434/490 503/433/489
f 508/435/494 509/438/495 505/437/491 504/434/490
f 509/438/495 510/440/496 506/439/492 505/437/491
f 510/440/496 507/436/493 503/433/489 506/439/492
f 511/441/497 508/435/494 507/436/493
f 511/441/497 509/438/495 508/435/494
f 511/441/497 510/440/496 509/438/495
f 511/441/497 507/436/493 510/440/496
f 512/442/498 511/441/497 507/436/493
f 513/443/499 511/441/497 508/435/494
f 514/444/500 513/443/499 508/435/494
f 513/443/499 514/444/500 509/438/495
f 510/440/496 513/443/499 509/438/495
f 512/442/498 513/443/499 510/440/496
f 514/444/500 513/443/499 512/442/498
