# Blender 5.1.1
# www.blender.org
mtllib npc_ningsih.mtl
o npc_ningsih
v 0.110157 0.028654 0.415503
v 0.033779 0.027466 0.415476
v 0.073541 0.050811 0.419779
v 0.037960 -0.032115 0.406100
v 0.027112 -0.033810 0.359019
v 0.062388 -0.022187 0.110267
v 0.058398 0.013430 0.110247
v 0.076629 0.029152 0.110237
v 0.105905 -0.032187 0.405996
v 0.125981 -0.034881 0.358144
v 0.083572 -0.024349 0.110270
v 0.095796 0.013348 0.110246
v 0.074359 0.044993 0.398316
v 0.073294 -0.060811 0.356599
v 0.073541 0.050811 0.419779
v 0.012982 -0.128878 0.365089
v 0.069505 -0.122064 0.365076
v 0.136064 -0.098424 0.365052
v 0.178607 -0.014293 0.365006
v 0.148211 0.078291 0.364948
v 0.082328 0.104864 0.364924
v 0.025966 0.113032 0.364908
v 0.110157 0.028654 0.415503
v 0.110157 0.028654 0.415503
v 0.033779 0.027466 0.415476
v 0.033779 0.027466 0.415476
v 0.037960 -0.032115 0.406100
v 0.037960 -0.032115 0.406100
v 0.058398 0.013430 0.110247
v 0.105905 -0.032187 0.405996
v 0.105905 -0.032187 0.405996
v 0.095796 0.013348 0.110246
v 0.012982 -0.128878 0.365089
v 0.012982 -0.128878 0.365089
v 0.069505 -0.122064 0.365076
v 0.136064 -0.098424 0.365052
v 0.178607 -0.014293 0.365006
v 0.178607 -0.014293 0.365006
v 0.178607 -0.014293 0.365006
v 0.148211 0.078291 0.364948
v 0.082328 0.104864 0.364924
v 0.025966 0.113032 0.364908
v 0.012982 -0.128591 0.504245
v 0.068414 -0.122055 0.504240
v 0.133929 -0.097726 0.504225
v 0.175749 -0.014161 0.504208
v 0.145067 0.077425 0.504192
v 0.081035 0.103329 0.504176
v 0.025965 0.110302 0.504165
v 0.012982 -0.127670 0.621071
v 0.067013 -0.121574 0.621070
v 0.130186 -0.096737 0.621066
v 0.172277 -0.014096 0.621050
v 0.142123 0.075458 0.621028
v 0.079375 0.101055 0.621020
v 0.025964 0.107394 0.621020
v 0.122926 -0.094638 0.827744
v 0.161401 -0.014009 0.827729
v 0.133973 0.070188 0.827699
v 0.075812 0.094441 0.827699
v 0.119086 -0.093602 0.923750
v 0.154188 -0.013960 0.931221
v 0.128345 0.065723 0.939019
v 0.137966 0.072611 0.739259
v 0.077961 0.097274 0.739252
v 0.025963 0.101669 0.739255
v 0.126032 -0.095562 0.739305
v 0.166458 -0.014028 0.739286
v 0.175749 -0.014161 0.504208
v 0.172277 -0.014096 0.621050
v 0.161401 -0.014009 0.827729
v 0.154188 -0.013960 0.931221
v 0.166458 -0.014028 0.739286
v 0.089483 -0.042741 0.047417
v 0.078842 -0.017911 -0.000260
v 0.095572 0.013829 0.092163
v 0.084028 -0.023541 0.090657
v 0.117899 0.103882 0.035196
v 0.053957 0.101846 -0.000401
v 0.058218 0.103890 0.041361
v 0.058620 0.014139 0.092163
v 0.069232 -0.017000 -0.000262
v 0.052584 -0.041192 0.047416
v 0.121705 0.101931 -0.000401
v 0.059895 0.010047 0.017325
v 0.062187 -0.021071 0.090654
v 0.075735 0.029813 0.092912
v 0.108554 0.068591 0.047386
v 0.062306 0.061621 0.071304
v 0.096587 0.009958 0.017326
v 0.083645 -0.001166 -0.000280
v 0.067114 -0.001047 -0.000444
v 0.056150 -0.037312 0.027224
v 0.085136 -0.039957 0.027227
v 0.095572 0.013829 0.092163
v 0.058620 0.014139 0.092163
v 0.059895 0.010047 0.017325
v 0.096587 0.009958 0.017326
v 0.099690 0.176264 -0.000489
v 0.098422 0.172553 0.019154
v 0.074983 0.177392 -0.000490
v 0.076924 0.175095 0.020364
v 0.115441 0.116842 0.032638
v 0.058922 0.117297 0.036326
v -0.109552 0.028686 0.415508
v -0.035016 0.029653 0.415479
v -0.073860 0.052082 0.419822
v -0.038650 -0.030814 0.406178
v -0.027848 -0.032239 0.359355
v -0.061799 -0.022263 0.110392
v -0.057809 0.013377 0.110369
v -0.077302 0.029120 0.110361
v -0.104877 -0.030888 0.406075
v -0.125862 -0.033315 0.358492
v -0.082980 -0.024431 0.110393
v -0.095204 0.013298 0.110370
v -0.074697 0.046184 0.398214
v -0.073611 -0.059254 0.357107
v -0.118624 -0.054557 0.365654
v -0.025989 0.113047 0.364907
v -0.081969 0.104879 0.364924
v -0.148212 0.078307 0.364949
v -0.178608 -0.014278 0.365009
v -0.136065 -0.098409 0.365057
v -0.069146 -0.122048 0.365082
v -0.025985 -0.126740 0.365092
v -0.109552 0.028686 0.415508
v -0.109552 0.028686 0.415508
v -0.035016 0.029653 0.415479
v -0.035016 0.029653 0.415479
v -0.035016 0.029653 0.415479
v -0.035016 0.029653 0.415479
v -0.073860 0.052082 0.419822
v -0.038650 -0.030814 0.406178
v -0.038650 -0.030814 0.406178
v -0.057809 0.013377 0.110369
v -0.104877 -0.030888 0.406075
v -0.104877 -0.030888 0.406075
v -0.104877 -0.030888 0.406075
v -0.095204 0.013298 0.110370
v -0.025989 0.113047 0.364907
v -0.025989 0.113047 0.364907
v -0.081969 0.104879 0.364924
v -0.148212 0.078307 0.364949
v -0.178608 -0.014278 0.365009
v -0.178608 -0.014278 0.365009
v -0.178608 -0.014278 0.365009
v -0.136065 -0.098409 0.365057
v -0.069146 -0.122048 0.365082
v -0.025985 -0.126740 0.365092
v -0.025984 0.110320 0.504172
v -0.080676 0.103347 0.504182
v -0.145068 0.077444 0.504196
v -0.175749 -0.014143 0.504208
v -0.133930 -0.097708 0.504221
v -0.068055 -0.122036 0.504235
v -0.025982 -0.126390 0.504240
v -0.025981 0.107408 0.621024
v -0.079015 0.101069 0.621027
v -0.142124 0.075472 0.621030
v -0.172278 -0.014083 0.621050
v -0.130187 -0.096724 0.621063
v -0.066653 -0.121561 0.621065
v -0.025981 -0.125760 0.621066
v -0.075452 0.094446 0.827703
v -0.133973 0.070193 0.827702
v -0.161402 -0.014005 0.827729
v -0.122926 -0.094633 0.827741
v -0.154188 -0.013959 0.931221
v -0.119086 -0.093601 0.923747
v -0.025973 0.101677 0.739260
v -0.077601 0.097282 0.739257
v -0.137966 0.072619 0.739263
v -0.166458 -0.014019 0.739286
v -0.126032 -0.095554 0.739302
v -0.175749 -0.014143 0.504208
v -0.172278 -0.014083 0.621050
v -0.161402 -0.014005 0.827729
v -0.154188 -0.013959 0.931221
v -0.166458 -0.014019 0.739286
v -0.089082 -0.042671 0.047618
v -0.078110 -0.017833 -0.000090
v -0.057768 0.103809 0.041280
v -0.095207 0.013851 0.092313
v -0.083465 -0.023590 0.090816
v -0.117443 0.103800 0.035115
v -0.053555 0.101985 -0.000259
v -0.058271 0.014156 0.092313
v -0.067550 -0.016994 -0.000091
v -0.052183 -0.041178 0.047616
v -0.121647 0.102031 -0.000259
v -0.058427 0.009854 0.017489
v -0.076470 0.028677 0.093059
v -0.061626 -0.021113 0.090812
v -0.108167 0.068557 0.047419
v -0.061931 0.061590 0.071338
v -0.096725 0.010041 0.017489
v -0.082783 -0.001073 -0.000114
v -0.065494 -0.001184 -0.000277
v -0.055175 -0.037300 0.027411
v -0.085103 -0.039892 0.027415
v -0.095207 0.013851 0.092313
v -0.058271 0.014156 0.092313
v -0.058427 0.009854 0.017489
v -0.096725 0.010041 0.017489
v -0.099288 0.176235 -0.000363
v -0.097249 0.172535 0.019058
v -0.074581 0.177326 -0.000365
v -0.075751 0.175031 0.020267
v -0.115324 0.116793 0.032554
v -0.058145 0.117226 0.036242
v -0.092501 -0.002630 1.154551
v 0.093219 -0.001918 1.154077
v 0.065530 -0.038684 1.157504
v -0.064517 -0.039011 1.157782
v 0.072280 0.068149 1.150227
v -0.071833 0.068017 1.150227
v 0.000218 0.088048 1.148306
v 0.000512 -0.045745 1.157643
v 0.012980 -0.114822 1.055928
v 0.061734 -0.112901 1.053242
v 0.108336 -0.086602 1.050139
v 0.139064 -0.013219 1.047276
v 0.068313 0.080571 1.039759
v 0.025960 0.086498 1.039082
v -0.025952 0.086498 1.039082
v -0.067951 0.080571 1.039759
v -0.139064 -0.013219 1.047276
v -0.108336 -0.086602 1.050139
v -0.061372 -0.112901 1.053242
v -0.025960 -0.114443 1.055710
v 0.012691 -0.092220 1.102667
v 0.058857 -0.088874 1.101392
v 0.096637 -0.066299 1.098710
v 0.125815 -0.008063 1.095727
v 0.106664 0.054738 1.090470
v 0.064828 0.076631 1.085620
v 0.025958 0.084072 1.083399
v -0.025942 0.084072 1.083399
v -0.064466 0.076631 1.085620
v -0.106664 0.054738 1.090471
v -0.125815 -0.008063 1.095727
v -0.096638 -0.066299 1.098710
v -0.058494 -0.088874 1.101392
v -0.025374 -0.091703 1.102517
v -0.092501 -0.002630 1.154551
v 0.093219 -0.001918 1.154077
v 0.139064 -0.013219 1.047276
v -0.139064 -0.013219 1.047276
v 0.125815 -0.008063 1.095727
v -0.125815 -0.008063 1.095727
v -0.128623 -0.008452 1.285426
v 0.126637 -0.008246 1.285426
v -0.085735 0.073943 1.227895
v 0.086162 0.074123 1.227895
v 0.000213 0.085213 1.249731
v -0.082732 0.111175 1.262021
v 0.083112 0.111346 1.262021
v 0.088724 0.117970 1.302103
v -0.087485 0.117885 1.302103
v 0.126419 0.063516 1.293764
v -0.126797 0.063371 1.293764
v 0.000620 0.108328 1.299415
v 0.000190 0.102179 1.264687
v -0.128623 -0.008452 1.285426
v 0.126637 -0.008246 1.285426
v -0.106972 -0.084211 1.332381
v 0.108391 -0.084006 1.332380
v 0.000432 -0.098752 1.339836
v -0.110773 -0.058762 1.430699
v 0.110818 -0.058760 1.430565
v 0.102857 0.000546 1.428275
v -0.133113 0.026609 1.378607
v 0.032035 0.009297 1.433031
v -0.102896 0.000540 1.428299
v 0.131673 0.027438 1.378737
v -0.030313 0.009185 1.433053
v -0.125577 -0.073799 1.379367
v 0.126279 -0.073581 1.379451
v -0.146022 -0.025426 1.358199
v 0.145512 -0.025296 1.358170
v -0.110773 -0.058762 1.430699
v 0.110818 -0.058760 1.430565
v 0.102857 0.000546 1.428275
v -0.133113 0.026609 1.378607
v -0.133113 0.026609 1.378607
v -0.102896 0.000540 1.428299
v 0.131673 0.027438 1.378737
v 0.131673 0.027438 1.378737
v -0.125577 -0.073799 1.379367
v -0.125577 -0.073799 1.379367
v 0.126279 -0.073581 1.379451
v 0.126279 -0.073581 1.379451
v -0.146022 -0.025426 1.358199
v -0.146022 -0.025426 1.358199
v 0.145512 -0.025296 1.358170
v 0.145512 -0.025296 1.358170
v 0.001424 -0.066981 1.479318
v -0.042488 -0.054663 1.471596
v 0.044525 -0.054923 1.471489
v -0.035425 0.014783 1.562382
v -0.025448 -0.033011 1.579038
v 0.028293 -0.033408 1.578739
v 0.037924 0.014851 1.562382
v 0.000497 0.006313 1.583927
v 0.001249 0.035188 1.551367
v -0.042488 -0.054663 1.471596
v 0.044525 -0.054923 1.471489
v -0.025448 -0.033011 1.579038
v 0.028293 -0.033408 1.578739
v 0.000497 0.006313 1.583927
v 0.132511 -0.060552 1.357032
v 0.163526 -0.071317 1.345224
v 0.203968 -0.055019 1.348582
v 0.198770 0.010541 1.350346
v 0.135099 0.014555 1.355882
v 0.155637 -0.056237 1.147499
v 0.204012 -0.059773 1.153271
v 0.178453 0.012521 1.185452
v 0.157994 0.000312 1.142273
v 0.210604 -0.000431 1.146961
v 0.193884 -0.000928 1.397614
v 0.196220 -0.052727 1.399235
v 0.190775 -0.024422 1.425050
v 0.141084 0.021114 1.395990
v 0.135007 -0.069369 1.398486
v 0.125890 -0.020924 1.364286
v 0.149226 0.023895 1.352302
v 0.163526 -0.071317 1.345224
v 0.204012 -0.059773 1.153271
v 0.178453 0.012521 1.185452
v 0.210604 -0.000431 1.146961
v 0.141084 0.021114 1.395990
v 0.135007 -0.069369 1.398486
v 0.149226 0.023895 1.352302
v -0.132590 -0.060543 1.357026
v -0.163593 -0.071317 1.345212
v -0.204038 -0.055029 1.348574
v -0.198853 0.010529 1.350352
v -0.135183 0.014561 1.355893
v -0.155328 -0.058100 1.147566
v -0.203702 -0.061649 1.153338
v -0.178531 0.012521 1.185451
v -0.157522 -0.001531 1.142352
v -0.210124 -0.002287 1.147033
v -0.193967 -0.000904 1.397618
v -0.196291 -0.052702 1.399229
v -0.190853 -0.024422 1.425048
v -0.141175 0.021178 1.395993
v -0.135078 -0.069295 1.398484
v -0.125967 -0.020927 1.364285
v -0.149315 0.023902 1.352314
v -0.163593 -0.071317 1.345212
v -0.203702 -0.061649 1.153338
v -0.178531 0.012521 1.185451
v -0.210124 -0.002287 1.147033
v -0.141175 0.021178 1.395993
v -0.135078 -0.069295 1.398484
v -0.149315 0.023902 1.352314
v -0.105538 -0.031013 1.437818
v -0.105538 -0.031013 1.437818
v -0.105538 -0.031013 1.437818
v 0.105514 -0.030919 1.437799
v 0.105514 -0.030919 1.437799
v 0.105514 -0.030919 1.437799
v 0.159806 -0.055030 1.123079
v 0.206073 -0.058589 1.126435
v 0.212369 0.001874 1.133215
v 0.159363 0.001107 1.128158
v 0.156038 -0.042319 1.044891
v 0.206825 -0.055131 1.070530
v 0.210892 0.022570 1.059546
v 0.160808 0.017195 1.042298
v 0.191133 -0.026140 0.879164
v 0.191564 0.011149 0.883874
v 0.221412 0.009284 0.887953
v 0.221326 -0.025324 0.883272
v 0.229212 -0.021340 1.074536
v 0.206990 -0.007338 0.875546
v 0.180811 -0.059778 1.131842
v 0.206073 -0.058589 1.126435
v 0.212369 0.001874 1.133215
v 0.206825 -0.055131 1.070530
v 0.210892 0.022570 1.059546
v 0.221412 0.009284 0.887953
v 0.221326 -0.025324 0.883272
v 0.206990 -0.007338 0.875546
v -0.159607 -0.054978 1.122958
v -0.205873 -0.058551 1.126313
v -0.212105 -0.000064 1.133121
v -0.159099 -0.000817 1.128064
v -0.155836 -0.042314 1.044892
v -0.206623 -0.055135 1.070531
v -0.210690 0.022566 1.059547
v -0.160606 0.017200 1.042299
v -0.191501 -0.026132 0.879160
v -0.191941 0.011156 0.883879
v -0.221797 0.009280 0.887958
v -0.221704 -0.025329 0.883267
v -0.229010 -0.021344 1.074537
v -0.207540 -0.006835 0.875560
v -0.180554 -0.060679 1.131804
v -0.205873 -0.058551 1.126313
v -0.212105 -0.000064 1.133121
v -0.206623 -0.055135 1.070531
v -0.210690 0.022566 1.059547
v -0.221797 0.009280 0.887958
v -0.221704 -0.025329 0.883267
v -0.207540 -0.006835 0.875560
v 0.012981 -0.124795 0.827713
v 0.064965 -0.120548 0.827720
v 0.025962 0.097222 0.827737
v -0.025968 0.097222 0.827738
v -0.064604 -0.120548 0.827720
v -0.025973 -0.123482 0.827715
v 0.012981 -0.123686 0.919712
v 0.063945 -0.120076 0.921099
v 0.072218 0.086692 0.942175
v 0.025961 0.091271 0.943497
v -0.025961 0.091271 0.943497
v -0.071857 0.086692 0.942175
v -0.128345 0.065722 0.939037
v -0.063584 -0.120076 0.921099
v -0.025970 -0.123196 0.919969
v 0.012981 -0.123108 1.007951
v 0.062397 -0.120172 1.007951
v 0.113307 -0.091175 1.007951
v 0.146705 -0.014223 1.007951
v 0.122783 0.061765 1.007951
v 0.069984 0.082492 1.007951
v 0.025960 0.087580 1.007951
v -0.025955 0.087580 1.007951
v -0.069622 0.082492 1.007951
v -0.122783 0.061766 1.007951
v -0.146705 -0.014222 1.007951
v -0.113307 -0.091174 1.007951
v -0.062036 -0.120171 1.007951
v -0.025964 -0.123390 1.007951
v 0.118353 0.059443 1.042643
v -0.118353 0.059443 1.042643
v -0.065460 -0.120681 0.739285
v -0.025976 -0.124294 0.739283
v 0.012982 -0.125843 0.739283
v 0.065820 -0.120681 0.739285
v 0.146705 -0.014223 1.007951
v -0.146705 -0.014222 1.007951
v -0.054270 0.003968 1.545637
v -0.067073 -0.073277 1.540486
v -0.038898 -0.065221 1.719407
v -0.033873 0.093525 1.682123
v -0.015823 -0.025514 1.752903
v -0.060820 0.002930 1.571672
v 0.055660 0.004019 1.545634
v 0.072702 -0.073203 1.539789
v 0.034519 -0.074113 1.711341
v 0.062037 0.003059 1.571667
v -0.039488 0.085235 1.713770
v 0.036820 0.101540 1.713675
v 0.077687 -0.024972 1.616212
v -0.076335 -0.025075 1.616217
v -0.075444 -0.043589 1.682254
v 0.065069 0.006080 1.633094
v -0.063750 0.005977 1.633099
v 0.089163 -0.043692 1.678437
v 0.036789 0.092976 1.681351
v -0.013001 0.094991 1.569099
v -0.014974 0.085641 1.501882
v -0.052628 0.068545 1.579134
v 0.007912 0.097582 1.619383
v 0.014201 0.095020 1.569098
v 0.004835 0.116771 1.570565
v 0.016258 0.085714 1.501880
v 0.053813 0.068661 1.579130
v 0.058179 0.061215 1.611685
v 0.049696 0.082667 1.634934
v 0.000600 0.100726 1.639613
v -0.048553 0.082574 1.634937
v -0.006984 0.097582 1.619383
v -0.003623 0.116771 1.570565
v -0.056962 0.061100 1.611690
v 0.037357 0.075596 1.742679
v -0.038410 0.019788 1.735214
v -0.079199 -0.080355 1.646789
v 0.085042 -0.080241 1.649586
v -0.061599 0.003118 1.717898
v 0.067781 0.017212 1.714868
v -0.063551 0.050437 1.687307
v 0.069048 0.052204 1.682040
v -0.046528 -0.109680 1.604618
v 0.048032 -0.109571 1.605009
v 0.000779 -0.091385 1.522314
v -0.090502 0.002457 1.556434
v 0.096355 0.007745 1.555552
v 0.086527 -0.013245 1.586206
v -0.082983 -0.013378 1.585090
v -0.076865 -0.070234 1.593479
v 0.078595 -0.070166 1.593474
v -0.030667 0.046007 1.515354
v 0.031998 0.046069 1.515351
v -0.022920 0.091887 1.738795
v -0.004078 0.119801 1.577619
v 0.005132 0.119801 1.577619
v -0.053798 0.058666 1.667194
v 0.055916 0.058443 1.666806
v -0.012894 0.089146 1.611973
v 0.013951 0.089204 1.611972
v 0.000600 0.099960 1.566327
v -0.054270 0.003968 1.545637
v -0.067073 -0.073277 1.540486
v -0.038898 -0.065221 1.719407
v -0.015823 -0.025514 1.752903
v -0.046528 -0.109680 1.604618
v -0.054270 0.003968 1.545637
v -0.067073 -0.073277 1.540486
v -0.038898 -0.065221 1.719407
v -0.033873 0.093525 1.682123
v -0.015823 -0.025514 1.752903
v -0.060820 0.002930 1.571672
v 0.055660 0.004019 1.545634
v 0.072702 -0.073203 1.539789
v 0.034519 -0.074113 1.711341
v 0.062037 0.003059 1.571667
v -0.039488 0.085235 1.713770
v 0.036820 0.101540 1.713675
v 0.077687 -0.024972 1.616212
v -0.076335 -0.025075 1.616217
v -0.075444 -0.043589 1.682254
v 0.065069 0.006080 1.633094
v -0.063750 0.005977 1.633099
v 0.089163 -0.043692 1.678437
v 0.036789 0.092976 1.681351
v -0.013001 0.094991 1.569099
v -0.014974 0.085641 1.501882
v -0.052628 0.068545 1.579134
v 0.007912 0.097582 1.619383
v 0.014201 0.095020 1.569098
v 0.004835 0.116771 1.570565
v 0.016258 0.085714 1.501880
v 0.053813 0.068661 1.579130
v 0.058179 0.061215 1.611685
v 0.049696 0.082667 1.634934
v 0.000600 0.100726 1.639613
v -0.048553 0.082574 1.634937
v -0.006984 0.097582 1.619383
v -0.003623 0.116771 1.570565
v -0.056962 0.061100 1.611690
v 0.037357 0.075596 1.742679
v -0.038410 0.019788 1.735214
v -0.079199 -0.080355 1.646789
v 0.085042 -0.080241 1.649586
v -0.061599 0.003118 1.717898
v 0.067781 0.017212 1.714868
v -0.063551 0.050437 1.687307
v 0.069048 0.052204 1.682040
v -0.046528 -0.109680 1.604618
v 0.048032 -0.109571 1.605009
v 0.000779 -0.091385 1.522314
v -0.090502 0.002457 1.556434
v 0.096355 0.007745 1.555552
v 0.086527 -0.013245 1.586206
v -0.082983 -0.013378 1.585090
v -0.076865 -0.070234 1.593479
v 0.078595 -0.070166 1.593474
v -0.030667 0.046007 1.515354
v 0.031998 0.046069 1.515351
v -0.022920 0.091887 1.738795
v -0.004078 0.119801 1.577619
v 0.005132 0.119801 1.577619
v -0.053798 0.058666 1.667194
v 0.055916 0.058443 1.666806
v -0.012894 0.089146 1.611973
v 0.013951 0.089204 1.611972
v 0.000600 0.099960 1.566327
v -0.054270 0.003968 1.545637
v -0.067073 -0.073277 1.540486
v -0.038898 -0.065221 1.719407
v -0.015823 -0.025514 1.752903
v -0.046528 -0.109680 1.604618
v -0.209250 0.003100 0.877300
v -0.199950 0.001550 0.877300
v -0.199950 -0.020150 0.877300
v -0.209250 -0.020150 0.877300
v -0.220100 0.006200 0.837000
v -0.201500 0.003100 0.833900
v -0.201500 -0.017050 0.833900
v -0.217000 -0.017050 0.837000
v -0.229400 0.012400 0.818400
v -0.223200 -0.003100 0.784300
v -0.213900 -0.006200 0.781200
v -0.204600 -0.006200 0.787400
v 0.209250 0.003100 0.877300
v 0.199950 0.001550 0.877300
v 0.199950 -0.020150 0.877300
v 0.209250 -0.020150 0.877300
v 0.220100 0.006200 0.837000
v 0.201500 0.003100 0.833900
v 0.201500 -0.017050 0.833900
v 0.217000 -0.017050 0.837000
v 0.229400 0.012400 0.818400
v 0.223200 -0.003100 0.784300
v 0.213900 -0.006200 0.781200
v 0.204600 -0.006200 0.787400
vn -0.9829 -0.1157 -0.1430
vn 0.9968 -0.0628 -0.0496
vn 0.0051 -0.9651 0.2618
vn 0.7112 0.6125 -0.3450
vn 0.8980 0.4400 -0.0048
vn 0.6957 0.7096 0.1118
vn 0.9930 0.0896 0.0773
vn 0.0036 -0.9994 0.0338
vn -0.6310 0.6323 -0.4495
vn -0.9007 0.4298 -0.0630
vn -0.5339 0.8373 0.1174
vn -0.9601 0.2644 0.0912
vn -0.0144 -0.9905 0.1366
vn 0.0269 0.9948 -0.0978
vn 0.0971 0.6083 0.7877
vn -0.0217 -0.3960 0.9180
vn 0.0740 -0.4242 0.9026
vn 0.3141 -0.3916 0.8649
vn 0.5222 -0.2636 0.8111
vn 0.4497 0.4443 0.7748
vn 0.2004 0.6577 0.7261
vn -0.0207 0.5726 0.8196
vn -0.4622 -0.8812 0.0995
vn 0.5197 0.3001 0.7999
vn 0.4452 -0.8883 0.1127
vn -0.1040 0.2565 0.9609
vn 0.0049 -0.3583 0.9336
vn -0.0049 -0.1558 0.9878
vn 0.6527 -0.7569 0.0340
vn 0.2438 -0.3811 0.8918
vn 0.5151 -0.1674 0.8406
vn -0.6359 -0.7712 0.0283
vn 0.0291 -0.3964 0.9176
vn -0.0323 0.9995 -0.0017
vn -0.2312 0.9729 -0.0044
vn -0.6629 0.7486 -0.0149
vn 0.6123 0.0481 0.7891
vn -0.8922 0.4512 -0.0187
vn -0.9491 -0.3141 -0.0218
vn -0.7319 -0.6811 -0.0206
vn -0.2589 -0.9658 -0.0158
vn -0.0720 -0.9972 -0.0195
vn -0.0302 0.9995 -0.0046
vn -0.2361 0.9717 -0.0064
vn -0.6671 0.7447 -0.0186
vn -0.8937 0.4481 -0.0219
vn -0.7282 -0.6850 -0.0242
vn -0.2519 -0.9676 -0.0184
vn -0.0642 -0.9977 -0.0208
vn -0.0303 0.9995 -0.0099
vn -0.2429 0.9700 -0.0107
vn -0.6716 0.7404 -0.0286
vn -0.8912 0.4522 -0.0370
vn -0.7288 -0.6838 -0.0355
vn -0.2473 -0.9684 -0.0312
vn -0.0596 -0.9976 -0.0359
vn -0.6983 0.7150 -0.0341
vn -0.8995 0.4336 -0.0533
vn -0.7310 -0.6796 -0.0616
vn -0.2252 -0.9729 -0.0518
vn -0.7150 0.6973 -0.0508
vn -0.9080 0.4130 -0.0699
vn -0.7248 -0.6842 -0.0803
vn -0.7315 -0.6802 -0.0471
vn -0.2329 -0.9718 -0.0383
vn -0.0445 -0.9979 -0.0464
vn -0.6834 0.7294 -0.0313
vn -0.8940 0.4458 -0.0452
vn -0.9478 -0.3179 -0.0239
vn -0.9476 -0.3175 -0.0356
vn -0.9497 -0.3078 -0.0584
vn -0.9505 -0.3006 -0.0789
vn -0.9490 -0.3114 -0.0496
vn -0.6041 0.7928 -0.0809
vn -0.3852 0.4314 0.8158
vn -0.9656 0.2546 -0.0523
vn -0.5747 0.7882 -0.2201
vn -0.7610 -0.1172 -0.6381
vn 0.7452 -0.0044 0.6669
vn 0.6641 -0.2814 -0.6926
vn 0.8267 -0.5102 -0.2372
vn 0.4082 0.3654 0.8366
vn 0.7236 0.6858 -0.0775
vn -0.7705 0.0500 0.6355
vn 0.8342 -0.3875 0.3924
vn 0.7252 0.6501 -0.2267
vn -0.0105 -0.7925 -0.6098
vn -0.8225 -0.1356 -0.5523
vn 0.5675 -0.4843 -0.6659
vn -0.6671 0.2909 0.6858
vn -0.4692 -0.2953 0.8323
vn 0.4631 -0.3667 0.8069
vn 0.6726 0.6130 0.4146
vn -0.4853 0.7718 0.4109
vn -0.7906 -0.5285 -0.3092
vn 0.9980 0.0443 -0.0457
vn 0.7380 0.1309 0.6620
vn -0.9001 -0.1175 0.4195
vn -0.5197 -0.6664 0.5345
vn -0.5260 -0.6318 -0.5694
vn 0.4976 -0.6811 0.5370
vn 0.4240 -0.6986 -0.5763
vn -0.6800 -0.3226 -0.6584
vn 0.6700 -0.3468 -0.6563
vn 0.9812 -0.1164 -0.1542
vn -0.9963 -0.0690 -0.0511
vn 0.0147 -0.9647 0.2628
vn -0.7144 0.6089 -0.3447
vn -0.9000 0.4357 -0.0083
vn -0.6965 0.7091 0.1095
vn -0.9927 0.0893 0.0812
vn 0.0276 -0.9982 0.0525
vn 0.6205 0.6369 -0.4575
vn 0.9043 0.4215 -0.0675
vn 0.5321 0.8389 0.1144
vn 0.9606 0.2644 0.0859
vn 0.0388 -0.9896 0.1389
vn -0.0257 0.9945 -0.1013
vn 0.0001 0.5185 0.8551
vn -0.1830 0.6949 0.6954
vn -0.4901 0.4489 0.7472
vn -0.6087 0.0475 0.7920
vn -0.3091 -0.3854 0.8694
vn -0.0716 -0.4203 0.9045
vn -0.0312 -0.3970 0.9173
vn 0.4947 -0.8633 0.0998
vn -0.5325 0.2317 0.8141
vn -0.4362 -0.8921 0.1180
vn -0.0016 -0.1519 0.9884
vn 0.1712 0.4944 0.8522
vn -0.0533 0.5858 0.8087
vn -0.0054 -0.2696 0.9630
vn -0.0115 -0.4075 0.9131
vn -0.6279 -0.7774 0.0366
vn -0.5088 -0.1734 0.8433
vn -0.5139 -0.2594 0.8177
vn -0.0610 -0.4292 0.9012
vn 0.6621 -0.7491 0.0232
vn 0.0514 0.6458 0.7618
vn 0.0700 -0.9974 -0.0168
vn 0.2607 -0.9653 -0.0132
vn 0.7304 -0.6827 -0.0193
vn 0.9499 -0.3119 -0.0192
vn 0.8930 0.4498 -0.0170
vn 0.6633 0.7483 -0.0112
vn 0.2222 0.9750 -0.0025
vn 0.0816 0.9967 -0.0023
vn 0.0626 -0.9978 -0.0216
vn 0.2533 -0.9672 -0.0194
vn 0.7268 -0.6864 -0.0250
vn 0.9483 -0.3164 -0.0249
vn 0.6687 0.7433 -0.0194
vn 0.2255 0.9742 -0.0055
vn 0.0796 0.9968 -0.0041
vn 0.0570 -0.9978 -0.0339
vn 0.2499 -0.9678 -0.0291
vn 0.7281 -0.6845 -0.0365
vn 0.9472 -0.3186 -0.0375
vn 0.6731 0.7391 -0.0265
vn 0.2333 0.9724 -0.0108
vn 0.0754 0.9971 -0.0095
vn 0.2221 -0.9735 -0.0544
vn 0.7324 -0.6783 -0.0581
vn 0.9489 -0.3099 -0.0593
vn 0.6976 0.7158 -0.0330
vn 0.9501 -0.3024 -0.0770
vn 0.7174 0.6950 -0.0478
vn 0.0400 -0.9981 -0.0466
vn 0.2373 -0.9707 -0.0388
vn 0.7311 -0.6807 -0.0470
vn 0.9483 -0.3135 -0.0487
vn 0.6835 0.7293 -0.0299
vn 0.8933 0.4487 -0.0243
vn 0.8916 0.4516 -0.0329
vn 0.9037 0.4250 -0.0515
vn 0.9115 0.4048 -0.0726
vn 0.8967 0.4404 -0.0441
vn 0.6083 0.7908 -0.0675
vn 0.3829 0.4275 0.8190
vn -0.6614 -0.2807 -0.6956
vn 0.9645 0.2573 -0.0594
vn 0.5722 0.7899 -0.2207
vn 0.7557 -0.1112 -0.6454
vn -0.7426 -0.0048 0.6697
vn -0.8044 -0.5386 -0.2507
vn -0.4141 0.3696 0.8318
vn -0.7180 0.6907 -0.0857
vn 0.7734 0.0466 0.6322
vn -0.8412 -0.3836 0.3811
vn 0.0422 -0.8156 -0.5771
vn -0.7287 0.6473 -0.2236
vn 0.8197 -0.1397 -0.5555
vn -0.5596 -0.4837 -0.6730
vn 0.6704 0.2890 0.6834
vn 0.4738 -0.2954 0.8296
vn -0.4719 -0.3620 0.8039
vn -0.6762 0.6176 0.4016
vn 0.5572 0.7281 0.3993
vn 0.7938 -0.5253 -0.3065
vn -0.9980 0.0451 -0.0435
vn -0.7452 0.1252 0.6549
vn 0.8985 -0.0600 0.4349
vn 0.5281 -0.6673 0.5252
vn 0.5122 -0.6333 -0.5802
vn -0.4875 -0.6823 0.5448
vn -0.4359 -0.6975 -0.5687
vn 0.6829 -0.3215 -0.6560
vn -0.6763 -0.3369 -0.6551
vn 0.9513 -0.2900 -0.1043
vn -0.9496 -0.2903 -0.1186
vn -0.5156 0.8296 -0.2142
vn 0.5248 0.8284 -0.1958
vn -0.6378 -0.7694 -0.0350
vn 0.6338 -0.7730 -0.0269
vn 0.0061 -1.0000 0.0057
vn -0.0035 0.9752 -0.2213
vn -0.0258 0.9499 -0.3114
vn -0.2776 0.9125 -0.3005
vn -0.7145 0.6436 -0.2745
vn -0.8989 0.3753 -0.2262
vn -0.2641 -0.9608 -0.0847
vn -0.0654 -0.9967 -0.0478
vn 0.0748 -0.9959 -0.0501
vn 0.2666 -0.9593 -0.0932
vn 0.9382 -0.2863 -0.1944
vn 0.7162 0.6388 -0.2811
vn 0.2775 0.9144 -0.2947
vn 0.0406 0.9493 -0.3117
vn -0.0347 0.8359 -0.5478
vn -0.2664 0.8038 -0.5318
vn -0.6604 0.5804 -0.4765
vn -0.8389 0.3763 -0.3932
vn -0.7527 -0.5994 -0.2723
vn -0.3137 -0.9449 -0.0935
vn -0.0987 -0.9948 -0.0265
vn 0.1179 -0.9922 -0.0396
vn 0.3066 -0.9473 -0.0929
vn 0.7440 -0.6106 -0.2715
vn 0.8949 -0.2931 -0.3367
vn 0.6744 0.5591 -0.4823
vn 0.2695 0.8004 -0.5355
vn 0.0533 0.8321 -0.5521
vn 0.7906 0.5954 -0.1434
vn -0.8139 0.5464 -0.1978
vn -0.9361 -0.2863 -0.2044
vn 0.8905 0.3817 -0.2477
vn -0.8990 -0.2968 -0.3219
vn 0.8164 0.4178 -0.3987
vn 0.9585 -0.1647 0.2326
vn -0.9606 -0.1547 0.2309
vn 0.6411 -0.6600 0.3916
vn -0.6491 -0.6518 0.3923
vn 0.0009 -0.8856 0.4644
vn 0.3389 -0.8225 0.4568
vn -0.3389 -0.8218 0.4580
vn -0.3725 -0.9079 -0.1921
vn 0.3620 -0.9113 -0.1959
vn -0.9325 -0.3145 0.1775
vn 0.9261 -0.3327 0.1781
vn 0.0012 -0.9707 -0.2403
vn 0.0004 -0.8692 0.4945
vn 0.8366 0.4590 0.2989
vn -0.8517 0.4308 0.2985
vn 0.5267 0.8349 0.1598
vn -0.5430 0.8242 0.1611
vn -0.0007 0.9997 0.0242
vn 0.3573 0.7233 -0.5909
vn -0.3652 0.7231 -0.5863
vn -0.1288 -0.6227 -0.7718
vn 0.6965 -0.6140 -0.3713
vn -0.2913 -0.8342 -0.4682
vn 0.1252 -0.6300 -0.7665
vn -0.6952 -0.6135 -0.3747
vn 0.2914 -0.8335 -0.4694
vn 0.4803 0.8761 -0.0422
vn -0.4874 0.8722 -0.0404
vn 0.8203 0.4817 0.3085
vn -0.9350 -0.3115 0.1696
vn 0.1886 0.5742 -0.7967
vn -0.1874 0.5731 -0.7978
vn -0.1395 -0.5483 -0.8246
vn 0.8891 -0.3405 0.3059
vn -0.1806 -0.9119 -0.3686
vn 0.1371 -0.5473 -0.8256
vn 0.1411 -0.9022 -0.4076
vn -0.8680 -0.3608 0.3412
vn -0.0703 0.9626 -0.2617
vn 0.8257 0.4792 0.2975
vn -0.8412 0.4602 0.2839
vn 0.0869 0.9635 -0.2531
vn 0.9425 -0.2952 0.1565
vn -0.0362 0.0044 -0.9993
vn -0.8215 0.4697 0.3232
vn 0.0274 -0.0037 -0.9996
vn -0.0009 0.9569 -0.2905
vn 0.8599 -0.3229 -0.3954
vn -0.8637 -0.3211 -0.3884
vn 0.7706 -0.4883 -0.4095
vn 0.8681 0.0082 -0.4964
vn -0.0535 0.7669 -0.6395
vn -0.7686 -0.4893 -0.4122
vn 0.0108 -0.5068 -0.8620
vn -0.0005 -0.9741 -0.2260
vn 0.3398 0.7760 -0.5314
vn -0.3435 0.7811 -0.5215
vn 0.0558 0.7577 -0.6503
vn -0.8666 0.0038 -0.4990
vn -0.0046 0.1264 -0.9920
vn 0.8682 0.4950 -0.0344
vn 0.3328 0.9388 0.0892
vn -0.8443 0.5279 -0.0918
vn -0.7564 -0.6463 -0.1006
vn 0.8859 -0.4590 -0.0665
vn 0.7449 0.6554 0.1244
vn 0.0376 0.9989 0.0296
vn 0.2082 -0.9626 0.1735
vn 0.7197 -0.6812 0.1341
vn -0.9941 -0.0921 -0.0572
vn -0.7296 -0.5609 -0.3913
vn -0.7322 0.5699 -0.3730
vn -0.6299 -0.0837 -0.7722
vn -0.1400 -0.8600 -0.4907
vn -0.1605 0.9138 0.3732
vn 0.6465 -0.0556 -0.7609
vn 0.5545 -0.8272 0.0912
vn -0.3354 0.9378 -0.0893
vn -0.9845 0.1713 -0.0374
vn -0.3320 -0.9428 0.0296
vn -0.0148 -0.9999 0.0072
vn -0.2653 -0.8514 0.4525
vn -0.1118 0.9399 -0.3226
vn -0.2619 -0.9636 -0.0537
vn -0.8688 0.4935 -0.0407
vn -0.3313 0.9400 0.0820
vn 0.8450 0.5266 -0.0934
vn 0.7572 -0.6456 -0.0991
vn -0.8863 -0.4582 -0.0674
vn -0.7365 0.6607 0.1450
vn -0.0307 0.9980 0.0561
vn -0.2424 -0.9510 0.1919
vn -0.7226 -0.6718 0.1631
vn 0.9938 -0.0916 -0.0625
vn 0.7297 -0.5607 -0.3914
vn 0.7322 0.5700 -0.3727
vn 0.6300 -0.0835 -0.7721
vn 0.1238 -0.8692 -0.4787
vn 0.1589 0.9101 0.3828
vn -0.6483 -0.0563 -0.7593
vn -0.5564 -0.8255 0.0951
vn 0.3347 0.9377 -0.0931
vn 0.9844 0.1719 -0.0362
vn 0.3726 -0.9273 0.0347
vn 0.0025 -0.9991 0.0412
vn 0.2684 -0.8723 0.4088
vn 0.1191 0.9382 -0.3249
vn 0.2622 -0.9635 -0.0531
vn 0.1667 -0.4178 -0.8931
vn 0.5044 0.1241 -0.8545
vn 0.1440 -0.0504 -0.9883
vn -0.1717 -0.4194 -0.8914
vn -0.5163 0.1219 -0.8477
vn -0.1440 -0.0499 -0.9883
vn 0.7174 0.6852 0.1257
vn 0.0236 0.9959 0.0876
vn 0.0447 -0.9827 -0.1795
vn 0.7138 -0.6983 -0.0533
vn 0.8038 0.5776 0.1424
vn 0.1403 0.9821 0.1255
vn 0.1493 -0.9805 -0.1280
vn 0.7075 -0.7060 0.0307
vn 0.5168 0.5496 0.6564
vn 0.5045 -0.6688 0.5460
vn -0.0881 -0.9230 0.3745
vn -0.0924 0.8557 0.5091
vn -0.9940 0.0787 -0.0761
vn 0.0578 -0.1145 0.9917
vn 0.0655 0.9859 0.1543
vn -0.9674 0.2120 -0.1385
vn -0.9837 0.0049 -0.1798
vn -0.8347 0.5503 0.0229
vn -0.9152 -0.3995 -0.0518
vn -0.9529 -0.0817 0.2919
vn -0.9438 0.0117 0.3304
vn -0.5735 -0.1084 0.8120
vn -0.7276 0.6688 0.1526
vn -0.0142 0.9918 0.1272
vn -0.0592 -0.9792 -0.1941
vn -0.7169 -0.6940 -0.0674
vn -0.8039 0.5772 0.1435
vn -0.1405 0.9821 0.1254
vn -0.1535 -0.9780 -0.1413
vn -0.7069 -0.7069 0.0250
vn -0.5152 0.5490 0.6582
vn -0.5046 -0.6695 0.5451
vn 0.0878 -0.9251 0.3694
vn 0.0928 0.8516 0.5160
vn 0.9939 0.0760 -0.0796
vn 0.5801 -0.1079 0.8074
vn -0.0584 0.9718 0.2286
vn 0.9679 0.2122 -0.1345
vn 0.9823 0.0058 -0.1872
vn 0.8346 0.5504 0.0215
vn 0.9142 -0.4012 -0.0580
vn 0.9534 -0.0813 0.2904
vn 0.9468 0.0133 0.3217
vn -0.0568 -0.1254 0.9905
vn -0.0226 0.9997 -0.0104
vn -0.2520 0.9677 -0.0101
vn -0.0303 -0.9984 -0.0480
vn 0.0307 -0.9981 -0.0542
vn 0.2424 0.9701 -0.0079
vn 0.0544 0.9985 -0.0065
vn -0.0267 0.9996 -0.0066
vn -0.2635 0.9646 -0.0143
vn -0.2323 -0.9703 -0.0668
vn -0.0472 -0.9972 -0.0577
vn 0.0518 -0.9971 -0.0558
vn 0.2263 -0.9716 -0.0691
vn 0.7257 -0.6828 -0.0846
vn 0.2589 0.9659 -0.0080
vn 0.0459 0.9989 -0.0026
vn -0.0305 0.9959 -0.0856
vn -0.2819 0.9560 -0.0812
vn -0.7352 0.6693 -0.1073
vn -0.9080 0.3978 -0.1316
vn -0.7302 -0.6736 -0.1144
vn -0.2441 -0.9673 -0.0691
vn -0.0560 -0.9973 -0.0475
vn 0.0614 -0.9969 -0.0491
vn 0.2434 -0.9672 -0.0721
vn 0.7280 -0.6752 -0.1186
vn 0.9454 -0.2976 -0.1330
vn 0.7359 0.6674 -0.1141
vn 0.2830 0.9548 -0.0908
vn 0.0421 0.9951 -0.0895
vn -0.7361 -0.6521 -0.1815
vn 0.7285 -0.6609 -0.1803
vn 0.2373 0.9714 -0.0099
vn 0.0657 0.9978 -0.0105
vn -0.0270 0.9996 -0.0115
vn -0.2473 0.9689 -0.0109
vn -0.9476 -0.2925 -0.1287
vn 0.9121 0.3888 -0.1300
vn 0.0606 0.1298 0.9897
vn 0.3363 0.4086 0.8485
vn 0.6985 0.3530 -0.6225
vn 0.4993 -0.8662 -0.0191
vn -0.2692 0.3112 -0.9114
vn 0.7709 -0.6339 -0.0616
vn -0.4509 -0.2476 0.8575
vn -0.6393 0.4093 0.6510
vn -0.2998 0.6933 -0.6553
vn -0.7382 -0.6675 -0.0975
vn 0.7793 -0.5548 -0.2914
vn -0.4620 -0.8653 -0.1943
vn -0.9655 -0.2579 -0.0353
vn 0.9694 -0.2311 -0.0829
vn 0.9386 0.1108 -0.3268
vn -0.9555 -0.2707 0.1169
vn 0.9718 -0.2339 0.0311
vn -0.9361 0.1252 -0.3287
vn -0.4860 -0.8663 0.1156
vn 0.6378 -0.7551 0.1520
vn 0.3851 -0.4827 0.7865
vn 0.8345 -0.5399 0.1102
vn -0.3835 -0.9235 -0.0116
vn -0.6444 -0.7500 0.1494
vn -0.4147 -0.5949 0.6886
vn -0.3841 -0.4843 0.7860
vn -0.8337 -0.5413 0.1093
vn -0.9034 -0.4281 0.0261
vn -0.7300 -0.6670 0.1492
vn -0.0004 -0.9998 0.0216
vn 0.7345 -0.6640 0.1400
vn 0.3874 -0.9219 -0.0107
vn 0.4102 -0.5645 0.7163
vn 0.9041 -0.4264 0.0262
vn -0.5031 -0.3433 -0.7931
vn 0.6281 -0.0674 -0.7752
vn 0.8315 0.5193 -0.1973
vn -0.8222 0.5476 -0.1556
vn 0.8025 -0.0119 -0.5966
vn -0.7897 -0.0264 -0.6129
vn 0.9383 -0.3382 -0.0717
vn -0.9116 -0.4060 0.0650
vn 0.0870 0.9962 0.0017
vn -0.3420 0.9397 0.0068
vn 0.0071 0.5362 0.8441
vn 0.7590 -0.5910 0.2734
vn -0.7205 -0.6473 0.2489
vn -0.7865 -0.4261 -0.4471
vn 0.8096 -0.4422 -0.3860
vn 0.9309 0.3583 0.0707
vn -0.9303 0.3621 0.0586
vn 0.5403 0.1945 0.8187
vn -0.5411 0.1933 0.8184
vn 0.3881 -0.6369 -0.6661
vn 0.5074 -0.8614 -0.0237
vn -0.5046 -0.8629 -0.0276
vn 0.9160 -0.3901 0.0936
vn -0.8739 -0.4313 0.2242
vn 0.6512 -0.7443 0.1482
vn -0.6465 -0.7489 0.1455
vn 0.0359 -0.7245 0.6883
vn 0.7054 -0.4441 0.5524
vn 0.8782 0.3370 0.3395
vn 0.0218 0.8328 -0.5531
vn 0.7099 0.0807 -0.6997
vn 0.6803 0.7329 -0.0019
vn -0.5923 0.7828 0.1908
vn 0.7772 0.6293 -0.0048
vn 0.6941 -0.7158 -0.0773
vn -0.6198 -0.7802 0.0843
vn -0.7024 0.5944 0.3915
vn 0.8250 0.3776 -0.4204
vn 0.8129 -0.1287 -0.5680
vn -0.8444 -0.4791 -0.2396
vn -0.7165 -0.6872 0.1201
vn 0.2567 0.8177 0.5153
vn -0.2435 -0.5985 0.7633
vn -0.5258 -0.3187 0.7887
vn 0.5923 0.7828 0.1908
vn -0.7772 0.6293 -0.0048
vn -0.6941 -0.7158 -0.0773
vn 0.6198 -0.7802 0.0843
vn 0.7024 0.5944 0.3915
vn -0.8250 0.3776 -0.4204
vn -0.8129 -0.1287 -0.5680
vn 0.8444 -0.4791 -0.2396
vn 0.7165 -0.6872 0.1201
vn -0.2567 0.8177 0.5153
vn 0.2435 -0.5985 0.7633
vn 0.5258 -0.3187 0.7887
vt 0.572628 0.218366
vt 0.568917 0.195098
vt 0.548351 0.223166
vt 0.587409 0.078929
vt 0.557086 0.065081
vt 0.845387 0.065195
vt 0.812978 0.072255
vt 0.848683 0.220296
vt 0.636239 0.218305
vt 0.660617 0.223193
vt 0.640508 0.194555
vt 0.650543 0.065083
vt 0.624988 0.078938
vt 0.788973 0.065195
vt 0.784017 0.221621
vt 0.605694 0.197836
vt 0.814935 0.216458
vt 0.650333 0.053666
vt 0.630511 0.017945
vt 0.625414 0.052827
vt 0.757496 0.010208
vt 0.789166 0.053714
vt 0.789702 0.038066
vt 0.840240 0.046176
vt 0.813751 0.054173
vt 0.831708 0.033760
vt 0.791772 0.028516
vt 0.563219 -0.001490
vt 0.557271 0.006890
vt 0.588410 0.008329
vt 0.848412 0.010208
vt 0.845195 0.053713
vt 0.587220 0.052817
vt 0.586683 0.017937
vt 0.557292 0.053662
vt 0.631436 -0.001320
vt 0.588169 -0.001330
vt 0.628860 0.008341
vt 0.774024 0.001682
vt 0.832544 0.001682
vt 0.653261 -0.001380
vt 0.794117 0.010728
vt 0.793867 0.019347
vt 0.822493 0.021690
vt 0.812687 0.011494
vt 0.793020 0.001552
vt 0.814363 0.001550
vt 0.815640 0.226684
vt 0.477919 0.218402
vt 0.511373 0.223153
vt 0.484390 0.195299
vt 0.500274 0.065150
vt 0.470336 0.078998
vt 0.887474 0.065272
vt 0.880083 0.220294
vt 0.913992 0.072332
vt 0.421553 0.218339
vt 0.413600 0.194752
vt 0.387160 0.223184
vt 0.431145 0.079005
vt 0.404806 0.065149
vt 0.941180 0.065272
vt 0.940540 0.220314
vt 0.447991 0.198141
vt 0.911737 0.216390
vt 0.892290 0.046205
vt 0.941591 0.038094
vt 0.901129 0.033722
vt 0.940586 0.028478
vt 0.965937 0.010312
vt 0.426833 -0.001230
vt 0.426326 0.008441
vt 0.478543 0.008433
vt 0.479327 0.018049
vt 0.404802 0.053749
vt 0.430690 0.052912
vt 0.425421 0.018053
vt 0.913273 0.054270
vt 0.497270 0.006986
vt 0.497098 -0.001390
vt 0.470496 0.052904
vt 0.887873 0.053808
vt 0.875485 0.010312
vt 0.941183 0.053809
vt 0.952277 0.001785
vt 0.893460 0.001785
vt 0.404333 -0.001290
vt 0.499840 0.053750
vt 0.477439 -0.001230
vt 0.932108 0.019310
vt 0.931185 0.010690
vt 0.932946 0.001656
vt 0.912615 0.011456
vt 0.911603 0.001654
vt 0.904952 0.021652
vt 0.911012 0.225179
vt 0.918133 0.728927
vt 0.995177 0.814930
vt 0.970871 0.731797
vt 0.793650 0.728927
vt 0.742950 0.731495
vt 0.712687 0.814930
vt 0.855891 0.727672
vt 0.930140 0.778247
vt 0.781657 0.778247
vt 0.855896 0.792095
vt 0.367021 0.810585
vt 0.426500 0.840526
vt 0.466247 0.730095
vt 0.431341 0.727916
vt 0.679723 0.810600
vt 0.588000 0.729926
vt 0.628128 0.840538
vt 0.626985 0.727625
vt 0.527050 0.845295
vt 0.527127 0.730036
vt 0.855539 0.823611
vt 0.882284 0.908663
vt 0.931640 0.825302
vt 0.893428 0.933255
vt 0.947273 0.932098
vt 0.927536 0.799856
vt 0.965611 0.820101
vt 0.828428 0.908648
vt 0.742357 0.874133
vt 0.767255 0.905643
vt 0.817044 0.933186
vt 0.764968 0.932086
vt 0.779433 0.825302
vt 0.784282 0.799856
vt 0.746886 0.820101
vt 0.855912 0.801565
vt 0.971076 0.874051
vt 0.713635 0.861162
vt 0.366713 0.856606
vt 0.409088 0.870158
vt 0.644881 0.870226
vt 0.527997 0.933262
vt 0.630414 0.902448
vt 0.422955 0.902519
vt 0.486889 0.928335
vt 0.944982 0.905658
vt 0.427864 0.924159
vt 0.568353 0.928274
vt 0.823340 0.990794
vt 0.855014 0.983762
vt 0.896892 0.995722
vt 0.886698 0.990794
vt 0.553169 0.987206
vt 0.502856 0.987390
vt 0.812871 0.995379
vt 0.855671 1.000134
vt 0.527157 0.996142
vt 0.994827 0.861181
vt 0.625455 0.926490
vt 0.680146 0.856605
vt 0.071285 0.180143
vt 0.036094 0.189931
vt 0.042593 0.245511
vt 0.084474 0.245232
vt 0.116779 0.181681
vt 0.127182 0.240636
vt 0.135515 0.197564
vt 0.148751 0.240023
vt 0.099669 0.053674
vt 0.118322 0.054772
vt 0.075697 0.057692
vt 0.056401 0.058758
vt 0.262778 0.199521
vt 0.299052 0.197564
vt 0.302288 0.240023
vt 0.236130 0.245511
vt 0.219631 0.189931
vt 0.229938 0.058758
vt 0.271860 0.054772
vt 0.087064 0.050098
vt 0.250601 0.050098
vt 0.035893 0.287598
vt 0.035798 0.416405
vt 0.085262 0.256035
vt 0.166599 0.408857
vt 0.128464 0.259442
vt 0.134544 0.420050
vt 0.149986 0.260523
vt 0.320137 0.408857
vt 0.288611 0.408890
vt 0.303523 0.260523
vt 0.245509 0.411417
vt 0.217808 0.287598
vt 0.238075 0.256042
vt 0.080592 0.419959
vt 0.044538 0.256042
vt 0.290940 0.447897
vt 0.167686 0.451250
vt 0.107755 0.469958
vt 0.164569 0.484612
vt 0.269784 0.468228
vt 0.296806 0.496347
vt 0.251515 0.447485
vt 0.275580 0.500384
vt 0.221087 0.480500
vt 0.218768 0.450097
vt 0.251590 0.502419
vt 0.035231 0.450097
vt 0.104594 0.426510
vt 0.037550 0.480500
vt 0.332913 0.451250
vt 0.219336 0.416405
vt 0.140357 0.245815
vt 0.071732 0.862433
vt 0.044354 0.797033
vt 0.036472 0.852559
vt 0.086289 0.797401
vt 0.117227 0.860834
vt 0.127494 0.801933
vt 0.135883 0.844841
vt 0.149019 0.802466
vt 0.100263 0.988859
vt 0.118886 0.987717
vt 0.076285 0.984877
vt 0.056960 0.983764
vt 0.263117 0.842877
vt 0.302556 0.802466
vt 0.299420 0.844840
vt 0.237891 0.797032
vt 0.220010 0.852559
vt 0.230497 0.983764
vt 0.272423 0.987717
vt 0.250800 0.992427
vt 0.087262 0.992427
vt 0.036143 0.754934
vt 0.087006 0.786451
vt 0.035874 0.626148
vt 0.080679 0.622612
vt 0.134629 0.622450
vt 0.130214 0.783001
vt 0.166671 0.633583
vt 0.151686 0.781836
vt 0.320208 0.633583
vt 0.305223 0.781836
vt 0.288642 0.633497
vt 0.239766 0.786360
vt 0.245546 0.631050
vt 0.219341 0.754933
vt 0.046229 0.786360
vt 0.218756 0.592476
vt 0.251473 0.594956
vt 0.167669 0.591231
vt 0.107855 0.573020
vt 0.035219 0.592476
vt 0.290891 0.594483
vt 0.332895 0.591230
vt 0.269729 0.574190
vt 0.104688 0.616045
vt 0.038181 0.563169
vt 0.251595 0.540080
vt 0.275651 0.542085
vt 0.296808 0.546083
vt 0.337267 0.557422
vt 0.219411 0.626148
vt 0.141363 0.796655
vt 0.164735 0.557422
vt 0.221719 0.563169
vt 0.337101 0.484611
vt 0.402568 0.006983
vt 0.653695 0.006892
vt 0.114087 0.544800
vt 0.116578 0.550470
vt 0.122079 0.548123
vt 0.110384 0.539867
vt 0.119122 0.539802
vt 0.110438 0.535460
vt 0.131061 0.539825
vt 0.121866 0.543549
vt 0.131116 0.543374
vt 0.142431 0.543298
vt 0.141774 0.545069
vt 0.129863 0.544994
vt 0.129791 0.548355
vt 0.140628 0.548424
vt 0.121894 0.544888
vt 0.110171 0.547996
vt 0.110227 0.544807
vt 0.098267 0.547707
vt 0.106345 0.544665
vt 0.098565 0.544481
vt 0.090668 0.544310
vt 0.090668 0.547672
vt 0.078724 0.543968
vt 0.079739 0.547361
vt 0.078447 0.543298
vt 0.089957 0.543374
vt 0.078502 0.539715
vt 0.090011 0.539825
vt 0.099211 0.543549
vt 0.101957 0.539802
vt 0.105908 0.543602
vt 0.110387 0.543667
vt 0.115171 0.543602
vt 0.590632 0.317672
vt 0.591644 0.229758
vt 0.538724 0.229786
vt 0.538734 0.317696
vt 0.651975 0.317578
vt 0.653964 0.229667
vt 0.685421 0.317867
vt 0.686553 0.229354
vt 0.730774 0.318605
vt 0.728059 0.230181
vt 0.686638 0.230344
vt 0.686173 0.318161
vt 0.786078 0.318554
vt 0.784961 0.230129
vt 0.833645 0.318536
vt 0.833644 0.230107
vt 0.878518 0.318536
vt 0.878522 0.230107
vt 0.925762 0.318554
vt 0.926879 0.230129
vt 0.972024 0.318605
vt 0.971509 0.230180
vt 0.996935 0.318760
vt 0.997788 0.230344
vt 0.401200 0.317562
vt 0.399191 0.229650
vt 0.359384 0.229333
vt 0.362070 0.317246
vt 0.462867 0.317664
vt 0.461835 0.229750
vt 0.502255 0.317687
vt 0.502242 0.229775
vt 0.589328 0.391451
vt 0.538742 0.391471
vt 0.648480 0.391363
vt 0.686309 0.391871
vt 0.733318 0.392815
vt 0.686767 0.392157
vt 0.787513 0.392770
vt 0.833646 0.392759
vt 0.878516 0.392759
vt 0.924328 0.392770
vt 0.971096 0.392814
vt 0.997166 0.392972
vt 0.404712 0.391347
vt 0.363875 0.391036
vt 0.464187 0.391443
vt 0.502264 0.391462
vt 0.587426 0.521970
vt 0.588221 0.466121
vt 0.538750 0.466136
vt 0.538757 0.521978
vt 0.641697 0.521877
vt 0.644599 0.466029
vt 0.680188 0.522609
vt 0.684937 0.466755
vt 0.740359 0.524088
vt 0.736910 0.467912
vt 0.685612 0.467036
vt 0.681610 0.523209
vt 0.790592 0.524049
vt 0.788735 0.467869
vt 0.833651 0.524052
vt 0.833649 0.467864
vt 0.878508 0.524052
vt 0.878511 0.467863
vt 0.921252 0.524049
vt 0.923108 0.467869
vt 0.971808 0.524087
vt 0.973804 0.467912
vt 0.995522 0.524240
vt 0.998437 0.468067
vt 0.411525 0.521862
vt 0.408611 0.466014
vt 0.366427 0.465704
vt 0.368261 0.521558
vt 0.466121 0.521962
vt 0.465313 0.466114
vt 0.502287 0.521972
vt 0.502278 0.466128
vt 0.586478 0.580939
vt 0.538763 0.580073
vt 0.638110 0.582503
vt 0.678439 0.588106
vt 0.745222 0.594798
vt 0.682844 0.588800
vt 0.793698 0.596754
vt 0.833653 0.597586
vt 0.878503 0.597586
vt 0.918149 0.596754
vt 0.966948 0.594797
vt 0.995102 0.589971
vt 0.415127 0.582489
vt 0.367758 0.586916
vt 0.467082 0.580931
vt 0.502296 0.580231
vt 0.585035 0.635788
vt 0.538769 0.635796
vt 0.632706 0.635681
vt 0.677047 0.635393
vt 0.750028 0.638574
vt 0.696752 0.638707
vt 0.795629 0.638538
vt 0.833655 0.638529
vt 0.878499 0.638529
vt 0.916219 0.638538
vt 0.962144 0.638574
vt 0.994450 0.638707
vt 0.420544 0.635668
vt 0.380580 0.635375
vt 0.468538 0.635780
vt 0.502308 0.635795
vt 0.584419 0.664362
vt 0.538774 0.666063
vt 0.628056 0.662306
vt 0.669896 0.660223
vt 0.753855 0.660612
vt 0.703352 0.663682
vt 0.797073 0.658744
vt 0.833656 0.658303
vt 0.878496 0.658303
vt 0.914776 0.658743
vt 0.958318 0.660612
vt 0.992208 0.663682
vt 0.425202 0.662293
vt 0.387737 0.660206
vt 0.469164 0.664355
vt 0.502318 0.665922
vt 0.581735 0.694679
vt 0.538513 0.695495
vt 0.617112 0.692903
vt 0.657497 0.690800
vt 0.763953 0.690997
vt 0.714795 0.694446
vt 0.800085 0.687878
vt 0.833658 0.686455
vt 0.878489 0.686455
vt 0.911767 0.687878
vt 0.948223 0.690997
vt 0.980762 0.694445
vt 0.436164 0.692891
vt 0.400146 0.690785
vt 0.471869 0.694672
vt 0.502876 0.695395
vt 0.110252 0.550375
vt 0.114096 0.552864
vt 0.885065 0.576428
vt 0.848378 0.717557
vt 0.924389 0.860057
vt 0.663106 0.745258
vt 0.770361 0.860188
vt 0.243809 0.290626
vt 0.247549 0.189457
vt 0.255578 0.228157
vt 0.127474 0.369075
vt 0.215767 0.345663
vt 0.119383 0.159975
vt 0.001085 0.090787
vt 0.716677 0.928877
vt 0.582116 0.851091
vt 0.062195 0.827535
vt -0.075611 0.860057
vt -0.067589 0.993679
vt 0.166292 0.701863
vt 0.122872 0.586485
vt 0.876306 0.369879
vt 0.758812 0.232082
vt 0.789827 0.342169
vt 0.761528 0.291258
vt 0.757564 0.530525
vt 0.815743 0.462233
vt 0.247857 0.529862
vt 0.188349 0.461441
vt 0.443993 0.851737
vt 0.422121 0.962343
vt 0.549111 0.948944
vt 0.342823 0.724246
vt 0.269683 0.848956
vt 0.617215 0.325904
vt 0.535061 0.026625
vt 0.528766 0.288937
vt 0.497773 0.324131
vt 0.480302 0.288797
vt 0.491517 0.484691
vt 0.391391 0.325356
vt 0.474470 0.026464
vt 0.478819 0.455101
vt 0.411507 0.543693
vt 0.373612 0.451352
vt 0.504349 0.563706
vt 0.504477 0.278512
vt 0.439226 0.725239
vt 0.565973 0.728649
vt 0.596928 0.544199
vt 0.498087 0.296425
vt 0.517818 0.484767
vt 0.510712 0.324178
vt 0.510279 0.296468
vt 0.634655 0.451944
vt 0.530642 0.455240
vt -0.242281 0.190022
vt -0.111483 0.163390
vt 0.062829 0.410716
vt -0.059536 0.409665
vt 0.609053 0.075702
vt 0.757719 0.190022
vt 0.401610 0.075380
vt 0.636072 0.667663
vt 0.370326 0.665576
vt 0.932411 0.993679
vt 0.940464 0.409665
vt 0.888517 0.163390
vt 0.200000 0.400000
vt 0.250000 0.400000
vt 0.250000 0.300000
vt 0.200000 0.300000
vt 0.250000 0.350000
vt 0.250000 0.250000
vt 0.200000 0.350000
vt 0.200000 0.250000
vt 0.180000 0.220000
vt 0.200000 0.150000
vt 0.230000 0.150000
vt 0.260000 0.150000
s 1
usemtl npc_ningsih_mat.001
f 4/1/4 5/2/5 2/3/2
f 5/2/5 6/4/6 7/5/7
f 2/3/2 5/2/5 7/5/7
f 29/6/29 8/7/8 25/8/25
f 9/9/9 1/10/1 10/11/10
f 10/11/10 12/12/12 11/13/11
f 1/10/1 12/12/12 10/11/10
f 32/14/32 23/15/23 8/7/8
f 14/16/14 9/9/9 10/11/10
f 9/9/9 14/16/14 4/1/4
f 11/13/11 14/16/14 10/11/10
f 6/4/6 14/16/14 11/13/11
f 8/7/8 23/15/23 13/17/13
f 25/8/25 8/7/8 13/17/13
f 5/2/5 4/1/4 14/16/14
f 6/4/6 5/2/5 14/16/14
f 76/18/76 74/19/74 77/20/77
f 90/21/90 95/22/95 88/23/88
f 89/24/89 88/23/88 87/25/87
f 80/26/80 78/27/78 88/23/88
f 92/28/92 85/29/85 93/30/93
f 97/31/97 89/24/89 81/32/81
f 86/33/86 83/34/83 96/35/96
f 75/36/75 82/37/82 93/30/93
f 83/34/83 74/19/74 94/38/94
f 77/20/77 74/19/74 83/34/83
f 84/39/84 90/21/90 78/27/78
f 84/39/84 79/40/79 97/31/97
f 79/40/79 80/26/80 97/31/97
f 88/23/88 78/27/78 90/21/90
f 85/29/85 92/28/92 91/41/91
f 97/31/97 80/26/80 89/24/89
f 92/28/92 75/36/75 91/41/91
f 100/42/100 84/39/84 103/43/103
f 104/44/104 103/43/103 80/26/80
f 104/44/104 100/42/100 103/43/103
f 102/45/102 99/46/99 100/42/100
f 101/47/101 99/46/99 102/45/102
f 79/40/79 101/47/101 102/45/102
f 104/44/104 79/40/79 102/45/102
f 99/46/99 101/47/101 79/40/79
f 103/43/103 84/39/84 78/27/78
f 99/46/99 79/40/79 84/39/84
f 77/20/77 83/34/83 86/33/86
f 89/24/89 87/25/87 81/32/81
f 99/46/99 84/39/84 100/42/100
f 103/43/103 78/27/78 80/26/80
f 102/45/102 100/42/100 104/44/104
f 80/26/80 79/40/79 104/44/104
f 81/32/81 8/7/8 29/6/29
f 81/32/81 87/25/87 8/7/8
f 96/35/96 7/5/7 6/4/6
f 86/33/86 96/35/96 6/4/6
f 95/22/95 32/14/32 8/7/8
f 87/25/87 95/22/95 8/7/8
f 11/13/11 12/12/12 76/18/76
f 77/20/77 11/13/11 76/18/76
f 6/4/6 11/13/11 77/20/77
f 86/33/86 6/4/6 77/20/77
f 13/17/13 3/48/3 25/8/25
f 13/17/13 23/15/23 3/48/3
f 108/49/108 106/50/106 109/51/109
f 109/51/109 111/52/111 110/53/110
f 106/50/106 111/52/111 109/51/109
f 136/54/134 129/55/128 112/56/112
f 113/57/113 114/58/114 105/59/105
f 114/58/114 115/60/115 116/61/116
f 105/59/105 114/58/114 116/61/116
f 140/62/138 112/56/112 127/63/126
f 118/64/118 114/58/114 113/57/113
f 113/57/113 108/49/108 118/64/118
f 115/60/115 114/58/114 118/64/118
f 110/53/110 115/60/115 118/64/118
f 112/56/112 117/65/117 127/63/126
f 129/55/128 117/65/117 112/56/112
f 109/51/109 118/64/118 108/49/108
f 110/53/110 118/64/118 109/51/109
f 196/66/193 195/67/192 183/68/180
f 186/69/183 195/67/192 197/70/194
f 182/71/179 201/72/198 200/73/197
f 190/74/187 200/73/197 201/72/198
f 184/75/181 185/76/182 181/77/178
f 185/76/182 190/74/187 181/77/178
f 195/67/192 196/66/193 193/78/190
f 200/73/197 192/79/189 199/80/196
f 185/76/182 194/81/191 190/74/187
f 188/82/185 196/66/193 204/83/201
f 197/70/194 195/67/192 202/84/199
f 191/85/188 204/83/201 187/86/184
f 187/86/184 204/83/201 183/68/180
f 201/72/198 198/87/195 181/77/178
f 204/83/201 191/85/188 197/70/194
f 192/79/189 190/74/187 203/88/200
f 189/89/186 199/80/196 182/71/179
f 210/90/207 183/68/180 186/69/183
f 191/85/188 207/91/204 210/90/207
f 206/92/203 209/93/206 207/91/204
f 209/93/206 206/92/203 208/94/205
f 187/86/184 209/93/206 208/94/205
f 211/95/208 187/86/184 183/68/180
f 209/93/206 211/95/208 207/91/204
f 187/86/184 208/94/205 206/92/203
f 206/92/203 207/91/204 191/85/188
f 206/92/203 191/85/188 187/86/184
f 195/67/192 193/78/190 202/84/199
f 194/81/191 203/88/200 190/74/187
f 207/91/204 211/95/208 210/90/207
f 191/85/188 210/90/207 186/69/183
f 209/93/206 187/86/184 211/95/208
f 211/95/208 183/68/180 210/90/207
f 184/75/181 115/60/115 185/76/182
f 184/75/181 116/61/116 115/60/115
f 112/56/112 140/62/138 202/84/199
f 193/78/190 112/56/112 202/84/199
f 188/82/185 112/56/112 193/78/190
f 188/82/185 136/54/134 112/56/112
f 110/53/110 111/52/111 203/88/200
f 194/81/191 110/53/110 203/88/200
f 185/76/182 110/53/110 194/81/191
f 185/76/182 115/60/115 110/53/110
f 117/65/117 107/96/107 127/63/126
f 117/65/117 129/55/128 107/96/107
f 217/97/214 252/98/249 212/99/209
f 216/100/213 213/101/210 253/102/250
f 218/103/215 254/104/251 217/97/214
f 216/100/213 253/102/250 255/105/252
f 218/103/215 255/105/252 256/106/253
f 217/97/214 254/104/251 252/98/249
f 218/103/215 216/100/213 255/105/252
f 218/103/215 256/106/253 254/104/251
f 265/107/262 267/108/264 215/109/212
f 246/110/243 265/107/262 215/109/212
f 266/111/263 214/112/211 268/113/265
f 247/114/244 214/112/211 266/111/263
f 215/109/212 267/108/264 269/115/266
f 214/112/211 219/116/216 269/115/266
f 214/112/211 269/115/266 268/113/265
f 263/117/260 277/118/274 260/119/257
f 277/118/274 299/120/296 360/121/357
f 257/122/254 262/123/259 254/104/251
f 274/124/271 276/125/273 272/126/269
f 300/127/297 274/124/271 363/128/360
f 259/129/256 258/130/255 261/131/258
f 258/130/255 263/117/260 264/132/261
f 264/132/261 256/106/253 258/130/255
f 256/106/253 257/122/254 254/104/251
f 258/130/255 255/105/252 261/131/258
f 260/119/257 277/118/274 273/133/270
f 262/123/259 260/119/257 273/133/270
f 276/125/273 259/129/256 261/131/258
f 276/125/273 253/102/250 281/134/278
f 255/105/252 258/130/255 256/106/253
f 274/124/271 277/118/274 263/117/260
f 274/124/271 259/129/256 276/125/273
f 262/123/259 257/122/254 260/119/257
f 257/122/254 264/132/261 263/117/260
f 280/135/277 278/136/275 265/107/262
f 279/137/276 266/111/263 268/113/265
f 267/108/264 278/136/275 269/115/266
f 278/136/275 298/138/295 269/115/266
f 279/137/276 298/138/295 271/139/268
f 279/137/276 269/115/266 298/138/295
f 255/105/252 253/102/250 261/131/258
f 253/102/250 276/125/273 261/131/258
f 252/98/249 262/123/259 273/133/270
f 254/104/251 262/123/259 252/98/249
f 270/140/267 307/141/304 298/138/295
f 277/118/274 275/142/272 273/133/270
f 274/124/271 272/126/269 363/128/360
f 361/143/358 307/141/304 270/140/267
f 271/139/268 298/138/295 308/144/305
f 304/145/301 306/146/303 274/124/271
f 306/146/303 277/118/274 274/124/271
f 302/147/299 299/120/296 301/148/298
f 299/120/296 277/118/274 301/148/298
f 303/149/300 298/138/295 309/150/306
f 308/144/305 298/138/295 303/149/300
f 304/145/301 300/127/297 310/151/307
f 304/145/301 274/124/271 300/127/297
f 301/148/298 306/146/303 305/152/302
f 311/153/308 303/149/300 309/150/306
f 301/148/298 305/152/302 302/147/299
f 304/145/301 310/151/307 305/152/302
f 298/138/295 307/141/304 309/150/306
f 306/146/303 301/148/298 277/118/274
f 306/146/303 304/145/301 305/152/302
f 278/136/275 267/108/264 265/107/262
f 270/140/267 298/138/295 278/136/275
f 268/113/265 269/115/266 279/137/276
f 277/118/274 360/121/357 275/142/272
f 294/154/291 252/98/249 273/133/270
f 308/144/305 364/155/361 271/139/268
f 296/156/293 266/111/263 279/137/276
f 373/157/370 372/158/369 368/159/365
f 368/159/365 369/160/366 373/157/370
f 370/161/367 373/157/370 369/160/366
f 369/160/366 366/162/363 370/161/367
f 371/163/368 370/161/367 366/162/363
f 366/162/363 367/164/364 371/163/368
f 371/163/368 374/165/371 370/161/367
f 377/166/374 374/165/371 371/163/368
f 370/161/367 375/167/372 373/157/370
f 374/165/371 375/167/372 370/161/367
f 373/157/370 376/168/373 372/158/369
f 375/167/372 376/168/373 373/157/370
f 378/169/375 383/170/380 381/171/378
f 382/172/379 378/169/375 381/171/378
f 384/173/381 378/169/375 382/172/379
f 385/174/382 386/175/383 378/169/375
f 378/169/375 384/173/381 385/174/382
f 378/169/375 386/175/383 383/170/380
f 376/168/373 375/167/372 379/176/376
f 386/175/383 385/174/382 387/177/384
f 374/165/371 379/176/376 375/167/372
f 374/165/371 377/166/374 379/176/376
f 319/178/316 328/179/325 320/180/317
f 313/181/310 317/182/314 312/183/309
f 317/182/314 313/181/310 318/184/315
f 329/185/326 314/186/311 330/187/327
f 315/188/312 331/189/328 321/190/318
f 315/188/312 321/190/318 314/186/311
f 330/187/327 314/186/311 321/190/318
f 328/179/325 316/191/313 320/180/317
f 320/180/317 332/192/329 319/178/316
f 329/185/326 323/193/320 314/186/311
f 326/194/323 297/195/294 292/196/289
f 312/183/309 326/194/323 313/181/310
f 324/197/321 323/193/320 283/198/280
f 322/199/319 314/186/311 323/193/320
f 324/197/321 322/199/319 323/193/320
f 365/200/362 324/197/321 283/198/280
f 288/201/285 325/202/322 284/203/281
f 315/188/312 314/186/311 322/199/319
f 284/203/281 325/202/322 322/199/319
f 328/179/325 333/204/330 316/191/313
f 327/205/324 317/182/314 320/180/317
f 320/180/317 316/191/313 327/205/324
f 289/206/286 297/195/294 333/204/330
f 327/205/324 316/191/313 297/195/294
f 326/194/323 312/183/309 297/195/294
f 322/199/319 325/202/322 315/188/312
f 323/193/320 329/185/326 334/207/331
f 284/203/281 324/197/321 365/200/362
f 312/183/309 317/182/314 327/205/324
f 312/183/309 327/205/324 297/195/294
f 315/188/312 335/208/332 331/189/328
f 315/188/312 325/202/322 335/208/332
f 368/159/365 332/192/329 320/180/317
f 369/160/366 368/159/365 320/180/317
f 369/160/366 320/180/317 317/182/314
f 366/162/363 369/160/366 317/182/314
f 380/209/377 317/182/314 318/184/315
f 367/164/364 366/162/363 380/209/377
f 382/172/379 381/171/378 330/187/327
f 321/190/318 382/172/379 330/187/327
f 366/162/363 317/182/314 380/209/377
f 367/164/364 380/209/377 318/184/315
f 395/210/392 390/211/387 394/212/391
f 390/211/387 395/210/392 391/213/388
f 392/214/389 391/213/388 395/210/392
f 391/213/388 392/214/389 388/215/385
f 393/216/390 388/215/385 392/214/389
f 388/215/385 393/216/390 389/217/386
f 393/216/390 392/214/389 396/218/393
f 399/219/396 393/216/390 396/218/393
f 392/214/389 395/210/392 397/220/394
f 396/218/393 392/214/389 397/220/394
f 395/210/392 394/212/391 398/221/395
f 397/220/394 395/210/392 398/221/395
f 400/222/397 403/223/400 405/224/402
f 404/225/401 403/223/400 400/222/397
f 406/226/403 404/225/401 400/222/397
f 407/227/404 400/222/397 408/228/405
f 400/222/397 407/227/404 406/226/403
f 400/222/397 405/224/402 408/228/405
f 401/229/398 407/227/404 408/228/405
f 396/218/393 409/230/406 399/219/396
f 397/220/394 398/221/395 409/230/406
f 397/220/394 409/230/406 396/218/393
f 343/231/340 344/232/341 352/233/349
f 340/234/337 352/233/349 344/232/341
f 336/235/333 341/236/338 337/237/334
f 342/238/339 337/237/334 341/236/338
f 353/239/350 354/240/351 338/241/335
f 345/242/342 338/241/335 354/240/351
f 345/242/342 339/243/336 338/241/335
f 339/243/336 345/242/342 355/244/352
f 344/232/341 343/231/340 356/245/353
f 349/246/346 346/247/343 339/243/336
f 350/248/347 295/249/292 336/235/333
f 357/250/354 340/234/337 295/249/292
f 353/239/350 347/251/344 358/252/355
f 353/239/350 338/241/335 347/251/344
f 338/241/335 339/243/336 346/247/343
f 338/241/335 346/247/343 347/251/344
f 346/247/343 348/253/345 347/251/344
f 351/254/348 344/232/341 341/236/338
f 344/232/341 351/254/348 340/234/337
f 357/250/354 295/249/292 285/255/282
f 340/234/337 351/254/348 295/249/292
f 336/235/333 337/237/334 350/248/347
f 287/256/284 362/257/359 348/253/345
f 357/250/354 352/233/349 340/234/337
f 287/256/284 348/253/345 346/247/343
f 347/251/344 282/258/279 358/252/355
f 282/258/279 290/259/287 358/252/355
f 282/258/279 348/253/345 362/257/359
f 336/235/333 351/254/348 341/236/338
f 336/235/333 295/249/292 351/254/348
f 339/243/336 355/244/352 359/260/356
f 339/243/336 359/260/356 349/246/346
f 356/245/353 390/211/387 391/213/388
f 344/232/341 356/245/353 391/213/388
f 344/232/341 391/213/388 388/215/385
f 344/232/341 388/215/385 341/236/338
f 354/240/351 403/223/400 404/225/401
f 345/242/342 354/240/351 404/225/401
f 402/261/399 389/217/386 342/238/339
f 341/236/338 388/215/385 402/261/399
f 388/215/385 389/217/386 402/261/399
f 341/236/338 402/261/399 342/238/339
f 346/247/343 349/246/346 287/256/284
f 295/249/292 350/248/347 291/262/288
f 297/195/294 316/191/313 333/204/330
f 323/193/320 334/207/331 283/198/280
f 282/258/279 347/251/344 348/253/345
f 286/263/283 287/256/284 349/246/346
f 283/198/280 334/207/331 293/264/290
f 322/199/319 324/197/321 284/203/281
f 181/77/178 205/265/202 184/75/181
f 186/69/183 183/68/180 195/67/192
f 98/266/98 74/19/74 76/18/76
f 88/23/88 95/22/95 87/25/87
f 196/66/193 188/82/185 193/78/190
f 196/66/193 183/68/180 204/83/201
f 83/34/83 85/29/85 96/35/96
f 80/26/80 88/23/88 89/24/89
f 219/116/216 215/109/212 269/115/266
f 274/124/271 263/117/260 259/129/256
f 257/122/254 263/117/260 260/119/257
f 259/129/256 263/117/260 258/130/255
f 257/122/254 256/106/253 264/132/261
f 98/266/98 91/41/91 94/38/94
f 97/31/97 90/21/90 84/39/84
f 191/85/188 186/69/183 197/70/194
f 192/79/189 205/265/202 198/87/195
f 85/29/85 91/41/91 98/266/98
f 91/41/91 75/36/75 94/38/94
f 85/29/85 83/34/83 93/30/93
f 82/37/82 75/36/75 92/28/92
f 198/87/195 205/265/202 181/77/178
f 199/80/196 198/87/195 182/71/179
f 200/73/197 199/80/196 189/89/186
f 199/80/196 192/79/189 198/87/195
f 182/71/179 200/73/197 189/89/186
f 190/74/187 192/79/189 200/73/197
f 190/74/187 201/72/198 181/77/178
f 198/87/195 201/72/198 182/71/179
f 92/28/92 93/30/93 82/37/82
f 94/38/94 93/30/93 83/34/83
f 93/30/93 94/38/94 75/36/75
f 98/266/98 94/38/94 74/19/74
f 22/267/22 26/268/26 15/269/15
f 134/270/132 27/271/27 130/272/129
f 30/273/30 27/271/27 17/274/17
f 18/275/18 30/273/30 17/274/17
f 18/275/18 19/276/19 30/273/30
f 37/277/37 20/278/20 24/279/24
f 31/280/31 37/277/37 24/279/24
f 21/281/21 15/269/15 24/279/24
f 20/278/20 21/281/21 24/279/24
f 15/269/15 21/281/21 22/267/22
f 26/268/26 22/267/22 131/282/130
f 120/283/119 131/282/130 22/267/22
f 133/284/131 131/282/130 141/285/139
f 121/286/120 133/284/131 141/285/139
f 122/287/121 128/288/127 133/284/131
f 121/286/120 122/287/121 133/284/131
f 128/288/127 122/287/121 123/289/122
f 137/290/135 128/288/127 123/289/122
f 145/291/136 124/292/123 138/293/136
f 139/294/137 124/292/123 125/295/124
f 135/296/133 139/294/137 125/295/124
f 135/296/133 125/295/124 126/297/125
f 16/298/16 134/270/132 126/297/125
f 27/271/27 134/270/132 33/299/33
f 17/274/17 27/271/27 33/299/33
f 44/300/44 35/301/35 34/302/34
f 43/303/43 44/300/44 34/302/34
f 45/304/45 36/305/36 35/301/35
f 44/300/44 45/304/45 35/301/35
f 46/306/46 38/307/38 36/305/36
f 45/304/45 46/306/46 36/305/36
f 47/308/47 40/309/40 39/310/39
f 69/311/69 47/308/47 39/310/39
f 48/312/48 41/313/41 40/309/40
f 47/308/47 48/312/48 40/309/40
f 49/314/49 42/315/42 41/313/41
f 48/312/48 49/314/49 41/313/41
f 151/316/148 142/317/140 42/315/42
f 49/314/49 151/316/148 42/315/42
f 152/318/149 143/319/141 142/317/140
f 151/316/148 152/318/149 142/317/140
f 153/320/150 144/321/142 143/319/141
f 152/318/149 153/320/150 143/319/141
f 154/322/151 146/323/143 144/321/142
f 153/320/150 154/322/151 144/321/142
f 155/324/152 148/325/145 147/326/144
f 176/327/173 155/324/152 147/326/144
f 156/328/153 149/329/146 148/325/145
f 155/324/152 156/328/153 148/325/145
f 157/330/154 150/331/147 149/329/146
f 156/328/153 157/330/154 149/329/146
f 51/332/51 44/300/44 43/303/43
f 50/333/50 51/332/51 43/303/43
f 52/334/52 45/304/45 44/300/44
f 51/332/51 52/334/52 44/300/44
f 53/335/53 46/306/46 45/304/45
f 52/334/52 53/335/53 45/304/45
f 54/336/54 47/308/47 69/311/69
f 70/337/70 54/336/54 69/311/69
f 55/338/55 48/312/48 47/308/47
f 54/336/54 55/338/55 47/308/47
f 56/339/56 49/314/49 48/312/48
f 55/338/55 56/339/56 48/312/48
f 158/340/155 151/316/148 49/314/49
f 56/339/56 158/340/155 49/314/49
f 159/341/156 152/318/149 151/316/148
f 158/340/155 159/341/156 151/316/148
f 160/342/157 153/320/150 152/318/149
f 159/341/156 160/342/157 152/318/149
f 161/343/158 154/322/151 153/320/150
f 160/342/157 161/343/158 153/320/150
f 162/344/159 155/324/152 176/327/173
f 177/345/174 162/344/159 176/327/173
f 163/346/160 156/328/153 155/324/152
f 162/344/159 163/346/160 155/324/152
f 164/347/161 157/330/154 156/328/153
f 163/346/160 164/347/161 156/328/153
f 50/333/50 43/303/43 157/330/154
f 164/347/161 50/333/50 157/330/154
f 411/348/408 444/349/441 443/350/440
f 410/351/407 411/348/408 443/350/440
f 57/352/57 67/353/67 444/349/441
f 411/348/408 57/352/57 444/349/441
f 58/354/58 68/355/68 67/353/67
f 57/352/57 58/354/58 67/353/67
f 59/356/59 64/357/64 73/358/73
f 71/359/71 59/356/59 73/358/73
f 60/360/60 65/361/65 64/357/64
f 59/356/59 60/360/60 64/357/64
f 412/362/409 66/363/66 65/361/65
f 60/360/60 412/362/409 65/361/65
f 413/364/410 171/365/168 66/363/66
f 412/362/409 413/364/410 66/363/66
f 165/366/162 172/367/169 171/365/168
f 413/364/410 165/366/162 171/365/168
f 166/368/163 173/369/170 172/367/169
f 165/366/162 166/368/163 172/367/169
f 167/370/164 174/371/171 173/369/170
f 166/368/163 167/370/164 173/369/170
f 168/372/165 175/373/172 180/374/177
f 178/375/175 168/372/165 180/374/177
f 414/376/411 441/377/438 175/373/172
f 168/372/165 414/376/411 175/373/172
f 415/378/412 442/379/439 441/377/438
f 414/376/411 415/378/412 441/377/438
f 410/351/407 443/350/440 442/379/439
f 415/378/412 410/351/407 442/379/439
f 417/380/414 411/348/408 410/351/407
f 416/381/413 417/380/414 410/351/407
f 61/382/61 57/352/57 411/348/408
f 417/380/414 61/382/61 411/348/408
f 62/383/62 58/354/58 57/352/57
f 61/382/61 62/383/62 57/352/57
f 63/384/63 59/356/59 71/359/71
f 72/385/72 63/384/63 71/359/71
f 418/386/415 60/360/60 59/356/59
f 63/384/63 418/386/415 59/356/59
f 419/387/416 412/362/409 60/360/60
f 418/386/415 419/387/416 60/360/60
f 420/388/417 413/364/410 412/362/409
f 419/387/416 420/388/417 412/362/409
f 421/389/418 165/366/162 413/364/410
f 420/388/417 421/389/418 413/364/410
f 422/390/419 166/368/163 165/366/162
f 421/389/418 422/390/419 165/366/162
f 169/391/166 167/370/164 166/368/163
f 422/390/419 169/391/166 166/368/163
f 170/392/167 168/372/165 178/375/175
f 179/393/176 170/392/167 178/375/175
f 423/394/420 414/376/411 168/372/165
f 170/392/167 423/394/420 168/372/165
f 424/395/421 415/378/412 414/376/411
f 423/394/420 424/395/421 414/376/411
f 416/381/413 410/351/407 415/378/412
f 424/395/421 416/381/413 415/378/412
f 426/396/423 417/380/414 416/381/413
f 425/397/422 426/396/423 416/381/413
f 427/398/424 61/382/61 417/380/414
f 426/396/423 427/398/424 417/380/414
f 428/399/425 62/383/62 61/382/61
f 427/398/424 428/399/425 61/382/61
f 429/400/426 63/384/63 72/385/72
f 445/401/442 429/400/426 72/385/72
f 430/402/427 418/386/415 63/384/63
f 429/400/426 430/402/427 63/384/63
f 431/403/428 419/387/416 418/386/415
f 430/402/427 431/403/428 418/386/415
f 432/404/429 420/388/417 419/387/416
f 431/403/428 432/404/429 419/387/416
f 433/405/430 421/389/418 420/388/417
f 432/404/429 433/405/430 420/388/417
f 434/406/431 422/390/419 421/389/418
f 433/405/430 434/406/431 421/389/418
f 435/407/432 169/391/166 422/390/419
f 434/406/431 435/407/432 422/390/419
f 436/408/433 170/392/167 179/393/176
f 446/409/443 436/408/433 179/393/176
f 437/410/434 423/394/420 170/392/167
f 436/408/433 437/410/434 170/392/167
f 438/411/435 424/395/421 423/394/420
f 437/410/434 438/411/435 423/394/420
f 425/397/422 416/381/413 424/395/421
f 438/411/435 425/397/422 424/395/421
f 221/412/218 426/396/423 425/397/422
f 220/413/217 221/412/218 425/397/422
f 222/414/219 427/398/424 426/396/423
f 221/412/218 222/414/219 426/396/423
f 223/415/220 428/399/425 427/398/424
f 222/414/219 223/415/220 427/398/424
f 439/416/436 429/400/426 445/401/442
f 248/417/245 439/416/436 445/401/442
f 224/418/221 430/402/427 429/400/426
f 439/416/436 224/418/221 429/400/426
f 225/419/222 431/403/428 430/402/427
f 224/418/221 225/419/222 430/402/427
f 226/420/223 432/404/429 431/403/428
f 225/419/222 226/420/223 431/403/428
f 227/421/224 433/405/430 432/404/429
f 226/420/223 227/421/224 432/404/429
f 440/422/437 434/406/431 433/405/430
f 227/421/224 440/422/437 433/405/430
f 228/423/225 435/407/432 434/406/431
f 440/422/437 228/423/225 434/406/431
f 229/424/226 436/408/433 446/409/443
f 249/425/246 229/424/226 446/409/443
f 230/426/227 437/410/434 436/408/433
f 229/424/226 230/426/227 436/408/433
f 231/427/228 438/411/435 437/410/434
f 230/426/227 231/427/228 437/410/434
f 220/413/217 425/397/422 438/411/435
f 231/427/228 220/413/217 438/411/435
f 233/428/230 221/412/218 220/413/217
f 232/429/229 233/428/230 220/413/217
f 234/430/231 222/414/219 221/412/218
f 233/428/230 234/430/231 221/412/218
f 235/431/232 223/415/220 222/414/219
f 234/430/231 235/431/232 222/414/219
f 236/432/233 439/416/436 248/417/245
f 250/433/247 236/432/233 248/417/245
f 237/434/234 224/418/221 439/416/436
f 236/432/233 237/434/234 439/416/436
f 238/435/235 225/419/222 224/418/221
f 237/434/234 238/435/235 224/418/221
f 239/436/236 226/420/223 225/419/222
f 238/435/235 239/436/236 225/419/222
f 240/437/237 227/421/224 226/420/223
f 239/436/236 240/437/237 226/420/223
f 241/438/238 440/422/437 227/421/224
f 240/437/237 241/438/238 227/421/224
f 242/439/239 228/423/225 440/422/437
f 241/438/238 242/439/239 440/422/437
f 243/440/240 229/424/226 249/425/246
f 251/441/248 243/440/240 249/425/246
f 244/442/241 230/426/227 229/424/226
f 243/440/240 244/442/241 229/424/226
f 245/443/242 231/427/228 230/426/227
f 244/442/241 245/443/242 230/426/227
f 232/429/229 220/413/217 231/427/228
f 245/443/242 232/429/229 231/427/228
f 214/112/211 233/428/230 232/429/229
f 219/116/216 214/112/211 232/429/229
f 214/112/211 234/430/231 233/428/230
f 247/114/244 235/431/232 234/430/231
f 214/112/211 247/114/244 234/430/231
f 216/100/213 236/432/233 250/433/247
f 213/101/210 216/100/213 250/433/247
f 216/100/213 237/434/234 236/432/233
f 218/103/215 239/436/236 238/435/235
f 217/97/214 240/437/237 239/436/236
f 218/103/215 217/97/214 239/436/236
f 217/97/214 241/438/238 240/437/237
f 212/99/209 242/439/239 241/438/238
f 217/97/214 212/99/209 241/438/238
f 215/109/212 243/440/240 251/441/248
f 246/110/243 215/109/212 251/441/248
f 215/109/212 244/442/241 243/440/240
f 219/116/216 245/443/242 244/442/241
f 215/109/212 219/116/216 244/442/241
f 219/116/216 232/429/229 245/443/242
f 218/103/215 238/435/235 237/434/234
f 216/100/213 218/103/215 237/434/234
f 65/361/65 55/338/55 54/336/54
f 64/357/64 65/361/65 54/336/54
f 66/363/66 56/339/56 55/338/55
f 65/361/65 66/363/66 55/338/55
f 171/365/168 158/340/155 56/339/56
f 66/363/66 171/365/168 56/339/56
f 172/367/169 159/341/156 158/340/155
f 171/365/168 172/367/169 158/340/155
f 173/369/170 160/342/157 159/341/156
f 172/367/169 173/369/170 159/341/156
f 174/371/171 161/343/158 160/342/157
f 173/369/170 174/371/171 160/342/157
f 175/373/172 162/344/159 177/345/174
f 180/374/177 175/373/172 177/345/174
f 441/377/438 163/346/160 162/344/159
f 175/373/172 441/377/438 162/344/159
f 442/379/439 164/347/161 163/346/160
f 441/377/438 442/379/439 163/346/160
f 443/350/440 50/333/50 164/347/161
f 442/379/439 443/350/440 164/347/161
f 444/349/441 51/332/51 50/333/50
f 443/350/440 444/349/441 50/333/50
f 67/353/67 52/334/52 51/332/51
f 444/349/441 67/353/67 51/332/51
f 68/355/68 53/335/53 52/334/52
f 67/353/67 68/355/68 52/334/52
f 64/357/64 54/336/54 70/337/70
f 73/358/73 64/357/64 70/337/70
f 43/303/43 34/302/34 150/331/147
f 157/330/154 43/303/43 150/331/147
f 26/268/26 132/444/28 28/445/28
f 483/446/480 461/447/458 449/448/446
f 461/447/458 487/449/484 485/450/482
f 456/451/453 453/452/450 493/453/490
f 493/453/490 497/454/494 494/455/491
f 456/451/453 493/453/490 494/455/491
f 454/456/451 453/452/450 491/457/488
f 482/458/479 485/450/482 457/459/454
f 482/458/479 449/448/446 485/450/482
f 455/460/452 510/461/507 451/462/448
f 464/463/461 484/464/481 455/460/452
f 496/465/493 492/466/489 495/467/492
f 452/468/449 495/467/492 492/466/489
f 452/468/449 463/469/460 460/470/457
f 485/450/482 487/449/484 457/459/454
f 460/470/457 461/447/458 483/446/480
f 462/471/459 456/451/453 459/472/456
f 484/464/481 464/463/461 459/472/456
f 458/473/455 481/474/478 500/475/497
f 458/473/455 488/476/485 486/477/483
f 486/477/483 488/476/485 464/463/461
f 468/478/465 467/479/464 466/480/463
f 502/481/499 470/482/467 469/483/466
f 473/484/470 470/482/467 472/485/469
f 470/482/467 473/484/470 506/486/503
f 475/487/472 506/486/503 474/488/471
f 506/486/503 475/487/472 469/483/466
f 475/487/472 476/489/473 469/483/466
f 472/485/469 470/482/467 507/490/504
f 507/490/504 467/479/464 472/485/469
f 476/489/473 465/491/462 450/492/447
f 477/493/474 476/489/473 450/492/447
f 450/492/447 465/491/462 458/473/455
f 500/475/497 450/492/447 458/473/455
f 466/480/463 507/490/504 471/494/468
f 475/487/472 465/491/462 476/489/473
f 478/495/475 469/483/466 476/489/473
f 501/496/498 502/481/499 478/495/475
f 501/496/498 471/494/468 502/481/499
f 466/480/463 471/494/468 479/497/476
f 478/495/475 476/489/473 477/493/474
f 480/498/477 505/499/502 477/493/474
f 479/497/476 501/496/498 466/480/463
f 505/499/502 480/498/477 468/478/465
f 466/480/463 478/495/475 505/499/502
f 491/457/488 453/452/450 447/500/444
f 448/501/445 491/457/488 447/500/444
f 490/502/487 510/461/507 455/460/452
f 491/457/488 489/503/486 490/502/487
f 480/498/477 452/468/449 468/478/465
f 467/479/464 468/478/465 498/504/495
f 452/468/449 508/505/505 468/478/465
f 474/488/471 473/484/470 456/451/453
f 473/484/470 453/452/450 456/451/453
f 499/506/496 473/484/470 472/485/469
f 463/469/460 452/468/449 480/498/477
f 463/469/460 480/498/477 477/493/474
f 503/507/500 477/493/474 450/492/447
f 474/488/471 456/451/453 462/471/459
f 462/471/459 475/487/472 474/488/471
f 504/508/501 475/487/472 462/471/459
f 451/462/448 481/474/478 486/477/483
f 458/473/455 486/477/483 481/474/478
f 511/509/508 482/458/479 500/475/497
f 486/477/483 455/460/452 451/462/448
f 449/448/446 482/458/479 511/509/508
f 481/474/478 451/462/448 500/475/497
f 483/446/480 449/448/446 512/510/509
f 463/469/460 461/447/458 460/470/457
f 484/464/481 490/502/487 455/460/452
f 462/471/459 459/472/456 464/463/461
f 457/459/454 487/449/484 450/492/447
f 461/447/458 485/450/482 449/448/446
f 464/463/461 455/460/452 486/477/483
f 458/473/455 465/491/462 488/476/485
f 463/469/460 487/449/484 461/447/458
f 463/469/460 503/507/500 487/449/484
f 504/508/501 488/476/485 465/491/462
f 462/471/459 464/463/461 488/476/485
f 454/456/451 491/457/488 490/502/487
f 496/465/493 483/446/480 512/510/509
f 490/502/487 489/503/486 510/461/507
f 497/454/494 490/502/487 484/464/481
f 452/468/449 492/466/489 508/505/505
f 448/501/445 489/503/486 491/457/488
f 483/446/480 496/465/493 460/470/457
f 509/511/506 508/505/505 492/466/489
f 454/456/451 493/453/490 453/452/450
f 484/464/481 459/472/456 497/454/494
f 497/454/494 459/472/456 494/455/491
f 459/472/456 456/451/453 494/455/491
f 496/465/493 495/467/492 460/470/457
f 460/470/457 495/467/492 452/468/449
f 509/511/506 496/465/493 512/510/509
f 496/465/493 509/511/506 492/466/489
f 454/456/451 490/502/487 497/454/494
f 497/454/494 493/453/490 454/456/451
f 508/505/505 498/504/495 468/478/465
f 453/452/450 473/484/470 499/506/496
f 450/492/447 500/475/497 457/459/454
f 457/459/454 500/475/497 482/458/479
f 479/497/476 471/494/468 501/496/498
f 501/496/498 478/495/475 466/480/463
f 471/494/468 470/482/467 502/481/499
f 502/481/499 469/483/466 478/495/475
f 463/469/460 477/493/474 503/507/500
f 503/507/500 450/492/447 487/449/484
f 465/491/462 475/487/472 504/508/501
f 462/471/459 488/476/485 504/508/501
f 499/506/496 472/485/469 467/479/464
f 467/479/464 498/504/495 499/506/496
f 498/504/495 453/452/450 499/506/496
f 447/500/444 453/452/450 498/504/495
f 478/495/475 477/493/474 505/499/502
f 466/480/463 505/499/502 468/478/465
f 470/482/467 506/486/503 469/483/466
f 506/486/503 473/484/470 474/488/471
f 466/480/463 467/479/464 507/490/504
f 507/490/504 470/482/467 471/494/468
f 549/446/480 527/447/458 515/448/446
f 527/447/458 553/449/484 551/450/482
f 522/451/453 519/452/450 559/453/490
f 559/453/490 563/454/494 560/455/491
f 522/451/453 559/453/490 560/455/491
f 520/456/451 519/452/450 557/457/488
f 548/458/479 551/450/482 523/459/454
f 548/458/479 515/448/446 551/450/482
f 521/460/452 576/461/507 517/462/448
f 530/463/461 550/464/481 521/460/452
f 562/465/493 558/466/489 561/467/492
f 518/468/449 561/467/492 558/466/489
f 518/468/449 529/469/460 526/470/457
f 551/450/482 553/449/484 523/459/454
f 526/470/457 527/447/458 549/446/480
f 528/471/459 522/451/453 525/472/456
f 550/464/481 530/463/461 525/472/456
f 524/473/455 547/474/478 566/475/497
f 524/473/455 554/476/485 552/477/483
f 552/477/483 554/476/485 530/463/461
f 534/478/465 533/479/464 532/480/463
f 568/481/499 536/482/467 535/483/466
f 539/484/470 536/482/467 538/485/469
f 536/482/467 539/484/470 572/486/503
f 541/487/472 572/486/503 540/488/471
f 572/486/503 541/487/472 535/483/466
f 541/487/472 542/489/473 535/483/466
f 538/485/469 536/482/467 573/490/504
f 573/490/504 533/479/464 538/485/469
f 542/489/473 531/491/462 516/492/447
f 543/493/474 542/489/473 516/492/447
f 516/492/447 531/491/462 524/473/455
f 566/475/497 516/492/447 524/473/455
f 532/480/463 573/490/504 537/494/468
f 541/487/472 531/491/462 542/489/473
f 544/495/475 535/483/466 542/489/473
f 567/496/498 568/481/499 544/495/475
f 567/496/498 537/494/468 568/481/499
f 532/480/463 537/494/468 545/497/476
f 544/495/475 542/489/473 543/493/474
f 546/498/477 571/499/502 543/493/474
f 545/497/476 567/496/498 532/480/463
f 571/499/502 546/498/477 534/478/465
f 532/480/463 544/495/475 571/499/502
f 557/457/488 519/452/450 513/500/444
f 514/501/445 557/457/488 513/500/444
f 556/502/487 576/461/507 521/460/452
f 557/457/488 555/503/486 556/502/487
f 546/498/477 518/468/449 534/478/465
f 533/479/464 534/478/465 564/504/495
f 518/468/449 574/505/505 534/478/465
f 540/488/471 539/484/470 522/451/453
f 539/484/470 519/452/450 522/451/453
f 565/506/496 539/484/470 538/485/469
f 529/469/460 518/468/449 546/498/477
f 529/469/460 546/498/477 543/493/474
f 569/507/500 543/493/474 516/492/447
f 540/488/471 522/451/453 528/471/459
f 528/471/459 541/487/472 540/488/471
f 570/508/501 541/487/472 528/471/459
f 517/462/448 547/474/478 552/477/483
f 524/473/455 552/477/483 547/474/478
f 577/509/508 548/458/479 566/475/497
f 552/477/483 521/460/452 517/462/448
f 515/448/446 548/458/479 577/509/508
f 547/474/478 517/462/448 566/475/497
f 549/446/480 515/448/446 578/510/509
f 529/469/460 527/447/458 526/470/457
f 550/464/481 556/502/487 521/460/452
f 528/471/459 525/472/456 530/463/461
f 523/459/454 553/449/484 516/492/447
f 527/447/458 551/450/482 515/448/446
f 530/463/461 521/460/452 552/477/483
f 524/473/455 531/491/462 554/476/485
f 529/469/460 553/449/484 527/447/458
f 529/469/460 569/507/500 553/449/484
f 570/508/501 554/476/485 531/491/462
f 528/471/459 530/463/461 554/476/485
f 520/456/451 557/457/488 556/502/487
f 562/465/493 549/446/480 578/510/509
f 556/502/487 555/503/486 576/461/507
f 563/454/494 556/502/487 550/464/481
f 518/468/449 558/466/489 574/505/505
f 514/501/445 555/503/486 557/457/488
f 549/446/480 562/465/493 526/470/457
f 575/511/506 574/505/505 558/466/489
f 520/456/451 559/453/490 519/452/450
f 550/464/481 525/472/456 563/454/494
f 563/454/494 525/472/456 560/455/491
f 525/472/456 522/451/453 560/455/491
f 562/465/493 561/467/492 526/470/457
f 526/470/457 561/467/492 518/468/449
f 575/511/506 562/465/493 578/510/509
f 562/465/493 575/511/506 558/466/489
f 520/456/451 556/502/487 563/454/494
f 563/454/494 559/453/490 520/456/451
f 574/505/505 564/504/495 534/478/465
f 519/452/450 539/484/470 565/506/496
f 516/492/447 566/475/497 523/459/454
f 523/459/454 566/475/497 548/458/479
f 545/497/476 537/494/468 567/496/498
f 567/496/498 544/495/475 532/480/463
f 537/494/468 536/482/467 568/481/499
f 568/481/499 535/483/466 544/495/475
f 529/469/460 543/493/474 569/507/500
f 569/507/500 516/492/447 553/449/484
f 531/491/462 541/487/472 570/508/501
f 528/471/459 554/476/485 570/508/501
f 565/506/496 538/485/469 533/479/464
f 533/479/464 564/504/495 565/506/496
f 564/504/495 519/452/450 565/506/496
f 513/500/444 519/452/450 564/504/495
f 544/495/475 543/493/474 571/499/502
f 532/480/463 571/499/502 534/478/465
f 536/482/467 572/486/503 535/483/466
f 572/486/503 539/484/470 540/488/471
f 532/480/463 533/479/464 573/490/504
f 573/490/504 536/482/467 537/494/468
f 579/512/510 580/513/511 584/514/515 583/515/514
f 580/513/511 581/516/512 585/517/516 584/514/515
f 581/516/512 582/518/513 586/519/517 585/517/516
f 582/518/513 579/512/510 583/515/514 586/519/517
f 583/515/514 584/514/515 587/520/518
f 584/514/515 585/517/516 587/520/518
f 585/517/516 586/519/517 587/520/518
f 586/519/517 583/515/514 587/520/518
f 583/515/514 587/520/518 588/521/519
f 584/514/515 587/520/518 589/522/520
f 584/514/515 589/522/520 590/523/521
f 585/517/516 590/523/521 589/522/520
f 585/517/516 589/522/520 586/519/517
f 586/519/517 589/522/520 588/521/519
f 588/521/519 589/522/520 590/523/521
f 595/515/526 596/514/527 592/513/523 591/512/522
f 596/514/527 597/517/528 593/516/524 592/513/523
f 597/517/528 598/519/529 594/518/525 593/516/524
f 598/519/529 595/515/526 591/512/522 594/518/525
f 599/520/530 596/514/527 595/515/526
f 599/520/530 597/517/528 596/514/527
f 599/520/530 598/519/529 597/517/528
f 599/520/530 595/515/526 598/519/529
f 600/521/531 599/520/530 595/515/526
f 601/522/532 599/520/530 596/514/527
f 602/523/533 601/522/532 596/514/527
f 601/522/532 602/523/533 597/517/528
f 598/519/529 601/522/532 597/517/528
f 600/521/531 601/522/532 598/519/529
f 602/523/533 601/522/532 600/521/531
