# Blender 5.1.1
# www.blender.org
mtllib npc_kapten_kuro_walk3.mtl
o npc_kapten_kuro_walk3
v -0.105227 -0.088287 1.052209
v 0.105578 -0.088616 1.052074
v -0.106779 -0.086143 1.115692
v 0.107236 -0.083722 1.118397
v -0.142972 -0.017973 1.123992
v 0.142885 -0.016639 1.123410
v 0.107105 0.066358 1.100991
v -0.107608 0.066111 1.100992
v -0.000357 0.081198 1.094120
v -0.000298 0.086404 1.179903
v 0.000200 -0.101282 1.117044
v 0.000162 -0.102120 1.052141
v -0.142972 -0.017973 1.123992
v 0.142885 -0.016639 1.123410
v -0.106658 0.064484 1.046789
v 0.106469 0.064036 1.046769
v -0.000091 0.078109 1.046779
v 0.142995 -0.018317 1.050149
v -0.143065 -0.017726 1.050225
v 0.105745 -0.093649 1.019117
v -0.107765 -0.093972 1.019107
v -0.143002 -0.018314 1.031116
v 0.142673 -0.017871 1.031507
v 0.029971 0.081301 0.857790
v -0.034326 0.081561 0.857812
v -0.000223 0.081447 0.920155
v -0.000979 -0.108732 1.010891
v -0.001896 -0.125472 0.858284
v -0.001404 -0.122745 0.922044
v -0.057089 0.076612 0.985302
v 0.056575 0.076700 0.985305
v -0.126203 0.052658 0.989359
v 0.125468 0.052414 0.989347
v -0.110372 0.069799 0.985307
v 0.109855 0.069663 0.985300
v 0.142995 -0.018317 1.050149
v -0.143065 -0.017726 1.050225
v -0.143002 -0.018314 1.031116
v 0.142673 -0.017871 1.031507
v -0.114878 0.073019 1.188089
v -0.145767 -0.016743 1.203520
v -0.116157 -0.087191 1.211577
v 0.116558 -0.085863 1.212929
v 0.145849 -0.015958 1.203229
v 0.114390 0.073240 1.188089
v 0.000200 -0.105785 1.212253
v -0.124836 0.079259 1.275187
v 0.124386 0.079454 1.275187
v -0.000225 0.094296 1.265686
v -0.145767 -0.016743 1.203520
v 0.145849 -0.015958 1.203229
v -0.157548 -0.012021 1.319511
v -0.135156 -0.090541 1.335585
v 0.157795 -0.021537 1.319510
v 0.135534 -0.090306 1.335585
v -0.000112 -0.115439 1.340814
v -0.111100 0.022825 1.443644
v 0.110929 0.022783 1.442603
v 0.131224 -0.065053 1.445041
v -0.041808 0.027370 1.439505
v 0.167018 -0.059457 1.369536
v -0.167104 -0.059587 1.370430
v -0.000190 0.071476 1.365639
v 0.042119 0.027508 1.439506
v -0.057518 -0.050915 1.479052
v 0.057764 -0.050777 1.479052
v -0.114947 -0.019657 1.452410
v 0.114833 -0.019712 1.451302
v 0.133320 -0.088182 1.397201
v -0.133400 -0.088224 1.398359
v 0.135266 0.049897 1.393801
v -0.135413 0.049837 1.394861
v 0.170861 0.015021 1.370868
v -0.171008 0.014886 1.371704
v -0.157548 -0.012021 1.319511
v 0.157795 -0.021537 1.319510
v 0.167018 -0.059457 1.369536
v 0.167018 -0.059457 1.369536
v -0.167104 -0.059587 1.370430
v -0.167104 -0.059587 1.370430
v -0.057518 -0.050915 1.479052
v 0.057764 -0.050777 1.479052
v -0.114947 -0.019657 1.452410
v 0.114833 -0.019712 1.451302
v 0.170861 0.015021 1.370868
v -0.171008 0.014886 1.371704
v -0.180871 -0.065659 1.441255
v -0.124539 -0.061503 1.337094
v -0.173750 -0.076279 1.320428
v -0.221921 -0.062427 1.319613
v -0.211749 0.025280 1.321021
v -0.138469 0.018588 1.328349
v -0.142647 -0.058747 1.144426
v -0.228156 -0.022963 1.150363
v -0.180099 0.054079 1.185410
v -0.152130 0.045772 1.140567
v -0.216150 0.043851 1.145049
v -0.220892 -0.068761 1.386095
v -0.213937 0.018951 1.381377
v -0.220909 -0.020730 1.420058
v -0.161928 0.041538 1.395551
v -0.159496 -0.082248 1.398562
v -0.183385 0.037480 1.325208
v -0.224494 -0.041012 1.217228
v -0.182534 -0.037238 1.150481
v -0.181782 -0.055933 1.229068
v -0.135157 -0.066800 1.218832
v -0.210462 0.025245 1.408458
v -0.208160 -0.072849 1.413081
v -0.182612 0.059520 1.142451
v -0.173750 -0.076279 1.320428
v -0.180099 0.054079 1.185410
v -0.220909 -0.020730 1.420058
v -0.220909 -0.020730 1.420058
v -0.161928 0.041538 1.395551
v -0.161928 0.041538 1.395551
v -0.159496 -0.082248 1.398562
v -0.159496 -0.082248 1.398562
v -0.183385 0.037480 1.325208
v -0.182534 -0.037238 1.150481
v -0.181782 -0.055933 1.229068
v -0.210462 0.025245 1.408458
v -0.208160 -0.072849 1.413081
v -0.182612 0.059520 1.142451
v 0.123414 -0.061510 1.337111
v 0.172635 -0.085702 1.320457
v 0.220801 -0.072161 1.319632
v 0.210621 0.016068 1.321040
v 0.137363 0.018593 1.328387
v 0.140372 -0.058695 1.142748
v 0.230090 -0.096444 1.149268
v 0.178976 -0.005956 1.185429
v 0.150687 -0.031081 1.140584
v 0.214713 -0.031306 1.145076
v 0.219827 -0.067703 1.386122
v 0.212770 0.017860 1.381421
v 0.220919 -0.020711 1.419830
v 0.160807 0.041582 1.395560
v 0.158373 -0.082217 1.398590
v 0.182257 0.029856 1.325222
v 0.224636 -0.089021 1.217565
v 0.181467 -0.112381 1.148234
v 0.180511 -0.099675 1.228994
v 0.135051 -0.066919 1.219369
v 0.207080 -0.072223 1.413117
v 0.209309 0.024679 1.408482
v 0.181151 -0.016627 1.142449
v 0.172635 -0.085702 1.320457
v 0.178976 -0.005956 1.185429
v 0.220919 -0.020711 1.419830
v 0.220919 -0.020711 1.419830
v 0.160807 0.041582 1.395560
v 0.160807 0.041582 1.395560
v 0.158373 -0.082217 1.398590
v 0.158373 -0.082217 1.398590
v 0.182257 0.029856 1.325222
v 0.181467 -0.112381 1.148234
v 0.180511 -0.099675 1.228994
v 0.207080 -0.072223 1.413117
v 0.209309 0.024679 1.408482
v 0.181151 -0.016627 1.142449
v -0.000228 -0.070151 1.479756
v -0.045145 0.019058 1.568869
v -0.038281 -0.041186 1.588397
v 0.040065 -0.041630 1.588097
v 0.046508 0.019134 1.568869
v 0.000682 0.043238 1.562779
v -0.000537 0.008844 1.596158
v -0.038281 -0.041186 1.588397
v 0.040065 -0.041630 1.588097
v -0.000537 0.008844 1.596158
v 0.113302 -0.112599 0.867812
v 0.147175 -0.029972 0.893773
v 0.144468 0.040791 0.931912
v 0.113241 0.075288 0.923810
v 0.110465 -0.109076 0.930955
v 0.029291 -0.041665 0.577754
v 0.072463 0.103450 0.577716
v 0.117466 -0.031880 0.531252
v 0.132579 0.069660 0.531227
v 0.149390 0.080817 0.577722
v 0.016834 0.069871 0.531227
v 0.134434 -0.070498 0.577760
v 0.115269 -0.113582 0.831819
v 0.008671 -0.089445 0.831094
v 0.117948 0.072616 0.882330
v 0.038070 -0.098560 0.577767
v 0.008617 -0.126562 0.831604
v 0.169298 0.000567 0.577741
v 0.072463 0.107905 0.531217
v 0.031739 -0.031564 0.531252
v 0.120254 -0.041086 0.577753
v 0.136041 0.065108 0.577725
v 0.147175 -0.029972 0.893773
v 0.029291 -0.041665 0.577754
v 0.029291 -0.041665 0.577754
v 0.072463 0.103450 0.577716
v 0.132579 0.069660 0.531227
v 0.149390 0.080817 0.577722
v 0.016834 0.069871 0.531227
v 0.134434 -0.070498 0.577760
v 0.008671 -0.089445 0.831094
v 0.038070 -0.098560 0.577767
v 0.169298 0.000567 0.577741
v 0.169298 0.000567 0.577741
v 0.169298 0.000567 0.577741
v 0.120254 -0.041086 0.577753
v 0.136041 0.065108 0.577725
v 0.136041 0.065108 0.577725
v 0.136041 0.065108 0.577725
v -0.116002 -0.112825 0.867798
v -0.149052 -0.030067 0.893760
v -0.145748 0.040831 0.931920
v -0.114087 0.075112 0.923807
v -0.113288 -0.109343 0.930940
v -0.002758 0.034413 0.829608
v -0.030767 -0.104091 0.598753
v -0.118943 -0.108838 0.556802
v -0.134053 -0.007592 0.556784
v -0.073937 0.040436 0.598725
v -0.150857 0.016697 0.598731
v -0.018308 -0.007423 0.556782
v -0.135901 -0.133953 0.598759
v -0.117825 -0.112756 0.831612
v -0.011306 -0.088177 0.831148
v -0.119108 0.073648 0.882504
v -0.040147 -0.161991 0.598763
v -0.011542 -0.125610 0.831642
v -0.170765 -0.063220 0.598745
v -0.073937 0.031228 0.556775
v -0.033215 -0.108756 0.556802
v -0.121730 -0.104218 0.598754
v -0.137515 0.001497 0.598732
v -0.149052 -0.030067 0.893760
v -0.030767 -0.104091 0.598753
v -0.030767 -0.104091 0.598753
v -0.134053 -0.007592 0.556784
v -0.073937 0.040436 0.598725
v -0.150857 0.016697 0.598731
v -0.018308 -0.007423 0.556782
v -0.135901 -0.133953 0.598759
v -0.011306 -0.088177 0.831148
v -0.040147 -0.161991 0.598763
v -0.170765 -0.063220 0.598745
v -0.170765 -0.063220 0.598745
v -0.170765 -0.063220 0.598745
v -0.121730 -0.104218 0.598754
v -0.137515 0.001497 0.598732
v -0.137515 0.001497 0.598732
v -0.137515 0.001497 0.598732
v -0.021458 -0.016848 0.488799
v -0.131817 -0.016256 0.490259
v -0.078091 0.007175 0.473744
v -0.017621 -0.107051 0.381828
v -0.047411 -0.153606 0.153397
v -0.136292 -0.108169 0.383119
v -0.105603 -0.157294 0.152636
v -0.039283 -0.138200 0.386752
v -0.116490 -0.120634 0.487151
v -0.035363 -0.120465 0.486475
v -0.076899 0.013096 0.495177
v -0.116234 -0.139057 0.384944
v -0.021458 -0.016848 0.488799
v -0.131817 -0.016256 0.490259
v -0.036634 -0.072316 0.153022
v -0.073193 -0.050171 0.153786
v -0.119252 -0.067112 0.154093
v -0.096230 -0.171862 0.075569
v -0.047376 -0.010977 0.117362
v -0.124328 -0.013088 0.104173
v -0.042606 -0.018864 0.075374
v -0.057259 -0.166142 0.075561
v -0.129023 -0.018674 0.075374
v -0.042679 -0.071359 0.133427
v -0.113147 -0.066859 0.134565
v -0.073818 -0.047226 0.140481
v -0.051559 -0.164790 0.103626
v -0.103951 -0.169495 0.103250
v -0.036634 -0.072316 0.153022
v -0.119252 -0.067112 0.154093
v -0.096230 -0.171862 0.075569
v -0.047376 -0.010977 0.117362
v -0.124328 -0.013088 0.104173
v -0.042606 -0.018864 0.075374
v -0.042606 -0.018864 0.075374
v -0.042606 -0.018864 0.075374
v -0.057259 -0.166142 0.075561
v -0.129023 -0.018674 0.075374
v -0.129023 -0.018674 0.075374
v -0.129023 -0.018674 0.075374
v -0.042679 -0.071359 0.133427
v -0.042679 -0.071359 0.133427
v -0.042679 -0.071359 0.133427
v -0.113147 -0.066859 0.134565
v -0.113147 -0.066859 0.134565
v -0.113147 -0.066859 0.134565
v -0.073818 -0.047226 0.140481
v -0.051559 -0.164790 0.103626
v -0.103951 -0.169495 0.103250
v -0.102407 0.069872 0.075262
v -0.100879 0.070979 0.095261
v -0.067074 0.074099 0.075256
v -0.068177 0.073977 0.096352
v -0.047832 -0.001218 0.111500
v -0.123032 -0.003251 0.103520
v -0.102407 0.069872 0.075262
v -0.067074 0.074099 0.075256
v 0.019984 0.082778 0.457161
v 0.130343 0.082887 0.458777
v 0.076543 0.112138 0.438820
v 0.016146 0.029856 0.337549
v 0.045624 0.058392 0.084053
v 0.134816 0.028414 0.338318
v 0.103817 0.058080 0.083181
v 0.037808 -0.002828 0.342093
v 0.033887 -0.019285 0.453131
v 0.115014 -0.019652 0.453714
v 0.075425 0.111023 0.462518
v 0.114758 -0.003082 0.340215
v 0.019984 0.082778 0.457161
v 0.130343 0.082887 0.458777
v 0.035178 0.143538 0.083781
v 0.071724 0.165349 0.084806
v 0.117801 0.148367 0.085002
v 0.096084 0.069865 -0.002271
v 0.124175 0.218707 0.029470
v 0.042460 0.223061 -0.002451
v 0.047230 0.216901 0.044089
v 0.057138 0.075675 -0.002278
v 0.128869 0.223145 -0.002452
v 0.112345 0.154945 0.063251
v 0.040654 0.151100 0.062002
v 0.073010 0.172817 0.069883
v 0.102985 0.062720 0.028420
v 0.050569 0.065781 0.028853
v 0.035178 0.143538 0.083781
v 0.117801 0.148367 0.085002
v 0.096084 0.069865 -0.002271
v 0.124175 0.218707 0.029470
v 0.042460 0.223061 -0.002451
v 0.042460 0.223061 -0.002451
v 0.042460 0.223061 -0.002451
v 0.047230 0.216901 0.044089
v 0.057138 0.075675 -0.002278
v 0.128869 0.223145 -0.002452
v 0.128869 0.223145 -0.002452
v 0.128869 0.223145 -0.002452
v 0.112345 0.154945 0.063251
v 0.112345 0.154945 0.063251
v 0.112345 0.154945 0.063251
v 0.040654 0.151100 0.062002
v 0.040654 0.151100 0.062002
v 0.040654 0.151100 0.062002
v 0.073010 0.172817 0.069883
v 0.102985 0.062720 0.028420
v 0.050569 0.065781 0.028853
v 0.102261 0.312174 -0.002556
v 0.100733 0.306652 0.019611
v 0.066928 0.316610 -0.002561
v 0.068031 0.309322 0.020820
v 0.047686 0.228827 0.037594
v 0.122879 0.229200 0.028749
v 0.102261 0.312174 -0.002556
v 0.066928 0.316610 -0.002561
v 0.183253 -0.116993 1.126114
v 0.231045 -0.101614 1.117106
v 0.143964 -0.057699 1.109755
v 0.149173 -0.054329 1.052065
v 0.197012 -0.121514 1.075199
v 0.237279 -0.041553 1.078158
v 0.207141 -0.026800 1.060783
v 0.163085 -0.038658 1.046872
v 0.182469 -0.066640 0.883483
v 0.231133 -0.062097 0.888428
v 0.225377 -0.155464 0.881545
v 0.210050 -0.097217 0.872772
v 0.181986 -0.146797 0.877788
v 0.217019 -0.034149 1.130321
v 0.153941 -0.035271 1.120505
v 0.245309 -0.105060 0.886769
v 0.170299 -0.102544 0.879864
v 0.195903 -0.119344 1.101165
v 0.233416 -0.110287 1.078587
v 0.183931 -0.020143 1.125034
v 0.183253 -0.116993 1.126114
v 0.197012 -0.121514 1.075199
v 0.207141 -0.026800 1.060783
v 0.182469 -0.066640 0.883483
v 0.231133 -0.062097 0.888428
v 0.231133 -0.062097 0.888428
v 0.231133 -0.062097 0.888428
v 0.225377 -0.155464 0.881545
v 0.225377 -0.155464 0.881545
v 0.225377 -0.155464 0.881545
v 0.210050 -0.097217 0.872772
v 0.181986 -0.146797 0.877788
v 0.245309 -0.105060 0.886769
v 0.170299 -0.102544 0.879864
v 0.195903 -0.119344 1.101165
v 0.183931 -0.020143 1.125034
v -0.184579 -0.030186 1.126784
v -0.229049 -0.014103 1.116136
v -0.144741 -0.056053 1.109052
v -0.146906 -0.054326 1.052084
v -0.193289 -0.020125 1.075236
v -0.235031 0.058614 1.078384
v -0.203418 0.079986 1.060819
v -0.160817 0.073323 1.046889
v -0.179772 0.028559 0.878865
v -0.180353 0.107247 0.884726
v -0.229905 0.109919 0.889612
v -0.224518 0.018658 0.882496
v -0.211615 0.083019 0.870405
v -0.215728 0.046508 1.130297
v -0.153439 0.049071 1.120491
v -0.244424 0.067304 0.887856
v -0.168432 0.072370 0.881056
v -0.194704 -0.025446 1.101519
v -0.230389 -0.010242 1.078673
v -0.183055 0.062497 1.125038
v -0.184579 -0.030186 1.126784
v -0.193289 -0.020125 1.075236
v -0.203418 0.079986 1.060819
v -0.179772 0.028559 0.878865
v -0.180353 0.107247 0.884726
v -0.229905 0.109919 0.889612
v -0.229905 0.109919 0.889612
v -0.229905 0.109919 0.889612
v -0.224518 0.018658 0.882496
v -0.224518 0.018658 0.882496
v -0.224518 0.018658 0.882496
v -0.211615 0.083019 0.870405
v -0.244424 0.067304 0.887856
v -0.168432 0.072370 0.881056
v -0.194704 -0.025446 1.101519
v -0.183055 0.062497 1.125038
v -0.062430 0.011390 1.531516
v -0.046667 0.048705 1.513235
v -0.049963 -0.059179 1.593295
v -0.039382 -0.084474 1.669752
v -0.035741 0.086715 1.689566
v -0.057984 0.067405 1.613070
v -0.053992 0.078414 1.635035
v 0.000166 -0.052662 1.716214
v -0.059737 0.080300 1.590991
v -0.068355 0.008354 1.566245
v 0.061729 0.011431 1.531479
v 0.045818 0.048770 1.513220
v 0.049510 -0.059099 1.593266
v 0.038928 -0.084430 1.669583
v 0.035374 0.086756 1.689599
v 0.057198 0.067507 1.613034
v 0.053141 0.078495 1.635004
v 0.058835 0.080402 1.590960
v 0.067565 0.008468 1.566208
v -0.060061 0.054479 1.669285
v 0.058502 0.054688 1.669947
v 0.080155 -0.009898 1.619055
v -0.080455 -0.009664 1.619624
v 0.067582 0.022243 1.626627
v -0.068203 0.022154 1.626667
v 0.070395 -0.025404 1.626033
v -0.071358 -0.025372 1.626276
v -0.017002 0.092336 1.575263
v 0.016161 0.092361 1.575254
v 0.005964 0.096744 1.618679
v 0.006319 0.119632 1.579204
v -0.000414 0.099048 1.641016
v -0.007019 0.096745 1.618683
v -0.000365 0.115225 1.570897
v 0.019868 0.089184 1.499956
v -0.020666 0.089139 1.499968
v 0.068316 -0.033735 1.677983
v -0.068241 -0.033721 1.677531
v -0.048601 -0.025869 1.706332
v 0.052056 0.034293 1.697546
v -0.028150 0.061673 1.716761
v 0.028012 0.061519 1.716584
v 0.048547 -0.025882 1.705457
v -0.053642 0.034302 1.698342
v 0.015057 0.087514 1.613375
v -0.016036 0.087463 1.613393
v -0.000422 0.102143 1.566694
v 0.018679 0.010027 1.725616
v -0.018581 0.010097 1.725742
v 0.047871 0.081416 1.542282
v -0.048715 0.081342 1.542304
v 0.016517 0.099823 1.535285
v -0.017339 0.099801 1.535291
v -0.007189 0.119626 1.579209
v -0.000426 0.053840 1.492939
v -0.000350 0.009289 1.506616
v -0.000396 -0.006588 1.555192
v -0.001784 -0.090479 1.602346
v -0.000227 -0.073864 1.578118
v -0.039382 -0.084474 1.669752
v -0.048601 -0.025869 1.706332
v -0.018581 0.010097 1.725742
v -0.000350 0.009289 1.506616
v -0.000396 -0.006588 1.555192
v -0.001784 -0.090479 1.602346
v -0.000227 -0.073864 1.578118
v -0.209250 0.090890 0.877300
v -0.199950 0.089340 0.877300
v -0.199950 0.067640 0.877300
v -0.209250 0.067640 0.877300
v -0.220100 0.101546 0.837000
v -0.201500 0.099028 0.833900
v -0.201500 0.078878 0.833900
v -0.217000 0.078296 0.837000
v -0.229400 0.111234 0.818400
v -0.223200 -0.004341 0.785098
v -0.213900 -0.007913 0.782301
v -0.204600 -0.006970 0.787895
v 0.209250 -0.084690 0.877300
v 0.199950 -0.086240 0.877300
v 0.199950 -0.107940 0.877300
v 0.209250 -0.107940 0.877300
v 0.220100 -0.089146 0.837000
v 0.201500 -0.092828 0.833900
v 0.201500 -0.112978 0.833900
v 0.217000 -0.112396 0.837000
v 0.229400 -0.086434 0.818400
v 0.223200 -0.001859 0.784300
v 0.213900 -0.004487 0.781200
v 0.204600 -0.005430 0.787400
vn 0.5729 0.8145 -0.0909
vn -0.5797 0.8112 -0.0768
vn 0.5792 0.8150 0.0177
vn -0.5908 0.8068 0.0067
vn 0.8838 0.4677 0.0130
vn -0.8833 0.4687 0.0095
vn -0.6122 -0.7878 0.0673
vn 0.6182 -0.7834 0.0644
vn 0.0002 -0.9979 0.0649
vn 0.0009 -0.9972 0.0743
vn -0.0072 0.9999 0.0107
vn 0.0004 0.9963 -0.0863
vn 0.9221 -0.3862 0.0256
vn -0.9193 -0.3925 0.0278
vn 0.5906 -0.8044 -0.0638
vn -0.5930 -0.8029 -0.0603
vn -0.0017 -0.9999 0.0130
vn -0.8826 0.4701 0.0073
vn 0.8819 0.4714 -0.0045
vn -0.5687 0.8085 -0.1514
vn 0.5743 0.7992 -0.1777
vn 0.8952 0.4403 -0.0686
vn -0.8936 0.4470 -0.0404
vn 0.1240 -0.9851 0.1195
vn -0.0781 -0.9739 0.2131
vn -0.0005 -0.9994 -0.0335
vn 0.0005 0.9866 -0.1629
vn 0.0058 0.9988 -0.0488
vn -0.0014 0.9954 -0.0962
vn 0.0763 -0.9953 -0.0596
vn -0.0775 -0.9951 -0.0619
vn 0.8293 -0.5315 -0.1728
vn -0.8315 -0.5295 -0.1679
vn 0.4478 -0.8881 -0.1038
vn -0.4541 -0.8846 -0.1060
vn -0.9142 -0.4052 0.0070
vn 0.9144 -0.4047 0.0063
vn 0.9437 -0.3172 -0.0943
vn -0.9428 -0.3208 -0.0911
vn 0.6321 -0.7666 0.1131
vn 0.9091 0.4105 0.0703
vn 0.6171 0.7824 0.0837
vn -0.6148 0.7828 0.0959
vn -0.9061 0.4135 0.0892
vn -0.6307 -0.7683 0.1095
vn -0.0075 0.9983 0.0579
vn 0.6008 -0.7992 0.0195
vn -0.6058 -0.7953 0.0219
vn 0.0007 -0.9983 -0.0581
vn 0.9417 -0.3239 0.0912
vn -0.9396 -0.3337 0.0766
vn 0.9130 0.3364 0.2310
vn 0.5977 0.7930 0.1178
vn -0.9013 0.3645 0.2340
vn -0.5873 0.8014 0.1132
vn -0.0018 0.9960 -0.0891
vn 0.1548 -0.5947 -0.7889
vn -0.1587 -0.5956 -0.7874
vn -0.2804 0.5423 -0.7920
vn 0.2090 -0.8700 -0.4466
vn -0.7211 0.6335 0.2804
vn 0.7232 0.6170 0.3103
vn -0.0004 -0.9379 -0.3470
vn -0.2145 -0.8709 -0.4422
vn 0.2779 0.6412 -0.7153
vn -0.3092 0.7081 -0.6348
vn 0.3050 -0.2119 -0.9285
vn -0.3067 -0.2179 -0.9266
vn -0.2603 0.9494 -0.1758
vn 0.2373 0.9615 -0.1385
vn -0.3043 -0.9073 -0.2901
vn 0.3027 -0.9072 -0.2923
vn -0.8925 -0.3924 0.2226
vn 0.8927 -0.3916 0.2229
vn 0.9602 -0.1430 0.2398
vn -0.9631 -0.1302 0.2356
vn -0.9755 0.0465 0.2151
vn 0.5446 -0.4565 -0.7035
vn 0.9729 0.0471 0.2266
vn -0.5634 -0.4489 -0.6936
vn 0.8359 -0.2736 -0.4758
vn -0.8443 -0.2699 -0.4629
vn 0.2998 -0.2188 -0.9286
vn -0.3631 -0.0026 -0.9318
vn 0.7275 0.3152 -0.6094
vn -0.7470 0.2962 -0.5952
vn 0.3465 0.4837 -0.8038
vn -0.8777 0.4264 -0.2188
vn -0.3422 0.9191 0.1955
vn 0.8124 0.5791 0.0681
vn 0.8015 -0.5950 -0.0599
vn -0.8404 -0.5107 -0.1814
vn -0.5375 0.8186 0.2023
vn 0.8588 0.5035 0.0948
vn -0.4188 -0.9026 -0.0993
vn -0.8176 -0.5752 -0.0274
vn 0.7911 -0.6033 -0.1014
vn 0.7927 0.6083 -0.0410
vn 0.8286 -0.5597 0.0109
vn 0.4811 0.0152 -0.8765
vn 0.3955 -0.9185 0.0030
vn 0.2226 0.9731 0.0590
vn 0.4023 -0.9115 -0.0853
vn 0.8303 0.5459 0.1126
vn 0.4885 0.8484 0.2038
vn 0.1968 0.9784 0.0638
vn -0.6437 0.7615 0.0756
vn 0.7563 -0.6520 0.0545
vn 0.4668 0.6360 -0.6145
vn 0.4087 -0.9000 -0.1519
vn 0.2746 0.9567 0.0970
vn 0.3830 -0.9172 -0.1097
vn 0.9990 -0.0405 -0.0206
vn 0.3058 -0.2780 -0.9106
vn 0.2522 -0.9671 -0.0346
vn -0.9468 -0.1722 -0.2717
vn -0.8799 0.1232 -0.4588
vn 0.2006 0.9769 0.0737
vn -0.3881 -0.9216 0.0071
vn 0.2898 0.9282 0.2332
vn 0.2762 0.9395 0.2027
vn 0.2815 -0.4847 -0.8282
vn 0.6093 0.7745 -0.1701
vn -0.4184 -0.9012 -0.1132
vn 0.9012 0.3297 -0.2814
vn -0.2708 0.9542 -0.1271
vn -0.8334 0.5463 -0.0841
vn -0.7843 -0.6129 0.0966
vn 0.7885 -0.6101 -0.0783
vn 0.9866 0.1541 0.0544
vn -0.8758 0.4675 -0.1205
vn 0.3688 -0.8938 0.2552
vn 0.7319 -0.6545 0.1894
vn -0.7794 -0.6228 0.0679
vn -0.8151 0.5727 -0.0873
vn -0.8158 -0.5749 0.0632
vn -0.3000 -0.2813 -0.9115
vn -0.3998 -0.9127 0.0839
vn -0.1820 0.9828 -0.0306
vn -0.4208 -0.9013 0.1034
vn -0.8337 0.5426 -0.1029
vn 0.7955 0.6016 -0.0726
vn 0.6121 0.7907 0.0080
vn 0.9116 0.3968 0.1070
vn -0.3023 0.4768 -0.8254
vn -0.2788 -0.4820 -0.8306
vn 0.4049 -0.8817 0.2422
vn 0.4264 0.9031 -0.0517
vn -0.3760 -0.8974 0.2307
vn -0.9991 -0.0416 0.0009
vn -0.3375 0.1548 -0.9285
vn -0.2692 -0.9611 -0.0619
vn 0.9483 -0.1513 -0.2792
vn -0.2446 0.9688 -0.0392
vn 0.8781 0.0836 -0.4711
vn 0.2521 -0.9390 0.2341
vn -0.3025 0.9349 -0.1855
vn -0.2760 0.9486 -0.1548
vn -0.6072 0.7790 -0.1563
vn -0.7496 -0.6582 0.0700
vn -0.4061 -0.8993 0.1627
vn -0.0032 0.9478 -0.3190
vn 0.7579 -0.4958 -0.4239
vn 0.8676 -0.0611 -0.4935
vn -0.0741 0.8199 -0.5677
vn -0.7567 -0.4954 -0.4266
vn -0.0013 -0.9424 -0.3344
vn 0.0139 -0.4937 -0.8695
vn 0.0750 0.8109 -0.5804
vn -0.8657 -0.0652 -0.4962
vn -0.0029 0.1554 -0.9878
vn -0.5891 0.8056 -0.0629
vn -0.9194 0.3905 -0.0467
vn -0.9218 -0.3792 -0.0807
vn -0.4274 -0.9030 -0.0446
vn -0.5806 0.8068 -0.1092
vn 0.8959 0.4159 0.1564
vn 0.0581 -0.9971 -0.0488
vn -0.6492 0.7424 0.1655
vn -0.5128 -0.8550 -0.0778
vn -0.7270 -0.6821 -0.0788
vn 0.7460 -0.6657 -0.0152
vn -0.6814 0.7295 0.0589
vn -0.5978 0.8016 0.0070
vn 0.6614 0.0700 0.7467
vn -0.4366 -0.8984 -0.0466
vn 0.1381 0.0215 0.9902
vn -0.0437 0.9988 0.0216
vn -0.9666 -0.2398 -0.0908
vn 0.0243 -0.9973 -0.0690
vn 0.6548 0.7369 0.1679
vn -0.0000 0.0002 1.0000
vn -0.5159 -0.8555 -0.0453
vn -0.9986 -0.0443 -0.0279
vn 0.9875 0.1328 0.0856
vn 0.1102 0.0040 0.9939
vn -0.9866 0.1468 0.0713
vn 0.9869 0.1450 0.0702
vn 0.0957 -0.9943 0.0464
vn -0.3990 0.9147 0.0640
vn -0.0000 0.0003 1.0000
vn -0.8976 0.4404 -0.0203
vn -0.6205 0.7614 0.1879
vn -0.9853 0.1465 0.0877
vn 0.5925 0.8041 -0.0487
vn 0.9151 0.3956 -0.0781
vn 0.9199 -0.3854 -0.0727
vn 0.4207 -0.9054 -0.0569
vn 0.5858 0.8027 -0.1117
vn 0.0510 -0.8514 0.5220
vn -0.9912 0.1247 0.0454
vn 0.6561 0.7513 -0.0713
vn 0.9885 0.1476 0.0337
vn -0.0738 -0.9744 0.2122
vn 0.0001 0.0001 1.0000
vn -0.7907 -0.5951 0.1438
vn 0.6002 0.7937 -0.0993
vn -0.6898 0.0572 0.7218
vn 0.4831 -0.8744 0.0449
vn 0.1085 -0.0051 0.9941
vn 0.0428 0.9984 -0.0359
vn -0.0192 -0.9760 0.2170
vn -0.6592 0.7484 -0.0724
vn 0.6901 0.7229 -0.0337
vn 0.9983 -0.0526 -0.0245
vn 0.2519 -0.0406 0.9669
vn -0.2170 0.8663 -0.4499
vn 0.5286 -0.8324 0.1666
vn 0.7685 -0.6372 0.0575
vn -0.9889 0.1455 0.0292
vn 0.6401 0.7587 -0.1213
vn -0.0630 -0.9953 0.0734
vn -0.2142 0.9722 -0.0942
vn 0.8910 0.4392 -0.1149
vn 0.9694 -0.2415 -0.0442
vn 0.9878 0.1475 0.0496
vn 0.5092 -0.8314 0.2222
vn -0.9953 0.0951 -0.0193
vn 0.4610 -0.8698 0.1756
vn 0.0170 -0.9761 0.2165
vn -0.9698 0.2437 -0.0066
vn -0.7079 0.7058 -0.0247
vn 0.9712 0.2373 -0.0191
vn 0.6542 0.7542 -0.0565
vn -0.4631 0.8812 -0.0948
vn 0.6251 0.7629 -0.1652
vn -0.6366 0.7551 -0.1567
vn 0.0044 -0.9614 0.2753
vn 0.4727 0.8755 -0.1004
vn -0.4646 -0.8649 0.1898
vn 0.9944 0.1018 -0.0289
vn -0.9754 0.1063 0.1932
vn -0.1039 -0.9940 0.0332
vn 0.9749 0.1181 0.1885
vn 0.4835 0.8712 0.0850
vn -0.3315 -0.4767 -0.8142
vn 0.6101 -0.2848 -0.7394
vn -0.9724 -0.2310 -0.0336
vn -0.0000 0.0013 1.0000
vn 0.9649 -0.2543 -0.0660
vn -0.5386 -0.8399 0.0668
vn 0.9663 0.1255 0.2248
vn -0.0143 -0.4511 -0.8924
vn -0.8069 0.5835 0.0915
vn 0.4845 0.8554 -0.1830
vn -0.5107 -0.8480 0.1413
vn 0.3432 -0.9306 0.1272
vn -0.9990 0.0300 -0.0322
vn 0.9770 0.1283 -0.1703
vn -0.9953 0.0445 -0.0856
vn -0.6687 0.7367 0.1003
vn 0.9807 0.1373 -0.1392
vn -0.9590 0.0008 0.2833
vn -0.9664 0.1118 0.2315
vn -0.4034 -0.2644 -0.8760
vn 0.9826 0.1288 -0.1336
vn 0.3669 -0.9292 0.0441
vn 0.3327 -0.4106 -0.8489
vn -0.0842 -0.9737 -0.2116
vn -0.5613 0.8162 -0.1366
vn 0.7303 0.6801 0.0643
vn 0.6599 -0.7512 -0.0169
vn 0.5056 -0.6799 -0.5312
vn -0.5751 -0.8173 -0.0348
vn -0.4383 -0.7191 -0.5392
vn -0.6838 -0.3703 -0.6287
vn 0.7135 -0.2336 -0.6606
vn 0.4481 -0.8856 -0.1223
vn -0.9950 0.0998 -0.0088
vn -0.0148 -0.9939 -0.1093
vn 0.9675 0.2436 0.0683
vn 0.6741 0.7114 0.1987
vn -0.9691 0.2393 0.0593
vn -0.6557 0.7350 0.1727
vn 0.4583 0.8705 0.1792
vn 0.6442 0.7584 0.0992
vn -0.6342 0.7672 0.0959
vn 0.0032 -0.9970 -0.0769
vn -0.4695 0.8658 0.1734
vn 0.9958 0.0920 -0.0021
vn -0.4472 -0.8849 -0.1304
vn 0.9731 0.1008 0.2074
vn 0.1038 -0.9588 -0.2646
vn -0.9703 0.1238 0.2078
vn -0.5442 0.7695 0.3342
vn -0.9838 0.1344 -0.1183
vn 0.9673 -0.2338 -0.0979
vn 0.9995 0.0240 -0.0190
vn 0.7041 0.6202 0.3457
vn -0.9867 0.1449 -0.0741
vn -0.9725 0.1259 0.1959
vn 0.9713 0.1031 0.2145
vn 0.0565 -0.8948 -0.4429
vn -0.6805 0.6953 0.2314
vn 0.6219 0.7669 0.1584
vn 0.5104 -0.8488 -0.1380
vn -0.3402 -0.9250 -0.1693
vn -0.0000 0.0012 1.0000
vn -0.5470 -0.2731 -0.7913
vn 0.9978 0.0411 -0.0518
vn 0.2494 -0.4610 -0.8517
vn -0.9576 -0.2547 -0.1345
vn -0.9867 0.1346 -0.0914
vn -0.3602 -0.9003 -0.2443
vn -0.3244 -0.3951 -0.8594
vn 0.9504 -0.0103 0.3109
vn 0.5276 -0.8247 -0.2036
vn 0.3993 -0.2778 -0.8738
vn 0.0212 -0.4240 -0.9054
vn -0.5875 0.8034 0.0970
vn 0.7418 0.6027 0.2941
vn -0.5940 -0.7670 -0.2426
vn -0.5083 -0.5986 -0.6191
vn 0.5003 -0.8196 -0.2791
vn 0.4511 -0.6313 -0.6308
vn 0.6636 -0.3423 -0.6652
vn -0.6971 -0.2190 -0.6827
vn -0.3210 0.9214 -0.2192
vn -0.8335 0.5182 -0.1915
vn 0.9868 0.1064 0.1224
vn 0.9890 -0.0585 0.1360
vn -0.3064 0.9341 -0.1835
vn -0.8562 -0.5096 -0.0850
vn -0.4543 -0.8898 0.0445
vn 0.5214 -0.8285 0.2040
vn 0.0730 -0.2705 0.9600
vn -0.9222 -0.3800 0.0710
vn 0.3928 0.8573 -0.3329
vn 0.0613 -0.1357 0.9888
vn 0.0311 0.0832 0.9960
vn -0.7729 -0.6270 -0.0970
vn 0.6738 -0.7160 0.1824
vn -0.3776 -0.0473 0.9247
vn 0.1846 -0.0723 0.9802
vn -0.3826 0.9087 -0.1673
vn -0.7739 0.6102 -0.1695
vn -0.3966 -0.9169 0.0446
vn 0.7852 0.5976 0.1622
vn 0.7930 0.6088 0.0225
vn 0.1966 -0.9606 0.1963
vn 0.6259 -0.7530 0.2032
vn -0.0588 -0.3768 0.9244
vn 0.0936 -0.9783 0.1849
vn -0.3955 -0.1654 0.9035
vn -0.3598 0.0457 0.9319
vn -0.0590 0.1335 0.9893
vn -0.8808 0.4680 -0.0714
vn -0.3805 -0.0639 0.9226
vn 0.5748 0.7627 -0.2964
vn -0.9969 0.0789 -0.0062
vn 0.9945 0.0106 0.1039
vn 0.7675 0.6310 0.1129
vn 0.3825 -0.9056 0.1830
vn 0.5246 0.8501 0.0450
vn 0.8497 0.5270 0.0152
vn -0.5080 0.8572 0.0841
vn -0.4765 0.8662 0.1506
vn 0.5732 0.8149 0.0861
vn 0.8421 -0.4781 -0.2497
vn 0.4285 -0.8619 -0.2713
vn -0.7362 -0.6723 -0.0777
vn -0.0671 0.1147 0.9911
vn -0.5827 -0.8067 -0.0986
vn -0.0936 -0.9780 -0.1864
vn 0.8881 0.4502 0.0929
vn -0.0943 -0.2224 0.9704
vn 0.7483 -0.6164 -0.2451
vn -0.8334 -0.5482 -0.0698
vn 1.0000 0.0004 -0.0017
vn -0.9861 -0.1045 0.1289
vn 0.5077 0.8549 0.1064
vn 0.7685 0.6375 0.0556
vn -0.3939 -0.8997 -0.1880
vn 0.3014 0.9363 0.1804
vn 0.2961 0.9438 0.1470
vn -0.2055 -0.9643 -0.1672
vn -0.6758 0.6067 0.4185
vn -0.1507 -0.3517 0.9239
vn 0.0517 -0.5568 0.8290
vn 0.5373 -0.2166 0.8151
vn 0.9117 -0.4021 -0.0845
vn 0.0407 0.1766 0.9834
vn -0.0130 0.9163 0.4003
vn 0.4378 0.0805 0.8955
vn 0.5013 -0.0911 0.8605
vn 0.4800 -0.0285 0.8768
vn -0.2554 -0.0714 0.9642
vn 0.3610 0.9232 0.1317
vn 0.3879 -0.8835 -0.2625
vn 0.7352 0.4884 0.4701
vn 0.7016 -0.0399 0.7114
vn 0.6652 0.5925 0.4543
vn 0.7761 0.6291 -0.0438
vn 0.4613 -0.7817 -0.4198
vn 0.8263 -0.5414 -0.1554
vn 0.7256 -0.6844 0.0709
vn -0.0067 0.5152 -0.8571
vn 0.7435 -0.6577 -0.1210
vn 0.9009 0.2643 0.3442
vn -0.7361 0.4877 0.4695
vn -0.7008 -0.0408 0.7122
vn -0.6640 0.5956 0.4520
vn -0.4888 0.8243 -0.2859
vn -0.4689 -0.7764 -0.4211
vn -0.8251 -0.5435 -0.1542
vn -0.7262 -0.6840 0.0687
vn -0.7420 -0.6595 -0.1205
vn -0.9011 0.2630 0.3448
vn 0.9299 -0.2957 -0.2187
vn -0.9288 -0.2904 -0.2302
vn -0.9650 0.1689 -0.2007
vn 0.9654 0.1472 -0.2153
vn -0.9789 -0.1766 -0.1027
vn 0.9798 -0.1781 -0.0910
vn -0.9534 0.3017 -0.0051
vn 0.9538 0.3004 -0.0060
vn 0.5340 -0.8439 -0.0526
vn -0.5327 -0.8446 -0.0540
vn -0.3747 -0.9236 -0.0813
vn -0.5463 -0.8322 0.0944
vn 0.0005 -0.9993 -0.0370
vn 0.3775 -0.9225 -0.0808
vn -0.0028 -0.5410 0.8410
vn -0.3706 -0.5902 0.7171
vn 0.3712 -0.5899 0.7171
vn -0.9181 0.2459 -0.3109
vn 0.9185 0.2498 -0.3064
vn 0.3773 0.3743 -0.8471
vn -0.8216 -0.1566 -0.5481
vn 0.3604 -0.4160 -0.8349
vn -0.3771 -0.4102 -0.8304
vn -0.6159 0.2264 -0.7546
vn 0.8165 -0.1548 -0.5562
vn -0.5329 -0.8387 0.1120
vn 0.5361 -0.8364 0.1137
vn 0.0020 -0.8764 0.4816
vn -0.2713 0.0080 -0.9625
vn 0.5729 -0.0363 -0.8188
vn -0.7848 -0.5680 0.2481
vn 0.7853 -0.5671 0.2483
vn -0.2614 -0.9573 0.1231
vn 0.2626 -0.9570 0.1234
vn 0.5466 -0.8317 0.0972
vn 0.0003 0.1167 0.9932
vn -0.3073 0.6240 0.7185
vn 0.2255 0.7071 0.6702
vn -0.3167 0.9209 0.2271
vn 0.3554 0.5844 0.7295
vn 0.1383 0.8694 -0.4744
vn 0.7472 0.1225 -0.6532
vn 0.0761 0.0301 -0.9966
vn 0.3070 0.6245 0.7182
vn -0.2259 0.7069 0.6702
vn 0.4551 0.8084 0.3733
vn -0.3576 0.6063 0.7103
vn -0.6232 0.7108 0.3262
vn 0.8110 0.5764 0.1001
vn 0.6438 -0.7345 -0.2146
vn -0.5875 -0.8056 -0.0761
vn -0.7342 0.4646 0.4951
vn 0.7466 0.6625 0.0608
vn 0.4585 -0.2738 -0.8454
vn -0.6683 -0.4312 -0.6062
vn -0.8626 -0.1362 0.4872
vn -0.2367 0.3939 -0.8881
vn -0.4784 -0.8602 0.1764
vn -0.3101 -0.7076 0.6349
vn 0.5575 0.8296 0.0305
vn -0.7350 0.6661 -0.1269
vn -0.7377 -0.6733 0.0505
vn 0.6454 -0.7282 0.2307
vn 0.5254 0.8344 0.1663
vn -0.7325 0.3330 -0.5938
vn -0.8399 -0.5424 0.0204
vn 0.6584 -0.7111 0.2468
vn -0.5554 -0.2892 -0.7796
vn -0.4646 0.0608 0.8835
vn -0.1076 -0.6903 0.7155
vn 0.1877 -0.9731 0.1335
vt 0.665969 0.669257
vt 0.622885 0.710336
vt 0.665903 0.713295
vt 0.433020 0.670552
vt 0.386724 0.669302
vt 0.432087 0.708712
vt 0.386779 0.713646
vt 0.385100 0.761452
vt 0.667685 0.761276
vt 0.628489 0.767164
vt 0.972847 0.713340
vt 0.928433 0.667209
vt 0.973318 0.669307
vt 0.621889 0.670471
vt 0.523848 0.670523
vt 0.523871 0.709537
vt 0.523871 0.766773
vt 0.426450 0.766352
vt 0.928815 0.699798
vt 0.734581 0.713691
vt 0.775471 0.667220
vt 0.774899 0.699799
vt 0.769317 0.752144
vt 0.733797 0.761491
vt 0.975033 0.761316
vt 0.853199 0.695656
vt 0.853359 0.667204
vt 0.853234 0.747213
vt 0.931982 0.752144
vt 0.735421 0.669352
vt 0.378018 0.831177
vt 0.415028 0.840899
vt 0.674866 0.831177
vt 0.523683 0.844063
vt 0.639896 0.840899
vt 0.726716 0.831209
vt 0.982213 0.831209
vt 0.937990 0.804490
vt 0.853278 0.798768
vt 0.763332 0.804490
vt 0.372273 0.861821
vt 0.638565 0.877936
vt 0.680410 0.861283
vt 0.416084 0.878633
vt 0.417358 0.907382
vt 0.469175 0.927109
vt 0.523614 0.927549
vt 0.578474 0.927109
vt 0.637305 0.906676
vt 0.944530 0.875809
vt 0.853298 0.858864
vt 0.990067 0.862053
vt 0.997757 0.861312
vt 0.718626 0.862555
vt 0.929901 0.905164
vt 0.878729 0.903298
vt 0.771588 0.905789
vt 0.756974 0.876446
vt 0.828284 0.903298
vt 0.808841 0.927131
vt 0.932248 0.930427
vt 0.898133 0.927131
vt 0.427177 0.941069
vt 0.881367 0.981061
vt 0.853823 0.977381
vt 0.810404 0.992847
vt 0.826278 0.981061
vt 0.547835 0.992652
vt 0.500739 0.992832
vt 0.897494 0.992667
vt 0.853090 0.997471
vt 0.523428 0.997457
vt 0.431494 0.650658
vt 0.523163 0.645731
vt 0.432753 0.597658
vt 0.522611 0.554008
vt 0.431122 0.559704
vt 0.522907 0.592334
vt 0.386762 0.657816
vt 0.373312 0.575255
vt 0.621989 0.650664
vt 0.665776 0.658051
vt 0.680257 0.575262
vt 0.613705 0.597664
vt 0.615411 0.559710
vt 0.876474 0.553606
vt 0.830352 0.553619
vt 0.851755 0.536710
vt 0.853279 0.591092
vt 0.898631 0.630255
vt 0.810311 0.630253
vt 0.735459 0.657866
vt 0.753379 0.598202
vt 0.765127 0.632711
vt 0.729860 0.575314
vt 0.936524 0.593306
vt 0.955294 0.598198
vt 0.943874 0.632704
vt 0.973124 0.658101
vt 0.979101 0.575321
vt 0.772410 0.593302
vt 0.774642 0.630261
vt 0.736794 0.385313
vt 0.750308 0.395301
vt 0.716809 0.395366
vt 0.769392 0.568478
vt 0.794046 0.302035
vt 0.794762 0.316313
vt 0.740219 0.313049
vt 0.796543 0.357334
vt 0.383672 0.312961
vt 0.382328 0.357283
vt 0.417579 0.357365
vt 0.796543 0.385282
vt 0.417679 0.385319
vt 0.380247 0.385234
vt 0.430026 0.537952
vt 0.842408 0.357365
vt 0.510852 0.311989
vt 0.467821 0.310485
vt 0.469112 0.357364
vt 0.850767 0.385399
vt 0.499617 0.395366
vt 0.475256 0.385319
vt 0.419160 0.395343
vt 0.516813 0.537979
vt 0.840515 0.312076
vt 0.479795 0.240744
vt 0.501729 0.088272
vt 0.465812 0.088541
vt 0.793180 0.088893
vt 0.843921 0.088383
vt 0.419053 0.310935
vt 0.381413 0.088986
vt 0.408458 0.241605
vt 0.430831 0.088035
vt 0.744618 0.089097
vt 0.420516 0.242834
vt 0.466773 0.244038
vt 0.792805 0.080029
vt 0.741567 0.055840
vt 0.837464 0.064628
vt 0.385083 0.075974
vt 0.431824 0.055105
vt 0.436465 0.036660
vt 0.463318 0.055355
vt 0.840287 0.075328
vt 0.378362 0.055725
vt 0.508095 0.075215
vt 0.505271 0.064514
vt 0.775621 0.019416
vt 0.810578 0.033466
vt 0.776540 0.032740
vt 0.811241 0.019412
vt 0.840331 0.006654
vt 0.822807 0.051908
vt 0.763224 0.046591
vt 0.738745 0.006654
vt 0.459892 0.036656
vt 0.375539 0.006537
vt 0.748287 0.076087
vt 0.939354 0.568376
vt 0.958253 0.395302
vt 0.912014 0.385284
vt 0.970328 0.357367
vt 0.972409 0.385315
vt 0.914466 0.301816
vt 0.913795 0.316060
vt 0.865425 0.312853
vt 0.992399 0.395367
vt 0.628114 0.395344
vt 0.616593 0.538074
vt 0.629590 0.385321
vt 0.693556 0.395287
vt 0.673564 0.385235
vt 0.671483 0.357285
vt 0.670139 0.313736
vt 0.630997 0.357367
vt 0.863532 0.357367
vt 0.846617 0.527719
vt 0.858625 0.527685
vt 0.533870 0.357284
vt 0.581358 0.385321
vt 0.579464 0.357366
vt 0.853709 0.385401
vt 0.546636 0.395367
vt 0.912014 0.357336
vt 0.535764 0.312765
vt 0.544898 0.088326
vt 0.569437 0.240895
vt 0.585194 0.088516
vt 0.858319 0.088437
vt 0.911835 0.089051
vt 0.629523 0.310740
vt 0.640773 0.241358
vt 0.670450 0.089059
vt 0.620176 0.087991
vt 0.960872 0.089171
vt 0.968984 0.313824
vt 0.580755 0.310389
vt 0.582458 0.243641
vt 0.628716 0.242512
vt 0.667170 0.075984
vt 0.674281 0.055671
vt 0.619676 0.055055
vt 0.615527 0.036606
vt 0.677103 0.006482
vt 0.912608 0.080081
vt 0.957592 0.076096
vt 0.964703 0.055786
vt 0.538189 0.075233
vt 0.588167 0.055316
vt 0.542142 0.064459
vt 0.592116 0.036601
vt 0.865563 0.064573
vt 0.880684 0.051853
vt 0.942582 0.046536
vt 0.892912 0.033412
vt 0.930190 0.019361
vt 0.929271 0.032685
vt 0.892249 0.019357
vt 0.862696 0.006599
vt 0.967525 0.006599
vt 0.861610 0.075346
vt 0.769276 0.931092
vt 0.627452 0.940403
vt 0.710972 0.861849
vt 0.126824 0.340942
vt 0.064275 0.276097
vt 0.057506 0.431516
vt 0.119026 0.277718
vt 0.151719 0.278993
vt 0.154673 0.345378
vt 0.325092 0.260688
vt 0.325008 0.278993
vt 0.300703 0.276506
vt 0.306068 0.332941
vt 0.246732 0.275094
vt 0.030226 0.311103
vt 0.041830 0.275598
vt 0.239925 0.469567
vt 0.221962 0.485307
vt 0.236991 0.420157
vt 0.986526 0.920843
vt 0.980796 0.939300
vt 0.309211 0.417044
vt 0.310321 0.471735
vt 0.683502 0.891961
vt 0.991550 0.890797
vt 0.677258 0.921677
vt 0.324121 0.486268
vt 0.331839 0.421052
vt 0.122407 0.490568
vt 0.160832 0.486269
vt 0.124024 0.438600
vt 0.271935 0.499996
vt 0.060969 0.487396
vt 0.673448 0.949279
vt 0.207100 0.425844
vt 0.327962 0.345378
vt 0.018672 0.485308
vt 0.023811 0.425844
vt 0.234707 0.492146
vt 0.314705 0.494782
vt 0.158550 0.421052
vt 0.319997 0.217921
vt 0.322545 0.239298
vt 0.299604 0.250029
vt 0.117733 0.250367
vt 0.151803 0.260688
vt 0.225053 0.261079
vt 0.219246 0.206670
vt 0.246565 0.262799
vt 0.041764 0.261079
vt 0.064310 0.259353
vt 0.114161 0.202636
vt 0.054639 0.198333
vt 0.146708 0.217921
vt 0.149256 0.239298
vt 0.243460 0.218497
vt 0.300301 0.218190
vt 0.219099 0.063276
vt 0.131797 0.056782
vt 0.035810 0.063276
vt 0.050075 0.062719
vt 0.072746 0.051513
vt 0.079408 0.060154
vt 0.263852 0.060294
vt 0.256035 0.051513
vt 0.305086 0.056782
vt 0.064599 0.760898
vt 0.057613 0.605475
vt 0.030467 0.725821
vt 0.126997 0.696307
vt 0.119393 0.757881
vt 0.154799 0.691337
vt 0.150722 0.755921
vt 0.300949 0.759073
vt 0.306271 0.703935
vt 0.328088 0.691337
vt 0.225406 0.761334
vt 0.213756 0.725821
vt 0.246983 0.761766
vt 0.309204 0.619644
vt 0.311121 0.564956
vt 0.324129 0.550528
vt 0.375441 0.922378
vt 0.379426 0.949279
vt 0.160840 0.550528
vt 0.124125 0.598303
vt 0.158601 0.615730
vt 0.238967 0.567243
vt 0.271868 0.536446
vt 0.236991 0.616665
vt 0.207144 0.611051
vt 0.221985 0.551626
vt 0.234151 0.544663
vt 0.369214 0.892687
vt 0.717114 0.891405
vt 0.122514 0.546386
vt 0.061081 0.549605
vt 0.728124 0.939300
vt 0.315128 0.541928
vt 0.722147 0.921471
vt 0.018696 0.551626
vt 0.331890 0.615730
vt 0.023855 0.611052
vt 0.147186 0.818476
vt 0.147731 0.796983
vt 0.116760 0.787063
vt 0.298568 0.787230
vt 0.324011 0.755921
vt 0.148276 0.775502
vt 0.321565 0.775502
vt 0.055184 0.838376
vt 0.064744 0.777498
vt 0.042168 0.775684
vt 0.246938 0.773864
vt 0.225457 0.775683
vt 0.114706 0.834010
vt 0.321020 0.796983
vt 0.300765 0.818150
vt 0.320474 0.818476
vt 0.243911 0.817863
vt 0.219741 0.829833
vt 0.264028 0.975435
vt 0.305477 0.979045
vt 0.079730 0.975591
vt 0.050105 0.972979
vt 0.036452 0.829833
vt 0.035772 0.972431
vt 0.071250 0.987297
vt 0.132188 0.979045
vt 0.115837 0.978743
vt 0.254539 0.987296
vt 0.219061 0.972431
vt 0.549275 0.006482
vt 0.498139 0.006537
vt 0.512745 0.357283
vt 0.738875 0.357366
vt 0.360259 0.395286
vt 0.528931 0.537953
vt 0.115224 0.056994
vt 0.042117 0.761335
vt 0.225119 0.275598
vt 0.035957 0.206670
vt 0.213515 0.311103
vt 0.528963 0.369448
vt 0.516954 0.369482
vt 0.934489 0.630258
vt 0.905387 0.412259
vt 0.830238 0.540211
vt 0.939179 0.716244
vt 0.631596 0.481351
vt 0.730823 0.538345
vt 0.617232 0.393167
vt 0.999848 0.353271
vt 0.998083 0.257840
vt 0.765503 0.300529
vt 0.601151 0.200653
vt 0.760884 0.163043
vt 0.060670 0.715483
vt 0.169082 0.539093
vt 0.094455 0.412028
vt 0.234659 0.300225
vt 0.269489 0.538030
vt 0.383737 0.392904
vt 0.239158 0.162758
vt -0.005354 0.064715
vt -0.001917 0.257840
vt 0.399872 0.200454
vt 0.468957 0.171514
vt 0.994646 0.064715
vt -0.000152 0.353271
vt -0.002483 0.450220
vt 0.997517 0.450220
vt -0.060821 0.716244
vt -0.143479 0.856629
vt 0.000832 0.897551
vt 0.688645 0.820741
vt 0.582015 0.891548
vt 0.856521 0.856629
vt 0.348120 0.706927
vt 0.154757 0.745017
vt 0.795677 0.512803
vt 0.312637 0.817477
vt 0.653858 0.704461
vt 0.610534 0.567371
vt 0.571377 0.782281
vt 0.203890 0.510393
vt 0.369252 0.481074
vt 0.390383 0.567122
vt 0.428743 0.782327
vt 0.845682 0.743381
vt 0.652514 0.088101
vt 0.488266 0.501345
vt 0.467019 0.330020
vt 0.467482 0.481036
vt 0.348633 0.087934
vt 0.500497 0.589470
vt 0.501323 0.007467
vt 0.457442 0.032644
vt 0.543736 0.032739
vt 0.513207 0.501378
vt 0.533986 0.481144
vt 0.490219 0.343687
vt 0.534125 0.330095
vt 0.500533 0.295504
vt 0.500373 0.311181
vt 0.510698 0.343722
vt 0.532099 0.171578
vt 0.143888 0.853064
vt 0.417290 0.890797
vt 0.232631 0.930197
vt 0.767180 0.930729
vt -0.232820 0.930729
vt 0.200000 0.400000
vt 0.250000 0.400000
vt 0.250000 0.300000
vt 0.200000 0.300000
vt 0.250000 0.350000
vt 0.250000 0.250000
vt 0.200000 0.350000
vt 0.200000 0.250000
vt 0.180000 0.220000
vt 0.200000 0.150000
vt 0.230000 0.150000
vt 0.260000 0.150000
s 1
usemtl npc_kapten_kuro_mat
f 18/1/18 4/2/4 6/3/6
f 1/4/1 19/5/19 3/6/3
f 5/7/5 41/8/41 3/6/3
f 44/9/44 4/2/4 43/10/43
f 5/7/5 3/6/3 19/5/19
f 14/11/14 16/12/16 36/13/36
f 2/14/2 12/15/12 11/16/11
f 1/4/1 3/6/3 11/16/11
f 46/17/46 3/6/3 42/18/42
f 7/19/7 16/12/16 14/11/14
f 13/20/13 15/21/15 8/22/8
f 8/22/8 40/23/40 50/24/50
f 7/19/7 14/11/14 51/25/51
f 16/12/16 7/19/7 9/26/9
f 15/21/15 17/27/17 9/26/9
f 8/22/8 15/21/15 9/26/9
f 9/26/9 10/28/10 40/23/40
f 9/26/9 7/19/7 45/29/45
f 17/27/17 16/12/16 9/26/9
f 4/2/4 18/1/18 2/14/2
f 13/20/13 37/30/37 15/21/15
f 10/28/10 9/26/9 45/29/45
f 9/26/9 40/23/40 8/22/8
f 8/22/8 50/24/50 13/20/13
f 41/8/41 42/18/42 3/6/3
f 4/2/4 11/16/11 46/17/46
f 6/3/6 4/2/4 44/9/44
f 7/19/7 51/25/51 45/29/45
f 43/10/43 4/2/4 46/17/46
f 52/31/52 53/32/53 42/18/42
f 54/33/54 44/9/44 43/10/43
f 43/10/43 46/17/46 56/34/56
f 43/10/43 56/34/56 55/35/55
f 50/24/50 40/23/40 75/36/75
f 45/29/45 76/37/76 48/38/48
f 49/39/49 10/28/10 48/38/48
f 47/40/47 40/23/40 10/28/10
f 47/40/47 10/28/10 49/39/49
f 40/23/40 47/40/47 75/36/75
f 10/28/10 45/29/45 48/38/48
f 45/29/45 51/25/51 76/37/76
f 54/33/54 43/10/43 55/35/55
f 42/18/42 53/32/53 56/34/56
f 41/8/41 52/31/52 42/18/42
f 46/17/46 42/18/42 56/34/56
f 53/32/53 52/31/52 62/41/62
f 69/42/69 61/43/61 55/35/55
f 53/32/53 70/44/70 56/34/56
f 87/45/87 65/46/65 162/47/162
f 69/42/69 56/34/56 162/47/162
f 66/48/66 59/49/59 162/47/162
f 71/50/71 63/51/63 48/38/48
f 73/52/73 76/37/76 77/53/77
f 63/51/63 49/39/49 48/38/48
f 61/43/61 54/33/54 55/35/55
f 47/40/47 74/54/74 75/36/75
f 47/40/47 49/39/49 63/51/63
f 58/55/58 64/56/64 63/51/63
f 63/51/63 57/57/57 72/58/72
f 57/57/57 60/59/60 81/60/81
f 58/55/58 68/61/68 82/62/82
f 64/56/64 60/59/60 63/51/63
f 82/62/82 64/56/64 58/55/58
f 63/51/63 60/59/60 57/57/57
f 70/44/70 162/47/162 56/34/56
f 67/63/67 65/46/65 87/45/87
f 59/49/59 69/42/69 162/47/162
f 166/64/166 167/65/167 64/56/64
f 167/65/167 60/59/60 64/56/64
f 164/66/164 81/60/81 163/67/163
f 81/60/81 60/59/60 163/67/163
f 165/68/165 162/47/162 169/69/169
f 66/48/66 162/47/162 165/68/165
f 166/64/166 82/62/82 170/70/170
f 166/64/166 64/56/64 82/62/82
f 167/65/167 163/67/163 60/59/60
f 162/47/162 65/46/65 169/69/169
f 167/65/167 166/64/166 168/71/168
f 163/67/163 167/65/167 168/71/168
f 171/72/171 165/68/165 169/69/169
f 163/67/163 168/71/168 164/66/164
f 166/64/166 170/70/170 168/71/168
f 21/73/21 1/4/1 27/74/27
f 215/75/209 28/76/28 211/77/205
f 29/78/29 215/75/209 27/74/27
f 22/79/22 19/5/19 1/4/1
f 21/73/21 22/79/22 1/4/1
f 212/80/206 22/79/22 215/75/209
f 212/80/206 215/75/209 211/77/205
f 27/74/27 2/14/2 20/81/20
f 23/82/23 2/14/2 18/1/18
f 20/81/20 2/14/2 23/82/23
f 173/83/173 176/84/176 23/82/23
f 173/83/173 172/85/172 176/84/176
f 24/86/24 25/87/25 216/88/210
f 26/89/26 31/90/31 30/91/30
f 38/92/38 15/21/15 37/30/37
f 213/93/207 32/94/32 38/92/38
f 213/93/207 38/92/38 234/95/225
f 175/96/175 31/90/31 26/89/26
f 175/96/175 174/97/174 33/98/33
f 33/98/33 39/99/39 16/12/16
f 16/12/16 39/99/39 36/13/36
f 174/97/174 194/100/194 39/99/39
f 27/74/27 1/4/1 12/15/12
f 176/84/176 28/76/28 29/78/29
f 27/74/27 176/84/176 29/78/29
f 26/89/26 24/86/24 175/96/175
f 17/27/17 31/90/31 16/12/16
f 32/94/32 214/101/208 34/102/34
f 30/91/30 15/21/15 34/102/34
f 21/73/21 27/74/27 215/75/209
f 22/79/22 21/73/21 215/75/209
f 23/82/23 176/84/176 20/81/20
f 20/81/20 176/84/176 27/74/27
f 29/78/29 28/76/28 215/75/209
f 28/76/28 176/84/176 172/85/172
f 233/103/215 221/104/215 229/105/215
f 226/106/219 213/93/207 239/104/229
f 253/107/240 261/108/248 252/109/239
f 252/109/239 261/108/248 230/110/222
f 264/111/251 219/112/213 218/113/212
f 226/106/219 220/114/214 25/87/25
f 232/115/224 219/112/213 248/116/236
f 224/117/217 212/80/206 211/77/205
f 222/118/216 220/114/214 230/110/222
f 251/119/238 260/120/247 231/121/223
f 25/87/25 222/118/216 216/88/210
f 25/87/25 220/114/214 222/118/216
f 222/118/216 217/122/211 216/88/210
f 239/104/229 213/93/207 234/95/225
f 227/123/220 235/124/226 223/125/192
f 28/76/28 228/126/221 224/117/217
f 226/106/219 25/87/25 214/101/208
f 263/127/250 222/118/216 230/110/222
f 260/120/247 251/119/238 254/128/241
f 265/129/252 255/130/242 254/128/241
f 266/131/253 279/132/266 263/127/250
f 265/129/252 254/128/241 251/119/238
f 218/113/212 259/133/246 264/111/251
f 267/134/254 256/135/243 257/136/244
f 267/134/254 264/111/251 256/135/243
f 280/137/267 266/131/253 252/109/239
f 260/120/247 259/133/246 218/113/212
f 257/136/244 256/135/243 262/138/249
f 258/139/245 255/130/242 257/136/244
f 266/131/253 253/107/240 252/109/239
f 263/127/250 253/107/240 266/131/253
f 259/133/246 258/139/245 262/138/249
f 255/130/242 258/139/245 254/128/241
f 276/140/263 270/141/257 269/142/256
f 275/143/262 257/136/244 278/144/265
f 268/145/255 299/144/281 277/146/264
f 255/130/242 298/146/280 278/144/265
f 297/140/279 274/147/261 266/131/253
f 299/144/281 283/148/269 294/143/276
f 291/149/273 282/150/268 277/146/264
f 292/149/274 255/130/242 265/129/252
f 300/151/282 303/152/285 301/153/283
f 303/152/285 300/151/282 302/154/284
f 271/155/258 303/152/285 302/154/284
f 303/152/285 304/156/286 301/153/283
f 305/157/287 273/158/260 300/151/282
f 305/157/287 269/142/256 270/141/257
f 301/153/283 305/157/287 300/151/282
f 284/155/259 307/154/259 306/151/259
f 306/151/259 288/158/259 284/155/259
f 281/145/259 272/159/259 289/160/259
f 295/161/277 266/131/253 280/137/267
f 175/96/175 186/162/186 174/97/174
f 174/97/174 186/162/186 181/163/181
f 24/86/24 178/164/178 186/162/186
f 178/164/178 180/165/180 193/166/193
f 310/167/290 318/168/298 308/169/288
f 189/170/189 194/100/194 181/163/181
f 183/171/183 184/172/184 173/83/173
f 192/173/192 204/174/201 208/175/201
f 198/176/197 309/177/289 179/178/179
f 216/88/210 182/179/182 24/86/24
f 318/168/298 182/179/182 308/169/288
f 182/179/182 178/164/178 24/86/24
f 216/88/210 225/180/218 185/181/185
f 200/182/198 177/183/177 191/184/191
f 216/88/210 185/181/185 195/185/195
f 179/178/179 207/173/203 198/176/197
f 201/171/192 196/183/196 187/186/187
f 201/171/192 192/173/192 196/183/196
f 178/164/178 190/187/190 180/165/180
f 318/168/298 180/165/180 190/187/190
f 200/182/198 191/184/191 320/188/300
f 322/189/302 311/190/291 312/191/292
f 322/189/302 320/188/300 311/190/291
f 336/192/316 323/193/303 308/169/288
f 317/194/297 309/177/289 313/195/293
f 309/177/289 324/196/304 313/195/293
f 324/196/304 314/197/294 313/195/293
f 337/198/317 321/199/301 323/193/303
f 316/200/296 179/178/179 317/194/297
f 314/197/294 312/191/292 315/201/295
f 311/190/291 315/201/295 312/191/292
f 323/193/303 321/199/301 310/167/290
f 308/169/288 323/193/303 310/167/290
f 316/200/296 315/201/295 311/190/291
f 314/197/294 315/201/295 319/202/299
f 331/203/311 314/197/294 324/196/304
f 348/203/323 326/204/306 334/205/314
f 325/206/305 334/205/314 330/207/310
f 333/208/313 349/209/324 323/193/303
f 354/208/329 339/210/319 350/209/325
f 332/211/312 312/191/292 335/212/315
f 351/211/326 356/212/331 328/213/308
f 325/206/305 329/214/309 356/212/331
f 312/191/292 314/197/294 355/205/330
f 343/215/321 361/216/336 362/217/337
f 360/218/335 357/219/332 358/220/333
f 359/221/334 357/219/332 360/218/335
f 327/222/307 359/221/334 360/218/335
f 361/216/336 327/222/307 360/218/335
f 339/210/319 362/217/337 345/223/322
f 362/217/337 357/219/332 345/223/322
f 363/219/318 364/221/318 340/222/318
f 363/219/318 340/222/318 346/223/318
f 352/224/327 323/193/303 336/192/316
f 57/57/57 81/60/81 83/225/83
f 84/226/84 59/49/59 66/48/66
f 55/35/55 56/34/56 69/42/69
f 70/44/70 87/45/87 162/47/162
f 53/32/53 62/41/62 70/44/70
f 48/38/48 73/52/73 71/50/71
f 58/55/58 63/51/63 71/50/71
f 63/51/63 72/58/72 47/40/47
f 48/38/48 76/37/76 73/52/73
f 47/40/47 72/58/72 74/54/74
f 74/54/74 79/227/79 75/36/75
f 144/228/144 133/229/133 129/230/129
f 144/228/144 130/231/130 133/229/133
f 142/232/142 130/231/130 143/233/143
f 365/234/338 157/235/157 131/236/131
f 131/236/131 141/237/141 134/238/134
f 129/230/129 133/229/133 132/239/132
f 133/229/133 147/240/147 132/239/132
f 136/241/136 138/242/138 128/243/128
f 146/244/146 137/245/137 58/55/58
f 136/241/136 128/243/128 127/246/127
f 135/247/135 136/241/136 127/246/127
f 69/42/69 59/49/59 139/248/139
f 71/50/71 73/52/73 152/249/152
f 145/250/145 139/248/139 59/49/59
f 154/251/154 127/246/127 126/252/126
f 78/253/78 155/254/155 125/255/125
f 135/247/135 150/256/150 136/241/136
f 125/255/125 129/230/129 85/257/85
f 68/61/68 58/55/58 137/245/137
f 151/258/151 59/49/59 84/226/84
f 127/246/127 154/251/154 135/247/135
f 128/243/128 138/242/138 140/259/140
f 126/252/126 141/237/141 158/260/158
f 153/261/153 129/230/129 156/262/156
f 136/241/136 160/263/160 138/242/138
f 135/247/135 159/264/159 150/256/150
f 155/254/155 148/265/148 125/255/125
f 369/266/342 382/267/355 366/268/339
f 130/231/130 367/269/340 133/229/133
f 141/237/141 127/246/127 128/243/128
f 157/235/157 158/260/158 131/236/131
f 131/236/131 158/260/158 141/237/141
f 143/233/143 130/231/130 144/228/144
f 130/231/130 142/232/142 385/270/358
f 365/234/338 131/236/131 366/268/339
f 131/236/131 134/238/134 366/268/339
f 130/231/130 385/270/358 367/269/340
f 384/271/357 371/272/344 378/273/351
f 400/274/373 147/240/147 379/275/352
f 368/276/341 372/277/345 379/275/352
f 379/275/352 367/269/340 368/276/341
f 386/278/359 368/276/341 367/269/340
f 367/269/340 385/270/358 399/279/372
f 370/280/343 383/281/356 366/268/339
f 134/238/134 378/273/351 366/268/339
f 378/273/351 370/280/343 366/268/339
f 370/280/343 371/272/344 374/282/347
f 386/278/359 375/283/348 368/276/341
f 389/284/362 373/285/346 376/286/349
f 376/286/349 373/285/346 381/287/354
f 380/288/353 395/289/368 392/290/365
f 96/291/96 92/292/92 95/293/95
f 107/294/107 96/291/96 93/295/93
f 106/296/106 93/295/93 105/297/105
f 94/298/94 104/299/104 121/300/121
f 110/301/110 112/302/112 97/303/97
f 90/304/90 98/305/98 102/306/102
f 109/307/109 100/308/100 87/45/87
f 117/309/117 88/310/88 89/311/89
f 98/305/98 99/312/99 113/313/113
f 99/312/99 90/304/90 91/314/91
f 98/305/98 90/304/90 99/312/99
f 103/315/103 101/316/101 91/314/91
f 108/317/108 113/313/113 99/312/99
f 118/318/118 70/44/70 62/41/62
f 72/58/72 57/57/57 115/319/115
f 80/320/80 86/321/86 88/310/88
f 100/308/100 67/63/67 87/45/87
f 101/316/101 99/312/99 91/314/91
f 114/322/114 57/57/57 83/225/83
f 98/305/98 123/323/123 102/306/102
f 97/303/97 91/314/91 104/299/104
f 115/319/115 57/57/57 122/324/122
f 86/321/86 116/325/116 92/292/92
f 90/304/90 102/306/102 111/326/111
f 92/292/92 116/325/116 119/327/119
f 405/328/378 418/329/391 403/330/376
f 94/298/94 402/331/375 97/303/97
f 90/304/90 111/326/111 104/299/104
f 97/303/97 104/299/104 94/298/94
f 94/298/94 121/300/121 120/332/120
f 106/296/106 107/294/107 93/295/93
f 401/333/374 105/297/105 93/295/93
f 107/294/107 92/292/92 96/291/96
f 401/333/374 93/295/93 403/330/376
f 94/298/94 120/332/120 421/334/394
f 94/298/94 421/334/394 402/331/375
f 93/295/93 96/291/96 403/330/376
f 408/335/381 415/336/388 420/337/393
f 97/303/97 414/338/387 436/339/409
f 404/340/377 403/330/376 415/336/388
f 96/291/96 415/336/388 403/330/376
f 405/328/378 403/330/376 404/340/377
f 421/334/394 435/341/408 402/331/375
f 419/342/392 402/331/375 422/343/395
f 414/338/387 402/331/375 406/344/379
f 407/345/380 414/338/387 406/344/379
f 416/346/389 419/342/392 412/347/385
f 417/348/390 408/335/381 410/349/383
f 408/335/381 423/350/396 411/351/384
f 413/352/386 429/353/402 409/354/382
f 426/351/399 413/352/386 425/349/398
f 434/348/407 413/352/386 409/354/382
f 433/346/406 432/355/405 427/356/400
f 86/321/86 92/292/92 88/310/88
f 117/309/117 80/320/80 88/310/88
f 85/257/85 129/230/129 153/261/153
f 125/255/125 85/257/85 78/253/78
f 72/58/72 115/319/115 74/54/74
f 152/249/152 58/55/58 71/50/71
f 87/45/87 70/44/70 118/318/118
f 69/42/69 139/248/139 61/43/61
f 347/207/318 341/357/318 344/214/318
f 285/358/270 287/159/271 277/146/264
f 184/172/184 28/76/28 172/85/172
f 316/200/296 311/190/291 320/188/300
f 259/133/246 256/135/243 264/111/251
f 179/178/179 309/177/289 317/194/297
f 313/195/293 319/202/299 317/194/297
f 231/121/223 240/359/230 251/119/238
f 260/120/247 254/128/241 258/139/245
f 231/121/223 218/113/212 236/124/227
f 258/139/245 259/133/246 260/120/247
f 191/184/191 179/178/179 316/200/296
f 316/200/296 317/194/297 315/201/295
f 318/168/298 190/187/190 182/179/182
f 321/199/301 318/168/298 310/167/290
f 252/109/239 230/110/222 237/360/228
f 263/127/250 261/108/248 253/107/240
f 241/125/231 244/361/234 212/80/206
f 211/77/205 28/76/28 224/117/217
f 183/171/183 203/186/200 184/172/184
f 243/123/233 241/125/231 224/117/217
f 184/172/184 203/186/200 188/362/188
f 304/156/286 271/155/258 269/142/256
f 361/216/336 358/220/333 362/217/337
f 304/156/286 269/142/256 305/157/287
f 303/152/285 271/155/258 304/156/286
f 301/153/283 304/156/286 305/157/287
f 305/157/287 270/141/257 273/158/260
f 343/215/321 327/222/307 361/216/336
f 360/218/335 358/220/333 361/216/336
f 343/215/321 362/217/337 339/210/319
f 358/220/333 357/219/332 362/217/337
f 274/147/261 279/132/266 266/131/253
f 282/150/268 285/358/270 277/146/264
f 326/204/306 330/207/310 334/205/314
f 349/209/324 337/198/317 323/193/303
f 322/189/302 312/191/292 332/211/312
f 343/215/321 354/208/329 353/224/328
f 267/134/254 257/136/244 275/143/262
f 270/141/257 276/140/263 296/161/278
f 266/131/253 295/161/277 297/140/279
f 269/142/256 293/147/275 276/140/263
f 343/215/321 339/210/319 354/208/329
f 333/208/313 323/193/303 352/224/327
f 331/203/311 355/205/330 314/197/294
f 356/212/331 334/205/314 325/206/305
f 342/357/320 356/212/331 329/214/309
f 355/205/330 335/212/315 312/191/292
f 268/145/255 277/146/264 287/159/271
f 292/149/274 298/146/280 255/130/242
f 255/130/242 278/144/265 257/136/244
f 299/144/281 268/145/255 290/160/272
f 241/125/231 212/80/206 224/117/217
f 173/83/173 184/172/184 172/85/172
f 406/344/379 419/342/392 416/346/389
f 424/354/397 430/353/403 404/340/377
f 393/283/366 376/286/349 377/363/350
f 370/280/343 374/282/347 397/288/370
f 372/277/345 388/285/361 390/284/363
f 368/276/341 396/363/369 398/287/371
f 25/87/25 26/89/26 214/101/208
f 26/89/26 25/87/25 24/86/24
f 181/163/181 194/100/194 174/97/174
f 237/360/228 230/110/222 220/114/214
f 408/335/381 420/337/393 423/350/396
f 414/338/387 97/303/97 402/331/375
f 124/364/124 415/336/388 96/291/96
f 404/340/377 415/336/388 408/335/381
f 161/365/161 384/271/357 134/238/134
f 371/272/344 370/280/343 378/273/351
f 387/366/360 400/274/373 372/277/345
f 367/269/340 379/275/352 133/229/133
f 344/214/318 338/206/318 347/207/318
f 272/159/259 286/358/259 289/160/259
f 299/144/281 290/160/272 283/148/269
f 328/213/308 356/212/331 342/357/320
f 140/259/140 134/238/134 128/243/128
f 141/237/141 128/243/128 134/238/134
f 149/367/149 134/238/134 140/259/140
f 129/230/129 132/239/132 156/262/156
f 92/292/92 119/327/119 95/293/95
f 112/302/112 103/315/103 97/303/97
f 103/315/103 91/314/91 97/303/97
f 90/304/90 104/299/104 91/314/91
f 148/265/148 143/233/143 125/255/125
f 127/246/127 141/237/141 126/252/126
f 125/255/125 144/228/144 129/230/129
f 143/233/143 144/228/144 125/255/125
f 104/299/104 111/326/111 121/300/121
f 89/311/89 88/310/88 106/296/106
f 106/296/106 88/310/88 107/294/107
f 88/310/88 92/292/92 107/294/107
f 214/101/208 213/93/207 226/106/219
f 239/104/229 220/114/214 226/106/219
f 186/162/186 178/164/178 181/163/181
f 24/86/24 186/162/186 175/96/175
f 2/14/2 11/16/11 4/2/4
f 11/16/11 3/6/3 46/17/46
f 406/344/379 428/356/401 407/345/380
f 410/349/383 408/335/381 411/351/384
f 430/353/403 405/328/378 404/340/377
f 417/348/390 404/340/377 408/335/381
f 432/355/405 433/346/406 431/347/404
f 413/352/386 434/348/407 425/349/398
f 372/277/345 390/284/363 387/366/360
f 383/281/356 394/290/367 369/266/342
f 368/276/341 398/287/371 372/277/345
f 376/286/349 381/287/354 377/363/350
f 375/283/348 396/363/369 368/276/341
f 395/289/368 380/288/353 391/282/364
f 383/281/356 397/288/370 394/290/367
f 406/344/379 416/346/389 428/356/401
f 314/197/294 319/202/299 313/195/293
f 319/202/299 315/201/295 317/194/297
f 257/136/244 262/138/249 258/139/245
f 259/133/246 262/138/249 256/135/243
f 424/354/397 404/340/377 417/348/390
f 372/277/345 398/287/371 388/285/361
f 12/15/12 1/4/1 11/16/11
f 27/74/27 12/15/12 2/14/2
f 382/267/355 365/234/338 366/268/339
f 367/269/340 399/279/372 386/278/359
f 418/329/391 401/333/374 403/330/376
f 435/341/408 422/343/395 402/331/375
f 57/57/57 114/322/114 122/324/122
f 101/316/101 108/317/108 99/312/99
f 98/305/98 113/313/113 123/323/123
f 109/307/109 87/45/87 118/318/118
f 135/247/135 154/251/154 159/264/159
f 145/250/145 59/49/59 151/258/151
f 136/241/136 150/256/150 160/263/160
f 146/244/146 58/55/58 152/249/152
f 383/281/356 369/266/342 366/268/339
f 370/280/343 397/288/370 383/281/356
f 406/344/379 402/331/375 419/342/392
f 419/342/392 422/343/395 412/347/385
f 96/291/96 95/293/95 124/364/124
f 97/303/97 436/339/409 110/301/110
f 161/365/161 134/238/134 149/367/149
f 147/240/147 133/229/133 379/275/352
f 384/271/357 378/273/351 134/238/134
f 400/274/373 379/275/352 372/277/345
f 407/345/380 436/339/409 414/338/387
f 124/364/124 420/337/393 415/336/388
f 225/180/218 216/88/210 217/122/211
f 236/124/227 218/113/212 232/115/224
f 216/88/210 195/185/195 182/179/182
f 228/126/221 243/123/233 224/117/217
f 184/172/184 188/362/188 28/76/28
f 227/123/220 187/186/187 196/183/196
f 235/124/226 227/123/220 196/183/196
f 228/126/221 28/76/28 188/362/188
f 228/126/221 188/362/188 203/186/200
f 243/123/233 228/126/221 203/186/200
f 202/368/199 242/369/232 236/124/227
f 177/183/177 202/368/199 236/124/227
f 247/115/192 245/361/192 223/125/192
f 246/105/235 239/104/229 234/95/225
f 183/171/183 173/83/173 205/174/202
f 26/89/26 30/91/30 214/101/208
f 17/27/17 15/21/15 30/91/30
f 31/90/31 17/27/17 30/91/30
f 31/90/31 175/96/175 35/370/35
f 32/94/32 15/21/15 38/92/38
f 213/93/207 214/101/208 32/94/32
f 35/370/35 33/98/33 16/12/16
f 174/97/174 39/99/39 33/98/33
f 32/94/32 34/102/34 15/21/15
f 30/91/30 34/102/34 214/101/208
f 31/90/31 35/370/35 16/12/16
f 175/96/175 33/98/33 35/370/35
f 321/199/301 180/165/180 318/168/298
f 190/187/190 178/164/178 182/179/182
f 263/127/250 230/110/222 261/108/248
f 233/103/215 238/114/215 221/104/215
f 236/124/227 240/359/230 231/121/223
f 260/120/247 218/113/212 231/121/223
f 320/188/300 191/184/191 316/200/296
f 177/183/177 179/178/179 191/184/191
f 201/171/192 204/174/201 192/173/192
f 207/173/203 179/178/179 177/183/177
f 235/124/226 247/115/192 223/125/192
f 218/113/212 219/112/213 232/115/224
f 247/115/192 249/116/192 245/361/192
f 207/173/203 209/175/204 198/176/197
f 206/170/192 199/163/192 210/166/192
f 197/164/192 210/166/192 199/163/192
f 237/360/228 220/114/214 250/103/237
f 439/371/412 463/372/436 440/373/413
f 442/374/415 461/375/434 445/376/418
f 495/377/468 493/378/466 446/379/419
f 487/380/460 445/376/418 437/381/410
f 450/382/423 462/383/435 449/384/422
f 455/385/428 449/384/422 462/383/435
f 460/386/433 454/387/427 455/385/428
f 447/388/420 492/389/465 500/390/473
f 486/391/459 454/387/427 488/392/461
f 499/393/472 437/381/410 493/378/466
f 455/385/428 500/390/473 502/394/475
f 449/384/422 494/395/467 450/382/423
f 440/373/413 501/396/474 439/371/412
f 496/397/469 475/398/448 444/399/417
f 480/400/453 477/401/450 497/402/470
f 457/403/430 462/383/435 473/404/446
f 446/379/419 459/405/432 463/372/436
f 446/379/419 463/372/436 439/371/412
f 457/403/430 473/404/446 476/406/449
f 446/379/419 461/375/434 459/405/432
f 461/375/434 446/379/419 445/376/418
f 456/407/429 461/375/434 443/408/416
f 443/408/416 461/375/434 442/374/415
f 441/409/414 456/407/429 443/408/416
f 463/372/436 461/375/434 456/407/429
f 460/386/433 455/385/428 458/410/431
f 452/411/425 454/387/427 460/386/433
f 460/386/433 457/403/430 453/412/426
f 453/412/426 452/411/425 460/386/433
f 451/413/424 453/412/426 457/403/430
f 462/383/435 460/386/433 458/410/431
f 457/403/430 476/406/449 451/413/424
f 462/383/435 458/410/431 455/385/428
f 457/403/430 460/386/433 462/383/435
f 463/372/436 456/407/429 474/414/447
f 459/405/432 461/375/434 463/372/436
f 487/380/460 437/381/410 438/415/411
f 454/387/427 486/391/459 447/388/420
f 466/416/439 465/417/438 481/418/454
f 447/388/420 486/391/459 448/419/421
f 465/417/438 454/387/427 481/418/454
f 453/412/426 481/418/454 452/411/425
f 466/416/439 453/412/426 468/420/441
f 481/418/454 453/412/426 466/416/439
f 491/421/464 471/422/444 472/423/445
f 488/392/461 472/423/445 471/422/444
f 468/420/441 451/413/424 441/409/414
f 443/408/416 468/420/441 441/409/414
f 453/412/426 451/413/424 468/420/441
f 469/424/442 466/416/439 468/420/441
f 442/374/415 482/425/455 443/408/416
f 443/408/416 469/424/442 468/420/441
f 467/426/440 466/416/439 469/424/442
f 482/425/455 442/374/415 445/376/418
f 464/427/437 469/424/442 482/425/455
f 464/427/437 483/428/456 470/429/443
f 490/430/463 464/427/437 470/429/443
f 488/392/461 465/417/438 483/428/456
f 438/415/411 472/423/445 487/380/460
f 472/423/445 438/415/411 491/421/464
f 454/387/427 447/388/420 455/385/428
f 445/376/418 487/380/460 489/431/462
f 444/399/417 450/382/423 496/397/469
f 450/382/423 473/404/446 462/383/435
f 450/382/423 444/399/417 479/432/452
f 440/373/413 474/414/447 497/402/470
f 440/373/413 463/372/436 474/414/447
f 497/402/470 474/414/447 480/400/453
f 474/414/447 456/407/429 480/400/453
f 479/432/452 476/406/449 473/404/446
f 478/433/451 451/413/424 476/406/449
f 451/413/424 478/433/451 477/401/450
f 484/434/457 478/433/451 479/432/452
f 484/434/457 477/401/450 478/433/451
f 450/382/423 479/432/452 473/404/446
f 484/434/457 479/432/452 444/399/417
f 497/402/470 477/401/450 485/435/458
f 441/409/414 451/413/424 477/401/450
f 441/409/414 480/400/453 456/407/429
f 441/409/414 477/401/450 480/400/453
f 492/389/465 447/388/420 448/419/421
f 438/415/411 499/393/472 491/421/464
f 481/418/454 454/387/427 452/411/425
f 469/424/442 443/408/416 482/425/455
f 464/427/437 482/425/455 445/376/418
f 464/427/437 445/376/418 489/431/462
f 483/428/456 465/417/438 470/429/443
f 444/399/417 498/436/471 484/434/457
f 478/433/451 476/406/449 479/432/452
f 498/436/471 444/399/417 475/398/448
f 484/434/457 498/436/471 477/401/450
f 454/387/427 465/417/438 488/392/461
f 471/422/444 448/419/421 486/391/459
f 446/379/419 437/381/410 445/376/418
f 487/380/460 472/423/445 489/431/462
f 483/428/456 489/431/462 488/392/461
f 471/422/444 486/391/459 488/392/461
f 464/427/437 489/431/462 483/428/456
f 489/431/462 472/423/445 488/392/461
f 470/429/443 465/417/438 467/426/440
f 467/426/440 490/430/463 470/429/443
f 469/424/442 464/427/437 490/430/463
f 467/426/440 465/417/438 466/416/439
f 467/426/440 469/424/442 490/430/463
f 448/419/421 471/422/444 491/421/464
f 437/381/410 499/393/472 438/415/411
f 437/381/410 446/379/419 493/378/466
f 491/421/464 492/389/465 448/419/421
f 495/377/468 446/379/419 439/371/412
f 447/388/420 500/390/473 455/385/428
f 494/395/467 496/397/469 450/382/423
f 494/395/467 449/384/422 502/394/475
f 449/384/422 455/385/428 502/394/475
f 501/396/474 495/377/468 439/371/412
f 503/437/476 504/438/477 508/439/481 507/440/480
f 504/438/477 505/441/478 509/442/482 508/439/481
f 505/441/478 506/443/479 510/444/483 509/442/482
f 506/443/479 503/437/476 507/440/480 510/444/483
f 507/440/480 508/439/481 511/445/484
f 508/439/481 509/442/482 511/445/484
f 509/442/482 510/444/483 511/445/484
f 510/444/483 507/440/480 511/445/484
f 507/440/480 511/445/484 512/446/485
f 508/439/481 511/445/484 513/447/486
f 508/439/481 513/447/486 514/448/487
f 509/442/482 514/448/487 513/447/486
f 509/442/482 513/447/486 510/444/483
f 510/444/483 513/447/486 512/446/485
f 512/446/485 513/447/486 514/448/487
f 519/440/492 520/439/493 516/438/489 515/437/488
f 520/439/493 521/442/494 517/441/490 516/438/489
f 521/442/494 522/444/495 518/443/491 517/441/490
f 522/444/495 519/440/492 515/437/488 518/443/491
f 523/445/496 520/439/493 519/440/492
f 523/445/496 521/442/494 520/439/493
f 523/445/496 522/444/495 521/442/494
f 523/445/496 519/440/492 522/444/495
f 524/446/497 523/445/496 519/440/492
f 525/447/498 523/445/496 520/439/493
f 526/448/499 525/447/498 520/439/493
f 525/447/498 526/448/499 521/442/494
f 522/444/495 525/447/498 521/442/494
f 524/446/497 525/447/498 522/444/495
f 526/448/499 525/447/498 524/446/497
