# Blender 5.1.1
# www.blender.org
mtllib npc_jaka_ronda_walk1.mtl
o npc_jaka_ronda_walk1
v -0.108786 -0.080645 1.052208
v 0.109271 -0.080973 1.052074
v -0.119292 -0.078882 1.115691
v 0.119747 -0.077127 1.118396
v -0.158497 0.085091 1.123991
v 0.158395 -0.095801 1.123410
v 0.132155 0.092079 1.115824
v -0.132740 0.091900 1.115824
v -0.000376 0.132790 1.108953
v -0.000287 0.108501 1.179903
v 0.000201 -0.094431 1.117044
v -0.158497 0.085091 1.123991
v 0.158395 -0.095801 1.123410
v -0.122092 0.096868 1.031273
v 0.121952 0.096420 1.031254
v -0.000070 0.132337 1.025537
v 0.145535 -0.012692 1.050149
v -0.145535 -0.012101 1.050224
v 0.117528 -0.096443 1.019117
v -0.119705 -0.096765 1.019106
v -0.148785 -0.015548 1.031115
v 0.148506 -0.015104 1.031507
v 0.029971 0.079349 0.857790
v -0.034326 0.079608 0.857812
v -0.000223 0.094182 0.920155
v -0.001088 -0.108312 1.010891
v -0.001896 -0.118441 0.858284
v -0.113313 -0.122128 0.930919
v 0.110441 -0.121862 0.930929
v -0.001404 -0.126620 0.922043
v -0.054378 0.112018 0.976598
v 0.053874 0.112106 0.976601
v -0.123011 0.080865 0.985947
v 0.122288 0.080621 0.985934
v -0.122092 0.096868 1.031273
v 0.121952 0.096420 1.031254
v 0.145535 -0.012692 1.050149
v -0.145535 -0.012101 1.050224
v -0.123011 0.080865 0.985947
v 0.122288 0.080621 0.985934
v -0.122788 0.080062 1.188089
v -0.150843 0.055546 1.203520
v -0.121817 -0.079084 1.211576
v 0.122219 -0.077995 1.212929
v 0.150916 -0.065914 1.203229
v 0.122303 0.080243 1.188089
v 0.000193 -0.101478 1.212253
v -0.121199 0.056958 1.275186
v 0.120764 0.057153 1.275186
v -0.000225 0.083137 1.265686
v -0.150843 0.055546 1.203520
v 0.150916 -0.065914 1.203229
v -0.144171 -0.016897 1.319510
v -0.131219 -0.082039 1.335584
v 0.144413 -0.016661 1.319510
v 0.131587 -0.081803 1.335584
v -0.000112 -0.110705 1.340813
v -0.111100 0.022825 1.441420
v -0.130153 -0.066214 1.443992
v 0.110929 0.022783 1.440380
v 0.130095 -0.066267 1.442818
v -0.041808 0.027370 1.439505
v 0.155913 -0.057658 1.374156
v -0.156001 -0.057781 1.375050
v -0.000191 0.066810 1.365638
v 0.042119 0.027508 1.439505
v -0.057518 -0.050916 1.479051
v 0.057764 -0.050777 1.479051
v 0.133320 -0.082447 1.397200
v -0.133400 -0.082489 1.398359
v 0.135266 0.036981 1.393800
v -0.135413 0.036920 1.394860
v 0.159500 0.020927 1.375489
v -0.159645 0.020797 1.376324
v -0.144171 -0.016897 1.319510
v 0.144413 -0.016661 1.319510
v 0.155913 -0.057658 1.374156
v 0.155913 -0.057658 1.374156
v -0.156001 -0.057781 1.375050
v -0.156001 -0.057781 1.375050
v -0.057518 -0.050916 1.479051
v 0.057764 -0.050777 1.479051
v 0.159500 0.020927 1.375489
v -0.159645 0.020797 1.376324
v -0.133648 -0.063362 1.337920
v -0.186528 -0.059349 1.321473
v -0.212982 -0.052652 1.333523
v -0.207393 0.028228 1.335223
v -0.141060 0.032051 1.328370
v -0.147591 -0.052781 1.145468
v -0.214151 0.026797 1.150711
v -0.179976 0.088334 1.185452
v -0.152201 0.088820 1.140621
v -0.209043 0.089361 1.144427
v -0.208192 -0.052207 1.397211
v -0.203242 0.014371 1.393173
v -0.200504 -0.019652 1.426143
v -0.209497 0.035912 1.301283
v -0.212130 -0.030446 1.297450
v -0.161824 0.038595 1.395587
v -0.159579 -0.079846 1.398533
v -0.189768 0.047200 1.325792
v -0.213389 -0.002393 1.215454
v -0.175420 -0.020921 1.230166
v -0.142218 -0.062990 1.219260
v -0.182278 0.013545 1.150425
v -0.186528 -0.059349 1.321473
v -0.179976 0.088334 1.185452
v -0.209043 0.089361 1.144427
v -0.208192 -0.052207 1.397211
v -0.208192 -0.052207 1.397211
v -0.203242 0.014371 1.393173
v -0.200504 -0.019652 1.426143
v -0.161824 0.038595 1.395587
v -0.161824 0.038595 1.395587
v -0.159579 -0.079846 1.398533
v -0.159579 -0.079846 1.398533
v -0.189768 0.047200 1.325792
v -0.175420 -0.020921 1.230166
v -0.182278 0.013545 1.150425
v 0.132525 -0.063366 1.337940
v 0.185406 -0.092878 1.321494
v 0.211859 -0.077150 1.333543
v 0.206272 0.005005 1.335245
v 0.139918 0.032046 1.328386
v 0.149986 -0.053811 1.143315
v 0.212264 -0.135495 1.148498
v 0.178828 -0.048188 1.185458
v 0.150551 -0.080340 1.140624
v 0.206905 -0.076942 1.144393
v 0.207068 -0.052245 1.397224
v 0.202118 0.014332 1.393199
v 0.200308 -0.019660 1.426244
v 0.208376 -0.012765 1.301305
v 0.211004 -0.081999 1.297466
v 0.160707 0.038637 1.395601
v 0.158452 -0.079816 1.398557
v 0.188642 0.016909 1.325808
v 0.212275 -0.114378 1.216181
v 0.174367 -0.124011 1.229045
v 0.140120 -0.062158 1.219901
v 0.181098 -0.149436 1.147840
v 0.185406 -0.092878 1.321494
v 0.178828 -0.048188 1.185458
v 0.206905 -0.076942 1.144393
v 0.207068 -0.052245 1.397224
v 0.207068 -0.052245 1.397224
v 0.202118 0.014332 1.393199
v 0.200308 -0.019660 1.426244
v 0.160707 0.038637 1.395601
v 0.160707 0.038637 1.395601
v 0.158452 -0.079816 1.398557
v 0.158452 -0.079816 1.398557
v 0.188642 0.016909 1.325808
v 0.174367 -0.124011 1.229045
v 0.181098 -0.149436 1.147840
v -0.000228 -0.070151 1.479756
v -0.045145 0.019057 1.568868
v -0.038281 -0.041186 1.588396
v 0.040065 -0.041630 1.588096
v 0.046508 0.019134 1.568868
v 0.000682 0.043238 1.562778
v -0.000537 0.008844 1.596157
v -0.038281 -0.041186 1.588396
v 0.040065 -0.041630 1.588096
v -0.000537 0.008844 1.596157
v 0.104679 -0.113375 0.867812
v 0.150206 -0.207122 0.893776
v 0.147444 0.040791 0.931911
v 0.114358 0.076959 0.929044
v 0.033167 0.037643 0.519572
v 0.072463 0.146454 0.530440
v 0.108832 0.037511 0.520353
v 0.128723 0.112580 0.564523
v 0.145263 0.069373 0.712274
v 0.019691 0.121728 0.535135
v 0.109673 0.002333 0.593758
v 0.105214 -0.100391 0.831815
v 0.008671 -0.099510 0.831096
v 0.052144 0.114840 0.691946
v 0.119595 0.096562 0.725747
v 0.120030 0.131129 0.500584
v 0.116193 0.076582 0.905113
v 0.147444 0.040791 0.931911
v 0.128723 0.112580 0.564523
v 0.145263 0.069373 0.712274
v 0.019691 0.121728 0.535135
v 0.120030 0.131129 0.500584
v -0.108675 -0.113601 0.867798
v -0.152056 0.147091 0.893758
v -0.148685 0.040831 0.931921
v -0.115135 0.076783 0.929041
v -0.002758 0.034413 0.829609
v -0.034644 -0.133304 0.547562
v -0.110308 -0.132964 0.548269
v -0.130197 -0.031226 0.588332
v -0.073937 -0.018072 0.557702
v -0.146734 0.014418 0.721446
v -0.021165 -0.040018 0.561787
v -0.111148 -0.124269 0.614032
v -0.107928 -0.099564 0.831609
v -0.011306 -0.098243 0.831150
v -0.002327 -0.089300 0.843968
v -0.055269 0.047610 0.703206
v -0.120773 0.049626 0.733623
v -0.121504 -0.051665 0.529910
v -0.117133 0.077010 0.905198
v -0.148685 0.040831 0.931921
v -0.002758 0.034413 0.829609
v -0.130197 -0.031226 0.588332
v -0.146734 0.014418 0.721446
v -0.021165 -0.040018 0.561787
v -0.121504 -0.051665 0.529910
v -0.030387 -0.066216 0.489989
v -0.119938 -0.065378 0.491449
v -0.078091 -0.061348 0.474943
v -0.019808 -0.176452 0.369558
v -0.037966 -0.250885 0.286283
v -0.022345 -0.158215 0.286231
v -0.078268 -0.116500 0.286207
v -0.132604 -0.165498 0.405917
v -0.116470 -0.251709 0.286283
v -0.138018 -0.158318 0.286230
v -0.073589 -0.206765 0.387943
v -0.104949 -0.156524 0.488333
v -0.040335 -0.156469 0.487657
v -0.076899 -0.049159 0.496375
v -0.077886 -0.176893 0.171383
v -0.048774 -0.203022 0.171397
v -0.108920 -0.203071 0.171397
v -0.097107 -0.254484 0.171426
v -0.059073 -0.254241 0.171427
v -0.037699 -0.172842 0.253894
v -0.078435 -0.145247 0.253878
v -0.117410 -0.172915 0.253894
v -0.103466 -0.237635 0.253930
v -0.047851 -0.237160 0.253930
v -0.030387 -0.066216 0.489989
v -0.119938 -0.065378 0.491449
v -0.022345 -0.158215 0.286231
v -0.138018 -0.158318 0.286230
v -0.048774 -0.203022 0.171397
v -0.108920 -0.203071 0.171397
v -0.037699 -0.172842 0.253894
v -0.037699 -0.172842 0.253894
v -0.037699 -0.172842 0.253894
v -0.078435 -0.145247 0.253878
v -0.117410 -0.172915 0.253894
v -0.117410 -0.172915 0.253894
v -0.117410 -0.172915 0.253894
v -0.103466 -0.237635 0.253930
v -0.047851 -0.237160 0.253930
v -0.094597 -0.294673 0.076760
v -0.045566 -0.128996 0.117263
v -0.128968 -0.131798 0.108600
v -0.043239 -0.143528 0.076569
v -0.060142 -0.288954 0.076753
v -0.131412 -0.143338 0.076568
v -0.048875 -0.209974 0.150895
v -0.108672 -0.210021 0.150895
v -0.078217 -0.183413 0.150861
v -0.054918 -0.291561 0.108080
v -0.101203 -0.290612 0.107697
v -0.096717 -0.261794 0.150960
v -0.059764 -0.261713 0.150960
v -0.094597 -0.294673 0.076760
v -0.045566 -0.128996 0.117263
v -0.128968 -0.131798 0.108600
v -0.043239 -0.143528 0.076569
v -0.043239 -0.143528 0.076569
v -0.043239 -0.143528 0.076569
v -0.060142 -0.288954 0.076753
v -0.131412 -0.143338 0.076568
v -0.131412 -0.143338 0.076568
v -0.131412 -0.143338 0.076568
v -0.048875 -0.209974 0.150895
v -0.108672 -0.210021 0.150895
v -0.107059 -0.077877 0.076485
v -0.107376 -0.073338 0.096661
v -0.065943 -0.059891 0.076462
v -0.064806 -0.053922 0.098359
v -0.046001 -0.119303 0.114126
v -0.127620 -0.122071 0.107948
v -0.107059 -0.077877 0.076485
v -0.065943 -0.059891 0.076462
v 0.028913 0.143077 0.457158
v 0.118464 0.142939 0.458774
v 0.076543 0.158607 0.438827
v 0.018333 0.115447 0.322628
v 0.036199 0.097982 0.230071
v 0.020764 0.191771 0.230014
v 0.076793 0.233436 0.229990
v 0.131129 0.102082 0.362267
v 0.114738 0.097385 0.230071
v 0.136548 0.191657 0.230014
v 0.072114 0.072996 0.342092
v 0.038859 0.055388 0.453121
v 0.103473 0.054933 0.453704
v 0.075425 0.156539 0.462524
v 0.057457 0.172773 0.102762
v 0.046975 0.224350 0.102728
v 0.076739 0.250460 0.102714
v 0.107742 0.224163 0.102730
v 0.095541 0.172587 0.102760
v 0.116102 0.198735 0.194171
v 0.077137 0.226475 0.194155
v 0.036055 0.198914 0.194171
v 0.046134 0.133933 0.194210
v 0.101849 0.133580 0.194210
v 0.028913 0.143077 0.457158
v 0.118464 0.142939 0.458774
v 0.020764 0.191771 0.230014
v 0.136548 0.191657 0.230014
v 0.046975 0.224350 0.102728
v 0.107742 0.224163 0.102730
v 0.116102 0.198735 0.194171
v 0.116102 0.198735 0.194171
v 0.116102 0.198735 0.194171
v 0.077137 0.226475 0.194155
v 0.036055 0.198914 0.194171
v 0.036055 0.198914 0.194171
v 0.036055 0.198914 0.194171
v 0.046134 0.133933 0.194210
v 0.101849 0.133580 0.194210
v 0.094440 0.196333 -0.002272
v 0.128822 0.337436 0.033056
v 0.043093 0.347735 -0.002450
v 0.045420 0.334928 0.042657
v 0.060055 0.202145 -0.002279
v 0.131266 0.347819 -0.002450
v 0.107806 0.230930 0.080005
v 0.046750 0.231249 0.080005
v 0.077421 0.257807 0.079974
v 0.100249 0.179345 0.032027
v 0.053892 0.178099 0.032465
v 0.058437 0.179325 0.080066
v 0.095359 0.179244 0.080066
v 0.094440 0.196333 -0.002272
v 0.128822 0.337436 0.033056
v 0.043093 0.347735 -0.002450
v 0.043093 0.347735 -0.002450
v 0.043093 0.347735 -0.002450
v 0.045420 0.334928 0.042657
v 0.060055 0.202145 -0.002279
v 0.131266 0.347819 -0.002450
v 0.131266 0.347819 -0.002450
v 0.131266 0.347819 -0.002450
v 0.107806 0.230930 0.080005
v 0.046750 0.231249 0.080005
v 0.106913 0.413780 -0.002528
v 0.107230 0.404824 0.019835
v 0.065797 0.431987 -0.002549
v 0.064660 0.423132 0.021722
v 0.045855 0.346926 0.039182
v 0.127474 0.348040 0.032334
v 0.106913 0.413780 -0.002528
v 0.065797 0.431987 -0.002549
v -0.114947 -0.019657 1.450187
v -0.114947 -0.019657 1.450187
v 0.114833 -0.019712 1.449079
v 0.114833 -0.019712 1.449079
v 0.183864 -0.155183 1.122847
v 0.218362 -0.153800 1.116015
v 0.153289 -0.155451 1.110603
v 0.155424 -0.166485 1.052522
v 0.211500 -0.174304 1.076381
v 0.229228 -0.135343 1.078048
v 0.215078 -0.093510 1.061576
v 0.162867 -0.107983 1.046946
v 0.190796 -0.166914 0.884666
v 0.226425 -0.167155 0.888891
v 0.225961 -0.215337 0.883068
v 0.209999 -0.193764 0.872769
v 0.191299 -0.215905 0.879174
v 0.210083 -0.078785 1.127883
v 0.151093 -0.079596 1.121929
v 0.186198 -0.167645 1.104292
v 0.226583 -0.210837 0.954874
v 0.229066 -0.132575 0.950193
v 0.173502 -0.139701 0.939740
v 0.169570 -0.207221 0.939971
v 0.181389 -0.207854 0.916958
v 0.226852 -0.209379 0.926323
v 0.183001 -0.152649 0.919630
v 0.228223 -0.149207 0.926936
v 0.236142 -0.172592 0.953281
v 0.183864 -0.155183 1.122847
v 0.211500 -0.174304 1.076381
v 0.215078 -0.093510 1.061576
v 0.226425 -0.167155 0.888891
v 0.225961 -0.215337 0.883068
v 0.209999 -0.193764 0.872769
v 0.210083 -0.078785 1.127883
v 0.186198 -0.167645 1.104292
v 0.226583 -0.210837 0.954874
v 0.229066 -0.132575 0.950193
v 0.181389 -0.207854 0.916958
v 0.226852 -0.209379 0.926323
v 0.226852 -0.209379 0.926323
v 0.226852 -0.209379 0.926323
v 0.183001 -0.152649 0.919630
v 0.228223 -0.149207 0.926936
v 0.228223 -0.149207 0.926936
v 0.228223 -0.149207 0.926936
v -0.184626 0.024130 1.126705
v -0.217848 0.033561 1.115206
v -0.153357 0.035951 1.109869
v -0.153165 0.068740 1.052549
v -0.207785 0.043032 1.076427
v -0.225505 0.080749 1.078092
v -0.211346 0.134937 1.061603
v -0.160591 0.131431 1.046954
v -0.190382 0.149499 0.878488
v -0.190533 0.195640 0.884646
v -0.228875 0.192150 0.888864
v -0.228639 0.147124 0.883011
v -0.211502 0.179611 0.870399
v -0.208833 0.099927 1.127917
v -0.150357 0.103555 1.121853
v -0.185962 0.028518 1.103505
v -0.228178 0.179453 0.952104
v -0.225798 0.097129 0.956756
v -0.171552 0.180252 0.941607
v -0.167282 0.111978 0.941492
v -0.182152 0.183513 0.919134
v -0.180054 0.129552 0.915958
v -0.227904 0.120976 0.925805
v -0.229098 0.181405 0.926444
v -0.235452 0.136819 0.955190
v -0.184626 0.024130 1.126705
v -0.207785 0.043032 1.076427
v -0.211346 0.134937 1.061603
v -0.228875 0.192150 0.888864
v -0.228639 0.147124 0.883011
v -0.211502 0.179611 0.870399
v -0.208833 0.099927 1.127917
v -0.185962 0.028518 1.103505
v -0.228178 0.179453 0.952104
v -0.225798 0.097129 0.956756
v -0.182152 0.183513 0.919134
v -0.180054 0.129552 0.915958
v -0.227904 0.120976 0.925805
v -0.227904 0.120976 0.925805
v -0.227904 0.120976 0.925805
v -0.229098 0.181405 0.926444
v -0.229098 0.181405 0.926444
v -0.229098 0.181405 0.926444
v -0.060643 0.005602 1.536653
v -0.019903 0.052138 1.506097
v -0.036268 -0.075141 1.584586
v -0.039382 -0.086759 1.686198
v -0.029643 0.090379 1.693442
v -0.053657 0.063366 1.616004
v -0.050428 0.079555 1.634156
v 0.034470 -0.027492 1.732728
v -0.058102 0.059998 1.601271
v -0.063366 0.008354 1.566245
v 0.059940 0.005643 1.536616
v 0.019057 0.052203 1.506083
v 0.035815 -0.075061 1.584557
v 0.038928 -0.085825 1.699498
v 0.034339 0.090985 1.700995
v 0.052873 0.063467 1.615968
v 0.049584 0.079636 1.634125
v 0.057206 0.060101 1.601240
v 0.062578 0.008468 1.566208
v -0.058334 0.058452 1.675580
v 0.053881 0.066505 1.667107
v 0.080146 -0.012132 1.611970
v -0.080463 -0.011897 1.612539
v 0.069463 0.022243 1.626627
v -0.070087 0.022154 1.626667
v 0.076896 -0.027605 1.644639
v -0.075642 -0.017471 1.645081
v -0.017407 0.094566 1.571024
v 0.016562 0.094591 1.571015
v 0.005428 0.097702 1.622869
v 0.005161 0.112947 1.588645
v -0.000414 0.105044 1.641800
v -0.006485 0.097703 1.622874
v -0.005993 0.112948 1.588647
v -0.006874 0.120255 1.575047
v 0.006174 0.120268 1.575041
v 0.021450 0.088014 1.505112
v -0.022247 0.087969 1.505124
v -0.024775 -0.038598 1.752230
v 0.085704 -0.035147 1.687481
v -0.085629 -0.026628 1.699143
v -0.063612 0.060712 1.733275
v 0.075618 0.058892 1.716790
v 0.005197 0.085030 1.748486
v 0.037278 0.060133 1.727875
v 0.065334 -0.018300 1.721823
v -0.012387 0.103906 1.727082
v -0.077203 0.072422 1.715847
v 0.012543 0.087360 1.614862
v -0.013520 0.087309 1.614879
v -0.000423 0.101895 1.565967
v -0.060643 0.005602 1.536653
v -0.036268 -0.075141 1.584586
v -0.039382 -0.086759 1.686198
v -0.063366 0.008354 1.566245
v -0.024775 -0.038598 1.752230
v -0.209250 0.186429 0.877300
v -0.199950 0.184879 0.877300
v -0.199950 0.163179 0.877300
v -0.209250 0.163179 0.877300
v -0.220100 0.204642 0.837000
v -0.201500 0.202704 0.833900
v -0.201500 0.182554 0.833900
v -0.217000 0.181392 0.837000
v -0.229400 0.217817 0.818400
v -0.223200 -0.009293 0.786291
v -0.213900 -0.013337 0.783494
v -0.204600 -0.011450 0.789087
v 0.209250 -0.180229 0.877300
v 0.199950 -0.181779 0.877300
v 0.199950 -0.203479 0.877300
v 0.209250 -0.203479 0.877300
v 0.220100 -0.192242 0.837000
v 0.201500 -0.196504 0.833900
v 0.201500 -0.216654 0.833900
v 0.217000 -0.215492 0.837000
v 0.229400 -0.193017 0.818400
v 0.223200 0.003093 0.784300
v 0.213900 0.000937 0.781200
v 0.204600 -0.000950 0.787400
vn 0.5234 0.8204 -0.2303
vn -0.5338 0.8168 -0.2189
vn 0.6642 0.7475 0.0143
vn -0.0806 0.9825 0.1677
vn 0.9707 0.2347 -0.0515
vn 0.4125 0.8968 0.1601
vn -0.7616 -0.6453 -0.0593
vn 0.2715 -0.9535 -0.1308
vn 0.0003 -0.9907 -0.1364
vn 0.0007 -0.9536 -0.3011
vn -0.0047 0.9948 0.1013
vn 0.4646 -0.8795 -0.1036
vn -0.9884 -0.1510 -0.0148
vn 0.5361 -0.8260 0.1741
vn -0.5860 -0.8036 0.1044
vn -0.0015 -0.9919 0.1273
vn -0.9619 0.2707 -0.0380
vn 0.9705 0.2019 -0.1315
vn -0.5931 0.7483 -0.2972
vn 0.5991 0.7359 -0.3155
vn 0.9901 0.1074 -0.0900
vn -0.9843 0.0815 -0.1563
vn 0.1667 -0.9767 0.1353
vn -0.0435 -0.9473 0.3174
vn -0.0015 -0.9613 0.2753
vn -0.0005 0.9261 -0.3773
vn 0.0036 0.9205 0.3906
vn 0.6164 0.7874 0.0070
vn 0.2798 0.8931 -0.3522
vn -0.0013 0.9996 -0.0275
vn 0.2158 -0.9385 0.2694
vn -0.2170 -0.9386 0.2681
vn 0.9576 -0.2825 -0.0566
vn -0.5008 -0.8419 0.2009
vn 0.9722 -0.2309 0.0394
vn -0.9716 -0.2312 0.0501
vn -0.9709 -0.2244 -0.0841
vn 0.9276 -0.1393 0.3465
vn 0.4957 -0.8444 0.2030
vn -0.9575 -0.2845 -0.0468
vn 0.4139 -0.8713 -0.2636
vn 0.9745 0.2227 0.0276
vn 0.6944 0.7178 0.0506
vn -0.3842 0.9213 -0.0590
vn -0.3174 0.9277 -0.1966
vn -0.6821 -0.7009 -0.2086
vn -0.0056 0.9982 0.0594
vn 0.6388 -0.7586 -0.1280
vn -0.6344 -0.7622 -0.1288
vn 0.0007 -0.9738 -0.2276
vn 0.4224 -0.7996 -0.4268
vn -0.9851 -0.1691 -0.0300
vn 0.9605 0.2302 0.1565
vn 0.6444 0.7546 0.1238
vn -0.9382 0.3162 0.1409
vn -0.6448 0.7539 0.1262
vn -0.0014 0.9972 -0.0746
vn 0.1943 -0.6491 -0.7354
vn 0.3182 0.5924 -0.7401
vn -0.1973 -0.6504 -0.7335
vn -0.3175 0.5964 -0.7373
vn 0.2218 -0.8803 -0.4193
vn -0.7279 0.6070 0.3190
vn 0.7170 0.6151 0.3280
vn -0.0001 -0.9624 -0.2717
vn -0.2270 -0.8811 -0.4149
vn 0.3131 0.7063 -0.6349
vn -0.3170 0.7154 -0.6226
vn -0.2332 0.9696 -0.0740
vn 0.2294 0.9701 -0.0788
vn -0.1549 -0.9822 -0.1062
vn 0.1540 -0.9820 -0.1095
vn -0.7773 -0.5679 0.2706
vn 0.7722 -0.5703 0.2801
vn 0.9710 -0.1260 0.2033
vn -0.9760 -0.1120 0.1865
vn -0.9712 0.0404 0.2347
vn 0.8320 -0.2423 -0.4991
vn 0.9706 0.0412 0.2370
vn -0.8516 -0.2070 -0.4816
vn 0.8423 -0.2714 -0.4656
vn -0.8505 -0.2676 -0.4528
vn 0.9189 0.1215 -0.3753
vn -0.9288 0.0820 -0.3615
vn -0.7809 0.6245 -0.0147
vn -0.0346 0.9396 0.3405
vn 0.8169 0.5605 0.1363
vn 0.8741 -0.4468 -0.1905
vn -0.8309 -0.5300 -0.1696
vn -0.2200 0.8253 0.5201
vn 0.8550 0.5019 0.1307
vn -0.2627 -0.9474 -0.1829
vn -0.7804 -0.5754 -0.2448
vn 0.9629 -0.2497 -0.1025
vn 0.8686 0.4907 -0.0688
vn 0.6264 -0.5181 -0.5825
vn 0.7566 -0.3655 -0.5422
vn 0.9096 -0.3919 -0.1379
vn 0.9087 0.3870 0.1566
vn 0.5322 -0.8045 -0.2636
vn 0.4411 0.8974 0.0130
vn 0.6314 -0.7291 -0.2641
vn 0.8179 0.5261 0.2328
vn 0.7450 0.6632 0.0715
vn -0.3339 0.9393 0.0790
vn 0.8836 0.4534 0.1169
vn 0.3901 0.8708 0.2993
vn 0.3156 -0.9163 -0.2466
vn -0.0138 -0.9347 -0.3551
vn 0.9824 -0.0832 -0.1674
vn 0.4905 0.5894 -0.6418
vn 0.8650 -0.4718 -0.1707
vn 0.4578 0.3844 -0.8016
vn 0.2357 -0.9511 -0.1998
vn -0.8254 -0.5265 -0.2037
vn -0.6697 0.7377 -0.0859
vn 0.2872 0.9547 -0.0778
vn -0.2842 -0.9432 -0.1722
vn 0.2833 0.8749 0.3927
vn 0.3628 0.8653 0.3459
vn 0.9102 0.3602 -0.2043
vn 0.4226 0.8794 -0.2192
vn -0.8478 0.5067 -0.1566
vn -0.8629 -0.4989 0.0803
vn 0.5971 -0.7970 0.0913
vn -0.1086 0.8816 -0.4594
vn -0.8349 0.4854 -0.2594
vn -0.2715 -0.8657 0.4205
vn -0.6169 -0.7723 0.1515
vn -0.9786 -0.2058 0.0091
vn -0.9047 0.3693 -0.2125
vn -0.8217 -0.5688 0.0358
vn -0.7645 -0.3695 -0.5282
vn -0.9078 -0.3911 0.1518
vn -0.9077 0.4006 -0.1249
vn -0.5187 -0.8510 0.0826
vn -0.2926 0.9524 -0.0859
vn -0.6055 -0.7742 0.1845
vn -0.8368 0.5238 -0.1596
vn 0.8594 0.5112 0.0038
vn 0.9747 0.1723 0.1422
vn 0.9507 0.3099 0.0119
vn -0.4551 0.8587 -0.2356
vn 0.0781 -0.8459 0.5275
vn 0.0129 -0.9557 0.2941
vn -0.9870 -0.0817 -0.1381
vn -0.4870 0.5953 -0.6391
vn -0.6261 -0.5252 -0.5764
vn -0.4503 0.3934 -0.8016
vn -0.2374 -0.9492 -0.2064
vn 0.6540 -0.7454 -0.1292
vn -0.4465 0.8307 -0.3327
vn 0.8392 0.4952 -0.2246
vn -0.2642 -0.9064 0.3295
vn -0.3309 0.9022 -0.2767
vn -0.3877 0.8797 -0.2753
vn 0.0009 0.9546 -0.2979
vn 0.7579 -0.4958 -0.4239
vn 0.8676 -0.0611 -0.4935
vn -0.0741 0.8199 -0.5677
vn -0.7567 -0.4954 -0.4266
vn -0.0013 -0.9424 -0.3344
vn 0.0139 -0.4937 -0.8695
vn 0.0750 0.8109 -0.5804
vn -0.8657 -0.0652 -0.4962
vn -0.0029 0.1554 -0.9878
vn 0.4881 0.8491 0.2017
vn -0.2130 0.9721 -0.0980
vn -0.7331 -0.6799 0.0149
vn -0.4887 -0.8644 0.1179
vn 0.6641 0.6814 0.3077
vn -0.0087 -0.9837 -0.1798
vn -0.6574 0.6928 0.2964
vn -0.4737 -0.8699 -0.1376
vn -0.7455 -0.6592 -0.0982
vn 0.4390 -0.8851 -0.1545
vn -0.5871 0.7145 0.3806
vn 0.4772 0.8067 0.3485
vn 0.5396 0.6331 0.5550
vn 0.1561 -0.9740 -0.1642
vn -0.5050 -0.8543 -0.1232
vn -0.4213 -0.8799 -0.2196
vn -0.4198 -0.9051 -0.0676
vn -0.9925 -0.1116 -0.0502
vn -0.9704 0.1838 0.1567
vn -0.9819 0.1116 0.1532
vn 0.9822 0.1253 0.1398
vn -0.9838 0.1411 0.1107
vn 0.6385 0.7393 0.2137
vn -0.0908 0.9782 0.1866
vn -0.9749 -0.1961 -0.1051
vn 0.4833 -0.8687 0.1089
vn -0.0428 -0.9201 0.3894
vn -0.6930 0.7124 -0.1105
vn 0.6821 0.7179 -0.1389
vn 0.9797 0.1946 0.0475
vn 0.0097 -0.9050 0.4253
vn 0.8078 0.4951 -0.3199
vn -0.9903 0.1214 0.0676
vn 0.6332 0.7687 -0.0903
vn 0.7007 0.7055 0.1058
vn -0.6668 0.6331 0.3931
vn -0.0466 0.2456 0.9682
vn -0.3014 -0.9021 0.3090
vn 0.4562 -0.8620 0.2208
vn 0.4069 -0.8509 0.3322
vn 0.4441 -0.8948 0.0456
vn 0.7550 -0.6506 0.0813
vn 0.7485 0.3612 0.5561
vn 0.4347 -0.8108 0.3920
vn 0.7456 -0.6280 0.2230
vn -0.4256 -0.8250 0.3717
vn 0.9881 0.1465 0.0461
vn -0.2869 -0.8822 0.3734
vn 0.3056 -0.8829 0.3565
vn 0.0133 -0.9287 0.3706
vn -0.9218 0.3456 -0.1754
vn -0.5990 0.7987 0.0574
vn -0.9804 0.1085 0.1643
vn -0.0059 -0.8712 0.4909
vn 0.8868 0.3978 -0.2354
vn 0.5827 0.8094 0.0733
vn 0.9739 0.1736 0.1461
vn -0.0606 0.8946 -0.4427
vn 0.5848 0.7246 -0.3647
vn -0.6407 0.6993 -0.3169
vn 0.0121 -0.8830 0.4693
vn -0.0178 -0.9410 0.3379
vn -0.6287 -0.7290 0.2709
vn 0.9753 0.2207 -0.0087
vn 0.6274 0.7563 -0.1854
vn -0.6390 0.7511 -0.1660
vn -0.9197 0.1532 0.3615
vn 0.0058 -0.9184 0.3957
vn 0.4644 -0.6603 0.5902
vn 0.6791 0.7272 -0.1002
vn -0.7180 0.6937 -0.0582
vn -0.9952 0.0972 -0.0056
vn 0.9896 0.1187 -0.0817
vn -0.5363 -0.7187 0.4425
vn 0.5092 -0.7273 0.4601
vn -0.9819 0.1874 0.0279
vn 0.6106 -0.7416 0.2778
vn -0.5247 -0.7743 0.3537
vn -0.4858 -0.6710 0.5601
vn -0.9850 0.1555 0.0753
vn 0.0129 -0.7473 0.6644
vn 0.9773 0.2106 0.0236
vn 0.8679 0.1977 0.4556
vn 0.5451 -0.7677 0.3367
vn 0.5236 0.6843 0.5075
vn -0.5947 0.6585 0.4611
vn 0.5137 0.8549 0.0724
vn -0.4310 -0.3825 -0.8173
vn 0.6275 -0.2949 -0.7206
vn -0.9727 -0.2196 0.0746
vn -0.0000 0.0013 1.0000
vn 0.9477 -0.3055 0.0925
vn -0.6446 -0.7155 -0.2693
vn 0.9721 0.1985 -0.1251
vn 0.0116 -0.8311 -0.5560
vn -0.6561 0.7329 -0.1801
vn 0.6295 0.7430 -0.2275
vn 0.6091 0.6900 -0.3910
vn -0.6155 0.6821 -0.3948
vn -0.9954 0.0908 -0.0296
vn 0.9752 0.1713 -0.1404
vn -0.9886 0.1148 -0.0975
vn -0.7212 0.6761 0.1508
vn 0.9785 0.1789 -0.1030
vn -0.9910 0.1299 -0.0328
vn 0.6153 -0.7164 -0.3289
vn 0.7401 -0.6516 0.1662
vn 0.6009 -0.6610 -0.4495
vn -0.4523 -0.8543 0.2563
vn -0.3387 -0.8487 -0.4063
vn -0.6937 -0.3250 -0.6427
vn 0.7265 -0.3019 -0.6173
vn 0.3093 -0.9297 -0.2000
vn -0.3266 -0.9201 -0.2162
vn -0.0117 -0.9680 -0.2506
vn 0.9348 0.3538 0.0304
vn 0.5790 0.7025 0.4138
vn 0.9559 0.1150 0.2702
vn 0.0045 -0.9992 -0.0397
vn -0.9014 0.4325 0.0198
vn -0.5619 0.7123 0.4206
vn -0.9329 0.1743 0.3151
vn 0.0497 0.9816 0.1841
vn 0.6534 0.7367 0.1741
vn -0.6175 0.7711 0.1550
vn -0.0109 -0.9929 -0.1186
vn 0.6171 0.7219 0.3131
vn 0.9758 0.1907 0.1069
vn 0.0109 -0.9596 -0.2811
vn -0.6233 -0.7552 -0.2029
vn -0.6105 0.7358 0.2931
vn -0.8391 0.1916 0.5091
vn -0.0108 -0.9769 -0.2135
vn 0.5812 -0.8055 0.1153
vn 0.5604 0.7392 0.3734
vn -0.5416 0.4867 0.6855
vn 0.9959 0.0898 0.0081
vn -0.9922 0.1138 -0.0519
vn 0.5950 -0.8002 -0.0753
vn -0.5717 -0.8177 -0.0678
vn 0.6298 -0.7493 -0.2049
vn -0.9685 0.2263 0.1038
vn -0.5714 -0.8027 -0.1710
vn -0.5677 -0.8076 0.1594
vn -0.9662 0.2115 0.1471
vn -0.0184 -0.9815 0.1905
vn 0.9757 0.1514 0.1586
vn 0.9012 0.1464 0.4079
vn 0.5497 -0.8195 -0.1623
vn 0.6178 0.4631 0.6355
vn -0.5322 0.7663 0.3599
vn -0.5782 0.6582 0.4821
vn -0.9838 0.1779 -0.0195
vn 0.9715 -0.2276 -0.0657
vn 0.2677 -0.3501 -0.8977
vn 0.7724 0.4670 0.4306
vn -0.9819 0.1870 0.0303
vn -0.9785 0.2056 -0.0143
vn 0.9904 0.1282 0.0523
vn -0.0158 -0.6114 -0.7911
vn -0.6193 0.7649 0.1774
vn 0.6362 0.7394 0.2205
vn 0.6368 0.7657 0.0906
vn -0.6332 0.7694 0.0842
vn -0.0000 0.0012 1.0000
vn -0.4748 -0.2591 -0.8411
vn 0.9931 0.1157 -0.0184
vn 0.9951 0.0941 0.0296
vn -0.9448 -0.3116 -0.1010
vn -0.5535 -0.6403 -0.5326
vn 0.5673 -0.6511 -0.5042
vn -0.6568 -0.7051 -0.2672
vn -0.5782 -0.5237 -0.6256
vn 0.3440 -0.8872 -0.3076
vn 0.3855 -0.6801 -0.6236
vn 0.6637 -0.2702 -0.6975
vn -0.6824 -0.2515 -0.6863
vn 0.3631 0.0054 -0.9317
vn 0.3067 -0.2189 -0.9263
vn -0.3114 -0.2179 -0.9250
vn -0.3656 0.0053 -0.9307
vn -0.2147 0.8595 -0.4638
vn -0.7270 0.5536 -0.4061
vn 0.7287 0.5459 -0.4135
vn 0.8269 0.5591 -0.0599
vn 0.2446 0.9523 -0.1825
vn -0.9922 0.0160 -0.1235
vn 0.1836 -0.9430 0.2775
vn 0.6912 -0.6577 0.2994
vn 0.5232 -0.5446 0.6555
vn -0.0573 -0.7886 0.6123
vn -0.9394 -0.0256 0.3419
vn 0.1275 -0.0550 0.9903
vn 0.5139 0.6707 0.5348
vn 0.0331 -0.9767 0.2121
vn 0.6781 -0.7153 0.1691
vn 0.3302 0.9393 -0.0933
vn 0.1196 0.9816 -0.1488
vn -0.9805 -0.1896 0.0524
vn 0.6458 -0.6236 0.4405
vn 0.7401 0.6630 0.1129
vn 0.5978 0.7487 0.2864
vn -0.9799 0.1579 0.1222
vn 0.5963 -0.5160 0.6149
vn -0.9730 -0.0904 0.2122
vn -0.9971 0.0428 0.0632
vn 0.5682 0.5804 -0.5834
vn -0.7874 0.5651 -0.2462
vn -0.9469 -0.3215 -0.0031
vn -0.9740 -0.0179 0.2258
vn -0.0199 0.9593 0.2818
vn -0.6214 -0.0881 0.7785
vn -0.9778 -0.1274 -0.1663
vn -0.1884 0.8517 -0.4890
vn -0.9635 0.2586 -0.0693
vn 0.0511 -0.9000 0.4329
vn 0.7803 0.6198 0.0841
vn 0.0463 0.9983 0.0364
vn -0.9996 0.0226 0.0175
vn 0.0615 0.9886 -0.1374
vn 0.5357 -0.7220 0.4380
vn -0.0095 -0.8218 0.5696
vn -0.9994 0.0136 0.0310
vn -0.0001 -0.9044 0.4267
vn 0.3725 0.7148 0.5919
vn 0.7993 0.5946 0.0874
vn -0.7805 0.4582 0.4253
vn -0.8027 0.5047 0.3178
vn -0.2210 0.8458 0.4855
vn 0.9948 0.0485 -0.0895
vn 0.9158 -0.3151 -0.2492
vn -0.7235 -0.6588 -0.2061
vn -0.5350 0.4245 0.7304
vn -0.5283 -0.7712 0.3551
vn 0.9444 -0.0375 0.3265
vn 0.9816 -0.0128 0.1904
vn -0.1317 -0.2756 0.9522
vn -0.0287 -0.8811 -0.4720
vn -0.7018 -0.6307 -0.3313
vn -0.2825 0.8354 0.4716
vn -0.0490 -0.9670 -0.2500
vn 0.9642 0.2586 0.0593
vn -0.6968 -0.7172 0.0089
vn -0.7074 0.5310 0.4666
vn -0.7567 -0.6533 -0.0254
vn -0.6567 0.4264 0.6220
vn -0.0369 0.7986 0.6007
vn 0.9999 0.0118 0.0012
vn 0.9995 0.0160 0.0272
vn 0.2665 0.9364 0.2283
vn 0.7837 0.5702 0.2465
vn -0.1791 -0.8960 -0.4062
vn 0.0686 -0.9974 0.0200
vn 0.0208 0.7046 0.7093
vn 0.6945 -0.0892 0.7140
vn 0.9710 -0.1597 -0.1777
vn 0.2333 0.9452 0.2284
vn 0.9762 -0.1896 -0.1052
vn -0.1116 0.8657 0.4880
vn -0.5570 -0.8182 0.1429
vn -0.5602 0.6467 0.5177
vn 0.9748 0.1339 0.1782
vn -0.0454 0.8521 0.5214
vn 0.9998 0.0198 -0.0051
vn 0.0051 -0.9955 -0.0949
vn 0.9929 -0.0994 0.0654
vn 0.0004 -0.9615 -0.2749
vn 0.9236 -0.2444 0.2954
vn 0.2221 0.2442 0.9439
vn 0.8555 0.4819 0.1895
vn 0.7984 0.5867 -0.1357
vn 0.3686 -0.9230 0.1106
vn 0.7875 -0.6099 0.0881
vn 0.7283 -0.6574 0.1931
vn -0.3759 0.2311 -0.8974
vn 0.8445 -0.5350 0.0246
vn -0.0003 0.8463 0.5327
vn -0.6775 0.5902 0.4389
vn -0.2211 0.2439 0.9443
vn -0.3802 0.7140 0.5879
vn -0.4026 0.8441 -0.3542
vn -0.4635 -0.8654 -0.1903
vn -0.7860 -0.6119 0.0877
vn -0.7364 -0.6436 0.2084
vn -0.8430 -0.5372 0.0271
vn -0.8718 0.2661 0.4112
vn 0.8761 -0.4433 0.1895
vn -0.8920 -0.4467 0.0701
vn -0.9836 0.0779 0.1628
vn 0.9839 0.1310 0.1220
vn -0.9630 -0.2691 -0.0176
vn 0.9637 -0.2668 0.0053
vn -0.9663 0.2408 0.0907
vn 0.9829 0.1791 0.0424
vn 0.6822 -0.7281 0.0678
vn -0.6820 -0.7282 0.0671
vn -0.3926 -0.9158 0.0855
vn -0.5349 -0.7538 -0.3817
vn 0.0085 -0.9966 0.0820
vn 0.3956 -0.9145 0.0853
vn 0.5343 -0.7559 -0.3783
vn 0.4811 -0.8395 0.2527
vn -0.4838 -0.8382 0.2516
vn -0.4374 -0.5783 0.6887
vn 0.4381 -0.5776 0.6888
vn 0.5784 0.2572 -0.7742
vn -0.9427 0.3158 -0.1076
vn 0.9387 0.2665 -0.2186
vn 0.5438 -0.2104 -0.8124
vn -0.7965 -0.4214 -0.4336
vn -0.2285 -0.4744 -0.8502
vn -0.4852 -0.2912 -0.8245
vn -0.5920 0.1853 -0.7844
vn 0.0985 -0.9561 -0.2758
vn 0.8396 -0.5259 -0.1361
vn -0.6701 -0.7292 0.1391
vn 0.6729 -0.7262 0.1409
vn 0.0014 -0.7832 0.6218
vn -0.0002 0.9603 0.2790
vn -0.0005 0.7034 0.7108
vn 0.0306 0.9772 -0.2102
vn 0.9730 -0.0803 0.2165
vn -0.2158 0.4319 -0.8757
vn -0.6504 0.6271 0.4286
vn 0.8367 0.5164 0.1826
vn 0.5903 -0.7284 -0.3477
vn -0.5497 -0.8019 -0.2342
vn -0.7273 0.4042 0.5547
vn 0.6357 0.7146 0.2921
vn 0.4342 -0.3232 -0.8408
vn -0.6276 -0.4343 -0.6462
vn -0.8358 -0.0201 0.5487
vn -0.3195 0.0592 -0.9457
vn -0.4269 -0.8921 0.1479
vn -0.1971 -0.7818 0.5915
vn 0.5193 0.8434 -0.1381
vn -0.6862 0.6812 -0.2551
vn -0.7730 -0.6144 0.1577
vn 0.6646 -0.6596 0.3511
vn 0.4318 0.8996 -0.0657
vn -0.7111 0.3227 -0.6247
vn -0.7530 -0.6378 0.1617
vn 0.5534 -0.7446 0.3733
vn -0.5655 -0.0883 -0.8200
vn -0.3628 -0.1136 0.9249
vn -0.0765 -0.7644 0.6401
vn 0.2042 -0.9789 0.0083
vt 0.644780 0.668165
vt 0.619323 0.709622
vt 0.662799 0.712617
vt 0.440856 0.669470
vt 0.408832 0.668211
vt 0.436892 0.707982
vt 0.388459 0.712971
vt 0.384253 0.761223
vt 0.667109 0.761046
vt 0.629214 0.766983
vt 0.964255 0.712662
vt 0.924833 0.666103
vt 0.962650 0.668215
vt 0.605967 0.669389
vt 0.523027 0.708809
vt 0.523033 0.766587
vt 0.427014 0.766163
vt 0.925938 0.708000
vt 0.735265 0.713016
vt 0.777750 0.666114
vt 0.776478 0.708001
vt 0.766251 0.751831
vt 0.731060 0.761263
vt 0.968564 0.761086
vt 0.850759 0.703817
vt 0.850901 0.666101
vt 0.850798 0.746854
vt 0.931498 0.751831
vt 0.736879 0.668261
vt 0.375096 0.831599
vt 0.414344 0.841405
vt 0.676373 0.831599
vt 0.522856 0.844605
vt 0.632514 0.841405
vt 0.721904 0.831632
vt 0.977827 0.831631
vt 0.942057 0.804663
vt 0.850827 0.798887
vt 0.758033 0.804664
vt 0.366812 0.861253
vt 0.631171 0.878792
vt 0.684454 0.860710
vt 0.415410 0.879495
vt 0.420417 0.907167
vt 0.468026 0.928426
vt 0.522785 0.928869
vt 0.577971 0.928426
vt 0.626178 0.906455
vt 0.944749 0.876653
vt 0.850847 0.859544
vt 0.977368 0.861478
vt 0.991379 0.860739
vt 0.725251 0.861985
vt 0.929985 0.904927
vt 0.876515 0.904392
vt 0.772619 0.905558
vt 0.757869 0.877297
vt 0.825599 0.904392
vt 0.806068 0.928448
vt 0.932353 0.930239
vt 0.896007 0.928447
vt 0.426606 0.930888
vt 0.879178 0.982880
vt 0.851376 0.979165
vt 0.807739 0.994776
vt 0.823575 0.982880
vt 0.547233 0.994580
vt 0.499697 0.994761
vt 0.895269 0.994594
vt 0.850637 0.999443
vt 0.522598 0.999429
vt 0.435289 0.649394
vt 0.522343 0.644419
vt 0.522072 0.590524
vt 0.521773 0.551832
vt 0.435905 0.557587
vt 0.433328 0.595905
vt 0.407174 0.656619
vt 0.404763 0.573289
vt 0.610178 0.649400
vt 0.646294 0.656857
vt 0.648555 0.573300
vt 0.611605 0.595911
vt 0.608403 0.557593
vt 0.880870 0.551442
vt 0.819196 0.551455
vt 0.849290 0.534387
vt 0.850828 0.589277
vt 0.890496 0.630394
vt 0.810321 0.630392
vt 0.372025 0.666064
vt 0.371625 0.596395
vt 0.371825 0.631230
vt 0.930090 0.594688
vt 0.970360 0.596448
vt 0.947597 0.631275
vt 0.679038 0.631222
vt 0.679170 0.666053
vt 0.678905 0.596390
vt 0.753091 0.631284
vt 0.769742 0.594684
vt 0.369447 0.373691
vt 0.365684 0.463218
vt 0.422547 0.391053
vt 0.766857 0.471457
vt 0.732033 0.463290
vt 0.735795 0.373773
vt 0.794208 0.297529
vt 0.794931 0.311939
vt 0.745723 0.308632
vt 0.744716 0.334487
vt 0.796728 0.353158
vt 0.379375 0.308544
vt 0.378368 0.334402
vt 0.423087 0.346813
vt 0.808053 0.450997
vt 0.436321 0.535621
vt 0.833860 0.307651
vt 0.505819 0.307563
vt 0.474508 0.346339
vt 0.511000 0.355840
vt 0.839041 0.355923
vt 0.516064 0.535341
vt 0.521250 0.534323
vt 0.768631 0.580219
vt 0.471310 0.306037
vt 0.482842 0.226610
vt 0.509367 0.170544
vt 0.470968 0.170619
vt 0.794100 0.170613
vt 0.845223 0.170647
vt 0.426534 0.306492
vt 0.372745 0.170544
vt 0.408747 0.251063
vt 0.423337 0.170620
vt 0.739093 0.170647
vt 0.449354 0.238990
vt 0.838170 0.057035
vt 0.794131 0.079625
vt 0.744583 0.051209
vt 0.390550 0.079534
vt 0.390400 0.093319
vt 0.429614 0.093361
vt 0.431136 0.026548
vt 0.427129 0.047353
vt 0.468499 0.047611
vt 0.429850 0.079576
vt 0.465559 0.079576
vt 0.794332 0.093409
vt 0.836163 0.079646
vt 0.836224 0.093430
vt 0.501513 0.148798
vt 0.776634 0.014765
vt 0.810083 0.029475
vt 0.776442 0.028332
vt 0.809394 0.014750
vt 0.839582 0.009669
vt 0.821492 0.040074
vt 0.764160 0.035920
vt 0.743100 0.009669
vt 0.465329 0.026543
vt 0.376752 0.009551
vt 0.750179 0.148903
vt 0.931110 0.580170
vt 0.973689 0.463201
vt 0.911338 0.352867
vt 0.969927 0.373563
vt 0.941391 0.471354
vt 0.959999 0.309415
vt 0.961006 0.334774
vt 0.913813 0.297309
vt 0.913135 0.311683
vt 0.867171 0.308435
vt 0.627096 0.391294
vt 0.683959 0.463129
vt 0.608701 0.535744
vt 0.680197 0.373482
vt 0.626555 0.346744
vt 0.671275 0.334688
vt 0.861991 0.355734
vt 0.899011 0.450843
vt 0.521512 0.543112
vt 0.528185 0.535307
vt 0.533953 0.355651
vt 0.575133 0.346270
vt 0.539134 0.308346
vt 0.578331 0.305941
vt 0.535522 0.170544
vt 0.566800 0.226762
vt 0.578497 0.170620
vt 0.858870 0.170647
vt 0.913965 0.170613
vt 0.623108 0.306295
vt 0.670268 0.309327
vt 0.640895 0.250813
vt 0.676901 0.170544
vt 0.626149 0.170620
vt 0.966631 0.170647
vt 0.600288 0.238588
vt 0.665913 0.148798
vt 0.659462 0.079534
vt 0.672213 0.051039
vt 0.622830 0.047303
vt 0.619305 0.026493
vt 0.673696 0.009496
vt 0.913932 0.093409
vt 0.949194 0.079647
vt 0.949155 0.093430
vt 0.914346 0.079625
vt 0.866794 0.056979
vt 0.961944 0.051154
vt 0.541288 0.079534
vt 0.541425 0.093319
vt 0.584360 0.093361
vt 0.585937 0.026488
vt 0.582198 0.047570
vt 0.619574 0.148854
vt 0.890506 0.040019
vt 0.944712 0.035865
vt 0.901915 0.029419
vt 0.932238 0.014710
vt 0.932430 0.028277
vt 0.902604 0.014695
vt 0.865382 0.009614
vt 0.963427 0.009614
vt 0.866683 0.148903
vt 0.770285 0.930911
vt 0.619954 0.930215
vt 0.708149 0.861282
vt 0.246056 0.273177
vt 0.221401 0.425053
vt 0.217958 0.309426
vt 0.137826 0.339658
vt 0.064786 0.274183
vt 0.048413 0.430781
vt 0.134850 0.437916
vt 0.166914 0.420218
vt 0.164680 0.344556
vt 0.159501 0.276910
vt 0.138893 0.275661
vt 0.341354 0.420218
vt 0.308273 0.428394
vt 0.302973 0.398716
vt 0.248397 0.403029
vt 0.244469 0.431346
vt 0.301709 0.275326
vt 0.306875 0.331307
vt 0.033517 0.309426
vt 0.021616 0.273177
vt 0.247270 0.478097
vt 0.213592 0.484978
vt 0.952902 0.942114
vt 0.976728 0.923592
vt 0.305240 0.480161
vt 0.686002 0.892955
vt 0.978783 0.891772
vt 0.335347 0.485946
vt 0.129763 0.495622
vt 0.160907 0.485947
vt 0.640505 0.942092
vt 0.975216 0.948147
vt 0.058731 0.492549
vt 0.685649 0.948125
vt 0.019152 0.484978
vt 0.016961 0.425053
vt 0.151520 0.215546
vt 0.128524 0.248247
vt 0.155702 0.240464
vt 0.339120 0.344556
vt 0.333254 0.256072
vt 0.333941 0.276910
vt 0.311535 0.247927
vt 0.158813 0.256072
vt 0.058905 0.195835
vt 0.030158 0.204217
vt 0.026828 0.259340
vt 0.067217 0.258763
vt 0.118878 0.200164
vt 0.330142 0.240464
vt 0.278937 0.216146
vt 0.315961 0.215546
vt 0.251268 0.259340
vt 0.234598 0.204217
vt 0.239949 0.106029
vt 0.290308 0.078997
vt 0.269404 0.101617
vt 0.242624 0.085049
vt 0.154419 0.096134
vt 0.059939 0.082315
vt 0.108186 0.098820
vt 0.102839 0.079475
vt 0.040684 0.085049
vt 0.059594 0.104090
vt 0.040859 0.060318
vt 0.060284 0.059467
vt 0.077283 0.047897
vt 0.097493 0.054237
vt 0.245299 0.060318
vt 0.261723 0.047897
vt 0.281758 0.054898
vt 0.221442 0.605183
vt 0.248442 0.627139
vt 0.246309 0.757055
vt 0.065112 0.756176
vt 0.048515 0.599576
vt 0.032945 0.720833
vt 0.138724 0.691201
vt 0.134946 0.592349
vt 0.164333 0.684650
vt 0.304758 0.752957
vt 0.307679 0.699371
vt 0.338773 0.684650
vt 0.303017 0.631355
vt 0.308266 0.601654
vt 0.017002 0.605183
vt 0.141178 0.752562
vt 0.021869 0.757055
vt 0.305130 0.549891
vt 0.335355 0.544211
vt 0.160915 0.544212
vt 0.166962 0.609890
vt 0.725109 0.948850
vt 0.723530 0.924229
vt 0.749735 0.942785
vt 0.247173 0.552064
vt 0.244469 0.598821
vt 0.213616 0.545318
vt 0.728496 0.892385
vt 0.366079 0.893687
vt 0.129871 0.534701
vt 0.058844 0.537819
vt 0.365632 0.948828
vt 0.406054 0.942762
vt 0.217386 0.720833
vt 0.341402 0.609890
vt 0.019175 0.545318
vt 0.156526 0.790249
vt 0.160625 0.770891
vt 0.129379 0.782529
vt 0.312328 0.782717
vt 0.162334 0.751108
vt 0.336774 0.751108
vt 0.335065 0.770891
vt 0.059454 0.834245
vt 0.067683 0.771480
vt 0.027175 0.770663
vt 0.119428 0.829840
vt 0.152002 0.814170
vt 0.330966 0.790249
vt 0.316442 0.814170
vt 0.279391 0.813574
vt 0.251615 0.770663
vt 0.235097 0.825620
vt 0.242325 0.943542
vt 0.282039 0.975419
vt 0.244734 0.969999
vt 0.299240 0.929061
vt 0.059616 0.923903
vt 0.030657 0.825620
vt 0.030475 0.922974
vt 0.108762 0.928295
vt 0.103429 0.948342
vt 0.136199 0.948492
vt 0.075847 0.984290
vt 0.127598 0.975419
vt 0.098097 0.976421
vt 0.040293 0.969999
vt 0.059777 0.970727
vt 0.260287 0.984289
vt 0.549070 0.009496
vt 0.503269 0.079534
vt 0.505277 0.056919
vt 0.793999 0.148879
vt 0.837371 0.148904
vt 0.914174 0.148879
vt 0.955644 0.148903
vt 0.543335 0.148798
vt 0.582660 0.148853
vt 0.867600 0.079646
vt 0.383832 0.148798
vt 0.429980 0.148853
vt 0.756896 0.079646
vt 0.619863 0.079576
vt 0.584955 0.079576
vt 0.465978 0.093361
vt 0.059696 0.945174
vt 0.269578 0.924679
vt 0.154800 0.929061
vt 0.127317 0.054898
vt 0.030508 0.106029
vt 0.378236 0.051093
vt 0.540482 0.056864
vt 0.728432 0.596453
vt 0.619973 0.093361
vt 0.466836 0.148853
vt 0.496689 0.009551
vt 0.756746 0.093430
vt 0.503331 0.093319
vt 0.867737 0.093430
vt 0.659423 0.093319
vt 0.040384 0.943542
vt 0.239915 0.922974
vt 0.290639 0.948492
vt 0.135868 0.078997
vt 0.298859 0.096134
vt 0.937862 0.301029
vt 0.818862 0.549447
vt 0.943817 0.689731
vt 0.634516 0.458271
vt 0.736820 0.488742
vt 0.644740 0.400625
vt 0.240446 0.251412
vt -0.240300 0.252194
vt -0.062137 0.301029
vt 0.762085 0.137388
vt 0.543734 0.037073
vt 0.055663 0.740827
vt 0.165656 0.544295
vt 0.061124 0.300556
vt 0.197544 0.422367
vt 0.263546 0.487867
vt 0.356896 0.399917
vt 0.237832 0.136615
vt 0.458573 0.036805
vt -0.237915 0.137388
vt -0.056183 0.689731
vt 0.830960 0.755524
vt 0.665861 0.909705
vt 0.940801 0.956730
vt 0.094974 0.884125
vt -0.059199 0.956730
vt 0.486064 0.974303
vt 0.364763 0.655515
vt 0.158633 0.707437
vt 0.759700 0.252194
vt 0.801834 0.425477
vt 0.321375 0.844942
vt 0.656686 0.686679
vt 0.608014 0.532443
vt 0.564193 0.763691
vt 0.367043 0.457591
vt 0.393556 0.531810
vt 0.426887 0.792621
vt 0.468468 0.292592
vt 0.491027 0.314849
vt 0.491879 0.365390
vt 0.472586 0.459759
vt 0.489532 0.493355
vt 0.500821 0.568272
vt 0.435519 0.031243
vt 0.568444 0.031489
vt 0.500995 0.275123
vt 0.510376 0.314937
vt 0.512765 0.493436
vt 0.509796 0.365458
vt 0.529849 0.459952
vt 0.533605 0.292802
vt 0.524120 0.896797
vt 0.160970 0.844315
vt 0.658523 0.845641
vt 0.374037 0.888198
vt 0.200000 0.400000
vt 0.250000 0.400000
vt 0.250000 0.300000
vt 0.200000 0.300000
vt 0.250000 0.350000
vt 0.250000 0.250000
vt 0.200000 0.350000
vt 0.200000 0.250000
vt 0.180000 0.220000
vt 0.200000 0.150000
vt 0.230000 0.150000
vt 0.260000 0.150000
s 1
usemtl npc_jaka_ronda_mat
f 17/1/17 4/2/4 6/3/6
f 1/4/1 18/5/18 3/6/3
f 5/7/5 42/8/42 3/6/3
f 45/9/45 4/2/4 44/10/44
f 5/7/5 3/6/3 18/5/18
f 13/11/13 15/12/15 37/13/37
f 2/14/2 1/4/1 11/15/11
f 1/4/1 3/6/3 11/15/11
f 47/16/47 3/6/3 43/17/43
f 7/18/7 15/12/15 13/11/13
f 12/19/12 14/20/14 8/21/8
f 8/21/8 41/22/41 51/23/51
f 7/18/7 13/11/13 52/24/52
f 15/12/15 7/18/7 9/25/9
f 14/20/14 16/26/16 9/25/9
f 8/21/8 14/20/14 9/25/9
f 9/25/9 10/27/10 41/22/41
f 9/25/9 7/18/7 46/28/46
f 16/26/16 15/12/15 9/25/9
f 4/2/4 17/1/17 2/14/2
f 12/19/12 38/29/38 14/20/14
f 10/27/10 9/25/9 46/28/46
f 9/25/9 41/22/41 8/21/8
f 8/21/8 51/23/51 12/19/12
f 42/8/42 43/17/43 3/6/3
f 4/2/4 11/15/11 47/16/47
f 6/3/6 4/2/4 45/9/45
f 7/18/7 52/24/52 46/28/46
f 44/10/44 4/2/4 47/16/47
f 53/30/53 54/31/54 43/17/43
f 55/32/55 45/9/45 44/10/44
f 44/10/44 47/16/47 57/33/57
f 44/10/44 57/33/57 56/34/56
f 51/23/51 41/22/41 75/35/75
f 46/28/46 76/36/76 49/37/49
f 50/38/50 10/27/10 49/37/49
f 48/39/48 41/22/41 10/27/10
f 48/39/48 10/27/10 50/38/50
f 41/22/41 48/39/48 75/35/75
f 10/27/10 46/28/46 49/37/49
f 46/28/46 52/24/52 76/36/76
f 55/32/55 44/10/44 56/34/56
f 43/17/43 54/31/54 57/33/57
f 42/8/42 53/30/53 43/17/43
f 47/16/47 43/17/43 57/33/57
f 54/31/54 53/30/53 64/40/64
f 69/41/69 63/42/63 56/34/56
f 54/31/54 70/43/70 57/33/57
f 59/44/59 67/45/67 157/46/157
f 69/41/69 57/33/57 157/46/157
f 68/47/68 61/48/61 157/46/157
f 71/49/71 65/50/65 49/37/49
f 73/51/73 76/36/76 77/52/77
f 65/50/65 50/38/50 49/37/49
f 63/42/63 55/32/55 56/34/56
f 48/39/48 74/53/74 75/35/75
f 48/39/48 50/38/50 65/50/65
f 60/54/60 66/55/66 65/50/65
f 65/50/65 58/56/58 72/57/72
f 58/56/58 62/58/62 81/59/81
f 60/54/60 360/60/346 82/61/82
f 66/55/66 62/58/62 65/50/65
f 82/61/82 66/55/66 60/54/60
f 65/50/65 62/58/62 58/56/58
f 70/43/70 157/46/157 57/33/57
f 358/62/344 67/45/67 59/44/59
f 61/48/61 69/41/69 157/46/157
f 161/63/161 162/64/162 66/55/66
f 162/64/162 62/58/62 66/55/66
f 159/65/159 81/59/81 158/66/158
f 81/59/81 62/58/62 158/66/158
f 160/67/160 157/46/157 164/68/164
f 68/47/68 157/46/157 160/67/160
f 161/63/161 82/61/82 165/69/165
f 161/63/161 66/55/66 82/61/82
f 162/64/162 158/66/158 62/58/62
f 157/46/157 67/45/67 164/68/164
f 162/64/162 161/63/161 163/70/163
f 158/66/158 162/64/162 163/70/163
f 166/71/166 160/67/160 164/68/164
f 158/66/158 163/70/163 159/65/159
f 161/63/161 165/69/165 163/70/163
f 20/72/20 1/4/1 26/73/26
f 30/74/30 27/75/27 189/76/189
f 30/74/30 28/77/28 26/73/26
f 21/78/21 18/5/18 1/4/1
f 20/72/20 21/78/21 1/4/1
f 190/79/190 21/78/21 28/77/28
f 190/79/190 28/77/28 189/76/189
f 26/73/26 2/14/2 19/80/19
f 22/81/22 2/14/2 17/1/17
f 19/80/19 2/14/2 22/81/22
f 168/82/168 29/83/29 22/81/22
f 168/82/168 167/84/167 29/83/29
f 23/85/23 24/86/24 193/87/193
f 25/88/25 32/89/32 31/90/31
f 21/78/21 35/91/35 18/5/18
f 191/92/191 33/93/33 21/78/21
f 191/92/191 21/78/21 190/79/190
f 170/94/170 32/89/32 25/88/25
f 170/94/170 169/95/169 34/96/34
f 40/97/40 22/81/22 36/98/36
f 36/98/36 22/81/22 17/1/17
f 184/99/184 168/82/168 22/81/22
f 26/73/26 1/4/1 2/14/2
f 167/84/167 27/75/27 30/74/30
f 26/73/26 29/83/29 30/74/30
f 25/88/25 23/85/23 170/94/170
f 16/26/16 32/89/32 15/12/15
f 39/100/39 192/101/192 31/90/31
f 31/90/31 14/20/14 39/100/39
f 20/72/20 26/73/26 28/77/28
f 21/78/21 20/72/20 28/77/28
f 22/81/22 29/83/29 19/80/19
f 19/80/19 29/83/29 26/73/26
f 30/74/30 189/76/189 28/77/28
f 30/74/30 29/83/29 167/84/167
f 196/102/196 198/103/198 200/104/200
f 205/105/205 211/106/211 210/107/210
f 216/108/216 227/109/227 215/110/215
f 206/111/206 215/110/215 197/112/197
f 239/113/239 213/114/213 195/115/195
f 205/105/205 197/112/197 204/116/204
f 195/115/195 196/102/196 200/104/200
f 201/117/201 190/79/190 189/76/189
f 214/118/214 197/112/197 227/109/227
f 238/119/238 194/120/194 199/121/199
f 24/86/24 212/122/212 193/87/193
f 24/86/24 204/116/204 212/122/212
f 199/121/199 202/123/202 209/124/209
f 198/103/198 191/92/191 190/79/190
f 194/120/194 195/115/195 200/104/200
f 201/117/201 27/75/27 202/123/202
f 202/123/202 200/104/200 201/117/201
f 207/125/207 204/116/204 24/86/24
f 214/118/214 212/122/212 197/112/197
f 226/126/226 238/119/238 217/127/217
f 219/128/219 218/129/218 217/127/217
f 220/130/220 240/131/240 214/118/214
f 219/128/219 217/127/217 238/119/238
f 195/115/195 225/132/225 239/113/239
f 223/133/223 221/134/221 222/135/222
f 223/133/223 239/113/239 221/134/221
f 241/136/241 220/130/220 215/110/215
f 226/126/226 225/132/225 194/120/194
f 222/135/222 221/134/221 224/137/224
f 224/137/224 218/129/218 222/135/222
f 220/130/220 216/108/216 215/110/215
f 214/118/214 216/108/216 220/130/220
f 225/132/225 224/137/224 221/134/221
f 218/129/218 224/137/224 217/127/217
f 254/138/254 261/139/261 255/140/255
f 260/141/260 230/142/230 231/143/231
f 253/144/253 263/145/263 262/146/262
f 264/147/264 265/148/265 263/145/263
f 228/149/228 259/150/259 229/151/229
f 233/152/233 218/129/218 219/128/219
f 278/153/273 281/154/276 279/155/274
f 281/154/276 278/153/273 280/156/275
f 256/157/256 281/154/276 280/156/275
f 281/154/276 282/158/277 279/155/274
f 283/159/278 258/160/258 278/153/273
f 283/159/278 254/138/254 255/140/255
f 279/155/274 283/159/278 278/153/273
f 269/157/257 285/156/257 284/153/257
f 284/153/257 273/160/257 269/157/257
f 266/144/257 257/161/257 274/162/257
f 235/163/235 220/130/220 241/136/241
f 170/94/170 183/164/183 169/95/169
f 169/95/169 183/164/183 175/165/175
f 172/166/172 174/167/174 181/168/181
f 287/169/280 182/170/182 172/166/172
f 288/171/281 299/172/292 286/173/279
f 177/174/177 168/82/168 186/175/186
f 177/174/177 178/176/178 168/82/168
f 177/174/177 185/177/185 173/178/173
f 185/177/185 188/179/188 173/178/173
f 193/87/193 176/180/176 23/85/23
f 172/166/172 176/180/176 286/173/279
f 176/180/176 172/166/172 180/181/180
f 209/124/209 203/182/203 179/183/179
f 187/184/187 171/185/171 310/186/303
f 209/124/209 179/183/179 187/184/187
f 177/174/177 186/175/186 185/177/185
f 173/178/173 171/185/171 177/174/177
f 177/174/177 171/185/171 179/183/179
f 180/181/180 181/168/181 183/164/183
f 287/169/280 172/166/172 299/172/292
f 171/185/171 297/187/290 310/186/303
f 291/188/284 289/189/282 290/190/283
f 291/188/284 310/186/303 289/189/282
f 312/191/305 292/192/285 286/173/279
f 298/193/291 311/194/304 293/195/286
f 311/194/304 295/196/288 293/195/286
f 295/196/288 294/197/287 293/195/286
f 313/198/306 287/169/280 292/192/285
f 297/187/290 173/178/173 298/193/291
f 294/197/287 290/190/283 296/199/289
f 289/189/282 296/199/289 290/190/283
f 292/192/285 287/169/280 288/171/281
f 286/173/279 292/192/285 288/171/281
f 297/187/290 296/199/289 289/189/282
f 294/197/287 296/199/289 293/195/286
f 305/200/298 294/197/287 295/196/288
f 331/201/324 326/202/319 334/203/327
f 325/204/318 334/203/327 330/205/323
f 302/206/295 348/207/336 303/208/296
f 333/209/326 328/210/321 339/211/332
f 332/212/325 301/213/294 300/214/293
f 325/204/318 329/215/322 335/216/328
f 290/190/283 294/197/287 309/217/302
f 328/210/321 354/218/342 355/219/343
f 353/220/341 350/221/338 351/222/339
f 352/223/340 350/221/338 353/220/341
f 327/224/320 352/223/340 353/220/341
f 354/218/342 327/224/320 353/220/341
f 339/211/332 355/219/343 345/225/335
f 355/219/343 350/221/338 345/225/335
f 356/221/331 357/223/331 340/224/331
f 356/221/331 340/224/331 346/225/331
f 307/226/300 292/192/285 312/191/305
f 58/56/58 81/59/81 359/227/345
f 361/228/347 61/48/61 68/47/68
f 56/34/56 57/33/57 69/41/69
f 70/43/70 59/44/59 157/46/157
f 54/31/54 64/40/64 70/43/70
f 49/37/49 73/51/73 71/49/71
f 60/54/60 65/50/65 71/49/71
f 65/50/65 72/57/72 48/39/48
f 49/37/49 76/36/76 73/51/73
f 48/39/48 72/57/72 74/53/74
f 74/53/74 79/229/79 75/35/75
f 130/230/130 138/231/138 128/232/128
f 141/233/141 129/234/129 125/235/125
f 125/235/125 121/236/121 141/233/141
f 122/237/122 140/238/140 121/236/121
f 142/239/142 126/240/126 140/238/140
f 143/241/143 123/242/123 135/243/135
f 134/244/134 138/231/138 130/230/130
f 124/245/124 134/244/134 123/242/123
f 127/246/127 139/247/139 130/230/130
f 125/235/125 129/234/129 144/248/144
f 129/234/129 145/249/145 144/248/144
f 132/250/132 136/251/136 124/245/124
f 133/252/133 60/54/60 148/253/148
f 132/250/132 124/245/124 123/242/123
f 131/254/131 132/250/132 123/242/123
f 69/41/69 61/48/61 137/255/137
f 71/49/71 73/51/73 150/256/150
f 152/257/152 123/242/123 143/241/143
f 78/258/78 153/259/153 121/236/121
f 61/48/61 361/228/347 149/260/149
f 146/261/146 133/252/133 148/253/148
f 121/236/121 125/235/125 83/262/83
f 360/60/346 60/54/60 133/252/133
f 147/263/147 61/48/61 149/260/149
f 123/242/123 152/257/152 131/254/131
f 124/245/124 136/251/136 138/231/138
f 134/244/134 130/230/130 139/247/139
f 143/241/143 135/243/135 139/247/139
f 135/243/135 123/242/123 134/244/134
f 151/264/151 125/235/125 154/265/154
f 148/253/148 60/54/60 150/256/150
f 137/255/137 61/48/61 147/263/147
f 153/259/153 122/237/122 121/236/121
f 154/265/154 125/235/125 144/248/144
f 124/245/124 138/231/138 134/244/134
f 366/266/352 364/267/350 377/268/363
f 126/240/126 364/267/350 129/234/129
f 139/247/139 135/243/135 134/244/134
f 155/269/155 139/247/139 127/246/127
f 140/238/140 126/240/126 141/233/141
f 155/269/155 143/241/143 139/247/139
f 129/234/129 141/233/141 126/240/126
f 140/238/140 141/233/141 121/236/121
f 362/270/348 156/271/156 127/246/127
f 362/270/348 127/246/127 363/272/349
f 127/246/127 130/230/130 363/272/349
f 126/240/126 387/273/373 364/267/350
f 369/274/355 368/275/354 375/276/361
f 145/249/145 129/234/129 376/277/362
f 365/278/351 369/274/355 376/277/362
f 376/277/362 364/267/350 365/278/351
f 362/270/348 363/272/349 394/279/380
f 365/278/351 364/267/350 366/266/352
f 367/280/353 388/281/374 363/272/349
f 130/230/130 393/282/379 363/272/349
f 393/282/379 367/280/353 363/272/349
f 367/280/353 389/283/375 379/284/365
f 383/285/369 386/286/372 385/287/371
f 366/266/352 378/288/364 365/278/351
f 384/289/370 381/290/367 382/291/368
f 402/292/388 380/293/366 384/289/370
f 371/294/357 370/295/356 373/296/359
f 373/296/359 370/295/356 374/297/360
f 390/298/376 392/299/378 372/300/358
f 102/301/102 98/302/98 94/303/94
f 93/304/93 89/305/89 92/306/92
f 89/305/89 93/304/93 105/307/105
f 85/308/85 105/307/105 104/309/104
f 91/310/91 103/311/103 119/312/119
f 103/311/103 98/302/98 99/313/99
f 99/313/99 98/302/98 87/314/87
f 89/305/89 118/315/118 92/306/92
f 90/316/90 105/307/105 93/304/93
f 93/304/93 92/306/92 109/317/109
f 87/314/87 95/318/95 101/319/101
f 116/320/116 85/308/85 86/321/86
f 110/322/110 96/323/96 97/324/97
f 97/324/97 58/56/58 359/227/345
f 112/325/112 87/314/87 88/326/88
f 95/318/95 87/314/87 112/325/112
f 102/301/102 100/327/100 88/326/88
f 58/56/58 96/323/96 114/328/114
f 117/329/117 70/43/70 64/40/64
f 72/57/72 58/56/58 114/328/114
f 80/330/80 84/331/84 85/308/85
f 111/332/111 113/333/113 59/44/59
f 113/333/113 358/62/344 59/44/59
f 100/327/100 112/325/112 88/326/88
f 96/323/96 58/56/58 97/324/97
f 111/332/111 59/44/59 117/329/117
f 98/302/98 88/326/88 87/314/87
f 102/301/102 94/303/94 108/334/108
f 107/335/107 99/313/99 87/314/87
f 94/303/94 98/302/98 103/311/103
f 84/331/84 115/336/115 89/305/89
f 87/314/87 101/319/101 107/335/107
f 88/326/88 98/302/98 102/301/102
f 89/305/89 115/336/115 118/315/118
f 420/337/406 405/338/391 407/339/393
f 91/310/91 406/340/392 94/303/94
f 107/335/107 103/311/103 99/313/99
f 94/303/94 103/311/103 91/310/91
f 103/311/103 107/335/107 119/312/119
f 85/308/85 104/309/104 86/321/86
f 405/338/391 106/341/106 90/316/90
f 89/305/89 105/307/105 85/308/85
f 105/307/105 90/316/90 104/309/104
f 405/338/391 90/316/90 407/339/393
f 91/310/91 119/312/119 120/342/120
f 91/310/91 430/343/416 406/340/392
f 90/316/90 93/304/93 407/339/393
f 412/344/398 419/345/405 418/346/404
f 109/317/109 418/346/404 419/345/405
f 408/347/394 407/339/393 419/345/405
f 93/304/93 419/345/405 407/339/393
f 409/348/395 407/339/393 408/347/394
f 437/349/423 431/350/417 406/340/392
f 410/351/396 406/340/392 431/350/417
f 436/352/422 406/340/392 410/351/396
f 411/353/397 436/352/422 410/351/396
f 428/354/414 416/355/402 415/356/401
f 410/351/396 431/350/417 422/357/408
f 408/347/394 412/344/398 423/358/409
f 412/344/398 432/359/418 421/360/407
f 424/361/410 426/362/412 427/363/413
f 417/364/403 434/365/420 413/366/399
f 433/367/419 417/364/403 414/368/400
f 414/368/400 417/364/403 413/366/399
f 416/355/402 435/369/421 415/356/401
f 84/331/84 89/305/89 85/308/85
f 116/320/116 80/330/80 85/308/85
f 83/262/83 125/235/125 151/264/151
f 121/236/121 83/262/83 78/258/78
f 72/57/72 114/328/114 74/53/74
f 150/256/150 60/54/60 71/49/71
f 59/44/59 70/43/70 117/329/117
f 69/41/69 137/255/137 63/42/63
f 347/205/331 341/370/331 344/215/331
f 276/371/271 267/372/266 262/146/262
f 202/123/202 199/121/199 194/120/194
f 178/176/178 27/75/27 167/84/167
f 297/187/290 289/189/282 310/186/303
f 225/132/225 221/134/221 239/113/239
f 173/178/173 311/194/304 298/193/291
f 293/195/286 296/199/289 298/193/291
f 194/120/194 238/119/238 226/126/226
f 226/126/226 217/127/217 224/137/224
f 225/132/225 195/115/195 194/120/194
f 224/137/224 225/132/225 226/126/226
f 171/185/171 173/178/173 297/187/290
f 297/187/290 298/193/291 296/199/289
f 299/172/292 172/166/172 286/173/279
f 287/169/280 299/172/292 288/171/281
f 206/111/206 197/112/197 210/107/210
f 214/118/214 227/109/227 216/108/216
f 200/104/200 198/103/198 190/79/190
f 189/76/189 27/75/27 201/117/201
f 177/174/177 179/183/179 178/176/178
f 194/120/194 200/104/200 202/123/202
f 27/75/27 203/182/203 202/123/202
f 179/183/179 171/185/171 187/184/187
f 178/176/178 179/183/179 27/75/27
f 203/182/203 27/75/27 179/183/179
f 203/182/203 209/124/209 202/123/202
f 282/158/277 256/157/256 254/138/254
f 354/218/342 351/222/339 355/219/343
f 282/158/277 254/138/254 283/159/278
f 281/154/276 256/157/256 282/158/277
f 279/155/274 282/158/277 283/159/278
f 283/159/278 255/140/255 258/160/258
f 328/210/321 327/224/320 354/218/342
f 353/220/341 351/222/339 354/218/342
f 328/210/321 355/219/343 339/211/332
f 351/222/339 350/221/338 355/219/343
f 234/373/234 229/151/229 244/374/244
f 262/146/262 267/372/266 272/161/269
f 306/375/299 303/208/296 316/376/309
f 301/213/294 320/377/313 308/378/301
f 328/210/321 333/209/326 349/379/337
f 230/142/230 248/380/248 236/381/236
f 255/140/255 261/139/261 277/382/272
f 228/149/228 277/382/272 261/139/261
f 333/209/326 302/206/295 349/379/337
f 331/201/324 334/203/327 337/383/330
f 335/216/328 334/203/327 325/204/318
f 334/203/327 335/216/328 336/384/329
f 253/144/253 262/146/262 272/161/269
f 276/371/271 262/146/262 265/148/265
f 231/143/231 232/385/232 264/147/264
f 263/145/263 253/144/253 275/162/270
f 200/104/200 190/79/190 201/117/201
f 168/82/168 178/176/178 167/84/167
f 414/368/400 425/386/411 433/367/419
f 413/366/399 441/362/427 414/368/400
f 410/351/396 422/357/408 429/387/415
f 424/361/410 439/388/425 408/347/394
f 391/389/377 373/296/359 374/297/360
f 391/389/377 374/297/360 397/291/383
f 367/280/353 379/284/365 386/286/372
f 369/274/355 380/293/366 396/390/382
f 365/278/351 381/290/367 380/293/366
f 24/86/24 25/88/25 192/101/192
f 25/88/25 24/86/24 23/85/23
f 186/175/186 168/82/168 184/99/184
f 205/105/205 207/125/207 211/106/211
f 412/344/398 418/346/404 432/359/418
f 436/352/422 94/303/94 406/340/392
f 109/317/109 419/345/405 93/304/93
f 408/347/394 419/345/405 412/344/398
f 376/277/362 375/276/361 145/249/145
f 389/283/375 367/280/353 393/282/379
f 375/276/361 376/277/362 369/274/355
f 364/267/350 376/277/362 129/234/129
f 344/215/331 338/204/331 347/205/331
f 263/145/263 275/162/270 268/391/267
f 343/392/334 335/216/328 329/215/322
f 387/273/373 126/240/126 142/239/142
f 156/271/156 155/269/155 127/246/127
f 106/341/106 104/309/104 90/316/90
f 91/310/91 120/342/120 430/343/416
f 204/116/204 197/112/197 212/122/212
f 207/125/207 24/86/24 192/101/192
f 176/180/176 180/181/180 23/85/23
f 172/166/172 181/168/181 180/181/180
f 207/125/207 208/393/208 211/106/211
f 210/107/210 197/112/197 205/105/205
f 181/168/181 174/167/174 175/165/175
f 23/85/23 180/181/180 183/164/183
f 215/110/215 227/109/227 197/112/197
f 213/114/213 196/102/196 195/115/195
f 182/170/182 174/167/174 172/166/172
f 188/179/188 311/194/304 173/178/173
f 332/212/325 336/384/329 335/216/328
f 337/383/330 336/384/329 300/214/293
f 336/384/329 337/383/330 334/203/327
f 331/201/324 337/383/330 304/394/297
f 260/141/260 264/147/264 263/145/263
f 236/381/236 237/395/237 231/143/231
f 265/148/265 262/146/262 263/145/263
f 276/371/271 265/148/265 232/385/232
f 267/372/266 270/396/268 272/161/269
f 254/138/254 259/150/259 261/139/261
f 332/212/325 335/216/328 343/392/334
f 263/145/263 268/391/267 260/141/260
f 333/209/326 339/211/332 348/207/336
f 326/202/319 330/205/323 334/203/327
f 343/392/334 329/215/322 342/370/333
f 257/161/257 271/396/257 274/162/257
f 2/14/2 11/15/11 4/2/4
f 11/15/11 3/6/3 47/16/47
f 205/105/205 204/116/204 207/125/207
f 192/101/192 208/393/208 207/125/207
f 183/164/183 181/168/181 175/165/175
f 23/85/23 183/164/183 170/94/170
f 261/139/261 259/150/259 228/149/228
f 234/373/234 243/397/243 228/149/228
f 276/371/271 232/385/232 242/398/242
f 247/373/247 245/374/245 220/130/220
f 277/382/272 228/149/228 243/397/243
f 249/380/249 222/135/222 251/381/251
f 260/141/260 231/143/231 264/147/264
f 218/129/218 252/395/252 251/381/251
f 332/212/325 300/214/293 336/384/329
f 304/394/297 300/214/293 308/378/301
f 349/379/337 302/206/295 314/399/307
f 321/377/314 290/190/283 323/378/316
f 333/209/326 348/207/336 302/206/295
f 302/206/295 306/375/299 314/399/307
f 331/201/324 304/394/297 315/400/308
f 319/375/312 317/376/310 292/192/285
f 300/214/293 304/394/297 337/383/330
f 315/400/308 304/394/297 324/217/317
f 232/385/232 265/148/265 264/147/264
f 242/398/242 232/385/232 237/395/237
f 315/400/308 324/217/317 318/200/311
f 317/376/310 313/198/306 292/192/285
f 302/206/295 303/208/296 306/375/299
f 319/375/312 292/192/285 307/226/300
f 314/399/307 306/375/299 322/226/315
f 291/188/284 290/190/283 321/377/314
f 301/213/294 308/378/301 300/214/293
f 309/217/302 323/378/316 290/190/283
f 242/398/242 237/395/237 246/152/246
f 245/374/245 240/131/240 220/130/220
f 228/149/228 229/151/229 234/373/234
f 220/130/220 235/163/235 247/373/247
f 243/397/243 234/373/234 250/163/250
f 223/133/223 222/135/222 249/380/249
f 230/142/230 236/381/236 231/143/231
f 218/129/218 251/381/251 222/135/222
f 308/378/301 324/217/317 304/394/297
f 305/200/298 309/217/302 294/197/287
f 237/395/237 232/385/232 231/143/231
f 233/152/233 252/395/252 218/129/218
f 388/281/374 394/279/380 363/272/349
f 387/273/373 377/268/363 364/267/350
f 406/340/392 430/343/416 437/349/423
f 407/339/393 409/348/395 420/337/406
f 423/358/409 421/360/407 445/401/431
f 410/351/396 438/402/424 411/353/397
f 446/354/432 429/387/415 442/403/428
f 439/388/425 409/348/395 408/347/394
f 424/361/410 423/358/409 440/386/426
f 423/358/409 412/344/398 421/360/407
f 378/288/364 398/404/384 381/290/367
f 367/280/353 395/405/381 388/281/374
f 372/300/358 399/285/385 403/287/389
f 369/274/355 396/390/382 368/275/354
f 404/292/390 401/289/387 371/294/357
f 365/278/351 380/293/366 369/274/355
f 401/289/387 397/291/383 370/295/356
f 378/288/364 381/290/367 365/278/351
f 441/362/427 434/365/420 443/363/429
f 424/361/410 408/347/394 423/358/409
f 398/404/384 382/291/368 381/290/367
f 397/291/383 374/297/360 370/295/356
f 395/405/381 386/286/372 383/285/369
f 400/404/386 391/389/377 397/291/383
f 380/293/366 381/290/367 384/289/370
f 401/289/387 370/295/356 371/294/357
f 440/386/426 423/358/409 445/401/431
f 441/362/427 425/386/411 414/368/400
f 426/362/412 424/361/410 440/386/426
f 413/366/399 434/365/420 441/362/427
f 424/361/410 427/363/413 439/388/425
f 428/354/414 444/403/430 416/355/402
f 438/402/424 429/387/415 446/354/432
f 425/386/411 447/401/433 433/367/419
f 396/390/382 380/293/366 402/292/388
f 372/300/358 403/287/389 390/298/376
f 410/351/396 429/387/415 438/402/424
f 429/387/415 422/357/408 442/403/428
f 367/280/353 386/286/372 395/405/381
f 386/286/372 379/284/365 385/287/371
f 25/88/25 31/90/31 192/101/192
f 16/26/16 14/20/14 31/90/31
f 32/89/32 16/26/16 31/90/31
f 32/89/32 170/94/170 34/96/34
f 33/93/33 35/91/35 21/78/21
f 208/393/208 192/101/192 39/100/39
f 32/89/32 34/96/34 15/12/15
f 184/99/184 22/81/22 40/97/40
f 450/406/436 474/407/460 451/408/437
f 453/409/439 472/410/458 456/411/442
f 466/412/452 457/413/443 500/414/486
f 456/411/442 448/415/434 485/416/471
f 461/417/447 473/418/459 460/419/446
f 466/412/452 460/419/446 469/420/455
f 471/421/457 465/422/451 466/412/452
f 458/423/444 457/413/443 466/412/452
f 465/422/451 484/424/470 458/423/444
f 499/425/485 457/413/443 458/423/444
f 466/412/452 500/414/486 460/419/446
f 460/419/446 501/426/487 461/417/447
f 501/426/487 460/419/446 500/414/486
f 488/427/474 489/428/475 486/429/472
f 455/430/441 461/417/447 503/431/489
f 491/432/477 486/429/472 489/428/475
f 468/433/454 473/418/459 487/434/473
f 502/435/488 470/436/456 450/406/436
f 470/436/456 474/407/460 450/406/436
f 468/433/454 487/434/473 490/437/476
f 502/435/488 472/410/458 470/436/456
f 472/410/458 502/435/488 456/411/442
f 467/438/453 453/409/439 454/439/440
f 467/438/453 472/410/458 453/409/439
f 452/440/438 467/438/453 454/439/440
f 474/407/460 472/410/458 467/438/453
f 471/421/457 466/412/452 469/420/455
f 463/441/449 465/422/451 471/421/457
f 471/421/457 468/433/454 463/441/449
f 464/442/450 463/441/449 468/433/454
f 462/443/448 464/442/450 468/433/454
f 473/418/459 471/421/457 469/420/455
f 468/433/454 490/437/476 462/443/448
f 473/418/459 469/420/455 460/419/446
f 468/433/454 471/421/457 473/418/459
f 474/407/460 467/438/453 488/427/474
f 470/436/456 472/410/458 474/407/460
f 502/435/488 448/415/434 456/411/442
f 484/424/470 465/422/451 476/444/462
f 483/445/469 476/444/462 478/446/464
f 465/422/451 458/423/444 466/412/452
f 476/444/462 465/422/451 496/447/482
f 464/442/450 496/447/482 463/441/449
f 477/448/463 464/442/450 479/449/465
f 496/447/482 464/442/450 477/448/463
f 459/450/445 484/424/470 449/451/435
f 498/452/484 485/416/471 484/424/470
f 479/449/465 462/443/448 452/440/438
f 454/439/440 479/449/465 452/440/438
f 482/453/468 498/452/484 483/445/469
f 464/442/450 462/443/448 479/449/465
f 480/454/466 477/448/463 479/449/465
f 478/446/464 477/448/463 480/454/466
f 481/455/467 478/446/464 480/454/466
f 482/453/468 478/446/464 481/455/467
f 453/409/439 497/456/483 454/439/440
f 454/439/440 480/454/466 479/449/465
f 481/455/467 475/457/461 482/453/468
f 497/456/483 453/409/439 456/411/442
f 475/457/461 480/454/466 497/456/483
f 491/432/477 489/428/475 494/458/480
f 475/457/461 498/452/484 482/453/468
f 480/454/466 475/457/461 481/455/467
f 476/444/462 477/448/463 478/446/464
f 482/453/468 483/445/469 478/446/464
f 484/424/470 476/444/462 498/452/484
f 485/416/471 475/457/461 456/411/442
f 485/416/471 449/451/435 484/424/470
f 459/450/445 458/423/444 484/424/470
f 449/451/435 485/416/471 448/415/434
f 503/431/489 461/417/447 501/426/487
f 455/430/441 503/431/489 491/432/477
f 461/417/447 487/434/473 473/418/459
f 461/417/447 493/459/479 487/434/473
f 451/408/437 488/427/474 486/429/472
f 451/408/437 474/407/460 488/427/474
f 489/428/475 488/427/474 495/460/481
f 488/427/474 467/438/453 495/460/481
f 493/459/479 490/437/476 487/434/473
f 492/461/478 462/443/448 490/437/476
f 462/443/448 491/432/477 494/458/480
f 462/443/448 492/461/478 491/432/477
f 492/461/478 490/437/476 493/459/479
f 455/430/441 491/432/477 492/461/478
f 455/430/441 493/459/479 461/417/447
f 492/461/478 493/459/479 455/430/441
f 495/460/481 494/458/480 489/428/475
f 452/440/438 462/443/448 494/458/480
f 452/440/438 495/460/481 467/438/453
f 452/440/438 494/458/480 495/460/481
f 458/423/444 459/450/445 449/451/435
f 499/425/485 458/423/444 449/451/435
f 476/444/462 496/447/482 477/448/463
f 496/447/482 465/422/451 463/441/449
f 480/454/466 454/439/440 497/456/483
f 475/457/461 497/456/483 456/411/442
f 475/457/461 485/416/471 498/452/484
f 498/452/484 476/444/462 483/445/469
f 504/462/490 505/463/491 509/464/495 508/465/494
f 505/463/491 506/466/492 510/467/496 509/464/495
f 506/466/492 507/468/493 511/469/497 510/467/496
f 507/468/493 504/462/490 508/465/494 511/469/497
f 508/465/494 509/464/495 512/470/498
f 509/464/495 510/467/496 512/470/498
f 510/467/496 511/469/497 512/470/498
f 511/469/497 508/465/494 512/470/498
f 508/465/494 512/470/498 513/471/499
f 509/464/495 512/470/498 514/472/500
f 509/464/495 514/472/500 515/473/501
f 510/467/496 515/473/501 514/472/500
f 510/467/496 514/472/500 511/469/497
f 511/469/497 514/472/500 513/471/499
f 513/471/499 514/472/500 515/473/501
f 520/465/506 521/464/507 517/463/503 516/462/502
f 521/464/507 522/467/508 518/466/504 517/463/503
f 522/467/508 523/469/509 519/468/505 518/466/504
f 523/469/509 520/465/506 516/462/502 519/468/505
f 524/470/510 521/464/507 520/465/506
f 524/470/510 522/467/508 521/464/507
f 524/470/510 523/469/509 522/467/508
f 524/470/510 520/465/506 523/469/509
f 525/471/511 524/470/510 520/465/506
f 526/472/512 524/470/510 521/464/507
f 527/473/513 526/472/512 521/464/507
f 526/472/512 527/473/513 522/467/508
f 523/469/509 526/472/512 522/467/508
f 525/471/511 526/472/512 523/469/509
f 527/473/513 526/472/512 525/471/511
