# Blender 5.1.1
# www.blender.org
mtllib npc_mbok_jum_walk4.mtl
o npc_mbok_jum_walk4
v 0.011507 -0.069568 0.843681
v 0.035465 -0.096982 0.545656
v 0.120538 -0.096259 0.548261
v 0.141028 0.006160 0.586744
v 0.156551 0.028800 0.720426
v 0.080059 0.092475 0.779265
v 0.073388 0.032717 0.567226
v 0.009385 0.015782 0.676033
v 0.018027 -0.000901 0.565120
v 0.151292 0.033463 0.887551
v 0.159501 0.133614 0.925515
v 0.000012 0.067510 0.841504
v 0.089134 -0.104499 0.864035
v 0.130577 0.093763 0.939966
v 0.097617 -0.117252 0.900066
v 0.154257 0.025923 0.913993
v 0.131025 0.093276 0.921434
v 0.134171 -0.003743 0.536314
v 0.141028 0.006160 0.586744
v 0.156551 0.028800 0.720426
v 0.009385 0.015782 0.676033
v 0.018027 -0.000901 0.565120
v 0.159501 0.133614 0.925515
v 0.000012 0.067510 0.841504
v 0.134171 -0.003743 0.536314
v 0.032962 0.092312 0.874834
v 0.041310 -0.102381 0.845926
v -0.033742 0.092495 0.873520
v -0.042171 -0.102422 0.845462
v 0.105944 -0.111391 0.989273
v -0.107867 -0.111659 0.989263
v -0.151141 -0.101056 1.009818
v 0.152671 0.032525 1.010209
v 0.125879 0.078391 1.013708
v -0.124327 0.078185 1.013698
v -0.073932 0.116095 1.009395
v 0.075554 0.116087 1.009394
v 0.000041 -0.094971 0.857299
v 0.047029 -0.116832 0.877693
v -0.048647 -0.116921 0.877705
v 0.000120 -0.124261 0.904488
v -0.061049 0.110187 0.940000
v 0.061803 0.110125 0.939994
v -0.001032 -0.118489 0.989268
v 0.000278 0.109217 1.056948
v 0.125879 0.078391 1.013708
v -0.124327 0.078185 1.013698
v 0.129304 -0.012081 0.498471
v 0.026270 -0.013273 0.498447
v 0.073541 0.009362 0.502330
v 0.036116 -0.106242 0.490005
v 0.024404 -0.108699 0.384254
v 0.044624 -0.159190 0.157039
v 0.117212 -0.106330 0.489911
v 0.128516 -0.109903 0.383465
v 0.102156 -0.161351 0.157042
v 0.074359 0.002980 0.482964
v 0.053974 -0.136068 0.382071
v 0.101638 -0.136299 0.382775
v 0.129304 -0.012081 0.498471
v 0.026270 -0.013273 0.498447
v 0.043850 -0.076691 0.156980
v 0.076629 -0.054412 0.156956
v 0.111586 -0.076773 0.156980
v 0.093948 -0.165830 0.105782
v 0.087265 -0.164236 0.078535
v 0.102362 -0.072837 0.138599
v 0.121536 -0.013884 0.106787
v 0.051402 -0.020706 0.078383
v 0.056082 -0.012938 0.112349
v 0.050839 -0.072528 0.138599
v 0.056886 -0.158463 0.078529
v 0.050095 -0.164282 0.105780
v 0.121705 -0.020621 0.078382
v 0.075735 -0.060209 0.141823
v 0.043850 -0.076691 0.156980
v 0.111586 -0.076773 0.156980
v 0.093948 -0.165830 0.105782
v 0.102362 -0.072837 0.138599
v 0.102362 -0.072837 0.138599
v 0.102362 -0.072837 0.138599
v 0.121536 -0.013884 0.106787
v 0.051402 -0.020706 0.078383
v 0.056082 -0.012938 0.112349
v 0.050839 -0.072528 0.138599
v 0.050839 -0.072528 0.138599
v 0.050839 -0.072528 0.138599
v 0.050095 -0.164282 0.105780
v 0.121705 -0.020621 0.078382
v 0.075735 -0.060209 0.141823
v 0.103700 0.050721 0.078307
v 0.103970 0.049944 0.097088
v 0.068668 0.056806 0.078300
v 0.069371 0.057443 0.098174
v 0.121334 -0.001358 0.104220
v 0.056786 -0.000341 0.107547
v -0.011454 -0.069515 0.843713
v -0.035331 -0.007724 0.517510
v -0.118247 -0.007901 0.520400
v -0.139293 0.082064 0.563410
v -0.156841 0.058488 0.711565
v -0.073863 0.115070 0.541511
v -0.019817 0.082329 0.539122
v -0.011019 0.060747 0.662213
v -0.082309 0.101863 0.776908
v -0.150452 -0.145841 0.887343
v -0.158686 -0.031596 0.925555
v -0.087959 -0.104582 0.863576
v -0.129833 0.093888 0.939981
v -0.097388 -0.117480 0.900050
v -0.154834 -0.143708 0.914080
v -0.128637 0.093945 0.921594
v -0.132985 0.088043 0.507352
v -0.139293 0.082064 0.563410
v -0.156841 0.058488 0.711565
v -0.019817 0.082329 0.539122
v -0.011019 0.060747 0.662213
v -0.158686 -0.031596 0.925555
v -0.132985 0.088043 0.507352
v -0.128771 0.091339 0.465244
v -0.027452 0.092311 0.465215
v -0.073860 0.112715 0.469558
v -0.036871 0.001292 0.455934
v -0.025098 0.034740 0.338973
v -0.044036 0.059284 0.086911
v -0.116164 0.001233 0.455831
v -0.128364 0.033795 0.338110
v -0.101564 0.057116 0.086914
v -0.074697 0.112808 0.447949
v -0.054316 0.008067 0.336725
v -0.101724 0.007615 0.337426
v -0.128771 0.091339 0.465244
v -0.027452 0.092311 0.465215
v -0.043262 0.141830 0.086836
v -0.077302 0.164138 0.086804
v -0.110994 0.141750 0.086836
v -0.093546 0.070067 0.030170
v -0.087600 0.080850 -0.000057
v -0.055670 0.220638 0.037167
v -0.102001 0.151948 0.066489
v -0.121127 0.221568 0.031002
v -0.050990 0.224516 -0.000259
v -0.050488 0.152252 0.066488
v -0.055382 0.086573 -0.000065
v -0.049683 0.071560 0.030168
v -0.121647 0.224561 -0.000259
v -0.076470 0.162331 0.070061
v -0.043262 0.141830 0.086836
v -0.110994 0.141750 0.086836
v -0.093546 0.070067 0.030170
v -0.055670 0.220638 0.037167
v -0.102001 0.151948 0.066489
v -0.102001 0.151948 0.066489
v -0.102001 0.151948 0.066489
v -0.121127 0.221568 0.031002
v -0.050990 0.224516 -0.000259
v -0.050488 0.152252 0.066488
v -0.050488 0.152252 0.066488
v -0.050488 0.152252 0.066488
v -0.049683 0.071560 0.030168
v -0.121647 0.224561 -0.000259
v -0.076470 0.162331 0.070061
v -0.103298 0.295803 -0.000359
v -0.103568 0.288736 0.020237
v -0.068255 0.301854 -0.000367
v -0.068959 0.295822 0.021439
v -0.121282 0.234994 0.028154
v -0.056047 0.234865 0.031842
v -0.093469 -0.081625 1.051526
v -0.134923 -0.012873 1.054783
v 0.092732 0.084963 1.056940
v 0.094276 -0.081490 1.051532
v 0.137500 -0.012748 1.054791
v -0.092176 0.085151 1.056956
v -0.125273 0.005107 1.154898
v 0.126029 0.005983 1.154315
v 0.087546 -0.066090 1.158529
v 0.083693 -0.058023 1.087220
v -0.086463 -0.066491 1.158871
v -0.084660 -0.057495 1.087496
v 0.117695 -0.008575 1.085043
v -0.118950 -0.008075 1.085202
v 0.089464 0.087624 1.149579
v -0.089082 0.087462 1.149579
v 0.000191 0.107901 1.147216
v 0.000542 -0.074774 1.158700
v -0.000483 -0.066243 1.087358
v 0.000403 -0.090041 1.051529
v 0.092732 0.084963 1.056940
v -0.092176 0.085151 1.056956
v -0.125273 0.005107 1.154898
v 0.126029 0.005983 1.154315
v 0.117695 -0.008575 1.085043
v -0.118950 -0.008075 1.085202
v -0.132473 -0.008452 1.285426
v 0.130444 -0.008247 1.285426
v -0.085735 0.097432 1.216573
v 0.086162 0.097611 1.216573
v 0.000213 0.107663 1.220546
v -0.082732 0.118968 1.262021
v 0.083112 0.119138 1.262021
v 0.088724 0.117647 1.302102
v -0.087485 0.117563 1.302102
v 0.130220 0.063194 1.293764
v -0.130593 0.063049 1.293764
v 0.000620 0.108006 1.299415
v 0.000190 0.109971 1.264687
v -0.132473 -0.008452 1.285426
v 0.130444 -0.008247 1.285426
v -0.111114 -0.084211 1.332381
v 0.112533 -0.084005 1.332380
v 0.000432 -0.098752 1.339836
v -0.110773 -0.058762 1.432022
v 0.110818 -0.058760 1.431888
v 0.102857 0.000546 1.429598
v -0.133113 0.030439 1.374637
v 0.032035 0.009297 1.433031
v -0.102896 0.000540 1.429622
v 0.131673 0.031267 1.374767
v -0.030313 0.009185 1.433053
v -0.125576 -0.076840 1.375397
v 0.126279 -0.076622 1.375481
v -0.146022 -0.025426 1.353525
v 0.145512 -0.025296 1.353496
v -0.110773 -0.058762 1.432022
v 0.110818 -0.058760 1.431888
v 0.102857 0.000546 1.429598
v -0.133113 0.030439 1.374637
v -0.133113 0.030439 1.374637
v -0.102896 0.000540 1.429622
v 0.131673 0.031267 1.374767
v 0.131673 0.031267 1.374767
v -0.125576 -0.076840 1.375397
v -0.125576 -0.076840 1.375397
v 0.126279 -0.076622 1.375481
v 0.126279 -0.076622 1.375481
v -0.146022 -0.025426 1.353525
v -0.146022 -0.025426 1.353525
v 0.145512 -0.025296 1.353496
v 0.145512 -0.025296 1.353496
v 0.001424 -0.067333 1.479318
v -0.042488 -0.055015 1.471596
v 0.044526 -0.055275 1.471489
v -0.035425 0.014594 1.562382
v -0.025448 -0.033011 1.579038
v 0.028293 -0.033408 1.578739
v 0.037924 0.014662 1.562382
v 0.000497 0.006313 1.583927
v 0.001249 0.034998 1.551367
v -0.042488 -0.055015 1.471596
v 0.044526 -0.055275 1.471489
v -0.025448 -0.033011 1.579038
v 0.028293 -0.033408 1.578739
v 0.000497 0.006313 1.583927
v 0.105514 -0.030919 1.439122
v 0.105514 -0.030919 1.439122
v 0.105514 -0.030919 1.439122
v -0.105538 -0.031013 1.439141
v -0.105538 -0.031013 1.439141
v -0.105538 -0.031013 1.439141
v -0.122958 -0.065565 1.356259
v -0.163527 -0.076959 1.345235
v -0.208599 -0.059188 1.348991
v -0.202002 0.008844 1.350612
v -0.125779 0.016045 1.355046
v -0.155143 -0.098912 1.147550
v -0.203595 -0.101380 1.153329
v -0.178531 -0.021191 1.185451
v -0.157337 -0.043320 1.142336
v -0.210017 -0.043200 1.147024
v -0.197345 0.001579 1.397876
v -0.199499 -0.055103 1.399547
v -0.190852 -0.024422 1.425048
v -0.132011 0.026073 1.395115
v -0.125624 -0.072698 1.397708
v -0.116522 -0.020608 1.363453
v -0.139910 0.025365 1.351467
v -0.206859 -0.075631 1.277835
v -0.206421 -0.011272 1.276811
v -0.140087 -0.001287 1.271101
v -0.140081 -0.062426 1.272034
v -0.172899 -0.084590 1.274989
v -0.163756 0.002218 1.272856
v -0.216569 -0.078416 1.282000
v -0.212223 -0.002850 1.280461
v -0.157172 0.012230 1.275394
v -0.133472 -0.070489 1.274838
v -0.172340 -0.094055 1.278354
v -0.132462 0.001156 1.273655
v -0.163527 -0.076959 1.345235
v -0.203595 -0.101380 1.153329
v -0.178531 -0.021191 1.185451
v -0.210017 -0.043200 1.147024
v -0.132011 0.026073 1.395115
v -0.125624 -0.072698 1.397708
v -0.139910 0.025365 1.351467
v -0.206859 -0.075631 1.277835
v -0.206421 -0.011272 1.276811
v -0.140087 -0.001287 1.271101
v -0.140081 -0.062426 1.272034
v -0.172899 -0.084590 1.274989
v -0.172899 -0.084590 1.274989
v -0.172899 -0.084590 1.274989
v -0.163756 0.002218 1.272856
v -0.163756 0.002218 1.272856
v -0.163756 0.002218 1.272856
v -0.216569 -0.078416 1.282000
v -0.212223 -0.002850 1.280461
v -0.157172 0.012230 1.275394
v -0.157172 0.012230 1.275394
v -0.157172 0.012230 1.275394
v -0.133472 -0.070489 1.274838
v -0.172340 -0.094055 1.278354
v -0.172340 -0.094055 1.278354
v -0.172340 -0.094055 1.278354
v -0.132462 0.001156 1.273655
v 0.122887 -0.065590 1.356273
v 0.163463 -0.069458 1.345250
v 0.208530 -0.053078 1.349000
v 0.201918 0.014350 1.350604
v 0.125693 0.016023 1.355034
v 0.155453 -0.015401 1.147483
v 0.203905 -0.020022 1.153262
v 0.178453 0.046232 1.185452
v 0.157810 0.042128 1.142257
v 0.210497 0.040502 1.146952
v 0.197258 0.001560 1.397868
v 0.199431 -0.055123 1.399556
v 0.190775 -0.024422 1.425050
v 0.131912 0.025994 1.395105
v 0.125558 -0.072787 1.397715
v 0.116444 -0.020620 1.363453
v 0.139819 0.025343 1.351454
v 0.206983 -0.041830 1.277852
v 0.206646 0.022918 1.276743
v 0.140307 -0.000306 1.271044
v 0.140203 -0.061437 1.272057
v 0.173023 -0.049750 1.275019
v 0.163678 0.036890 1.272758
v 0.216592 -0.046633 1.282038
v 0.212303 0.029520 1.280393
v 0.157077 0.045909 1.275298
v 0.172363 -0.060931 1.278415
v 0.133491 -0.069966 1.274889
v 0.132537 0.001675 1.273607
v 0.163463 -0.069458 1.345250
v 0.203905 -0.020022 1.153262
v 0.178453 0.046232 1.185452
v 0.210497 0.040502 1.146952
v 0.131912 0.025994 1.395105
v 0.125558 -0.072787 1.397715
v 0.139819 0.025343 1.351454
v 0.206983 -0.041830 1.277852
v 0.206646 0.022918 1.276743
v 0.140307 -0.000306 1.271044
v 0.140203 -0.061437 1.272057
v 0.173023 -0.049750 1.275019
v 0.173023 -0.049750 1.275019
v 0.173023 -0.049750 1.275019
v 0.163678 0.036890 1.272758
v 0.163678 0.036890 1.272758
v 0.163678 0.036890 1.272758
v 0.216592 -0.046633 1.282038
v 0.212303 0.029520 1.280393
v 0.157077 0.045909 1.275298
v 0.157077 0.045909 1.275298
v 0.157077 0.045909 1.275298
v 0.172363 -0.060931 1.278415
v 0.172363 -0.060931 1.278415
v 0.172363 -0.060931 1.278415
v 0.133491 -0.069966 1.274889
v 0.132537 0.001675 1.273607
v 0.159622 -0.009615 1.123063
v 0.205965 -0.013806 1.126425
v 0.212262 0.045386 1.133206
v 0.159178 0.045570 1.128141
v 0.155853 0.017756 1.044875
v 0.206772 0.000131 1.070526
v 0.210838 0.079891 1.059542
v 0.160624 0.077757 1.042282
v 0.191015 0.064895 0.879156
v 0.191452 0.101457 0.883863
v 0.221360 0.098825 0.887947
v 0.221269 0.064937 0.883268
v 0.229159 0.033170 1.074532
v 0.206990 0.084480 0.875546
v 0.180811 -0.016015 1.131842
v 0.205965 -0.013806 1.126425
v 0.212262 0.045386 1.133206
v 0.206772 0.000131 1.070526
v 0.210838 0.079891 1.059542
v 0.221360 0.098825 0.887947
v 0.221269 0.064937 0.883268
v 0.206990 0.084480 0.875546
v -0.159422 -0.100404 1.122942
v -0.205766 -0.103349 1.126304
v -0.211997 -0.043585 1.133112
v -0.158914 -0.045285 1.128048
v -0.155651 -0.102377 1.044876
v -0.206569 -0.110393 1.070526
v -0.210635 -0.034752 1.059542
v -0.160421 -0.043349 1.042283
v -0.191383 -0.117382 0.879151
v -0.191829 -0.079052 0.883869
v -0.221745 -0.080165 0.887952
v -0.221646 -0.115809 0.883264
v -0.228956 -0.075852 1.074532
v -0.207540 -0.098651 0.875560
v -0.180554 -0.104449 1.131804
v -0.205766 -0.103349 1.126304
v -0.211997 -0.043585 1.133112
v -0.206569 -0.110393 1.070526
v -0.210635 -0.034752 1.059542
v -0.221745 -0.080165 0.887952
v -0.221646 -0.115809 0.883264
v -0.207540 -0.098651 0.875560
v -0.052234 0.009215 1.540191
v -0.032971 -0.074499 1.565382
v -0.035783 -0.073012 1.720271
v -0.033873 0.093525 1.682122
v -0.030531 0.065198 1.750455
v -0.060820 0.003018 1.567162
v 0.053624 0.009265 1.540188
v 0.035845 -0.073892 1.719772
v 0.062037 0.003147 1.567158
v -0.045110 0.091749 1.713835
v 0.046937 0.092731 1.712955
v 0.074019 -0.024839 1.609447
v -0.072668 -0.024942 1.609452
v -0.082528 -0.043695 1.687627
v 0.065069 0.006212 1.626329
v -0.063750 0.006109 1.626333
v 0.084124 -0.043829 1.685464
v 0.036789 0.092975 1.681351
v -0.016152 0.097780 1.570487
v -0.014973 0.093996 1.544054
v -0.055061 0.082272 1.587158
v 0.000464 0.097629 1.616953
v 0.017362 0.097809 1.570486
v 0.000612 0.118148 1.568605
v 0.016258 0.094068 1.544052
v 0.056248 0.082389 1.587153
v 0.058179 0.067118 1.611918
v 0.051661 0.082546 1.641084
v 0.000600 0.098563 1.639571
v -0.050519 0.082454 1.641088
v -0.056961 0.067003 1.611923
v 0.032283 0.065321 1.750233
v -0.057908 -0.084260 1.676258
v 0.063752 -0.083142 1.675966
v -0.068889 -0.003900 1.725319
v 0.071926 -0.004394 1.724588
v -0.068304 0.049326 1.698196
v 0.071741 0.051051 1.695116
v -0.018356 -0.099699 1.602839
v 0.019860 -0.099590 1.603231
v 0.034513 -0.074499 1.565381
v -0.050776 -0.080992 1.603917
v 0.052506 -0.080923 1.603912
v -0.016568 0.087994 1.500221
v 0.017898 0.088056 1.500219
v -0.006632 0.122189 1.575280
v 0.007663 0.122189 1.575280
v -0.057090 0.058667 1.667194
v 0.059207 0.058444 1.666805
v 0.000605 0.102766 1.564117
v -0.031328 -0.037948 1.744892
v 0.033310 -0.038333 1.744874
v -0.000143 -0.101092 1.666965
v 0.000914 0.100743 1.717363
v -0.014563 0.090266 1.613058
v 0.015620 0.090324 1.613056
v 0.004714 0.108912 1.593174
v -0.003723 0.108912 1.593174
v 0.035131 -0.149317 1.636453
v 0.001541 -0.143131 1.673456
v -0.030062 -0.149424 1.636018
v -0.014726 -0.139430 1.592778
v 0.017870 -0.139322 1.593212
v 0.002535 -0.172269 1.629114
v -0.029267 -0.101966 1.634872
v 0.029877 -0.101912 1.635067
v -0.033201 0.077256 1.543168
v 0.034435 0.077351 1.543164
v 0.000695 0.016708 1.516722
v -0.052234 0.009215 1.540191
v -0.032971 -0.074499 1.565382
v -0.035783 -0.073012 1.720271
v -0.060820 0.003018 1.567162
v -0.057908 -0.084260 1.676258
v -0.018356 -0.099699 1.602839
v -0.018356 -0.099699 1.602839
v -0.018356 -0.099699 1.602839
v 0.019860 -0.099590 1.603231
v -0.031328 -0.037948 1.744892
v -0.000143 -0.101092 1.666965
v -0.030062 -0.149424 1.636018
v -0.014726 -0.139430 1.592778
v -0.029267 -0.101966 1.634872
v -0.029267 -0.101966 1.634872
v -0.029267 -0.101966 1.634872
v 0.029877 -0.101912 1.635067
v 0.009543 0.105164 1.609124
v 0.046924 0.096771 1.612482
v 0.046924 0.095356 1.591593
v 0.011096 0.103932 1.590956
v -0.046922 0.096772 1.612483
v -0.009541 0.105163 1.609124
v -0.011094 0.103932 1.590956
v -0.046922 0.095356 1.591594
v 0.030919 0.098972 1.583453
v -0.030918 0.098972 1.583453
v -0.028053 0.101262 1.617228
v 0.028055 0.101261 1.617227
v -0.209250 -0.088390 0.877300
v -0.199950 -0.089940 0.877300
v -0.199950 -0.111640 0.877300
v -0.209250 -0.111640 0.877300
v -0.220100 -0.092846 0.837000
v -0.201500 -0.096527 0.833900
v -0.201500 -0.116677 0.833900
v -0.217000 -0.116096 0.837000
v -0.229400 -0.090134 0.818400
v -0.223200 0.000041 0.784300
v -0.213900 -0.002587 0.781200
v -0.204600 -0.003530 0.787400
v 0.209250 0.094590 0.877300
v 0.199950 0.093040 0.877300
v 0.199950 0.071340 0.877300
v 0.209250 0.071340 0.877300
v 0.220100 0.105246 0.837000
v 0.201500 0.102727 0.833900
v 0.201500 0.082577 0.833900
v 0.217000 0.081996 0.837000
v 0.229400 0.114934 0.818400
v 0.223200 -0.006241 0.786319
v 0.213900 -0.009813 0.783523
v 0.204600 -0.008870 0.789116
vn 0.8193 0.2978 0.4899
vn 0.6677 0.7441 -0.0216
vn -0.6740 0.7385 -0.0181
vn -0.9825 0.1622 0.0915
vn -0.9612 0.2750 -0.0215
vn -0.0107 -0.9733 0.2291
vn 0.0550 -0.9644 0.2587
vn 0.5364 -0.8166 0.2130
vn 0.5040 -0.8420 0.1926
vn -0.9759 0.2110 0.0565
vn -0.9941 -0.0191 -0.1069
vn -0.0711 -0.9459 0.3165
vn -0.5637 0.7951 0.2235
vn 0.3566 -0.9341 0.0179
vn -0.5765 0.7982 0.1745
vn -0.9751 0.2076 0.0779
vn 0.4089 -0.9035 0.1284
vn -0.9827 0.1574 0.0975
vn -0.4093 -0.8877 0.2108
vn -0.4327 -0.8675 0.2452
vn 0.9888 0.1392 0.0546
vn 0.9840 0.1651 0.0667
vn 0.7960 -0.5910 0.1305
vn -0.5567 0.5420 0.6295
vn -0.4068 -0.8815 0.2397
vn 0.0699 -0.9625 0.2620
vn 0.2741 0.9190 0.2835
vn -0.1003 -0.9748 0.1993
vn -0.2208 0.8907 0.3974
vn -0.5902 0.7785 -0.2137
vn -0.0113 0.9480 -0.3179
vn 0.7013 0.5304 -0.4764
vn -0.9406 -0.0433 -0.3368
vn -0.7496 -0.3709 -0.5481
vn 0.8915 -0.2556 -0.3739
vn 0.2732 -0.9471 -0.1685
vn -0.2748 -0.9463 -0.1705
vn 0.0009 0.6489 0.7608
vn -0.0025 0.9405 0.3399
vn 0.0063 0.9416 0.3367
vn -0.0009 0.9844 0.1758
vn 0.1179 -0.9717 0.2047
vn -0.1195 -0.9702 0.2106
vn -0.0003 0.9683 -0.2500
vn -0.0005 -0.9882 -0.1530
vn -0.4210 -0.8708 -0.2539
vn 0.7331 -0.6442 -0.2179
vn -0.3447 -0.9088 0.2352
vn 0.4133 -0.8808 0.2311
vn 0.0401 -0.9439 0.3279
vn 0.6624 0.7276 -0.1786
vn 0.9369 0.3483 -0.0288
vn 0.7184 0.6956 -0.0050
vn -0.6512 0.7398 -0.1691
vn -0.9348 0.3542 -0.0264
vn -0.6577 0.7532 0.0129
vn 0.0295 -0.9715 0.2351
vn 0.3384 0.9275 -0.1589
vn -0.3515 0.9231 -0.1563
vn -0.9936 0.1095 0.0273
vn 0.9952 0.0961 0.0189
vn 0.9833 -0.0491 0.1752
vn 0.0073 -0.9723 0.2336
vn -0.9750 0.0305 0.2201
vn -0.5024 0.8641 0.0322
vn -0.3921 0.6408 0.6600
vn -0.9523 0.1746 -0.2505
vn -0.9785 0.1783 -0.1036
vn 0.8109 0.0329 0.5842
vn 0.3778 -0.4176 -0.8264
vn 0.9365 -0.1248 0.3278
vn 0.5615 0.4415 0.6998
vn 0.5808 0.8141 0.0030
vn -0.7955 0.1500 0.5871
vn 0.0162 -0.4533 -0.8912
vn 0.5585 -0.8217 0.1136
vn -0.5332 -0.8334 0.1451
vn -0.7089 0.6943 0.1238
vn -0.5024 -0.8515 0.1503
vn -0.8976 -0.0723 0.4349
vn -0.2871 -0.3809 -0.8789
vn -0.5684 -0.2882 -0.7706
vn 0.7065 -0.1313 0.6954
vn 0.9991 0.0084 -0.0418
vn 0.3121 -0.4059 -0.8590
vn 0.5274 -0.8445 0.0924
vn 0.9941 -0.0436 0.0995
vn 0.8002 0.5455 0.2492
vn -0.6598 -0.1359 0.7390
vn 0.0252 -0.9340 0.3563
vn -0.5453 -0.5861 0.5993
vn -0.5711 -0.6137 -0.5453
vn 0.4662 -0.6659 0.5824
vn 0.4282 -0.7268 -0.5371
vn -0.7775 -0.2765 -0.5648
vn 0.6814 -0.2949 -0.6698
vn -0.7798 0.3111 0.5433
vn -0.6612 0.7246 0.1943
vn 0.6491 0.7302 0.2132
vn 0.9771 0.1636 0.1360
vn 0.9820 0.1406 0.1260
vn -0.0494 -0.9972 -0.0559
vn -0.5190 -0.8502 -0.0884
vn -0.9873 0.1308 0.0903
vn 0.0327 -0.9985 0.0443
vn 0.4243 0.8934 0.1476
vn 0.9978 -0.0177 -0.0643
vn -0.1541 0.9369 0.3138
vn 0.7132 -0.7008 0.0154
vn -0.2143 0.9743 0.0687
vn 0.5497 0.8308 -0.0877
vn 0.5959 -0.8030 -0.0105
vn 0.9789 0.1665 0.1183
vn 0.4285 -0.9003 -0.0766
vn 0.6008 -0.7991 -0.0213
vn -0.9838 0.1437 0.1075
vn -0.5386 -0.8416 -0.0394
vn 0.9700 -0.2271 -0.0866
vn 0.4322 -0.9011 -0.0351
vn 0.9933 0.1116 0.0305
vn -0.4198 -0.9062 -0.0501
vn -0.0257 -0.9995 0.0157
vn -0.6674 0.7416 0.0675
vn -0.9350 0.3469 0.0741
vn -0.7094 0.6763 0.1986
vn 0.6526 0.7545 0.0695
vn 0.9333 0.3500 0.0804
vn 0.6431 0.7308 0.2289
vn -0.0128 -0.9961 -0.0873
vn -0.3416 0.9300 0.1356
vn 0.3542 0.9253 0.1357
vn 0.3743 -0.9259 -0.0503
vn -0.9964 0.0799 0.0267
vn -0.9865 -0.0546 0.1542
vn 0.0106 -0.9979 -0.0643
vn 0.9751 0.0265 0.2203
vn 0.6626 0.6940 0.2816
vn 0.4129 0.5407 0.7329
vn -0.2930 -0.4025 -0.8673
vn 0.9249 -0.0702 0.3736
vn 0.4817 -0.2854 -0.8286
vn -0.7288 0.0242 0.6843
vn -0.9963 -0.0435 0.0746
vn -0.5873 0.3570 0.7263
vn -0.7503 0.5570 0.3560
vn 0.7143 0.1360 0.6865
vn -0.0009 -0.4292 -0.9032
vn -0.5425 -0.8281 -0.1413
vn 0.5496 -0.8272 -0.1168
vn 0.5597 0.7776 0.2867
vn -0.9988 0.0066 -0.0479
vn 0.2764 -0.3751 -0.8848
vn 0.5041 -0.8580 -0.0980
vn 0.9686 0.1773 -0.1742
vn 0.9831 0.1792 -0.0379
vn -0.7948 -0.1484 0.5884
vn -0.4949 -0.8554 -0.1528
vn -0.9535 -0.1316 0.2712
vn -0.2743 -0.3964 -0.8761
vn -0.6414 0.7263 0.2473
vn 0.7515 -0.1610 0.6398
vn -0.0047 -0.9942 0.1071
vn 0.5449 -0.6642 0.5117
vn 0.5687 -0.5409 -0.6197
vn -0.4515 -0.7471 0.4878
vn -0.4448 -0.6361 -0.6305
vn 0.7620 -0.2476 -0.5984
vn -0.6708 -0.2762 -0.6883
vn 0.2994 0.7369 -0.6061
vn 0.9146 0.0058 -0.4042
vn -0.7781 -0.3450 -0.5250
vn -0.5091 0.7217 -0.4690
vn -0.9382 0.2107 -0.2744
vn 0.7983 -0.3371 -0.4991
vn 0.8639 0.4994 0.0650
vn -0.8669 0.4943 0.0646
vn -0.5532 0.8229 0.1296
vn -0.5151 0.8078 -0.2865
vn 0.5433 0.8293 0.1307
vn 0.5296 0.8015 -0.2778
vn -0.8801 0.2808 -0.3830
vn 0.9005 0.2838 -0.3294
vn -0.6471 -0.7616 0.0350
vn 0.6485 -0.7603 0.0375
vn 0.0005 -0.9996 0.0284
vn -0.0010 0.9920 0.1259
vn 0.0028 0.9709 -0.2393
vn -0.0017 0.8750 -0.4840
vn -0.5439 -0.8202 -0.1775
vn 0.5430 -0.8213 -0.1748
vn 0.9318 -0.3614 0.0338
vn -0.9324 -0.3603 0.0299
vn -0.9647 -0.2094 0.1601
vn 0.9626 -0.2365 0.1320
vn 0.9706 -0.1936 0.1431
vn -0.9723 -0.1853 0.1424
vn 0.6144 -0.7592 0.2148
vn -0.6206 -0.7542 0.2148
vn 0.0010 -0.9957 0.0925
vn 0.3784 -0.9111 0.1632
vn -0.3786 -0.9109 0.1641
vn -0.3656 -0.8891 -0.2755
vn 0.3549 -0.8920 -0.2801
vn -0.9398 -0.3181 0.1245
vn 0.9335 -0.3367 0.1237
vn 0.0011 -0.9373 -0.3486
vn 0.0006 -1.0000 -0.0033
vn 0.8966 0.4043 0.1807
vn -0.9088 0.3766 0.1795
vn 0.5588 0.8230 0.1020
vn -0.5764 0.8107 0.1027
vn -0.0007 0.9990 -0.0453
vn 0.3564 0.7110 -0.6062
vn -0.3644 0.7107 -0.6018
vn -0.1141 -0.6181 -0.7778
vn 0.6873 -0.6098 -0.3947
vn -0.2857 -0.8362 -0.4682
vn 0.1109 -0.6247 -0.7730
vn -0.6862 -0.6089 -0.3979
vn 0.2859 -0.8355 -0.4693
vn 0.4704 0.8807 -0.0545
vn -0.4774 0.8770 -0.0534
vn 0.8445 0.4556 0.2816
vn -0.9486 -0.2843 0.1388
vn 0.1869 0.5621 -0.8057
vn -0.1855 0.5610 -0.8068
vn -0.1351 -0.5401 -0.8307
vn 0.9772 -0.1906 -0.0932
vn -0.5488 -0.8231 -0.1460
vn 0.1324 -0.5388 -0.8320
vn 0.4762 -0.8498 -0.2259
vn -0.9742 -0.2211 -0.0459
vn -0.4460 0.8798 -0.1643
vn 0.9362 0.3458 -0.0622
vn -0.9445 0.3173 -0.0854
vn 0.5080 0.8514 -0.1304
vn 0.9556 -0.2675 0.1234
vn 0.0760 0.0058 -0.9971
vn -0.8448 0.4443 0.2983
vn -0.0810 -0.0023 -0.9967
vn -0.0009 0.9556 -0.2945
vn 0.8563 -0.3241 -0.4021
vn -0.8602 -0.3223 -0.3952
vn 0.7711 -0.4879 -0.4091
vn 0.8680 0.0082 -0.4964
vn -0.0535 0.7655 -0.6412
vn -0.7691 -0.4889 -0.4118
vn 0.0108 -0.5093 -0.8605
vn -0.0006 -0.9742 -0.2256
vn 0.3386 0.7699 -0.5409
vn -0.3423 0.7752 -0.5309
vn 0.0557 0.7563 -0.6519
vn -0.8666 0.0038 -0.4990
vn -0.0046 0.1264 -0.9920
vn -0.1548 -0.4183 -0.8950
vn -0.5038 0.1260 -0.8545
vn -0.1588 -0.0518 -0.9860
vn 0.1501 -0.4167 -0.8966
vn 0.4920 0.1281 -0.8611
vn 0.1588 -0.0522 -0.9859
vn -0.8681 0.4850 -0.1055
vn -0.3372 0.9414 -0.0096
vn 0.8455 0.4904 -0.2115
vn 0.7394 -0.6701 -0.0649
vn -0.9071 -0.4100 -0.0959
vn -0.7469 0.6648 0.0155
vn -0.0297 0.9911 -0.1295
vn -0.1719 -0.9120 0.3725
vn -0.7117 -0.6422 0.2845
vn 0.9961 -0.0827 -0.0305
vn 0.7139 -0.5754 -0.3990
vn 0.7153 0.5577 -0.4212
vn 0.5873 -0.0794 -0.8055
vn -0.0994 -0.9281 -0.3587
vn 0.1686 0.9811 -0.0946
vn -0.6453 -0.0590 -0.7617
vn -0.5521 -0.8167 0.1681
vn 0.3049 0.2739 0.9122
vn 0.7786 -0.6163 0.1177
vn -0.6822 -0.6767 0.2771
vn -0.9177 0.3972 -0.0054
vn -0.4689 0.8681 -0.1629
vn -0.1208 -0.9536 0.2758
vn 0.3532 0.1733 0.9193
vn 0.3146 -0.1932 0.9294
vn 0.0036 -0.2986 0.9544
vn -0.8235 0.5668 0.0266
vn 0.1769 0.3572 0.9171
vn -0.2639 -0.1768 0.9482
vn 0.2949 0.9257 -0.2370
vn 0.9794 0.1920 -0.0628
vn 0.3619 -0.9085 0.2091
vn 0.0018 -0.9759 0.2183
vn 0.5487 -0.5679 -0.6136
vn -0.1202 0.9505 -0.2867
vn 0.2567 -0.9661 0.0283
vn 0.8272 0.5491 -0.1197
vn 0.3755 -0.1336 0.9171
vn -0.2048 -0.2470 0.9471
vn -0.2571 0.1262 0.9581
vn -0.1351 0.3248 0.9361
vn 0.2354 0.9530 -0.1909
vn 0.1670 0.3390 0.9258
vn 0.3121 -0.9296 0.1962
vn 0.1806 -0.3460 0.9207
vn 0.0322 -0.2654 0.9636
vn 0.7648 0.5934 -0.2508
vn 0.8073 -0.5901 -0.0081
vn 0.1809 -0.3517 0.9184
vn -0.3828 -0.8919 0.2409
vn 0.2643 -0.9576 0.1144
vn -0.1781 0.1898 0.9655
vn 0.3006 0.9138 -0.2732
vn -0.1225 0.3131 0.9418
vn -0.5225 0.8400 -0.1459
vn -0.8346 -0.5008 0.2295
vn 0.8221 0.5591 -0.1076
vn -0.2998 0.9539 -0.0164
vn -0.8325 0.5476 -0.0840
vn -0.7343 -0.6384 -0.2308
vn 0.9069 -0.4104 -0.0950
vn 0.7378 0.6297 0.2433
vn -0.9816 0.1902 0.0185
vn 0.4390 -0.8958 -0.0702
vn 0.7283 -0.6849 -0.0207
vn -0.9924 -0.1008 -0.0713
vn -0.7154 -0.5525 -0.4279
vn -0.7116 0.5886 -0.3837
vn -0.5871 -0.0795 -0.8056
vn 0.0731 -0.9152 -0.3964
vn -0.3319 0.9364 -0.1143
vn 0.6439 -0.0586 -0.7628
vn 0.6371 -0.7577 0.1415
vn -0.7572 0.6442 0.1081
vn -0.8362 -0.5385 -0.1039
vn 0.9613 -0.2615 0.0867
vn 0.0929 0.2347 0.9676
vn -0.2646 0.9214 0.2846
vn 0.8419 -0.5329 0.0854
vn -0.8516 0.5225 -0.0430
vn -0.7178 -0.6543 -0.2379
vn -0.2177 -0.9396 -0.2641
vn -0.1889 0.3141 0.9304
vn 0.0901 0.2493 0.9642
vn 0.9520 -0.2751 0.1343
vn 0.0326 0.9987 0.0383
vn 0.0369 0.9768 0.2110
vn -0.3238 -0.9359 -0.1390
vn -0.0153 -0.9854 -0.1698
vn -0.6239 -0.6451 -0.4412
vn 0.1576 0.9555 -0.2493
vn -0.1745 -0.9747 -0.1399
vn -0.2904 0.2159 0.9322
vn -0.3847 -0.1659 0.9080
vn 0.2865 -0.0841 0.9544
vn 0.4505 0.8181 0.3575
vn -0.2374 0.9559 0.1732
vn -0.1476 0.2954 0.9439
vn -0.1897 0.2956 0.9363
vn -0.2006 -0.3949 0.8966
vn 0.1687 -0.1509 0.9741
vn -0.2930 -0.9442 -0.1506
vn -0.3254 0.1760 0.9291
vn -0.3499 -0.2109 0.9127
vn 0.1829 -0.1557 0.9707
vn -0.2010 -0.3990 0.8946
vn 0.8715 -0.4860 0.0662
vn -0.2334 0.9680 0.0924
vn -0.1565 0.3113 0.9373
vn -0.3125 0.9466 0.0791
vn 0.6100 0.7773 0.1539
vn 0.2947 -0.0847 0.9518
vn 0.7113 0.6559 0.2528
vn 0.0226 0.9636 0.2665
vn 0.0412 -0.9374 -0.3458
vn 0.7152 -0.6748 -0.1820
vn 0.7989 0.5537 0.2349
vn 0.1352 0.9450 0.2980
vn 0.1414 -0.9451 -0.2945
vn 0.7141 -0.6944 -0.0886
vn 0.5256 0.4826 0.7006
vn 0.5015 -0.7235 0.4745
vn -0.0948 -0.9694 0.2265
vn -0.0847 0.7837 0.6154
vn -0.9946 0.0854 -0.0596
vn 0.0543 -0.1500 0.9872
vn 0.0632 0.9467 0.3160
vn -0.9749 0.2010 -0.0956
vn -0.9816 0.0081 -0.1906
vn -0.8284 0.5462 0.1245
vn -0.9100 -0.3961 -0.1223
vn -0.9439 -0.0873 0.3184
vn -0.9524 0.0095 0.3047
vn -0.5845 -0.1094 0.8039
vn -0.7316 0.6814 0.0191
vn -0.0139 0.9981 -0.0592
vn -0.0613 -0.9981 -0.0114
vn -0.7144 -0.6965 0.0675
vn -0.8087 0.5865 0.0437
vn -0.1416 0.9882 -0.0590
vn -0.1576 -0.9869 0.0332
vn -0.7005 -0.6985 0.1467
vn -0.5080 0.6146 0.6035
vn -0.5095 -0.6076 0.6092
vn 0.0815 -0.8618 0.5007
vn 0.1009 0.9140 0.3929
vn 0.9934 0.0675 -0.0923
vn 0.5723 -0.1054 0.8132
vn -0.0584 0.9964 0.0610
vn 0.9581 0.2198 -0.1835
vn 0.9838 0.0074 -0.1793
vn 0.8320 0.5487 -0.0821
vn 0.9150 -0.4032 0.0127
vn 0.9609 -0.0730 0.2670
vn 0.9371 0.0134 0.3488
vn -0.0565 -0.0930 0.9941
vn 0.8432 -0.0667 0.5335
vn -0.0016 0.3577 0.9338
vn 0.6808 0.4354 -0.5890
vn 0.4479 -0.8917 0.0658
vn 0.3683 -0.3469 -0.8626
vn 0.9724 -0.0446 0.2289
vn -0.6447 0.5329 0.5481
vn -0.3295 0.7001 -0.6334
vn -0.8482 0.1957 0.4922
vn 0.6227 -0.7399 -0.2544
vn -0.6025 -0.7560 -0.2557
vn -0.9754 0.0407 0.2167
vn 0.9765 0.0523 0.2092
vn 0.9487 0.2561 -0.1854
vn -0.9731 -0.2122 0.0894
vn 0.9740 -0.2135 0.0765
vn -0.9536 0.2421 -0.1791
vn -0.4489 -0.8897 0.0831
vn 0.5587 -0.8204 0.1221
vn 0.3471 -0.9134 0.2128
vn 0.7802 -0.6254 0.0108
vn 0.0047 -0.9767 -0.2148
vn -0.5558 -0.8228 0.1188
vn -0.0025 -0.5283 0.8490
vn -0.3452 -0.9142 0.2122
vn -0.7793 -0.6266 0.0101
vn -0.9055 -0.4200 -0.0612
vn -0.7302 -0.6785 0.0802
vn -0.0000 -0.9983 0.0589
vn 0.7351 -0.6744 0.0698
vn 0.9062 -0.4185 -0.0610
vn -0.3682 -0.3480 -0.8621
vn 0.8235 0.5612 -0.0828
vn -0.6704 0.7192 -0.1826
vn 0.8013 0.0294 -0.5975
vn -0.8084 0.0406 -0.5872
vn 0.9347 -0.3374 -0.1117
vn -0.9331 -0.3507 -0.0801
vn -0.0081 0.8282 0.5604
vn -0.2799 0.8650 0.4165
vn -0.3790 0.4736 0.7950
vn 0.7560 0.5909 0.2814
vn -0.7475 0.5954 0.2946
vn 0.4191 -0.5166 0.7467
vn -0.4184 -0.5177 0.7463
vn 0.5531 -0.8310 0.0595
vn -0.5508 -0.8327 0.0560
vn 0.9180 -0.3878 0.0827
vn -0.9055 -0.4013 0.1377
vn 0.0013 -0.7400 0.6727
vn 0.6227 0.2634 -0.7368
vn -0.3109 0.3276 -0.8922
vn 0.0043 0.9435 -0.3314
vn 0.0018 -0.9505 -0.3107
vn 0.4546 -0.8855 -0.0962
vn -0.4514 -0.8871 -0.0963
vn -0.4522 -0.7763 -0.4392
vn 0.4558 -0.7749 -0.4378
vn -0.9004 0.4039 -0.1616
vn 0.0081 0.3078 -0.9514
vn 0.9443 -0.0028 0.3290
vn 0.9424 0.0014 0.3345
vn -0.4888 0.2673 0.8305
vn -0.0072 0.9990 0.0433
vn 0.5758 0.8046 0.1451
vn -0.4497 0.8931 0.0127
vn 0.8058 -0.4911 0.3309
vn -0.8059 -0.4918 0.3297
vn -0.0003 0.6289 0.7775
vn -0.0009 0.9711 0.2385
vn 0.7521 0.4983 0.4314
vn 0.0665 0.7960 -0.6016
vn -0.0006 0.6250 0.7806
vn 0.2210 0.9265 -0.3044
vn 0.4862 0.8261 0.2848
vn 0.9446 -0.0034 0.3282
vn -0.0105 -0.2451 0.9694
vn -0.6207 -0.1842 0.7622
vn 0.0011 0.3357 -0.9420
vn 0.0416 -0.1345 -0.9900
vn 0.7489 0.5663 -0.3441
vn 0.1522 0.3684 0.9171
vn 0.2359 0.9418 -0.2397
vn 0.9467 -0.0081 0.3219
vn 0.7406 -0.0286 -0.6713
vn -0.9709 -0.1222 -0.2062
vn -0.7394 0.3701 0.5624
vn -0.7086 0.1181 -0.6957
vn -0.7742 0.2323 0.5887
vn -0.7265 0.1139 -0.6777
vn 0.7086 0.1181 -0.6957
vn 0.7402 0.3571 0.5698
vn 0.7272 0.1149 -0.6768
vn 0.7743 0.2323 0.5887
vn 0.4825 -0.0850 0.8717
vn -0.4831 -0.0851 0.8714
vn -0.6250 -0.1698 -0.7619
vn 0.6246 -0.1698 -0.7623
vn -0.5575 0.8296 0.0305
vn 0.7350 0.6661 -0.1269
vn 0.7377 -0.6733 0.0505
vn -0.6454 -0.7282 0.2307
vn -0.5192 0.8389 0.1633
vn 0.7311 0.3356 -0.5940
vn 0.8344 -0.5506 0.0250
vn -0.6533 -0.7146 0.2499
vn 0.5603 -0.2686 -0.7835
vn 0.4556 0.0451 0.8890
vn 0.1074 -0.6881 0.7176
vn -0.1865 -0.9736 0.1315
vn 0.6232 0.7108 0.3262
vn -0.8110 0.5764 0.1001
vn -0.6438 -0.7345 -0.2146
vn 0.5875 -0.8056 -0.0761
vn 0.7343 0.4640 0.4955
vn -0.7390 0.6698 0.0726
vn -0.4535 -0.2852 -0.8444
vn 0.6628 -0.4378 -0.6074
vn 0.8610 -0.1207 0.4941
vn 0.2524 0.3489 -0.9025
vn 0.4736 -0.8679 0.1499
vn 0.2889 -0.7416 0.6054
vt 0.667460 0.464696
vt 0.663466 0.374775
vt 0.635529 0.348953
vt 0.659305 0.340854
vt 0.583902 0.347201
vt 0.529831 0.545129
vt 0.547916 0.546528
vt 0.919121 0.504306
vt 0.857633 0.434914
vt 0.915072 0.361708
vt 0.965535 0.464768
vt 0.956116 0.374856
vt 0.915165 0.318080
vt 0.954428 0.315494
vt 0.867879 0.315478
vt 0.862877 0.360314
vt 0.528543 0.434839
vt 0.533787 0.360231
vt 0.538790 0.315390
vt 0.957381 0.340939
vt 0.584297 0.309753
vt 0.577190 0.238613
vt 0.587135 0.085782
vt 0.549458 0.085715
vt 0.859167 0.085827
vt 0.912388 0.085809
vt 0.633510 0.309690
vt 0.656351 0.315406
vt 0.640370 0.238082
vt 0.651801 0.085715
vt 0.622823 0.085784
vt 0.960730 0.085827
vt 0.624059 0.237630
vt 0.595134 0.237156
vt 0.915662 0.305056
vt 0.617842 0.051284
vt 0.657839 0.051945
vt 0.646203 0.073350
vt 0.866589 0.055802
vt 0.966767 0.052061
vt 0.911845 0.075631
vt 0.591230 0.051283
vt 0.553699 0.073350
vt 0.613787 0.032956
vt 0.595351 0.032951
vt 0.657941 0.002839
vt 0.554041 0.002839
vt 0.556881 0.055687
vt 0.928979 0.027703
vt 0.966870 0.002957
vt 0.955017 0.044907
vt 0.880194 0.047145
vt 0.894032 0.028433
vt 0.928814 0.015071
vt 0.893605 0.015066
vt 0.863749 0.002957
vt 0.863408 0.073464
vt 0.955133 0.073464
vt 0.614659 0.571743
vt 0.663824 0.594710
vt 0.576939 0.557505
vt 0.931442 0.592264
vt 0.871939 0.563973
vt 0.851945 0.543781
vt 0.962674 0.594768
vt 0.931171 0.603509
vt 0.522855 0.543718
vt 0.393359 0.374970
vt 0.382710 0.464878
vt 0.423184 0.348935
vt 0.399745 0.315408
vt 0.397187 0.340953
vt 0.473502 0.347182
vt 0.497256 0.546246
vt 0.733515 0.464950
vt 0.737961 0.375052
vt 0.793942 0.361743
vt 0.835281 0.315478
vt 0.839913 0.360315
vt 0.516161 0.434932
vt 0.510822 0.360232
vt 0.845252 0.435007
vt 0.793944 0.318104
vt 0.741789 0.341038
vt 0.744346 0.315496
vt 0.506188 0.315390
vt 0.788817 0.504562
vt 0.515897 0.545150
vt 0.472567 0.309798
vt 0.479712 0.238814
vt 0.496594 0.085789
vt 0.468994 0.085856
vt 0.850492 0.085901
vt 0.797281 0.085883
vt 0.424448 0.309736
vt 0.417044 0.238291
vt 0.434083 0.085858
vt 0.393479 0.085789
vt 0.741955 0.085901
vt 0.461981 0.237462
vt 0.433211 0.237887
vt 0.793436 0.304993
vt 0.442557 0.033055
vt 0.465567 0.051397
vt 0.462109 0.033050
vt 0.438949 0.051398
vt 0.398936 0.073442
vt 0.735806 0.052025
vt 0.842963 0.055766
vt 0.797786 0.075723
vt 0.492209 0.073441
vt 0.489064 0.055650
vt 0.387014 0.002938
vt 0.387329 0.051909
vt 0.491904 0.002938
vt 0.750441 0.044871
vt 0.735492 0.003056
vt 0.781343 0.027667
vt 0.781507 0.015170
vt 0.813195 0.028397
vt 0.813622 0.015165
vt 0.845803 0.003056
vt 0.831882 0.047109
vt 0.747412 0.073555
vt 0.846108 0.073555
vt 0.381590 0.594733
vt 0.431546 0.571618
vt 0.469469 0.557228
vt 0.773883 0.592358
vt 0.831464 0.563176
vt 0.773157 0.603515
vt 0.741697 0.594791
vt 0.522222 0.633528
vt 0.466126 0.671279
vt 0.523092 0.671288
vt 0.522920 0.582084
vt 0.587140 0.633525
vt 0.582087 0.579378
vt 0.457388 0.633519
vt 0.522873 0.553423
vt 0.551387 0.565817
vt 0.493326 0.565825
vt 0.431127 0.645930
vt 0.421591 0.673199
vt 0.428886 0.587846
vt 0.463747 0.579372
vt 0.580059 0.671283
vt 0.615496 0.646167
vt 0.625668 0.673204
vt 0.666329 0.674429
vt 0.666445 0.648199
vt 0.616459 0.587791
vt 0.814895 0.603500
vt 0.372441 0.648193
vt 0.928320 0.648251
vt 0.897783 0.645603
vt 0.852107 0.674463
vt 0.807077 0.645604
vt 0.776498 0.648245
vt 0.922159 0.674478
vt 0.371952 0.674439
vt 0.787480 0.674488
vt 0.889440 0.603497
vt 0.583637 0.692921
vt 0.601555 0.736201
vt 0.655139 0.733585
vt 0.461472 0.693088
vt 0.397216 0.733940
vt 0.450999 0.736409
vt 0.413456 0.691656
vt 0.638454 0.691560
vt 0.522554 0.693011
vt 0.523176 0.736312
vt 0.912425 0.730688
vt 0.960192 0.733628
vt 0.750344 0.733983
vt 0.790908 0.730688
vt 0.852054 0.729237
vt 0.948159 0.691607
vt 0.760382 0.691703
vt 0.728922 0.813196
vt 0.979149 0.813196
vt 0.781312 0.771331
vt 0.930575 0.771331
vt 0.852068 0.773733
vt 0.392847 0.813161
vt 0.427513 0.841718
vt 0.657818 0.813161
vt 0.625245 0.841717
vt 0.523110 0.846253
vt 0.852314 0.821589
vt 0.833544 0.902759
vt 0.791877 0.823212
vt 0.786624 0.926199
vt 0.726662 0.926486
vt 0.793211 0.798891
vt 0.758744 0.818197
vt 0.871377 0.902746
vt 0.958191 0.867375
vt 0.955587 0.900670
vt 0.918488 0.926134
vt 0.977199 0.926475
vt 0.919728 0.823212
vt 0.916322 0.798890
vt 0.955758 0.818197
vt 0.852053 0.800515
vt 0.751788 0.867296
vt 0.979765 0.854514
vt 0.397027 0.854501
vt 0.418736 0.867816
vt 0.643664 0.867867
vt 0.523712 0.930872
vt 0.669163 0.922083
vt 0.385087 0.922164
vt 0.487064 0.936176
vt 0.748266 0.900685
vt 0.393766 0.946462
vt 0.559868 0.936112
vt 0.894329 0.981229
vt 0.852696 0.974529
vt 0.786497 0.991375
vt 0.811064 0.981229
vt 0.540017 0.991178
vt 0.507405 0.991359
vt 0.919491 0.991194
vt 0.852240 0.994310
vt 0.523149 0.994294
vt 0.730778 0.854531
vt 0.662766 0.946450
vt 0.655335 0.854483
vt 0.070455 0.179212
vt 0.035264 0.188995
vt 0.041763 0.244571
vt 0.083644 0.244301
vt 0.115949 0.180751
vt 0.126352 0.239705
vt 0.134685 0.196627
vt 0.147921 0.239084
vt 0.101085 0.052745
vt 0.119738 0.053835
vt 0.072593 0.056763
vt 0.053296 0.057821
vt 0.263881 0.198584
vt 0.300155 0.196627
vt 0.303391 0.239084
vt 0.237233 0.244571
vt 0.220734 0.188995
vt 0.228766 0.057821
vt 0.275208 0.053835
vt 0.086234 0.049164
vt 0.251704 0.049164
vt 0.045063 0.286665
vt 0.041003 0.354046
vt 0.086708 0.354069
vt 0.139997 0.356562
vt 0.164566 0.356522
vt 0.133298 0.354067
vt 0.127634 0.258511
vt 0.156479 0.354033
vt 0.327913 0.407923
vt 0.293789 0.407945
vt 0.297535 0.356477
vt 0.245497 0.354001
vt 0.230533 0.286665
vt 0.239178 0.255102
vt 0.242370 0.410472
vt 0.239839 0.356484
vt 0.304626 0.259583
vt 0.294675 0.353998
vt 0.038023 0.415486
vt 0.075521 0.419039
vt 0.085423 0.356565
vt 0.084432 0.255104
vt 0.043708 0.255102
vt 0.293790 0.446960
vt 0.163641 0.450326
vt 0.106925 0.469041
vt 0.166058 0.483682
vt 0.137789 0.419130
vt 0.162444 0.407923
vt 0.270887 0.467294
vt 0.297908 0.495412
vt 0.250639 0.446548
vt 0.276682 0.499449
vt 0.219270 0.479570
vt 0.213657 0.449173
vt 0.252693 0.501484
vt 0.038187 0.449173
vt 0.103764 0.425590
vt 0.043800 0.479570
vt 0.329110 0.450326
vt 0.213492 0.415486
vt 0.219432 0.356541
vt 0.139527 0.244881
vt 0.149156 0.259583
vt 0.070902 0.862173
vt 0.043524 0.796763
vt 0.035643 0.852292
vt 0.085459 0.797140
vt 0.116397 0.860573
vt 0.126665 0.801673
vt 0.135053 0.844574
vt 0.148189 0.802196
vt 0.101678 0.988600
vt 0.120302 0.987450
vt 0.073181 0.984617
vt 0.053855 0.983497
vt 0.264219 0.842610
vt 0.303659 0.802196
vt 0.300522 0.844574
vt 0.238994 0.796763
vt 0.221112 0.852292
vt 0.229325 0.983497
vt 0.275772 0.987450
vt 0.251902 0.992163
vt 0.086433 0.992163
vt 0.041171 0.684859
vt 0.045313 0.754670
vt 0.087653 0.684883
vt 0.086018 0.682415
vt 0.034103 0.682391
vt 0.137874 0.622201
vt 0.140588 0.682411
vt 0.162515 0.633319
vt 0.150856 0.781566
vt 0.157392 0.684847
vt 0.129384 0.782741
vt 0.298064 0.682326
vt 0.330600 0.682371
vt 0.295566 0.684812
vt 0.240869 0.786090
vt 0.246387 0.684815
vt 0.240371 0.682333
vt 0.226640 0.684859
vt 0.230783 0.754670
vt 0.086177 0.786191
vt 0.045399 0.786090
vt 0.213645 0.592222
vt 0.250597 0.594689
vt 0.242407 0.630776
vt 0.163623 0.590976
vt 0.107025 0.572773
vt 0.038175 0.592222
vt 0.075608 0.622363
vt 0.327985 0.633319
vt 0.293741 0.594216
vt 0.329093 0.590976
vt 0.293819 0.633222
vt 0.270832 0.573926
vt 0.134243 0.684881
vt 0.044432 0.562909
vt 0.103858 0.615795
vt 0.252697 0.539815
vt 0.276754 0.541820
vt 0.038098 0.625899
vt 0.297911 0.545818
vt 0.321693 0.557162
vt 0.219573 0.682390
vt 0.213568 0.625899
vt 0.306326 0.781566
vt 0.140533 0.796391
vt 0.166224 0.557162
vt 0.219902 0.562909
vt 0.321527 0.483682
vt 0.321949 0.354033
vt 0.226472 0.354046
vt 0.330035 0.356522
vt 0.165130 0.682371
vt 0.322861 0.684847
vt 0.033963 0.356541
vt 0.910411 0.720715
vt 0.838066 0.762027
vt 0.932146 0.889461
vt 0.664423 0.796674
vt 0.773674 0.904617
vt 0.580264 0.996812
vt 0.581698 0.854073
vt 0.898848 0.982036
vt 0.067622 0.887228
vt -0.067854 0.889461
vt -0.101152 0.982036
vt 0.165754 0.752856
vt 0.099161 0.718899
vt 0.768159 0.294753
vt 0.756654 0.522554
vt 0.819320 0.459558
vt 0.248794 0.521876
vt 0.236945 0.294101
vt 0.184643 0.458788
vt 0.503623 0.866854
vt 0.427566 0.995629
vt 0.426017 0.850153
vt 0.343160 0.783985
vt 0.230523 0.901117
vt 0.607157 0.366651
vt 0.578554 0.197369
vt 0.533726 0.199610
vt 0.497779 0.387807
vt 0.474785 0.301044
vt 0.475806 0.465556
vt 0.430911 0.197007
vt 0.401168 0.366061
vt 0.475454 0.199439
vt 0.409059 0.573868
vt 0.381020 0.462456
vt 0.504375 0.567262
vt 0.504691 0.480179
vt 0.504471 0.276269
vt 0.441040 0.728417
vt 0.564147 0.731715
vt 0.599270 0.574408
vt 0.511150 0.387850
vt 0.494223 0.317991
vt 0.514292 0.318064
vt 0.504196 0.292567
vt 0.534206 0.301221
vt 0.533593 0.465720
vt 0.627229 0.463066
vt 0.000159 0.685704
vt 0.539692 0.031119
vt 0.754245 0.190389
vt 0.251155 0.189837
vt 0.469891 0.030932
vt 0.637434 0.676561
vt 0.368858 0.674488
vt 0.103573 0.981665
vt -0.089589 0.720715
vt 0.085189 0.441192
vt 0.042923 0.562701
vt 0.918145 0.441738
vt 0.958934 0.562253
vt -0.041066 0.562253
vt 0.029317 0.439938
vt -0.059842 0.292753
vt 0.062212 0.292407
vt -0.245755 0.190389
vt 0.940158 0.292753
vt 0.528100 0.099211
vt -0.026473 0.438630
vt 0.036206 0.571071
vt 0.003488 0.544443
vt 0.002655 0.713418
vt 0.973527 0.438630
vt -0.231841 0.294753
vt 0.020069 0.403910
vt 0.970976 0.569736
vt 0.985119 0.402408
vt -0.029024 0.569736
vt -0.014881 0.402408
vt 0.437392 0.768692
vt 0.419236 0.231308
vt 0.187552 0.000500
vt 0.000500 0.850827
vt 0.221029 0.999500
vt 0.562608 0.768692
vt 0.778972 0.999500
vt 0.812448 0.000500
vt 0.999501 0.850827
vt 0.999500 0.232966
vt 0.000500 0.232967
vt 0.580764 0.231308
vt 0.200000 0.400000
vt 0.250000 0.400000
vt 0.250000 0.300000
vt 0.200000 0.300000
vt 0.250000 0.350000
vt 0.250000 0.250000
vt 0.200000 0.350000
vt 0.200000 0.250000
vt 0.180000 0.220000
vt 0.200000 0.150000
vt 0.230000 0.150000
vt 0.260000 0.150000
s 1
usemtl npc_mbok_jum_mat.001
f 5/1/5 4/2/4 3/3/3
f 4/2/4 18/4/18 3/3/3
f 2/5/2 1/6/1 27/7/27
f 6/8/6 8/9/8 7/10/7
f 7/10/7 20/11/20 6/8/6
f 19/12/19 20/11/20 7/10/7
f 50/13/50 48/14/48 7/10/7
f 49/15/49 7/10/7 9/16/9
f 50/13/50 7/10/7 49/15/49
f 8/9/8 9/16/9 7/10/7
f 21/17/21 1/6/1 2/5/2
f 21/17/21 2/5/2 22/18/22
f 22/18/22 2/5/2 61/19/61
f 48/14/48 25/20/25 7/10/7
f 51/21/51 52/22/52 61/19/61
f 52/22/52 53/23/53 62/24/62
f 61/19/61 52/22/52 62/24/62
f 76/25/76 63/26/63 49/15/49
f 54/27/54 60/28/60 55/29/55
f 55/29/55 64/30/64 56/31/56
f 60/28/60 64/30/64 55/29/55
f 77/32/77 48/14/48 63/26/63
f 59/33/59 54/27/54 55/29/55
f 54/27/54 58/34/58 51/21/51
f 56/31/56 58/34/58 59/33/59
f 53/23/53 58/34/58 56/31/56
f 63/26/63 48/14/48 57/35/57
f 49/15/49 63/26/63 57/35/57
f 52/22/52 51/21/51 58/34/58
f 53/23/53 52/22/52 58/34/58
f 64/30/64 65/36/65 56/31/56
f 68/37/68 78/36/78 67/38/67
f 70/39/70 82/40/82 75/41/75
f 62/24/62 73/42/73 71/43/71
f 66/44/66 72/45/72 88/42/88
f 88/42/88 78/36/78 66/44/66
f 56/31/56 65/36/65 73/42/73
f 74/46/74 78/36/78 68/37/68
f 74/46/74 69/47/69 72/45/72
f 69/47/69 84/48/84 72/45/72
f 74/46/74 66/44/66 78/36/78
f 72/45/72 66/44/66 74/46/74
f 88/42/88 72/45/72 84/48/84
f 92/49/92 89/50/89 95/51/95
f 96/52/96 95/51/95 70/39/70
f 96/52/96 92/49/92 95/51/95
f 94/53/94 91/54/91 92/49/92
f 93/55/93 91/54/91 94/53/94
f 83/56/83 93/55/93 94/53/94
f 96/52/96 83/56/83 94/53/94
f 91/54/91 93/55/93 83/56/83
f 95/51/95 89/50/89 82/40/82
f 91/54/91 83/56/83 89/50/89
f 56/31/56 73/42/73 53/23/53
f 70/39/70 75/41/75 85/57/85
f 91/54/91 89/50/89 92/49/92
f 95/51/95 82/40/82 70/39/70
f 94/53/94 92/49/92 96/52/96
f 70/39/70 83/56/83 96/52/96
f 86/57/86 63/26/63 76/25/76
f 86/57/86 90/41/90 63/26/63
f 53/23/53 73/42/73 62/24/62
f 79/58/79 77/32/77 63/26/63
f 90/41/90 79/58/79 63/26/63
f 65/36/65 64/30/64 80/38/80
f 57/35/57 50/13/50 49/15/49
f 57/35/57 48/14/48 50/13/50
f 61/19/61 2/5/2 51/21/51
f 54/27/54 3/3/3 60/28/60
f 2/5/2 3/3/3 54/27/54
f 51/21/51 2/5/2 54/27/54
f 10/59/10 11/60/11 5/1/5
f 3/3/3 10/59/10 5/1/5
f 13/61/13 3/3/3 27/7/27
f 3/3/3 2/5/2 27/7/27
f 6/8/6 20/11/20 17/62/17
f 26/63/26 8/9/8 6/8/6
f 12/64/12 8/9/8 26/63/26
f 10/59/10 3/3/3 13/61/13
f 23/65/23 14/66/14 17/62/17
f 17/62/17 26/63/26 6/8/6
f 24/67/24 1/6/1 21/17/21
f 100/68/100 101/69/101 99/70/99
f 120/71/120 113/72/113 99/70/99
f 98/73/98 99/70/99 29/74/29
f 115/75/115 114/76/114 102/77/102
f 121/78/121 103/79/103 102/77/102
f 104/80/104 116/81/116 98/73/98
f 103/79/103 117/82/117 102/77/102
f 121/78/121 102/77/102 122/83/122
f 119/84/119 132/85/132 102/77/102
f 133/86/133 98/73/98 116/81/116
f 102/77/102 105/87/105 115/75/115
f 105/87/105 102/77/102 117/82/117
f 104/80/104 98/73/98 97/88/97
f 114/76/114 119/84/119 102/77/102
f 123/89/123 133/86/133 124/90/124
f 124/90/124 134/91/134 125/92/125
f 133/86/133 134/91/134 124/90/124
f 148/93/148 121/78/121 135/94/135
f 126/95/126 127/96/127 120/71/120
f 127/96/127 128/97/128 136/98/136
f 120/71/120 127/96/127 136/98/136
f 149/99/149 135/94/135 132/85/132
f 130/100/130 131/101/131 126/95/126
f 126/95/126 123/89/123 130/100/130
f 128/97/128 127/96/127 131/101/131
f 125/92/125 128/97/128 130/100/130
f 135/94/135 129/102/129 132/85/132
f 121/78/121 129/102/129 135/94/135
f 124/90/124 130/100/130 123/89/123
f 125/92/125 130/100/130 124/90/124
f 138/103/138 145/104/145 144/105/144
f 145/104/145 138/103/138 137/106/137
f 140/107/140 136/98/136 150/106/150
f 128/97/128 160/104/160 150/106/150
f 141/108/141 139/109/139 147/110/147
f 128/97/128 125/92/125 160/104/160
f 145/104/145 143/111/143 151/112/151
f 146/113/146 155/114/155 137/106/137
f 146/113/146 144/105/144 142/115/142
f 142/115/142 144/105/144 151/112/151
f 146/113/146 137/106/137 138/103/138
f 144/105/144 146/113/146 138/103/138
f 145/104/145 151/112/151 144/105/144
f 167/116/167 139/109/139 141/108/141
f 161/117/161 164/118/164 167/116/167
f 163/119/163 166/120/166 164/118/164
f 166/120/166 163/119/163 165/121/165
f 156/122/156 166/120/166 165/121/165
f 168/123/168 156/122/156 139/109/139
f 166/120/166 168/123/168 164/118/164
f 156/122/156 165/121/165 163/119/163
f 163/119/163 164/118/164 161/117/161
f 163/119/163 161/117/161 156/122/156
f 141/108/141 147/110/147 152/124/152
f 125/92/125 134/91/134 160/104/160
f 164/118/164 168/123/168 167/116/167
f 161/117/161 167/116/167 141/108/141
f 166/120/166 156/122/156 168/123/168
f 168/123/168 139/109/139 167/116/167
f 150/106/150 136/98/136 128/97/128
f 135/94/135 149/99/149 153/124/153
f 162/110/162 135/94/135 153/124/153
f 157/125/157 135/94/135 162/110/162
f 157/125/157 148/93/148 135/94/135
f 160/104/160 134/91/134 158/111/158
f 129/102/129 122/83/122 132/85/132
f 129/102/129 121/78/121 122/83/122
f 120/71/120 99/70/99 126/95/126
f 123/89/123 98/73/98 133/86/133
f 99/70/99 98/73/98 123/89/123
f 126/95/126 99/70/99 123/89/123
f 101/69/101 107/126/107 106/127/106
f 99/70/99 101/69/101 106/127/106
f 108/128/108 29/74/29 99/70/99
f 98/73/98 29/74/29 97/88/97
f 112/129/112 28/130/28 109/131/109
f 28/130/28 105/87/105 117/82/117
f 28/130/28 117/82/117 12/64/12
f 106/127/106 108/128/108 99/70/99
f 118/132/118 115/75/115 112/129/112
f 28/130/28 112/129/112 105/87/105
f 24/67/24 104/80/104 97/88/97
f 44/133/44 169/134/169 188/135/188
f 41/136/41 30/137/30 15/138/15
f 44/133/44 41/136/41 31/139/31
f 38/140/38 41/136/41 39/141/39
f 41/136/41 38/140/38 40/142/40
f 32/143/32 170/144/170 169/134/169
f 31/139/31 32/143/32 169/134/169
f 32/143/32 31/139/31 111/145/111
f 111/145/111 31/139/31 110/146/110
f 30/137/30 44/133/44 172/147/172
f 33/148/33 172/147/172 173/149/173
f 30/137/30 172/147/172 33/148/33
f 171/150/171 34/151/34 173/149/173
f 33/148/33 16/152/16 30/137/30
f 16/152/16 15/138/15 30/137/30
f 28/130/28 26/63/26 42/153/42
f 32/143/32 35/154/35 170/144/170
f 107/126/107 35/154/35 32/143/32
f 107/126/107 32/143/32 111/145/111
f 23/65/23 46/155/46 14/66/14
f 37/156/37 45/157/45 36/158/36
f 34/151/34 33/148/33 173/149/173
f 11/60/11 16/152/16 33/148/33
f 37/156/37 36/158/36 42/153/42
f 109/131/109 36/158/36 47/159/47
f 46/155/46 189/160/189 37/156/37
f 11/60/11 33/148/33 34/151/34
f 35/154/35 174/161/174 170/144/170
f 109/131/109 47/159/47 118/132/118
f 189/160/189 45/157/45 37/156/37
f 46/155/46 37/156/37 14/66/14
f 42/153/42 36/158/36 109/131/109
f 36/158/36 190/162/190 47/159/47
f 38/140/38 24/67/24 97/88/97
f 28/130/28 12/64/12 26/63/26
f 97/88/97 29/74/29 38/140/38
f 1/6/1 24/67/24 38/140/38
f 14/66/14 43/163/43 26/63/26
f 38/140/38 39/141/39 27/7/27
f 40/142/40 110/146/110 41/136/41
f 110/146/110 31/139/31 41/136/41
f 15/138/15 39/141/39 41/136/41
f 111/145/111 106/127/106 107/126/107
f 111/145/111 110/146/110 106/127/106
f 110/146/110 108/128/108 106/127/106
f 110/146/110 40/142/40 108/128/108
f 40/142/40 29/74/29 108/128/108
f 38/140/38 29/74/29 40/142/40
f 38/140/38 27/7/27 1/6/1
f 39/141/39 13/61/13 27/7/27
f 15/138/15 13/61/13 39/141/39
f 15/138/15 16/152/16 10/59/10
f 15/138/15 10/59/10 13/61/13
f 10/59/10 16/152/16 11/60/11
f 178/164/178 177/165/177 176/166/176
f 180/167/180 175/168/175 179/169/179
f 175/168/175 180/167/180 182/170/182
f 176/166/176 181/171/181 178/164/178
f 178/164/178 187/172/187 186/173/186
f 180/167/180 179/169/179 186/173/186
f 183/174/183 189/160/189 192/175/192
f 191/176/191 190/162/190 184/177/184
f 189/160/189 183/174/183 185/178/185
f 190/162/190 45/157/45 185/178/185
f 189/160/189 193/179/193 192/175/192
f 190/162/190 191/176/191 194/180/194
f 174/161/174 182/170/182 170/144/170
f 180/167/180 169/134/169 170/144/170
f 182/170/182 180/167/180 170/144/170
f 173/149/173 181/171/181 171/150/171
f 172/147/172 178/164/178 173/149/173
f 178/164/178 181/171/181 173/149/173
f 187/172/187 172/147/172 188/135/188
f 169/134/169 180/167/180 187/172/187
f 190/162/190 185/178/185 184/177/184
f 184/177/184 195/181/195 191/176/191
f 183/174/183 192/175/192 196/182/196
f 185/178/185 197/183/197 184/177/184
f 183/174/183 196/182/196 198/184/198
f 185/178/185 198/184/198 199/185/199
f 184/177/184 197/183/197 195/181/195
f 185/178/185 183/174/183 198/184/198
f 185/178/185 199/185/199 197/183/197
f 208/186/208 210/187/210 179/169/179
f 175/168/175 208/186/208 179/169/179
f 209/188/209 177/165/177 211/189/211
f 176/166/176 177/165/177 209/188/209
f 179/169/179 210/187/210 212/190/212
f 177/165/177 186/173/186 212/190/212
f 177/165/177 212/190/212 211/189/211
f 206/191/206 220/192/220 203/193/203
f 220/192/220 242/194/242 258/195/258
f 200/196/200 205/197/205 197/183/197
f 217/198/217 219/199/219 215/200/215
f 243/201/243 217/198/217 255/202/255
f 202/203/202 201/204/201 204/205/204
f 201/204/201 206/191/206 207/206/207
f 207/206/207 199/185/199 201/204/201
f 199/185/199 200/196/200 197/183/197
f 201/204/201 198/184/198 204/205/204
f 203/193/203 220/192/220 216/207/216
f 205/197/205 203/193/203 216/207/216
f 219/199/219 202/203/202 204/205/204
f 219/199/219 196/182/196 224/208/224
f 198/184/198 201/204/201 199/185/199
f 217/198/217 220/192/220 206/191/206
f 217/198/217 202/203/202 219/199/219
f 205/197/205 200/196/200 203/193/203
f 200/196/200 207/206/207 206/191/206
f 223/209/223 221/210/221 208/186/208
f 222/211/222 209/188/209 211/189/211
f 210/187/210 221/210/221 212/190/212
f 221/210/221 241/212/241 212/190/212
f 222/211/222 241/212/241 214/213/214
f 222/211/222 212/190/212 241/212/241
f 198/184/198 196/182/196 204/205/204
f 196/182/196 219/199/219 204/205/204
f 195/181/195 205/197/205 216/207/216
f 197/183/197 205/197/205 195/181/195
f 213/214/213 250/215/250 241/212/241
f 220/192/220 218/216/218 216/207/216
f 217/198/217 215/200/215 255/202/255
f 259/217/259 250/215/250 213/214/213
f 214/213/214 241/212/241 251/218/251
f 247/219/247 249/220/249 217/198/217
f 249/220/249 220/192/220 217/198/217
f 245/221/245 242/194/242 244/222/244
f 242/194/242 220/192/220 244/222/244
f 246/223/246 241/212/241 252/224/252
f 251/218/251 241/212/241 246/223/246
f 247/219/247 243/201/243 253/225/253
f 247/219/247 217/198/217 243/201/243
f 244/222/244 249/220/249 248/226/248
f 254/227/254 246/223/246 252/224/252
f 244/222/244 248/226/248 245/221/245
f 247/219/247 253/225/253 248/226/248
f 241/212/241 250/215/250 252/224/252
f 249/220/249 244/222/244 220/192/220
f 249/220/249 247/219/247 248/226/248
f 221/210/221 210/187/210 208/186/208
f 213/214/213 241/212/241 221/210/221
f 211/189/211 212/190/212 222/211/222
f 220/192/220 258/195/258 218/216/218
f 237/228/237 195/181/195 216/207/216
f 251/218/251 256/229/256 214/213/214
f 239/230/239 209/188/209 222/211/222
f 380/231/380 379/232/379 375/233/375
f 375/233/375 376/234/376 380/231/380
f 377/235/377 380/231/380 376/234/376
f 376/234/376 373/236/373 377/235/377
f 378/237/378 377/235/377 373/236/373
f 373/236/373 374/238/374 378/237/378
f 378/237/378 381/239/381 377/235/377
f 384/240/384 381/239/381 378/237/378
f 377/235/377 382/241/382 380/231/380
f 381/239/381 382/241/382 377/235/377
f 380/231/380 383/242/383 379/232/379
f 382/241/382 383/242/383 380/231/380
f 385/243/385 390/244/390 388/245/388
f 389/246/389 385/243/385 388/245/388
f 391/247/391 385/243/385 389/246/389
f 392/248/392 393/249/393 385/243/385
f 385/243/385 391/247/391 392/248/392
f 385/243/385 393/249/393 390/244/390
f 383/242/383 382/241/382 386/250/386
f 393/249/393 392/248/392 394/251/394
f 381/239/381 386/250/386 382/241/382
f 381/239/381 384/240/384 386/250/386
f 324/252/324 339/253/339 336/254/336
f 344/255/344 343/256/343 337/257/337
f 322/258/322 356/257/356 338/259/338
f 318/260/318 319/261/319 340/262/340
f 335/263/335 348/264/348 326/265/326
f 320/266/320 341/267/341 319/261/319
f 323/268/323 334/269/334 326/265/326
f 333/270/333 321/271/321 345/272/345
f 325/273/325 349/274/349 324/252/324
f 318/260/318 328/275/328 319/261/319
f 331/276/331 240/277/240 235/278/235
f 317/279/317 331/276/331 346/280/346
f 329/281/329 328/275/328 226/282/226
f 327/283/327 319/261/319 328/275/328
f 329/281/329 327/283/327 328/275/328
f 257/284/257 329/281/329 226/282/226
f 231/285/231 330/286/330 227/287/227
f 320/266/320 319/261/319 327/283/327
f 227/287/227 330/286/330 327/283/327
f 333/270/333 350/288/350 321/271/321
f 336/254/336 322/258/322 325/273/325
f 345/272/345 321/271/321 332/289/332
f 232/290/232 240/277/240 350/288/350
f 332/289/332 321/271/321 240/277/240
f 331/276/331 317/279/317 240/277/240
f 327/283/327 330/286/330 320/266/320
f 328/275/328 318/260/318 351/291/351
f 227/287/227 329/281/329 257/284/257
f 317/279/317 371/255/371 332/289/332
f 317/279/317 332/289/332 240/277/240
f 320/266/320 352/292/352 342/293/342
f 320/266/320 330/286/330 352/292/352
f 375/233/375 349/274/349 325/273/325
f 376/234/376 375/233/375 325/273/325
f 376/234/376 325/273/325 322/258/322
f 373/236/373 376/234/376 322/258/322
f 387/294/387 322/258/322 347/295/347
f 374/238/374 373/236/373 387/294/387
f 389/246/389 388/245/388 323/268/323
f 326/265/326 389/246/389 323/268/323
f 373/236/373 322/258/322 387/294/387
f 374/238/374 387/294/387 347/295/347
f 402/296/402 397/297/397 401/298/401
f 397/297/397 402/296/402 398/299/398
f 399/300/399 398/299/398 402/296/402
f 398/299/398 399/300/399 395/301/395
f 400/302/400 395/301/395 399/300/399
f 395/301/395 400/302/400 396/303/396
f 400/302/400 399/300/399 403/304/403
f 406/305/406 400/302/400 403/304/403
f 399/300/399 402/296/402 404/306/404
f 403/304/403 399/300/399 404/306/404
f 402/296/402 401/298/401 405/307/405
f 404/306/404 402/296/402 405/307/405
f 407/308/407 410/309/410 412/310/412
f 411/311/411 410/309/410 407/308/407
f 413/312/413 411/311/411 407/308/407
f 414/313/414 407/308/407 415/314/415
f 407/308/407 414/313/414 413/312/413
f 407/308/407 412/310/412 415/314/415
f 408/315/408 414/313/414 415/314/415
f 403/304/403 416/316/416 406/305/406
f 404/306/404 405/307/405 416/316/416
f 404/306/404 416/316/416 403/304/403
f 283/317/283 268/318/268 280/319/280
f 299/319/299 289/320/289 286/321/286
f 261/322/261 287/323/287 262/324/262
f 267/325/267 282/326/282 266/327/266
f 284/328/284 288/329/288 278/330/278
f 270/331/270 279/332/279 297/330/297
f 284/328/284 298/332/298 285/333/285
f 304/334/304 279/332/279 292/335/292
f 269/336/269 268/318/268 293/337/293
f 274/338/274 271/339/271 264/340/264
f 275/341/275 238/342/238 261/322/261
f 294/343/294 265/344/265 238/342/238
f 290/345/290 272/346/272 295/347/295
f 290/345/290 263/348/263 272/346/272
f 263/348/263 264/340/264 271/339/271
f 263/348/263 271/339/271 272/346/272
f 271/339/271 273/349/273 272/346/272
f 281/350/281 280/319/280 266/327/266
f 294/343/294 238/342/238 228/351/228
f 265/344/265 276/352/276 238/342/238
f 261/322/261 262/324/262 275/341/275
f 230/353/230 260/354/260 273/349/273
f 294/343/294 277/355/277 265/344/265
f 230/353/230 273/349/273 271/339/271
f 272/346/272 225/356/225 295/347/295
f 225/356/225 233/357/233 295/347/295
f 225/356/225 273/349/273 260/354/260
f 300/350/300 312/323/312 289/320/289
f 261/322/261 238/342/238 276/352/276
f 309/358/309 285/333/285 305/334/305
f 264/340/264 296/359/296 274/338/274
f 293/337/293 397/297/397 398/299/398
f 269/336/269 293/337/293 398/299/398
f 269/336/269 398/299/398 395/301/395
f 269/336/269 395/301/395 266/327/266
f 291/360/291 410/309/410 411/311/411
f 270/331/270 291/360/291 411/311/411
f 409/361/409 396/303/396 267/325/267
f 266/327/266 395/301/395 409/361/409
f 395/301/395 396/303/396 409/361/409
f 266/327/266 409/361/409 267/325/267
f 271/339/271 274/338/274 230/353/230
f 238/342/238 275/341/275 234/362/234
f 240/277/240 321/271/321 350/288/350
f 328/275/328 351/291/351 226/282/226
f 225/356/225 272/346/272 273/349/273
f 229/363/229 230/353/230 274/338/274
f 226/282/226 351/291/351 236/364/236
f 327/283/327 329/281/329 227/287/227
f 37/156/37 42/153/42 43/163/43
f 43/163/43 42/153/42 26/63/26
f 37/156/37 43/163/43 14/66/14
f 42/153/42 109/131/109 28/130/28
f 31/139/31 169/134/169 44/133/44
f 30/137/30 41/136/41 44/133/44
f 154/107/154 137/106/137 155/114/155
f 82/40/82 81/58/81 75/41/75
f 139/109/139 159/125/159 147/110/147
f 87/43/87 88/42/88 84/48/84
f 178/164/178 186/173/186 177/165/177
f 186/173/186 179/169/179 212/190/212
f 187/172/187 180/167/180 186/173/186
f 172/147/172 187/172/187 178/164/178
f 44/133/44 188/135/188 172/147/172
f 187/172/187 188/135/188 169/134/169
f 217/198/217 206/191/206 202/203/202
f 200/196/200 206/191/206 203/193/203
f 202/203/202 206/191/206 201/204/201
f 200/196/200 199/185/199 207/206/207
f 45/157/45 190/162/190 36/158/36
f 45/157/45 189/160/189 185/178/185
f 115/75/115 105/87/105 112/129/112
f 118/132/118 112/129/112 109/131/109
f 23/65/23 17/62/17 20/11/20
f 14/66/14 26/63/26 17/62/17
f 113/72/113 100/68/100 99/70/99
f 132/85/132 122/83/122 102/77/102
f 18/4/18 60/28/60 3/3/3
f 25/20/25 19/12/19 7/10/7
f 290/345/290 313/329/313 307/328/307
f 270/331/270 297/330/297 291/360/291
f 307/328/307 308/333/308 263/348/263
f 279/332/279 270/331/270 292/335/292
f 357/365/357 334/269/334 323/268/323
f 353/269/353 363/262/363 354/263/354
f 364/267/364 360/366/360 354/263/354
f 335/263/335 326/265/326 334/269/334
f 372/272/372 337/257/337 355/254/355
f 346/280/346 368/256/368 371/255/371
f 356/257/356 322/258/322 336/254/336
f 322/258/322 338/259/338 347/295/347
f 369/367/369 353/269/353 358/365/358
f 280/319/280 269/336/269 266/327/266
f 281/350/281 266/327/266 282/326/282
f 287/323/287 276/352/276 316/320/316
f 301/326/301 314/368/314 300/350/300
f 302/369/302 291/360/291 297/330/297
f 361/253/361 365/370/365 355/254/355
f 335/263/335 362/366/362 348/264/348
f 324/252/324 336/254/336 325/273/325
f 316/320/316 277/355/277 310/321/310
f 268/318/268 269/336/269 280/319/280
f 264/340/264 308/333/308 311/358/311
f 278/330/278 298/332/298 284/328/284
f 290/345/290 307/328/307 263/348/263
f 285/333/285 298/332/298 305/334/305
f 308/333/308 264/340/264 263/348/263
f 369/367/369 363/262/363 353/269/353
f 340/262/340 319/261/319 341/267/341
f 364/267/364 354/263/354 363/262/363
f 320/266/320 342/293/342 341/267/341
f 364/267/364 366/293/366 360/366/360
f 367/370/367 333/270/333 345/272/345
f 299/319/299 286/321/286 306/317/306
f 264/340/264 311/358/311 296/359/296
f 343/256/343 359/259/359 337/257/337
f 318/260/318 340/262/340 370/367/370
f 344/255/344 337/257/337 372/272/372
f 346/280/346 371/255/371 317/279/317
f 312/323/312 300/350/300 314/368/314
f 261/322/261 276/352/276 287/323/287
f 288/329/288 303/369/303 278/330/278
f 315/368/315 262/324/262 287/323/287
f 300/350/300 289/320/289 299/319/299
f 316/320/316 276/352/276 265/344/265
f 332/289/332 371/255/371 345/272/345
f 265/344/265 277/355/277 316/320/316
f 365/370/365 372/272/372 355/254/355
f 58/34/58 54/27/54 59/33/59
f 56/31/56 59/33/59 55/29/55
f 131/101/131 127/96/127 126/95/126
f 128/97/128 131/101/131 130/100/130
f 449/371/449 430/372/430 419/373/419
f 430/372/430 453/374/453 451/375/451
f 421/376/421 451/375/451 426/377/426
f 421/376/421 467/378/467 451/375/451
f 424/379/424 488/380/488 495/381/495
f 433/382/433 450/383/450 424/379/424
f 422/384/422 432/385/432 429/386/429
f 451/375/451 453/374/453 426/377/426
f 429/386/429 430/372/430 449/371/449
f 431/387/431 425/388/425 428/389/428
f 450/383/450 433/382/433 428/389/428
f 470/390/470 448/391/448 421/376/421
f 427/392/427 454/393/454 452/394/452
f 452/394/452 454/393/454 433/382/433
f 437/395/437 483/396/483 436/397/436
f 473/398/473 439/399/439 472/400/472
f 484/401/484 442/402/442 441/403/441
f 439/399/439 442/402/442 472/400/472
f 444/404/444 472/400/472 443/405/443
f 472/400/472 444/404/444 445/406/445
f 472/400/472 445/406/445 438/407/438
f 441/403/441 439/399/439 466/408/466
f 466/408/466 436/397/436 441/403/441
f 445/406/445 434/409/434 420/410/420
f 446/411/446 445/406/445 420/410/420
f 470/390/470 434/409/434 427/392/427
f 470/390/470 420/410/420 434/409/434
f 444/404/444 434/409/434 445/406/445
f 474/412/474 463/413/463 473/398/473
f 462/414/462 440/415/440 463/413/463
f 435/416/435 466/408/466 440/415/440
f 471/417/471 445/406/445 446/411/446
f 447/418/447 471/417/471 446/411/446
f 440/415/440 462/414/462 435/416/435
f 471/417/471 447/418/447 437/395/437
f 435/416/435 474/412/474 471/417/471
f 450/383/450 469/419/469 424/379/424
f 447/418/447 422/384/422 437/395/437
f 460/420/460 483/396/483 417/421/417
f 422/384/422 417/421/417 437/395/437
f 443/405/443 442/402/442 425/388/425
f 442/402/442 423/422/423 425/388/425
f 461/423/461 423/422/423 484/401/484
f 432/385/432 422/384/422 447/418/447
f 432/385/432 447/418/447 446/411/446
f 464/424/464 446/411/446 420/410/420
f 443/405/443 425/388/425 431/387/431
f 431/387/431 444/404/444 443/405/443
f 465/425/465 444/404/444 431/387/431
f 424/379/424 468/426/468 452/394/452
f 427/392/427 452/394/452 448/391/448
f 448/391/448 468/426/468 421/376/421
f 470/390/470 421/376/421 426/377/426
f 490/427/490 488/380/488 469/419/469
f 432/385/432 430/372/430 429/386/429
f 450/383/450 459/428/459 482/429/482
f 431/387/431 428/389/428 433/382/433
f 426/377/426 453/374/453 420/410/420
f 430/372/430 451/375/451 419/373/419
f 433/382/433 424/379/424 452/394/452
f 427/392/427 434/409/434 454/393/454
f 432/385/432 453/374/453 430/372/430
f 432/385/432 464/424/464 453/374/453
f 465/425/465 454/393/454 434/409/434
f 431/387/431 433/382/433 454/393/454
f 458/430/458 449/371/449 481/431/481
f 469/419/469 499/432/499 490/427/490
f 459/428/459 456/433/456 482/429/482
f 425/388/425 418/434/418 457/435/457
f 449/371/449 458/430/458 429/386/429
f 423/422/423 486/436/486 425/388/425
f 450/383/450 428/389/428 459/428/459
f 459/428/459 428/389/428 425/388/425
f 459/428/459 425/388/425 457/435/457
f 458/430/458 487/437/487 422/384/422
f 429/386/429 458/430/458 422/384/422
f 457/435/457 456/433/456 459/428/459
f 483/396/483 460/420/460 436/397/436
f 423/422/423 442/402/442 484/401/484
f 462/414/462 474/412/474 435/416/435
f 440/415/440 439/399/439 463/413/463
f 474/412/474 473/398/473 438/407/438
f 432/385/432 446/411/446 464/424/464
f 464/424/464 420/410/420 453/374/453
f 434/409/434 444/404/444 465/425/465
f 431/387/431 454/393/454 465/425/465
f 461/423/461 441/403/441 436/397/436
f 436/397/436 460/420/460 461/423/461
f 460/420/460 485/438/485 461/423/461
f 435/416/435 436/397/436 466/408/466
f 466/408/466 439/399/439 440/415/440
f 467/378/467 419/373/419 451/375/451
f 468/426/468 495/381/495 421/376/421
f 468/426/468 448/391/448 452/394/452
f 468/426/468 424/379/424 495/381/495
f 418/434/418 455/439/455 456/433/456
f 469/419/469 488/380/488 424/379/424
f 475/440/475 480/441/480 476/442/476
f 487/437/487 458/430/458 491/443/491
f 456/433/456 457/435/457 418/434/418
f 460/420/460 417/421/417 485/438/485
f 427/392/427 448/391/448 470/390/470
f 426/377/426 420/410/420 470/390/470
f 489/444/489 418/434/418 425/388/425
f 486/436/486 423/422/423 485/438/485
f 438/407/438 445/406/445 471/417/471
f 435/416/435 471/417/471 437/395/437
f 473/398/473 472/400/472 438/407/438
f 472/400/472 442/402/442 443/405/443
f 463/413/463 439/399/439 473/398/473
f 462/414/462 463/413/463 474/412/474
f 474/412/474 438/407/438 471/417/471
f 476/442/476 496/419/496 502/429/502
f 494/433/494 479/445/479 475/440/475
f 477/446/477 478/447/478 492/443/492
f 496/419/496 476/442/476 497/448/497
f 498/449/498 479/445/479 493/439/493
f 479/445/479 498/449/498 480/441/480
f 477/446/477 492/443/492 500/431/500
f 498/449/498 497/448/497 480/441/480
f 502/429/502 475/440/475 476/442/476
f 479/445/479 494/433/494 493/439/493
f 480/441/480 497/448/497 476/442/476
f 479/445/479 480/441/480 475/440/475
f 481/431/481 491/443/491 458/430/458
f 497/448/497 501/432/501 496/419/496
f 450/383/450 482/429/482 469/419/469
f 475/440/475 502/429/502 494/433/494
f 437/395/437 436/397/436 435/416/435
f 483/396/483 437/395/437 417/421/417
f 442/402/442 439/399/439 441/403/441
f 461/423/461 484/401/484 441/403/441
f 461/423/461 485/438/485 423/422/423
f 489/444/489 425/388/425 486/436/486
f 503/450/503 506/451/506 511/452/511
f 504/453/504 514/454/514 511/452/511
f 508/455/508 513/456/513 512/457/512
f 512/457/512 507/458/507 510/459/510
f 504/453/504 511/452/511 505/460/505
f 508/455/508 512/457/512 509/461/509
f 513/456/513 507/458/507 512/457/512
f 514/454/514 503/450/503 511/452/511
f 503/450/503 514/454/514 506/451/506
f 514/454/514 511/452/511 506/451/506
f 514/454/514 505/460/505 511/452/511
f 514/454/514 504/453/504 505/460/505
f 507/458/507 513/456/513 510/459/510
f 513/456/513 512/457/512 510/459/510
f 513/456/513 509/461/509 512/457/512
f 513/456/513 508/455/508 509/461/509
f 515/462/515 516/463/516 520/464/520 519/465/519
f 516/463/516 517/466/517 521/467/521 520/464/520
f 517/466/517 518/468/518 522/469/522 521/467/521
f 518/468/518 515/462/515 519/465/519 522/469/522
f 519/465/519 520/464/520 523/470/523
f 520/464/520 521/467/521 523/470/523
f 521/467/521 522/469/522 523/470/523
f 522/469/522 519/465/519 523/470/523
f 519/465/519 523/470/523 524/471/524
f 520/464/520 523/470/523 525/472/525
f 520/464/520 525/472/525 526/473/526
f 521/467/521 526/473/526 525/472/525
f 521/467/521 525/472/525 522/469/522
f 522/469/522 525/472/525 524/471/524
f 524/471/524 525/472/525 526/473/526
f 531/465/531 532/464/532 528/463/528 527/462/527
f 532/464/532 533/467/533 529/466/529 528/463/528
f 533/467/533 534/469/534 530/468/530 529/466/529
f 534/469/534 531/465/531 527/462/527 530/468/530
f 535/470/535 532/464/532 531/465/531
f 535/470/535 533/467/533 532/464/532
f 535/470/535 534/469/534 533/467/533
f 535/470/535 531/465/531 534/469/534
f 536/471/536 535/470/535 531/465/531
f 537/472/537 535/470/535 532/464/532
f 538/473/538 537/472/537 532/464/532
f 537/472/537 538/473/538 533/467/533
f 534/469/534 537/472/537 533/467/533
f 536/471/536 537/472/537 534/469/534
f 538/473/538 537/472/537 536/471/536
