# Blender 5.1.1
# www.blender.org
mtllib npc_kru_kuro_walk1.mtl
o npc_kru_kuro_walk1
v 0.035563 0.002125 0.639445
v 0.117201 0.001936 0.641564
v 0.156181 0.080918 0.648067
v 0.164085 0.054667 0.771803
v 0.072686 0.081110 0.820218
v 0.072746 0.102756 0.652321
v 0.012234 0.078507 0.650145
v 0.159759 -0.241152 0.898729
v 0.160584 -0.127276 0.928443
v 0.098089 -0.110884 0.880707
v 0.120399 0.073575 0.939746
v 0.095220 -0.126605 0.915247
v 0.154136 -0.232630 0.921121
v 0.052250 0.086403 0.939987
v 0.120933 0.072842 0.926168
v 0.123387 0.086151 0.626783
v 0.132628 0.082229 0.647284
v 0.074659 0.131157 0.653277
v 0.034267 -0.037888 0.637178
v 0.131723 -0.011464 0.639284
v 0.035563 0.002125 0.639445
v 0.117201 0.001936 0.641564
v 0.156181 0.080918 0.648067
v 0.156181 0.080918 0.648067
v 0.156181 0.080918 0.648067
v 0.164085 0.054667 0.771803
v 0.072746 0.102756 0.652321
v 0.012234 0.078507 0.650145
v 0.012234 0.078507 0.650145
v 0.012234 0.078507 0.650145
v 0.160584 -0.127276 0.928443
v 0.123387 0.086151 0.626783
v 0.132628 0.082229 0.647284
v 0.132628 0.082229 0.647284
v 0.132628 0.082229 0.647284
v 0.074659 0.131157 0.653277
v 0.034267 -0.037888 0.637178
v 0.131723 -0.011464 0.639284
v 0.110647 0.134752 0.471425
v 0.035538 0.133241 0.471404
v 0.073205 0.156609 0.475612
v 0.042472 0.063677 0.462314
v 0.024463 0.099790 0.359184
v 0.058969 0.183144 0.105194
v 0.053877 0.228661 0.104990
v 0.077145 0.248753 0.104901
v 0.105580 0.063618 0.462210
v 0.130927 0.098693 0.358314
v 0.086006 0.180382 0.105205
v 0.101607 0.228556 0.104990
v 0.074249 0.155817 0.454176
v 0.072889 0.076042 0.356856
v 0.110647 0.134752 0.471425
v 0.035538 0.133241 0.471404
v 0.053877 0.228661 0.104990
v 0.101607 0.228556 0.104990
v 0.093551 0.175103 0.030125
v 0.079970 0.220863 -0.000254
v 0.101322 0.234794 0.086958
v 0.086587 0.187554 0.085464
v 0.129817 0.367092 0.029961
v 0.048208 0.373762 -0.000434
v 0.053647 0.365223 0.036126
v 0.054160 0.235189 0.086957
v 0.067704 0.222026 -0.000255
v 0.046457 0.177080 0.030123
v 0.134674 0.373870 -0.000434
v 0.055788 0.252538 0.012875
v 0.058713 0.190708 0.085460
v 0.076003 0.254967 0.087701
v 0.117890 0.318333 0.042163
v 0.058865 0.302150 0.066083
v 0.102617 0.252425 0.012876
v 0.086099 0.242242 -0.000279
v 0.065001 0.242443 -0.000443
v 0.051007 0.191454 0.014943
v 0.088002 0.188076 0.014947
v 0.101322 0.234794 0.086958
v 0.129817 0.367092 0.029961
v 0.048208 0.373762 -0.000434
v 0.053647 0.365223 0.036126
v 0.054160 0.235189 0.086957
v 0.134674 0.373870 -0.000434
v 0.055788 0.252538 0.012875
v 0.117890 0.318333 0.042163
v 0.058865 0.302150 0.066083
v 0.102617 0.252425 0.012876
v 0.086099 0.242242 -0.000279
v 0.065001 0.242443 -0.000443
v 0.106601 0.439644 -0.000511
v 0.104982 0.430500 0.013932
v 0.075066 0.441085 -0.000513
v 0.077544 0.433377 0.015141
v 0.126703 0.355283 0.027433
v 0.054569 0.354741 0.031121
v 0.033603 0.078323 0.876163
v 0.047686 -0.120042 0.844035
v -0.034436 0.078545 0.874852
v -0.048533 -0.120082 0.843570
v 0.085831 -0.114199 0.987647
v -0.087469 -0.114502 0.987634
v -0.120846 -0.039851 1.009413
v 0.122318 -0.039425 1.009809
v 0.109929 0.058622 1.014886
v -0.108472 0.058408 1.014875
v -0.071146 0.084276 1.010983
v 0.072699 0.084234 1.010979
v 0.047986 -0.126253 0.875740
v -0.049603 -0.126345 0.875752
v 0.000139 -0.129986 0.914079
v -0.001038 -0.123229 0.987498
v 0.109929 0.058622 1.014886
v -0.108472 0.058408 1.014875
v -0.034902 -0.096278 0.654592
v -0.113999 -0.095202 0.656516
v -0.153655 -0.011474 0.662820
v -0.164354 0.036889 0.774750
v -0.073408 0.012841 0.666540
v -0.015219 -0.012546 0.664483
v -0.075692 0.081685 0.820452
v -0.158508 0.105504 0.898339
v -0.159349 0.196761 0.928560
v -0.096414 -0.111175 0.879979
v -0.119258 0.073778 0.939979
v -0.094816 -0.126917 0.914901
v -0.154626 0.096842 0.921003
v -0.051117 0.086530 0.940244
v -0.117832 0.073717 0.926482
v -0.121592 -0.020752 0.643426
v -0.130427 -0.011290 0.662048
v -0.076559 0.040875 0.667569
v -0.034635 -0.139023 0.652285
v -0.129313 -0.111348 0.654254
v -0.034902 -0.096278 0.654592
v -0.113999 -0.095202 0.656516
v -0.153655 -0.011474 0.662820
v -0.153655 -0.011474 0.662820
v -0.153655 -0.011474 0.662820
v -0.164354 0.036889 0.774750
v -0.073408 0.012841 0.666540
v -0.015219 -0.012546 0.664483
v -0.015219 -0.012546 0.664483
v -0.015219 -0.012546 0.664483
v -0.159349 0.196761 0.928560
v -0.121592 -0.020752 0.643426
v -0.130427 -0.011290 0.662048
v -0.130427 -0.011290 0.662048
v -0.130427 -0.011290 0.662048
v -0.076559 0.040875 0.667569
v -0.034635 -0.139023 0.652285
v -0.129313 -0.111348 0.654254
v -0.109803 -0.067370 0.503802
v -0.037239 -0.066145 0.503770
v -0.073598 -0.041390 0.507577
v -0.043267 -0.142300 0.495730
v -0.025367 -0.168368 0.402907
v -0.058207 -0.241346 0.173558
v -0.053115 -0.195945 0.173321
v -0.077993 -0.175891 0.173215
v -0.104235 -0.142425 0.495637
v -0.130724 -0.169995 0.402135
v -0.085240 -0.244107 0.173575
v -0.100841 -0.196047 0.173320
v -0.074667 -0.055335 0.488116
v -0.073282 -0.193485 0.400992
v -0.109803 -0.067370 0.503802
v -0.037239 -0.066145 0.503770
v -0.053115 -0.195945 0.173321
v -0.100841 -0.196047 0.173320
v -0.093028 -0.294840 0.105868
v -0.079025 -0.267563 0.078431
v -0.053062 -0.101344 0.111019
v -0.100846 -0.200633 0.157091
v -0.085859 -0.248869 0.155753
v -0.129224 -0.103229 0.105457
v -0.047685 -0.114707 0.078237
v -0.053704 -0.200244 0.157091
v -0.065548 -0.266494 0.078430
v -0.045934 -0.292935 0.105866
v -0.134589 -0.114649 0.078237
v -0.053904 -0.228246 0.090269
v -0.076932 -0.181486 0.157759
v -0.057987 -0.245708 0.155749
v -0.117386 -0.144466 0.116569
v -0.058376 -0.146086 0.138151
v -0.102783 -0.228008 0.090269
v -0.084989 -0.246182 0.078404
v -0.062923 -0.246373 0.078257
v -0.049752 -0.287806 0.092159
v -0.087949 -0.291113 0.092162
v -0.053062 -0.101344 0.111019
v -0.100846 -0.200633 0.157091
v -0.129224 -0.103229 0.105457
v -0.047685 -0.114707 0.078237
v -0.053704 -0.200244 0.157091
v -0.134589 -0.114649 0.078237
v -0.053904 -0.228246 0.090269
v -0.117386 -0.144466 0.116569
v -0.058376 -0.146086 0.138151
v -0.102783 -0.228008 0.090269
v -0.084989 -0.246182 0.078404
v -0.062923 -0.246373 0.078257
v -0.106031 -0.049090 0.078154
v -0.103428 -0.049500 0.090984
v -0.074497 -0.047698 0.078152
v -0.075991 -0.045947 0.092074
v -0.126497 -0.116533 0.103179
v -0.053520 -0.114860 0.106506
v -0.101158 -0.084874 1.051364
v -0.134985 -0.007661 1.054808
v 0.102108 0.061387 1.070571
v 0.102181 -0.084704 1.051370
v 0.137745 -0.007507 1.054816
v -0.101619 0.061630 1.070588
v -0.118478 -0.005152 1.154932
v 0.119456 -0.004043 1.154351
v 0.093167 -0.067730 1.158411
v 0.088721 -0.061981 1.100552
v -0.091768 -0.068237 1.158752
v -0.090021 -0.061306 1.100831
v 0.115718 -0.005935 1.098512
v -0.117118 -0.005294 1.098673
v 0.102765 0.056470 1.149762
v -0.102175 0.056267 1.149762
v 0.000262 0.075706 1.147445
v 0.000616 -0.082423 1.158546
v -0.000533 -0.072444 1.100665
v 0.000509 -0.095589 1.051341
v 0.000208 0.076737 1.070616
v 0.102108 0.061387 1.070571
v -0.101619 0.061630 1.070588
v -0.118478 -0.005152 1.154932
v 0.119456 -0.004043 1.154351
v 0.115718 -0.005935 1.098512
v -0.117118 -0.005294 1.098673
v -0.140820 -0.014324 1.285426
v 0.138703 -0.014079 1.285426
v -0.093843 0.056280 1.227895
v 0.094392 0.056486 1.227895
v 0.000275 0.058720 1.249730
v -0.090554 0.064439 1.262021
v 0.091054 0.064635 1.262021
v 0.097200 0.066051 1.302103
v -0.095758 0.065939 1.302103
v 0.133138 0.022516 1.293764
v -0.133481 0.022333 1.293764
v 0.000720 0.056474 1.299415
v 0.000249 0.059683 1.264687
v -0.140820 -0.014324 1.285426
v 0.138703 -0.014079 1.285426
v -0.129110 -0.109237 1.335347
v 0.130897 -0.108955 1.335346
v 0.000586 -0.130650 1.343924
v -0.148443 -0.076273 1.449245
v 0.148510 -0.076293 1.449089
v 0.137836 0.011099 1.446651
v -0.178389 0.040732 1.389225
v 0.042926 0.024020 1.452188
v -0.137893 0.011112 1.446678
v 0.176450 0.041925 1.389377
v -0.040627 0.023862 1.452213
v -0.168279 -0.098614 1.389766
v 0.169231 -0.098320 1.389863
v -0.141431 -0.035353 1.457585
v -0.197598 -0.027396 1.366748
v 0.141399 -0.035238 1.457563
v 0.196915 -0.027236 1.366714
v -0.148443 -0.076273 1.449245
v 0.148510 -0.076293 1.449089
v 0.137836 0.011099 1.446651
v -0.178389 0.040732 1.389225
v -0.178389 0.040732 1.389225
v -0.137893 0.011112 1.446678
v 0.176450 0.041925 1.389377
v 0.176450 0.041925 1.389377
v -0.168279 -0.098614 1.389766
v -0.168279 -0.098614 1.389766
v 0.169231 -0.098320 1.389863
v 0.169231 -0.098320 1.389863
v -0.141431 -0.035353 1.457585
v -0.141431 -0.035353 1.457585
v -0.197598 -0.027396 1.366748
v -0.197598 -0.027396 1.366748
v 0.141399 -0.035238 1.457563
v 0.141399 -0.035238 1.457563
v 0.196915 -0.027236 1.366714
v 0.196915 -0.027236 1.366714
v 0.001904 -0.079352 1.480912
v -0.056796 -0.062651 1.472723
v 0.059519 -0.062994 1.472627
v -0.047352 0.017080 1.561351
v -0.034014 -0.041550 1.579639
v 0.037824 -0.042068 1.579356
v 0.050698 0.017171 1.561351
v 0.000668 0.010676 1.583086
v 0.001673 0.044679 1.549568
v -0.056796 -0.062651 1.472723
v 0.059519 -0.062994 1.472627
v -0.034014 -0.041550 1.579639
v 0.037824 -0.042068 1.579356
v 0.000668 0.010676 1.583086
v 0.127843 -0.075753 1.356905
v 0.164865 -0.086677 1.345667
v 0.210671 -0.065467 1.349547
v 0.201035 0.014590 1.350439
v 0.131290 0.023492 1.355174
v 0.145286 -0.067283 1.146756
v 0.213556 -0.149731 1.154551
v 0.178905 -0.044313 1.185214
v 0.148436 0.012130 1.141013
v 0.222592 -0.068894 1.147859
v 0.206774 0.007838 1.398695
v 0.210054 -0.064866 1.400954
v 0.203023 -0.025347 1.432028
v 0.135083 0.033651 1.395032
v 0.126995 -0.081092 1.398037
v 0.111636 -0.019990 1.362847
v 0.150761 0.028272 1.352126
v 0.164865 -0.086677 1.345667
v 0.213556 -0.149731 1.154551
v 0.178905 -0.044313 1.185214
v 0.222592 -0.068894 1.147859
v 0.135083 0.033651 1.395032
v 0.126995 -0.081092 1.398037
v 0.150761 0.028272 1.352126
v -0.127955 -0.075647 1.356903
v -0.164975 -0.074978 1.345669
v -0.210781 -0.056674 1.349548
v -0.201146 0.022715 1.350437
v -0.131401 0.023594 1.355176
v -0.144859 -0.069781 1.146830
v -0.213129 0.002657 1.154624
v -0.179009 0.087741 1.185202
v -0.147781 0.009660 1.141089
v -0.221928 0.088543 1.147926
v -0.206892 0.007975 1.398697
v -0.210155 -0.064727 1.400950
v -0.203133 -0.025256 1.432027
v -0.135205 0.033840 1.395028
v -0.127108 -0.080889 1.398046
v -0.111747 -0.019891 1.362847
v -0.150871 0.035128 1.352124
v -0.164975 -0.074978 1.345669
v -0.213129 0.002657 1.154624
v -0.179009 0.087741 1.185202
v -0.221928 0.088543 1.147926
v -0.135205 0.033840 1.395028
v -0.127108 -0.080889 1.398046
v -0.150871 0.035128 1.352124
v 0.151717 -0.154124 1.121576
v 0.214006 -0.157103 1.126447
v 0.221979 -0.072833 1.134941
v 0.151154 -0.076436 1.128071
v 0.151940 -0.168451 1.043887
v 0.209105 -0.174915 1.069997
v 0.213763 -0.081436 1.060973
v 0.157866 -0.096101 1.042867
v 0.191908 -0.210124 0.878773
v 0.192537 -0.163508 0.884419
v 0.221418 -0.159002 0.888498
v 0.220815 -0.212117 0.882856
v 0.234902 -0.127548 1.075244
v 0.206658 -0.188933 0.875553
v 0.180428 -0.156787 1.131003
v 0.227928 -0.185885 0.886293
v 0.242770 -0.171545 0.945652
v 0.221420 -0.213518 0.940675
v 0.224343 -0.126777 0.938951
v 0.170604 -0.138545 0.932766
v 0.167269 -0.202698 0.930336
v 0.219268 -0.204349 0.923302
v 0.231698 -0.173735 0.927270
v 0.220765 -0.142043 0.925275
v 0.185018 -0.147869 0.917643
v 0.183281 -0.202591 0.913639
v 0.214006 -0.157103 1.126447
v 0.221979 -0.072833 1.134941
v 0.209105 -0.174915 1.069997
v 0.213763 -0.081436 1.060973
v 0.221418 -0.159002 0.888498
v 0.220815 -0.212117 0.882856
v 0.206658 -0.188933 0.875553
v 0.221420 -0.213518 0.940675
v 0.224343 -0.126777 0.938951
v 0.219268 -0.204349 0.923302
v 0.220765 -0.142043 0.925275
v -0.149891 -0.065931 1.121166
v -0.215289 0.017048 1.126333
v -0.223585 0.096118 1.135134
v -0.149221 0.010313 1.127902
v -0.149732 -0.050744 1.043592
v -0.209863 0.041465 1.069948
v -0.214660 0.146360 1.061283
v -0.155909 0.144952 1.042856
v -0.191476 0.150786 0.878629
v -0.192175 0.195336 0.884448
v -0.222511 0.196605 0.888688
v -0.221828 0.145241 0.882836
v -0.236947 0.087059 1.075493
v -0.207357 0.176186 0.875615
v -0.179998 0.012633 1.130774
v -0.229344 0.170785 0.886419
v -0.225573 0.191703 0.939244
v -0.169142 0.184613 0.932749
v -0.165649 0.119222 0.930072
v -0.222520 0.099455 0.940622
v -0.244966 0.140115 0.945870
v -0.220290 0.122465 0.923284
v -0.233381 0.152075 0.927435
v -0.221885 0.186272 0.925499
v -0.184328 0.186327 0.917673
v -0.182478 0.132025 0.913460
v -0.215289 0.017048 1.126333
v -0.223585 0.096118 1.135134
v -0.209863 0.041465 1.069948
v -0.214660 0.146360 1.061283
v -0.222511 0.196605 0.888688
v -0.221828 0.145241 0.882836
v -0.207357 0.176186 0.875615
v -0.225573 0.191703 0.939244
v -0.222520 0.099455 0.940622
v -0.220290 0.122465 0.923284
v -0.221885 0.186272 0.925499
v -0.056094 0.014297 1.536823
v -0.035609 0.051946 1.515890
v -0.036268 -0.071733 1.578175
v -0.039382 -0.088382 1.669898
v -0.043805 0.059132 1.699306
v -0.053657 0.067897 1.618939
v -0.050428 0.079508 1.636586
v 0.025108 -0.058801 1.729102
v -0.052747 0.071763 1.589923
v -0.060944 0.011606 1.566308
v 0.055391 0.014338 1.536787
v 0.034764 0.052011 1.515875
v 0.035815 -0.071654 1.578146
v 0.038928 -0.088338 1.669729
v 0.043439 0.059173 1.699338
v 0.052873 0.067998 1.618904
v 0.049584 0.079589 1.636555
v 0.051851 0.071866 1.589892
v 0.060156 0.011720 1.566272
v -0.058334 0.058452 1.675580
v 0.056776 0.058661 1.676241
v 0.074082 -0.009838 1.615980
v -0.074411 -0.009603 1.616549
v 0.063086 0.022243 1.626627
v -0.063711 0.022154 1.626667
v 0.068360 -0.022129 1.623021
v -0.069304 -0.022097 1.623264
v -0.013980 0.092069 1.575490
v 0.013134 0.092094 1.575481
v 0.006857 0.097703 1.622869
v -0.000414 0.100271 1.640139
v -0.007915 0.097703 1.622874
v -0.005010 0.120505 1.576142
v 0.004310 0.120517 1.576137
v 0.016868 0.088452 1.505121
v -0.017665 0.088407 1.505133
v -0.024776 -0.058814 1.729177
v 0.072982 -0.030897 1.693681
v -0.072906 -0.030883 1.693229
v -0.056663 -0.003052 1.725164
v 0.060034 0.038503 1.717350
v -0.020367 0.093622 1.735758
v 0.020229 0.093468 1.735582
v 0.056610 -0.003064 1.724289
v -0.061619 0.038512 1.718146
v 0.015950 0.083100 1.619149
v -0.016926 0.083049 1.619166
v -0.000423 0.101876 1.566921
v 0.018679 0.013793 1.745056
v -0.018581 0.013863 1.745181
v 0.038435 0.069965 1.549839
v -0.039282 0.069892 1.549860
v -0.000386 0.111237 1.569303
v -0.000183 0.087615 1.692074
v -0.042784 0.076577 1.683896
v 0.041822 0.076681 1.684227
v -0.056094 0.014297 1.536823
v -0.036268 -0.071733 1.578175
v -0.039382 -0.088382 1.669898
v -0.060944 0.011606 1.566308
v -0.024776 -0.058814 1.729177
v -0.018581 0.013863 1.745181
v -0.209250 0.184535 0.877300
v -0.199950 0.182985 0.877300
v -0.199950 0.161285 0.877300
v -0.209250 0.161285 0.877300
v -0.220100 0.202748 0.837000
v -0.201500 0.200810 0.833900
v -0.201500 0.180660 0.833900
v -0.217000 0.179498 0.837000
v -0.229400 0.215923 0.818400
v -0.223200 -0.008641 0.786081
v -0.213900 -0.012685 0.783284
v -0.204600 -0.010798 0.788878
v 0.209250 -0.178335 0.877300
v 0.199950 -0.179885 0.877300
v 0.199950 -0.201585 0.877300
v 0.209250 -0.201585 0.877300
v 0.220100 -0.190348 0.837000
v 0.201500 -0.194610 0.833900
v 0.201500 -0.214760 0.833900
v 0.217000 -0.213598 0.837000
v 0.229400 -0.191123 0.818400
v 0.223200 0.002441 0.784300
v 0.213900 0.000285 0.781200
v 0.204600 -0.001602 0.787400
vn 0.5676 0.7590 0.3189
vn 0.0261 -0.1178 0.9927
vn -0.0233 -0.0706 0.9972
vn -0.5924 -0.7823 -0.1927
vn -0.1476 -0.9801 -0.1325
vn 0.0003 -0.9723 -0.2336
vn 0.3692 -0.9010 -0.2278
vn -0.2441 0.9603 0.1348
vn -0.9593 0.0436 -0.2789
vn 0.3205 0.8621 0.3924
vn -0.7032 -0.7094 -0.0472
vn 0.5056 0.8534 0.1271
vn -0.1054 0.8397 -0.5328
vn -0.0924 -0.9930 0.0736
vn -0.6438 -0.7630 -0.0580
vn -0.3741 -0.9158 -0.1463
vn -0.0367 -0.0640 0.9973
vn -0.1202 -0.9847 -0.1262
vn 0.1908 -0.0652 0.9795
vn 0.0376 -0.1280 0.9911
vn 0.1707 -0.0546 0.9838
vn -0.6147 0.7157 0.3316
vn -0.5258 -0.8383 -0.1443
vn -0.9631 0.2442 0.1133
vn 0.0020 -0.1837 0.9830
vn -0.9812 0.1267 0.1457
vn 0.0971 -0.0745 0.9925
vn 0.9441 0.2600 0.2027
vn 0.4308 -0.0933 0.8976
vn 0.3114 -0.5918 -0.7435
vn -0.9595 -0.1894 -0.2084
vn -0.9653 0.1123 0.2358
vn -0.3266 -0.9446 -0.0335
vn -0.8922 0.1409 0.4291
vn -0.0518 -0.3778 0.9244
vn 0.0779 -0.0388 0.9962
vn -0.4979 0.7944 0.3478
vn -0.7331 0.5978 0.3243
vn -0.4716 -0.8570 -0.2076
vn 0.4834 -0.8531 -0.1962
vn 0.0192 -0.9912 -0.1312
vn 0.6746 0.7227 0.1504
vn 0.9011 0.4064 0.1511
vn 0.6773 0.6674 0.3096
vn 0.9922 0.0865 0.0902
vn 0.0017 -0.9583 -0.2857
vn -0.6726 0.7269 0.1384
vn -0.9015 0.4128 0.1299
vn -0.5123 0.7835 0.3517
vn -0.9518 0.2622 0.1593
vn 0.0023 -0.9880 -0.1544
vn 0.0396 0.9560 0.2906
vn -0.9989 0.0031 -0.0472
vn 0.9982 0.0593 -0.0042
vn 0.6396 -0.7416 -0.2023
vn -0.6221 -0.7544 -0.2094
vn -0.5701 0.7935 0.2132
vn -0.2713 0.2254 0.9357
vn -0.9705 0.2402 -0.0209
vn -0.5993 0.8005 -0.0081
vn 0.8312 -0.5491 0.0868
vn 0.6680 0.1224 0.7340
vn -0.7528 -0.6574 0.0336
vn 0.9984 0.0105 -0.0552
vn 0.2558 0.1811 0.9496
vn 0.6879 0.7002 0.1911
vn -0.6806 0.2550 0.6868
vn 0.7847 0.0017 0.6198
vn 0.7528 0.6558 -0.0575
vn -0.0081 -0.6202 -0.7844
vn -0.9659 0.1798 -0.1863
vn -0.1624 -0.4432 -0.8816
vn -0.7181 0.1890 0.6698
vn -0.0041 -0.7921 0.6104
vn 0.5077 -0.0082 0.8615
vn 0.6233 0.3476 0.7005
vn -0.4150 0.4970 0.7621
vn -0.5434 -0.6553 -0.5248
vn -0.9688 0.2331 -0.0844
vn 0.8563 -0.4224 0.2971
vn 0.9922 0.0232 -0.1224
vn 0.5767 -0.6399 -0.5078
vn -0.8476 -0.4858 0.2135
vn -0.0074 -0.7957 0.6057
vn -0.1842 -0.3634 -0.9132
vn 0.9796 -0.0406 -0.1967
vn -0.0019 -0.7896 0.6136
vn -0.4571 0.1221 0.8810
vn -0.0123 -0.8009 0.5986
vn -0.4916 -0.7696 0.4075
vn -0.4511 -0.5155 -0.7285
vn 0.4645 -0.7794 0.4204
vn 0.3745 -0.5784 -0.7247
vn 0.2906 -0.9506 0.1088
vn -0.3849 -0.9219 0.0442
vn -0.0285 -0.9993 0.0232
vn -0.2454 0.9491 0.1976
vn 0.0215 -0.9996 0.0170
vn 0.1176 0.9922 0.0411
vn -0.1249 0.8566 -0.5006
vn 0.5574 0.8058 -0.2001
vn 0.9592 0.2715 0.0786
vn -0.9719 0.1545 -0.1777
vn -0.9518 -0.3066 -0.0006
vn 0.9241 -0.1906 -0.3312
vn 0.2433 -0.9611 -0.1304
vn -0.2443 -0.9607 -0.1317
vn -0.1230 0.9791 0.1622
vn 0.1282 0.9779 0.1654
vn -0.0018 0.9997 -0.0247
vn -0.0000 0.9693 -0.2461
vn -0.7245 -0.6711 -0.1575
vn 0.3130 -0.9425 -0.1171
vn -0.7150 0.6885 -0.1216
vn 0.7580 0.6449 -0.0978
vn 0.9713 0.2376 -0.0098
vn 0.8991 0.3744 -0.2267
vn 0.0498 -0.0134 0.9987
vn -0.3661 -0.8666 0.3392
vn 0.2416 -0.9697 0.0370
vn 0.9861 0.1319 -0.1011
vn 0.9687 0.0272 -0.2468
vn 0.7330 0.6730 0.0991
vn -0.5522 -0.8337 -0.0007
vn 0.6114 0.7913 0.0057
vn 0.9767 0.1478 -0.1555
vn 0.0897 -0.9936 0.0685
vn -0.4801 -0.8721 0.0950
vn 0.9640 0.1382 0.2270
vn 0.0342 -0.2603 0.9649
vn 0.0606 -0.0307 0.9977
vn 0.1054 -0.0612 0.9925
vn 0.7018 0.7054 -0.0993
vn 0.2194 -0.0597 0.9738
vn -0.0215 -0.1009 0.9947
vn -0.0002 -0.1504 0.9886
vn 0.5027 -0.7750 0.3829
vn 0.0217 -0.0649 0.9977
vn 0.2036 -0.9294 0.3078
vn 0.0093 -0.9236 0.3834
vn -0.9733 0.2218 0.0594
vn 0.9417 -0.2482 0.2269
vn 0.0908 0.1281 0.9876
vn -0.9236 -0.3092 0.2265
vn 0.3813 -0.8288 0.4096
vn 0.9208 0.1567 0.3572
vn 0.2917 -0.7897 0.5397
vn 0.0336 -0.0592 0.9977
vn 0.4741 -0.8356 0.2775
vn -0.2439 0.9662 0.0830
vn -0.0297 -0.1110 0.9934
vn 0.9995 0.0246 -0.0177
vn -0.4463 -0.8223 0.3530
vn 0.0088 -0.9024 0.4307
vn -0.6549 0.6831 -0.3233
vn -0.9099 0.4006 -0.1082
vn -0.6959 0.7055 -0.1341
vn -0.9942 0.0824 0.0698
vn 0.0280 -0.9331 0.3587
vn 0.6317 0.6880 -0.3572
vn 0.9103 0.3941 -0.1266
vn 0.5282 0.8312 -0.1737
vn 0.9658 0.2581 0.0253
vn 0.0286 -0.8888 0.4573
vn -0.0403 0.9509 -0.3068
vn 0.4832 -0.8089 0.3350
vn -0.9982 0.0606 -0.0027
vn -0.6056 -0.7499 0.2661
vn 0.6419 -0.7263 0.2460
vn 0.5846 0.8022 -0.1212
vn 0.2617 0.2609 0.9292
vn 0.6781 -0.7146 0.1720
vn 0.9571 0.2416 -0.1601
vn 0.5434 0.6898 -0.4785
vn 0.9415 0.2193 -0.2560
vn -0.8321 0.1033 0.5448
vn -0.9993 0.0118 -0.0347
vn -0.2490 0.2239 0.9423
vn -0.6877 0.7175 -0.1109
vn 0.8672 0.2865 0.4073
vn -0.7800 0.0050 0.6257
vn 0.0461 -0.8717 -0.4878
vn -0.7012 0.5684 -0.4304
vn 0.2160 -0.4191 -0.8819
vn 0.1877 -0.5258 -0.8296
vn 0.7641 0.1994 0.6135
vn 0.4679 0.1268 0.8747
vn -0.5096 -0.0047 0.8604
vn -0.6102 0.5028 0.6123
vn 0.4258 0.6654 0.6131
vn -0.9871 0.0073 -0.1597
vn 0.6169 -0.7248 -0.3067
vn -0.7297 -0.6091 0.3108
vn -0.6588 -0.3636 0.6586
vn -0.6149 -0.7484 -0.2487
vn 0.6402 -0.4749 0.6038
vn -0.0010 -0.5505 0.8348
vn 0.9363 0.1734 -0.3054
vn -0.9801 -0.0403 -0.1942
vn -0.0027 -0.5485 0.8362
vn -0.0017 -0.5496 0.8354
vn 0.0008 -0.5527 0.8334
vn 0.5194 -0.6491 0.5558
vn 0.4478 -0.6748 -0.5866
vn -0.4677 -0.6382 0.6115
vn -0.3862 -0.7612 -0.5210
vn -0.1682 -0.9341 0.3148
vn 0.3246 -0.9104 0.2564
vn 0.6145 0.7268 -0.3068
vn 0.9967 0.0044 -0.0806
vn -0.8871 -0.4106 -0.2110
vn -0.6131 0.7303 -0.3014
vn -0.9947 0.0014 -0.1029
vn 0.9023 -0.3953 -0.1719
vn 0.9072 0.4055 0.1123
vn -0.9092 0.3991 0.1183
vn -0.6155 0.7633 0.1963
vn -0.5865 0.7842 -0.2024
vn 0.6030 0.7735 0.1949
vn 0.6032 0.7729 -0.1967
vn -0.9343 0.2105 -0.2876
vn 0.9461 0.2096 -0.2471
vn -0.6696 -0.7427 -0.0122
vn 0.6719 -0.7406 -0.0101
vn 0.0003 -0.9978 -0.0669
vn -0.0011 0.9793 0.2024
vn 0.0036 0.9900 -0.1408
vn -0.0020 0.9118 -0.4107
vn -0.0007 -0.9940 -0.1091
vn -0.4855 -0.8689 -0.0962
vn 0.4828 -0.8701 -0.0992
vn 0.9670 -0.2411 0.0825
vn -0.9675 -0.2402 0.0784
vn -0.9830 -0.1690 0.0715
vn 0.9761 -0.2159 0.0241
vn 0.8749 -0.3399 0.3450
vn -0.8835 -0.3190 0.3431
vn 0.4913 -0.8705 0.0288
vn -0.5005 -0.8652 0.0284
vn 0.0011 -0.9999 -0.0132
vn 0.3383 -0.9337 0.1176
vn -0.3395 -0.9331 0.1184
vn -0.2875 -0.9575 0.0227
vn 0.2767 -0.9608 0.0151
vn -0.8273 -0.4099 0.3842
vn 0.8125 -0.4398 0.3827
vn 0.0010 -0.9893 -0.1461
vn 0.0008 -0.9999 -0.0154
vn 0.8757 0.3359 0.3469
vn -0.8878 0.3073 0.3426
vn 0.5218 0.8167 0.2463
vn -0.5352 0.8069 0.2500
vn -0.0008 0.9995 -0.0328
vn 0.1674 0.7003 -0.6940
vn -0.1719 0.7029 -0.6902
vn -0.1275 -0.5971 -0.7919
vn 0.4939 -0.8679 0.0531
vn -0.2858 -0.9050 -0.3150
vn 0.1242 -0.6065 -0.7853
vn -0.4882 -0.8715 0.0463
vn 0.2880 -0.9035 -0.3175
vn 0.4715 0.8779 0.0838
vn -0.4777 0.8742 0.0872
vn 0.0893 -0.2397 -0.9667
vn 0.6897 0.4637 0.5561
vn -0.0914 -0.2396 -0.9666
vn -0.7770 -0.3915 0.4930
vn 0.6347 0.4859 -0.6009
vn -0.6345 0.4820 -0.6043
vn -0.4944 -0.4885 -0.7189
vn 0.1699 0.2652 -0.9491
vn 0.0908 0.9098 0.4051
vn 0.4907 -0.4831 -0.7251
vn -0.1263 0.9065 0.4028
vn -0.1812 0.2574 -0.9492
vn 0.3464 -0.9104 0.2264
vn 0.2725 -0.1925 -0.9427
vn -0.2654 -0.2035 -0.9424
vn -0.3303 -0.9166 0.2253
vn 0.2230 0.1579 -0.9620
vn 0.3741 -0.0567 -0.9256
vn 0.7854 -0.3821 0.4869
vn -0.1608 -0.0056 -0.9870
vn -0.2303 0.1583 -0.9602
vn -0.3744 -0.0568 -0.9255
vn -0.6887 0.4527 0.5664
vn 0.1619 -0.0109 -0.9867
vn -0.0005 0.9250 -0.3800
vn 0.7499 -0.1982 -0.6311
vn -0.7555 -0.1987 -0.6243
vn 0.7611 -0.4606 -0.4567
vn 0.8352 0.0186 -0.5496
vn -0.0691 0.7501 -0.6576
vn -0.7597 -0.4619 -0.4577
vn 0.0096 -0.4901 -0.8716
vn -0.0010 -0.9576 -0.2882
vn 0.2606 0.4906 -0.8315
vn -0.2651 0.4953 -0.8273
vn 0.0721 0.7409 -0.6677
vn -0.8348 0.0141 -0.5504
vn -0.0034 0.0681 -0.9977
vn 0.8241 0.5251 -0.2124
vn 0.3991 0.9146 0.0657
vn -0.8869 0.4480 -0.1124
vn -0.6981 -0.7051 0.1240
vn 0.7620 -0.5975 -0.2496
vn 0.9732 0.2139 0.0846
vn 0.5312 0.7400 -0.4125
vn -0.8070 -0.5664 -0.1669
vn 0.1999 -0.8074 0.5551
vn -0.9930 -0.1092 0.0449
vn -0.7767 -0.5838 -0.2366
vn -0.7867 0.5629 -0.2536
vn -0.7408 -0.1009 -0.6641
vn -0.7671 -0.6299 0.1215
vn 0.4705 -0.4148 -0.7788
vn 0.7856 -0.0709 -0.6146
vn 0.1323 -0.9827 0.1296
vn -0.3135 0.9157 -0.2514
vn -0.9837 0.1643 -0.0737
vn -0.2136 -0.9108 0.3533
vn -0.7389 -0.6720 0.0496
vn 0.4548 0.4672 -0.7582
vn -0.7390 0.6710 0.0603
vn -0.2544 -0.9542 0.1573
vn -0.7059 0.6584 -0.2613
vn 0.1296 0.9896 0.0632
vn 0.8384 0.5339 0.1100
vn 0.7407 -0.6437 -0.1922
vn -0.8495 -0.4705 -0.2387
vn -0.3071 0.8587 0.4103
vn 0.4990 0.7098 0.4973
vn -0.7973 -0.5053 0.3300
vn -0.9333 -0.3264 0.1500
vn 0.9842 -0.1280 -0.1221
vn 0.7829 -0.5578 -0.2755
vn 0.7762 0.5981 -0.1994
vn 0.7407 -0.1008 -0.6642
vn 0.7331 -0.6793 -0.0337
vn -0.3261 -0.4412 -0.8361
vn -0.7849 -0.0724 -0.6154
vn -0.5912 -0.7985 0.1135
vn 0.3088 0.9430 0.1241
vn 0.9855 0.1680 0.0234
vn 0.2600 -0.9099 -0.3233
vn -0.7427 -0.6671 0.0586
vn -0.5461 0.4422 -0.7115
vn 0.7355 0.6354 0.2353
vn 0.2410 -0.9478 -0.2090
vn 0.6938 0.5704 -0.4396
vn 0.0230 0.9680 -0.2498
vn -0.3147 -0.8046 0.5036
vn 0.7654 -0.3517 0.5389
vn 0.8201 0.5680 -0.0700
vn 0.1726 0.9547 -0.2425
vn 0.1898 -0.9625 0.1936
vn 0.7026 -0.6652 0.2527
vn 0.5262 0.6271 0.5744
vn 0.5402 -0.4852 0.6875
vn -0.8874 -0.2706 0.3732
vn -0.8844 0.2246 0.4091
vn -0.9960 0.0349 -0.0829
vn 0.1365 -0.0785 0.9875
vn 0.2555 0.8687 -0.4244
vn -0.8542 -0.0086 0.5199
vn -0.9822 0.0809 0.1693
vn 0.1430 0.9896 0.0153
vn 0.1167 -0.8390 0.5315
vn 0.6674 -0.5368 0.5161
vn 0.7554 0.5970 0.2702
vn -0.0104 0.9768 0.2138
vn -0.9457 0.0020 0.3249
vn 0.0569 -0.8014 0.5954
vn 0.4797 -0.6086 0.6321
vn 0.6589 0.6722 0.3378
vn -0.9641 0.2192 -0.1501
vn -0.9990 0.0164 -0.0413
vn -0.8576 0.4858 -0.1688
vn -0.9159 -0.3873 0.1053
vn 0.0193 -0.7617 0.6477
vn 0.0215 0.9501 0.3112
vn -0.4408 -0.0757 0.8944
vn -0.8910 0.4501 0.0587
vn -0.9093 -0.3437 0.2348
vn -0.9120 0.3899 0.1271
vn -0.8791 -0.2845 0.3824
vn -0.1910 0.9812 0.0284
vn 0.5403 0.8298 0.1400
vn -0.6084 -0.5933 -0.5272
vn -0.9643 -0.2585 -0.0567
vn -0.2488 0.8248 0.5077
vn 0.7403 0.5499 0.3868
vn -0.1696 -0.8637 -0.4746
vn -0.7458 -0.5978 -0.2939
vn -0.5429 0.3677 0.7550
vn -0.5275 -0.7150 0.4588
vn -0.0075 -0.9852 0.1711
vn -0.0248 0.6870 0.7262
vn 0.9966 0.0697 -0.0435
vn 0.4596 -0.1077 0.8815
vn 0.5982 0.7821 -0.1747
vn 0.8573 -0.0770 0.5090
vn -0.1236 -0.9917 -0.0360
vn -0.7102 -0.6723 0.2090
vn -0.7294 0.4063 0.5504
vn 0.8525 0.4392 0.2835
vn 0.9776 0.0236 0.2092
vn -0.0007 0.7184 0.6956
vn 0.9447 -0.0003 0.3280
vn 0.9415 -0.3136 0.1231
vn -0.6000 -0.7813 0.1718
vn -0.5351 0.4708 0.7014
vn 0.9829 0.1838 -0.0123
vn 0.9877 -0.0071 -0.1562
vn 0.8499 0.4778 0.2222
vn 0.8993 -0.3869 -0.2041
vn 0.8859 -0.2913 0.3609
vn 0.8676 0.2323 0.4397
vn -0.1251 -0.1659 0.9782
vn 0.9342 -0.3410 0.1053
vn -0.1498 0.8123 0.5637
vn 0.8261 0.3432 0.4469
vn -0.0651 -0.9963 0.0567
vn -0.0002 0.8936 0.4488
vn 0.5976 0.0707 0.7986
vn 0.8904 0.4061 0.2053
vn 0.8397 0.5340 -0.0985
vn 0.6684 -0.7129 -0.2122
vn 0.8214 -0.5640 0.0852
vn 0.6838 -0.7177 0.1316
vn -0.3014 0.5786 -0.7578
vn 0.7861 -0.6133 0.0769
vn -0.0002 0.7490 0.6626
vn -0.7145 0.4877 0.5016
vn -0.5974 0.0703 0.7989
vn -0.4215 0.6523 0.6300
vn -0.4684 0.8753 -0.1202
vn -0.6818 -0.6997 -0.2137
vn -0.8209 -0.5652 0.0820
vn -0.6872 -0.7149 0.1289
vn -0.7845 -0.6153 0.0777
vn -0.8580 0.2036 0.4716
vn 0.9031 -0.4067 -0.1377
vn -0.9038 -0.4041 -0.1408
vn -0.9856 0.1613 -0.0513
vn 0.9894 0.1306 -0.0640
vn -0.9819 -0.1894 -0.0092
vn 0.9817 -0.1906 0.0030
vn -0.9620 0.2602 0.0828
vn 0.9629 0.2564 0.0843
vn 0.7200 -0.6889 0.0831
vn -0.7201 -0.6890 0.0822
vn -0.4409 -0.8975 -0.0090
vn 0.0001 -0.9966 -0.0829
vn 0.4437 -0.8961 -0.0090
vn 0.5098 -0.8239 0.2474
vn -0.5116 -0.8229 0.2472
vn -0.3997 -0.5219 0.7535
vn 0.4003 -0.5213 0.7537
vn 0.6294 0.4176 -0.6553
vn -0.9351 0.2512 -0.2500
vn 0.9330 0.2590 -0.2496
vn 0.6716 0.1034 -0.7336
vn -0.8413 -0.2856 -0.4589
vn 0.4067 -0.7625 -0.5032
vn -0.4162 -0.7587 -0.5011
vn -0.6810 0.0847 -0.7274
vn 0.8390 -0.2848 -0.4636
vn -0.6086 -0.7380 0.2915
vn 0.6110 -0.7356 0.2924
vn 0.0022 -0.7881 0.6156
vn -0.2382 0.0263 -0.9709
vn 0.4639 0.0005 -0.8859
vn -0.8184 -0.5358 0.2077
vn 0.8187 -0.5352 0.2081
vn 0.0007 -0.3273 0.9449
vn 0.0002 -0.9982 -0.0606
vn 0.5417 -0.7351 -0.4076
vn -0.5431 -0.7348 -0.4063
vn 0.8973 -0.4279 0.1085
vn -0.0005 0.6551 0.7556
vn -0.0010 0.9927 -0.1202
vn 0.9686 -0.1279 0.2134
vn -0.0015 0.6491 -0.7607
vn -0.0030 0.0523 -0.9986
vn -0.6504 0.6271 0.4286
vn 0.8367 0.5164 0.1826
vn 0.5903 -0.7284 -0.3477
vn -0.5497 -0.8019 -0.2342
vn -0.7273 0.4041 0.5547
vn 0.6367 0.7140 0.2912
vn 0.4345 -0.3220 -0.8412
vn -0.6282 -0.4333 -0.6463
vn -0.8363 -0.0220 0.5478
vn -0.3181 0.0643 -0.9459
vn -0.4275 -0.8915 0.1499
vn -0.1979 -0.7809 0.5925
vn 0.5193 0.8434 -0.1381
vn -0.6862 0.6812 -0.2551
vn -0.7730 -0.6144 0.1577
vn 0.6646 -0.6596 0.3511
vn 0.4328 0.8991 -0.0652
vn -0.7112 0.3222 -0.6247
vn -0.7539 -0.6369 0.1616
vn 0.5540 -0.7441 0.3733
vn -0.5655 -0.0904 -0.8197
vn -0.3644 -0.1112 0.9246
vn -0.0770 -0.7644 0.6401
vn 0.2040 -0.9789 0.0081
vt 0.624136 0.361807
vt 0.667858 0.369399
vt 0.627467 0.354699
vt 0.664052 0.363587
vt 0.916647 0.387918
vt 0.974697 0.466742
vt 0.917729 0.506302
vt 0.964014 0.369480
vt 0.915657 0.293829
vt 0.953447 0.321265
vt 0.915564 0.369533
vt 0.880112 0.321250
vt 0.873013 0.369372
vt 0.546330 0.354937
vt 0.593848 0.355018
vt 0.553430 0.321162
vt 0.956404 0.346710
vt 0.594635 0.315496
vt 0.583578 0.252920
vt 0.603761 0.098795
vt 0.562151 0.098766
vt 0.864226 0.098877
vt 0.899897 0.098864
vt 0.624645 0.315433
vt 0.657289 0.321178
vt 0.638860 0.252390
vt 0.646365 0.098766
vt 0.616618 0.098797
vt 0.954362 0.098877
vt 0.609100 0.251464
vt 0.916154 0.280807
vt 0.646230 0.087795
vt 0.620206 0.047921
vt 0.616895 0.086884
vt 0.654109 0.060614
vt 0.866598 0.075244
vt 0.962104 0.060729
vt 0.899354 0.088360
vt 0.864117 0.057069
vt 0.967775 0.053328
vt 0.606629 0.008905
vt 0.602248 0.012833
vt 0.599975 0.038708
vt 0.564523 0.075130
vt 0.597811 0.047920
vt 0.562041 0.056953
vt 0.603639 0.086882
vt 0.562286 0.087795
vt 0.613748 0.009018
vt 0.607915 0.009017
vt 0.617567 0.038710
vt 0.662090 0.004765
vt 0.624517 0.012833
vt 0.659780 0.053212
vt 0.559455 0.004765
vt 0.616663 0.009004
vt 0.928159 0.030371
vt 0.970085 0.004883
vt 0.947600 0.045394
vt 0.875936 0.047633
vt 0.892784 0.031105
vt 0.928929 0.021607
vt 0.891606 0.021607
vt 0.861531 0.004883
vt 0.864361 0.087907
vt 0.954226 0.087907
vt 0.611025 0.573719
vt 0.668647 0.596716
vt 0.667989 0.466670
vt 0.580805 0.559471
vt 0.551780 0.548488
vt 0.582814 0.361543
vt 0.925045 0.594277
vt 0.962743 0.596774
vt 0.924803 0.605521
vt 0.873397 0.565982
vt 0.388185 0.369595
vt 0.387814 0.466852
vt 0.445111 0.361660
vt 0.397438 0.321180
vt 0.395461 0.346724
vt 0.436898 0.354682
vt 0.485293 0.361392
vt 0.791678 0.388063
vt 0.738544 0.369676
vt 0.793287 0.369568
vt 0.825861 0.321249
vt 0.832532 0.369373
vt 0.793289 0.293854
vt 0.745819 0.346809
vt 0.748446 0.321267
vt 0.499172 0.321162
vt 0.469470 0.355000
vt 0.505844 0.354938
vt 0.733141 0.466924
vt 0.742182 0.363817
vt 0.468035 0.315541
vt 0.479041 0.253121
vt 0.491624 0.098840
vt 0.459582 0.098868
vt 0.845198 0.098951
vt 0.806484 0.098938
vt 0.439043 0.315479
vt 0.424286 0.252598
vt 0.446728 0.098870
vt 0.405588 0.098840
vt 0.750052 0.098951
vt 0.453762 0.251769
vt 0.792781 0.280743
vt 0.842697 0.075271
vt 0.742185 0.060757
vt 0.845223 0.057033
vt 0.397720 0.060641
vt 0.443024 0.048035
vt 0.392091 0.053176
vt 0.449683 0.009117
vt 0.445439 0.038817
vt 0.463603 0.038815
vt 0.465419 0.048034
vt 0.405586 0.087886
vt 0.446434 0.086976
vt 0.806989 0.088452
vt 0.461629 0.012932
vt 0.457340 0.009004
vt 0.459687 0.086974
vt 0.491343 0.087886
vt 0.489122 0.075158
vt 0.438385 0.012932
vt 0.389540 0.004864
vt 0.494205 0.004864
vt 0.491649 0.056917
vt 0.446847 0.009104
vt 0.456092 0.009116
vt 0.761082 0.045358
vt 0.736556 0.053292
vt 0.734005 0.004982
vt 0.783443 0.030335
vt 0.782205 0.021707
vt 0.813805 0.031069
vt 0.814515 0.021706
vt 0.847780 0.004982
vt 0.830868 0.047596
vt 0.750050 0.087998
vt 0.844918 0.087998
vt 0.391699 0.596739
vt 0.442910 0.573594
vt 0.501115 0.548207
vt 0.781010 0.594371
vt 0.832918 0.565185
vt 0.780363 0.605527
vt 0.473325 0.559194
vt 0.743749 0.596797
vt 0.790068 0.506558
vt 0.526082 0.635503
vt 0.473006 0.673259
vt 0.526953 0.673268
vt 0.526781 0.591071
vt 0.584055 0.635500
vt 0.585953 0.588365
vt 0.468194 0.635494
vt 0.445889 0.647916
vt 0.418988 0.675185
vt 0.440468 0.592342
vt 0.467602 0.588358
vt 0.580900 0.673263
vt 0.608457 0.648153
vt 0.634394 0.675190
vt 0.677685 0.684614
vt 0.676084 0.650215
vt 0.612677 0.592287
vt 0.813510 0.605516
vt 0.377632 0.650209
vt 0.968759 0.650267
vt 0.902835 0.647627
vt 0.852842 0.684653
vt 0.803549 0.647628
vt 0.737267 0.650261
vt 0.915567 0.684663
vt 0.374713 0.684624
vt 0.789188 0.684672
vt 0.893419 0.605512
vt 0.497185 0.567794
vt 0.555251 0.567786
vt 0.567426 0.703060
vt 0.602800 0.738185
vt 0.654973 0.735590
vt 0.485443 0.703227
vt 0.394787 0.735945
vt 0.454350 0.738393
vt 0.410556 0.701802
vt 0.642133 0.701706
vt 0.526430 0.703150
vt 0.526329 0.738296
vt 0.911627 0.732717
vt 0.955962 0.735633
vt 0.750331 0.735988
vt 0.793126 0.732718
vt 0.852829 0.731273
vt 0.955920 0.701752
vt 0.749343 0.701848
vt 0.733444 0.815198
vt 0.974594 0.815198
vt 0.792864 0.780228
vt 0.911860 0.780228
vt 0.852829 0.793470
vt 0.388335 0.815164
vt 0.430251 0.843723
vt 0.661507 0.815163
vt 0.627136 0.843722
vt 0.526276 0.848259
vt 0.853076 0.823601
vt 0.834304 0.904770
vt 0.793230 0.825225
vt 0.786916 0.928209
vt 0.738049 0.927694
vt 0.792543 0.800907
vt 0.761628 0.820209
vt 0.872140 0.904757
vt 0.954478 0.871794
vt 0.946636 0.901878
vt 0.919720 0.928145
vt 0.968248 0.927683
vt 0.915200 0.825224
vt 0.914294 0.800907
vt 0.951290 0.820209
vt 0.852815 0.802532
vt 0.751415 0.871716
vt 0.978348 0.866526
vt 0.394005 0.866515
vt 0.410735 0.872230
vt 0.645703 0.872281
vt 0.526878 0.932884
vt 0.655595 0.908404
vt 0.395439 0.908486
vt 0.490228 0.928187
vt 0.759652 0.901892
vt 0.388616 0.932784
vt 0.563037 0.928122
vt 0.875714 0.983251
vt 0.853458 0.976551
vt 0.787257 0.993394
vt 0.831202 0.983252
vt 0.543186 0.993198
vt 0.510570 0.993379
vt 0.919869 0.993214
vt 0.853002 0.996329
vt 0.526316 0.996314
vt 0.729197 0.866544
vt 0.662375 0.932772
vt 0.657375 0.866497
vt 0.071285 0.180143
vt 0.036094 0.189931
vt 0.042593 0.245511
vt 0.084474 0.245232
vt 0.116779 0.181681
vt 0.127182 0.240636
vt 0.135515 0.197564
vt 0.148751 0.240023
vt 0.126919 0.106168
vt 0.108224 0.097678
vt 0.122620 0.090470
vt 0.103947 0.085676
vt 0.073491 0.098917
vt 0.074594 0.088305
vt 0.046248 0.104344
vt 0.051324 0.091551
vt 0.262778 0.199521
vt 0.299052 0.197564
vt 0.302288 0.240023
vt 0.236130 0.245511
vt 0.219631 0.189931
vt 0.229938 0.058758
vt 0.250899 0.056765
vt 0.253869 0.092454
vt 0.224785 0.104344
vt 0.256838 0.108143
vt 0.285456 0.106168
vt 0.056401 0.058758
vt 0.075697 0.057692
vt 0.087064 0.050098
vt 0.271860 0.054772
vt 0.250601 0.050098
vt 0.099669 0.053674
vt 0.118322 0.054772
vt 0.035893 0.287598
vt 0.035798 0.416405
vt 0.085262 0.256035
vt 0.166599 0.408857
vt 0.128464 0.259442
vt 0.134544 0.420050
vt 0.149986 0.260523
vt 0.320137 0.408857
vt 0.288611 0.408890
vt 0.303523 0.260523
vt 0.245509 0.411417
vt 0.229430 0.287598
vt 0.238075 0.256042
vt 0.080592 0.419959
vt 0.044538 0.256042
vt 0.290940 0.447897
vt 0.167686 0.451250
vt 0.107755 0.469958
vt 0.164569 0.484612
vt 0.269784 0.468228
vt 0.296806 0.496347
vt 0.251515 0.447485
vt 0.275580 0.500384
vt 0.221087 0.480500
vt 0.218768 0.450097
vt 0.251590 0.502419
vt 0.035231 0.450097
vt 0.104594 0.426510
vt 0.037550 0.480500
vt 0.332913 0.451250
vt 0.219336 0.416405
vt 0.140357 0.245815
vt 0.071732 0.862433
vt 0.044354 0.797033
vt 0.036472 0.852559
vt 0.086289 0.797401
vt 0.117227 0.860834
vt 0.127494 0.801933
vt 0.135883 0.844841
vt 0.149019 0.802466
vt 0.108745 0.944846
vt 0.118886 0.987717
vt 0.123135 0.951998
vt 0.100263 0.988859
vt 0.074009 0.943655
vt 0.104504 0.956853
vt 0.076285 0.984877
vt 0.046716 0.938161
vt 0.075147 0.954266
vt 0.056960 0.983764
vt 0.263117 0.842877
vt 0.302556 0.802466
vt 0.299420 0.844840
vt 0.237891 0.797032
vt 0.220010 0.852559
vt 0.251460 0.985740
vt 0.254374 0.950024
vt 0.272423 0.987717
vt 0.257288 0.934308
vt 0.225253 0.938161
vt 0.285922 0.936278
vt 0.250800 0.992427
vt 0.230497 0.983764
vt 0.087262 0.992427
vt 0.036143 0.754934
vt 0.087006 0.786451
vt 0.035874 0.626148
vt 0.080679 0.622612
vt 0.134629 0.622450
vt 0.130214 0.783001
vt 0.166671 0.633583
vt 0.151686 0.781836
vt 0.320208 0.633583
vt 0.305223 0.781836
vt 0.288642 0.633497
vt 0.239766 0.786360
vt 0.245546 0.631050
vt 0.229681 0.754933
vt 0.046229 0.786360
vt 0.218756 0.592476
vt 0.251473 0.594956
vt 0.167669 0.591231
vt 0.107855 0.573020
vt 0.035219 0.592476
vt 0.290891 0.594483
vt 0.332895 0.591230
vt 0.269729 0.574190
vt 0.104688 0.616045
vt 0.038181 0.563169
vt 0.251595 0.540080
vt 0.275651 0.542085
vt 0.296808 0.546083
vt 0.337267 0.557422
vt 0.219411 0.626148
vt 0.141363 0.796655
vt 0.164735 0.557422
vt 0.221719 0.563169
vt 0.337101 0.484611
vt 0.391823 0.363734
vt 0.660247 0.346625
vt 0.960209 0.363670
vt 0.278658 0.090470
vt 0.227875 0.950962
vt 0.051838 0.950962
vt 0.127384 0.936279
vt 0.279172 0.951997
vt 0.227362 0.091551
vt 0.938413 0.320310
vt 0.830265 0.497856
vt 0.942419 0.690015
vt 0.627652 0.473884
vt 0.734651 0.508283
vt 0.621329 0.357031
vt 0.235833 0.266289
vt -0.235635 0.266573
vt -0.061587 0.320310
vt 0.601993 0.196210
vt 0.764365 0.266573
vt 0.628582 0.061049
vt 0.057484 0.689247
vt 0.169085 0.496734
vt 0.061430 0.320114
vt 0.265656 0.507981
vt 0.379721 0.356787
vt 0.240543 0.147650
vt 0.399213 0.196035
vt 0.472153 0.297458
vt 0.462197 0.015059
vt -0.240482 0.147917
vt -0.057581 0.690015
vt 0.839241 0.779573
vt 0.797193 0.905814
vt 0.948262 0.925980
vt 0.053160 0.925627
vt -0.051738 0.925980
vt 0.690332 0.874588
vt 0.749775 0.984953
vt 0.353919 0.704642
vt 0.161199 0.781234
vt 0.803209 0.469970
vt 0.310715 0.871259
vt 0.648084 0.702123
vt 0.606354 0.543926
vt 0.500470 0.556624
vt 0.596297 0.734192
vt 0.196337 0.467544
vt 0.373200 0.473619
vt 0.394546 0.543687
vt 0.376578 0.797406
vt 0.500011 0.766191
vt 0.404909 0.735421
vt 0.759518 0.147917
vt 0.372873 0.060910
vt 0.493154 0.298022
vt 0.486349 0.487427
vt 0.462417 0.473540
vt 0.500519 0.262368
vt 0.538969 0.015147
vt 0.515076 0.487462
vt 0.507467 0.298055
vt 0.539083 0.473649
vt 0.528980 0.297526
vt 0.500406 0.271252
vt -0.250225 0.984953
vt 0.203007 0.902178
vt 0.459962 0.940526
vt 0.539513 0.941268
vt 0.249624 0.984415
vt 0.623510 0.797373
vt 0.200000 0.400000
vt 0.250000 0.400000
vt 0.250000 0.300000
vt 0.200000 0.300000
vt 0.250000 0.350000
vt 0.250000 0.250000
vt 0.200000 0.350000
vt 0.200000 0.250000
vt 0.180000 0.220000
vt 0.200000 0.150000
vt 0.230000 0.150000
vt 0.260000 0.150000
s 1
usemtl npc_kru_kuro_mat.001
f 20/1/20 3/2/3 2/3/2
f 3/2/3 17/4/17 2/3/2
f 18/5/18 4/6/4 5/7/5
f 23/8/23 4/6/4 18/5/18
f 41/9/41 39/10/39 6/11/6
f 40/12/40 6/11/6 7/13/7
f 41/9/41 6/11/6 40/12/40
f 28/14/28 1/15/1 54/16/54
f 39/10/39 16/17/16 6/11/6
f 42/18/42 43/19/43 54/16/54
f 43/19/43 44/20/44 45/21/45
f 54/16/54 43/19/43 45/21/45
f 55/22/55 46/23/46 40/12/40
f 47/24/47 53/25/53 48/26/48
f 48/26/48 50/27/50 49/28/49
f 53/25/53 50/27/50 48/26/48
f 56/29/56 39/10/39 46/23/46
f 52/30/52 47/24/47 48/26/48
f 47/24/47 52/30/52 42/18/42
f 49/28/49 52/30/52 48/26/48
f 44/20/44 52/30/52 49/28/49
f 46/23/46 39/10/39 51/31/51
f 40/12/40 46/23/46 51/31/51
f 43/19/43 42/18/42 52/30/52
f 44/20/44 43/19/43 52/30/52
f 59/32/59 57/33/57 60/34/60
f 71/35/71 57/33/57 59/32/59
f 72/36/72 85/37/85 70/38/70
f 63/39/63 61/40/61 85/37/85
f 75/41/75 68/42/68 76/43/76
f 86/44/86 66/45/66 81/46/81
f 69/47/69 66/45/66 64/48/64
f 58/49/58 65/50/65 76/43/76
f 66/45/66 57/33/57 77/51/77
f 60/34/60 57/33/57 66/45/66
f 67/52/67 73/53/73 79/54/79
f 67/52/67 62/55/62 68/42/68
f 62/55/62 81/46/81 68/42/68
f 79/54/79 73/53/73 57/33/57
f 84/42/84 89/41/89 74/56/74
f 66/45/66 68/42/68 81/46/81
f 75/41/75 58/49/58 88/56/88
f 91/57/91 83/58/83 94/59/94
f 95/60/95 94/59/94 63/39/63
f 95/60/95 91/57/91 94/59/94
f 93/61/93 90/62/90 91/57/91
f 92/63/92 90/62/90 93/61/93
f 80/64/80 92/63/92 93/61/93
f 95/60/95 80/64/80 93/61/93
f 90/62/90 92/63/92 80/64/80
f 94/59/94 83/58/83 61/40/61
f 90/62/90 80/64/80 83/58/83
f 60/34/60 66/45/66 69/47/69
f 72/36/72 70/38/70 82/65/82
f 90/62/90 83/58/83 91/57/91
f 94/59/94 61/40/61 63/39/63
f 93/61/93 91/57/91 95/60/95
f 63/39/63 80/64/80 95/60/95
f 82/65/82 46/23/46 55/22/55
f 82/65/82 70/38/70 46/23/46
f 64/48/64 45/21/45 44/20/44
f 69/47/69 64/48/64 44/20/44
f 78/66/78 56/29/56 46/23/46
f 70/38/70 78/66/78 46/23/46
f 49/28/49 50/27/50 59/32/59
f 60/34/60 49/28/49 59/32/59
f 44/20/44 49/28/49 60/34/60
f 69/47/69 44/20/44 60/34/60
f 51/31/51 41/9/41 40/12/40
f 51/31/51 39/10/39 41/9/41
f 54/16/54 1/15/1 42/18/42
f 47/24/47 22/3/22 53/25/53
f 1/15/1 22/3/22 47/24/47
f 42/18/42 1/15/1 47/24/47
f 8/67/8 9/68/9 26/69/26
f 24/2/24 38/1/38 26/69/26
f 10/70/10 38/1/38 97/71/97
f 2/3/2 21/15/21 19/72/19
f 5/7/5 4/6/4 15/73/15
f 8/67/8 26/69/26 38/1/38
f 31/74/31 11/75/11 15/73/15
f 15/73/15 96/76/96 5/7/5
f 116/77/116 117/78/117 133/79/133
f 152/80/152 129/81/129 115/82/115
f 132/83/132 135/82/135 151/79/151
f 131/84/131 136/85/136 118/86/118
f 153/87/153 119/88/119 140/86/140
f 153/87/153 140/86/140 154/89/154
f 145/90/145 166/91/166 140/86/140
f 167/92/167 114/93/114 141/94/141
f 137/85/137 149/84/149 139/95/139
f 136/85/136 130/96/130 118/86/118
f 155/97/155 167/92/167 156/98/156
f 156/98/156 158/99/158 157/100/157
f 167/92/167 158/99/158 156/98/156
f 168/101/168 153/87/153 159/102/159
f 160/103/160 161/104/161 152/80/152
f 161/104/161 162/105/162 163/106/163
f 152/80/152 161/104/161 163/106/163
f 169/107/169 159/102/159 166/91/166
f 165/108/165 161/104/161 160/103/160
f 160/103/160 155/97/155 165/108/165
f 162/105/162 161/104/161 165/108/165
f 157/100/157 162/105/162 165/108/165
f 159/102/159 164/109/164 166/91/166
f 153/87/153 164/109/164 159/102/159
f 156/98/156 165/108/165 155/97/155
f 157/100/157 165/108/165 156/98/156
f 185/110/185 184/111/184 172/112/172
f 198/113/198 170/114/170 175/115/175
f 171/116/171 190/117/190 189/118/189
f 179/119/179 189/118/189 190/117/190
f 173/120/173 174/121/174 170/114/170
f 174/121/174 179/119/179 170/114/170
f 184/111/184 185/110/185 182/122/182
f 189/118/189 181/123/181 188/124/188
f 174/121/174 183/125/183 179/119/179
f 179/119/179 177/126/177 199/127/199
f 186/128/186 175/115/175 170/114/170
f 180/129/180 181/123/181 176/130/176
f 176/130/176 181/123/181 191/131/191
f 187/132/187 186/128/186 190/117/190
f 181/123/181 180/129/180 186/128/186
f 179/119/179 191/131/191 181/123/181
f 178/133/178 188/124/188 171/116/171
f 207/134/207 172/112/172 193/135/193
f 196/136/196 204/137/204 207/134/207
f 203/138/203 206/139/206 204/137/204
f 206/139/206 203/138/203 205/140/205
f 194/141/194 206/139/206 205/140/205
f 208/142/208 194/141/194 172/112/172
f 206/139/206 208/142/208 204/137/204
f 194/141/194 205/140/205 203/138/203
f 203/138/203 204/137/204 196/136/196
f 203/138/203 196/136/196 194/141/194
f 184/111/184 182/122/182 192/143/192
f 183/125/183 177/126/177 179/119/179
f 204/137/204 208/142/208 207/134/207
f 196/136/196 207/134/207 193/135/193
f 206/139/206 194/141/194 208/142/208
f 208/142/208 172/112/172 207/134/207
f 173/120/173 162/105/162 174/121/174
f 173/120/173 163/106/163 162/105/162
f 159/102/159 169/107/169 192/143/192
f 182/122/182 159/102/159 192/143/192
f 195/144/195 159/102/159 182/122/182
f 195/144/195 168/101/168 159/102/159
f 157/100/157 158/99/158 177/126/177
f 183/125/183 157/100/157 177/126/177
f 174/121/174 157/100/157 183/125/183
f 174/121/174 162/105/162 157/100/157
f 164/109/164 154/89/154 166/91/166
f 164/109/164 153/87/153 154/89/154
f 152/80/152 115/82/115 160/103/160
f 155/97/155 114/93/114 167/92/167
f 115/82/115 114/93/114 155/97/155
f 160/103/160 115/82/115 155/97/155
f 117/78/117 122/145/122 121/146/121
f 133/79/133 117/78/117 121/146/121
f 133/79/133 99/147/99 150/83/150
f 128/148/128 98/149/98 124/150/124
f 121/146/121 123/151/123 133/79/133
f 144/152/144 139/95/139 128/148/128
f 98/149/98 128/148/128 120/153/120
f 111/154/111 209/155/209 228/156/228
f 110/157/110 100/158/100 12/159/12
f 111/154/111 110/157/110 101/160/101
f 102/161/102 210/162/210 209/155/209
f 101/160/101 102/161/102 209/155/209
f 102/161/102 101/160/101 126/163/126
f 126/163/126 101/160/101 125/164/125
f 100/158/100 111/154/111 212/165/212
f 103/166/103 212/165/212 213/167/213
f 100/158/100 212/165/212 103/166/103
f 211/168/211 104/169/104 213/167/213
f 103/166/103 13/170/13 100/158/100
f 13/170/13 12/159/12 100/158/100
f 98/149/98 96/76/96 127/171/127
f 102/161/102 105/172/105 210/162/210
f 122/145/122 105/172/105 102/161/102
f 122/145/122 102/161/102 126/163/126
f 31/74/31 112/173/112 11/75/11
f 107/174/107 229/175/229 106/176/106
f 104/169/104 103/166/103 213/167/213
f 9/68/9 13/170/13 103/166/103
f 107/174/107 106/176/106 127/171/127
f 124/150/124 106/176/106 113/177/113
f 112/173/112 230/178/230 107/174/107
f 9/68/9 103/166/103 104/169/104
f 105/172/105 214/179/214 210/162/210
f 124/150/124 113/177/113 144/152/144
f 230/178/230 229/175/229 107/174/107
f 112/173/112 107/174/107 11/75/11
f 127/171/127 106/176/106 124/150/124
f 106/176/106 231/180/231 113/177/113
f 11/75/11 14/181/14 96/76/96
f 109/182/109 125/164/125 110/157/110
f 125/164/125 101/160/101 110/157/110
f 12/159/12 108/183/108 110/157/110
f 126/163/126 121/146/121 122/145/122
f 126/163/126 125/164/125 121/146/121
f 125/164/125 123/151/123 121/146/121
f 125/164/125 109/182/109 123/151/123
f 109/182/109 99/147/99 123/151/123
f 108/183/108 10/70/10 97/71/97
f 12/159/12 10/70/10 108/183/108
f 12/159/12 13/170/13 8/67/8
f 12/159/12 8/67/8 10/70/10
f 8/67/8 13/170/13 9/68/9
f 218/184/218 217/185/217 216/186/216
f 220/187/220 215/188/215 219/189/219
f 215/188/215 220/187/220 222/190/222
f 216/186/216 221/191/221 218/184/218
f 218/184/218 227/192/227 226/193/226
f 220/187/220 219/189/219 226/193/226
f 223/194/223 230/178/230 233/195/233
f 232/196/232 231/180/231 224/197/224
f 230/178/230 223/194/223 225/198/225
f 231/180/231 229/175/229 225/198/225
f 230/178/230 234/199/234 233/195/233
f 231/180/231 232/196/232 235/200/235
f 214/179/214 222/190/222 210/162/210
f 220/187/220 209/155/209 210/162/210
f 222/190/222 220/187/220 210/162/210
f 213/167/213 221/191/221 211/168/211
f 212/165/212 218/184/218 213/167/213
f 218/184/218 221/191/221 213/167/213
f 227/192/227 212/165/212 228/156/228
f 209/155/209 220/187/220 227/192/227
f 231/180/231 225/198/225 224/197/224
f 224/197/224 236/201/236 232/196/232
f 223/194/223 233/195/233 237/202/237
f 225/198/225 238/203/238 224/197/224
f 223/194/223 237/202/237 239/204/239
f 225/198/225 239/204/239 240/205/240
f 224/197/224 238/203/238 236/201/236
f 225/198/225 223/194/223 239/204/239
f 225/198/225 240/205/240 238/203/238
f 249/206/249 251/207/251 219/189/219
f 215/188/215 249/206/249 219/189/219
f 250/208/250 217/185/217 252/209/252
f 216/186/216 217/185/217 250/208/250
f 219/189/219 251/207/251 253/210/253
f 217/185/217 226/193/226 253/210/253
f 217/185/217 253/210/253 252/209/252
f 247/211/247 261/212/261 244/213/244
f 261/212/261 289/214/289 264/215/264
f 241/216/241 246/217/246 238/203/238
f 258/218/258 260/219/260 256/220/256
f 290/221/290 258/218/258 266/222/266
f 243/223/243 242/224/242 245/225/245
f 242/224/242 247/211/247 248/226/248
f 248/226/248 240/205/240 242/224/242
f 240/205/240 241/216/241 238/203/238
f 242/224/242 239/204/239 245/225/245
f 244/213/244 261/212/261 257/227/257
f 246/217/246 244/213/244 257/227/257
f 260/219/260 243/223/243 245/225/245
f 260/219/260 237/202/237 267/228/267
f 239/204/239 242/224/242 240/205/240
f 258/218/258 261/212/261 247/211/247
f 258/218/258 243/223/243 260/219/260
f 246/217/246 241/216/241 244/213/244
f 241/216/241 248/226/248 247/211/247
f 265/229/265 262/230/262 249/206/249
f 263/231/263 250/208/250 252/209/252
f 251/207/251 262/230/262 253/210/253
f 262/230/262 288/232/288 253/210/253
f 263/231/263 288/232/288 255/233/255
f 263/231/263 253/210/253 288/232/288
f 239/204/239 237/202/237 245/225/245
f 237/202/237 260/219/260 245/225/245
f 236/201/236 246/217/246 257/227/257
f 238/203/238 246/217/246 236/201/236
f 254/234/254 297/235/297 288/232/288
f 261/212/261 259/236/259 257/227/257
f 258/218/258 256/220/256 266/222/266
f 280/237/280 297/235/297 254/234/254
f 255/233/255 288/232/288 298/238/298
f 294/239/294 296/240/296 258/218/258
f 296/240/296 261/212/261 258/218/258
f 292/241/292 289/214/289 291/242/291
f 289/214/289 261/212/261 291/242/291
f 293/243/293 288/232/288 299/244/299
f 298/238/298 288/232/288 293/243/293
f 294/239/294 290/221/290 300/245/300
f 294/239/294 258/218/258 290/221/290
f 291/242/291 296/240/296 295/246/295
f 301/247/301 293/243/293 299/244/299
f 291/242/291 295/246/295 292/241/292
f 294/239/294 300/245/300 295/246/295
f 288/232/288 297/235/297 299/244/299
f 296/240/296 291/242/291 261/212/261
f 296/240/296 294/239/294 295/246/295
f 262/230/262 251/207/251 249/206/249
f 254/234/254 288/232/288 262/230/262
f 252/209/252 253/210/253 263/231/263
f 261/212/261 264/215/264 259/236/259
f 282/248/282 236/201/236 257/227/257
f 298/238/298 284/249/284 255/233/255
f 286/250/286 250/208/250 263/231/263
f 357/251/357 356/252/356 352/253/352
f 352/253/352 353/254/353 357/251/357
f 354/255/354 357/251/357 353/254/353
f 353/254/353 350/256/350 354/255/354
f 355/257/355 354/255/354 350/256/350
f 350/256/350 351/258/351 355/257/355
f 355/257/355 367/259/367 370/260/370
f 367/259/367 371/261/371 375/262/375
f 354/255/354 370/260/370 369/263/369
f 370/260/370 375/262/375 374/264/374
f 357/251/357 369/263/369 368/265/368
f 369/263/369 374/264/374 373/266/373
f 362/267/362 378/268/378 376/269/376
f 377/270/377 362/267/362 376/269/376
f 379/271/379 362/267/362 377/270/377
f 360/272/360 365/273/365 372/274/372
f 362/267/362 379/271/379 384/275/384
f 362/267/362 366/276/366 383/277/383
f 380/278/380 359/279/359 363/280/363
f 361/281/361 365/273/365 382/282/382
f 358/283/358 363/280/363 359/279/359
f 358/283/358 381/284/381 363/280/363
f 309/285/309 318/286/318 310/287/310
f 303/288/303 307/289/307 302/290/302
f 307/289/307 303/288/303 308/291/308
f 319/292/319 304/293/304 320/294/320
f 305/295/305 321/296/321 311/297/311
f 305/295/305 311/297/311 304/293/304
f 320/294/320 304/293/304 311/297/311
f 318/286/318 306/298/306 310/287/310
f 310/287/310 322/299/322 309/285/309
f 319/292/319 313/300/313 304/293/304
f 316/301/316 287/302/287 278/303/278
f 302/290/302 316/301/316 303/288/303
f 314/304/314 313/300/313 269/305/269
f 312/306/312 304/293/304 313/300/313
f 314/304/314 312/306/312 313/300/313
f 285/307/285 314/304/314 269/305/269
f 274/308/274 315/309/315 270/310/270
f 305/295/305 304/293/304 312/306/312
f 270/310/270 315/309/315 312/306/312
f 318/286/318 323/311/323 306/298/306
f 317/312/317 307/289/307 310/287/310
f 310/287/310 306/298/306 317/312/317
f 275/313/275 287/302/287 323/311/323
f 317/312/317 306/298/306 287/302/287
f 316/301/316 302/290/302 287/302/287
f 312/306/312 315/309/315 305/295/305
f 313/300/313 319/292/319 324/314/324
f 270/310/270 314/304/314 285/307/285
f 302/290/302 307/289/307 317/312/317
f 302/290/302 317/312/317 287/302/287
f 305/295/305 325/315/325 321/296/321
f 305/295/305 315/309/315 325/315/325
f 352/253/352 322/299/322 310/287/310
f 353/254/353 352/253/352 310/287/310
f 353/254/353 310/287/310 307/289/307
f 350/256/350 353/254/353 307/289/307
f 364/316/364 307/289/307 308/291/308
f 351/258/351 350/256/350 364/316/364
f 377/270/377 376/269/376 320/294/320
f 311/297/311 377/270/377 320/294/320
f 350/256/350 307/289/307 364/316/364
f 351/258/351 364/316/364 308/291/308
f 394/317/394 389/318/389 393/319/393
f 389/318/389 394/317/394 390/320/390
f 391/321/391 390/320/390 394/317/394
f 390/320/390 391/321/391 387/322/387
f 392/323/392 387/322/387 391/321/391
f 387/322/387 392/323/392 388/324/388
f 392/323/392 391/321/391 405/325/405
f 398/326/398 408/327/408 395/328/395
f 391/321/391 394/317/394 404/329/404
f 395/328/395 412/330/412 396/331/396
f 394/317/394 393/319/393 403/332/403
f 396/331/396 411/333/411 397/334/397
f 399/335/399 413/336/413 415/337/415
f 414/338/414 413/336/413 399/335/399
f 416/339/416 414/338/414 399/335/399
f 402/340/402 409/341/409 418/342/418
f 399/335/399 407/343/407 420/344/420
f 399/335/399 415/337/415 406/345/406
f 400/346/400 417/347/417 402/340/402
f 395/328/395 419/348/419 398/326/398
f 396/331/396 397/334/397 419/348/419
f 396/331/396 419/348/419 395/328/395
f 333/349/333 334/350/334 342/351/342
f 330/352/330 342/351/342 334/350/334
f 326/353/326 331/354/331 327/355/327
f 332/356/332 327/355/327 331/354/331
f 343/357/343 344/358/344 328/359/328
f 335/360/335 328/359/328 344/358/344
f 335/360/335 329/361/329 328/359/328
f 329/361/329 335/360/335 345/362/345
f 334/350/334 333/349/333 346/363/346
f 339/364/339 336/365/336 329/361/329
f 340/366/340 283/367/283 326/353/326
f 347/368/347 330/352/330 283/367/283
f 343/357/343 337/369/337 348/370/348
f 343/357/343 328/359/328 337/369/337
f 328/359/328 329/361/329 336/365/336
f 328/359/328 336/365/336 337/369/337
f 336/365/336 338/371/338 337/369/337
f 341/372/341 334/350/334 331/354/331
f 334/350/334 341/372/341 330/352/330
f 347/368/347 283/367/283 271/373/271
f 330/352/330 341/372/341 283/367/283
f 326/353/326 327/355/327 340/366/340
f 273/374/273 281/375/281 338/371/338
f 347/368/347 342/351/342 330/352/330
f 273/374/273 338/371/338 336/365/336
f 337/369/337 268/376/268 348/370/348
f 268/376/268 276/377/276 348/370/348
f 268/376/268 338/371/338 281/375/281
f 326/353/326 341/372/341 331/354/331
f 326/353/326 283/367/283 341/372/341
f 329/361/329 345/362/345 349/378/349
f 329/361/329 349/378/349 339/364/339
f 346/363/346 389/318/389 390/320/390
f 334/350/334 346/363/346 390/320/390
f 334/350/334 390/320/390 387/322/387
f 334/350/334 387/322/387 331/354/331
f 344/358/344 413/336/413 414/338/414
f 335/360/335 344/358/344 414/338/414
f 401/379/401 388/324/388 332/356/332
f 331/354/331 387/322/387 401/379/401
f 387/322/387 388/324/388 401/379/401
f 331/354/331 401/379/401 332/356/332
f 336/365/336 339/364/339 273/374/273
f 283/367/283 340/366/340 277/380/277
f 287/302/287 306/298/306 323/311/323
f 313/300/313 324/314/324 269/305/269
f 268/376/268 337/369/337 338/371/338
f 272/381/272 273/374/273 339/364/339
f 269/305/269 324/314/324 279/382/279
f 312/306/312 314/304/314 270/310/270
f 107/174/107 127/171/127 14/181/14
f 14/181/14 127/171/127 96/76/96
f 107/174/107 14/181/14 11/75/11
f 127/171/127 124/150/124 98/149/98
f 101/160/101 209/155/209 111/154/111
f 100/158/100 110/157/110 111/154/111
f 173/120/173 170/114/170 198/113/198
f 193/135/193 172/112/172 184/111/184
f 79/54/79 57/33/57 71/35/71
f 85/37/85 78/66/78 70/38/70
f 185/110/185 195/144/195 182/122/182
f 179/119/179 199/127/199 191/131/191
f 64/48/64 66/45/66 86/44/86
f 63/39/63 85/37/85 72/36/72
f 218/184/218 226/193/226 217/185/217
f 226/193/226 219/189/219 253/210/253
f 227/192/227 220/187/220 226/193/226
f 212/165/212 227/192/227 218/184/218
f 111/154/111 228/156/228 212/165/212
f 227/192/227 228/156/228 209/155/209
f 258/218/258 247/211/247 243/223/243
f 241/216/241 247/211/247 244/213/244
f 243/223/243 247/211/247 242/224/242
f 241/216/241 240/205/240 248/226/248
f 229/175/229 231/180/231 106/176/106
f 229/175/229 230/178/230 225/198/225
f 139/95/139 120/153/120 128/148/128
f 144/152/144 128/148/128 124/150/124
f 31/74/31 15/73/15 4/6/4
f 11/75/11 96/76/96 15/73/15
f 129/81/129 146/383/146 115/82/115
f 166/91/166 154/89/154 140/86/140
f 32/384/32 53/25/53 22/3/22
f 16/17/16 33/385/33 6/11/6
f 29/14/29 142/94/142 134/93/134
f 21/15/21 29/14/29 134/93/134
f 5/7/5 96/76/96 98/149/98
f 5/7/5 98/149/98 120/153/120
f 109/182/109 110/157/110 108/183/108
f 99/147/99 109/182/109 108/183/108
f 99/147/99 108/183/108 97/71/97
f 37/72/37 150/83/150 97/71/97
f 19/72/19 134/93/134 132/83/132
f 118/86/118 143/88/143 30/13/30
f 27/11/27 118/86/118 30/13/30
f 149/84/149 18/5/18 120/153/120
f 131/84/131 27/11/27 36/5/36
f 73/53/73 88/56/88 77/51/77
f 68/42/68 73/53/73 67/52/67
f 180/129/180 175/115/175 186/128/186
f 197/123/197 200/128/200 201/132/201
f 84/42/84 74/56/74 87/53/87
f 88/56/88 58/49/58 77/51/77
f 68/42/68 66/45/66 76/43/76
f 65/50/65 58/49/58 75/41/75
f 186/128/186 170/114/170 190/117/190
f 188/124/188 187/132/187 171/116/171
f 189/118/189 188/124/188 178/133/178
f 202/124/202 197/123/197 201/132/201
f 171/116/171 189/118/189 178/133/178
f 179/119/179 181/123/181 189/118/189
f 179/119/179 190/117/190 170/114/170
f 187/132/187 190/117/190 171/116/171
f 75/41/75 76/43/76 65/50/65
f 77/51/77 76/43/76 66/45/66
f 76/43/76 77/51/77 58/49/58
f 73/53/73 77/51/77 57/33/57
f 366/276/366 372/274/372 385/386/385
f 365/273/365 360/272/360 382/282/382
f 409/341/409 410/387/410 407/343/407
f 400/346/400 402/340/402 418/342/418
f 147/96/147 145/90/145 140/86/140
f 148/383/148 138/77/138 135/82/135
f 34/4/34 32/384/32 22/3/22
f 35/385/35 25/8/25 27/11/27
f 27/11/27 25/8/25 36/5/36
f 18/5/18 5/7/5 120/153/120
f 149/84/149 120/153/120 139/95/139
f 118/86/118 27/11/27 131/84/131
f 134/93/134 135/82/135 132/83/132
f 150/83/150 99/147/99 97/71/97
f 38/1/38 37/72/37 97/71/97
f 21/15/21 134/93/134 19/72/19
f 20/1/20 2/3/2 19/72/19
f 8/67/8 38/1/38 10/70/10
f 123/151/123 99/147/99 133/79/133
f 138/77/138 151/79/151 135/82/135
f 404/329/404 403/332/403 423/388/423
f 399/335/399 420/344/420 416/339/416
f 405/325/405 404/329/404 411/333/411
f 404/329/404 394/317/394 403/332/403
f 421/389/421 405/325/405 412/330/412
f 405/325/405 391/321/391 404/329/404
f 421/389/421 392/323/392 405/325/405
f 407/343/407 406/345/406 422/390/422
f 407/343/407 399/335/399 406/345/406
f 417/347/417 410/387/410 409/341/409
f 408/327/408 421/389/421 412/330/412
f 409/341/409 422/390/422 418/342/418
f 409/341/409 407/343/407 422/390/422
f 417/347/417 409/341/409 402/340/402
f 410/387/410 420/344/420 407/343/407
f 411/333/411 423/388/423 397/334/397
f 411/333/411 404/329/404 423/388/423
f 412/330/412 411/333/411 396/331/396
f 412/330/412 405/325/405 411/333/411
f 408/327/408 412/330/412 395/328/395
f 384/275/384 366/276/366 362/267/362
f 372/274/372 361/281/361 385/386/385
f 371/261/371 358/283/358 375/262/375
f 362/267/362 383/277/383 378/268/378
f 357/251/357 368/265/368 356/252/356
f 366/276/366 384/275/384 386/391/386
f 354/255/354 369/263/369 357/251/357
f 374/264/374 380/278/380 373/266/373
f 355/257/355 370/260/370 354/255/354
f 375/262/375 359/279/359 374/264/374
f 366/276/366 385/386/385 383/277/383
f 381/284/381 358/283/358 371/261/371
f 386/391/386 372/274/372 366/276/366
f 365/273/365 361/281/361 372/274/372
f 369/263/369 373/266/373 368/265/368
f 372/274/372 386/391/386 360/272/360
f 370/260/370 374/264/374 369/263/369
f 359/279/359 380/278/380 374/264/374
f 367/259/367 375/262/375 370/260/370
f 358/283/358 359/279/359 375/262/375
f 426/392/426 450/393/450 427/394/427
f 429/395/429 448/396/448 432/397/432
f 442/398/442 433/399/433 481/400/481
f 475/401/475 483/402/483 425/403/425
f 437/404/437 449/405/449 436/406/436
f 442/398/442 436/406/436 449/405/449
f 447/407/447 441/408/441 442/398/442
f 434/409/434 433/399/433 442/398/442
f 474/410/474 452/411/452 458/412/458
f 424/413/424 433/399/433 434/409/434
f 442/398/442 481/400/481 436/406/436
f 436/406/436 482/414/482 437/404/437
f 482/414/482 436/406/436 481/400/481
f 462/415/462 463/416/463 460/417/460
f 431/418/431 437/404/437 484/419/484
f 468/420/468 473/421/473 463/416/463
f 444/422/444 449/405/449 461/423/461
f 483/402/483 446/424/446 450/393/450
f 483/402/483 450/393/450 426/392/426
f 444/422/444 461/423/461 464/425/464
f 483/402/483 448/396/448 446/424/446
f 448/396/448 483/402/483 432/397/432
f 443/426/443 429/395/429 430/427/430
f 443/426/443 448/396/448 429/395/429
f 454/428/454 478/429/478 430/427/430
f 450/393/450 448/396/448 443/426/443
f 447/407/447 442/398/442 445/430/445
f 439/431/439 441/408/441 447/407/447
f 447/407/447 444/422/444 439/431/439
f 440/432/440 439/431/439 444/422/444
f 438/433/438 477/434/477 479/435/479
f 449/405/449 447/407/447 445/430/445
f 444/422/444 464/425/464 438/433/438
f 449/405/449 445/430/445 442/398/442
f 444/422/444 447/407/447 449/405/449
f 450/393/450 443/426/443 462/415/462
f 446/424/446 448/396/448 450/393/450
f 483/402/483 480/436/480 425/403/425
f 474/410/474 435/437/435 442/398/442
f 457/438/457 452/411/452 453/439/453
f 441/408/441 474/410/474 442/398/442
f 452/411/452 441/408/441 469/440/469
f 440/432/440 469/440/469 439/431/439
f 453/439/453 440/432/440 454/428/454
f 469/440/469 440/432/440 453/439/453
f 435/437/435 458/412/458 425/403/425
f 471/441/471 459/442/459 458/412/458
f 454/428/454 440/432/440 479/435/479
f 478/429/478 454/428/454 477/434/477
f 440/432/440 444/422/444 479/435/479
f 455/443/455 453/439/453 454/428/454
f 456/444/456 453/439/453 455/443/455
f 429/395/429 470/445/470 430/427/430
f 430/427/430 455/443/455 454/428/454
f 455/443/455 451/446/451 456/444/456
f 470/445/470 429/395/429 432/397/432
f 451/446/451 455/443/455 470/445/470
f 451/446/451 471/441/471 476/447/476
f 456/444/456 457/438/457 453/439/453
f 458/412/458 452/411/452 471/441/471
f 425/403/425 459/442/459 475/401/475
f 459/442/459 425/403/425 458/412/458
f 435/437/435 434/409/434 442/398/442
f 432/397/432 475/401/475 451/446/451
f 484/419/484 437/404/437 482/414/482
f 431/418/431 484/419/484 485/448/485
f 437/404/437 461/423/461 449/405/449
f 437/404/437 431/418/431 461/423/461
f 427/394/427 462/415/462 460/417/460
f 427/394/427 450/393/450 462/415/462
f 463/416/463 462/415/462 468/420/468
f 462/415/462 443/426/443 468/420/468
f 467/449/467 464/425/464 461/423/461
f 466/450/466 438/433/438 464/425/464
f 477/434/477 466/450/466 465/451/465
f 472/452/472 464/425/464 467/449/467
f 472/452/472 465/451/465 466/450/466
f 431/418/431 467/449/467 461/423/461
f 472/452/472 467/449/467 431/418/431
f 468/420/468 465/451/465 473/421/473
f 428/453/428 477/434/477 465/451/465
f 428/453/428 468/420/468 443/426/443
f 428/453/428 465/451/465 468/420/468
f 434/409/434 435/437/435 425/403/425
f 424/413/424 434/409/434 425/403/425
f 452/411/452 469/440/469 453/439/453
f 469/440/469 441/408/441 439/431/439
f 455/443/455 430/427/430 470/445/470
f 451/446/451 470/445/470 432/397/432
f 451/446/451 459/442/459 471/441/471
f 476/447/476 452/411/452 457/438/457
f 431/418/431 485/448/485 472/452/472
f 466/450/466 464/425/464 472/452/472
f 473/421/473 460/417/460 463/416/463
f 472/452/472 485/448/485 465/451/465
f 441/408/441 452/411/452 474/410/474
f 458/412/458 435/437/435 474/410/474
f 483/402/483 475/401/475 432/397/432
f 475/401/475 459/442/459 451/446/451
f 456/444/456 476/447/476 457/438/457
f 471/441/471 452/411/452 476/447/476
f 451/446/451 476/447/476 456/444/456
f 443/426/443 478/429/478 428/453/428
f 477/434/477 438/433/438 466/450/466
f 443/426/443 430/427/430 478/429/478
f 478/429/478 477/434/477 428/453/428
f 438/433/438 479/435/479 444/422/444
f 454/428/454 479/435/479 477/434/477
f 486/454/486 487/455/487 491/456/491 490/457/490
f 487/455/487 488/458/488 492/459/492 491/456/491
f 488/458/488 489/460/489 493/461/493 492/459/492
f 489/460/489 486/454/486 490/457/490 493/461/493
f 490/457/490 491/456/491 494/462/494
f 491/456/491 492/459/492 494/462/494
f 492/459/492 493/461/493 494/462/494
f 493/461/493 490/457/490 494/462/494
f 490/457/490 494/462/494 495/463/495
f 491/456/491 494/462/494 496/464/496
f 491/456/491 496/464/496 497/465/497
f 492/459/492 497/465/497 496/464/496
f 492/459/492 496/464/496 493/461/493
f 493/461/493 496/464/496 495/463/495
f 495/463/495 496/464/496 497/465/497
f 502/457/502 503/456/503 499/455/499 498/454/498
f 503/456/503 504/459/504 500/458/500 499/455/499
f 504/459/504 505/461/505 501/460/501 500/458/500
f 505/461/505 502/457/502 498/454/498 501/460/501
f 506/462/506 503/456/503 502/457/502
f 506/462/506 504/459/504 503/456/503
f 506/462/506 505/461/505 504/459/504
f 506/462/506 502/457/502 505/461/505
f 507/463/507 506/462/506 502/457/502
f 508/464/508 506/462/506 503/456/503
f 509/465/509 508/464/508 503/456/503
f 508/464/508 509/465/509 504/459/504
f 505/461/505 508/464/508 504/459/504
f 507/463/507 508/464/508 505/461/505
f 509/465/509 508/464/508 507/463/507
