# Blender 5.1.1
# www.blender.org
mtllib npc_cici_idle.mtl
o npc_cici_idle
v 0.007424 -0.046288 0.544310
v 0.029600 -0.020729 0.333895
v 0.068795 -0.020546 0.335757
v 0.085235 0.025967 0.363280
v 0.101014 0.025297 0.411255
v 0.030951 0.064017 0.411245
v 0.047347 0.045224 0.349322
v 0.005164 0.021737 0.411255
v 0.015087 0.023764 0.347816
v 0.097608 -0.036515 0.572614
v 0.102904 0.033009 0.597106
v 0.000007 0.040880 0.542907
v 0.057506 -0.068486 0.557443
v 0.084243 0.062031 0.606429
v 0.062979 -0.075647 0.580687
v 0.099521 -0.037863 0.589673
v 0.084532 0.060623 0.594474
v 0.074356 0.022238 0.327218
v 0.090685 -0.034362 0.411269
v 0.047723 -0.049782 0.411273
v 0.015567 -0.039336 0.411271
v 0.073922 0.063696 0.411245
v 0.049499 0.052595 0.411248
v 0.091646 0.025638 0.411254
v 0.011361 0.022724 0.411255
v 0.077020 -0.024567 0.411267
v 0.021301 -0.028939 0.411268
v 0.050286 -0.035611 0.411270
v 0.085235 0.025967 0.363280
v 0.101014 0.025297 0.411255
v 0.101014 0.025297 0.411255
v 0.101014 0.025297 0.411255
v 0.030951 0.064017 0.411245
v 0.005164 0.021737 0.411255
v 0.005164 0.021737 0.411255
v 0.005164 0.021737 0.411255
v 0.015087 0.023764 0.347816
v 0.102904 0.033009 0.597106
v 0.000007 0.040880 0.542907
v 0.074356 0.022238 0.327218
v 0.090685 -0.034362 0.411269
v 0.047723 -0.049782 0.411273
v 0.015567 -0.039336 0.411271
v 0.073922 0.063696 0.411245
v 0.049499 0.052595 0.411248
v 0.091646 0.025638 0.411254
v 0.091646 0.025638 0.411254
v 0.091646 0.025638 0.411254
v 0.011361 0.022724 0.411255
v 0.011361 0.022724 0.411255
v 0.011361 0.022724 0.411255
v 0.077020 -0.024567 0.411267
v 0.021301 -0.028939 0.411268
v 0.050286 -0.035611 0.411270
v 0.021266 0.060370 0.564409
v 0.026651 -0.067120 0.545759
v -0.021769 0.060489 0.563561
v -0.027207 -0.067146 0.545459
v 0.068351 -0.071865 0.638241
v -0.069592 -0.072038 0.638234
v -0.097510 -0.022202 0.651496
v 0.098497 -0.021964 0.651748
v 0.081212 0.050575 0.654005
v -0.080211 0.050442 0.653999
v -0.047698 0.074900 0.651223
v 0.048744 0.074895 0.651222
v 0.000027 -0.062339 0.553096
v 0.030341 -0.075375 0.566253
v -0.031385 -0.075433 0.566261
v 0.000077 -0.080168 0.583540
v -0.039386 0.072350 0.606451
v 0.039873 0.072310 0.606448
v -0.000666 -0.076445 0.638237
v 0.000179 0.070463 0.681902
v 0.081212 0.050575 0.654005
v -0.080211 0.050442 0.653999
v 0.071661 0.018506 0.300158
v 0.021948 0.017739 0.300141
v 0.047446 0.031920 0.302918
v 0.024665 -0.020647 0.294092
v 0.017972 -0.022569 0.218475
v 0.040250 -0.014317 0.067785
v 0.037676 0.008663 0.067771
v 0.049438 0.018806 0.067764
v 0.068895 -0.020694 0.294025
v 0.081288 -0.023260 0.217910
v 0.053918 -0.015711 0.067785
v 0.061804 0.008609 0.067770
v 0.047973 0.028166 0.289070
v 0.047286 -0.039989 0.216913
v 0.071661 0.018506 0.300158
v 0.021948 0.017739 0.300141
v 0.037676 0.008663 0.067771
v 0.061804 0.008609 0.067770
v 0.058885 -0.031111 0.019136
v 0.057425 -0.026428 -0.000151
v 0.061660 0.008916 0.054614
v 0.054211 -0.015192 0.054642
v 0.079977 0.067020 0.022353
v 0.033479 0.065707 -0.000259
v 0.036528 0.067025 0.026331
v 0.037819 0.009116 0.054613
v 0.037052 -0.022703 -0.000155
v 0.032628 -0.030112 0.019135
v 0.080088 0.065762 -0.000259
v 0.040121 -0.013599 0.054640
v 0.048861 0.019228 0.054602
v 0.040198 0.039753 0.043954
v 0.061660 0.008916 0.054614
v 0.079977 0.067020 0.022353
v 0.033479 0.065707 -0.000259
v 0.036528 0.067025 0.026331
v 0.037819 0.009116 0.054613
v 0.080088 0.065762 -0.000259
v 0.040198 0.039753 0.043954
v 0.068901 0.108988 -0.000310
v 0.068418 0.107177 0.012313
v 0.046523 0.116166 -0.000318
v 0.045184 0.113972 0.013087
v 0.079844 0.075381 0.020703
v 0.036986 0.075675 0.023082
v -0.007389 -0.046254 0.544331
v -0.029320 -0.019579 0.333876
v -0.067402 -0.019409 0.335739
v -0.084109 0.027479 0.363492
v -0.101213 0.026088 0.411256
v -0.047653 0.046623 0.349364
v -0.016409 0.025266 0.347821
v -0.006163 0.022707 0.411257
v -0.032306 0.064531 0.411248
v -0.097066 -0.036599 0.572479
v -0.102378 0.032804 0.597132
v -0.056748 -0.068540 0.557146
v -0.083763 0.062111 0.606439
v -0.062831 -0.075793 0.580678
v -0.099893 -0.038138 0.589729
v -0.082991 0.061055 0.594577
v -0.073585 0.023005 0.327325
v -0.089706 -0.033833 0.411268
v -0.047305 -0.049224 0.411271
v -0.015465 -0.038742 0.411269
v -0.074838 0.064348 0.411248
v -0.050378 0.053550 0.411250
v -0.091176 0.026789 0.411256
v -0.012549 0.023959 0.411256
v -0.075840 -0.023736 0.411266
v -0.021083 -0.028069 0.411267
v -0.049380 -0.034765 0.411268
v -0.084109 0.027479 0.363492
v -0.101213 0.026088 0.411256
v -0.101213 0.026088 0.411256
v -0.101213 0.026088 0.411256
v -0.016409 0.025266 0.347821
v -0.006163 0.022707 0.411257
v -0.006163 0.022707 0.411257
v -0.006163 0.022707 0.411257
v -0.032306 0.064531 0.411248
v -0.102378 0.032804 0.597132
v -0.073585 0.023005 0.327325
v -0.089706 -0.033833 0.411268
v -0.047305 -0.049224 0.411271
v -0.015465 -0.038742 0.411269
v -0.074838 0.064348 0.411248
v -0.050378 0.053550 0.411250
v -0.091176 0.026789 0.411256
v -0.091176 0.026789 0.411256
v -0.091176 0.026789 0.411256
v -0.012549 0.023959 0.411256
v -0.012549 0.023959 0.411256
v -0.012549 0.023959 0.411256
v -0.075840 -0.023736 0.411266
v -0.021083 -0.028069 0.411267
v -0.049380 -0.034765 0.411268
v -0.071251 0.018527 0.300162
v -0.022763 0.019151 0.300143
v -0.047652 0.032741 0.302945
v -0.025125 -0.019807 0.294142
v -0.018435 -0.021556 0.218691
v -0.039870 -0.014365 0.067864
v -0.037296 0.008628 0.067851
v -0.049872 0.018785 0.067844
v -0.068211 -0.019855 0.294076
v -0.081192 -0.022250 0.218135
v -0.053535 -0.015764 0.067866
v -0.061422 0.008577 0.067850
v -0.048192 0.028936 0.289004
v -0.047491 -0.038985 0.217241
v -0.071251 0.018527 0.300162
v -0.022763 0.019151 0.300143
v -0.037296 0.008628 0.067851
v -0.061422 0.008577 0.067850
v -0.058623 -0.031068 0.019267
v -0.057648 -0.026390 -0.000037
v -0.036263 0.066973 0.026279
v -0.061424 0.008929 0.054710
v -0.053848 -0.015225 0.054744
v -0.079711 0.066968 0.022301
v -0.033215 0.065797 -0.000167
v -0.037594 0.009126 0.054710
v -0.036076 -0.022699 -0.000042
v -0.032364 -0.030105 0.019265
v -0.080052 0.065826 -0.000167
v -0.049336 0.018494 0.054697
v -0.039759 -0.013626 0.054742
v -0.039956 0.039733 0.043976
v -0.036263 0.066973 0.026279
v -0.061424 0.008929 0.054710
v -0.079711 0.066968 0.022301
v -0.033215 0.065797 -0.000167
v -0.037594 0.009126 0.054710
v -0.080052 0.065826 -0.000167
v -0.039956 0.039733 0.043976
v -0.068639 0.108970 -0.000228
v -0.068156 0.107165 0.012251
v -0.046258 0.116124 -0.000238
v -0.044920 0.113930 0.013024
v -0.079812 0.075350 0.020649
v -0.036509 0.075629 0.023028
v -0.062725 -0.052661 0.678404
v -0.087047 -0.006341 0.680505
v 0.059827 0.054815 0.681897
v 0.063245 -0.052574 0.678408
v 0.088710 -0.006261 0.680510
v -0.059469 0.054936 0.681907
v -0.081415 0.003295 0.745096
v 0.081878 0.003860 0.744719
v 0.056481 -0.042440 0.747438
v 0.053995 -0.037434 0.701432
v -0.055782 -0.042699 0.747659
v -0.054619 -0.037094 0.701611
v 0.075932 -0.005532 0.700028
v -0.076742 -0.005210 0.700130
v 0.057719 0.057489 0.740593
v -0.057472 0.057384 0.740593
v 0.000123 0.072489 0.739687
v 0.000349 -0.048043 0.747549
v -0.000312 -0.042737 0.701521
v 0.000260 -0.058091 0.678406
v 0.059827 0.054815 0.681897
v -0.059469 0.054936 0.681907
v -0.081415 0.003295 0.745096
v 0.081878 0.003860 0.744719
v 0.075932 -0.005532 0.700028
v -0.076742 -0.005210 0.700130
v -0.085461 -0.005453 0.829307
v 0.084164 -0.005320 0.829307
v -0.055313 0.063322 0.784882
v 0.055588 0.063437 0.784882
v 0.000138 0.072276 0.787303
v -0.053376 0.076911 0.813658
v 0.053621 0.077020 0.813658
v 0.057241 0.075902 0.840066
v -0.056442 0.075847 0.840066
v 0.084019 0.040771 0.834686
v -0.084247 0.040677 0.834687
v 0.000400 0.069682 0.838332
v 0.000122 0.071106 0.815378
v -0.085461 -0.005453 0.829307
v 0.084164 -0.005320 0.829307
v -0.071686 -0.054330 0.859601
v 0.072602 -0.054197 0.859600
v 0.000279 -0.063711 0.864410
v -0.071466 -0.039338 0.924109
v 0.071496 -0.039336 0.924022
v 0.066359 0.001604 0.922545
v -0.085879 0.019596 0.886806
v 0.020668 0.005998 0.924536
v -0.066384 0.001600 0.922560
v 0.084950 0.020168 0.886889
v -0.019557 0.005926 0.924550
v -0.081017 -0.049718 0.887296
v 0.081470 -0.049568 0.887350
v -0.094208 -0.016404 0.873279
v 0.093879 -0.016320 0.873259
v -0.071466 -0.039338 0.924109
v 0.071496 -0.039336 0.924022
v 0.066359 0.001604 0.922545
v -0.085879 0.019596 0.886806
v -0.085879 0.019596 0.886806
v -0.066384 0.001600 0.922560
v 0.084950 0.020168 0.886889
v 0.084950 0.020168 0.886889
v -0.081017 -0.049718 0.887296
v -0.081017 -0.049718 0.887296
v 0.081470 -0.049568 0.887350
v 0.081470 -0.049568 0.887350
v -0.094208 -0.016404 0.873279
v -0.094208 -0.016404 0.873279
v 0.093879 -0.016320 0.873259
v 0.093879 -0.016320 0.873259
v 0.000918 -0.043440 0.954399
v -0.027412 -0.035493 0.949417
v 0.028726 -0.035661 0.949347
v -0.022855 0.009415 1.007988
v -0.016418 -0.021297 1.018734
v 0.018254 -0.021554 1.018541
v 0.024467 0.009459 1.007988
v 0.000321 0.004073 1.021888
v 0.000806 0.022580 1.000882
v -0.027412 -0.035493 0.949417
v 0.028726 -0.035661 0.949347
v -0.016418 -0.021297 1.018734
v 0.018254 -0.021554 1.018541
v 0.000321 0.004073 1.021888
v 0.068073 -0.020117 0.928689
v 0.068073 -0.020117 0.928689
v 0.068073 -0.020117 0.928689
v -0.068089 -0.020182 0.928702
v -0.068089 -0.020182 0.928702
v -0.068089 -0.020182 0.928702
v -0.079458 -0.042803 0.875025
v -0.105480 -0.047845 0.867901
v -0.134662 -0.036479 0.870328
v -0.130410 0.007323 0.871373
v -0.081291 0.010230 0.874238
v -0.100092 -0.037480 0.740354
v -0.131351 -0.039771 0.744083
v -0.115181 0.008078 0.764807
v -0.101508 -0.000983 0.736991
v -0.135495 -0.001473 0.740015
v -0.127403 0.000805 0.901866
v -0.128798 -0.035612 0.902942
v -0.123130 -0.015756 0.919386
v -0.085328 0.016991 0.900086
v -0.081202 -0.046892 0.901760
v -0.075324 -0.013272 0.879659
v -0.090415 0.016434 0.871926
v -0.133113 0.002789 0.823178
v -0.133266 -0.037639 0.823808
v -0.105559 0.012330 0.820618
v -0.090155 0.004475 0.819389
v -0.088652 -0.040639 0.819946
v -0.111053 -0.043984 0.821959
v -0.137465 0.007589 0.825570
v -0.101384 0.018093 0.822249
v -0.140163 -0.040264 0.826537
v -0.110189 -0.050263 0.824063
v -0.084720 -0.045642 0.821762
v -0.086603 0.010092 0.821076
v -0.105480 -0.047845 0.867901
v -0.131351 -0.039771 0.744083
v -0.115181 0.008078 0.764807
v -0.135495 -0.001473 0.740015
v -0.085328 0.016991 0.900086
v -0.081202 -0.046892 0.901760
v -0.090415 0.016434 0.871926
v -0.133113 0.002789 0.823178
v -0.133266 -0.037639 0.823808
v -0.105559 0.012330 0.820618
v -0.105559 0.012330 0.820618
v -0.105559 0.012330 0.820618
v -0.090155 0.004475 0.819389
v -0.088652 -0.040639 0.819946
v -0.111053 -0.043984 0.821959
v -0.111053 -0.043984 0.821959
v -0.111053 -0.043984 0.821959
v -0.137465 0.007589 0.825570
v -0.101384 0.018093 0.822249
v -0.101384 0.018093 0.822249
v -0.101384 0.018093 0.822249
v -0.140163 -0.040264 0.826537
v -0.110189 -0.050263 0.824063
v -0.110189 -0.050263 0.824063
v -0.110189 -0.050263 0.824063
v -0.084720 -0.045642 0.821762
v -0.086603 0.010092 0.821076
v 0.079413 -0.042817 0.875035
v 0.105439 -0.047844 0.867912
v 0.134618 -0.036467 0.870334
v 0.130355 0.007335 0.871368
v 0.081236 0.010219 0.874230
v 0.100292 -0.036278 0.740312
v 0.131551 -0.038561 0.744040
v 0.115131 0.008078 0.764808
v 0.101813 0.000205 0.736940
v 0.135804 -0.000276 0.739969
v 0.127347 0.000791 0.901861
v 0.128754 -0.035629 0.902948
v 0.123081 -0.015756 0.919387
v 0.085264 0.016940 0.900079
v 0.081159 -0.046950 0.901765
v 0.075274 -0.013277 0.879660
v 0.090356 0.016422 0.871918
v 0.133244 0.003421 0.823133
v 0.133342 -0.037001 0.823818
v 0.105510 0.012330 0.820555
v 0.088728 -0.040028 0.819961
v 0.090282 0.005082 0.819343
v 0.111131 -0.043364 0.821979
v 0.140178 -0.039904 0.826560
v 0.137514 0.007942 0.825527
v 0.101324 0.018067 0.822188
v 0.110205 -0.049920 0.824103
v 0.084733 -0.045318 0.821795
v 0.086650 0.010413 0.821031
v 0.105439 -0.047844 0.867912
v 0.131551 -0.038561 0.744040
v 0.115131 0.008078 0.764808
v 0.135804 -0.000276 0.739969
v 0.085264 0.016940 0.900079
v 0.081159 -0.046950 0.901765
v 0.090356 0.016422 0.871918
v 0.133244 0.003421 0.823133
v 0.133342 -0.037001 0.823818
v 0.105510 0.012330 0.820555
v 0.105510 0.012330 0.820555
v 0.105510 0.012330 0.820555
v 0.088728 -0.040028 0.819961
v 0.090282 0.005082 0.819343
v 0.111131 -0.043364 0.821979
v 0.111131 -0.043364 0.821979
v 0.111131 -0.043364 0.821979
v 0.140178 -0.039904 0.826560
v 0.137514 0.007942 0.825527
v 0.101324 0.018067 0.822188
v 0.101324 0.018067 0.822188
v 0.101324 0.018067 0.822188
v 0.110205 -0.049920 0.824103
v 0.110205 -0.049920 0.824103
v 0.110205 -0.049920 0.824103
v 0.084733 -0.045318 0.821795
v 0.086650 0.010413 0.821031
v 0.102982 -0.035499 0.724557
v 0.132881 -0.037797 0.726726
v 0.136943 0.001212 0.731100
v 0.102696 0.000718 0.727833
v 0.100551 -0.027299 0.674113
v 0.133401 -0.035567 0.690662
v 0.136025 0.014562 0.683575
v 0.103628 0.011097 0.672440
v 0.123236 -0.016933 0.567197
v 0.123518 0.007225 0.570234
v 0.142813 0.006020 0.572869
v 0.142754 -0.016409 0.569851
v 0.147844 -0.013767 0.693246
v 0.133542 -0.004734 0.564868
v 0.116652 -0.038567 0.730221
v 0.132881 -0.037797 0.726726
v 0.136943 0.001212 0.731100
v 0.133401 -0.035567 0.690662
v 0.136025 0.014562 0.683575
v 0.142813 0.006020 0.572869
v 0.142754 -0.016409 0.569851
v 0.133542 -0.004734 0.564868
v -0.102853 -0.035466 0.724478
v -0.132752 -0.037773 0.726647
v -0.136773 -0.000039 0.731040
v -0.102525 -0.000523 0.727773
v -0.100420 -0.027296 0.674113
v -0.133270 -0.035570 0.690662
v -0.135894 0.014560 0.683575
v -0.103498 0.011101 0.672440
v -0.123473 -0.016928 0.567194
v -0.123761 0.007230 0.570238
v -0.143061 0.006018 0.572872
v -0.142997 -0.016411 0.569848
v -0.147714 -0.013769 0.693246
v -0.133897 -0.004410 0.564878
v -0.116486 -0.039148 0.730196
v -0.132752 -0.037773 0.726647
v -0.136773 -0.000039 0.731040
v -0.133270 -0.035570 0.690662
v -0.135894 0.014560 0.683575
v -0.143061 0.006018 0.572872
v -0.142997 -0.016411 0.569848
v -0.133897 -0.004410 0.564878
v 0.039635 0.007312 0.998499
v 0.024399 0.063054 1.089038
v 0.043533 0.007852 1.020502
v 0.043341 0.020177 1.060833
v 0.011642 0.065942 1.017321
v 0.009753 0.068009 0.999304
v 0.038577 0.055845 1.029983
v 0.034000 0.064008 1.059586
v 0.037921 0.052359 1.043376
v 0.011266 0.049333 0.972655
v 0.004162 0.084556 1.022242
v 0.038794 0.049328 1.076707
v 0.006982 0.064498 1.042165
v 0.031219 0.049894 1.001112
v 0.029317 0.027292 0.981196
v 0.003793 0.070888 1.045055
v 0.015161 0.074475 1.054698
v 0.016852 0.073555 1.070722
v 0.004818 0.079255 1.027770
v 0.010335 0.058498 0.979217
v 0.008178 0.071590 1.004349
v 0.003576 0.073616 1.004182
v 0.018554 0.059433 1.000184
v 0.010018 0.067992 0.993519
v 0.010140 0.059393 0.989005
v -0.043485 0.007852 1.020503
v -0.038529 0.055845 1.029984
v -0.037796 0.047855 1.076909
v -0.024349 0.063054 1.089039
v 0.000024 0.081786 1.014975
v 0.000024 0.071984 1.012221
v 0.000024 0.070563 0.998995
v 0.000024 0.073430 1.002532
v 0.000025 0.073545 1.070909
v 0.000024 0.086825 1.022534
v 0.000024 0.007328 0.998498
v 0.000023 0.065873 0.988185
v 0.000023 0.071291 0.993111
v 0.000023 0.020027 0.980006
v 0.000023 0.054380 0.970373
v 0.000024 0.073347 1.054834
v 0.000024 0.072822 1.045852
v 0.000024 0.077100 1.038583
v 0.000024 0.081170 1.028663
v 0.000025 0.063458 1.092890
v 0.000023 0.060244 0.972133
v 0.000023 0.066189 0.981795
v -0.039588 0.007312 0.998501
v -0.043292 0.020177 1.060835
v -0.011594 0.065942 1.017321
v -0.009705 0.068009 0.999305
v -0.033951 0.064008 1.059587
v -0.037872 0.052359 1.043377
v -0.011220 0.049332 0.972656
v -0.004114 0.084556 1.022243
v -0.006931 0.064498 1.042165
v -0.031171 0.049894 1.001113
v -0.029270 0.027293 0.981197
v -0.003745 0.070888 1.045056
v -0.015112 0.074475 1.054698
v -0.016803 0.073555 1.070722
v -0.004770 0.079255 1.027770
v -0.010289 0.058498 0.979218
v -0.008131 0.071590 1.004349
v -0.003529 0.073616 1.004183
v -0.018507 0.059433 1.000184
v -0.009971 0.067992 0.993519
v -0.010093 0.059393 0.989005
v -0.020486 0.061482 1.051413
v 0.020535 0.061482 1.051413
v -0.023352 0.057368 1.036617
v 0.023401 0.057368 1.036617
v -0.023654 0.058428 1.042771
v 0.023703 0.058429 1.042771
v 0.032762 -0.065778 0.974882
v 0.025886 0.064850 1.098547
v 0.058966 0.004143 1.069992
v 0.030900 -0.046033 1.103913
v 0.051435 0.032035 1.068021
v 0.016711 -0.084891 1.040145
v 0.050848 -0.053444 1.031436
v 0.010853 0.031863 1.110325
v 0.007792 0.067368 1.100041
v 0.059377 0.016972 1.017560
v 0.049349 0.008005 1.020729
v 0.053650 -0.033053 1.071993
v 0.051453 0.007114 1.086336
v 0.066122 -0.027709 1.024843
v 0.064282 0.004423 1.017151
v 0.061989 0.011861 0.958042
v 0.034473 -0.065250 1.075251
v 0.032125 -0.021605 0.988896
v 0.062401 -0.021202 0.964155
v 0.042982 0.052597 1.088967
v 0.000025 -0.078209 1.072083
v 0.000025 -0.013022 1.113812
v 0.000023 -0.019096 0.988587
v 0.000025 -0.046185 1.103810
v 0.000023 -0.087511 0.989560
v 0.000023 -0.065688 0.974883
v -0.032716 -0.065776 0.974897
v -0.026675 0.026143 1.107572
v -0.025835 0.064849 1.098543
v -0.057754 0.004287 1.069819
v -0.030849 -0.046033 1.103914
v -0.052878 0.031986 1.067616
v -0.016663 -0.084891 1.040146
v -0.050144 -0.053444 1.031437
v -0.011471 0.031761 1.110337
v -0.007741 0.067368 1.100042
v -0.055088 0.016978 1.017611
v -0.027950 -0.013154 1.113852
v -0.048646 0.008005 1.020730
v -0.053109 -0.033051 1.072010
v -0.050881 0.007127 1.086095
v -0.063871 -0.027708 1.024845
v -0.062903 0.004430 1.017213
v -0.059871 0.011845 0.958043
v -0.034423 -0.065250 1.075253
v -0.032078 -0.021194 0.988850
v -0.060344 -0.021207 0.964184
v 0.000025 0.066955 1.096616
v -0.000173 0.031250 1.105677
v 0.029133 -0.013154 1.113848
v -0.042031 0.052685 1.088961
v 0.028339 0.022316 1.107564
v 0.000025 -0.078209 1.072083
v 0.000025 -0.013022 1.113812
v 0.000023 -0.019096 0.988587
v 0.000025 -0.046185 1.103810
v 0.000023 -0.087511 0.989560
v 0.000023 -0.065688 0.974883
v -0.016663 -0.084891 1.040146
v -0.135000 0.002000 0.566000
v -0.129000 0.001000 0.566000
v -0.129000 -0.013000 0.566000
v -0.135000 -0.013000 0.566000
v -0.142000 0.004000 0.540000
v -0.130000 0.002000 0.538000
v -0.130000 -0.011000 0.538000
v -0.140000 -0.011000 0.540000
v -0.148000 0.008000 0.528000
v -0.144000 -0.002000 0.506000
v -0.138000 -0.004000 0.504000
v -0.132000 -0.004000 0.508000
v 0.135000 0.002000 0.566000
v 0.129000 0.001000 0.566000
v 0.129000 -0.013000 0.566000
v 0.135000 -0.013000 0.566000
v 0.142000 0.004000 0.540000
v 0.130000 0.002000 0.538000
v 0.130000 -0.011000 0.538000
v 0.140000 -0.011000 0.540000
v 0.148000 0.008000 0.528000
v 0.144000 -0.002000 0.506000
v 0.138000 -0.004000 0.504000
v 0.132000 -0.004000 0.508000
vn 0.8028 0.3115 0.5083
vn 0.6146 0.7848 0.0800
vn -0.6476 0.7505 0.1317
vn -0.9564 0.2369 0.1710
vn -0.9887 0.1461 0.0351
vn -0.0000 0.0003 1.0000
vn 0.0312 -0.9856 0.1663
vn 0.9890 0.1380 0.0538
vn 0.5479 -0.8306 0.0997
vn -0.9030 0.4180 0.0991
vn -0.9953 -0.0280 -0.0924
vn 0.0014 -0.9496 0.3135
vn -0.3644 0.9000 0.2391
vn -0.5830 -0.8124 0.0041
vn -0.4210 0.8943 0.1519
vn -0.9206 0.3887 0.0365
vn -0.5027 -0.8624 0.0591
vn -0.9722 0.1604 0.1708
vn -0.7819 0.6162 0.0945
vn -0.0240 0.9867 0.1607
vn 0.7716 0.6225 0.1311
vn -0.9545 0.2718 0.1226
vn -0.0000 0.0002 1.0000
vn -0.7450 0.6569 0.1161
vn -0.4845 -0.8666 0.1197
vn -0.8185 -0.5733 0.0369
vn 0.4699 -0.8826 0.0124
vn 0.8287 -0.5571 0.0534
vn 0.9547 0.2875 0.0764
vn -0.8440 -0.5353 -0.0326
vn -0.0168 0.7133 0.7006
vn -0.5393 -0.8196 0.1933
vn -0.4481 -0.8939 0.0110
vn 0.0336 -0.9926 0.1170
vn -0.5111 -0.8542 0.0954
vn 0.5935 -0.8031 0.0531
vn 0.9692 0.2239 0.1028
vn 0.7112 0.6869 0.1492
vn -0.0712 0.9893 0.1271
vn 0.0898 -0.9673 0.2374
vn 0.2527 0.9140 0.3174
vn -0.1029 -0.9673 0.2317
vn -0.2506 0.9157 0.3142
vn -0.4646 0.8533 -0.2367
vn 0.4758 0.8457 -0.2418
vn 0.9344 0.2071 -0.2899
vn -0.9355 0.2208 -0.2757
vn -0.8737 -0.2824 -0.3960
vn 0.8762 -0.2749 -0.3959
vn 0.2717 -0.9448 -0.1831
vn -0.2733 -0.9440 -0.1850
vn 0.0009 0.6641 0.7476
vn -0.0000 0.9490 0.3153
vn 0.0033 0.9500 0.3122
vn -0.0009 0.9859 0.1674
vn 0.1150 -0.9741 0.1946
vn -0.1166 -0.9727 0.2006
vn -0.0003 0.9685 -0.2492
vn -0.0005 -0.9917 -0.1286
vn -0.6294 -0.7368 -0.2471
vn 0.6315 -0.7347 -0.2477
vn -0.4583 -0.8758 0.1515
vn 0.4548 -0.8759 0.1609
vn 0.0046 -0.9629 0.2698
vn 0.7020 0.6983 -0.1402
vn 0.9122 0.4068 0.0487
vn 0.6964 0.7079 0.1180
vn 0.9934 0.0838 0.0782
vn 0.0054 -0.9996 0.0292
vn -0.6808 0.7202 -0.1339
vn -0.9111 0.4113 0.0259
vn -0.5339 0.8362 0.1258
vn -0.9610 0.2597 0.0949
vn -0.0067 -0.9917 0.1285
vn 0.0345 0.9994 0.0099
vn -0.9988 0.0462 -0.0179
vn 0.9944 0.1041 -0.0178
vn 0.6528 -0.7570 0.0282
vn -0.6360 -0.7713 0.0247
vn -0.5690 0.8187 -0.0771
vn -0.4478 0.5813 0.6794
vn -0.9583 0.2609 -0.1165
vn -0.5764 0.7866 -0.2213
vn -0.9758 0.2116 -0.0553
vn 0.7500 -0.0163 0.6612
vn 0.9881 -0.0284 -0.1514
vn 0.9980 0.0111 -0.0615
vn 0.5412 0.4114 0.7334
vn 0.6957 0.7176 -0.0326
vn -0.7554 0.1662 0.6339
vn 0.7301 0.6471 -0.2195
vn 0.0119 -0.7161 -0.6979
vn -0.0530 -0.4965 -0.8664
vn -0.5657 -0.6961 -0.4421
vn -0.5299 -0.2941 -0.7954
vn 0.7529 -0.1509 0.6406
vn 0.3176 -0.4329 -0.8436
vn 0.6187 -0.6946 -0.3670
vn -0.7129 -0.1656 0.6814
vn 0.9808 -0.0383 -0.1914
vn -0.5842 -0.5848 0.5628
vn -0.5794 -0.6011 -0.5504
vn 0.3543 -0.7670 0.5349
vn 0.4363 -0.7227 -0.5360
vn -0.7500 -0.2909 -0.5940
vn 0.6615 -0.3175 -0.6794
vn -0.7993 0.3118 0.5138
vn -0.6287 0.7733 0.0823
vn 0.6432 0.7553 0.1259
vn 0.9556 0.2357 0.1769
vn 0.9864 0.1599 0.0368
vn -0.0265 -0.9850 0.1705
vn -0.5583 -0.8239 0.0975
vn 0.9009 0.4162 0.1227
vn 0.9947 -0.0309 -0.0976
vn 0.3636 0.8986 0.2456
vn 0.5924 -0.8056 0.0066
vn 0.4183 0.8939 0.1613
vn 0.9240 0.3780 0.0572
vn 0.4795 -0.8751 0.0650
vn 0.9727 0.1726 0.1552
vn 0.7771 0.6217 0.0979
vn 0.0236 0.9861 0.1642
vn -0.7790 0.6128 0.1324
vn -0.0246 -0.9936 0.1101
vn 0.9522 0.2761 0.1309
vn -0.9756 0.1942 0.1022
vn -0.7212 0.6760 0.1509
vn 0.0701 0.9889 0.1313
vn 0.4990 -0.8574 0.1258
vn 0.8233 -0.5670 0.0263
vn -0.9642 0.2539 0.0763
vn -0.8223 -0.5663 0.0562
vn -0.9904 0.1263 0.0563
vn -0.4652 -0.8851 0.0130
vn 0.8402 -0.5413 -0.0319
vn 0.5572 -0.8043 0.2063
vn 0.4544 -0.8908 0.0042
vn 0.5226 -0.8472 0.0960
vn -0.5973 -0.8007 0.0456
vn 0.7417 0.6598 0.1207
vn 0.9980 0.0553 -0.0310
vn -0.4490 -0.8781 0.1656
vn 0.0170 -0.9609 0.2765
vn -0.7033 0.6974 -0.1381
vn -0.9135 0.4043 0.0448
vn -0.6972 0.7075 0.1154
vn -0.9932 0.0839 0.0813
vn 0.0260 -0.9987 0.0440
vn 0.6753 0.7232 -0.1447
vn 0.9152 0.4023 0.0238
vn 0.5320 0.8378 0.1225
vn 0.9614 0.2598 0.0902
vn 0.0316 -0.9910 0.1303
vn -0.0336 0.9994 0.0062
vn 0.4866 -0.8596 0.1557
vn -0.9961 0.0874 -0.0151
vn -0.6280 -0.7776 0.0305
vn 0.6621 -0.7491 0.0202
vn 0.5667 0.8198 -0.0825
vn 0.4592 0.5801 0.6728
vn -0.3151 -0.4264 -0.8479
vn 0.9577 0.2618 -0.1194
vn 0.5740 0.7882 -0.2218
vn 0.5252 -0.2817 -0.8030
vn -0.7492 -0.0169 0.6622
vn -0.9983 0.0093 -0.0582
vn -0.5546 0.4132 0.7223
vn -0.6927 0.7202 -0.0400
vn 0.7572 0.1668 0.6315
vn 0.0170 -0.7412 -0.6711
vn -0.7333 0.6444 -0.2170
vn 0.0604 -0.4933 -0.8678
vn -0.9879 -0.0287 -0.1521
vn 0.5727 -0.6932 -0.4375
vn 0.9754 0.2117 -0.0616
vn -0.7531 -0.1479 0.6411
vn -0.5797 -0.7231 -0.3756
vn 0.7158 -0.1644 0.6787
vn -0.9806 -0.0386 -0.1921
vn 0.5824 -0.5867 0.5627
vn 0.5769 -0.6027 -0.5513
vn -0.3540 -0.7674 0.5347
vn -0.4365 -0.7225 -0.5361
vn 0.7532 -0.2843 -0.5932
vn -0.6680 -0.3114 -0.6759
vn 0.4547 0.7204 -0.5237
vn 0.8976 0.0310 -0.4397
vn -0.7724 -0.3533 -0.5278
vn -0.4547 0.7233 -0.5198
vn -0.8841 0.0267 -0.4665
vn 0.7929 -0.3454 -0.5019
vn 0.8594 0.5072 0.0644
vn -0.8626 0.5018 0.0640
vn -0.5500 0.8254 0.1274
vn -0.5114 0.8058 -0.2986
vn 0.5400 0.8318 0.1285
vn 0.5262 0.7992 -0.2905
vn -0.8786 0.2992 -0.3722
vn 0.8983 0.3029 -0.3183
vn -0.6555 -0.7544 0.0348
vn 0.6568 -0.7532 0.0371
vn 0.0005 -0.9991 0.0416
vn -0.0010 0.9922 0.1246
vn 0.0028 0.9702 -0.2422
vn -0.0016 0.8750 -0.4841
vn -0.5511 -0.8180 -0.1646
vn 0.5502 -0.8192 -0.1618
vn 0.9313 -0.3627 0.0348
vn -0.9319 -0.3614 0.0310
vn -0.9635 -0.2056 0.1714
vn 0.9619 -0.2326 0.1439
vn 0.9707 -0.1946 0.1408
vn -0.9725 -0.1862 0.1402
vn 0.6307 -0.7484 0.2052
vn -0.6367 -0.7433 0.2053
vn 0.0010 -0.9984 0.0568
vn 0.3874 -0.9094 0.1514
vn -0.3875 -0.9092 0.1522
vn -0.3654 -0.8883 -0.2783
vn 0.3549 -0.8911 -0.2829
vn -0.9402 -0.3175 0.1236
vn 0.9338 -0.3360 0.1226
vn 0.0011 -0.9363 -0.3512
vn 0.0006 -0.9986 -0.0520
vn 0.8958 0.4062 0.1802
vn -0.9081 0.3786 0.1790
vn 0.5582 0.8231 0.1050
vn -0.5758 0.8107 0.1055
vn -0.0007 0.9990 -0.0440
vn 0.3350 0.7338 -0.5910
vn -0.3422 0.7345 -0.5860
vn -0.0944 -0.6336 -0.7679
vn 0.6867 -0.6139 -0.3893
vn -0.2822 -0.8371 -0.4687
vn 0.0916 -0.6408 -0.7622
vn -0.6854 -0.6131 -0.3929
vn 0.2826 -0.8363 -0.4698
vn 0.4641 0.8846 -0.0452
vn -0.4711 0.8809 -0.0443
vn 0.8459 0.4532 0.2811
vn -0.9488 -0.2839 0.1386
vn 0.2038 0.5704 -0.7957
vn -0.2023 0.5690 -0.7971
vn -0.1466 -0.5402 -0.8287
vn 0.9773 -0.1964 -0.0791
vn -0.5152 -0.8448 -0.1443
vn 0.1436 -0.5389 -0.8300
vn 0.4402 -0.8697 -0.2233
vn -0.9736 -0.2262 -0.0322
vn -0.2978 0.9362 -0.1867
vn 0.9361 0.3471 -0.0559
vn -0.9444 0.3192 -0.0784
vn 0.3579 0.9201 -0.1593
vn 0.9556 -0.2675 0.1235
vn 0.0782 0.0070 -0.9969
vn -0.8462 0.4420 0.2976
vn -0.0835 -0.0010 -0.9965
vn -0.0008 0.9552 -0.2960
vn 0.8553 -0.3248 -0.4037
vn -0.8592 -0.3231 -0.3968
vn 0.7711 -0.4879 -0.4091
vn 0.8680 0.0082 -0.4964
vn -0.0535 0.7655 -0.6412
vn -0.7691 -0.4889 -0.4118
vn 0.0108 -0.5093 -0.8605
vn -0.0006 -0.9742 -0.2256
vn 0.3392 0.7488 -0.5695
vn -0.3432 0.7538 -0.5603
vn 0.0557 0.7563 -0.6519
vn -0.8666 0.0038 -0.4990
vn -0.0046 0.1264 -0.9920
vn -0.1468 -0.4097 -0.9003
vn -0.4982 0.1198 -0.8587
vn -0.1629 -0.0473 -0.9855
vn 0.1423 -0.4080 -0.9018
vn 0.4864 0.1217 -0.8652
vn 0.1630 -0.0477 -0.9855
vn -0.8399 0.5296 -0.1190
vn -0.1929 0.9812 0.0096
vn 0.8396 0.5205 -0.1550
vn 0.7375 -0.6592 -0.1468
vn -0.9093 -0.3935 -0.1355
vn -0.7364 0.6598 0.1498
vn -0.0296 0.9978 0.0592
vn 0.3775 -0.9255 0.0321
vn -0.7225 -0.6716 0.1642
vn 0.9939 -0.0959 -0.0547
vn 0.7197 -0.5601 -0.4102
vn 0.7167 0.5691 -0.4030
vn 0.5914 -0.0817 -0.8022
vn -0.0807 -0.9322 -0.3529
vn 0.2435 0.9657 -0.0904
vn -0.6397 -0.0637 -0.7660
vn -0.5645 -0.8211 0.0844
vn 0.8191 -0.5736 -0.0051
vn 0.2785 0.2281 0.9330
vn -0.4301 -0.8946 0.1216
vn -0.8295 -0.5377 0.1510
vn -0.7550 0.6419 0.1340
vn -0.1248 0.9902 0.0622
vn 0.3210 -0.1822 0.9294
vn -0.0490 -0.2438 0.9686
vn 0.3169 0.1599 0.9349
vn 0.1782 0.3444 0.9218
vn -0.7495 0.6579 0.0741
vn -0.1723 -0.1818 0.9681
vn 0.3026 0.9442 -0.1304
vn 0.9804 0.1955 -0.0235
vn -0.2344 -0.9524 0.1950
vn 0.0026 -0.9991 0.0413
vn 0.5366 -0.6090 -0.5841
vn -0.0393 0.9635 -0.2650
vn 0.2225 -0.9738 -0.0473
vn 0.3460 -0.1425 0.9273
vn 0.8071 0.5900 -0.0210
vn 0.3284 -0.9444 0.0153
vn 0.1975 -0.3892 0.8998
vn -0.0456 -0.2412 0.9694
vn -0.2855 -0.1035 0.9528
vn -0.2304 0.1638 0.9592
vn 0.0369 0.3221 0.9460
vn 0.2731 0.9618 -0.0192
vn 0.1726 0.3342 0.9265
vn 0.7742 -0.6229 -0.1125
vn 0.1981 -0.3971 0.8961
vn 0.2514 -0.9658 -0.0632
vn -0.4701 -0.8794 0.0745
vn 0.8149 0.5631 -0.1374
vn 0.3089 0.9472 -0.0854
vn 0.0341 0.3277 0.9442
vn -0.1814 0.9828 -0.0347
vn -0.1514 0.2300 0.9613
vn -0.8296 -0.5430 0.1302
vn 0.8398 0.5309 -0.1136
vn -0.3034 0.9444 -0.1270
vn -0.8393 0.5216 -0.1535
vn -0.7366 -0.6597 -0.1489
vn 0.9092 -0.3940 -0.1344
vn 0.7448 0.6549 0.1284
vn -0.9806 0.1943 -0.0249
vn 0.1996 -0.9638 0.1769
vn 0.7196 -0.6811 0.1352
vn -0.9941 -0.0964 -0.0491
vn -0.7195 -0.5604 -0.4102
vn -0.7168 0.5689 -0.4032
vn -0.5912 -0.0819 -0.8023
vn 0.0414 -0.9230 -0.3826
vn -0.2324 0.9646 -0.1243
vn 0.6383 -0.0634 -0.7672
vn 0.5632 -0.8223 0.0816
vn -0.8126 -0.5829 -0.0054
vn -0.8052 0.5927 -0.0182
vn 0.4036 -0.9078 0.1138
vn 0.2289 0.1570 0.9607
vn 0.8236 -0.5473 0.1484
vn 0.1237 0.9899 0.0695
vn -0.8171 0.5607 -0.1343
vn -0.7691 -0.6282 -0.1178
vn -0.2453 -0.9672 -0.0663
vn -0.0361 0.3182 0.9473
vn 0.1431 0.2259 0.9636
vn 0.8246 -0.5507 0.1292
vn 0.1931 0.9811 0.0151
vn 0.0368 0.9988 0.0311
vn -0.3354 -0.9416 0.0290
vn -0.0148 -0.9999 0.0073
vn -0.6130 -0.6775 -0.4065
vn 0.0719 0.9645 -0.2540
vn -0.2219 -0.9739 -0.0478
vn -0.3485 -0.1540 0.9246
vn -0.2788 0.2182 0.9352
vn -0.1934 -0.3907 0.9000
vn 0.0401 -0.2463 0.9684
vn -0.3074 -0.9514 0.0195
vn 0.7528 0.6433 0.1396
vn 0.2775 -0.1097 0.9544
vn -0.2744 0.9615 -0.0126
vn -0.1702 0.3253 0.9302
vn -0.0389 0.3129 0.9490
vn -0.3143 0.1626 0.9353
vn -0.3282 -0.1882 0.9257
vn 0.0450 -0.2502 0.9671
vn -0.1938 -0.3967 0.8973
vn 0.4569 -0.8867 0.0714
vn 0.1801 0.9833 -0.0270
vn -0.1757 0.3351 0.9256
vn -0.3102 0.9474 -0.0786
vn 0.7503 0.6562 0.0801
vn 0.1782 -0.1846 0.9665
vn 0.7172 0.6855 0.1254
vn 0.0235 0.9959 0.0876
vn 0.0447 -0.9827 -0.1796
vn 0.7138 -0.6983 -0.0533
vn 0.8038 0.5776 0.1423
vn 0.1401 0.9822 0.1253
vn 0.1489 -0.9805 -0.1280
vn 0.7075 -0.7061 0.0307
vn 0.5165 0.5496 0.6566
vn 0.5043 -0.6686 0.5465
vn -0.0881 -0.9227 0.3753
vn -0.0924 0.8550 0.5103
vn -0.9940 0.0786 -0.0766
vn 0.0567 -0.1147 0.9918
vn 0.0650 0.9859 0.1540
vn -0.9673 0.2120 -0.1390
vn -0.9836 0.0049 -0.1803
vn -0.8347 0.5503 0.0223
vn -0.9152 -0.3996 -0.0521
vn -0.9533 -0.0813 0.2910
vn -0.9443 0.0123 0.3287
vn -0.5750 -0.1077 0.8110
vn -0.7274 0.6691 0.1523
vn -0.0141 0.9918 0.1273
vn -0.0591 -0.9792 -0.1941
vn -0.7168 -0.6940 -0.0674
vn -0.8039 0.5772 0.1434
vn -0.1403 0.9822 0.1252
vn -0.1530 -0.9781 -0.1413
vn -0.7069 -0.7069 0.0251
vn -0.5149 0.5491 0.6583
vn -0.5044 -0.6693 0.5456
vn 0.0878 -0.9248 0.3702
vn 0.0928 0.8509 0.5171
vn 0.9939 0.0759 -0.0801
vn 0.5816 -0.1071 0.8064
vn -0.0579 0.9719 0.2283
vn 0.9679 0.2123 -0.1349
vn 0.9822 0.0058 -0.1877
vn 0.8346 0.5505 0.0209
vn 0.9141 -0.4013 -0.0583
vn 0.9538 -0.0809 0.2895
vn 0.9473 0.0139 0.3200
vn -0.0557 -0.1256 0.9905
vn -0.1371 -0.6746 0.7253
vn -0.3874 -0.9209 0.0421
vn -0.5720 -0.8028 0.1685
vn -0.3149 -0.8432 0.4357
vn -0.6628 -0.7482 0.0277
vn -0.5377 -0.8218 0.1884
vn -0.7446 -0.6675 0.0099
vn -0.7263 -0.6766 0.1210
vn -0.8110 -0.5848 -0.0185
vn -0.4655 -0.1435 0.8733
vn -0.7020 -0.7121 0.0053
vn -0.8486 -0.4984 0.1774
vn -0.7073 -0.6912 0.1482
vn -0.7672 -0.5177 0.3787
vn -0.6166 0.0860 0.7826
vn -0.6028 -0.7930 0.0887
vn -0.3086 -0.8727 0.3783
vn -0.2815 -0.9286 -0.2418
vn -0.7506 -0.5592 -0.3521
vn -0.6889 -0.6448 0.3311
vn -0.5387 -0.8387 0.0797
vn -0.2132 -0.9697 0.1193
vn -0.6655 -0.7085 0.2350
vn -0.5429 -0.7299 0.4153
vn -0.6827 -0.6038 0.4116
vn 0.5709 -0.8037 0.1678
vn 0.7446 -0.6675 0.0099
vn 0.8406 -0.5044 0.1976
vn 0.4069 -0.9113 0.0635
vn -0.0000 -0.5771 0.8166
vn -0.0000 -0.9188 0.3947
vn -0.0000 -0.9523 0.3053
vn -0.0000 -0.9337 0.3580
vn -0.0000 -0.9735 -0.2287
vn -0.0000 -0.9967 -0.0812
vn -0.0000 0.3005 0.9538
vn -0.0000 -0.8683 0.4960
vn -0.0000 -0.9440 0.3298
vn -0.0000 0.5618 0.8273
vn -0.0000 -0.0785 0.9969
vn -0.0000 -0.9950 0.0996
vn -0.0000 -0.9757 -0.2191
vn -0.0000 -0.8880 -0.4598
vn -0.0000 -0.8399 -0.5427
vn -0.0000 -0.9921 0.1253
vn -0.0000 -0.6389 0.7693
vn -0.0000 -0.9758 0.2188
vn 0.1259 -0.6867 0.7160
vn 0.3109 -0.8628 0.3986
vn 0.6628 -0.7483 0.0277
vn 0.5377 -0.8218 0.1884
vn 0.7338 -0.6725 0.0957
vn 0.8110 -0.5848 -0.0185
vn 0.4656 -0.1435 0.8733
vn 0.7021 -0.7121 0.0053
vn 0.7074 -0.6911 0.1482
vn 0.7672 -0.5177 0.3786
vn 0.6166 0.0860 0.7826
vn 0.6028 -0.7929 0.0888
vn 0.3086 -0.8727 0.3783
vn 0.2918 -0.9243 -0.2459
vn 0.7506 -0.5591 -0.3522
vn 0.6889 -0.6448 0.3311
vn 0.5387 -0.8387 0.0797
vn 0.2132 -0.9697 0.1193
vn 0.6655 -0.7085 0.2350
vn 0.5429 -0.7299 0.4153
vn 0.6827 -0.6038 0.4116
vn 0.4061 -0.7138 0.5706
vn -0.4061 -0.7138 0.5706
vn 0.3245 -0.9430 -0.0735
vn -0.3246 -0.9430 -0.0734
vn 0.3706 -0.9112 0.1799
vn -0.3706 -0.9112 0.1799
vn -0.4237 0.4718 0.7732
vn -0.4067 -0.7803 -0.4751
vn -0.9635 -0.0715 -0.2581
vn -0.4508 0.4705 -0.7585
vn -0.5337 -0.7502 0.3905
vn -0.3619 0.9273 -0.0959
vn -0.7988 0.6012 -0.0202
vn 0.0721 -0.2039 -0.9763
vn 0.1251 -0.8720 -0.4733
vn -0.2707 -0.9557 0.1159
vn 0.3632 -0.9157 0.1719
vn -0.8930 0.2911 -0.3433
vn -0.8435 -0.0318 -0.5363
vn -0.9661 0.2563 -0.0307
vn -0.9787 -0.2027 -0.0314
vn -0.2382 -0.5567 0.7958
vn -0.5945 0.7178 -0.3625
vn 0.3479 -0.2744 0.8965
vn -0.4714 0.2759 0.8376
vn -0.8021 -0.5644 -0.1952
vn -0.1635 0.8907 -0.4242
vn 0.0347 0.0988 -0.9945
vn -0.0223 -0.3087 0.9509
vn 0.0005 0.5123 -0.8588
vn -0.2955 0.8985 0.3247
vn -0.0061 0.1452 0.9894
vn 0.4361 0.4673 0.7691
vn 0.4778 -0.1621 -0.8634
vn 0.4161 -0.7773 -0.4718
vn 0.9701 -0.0613 -0.2348
vn 0.4560 0.4653 -0.7586
vn 0.6146 -0.7246 0.3117
vn -0.0000 0.9923 -0.1236
vn 0.8137 0.5811 -0.0128
vn -0.0693 -0.2032 -0.9767
vn -0.1278 -0.8709 -0.4745
vn 0.0554 -0.9896 0.1326
vn 0.4140 0.0744 -0.9072
vn -0.4560 -0.8730 0.1729
vn 0.9027 0.2779 -0.3284
vn 0.8503 -0.0399 -0.5248
vn 0.9688 0.2471 -0.0215
vn 0.9608 -0.2757 -0.0307
vn 0.2193 -0.5596 0.7992
vn 0.5997 0.7148 -0.3598
vn -0.3651 -0.2747 0.8895
vn 0.4549 0.2714 0.8482
vn 0.0019 -0.9985 -0.0542
vn 0.0035 -0.2142 -0.9768
vn -0.4248 0.0790 -0.9019
vn 0.8037 -0.5724 -0.1627
vn -0.4880 -0.1635 -0.8574
vn 0.2219 0.8382 -0.4983
vn -0.0350 0.0989 -0.9945
vn 0.0188 -0.3101 0.9505
vn -0.0006 0.5124 -0.8588
vn 0.3660 0.8322 0.4164
vn 0.0054 0.1464 0.9892
vn 0.5757 0.8146 -0.0702
vn -0.5923 0.7828 0.1908
vn 0.7772 0.6293 -0.0048
vn 0.6941 -0.7158 -0.0773
vn -0.6198 -0.7802 0.0843
vn -0.7024 0.5944 0.3915
vn 0.8250 0.3776 -0.4204
vn 0.8129 -0.1287 -0.5680
vn -0.8444 -0.4791 -0.2396
vn -0.7165 -0.6872 0.1201
vn 0.2567 0.8177 0.5153
vn -0.2435 -0.5985 0.7633
vn -0.5258 -0.3187 0.7887
vn 0.5923 0.7828 0.1908
vn -0.7772 0.6293 -0.0048
vn -0.6941 -0.7158 -0.0773
vn 0.6198 -0.7802 0.0843
vn 0.7024 0.5944 0.3915
vn -0.8250 0.3776 -0.4204
vn -0.8129 -0.1287 -0.5680
vn 0.8444 -0.4791 -0.2396
vn 0.7165 -0.6872 0.1201
vn -0.2567 0.8177 0.5153
vn 0.2435 -0.5985 0.7633
vn 0.5258 -0.3187 0.7887
vt 0.612984 0.418955
vt 0.662581 0.418891
vt 0.627144 0.347229
vt 0.665647 0.373324
vt 0.655314 0.339074
vt 0.568677 0.430628
vt 0.538134 0.430615
vt 0.548662 0.546760
vt 0.916714 0.418934
vt 0.879111 0.430561
vt 0.860506 0.418973
vt 0.959321 0.418969
vt 0.939909 0.430561
vt 0.955812 0.373406
vt 0.914670 0.360129
vt 0.914764 0.316079
vt 0.954525 0.313468
vt 0.870560 0.313452
vt 0.864045 0.358721
vt 0.528253 0.430537
vt 0.530399 0.545348
vt 0.534139 0.418895
vt 0.589915 0.345459
vt 0.537678 0.358638
vt 0.544195 0.313363
vt 0.957084 0.339159
vt 0.585227 0.307645
vt 0.577039 0.235822
vt 0.597039 0.092684
vt 0.559134 0.092654
vt 0.864867 0.092767
vt 0.911498 0.092754
vt 0.627238 0.307581
vt 0.652754 0.313379
vt 0.637179 0.235286
vt 0.640722 0.092655
vt 0.610021 0.092686
vt 0.949031 0.092767
vt 0.604883 0.234351
vt 0.915265 0.302930
vt 0.640585 0.080161
vt 0.614739 0.046470
vt 0.610300 0.080192
vt 0.657984 0.049510
vt 0.867262 0.070146
vt 0.962423 0.052206
vt 0.910950 0.080262
vt 0.561529 0.070031
vt 0.589799 0.046468
vt 0.558043 0.053288
vt 0.596916 0.080190
vt 0.559270 0.080161
vt 0.613352 0.028149
vt 0.594001 0.028145
vt 0.658090 -0.001970
vt 0.555148 -0.001970
vt 0.925656 0.026545
vt 0.962529 -0.001850
vt 0.953915 0.045479
vt 0.872593 0.047739
vt 0.863776 0.055983
vt 0.891340 0.027280
vt 0.926114 0.014557
vt 0.892611 0.014548
vt 0.860881 -0.001850
vt 0.865003 0.080275
vt 0.948895 0.080275
vt 0.616060 0.572222
vt 0.662218 0.595414
vt 0.671480 0.430533
vt 0.577969 0.557845
vt 0.625964 0.430609
vt 0.571111 0.418970
vt 0.543580 0.418961
vt 0.929999 0.592943
vt 0.869913 0.564374
vt 0.854620 0.430615
vt 0.849723 0.543989
vt 0.962277 0.595472
vt 0.929725 0.604297
vt 0.523355 0.543925
vt 0.388526 0.373521
vt 0.385476 0.418890
vt 0.429114 0.347211
vt 0.400739 0.313381
vt 0.398522 0.339173
vt 0.465286 0.345441
vt 0.476444 0.418969
vt 0.789620 0.418933
vt 0.735399 0.418967
vt 0.792207 0.360164
vt 0.828097 0.313452
vt 0.834131 0.358722
vt 0.503322 0.418960
vt 0.511428 0.418894
vt 0.837798 0.418971
vt 0.792209 0.316104
vt 0.744368 0.339259
vt 0.746585 0.313470
vt 0.501726 0.313363
vt 0.507762 0.358638
vt 0.766389 0.430560
vt 0.819033 0.430560
vt 0.517494 0.430536
vt 0.734374 0.373603
vt 0.469270 0.307690
vt 0.476540 0.236025
vt 0.487922 0.092729
vt 0.458011 0.092758
vt 0.844596 0.092841
vt 0.795902 0.092828
vt 0.428346 0.307627
vt 0.416931 0.235497
vt 0.445032 0.092760
vt 0.402751 0.092729
vt 0.750763 0.092841
vt 0.448942 0.234659
vt 0.791696 0.302867
vt 0.842070 0.070174
vt 0.735327 0.052169
vt 0.845577 0.055947
vt 0.441125 0.028250
vt 0.465141 0.046584
vt 0.461616 0.028245
vt 0.440199 0.046585
vt 0.402749 0.080253
vt 0.444735 0.080284
vt 0.796412 0.080355
vt 0.458117 0.080282
vt 0.487639 0.080253
vt 0.485396 0.070059
vt 0.385055 -0.001870
vt 0.385379 0.049474
vt 0.491798 -0.001870
vt 0.488903 0.053251
vt 0.743612 0.045443
vt 0.733713 -0.001750
vt 0.781116 0.026509
vt 0.780658 0.014657
vt 0.813501 0.027243
vt 0.812230 0.014648
vt 0.848472 -0.001750
vt 0.836962 0.047702
vt 0.750760 0.080367
vt 0.844313 0.080367
vt 0.375026 0.430532
vt 0.380399 0.595437
vt 0.431150 0.572096
vt 0.428985 0.430608
vt 0.469446 0.557566
vt 0.497505 0.546476
vt 0.478415 0.430628
vt 0.508658 0.430614
vt 0.516329 0.545370
vt 0.770895 0.593038
vt 0.829041 0.563569
vt 0.770162 0.604303
vt 0.843862 0.430613
vt 0.740233 0.595496
vt 0.725866 0.430609
vt 0.522715 0.634612
vt 0.463768 0.672734
vt 0.523595 0.672743
vt 0.523421 0.582664
vt 0.588270 0.634610
vt 0.583167 0.579931
vt 0.457246 0.634604
vt 0.523373 0.553724
vt 0.552167 0.566238
vt 0.493537 0.566245
vt 0.430728 0.647136
vt 0.420525 0.674671
vt 0.428465 0.588482
vt 0.463668 0.579925
vt 0.583421 0.672738
vt 0.616905 0.647376
vt 0.625918 0.674675
vt 0.665808 0.675914
vt 0.666121 0.649427
vt 0.617877 0.588427
vt 0.812309 0.604288
vt 0.371454 0.649421
vt 0.926847 0.649480
vt 0.896010 0.646806
vt 0.849886 0.675949
vt 0.804415 0.646807
vt 0.773536 0.649474
vt 0.919430 0.675964
vt 0.371156 0.675924
vt 0.785499 0.675974
vt 0.887585 0.604285
vt 0.574635 0.694588
vt 0.600799 0.738293
vt 0.656965 0.735651
vt 0.471468 0.694757
vt 0.395663 0.736009
vt 0.450221 0.738502
vt 0.414749 0.693310
vt 0.634839 0.693213
vt 0.523051 0.694679
vt 0.523679 0.738404
vt 0.917428 0.731707
vt 0.957136 0.735694
vt 0.749182 0.736052
vt 0.787395 0.731707
vt 0.849833 0.730827
vt 0.948266 0.693261
vt 0.758133 0.693358
vt 0.725353 0.816042
vt 0.978649 0.816042
vt 0.783643 0.773763
vt 0.928944 0.773763
vt 0.849846 0.776050
vt 0.391820 0.816008
vt 0.425045 0.844844
vt 0.659137 0.816007
vt 0.623435 0.844844
vt 0.523612 0.849424
vt 0.850095 0.824518
vt 0.831141 0.906484
vt 0.788373 0.826157
vt 0.783682 0.930154
vt 0.725088 0.930460
vt 0.791286 0.801075
vt 0.756163 0.821093
vt 0.869345 0.906471
vt 0.956831 0.870698
vt 0.954634 0.904585
vt 0.916998 0.930088
vt 0.976262 0.930449
vt 0.916975 0.826157
vt 0.913536 0.801075
vt 0.955946 0.821093
vt 0.849832 0.802716
vt 0.749455 0.870619
vt 0.978205 0.857800
vt 0.395413 0.857787
vt 0.416182 0.871144
vt 0.640099 0.871196
vt 0.524220 0.934873
vt 0.639992 0.926015
vt 0.414971 0.926097
vt 0.487311 0.930131
vt 0.746707 0.904600
vt 0.404658 0.950436
vt 0.560633 0.930066
vt 0.892953 0.985724
vt 0.850481 0.978958
vt 0.784123 0.995969
vt 0.808009 0.985724
vt 0.540686 0.995771
vt 0.507753 0.995953
vt 0.917052 0.995786
vt 0.850020 0.998932
vt 0.523652 0.998917
vt 0.727361 0.857818
vt 0.649346 0.950424
vt 0.656462 0.857769
vt 0.070412 0.178660
vt 0.035222 0.188443
vt 0.041721 0.254019
vt 0.079135 0.253749
vt 0.115906 0.180199
vt 0.126310 0.239153
vt 0.134643 0.196075
vt 0.147879 0.238532
vt 0.101043 0.052193
vt 0.119696 0.053283
vt 0.072550 0.056211
vt 0.053254 0.057269
vt 0.262276 0.198032
vt 0.298550 0.196075
vt 0.301786 0.238532
vt 0.235628 0.244019
vt 0.219129 0.188442
vt 0.227161 0.057269
vt 0.273603 0.053283
vt 0.086192 0.048612
vt 0.250099 0.048612
vt 0.045021 0.286113
vt 0.051287 0.352815
vt 0.079924 0.264552
vt 0.140210 0.357773
vt 0.164677 0.357732
vt 0.133774 0.352839
vt 0.127591 0.257959
vt 0.156862 0.352803
vt 0.327034 0.407371
vt 0.292486 0.407393
vt 0.295612 0.357685
vt 0.244663 0.352771
vt 0.228928 0.286113
vt 0.237573 0.254550
vt 0.240941 0.409920
vt 0.239195 0.357691
vt 0.303021 0.259031
vt 0.292409 0.352768
vt 0.047890 0.414934
vt 0.075613 0.418487
vt 0.074303 0.357773
vt 0.043666 0.264550
vt 0.292259 0.446408
vt 0.163581 0.449774
vt 0.106883 0.468489
vt 0.166174 0.483130
vt 0.138333 0.418578
vt 0.163127 0.407371
vt 0.269282 0.466742
vt 0.297989 0.494859
vt 0.249286 0.445995
vt 0.275277 0.498896
vt 0.217670 0.479018
vt 0.221846 0.448621
vt 0.249609 0.500931
vt 0.047938 0.448621
vt 0.080429 0.352839
vt 0.043763 0.479018
vt 0.103686 0.425038
vt 0.327488 0.449774
vt 0.221797 0.414933
vt 0.218611 0.357750
vt 0.139484 0.244329
vt 0.149114 0.259031
vt 0.070860 0.861110
vt 0.043482 0.785701
vt 0.035600 0.851230
vt 0.080951 0.786078
vt 0.116355 0.859511
vt 0.126622 0.800610
vt 0.135010 0.843512
vt 0.148146 0.801134
vt 0.101636 0.987538
vt 0.120259 0.986388
vt 0.073138 0.983555
vt 0.053813 0.982435
vt 0.262614 0.841548
vt 0.302054 0.801134
vt 0.298918 0.843512
vt 0.237389 0.795701
vt 0.219507 0.851230
vt 0.227720 0.982435
vt 0.274167 0.986388
vt 0.250297 0.991101
vt 0.086390 0.991101
vt 0.051450 0.687512
vt 0.081668 0.775128
vt 0.081344 0.687536
vt 0.074882 0.681966
vt 0.044841 0.681943
vt 0.138420 0.621138
vt 0.140788 0.681966
vt 0.163201 0.632257
vt 0.150814 0.780504
vt 0.157748 0.687500
vt 0.129341 0.781679
vt 0.296129 0.681878
vt 0.329136 0.681925
vt 0.293274 0.687465
vt 0.239264 0.785028
vt 0.245527 0.687467
vt 0.239715 0.681885
vt 0.225357 0.687511
vt 0.229178 0.753608
vt 0.045271 0.753608
vt 0.045357 0.775028
vt 0.221833 0.591159
vt 0.249240 0.593626
vt 0.240979 0.629713
vt 0.163562 0.589914
vt 0.106982 0.571710
vt 0.047926 0.591159
vt 0.075703 0.621300
vt 0.327108 0.632257
vt 0.292206 0.593154
vt 0.327469 0.589914
vt 0.292517 0.632160
vt 0.269227 0.572864
vt 0.134691 0.687536
vt 0.103782 0.614733
vt 0.044439 0.561847
vt 0.249614 0.538752
vt 0.275354 0.540757
vt 0.047967 0.624837
vt 0.297992 0.544755
vt 0.320258 0.556100
vt 0.218748 0.681943
vt 0.221875 0.624836
vt 0.304721 0.780504
vt 0.140491 0.795329
vt 0.166351 0.556100
vt 0.218346 0.561847
vt 0.320081 0.483130
vt 0.968219 0.430610
vt 0.440325 0.418954
vt 0.225195 0.352815
vt 0.320769 0.352803
vt 0.044703 0.357750
vt 0.165229 0.681925
vt 0.321655 0.687500
vt 0.328584 0.357732
vt 0.374983 0.460782
vt 0.467432 0.403396
vt 0.388671 0.306703
vt 0.391613 0.628892
vt 0.354888 0.691154
vt 0.447732 0.684038
vt 0.504584 0.397463
vt 0.503648 0.378425
vt 0.427344 0.597998
vt 0.454807 0.610009
vt 0.490873 0.570801
vt 0.414958 0.551079
vt 0.476411 0.551738
vt 0.487173 0.427460
vt 0.415500 0.518368
vt 0.489046 0.452913
vt 0.368656 0.550420
vt 0.273860 0.599021
vt 0.355546 0.188803
vt 0.276451 0.266355
vt 0.273004 0.365803
vt 0.411605 0.748523
vt 0.446331 0.308454
vt 0.467276 0.249625
vt 0.481865 0.349501
vt 0.494195 0.349841
vt 0.476831 0.314642
vt 0.503710 0.610011
vt 0.503681 0.576166
vt 0.503205 0.458765
vt 0.503429 0.540999
vt 0.466732 0.198099
vt 0.503806 0.685007
vt 0.502969 0.430403
vt 0.504246 0.149457
vt 0.458201 0.158172
vt 0.503885 0.162307
vt 0.476344 0.286349
vt 0.503406 0.342505
vt 0.503501 0.314638
vt 0.503680 0.249429
vt 0.510206 0.178043
vt 0.510567 0.004533
vt 0.503444 0.280044
vt 0.503624 0.216352
vt 0.504685 0.768828
vt 0.629570 0.460782
vt 0.616906 0.306704
vt 0.541301 0.403396
vt 0.613475 0.628892
vt 0.558983 0.684038
vt 0.650331 0.691274
vt 0.531488 0.551738
vt 0.516637 0.570801
vt 0.579655 0.597998
vt 0.591687 0.551079
vt 0.518890 0.427461
vt 0.591209 0.518369
vt 0.517458 0.452913
vt 0.635950 0.550421
vt 0.723602 0.599021
vt 0.650214 0.188804
vt 0.718080 0.266355
vt 0.721756 0.363594
vt 0.594978 0.748523
vt 0.540426 0.249625
vt 0.560619 0.308454
vt 0.524955 0.349502
vt 0.530147 0.314642
vt 0.512591 0.349841
vt 0.540923 0.198100
vt 0.551836 0.610009
vt 0.550348 0.158172
vt 0.530570 0.286349
vt 0.104996 0.623700
vt 0.178266 0.765586
vt 0.152233 0.636640
vt 0.292527 0.765885
vt 0.296946 0.901133
vt 0.190168 0.643898
vt 0.114228 0.370493
vt 0.152818 0.350622
vt 0.473422 0.890256
vt 0.407985 0.880896
vt 0.406157 0.963472
vt 0.189604 0.356216
vt 0.167916 -0.006860
vt 0.067475 0.028994
vt 0.068614 0.388655
vt 0.249210 0.005643
vt 0.029970 0.414251
vt 0.046277 0.781756
vt 0.165783 0.911573
vt 0.228829 0.367081
vt 0.055873 0.620440
vt 0.121101 0.042623
vt -0.010765 0.995407
vt -0.004616 0.909242
vt -0.003069 0.595801
vt -0.003093 0.099157
vt -0.017247 0.042590
vt -0.004312 0.029055
vt 0.002082 0.414252
vt 0.910640 0.623778
vt 0.862879 0.635824
vt 0.830448 0.759914
vt 0.700801 0.765898
vt 0.831632 0.911591
vt 0.690681 0.903573
vt 0.614045 0.963472
vt 0.808916 0.641751
vt 0.912278 0.368284
vt 0.869392 0.348727
vt 0.535128 0.890257
vt 0.504440 0.872158
vt 0.598334 0.880871
vt 0.826929 0.354267
vt 0.931706 0.029066
vt 0.832023 -0.006720
vt 0.957772 0.386446
vt 0.713339 0.005625
vt 0.995455 0.412043
vt 0.796044 0.364872
vt 0.928273 0.781756
vt 0.954782 0.620440
vt 0.860875 0.042635
vt 0.989235 0.995407
vt 0.505411 0.994113
vt 0.995384 0.909242
vt 0.996931 0.595801
vt 0.996907 0.099157
vt 0.995688 0.029055
vt 0.951817 0.011654
vt 0.200000 0.400000
vt 0.250000 0.400000
vt 0.250000 0.300000
vt 0.200000 0.300000
vt 0.250000 0.350000
vt 0.250000 0.250000
vt 0.200000 0.350000
vt 0.200000 0.250000
vt 0.180000 0.220000
vt 0.200000 0.150000
vt 0.230000 0.150000
vt 0.260000 0.150000
s 1
usemtl npc_cici_mat
f 26/1/24 24/2/22 3/3/3
f 4/4/4 18/5/18 3/3/3
f 20/6/20 21/7/21 56/8/41
f 23/9/6 6/10/6 25/11/23
f 23/9/6 46/12/23 22/13/6
f 29/14/25 47/12/35 7/15/7
f 79/16/64 77/17/62 7/15/7
f 78/18/63 7/15/7 9/19/9
f 79/16/64 7/15/7 78/18/63
f 45/9/34 49/11/36 7/15/7
f 8/20/8 1/21/1 21/7/21
f 50/22/37 2/23/2 37/24/29
f 37/24/29 2/23/2 92/25/77
f 77/17/62 40/26/32 7/15/7
f 80/27/65 81/28/66 92/25/77
f 81/28/66 82/29/67 83/30/68
f 92/25/77 81/28/66 83/30/68
f 93/31/78 84/32/69 78/18/63
f 85/33/70 91/34/76 86/35/71
f 86/35/71 88/36/73 87/37/72
f 91/34/76 88/36/73 86/35/71
f 94/38/79 77/17/62 84/32/69
f 90/39/75 85/33/70 86/35/71
f 85/33/70 90/39/75 80/27/65
f 87/37/72 90/39/75 86/35/71
f 82/29/67 90/39/75 87/37/72
f 84/32/69 77/17/62 89/40/74
f 78/18/63 84/32/69 89/40/74
f 81/28/66 80/27/65 90/39/75
f 82/29/67 81/28/66 90/39/75
f 97/41/82 95/42/80 98/43/83
f 99/44/84 95/42/80 97/41/82
f 108/45/93 110/46/95 107/47/92
f 115/48/100 104/49/89 101/50/86
f 106/51/91 104/49/89 102/52/87
f 96/53/81 103/54/88 104/49/89
f 104/49/89 95/42/80 96/53/81
f 98/43/83 95/42/80 104/49/89
f 105/55/90 95/42/80 99/44/84
f 105/55/90 100/56/85 103/54/88
f 100/56/85 101/50/86 104/49/89
f 105/55/90 96/53/81 95/42/80
f 103/54/88 96/53/81 105/55/90
f 104/49/89 103/54/88 100/56/85
f 117/57/102 114/58/99 120/59/105
f 121/60/106 120/59/105 112/61/97
f 121/60/106 117/57/102 120/59/105
f 119/62/104 116/63/101 117/57/102
f 118/64/103 116/63/101 119/62/104
f 111/65/96 118/64/103 119/62/104
f 121/60/106 111/65/96 119/62/104
f 116/63/101 118/64/103 111/65/96
f 120/59/105 114/58/99 110/46/95
f 116/63/101 111/65/96 114/58/99
f 98/43/83 104/49/89 106/51/91
f 108/45/93 107/47/92 113/66/98
f 116/63/101 114/58/99 117/57/102
f 120/59/105 110/46/95 112/61/97
f 119/62/104 117/57/102 121/60/106
f 112/61/97 111/65/96 121/60/106
f 113/66/98 84/32/69 93/31/78
f 113/66/98 107/47/92 84/32/69
f 102/52/87 83/30/68 82/29/67
f 106/51/91 102/52/87 82/29/67
f 109/67/94 94/38/79 84/32/69
f 107/47/92 109/67/94 84/32/69
f 87/37/72 88/36/73 97/41/82
f 98/43/83 87/37/72 97/41/82
f 82/29/67 87/37/72 98/43/83
f 106/51/91 82/29/67 98/43/83
f 89/40/74 79/16/64 78/18/63
f 89/40/74 77/17/62 79/16/64
f 92/25/77 2/23/2 80/27/65
f 85/33/70 3/3/3 91/34/76
f 2/23/2 3/3/3 85/33/70
f 80/27/65 2/23/2 85/33/70
f 10/68/10 11/69/11 5/70/5
f 48/2/6 52/1/6 30/70/6
f 13/71/13 19/72/19 20/6/20
f 42/6/6 28/73/6 27/74/6
f 33/10/27 44/13/33 17/75/17
f 55/76/40 34/77/28 33/10/27
f 12/78/12 34/77/28 55/76/40
f 10/68/10 19/72/19 13/71/13
f 38/79/30 14/80/14 17/75/17
f 17/75/17 55/76/40 33/10/27
f 39/81/31 1/21/1 8/20/8
f 125/82/110 144/83/126 124/84/109
f 174/85/142 138/86/121 124/84/109
f 123/87/108 124/84/109 148/88/129
f 143/89/125 165/90/139 127/91/112
f 175/92/143 128/93/113 127/91/112
f 147/94/128 145/95/127 123/87/108
f 128/93/113 168/96/140 127/91/112
f 175/92/143 127/91/112 176/97/144
f 159/98/137 188/99/156 127/91/112
f 189/100/157 123/87/108 153/101/132
f 166/90/23 164/89/23 142/102/23
f 130/103/23 164/89/23 169/96/23
f 129/104/23 170/95/23 172/94/23
f 149/105/130 159/98/137 127/91/112
f 177/106/145 189/100/157 178/107/146
f 178/107/146 180/108/148 179/109/147
f 189/100/157 180/108/148 178/107/146
f 190/110/158 175/92/143 181/111/149
f 182/112/150 183/113/151 174/85/142
f 183/113/151 184/114/152 185/115/153
f 174/85/142 183/113/151 185/115/153
f 191/116/159 181/111/149 188/99/156
f 187/117/155 183/113/151 182/112/150
f 182/112/150 177/106/145 187/117/155
f 184/114/152 183/113/151 187/117/155
f 179/109/147 184/114/152 187/117/155
f 181/111/149 186/118/154 188/99/156
f 175/92/143 186/118/154 181/111/149
f 178/107/146 187/117/155 177/106/145
f 179/109/147 187/117/155 178/107/146
f 205/119/173 197/120/165 194/121/162
f 193/122/161 201/123/169 200/124/168
f 201/123/169 193/122/161 192/125/160
f 195/126/163 196/127/164 192/125/160
f 196/127/164 201/123/169 192/125/160
f 197/120/165 205/119/173 203/128/171
f 196/127/164 204/129/172 201/123/169
f 201/123/169 199/130/167 212/131/180
f 202/132/170 208/133/176 192/125/160
f 202/132/170 200/124/168 198/134/166
f 198/134/166 200/124/168 201/123/169
f 202/132/170 192/125/160 193/122/161
f 200/124/168 202/132/170 193/122/161
f 201/123/169 206/135/174 198/134/166
f 217/136/185 194/121/162 197/120/165
f 211/137/179 214/138/182 217/136/185
f 213/139/181 216/140/184 214/138/182
f 216/140/184 213/139/181 215/141/183
f 209/142/177 216/140/184 215/141/183
f 218/143/186 209/142/177 194/121/162
f 216/140/184 218/143/186 214/138/182
f 209/142/177 215/141/183 213/139/181
f 213/139/181 214/138/182 211/137/179
f 213/139/181 211/137/179 209/142/177
f 197/120/165 203/128/171 207/144/175
f 204/129/172 199/130/167 201/123/169
f 214/138/182 218/143/186 217/136/185
f 211/137/179 217/136/185 197/120/165
f 216/140/184 209/142/177 218/143/186
f 218/143/186 194/121/162 217/136/185
f 195/126/163 184/114/152 196/127/164
f 195/126/163 185/115/153 184/114/152
f 181/111/149 191/116/159 207/144/175
f 203/128/171 181/111/149 207/144/175
f 210/145/178 181/111/149 203/128/171
f 210/145/178 190/110/158 181/111/149
f 179/109/147 180/108/148 199/130/167
f 204/129/172 179/109/147 199/130/167
f 196/127/164 179/109/147 204/129/172
f 196/127/164 184/114/152 179/109/147
f 186/118/154 176/97/144 188/99/156
f 186/118/154 175/92/143 176/97/144
f 174/85/142 124/84/109 182/112/150
f 177/106/145 123/87/108 189/100/157
f 124/84/109 123/87/108 177/106/145
f 182/112/150 124/84/109 177/106/145
f 126/146/111 132/147/115 131/148/114
f 139/149/122 126/146/111 131/148/114
f 133/150/116 58/151/43 140/152/123
f 141/153/124 58/151/43 122/154/107
f 137/155/120 57/156/42 134/157/117
f 57/156/42 157/103/135 154/158/133
f 57/156/42 154/158/133 12/78/12
f 139/149/122 133/150/116 140/152/123
f 158/159/136 150/160/131 137/155/120
f 57/156/42 137/155/120 157/103/135
f 39/81/31 155/104/134 122/154/107
f 73/161/58 219/162/187 238/163/206
f 70/164/55 59/165/44 15/166/15
f 73/161/58 70/164/55 60/167/45
f 67/168/52 70/164/55 68/169/53
f 70/164/55 67/168/52 69/170/54
f 61/171/46 220/172/188 219/162/187
f 60/167/45 61/171/46 219/162/187
f 61/171/46 60/167/45 136/173/119
f 136/173/119 60/167/45 135/174/118
f 59/165/44 73/161/58 222/175/190
f 62/176/47 222/175/190 223/177/191
f 59/165/44 222/175/190 62/176/47
f 221/178/189 63/179/48 223/177/191
f 62/176/47 16/180/16 59/165/44
f 16/180/16 15/166/15 59/165/44
f 57/156/42 55/76/40 71/181/56
f 61/171/46 64/182/49 220/172/188
f 132/147/115 64/182/49 61/171/46
f 132/147/115 61/171/46 136/173/119
f 38/79/30 75/183/60 14/80/14
f 66/184/51 74/185/59 65/186/50
f 63/179/48 62/176/47 223/177/191
f 11/69/11 16/180/16 62/176/47
f 66/184/51 65/186/50 71/181/56
f 134/157/117 65/186/50 76/187/61
f 75/183/60 239/188/207 66/184/51
f 11/69/11 62/176/47 63/179/48
f 64/182/49 224/189/192 220/172/188
f 134/157/117 76/187/61 158/159/136
f 239/188/207 74/185/59 66/184/51
f 75/183/60 66/184/51 14/80/14
f 71/181/56 65/186/50 134/157/117
f 65/186/50 240/190/208 76/187/61
f 67/168/52 39/81/31 122/154/107
f 57/156/42 12/78/12 55/76/40
f 122/154/107 58/151/43 67/168/52
f 1/21/1 39/81/31 67/168/52
f 14/80/14 72/191/57 55/76/40
f 67/168/52 68/169/53 56/8/41
f 69/170/54 135/174/118 70/164/55
f 135/174/118 60/167/45 70/164/55
f 15/166/15 68/169/53 70/164/55
f 136/173/119 131/148/114 132/147/115
f 136/173/119 135/174/118 131/148/114
f 135/174/118 133/150/116 131/148/114
f 135/174/118 69/170/54 133/150/116
f 69/170/54 58/151/43 133/150/116
f 67/168/52 58/151/43 69/170/54
f 67/168/52 56/8/41 1/21/1
f 68/169/53 13/71/13 56/8/41
f 15/166/15 13/71/13 68/169/53
f 15/166/15 16/180/16 10/68/10
f 15/166/15 10/68/10 13/71/13
f 10/68/10 16/180/16 11/69/11
f 228/192/196 227/193/195 226/194/194
f 230/195/198 225/196/193 229/197/197
f 225/196/193 230/195/198 232/198/200
f 226/194/194 231/199/199 228/192/196
f 228/192/196 237/200/205 236/201/204
f 230/195/198 229/197/197 236/201/204
f 233/202/201 239/188/207 242/203/210
f 241/204/209 240/190/208 234/205/202
f 239/188/207 233/202/201 235/206/203
f 240/190/208 74/185/59 235/206/203
f 239/188/207 243/207/211 242/203/210
f 240/190/208 241/204/209 244/208/212
f 224/189/192 232/198/200 220/172/188
f 230/195/198 219/162/187 220/172/188
f 232/198/200 230/195/198 220/172/188
f 223/177/191 231/199/199 221/178/189
f 222/175/190 228/192/196 223/177/191
f 228/192/196 231/199/199 223/177/191
f 237/200/205 222/175/190 238/163/206
f 219/162/187 230/195/198 237/200/205
f 240/190/208 235/206/203 234/205/202
f 234/205/202 245/209/213 241/204/209
f 233/202/201 242/203/210 246/210/214
f 235/206/203 247/211/215 234/205/202
f 233/202/201 246/210/214 248/212/216
f 235/206/203 248/212/216 249/213/217
f 234/205/202 247/211/215 245/209/213
f 235/206/203 233/202/201 248/212/216
f 235/206/203 249/213/217 247/211/215
f 258/214/226 260/215/228 229/197/197
f 225/196/193 258/214/226 229/197/197
f 259/216/227 227/193/195 261/217/229
f 226/194/194 227/193/195 259/216/227
f 229/197/197 260/215/228 262/218/230
f 227/193/195 236/201/204 262/218/230
f 227/193/195 262/218/230 261/217/229
f 256/219/224 270/220/238 253/221/221
f 270/220/238 292/222/260 308/223/276
f 250/224/218 255/225/223 247/211/215
f 267/226/235 269/227/237 265/228/233
f 293/229/261 267/226/235 305/230/273
f 252/231/220 251/232/219 254/233/222
f 251/232/219 256/219/224 257/234/225
f 257/234/225 249/213/217 251/232/219
f 249/213/217 250/224/218 247/211/215
f 251/232/219 248/212/216 254/233/222
f 253/221/221 270/220/238 266/235/234
f 255/225/223 253/221/221 266/235/234
f 269/227/237 252/231/220 254/233/222
f 269/227/237 246/210/214 274/236/242
f 248/212/216 251/232/219 249/213/217
f 267/226/235 270/220/238 256/219/224
f 267/226/235 252/231/220 269/227/237
f 255/225/223 250/224/218 253/221/221
f 250/224/218 257/234/225 256/219/224
f 273/237/241 271/238/239 258/214/226
f 272/239/240 259/216/227 261/217/229
f 260/215/228 271/238/239 262/218/230
f 271/238/239 291/240/259 262/218/230
f 272/239/240 291/240/259 264/241/232
f 272/239/240 262/218/230 291/240/259
f 248/212/216 246/210/214 254/233/222
f 246/210/214 269/227/237 254/233/222
f 245/209/213 255/225/223 266/235/234
f 247/211/215 255/225/223 245/209/213
f 263/242/231 300/243/268 291/240/259
f 270/220/238 268/244/236 266/235/234
f 267/226/235 265/228/233 305/230/273
f 309/245/277 300/243/268 263/242/231
f 264/241/232 291/240/259 301/246/269
f 297/247/265 299/248/267 267/226/235
f 299/248/267 270/220/238 267/226/235
f 295/249/263 292/222/260 294/250/262
f 292/222/260 270/220/238 294/250/262
f 296/251/264 291/240/259 302/252/270
f 301/246/269 291/240/259 296/251/264
f 297/247/265 293/229/261 303/253/271
f 297/247/265 267/226/235 293/229/261
f 294/250/262 299/248/267 298/254/266
f 304/255/272 296/251/264 302/252/270
f 294/250/262 298/254/266 295/249/263
f 297/247/265 303/253/271 298/254/266
f 291/240/259 300/243/268 302/252/270
f 299/248/267 294/250/262 270/220/238
f 299/248/267 297/247/265 298/254/266
f 271/238/239 260/215/228 258/214/226
f 263/242/231 291/240/259 271/238/239
f 261/217/229 262/218/230 272/239/240
f 270/220/238 308/223/276 268/244/236
f 287/256/255 245/209/213 266/235/234
f 301/246/269 306/257/274 264/241/232
f 289/258/257 259/216/227 272/239/240
f 430/259/398 429/260/397 425/261/393
f 425/261/393 426/262/394 430/259/398
f 427/263/395 430/259/398 426/262/394
f 426/262/394 423/264/391 427/263/395
f 428/265/396 427/263/395 423/264/391
f 423/264/391 424/266/392 428/265/396
f 428/265/396 431/267/399 427/263/395
f 434/268/402 431/267/399 428/265/396
f 427/263/395 432/269/400 430/259/398
f 431/267/399 432/269/400 427/263/395
f 430/259/398 433/270/401 429/260/397
f 432/269/400 433/270/401 430/259/398
f 435/271/403 440/272/408 438/273/406
f 439/274/407 435/271/403 438/273/406
f 441/275/409 435/271/403 439/274/407
f 442/276/410 443/277/411 435/271/403
f 435/271/403 441/275/409 442/276/410
f 435/271/403 443/277/411 440/272/408
f 433/270/401 432/269/400 436/278/404
f 443/277/411 442/276/410 444/279/412
f 431/267/399 436/278/404 432/269/400
f 431/267/399 434/268/402 436/278/404
f 374/280/342 386/281/354 375/282/343
f 394/283/362 393/284/361 387/285/355
f 372/286/340 408/285/376 389/287/357
f 368/288/336 369/289/337 390/290/358
f 384/291/352 398/292/366 376/293/344
f 370/294/338 391/295/359 369/289/337
f 373/296/341 385/297/353 376/293/344
f 383/298/351 371/299/339 395/300/363
f 375/282/343 399/301/367 374/280/342
f 368/288/336 378/302/346 369/289/337
f 381/303/349 290/304/258 285/305/253
f 367/306/335 381/303/349 396/307/364
f 379/308/347 378/302/346 276/309/244
f 377/310/345 369/289/337 378/302/346
f 379/308/347 377/310/345 378/302/346
f 307/311/275 379/308/347 276/309/244
f 281/312/249 380/313/348 277/314/245
f 370/294/338 369/289/337 377/310/345
f 277/314/245 380/313/348 377/310/345
f 383/298/351 400/315/368 371/299/339
f 388/316/356 372/286/340 375/282/343
f 394/283/362 409/316/377 422/300/390
f 282/317/250 290/304/258 400/315/368
f 382/318/350 371/299/339 290/304/258
f 381/303/349 367/306/335 290/304/258
f 377/310/345 380/313/348 370/294/338
f 378/302/346 368/288/336 401/319/369
f 277/314/245 379/308/347 307/311/275
f 367/306/335 421/283/389 382/318/350
f 367/306/335 382/318/350 290/304/258
f 370/294/338 402/320/370 392/321/360
f 370/294/338 380/313/348 402/320/370
f 425/261/393 399/301/367 375/282/343
f 426/262/394 425/261/393 375/282/343
f 426/262/394 375/282/343 372/286/340
f 423/264/391 426/262/394 372/286/340
f 437/322/405 372/286/340 397/323/365
f 424/266/392 423/264/391 437/322/405
f 439/274/407 438/273/406 373/296/341
f 376/293/344 439/274/407 373/296/341
f 423/264/391 372/286/340 437/322/405
f 424/266/392 437/322/405 397/323/365
f 452/324/420 447/325/415 451/326/419
f 447/325/415 452/324/420 448/327/416
f 449/328/417 448/327/416 452/324/420
f 448/327/416 449/328/417 445/329/413
f 450/330/418 445/329/413 449/328/417
f 445/329/413 450/330/418 446/331/414
f 450/330/418 449/328/417 453/332/421
f 456/333/424 450/330/418 453/332/421
f 449/328/417 452/324/420 454/334/422
f 453/332/421 449/328/417 454/334/422
f 452/324/420 451/326/419 455/335/423
f 454/334/422 452/324/420 455/335/423
f 457/336/425 460/337/428 462/338/430
f 461/339/429 460/337/428 457/336/425
f 463/340/431 461/339/429 457/336/425
f 464/341/432 457/336/425 465/342/433
f 457/336/425 464/341/432 463/340/431
f 457/336/425 462/338/430 465/342/433
f 458/343/426 464/341/432 465/342/433
f 453/332/421 466/344/434 456/333/424
f 454/334/422 455/335/423 466/344/434
f 454/334/422 466/344/434 453/332/421
f 330/345/298 319/346/287 331/347/299
f 352/347/320 339/348/307 335/349/303
f 311/350/279 338/351/306 312/352/280
f 317/353/285 333/354/301 316/355/284
f 336/356/304 337/357/305 329/358/297
f 320/359/288 328/360/296 348/358/316
f 336/356/304 347/360/315 334/361/302
f 349/362/317 328/360/296 318/363/286
f 319/346/287 342/364/310 343/365/311
f 324/366/292 321/367/289 314/368/282
f 325/369/293 288/370/256 311/350/279
f 344/371/312 315/372/283 288/370/256
f 340/373/308 322/374/290 345/375/313
f 340/373/308 313/376/281 322/374/290
f 313/376/281 314/368/282 321/367/289
f 313/376/281 321/367/289 322/374/290
f 321/367/289 323/377/291 322/374/290
f 332/378/300 331/347/299 316/355/284
f 366/348/334 326/379/294 315/372/283
f 344/371/312 288/370/256 278/380/246
f 315/372/283 326/379/294 288/370/256
f 311/350/279 312/352/280 325/369/293
f 280/381/248 310/382/278 323/377/291
f 344/371/312 327/383/295 315/372/283
f 280/381/248 323/377/291 321/367/289
f 322/374/290 275/384/243 345/375/313
f 275/384/243 283/385/251 345/375/313
f 275/384/243 323/377/291 310/382/278
f 353/378/321 365/351/333 352/347/320
f 311/350/279 288/370/256 326/379/294
f 358/386/326 334/361/302 350/362/318
f 314/368/282 346/387/314 324/366/292
f 343/365/311 447/325/415 448/327/416
f 319/346/287 343/365/311 448/327/416
f 319/346/287 448/327/416 445/329/413
f 319/346/287 445/329/413 316/355/284
f 341/388/309 460/337/428 461/339/429
f 320/359/288 341/388/309 461/339/429
f 459/389/427 446/331/414 317/353/285
f 316/355/284 445/329/413 459/389/427
f 445/329/413 446/331/414 459/389/427
f 316/355/284 459/389/427 317/353/285
f 321/367/289 324/366/292 280/381/248
f 288/370/256 325/369/293 284/390/252
f 290/304/258 371/299/339 400/315/368
f 378/302/346 401/319/369 276/309/244
f 275/384/243 322/374/290 323/377/291
f 279/391/247 280/381/248 324/366/292
f 276/309/244 401/319/369 286/392/254
f 377/310/345 379/308/347 277/314/245
f 66/184/51 71/181/56 72/191/57
f 72/191/57 71/181/56 55/76/40
f 66/184/51 72/191/57 14/80/14
f 71/181/56 134/157/117 57/156/42
f 60/167/45 219/162/187 73/161/58
f 59/165/44 70/164/55 73/161/58
f 195/126/163 192/125/160 208/133/176
f 110/46/95 109/67/94 107/47/92
f 205/119/173 210/145/178 203/128/171
f 201/123/169 212/131/180 206/135/174
f 102/52/87 104/49/89 115/48/100
f 112/61/97 110/46/95 108/45/93
f 228/192/196 236/201/204 227/193/195
f 236/201/204 229/197/197 262/218/230
f 237/200/205 230/195/198 236/201/204
f 222/175/190 237/200/205 228/192/196
f 73/161/58 238/163/206 222/175/190
f 237/200/205 238/163/206 219/162/187
f 267/226/235 256/219/224 252/231/220
f 250/224/218 256/219/224 253/221/221
f 252/231/220 256/219/224 251/232/219
f 250/224/218 249/213/217 257/234/225
f 74/185/59 240/190/208 65/186/50
f 74/185/59 239/188/207 235/206/203
f 150/160/131 163/102/138 137/155/120
f 158/159/136 137/155/120 134/157/117
f 38/79/30 17/75/17 31/393/26
f 14/80/14 55/76/40 17/75/17
f 138/86/121 125/82/110 124/84/109
f 188/99/156 176/97/144 127/91/112
f 18/5/18 91/34/76 3/3/3
f 40/26/32 29/14/25 7/15/7
f 146/394/23 151/146/23 160/149/23
f 131/148/114 133/150/116 139/149/122
f 19/72/19 10/68/10 5/70/5
f 41/72/23 52/1/6 42/6/6
f 141/153/124 140/152/123 58/151/43
f 146/394/23 161/152/23 173/88/23
f 13/71/13 20/6/20 56/8/41
f 54/73/39 2/23/2 53/74/38
f 155/104/134 141/153/124 122/154/107
f 172/94/23 161/152/23 162/153/23
f 21/7/21 1/21/1 56/8/41
f 35/20/6 43/7/6 27/74/6
f 23/9/6 22/13/6 6/10/6
f 44/13/33 31/393/26 17/75/17
f 166/90/23 142/102/23 152/160/23
f 163/102/138 157/103/135 137/155/120
f 164/89/23 130/103/23 142/102/23
f 143/89/125 127/91/112 168/96/140
f 6/10/6 36/77/23 25/11/23
f 7/15/7 47/12/35 45/9/34
f 24/2/22 4/4/4 3/3/3
f 46/12/23 32/393/23 22/13/6
f 167/83/23 151/146/23 146/394/23
f 165/90/139 149/105/130 127/91/112
f 49/11/36 9/19/9 7/15/7
f 35/20/6 27/74/6 51/22/6
f 145/95/127 153/101/132 123/87/108
f 169/96/23 156/158/23 130/103/23
f 52/1/6 41/72/23 30/70/6
f 26/1/24 3/3/3 54/73/39
f 124/84/109 144/83/126 171/394/141
f 160/149/23 161/152/23 146/394/23
f 42/6/6 27/74/6 43/7/6
f 50/22/37 53/74/38 2/23/2
f 129/104/23 172/94/23 162/153/23
f 123/87/108 148/88/129 147/94/128
f 3/3/3 2/23/2 54/73/39
f 52/1/6 28/73/6 42/6/6
f 172/94/23 173/88/23 161/152/23
f 171/394/141 148/88/129 124/84/109
f 414/295/382 405/395/373 403/291/371
f 384/291/352 376/293/344 385/297/353
f 361/356/329 357/361/325 313/376/281
f 328/360/296 320/359/288 318/363/286
f 340/373/308 362/357/330 361/356/329
f 320/359/288 348/358/316 341/388/309
f 410/396/378 385/297/353 373/296/341
f 404/297/372 413/290/381 403/291/371
f 406/281/374 415/397/383 409/316/377
f 384/291/352 407/395/375 398/292/366
f 342/364/310 319/346/287 330/345/298
f 314/368/282 357/361/325 359/386/327
f 366/348/334 327/383/295 360/349/328
f 319/346/287 316/355/284 331/347/299
f 332/378/300 316/355/284 333/354/301
f 338/351/306 326/379/294 366/348/334
f 396/307/364 418/284/386 421/283/389
f 408/285/376 372/286/340 388/316/356
f 386/281/354 388/316/356 375/282/343
f 421/283/389 395/300/363 382/318/350
f 354/354/322 363/398/331 353/378/321
f 355/399/323 341/388/309 348/358/316
f 372/286/340 389/287/357 397/323/365
f 419/400/387 404/297/372 411/396/379
f 419/400/387 413/290/381 404/297/372
f 390/290/358 369/289/337 391/295/359
f 414/295/382 403/291/371 413/290/381
f 370/294/338 392/321/360 391/295/359
f 414/295/382 416/321/384 405/395/373
f 417/397/385 383/298/351 395/300/363
f 393/284/361 412/287/380 387/285/355
f 368/288/336 390/290/358 420/400/388
f 334/361/302 347/360/315 350/362/318
f 357/361/325 314/368/282 313/376/281
f 352/347/320 335/349/303 351/345/319
f 314/368/282 359/386/327 346/387/314
f 329/358/297 347/360/315 336/356/304
f 340/373/308 361/356/329 313/376/281
f 337/357/305 356/399/324 329/358/297
f 364/398/332 312/352/280 338/351/306
f 394/283/362 387/285/355 409/316/377
f 396/307/364 421/283/389 367/306/335
f 365/351/333 353/378/321 363/398/331
f 311/350/279 326/379/294 338/351/306
f 415/397/383 422/300/390 409/316/377
f 395/300/363 371/299/339 382/318/350
f 352/347/320 365/351/333 339/348/307
f 315/372/283 327/383/295 366/348/334
f 473/401/441 471/402/439 480/403/448
f 474/404/442 478/405/446 484/406/452
f 471/402/439 496/407/464 497/408/465
f 536/409/504 483/410/451 482/411/450
f 540/412/508 536/409/504 479/413/447
f 496/407/464 471/402/439 477/414/445
f 479/413/447 538/415/506 540/412/508
f 471/402/439 479/413/447 485/416/453
f 475/417/443 473/401/441 470/418/438
f 481/419/449 467/420/435 480/403/448
f 473/401/441 480/403/448 469/421/437
f 470/418/438 473/401/441 469/421/437
f 470/418/438 474/404/442 475/417/443
f 478/405/446 468/422/436 484/406/452
f 480/403/448 489/423/457 491/424/459
f 470/418/438 478/405/446 474/404/442
f 487/425/455 488/426/456 472/427/440
f 482/411/450 507/428/475 508/429/476
f 471/402/439 538/415/506 479/413/447
f 510/430/478 485/416/453 509/431/477
f 480/403/448 471/402/439 489/423/457
f 467/420/435 469/421/437 480/403/448
f 486/432/454 481/419/449 491/424/459
f 477/414/445 471/402/439 485/416/453
f 484/406/452 468/422/436 500/433/468
f 479/413/447 536/409/504 482/411/450
f 483/410/451 484/406/452 507/428/475
f 474/404/442 484/406/452 483/410/451
f 485/416/453 479/413/447 482/411/450
f 485/416/453 482/411/450 509/431/477
f 477/414/445 485/416/453 501/434/469
f 506/435/474 476/436/444 512/437/480
f 481/419/449 486/432/454 476/436/444
f 489/423/457 471/402/439 487/425/455
f 471/402/439 497/408/465 488/426/456
f 487/425/455 471/402/439 488/426/456
f 489/423/457 487/425/455 472/427/440
f 489/423/457 490/438/458 491/424/459
f 489/423/457 472/427/440 490/438/458
f 480/403/448 491/424/459 481/419/449
f 499/439/467 498/440/466 472/427/440
f 501/434/469 496/407/464 477/414/445
f 491/424/459 490/438/458 503/441/471
f 506/435/474 505/442/473 476/436/444
f 505/442/473 502/443/470 467/420/435
f 476/436/444 486/432/454 512/437/480
f 472/427/440 488/426/456 499/439/467
f 497/408/465 499/439/467 488/426/456
f 490/438/458 498/440/466 504/444/472
f 486/432/454 491/424/459 513/445/481
f 482/411/450 483/410/451 507/428/475
f 500/433/468 468/422/436 511/446/479
f 507/428/475 484/406/452 500/433/468
f 509/431/477 482/411/450 508/429/476
f 501/434/469 485/416/453 510/430/478
f 490/438/458 504/444/472 503/441/471
f 476/436/444 505/442/473 481/419/449
f 481/419/449 505/442/473 467/420/435
f 486/432/454 513/445/481 512/437/480
f 472/427/440 498/440/466 490/438/458
f 491/424/459 503/441/471 513/445/481
f 493/447/461 523/448/491 516/449/484
f 518/450/486 527/451/495 494/452/462
f 516/449/484 497/408/465 496/407/464
f 522/453/490 525/454/493 535/455/503
f 539/456/507 522/453/490 535/455/503
f 496/407/464 521/457/489 516/449/484
f 522/453/490 539/456/507 537/458/505
f 516/449/484 528/459/496 522/453/490
f 519/460/487 515/461/483 493/447/461
f 524/462/492 523/448/491 514/463/482
f 493/447/461 492/464/460 523/448/491
f 515/461/483 492/464/460 493/447/461
f 515/461/483 519/460/487 518/450/486
f 494/452/462 527/451/495 495/465/463
f 523/448/491 534/466/502 532/467/500
f 515/461/483 518/450/486 494/452/462
f 530/468/498 517/469/485 531/470/499
f 525/454/493 508/429/476 507/428/475
f 516/449/484 522/453/490 537/458/505
f 510/430/478 509/431/477 528/459/496
f 523/448/491 532/467/500 516/449/484
f 514/463/482 523/448/491 492/464/460
f 529/471/497 534/466/502 524/462/492
f 521/457/489 528/459/496 516/449/484
f 527/451/495 500/433/468 495/465/463
f 525/454/493 526/472/494 535/455/503
f 526/472/494 507/428/475 527/451/495
f 518/450/486 526/472/494 527/451/495
f 528/459/496 525/454/493 522/453/490
f 528/459/496 509/431/477 525/454/493
f 521/457/489 501/434/469 528/459/496
f 506/435/474 512/437/480 520/473/488
f 524/462/492 520/473/488 529/471/497
f 532/467/500 530/468/498 516/449/484
f 516/449/484 531/470/499 497/408/465
f 530/468/498 531/470/499 516/449/484
f 532/467/500 517/469/485 530/468/498
f 532/467/500 534/466/502 533/474/501
f 532/467/500 533/474/501 517/469/485
f 523/448/491 524/462/492 534/466/502
f 499/439/467 517/469/485 498/440/466
f 501/434/469 521/457/489 496/407/464
f 534/466/502 503/441/471 533/474/501
f 506/435/474 520/473/488 505/442/473
f 505/442/473 514/463/482 502/443/470
f 520/473/488 512/437/480 529/471/497
f 517/469/485 499/439/467 531/470/499
f 497/408/465 531/470/499 499/439/467
f 533/474/501 504/444/472 498/440/466
f 529/471/497 513/445/481 534/466/502
f 525/454/493 507/428/475 526/472/494
f 500/433/468 511/446/479 495/465/463
f 507/428/475 500/433/468 527/451/495
f 509/431/477 508/429/476 525/454/493
f 501/434/469 510/430/478 528/459/496
f 533/474/501 503/441/471 504/444/472
f 520/473/488 524/462/492 505/442/473
f 524/462/492 514/463/482 505/442/473
f 529/471/497 512/437/480 513/445/481
f 517/469/485 533/474/501 498/440/466
f 534/466/502 513/445/481 503/441/471
f 518/450/486 519/460/487 535/455/503
f 518/450/486 535/455/503 526/472/494
f 474/404/442 536/409/504 475/417/443
f 474/404/442 483/410/451 536/409/504
f 493/447/461 537/458/505 519/460/487
f 493/447/461 516/449/484 537/458/505
f 473/401/441 475/417/443 538/415/506
f 473/401/441 538/415/506 471/402/439
f 519/460/487 539/456/507 535/455/503
f 519/460/487 537/458/505 539/456/507
f 475/417/443 536/409/504 540/412/508
f 475/417/443 540/412/508 538/415/506
f 552/475/520 553/476/521 543/477/511
f 553/476/521 560/478/528 543/477/511
f 592/479/560 560/478/528 553/476/521
f 543/477/511 560/478/528 545/480/513
f 554/481/522 543/477/511 555/482/523
f 549/483/517 542/484/510 548/485/516
f 542/484/510 592/479/560 548/485/516
f 543/477/511 550/486/518 555/482/523
f 470/418/438 545/480/513 560/478/528
f 543/477/511 545/480/513 550/486/518
f 554/481/522 559/487/527 541/488/509
f 547/489/515 554/481/522 541/488/509
f 559/487/527 555/482/523 556/490/524
f 560/478/528 542/484/510 468/422/436
f 541/488/509 546/491/514 547/489/515
f 543/477/511 554/481/522 552/475/520
f 553/476/521 544/492/512 590/493/558
f 550/486/518 470/418/438 551/494/519
f 551/494/519 470/418/438 469/421/437
f 592/479/560 553/476/521 590/493/558
f 544/492/512 553/476/521 552/475/520
f 545/480/513 470/418/438 550/486/518
f 560/478/528 592/479/560 542/484/510
f 552/475/520 557/495/525 544/492/512
f 547/489/515 552/475/520 554/481/522
f 467/420/435 558/496/526 556/490/524
f 551/494/519 469/421/437 556/490/524
f 556/490/524 550/486/518 551/494/519
f 550/486/518 556/490/524 555/482/523
f 552/475/520 547/489/515 557/495/525
f 547/489/515 546/491/514 557/495/525
f 555/482/523 559/487/527 554/481/522
f 556/490/524 558/496/526 559/487/527
f 549/483/517 468/422/436 542/484/510
f 468/422/436 549/483/517 511/446/479
f 562/497/530 590/493/558 564/498/532
f 561/499/529 564/498/532 544/492/512
f 546/491/514 541/488/509 565/500/533
f 558/496/526 563/501/531 566/502/534
f 573/503/541 546/491/514 565/500/533
f 566/502/534 541/488/509 558/496/526
f 557/495/525 546/491/514 561/499/529
f 561/499/529 544/492/512 557/495/525
f 590/493/558 562/497/530 548/485/516
f 564/498/532 590/493/558 544/492/512
f 541/488/509 566/502/534 565/500/533
f 580/504/548 570/505/538 581/506/549
f 581/506/549 570/505/538 591/507/559
f 578/508/546 568/509/536 575/510/543
f 591/507/559 570/505/538 572/511/540
f 582/512/550 583/513/551 570/505/538
f 575/510/543 576/514/544 588/515/556
f 576/514/544 575/510/543 569/516/537
f 569/516/537 575/510/543 568/509/536
f 582/512/550 570/505/538 580/504/548
f 572/511/540 515/461/483 591/507/559
f 570/505/538 577/517/545 572/511/540
f 582/512/550 567/518/535 587/519/555
f 574/520/542 567/518/535 582/512/550
f 587/519/555 584/521/552 583/513/551
f 495/465/463 569/516/537 591/507/559
f 567/518/535 574/520/542 599/522/567
f 577/517/545 570/505/538 583/513/551
f 578/508/546 581/506/549 568/509/536
f 492/464/460 515/461/483 579/523/547
f 515/461/483 577/517/545 579/523/547
f 581/506/549 571/524/539 580/504/548
f 581/506/549 578/508/546 571/524/539
f 581/506/549 591/507/559 568/509/536
f 572/511/540 577/517/545 515/461/483
f 569/516/537 568/509/536 591/507/559
f 580/504/548 571/524/539 585/525/553
f 574/520/542 582/512/550 580/504/548
f 514/463/482 584/521/552 586/526/554
f 579/523/547 584/521/552 492/464/460
f 584/521/552 579/523/547 577/517/545
f 577/517/545 583/513/551 584/521/552
f 580/504/548 585/525/553 574/520/542
f 574/520/542 585/525/553 599/522/567
f 583/513/551 582/512/550 587/519/555
f 584/521/552 587/519/555 586/526/554
f 576/514/544 569/516/537 495/465/463
f 576/514/544 495/465/463 511/446/479
f 594/527/562 575/510/543 589/528/557
f 571/524/539 578/508/546 596/529/564
f 593/530/561 571/524/539 596/529/564
f 599/522/567 597/531/565 567/518/535
f 598/532/566 586/526/554 567/518/535
f 573/503/541 561/499/529 546/491/514
f 586/526/554 598/532/566 595/533/563
f 589/528/557 575/510/543 588/515/556
f 585/525/553 593/530/561 599/522/567
f 593/530/561 585/525/553 571/524/539
f 578/508/546 575/510/543 594/527/562
f 596/529/564 578/508/546 594/527/562
f 511/446/479 588/515/556 576/514/544
f 567/518/535 597/531/565 598/532/566
f 584/521/552 514/463/482 492/464/460
f 514/463/482 595/533/563 502/443/470
f 586/526/554 595/533/563 514/463/482
f 502/443/470 563/501/531 467/420/435
f 558/496/526 467/420/435 563/501/531
f 467/420/435 556/490/524 469/421/437
f 478/405/446 560/478/528 468/422/436
f 560/478/528 478/405/446 470/418/438
f 567/518/535 586/526/554 587/519/555
f 541/488/509 559/487/527 558/496/526
f 548/485/516 589/528/557 588/515/556
f 549/483/517 588/515/556 511/446/479
f 548/485/516 562/497/530 589/528/557
f 549/483/517 548/485/516 588/515/556
f 548/485/516 592/479/560 590/493/558
f 591/507/559 515/461/483 494/452/462
f 591/507/559 494/452/462 495/465/463
f 600/534/568 601/535/569 605/536/573 604/537/572
f 601/535/569 602/538/570 606/539/574 605/536/573
f 602/538/570 603/540/571 607/541/575 606/539/574
f 603/540/571 600/534/568 604/537/572 607/541/575
f 604/537/572 605/536/573 608/542/576
f 605/536/573 606/539/574 608/542/576
f 606/539/574 607/541/575 608/542/576
f 607/541/575 604/537/572 608/542/576
f 604/537/572 608/542/576 609/543/577
f 605/536/573 608/542/576 610/544/578
f 605/536/573 610/544/578 611/545/579
f 606/539/574 611/545/579 610/544/578
f 606/539/574 610/544/578 607/541/575
f 607/541/575 610/544/578 609/543/577
f 609/543/577 610/544/578 611/545/579
f 616/537/584 617/536/585 613/535/581 612/534/580
f 617/536/585 618/539/586 614/538/582 613/535/581
f 618/539/586 619/541/587 615/540/583 614/538/582
f 619/541/587 616/537/584 612/534/580 615/540/583
f 620/542/588 617/536/585 616/537/584
f 620/542/588 618/539/586 617/536/585
f 620/542/588 619/541/587 618/539/586
f 620/542/588 616/537/584 619/541/587
f 621/543/589 620/542/588 616/537/584
f 622/544/590 620/542/588 617/536/585
f 623/545/591 622/544/590 617/536/585
f 622/544/590 623/545/591 618/539/586
f 619/541/587 622/544/590 618/539/586
f 621/543/589 622/544/590 619/541/587
f 623/545/591 622/544/590 621/543/589
