# Blender 5.1.1
# www.blender.org
mtllib player_walk1.mtl
o player_walk1
v -0.088865 -0.101194 1.052208
v 0.089191 -0.101522 1.052074
v -0.100719 -0.084547 1.115691
v 0.101144 -0.082126 1.118397
v -0.138927 -0.016590 1.123992
v 0.138841 -0.015255 1.123410
v 0.112527 0.070483 1.100991
v -0.113051 0.070236 1.100991
v -0.000373 0.088677 1.094120
v -0.000299 0.091486 1.179903
v 0.000212 -0.101964 1.117044
v -0.088865 -0.101194 1.052208
v 0.089191 -0.101522 1.052074
v -0.138927 -0.016590 1.123992
v 0.138841 -0.015255 1.123410
v -0.115331 0.069135 1.046789
v 0.102555 0.068688 1.046769
v -0.000092 0.086250 1.046779
v 0.139176 -0.012692 1.050149
v -0.139533 -0.012101 1.050224
v 0.114282 -0.093758 1.019117
v -0.103647 -0.094080 1.019106
v -0.140101 -0.015548 1.031115
v 0.139833 -0.015104 1.031507
v 0.029971 0.083020 0.857790
v -0.034325 0.083279 0.857812
v -0.000223 0.083165 0.920155
v -0.000979 -0.105627 1.010891
v -0.001896 -0.111368 0.858284
v -0.001404 -0.118439 0.922044
v -0.115331 0.069135 1.046789
v -0.115331 0.069135 1.046789
v 0.102555 0.068688 1.046769
v 0.102555 0.068688 1.046769
v -0.000092 0.086250 1.046779
v 0.139176 -0.012692 1.050149
v 0.139176 -0.012692 1.050149
v -0.139533 -0.012101 1.050224
v -0.139533 -0.012101 1.050224
v -0.116002 0.074747 1.188089
v -0.145754 -0.016743 1.203520
v -0.116157 -0.083639 1.211576
v 0.116558 -0.082311 1.212929
v 0.145834 -0.015958 1.203228
v 0.115515 0.074968 1.188089
v 0.000200 -0.108967 1.212252
v -0.124836 0.079259 1.275186
v 0.124386 0.079454 1.275186
v -0.000225 0.094296 1.265685
v -0.145754 -0.016743 1.203520
v 0.145834 -0.015958 1.203228
v -0.147026 -0.016897 1.319510
v -0.135156 -0.082039 1.335584
v 0.147273 -0.016661 1.319510
v 0.135533 -0.081803 1.335584
v -0.000112 -0.115439 1.340813
v -0.111100 0.022825 1.441420
v -0.131281 -0.065000 1.443992
v 0.110929 0.022783 1.440380
v 0.131224 -0.065053 1.442818
v -0.041808 0.027370 1.439504
v 0.160592 -0.059457 1.374236
v -0.160679 -0.059587 1.375129
v -0.000190 0.071476 1.365638
v 0.042119 0.027508 1.439505
v -0.057518 -0.050915 1.479051
v 0.057764 -0.050777 1.479051
v 0.133320 -0.082319 1.397200
v -0.133400 -0.082360 1.398358
v 0.135266 0.041647 1.393800
v -0.135413 0.041586 1.394860
v 0.164287 0.022905 1.375568
v -0.164432 0.022769 1.376404
v -0.147026 -0.016897 1.319510
v 0.147273 -0.016661 1.319510
v 0.160592 -0.059457 1.374236
v 0.160592 -0.059457 1.374236
v -0.160679 -0.059587 1.375129
v -0.160679 -0.059587 1.375129
v -0.057518 -0.050915 1.479051
v 0.057764 -0.050777 1.479051
v 0.164287 0.022905 1.375568
v -0.164432 0.022769 1.376404
v -0.133557 -0.065408 1.337944
v -0.189867 -0.061827 1.321802
v -0.222061 -0.055175 1.334352
v -0.216693 0.032023 1.335976
v -0.141014 0.033259 1.328348
v -0.153847 0.027596 1.134566
v -0.183586 0.091613 1.185717
v -0.157523 0.087329 1.141107
v -0.213656 0.087918 1.144851
v -0.217563 -0.052767 1.398188
v -0.212634 0.014449 1.394144
v -0.206736 -0.020370 1.429140
v -0.216629 0.037121 1.301886
v -0.219126 -0.033132 1.298100
v -0.161927 0.041538 1.395551
v -0.159495 -0.082248 1.398562
v -0.193234 0.048377 1.326076
v -0.219844 0.007376 1.171958
v -0.183619 -0.006481 1.174606
v -0.187729 0.072651 1.240118
v -0.210768 0.054747 1.242397
v -0.215846 -0.014921 1.243897
v -0.185443 -0.028562 1.241456
v -0.141275 -0.065182 1.237431
v -0.148219 0.015456 1.236808
v -0.191795 -0.036032 1.248141
v -0.136692 -0.068162 1.243129
v -0.144117 0.026132 1.242339
v -0.223850 -0.019882 1.250688
v -0.219757 0.057081 1.249164
v -0.194981 0.076390 1.246712
v -0.189867 -0.061827 1.321802
v -0.183586 0.091613 1.185717
v -0.213656 0.087918 1.144851
v -0.217563 -0.052767 1.398188
v -0.217563 -0.052767 1.398188
v -0.212634 0.014449 1.394144
v -0.206736 -0.020370 1.429140
v -0.161927 0.041538 1.395551
v -0.161927 0.041538 1.395551
v -0.159495 -0.082248 1.398562
v -0.159495 -0.082248 1.398562
v -0.193234 0.048377 1.326076
v -0.183619 -0.006481 1.174606
v -0.187729 0.072651 1.240118
v -0.187729 0.072651 1.240118
v -0.187729 0.072651 1.240118
v -0.210768 0.054747 1.242397
v -0.215846 -0.014921 1.243897
v -0.185443 -0.028562 1.241456
v -0.185443 -0.028562 1.241456
v -0.185443 -0.028562 1.241456
v -0.141275 -0.065182 1.237431
v -0.148219 0.015456 1.236808
v -0.191795 -0.036032 1.248141
v -0.191795 -0.036032 1.248141
v -0.191795 -0.036032 1.248141
v -0.136692 -0.068162 1.243129
v -0.144117 0.026132 1.242339
v -0.223850 -0.019882 1.250688
v -0.219757 0.057081 1.249164
v -0.194981 0.076390 1.246712
v -0.194981 0.076390 1.246712
v -0.194981 0.076390 1.246712
v 0.132438 -0.065400 1.337967
v 0.188748 -0.095094 1.321826
v 0.220942 -0.079034 1.334376
v 0.215566 0.009379 1.335991
v 0.139886 0.033266 1.328362
v 0.153014 -0.146067 1.134611
v 0.182463 -0.043718 1.185736
v 0.156177 -0.081455 1.141139
v 0.212309 -0.078057 1.144888
v 0.216476 -0.051695 1.398187
v 0.211476 0.013376 1.394184
v 0.206744 -0.020348 1.428928
v 0.215506 -0.011089 1.301905
v 0.218003 -0.084181 1.298119
v 0.160806 0.041582 1.395560
v 0.158372 -0.082217 1.398590
v 0.192106 0.018311 1.326090
v 0.218721 -0.138287 1.171977
v 0.182496 -0.150145 1.174625
v 0.209575 -0.038080 1.242364
v 0.214750 -0.106601 1.243974
v 0.184345 -0.122080 1.241554
v 0.186644 -0.021939 1.240071
v 0.140178 -0.065215 1.237517
v 0.147026 0.015451 1.236767
v 0.190550 -0.124572 1.248206
v 0.135449 -0.068229 1.243178
v 0.142830 0.026085 1.242247
v 0.222609 -0.106491 1.250727
v 0.218469 -0.030711 1.249086
v 0.193755 -0.013297 1.246615
v 0.188748 -0.095094 1.321826
v 0.182463 -0.043718 1.185736
v 0.212309 -0.078057 1.144888
v 0.216476 -0.051695 1.398187
v 0.216476 -0.051695 1.398187
v 0.211476 0.013376 1.394184
v 0.206744 -0.020348 1.428928
v 0.160806 0.041582 1.395560
v 0.160806 0.041582 1.395560
v 0.158372 -0.082217 1.398590
v 0.158372 -0.082217 1.398590
v 0.192106 0.018311 1.326090
v 0.182496 -0.150145 1.174625
v 0.209575 -0.038080 1.242364
v 0.214750 -0.106601 1.243974
v 0.184345 -0.122080 1.241554
v 0.184345 -0.122080 1.241554
v 0.184345 -0.122080 1.241554
v 0.186644 -0.021939 1.240071
v 0.186644 -0.021939 1.240071
v 0.186644 -0.021939 1.240071
v 0.140178 -0.065215 1.237517
v 0.147026 0.015451 1.236767
v 0.190550 -0.124572 1.248206
v 0.190550 -0.124572 1.248206
v 0.190550 -0.124572 1.248206
v 0.135449 -0.068229 1.243178
v 0.142830 0.026085 1.242247
v 0.222609 -0.106491 1.250727
v 0.218469 -0.030711 1.249086
v 0.193755 -0.013297 1.246615
v 0.193755 -0.013297 1.246615
v 0.193755 -0.013297 1.246615
v -0.000228 -0.070151 1.479756
v -0.045145 0.019057 1.568868
v -0.038281 -0.041186 1.588396
v 0.040065 -0.041630 1.588096
v 0.046508 0.019134 1.568868
v 0.000682 0.043238 1.562778
v -0.000537 0.008844 1.596157
v -0.038281 -0.041186 1.588396
v 0.040065 -0.041630 1.588096
v -0.000537 0.008844 1.596157
v 0.095795 -0.106303 0.867810
v 0.147175 -0.029972 0.893773
v 0.144468 0.040791 0.931912
v 0.113241 0.077006 0.923810
v 0.104133 -0.113681 0.930956
v 0.030655 0.006927 0.519579
v 0.072463 0.149530 0.530439
v 0.115406 0.006793 0.520362
v 0.134085 0.124019 0.527692
v 0.146735 0.052429 0.712278
v 0.014726 0.121966 0.535136
v 0.116298 -0.016022 0.593763
v 0.096286 -0.099653 0.831816
v 0.008671 -0.098772 0.831096
v 0.111239 0.074335 0.882329
v 0.144468 0.040791 0.931912
v 0.134085 0.124019 0.527692
v 0.146735 0.052429 0.712278
v 0.014726 0.121966 0.535136
v -0.099620 -0.106528 0.867797
v -0.149052 -0.030067 0.893761
v -0.145748 0.040831 0.931920
v -0.114087 0.076830 0.923807
v -0.106956 -0.113947 0.930941
v -0.002758 0.034413 0.829609
v -0.032132 -0.164012 0.547567
v -0.116883 -0.163672 0.548275
v -0.135559 -0.042200 0.555102
v -0.073937 -0.014991 0.557703
v -0.148209 -0.002520 0.721449
v -0.016200 -0.039774 0.561785
v -0.117772 -0.142617 0.614034
v -0.098935 -0.098826 0.831609
v -0.011306 -0.097505 0.831150
v -0.002327 -0.088562 0.843967
v -0.112399 0.075366 0.882504
v -0.145748 0.040831 0.931920
v -0.002758 0.034413 0.829609
v -0.135559 -0.042200 0.555102
v -0.148209 -0.002520 0.721449
v -0.016200 -0.039774 0.561785
v -0.016709 -0.047687 0.489978
v -0.133927 -0.056661 0.491443
v -0.078272 -0.040728 0.474931
v -0.016227 -0.183102 0.383023
v -0.040361 -0.271158 0.154595
v -0.143178 -0.184003 0.384314
v -0.096188 -0.274976 0.153831
v -0.073589 -0.217964 0.387949
v -0.118208 -0.181759 0.488347
v -0.033384 -0.181645 0.487671
v -0.076830 -0.027501 0.496362
v -0.016709 -0.047687 0.489978
v -0.133927 -0.056661 0.491443
v -0.037642 -0.173130 0.154202
v -0.073193 -0.147007 0.154960
v -0.115929 -0.167747 0.155273
v -0.093115 -0.296491 0.076762
v -0.036267 -0.128556 0.118556
v -0.119668 -0.132892 0.105366
v -0.031724 -0.143526 0.076568
v -0.043213 -0.290772 0.076755
v -0.124553 -0.143336 0.076568
v -0.037797 -0.175479 0.134606
v -0.115404 -0.170787 0.135744
v -0.073818 -0.146306 0.141656
v -0.042259 -0.291416 0.104836
v -0.094651 -0.296184 0.104461
v -0.037642 -0.173130 0.154202
v -0.115929 -0.167747 0.155273
v -0.093115 -0.296491 0.076762
v -0.031724 -0.143526 0.076568
v -0.031724 -0.143526 0.076568
v -0.031724 -0.143526 0.076568
v -0.043213 -0.290772 0.076755
v -0.124553 -0.143336 0.076568
v -0.124553 -0.143336 0.076568
v -0.124553 -0.143336 0.076568
v -0.037797 -0.175479 0.134606
v -0.037797 -0.175479 0.134606
v -0.037797 -0.175479 0.134606
v -0.115404 -0.170787 0.135744
v -0.115404 -0.170787 0.135744
v -0.115404 -0.170787 0.135744
v -0.073818 -0.146306 0.141656
v -0.042259 -0.291416 0.104836
v -0.094651 -0.296184 0.104461
v -0.097759 -0.061997 0.076464
v -0.098076 -0.057517 0.096464
v -0.056643 -0.050582 0.076450
v -0.055506 -0.047146 0.097545
v -0.036701 -0.119786 0.112694
v -0.118320 -0.123165 0.104714
v -0.097759 -0.061997 0.076464
v -0.056643 -0.050582 0.076450
v 0.016291 0.161530 0.457147
v 0.131397 0.151578 0.458769
v 0.076708 0.179151 0.438814
v 0.014752 0.099708 0.337552
v 0.038575 0.163847 0.084059
v 0.141703 0.098150 0.338320
v 0.094402 0.163668 0.083184
v 0.072114 0.061788 0.342098
v 0.031529 0.030235 0.453135
v 0.117111 0.029721 0.453718
v 0.075356 0.178161 0.462511
v 0.016291 0.161530 0.457147
v 0.131397 0.151578 0.458769
v 0.036153 0.265847 0.083770
v 0.071724 0.291355 0.084790
v 0.114460 0.270490 0.084991
v 0.092969 0.194510 -0.002270
v 0.119522 0.338521 0.029472
v 0.031577 0.347733 -0.002450
v 0.036120 0.334492 0.044091
v 0.043091 0.200322 -0.002277
v 0.124407 0.347818 -0.002450
v 0.114597 0.280378 0.063240
v 0.035805 0.276723 0.061991
v 0.073010 0.301094 0.069867
v 0.093685 0.175954 0.028439
v 0.041269 0.178949 0.028872
v 0.036153 0.265847 0.083770
v 0.114460 0.270490 0.084991
v 0.092969 0.194510 -0.002270
v 0.031577 0.347733 -0.002450
v 0.031577 0.347733 -0.002450
v 0.031577 0.347733 -0.002450
v 0.043091 0.200322 -0.002277
v 0.124407 0.347818 -0.002450
v 0.124407 0.347818 -0.002450
v 0.124407 0.347818 -0.002450
v 0.114597 0.280378 0.063240
v 0.114597 0.280378 0.063240
v 0.114597 0.280378 0.063240
v 0.035805 0.276723 0.061991
v 0.035805 0.276723 0.061991
v 0.035805 0.276723 0.061991
v 0.073010 0.301094 0.069867
v 0.093685 0.175954 0.028439
v 0.041269 0.178949 0.028872
v 0.097613 0.429669 -0.002546
v 0.097930 0.420772 0.019621
v 0.056497 0.441299 -0.002560
v 0.055360 0.430453 0.020822
v 0.036555 0.347406 0.037595
v 0.118174 0.349125 0.028750
v 0.097613 0.429669 -0.002546
v 0.056497 0.441299 -0.002560
v -0.114947 -0.019657 1.450187
v -0.114947 -0.019657 1.450187
v 0.114833 -0.019712 1.449079
v 0.114833 -0.019712 1.449079
v 0.215409 -0.147698 1.130744
v 0.186773 -0.160968 1.127071
v 0.217897 -0.159431 1.116068
v 0.162810 -0.161073 1.111537
v 0.150680 -0.172119 1.052198
v 0.214728 -0.179932 1.076760
v 0.236072 -0.135336 1.078652
v 0.218682 -0.087926 1.061800
v 0.158499 -0.102405 1.046468
v 0.191594 -0.168024 0.884755
v 0.225519 -0.168267 0.888830
v 0.225123 -0.214420 0.882979
v 0.209999 -0.193763 0.872770
v 0.192166 -0.214986 0.879235
v 0.214741 -0.077983 1.130049
v 0.156561 -0.086823 1.120763
v 0.186773 -0.160968 1.127071
v 0.217897 -0.159431 1.116068
v 0.214728 -0.179932 1.076760
v 0.218682 -0.087926 1.061800
v 0.225519 -0.168267 0.888830
v 0.225123 -0.214420 0.882979
v 0.209999 -0.193763 0.872770
v 0.214741 -0.077983 1.130049
v -0.216245 0.028927 1.130699
v -0.187921 0.018351 1.127079
v -0.215843 0.027995 1.115115
v -0.164149 0.029529 1.110906
v -0.148413 -0.054378 1.052217
v -0.211005 0.037117 1.076797
v -0.232348 0.080291 1.078695
v -0.214959 0.140343 1.061836
v -0.156232 0.137369 1.046485
v -0.191192 0.150575 0.878542
v -0.191264 0.194463 0.884728
v -0.227810 0.191094 0.888787
v -0.227653 0.148321 0.882907
v -0.211502 0.179610 0.870399
v -0.213543 0.099072 1.130039
v -0.156091 0.097198 1.120749
v -0.187921 0.018351 1.127079
v -0.215843 0.027995 1.115115
v -0.211005 0.037117 1.076797
v -0.214959 0.140343 1.061836
v -0.227810 0.191094 0.888787
v -0.227653 0.148321 0.882907
v -0.211502 0.179610 0.870399
v -0.213543 0.099072 1.130039
v -0.060643 0.005602 1.536653
v -0.019903 0.052138 1.506097
v -0.036268 -0.075141 1.584586
v -0.039382 -0.086759 1.686198
v -0.029643 0.090379 1.693442
v -0.053657 0.063366 1.616004
v -0.050428 0.079555 1.634156
v 0.034470 -0.027492 1.732728
v -0.058102 0.059998 1.601271
v -0.063366 0.008354 1.566245
v 0.059940 0.005643 1.536616
v 0.019057 0.052203 1.506083
v 0.035815 -0.075061 1.584557
v 0.038928 -0.085825 1.699498
v 0.034339 0.090985 1.700995
v 0.052873 0.063467 1.615968
v 0.049584 0.079636 1.634125
v 0.057206 0.060101 1.601240
v 0.062578 0.008468 1.566208
v -0.058334 0.058452 1.675580
v 0.053881 0.066505 1.667107
v 0.080146 -0.012132 1.611970
v -0.080463 -0.011897 1.612539
v 0.069463 0.022243 1.626627
v -0.070087 0.022154 1.626667
v 0.076896 -0.027605 1.644639
v -0.075642 -0.017471 1.645081
v -0.017407 0.094566 1.571024
v 0.016562 0.094591 1.571015
v 0.005428 0.097702 1.622869
v 0.005161 0.112947 1.588645
v -0.000414 0.105044 1.641800
v -0.006485 0.097703 1.622874
v -0.005993 0.112948 1.588647
v -0.006874 0.120255 1.575047
v 0.006174 0.120268 1.575041
v 0.021450 0.088014 1.505112
v -0.022247 0.087969 1.505124
v -0.024775 -0.038598 1.752230
v 0.085704 -0.035147 1.687481
v -0.085629 -0.026628 1.699143
v -0.063612 0.060712 1.733275
v 0.075618 0.058892 1.716790
v 0.005197 0.085030 1.748486
v 0.037278 0.060133 1.727875
v 0.065334 -0.018300 1.721823
v -0.012387 0.103906 1.727082
v -0.077203 0.072422 1.715847
v 0.012543 0.087360 1.614862
v -0.013520 0.087309 1.614879
v -0.000423 0.101895 1.565967
v -0.060643 0.005602 1.536653
v -0.036268 -0.075141 1.584586
v -0.039382 -0.086759 1.686198
v -0.063366 0.008354 1.566245
v -0.024775 -0.038598 1.752230
v -0.209250 0.186428 0.877300
v -0.199950 0.184878 0.877300
v -0.199950 0.163178 0.877300
v -0.209250 0.163178 0.877300
v -0.220100 0.204641 0.837000
v -0.201500 0.202703 0.833900
v -0.201500 0.182553 0.833900
v -0.217000 0.181391 0.837000
v -0.229400 0.217816 0.818400
v -0.223200 -0.009291 0.786290
v -0.213900 -0.013335 0.783493
v -0.204600 -0.011448 0.789087
v 0.209250 -0.180228 0.877300
v 0.199950 -0.181778 0.877300
v 0.199950 -0.203478 0.877300
v 0.209250 -0.203478 0.877300
v 0.220100 -0.192241 0.837000
v 0.201500 -0.196503 0.833900
v 0.201500 -0.216653 0.833900
v 0.217000 -0.215491 0.837000
v 0.229400 -0.193016 0.818400
v 0.223200 0.003091 0.784300
v 0.213900 0.000935 0.781200
v 0.204600 -0.000952 0.787400
vn 0.4826 0.8726 -0.0756
vn -0.4862 0.8686 -0.0955
vn 0.6078 0.7941 -0.0032
vn -0.6165 0.7873 -0.0084
vn 0.8732 0.4847 0.0508
vn -0.8716 0.4877 0.0483
vn -0.6769 -0.7271 0.1146
vn 0.6547 -0.7554 0.0256
vn -0.0032 -0.9990 0.0453
vn 0.0009 -0.9992 0.0390
vn -0.0075 0.9999 -0.0092
vn 0.4332 0.9005 -0.0387
vn -0.3828 0.9187 -0.0972
vn 0.9607 -0.2750 0.0370
vn -0.9492 -0.3069 0.0700
vn 0.6628 -0.7488 -0.0048
vn -0.6082 -0.7889 0.0884
vn -0.0117 -0.9986 0.0511
vn -0.8714 0.4904 0.0133
vn 0.8708 0.4908 0.0269
vn -0.6948 0.6914 -0.1979
vn 0.6262 0.7627 -0.1620
vn 0.9838 0.1365 -0.1161
vn -0.9907 0.0612 -0.1219
vn 0.1511 -0.9863 0.0666
vn -0.0402 -0.9610 0.2737
vn -0.0005 -1.0000 0.0021
vn 0.0018 0.9936 -0.1128
vn 0.0044 0.9494 0.3140
vn -0.0014 1.0000 -0.0096
vn 0.9553 -0.2503 -0.1573
vn 0.2801 -0.9583 -0.0571
vn -0.2880 -0.9534 -0.0895
vn -0.9081 -0.3673 -0.2013
vn -0.0056 -0.9997 -0.0258
vn -0.9115 -0.4109 -0.0185
vn -0.9992 0.0163 -0.0373
vn 0.9578 -0.2864 -0.0253
vn 0.9961 0.0767 -0.0434
vn 0.6523 -0.7552 0.0643
vn 0.9021 0.4265 0.0650
vn 0.6427 0.7626 0.0724
vn -0.6451 0.7600 0.0790
vn -0.9009 0.4283 0.0704
vn -0.6487 -0.7583 0.0643
vn -0.0075 0.9986 0.0521
vn 0.6440 -0.7650 -0.0051
vn -0.6408 -0.7676 -0.0059
vn 0.0007 -0.9961 -0.0888
vn 0.9543 -0.2968 0.0346
vn -0.9520 -0.3042 0.0344
vn 0.9410 0.2752 0.1969
vn 0.6583 0.7406 0.1350
vn -0.9410 0.2742 0.1983
vn -0.6583 0.7401 0.1378
vn -0.0016 0.9953 -0.0968
vn 0.1764 -0.6282 -0.7578
vn 0.2908 0.5879 -0.7549
vn -0.1808 -0.6292 -0.7559
vn -0.2918 0.5912 -0.7519
vn 0.2209 -0.8688 -0.4432
vn -0.6908 0.6524 0.3119
vn 0.6796 0.6598 0.3206
vn -0.0004 -0.9367 -0.3502
vn -0.2264 -0.8697 -0.4387
vn 0.3126 0.7112 -0.6297
vn -0.3165 0.7203 -0.6173
vn -0.1940 0.9758 -0.1006
vn 0.1919 0.9757 -0.1059
vn -0.1882 -0.9558 -0.2257
vn 0.1880 -0.9552 -0.2286
vn -0.8361 -0.4950 0.2367
vn 0.8323 -0.4965 0.2465
vn 0.9689 -0.0872 0.2314
vn -0.9685 -0.0910 0.2319
vn -0.9635 0.0389 0.2649
vn 0.7727 -0.3221 -0.5470
vn 0.9629 0.0398 0.2669
vn -0.7929 -0.2978 -0.5317
vn 0.8423 -0.2714 -0.4656
vn -0.8505 -0.2676 -0.4528
vn 0.8740 0.2337 -0.4260
vn -0.8881 0.2023 -0.4127
vn -0.7800 0.6184 -0.0956
vn -0.0280 0.9508 0.3086
vn 0.8011 0.5784 0.1540
vn 0.8375 -0.5234 -0.1568
vn -0.8267 -0.5376 -0.1661
vn -0.8466 0.3894 0.3629
vn -0.5764 -0.7864 -0.2222
vn -0.7687 -0.6172 -0.1675
vn -0.0675 -0.9452 -0.3193
vn 0.8620 0.5006 -0.0796
vn 0.6013 -0.5185 -0.6079
vn 0.4087 0.4216 -0.8095
vn 0.8980 -0.4128 -0.1522
vn 0.9071 0.4000 0.1309
vn 0.4589 -0.8407 -0.2876
vn 0.3898 0.9208 0.0084
vn 0.5293 -0.8128 -0.2434
vn 0.8324 0.5077 0.2222
vn 0.0901 0.8044 0.5873
vn -0.6878 -0.6593 -0.3036
vn 0.5317 -0.2811 0.7989
vn 0.8116 0.5677 0.1382
vn 0.3856 0.8835 0.2660
vn -0.2943 0.8139 0.5009
vn -0.9671 -0.2452 -0.0682
vn 0.2947 0.4995 0.8146
vn -0.3247 0.6010 0.7303
vn -0.5003 -0.2784 0.8199
vn 0.5172 0.2678 0.8129
vn 0.5517 -0.2130 0.8064
vn 0.4451 -0.4759 0.7586
vn 0.3617 0.8891 0.2805
vn 0.4591 -0.8492 -0.2610
vn 0.9785 -0.1963 -0.0629
vn 0.4365 0.6132 -0.6584
vn 0.9650 -0.0857 -0.2479
vn 0.8631 -0.4660 -0.1945
vn 0.7090 -0.3791 -0.5946
vn 0.2327 -0.9586 -0.1639
vn -0.8836 -0.4110 -0.2243
vn -0.7610 0.6311 -0.1503
vn 0.2044 0.9764 -0.0702
vn -0.2659 -0.9462 -0.1843
vn 0.3200 0.8748 0.3638
vn 0.4448 -0.4757 0.7588
vn -0.8034 -0.5406 -0.2496
vn 0.5504 -0.7879 -0.2761
vn 0.9050 -0.3939 -0.1607
vn 0.5185 0.2621 0.8139
vn 0.6304 0.7318 0.2589
vn 0.2867 0.4920 0.8220
vn 0.3659 0.4840 0.7949
vn -0.0901 0.8490 0.5207
vn -0.6541 -0.1344 0.7444
vn 0.3383 0.4514 0.8257
vn 0.4493 0.8468 0.2848
vn 0.3347 0.9380 0.0898
vn -0.5559 0.8313 -0.0022
vn -0.9122 -0.4042 0.0664
vn 0.9191 0.3906 0.0528
vn 0.8231 -0.5194 -0.2297
vn -0.6689 -0.6447 -0.3700
vn -0.5625 -0.8243 -0.0636
vn 0.5717 -0.7697 -0.2842
vn 0.9013 0.3646 -0.2341
vn -0.4192 0.8695 -0.2610
vn -0.8365 0.5297 -0.1406
vn -0.8112 -0.5668 0.1438
vn 0.6097 -0.7924 -0.0207
vn 0.8818 0.4712 0.0202
vn -0.2230 -0.7365 0.6386
vn 0.7237 -0.5681 0.3919
vn -0.9855 -0.1694 0.0062
vn -0.9031 0.3683 -0.2210
vn -0.8322 -0.5543 -0.0141
vn -0.7162 -0.3902 -0.5786
vn -0.8992 -0.4091 0.1550
vn -0.8999 0.4044 -0.1632
vn -0.4605 -0.8859 0.0556
vn -0.2135 0.9735 -0.0814
vn -0.4770 -0.8402 0.2580
vn -0.8326 0.5309 -0.1577
vn 0.6216 0.7088 -0.3335
vn -0.4922 -0.1863 0.8503
vn -0.9143 0.3548 -0.1951
vn 0.7707 0.5798 -0.2644
vn -0.3458 -0.3687 0.8628
vn 0.9881 0.1519 0.0253
vn 0.2173 -0.7712 0.5984
vn -0.4012 0.6838 0.6094
vn 0.6904 0.2692 0.6715
vn 0.0916 -0.3946 0.9143
vn -0.6292 0.2473 0.7369
vn -0.4681 -0.2166 0.8567
vn -0.3459 -0.3688 0.8627
vn 0.4038 0.8872 -0.2234
vn -0.4458 -0.8185 0.3624
vn 0.0797 -0.9442 0.3197
vn -0.4383 0.6188 -0.6519
vn -0.9720 -0.0881 -0.2179
vn -0.6055 -0.5265 -0.5968
vn -0.4058 0.4359 -0.8034
vn -0.2418 -0.9540 -0.1774
vn 0.7835 -0.5977 -0.1699
vn -0.4016 0.8465 -0.3494
vn 0.8755 0.4062 -0.2618
vn -0.2510 -0.9216 0.2961
vn -0.3305 0.8998 -0.2847
vn -0.8226 -0.5338 0.1959
vn -0.5777 0.4551 0.6776
vn -0.3720 0.8464 -0.3810
vn 0.6871 0.6346 -0.3539
vn -0.3942 0.6771 0.6214
vn -0.3719 -0.3777 0.8479
vn -0.5425 -0.7794 0.3133
vn -0.6639 -0.6751 0.3217
vn 0.7029 0.1839 0.6871
vn 0.1246 -0.4152 0.9012
vn 0.6742 0.6240 -0.3950
vn 0.6049 0.7861 -0.1266
vn -0.4408 0.8295 -0.3429
vn 0.9393 0.3425 0.0213
vn 0.4339 -0.8965 0.0896
vn -0.7928 0.5397 -0.2832
vn -0.9185 -0.3834 0.0972
vn -0.3538 -0.3619 0.8625
vn -0.4946 -0.8541 0.1606
vn -0.5701 -0.7674 0.2934
vn 0.0009 0.9517 -0.3071
vn 0.7579 -0.4958 -0.4239
vn 0.8676 -0.0611 -0.4935
vn -0.0741 0.8199 -0.5677
vn -0.7567 -0.4954 -0.4266
vn -0.0013 -0.9424 -0.3344
vn 0.0139 -0.4937 -0.8695
vn 0.0750 0.8109 -0.5804
vn -0.8657 -0.0652 -0.4962
vn -0.0029 0.1554 -0.9878
vn -0.4893 0.8584 0.1542
vn -0.9646 0.2633 0.0170
vn -0.7313 -0.6803 -0.0479
vn -0.4670 -0.8842 -0.0014
vn -0.5339 0.8455 -0.0093
vn 0.6434 0.7147 0.2743
vn -0.0084 -0.9564 -0.2921
vn -0.6436 0.7258 0.2428
vn -0.4281 -0.8728 -0.2345
vn -0.8602 -0.4966 -0.1156
vn 0.4327 -0.8662 -0.2500
vn -0.6318 0.7283 0.2654
vn -0.4753 0.8515 0.2215
vn 0.5418 0.6950 0.4726
vn -0.4422 -0.8963 -0.0342
vn -0.9917 -0.0976 -0.0837
vn -0.9816 0.1607 0.1027
vn -0.9747 0.1970 0.1053
vn 0.9884 0.1201 0.0925
vn 0.5006 0.8488 0.1703
vn 0.9708 0.2386 -0.0238
vn 0.9939 -0.0776 -0.0786
vn 0.4536 -0.8912 0.0061
vn 0.5414 0.8402 -0.0311
vn -0.0669 -0.9181 0.3907
vn -0.6567 0.7326 -0.1787
vn 0.6476 0.7280 -0.2251
vn 0.9857 0.1685 0.0015
vn -0.0045 -0.9624 0.2716
vn 0.9865 0.1611 0.0292
vn -0.3958 -0.8862 0.2406
vn 0.6615 0.7324 -0.1615
vn 0.4401 0.8971 -0.0391
vn -0.6692 0.6788 0.3025
vn -0.0481 0.2900 0.9558
vn 0.4736 -0.8704 0.1347
vn 0.7648 -0.6435 0.0317
vn 0.7798 0.3768 0.4999
vn 0.4098 -0.8817 0.2337
vn 0.6372 -0.7398 0.2161
vn -0.9930 0.1162 0.0215
vn -0.9957 0.0890 -0.0257
vn 0.3907 -0.8758 0.2834
vn 0.0902 -0.9080 0.4092
vn -0.9071 0.4144 -0.0740
vn -0.7345 0.6560 -0.1737
vn 0.9031 0.4218 -0.0799
vn 0.6243 0.7555 -0.1989
vn -0.0418 0.9703 -0.2384
vn 0.6264 0.7274 -0.2803
vn -0.6432 0.7253 -0.2455
vn 0.0509 -0.9406 0.3358
vn -0.2611 -0.9330 0.2474
vn 0.9951 0.0864 -0.0482
vn -0.9983 0.0158 0.0553
vn -0.0849 -0.9771 0.1949
vn 0.9875 0.1404 0.0716
vn 0.5906 0.8069 0.0127
vn -0.6721 -0.4132 -0.6144
vn 0.8114 -0.2620 -0.5224
vn -0.9907 -0.1322 -0.0321
vn -0.7298 0.6833 0.0218
vn 0.9816 -0.1763 -0.0732
vn -0.5970 -0.7984 0.0786
vn 0.9837 0.1796 -0.0106
vn 0.0451 -0.6906 -0.7219
vn -0.7790 0.6262 0.0326
vn 0.4232 0.8408 -0.3375
vn -0.5770 -0.7911 0.2029
vn 0.4267 -0.8759 0.2253
vn -0.0000 0.0013 1.0000
vn -0.9951 0.0776 -0.0614
vn 0.9779 0.2007 -0.0581
vn -0.9961 0.0720 -0.0502
vn -0.9995 0.0288 0.0094
vn -0.7480 -0.1928 -0.6351
vn 0.6237 -0.4450 -0.6426
vn 0.4492 -0.8866 0.1104
vn 0.9796 0.1954 -0.0462
vn -0.0604 -0.9969 -0.0497
vn -0.5400 0.7865 -0.2996
vn 0.6815 0.7312 0.0297
vn 0.7145 -0.6849 0.1427
vn 0.5720 -0.6772 -0.4628
vn -0.5035 -0.8480 0.1653
vn -0.4103 -0.7926 -0.4510
vn -0.6988 -0.3865 -0.6019
vn 0.7229 -0.2563 -0.6417
vn 0.2796 -0.9081 -0.3118
vn -0.3897 -0.8732 -0.2927
vn -0.0952 -0.9742 -0.2046
vn 0.8971 0.4094 0.1664
vn 0.7022 0.6637 0.2578
vn -0.8941 0.4148 0.1689
vn -0.6193 0.7318 0.2845
vn 0.0397 0.9270 0.3729
vn 0.6601 0.7158 0.2278
vn -0.6576 0.7261 0.2007
vn -0.0743 -0.9725 -0.2208
vn 0.9976 0.0683 0.0090
vn -0.9979 0.0598 -0.0251
vn 0.9995 0.0140 0.0299
vn 0.0863 -0.9101 -0.4053
vn -0.9818 0.1507 0.1156
vn -0.6857 0.6166 0.3868
vn -0.7767 -0.2069 -0.5949
vn 0.9770 -0.1804 -0.1136
vn 0.6560 -0.3579 -0.6646
vn 0.8052 0.4771 0.3522
vn -0.9778 0.2006 0.0599
vn -0.9810 0.1815 0.0690
vn 0.9994 0.0282 0.0186
vn 0.0341 -0.8383 -0.5442
vn -0.5719 0.6961 0.4340
vn 0.6880 0.6908 0.2226
vn 0.5654 -0.7775 -0.2752
vn -0.4156 -0.8542 -0.3126
vn -0.0000 0.0012 1.0000
vn 0.9968 0.0779 0.0204
vn -0.9606 -0.2175 -0.1728
vn -0.9786 0.1938 0.0690
vn -0.4150 -0.8109 -0.4125
vn -0.4886 -0.4069 -0.7718
vn 0.6203 -0.2352 -0.7483
vn 0.5490 -0.7390 -0.3906
vn 0.9971 0.0692 0.0308
vn -0.0199 -0.5055 -0.8626
vn -0.5989 0.7756 0.1996
vn 0.6554 0.6146 0.4390
vn -0.6024 -0.7350 -0.3112
vn -0.5658 -0.5256 -0.6354
vn 0.3833 -0.8448 -0.3733
vn 0.4463 -0.6182 -0.6471
vn 0.6592 -0.3180 -0.6815
vn -0.6788 -0.2201 -0.7005
vn 0.3422 0.0051 -0.9396
vn 0.2872 -0.2185 -0.9326
vn -0.2931 -0.2175 -0.9310
vn -0.3464 0.0043 -0.9381
vn -0.8374 0.4700 -0.2792
vn -0.3542 0.8636 -0.3588
vn 0.0013 0.9349 -0.3550
vn 0.6457 0.7186 -0.2585
vn 0.8206 0.5689 -0.0537
vn 0.1363 0.9517 -0.2750
vn -0.9919 0.0317 -0.1227
vn 0.1602 -0.9500 0.2681
vn 0.6985 -0.6581 0.2810
vn 0.5288 -0.5464 0.6495
vn -0.9706 -0.0538 0.2345
vn -0.9403 0.0152 0.3401
vn 0.1377 -0.0566 0.9889
vn 0.5218 0.6789 0.5165
vn 0.1491 -0.9839 0.0983
vn 0.7620 -0.6358 0.1232
vn 0.1468 0.9820 -0.1190
vn -0.8309 0.3731 -0.4127
vn -0.8914 0.4324 -0.1358
vn -0.9434 -0.3274 0.0525
vn -0.0557 -0.7965 0.6020
vn -0.0142 0.9661 0.2577
vn -0.6398 -0.0912 0.7631
vn -0.9805 -0.0816 -0.1786
vn 0.8768 0.4586 0.1442
vn -0.1605 0.8583 0.4874
vn 0.0002 0.9386 0.3450
vn -0.6527 0.7350 -0.1836
vn -0.2842 0.9586 -0.0157
vn 0.6377 0.7700 -0.0221
vn 0.9945 0.0710 -0.0769
vn 0.9309 -0.3194 -0.1774
vn -0.7503 -0.6382 -0.1723
vn -0.5669 0.2909 0.7707
vn -0.5418 -0.7689 0.3395
vn 0.9483 -0.0778 0.3076
vn 0.9759 0.0115 0.2180
vn -0.1402 -0.2904 0.9466
vn -0.1277 -0.8272 -0.5473
vn -0.7473 -0.5574 -0.3617
vn 0.3671 0.8779 0.3074
vn 0.9089 0.4144 -0.0463
vn 0.8825 0.4276 0.1959
vn -0.1516 -0.9016 -0.4052
vn 0.0656 -0.9978 0.0030
vn 0.1931 0.5572 0.8076
vn 0.7156 -0.0926 0.6924
vn 0.9761 -0.0962 -0.1947
vn 0.9236 -0.2444 0.2954
vn 0.2221 0.2442 0.9439
vn 0.8555 0.4819 0.1895
vn 0.7984 0.5867 -0.1357
vn 0.3686 -0.9230 0.1106
vn 0.7875 -0.6099 0.0881
vn 0.7283 -0.6574 0.1931
vn -0.3759 0.2311 -0.8974
vn 0.8445 -0.5350 0.0246
vn -0.0003 0.8463 0.5327
vn -0.6775 0.5902 0.4389
vn -0.2211 0.2439 0.9443
vn -0.3802 0.7140 0.5879
vn -0.4026 0.8441 -0.3542
vn -0.4635 -0.8654 -0.1903
vn -0.7860 -0.6119 0.0877
vn -0.7364 -0.6436 0.2084
vn -0.8430 -0.5372 0.0271
vn -0.8718 0.2661 0.4112
vn 0.8761 -0.4433 0.1895
vn -0.8920 -0.4467 0.0701
vn -0.9836 0.0779 0.1628
vn 0.9839 0.1310 0.1220
vn -0.9630 -0.2691 -0.0176
vn 0.9637 -0.2668 0.0053
vn -0.9663 0.2408 0.0907
vn 0.9829 0.1791 0.0424
vn 0.6822 -0.7281 0.0678
vn -0.6820 -0.7282 0.0671
vn -0.3926 -0.9158 0.0855
vn -0.5349 -0.7538 -0.3817
vn 0.0085 -0.9966 0.0820
vn 0.3956 -0.9145 0.0853
vn 0.5343 -0.7559 -0.3783
vn 0.4811 -0.8395 0.2527
vn -0.4838 -0.8382 0.2516
vn -0.4374 -0.5783 0.6887
vn 0.4381 -0.5776 0.6888
vn 0.5784 0.2572 -0.7742
vn -0.9427 0.3158 -0.1076
vn 0.9387 0.2665 -0.2186
vn 0.5438 -0.2104 -0.8124
vn -0.7965 -0.4214 -0.4336
vn -0.2285 -0.4744 -0.8502
vn -0.4852 -0.2912 -0.8245
vn -0.5920 0.1853 -0.7844
vn 0.0985 -0.9561 -0.2758
vn 0.8396 -0.5259 -0.1361
vn -0.6701 -0.7292 0.1391
vn 0.6729 -0.7262 0.1409
vn 0.0014 -0.7832 0.6218
vn -0.0002 0.9603 0.2790
vn -0.0005 0.7034 0.7108
vn 0.0306 0.9772 -0.2102
vn 0.9730 -0.0803 0.2165
vn -0.2158 0.4319 -0.8757
vn -0.6504 0.6271 0.4286
vn 0.8367 0.5164 0.1826
vn 0.5903 -0.7284 -0.3477
vn -0.5497 -0.8019 -0.2342
vn -0.7273 0.4042 0.5547
vn 0.6357 0.7146 0.2921
vn 0.4342 -0.3232 -0.8408
vn -0.6276 -0.4343 -0.6462
vn -0.8358 -0.0201 0.5487
vn -0.3195 0.0592 -0.9457
vn -0.4269 -0.8921 0.1479
vn -0.1971 -0.7818 0.5915
vn 0.5193 0.8434 -0.1381
vn -0.6862 0.6812 -0.2551
vn -0.7730 -0.6144 0.1577
vn 0.6646 -0.6596 0.3511
vn 0.4318 0.8996 -0.0657
vn -0.7111 0.3227 -0.6247
vn -0.7530 -0.6378 0.1617
vn 0.5534 -0.7446 0.3733
vn -0.5655 -0.0883 -0.8200
vn -0.3629 -0.1136 0.9249
vn -0.0765 -0.7644 0.6401
vn 0.2042 -0.9789 0.0083
vt 0.657158 0.665337
vt 0.611401 0.706399
vt 0.683749 0.709386
vt 0.445924 0.666242
vt 0.398493 0.665378
vt 0.438731 0.704760
vt 0.371810 0.709740
vt 0.373404 0.757993
vt 0.680822 0.757815
vt 0.620754 0.763755
vt 0.985002 0.709431
vt 0.932156 0.662876
vt 0.980700 0.664984
vt 0.604149 0.666161
vt 0.525066 0.705594
vt 0.525059 0.763366
vt 0.429364 0.762935
vt 0.928884 0.695761
vt 0.719689 0.709785
vt 0.776061 0.662887
vt 0.774107 0.695761
vt 0.772317 0.748597
vt 0.719132 0.758032
vt 0.984943 0.757855
vt 0.853221 0.691577
vt 0.853392 0.662867
vt 0.853266 0.743617
vt 0.930697 0.748596
vt 0.722569 0.665029
vt 0.377651 0.828368
vt 0.417837 0.838174
vt 0.677392 0.828368
vt 0.524869 0.841373
vt 0.632267 0.838174
vt 0.718361 0.828400
vt 0.982230 0.828400
vt 0.936079 0.801432
vt 0.853311 0.795656
vt 0.766958 0.801432
vt 0.369367 0.862149
vt 0.630924 0.875558
vt 0.681888 0.861607
vt 0.418902 0.876261
vt 0.420188 0.903934
vt 0.470039 0.935211
vt 0.524799 0.935655
vt 0.579985 0.935211
vt 0.629652 0.903222
vt 0.942680 0.873422
vt 0.853332 0.856313
vt 0.969607 0.862376
vt 0.990311 0.861635
vt 0.727160 0.862884
vt 0.945232 0.901696
vt 0.879000 0.901161
vt 0.763153 0.902327
vt 0.761257 0.874065
vt 0.828084 0.901161
vt 0.798553 0.942891
vt 0.942193 0.942839
vt 0.908491 0.942891
vt 0.430098 0.927656
vt 0.881662 0.982326
vt 0.853861 0.978612
vt 0.800224 0.994222
vt 0.826059 0.982326
vt 0.549246 0.991348
vt 0.501711 0.991529
vt 0.907753 0.994041
vt 0.853122 0.998890
vt 0.524612 0.996198
vt 0.431628 0.646267
vt 0.524343 0.640988
vt 0.434947 0.592676
vt 0.523787 0.548604
vt 0.439398 0.554359
vt 0.524086 0.587294
vt 0.396562 0.652979
vt 0.403669 0.570059
vt 0.617059 0.646273
vt 0.656625 0.653233
vt 0.647217 0.570067
vt 0.613215 0.592682
vt 0.608156 0.554365
vt 0.888122 0.548208
vt 0.821867 0.548221
vt 0.851774 0.531156
vt 0.853312 0.586043
vt 0.765591 0.588274
vt 0.354485 0.662838
vt 0.367671 0.593163
vt 0.950829 0.588278
vt 0.980529 0.593217
vt 0.687163 0.593160
vt 0.699580 0.662825
vt 0.733476 0.593221
vt 0.366112 0.348116
vt 0.358437 0.460000
vt 0.417690 0.387833
vt 0.766615 0.563218
vt 0.736066 0.460072
vt 0.793587 0.294295
vt 0.794310 0.308704
vt 0.751696 0.305398
vt 0.743740 0.348200
vt 0.374069 0.305310
vt 0.418229 0.343598
vt 0.796107 0.349931
vt 0.439813 0.532398
vt 0.843619 0.352695
vt 0.515514 0.304328
vt 0.469651 0.343123
vt 0.515108 0.352612
vt 0.518077 0.532118
vt 0.523264 0.531092
vt 0.834026 0.304417
vt 0.467039 0.302816
vt 0.479301 0.232433
vt 0.512099 0.078529
vt 0.464658 0.078814
vt 0.796558 0.079152
vt 0.842942 0.078641
vt 0.418975 0.303270
vt 0.378023 0.079249
vt 0.402275 0.233302
vt 0.430785 0.078303
vt 0.742332 0.079361
vt 0.444497 0.235762
vt 0.796179 0.070206
vt 0.766267 0.048886
vt 0.816032 0.054673
vt 0.378341 0.066116
vt 0.431718 0.045061
vt 0.432650 0.026444
vt 0.463506 0.045314
vt 0.842848 0.065464
vt 0.737099 0.006438
vt 0.742650 0.066230
vt 0.512004 0.065350
vt 0.462927 0.026440
vt 0.781654 0.020720
vt 0.807288 0.034896
vt 0.781462 0.034168
vt 0.806598 0.020710
vt 0.846533 0.006438
vt 0.815768 0.045593
vt 0.766571 0.038172
vt 0.372790 0.006320
vt 0.949614 0.563115
vt 0.969935 0.459983
vt 0.912391 0.349639
vt 0.954304 0.306180
vt 0.962260 0.347990
vt 0.914866 0.294075
vt 0.914188 0.308449
vt 0.871974 0.305200
vt 0.630458 0.388074
vt 0.690543 0.459912
vt 0.608454 0.532521
vt 0.682868 0.347907
vt 0.629917 0.343529
vt 0.674911 0.306092
vt 0.862381 0.352506
vt 0.523525 0.539889
vt 0.530199 0.532084
vt 0.533872 0.352423
vt 0.578496 0.343054
vt 0.533466 0.305112
vt 0.581108 0.302719
vt 0.536873 0.078583
vt 0.568846 0.232586
vt 0.583300 0.078789
vt 0.865104 0.078695
vt 0.911943 0.079312
vt 0.629171 0.303073
vt 0.645872 0.233053
vt 0.670960 0.079323
vt 0.617173 0.078259
vt 0.963672 0.079436
vt 0.603650 0.235361
vt 0.671044 0.066126
vt 0.616303 0.026389
vt 0.616738 0.045011
vt 0.676996 0.006265
vt 0.912723 0.070258
vt 0.963755 0.066239
vt 0.944650 0.048832
vt 0.536662 0.065368
vt 0.584935 0.045274
vt 0.864893 0.065482
vt 0.862329 0.006383
vt 0.891802 0.054618
vt 0.586041 0.026385
vt 0.892065 0.045538
vt 0.943832 0.038117
vt 0.902015 0.034840
vt 0.927649 0.020665
vt 0.927841 0.034113
vt 0.902705 0.020655
vt 0.969707 0.006383
vt 0.765008 0.942934
vt 0.619707 0.926984
vt 0.710077 0.862177
vt 0.226626 0.353067
vt 0.250255 0.353041
vt 0.221318 0.358090
vt 0.128332 0.267616
vt 0.076234 0.273703
vt 0.067108 0.353112
vt 0.134896 0.353116
vt 0.163959 0.298571
vt 0.162195 0.353066
vt 0.326301 0.258648
vt 0.332842 0.298571
vt 0.305577 0.259754
vt 0.334495 0.421014
vt 0.314225 0.429262
vt 0.306809 0.399324
vt 0.246021 0.358062
vt 0.240823 0.432240
vt 0.246870 0.403675
vt 0.311030 0.293850
vt 0.251919 0.272693
vt 0.038407 0.309284
vt 0.063036 0.272693
vt 0.247746 0.481033
vt 0.225547 0.486339
vt 0.997835 0.919646
vt 0.971912 0.939322
vt 0.302173 0.483092
vt 0.688908 0.889718
vt 0.994037 0.888544
vt 0.685465 0.944176
vt 0.329378 0.487316
vt 0.131769 0.497068
vt 0.160495 0.487316
vt 0.136430 0.438857
vt 0.996339 0.944198
vt 0.053440 0.431666
vt 0.062715 0.493968
vt 0.638090 0.939299
vt 0.220770 0.425891
vt 0.309934 0.358054
vt 0.308046 0.353032
vt 0.331078 0.353066
vt 0.036664 0.486339
vt 0.031887 0.425891
vt 0.165611 0.421014
vt 0.037743 0.353067
vt 0.032434 0.358090
vt 0.058379 0.358148
vt 0.133117 0.247536
vt 0.157418 0.258648
vt 0.151675 0.247229
vt 0.310559 0.247229
vt 0.062891 0.194674
vt 0.034068 0.203129
vt 0.048074 0.260196
vt 0.074084 0.256688
vt 0.123388 0.199041
vt 0.156140 0.214557
vt 0.277676 0.215162
vt 0.315023 0.214557
vt 0.246957 0.260196
vt 0.232951 0.203129
vt 0.243745 0.057975
vt 0.280522 0.052508
vt 0.121639 0.052508
vt 0.101816 0.051841
vt 0.064282 0.057117
vt 0.044862 0.057975
vt 0.081429 0.045446
vt 0.260313 0.045446
vt 0.246126 0.686419
vt 0.250401 0.690193
vt 0.221417 0.686448
vt 0.076563 0.752941
vt 0.067317 0.690264
vt 0.038652 0.717293
vt 0.128705 0.758930
vt 0.135089 0.690269
vt 0.164216 0.727875
vt 0.305827 0.766653
vt 0.311236 0.732533
vt 0.333100 0.727875
vt 0.310025 0.686411
vt 0.306854 0.627034
vt 0.246915 0.622782
vt 0.314218 0.597075
vt 0.032533 0.686448
vt 0.037882 0.690220
vt 0.058549 0.686505
vt 0.063291 0.753833
vt 0.302986 0.543251
vt 0.329387 0.539131
vt 0.365806 0.944879
vt 0.411914 0.939299
vt 0.160503 0.539131
vt 0.136532 0.587677
vt 0.165663 0.605382
vt 0.706570 0.944901
vt 0.705007 0.920282
vt 0.737618 0.939322
vt 0.246772 0.545419
vt 0.240823 0.594216
vt 0.220815 0.600634
vt 0.225571 0.540247
vt 0.362381 0.890451
vt 0.708792 0.889157
vt 0.131878 0.529529
vt 0.062829 0.532675
vt 0.226765 0.690220
vt 0.334546 0.605382
vt 0.252174 0.753833
vt 0.308168 0.690184
vt 0.036688 0.540247
vt 0.053548 0.594975
vt 0.031931 0.600634
vt 0.152475 0.779726
vt 0.157733 0.767787
vt 0.133979 0.779518
vt 0.311358 0.779725
vt 0.331227 0.690218
vt 0.162344 0.690218
vt 0.326617 0.767787
vt 0.063445 0.831694
vt 0.074526 0.769816
vt 0.048453 0.766129
vt 0.123942 0.827250
vt 0.156625 0.811444
vt 0.278134 0.810843
vt 0.315509 0.811444
vt 0.247336 0.766129
vt 0.233454 0.822993
vt 0.280805 0.974098
vt 0.243175 0.968631
vt 0.063771 0.969366
vt 0.034571 0.822993
vt 0.044292 0.968632
vt 0.102425 0.975109
vt 0.121922 0.974099
vt 0.079981 0.983047
vt 0.258864 0.983047
vt 0.534096 0.006265
vt 0.515689 0.006320
vt 0.335159 0.358090
vt 0.137620 0.358152
vt 0.166276 0.358090
vt 0.227290 0.309284
vt 0.227535 0.717292
vt 0.335267 0.686447
vt 0.166384 0.686447
vt 0.137778 0.686510
vt 0.937862 0.301029
vt 0.818862 0.549447
vt 0.943817 0.689731
vt 0.634516 0.458271
vt 0.736820 0.488742
vt 0.644740 0.400625
vt 0.240446 0.251412
vt -0.240300 0.252194
vt -0.062137 0.301029
vt 0.762085 0.137388
vt 0.543734 0.037073
vt 0.055663 0.740827
vt 0.165656 0.544295
vt 0.061124 0.300556
vt 0.197544 0.422367
vt 0.263546 0.487867
vt 0.356896 0.399917
vt 0.237832 0.136615
vt 0.458573 0.036805
vt -0.237915 0.137388
vt -0.056183 0.689731
vt 0.830960 0.755524
vt 0.665861 0.909705
vt 0.940801 0.956730
vt 0.094974 0.884125
vt -0.059199 0.956730
vt 0.486064 0.974303
vt 0.364763 0.655515
vt 0.158633 0.707437
vt 0.759700 0.252194
vt 0.801834 0.425477
vt 0.321375 0.844942
vt 0.656686 0.686679
vt 0.608014 0.532443
vt 0.564193 0.763691
vt 0.367043 0.457591
vt 0.393556 0.531810
vt 0.426887 0.792621
vt 0.468468 0.292592
vt 0.491027 0.314849
vt 0.491879 0.365390
vt 0.472586 0.459759
vt 0.489532 0.493355
vt 0.500821 0.568272
vt 0.435519 0.031243
vt 0.568444 0.031489
vt 0.500995 0.275123
vt 0.510376 0.314937
vt 0.512765 0.493436
vt 0.509796 0.365458
vt 0.529849 0.459952
vt 0.533605 0.292802
vt 0.524120 0.896797
vt 0.160970 0.844315
vt 0.658523 0.845641
vt 0.374037 0.888198
vt 0.200000 0.400000
vt 0.250000 0.400000
vt 0.250000 0.300000
vt 0.200000 0.300000
vt 0.250000 0.350000
vt 0.250000 0.250000
vt 0.200000 0.350000
vt 0.200000 0.250000
vt 0.180000 0.220000
vt 0.200000 0.150000
vt 0.230000 0.150000
vt 0.260000 0.150000
s 1
usemtl player_mat.001
f 19/1/19 4/2/4 6/3/6
f 1/4/1 20/5/20 3/6/3
f 5/7/5 41/8/41 3/6/3
f 44/9/44 4/2/4 43/10/43
f 5/7/5 3/6/3 20/5/20
f 15/11/15 17/12/17 36/13/36
f 2/14/2 1/4/1 11/15/11
f 1/4/1 3/6/3 11/15/11
f 46/16/46 3/6/3 42/17/42
f 7/18/7 17/12/17 15/11/15
f 14/19/14 16/20/16 8/21/8
f 8/21/8 40/22/40 50/23/50
f 7/18/7 15/11/15 51/24/51
f 17/12/17 7/18/7 9/25/9
f 16/20/16 18/26/18 9/25/9
f 8/21/8 16/20/16 9/25/9
f 9/25/9 10/27/10 40/22/40
f 9/25/9 7/18/7 45/28/45
f 18/26/18 17/12/17 9/25/9
f 4/2/4 19/1/19 2/14/2
f 14/19/14 38/29/38 16/20/16
f 10/27/10 9/25/9 45/28/45
f 9/25/9 40/22/40 8/21/8
f 8/21/8 50/23/50 14/19/14
f 41/8/41 42/17/42 3/6/3
f 4/2/4 11/15/11 46/16/46
f 6/3/6 4/2/4 44/9/44
f 7/18/7 51/24/51 45/28/45
f 43/10/43 4/2/4 46/16/46
f 52/30/52 53/31/53 42/17/42
f 54/32/54 44/9/44 43/10/43
f 43/10/43 46/16/46 56/33/56
f 43/10/43 56/33/56 55/34/55
f 50/23/50 40/22/40 74/35/74
f 45/28/45 75/36/75 48/37/48
f 49/38/49 10/27/10 48/37/48
f 47/39/47 40/22/40 10/27/10
f 47/39/47 10/27/10 49/38/49
f 40/22/40 47/39/47 74/35/74
f 10/27/10 45/28/45 48/37/48
f 45/28/45 51/24/51 75/36/75
f 54/32/54 43/10/43 55/34/55
f 42/17/42 53/31/53 56/33/56
f 41/8/41 52/30/52 42/17/42
f 46/16/46 42/17/42 56/33/56
f 53/31/53 52/30/52 63/40/63
f 68/41/68 62/42/62 55/34/55
f 53/31/53 69/43/69 56/33/56
f 58/44/58 66/45/66 212/46/212
f 68/41/68 56/33/56 212/46/212
f 67/47/67 60/48/60 212/46/212
f 70/49/70 64/50/64 48/37/48
f 72/51/72 75/36/75 76/52/76
f 64/50/64 49/38/49 48/37/48
f 62/42/62 54/32/54 55/34/55
f 47/39/47 73/53/73 74/35/74
f 47/39/47 49/38/49 64/50/64
f 59/54/59 65/55/65 64/50/64
f 64/50/64 57/56/57 71/57/71
f 57/56/57 61/58/61 80/59/80
f 59/54/59 373/60/359 81/61/81
f 65/55/65 61/58/61 64/50/64
f 81/61/81 65/55/65 59/54/59
f 64/50/64 61/58/61 57/56/57
f 69/43/69 212/46/212 56/33/56
f 371/62/357 66/45/66 58/44/58
f 60/48/60 68/41/68 212/46/212
f 216/63/216 217/64/217 65/55/65
f 217/64/217 61/58/61 65/55/65
f 214/65/214 80/59/80 213/66/213
f 80/59/80 61/58/61 213/66/213
f 215/67/215 212/46/212 219/68/219
f 67/47/67 212/46/212 215/67/215
f 216/63/216 81/61/81 220/69/220
f 216/63/216 65/55/65 81/61/81
f 217/64/217 213/66/213 61/58/61
f 212/46/212 66/45/66 219/68/219
f 217/64/217 216/63/216 218/70/218
f 213/66/213 217/64/217 218/70/218
f 221/71/221 215/67/215 219/68/219
f 213/66/213 218/70/218 214/65/214
f 216/63/216 220/69/220 218/70/218
f 22/72/22 12/4/12 28/73/28
f 245/74/245 29/75/29 241/76/241
f 30/77/30 245/74/245 28/73/28
f 23/78/23 39/5/39 12/4/12
f 22/72/22 23/78/23 12/4/12
f 242/79/242 23/78/23 245/74/245
f 242/79/242 245/74/245 241/76/241
f 28/73/28 13/14/13 21/80/21
f 24/81/24 13/14/13 37/1/37
f 21/80/21 13/14/13 24/81/24
f 223/82/223 226/83/226 24/81/24
f 223/82/223 222/84/222 226/83/226
f 25/85/25 26/86/26 246/87/246
f 27/88/27 35/26/35 244/89/244
f 23/78/23 31/90/31 39/5/39
f 243/91/243 31/90/31 23/78/23
f 243/91/243 23/78/23 242/79/242
f 225/92/225 35/26/35 27/88/27
f 225/92/225 224/93/224 33/12/33
f 237/94/237 24/81/24 34/95/34
f 34/95/34 24/81/24 37/1/37
f 237/94/237 223/82/223 24/81/24
f 28/73/28 12/4/12 13/14/13
f 226/83/226 29/75/29 30/77/30
f 28/73/28 226/83/226 30/77/30
f 27/88/27 25/85/25 225/92/225
f 35/26/35 225/92/225 33/12/33
f 258/96/258 244/89/244 32/20/32
f 35/26/35 32/20/32 244/89/244
f 22/72/22 28/73/28 245/74/245
f 23/78/23 22/72/22 245/74/245
f 24/81/24 226/83/226 21/80/21
f 21/80/21 226/83/226 28/73/28
f 30/77/30 29/75/29 245/74/245
f 29/75/29 226/83/226 222/84/222
f 249/97/249 251/98/251 253/99/253
f 257/100/257 258/96/258 261/101/261
f 265/102/265 273/103/273 264/104/264
f 264/104/264 273/103/273 260/105/260
f 275/106/275 249/97/249 248/107/248
f 257/100/257 250/108/250 26/86/26
f 248/107/248 249/97/249 253/99/253
f 254/109/254 242/79/242 241/76/241
f 252/110/252 250/108/250 273/103/273
f 263/111/263 247/112/247 262/113/262
f 26/86/26 252/110/252 246/87/246
f 26/86/26 250/108/250 252/110/252
f 262/113/262 255/114/255 259/115/259
f 251/98/251 243/91/243 242/79/242
f 247/112/247 248/107/248 253/99/253
f 254/109/254 29/75/29 255/114/255
f 255/114/255 253/99/253 254/109/254
f 257/100/257 26/86/26 244/89/244
f 274/116/274 252/110/252 273/103/273
f 272/117/272 263/111/263 266/118/266
f 276/119/276 267/120/267 266/118/266
f 277/121/277 290/122/290 274/116/274
f 276/119/276 266/118/266 263/111/263
f 248/107/248 271/123/271 275/106/275
f 278/124/278 268/125/268 269/126/269
f 278/124/278 275/106/275 268/125/268
f 291/127/291 277/121/277 264/104/264
f 272/117/272 271/123/271 247/112/247
f 269/126/269 268/125/268 270/128/270
f 270/128/270 267/120/267 269/126/269
f 277/121/277 265/102/265 264/104/264
f 274/116/274 265/102/265 277/121/277
f 271/123/271 270/128/270 268/125/268
f 267/120/267 270/128/270 266/118/266
f 287/129/287 281/130/281 280/131/280
f 286/132/286 269/126/269 289/133/289
f 279/134/279 308/133/303 288/135/288
f 267/120/267 307/135/302 289/133/289
f 306/129/301 285/136/285 277/121/277
f 284/137/284 281/130/281 303/138/298
f 300/139/295 283/140/283 288/135/288
f 301/139/296 267/120/267 276/119/276
f 309/141/304 312/142/307 310/143/305
f 312/142/307 309/141/304 311/144/306
f 282/145/282 312/142/307 311/144/306
f 312/142/307 313/146/308 310/143/305
f 314/147/309 284/137/284 309/141/304
f 314/147/309 280/131/280 281/130/281
f 310/143/305 314/147/309 309/141/304
f 293/145/292 316/144/292 315/141/292
f 315/141/292 297/137/292 293/145/292
f 292/134/292 296/140/292 298/148/292
f 304/138/299 277/121/277 291/127/291
f 225/92/225 236/149/236 224/93/224
f 224/93/224 236/149/236 231/150/231
f 25/85/25 228/151/228 236/149/236
f 318/152/311 230/153/230 228/151/228
f 319/154/312 327/155/320 317/156/310
f 233/157/233 223/82/223 239/158/239
f 233/157/233 234/159/234 223/82/223
f 233/157/233 238/160/238 229/161/229
f 238/160/238 329/162/322 229/161/229
f 246/87/246 232/163/232 25/85/25
f 228/151/228 232/163/232 317/156/310
f 232/163/232 228/151/228 25/85/25
f 259/115/259 256/164/256 235/165/235
f 240/166/240 227/167/227 328/168/321
f 259/115/259 235/165/235 240/166/240
f 233/157/233 239/158/239 238/160/238
f 229/161/229 227/167/227 233/157/233
f 233/157/233 227/167/227 235/165/235
f 228/151/228 230/153/230 236/149/236
f 318/152/311 228/151/228 327/155/320
f 227/167/227 325/169/318 328/168/321
f 330/170/323 320/171/313 321/172/314
f 330/170/323 328/168/321 320/171/313
f 344/173/337 331/174/324 317/156/310
f 326/175/319 329/162/322 322/176/315
f 329/162/322 332/177/325 322/176/315
f 332/177/325 323/178/316 322/176/315
f 345/179/338 318/152/311 331/174/324
f 325/169/318 229/161/229 326/175/319
f 323/178/316 321/172/314 324/180/317
f 320/171/313 324/180/317 321/172/314
f 331/174/324 318/152/311 319/154/312
f 317/156/310 331/174/324 319/154/312
f 325/169/318 324/180/317 320/171/313
f 323/178/316 324/180/317 322/176/315
f 339/181/332 323/178/316 332/177/325
f 354/181/342 333/182/326 342/183/335
f 333/182/326 354/181/342 338/184/331
f 341/185/334 355/186/343 331/174/324
f 360/185/348 334/187/327 356/186/344
f 340/188/333 321/172/314 343/189/336
f 357/190/345 335/191/328 336/192/329
f 333/182/326 337/193/330 362/189/350
f 321/172/314 323/178/316 361/183/349
f 336/192/329 367/194/355 368/195/356
f 366/196/354 363/197/351 364/198/352
f 365/199/353 363/197/351 366/196/354
f 335/191/328 365/199/353 366/196/354
f 367/194/355 335/191/328 366/196/354
f 334/187/327 368/195/356 351/200/341
f 368/195/356 363/197/351 351/200/341
f 369/197/339 370/199/339 347/191/339
f 369/197/339 347/191/339 352/200/339
f 358/190/346 331/174/324 344/173/337
f 57/56/57 80/59/80 372/201/358
f 374/202/360 60/48/60 67/47/67
f 55/34/55 56/33/56 68/41/68
f 69/43/69 58/44/58 212/46/212
f 53/31/53 63/40/63 69/43/69
f 48/37/48 72/51/72 70/49/70
f 59/54/59 64/50/64 70/49/70
f 64/50/64 71/57/71 47/39/47
f 48/37/48 75/36/75 72/51/72
f 47/39/47 71/57/71 73/53/73
f 73/53/73 78/203/78 74/35/74
f 170/204/170 167/205/167 178/206/178
f 153/207/153 155/208/155 172/209/172
f 171/210/171 153/207/153 172/209/172
f 166/211/166 171/210/171 169/212/169
f 376/213/362 191/214/191 375/215/361
f 149/216/149 150/217/150 161/218/161
f 167/205/167 177/219/177 178/206/178
f 151/220/151 160/221/160 150/217/150
f 375/215/361 165/222/165 156/223/156
f 172/209/172 155/208/155 154/224/154
f 155/208/155 181/225/181 154/224/154
f 158/226/158 162/227/162 151/220/151
f 184/228/184 159/229/159 59/54/59
f 158/226/158 151/220/151 150/217/150
f 157/230/157 158/226/158 150/217/150
f 68/41/68 60/48/60 163/231/163
f 70/49/70 72/51/72 186/232/186
f 182/233/182 163/231/163 60/48/60
f 188/234/188 150/217/150 149/216/149
f 77/235/77 189/236/189 148/237/148
f 183/238/183 159/229/159 184/228/184
f 148/237/148 152/239/152 82/240/82
f 373/60/359 59/54/59 159/229/159
f 185/241/185 60/48/60 374/202/360
f 150/217/150 188/234/188 157/230/157
f 151/220/151 162/227/162 164/242/164
f 167/205/167 176/243/176 177/219/177
f 168/244/168 165/222/165 194/245/194
f 161/218/161 150/217/150 160/221/160
f 187/246/187 152/239/152 190/247/190
f 184/228/184 59/54/59 186/232/186
f 182/233/182 60/48/60 185/241/185
f 189/236/189 179/248/179 148/237/148
f 197/249/197 209/250/209 175/251/175
f 151/220/151 164/242/164 160/221/160
f 378/252/364 391/253/377 377/254/363
f 153/207/153 378/252/364 155/208/155
f 165/222/165 168/244/168 156/223/156
f 191/214/191 165/222/165 375/215/361
f 191/214/191 194/245/194 165/222/165
f 166/211/166 153/207/153 171/210/171
f 153/207/153 166/211/166 391/253/377
f 376/213/362 375/215/361 392/255/378
f 375/215/361 156/223/156 392/255/378
f 153/207/153 391/253/377 378/252/364
f 383/256/369 382/257/368 389/258/375
f 181/225/181 155/208/155 390/259/376
f 379/260/365 383/256/369 390/259/376
f 390/259/376 378/252/364 379/260/365
f 380/261/366 379/260/365 378/252/364
f 378/252/364 377/254/363 380/261/366
f 381/262/367 393/263/379 392/255/378
f 156/223/156 398/264/384 392/255/378
f 398/264/384 381/262/367 392/255/378
f 381/262/367 394/265/380 385/266/371
f 381/262/367 385/266/371 386/267/372
f 380/261/366 396/268/382 379/260/365
f 379/260/365 388/269/374 384/270/370
f 383/256/369 384/270/370 395/271/381
f 395/271/381 384/270/370 387/272/373
f 387/272/373 384/270/370 388/269/374
f 385/266/371 397/273/383 386/267/372
f 113/274/113 104/275/104 114/276/114
f 91/277/91 108/278/108 90/279/90
f 108/278/108 91/277/91 89/280/89
f 107/281/107 89/280/89 102/282/102
f 399/283/385 101/284/101 127/285/127
f 112/286/112 104/275/104 113/274/113
f 97/287/97 96/288/96 86/289/86
f 145/290/145 103/291/103 111/292/111
f 91/277/91 90/279/90 92/293/92
f 86/289/86 93/294/93 99/295/99
f 118/296/118 95/297/95 58/44/58
f 124/298/124 84/299/84 85/300/85
f 119/301/119 94/302/94 121/303/121
f 120/304/120 86/289/86 87/305/87
f 93/294/93 86/289/86 120/304/120
f 100/306/100 98/307/98 87/305/87
f 57/56/57 121/303/121 94/302/94
f 125/308/125 69/43/69 63/40/63
f 71/57/71 57/56/57 122/309/122
f 79/310/79 83/311/83 84/299/84
f 95/297/95 371/62/357 58/44/58
f 98/307/98 120/304/120 87/305/87
f 121/303/121 57/56/57 372/201/358
f 118/296/118 58/44/58 125/308/125
f 96/288/96 87/305/87 86/289/86
f 104/275/104 128/312/128 114/276/114
f 115/313/115 97/287/97 86/289/86
f 117/314/117 105/315/105 101/284/101
f 122/309/122 57/56/57 94/302/94
f 83/311/83 123/316/123 88/317/88
f 86/289/86 99/295/99 115/313/115
f 87/305/87 96/288/96 100/306/100
f 88/317/88 123/316/123 126/318/126
f 401/319/387 400/320/386 402/321/388
f 399/283/385 416/322/402 117/314/117
f 105/315/105 106/323/106 101/284/101
f 117/314/117 101/284/101 399/283/385
f 101/284/101 106/323/106 127/285/127
f 133/324/133 107/281/107 102/282/102
f 400/320/386 102/282/102 89/280/89
f 107/281/107 108/278/108 89/280/89
f 400/320/386 89/280/89 402/321/388
f 399/283/385 127/285/127 415/325/401
f 399/283/385 415/325/401 416/322/402
f 89/280/89 91/277/91 402/321/388
f 407/326/393 414/327/400 413/328/399
f 92/293/92 413/328/399 414/327/400
f 403/329/389 402/321/388 414/327/400
f 91/277/91 414/327/400 402/321/388
f 404/330/390 402/321/388 403/329/389
f 402/321/388 404/330/390 401/319/387
f 405/331/391 416/322/402 417/332/403
f 422/333/408 416/322/402 405/331/391
f 406/334/392 422/333/408 405/331/391
f 405/331/391 411/335/397 410/336/396
f 405/331/391 417/332/403 411/335/397
f 403/329/389 407/326/393 409/337/395
f 407/326/393 418/338/404 419/339/405
f 408/340/394 420/341/406 403/329/389
f 412/342/398 420/341/406 408/340/394
f 419/339/405 412/342/398 409/337/395
f 409/337/395 412/342/398 408/340/394
f 411/335/397 421/343/407 410/336/396
f 83/311/83 88/317/88 84/299/84
f 124/298/124 79/310/79 84/299/84
f 82/240/82 152/239/152 187/246/187
f 148/237/148 82/240/82 77/235/77
f 71/57/71 122/309/122 73/53/73
f 186/232/186 59/54/59 70/49/70
f 58/44/58 69/43/69 125/308/125
f 68/41/68 163/231/163 62/42/62
f 353/184/339 348/344/339 350/193/339
f 294/345/293 283/140/283 300/139/295
f 255/114/255 262/113/262 247/112/247
f 234/159/234 29/75/29 222/84/222
f 325/169/318 320/171/313 328/168/321
f 271/123/271 268/125/268 275/106/275
f 229/161/229 329/162/322 326/175/319
f 322/176/315 324/180/317 326/175/319
f 247/112/247 263/111/263 272/117/272
f 272/117/272 266/118/266 270/128/270
f 271/123/271 248/107/248 247/112/247
f 270/128/270 271/123/271 272/117/272
f 227/167/227 229/161/229 325/169/318
f 325/169/318 326/175/319 324/180/317
f 327/155/320 228/151/228 317/156/310
f 318/152/311 327/155/320 319/154/312
f 273/103/273 250/108/250 260/105/260
f 274/116/274 273/103/273 265/102/265
f 253/99/253 251/98/251 242/79/242
f 241/76/241 29/75/29 254/109/254
f 233/157/233 235/165/235 234/159/234
f 247/112/247 253/99/253 255/114/255
f 29/75/29 256/164/256 255/114/255
f 235/165/235 227/167/227 240/166/240
f 234/159/234 235/165/235 29/75/29
f 256/164/256 29/75/29 235/165/235
f 256/164/256 259/115/259 255/114/255
f 313/146/308 282/145/282 280/131/280
f 367/194/355 364/198/352 368/195/356
f 313/146/308 280/131/280 314/147/309
f 312/142/307 282/145/282 313/146/308
f 310/143/305 313/146/308 314/147/309
f 314/147/309 281/130/281 284/137/284
f 336/192/329 335/191/328 367/194/355
f 366/196/354 364/198/352 367/194/355
f 336/192/329 368/195/356 334/187/327
f 364/198/352 363/197/351 368/195/356
f 285/136/285 290/122/290 277/121/277
f 280/131/280 282/145/282 302/136/297
f 334/187/327 351/200/341 356/186/344
f 355/186/343 345/179/338 331/174/324
f 330/170/323 321/172/314 340/188/333
f 336/192/329 360/185/348 357/190/345
f 278/124/278 269/126/269 286/132/286
f 281/130/281 287/129/287 303/138/298
f 277/121/277 304/138/299 306/129/301
f 280/131/280 302/136/297 287/129/287
f 336/192/329 334/187/327 360/185/348
f 341/185/334 331/174/324 358/190/346
f 339/181/332 361/183/349 323/178/316
f 362/189/350 342/183/335 333/182/326
f 359/188/347 362/189/350 337/193/330
f 361/183/349 343/189/336 321/172/314
f 279/134/279 288/135/288 283/140/283
f 301/139/296 307/135/302 267/120/267
f 267/120/267 289/133/289 269/126/269
f 308/133/303 279/134/279 305/132/300
f 253/99/253 242/79/242 254/109/254
f 223/82/223 234/159/234 222/84/222
f 409/337/395 407/326/393 419/339/405
f 408/340/394 403/329/389 409/337/395
f 405/331/391 410/336/396 406/334/392
f 420/341/406 404/330/390 403/329/389
f 396/268/382 387/272/373 388/269/374
f 396/268/382 388/269/374 379/260/365
f 381/262/367 386/267/372 393/263/379
f 383/256/369 395/271/381 382/257/368
f 379/260/365 384/270/370 383/256/369
f 26/86/26 27/88/27 244/89/244
f 27/88/27 26/86/26 25/85/25
f 239/158/239 223/82/223 237/94/237
f 260/105/260 257/100/257 261/101/261
f 407/326/393 413/328/399 418/338/404
f 422/333/408 117/314/117 416/322/402
f 92/293/92 414/327/400 91/277/91
f 403/329/389 414/327/400 407/326/393
f 390/259/376 389/258/375 181/225/181
f 394/265/380 381/262/367 398/264/384
f 389/258/375 390/259/376 383/256/369
f 378/252/364 390/259/376 155/208/155
f 350/193/339 346/182/339 353/184/339
f 296/140/292 295/345/292 298/148/292
f 279/134/279 299/148/294 305/132/300
f 359/188/347 337/193/330 349/344/340
f 198/204/198 156/223/156 192/205/192
f 167/205/167 193/244/193 176/243/176
f 193/244/193 173/346/173 176/243/176
f 168/244/168 192/205/192 156/223/156
f 195/212/195 174/347/174 202/348/202
f 193/244/193 196/245/196 173/346/173
f 180/349/180 156/223/156 198/204/198
f 172/209/172 154/224/154 199/249/199
f 108/278/108 129/291/129 90/279/90
f 116/350/116 130/312/130 117/314/117
f 130/312/130 131/275/131 117/314/117
f 104/275/104 112/286/112 132/315/132
f 105/315/105 117/314/117 131/275/131
f 132/315/132 112/286/112 109/351/109
f 132/315/132 109/351/109 134/323/134
f 135/324/135 138/352/138 110/353/110
f 135/324/135 110/353/110 136/281/136
f 136/281/136 110/353/110 111/292/111
f 200/210/200 175/251/175 174/347/174
f 195/212/195 200/210/200 174/347/174
f 200/210/200 201/209/201 175/251/175
f 197/249/197 175/251/175 201/209/201
f 103/291/103 137/278/137 111/292/111
f 136/281/136 111/292/111 137/278/137
f 179/248/179 203/348/203 148/237/148
f 207/243/207 204/346/204 149/216/149
f 148/237/148 205/347/205 152/239/152
f 203/348/203 205/347/205 148/237/148
f 205/347/205 206/251/206 152/239/152
f 210/250/210 152/239/152 206/251/206
f 143/286/143 115/313/115 139/351/139
f 85/300/85 84/299/84 140/352/140
f 140/352/140 84/299/84 141/353/141
f 84/299/84 88/317/88 141/353/141
f 146/290/146 142/292/142 88/317/88
f 141/353/141 88/317/88 142/292/142
f 144/274/144 97/287/97 143/286/143
f 97/287/97 115/313/115 143/286/143
f 96/288/96 144/274/144 100/306/100
f 96/288/96 97/287/97 144/274/144
f 208/219/208 207/243/207 161/218/161
f 161/218/161 207/243/207 149/216/149
f 160/221/160 164/242/164 208/219/208
f 160/221/160 208/219/208 161/218/161
f 126/318/126 146/290/146 88/317/88
f 144/274/144 147/276/147 100/306/100
f 208/219/208 164/242/164 211/206/211
f 190/247/190 152/239/152 210/250/210
f 244/89/244 258/96/258 257/100/257
f 260/105/260 250/108/250 257/100/257
f 236/149/236 230/153/230 231/150/231
f 25/85/25 236/149/236 225/92/225
f 2/14/2 11/15/11 4/2/4
f 11/15/11 3/6/3 46/16/46
f 425/354/411 449/355/435 426/356/412
f 428/357/414 447/358/433 431/359/417
f 441/360/427 432/361/418 475/362/461
f 431/359/417 423/363/409 460/364/446
f 436/365/422 448/366/434 435/367/421
f 441/360/427 435/367/421 444/368/430
f 446/369/432 440/370/426 441/360/427
f 433/371/419 432/361/418 441/360/427
f 440/370/426 459/372/445 433/371/419
f 474/373/460 432/361/418 433/371/419
f 441/360/427 475/362/461 435/367/421
f 435/367/421 476/374/462 436/365/422
f 476/374/462 435/367/421 475/362/461
f 463/375/449 464/376/450 461/377/447
f 430/378/416 436/365/422 478/379/464
f 466/380/452 461/377/447 464/376/450
f 443/381/429 448/366/434 462/382/448
f 477/383/463 445/384/431 425/354/411
f 445/384/431 449/355/435 425/354/411
f 443/381/429 462/382/448 465/385/451
f 477/383/463 447/358/433 445/384/431
f 447/358/433 477/383/463 431/359/417
f 442/386/428 428/357/414 429/387/415
f 442/386/428 447/358/433 428/357/414
f 427/388/413 442/386/428 429/387/415
f 449/355/435 447/358/433 442/386/428
f 446/369/432 441/360/427 444/368/430
f 438/389/424 440/370/426 446/369/432
f 446/369/432 443/381/429 438/389/424
f 439/390/425 438/389/424 443/381/429
f 437/391/423 439/390/425 443/381/429
f 448/366/434 446/369/432 444/368/430
f 443/381/429 465/385/451 437/391/423
f 448/366/434 444/368/430 435/367/421
f 443/381/429 446/369/432 448/366/434
f 449/355/435 442/386/428 463/375/449
f 445/384/431 447/358/433 449/355/435
f 477/383/463 423/363/409 431/359/417
f 459/372/445 440/370/426 451/392/437
f 458/393/444 451/392/437 453/394/439
f 440/370/426 433/371/419 441/360/427
f 451/392/437 440/370/426 471/395/457
f 439/390/425 471/395/457 438/389/424
f 452/396/438 439/390/425 454/397/440
f 471/395/457 439/390/425 452/396/438
f 434/398/420 459/372/445 424/399/410
f 473/400/459 460/364/446 459/372/445
f 454/397/440 437/391/423 427/388/413
f 429/387/415 454/397/440 427/388/413
f 457/401/443 473/400/459 458/393/444
f 439/390/425 437/391/423 454/397/440
f 455/402/441 452/396/438 454/397/440
f 453/394/439 452/396/438 455/402/441
f 456/403/442 453/394/439 455/402/441
f 457/401/443 453/394/439 456/403/442
f 428/357/414 472/404/458 429/387/415
f 429/387/415 455/402/441 454/397/440
f 456/403/442 450/405/436 457/401/443
f 472/404/458 428/357/414 431/359/417
f 450/405/436 455/402/441 472/404/458
f 466/380/452 464/376/450 469/406/455
f 450/405/436 473/400/459 457/401/443
f 455/402/441 450/405/436 456/403/442
f 451/392/437 452/396/438 453/394/439
f 457/401/443 458/393/444 453/394/439
f 459/372/445 451/392/437 473/400/459
f 460/364/446 450/405/436 431/359/417
f 460/364/446 424/399/410 459/372/445
f 434/398/420 433/371/419 459/372/445
f 424/399/410 460/364/446 423/363/409
f 478/379/464 436/365/422 476/374/462
f 430/378/416 478/379/464 466/380/452
f 436/365/422 462/382/448 448/366/434
f 436/365/422 468/407/454 462/382/448
f 426/356/412 463/375/449 461/377/447
f 426/356/412 449/355/435 463/375/449
f 464/376/450 463/375/449 470/408/456
f 463/375/449 442/386/428 470/408/456
f 468/407/454 465/385/451 462/382/448
f 467/409/453 437/391/423 465/385/451
f 437/391/423 466/380/452 469/406/455
f 437/391/423 467/409/453 466/380/452
f 467/409/453 465/385/451 468/407/454
f 430/378/416 466/380/452 467/409/453
f 430/378/416 468/407/454 436/365/422
f 467/409/453 468/407/454 430/378/416
f 470/408/456 469/406/455 464/376/450
f 427/388/413 437/391/423 469/406/455
f 427/388/413 470/408/456 442/386/428
f 427/388/413 469/406/455 470/408/456
f 433/371/419 434/398/420 424/399/410
f 474/373/460 433/371/419 424/399/410
f 451/392/437 471/395/457 452/396/438
f 471/395/457 440/370/426 438/389/424
f 455/402/441 429/387/415 472/404/458
f 450/405/436 472/404/458 431/359/417
f 450/405/436 460/364/446 473/400/459
f 473/400/459 451/392/437 458/393/444
f 479/410/465 480/411/466 484/412/470 483/413/469
f 480/411/466 481/414/467 485/415/471 484/412/470
f 481/414/467 482/416/468 486/417/472 485/415/471
f 482/416/468 479/410/465 483/413/469 486/417/472
f 483/413/469 484/412/470 487/418/473
f 484/412/470 485/415/471 487/418/473
f 485/415/471 486/417/472 487/418/473
f 486/417/472 483/413/469 487/418/473
f 483/413/469 487/418/473 488/419/474
f 484/412/470 487/418/473 489/420/475
f 484/412/470 489/420/475 490/421/476
f 485/415/471 490/421/476 489/420/475
f 485/415/471 489/420/475 486/417/472
f 486/417/472 489/420/475 488/419/474
f 488/419/474 489/420/475 490/421/476
f 495/413/481 496/412/482 492/411/478 491/410/477
f 496/412/482 497/415/483 493/414/479 492/411/478
f 497/415/483 498/417/484 494/416/480 493/414/479
f 498/417/484 495/413/481 491/410/477 494/416/480
f 499/418/485 496/412/482 495/413/481
f 499/418/485 497/415/483 496/412/482
f 499/418/485 498/417/484 497/415/483
f 499/418/485 495/413/481 498/417/484
f 500/419/486 499/418/485 495/413/481
f 501/420/487 499/418/485 496/412/482
f 502/421/488 501/420/487 496/412/482
f 501/420/487 502/421/488 497/415/483
f 498/417/484 501/420/487 497/415/483
f 500/419/486 501/420/487 498/417/484
f 502/421/488 501/420/487 500/419/486
