# Blender 5.1.1
# www.blender.org
mtllib player_walk3.mtl
o player_walk3
v -0.088865 -0.101194 1.052208
v 0.089191 -0.101522 1.052074
v -0.100719 -0.084547 1.115691
v 0.101144 -0.082126 1.118397
v -0.138927 -0.016590 1.123992
v 0.138841 -0.015255 1.123410
v 0.112527 0.070483 1.100991
v -0.113051 0.070236 1.100991
v -0.000373 0.088677 1.094120
v -0.000299 0.091486 1.179903
v 0.000212 -0.101964 1.117044
v -0.088865 -0.101194 1.052208
v 0.089191 -0.101522 1.052074
v -0.138927 -0.016590 1.123992
v 0.138841 -0.015255 1.123410
v -0.115331 0.069135 1.046789
v 0.102555 0.068688 1.046769
v -0.000092 0.086250 1.046779
v 0.139176 -0.012692 1.050149
v -0.139533 -0.012101 1.050224
v 0.114282 -0.093758 1.019117
v -0.103647 -0.094080 1.019106
v -0.140101 -0.015548 1.031115
v 0.139833 -0.015104 1.031507
v 0.029971 0.083020 0.857790
v -0.034325 0.083279 0.857812
v -0.000223 0.083165 0.920155
v -0.000979 -0.105627 1.010891
v -0.001896 -0.111368 0.858284
v -0.001404 -0.118439 0.922044
v -0.115331 0.069135 1.046789
v -0.115331 0.069135 1.046789
v 0.102555 0.068688 1.046769
v 0.102555 0.068688 1.046769
v -0.000092 0.086250 1.046779
v 0.139176 -0.012692 1.050149
v 0.139176 -0.012692 1.050149
v -0.139533 -0.012101 1.050224
v -0.139533 -0.012101 1.050224
v -0.116002 0.074747 1.188089
v -0.145754 -0.016743 1.203520
v -0.116157 -0.083639 1.211576
v 0.116558 -0.082311 1.212929
v 0.145834 -0.015958 1.203228
v 0.115515 0.074968 1.188089
v 0.000200 -0.108967 1.212252
v -0.124836 0.079259 1.275186
v 0.124386 0.079454 1.275186
v -0.000225 0.094296 1.265685
v -0.145754 -0.016743 1.203520
v 0.145834 -0.015958 1.203228
v -0.147026 -0.016897 1.319510
v -0.135156 -0.082039 1.335584
v 0.147273 -0.016661 1.319510
v 0.135533 -0.081803 1.335584
v -0.000112 -0.115439 1.340813
v -0.111100 0.022825 1.441420
v -0.131281 -0.065000 1.443992
v 0.110929 0.022783 1.440380
v 0.131224 -0.065053 1.442818
v -0.041808 0.027370 1.439504
v 0.160592 -0.059457 1.374236
v -0.160679 -0.059587 1.375129
v -0.000190 0.071476 1.365638
v 0.042119 0.027508 1.439505
v -0.057518 -0.050915 1.479051
v 0.057764 -0.050777 1.479051
v 0.133320 -0.082319 1.397200
v -0.133400 -0.082360 1.398358
v 0.135266 0.041647 1.393800
v -0.135413 0.041586 1.394860
v 0.164287 0.022905 1.375568
v -0.164432 0.022769 1.376404
v -0.147026 -0.016897 1.319510
v 0.147273 -0.016661 1.319510
v 0.160592 -0.059457 1.374236
v 0.160592 -0.059457 1.374236
v -0.160679 -0.059587 1.375129
v -0.160679 -0.059587 1.375129
v -0.057518 -0.050915 1.479051
v 0.057764 -0.050777 1.479051
v 0.164287 0.022905 1.375568
v -0.164432 0.022769 1.376404
v -0.133557 -0.065408 1.337944
v -0.189867 -0.070147 1.321802
v -0.222061 -0.061142 1.334352
v -0.216693 0.026360 1.335976
v -0.141014 0.033259 1.328348
v -0.153847 -0.015831 1.134566
v -0.183586 0.057777 1.185717
v -0.157523 0.045129 1.141107
v -0.213656 0.046419 1.144851
v -0.217563 -0.052767 1.398188
v -0.212634 0.014449 1.394144
v -0.206736 -0.020370 1.429140
v -0.216629 0.025066 1.301886
v -0.219126 -0.045896 1.298100
v -0.161927 0.041538 1.395551
v -0.159495 -0.082248 1.398562
v -0.193234 0.040859 1.326076
v -0.219844 -0.029040 1.171958
v -0.183619 -0.042401 1.174606
v -0.187729 0.049015 1.240118
v -0.210768 0.031538 1.242397
v -0.215846 -0.037849 1.243897
v -0.185443 -0.051947 1.241456
v -0.141275 -0.065182 1.237431
v -0.148219 0.015456 1.236808
v -0.191795 -0.058163 1.248141
v -0.136692 -0.068162 1.243129
v -0.144117 0.026132 1.242339
v -0.223850 -0.041535 1.250688
v -0.219757 0.035141 1.249164
v -0.194981 0.053991 1.246712
v -0.189867 -0.070147 1.321802
v -0.183586 0.057777 1.185717
v -0.213656 0.046419 1.144851
v -0.217563 -0.052767 1.398188
v -0.217563 -0.052767 1.398188
v -0.212634 0.014449 1.394144
v -0.206736 -0.020370 1.429140
v -0.161927 0.041538 1.395551
v -0.161927 0.041538 1.395551
v -0.159495 -0.082248 1.398562
v -0.159495 -0.082248 1.398562
v -0.193234 0.040859 1.326076
v -0.183619 -0.042401 1.174606
v -0.187729 0.049015 1.240118
v -0.187729 0.049015 1.240118
v -0.187729 0.049015 1.240118
v -0.210768 0.031538 1.242397
v -0.215846 -0.037849 1.243897
v -0.185443 -0.051947 1.241456
v -0.185443 -0.051947 1.241456
v -0.185443 -0.051947 1.241456
v -0.141275 -0.065182 1.237431
v -0.148219 0.015456 1.236808
v -0.191795 -0.058163 1.248141
v -0.191795 -0.058163 1.248141
v -0.191795 -0.058163 1.248141
v -0.136692 -0.068162 1.243129
v -0.144117 0.026132 1.242339
v -0.223850 -0.041535 1.250688
v -0.219757 0.035141 1.249164
v -0.194981 0.053991 1.246712
v -0.194981 0.053991 1.246712
v -0.194981 0.053991 1.246712
v 0.132438 -0.065400 1.337967
v 0.188748 -0.086779 1.321826
v 0.220942 -0.073072 1.334376
v 0.215566 0.015038 1.335991
v 0.139886 0.033266 1.328362
v 0.153014 -0.102649 1.134611
v 0.182463 -0.009885 1.185736
v 0.156177 -0.039261 1.141139
v 0.212309 -0.036566 1.144888
v 0.216476 -0.051695 1.398187
v 0.211476 0.013376 1.394184
v 0.206744 -0.020348 1.428928
v 0.215506 0.000962 1.301905
v 0.218003 -0.071420 1.298119
v 0.160806 0.041582 1.395560
v 0.158372 -0.082217 1.398590
v 0.192106 0.025827 1.326090
v 0.218721 -0.101875 1.171977
v 0.182496 -0.114230 1.174625
v 0.209575 -0.014865 1.242364
v 0.214750 -0.083688 1.243974
v 0.184345 -0.098713 1.241554
v 0.186644 0.001705 1.240071
v 0.140178 -0.065215 1.237517
v 0.147026 0.015451 1.236767
v 0.190550 -0.102452 1.248206
v 0.135449 -0.068229 1.243178
v 0.142830 0.026085 1.242247
v 0.222609 -0.084844 1.250727
v 0.218469 -0.008757 1.249086
v 0.193755 0.009121 1.246615
v 0.188748 -0.086779 1.321826
v 0.182463 -0.009885 1.185736
v 0.212309 -0.036566 1.144888
v 0.216476 -0.051695 1.398187
v 0.216476 -0.051695 1.398187
v 0.211476 0.013376 1.394184
v 0.206744 -0.020348 1.428928
v 0.160806 0.041582 1.395560
v 0.160806 0.041582 1.395560
v 0.158372 -0.082217 1.398590
v 0.158372 -0.082217 1.398590
v 0.192106 0.025827 1.326090
v 0.182496 -0.114230 1.174625
v 0.209575 -0.014865 1.242364
v 0.214750 -0.083688 1.243974
v 0.184345 -0.098713 1.241554
v 0.184345 -0.098713 1.241554
v 0.184345 -0.098713 1.241554
v 0.186644 0.001705 1.240071
v 0.186644 0.001705 1.240071
v 0.186644 0.001705 1.240071
v 0.140178 -0.065215 1.237517
v 0.147026 0.015451 1.236767
v 0.190550 -0.102452 1.248206
v 0.190550 -0.102452 1.248206
v 0.190550 -0.102452 1.248206
v 0.135449 -0.068229 1.243178
v 0.142830 0.026085 1.242247
v 0.222609 -0.084844 1.250727
v 0.218469 -0.008757 1.249086
v 0.193755 0.009121 1.246615
v 0.193755 0.009121 1.246615
v 0.193755 0.009121 1.246615
v -0.000228 -0.070151 1.479756
v -0.045145 0.019057 1.568868
v -0.038281 -0.041186 1.588396
v 0.040065 -0.041630 1.588096
v 0.046508 0.019134 1.568868
v 0.000682 0.043238 1.562778
v -0.000537 0.008844 1.596157
v -0.038281 -0.041186 1.588396
v 0.040065 -0.041630 1.588096
v -0.000537 0.008844 1.596157
v 0.095795 -0.106303 0.867810
v 0.147175 -0.029972 0.893773
v 0.144468 0.040791 0.931912
v 0.113241 0.077006 0.923810
v 0.104133 -0.113681 0.930956
v 0.030655 -0.036453 0.519579
v 0.072463 0.107803 0.530439
v 0.115406 -0.036467 0.520362
v 0.134085 0.081874 0.527692
v 0.146735 0.038373 0.712278
v 0.014726 0.080954 0.535136
v 0.116298 -0.048112 0.593763
v 0.096286 -0.099653 0.831816
v 0.008671 -0.098772 0.831096
v 0.111239 0.074335 0.882329
v 0.144468 0.040791 0.931912
v 0.134085 0.081874 0.527692
v 0.146735 0.038373 0.712278
v 0.014726 0.080954 0.535136
v -0.099620 -0.106528 0.867797
v -0.149052 -0.030067 0.893761
v -0.145748 0.040831 0.931920
v -0.114087 0.076830 0.923807
v -0.106956 -0.113947 0.930941
v -0.002758 0.034413 0.829609
v -0.032132 -0.120650 0.547567
v -0.116883 -0.120429 0.548275
v -0.135559 -0.000109 0.555102
v -0.073937 0.026661 0.557703
v -0.148209 0.011513 0.721449
v -0.016200 0.001190 0.561785
v -0.117772 -0.110466 0.614034
v -0.098935 -0.098826 0.831609
v -0.011306 -0.097505 0.831150
v -0.002327 -0.088562 0.843967
v -0.112399 0.075366 0.882504
v -0.145748 0.040831 0.931920
v -0.002758 0.034413 0.829609
v -0.135559 -0.000109 0.555102
v -0.148209 0.011513 0.721449
v -0.016200 0.001190 0.561785
v -0.016709 0.005389 0.489978
v -0.133927 -0.003832 0.491443
v -0.078272 0.014886 0.474931
v -0.016227 -0.111985 0.383023
v -0.040361 -0.161512 0.154595
v -0.143178 -0.113104 0.384314
v -0.096188 -0.165200 0.153831
v -0.073589 -0.147679 0.387949
v -0.118208 -0.128408 0.488347
v -0.033384 -0.128179 0.487671
v -0.076830 0.024498 0.496362
v -0.016709 0.005389 0.489978
v -0.133927 -0.003832 0.491443
v -0.037642 -0.063417 0.154202
v -0.073193 -0.037422 0.154960
v -0.115929 -0.058214 0.155273
v -0.093115 -0.173716 0.076762
v -0.036267 -0.012831 0.118556
v -0.119668 -0.014942 0.105366
v -0.031724 -0.020718 0.076568
v -0.043213 -0.167996 0.076755
v -0.124553 -0.020528 0.076568
v -0.037797 -0.062461 0.134606
v -0.115404 -0.057961 0.135744
v -0.073818 -0.034477 0.141656
v -0.042259 -0.173377 0.104836
v -0.094651 -0.178081 0.104461
v -0.037642 -0.063417 0.154202
v -0.115929 -0.058214 0.155273
v -0.093115 -0.173716 0.076762
v -0.031724 -0.020718 0.076568
v -0.031724 -0.020718 0.076568
v -0.031724 -0.020718 0.076568
v -0.043213 -0.167996 0.076755
v -0.124553 -0.020528 0.076568
v -0.124553 -0.020528 0.076568
v -0.124553 -0.020528 0.076568
v -0.037797 -0.062461 0.134606
v -0.037797 -0.062461 0.134606
v -0.037797 -0.062461 0.134606
v -0.115404 -0.057961 0.135744
v -0.115404 -0.057961 0.135744
v -0.115404 -0.057961 0.135744
v -0.073818 -0.034477 0.141656
v -0.042259 -0.173377 0.104836
v -0.094651 -0.178081 0.104461
v -0.097759 0.060828 0.076464
v -0.098076 0.061934 0.096464
v -0.056643 0.072245 0.076450
v -0.055506 0.072123 0.097545
v -0.036701 -0.003072 0.112694
v -0.118320 -0.005105 0.104714
v -0.097759 0.060828 0.076464
v -0.056643 0.072245 0.076450
v 0.016291 0.108650 0.457147
v 0.131397 0.098945 0.458769
v 0.076708 0.123482 0.438814
v 0.014752 0.028629 0.337552
v 0.038575 0.054193 0.084059
v 0.141703 0.027188 0.338320
v 0.094402 0.053881 0.083184
v 0.072114 -0.008600 0.342098
v 0.031529 -0.023255 0.453135
v 0.117111 -0.023681 0.453718
v 0.075356 0.126098 0.462511
v 0.016291 0.108650 0.457147
v 0.131397 0.098945 0.458769
v 0.036153 0.156149 0.083770
v 0.071724 0.181812 0.084790
v 0.114460 0.160978 0.084991
v 0.092969 0.071719 -0.002270
v 0.119522 0.220560 0.029472
v 0.031577 0.224915 -0.002450
v 0.036120 0.218755 0.044091
v 0.043091 0.077530 -0.002277
v 0.124407 0.224999 -0.002450
v 0.114597 0.167556 0.063240
v 0.035805 0.163710 0.061991
v 0.073010 0.189280 0.069867
v 0.093685 0.057836 0.028439
v 0.041269 0.060897 0.028872
v 0.036153 0.156149 0.083770
v 0.114460 0.160978 0.084991
v 0.092969 0.071719 -0.002270
v 0.031577 0.224915 -0.002450
v 0.031577 0.224915 -0.002450
v 0.031577 0.224915 -0.002450
v 0.043091 0.077530 -0.002277
v 0.124407 0.224999 -0.002450
v 0.124407 0.224999 -0.002450
v 0.124407 0.224999 -0.002450
v 0.114597 0.167556 0.063240
v 0.114597 0.167556 0.063240
v 0.114597 0.167556 0.063240
v 0.035805 0.163710 0.061991
v 0.035805 0.163710 0.061991
v 0.035805 0.163710 0.061991
v 0.073010 0.189280 0.069867
v 0.093685 0.057836 0.028439
v 0.041269 0.060897 0.028872
v 0.097613 0.306835 -0.002546
v 0.097930 0.301313 0.019621
v 0.056497 0.318464 -0.002560
v 0.055360 0.311176 0.020822
v 0.036555 0.230681 0.037595
v 0.118174 0.231054 0.028750
v 0.097613 0.306835 -0.002546
v 0.056497 0.318464 -0.002560
v -0.114947 -0.019657 1.450187
v -0.114947 -0.019657 1.450187
v 0.114833 -0.019712 1.449079
v 0.114833 -0.019712 1.449079
v 0.215409 -0.103555 1.130744
v 0.186773 -0.116136 1.127071
v 0.217897 -0.112536 1.116068
v 0.162810 -0.113328 1.111537
v 0.150680 -0.113248 1.052198
v 0.214728 -0.125666 1.076760
v 0.236072 -0.081425 1.078652
v 0.218682 -0.030855 1.061800
v 0.158499 -0.042460 1.046468
v 0.191594 -0.077758 0.884755
v 0.225519 -0.078764 0.888830
v 0.225123 -0.123821 0.882979
v 0.209999 -0.101250 0.872770
v 0.192166 -0.123685 0.879235
v 0.214741 -0.033710 1.130049
v 0.156561 -0.040808 1.120763
v 0.186773 -0.116136 1.127071
v 0.217897 -0.112536 1.116068
v 0.214728 -0.125666 1.076760
v 0.218682 -0.030855 1.061800
v 0.225519 -0.078764 0.888830
v 0.225123 -0.123821 0.882979
v 0.209999 -0.101250 0.872770
v 0.214741 -0.033710 1.130049
v -0.216245 -0.015225 1.130699
v -0.187921 -0.026480 1.127079
v -0.215843 -0.019079 1.115115
v -0.164149 -0.018334 1.110906
v -0.148413 -0.054378 1.052217
v -0.211005 -0.017142 1.076797
v -0.232348 0.026388 1.078695
v -0.214959 0.083279 1.061836
v -0.156232 0.077427 1.046485
v -0.191192 0.059144 0.878542
v -0.191264 0.104192 0.884728
v -0.227810 0.101584 0.888787
v -0.227653 0.057708 0.882907
v -0.211502 0.086652 0.870399
v -0.213543 0.054796 1.130039
v -0.156091 0.051181 1.120749
v -0.187921 -0.026480 1.127079
v -0.215843 -0.019079 1.115115
v -0.211005 -0.017142 1.076797
v -0.214959 0.083279 1.061836
v -0.227810 0.101584 0.888787
v -0.227653 0.057708 0.882907
v -0.211502 0.086652 0.870399
v -0.213543 0.054796 1.130039
v -0.060643 0.005602 1.536653
v -0.019903 0.052138 1.506097
v -0.036268 -0.075141 1.584586
v -0.039382 -0.086759 1.686198
v -0.029643 0.090379 1.693442
v -0.053657 0.063366 1.616004
v -0.050428 0.079555 1.634156
v 0.034470 -0.027492 1.732728
v -0.058102 0.059998 1.601271
v -0.063366 0.008354 1.566245
v 0.059940 0.005643 1.536616
v 0.019057 0.052203 1.506083
v 0.035815 -0.075061 1.584557
v 0.038928 -0.085825 1.699498
v 0.034339 0.090985 1.700995
v 0.052873 0.063467 1.615968
v 0.049584 0.079636 1.634125
v 0.057206 0.060101 1.601240
v 0.062578 0.008468 1.566208
v -0.058334 0.058452 1.675580
v 0.053881 0.066505 1.667107
v 0.080146 -0.012132 1.611970
v -0.080463 -0.011897 1.612539
v 0.069463 0.022243 1.626627
v -0.070087 0.022154 1.626667
v 0.076896 -0.027605 1.644639
v -0.075642 -0.017471 1.645081
v -0.017407 0.094566 1.571024
v 0.016562 0.094591 1.571015
v 0.005428 0.097702 1.622869
v 0.005161 0.112947 1.588645
v -0.000414 0.105044 1.641800
v -0.006485 0.097703 1.622874
v -0.005993 0.112948 1.588647
v -0.006874 0.120255 1.575047
v 0.006174 0.120268 1.575041
v 0.021450 0.088014 1.505112
v -0.022247 0.087969 1.505124
v -0.024775 -0.038598 1.752230
v 0.085704 -0.035147 1.687481
v -0.085629 -0.026628 1.699143
v -0.063612 0.060712 1.733275
v 0.075618 0.058892 1.716790
v 0.005197 0.085030 1.748486
v 0.037278 0.060133 1.727875
v 0.065334 -0.018300 1.721823
v -0.012387 0.103906 1.727082
v -0.077203 0.072422 1.715847
v 0.012543 0.087360 1.614862
v -0.013520 0.087309 1.614879
v -0.000423 0.101895 1.565967
v -0.060643 0.005602 1.536653
v -0.036268 -0.075141 1.584586
v -0.039382 -0.086759 1.686198
v -0.063366 0.008354 1.566245
v -0.024775 -0.038598 1.752230
v -0.209250 0.094764 0.877300
v -0.199950 0.093214 0.877300
v -0.199950 0.071514 0.877300
v -0.209250 0.071514 0.877300
v -0.220100 0.105420 0.837000
v -0.201500 0.102902 0.833900
v -0.201500 0.082752 0.833900
v -0.217000 0.082170 0.837000
v -0.229400 0.115108 0.818400
v -0.223200 -0.006196 0.786290
v -0.213900 -0.009767 0.783493
v -0.204600 -0.008824 0.789087
v 0.209250 -0.088564 0.877300
v 0.199950 -0.090114 0.877300
v 0.199950 -0.111814 0.877300
v 0.209250 -0.111814 0.877300
v 0.220100 -0.093020 0.837000
v 0.201500 -0.096702 0.833900
v 0.201500 -0.116852 0.833900
v 0.217000 -0.116270 0.837000
v 0.229400 -0.090308 0.818400
v 0.223200 -0.000004 0.784300
v 0.213900 -0.002633 0.781200
v 0.204600 -0.003576 0.787400
vn 0.4826 0.8726 -0.0756
vn -0.4862 0.8686 -0.0955
vn 0.6078 0.7941 -0.0032
vn -0.6165 0.7873 -0.0084
vn 0.8732 0.4847 0.0508
vn -0.8716 0.4877 0.0483
vn -0.6769 -0.7271 0.1146
vn 0.6547 -0.7554 0.0256
vn -0.0032 -0.9990 0.0453
vn 0.0009 -0.9992 0.0390
vn -0.0075 0.9999 -0.0092
vn 0.4332 0.9005 -0.0387
vn -0.3828 0.9187 -0.0972
vn 0.9607 -0.2750 0.0370
vn -0.9492 -0.3069 0.0700
vn 0.6628 -0.7488 -0.0048
vn -0.6082 -0.7889 0.0884
vn -0.0117 -0.9986 0.0511
vn -0.8714 0.4904 0.0133
vn 0.8708 0.4908 0.0269
vn -0.6948 0.6914 -0.1979
vn 0.6262 0.7627 -0.1620
vn 0.9838 0.1365 -0.1161
vn -0.9907 0.0612 -0.1219
vn 0.1226 -0.9853 0.1193
vn -0.0687 -0.9724 0.2229
vn -0.0005 -1.0000 0.0021
vn 0.0018 0.9936 -0.1128
vn 0.0044 0.9494 0.3140
vn -0.0014 1.0000 -0.0096
vn 0.9553 -0.2503 -0.1573
vn 0.2801 -0.9583 -0.0571
vn -0.2880 -0.9534 -0.0895
vn -0.9081 -0.3673 -0.2013
vn -0.0056 -0.9997 -0.0258
vn -0.9115 -0.4109 -0.0185
vn -0.9992 0.0163 -0.0373
vn 0.9578 -0.2864 -0.0253
vn 0.9961 0.0767 -0.0434
vn 0.6523 -0.7552 0.0643
vn 0.9021 0.4265 0.0650
vn 0.6427 0.7626 0.0724
vn -0.6451 0.7600 0.0790
vn -0.9009 0.4283 0.0704
vn -0.6487 -0.7583 0.0643
vn -0.0075 0.9986 0.0521
vn 0.6440 -0.7650 -0.0051
vn -0.6408 -0.7676 -0.0059
vn 0.0007 -0.9961 -0.0888
vn 0.9543 -0.2968 0.0346
vn -0.9520 -0.3042 0.0344
vn 0.9410 0.2752 0.1969
vn 0.6583 0.7406 0.1350
vn -0.9410 0.2742 0.1983
vn -0.6583 0.7401 0.1378
vn -0.0016 0.9953 -0.0968
vn 0.1764 -0.6282 -0.7578
vn 0.2908 0.5879 -0.7549
vn -0.1808 -0.6292 -0.7559
vn -0.2918 0.5912 -0.7519
vn 0.2209 -0.8688 -0.4432
vn -0.6908 0.6524 0.3119
vn 0.6796 0.6598 0.3206
vn -0.0004 -0.9367 -0.3502
vn -0.2264 -0.8697 -0.4387
vn 0.3126 0.7112 -0.6297
vn -0.3165 0.7203 -0.6173
vn -0.1940 0.9758 -0.1006
vn 0.1919 0.9757 -0.1059
vn -0.1882 -0.9558 -0.2257
vn 0.1880 -0.9552 -0.2286
vn -0.8361 -0.4950 0.2367
vn 0.8323 -0.4965 0.2465
vn 0.9689 -0.0872 0.2314
vn -0.9685 -0.0910 0.2319
vn -0.9635 0.0389 0.2649
vn 0.7727 -0.3221 -0.5470
vn 0.9629 0.0398 0.2669
vn -0.7929 -0.2978 -0.5317
vn 0.8423 -0.2714 -0.4656
vn -0.8505 -0.2676 -0.4528
vn 0.8740 0.2337 -0.4260
vn -0.8881 0.2023 -0.4127
vn -0.8183 0.5581 -0.1373
vn -0.1331 0.9750 0.1780
vn 0.8103 0.5805 0.0803
vn 0.8337 -0.5455 -0.0859
vn -0.7810 -0.6091 -0.1377
vn -0.8529 0.4227 0.3063
vn -0.4843 -0.8742 -0.0357
vn -0.7634 -0.6452 -0.0311
vn -0.0741 -0.9830 -0.1682
vn 0.8733 0.4714 -0.1234
vn 0.6013 -0.5185 -0.6079
vn 0.4087 0.4216 -0.8095
vn 0.9048 -0.4190 -0.0758
vn 0.9111 0.4080 0.0591
vn 0.4619 -0.8630 -0.2048
vn 0.3955 0.9145 -0.0848
vn 0.5312 -0.8385 -0.1217
vn 0.8333 0.5357 0.1364
vn -0.1327 0.9180 0.3738
vn -0.4618 -0.8584 0.2234
vn 0.5178 -0.2519 0.8175
vn 0.8474 0.5303 0.0259
vn 0.3971 0.9119 0.1040
vn -0.5493 0.7897 0.2731
vn -0.9205 -0.3899 -0.0272
vn 0.3177 0.5391 0.7801
vn -0.4316 0.5541 0.7118
vn -0.4102 -0.3358 0.8479
vn 0.5451 0.2663 0.7949
vn 0.5304 -0.2164 0.8197
vn 0.4163 -0.4451 0.7929
vn 0.3888 0.9093 0.1480
vn 0.4730 -0.8748 -0.1049
vn 0.9797 -0.1985 -0.0282
vn 0.4365 0.6132 -0.6584
vn 0.9650 -0.0857 -0.2479
vn 0.8564 -0.4927 -0.1545
vn 0.7090 -0.3791 -0.5946
vn 0.2327 -0.9586 -0.1639
vn -0.8641 -0.4562 -0.2127
vn -0.7986 0.5736 -0.1823
vn 0.2044 0.9764 -0.0702
vn -0.1409 -0.9879 -0.0652
vn 0.3365 0.9173 0.2129
vn 0.4160 -0.4449 0.7931
vn -0.6463 -0.7442 -0.1691
vn 0.5657 -0.8140 -0.1318
vn 0.8940 -0.4382 -0.0933
vn 0.5267 0.3000 0.7953
vn 0.2960 0.9444 0.1429
vn 0.3098 0.5315 0.7884
vn 0.1917 0.6520 0.7336
vn -0.3362 0.6942 0.6364
vn -0.6054 -0.1703 0.7775
vn 0.1827 0.6274 0.7569
vn 0.4647 0.8758 0.1303
vn 0.0735 0.9968 0.0327
vn -0.6838 0.7296 0.0041
vn -0.8504 -0.5210 0.0739
vn 0.8981 0.4397 -0.0103
vn 0.8578 -0.4968 -0.1320
vn -0.4654 -0.8728 0.1467
vn -0.3628 -0.9319 0.0032
vn 0.5900 -0.7944 -0.1444
vn 0.8796 0.4249 -0.2138
vn -0.4186 0.8987 -0.1305
vn -0.8284 0.5554 -0.0727
vn -0.8202 -0.5681 0.0673
vn 0.6678 -0.7416 -0.0634
vn 0.8709 0.4771 0.1179
vn 0.0018 -0.8806 0.4739
vn 0.7425 -0.6082 0.2807
vn -0.9833 -0.1797 -0.0281
vn -0.8963 0.3977 -0.1960
vn -0.8441 -0.5319 -0.0679
vn -0.7162 -0.3902 -0.5786
vn -0.9053 -0.4171 0.0808
vn -0.9074 0.4108 -0.0889
vn -0.4679 -0.8830 -0.0366
vn -0.2135 0.9735 -0.0814
vn -0.5041 -0.8530 0.1352
vn -0.8339 0.5483 -0.0629
vn 0.5456 0.8229 -0.1584
vn -0.4994 -0.2048 0.8418
vn -0.8980 0.4157 -0.1443
vn 0.6039 0.7726 -0.1958
vn -0.3675 -0.3919 0.8434
vn 0.9495 0.3137 0.0074
vn 0.4592 -0.8126 0.3589
vn -0.3713 0.6322 0.6800
vn 0.6408 0.3541 0.6812
vn 0.1631 -0.3998 0.9020
vn -0.6033 0.2576 0.7547
vn -0.4888 -0.2179 0.8447
vn -0.3676 -0.3919 0.8434
vn 0.3283 0.9394 -0.0988
vn -0.4667 -0.8569 0.2187
vn 0.0816 -0.9842 0.1573
vn -0.4383 0.6188 -0.6519
vn -0.9720 -0.0881 -0.2179
vn -0.6055 -0.5265 -0.5968
vn -0.4058 0.4359 -0.8034
vn -0.2418 -0.9540 -0.1774
vn 0.8231 -0.5352 -0.1900
vn -0.4051 0.8734 -0.2703
vn 0.8595 0.4496 -0.2430
vn -0.1306 -0.9738 0.1859
vn -0.3420 0.9314 -0.1246
vn -0.8536 -0.5130 0.0903
vn -0.5576 0.3966 0.7292
vn -0.3896 0.8910 -0.2330
vn 0.5294 0.8481 0.0216
vn -0.3638 0.6250 0.6907
vn -0.2400 -0.5052 0.8289
vn -0.5620 -0.8087 0.1736
vn -0.3361 -0.9155 0.2212
vn 0.6565 0.2809 0.7001
vn 0.3361 -0.3232 0.8846
vn 0.5286 0.8487 -0.0160
vn 0.4523 0.8888 -0.0741
vn -0.4602 0.8660 -0.1956
vn 0.8930 0.4498 0.0167
vn 0.5799 -0.8100 0.0874
vn -0.8350 0.5190 -0.1828
vn -0.9047 -0.4245 0.0361
vn -0.2390 -0.5035 0.8303
vn -0.2558 -0.9599 0.1150
vn -0.5892 -0.7931 0.1545
vn 0.0009 0.9517 -0.3071
vn 0.7579 -0.4958 -0.4239
vn 0.8676 -0.0611 -0.4935
vn -0.0741 0.8199 -0.5677
vn -0.7567 -0.4954 -0.4266
vn -0.0013 -0.9424 -0.3344
vn 0.0139 -0.4937 -0.8695
vn 0.0750 0.8109 -0.5804
vn -0.8657 -0.0652 -0.4962
vn -0.0029 0.1554 -0.9878
vn -0.4893 0.8584 0.1542
vn -0.9655 0.2605 0.0063
vn -0.7401 -0.6716 -0.0348
vn -0.4670 -0.8842 -0.0014
vn -0.5339 0.8455 -0.0093
vn 0.6476 0.7422 0.1725
vn -0.0098 -0.9866 -0.1629
vn -0.6461 0.7510 0.1362
vn -0.4306 -0.8941 -0.1235
vn -0.8370 -0.5439 -0.0597
vn 0.4384 -0.8875 -0.1417
vn -0.6420 0.7486 0.1656
vn -0.4729 0.8661 0.1622
vn 0.5632 0.7031 0.4342
vn -0.4543 -0.8908 0.0116
vn -0.9915 -0.0992 -0.0844
vn -0.9835 0.1625 0.0793
vn -0.9788 0.1873 0.0826
vn 0.9899 0.1197 0.0758
vn 0.5006 0.8488 0.1703
vn 0.9697 0.2436 -0.0150
vn 0.9940 -0.0765 -0.0780
vn 0.4536 -0.8912 0.0061
vn 0.5414 0.8402 -0.0311
vn -0.0439 -0.9315 0.3612
vn -0.6553 0.7530 -0.0592
vn 0.6488 0.7536 -0.1053
vn 0.9856 0.1669 0.0285
vn -0.0078 -0.9917 0.1282
vn 0.9846 0.1684 0.0480
vn -0.4123 -0.9043 0.1110
vn 0.6563 0.7529 -0.0489
vn 0.4580 0.8880 0.0420
vn -0.6423 0.6834 0.3470
vn -0.0481 0.2900 0.9558
vn 0.4675 -0.8794 0.0900
vn 0.7572 -0.6529 0.0195
vn 0.5356 0.5181 0.6668
vn 0.4289 -0.8971 0.1055
vn 0.7382 -0.6671 0.1003
vn -0.9924 0.1167 0.0379
vn -0.9965 0.0829 -0.0127
vn 0.4048 -0.9040 0.1374
vn 0.0950 -0.9582 0.2700
vn -0.9075 0.4200 -0.0110
vn -0.7338 0.6762 -0.0652
vn 0.9030 0.4294 -0.0158
vn 0.6220 0.7798 -0.0710
vn -0.0421 0.9963 -0.0748
vn 0.6361 0.7556 -0.1562
vn -0.6493 0.7508 -0.1216
vn 0.0530 -0.9791 0.1965
vn -0.2696 -0.9587 0.0905
vn 0.9963 0.0776 -0.0373
vn -0.9984 0.0155 0.0536
vn -0.0872 -0.9959 0.0254
vn 0.9862 0.1397 0.0887
vn 0.6218 0.7698 0.1440
vn -0.6690 -0.3855 -0.6355
vn 0.7959 -0.2474 -0.5526
vn -0.9888 -0.1402 -0.0515
vn -0.7603 0.6367 0.1286
vn 0.9778 -0.1847 -0.0992
vn -0.5978 -0.7997 -0.0558
vn 0.9836 0.1794 0.0188
vn 0.0371 -0.6227 -0.7816
vn -0.7484 0.6481 0.1409
vn 0.4704 0.8597 -0.1993
vn -0.5873 -0.8055 0.0798
vn 0.4364 -0.8958 0.0841
vn -0.0000 0.0013 1.0000
vn -0.9958 0.0776 -0.0484
vn 0.9793 0.2010 -0.0243
vn -0.9967 0.0717 -0.0375
vn -0.9995 0.0288 0.0148
vn -0.7095 -0.1969 -0.6766
vn 0.5819 -0.4299 -0.6904
vn 0.4513 -0.8915 -0.0384
vn 0.9807 0.1953 -0.0128
vn -0.0581 -0.9753 -0.2132
vn -0.5907 0.7897 -0.1658
vn 0.6500 0.7443 0.1534
vn 0.6940 -0.7194 0.0283
vn 0.5710 -0.6380 -0.5166
vn -0.4758 -0.8793 0.0206
vn -0.4214 -0.7496 -0.5104
vn -0.6873 -0.3630 -0.6292
vn 0.7084 -0.2464 -0.6614
vn 0.2897 -0.9399 -0.1807
vn -0.4007 -0.9015 -0.1637
vn -0.0975 -0.9937 -0.0560
vn 0.9027 0.4163 0.1087
vn 0.7070 0.6889 0.1602
vn -0.8984 0.4250 0.1108
vn -0.6280 0.7586 0.1737
vn 0.0406 0.9701 0.2392
vn 0.6601 0.7412 0.1217
vn -0.6547 0.7502 0.0926
vn -0.0763 -0.9935 -0.0848
vn 0.9975 0.0706 0.0043
vn -0.9977 0.0630 -0.0254
vn 0.9994 0.0131 0.0316
vn 0.0888 -0.9567 -0.2773
vn -0.9842 0.1476 0.0976
vn -0.6737 0.6674 0.3173
vn -0.7869 -0.2202 -0.5765
vn 0.9811 -0.1725 -0.0873
vn 0.6590 -0.3792 -0.6496
vn 0.7940 0.5253 0.3059
vn -0.9792 0.2009 0.0294
vn -0.9824 0.1819 0.0422
vn 0.9995 0.0278 0.0123
vn 0.0344 -0.8949 -0.4449
vn -0.6000 0.7236 0.3411
vn 0.6593 0.7418 0.1223
vn 0.5800 -0.7972 -0.1674
vn -0.4293 -0.8825 -0.1918
vn -0.0000 0.0012 1.0000
vn 0.9969 0.0779 0.0086
vn -0.9680 -0.2071 -0.1416
vn -0.9801 0.1947 0.0388
vn -0.4337 -0.8493 -0.3010
vn -0.5233 -0.4227 -0.7399
vn 0.6565 -0.2367 -0.7162
vn 0.5707 -0.7687 -0.2887
vn 0.9974 0.0700 0.0192
vn -0.0255 -0.5503 -0.8346
vn -0.5700 0.8172 0.0851
vn 0.6848 0.6346 0.3582
vn -0.6384 -0.7432 -0.2006
vn -0.5695 -0.5639 -0.5981
vn 0.4153 -0.8740 -0.2522
vn 0.4384 -0.6644 -0.6053
vn 0.6679 -0.3365 -0.6638
vn -0.6904 -0.2295 -0.6861
vn 0.3422 0.0051 -0.9396
vn 0.2872 -0.2185 -0.9326
vn -0.2931 -0.2175 -0.9310
vn -0.3464 0.0043 -0.9381
vn -0.8513 0.4852 -0.1999
vn -0.3728 0.9064 -0.1984
vn 0.0020 0.9807 -0.1957
vn 0.6497 0.7514 -0.1155
vn 0.8166 0.5758 0.0399
vn 0.1372 0.9847 -0.1071
vn -0.9918 0.0416 -0.1205
vn 0.1637 -0.9814 0.1002
vn 0.7057 -0.6880 0.1691
vn 0.5235 -0.6093 0.5956
vn -0.9660 -0.0615 0.2512
vn -0.9504 0.0191 0.3106
vn 0.1389 -0.0929 0.9859
vn 0.5225 0.6239 0.5812
vn 0.1495 -0.9852 -0.0838
vn 0.7592 -0.6508 0.0015
vn 0.1552 0.9860 0.0615
vn -0.8485 0.3936 -0.3537
vn -0.8983 0.4358 -0.0568
vn -0.9454 -0.3260 -0.0026
vn -0.0595 -0.8671 0.4945
vn -0.0098 0.9196 0.3928
vn -0.6482 -0.0924 0.7558
vn -0.9760 -0.0904 -0.1981
vn 0.8824 0.4653 0.0696
vn -0.1635 0.9197 0.3569
vn 0.0001 0.9844 0.1759
vn -0.6394 0.7617 -0.1047
vn -0.4795 0.8764 0.0454
vn 0.3561 0.9344 -0.0061
vn 0.9935 0.0637 -0.0944
vn 0.9387 -0.3228 -0.1212
vn -0.7389 -0.6701 -0.0705
vn -0.5459 0.4021 0.7350
vn -0.5335 -0.7324 0.4232
vn 0.9580 -0.0748 0.2769
vn 0.9721 0.0159 0.2340
vn -0.1451 -0.2238 0.9638
vn -0.1389 -0.8943 -0.4253
vn -0.7549 -0.5961 -0.2735
vn 0.3816 0.9122 0.1495
vn 0.8941 0.4299 -0.1258
vn 0.8939 0.4333 0.1150
vn -0.1613 -0.9538 -0.2534
vn 0.0611 -0.9836 0.1699
vn 0.1381 0.6986 0.7021
vn 0.7070 -0.0914 0.7013
vn 0.9817 -0.1014 -0.1612
vn 0.9236 -0.2444 0.2954
vn 0.2221 0.2442 0.9439
vn 0.8555 0.4819 0.1895
vn 0.7984 0.5867 -0.1357
vn 0.3686 -0.9230 0.1106
vn 0.7875 -0.6099 0.0881
vn 0.7283 -0.6574 0.1931
vn -0.3759 0.2311 -0.8974
vn 0.8445 -0.5350 0.0246
vn -0.0003 0.8463 0.5327
vn -0.6775 0.5902 0.4389
vn -0.2211 0.2439 0.9443
vn -0.3802 0.7140 0.5879
vn -0.4026 0.8441 -0.3542
vn -0.4635 -0.8654 -0.1903
vn -0.7860 -0.6119 0.0877
vn -0.7364 -0.6436 0.2084
vn -0.8430 -0.5372 0.0271
vn -0.8718 0.2661 0.4112
vn 0.8761 -0.4433 0.1895
vn -0.8920 -0.4467 0.0701
vn -0.9836 0.0779 0.1628
vn 0.9839 0.1310 0.1220
vn -0.9630 -0.2691 -0.0176
vn 0.9637 -0.2668 0.0053
vn -0.9663 0.2408 0.0907
vn 0.9829 0.1791 0.0424
vn 0.6822 -0.7281 0.0678
vn -0.6820 -0.7282 0.0671
vn -0.3926 -0.9158 0.0855
vn -0.5349 -0.7538 -0.3817
vn 0.0085 -0.9966 0.0820
vn 0.3956 -0.9145 0.0853
vn 0.5343 -0.7559 -0.3783
vn 0.4811 -0.8395 0.2527
vn -0.4838 -0.8382 0.2516
vn -0.4374 -0.5783 0.6887
vn 0.4381 -0.5776 0.6888
vn 0.5784 0.2572 -0.7742
vn -0.9427 0.3158 -0.1076
vn 0.9387 0.2665 -0.2186
vn 0.5438 -0.2104 -0.8124
vn -0.7965 -0.4214 -0.4336
vn -0.2285 -0.4744 -0.8502
vn -0.4852 -0.2912 -0.8245
vn -0.5920 0.1853 -0.7844
vn 0.0985 -0.9561 -0.2758
vn 0.8396 -0.5259 -0.1361
vn -0.6701 -0.7292 0.1391
vn 0.6729 -0.7262 0.1409
vn 0.0014 -0.7832 0.6218
vn -0.0002 0.9603 0.2790
vn -0.0005 0.7034 0.7108
vn 0.0306 0.9772 -0.2102
vn 0.9730 -0.0803 0.2165
vn -0.2158 0.4319 -0.8757
vn -0.6232 0.7108 0.3262
vn 0.8110 0.5764 0.1001
vn 0.6438 -0.7345 -0.2146
vn -0.5875 -0.8056 -0.0761
vn -0.7343 0.4640 0.4955
vn 0.7390 0.6698 0.0726
vn 0.4535 -0.2853 -0.8444
vn -0.6628 -0.4379 -0.6075
vn -0.8609 -0.1207 0.4942
vn -0.2525 0.3485 -0.9027
vn -0.4735 -0.8680 0.1496
vn -0.2887 -0.7420 0.6051
vn 0.5575 0.8296 0.0305
vn -0.7350 0.6661 -0.1269
vn -0.7377 -0.6733 0.0505
vn 0.6454 -0.7282 0.2307
vn 0.5190 0.8390 0.1632
vn -0.7311 0.3357 -0.5940
vn -0.8343 -0.5508 0.0250
vn 0.6532 -0.7147 0.2500
vn -0.5604 -0.2682 -0.7836
vn -0.4554 0.0447 0.8891
vn -0.1074 -0.6881 0.7176
vn 0.1864 -0.9736 0.1315
vt 0.657158 0.665337
vt 0.611401 0.706399
vt 0.683749 0.709386
vt 0.445924 0.666242
vt 0.398493 0.665378
vt 0.438731 0.704760
vt 0.371810 0.709740
vt 0.373404 0.757993
vt 0.680822 0.757815
vt 0.620754 0.763755
vt 0.985002 0.709431
vt 0.932156 0.662876
vt 0.980700 0.664984
vt 0.604149 0.666161
vt 0.525066 0.705594
vt 0.525059 0.763366
vt 0.429364 0.762935
vt 0.928884 0.695761
vt 0.719689 0.709785
vt 0.776061 0.662887
vt 0.774107 0.695761
vt 0.772317 0.748597
vt 0.719132 0.758032
vt 0.984943 0.757855
vt 0.853221 0.691577
vt 0.853392 0.662867
vt 0.853266 0.743617
vt 0.930697 0.748596
vt 0.722569 0.665029
vt 0.377651 0.828368
vt 0.417837 0.838174
vt 0.677392 0.828368
vt 0.524869 0.841373
vt 0.632267 0.838174
vt 0.718361 0.828400
vt 0.982230 0.828400
vt 0.936079 0.801432
vt 0.853311 0.795656
vt 0.766958 0.801432
vt 0.369367 0.862149
vt 0.630924 0.875558
vt 0.681888 0.861607
vt 0.418902 0.876261
vt 0.420188 0.903934
vt 0.470039 0.935211
vt 0.524799 0.935655
vt 0.579985 0.935211
vt 0.629652 0.903222
vt 0.942680 0.873422
vt 0.853332 0.856313
vt 0.969607 0.862376
vt 0.990311 0.861635
vt 0.727160 0.862884
vt 0.945232 0.901696
vt 0.879000 0.901161
vt 0.763153 0.902327
vt 0.761257 0.874065
vt 0.828084 0.901161
vt 0.798553 0.942891
vt 0.942193 0.942839
vt 0.908491 0.942891
vt 0.430098 0.927656
vt 0.881662 0.982326
vt 0.853861 0.978612
vt 0.800224 0.994222
vt 0.826059 0.982326
vt 0.549246 0.991348
vt 0.501711 0.991529
vt 0.907753 0.994041
vt 0.853122 0.998890
vt 0.524612 0.996198
vt 0.431628 0.646267
vt 0.524343 0.640988
vt 0.434947 0.592676
vt 0.523787 0.548604
vt 0.439398 0.554359
vt 0.524086 0.587294
vt 0.396562 0.652979
vt 0.403669 0.570059
vt 0.617059 0.646273
vt 0.656625 0.653233
vt 0.647217 0.570067
vt 0.613215 0.592682
vt 0.608156 0.554365
vt 0.888122 0.548208
vt 0.821867 0.548221
vt 0.851774 0.531156
vt 0.853312 0.586043
vt 0.765591 0.588274
vt 0.354485 0.662838
vt 0.367671 0.593163
vt 0.950829 0.588278
vt 0.980529 0.593217
vt 0.687163 0.593160
vt 0.699580 0.662825
vt 0.733476 0.593221
vt 0.366112 0.348116
vt 0.358437 0.460000
vt 0.417690 0.387833
vt 0.766615 0.563218
vt 0.736066 0.460072
vt 0.793587 0.294295
vt 0.794310 0.308704
vt 0.751696 0.305398
vt 0.743740 0.348200
vt 0.374069 0.305310
vt 0.418229 0.343598
vt 0.796107 0.349931
vt 0.439813 0.532398
vt 0.843619 0.352695
vt 0.515514 0.304328
vt 0.469651 0.343123
vt 0.515108 0.352612
vt 0.518077 0.532118
vt 0.523264 0.531092
vt 0.834026 0.304417
vt 0.467039 0.302816
vt 0.479301 0.232433
vt 0.512099 0.078529
vt 0.464658 0.078814
vt 0.796558 0.079152
vt 0.842942 0.078641
vt 0.418975 0.303270
vt 0.378023 0.079249
vt 0.402275 0.233302
vt 0.430785 0.078303
vt 0.742332 0.079361
vt 0.444497 0.235762
vt 0.796179 0.070206
vt 0.766267 0.048886
vt 0.816032 0.054673
vt 0.378341 0.066116
vt 0.431718 0.045061
vt 0.432650 0.026444
vt 0.463506 0.045314
vt 0.842848 0.065464
vt 0.737099 0.006438
vt 0.742650 0.066230
vt 0.512004 0.065350
vt 0.462927 0.026440
vt 0.781654 0.020720
vt 0.807288 0.034896
vt 0.781462 0.034168
vt 0.806598 0.020710
vt 0.846533 0.006438
vt 0.815768 0.045593
vt 0.766571 0.038172
vt 0.372790 0.006320
vt 0.949614 0.563115
vt 0.969935 0.459983
vt 0.912391 0.349639
vt 0.954304 0.306180
vt 0.962260 0.347990
vt 0.914866 0.294075
vt 0.914188 0.308449
vt 0.871974 0.305200
vt 0.630458 0.388074
vt 0.690543 0.459912
vt 0.608454 0.532521
vt 0.682868 0.347907
vt 0.629917 0.343529
vt 0.674911 0.306092
vt 0.862381 0.352506
vt 0.523525 0.539889
vt 0.530199 0.532084
vt 0.533872 0.352423
vt 0.578496 0.343054
vt 0.533466 0.305112
vt 0.581108 0.302719
vt 0.536873 0.078583
vt 0.568846 0.232586
vt 0.583300 0.078789
vt 0.865104 0.078695
vt 0.911943 0.079312
vt 0.629171 0.303073
vt 0.645872 0.233053
vt 0.670960 0.079323
vt 0.617173 0.078259
vt 0.963672 0.079436
vt 0.603650 0.235361
vt 0.671044 0.066126
vt 0.616303 0.026389
vt 0.616738 0.045011
vt 0.676996 0.006265
vt 0.912723 0.070258
vt 0.963755 0.066239
vt 0.944650 0.048832
vt 0.536662 0.065368
vt 0.584935 0.045274
vt 0.864893 0.065482
vt 0.862329 0.006383
vt 0.891802 0.054618
vt 0.586041 0.026385
vt 0.892065 0.045538
vt 0.943832 0.038117
vt 0.902015 0.034840
vt 0.927649 0.020665
vt 0.927841 0.034113
vt 0.902705 0.020655
vt 0.969707 0.006383
vt 0.765008 0.942934
vt 0.619707 0.926984
vt 0.710077 0.862177
vt 0.226626 0.353067
vt 0.250255 0.353041
vt 0.221318 0.358090
vt 0.128332 0.267616
vt 0.076234 0.273703
vt 0.067108 0.353112
vt 0.134896 0.353116
vt 0.163959 0.298571
vt 0.162195 0.353066
vt 0.326301 0.258648
vt 0.332842 0.298571
vt 0.305577 0.259754
vt 0.334495 0.421014
vt 0.314225 0.429262
vt 0.306809 0.399324
vt 0.246021 0.358062
vt 0.240823 0.432240
vt 0.246870 0.403675
vt 0.311030 0.293850
vt 0.251919 0.272693
vt 0.038407 0.309284
vt 0.063036 0.272693
vt 0.247746 0.481033
vt 0.225547 0.486339
vt 0.997835 0.919646
vt 0.971912 0.939322
vt 0.302173 0.483092
vt 0.688908 0.889718
vt 0.994037 0.888544
vt 0.685465 0.944176
vt 0.329378 0.487316
vt 0.131769 0.497068
vt 0.160495 0.487316
vt 0.136430 0.438857
vt 0.996339 0.944198
vt 0.053440 0.431666
vt 0.062715 0.493968
vt 0.638090 0.939299
vt 0.220770 0.425891
vt 0.309934 0.358054
vt 0.308046 0.353032
vt 0.331078 0.353066
vt 0.036664 0.486339
vt 0.031887 0.425891
vt 0.165611 0.421014
vt 0.037743 0.353067
vt 0.032434 0.358090
vt 0.058379 0.358148
vt 0.133117 0.247536
vt 0.157418 0.258648
vt 0.151675 0.247229
vt 0.310559 0.247229
vt 0.062891 0.194674
vt 0.034068 0.203129
vt 0.048074 0.260196
vt 0.074084 0.256688
vt 0.123388 0.199041
vt 0.156140 0.214557
vt 0.277676 0.215162
vt 0.315023 0.214557
vt 0.246957 0.260196
vt 0.232951 0.203129
vt 0.243745 0.057975
vt 0.280522 0.052508
vt 0.121639 0.052508
vt 0.101816 0.051841
vt 0.064282 0.057117
vt 0.044862 0.057975
vt 0.081429 0.045446
vt 0.260313 0.045446
vt 0.246126 0.686419
vt 0.250401 0.690193
vt 0.221417 0.686448
vt 0.076563 0.752941
vt 0.067317 0.690264
vt 0.038652 0.717293
vt 0.128705 0.758930
vt 0.135089 0.690269
vt 0.164216 0.727875
vt 0.305827 0.766653
vt 0.311236 0.732533
vt 0.333100 0.727875
vt 0.310025 0.686411
vt 0.306854 0.627034
vt 0.246915 0.622782
vt 0.314218 0.597075
vt 0.032533 0.686448
vt 0.037882 0.690220
vt 0.058549 0.686505
vt 0.063291 0.753833
vt 0.302986 0.543251
vt 0.329387 0.539131
vt 0.365806 0.944879
vt 0.411914 0.939299
vt 0.160503 0.539131
vt 0.136532 0.587677
vt 0.165663 0.605382
vt 0.706570 0.944901
vt 0.705007 0.920282
vt 0.737618 0.939322
vt 0.246772 0.545419
vt 0.240823 0.594216
vt 0.220815 0.600634
vt 0.225571 0.540247
vt 0.362381 0.890451
vt 0.708792 0.889157
vt 0.131878 0.529529
vt 0.062829 0.532675
vt 0.226765 0.690220
vt 0.334546 0.605382
vt 0.252174 0.753833
vt 0.308168 0.690184
vt 0.036688 0.540247
vt 0.053548 0.594975
vt 0.031931 0.600634
vt 0.152475 0.779726
vt 0.157733 0.767787
vt 0.133979 0.779518
vt 0.311358 0.779725
vt 0.331227 0.690218
vt 0.162344 0.690218
vt 0.326617 0.767787
vt 0.063445 0.831694
vt 0.074526 0.769816
vt 0.048453 0.766129
vt 0.123942 0.827250
vt 0.156625 0.811444
vt 0.278134 0.810843
vt 0.315509 0.811444
vt 0.247336 0.766129
vt 0.233454 0.822993
vt 0.280805 0.974098
vt 0.243175 0.968631
vt 0.063771 0.969366
vt 0.034571 0.822993
vt 0.044292 0.968632
vt 0.102425 0.975109
vt 0.121922 0.974099
vt 0.079981 0.983047
vt 0.258864 0.983047
vt 0.534096 0.006265
vt 0.515689 0.006320
vt 0.335159 0.358090
vt 0.137620 0.358152
vt 0.166276 0.358090
vt 0.227290 0.309284
vt 0.227535 0.717292
vt 0.335267 0.686447
vt 0.166384 0.686447
vt 0.137778 0.686510
vt 0.937862 0.301029
vt 0.818862 0.549447
vt 0.943817 0.689731
vt 0.634516 0.458271
vt 0.736820 0.488742
vt 0.644740 0.400625
vt 0.240446 0.251412
vt -0.240300 0.252194
vt -0.062137 0.301029
vt 0.762085 0.137388
vt 0.543734 0.037073
vt 0.055663 0.740827
vt 0.165656 0.544295
vt 0.061124 0.300556
vt 0.197544 0.422367
vt 0.263546 0.487867
vt 0.356896 0.399917
vt 0.237832 0.136615
vt 0.458573 0.036805
vt -0.237915 0.137388
vt -0.056183 0.689731
vt 0.830960 0.755524
vt 0.665861 0.909705
vt 0.940801 0.956730
vt 0.094974 0.884125
vt -0.059199 0.956730
vt 0.486064 0.974303
vt 0.364763 0.655515
vt 0.158633 0.707437
vt 0.759700 0.252194
vt 0.801834 0.425477
vt 0.321375 0.844942
vt 0.656686 0.686679
vt 0.608014 0.532443
vt 0.564193 0.763691
vt 0.367043 0.457591
vt 0.393556 0.531810
vt 0.426887 0.792621
vt 0.468468 0.292592
vt 0.491027 0.314849
vt 0.491879 0.365390
vt 0.472586 0.459759
vt 0.489532 0.493355
vt 0.500821 0.568272
vt 0.435519 0.031243
vt 0.568444 0.031489
vt 0.500995 0.275123
vt 0.510376 0.314937
vt 0.512765 0.493436
vt 0.509796 0.365458
vt 0.529849 0.459952
vt 0.533605 0.292802
vt 0.524120 0.896797
vt 0.160970 0.844315
vt 0.658523 0.845641
vt 0.374037 0.888198
vt 0.200000 0.400000
vt 0.250000 0.400000
vt 0.250000 0.300000
vt 0.200000 0.300000
vt 0.250000 0.350000
vt 0.250000 0.250000
vt 0.200000 0.350000
vt 0.200000 0.250000
vt 0.180000 0.220000
vt 0.200000 0.150000
vt 0.230000 0.150000
vt 0.260000 0.150000
s 1
usemtl player_mat.001
f 19/1/19 4/2/4 6/3/6
f 1/4/1 20/5/20 3/6/3
f 5/7/5 41/8/41 3/6/3
f 44/9/44 4/2/4 43/10/43
f 5/7/5 3/6/3 20/5/20
f 15/11/15 17/12/17 36/13/36
f 2/14/2 1/4/1 11/15/11
f 1/4/1 3/6/3 11/15/11
f 46/16/46 3/6/3 42/17/42
f 7/18/7 17/12/17 15/11/15
f 14/19/14 16/20/16 8/21/8
f 8/21/8 40/22/40 50/23/50
f 7/18/7 15/11/15 51/24/51
f 17/12/17 7/18/7 9/25/9
f 16/20/16 18/26/18 9/25/9
f 8/21/8 16/20/16 9/25/9
f 9/25/9 10/27/10 40/22/40
f 9/25/9 7/18/7 45/28/45
f 18/26/18 17/12/17 9/25/9
f 4/2/4 19/1/19 2/14/2
f 14/19/14 38/29/38 16/20/16
f 10/27/10 9/25/9 45/28/45
f 9/25/9 40/22/40 8/21/8
f 8/21/8 50/23/50 14/19/14
f 41/8/41 42/17/42 3/6/3
f 4/2/4 11/15/11 46/16/46
f 6/3/6 4/2/4 44/9/44
f 7/18/7 51/24/51 45/28/45
f 43/10/43 4/2/4 46/16/46
f 52/30/52 53/31/53 42/17/42
f 54/32/54 44/9/44 43/10/43
f 43/10/43 46/16/46 56/33/56
f 43/10/43 56/33/56 55/34/55
f 50/23/50 40/22/40 74/35/74
f 45/28/45 75/36/75 48/37/48
f 49/38/49 10/27/10 48/37/48
f 47/39/47 40/22/40 10/27/10
f 47/39/47 10/27/10 49/38/49
f 40/22/40 47/39/47 74/35/74
f 10/27/10 45/28/45 48/37/48
f 45/28/45 51/24/51 75/36/75
f 54/32/54 43/10/43 55/34/55
f 42/17/42 53/31/53 56/33/56
f 41/8/41 52/30/52 42/17/42
f 46/16/46 42/17/42 56/33/56
f 53/31/53 52/30/52 63/40/63
f 68/41/68 62/42/62 55/34/55
f 53/31/53 69/43/69 56/33/56
f 58/44/58 66/45/66 212/46/212
f 68/41/68 56/33/56 212/46/212
f 67/47/67 60/48/60 212/46/212
f 70/49/70 64/50/64 48/37/48
f 72/51/72 75/36/75 76/52/76
f 64/50/64 49/38/49 48/37/48
f 62/42/62 54/32/54 55/34/55
f 47/39/47 73/53/73 74/35/74
f 47/39/47 49/38/49 64/50/64
f 59/54/59 65/55/65 64/50/64
f 64/50/64 57/56/57 71/57/71
f 57/56/57 61/58/61 80/59/80
f 59/54/59 373/60/359 81/61/81
f 65/55/65 61/58/61 64/50/64
f 81/61/81 65/55/65 59/54/59
f 64/50/64 61/58/61 57/56/57
f 69/43/69 212/46/212 56/33/56
f 371/62/357 66/45/66 58/44/58
f 60/48/60 68/41/68 212/46/212
f 216/63/216 217/64/217 65/55/65
f 217/64/217 61/58/61 65/55/65
f 214/65/214 80/59/80 213/66/213
f 80/59/80 61/58/61 213/66/213
f 215/67/215 212/46/212 219/68/219
f 67/47/67 212/46/212 215/67/215
f 216/63/216 81/61/81 220/69/220
f 216/63/216 65/55/65 81/61/81
f 217/64/217 213/66/213 61/58/61
f 212/46/212 66/45/66 219/68/219
f 217/64/217 216/63/216 218/70/218
f 213/66/213 217/64/217 218/70/218
f 221/71/221 215/67/215 219/68/219
f 213/66/213 218/70/218 214/65/214
f 216/63/216 220/69/220 218/70/218
f 22/72/22 12/4/12 28/73/28
f 245/74/245 29/75/29 241/76/241
f 30/77/30 245/74/245 28/73/28
f 23/78/23 39/5/39 12/4/12
f 22/72/22 23/78/23 12/4/12
f 242/79/242 23/78/23 245/74/245
f 242/79/242 245/74/245 241/76/241
f 28/73/28 13/14/13 21/80/21
f 24/81/24 13/14/13 37/1/37
f 21/80/21 13/14/13 24/81/24
f 223/82/223 226/83/226 24/81/24
f 223/82/223 222/84/222 226/83/226
f 25/85/25 26/86/26 246/87/246
f 27/88/27 35/26/35 244/89/244
f 23/78/23 31/90/31 39/5/39
f 243/91/243 31/90/31 23/78/23
f 243/91/243 23/78/23 242/79/242
f 225/92/225 35/26/35 27/88/27
f 225/92/225 224/93/224 33/12/33
f 237/94/237 24/81/24 34/95/34
f 34/95/34 24/81/24 37/1/37
f 237/94/237 223/82/223 24/81/24
f 28/73/28 12/4/12 13/14/13
f 226/83/226 29/75/29 30/77/30
f 28/73/28 226/83/226 30/77/30
f 27/88/27 25/85/25 225/92/225
f 35/26/35 225/92/225 33/12/33
f 258/96/258 244/89/244 32/20/32
f 35/26/35 32/20/32 244/89/244
f 22/72/22 28/73/28 245/74/245
f 23/78/23 22/72/22 245/74/245
f 24/81/24 226/83/226 21/80/21
f 21/80/21 226/83/226 28/73/28
f 30/77/30 29/75/29 245/74/245
f 29/75/29 226/83/226 222/84/222
f 249/97/249 251/98/251 253/99/253
f 257/100/257 258/96/258 261/101/261
f 265/102/265 273/103/273 264/104/264
f 264/104/264 273/103/273 260/105/260
f 275/106/275 249/97/249 248/107/248
f 257/100/257 250/108/250 26/86/26
f 248/107/248 249/97/249 253/99/253
f 254/109/254 242/79/242 241/76/241
f 252/110/252 250/108/250 273/103/273
f 263/111/263 247/112/247 262/113/262
f 26/86/26 252/110/252 246/87/246
f 26/86/26 250/108/250 252/110/252
f 262/113/262 255/114/255 259/115/259
f 251/98/251 243/91/243 242/79/242
f 247/112/247 248/107/248 253/99/253
f 254/109/254 29/75/29 255/114/255
f 255/114/255 253/99/253 254/109/254
f 257/100/257 26/86/26 244/89/244
f 274/116/274 252/110/252 273/103/273
f 272/117/272 263/111/263 266/118/266
f 276/119/276 267/120/267 266/118/266
f 277/121/277 290/122/290 274/116/274
f 276/119/276 266/118/266 263/111/263
f 248/107/248 271/123/271 275/106/275
f 278/124/278 268/125/268 269/126/269
f 278/124/278 275/106/275 268/125/268
f 291/127/291 277/121/277 264/104/264
f 272/117/272 271/123/271 247/112/247
f 269/126/269 268/125/268 270/128/270
f 270/128/270 267/120/267 269/126/269
f 277/121/277 265/102/265 264/104/264
f 274/116/274 265/102/265 277/121/277
f 271/123/271 270/128/270 268/125/268
f 267/120/267 270/128/270 266/118/266
f 287/129/287 281/130/281 280/131/280
f 286/132/286 269/126/269 289/133/289
f 279/134/279 308/133/303 288/135/288
f 267/120/267 307/135/302 289/133/289
f 306/129/301 285/136/285 277/121/277
f 284/137/284 281/130/281 303/138/298
f 300/139/295 283/140/283 288/135/288
f 301/139/296 267/120/267 276/119/276
f 309/141/304 312/142/307 310/143/305
f 312/142/307 309/141/304 311/144/306
f 282/145/282 312/142/307 311/144/306
f 312/142/307 313/146/308 310/143/305
f 314/147/309 284/137/284 309/141/304
f 314/147/309 280/131/280 281/130/281
f 310/143/305 314/147/309 309/141/304
f 293/145/292 316/144/292 315/141/292
f 315/141/292 297/137/292 293/145/292
f 292/134/292 296/140/292 298/148/292
f 304/138/299 277/121/277 291/127/291
f 225/92/225 236/149/236 224/93/224
f 224/93/224 236/149/236 231/150/231
f 25/85/25 228/151/228 236/149/236
f 318/152/311 230/153/230 228/151/228
f 319/154/312 327/155/320 317/156/310
f 233/157/233 223/82/223 239/158/239
f 233/157/233 234/159/234 223/82/223
f 233/157/233 238/160/238 229/161/229
f 238/160/238 329/162/322 229/161/229
f 246/87/246 232/163/232 25/85/25
f 228/151/228 232/163/232 317/156/310
f 232/163/232 228/151/228 25/85/25
f 259/115/259 256/164/256 235/165/235
f 240/166/240 227/167/227 328/168/321
f 259/115/259 235/165/235 240/166/240
f 233/157/233 239/158/239 238/160/238
f 229/161/229 227/167/227 233/157/233
f 233/157/233 227/167/227 235/165/235
f 228/151/228 230/153/230 236/149/236
f 318/152/311 228/151/228 327/155/320
f 227/167/227 325/169/318 328/168/321
f 330/170/323 320/171/313 321/172/314
f 330/170/323 328/168/321 320/171/313
f 344/173/337 331/174/324 317/156/310
f 326/175/319 329/162/322 322/176/315
f 329/162/322 332/177/325 322/176/315
f 332/177/325 323/178/316 322/176/315
f 345/179/338 318/152/311 331/174/324
f 325/169/318 229/161/229 326/175/319
f 323/178/316 321/172/314 324/180/317
f 320/171/313 324/180/317 321/172/314
f 331/174/324 318/152/311 319/154/312
f 317/156/310 331/174/324 319/154/312
f 325/169/318 324/180/317 320/171/313
f 323/178/316 324/180/317 322/176/315
f 339/181/332 323/178/316 332/177/325
f 354/181/342 333/182/326 342/183/335
f 333/182/326 354/181/342 338/184/331
f 341/185/334 355/186/343 331/174/324
f 360/185/348 334/187/327 356/186/344
f 340/188/333 321/172/314 343/189/336
f 357/190/345 335/191/328 336/192/329
f 333/182/326 337/193/330 362/189/350
f 321/172/314 323/178/316 361/183/349
f 336/192/329 367/194/355 368/195/356
f 366/196/354 363/197/351 364/198/352
f 365/199/353 363/197/351 366/196/354
f 335/191/328 365/199/353 366/196/354
f 367/194/355 335/191/328 366/196/354
f 334/187/327 368/195/356 351/200/341
f 368/195/356 363/197/351 351/200/341
f 369/197/339 370/199/339 347/191/339
f 369/197/339 347/191/339 352/200/339
f 358/190/346 331/174/324 344/173/337
f 57/56/57 80/59/80 372/201/358
f 374/202/360 60/48/60 67/47/67
f 55/34/55 56/33/56 68/41/68
f 69/43/69 58/44/58 212/46/212
f 53/31/53 63/40/63 69/43/69
f 48/37/48 72/51/72 70/49/70
f 59/54/59 64/50/64 70/49/70
f 64/50/64 71/57/71 47/39/47
f 48/37/48 75/36/75 72/51/72
f 47/39/47 71/57/71 73/53/73
f 73/53/73 78/203/78 74/35/74
f 170/204/170 167/205/167 178/206/178
f 153/207/153 155/208/155 172/209/172
f 171/210/171 153/207/153 172/209/172
f 166/211/166 171/210/171 169/212/169
f 376/213/362 191/214/191 375/215/361
f 149/216/149 150/217/150 161/218/161
f 167/205/167 177/219/177 178/206/178
f 151/220/151 160/221/160 150/217/150
f 375/215/361 165/222/165 156/223/156
f 172/209/172 155/208/155 154/224/154
f 155/208/155 181/225/181 154/224/154
f 158/226/158 162/227/162 151/220/151
f 184/228/184 159/229/159 59/54/59
f 158/226/158 151/220/151 150/217/150
f 157/230/157 158/226/158 150/217/150
f 68/41/68 60/48/60 163/231/163
f 70/49/70 72/51/72 186/232/186
f 182/233/182 163/231/163 60/48/60
f 188/234/188 150/217/150 149/216/149
f 77/235/77 189/236/189 148/237/148
f 183/238/183 159/229/159 184/228/184
f 148/237/148 152/239/152 82/240/82
f 373/60/359 59/54/59 159/229/159
f 185/241/185 60/48/60 374/202/360
f 150/217/150 188/234/188 157/230/157
f 151/220/151 162/227/162 164/242/164
f 167/205/167 176/243/176 177/219/177
f 168/244/168 165/222/165 194/245/194
f 161/218/161 150/217/150 160/221/160
f 187/246/187 152/239/152 190/247/190
f 184/228/184 59/54/59 186/232/186
f 182/233/182 60/48/60 185/241/185
f 189/236/189 179/248/179 148/237/148
f 197/249/197 209/250/209 175/251/175
f 151/220/151 164/242/164 160/221/160
f 378/252/364 391/253/377 377/254/363
f 153/207/153 378/252/364 155/208/155
f 165/222/165 168/244/168 156/223/156
f 191/214/191 165/222/165 375/215/361
f 191/214/191 194/245/194 165/222/165
f 166/211/166 153/207/153 171/210/171
f 153/207/153 166/211/166 391/253/377
f 376/213/362 375/215/361 392/255/378
f 375/215/361 156/223/156 392/255/378
f 153/207/153 391/253/377 378/252/364
f 383/256/369 382/257/368 389/258/375
f 181/225/181 155/208/155 390/259/376
f 379/260/365 383/256/369 390/259/376
f 390/259/376 378/252/364 379/260/365
f 380/261/366 379/260/365 378/252/364
f 378/252/364 377/254/363 380/261/366
f 381/262/367 393/263/379 392/255/378
f 156/223/156 398/264/384 392/255/378
f 398/264/384 381/262/367 392/255/378
f 381/262/367 394/265/380 385/266/371
f 381/262/367 385/266/371 386/267/372
f 380/261/366 396/268/382 379/260/365
f 379/260/365 388/269/374 384/270/370
f 383/256/369 384/270/370 395/271/381
f 395/271/381 384/270/370 387/272/373
f 387/272/373 384/270/370 388/269/374
f 385/266/371 397/273/383 386/267/372
f 113/274/113 104/275/104 114/276/114
f 91/277/91 108/278/108 90/279/90
f 108/278/108 91/277/91 89/280/89
f 107/281/107 89/280/89 102/282/102
f 399/283/385 101/284/101 127/285/127
f 112/286/112 104/275/104 113/274/113
f 97/287/97 96/288/96 86/289/86
f 145/290/145 103/291/103 111/292/111
f 91/277/91 90/279/90 92/293/92
f 86/289/86 93/294/93 99/295/99
f 118/296/118 95/297/95 58/44/58
f 124/298/124 84/299/84 85/300/85
f 119/301/119 94/302/94 121/303/121
f 120/304/120 86/289/86 87/305/87
f 93/294/93 86/289/86 120/304/120
f 100/306/100 98/307/98 87/305/87
f 57/56/57 121/303/121 94/302/94
f 125/308/125 69/43/69 63/40/63
f 71/57/71 57/56/57 122/309/122
f 79/310/79 83/311/83 84/299/84
f 95/297/95 371/62/357 58/44/58
f 98/307/98 120/304/120 87/305/87
f 121/303/121 57/56/57 372/201/358
f 118/296/118 58/44/58 125/308/125
f 96/288/96 87/305/87 86/289/86
f 104/275/104 128/312/128 114/276/114
f 115/313/115 97/287/97 86/289/86
f 117/314/117 105/315/105 101/284/101
f 122/309/122 57/56/57 94/302/94
f 83/311/83 123/316/123 88/317/88
f 86/289/86 99/295/99 115/313/115
f 87/305/87 96/288/96 100/306/100
f 88/317/88 123/316/123 126/318/126
f 401/319/387 400/320/386 402/321/388
f 399/283/385 416/322/402 117/314/117
f 105/315/105 106/323/106 101/284/101
f 117/314/117 101/284/101 399/283/385
f 101/284/101 106/323/106 127/285/127
f 133/324/133 107/281/107 102/282/102
f 400/320/386 102/282/102 89/280/89
f 107/281/107 108/278/108 89/280/89
f 400/320/386 89/280/89 402/321/388
f 399/283/385 127/285/127 415/325/401
f 399/283/385 415/325/401 416/322/402
f 89/280/89 91/277/91 402/321/388
f 407/326/393 414/327/400 413/328/399
f 92/293/92 413/328/399 414/327/400
f 403/329/389 402/321/388 414/327/400
f 91/277/91 414/327/400 402/321/388
f 404/330/390 402/321/388 403/329/389
f 402/321/388 404/330/390 401/319/387
f 405/331/391 416/322/402 417/332/403
f 422/333/408 416/322/402 405/331/391
f 406/334/392 422/333/408 405/331/391
f 405/331/391 411/335/397 410/336/396
f 405/331/391 417/332/403 411/335/397
f 403/329/389 407/326/393 409/337/395
f 407/326/393 418/338/404 419/339/405
f 408/340/394 420/341/406 403/329/389
f 412/342/398 420/341/406 408/340/394
f 419/339/405 412/342/398 409/337/395
f 409/337/395 412/342/398 408/340/394
f 411/335/397 421/343/407 410/336/396
f 83/311/83 88/317/88 84/299/84
f 124/298/124 79/310/79 84/299/84
f 82/240/82 152/239/152 187/246/187
f 148/237/148 82/240/82 77/235/77
f 71/57/71 122/309/122 73/53/73
f 186/232/186 59/54/59 70/49/70
f 58/44/58 69/43/69 125/308/125
f 68/41/68 163/231/163 62/42/62
f 353/184/339 348/344/339 350/193/339
f 294/345/293 283/140/283 300/139/295
f 255/114/255 262/113/262 247/112/247
f 234/159/234 29/75/29 222/84/222
f 325/169/318 320/171/313 328/168/321
f 271/123/271 268/125/268 275/106/275
f 229/161/229 329/162/322 326/175/319
f 322/176/315 324/180/317 326/175/319
f 247/112/247 263/111/263 272/117/272
f 272/117/272 266/118/266 270/128/270
f 271/123/271 248/107/248 247/112/247
f 270/128/270 271/123/271 272/117/272
f 227/167/227 229/161/229 325/169/318
f 325/169/318 326/175/319 324/180/317
f 327/155/320 228/151/228 317/156/310
f 318/152/311 327/155/320 319/154/312
f 273/103/273 250/108/250 260/105/260
f 274/116/274 273/103/273 265/102/265
f 253/99/253 251/98/251 242/79/242
f 241/76/241 29/75/29 254/109/254
f 233/157/233 235/165/235 234/159/234
f 247/112/247 253/99/253 255/114/255
f 29/75/29 256/164/256 255/114/255
f 235/165/235 227/167/227 240/166/240
f 234/159/234 235/165/235 29/75/29
f 256/164/256 29/75/29 235/165/235
f 256/164/256 259/115/259 255/114/255
f 313/146/308 282/145/282 280/131/280
f 367/194/355 364/198/352 368/195/356
f 313/146/308 280/131/280 314/147/309
f 312/142/307 282/145/282 313/146/308
f 310/143/305 313/146/308 314/147/309
f 314/147/309 281/130/281 284/137/284
f 336/192/329 335/191/328 367/194/355
f 366/196/354 364/198/352 367/194/355
f 336/192/329 368/195/356 334/187/327
f 364/198/352 363/197/351 368/195/356
f 285/136/285 290/122/290 277/121/277
f 280/131/280 282/145/282 302/136/297
f 334/187/327 351/200/341 356/186/344
f 355/186/343 345/179/338 331/174/324
f 330/170/323 321/172/314 340/188/333
f 336/192/329 360/185/348 357/190/345
f 278/124/278 269/126/269 286/132/286
f 281/130/281 287/129/287 303/138/298
f 277/121/277 304/138/299 306/129/301
f 280/131/280 302/136/297 287/129/287
f 336/192/329 334/187/327 360/185/348
f 341/185/334 331/174/324 358/190/346
f 339/181/332 361/183/349 323/178/316
f 362/189/350 342/183/335 333/182/326
f 359/188/347 362/189/350 337/193/330
f 361/183/349 343/189/336 321/172/314
f 279/134/279 288/135/288 283/140/283
f 301/139/296 307/135/302 267/120/267
f 267/120/267 289/133/289 269/126/269
f 308/133/303 279/134/279 305/132/300
f 253/99/253 242/79/242 254/109/254
f 223/82/223 234/159/234 222/84/222
f 409/337/395 407/326/393 419/339/405
f 408/340/394 403/329/389 409/337/395
f 405/331/391 410/336/396 406/334/392
f 420/341/406 404/330/390 403/329/389
f 396/268/382 387/272/373 388/269/374
f 396/268/382 388/269/374 379/260/365
f 381/262/367 386/267/372 393/263/379
f 383/256/369 395/271/381 382/257/368
f 379/260/365 384/270/370 383/256/369
f 26/86/26 27/88/27 244/89/244
f 27/88/27 26/86/26 25/85/25
f 239/158/239 223/82/223 237/94/237
f 260/105/260 257/100/257 261/101/261
f 407/326/393 413/328/399 418/338/404
f 422/333/408 117/314/117 416/322/402
f 92/293/92 414/327/400 91/277/91
f 403/329/389 414/327/400 407/326/393
f 390/259/376 389/258/375 181/225/181
f 394/265/380 381/262/367 398/264/384
f 389/258/375 390/259/376 383/256/369
f 378/252/364 390/259/376 155/208/155
f 350/193/339 346/182/339 353/184/339
f 296/140/292 295/345/292 298/148/292
f 279/134/279 299/148/294 305/132/300
f 359/188/347 337/193/330 349/344/340
f 198/204/198 156/223/156 192/205/192
f 167/205/167 193/244/193 176/243/176
f 193/244/193 173/346/173 176/243/176
f 168/244/168 192/205/192 156/223/156
f 195/212/195 174/347/174 202/348/202
f 193/244/193 196/245/196 173/346/173
f 180/349/180 156/223/156 198/204/198
f 172/209/172 154/224/154 199/249/199
f 108/278/108 129/291/129 90/279/90
f 116/350/116 130/312/130 117/314/117
f 130/312/130 131/275/131 117/314/117
f 104/275/104 112/286/112 132/315/132
f 105/315/105 117/314/117 131/275/131
f 132/315/132 112/286/112 109/351/109
f 132/315/132 109/351/109 134/323/134
f 135/324/135 138/352/138 110/353/110
f 135/324/135 110/353/110 136/281/136
f 136/281/136 110/353/110 111/292/111
f 200/210/200 175/251/175 174/347/174
f 195/212/195 200/210/200 174/347/174
f 200/210/200 201/209/201 175/251/175
f 197/249/197 175/251/175 201/209/201
f 103/291/103 137/278/137 111/292/111
f 136/281/136 111/292/111 137/278/137
f 179/248/179 203/348/203 148/237/148
f 207/243/207 204/346/204 149/216/149
f 148/237/148 205/347/205 152/239/152
f 203/348/203 205/347/205 148/237/148
f 205/347/205 206/251/206 152/239/152
f 210/250/210 152/239/152 206/251/206
f 143/286/143 115/313/115 139/351/139
f 85/300/85 84/299/84 140/352/140
f 140/352/140 84/299/84 141/353/141
f 84/299/84 88/317/88 141/353/141
f 146/290/146 142/292/142 88/317/88
f 141/353/141 88/317/88 142/292/142
f 144/274/144 97/287/97 143/286/143
f 97/287/97 115/313/115 143/286/143
f 96/288/96 144/274/144 100/306/100
f 96/288/96 97/287/97 144/274/144
f 208/219/208 207/243/207 161/218/161
f 161/218/161 207/243/207 149/216/149
f 160/221/160 164/242/164 208/219/208
f 160/221/160 208/219/208 161/218/161
f 126/318/126 146/290/146 88/317/88
f 144/274/144 147/276/147 100/306/100
f 208/219/208 164/242/164 211/206/211
f 190/247/190 152/239/152 210/250/210
f 244/89/244 258/96/258 257/100/257
f 260/105/260 250/108/250 257/100/257
f 236/149/236 230/153/230 231/150/231
f 25/85/25 236/149/236 225/92/225
f 2/14/2 11/15/11 4/2/4
f 11/15/11 3/6/3 46/16/46
f 425/354/411 449/355/435 426/356/412
f 428/357/414 447/358/433 431/359/417
f 441/360/427 432/361/418 475/362/461
f 431/359/417 423/363/409 460/364/446
f 436/365/422 448/366/434 435/367/421
f 441/360/427 435/367/421 444/368/430
f 446/369/432 440/370/426 441/360/427
f 433/371/419 432/361/418 441/360/427
f 440/370/426 459/372/445 433/371/419
f 474/373/460 432/361/418 433/371/419
f 441/360/427 475/362/461 435/367/421
f 435/367/421 476/374/462 436/365/422
f 476/374/462 435/367/421 475/362/461
f 463/375/449 464/376/450 461/377/447
f 430/378/416 436/365/422 478/379/464
f 466/380/452 461/377/447 464/376/450
f 443/381/429 448/366/434 462/382/448
f 477/383/463 445/384/431 425/354/411
f 445/384/431 449/355/435 425/354/411
f 443/381/429 462/382/448 465/385/451
f 477/383/463 447/358/433 445/384/431
f 447/358/433 477/383/463 431/359/417
f 442/386/428 428/357/414 429/387/415
f 442/386/428 447/358/433 428/357/414
f 427/388/413 442/386/428 429/387/415
f 449/355/435 447/358/433 442/386/428
f 446/369/432 441/360/427 444/368/430
f 438/389/424 440/370/426 446/369/432
f 446/369/432 443/381/429 438/389/424
f 439/390/425 438/389/424 443/381/429
f 437/391/423 439/390/425 443/381/429
f 448/366/434 446/369/432 444/368/430
f 443/381/429 465/385/451 437/391/423
f 448/366/434 444/368/430 435/367/421
f 443/381/429 446/369/432 448/366/434
f 449/355/435 442/386/428 463/375/449
f 445/384/431 447/358/433 449/355/435
f 477/383/463 423/363/409 431/359/417
f 459/372/445 440/370/426 451/392/437
f 458/393/444 451/392/437 453/394/439
f 440/370/426 433/371/419 441/360/427
f 451/392/437 440/370/426 471/395/457
f 439/390/425 471/395/457 438/389/424
f 452/396/438 439/390/425 454/397/440
f 471/395/457 439/390/425 452/396/438
f 434/398/420 459/372/445 424/399/410
f 473/400/459 460/364/446 459/372/445
f 454/397/440 437/391/423 427/388/413
f 429/387/415 454/397/440 427/388/413
f 457/401/443 473/400/459 458/393/444
f 439/390/425 437/391/423 454/397/440
f 455/402/441 452/396/438 454/397/440
f 453/394/439 452/396/438 455/402/441
f 456/403/442 453/394/439 455/402/441
f 457/401/443 453/394/439 456/403/442
f 428/357/414 472/404/458 429/387/415
f 429/387/415 455/402/441 454/397/440
f 456/403/442 450/405/436 457/401/443
f 472/404/458 428/357/414 431/359/417
f 450/405/436 455/402/441 472/404/458
f 466/380/452 464/376/450 469/406/455
f 450/405/436 473/400/459 457/401/443
f 455/402/441 450/405/436 456/403/442
f 451/392/437 452/396/438 453/394/439
f 457/401/443 458/393/444 453/394/439
f 459/372/445 451/392/437 473/400/459
f 460/364/446 450/405/436 431/359/417
f 460/364/446 424/399/410 459/372/445
f 434/398/420 433/371/419 459/372/445
f 424/399/410 460/364/446 423/363/409
f 478/379/464 436/365/422 476/374/462
f 430/378/416 478/379/464 466/380/452
f 436/365/422 462/382/448 448/366/434
f 436/365/422 468/407/454 462/382/448
f 426/356/412 463/375/449 461/377/447
f 426/356/412 449/355/435 463/375/449
f 464/376/450 463/375/449 470/408/456
f 463/375/449 442/386/428 470/408/456
f 468/407/454 465/385/451 462/382/448
f 467/409/453 437/391/423 465/385/451
f 437/391/423 466/380/452 469/406/455
f 437/391/423 467/409/453 466/380/452
f 467/409/453 465/385/451 468/407/454
f 430/378/416 466/380/452 467/409/453
f 430/378/416 468/407/454 436/365/422
f 467/409/453 468/407/454 430/378/416
f 470/408/456 469/406/455 464/376/450
f 427/388/413 437/391/423 469/406/455
f 427/388/413 470/408/456 442/386/428
f 427/388/413 469/406/455 470/408/456
f 433/371/419 434/398/420 424/399/410
f 474/373/460 433/371/419 424/399/410
f 451/392/437 471/395/457 452/396/438
f 471/395/457 440/370/426 438/389/424
f 455/402/441 429/387/415 472/404/458
f 450/405/436 472/404/458 431/359/417
f 450/405/436 460/364/446 473/400/459
f 473/400/459 451/392/437 458/393/444
f 479/410/465 480/411/466 484/412/470 483/413/469
f 480/411/466 481/414/467 485/415/471 484/412/470
f 481/414/467 482/416/468 486/417/472 485/415/471
f 482/416/468 479/410/465 483/413/469 486/417/472
f 483/413/469 484/412/470 487/418/473
f 484/412/470 485/415/471 487/418/473
f 485/415/471 486/417/472 487/418/473
f 486/417/472 483/413/469 487/418/473
f 483/413/469 487/418/473 488/419/474
f 484/412/470 487/418/473 489/420/475
f 484/412/470 489/420/475 490/421/476
f 485/415/471 490/421/476 489/420/475
f 485/415/471 489/420/475 486/417/472
f 486/417/472 489/420/475 488/419/474
f 488/419/474 489/420/475 490/421/476
f 495/413/481 496/412/482 492/411/478 491/410/477
f 496/412/482 497/415/483 493/414/479 492/411/478
f 497/415/483 498/417/484 494/416/480 493/414/479
f 498/417/484 495/413/481 491/410/477 494/416/480
f 499/418/485 496/412/482 495/413/481
f 499/418/485 497/415/483 496/412/482
f 499/418/485 498/417/484 497/415/483
f 499/418/485 495/413/481 498/417/484
f 500/419/486 499/418/485 495/413/481
f 501/420/487 499/418/485 496/412/482
f 502/421/488 501/420/487 496/412/482
f 501/420/487 502/421/488 497/415/483
f 498/417/484 501/420/487 497/415/483
f 500/419/486 501/420/487 498/417/484
f 502/421/488 501/420/487 500/419/486
