# Blender 5.1.1
# www.blender.org
mtllib pohon_mati.mtl
o Mati_Trunk
v 0.156001 -0.517411 0.054145
v -0.159254 0.179856 3.986427
v -0.040571 -0.435991 0.028537
v -0.201377 0.197303 3.980939
v -0.120425 -0.239424 -0.001643
v -0.218488 0.239424 3.974472
v -0.036783 -0.042858 -0.018715
v -0.200565 0.281546 3.970814
v 0.161359 0.038562 -0.012679
v -0.158106 0.298993 3.972107
v 0.357931 -0.042858 0.012929
v -0.115983 0.281546 3.977595
v 0.437784 -0.239424 0.043109
v -0.098872 0.239424 3.984062
v 0.354143 -0.435991 0.060181
v -0.116795 0.197303 3.987720
vn -0.3938 -0.9100 0.1298
vn -0.9274 -0.3734 0.0221
vn -0.9201 0.3855 -0.0691
vn -0.3762 0.9221 -0.0904
vn 0.3858 0.9221 -0.0293
vn 0.9194 0.3855 0.0784
vn -0.0793 0.1197 0.9896
vn 0.9121 -0.3734 0.1696
vn 0.3681 -0.9100 0.1909
vn 0.0793 -0.1197 -0.9896
vt 1.000000 0.500000
vt 1.000000 1.000000
vt 0.875000 1.000000
vt 0.875000 0.500000
vt 0.750000 1.000000
vt 0.750000 0.500000
vt 0.625000 1.000000
vt 0.625000 0.500000
vt 0.500000 1.000000
vt 0.500000 0.500000
vt 0.375000 1.000000
vt 0.375000 0.500000
vt 0.250000 1.000000
vt 0.250000 0.500000
vt 0.419706 0.419706
vt 0.250000 0.490000
vt 0.080294 0.419706
vt 0.010000 0.250000
vt 0.080294 0.080294
vt 0.250000 0.010000
vt 0.419706 0.080294
vt 0.490000 0.250000
vt 0.125000 1.000000
vt 0.125000 0.500000
vt 0.000000 1.000000
vt 0.000000 0.500000
vt 0.750000 0.490000
vt 0.919706 0.419706
vt 0.990000 0.250000
vt 0.919706 0.080294
vt 0.750000 0.010000
vt 0.580294 0.080294
vt 0.510000 0.250000
vt 0.580294 0.419706
s 0
f 1/1/1 2/2/1 4/3/1 3/4/1
f 3/4/2 4/3/2 6/5/2 5/6/2
f 5/6/3 6/5/3 8/7/3 7/8/3
f 7/8/4 8/7/4 10/9/4 9/10/4
f 9/10/5 10/9/5 12/11/5 11/12/5
f 11/12/6 12/11/6 14/13/6 13/14/6
f 4/15/7 2/16/7 16/17/7 14/18/7 12/19/7 10/20/7 8/21/7 6/22/7
f 13/14/8 14/13/8 16/23/8 15/24/8
f 15/24/9 16/23/9 2/25/9 1/26/9
f 1/27/10 3/28/10 5/29/10 7/30/10 9/31/10 11/32/10 13/33/10 15/34/10
o Mati_Branch0
v -0.240108 -0.399279 2.486521
v -0.746715 -0.054652 3.147284
v -0.284184 -0.397495 2.453670
v -0.754728 -0.054328 3.141311
v -0.295334 -0.351861 2.425066
v -0.756756 -0.046031 3.136110
v -0.262408 -0.308010 2.429313
v -0.750769 -0.038058 3.136882
v -0.218332 -0.309794 2.462163
v -0.742755 -0.038383 3.142855
v -0.207182 -0.355429 2.490767
v -0.740728 -0.046680 3.148056
vn -0.2523 -0.9237 0.2883
vn -0.8315 -0.4264 -0.3562
vn -0.6031 0.5121 -0.6116
vn 0.2045 0.9532 -0.2226
vn -0.5528 0.3414 0.7602
vn 0.7836 0.4559 0.4219
vn 0.5553 -0.4825 0.6774
vn 0.5528 -0.3414 -0.7602
vt 1.000000 0.500000
vt 1.000000 1.000000
vt 0.833333 1.000000
vt 0.833333 0.500000
vt 0.666667 1.000000
vt 0.666667 0.500000
vt 0.500000 1.000000
vt 0.500000 0.500000
vt 0.333333 1.000000
vt 0.333333 0.500000
vt 0.457846 0.370000
vt 0.250000 0.490000
vt 0.042154 0.370000
vt 0.042154 0.130000
vt 0.250000 0.010000
vt 0.457846 0.130000
vt 0.166667 1.000000
vt 0.166667 0.500000
vt -0.000000 1.000000
vt -0.000000 0.500000
vt 0.750000 0.490000
vt 0.957846 0.370000
vt 0.957846 0.130000
vt 0.750000 0.010000
vt 0.542154 0.130000
vt 0.542154 0.370000
s 0
f 17/35/11 18/36/11 20/37/11 19/38/11
f 19/38/12 20/37/12 22/39/12 21/40/12
f 21/40/13 22/39/13 24/41/13 23/42/13
f 23/42/14 24/41/14 26/43/14 25/44/14
f 20/45/15 18/46/15 28/47/15 26/48/15 24/49/15 22/50/15
f 25/44/16 26/43/16 28/51/16 27/52/16
f 27/52/17 28/51/17 18/53/17 17/54/17
f 17/55/18 19/56/18 21/57/18 23/58/18 25/59/18 27/60/18
o Mati_Branch1
v 0.555309 -0.210377 2.866089
v 0.238042 -0.447276 3.504638
v 0.515377 -0.172762 2.862141
v 0.230781 -0.440437 3.503920
v 0.521003 -0.123979 2.886911
v 0.231804 -0.431568 3.508424
v 0.566561 -0.112810 2.915628
v 0.240088 -0.429537 3.513645
v 0.606494 -0.150424 2.919576
v 0.247348 -0.436376 3.514363
v 0.600868 -0.199208 2.894806
v 0.246325 -0.445246 3.509859
vn -0.5588 -0.6476 -0.5179
vn -0.9185 0.2581 -0.2997
vn -0.3819 0.8866 0.2611
vn 0.5143 0.6093 0.6035
vn -0.4292 -0.3691 0.8244
vn 0.8739 -0.2964 0.3852
vn 0.3374 -0.9249 -0.1755
vn 0.4292 0.3691 -0.8244
vt 1.000000 0.500000
vt 1.000000 1.000000
vt 0.833333 1.000000
vt 0.833333 0.500000
vt 0.666667 1.000000
vt 0.666667 0.500000
vt 0.500000 1.000000
vt 0.500000 0.500000
vt 0.333333 1.000000
vt 0.333333 0.500000
vt 0.457846 0.370000
vt 0.250000 0.490000
vt 0.042154 0.370000
vt 0.042154 0.130000
vt 0.250000 0.010000
vt 0.457846 0.130000
vt 0.166667 1.000000
vt 0.166667 0.500000
vt -0.000000 1.000000
vt -0.000000 0.500000
vt 0.750000 0.490000
vt 0.957846 0.370000
vt 0.957846 0.130000
vt 0.750000 0.010000
vt 0.542154 0.130000
vt 0.542154 0.370000
s 0
f 29/61/19 30/62/19 32/63/19 31/64/19
f 31/64/20 32/63/20 34/65/20 33/66/20
f 33/66/21 34/65/21 36/67/21 35/68/21
f 35/68/22 36/67/22 38/69/22 37/70/22
f 32/71/23 30/72/23 40/73/23 38/74/23 36/75/23 34/76/23
f 37/70/24 38/69/24 40/77/24 39/78/24
f 39/78/25 40/77/25 30/79/25 29/80/25
f 29/81/26 31/82/26 33/83/26 35/84/26 37/85/26 39/86/26
o Mati_Branch2
v -0.295158 0.298446 1.957161
v -0.070671 0.648583 2.458693
v -0.345824 0.305548 1.977348
v -0.079882 0.649874 2.462363
v -0.374738 0.350370 1.963934
v -0.085140 0.658024 2.459924
v -0.352987 0.388089 1.930332
v -0.081185 0.664882 2.453815
v -0.302321 0.380987 1.910144
v -0.071973 0.663591 2.450144
v -0.273406 0.336165 1.923559
v -0.066716 0.655441 2.452583
vn 0.0979 -0.8360 0.5399
vn -0.7360 -0.2920 0.6108
vn -0.8110 0.5729 0.1182
vn -0.0522 0.8938 -0.4455
vn 0.3818 0.4823 0.7885
vn 0.7817 0.3497 -0.5164
vn 0.8567 -0.5152 -0.0238
vn -0.3818 -0.4823 -0.7885
vt 1.000000 0.500000
vt 1.000000 1.000000
vt 0.833333 1.000000
vt 0.833333 0.500000
vt 0.666667 1.000000
vt 0.666667 0.500000
vt 0.500000 1.000000
vt 0.500000 0.500000
vt 0.333333 1.000000
vt 0.333333 0.500000
vt 0.457846 0.370000
vt 0.250000 0.490000
vt 0.042154 0.370000
vt 0.042154 0.130000
vt 0.250000 0.010000
vt 0.457846 0.130000
vt 0.166667 1.000000
vt 0.166667 0.500000
vt -0.000000 1.000000
vt -0.000000 0.500000
vt 0.750000 0.490000
vt 0.957846 0.370000
vt 0.957846 0.130000
vt 0.750000 0.010000
vt 0.542154 0.130000
vt 0.542154 0.370000
s 0
f 41/87/27 42/88/27 44/89/27 43/90/27
f 43/90/28 44/89/28 46/91/28 45/92/28
f 45/92/29 46/91/29 48/93/29 47/94/29
f 47/94/30 48/93/30 50/95/30 49/96/30
f 44/97/31 42/98/31 52/99/31 50/100/31 48/101/31 46/102/31
f 49/96/32 50/95/32 52/103/32 51/104/32
f 51/104/33 52/103/33 42/105/33 41/106/33
f 41/107/34 43/108/34 45/109/34 47/110/34 49/111/34 51/112/34
o Mati_Branch3
v 0.245251 0.245850 3.254184
v 0.337214 0.095403 3.724220
v 0.207439 0.279873 3.275105
v 0.330340 0.101590 3.728024
v 0.222276 0.329582 3.293378
v 0.333037 0.110627 3.731346
v 0.274925 0.345267 3.290731
v 0.342610 0.113479 3.730865
v 0.312737 0.311244 3.269810
v 0.349485 0.107293 3.727061
v 0.297900 0.261536 3.251537
v 0.346787 0.098255 3.723739
vn -0.6939 -0.7141 -0.0928
vn -0.9343 0.1622 0.3174
vn -0.2280 0.8466 0.4809
vn 0.7187 0.6547 0.2343
vn 0.1596 -0.3822 0.9102
vn 0.9591 -0.2216 -0.1759
vn 0.2529 -0.9060 -0.3395
vn -0.1597 0.3822 -0.9102
vt 1.000000 0.500000
vt 1.000000 1.000000
vt 0.833333 1.000000
vt 0.833333 0.500000
vt 0.666667 1.000000
vt 0.666667 0.500000
vt 0.500000 1.000000
vt 0.500000 0.500000
vt 0.333333 1.000000
vt 0.333333 0.500000
vt 0.457846 0.370000
vt 0.250000 0.490000
vt 0.042154 0.370000
vt 0.042154 0.130000
vt 0.250000 0.010000
vt 0.457846 0.130000
vt 0.166667 1.000000
vt 0.166667 0.500000
vt -0.000000 1.000000
vt -0.000000 0.500000
vt 0.750000 0.490000
vt 0.957846 0.370000
vt 0.957846 0.130000
vt 0.750000 0.010000
vt 0.542154 0.130000
vt 0.542154 0.370000
s 0
f 53/113/35 54/114/35 56/115/35 55/116/35
f 55/116/36 56/115/36 58/117/36 57/118/36
f 57/118/37 58/117/37 60/119/37 59/120/37
f 59/120/38 60/119/38 62/121/38 61/122/38
f 56/123/39 54/124/39 64/125/39 62/126/39 60/127/39 58/128/39
f 61/122/40 62/121/40 64/129/40 63/130/40
f 63/130/41 64/129/41 54/131/41 53/132/41
f 53/133/42 55/134/42 57/135/42 59/136/42 61/137/42 63/138/42
o Mati_Branch4
v -0.340209 -0.579475 3.642418
v -0.554527 -0.378606 3.986285
v -0.384348 -0.567867 3.611726
v -0.562552 -0.376496 3.980705
v -0.388802 -0.518721 3.587439
v -0.563362 -0.367560 3.976289
v -0.349117 -0.481184 3.593844
v -0.556147 -0.360735 3.977453
v -0.304978 -0.492792 3.624536
v -0.548121 -0.362846 3.983034
v -0.300524 -0.541937 3.648823
v -0.547311 -0.371781 3.987449
vn -0.4088 -0.8757 0.2567
vn -0.9170 -0.2404 -0.3182
vn -0.5486 0.6662 -0.5052
vn 0.3281 0.9374 -0.1173
vn -0.4682 0.3570 0.8083
vn 0.8362 0.3020 0.4577
vn 0.4678 -0.6046 0.6447
vn 0.4682 -0.3570 -0.8083
vt 1.000000 0.500000
vt 1.000000 1.000000
vt 0.833333 1.000000
vt 0.833333 0.500000
vt 0.666667 1.000000
vt 0.666667 0.500000
vt 0.500000 1.000000
vt 0.500000 0.500000
vt 0.333333 1.000000
vt 0.333333 0.500000
vt 0.457846 0.370000
vt 0.250000 0.490000
vt 0.042154 0.370000
vt 0.042154 0.130000
vt 0.250000 0.010000
vt 0.457846 0.130000
vt 0.166667 1.000000
vt 0.166667 0.500000
vt -0.000000 1.000000
vt -0.000000 0.500000
vt 0.750000 0.490000
vt 0.957846 0.370000
vt 0.957846 0.130000
vt 0.750000 0.010000
vt 0.542154 0.130000
vt 0.542154 0.370000
s 0
f 65/139/43 66/140/43 68/141/43 67/142/43
f 67/142/44 68/141/44 70/143/44 69/144/44
f 69/144/45 70/143/45 72/145/45 71/146/45
f 71/146/46 72/145/46 74/147/46 73/148/46
f 68/149/47 66/150/47 76/151/47 74/152/47 72/153/47 70/154/47
f 73/148/48 74/147/48 76/155/48 75/156/48
f 75/156/49 76/155/49 66/157/49 65/158/49
f 65/159/50 67/160/50 69/161/50 71/162/50 73/163/50 75/164/50
