# axis-converted-to-Y-up
# Blender 5.1.1
# www.blender.org
mtllib prop_pagar_kayu.mtl
o prop_pagar_kayu
v 0.850000 0.000000 0.050000
v 0.850000 0.900000 0.050000
v 0.814645 0.000000 0.035355
v 0.814645 0.900000 0.035355
v 0.800000 0.000000 -0.000000
v 0.800000 0.900000 -0.000000
v 0.814645 0.000000 -0.035355
v 0.814645 0.900000 -0.035355
v 0.850000 0.000000 -0.050000
v 0.850000 0.900000 -0.050000
v 0.885355 0.000000 -0.035355
v 0.885355 0.900000 -0.035355
v 0.900000 0.000000 -0.000000
v 0.900000 0.900000 -0.000000
v 0.885355 0.000000 0.035355
v 0.885355 0.900000 0.035355
v 0.850000 0.890000 0.050000
v 0.850000 0.970000 0.012000
v 0.814645 0.890000 0.035355
v 0.841515 0.970000 0.008485
v 0.800000 0.890000 -0.000000
v 0.838000 0.970000 -0.000000
v 0.814645 0.890000 -0.035355
v 0.841515 0.970000 -0.008485
v 0.850000 0.890000 -0.050000
v 0.850000 0.970000 -0.012000
v 0.885355 0.890000 -0.035355
v 0.858485 0.970000 -0.008485
v 0.900000 0.890000 -0.000000
v 0.862000 0.970000 -0.000000
v 0.885355 0.890000 0.035355
v 0.858485 0.970000 0.008485
v 0.000000 0.000000 0.050000
v 0.000000 0.900000 0.050000
v -0.035355 0.000000 0.035355
v -0.035355 0.900000 0.035355
v -0.050000 0.000000 -0.000000
v -0.050000 0.900000 -0.000000
v -0.035355 0.000000 -0.035355
v -0.035355 0.900000 -0.035355
v 0.000000 0.000000 -0.050000
v 0.000000 0.900000 -0.050000
v 0.035355 0.000000 -0.035355
v 0.035355 0.900000 -0.035355
v 0.050000 0.000000 -0.000000
v 0.050000 0.900000 -0.000000
v 0.035355 0.000000 0.035355
v 0.035355 0.900000 0.035355
v 0.000000 0.890000 0.050000
v 0.000000 0.970000 0.012000
v -0.035355 0.890000 0.035355
v -0.008485 0.970000 0.008485
v -0.050000 0.890000 -0.000000
v -0.012000 0.970000 -0.000000
v -0.035355 0.890000 -0.035355
v -0.008485 0.970000 -0.008485
v 0.000000 0.890000 -0.050000
v 0.000000 0.970000 -0.012000
v 0.035355 0.890000 -0.035355
v 0.008485 0.970000 -0.008485
v 0.050000 0.890000 -0.000000
v 0.012000 0.970000 -0.000000
v 0.035355 0.890000 0.035355
v 0.008485 0.970000 0.008485
v -0.850000 0.000000 0.050000
v -0.850000 0.900000 0.050000
v -0.885355 0.000000 0.035355
v -0.885355 0.900000 0.035355
v -0.900000 0.000000 -0.000000
v -0.900000 0.900000 -0.000000
v -0.885355 0.000000 -0.035355
v -0.885355 0.900000 -0.035355
v -0.850000 0.000000 -0.050000
v -0.850000 0.900000 -0.050000
v -0.814645 0.000000 -0.035355
v -0.814645 0.900000 -0.035355
v -0.800000 0.000000 -0.000000
v -0.800000 0.900000 -0.000000
v -0.814645 0.000000 0.035355
v -0.814645 0.900000 0.035355
v -0.850000 0.890000 0.050000
v -0.850000 0.970000 0.012000
v -0.885355 0.890000 0.035355
v -0.858485 0.970000 0.008485
v -0.900000 0.890000 -0.000000
v -0.862000 0.970000 -0.000000
v -0.885355 0.890000 -0.035355
v -0.858485 0.970000 -0.008485
v -0.850000 0.890000 -0.050000
v -0.850000 0.970000 -0.012000
v -0.814645 0.890000 -0.035355
v -0.841515 0.970000 -0.008485
v -0.800000 0.890000 -0.000000
v -0.838000 0.970000 -0.000000
v -0.814645 0.890000 0.035355
v -0.841515 0.970000 0.008485
v 1.000438 0.319503 -0.022500
v 0.999418 0.404497 -0.022500
v 1.000438 0.319503 0.022500
v 0.999418 0.404497 0.022500
v -0.999418 0.295503 -0.022500
v -1.000438 0.380497 -0.022500
v -0.999418 0.295503 0.022500
v -1.000438 0.380497 0.022500
v 1.000438 0.669503 -0.022500
v 0.999418 0.754497 -0.022500
v 1.000438 0.669503 0.022500
v 0.999418 0.754497 0.022500
v -0.999418 0.645503 -0.022500
v -1.000438 0.730497 -0.022500
v -0.999418 0.645503 0.022500
v -1.000438 0.730497 0.022500
v 0.420000 0.336000 0.035000
v 0.409870 0.343739 0.027640
v 0.423869 0.343739 0.023091
v 0.432522 0.343739 0.035000
v 0.423869 0.343739 0.046909
v 0.409870 0.343739 0.042360
v 0.416131 0.356261 0.023091
v 0.430130 0.356261 0.027640
v 0.430130 0.356261 0.042360
v 0.416131 0.356261 0.046909
v 0.407478 0.356261 0.035000
v 0.420000 0.364000 0.035000
v 0.420000 0.686000 0.035000
v 0.409870 0.693739 0.027640
v 0.423869 0.693739 0.023091
v 0.432522 0.693739 0.035000
v 0.423869 0.693739 0.046909
v 0.409870 0.693739 0.042360
v 0.416131 0.706261 0.023091
v 0.430130 0.706261 0.027640
v 0.430130 0.706261 0.042360
v 0.416131 0.706261 0.046909
v 0.407478 0.706261 0.035000
v 0.420000 0.714000 0.035000
v -0.420000 0.336000 0.035000
v -0.430130 0.343739 0.027640
v -0.416131 0.343739 0.023091
v -0.407478 0.343739 0.035000
v -0.416131 0.343739 0.046909
v -0.430130 0.343739 0.042360
v -0.423869 0.356261 0.023091
v -0.409870 0.356261 0.027640
v -0.409870 0.356261 0.042360
v -0.423869 0.356261 0.046909
v -0.432522 0.356261 0.035000
v -0.420000 0.364000 0.035000
v -0.420000 0.686000 0.035000
v -0.430130 0.693739 0.027640
v -0.416131 0.693739 0.023091
v -0.407478 0.693739 0.035000
v -0.416131 0.693739 0.046909
v -0.430130 0.693739 0.042360
v -0.423869 0.706261 0.023091
v -0.409870 0.706261 0.027640
v -0.409870 0.706261 0.042360
v -0.423869 0.706261 0.046909
v -0.432522 0.706261 0.035000
v -0.420000 0.714000 0.035000
vn -0.000000 -0.630300 0.776400
vn -0.000000 0.630300 0.776400
vn -0.549000 -0.630300 0.549000
vn -0.549000 0.630300 0.549000
vn -0.776400 -0.630300 0.000000
vn -0.776400 0.630300 0.000000
vn -0.549000 -0.630300 -0.549000
vn -0.549000 0.630300 -0.549000
vn -0.000000 -0.630300 -0.776400
vn -0.000000 0.630300 -0.776400
vn 0.549000 -0.630300 -0.549000
vn 0.549000 0.630300 -0.549000
vn 0.776400 -0.630300 0.000000
vn 0.776400 0.630300 0.000000
vn 0.549000 -0.630300 0.549000
vn 0.549000 0.630300 0.549000
vn -0.000000 -0.458200 0.888800
vn -0.000000 0.787400 0.616500
vn -0.628500 -0.458200 0.628500
vn -0.435900 0.787400 0.435900
vn -0.888800 -0.458200 0.000000
vn -0.616500 0.787400 0.000000
vn -0.628500 -0.458200 -0.628500
vn -0.435900 0.787400 -0.435900
vn -0.000000 -0.458200 -0.888800
vn -0.000000 0.787400 -0.616500
vn 0.628500 -0.458200 -0.628500
vn 0.435900 0.787400 -0.435900
vn 0.888800 -0.458200 0.000000
vn 0.616500 0.787400 0.000000
vn 0.628500 -0.458200 0.628500
vn 0.435900 0.787400 0.435900
vn 0.584200 -0.570400 -0.577400
vn 0.570400 0.584200 -0.577400
vn 0.584200 -0.570400 0.577400
vn 0.570400 0.584200 0.577400
vn -0.570400 -0.584200 -0.577400
vn -0.584200 0.570400 -0.577400
vn -0.570400 -0.584200 0.577400
vn -0.584200 0.570400 0.577400
vn -0.000000 -1.000000 0.000000
vn -0.723600 -0.447200 -0.525700
vn 0.276400 -0.447200 -0.850700
vn 0.894400 -0.447200 0.000000
vn 0.276400 -0.447200 0.850700
vn -0.723600 -0.447200 0.525700
vn -0.276400 0.447200 -0.850700
vn 0.723600 0.447200 -0.525700
vn 0.723600 0.447200 0.525700
vn -0.276400 0.447200 0.850700
vn -0.894400 0.447200 0.000000
vn -0.000000 1.000000 0.000000
vt 0.514665 0.905304
vt 0.514665 0.465883
vt 0.532051 0.465025
vt 0.532051 0.904446
vt 0.394742 0.448673
vt 0.394742 0.008248
vt 0.412128 0.008957
vt 0.412128 0.449382
vt 0.429514 0.008248
vt 0.429514 0.448673
vt 0.548548 0.447670
vt 0.548548 0.008248
vt 0.565934 0.009106
vt 0.565934 0.448528
vt 0.583320 0.008248
vt 0.583320 0.447670
vt 0.599817 0.899619
vt 0.599817 0.465025
vt 0.617203 0.466386
vt 0.617203 0.900981
vt 0.745139 0.239466
vt 0.726321 0.239466
vt 0.713014 0.226159
vt 0.713014 0.207341
vt 0.726321 0.194034
vt 0.745139 0.194034
vt 0.758446 0.207341
vt 0.758446 0.226159
vt 0.634589 0.465025
vt 0.634589 0.899619
vt 0.497280 0.904446
vt 0.497280 0.465025
vt 0.745139 0.301394
vt 0.726321 0.301394
vt 0.713014 0.288088
vt 0.713014 0.269269
vt 0.726321 0.255963
vt 0.745139 0.255963
vt 0.758446 0.269269
vt 0.758446 0.288088
vt 0.730400 0.838106
vt 0.730400 0.796820
vt 0.734573 0.796614
vt 0.747786 0.837248
vt 0.774943 0.221997
vt 0.788156 0.181548
vt 0.792328 0.181718
vt 0.792328 0.222706
vt 0.796501 0.181548
vt 0.809714 0.221997
vt 0.713014 0.895237
vt 0.726227 0.854603
vt 0.730400 0.854809
vt 0.730400 0.896095
vt 0.734573 0.854603
vt 0.747786 0.895237
vt 0.713014 0.544805
vt 0.726227 0.503677
vt 0.730400 0.504003
vt 0.730400 0.546166
vt 0.774942 0.754219
vt 0.778136 0.751025
vt 0.782652 0.751025
vt 0.785846 0.754219
vt 0.785846 0.758735
vt 0.782652 0.761929
vt 0.778136 0.761929
vt 0.774942 0.758735
vt 0.734573 0.503677
vt 0.747786 0.544805
vt 0.713014 0.837248
vt 0.726228 0.796614
vt 0.745139 0.441748
vt 0.758446 0.455055
vt 0.758446 0.473873
vt 0.745139 0.487180
vt 0.726321 0.487180
vt 0.713014 0.473873
vt 0.713014 0.455055
vt 0.726321 0.441748
vt 0.463397 0.906158
vt 0.463397 0.466737
vt 0.480783 0.465879
vt 0.480783 0.905300
vt 0.394742 0.906303
vt 0.394742 0.465879
vt 0.412128 0.466588
vt 0.412128 0.907012
vt 0.429514 0.465879
vt 0.429514 0.906303
vt 0.497280 0.447670
vt 0.497280 0.008248
vt 0.514665 0.009106
vt 0.514665 0.448528
vt 0.532051 0.008248
vt 0.532051 0.447670
vt 0.651086 0.895296
vt 0.651086 0.460701
vt 0.668472 0.462063
vt 0.668472 0.896658
vt 0.713014 0.021555
vt 0.726321 0.008248
vt 0.745139 0.008248
vt 0.758446 0.021555
vt 0.758446 0.040374
vt 0.745139 0.053680
vt 0.726321 0.053680
vt 0.713014 0.040373
vt 0.685858 0.460701
vt 0.685858 0.895296
vt 0.446011 0.905300
vt 0.446011 0.465879
vt 0.745139 0.115609
vt 0.726321 0.115609
vt 0.713014 0.102302
vt 0.713014 0.083484
vt 0.726321 0.070177
vt 0.745139 0.070177
vt 0.758446 0.083484
vt 0.758446 0.102302
vt 0.730400 0.722128
vt 0.730400 0.680842
vt 0.734573 0.680636
vt 0.747786 0.721270
vt 0.774943 0.164342
vt 0.788156 0.123892
vt 0.792328 0.124063
vt 0.792328 0.165051
vt 0.796501 0.123892
vt 0.809714 0.164342
vt 0.713014 0.779259
vt 0.726227 0.738625
vt 0.730400 0.738831
vt 0.730400 0.780117
vt 0.734573 0.738625
vt 0.747786 0.779259
vt 0.713014 0.603792
vt 0.726227 0.562663
vt 0.730400 0.562990
vt 0.730400 0.605153
vt 0.774942 0.699418
vt 0.778136 0.696225
vt 0.782652 0.696225
vt 0.785846 0.699418
vt 0.785846 0.703935
vt 0.782652 0.707128
vt 0.778136 0.707128
vt 0.774942 0.703935
vt 0.734573 0.562663
vt 0.747786 0.603792
vt 0.713014 0.721270
vt 0.726227 0.680636
vt 0.745139 0.177537
vt 0.726321 0.177537
vt 0.713014 0.164230
vt 0.713014 0.145412
vt 0.726321 0.132105
vt 0.745139 0.132106
vt 0.758446 0.145412
vt 0.758446 0.164231
vt 0.565934 0.905304
vt 0.565934 0.465883
vt 0.583320 0.465025
vt 0.583320 0.904446
vt 0.446011 0.448673
vt 0.446011 0.008248
vt 0.463397 0.008957
vt 0.463397 0.449382
vt 0.480783 0.008248
vt 0.480783 0.448673
vt 0.599817 0.447670
vt 0.599817 0.008248
vt 0.617203 0.009106
vt 0.617203 0.448528
vt 0.634589 0.008248
vt 0.634589 0.447670
vt 0.651086 0.442843
vt 0.651086 0.008248
vt 0.668472 0.009610
vt 0.668472 0.444205
vt 0.713014 0.331198
vt 0.726321 0.317891
vt 0.745139 0.317891
vt 0.758446 0.331198
vt 0.758446 0.350016
vt 0.745139 0.363323
vt 0.726321 0.363323
vt 0.713014 0.350016
vt 0.685858 0.008248
vt 0.685858 0.442843
vt 0.548548 0.904446
vt 0.548548 0.465025
vt 0.745139 0.425251
vt 0.726321 0.425251
vt 0.713014 0.411945
vt 0.713014 0.393126
vt 0.726321 0.379820
vt 0.745139 0.379820
vt 0.758446 0.393126
vt 0.758446 0.411945
vt 0.730400 0.954084
vt 0.730400 0.912798
vt 0.734573 0.912592
vt 0.747786 0.953226
vt 0.774943 0.106687
vt 0.788156 0.066237
vt 0.792328 0.066407
vt 0.792328 0.107396
vt 0.796501 0.066237
vt 0.809714 0.106687
vt 0.774943 0.048882
vt 0.788156 0.008248
vt 0.792329 0.008454
vt 0.792329 0.049740
vt 0.796501 0.008248
vt 0.809714 0.048882
vt 0.713014 0.662778
vt 0.726227 0.621650
vt 0.730400 0.621976
vt 0.730400 0.664139
vt 0.774943 0.726819
vt 0.778136 0.723625
vt 0.782652 0.723625
vt 0.785846 0.726819
vt 0.785846 0.731335
vt 0.782653 0.734529
vt 0.778136 0.734529
vt 0.774943 0.731335
vt 0.734573 0.621650
vt 0.747786 0.662778
vt 0.713014 0.953226
vt 0.726227 0.912592
vt 0.683211 0.958586
vt 0.664392 0.958586
vt 0.651086 0.945279
vt 0.651086 0.926461
vt 0.664392 0.913154
vt 0.683211 0.913154
vt 0.696517 0.926461
vt 0.696517 0.945279
vt 0.774943 0.454054
vt 0.774943 0.412917
vt 0.797071 0.412917
vt 0.797071 0.454054
vt 0.124244 0.008248
vt 0.165745 0.008256
vt 0.165745 0.991752
vt 0.124244 0.991744
vt 0.774943 0.280746
vt 0.774943 0.239203
vt 0.797071 0.239203
vt 0.797071 0.280746
vt 0.223743 0.991744
vt 0.182242 0.991751
vt 0.182242 0.008255
vt 0.223743 0.008248
vt 0.262368 0.008248
vt 0.262368 0.991706
vt 0.240240 0.991706
vt 0.240240 0.008248
vt 0.278865 0.991706
vt 0.278865 0.008248
vt 0.300994 0.008248
vt 0.300994 0.991706
vt 0.774943 0.396420
vt 0.774943 0.355283
vt 0.797071 0.355283
vt 0.797071 0.396420
vt 0.008248 0.008248
vt 0.049749 0.008256
vt 0.049749 0.991752
vt 0.008249 0.991744
vt 0.774943 0.338786
vt 0.774943 0.297243
vt 0.797071 0.297243
vt 0.797071 0.338786
vt 0.107747 0.991744
vt 0.066246 0.991752
vt 0.066246 0.008256
vt 0.107747 0.008248
vt 0.339620 0.008248
vt 0.339620 0.991706
vt 0.317491 0.991706
vt 0.317491 0.008248
vt 0.356116 0.991706
vt 0.356116 0.008248
vt 0.378245 0.008248
vt 0.378245 0.991706
vt 0.779933 0.532832
vt 0.781827 0.538682
vt 0.774942 0.536445
vt 0.786082 0.532825
vt 0.774942 0.529206
vt 0.781827 0.526969
vt 0.781373 0.780663
vt 0.781373 0.787902
vt 0.775361 0.784282
vt 0.832527 0.041666
vt 0.826211 0.044418
vt 0.826443 0.037814
vt 0.781211 0.897119
vt 0.780407 0.902976
vt 0.774942 0.900739
vt 0.780407 0.891263
vt 0.774942 0.893500
vt 0.832527 0.097084
vt 0.826211 0.094332
vt 0.832296 0.090480
vt 0.774943 0.778426
vt 0.832527 0.034582
vt 0.826211 0.087248
vt 0.774943 0.790138
vt 0.786082 0.472787
vt 0.786082 0.480026
vt 0.781091 0.476400
vt 0.779197 0.470551
vt 0.774943 0.476407
vt 0.779197 0.482263
vt 0.781091 0.504623
vt 0.774943 0.504616
vt 0.779197 0.498760
vt 0.779197 0.510472
vt 0.786082 0.500997
vt 0.786082 0.508235
vt 0.781373 0.865291
vt 0.781373 0.872530
vt 0.775361 0.868910
vt 0.832527 0.199665
vt 0.826211 0.202417
vt 0.826443 0.195812
vt 0.781211 0.925329
vt 0.780407 0.931185
vt 0.774943 0.928948
vt 0.780407 0.919473
vt 0.774943 0.921709
vt 0.832527 0.149750
vt 0.826211 0.146998
vt 0.832296 0.143146
vt 0.774943 0.863054
vt 0.832527 0.192580
vt 0.826211 0.139914
vt 0.774943 0.874766
vt 0.786082 0.613834
vt 0.786082 0.621073
vt 0.781091 0.617446
vt 0.779197 0.611597
vt 0.774943 0.617453
vt 0.779197 0.623309
vt 0.781091 0.561041
vt 0.774943 0.561035
vt 0.779197 0.555178
vt 0.779197 0.566891
vt 0.786082 0.557415
vt 0.786082 0.564654
vt 0.781373 0.808872
vt 0.781373 0.816111
vt 0.775361 0.812492
vt 0.832527 0.015333
vt 0.826211 0.018085
vt 0.826443 0.011480
vt 0.781212 0.953538
vt 0.780407 0.959394
vt 0.774943 0.957157
vt 0.780407 0.947682
vt 0.774943 0.949919
vt 0.832527 0.070751
vt 0.826211 0.067999
vt 0.832296 0.064147
vt 0.774943 0.806635
vt 0.832527 0.008248
vt 0.826211 0.060915
vt 0.774943 0.818348
vt 0.786082 0.585625
vt 0.786082 0.592863
vt 0.781091 0.589237
vt 0.779197 0.583388
vt 0.774943 0.589244
vt 0.779197 0.595100
vt 0.779933 0.645669
vt 0.781827 0.651519
vt 0.774943 0.649282
vt 0.786082 0.645662
vt 0.774943 0.642043
vt 0.781827 0.639806
vt 0.781373 0.837082
vt 0.781373 0.844320
vt 0.775361 0.840701
vt 0.832527 0.120665
vt 0.826211 0.123417
vt 0.826443 0.116813
vt 0.781212 0.981747
vt 0.780407 0.987603
vt 0.774943 0.985367
vt 0.780407 0.975891
vt 0.774943 0.978128
vt 0.832527 0.176083
vt 0.826211 0.173332
vt 0.832296 0.169479
vt 0.774943 0.834845
vt 0.832527 0.113581
vt 0.826211 0.166247
vt 0.774943 0.846557
vt 0.786082 0.670252
vt 0.786082 0.677491
vt 0.781091 0.673865
vt 0.779197 0.668015
vt 0.774943 0.673872
vt 0.779197 0.679728
s 1
usemtl prop_pagar_kayu_mat
f 1/1/1 2/2/2 4/3/4 3/4/3
f 3/5/3 4/6/4 6/7/6 5/8/5
f 5/8/5 6/7/6 8/9/8 7/10/7
f 7/11/7 8/12/8 10/13/10 9/14/9
f 9/14/9 10/13/10 12/15/12 11/16/11
f 11/17/11 12/18/12 14/19/14 13/20/13
f 4/21/4 2/22/2 16/23/16 14/24/14 12/25/12 10/26/10 8/27/8 6/28/6
f 13/20/13 14/19/14 16/29/16 15/30/15
f 15/31/15 16/32/16 2/2/2 1/1/1
f 1/33/1 3/34/3 5/35/5 7/36/7 9/37/9 11/38/11 13/39/13 15/40/15
f 17/41/17 18/42/18 20/43/20 19/44/19
f 19/45/19 20/46/20 22/47/22 21/48/21
f 21/48/21 22/47/22 24/49/24 23/50/23
f 23/51/23 24/52/24 26/53/26 25/54/25
f 25/54/25 26/53/26 28/55/28 27/56/27
f 27/57/27 28/58/28 30/59/30 29/60/29
f 20/61/20 18/62/18 32/63/32 30/64/30 28/65/28 26/66/26 24/67/24 22/68/22
f 29/60/29 30/59/30 32/69/32 31/70/31
f 31/71/31 32/72/32 18/42/18 17/41/17
f 17/73/17 19/74/19 21/75/21 23/76/23 25/77/25 27/78/27 29/79/29 31/80/31
f 33/81/1 34/82/2 36/83/4 35/84/3
f 35/85/3 36/86/4 38/87/6 37/88/5
f 37/88/5 38/87/6 40/89/8 39/90/7
f 39/91/7 40/92/8 42/93/10 41/94/9
f 41/94/9 42/93/10 44/95/12 43/96/11
f 43/97/11 44/98/12 46/99/14 45/100/13
f 36/101/4 34/102/2 48/103/16 46/104/14 44/105/12 42/106/10 40/107/8 38/108/6
f 45/100/13 46/99/14 48/109/16 47/110/15
f 47/111/15 48/112/16 34/82/2 33/81/1
f 33/113/1 35/114/3 37/115/5 39/116/7 41/117/9 43/118/11 45/119/13 47/120/15
f 49/121/17 50/122/18 52/123/20 51/124/19
f 51/125/19 52/126/20 54/127/22 53/128/21
f 53/128/21 54/127/22 56/129/24 55/130/23
f 55/131/23 56/132/24 58/133/26 57/134/25
f 57/134/25 58/133/26 60/135/28 59/136/27
f 59/137/27 60/138/28 62/139/30 61/140/29
f 52/141/20 50/142/18 64/143/32 62/144/30 60/145/28 58/146/26 56/147/24 54/148/22
f 61/140/29 62/139/30 64/149/32 63/150/31
f 63/151/31 64/152/32 50/122/18 49/121/17
f 49/153/17 51/154/19 53/155/21 55/156/23 57/157/25 59/158/27 61/159/29 63/160/31
f 65/161/1 66/162/2 68/163/4 67/164/3
f 67/165/3 68/166/4 70/167/6 69/168/5
f 69/168/5 70/167/6 72/169/8 71/170/7
f 71/171/7 72/172/8 74/173/10 73/174/9
f 73/174/9 74/173/10 76/175/12 75/176/11
f 75/177/11 76/178/12 78/179/14 77/180/13
f 68/181/4 66/182/2 80/183/16 78/184/14 76/185/12 74/186/10 72/187/8 70/188/6
f 77/180/13 78/179/14 80/189/16 79/190/15
f 79/191/15 80/192/16 66/162/2 65/161/1
f 65/193/1 67/194/3 69/195/5 71/196/7 73/197/9 75/198/11 77/199/13 79/200/15
f 81/201/17 82/202/18 84/203/20 83/204/19
f 83/205/19 84/206/20 86/207/22 85/208/21
f 85/208/21 86/207/22 88/209/24 87/210/23
f 87/211/23 88/212/24 90/213/26 89/214/25
f 89/214/25 90/213/26 92/215/28 91/216/27
f 91/217/27 92/218/28 94/219/30 93/220/29
f 84/221/20 82/222/18 96/223/32 94/224/30 92/225/28 90/226/26 88/227/24 86/228/22
f 93/220/29 94/219/30 96/229/32 95/230/31
f 95/231/31 96/232/32 82/202/18 81/201/17
f 81/233/17 83/234/19 85/235/21 87/236/23 89/237/25 91/238/27 93/239/29 95/240/31
f 97/241/33 98/242/34 100/243/36 99/244/35
f 99/245/35 100/246/36 104/247/40 103/248/39
f 103/249/39 104/250/40 102/251/38 101/252/37
f 101/253/37 102/254/38 98/255/34 97/256/33
f 99/257/35 103/258/39 101/259/37 97/260/33
f 104/261/40 100/262/36 98/263/34 102/264/38
f 105/265/33 106/266/34 108/267/36 107/268/35
f 107/269/35 108/270/36 112/271/40 111/272/39
f 111/273/39 112/274/40 110/275/38 109/276/37
f 109/277/37 110/278/38 106/279/34 105/280/33
f 107/281/35 111/282/39 109/283/37 105/284/33
f 112/285/40 108/286/36 106/287/34 110/288/38
f 113/289/41 114/290/42 115/291/43
f 114/290/42 113/289/41 118/292/46
f 113/289/41 115/291/43 116/293/44
f 113/289/41 116/293/44 117/294/45
f 113/289/41 117/294/45 118/292/46
f 114/295/42 118/296/46 123/297/51
f 115/298/43 114/299/42 119/300/47
f 116/301/44 115/302/43 120/303/48
f 117/304/45 116/301/44 121/305/49
f 118/306/46 117/307/45 122/308/50
f 114/295/42 123/297/51 119/309/47
f 115/298/43 119/300/47 120/310/48
f 116/301/44 120/303/48 121/305/49
f 117/307/45 121/311/49 122/308/50
f 118/296/46 122/312/50 123/297/51
f 119/313/47 123/314/51 124/315/52
f 120/316/48 119/313/47 124/315/52
f 121/317/49 120/316/48 124/315/52
f 122/318/50 121/317/49 124/315/52
f 123/314/51 122/318/50 124/315/52
f 125/319/41 126/320/42 127/321/43
f 126/320/42 125/319/41 130/322/46
f 125/319/41 127/321/43 128/323/44
f 125/319/41 128/323/44 129/324/45
f 125/319/41 129/324/45 130/322/46
f 126/325/42 130/326/46 135/327/51
f 127/328/43 126/329/42 131/330/47
f 128/331/44 127/332/43 132/333/48
f 129/334/45 128/331/44 133/335/49
f 130/336/46 129/337/45 134/338/50
f 126/325/42 135/327/51 131/339/47
f 127/328/43 131/330/47 132/340/48
f 128/331/44 132/333/48 133/335/49
f 129/337/45 133/341/49 134/338/50
f 130/326/46 134/342/50 135/327/51
f 131/343/47 135/344/51 136/345/52
f 132/346/48 131/343/47 136/345/52
f 133/347/49 132/346/48 136/345/52
f 134/348/50 133/347/49 136/345/52
f 135/344/51 134/348/50 136/345/52
f 137/349/41 138/350/42 139/351/43
f 138/350/42 137/349/41 142/352/46
f 137/349/41 139/351/43 140/353/44
f 137/349/41 140/353/44 141/354/45
f 137/349/41 141/354/45 142/352/46
f 138/355/42 142/356/46 147/357/51
f 139/358/43 138/359/42 143/360/47
f 140/361/44 139/362/43 144/363/48
f 141/364/45 140/361/44 145/365/49
f 142/366/46 141/367/45 146/368/50
f 138/355/42 147/357/51 143/369/47
f 139/358/43 143/360/47 144/370/48
f 140/361/44 144/363/48 145/365/49
f 141/367/45 145/371/49 146/368/50
f 142/356/46 146/372/50 147/357/51
f 143/373/47 147/374/51 148/375/52
f 144/376/48 143/373/47 148/375/52
f 145/377/49 144/376/48 148/375/52
f 146/378/50 145/377/49 148/375/52
f 147/374/51 146/378/50 148/375/52
f 149/379/41 150/380/42 151/381/43
f 150/380/42 149/379/41 154/382/46
f 149/379/41 151/381/43 152/383/44
f 149/379/41 152/383/44 153/384/45
f 149/379/41 153/384/45 154/382/46
f 150/385/42 154/386/46 159/387/51
f 151/388/43 150/389/42 155/390/47
f 152/391/44 151/392/43 156/393/48
f 153/394/45 152/391/44 157/395/49
f 154/396/46 153/397/45 158/398/50
f 150/385/42 159/387/51 155/399/47
f 151/388/43 155/390/47 156/400/48
f 152/391/44 156/393/48 157/395/49
f 153/397/45 157/401/49 158/398/50
f 154/386/46 158/402/50 159/387/51
f 155/403/47 159/404/51 160/405/52
f 156/406/48 155/403/47 160/405/52
f 157/407/49 156/406/48 160/405/52
f 158/408/50 157/407/49 160/405/52
f 159/404/51 158/408/50 160/405/52
