# axis-converted-to-Y-up
# Blender 5.1.1
# www.blender.org
mtllib prop_peti_sayur.mtl
o prop_peti_sayur
v 0.280000 0.020000 -0.210000
v 0.280000 0.070000 -0.210000
v 0.280000 0.020000 0.210000
v 0.280000 0.070000 0.210000
v -0.280000 0.020000 -0.210000
v -0.280000 0.070000 -0.210000
v -0.280000 0.020000 0.210000
v -0.280000 0.070000 0.210000
v 0.280000 0.077500 0.182500
v 0.280000 0.162500 0.182500
v 0.280000 0.077500 0.217500
v 0.280000 0.162500 0.217500
v -0.280000 0.077500 0.182500
v -0.280000 0.162500 0.182500
v -0.280000 0.077500 0.217500
v -0.280000 0.162500 0.217500
v 0.280000 0.197500 0.182500
v 0.280000 0.282500 0.182500
v 0.280000 0.197500 0.217500
v 0.280000 0.282500 0.217500
v -0.280000 0.197500 0.182500
v -0.280000 0.282500 0.182500
v -0.280000 0.197500 0.217500
v -0.280000 0.282500 0.217500
v 0.280000 0.317500 0.182500
v 0.280000 0.402500 0.182500
v 0.280000 0.317500 0.217500
v 0.280000 0.402500 0.217500
v -0.280000 0.317500 0.182500
v -0.280000 0.402500 0.182500
v -0.280000 0.317500 0.217500
v -0.280000 0.402500 0.217500
v 0.280000 0.077500 -0.217500
v 0.280000 0.162500 -0.217500
v 0.280000 0.077500 -0.182500
v 0.280000 0.162500 -0.182500
v -0.280000 0.077500 -0.217500
v -0.280000 0.162500 -0.217500
v -0.280000 0.077500 -0.182500
v -0.280000 0.162500 -0.182500
v 0.280000 0.197500 -0.217500
v 0.280000 0.282500 -0.217500
v 0.280000 0.197500 -0.182500
v 0.280000 0.282500 -0.182500
v -0.280000 0.197500 -0.217500
v -0.280000 0.282500 -0.217500
v -0.280000 0.197500 -0.182500
v -0.280000 0.282500 -0.182500
v 0.280000 0.317500 -0.217500
v 0.280000 0.402500 -0.217500
v 0.280000 0.317500 -0.182500
v 0.280000 0.402500 -0.182500
v -0.280000 0.317500 -0.217500
v -0.280000 0.402500 -0.217500
v -0.280000 0.317500 -0.182500
v -0.280000 0.402500 -0.182500
v -0.252500 0.077500 -0.200000
v -0.252500 0.162500 -0.200000
v -0.252500 0.077500 0.200000
v -0.252500 0.162500 0.200000
v -0.287500 0.077500 -0.200000
v -0.287500 0.162500 -0.200000
v -0.287500 0.077500 0.200000
v -0.287500 0.162500 0.200000
v -0.252500 0.197500 -0.200000
v -0.252500 0.282500 -0.200000
v -0.252500 0.197500 0.200000
v -0.252500 0.282500 0.200000
v -0.287500 0.197500 -0.200000
v -0.287500 0.282500 -0.200000
v -0.287500 0.197500 0.200000
v -0.287500 0.282500 0.200000
v -0.252500 0.317500 -0.200000
v -0.252500 0.402500 -0.200000
v -0.252500 0.317500 0.200000
v -0.252500 0.402500 0.200000
v -0.287500 0.317500 -0.200000
v -0.287500 0.402500 -0.200000
v -0.287500 0.317500 0.200000
v -0.287500 0.402500 0.200000
v 0.287500 0.077500 -0.200000
v 0.287500 0.162500 -0.200000
v 0.287500 0.077500 0.200000
v 0.287500 0.162500 0.200000
v 0.252500 0.077500 -0.200000
v 0.252500 0.162500 -0.200000
v 0.252500 0.077500 0.200000
v 0.252500 0.162500 0.200000
v 0.287500 0.197500 -0.200000
v 0.287500 0.282500 -0.200000
v 0.287500 0.197500 0.200000
v 0.287500 0.282500 0.200000
v 0.252500 0.197500 -0.200000
v 0.252500 0.282500 -0.200000
v 0.252500 0.197500 0.200000
v 0.252500 0.282500 0.200000
v 0.287500 0.317500 -0.200000
v 0.287500 0.402500 -0.200000
v 0.287500 0.317500 0.200000
v 0.287500 0.402500 0.200000
v 0.252500 0.317500 -0.200000
v 0.252500 0.402500 -0.200000
v 0.252500 0.317500 0.200000
v 0.252500 0.402500 0.200000
v -0.237500 0.000000 0.167500
v -0.237500 0.420000 0.167500
v -0.237500 0.000000 0.212500
v -0.237500 0.420000 0.212500
v -0.282500 0.000000 0.167500
v -0.282500 0.420000 0.167500
v -0.282500 0.000000 0.212500
v -0.282500 0.420000 0.212500
v -0.237500 0.000000 -0.212500
v -0.237500 0.420000 -0.212500
v -0.237500 0.000000 -0.167500
v -0.237500 0.420000 -0.167500
v -0.282500 0.000000 -0.212500
v -0.282500 0.420000 -0.212500
v -0.282500 0.000000 -0.167500
v -0.282500 0.420000 -0.167500
v 0.282500 0.000000 0.167500
v 0.282500 0.420000 0.167500
v 0.282500 0.000000 0.212500
v 0.282500 0.420000 0.212500
v 0.237500 0.000000 0.167500
v 0.237500 0.420000 0.167500
v 0.237500 0.000000 0.212500
v 0.237500 0.420000 0.212500
v 0.282500 0.000000 -0.212500
v 0.282500 0.420000 -0.212500
v 0.282500 0.000000 -0.167500
v 0.282500 0.420000 -0.167500
v 0.237500 0.000000 -0.212500
v 0.237500 0.420000 -0.212500
v 0.237500 0.000000 -0.167500
v 0.237500 0.420000 -0.167500
v -0.140000 0.325000 -0.000000
v -0.194271 0.366459 -0.039429
v -0.119271 0.366459 -0.063799
v -0.072918 0.366459 -0.000000
v -0.119271 0.366459 0.063799
v -0.194271 0.366459 0.039429
v -0.160729 0.433542 -0.063799
v -0.085729 0.433541 -0.039429
v -0.085729 0.433541 0.039429
v -0.160729 0.433542 0.063799
v -0.207082 0.433541 -0.000000
v -0.140000 0.475000 -0.000000
v -0.127816 0.336201 -0.037500
v -0.171899 0.336201 -0.023176
v -0.159715 0.360570 -0.060676
v -0.203799 0.360570 -0.000000
v -0.171899 0.336201 0.023176
v -0.100570 0.336201 -0.000000
v -0.088386 0.360570 -0.037500
v -0.127816 0.336201 0.037500
v -0.088386 0.360570 0.037500
v -0.159715 0.360570 0.060676
v -0.211329 0.400000 -0.023176
v -0.211329 0.400000 0.023176
v -0.140000 0.400000 -0.075000
v -0.184084 0.400000 -0.060676
v -0.068671 0.400000 -0.023176
v -0.095916 0.400000 -0.060676
v -0.095916 0.400000 0.060676
v -0.068671 0.400000 0.023176
v -0.184084 0.400000 0.060676
v -0.140000 0.400000 0.075000
v -0.191614 0.439430 -0.037500
v -0.120285 0.439430 -0.060676
v -0.076201 0.439430 -0.000000
v -0.120285 0.439430 0.060676
v -0.191614 0.439430 0.037500
v -0.152184 0.463799 -0.037500
v -0.179430 0.463799 -0.000000
v -0.108101 0.463799 -0.023176
v -0.108101 0.463799 0.023176
v -0.152184 0.463799 0.037500
v -0.063503 0.325000 0.098033
v -0.117774 0.366459 0.058603
v -0.042774 0.366459 0.034234
v 0.003579 0.366459 0.098033
v -0.042774 0.366459 0.161831
v -0.117774 0.366459 0.137462
v -0.084233 0.433542 0.034234
v -0.009233 0.433541 0.058603
v -0.009233 0.433541 0.137462
v -0.084233 0.433542 0.161831
v -0.130585 0.433541 0.098033
v -0.063503 0.475000 0.098033
v -0.051319 0.336201 0.060533
v -0.095403 0.336201 0.074857
v -0.083219 0.360570 0.037357
v -0.127302 0.360570 0.098033
v -0.095403 0.336201 0.121209
v -0.024074 0.336201 0.098033
v -0.011889 0.360570 0.060533
v -0.051319 0.336201 0.135532
v -0.011889 0.360570 0.135533
v -0.083219 0.360570 0.158709
v -0.134833 0.400000 0.074857
v -0.134833 0.400000 0.121209
v -0.063503 0.400000 0.023033
v -0.107587 0.400000 0.037357
v 0.007826 0.400000 0.074857
v -0.019420 0.400000 0.037357
v -0.019420 0.400000 0.158709
v 0.007826 0.400000 0.121209
v -0.107587 0.400000 0.158709
v -0.063503 0.400000 0.173033
v -0.115118 0.439430 0.060533
v -0.043788 0.439430 0.037357
v 0.000295 0.439430 0.098033
v -0.043788 0.439430 0.158709
v -0.115118 0.439430 0.135533
v -0.075688 0.463799 0.060533
v -0.102933 0.463799 0.098033
v -0.031604 0.463799 0.074857
v -0.031604 0.463799 0.121209
v -0.075688 0.463799 0.135532
v 0.082390 0.325000 0.088935
v 0.028120 0.366459 0.049505
v 0.103119 0.366459 0.025136
v 0.149472 0.366459 0.088935
v 0.103119 0.366459 0.152733
v 0.028120 0.366459 0.128364
v 0.061661 0.433542 0.025136
v 0.136661 0.433541 0.049505
v 0.136661 0.433541 0.128364
v 0.061661 0.433542 0.152733
v 0.015308 0.433541 0.088935
v 0.082390 0.475000 0.088935
v 0.094574 0.336201 0.051435
v 0.050491 0.336201 0.065759
v 0.062675 0.360570 0.028259
v 0.018592 0.360570 0.088935
v 0.050491 0.336201 0.112110
v 0.121820 0.336201 0.088935
v 0.134004 0.360570 0.051435
v 0.094574 0.336201 0.126434
v 0.134004 0.360570 0.126434
v 0.062675 0.360570 0.149610
v 0.011061 0.400000 0.065759
v 0.011061 0.400000 0.112111
v 0.082390 0.400000 0.013935
v 0.038306 0.400000 0.028258
v 0.153720 0.400000 0.065759
v 0.126474 0.400000 0.028258
v 0.126474 0.400000 0.149611
v 0.153720 0.400000 0.112111
v 0.038306 0.400000 0.149611
v 0.082390 0.400000 0.163935
v 0.030776 0.439430 0.051435
v 0.102105 0.439430 0.028259
v 0.146189 0.439430 0.088935
v 0.102105 0.439430 0.149610
v 0.030776 0.439430 0.126434
v 0.070206 0.463799 0.051435
v 0.042960 0.463799 0.088935
v 0.114289 0.463799 0.065759
v 0.114289 0.463799 0.112110
v 0.070206 0.463799 0.126434
v 0.138247 0.325000 -0.017352
v 0.083977 0.366459 -0.056781
v 0.158976 0.366459 -0.081151
v 0.205329 0.366459 -0.017352
v 0.158976 0.366459 0.046447
v 0.083977 0.366459 0.022077
v 0.117518 0.433542 -0.081151
v 0.192518 0.433541 -0.056781
v 0.192518 0.433541 0.022077
v 0.117518 0.433542 0.046447
v 0.071165 0.433541 -0.017352
v 0.138247 0.475000 -0.017352
v 0.150431 0.336201 -0.054852
v 0.106348 0.336201 -0.040528
v 0.118532 0.360570 -0.078028
v 0.074449 0.360570 -0.017352
v 0.106348 0.336201 0.005824
v 0.177677 0.336201 -0.017352
v 0.189861 0.360570 -0.054852
v 0.150431 0.336201 0.020148
v 0.189861 0.360570 0.020148
v 0.118532 0.360570 0.043324
v 0.066918 0.400000 -0.040528
v 0.066918 0.400000 0.005824
v 0.138247 0.400000 -0.092352
v 0.094163 0.400000 -0.078028
v 0.209577 0.400000 -0.040528
v 0.182331 0.400000 -0.078028
v 0.182331 0.400000 0.043324
v 0.209577 0.400000 0.005824
v 0.094163 0.400000 0.043324
v 0.138247 0.400000 0.057648
v 0.086633 0.439430 -0.054852
v 0.157962 0.439430 -0.078028
v 0.202046 0.439430 -0.017352
v 0.157962 0.439430 0.043324
v 0.086633 0.439430 0.020148
v 0.126063 0.463799 -0.054852
v 0.098817 0.463799 -0.017352
v 0.170146 0.463799 -0.040528
v 0.170146 0.463799 0.005824
v 0.126063 0.463799 0.020148
v 0.043027 0.325000 -0.104676
v -0.011244 0.366459 -0.144106
v 0.063756 0.366459 -0.168475
v 0.110109 0.366459 -0.104676
v 0.063756 0.366459 -0.040878
v -0.011244 0.366459 -0.065247
v 0.022297 0.433542 -0.168475
v 0.097297 0.433541 -0.144106
v 0.097297 0.433541 -0.065247
v 0.022297 0.433542 -0.040878
v -0.024055 0.433541 -0.104676
v 0.043027 0.475000 -0.104676
v 0.055211 0.336201 -0.142176
v 0.011127 0.336201 -0.127852
v 0.023311 0.360570 -0.165352
v -0.020772 0.360570 -0.104676
v 0.011127 0.336201 -0.081500
v 0.082456 0.336201 -0.104676
v 0.094641 0.360570 -0.142176
v 0.055211 0.336201 -0.067177
v 0.094641 0.360570 -0.067176
v 0.023311 0.360570 -0.044000
v -0.028303 0.400000 -0.127852
v -0.028303 0.400000 -0.081500
v 0.043027 0.400000 -0.179676
v -0.001057 0.400000 -0.165352
v 0.114356 0.400000 -0.127852
v 0.087111 0.400000 -0.165352
v 0.087111 0.400000 -0.044000
v 0.114356 0.400000 -0.081500
v -0.001057 0.400000 -0.044000
v 0.043027 0.400000 -0.029676
v -0.008588 0.439430 -0.142176
v 0.062742 0.439430 -0.165352
v 0.106825 0.439430 -0.104676
v 0.062742 0.439430 -0.044000
v -0.008588 0.439430 -0.067176
v 0.030842 0.463799 -0.142176
v 0.003597 0.463799 -0.104676
v 0.074926 0.463799 -0.127852
v 0.074926 0.463799 -0.081500
v 0.030842 0.463799 -0.067177
v -0.099214 0.325000 -0.077609
v -0.153484 0.366459 -0.117039
v -0.078485 0.366459 -0.141408
v -0.032132 0.366459 -0.077609
v -0.078485 0.366459 -0.013811
v -0.153484 0.366459 -0.038180
v -0.119943 0.433542 -0.141408
v -0.044943 0.433541 -0.117039
v -0.044943 0.433541 -0.038180
v -0.119943 0.433542 -0.013811
v -0.166296 0.433541 -0.077609
v -0.099214 0.475000 -0.077609
v -0.087030 0.336201 -0.115109
v -0.131113 0.336201 -0.100785
v -0.118929 0.360570 -0.138285
v -0.163012 0.360570 -0.077609
v -0.131113 0.336201 -0.054434
v -0.059784 0.336201 -0.077609
v -0.047600 0.360570 -0.115109
v -0.087030 0.336201 -0.040110
v -0.047600 0.360570 -0.040110
v -0.118929 0.360570 -0.016934
v -0.170543 0.400000 -0.100785
v -0.170543 0.400000 -0.054433
v -0.099214 0.400000 -0.152609
v -0.143298 0.400000 -0.138286
v -0.027884 0.400000 -0.100785
v -0.055130 0.400000 -0.138286
v -0.055130 0.400000 -0.016933
v -0.027884 0.400000 -0.054433
v -0.143298 0.400000 -0.016933
v -0.099214 0.400000 -0.002609
v -0.150828 0.439430 -0.115109
v -0.079499 0.439430 -0.138285
v -0.035415 0.439430 -0.077609
v -0.079499 0.439430 -0.016934
v -0.150828 0.439430 -0.040110
v -0.111398 0.463799 -0.115109
v -0.138644 0.463799 -0.077609
v -0.067315 0.463799 -0.100785
v -0.067315 0.463799 -0.054434
v -0.111398 0.463799 -0.040110
vn 0.577400 -0.577400 -0.577400
vn 0.577400 0.577400 -0.577400
vn 0.577400 -0.577400 0.577400
vn 0.577400 0.577400 0.577400
vn -0.577400 -0.577400 -0.577400
vn -0.577400 0.577400 -0.577400
vn -0.577400 -0.577400 0.577400
vn -0.577400 0.577400 0.577400
vn -0.000000 -1.000000 0.000000
vn -0.723600 -0.447200 -0.525700
vn 0.276400 -0.447200 -0.850600
vn 0.894400 -0.447200 0.000000
vn 0.276400 -0.447200 0.850600
vn -0.723600 -0.447200 0.525700
vn -0.276400 0.447200 -0.850600
vn 0.723600 0.447200 -0.525700
vn 0.723600 0.447200 0.525700
vn -0.276400 0.447200 0.850600
vn -0.894400 0.447200 0.000000
vn -0.000000 1.000000 0.000000
vn 0.162500 -0.850700 -0.500000
vn -0.425300 -0.850700 -0.309000
vn -0.262900 -0.525700 -0.809000
vn -0.850600 -0.525700 0.000000
vn -0.425300 -0.850700 0.309000
vn 0.525700 -0.850700 0.000000
vn 0.688200 -0.525700 -0.500000
vn 0.162500 -0.850700 0.500000
vn 0.688200 -0.525700 0.500000
vn -0.262900 -0.525700 0.809000
vn -0.951100 -0.000000 -0.309000
vn -0.951100 -0.000000 0.309000
vn -0.000000 -0.000000 -1.000000
vn -0.587800 -0.000000 -0.809000
vn 0.951100 -0.000000 -0.309000
vn 0.587800 -0.000000 -0.809000
vn 0.587800 -0.000000 0.809000
vn 0.951100 -0.000000 0.309000
vn -0.587800 -0.000000 0.809000
vn -0.000000 -0.000000 1.000000
vn -0.688200 0.525700 -0.500000
vn 0.262900 0.525700 -0.809000
vn 0.850600 0.525700 0.000000
vn 0.262900 0.525700 0.809000
vn -0.688200 0.525700 0.500000
vn -0.162500 0.850700 -0.500000
vn -0.525700 0.850700 0.000000
vn 0.425300 0.850700 -0.309000
vn 0.425300 0.850700 0.309000
vn -0.162500 0.850700 0.500000
vt 0.583757 0.737459
vt 0.565560 0.737459
vt 0.565560 0.584605
vt 0.583757 0.584605
vt 0.539946 0.446032
vt 0.521749 0.446032
vt 0.521749 0.242227
vt 0.539946 0.242227
vt 0.773003 0.165661
vt 0.754807 0.165661
vt 0.754807 0.012807
vt 0.773003 0.012807
vt 0.557588 0.216612
vt 0.539391 0.216612
vt 0.539391 0.012807
vt 0.557588 0.012807
vt 0.165661 0.012807
vt 0.165661 0.216612
vt 0.012807 0.216612
vt 0.012807 0.012807
vt 0.344129 0.012807
vt 0.344129 0.216612
vt 0.191275 0.216612
vt 0.191275 0.012807
vt 0.560101 0.975241
vt 0.560101 0.944307
vt 0.572839 0.944307
vt 0.572839 0.975241
vt 0.439586 0.446032
vt 0.408651 0.446032
vt 0.408651 0.242227
vt 0.439586 0.242227
vt 0.962055 0.329709
vt 0.962055 0.298775
vt 0.974793 0.298775
vt 0.974793 0.329709
vt 0.457227 0.216612
vt 0.426293 0.216612
vt 0.426293 0.012807
vt 0.457227 0.012807
vt 0.634846 0.242227
vt 0.634846 0.446032
vt 0.622109 0.446032
vt 0.622109 0.242227
vt 0.652488 0.012807
vt 0.652488 0.216612
vt 0.639750 0.216612
vt 0.639750 0.012807
vt 0.958416 0.677821
vt 0.958416 0.646887
vt 0.971154 0.646887
vt 0.971154 0.677821
vt 0.400678 0.216612
vt 0.369744 0.216612
vt 0.369744 0.012807
vt 0.400678 0.012807
vt 0.962055 0.386257
vt 0.962055 0.355323
vt 0.974793 0.355323
vt 0.974793 0.386257
vt 0.043742 0.446032
vt 0.012807 0.446032
vt 0.012807 0.242227
vt 0.043742 0.242227
vt 0.673199 0.242227
vt 0.673199 0.446032
vt 0.660461 0.446032
vt 0.660461 0.242227
vt 0.534487 0.471646
vt 0.534487 0.675451
vt 0.521749 0.675451
vt 0.521749 0.471646
vt 0.598453 0.975241
vt 0.598453 0.944307
vt 0.611191 0.944307
vt 0.611191 0.975241
vt 0.213389 0.446032
vt 0.182455 0.446032
vt 0.182455 0.242227
vt 0.213389 0.242227
vt 0.211745 0.980838
vt 0.211745 0.949904
vt 0.224482 0.949904
vt 0.224482 0.980838
vt 0.269938 0.446032
vt 0.239004 0.446032
vt 0.239004 0.242227
vt 0.269938 0.242227
vt 0.634846 0.471646
vt 0.634846 0.675451
vt 0.622109 0.675451
vt 0.622109 0.471646
vt 0.673199 0.471646
vt 0.673199 0.675451
vt 0.660461 0.675451
vt 0.660461 0.471646
vt 0.974455 0.808565
vt 0.974455 0.777631
vt 0.987193 0.777631
vt 0.987193 0.808565
vt 0.496135 0.446032
vt 0.465200 0.446032
vt 0.465200 0.242227
vt 0.496135 0.242227
vt 0.660461 0.974888
vt 0.660461 0.943954
vt 0.673199 0.943954
vt 0.673199 0.974888
vt 0.513776 0.216612
vt 0.482842 0.216612
vt 0.482842 0.012807
vt 0.513776 0.012807
vt 0.690840 0.012807
vt 0.690840 0.216612
vt 0.678103 0.216612
vt 0.678103 0.012807
vt 0.711551 0.242227
vt 0.711551 0.446032
vt 0.698813 0.446032
vt 0.698813 0.242227
vt 0.962055 0.273161
vt 0.962055 0.242227
vt 0.974793 0.242227
vt 0.974793 0.273161
vt 0.100291 0.446032
vt 0.069356 0.446032
vt 0.069356 0.242227
vt 0.100291 0.242227
vt 0.521749 0.975241
vt 0.521749 0.944307
vt 0.534487 0.944307
vt 0.534487 0.975241
vt 0.156840 0.446032
vt 0.125905 0.446032
vt 0.125905 0.242227
vt 0.156840 0.242227
vt 0.711551 0.471646
vt 0.711551 0.675451
vt 0.698813 0.675451
vt 0.698813 0.471646
vt 0.729193 0.012807
vt 0.729193 0.216612
vt 0.716455 0.216612
vt 0.716455 0.012807
vt 0.974455 0.865113
vt 0.974455 0.834179
vt 0.987193 0.834179
vt 0.987193 0.865113
vt 0.326487 0.446032
vt 0.295553 0.446032
vt 0.295553 0.242227
vt 0.326487 0.242227
vt 0.974455 0.921661
vt 0.974455 0.890728
vt 0.987193 0.890728
vt 0.987193 0.921661
vt 0.383037 0.446032
vt 0.352102 0.446032
vt 0.352102 0.242227
vt 0.383037 0.242227
vt 0.749903 0.242227
vt 0.749903 0.446032
vt 0.737165 0.446032
vt 0.737165 0.242227
vt 0.749903 0.471646
vt 0.749903 0.675451
vt 0.737165 0.675451
vt 0.737165 0.471646
vt 0.213387 0.617221
vt 0.182453 0.617221
vt 0.182453 0.471646
vt 0.213387 0.471646
vt 0.724663 0.903189
vt 0.724663 0.872255
vt 0.737401 0.872255
vt 0.737401 0.903189
vt 0.439585 0.617221
vt 0.408651 0.617221
vt 0.408651 0.471646
vt 0.439585 0.471646
vt 0.211745 0.924290
vt 0.211745 0.893355
vt 0.224482 0.893355
vt 0.224482 0.924290
vt 0.830247 0.566266
vt 0.817509 0.566266
vt 0.817509 0.420691
vt 0.830247 0.420691
vt 0.830247 0.737455
vt 0.817509 0.737455
vt 0.817509 0.591880
vt 0.830247 0.591880
vt 0.596494 0.387802
vt 0.565560 0.387802
vt 0.565560 0.242227
vt 0.596494 0.242227
vt 0.583202 0.214931
vt 0.583202 0.183997
vt 0.595940 0.183997
vt 0.595940 0.214931
vt 0.596494 0.558991
vt 0.565560 0.558991
vt 0.565560 0.413416
vt 0.596494 0.413416
vt 0.565560 0.794008
vt 0.565560 0.763074
vt 0.578298 0.763074
vt 0.578298 0.794008
vt 0.534487 0.846640
vt 0.521749 0.846640
vt 0.521749 0.701065
vt 0.534487 0.701065
vt 0.634846 0.846640
vt 0.622109 0.846640
vt 0.622109 0.701065
vt 0.634846 0.701065
vt 0.614136 0.158382
vt 0.583202 0.158382
vt 0.583202 0.012807
vt 0.614136 0.012807
vt 0.958416 0.451625
vt 0.958416 0.420691
vt 0.971154 0.420691
vt 0.971154 0.451625
vt 0.043741 0.617221
vt 0.012807 0.617221
vt 0.012807 0.471646
vt 0.043741 0.471646
vt 0.958416 0.508174
vt 0.958416 0.477240
vt 0.971154 0.477240
vt 0.971154 0.508174
vt 0.673199 0.846640
vt 0.660461 0.846640
vt 0.660461 0.701065
vt 0.673199 0.701065
vt 0.711551 0.846640
vt 0.698813 0.846640
vt 0.698813 0.701065
vt 0.711551 0.701065
vt 0.496133 0.617221
vt 0.465199 0.617221
vt 0.465199 0.471646
vt 0.496133 0.471646
vt 0.724663 0.959739
vt 0.724663 0.928804
vt 0.737401 0.928804
vt 0.737401 0.959739
vt 0.269935 0.617221
vt 0.239001 0.617221
vt 0.239001 0.471646
vt 0.269935 0.471646
vt 0.957916 0.738420
vt 0.957916 0.707486
vt 0.970654 0.707486
vt 0.970654 0.738420
vt 0.749903 0.846640
vt 0.737165 0.846640
vt 0.737165 0.701065
vt 0.749903 0.701065
vt 0.853347 0.158382
vt 0.840609 0.158382
vt 0.840609 0.012807
vt 0.853347 0.012807
vt 0.326487 0.617221
vt 0.295553 0.617221
vt 0.295553 0.471646
vt 0.326487 0.471646
vt 0.840609 0.214931
vt 0.840609 0.183997
vt 0.853347 0.183997
vt 0.853347 0.214931
vt 0.383036 0.617221
vt 0.352102 0.617221
vt 0.352102 0.471646
vt 0.383036 0.471646
vt 0.878962 0.214931
vt 0.878962 0.183997
vt 0.891699 0.183997
vt 0.891699 0.214931
vt 0.868599 0.566266
vt 0.855861 0.566266
vt 0.855861 0.420691
vt 0.868599 0.420691
vt 0.868599 0.737455
vt 0.855861 0.737455
vt 0.855861 0.591880
vt 0.868599 0.591880
vt 0.100290 0.617221
vt 0.069356 0.617221
vt 0.069356 0.471646
vt 0.100290 0.471646
vt 0.958416 0.564723
vt 0.958416 0.533789
vt 0.971154 0.533789
vt 0.971154 0.564723
vt 0.156838 0.617221
vt 0.125905 0.617221
vt 0.125905 0.471646
vt 0.156838 0.471646
vt 0.958416 0.621273
vt 0.958416 0.590338
vt 0.971154 0.590338
vt 0.971154 0.621273
vt 0.872239 0.387802
vt 0.859501 0.387802
vt 0.859501 0.242227
vt 0.872239 0.242227
vt 0.891699 0.158382
vt 0.878962 0.158382
vt 0.878962 0.012807
vt 0.891699 0.012807
vt 0.251879 0.795685
vt 0.251879 0.642835
vt 0.268257 0.642835
vt 0.268257 0.795685
vt 0.775518 0.395080
vt 0.775518 0.242227
vt 0.791895 0.242227
vt 0.791895 0.395080
vt 0.421528 0.795685
vt 0.421528 0.642835
vt 0.437905 0.642835
vt 0.437905 0.795685
vt 0.775518 0.573549
vt 0.775518 0.420695
vt 0.791895 0.420695
vt 0.791895 0.573549
vt 0.771184 0.191275
vt 0.771184 0.207653
vt 0.754807 0.207653
vt 0.754807 0.191275
vt 0.813176 0.191275
vt 0.813176 0.207653
vt 0.796799 0.207653
vt 0.796799 0.191275
vt 0.295553 0.795685
vt 0.295553 0.642835
vt 0.311930 0.642835
vt 0.311930 0.795685
vt 0.775518 0.752017
vt 0.775518 0.599163
vt 0.791895 0.599163
vt 0.791895 0.752017
vt 0.465199 0.795685
vt 0.465199 0.642835
vt 0.481576 0.642835
vt 0.481576 0.795685
vt 0.012807 0.795689
vt 0.012807 0.642835
vt 0.029184 0.642835
vt 0.029184 0.795689
vt 0.581938 0.819623
vt 0.581938 0.836000
vt 0.565560 0.836000
vt 0.565560 0.819623
vt 0.029184 0.963304
vt 0.029184 0.979681
vt 0.012807 0.979681
vt 0.012807 0.963304
vt 0.337544 0.795685
vt 0.337544 0.642835
vt 0.353922 0.642835
vt 0.353922 0.795685
vt 0.069356 0.795689
vt 0.069356 0.642835
vt 0.085733 0.642835
vt 0.085733 0.795689
vt 0.798618 0.165657
vt 0.798618 0.012807
vt 0.814995 0.012807
vt 0.814995 0.165657
vt 0.125905 0.795689
vt 0.125905 0.642835
vt 0.142282 0.642835
vt 0.142282 0.795689
vt 0.071176 0.963304
vt 0.071176 0.979681
vt 0.054799 0.979681
vt 0.054799 0.963304
vt 0.113168 0.963304
vt 0.113168 0.979681
vt 0.096790 0.979681
vt 0.096790 0.963304
vt 0.379536 0.795685
vt 0.379536 0.642835
vt 0.395913 0.642835
vt 0.395913 0.795685
vt 0.167896 0.795689
vt 0.167896 0.642835
vt 0.184273 0.642835
vt 0.184273 0.795689
vt 0.817509 0.395076
vt 0.817509 0.242227
vt 0.833886 0.242227
vt 0.833886 0.395076
vt 0.209888 0.795689
vt 0.209888 0.642835
vt 0.226265 0.642835
vt 0.226265 0.795689
vt 0.164419 0.963304
vt 0.164419 0.979681
vt 0.148042 0.979681
vt 0.148042 0.963304
vt 0.471109 0.964697
vt 0.471109 0.981074
vt 0.454732 0.981074
vt 0.454732 0.964697
vt 0.342716 0.844518
vt 0.331106 0.836084
vt 0.347150 0.830871
vt 0.050392 0.916608
vt 0.050895 0.929150
vt 0.039088 0.925698
vt 0.357065 0.844518
vt 0.347150 0.858166
vt 0.331106 0.852953
vt 0.039088 0.909035
vt 0.482009 0.856266
vt 0.467377 0.858943
vt 0.474026 0.844342
vt 0.089343 0.928257
vt 0.076510 0.923161
vt 0.088243 0.913470
vt 0.671772 0.907222
vt 0.660461 0.908954
vt 0.663722 0.894713
vt 0.699049 0.908215
vt 0.686403 0.909899
vt 0.695788 0.895881
vt 0.050895 0.902190
vt 0.490059 0.843758
vt 0.102791 0.922010
vt 0.679755 0.895297
vt 0.025641 0.931136
vt 0.012807 0.924547
vt 0.024540 0.917575
vt 0.806280 0.777631
vt 0.817521 0.787202
vt 0.803171 0.787202
vt 0.778985 0.786500
vt 0.791561 0.778768
vt 0.787127 0.792415
vt 0.114095 0.914438
vt 0.102791 0.905347
vt 0.114598 0.901895
vt 0.687738 0.883373
vt 0.673107 0.880695
vt 0.685031 0.872255
vt 0.025641 0.902788
vt 0.012807 0.907884
vt 0.020104 0.893355
vt 0.813086 0.800850
vt 0.803171 0.814497
vt 0.798736 0.800850
vt 0.817521 0.814497
vt 0.806280 0.824068
vt 0.787127 0.809284
vt 0.791561 0.822932
vt 0.778985 0.815200
vt 0.775518 0.800850
vt 0.089344 0.899909
vt 0.100050 0.893355
vt 0.480674 0.829740
vt 0.466042 0.832417
vt 0.468750 0.821299
vt 0.036347 0.894067
vt 0.699049 0.881640
vt 0.660461 0.882380
vt 0.493320 0.831424
vt 0.457992 0.844925
vt 0.454732 0.830684
vt 0.114598 0.928855
vt 0.100049 0.936978
vt 0.076510 0.906499
vt 0.493320 0.857999
vt 0.454732 0.857259
vt 0.335540 0.866600
vt 0.322964 0.858868
vt 0.674479 0.918339
vt 0.361500 0.858166
vt 0.350260 0.867737
vt 0.083807 0.937690
vt 0.361500 0.830871
vt 0.350260 0.821299
vt 0.036347 0.937690
vt 0.319497 0.844518
vt 0.479302 0.867384
vt 0.335540 0.822436
vt 0.322964 0.830168
vt 0.410333 0.844518
vt 0.398724 0.836084
vt 0.414767 0.830871
vt 0.936007 0.815411
vt 0.925301 0.821965
vt 0.922559 0.809973
vt 0.424683 0.844518
vt 0.414767 0.858166
vt 0.398724 0.852953
vt 0.937108 0.801850
vt 0.921491 0.599055
vt 0.906859 0.601732
vt 0.913507 0.587130
vt 0.907047 0.742388
vt 0.894214 0.737291
vt 0.905946 0.727601
vt 0.905524 0.670754
vt 0.894214 0.672486
vt 0.897474 0.658246
vt 0.932801 0.671747
vt 0.920156 0.673431
vt 0.929541 0.659413
vt 0.948840 0.808822
vt 0.929541 0.586547
vt 0.920495 0.736140
vt 0.913508 0.658829
vt 0.911256 0.800883
vt 0.910753 0.786465
vt 0.922559 0.793311
vt 0.043570 0.821304
vt 0.054810 0.830875
vt 0.040460 0.830875
vt 0.016275 0.830172
vt 0.028851 0.822440
vt 0.024417 0.836088
vt 0.931798 0.728568
vt 0.920495 0.719478
vt 0.932302 0.716025
vt 0.921491 0.646905
vt 0.906859 0.644227
vt 0.918783 0.635787
vt 0.936007 0.787064
vt 0.925301 0.778342
vt 0.941544 0.777631
vt 0.050376 0.844522
vt 0.040460 0.858170
vt 0.036026 0.844522
vt 0.054810 0.858170
vt 0.043570 0.867741
vt 0.024417 0.852957
vt 0.028851 0.866605
vt 0.016275 0.858872
vt 0.012807 0.844522
vt 0.907048 0.714040
vt 0.917754 0.707486
vt 0.920156 0.572529
vt 0.905524 0.575206
vt 0.908231 0.564088
vt 0.948841 0.792160
vt 0.932801 0.645172
vt 0.894214 0.645912
vt 0.932801 0.574213
vt 0.897474 0.587714
vt 0.894213 0.573473
vt 0.932302 0.742986
vt 0.917753 0.751109
vt 0.894214 0.720629
vt 0.932801 0.600788
vt 0.894213 0.600048
vt 0.403158 0.866600
vt 0.390582 0.858868
vt 0.908231 0.681871
vt 0.429117 0.858166
vt 0.417877 0.867737
vt 0.901511 0.751820
vt 0.429117 0.830871
vt 0.417877 0.821299
vt 0.910753 0.813426
vt 0.387114 0.844518
vt 0.918783 0.610173
vt 0.403158 0.822436
vt 0.390582 0.830168
vt 0.103643 0.844522
vt 0.092034 0.836088
vt 0.108078 0.830875
vt 0.948337 0.872935
vt 0.948841 0.885478
vt 0.937034 0.882025
vt 0.117993 0.844522
vt 0.108078 0.858170
vt 0.092034 0.852957
vt 0.937034 0.865363
vt 0.925130 0.277193
vt 0.910499 0.279871
vt 0.917147 0.265269
vt 0.930147 0.047709
vt 0.917314 0.042613
vt 0.929047 0.032922
vt 0.909164 0.348892
vt 0.897853 0.350625
vt 0.901114 0.336384
vt 0.936441 0.349885
vt 0.923795 0.351569
vt 0.933180 0.337551
vt 0.948841 0.858517
vt 0.933180 0.264685
vt 0.943595 0.041462
vt 0.917147 0.336968
vt 0.923586 0.887463
vt 0.910753 0.880874
vt 0.922485 0.873902
vt 0.178805 0.821304
vt 0.190045 0.830875
vt 0.175695 0.830875
vt 0.151510 0.830172
vt 0.164086 0.822440
vt 0.159651 0.836088
vt 0.954899 0.033889
vt 0.943595 0.024799
vt 0.955402 0.021347
vt 0.925130 0.325043
vt 0.910499 0.322366
vt 0.922423 0.313925
vt 0.923586 0.859115
vt 0.910753 0.864211
vt 0.918050 0.849683
vt 0.185611 0.844522
vt 0.175695 0.858170
vt 0.171261 0.844522
vt 0.190045 0.858170
vt 0.178805 0.867741
vt 0.159651 0.852957
vt 0.164086 0.866605
vt 0.151510 0.858872
vt 0.148042 0.844522
vt 0.930148 0.019361
vt 0.940854 0.012807
vt 0.923795 0.250667
vt 0.909164 0.253344
vt 0.911871 0.242227
vt 0.934292 0.850394
vt 0.936441 0.323310
vt 0.897853 0.324050
vt 0.936441 0.252351
vt 0.901114 0.265852
vt 0.897853 0.251612
vt 0.955402 0.048307
vt 0.940853 0.056430
vt 0.917314 0.025950
vt 0.936441 0.278926
vt 0.897853 0.278186
vt 0.096468 0.866605
vt 0.083892 0.858872
vt 0.911871 0.360010
vt 0.122428 0.858170
vt 0.111187 0.867741
vt 0.924611 0.057141
vt 0.122428 0.830875
vt 0.111187 0.821304
vt 0.934292 0.894017
vt 0.080425 0.844522
vt 0.922423 0.288311
vt 0.096468 0.822440
vt 0.083892 0.830172
vt 0.866354 0.800850
vt 0.854744 0.792415
vt 0.870788 0.787202
vt 0.954899 0.106008
vt 0.955402 0.118551
vt 0.943595 0.115098
vt 0.880704 0.800850
vt 0.870788 0.814497
vt 0.854744 0.809284
vt 0.943595 0.098436
vt 0.482009 0.927965
vt 0.467377 0.930642
vt 0.474026 0.916040
vt 0.930147 0.187606
vt 0.917314 0.182510
vt 0.929047 0.172819
vt 0.398425 0.928318
vt 0.387114 0.930051
vt 0.390375 0.915810
vt 0.425702 0.929311
vt 0.413056 0.930995
vt 0.422441 0.916977
vt 0.955402 0.091590
vt 0.490059 0.915457
vt 0.943595 0.181359
vt 0.406408 0.916394
vt 0.930148 0.120536
vt 0.917314 0.113947
vt 0.929047 0.106975
vt 0.806280 0.849683
vt 0.817521 0.859254
vt 0.803171 0.859254
vt 0.778985 0.858552
vt 0.791561 0.850819
vt 0.787127 0.864467
vt 0.954899 0.173787
vt 0.943595 0.164696
vt 0.955402 0.161244
vt 0.414391 0.904469
vt 0.399760 0.901792
vt 0.411684 0.893351
vt 0.930147 0.092188
vt 0.917314 0.097285
vt 0.924611 0.082756
vt 0.813086 0.872902
vt 0.803171 0.886549
vt 0.798736 0.872902
vt 0.817521 0.886549
vt 0.806280 0.896120
vt 0.787127 0.881336
vt 0.791561 0.894984
vt 0.778985 0.887251
vt 0.775518 0.872902
vt 0.930148 0.159258
vt 0.940854 0.152704
vt 0.480674 0.901439
vt 0.466042 0.904116
vt 0.468750 0.892998
vt 0.940853 0.083467
vt 0.425702 0.902736
vt 0.387114 0.903476
vt 0.493320 0.903123
vt 0.457992 0.916624
vt 0.454732 0.902383
vt 0.955402 0.188204
vt 0.940853 0.196327
vt 0.917314 0.165848
vt 0.493320 0.929698
vt 0.454732 0.928958
vt 0.859179 0.822932
vt 0.846603 0.815200
vt 0.401132 0.939436
vt 0.885138 0.814497
vt 0.873898 0.824068
vt 0.924611 0.197039
vt 0.885138 0.787202
vt 0.873898 0.777631
vt 0.940854 0.127090
vt 0.843135 0.800850
vt 0.479302 0.939083
vt 0.859179 0.778768
vt 0.846603 0.786500
vt 0.275098 0.844518
vt 0.263489 0.836084
vt 0.279532 0.830871
vt 0.800772 0.959515
vt 0.790066 0.966069
vt 0.787324 0.954077
vt 0.289448 0.844518
vt 0.279532 0.858166
vt 0.263489 0.852953
vt 0.801873 0.945954
vt 0.921491 0.455657
vt 0.906859 0.458335
vt 0.913508 0.443733
vt 0.173296 0.928257
vt 0.162591 0.936978
vt 0.159849 0.922010
vt 0.905524 0.527356
vt 0.894213 0.529089
vt 0.897474 0.514848
vt 0.932801 0.528349
vt 0.920156 0.530033
vt 0.929541 0.516015
vt 0.813606 0.952926
vt 0.929541 0.443149
vt 0.174397 0.913470
vt 0.913507 0.515432
vt 0.776021 0.944987
vt 0.775518 0.930569
vt 0.787325 0.937415
vt 0.873898 0.849683
vt 0.885138 0.859254
vt 0.870788 0.859254
vt 0.846603 0.858552
vt 0.859179 0.850819
vt 0.854744 0.864467
vt 0.173296 0.899909
vt 0.159849 0.905347
vt 0.162590 0.893355
vt 0.921491 0.503507
vt 0.906859 0.500830
vt 0.918783 0.492389
vt 0.800772 0.931167
vt 0.790066 0.922446
vt 0.806309 0.921735
vt 0.880704 0.872902
vt 0.870788 0.886549
vt 0.866354 0.872902
vt 0.885138 0.886549
vt 0.873898 0.896120
vt 0.854744 0.881336
vt 0.859179 0.894984
vt 0.846603 0.887251
vt 0.843135 0.872902
vt 0.148545 0.914438
vt 0.148042 0.901895
vt 0.920156 0.429131
vt 0.905524 0.431808
vt 0.908232 0.420691
vt 0.813606 0.936263
vt 0.932801 0.501774
vt 0.894213 0.502514
vt 0.932801 0.430815
vt 0.897474 0.444316
vt 0.894214 0.430076
vt 0.186130 0.906499
vt 0.186130 0.923161
vt 0.148042 0.928855
vt 0.932801 0.457390
vt 0.894214 0.456650
vt 0.267923 0.866600
vt 0.255347 0.858868
vt 0.908231 0.538474
vt 0.293882 0.858166
vt 0.282642 0.867737
vt 0.178833 0.937690
vt 0.293882 0.830871
vt 0.282642 0.821299
vt 0.775518 0.957530
vt 0.251879 0.844518
vt 0.918784 0.466775
vt 0.267923 0.822436
vt 0.255347 0.830168
vt 0.544968 0.895474
vt 0.533358 0.887039
vt 0.549402 0.881826
vt 0.876805 0.944987
vt 0.877308 0.957530
vt 0.865501 0.954077
vt 0.559318 0.895474
vt 0.549402 0.909121
vt 0.533358 0.903908
vt 0.865501 0.937415
vt 0.279156 0.928318
vt 0.264525 0.930995
vt 0.271173 0.916394
vt 0.923586 0.954533
vt 0.910753 0.949437
vt 0.922486 0.939747
vt 0.327392 0.928318
vt 0.316082 0.930051
vt 0.319342 0.915810
vt 0.354670 0.929311
vt 0.342024 0.930995
vt 0.351409 0.916977
vt 0.877308 0.930569
vt 0.287206 0.915810
vt 0.937034 0.948286
vt 0.335376 0.916394
vt 0.852054 0.959515
vt 0.839220 0.952926
vt 0.850953 0.945954
vt 0.620129 0.872255
vt 0.631370 0.881826
vt 0.617020 0.881826
vt 0.592834 0.881124
vt 0.605410 0.873391
vt 0.600976 0.887039
vt 0.948337 0.940714
vt 0.937034 0.931624
vt 0.948841 0.928171
vt 0.343359 0.904469
vt 0.328727 0.901792
vt 0.340652 0.893351
vt 0.852054 0.931167
vt 0.839220 0.936263
vt 0.846517 0.921735
vt 0.626935 0.895474
vt 0.617020 0.909121
vt 0.612585 0.895474
vt 0.631370 0.909121
vt 0.620129 0.918692
vt 0.600976 0.903908
vt 0.605410 0.917556
vt 0.592834 0.909823
vt 0.589367 0.895474
vt 0.923587 0.926186
vt 0.934293 0.919632
vt 0.277822 0.901792
vt 0.263190 0.904469
vt 0.265897 0.893351
vt 0.862760 0.922446
vt 0.354670 0.902736
vt 0.316082 0.903476
vt 0.290467 0.903476
vt 0.255140 0.916977
vt 0.251879 0.902736
vt 0.948841 0.955132
vt 0.934292 0.963255
vt 0.910753 0.932775
vt 0.290467 0.930051
vt 0.251879 0.929311
vt 0.537793 0.917556
vt 0.525217 0.909823
vt 0.330100 0.939436
vt 0.563752 0.909121
vt 0.552512 0.918692
vt 0.918050 0.963966
vt 0.563752 0.881826
vt 0.552512 0.872255
vt 0.862760 0.966069
vt 0.521749 0.895474
vt 0.276449 0.939436
vt 0.537793 0.873391
vt 0.525217 0.881124
s 1
usemtl prop_peti_sayur_mat
f 1/1/1 2/2/2 4/3/4 3/4/3
f 3/5/3 4/6/4 8/7/8 7/8/7
f 7/9/7 8/10/8 6/11/6 5/12/5
f 5/13/5 6/14/6 2/15/2 1/16/1
f 3/17/3 7/18/7 5/19/5 1/20/1
f 8/21/8 4/22/4 2/23/2 6/24/6
f 9/25/1 10/26/2 12/27/4 11/28/3
f 11/29/3 12/30/4 16/31/8 15/32/7
f 15/33/7 16/34/8 14/35/6 13/36/5
f 13/37/5 14/38/6 10/39/2 9/40/1
f 11/41/3 15/42/7 13/43/5 9/44/1
f 16/45/8 12/46/4 10/47/2 14/48/6
f 17/49/1 18/50/2 20/51/4 19/52/3
f 19/53/3 20/54/4 24/55/8 23/56/7
f 23/57/7 24/58/8 22/59/6 21/60/5
f 21/61/5 22/62/6 18/63/2 17/64/1
f 19/65/3 23/66/7 21/67/5 17/68/1
f 24/69/8 20/70/4 18/71/2 22/72/6
f 25/73/1 26/74/2 28/75/4 27/76/3
f 27/77/3 28/78/4 32/79/8 31/80/7
f 31/81/7 32/82/8 30/83/6 29/84/5
f 29/85/5 30/86/6 26/87/2 25/88/1
f 27/89/3 31/90/7 29/91/5 25/92/1
f 32/93/8 28/94/4 26/95/2 30/96/6
f 33/97/1 34/98/2 36/99/4 35/100/3
f 35/101/3 36/102/4 40/103/8 39/104/7
f 39/105/7 40/106/8 38/107/6 37/108/5
f 37/109/5 38/110/6 34/111/2 33/112/1
f 35/113/3 39/114/7 37/115/5 33/116/1
f 40/117/8 36/118/4 34/119/2 38/120/6
f 41/121/1 42/122/2 44/123/4 43/124/3
f 43/125/3 44/126/4 48/127/8 47/128/7
f 47/129/7 48/130/8 46/131/6 45/132/5
f 45/133/5 46/134/6 42/135/2 41/136/1
f 43/137/3 47/138/7 45/139/5 41/140/1
f 48/141/8 44/142/4 42/143/2 46/144/6
f 49/145/1 50/146/2 52/147/4 51/148/3
f 51/149/3 52/150/4 56/151/8 55/152/7
f 55/153/7 56/154/8 54/155/6 53/156/5
f 53/157/5 54/158/6 50/159/2 49/160/1
f 51/161/3 55/162/7 53/163/5 49/164/1
f 56/165/8 52/166/4 50/167/2 54/168/6
f 57/169/1 58/170/2 60/171/4 59/172/3
f 59/173/3 60/174/4 64/175/8 63/176/7
f 63/177/7 64/178/8 62/179/6 61/180/5
f 61/181/5 62/182/6 58/183/2 57/184/1
f 59/185/3 63/186/7 61/187/5 57/188/1
f 64/189/8 60/190/4 58/191/2 62/192/6
f 65/193/1 66/194/2 68/195/4 67/196/3
f 67/197/3 68/198/4 72/199/8 71/200/7
f 71/201/7 72/202/8 70/203/6 69/204/5
f 69/205/5 70/206/6 66/207/2 65/208/1
f 67/209/3 71/210/7 69/211/5 65/212/1
f 72/213/8 68/214/4 66/215/2 70/216/6
f 73/217/1 74/218/2 76/219/4 75/220/3
f 75/221/3 76/222/4 80/223/8 79/224/7
f 79/225/7 80/226/8 78/227/6 77/228/5
f 77/229/5 78/230/6 74/231/2 73/232/1
f 75/233/3 79/234/7 77/235/5 73/236/1
f 80/237/8 76/238/4 74/239/2 78/240/6
f 81/241/1 82/242/2 84/243/4 83/244/3
f 83/245/3 84/246/4 88/247/8 87/248/7
f 87/249/7 88/250/8 86/251/6 85/252/5
f 85/253/5 86/254/6 82/255/2 81/256/1
f 83/257/3 87/258/7 85/259/5 81/260/1
f 88/261/8 84/262/4 82/263/2 86/264/6
f 89/265/1 90/266/2 92/267/4 91/268/3
f 91/269/3 92/270/4 96/271/8 95/272/7
f 95/273/7 96/274/8 94/275/6 93/276/5
f 93/277/5 94/278/6 90/279/2 89/280/1
f 91/281/3 95/282/7 93/283/5 89/284/1
f 96/285/8 92/286/4 90/287/2 94/288/6
f 97/289/1 98/290/2 100/291/4 99/292/3
f 99/293/3 100/294/4 104/295/8 103/296/7
f 103/297/7 104/298/8 102/299/6 101/300/5
f 101/301/5 102/302/6 98/303/2 97/304/1
f 99/305/3 103/306/7 101/307/5 97/308/1
f 104/309/8 100/310/4 98/311/2 102/312/6
f 105/313/1 106/314/2 108/315/4 107/316/3
f 107/317/3 108/318/4 112/319/8 111/320/7
f 111/321/7 112/322/8 110/323/6 109/324/5
f 109/325/5 110/326/6 106/327/2 105/328/1
f 107/329/3 111/330/7 109/331/5 105/332/1
f 112/333/8 108/334/4 106/335/2 110/336/6
f 113/337/1 114/338/2 116/339/4 115/340/3
f 115/341/3 116/342/4 120/343/8 119/344/7
f 119/345/7 120/346/8 118/347/6 117/348/5
f 117/349/5 118/350/6 114/351/2 113/352/1
f 115/353/3 119/354/7 117/355/5 113/356/1
f 120/357/8 116/358/4 114/359/2 118/360/6
f 121/361/1 122/362/2 124/363/4 123/364/3
f 123/365/3 124/366/4 128/367/8 127/368/7
f 127/369/7 128/370/8 126/371/6 125/372/5
f 125/373/5 126/374/6 122/375/2 121/376/1
f 123/377/3 127/378/7 125/379/5 121/380/1
f 128/381/8 124/382/4 122/383/2 126/384/6
f 129/385/1 130/386/2 132/387/4 131/388/3
f 131/389/3 132/390/4 136/391/8 135/392/7
f 135/393/7 136/394/8 134/395/6 133/396/5
f 133/397/5 134/398/6 130/399/2 129/400/1
f 131/401/3 135/402/7 133/403/5 129/404/1
f 136/405/8 132/406/4 130/407/2 134/408/6
f 137/409/9 150/410/22 149/411/21
f 138/412/10 150/413/22 152/414/24
f 137/409/9 149/411/21 154/415/26
f 137/409/9 154/415/26 156/416/28
f 137/409/9 156/416/28 153/417/25
f 138/412/10 152/414/24 159/418/31
f 139/419/11 151/420/23 161/421/33
f 140/422/12 155/423/27 163/424/35
f 141/425/13 157/426/29 165/427/37
f 142/428/14 158/429/30 167/430/39
f 138/412/10 159/418/31 162/431/34
f 139/419/11 161/421/33 164/432/36
f 140/422/12 163/424/35 166/433/38
f 141/425/13 165/427/37 168/434/40
f 142/435/14 167/436/39 160/437/32
f 143/438/15 169/439/41 174/440/46
f 144/441/16 170/442/42 176/443/48
f 145/444/17 171/445/43 177/446/49
f 146/447/18 172/448/44 178/449/50
f 147/450/19 173/451/45 175/452/47
f 175/453/47 178/454/50 148/455/20
f 175/453/47 173/456/45 178/454/50
f 173/456/45 146/457/18 178/454/50
f 178/454/50 177/458/49 148/455/20
f 178/454/50 172/459/44 177/458/49
f 172/459/44 145/460/17 177/458/49
f 177/458/49 176/443/48 148/455/20
f 177/458/49 171/461/43 176/443/48
f 171/445/43 144/462/16 176/463/48
f 176/443/48 174/440/46 148/455/20
f 176/443/48 170/442/42 174/440/46
f 170/464/42 143/465/15 174/466/46
f 174/440/46 175/453/47 148/455/20
f 174/440/46 169/439/41 175/453/47
f 169/467/41 147/450/19 175/452/47
f 160/437/32 173/451/45 147/450/19
f 160/437/32 167/436/39 173/451/45
f 167/430/39 146/447/18 173/468/45
f 168/434/40 172/448/44 146/447/18
f 168/434/40 165/427/37 172/448/44
f 165/427/37 145/469/17 172/448/44
f 166/433/38 171/445/43 145/444/17
f 166/433/38 163/424/35 171/445/43
f 163/424/35 144/462/16 171/445/43
f 164/432/36 170/464/42 144/470/16
f 164/432/36 161/421/33 170/464/42
f 161/421/33 143/465/15 170/464/42
f 162/471/34 169/472/41 143/465/15
f 162/431/34 159/418/31 169/467/41
f 159/418/31 147/450/19 169/467/41
f 167/430/39 168/434/40 146/447/18
f 167/430/39 158/429/30 168/434/40
f 158/429/30 141/425/13 168/434/40
f 165/473/37 166/433/38 145/444/17
f 165/473/37 157/474/29 166/433/38
f 157/474/29 140/422/12 166/433/38
f 163/424/35 164/475/36 144/462/16
f 163/424/35 155/423/27 164/475/36
f 155/476/27 139/419/11 164/432/36
f 161/421/33 162/471/34 143/465/15
f 161/421/33 151/420/23 162/471/34
f 151/420/23 138/477/10 162/471/34
f 159/418/31 160/437/32 147/450/19
f 159/418/31 152/414/24 160/437/32
f 152/414/24 142/435/14 160/437/32
f 153/417/25 158/478/30 142/479/14
f 153/417/25 156/416/28 158/478/30
f 156/480/28 141/425/13 158/429/30
f 156/416/28 157/481/29 141/482/13
f 156/416/28 154/415/26 157/481/29
f 154/483/26 140/422/12 157/474/29
f 154/483/26 155/423/27 140/422/12
f 154/415/26 149/411/21 155/484/27
f 149/411/21 139/485/11 155/484/27
f 152/414/24 153/486/25 142/435/14
f 152/487/24 150/410/22 153/417/25
f 150/410/22 137/409/9 153/417/25
f 149/488/21 151/420/23 139/419/11
f 149/411/21 150/410/22 151/489/23
f 150/410/22 138/490/10 151/489/23
f 179/491/9 192/492/22 191/493/21
f 180/494/10 192/495/22 194/496/24
f 179/491/9 191/493/21 196/497/26
f 179/491/9 196/497/26 198/498/28
f 179/491/9 198/498/28 195/499/25
f 180/494/10 194/496/24 201/500/31
f 181/501/11 193/502/23 203/503/33
f 182/504/12 197/505/27 205/506/35
f 183/507/13 199/508/29 207/509/37
f 184/510/14 200/511/30 209/512/39
f 180/494/10 201/500/31 204/513/34
f 181/501/11 203/503/33 206/514/36
f 182/504/12 205/506/35 208/515/38
f 183/507/13 207/509/37 210/516/40
f 184/517/14 209/518/39 202/519/32
f 185/520/15 211/521/41 216/522/46
f 186/523/16 212/524/42 218/525/48
f 187/526/17 213/527/43 219/528/49
f 188/529/18 214/530/44 220/531/50
f 189/532/19 215/533/45 217/534/47
f 217/535/47 220/536/50 190/537/20
f 217/535/47 215/538/45 220/536/50
f 215/538/45 188/539/18 220/536/50
f 220/536/50 219/540/49 190/537/20
f 220/536/50 214/541/44 219/540/49
f 214/541/44 187/542/17 219/540/49
f 219/540/49 218/525/48 190/537/20
f 219/540/49 213/543/43 218/525/48
f 213/527/43 186/544/16 218/545/48
f 218/525/48 216/522/46 190/537/20
f 218/525/48 212/524/42 216/522/46
f 212/546/42 185/547/15 216/548/46
f 216/522/46 217/535/47 190/537/20
f 216/522/46 211/521/41 217/535/47
f 211/549/41 189/532/19 217/534/47
f 202/519/32 215/533/45 189/532/19
f 202/519/32 209/518/39 215/533/45
f 209/512/39 188/529/18 215/550/45
f 210/516/40 214/530/44 188/529/18
f 210/516/40 207/509/37 214/530/44
f 207/509/37 187/551/17 214/530/44
f 208/515/38 213/527/43 187/526/17
f 208/515/38 205/506/35 213/527/43
f 205/506/35 186/544/16 213/527/43
f 206/514/36 212/546/42 186/552/16
f 206/514/36 203/503/33 212/546/42
f 203/503/33 185/547/15 212/546/42
f 204/553/34 211/554/41 185/547/15
f 204/513/34 201/500/31 211/549/41
f 201/500/31 189/532/19 211/549/41
f 209/512/39 210/516/40 188/529/18
f 209/512/39 200/511/30 210/516/40
f 200/511/30 183/507/13 210/516/40
f 207/555/37 208/515/38 187/526/17
f 207/555/37 199/556/29 208/515/38
f 199/556/29 182/504/12 208/515/38
f 205/506/35 206/557/36 186/544/16
f 205/506/35 197/505/27 206/557/36
f 197/558/27 181/501/11 206/514/36
f 203/503/33 204/553/34 185/547/15
f 203/503/33 193/502/23 204/553/34
f 193/502/23 180/559/10 204/553/34
f 201/500/31 202/519/32 189/532/19
f 201/500/31 194/496/24 202/519/32
f 194/496/24 184/517/14 202/519/32
f 195/499/25 200/560/30 184/561/14
f 195/499/25 198/498/28 200/560/30
f 198/562/28 183/507/13 200/511/30
f 198/498/28 199/563/29 183/564/13
f 198/498/28 196/497/26 199/563/29
f 196/565/26 182/504/12 199/556/29
f 196/565/26 197/505/27 182/504/12
f 196/497/26 191/493/21 197/566/27
f 191/493/21 181/567/11 197/566/27
f 194/496/24 195/568/25 184/517/14
f 194/569/24 192/492/22 195/499/25
f 192/492/22 179/491/9 195/499/25
f 191/570/21 193/502/23 181/501/11
f 191/493/21 192/492/22 193/571/23
f 192/492/22 180/572/10 193/571/23
f 221/573/9 234/574/22 233/575/21
f 222/576/10 234/577/22 236/578/24
f 221/573/9 233/575/21 238/579/26
f 221/573/9 238/579/26 240/580/28
f 221/573/9 240/580/28 237/581/25
f 222/576/10 236/578/24 243/582/31
f 223/583/11 235/584/23 245/585/33
f 224/586/12 239/587/27 247/588/35
f 225/589/13 241/590/29 249/591/37
f 226/592/14 242/593/30 251/594/39
f 222/576/10 243/582/31 246/595/34
f 223/583/11 245/585/33 248/596/36
f 224/586/12 247/588/35 250/597/38
f 225/589/13 249/591/37 252/598/40
f 226/599/14 251/600/39 244/601/32
f 227/602/15 253/603/41 258/604/46
f 228/605/16 254/606/42 260/607/48
f 229/608/17 255/609/43 261/610/49
f 230/611/18 256/612/44 262/613/50
f 231/614/19 257/615/45 259/616/47
f 259/617/47 262/618/50 232/619/20
f 259/617/47 257/620/45 262/618/50
f 257/620/45 230/621/18 262/618/50
f 262/618/50 261/622/49 232/619/20
f 262/618/50 256/623/44 261/622/49
f 256/623/44 229/624/17 261/622/49
f 261/622/49 260/607/48 232/619/20
f 261/622/49 255/625/43 260/607/48
f 255/609/43 228/626/16 260/627/48
f 260/607/48 258/604/46 232/619/20
f 260/607/48 254/606/42 258/604/46
f 254/628/42 227/629/15 258/630/46
f 258/604/46 259/617/47 232/619/20
f 258/604/46 253/603/41 259/617/47
f 253/631/41 231/614/19 259/616/47
f 244/601/32 257/615/45 231/614/19
f 244/601/32 251/600/39 257/615/45
f 251/594/39 230/611/18 257/632/45
f 252/598/40 256/612/44 230/611/18
f 252/598/40 249/591/37 256/612/44
f 249/591/37 229/633/17 256/612/44
f 250/597/38 255/609/43 229/608/17
f 250/597/38 247/588/35 255/609/43
f 247/588/35 228/626/16 255/609/43
f 248/596/36 254/628/42 228/634/16
f 248/596/36 245/585/33 254/628/42
f 245/585/33 227/629/15 254/628/42
f 246/635/34 253/636/41 227/629/15
f 246/595/34 243/582/31 253/631/41
f 243/582/31 231/614/19 253/631/41
f 251/594/39 252/598/40 230/611/18
f 251/594/39 242/593/30 252/598/40
f 242/593/30 225/589/13 252/598/40
f 249/637/37 250/597/38 229/608/17
f 249/637/37 241/638/29 250/597/38
f 241/638/29 224/586/12 250/597/38
f 247/588/35 248/639/36 228/626/16
f 247/588/35 239/587/27 248/639/36
f 239/640/27 223/583/11 248/596/36
f 245/585/33 246/635/34 227/629/15
f 245/585/33 235/584/23 246/635/34
f 235/584/23 222/641/10 246/635/34
f 243/582/31 244/601/32 231/614/19
f 243/582/31 236/578/24 244/601/32
f 236/578/24 226/599/14 244/601/32
f 237/581/25 242/642/30 226/643/14
f 237/581/25 240/580/28 242/642/30
f 240/644/28 225/589/13 242/593/30
f 240/580/28 241/645/29 225/646/13
f 240/580/28 238/579/26 241/645/29
f 238/647/26 224/586/12 241/638/29
f 238/647/26 239/587/27 224/586/12
f 238/579/26 233/575/21 239/648/27
f 233/575/21 223/649/11 239/648/27
f 236/578/24 237/650/25 226/599/14
f 236/651/24 234/574/22 237/581/25
f 234/574/22 221/573/9 237/581/25
f 233/652/21 235/584/23 223/583/11
f 233/575/21 234/574/22 235/653/23
f 234/574/22 222/654/10 235/653/23
f 263/655/9 276/656/22 275/657/21
f 264/658/10 276/659/22 278/660/24
f 263/655/9 275/657/21 280/661/26
f 263/655/9 280/661/26 282/662/28
f 263/655/9 282/662/28 279/663/25
f 264/658/10 278/660/24 285/664/31
f 265/665/11 277/666/23 287/667/33
f 266/668/12 281/669/27 289/670/35
f 267/671/13 283/672/29 291/673/37
f 268/674/14 284/675/30 293/676/39
f 264/658/10 285/664/31 288/677/34
f 265/665/11 287/667/33 290/678/36
f 266/668/12 289/670/35 292/679/38
f 267/671/13 291/673/37 294/680/40
f 268/681/14 293/682/39 286/683/32
f 269/684/15 295/685/41 300/686/46
f 270/687/16 296/688/42 302/689/48
f 271/690/17 297/691/43 303/692/49
f 272/693/18 298/694/44 304/695/50
f 273/696/19 299/697/45 301/698/47
f 301/699/47 304/700/50 274/701/20
f 301/699/47 299/702/45 304/700/50
f 299/702/45 272/703/18 304/700/50
f 304/700/50 303/704/49 274/701/20
f 304/700/50 298/705/44 303/704/49
f 298/705/44 271/706/17 303/704/49
f 303/704/49 302/689/48 274/701/20
f 303/704/49 297/707/43 302/689/48
f 297/691/43 270/708/16 302/709/48
f 302/689/48 300/686/46 274/701/20
f 302/689/48 296/688/42 300/686/46
f 296/710/42 269/711/15 300/712/46
f 300/686/46 301/699/47 274/701/20
f 300/686/46 295/685/41 301/699/47
f 295/713/41 273/696/19 301/698/47
f 286/683/32 299/697/45 273/696/19
f 286/683/32 293/682/39 299/697/45
f 293/676/39 272/693/18 299/714/45
f 294/680/40 298/694/44 272/693/18
f 294/680/40 291/673/37 298/694/44
f 291/673/37 271/715/17 298/694/44
f 292/679/38 297/691/43 271/690/17
f 292/679/38 289/670/35 297/691/43
f 289/670/35 270/708/16 297/691/43
f 290/678/36 296/710/42 270/716/16
f 290/678/36 287/667/33 296/710/42
f 287/667/33 269/711/15 296/710/42
f 288/717/34 295/718/41 269/711/15
f 288/677/34 285/664/31 295/713/41
f 285/664/31 273/696/19 295/713/41
f 293/676/39 294/680/40 272/693/18
f 293/676/39 284/675/30 294/680/40
f 284/675/30 267/671/13 294/680/40
f 291/719/37 292/679/38 271/690/17
f 291/719/37 283/720/29 292/679/38
f 283/720/29 266/668/12 292/679/38
f 289/670/35 290/721/36 270/708/16
f 289/670/35 281/669/27 290/721/36
f 281/722/27 265/665/11 290/678/36
f 287/667/33 288/717/34 269/711/15
f 287/667/33 277/666/23 288/717/34
f 277/666/23 264/723/10 288/717/34
f 285/664/31 286/683/32 273/696/19
f 285/664/31 278/660/24 286/683/32
f 278/660/24 268/681/14 286/683/32
f 279/663/25 284/724/30 268/725/14
f 279/663/25 282/662/28 284/724/30
f 282/726/28 267/671/13 284/675/30
f 282/662/28 283/727/29 267/728/13
f 282/662/28 280/661/26 283/727/29
f 280/729/26 266/668/12 283/720/29
f 280/729/26 281/669/27 266/668/12
f 280/661/26 275/657/21 281/730/27
f 275/657/21 265/731/11 281/730/27
f 278/660/24 279/732/25 268/681/14
f 278/733/24 276/656/22 279/663/25
f 276/656/22 263/655/9 279/663/25
f 275/734/21 277/666/23 265/665/11
f 275/657/21 276/656/22 277/735/23
f 276/656/22 264/736/10 277/735/23
f 305/737/9 318/738/22 317/739/21
f 306/740/10 318/741/22 320/742/24
f 305/737/9 317/739/21 322/743/26
f 305/737/9 322/743/26 324/744/28
f 305/737/9 324/744/28 321/745/25
f 306/740/10 320/742/24 327/746/31
f 307/747/11 319/748/23 329/749/33
f 308/750/12 323/751/27 331/752/35
f 309/753/13 325/754/29 333/755/37
f 310/756/14 326/757/30 335/758/39
f 306/740/10 327/746/31 330/759/34
f 307/747/11 329/749/33 332/760/36
f 308/750/12 331/752/35 334/761/38
f 309/753/13 333/755/37 336/762/40
f 310/763/14 335/764/39 328/765/32
f 311/766/15 337/767/41 342/768/46
f 312/769/16 338/770/42 344/771/48
f 313/772/17 339/773/43 345/774/49
f 314/775/18 340/776/44 346/777/50
f 315/778/19 341/779/45 343/780/47
f 343/781/47 346/782/50 316/783/20
f 343/781/47 341/784/45 346/782/50
f 341/784/45 314/785/18 346/782/50
f 346/782/50 345/786/49 316/783/20
f 346/782/50 340/787/44 345/786/49
f 340/787/44 313/788/17 345/786/49
f 345/786/49 344/771/48 316/783/20
f 345/786/49 339/789/43 344/771/48
f 339/773/43 312/790/16 344/791/48
f 344/771/48 342/768/46 316/783/20
f 344/771/48 338/770/42 342/768/46
f 338/792/42 311/793/15 342/794/46
f 342/768/46 343/781/47 316/783/20
f 342/768/46 337/767/41 343/781/47
f 337/795/41 315/778/19 343/780/47
f 328/765/32 341/779/45 315/778/19
f 328/765/32 335/764/39 341/779/45
f 335/758/39 314/775/18 341/796/45
f 336/762/40 340/776/44 314/775/18
f 336/762/40 333/755/37 340/776/44
f 333/755/37 313/797/17 340/776/44
f 334/761/38 339/773/43 313/772/17
f 334/761/38 331/752/35 339/773/43
f 331/752/35 312/790/16 339/773/43
f 332/760/36 338/792/42 312/798/16
f 332/760/36 329/749/33 338/792/42
f 329/749/33 311/793/15 338/792/42
f 330/799/34 337/800/41 311/793/15
f 330/759/34 327/746/31 337/795/41
f 327/746/31 315/778/19 337/795/41
f 335/758/39 336/762/40 314/775/18
f 335/758/39 326/757/30 336/762/40
f 326/757/30 309/753/13 336/762/40
f 333/801/37 334/761/38 313/772/17
f 333/801/37 325/802/29 334/761/38
f 325/802/29 308/750/12 334/761/38
f 331/752/35 332/803/36 312/790/16
f 331/752/35 323/751/27 332/803/36
f 323/804/27 307/747/11 332/760/36
f 329/749/33 330/799/34 311/793/15
f 329/749/33 319/748/23 330/799/34
f 319/748/23 306/805/10 330/799/34
f 327/746/31 328/765/32 315/778/19
f 327/746/31 320/742/24 328/765/32
f 320/742/24 310/763/14 328/765/32
f 321/745/25 326/806/30 310/807/14
f 321/745/25 324/744/28 326/806/30
f 324/808/28 309/753/13 326/757/30
f 324/744/28 325/809/29 309/810/13
f 324/744/28 322/743/26 325/809/29
f 322/811/26 308/750/12 325/802/29
f 322/811/26 323/751/27 308/750/12
f 322/743/26 317/739/21 323/812/27
f 317/739/21 307/813/11 323/812/27
f 320/742/24 321/814/25 310/763/14
f 320/815/24 318/738/22 321/745/25
f 318/738/22 305/737/9 321/745/25
f 317/816/21 319/748/23 307/747/11
f 317/739/21 318/738/22 319/817/23
f 318/738/22 306/818/10 319/817/23
f 347/819/9 360/820/22 359/821/21
f 348/822/10 360/823/22 362/824/24
f 347/819/9 359/821/21 364/825/26
f 347/819/9 364/825/26 366/826/28
f 347/819/9 366/826/28 363/827/25
f 348/822/10 362/824/24 369/828/31
f 349/829/11 361/830/23 371/831/33
f 350/832/12 365/833/27 373/834/35
f 351/835/13 367/836/29 375/837/37
f 352/838/14 368/839/30 377/840/39
f 348/822/10 369/828/31 372/841/34
f 349/829/11 371/831/33 374/842/36
f 350/832/12 373/834/35 376/843/38
f 351/835/13 375/837/37 378/844/40
f 352/845/14 377/846/39 370/847/32
f 353/848/15 379/849/41 384/850/46
f 354/851/16 380/852/42 386/853/48
f 355/854/17 381/855/43 387/856/49
f 356/857/18 382/858/44 388/859/50
f 357/860/19 383/861/45 385/862/47
f 385/863/47 388/864/50 358/865/20
f 385/863/47 383/866/45 388/864/50
f 383/866/45 356/867/18 388/864/50
f 388/864/50 387/868/49 358/865/20
f 388/864/50 382/869/44 387/868/49
f 382/869/44 355/870/17 387/868/49
f 387/868/49 386/853/48 358/865/20
f 387/868/49 381/871/43 386/853/48
f 381/855/43 354/872/16 386/873/48
f 386/853/48 384/850/46 358/865/20
f 386/853/48 380/852/42 384/850/46
f 380/874/42 353/875/15 384/876/46
f 384/850/46 385/863/47 358/865/20
f 384/850/46 379/849/41 385/863/47
f 379/877/41 357/860/19 385/862/47
f 370/847/32 383/861/45 357/860/19
f 370/847/32 377/846/39 383/861/45
f 377/840/39 356/857/18 383/878/45
f 378/844/40 382/858/44 356/857/18
f 378/844/40 375/837/37 382/858/44
f 375/837/37 355/879/17 382/858/44
f 376/843/38 381/855/43 355/854/17
f 376/843/38 373/834/35 381/855/43
f 373/834/35 354/872/16 381/855/43
f 374/842/36 380/874/42 354/880/16
f 374/842/36 371/831/33 380/874/42
f 371/831/33 353/875/15 380/874/42
f 372/881/34 379/882/41 353/875/15
f 372/841/34 369/828/31 379/877/41
f 369/828/31 357/860/19 379/877/41
f 377/840/39 378/844/40 356/857/18
f 377/840/39 368/839/30 378/844/40
f 368/839/30 351/835/13 378/844/40
f 375/883/37 376/843/38 355/854/17
f 375/883/37 367/884/29 376/843/38
f 367/884/29 350/832/12 376/843/38
f 373/834/35 374/885/36 354/872/16
f 373/834/35 365/833/27 374/885/36
f 365/886/27 349/829/11 374/842/36
f 371/831/33 372/881/34 353/875/15
f 371/831/33 361/830/23 372/881/34
f 361/830/23 348/887/10 372/881/34
f 369/828/31 370/847/32 357/860/19
f 369/828/31 362/824/24 370/847/32
f 362/824/24 352/845/14 370/847/32
f 363/827/25 368/888/30 352/889/14
f 363/827/25 366/826/28 368/888/30
f 366/890/28 351/835/13 368/839/30
f 366/826/28 367/891/29 351/892/13
f 366/826/28 364/825/26 367/891/29
f 364/893/26 350/832/12 367/884/29
f 364/893/26 365/833/27 350/832/12
f 364/825/26 359/821/21 365/894/27
f 359/821/21 349/895/11 365/894/27
f 362/824/24 363/896/25 352/845/14
f 362/897/24 360/820/22 363/827/25
f 360/820/22 347/819/9 363/827/25
f 359/898/21 361/830/23 349/829/11
f 359/821/21 360/820/22 361/899/23
f 360/820/22 348/900/10 361/899/23
