# axis-converted-to-Y-up
# Blender 5.1.1
# www.blender.org
mtllib prop_kandang_ayam.mtl
o prop_kandang_ayam
v 0.685000 0.100000 -0.500000
v 0.685000 1.000000 -0.500000
v 0.685000 0.100000 0.500000
v 0.685000 1.000000 0.500000
v 0.355000 0.100000 -0.500000
v 0.355000 1.000000 -0.500000
v 0.355000 0.100000 0.500000
v 0.355000 1.000000 0.500000
v 0.335000 0.100000 -0.500000
v 0.335000 1.000000 -0.500000
v 0.335000 0.100000 0.500000
v 0.335000 1.000000 0.500000
v 0.005000 0.100000 -0.500000
v 0.005000 1.000000 -0.500000
v 0.005000 0.100000 0.500000
v 0.005000 1.000000 0.500000
v -0.005000 0.100000 -0.500000
v -0.005000 1.000000 -0.500000
v -0.005000 0.100000 0.500000
v -0.005000 1.000000 0.500000
v -0.335000 0.100000 -0.500000
v -0.335000 1.000000 -0.500000
v -0.335000 0.100000 0.500000
v -0.335000 1.000000 0.500000
v -0.355000 0.100000 -0.500000
v -0.355000 1.000000 -0.500000
v -0.355000 0.100000 0.500000
v -0.355000 1.000000 0.500000
v -0.685000 0.100000 -0.500000
v -0.685000 1.000000 -0.500000
v -0.685000 0.100000 0.500000
v -0.685000 1.000000 0.500000
v 0.710000 0.215000 0.495000
v 0.710000 0.285000 0.495000
v 0.710000 0.215000 0.525000
v 0.710000 0.285000 0.525000
v -0.710000 0.215000 0.495000
v -0.710000 0.285000 0.495000
v -0.710000 0.215000 0.525000
v -0.710000 0.285000 0.525000
v 0.710000 0.215000 -0.525000
v 0.710000 0.285000 -0.525000
v 0.710000 0.215000 -0.495000
v 0.710000 0.285000 -0.495000
v -0.710000 0.215000 -0.525000
v -0.710000 0.285000 -0.525000
v -0.710000 0.215000 -0.495000
v -0.710000 0.285000 -0.495000
v 0.710000 0.815000 0.495000
v 0.710000 0.885000 0.495000
v 0.710000 0.815000 0.525000
v 0.710000 0.885000 0.525000
v -0.710000 0.815000 0.495000
v -0.710000 0.885000 0.495000
v -0.710000 0.815000 0.525000
v -0.710000 0.885000 0.525000
v 0.710000 0.815000 -0.525000
v 0.710000 0.885000 -0.525000
v 0.710000 0.815000 -0.495000
v 0.710000 0.885000 -0.495000
v -0.710000 0.815000 -0.525000
v -0.710000 0.885000 -0.525000
v -0.710000 0.815000 -0.495000
v -0.710000 0.885000 -0.495000
v 0.008160 1.272741 -0.570000
v -0.011311 1.318794 -0.570000
v 0.008160 1.272741 0.570000
v -0.011311 1.318794 0.570000
v -0.728689 0.961206 -0.570000
v -0.748160 1.007259 -0.570000
v -0.728689 0.961206 0.570000
v -0.748160 1.007259 0.570000
v 0.728689 0.961206 -0.570000
v 0.748160 1.007259 -0.570000
v 0.728689 0.961206 0.570000
v 0.748160 1.007259 0.570000
v -0.008160 1.272741 -0.570000
v 0.011311 1.318794 -0.570000
v -0.008160 1.272741 0.570000
v 0.011311 1.318794 0.570000
v 0.030000 1.270000 -0.580000
v 0.030000 1.330000 -0.580000
v 0.030000 1.270000 0.580000
v 0.030000 1.330000 0.580000
v -0.030000 1.270000 -0.580000
v -0.030000 1.330000 -0.580000
v -0.030000 1.270000 0.580000
v -0.030000 1.330000 0.580000
v 0.180000 0.240000 0.485000
v 0.180000 0.660000 0.485000
v 0.180000 0.240000 0.545000
v 0.180000 0.660000 0.545000
v -0.180000 0.240000 0.485000
v -0.180000 0.660000 0.485000
v -0.180000 0.240000 0.545000
v -0.180000 0.660000 0.545000
v 0.130000 0.270000 0.510000
v 0.130000 0.590000 0.510000
v 0.130000 0.270000 0.550000
v 0.130000 0.590000 0.550000
v -0.130000 0.270000 0.510000
v -0.130000 0.590000 0.510000
v -0.130000 0.270000 0.550000
v -0.130000 0.590000 0.550000
v -0.600000 -0.010000 0.455000
v -0.600000 0.150000 0.455000
v -0.632328 -0.010000 0.444496
v -0.632328 0.150000 0.444496
v -0.652308 -0.010000 0.416996
v -0.652308 0.150000 0.416996
v -0.652308 -0.010000 0.383004
v -0.652308 0.150000 0.383004
v -0.632328 -0.010000 0.355504
v -0.632328 0.150000 0.355504
v -0.600000 -0.010000 0.345000
v -0.600000 0.150000 0.345000
v -0.567672 -0.010000 0.355504
v -0.567672 0.150000 0.355504
v -0.547692 -0.010000 0.383004
v -0.547692 0.150000 0.383004
v -0.547692 -0.010000 0.416996
v -0.547692 0.150000 0.416996
v -0.567672 -0.010000 0.444496
v -0.567672 0.150000 0.444496
v -0.600000 -0.010000 -0.345000
v -0.600000 0.150000 -0.345000
v -0.632328 -0.010000 -0.355504
v -0.632328 0.150000 -0.355504
v -0.652308 -0.010000 -0.383004
v -0.652308 0.150000 -0.383004
v -0.652308 -0.010000 -0.416996
v -0.652308 0.150000 -0.416996
v -0.632328 -0.010000 -0.444496
v -0.632328 0.150000 -0.444496
v -0.600000 -0.010000 -0.455000
v -0.600000 0.150000 -0.455000
v -0.567672 -0.010000 -0.444496
v -0.567672 0.150000 -0.444496
v -0.547692 -0.010000 -0.416996
v -0.547692 0.150000 -0.416996
v -0.547692 -0.010000 -0.383004
v -0.547692 0.150000 -0.383004
v -0.567672 -0.010000 -0.355504
v -0.567672 0.150000 -0.355504
v 0.600000 -0.010000 0.455000
v 0.600000 0.150000 0.455000
v 0.567672 -0.010000 0.444496
v 0.567672 0.150000 0.444496
v 0.547692 -0.010000 0.416996
v 0.547692 0.150000 0.416996
v 0.547692 -0.010000 0.383004
v 0.547692 0.150000 0.383004
v 0.567672 -0.010000 0.355504
v 0.567672 0.150000 0.355504
v 0.600000 -0.010000 0.345000
v 0.600000 0.150000 0.345000
v 0.632328 -0.010000 0.355504
v 0.632328 0.150000 0.355504
v 0.652308 -0.010000 0.383004
v 0.652308 0.150000 0.383004
v 0.652308 -0.010000 0.416996
v 0.652308 0.150000 0.416996
v 0.632328 -0.010000 0.444496
v 0.632328 0.150000 0.444496
v 0.600000 -0.010000 -0.345000
v 0.600000 0.150000 -0.345000
v 0.567672 -0.010000 -0.355504
v 0.567672 0.150000 -0.355504
v 0.547692 -0.010000 -0.383004
v 0.547692 0.150000 -0.383004
v 0.547692 -0.010000 -0.416996
v 0.547692 0.150000 -0.416996
v 0.567672 -0.010000 -0.444496
v 0.567672 0.150000 -0.444496
v 0.600000 -0.010000 -0.455000
v 0.600000 0.150000 -0.455000
v 0.632328 -0.010000 -0.444496
v 0.632328 0.150000 -0.444496
v 0.652308 -0.010000 -0.416996
v 0.652308 0.150000 -0.416996
v 0.652308 -0.010000 -0.383004
v 0.652308 0.150000 -0.383004
v 0.632328 -0.010000 -0.355504
v 0.632328 0.150000 -0.355504
v 0.000000 0.045162 0.986204
v 0.000000 0.403413 0.361660
v -0.016458 0.040524 0.983544
v -0.016458 0.398775 0.358999
v -0.026630 0.028380 0.976578
v -0.026630 0.386631 0.352033
v -0.026630 0.013369 0.967967
v -0.026630 0.371620 0.343422
v -0.016458 0.001225 0.961001
v -0.016458 0.359476 0.336456
v 0.000000 -0.003413 0.958340
v 0.000000 0.354838 0.333796
v 0.016458 0.001225 0.961001
v 0.016458 0.359476 0.336456
v 0.026630 0.013369 0.967967
v 0.026630 0.371620 0.343422
v 0.026630 0.028380 0.976578
v 0.026630 0.386631 0.352033
v 0.016458 0.040524 0.983544
v 0.016458 0.398775 0.358999
v 0.085000 0.049000 0.539000
v 0.085000 0.071000 0.539000
v 0.085000 0.049000 0.561000
v 0.085000 0.071000 0.561000
v -0.085000 0.049000 0.539000
v -0.085000 0.071000 0.539000
v -0.085000 0.049000 0.561000
v -0.085000 0.071000 0.561000
v 0.085000 0.124000 0.614000
v 0.085000 0.146000 0.614000
v 0.085000 0.124000 0.636000
v 0.085000 0.146000 0.636000
v -0.085000 0.124000 0.614000
v -0.085000 0.146000 0.614000
v -0.085000 0.124000 0.636000
v -0.085000 0.146000 0.636000
v 0.085000 0.199000 0.689000
v 0.085000 0.221000 0.689000
v 0.085000 0.199000 0.711000
v 0.085000 0.221000 0.711000
v -0.085000 0.199000 0.689000
v -0.085000 0.221000 0.689000
v -0.085000 0.199000 0.711000
v -0.085000 0.221000 0.711000
v 0.085000 0.274000 0.764000
v 0.085000 0.296000 0.764000
v 0.085000 0.274000 0.786000
v 0.085000 0.296000 0.786000
v -0.085000 0.274000 0.764000
v -0.085000 0.296000 0.764000
v -0.085000 0.274000 0.786000
v -0.085000 0.296000 0.786000
vn 0.577400 -0.577400 -0.577400
vn 0.577400 0.577400 -0.577400
vn 0.577400 -0.577400 0.577400
vn 0.577400 0.577400 0.577400
vn -0.577400 -0.577400 -0.577400
vn -0.577400 0.577400 -0.577400
vn -0.577400 -0.577400 0.577400
vn -0.577400 0.577400 0.577400
vn 0.756600 -0.306900 -0.577400
vn 0.306900 0.756600 -0.577400
vn 0.756600 -0.306900 0.577400
vn 0.306900 0.756600 0.577400
vn -0.306900 -0.756600 -0.577400
vn -0.756600 0.306900 -0.577400
vn -0.306900 -0.756600 0.577400
vn -0.756600 0.306900 0.577400
vn 0.306900 -0.756600 -0.577400
vn 0.756600 0.306900 -0.577400
vn 0.306900 -0.756600 0.577400
vn 0.756600 0.306900 0.577400
vn -0.756600 -0.306900 -0.577400
vn -0.306900 0.756600 -0.577400
vn -0.756600 -0.306900 0.577400
vn -0.306900 0.756600 0.577400
vn -0.000000 -0.643700 0.765300
vn -0.000000 0.643700 0.765300
vn -0.449800 -0.643700 0.619100
vn -0.449800 0.643700 0.619100
vn -0.727800 -0.643700 0.236500
vn -0.727800 0.643700 0.236500
vn -0.727800 -0.643700 -0.236500
vn -0.727800 0.643700 -0.236500
vn -0.449800 -0.643700 -0.619100
vn -0.449800 0.643700 -0.619100
vn -0.000000 -0.643700 -0.765300
vn -0.000000 0.643700 -0.765300
vn 0.449800 -0.643700 -0.619100
vn 0.449800 0.643700 -0.619100
vn 0.727800 -0.643700 -0.236500
vn 0.727800 0.643700 -0.236500
vn 0.727800 -0.643700 0.236500
vn 0.727800 0.643700 0.236500
vn 0.449800 -0.643700 0.619100
vn 0.449800 0.643700 0.619100
vn -0.000000 0.343500 0.939100
vn -0.000000 0.984100 -0.177600
vn -0.449800 0.216700 0.866400
vn -0.449800 0.857300 -0.250300
vn -0.727800 -0.115200 0.676000
vn -0.727800 0.525400 -0.440700
vn -0.727800 -0.525400 0.440700
vn -0.727800 0.115200 -0.676000
vn -0.449800 -0.857300 0.250300
vn -0.449800 -0.216700 -0.866400
vn -0.000000 -0.984100 0.177600
vn -0.000000 -0.343500 -0.939100
vn 0.449800 -0.857300 0.250300
vn 0.449800 -0.216700 -0.866400
vn 0.727800 -0.525400 0.440700
vn 0.727800 0.115200 -0.676000
vn 0.727800 -0.115200 0.676000
vn 0.727800 0.525400 -0.440700
vn 0.449800 0.216700 0.866400
vn 0.449800 0.857300 -0.250300
vt 0.158679 0.175052
vt 0.011322 0.175052
vt 0.011322 0.011322
vt 0.158679 0.011322
vt 0.716190 0.717771
vt 0.716190 0.570442
vt 0.770221 0.570442
vt 0.770221 0.717771
vt 0.328679 0.175052
vt 0.181322 0.175052
vt 0.181322 0.011322
vt 0.328679 0.011322
vt 0.716221 0.531398
vt 0.716221 0.384069
vt 0.770252 0.384069
vt 0.770252 0.531398
vt 0.693577 0.547799
vt 0.639547 0.547799
vt 0.639547 0.384069
vt 0.693577 0.384069
vt 0.693547 0.734171
vt 0.639547 0.734130
vt 0.639547 0.570442
vt 0.693547 0.570484
vt 0.158679 0.361425
vt 0.011322 0.361425
vt 0.011322 0.197695
vt 0.158679 0.197695
vt 0.792865 0.717771
vt 0.792865 0.570442
vt 0.846896 0.570442
vt 0.846896 0.717771
vt 0.328679 0.361425
vt 0.181322 0.361425
vt 0.181322 0.197695
vt 0.328679 0.197695
vt 0.792895 0.531398
vt 0.792895 0.384069
vt 0.846926 0.384069
vt 0.846926 0.531398
vt 0.718642 0.175052
vt 0.664611 0.175052
vt 0.664611 0.011322
vt 0.718642 0.011322
vt 0.550259 0.757093
vt 0.496259 0.757052
vt 0.496259 0.593365
vt 0.550259 0.593406
vt 0.498680 0.175052
vt 0.351323 0.175052
vt 0.351323 0.011322
vt 0.498680 0.011322
vt 0.817960 0.158651
vt 0.817960 0.011322
vt 0.871991 0.011322
vt 0.871991 0.158651
vt 0.498680 0.361425
vt 0.351323 0.361425
vt 0.351323 0.197695
vt 0.498680 0.197695
vt 0.817960 0.328623
vt 0.817960 0.181294
vt 0.871991 0.181294
vt 0.871991 0.328623
vt 0.718642 0.361425
vt 0.664611 0.361425
vt 0.664611 0.197695
vt 0.718642 0.197695
vt 0.283500 0.734171
vt 0.229500 0.734130
vt 0.229500 0.570442
vt 0.283500 0.570484
vt 0.158679 0.547799
vt 0.011322 0.547799
vt 0.011322 0.384069
vt 0.158679 0.384069
vt 0.741286 0.158651
vt 0.741286 0.011322
vt 0.795317 0.011322
vt 0.795317 0.158651
vt 0.328679 0.547799
vt 0.181322 0.547799
vt 0.181322 0.384069
vt 0.328679 0.384069
vt 0.741286 0.328623
vt 0.741286 0.181294
vt 0.795317 0.181294
vt 0.795317 0.328623
vt 0.206856 0.734172
vt 0.152825 0.734172
vt 0.152825 0.570442
vt 0.206856 0.570442
vt 0.405323 0.758114
vt 0.351323 0.758073
vt 0.351323 0.594385
vt 0.405323 0.594427
vt 0.639547 0.977572
vt 0.639547 0.966111
vt 0.644458 0.966111
vt 0.644458 0.977572
vt 0.906094 0.243818
vt 0.894635 0.243818
vt 0.894635 0.011322
vt 0.906094 0.011322
vt 0.669730 0.977572
vt 0.669730 0.966111
vt 0.674642 0.966111
vt 0.674642 0.977572
vt 0.915101 0.802939
vt 0.903642 0.802939
vt 0.903642 0.570442
vt 0.915101 0.570442
vt 0.611917 0.593365
vt 0.611917 0.825861
vt 0.607005 0.825861
vt 0.607005 0.593365
vt 0.961204 0.266334
vt 0.961204 0.498699
vt 0.956293 0.498703
vt 0.956293 0.266338
vt 0.152825 0.980805
vt 0.152825 0.969344
vt 0.157737 0.969344
vt 0.157737 0.980805
vt 0.906094 0.498958
vt 0.894635 0.498958
vt 0.894635 0.266462
vt 0.906094 0.266462
vt 0.241209 0.980846
vt 0.241209 0.969385
vt 0.246121 0.969385
vt 0.246121 0.980846
vt 0.880998 0.802939
vt 0.869539 0.802939
vt 0.869539 0.570442
vt 0.880998 0.570442
vt 0.933649 0.011322
vt 0.933649 0.243818
vt 0.928737 0.243818
vt 0.928737 0.011322
vt 0.961204 0.011322
vt 0.961204 0.243687
vt 0.956293 0.243690
vt 0.956293 0.011326
vt 0.962816 0.887521
vt 0.962816 0.876060
vt 0.967728 0.876060
vt 0.967728 0.887521
vt 0.317602 0.802939
vt 0.306144 0.802939
vt 0.306144 0.570442
vt 0.317602 0.570442
vt 0.185287 0.977573
vt 0.185287 0.966112
vt 0.190199 0.966112
vt 0.190199 0.977573
vt 0.584362 0.825861
vt 0.572903 0.825861
vt 0.572903 0.593365
vt 0.584362 0.593365
vt 0.933649 0.266462
vt 0.933649 0.498958
vt 0.928737 0.498958
vt 0.928737 0.266462
vt 0.970211 0.570442
vt 0.970211 0.802807
vt 0.965300 0.802811
vt 0.965300 0.570446
vt 0.212843 0.977573
vt 0.212843 0.966112
vt 0.217754 0.966112
vt 0.217754 0.977573
vt 0.439426 0.826882
vt 0.427967 0.826882
vt 0.427967 0.594385
vt 0.439426 0.594385
vt 0.306144 0.977573
vt 0.306144 0.966112
vt 0.311055 0.966112
vt 0.311055 0.977573
vt 0.473528 0.826882
vt 0.462069 0.826882
vt 0.462069 0.594385
vt 0.473528 0.594385
vt 0.942657 0.570442
vt 0.942657 0.802939
vt 0.937745 0.802939
vt 0.937745 0.570442
vt 0.802687 0.740415
vt 0.802687 0.972780
vt 0.797777 0.972783
vt 0.797777 0.740419
vt 0.192827 0.943468
vt 0.185287 0.943468
vt 0.185287 0.756816
vt 0.192827 0.756816
vt 0.633739 0.220618
vt 0.641924 0.220619
vt 0.641924 0.351599
vt 0.633739 0.351598
vt 0.647087 0.943467
vt 0.639547 0.943467
vt 0.639547 0.756815
vt 0.647087 0.756815
vt 0.534628 0.910717
vt 0.526443 0.910718
vt 0.526443 0.779738
vt 0.534628 0.779737
vt 0.616903 0.570721
vt 0.496259 0.570721
vt 0.496259 0.384069
vt 0.616903 0.384069
vt 0.130181 0.758300
vt 0.011322 0.757046
vt 0.011322 0.570442
vt 0.130181 0.571697
vt 0.677271 0.943467
vt 0.669730 0.943467
vt 0.669730 0.756815
vt 0.677271 0.756815
vt 0.611095 0.351598
vt 0.602910 0.351599
vt 0.602910 0.220619
vt 0.611095 0.220618
vt 0.503799 0.966389
vt 0.496259 0.966389
vt 0.496259 0.779737
vt 0.503799 0.779737
vt 0.076535 0.780944
vt 0.084720 0.780945
vt 0.084720 0.911925
vt 0.076535 0.911924
vt 0.641968 0.197974
vt 0.521324 0.197974
vt 0.521324 0.011322
vt 0.641968 0.011322
vt 0.473615 0.570672
vt 0.351323 0.571742
vt 0.351323 0.385138
vt 0.473615 0.384069
vt 0.283500 0.946741
vt 0.273676 0.946741
vt 0.273676 0.756815
vt 0.283500 0.756815
vt 0.751108 0.361090
vt 0.741286 0.361090
vt 0.741286 0.351267
vt 0.751108 0.351267
vt 0.251032 0.946741
vt 0.241209 0.946741
vt 0.241209 0.756815
vt 0.251032 0.756815
vt 0.783573 0.361090
vt 0.773751 0.361090
vt 0.773751 0.351267
vt 0.783573 0.351267
vt 0.835155 0.930341
vt 0.825331 0.930341
vt 0.825331 0.740415
vt 0.835155 0.740415
vt 0.162643 0.946701
vt 0.152825 0.946693
vt 0.152825 0.756816
vt 0.162643 0.756823
vt 0.716190 0.900578
vt 0.716190 0.831812
vt 0.726014 0.831812
vt 0.726014 0.900578
vt 0.521324 0.289371
vt 0.521324 0.220618
vt 0.580266 0.220618
vt 0.580266 0.289371
vt 0.748658 0.900578
vt 0.748658 0.831812
vt 0.758482 0.831812
vt 0.758482 0.900578
vt 0.716190 0.809168
vt 0.716190 0.740415
vt 0.775133 0.740415
vt 0.775133 0.809168
vt 0.582726 0.848505
vt 0.582726 0.907447
vt 0.572903 0.907447
vt 0.572903 0.848505
vt 0.616826 0.848505
vt 0.616826 0.907414
vt 0.607005 0.907422
vt 0.607005 0.848512
vt 0.427967 0.901919
vt 0.427967 0.849525
vt 0.434516 0.849525
vt 0.434516 0.901919
vt 0.351323 0.833141
vt 0.351323 0.780758
vt 0.393893 0.780758
vt 0.393893 0.833141
vt 0.457160 0.901919
vt 0.457160 0.849525
vt 0.463709 0.849525
vt 0.463709 0.901919
vt 0.011322 0.833328
vt 0.011322 0.780944
vt 0.053892 0.780944
vt 0.053892 0.833328
vt 0.527873 0.312015
vt 0.527873 0.354584
vt 0.521324 0.354584
vt 0.521324 0.312015
vt 0.557064 0.312015
vt 0.557064 0.354560
vt 0.550516 0.354565
vt 0.550516 0.312020
vt 0.112657 0.947665
vt 0.112657 0.921473
vt 0.117950 0.921507
vt 0.117950 0.947699
vt 0.351323 0.881982
vt 0.351323 0.855785
vt 0.355826 0.855785
vt 0.355826 0.881982
vt 0.361391 0.855785
vt 0.361391 0.881982
vt 0.365894 0.855785
vt 0.365894 0.881982
vt 0.716190 0.949414
vt 0.716190 0.923222
vt 0.721483 0.923256
vt 0.721483 0.949448
vt 0.726777 0.923222
vt 0.726777 0.949414
vt 0.388537 0.930822
vt 0.388537 0.904626
vt 0.393040 0.904626
vt 0.393040 0.930822
vt 0.398605 0.904626
vt 0.398605 0.930822
vt 0.839181 0.969275
vt 0.833891 0.970991
vt 0.828601 0.969267
vt 0.825331 0.964763
vt 0.825331 0.959199
vt 0.828601 0.954700
vt 0.833891 0.952985
vt 0.839181 0.954709
vt 0.842450 0.959213
vt 0.842450 0.964777
vt 0.403108 0.904626
vt 0.403108 0.930822
vt 0.107364 0.947699
vt 0.107364 0.921507
vt 0.903199 0.539612
vt 0.897906 0.537892
vt 0.894635 0.533390
vt 0.894635 0.527824
vt 0.897906 0.523322
vt 0.903199 0.521602
vt 0.908492 0.523322
vt 0.911764 0.527824
vt 0.911764 0.533390
vt 0.908492 0.537892
vt 0.754713 0.949414
vt 0.754713 0.923222
vt 0.760006 0.923256
vt 0.760006 0.949448
vt 0.388537 0.881982
vt 0.388537 0.855785
vt 0.393040 0.855785
vt 0.393040 0.881982
vt 0.398605 0.855785
vt 0.398605 0.881982
vt 0.403108 0.855785
vt 0.403108 0.881982
vt 0.925602 0.949455
vt 0.925602 0.923263
vt 0.930895 0.923297
vt 0.930895 0.949489
vt 0.936188 0.923263
vt 0.936188 0.949455
vt 0.011322 0.931008
vt 0.011322 0.904812
vt 0.015824 0.904812
vt 0.015824 0.931008
vt 0.021390 0.904812
vt 0.021390 0.931008
vt 0.025172 0.955367
vt 0.028442 0.959866
vt 0.028442 0.965429
vt 0.025172 0.969933
vt 0.019882 0.971657
vt 0.014592 0.969942
vt 0.011322 0.965443
vt 0.011322 0.959879
vt 0.014592 0.955376
vt 0.019882 0.953652
vt 0.025892 0.904812
vt 0.025892 0.931008
vt 0.749420 0.949448
vt 0.749420 0.923256
vt 0.535007 0.951372
vt 0.529714 0.949652
vt 0.526443 0.945150
vt 0.526443 0.939584
vt 0.529714 0.935082
vt 0.535007 0.933362
vt 0.540300 0.935082
vt 0.543571 0.939584
vt 0.543571 0.945150
vt 0.540300 0.949652
vt 0.433260 0.950755
vt 0.433260 0.924563
vt 0.438553 0.924596
vt 0.438553 0.950788
vt 0.925602 0.851779
vt 0.925602 0.825583
vt 0.930104 0.825583
vt 0.930104 0.851779
vt 0.935670 0.825583
vt 0.935670 0.851779
vt 0.940172 0.825583
vt 0.940172 0.851779
vt 0.461197 0.950755
vt 0.461197 0.924563
vt 0.466490 0.924596
vt 0.466490 0.950788
vt 0.471783 0.924563
vt 0.471783 0.950755
vt 0.011322 0.882168
vt 0.011322 0.855971
vt 0.015824 0.855971
vt 0.015824 0.882168
vt 0.021390 0.855971
vt 0.021390 0.882168
vt 0.365173 0.969756
vt 0.359883 0.971471
vt 0.354592 0.969748
vt 0.351323 0.965244
vt 0.351323 0.959680
vt 0.354592 0.955181
vt 0.359883 0.953466
vt 0.365173 0.955189
vt 0.368442 0.959693
vt 0.368442 0.965257
vt 0.025892 0.855971
vt 0.025892 0.882168
vt 0.427967 0.950788
vt 0.427967 0.924596
vt 0.942972 0.539612
vt 0.937679 0.537892
vt 0.934407 0.533390
vt 0.934407 0.527824
vt 0.937679 0.523322
vt 0.942972 0.521602
vt 0.948265 0.523322
vt 0.951536 0.527824
vt 0.951536 0.533390
vt 0.948265 0.537892
vt 0.611533 0.956257
vt 0.611533 0.930065
vt 0.616826 0.930099
vt 0.616826 0.956291
vt 0.925602 0.900620
vt 0.925602 0.874423
vt 0.930104 0.874423
vt 0.930104 0.900620
vt 0.935670 0.874423
vt 0.935670 0.900620
vt 0.940172 0.874423
vt 0.940172 0.900620
vt 0.572903 0.956283
vt 0.572903 0.930091
vt 0.578196 0.930125
vt 0.578196 0.956317
vt 0.583489 0.930091
vt 0.583489 0.956283
vt 0.351323 0.930822
vt 0.351323 0.904626
vt 0.355826 0.904626
vt 0.355826 0.930822
vt 0.361391 0.904626
vt 0.361391 0.930822
vt 0.883389 0.968568
vt 0.878099 0.970284
vt 0.872809 0.968560
vt 0.869540 0.964056
vt 0.869540 0.958492
vt 0.872809 0.953993
vt 0.878099 0.952278
vt 0.883389 0.954002
vt 0.886659 0.958505
vt 0.886659 0.964069
vt 0.365894 0.904626
vt 0.365894 0.930822
vt 0.606240 0.956291
vt 0.606240 0.930099
vt 0.076156 0.952579
vt 0.070863 0.950859
vt 0.067592 0.946357
vt 0.067592 0.940791
vt 0.070863 0.936289
vt 0.076156 0.934569
vt 0.081449 0.936289
vt 0.084720 0.940791
vt 0.084720 0.946357
vt 0.081449 0.950859
vt 0.872266 0.929634
vt 0.872266 0.826050
vt 0.874925 0.825583
vt 0.874925 0.929168
vt 0.107364 0.898829
vt 0.107364 0.780944
vt 0.109656 0.780944
vt 0.109656 0.898829
vt 0.112490 0.780944
vt 0.112490 0.898829
vt 0.114782 0.780944
vt 0.114782 0.898829
vt 0.897569 0.928275
vt 0.897569 0.826018
vt 0.900263 0.825583
vt 0.900263 0.927839
vt 0.902958 0.826018
vt 0.902958 0.928275
vt 0.306144 0.943468
vt 0.306144 0.825582
vt 0.308436 0.825582
vt 0.308436 0.943468
vt 0.311269 0.825582
vt 0.311269 0.943468
vt 0.813490 0.352932
vt 0.814258 0.355627
vt 0.813490 0.358321
vt 0.811480 0.359987
vt 0.808995 0.359987
vt 0.806985 0.358321
vt 0.806217 0.355627
vt 0.806985 0.352932
vt 0.808995 0.351267
vt 0.811480 0.351267
vt 0.313561 0.825582
vt 0.313561 0.943468
vt 0.869539 0.929266
vt 0.869539 0.825681
vt 0.838487 0.352395
vt 0.841052 0.351267
vt 0.843616 0.351752
vt 0.845202 0.353666
vt 0.845202 0.356276
vt 0.843616 0.358586
vt 0.841052 0.359714
vt 0.838487 0.359229
vt 0.836901 0.357315
vt 0.836901 0.354705
vt 0.268764 0.972987
vt 0.268764 0.969385
vt 0.272366 0.969385
vt 0.272366 0.972987
vt 0.987449 0.039156
vt 0.983847 0.039156
vt 0.983847 0.011322
vt 0.987449 0.011322
vt 0.107364 0.973944
vt 0.107364 0.970342
vt 0.110966 0.970342
vt 0.110966 0.973944
vt 0.987449 0.089634
vt 0.983847 0.089634
vt 0.983847 0.061800
vt 0.987449 0.061800
vt 0.052138 0.855971
vt 0.052138 0.883805
vt 0.048536 0.883805
vt 0.048536 0.855971
vt 0.987448 0.518697
vt 0.987448 0.546515
vt 0.983847 0.546518
vt 0.983847 0.518700
vt 0.716190 0.975693
vt 0.716190 0.972091
vt 0.719792 0.972091
vt 0.719792 0.975693
vt 0.987449 0.294168
vt 0.983847 0.294168
vt 0.983847 0.266334
vt 0.987449 0.266334
vt 0.749420 0.975693
vt 0.749420 0.972091
vt 0.753022 0.972091
vt 0.753022 0.975693
vt 0.987449 0.140111
vt 0.983847 0.140111
vt 0.983847 0.112277
vt 0.987449 0.112277
vt 0.962434 0.923263
vt 0.962434 0.951097
vt 0.958831 0.951097
vt 0.958831 0.923263
vt 0.987448 0.417767
vt 0.987448 0.445586
vt 0.983847 0.445588
vt 0.983847 0.417770
vt 0.925602 0.975734
vt 0.925602 0.972132
vt 0.929204 0.972132
vt 0.929204 0.975734
vt 0.987449 0.344646
vt 0.983847 0.344646
vt 0.983847 0.316812
vt 0.987449 0.316812
vt 0.427967 0.977034
vt 0.427967 0.973432
vt 0.431569 0.973432
vt 0.431569 0.977034
vt 0.987449 0.395124
vt 0.983847 0.395124
vt 0.983847 0.367290
vt 0.987449 0.367290
vt 0.966418 0.825582
vt 0.966418 0.853417
vt 0.962816 0.853417
vt 0.962816 0.825582
vt 0.988678 0.923263
vt 0.988678 0.951082
vt 0.985077 0.951084
vt 0.985077 0.923266
vt 0.867845 0.354869
vt 0.867845 0.351267
vt 0.871448 0.351267
vt 0.871448 0.354869
vt 0.987449 0.190589
vt 0.983847 0.190589
vt 0.983847 0.162755
vt 0.987449 0.162755
vt 0.048536 0.910051
vt 0.048536 0.906449
vt 0.052138 0.906449
vt 0.052138 0.910051
vt 0.987449 0.241067
vt 0.983847 0.241067
vt 0.983847 0.213233
vt 0.987449 0.213233
vt 0.394688 0.953466
vt 0.394688 0.981300
vt 0.391086 0.981300
vt 0.391086 0.953466
vt 0.987449 0.468232
vt 0.987449 0.496050
vt 0.983847 0.496053
vt 0.983847 0.468235
s 1
usemtl prop_kandang_ayam_mat
f 1/1/1 2/2/2 4/3/4 3/4/3
f 3/5/3 4/6/4 8/7/8 7/8/7
f 7/9/7 8/10/8 6/11/6 5/12/5
f 5/13/5 6/14/6 2/15/2 1/16/1
f 3/17/3 7/18/7 5/19/5 1/20/1
f 8/21/8 4/22/4 2/23/2 6/24/6
f 9/25/1 10/26/2 12/27/4 11/28/3
f 11/29/3 12/30/4 16/31/8 15/32/7
f 15/33/7 16/34/8 14/35/6 13/36/5
f 13/37/5 14/38/6 10/39/2 9/40/1
f 11/41/3 15/42/7 13/43/5 9/44/1
f 16/45/8 12/46/4 10/47/2 14/48/6
f 17/49/1 18/50/2 20/51/4 19/52/3
f 19/53/3 20/54/4 24/55/8 23/56/7
f 23/57/7 24/58/8 22/59/6 21/60/5
f 21/61/5 22/62/6 18/63/2 17/64/1
f 19/65/3 23/66/7 21/67/5 17/68/1
f 24/69/8 20/70/4 18/71/2 22/72/6
f 25/73/1 26/74/2 28/75/4 27/76/3
f 27/77/3 28/78/4 32/79/8 31/80/7
f 31/81/7 32/82/8 30/83/6 29/84/5
f 29/85/5 30/86/6 26/87/2 25/88/1
f 27/89/3 31/90/7 29/91/5 25/92/1
f 32/93/8 28/94/4 26/95/2 30/96/6
f 33/97/1 34/98/2 36/99/4 35/100/3
f 35/101/3 36/102/4 40/103/8 39/104/7
f 39/105/7 40/106/8 38/107/6 37/108/5
f 37/109/5 38/110/6 34/111/2 33/112/1
f 35/113/3 39/114/7 37/115/5 33/116/1
f 40/117/8 36/118/4 34/119/2 38/120/6
f 41/121/1 42/122/2 44/123/4 43/124/3
f 43/125/3 44/126/4 48/127/8 47/128/7
f 47/129/7 48/130/8 46/131/6 45/132/5
f 45/133/5 46/134/6 42/135/2 41/136/1
f 43/137/3 47/138/7 45/139/5 41/140/1
f 48/141/8 44/142/4 42/143/2 46/144/6
f 49/145/1 50/146/2 52/147/4 51/148/3
f 51/149/3 52/150/4 56/151/8 55/152/7
f 55/153/7 56/154/8 54/155/6 53/156/5
f 53/157/5 54/158/6 50/159/2 49/160/1
f 51/161/3 55/162/7 53/163/5 49/164/1
f 56/165/8 52/166/4 50/167/2 54/168/6
f 57/169/1 58/170/2 60/171/4 59/172/3
f 59/173/3 60/174/4 64/175/8 63/176/7
f 63/177/7 64/178/8 62/179/6 61/180/5
f 61/181/5 62/182/6 58/183/2 57/184/1
f 59/185/3 63/186/7 61/187/5 57/188/1
f 64/189/8 60/190/4 58/191/2 62/192/6
f 65/193/9 66/194/10 68/195/12 67/196/11
f 67/197/11 68/198/12 72/199/16 71/200/15
f 71/201/15 72/202/16 70/203/14 69/204/13
f 69/205/13 70/206/14 66/207/10 65/208/9
f 67/209/11 71/210/15 69/211/13 65/212/9
f 72/213/16 68/214/12 66/215/10 70/216/14
f 73/217/17 74/218/18 76/219/20 75/220/19
f 75/221/19 76/222/20 80/223/24 79/224/23
f 79/225/23 80/226/24 78/227/22 77/228/21
f 77/229/21 78/230/22 74/231/18 73/232/17
f 75/233/19 79/234/23 77/235/21 73/236/17
f 80/237/24 76/238/20 74/239/18 78/240/22
f 81/241/1 82/242/2 84/243/4 83/244/3
f 83/245/3 84/246/4 88/247/8 87/248/7
f 87/249/7 88/250/8 86/251/6 85/252/5
f 85/253/5 86/254/6 82/255/2 81/256/1
f 83/257/3 87/258/7 85/259/5 81/260/1
f 88/261/8 84/262/4 82/263/2 86/264/6
f 89/265/1 90/266/2 92/267/4 91/268/3
f 91/269/3 92/270/4 96/271/8 95/272/7
f 95/273/7 96/274/8 94/275/6 93/276/5
f 93/277/5 94/278/6 90/279/2 89/280/1
f 91/281/3 95/282/7 93/283/5 89/284/1
f 96/285/8 92/286/4 90/287/2 94/288/6
f 97/289/1 98/290/2 100/291/4 99/292/3
f 99/293/3 100/294/4 104/295/8 103/296/7
f 103/297/7 104/298/8 102/299/6 101/300/5
f 101/301/5 102/302/6 98/303/2 97/304/1
f 99/305/3 103/306/7 101/307/5 97/308/1
f 104/309/8 100/310/4 98/311/2 102/312/6
f 105/313/25 106/314/26 108/315/28 107/316/27
f 107/317/27 108/318/28 110/319/30 109/320/29
f 109/320/29 110/319/30 112/321/32 111/322/31
f 111/322/31 112/321/32 114/323/34 113/324/33
f 113/325/33 114/326/34 116/327/36 115/328/35
f 115/328/35 116/327/36 118/329/38 117/330/37
f 117/331/37 118/332/38 120/333/40 119/334/39
f 119/334/39 120/333/40 122/335/42 121/336/41
f 108/337/28 106/338/26 124/339/44 122/340/42 120/341/40 118/342/38 116/343/36 114/344/34 112/345/32 110/346/30
f 121/336/41 122/335/42 124/347/44 123/348/43
f 123/349/43 124/350/44 106/314/26 105/313/25
f 105/351/25 107/352/27 109/353/29 111/354/31 113/355/33 115/356/35 117/357/37 119/358/39 121/359/41 123/360/43
f 125/361/25 126/362/26 128/363/28 127/364/27
f 127/365/27 128/366/28 130/367/30 129/368/29
f 129/368/29 130/367/30 132/369/32 131/370/31
f 131/370/31 132/369/32 134/371/34 133/372/33
f 133/373/33 134/374/34 136/375/36 135/376/35
f 135/376/35 136/375/36 138/377/38 137/378/37
f 137/379/37 138/380/38 140/381/40 139/382/39
f 139/382/39 140/381/40 142/383/42 141/384/41
f 128/385/28 126/386/26 144/387/44 142/388/42 140/389/40 138/390/38 136/391/36 134/392/34 132/393/32 130/394/30
f 141/384/41 142/383/42 144/395/44 143/396/43
f 143/397/43 144/398/44 126/362/26 125/361/25
f 125/399/25 127/400/27 129/401/29 131/402/31 133/403/33 135/404/35 137/405/37 139/406/39 141/407/41 143/408/43
f 145/409/25 146/410/26 148/411/28 147/412/27
f 147/413/27 148/414/28 150/415/30 149/416/29
f 149/416/29 150/415/30 152/417/32 151/418/31
f 151/418/31 152/417/32 154/419/34 153/420/33
f 153/421/33 154/422/34 156/423/36 155/424/35
f 155/424/35 156/423/36 158/425/38 157/426/37
f 157/427/37 158/428/38 160/429/40 159/430/39
f 159/430/39 160/429/40 162/431/42 161/432/41
f 148/433/28 146/434/26 164/435/44 162/436/42 160/437/40 158/438/38 156/439/36 154/440/34 152/441/32 150/442/30
f 161/432/41 162/431/42 164/443/44 163/444/43
f 163/445/43 164/446/44 146/410/26 145/409/25
f 145/447/25 147/448/27 149/449/29 151/450/31 153/451/33 155/452/35 157/453/37 159/454/39 161/455/41 163/456/43
f 165/457/25 166/458/26 168/459/28 167/460/27
f 167/461/27 168/462/28 170/463/30 169/464/29
f 169/464/29 170/463/30 172/465/32 171/466/31
f 171/466/31 172/465/32 174/467/34 173/468/33
f 173/469/33 174/470/34 176/471/36 175/472/35
f 175/472/35 176/471/36 178/473/38 177/474/37
f 177/475/37 178/476/38 180/477/40 179/478/39
f 179/478/39 180/477/40 182/479/42 181/480/41
f 168/481/28 166/482/26 184/483/44 182/484/42 180/485/40 178/486/38 176/487/36 174/488/34 172/489/32 170/490/30
f 181/480/41 182/479/42 184/491/44 183/492/43
f 183/493/43 184/494/44 166/458/26 165/457/25
f 165/495/25 167/496/27 169/497/29 171/498/31 173/499/33 175/500/35 177/501/37 179/502/39 181/503/41 183/504/43
f 185/505/45 186/506/46 188/507/48 187/508/47
f 187/509/47 188/510/48 190/511/50 189/512/49
f 189/512/49 190/511/50 192/513/52 191/514/51
f 191/514/51 192/513/52 194/515/54 193/516/53
f 193/517/53 194/518/54 196/519/56 195/520/55
f 195/520/55 196/519/56 198/521/58 197/522/57
f 197/523/57 198/524/58 200/525/60 199/526/59
f 199/526/59 200/525/60 202/527/62 201/528/61
f 188/529/48 186/530/46 204/531/64 202/532/62 200/533/60 198/534/58 196/535/56 194/536/54 192/537/52 190/538/50
f 201/528/61 202/527/62 204/539/64 203/540/63
f 203/541/63 204/542/64 186/506/46 185/505/45
f 185/543/45 187/544/47 189/545/49 191/546/51 193/547/53 195/548/55 197/549/57 199/550/59 201/551/61 203/552/63
f 205/553/1 206/554/2 208/555/4 207/556/3
f 207/557/3 208/558/4 212/559/8 211/560/7
f 211/561/7 212/562/8 210/563/6 209/564/5
f 209/565/5 210/566/6 206/567/2 205/568/1
f 207/569/3 211/570/7 209/571/5 205/572/1
f 212/573/8 208/574/4 206/575/2 210/576/6
f 213/577/1 214/578/2 216/579/4 215/580/3
f 215/581/3 216/582/4 220/583/8 219/584/7
f 219/585/7 220/586/8 218/587/6 217/588/5
f 217/589/5 218/590/6 214/591/2 213/592/1
f 215/593/3 219/594/7 217/595/5 213/596/1
f 220/597/8 216/598/4 214/599/2 218/600/6
f 221/601/1 222/602/2 224/603/4 223/604/3
f 223/605/3 224/606/4 228/607/8 227/608/7
f 227/609/7 228/610/8 226/611/6 225/612/5
f 225/613/5 226/614/6 222/615/2 221/616/1
f 223/617/3 227/618/7 225/619/5 221/620/1
f 228/621/8 224/622/4 222/623/2 226/624/6
f 229/625/1 230/626/2 232/627/4 231/628/3
f 231/629/3 232/630/4 236/631/8 235/632/7
f 235/633/7 236/634/8 234/635/6 233/636/5
f 233/637/5 234/638/6 230/639/2 229/640/1
f 231/641/3 235/642/7 233/643/5 229/644/1
f 236/645/8 232/646/4 230/647/2 234/648/6
