# Blender 5.1.1
# www.blender.org
mtllib prop_gembor.mtl
o prop_gembor
v 0.000000 -0.140000 0.000000
v 0.000000 -0.140000 0.260000
v -0.027313 -0.137310 0.000000
v -0.027313 -0.137310 0.260000
v -0.053576 -0.129343 0.000000
v -0.053576 -0.129343 0.260000
v -0.077780 -0.116406 0.000000
v -0.077780 -0.116406 0.260000
v -0.098995 -0.098995 0.000000
v -0.098995 -0.098995 0.260000
v -0.116406 -0.077780 0.000000
v -0.116406 -0.077780 0.260000
v -0.129343 -0.053576 0.000000
v -0.129343 -0.053576 0.260000
v -0.137310 -0.027313 0.000000
v -0.137310 -0.027313 0.260000
v -0.140000 0.000000 0.000000
v -0.140000 0.000000 0.260000
v -0.137310 0.027313 0.000000
v -0.137310 0.027313 0.260000
v -0.129343 0.053576 0.000000
v -0.129343 0.053576 0.260000
v -0.116406 0.077780 0.000000
v -0.116406 0.077780 0.260000
v -0.098995 0.098995 0.000000
v -0.098995 0.098995 0.260000
v -0.077780 0.116406 0.000000
v -0.077780 0.116406 0.260000
v -0.053576 0.129343 0.000000
v -0.053576 0.129343 0.260000
v -0.027313 0.137310 0.000000
v -0.027313 0.137310 0.260000
v 0.000000 0.140000 0.000000
v 0.000000 0.140000 0.260000
v 0.027313 0.137310 0.000000
v 0.027313 0.137310 0.260000
v 0.053576 0.129343 0.000000
v 0.053576 0.129343 0.260000
v 0.077780 0.116406 0.000000
v 0.077780 0.116406 0.260000
v 0.098995 0.098995 0.000000
v 0.098995 0.098995 0.260000
v 0.116406 0.077780 0.000000
v 0.116406 0.077780 0.260000
v 0.129343 0.053576 0.000000
v 0.129343 0.053576 0.260000
v 0.137310 0.027313 0.000000
v 0.137310 0.027313 0.260000
v 0.140000 0.000000 0.000000
v 0.140000 0.000000 0.260000
v 0.137310 -0.027313 0.000000
v 0.137310 -0.027313 0.260000
v 0.129343 -0.053576 0.000000
v 0.129343 -0.053576 0.260000
v 0.116406 -0.077780 0.000000
v 0.116406 -0.077780 0.260000
v 0.098995 -0.098995 0.000000
v 0.098995 -0.098995 0.260000
v 0.077780 -0.116406 0.000000
v 0.077780 -0.116406 0.260000
v 0.053576 -0.129343 0.000000
v 0.053576 -0.129343 0.260000
v 0.027313 -0.137310 0.000000
v 0.027313 -0.137310 0.260000
v 0.000000 -0.075160 0.078729
v 0.000000 -0.329429 0.361124
v -0.005853 -0.074731 0.079114
v -0.005853 -0.329001 0.361509
v -0.011481 -0.073462 0.080257
v -0.011481 -0.327732 0.362652
v -0.016667 -0.071402 0.082112
v -0.016667 -0.325672 0.364507
v -0.021213 -0.068630 0.084608
v -0.021213 -0.322899 0.367003
v -0.024944 -0.065251 0.087650
v -0.024944 -0.319521 0.370045
v -0.027716 -0.061397 0.091121
v -0.027716 -0.315666 0.373516
v -0.029424 -0.057215 0.094886
v -0.029424 -0.311484 0.377281
v -0.030000 -0.052865 0.098802
v -0.030000 -0.307135 0.381198
v -0.029424 -0.048516 0.102719
v -0.029424 -0.302785 0.385114
v -0.027716 -0.044334 0.106484
v -0.027716 -0.298603 0.388879
v -0.024944 -0.040479 0.109955
v -0.024944 -0.294749 0.392350
v -0.021213 -0.037101 0.112997
v -0.021213 -0.291370 0.395392
v -0.016667 -0.034328 0.115493
v -0.016667 -0.288598 0.397888
v -0.011481 -0.032268 0.117348
v -0.011481 -0.286538 0.399743
v -0.005853 -0.030999 0.118491
v -0.005853 -0.285269 0.400886
v 0.000000 -0.030571 0.118876
v 0.000000 -0.284840 0.401271
v 0.005853 -0.030999 0.118491
v 0.005853 -0.285269 0.400886
v 0.011481 -0.032268 0.117348
v 0.011481 -0.286538 0.399743
v 0.016667 -0.034328 0.115493
v 0.016667 -0.288598 0.397888
v 0.021213 -0.037101 0.112997
v 0.021213 -0.291370 0.395392
v 0.024944 -0.040479 0.109955
v 0.024944 -0.294749 0.392350
v 0.027716 -0.044334 0.106484
v 0.027716 -0.298603 0.388879
v 0.029424 -0.048516 0.102719
v 0.029424 -0.302785 0.385114
v 0.030000 -0.052865 0.098802
v 0.030000 -0.307135 0.381198
v 0.029424 -0.057215 0.094886
v 0.029424 -0.311484 0.377281
v 0.027716 -0.061397 0.091121
v 0.027716 -0.315666 0.373516
v 0.024944 -0.065251 0.087650
v 0.024944 -0.319521 0.370045
v 0.021213 -0.068630 0.084608
v 0.021213 -0.322899 0.367003
v 0.016667 -0.071402 0.082112
v 0.016667 -0.325672 0.364507
v 0.011481 -0.073462 0.080257
v 0.011481 -0.327732 0.362652
v 0.005853 -0.074731 0.079114
v 0.005853 -0.329001 0.361509
v 0.000000 -0.334552 0.308705
v 0.000000 -0.354626 0.330999
v -0.011705 -0.333695 0.309476
v -0.011705 -0.353769 0.331771
v -0.022961 -0.331158 0.311761
v -0.022961 -0.351232 0.334055
v -0.033334 -0.327037 0.315471
v -0.033334 -0.347111 0.337765
v -0.042426 -0.321492 0.320464
v -0.042426 -0.341566 0.342758
v -0.049888 -0.314735 0.326548
v -0.049888 -0.334809 0.348842
v -0.055433 -0.307026 0.333489
v -0.055433 -0.327100 0.355783
v -0.058847 -0.298662 0.341020
v -0.058847 -0.318736 0.363315
v -0.060000 -0.289963 0.348853
v -0.060000 -0.310037 0.371147
v -0.058847 -0.281264 0.356685
v -0.058847 -0.301338 0.378980
v -0.055433 -0.272900 0.364217
v -0.055433 -0.292974 0.386511
v -0.049888 -0.265191 0.371158
v -0.049888 -0.285265 0.393452
v -0.042426 -0.258434 0.377242
v -0.042426 -0.278508 0.399536
v -0.033334 -0.252889 0.382235
v -0.033334 -0.272963 0.404529
v -0.022961 -0.248768 0.385945
v -0.022961 -0.268842 0.408239
v -0.011705 -0.246231 0.388229
v -0.011705 -0.266305 0.410524
v 0.000000 -0.245374 0.389001
v 0.000000 -0.265448 0.411295
v 0.011705 -0.246231 0.388229
v 0.011705 -0.266305 0.410524
v 0.022961 -0.248768 0.385945
v 0.022961 -0.268842 0.408239
v 0.033334 -0.252889 0.382235
v 0.033334 -0.272963 0.404529
v 0.042426 -0.258434 0.377242
v 0.042426 -0.278508 0.399536
v 0.049888 -0.265191 0.371158
v 0.049888 -0.285265 0.393452
v 0.055433 -0.272900 0.364217
v 0.055433 -0.292974 0.386511
v 0.058847 -0.281264 0.356685
v 0.058847 -0.301338 0.378980
v 0.060000 -0.289963 0.348853
v 0.060000 -0.310037 0.371147
v 0.058847 -0.298662 0.341020
v 0.058847 -0.318736 0.363315
v 0.055433 -0.307026 0.333489
v 0.055433 -0.327100 0.355783
v 0.049888 -0.314735 0.326548
v 0.049888 -0.334809 0.348842
v 0.042426 -0.321492 0.320464
v 0.042426 -0.341566 0.342758
v 0.033334 -0.327037 0.315471
v 0.033334 -0.347111 0.337765
v 0.022961 -0.331158 0.311761
v 0.022961 -0.351232 0.334055
v 0.011705 -0.333695 0.309476
v 0.011705 -0.353769 0.331771
v 0.000000 0.040000 0.102000
v -0.009000 0.040000 0.104412
v -0.015588 0.040000 0.111000
v -0.018000 0.040000 0.120000
v -0.015588 0.040000 0.129000
v -0.009000 0.040000 0.135588
v 0.000000 0.040000 0.138000
v 0.009000 0.040000 0.135588
v 0.015588 0.040000 0.129000
v 0.018000 0.040000 0.120000
v 0.015588 0.040000 0.111000
v 0.009000 0.040000 0.104412
v 0.000000 0.021987 0.103181
v -0.009000 0.022302 0.105572
v -0.015588 0.023162 0.112104
v -0.018000 0.024337 0.121027
v -0.015588 0.025512 0.129950
v -0.009000 0.026372 0.136482
v 0.000000 0.026686 0.138873
v 0.009000 0.026372 0.136482
v 0.015588 0.025512 0.129950
v 0.018000 0.024337 0.121027
v 0.015588 0.023162 0.112104
v 0.009000 0.022302 0.105572
v 0.000000 0.004283 0.106702
v -0.009000 0.004907 0.109032
v -0.015588 0.006612 0.115396
v -0.018000 0.008942 0.124089
v -0.015588 0.011271 0.132782
v -0.009000 0.012976 0.139146
v 0.000000 0.013600 0.141476
v 0.009000 0.012976 0.139146
v 0.015588 0.011271 0.132782
v 0.018000 0.008942 0.124089
v 0.015588 0.006612 0.115396
v 0.009000 0.004907 0.109032
v 0.000000 -0.012810 0.112505
v -0.009000 -0.011887 0.114733
v -0.015588 -0.009366 0.120820
v -0.018000 -0.005922 0.129134
v -0.015588 -0.002478 0.137449
v -0.009000 0.000043 0.143536
v 0.000000 0.000966 0.145764
v 0.009000 0.000043 0.143536
v 0.015588 -0.002478 0.137449
v 0.018000 -0.005922 0.129134
v 0.015588 -0.009366 0.120820
v 0.009000 -0.011887 0.114733
v 0.000000 -0.029000 0.120489
v -0.009000 -0.027794 0.122577
v -0.015588 -0.024500 0.128283
v -0.018000 -0.020000 0.136077
v -0.015588 -0.015500 0.143871
v -0.009000 -0.012206 0.149577
v 0.000000 -0.011000 0.151665
v 0.009000 -0.012206 0.149577
v 0.015588 -0.015500 0.143871
v 0.018000 -0.020000 0.136077
v 0.015588 -0.024500 0.128283
v 0.009000 -0.027794 0.122577
v 0.000000 -0.044009 0.130517
v -0.009000 -0.042541 0.132430
v -0.015588 -0.038530 0.137657
v -0.018000 -0.033051 0.144798
v -0.015588 -0.027573 0.151938
v -0.009000 -0.023562 0.157165
v 0.000000 -0.022094 0.159078
v 0.009000 -0.023562 0.157165
v 0.015588 -0.027573 0.151938
v 0.018000 -0.033051 0.144798
v 0.015588 -0.038530 0.137657
v 0.009000 -0.042541 0.132430
v 0.000000 -0.057581 0.142419
v -0.009000 -0.055876 0.144124
v -0.015588 -0.051217 0.148783
v -0.018000 -0.044853 0.155147
v -0.015588 -0.038489 0.161511
v -0.009000 -0.033830 0.166170
v 0.000000 -0.032125 0.167875
v 0.009000 -0.033830 0.166170
v 0.015588 -0.038489 0.161511
v 0.018000 -0.044853 0.155147
v 0.015588 -0.051217 0.148783
v 0.009000 -0.055876 0.144124
v 0.000000 -0.069483 0.155991
v -0.009000 -0.067570 0.157459
v -0.015588 -0.062343 0.161470
v -0.018000 -0.055202 0.166949
v -0.015588 -0.048062 0.172427
v -0.009000 -0.042835 0.176438
v 0.000000 -0.040922 0.177906
v 0.009000 -0.042835 0.176438
v 0.015588 -0.048062 0.172427
v 0.018000 -0.055202 0.166949
v 0.015588 -0.062343 0.161470
v 0.009000 -0.067570 0.157459
v 0.000000 -0.079512 0.171000
v -0.009000 -0.077423 0.172206
v -0.015588 -0.071717 0.175500
v -0.018000 -0.063923 0.180000
v -0.015588 -0.056129 0.184500
v -0.009000 -0.050423 0.187794
v 0.000000 -0.048335 0.189000
v 0.009000 -0.050423 0.187794
v 0.015588 -0.056129 0.184500
v 0.018000 -0.063923 0.180000
v 0.015588 -0.071717 0.175500
v 0.009000 -0.077423 0.172206
v 0.000000 -0.087495 0.187190
v -0.009000 -0.085267 0.188113
v -0.015588 -0.079180 0.190634
v -0.018000 -0.070866 0.194078
v -0.015588 -0.062551 0.197522
v -0.009000 -0.056464 0.200043
v 0.000000 -0.054236 0.200966
v 0.009000 -0.056464 0.200043
v 0.015588 -0.062551 0.197522
v 0.018000 -0.070866 0.194078
v 0.015588 -0.079180 0.190634
v 0.009000 -0.085267 0.188113
v 0.000000 -0.093298 0.204283
v -0.009000 -0.090968 0.204907
v -0.015588 -0.084604 0.206612
v -0.018000 -0.075911 0.208942
v -0.015588 -0.067218 0.211271
v -0.009000 -0.060854 0.212976
v 0.000000 -0.058524 0.213600
v 0.009000 -0.060854 0.212976
v 0.015588 -0.067218 0.211271
v 0.018000 -0.075911 0.208942
v 0.015588 -0.084604 0.206612
v 0.009000 -0.090968 0.204907
v 0.000000 -0.096819 0.221987
v -0.009000 -0.094428 0.222302
v -0.015588 -0.087896 0.223162
v -0.018000 -0.078973 0.224337
v -0.015588 -0.070050 0.225512
v -0.009000 -0.063518 0.226372
v 0.000000 -0.061127 0.226686
v 0.009000 -0.063518 0.226372
v 0.015588 -0.070050 0.225512
v 0.018000 -0.078973 0.224337
v 0.015588 -0.087896 0.223162
v 0.009000 -0.094428 0.222302
v 0.000000 -0.098000 0.240000
v -0.009000 -0.095588 0.240000
v -0.015588 -0.089000 0.240000
v -0.018000 -0.080000 0.240000
v -0.015588 -0.071000 0.240000
v -0.009000 -0.064412 0.240000
v 0.000000 -0.062000 0.240000
v 0.009000 -0.064412 0.240000
v 0.015588 -0.071000 0.240000
v 0.018000 -0.080000 0.240000
v 0.015588 -0.089000 0.240000
v 0.009000 -0.095588 0.240000
v -0.000000 -0.096819 0.258013
v -0.009000 -0.094428 0.257698
v -0.015588 -0.087896 0.256838
v -0.018000 -0.078973 0.255663
v -0.015588 -0.070050 0.254488
v -0.009000 -0.063518 0.253628
v -0.000000 -0.061127 0.253314
v 0.009000 -0.063518 0.253628
v 0.015588 -0.070050 0.254488
v 0.018000 -0.078973 0.255663
v 0.015588 -0.087896 0.256838
v 0.009000 -0.094428 0.257698
v -0.000000 -0.093298 0.275717
v -0.009000 -0.090968 0.275093
v -0.015588 -0.084604 0.273388
v -0.018000 -0.075911 0.271058
v -0.015588 -0.067218 0.268729
v -0.009000 -0.060854 0.267024
v -0.000000 -0.058524 0.266400
v 0.009000 -0.060854 0.267024
v 0.015588 -0.067218 0.268729
v 0.018000 -0.075911 0.271058
v 0.015588 -0.084604 0.273388
v 0.009000 -0.090968 0.275093
v -0.000000 -0.087495 0.292810
v -0.009000 -0.085267 0.291887
v -0.015588 -0.079180 0.289366
v -0.018000 -0.070866 0.285922
v -0.015588 -0.062551 0.282478
v -0.009000 -0.056464 0.279957
v -0.000000 -0.054236 0.279034
v 0.009000 -0.056464 0.279957
v 0.015588 -0.062551 0.282478
v 0.018000 -0.070866 0.285922
v 0.015588 -0.079180 0.289366
v 0.009000 -0.085267 0.291887
v -0.000000 -0.079512 0.309000
v -0.009000 -0.077423 0.307794
v -0.015588 -0.071717 0.304500
v -0.018000 -0.063923 0.300000
v -0.015588 -0.056129 0.295500
v -0.009000 -0.050423 0.292206
v -0.000000 -0.048335 0.291000
v 0.009000 -0.050423 0.292206
v 0.015588 -0.056129 0.295500
v 0.018000 -0.063923 0.300000
v 0.015588 -0.071717 0.304500
v 0.009000 -0.077423 0.307794
v -0.000000 -0.069483 0.324009
v -0.009000 -0.067570 0.322541
v -0.015588 -0.062343 0.318530
v -0.018000 -0.055202 0.313051
v -0.015588 -0.048062 0.307573
v -0.009000 -0.042835 0.303562
v -0.000000 -0.040922 0.302094
v 0.009000 -0.042835 0.303562
v 0.015588 -0.048062 0.307573
v 0.018000 -0.055202 0.313051
v 0.015588 -0.062343 0.318530
v 0.009000 -0.067570 0.322541
v -0.000000 -0.057581 0.337581
v -0.009000 -0.055875 0.335876
v -0.015588 -0.051217 0.331217
v -0.018000 -0.044853 0.324853
v -0.015588 -0.038489 0.318489
v -0.009000 -0.033830 0.313830
v -0.000000 -0.032125 0.312125
v 0.009000 -0.033830 0.313830
v 0.015588 -0.038489 0.318489
v 0.018000 -0.044853 0.324853
v 0.015588 -0.051217 0.331217
v 0.009000 -0.055875 0.335876
v -0.000000 -0.044009 0.349483
v -0.009000 -0.042541 0.347570
v -0.015588 -0.038530 0.342343
v -0.018000 -0.033051 0.335202
v -0.015588 -0.027573 0.328062
v -0.009000 -0.023562 0.322835
v -0.000000 -0.022094 0.320922
v 0.009000 -0.023562 0.322835
v 0.015588 -0.027573 0.328062
v 0.018000 -0.033051 0.335202
v 0.015588 -0.038530 0.342343
v 0.009000 -0.042541 0.347570
v -0.000000 -0.029000 0.359511
v -0.009000 -0.027794 0.357423
v -0.015588 -0.024500 0.351717
v -0.018000 -0.020000 0.343923
v -0.015588 -0.015500 0.336129
v -0.009000 -0.012206 0.330423
v -0.000000 -0.011000 0.328335
v 0.009000 -0.012206 0.330423
v 0.015588 -0.015500 0.336129
v 0.018000 -0.020000 0.343923
v 0.015588 -0.024500 0.351717
v 0.009000 -0.027794 0.357423
v -0.000000 -0.012810 0.367495
v -0.009000 -0.011887 0.365267
v -0.015588 -0.009366 0.359180
v -0.018000 -0.005922 0.350866
v -0.015588 -0.002478 0.342551
v -0.009000 0.000043 0.336464
v -0.000000 0.000966 0.334236
v 0.009000 0.000043 0.336464
v 0.015588 -0.002478 0.342551
v 0.018000 -0.005922 0.350866
v 0.015588 -0.009366 0.359180
v 0.009000 -0.011887 0.365267
v -0.000000 0.004283 0.373298
v -0.009000 0.004907 0.370968
v -0.015588 0.006612 0.364604
v -0.018000 0.008942 0.355911
v -0.015588 0.011271 0.347218
v -0.009000 0.012976 0.340854
v -0.000000 0.013600 0.338524
v 0.009000 0.012976 0.340854
v 0.015588 0.011271 0.347218
v 0.018000 0.008942 0.355911
v 0.015588 0.006612 0.364604
v 0.009000 0.004907 0.370968
v -0.000000 0.021987 0.376819
v -0.009000 0.022302 0.374428
v -0.015588 0.023162 0.367896
v -0.018000 0.024337 0.358973
v -0.015588 0.025512 0.350050
v -0.009000 0.026372 0.343518
v -0.000000 0.026686 0.341127
v 0.009000 0.026372 0.343518
v 0.015588 0.025512 0.350050
v 0.018000 0.024337 0.358973
v 0.015588 0.023162 0.367896
v 0.009000 0.022302 0.374428
v -0.000000 0.040000 0.378000
v -0.009000 0.040000 0.375588
v -0.015588 0.040000 0.369000
v -0.018000 0.040000 0.360000
v -0.015588 0.040000 0.351000
v -0.009000 0.040000 0.344412
v -0.000000 0.040000 0.342000
v 0.009000 0.040000 0.344412
v 0.015588 0.040000 0.351000
v 0.018000 0.040000 0.360000
v 0.015588 0.040000 0.369000
v 0.009000 0.040000 0.375588
v -0.000000 0.058013 0.376819
v -0.009000 0.057698 0.374428
v -0.015588 0.056838 0.367896
v -0.018000 0.055663 0.358973
v -0.015588 0.054488 0.350050
v -0.009000 0.053628 0.343518
v -0.000000 0.053314 0.341127
v 0.009000 0.053628 0.343518
v 0.015588 0.054488 0.350050
v 0.018000 0.055663 0.358973
v 0.015588 0.056838 0.367896
v 0.009000 0.057698 0.374428
v -0.000000 0.075717 0.373298
v -0.009000 0.075093 0.370968
v -0.015588 0.073388 0.364604
v -0.018000 0.071058 0.355911
v -0.015588 0.068729 0.347218
v -0.009000 0.067024 0.340854
v -0.000000 0.066400 0.338524
v 0.009000 0.067024 0.340854
v 0.015588 0.068729 0.347218
v 0.018000 0.071058 0.355911
v 0.015588 0.073388 0.364604
v 0.009000 0.075093 0.370968
v -0.000000 0.092810 0.367495
v -0.009000 0.091887 0.365267
v -0.015588 0.089366 0.359180
v -0.018000 0.085922 0.350866
v -0.015588 0.082478 0.342551
v -0.009000 0.079957 0.336464
v -0.000000 0.079034 0.334236
v 0.009000 0.079957 0.336464
v 0.015588 0.082478 0.342551
v 0.018000 0.085922 0.350866
v 0.015588 0.089366 0.359180
v 0.009000 0.091887 0.365267
v -0.000000 0.109000 0.359511
v -0.009000 0.107794 0.357423
v -0.015588 0.104500 0.351717
v -0.018000 0.100000 0.343923
v -0.015588 0.095500 0.336129
v -0.009000 0.092206 0.330423
v -0.000000 0.091000 0.328335
v 0.009000 0.092206 0.330423
v 0.015588 0.095500 0.336129
v 0.018000 0.100000 0.343923
v 0.015588 0.104500 0.351717
v 0.009000 0.107794 0.357423
v -0.000000 0.124009 0.349483
v -0.009000 0.122541 0.347570
v -0.015588 0.118530 0.342343
v -0.018000 0.113051 0.335202
v -0.015588 0.107573 0.328062
v -0.009000 0.103562 0.322835
v -0.000000 0.102094 0.320922
v 0.009000 0.103562 0.322835
v 0.015588 0.107573 0.328062
v 0.018000 0.113051 0.335202
v 0.015588 0.118530 0.342343
v 0.009000 0.122541 0.347570
v -0.000000 0.137581 0.337581
v -0.009000 0.135875 0.335876
v -0.015588 0.131217 0.331217
v -0.018000 0.124853 0.324853
v -0.015588 0.118489 0.318489
v -0.009000 0.113830 0.313830
v -0.000000 0.112125 0.312125
v 0.009000 0.113830 0.313830
v 0.015588 0.118489 0.318489
v 0.018000 0.124853 0.324853
v 0.015588 0.131217 0.331217
v 0.009000 0.135875 0.335876
v -0.000000 0.149483 0.324009
v -0.009000 0.147570 0.322541
v -0.015588 0.142343 0.318530
v -0.018000 0.135202 0.313051
v -0.015588 0.128062 0.307573
v -0.009000 0.122835 0.303562
v -0.000000 0.120922 0.302094
v 0.009000 0.122835 0.303562
v 0.015588 0.128062 0.307573
v 0.018000 0.135202 0.313051
v 0.015588 0.142343 0.318530
v 0.009000 0.147570 0.322541
v -0.000000 0.159512 0.309000
v -0.009000 0.157423 0.307794
v -0.015588 0.151717 0.304500
v -0.018000 0.143923 0.300000
v -0.015588 0.136129 0.295500
v -0.009000 0.130423 0.292206
v -0.000000 0.128335 0.291000
v 0.009000 0.130423 0.292206
v 0.015588 0.136129 0.295500
v 0.018000 0.143923 0.300000
v 0.015588 0.151717 0.304500
v 0.009000 0.157423 0.307794
v -0.000000 0.167495 0.292810
v -0.009000 0.165267 0.291887
v -0.015588 0.159180 0.289366
v -0.018000 0.150866 0.285922
v -0.015588 0.142551 0.282478
v -0.009000 0.136464 0.279957
v -0.000000 0.134236 0.279034
v 0.009000 0.136464 0.279957
v 0.015588 0.142551 0.282478
v 0.018000 0.150866 0.285922
v 0.015588 0.159180 0.289366
v 0.009000 0.165267 0.291887
v -0.000000 0.173298 0.275717
v -0.009000 0.170968 0.275093
v -0.015588 0.164604 0.273388
v -0.018000 0.155911 0.271058
v -0.015588 0.147218 0.268729
v -0.009000 0.140854 0.267024
v -0.000000 0.138524 0.266400
v 0.009000 0.140854 0.267024
v 0.015588 0.147218 0.268729
v 0.018000 0.155911 0.271058
v 0.015588 0.164604 0.273388
v 0.009000 0.170968 0.275093
v -0.000000 0.176819 0.258013
v -0.009000 0.174428 0.257698
v -0.015588 0.167896 0.256838
v -0.018000 0.158973 0.255663
v -0.015588 0.150050 0.254488
v -0.009000 0.143518 0.253628
v -0.000000 0.141127 0.253314
v 0.009000 0.143518 0.253628
v 0.015588 0.150050 0.254488
v 0.018000 0.158973 0.255663
v 0.015588 0.167896 0.256838
v 0.009000 0.174428 0.257698
v 0.000000 0.178000 0.240000
v -0.009000 0.175588 0.240000
v -0.015588 0.169000 0.240000
v -0.018000 0.160000 0.240000
v -0.015588 0.151000 0.240000
v -0.009000 0.144412 0.240000
v 0.000000 0.142000 0.240000
v 0.009000 0.144412 0.240000
v 0.015588 0.151000 0.240000
v 0.018000 0.160000 0.240000
v 0.015588 0.169000 0.240000
v 0.009000 0.175588 0.240000
v 0.000000 0.176819 0.221987
v -0.009000 0.174428 0.222302
v -0.015588 0.167896 0.223162
v -0.018000 0.158973 0.224337
v -0.015588 0.150050 0.225512
v -0.009000 0.143518 0.226372
v 0.000000 0.141127 0.226686
v 0.009000 0.143518 0.226372
v 0.015588 0.150050 0.225512
v 0.018000 0.158973 0.224337
v 0.015588 0.167896 0.223162
v 0.009000 0.174428 0.222302
v 0.000000 0.173298 0.204283
v -0.009000 0.170968 0.204907
v -0.015588 0.164604 0.206612
v -0.018000 0.155911 0.208942
v -0.015588 0.147218 0.211271
v -0.009000 0.140854 0.212976
v 0.000000 0.138524 0.213601
v 0.009000 0.140854 0.212976
v 0.015588 0.147218 0.211271
v 0.018000 0.155911 0.208942
v 0.015588 0.164604 0.206612
v 0.009000 0.170968 0.204907
v 0.000000 0.167495 0.187190
v -0.009000 0.165267 0.188113
v -0.015588 0.159180 0.190634
v -0.018000 0.150866 0.194078
v -0.015588 0.142551 0.197522
v -0.009000 0.136464 0.200043
v 0.000000 0.134236 0.200966
v 0.009000 0.136464 0.200043
v 0.015588 0.142551 0.197522
v 0.018000 0.150866 0.194078
v 0.015588 0.159180 0.190634
v 0.009000 0.165267 0.188113
v 0.000000 0.159512 0.171000
v -0.009000 0.157423 0.172206
v -0.015588 0.151717 0.175500
v -0.018000 0.143923 0.180000
v -0.015588 0.136129 0.184500
v -0.009000 0.130423 0.187794
v 0.000000 0.128335 0.189000
v 0.009000 0.130423 0.187794
v 0.015588 0.136129 0.184500
v 0.018000 0.143923 0.180000
v 0.015588 0.151717 0.175500
v 0.009000 0.157423 0.172206
v 0.000000 0.149483 0.155991
v -0.009000 0.147570 0.157459
v -0.015588 0.142343 0.161470
v -0.018000 0.135202 0.166949
v -0.015588 0.128062 0.172428
v -0.009000 0.122835 0.176438
v 0.000000 0.120922 0.177906
v 0.009000 0.122835 0.176438
v 0.015588 0.128062 0.172428
v 0.018000 0.135202 0.166949
v 0.015588 0.142343 0.161470
v 0.009000 0.147570 0.157459
v 0.000000 0.137581 0.142419
v -0.009000 0.135876 0.144125
v -0.015588 0.131217 0.148783
v -0.018000 0.124853 0.155147
v -0.015588 0.118489 0.161511
v -0.009000 0.113830 0.166170
v 0.000000 0.112125 0.167875
v 0.009000 0.113830 0.166170
v 0.015588 0.118489 0.161511
v 0.018000 0.124853 0.155147
v 0.015588 0.131217 0.148783
v 0.009000 0.135876 0.144125
v 0.000000 0.124009 0.130517
v -0.009000 0.122541 0.132430
v -0.015588 0.118530 0.137657
v -0.018000 0.113051 0.144798
v -0.015588 0.107573 0.151938
v -0.009000 0.103562 0.157165
v 0.000000 0.102094 0.159078
v 0.009000 0.103562 0.157165
v 0.015588 0.107573 0.151938
v 0.018000 0.113051 0.144798
v 0.015588 0.118530 0.137657
v 0.009000 0.122541 0.132430
v 0.000000 0.109000 0.120489
v -0.009000 0.107794 0.122577
v -0.015588 0.104500 0.128283
v -0.018000 0.100000 0.136077
v -0.015588 0.095500 0.143871
v -0.009000 0.092206 0.149577
v 0.000000 0.091000 0.151665
v 0.009000 0.092206 0.149577
v 0.015588 0.095500 0.143871
v 0.018000 0.100000 0.136077
v 0.015588 0.104500 0.128283
v 0.009000 0.107794 0.122577
v 0.000000 0.092810 0.112505
v -0.009000 0.091888 0.114733
v -0.015588 0.089366 0.120820
v -0.018000 0.085922 0.129134
v -0.015588 0.082478 0.137449
v -0.009000 0.079957 0.143536
v 0.000000 0.079034 0.145764
v 0.009000 0.079957 0.143536
v 0.015588 0.082478 0.137449
v 0.018000 0.085922 0.129134
v 0.015588 0.089366 0.120820
v 0.009000 0.091888 0.114733
v 0.000000 0.075717 0.106702
v -0.009000 0.075093 0.109032
v -0.015588 0.073388 0.115396
v -0.018000 0.071058 0.124089
v -0.015588 0.068729 0.132782
v -0.009000 0.067024 0.139146
v 0.000000 0.066400 0.141476
v 0.009000 0.067024 0.139146
v 0.015588 0.068729 0.132782
v 0.018000 0.071058 0.124089
v 0.015588 0.073388 0.115396
v 0.009000 0.075093 0.109032
v 0.000000 0.058013 0.103181
v -0.009000 0.057698 0.105572
v -0.015588 0.056838 0.112104
v -0.018000 0.055663 0.121027
v -0.015588 0.054488 0.129950
v -0.009000 0.053628 0.136482
v 0.000000 0.053314 0.138873
v 0.009000 0.053628 0.136482
v 0.015588 0.054488 0.129950
v 0.018000 0.055663 0.121027
v 0.015588 0.056838 0.112104
v 0.009000 0.057698 0.105572
vn -0.0980 -0.9952 -0.0000
vn -0.2903 -0.9569 -0.0000
vn -0.4714 -0.8819 -0.0000
vn -0.6344 -0.7730 -0.0000
vn -0.7730 -0.6344 -0.0000
vn -0.8819 -0.4714 -0.0000
vn -0.9569 -0.2903 -0.0000
vn -0.9952 -0.0980 -0.0000
vn -0.9952 0.0980 -0.0000
vn -0.9569 0.2903 -0.0000
vn -0.8819 0.4714 -0.0000
vn -0.7730 0.6344 -0.0000
vn -0.6344 0.7730 -0.0000
vn -0.4714 0.8819 -0.0000
vn -0.2903 0.9569 -0.0000
vn -0.0980 0.9952 -0.0000
vn 0.0980 0.9952 -0.0000
vn 0.2903 0.9569 -0.0000
vn 0.4714 0.8819 -0.0000
vn 0.6344 0.7730 -0.0000
vn 0.7730 0.6344 -0.0000
vn 0.8819 0.4714 -0.0000
vn 0.9569 0.2903 -0.0000
vn 0.9952 0.0980 -0.0000
vn 0.9952 -0.0980 -0.0000
vn 0.9569 -0.2903 -0.0000
vn 0.8819 -0.4714 -0.0000
vn 0.7730 -0.6344 -0.0000
vn 0.6344 -0.7730 -0.0000
vn 0.4714 -0.8819 -0.0000
vn -0.0000 -0.0000 1.0000
vn 0.2903 -0.9569 -0.0000
vn 0.0980 -0.9952 -0.0000
vn -0.0000 -0.0000 -1.0000
vn -0.0980 -0.7396 -0.6659
vn -0.2903 -0.7111 -0.6403
vn -0.4714 -0.6554 -0.5901
vn -0.6344 -0.5745 -0.5172
vn -0.7730 -0.4714 -0.4245
vn -0.8819 -0.3503 -0.3154
vn -0.9569 -0.2157 -0.1942
vn -0.9952 -0.0728 -0.0656
vn -0.9952 0.0728 0.0656
vn -0.9569 0.2157 0.1942
vn -0.8819 0.3503 0.3154
vn -0.7730 0.4714 0.4245
vn -0.6344 0.5745 0.5172
vn -0.4714 0.6554 0.5901
vn -0.2903 0.7111 0.6403
vn -0.0980 0.7396 0.6659
vn 0.0980 0.7396 0.6659
vn 0.2903 0.7111 0.6403
vn 0.4714 0.6554 0.5901
vn 0.6344 0.5745 0.5172
vn 0.7730 0.4714 0.4245
vn 0.8819 0.3503 0.3154
vn 0.9569 0.2157 0.1942
vn 0.9952 0.0728 0.0656
vn 0.9952 -0.0728 -0.0656
vn 0.9569 -0.2157 -0.1942
vn 0.8819 -0.3503 -0.3154
vn 0.7730 -0.4714 -0.4245
vn 0.6344 -0.5745 -0.5172
vn 0.4714 -0.6554 -0.5901
vn -0.0000 -0.6691 0.7431
vn 0.2903 -0.7111 -0.6403
vn 0.0980 -0.7396 -0.6659
vn -0.0000 0.6691 -0.7431
vn -0.2583 -0.0632 -0.9640
vn -0.7063 -0.0463 -0.7063
vn -0.9658 -0.0170 -0.2588
vn -0.9658 0.0170 0.2588
vn -0.7063 0.0463 0.7063
vn -0.2583 0.0632 0.9640
vn 0.2583 0.0632 0.9640
vn 0.7063 0.0463 0.7063
vn 0.9658 0.0170 0.2588
vn 0.9658 -0.0170 -0.2588
vn 0.7063 -0.0463 -0.7063
vn 0.2583 -0.0632 -0.9640
vn -0.2583 -0.1885 -0.9475
vn -0.7063 -0.1381 -0.6943
vn -0.9658 -0.0506 -0.2544
vn -0.9658 0.0506 0.2544
vn -0.7063 0.1381 0.6943
vn -0.2583 0.1885 0.9475
vn 0.2583 0.1885 0.9475
vn 0.7063 0.1381 0.6943
vn 0.9658 0.0506 0.2544
vn 0.9658 -0.0506 -0.2544
vn 0.7063 -0.1381 -0.6943
vn 0.2583 -0.1885 -0.9475
vn -0.2583 -0.3105 -0.9148
vn -0.7063 -0.2275 -0.6703
vn -0.9658 -0.0834 -0.2456
vn -0.9658 0.0834 0.2456
vn -0.7063 0.2275 0.6703
vn -0.2583 0.3105 0.9148
vn 0.2583 0.3105 0.9148
vn 0.7063 0.2275 0.6703
vn 0.9658 0.0834 0.2456
vn 0.9658 -0.0834 -0.2456
vn 0.7063 -0.2275 -0.6703
vn 0.2583 -0.3105 -0.9148
vn -0.2583 -0.4273 -0.8664
vn -0.7063 -0.3131 -0.6349
vn -0.9658 -0.1147 -0.2326
vn -0.9658 0.1147 0.2326
vn -0.7063 0.3131 0.6349
vn -0.2583 0.4273 0.8664
vn 0.2583 0.4273 0.8664
vn 0.7063 0.3131 0.6349
vn 0.9658 0.1147 0.2326
vn 0.9658 -0.1147 -0.2326
vn 0.7063 -0.3131 -0.6349
vn 0.2583 -0.4273 -0.8664
vn -0.2583 -0.5367 -0.8033
vn -0.7063 -0.3933 -0.5886
vn -0.9658 -0.1441 -0.2156
vn -0.9658 0.1441 0.2156
vn -0.7063 0.3933 0.5886
vn -0.2583 0.5367 0.8033
vn 0.2583 0.5367 0.8033
vn 0.7063 0.3933 0.5886
vn 0.9658 0.1441 0.2156
vn 0.9658 -0.1441 -0.2156
vn 0.7063 -0.3933 -0.5886
vn 0.2583 -0.5367 -0.8033
vn -0.2583 -0.6370 -0.7263
vn -0.7063 -0.4667 -0.5322
vn -0.9658 -0.1710 -0.1950
vn -0.9658 0.1710 0.1950
vn -0.7063 0.4667 0.5322
vn -0.2583 0.6370 0.7263
vn 0.2583 0.6370 0.7263
vn 0.7063 0.4667 0.5322
vn 0.9658 0.1710 0.1950
vn 0.9658 -0.1710 -0.1950
vn 0.7063 -0.4667 -0.5322
vn 0.2583 -0.6370 -0.7263
vn -0.2583 -0.7263 -0.6370
vn -0.7063 -0.5322 -0.4667
vn -0.9658 -0.1950 -0.1710
vn -0.9658 0.1950 0.1710
vn -0.7063 0.5322 0.4667
vn -0.2583 0.7263 0.6370
vn 0.2583 0.7263 0.6370
vn 0.7063 0.5322 0.4667
vn 0.9658 0.1950 0.1710
vn 0.9658 -0.1950 -0.1710
vn 0.7063 -0.5322 -0.4667
vn 0.2583 -0.7263 -0.6370
vn -0.2583 -0.8033 -0.5367
vn -0.7063 -0.5886 -0.3933
vn -0.9658 -0.2156 -0.1441
vn -0.9658 0.2156 0.1441
vn -0.7063 0.5886 0.3933
vn -0.2583 0.8033 0.5367
vn 0.2583 0.8033 0.5367
vn 0.7063 0.5886 0.3933
vn 0.9658 0.2156 0.1441
vn 0.9658 -0.2156 -0.1441
vn 0.7063 -0.5886 -0.3933
vn 0.2583 -0.8033 -0.5367
vn -0.2583 -0.8664 -0.4273
vn -0.7063 -0.6349 -0.3131
vn -0.9658 -0.2326 -0.1147
vn -0.9658 0.2326 0.1147
vn -0.7063 0.6349 0.3131
vn -0.2583 0.8664 0.4273
vn 0.2583 0.8664 0.4273
vn 0.7063 0.6349 0.3131
vn 0.9658 0.2326 0.1147
vn 0.9658 -0.2326 -0.1147
vn 0.7063 -0.6349 -0.3131
vn 0.2583 -0.8664 -0.4273
vn -0.2583 -0.9148 -0.3105
vn -0.7063 -0.6703 -0.2275
vn -0.9658 -0.2456 -0.0834
vn -0.9658 0.2456 0.0834
vn -0.7063 0.6703 0.2275
vn -0.2583 0.9148 0.3105
vn 0.2583 0.9148 0.3105
vn 0.7063 0.6703 0.2275
vn 0.9658 0.2456 0.0834
vn 0.9658 -0.2456 -0.0834
vn 0.7063 -0.6703 -0.2275
vn 0.2583 -0.9148 -0.3105
vn -0.2583 -0.9475 -0.1885
vn -0.7063 -0.6943 -0.1381
vn -0.9658 -0.2544 -0.0506
vn -0.9658 0.2544 0.0506
vn -0.7063 0.6943 0.1381
vn -0.2583 0.9475 0.1885
vn 0.2583 0.9475 0.1885
vn 0.7063 0.6943 0.1381
vn 0.9658 0.2544 0.0506
vn 0.9658 -0.2544 -0.0506
vn 0.7063 -0.6943 -0.1381
vn 0.2583 -0.9475 -0.1885
vn -0.2583 -0.9640 -0.0632
vn -0.7063 -0.7063 -0.0463
vn -0.9658 -0.2588 -0.0170
vn -0.9658 0.2588 0.0170
vn -0.7063 0.7063 0.0463
vn -0.2583 0.9640 0.0632
vn 0.2583 0.9640 0.0632
vn 0.7063 0.7063 0.0463
vn 0.9658 0.2588 0.0170
vn 0.9658 -0.2588 -0.0170
vn 0.7063 -0.7063 -0.0463
vn 0.2583 -0.9640 -0.0632
vn -0.2583 -0.9640 0.0632
vn -0.7063 -0.7063 0.0463
vn -0.9658 -0.2588 0.0170
vn -0.9658 0.2588 -0.0170
vn -0.7063 0.7063 -0.0463
vn -0.2583 0.9640 -0.0632
vn 0.2583 0.9640 -0.0632
vn 0.7063 0.7063 -0.0463
vn 0.9658 0.2588 -0.0170
vn 0.9658 -0.2588 0.0170
vn 0.7063 -0.7063 0.0463
vn 0.2583 -0.9640 0.0632
vn -0.2583 -0.9475 0.1885
vn -0.7063 -0.6943 0.1381
vn -0.9658 -0.2544 0.0506
vn -0.9658 0.2544 -0.0506
vn -0.7063 0.6943 -0.1381
vn -0.2583 0.9475 -0.1885
vn 0.2583 0.9475 -0.1885
vn 0.7063 0.6943 -0.1381
vn 0.9658 0.2544 -0.0506
vn 0.9658 -0.2544 0.0506
vn 0.7063 -0.6943 0.1381
vn 0.2583 -0.9475 0.1885
vn -0.2583 -0.9148 0.3105
vn -0.7063 -0.6703 0.2275
vn -0.9658 -0.2456 0.0834
vn -0.9658 0.2456 -0.0834
vn -0.7063 0.6703 -0.2275
vn -0.2583 0.9148 -0.3105
vn 0.2583 0.9148 -0.3105
vn 0.7063 0.6703 -0.2275
vn 0.9658 0.2456 -0.0834
vn 0.9658 -0.2456 0.0834
vn 0.7063 -0.6703 0.2275
vn 0.2583 -0.9148 0.3105
vn -0.2583 -0.8664 0.4273
vn -0.7063 -0.6349 0.3131
vn -0.9658 -0.2326 0.1147
vn -0.9658 0.2326 -0.1147
vn -0.7063 0.6349 -0.3131
vn -0.2583 0.8664 -0.4273
vn 0.2583 0.8664 -0.4273
vn 0.7063 0.6349 -0.3131
vn 0.9658 0.2326 -0.1147
vn 0.9658 -0.2326 0.1147
vn 0.7063 -0.6349 0.3131
vn 0.2583 -0.8664 0.4273
vn -0.2583 -0.8033 0.5367
vn -0.7063 -0.5886 0.3933
vn -0.9658 -0.2156 0.1441
vn -0.9658 0.2156 -0.1441
vn -0.7063 0.5886 -0.3933
vn -0.2583 0.8033 -0.5367
vn 0.2583 0.8033 -0.5367
vn 0.7063 0.5886 -0.3933
vn 0.9658 0.2156 -0.1441
vn 0.9658 -0.2156 0.1441
vn 0.7063 -0.5886 0.3933
vn 0.2583 -0.8033 0.5367
vn -0.2583 -0.7263 0.6370
vn -0.7063 -0.5322 0.4667
vn -0.9658 -0.1950 0.1710
vn -0.9658 0.1950 -0.1710
vn -0.7063 0.5322 -0.4667
vn -0.2583 0.7263 -0.6370
vn 0.2583 0.7263 -0.6370
vn 0.7063 0.5322 -0.4667
vn 0.9658 0.1950 -0.1710
vn 0.9658 -0.1950 0.1710
vn 0.7063 -0.5322 0.4667
vn 0.2583 -0.7263 0.6370
vn -0.2583 -0.6370 0.7263
vn -0.7063 -0.4667 0.5322
vn -0.9658 -0.1710 0.1950
vn -0.9658 0.1710 -0.1950
vn -0.7063 0.4667 -0.5322
vn -0.2583 0.6370 -0.7263
vn 0.2583 0.6370 -0.7263
vn 0.7063 0.4667 -0.5322
vn 0.9658 0.1710 -0.1950
vn 0.9658 -0.1710 0.1950
vn 0.7063 -0.4667 0.5322
vn 0.2583 -0.6370 0.7263
vn -0.2583 -0.5367 0.8033
vn -0.7063 -0.3933 0.5886
vn -0.9658 -0.1441 0.2156
vn -0.9658 0.1441 -0.2156
vn -0.7063 0.3933 -0.5886
vn -0.2583 0.5367 -0.8033
vn 0.2583 0.5367 -0.8033
vn 0.7063 0.3933 -0.5886
vn 0.9658 0.1441 -0.2156
vn 0.9658 -0.1441 0.2156
vn 0.7063 -0.3933 0.5886
vn 0.2583 -0.5367 0.8033
vn -0.2583 -0.4273 0.8664
vn -0.7063 -0.3131 0.6349
vn -0.9658 -0.1147 0.2326
vn -0.9658 0.1147 -0.2326
vn -0.7063 0.3131 -0.6349
vn -0.2583 0.4273 -0.8664
vn 0.2583 0.4273 -0.8664
vn 0.7063 0.3131 -0.6349
vn 0.9658 0.1147 -0.2326
vn 0.9658 -0.1147 0.2326
vn 0.7063 -0.3131 0.6349
vn 0.2583 -0.4273 0.8664
vn -0.2583 -0.3105 0.9148
vn -0.7063 -0.2275 0.6703
vn -0.9658 -0.0834 0.2456
vn -0.9658 0.0834 -0.2456
vn -0.7063 0.2275 -0.6703
vn -0.2583 0.3105 -0.9148
vn 0.2583 0.3105 -0.9148
vn 0.7063 0.2275 -0.6703
vn 0.9658 0.0834 -0.2456
vn 0.9658 -0.0834 0.2456
vn 0.7063 -0.2275 0.6703
vn 0.2583 -0.3105 0.9148
vn -0.2583 -0.1885 0.9475
vn -0.7063 -0.1381 0.6943
vn -0.9658 -0.0506 0.2544
vn -0.9658 0.0506 -0.2544
vn -0.7063 0.1381 -0.6943
vn -0.2583 0.1885 -0.9475
vn 0.2583 0.1885 -0.9475
vn 0.7063 0.1381 -0.6943
vn 0.9658 0.0506 -0.2544
vn 0.9658 -0.0506 0.2544
vn 0.7063 -0.1381 0.6943
vn 0.2583 -0.1885 0.9475
vn -0.2583 -0.0632 0.9640
vn -0.7063 -0.0463 0.7063
vn -0.9658 -0.0170 0.2588
vn -0.9658 0.0170 -0.2588
vn -0.7063 0.0463 -0.7063
vn -0.2583 0.0632 -0.9640
vn 0.2583 0.0632 -0.9640
vn 0.7063 0.0463 -0.7063
vn 0.9658 0.0170 -0.2588
vn 0.9658 -0.0170 0.2588
vn 0.7063 -0.0463 0.7063
vn 0.2583 -0.0632 0.9640
vt 1.000000 0.500000
vt 1.000000 1.000000
vt 0.968750 1.000000
vt 0.968750 0.500000
vt 0.937500 1.000000
vt 0.937500 0.500000
vt 0.906250 1.000000
vt 0.906250 0.500000
vt 0.875000 1.000000
vt 0.875000 0.500000
vt 0.843750 1.000000
vt 0.843750 0.500000
vt 0.812500 1.000000
vt 0.812500 0.500000
vt 0.781250 1.000000
vt 0.781250 0.500000
vt 0.750000 1.000000
vt 0.750000 0.500000
vt 0.718750 1.000000
vt 0.718750 0.500000
vt 0.687500 1.000000
vt 0.687500 0.500000
vt 0.656250 1.000000
vt 0.656250 0.500000
vt 0.625000 1.000000
vt 0.625000 0.500000
vt 0.593750 1.000000
vt 0.593750 0.500000
vt 0.562500 1.000000
vt 0.562500 0.500000
vt 0.531250 1.000000
vt 0.531250 0.500000
vt 0.500000 1.000000
vt 0.500000 0.500000
vt 0.468750 1.000000
vt 0.468750 0.500000
vt 0.437500 1.000000
vt 0.437500 0.500000
vt 0.406250 1.000000
vt 0.406250 0.500000
vt 0.375000 1.000000
vt 0.375000 0.500000
vt 0.343750 1.000000
vt 0.343750 0.500000
vt 0.312500 1.000000
vt 0.312500 0.500000
vt 0.281250 1.000000
vt 0.281250 0.500000
vt 0.250000 1.000000
vt 0.250000 0.500000
vt 0.218750 1.000000
vt 0.218750 0.500000
vt 0.187500 1.000000
vt 0.187500 0.500000
vt 0.156250 1.000000
vt 0.156250 0.500000
vt 0.125000 1.000000
vt 0.125000 0.500000
vt 0.093750 1.000000
vt 0.093750 0.500000
vt 0.062500 1.000000
vt 0.062500 0.500000
vt 0.296822 0.485388
vt 0.250000 0.490000
vt 0.203178 0.485388
vt 0.158156 0.471731
vt 0.116663 0.449553
vt 0.080294 0.419706
vt 0.050447 0.383337
vt 0.028269 0.341844
vt 0.014612 0.296822
vt 0.010000 0.250000
vt 0.014612 0.203178
vt 0.028269 0.158156
vt 0.050447 0.116663
vt 0.080294 0.080294
vt 0.116663 0.050447
vt 0.158156 0.028269
vt 0.203178 0.014612
vt 0.250000 0.010000
vt 0.296822 0.014612
vt 0.341844 0.028269
vt 0.383337 0.050447
vt 0.419706 0.080294
vt 0.449553 0.116663
vt 0.471731 0.158156
vt 0.485388 0.203178
vt 0.490000 0.250000
vt 0.485388 0.296822
vt 0.471731 0.341844
vt 0.449553 0.383337
vt 0.419706 0.419706
vt 0.383337 0.449553
vt 0.341844 0.471731
vt 0.031250 1.000000
vt 0.031250 0.500000
vt 0.000000 1.000000
vt 0.000000 0.500000
vt 0.750000 0.490000
vt 0.796822 0.485388
vt 0.841844 0.471731
vt 0.883337 0.449553
vt 0.919706 0.419706
vt 0.949553 0.383337
vt 0.971731 0.341844
vt 0.985388 0.296822
vt 0.990000 0.250000
vt 0.985388 0.203178
vt 0.971731 0.158156
vt 0.949553 0.116663
vt 0.919706 0.080294
vt 0.883337 0.050447
vt 0.841844 0.028269
vt 0.796822 0.014612
vt 0.750000 0.010000
vt 0.703178 0.014612
vt 0.658156 0.028269
vt 0.616663 0.050447
vt 0.580294 0.080294
vt 0.550447 0.116663
vt 0.528269 0.158156
vt 0.514612 0.203178
vt 0.510000 0.250000
vt 0.514612 0.296822
vt 0.528269 0.341844
vt 0.550447 0.383337
vt 0.580294 0.419706
vt 0.616663 0.449553
vt 0.658156 0.471731
vt 0.703178 0.485388
vt 0.250000 0.490000
vt 0.116663 0.449553
vt 0.050447 0.383337
vt 0.010000 0.250000
vt 0.050447 0.116663
vt 0.116663 0.050447
vt 0.250000 0.010000
vt 0.383337 0.050447
vt 0.449553 0.116663
vt 0.490000 0.250000
vt 0.449553 0.383337
vt 0.383337 0.449553
vt 0.750000 0.490000
vt 0.883337 0.449553
vt 0.949553 0.383337
vt 0.949553 0.116663
vt 0.883337 0.050447
vt 0.750000 0.010000
vt 0.616663 0.050447
vt 0.550447 0.116663
vt 0.550447 0.383337
vt 0.616663 0.449553
vt 0.520833 0.500000
vt 0.520833 0.583333
vt 0.500000 0.583333
vt 0.520833 0.666667
vt 0.500000 0.666667
vt 0.520833 0.750000
vt 0.500000 0.750000
vt 0.520833 0.833333
vt 0.500000 0.833333
vt 0.520833 0.916667
vt 0.500000 0.916667
vt 0.520833 1.000000
vt 0.500000 0.000000
vt 0.520833 0.000000
vt 0.520833 0.083333
vt 0.500000 0.083333
vt 0.520833 0.166667
vt 0.500000 0.166667
vt 0.520833 0.250000
vt 0.500000 0.250000
vt 0.520833 0.333333
vt 0.500000 0.333333
vt 0.520833 0.416667
vt 0.500000 0.416667
vt 0.541667 0.500000
vt 0.541667 0.583333
vt 0.541667 0.666667
vt 0.541667 0.750000
vt 0.541667 0.833333
vt 0.541667 0.916667
vt 0.541667 1.000000
vt 0.541667 0.000000
vt 0.541667 0.083333
vt 0.541667 0.166667
vt 0.541667 0.250000
vt 0.541667 0.333333
vt 0.541667 0.416667
vt 0.562500 0.583333
vt 0.562500 0.666667
vt 0.562500 0.750000
vt 0.562500 0.833333
vt 0.562500 0.916667
vt 0.562500 0.000000
vt 0.562500 0.083333
vt 0.562500 0.166667
vt 0.562500 0.250000
vt 0.562500 0.333333
vt 0.562500 0.416667
vt 0.583333 0.500000
vt 0.583333 0.583333
vt 0.583333 0.666667
vt 0.583333 0.750000
vt 0.583333 0.833333
vt 0.583333 0.916667
vt 0.583333 1.000000
vt 0.583333 0.000000
vt 0.583333 0.083333
vt 0.583333 0.166667
vt 0.583333 0.250000
vt 0.583333 0.333333
vt 0.583333 0.416667
vt 0.604167 0.500000
vt 0.604167 0.583333
vt 0.604167 0.666667
vt 0.604167 0.750000
vt 0.604167 0.833333
vt 0.604167 0.916667
vt 0.604167 1.000000
vt 0.604167 0.000000
vt 0.604167 0.083333
vt 0.604167 0.166667
vt 0.604167 0.250000
vt 0.604167 0.333333
vt 0.604167 0.416667
vt 0.625000 0.583333
vt 0.625000 0.666667
vt 0.625000 0.750000
vt 0.625000 0.833333
vt 0.625000 0.916667
vt 0.625000 0.000000
vt 0.625000 0.083333
vt 0.625000 0.166667
vt 0.625000 0.250000
vt 0.625000 0.333333
vt 0.625000 0.416667
vt 0.645833 0.500000
vt 0.645833 0.583333
vt 0.645833 0.666667
vt 0.645833 0.750000
vt 0.645833 0.833333
vt 0.645833 0.916667
vt 0.645833 1.000000
vt 0.645833 0.000000
vt 0.645833 0.083333
vt 0.645833 0.166667
vt 0.645833 0.250000
vt 0.645833 0.333333
vt 0.645833 0.416667
vt 0.666667 0.500000
vt 0.666667 0.583333
vt 0.666667 0.666667
vt 0.666667 0.750000
vt 0.666667 0.833333
vt 0.666667 0.916667
vt 0.666667 1.000000
vt 0.666667 0.000000
vt 0.666667 0.083333
vt 0.666667 0.166667
vt 0.666667 0.250000
vt 0.666667 0.333333
vt 0.666667 0.416667
vt 0.687500 0.583333
vt 0.687500 0.666667
vt 0.687500 0.750000
vt 0.687500 0.833333
vt 0.687500 0.916667
vt 0.687500 0.000000
vt 0.687500 0.083333
vt 0.687500 0.166667
vt 0.687500 0.250000
vt 0.687500 0.333333
vt 0.687500 0.416667
vt 0.708333 0.500000
vt 0.708333 0.583333
vt 0.708333 0.666667
vt 0.708333 0.750000
vt 0.708333 0.833333
vt 0.708333 0.916667
vt 0.708333 1.000000
vt 0.708333 0.000000
vt 0.708333 0.083333
vt 0.708333 0.166667
vt 0.708333 0.250000
vt 0.708333 0.333333
vt 0.708333 0.416667
vt 0.729167 0.500000
vt 0.729167 0.583333
vt 0.729167 0.666667
vt 0.729167 0.750000
vt 0.729167 0.833333
vt 0.729167 0.916667
vt 0.729167 1.000000
vt 0.729167 0.000000
vt 0.729167 0.083333
vt 0.729167 0.166667
vt 0.729167 0.250000
vt 0.729167 0.333333
vt 0.729167 0.416667
vt 0.750000 0.583333
vt 0.750000 0.666667
vt 0.750000 0.750000
vt 0.750000 0.833333
vt 0.750000 0.916667
vt 0.750000 0.000000
vt 0.750000 0.083333
vt 0.750000 0.166667
vt 0.750000 0.250000
vt 0.750000 0.333333
vt 0.750000 0.416667
vt 0.770833 0.500000
vt 0.770833 0.583333
vt 0.770833 0.666667
vt 0.770833 0.750000
vt 0.770833 0.833333
vt 0.770833 0.916667
vt 0.770833 1.000000
vt 0.770833 0.000000
vt 0.770833 0.083333
vt 0.770833 0.166667
vt 0.770833 0.250000
vt 0.770833 0.333333
vt 0.770833 0.416667
vt 0.791667 0.500000
vt 0.791667 0.583333
vt 0.791667 0.666667
vt 0.791667 0.750000
vt 0.791667 0.833333
vt 0.791667 0.916667
vt 0.791667 1.000000
vt 0.791667 0.000000
vt 0.791667 0.083333
vt 0.791667 0.166667
vt 0.791667 0.250000
vt 0.791667 0.333333
vt 0.791667 0.416667
vt 0.812500 0.583333
vt 0.812500 0.666667
vt 0.812500 0.750000
vt 0.812500 0.833333
vt 0.812500 0.916667
vt 0.812500 0.000000
vt 0.812500 0.083333
vt 0.812500 0.166667
vt 0.812500 0.250000
vt 0.812500 0.333333
vt 0.812500 0.416667
vt 0.833333 0.500000
vt 0.833333 0.583333
vt 0.833333 0.666667
vt 0.833333 0.750000
vt 0.833333 0.833333
vt 0.833333 0.916667
vt 0.833333 1.000000
vt 0.833333 0.000000
vt 0.833333 0.083333
vt 0.833333 0.166667
vt 0.833333 0.250000
vt 0.833333 0.333333
vt 0.833333 0.416667
vt 0.854167 0.500000
vt 0.854167 0.583333
vt 0.854167 0.666667
vt 0.854167 0.750000
vt 0.854167 0.833333
vt 0.854167 0.916667
vt 0.854167 1.000000
vt 0.854167 0.000000
vt 0.854167 0.083333
vt 0.854167 0.166667
vt 0.854167 0.250000
vt 0.854167 0.333333
vt 0.854167 0.416667
vt 0.875000 0.583333
vt 0.875000 0.666667
vt 0.875000 0.750000
vt 0.875000 0.833333
vt 0.875000 0.916667
vt 0.875000 0.000000
vt 0.875000 0.083333
vt 0.875000 0.166667
vt 0.875000 0.250000
vt 0.875000 0.333333
vt 0.875000 0.416667
vt 0.895833 0.500000
vt 0.895833 0.583333
vt 0.895833 0.666667
vt 0.895833 0.750000
vt 0.895833 0.833333
vt 0.895833 0.916667
vt 0.895833 1.000000
vt 0.895833 0.000000
vt 0.895833 0.083333
vt 0.895833 0.166667
vt 0.895833 0.250000
vt 0.895833 0.333333
vt 0.895833 0.416667
vt 0.916667 0.500000
vt 0.916667 0.583333
vt 0.916667 0.666667
vt 0.916667 0.750000
vt 0.916667 0.833333
vt 0.916667 0.916667
vt 0.916667 1.000000
vt 0.916667 0.000000
vt 0.916667 0.083333
vt 0.916667 0.166667
vt 0.916667 0.250000
vt 0.916667 0.333333
vt 0.916667 0.416667
vt 0.937500 0.583333
vt 0.937500 0.666667
vt 0.937500 0.750000
vt 0.937500 0.833333
vt 0.937500 0.916667
vt 0.937500 0.000000
vt 0.937500 0.083333
vt 0.937500 0.166667
vt 0.937500 0.250000
vt 0.937500 0.333333
vt 0.937500 0.416667
vt 0.958333 0.500000
vt 0.958333 0.583333
vt 0.958333 0.666667
vt 0.958333 0.750000
vt 0.958333 0.833333
vt 0.958333 0.916667
vt 0.958333 1.000000
vt 0.958333 0.000000
vt 0.958333 0.083333
vt 0.958333 0.166667
vt 0.958333 0.250000
vt 0.958333 0.333333
vt 0.958333 0.416667
vt 0.979167 0.500000
vt 0.979167 0.583333
vt 0.979167 0.666667
vt 0.979167 0.750000
vt 0.979167 0.833333
vt 0.979167 0.916667
vt 0.979167 1.000000
vt 0.979167 0.000000
vt 0.979167 0.083333
vt 0.979167 0.166667
vt 0.979167 0.250000
vt 0.979167 0.333333
vt 0.979167 0.416667
vt 1.000000 0.583333
vt 1.000000 0.666667
vt 1.000000 0.750000
vt 1.000000 0.833333
vt 1.000000 0.916667
vt 1.000000 0.000000
vt 1.000000 0.083333
vt 1.000000 0.166667
vt 1.000000 0.250000
vt 1.000000 0.333333
vt 1.000000 0.416667
vt 0.000000 0.500000
vt 0.020833 0.500000
vt 0.020833 0.583333
vt 0.000000 0.583333
vt 0.020833 0.666667
vt 0.000000 0.666667
vt 0.020833 0.750000
vt 0.000000 0.750000
vt 0.020833 0.833333
vt 0.000000 0.833333
vt 0.020833 0.916667
vt 0.000000 0.916667
vt 0.020833 1.000000
vt 0.000000 1.000000
vt 0.000000 0.000000
vt 0.020833 0.000000
vt 0.020833 0.083333
vt 0.000000 0.083333
vt 0.020833 0.166667
vt 0.000000 0.166667
vt 0.020833 0.250000
vt 0.000000 0.250000
vt 0.020833 0.333333
vt 0.000000 0.333333
vt 0.020833 0.416667
vt 0.000000 0.416667
vt 0.041667 0.500000
vt 0.041667 0.583333
vt 0.041667 0.666667
vt 0.041667 0.750000
vt 0.041667 0.833333
vt 0.041667 0.916667
vt 0.041667 1.000000
vt 0.041667 0.000000
vt 0.041667 0.083333
vt 0.041667 0.166667
vt 0.041667 0.250000
vt 0.041667 0.333333
vt 0.041667 0.416667
vt 0.062500 0.583333
vt 0.062500 0.666667
vt 0.062500 0.750000
vt 0.062500 0.833333
vt 0.062500 0.916667
vt 0.062500 0.000000
vt 0.062500 0.083333
vt 0.062500 0.166667
vt 0.062500 0.250000
vt 0.062500 0.333333
vt 0.062500 0.416667
vt 0.083333 0.500000
vt 0.083333 0.583333
vt 0.083333 0.666667
vt 0.083333 0.750000
vt 0.083333 0.833333
vt 0.083333 0.916667
vt 0.083333 1.000000
vt 0.083333 0.000000
vt 0.083333 0.083333
vt 0.083333 0.166667
vt 0.083333 0.250000
vt 0.083333 0.333333
vt 0.083333 0.416667
vt 0.104167 0.500000
vt 0.104167 0.583333
vt 0.104167 0.666667
vt 0.104167 0.750000
vt 0.104167 0.833333
vt 0.104167 0.916667
vt 0.104167 1.000000
vt 0.104167 0.000000
vt 0.104167 0.083333
vt 0.104167 0.166667
vt 0.104167 0.250000
vt 0.104167 0.333333
vt 0.104167 0.416667
vt 0.125000 0.583333
vt 0.125000 0.666667
vt 0.125000 0.750000
vt 0.125000 0.833333
vt 0.125000 0.916667
vt 0.125000 0.000000
vt 0.125000 0.083333
vt 0.125000 0.166667
vt 0.125000 0.250000
vt 0.125000 0.333333
vt 0.125000 0.416667
vt 0.145833 0.500000
vt 0.145833 0.583333
vt 0.145833 0.666667
vt 0.145833 0.750000
vt 0.145833 0.833333
vt 0.145833 0.916667
vt 0.145833 1.000000
vt 0.145833 0.000000
vt 0.145833 0.083333
vt 0.145833 0.166667
vt 0.145833 0.250000
vt 0.145833 0.333333
vt 0.145833 0.416667
vt 0.166667 0.500000
vt 0.166667 0.583333
vt 0.166667 0.666667
vt 0.166667 0.750000
vt 0.166667 0.833333
vt 0.166667 0.916667
vt 0.166667 1.000000
vt 0.166667 0.000000
vt 0.166667 0.083333
vt 0.166667 0.166667
vt 0.166667 0.250000
vt 0.166667 0.333333
vt 0.166667 0.416667
vt 0.187500 0.583333
vt 0.187500 0.666667
vt 0.187500 0.750000
vt 0.187500 0.833333
vt 0.187500 0.916667
vt 0.187500 0.000000
vt 0.187500 0.083333
vt 0.187500 0.166667
vt 0.187500 0.250000
vt 0.187500 0.333333
vt 0.187500 0.416667
vt 0.208333 0.500000
vt 0.208333 0.583333
vt 0.208333 0.666667
vt 0.208333 0.750000
vt 0.208333 0.833333
vt 0.208333 0.916667
vt 0.208333 1.000000
vt 0.208333 0.000000
vt 0.208333 0.083333
vt 0.208333 0.166667
vt 0.208333 0.250000
vt 0.208333 0.333333
vt 0.208333 0.416667
vt 0.229167 0.500000
vt 0.229167 0.583333
vt 0.229167 0.666667
vt 0.229167 0.750000
vt 0.229167 0.833333
vt 0.229167 0.916667
vt 0.229167 1.000000
vt 0.229167 0.000000
vt 0.229167 0.083333
vt 0.229167 0.166667
vt 0.229167 0.250000
vt 0.229167 0.333333
vt 0.229167 0.416667
vt 0.250000 0.583333
vt 0.250000 0.666667
vt 0.250000 0.750000
vt 0.250000 0.833333
vt 0.250000 0.916667
vt 0.250000 0.000000
vt 0.250000 0.083333
vt 0.250000 0.166667
vt 0.250000 0.250000
vt 0.250000 0.333333
vt 0.250000 0.416667
vt 0.270833 0.500000
vt 0.270833 0.583333
vt 0.270833 0.666667
vt 0.270833 0.750000
vt 0.270833 0.833333
vt 0.270833 0.916667
vt 0.270833 1.000000
vt 0.270833 0.000000
vt 0.270833 0.083333
vt 0.270833 0.166667
vt 0.270833 0.250000
vt 0.270833 0.333333
vt 0.270833 0.416667
vt 0.291667 0.500000
vt 0.291667 0.583333
vt 0.291667 0.666667
vt 0.291667 0.750000
vt 0.291667 0.833333
vt 0.291667 0.916667
vt 0.291667 1.000000
vt 0.291667 0.000000
vt 0.291667 0.083333
vt 0.291667 0.166667
vt 0.291667 0.250000
vt 0.291667 0.333333
vt 0.291667 0.416667
vt 0.312500 0.583333
vt 0.312500 0.666667
vt 0.312500 0.750000
vt 0.312500 0.833333
vt 0.312500 0.916667
vt 0.312500 0.000000
vt 0.312500 0.083333
vt 0.312500 0.166667
vt 0.312500 0.250000
vt 0.312500 0.333333
vt 0.312500 0.416667
vt 0.333333 0.500000
vt 0.333333 0.583333
vt 0.333333 0.666667
vt 0.333333 0.750000
vt 0.333333 0.833333
vt 0.333333 0.916667
vt 0.333333 1.000000
vt 0.333333 0.000000
vt 0.333333 0.083333
vt 0.333333 0.166667
vt 0.333333 0.250000
vt 0.333333 0.333333
vt 0.333333 0.416667
vt 0.354167 0.500000
vt 0.354167 0.583333
vt 0.354167 0.666667
vt 0.354167 0.750000
vt 0.354167 0.833333
vt 0.354167 0.916667
vt 0.354167 1.000000
vt 0.354167 0.000000
vt 0.354167 0.083333
vt 0.354167 0.166667
vt 0.354167 0.250000
vt 0.354167 0.333333
vt 0.354167 0.416667
vt 0.375000 0.583333
vt 0.375000 0.666667
vt 0.375000 0.750000
vt 0.375000 0.833333
vt 0.375000 0.916667
vt 0.375000 0.000000
vt 0.375000 0.083333
vt 0.375000 0.166667
vt 0.375000 0.250000
vt 0.375000 0.333333
vt 0.375000 0.416667
vt 0.395833 0.500000
vt 0.395833 0.583333
vt 0.395833 0.666667
vt 0.395833 0.750000
vt 0.395833 0.833333
vt 0.395833 0.916667
vt 0.395833 1.000000
vt 0.395833 0.000000
vt 0.395833 0.083333
vt 0.395833 0.166667
vt 0.395833 0.250000
vt 0.395833 0.333333
vt 0.395833 0.416667
vt 0.416667 0.500000
vt 0.416667 0.583333
vt 0.416667 0.666667
vt 0.416667 0.750000
vt 0.416667 0.833333
vt 0.416667 0.916667
vt 0.416667 1.000000
vt 0.416667 0.000000
vt 0.416667 0.083333
vt 0.416667 0.166667
vt 0.416667 0.250000
vt 0.416667 0.333333
vt 0.416667 0.416667
vt 0.437500 0.583333
vt 0.437500 0.666667
vt 0.437500 0.750000
vt 0.437500 0.833333
vt 0.437500 0.916667
vt 0.437500 0.000000
vt 0.437500 0.083333
vt 0.437500 0.166667
vt 0.437500 0.250000
vt 0.437500 0.333333
vt 0.437500 0.416667
vt 0.458333 0.500000
vt 0.458333 0.583333
vt 0.458333 0.666667
vt 0.458333 0.750000
vt 0.458333 0.833333
vt 0.458333 0.916667
vt 0.458333 1.000000
vt 0.458333 0.000000
vt 0.458333 0.083333
vt 0.458333 0.166667
vt 0.458333 0.250000
vt 0.458333 0.333333
vt 0.458333 0.416667
vt 0.479167 0.500000
vt 0.479167 0.583333
vt 0.479167 0.666667
vt 0.479167 0.750000
vt 0.479167 0.833333
vt 0.479167 0.916667
vt 0.479167 1.000000
vt 0.479167 0.000000
vt 0.479167 0.083333
vt 0.479167 0.166667
vt 0.479167 0.250000
vt 0.479167 0.333333
vt 0.479167 0.416667
s 0
usemtl mat_gembor
f 1/1/1 2/2/1 4/3/1 3/4/1
f 3/4/2 4/3/2 6/5/2 5/6/2
f 5/6/3 6/5/3 8/7/3 7/8/3
f 7/8/4 8/7/4 10/9/4 9/10/4
f 9/10/5 10/9/5 12/11/5 11/12/5
f 11/12/6 12/11/6 14/13/6 13/14/6
f 13/14/7 14/13/7 16/15/7 15/16/7
f 15/16/8 16/15/8 18/17/8 17/18/8
f 17/18/9 18/17/9 20/19/9 19/20/9
f 19/20/10 20/19/10 22/21/10 21/22/10
f 21/22/11 22/21/11 24/23/11 23/24/11
f 23/24/12 24/23/12 26/25/12 25/26/12
f 25/26/13 26/25/13 28/27/13 27/28/13
f 27/28/14 28/27/14 30/29/14 29/30/14
f 29/30/15 30/29/15 32/31/15 31/32/15
f 31/32/16 32/31/16 34/33/16 33/34/16
f 33/34/17 34/33/17 36/35/17 35/36/17
f 35/36/18 36/35/18 38/37/18 37/38/18
f 37/38/19 38/37/19 40/39/19 39/40/19
f 39/40/20 40/39/20 42/41/20 41/42/20
f 41/42/21 42/41/21 44/43/21 43/44/21
f 43/44/22 44/43/22 46/45/22 45/46/22
f 45/46/23 46/45/23 48/47/23 47/48/23
f 47/48/24 48/47/24 50/49/24 49/50/24
f 49/50/25 50/49/25 52/51/25 51/52/25
f 51/52/26 52/51/26 54/53/26 53/54/26
f 53/54/27 54/53/27 56/55/27 55/56/27
f 55/56/28 56/55/28 58/57/28 57/58/28
f 57/58/29 58/57/29 60/59/29 59/60/29
f 59/60/30 60/59/30 62/61/30 61/62/30
f 4/63/31 2/64/31 64/65/31 62/66/31 60/67/31 58/68/31 56/69/31 54/70/31 52/71/31 50/72/31 48/73/31 46/74/31 44/75/31 42/76/31 40/77/31 38/78/31 36/79/31 34/80/31 32/81/31 30/82/31 28/83/31 26/84/31 24/85/31 22/86/31 20/87/31 18/88/31 16/89/31 14/90/31 12/91/31 10/92/31 8/93/31 6/94/31
f 61/62/32 62/61/32 64/95/32 63/96/32
f 63/96/33 64/95/33 2/97/33 1/98/33
f 1/99/34 3/100/34 5/101/34 7/102/34 9/103/34 11/104/34 13/105/34 15/106/34 17/107/34 19/108/34 21/109/34 23/110/34 25/111/34 27/112/34 29/113/34 31/114/34 33/115/34 35/116/34 37/117/34 39/118/34 41/119/34 43/120/34 45/121/34 47/122/34 49/123/34 51/124/34 53/125/34 55/126/34 57/127/34 59/128/34 61/129/34 63/130/34
f 65/1/35 66/2/35 68/3/35 67/4/35
f 67/4/36 68/3/36 70/5/36 69/6/36
f 69/6/37 70/5/37 72/7/37 71/8/37
f 71/8/38 72/7/38 74/9/38 73/10/38
f 73/10/39 74/9/39 76/11/39 75/12/39
f 75/12/40 76/11/40 78/13/40 77/14/40
f 77/14/41 78/13/41 80/15/41 79/16/41
f 79/16/42 80/15/42 82/17/42 81/18/42
f 81/18/43 82/17/43 84/19/43 83/20/43
f 83/20/44 84/19/44 86/21/44 85/22/44
f 85/22/45 86/21/45 88/23/45 87/24/45
f 87/24/46 88/23/46 90/25/46 89/26/46
f 89/26/47 90/25/47 92/27/47 91/28/47
f 91/28/48 92/27/48 94/29/48 93/30/48
f 93/30/49 94/29/49 96/31/49 95/32/49
f 95/32/50 96/31/50 98/33/50 97/34/50
f 97/34/51 98/33/51 100/35/51 99/36/51
f 99/36/52 100/35/52 102/37/52 101/38/52
f 101/38/53 102/37/53 104/39/53 103/40/53
f 103/40/54 104/39/54 106/41/54 105/42/54
f 105/42/55 106/41/55 108/43/55 107/44/55
f 107/44/56 108/43/56 110/45/56 109/46/56
f 109/46/57 110/45/57 112/47/57 111/48/57
f 111/48/58 112/47/58 114/49/58 113/50/58
f 113/50/59 114/49/59 116/51/59 115/52/59
f 115/52/60 116/51/60 118/53/60 117/54/60
f 117/54/61 118/53/61 120/55/61 119/56/61
f 119/56/62 120/55/62 122/57/62 121/58/62
f 121/58/63 122/57/63 124/59/63 123/60/63
f 123/60/64 124/59/64 126/61/64 125/62/64
f 68/63/65 66/131/65 128/65/65 126/66/65 124/132/65 122/68/65 120/133/65 118/70/65 116/71/65 114/134/65 112/73/65 110/74/65 108/135/65 106/76/65 104/136/65 102/78/65 100/79/65 98/137/65 96/81/65 94/82/65 92/138/65 90/84/65 88/139/65 86/86/65 84/87/65 82/140/65 80/89/65 78/90/65 76/141/65 74/92/65 72/142/65 70/94/65
f 125/62/66 126/61/66 128/95/66 127/96/66
f 127/96/67 128/95/67 66/97/67 65/98/67
f 65/143/68 67/100/68 69/101/68 71/144/68 73/103/68 75/145/68 77/105/68 79/106/68 81/107/68 83/108/68 85/109/68 87/146/68 89/111/68 91/147/68 93/113/68 95/114/68 97/148/68 99/116/68 101/117/68 103/149/68 105/119/68 107/150/68 109/121/68 111/122/68 113/123/68 115/124/68 117/125/68 119/151/68 121/127/68 123/152/68 125/129/68 127/130/68
f 129/1/35 130/2/35 132/3/35 131/4/35
f 131/4/36 132/3/36 134/5/36 133/6/36
f 133/6/37 134/5/37 136/7/37 135/8/37
f 135/8/38 136/7/38 138/9/38 137/10/38
f 137/10/39 138/9/39 140/11/39 139/12/39
f 139/12/40 140/11/40 142/13/40 141/14/40
f 141/14/41 142/13/41 144/15/41 143/16/41
f 143/16/42 144/15/42 146/17/42 145/18/42
f 145/18/43 146/17/43 148/19/43 147/20/43
f 147/20/44 148/19/44 150/21/44 149/22/44
f 149/22/45 150/21/45 152/23/45 151/24/45
f 151/24/46 152/23/46 154/25/46 153/26/46
f 153/26/47 154/25/47 156/27/47 155/28/47
f 155/28/48 156/27/48 158/29/48 157/30/48
f 157/30/49 158/29/49 160/31/49 159/32/49
f 159/32/50 160/31/50 162/33/50 161/34/50
f 161/34/51 162/33/51 164/35/51 163/36/51
f 163/36/52 164/35/52 166/37/52 165/38/52
f 165/38/53 166/37/53 168/39/53 167/40/53
f 167/40/54 168/39/54 170/41/54 169/42/54
f 169/42/55 170/41/55 172/43/55 171/44/55
f 171/44/56 172/43/56 174/45/56 173/46/56
f 173/46/57 174/45/57 176/47/57 175/48/57
f 175/48/58 176/47/58 178/49/58 177/50/58
f 177/50/59 178/49/59 180/51/59 179/52/59
f 179/52/60 180/51/60 182/53/60 181/54/60
f 181/54/61 182/53/61 184/55/61 183/56/61
f 183/56/62 184/55/62 186/57/62 185/58/62
f 185/58/63 186/57/63 188/59/63 187/60/63
f 187/60/64 188/59/64 190/61/64 189/62/64
f 132/63/65 130/131/65 192/65/65 190/66/65 188/132/65 186/68/65 184/133/65 182/70/65 180/71/65 178/134/65 176/73/65 174/74/65 172/135/65 170/76/65 168/136/65 166/78/65 164/79/65 162/137/65 160/81/65 158/82/65 156/138/65 154/84/65 152/139/65 150/86/65 148/87/65 146/140/65 144/89/65 142/90/65 140/141/65 138/92/65 136/142/65 134/94/65
f 189/62/66 190/61/66 192/95/66 191/96/66
f 191/96/67 192/95/67 130/97/67 129/98/67
f 129/143/68 131/100/68 133/101/68 135/144/68 137/103/68 139/145/68 141/105/68 143/106/68 145/107/68 147/108/68 149/109/68 151/146/68 153/111/68 155/147/68 157/113/68 159/114/68 161/148/68 163/116/68 165/117/68 167/149/68 169/119/68 171/150/68 173/121/68 175/122/68 177/123/68 179/124/68 181/125/68 183/151/68 185/127/68 187/152/68 189/129/68 191/130/68
f 193/34/69 205/153/69 206/154/69 194/155/69
f 194/155/70 206/154/70 207/156/70 195/157/70
f 195/157/71 207/156/71 208/158/71 196/159/71
f 196/159/72 208/158/72 209/160/72 197/161/72
f 197/161/73 209/160/73 210/162/73 198/163/73
f 198/163/74 210/162/74 211/164/74 199/33/74
f 199/165/75 211/166/75 212/167/75 200/168/75
f 200/168/76 212/167/76 213/169/76 201/170/76
f 201/170/77 213/169/77 214/171/77 202/172/77
f 202/172/78 214/171/78 215/173/78 203/174/78
f 203/174/79 215/173/79 216/175/79 204/176/79
f 204/176/80 216/175/80 205/153/80 193/34/80
f 205/153/81 217/177/81 218/178/81 206/154/81
f 206/154/82 218/178/82 219/179/82 207/156/82
f 207/156/83 219/179/83 220/180/83 208/158/83
f 208/158/84 220/180/84 221/181/84 209/160/84
f 209/160/85 221/181/85 222/182/85 210/162/85
f 210/162/86 222/182/86 223/183/86 211/164/86
f 211/166/87 223/184/87 224/185/87 212/167/87
f 212/167/88 224/185/88 225/186/88 213/169/88
f 213/169/89 225/186/89 226/187/89 214/171/89
f 214/171/90 226/187/90 227/188/90 215/173/90
f 215/173/91 227/188/91 228/189/91 216/175/91
f 216/175/92 228/189/92 217/177/92 205/153/92
f 217/177/93 229/30/93 230/190/93 218/178/93
f 218/178/94 230/190/94 231/191/94 219/179/94
f 219/179/95 231/191/95 232/192/95 220/180/95
f 220/180/96 232/192/96 233/193/96 221/181/96
f 221/181/97 233/193/97 234/194/97 222/182/97
f 222/182/98 234/194/98 235/29/98 223/183/98
f 223/184/99 235/195/99 236/196/99 224/185/99
f 224/185/100 236/196/100 237/197/100 225/186/100
f 225/186/101 237/197/101 238/198/101 226/187/101
f 226/187/102 238/198/102 239/199/102 227/188/102
f 227/188/103 239/199/103 240/200/103 228/189/103
f 228/189/104 240/200/104 229/30/104 217/177/104
f 229/30/105 241/201/105 242/202/105 230/190/105
f 230/190/106 242/202/106 243/203/106 231/191/106
f 231/191/107 243/203/107 244/204/107 232/192/107
f 232/192/108 244/204/108 245/205/108 233/193/108
f 233/193/109 245/205/109 246/206/109 234/194/109
f 234/194/110 246/206/110 247/207/110 235/29/110
f 235/195/111 247/208/111 248/209/111 236/196/111
f 236/196/112 248/209/112 249/210/112 237/197/112
f 237/197/113 249/210/113 250/211/113 238/198/113
f 238/198/114 250/211/114 251/212/114 239/199/114
f 239/199/115 251/212/115 252/213/115 240/200/115
f 240/200/116 252/213/116 241/201/116 229/30/116
f 241/201/117 253/214/117 254/215/117 242/202/117
f 242/202/118 254/215/118 255/216/118 243/203/118
f 243/203/119 255/216/119 256/217/119 244/204/119
f 244/204/120 256/217/120 257/218/120 245/205/120
f 245/205/121 257/218/121 258/219/121 246/206/121
f 246/206/122 258/219/122 259/220/122 247/207/122
f 247/208/123 259/221/123 260/222/123 248/209/123
f 248/209/124 260/222/124 261/223/124 249/210/124
f 249/210/125 261/223/125 262/224/125 250/211/125
f 250/211/126 262/224/126 263/225/126 251/212/126
f 251/212/127 263/225/127 264/226/127 252/213/127
f 252/213/128 264/226/128 253/214/128 241/201/128
f 253/214/129 265/26/129 266/227/129 254/215/129
f 254/215/130 266/227/130 267/228/130 255/216/130
f 255/216/131 267/228/131 268/229/131 256/217/131
f 256/217/132 268/229/132 269/230/132 257/218/132
f 257/218/133 269/230/133 270/231/133 258/219/133
f 258/219/134 270/231/134 271/25/134 259/220/134
f 259/221/135 271/232/135 272/233/135 260/222/135
f 260/222/136 272/233/136 273/234/136 261/223/136
f 261/223/137 273/234/137 274/235/137 262/224/137
f 262/224/138 274/235/138 275/236/138 263/225/138
f 263/225/139 275/236/139 276/237/139 264/226/139
f 264/226/140 276/237/140 265/26/140 253/214/140
f 265/26/141 277/238/141 278/239/141 266/227/141
f 266/227/142 278/239/142 279/240/142 267/228/142
f 267/228/143 279/240/143 280/241/143 268/229/143
f 268/229/144 280/241/144 281/242/144 269/230/144
f 269/230/145 281/242/145 282/243/145 270/231/145
f 270/231/146 282/243/146 283/244/146 271/25/146
f 271/232/147 283/245/147 284/246/147 272/233/147
f 272/233/148 284/246/148 285/247/148 273/234/148
f 273/234/149 285/247/149 286/248/149 274/235/149
f 274/235/150 286/248/150 287/249/150 275/236/150
f 275/236/151 287/249/151 288/250/151 276/237/151
f 276/237/152 288/250/152 277/238/152 265/26/152
f 277/238/153 289/251/153 290/252/153 278/239/153
f 278/239/154 290/252/154 291/253/154 279/240/154
f 279/240/155 291/253/155 292/254/155 280/241/155
f 280/241/156 292/254/156 293/255/156 281/242/156
f 281/242/157 293/255/157 294/256/157 282/243/157
f 282/243/158 294/256/158 295/257/158 283/244/158
f 283/245/159 295/258/159 296/259/159 284/246/159
f 284/246/160 296/259/160 297/260/160 285/247/160
f 285/247/161 297/260/161 298/261/161 286/248/161
f 286/248/162 298/261/162 299/262/162 287/249/162
f 287/249/163 299/262/163 300/263/163 288/250/163
f 288/250/164 300/263/164 289/251/164 277/238/164
f 289/251/165 301/22/165 302/264/165 290/252/165
f 290/252/166 302/264/166 303/265/166 291/253/166
f 291/253/167 303/265/167 304/266/167 292/254/167
f 292/254/168 304/266/168 305/267/168 293/255/168
f 293/255/169 305/267/169 306/268/169 294/256/169
f 294/256/170 306/268/170 307/21/170 295/257/170
f 295/258/171 307/269/171 308/270/171 296/259/171
f 296/259/172 308/270/172 309/271/172 297/260/172
f 297/260/173 309/271/173 310/272/173 298/261/173
f 298/261/174 310/272/174 311/273/174 299/262/174
f 299/262/175 311/273/175 312/274/175 300/263/175
f 300/263/176 312/274/176 301/22/176 289/251/176
f 301/22/177 313/275/177 314/276/177 302/264/177
f 302/264/178 314/276/178 315/277/178 303/265/178
f 303/265/179 315/277/179 316/278/179 304/266/179
f 304/266/180 316/278/180 317/279/180 305/267/180
f 305/267/181 317/279/181 318/280/181 306/268/181
f 306/268/182 318/280/182 319/281/182 307/21/182
f 307/269/183 319/282/183 320/283/183 308/270/183
f 308/270/184 320/283/184 321/284/184 309/271/184
f 309/271/185 321/284/185 322/285/185 310/272/185
f 310/272/186 322/285/186 323/286/186 311/273/186
f 311/273/187 323/286/187 324/287/187 312/274/187
f 312/274/188 324/287/188 313/275/188 301/22/188
f 313/275/189 325/288/189 326/289/189 314/276/189
f 314/276/190 326/289/190 327/290/190 315/277/190
f 315/277/191 327/290/191 328/291/191 316/278/191
f 316/278/192 328/291/192 329/292/192 317/279/192
f 317/279/193 329/292/193 330/293/193 318/280/193
f 318/280/194 330/293/194 331/294/194 319/281/194
f 319/282/195 331/295/195 332/296/195 320/283/195
f 320/283/196 332/296/196 333/297/196 321/284/196
f 321/284/197 333/297/197 334/298/197 322/285/197
f 322/285/198 334/298/198 335/299/198 323/286/198
f 323/286/199 335/299/199 336/300/199 324/287/199
f 324/287/200 336/300/200 325/288/200 313/275/200
f 325/288/201 337/18/201 338/301/201 326/289/201
f 326/289/202 338/301/202 339/302/202 327/290/202
f 327/290/203 339/302/203 340/303/203 328/291/203
f 328/291/204 340/303/204 341/304/204 329/292/204
f 329/292/205 341/304/205 342/305/205 330/293/205
f 330/293/206 342/305/206 343/17/206 331/294/206
f 331/295/207 343/306/207 344/307/207 332/296/207
f 332/296/208 344/307/208 345/308/208 333/297/208
f 333/297/209 345/308/209 346/309/209 334/298/209
f 334/298/210 346/309/210 347/310/210 335/299/210
f 335/299/211 347/310/211 348/311/211 336/300/211
f 336/300/212 348/311/212 337/18/212 325/288/212
f 337/18/213 349/312/213 350/313/213 338/301/213
f 338/301/214 350/313/214 351/314/214 339/302/214
f 339/302/215 351/314/215 352/315/215 340/303/215
f 340/303/216 352/315/216 353/316/216 341/304/216
f 341/304/217 353/316/217 354/317/217 342/305/217
f 342/305/218 354/317/218 355/318/218 343/17/218
f 343/306/219 355/319/219 356/320/219 344/307/219
f 344/307/220 356/320/220 357/321/220 345/308/220
f 345/308/221 357/321/221 358/322/221 346/309/221
f 346/309/222 358/322/222 359/323/222 347/310/222
f 347/310/223 359/323/223 360/324/223 348/311/223
f 348/311/224 360/324/224 349/312/224 337/18/224
f 349/312/225 361/325/225 362/326/225 350/313/225
f 350/313/226 362/326/226 363/327/226 351/314/226
f 351/314/227 363/327/227 364/328/227 352/315/227
f 352/315/228 364/328/228 365/329/228 353/316/228
f 353/316/229 365/329/229 366/330/229 354/317/229
f 354/317/230 366/330/230 367/331/230 355/318/230
f 355/319/231 367/332/231 368/333/231 356/320/231
f 356/320/232 368/333/232 369/334/232 357/321/232
f 357/321/233 369/334/233 370/335/233 358/322/233
f 358/322/234 370/335/234 371/336/234 359/323/234
f 359/323/235 371/336/235 372/337/235 360/324/235
f 360/324/236 372/337/236 361/325/236 349/312/236
f 361/325/237 373/14/237 374/338/237 362/326/237
f 362/326/238 374/338/238 375/339/238 363/327/238
f 363/327/239 375/339/239 376/340/239 364/328/239
f 364/328/240 376/340/240 377/341/240 365/329/240
f 365/329/241 377/341/241 378/342/241 366/330/241
f 366/330/242 378/342/242 379/13/242 367/331/242
f 367/332/243 379/343/243 380/344/243 368/333/243
f 368/333/244 380/344/244 381/345/244 369/334/244
f 369/334/245 381/345/245 382/346/245 370/335/245
f 370/335/246 382/346/246 383/347/246 371/336/246
f 371/336/247 383/347/247 384/348/247 372/337/247
f 372/337/248 384/348/248 373/14/248 361/325/248
f 373/14/249 385/349/249 386/350/249 374/338/249
f 374/338/250 386/350/250 387/351/250 375/339/250
f 375/339/251 387/351/251 388/352/251 376/340/251
f 376/340/252 388/352/252 389/353/252 377/341/252
f 377/341/253 389/353/253 390/354/253 378/342/253
f 378/342/254 390/354/254 391/355/254 379/13/254
f 379/343/255 391/356/255 392/357/255 380/344/255
f 380/344/256 392/357/256 393/358/256 381/345/256
f 381/345/257 393/358/257 394/359/257 382/346/257
f 382/346/258 394/359/258 395/360/258 383/347/258
f 383/347/259 395/360/259 396/361/259 384/348/259
f 384/348/260 396/361/260 385/349/260 373/14/260
f 385/349/261 397/362/261 398/363/261 386/350/261
f 386/350/262 398/363/262 399/364/262 387/351/262
f 387/351/263 399/364/263 400/365/263 388/352/263
f 388/352/264 400/365/264 401/366/264 389/353/264
f 389/353/265 401/366/265 402/367/265 390/354/265
f 390/354/266 402/367/266 403/368/266 391/355/266
f 391/356/267 403/369/267 404/370/267 392/357/267
f 392/357/268 404/370/268 405/371/268 393/358/268
f 393/358/269 405/371/269 406/372/269 394/359/269
f 394/359/270 406/372/270 407/373/270 395/360/270
f 395/360/271 407/373/271 408/374/271 396/361/271
f 396/361/272 408/374/272 397/362/272 385/349/272
f 397/362/273 409/10/273 410/375/273 398/363/273
f 398/363/274 410/375/274 411/376/274 399/364/274
f 399/364/275 411/376/275 412/377/275 400/365/275
f 400/365/276 412/377/276 413/378/276 401/366/276
f 401/366/277 413/378/277 414/379/277 402/367/277
f 402/367/278 414/379/278 415/9/278 403/368/278
f 403/369/279 415/380/279 416/381/279 404/370/279
f 404/370/280 416/381/280 417/382/280 405/371/280
f 405/371/281 417/382/281 418/383/281 406/372/281
f 406/372/282 418/383/282 419/384/282 407/373/282
f 407/373/283 419/384/283 420/385/283 408/374/283
f 408/374/284 420/385/284 409/10/284 397/362/284
f 409/10/285 421/386/285 422/387/285 410/375/285
f 410/375/286 422/387/286 423/388/286 411/376/286
f 411/376/287 423/388/287 424/389/287 412/377/287
f 412/377/288 424/389/288 425/390/288 413/378/288
f 413/378/289 425/390/289 426/391/289 414/379/289
f 414/379/290 426/391/290 427/392/290 415/9/290
f 415/380/291 427/393/291 428/394/291 416/381/291
f 416/381/292 428/394/292 429/395/292 417/382/292
f 417/382/293 429/395/293 430/396/293 418/383/293
f 418/383/294 430/396/294 431/397/294 419/384/294
f 419/384/295 431/397/295 432/398/295 420/385/295
f 420/385/296 432/398/296 421/386/296 409/10/296
f 421/386/297 433/399/297 434/400/297 422/387/297
f 422/387/298 434/400/298 435/401/298 423/388/298
f 423/388/299 435/401/299 436/402/299 424/389/299
f 424/389/300 436/402/300 437/403/300 425/390/300
f 425/390/301 437/403/301 438/404/301 426/391/301
f 426/391/302 438/404/302 439/405/302 427/392/302
f 427/393/303 439/406/303 440/407/303 428/394/303
f 428/394/304 440/407/304 441/408/304 429/395/304
f 429/395/305 441/408/305 442/409/305 430/396/305
f 430/396/306 442/409/306 443/410/306 431/397/306
f 431/397/307 443/410/307 444/411/307 432/398/307
f 432/398/308 444/411/308 433/399/308 421/386/308
f 433/399/309 445/6/309 446/412/309 434/400/309
f 434/400/310 446/412/310 447/413/310 435/401/310
f 435/401/311 447/413/311 448/414/311 436/402/311
f 436/402/312 448/414/312 449/415/312 437/403/312
f 437/403/313 449/415/313 450/416/313 438/404/313
f 438/404/314 450/416/314 451/5/314 439/405/314
f 439/406/315 451/417/315 452/418/315 440/407/315
f 440/407/316 452/418/316 453/419/316 441/408/316
f 441/408/317 453/419/317 454/420/317 442/409/317
f 442/409/318 454/420/318 455/421/318 443/410/318
f 443/410/319 455/421/319 456/422/319 444/411/319
f 444/411/320 456/422/320 445/6/320 433/399/320
f 445/6/321 457/423/321 458/424/321 446/412/321
f 446/412/322 458/424/322 459/425/322 447/413/322
f 447/413/323 459/425/323 460/426/323 448/414/323
f 448/414/324 460/426/324 461/427/324 449/415/324
f 449/415/325 461/427/325 462/428/325 450/416/325
f 450/416/326 462/428/326 463/429/326 451/5/326
f 451/417/327 463/430/327 464/431/327 452/418/327
f 452/418/328 464/431/328 465/432/328 453/419/328
f 453/419/329 465/432/329 466/433/329 454/420/329
f 454/420/330 466/433/330 467/434/330 455/421/330
f 455/421/331 467/434/331 468/435/331 456/422/331
f 456/422/332 468/435/332 457/423/332 445/6/332
f 457/423/333 469/436/333 470/437/333 458/424/333
f 458/424/334 470/437/334 471/438/334 459/425/334
f 459/425/335 471/438/335 472/439/335 460/426/335
f 460/426/336 472/439/336 473/440/336 461/427/336
f 461/427/337 473/440/337 474/441/337 462/428/337
f 462/428/338 474/441/338 475/442/338 463/429/338
f 463/430/339 475/443/339 476/444/339 464/431/339
f 464/431/340 476/444/340 477/445/340 465/432/340
f 465/432/341 477/445/341 478/446/341 466/433/341
f 466/433/342 478/446/342 479/447/342 467/434/342
f 467/434/343 479/447/343 480/448/343 468/435/343
f 468/435/344 480/448/344 469/436/344 457/423/344
f 469/436/345 481/1/345 482/449/345 470/437/345
f 470/437/346 482/449/346 483/450/346 471/438/346
f 471/438/347 483/450/347 484/451/347 472/439/347
f 472/439/348 484/451/348 485/452/348 473/440/348
f 473/440/349 485/452/349 486/453/349 474/441/349
f 474/441/350 486/453/350 487/2/350 475/442/350
f 475/443/351 487/454/351 488/455/351 476/444/351
f 476/444/352 488/455/352 489/456/352 477/445/352
f 477/445/353 489/456/353 490/457/353 478/446/353
f 478/446/354 490/457/354 491/458/354 479/447/354
f 479/447/355 491/458/355 492/459/355 480/448/355
f 480/448/356 492/459/356 481/1/356 469/436/356
f 481/460/74 493/461/74 494/462/74 482/463/74
f 482/463/73 494/462/73 495/464/73 483/465/73
f 483/465/72 495/464/72 496/466/72 484/467/72
f 484/467/71 496/466/71 497/468/71 485/469/71
f 485/469/70 497/468/70 498/470/70 486/471/70
f 486/471/69 498/470/69 499/472/69 487/473/69
f 487/474/80 499/475/80 500/476/80 488/477/80
f 488/477/79 500/476/79 501/478/79 489/479/79
f 489/479/78 501/478/78 502/480/78 490/481/78
f 490/481/77 502/480/77 503/482/77 491/483/77
f 491/483/76 503/482/76 504/484/76 492/485/76
f 492/485/75 504/484/75 493/461/75 481/460/75
f 493/461/86 505/486/86 506/487/86 494/462/86
f 494/462/85 506/487/85 507/488/85 495/464/85
f 495/464/84 507/488/84 508/489/84 496/466/84
f 496/466/83 508/489/83 509/490/83 497/468/83
f 497/468/82 509/490/82 510/491/82 498/470/82
f 498/470/81 510/491/81 511/492/81 499/472/81
f 499/475/92 511/493/92 512/494/92 500/476/92
f 500/476/91 512/494/91 513/495/91 501/478/91
f 501/478/90 513/495/90 514/496/90 502/480/90
f 502/480/89 514/496/89 515/497/89 503/482/89
f 503/482/88 515/497/88 516/498/88 504/484/88
f 504/484/87 516/498/87 505/486/87 493/461/87
f 505/486/98 517/62/98 518/499/98 506/487/98
f 506/487/97 518/499/97 519/500/97 507/488/97
f 507/488/96 519/500/96 520/501/96 508/489/96
f 508/489/95 520/501/95 521/502/95 509/490/95
f 509/490/94 521/502/94 522/503/94 510/491/94
f 510/491/93 522/503/93 523/61/93 511/492/93
f 511/493/104 523/504/104 524/505/104 512/494/104
f 512/494/103 524/505/103 525/506/103 513/495/103
f 513/495/102 525/506/102 526/507/102 514/496/102
f 514/496/101 526/507/101 527/508/101 515/497/101
f 515/497/100 527/508/100 528/509/100 516/498/100
f 516/498/99 528/509/99 517/62/99 505/486/99
f 517/62/110 529/510/110 530/511/110 518/499/110
f 518/499/109 530/511/109 531/512/109 519/500/109
f 519/500/108 531/512/108 532/513/108 520/501/108
f 520/501/107 532/513/107 533/514/107 521/502/107
f 521/502/106 533/514/106 534/515/106 522/503/106
f 522/503/105 534/515/105 535/516/105 523/61/105
f 523/504/116 535/517/116 536/518/116 524/505/116
f 524/505/115 536/518/115 537/519/115 525/506/115
f 525/506/114 537/519/114 538/520/114 526/507/114
f 526/507/113 538/520/113 539/521/113 527/508/113
f 527/508/112 539/521/112 540/522/112 528/509/112
f 528/509/111 540/522/111 529/510/111 517/62/111
f 529/510/122 541/523/122 542/524/122 530/511/122
f 530/511/121 542/524/121 543/525/121 531/512/121
f 531/512/120 543/525/120 544/526/120 532/513/120
f 532/513/119 544/526/119 545/527/119 533/514/119
f 533/514/118 545/527/118 546/528/118 534/515/118
f 534/515/117 546/528/117 547/529/117 535/516/117
f 535/517/128 547/530/128 548/531/128 536/518/128
f 536/518/127 548/531/127 549/532/127 537/519/127
f 537/519/126 549/532/126 550/533/126 538/520/126
f 538/520/125 550/533/125 551/534/125 539/521/125
f 539/521/124 551/534/124 552/535/124 540/522/124
f 540/522/123 552/535/123 541/523/123 529/510/123
f 541/523/134 553/58/134 554/536/134 542/524/134
f 542/524/133 554/536/133 555/537/133 543/525/133
f 543/525/132 555/537/132 556/538/132 544/526/132
f 544/526/131 556/538/131 557/539/131 545/527/131
f 545/527/130 557/539/130 558/540/130 546/528/130
f 546/528/129 558/540/129 559/57/129 547/529/129
f 547/530/140 559/541/140 560/542/140 548/531/140
f 548/531/139 560/542/139 561/543/139 549/532/139
f 549/532/138 561/543/138 562/544/138 550/533/138
f 550/533/137 562/544/137 563/545/137 551/534/137
f 551/534/136 563/545/136 564/546/136 552/535/136
f 552/535/135 564/546/135 553/58/135 541/523/135
f 553/58/146 565/547/146 566/548/146 554/536/146
f 554/536/145 566/548/145 567/549/145 555/537/145
f 555/537/144 567/549/144 568/550/144 556/538/144
f 556/538/143 568/550/143 569/551/143 557/539/143
f 557/539/142 569/551/142 570/552/142 558/540/142
f 558/540/141 570/552/141 571/553/141 559/57/141
f 559/541/152 571/554/152 572/555/152 560/542/152
f 560/542/151 572/555/151 573/556/151 561/543/151
f 561/543/150 573/556/150 574/557/150 562/544/150
f 562/544/149 574/557/149 575/558/149 563/545/149
f 563/545/148 575/558/148 576/559/148 564/546/148
f 564/546/147 576/559/147 565/547/147 553/58/147
f 565/547/158 577/560/158 578/561/158 566/548/158
f 566/548/157 578/561/157 579/562/157 567/549/157
f 567/549/156 579/562/156 580/563/156 568/550/156
f 568/550/155 580/563/155 581/564/155 569/551/155
f 569/551/154 581/564/154 582/565/154 570/552/154
f 570/552/153 582/565/153 583/566/153 571/553/153
f 571/554/164 583/567/164 584/568/164 572/555/164
f 572/555/163 584/568/163 585/569/163 573/556/163
f 573/556/162 585/569/162 586/570/162 574/557/162
f 574/557/161 586/570/161 587/571/161 575/558/161
f 575/558/160 587/571/160 588/572/160 576/559/160
f 576/559/159 588/572/159 577/560/159 565/547/159
f 577/560/170 589/54/170 590/573/170 578/561/170
f 578/561/169 590/573/169 591/574/169 579/562/169
f 579/562/168 591/574/168 592/575/168 580/563/168
f 580/563/167 592/575/167 593/576/167 581/564/167
f 581/564/166 593/576/166 594/577/166 582/565/166
f 582/565/165 594/577/165 595/53/165 583/566/165
f 583/567/176 595/578/176 596/579/176 584/568/176
f 584/568/175 596/579/175 597/580/175 585/569/175
f 585/569/174 597/580/174 598/581/174 586/570/174
f 586/570/173 598/581/173 599/582/173 587/571/173
f 587/571/172 599/582/172 600/583/172 588/572/172
f 588/572/171 600/583/171 589/54/171 577/560/171
f 589/54/182 601/584/182 602/585/182 590/573/182
f 590/573/181 602/585/181 603/586/181 591/574/181
f 591/574/180 603/586/180 604/587/180 592/575/180
f 592/575/179 604/587/179 605/588/179 593/576/179
f 593/576/178 605/588/178 606/589/178 594/577/178
f 594/577/177 606/589/177 607/590/177 595/53/177
f 595/578/188 607/591/188 608/592/188 596/579/188
f 596/579/187 608/592/187 609/593/187 597/580/187
f 597/580/186 609/593/186 610/594/186 598/581/186
f 598/581/185 610/594/185 611/595/185 599/582/185
f 599/582/184 611/595/184 612/596/184 600/583/184
f 600/583/183 612/596/183 601/584/183 589/54/183
f 601/584/194 613/597/194 614/598/194 602/585/194
f 602/585/193 614/598/193 615/599/193 603/586/193
f 603/586/192 615/599/192 616/600/192 604/587/192
f 604/587/191 616/600/191 617/601/191 605/588/191
f 605/588/190 617/601/190 618/602/190 606/589/190
f 606/589/189 618/602/189 619/603/189 607/590/189
f 607/591/200 619/604/200 620/605/200 608/592/200
f 608/592/199 620/605/199 621/606/199 609/593/199
f 609/593/198 621/606/198 622/607/198 610/594/198
f 610/594/197 622/607/197 623/608/197 611/595/197
f 611/595/196 623/608/196 624/609/196 612/596/196
f 612/596/195 624/609/195 613/597/195 601/584/195
f 613/597/206 625/50/206 626/610/206 614/598/206
f 614/598/205 626/610/205 627/611/205 615/599/205
f 615/599/204 627/611/204 628/612/204 616/600/204
f 616/600/203 628/612/203 629/613/203 617/601/203
f 617/601/202 629/613/202 630/614/202 618/602/202
f 618/602/201 630/614/201 631/49/201 619/603/201
f 619/604/212 631/615/212 632/616/212 620/605/212
f 620/605/211 632/616/211 633/617/211 621/606/211
f 621/606/210 633/617/210 634/618/210 622/607/210
f 622/607/209 634/618/209 635/619/209 623/608/209
f 623/608/208 635/619/208 636/620/208 624/609/208
f 624/609/207 636/620/207 625/50/207 613/597/207
f 625/50/218 637/621/218 638/622/218 626/610/218
f 626/610/217 638/622/217 639/623/217 627/611/217
f 627/611/216 639/623/216 640/624/216 628/612/216
f 628/612/215 640/624/215 641/625/215 629/613/215
f 629/613/214 641/625/214 642/626/214 630/614/214
f 630/614/213 642/626/213 643/627/213 631/49/213
f 631/615/224 643/628/224 644/629/224 632/616/224
f 632/616/223 644/629/223 645/630/223 633/617/223
f 633/617/222 645/630/222 646/631/222 634/618/222
f 634/618/221 646/631/221 647/632/221 635/619/221
f 635/619/220 647/632/220 648/633/220 636/620/220
f 636/620/219 648/633/219 637/621/219 625/50/219
f 637/621/230 649/634/230 650/635/230 638/622/230
f 638/622/229 650/635/229 651/636/229 639/623/229
f 639/623/228 651/636/228 652/637/228 640/624/228
f 640/624/227 652/637/227 653/638/227 641/625/227
f 641/625/226 653/638/226 654/639/226 642/626/226
f 642/626/225 654/639/225 655/640/225 643/627/225
f 643/628/236 655/641/236 656/642/236 644/629/236
f 644/629/235 656/642/235 657/643/235 645/630/235
f 645/630/234 657/643/234 658/644/234 646/631/234
f 646/631/233 658/644/233 659/645/233 647/632/233
f 647/632/232 659/645/232 660/646/232 648/633/232
f 648/633/231 660/646/231 649/634/231 637/621/231
f 649/634/242 661/46/242 662/647/242 650/635/242
f 650/635/241 662/647/241 663/648/241 651/636/241
f 651/636/240 663/648/240 664/649/240 652/637/240
f 652/637/239 664/649/239 665/650/239 653/638/239
f 653/638/238 665/650/238 666/651/238 654/639/238
f 654/639/237 666/651/237 667/45/237 655/640/237
f 655/641/248 667/652/248 668/653/248 656/642/248
f 656/642/247 668/653/247 669/654/247 657/643/247
f 657/643/246 669/654/246 670/655/246 658/644/246
f 658/644/245 670/655/245 671/656/245 659/645/245
f 659/645/244 671/656/244 672/657/244 660/646/244
f 660/646/243 672/657/243 661/46/243 649/634/243
f 661/46/254 673/658/254 674/659/254 662/647/254
f 662/647/253 674/659/253 675/660/253 663/648/253
f 663/648/252 675/660/252 676/661/252 664/649/252
f 664/649/251 676/661/251 677/662/251 665/650/251
f 665/650/250 677/662/250 678/663/250 666/651/250
f 666/651/249 678/663/249 679/664/249 667/45/249
f 667/652/260 679/665/260 680/666/260 668/653/260
f 668/653/259 680/666/259 681/667/259 669/654/259
f 669/654/258 681/667/258 682/668/258 670/655/258
f 670/655/257 682/668/257 683/669/257 671/656/257
f 671/656/256 683/669/256 684/670/256 672/657/256
f 672/657/255 684/670/255 673/658/255 661/46/255
f 673/658/266 685/671/266 686/672/266 674/659/266
f 674/659/265 686/672/265 687/673/265 675/660/265
f 675/660/264 687/673/264 688/674/264 676/661/264
f 676/661/263 688/674/263 689/675/263 677/662/263
f 677/662/262 689/675/262 690/676/262 678/663/262
f 678/663/261 690/676/261 691/677/261 679/664/261
f 679/665/272 691/678/272 692/679/272 680/666/272
f 680/666/271 692/679/271 693/680/271 681/667/271
f 681/667/270 693/680/270 694/681/270 682/668/270
f 682/668/269 694/681/269 695/682/269 683/669/269
f 683/669/268 695/682/268 696/683/268 684/670/268
f 684/670/267 696/683/267 685/671/267 673/658/267
f 685/671/278 697/42/278 698/684/278 686/672/278
f 686/672/277 698/684/277 699/685/277 687/673/277
f 687/673/276 699/685/276 700/686/276 688/674/276
f 688/674/275 700/686/275 701/687/275 689/675/275
f 689/675/274 701/687/274 702/688/274 690/676/274
f 690/676/273 702/688/273 703/41/273 691/677/273
f 691/678/284 703/689/284 704/690/284 692/679/284
f 692/679/283 704/690/283 705/691/283 693/680/283
f 693/680/282 705/691/282 706/692/282 694/681/282
f 694/681/281 706/692/281 707/693/281 695/682/281
f 695/682/280 707/693/280 708/694/280 696/683/280
f 696/683/279 708/694/279 697/42/279 685/671/279
f 697/42/290 709/695/290 710/696/290 698/684/290
f 698/684/289 710/696/289 711/697/289 699/685/289
f 699/685/288 711/697/288 712/698/288 700/686/288
f 700/686/287 712/698/287 713/699/287 701/687/287
f 701/687/286 713/699/286 714/700/286 702/688/286
f 702/688/285 714/700/285 715/701/285 703/41/285
f 703/689/296 715/702/296 716/703/296 704/690/296
f 704/690/295 716/703/295 717/704/295 705/691/295
f 705/691/294 717/704/294 718/705/294 706/692/294
f 706/692/293 718/705/293 719/706/293 707/693/293
f 707/693/292 719/706/292 720/707/292 708/694/292
f 708/694/291 720/707/291 709/695/291 697/42/291
f 709/695/302 721/708/302 722/709/302 710/696/302
f 710/696/301 722/709/301 723/710/301 711/697/301
f 711/697/300 723/710/300 724/711/300 712/698/300
f 712/698/299 724/711/299 725/712/299 713/699/299
f 713/699/298 725/712/298 726/713/298 714/700/298
f 714/700/297 726/713/297 727/714/297 715/701/297
f 715/702/308 727/715/308 728/716/308 716/703/308
f 716/703/307 728/716/307 729/717/307 717/704/307
f 717/704/306 729/717/306 730/718/306 718/705/306
f 718/705/305 730/718/305 731/719/305 719/706/305
f 719/706/304 731/719/304 732/720/304 720/707/304
f 720/707/303 732/720/303 721/708/303 709/695/303
f 721/708/314 733/38/314 734/721/314 722/709/314
f 722/709/313 734/721/313 735/722/313 723/710/313
f 723/710/312 735/722/312 736/723/312 724/711/312
f 724/711/311 736/723/311 737/724/311 725/712/311
f 725/712/310 737/724/310 738/725/310 726/713/310
f 726/713/309 738/725/309 739/37/309 727/714/309
f 727/715/320 739/726/320 740/727/320 728/716/320
f 728/716/319 740/727/319 741/728/319 729/717/319
f 729/717/318 741/728/318 742/729/318 730/718/318
f 730/718/317 742/729/317 743/730/317 731/719/317
f 731/719/316 743/730/316 744/731/316 732/720/316
f 732/720/315 744/731/315 733/38/315 721/708/315
f 733/38/326 745/732/326 746/733/326 734/721/326
f 734/721/325 746/733/325 747/734/325 735/722/325
f 735/722/324 747/734/324 748/735/324 736/723/324
f 736/723/323 748/735/323 749/736/323 737/724/323
f 737/724/322 749/736/322 750/737/322 738/725/322
f 738/725/321 750/737/321 751/738/321 739/37/321
f 739/726/332 751/739/332 752/740/332 740/727/332
f 740/727/331 752/740/331 753/741/331 741/728/331
f 741/728/330 753/741/330 754/742/330 742/729/330
f 742/729/329 754/742/329 755/743/329 743/730/329
f 743/730/328 755/743/328 756/744/328 744/731/328
f 744/731/327 756/744/327 745/732/327 733/38/327
f 745/732/338 757/745/338 758/746/338 746/733/338
f 746/733/337 758/746/337 759/747/337 747/734/337
f 747/734/336 759/747/336 760/748/336 748/735/336
f 748/735/335 760/748/335 761/749/335 749/736/335
f 749/736/334 761/749/334 762/750/334 750/737/334
f 750/737/333 762/750/333 763/751/333 751/738/333
f 751/739/344 763/752/344 764/753/344 752/740/344
f 752/740/343 764/753/343 765/754/343 753/741/343
f 753/741/342 765/754/342 766/755/342 754/742/342
f 754/742/341 766/755/341 767/756/341 755/743/341
f 755/743/340 767/756/340 768/757/340 756/744/340
f 756/744/339 768/757/339 757/745/339 745/732/339
f 757/745/350 193/34/350 194/155/350 758/746/350
f 758/746/349 194/155/349 195/157/349 759/747/349
f 759/747/348 195/157/348 196/159/348 760/748/348
f 760/748/347 196/159/347 197/161/347 761/749/347
f 761/749/346 197/161/346 198/163/346 762/750/346
f 762/750/345 198/163/345 199/33/345 763/751/345
f 763/752/356 199/165/356 200/168/356 764/753/356
f 764/753/355 200/168/355 201/170/355 765/754/355
f 765/754/354 201/170/354 202/172/354 766/755/354
f 766/755/353 202/172/353 203/174/353 767/756/353
f 767/756/352 203/174/352 204/176/352 768/757/352
f 768/757/351 204/176/351 193/34/351 757/745/351
