# axis-converted-to-Y-up
# Blender 5.1.1
# www.blender.org
mtllib prop_cangkul.mtl
o prop_cangkul
v 0.000000 0.012825 0.120111
v 0.000000 1.095053 -0.076822
v -0.012931 0.012072 0.115977
v -0.012931 1.094301 -0.080955
v -0.020923 0.010103 0.105155
v -0.020923 1.092331 -0.091778
v -0.020923 0.007669 0.091778
v -0.020923 1.089897 -0.105155
v -0.012931 0.005700 0.080955
v -0.012931 1.087928 -0.115977
v 0.000000 0.004947 0.076822
v 0.000000 1.087175 -0.120111
v 0.012931 0.005700 0.080955
v 0.012931 1.087928 -0.115977
v 0.020923 0.007669 0.091778
v 0.020923 1.089897 -0.105155
v 0.020923 0.010103 0.105155
v 0.020923 1.092331 -0.091778
v 0.012931 0.012072 0.115977
v 0.012931 1.094301 -0.080955
v 0.000000 0.975821 0.121499
v 0.000000 1.074205 0.103596
v -0.016458 0.974863 0.116238
v -0.016458 1.073248 0.098335
v -0.026630 0.972357 0.102464
v -0.026630 1.070741 0.084561
v -0.026630 0.969259 0.085439
v -0.026630 1.067643 0.067536
v -0.016458 0.966752 0.071665
v -0.016458 1.065137 0.053762
v 0.000000 0.965795 0.066404
v 0.000000 1.064179 0.048501
v 0.016458 0.966752 0.071665
v 0.016458 1.065137 0.053762
v 0.026630 0.969259 0.085439
v 0.026630 1.067643 0.067536
v 0.026630 0.972357 0.102464
v 0.026630 1.070741 0.084561
v 0.016458 0.974863 0.116238
v 0.016458 1.073248 0.098335
v 0.025000 0.992358 0.026844
v 0.025000 1.022197 0.008550
v 0.025000 1.117803 0.231450
v 0.025000 1.147642 0.213156
v -0.025000 0.992358 0.026844
v -0.025000 1.022197 0.008550
v -0.025000 1.117803 0.231450
v -0.025000 1.147642 0.213156
v 0.022500 0.985340 0.162601
v 0.022500 1.002391 0.152147
v 0.022500 1.037609 0.247853
v 0.022500 1.054660 0.237399
v -0.022500 0.985340 0.162601
v -0.022500 1.002391 0.152147
v -0.022500 1.037609 0.247853
v -0.022500 1.054660 0.237399
vn -0.000000 -0.496300 0.868100
vn -0.000000 0.770300 0.637700
vn -0.449800 -0.522500 0.724400
vn -0.449800 0.744200 0.493900
vn -0.727800 -0.591000 0.347900
vn -0.727800 0.675600 0.117400
vn -0.727800 -0.675600 -0.117400
vn -0.727800 0.591000 -0.347900
vn -0.449800 -0.744200 -0.493900
vn -0.449800 0.522500 -0.724400
vn -0.000000 -0.770300 -0.637700
vn -0.000000 0.496300 -0.868100
vn 0.449800 -0.744200 -0.493900
vn 0.449800 0.522500 -0.724400
vn 0.727800 -0.675600 -0.117400
vn 0.727800 0.591000 -0.347900
vn 0.727800 -0.591000 0.347900
vn 0.727800 0.675600 0.117400
vn 0.449800 -0.522500 0.724400
vn 0.449800 0.744200 0.493900
vn 0.727800 -0.675700 -0.117400
vn 0.577400 -0.794000 -0.190400
vn 0.577400 0.190400 -0.794000
vn 0.577400 -0.190400 0.794000
vn 0.577400 0.794000 0.190400
vn -0.577400 -0.794000 -0.190400
vn -0.577400 0.190400 -0.794000
vn -0.577400 -0.190400 0.794000
vn -0.577400 0.794000 0.190400
vt 0.123794 0.988995
vt 0.123794 0.003981
vt 0.135467 0.003501
vt 0.135467 0.988515
vt 0.003501 0.996499
vt 0.003501 0.003501
vt 0.013431 0.003501
vt 0.013431 0.996499
vt 0.025705 0.003501
vt 0.025705 0.996499
vt 0.035635 0.003501
vt 0.035635 0.996499
vt 0.081772 0.988995
vt 0.081772 0.003981
vt 0.093445 0.003501
vt 0.093445 0.988515
vt 0.105119 0.003981
vt 0.105119 0.988995
vt 0.042636 0.996499
vt 0.042636 0.003501
vt 0.052566 0.003501
vt 0.052566 0.996499
vt 0.064841 0.003501
vt 0.064841 0.996499
vt 0.224695 0.845352
vt 0.231798 0.855338
vt 0.231798 0.867592
vt 0.224695 0.877434
vt 0.213202 0.881105
vt 0.201709 0.877202
vt 0.194606 0.867216
vt 0.194606 0.854962
vt 0.201709 0.845120
vt 0.213202 0.841449
vt 0.074771 0.003501
vt 0.074771 0.996499
vt 0.112120 0.988515
vt 0.112120 0.003501
vt 0.231798 0.808681
vt 0.231798 0.820935
vt 0.224695 0.830777
vt 0.213202 0.834448
vt 0.201709 0.830544
vt 0.194606 0.820559
vt 0.194606 0.808304
vt 0.201709 0.798462
vt 0.213202 0.794792
vt 0.224695 0.798695
vt 0.209463 0.382400
vt 0.209463 0.292853
vt 0.224320 0.292242
vt 0.224320 0.381789
vt 0.142469 0.981003
vt 0.142469 0.890730
vt 0.155107 0.890730
vt 0.155107 0.981002
vt 0.170728 0.890730
vt 0.170728 0.981003
vt 0.183367 0.890730
vt 0.183367 0.981002
vt 0.194606 0.479559
vt 0.194606 0.390012
vt 0.209463 0.389401
vt 0.209463 0.478948
vt 0.224320 0.390012
vt 0.224320 0.479559
vt 0.194606 0.093773
vt 0.194606 0.003501
vt 0.207245 0.003501
vt 0.207245 0.093773
vt 0.222866 0.003501
vt 0.222866 0.093773
vt 0.203789 0.548297
vt 0.218646 0.543552
vt 0.233503 0.548297
vt 0.242685 0.560719
vt 0.242685 0.576074
vt 0.233503 0.588497
vt 0.218646 0.593242
vt 0.203789 0.588497
vt 0.194606 0.576074
vt 0.194606 0.560719
vt 0.235504 0.003501
vt 0.235504 0.093773
vt 0.194606 0.381789
vt 0.194606 0.292242
vt 0.233269 0.491576
vt 0.242397 0.504223
vt 0.242397 0.519671
vt 0.233269 0.532019
vt 0.218501 0.536550
vt 0.203734 0.531535
vt 0.194606 0.518888
vt 0.194606 0.503441
vt 0.203734 0.491093
vt 0.218501 0.486561
vt 0.174064 0.660073
vt 0.142469 0.660073
vt 0.142469 0.443418
vt 0.174064 0.443418
vt 0.225273 0.933243
vt 0.194606 0.933243
vt 0.194606 0.888106
vt 0.225273 0.888106
vt 0.142469 0.667074
vt 0.174064 0.667074
vt 0.174064 0.883728
vt 0.142469 0.883728
vt 0.225273 0.985380
vt 0.194606 0.985380
vt 0.194606 0.940244
vt 0.225273 0.940244
vt 0.142469 0.003501
vt 0.187605 0.003501
vt 0.187605 0.216458
vt 0.142469 0.216458
vt 0.142469 0.223460
vt 0.187605 0.223460
vt 0.187605 0.436417
vt 0.142469 0.436417
vt 0.212661 0.690516
vt 0.194606 0.690516
vt 0.194606 0.600244
vt 0.212661 0.600244
vt 0.267210 0.044123
vt 0.249686 0.044123
vt 0.249686 0.003501
vt 0.267210 0.003501
vt 0.194606 0.697518
vt 0.212661 0.697518
vt 0.212661 0.787790
vt 0.194606 0.787790
vt 0.267210 0.091748
vt 0.249686 0.091748
vt 0.249686 0.051125
vt 0.267210 0.051125
vt 0.194606 0.196509
vt 0.235229 0.196509
vt 0.235229 0.285241
vt 0.194606 0.285241
vt 0.194606 0.100775
vt 0.235229 0.100775
vt 0.235229 0.189507
vt 0.194606 0.189507
s 1
usemtl prop_cangkul_mat
f 1/1/1 2/2/2 4/3/4 3/4/3
f 3/5/3 4/6/4 6/7/6 5/8/5
f 5/8/5 6/7/6 8/9/8 7/10/7
f 7/10/7 8/9/8 10/11/10 9/12/9
f 9/13/9 10/14/10 12/15/12 11/16/11
f 11/16/11 12/15/12 14/17/14 13/18/13
f 13/19/13 14/20/14 16/21/16 15/22/15
f 15/22/15 16/21/16 18/23/18 17/24/17
f 4/25/4 2/26/2 20/27/20 18/28/18 16/29/16 14/30/14 12/31/12 10/32/10 8/33/8 6/34/6
f 17/24/17 18/23/18 20/35/20 19/36/19
f 19/37/19 20/38/20 2/2/2 1/1/1
f 1/39/1 3/40/3 5/41/5 7/42/7 9/43/9 11/44/11 13/45/13 15/46/15 17/47/17 19/48/19
f 21/49/1 22/50/2 24/51/4 23/52/3
f 23/53/3 24/54/4 26/55/6 25/56/5
f 25/56/5 26/55/6 28/57/8 27/58/7
f 27/58/7 28/57/8 30/59/10 29/60/9
f 29/61/9 30/62/10 32/63/12 31/64/11
f 31/64/11 32/63/12 34/65/14 33/66/13
f 33/67/13 34/68/14 36/69/16 35/70/21
f 35/70/21 36/69/16 38/71/18 37/72/17
f 24/73/4 22/74/2 40/75/20 38/76/18 36/77/16 34/78/14 32/79/12 30/80/10 28/81/8 26/82/6
f 37/72/17 38/71/18 40/83/20 39/84/19
f 39/85/19 40/86/20 22/50/2 21/49/1
f 21/87/1 23/88/3 25/89/5 27/90/7 29/91/9 31/92/11 33/93/13 35/94/21 37/95/17 39/96/19
f 41/97/22 42/98/23 44/99/25 43/100/24
f 43/101/24 44/102/25 48/103/29 47/104/28
f 47/105/28 48/106/29 46/107/27 45/108/26
f 45/109/26 46/110/27 42/111/23 41/112/22
f 43/113/24 47/114/28 45/115/26 41/116/22
f 48/117/29 44/118/25 42/119/23 46/120/27
f 49/121/22 50/122/23 52/123/25 51/124/24
f 51/125/24 52/126/25 56/127/29 55/128/28
f 55/129/28 56/130/29 54/131/27 53/132/26
f 53/133/26 54/134/27 50/135/23 49/136/22
f 51/137/24 55/138/28 53/139/26 49/140/22
f 56/141/29 52/142/25 50/143/23 54/144/27
