# axis-converted-to-Y-up
# Blender 5.1.1
# www.blender.org
mtllib prop_mercusuar_rusak.mtl
o prop_mercusuar_rusak
v 0.000000 0.000000 1.150000
v 0.000000 0.500000 1.150000
v -0.498966 0.000000 1.036114
v -0.498966 0.500000 1.036114
v -0.899106 0.000000 0.717013
v -0.899106 0.500000 0.717013
v -1.121167 0.000000 0.255899
v -1.121167 0.500000 0.255899
v -1.121167 0.000000 -0.255899
v -1.121167 0.500000 -0.255899
v -0.899106 0.000000 -0.717013
v -0.899106 0.500000 -0.717013
v -0.498966 0.000000 -1.036114
v -0.498966 0.500000 -1.036114
v 0.000000 0.000000 -1.150000
v 0.000000 0.500000 -1.150000
v 0.498966 0.000000 -1.036114
v 0.498966 0.500000 -1.036114
v 0.899106 0.000000 -0.717013
v 0.899106 0.500000 -0.717013
v 1.121167 0.000000 -0.255899
v 1.121167 0.500000 -0.255899
v 1.121167 0.000000 0.255899
v 1.121167 0.500000 0.255899
v 0.899106 0.000000 0.717013
v 0.899106 0.500000 0.717013
v 0.498966 0.000000 1.036114
v 0.498966 0.500000 1.036114
v 0.000000 0.500000 0.920000
v 0.000000 1.550000 0.920000
v -0.399173 0.500000 0.828891
v -0.399173 1.550000 0.828891
v -0.719285 0.500000 0.573611
v -0.719285 1.550000 0.573611
v -0.896934 0.500000 0.204719
v -0.896934 1.550000 0.204719
v -0.896934 0.500000 -0.204719
v -0.896934 1.550000 -0.204719
v -0.719285 0.500000 -0.573611
v -0.719285 1.550000 -0.573611
v -0.399173 0.500000 -0.828891
v -0.399173 1.550000 -0.828891
v 0.000000 0.500000 -0.920000
v 0.000000 1.550000 -0.920000
v 0.399173 0.500000 -0.828891
v 0.399173 1.550000 -0.828891
v 0.719285 0.500000 -0.573611
v 0.719285 1.550000 -0.573611
v 0.896934 0.500000 -0.204719
v 0.896934 1.550000 -0.204719
v 0.896934 0.500000 0.204719
v 0.896934 1.550000 0.204719
v 0.719285 0.500000 0.573611
v 0.719285 1.550000 0.573611
v 0.399173 0.500000 0.828891
v 0.399173 1.550000 0.828891
v 0.000000 1.550000 0.805000
v 0.000000 2.600000 0.805000
v -0.349276 1.550000 0.725280
v -0.349276 2.600000 0.725280
v -0.629374 1.550000 0.501909
v -0.629374 2.600000 0.501909
v -0.784817 1.550000 0.179129
v -0.784817 2.600000 0.179129
v -0.784817 1.550000 -0.179129
v -0.784817 2.600000 -0.179129
v -0.629374 1.550000 -0.501909
v -0.629374 2.600000 -0.501909
v -0.349276 1.550000 -0.725280
v -0.349276 2.600000 -0.725280
v 0.000000 1.550000 -0.805000
v 0.000000 2.600000 -0.805000
v 0.349276 1.550000 -0.725280
v 0.349276 2.600000 -0.725280
v 0.629374 1.550000 -0.501909
v 0.629374 2.600000 -0.501909
v 0.784817 1.550000 -0.179129
v 0.784817 2.600000 -0.179129
v 0.784817 1.550000 0.179129
v 0.784817 2.600000 0.179129
v 0.629374 1.550000 0.501909
v 0.629374 2.600000 0.501909
v 0.349276 1.550000 0.725280
v 0.349276 2.600000 0.725280
v 0.000000 2.600000 0.690000
v 0.000000 3.650000 0.690000
v -0.299380 2.600000 0.621669
v -0.299380 3.650000 0.621669
v -0.539464 2.600000 0.430208
v -0.539464 3.650000 0.430208
v -0.672700 2.600000 0.153539
v -0.672700 3.650000 0.153539
v -0.672700 2.600000 -0.153539
v -0.672700 3.650000 -0.153539
v -0.539464 2.600000 -0.430208
v -0.539464 3.650000 -0.430208
v -0.299380 2.600000 -0.621669
v -0.299380 3.650000 -0.621669
v 0.000000 2.600000 -0.690000
v 0.000000 3.650000 -0.690000
v 0.299380 2.600000 -0.621669
v 0.299380 3.650000 -0.621669
v 0.539464 2.600000 -0.430208
v 0.539464 3.650000 -0.430208
v 0.672700 2.600000 -0.153539
v 0.672700 3.650000 -0.153539
v 0.672700 2.600000 0.153539
v 0.672700 3.650000 0.153539
v 0.539464 2.600000 0.430208
v 0.539464 3.650000 0.430208
v 0.299380 2.600000 0.621669
v 0.299380 3.650000 0.621669
v 0.000000 3.650000 0.575000
v 0.000000 4.700000 0.575000
v -0.249483 3.650000 0.518057
v -0.249483 4.700000 0.518057
v -0.449553 3.650000 0.358507
v -0.449553 4.700000 0.358507
v -0.560584 3.650000 0.127950
v -0.560584 4.700000 0.127950
v -0.560584 3.650000 -0.127950
v -0.560584 4.700000 -0.127950
v -0.449553 3.650000 -0.358507
v -0.449553 4.700000 -0.358507
v -0.249483 3.650000 -0.518057
v -0.249483 4.700000 -0.518057
v 0.000000 3.650000 -0.575000
v 0.000000 4.700000 -0.575000
v 0.249483 3.650000 -0.518057
v 0.249483 4.700000 -0.518057
v 0.449553 3.650000 -0.358507
v 0.449553 4.700000 -0.358507
v 0.560584 3.650000 -0.127950
v 0.560584 4.700000 -0.127950
v 0.560584 3.650000 0.127950
v 0.560584 4.700000 0.127950
v 0.449553 3.650000 0.358507
v 0.449553 4.700000 0.358507
v 0.249483 3.650000 0.518057
v 0.249483 4.700000 0.518057
v 0.000000 4.700000 0.460000
v 0.000000 5.750000 0.460000
v -0.199587 4.700000 0.414446
v -0.199587 5.750000 0.414446
v -0.359642 4.700000 0.286805
v -0.359642 5.750000 0.286805
v -0.448467 4.700000 0.102360
v -0.448467 5.750000 0.102360
v -0.448467 4.700000 -0.102360
v -0.448467 5.750000 -0.102360
v -0.359642 4.700000 -0.286805
v -0.359642 5.750000 -0.286805
v -0.199587 4.700000 -0.414446
v -0.199587 5.750000 -0.414446
v 0.000000 4.700000 -0.460000
v 0.000000 5.750000 -0.460000
v 0.199587 4.700000 -0.414446
v 0.199587 5.750000 -0.414446
v 0.359642 4.700000 -0.286805
v 0.359642 5.750000 -0.286805
v 0.448467 4.700000 -0.102360
v 0.448467 5.750000 -0.102360
v 0.448467 4.700000 0.102360
v 0.448467 5.750000 0.102360
v 0.359642 4.700000 0.286805
v 0.359642 5.750000 0.286805
v 0.199587 4.700000 0.414446
v 0.199587 5.750000 0.414446
v 0.000000 5.790000 0.620000
v 0.000000 5.910000 0.620000
v -0.310000 5.790000 0.536936
v -0.310000 5.910000 0.536936
v -0.536936 5.790000 0.310000
v -0.536936 5.910000 0.310000
v -0.620000 5.790000 -0.000000
v -0.620000 5.910000 -0.000000
v -0.536936 5.790000 -0.310000
v -0.536936 5.910000 -0.310000
v -0.310000 5.790000 -0.536936
v -0.310000 5.910000 -0.536936
v 0.000000 5.790000 -0.620000
v 0.000000 5.910000 -0.620000
v 0.310000 5.790000 -0.536936
v 0.310000 5.910000 -0.536936
v 0.536936 5.790000 -0.310000
v 0.536936 5.910000 -0.310000
v 0.620000 5.790000 -0.000000
v 0.620000 5.910000 -0.000000
v 0.536936 5.790000 0.310000
v 0.536936 5.910000 0.310000
v 0.310000 5.790000 0.536936
v 0.310000 5.910000 0.536936
v -0.560000 5.870000 0.022000
v -0.560000 6.230000 0.022000
v -0.580923 5.870000 0.006798
v -0.580923 6.230000 0.006798
v -0.572931 5.870000 -0.017798
v -0.572931 6.230000 -0.017798
v -0.547069 5.870000 -0.017798
v -0.547069 6.230000 -0.017798
v -0.539077 5.870000 0.006798
v -0.539077 6.230000 0.006798
v -0.395980 5.870000 0.417980
v -0.395980 6.230000 0.417980
v -0.416903 5.870000 0.402778
v -0.416903 6.230000 0.402778
v -0.408911 5.870000 0.378181
v -0.408911 6.230000 0.378181
v -0.383049 5.870000 0.378181
v -0.383049 6.230000 0.378181
v -0.375057 5.870000 0.402778
v -0.375057 6.230000 0.402778
v -0.000000 5.870000 0.582000
v -0.000000 6.230000 0.582000
v -0.020923 5.870000 0.566798
v -0.020923 6.230000 0.566798
v -0.012931 5.870000 0.542202
v -0.012931 6.230000 0.542202
v 0.012931 5.870000 0.542202
v 0.012931 6.230000 0.542202
v 0.020923 5.870000 0.566798
v 0.020923 6.230000 0.566798
v 0.395980 5.870000 0.417980
v 0.395980 6.230000 0.417980
v 0.375057 5.870000 0.402778
v 0.375057 6.230000 0.402778
v 0.383049 5.870000 0.378181
v 0.383049 6.230000 0.378181
v 0.408911 5.870000 0.378181
v 0.408911 6.230000 0.378181
v 0.416903 5.870000 0.402778
v 0.416903 6.230000 0.402778
v 0.560000 5.870000 0.022000
v 0.560000 6.230000 0.022000
v 0.539077 5.870000 0.006798
v 0.539077 6.230000 0.006798
v 0.547069 5.870000 -0.017798
v 0.547069 6.230000 -0.017798
v 0.572931 5.870000 -0.017798
v 0.572931 6.230000 -0.017798
v 0.580923 5.870000 0.006798
v 0.580923 6.230000 0.006798
v 0.395980 5.870000 -0.373980
v 0.395980 6.230000 -0.373980
v 0.375057 5.870000 -0.389181
v 0.375057 6.230000 -0.389181
v 0.383049 5.870000 -0.413778
v 0.383049 6.230000 -0.413778
v 0.408911 5.870000 -0.413778
v 0.408911 6.230000 -0.413778
v 0.416903 5.870000 -0.389181
v 0.416903 6.230000 -0.389181
v 0.000000 5.870000 -0.538000
v 0.000000 6.230000 -0.538000
v -0.020923 5.870000 -0.553202
v -0.020923 6.230000 -0.553202
v -0.012931 5.870000 -0.577798
v -0.012931 6.230000 -0.577798
v 0.012931 5.870000 -0.577798
v 0.012931 6.230000 -0.577798
v 0.020923 5.870000 -0.553202
v 0.020923 6.230000 -0.553202
v -0.395980 5.870000 -0.373980
v -0.395980 6.230000 -0.373980
v -0.416903 5.870000 -0.389181
v -0.416903 6.230000 -0.389181
v -0.408911 5.870000 -0.413778
v -0.408911 6.230000 -0.413778
v -0.383049 5.870000 -0.413778
v -0.383049 6.230000 -0.413778
v -0.375057 5.870000 -0.389181
v -0.375057 6.230000 -0.389181
v 0.000000 6.140000 0.400000
v 0.000000 6.760000 0.400000
v -0.235114 6.140000 0.323607
v -0.235114 6.760000 0.323607
v -0.380423 6.140000 0.123607
v -0.380423 6.760000 0.123607
v -0.380423 6.140000 -0.123607
v -0.380423 6.760000 -0.123607
v -0.235114 6.140000 -0.323607
v -0.235114 6.760000 -0.323607
v 0.000000 6.140000 -0.400000
v 0.000000 6.760000 -0.400000
v 0.235114 6.140000 -0.323607
v 0.235114 6.760000 -0.323607
v 0.380423 6.140000 -0.123607
v 0.380423 6.760000 -0.123607
v 0.380423 6.140000 0.123607
v 0.380423 6.760000 0.123607
v 0.235114 6.140000 0.323607
v 0.235114 6.760000 0.323607
v -0.365000 6.140000 -0.025000
v -0.365000 6.760000 -0.025000
v -0.365000 6.140000 0.025000
v -0.365000 6.760000 0.025000
v -0.415000 6.140000 -0.025000
v -0.415000 6.760000 -0.025000
v -0.415000 6.140000 0.025000
v -0.415000 6.760000 0.025000
v 0.025000 6.140000 0.365000
v 0.025000 6.760000 0.365000
v 0.025000 6.140000 0.415000
v 0.025000 6.760000 0.415000
v -0.025000 6.140000 0.365000
v -0.025000 6.760000 0.365000
v -0.025000 6.140000 0.415000
v -0.025000 6.760000 0.415000
v 0.415000 6.140000 -0.025000
v 0.415000 6.760000 -0.025000
v 0.415000 6.140000 0.025000
v 0.415000 6.760000 0.025000
v 0.365000 6.140000 -0.025000
v 0.365000 6.760000 -0.025000
v 0.365000 6.140000 0.025000
v 0.365000 6.760000 0.025000
v 0.025000 6.140000 -0.415000
v 0.025000 6.760000 -0.415000
v 0.025000 6.140000 -0.365000
v 0.025000 6.760000 -0.365000
v -0.025000 6.140000 -0.415000
v -0.025000 6.760000 -0.415000
v -0.025000 6.140000 -0.365000
v -0.025000 6.760000 -0.365000
v 0.000000 6.725000 0.500000
v 0.000000 7.175000 0.040000
v -0.250000 6.725000 0.433013
v -0.020000 7.175000 0.034641
v -0.433013 6.725000 0.250000
v -0.034641 7.175000 0.020000
v -0.500000 6.725000 -0.000000
v -0.040000 7.175000 -0.000000
v -0.433013 6.725000 -0.250000
v -0.034641 7.175000 -0.020000
v -0.250000 6.725000 -0.433013
v -0.020000 7.175000 -0.034641
v 0.000000 6.725000 -0.500000
v 0.000000 7.175000 -0.040000
v 0.250000 6.725000 -0.433013
v 0.020000 7.175000 -0.034641
v 0.433013 6.725000 -0.250000
v 0.034641 7.175000 -0.020000
v 0.500000 6.725000 -0.000000
v 0.040000 7.175000 -0.000000
v 0.433013 6.725000 0.250000
v 0.034641 7.175000 0.020000
v 0.250000 6.725000 0.433013
v 0.020000 7.175000 0.034641
v 0.553649 3.120000 0.537658
v 0.553649 3.280000 0.537658
v 0.587209 3.120000 0.599089
v 0.587209 3.280000 0.599089
v -0.587209 3.120000 1.160911
v -0.587209 3.280000 1.160911
v -0.553649 3.120000 1.222342
v -0.553649 3.280000 1.222342
v 0.587209 2.920000 1.160911
v 0.587209 3.080000 1.160911
v 0.553649 2.920000 1.222342
v 0.553649 3.080000 1.222342
v -0.553649 2.920000 0.537658
v -0.553649 3.080000 0.537658
v -0.587209 2.920000 0.599089
v -0.587209 3.080000 0.599089
v 0.506368 1.530000 0.583225
v 0.506368 1.670000 0.583225
v 0.526942 1.530000 0.639587
v 0.526942 1.670000 0.639587
v -0.526942 1.530000 0.960413
v -0.526942 1.670000 0.960413
v -0.506368 1.530000 1.016775
v -0.506368 1.670000 1.016775
v -0.700000 0.382000 0.500000
v -0.963393 0.474867 0.352797
v -0.599395 0.474867 0.261818
v -0.374429 0.474868 0.500000
v -0.599395 0.474867 0.738182
v -0.963393 0.474867 0.647203
v -0.800605 0.625133 0.261818
v -0.436607 0.625133 0.352797
v -0.436607 0.625133 0.647203
v -0.800605 0.625133 0.738182
v -1.025571 0.625132 0.500000
v -0.700000 0.718000 0.500000
v -0.640866 0.407090 0.360001
v -0.854817 0.407090 0.413477
v -0.795684 0.461676 0.273477
v -1.009636 0.461676 0.500000
v -0.854817 0.407090 0.586523
v -0.508634 0.407091 0.500000
v -0.449499 0.461676 0.360001
v -0.640866 0.407090 0.639999
v -0.449499 0.461676 0.639999
v -0.795684 0.461676 0.726523
v -1.046185 0.550000 0.413476
v -1.046185 0.550000 0.586524
v -0.700000 0.550000 0.220000
v -0.913954 0.550000 0.273475
v -0.353815 0.550000 0.413476
v -0.486046 0.550000 0.273475
v -0.486046 0.550000 0.726525
v -0.353815 0.550000 0.586524
v -0.913954 0.550000 0.726525
v -0.700000 0.550000 0.780000
v -0.950501 0.638324 0.360001
v -0.604316 0.638324 0.273477
v -0.390364 0.638324 0.500000
v -0.604316 0.638324 0.726523
v -0.950501 0.638324 0.639999
v -0.759134 0.692910 0.360001
v -0.891366 0.692909 0.500000
v -0.545183 0.692910 0.413477
v -0.545183 0.692910 0.586523
v -0.759134 0.692910 0.639999
v 0.600000 0.410000 0.700000
v 0.426334 0.470806 0.594855
v 0.666333 0.470806 0.529870
v 0.814662 0.470806 0.700000
v 0.666333 0.470806 0.870130
v 0.426334 0.470806 0.805145
v 0.533667 0.569194 0.529870
v 0.773666 0.569194 0.594855
v 0.773666 0.569194 0.805145
v 0.533667 0.569194 0.870130
v 0.385338 0.569194 0.700000
v 0.600000 0.630000 0.700000
v 0.638989 0.426428 0.600001
v 0.497923 0.426428 0.638198
v 0.536911 0.462169 0.538198
v 0.395845 0.462169 0.700000
v 0.497923 0.426428 0.761802
v 0.726175 0.426428 0.700000
v 0.765165 0.462169 0.600001
v 0.638989 0.426428 0.799999
v 0.765165 0.462169 0.799999
v 0.536911 0.462169 0.861802
v 0.371746 0.520000 0.638197
v 0.371746 0.520000 0.761802
v 0.600000 0.520000 0.500000
v 0.458931 0.520000 0.538197
v 0.828254 0.520000 0.638197
v 0.741069 0.520000 0.538197
v 0.741069 0.520000 0.861803
v 0.828254 0.520000 0.761802
v 0.458931 0.520000 0.861803
v 0.600000 0.520000 0.900000
v 0.434835 0.577831 0.600001
v 0.663089 0.577831 0.538198
v 0.804156 0.577831 0.700000
v 0.663089 0.577831 0.861802
v 0.434835 0.577831 0.799999
v 0.561011 0.613572 0.600001
v 0.473825 0.613572 0.700000
v 0.702077 0.613572 0.638198
v 0.702077 0.613572 0.761802
v 0.561011 0.613572 0.799999
v -0.300000 4.204667 0.899782
v -0.300000 2.604667 1.049782
v -0.256699 4.202333 0.874891
v -0.256699 2.602334 1.024891
v -0.256699 4.197666 0.825109
v -0.256699 2.597667 0.975109
v -0.300000 4.195333 0.800218
v -0.300000 2.595333 0.950218
v -0.343301 4.197666 0.825109
v -0.343301 2.597667 0.975109
v -0.343301 4.202333 0.874891
v -0.343301 2.602334 1.024891
vn -0.000000 -0.660300 0.751000
vn -0.000000 0.660300 0.751000
vn -0.325900 -0.660300 0.676600
vn -0.325900 0.660300 0.676600
vn -0.587200 -0.660300 0.468200
vn -0.587200 0.660300 0.468200
vn -0.732200 -0.660300 0.167100
vn -0.732200 0.660300 0.167100
vn -0.732200 -0.660300 -0.167100
vn -0.732200 0.660300 -0.167100
vn -0.587200 -0.660300 -0.468200
vn -0.587200 0.660300 -0.468200
vn -0.325900 -0.660300 -0.676600
vn -0.325900 0.660300 -0.676600
vn -0.000000 -0.660300 -0.751000
vn -0.000000 0.660300 -0.751000
vn 0.325900 -0.660300 -0.676600
vn 0.325900 0.660300 -0.676600
vn 0.587200 -0.660300 -0.468200
vn 0.587200 0.660300 -0.468200
vn 0.732200 -0.660300 -0.167100
vn 0.732200 0.660300 -0.167100
vn 0.732200 -0.660300 0.167100
vn 0.732200 0.660300 0.167100
vn 0.587200 -0.660300 0.468200
vn 0.587200 0.660300 0.468200
vn 0.325900 -0.660300 0.676600
vn 0.325900 0.660300 0.676600
vn -0.000000 -0.653200 0.757200
vn -0.000000 0.653200 0.757200
vn -0.378600 -0.653200 0.655700
vn -0.378600 0.653200 0.655700
vn -0.655700 -0.653200 0.378600
vn -0.655700 0.653200 0.378600
vn -0.757200 -0.653200 0.000000
vn -0.757200 0.653200 0.000000
vn -0.655700 -0.653200 -0.378600
vn -0.655700 0.653200 -0.378600
vn -0.378600 -0.653200 -0.655700
vn -0.378600 0.653200 -0.655700
vn -0.000000 -0.653200 -0.757200
vn -0.000000 0.653200 -0.757200
vn 0.378600 -0.653200 -0.655700
vn 0.378600 0.653200 -0.655700
vn 0.655700 -0.653200 -0.378600
vn 0.655700 0.653200 -0.378600
vn 0.757200 -0.653200 0.000000
vn 0.757200 0.653200 0.000000
vn 0.655700 -0.653200 0.378600
vn 0.655700 0.653200 0.378600
vn 0.378600 -0.653200 0.655700
vn 0.378600 0.653200 0.655700
vn -0.000000 -0.595700 0.803200
vn -0.000000 0.595700 0.803200
vn -0.763900 -0.595700 0.248200
vn -0.763900 0.595700 0.248200
vn -0.472100 -0.595700 -0.649800
vn -0.472100 0.595700 -0.649800
vn 0.472100 -0.595700 -0.649800
vn 0.472100 0.595700 -0.649800
vn 0.763900 -0.595700 0.248200
vn 0.763900 0.595700 0.248200
vn -0.000000 -0.643700 0.765300
vn -0.000000 0.643700 0.765300
vn -0.449800 -0.643700 0.619100
vn -0.449800 0.643700 0.619100
vn -0.727800 -0.643700 0.236500
vn -0.727800 0.643700 0.236500
vn -0.727800 -0.643700 -0.236500
vn -0.727800 0.643700 -0.236500
vn -0.449800 -0.643700 -0.619100
vn -0.449800 0.643700 -0.619100
vn -0.000000 -0.643700 -0.765300
vn -0.000000 0.643700 -0.765300
vn 0.449800 -0.643700 -0.619100
vn 0.449800 0.643700 -0.619100
vn 0.727800 -0.643700 -0.236500
vn 0.727800 0.643700 -0.236500
vn 0.727800 -0.643700 0.236500
vn 0.727800 0.643700 0.236500
vn 0.449800 -0.643700 0.619100
vn 0.449800 0.643700 0.619100
vn 0.577400 -0.577400 -0.577400
vn 0.577400 0.577400 -0.577400
vn 0.577400 -0.577400 0.577400
vn 0.577400 0.577400 0.577400
vn -0.577400 -0.577400 -0.577400
vn -0.577400 0.577400 -0.577400
vn -0.577400 -0.577400 0.577400
vn -0.577400 0.577400 0.577400
vn -0.000000 -0.333000 0.942900
vn -0.000000 0.903400 0.428900
vn -0.471500 -0.333000 0.816600
vn -0.214500 0.903400 0.371400
vn -0.816600 -0.333000 0.471500
vn -0.371400 0.903400 0.214400
vn -0.942900 -0.333000 0.000000
vn -0.428900 0.903400 0.000000
vn -0.816600 -0.333000 -0.471500
vn -0.371400 0.903400 -0.214400
vn -0.471500 -0.333000 -0.816600
vn -0.214500 0.903400 -0.371400
vn -0.000000 -0.333000 -0.942900
vn -0.000000 0.903400 -0.428900
vn 0.471500 -0.333000 -0.816600
vn 0.214400 0.903400 -0.371400
vn 0.816600 -0.333000 -0.471500
vn 0.371400 0.903400 -0.214400
vn 0.942900 -0.333000 0.000000
vn 0.428900 0.903400 0.000000
vn 0.816600 -0.333000 0.471500
vn 0.371400 0.903400 0.214400
vn 0.471500 -0.333000 0.816600
vn 0.214400 0.903400 0.371400
vn 0.229900 -0.577400 -0.783500
vn 0.229900 0.577400 -0.783500
vn 0.783500 -0.577400 0.229900
vn 0.783500 0.577400 0.229900
vn -0.783500 -0.577400 -0.229900
vn -0.783500 0.577400 -0.229900
vn -0.229900 -0.577400 0.783500
vn -0.229900 0.577400 0.783500
vn 0.783500 -0.577400 -0.229900
vn 0.783500 0.577300 -0.229900
vn 0.229900 -0.577400 0.783500
vn 0.229900 0.577400 0.783500
vn -0.229900 -0.577400 -0.783500
vn -0.229900 0.577400 -0.783500
vn -0.783500 -0.577400 0.229900
vn -0.783500 0.577400 0.229900
vn 0.344400 -0.577400 -0.740300
vn 0.344400 0.577400 -0.740300
vn 0.740300 -0.577400 0.344400
vn 0.740300 0.577400 0.344400
vn -0.740300 -0.577400 -0.344400
vn -0.740300 0.577400 -0.344400
vn -0.344400 -0.577400 0.740300
vn -0.344400 0.577400 0.740300
vn -0.000600 -1.000000 0.000000
vn -0.574300 -0.631800 -0.520500
vn 0.202300 -0.592800 -0.779500
vn 0.752500 -0.658600 0.000000
vn 0.202300 -0.592800 0.779500
vn -0.574300 -0.631800 0.520500
vn -0.202300 0.592800 -0.779500
vn 0.574300 0.631800 -0.520500
vn 0.574300 0.631800 0.520500
vn -0.202300 0.592800 0.779500
vn -0.752500 0.658600 0.000000
vn 0.000600 1.000000 0.000000
vn 0.090100 -0.931100 -0.353300
vn -0.240400 -0.945000 -0.221800
vn -0.184800 -0.670500 -0.718500
vn -0.682800 -0.730600 0.000000
vn -0.240400 -0.945000 0.221800
vn 0.299800 -0.954000 0.000000
vn 0.523200 -0.705700 -0.477800
vn 0.090100 -0.931100 0.353300
vn 0.523200 -0.705700 0.477800
vn -0.184800 -0.670500 0.718500
vn -0.930200 -0.003300 -0.367000
vn -0.930200 -0.003300 0.367000
vn -0.000000 -0.000000 -1.000000
vn -0.506700 0.003700 -0.862100
vn 0.930200 0.003300 -0.367000
vn 0.506700 -0.003700 -0.862100
vn 0.506700 -0.003700 0.862100
vn 0.930200 0.003300 0.367000
vn -0.506700 0.003700 0.862100
vn -0.000000 -0.000000 1.000000
vn -0.523200 0.705700 -0.477800
vn 0.184800 0.670500 -0.718500
vn 0.682800 0.730600 0.000000
vn 0.184800 0.670500 0.718500
vn -0.523200 0.705700 0.477800
vn -0.090100 0.931100 -0.353300
vn -0.299800 0.954000 0.000000
vn 0.240400 0.945000 -0.221800
vn 0.240400 0.945000 0.221800
vn -0.090100 0.931100 0.353300
vn -0.000300 -1.000000 0.000000
vn -0.585100 -0.641500 -0.496200
vn 0.211300 -0.614400 -0.760200
vn 0.751700 -0.659500 0.000000
vn 0.211300 -0.614400 0.760200
vn -0.585100 -0.641500 0.496200
vn -0.211300 0.614400 -0.760200
vn 0.585100 0.641500 -0.496200
vn 0.585100 0.641500 0.496200
vn -0.211300 0.614400 0.760200
vn -0.751700 0.659500 0.000000
vn 0.000300 1.000000 0.000000
vn 0.090500 -0.939700 -0.329800
vn -0.239700 -0.948700 -0.206000
vn -0.192500 -0.690900 -0.696900
vn -0.681400 -0.731900 0.000000
vn -0.239700 -0.948700 0.206000
vn 0.298100 -0.954500 0.000000
vn 0.531800 -0.715300 -0.453400
vn 0.090500 -0.939700 0.329800
vn 0.531800 -0.715300 0.453400
vn -0.192500 -0.690900 0.696900
vn -0.936900 -0.002100 -0.349500
vn -0.936900 -0.002100 0.349500
vn -0.531600 0.002700 -0.847000
vn 0.936900 0.002100 -0.349500
vn 0.531600 -0.002700 -0.847000
vn 0.531600 -0.002700 0.847000
vn 0.936900 0.002100 0.349500
vn -0.531600 0.002700 0.847000
vn -0.531800 0.715300 -0.453400
vn 0.192500 0.690900 -0.696900
vn 0.681400 0.731900 0.000000
vn 0.192500 0.690900 0.696900
vn -0.531800 0.715300 0.453400
vn -0.090500 0.939700 -0.329800
vn -0.298100 0.954500 0.000000
vn 0.239700 0.948700 -0.206000
vn 0.239700 0.948700 0.206000
vn -0.090500 0.939700 0.329800
vn -0.000000 0.681300 0.732000
vn -0.000000 -0.533400 0.845900
vn 0.686200 0.644300 0.337500
vn 0.686200 -0.570400 0.451400
vn 0.686200 0.570400 -0.451400
vn 0.686200 -0.644300 -0.337500
vn -0.000000 0.533400 -0.845900
vn -0.000000 -0.681300 -0.732000
vn -0.686200 0.570400 -0.451400
vn -0.686200 -0.644300 -0.337500
vn -0.686200 0.644300 0.337500
vn -0.686200 -0.570400 0.451400
vt 0.712205 0.229034
vt 0.754956 0.229029
vt 0.754930 0.271231
vt 0.712178 0.271236
vt 0.754956 0.314276
vt 0.712205 0.314281
vt 0.755029 0.349637
vt 0.712278 0.349642
vt 0.821330 0.318338
vt 0.778586 0.318275
vt 0.778948 0.277499
vt 0.821692 0.277562
vt 0.778948 0.233870
vt 0.821692 0.233933
vt 0.778586 0.196027
vt 0.821330 0.196090
vt 0.724748 0.397790
vt 0.767499 0.397780
vt 0.767574 0.434170
vt 0.724822 0.434180
vt 0.767600 0.477502
vt 0.724849 0.477512
vt 0.767574 0.519194
vt 0.724822 0.519203
vt 0.767499 0.550987
vt 0.724748 0.550997
vt 0.821428 0.134297
vt 0.778684 0.134258
vt 0.778314 0.095763
vt 0.821057 0.095802
vt 0.778314 0.052051
vt 0.821057 0.052090
vt 0.150305 0.021516
vt 0.184519 0.048800
vt 0.203506 0.088227
vt 0.203506 0.131987
vt 0.184519 0.171414
vt 0.150305 0.198698
vt 0.107642 0.208436
vt 0.064979 0.198698
vt 0.030765 0.171414
vt 0.011778 0.131987
vt 0.011778 0.088227
vt 0.030765 0.048800
vt 0.064979 0.021516
vt 0.107642 0.011778
vt 0.778684 0.011778
vt 0.821428 0.011817
vt 0.712278 0.196032
vt 0.755029 0.196027
vt 0.365589 0.021516
vt 0.399802 0.048800
vt 0.418789 0.088227
vt 0.418789 0.131988
vt 0.399802 0.171414
vt 0.365589 0.198699
vt 0.322926 0.208436
vt 0.280262 0.198698
vt 0.246049 0.171414
vt 0.227062 0.131987
vt 0.227062 0.088227
vt 0.246049 0.048800
vt 0.280262 0.021516
vt 0.322926 0.011778
vt 0.442370 0.038179
vt 0.532149 0.038179
vt 0.532124 0.071941
vt 0.442346 0.071941
vt 0.532141 0.106377
vt 0.442362 0.106377
vt 0.532196 0.134666
vt 0.442418 0.134666
vt 0.611284 0.397780
vt 0.701047 0.397780
vt 0.700805 0.430401
vt 0.611043 0.430401
vt 0.700857 0.465305
vt 0.611094 0.465305
vt 0.701191 0.495578
vt 0.611429 0.495578
vt 0.485103 0.251658
vt 0.574881 0.251658
vt 0.574934 0.280770
vt 0.485156 0.280770
vt 0.574947 0.315436
vt 0.485169 0.315436
vt 0.574919 0.348789
vt 0.485140 0.348789
vt 0.574853 0.374224
vt 0.485075 0.374224
vt 0.598504 0.251658
vt 0.688266 0.251658
vt 0.688590 0.282454
vt 0.598828 0.282454
vt 0.688622 0.317424
vt 0.598860 0.317424
vt 0.088469 0.231992
vt 0.122600 0.239782
vt 0.149971 0.261610
vt 0.165160 0.293151
vt 0.165160 0.328160
vt 0.149971 0.359701
vt 0.122600 0.381528
vt 0.088469 0.389319
vt 0.054338 0.381528
vt 0.026968 0.359701
vt 0.011778 0.328160
vt 0.011778 0.293151
vt 0.026968 0.261610
vt 0.054338 0.239782
vt 0.688355 0.349642
vt 0.598593 0.349642
vt 0.442432 0.011778
vt 0.532210 0.011778
vt 0.149970 0.442493
vt 0.165160 0.474034
vt 0.165160 0.509042
vt 0.149970 0.540584
vt 0.122600 0.562411
vt 0.088469 0.570201
vt 0.054338 0.562411
vt 0.026968 0.540584
vt 0.011778 0.509042
vt 0.011778 0.474034
vt 0.026968 0.442492
vt 0.054338 0.420665
vt 0.088469 0.412875
vt 0.122600 0.420665
vt 0.346504 0.557861
vt 0.436282 0.557861
vt 0.436260 0.587403
vt 0.346482 0.587403
vt 0.436275 0.617534
vt 0.346497 0.617534
vt 0.436324 0.642287
vt 0.346545 0.642287
vt 0.669184 0.101667
vt 0.669184 0.011904
vt 0.697727 0.012116
vt 0.697727 0.101878
vt 0.728268 0.012071
vt 0.728268 0.101833
vt 0.754757 0.011778
vt 0.754757 0.101541
vt 0.555791 0.011778
vt 0.645570 0.011778
vt 0.645616 0.037251
vt 0.555838 0.037251
vt 0.645628 0.067584
vt 0.555849 0.067584
vt 0.645602 0.096768
vt 0.555824 0.096768
vt 0.645545 0.119023
vt 0.555767 0.119023
vt 0.485075 0.739790
vt 0.485075 0.650028
vt 0.512021 0.649744
vt 0.512021 0.739506
vt 0.542620 0.649716
vt 0.542620 0.739478
vt 0.285685 0.258474
vt 0.309635 0.277573
vt 0.322926 0.305172
vt 0.322926 0.335805
vt 0.309635 0.363403
vt 0.285685 0.382502
vt 0.255821 0.389319
vt 0.225957 0.382502
vt 0.202007 0.363403
vt 0.188717 0.335804
vt 0.188717 0.305172
vt 0.202007 0.277573
vt 0.225957 0.258474
vt 0.255821 0.251658
vt 0.570811 0.649950
vt 0.570811 0.739711
vt 0.346558 0.534760
vt 0.436336 0.534760
vt 0.188717 0.497021
vt 0.188717 0.466389
vt 0.202007 0.438790
vt 0.225957 0.419691
vt 0.255821 0.412875
vt 0.285685 0.419691
vt 0.309635 0.438790
vt 0.322926 0.466389
vt 0.322926 0.497021
vt 0.309635 0.524620
vt 0.285685 0.543719
vt 0.255821 0.550536
vt 0.225957 0.543719
vt 0.202007 0.524620
vt 0.611061 0.543549
vt 0.700840 0.543549
vt 0.700821 0.568870
vt 0.611043 0.568870
vt 0.700834 0.594697
vt 0.611056 0.594697
vt 0.700875 0.615914
vt 0.611097 0.615914
vt 0.724448 0.842926
vt 0.724448 0.753164
vt 0.748914 0.753345
vt 0.748914 0.843108
vt 0.775092 0.753307
vt 0.775092 0.843069
vt 0.797797 0.753056
vt 0.797797 0.842818
vt 0.611064 0.639470
vt 0.700842 0.639470
vt 0.700882 0.661304
vt 0.611104 0.661304
vt 0.700892 0.687304
vt 0.611114 0.687304
vt 0.700870 0.712318
vt 0.611092 0.712318
vt 0.700821 0.731395
vt 0.611043 0.731395
vt 0.724448 0.729499
vt 0.724448 0.639738
vt 0.747545 0.639494
vt 0.747545 0.729256
vt 0.773773 0.639470
vt 0.773773 0.729232
vt 0.461518 0.439078
vt 0.461518 0.465335
vt 0.450126 0.488991
vt 0.429598 0.505361
vt 0.404000 0.511204
vt 0.378402 0.505361
vt 0.357874 0.488991
vt 0.346482 0.465335
vt 0.346482 0.439078
vt 0.357874 0.415422
vt 0.378402 0.399052
vt 0.404000 0.393209
vt 0.429598 0.399052
vt 0.450126 0.415422
vt 0.797936 0.639671
vt 0.797936 0.729432
vt 0.611108 0.523748
vt 0.700886 0.523748
vt 0.404000 0.251658
vt 0.429598 0.257501
vt 0.450126 0.273871
vt 0.461518 0.297527
vt 0.461518 0.323784
vt 0.450126 0.347440
vt 0.429598 0.363810
vt 0.404000 0.369653
vt 0.378402 0.363810
vt 0.357874 0.347440
vt 0.346482 0.323784
vt 0.346482 0.297527
vt 0.357874 0.273871
vt 0.378402 0.257501
vt 0.362983 0.755660
vt 0.362983 0.665882
vt 0.384084 0.665897
vt 0.384084 0.755676
vt 0.405606 0.665887
vt 0.405606 0.755665
vt 0.423287 0.665852
vt 0.423287 0.755631
vt 0.821353 0.842908
vt 0.821353 0.753146
vt 0.841741 0.753297
vt 0.841741 0.843059
vt 0.863556 0.753265
vt 0.863556 0.843027
vt 0.882477 0.753056
vt 0.882477 0.842818
vt 0.188717 0.785797
vt 0.188717 0.696019
vt 0.206912 0.695986
vt 0.206912 0.785764
vt 0.228577 0.695977
vt 0.228577 0.785756
vt 0.249423 0.695995
vt 0.249423 0.785774
vt 0.265320 0.696036
vt 0.265320 0.785815
vt 0.791157 0.601143
vt 0.791157 0.511381
vt 0.810404 0.511178
vt 0.810404 0.600940
vt 0.832260 0.511158
vt 0.832260 0.600920
vt 0.198210 0.592603
vt 0.215317 0.578961
vt 0.236648 0.574092
vt 0.257980 0.578961
vt 0.275087 0.592603
vt 0.284580 0.612316
vt 0.284580 0.634197
vt 0.275087 0.653910
vt 0.257980 0.667552
vt 0.236648 0.672421
vt 0.215317 0.667552
vt 0.198210 0.653910
vt 0.188717 0.634197
vt 0.188717 0.612316
vt 0.852396 0.511325
vt 0.852396 0.601087
vt 0.346482 0.755622
vt 0.346482 0.665844
vt 0.081042 0.598627
vt 0.098148 0.612269
vt 0.107642 0.631982
vt 0.107642 0.653863
vt 0.098148 0.673576
vt 0.081042 0.687218
vt 0.059710 0.692087
vt 0.038378 0.687218
vt 0.021272 0.673576
vt 0.011778 0.653862
vt 0.011778 0.631982
vt 0.021272 0.612269
vt 0.038378 0.598627
vt 0.059710 0.593758
vt 0.804357 0.487589
vt 0.804357 0.397811
vt 0.821238 0.397823
vt 0.821238 0.487602
vt 0.838456 0.397815
vt 0.838456 0.487593
vt 0.852600 0.397787
vt 0.852600 0.487566
vt 0.844984 0.101613
vt 0.844984 0.011850
vt 0.861295 0.011971
vt 0.861295 0.101734
vt 0.878747 0.011945
vt 0.878747 0.101708
vt 0.893883 0.011778
vt 0.893883 0.101541
vt 0.346482 0.869044
vt 0.346482 0.779265
vt 0.361038 0.779239
vt 0.361038 0.869017
vt 0.378371 0.779232
vt 0.378371 0.869011
vt 0.395047 0.779247
vt 0.395047 0.869025
vt 0.407765 0.779280
vt 0.407765 0.869058
vt 0.821493 0.729410
vt 0.821493 0.639649
vt 0.836890 0.639486
vt 0.836890 0.729248
vt 0.854375 0.639470
vt 0.854375 0.729232
vt 0.649388 0.754951
vt 0.666454 0.758846
vt 0.680139 0.769760
vt 0.687734 0.785530
vt 0.687734 0.803035
vt 0.680139 0.818805
vt 0.666454 0.829719
vt 0.649388 0.833614
vt 0.632323 0.829719
vt 0.618638 0.818805
vt 0.611043 0.803035
vt 0.611043 0.785530
vt 0.618638 0.769760
vt 0.632323 0.758846
vt 0.870485 0.639604
vt 0.870485 0.729366
vt 0.791157 0.487559
vt 0.791157 0.397780
vt 0.554171 0.778155
vt 0.561766 0.793926
vt 0.561766 0.811430
vt 0.554171 0.827201
vt 0.540486 0.838115
vt 0.523420 0.842010
vt 0.506355 0.838114
vt 0.492670 0.827201
vt 0.485075 0.811430
vt 0.485075 0.793926
vt 0.492670 0.778155
vt 0.506355 0.767241
vt 0.523420 0.763346
vt 0.540486 0.767241
vt 0.821353 0.886628
vt 0.831614 0.886622
vt 0.831614 0.913339
vt 0.821353 0.913345
vt 0.831651 0.939608
vt 0.821391 0.939614
vt 0.485337 0.865587
vt 0.495596 0.865566
vt 0.495333 0.887687
vt 0.485075 0.887709
vt 0.495333 0.914964
vt 0.485075 0.914985
vt 0.495596 0.940086
vt 0.485337 0.940108
vt 0.529450 0.940144
vt 0.519190 0.940142
vt 0.519152 0.917908
vt 0.529413 0.917911
vt 0.519152 0.890612
vt 0.529413 0.890615
vt 0.519190 0.865566
vt 0.529450 0.865569
vt 0.563540 0.938544
vt 0.553282 0.938497
vt 0.553007 0.918557
vt 0.563265 0.918604
vt 0.553007 0.891862
vt 0.563265 0.891910
vt 0.587486 0.561233
vt 0.587486 0.588675
vt 0.573766 0.612439
vt 0.550001 0.626160
vt 0.522560 0.626160
vt 0.498795 0.612439
vt 0.485075 0.588675
vt 0.485075 0.561233
vt 0.498795 0.537469
vt 0.522560 0.523748
vt 0.550001 0.523748
vt 0.573766 0.537469
vt 0.553282 0.865566
vt 0.563540 0.865613
vt 0.821391 0.866622
vt 0.831651 0.866616
vt 0.573766 0.411501
vt 0.587486 0.435266
vt 0.587487 0.462707
vt 0.573766 0.486471
vt 0.550001 0.500192
vt 0.522560 0.500192
vt 0.498796 0.486471
vt 0.485075 0.462707
vt 0.485075 0.435265
vt 0.498796 0.411501
vt 0.522560 0.397780
vt 0.550001 0.397780
vt 0.855208 0.970759
vt 0.855208 0.939978
vt 0.857399 0.939977
vt 0.857399 0.970758
vt 0.162156 0.678868
vt 0.162156 0.648092
vt 0.164364 0.648095
vt 0.164364 0.678870
vt 0.977582 0.677586
vt 0.977582 0.646805
vt 0.979648 0.646803
vt 0.979648 0.677584
vt 0.908136 0.964339
vt 0.909436 0.966128
vt 0.908136 0.967917
vt 0.906033 0.967234
vt 0.906033 0.965023
vt 0.811968 0.372701
vt 0.811968 0.341926
vt 0.813493 0.341895
vt 0.813493 0.372670
vt 0.815487 0.341913
vt 0.815487 0.372689
vt 0.349885 0.969896
vt 0.349885 0.972107
vt 0.347782 0.972790
vt 0.346482 0.971002
vt 0.347782 0.969212
vt 0.968980 0.150221
vt 0.968980 0.119440
vt 0.971170 0.119439
vt 0.971170 0.150220
vt 0.962215 0.381398
vt 0.962215 0.350622
vt 0.964422 0.350625
vt 0.964422 0.381400
vt 0.308137 0.977068
vt 0.308137 0.946286
vt 0.310203 0.946284
vt 0.310203 0.977065
vt 0.375902 0.969212
vt 0.377202 0.971001
vt 0.375902 0.972790
vt 0.373799 0.972107
vt 0.373799 0.969896
vt 0.935575 0.937008
vt 0.935575 0.906232
vt 0.937100 0.906201
vt 0.937100 0.936976
vt 0.939094 0.906220
vt 0.939094 0.936995
vt 0.966810 0.961247
vt 0.966810 0.963459
vt 0.964706 0.964142
vt 0.963407 0.962353
vt 0.964706 0.960564
vt 0.963126 0.838172
vt 0.963126 0.807391
vt 0.965317 0.807390
vt 0.965317 0.838171
vt 0.962215 0.435732
vt 0.962215 0.404957
vt 0.964422 0.404959
vt 0.964422 0.435735
vt 0.222170 0.988222
vt 0.222170 0.957440
vt 0.224236 0.957438
vt 0.224236 0.988219
vt 0.039103 0.978978
vt 0.040402 0.977189
vt 0.042505 0.977872
vt 0.042505 0.980083
vt 0.040402 0.980767
vt 0.950506 0.677609
vt 0.950506 0.646834
vt 0.952031 0.646803
vt 0.952031 0.677578
vt 0.954025 0.646821
vt 0.954025 0.677597
vt 0.488478 0.964348
vt 0.488478 0.966559
vt 0.486375 0.967242
vt 0.485075 0.965453
vt 0.486375 0.963664
vt 0.968980 0.258898
vt 0.968980 0.228116
vt 0.971170 0.228116
vt 0.971170 0.258897
vt 0.963126 0.783831
vt 0.963126 0.753056
vt 0.965334 0.753058
vt 0.965334 0.783834
vt 0.585322 0.794130
vt 0.585322 0.763348
vt 0.587388 0.763346
vt 0.587388 0.794127
vt 0.403219 0.969212
vt 0.404519 0.971001
vt 0.403219 0.972790
vt 0.401116 0.972107
vt 0.401116 0.969896
vt 0.446843 0.939195
vt 0.446843 0.908419
vt 0.448368 0.908388
vt 0.448368 0.939164
vt 0.450363 0.908407
vt 0.450363 0.939182
vt 0.763119 0.980815
vt 0.764419 0.979026
vt 0.766522 0.979709
vt 0.766522 0.981921
vt 0.764419 0.982604
vt 0.966883 0.541940
vt 0.966883 0.511159
vt 0.969074 0.511158
vt 0.969074 0.541939
vt 0.611043 0.964651
vt 0.611043 0.933875
vt 0.613251 0.933878
vt 0.613251 0.964654
vt 0.277328 0.974865
vt 0.277328 0.944084
vt 0.279394 0.944082
vt 0.279394 0.974863
vt 0.115703 0.979667
vt 0.115703 0.977456
vt 0.117806 0.976772
vt 0.119106 0.978561
vt 0.117806 0.980350
vt 0.763120 0.955469
vt 0.763120 0.924694
vt 0.764645 0.924663
vt 0.764645 0.955438
vt 0.766639 0.924682
vt 0.766639 0.955457
vt 0.146430 0.977456
vt 0.146430 0.979667
vt 0.144327 0.980350
vt 0.143027 0.978562
vt 0.144327 0.976772
vt 0.968980 0.204559
vt 0.968980 0.173778
vt 0.971170 0.173777
vt 0.971170 0.204558
vt 0.636807 0.964651
vt 0.636807 0.933875
vt 0.639015 0.933878
vt 0.639015 0.964653
vt 0.674739 0.982591
vt 0.674739 0.951810
vt 0.676806 0.951808
vt 0.676806 0.982589
vt 0.790195 0.979709
vt 0.792298 0.979026
vt 0.793598 0.980815
vt 0.792298 0.982604
vt 0.790195 0.981921
vt 0.790195 0.955470
vt 0.790195 0.924694
vt 0.791720 0.924663
vt 0.791720 0.955438
vt 0.793714 0.924682
vt 0.793714 0.955457
vt 0.090489 0.976797
vt 0.091788 0.978586
vt 0.090489 0.980375
vt 0.088386 0.979692
vt 0.088386 0.977480
vt 0.724448 0.970017
vt 0.724448 0.939236
vt 0.726639 0.939235
vt 0.726639 0.970016
vt 0.962651 0.936976
vt 0.962651 0.906201
vt 0.964859 0.906203
vt 0.964859 0.936979
vt 0.977582 0.623223
vt 0.977582 0.592442
vt 0.979648 0.592440
vt 0.979648 0.623221
vt 0.984028 0.069036
vt 0.984028 0.066825
vt 0.986131 0.066141
vt 0.987431 0.067930
vt 0.986131 0.069719
vt 0.950506 0.623246
vt 0.950506 0.592471
vt 0.952031 0.592440
vt 0.952031 0.623215
vt 0.954025 0.592458
vt 0.954025 0.623234
vt 0.013881 0.977189
vt 0.015181 0.978978
vt 0.013881 0.980767
vt 0.011778 0.980083
vt 0.011778 0.977872
vt 0.968980 0.313236
vt 0.968980 0.282455
vt 0.971170 0.282454
vt 0.971170 0.313235
vt 0.162156 0.624533
vt 0.162156 0.593758
vt 0.164364 0.593760
vt 0.164364 0.624536
vt 0.980166 0.042561
vt 0.980166 0.011780
vt 0.982232 0.011778
vt 0.982232 0.042559
vt 0.983427 0.710050
vt 0.984727 0.711839
vt 0.983427 0.713628
vt 0.981324 0.712944
vt 0.981324 0.710733
vt 0.953090 0.042585
vt 0.953090 0.011809
vt 0.954615 0.011778
vt 0.954615 0.042554
vt 0.956610 0.011797
vt 0.956610 0.042572
vt 0.520452 0.963701
vt 0.522555 0.964384
vt 0.522555 0.966596
vt 0.520452 0.967279
vt 0.519152 0.965490
vt 0.875953 0.564185
vt 0.875953 0.511173
vt 0.896757 0.511183
vt 0.896757 0.564195
vt 0.915786 0.511158
vt 0.915786 0.564170
vt 0.611043 0.910173
vt 0.611043 0.857171
vt 0.630739 0.857316
vt 0.630739 0.910319
vt 0.651183 0.857214
vt 0.651183 0.910217
vt 0.011778 0.821790
vt 0.064790 0.821790
vt 0.064826 0.838244
vt 0.011814 0.838244
vt 0.064829 0.859355
vt 0.011817 0.859355
vt 0.064798 0.877059
vt 0.011786 0.877059
vt 0.088528 0.821790
vt 0.141530 0.821790
vt 0.141726 0.840384
vt 0.088724 0.840384
vt 0.201141 0.815903
vt 0.221244 0.809371
vt 0.241347 0.815903
vt 0.253771 0.833004
vt 0.253771 0.854141
vt 0.241347 0.871242
vt 0.221244 0.877774
vt 0.201141 0.871242
vt 0.188717 0.854141
vt 0.188717 0.833004
vt 0.141672 0.861336
vt 0.088670 0.861336
vt 0.141388 0.876642
vt 0.088386 0.876642
vt 0.442346 0.181855
vt 0.454770 0.164754
vt 0.474873 0.158222
vt 0.494976 0.164754
vt 0.507400 0.181855
vt 0.507400 0.202992
vt 0.494976 0.220093
vt 0.474873 0.226625
vt 0.454770 0.220093
vt 0.442346 0.202993
vt 0.346482 0.945656
vt 0.346482 0.892654
vt 0.350243 0.892614
vt 0.350243 0.945616
vt 0.115703 0.953211
vt 0.115703 0.900199
vt 0.119471 0.900204
vt 0.119471 0.953216
vt 0.939343 0.564161
vt 0.939343 0.511158
vt 0.943326 0.511188
vt 0.943326 0.564190
vt 0.308137 0.922728
vt 0.308137 0.869716
vt 0.312131 0.869712
vt 0.312131 0.922724
vt 0.247793 0.957438
vt 0.252068 0.957438
vt 0.252068 0.961714
vt 0.247793 0.961714
vt 0.825628 0.963170
vt 0.825628 0.967446
vt 0.821353 0.967446
vt 0.821353 0.963170
vt 0.373799 0.945656
vt 0.373799 0.892654
vt 0.377560 0.892614
vt 0.377560 0.945616
vt 0.143027 0.953211
vt 0.143027 0.900199
vt 0.146795 0.900204
vt 0.146795 0.953216
vt 0.941440 0.249030
vt 0.941440 0.196027
vt 0.945423 0.196057
vt 0.945423 0.249059
vt 0.935575 0.882644
vt 0.935575 0.829632
vt 0.939569 0.829628
vt 0.939569 0.882640
vt 0.935575 0.964839
vt 0.935575 0.960564
vt 0.939850 0.960564
vt 0.939850 0.964839
vt 0.557282 0.962101
vt 0.557282 0.966376
vt 0.553007 0.966376
vt 0.553007 0.962101
vt 0.401116 0.945656
vt 0.401116 0.892654
vt 0.404877 0.892614
vt 0.404877 0.945616
vt 0.039103 0.953627
vt 0.039103 0.900615
vt 0.042871 0.900621
vt 0.042871 0.953632
vt 0.941440 0.172442
vt 0.941440 0.119439
vt 0.945423 0.119468
vt 0.945423 0.172471
vt 0.906033 0.940783
vt 0.906033 0.887771
vt 0.910028 0.887767
vt 0.910028 0.940779
vt 0.188717 0.958228
vt 0.192992 0.958228
vt 0.192992 0.962503
vt 0.188717 0.962503
vt 0.585113 0.962101
vt 0.585113 0.966376
vt 0.580838 0.966376
vt 0.580838 0.962101
vt 0.088386 0.953240
vt 0.088386 0.900238
vt 0.092146 0.900199
vt 0.092146 0.953201
vt 0.011778 0.953627
vt 0.011778 0.900615
vt 0.015546 0.900621
vt 0.015546 0.953633
vt 0.941440 0.325619
vt 0.941440 0.272616
vt 0.945423 0.272645
vt 0.945423 0.325648
vt 0.935575 0.806072
vt 0.935575 0.753060
vt 0.939569 0.753056
vt 0.939569 0.806068
vt 0.963126 0.866004
vt 0.963126 0.861729
vt 0.967401 0.861729
vt 0.967401 0.866004
vt 0.451118 0.962751
vt 0.451118 0.967026
vt 0.446843 0.967026
vt 0.446843 0.962751
vt 0.094368 0.768003
vt 0.056442 0.757812
vt 0.056442 0.756041
vt 0.094368 0.745873
vt 0.055557 0.754508
vt 0.083303 0.726708
vt 0.054024 0.753623
vt 0.064138 0.715643
vt 0.131198 0.793780
vt 0.145392 0.754584
vt 0.147152 0.754584
vt 0.153195 0.793780
vt 0.042008 0.715643
vt 0.052253 0.753623
vt 0.050720 0.754508
vt 0.022843 0.726708
vt 0.049835 0.756041
vt 0.011778 0.745873
vt 0.844984 0.163663
vt 0.859015 0.125290
vt 0.860776 0.125290
vt 0.866998 0.163663
vt 0.011778 0.768003
vt 0.049835 0.757812
vt 0.050720 0.759345
vt 0.022843 0.787168
vt 0.052253 0.760230
vt 0.042008 0.798233
vt 0.054024 0.760230
vt 0.064138 0.798233
vt 0.055557 0.759345
vt 0.083303 0.787168
vt 0.555767 0.194940
vt 0.555767 0.172810
vt 0.566832 0.153645
vt 0.585997 0.142580
vt 0.608127 0.142580
vt 0.627292 0.153645
vt 0.638357 0.172810
vt 0.638357 0.194940
vt 0.627292 0.214105
vt 0.608127 0.225170
vt 0.585997 0.225170
vt 0.566832 0.214105
vt 0.933528 0.481913
vt 0.933528 0.468232
vt 0.938081 0.468243
vt 0.938081 0.481923
vt 0.669184 0.125608
vt 0.682861 0.125435
vt 0.682861 0.218713
vt 0.669184 0.218886
vt 0.921819 0.723739
vt 0.921819 0.710059
vt 0.926830 0.710050
vt 0.926830 0.723730
vt 0.460520 0.884832
vt 0.446843 0.884613
vt 0.446843 0.799540
vt 0.460520 0.799759
vt 0.911898 0.307182
vt 0.911898 0.196027
vt 0.917883 0.196027
vt 0.917883 0.307182
vt 0.283313 0.809371
vt 0.283313 0.920525
vt 0.277328 0.920525
vt 0.277328 0.809371
vt 0.778314 0.171531
vt 0.778314 0.157854
vt 0.784299 0.157854
vt 0.784299 0.171532
vt 0.321817 0.685243
vt 0.308137 0.685243
vt 0.308137 0.574092
vt 0.321817 0.574092
vt 0.807855 0.171546
vt 0.807855 0.157868
vt 0.813791 0.157854
vt 0.813791 0.171532
vt 0.446843 0.665849
vt 0.460524 0.665844
vt 0.460524 0.775979
vt 0.446843 0.775984
vt 0.909972 0.350622
vt 0.909972 0.461777
vt 0.903986 0.461777
vt 0.903987 0.350622
vt 0.906033 0.864210
vt 0.906033 0.753056
vt 0.912019 0.753056
vt 0.912019 0.864210
vt 0.917440 0.011963
vt 0.929407 0.011778
vt 0.929534 0.015179
vt 0.917567 0.015364
vt 0.929407 0.085579
vt 0.917440 0.085764
vt 0.961638 0.480201
vt 0.961638 0.468232
vt 0.965490 0.468297
vt 0.965490 0.480265
vt 0.686710 0.928251
vt 0.674739 0.928223
vt 0.674739 0.857171
vt 0.686710 0.857199
vt 0.933528 0.444676
vt 0.933528 0.350622
vt 0.938658 0.350622
vt 0.938658 0.444676
vt 0.926950 0.592440
vt 0.926950 0.686493
vt 0.921820 0.686493
vt 0.921820 0.592440
vt 0.867323 0.221194
vt 0.866297 0.236323
vt 0.854344 0.221739
vt 0.865584 0.246934
vt 0.878651 0.245128
vt 0.860332 0.206401
vt 0.875987 0.211506
vt 0.879673 0.229999
vt 0.904552 0.137691
vt 0.905562 0.150862
vt 0.898162 0.145046
vt 0.738421 0.890907
vt 0.739563 0.906233
vt 0.731993 0.900216
vt 0.855438 0.196027
vt 0.847358 0.206947
vt 0.848007 0.197596
vt 0.764175 0.901107
vt 0.763119 0.887632
vt 0.770727 0.895586
vt 0.856344 0.905797
vt 0.855208 0.889955
vt 0.862753 0.898863
vt 0.898162 0.129787
vt 0.731993 0.881495
vt 0.764175 0.874043
vt 0.770522 0.866664
vt 0.770727 0.879679
vt 0.856344 0.874691
vt 0.862778 0.866616
vt 0.862753 0.880579
vt 0.862778 0.914483
vt 0.882071 0.312712
vt 0.869001 0.320710
vt 0.875987 0.305918
vt 0.888341 0.281250
vt 0.888341 0.297113
vt 0.879673 0.287425
vt 0.865584 0.270490
vt 0.878651 0.272296
vt 0.866297 0.281101
vt 0.845248 0.295302
vt 0.853322 0.280555
vt 0.854344 0.295684
vt 0.855438 0.321396
vt 0.847358 0.310477
vt 0.860332 0.311022
vt 0.867323 0.296230
vt 0.870323 0.905107
vt 0.869223 0.916420
vt 0.869181 0.889846
vt 0.870323 0.875524
vt 0.777117 0.887576
vt 0.778129 0.900357
vt 0.778129 0.874619
vt 0.886688 0.272633
vt 0.724448 0.890940
vt 0.725585 0.875125
vt 0.725585 0.906977
vt 0.890554 0.137757
vt 0.891609 0.125290
vt 0.891609 0.151249
vt 0.732018 0.866664
vt 0.739563 0.875940
vt 0.732018 0.915679
vt 0.905562 0.126174
vt 0.897954 0.158831
vt 0.855247 0.915229
vt 0.888342 0.220311
vt 0.888342 0.236174
vt 0.882071 0.204712
vt 0.869001 0.196714
vt 0.845248 0.222122
vt 0.853322 0.236869
vt 0.739966 0.598600
vt 0.739244 0.608777
vt 0.730839 0.599530
vt 0.738743 0.615914
vt 0.747932 0.614136
vt 0.735050 0.588997
vt 0.746059 0.591734
vt 0.748651 0.603959
vt 0.851942 0.359189
vt 0.852600 0.368517
vt 0.847758 0.364308
vt 0.231319 0.917568
vt 0.232067 0.927654
vt 0.227110 0.923777
vt 0.731607 0.582263
vt 0.725926 0.589928
vt 0.726382 0.583638
vt 0.779275 0.365942
vt 0.778586 0.356651
vt 0.783568 0.362258
vt 0.189461 0.927340
vt 0.188717 0.916718
vt 0.193657 0.922592
vt 0.847758 0.353634
vt 0.227110 0.911343
vt 0.779276 0.347114
vt 0.783429 0.341895
vt 0.783568 0.351191
vt 0.189461 0.906628
vt 0.193674 0.901330
vt 0.193657 0.910418
vt 0.193674 0.933202
vt 0.732311 0.154429
vt 0.723120 0.159217
vt 0.728034 0.149614
vt 0.736721 0.133632
vt 0.736721 0.144256
vt 0.730626 0.137390
vt 0.720718 0.125435
vt 0.729907 0.127213
vt 0.721219 0.132572
vt 0.706417 0.141166
vt 0.712095 0.131641
vt 0.712813 0.141818
vt 0.713582 0.159085
vt 0.707900 0.151421
vt 0.717025 0.152351
vt 0.721941 0.142749
vt 0.198614 0.926901
vt 0.197895 0.934671
vt 0.197865 0.916621
vt 0.198614 0.907204
vt 0.787752 0.356652
vt 0.788411 0.365408
vt 0.788411 0.347501
vt 0.735558 0.127788
vt 0.222170 0.917571
vt 0.222915 0.907011
vt 0.222915 0.928164
vt 0.842776 0.359272
vt 0.843465 0.350622
vt 0.843465 0.368781
vt 0.227127 0.901330
vt 0.232067 0.907536
vt 0.227127 0.933882
vt 0.852600 0.351248
vt 0.847618 0.374155
vt 0.754746 0.607717
vt 0.753583 0.613560
vt 0.754746 0.597093
vt 0.750336 0.586919
vt 0.741146 0.582132
vt 0.724442 0.600183
vt 0.730120 0.609708
vt 0.138599 0.593902
vt 0.138599 0.731027
vt 0.134966 0.730883
vt 0.134966 0.593758
vt 0.131198 0.731012
vt 0.131198 0.593887
vt 0.898263 0.592440
vt 0.898263 0.729354
vt 0.894041 0.729410
vt 0.894041 0.592496
vt 0.315452 0.708800
vt 0.315452 0.846013
vt 0.312125 0.846155
vt 0.312125 0.708942
vt 0.956781 0.066141
vt 0.960472 0.068290
vt 0.960472 0.072561
vt 0.956781 0.074682
vt 0.953090 0.072533
vt 0.953090 0.068263
vt 0.308137 0.846074
vt 0.308137 0.708860
vt 0.880430 0.350632
vt 0.880430 0.487602
vt 0.876157 0.487592
vt 0.876157 0.350622
vt 0.957768 0.712199
vt 0.957768 0.716469
vt 0.954077 0.718591
vt 0.950387 0.716443
vt 0.950387 0.712172
vt 0.954077 0.710050
s 1
usemtl prop_mercusuar_rusak_mat
f 1/1/1 2/2/2 4/3/4 3/4/3
f 3/4/3 4/3/4 6/5/6 5/6/5
f 5/6/5 6/5/6 8/7/8 7/8/7
f 7/9/7 8/10/8 10/11/10 9/12/9
f 9/12/9 10/11/10 12/13/12 11/14/11
f 11/14/11 12/13/12 14/15/14 13/16/13
f 13/17/13 14/18/14 16/19/16 15/20/15
f 15/20/15 16/19/16 18/21/18 17/22/17
f 17/22/17 18/21/18 20/23/20 19/24/19
f 19/24/19 20/23/20 22/25/22 21/26/21
f 21/27/21 22/28/22 24/29/24 23/30/23
f 23/30/23 24/29/24 26/31/26 25/32/25
f 4/33/4 2/34/2 28/35/28 26/36/26 24/37/24 22/38/22 20/39/20 18/40/18 16/41/16 14/42/14 12/43/12 10/44/10 8/45/8 6/46/6
f 25/32/25 26/31/26 28/47/28 27/48/27
f 27/49/27 28/50/28 2/2/2 1/1/1
f 1/51/1 3/52/3 5/53/5 7/54/7 9/55/9 11/56/11 13/57/13 15/58/15 17/59/17 19/60/19 21/61/21 23/62/23 25/63/25 27/64/27
f 29/65/1 30/66/2 32/67/4 31/68/3
f 31/68/3 32/67/4 34/69/6 33/70/5
f 33/70/5 34/69/6 36/71/8 35/72/7
f 35/73/7 36/74/8 38/75/10 37/76/9
f 37/76/9 38/75/10 40/77/12 39/78/11
f 39/78/11 40/77/12 42/79/14 41/80/13
f 41/81/13 42/82/14 44/83/16 43/84/15
f 43/84/15 44/83/16 46/85/18 45/86/17
f 45/86/17 46/85/18 48/87/20 47/88/19
f 47/88/19 48/87/20 50/89/22 49/90/21
f 49/91/21 50/92/22 52/93/24 51/94/23
f 51/94/23 52/93/24 54/95/26 53/96/25
f 32/97/4 30/98/2 56/99/28 54/100/26 52/101/24 50/102/22 48/103/20 46/104/18 44/105/16 42/106/14 40/107/12 38/108/10 36/109/8 34/110/6
f 53/96/25 54/95/26 56/111/28 55/112/27
f 55/113/27 56/114/28 30/66/2 29/65/1
f 29/115/1 31/116/3 33/117/5 35/118/7 37/119/9 39/120/11 41/121/13 43/122/15 45/123/17 47/124/19 49/125/21 51/126/23 53/127/25 55/128/27
f 57/129/1 58/130/2 60/131/4 59/132/3
f 59/132/3 60/131/4 62/133/6 61/134/5
f 61/134/5 62/133/6 64/135/8 63/136/7
f 63/137/7 64/138/8 66/139/10 65/140/9
f 65/140/9 66/139/10 68/141/12 67/142/11
f 67/142/11 68/141/12 70/143/14 69/144/13
f 69/145/13 70/146/14 72/147/16 71/148/15
f 71/148/15 72/147/16 74/149/18 73/150/17
f 73/150/17 74/149/18 76/151/20 75/152/19
f 75/152/19 76/151/20 78/153/22 77/154/21
f 77/155/21 78/156/22 80/157/24 79/158/23
f 79/158/23 80/157/24 82/159/26 81/160/25
f 60/161/4 58/162/2 84/163/28 82/164/26 80/165/24 78/166/22 76/167/20 74/168/18 72/169/16 70/170/14 68/171/12 66/172/10 64/173/8 62/174/6
f 81/160/25 82/159/26 84/175/28 83/176/27
f 83/177/27 84/178/28 58/130/2 57/129/1
f 57/179/1 59/180/3 61/181/5 63/182/7 65/183/9 67/184/11 69/185/13 71/186/15 73/187/17 75/188/19 77/189/21 79/190/23 81/191/25 83/192/27
f 85/193/1 86/194/2 88/195/4 87/196/3
f 87/196/3 88/195/4 90/197/6 89/198/5
f 89/198/5 90/197/6 92/199/8 91/200/7
f 91/201/7 92/202/8 94/203/10 93/204/9
f 93/204/9 94/203/10 96/205/12 95/206/11
f 95/206/11 96/205/12 98/207/14 97/208/13
f 97/209/13 98/210/14 100/211/16 99/212/15
f 99/212/15 100/211/16 102/213/18 101/214/17
f 101/214/17 102/213/18 104/215/20 103/216/19
f 103/216/19 104/215/20 106/217/22 105/218/21
f 105/219/21 106/220/22 108/221/24 107/222/23
f 107/222/23 108/221/24 110/223/26 109/224/25
f 88/225/4 86/226/2 112/227/28 110/228/26 108/229/24 106/230/22 104/231/20 102/232/18 100/233/16 98/234/14 96/235/12 94/236/10 92/237/8 90/238/6
f 109/224/25 110/223/26 112/239/28 111/240/27
f 111/241/27 112/242/28 86/194/2 85/193/1
f 85/243/1 87/244/3 89/245/5 91/246/7 93/247/9 95/248/11 97/249/13 99/250/15 101/251/17 103/252/19 105/253/21 107/254/23 109/255/25 111/256/27
f 113/257/1 114/258/2 116/259/4 115/260/3
f 115/260/3 116/259/4 118/261/6 117/262/5
f 117/262/5 118/261/6 120/263/8 119/264/7
f 119/265/7 120/266/8 122/267/10 121/268/9
f 121/268/9 122/267/10 124/269/12 123/270/11
f 123/270/11 124/269/12 126/271/14 125/272/13
f 125/273/13 126/274/14 128/275/16 127/276/15
f 127/276/15 128/275/16 130/277/18 129/278/17
f 129/278/17 130/277/18 132/279/20 131/280/19
f 131/280/19 132/279/20 134/281/22 133/282/21
f 133/283/21 134/284/22 136/285/24 135/286/23
f 135/286/23 136/285/24 138/287/26 137/288/25
f 116/289/4 114/290/2 140/291/28 138/292/26 136/293/24 134/294/22 132/295/20 130/296/18 128/297/16 126/298/14 124/299/12 122/300/10 120/301/8 118/302/6
f 137/288/25 138/287/26 140/303/28 139/304/27
f 139/305/27 140/306/28 114/258/2 113/257/1
f 113/307/1 115/308/3 117/309/5 119/310/7 121/311/9 123/312/11 125/313/13 127/314/15 129/315/17 131/316/19 133/317/21 135/318/23 137/319/25 139/320/27
f 141/321/1 142/322/2 144/323/4 143/324/3
f 143/324/3 144/323/4 146/325/6 145/326/5
f 145/326/5 146/325/6 148/327/8 147/328/7
f 147/329/7 148/330/8 150/331/10 149/332/9
f 149/332/9 150/331/10 152/333/12 151/334/11
f 151/334/11 152/333/12 154/335/14 153/336/13
f 153/337/13 154/338/14 156/339/16 155/340/15
f 155/340/15 156/339/16 158/341/18 157/342/17
f 157/342/17 158/341/18 160/343/20 159/344/19
f 159/344/19 160/343/20 162/345/22 161/346/21
f 161/347/21 162/348/22 164/349/24 163/350/23
f 163/350/23 164/349/24 166/351/26 165/352/25
f 144/353/4 142/354/2 168/355/28 166/356/26 164/357/24 162/358/22 160/359/20 158/360/18 156/361/16 154/362/14 152/363/12 150/364/10 148/365/8 146/366/6
f 165/352/25 166/351/26 168/367/28 167/368/27
f 167/369/27 168/370/28 142/322/2 141/321/1
f 141/371/1 143/372/3 145/373/5 147/374/7 149/375/9 151/376/11 153/377/13 155/378/15 157/379/17 159/380/19 161/381/21 163/382/23 165/383/25 167/384/27
f 169/385/29 170/386/30 172/387/32 171/388/31
f 171/388/31 172/387/32 174/389/34 173/390/33
f 173/391/33 174/392/34 176/393/36 175/394/35
f 175/394/35 176/393/36 178/395/38 177/396/37
f 177/396/37 178/395/38 180/397/40 179/398/39
f 179/399/39 180/400/40 182/401/42 181/402/41
f 181/402/41 182/401/42 184/403/44 183/404/43
f 183/404/43 184/403/44 186/405/46 185/406/45
f 185/407/45 186/408/46 188/409/48 187/410/47
f 187/410/47 188/409/48 190/411/50 189/412/49
f 172/413/32 170/414/30 192/415/52 190/416/50 188/417/48 186/418/46 184/419/44 182/420/42 180/421/40 178/422/38 176/423/36 174/424/34
f 189/412/49 190/411/50 192/425/52 191/426/51
f 191/427/51 192/428/52 170/386/30 169/385/29
f 169/429/29 171/430/31 173/431/33 175/432/35 177/433/37 179/434/39 181/435/41 183/436/43 185/437/45 187/438/47 189/439/49 191/440/51
f 193/441/53 194/442/54 196/443/56 195/444/55
f 195/445/55 196/446/56 198/447/58 197/448/57
f 197/449/57 198/450/58 200/451/60 199/452/59
f 196/453/56 194/454/54 202/455/62 200/456/60 198/457/58
f 199/458/59 200/459/60 202/460/62 201/461/61
f 201/461/61 202/460/62 194/462/54 193/463/53
f 193/464/53 195/465/55 197/466/57 199/467/59 201/468/61
f 203/469/53 204/470/54 206/471/56 205/472/55
f 205/473/55 206/474/56 208/475/58 207/476/57
f 207/477/57 208/478/58 210/479/60 209/480/59
f 206/481/56 204/482/54 212/483/62 210/484/60 208/485/58
f 209/486/59 210/487/60 212/488/62 211/489/61
f 211/489/61 212/488/62 204/490/54 203/491/53
f 203/492/53 205/493/55 207/494/57 209/495/59 211/496/61
f 213/497/53 214/498/54 216/499/56 215/500/55
f 215/501/55 216/502/56 218/503/58 217/504/57
f 217/505/57 218/506/58 220/507/60 219/508/59
f 216/509/56 214/510/54 222/511/62 220/512/60 218/513/58
f 219/514/59 220/515/60 222/516/62 221/517/61
f 221/517/61 222/516/62 214/518/54 213/519/53
f 213/520/53 215/521/55 217/522/57 219/523/59 221/524/61
f 223/525/53 224/526/54 226/527/56 225/528/55
f 225/529/55 226/530/56 228/531/58 227/532/57
f 227/533/57 228/534/58 230/535/60 229/536/59
f 226/537/56 224/538/54 232/539/62 230/540/60 228/541/58
f 229/542/59 230/543/60 232/544/62 231/545/61
f 231/545/61 232/544/62 224/546/54 223/547/53
f 223/548/53 225/549/55 227/550/57 229/551/59 231/552/61
f 233/553/53 234/554/54 236/555/56 235/556/55
f 235/557/55 236/558/56 238/559/58 237/560/57
f 237/561/57 238/562/58 240/563/60 239/564/59
f 236/565/56 234/566/54 242/567/62 240/568/60 238/569/58
f 239/570/59 240/571/60 242/572/62 241/573/61
f 241/573/61 242/572/62 234/574/54 233/575/53
f 233/576/53 235/577/55 237/578/57 239/579/59 241/580/61
f 243/581/53 244/582/54 246/583/56 245/584/55
f 245/585/55 246/586/56 248/587/58 247/588/57
f 247/589/57 248/590/58 250/591/60 249/592/59
f 246/593/56 244/594/54 252/595/62 250/596/60 248/597/58
f 249/598/59 250/599/60 252/600/62 251/601/61
f 251/601/61 252/600/62 244/602/54 243/603/53
f 243/604/53 245/605/55 247/606/57 249/607/59 251/608/61
f 253/609/53 254/610/54 256/611/56 255/612/55
f 255/613/55 256/614/56 258/615/58 257/616/57
f 257/617/57 258/618/58 260/619/60 259/620/59
f 256/621/56 254/622/54 262/623/62 260/624/60 258/625/58
f 259/626/59 260/627/60 262/628/62 261/629/61
f 261/629/61 262/628/62 254/630/54 253/631/53
f 253/632/53 255/633/55 257/634/57 259/635/59 261/636/61
f 263/637/53 264/638/54 266/639/56 265/640/55
f 265/641/55 266/642/56 268/643/58 267/644/57
f 267/645/57 268/646/58 270/647/60 269/648/59
f 266/649/56 264/650/54 272/651/62 270/652/60 268/653/58
f 269/654/59 270/655/60 272/656/62 271/657/61
f 271/657/61 272/656/62 264/658/54 263/659/53
f 263/660/53 265/661/55 267/662/57 269/663/59 271/664/61
f 273/665/63 274/666/64 276/667/66 275/668/65
f 275/668/65 276/667/66 278/669/68 277/670/67
f 277/671/67 278/672/68 280/673/70 279/674/69
f 279/674/69 280/673/70 282/675/72 281/676/71
f 281/677/71 282/678/72 284/679/74 283/680/73
f 283/680/73 284/679/74 286/681/76 285/682/75
f 285/682/75 286/681/76 288/683/78 287/684/77
f 287/685/77 288/686/78 290/687/80 289/688/79
f 276/689/66 274/690/64 292/691/82 290/692/80 288/693/78 286/694/76 284/695/74 282/696/72 280/697/70 278/698/68
f 289/688/79 290/687/80 292/699/82 291/700/81
f 291/700/81 292/699/82 274/701/64 273/702/63
f 273/703/63 275/704/65 277/705/67 279/706/69 281/707/71 283/708/73 285/709/75 287/710/77 289/711/79 291/712/81
f 293/713/83 294/714/84 296/715/86 295/716/85
f 295/717/85 296/718/86 300/719/90 299/720/89
f 299/721/89 300/722/90 298/723/88 297/724/87
f 297/725/87 298/726/88 294/727/84 293/728/83
f 295/729/85 299/730/89 297/731/87 293/732/83
f 300/733/90 296/734/86 294/735/84 298/736/88
f 301/737/83 302/738/84 304/739/86 303/740/85
f 303/741/85 304/742/86 308/743/90 307/744/89
f 307/745/89 308/746/90 306/747/88 305/748/87
f 305/749/87 306/750/88 302/751/84 301/752/83
f 303/753/85 307/754/89 305/755/87 301/756/83
f 308/757/90 304/758/86 302/759/84 306/760/88
f 309/761/83 310/762/84 312/763/86 311/764/85
f 311/765/85 312/766/86 316/767/90 315/768/89
f 315/769/89 316/770/90 314/771/88 313/772/87
f 313/773/87 314/774/88 310/775/84 309/776/83
f 311/777/85 315/778/89 313/779/87 309/780/83
f 316/781/90 312/782/86 310/783/84 314/784/88
f 317/785/83 318/786/84 320/787/86 319/788/85
f 319/789/85 320/790/86 324/791/90 323/792/89
f 323/793/89 324/794/90 322/795/88 321/796/87
f 321/797/87 322/798/88 318/799/84 317/800/83
f 319/801/85 323/802/89 321/803/87 317/804/83
f 324/805/90 320/806/86 318/807/84 322/808/88
f 325/809/91 326/810/92 328/811/94 327/812/93
f 327/812/93 328/811/94 330/813/96 329/814/95
f 329/814/95 330/813/96 332/815/98 331/816/97
f 331/817/97 332/818/98 334/819/100 333/820/99
f 333/821/99 334/822/100 336/823/102 335/824/101
f 335/824/101 336/823/102 338/825/104 337/826/103
f 337/827/103 338/828/104 340/829/106 339/830/105
f 339/831/105 340/832/106 342/833/108 341/834/107
f 341/834/107 342/833/108 344/835/110 343/836/109
f 343/836/109 344/835/110 346/837/112 345/838/111
f 328/811/94 326/810/92 348/839/114 346/837/112 344/835/110 342/833/108 340/832/106 338/825/104 336/823/102 334/822/100 332/815/98 330/813/96
f 345/838/111 346/837/112 348/839/114 347/840/113
f 347/840/113 348/839/114 326/810/92 325/809/91
f 325/841/91 327/842/93 329/843/95 331/844/97 333/845/99 335/846/101 337/847/103 339/848/105 341/849/107 343/850/109 345/851/111 347/852/113
f 349/853/115 350/854/116 352/855/118 351/856/117
f 351/857/117 352/858/118 356/859/122 355/860/121
f 355/861/121 356/862/122 354/863/120 353/864/119
f 353/865/119 354/866/120 350/867/116 349/868/115
f 351/869/117 355/870/121 353/871/119 349/872/115
f 356/873/122 352/874/118 350/875/116 354/876/120
f 357/877/123 358/878/124 360/879/126 359/880/125
f 359/881/125 360/882/126 364/883/130 363/884/129
f 363/885/129 364/886/130 362/887/128 361/888/127
f 361/889/127 362/890/128 358/891/124 357/892/123
f 359/893/125 363/894/129 361/895/127 357/896/123
f 364/897/130 360/898/126 358/899/124 362/900/128
f 365/901/131 366/902/132 368/903/134 367/904/133
f 367/904/133 368/903/134 372/905/138 371/906/137
f 371/907/137 372/908/138 370/909/136 369/910/135
f 369/911/135 370/912/136 366/913/132 365/914/131
f 367/915/133 371/916/137 369/917/135 365/918/131
f 372/919/138 368/920/134 366/921/132 370/922/136
f 373/923/139 386/924/152 385/925/151
f 374/926/140 386/924/152 388/927/154
f 373/923/139 385/925/151 390/928/156
f 373/923/139 390/928/156 392/929/158
f 373/923/139 392/929/158 389/930/155
f 374/931/140 388/932/154 395/933/161
f 375/934/141 387/935/153 397/936/163
f 376/937/142 391/938/157 399/939/165
f 377/940/143 393/941/159 401/942/167
f 378/943/144 394/944/160 403/945/169
f 374/931/140 395/933/161 398/946/164
f 375/934/141 397/936/163 400/947/166
f 376/948/142 399/949/165 402/950/168
f 377/951/143 401/952/167 404/953/170
f 378/943/144 403/945/169 396/954/162
f 379/955/145 405/956/171 410/957/176
f 380/958/146 406/959/172 412/960/178
f 381/961/147 407/962/173 413/963/179
f 382/964/148 408/965/174 414/966/180
f 383/967/149 409/968/175 411/969/177
f 411/969/177 414/966/180 384/970/150
f 411/969/177 409/968/175 414/966/180
f 409/968/175 382/964/148 414/966/180
f 414/966/180 413/963/179 384/970/150
f 414/966/180 408/965/174 413/963/179
f 408/965/174 381/961/147 413/963/179
f 413/963/179 412/960/178 384/970/150
f 413/963/179 407/962/173 412/960/178
f 407/962/173 380/958/146 412/960/178
f 412/960/178 410/957/176 384/970/150
f 412/960/178 406/959/172 410/957/176
f 406/959/172 379/955/145 410/957/176
f 410/957/176 411/969/177 384/970/150
f 410/957/176 405/956/171 411/969/177
f 405/956/171 383/967/149 411/969/177
f 396/954/162 409/971/175 383/972/149
f 396/954/162 403/945/169 409/971/175
f 403/945/169 382/973/148 409/971/175
f 404/953/170 408/974/174 382/973/148
f 404/953/170 401/952/167 408/974/174
f 401/942/167 381/975/147 408/976/174
f 402/950/168 407/977/173 381/975/147
f 402/950/168 399/949/165 407/977/173
f 399/978/165 380/958/146 407/962/173
f 400/947/166 406/979/172 380/980/146
f 400/947/166 397/936/163 406/979/172
f 397/936/163 379/981/145 406/979/172
f 398/946/164 405/982/171 379/983/145
f 398/946/164 395/933/161 405/982/171
f 395/933/161 383/984/149 405/982/171
f 403/945/169 404/953/170 382/973/148
f 403/945/169 394/944/160 404/953/170
f 394/944/160 377/951/143 404/953/170
f 401/942/167 402/950/168 381/975/147
f 401/942/167 393/941/159 402/950/168
f 393/941/159 376/948/142 402/950/168
f 399/985/165 400/947/166 380/980/146
f 399/985/165 391/986/157 400/947/166
f 391/986/157 375/934/141 400/947/166
f 397/936/163 398/987/164 379/981/145
f 397/936/163 387/935/153 398/987/164
f 387/988/153 374/931/140 398/946/164
f 395/933/161 396/989/162 383/984/149
f 395/933/161 388/932/154 396/989/162
f 388/990/154 378/943/144 396/954/162
f 389/930/155 394/991/160 378/992/144
f 389/930/155 392/929/158 394/991/160
f 392/929/158 377/993/143 394/991/160
f 392/929/158 393/994/159 377/993/143
f 392/929/158 390/928/156 393/994/159
f 390/928/156 376/937/142 393/994/159
f 390/928/156 391/938/157 376/937/142
f 390/928/156 385/925/151 391/938/157
f 385/925/151 375/995/141 391/938/157
f 388/927/154 389/930/155 378/992/144
f 388/927/154 386/924/152 389/930/155
f 386/924/152 373/923/139 389/930/155
f 385/925/151 387/996/153 375/995/141
f 385/925/151 386/924/152 387/996/153
f 386/924/152 374/926/140 387/996/153
f 415/997/181 428/998/194 427/999/193
f 416/1000/182 428/998/194 430/1001/196
f 415/997/181 427/999/193 432/1002/198
f 415/997/181 432/1002/198 434/1003/200
f 415/997/181 434/1003/200 431/1004/197
f 416/1005/182 430/1006/196 437/1007/203
f 417/1008/183 429/1009/195 439/1010/163
f 418/1011/184 433/1012/199 441/1013/206
f 419/1014/185 435/1015/201 443/1016/208
f 420/1017/186 436/1018/202 445/1019/210
f 416/1005/182 437/1007/203 440/1020/205
f 417/1008/183 439/1010/163 442/1021/207
f 418/1022/184 441/1023/206 444/1024/209
f 419/1025/185 443/1026/208 446/1027/170
f 420/1017/186 445/1019/210 438/1028/204
f 421/1029/187 447/1030/211 452/1031/216
f 422/1032/188 448/1033/212 454/1034/218
f 423/1035/189 449/1036/213 455/1037/219
f 424/1038/190 450/1039/214 456/1040/220
f 425/1041/191 451/1042/215 453/1043/217
f 453/1043/217 456/1040/220 426/1044/192
f 453/1043/217 451/1042/215 456/1040/220
f 451/1042/215 424/1038/190 456/1040/220
f 456/1040/220 455/1037/219 426/1044/192
f 456/1040/220 450/1039/214 455/1037/219
f 450/1039/214 423/1035/189 455/1037/219
f 455/1037/219 454/1034/218 426/1044/192
f 455/1037/219 449/1036/213 454/1034/218
f 449/1036/213 422/1032/188 454/1034/218
f 454/1034/218 452/1031/216 426/1044/192
f 454/1034/218 448/1033/212 452/1031/216
f 448/1033/212 421/1029/187 452/1031/216
f 452/1031/216 453/1043/217 426/1044/192
f 452/1031/216 447/1030/211 453/1043/217
f 447/1030/211 425/1041/191 453/1043/217
f 438/1028/204 451/1045/215 425/1046/191
f 438/1028/204 445/1019/210 451/1045/215
f 445/1019/210 424/1047/190 451/1045/215
f 446/1027/170 450/1048/214 424/1047/190
f 446/1027/170 443/1026/208 450/1048/214
f 443/1016/208 423/1049/189 450/1050/214
f 444/1024/209 449/1051/213 423/1049/189
f 444/1024/209 441/1023/206 449/1051/213
f 441/1052/206 422/1032/188 449/1036/213
f 442/1021/207 448/1053/212 422/1054/188
f 442/1021/207 439/1010/163 448/1053/212
f 439/1010/163 421/1055/187 448/1053/212
f 440/1020/205 447/1056/211 421/1057/187
f 440/1020/205 437/1007/203 447/1056/211
f 437/1007/203 425/1058/191 447/1056/211
f 445/1019/210 446/1027/170 424/1047/190
f 445/1019/210 436/1018/202 446/1027/170
f 436/1018/202 419/1025/185 446/1027/170
f 443/1016/208 444/1024/209 423/1049/189
f 443/1016/208 435/1015/201 444/1024/209
f 435/1015/201 418/1022/184 444/1024/209
f 441/1059/206 442/1021/207 422/1054/188
f 441/1059/206 433/1060/199 442/1021/207
f 433/1060/199 417/1008/183 442/1021/207
f 439/1010/163 440/1061/205 421/1055/187
f 439/1010/163 429/1009/195 440/1061/205
f 429/1062/195 416/1005/182 440/1020/205
f 437/1007/203 438/1063/204 425/1058/191
f 437/1007/203 430/1006/196 438/1063/204
f 430/1001/196 420/1064/186 438/1065/204
f 431/1004/197 436/1066/202 420/1064/186
f 431/1004/197 434/1003/200 436/1066/202
f 434/1003/200 419/1067/185 436/1066/202
f 434/1003/200 435/1068/201 419/1067/185
f 434/1003/200 432/1002/198 435/1068/201
f 432/1002/198 418/1011/184 435/1068/201
f 432/1002/198 433/1012/199 418/1011/184
f 432/1002/198 427/999/193 433/1012/199
f 427/999/193 417/1069/183 433/1012/199
f 430/1001/196 431/1004/197 420/1064/186
f 430/1001/196 428/998/194 431/1004/197
f 428/998/194 415/997/181 431/1004/197
f 427/999/193 429/1070/195 417/1069/183
f 427/999/193 428/998/194 429/1070/195
f 428/998/194 416/1000/182 429/1070/195
f 457/1071/221 458/1072/222 460/1073/224 459/1074/223
f 459/1074/223 460/1073/224 462/1075/226 461/1076/225
f 461/1077/225 462/1078/226 464/1079/228 463/1080/227
f 463/1081/227 464/1082/228 466/1083/230 465/1084/229
f 460/1085/224 458/1086/222 468/1087/232 466/1088/230 464/1089/228 462/1090/226
f 465/1084/229 466/1083/230 468/1091/232 467/1092/231
f 467/1093/231 468/1094/232 458/1095/222 457/1096/221
f 457/1097/221 459/1098/223 461/1099/225 463/1100/227 465/1101/229 467/1102/231
