# axis-converted-to-Y-up
# Blender 5.1.1
# www.blender.org
mtllib prop_jerami.mtl
o prop_jerami
v 0.000000 0.000000 0.750000
v 0.000000 1.160000 0.080000
v -0.287013 0.000000 0.692910
v -0.030615 1.160000 0.073910
v -0.530330 0.000000 0.530330
v -0.056569 1.160000 0.056569
v -0.692910 0.000000 0.287013
v -0.073910 1.160000 0.030615
v -0.750000 0.000000 -0.000000
v -0.080000 1.160000 -0.000000
v -0.692910 0.000000 -0.287013
v -0.073910 1.160000 -0.030615
v -0.530330 0.000000 -0.530330
v -0.056569 1.160000 -0.056569
v -0.287013 0.000000 -0.692910
v -0.030615 1.160000 -0.073910
v 0.000000 0.000000 -0.750000
v 0.000000 1.160000 -0.080000
v 0.287013 0.000000 -0.692910
v 0.030615 1.160000 -0.073910
v 0.530330 0.000000 -0.530330
v 0.056569 1.160000 -0.056569
v 0.692910 0.000000 -0.287013
v 0.073910 1.160000 -0.030615
v 0.750000 0.000000 -0.000000
v 0.080000 1.160000 -0.000000
v 0.692910 0.000000 0.287013
v 0.073910 1.160000 0.030615
v 0.530330 0.000000 0.530330
v 0.056569 1.160000 0.056569
v 0.287013 0.000000 0.692910
v 0.030615 1.160000 0.073910
v 0.000000 0.825000 0.400000
v 0.000000 1.275000 0.050000
v -0.200000 0.825000 0.346410
v -0.025000 1.275000 0.043301
v -0.346410 0.825000 0.200000
v -0.043301 1.275000 0.025000
v -0.400000 0.825000 -0.000000
v -0.050000 1.275000 -0.000000
v -0.346410 0.825000 -0.200000
v -0.043301 1.275000 -0.025000
v -0.200000 0.825000 -0.346410
v -0.025000 1.275000 -0.043301
v 0.000000 0.825000 -0.400000
v 0.000000 1.275000 -0.050000
v 0.200000 0.825000 -0.346410
v 0.025000 1.275000 -0.043301
v 0.346410 0.825000 -0.200000
v 0.043301 1.275000 -0.025000
v 0.400000 0.825000 -0.000000
v 0.050000 1.275000 -0.000000
v 0.346410 0.825000 0.200000
v 0.043301 1.275000 0.025000
v 0.200000 0.825000 0.346410
v 0.025000 1.275000 0.043301
v -0.436950 0.008149 0.050000
v -0.723050 0.191851 0.004000
v -0.462643 -0.031866 0.015451
v -0.725105 0.188650 0.001236
v -0.452829 -0.016582 -0.040451
v -0.724320 0.189873 -0.003236
v -0.421071 0.032879 -0.040451
v -0.721780 0.193830 -0.003236
v -0.411257 0.048163 0.015451
v -0.720995 0.195053 0.001236
v -0.386924 0.021493 0.476792
v -0.573203 0.199174 0.249976
v -0.405883 -0.026139 0.448041
v -0.574720 0.195364 0.247676
v -0.370915 -0.034392 0.401522
v -0.571922 0.194703 0.243954
v -0.330346 0.008141 0.401522
v -0.568677 0.198106 0.243954
v -0.340240 0.042680 0.448041
v -0.569468 0.200869 0.247676
v -0.161579 0.044711 0.719039
v -0.210249 0.197165 0.415551
v -0.198326 0.003457 0.698972
v -0.213189 0.193865 0.413946
v -0.167184 -0.034369 0.666503
v -0.210698 0.190838 0.411348
v -0.111189 -0.016493 0.666503
v -0.206218 0.192269 0.411348
v -0.107726 0.032381 0.698972
v -0.205941 0.196178 0.413946
v 0.161579 0.044711 0.719039
v 0.210249 0.197165 0.415551
v 0.107726 0.032381 0.698972
v 0.205941 0.196178 0.413946
v 0.111189 -0.016493 0.666503
v 0.206218 0.192269 0.411348
v 0.167184 -0.034369 0.666503
v 0.210698 0.190838 0.411348
v 0.198326 0.003457 0.698972
v 0.213189 0.193865 0.413946
v 0.386924 0.021493 0.476792
v 0.573203 0.199174 0.249976
v 0.340240 0.042680 0.448041
v 0.569468 0.200869 0.247676
v 0.330346 0.008141 0.401522
v 0.568677 0.198106 0.243954
v 0.370915 -0.034392 0.401522
v 0.571922 0.194703 0.243954
v 0.405883 -0.026139 0.448041
v 0.574720 0.195364 0.247676
v 0.436950 0.008149 0.050000
v 0.723050 0.191851 0.004000
v 0.411257 0.048163 0.015451
v 0.720995 0.195053 0.001236
v 0.421071 0.032879 -0.040451
v 0.721780 0.193830 -0.003236
v 0.452829 -0.016582 -0.040451
v 0.724320 0.189873 -0.003236
v 0.462643 -0.031866 0.015451
v 0.725105 0.188650 0.001236
v 0.346799 -0.016780 -0.393575
v 0.569993 0.196112 -0.243318
v 0.327840 0.030853 -0.422326
v 0.568476 0.199923 -0.245619
v 0.362808 0.039105 -0.468846
v 0.571274 0.200583 -0.249340
v 0.403377 -0.003428 -0.468846
v 0.574519 0.197181 -0.249340
v 0.393483 -0.037967 -0.422326
v 0.573728 0.194418 -0.245619
v 0.136823 -0.032837 -0.660957
v 0.208269 0.190961 -0.410904
v 0.100075 0.008417 -0.681024
v 0.205329 0.194261 -0.412510
v 0.131218 0.046243 -0.713493
v 0.207820 0.197287 -0.415107
v 0.187212 0.028368 -0.713493
v 0.212300 0.195857 -0.415107
v 0.190676 -0.020507 -0.681024
v 0.212577 0.191947 -0.412510
v -0.136823 -0.032837 -0.660957
v -0.208269 0.190961 -0.410904
v -0.190676 -0.020507 -0.681024
v -0.212577 0.191947 -0.412510
v -0.187212 0.028368 -0.713493
v -0.212300 0.195857 -0.415107
v -0.131218 0.046243 -0.713493
v -0.207820 0.197287 -0.415107
v -0.100075 0.008417 -0.681024
v -0.205329 0.194261 -0.412510
v -0.346799 -0.016780 -0.393575
v -0.569993 0.196112 -0.243318
v -0.393483 -0.037967 -0.422326
v -0.573728 0.194418 -0.245619
v -0.403377 -0.003428 -0.468846
v -0.574519 0.197181 -0.249340
v -0.362808 0.039105 -0.468846
v -0.571274 0.200583 -0.249340
v -0.327840 0.030853 -0.422326
v -0.568476 0.199923 -0.245619
v 0.000000 1.100000 0.025000
v 0.000000 1.380000 0.025000
v -0.014695 1.100000 0.020225
v -0.014695 1.380000 0.020225
v -0.023776 1.100000 0.007725
v -0.023776 1.380000 0.007725
v -0.023776 1.100000 -0.007725
v -0.023776 1.380000 -0.007725
v -0.014695 1.100000 -0.020225
v -0.014695 1.380000 -0.020225
v 0.000000 1.100000 -0.025000
v 0.000000 1.380000 -0.025000
v 0.014695 1.100000 -0.020225
v 0.014695 1.380000 -0.020225
v 0.023776 1.100000 -0.007725
v 0.023776 1.380000 -0.007725
v 0.023776 1.100000 0.007725
v 0.023776 1.380000 0.007725
v 0.014695 1.100000 0.020225
v 0.014695 1.380000 0.020225
vn -0.000000 -0.458400 0.888800
vn -0.000000 0.839200 0.543900
vn -0.340100 -0.458400 0.821100
vn -0.208100 0.839200 0.502500
vn -0.628400 -0.458400 0.628400
vn -0.384600 0.839200 0.384600
vn -0.821100 -0.458400 0.340100
vn -0.502500 0.839200 0.208100
vn -0.888800 -0.458400 0.000000
vn -0.543900 0.839200 0.000000
vn -0.821100 -0.458400 -0.340100
vn -0.502500 0.839200 -0.208100
vn -0.628400 -0.458400 -0.628400
vn -0.384600 0.839200 -0.384600
vn -0.340100 -0.458400 -0.821100
vn -0.208100 0.839200 -0.502500
vn -0.000000 -0.458400 -0.888800
vn -0.000000 0.839200 -0.543900
vn 0.340100 -0.458400 -0.821100
vn 0.208100 0.839200 -0.502500
vn 0.628400 -0.458400 -0.628400
vn 0.384600 0.839200 -0.384600
vn 0.821100 -0.458400 -0.340100
vn 0.502500 0.839200 -0.208100
vn 0.888800 -0.458400 0.000000
vn 0.543900 0.839200 0.000000
vn 0.821100 -0.458400 0.340100
vn 0.502500 0.839200 0.208100
vn 0.628400 -0.458400 0.628400
vn 0.384600 0.839200 0.384600
vn 0.340100 -0.458400 0.821100
vn 0.208100 0.839200 0.502500
vn -0.000000 -0.389800 0.920900
vn -0.000000 0.869100 0.494600
vn -0.460400 -0.389800 0.797500
vn -0.247300 0.869100 0.428300
vn -0.797500 -0.389800 0.460400
vn -0.428300 0.869100 0.247300
vn -0.920900 -0.389800 0.000000
vn -0.494600 0.869100 0.000000
vn -0.797500 -0.389800 -0.460400
vn -0.428300 0.869100 -0.247300
vn -0.460400 -0.389800 -0.797500
vn -0.247300 0.869100 -0.428300
vn -0.000000 -0.389800 -0.920900
vn -0.000000 0.869100 -0.494600
vn 0.460400 -0.389800 -0.797500
vn 0.247300 0.869100 -0.428300
vn 0.797500 -0.389800 -0.460400
vn 0.428300 0.869100 -0.247300
vn 0.920900 -0.389800 0.000000
vn 0.494600 0.869100 0.000000
vn 0.797500 -0.389800 0.460400
vn 0.428300 0.869100 0.247300
vn 0.460400 -0.389800 0.797500
vn 0.247300 0.869100 0.428300
vn 0.458700 -0.294500 0.838400
vn -0.543400 0.348900 0.763500
vn 0.027900 -0.965500 0.259100
vn -0.935700 -0.262200 0.235900
vn 0.192500 -0.709200 -0.678200
vn -0.785900 -0.028800 -0.617700
vn 0.724900 0.120100 -0.678200
vn -0.300900 0.726600 -0.617700
vn 0.889500 0.376400 0.259100
vn -0.151000 0.960000 0.236000
vn -0.008100 0.007800 0.999900
vn -0.695200 0.663100 0.277300
vn -0.326000 -0.790900 0.517900
vn -0.984700 -0.064300 -0.161700
vn 0.260300 -0.929300 -0.262100
vn -0.450800 -0.190300 -0.872100
vn 0.940500 -0.216100 -0.262100
vn 0.168800 0.459200 -0.872100
vn 0.774600 0.363000 0.517900
vn 0.017700 0.986700 -0.161700
vn -0.111300 0.348500 0.930700
vn -0.303100 0.949400 -0.082200
vn -0.727400 -0.343200 0.594200
vn -0.864300 0.319400 -0.388600
vn -0.205200 -0.977400 0.049800
vn -0.388700 -0.258200 -0.884400
vn 0.733600 -0.677700 0.049800
vn 0.466400 0.014800 -0.884400
vn 0.791700 0.141800 0.594200
vn 0.519300 0.761100 -0.388600
vn 0.111300 0.348500 0.930700
vn 0.303100 0.949400 -0.082200
vn -0.791700 0.141800 0.594200
vn -0.519300 0.761100 -0.388600
vn -0.733600 -0.677700 0.049800
vn -0.466400 0.014800 -0.884400
vn 0.205200 -0.977400 0.049800
vn 0.388700 -0.258200 -0.884400
vn 0.727400 -0.343200 0.594200
vn 0.864300 0.319400 -0.388600
vn 0.008100 0.007800 0.999900
vn 0.695200 0.663100 0.277300
vn -0.774600 0.363000 0.517900
vn -0.017700 0.986700 -0.161700
vn -0.940500 -0.216100 -0.262100
vn -0.168800 0.459200 -0.872100
vn -0.260300 -0.929300 -0.262100
vn 0.450800 -0.190300 -0.872100
vn 0.326000 -0.790900 0.517900
vn 0.984700 -0.064300 -0.161700
vn -0.458700 -0.294500 0.838400
vn 0.543400 0.348900 0.763500
vn -0.889500 0.376400 0.259100
vn 0.151000 0.960000 0.236000
vn -0.724900 0.120100 -0.678200
vn 0.300900 0.726600 -0.617700
vn -0.192500 -0.709200 -0.678200
vn 0.785900 -0.028800 -0.617700
vn -0.027900 -0.965500 0.259100
vn 0.935700 -0.262200 0.235900
vn -0.664600 -0.634000 0.395400
vn 0.082500 0.078700 0.993500
vn -0.982500 0.164700 -0.086700
vn -0.207000 0.806100 0.554400
vn -0.396200 0.303100 -0.866700
vn 0.326900 0.932100 -0.156000
vn 0.284000 -0.410100 -0.866700
vn 0.946500 0.282600 -0.156000
vn 0.118100 -0.989200 -0.086700
vn 0.795400 -0.244900 0.554400
vn -0.303800 -0.951700 0.043200
vn -0.075000 -0.234800 0.969100
vn -0.920000 -0.260000 -0.293300
vn -0.636100 0.395200 0.662700
vn -0.397800 0.374200 -0.837700
vn -0.160600 0.972800 0.166900
vn 0.541100 0.074500 -0.837700
vn 0.694500 0.699800 0.166900
vn 0.599100 -0.745000 -0.293300
vn 0.747400 -0.046500 0.662700
vn 0.303800 -0.951700 0.043200
vn 0.075000 -0.234800 0.969100
vn -0.599100 -0.745000 -0.293300
vn -0.747400 -0.046500 0.662700
vn -0.541100 0.074500 -0.837700
vn -0.694500 0.699800 0.166900
vn 0.397800 0.374200 -0.837700
vn 0.160600 0.972800 0.166900
vn 0.920000 -0.260000 -0.293300
vn 0.636100 0.395200 0.662700
vn 0.664600 -0.634000 0.395400
vn -0.082500 0.078700 0.993500
vn -0.118100 -0.989200 -0.086700
vn -0.795400 -0.244900 0.554400
vn -0.284000 -0.410100 -0.866700
vn -0.946500 0.282600 -0.156000
vn 0.396200 0.303100 -0.866700
vn -0.326900 0.932100 -0.156000
vn 0.982500 0.164700 -0.086700
vn 0.207000 0.806100 0.554400
vn -0.000000 -0.643700 0.765300
vn -0.000000 0.643700 0.765300
vn -0.449800 -0.643700 0.619100
vn -0.449800 0.643700 0.619100
vn -0.727800 -0.643700 0.236500
vn -0.727800 0.643700 0.236500
vn -0.727800 -0.643700 -0.236500
vn -0.727800 0.643700 -0.236500
vn -0.449800 -0.643700 -0.619100
vn -0.449800 0.643700 -0.619100
vn -0.000000 -0.643700 -0.765300
vn -0.000000 0.643700 -0.765300
vn 0.449800 -0.643700 -0.619100
vn 0.449800 0.643700 -0.619100
vn 0.727800 -0.643700 -0.236500
vn 0.727800 0.643700 -0.236500
vn 0.727800 -0.643700 0.236500
vn 0.727800 0.643700 0.236500
vn 0.449800 -0.643700 0.619100
vn 0.449800 0.643700 0.619100
vt 0.426302 0.690624
vt 0.574468 0.365046
vt 0.580752 0.365830
vt 0.485219 0.697975
vt 0.588736 0.366254
vt 0.560066 0.701953
vt 0.597203 0.366254
vt 0.639447 0.701953
vt 0.604865 0.365830
vt 0.711279 0.697975
vt 0.729094 0.684861
vt 0.797663 0.365046
vt 0.806008 0.365151
vt 0.807331 0.685850
vt 0.814290 0.365151
vt 0.884969 0.685850
vt 0.821246 0.365046
vt 0.950188 0.684861
vt 0.008908 0.759186
vt 0.113605 0.427083
vt 0.121326 0.427507
vt 0.081286 0.763152
vt 0.129799 0.427507
vt 0.160722 0.763152
vt 0.137735 0.427083
vt 0.235123 0.759186
vt 0.143926 0.426302
vt 0.293163 0.751857
vt 0.437631 0.008908
vt 0.763209 0.162976
vt 0.762425 0.168666
vt 0.430280 0.062253
vt 0.762001 0.176328
vt 0.426302 0.134085
vt 0.762001 0.184796
vt 0.426302 0.213466
vt 0.693357 0.828380
vt 0.696600 0.836213
vt 0.696600 0.844691
vt 0.693357 0.852523
vt 0.687365 0.858517
vt 0.679536 0.861760
vt 0.671061 0.861758
vt 0.663232 0.858512
vt 0.657240 0.852517
vt 0.653997 0.844684
vt 0.653997 0.836206
vt 0.657240 0.828374
vt 0.663232 0.822380
vt 0.671061 0.819137
vt 0.679536 0.819139
vt 0.687365 0.822384
vt 0.762425 0.192779
vt 0.430280 0.288313
vt 0.763209 0.199064
vt 0.437631 0.347230
vt 0.008908 0.248437
vt 0.008908 0.168956
vt 0.039324 0.095526
vt 0.095525 0.039324
vt 0.168956 0.008908
vt 0.248437 0.008908
vt 0.321868 0.039324
vt 0.378070 0.095525
vt 0.408486 0.168956
vt 0.408486 0.248437
vt 0.378070 0.321868
vt 0.321868 0.378070
vt 0.248437 0.408486
vt 0.168956 0.408486
vt 0.095526 0.378070
vt 0.039324 0.321868
vt 0.784737 0.008908
vt 0.914763 0.082703
vt 0.914299 0.088225
vt 0.781025 0.053085
vt 0.914299 0.095181
vt 0.781025 0.108734
vt 0.914763 0.101707
vt 0.784737 0.160946
vt 0.008908 0.906175
vt 0.043118 0.781081
vt 0.050105 0.781081
vt 0.064797 0.906175
vt 0.056545 0.780968
vt 0.116320 0.905276
vt 0.859038 0.857233
vt 0.729094 0.791635
vt 0.729553 0.785441
vt 0.862705 0.807680
vt 0.729553 0.778415
vt 0.862705 0.751471
vt 0.729094 0.772440
vt 0.859038 0.703665
vt 0.310978 0.545316
vt 0.339135 0.452536
vt 0.346161 0.452536
vt 0.367191 0.545316
vt 0.911051 0.330800
vt 0.781025 0.271561
vt 0.781489 0.265035
vt 0.914763 0.278588
vt 0.352241 0.429816
vt 0.355756 0.435904
vt 0.355758 0.442933
vt 0.352246 0.449021
vt 0.333049 0.449021
vt 0.329534 0.442933
vt 0.329532 0.435904
vt 0.333044 0.429816
vt 0.339129 0.426302
vt 0.346155 0.426302
vt 0.781489 0.258079
vt 0.914763 0.222938
vt 0.781025 0.252557
vt 0.911051 0.178762
vt 0.426302 0.852827
vt 0.426302 0.796590
vt 0.454420 0.747887
vt 0.503123 0.719769
vt 0.559360 0.719769
vt 0.608063 0.747887
vt 0.636181 0.796590
vt 0.636181 0.852827
vt 0.608063 0.901530
vt 0.559360 0.929649
vt 0.503123 0.929649
vt 0.454420 0.901530
vt 0.968003 0.612895
vt 0.980820 0.543573
vt 0.982093 0.543573
vt 0.983904 0.612895
vt 0.291985 0.894795
vt 0.278479 0.964896
vt 0.277305 0.964520
vt 0.277305 0.890092
vt 0.914060 0.903184
vt 0.926170 0.812789
vt 0.927413 0.812789
vt 0.929589 0.903184
vt 0.921568 0.942795
vt 0.920545 0.942795
vt 0.920216 0.941581
vt 0.921035 0.940830
vt 0.921870 0.941581
vt 0.149346 0.875343
vt 0.135352 0.956617
vt 0.134135 0.956366
vt 0.134135 0.872198
vt 0.661801 0.785567
vt 0.677889 0.719769
vt 0.679132 0.720041
vt 0.677335 0.788964
vt 0.679132 0.798701
vt 0.664708 0.801322
vt 0.653997 0.793205
vt 0.177526 0.873184
vt 0.186356 0.780968
vt 0.187621 0.780968
vt 0.193336 0.873184
vt 0.968003 0.436494
vt 0.968003 0.365329
vt 0.969236 0.365046
vt 0.983408 0.432952
vt 0.932579 0.197090
vt 0.946548 0.112744
vt 0.947763 0.112974
vt 0.947763 0.199972
vt 0.556044 0.948211
vt 0.556904 0.947464
vt 0.557666 0.948211
vt 0.557278 0.949419
vt 0.556275 0.949419
vt 0.379125 0.780077
vt 0.356137 0.853289
vt 0.355308 0.852637
vt 0.368753 0.771927
vt 0.354138 0.852823
vt 0.354138 0.774255
vt 0.097012 0.923991
vt 0.104548 0.933465
vt 0.097012 0.947538
vt 0.084818 0.946760
vt 0.084818 0.932207
vt 0.914258 0.789685
vt 0.928592 0.703665
vt 0.929842 0.703665
vt 0.929888 0.789685
vt 0.354138 0.958283
vt 0.354138 0.871367
vt 0.355323 0.871105
vt 0.368946 0.955006
vt 0.319808 0.740433
vt 0.310978 0.670687
vt 0.312194 0.670740
vt 0.335002 0.741086
vt 0.920216 0.922301
vt 0.920748 0.921147
vt 0.921847 0.921147
vt 0.921994 0.922301
vt 0.920986 0.923015
vt 0.979009 0.889206
vt 0.979009 0.813353
vt 0.979976 0.812789
vt 0.991092 0.882166
vt 0.702470 0.882700
vt 0.688368 0.962029
vt 0.687141 0.961779
vt 0.687141 0.879575
vt 0.320716 0.754754
vt 0.310978 0.748880
vt 0.335563 0.749937
vt 0.669326 0.879575
vt 0.669326 0.961778
vt 0.668100 0.962029
vt 0.653997 0.882700
vt 0.385007 0.519115
vt 0.391825 0.426302
vt 0.393092 0.426302
vt 0.400856 0.519115
vt 0.354138 0.741375
vt 0.372451 0.669727
vt 0.373661 0.669598
vt 0.369261 0.739762
vt 0.385007 0.537983
vt 0.385721 0.536931
vt 0.386876 0.537180
vt 0.386876 0.538385
vt 0.385721 0.538882
vt 0.374409 0.670228
vt 0.378607 0.747634
vt 0.932579 0.094928
vt 0.932624 0.008908
vt 0.933874 0.008908
vt 0.948209 0.094928
vt 0.369261 0.754112
vt 0.354138 0.750244
vt 0.325012 0.886868
vt 0.312101 0.964368
vt 0.310978 0.963993
vt 0.310978 0.882171
vt 0.947405 0.898766
vt 0.947405 0.813133
vt 0.948508 0.812789
vt 0.961194 0.894476
vt 0.966328 0.288126
vt 0.969803 0.219258
vt 0.971078 0.219258
vt 0.982262 0.288126
vt 0.969459 0.218349
vt 0.970521 0.217788
vt 0.971522 0.218349
vt 0.968003 0.522215
vt 0.982175 0.454309
vt 0.983408 0.454593
vt 0.983408 0.525757
vt 0.211152 0.873184
vt 0.216867 0.780968
vt 0.218132 0.780968
vt 0.226962 0.873184
vt 0.940115 0.319658
vt 0.952309 0.327875
vt 0.952309 0.342428
vt 0.940115 0.343205
vt 0.932579 0.329133
vt 0.947405 0.984298
vt 0.960372 0.916582
vt 0.961644 0.916582
vt 0.963306 0.984298
vt 0.401973 0.871105
vt 0.401973 0.955272
vt 0.400756 0.955524
vt 0.386762 0.874250
vt 0.310978 0.864355
vt 0.318142 0.772569
vt 0.319419 0.772569
vt 0.326942 0.864355
vt 0.969573 0.009466
vt 0.969108 0.010368
vt 0.967836 0.010368
vt 0.967515 0.009466
vt 0.968589 0.008908
vt 0.192207 0.890999
vt 0.192207 0.965427
vt 0.191032 0.965803
vt 0.177526 0.895702
vt 0.966024 0.079690
vt 0.981925 0.079690
vt 0.888878 0.943363
vt 0.880520 0.934432
vt 0.888878 0.921147
vt 0.902400 0.921867
vt 0.902400 0.935598
vt 0.244778 0.872277
vt 0.253351 0.780968
vt 0.254625 0.780968
vt 0.260700 0.872277
vt 0.794286 0.956955
vt 0.794325 0.875048
vt 0.795585 0.875048
vt 0.810033 0.956955
vt 0.932579 0.301843
vt 0.942354 0.217788
vt 0.943628 0.217788
vt 0.948513 0.301843
vt 0.406426 0.538589
vt 0.405354 0.538997
vt 0.404692 0.537972
vt 0.405354 0.536931
vt 0.406426 0.537312
vt 0.159711 0.780968
vt 0.139983 0.853947
vt 0.139046 0.854382
vt 0.147996 0.786412
vt 0.137937 0.853947
vt 0.134135 0.780968
vt 0.059768 0.948927
vt 0.048063 0.941642
vt 0.048063 0.926230
vt 0.059768 0.923990
vt 0.067003 0.938018
vt 0.278515 0.867226
vt 0.291737 0.780968
vt 0.292887 0.781223
vt 0.292887 0.870412
vt 0.947703 0.780070
vt 0.961343 0.703665
vt 0.962529 0.703988
vt 0.962529 0.784107
vt 0.761690 0.960177
vt 0.761690 0.875335
vt 0.762872 0.875048
vt 0.776470 0.956590
vt 0.258828 0.890092
vt 0.259489 0.890862
vt 0.258654 0.891520
vt 0.257477 0.891157
vt 0.257585 0.890275
vt 0.244778 0.961898
vt 0.259489 0.966430
vt 0.225044 0.891000
vt 0.225044 0.964171
vt 0.223842 0.964511
vt 0.210022 0.895243
vt 0.426302 0.964504
vt 0.426302 0.949176
vt 0.436956 0.947464
vt 0.443540 0.961734
vt 0.436956 0.972265
vt 0.980600 0.116987
vt 0.966780 0.186255
vt 0.965579 0.185915
vt 0.965579 0.112744
vt 0.880520 0.903331
vt 0.891346 0.812789
vt 0.892604 0.812789
vt 0.896244 0.903331
vt 0.729094 0.956590
vt 0.742692 0.875048
vt 0.743874 0.875335
vt 0.743874 0.960177
vt 0.576898 0.948853
vt 0.576023 0.949457
vt 0.575482 0.948599
vt 0.576023 0.947464
vt 0.576898 0.947621
vt 0.354138 0.645636
vt 0.377062 0.563132
vt 0.377881 0.563623
vt 0.364367 0.651782
vt 0.379056 0.563546
vt 0.379056 0.650811
vt 0.017059 0.946402
vt 0.008908 0.932884
vt 0.017059 0.923991
vt 0.030248 0.932011
vt 0.030248 0.945862
vt 0.710506 0.719769
vt 0.710506 0.792847
vt 0.709422 0.793339
vt 0.696947 0.725926
vt 0.310978 0.651676
vt 0.310978 0.563478
vt 0.312106 0.563574
vt 0.325072 0.652872
vt 0.313006 0.563132
vt 0.336323 0.647349
vt 0.401585 0.845214
vt 0.400923 0.846239
vt 0.399851 0.845831
vt 0.399851 0.844554
vt 0.400923 0.844173
vt 0.827849 0.956955
vt 0.842297 0.875048
vt 0.843556 0.875048
vt 0.843596 0.956955
vt 0.880520 0.794974
vt 0.886595 0.703665
vt 0.887869 0.703665
vt 0.896442 0.794974
vt 0.476768 0.956848
vt 0.473772 0.972031
vt 0.464246 0.972031
vt 0.461356 0.956848
vt 0.469095 0.947464
vt 0.980344 0.779063
vt 0.980344 0.703665
vt 0.983767 0.703983
vt 0.983767 0.779380
vt 0.987963 0.703976
vt 0.987963 0.779374
vt 0.399851 0.826308
vt 0.399851 0.750298
vt 0.403759 0.750346
vt 0.403759 0.826357
vt 0.407819 0.750313
vt 0.407819 0.826323
vt 0.396871 0.732199
vt 0.396871 0.656798
vt 0.400461 0.657082
vt 0.400461 0.732482
vt 0.404643 0.657036
vt 0.404643 0.732436
vt 0.407819 0.656678
vt 0.407819 0.732079
vt 0.396871 0.638529
vt 0.396871 0.563132
vt 0.400239 0.563459
vt 0.400239 0.638857
vt 0.525315 0.952157
vt 0.527781 0.948762
vt 0.531772 0.947464
vt 0.535762 0.948759
vt 0.538228 0.952152
vt 0.538228 0.956347
vt 0.535762 0.959742
vt 0.531772 0.961040
vt 0.527781 0.959746
vt 0.525315 0.956353
vt 0.404435 0.563465
vt 0.404435 0.638863
vt 0.407857 0.563148
vt 0.407857 0.638545
vt 0.494584 0.956353
vt 0.494584 0.952156
vt 0.497050 0.948761
vt 0.501042 0.947464
vt 0.505033 0.948761
vt 0.507499 0.952156
vt 0.507499 0.956353
vt 0.505033 0.959748
vt 0.501042 0.961044
vt 0.497050 0.959748
s 1
usemtl prop_jerami_mat
f 1/1/1 2/2/2 4/3/4 3/4/3
f 3/4/3 4/3/4 6/5/6 5/6/5
f 5/6/5 6/5/6 8/7/8 7/8/7
f 7/8/7 8/7/8 10/9/10 9/10/9
f 9/11/9 10/12/10 12/13/12 11/14/11
f 11/14/11 12/13/12 14/15/14 13/16/13
f 13/16/13 14/15/14 16/17/16 15/18/15
f 15/19/15 16/20/16 18/21/18 17/22/17
f 17/22/17 18/21/18 20/23/20 19/24/19
f 19/24/19 20/23/20 22/25/22 21/26/21
f 21/26/21 22/25/22 24/27/24 23/28/23
f 23/29/23 24/30/24 26/31/26 25/32/25
f 25/32/25 26/31/26 28/33/28 27/34/27
f 27/34/27 28/33/28 30/35/30 29/36/29
f 4/37/4 2/38/2 32/39/32 30/40/30 28/41/28 26/42/26 24/43/24 22/44/22 20/45/20 18/46/18 16/47/16 14/48/14 12/49/12 10/50/10 8/51/8 6/52/6
f 29/36/29 30/35/30 32/53/32 31/54/31
f 31/54/31 32/53/32 2/55/2 1/56/1
f 1/57/1 3/58/3 5/59/5 7/60/7 9/61/9 11/62/11 13/63/13 15/64/15 17/65/17 19/66/19 21/67/21 23/68/23 25/69/25 27/70/27 29/71/29 31/72/31
f 33/73/33 34/74/34 36/75/36 35/76/35
f 35/76/35 36/75/36 38/77/38 37/78/37
f 37/78/37 38/77/38 40/79/40 39/80/39
f 39/81/39 40/82/40 42/83/42 41/84/41
f 41/84/41 42/83/42 44/85/44 43/86/43
f 43/87/43 44/88/44 46/89/46 45/90/45
f 45/90/45 46/89/46 48/91/48 47/92/47
f 47/92/47 48/91/48 50/93/50 49/94/49
f 49/95/49 50/96/50 52/97/52 51/98/51
f 51/99/51 52/100/52 54/101/54 53/102/53
f 36/103/36 34/104/34 56/105/56 54/106/54 52/97/52 50/96/50 48/107/48 46/108/46 44/109/44 42/110/42 40/111/40 38/112/38
f 53/102/53 54/101/54 56/113/56 55/114/55
f 55/114/55 56/113/56 34/115/34 33/116/33
f 33/117/33 35/118/35 37/119/37 39/120/39 41/121/41 43/122/43 45/123/45 47/124/47 49/125/49 51/126/51 53/127/53 55/128/55
f 57/129/57 58/130/58 60/131/60 59/132/59
f 59/133/59 60/134/60 62/135/62 61/136/61
f 61/137/61 62/138/62 64/139/64 63/140/63
f 60/141/60 58/142/58 66/143/66 64/144/64 62/145/62
f 63/146/63 64/147/64 66/148/66 65/149/65
f 65/150/65 66/151/66 58/152/58 57/153/57
f 57/153/57 59/154/59 61/155/61 63/156/63 65/150/65
f 67/157/67 68/158/68 70/159/70 69/160/69
f 69/161/69 70/162/70 72/163/72 71/164/71
f 71/165/71 72/166/72 74/167/74 73/168/73
f 70/169/70 68/170/68 76/171/76 74/172/74 72/173/72
f 73/174/73 74/175/74 76/176/76 75/177/75
f 75/177/75 76/176/76 68/178/68 67/179/67
f 67/180/67 69/181/69 71/182/71 73/183/73 75/184/75
f 77/185/77 78/186/78 80/187/80 79/188/79
f 79/189/79 80/190/80 82/191/82 81/192/81
f 81/193/81 82/194/82 84/195/84 83/196/83
f 80/197/80 78/198/78 86/199/86 84/200/84 82/201/82
f 83/202/83 84/203/84 86/204/86 85/205/85
f 85/206/85 86/207/86 78/208/78 77/209/77
f 77/210/77 79/211/79 81/193/81 83/196/83 85/212/85
f 87/213/87 88/214/88 90/215/90 89/216/89
f 89/217/89 90/218/90 92/219/92 91/220/91
f 91/221/91 92/222/92 94/223/94 93/224/93
f 90/225/90 88/226/88 96/227/96 94/228/94 92/229/92
f 93/224/93 94/223/94 96/230/96 95/231/95
f 95/232/95 96/233/96 88/234/88 87/235/87
f 87/236/87 89/237/89 91/221/91 93/224/93 95/231/95
f 97/238/97 98/239/98 100/240/100 99/241/99
f 99/242/99 100/243/100 102/244/102 101/245/101
f 101/246/101 102/247/102 104/248/104 103/249/103
f 100/250/100 98/251/98 106/252/106 104/248/104 102/247/102
f 103/253/103 104/254/104 106/255/106 105/256/105
f 105/257/105 106/258/106 98/259/98 97/260/97
f 97/261/97 99/262/99 101/263/101 103/264/103 105/265/105
f 107/266/107 108/267/108 110/268/110 109/269/109
f 109/270/109 110/271/110 112/272/112 111/273/111
f 111/274/111 112/275/112 114/276/114 113/277/113
f 110/278/110 108/279/108 116/280/116 114/281/114 112/282/112
f 113/283/113 114/284/114 116/285/116 115/286/115
f 115/287/115 116/280/116 108/279/108 107/288/107
f 107/289/107 109/290/109 111/291/111 113/292/113 115/293/115
f 117/294/117 118/295/118 120/296/120 119/297/119
f 119/298/119 120/299/120 122/300/122 121/301/121
f 121/302/121 122/303/122 124/304/124 123/305/123
f 120/306/120 118/307/118 126/308/126 124/309/124 122/310/122
f 123/311/123 124/312/124 126/313/126 125/314/125
f 125/314/125 126/313/126 118/315/118 117/316/117
f 117/317/117 119/318/119 121/319/121 123/320/123 125/321/125
f 127/322/127 128/323/128 130/324/130 129/325/129
f 129/326/129 130/327/130 132/328/132 131/329/131
f 131/330/131 132/331/132 134/332/134 133/333/133
f 130/334/130 128/335/128 136/336/136 134/337/134 132/338/132
f 133/339/133 134/337/134 136/336/136 135/340/135
f 135/341/135 136/342/136 128/343/128 127/344/127
f 127/345/127 129/346/129 131/347/131 133/348/133 135/349/135
f 137/350/137 138/351/138 140/352/140 139/353/139
f 139/354/139 140/355/140 142/356/142 141/357/141
f 141/358/141 142/359/142 144/360/144 143/361/143
f 140/362/140 138/363/138 146/364/146 144/365/144 142/366/142
f 143/367/143 144/368/144 146/369/146 145/370/145
f 145/370/145 146/369/146 138/371/138 137/372/137
f 137/373/137 139/374/139 141/375/141 143/376/143 145/377/145
f 147/378/147 148/379/148 150/380/150 149/381/149
f 149/382/149 150/383/150 152/384/152 151/385/151
f 151/385/151 152/384/152 154/386/154 153/387/153
f 150/388/150 148/389/148 156/390/156 154/391/154 152/392/152
f 153/393/153 154/394/154 156/395/156 155/396/155
f 155/397/155 156/398/156 148/399/148 147/400/147
f 147/401/147 149/402/149 151/403/151 153/404/153 155/405/155
f 157/406/157 158/407/158 160/408/160 159/409/159
f 159/409/159 160/408/160 162/410/162 161/411/161
f 161/412/161 162/413/162 164/414/164 163/415/163
f 163/415/163 164/414/164 166/416/166 165/417/165
f 165/418/165 166/419/166 168/420/168 167/421/167
f 167/421/167 168/420/168 170/422/170 169/423/169
f 169/423/169 170/422/170 172/424/172 171/425/171
f 171/426/171 172/427/172 174/428/174 173/429/173
f 160/430/160 158/431/158 176/432/176 174/433/174 172/434/172 170/435/170 168/436/168 166/437/166 164/438/164 162/439/162
f 173/429/173 174/428/174 176/440/176 175/441/175
f 175/441/175 176/440/176 158/442/158 157/443/157
f 157/444/157 159/445/159 161/446/161 163/447/163 165/448/165 167/449/167 169/450/169 171/451/171 173/452/173 175/453/175
