# Blender 5.1.1
# www.blender.org
mtllib rumah_joglo.mtl
o RJ_Platform
v 2.700000 2.700000 0.000000
v 2.700000 2.700000 0.300000
v 2.700000 -2.700000 0.000000
v 2.700000 -2.700000 0.300000
v -2.700000 2.700000 0.000000
v -2.700000 2.700000 0.300000
v -2.700000 -2.700000 0.000000
v -2.700000 -2.700000 0.300000
vn 1.0000 -0.0000 -0.0000
vn -0.0000 -1.0000 -0.0000
vn -1.0000 -0.0000 -0.0000
vn -0.0000 1.0000 -0.0000
vn -0.0000 -0.0000 -1.0000
vn -0.0000 -0.0000 1.0000
vt 0.375000 0.000000
vt 0.625000 0.000000
vt 0.625000 0.250000
vt 0.375000 0.250000
vt 0.625000 0.500000
vt 0.375000 0.500000
vt 0.625000 0.750000
vt 0.375000 0.750000
vt 0.625000 1.000000
vt 0.375000 1.000000
vt 0.125000 0.500000
vt 0.125000 0.750000
vt 0.875000 0.500000
vt 0.875000 0.750000
s 0
f 1/1/1 2/2/1 4/3/1 3/4/1
f 3/4/2 4/3/2 8/5/2 7/6/2
f 7/6/3 8/5/3 6/7/3 5/8/3
f 5/8/4 6/7/4 2/9/4 1/10/4
f 3/11/5 7/6/5 5/8/5 1/12/5
f 8/5/6 4/13/6 2/14/6 6/7/6
o RJ_Body
v 2.500000 2.500000 0.325000
v 2.500000 2.500000 4.075000
v 2.500000 -2.500000 0.325000
v 2.500000 -2.500000 4.075000
v -2.500000 2.500000 0.325000
v -2.500000 2.500000 4.075000
v -2.500000 -2.500000 0.325000
v -2.500000 -2.500000 4.075000
vn 1.0000 -0.0000 -0.0000
vn -0.0000 -1.0000 -0.0000
vn -1.0000 -0.0000 -0.0000
vn -0.0000 1.0000 -0.0000
vn -0.0000 -0.0000 -1.0000
vn -0.0000 -0.0000 1.0000
vt 0.375000 0.000000
vt 0.625000 0.000000
vt 0.625000 0.250000
vt 0.375000 0.250000
vt 0.625000 0.500000
vt 0.375000 0.500000
vt 0.625000 0.750000
vt 0.375000 0.750000
vt 0.625000 1.000000
vt 0.375000 1.000000
vt 0.125000 0.500000
vt 0.125000 0.750000
vt 0.875000 0.500000
vt 0.875000 0.750000
s 0
f 9/15/7 10/16/7 12/17/7 11/18/7
f 11/18/8 12/17/8 16/19/8 15/20/8
f 15/20/9 16/19/9 14/21/9 13/22/9
f 13/22/10 14/21/10 10/23/10 9/24/10
f 11/25/11 15/20/11 13/22/11 9/26/11
f 16/19/12 12/27/12 10/28/12 14/21/12
o RJ_Saka_-1.4_-1.4
v 1.400000 1.260000 0.450000
v 1.400000 1.260000 4.350000
v 1.301005 1.301005 0.450000
v 1.301005 1.301005 4.350000
v 1.260000 1.400000 0.450000
v 1.260000 1.400000 4.350000
v 1.301005 1.498995 0.450000
v 1.301005 1.498995 4.350000
v 1.400000 1.540000 0.450000
v 1.400000 1.540000 4.350000
v 1.498995 1.498995 0.450000
v 1.498995 1.498995 4.350000
v 1.540000 1.400000 0.450000
v 1.540000 1.400000 4.350000
v 1.498995 1.301005 0.450000
v 1.498995 1.301005 4.350000
vn -0.3827 -0.9239 -0.0000
vn -0.9239 -0.3827 -0.0000
vn -0.9239 0.3827 -0.0000
vn -0.3827 0.9239 -0.0000
vn 0.3827 0.9239 -0.0000
vn 0.9239 0.3827 -0.0000
vn -0.0000 -0.0000 1.0000
vn 0.9239 -0.3827 -0.0000
vn 0.3827 -0.9239 -0.0000
vn -0.0000 -0.0000 -1.0000
vt 1.000000 0.500000
vt 1.000000 1.000000
vt 0.875000 1.000000
vt 0.875000 0.500000
vt 0.750000 1.000000
vt 0.750000 0.500000
vt 0.625000 1.000000
vt 0.625000 0.500000
vt 0.500000 1.000000
vt 0.500000 0.500000
vt 0.375000 1.000000
vt 0.375000 0.500000
vt 0.250000 1.000000
vt 0.250000 0.500000
vt 0.419706 0.419706
vt 0.250000 0.490000
vt 0.080294 0.419706
vt 0.010000 0.250000
vt 0.080294 0.080294
vt 0.250000 0.010000
vt 0.419706 0.080294
vt 0.490000 0.250000
vt 0.125000 1.000000
vt 0.125000 0.500000
vt 0.000000 1.000000
vt 0.000000 0.500000
vt 0.750000 0.490000
vt 0.919706 0.419706
vt 0.990000 0.250000
vt 0.919706 0.080294
vt 0.750000 0.010000
vt 0.580294 0.080294
vt 0.510000 0.250000
vt 0.580294 0.419706
s 0
f 17/29/13 18/30/13 20/31/13 19/32/13
f 19/32/14 20/31/14 22/33/14 21/34/14
f 21/34/15 22/33/15 24/35/15 23/36/15
f 23/36/16 24/35/16 26/37/16 25/38/16
f 25/38/17 26/37/17 28/39/17 27/40/17
f 27/40/18 28/39/18 30/41/18 29/42/18
f 20/43/19 18/44/19 32/45/19 30/46/19 28/47/19 26/48/19 24/49/19 22/50/19
f 29/42/20 30/41/20 32/51/20 31/52/20
f 31/52/21 32/51/21 18/53/21 17/54/21
f 17/55/22 19/56/22 21/57/22 23/58/22 25/59/22 27/60/22 29/61/22 31/62/22
o RJ_Saka_-1.4_1.4
v 1.400000 -1.540000 0.450000
v 1.400000 -1.540000 4.350000
v 1.301005 -1.498995 0.450000
v 1.301005 -1.498995 4.350000
v 1.260000 -1.400000 0.450000
v 1.260000 -1.400000 4.350000
v 1.301005 -1.301005 0.450000
v 1.301005 -1.301005 4.350000
v 1.400000 -1.260000 0.450000
v 1.400000 -1.260000 4.350000
v 1.498995 -1.301005 0.450000
v 1.498995 -1.301005 4.350000
v 1.540000 -1.400000 0.450000
v 1.540000 -1.400000 4.350000
v 1.498995 -1.498995 0.450000
v 1.498995 -1.498995 4.350000
vn -0.3827 -0.9239 -0.0000
vn -0.9239 -0.3827 -0.0000
vn -0.9239 0.3827 -0.0000
vn -0.3827 0.9239 -0.0000
vn 0.3827 0.9239 -0.0000
vn 0.9239 0.3827 -0.0000
vn -0.0000 -0.0000 1.0000
vn 0.9239 -0.3827 -0.0000
vn 0.3827 -0.9239 -0.0000
vn -0.0000 -0.0000 -1.0000
vt 1.000000 0.500000
vt 1.000000 1.000000
vt 0.875000 1.000000
vt 0.875000 0.500000
vt 0.750000 1.000000
vt 0.750000 0.500000
vt 0.625000 1.000000
vt 0.625000 0.500000
vt 0.500000 1.000000
vt 0.500000 0.500000
vt 0.375000 1.000000
vt 0.375000 0.500000
vt 0.250000 1.000000
vt 0.250000 0.500000
vt 0.419706 0.419706
vt 0.250000 0.490000
vt 0.080294 0.419706
vt 0.010000 0.250000
vt 0.080294 0.080294
vt 0.250000 0.010000
vt 0.419706 0.080294
vt 0.490000 0.250000
vt 0.125000 1.000000
vt 0.125000 0.500000
vt 0.000000 1.000000
vt 0.000000 0.500000
vt 0.750000 0.490000
vt 0.919706 0.419706
vt 0.990000 0.250000
vt 0.919706 0.080294
vt 0.750000 0.010000
vt 0.580294 0.080294
vt 0.510000 0.250000
vt 0.580294 0.419706
s 0
f 33/63/23 34/64/23 36/65/23 35/66/23
f 35/66/24 36/65/24 38/67/24 37/68/24
f 37/68/25 38/67/25 40/69/25 39/70/25
f 39/70/26 40/69/26 42/71/26 41/72/26
f 41/72/27 42/71/27 44/73/27 43/74/27
f 43/74/28 44/73/28 46/75/28 45/76/28
f 36/77/29 34/78/29 48/79/29 46/80/29 44/81/29 42/82/29 40/83/29 38/84/29
f 45/76/30 46/75/30 48/85/30 47/86/30
f 47/86/31 48/85/31 34/87/31 33/88/31
f 33/89/32 35/90/32 37/91/32 39/92/32 41/93/32 43/94/32 45/95/32 47/96/32
o RJ_Saka_1.4_-1.4
v -1.400000 1.260000 0.450000
v -1.400000 1.260000 4.350000
v -1.498995 1.301005 0.450000
v -1.498995 1.301005 4.350000
v -1.540000 1.400000 0.450000
v -1.540000 1.400000 4.350000
v -1.498995 1.498995 0.450000
v -1.498995 1.498995 4.350000
v -1.400000 1.540000 0.450000
v -1.400000 1.540000 4.350000
v -1.301005 1.498995 0.450000
v -1.301005 1.498995 4.350000
v -1.260000 1.400000 0.450000
v -1.260000 1.400000 4.350000
v -1.301005 1.301005 0.450000
v -1.301005 1.301005 4.350000
vn -0.3827 -0.9239 -0.0000
vn -0.9239 -0.3827 -0.0000
vn -0.9239 0.3827 -0.0000
vn -0.3827 0.9239 -0.0000
vn 0.3827 0.9239 -0.0000
vn 0.9239 0.3827 -0.0000
vn -0.0000 -0.0000 1.0000
vn 0.9239 -0.3827 -0.0000
vn 0.3827 -0.9239 -0.0000
vn -0.0000 -0.0000 -1.0000
vt 1.000000 0.500000
vt 1.000000 1.000000
vt 0.875000 1.000000
vt 0.875000 0.500000
vt 0.750000 1.000000
vt 0.750000 0.500000
vt 0.625000 1.000000
vt 0.625000 0.500000
vt 0.500000 1.000000
vt 0.500000 0.500000
vt 0.375000 1.000000
vt 0.375000 0.500000
vt 0.250000 1.000000
vt 0.250000 0.500000
vt 0.419706 0.419706
vt 0.250000 0.490000
vt 0.080294 0.419706
vt 0.010000 0.250000
vt 0.080294 0.080294
vt 0.250000 0.010000
vt 0.419706 0.080294
vt 0.490000 0.250000
vt 0.125000 1.000000
vt 0.125000 0.500000
vt 0.000000 1.000000
vt 0.000000 0.500000
vt 0.750000 0.490000
vt 0.919706 0.419706
vt 0.990000 0.250000
vt 0.919706 0.080294
vt 0.750000 0.010000
vt 0.580294 0.080294
vt 0.510000 0.250000
vt 0.580294 0.419706
s 0
f 49/97/33 50/98/33 52/99/33 51/100/33
f 51/100/34 52/99/34 54/101/34 53/102/34
f 53/102/35 54/101/35 56/103/35 55/104/35
f 55/104/36 56/103/36 58/105/36 57/106/36
f 57/106/37 58/105/37 60/107/37 59/108/37
f 59/108/38 60/107/38 62/109/38 61/110/38
f 52/111/39 50/112/39 64/113/39 62/114/39 60/115/39 58/116/39 56/117/39 54/118/39
f 61/110/40 62/109/40 64/119/40 63/120/40
f 63/120/41 64/119/41 50/121/41 49/122/41
f 49/123/42 51/124/42 53/125/42 55/126/42 57/127/42 59/128/42 61/129/42 63/130/42
o RJ_Saka_1.4_1.4
v -1.400000 -1.540000 0.450000
v -1.400000 -1.540000 4.350000
v -1.498995 -1.498995 0.450000
v -1.498995 -1.498995 4.350000
v -1.540000 -1.400000 0.450000
v -1.540000 -1.400000 4.350000
v -1.498995 -1.301005 0.450000
v -1.498995 -1.301005 4.350000
v -1.400000 -1.260000 0.450000
v -1.400000 -1.260000 4.350000
v -1.301005 -1.301005 0.450000
v -1.301005 -1.301005 4.350000
v -1.260000 -1.400000 0.450000
v -1.260000 -1.400000 4.350000
v -1.301005 -1.498995 0.450000
v -1.301005 -1.498995 4.350000
vn -0.3827 -0.9239 -0.0000
vn -0.9239 -0.3827 -0.0000
vn -0.9239 0.3827 -0.0000
vn -0.3827 0.9239 -0.0000
vn 0.3827 0.9239 -0.0000
vn 0.9239 0.3827 -0.0000
vn -0.0000 -0.0000 1.0000
vn 0.9239 -0.3827 -0.0000
vn 0.3827 -0.9239 -0.0000
vn -0.0000 -0.0000 -1.0000
vt 1.000000 0.500000
vt 1.000000 1.000000
vt 0.875000 1.000000
vt 0.875000 0.500000
vt 0.750000 1.000000
vt 0.750000 0.500000
vt 0.625000 1.000000
vt 0.625000 0.500000
vt 0.500000 1.000000
vt 0.500000 0.500000
vt 0.375000 1.000000
vt 0.375000 0.500000
vt 0.250000 1.000000
vt 0.250000 0.500000
vt 0.419706 0.419706
vt 0.250000 0.490000
vt 0.080294 0.419706
vt 0.010000 0.250000
vt 0.080294 0.080294
vt 0.250000 0.010000
vt 0.419706 0.080294
vt 0.490000 0.250000
vt 0.125000 1.000000
vt 0.125000 0.500000
vt 0.000000 1.000000
vt 0.000000 0.500000
vt 0.750000 0.490000
vt 0.919706 0.419706
vt 0.990000 0.250000
vt 0.919706 0.080294
vt 0.750000 0.010000
vt 0.580294 0.080294
vt 0.510000 0.250000
vt 0.580294 0.419706
s 0
f 65/131/43 66/132/43 68/133/43 67/134/43
f 67/134/44 68/133/44 70/135/44 69/136/44
f 69/136/45 70/135/45 72/137/45 71/138/45
f 71/138/46 72/137/46 74/139/46 73/140/46
f 73/140/47 74/139/47 76/141/47 75/142/47
f 75/142/48 76/141/48 78/143/48 77/144/48
f 68/145/49 66/146/49 80/147/49 78/148/49 76/149/49 74/150/49 72/151/49 70/152/49
f 77/144/50 78/143/50 80/153/50 79/154/50
f 79/154/51 80/153/51 66/155/51 65/156/51
f 65/157/52 67/158/52 69/159/52 71/160/52 73/161/52 75/162/52 77/163/52 79/164/52
o RJ_Roof0
v 2.510229 -2.510229 4.200000
v 0.035355 -0.035355 5.600000
v -2.510229 -2.510229 4.200000
v -0.035355 -0.035355 5.600000
v -2.510229 2.510229 4.200000
v -0.035355 0.035355 5.600000
v 2.510229 2.510229 4.200000
v 0.035355 0.035355 5.600000
vn -0.0000 -0.4924 0.8704
vn -0.4924 -0.0000 0.8704
vn -0.0000 -0.0000 1.0000
vn -0.0000 0.4924 0.8704
vn 0.4924 -0.0000 0.8704
vn -0.0000 -0.0000 -1.0000
vt 1.000000 0.500000
vt 1.000000 1.000000
vt 0.750000 1.000000
vt 0.750000 0.500000
vt 0.500000 1.000000
vt 0.500000 0.500000
vt 0.490000 0.250000
vt 0.250000 0.490000
vt 0.010000 0.250000
vt 0.250000 0.010000
vt 0.250000 1.000000
vt 0.250000 0.500000
vt 0.000000 1.000000
vt 0.000000 0.500000
vt 0.750000 0.490000
vt 0.990000 0.250000
vt 0.750000 0.010000
vt 0.510000 0.250000
s 0
f 81/165/53 82/166/53 84/167/53 83/168/53
f 83/168/54 84/167/54 86/169/54 85/170/54
f 84/171/55 82/172/55 88/173/55 86/174/55
f 85/170/56 86/169/56 88/175/56 87/176/56
f 87/176/57 88/175/57 82/177/57 81/178/57
f 81/179/58 83/180/58 85/181/58 87/182/58
o RJ_Roof1
v 1.679379 -1.679379 6.150000
v 0.035355 -0.035355 7.550000
v -1.679379 -1.679379 6.150000
v -0.035355 -0.035355 7.550000
v -1.679379 1.679379 6.150000
v -0.035355 0.035355 7.550000
v 1.679379 1.679379 6.150000
v 0.035355 0.035355 7.550000
vn -0.0000 -0.6483 0.7613
vn -0.6483 -0.0000 0.7613
vn -0.0000 -0.0000 1.0000
vn -0.0000 0.6483 0.7613
vn 0.6483 -0.0000 0.7613
vn -0.0000 -0.0000 -1.0000
vt 1.000000 0.500000
vt 1.000000 1.000000
vt 0.750000 1.000000
vt 0.750000 0.500000
vt 0.500000 1.000000
vt 0.500000 0.500000
vt 0.490000 0.250000
vt 0.250000 0.490000
vt 0.010000 0.250000
vt 0.250000 0.010000
vt 0.250000 1.000000
vt 0.250000 0.500000
vt 0.000000 1.000000
vt 0.000000 0.500000
vt 0.750000 0.490000
vt 0.990000 0.250000
vt 0.750000 0.010000
vt 0.510000 0.250000
s 0
f 89/183/59 90/184/59 92/185/59 91/186/59
f 91/186/60 92/185/60 94/187/60 93/188/60
f 92/189/61 90/190/61 96/191/61 94/192/61
f 93/188/62 94/187/62 96/193/62 95/194/62
f 95/194/63 96/193/63 90/195/63 89/196/63
f 89/197/64 91/198/64 93/199/64 95/200/64
o RJ_Roof2
v 0.919239 -0.919239 9.100000
v 0.035355 -0.035355 11.600000
v -0.919239 -0.919239 9.100000
v -0.035355 -0.035355 11.600000
v -0.919239 0.919239 9.100000
v -0.035355 0.035355 11.600000
v 0.919239 0.919239 9.100000
v 0.035355 0.035355 11.600000
vn -0.0000 -0.9428 0.3333
vn -0.9428 -0.0000 0.3333
vn -0.0000 -0.0000 1.0000
vn -0.0000 0.9428 0.3333
vn 0.9428 -0.0000 0.3333
vn -0.0000 -0.0000 -1.0000
vt 1.000000 0.500000
vt 1.000000 1.000000
vt 0.750000 1.000000
vt 0.750000 0.500000
vt 0.500000 1.000000
vt 0.500000 0.500000
vt 0.490000 0.250000
vt 0.250000 0.490000
vt 0.010000 0.250000
vt 0.250000 0.010000
vt 0.250000 1.000000
vt 0.250000 0.500000
vt 0.000000 1.000000
vt 0.000000 0.500000
vt 0.750000 0.490000
vt 0.990000 0.250000
vt 0.750000 0.010000
vt 0.510000 0.250000
s 0
f 97/201/65 98/202/65 100/203/65 99/204/65
f 99/204/66 100/203/66 102/205/66 101/206/66
f 100/207/67 98/208/67 104/209/67 102/210/67
f 101/206/68 102/205/68 104/211/68 103/212/68
f 103/212/69 104/211/69 98/213/69 97/214/69
f 97/215/70 99/216/70 101/217/70 103/218/70
o RJ_Mustaka
v 0.000000 0.000000 11.380000
v -0.159192 0.115658 11.501613
v 0.060805 0.187141 11.501613
v 0.196773 0.000000 11.501613
v 0.060805 -0.187141 11.501613
v -0.159192 -0.115658 11.501613
v -0.060805 0.187141 11.698388
v 0.159192 0.115658 11.698388
v 0.159192 -0.115658 11.698388
v -0.060805 -0.187141 11.698388
v -0.196773 0.000000 11.698388
v 0.000000 0.000000 11.820001
vn -0.1876 0.5774 -0.7947
vn -0.6071 -0.0000 -0.7947
vn 0.4911 0.3568 -0.7947
vn 0.4911 -0.3568 -0.7947
vn -0.1876 -0.5774 -0.7947
vn -0.9822 -0.0000 -0.1876
vn -0.3035 0.9342 -0.1876
vn 0.7946 0.5774 -0.1876
vn 0.7946 -0.5774 -0.1876
vn -0.3035 -0.9342 -0.1876
vn -0.7946 0.5774 0.1876
vn 0.3035 0.9342 0.1876
vn 0.9822 -0.0000 0.1876
vn 0.3035 -0.9342 0.1876
vn -0.7946 -0.5774 0.1876
vn -0.4911 0.3568 0.7947
vn 0.1876 0.5774 0.7947
vn 0.6071 -0.0000 0.7947
vn 0.1876 -0.5774 0.7947
vn -0.4911 -0.3568 0.7947
vt 0.181819 0.000000
vt 0.272728 0.157461
vt 0.090910 0.157461
vt 0.363637 0.000000
vt 0.454546 0.157461
vt 0.909091 0.000000
vt 1.000000 0.157461
vt 0.818182 0.157461
vt 0.727273 0.000000
vt 0.636364 0.157461
vt 0.545455 0.000000
vt 0.363637 0.314921
vt 0.181819 0.314921
vt 0.909091 0.314921
vt 0.727273 0.314921
vt 0.545455 0.314921
vt 0.000000 0.314921
vt 0.272728 0.472382
vt 0.090910 0.472382
vt 0.818182 0.472382
vt 0.636364 0.472382
vt 0.454546 0.472382
s 0
f 105/219/71 106/220/71 107/221/71
f 106/220/72 105/222/72 110/223/72
f 105/224/73 107/225/73 108/226/73
f 105/227/74 108/226/74 109/228/74
f 105/229/75 109/228/75 110/223/75
f 106/220/76 110/223/76 115/230/76
f 107/221/77 106/220/77 111/231/77
f 108/226/78 107/225/78 112/232/78
f 109/228/79 108/226/79 113/233/79
f 110/223/80 109/228/80 114/234/80
f 106/220/81 115/230/81 111/231/81
f 107/221/82 111/231/82 112/235/82
f 108/226/83 112/232/83 113/233/83
f 109/228/84 113/233/84 114/234/84
f 110/223/85 114/234/85 115/230/85
f 111/231/86 115/230/86 116/236/86
f 112/235/87 111/231/87 116/237/87
f 113/233/88 112/232/88 116/238/88
f 114/234/89 113/233/89 116/239/89
f 115/230/90 114/234/90 116/240/90
