# Blender 5.1.1
# www.blender.org
mtllib sumur.mtl
o Sumur_Body.001
v 0.000000 -0.550000 0.000000
v 0.000000 -0.550000 0.900000
v -0.210476 -0.508134 0.000000
v -0.210476 -0.508134 0.900000
v -0.388909 -0.388909 0.000000
v -0.388909 -0.388909 0.900000
v -0.508134 -0.210476 0.000000
v -0.508134 -0.210476 0.900000
v -0.550000 0.000000 0.000000
v -0.550000 0.000000 0.900000
v -0.508134 0.210476 0.000000
v -0.508134 0.210476 0.900000
v -0.388909 0.388909 0.000000
v -0.388909 0.388909 0.900000
v -0.210476 0.508134 0.000000
v -0.210476 0.508134 0.900000
v 0.000000 0.550000 0.000000
v 0.000000 0.550000 0.900000
v 0.210476 0.508134 0.000000
v 0.210476 0.508134 0.900000
v 0.388909 0.388909 0.000000
v 0.388909 0.388909 0.900000
v 0.508134 0.210476 0.000000
v 0.508134 0.210476 0.900000
v 0.550000 0.000000 0.000000
v 0.550000 0.000000 0.900000
v 0.508134 -0.210476 0.000000
v 0.508134 -0.210476 0.900000
v 0.388909 -0.388909 0.000000
v 0.388909 -0.388909 0.900000
v 0.210476 -0.508134 0.000000
v 0.210476 -0.508134 0.900000
vn -0.1951 -0.9808 -0.0000
vn -0.5556 -0.8315 -0.0000
vn -0.8315 -0.5556 -0.0000
vn -0.9808 -0.1951 -0.0000
vn -0.9808 0.1951 -0.0000
vn -0.8315 0.5556 -0.0000
vn -0.5556 0.8315 -0.0000
vn -0.1951 0.9808 -0.0000
vn 0.1951 0.9808 -0.0000
vn 0.5556 0.8315 -0.0000
vn 0.8315 0.5556 -0.0000
vn 0.9808 0.1951 -0.0000
vn 0.9808 -0.1951 -0.0000
vn 0.8315 -0.5556 -0.0000
vn -0.0000 -0.0000 1.0000
vn 0.5556 -0.8315 -0.0000
vn 0.1951 -0.9808 -0.0000
vn -0.0000 -0.0000 -1.0000
vt 1.000000 0.500000
vt 1.000000 1.000000
vt 0.937500 1.000000
vt 0.937500 0.500000
vt 0.875000 1.000000
vt 0.875000 0.500000
vt 0.812500 1.000000
vt 0.812500 0.500000
vt 0.750000 1.000000
vt 0.750000 0.500000
vt 0.687500 1.000000
vt 0.687500 0.500000
vt 0.625000 1.000000
vt 0.625000 0.500000
vt 0.562500 1.000000
vt 0.562500 0.500000
vt 0.500000 1.000000
vt 0.500000 0.500000
vt 0.437500 1.000000
vt 0.437500 0.500000
vt 0.375000 1.000000
vt 0.375000 0.500000
vt 0.312500 1.000000
vt 0.312500 0.500000
vt 0.250000 1.000000
vt 0.250000 0.500000
vt 0.187500 1.000000
vt 0.187500 0.500000
vt 0.125000 1.000000
vt 0.125000 0.500000
vt 0.341844 0.471731
vt 0.250000 0.490000
vt 0.158156 0.471731
vt 0.080294 0.419706
vt 0.028269 0.341844
vt 0.010000 0.250000
vt 0.028269 0.158156
vt 0.080294 0.080294
vt 0.158156 0.028269
vt 0.250000 0.010000
vt 0.341844 0.028269
vt 0.419706 0.080294
vt 0.471731 0.158156
vt 0.490000 0.250000
vt 0.471731 0.341844
vt 0.419706 0.419706
vt 0.062500 1.000000
vt 0.062500 0.500000
vt 0.000000 1.000000
vt 0.000000 0.500000
vt 0.750000 0.490000
vt 0.841844 0.471731
vt 0.919706 0.419706
vt 0.971731 0.341844
vt 0.990000 0.250000
vt 0.971731 0.158156
vt 0.919706 0.080294
vt 0.841844 0.028269
vt 0.750000 0.010000
vt 0.658156 0.028269
vt 0.580294 0.080294
vt 0.528269 0.158156
vt 0.510000 0.250000
vt 0.528269 0.341844
vt 0.580294 0.419706
vt 0.658156 0.471731
s 0
f 1/1/1 2/2/1 4/3/1 3/4/1
f 3/4/2 4/3/2 6/5/2 5/6/2
f 5/6/3 6/5/3 8/7/3 7/8/3
f 7/8/4 8/7/4 10/9/4 9/10/4
f 9/10/5 10/9/5 12/11/5 11/12/5
f 11/12/6 12/11/6 14/13/6 13/14/6
f 13/14/7 14/13/7 16/15/7 15/16/7
f 15/16/8 16/15/8 18/17/8 17/18/8
f 17/18/9 18/17/9 20/19/9 19/20/9
f 19/20/10 20/19/10 22/21/10 21/22/10
f 21/22/11 22/21/11 24/23/11 23/24/11
f 23/24/12 24/23/12 26/25/12 25/26/12
f 25/26/13 26/25/13 28/27/13 27/28/13
f 27/28/14 28/27/14 30/29/14 29/30/14
f 4/31/15 2/32/15 32/33/15 30/34/15 28/35/15 26/36/15 24/37/15 22/38/15 20/39/15 18/40/15 16/41/15 14/42/15 12/43/15 10/44/15 8/45/15 6/46/15
f 29/30/16 30/29/16 32/47/16 31/48/16
f 31/48/17 32/47/17 2/49/17 1/50/17
f 1/51/18 3/52/18 5/53/18 7/54/18 9/55/18 11/56/18 13/57/18 15/58/18 17/59/18 19/60/18 21/61/18 23/62/18 25/63/18 27/64/18 29/65/18 31/66/18
o Sumur_Lip.001
v -0.650000 0.000000 0.920000
v -0.640622 0.000000 0.955000
v -0.615000 0.000000 0.980622
v -0.580000 0.000000 0.990000
v -0.545000 0.000000 0.980622
v -0.519378 0.000000 0.955000
v -0.510000 0.000000 0.920000
v -0.519378 0.000000 0.885000
v -0.545000 0.000000 0.859378
v -0.580000 0.000000 0.850000
v -0.615000 0.000000 0.859378
v -0.640622 0.000000 0.885000
v -0.644439 -0.084842 0.920000
v -0.635141 -0.083618 0.955000
v -0.609739 -0.080274 0.980622
v -0.575038 -0.075705 0.990000
v -0.540337 -0.071137 0.980622
v -0.514935 -0.067792 0.955000
v -0.505637 -0.066568 0.920000
v -0.514935 -0.067792 0.885000
v -0.540337 -0.071137 0.859378
v -0.575038 -0.075705 0.850000
v -0.609739 -0.080274 0.859378
v -0.635141 -0.083618 0.885000
v -0.627852 -0.168232 0.920000
v -0.618793 -0.165805 0.955000
v -0.594044 -0.159174 0.980622
v -0.560237 -0.150115 0.990000
v -0.526430 -0.141056 0.980622
v -0.501681 -0.134425 0.955000
v -0.492622 -0.131998 0.920000
v -0.501681 -0.134425 0.885000
v -0.526430 -0.141056 0.859378
v -0.560237 -0.150115 0.850000
v -0.594044 -0.159174 0.859378
v -0.618793 -0.165805 0.885000
v -0.600522 -0.248744 0.920000
v -0.591857 -0.245155 0.955000
v -0.568186 -0.235350 0.980622
v -0.535850 -0.221956 0.990000
v -0.503514 -0.208562 0.980622
v -0.479843 -0.198757 0.955000
v -0.471179 -0.195169 0.920000
v -0.479843 -0.198757 0.885000
v -0.503514 -0.208562 0.859378
v -0.535850 -0.221956 0.850000
v -0.568186 -0.235350 0.859378
v -0.591857 -0.245155 0.885000
v -0.562916 -0.325000 0.920000
v -0.554795 -0.320311 0.955000
v -0.532606 -0.307500 0.980622
v -0.502295 -0.290000 0.990000
v -0.471984 -0.272500 0.980622
v -0.449795 -0.259689 0.955000
v -0.441673 -0.255000 0.920000
v -0.449795 -0.259689 0.885000
v -0.471984 -0.272500 0.859378
v -0.502295 -0.290000 0.850000
v -0.532606 -0.307500 0.859378
v -0.554795 -0.320311 0.885000
v -0.515680 -0.395695 0.920000
v -0.508240 -0.389986 0.955000
v -0.487912 -0.374388 0.980622
v -0.460145 -0.353082 0.990000
v -0.432378 -0.331775 0.980622
v -0.412050 -0.316177 0.955000
v -0.404610 -0.310468 0.920000
v -0.412050 -0.316177 0.885000
v -0.432378 -0.331775 0.859378
v -0.460145 -0.353082 0.850000
v -0.487912 -0.374388 0.859378
v -0.508240 -0.389986 0.885000
v -0.459619 -0.459619 0.920000
v -0.452988 -0.452988 0.955000
v -0.434871 -0.434871 0.980622
v -0.410122 -0.410122 0.990000
v -0.385373 -0.385373 0.980622
v -0.367256 -0.367256 0.955000
v -0.360624 -0.360624 0.920000
v -0.367256 -0.367256 0.885000
v -0.385373 -0.385373 0.859378
v -0.410122 -0.410122 0.850000
v -0.434871 -0.434871 0.859378
v -0.452988 -0.452988 0.885000
v -0.395695 -0.515680 0.920000
v -0.389986 -0.508239 0.955000
v -0.374388 -0.487912 0.980622
v -0.353082 -0.460145 0.990000
v -0.331775 -0.432377 0.980622
v -0.316177 -0.412050 0.955000
v -0.310468 -0.404610 0.920000
v -0.316177 -0.412050 0.885000
v -0.331775 -0.432377 0.859378
v -0.353082 -0.460145 0.850000
v -0.374388 -0.487912 0.859378
v -0.389986 -0.508239 0.885000
v -0.325000 -0.562917 0.920000
v -0.320311 -0.554795 0.955000
v -0.307500 -0.532606 0.980622
v -0.290000 -0.502295 0.990000
v -0.272500 -0.471984 0.980622
v -0.259689 -0.449795 0.955000
v -0.255000 -0.441673 0.920000
v -0.259689 -0.449795 0.885000
v -0.272500 -0.471984 0.859378
v -0.290000 -0.502295 0.850000
v -0.307500 -0.532606 0.859378
v -0.320311 -0.554795 0.885000
v -0.248744 -0.600522 0.920000
v -0.245155 -0.591857 0.955000
v -0.235350 -0.568186 0.980622
v -0.221957 -0.535850 0.990000
v -0.208563 -0.503514 0.980622
v -0.198758 -0.479843 0.955000
v -0.195169 -0.471179 0.920000
v -0.198758 -0.479843 0.885000
v -0.208563 -0.503514 0.859378
v -0.221957 -0.535850 0.850000
v -0.235350 -0.568186 0.859378
v -0.245155 -0.591857 0.885000
v -0.168232 -0.627852 0.920000
v -0.165805 -0.618793 0.955000
v -0.159174 -0.594044 0.980622
v -0.150115 -0.560237 0.990000
v -0.141056 -0.526430 0.980622
v -0.134425 -0.501681 0.955000
v -0.131998 -0.492622 0.920000
v -0.134425 -0.501681 0.885000
v -0.141056 -0.526430 0.859378
v -0.150115 -0.560237 0.850000
v -0.159174 -0.594044 0.859378
v -0.165805 -0.618793 0.885000
v -0.084842 -0.644439 0.920000
v -0.083618 -0.635141 0.955000
v -0.080273 -0.609739 0.980622
v -0.075705 -0.575038 0.990000
v -0.071137 -0.540337 0.980622
v -0.067792 -0.514935 0.955000
v -0.066568 -0.505637 0.920000
v -0.067792 -0.514935 0.885000
v -0.071137 -0.540337 0.859378
v -0.075705 -0.575038 0.850000
v -0.080273 -0.609739 0.859378
v -0.083618 -0.635141 0.885000
v -0.000000 -0.650000 0.920000
v -0.000000 -0.640622 0.955000
v -0.000000 -0.615000 0.980622
v -0.000000 -0.580000 0.990000
v -0.000000 -0.545000 0.980622
v -0.000000 -0.519378 0.955000
v -0.000000 -0.510000 0.920000
v -0.000000 -0.519378 0.885000
v -0.000000 -0.545000 0.859378
v -0.000000 -0.580000 0.850000
v -0.000000 -0.615000 0.859378
v -0.000000 -0.640622 0.885000
v 0.084842 -0.644439 0.920000
v 0.083618 -0.635141 0.955000
v 0.080274 -0.609739 0.980622
v 0.075705 -0.575038 0.990000
v 0.071137 -0.540337 0.980622
v 0.067793 -0.514935 0.955000
v 0.066568 -0.505637 0.920000
v 0.067793 -0.514935 0.885000
v 0.071137 -0.540337 0.859378
v 0.075705 -0.575038 0.850000
v 0.080274 -0.609739 0.859378
v 0.083618 -0.635141 0.885000
v 0.168232 -0.627852 0.920000
v 0.165805 -0.618793 0.955000
v 0.159174 -0.594044 0.980622
v 0.150115 -0.560237 0.990000
v 0.141056 -0.526430 0.980622
v 0.134425 -0.501681 0.955000
v 0.131998 -0.492622 0.920000
v 0.134425 -0.501681 0.885000
v 0.141056 -0.526430 0.859378
v 0.150115 -0.560237 0.850000
v 0.159174 -0.594044 0.859378
v 0.165805 -0.618793 0.885000
v 0.248744 -0.600522 0.920000
v 0.245155 -0.591857 0.955000
v 0.235350 -0.568186 0.980622
v 0.221956 -0.535850 0.990000
v 0.208562 -0.503514 0.980622
v 0.198757 -0.479843 0.955000
v 0.195169 -0.471179 0.920000
v 0.198757 -0.479843 0.885000
v 0.208562 -0.503514 0.859378
v 0.221956 -0.535850 0.850000
v 0.235350 -0.568186 0.859378
v 0.245155 -0.591857 0.885000
v 0.325000 -0.562917 0.920000
v 0.320311 -0.554795 0.955000
v 0.307500 -0.532606 0.980622
v 0.290000 -0.502295 0.990000
v 0.272500 -0.471984 0.980622
v 0.259689 -0.449795 0.955000
v 0.255000 -0.441673 0.920000
v 0.259689 -0.449795 0.885000
v 0.272500 -0.471984 0.859378
v 0.290000 -0.502295 0.850000
v 0.307500 -0.532606 0.859378
v 0.320311 -0.554795 0.885000
v 0.395695 -0.515680 0.920000
v 0.389986 -0.508239 0.955000
v 0.374388 -0.487912 0.980622
v 0.353082 -0.460145 0.990000
v 0.331775 -0.432378 0.980622
v 0.316177 -0.412050 0.955000
v 0.310468 -0.404610 0.920000
v 0.316177 -0.412050 0.885000
v 0.331775 -0.432378 0.859378
v 0.353082 -0.460145 0.850000
v 0.374388 -0.487912 0.859378
v 0.389986 -0.508239 0.885000
v 0.459619 -0.459619 0.920000
v 0.452988 -0.452988 0.955000
v 0.434871 -0.434871 0.980622
v 0.410122 -0.410122 0.990000
v 0.385373 -0.385373 0.980622
v 0.367256 -0.367256 0.955000
v 0.360625 -0.360624 0.920000
v 0.367256 -0.367256 0.885000
v 0.385373 -0.385373 0.859378
v 0.410122 -0.410122 0.850000
v 0.434871 -0.434871 0.859378
v 0.452988 -0.452988 0.885000
v 0.515680 -0.395695 0.920000
v 0.508239 -0.389986 0.955000
v 0.487912 -0.374388 0.980622
v 0.460145 -0.353082 0.990000
v 0.432378 -0.331775 0.980622
v 0.412050 -0.316177 0.955000
v 0.404610 -0.310468 0.920000
v 0.412050 -0.316177 0.885000
v 0.432378 -0.331775 0.859378
v 0.460145 -0.353082 0.850000
v 0.487912 -0.374388 0.859378
v 0.508239 -0.389986 0.885000
v 0.562916 -0.325000 0.920000
v 0.554795 -0.320311 0.955000
v 0.532606 -0.307500 0.980622
v 0.502295 -0.290000 0.990000
v 0.471984 -0.272500 0.980622
v 0.449795 -0.259689 0.955000
v 0.441673 -0.255000 0.920000
v 0.449795 -0.259689 0.885000
v 0.471984 -0.272500 0.859378
v 0.502295 -0.290000 0.850000
v 0.532606 -0.307500 0.859378
v 0.554795 -0.320311 0.885000
v 0.600522 -0.248744 0.920000
v 0.591857 -0.245155 0.955000
v 0.568186 -0.235350 0.980622
v 0.535850 -0.221956 0.990000
v 0.503514 -0.208562 0.980622
v 0.479843 -0.198757 0.955000
v 0.471179 -0.195169 0.920000
v 0.479843 -0.198757 0.885000
v 0.503514 -0.208562 0.859378
v 0.535850 -0.221956 0.850000
v 0.568186 -0.235350 0.859378
v 0.591857 -0.245155 0.885000
v 0.627852 -0.168232 0.920000
v 0.618793 -0.165805 0.955000
v 0.594044 -0.159174 0.980622
v 0.560237 -0.150115 0.990000
v 0.526430 -0.141056 0.980622
v 0.501681 -0.134425 0.955000
v 0.492622 -0.131998 0.920000
v 0.501681 -0.134425 0.885000
v 0.526430 -0.141056 0.859378
v 0.560237 -0.150115 0.850000
v 0.594044 -0.159174 0.859378
v 0.618793 -0.165805 0.885000
v 0.644439 -0.084842 0.920000
v 0.635141 -0.083618 0.955000
v 0.609739 -0.080274 0.980622
v 0.575038 -0.075705 0.990000
v 0.540337 -0.071137 0.980622
v 0.514935 -0.067793 0.955000
v 0.505637 -0.066568 0.920000
v 0.514935 -0.067793 0.885000
v 0.540337 -0.071137 0.859378
v 0.575038 -0.075705 0.850000
v 0.609739 -0.080274 0.859378
v 0.635141 -0.083618 0.885000
v 0.650000 -0.000000 0.920000
v 0.640622 -0.000000 0.955000
v 0.615000 -0.000000 0.980622
v 0.580000 -0.000000 0.990000
v 0.545000 -0.000000 0.980622
v 0.519378 -0.000000 0.955000
v 0.510000 -0.000000 0.920000
v 0.519378 -0.000000 0.885000
v 0.545000 -0.000000 0.859378
v 0.580000 -0.000000 0.850000
v 0.615000 -0.000000 0.859378
v 0.640622 -0.000000 0.885000
v 0.644439 0.084842 0.920000
v 0.635141 0.083618 0.955000
v 0.609739 0.080274 0.980622
v 0.575038 0.075705 0.990000
v 0.540337 0.071137 0.980622
v 0.514935 0.067793 0.955000
v 0.505637 0.066568 0.920000
v 0.514935 0.067793 0.885000
v 0.540337 0.071137 0.859378
v 0.575038 0.075705 0.850000
v 0.609739 0.080274 0.859378
v 0.635141 0.083618 0.885000
v 0.627852 0.168232 0.920000
v 0.618793 0.165805 0.955000
v 0.594044 0.159174 0.980622
v 0.560237 0.150115 0.990000
v 0.526430 0.141056 0.980622
v 0.501681 0.134425 0.955000
v 0.492622 0.131998 0.920000
v 0.501681 0.134425 0.885000
v 0.526430 0.141056 0.859378
v 0.560237 0.150115 0.850000
v 0.594044 0.159174 0.859378
v 0.618793 0.165805 0.885000
v 0.600522 0.248744 0.920000
v 0.591857 0.245155 0.955000
v 0.568186 0.235350 0.980622
v 0.535850 0.221956 0.990000
v 0.503514 0.208562 0.980622
v 0.479843 0.198757 0.955000
v 0.471179 0.195168 0.920000
v 0.479843 0.198757 0.885000
v 0.503514 0.208562 0.859378
v 0.535850 0.221956 0.850000
v 0.568186 0.235350 0.859378
v 0.591857 0.245155 0.885000
v 0.562917 0.325000 0.920000
v 0.554795 0.320311 0.955000
v 0.532606 0.307500 0.980622
v 0.502295 0.290000 0.990000
v 0.471984 0.272500 0.980622
v 0.449795 0.259689 0.955000
v 0.441673 0.255000 0.920000
v 0.449795 0.259689 0.885000
v 0.471984 0.272500 0.859378
v 0.502295 0.290000 0.850000
v 0.532606 0.307500 0.859378
v 0.554795 0.320311 0.885000
v 0.515680 0.395695 0.920000
v 0.508239 0.389986 0.955000
v 0.487912 0.374388 0.980622
v 0.460145 0.353082 0.990000
v 0.432378 0.331775 0.980622
v 0.412050 0.316177 0.955000
v 0.404610 0.310468 0.920000
v 0.412050 0.316177 0.885000
v 0.432378 0.331775 0.859378
v 0.460145 0.353082 0.850000
v 0.487912 0.374388 0.859378
v 0.508239 0.389986 0.885000
v 0.459619 0.459619 0.920000
v 0.452988 0.452988 0.955000
v 0.434871 0.434871 0.980622
v 0.410122 0.410122 0.990000
v 0.385373 0.385373 0.980622
v 0.367256 0.367256 0.955000
v 0.360625 0.360624 0.920000
v 0.367256 0.367256 0.885000
v 0.385373 0.385373 0.859378
v 0.410122 0.410122 0.850000
v 0.434871 0.434871 0.859378
v 0.452988 0.452988 0.885000
v 0.395695 0.515679 0.920000
v 0.389986 0.508239 0.955000
v 0.374389 0.487912 0.980622
v 0.353082 0.460145 0.990000
v 0.331775 0.432377 0.980622
v 0.316178 0.412050 0.955000
v 0.310469 0.404610 0.920000
v 0.316178 0.412050 0.885000
v 0.331775 0.432377 0.859378
v 0.353082 0.460145 0.850000
v 0.374389 0.487912 0.859378
v 0.389986 0.508239 0.885000
v 0.325000 0.562917 0.920000
v 0.320311 0.554795 0.955000
v 0.307500 0.532606 0.980622
v 0.290000 0.502295 0.990000
v 0.272500 0.471984 0.980622
v 0.259689 0.449795 0.955000
v 0.255000 0.441673 0.920000
v 0.259689 0.449795 0.885000
v 0.272500 0.471984 0.859378
v 0.290000 0.502295 0.850000
v 0.307500 0.532606 0.859378
v 0.320311 0.554795 0.885000
v 0.248744 0.600522 0.920000
v 0.245155 0.591857 0.955000
v 0.235350 0.568186 0.980622
v 0.221956 0.535850 0.990000
v 0.208562 0.503514 0.980622
v 0.198757 0.479843 0.955000
v 0.195169 0.471179 0.920000
v 0.198757 0.479843 0.885000
v 0.208562 0.503514 0.859378
v 0.221956 0.535850 0.850000
v 0.235350 0.568186 0.859378
v 0.245155 0.591857 0.885000
v 0.168233 0.627852 0.920000
v 0.165805 0.618793 0.955000
v 0.159174 0.594044 0.980622
v 0.150115 0.560237 0.990000
v 0.141057 0.526429 0.980622
v 0.134425 0.501681 0.955000
v 0.131998 0.492622 0.920000
v 0.134425 0.501681 0.885000
v 0.141057 0.526429 0.859378
v 0.150115 0.560237 0.850000
v 0.159174 0.594044 0.859378
v 0.165805 0.618793 0.885000
v 0.084842 0.644439 0.920000
v 0.083618 0.635141 0.955000
v 0.080274 0.609739 0.980622
v 0.075706 0.575038 0.990000
v 0.071137 0.540337 0.980622
v 0.067793 0.514935 0.955000
v 0.066569 0.505637 0.920000
v 0.067793 0.514935 0.885000
v 0.071137 0.540337 0.859378
v 0.075706 0.575038 0.850000
v 0.080274 0.609739 0.859378
v 0.083618 0.635141 0.885000
v -0.000000 0.650000 0.920000
v -0.000000 0.640622 0.955000
v -0.000000 0.615000 0.980622
v -0.000000 0.580000 0.990000
v -0.000000 0.545000 0.980622
v -0.000000 0.519378 0.955000
v -0.000000 0.510000 0.920000
v -0.000000 0.519378 0.885000
v -0.000000 0.545000 0.859378
v -0.000000 0.580000 0.850000
v -0.000000 0.615000 0.859378
v -0.000000 0.640622 0.885000
v -0.084842 0.644439 0.920000
v -0.083618 0.635141 0.955000
v -0.080273 0.609739 0.980622
v -0.075705 0.575038 0.990000
v -0.071137 0.540337 0.980622
v -0.067792 0.514935 0.955000
v -0.066568 0.505637 0.920000
v -0.067792 0.514935 0.885000
v -0.071137 0.540337 0.859378
v -0.075705 0.575038 0.850000
v -0.080273 0.609739 0.859378
v -0.083618 0.635141 0.885000
v -0.168232 0.627852 0.920000
v -0.165805 0.618793 0.955000
v -0.159173 0.594044 0.980622
v -0.150115 0.560237 0.990000
v -0.141056 0.526430 0.980622
v -0.134425 0.501681 0.955000
v -0.131997 0.492622 0.920000
v -0.134425 0.501681 0.885000
v -0.141056 0.526430 0.859378
v -0.150115 0.560237 0.850000
v -0.159173 0.594044 0.859378
v -0.165805 0.618793 0.885000
v -0.248744 0.600522 0.920000
v -0.245155 0.591857 0.955000
v -0.235350 0.568186 0.980622
v -0.221957 0.535850 0.990000
v -0.208563 0.503514 0.980622
v -0.198758 0.479843 0.955000
v -0.195169 0.471179 0.920000
v -0.198758 0.479843 0.885000
v -0.208563 0.503514 0.859378
v -0.221957 0.535850 0.850000
v -0.235350 0.568186 0.859378
v -0.245155 0.591857 0.885000
v -0.325000 0.562917 0.920000
v -0.320311 0.554795 0.955000
v -0.307500 0.532606 0.980622
v -0.290000 0.502295 0.990000
v -0.272500 0.471984 0.980622
v -0.259689 0.449795 0.955000
v -0.255000 0.441673 0.920000
v -0.259689 0.449795 0.885000
v -0.272500 0.471984 0.859378
v -0.290000 0.502295 0.850000
v -0.307500 0.532606 0.859378
v -0.320311 0.554795 0.885000
v -0.395695 0.515680 0.920000
v -0.389986 0.508240 0.955000
v -0.374388 0.487912 0.980622
v -0.353081 0.460145 0.990000
v -0.331775 0.432378 0.980622
v -0.316177 0.412050 0.955000
v -0.310468 0.404610 0.920000
v -0.316177 0.412050 0.885000
v -0.331775 0.432378 0.859378
v -0.353081 0.460145 0.850000
v -0.374388 0.487912 0.859378
v -0.389986 0.508240 0.885000
v -0.459619 0.459620 0.920000
v -0.452988 0.452988 0.955000
v -0.434870 0.434871 0.980622
v -0.410122 0.410122 0.990000
v -0.385373 0.385373 0.980622
v -0.367256 0.367256 0.955000
v -0.360624 0.360625 0.920000
v -0.367256 0.367256 0.885000
v -0.385373 0.385373 0.859378
v -0.410122 0.410122 0.850000
v -0.434870 0.434871 0.859378
v -0.452988 0.452988 0.885000
v -0.515680 0.395695 0.920000
v -0.508240 0.389986 0.955000
v -0.487912 0.374388 0.980622
v -0.460145 0.353082 0.990000
v -0.432378 0.331775 0.980622
v -0.412050 0.316177 0.955000
v -0.404610 0.310468 0.920000
v -0.412050 0.316177 0.885000
v -0.432378 0.331775 0.859378
v -0.460145 0.353082 0.850000
v -0.487912 0.374388 0.859378
v -0.508240 0.389986 0.885000
v -0.562916 0.325000 0.920000
v -0.554795 0.320311 0.955000
v -0.532606 0.307500 0.980622
v -0.502295 0.290000 0.990000
v -0.471984 0.272500 0.980622
v -0.449795 0.259689 0.955000
v -0.441673 0.255000 0.920000
v -0.449795 0.259689 0.885000
v -0.471984 0.272500 0.859378
v -0.502295 0.290000 0.850000
v -0.532606 0.307500 0.859378
v -0.554795 0.320311 0.885000
v -0.600522 0.248744 0.920000
v -0.591857 0.245156 0.955000
v -0.568186 0.235351 0.980622
v -0.535850 0.221957 0.990000
v -0.503514 0.208563 0.980622
v -0.479843 0.198758 0.955000
v -0.471178 0.195169 0.920000
v -0.479843 0.198758 0.885000
v -0.503514 0.208563 0.859378
v -0.535850 0.221957 0.850000
v -0.568186 0.235351 0.859378
v -0.591857 0.245156 0.885000
v -0.627852 0.168232 0.920000
v -0.618793 0.165805 0.955000
v -0.594044 0.159174 0.980622
v -0.560237 0.150115 0.990000
v -0.526430 0.141056 0.980622
v -0.501681 0.134425 0.955000
v -0.492622 0.131998 0.920000
v -0.501681 0.134425 0.885000
v -0.526430 0.141056 0.859378
v -0.560237 0.150115 0.850000
v -0.594044 0.159174 0.859378
v -0.618793 0.165805 0.885000
v -0.644439 0.084842 0.920000
v -0.635141 0.083618 0.955000
v -0.609739 0.080274 0.980622
v -0.575038 0.075705 0.990000
v -0.540337 0.071137 0.980622
v -0.514935 0.067792 0.955000
v -0.505637 0.066568 0.920000
v -0.514935 0.067792 0.885000
v -0.540337 0.071137 0.859378
v -0.575038 0.075705 0.850000
v -0.609739 0.080274 0.859378
v -0.635141 0.083618 0.885000
vn -0.9640 -0.0632 0.2583
vn -0.7063 -0.0463 0.7063
vn -0.2588 -0.0170 0.9658
vn 0.2588 0.0170 0.9658
vn 0.7063 0.0463 0.7063
vn 0.9640 0.0632 0.2583
vn 0.9640 0.0632 -0.2583
vn 0.7063 0.0463 -0.7063
vn 0.2588 0.0170 -0.9658
vn -0.2588 -0.0170 -0.9658
vn -0.7063 -0.0463 -0.7063
vn -0.9640 -0.0632 -0.2583
vn -0.9475 -0.1885 0.2583
vn -0.6943 -0.1381 0.7063
vn -0.2544 -0.0506 0.9658
vn 0.2544 0.0506 0.9658
vn 0.6943 0.1381 0.7063
vn 0.9475 0.1885 0.2583
vn 0.9475 0.1885 -0.2583
vn 0.6943 0.1381 -0.7063
vn 0.2544 0.0506 -0.9658
vn -0.2544 -0.0506 -0.9658
vn -0.6943 -0.1381 -0.7063
vn -0.9475 -0.1885 -0.2583
vn -0.9148 -0.3105 0.2583
vn -0.6703 -0.2275 0.7063
vn -0.2456 -0.0834 0.9658
vn 0.2456 0.0834 0.9658
vn 0.6703 0.2275 0.7063
vn 0.9148 0.3105 0.2583
vn 0.9148 0.3105 -0.2583
vn 0.6703 0.2275 -0.7063
vn 0.2456 0.0834 -0.9658
vn -0.2456 -0.0834 -0.9658
vn -0.6703 -0.2275 -0.7063
vn -0.9148 -0.3105 -0.2583
vn -0.8664 -0.4273 0.2583
vn -0.6349 -0.3131 0.7063
vn -0.2326 -0.1147 0.9658
vn 0.2326 0.1147 0.9658
vn 0.6349 0.3131 0.7063
vn 0.8664 0.4273 0.2583
vn 0.8664 0.4273 -0.2583
vn 0.6349 0.3131 -0.7063
vn 0.2326 0.1147 -0.9658
vn -0.2326 -0.1147 -0.9658
vn -0.6349 -0.3131 -0.7063
vn -0.8664 -0.4273 -0.2583
vn -0.8033 -0.5367 0.2583
vn -0.5886 -0.3933 0.7063
vn -0.2156 -0.1441 0.9658
vn 0.2156 0.1441 0.9658
vn 0.5886 0.3933 0.7063
vn 0.8033 0.5367 0.2583
vn 0.8033 0.5367 -0.2583
vn 0.5886 0.3933 -0.7063
vn 0.2156 0.1441 -0.9658
vn -0.2156 -0.1441 -0.9658
vn -0.5886 -0.3933 -0.7063
vn -0.8033 -0.5367 -0.2583
vn -0.7263 -0.6370 0.2583
vn -0.5322 -0.4667 0.7063
vn -0.1950 -0.1710 0.9658
vn 0.1950 0.1710 0.9658
vn 0.5322 0.4667 0.7063
vn 0.7263 0.6370 0.2583
vn 0.7263 0.6370 -0.2583
vn 0.5322 0.4667 -0.7063
vn 0.1950 0.1710 -0.9658
vn -0.1950 -0.1710 -0.9658
vn -0.5322 -0.4667 -0.7063
vn -0.7263 -0.6370 -0.2583
vn -0.6370 -0.7263 0.2583
vn -0.4667 -0.5322 0.7063
vn -0.1710 -0.1950 0.9658
vn 0.1710 0.1950 0.9658
vn 0.4667 0.5322 0.7063
vn 0.6370 0.7263 0.2583
vn 0.6370 0.7263 -0.2583
vn 0.4667 0.5322 -0.7063
vn 0.1710 0.1950 -0.9658
vn -0.1710 -0.1950 -0.9658
vn -0.4667 -0.5322 -0.7063
vn -0.6370 -0.7263 -0.2583
vn -0.5367 -0.8033 0.2583
vn -0.3933 -0.5886 0.7063
vn -0.1441 -0.2156 0.9658
vn 0.1441 0.2156 0.9658
vn 0.3933 0.5886 0.7063
vn 0.5367 0.8033 0.2583
vn 0.5367 0.8033 -0.2583
vn 0.3933 0.5886 -0.7063
vn 0.1441 0.2156 -0.9658
vn -0.1441 -0.2156 -0.9658
vn -0.3933 -0.5886 -0.7063
vn -0.5367 -0.8033 -0.2583
vn -0.4273 -0.8664 0.2583
vn -0.3131 -0.6349 0.7063
vn -0.1147 -0.2326 0.9658
vn 0.1147 0.2326 0.9658
vn 0.3131 0.6349 0.7063
vn 0.4273 0.8664 0.2583
vn 0.4273 0.8664 -0.2583
vn 0.3131 0.6349 -0.7063
vn 0.1147 0.2326 -0.9658
vn -0.1147 -0.2326 -0.9658
vn -0.3131 -0.6349 -0.7063
vn -0.4273 -0.8664 -0.2583
vn -0.3105 -0.9148 0.2583
vn -0.2275 -0.6703 0.7063
vn -0.0834 -0.2456 0.9658
vn 0.0834 0.2456 0.9658
vn 0.2275 0.6703 0.7063
vn 0.3105 0.9148 0.2583
vn 0.3105 0.9148 -0.2583
vn 0.2275 0.6703 -0.7063
vn 0.0834 0.2456 -0.9658
vn -0.0834 -0.2456 -0.9658
vn -0.2275 -0.6703 -0.7063
vn -0.3105 -0.9148 -0.2583
vn -0.1885 -0.9475 0.2583
vn -0.1381 -0.6943 0.7063
vn -0.0506 -0.2544 0.9658
vn 0.0506 0.2544 0.9658
vn 0.1381 0.6943 0.7063
vn 0.1885 0.9475 0.2583
vn 0.1885 0.9475 -0.2583
vn 0.1381 0.6943 -0.7063
vn 0.0506 0.2544 -0.9658
vn -0.0506 -0.2544 -0.9658
vn -0.1381 -0.6943 -0.7063
vn -0.1885 -0.9475 -0.2583
vn -0.0632 -0.9640 0.2583
vn -0.0463 -0.7063 0.7063
vn -0.0170 -0.2588 0.9658
vn 0.0170 0.2588 0.9658
vn 0.0463 0.7063 0.7063
vn 0.0632 0.9640 0.2583
vn 0.0632 0.9640 -0.2583
vn 0.0463 0.7063 -0.7063
vn 0.0170 0.2588 -0.9658
vn -0.0170 -0.2588 -0.9658
vn -0.0463 -0.7063 -0.7063
vn -0.0632 -0.9640 -0.2583
vn 0.0632 -0.9640 0.2583
vn 0.0463 -0.7063 0.7063
vn 0.0170 -0.2588 0.9658
vn -0.0170 0.2588 0.9658
vn -0.0463 0.7063 0.7064
vn -0.0632 0.9640 0.2583
vn -0.0632 0.9640 -0.2583
vn -0.0463 0.7063 -0.7064
vn -0.0170 0.2588 -0.9658
vn 0.0170 -0.2588 -0.9658
vn 0.0463 -0.7063 -0.7063
vn 0.0632 -0.9640 -0.2583
vn 0.1885 -0.9475 0.2583
vn 0.1381 -0.6943 0.7063
vn 0.0506 -0.2544 0.9658
vn -0.0506 0.2544 0.9658
vn -0.1381 0.6943 0.7063
vn -0.1885 0.9475 0.2583
vn -0.1885 0.9475 -0.2583
vn -0.1381 0.6943 -0.7063
vn -0.0506 0.2544 -0.9658
vn 0.0506 -0.2544 -0.9658
vn 0.1381 -0.6943 -0.7063
vn 0.1885 -0.9475 -0.2583
vn 0.3105 -0.9148 0.2583
vn 0.2275 -0.6703 0.7063
vn 0.0834 -0.2456 0.9658
vn -0.0834 0.2456 0.9658
vn -0.2275 0.6703 0.7063
vn -0.3105 0.9148 0.2583
vn -0.3105 0.9148 -0.2583
vn -0.2275 0.6703 -0.7063
vn -0.0834 0.2456 -0.9658
vn 0.0834 -0.2456 -0.9658
vn 0.2275 -0.6703 -0.7063
vn 0.3105 -0.9148 -0.2583
vn 0.4273 -0.8664 0.2583
vn 0.3131 -0.6349 0.7063
vn 0.1147 -0.2326 0.9658
vn -0.1147 0.2326 0.9658
vn -0.3131 0.6349 0.7063
vn -0.4273 0.8664 0.2583
vn -0.4273 0.8664 -0.2583
vn -0.3131 0.6349 -0.7063
vn -0.1147 0.2326 -0.9658
vn 0.1147 -0.2326 -0.9658
vn 0.3131 -0.6349 -0.7063
vn 0.4273 -0.8664 -0.2583
vn 0.5367 -0.8033 0.2583
vn 0.3933 -0.5886 0.7063
vn 0.1441 -0.2156 0.9658
vn -0.1441 0.2156 0.9658
vn -0.3933 0.5886 0.7063
vn -0.5367 0.8033 0.2583
vn -0.5367 0.8033 -0.2583
vn -0.3933 0.5886 -0.7063
vn -0.1441 0.2156 -0.9658
vn 0.1441 -0.2156 -0.9658
vn 0.3933 -0.5886 -0.7063
vn 0.5367 -0.8033 -0.2583
vn 0.6370 -0.7263 0.2583
vn 0.4667 -0.5322 0.7063
vn 0.1710 -0.1950 0.9658
vn -0.1710 0.1950 0.9658
vn -0.4667 0.5322 0.7063
vn -0.6370 0.7263 0.2583
vn -0.6370 0.7263 -0.2583
vn -0.4667 0.5322 -0.7063
vn -0.1710 0.1950 -0.9658
vn 0.1710 -0.1950 -0.9658
vn 0.4667 -0.5322 -0.7063
vn 0.6370 -0.7263 -0.2583
vn 0.7263 -0.6370 0.2583
vn 0.5322 -0.4667 0.7063
vn 0.1950 -0.1710 0.9658
vn -0.1950 0.1710 0.9658
vn -0.5322 0.4667 0.7063
vn -0.7263 0.6370 0.2583
vn -0.7263 0.6370 -0.2583
vn -0.5322 0.4667 -0.7063
vn -0.1950 0.1710 -0.9658
vn 0.1950 -0.1710 -0.9658
vn 0.5322 -0.4667 -0.7063
vn 0.7263 -0.6370 -0.2583
vn 0.8033 -0.5367 0.2583
vn 0.5886 -0.3933 0.7063
vn 0.2156 -0.1441 0.9658
vn -0.2156 0.1441 0.9658
vn -0.5886 0.3933 0.7063
vn -0.8033 0.5367 0.2583
vn -0.8033 0.5367 -0.2583
vn -0.5886 0.3933 -0.7063
vn -0.2156 0.1441 -0.9658
vn 0.2156 -0.1441 -0.9658
vn 0.5886 -0.3933 -0.7063
vn 0.8033 -0.5367 -0.2583
vn 0.8664 -0.4273 0.2583
vn 0.6349 -0.3131 0.7063
vn 0.2326 -0.1147 0.9658
vn -0.2326 0.1147 0.9658
vn -0.6349 0.3131 0.7063
vn -0.8664 0.4273 0.2583
vn -0.8664 0.4273 -0.2583
vn -0.6349 0.3131 -0.7063
vn -0.2326 0.1147 -0.9658
vn 0.2326 -0.1147 -0.9658
vn 0.6349 -0.3131 -0.7063
vn 0.8664 -0.4273 -0.2583
vn 0.9148 -0.3105 0.2583
vn 0.6703 -0.2275 0.7063
vn 0.2456 -0.0834 0.9658
vn -0.2456 0.0834 0.9658
vn -0.6703 0.2275 0.7063
vn -0.9148 0.3105 0.2583
vn -0.9148 0.3105 -0.2583
vn -0.6703 0.2275 -0.7063
vn -0.2456 0.0834 -0.9658
vn 0.2456 -0.0834 -0.9658
vn 0.6703 -0.2275 -0.7063
vn 0.9148 -0.3105 -0.2583
vn 0.9475 -0.1885 0.2583
vn 0.6943 -0.1381 0.7063
vn 0.2544 -0.0506 0.9658
vn -0.2544 0.0506 0.9658
vn -0.6943 0.1381 0.7063
vn -0.9475 0.1885 0.2583
vn -0.9475 0.1885 -0.2583
vn -0.6943 0.1381 -0.7063
vn -0.2544 0.0506 -0.9658
vn 0.2544 -0.0506 -0.9658
vn 0.6943 -0.1381 -0.7063
vn 0.9475 -0.1885 -0.2583
vn 0.9640 -0.0632 0.2583
vn 0.7063 -0.0463 0.7063
vn 0.2588 -0.0170 0.9658
vn -0.2588 0.0170 0.9658
vn -0.7063 0.0463 0.7063
vn -0.9640 0.0632 0.2583
vn -0.9640 0.0632 -0.2583
vn -0.7063 0.0463 -0.7063
vn -0.2588 0.0170 -0.9658
vn 0.2588 -0.0170 -0.9658
vn 0.7063 -0.0463 -0.7063
vn 0.9640 -0.0632 -0.2583
vn -0.0463 0.7063 0.7063
vn -0.0463 0.7063 -0.7063
vt 0.500000 0.500000
vt 0.520833 0.500000
vt 0.520833 0.583333
vt 0.500000 0.583333
vt 0.520833 0.666667
vt 0.500000 0.666667
vt 0.520833 0.750000
vt 0.500000 0.750000
vt 0.520833 0.833333
vt 0.500000 0.833333
vt 0.520833 0.916667
vt 0.500000 0.916667
vt 0.520833 1.000000
vt 0.500000 1.000000
vt 0.500000 0.000000
vt 0.520833 0.000000
vt 0.520833 0.083333
vt 0.500000 0.083333
vt 0.520833 0.166667
vt 0.500000 0.166667
vt 0.520833 0.250000
vt 0.500000 0.250000
vt 0.520833 0.333333
vt 0.500000 0.333333
vt 0.520833 0.416667
vt 0.500000 0.416667
vt 0.541667 0.500000
vt 0.541667 0.583333
vt 0.541667 0.666667
vt 0.541667 0.750000
vt 0.541667 0.833333
vt 0.541667 0.916667
vt 0.541667 1.000000
vt 0.541667 0.000000
vt 0.541667 0.083333
vt 0.541667 0.166667
vt 0.541667 0.250000
vt 0.541667 0.333333
vt 0.541667 0.416667
vt 0.562500 0.500000
vt 0.562500 0.583333
vt 0.562500 0.666667
vt 0.562500 0.750000
vt 0.562500 0.833333
vt 0.562500 0.916667
vt 0.562500 1.000000
vt 0.562500 0.000000
vt 0.562500 0.083333
vt 0.562500 0.166667
vt 0.562500 0.250000
vt 0.562500 0.333333
vt 0.562500 0.416667
vt 0.583333 0.500000
vt 0.583333 0.583333
vt 0.583333 0.666667
vt 0.583333 0.750000
vt 0.583333 0.833333
vt 0.583333 0.916667
vt 0.583333 1.000000
vt 0.583333 0.000000
vt 0.583333 0.083333
vt 0.583333 0.166667
vt 0.583333 0.250000
vt 0.583333 0.333333
vt 0.583333 0.416667
vt 0.604167 0.500000
vt 0.604167 0.583333
vt 0.604167 0.666667
vt 0.604167 0.750000
vt 0.604167 0.833333
vt 0.604167 0.916667
vt 0.604167 1.000000
vt 0.604167 0.000000
vt 0.604167 0.083333
vt 0.604167 0.166667
vt 0.604167 0.250000
vt 0.604167 0.333333
vt 0.604167 0.416667
vt 0.625000 0.500000
vt 0.625000 0.583333
vt 0.625000 0.666667
vt 0.625000 0.750000
vt 0.625000 0.833333
vt 0.625000 0.916667
vt 0.625000 1.000000
vt 0.625000 0.000000
vt 0.625000 0.083333
vt 0.625000 0.166667
vt 0.625000 0.250000
vt 0.625000 0.333333
vt 0.625000 0.416667
vt 0.645833 0.500000
vt 0.645833 0.583333
vt 0.645833 0.666667
vt 0.645833 0.750000
vt 0.645833 0.833333
vt 0.645833 0.916667
vt 0.645833 1.000000
vt 0.645833 0.000000
vt 0.645833 0.083333
vt 0.645833 0.166667
vt 0.645833 0.250000
vt 0.645833 0.333333
vt 0.645833 0.416667
vt 0.666667 0.500000
vt 0.666667 0.583333
vt 0.666667 0.666667
vt 0.666667 0.750000
vt 0.666667 0.833333
vt 0.666667 0.916667
vt 0.666667 1.000000
vt 0.666667 0.000000
vt 0.666667 0.083333
vt 0.666667 0.166667
vt 0.666667 0.250000
vt 0.666667 0.333333
vt 0.666667 0.416667
vt 0.687500 0.500000
vt 0.687500 0.583333
vt 0.687500 0.666667
vt 0.687500 0.750000
vt 0.687500 0.833333
vt 0.687500 0.916667
vt 0.687500 1.000000
vt 0.687500 0.000000
vt 0.687500 0.083333
vt 0.687500 0.166667
vt 0.687500 0.250000
vt 0.687500 0.333333
vt 0.687500 0.416667
vt 0.708333 0.500000
vt 0.708333 0.583333
vt 0.708333 0.666667
vt 0.708333 0.750000
vt 0.708333 0.833333
vt 0.708333 0.916667
vt 0.708333 1.000000
vt 0.708333 0.000000
vt 0.708333 0.083333
vt 0.708333 0.166667
vt 0.708333 0.250000
vt 0.708333 0.333333
vt 0.708333 0.416667
vt 0.729167 0.500000
vt 0.729167 0.583333
vt 0.729167 0.666667
vt 0.729167 0.750000
vt 0.729167 0.833333
vt 0.729167 0.916667
vt 0.729167 1.000000
vt 0.729167 0.000000
vt 0.729167 0.083333
vt 0.729167 0.166667
vt 0.729167 0.250000
vt 0.729167 0.333333
vt 0.729167 0.416667
vt 0.750000 0.500000
vt 0.750000 0.583333
vt 0.750000 0.666667
vt 0.750000 0.750000
vt 0.750000 0.833333
vt 0.750000 0.916667
vt 0.750000 1.000000
vt 0.750000 0.000000
vt 0.750000 0.083333
vt 0.750000 0.166667
vt 0.750000 0.250000
vt 0.750000 0.333333
vt 0.750000 0.416667
vt 0.770833 0.500000
vt 0.770833 0.583333
vt 0.770833 0.666667
vt 0.770833 0.750000
vt 0.770833 0.833333
vt 0.770833 0.916667
vt 0.770833 1.000000
vt 0.770833 0.000000
vt 0.770833 0.083333
vt 0.770833 0.166667
vt 0.770833 0.250000
vt 0.770833 0.333333
vt 0.770833 0.416667
vt 0.791667 0.500000
vt 0.791667 0.583333
vt 0.791667 0.666667
vt 0.791667 0.750000
vt 0.791667 0.833333
vt 0.791667 0.916667
vt 0.791667 1.000000
vt 0.791667 0.000000
vt 0.791667 0.083333
vt 0.791667 0.166667
vt 0.791667 0.250000
vt 0.791667 0.333333
vt 0.791667 0.416667
vt 0.812500 0.500000
vt 0.812500 0.583333
vt 0.812500 0.666667
vt 0.812500 0.750000
vt 0.812500 0.833333
vt 0.812500 0.916667
vt 0.812500 1.000000
vt 0.812500 0.000000
vt 0.812500 0.083333
vt 0.812500 0.166667
vt 0.812500 0.250000
vt 0.812500 0.333333
vt 0.812500 0.416667
vt 0.833333 0.500000
vt 0.833333 0.583333
vt 0.833333 0.666667
vt 0.833333 0.750000
vt 0.833333 0.833333
vt 0.833333 0.916667
vt 0.833333 1.000000
vt 0.833333 0.000000
vt 0.833333 0.083333
vt 0.833333 0.166667
vt 0.833333 0.250000
vt 0.833333 0.333333
vt 0.833333 0.416667
vt 0.854167 0.500000
vt 0.854167 0.583333
vt 0.854167 0.666667
vt 0.854167 0.750000
vt 0.854167 0.833333
vt 0.854167 0.916667
vt 0.854167 1.000000
vt 0.854167 0.000000
vt 0.854167 0.083333
vt 0.854167 0.166667
vt 0.854167 0.250000
vt 0.854167 0.333333
vt 0.854167 0.416667
vt 0.875000 0.500000
vt 0.875000 0.583333
vt 0.875000 0.666667
vt 0.875000 0.750000
vt 0.875000 0.833333
vt 0.875000 0.916667
vt 0.875000 1.000000
vt 0.875000 0.000000
vt 0.875000 0.083333
vt 0.875000 0.166667
vt 0.875000 0.250000
vt 0.875000 0.333333
vt 0.875000 0.416667
vt 0.895833 0.500000
vt 0.895833 0.583333
vt 0.895833 0.666667
vt 0.895833 0.750000
vt 0.895833 0.833333
vt 0.895833 0.916667
vt 0.895833 1.000000
vt 0.895833 0.000000
vt 0.895833 0.083333
vt 0.895833 0.166667
vt 0.895833 0.250000
vt 0.895833 0.333333
vt 0.895833 0.416667
vt 0.916667 0.500000
vt 0.916667 0.583333
vt 0.916667 0.666667
vt 0.916667 0.750000
vt 0.916667 0.833333
vt 0.916667 0.916667
vt 0.916667 1.000000
vt 0.916667 0.000000
vt 0.916667 0.083333
vt 0.916667 0.166667
vt 0.916667 0.250000
vt 0.916667 0.333333
vt 0.916667 0.416667
vt 0.937500 0.500000
vt 0.937500 0.583333
vt 0.937500 0.666667
vt 0.937500 0.750000
vt 0.937500 0.833333
vt 0.937500 0.916667
vt 0.937500 1.000000
vt 0.937500 0.000000
vt 0.937500 0.083333
vt 0.937500 0.166667
vt 0.937500 0.250000
vt 0.937500 0.333333
vt 0.937500 0.416667
vt 0.958333 0.500000
vt 0.958333 0.583333
vt 0.958333 0.666667
vt 0.958333 0.750000
vt 0.958333 0.833333
vt 0.958333 0.916667
vt 0.958333 1.000000
vt 0.958333 0.000000
vt 0.958333 0.083333
vt 0.958333 0.166667
vt 0.958333 0.250000
vt 0.958333 0.333333
vt 0.958333 0.416667
vt 0.979167 0.500000
vt 0.979167 0.583333
vt 0.979167 0.666667
vt 0.979167 0.750000
vt 0.979167 0.833333
vt 0.979167 0.916667
vt 0.979167 1.000000
vt 0.979167 0.000000
vt 0.979167 0.083333
vt 0.979167 0.166667
vt 0.979167 0.250000
vt 0.979167 0.333333
vt 0.979167 0.416667
vt 1.000000 0.500000
vt 1.000000 0.583333
vt 1.000000 0.666667
vt 1.000000 0.750000
vt 1.000000 0.833333
vt 1.000000 0.916667
vt 1.000000 1.000000
vt 1.000000 0.000000
vt 1.000000 0.083333
vt 1.000000 0.166667
vt 1.000000 0.250000
vt 1.000000 0.333333
vt 1.000000 0.416667
vt 0.000000 0.500000
vt 0.020833 0.500000
vt 0.020833 0.583333
vt 0.000000 0.583333
vt 0.020833 0.666667
vt 0.000000 0.666667
vt 0.020833 0.750000
vt 0.000000 0.750000
vt 0.020833 0.833333
vt 0.000000 0.833333
vt 0.020833 0.916667
vt 0.000000 0.916667
vt 0.020833 1.000000
vt 0.000000 1.000000
vt 0.000000 0.000000
vt 0.020833 0.000000
vt 0.020833 0.083333
vt 0.000000 0.083333
vt 0.020833 0.166667
vt 0.000000 0.166667
vt 0.020833 0.250000
vt 0.000000 0.250000
vt 0.020833 0.333333
vt 0.000000 0.333333
vt 0.020833 0.416667
vt 0.000000 0.416667
vt 0.041667 0.500000
vt 0.041667 0.583333
vt 0.041667 0.666667
vt 0.041667 0.750000
vt 0.041667 0.833333
vt 0.041667 0.916667
vt 0.041667 1.000000
vt 0.041667 0.000000
vt 0.041667 0.083333
vt 0.041667 0.166667
vt 0.041667 0.250000
vt 0.041667 0.333333
vt 0.041667 0.416667
vt 0.062500 0.500000
vt 0.062500 0.583333
vt 0.062500 0.666667
vt 0.062500 0.750000
vt 0.062500 0.833333
vt 0.062500 0.916667
vt 0.062500 1.000000
vt 0.062500 0.000000
vt 0.062500 0.083333
vt 0.062500 0.166667
vt 0.062500 0.250000
vt 0.062500 0.333333
vt 0.062500 0.416667
vt 0.083333 0.500000
vt 0.083333 0.583333
vt 0.083333 0.666667
vt 0.083333 0.750000
vt 0.083333 0.833333
vt 0.083333 0.916667
vt 0.083333 1.000000
vt 0.083333 0.000000
vt 0.083333 0.083333
vt 0.083333 0.166667
vt 0.083333 0.250000
vt 0.083333 0.333333
vt 0.083333 0.416667
vt 0.104167 0.500000
vt 0.104167 0.583333
vt 0.104167 0.666667
vt 0.104167 0.750000
vt 0.104167 0.833333
vt 0.104167 0.916667
vt 0.104167 1.000000
vt 0.104167 0.000000
vt 0.104167 0.083333
vt 0.104167 0.166667
vt 0.104167 0.250000
vt 0.104167 0.333333
vt 0.104167 0.416667
vt 0.125000 0.500000
vt 0.125000 0.583333
vt 0.125000 0.666667
vt 0.125000 0.750000
vt 0.125000 0.833333
vt 0.125000 0.916667
vt 0.125000 1.000000
vt 0.125000 0.000000
vt 0.125000 0.083333
vt 0.125000 0.166667
vt 0.125000 0.250000
vt 0.125000 0.333333
vt 0.125000 0.416667
vt 0.145833 0.500000
vt 0.145833 0.583333
vt 0.145833 0.666667
vt 0.145833 0.750000
vt 0.145833 0.833333
vt 0.145833 0.916667
vt 0.145833 1.000000
vt 0.145833 0.000000
vt 0.145833 0.083333
vt 0.145833 0.166667
vt 0.145833 0.250000
vt 0.145833 0.333333
vt 0.145833 0.416667
vt 0.166667 0.500000
vt 0.166667 0.583333
vt 0.166667 0.666667
vt 0.166667 0.750000
vt 0.166667 0.833333
vt 0.166667 0.916667
vt 0.166667 1.000000
vt 0.166667 0.000000
vt 0.166667 0.083333
vt 0.166667 0.166667
vt 0.166667 0.250000
vt 0.166667 0.333333
vt 0.166667 0.416667
vt 0.187500 0.500000
vt 0.187500 0.583333
vt 0.187500 0.666667
vt 0.187500 0.750000
vt 0.187500 0.833333
vt 0.187500 0.916667
vt 0.187500 1.000000
vt 0.187500 0.000000
vt 0.187500 0.083333
vt 0.187500 0.166667
vt 0.187500 0.250000
vt 0.187500 0.333333
vt 0.187500 0.416667
vt 0.208333 0.500000
vt 0.208333 0.583333
vt 0.208333 0.666667
vt 0.208333 0.750000
vt 0.208333 0.833333
vt 0.208333 0.916667
vt 0.208333 1.000000
vt 0.208333 0.000000
vt 0.208333 0.083333
vt 0.208333 0.166667
vt 0.208333 0.250000
vt 0.208333 0.333333
vt 0.208333 0.416667
vt 0.229167 0.500000
vt 0.229167 0.583333
vt 0.229167 0.666667
vt 0.229167 0.750000
vt 0.229167 0.833333
vt 0.229167 0.916667
vt 0.229167 1.000000
vt 0.229167 0.000000
vt 0.229167 0.083333
vt 0.229167 0.166667
vt 0.229167 0.250000
vt 0.229167 0.333333
vt 0.229167 0.416667
vt 0.250000 0.500000
vt 0.250000 0.583333
vt 0.250000 0.666667
vt 0.250000 0.750000
vt 0.250000 0.833333
vt 0.250000 0.916667
vt 0.250000 1.000000
vt 0.250000 0.000000
vt 0.250000 0.083333
vt 0.250000 0.166667
vt 0.250000 0.250000
vt 0.250000 0.333333
vt 0.250000 0.416667
vt 0.270833 0.500000
vt 0.270833 0.583333
vt 0.270833 0.666667
vt 0.270833 0.750000
vt 0.270833 0.833333
vt 0.270833 0.916667
vt 0.270833 1.000000
vt 0.270833 0.000000
vt 0.270833 0.083333
vt 0.270833 0.166667
vt 0.270833 0.250000
vt 0.270833 0.333333
vt 0.270833 0.416667
vt 0.291667 0.500000
vt 0.291667 0.583333
vt 0.291667 0.666667
vt 0.291667 0.750000
vt 0.291667 0.833333
vt 0.291667 0.916667
vt 0.291667 1.000000
vt 0.291667 0.000000
vt 0.291667 0.083333
vt 0.291667 0.166667
vt 0.291667 0.250000
vt 0.291667 0.333333
vt 0.291667 0.416667
vt 0.312500 0.500000
vt 0.312500 0.583333
vt 0.312500 0.666667
vt 0.312500 0.750000
vt 0.312500 0.833333
vt 0.312500 0.916667
vt 0.312500 1.000000
vt 0.312500 0.000000
vt 0.312500 0.083333
vt 0.312500 0.166667
vt 0.312500 0.250000
vt 0.312500 0.333333
vt 0.312500 0.416667
vt 0.333333 0.500000
vt 0.333333 0.583333
vt 0.333333 0.666667
vt 0.333333 0.750000
vt 0.333333 0.833333
vt 0.333333 0.916667
vt 0.333333 1.000000
vt 0.333333 0.000000
vt 0.333333 0.083333
vt 0.333333 0.166667
vt 0.333333 0.250000
vt 0.333333 0.333333
vt 0.333333 0.416667
vt 0.354167 0.500000
vt 0.354167 0.583333
vt 0.354167 0.666667
vt 0.354167 0.750000
vt 0.354167 0.833333
vt 0.354167 0.916667
vt 0.354167 1.000000
vt 0.354167 0.000000
vt 0.354167 0.083333
vt 0.354167 0.166667
vt 0.354167 0.250000
vt 0.354167 0.333333
vt 0.354167 0.416667
vt 0.375000 0.500000
vt 0.375000 0.583333
vt 0.375000 0.666667
vt 0.375000 0.750000
vt 0.375000 0.833333
vt 0.375000 0.916667
vt 0.375000 1.000000
vt 0.375000 0.000000
vt 0.375000 0.083333
vt 0.375000 0.166667
vt 0.375000 0.250000
vt 0.375000 0.333333
vt 0.375000 0.416667
vt 0.395833 0.500000
vt 0.395833 0.583333
vt 0.395833 0.666667
vt 0.395833 0.750000
vt 0.395833 0.833333
vt 0.395833 0.916667
vt 0.395833 1.000000
vt 0.395833 0.000000
vt 0.395833 0.083333
vt 0.395833 0.166667
vt 0.395833 0.250000
vt 0.395833 0.333333
vt 0.395833 0.416667
vt 0.416667 0.500000
vt 0.416667 0.583333
vt 0.416667 0.666667
vt 0.416667 0.750000
vt 0.416667 0.833333
vt 0.416667 0.916667
vt 0.416667 1.000000
vt 0.416667 0.000000
vt 0.416667 0.083333
vt 0.416667 0.166667
vt 0.416667 0.250000
vt 0.416667 0.333333
vt 0.416667 0.416667
vt 0.437500 0.500000
vt 0.437500 0.583333
vt 0.437500 0.666667
vt 0.437500 0.750000
vt 0.437500 0.833333
vt 0.437500 0.916667
vt 0.437500 1.000000
vt 0.437500 0.000000
vt 0.437500 0.083333
vt 0.437500 0.166667
vt 0.437500 0.250000
vt 0.437500 0.333333
vt 0.437500 0.416667
vt 0.458333 0.500000
vt 0.458333 0.583333
vt 0.458333 0.666667
vt 0.458333 0.750000
vt 0.458333 0.833333
vt 0.458333 0.916667
vt 0.458333 1.000000
vt 0.458333 0.000000
vt 0.458333 0.083333
vt 0.458333 0.166667
vt 0.458333 0.250000
vt 0.458333 0.333333
vt 0.458333 0.416667
vt 0.479167 0.500000
vt 0.479167 0.583333
vt 0.479167 0.666667
vt 0.479167 0.750000
vt 0.479167 0.833333
vt 0.479167 0.916667
vt 0.479167 1.000000
vt 0.479167 0.000000
vt 0.479167 0.083333
vt 0.479167 0.166667
vt 0.479167 0.250000
vt 0.479167 0.333333
vt 0.479167 0.416667
s 0
f 33/67/19 45/68/19 46/69/19 34/70/19
f 34/70/20 46/69/20 47/71/20 35/72/20
f 35/72/21 47/71/21 48/73/21 36/74/21
f 36/74/22 48/73/22 49/75/22 37/76/22
f 37/76/23 49/75/23 50/77/23 38/78/23
f 38/78/24 50/77/24 51/79/24 39/80/24
f 39/81/25 51/82/25 52/83/25 40/84/25
f 40/84/26 52/83/26 53/85/26 41/86/26
f 41/86/27 53/85/27 54/87/27 42/88/27
f 42/88/28 54/87/28 55/89/28 43/90/28
f 43/90/29 55/89/29 56/91/29 44/92/29
f 44/92/30 56/91/30 45/68/30 33/67/30
f 45/68/31 57/93/31 58/94/31 46/69/31
f 46/69/32 58/94/32 59/95/32 47/71/32
f 47/71/33 59/95/33 60/96/33 48/73/33
f 48/73/34 60/96/34 61/97/34 49/75/34
f 49/75/35 61/97/35 62/98/35 50/77/35
f 50/77/36 62/98/36 63/99/36 51/79/36
f 51/82/37 63/100/37 64/101/37 52/83/37
f 52/83/38 64/101/38 65/102/38 53/85/38
f 53/85/39 65/102/39 66/103/39 54/87/39
f 54/87/40 66/103/40 67/104/40 55/89/40
f 55/89/41 67/104/41 68/105/41 56/91/41
f 56/91/42 68/105/42 57/93/42 45/68/42
f 57/93/43 69/106/43 70/107/43 58/94/43
f 58/94/44 70/107/44 71/108/44 59/95/44
f 59/95/45 71/108/45 72/109/45 60/96/45
f 60/96/46 72/109/46 73/110/46 61/97/46
f 61/97/47 73/110/47 74/111/47 62/98/47
f 62/98/48 74/111/48 75/112/48 63/99/48
f 63/100/49 75/113/49 76/114/49 64/101/49
f 64/101/50 76/114/50 77/115/50 65/102/50
f 65/102/51 77/115/51 78/116/51 66/103/51
f 66/103/52 78/116/52 79/117/52 67/104/52
f 67/104/53 79/117/53 80/118/53 68/105/53
f 68/105/54 80/118/54 69/106/54 57/93/54
f 69/106/55 81/119/55 82/120/55 70/107/55
f 70/107/56 82/120/56 83/121/56 71/108/56
f 71/108/57 83/121/57 84/122/57 72/109/57
f 72/109/58 84/122/58 85/123/58 73/110/58
f 73/110/59 85/123/59 86/124/59 74/111/59
f 74/111/60 86/124/60 87/125/60 75/112/60
f 75/113/61 87/126/61 88/127/61 76/114/61
f 76/114/62 88/127/62 89/128/62 77/115/62
f 77/115/63 89/128/63 90/129/63 78/116/63
f 78/116/64 90/129/64 91/130/64 79/117/64
f 79/117/65 91/130/65 92/131/65 80/118/65
f 80/118/66 92/131/66 81/119/66 69/106/66
f 81/119/67 93/132/67 94/133/67 82/120/67
f 82/120/68 94/133/68 95/134/68 83/121/68
f 83/121/69 95/134/69 96/135/69 84/122/69
f 84/122/70 96/135/70 97/136/70 85/123/70
f 85/123/71 97/136/71 98/137/71 86/124/71
f 86/124/72 98/137/72 99/138/72 87/125/72
f 87/126/73 99/139/73 100/140/73 88/127/73
f 88/127/74 100/140/74 101/141/74 89/128/74
f 89/128/75 101/141/75 102/142/75 90/129/75
f 90/129/76 102/142/76 103/143/76 91/130/76
f 91/130/77 103/143/77 104/144/77 92/131/77
f 92/131/78 104/144/78 93/132/78 81/119/78
f 93/132/79 105/145/79 106/146/79 94/133/79
f 94/133/80 106/146/80 107/147/80 95/134/80
f 95/134/81 107/147/81 108/148/81 96/135/81
f 96/135/82 108/148/82 109/149/82 97/136/82
f 97/136/83 109/149/83 110/150/83 98/137/83
f 98/137/84 110/150/84 111/151/84 99/138/84
f 99/139/85 111/152/85 112/153/85 100/140/85
f 100/140/86 112/153/86 113/154/86 101/141/86
f 101/141/87 113/154/87 114/155/87 102/142/87
f 102/142/88 114/155/88 115/156/88 103/143/88
f 103/143/89 115/156/89 116/157/89 104/144/89
f 104/144/90 116/157/90 105/145/90 93/132/90
f 105/145/91 117/158/91 118/159/91 106/146/91
f 106/146/92 118/159/92 119/160/92 107/147/92
f 107/147/93 119/160/93 120/161/93 108/148/93
f 108/148/94 120/161/94 121/162/94 109/149/94
f 109/149/95 121/162/95 122/163/95 110/150/95
f 110/150/96 122/163/96 123/164/96 111/151/96
f 111/152/97 123/165/97 124/166/97 112/153/97
f 112/153/98 124/166/98 125/167/98 113/154/98
f 113/154/99 125/167/99 126/168/99 114/155/99
f 114/155/100 126/168/100 127/169/100 115/156/100
f 115/156/101 127/169/101 128/170/101 116/157/101
f 116/157/102 128/170/102 117/158/102 105/145/102
f 117/158/103 129/171/103 130/172/103 118/159/103
f 118/159/104 130/172/104 131/173/104 119/160/104
f 119/160/105 131/173/105 132/174/105 120/161/105
f 120/161/106 132/174/106 133/175/106 121/162/106
f 121/162/107 133/175/107 134/176/107 122/163/107
f 122/163/108 134/176/108 135/177/108 123/164/108
f 123/165/109 135/178/109 136/179/109 124/166/109
f 124/166/110 136/179/110 137/180/110 125/167/110
f 125/167/111 137/180/111 138/181/111 126/168/111
f 126/168/112 138/181/112 139/182/112 127/169/112
f 127/169/113 139/182/113 140/183/113 128/170/113
f 128/170/114 140/183/114 129/171/114 117/158/114
f 129/171/115 141/184/115 142/185/115 130/172/115
f 130/172/116 142/185/116 143/186/116 131/173/116
f 131/173/117 143/186/117 144/187/117 132/174/117
f 132/174/118 144/187/118 145/188/118 133/175/118
f 133/175/119 145/188/119 146/189/119 134/176/119
f 134/176/120 146/189/120 147/190/120 135/177/120
f 135/178/121 147/191/121 148/192/121 136/179/121
f 136/179/122 148/192/122 149/193/122 137/180/122
f 137/180/123 149/193/123 150/194/123 138/181/123
f 138/181/124 150/194/124 151/195/124 139/182/124
f 139/182/125 151/195/125 152/196/125 140/183/125
f 140/183/126 152/196/126 141/184/126 129/171/126
f 141/184/127 153/197/127 154/198/127 142/185/127
f 142/185/128 154/198/128 155/199/128 143/186/128
f 143/186/129 155/199/129 156/200/129 144/187/129
f 144/187/130 156/200/130 157/201/130 145/188/130
f 145/188/131 157/201/131 158/202/131 146/189/131
f 146/189/132 158/202/132 159/203/132 147/190/132
f 147/191/133 159/204/133 160/205/133 148/192/133
f 148/192/134 160/205/134 161/206/134 149/193/134
f 149/193/135 161/206/135 162/207/135 150/194/135
f 150/194/136 162/207/136 163/208/136 151/195/136
f 151/195/137 163/208/137 164/209/137 152/196/137
f 152/196/138 164/209/138 153/197/138 141/184/138
f 153/197/139 165/210/139 166/211/139 154/198/139
f 154/198/140 166/211/140 167/212/140 155/199/140
f 155/199/141 167/212/141 168/213/141 156/200/141
f 156/200/142 168/213/142 169/214/142 157/201/142
f 157/201/143 169/214/143 170/215/143 158/202/143
f 158/202/144 170/215/144 171/216/144 159/203/144
f 159/204/145 171/217/145 172/218/145 160/205/145
f 160/205/146 172/218/146 173/219/146 161/206/146
f 161/206/147 173/219/147 174/220/147 162/207/147
f 162/207/148 174/220/148 175/221/148 163/208/148
f 163/208/149 175/221/149 176/222/149 164/209/149
f 164/209/150 176/222/150 165/210/150 153/197/150
f 165/210/151 177/223/151 178/224/151 166/211/151
f 166/211/152 178/224/152 179/225/152 167/212/152
f 167/212/153 179/225/153 180/226/153 168/213/153
f 168/213/154 180/226/154 181/227/154 169/214/154
f 169/214/155 181/227/155 182/228/155 170/215/155
f 170/215/156 182/228/156 183/229/156 171/216/156
f 171/217/157 183/230/157 184/231/157 172/218/157
f 172/218/158 184/231/158 185/232/158 173/219/158
f 173/219/159 185/232/159 186/233/159 174/220/159
f 174/220/160 186/233/160 187/234/160 175/221/160
f 175/221/161 187/234/161 188/235/161 176/222/161
f 176/222/162 188/235/162 177/223/162 165/210/162
f 177/223/163 189/236/163 190/237/163 178/224/163
f 178/224/164 190/237/164 191/238/164 179/225/164
f 179/225/165 191/238/165 192/239/165 180/226/165
f 180/226/166 192/239/166 193/240/166 181/227/166
f 181/227/167 193/240/167 194/241/167 182/228/167
f 182/228/168 194/241/168 195/242/168 183/229/168
f 183/230/169 195/243/169 196/244/169 184/231/169
f 184/231/170 196/244/170 197/245/170 185/232/170
f 185/232/171 197/245/171 198/246/171 186/233/171
f 186/233/172 198/246/172 199/247/172 187/234/172
f 187/234/173 199/247/173 200/248/173 188/235/173
f 188/235/174 200/248/174 189/236/174 177/223/174
f 189/236/175 201/249/175 202/250/175 190/237/175
f 190/237/176 202/250/176 203/251/176 191/238/176
f 191/238/177 203/251/177 204/252/177 192/239/177
f 192/239/178 204/252/178 205/253/178 193/240/178
f 193/240/179 205/253/179 206/254/179 194/241/179
f 194/241/180 206/254/180 207/255/180 195/242/180
f 195/243/181 207/256/181 208/257/181 196/244/181
f 196/244/182 208/257/182 209/258/182 197/245/182
f 197/245/183 209/258/183 210/259/183 198/246/183
f 198/246/184 210/259/184 211/260/184 199/247/184
f 199/247/185 211/260/185 212/261/185 200/248/185
f 200/248/186 212/261/186 201/249/186 189/236/186
f 201/249/187 213/262/187 214/263/187 202/250/187
f 202/250/188 214/263/188 215/264/188 203/251/188
f 203/251/189 215/264/189 216/265/189 204/252/189
f 204/252/190 216/265/190 217/266/190 205/253/190
f 205/253/191 217/266/191 218/267/191 206/254/191
f 206/254/192 218/267/192 219/268/192 207/255/192
f 207/256/193 219/269/193 220/270/193 208/257/193
f 208/257/194 220/270/194 221/271/194 209/258/194
f 209/258/195 221/271/195 222/272/195 210/259/195
f 210/259/196 222/272/196 223/273/196 211/260/196
f 211/260/197 223/273/197 224/274/197 212/261/197
f 212/261/198 224/274/198 213/262/198 201/249/198
f 213/262/199 225/275/199 226/276/199 214/263/199
f 214/263/200 226/276/200 227/277/200 215/264/200
f 215/264/201 227/277/201 228/278/201 216/265/201
f 216/265/202 228/278/202 229/279/202 217/266/202
f 217/266/203 229/279/203 230/280/203 218/267/203
f 218/267/204 230/280/204 231/281/204 219/268/204
f 219/269/205 231/282/205 232/283/205 220/270/205
f 220/270/206 232/283/206 233/284/206 221/271/206
f 221/271/207 233/284/207 234/285/207 222/272/207
f 222/272/208 234/285/208 235/286/208 223/273/208
f 223/273/209 235/286/209 236/287/209 224/274/209
f 224/274/210 236/287/210 225/275/210 213/262/210
f 225/275/211 237/288/211 238/289/211 226/276/211
f 226/276/212 238/289/212 239/290/212 227/277/212
f 227/277/213 239/290/213 240/291/213 228/278/213
f 228/278/214 240/291/214 241/292/214 229/279/214
f 229/279/215 241/292/215 242/293/215 230/280/215
f 230/280/216 242/293/216 243/294/216 231/281/216
f 231/282/217 243/295/217 244/296/217 232/283/217
f 232/283/218 244/296/218 245/297/218 233/284/218
f 233/284/219 245/297/219 246/298/219 234/285/219
f 234/285/220 246/298/220 247/299/220 235/286/220
f 235/286/221 247/299/221 248/300/221 236/287/221
f 236/287/222 248/300/222 237/288/222 225/275/222
f 237/288/223 249/301/223 250/302/223 238/289/223
f 238/289/224 250/302/224 251/303/224 239/290/224
f 239/290/225 251/303/225 252/304/225 240/291/225
f 240/291/226 252/304/226 253/305/226 241/292/226
f 241/292/227 253/305/227 254/306/227 242/293/227
f 242/293/228 254/306/228 255/307/228 243/294/228
f 243/295/229 255/308/229 256/309/229 244/296/229
f 244/296/230 256/309/230 257/310/230 245/297/230
f 245/297/231 257/310/231 258/311/231 246/298/231
f 246/298/232 258/311/232 259/312/232 247/299/232
f 247/299/233 259/312/233 260/313/233 248/300/233
f 248/300/234 260/313/234 249/301/234 237/288/234
f 249/301/235 261/314/235 262/315/235 250/302/235
f 250/302/236 262/315/236 263/316/236 251/303/236
f 251/303/237 263/316/237 264/317/237 252/304/237
f 252/304/238 264/317/238 265/318/238 253/305/238
f 253/305/239 265/318/239 266/319/239 254/306/239
f 254/306/240 266/319/240 267/320/240 255/307/240
f 255/308/241 267/321/241 268/322/241 256/309/241
f 256/309/242 268/322/242 269/323/242 257/310/242
f 257/310/243 269/323/243 270/324/243 258/311/243
f 258/311/244 270/324/244 271/325/244 259/312/244
f 259/312/245 271/325/245 272/326/245 260/313/245
f 260/313/246 272/326/246 261/314/246 249/301/246
f 261/314/247 273/327/247 274/328/247 262/315/247
f 262/315/248 274/328/248 275/329/248 263/316/248
f 263/316/249 275/329/249 276/330/249 264/317/249
f 264/317/250 276/330/250 277/331/250 265/318/250
f 265/318/251 277/331/251 278/332/251 266/319/251
f 266/319/252 278/332/252 279/333/252 267/320/252
f 267/321/253 279/334/253 280/335/253 268/322/253
f 268/322/254 280/335/254 281/336/254 269/323/254
f 269/323/255 281/336/255 282/337/255 270/324/255
f 270/324/256 282/337/256 283/338/256 271/325/256
f 271/325/257 283/338/257 284/339/257 272/326/257
f 272/326/258 284/339/258 273/327/258 261/314/258
f 273/327/259 285/340/259 286/341/259 274/328/259
f 274/328/260 286/341/260 287/342/260 275/329/260
f 275/329/261 287/342/261 288/343/261 276/330/261
f 276/330/262 288/343/262 289/344/262 277/331/262
f 277/331/263 289/344/263 290/345/263 278/332/263
f 278/332/264 290/345/264 291/346/264 279/333/264
f 279/334/265 291/347/265 292/348/265 280/335/265
f 280/335/266 292/348/266 293/349/266 281/336/266
f 281/336/267 293/349/267 294/350/267 282/337/267
f 282/337/268 294/350/268 295/351/268 283/338/268
f 283/338/269 295/351/269 296/352/269 284/339/269
f 284/339/270 296/352/270 285/340/270 273/327/270
f 285/340/271 297/353/271 298/354/271 286/341/271
f 286/341/272 298/354/272 299/355/272 287/342/272
f 287/342/273 299/355/273 300/356/273 288/343/273
f 288/343/274 300/356/274 301/357/274 289/344/274
f 289/344/275 301/357/275 302/358/275 290/345/275
f 290/345/276 302/358/276 303/359/276 291/346/276
f 291/347/277 303/360/277 304/361/277 292/348/277
f 292/348/278 304/361/278 305/362/278 293/349/278
f 293/349/279 305/362/279 306/363/279 294/350/279
f 294/350/280 306/363/280 307/364/280 295/351/280
f 295/351/281 307/364/281 308/365/281 296/352/281
f 296/352/282 308/365/282 297/353/282 285/340/282
f 297/353/283 309/366/283 310/367/283 298/354/283
f 298/354/284 310/367/284 311/368/284 299/355/284
f 299/355/285 311/368/285 312/369/285 300/356/285
f 300/356/286 312/369/286 313/370/286 301/357/286
f 301/357/287 313/370/287 314/371/287 302/358/287
f 302/358/288 314/371/288 315/372/288 303/359/288
f 303/360/289 315/373/289 316/374/289 304/361/289
f 304/361/290 316/374/290 317/375/290 305/362/290
f 305/362/291 317/375/291 318/376/291 306/363/291
f 306/363/292 318/376/292 319/377/292 307/364/292
f 307/364/293 319/377/293 320/378/293 308/365/293
f 308/365/294 320/378/294 309/366/294 297/353/294
f 309/366/295 321/379/295 322/380/295 310/367/295
f 310/367/296 322/380/296 323/381/296 311/368/296
f 311/368/297 323/381/297 324/382/297 312/369/297
f 312/369/298 324/382/298 325/383/298 313/370/298
f 313/370/299 325/383/299 326/384/299 314/371/299
f 314/371/300 326/384/300 327/385/300 315/372/300
f 315/373/301 327/386/301 328/387/301 316/374/301
f 316/374/302 328/387/302 329/388/302 317/375/302
f 317/375/303 329/388/303 330/389/303 318/376/303
f 318/376/304 330/389/304 331/390/304 319/377/304
f 319/377/305 331/390/305 332/391/305 320/378/305
f 320/378/306 332/391/306 321/379/306 309/366/306
f 321/392/24 333/393/24 334/394/24 322/395/24
f 322/395/23 334/394/23 335/396/23 323/397/23
f 323/397/22 335/396/22 336/398/22 324/399/22
f 324/399/21 336/398/21 337/400/21 325/401/21
f 325/401/20 337/400/20 338/402/20 326/403/20
f 326/403/19 338/402/19 339/404/19 327/405/19
f 327/406/30 339/407/30 340/408/30 328/409/30
f 328/409/29 340/408/29 341/410/29 329/411/29
f 329/411/28 341/410/28 342/412/28 330/413/28
f 330/413/27 342/412/27 343/414/27 331/415/27
f 331/415/26 343/414/26 344/416/26 332/417/26
f 332/417/25 344/416/25 333/393/25 321/392/25
f 333/393/36 345/418/36 346/419/36 334/394/36
f 334/394/35 346/419/35 347/420/35 335/396/35
f 335/396/34 347/420/34 348/421/34 336/398/34
f 336/398/33 348/421/33 349/422/33 337/400/33
f 337/400/32 349/422/32 350/423/32 338/402/32
f 338/402/31 350/423/31 351/424/31 339/404/31
f 339/407/42 351/425/42 352/426/42 340/408/42
f 340/408/41 352/426/41 353/427/41 341/410/41
f 341/410/40 353/427/40 354/428/40 342/412/40
f 342/412/39 354/428/39 355/429/39 343/414/39
f 343/414/38 355/429/38 356/430/38 344/416/38
f 344/416/37 356/430/37 345/418/37 333/393/37
f 345/418/48 357/431/48 358/432/48 346/419/48
f 346/419/47 358/432/47 359/433/47 347/420/47
f 347/420/46 359/433/46 360/434/46 348/421/46
f 348/421/45 360/434/45 361/435/45 349/422/45
f 349/422/44 361/435/44 362/436/44 350/423/44
f 350/423/43 362/436/43 363/437/43 351/424/43
f 351/425/54 363/438/54 364/439/54 352/426/54
f 352/426/53 364/439/53 365/440/53 353/427/53
f 353/427/52 365/440/52 366/441/52 354/428/52
f 354/428/51 366/441/51 367/442/51 355/429/51
f 355/429/50 367/442/50 368/443/50 356/430/50
f 356/430/49 368/443/49 357/431/49 345/418/49
f 357/431/60 369/444/60 370/445/60 358/432/60
f 358/432/59 370/445/59 371/446/59 359/433/59
f 359/433/58 371/446/58 372/447/58 360/434/58
f 360/434/57 372/447/57 373/448/57 361/435/57
f 361/435/56 373/448/56 374/449/56 362/436/56
f 362/436/55 374/449/55 375/450/55 363/437/55
f 363/438/66 375/451/66 376/452/66 364/439/66
f 364/439/65 376/452/65 377/453/65 365/440/65
f 365/440/64 377/453/64 378/454/64 366/441/64
f 366/441/63 378/454/63 379/455/63 367/442/63
f 367/442/62 379/455/62 380/456/62 368/443/62
f 368/443/61 380/456/61 369/444/61 357/431/61
f 369/444/72 381/457/72 382/458/72 370/445/72
f 370/445/71 382/458/71 383/459/71 371/446/71
f 371/446/70 383/459/70 384/460/70 372/447/70
f 372/447/69 384/460/69 385/461/69 373/448/69
f 373/448/68 385/461/68 386/462/68 374/449/68
f 374/449/67 386/462/67 387/463/67 375/450/67
f 375/451/78 387/464/78 388/465/78 376/452/78
f 376/452/77 388/465/77 389/466/77 377/453/77
f 377/453/76 389/466/76 390/467/76 378/454/76
f 378/454/75 390/467/75 391/468/75 379/455/75
f 379/455/74 391/468/74 392/469/74 380/456/74
f 380/456/73 392/469/73 381/457/73 369/444/73
f 381/457/84 393/470/84 394/471/84 382/458/84
f 382/458/83 394/471/83 395/472/83 383/459/83
f 383/459/82 395/472/82 396/473/82 384/460/82
f 384/460/81 396/473/81 397/474/81 385/461/81
f 385/461/80 397/474/80 398/475/80 386/462/80
f 386/462/79 398/475/79 399/476/79 387/463/79
f 387/464/90 399/477/90 400/478/90 388/465/90
f 388/465/89 400/478/89 401/479/89 389/466/89
f 389/466/88 401/479/88 402/480/88 390/467/88
f 390/467/87 402/480/87 403/481/87 391/468/87
f 391/468/86 403/481/86 404/482/86 392/469/86
f 392/469/85 404/482/85 393/470/85 381/457/85
f 393/470/96 405/483/96 406/484/96 394/471/96
f 394/471/95 406/484/95 407/485/95 395/472/95
f 395/472/94 407/485/94 408/486/94 396/473/94
f 396/473/93 408/486/93 409/487/93 397/474/93
f 397/474/92 409/487/92 410/488/92 398/475/92
f 398/475/91 410/488/91 411/489/91 399/476/91
f 399/477/102 411/490/102 412/491/102 400/478/102
f 400/478/101 412/491/101 413/492/101 401/479/101
f 401/479/100 413/492/100 414/493/100 402/480/100
f 402/480/99 414/493/99 415/494/99 403/481/99
f 403/481/98 415/494/98 416/495/98 404/482/98
f 404/482/97 416/495/97 405/483/97 393/470/97
f 405/483/108 417/496/108 418/497/108 406/484/108
f 406/484/107 418/497/107 419/498/107 407/485/107
f 407/485/106 419/498/106 420/499/106 408/486/106
f 408/486/105 420/499/105 421/500/105 409/487/105
f 409/487/104 421/500/104 422/501/104 410/488/104
f 410/488/103 422/501/103 423/502/103 411/489/103
f 411/490/114 423/503/114 424/504/114 412/491/114
f 412/491/113 424/504/113 425/505/113 413/492/113
f 413/492/112 425/505/112 426/506/112 414/493/112
f 414/493/111 426/506/111 427/507/111 415/494/111
f 415/494/110 427/507/110 428/508/110 416/495/110
f 416/495/109 428/508/109 417/496/109 405/483/109
f 417/496/120 429/509/120 430/510/120 418/497/120
f 418/497/119 430/510/119 431/511/119 419/498/119
f 419/498/118 431/511/118 432/512/118 420/499/118
f 420/499/117 432/512/117 433/513/117 421/500/117
f 421/500/116 433/513/116 434/514/116 422/501/116
f 422/501/115 434/514/115 435/515/115 423/502/115
f 423/503/126 435/516/126 436/517/126 424/504/126
f 424/504/125 436/517/125 437/518/125 425/505/125
f 425/505/124 437/518/124 438/519/124 426/506/124
f 426/506/123 438/519/123 439/520/123 427/507/123
f 427/507/122 439/520/122 440/521/122 428/508/122
f 428/508/121 440/521/121 429/509/121 417/496/121
f 429/509/132 441/522/132 442/523/132 430/510/132
f 430/510/131 442/523/131 443/524/131 431/511/131
f 431/511/130 443/524/130 444/525/130 432/512/130
f 432/512/129 444/525/129 445/526/129 433/513/129
f 433/513/128 445/526/128 446/527/128 434/514/128
f 434/514/127 446/527/127 447/528/127 435/515/127
f 435/516/138 447/529/138 448/530/138 436/517/138
f 436/517/137 448/530/137 449/531/137 437/518/137
f 437/518/136 449/531/136 450/532/136 438/519/136
f 438/519/135 450/532/135 451/533/135 439/520/135
f 439/520/134 451/533/134 452/534/134 440/521/134
f 440/521/133 452/534/133 441/522/133 429/509/133
f 441/522/144 453/535/144 454/536/144 442/523/144
f 442/523/143 454/536/143 455/537/143 443/524/143
f 443/524/142 455/537/142 456/538/142 444/525/142
f 444/525/141 456/538/141 457/539/141 445/526/141
f 445/526/140 457/539/140 458/540/140 446/527/140
f 446/527/139 458/540/139 459/541/139 447/528/139
f 447/529/150 459/542/150 460/543/150 448/530/150
f 448/530/149 460/543/149 461/544/149 449/531/149
f 449/531/148 461/544/148 462/545/148 450/532/148
f 450/532/147 462/545/147 463/546/147 451/533/147
f 451/533/146 463/546/146 464/547/146 452/534/146
f 452/534/145 464/547/145 453/535/145 441/522/145
f 453/535/156 465/548/156 466/549/156 454/536/156
f 454/536/155 466/549/155 467/550/155 455/537/155
f 455/537/154 467/550/154 468/551/154 456/538/154
f 456/538/153 468/551/153 469/552/153 457/539/153
f 457/539/152 469/552/152 470/553/152 458/540/152
f 458/540/151 470/553/151 471/554/151 459/541/151
f 459/542/162 471/555/162 472/556/162 460/543/162
f 460/543/161 472/556/161 473/557/161 461/544/161
f 461/544/160 473/557/160 474/558/160 462/545/160
f 462/545/159 474/558/159 475/559/159 463/546/159
f 463/546/158 475/559/158 476/560/158 464/547/158
f 464/547/157 476/560/157 465/548/157 453/535/157
f 465/548/168 477/561/168 478/562/168 466/549/168
f 466/549/307 478/562/307 479/563/307 467/550/307
f 467/550/166 479/563/166 480/564/166 468/551/166
f 468/551/165 480/564/165 481/565/165 469/552/165
f 469/552/164 481/565/164 482/566/164 470/553/164
f 470/553/163 482/566/163 483/567/163 471/554/163
f 471/555/174 483/568/174 484/569/174 472/556/174
f 472/556/173 484/569/173 485/570/173 473/557/173
f 473/557/172 485/570/172 486/571/172 474/558/172
f 474/558/171 486/571/171 487/572/171 475/559/171
f 475/559/308 487/572/308 488/573/308 476/560/308
f 476/560/169 488/573/169 477/561/169 465/548/169
f 477/561/180 489/574/180 490/575/180 478/562/180
f 478/562/179 490/575/179 491/576/179 479/563/179
f 479/563/178 491/576/178 492/577/178 480/564/178
f 480/564/177 492/577/177 493/578/177 481/565/177
f 481/565/176 493/578/176 494/579/176 482/566/176
f 482/566/175 494/579/175 495/580/175 483/567/175
f 483/568/186 495/581/186 496/582/186 484/569/186
f 484/569/185 496/582/185 497/583/185 485/570/185
f 485/570/184 497/583/184 498/584/184 486/571/184
f 486/571/183 498/584/183 499/585/183 487/572/183
f 487/572/182 499/585/182 500/586/182 488/573/182
f 488/573/181 500/586/181 489/574/181 477/561/181
f 489/574/192 501/587/192 502/588/192 490/575/192
f 490/575/191 502/588/191 503/589/191 491/576/191
f 491/576/190 503/589/190 504/590/190 492/577/190
f 492/577/189 504/590/189 505/591/189 493/578/189
f 493/578/188 505/591/188 506/592/188 494/579/188
f 494/579/187 506/592/187 507/593/187 495/580/187
f 495/581/198 507/594/198 508/595/198 496/582/198
f 496/582/197 508/595/197 509/596/197 497/583/197
f 497/583/196 509/596/196 510/597/196 498/584/196
f 498/584/195 510/597/195 511/598/195 499/585/195
f 499/585/194 511/598/194 512/599/194 500/586/194
f 500/586/193 512/599/193 501/587/193 489/574/193
f 501/587/204 513/600/204 514/601/204 502/588/204
f 502/588/203 514/601/203 515/602/203 503/589/203
f 503/589/202 515/602/202 516/603/202 504/590/202
f 504/590/201 516/603/201 517/604/201 505/591/201
f 505/591/200 517/604/200 518/605/200 506/592/200
f 506/592/199 518/605/199 519/606/199 507/593/199
f 507/594/210 519/607/210 520/608/210 508/595/210
f 508/595/209 520/608/209 521/609/209 509/596/209
f 509/596/208 521/609/208 522/610/208 510/597/208
f 510/597/207 522/610/207 523/611/207 511/598/207
f 511/598/206 523/611/206 524/612/206 512/599/206
f 512/599/205 524/612/205 513/600/205 501/587/205
f 513/600/216 525/613/216 526/614/216 514/601/216
f 514/601/215 526/614/215 527/615/215 515/602/215
f 515/602/214 527/615/214 528/616/214 516/603/214
f 516/603/213 528/616/213 529/617/213 517/604/213
f 517/604/212 529/617/212 530/618/212 518/605/212
f 518/605/211 530/618/211 531/619/211 519/606/211
f 519/607/222 531/620/222 532/621/222 520/608/222
f 520/608/221 532/621/221 533/622/221 521/609/221
f 521/609/220 533/622/220 534/623/220 522/610/220
f 522/610/219 534/623/219 535/624/219 523/611/219
f 523/611/218 535/624/218 536/625/218 524/612/218
f 524/612/217 536/625/217 525/613/217 513/600/217
f 525/613/228 537/626/228 538/627/228 526/614/228
f 526/614/227 538/627/227 539/628/227 527/615/227
f 527/615/226 539/628/226 540/629/226 528/616/226
f 528/616/225 540/629/225 541/630/225 529/617/225
f 529/617/224 541/630/224 542/631/224 530/618/224
f 530/618/223 542/631/223 543/632/223 531/619/223
f 531/620/234 543/633/234 544/634/234 532/621/234
f 532/621/233 544/634/233 545/635/233 533/622/233
f 533/622/232 545/635/232 546/636/232 534/623/232
f 534/623/231 546/636/231 547/637/231 535/624/231
f 535/624/230 547/637/230 548/638/230 536/625/230
f 536/625/229 548/638/229 537/626/229 525/613/229
f 537/626/240 549/639/240 550/640/240 538/627/240
f 538/627/239 550/640/239 551/641/239 539/628/239
f 539/628/238 551/641/238 552/642/238 540/629/238
f 540/629/237 552/642/237 553/643/237 541/630/237
f 541/630/236 553/643/236 554/644/236 542/631/236
f 542/631/235 554/644/235 555/645/235 543/632/235
f 543/633/246 555/646/246 556/647/246 544/634/246
f 544/634/245 556/647/245 557/648/245 545/635/245
f 545/635/244 557/648/244 558/649/244 546/636/244
f 546/636/243 558/649/243 559/650/243 547/637/243
f 547/637/242 559/650/242 560/651/242 548/638/242
f 548/638/241 560/651/241 549/639/241 537/626/241
f 549/639/252 561/652/252 562/653/252 550/640/252
f 550/640/251 562/653/251 563/654/251 551/641/251
f 551/641/250 563/654/250 564/655/250 552/642/250
f 552/642/249 564/655/249 565/656/249 553/643/249
f 553/643/248 565/656/248 566/657/248 554/644/248
f 554/644/247 566/657/247 567/658/247 555/645/247
f 555/646/258 567/659/258 568/660/258 556/647/258
f 556/647/257 568/660/257 569/661/257 557/648/257
f 557/648/256 569/661/256 570/662/256 558/649/256
f 558/649/255 570/662/255 571/663/255 559/650/255
f 559/650/254 571/663/254 572/664/254 560/651/254
f 560/651/253 572/664/253 561/652/253 549/639/253
f 561/652/264 573/665/264 574/666/264 562/653/264
f 562/653/263 574/666/263 575/667/263 563/654/263
f 563/654/262 575/667/262 576/668/262 564/655/262
f 564/655/261 576/668/261 577/669/261 565/656/261
f 565/656/260 577/669/260 578/670/260 566/657/260
f 566/657/259 578/670/259 579/671/259 567/658/259
f 567/659/270 579/672/270 580/673/270 568/660/270
f 568/660/269 580/673/269 581/674/269 569/661/269
f 569/661/268 581/674/268 582/675/268 570/662/268
f 570/662/267 582/675/267 583/676/267 571/663/267
f 571/663/266 583/676/266 584/677/266 572/664/266
f 572/664/265 584/677/265 573/665/265 561/652/265
f 573/665/276 585/678/276 586/679/276 574/666/276
f 574/666/275 586/679/275 587/680/275 575/667/275
f 575/667/274 587/680/274 588/681/274 576/668/274
f 576/668/273 588/681/273 589/682/273 577/669/273
f 577/669/272 589/682/272 590/683/272 578/670/272
f 578/670/271 590/683/271 591/684/271 579/671/271
f 579/672/282 591/685/282 592/686/282 580/673/282
f 580/673/281 592/686/281 593/687/281 581/674/281
f 581/674/280 593/687/280 594/688/280 582/675/280
f 582/675/279 594/688/279 595/689/279 583/676/279
f 583/676/278 595/689/278 596/690/278 584/677/278
f 584/677/277 596/690/277 585/678/277 573/665/277
f 585/678/288 597/691/288 598/692/288 586/679/288
f 586/679/287 598/692/287 599/693/287 587/680/287
f 587/680/286 599/693/286 600/694/286 588/681/286
f 588/681/285 600/694/285 601/695/285 589/682/285
f 589/682/284 601/695/284 602/696/284 590/683/284
f 590/683/283 602/696/283 603/697/283 591/684/283
f 591/685/294 603/698/294 604/699/294 592/686/294
f 592/686/293 604/699/293 605/700/293 593/687/293
f 593/687/292 605/700/292 606/701/292 594/688/292
f 594/688/291 606/701/291 607/702/291 595/689/291
f 595/689/290 607/702/290 608/703/290 596/690/290
f 596/690/289 608/703/289 597/691/289 585/678/289
f 597/691/300 33/67/300 34/70/300 598/692/300
f 598/692/299 34/70/299 35/72/299 599/693/299
f 599/693/298 35/72/298 36/74/298 600/694/298
f 600/694/297 36/74/297 37/76/297 601/695/297
f 601/695/296 37/76/296 38/78/296 602/696/296
f 602/696/295 38/78/295 39/80/295 603/697/295
f 603/698/306 39/81/306 40/84/306 604/699/306
f 604/699/305 40/84/305 41/86/305 605/700/305
f 605/700/304 41/86/304 42/88/304 606/701/304
f 606/701/303 42/88/303 43/90/303 607/702/303
f 607/702/302 43/90/302 44/92/302 608/703/302
f 608/703/301 44/92/301 33/67/301 597/691/301
o Sumur_T0
v -0.339411 -0.394411 0.900000
v -0.339411 -0.394411 2.400000
v -0.378302 -0.378302 0.900000
v -0.378302 -0.378302 2.400000
v -0.394411 -0.339411 0.900000
v -0.394411 -0.339411 2.400000
v -0.378302 -0.300520 0.900000
v -0.378302 -0.300520 2.400000
v -0.339411 -0.284411 0.900000
v -0.339411 -0.284411 2.400000
v -0.300520 -0.300520 0.900000
v -0.300520 -0.300520 2.400000
v -0.284411 -0.339411 0.900000
v -0.284411 -0.339411 2.400000
v -0.300520 -0.378302 0.900000
v -0.300520 -0.378302 2.400000
vn -0.3827 -0.9239 -0.0000
vn -0.9239 -0.3827 -0.0000
vn -0.9239 0.3827 -0.0000
vn -0.3827 0.9239 -0.0000
vn 0.3827 0.9239 -0.0000
vn 0.9239 0.3827 -0.0000
vn -0.0000 -0.0000 1.0000
vn 0.9239 -0.3827 -0.0000
vn 0.3827 -0.9239 -0.0000
vn -0.0000 -0.0000 -1.0000
vt 1.000000 0.500000
vt 1.000000 1.000000
vt 0.875000 1.000000
vt 0.875000 0.500000
vt 0.750000 1.000000
vt 0.750000 0.500000
vt 0.625000 1.000000
vt 0.625000 0.500000
vt 0.500000 1.000000
vt 0.500000 0.500000
vt 0.375000 1.000000
vt 0.375000 0.500000
vt 0.250000 1.000000
vt 0.250000 0.500000
vt 0.419706 0.419706
vt 0.250000 0.490000
vt 0.080294 0.419706
vt 0.010000 0.250000
vt 0.080294 0.080294
vt 0.250000 0.010000
vt 0.419706 0.080294
vt 0.490000 0.250000
vt 0.125000 1.000000
vt 0.125000 0.500000
vt 0.000000 1.000000
vt 0.000000 0.500000
vt 0.750000 0.490000
vt 0.919706 0.419706
vt 0.990000 0.250000
vt 0.919706 0.080294
vt 0.750000 0.010000
vt 0.580294 0.080294
vt 0.510000 0.250000
vt 0.580294 0.419706
s 0
f 609/704/309 610/705/309 612/706/309 611/707/309
f 611/707/310 612/706/310 614/708/310 613/709/310
f 613/709/311 614/708/311 616/710/311 615/711/311
f 615/711/312 616/710/312 618/712/312 617/713/312
f 617/713/313 618/712/313 620/714/313 619/715/313
f 619/715/314 620/714/314 622/716/314 621/717/314
f 612/718/315 610/719/315 624/720/315 622/721/315 620/722/315 618/723/315 616/724/315 614/725/315
f 621/717/316 622/716/316 624/726/316 623/727/316
f 623/727/317 624/726/317 610/728/317 609/729/317
f 609/730/318 611/731/318 613/732/318 615/733/318 617/734/318 619/735/318 621/736/318 623/737/318
o Sumur_T1
v 0.339411 -0.394411 0.900000
v 0.339411 -0.394411 2.400000
v 0.300520 -0.378302 0.900000
v 0.300520 -0.378302 2.400000
v 0.284411 -0.339411 0.900000
v 0.284411 -0.339411 2.400000
v 0.300520 -0.300520 0.900000
v 0.300520 -0.300520 2.400000
v 0.339411 -0.284411 0.900000
v 0.339411 -0.284411 2.400000
v 0.378302 -0.300520 0.900000
v 0.378302 -0.300520 2.400000
v 0.394411 -0.339411 0.900000
v 0.394411 -0.339411 2.400000
v 0.378302 -0.378302 0.900000
v 0.378302 -0.378302 2.400000
vn -0.3827 -0.9239 -0.0000
vn -0.9239 -0.3827 -0.0000
vn -0.9239 0.3827 -0.0000
vn -0.3827 0.9239 -0.0000
vn 0.3827 0.9239 -0.0000
vn 0.9239 0.3827 -0.0000
vn -0.0000 -0.0000 1.0000
vn 0.9239 -0.3827 -0.0000
vn 0.3827 -0.9239 -0.0000
vn -0.0000 -0.0000 -1.0000
vt 1.000000 0.500000
vt 1.000000 1.000000
vt 0.875000 1.000000
vt 0.875000 0.500000
vt 0.750000 1.000000
vt 0.750000 0.500000
vt 0.625000 1.000000
vt 0.625000 0.500000
vt 0.500000 1.000000
vt 0.500000 0.500000
vt 0.375000 1.000000
vt 0.375000 0.500000
vt 0.250000 1.000000
vt 0.250000 0.500000
vt 0.419706 0.419706
vt 0.250000 0.490000
vt 0.080294 0.419706
vt 0.010000 0.250000
vt 0.080294 0.080294
vt 0.250000 0.010000
vt 0.419706 0.080294
vt 0.490000 0.250000
vt 0.125000 1.000000
vt 0.125000 0.500000
vt 0.000000 1.000000
vt 0.000000 0.500000
vt 0.750000 0.490000
vt 0.919706 0.419706
vt 0.990000 0.250000
vt 0.919706 0.080294
vt 0.750000 0.010000
vt 0.580294 0.080294
vt 0.510000 0.250000
vt 0.580294 0.419706
s 0
f 625/738/319 626/739/319 628/740/319 627/741/319
f 627/741/320 628/740/320 630/742/320 629/743/320
f 629/743/321 630/742/321 632/744/321 631/745/321
f 631/745/322 632/744/322 634/746/322 633/747/322
f 633/747/323 634/746/323 636/748/323 635/749/323
f 635/749/324 636/748/324 638/750/324 637/751/324
f 628/752/325 626/753/325 640/754/325 638/755/325 636/756/325 634/757/325 632/758/325 630/759/325
f 637/751/326 638/750/326 640/760/326 639/761/326
f 639/761/327 640/760/327 626/762/327 625/763/327
f 625/764/328 627/765/328 629/766/328 631/767/328 633/768/328 635/769/328 637/770/328 639/771/328
o Sumur_T2
v 0.339411 0.284411 0.900000
v 0.339411 0.284411 2.400000
v 0.300520 0.300520 0.900000
v 0.300520 0.300520 2.400000
v 0.284411 0.339411 0.900000
v 0.284411 0.339411 2.400000
v 0.300520 0.378302 0.900000
v 0.300520 0.378302 2.400000
v 0.339411 0.394411 0.900000
v 0.339411 0.394411 2.400000
v 0.378302 0.378302 0.900000
v 0.378302 0.378302 2.400000
v 0.394411 0.339411 0.900000
v 0.394411 0.339411 2.400000
v 0.378302 0.300520 0.900000
v 0.378302 0.300520 2.400000
vn -0.3827 -0.9239 -0.0000
vn -0.9239 -0.3827 -0.0000
vn -0.9239 0.3827 -0.0000
vn -0.3827 0.9239 -0.0000
vn 0.3827 0.9239 -0.0000
vn 0.9239 0.3827 -0.0000
vn -0.0000 -0.0000 1.0000
vn 0.9239 -0.3827 -0.0000
vn 0.3827 -0.9239 -0.0000
vn -0.0000 -0.0000 -1.0000
vt 1.000000 0.500000
vt 1.000000 1.000000
vt 0.875000 1.000000
vt 0.875000 0.500000
vt 0.750000 1.000000
vt 0.750000 0.500000
vt 0.625000 1.000000
vt 0.625000 0.500000
vt 0.500000 1.000000
vt 0.500000 0.500000
vt 0.375000 1.000000
vt 0.375000 0.500000
vt 0.250000 1.000000
vt 0.250000 0.500000
vt 0.419706 0.419706
vt 0.250000 0.490000
vt 0.080294 0.419706
vt 0.010000 0.250000
vt 0.080294 0.080294
vt 0.250000 0.010000
vt 0.419706 0.080294
vt 0.490000 0.250000
vt 0.125000 1.000000
vt 0.125000 0.500000
vt 0.000000 1.000000
vt 0.000000 0.500000
vt 0.750000 0.490000
vt 0.919706 0.419706
vt 0.990000 0.250000
vt 0.919706 0.080294
vt 0.750000 0.010000
vt 0.580294 0.080294
vt 0.510000 0.250000
vt 0.580294 0.419706
s 0
f 641/772/329 642/773/329 644/774/329 643/775/329
f 643/775/330 644/774/330 646/776/330 645/777/330
f 645/777/331 646/776/331 648/778/331 647/779/331
f 647/779/332 648/778/332 650/780/332 649/781/332
f 649/781/333 650/780/333 652/782/333 651/783/333
f 651/783/334 652/782/334 654/784/334 653/785/334
f 644/786/335 642/787/335 656/788/335 654/789/335 652/790/335 650/791/335 648/792/335 646/793/335
f 653/785/336 654/784/336 656/794/336 655/795/336
f 655/795/337 656/794/337 642/796/337 641/797/337
f 641/798/338 643/799/338 645/800/338 647/801/338 649/802/338 651/803/338 653/804/338 655/805/338
o Sumur_T3
v -0.339411 0.284411 0.900000
v -0.339411 0.284411 2.400000
v -0.378302 0.300520 0.900000
v -0.378302 0.300520 2.400000
v -0.394411 0.339411 0.900000
v -0.394411 0.339411 2.400000
v -0.378302 0.378302 0.900000
v -0.378302 0.378302 2.400000
v -0.339411 0.394411 0.900000
v -0.339411 0.394411 2.400000
v -0.300520 0.378302 0.900000
v -0.300520 0.378302 2.400000
v -0.284411 0.339411 0.900000
v -0.284411 0.339411 2.400000
v -0.300520 0.300520 0.900000
v -0.300520 0.300520 2.400000
vn -0.3827 -0.9239 -0.0000
vn -0.9239 -0.3827 -0.0000
vn -0.9239 0.3827 -0.0000
vn -0.3827 0.9239 -0.0000
vn 0.3827 0.9239 -0.0000
vn 0.9239 0.3827 -0.0000
vn -0.0000 -0.0000 1.0000
vn 0.9239 -0.3827 -0.0000
vn 0.3827 -0.9239 -0.0000
vn -0.0000 -0.0000 -1.0000
vt 1.000000 0.500000
vt 1.000000 1.000000
vt 0.875000 1.000000
vt 0.875000 0.500000
vt 0.750000 1.000000
vt 0.750000 0.500000
vt 0.625000 1.000000
vt 0.625000 0.500000
vt 0.500000 1.000000
vt 0.500000 0.500000
vt 0.375000 1.000000
vt 0.375000 0.500000
vt 0.250000 1.000000
vt 0.250000 0.500000
vt 0.419706 0.419706
vt 0.250000 0.490000
vt 0.080294 0.419706
vt 0.010000 0.250000
vt 0.080294 0.080294
vt 0.250000 0.010000
vt 0.419706 0.080294
vt 0.490000 0.250000
vt 0.125000 1.000000
vt 0.125000 0.500000
vt 0.000000 1.000000
vt 0.000000 0.500000
vt 0.750000 0.490000
vt 0.919706 0.419706
vt 0.990000 0.250000
vt 0.919706 0.080294
vt 0.750000 0.010000
vt 0.580294 0.080294
vt 0.510000 0.250000
vt 0.580294 0.419706
s 0
f 657/806/339 658/807/339 660/808/339 659/809/339
f 659/809/340 660/808/340 662/810/340 661/811/340
f 661/811/341 662/810/341 664/812/341 663/813/341
f 663/813/342 664/812/342 666/814/342 665/815/342
f 665/815/343 666/814/343 668/816/343 667/817/343
f 667/817/344 668/816/344 670/818/344 669/819/344
f 660/820/345 658/821/345 672/822/345 670/823/345 668/824/345 666/825/345 664/826/345 662/827/345
f 669/819/346 670/818/346 672/828/346 671/829/346
f 671/829/347 672/828/347 658/830/347 657/831/347
f 657/832/348 659/833/348 661/834/348 663/835/348 665/836/348 667/837/348 669/838/348 671/839/348
o Sumur_Balok.001
v 0.550000 0.045000 2.405000
v 0.550000 0.045000 2.495000
v 0.550000 -0.045000 2.405000
v 0.550000 -0.045000 2.495000
v -0.550000 0.045000 2.405000
v -0.550000 0.045000 2.495000
v -0.550000 -0.045000 2.405000
v -0.550000 -0.045000 2.495000
vn 1.0000 -0.0000 -0.0000
vn -0.0000 -1.0000 -0.0000
vn -1.0000 -0.0000 -0.0000
vn -0.0000 1.0000 -0.0000
vn -0.0000 -0.0000 -1.0000
vn -0.0000 -0.0000 1.0000
vt 0.375000 0.000000
vt 0.625000 0.000000
vt 0.625000 0.250000
vt 0.375000 0.250000
vt 0.625000 0.500000
vt 0.375000 0.500000
vt 0.625000 0.750000
vt 0.375000 0.750000
vt 0.625000 1.000000
vt 0.375000 1.000000
vt 0.125000 0.500000
vt 0.125000 0.750000
vt 0.875000 0.500000
vt 0.875000 0.750000
s 0
f 673/840/349 674/841/349 676/842/349 675/843/349
f 675/843/350 676/842/350 680/844/350 679/845/350
f 679/845/351 680/844/351 678/846/351 677/847/351
f 677/847/352 678/846/352 674/848/352 673/849/352
f 675/850/353 679/845/353 677/847/353 673/851/353
f 680/844/354 676/852/354 674/853/354 678/846/354
o Sumur_R-1
v 0.570000 0.516387 2.975332
v 0.570000 0.481605 3.036080
v 0.570000 -0.481605 2.403920
v 0.570000 -0.516387 2.464668
v -0.010000 0.516387 2.975332
v -0.010000 0.481605 3.036080
v -0.010000 -0.481605 2.403920
v -0.010000 -0.516387 2.464668
vn 1.0000 -0.0000 -0.0000
vn -0.0000 -0.8678 -0.4969
vn -1.0000 -0.0000 -0.0000
vn -0.0000 0.8678 0.4969
vn -0.0000 0.4969 -0.8678
vn -0.0000 -0.4969 0.8678
vt 0.375000 0.000000
vt 0.625000 0.000000
vt 0.625000 0.250000
vt 0.375000 0.250000
vt 0.625000 0.500000
vt 0.375000 0.500000
vt 0.625000 0.750000
vt 0.375000 0.750000
vt 0.625000 1.000000
vt 0.375000 1.000000
vt 0.125000 0.500000
vt 0.125000 0.750000
vt 0.875000 0.500000
vt 0.875000 0.750000
s 0
f 681/854/355 682/855/355 684/856/355 683/857/355
f 683/857/356 684/856/356 688/858/356 687/859/356
f 687/859/357 688/858/357 686/860/357 685/861/357
f 685/861/358 686/860/358 682/862/358 681/863/358
f 683/864/359 687/859/359 685/861/359 681/865/359
f 688/858/360 684/866/360 682/867/360 686/860/360
o Sumur_R1
v 0.010000 0.481605 2.403920
v 0.010000 0.516387 2.464668
v 0.010000 -0.516387 2.975332
v 0.010000 -0.481605 3.036080
v -0.570000 0.481605 2.403920
v -0.570000 0.516387 2.464668
v -0.570000 -0.516387 2.975332
v -0.570000 -0.481605 3.036080
vn 1.0000 -0.0000 -0.0000
vn -0.0000 -0.8678 0.4969
vn -1.0000 -0.0000 -0.0000
vn -0.0000 0.8678 -0.4969
vn -0.0000 -0.4969 -0.8678
vn -0.0000 0.4969 0.8678
vt 0.375000 0.000000
vt 0.625000 0.000000
vt 0.625000 0.250000
vt 0.375000 0.250000
vt 0.625000 0.500000
vt 0.375000 0.500000
vt 0.625000 0.750000
vt 0.375000 0.750000
vt 0.625000 1.000000
vt 0.375000 1.000000
vt 0.125000 0.500000
vt 0.125000 0.750000
vt 0.875000 0.500000
vt 0.875000 0.750000
s 0
f 689/868/361 690/869/361 692/870/361 691/871/361
f 691/871/362 692/870/362 696/872/362 695/873/362
f 695/873/363 696/872/363 694/874/363 693/875/363
f 693/875/364 694/874/364 690/876/364 689/877/364
f 691/878/365 695/873/365 693/875/365 689/879/365
f 696/872/366 692/880/366 690/881/366 694/874/366
o Sumur_Timba.001
v 0.000000 -0.120000 1.690000
v 0.000000 -0.120000 1.910000
v -0.060000 -0.103923 1.690000
v -0.060000 -0.103923 1.910000
v -0.103923 -0.060000 1.690000
v -0.103923 -0.060000 1.910000
v -0.120000 0.000000 1.690000
v -0.120000 0.000000 1.910000
v -0.103923 0.060000 1.690000
v -0.103923 0.060000 1.910000
v -0.060000 0.103923 1.690000
v -0.060000 0.103923 1.910000
v 0.000000 0.120000 1.690000
v 0.000000 0.120000 1.910000
v 0.060000 0.103923 1.690000
v 0.060000 0.103923 1.910000
v 0.103923 0.060000 1.690000
v 0.103923 0.060000 1.910000
v 0.120000 0.000000 1.690000
v 0.120000 0.000000 1.910000
v 0.103923 -0.060000 1.690000
v 0.103923 -0.060000 1.910000
v 0.060000 -0.103923 1.690000
v 0.060000 -0.103923 1.910000
vn -0.2588 -0.9659 -0.0000
vn -0.7071 -0.7071 -0.0000
vn -0.9659 -0.2588 -0.0000
vn -0.9659 0.2588 -0.0000
vn -0.7071 0.7071 -0.0000
vn -0.2588 0.9659 -0.0000
vn 0.2588 0.9659 -0.0000
vn 0.7071 0.7071 -0.0000
vn 0.9659 0.2588 -0.0000
vn 0.9659 -0.2588 -0.0000
vn -0.0000 -0.0000 1.0000
vn 0.7071 -0.7071 -0.0000
vn 0.2588 -0.9659 -0.0000
vn -0.0000 -0.0000 -1.0000
vt 1.000000 0.500000
vt 1.000000 1.000000
vt 0.916667 1.000000
vt 0.916667 0.500000
vt 0.833333 1.000000
vt 0.833333 0.500000
vt 0.750000 1.000000
vt 0.750000 0.500000
vt 0.666667 1.000000
vt 0.666667 0.500000
vt 0.583333 1.000000
vt 0.583333 0.500000
vt 0.500000 1.000000
vt 0.500000 0.500000
vt 0.416667 1.000000
vt 0.416667 0.500000
vt 0.333333 1.000000
vt 0.333333 0.500000
vt 0.250000 1.000000
vt 0.250000 0.500000
vt 0.166667 1.000000
vt 0.166667 0.500000
vt 0.370000 0.457846
vt 0.250000 0.490000
vt 0.130000 0.457846
vt 0.042154 0.370000
vt 0.010000 0.250000
vt 0.042154 0.130000
vt 0.130000 0.042154
vt 0.250000 0.010000
vt 0.370000 0.042154
vt 0.457846 0.130000
vt 0.490000 0.250000
vt 0.457846 0.370000
vt 0.083333 1.000000
vt 0.083333 0.500000
vt 0.000000 1.000000
vt 0.000000 0.500000
vt 0.750000 0.490000
vt 0.870000 0.457846
vt 0.957846 0.370000
vt 0.990000 0.250000
vt 0.957846 0.130000
vt 0.870000 0.042154
vt 0.750000 0.010000
vt 0.630000 0.042154
vt 0.542154 0.130000
vt 0.510000 0.250000
vt 0.542154 0.370000
vt 0.630000 0.457846
s 0
f 697/882/367 698/883/367 700/884/367 699/885/367
f 699/885/368 700/884/368 702/886/368 701/887/368
f 701/887/369 702/886/369 704/888/369 703/889/369
f 703/889/370 704/888/370 706/890/370 705/891/370
f 705/891/371 706/890/371 708/892/371 707/893/371
f 707/893/372 708/892/372 710/894/372 709/895/372
f 709/895/373 710/894/373 712/896/373 711/897/373
f 711/897/374 712/896/374 714/898/374 713/899/374
f 713/899/375 714/898/375 716/900/375 715/901/375
f 715/901/376 716/900/376 718/902/376 717/903/376
f 700/904/377 698/905/377 720/906/377 718/907/377 716/908/377 714/909/377 712/910/377 710/911/377 708/912/377 706/913/377 704/914/377 702/915/377
f 717/903/378 718/902/378 720/916/378 719/917/378
f 719/917/379 720/916/379 698/918/379 697/919/379
f 697/920/380 699/921/380 701/922/380 703/923/380 705/924/380 707/925/380 709/926/380 711/927/380 713/928/380 715/929/380 717/930/380 719/931/380
