# Blender 5.1.1
# www.blender.org
mtllib warung.mtl
o Warung_0
v 1.100000 0.800000 0.000000
v 1.100000 0.800000 1.900000
v 1.100000 -0.800000 0.000000
v 1.100000 -0.800000 1.900000
v -1.100000 0.800000 0.000000
v -1.100000 0.800000 1.900000
v -1.100000 -0.800000 0.000000
v -1.100000 -0.800000 1.900000
vn 1.0000 -0.0000 -0.0000
vn -0.0000 -1.0000 -0.0000
vn -1.0000 -0.0000 -0.0000
vn -0.0000 1.0000 -0.0000
vn -0.0000 -0.0000 -1.0000
vn -0.0000 -0.0000 1.0000
vt 0.375000 0.000000
vt 0.625000 0.000000
vt 0.625000 0.250000
vt 0.375000 0.250000
vt 0.625000 0.500000
vt 0.375000 0.500000
vt 0.625000 0.750000
vt 0.375000 0.750000
vt 0.625000 1.000000
vt 0.375000 1.000000
vt 0.125000 0.500000
vt 0.125000 0.750000
vt 0.875000 0.500000
vt 0.875000 0.750000
s 0
f 1/1/1 2/2/1 4/3/1 3/4/1
f 3/4/2 4/3/2 8/5/2 7/6/2
f 7/6/3 8/5/3 6/7/3 5/8/3
f 5/8/4 6/7/4 2/9/4 1/10/4
f 3/11/5 7/6/5 5/8/5 1/12/5
f 8/5/6 4/13/6 2/14/6 6/7/6
o Warung_1
v 1.200000 1.861070 1.413765
v 1.200000 1.883089 1.480212
v 1.200000 0.816911 1.759788
v 1.200000 0.838930 1.826235
v -1.200000 1.861070 1.413765
v -1.200000 1.883089 1.480212
v -1.200000 0.816911 1.759788
v -1.200000 0.838930 1.826235
vn 1.0000 -0.0000 -0.0000
vn -0.0000 -0.9492 0.3146
vn -1.0000 -0.0000 -0.0000
vn -0.0000 0.9492 -0.3146
vn -0.0000 -0.3146 -0.9492
vn -0.0000 0.3146 0.9492
vt 0.375000 0.000000
vt 0.625000 0.000000
vt 0.625000 0.250000
vt 0.375000 0.250000
vt 0.625000 0.500000
vt 0.375000 0.500000
vt 0.625000 0.750000
vt 0.375000 0.750000
vt 0.625000 1.000000
vt 0.375000 1.000000
vt 0.125000 0.500000
vt 0.125000 0.750000
vt 0.875000 0.500000
vt 0.875000 0.750000
s 0
f 9/15/7 10/16/7 12/17/7 11/18/7
f 11/18/8 12/17/8 16/19/8 15/20/8
f 15/20/9 16/19/9 14/21/9 13/22/9
f 13/22/10 14/21/10 10/23/10 9/24/10
f 11/25/11 15/20/11 13/22/11 9/26/11
f 16/19/12 12/27/12 10/28/12 14/21/12
o Warung_2
v 0.900000 1.140000 -0.005000
v 0.900000 1.140000 1.045000
v 0.900000 0.760000 -0.005000
v 0.900000 0.760000 1.045000
v -0.900000 1.140000 -0.005000
v -0.900000 1.140000 1.045000
v -0.900000 0.760000 -0.005000
v -0.900000 0.760000 1.045000
vn 1.0000 -0.0000 -0.0000
vn -0.0000 -1.0000 -0.0000
vn -1.0000 -0.0000 -0.0000
vn -0.0000 1.0000 -0.0000
vn -0.0000 -0.0000 -1.0000
vn -0.0000 -0.0000 1.0000
vt 0.375000 0.000000
vt 0.625000 0.000000
vt 0.625000 0.250000
vt 0.375000 0.250000
vt 0.625000 0.500000
vt 0.375000 0.500000
vt 0.625000 0.750000
vt 0.375000 0.750000
vt 0.625000 1.000000
vt 0.375000 1.000000
vt 0.125000 0.500000
vt 0.125000 0.750000
vt 0.875000 0.500000
vt 0.875000 0.750000
s 0
f 17/29/13 18/30/13 20/31/13 19/32/13
f 19/32/14 20/31/14 24/33/14 23/34/14
f 23/34/15 24/33/15 22/35/15 21/36/15
f 21/36/16 22/35/16 18/37/16 17/38/16
f 19/39/17 23/34/17 21/36/17 17/40/17
f 24/33/18 20/41/18 18/42/18 22/35/18
o Warung_3
v 1.175000 0.875000 1.940000
v 1.175000 0.875000 2.020000
v 1.175000 -0.875000 1.940000
v 1.175000 -0.875000 2.020000
v -1.175000 0.875000 1.940000
v -1.175000 0.875000 2.020000
v -1.175000 -0.875000 1.940000
v -1.175000 -0.875000 2.020000
vn 1.0000 -0.0000 -0.0000
vn -0.0000 -1.0000 -0.0000
vn -1.0000 -0.0000 -0.0000
vn -0.0000 1.0000 -0.0000
vn -0.0000 -0.0000 -1.0000
vn -0.0000 -0.0000 1.0000
vt 0.375000 0.000000
vt 0.625000 0.000000
vt 0.625000 0.250000
vt 0.375000 0.250000
vt 0.625000 0.500000
vt 0.375000 0.500000
vt 0.625000 0.750000
vt 0.375000 0.750000
vt 0.625000 1.000000
vt 0.375000 1.000000
vt 0.125000 0.500000
vt 0.125000 0.750000
vt 0.875000 0.500000
vt 0.875000 0.750000
s 0
f 25/43/19 26/44/19 28/45/19 27/46/19
f 27/46/20 28/45/20 32/47/20 31/48/20
f 31/48/21 32/47/21 30/49/21 29/50/21
f 29/50/22 30/49/22 26/51/22 25/52/22
f 27/53/23 31/48/23 29/50/23 25/54/23
f 32/47/24 28/55/24 26/56/24 30/49/24
o Warung_OborTiang.002
v 0.900000 1.060000 0.000000
v 0.900000 1.060000 1.400000
v 0.871716 1.071716 0.000000
v 0.871716 1.071716 1.400000
v 0.860000 1.100000 0.000000
v 0.860000 1.100000 1.400000
v 0.871716 1.128284 0.000000
v 0.871716 1.128284 1.400000
v 0.900000 1.140000 0.000000
v 0.900000 1.140000 1.400000
v 0.928284 1.128284 0.000000
v 0.928284 1.128284 1.400000
v 0.940000 1.100000 0.000000
v 0.940000 1.100000 1.400000
v 0.928284 1.071716 0.000000
v 0.928284 1.071716 1.400000
vn -0.3827 -0.9239 -0.0000
vn -0.9239 -0.3827 -0.0000
vn -0.9239 0.3827 -0.0000
vn -0.3827 0.9239 -0.0000
vn 0.3827 0.9239 -0.0000
vn 0.9239 0.3827 -0.0000
vn -0.0000 -0.0000 1.0000
vn 0.9239 -0.3827 -0.0000
vn 0.3827 -0.9239 -0.0000
vn -0.0000 -0.0000 -1.0000
vt 1.000000 0.500000
vt 1.000000 1.000000
vt 0.875000 1.000000
vt 0.875000 0.500000
vt 0.750000 1.000000
vt 0.750000 0.500000
vt 0.625000 1.000000
vt 0.625000 0.500000
vt 0.500000 1.000000
vt 0.500000 0.500000
vt 0.375000 1.000000
vt 0.375000 0.500000
vt 0.250000 1.000000
vt 0.250000 0.500000
vt 0.419706 0.419706
vt 0.250000 0.490000
vt 0.080294 0.419706
vt 0.010000 0.250000
vt 0.080294 0.080294
vt 0.250000 0.010000
vt 0.419706 0.080294
vt 0.490000 0.250000
vt 0.125000 1.000000
vt 0.125000 0.500000
vt 0.000000 1.000000
vt 0.000000 0.500000
vt 0.750000 0.490000
vt 0.919706 0.419706
vt 0.990000 0.250000
vt 0.919706 0.080294
vt 0.750000 0.010000
vt 0.580294 0.080294
vt 0.510000 0.250000
vt 0.580294 0.419706
s 0
f 33/57/25 34/58/25 36/59/25 35/60/25
f 35/60/26 36/59/26 38/61/26 37/62/26
f 37/62/27 38/61/27 40/63/27 39/64/27
f 39/64/28 40/63/28 42/65/28 41/66/28
f 41/66/29 42/65/29 44/67/29 43/68/29
f 43/68/30 44/67/30 46/69/30 45/70/30
f 36/71/31 34/72/31 48/73/31 46/74/31 44/75/31 42/76/31 40/77/31 38/78/31
f 45/70/32 46/69/32 48/79/32 47/80/32
f 47/80/33 48/79/33 34/81/33 33/82/33
f 33/83/34 35/84/34 37/85/34 39/86/34 41/87/34 43/88/34 45/89/34 47/90/34
o Warung_OborLamp.001
v 0.900000 1.100000 1.430000
v 0.813167 1.163087 1.496334
v 0.933167 1.202078 1.496334
v 1.007331 1.100000 1.496334
v 0.933167 0.997922 1.496334
v 0.813167 1.036913 1.496334
v 0.866833 1.202078 1.603666
v 0.986833 1.163087 1.603666
v 0.986833 1.036913 1.603666
v 0.866833 0.997922 1.603666
v 0.792669 1.100000 1.603666
v 0.900000 1.100000 1.670000
v 0.919495 1.159999 1.447921
v 0.848961 1.137081 1.447922
v 0.868456 1.197081 1.486911
v 0.797922 1.100000 1.486912
v 0.848961 1.062919 1.447922
v 0.963088 1.100000 1.447922
v 0.982583 1.160000 1.486912
v 0.919495 1.040001 1.447921
v 0.982583 1.040000 1.486912
v 0.868456 1.002919 1.486911
v 0.785873 1.137082 1.550000
v 0.785873 1.062919 1.550000
v 0.900000 1.220000 1.550000
v 0.829466 1.197082 1.550000
v 1.014127 1.137082 1.550000
v 0.970534 1.197082 1.550000
v 0.970534 1.002918 1.550000
v 1.014127 1.062919 1.550000
v 0.829466 1.002918 1.550000
v 0.900000 0.980000 1.550000
v 0.817417 1.160000 1.613088
v 0.931544 1.197081 1.613088
v 1.002078 1.100000 1.613088
v 0.931544 1.002919 1.613088
v 0.817417 1.040000 1.613088
v 0.880505 1.159999 1.652079
v 0.836912 1.100000 1.652078
v 0.951039 1.137081 1.652078
v 0.951039 1.062919 1.652078
v 0.880505 1.040001 1.652079
vn -0.1024 0.3151 -0.9435
vn -0.7002 0.2680 -0.6617
vn 0.2680 0.1947 -0.9435
vn 0.2680 -0.1947 -0.9435
vn -0.1024 -0.3151 -0.9435
vn -0.9050 0.2680 -0.3304
vn -0.0247 0.9435 -0.3304
vn 0.8897 0.3151 -0.3304
vn 0.5746 -0.7488 -0.3304
vn -0.5346 -0.7779 -0.3304
vn -0.8026 0.5831 -0.1256
vn 0.3066 0.9435 -0.1256
vn 0.9921 -0.0000 -0.1256
vn 0.3066 -0.9435 -0.1256
vn -0.8026 -0.5831 -0.1256
vn -0.4089 0.6284 0.6617
vn 0.4713 0.5831 0.6617
vn 0.7002 -0.2680 0.6617
vn -0.0385 -0.7488 0.6617
vn -0.7240 -0.1947 0.6617
vn -0.2680 -0.1947 0.9435
vn -0.4911 -0.3568 0.7947
vn -0.4089 -0.6284 0.6617
vn 0.1024 -0.3151 0.9435
vn 0.1876 -0.5773 0.7947
vn 0.4713 -0.5831 0.6617
vn 0.3313 -0.0000 0.9435
vn 0.6071 -0.0000 0.7947
vn 0.7002 0.2680 0.6617
vn 0.1024 0.3151 0.9435
vn 0.1876 0.5773 0.7947
vn -0.0385 0.7488 0.6617
vn -0.2680 0.1947 0.9435
vn -0.4911 0.3568 0.7947
vn -0.7240 0.1947 0.6617
vn -0.8897 -0.3151 0.3304
vn -0.7947 -0.5773 0.1876
vn -0.5746 -0.7488 0.3304
vn 0.0247 -0.9435 0.3304
vn 0.3035 -0.9342 0.1876
vn 0.5346 -0.7779 0.3304
vn 0.9050 -0.2680 0.3304
vn 0.9822 -0.0000 0.1876
vn 0.9050 0.2680 0.3304
vn 0.5346 0.7779 0.3304
vn 0.3035 0.9342 0.1876
vn 0.0247 0.9435 0.3304
vn -0.5746 0.7488 0.3304
vn -0.7947 0.5773 0.1876
vn -0.8897 0.3151 0.3304
vn -0.3066 -0.9435 0.1256
vn -0.3035 -0.9342 -0.1876
vn -0.0247 -0.9435 -0.3304
vn 0.8026 -0.5831 0.1256
vn 0.7947 -0.5773 -0.1876
vn 0.8897 -0.3151 -0.3304
vn 0.8026 0.5831 0.1256
vn 0.7947 0.5773 -0.1876
vn 0.5746 0.7488 -0.3304
vn -0.3066 0.9435 0.1256
vn -0.3035 0.9342 -0.1876
vn -0.5346 0.7779 -0.3304
vn -0.9921 -0.0000 0.1256
vn -0.9822 -0.0000 -0.1876
vn -0.9050 -0.2680 -0.3304
vn -0.4713 -0.5831 -0.6617
vn -0.1876 -0.5773 -0.7947
vn 0.0385 -0.7488 -0.6617
vn 0.4089 -0.6284 -0.6617
vn 0.4911 -0.3568 -0.7947
vn 0.7240 -0.1947 -0.6617
vn 0.7240 0.1947 -0.6617
vn 0.4911 0.3568 -0.7947
vn 0.4089 0.6284 -0.6617
vn -0.7002 -0.2680 -0.6617
vn -0.6071 -0.0000 -0.7947
vn -0.3313 -0.0000 -0.9435
vn 0.0385 0.7488 -0.6617
vn -0.1876 0.5773 -0.7947
vn -0.4713 0.5831 -0.6617
vt 0.181819 0.000000
vt 0.227273 0.078731
vt 0.136365 0.078731
vt 0.272728 0.157461
vt 0.318182 0.078731
vt 0.363637 0.157461
vt 0.909091 0.000000
vt 0.954545 0.078731
vt 0.863636 0.078731
vt 0.727273 0.000000
vt 0.772727 0.078731
vt 0.681818 0.078731
vt 0.545455 0.000000
vt 0.590909 0.078731
vt 0.500000 0.078731
vt 0.318182 0.236191
vt 0.090910 0.157461
vt 0.181819 0.157461
vt 0.136365 0.236191
vt 0.818182 0.157461
vt 0.909091 0.157461
vt 0.863636 0.236191
vt 0.636364 0.157461
vt 0.727273 0.157461
vt 0.681818 0.236191
vt 0.454546 0.157461
vt 0.545455 0.157461
vt 0.500000 0.236191
vt 0.227273 0.236191
vt 0.045455 0.236191
vt 0.772727 0.236191
vt 0.590909 0.236191
vt 0.409092 0.236191
vt 0.181819 0.314921
vt 0.272728 0.314921
vt 0.227273 0.393651
vt 0.000000 0.314921
vt 0.090910 0.314921
vt 0.045455 0.393651
vt 0.727273 0.314921
vt 0.818182 0.314921
vt 0.772727 0.393651
vt 0.545455 0.314921
vt 0.636364 0.314921
vt 0.590909 0.393651
vt 0.363637 0.314921
vt 0.454546 0.314921
vt 0.409092 0.393651
vt 0.500000 0.393651
vt 0.454546 0.472382
vt 0.681818 0.393651
vt 0.636364 0.472382
vt 0.863636 0.393651
vt 0.818182 0.472382
vt 0.909091 0.314921
vt 0.136365 0.393651
vt 0.090910 0.472382
vt 0.318182 0.393651
vt 0.272728 0.472382
vt 0.954545 0.236191
vt 1.000000 0.157461
vt 0.409092 0.078731
vt 0.363637 0.000000
s 0
f 49/91/35 62/92/35 61/93/35
f 50/94/36 62/95/36 64/96/36
f 49/97/37 61/98/37 66/99/37
f 49/100/38 66/101/38 68/102/38
f 49/103/39 68/104/39 65/105/39
f 50/94/40 64/96/40 71/106/40
f 51/107/41 63/108/41 73/109/41
f 52/110/42 67/111/42 75/112/42
f 53/113/43 69/114/43 77/115/43
f 54/116/44 70/117/44 79/118/44
f 50/94/45 71/106/45 74/119/45
f 51/107/46 73/109/46 76/120/46
f 52/110/47 75/112/47 78/121/47
f 53/113/48 77/115/48 80/122/48
f 54/116/49 79/118/49 72/123/49
f 55/124/50 81/125/50 86/126/50
f 56/127/51 82/128/51 88/129/51
f 57/130/52 83/131/52 89/132/52
f 58/133/53 84/134/53 90/135/53
f 59/136/54 85/137/54 87/138/54
f 87/138/55 90/139/55 60/140/55
f 87/138/56 85/137/56 90/139/56
f 85/137/57 58/133/57 90/139/57
f 90/135/58 89/141/58 60/142/58
f 90/135/59 84/134/59 89/141/59
f 84/134/60 57/130/60 89/141/60
f 89/132/61 88/143/61 60/144/61
f 89/132/62 83/131/62 88/143/62
f 83/131/63 56/145/63 88/143/63
f 88/129/64 86/146/64 60/147/64
f 88/129/65 82/128/65 86/146/65
f 82/128/66 55/124/66 86/146/66
f 86/126/67 87/148/67 60/149/67
f 86/126/68 81/125/68 87/148/68
f 81/125/69 59/136/69 87/148/69
f 72/123/70 85/137/70 59/136/70
f 72/123/71 79/118/71 85/137/71
f 79/118/72 58/133/72 85/137/72
f 80/122/73 84/134/73 58/133/73
f 80/122/74 77/115/74 84/134/74
f 77/115/75 57/130/75 84/134/75
f 78/121/76 83/131/76 57/130/76
f 78/121/77 75/112/77 83/131/77
f 75/112/78 56/145/78 83/131/78
f 76/120/79 82/128/79 56/127/79
f 76/120/80 73/109/80 82/128/80
f 73/109/81 55/124/81 82/128/81
f 74/119/82 81/125/82 55/124/82
f 74/119/83 71/106/83 81/125/83
f 71/106/84 59/136/84 81/125/84
f 79/118/85 80/122/85 58/133/85
f 79/118/86 70/117/86 80/122/86
f 70/117/87 53/113/87 80/122/87
f 77/115/88 78/121/88 57/130/88
f 77/115/89 69/114/89 78/121/89
f 69/114/90 52/110/90 78/121/90
f 75/112/91 76/150/91 56/145/91
f 75/112/92 67/111/92 76/150/92
f 67/111/93 51/151/93 76/150/93
f 73/109/94 74/119/94 55/124/94
f 73/109/95 63/108/95 74/119/95
f 63/108/96 50/94/96 74/119/96
f 71/106/97 72/123/97 59/136/97
f 71/106/98 64/96/98 72/123/98
f 64/96/99 54/116/99 72/123/99
f 65/105/100 70/117/100 54/116/100
f 65/105/101 68/104/101 70/117/101
f 68/104/102 53/113/102 70/117/102
f 68/102/103 69/114/103 53/113/103
f 68/102/104 66/101/104 69/114/104
f 66/101/105 52/110/105 69/114/105
f 66/99/106 67/111/106 52/110/106
f 66/99/107 61/98/107 67/111/107
f 61/98/108 51/151/108 67/111/108
f 64/96/109 65/152/109 54/116/109
f 64/96/110 62/95/110 65/152/110
f 62/95/111 49/153/111 65/152/111
f 61/93/112 63/108/112 51/107/112
f 61/93/113 62/92/113 63/108/113
f 62/92/114 50/94/114 63/108/114
