# Blender 5.1.1
# www.blender.org
mtllib baret.mtl
o baret
v 1.000000 0.000000 0.000000
v 0.984808 0.000000 -0.173648
v 0.939693 0.000000 -0.342020
v 0.866025 0.000000 -0.500000
v 0.766044 0.000000 -0.642788
v 0.642788 0.000000 -0.766044
v 0.500000 0.000000 -0.866025
v 0.342020 0.000000 -0.939693
v 0.173648 0.000000 -0.984808
v 0.000000 0.000000 -1.000000
v -0.173648 0.000000 -0.984808
v -0.342020 0.000000 -0.939693
v -0.500000 0.000000 -0.866025
v -0.642788 0.000000 -0.766044
v -0.766044 0.000000 -0.642788
v -0.866025 0.000000 -0.500000
v -0.939693 0.000000 -0.342020
v -0.984808 0.000000 -0.173648
v -1.000000 0.000000 -0.000000
v -0.984808 0.000000 0.173648
v -0.939693 0.000000 0.342020
v -0.866025 0.000000 0.500000
v -0.766044 0.000000 0.642788
v -0.642788 0.000000 0.766044
v -0.500000 0.000000 0.866025
v -0.342020 0.000000 0.939693
v -0.173648 0.000000 0.984808
v -0.000000 0.000000 1.000000
v 0.173648 0.000000 0.984808
v 0.342020 0.000000 0.939693
v 0.500000 0.000000 0.866025
v 0.642788 0.000000 0.766044
v 0.766044 0.000000 0.642788
v 0.866025 0.000000 0.500000
v 0.939693 0.000000 0.342020
v 0.984808 0.000000 0.173648
v 1.135000 0.060000 0.000000
v 1.117985 0.060000 -0.194486
v 1.067456 0.060000 -0.383063
v 0.984948 0.060000 -0.560000
v 0.872970 0.060000 -0.719922
v 0.734922 0.060000 -0.857970
v 0.575000 0.060000 -0.969948
v 0.398063 0.060000 -1.052456
v 0.209486 0.060000 -1.102985
v 0.015000 0.060000 -1.120000
v -0.179486 0.060000 -1.102985
v -0.368063 0.060000 -1.052456
v -0.545000 0.060000 -0.969948
v -0.704922 0.060000 -0.857970
v -0.842970 0.060000 -0.719922
v -0.954948 0.060000 -0.560000
v -1.037456 0.060000 -0.383063
v -1.087985 0.060000 -0.194486
v -1.105000 0.060000 -0.000000
v -1.087985 0.060000 0.194486
v -1.037456 0.060000 0.383063
v -0.954948 0.060000 0.560000
v -0.842970 0.060000 0.719922
v -0.704922 0.060000 0.857970
v -0.545000 0.060000 0.969948
v -0.368063 0.060000 1.052456
v -0.179486 0.060000 1.102985
v 0.015000 0.060000 1.120000
v 0.209486 0.060000 1.102985
v 0.398063 0.060000 1.052456
v 0.575000 0.060000 0.969948
v 0.734922 0.060000 0.857970
v 0.872970 0.060000 0.719922
v 0.984948 0.060000 0.560000
v 1.067456 0.060000 0.383063
v 1.117985 0.060000 0.194486
v 1.340000 0.160000 0.000000
v 1.320250 0.160000 -0.225743
v 1.261600 0.160000 -0.444626
v 1.165833 0.160000 -0.650000
v 1.035858 0.160000 -0.835624
v 0.875624 0.160000 -0.995858
v 0.690000 0.160000 -1.125833
v 0.484626 0.160000 -1.221600
v 0.265743 0.160000 -1.280250
v 0.040000 0.160000 -1.300000
v -0.185743 0.160000 -1.280250
v -0.404626 0.160000 -1.221600
v -0.610000 0.160000 -1.125833
v -0.795624 0.160000 -0.995858
v -0.955858 0.160000 -0.835624
v -1.085833 0.160000 -0.650000
v -1.181600 0.160000 -0.444626
v -1.240250 0.160000 -0.225743
v -1.260000 0.160000 -0.000000
v -1.240250 0.160000 0.225743
v -1.181600 0.160000 0.444626
v -1.085833 0.160000 0.650000
v -0.955858 0.160000 0.835624
v -0.795624 0.160000 0.995858
v -0.610000 0.160000 1.125833
v -0.404626 0.160000 1.221600
v -0.185743 0.160000 1.280250
v 0.040000 0.160000 1.300000
v 0.265743 0.160000 1.280250
v 0.484626 0.160000 1.221600
v 0.690000 0.160000 1.125833
v 0.875624 0.160000 0.995858
v 1.035858 0.160000 0.835624
v 1.165833 0.160000 0.650000
v 1.261600 0.160000 0.444626
v 1.320250 0.160000 0.225743
v 1.345000 0.260000 0.000000
v 1.325554 0.260000 -0.222270
v 1.267807 0.260000 -0.437786
v 1.173512 0.260000 -0.640000
v 1.045537 0.260000 -0.822768
v 0.887768 0.260000 -0.980537
v 0.705000 0.260000 -1.108513
v 0.502786 0.260000 -1.202807
v 0.287270 0.260000 -1.260554
v 0.065000 0.260000 -1.280000
v -0.157270 0.260000 -1.260554
v -0.372786 0.260000 -1.202807
v -0.575000 0.260000 -1.108513
v -0.757768 0.260000 -0.980537
v -0.915537 0.260000 -0.822768
v -1.043512 0.260000 -0.640000
v -1.137807 0.260000 -0.437786
v -1.195554 0.260000 -0.222270
v -1.215000 0.260000 -0.000000
v -1.195554 0.260000 0.222270
v -1.137807 0.260000 0.437786
v -1.043512 0.260000 0.640000
v -0.915537 0.260000 0.822768
v -0.757768 0.260000 0.980537
v -0.575000 0.260000 1.108513
v -0.372786 0.260000 1.202807
v -0.157270 0.260000 1.260554
v 0.065000 0.260000 1.280000
v 0.287270 0.260000 1.260554
v 0.502786 0.260000 1.202807
v 0.705000 0.260000 1.108513
v 0.887768 0.260000 0.980537
v 1.045537 0.260000 0.822768
v 1.173512 0.260000 0.640000
v 1.267807 0.260000 0.437786
v 1.325554 0.260000 0.222270
v 1.082500 0.330000 0.000000
v 1.067308 0.330000 -0.173648
v 1.022193 0.330000 -0.342020
v 0.948525 0.330000 -0.500000
v 0.848544 0.330000 -0.642788
v 0.725288 0.330000 -0.766044
v 0.582500 0.330000 -0.866025
v 0.424520 0.330000 -0.939693
v 0.256148 0.330000 -0.984808
v 0.082500 0.330000 -1.000000
v -0.091148 0.330000 -0.984808
v -0.259520 0.330000 -0.939693
v -0.417500 0.330000 -0.866025
v -0.560288 0.330000 -0.766044
v -0.683544 0.330000 -0.642788
v -0.783525 0.330000 -0.500000
v -0.857193 0.330000 -0.342020
v -0.902308 0.330000 -0.173648
v -0.917500 0.330000 -0.000000
v -0.902308 0.330000 0.173648
v -0.857193 0.330000 0.342020
v -0.783525 0.330000 0.500000
v -0.683544 0.330000 0.642788
v -0.560288 0.330000 0.766044
v -0.417500 0.330000 0.866025
v -0.259520 0.330000 0.939693
v -0.091148 0.330000 0.984808
v 0.082500 0.330000 1.000000
v 0.256148 0.330000 0.984808
v 0.424520 0.330000 0.939693
v 0.582500 0.330000 0.866025
v 0.725288 0.330000 0.766044
v 0.848544 0.330000 0.642788
v 0.948525 0.330000 0.500000
v 1.022193 0.330000 0.342020
v 1.067308 0.330000 0.173648
v 0.590000 0.360000 0.000000
v 0.582404 0.360000 -0.086824
v 0.559846 0.360000 -0.171010
v 0.523013 0.360000 -0.250000
v 0.473022 0.360000 -0.321394
v 0.411394 0.360000 -0.383022
v 0.340000 0.360000 -0.433013
v 0.261010 0.360000 -0.469846
v 0.176824 0.360000 -0.492404
v 0.090000 0.360000 -0.500000
v 0.003176 0.360000 -0.492404
v -0.081010 0.360000 -0.469846
v -0.160000 0.360000 -0.433013
v -0.231394 0.360000 -0.383022
v -0.293022 0.360000 -0.321394
v -0.343013 0.360000 -0.250000
v -0.379846 0.360000 -0.171010
v -0.402404 0.360000 -0.086824
v -0.410000 0.360000 -0.000000
v -0.402404 0.360000 0.086824
v -0.379846 0.360000 0.171010
v -0.343013 0.360000 0.250000
v -0.293022 0.360000 0.321394
v -0.231394 0.360000 0.383022
v -0.160000 0.360000 0.433013
v -0.081010 0.360000 0.469846
v 0.003176 0.360000 0.492404
v 0.090000 0.360000 0.500000
v 0.176824 0.360000 0.492404
v 0.261010 0.360000 0.469846
v 0.340000 0.360000 0.433013
v 0.411394 0.360000 0.383022
v 0.473022 0.360000 0.321394
v 0.523013 0.360000 0.250000
v 0.559846 0.360000 0.171010
v 0.582404 0.360000 0.086824
v 0.092500 0.370000 0.000000
v 0.092500 0.370000 0.000000
v 0.092500 0.370000 0.000000
v 0.092500 0.370000 0.000000
v 0.092500 0.370000 0.000000
v 0.092500 0.370000 0.000000
v 0.092500 0.370000 0.000000
v 0.092500 0.370000 0.000000
v 0.092500 0.370000 0.000000
v 0.092500 0.370000 0.000000
v 0.092500 0.370000 0.000000
v 0.092500 0.370000 0.000000
v 0.092500 0.370000 0.000000
v 0.092500 0.370000 0.000000
v 0.092500 0.370000 0.000000
v 0.092500 0.370000 0.000000
v 0.092500 0.370000 0.000000
v 0.092500 0.370000 0.000000
v 0.092500 0.370000 0.000000
v 0.092500 0.370000 0.000000
v 0.092500 0.370000 0.000000
v 0.092500 0.370000 0.000000
v 0.092500 0.370000 0.000000
v 0.092500 0.370000 0.000000
v 0.092500 0.370000 0.000000
v 0.092500 0.370000 0.000000
v 0.092500 0.370000 0.000000
v 0.092500 0.370000 0.000000
v 0.092500 0.370000 0.000000
v 0.092500 0.370000 0.000000
v 0.092500 0.370000 0.000000
v 0.092500 0.370000 0.000000
v 0.092500 0.370000 0.000000
v 0.092500 0.370000 0.000000
v 0.092500 0.370000 0.000000
v 0.092500 0.370000 0.000000
vn 0.4061 -0.9138 -0.0000
vn 0.4005 -0.9136 -0.0710
vn 0.3835 -0.9128 -0.1405
vn 0.3556 -0.9115 -0.2067
vn 0.3170 -0.9097 -0.2682
vn 0.2685 -0.9074 -0.3232
vn 0.2110 -0.9047 -0.3701
vn 0.1455 -0.9016 -0.4074
vn 0.0736 -0.8981 -0.4336
vn -0.0030 -0.8943 -0.4475
vn -0.0821 -0.8903 -0.4480
vn -0.1613 -0.8862 -0.4343
vn -0.2379 -0.8822 -0.4063
vn -0.3092 -0.8784 -0.3644
vn -0.3722 -0.8750 -0.3094
vn -0.4245 -0.8722 -0.2430
vn -0.4637 -0.8700 -0.1674
vn -0.4879 -0.8687 -0.0854
vn -0.4961 -0.8682 -0.0000
vn -0.4879 -0.8687 0.0854
vn -0.4637 -0.8700 0.1674
vn -0.4245 -0.8722 0.2430
vn -0.3722 -0.8750 0.3094
vn -0.3092 -0.8784 0.3644
vn -0.2379 -0.8822 0.4063
vn -0.1613 -0.8862 0.4343
vn -0.0821 -0.8903 0.4480
vn -0.0030 -0.8943 0.4475
vn 0.0736 -0.8981 0.4336
vn 0.1455 -0.9016 0.4074
vn 0.2110 -0.9047 0.3701
vn 0.2685 -0.9074 0.3232
vn 0.3170 -0.9097 0.2682
vn 0.3556 -0.9115 0.2067
vn 0.3835 -0.9128 0.1405
vn 0.4005 -0.9136 0.0710
vn 0.4232 -0.9061 -0.0000
vn 0.4173 -0.9058 -0.0737
vn 0.3999 -0.9049 -0.1457
vn 0.3711 -0.9035 -0.2146
vn 0.3314 -0.9015 -0.2785
vn 0.2813 -0.8989 -0.3359
vn 0.2218 -0.8958 -0.3851
vn 0.1539 -0.8923 -0.4245
vn 0.0792 -0.8883 -0.4524
vn -0.0006 -0.8840 -0.4676
vn -0.0833 -0.8794 -0.4687
vn -0.1663 -0.8747 -0.4552
vn -0.2469 -0.8701 -0.4265
vn -0.3221 -0.8658 -0.3830
vn -0.3888 -0.8618 -0.3257
vn -0.4443 -0.8585 -0.2561
vn -0.4859 -0.8560 -0.1766
vn -0.5117 -0.8544 -0.0901
vn -0.5204 -0.8539 -0.0000
vn -0.5117 -0.8544 0.0901
vn -0.4859 -0.8560 0.1766
vn -0.4443 -0.8585 0.2561
vn -0.3888 -0.8618 0.3257
vn -0.3221 -0.8658 0.3830
vn -0.2469 -0.8701 0.4265
vn -0.1663 -0.8747 0.4552
vn -0.0833 -0.8794 0.4687
vn -0.0006 -0.8840 0.4676
vn 0.0792 -0.8883 0.4524
vn 0.1539 -0.8923 0.4245
vn 0.2218 -0.8958 0.3851
vn 0.2813 -0.8989 0.3359
vn 0.3314 -0.9015 0.2785
vn 0.3711 -0.9035 0.2146
vn 0.3999 -0.9049 0.1457
vn 0.4173 -0.9058 0.0737
vn 0.8427 -0.5383 -0.0000
vn 0.8309 -0.5364 -0.1477
vn 0.7957 -0.5306 -0.2921
vn 0.7374 -0.5211 -0.4297
vn 0.6569 -0.5082 -0.5569
vn 0.5556 -0.4921 -0.6702
vn 0.4355 -0.4732 -0.7658
vn 0.2992 -0.4522 -0.8402
vn 0.1506 -0.4297 -0.8903
vn -0.0063 -0.4065 -0.9136
vn -0.1663 -0.3832 -0.9086
vn -0.3242 -0.3608 -0.8745
vn -0.4745 -0.3398 -0.8120
vn -0.6120 -0.3209 -0.7228
vn -0.7318 -0.3047 -0.6096
vn -0.8297 -0.2916 -0.4760
vn -0.9021 -0.2820 -0.3265
vn -0.9467 -0.2761 -0.1660
vn -0.9617 -0.2742 -0.0000
vn -0.9467 -0.2761 0.1660
vn -0.9021 -0.2820 0.3265
vn -0.8297 -0.2916 0.4760
vn -0.7318 -0.3047 0.6096
vn -0.6120 -0.3209 0.7228
vn -0.4745 -0.3398 0.8120
vn -0.3242 -0.3608 0.8745
vn -0.1663 -0.3832 0.9086
vn -0.0063 -0.4065 0.9136
vn 0.1506 -0.4297 0.8903
vn 0.2992 -0.4522 0.8402
vn 0.4355 -0.4732 0.7658
vn 0.5556 -0.4921 0.6702
vn 0.6569 -0.5082 0.5569
vn 0.7374 -0.5211 0.4297
vn 0.7957 -0.5306 0.2921
vn 0.8309 -0.5364 0.1477
vn 0.8194 0.5732 -0.0000
vn 0.8061 0.5748 -0.1406
vn 0.7668 0.5795 -0.2760
vn 0.7031 0.5873 -0.4010
vn 0.6176 0.5977 -0.5112
vn 0.5140 0.6105 -0.6026
vn 0.3964 0.6251 -0.6724
vn 0.2696 0.6410 -0.7186
vn 0.1384 0.6577 -0.7405
vn 0.0077 0.6744 -0.7383
vn -0.1183 0.6906 -0.7135
vn -0.2358 0.7058 -0.6680
vn -0.3419 0.7195 -0.6045
vn -0.4342 0.7315 -0.5257
vn -0.5111 0.7415 -0.4346
vn -0.5717 0.7494 -0.3339
vn -0.6153 0.7551 -0.2264
vn -0.6416 0.7585 -0.1143
vn -0.6503 0.7596 -0.0000
vn -0.6416 0.7585 0.1143
vn -0.6153 0.7551 0.2264
vn -0.5717 0.7494 0.3339
vn -0.5111 0.7415 0.4346
vn -0.4342 0.7315 0.5257
vn -0.3419 0.7195 0.6045
vn -0.2358 0.7058 0.6680
vn -0.1183 0.6906 0.7135
vn 0.0077 0.6744 0.7383
vn 0.1384 0.6577 0.7405
vn 0.2696 0.6410 0.7186
vn 0.3964 0.6251 0.6724
vn 0.5140 0.6105 0.6026
vn 0.6176 0.5977 0.5112
vn 0.7031 0.5873 0.4010
vn 0.7668 0.5795 0.2760
vn 0.8061 0.5748 0.1406
vn 0.1654 0.9862 -0.0000
vn 0.1628 0.9862 -0.0286
vn 0.1550 0.9863 -0.0562
vn 0.1423 0.9864 -0.0819
vn 0.1253 0.9866 -0.1048
vn 0.1046 0.9867 -0.1241
vn 0.0809 0.9869 -0.1393
vn 0.0550 0.9872 -0.1499
vn 0.0279 0.9874 -0.1558
vn 0.0004 0.9876 -0.1569
vn -0.0266 0.9878 -0.1532
vn -0.0524 0.9880 -0.1450
vn -0.0762 0.9882 -0.1327
vn -0.0974 0.9884 -0.1165
vn -0.1155 0.9885 -0.0972
vn -0.1300 0.9887 -0.0753
vn -0.1406 0.9887 -0.0513
vn -0.1471 0.9888 -0.0260
vn -0.1492 0.9888 -0.0000
vn -0.1471 0.9888 0.0260
vn -0.1406 0.9887 0.0513
vn -0.1300 0.9887 0.0753
vn -0.1155 0.9885 0.0972
vn -0.0974 0.9884 0.1165
vn -0.0762 0.9882 0.1327
vn -0.0524 0.9880 0.1450
vn -0.0266 0.9878 0.1532
vn 0.0004 0.9876 0.1569
vn 0.0279 0.9874 0.1558
vn 0.0550 0.9872 0.1499
vn 0.0809 0.9869 0.1393
vn 0.1046 0.9867 0.1241
vn 0.1253 0.9866 0.1048
vn 0.1423 0.9864 0.0819
vn 0.1550 0.9863 0.0562
vn 0.1628 0.9862 0.0286
vn 0.0416 0.9991 -0.0000
vn 0.0409 0.9991 -0.0072
vn 0.0391 0.9991 -0.0142
vn 0.0360 0.9991 -0.0207
vn 0.0318 0.9991 -0.0266
vn 0.0266 0.9991 -0.0317
vn 0.0207 0.9991 -0.0358
vn 0.0141 0.9991 -0.0387
vn 0.0072 0.9992 -0.0405
vn -0.0000 0.9992 -0.0411
vn -0.0071 0.9992 -0.0404
vn -0.0140 0.9992 -0.0384
vn -0.0204 0.9992 -0.0353
vn -0.0262 0.9992 -0.0312
vn -0.0311 0.9992 -0.0262
vn -0.0352 0.9992 -0.0203
vn -0.0381 0.9992 -0.0139
vn -0.0399 0.9992 -0.0070
vn -0.0405 0.9992 -0.0000
vn -0.0399 0.9992 0.0070
vn -0.0381 0.9992 0.0139
vn -0.0352 0.9992 0.0203
vn -0.0311 0.9992 0.0262
vn -0.0262 0.9992 0.0312
vn -0.0204 0.9992 0.0353
vn -0.0140 0.9992 0.0384
vn -0.0071 0.9992 0.0404
vn -0.0000 0.9992 0.0411
vn 0.0072 0.9992 0.0405
vn 0.0141 0.9991 0.0387
vn 0.0207 0.9991 0.0358
vn 0.0266 0.9991 0.0317
vn 0.0318 0.9991 0.0266
vn 0.0360 0.9991 0.0207
vn 0.0391 0.9991 0.0142
vn 0.0409 0.9991 0.0072
vn 0.0201 0.9998 -0.0000
vn 0.0198 0.9998 -0.0035
vn 0.0189 0.9998 -0.0069
vn 0.0174 0.9998 -0.0100
vn 0.0154 0.9998 -0.0129
vn 0.0129 0.9998 -0.0154
vn 0.0100 0.9998 -0.0174
vn 0.0069 0.9998 -0.0188
vn 0.0035 0.9998 -0.0197
vn -0.0000 0.9998 -0.0200
vn -0.0035 0.9998 -0.0197
vn -0.0068 0.9998 -0.0188
vn -0.0100 0.9998 -0.0173
vn -0.0128 0.9998 -0.0153
vn -0.0153 0.9998 -0.0128
vn -0.0172 0.9998 -0.0100
vn -0.0187 0.9998 -0.0068
vn -0.0196 0.9998 -0.0035
vn -0.0199 0.9998 -0.0000
vn -0.0196 0.9998 0.0035
vn -0.0187 0.9998 0.0068
vn -0.0172 0.9998 0.0100
vn -0.0153 0.9998 0.0128
vn -0.0128 0.9998 0.0153
vn -0.0100 0.9998 0.0173
vn -0.0068 0.9998 0.0188
vn -0.0035 0.9998 0.0197
vn -0.0000 0.9998 0.0200
vn 0.0035 0.9998 0.0197
vn 0.0069 0.9998 0.0188
vn 0.0100 0.9998 0.0174
vn 0.0129 0.9998 0.0154
vn 0.0154 0.9998 0.0129
vn 0.0174 0.9998 0.0100
vn 0.0189 0.9998 0.0069
vn 0.0198 0.9998 0.0035
s 1
usemtl baret
f 1//1 2//2 38//38 37//37
f 2//2 3//3 39//39 38//38
f 3//3 4//4 40//40 39//39
f 4//4 5//5 41//41 40//40
f 5//5 6//6 42//42 41//41
f 6//6 7//7 43//43 42//42
f 7//7 8//8 44//44 43//43
f 8//8 9//9 45//45 44//44
f 9//9 10//10 46//46 45//45
f 10//10 11//11 47//47 46//46
f 11//11 12//12 48//48 47//47
f 12//12 13//13 49//49 48//48
f 13//13 14//14 50//50 49//49
f 14//14 15//15 51//51 50//50
f 15//15 16//16 52//52 51//51
f 16//16 17//17 53//53 52//52
f 17//17 18//18 54//54 53//53
f 18//18 19//19 55//55 54//54
f 19//19 20//20 56//56 55//55
f 20//20 21//21 57//57 56//56
f 21//21 22//22 58//58 57//57
f 22//22 23//23 59//59 58//58
f 23//23 24//24 60//60 59//59
f 24//24 25//25 61//61 60//60
f 25//25 26//26 62//62 61//61
f 26//26 27//27 63//63 62//62
f 27//27 28//28 64//64 63//63
f 28//28 29//29 65//65 64//64
f 29//29 30//30 66//66 65//65
f 30//30 31//31 67//67 66//66
f 31//31 32//32 68//68 67//67
f 32//32 33//33 69//69 68//68
f 33//33 34//34 70//70 69//69
f 34//34 35//35 71//71 70//70
f 35//35 36//36 72//72 71//71
f 36//36 1//1 37//37 72//72
f 37//37 38//38 74//74 73//73
f 38//38 39//39 75//75 74//74
f 39//39 40//40 76//76 75//75
f 40//40 41//41 77//77 76//76
f 41//41 42//42 78//78 77//77
f 42//42 43//43 79//79 78//78
f 43//43 44//44 80//80 79//79
f 44//44 45//45 81//81 80//80
f 45//45 46//46 82//82 81//81
f 46//46 47//47 83//83 82//82
f 47//47 48//48 84//84 83//83
f 48//48 49//49 85//85 84//84
f 49//49 50//50 86//86 85//85
f 50//50 51//51 87//87 86//86
f 51//51 52//52 88//88 87//87
f 52//52 53//53 89//89 88//88
f 53//53 54//54 90//90 89//89
f 54//54 55//55 91//91 90//90
f 55//55 56//56 92//92 91//91
f 56//56 57//57 93//93 92//92
f 57//57 58//58 94//94 93//93
f 58//58 59//59 95//95 94//94
f 59//59 60//60 96//96 95//95
f 60//60 61//61 97//97 96//96
f 61//61 62//62 98//98 97//97
f 62//62 63//63 99//99 98//98
f 63//63 64//64 100//100 99//99
f 64//64 65//65 101//101 100//100
f 65//65 66//66 102//102 101//101
f 66//66 67//67 103//103 102//102
f 67//67 68//68 104//104 103//103
f 68//68 69//69 105//105 104//104
f 69//69 70//70 106//106 105//105
f 70//70 71//71 107//107 106//106
f 71//71 72//72 108//108 107//107
f 72//72 37//37 73//73 108//108
f 73//73 74//74 110//110 109//109
f 74//74 75//75 111//111 110//110
f 75//75 76//76 112//112 111//111
f 76//76 77//77 113//113 112//112
f 77//77 78//78 114//114 113//113
f 78//78 79//79 115//115 114//114
f 79//79 80//80 116//116 115//115
f 80//80 81//81 117//117 116//116
f 81//81 82//82 118//118 117//117
f 82//82 83//83 119//119 118//118
f 83//83 84//84 120//120 119//119
f 84//84 85//85 121//121 120//120
f 85//85 86//86 122//122 121//121
f 86//86 87//87 123//123 122//122
f 87//87 88//88 124//124 123//123
f 88//88 89//89 125//125 124//124
f 89//89 90//90 126//126 125//125
f 90//90 91//91 127//127 126//126
f 91//91 92//92 128//128 127//127
f 92//92 93//93 129//129 128//128
f 93//93 94//94 130//130 129//129
f 94//94 95//95 131//131 130//130
f 95//95 96//96 132//132 131//131
f 96//96 97//97 133//133 132//132
f 97//97 98//98 134//134 133//133
f 98//98 99//99 135//135 134//134
f 99//99 100//100 136//136 135//135
f 100//100 101//101 137//137 136//136
f 101//101 102//102 138//138 137//137
f 102//102 103//103 139//139 138//138
f 103//103 104//104 140//140 139//139
f 104//104 105//105 141//141 140//140
f 105//105 106//106 142//142 141//141
f 106//106 107//107 143//143 142//142
f 107//107 108//108 144//144 143//143
f 108//108 73//73 109//109 144//144
f 109//109 110//110 146//146 145//145
f 110//110 111//111 147//147 146//146
f 111//111 112//112 148//148 147//147
f 112//112 113//113 149//149 148//148
f 113//113 114//114 150//150 149//149
f 114//114 115//115 151//151 150//150
f 115//115 116//116 152//152 151//151
f 116//116 117//117 153//153 152//152
f 117//117 118//118 154//154 153//153
f 118//118 119//119 155//155 154//154
f 119//119 120//120 156//156 155//155
f 120//120 121//121 157//157 156//156
f 121//121 122//122 158//158 157//157
f 122//122 123//123 159//159 158//158
f 123//123 124//124 160//160 159//159
f 124//124 125//125 161//161 160//160
f 125//125 126//126 162//162 161//161
f 126//126 127//127 163//163 162//162
f 127//127 128//128 164//164 163//163
f 128//128 129//129 165//165 164//164
f 129//129 130//130 166//166 165//165
f 130//130 131//131 167//167 166//166
f 131//131 132//132 168//168 167//167
f 132//132 133//133 169//169 168//168
f 133//133 134//134 170//170 169//169
f 134//134 135//135 171//171 170//170
f 135//135 136//136 172//172 171//171
f 136//136 137//137 173//173 172//172
f 137//137 138//138 174//174 173//173
f 138//138 139//139 175//175 174//174
f 139//139 140//140 176//176 175//175
f 140//140 141//141 177//177 176//176
f 141//141 142//142 178//178 177//177
f 142//142 143//143 179//179 178//178
f 143//143 144//144 180//180 179//179
f 144//144 109//109 145//145 180//180
f 145//145 146//146 182//182 181//181
f 146//146 147//147 183//183 182//182
f 147//147 148//148 184//184 183//183
f 148//148 149//149 185//185 184//184
f 149//149 150//150 186//186 185//185
f 150//150 151//151 187//187 186//186
f 151//151 152//152 188//188 187//187
f 152//152 153//153 189//189 188//188
f 153//153 154//154 190//190 189//189
f 154//154 155//155 191//191 190//190
f 155//155 156//156 192//192 191//191
f 156//156 157//157 193//193 192//192
f 157//157 158//158 194//194 193//193
f 158//158 159//159 195//195 194//194
f 159//159 160//160 196//196 195//195
f 160//160 161//161 197//197 196//196
f 161//161 162//162 198//198 197//197
f 162//162 163//163 199//199 198//198
f 163//163 164//164 200//200 199//199
f 164//164 165//165 201//201 200//200
f 165//165 166//166 202//202 201//201
f 166//166 167//167 203//203 202//202
f 167//167 168//168 204//204 203//203
f 168//168 169//169 205//205 204//204
f 169//169 170//170 206//206 205//205
f 170//170 171//171 207//207 206//206
f 171//171 172//172 208//208 207//207
f 172//172 173//173 209//209 208//208
f 173//173 174//174 210//210 209//209
f 174//174 175//175 211//211 210//210
f 175//175 176//176 212//212 211//211
f 176//176 177//177 213//213 212//212
f 177//177 178//178 214//214 213//213
f 178//178 179//179 215//215 214//214
f 179//179 180//180 216//216 215//215
f 180//180 145//145 181//181 216//216
f 181//181 182//182 218//218 217//217
f 182//182 183//183 219//219 218//218
f 183//183 184//184 220//220 219//219
f 184//184 185//185 221//221 220//220
f 185//185 186//186 222//222 221//221
f 186//186 187//187 223//223 222//222
f 187//187 188//188 224//224 223//223
f 188//188 189//189 225//225 224//224
f 189//189 190//190 226//226 225//225
f 190//190 191//191 227//227 226//226
f 191//191 192//192 228//228 227//227
f 192//192 193//193 229//229 228//228
f 193//193 194//194 230//230 229//229
f 194//194 195//195 231//231 230//230
f 195//195 196//196 232//232 231//231
f 196//196 197//197 233//233 232//232
f 197//197 198//198 234//234 233//233
f 198//198 199//199 235//235 234//234
f 199//199 200//200 236//236 235//235
f 200//200 201//201 237//237 236//236
f 201//201 202//202 238//238 237//237
f 202//202 203//203 239//239 238//238
f 203//203 204//204 240//240 239//239
f 204//204 205//205 241//241 240//240
f 205//205 206//206 242//242 241//241
f 206//206 207//207 243//243 242//242
f 207//207 208//208 244//244 243//243
f 208//208 209//209 245//245 244//244
f 209//209 210//210 246//246 245//245
f 210//210 211//211 247//247 246//246
f 211//211 212//212 248//248 247//247
f 212//212 213//213 249//249 248//248
f 213//213 214//214 250//250 249//249
f 214//214 215//215 251//251 250//250
f 215//215 216//216 252//252 251//251
f 216//216 181//181 217//217 252//252
o baret_tangkai
v 0.040777 0.367845 0.000000
v 0.060777 0.467845 -0.000000
v 0.052265 0.365547 -0.028284
v 0.072265 0.465547 -0.028284
v 0.080000 0.360000 -0.040000
v 0.100000 0.460000 -0.040000
v 0.107735 0.354453 -0.028284
v 0.127735 0.454453 -0.028284
v 0.119223 0.352155 0.000000
v 0.139223 0.452155 -0.000000
v 0.107735 0.354453 0.028284
v 0.127735 0.454453 0.028284
v 0.080000 0.360000 0.040000
v 0.100000 0.460000 0.040000
v 0.052265 0.365547 0.028284
v 0.072265 0.465547 0.028284
vn -0.8849 -0.4658 -0.0000
vn -0.6377 0.7703 -0.0000
vn -0.6619 -0.5104 -0.5490
vn -0.4147 0.7257 -0.5490
vn -0.1236 -0.6180 -0.7764
vn 0.1236 0.6180 -0.7764
vn 0.4147 -0.7257 -0.5490
vn 0.6619 0.5104 -0.5490
vn 0.6377 -0.7703 -0.0000
vn 0.8849 0.4658 -0.0000
vn 0.4147 -0.7257 0.5490
vn 0.6619 0.5104 0.5490
vn -0.1236 -0.6180 0.7764
vn 0.1236 0.6180 0.7764
vn -0.6619 -0.5104 0.5490
vn -0.4147 0.7257 0.5490
s 1
usemtl baret
f 253//253 254//254 256//256 255//255
f 255//255 256//256 258//258 257//257
f 257//257 258//258 260//260 259//259
f 259//259 260//260 262//262 261//261
f 261//261 262//262 264//264 263//263
f 263//263 264//264 266//266 265//265
f 256//256 254//254 268//268 266//266 264//264 262//262 260//260 258//258
f 265//265 266//266 268//268 267//267
f 267//267 268//268 254//254 253//253
f 253//253 255//255 257//257 259//259 261//261 263//263 265//265 267//267
