# Blender 5.1.1
# www.blender.org
mtllib ikat.mtl
o ikat
v 1.060000 0.000000 0.000000
v 1.043896 0.000000 -0.184067
v 0.996074 0.000000 -0.362541
v 0.917987 0.000000 -0.530000
v 0.812007 0.000000 -0.681355
v 0.681355 0.000000 -0.812007
v 0.530000 0.000000 -0.917987
v 0.362541 0.000000 -0.996074
v 0.184067 0.000000 -1.043896
v 0.000000 0.000000 -1.060000
v -0.184067 0.000000 -1.043896
v -0.362541 0.000000 -0.996074
v -0.530000 0.000000 -0.917987
v -0.681355 0.000000 -0.812007
v -0.812007 0.000000 -0.681355
v -0.917987 0.000000 -0.530000
v -0.996074 0.000000 -0.362541
v -1.043896 0.000000 -0.184067
v -1.060000 0.000000 -0.000000
v -1.043896 0.000000 0.184067
v -0.996074 0.000000 0.362541
v -0.917987 0.000000 0.530000
v -0.812007 0.000000 0.681355
v -0.681355 0.000000 0.812007
v -0.530000 0.000000 0.917987
v -0.362541 0.000000 0.996074
v -0.184067 0.000000 1.043896
v -0.000000 0.000000 1.060000
v 0.184067 0.000000 1.043896
v 0.362541 0.000000 0.996074
v 0.530000 0.000000 0.917987
v 0.681355 0.000000 0.812007
v 0.812007 0.000000 0.681355
v 0.917987 0.000000 0.530000
v 0.996074 0.000000 0.362541
v 1.043896 0.000000 0.184067
v 1.070000 0.180000 0.000000
v 1.053744 0.180000 -0.185804
v 1.005471 0.180000 -0.365962
v 0.926647 0.180000 -0.535000
v 0.819668 0.180000 -0.687783
v 0.687783 0.180000 -0.819668
v 0.535000 0.180000 -0.926647
v 0.365962 0.180000 -1.005471
v 0.185804 0.180000 -1.053744
v 0.000000 0.180000 -1.070000
v -0.185804 0.180000 -1.053744
v -0.365962 0.180000 -1.005471
v -0.535000 0.180000 -0.926647
v -0.687783 0.180000 -0.819668
v -0.819668 0.180000 -0.687783
v -0.926647 0.180000 -0.535000
v -1.005471 0.180000 -0.365962
v -1.053744 0.180000 -0.185804
v -1.070000 0.180000 -0.000000
v -1.053744 0.180000 0.185804
v -1.005471 0.180000 0.365962
v -0.926647 0.180000 0.535000
v -0.819668 0.180000 0.687783
v -0.687783 0.180000 0.819668
v -0.535000 0.180000 0.926647
v -0.365962 0.180000 1.005471
v -0.185804 0.180000 1.053744
v -0.000000 0.180000 1.070000
v 0.185804 0.180000 1.053744
v 0.365962 0.180000 1.005471
v 0.535000 0.180000 0.926647
v 0.687783 0.180000 0.819668
v 0.819668 0.180000 0.687783
v 0.926647 0.180000 0.535000
v 1.005471 0.180000 0.365962
v 1.053744 0.180000 0.185804
v 1.000000 0.180000 0.000000
v 0.984808 0.180000 -0.173648
v 0.939693 0.180000 -0.342020
v 0.866025 0.180000 -0.500000
v 0.766044 0.180000 -0.642788
v 0.642788 0.180000 -0.766044
v 0.500000 0.180000 -0.866025
v 0.342020 0.180000 -0.939693
v 0.173648 0.180000 -0.984808
v 0.000000 0.180000 -1.000000
v -0.173648 0.180000 -0.984808
v -0.342020 0.180000 -0.939693
v -0.500000 0.180000 -0.866025
v -0.642788 0.180000 -0.766044
v -0.766044 0.180000 -0.642788
v -0.866025 0.180000 -0.500000
v -0.939693 0.180000 -0.342020
v -0.984808 0.180000 -0.173648
v -1.000000 0.180000 -0.000000
v -0.984808 0.180000 0.173648
v -0.939693 0.180000 0.342020
v -0.866025 0.180000 0.500000
v -0.766044 0.180000 0.642788
v -0.642788 0.180000 0.766044
v -0.500000 0.180000 0.866025
v -0.342020 0.180000 0.939693
v -0.173648 0.180000 0.984808
v -0.000000 0.180000 1.000000
v 0.173648 0.180000 0.984808
v 0.342020 0.180000 0.939693
v 0.500000 0.180000 0.866025
v 0.642788 0.180000 0.766044
v 0.766044 0.180000 0.642788
v 0.866025 0.180000 0.500000
v 0.939693 0.180000 0.342020
v 0.984808 0.180000 0.173648
v 0.990000 0.000000 0.000000
v 0.974960 0.000000 -0.171912
v 0.930296 0.000000 -0.338600
v 0.857365 0.000000 -0.495000
v 0.758384 0.000000 -0.636360
v 0.636360 0.000000 -0.758384
v 0.495000 0.000000 -0.857365
v 0.338600 0.000000 -0.930296
v 0.171912 0.000000 -0.974960
v 0.000000 0.000000 -0.990000
v -0.171912 0.000000 -0.974960
v -0.338600 0.000000 -0.930296
v -0.495000 0.000000 -0.857365
v -0.636360 0.000000 -0.758384
v -0.758384 0.000000 -0.636360
v -0.857365 0.000000 -0.495000
v -0.930296 0.000000 -0.338600
v -0.974960 0.000000 -0.171912
v -0.990000 0.000000 -0.000000
v -0.974960 0.000000 0.171912
v -0.930296 0.000000 0.338600
v -0.857365 0.000000 0.495000
v -0.758384 0.000000 0.636360
v -0.636360 0.000000 0.758384
v -0.495000 0.000000 0.857365
v -0.338600 0.000000 0.930296
v -0.171912 0.000000 0.974960
v -0.000000 0.000000 0.990000
v 0.171912 0.000000 0.974960
v 0.338600 0.000000 0.930296
v 0.495000 0.000000 0.857365
v 0.636360 0.000000 0.758384
v 0.758384 0.000000 0.636360
v 0.857365 0.000000 0.495000
v 0.930296 0.000000 0.338600
v 0.974960 0.000000 0.171912
vn 0.9985 -0.0555 -0.0000
vn 0.9833 -0.0555 -0.1734
vn 0.9382 -0.0555 -0.3415
vn 0.8647 -0.0555 -0.4992
vn 0.7649 -0.0555 -0.6418
vn 0.6418 -0.0555 -0.7649
vn 0.4992 -0.0555 -0.8647
vn 0.3415 -0.0555 -0.9382
vn 0.1734 -0.0555 -0.9833
vn -0.0000 -0.0555 -0.9985
vn -0.1734 -0.0555 -0.9833
vn -0.3415 -0.0555 -0.9382
vn -0.4992 -0.0555 -0.8647
vn -0.6418 -0.0555 -0.7649
vn -0.7649 -0.0555 -0.6418
vn -0.8647 -0.0555 -0.4992
vn -0.9382 -0.0555 -0.3415
vn -0.9833 -0.0555 -0.1734
vn -0.9985 -0.0555 -0.0000
vn -0.9833 -0.0555 0.1734
vn -0.9382 -0.0555 0.3415
vn -0.8647 -0.0555 0.4992
vn -0.7649 -0.0555 0.6418
vn -0.6418 -0.0555 0.7649
vn -0.4992 -0.0555 0.8647
vn -0.3415 -0.0555 0.9382
vn -0.1734 -0.0555 0.9833
vn -0.0000 -0.0555 0.9985
vn 0.1734 -0.0555 0.9833
vn 0.3415 -0.0555 0.9382
vn 0.4992 -0.0555 0.8647
vn 0.6418 -0.0555 0.7649
vn 0.7649 -0.0555 0.6418
vn 0.8647 -0.0555 0.4992
vn 0.9382 -0.0555 0.3415
vn 0.9833 -0.0555 0.1734
vn 0.7444 0.6677 -0.0000
vn 0.7331 0.6677 -0.1293
vn 0.6995 0.6677 -0.2546
vn 0.6447 0.6677 -0.3722
vn 0.5703 0.6677 -0.4785
vn 0.4785 0.6677 -0.5703
vn 0.3722 0.6677 -0.6447
vn 0.2546 0.6677 -0.6995
vn 0.1293 0.6677 -0.7331
vn -0.0000 0.6677 -0.7444
vn -0.1293 0.6677 -0.7331
vn -0.2546 0.6677 -0.6995
vn -0.3722 0.6677 -0.6447
vn -0.4785 0.6677 -0.5703
vn -0.5703 0.6677 -0.4785
vn -0.6447 0.6677 -0.3722
vn -0.6995 0.6677 -0.2546
vn -0.7331 0.6677 -0.1293
vn -0.7444 0.6677 -0.0000
vn -0.7331 0.6677 0.1293
vn -0.6995 0.6677 0.2546
vn -0.6447 0.6677 0.3722
vn -0.5703 0.6677 0.4785
vn -0.4785 0.6677 0.5703
vn -0.3722 0.6677 0.6447
vn -0.2546 0.6677 0.6995
vn -0.1293 0.6677 0.7331
vn -0.0000 0.6677 0.7444
vn 0.1293 0.6677 0.7331
vn 0.2546 0.6677 0.6995
vn 0.3722 0.6677 0.6447
vn 0.4785 0.6677 0.5703
vn 0.5703 0.6677 0.4785
vn 0.6447 0.6677 0.3722
vn 0.6995 0.6677 0.2546
vn 0.7331 0.6677 0.1293
vn -0.6660 0.7459 -0.0000
vn -0.6559 0.7459 0.1157
vn -0.6258 0.7459 0.2278
vn -0.5768 0.7459 0.3330
vn -0.5102 0.7459 0.4281
vn -0.4281 0.7459 0.5102
vn -0.3330 0.7459 0.5768
vn -0.2278 0.7459 0.6258
vn -0.1157 0.7459 0.6559
vn -0.0000 0.7459 0.6660
vn 0.1157 0.7459 0.6559
vn 0.2278 0.7459 0.6258
vn 0.3330 0.7459 0.5768
vn 0.4281 0.7459 0.5102
vn 0.5102 0.7459 0.4281
vn 0.5768 0.7459 0.3330
vn 0.6258 0.7459 0.2278
vn 0.6559 0.7459 0.1157
vn 0.6660 0.7459 -0.0000
vn 0.6559 0.7459 -0.1157
vn 0.6258 0.7459 -0.2278
vn 0.5768 0.7459 -0.3330
vn 0.5102 0.7459 -0.4281
vn 0.4281 0.7459 -0.5102
vn 0.3330 0.7459 -0.5768
vn 0.2278 0.7459 -0.6258
vn 0.1157 0.7459 -0.6559
vn -0.0000 0.7459 -0.6660
vn -0.1157 0.7459 -0.6559
vn -0.2278 0.7459 -0.6258
vn -0.3330 0.7459 -0.5768
vn -0.4281 0.7459 -0.5102
vn -0.5102 0.7459 -0.4281
vn -0.5768 0.7459 -0.3330
vn -0.6258 0.7459 -0.2278
vn -0.6559 0.7459 -0.1157
vn -0.9985 0.0555 -0.0000
vn -0.9833 0.0555 0.1734
vn -0.9382 0.0555 0.3415
vn -0.8647 0.0555 0.4992
vn -0.7649 0.0555 0.6418
vn -0.6418 0.0555 0.7649
vn -0.4992 0.0555 0.8647
vn -0.3415 0.0555 0.9382
vn -0.1734 0.0555 0.9833
vn -0.0000 0.0555 0.9985
vn 0.1734 0.0555 0.9833
vn 0.3415 0.0555 0.9382
vn 0.4992 0.0555 0.8647
vn 0.6418 0.0555 0.7649
vn 0.7649 0.0555 0.6418
vn 0.8647 0.0555 0.4992
vn 0.9382 0.0555 0.3415
vn 0.9833 0.0555 0.1734
vn 0.9985 0.0555 -0.0000
vn 0.9833 0.0555 -0.1734
vn 0.9382 0.0555 -0.3415
vn 0.8647 0.0555 -0.4992
vn 0.7649 0.0555 -0.6418
vn 0.6418 0.0555 -0.7649
vn 0.4992 0.0555 -0.8647
vn 0.3415 0.0555 -0.9382
vn 0.1734 0.0555 -0.9833
vn -0.0000 0.0555 -0.9985
vn -0.1734 0.0555 -0.9833
vn -0.3415 0.0555 -0.9382
vn -0.4992 0.0555 -0.8647
vn -0.6418 0.0555 -0.7649
vn -0.7649 0.0555 -0.6418
vn -0.8647 0.0555 -0.4992
vn -0.9382 0.0555 -0.3415
vn -0.9833 0.0555 -0.1734
s 1
usemtl ikat
f 1//1 2//2 38//38 37//37
f 2//2 3//3 39//39 38//38
f 3//3 4//4 40//40 39//39
f 4//4 5//5 41//41 40//40
f 5//5 6//6 42//42 41//41
f 6//6 7//7 43//43 42//42
f 7//7 8//8 44//44 43//43
f 8//8 9//9 45//45 44//44
f 9//9 10//10 46//46 45//45
f 10//10 11//11 47//47 46//46
f 11//11 12//12 48//48 47//47
f 12//12 13//13 49//49 48//48
f 13//13 14//14 50//50 49//49
f 14//14 15//15 51//51 50//50
f 15//15 16//16 52//52 51//51
f 16//16 17//17 53//53 52//52
f 17//17 18//18 54//54 53//53
f 18//18 19//19 55//55 54//54
f 19//19 20//20 56//56 55//55
f 20//20 21//21 57//57 56//56
f 21//21 22//22 58//58 57//57
f 22//22 23//23 59//59 58//58
f 23//23 24//24 60//60 59//59
f 24//24 25//25 61//61 60//60
f 25//25 26//26 62//62 61//61
f 26//26 27//27 63//63 62//62
f 27//27 28//28 64//64 63//63
f 28//28 29//29 65//65 64//64
f 29//29 30//30 66//66 65//65
f 30//30 31//31 67//67 66//66
f 31//31 32//32 68//68 67//67
f 32//32 33//33 69//69 68//68
f 33//33 34//34 70//70 69//69
f 34//34 35//35 71//71 70//70
f 35//35 36//36 72//72 71//71
f 36//36 1//1 37//37 72//72
f 37//37 38//38 74//74 73//73
f 38//38 39//39 75//75 74//74
f 39//39 40//40 76//76 75//75
f 40//40 41//41 77//77 76//76
f 41//41 42//42 78//78 77//77
f 42//42 43//43 79//79 78//78
f 43//43 44//44 80//80 79//79
f 44//44 45//45 81//81 80//80
f 45//45 46//46 82//82 81//81
f 46//46 47//47 83//83 82//82
f 47//47 48//48 84//84 83//83
f 48//48 49//49 85//85 84//84
f 49//49 50//50 86//86 85//85
f 50//50 51//51 87//87 86//86
f 51//51 52//52 88//88 87//87
f 52//52 53//53 89//89 88//88
f 53//53 54//54 90//90 89//89
f 54//54 55//55 91//91 90//90
f 55//55 56//56 92//92 91//91
f 56//56 57//57 93//93 92//92
f 57//57 58//58 94//94 93//93
f 58//58 59//59 95//95 94//94
f 59//59 60//60 96//96 95//95
f 60//60 61//61 97//97 96//96
f 61//61 62//62 98//98 97//97
f 62//62 63//63 99//99 98//98
f 63//63 64//64 100//100 99//99
f 64//64 65//65 101//101 100//100
f 65//65 66//66 102//102 101//101
f 66//66 67//67 103//103 102//102
f 67//67 68//68 104//104 103//103
f 68//68 69//69 105//105 104//104
f 69//69 70//70 106//106 105//105
f 70//70 71//71 107//107 106//106
f 71//71 72//72 108//108 107//107
f 72//72 37//37 73//73 108//108
f 73//73 74//74 110//110 109//109
f 74//74 75//75 111//111 110//110
f 75//75 76//76 112//112 111//111
f 76//76 77//77 113//113 112//112
f 77//77 78//78 114//114 113//113
f 78//78 79//79 115//115 114//114
f 79//79 80//80 116//116 115//115
f 80//80 81//81 117//117 116//116
f 81//81 82//82 118//118 117//117
f 82//82 83//83 119//119 118//118
f 83//83 84//84 120//120 119//119
f 84//84 85//85 121//121 120//120
f 85//85 86//86 122//122 121//121
f 86//86 87//87 123//123 122//122
f 87//87 88//88 124//124 123//123
f 88//88 89//89 125//125 124//124
f 89//89 90//90 126//126 125//125
f 90//90 91//91 127//127 126//126
f 91//91 92//92 128//128 127//127
f 92//92 93//93 129//129 128//128
f 93//93 94//94 130//130 129//129
f 94//94 95//95 131//131 130//130
f 95//95 96//96 132//132 131//131
f 96//96 97//97 133//133 132//132
f 97//97 98//98 134//134 133//133
f 98//98 99//99 135//135 134//134
f 99//99 100//100 136//136 135//135
f 100//100 101//101 137//137 136//136
f 101//101 102//102 138//138 137//137
f 102//102 103//103 139//139 138//138
f 103//103 104//104 140//140 139//139
f 104//104 105//105 141//141 140//140
f 105//105 106//106 142//142 141//141
f 106//106 107//107 143//143 142//142
f 107//107 108//108 144//144 143//143
f 108//108 73//73 109//109 144//144
o ikat_simpul
v 0.750000 0.190000 -0.750000
v 0.750000 0.128268 -0.860866
v 0.750000 0.090000 -0.870000
v 0.750000 0.051732 -0.860866
v 0.750000 -0.002388 -0.795922
v 0.750000 -0.010000 -0.750000
v 0.767574 0.182388 -0.792426
v 0.782472 0.160711 -0.828394
v 0.792426 0.128268 -0.852426
v 0.795922 0.090000 -0.860866
v 0.792426 0.051732 -0.852426
v 0.782472 0.019289 -0.828394
v 0.767574 -0.002388 -0.792426
v 0.782472 0.182388 -0.782472
v 0.810000 0.160711 -0.810000
v 0.828394 0.128268 -0.828394
v 0.834853 0.090000 -0.834853
v 0.828394 0.051732 -0.828394
v 0.810000 0.019289 -0.810000
v 0.782472 -0.002388 -0.782472
v 0.792426 0.182388 -0.767574
v 0.828394 0.160711 -0.782472
v 0.852426 0.128268 -0.792426
v 0.860866 0.090000 -0.795922
v 0.852426 0.051732 -0.792426
v 0.828394 0.019289 -0.782472
v 0.792426 -0.002388 -0.767574
v 0.795922 0.182388 -0.750000
v 0.834853 0.160711 -0.750000
v 0.860866 0.128268 -0.750000
v 0.870000 0.090000 -0.750000
v 0.860866 0.051732 -0.750000
v 0.834853 0.019289 -0.750000
v 0.795922 -0.002388 -0.750000
v 0.792426 0.182388 -0.732426
v 0.828394 0.160711 -0.717528
v 0.852426 0.128268 -0.707574
v 0.860866 0.090000 -0.704078
v 0.852426 0.051732 -0.707574
v 0.828394 0.019289 -0.717528
v 0.792426 -0.002388 -0.732426
v 0.782472 0.182388 -0.717528
v 0.810000 0.160711 -0.690000
v 0.828394 0.128268 -0.671606
v 0.834853 0.090000 -0.665147
v 0.828394 0.051732 -0.671606
v 0.810000 0.019289 -0.690000
v 0.782472 -0.002388 -0.717528
v 0.767574 0.182388 -0.707574
v 0.782472 0.160711 -0.671606
v 0.792426 0.128268 -0.647574
v 0.795922 0.090000 -0.639134
v 0.792426 0.051732 -0.647574
v 0.782472 0.019289 -0.671606
v 0.767574 -0.002388 -0.707574
v 0.750000 0.182388 -0.704078
v 0.750000 0.160711 -0.665147
v 0.750000 0.128268 -0.639134
v 0.750000 0.090000 -0.630000
v 0.750000 0.051732 -0.639134
v 0.750000 0.019289 -0.665147
v 0.750000 -0.002388 -0.704078
v 0.732426 0.182388 -0.707574
v 0.717528 0.160711 -0.671606
v 0.707574 0.128268 -0.647574
v 0.704078 0.090000 -0.639134
v 0.707574 0.051732 -0.647574
v 0.717528 0.019289 -0.671606
v 0.732426 -0.002388 -0.707574
v 0.717528 0.182388 -0.717528
v 0.690000 0.160711 -0.690000
v 0.671606 0.128268 -0.671606
v 0.665147 0.090000 -0.665147
v 0.671606 0.051732 -0.671606
v 0.690000 0.019289 -0.690000
v 0.717528 -0.002388 -0.717528
v 0.707574 0.182388 -0.732426
v 0.671606 0.160711 -0.717528
v 0.647574 0.128268 -0.707574
v 0.639134 0.090000 -0.704078
v 0.647574 0.051732 -0.707574
v 0.671606 0.019289 -0.717528
v 0.707574 -0.002388 -0.732426
v 0.704078 0.182388 -0.750000
v 0.665147 0.160711 -0.750000
v 0.639134 0.128268 -0.750000
v 0.630000 0.090000 -0.750000
v 0.639134 0.051732 -0.750000
v 0.665147 0.019289 -0.750000
v 0.704078 -0.002388 -0.750000
v 0.707574 0.182388 -0.767574
v 0.671606 0.160711 -0.782472
v 0.647574 0.128268 -0.792426
v 0.639134 0.090000 -0.795922
v 0.647574 0.051732 -0.792426
v 0.671606 0.019289 -0.782472
v 0.707574 -0.002388 -0.767574
v 0.717528 0.182388 -0.782472
v 0.690000 0.160711 -0.810000
v 0.671606 0.128268 -0.828394
v 0.665147 0.090000 -0.834853
v 0.671606 0.051732 -0.828394
v 0.690000 0.019289 -0.810000
v 0.717528 -0.002388 -0.782472
v 0.732426 0.182388 -0.792426
v 0.717528 0.160711 -0.828394
v 0.707574 0.128268 -0.852426
v 0.704078 0.090000 -0.860866
v 0.707574 0.051732 -0.852426
v 0.717528 0.019289 -0.828394
v 0.732426 -0.002388 -0.792426
v 0.750000 0.182388 -0.795922
v 0.750000 0.160711 -0.834853
v 0.750000 0.019289 -0.834853
vn -0.0000 1.0000 -0.0000
vn -0.0000 0.4291 -0.9032
vn -0.0000 -0.0000 -1.0000
vn -0.0000 -0.4291 -0.9032
vn -0.0000 -0.9373 -0.3486
vn -0.0000 -1.0000 -0.0000
vn 0.1334 0.9373 -0.3221
vn 0.2522 0.7522 -0.6088
vn 0.3457 0.4291 -0.8345
vn 0.3827 -0.0000 -0.9239
vn 0.3457 -0.4291 -0.8345
vn 0.2522 -0.7522 -0.6088
vn 0.1334 -0.9373 -0.3221
vn 0.2465 0.9373 -0.2465
vn 0.4659 0.7522 -0.4659
vn 0.6387 0.4291 -0.6387
vn 0.7071 -0.0000 -0.7071
vn 0.6387 -0.4291 -0.6387
vn 0.4659 -0.7522 -0.4659
vn 0.2465 -0.9373 -0.2465
vn 0.3221 0.9373 -0.1334
vn 0.6088 0.7522 -0.2522
vn 0.8345 0.4291 -0.3457
vn 0.9239 -0.0000 -0.3827
vn 0.8345 -0.4291 -0.3457
vn 0.6088 -0.7522 -0.2522
vn 0.3221 -0.9373 -0.1334
vn 0.3486 0.9373 -0.0000
vn 0.6589 0.7522 -0.0000
vn 0.9032 0.4291 -0.0000
vn 1.0000 -0.0000 -0.0000
vn 0.9032 -0.4291 -0.0000
vn 0.6589 -0.7522 -0.0000
vn 0.3486 -0.9373 -0.0000
vn 0.3221 0.9373 0.1334
vn 0.6088 0.7522 0.2522
vn 0.8345 0.4291 0.3457
vn 0.9239 -0.0000 0.3827
vn 0.8345 -0.4291 0.3457
vn 0.6088 -0.7522 0.2522
vn 0.3221 -0.9373 0.1334
vn 0.2465 0.9373 0.2465
vn 0.4659 0.7522 0.4659
vn 0.6387 0.4291 0.6387
vn 0.7071 -0.0000 0.7071
vn 0.6387 -0.4291 0.6387
vn 0.4659 -0.7522 0.4659
vn 0.2465 -0.9373 0.2465
vn 0.1334 0.9373 0.3221
vn 0.2522 0.7522 0.6088
vn 0.3457 0.4291 0.8345
vn 0.3827 -0.0000 0.9239
vn 0.3457 -0.4291 0.8345
vn 0.2522 -0.7522 0.6088
vn 0.1334 -0.9373 0.3221
vn -0.0000 0.9373 0.3486
vn -0.0000 0.7522 0.6589
vn -0.0000 0.4291 0.9032
vn -0.0000 -0.0000 1.0000
vn -0.0000 -0.4291 0.9032
vn -0.0000 -0.7522 0.6589
vn -0.0000 -0.9373 0.3486
vn -0.1334 0.9373 0.3221
vn -0.2522 0.7522 0.6088
vn -0.3457 0.4291 0.8345
vn -0.3827 -0.0000 0.9239
vn -0.3457 -0.4291 0.8345
vn -0.2522 -0.7522 0.6088
vn -0.1334 -0.9373 0.3221
vn -0.2465 0.9373 0.2465
vn -0.4659 0.7522 0.4659
vn -0.6387 0.4291 0.6387
vn -0.7071 -0.0000 0.7071
vn -0.6387 -0.4291 0.6387
vn -0.4659 -0.7522 0.4659
vn -0.2465 -0.9373 0.2465
vn -0.3221 0.9373 0.1334
vn -0.6088 0.7522 0.2522
vn -0.8345 0.4291 0.3457
vn -0.9239 -0.0000 0.3827
vn -0.8345 -0.4291 0.3457
vn -0.6088 -0.7522 0.2522
vn -0.3221 -0.9373 0.1334
vn -0.3486 0.9373 -0.0000
vn -0.6589 0.7522 -0.0000
vn -0.9032 0.4291 -0.0000
vn -1.0000 -0.0000 -0.0000
vn -0.9032 -0.4291 -0.0000
vn -0.6589 -0.7522 -0.0000
vn -0.3486 -0.9373 -0.0000
vn -0.3221 0.9373 -0.1334
vn -0.6088 0.7522 -0.2522
vn -0.8345 0.4291 -0.3457
vn -0.9239 -0.0000 -0.3827
vn -0.8345 -0.4291 -0.3457
vn -0.6088 -0.7522 -0.2522
vn -0.3221 -0.9373 -0.1334
vn -0.2465 0.9373 -0.2465
vn -0.4659 0.7522 -0.4659
vn -0.6387 0.4291 -0.6387
vn -0.7071 -0.0000 -0.7071
vn -0.6387 -0.4291 -0.6387
vn -0.4659 -0.7522 -0.4659
vn -0.2465 -0.9373 -0.2465
vn -0.1334 0.9373 -0.3221
vn -0.2522 0.7522 -0.6088
vn -0.3457 0.4291 -0.8345
vn -0.3827 -0.0000 -0.9239
vn -0.3457 -0.4291 -0.8345
vn -0.2522 -0.7522 -0.6088
vn -0.1334 -0.9373 -0.3221
vn -0.0000 0.9373 -0.3486
vn -0.0000 0.7522 -0.6589
vn -0.0000 -0.7522 -0.6589
s 1
usemtl ikat
f 147//147 146//146 153//153 154//154
f 257//257 256//256 151//151 152//152
f 149//149 258//258 156//156 157//157
f 148//148 147//147 154//154 155//155
f 146//146 257//257 152//152 153//153
f 256//256 145//145 151//151
f 150//150 149//149 157//157
f 258//258 148//148 155//155 156//156
f 157//157 156//156 163//163 164//164
f 155//155 154//154 161//161 162//162
f 153//153 152//152 159//159 160//160
f 151//151 145//145 158//158
f 150//150 157//157 164//164
f 156//156 155//155 162//162 163//163
f 154//154 153//153 160//160 161//161
f 152//152 151//151 158//158 159//159
f 158//158 145//145 165//165
f 150//150 164//164 171//171
f 163//163 162//162 169//169 170//170
f 161//161 160//160 167//167 168//168
f 159//159 158//158 165//165 166//166
f 164//164 163//163 170//170 171//171
f 162//162 161//161 168//168 169//169
f 160//160 159//159 166//166 167//167
f 170//170 169//169 176//176 177//177
f 168//168 167//167 174//174 175//175
f 166//166 165//165 172//172 173//173
f 171//171 170//170 177//177 178//178
f 169//169 168//168 175//175 176//176
f 167//167 166//166 173//173 174//174
f 165//165 145//145 172//172
f 150//150 171//171 178//178
f 178//178 177//177 184//184 185//185
f 176//176 175//175 182//182 183//183
f 174//174 173//173 180//180 181//181
f 172//172 145//145 179//179
f 150//150 178//178 185//185
f 177//177 176//176 183//183 184//184
f 175//175 174//174 181//181 182//182
f 173//173 172//172 179//179 180//180
f 183//183 182//182 189//189 190//190
f 181//181 180//180 187//187 188//188
f 179//179 145//145 186//186
f 150//150 185//185 192//192
f 184//184 183//183 190//190 191//191
f 182//182 181//181 188//188 189//189
f 180//180 179//179 186//186 187//187
f 185//185 184//184 191//191 192//192
f 150//150 192//192 199//199
f 191//191 190//190 197//197 198//198
f 189//189 188//188 195//195 196//196
f 187//187 186//186 193//193 194//194
f 192//192 191//191 198//198 199//199
f 190//190 189//189 196//196 197//197
f 188//188 187//187 194//194 195//195
f 186//186 145//145 193//193
f 196//196 195//195 202//202 203//203
f 194//194 193//193 200//200 201//201
f 199//199 198//198 205//205 206//206
f 197//197 196//196 203//203 204//204
f 195//195 194//194 201//201 202//202
f 193//193 145//145 200//200
f 150//150 199//199 206//206
f 198//198 197//197 204//204 205//205
f 206//206 205//205 212//212 213//213
f 204//204 203//203 210//210 211//211
f 202//202 201//201 208//208 209//209
f 200//200 145//145 207//207
f 150//150 206//206 213//213
f 205//205 204//204 211//211 212//212
f 203//203 202//202 209//209 210//210
f 201//201 200//200 207//207 208//208
f 209//209 208//208 215//215 216//216
f 207//207 145//145 214//214
f 150//150 213//213 220//220
f 212//212 211//211 218//218 219//219
f 210//210 209//209 216//216 217//217
f 208//208 207//207 214//214 215//215
f 213//213 212//212 219//219 220//220
f 211//211 210//210 217//217 218//218
f 150//150 220//220 227//227
f 219//219 218//218 225//225 226//226
f 217//217 216//216 223//223 224//224
f 215//215 214//214 221//221 222//222
f 220//220 219//219 226//226 227//227
f 218//218 217//217 224//224 225//225
f 216//216 215//215 222//222 223//223
f 214//214 145//145 221//221
f 222//222 221//221 228//228 229//229
f 227//227 226//226 233//233 234//234
f 225//225 224//224 231//231 232//232
f 223//223 222//222 229//229 230//230
f 221//221 145//145 228//228
f 150//150 227//227 234//234
f 226//226 225//225 232//232 233//233
f 224//224 223//223 230//230 231//231
f 234//234 233//233 240//240 241//241
f 232//232 231//231 238//238 239//239
f 230//230 229//229 236//236 237//237
f 228//228 145//145 235//235
f 150//150 234//234 241//241
f 233//233 232//232 239//239 240//240
f 231//231 230//230 237//237 238//238
f 229//229 228//228 235//235 236//236
f 235//235 145//145 242//242
f 150//150 241//241 248//248
f 240//240 239//239 246//246 247//247
f 238//238 237//237 244//244 245//245
f 236//236 235//235 242//242 243//243
f 241//241 240//240 247//247 248//248
f 239//239 238//238 245//245 246//246
f 237//237 236//236 243//243 244//244
f 247//247 246//246 253//253 254//254
f 245//245 244//244 251//251 252//252
f 243//243 242//242 249//249 250//250
f 248//248 247//247 254//254 255//255
f 246//246 245//245 252//252 253//253
f 244//244 243//243 250//250 251//251
f 242//242 145//145 249//249
f 150//150 248//248 255//255
f 255//255 254//254 258//258 149//149
f 253//253 252//252 147//147 148//148
f 251//251 250//250 257//257 146//146
f 249//249 145//145 256//256
f 150//150 255//255 149//149
f 254//254 253//253 148//148 258//258
f 252//252 251//251 146//146 147//147
f 250//250 249//249 256//256 257//257
o ikat_ekor
v 0.829778 0.116383 -0.817016
v 1.179778 -0.263617 -1.017016
v 0.793406 0.098192 -0.846104
v 1.143406 -0.281809 -1.046104
v 0.763628 0.061809 -0.829088
v 1.113628 -0.318192 -1.029088
v 0.770222 0.043617 -0.782984
v 1.120222 -0.336383 -0.982984
v 0.806594 0.061809 -0.753896
v 1.156594 -0.318192 -0.953896
v 0.836372 0.098192 -0.770912
v 1.186373 -0.281809 -0.970912
vn 0.0865 0.9950 -0.0495
vn 0.8573 0.1582 -0.4899
vn -0.4899 0.7067 -0.5104
vn 0.2809 -0.1301 -0.9509
vn -0.9618 0.1301 -0.2408
vn -0.1910 -0.7067 -0.6812
vn -0.8573 -0.1582 0.4899
vn -0.0865 -0.9950 0.0494
vn -0.2809 0.1301 0.9509
vn 0.4899 -0.7067 0.5104
vn 0.1910 0.7067 0.6812
vn 0.9618 -0.1301 0.2408
s 1
usemtl ikat
f 259//259 260//260 262//262 261//261
f 261//261 262//262 264//264 263//263
f 263//263 264//264 266//266 265//265
f 265//265 266//266 268//268 267//267
f 262//262 260//260 270//270 268//268 266//266 264//264
f 267//267 268//268 270//270 269//269
f 269//269 270//270 260//260 259//259
f 259//259 261//261 263//263 265//265 267//267 269//269
o ikat_ekor.001
v 0.825063 0.107481 -0.833417
v 0.975062 -0.272519 -1.033417
v 0.777890 0.093740 -0.842689
v 0.927890 -0.286260 -1.042689
v 0.752828 0.066260 -0.809272
v 0.902828 -0.313740 -1.009272
v 0.774938 0.052519 -0.766583
v 0.924937 -0.327481 -0.966583
v 0.822110 0.066260 -0.757311
v 0.972110 -0.313740 -0.957311
v 0.847172 0.093740 -0.790728
v 0.997172 -0.286260 -0.990728
vn 0.1960 0.9451 -0.2614
vn 0.5984 -0.0741 -0.7978
vn -0.5516 0.7274 -0.4083
vn -0.1492 -0.2918 -0.9448
vn -0.9487 0.2918 0.1213
vn -0.5464 -0.7274 -0.4152
vn -0.5984 0.0741 0.7978
vn -0.1960 -0.9451 0.2614
vn 0.1492 0.2918 0.9448
vn 0.5516 -0.7274 0.4083
vn 0.5464 0.7274 0.4152
vn 0.9487 -0.2918 -0.1213
s 1
usemtl ikat
f 271//271 272//272 274//274 273//273
f 273//273 274//274 276//276 275//275
f 275//275 276//276 278//278 277//277
f 277//277 278//278 280//280 279//279
f 274//274 272//272 282//282 280//280 278//278 276//276
f 279//279 280//280 282//282 281//281
f 281//281 282//282 272//272 271//271
f 271//271 273//273 275//275 277//277 279//279 281//281
