# Blender 5.1.1
# www.blender.org
mtllib koboi.mtl
o koboi_tepi
v 1.000000 0.000000 0.000000
v 0.991445 0.000000 -0.117474
v 0.965926 0.000000 -0.232937
v 0.923880 0.000000 -0.344415
v 0.866025 0.000000 -0.450000
v 0.793353 0.000000 -0.547885
v 0.707107 0.000000 -0.636396
v 0.608761 0.000000 -0.714018
v 0.500000 0.000000 -0.779423
v 0.382683 0.000000 -0.831492
v 0.258819 0.000000 -0.869333
v 0.130526 0.000000 -0.892300
v 0.000000 0.000000 -0.900000
v -0.130526 0.000000 -0.892300
v -0.258819 0.000000 -0.869333
v -0.382683 0.000000 -0.831492
v -0.500000 0.000000 -0.779423
v -0.608761 0.000000 -0.714018
v -0.707107 0.000000 -0.636396
v -0.793353 0.000000 -0.547885
v -0.866025 0.000000 -0.450000
v -0.923880 0.000000 -0.344415
v -0.965926 0.000000 -0.232937
v -0.991445 0.000000 -0.117474
v -1.000000 0.000000 -0.000000
v -0.991445 0.000000 0.117474
v -0.965926 0.000000 0.232937
v -0.923880 0.000000 0.344415
v -0.866025 0.000000 0.450000
v -0.793353 0.000000 0.547885
v -0.707107 0.000000 0.636396
v -0.608761 0.000000 0.714018
v -0.500000 0.000000 0.779423
v -0.382683 0.000000 0.831492
v -0.258819 0.000000 0.869333
v -0.130526 0.000000 0.892300
v -0.000000 0.000000 0.900000
v 0.130526 0.000000 0.892300
v 0.258819 0.000000 0.869333
v 0.382683 0.000000 0.831492
v 0.500000 0.000000 0.779423
v 0.608761 0.000000 0.714018
v 0.707107 0.000000 0.636396
v 0.793353 0.000000 0.547885
v 0.866025 0.000000 0.450000
v 0.923880 0.000000 0.344415
v 0.965926 0.000000 0.232937
v 0.991445 0.000000 0.117474
v 1.400000 0.046550 0.000000
v 1.388023 0.043213 -0.164463
v 1.352296 0.038756 -0.326112
v 1.293431 0.033301 -0.482181
v 1.212436 0.027016 -0.630000
v 1.110695 0.020110 -0.767039
v 0.989949 0.012830 -0.890955
v 0.852266 0.005450 -0.999625
v 0.700000 -0.001729 -1.091192
v 0.535757 -0.008382 -1.164088
v 0.362347 -0.014155 -1.217067
v 0.182737 -0.018625 -1.249220
v 0.000000 -0.021000 -1.260000
v -0.182737 -0.018625 -1.249220
v -0.362347 -0.014155 -1.217067
v -0.535757 -0.008382 -1.164088
v -0.700000 -0.001729 -1.091192
v -0.852266 0.005450 -0.999625
v -0.989949 0.012830 -0.890955
v -1.110695 0.020110 -0.767039
v -1.212436 0.027016 -0.630000
v -1.293431 0.033301 -0.482181
v -1.352296 0.038756 -0.326112
v -1.388023 0.043213 -0.164463
v -1.400000 0.046550 -0.000000
v -1.388023 0.043213 0.164463
v -1.352296 0.038756 0.326112
v -1.293431 0.033301 0.482181
v -1.212436 0.027016 0.630000
v -1.110695 0.020110 0.767039
v -0.989949 0.012830 0.890955
v -0.852266 0.005450 0.999625
v -0.700000 -0.001729 1.091192
v -0.535757 -0.008382 1.164088
v -0.362347 -0.014155 1.217067
v -0.182737 -0.018625 1.249220
v -0.000000 -0.021000 1.260000
v 0.182737 -0.018625 1.249220
v 0.362347 -0.014155 1.217067
v 0.535757 -0.008382 1.164088
v 0.700000 -0.001729 1.091192
v 0.852266 0.005450 0.999625
v 0.989949 0.012830 0.890955
v 1.110695 0.020110 0.767039
v 1.212436 0.027016 0.630000
v 1.293431 0.033301 0.482181
v 1.352296 0.038756 0.326112
v 1.388023 0.043213 0.164463
v 1.800000 0.223750 0.000000
v 1.784601 0.215139 -0.211452
v 1.738667 0.201272 -0.419287
v 1.662983 0.182594 -0.619947
v 1.558846 0.159767 -0.810000
v 1.428036 0.133651 -0.986194
v 1.272792 0.105277 -1.145513
v 1.095771 0.075825 -1.285232
v 0.900000 0.046601 -1.402961
v 0.688830 0.019027 -1.496685
v 0.465874 -0.005322 -1.564800
v 0.234947 -0.024535 -1.606141
v 0.000000 -0.035000 -1.620000
v -0.234947 -0.024535 -1.606141
v -0.465874 -0.005322 -1.564800
v -0.688830 0.019027 -1.496685
v -0.900000 0.046601 -1.402961
v -1.095771 0.075825 -1.285232
v -1.272792 0.105277 -1.145513
v -1.428036 0.133651 -0.986194
v -1.558846 0.159767 -0.810000
v -1.662983 0.182594 -0.619947
v -1.738667 0.201272 -0.419287
v -1.784601 0.215139 -0.211452
v -1.800000 0.223750 -0.000000
v -1.784601 0.215139 0.211452
v -1.738667 0.201272 0.419287
v -1.662983 0.182594 0.619947
v -1.558846 0.159767 0.810000
v -1.428036 0.133651 0.986194
v -1.272792 0.105277 1.145513
v -1.095771 0.075825 1.285232
v -0.900000 0.046601 1.402961
v -0.688830 0.019027 1.496685
v -0.465874 -0.005322 1.564800
v -0.234947 -0.024535 1.606141
v -0.000000 -0.035000 1.620000
v 0.234947 -0.024535 1.606141
v 0.465874 -0.005322 1.564800
v 0.688830 0.019027 1.496685
v 0.900000 0.046601 1.402961
v 1.095771 0.075825 1.285232
v 1.272792 0.105277 1.145513
v 1.428036 0.133651 0.986194
v 1.558846 0.159767 0.810000
v 1.662983 0.182594 0.619947
v 1.738667 0.201272 0.419287
v 1.784601 0.215139 0.211452
v 2.050000 0.410000 0.000000
v 2.032462 0.397302 -0.240821
v 1.980148 0.375215 -0.477521
v 1.893953 0.344487 -0.706051
v 1.775352 0.306252 -0.922500
v 1.626374 0.261999 -1.123165
v 1.449569 0.213523 -1.304612
v 1.247961 0.162889 -1.463737
v 1.025000 0.112389 -1.597817
v 0.784501 0.064526 -1.704558
v 0.530579 0.022080 -1.782133
v 0.267579 -0.011567 -1.829216
v 0.000000 -0.030000 -1.845000
v -0.267579 -0.011567 -1.829216
v -0.530579 0.022080 -1.782133
v -0.784501 0.064526 -1.704558
v -1.025000 0.112389 -1.597817
v -1.247961 0.162889 -1.463737
v -1.449569 0.213523 -1.304612
v -1.626374 0.261999 -1.123165
v -1.775352 0.306252 -0.922500
v -1.893953 0.344487 -0.706051
v -1.980148 0.375215 -0.477521
v -2.032462 0.397302 -0.240821
v -2.050000 0.410000 -0.000000
v -2.032462 0.397302 0.240821
v -1.980148 0.375215 0.477521
v -1.893953 0.344487 0.706051
v -1.775352 0.306252 0.922500
v -1.626374 0.261999 1.123165
v -1.449569 0.213523 1.304612
v -1.247961 0.162889 1.463737
v -1.025000 0.112389 1.597817
v -0.784501 0.064526 1.704558
v -0.530579 0.022080 1.782133
v -0.267579 -0.011567 1.829216
v -0.000000 -0.030000 1.845000
v 0.267579 -0.011567 1.829216
v 0.530579 0.022080 1.782133
v 0.784501 0.064526 1.704558
v 1.025000 0.112389 1.597817
v 1.247961 0.162889 1.463737
v 1.449569 0.213523 1.304612
v 1.626374 0.261999 1.123165
v 1.775352 0.306252 0.922500
v 1.893953 0.344487 0.706051
v 1.980148 0.375215 0.477521
v 2.032462 0.397302 0.240821
v 2.100000 0.468950 0.000000
v 2.082034 0.455362 -0.246695
v 2.028444 0.431415 -0.489168
v 1.940147 0.397927 -0.723272
v 1.818653 0.356143 -0.945000
v 1.666042 0.307696 -1.150559
v 1.484924 0.254561 -1.336432
v 1.278399 0.199009 -1.499438
v 1.050000 0.143562 -1.636788
v 0.803635 0.090975 -1.746132
v 0.543520 0.044311 -1.825600
v 0.274105 0.007295 -1.873831
v 0.000000 -0.013000 -1.890000
v -0.274105 0.007295 -1.873831
v -0.543520 0.044311 -1.825600
v -0.803635 0.090975 -1.746132
v -1.050000 0.143562 -1.636788
v -1.278399 0.199009 -1.499438
v -1.484924 0.254561 -1.336432
v -1.666042 0.307696 -1.150559
v -1.818653 0.356143 -0.945000
v -1.940147 0.397927 -0.723272
v -2.028444 0.431415 -0.489168
v -2.082034 0.455362 -0.246695
v -2.100000 0.468950 -0.000000
v -2.082034 0.455362 0.246695
v -2.028444 0.431415 0.489168
v -1.940147 0.397927 0.723272
v -1.818653 0.356143 0.945000
v -1.666042 0.307696 1.150559
v -1.484924 0.254561 1.336432
v -1.278399 0.199009 1.499438
v -1.050000 0.143562 1.636788
v -0.803635 0.090975 1.746132
v -0.543520 0.044311 1.825600
v -0.274105 0.007295 1.873831
v -0.000000 -0.013000 1.890000
v 0.274105 0.007295 1.873831
v 0.543520 0.044311 1.825600
v 0.803635 0.090975 1.746132
v 1.050000 0.143562 1.636788
v 1.278399 0.199009 1.499438
v 1.484924 0.254561 1.336432
v 1.666042 0.307696 1.150559
v 1.818653 0.356143 0.945000
v 1.940147 0.397927 0.723272
v 2.028444 0.431415 0.489168
v 2.082034 0.455362 0.246695
v 2.050000 0.440000 0.000000
v 2.032462 0.427302 -0.240821
v 1.980148 0.405215 -0.477521
v 1.893953 0.374487 -0.706051
v 1.775352 0.336252 -0.922500
v 1.626374 0.291999 -1.123165
v 1.449569 0.243523 -1.304612
v 1.247961 0.192889 -1.463737
v 1.025000 0.142389 -1.597817
v 0.784501 0.094526 -1.704558
v 0.530579 0.052080 -1.782133
v 0.267579 0.018433 -1.829216
v 0.000000 0.000000 -1.845000
v -0.267579 0.018433 -1.829216
v -0.530579 0.052080 -1.782133
v -0.784501 0.094526 -1.704558
v -1.025000 0.142389 -1.597817
v -1.247961 0.192889 -1.463737
v -1.449569 0.243523 -1.304612
v -1.626374 0.291999 -1.123165
v -1.775352 0.336252 -0.922500
v -1.893953 0.374487 -0.706051
v -1.980148 0.405215 -0.477521
v -2.032462 0.427302 -0.240821
v -2.050000 0.440000 -0.000000
v -2.032462 0.427302 0.240821
v -1.980148 0.405215 0.477521
v -1.893953 0.374487 0.706051
v -1.775352 0.336252 0.922500
v -1.626374 0.291999 1.123165
v -1.449569 0.243523 1.304612
v -1.247961 0.192889 1.463737
v -1.025000 0.142389 1.597817
v -0.784501 0.094526 1.704558
v -0.530579 0.052080 1.782133
v -0.267579 0.018433 1.829216
v -0.000000 0.000000 1.845000
v 0.267579 0.018433 1.829216
v 0.530579 0.052080 1.782133
v 0.784501 0.094526 1.704558
v 1.025000 0.142389 1.597817
v 1.247961 0.192889 1.463737
v 1.449569 0.243523 1.304612
v 1.626374 0.291999 1.123165
v 1.775352 0.336252 0.922500
v 1.893953 0.374487 0.706051
v 1.980148 0.405215 0.477521
v 2.032462 0.427302 0.240821
v 1.400000 0.086550 0.000000
v 1.388023 0.083213 -0.164463
v 1.352296 0.078756 -0.326112
v 1.293431 0.073301 -0.482181
v 1.212436 0.067016 -0.630000
v 1.110695 0.060110 -0.767039
v 0.989949 0.052830 -0.890955
v 0.852266 0.045450 -0.999625
v 0.700000 0.038271 -1.091192
v 0.535757 0.031618 -1.164088
v 0.362347 0.025845 -1.217067
v 0.182737 0.021375 -1.249220
v 0.000000 0.019000 -1.260000
v -0.182737 0.021375 -1.249220
v -0.362347 0.025845 -1.217067
v -0.535757 0.031618 -1.164088
v -0.700000 0.038271 -1.091192
v -0.852266 0.045450 -0.999625
v -0.989949 0.052830 -0.890955
v -1.110695 0.060110 -0.767039
v -1.212436 0.067016 -0.630000
v -1.293431 0.073301 -0.482181
v -1.352296 0.078756 -0.326112
v -1.388023 0.083213 -0.164463
v -1.400000 0.086550 -0.000000
v -1.388023 0.083213 0.164463
v -1.352296 0.078756 0.326112
v -1.293431 0.073301 0.482181
v -1.212436 0.067016 0.630000
v -1.110695 0.060110 0.767039
v -0.989949 0.052830 0.890955
v -0.852266 0.045450 0.999625
v -0.700000 0.038271 1.091192
v -0.535757 0.031618 1.164088
v -0.362347 0.025845 1.217067
v -0.182737 0.021375 1.249220
v -0.000000 0.019000 1.260000
v 0.182737 0.021375 1.249220
v 0.362347 0.025845 1.217067
v 0.535757 0.031618 1.164088
v 0.700000 0.038271 1.091192
v 0.852266 0.045450 0.999625
v 0.989949 0.052830 0.890955
v 1.110695 0.060110 0.767039
v 1.212436 0.067016 0.630000
v 1.293431 0.073301 0.482181
v 1.352296 0.078756 0.326112
v 1.388023 0.083213 0.164463
v 1.000000 0.040000 0.000000
v 0.991445 0.040000 -0.117474
v 0.965926 0.040000 -0.232937
v 0.923880 0.040000 -0.344415
v 0.866025 0.040000 -0.450000
v 0.793353 0.040000 -0.547885
v 0.707107 0.040000 -0.636396
v 0.608761 0.040000 -0.714018
v 0.500000 0.040000 -0.779423
v 0.382683 0.040000 -0.831492
v 0.258819 0.040000 -0.869333
v 0.130526 0.040000 -0.892300
v 0.000000 0.040000 -0.900000
v -0.130526 0.040000 -0.892300
v -0.258819 0.040000 -0.869333
v -0.382683 0.040000 -0.831492
v -0.500000 0.040000 -0.779423
v -0.608761 0.040000 -0.714018
v -0.707107 0.040000 -0.636396
v -0.793353 0.040000 -0.547885
v -0.866025 0.040000 -0.450000
v -0.923880 0.040000 -0.344415
v -0.965926 0.040000 -0.232937
v -0.991445 0.040000 -0.117474
v -1.000000 0.040000 -0.000000
v -0.991445 0.040000 0.117474
v -0.965926 0.040000 0.232937
v -0.923880 0.040000 0.344415
v -0.866025 0.040000 0.450000
v -0.793353 0.040000 0.547885
v -0.707107 0.040000 0.636396
v -0.608761 0.040000 0.714018
v -0.500000 0.040000 0.779423
v -0.382683 0.040000 0.831492
v -0.258819 0.040000 0.869333
v -0.130526 0.040000 0.892300
v -0.000000 0.040000 0.900000
v 0.130526 0.040000 0.892300
v 0.258819 0.040000 0.869333
v 0.382683 0.040000 0.831492
v 0.500000 0.040000 0.779423
v 0.608761 0.040000 0.714018
v 0.707107 0.040000 0.636396
v 0.793353 0.040000 0.547885
v 0.866025 0.040000 0.450000
v 0.923880 0.040000 0.344415
v 0.965926 0.040000 0.232937
v 0.991445 0.040000 0.117474
vn 0.1122 -0.9937 -0.0000
vn 0.1075 -0.9942 -0.0017
vn 0.0966 -0.9953 -0.0104
vn 0.0832 -0.9964 -0.0156
vn 0.0684 -0.9975 -0.0166
vn 0.0533 -0.9985 -0.0133
vn 0.0391 -0.9992 -0.0061
vn 0.0268 -0.9996 0.0043
vn 0.0173 -0.9997 0.0168
vn 0.0108 -0.9995 0.0299
vn 0.0071 -0.9991 0.0422
vn 0.0051 -0.9986 0.0517
vn -0.0000 -0.9985 0.0555
vn -0.0051 -0.9986 0.0517
vn -0.0071 -0.9991 0.0422
vn -0.0108 -0.9995 0.0299
vn -0.0173 -0.9997 0.0168
vn -0.0268 -0.9996 0.0043
vn -0.0391 -0.9992 -0.0061
vn -0.0533 -0.9985 -0.0133
vn -0.0684 -0.9975 -0.0166
vn -0.0832 -0.9964 -0.0156
vn -0.0966 -0.9953 -0.0104
vn -0.1075 -0.9942 -0.0017
vn -0.1122 -0.9937 -0.0000
vn -0.1075 -0.9942 0.0017
vn -0.0966 -0.9953 0.0104
vn -0.0832 -0.9964 0.0156
vn -0.0684 -0.9975 0.0166
vn -0.0533 -0.9985 0.0133
vn -0.0391 -0.9992 0.0061
vn -0.0268 -0.9996 -0.0043
vn -0.0173 -0.9997 -0.0168
vn -0.0108 -0.9995 -0.0299
vn -0.0071 -0.9991 -0.0422
vn -0.0051 -0.9986 -0.0517
vn -0.0000 -0.9985 -0.0555
vn 0.0051 -0.9986 -0.0517
vn 0.0071 -0.9991 -0.0422
vn 0.0108 -0.9995 -0.0299
vn 0.0173 -0.9997 -0.0168
vn 0.0268 -0.9996 -0.0043
vn 0.0391 -0.9992 0.0061
vn 0.0533 -0.9985 0.0133
vn 0.0684 -0.9975 0.0166
vn 0.0832 -0.9964 0.0156
vn 0.0966 -0.9953 0.0104
vn 0.1075 -0.9942 0.0017
vn 0.2667 -0.9638 -0.0000
vn 0.2600 -0.9655 -0.0115
vn 0.2439 -0.9692 -0.0351
vn 0.2213 -0.9738 -0.0529
vn 0.1938 -0.9790 -0.0634
vn 0.1636 -0.9843 -0.0658
vn 0.1327 -0.9893 -0.0598
vn 0.1034 -0.9936 -0.0464
vn 0.0775 -0.9966 -0.0274
vn 0.0561 -0.9984 -0.0052
vn 0.0392 -0.9991 0.0168
vn 0.0244 -0.9991 0.0348
vn -0.0000 -0.9991 0.0422
vn -0.0244 -0.9991 0.0348
vn -0.0392 -0.9991 0.0168
vn -0.0561 -0.9984 -0.0052
vn -0.0775 -0.9966 -0.0274
vn -0.1034 -0.9936 -0.0464
vn -0.1327 -0.9893 -0.0598
vn -0.1636 -0.9843 -0.0658
vn -0.1938 -0.9790 -0.0634
vn -0.2213 -0.9738 -0.0529
vn -0.2439 -0.9692 -0.0351
vn -0.2600 -0.9655 -0.0115
vn -0.2667 -0.9638 -0.0000
vn -0.2600 -0.9655 0.0115
vn -0.2439 -0.9692 0.0351
vn -0.2213 -0.9738 0.0529
vn -0.1938 -0.9790 0.0634
vn -0.1636 -0.9843 0.0658
vn -0.1327 -0.9893 0.0598
vn -0.1034 -0.9936 0.0464
vn -0.0775 -0.9966 0.0274
vn -0.0561 -0.9984 0.0052
vn -0.0392 -0.9991 -0.0168
vn -0.0244 -0.9991 -0.0348
vn -0.0000 -0.9991 -0.0422
vn 0.0244 -0.9991 -0.0348
vn 0.0392 -0.9991 -0.0168
vn 0.0561 -0.9984 0.0052
vn 0.0775 -0.9966 0.0274
vn 0.1034 -0.9936 0.0464
vn 0.1327 -0.9893 0.0598
vn 0.1636 -0.9843 0.0658
vn 0.1938 -0.9790 0.0634
vn 0.2213 -0.9738 0.0529
vn 0.2439 -0.9692 0.0351
vn 0.2600 -0.9655 0.0115
vn 0.5063 -0.8624 -0.0000
vn 0.4981 -0.8667 -0.0276
vn 0.4771 -0.8757 -0.0736
vn 0.4450 -0.8885 -0.1118
vn 0.4034 -0.9044 -0.1393
vn 0.3547 -0.9222 -0.1538
vn 0.3019 -0.9408 -0.1541
vn 0.2480 -0.9585 -0.1407
vn 0.1964 -0.9737 -0.1156
vn 0.1494 -0.9853 -0.0825
vn 0.1076 -0.9931 -0.0471
vn 0.0663 -0.9977 -0.0169
vn -0.0000 -1.0000 -0.0042
vn -0.0663 -0.9977 -0.0169
vn -0.1076 -0.9931 -0.0471
vn -0.1494 -0.9853 -0.0825
vn -0.1964 -0.9737 -0.1156
vn -0.2480 -0.9585 -0.1407
vn -0.3019 -0.9408 -0.1541
vn -0.3547 -0.9222 -0.1538
vn -0.4034 -0.9044 -0.1393
vn -0.4450 -0.8885 -0.1118
vn -0.4771 -0.8757 -0.0736
vn -0.4981 -0.8667 -0.0276
vn -0.5063 -0.8624 -0.0000
vn -0.4981 -0.8667 0.0276
vn -0.4771 -0.8757 0.0736
vn -0.4450 -0.8885 0.1118
vn -0.4034 -0.9044 0.1393
vn -0.3547 -0.9222 0.1538
vn -0.3019 -0.9408 0.1541
vn -0.2480 -0.9585 0.1407
vn -0.1964 -0.9737 0.1156
vn -0.1494 -0.9853 0.0825
vn -0.1076 -0.9931 0.0471
vn -0.0663 -0.9977 0.0169
vn -0.0000 -1.0000 0.0042
vn 0.0663 -0.9977 0.0169
vn 0.1076 -0.9931 0.0471
vn 0.1494 -0.9853 0.0825
vn 0.1964 -0.9737 0.1156
vn 0.2480 -0.9585 0.1407
vn 0.3019 -0.9408 0.1541
vn 0.3547 -0.9222 0.1538
vn 0.4034 -0.9044 0.1393
vn 0.4450 -0.8885 0.1118
vn 0.4771 -0.8757 0.0736
vn 0.4981 -0.8667 0.0276
vn 0.6870 -0.7267 -0.0000
vn 0.6792 -0.7323 -0.0489
vn 0.6588 -0.7432 -0.1168
vn 0.6258 -0.7595 -0.1777
vn 0.5814 -0.7809 -0.2285
vn 0.5274 -0.8067 -0.2666
vn 0.4658 -0.8360 -0.2901
vn 0.3990 -0.8672 -0.2981
vn 0.3296 -0.8981 -0.2912
vn 0.2599 -0.9265 -0.2721
vn 0.1904 -0.9505 -0.2457
vn 0.1151 -0.9687 -0.2199
vn -0.0000 -0.9781 -0.2083
vn -0.1151 -0.9687 -0.2199
vn -0.1904 -0.9505 -0.2457
vn -0.2599 -0.9265 -0.2721
vn -0.3296 -0.8981 -0.2912
vn -0.3990 -0.8672 -0.2981
vn -0.4658 -0.8360 -0.2901
vn -0.5274 -0.8067 -0.2666
vn -0.5814 -0.7809 -0.2285
vn -0.6258 -0.7595 -0.1777
vn -0.6588 -0.7432 -0.1168
vn -0.6792 -0.7323 -0.0489
vn -0.6870 -0.7267 -0.0000
vn -0.6792 -0.7323 0.0489
vn -0.6588 -0.7432 0.1168
vn -0.6258 -0.7595 0.1777
vn -0.5814 -0.7809 0.2285
vn -0.5274 -0.8067 0.2666
vn -0.4658 -0.8360 0.2901
vn -0.3990 -0.8672 0.2981
vn -0.3296 -0.8981 0.2912
vn -0.2599 -0.9265 0.2721
vn -0.1904 -0.9505 0.2457
vn -0.1151 -0.9687 0.2199
vn -0.0000 -0.9781 0.2083
vn 0.1151 -0.9687 0.2199
vn 0.1904 -0.9505 0.2457
vn 0.2599 -0.9265 0.2721
vn 0.3296 -0.8981 0.2912
vn 0.3990 -0.8672 0.2981
vn 0.4658 -0.8360 0.2901
vn 0.5274 -0.8067 0.2666
vn 0.5814 -0.7809 0.2285
vn 0.6258 -0.7595 0.1777
vn 0.6588 -0.7432 0.1168
vn 0.6792 -0.7323 0.0489
vn 0.7711 0.6367 -0.0000
vn 0.7727 0.6153 -0.1560
vn 0.7503 0.5950 -0.2882
vn 0.7146 0.5647 -0.4129
vn 0.6681 0.5243 -0.5280
vn 0.6128 0.4739 -0.6324
vn 0.5499 0.4138 -0.7255
vn 0.4796 0.3454 -0.8067
vn 0.4013 0.2710 -0.8749
vn 0.3144 0.1950 -0.9291
vn 0.2183 0.1227 -0.9681
vn 0.1137 0.0599 -0.9917
vn -0.0000 0.0100 -1.0000
vn -0.1137 0.0599 -0.9917
vn -0.2183 0.1227 -0.9681
vn -0.3144 0.1950 -0.9291
vn -0.4013 0.2710 -0.8749
vn -0.4796 0.3454 -0.8067
vn -0.5499 0.4138 -0.7255
vn -0.6128 0.4739 -0.6324
vn -0.6681 0.5243 -0.5280
vn -0.7146 0.5647 -0.4129
vn -0.7503 0.5950 -0.2882
vn -0.7727 0.6153 -0.1560
vn -0.7711 0.6367 -0.0000
vn -0.7727 0.6153 0.1560
vn -0.7503 0.5950 0.2882
vn -0.7146 0.5647 0.4129
vn -0.6681 0.5243 0.5280
vn -0.6128 0.4739 0.6324
vn -0.5499 0.4138 0.7255
vn -0.4796 0.3454 0.8067
vn -0.4013 0.2710 0.8749
vn -0.3144 0.1950 0.9291
vn -0.2183 0.1227 0.9681
vn -0.1137 0.0599 0.9917
vn -0.0000 0.0100 1.0000
vn 0.1137 0.0599 0.9917
vn 0.2183 0.1227 0.9681
vn 0.3144 0.1950 0.9291
vn 0.4013 0.2710 0.8749
vn 0.4796 0.3454 0.8067
vn 0.5499 0.4138 0.7255
vn 0.6128 0.4739 0.6324
vn 0.6681 0.5243 0.5280
vn 0.7146 0.5647 0.4129
vn 0.7503 0.5950 0.2882
vn 0.7727 0.6153 0.1560
vn -0.4866 0.8736 -0.0000
vn -0.4790 0.8777 0.0131
vn -0.4578 0.8878 0.0471
vn -0.4253 0.9021 0.0725
vn -0.3833 0.9196 0.0858
vn -0.3344 0.9386 0.0848
vn -0.2819 0.9570 0.0685
vn -0.2297 0.9725 0.0381
vn -0.1813 0.9834 -0.0033
vn -0.1393 0.9890 -0.0503
vn -0.1040 0.9899 -0.0963
vn -0.0688 0.9887 -0.1334
vn -0.0000 0.9888 -0.1492
vn 0.0688 0.9887 -0.1334
vn 0.1040 0.9899 -0.0963
vn 0.1393 0.9890 -0.0503
vn 0.1813 0.9834 -0.0033
vn 0.2297 0.9725 0.0381
vn 0.2819 0.9570 0.0685
vn 0.3344 0.9386 0.0848
vn 0.3833 0.9196 0.0858
vn 0.4253 0.9021 0.0725
vn 0.4578 0.8878 0.0471
vn 0.4790 0.8777 0.0131
vn 0.4866 0.8736 -0.0000
vn 0.4790 0.8777 -0.0131
vn 0.4578 0.8878 -0.0471
vn 0.4253 0.9021 -0.0725
vn 0.3833 0.9196 -0.0858
vn 0.3344 0.9386 -0.0848
vn 0.2819 0.9570 -0.0685
vn 0.2297 0.9725 -0.0381
vn 0.1813 0.9834 0.0033
vn 0.1393 0.9890 0.0503
vn 0.1040 0.9899 0.0963
vn 0.0688 0.9887 0.1334
vn -0.0000 0.9888 0.1492
vn -0.0688 0.9887 0.1334
vn -0.1040 0.9899 0.0963
vn -0.1393 0.9890 0.0503
vn -0.1813 0.9834 0.0033
vn -0.2297 0.9725 -0.0381
vn -0.2819 0.9570 -0.0685
vn -0.3344 0.9386 -0.0848
vn -0.3833 0.9196 -0.0858
vn -0.4253 0.9021 -0.0725
vn -0.4578 0.8878 -0.0471
vn -0.4790 0.8777 -0.0131
vn -0.3074 0.9516 -0.0000
vn -0.3006 0.9537 0.0122
vn -0.2843 0.9580 0.0377
vn -0.2611 0.9636 0.0573
vn -0.2324 0.9701 0.0694
vn -0.2003 0.9770 0.0730
vn -0.1669 0.9836 0.0677
vn -0.1344 0.9894 0.0545
vn -0.1047 0.9939 0.0350
vn -0.0790 0.9968 0.0119
vn -0.0573 0.9983 -0.0113
vn -0.0363 0.9989 -0.0303
vn -0.0000 0.9993 -0.0382
vn 0.0363 0.9989 -0.0303
vn 0.0573 0.9983 -0.0113
vn 0.0790 0.9968 0.0119
vn 0.1047 0.9939 0.0350
vn 0.1344 0.9894 0.0545
vn 0.1669 0.9836 0.0677
vn 0.2003 0.9770 0.0730
vn 0.2324 0.9701 0.0694
vn 0.2611 0.9636 0.0573
vn 0.2843 0.9580 0.0377
vn 0.3006 0.9537 0.0122
vn 0.3074 0.9516 -0.0000
vn 0.3006 0.9537 -0.0122
vn 0.2843 0.9580 -0.0377
vn 0.2611 0.9636 -0.0573
vn 0.2324 0.9701 -0.0694
vn 0.2003 0.9770 -0.0730
vn 0.1669 0.9836 -0.0677
vn 0.1344 0.9894 -0.0545
vn 0.1047 0.9939 -0.0350
vn 0.0790 0.9968 -0.0119
vn 0.0573 0.9983 0.0113
vn 0.0363 0.9989 0.0303
vn -0.0000 0.9993 0.0382
vn -0.0363 0.9989 0.0303
vn -0.0573 0.9983 0.0113
vn -0.0790 0.9968 -0.0119
vn -0.1047 0.9939 -0.0350
vn -0.1344 0.9894 -0.0545
vn -0.1669 0.9836 -0.0677
vn -0.2003 0.9770 -0.0730
vn -0.2324 0.9701 -0.0694
vn -0.2611 0.9636 -0.0573
vn -0.2843 0.9580 -0.0377
vn -0.3006 0.9537 -0.0122
vn -0.1122 0.9937 -0.0000
vn -0.1075 0.9942 0.0017
vn -0.0966 0.9953 0.0104
vn -0.0832 0.9964 0.0156
vn -0.0684 0.9975 0.0166
vn -0.0533 0.9985 0.0133
vn -0.0391 0.9992 0.0061
vn -0.0268 0.9996 -0.0043
vn -0.0173 0.9997 -0.0168
vn -0.0108 0.9995 -0.0299
vn -0.0071 0.9991 -0.0422
vn -0.0051 0.9986 -0.0517
vn -0.0000 0.9985 -0.0555
vn 0.0051 0.9986 -0.0517
vn 0.0071 0.9991 -0.0422
vn 0.0108 0.9995 -0.0299
vn 0.0173 0.9997 -0.0168
vn 0.0268 0.9996 -0.0043
vn 0.0391 0.9992 0.0061
vn 0.0533 0.9985 0.0133
vn 0.0684 0.9975 0.0166
vn 0.0832 0.9964 0.0156
vn 0.0966 0.9953 0.0104
vn 0.1075 0.9942 0.0017
vn 0.1122 0.9937 -0.0000
vn 0.1075 0.9942 -0.0017
vn 0.0966 0.9953 -0.0104
vn 0.0832 0.9964 -0.0156
vn 0.0684 0.9975 -0.0166
vn 0.0533 0.9985 -0.0133
vn 0.0391 0.9992 -0.0061
vn 0.0268 0.9996 0.0043
vn 0.0173 0.9997 0.0168
vn 0.0108 0.9995 0.0299
vn 0.0071 0.9991 0.0422
vn 0.0051 0.9986 0.0517
vn -0.0000 0.9985 0.0555
vn -0.0051 0.9986 0.0517
vn -0.0071 0.9991 0.0422
vn -0.0108 0.9995 0.0299
vn -0.0173 0.9997 0.0168
vn -0.0268 0.9996 0.0043
vn -0.0391 0.9992 -0.0061
vn -0.0533 0.9985 -0.0133
vn -0.0684 0.9975 -0.0166
vn -0.0832 0.9964 -0.0156
vn -0.0966 0.9953 -0.0104
vn -0.1075 0.9942 -0.0017
s 1
usemtl koboi
f 1//1 2//2 50//50 49//49
f 2//2 3//3 51//51 50//50
f 3//3 4//4 52//52 51//51
f 4//4 5//5 53//53 52//52
f 5//5 6//6 54//54 53//53
f 6//6 7//7 55//55 54//54
f 7//7 8//8 56//56 55//55
f 8//8 9//9 57//57 56//56
f 9//9 10//10 58//58 57//57
f 10//10 11//11 59//59 58//58
f 11//11 12//12 60//60 59//59
f 12//12 13//13 61//61 60//60
f 13//13 14//14 62//62 61//61
f 14//14 15//15 63//63 62//62
f 15//15 16//16 64//64 63//63
f 16//16 17//17 65//65 64//64
f 17//17 18//18 66//66 65//65
f 18//18 19//19 67//67 66//66
f 19//19 20//20 68//68 67//67
f 20//20 21//21 69//69 68//68
f 21//21 22//22 70//70 69//69
f 22//22 23//23 71//71 70//70
f 23//23 24//24 72//72 71//71
f 24//24 25//25 73//73 72//72
f 25//25 26//26 74//74 73//73
f 26//26 27//27 75//75 74//74
f 27//27 28//28 76//76 75//75
f 28//28 29//29 77//77 76//76
f 29//29 30//30 78//78 77//77
f 30//30 31//31 79//79 78//78
f 31//31 32//32 80//80 79//79
f 32//32 33//33 81//81 80//80
f 33//33 34//34 82//82 81//81
f 34//34 35//35 83//83 82//82
f 35//35 36//36 84//84 83//83
f 36//36 37//37 85//85 84//84
f 37//37 38//38 86//86 85//85
f 38//38 39//39 87//87 86//86
f 39//39 40//40 88//88 87//87
f 40//40 41//41 89//89 88//88
f 41//41 42//42 90//90 89//89
f 42//42 43//43 91//91 90//90
f 43//43 44//44 92//92 91//91
f 44//44 45//45 93//93 92//92
f 45//45 46//46 94//94 93//93
f 46//46 47//47 95//95 94//94
f 47//47 48//48 96//96 95//95
f 48//48 1//1 49//49 96//96
f 49//49 50//50 98//98 97//97
f 50//50 51//51 99//99 98//98
f 51//51 52//52 100//100 99//99
f 52//52 53//53 101//101 100//100
f 53//53 54//54 102//102 101//101
f 54//54 55//55 103//103 102//102
f 55//55 56//56 104//104 103//103
f 56//56 57//57 105//105 104//104
f 57//57 58//58 106//106 105//105
f 58//58 59//59 107//107 106//106
f 59//59 60//60 108//108 107//107
f 60//60 61//61 109//109 108//108
f 61//61 62//62 110//110 109//109
f 62//62 63//63 111//111 110//110
f 63//63 64//64 112//112 111//111
f 64//64 65//65 113//113 112//112
f 65//65 66//66 114//114 113//113
f 66//66 67//67 115//115 114//114
f 67//67 68//68 116//116 115//115
f 68//68 69//69 117//117 116//116
f 69//69 70//70 118//118 117//117
f 70//70 71//71 119//119 118//118
f 71//71 72//72 120//120 119//119
f 72//72 73//73 121//121 120//120
f 73//73 74//74 122//122 121//121
f 74//74 75//75 123//123 122//122
f 75//75 76//76 124//124 123//123
f 76//76 77//77 125//125 124//124
f 77//77 78//78 126//126 125//125
f 78//78 79//79 127//127 126//126
f 79//79 80//80 128//128 127//127
f 80//80 81//81 129//129 128//128
f 81//81 82//82 130//130 129//129
f 82//82 83//83 131//131 130//130
f 83//83 84//84 132//132 131//131
f 84//84 85//85 133//133 132//132
f 85//85 86//86 134//134 133//133
f 86//86 87//87 135//135 134//134
f 87//87 88//88 136//136 135//135
f 88//88 89//89 137//137 136//136
f 89//89 90//90 138//138 137//137
f 90//90 91//91 139//139 138//138
f 91//91 92//92 140//140 139//139
f 92//92 93//93 141//141 140//140
f 93//93 94//94 142//142 141//141
f 94//94 95//95 143//143 142//142
f 95//95 96//96 144//144 143//143
f 96//96 49//49 97//97 144//144
f 97//97 98//98 146//146 145//145
f 98//98 99//99 147//147 146//146
f 99//99 100//100 148//148 147//147
f 100//100 101//101 149//149 148//148
f 101//101 102//102 150//150 149//149
f 102//102 103//103 151//151 150//150
f 103//103 104//104 152//152 151//151
f 104//104 105//105 153//153 152//152
f 105//105 106//106 154//154 153//153
f 106//106 107//107 155//155 154//154
f 107//107 108//108 156//156 155//155
f 108//108 109//109 157//157 156//156
f 109//109 110//110 158//158 157//157
f 110//110 111//111 159//159 158//158
f 111//111 112//112 160//160 159//159
f 112//112 113//113 161//161 160//160
f 113//113 114//114 162//162 161//161
f 114//114 115//115 163//163 162//162
f 115//115 116//116 164//164 163//163
f 116//116 117//117 165//165 164//164
f 117//117 118//118 166//166 165//165
f 118//118 119//119 167//167 166//166
f 119//119 120//120 168//168 167//167
f 120//120 121//121 169//169 168//168
f 121//121 122//122 170//170 169//169
f 122//122 123//123 171//171 170//170
f 123//123 124//124 172//172 171//171
f 124//124 125//125 173//173 172//172
f 125//125 126//126 174//174 173//173
f 126//126 127//127 175//175 174//174
f 127//127 128//128 176//176 175//175
f 128//128 129//129 177//177 176//176
f 129//129 130//130 178//178 177//177
f 130//130 131//131 179//179 178//178
f 131//131 132//132 180//180 179//179
f 132//132 133//133 181//181 180//180
f 133//133 134//134 182//182 181//181
f 134//134 135//135 183//183 182//182
f 135//135 136//136 184//184 183//183
f 136//136 137//137 185//185 184//184
f 137//137 138//138 186//186 185//185
f 138//138 139//139 187//187 186//186
f 139//139 140//140 188//188 187//187
f 140//140 141//141 189//189 188//188
f 141//141 142//142 190//190 189//189
f 142//142 143//143 191//191 190//190
f 143//143 144//144 192//192 191//191
f 144//144 97//97 145//145 192//192
f 145//145 146//146 194//194 193//193
f 146//146 147//147 195//195 194//194
f 147//147 148//148 196//196 195//195
f 148//148 149//149 197//197 196//196
f 149//149 150//150 198//198 197//197
f 150//150 151//151 199//199 198//198
f 151//151 152//152 200//200 199//199
f 152//152 153//153 201//201 200//200
f 153//153 154//154 202//202 201//201
f 154//154 155//155 203//203 202//202
f 155//155 156//156 204//204 203//203
f 156//156 157//157 205//205 204//204
f 157//157 158//158 206//206 205//205
f 158//158 159//159 207//207 206//206
f 159//159 160//160 208//208 207//207
f 160//160 161//161 209//209 208//208
f 161//161 162//162 210//210 209//209
f 162//162 163//163 211//211 210//210
f 163//163 164//164 212//212 211//211
f 164//164 165//165 213//213 212//212
f 165//165 166//166 214//214 213//213
f 166//166 167//167 215//215 214//214
f 167//167 168//168 216//216 215//215
f 168//168 169//169 217//217 216//216
f 169//169 170//170 218//218 217//217
f 170//170 171//171 219//219 218//218
f 171//171 172//172 220//220 219//219
f 172//172 173//173 221//221 220//220
f 173//173 174//174 222//222 221//221
f 174//174 175//175 223//223 222//222
f 175//175 176//176 224//224 223//223
f 176//176 177//177 225//225 224//224
f 177//177 178//178 226//226 225//225
f 178//178 179//179 227//227 226//226
f 179//179 180//180 228//228 227//227
f 180//180 181//181 229//229 228//228
f 181//181 182//182 230//230 229//229
f 182//182 183//183 231//231 230//230
f 183//183 184//184 232//232 231//231
f 184//184 185//185 233//233 232//232
f 185//185 186//186 234//234 233//233
f 186//186 187//187 235//235 234//234
f 187//187 188//188 236//236 235//235
f 188//188 189//189 237//237 236//236
f 189//189 190//190 238//238 237//237
f 190//190 191//191 239//239 238//238
f 191//191 192//192 240//240 239//239
f 192//192 145//145 193//193 240//240
f 193//193 194//194 242//242 241//241
f 194//194 195//195 243//243 242//242
f 195//195 196//196 244//244 243//243
f 196//196 197//197 245//245 244//244
f 197//197 198//198 246//246 245//245
f 198//198 199//199 247//247 246//246
f 199//199 200//200 248//248 247//247
f 200//200 201//201 249//249 248//248
f 201//201 202//202 250//250 249//249
f 202//202 203//203 251//251 250//250
f 203//203 204//204 252//252 251//251
f 204//204 205//205 253//253 252//252
f 205//205 206//206 254//254 253//253
f 206//206 207//207 255//255 254//254
f 207//207 208//208 256//256 255//255
f 208//208 209//209 257//257 256//256
f 209//209 210//210 258//258 257//257
f 210//210 211//211 259//259 258//258
f 211//211 212//212 260//260 259//259
f 212//212 213//213 261//261 260//260
f 213//213 214//214 262//262 261//261
f 214//214 215//215 263//263 262//262
f 215//215 216//216 264//264 263//263
f 216//216 217//217 265//265 264//264
f 217//217 218//218 266//266 265//265
f 218//218 219//219 267//267 266//266
f 219//219 220//220 268//268 267//267
f 220//220 221//221 269//269 268//268
f 221//221 222//222 270//270 269//269
f 222//222 223//223 271//271 270//270
f 223//223 224//224 272//272 271//271
f 224//224 225//225 273//273 272//272
f 225//225 226//226 274//274 273//273
f 226//226 227//227 275//275 274//274
f 227//227 228//228 276//276 275//275
f 228//228 229//229 277//277 276//276
f 229//229 230//230 278//278 277//277
f 230//230 231//231 279//279 278//278
f 231//231 232//232 280//280 279//279
f 232//232 233//233 281//281 280//280
f 233//233 234//234 282//282 281//281
f 234//234 235//235 283//283 282//282
f 235//235 236//236 284//284 283//283
f 236//236 237//237 285//285 284//284
f 237//237 238//238 286//286 285//285
f 238//238 239//239 287//287 286//286
f 239//239 240//240 288//288 287//287
f 240//240 193//193 241//241 288//288
f 241//241 242//242 290//290 289//289
f 242//242 243//243 291//291 290//290
f 243//243 244//244 292//292 291//291
f 244//244 245//245 293//293 292//292
f 245//245 246//246 294//294 293//293
f 246//246 247//247 295//295 294//294
f 247//247 248//248 296//296 295//295
f 248//248 249//249 297//297 296//296
f 249//249 250//250 298//298 297//297
f 250//250 251//251 299//299 298//298
f 251//251 252//252 300//300 299//299
f 252//252 253//253 301//301 300//300
f 253//253 254//254 302//302 301//301
f 254//254 255//255 303//303 302//302
f 255//255 256//256 304//304 303//303
f 256//256 257//257 305//305 304//304
f 257//257 258//258 306//306 305//305
f 258//258 259//259 307//307 306//306
f 259//259 260//260 308//308 307//307
f 260//260 261//261 309//309 308//308
f 261//261 262//262 310//310 309//309
f 262//262 263//263 311//311 310//310
f 263//263 264//264 312//312 311//311
f 264//264 265//265 313//313 312//312
f 265//265 266//266 314//314 313//313
f 266//266 267//267 315//315 314//314
f 267//267 268//268 316//316 315//315
f 268//268 269//269 317//317 316//316
f 269//269 270//270 318//318 317//317
f 270//270 271//271 319//319 318//318
f 271//271 272//272 320//320 319//319
f 272//272 273//273 321//321 320//320
f 273//273 274//274 322//322 321//321
f 274//274 275//275 323//323 322//322
f 275//275 276//276 324//324 323//323
f 276//276 277//277 325//325 324//324
f 277//277 278//278 326//326 325//325
f 278//278 279//279 327//327 326//326
f 279//279 280//280 328//328 327//327
f 280//280 281//281 329//329 328//328
f 281//281 282//282 330//330 329//329
f 282//282 283//283 331//331 330//330
f 283//283 284//284 332//332 331//331
f 284//284 285//285 333//333 332//332
f 285//285 286//286 334//334 333//333
f 286//286 287//287 335//335 334//334
f 287//287 288//288 336//336 335//335
f 288//288 241//241 289//289 336//336
f 289//289 290//290 338//338 337//337
f 290//290 291//291 339//339 338//338
f 291//291 292//292 340//340 339//339
f 292//292 293//293 341//341 340//340
f 293//293 294//294 342//342 341//341
f 294//294 295//295 343//343 342//342
f 295//295 296//296 344//344 343//343
f 296//296 297//297 345//345 344//344
f 297//297 298//298 346//346 345//345
f 298//298 299//299 347//347 346//346
f 299//299 300//300 348//348 347//347
f 300//300 301//301 349//349 348//348
f 301//301 302//302 350//350 349//349
f 302//302 303//303 351//351 350//350
f 303//303 304//304 352//352 351//351
f 304//304 305//305 353//353 352//352
f 305//305 306//306 354//354 353//353
f 306//306 307//307 355//355 354//354
f 307//307 308//308 356//356 355//355
f 308//308 309//309 357//357 356//356
f 309//309 310//310 358//358 357//357
f 310//310 311//311 359//359 358//358
f 311//311 312//312 360//360 359//359
f 312//312 313//313 361//361 360//360
f 313//313 314//314 362//362 361//361
f 314//314 315//315 363//363 362//362
f 315//315 316//316 364//364 363//363
f 316//316 317//317 365//365 364//364
f 317//317 318//318 366//366 365//365
f 318//318 319//319 367//367 366//366
f 319//319 320//320 368//368 367//367
f 320//320 321//321 369//369 368//368
f 321//321 322//322 370//370 369//369
f 322//322 323//323 371//371 370//370
f 323//323 324//324 372//372 371//371
f 324//324 325//325 373//373 372//372
f 325//325 326//326 374//374 373//373
f 326//326 327//327 375//375 374//374
f 327//327 328//328 376//376 375//375
f 328//328 329//329 377//377 376//376
f 329//329 330//330 378//378 377//377
f 330//330 331//331 379//379 378//378
f 331//331 332//332 380//380 379//379
f 332//332 333//333 381//381 380//380
f 333//333 334//334 382//382 381//381
f 334//334 335//335 383//383 382//382
f 335//335 336//336 384//384 383//383
f 336//336 289//289 337//337 384//384
o koboi_mahkota
v 1.000000 0.000000 0.000000
v 0.980785 0.000000 -0.167778
v 0.923880 0.000000 -0.329108
v 0.831470 0.000000 -0.477790
v 0.707107 0.000000 -0.608112
v 0.555570 0.000000 -0.715064
v 0.382683 0.000000 -0.794536
v 0.195090 0.000000 -0.843475
v 0.000000 0.000000 -0.860000
v -0.195090 0.000000 -0.843475
v -0.382683 0.000000 -0.794536
v -0.555570 0.000000 -0.715064
v -0.707107 0.000000 -0.608112
v -0.831470 0.000000 -0.477790
v -0.923880 0.000000 -0.329108
v -0.980785 0.000000 -0.167778
v -1.000000 0.000000 -0.000000
v -0.980785 0.000000 0.167778
v -0.923880 0.000000 0.329108
v -0.831470 0.000000 0.477790
v -0.707107 0.000000 0.608112
v -0.555570 0.000000 0.715064
v -0.382683 0.000000 0.794536
v -0.195090 0.000000 0.843475
v -0.000000 0.000000 0.860000
v 0.195090 0.000000 0.843475
v 0.382683 0.000000 0.794536
v 0.555570 0.000000 0.715064
v 0.707107 0.000000 0.608112
v 0.831470 0.000000 0.477790
v 0.923880 0.000000 0.329108
v 0.980785 0.000000 0.167778
v 1.000000 0.450000 0.000000
v 0.980785 0.450000 -0.167778
v 0.923880 0.450000 -0.329108
v 0.831470 0.450000 -0.477790
v 0.707107 0.450000 -0.608112
v 0.555570 0.450000 -0.715064
v 0.382683 0.450000 -0.794536
v 0.195090 0.450000 -0.843475
v 0.000000 0.450000 -0.860000
v -0.195090 0.450000 -0.843475
v -0.382683 0.450000 -0.794536
v -0.555570 0.450000 -0.715064
v -0.707107 0.450000 -0.608112
v -0.831470 0.450000 -0.477790
v -0.923880 0.450000 -0.329108
v -0.980785 0.450000 -0.167778
v -1.000000 0.450000 -0.000000
v -0.980785 0.450000 0.167778
v -0.923880 0.450000 0.329108
v -0.831470 0.450000 0.477790
v -0.707107 0.450000 0.608112
v -0.555570 0.450000 0.715064
v -0.382683 0.450000 0.794536
v -0.195090 0.450000 0.843475
v -0.000000 0.450000 0.860000
v 0.195090 0.450000 0.843475
v 0.382683 0.450000 0.794536
v 0.555570 0.450000 0.715064
v 0.707107 0.450000 0.608112
v 0.831470 0.450000 0.477790
v 0.923880 0.450000 0.329108
v 0.980785 0.450000 0.167778
v 0.950000 0.840400 0.000000
v 0.931746 0.840400 -0.159389
v 0.877686 0.840400 -0.312652
v 0.789896 0.840400 -0.453901
v 0.671751 0.840400 -0.577706
v 0.527792 0.840400 -0.679311
v 0.363549 0.840400 -0.754810
v 0.185336 0.840400 -0.801302
v 0.000000 0.840400 -0.817000
v -0.185336 0.840400 -0.801302
v -0.363549 0.840400 -0.754810
v -0.527792 0.840400 -0.679311
v -0.671751 0.840400 -0.577706
v -0.789896 0.840400 -0.453901
v -0.877686 0.840400 -0.312652
v -0.931746 0.840400 -0.159389
v -0.950000 0.840400 -0.000000
v -0.764032 0.840400 0.159389
v -0.719702 0.840400 0.312652
v -0.647715 0.840400 0.453901
v -0.550836 0.840400 0.577706
v -0.432789 0.840400 0.679311
v -0.298110 0.840400 0.754810
v -0.151975 0.840400 0.801302
v -0.000000 0.840400 0.817000
v 0.151975 0.840400 0.801302
v 0.298110 0.840400 0.754810
v 0.432789 0.840400 0.679311
v 0.550836 0.840400 0.577706
v 0.647715 0.840400 0.453901
v 0.719702 0.840400 0.312652
v 0.764032 0.840400 0.159389
v 0.800000 0.941600 0.000000
v 0.784628 0.941600 -0.134222
v 0.739104 0.941600 -0.263286
v 0.665176 0.941600 -0.382232
v 0.565685 0.941600 -0.486489
v 0.444456 0.941600 -0.572051
v 0.306147 0.941600 -0.635629
v 0.156072 0.941600 -0.674780
v 0.000000 0.941600 -0.688000
v -0.156072 0.941600 -0.674780
v -0.306147 0.941600 -0.635629
v -0.444456 0.941600 -0.572051
v -0.565685 0.941600 -0.486489
v -0.665176 0.941600 -0.382232
v -0.739104 0.941600 -0.263286
v -0.784628 0.941600 -0.134222
v -0.800000 0.941600 -0.000000
v -0.643395 0.941600 0.134222
v -0.606065 0.941600 0.263286
v -0.545444 0.941600 0.382232
v -0.463862 0.941600 0.486489
v -0.364454 0.941600 0.572051
v -0.251040 0.941600 0.635629
v -0.127979 0.941600 0.674780
v -0.000000 0.941600 0.688000
v 0.127979 0.941600 0.674780
v 0.251040 0.941600 0.635629
v 0.364454 0.941600 0.572051
v 0.463862 0.941600 0.486489
v 0.545444 0.941600 0.382232
v 0.606065 0.941600 0.263286
v 0.643395 0.941600 0.134222
v 0.500000 0.864000 0.000000
v 0.490393 0.864000 -0.083889
v 0.461940 0.864000 -0.164554
v 0.415735 0.864000 -0.238895
v 0.353553 0.864000 -0.304056
v 0.277785 0.864000 -0.357532
v 0.191342 0.864000 -0.397268
v 0.097545 0.864000 -0.421738
v 0.000000 0.864000 -0.430000
v -0.097545 0.864000 -0.421738
v -0.191342 0.864000 -0.397268
v -0.277785 0.864000 -0.357532
v -0.353553 0.864000 -0.304056
v -0.415735 0.864000 -0.238895
v -0.461940 0.864000 -0.164554
v -0.490393 0.864000 -0.083889
v -0.500000 0.864000 -0.000000
v -0.402122 0.864000 0.083889
v -0.378791 0.864000 0.164554
v -0.340903 0.864000 0.238895
v -0.289914 0.864000 0.304056
v -0.227784 0.864000 0.357532
v -0.156900 0.864000 0.397268
v -0.079987 0.864000 0.421738
v -0.000000 0.864000 0.430000
v 0.079987 0.864000 0.421738
v 0.156900 0.864000 0.397268
v 0.227784 0.864000 0.357532
v 0.289914 0.864000 0.304056
v 0.340903 0.864000 0.238895
v 0.378791 0.864000 0.164554
v 0.402122 0.864000 0.083889
v 0.000000 0.688000 0.000000
v 0.000000 0.688000 0.000000
v 0.000000 0.688000 0.000000
v 0.000000 0.688000 0.000000
v 0.000000 0.688000 0.000000
v 0.000000 0.688000 0.000000
v 0.000000 0.688000 0.000000
v 0.000000 0.688000 0.000000
v 0.000000 0.688000 0.000000
v 0.000000 0.688000 0.000000
v 0.000000 0.688000 0.000000
v 0.000000 0.688000 0.000000
v 0.000000 0.688000 0.000000
v 0.000000 0.688000 0.000000
v 0.000000 0.688000 0.000000
v 0.000000 0.688000 0.000000
v 0.000000 0.688000 0.000000
v 0.000000 0.688000 0.000000
v 0.000000 0.688000 0.000000
v 0.000000 0.688000 0.000000
v 0.000000 0.688000 0.000000
v 0.000000 0.688000 0.000000
v 0.000000 0.688000 0.000000
v 0.000000 0.688000 0.000000
v 0.000000 0.688000 0.000000
v 0.000000 0.688000 0.000000
v 0.000000 0.688000 0.000000
v 0.000000 0.688000 0.000000
v 0.000000 0.688000 0.000000
v 0.000000 0.688000 0.000000
v 0.000000 0.688000 0.000000
v 0.000000 0.688000 0.000000
vn 1.0000 -0.0000 -0.0000
vn 0.9744 -0.0000 -0.2246
vn 0.9015 -0.0000 -0.4328
vn 0.7906 -0.0000 -0.6124
vn 0.6531 -0.0000 -0.7573
vn 0.4993 -0.0000 -0.8665
vn 0.3363 -0.0000 -0.9417
vn 0.1690 -0.0000 -0.9856
vn -0.0000 -0.0000 -1.0000
vn -0.1690 -0.0000 -0.9856
vn -0.3363 -0.0000 -0.9417
vn -0.4993 -0.0000 -0.8665
vn -0.6531 -0.0000 -0.7573
vn -0.7906 -0.0000 -0.6124
vn -0.9015 -0.0000 -0.4328
vn -0.9744 -0.0000 -0.2246
vn -1.0000 -0.0000 -0.0000
vn -0.9744 -0.0000 0.2246
vn -0.9015 -0.0000 0.4328
vn -0.7906 -0.0000 0.6124
vn -0.6531 -0.0000 0.7573
vn -0.4993 -0.0000 0.8665
vn -0.3363 -0.0000 0.9417
vn -0.1690 -0.0000 0.9856
vn -0.0000 -0.0000 1.0000
vn 0.1690 -0.0000 0.9856
vn 0.3363 -0.0000 0.9417
vn 0.4993 -0.0000 0.8665
vn 0.6531 -0.0000 0.7573
vn 0.7906 -0.0000 0.6124
vn 0.9015 -0.0000 0.4328
vn 0.9744 -0.0000 0.2246
vn 0.9890 0.1064 0.1031
vn 0.9726 0.0630 -0.2239
vn 0.9000 0.0618 -0.4316
vn 0.7895 0.0603 -0.6108
vn 0.6524 0.0586 -0.7556
vn 0.4988 0.0570 -0.8648
vn 0.3361 0.0557 -0.9402
vn 0.1689 0.0549 -0.9841
vn -0.0000 0.0547 -0.9985
vn -0.1689 0.0549 -0.9841
vn -0.3361 0.0557 -0.9402
vn -0.4988 0.0570 -0.8648
vn -0.6524 0.0586 -0.7556
vn -0.7895 0.0603 -0.6108
vn -0.9000 0.0618 -0.4316
vn -0.9726 0.0630 -0.2239
vn -0.9890 0.1064 0.1031
vn -0.9291 0.1868 0.3193
vn -0.8868 0.2249 0.4037
vn -0.7907 0.1965 0.5798
vn -0.6654 0.1606 0.7290
vn -0.5174 0.1223 0.8470
vn -0.3531 0.0883 0.9314
vn -0.1788 0.0649 0.9817
vn -0.0000 0.0566 0.9984
vn 0.1788 0.0649 0.9817
vn 0.3531 0.0883 0.9314
vn 0.5174 0.1223 0.8470
vn 0.6654 0.1606 0.7290
vn 0.7907 0.1965 0.5798
vn 0.8868 0.2249 0.4037
vn 0.9291 0.1868 0.3193
vn 0.8362 0.5050 0.2137
vn 0.8381 0.5103 -0.1926
vn 0.7779 0.5064 -0.3722
vn 0.6853 0.5006 -0.5290
vn 0.5691 0.4939 -0.6574
vn 0.4371 0.4875 -0.7558
vn 0.2957 0.4822 -0.8247
vn 0.1490 0.4787 -0.8653
vn -0.0000 0.4775 -0.8786
vn -0.1490 0.4787 -0.8653
vn -0.2957 0.4822 -0.8247
vn -0.4371 0.4875 -0.7558
vn -0.5691 0.4939 -0.6574
vn -0.6853 0.5006 -0.5290
vn -0.7779 0.5064 -0.3722
vn -0.8381 0.5103 -0.1926
vn -0.8362 0.5050 0.2137
vn -0.6931 0.6009 0.3982
vn -0.7244 0.6153 0.3109
vn -0.6634 0.5905 0.4596
vn -0.5750 0.5600 0.5965
vn -0.4595 0.5286 0.7137
vn -0.3206 0.5016 0.8035
vn -0.1647 0.4836 0.8596
vn -0.0000 0.4773 0.8787
vn 0.1647 0.4836 0.8596
vn 0.3206 0.5016 0.8035
vn 0.4595 0.5286 0.7137
vn 0.5750 0.5600 0.5965
vn 0.6634 0.5905 0.4596
vn 0.7244 0.6153 0.3109
vn 0.6931 0.6009 0.3982
vn 0.2698 0.9460 0.1794
vn 0.1931 0.9801 -0.0462
vn 0.1791 0.9798 -0.0893
vn 0.1576 0.9793 -0.1268
vn 0.1306 0.9789 -0.1574
vn 0.1000 0.9785 -0.1806
vn 0.0675 0.9781 -0.1967
vn 0.0339 0.9780 -0.2061
vn -0.0000 0.9779 -0.2091
vn -0.0339 0.9780 -0.2061
vn -0.0675 0.9781 -0.1967
vn -0.1000 0.9785 -0.1806
vn -0.1306 0.9789 -0.1574
vn -0.1576 0.9793 -0.1268
vn -0.1791 0.9798 -0.0893
vn -0.1931 0.9801 -0.0462
vn -0.2698 0.9460 0.1794
vn -0.0982 0.9949 0.0250
vn -0.2021 0.9762 0.0789
vn -0.1832 0.9763 0.1154
vn -0.1571 0.9764 0.1481
vn -0.1245 0.9766 0.1756
vn -0.0864 0.9767 0.1966
vn -0.0443 0.9768 0.2097
vn -0.0000 0.9768 0.2142
vn 0.0443 0.9768 0.2097
vn 0.0864 0.9767 0.1966
vn 0.1245 0.9766 0.1756
vn 0.1571 0.9764 0.1481
vn 0.1832 0.9763 0.1154
vn 0.2021 0.9762 0.0789
vn 0.0982 0.9949 0.0250
vn -0.2769 0.9512 -0.1363
vn -0.2830 0.9569 0.0653
vn -0.2663 0.9554 0.1279
vn -0.2393 0.9531 0.1855
vn -0.2031 0.9504 0.2356
vn -0.1593 0.9477 0.2765
vn -0.1095 0.9455 0.3067
vn -0.0558 0.9440 0.3253
vn -0.0000 0.9435 0.3315
vn 0.0558 0.9440 0.3253
vn 0.1095 0.9455 0.3067
vn 0.1593 0.9477 0.2765
vn 0.2031 0.9504 0.2356
vn 0.2393 0.9531 0.1855
vn 0.2663 0.9554 0.1279
vn 0.2830 0.9569 0.0653
vn 0.2769 0.9512 -0.1363
vn 0.3133 0.9243 -0.2178
vn 0.3194 0.9392 -0.1262
vn 0.2876 0.9400 -0.1834
vn 0.2448 0.9410 -0.2336
vn 0.1925 0.9420 -0.2749
vn 0.1327 0.9429 -0.3056
vn 0.0677 0.9434 -0.3246
vn -0.0000 0.9436 -0.3310
vn -0.0677 0.9434 -0.3246
vn -0.1327 0.9429 -0.3056
vn -0.1925 0.9420 -0.2749
vn -0.2448 0.9410 -0.2336
vn -0.2876 0.9400 -0.1834
vn -0.3194 0.9392 -0.1262
vn -0.3133 0.9243 -0.2178
vn -0.3275 0.9303 -0.1650
vn -0.3254 0.9426 0.0752
vn -0.3059 0.9406 0.1473
vn -0.2745 0.9377 0.2132
vn -0.2326 0.9342 0.2703
vn -0.1821 0.9309 0.3168
vn -0.1250 0.9280 0.3509
vn -0.0636 0.9261 0.3718
vn -0.0000 0.9255 0.3788
vn 0.0636 0.9261 0.3718
vn 0.1250 0.9280 0.3509
vn 0.1821 0.9309 0.3168
vn 0.2326 0.9342 0.2703
vn 0.2745 0.9377 0.2132
vn 0.3059 0.9406 0.1473
vn 0.3254 0.9426 0.0752
vn 0.3275 0.9303 -0.1650
vn 0.3475 0.9071 -0.2375
vn 0.3648 0.9199 -0.1441
vn 0.3287 0.9209 -0.2094
vn 0.2799 0.9222 -0.2669
vn 0.2202 0.9234 -0.3143
vn 0.1519 0.9245 -0.3496
vn 0.0775 0.9252 -0.3714
vn -0.0000 0.9255 -0.3788
vn -0.0775 0.9252 -0.3714
vn -0.1519 0.9245 -0.3496
vn -0.2202 0.9234 -0.3143
vn -0.2799 0.9222 -0.2669
vn -0.3287 0.9209 -0.2094
vn -0.3648 0.9199 -0.1441
vn -0.3475 0.9071 -0.2375
s 1
usemtl koboi
f 385//385 386//386 418//418 417//417
f 386//386 387//387 419//419 418//418
f 387//387 388//388 420//420 419//419
f 388//388 389//389 421//421 420//420
f 389//389 390//390 422//422 421//421
f 390//390 391//391 423//423 422//422
f 391//391 392//392 424//424 423//423
f 392//392 393//393 425//425 424//424
f 393//393 394//394 426//426 425//425
f 394//394 395//395 427//427 426//426
f 395//395 396//396 428//428 427//427
f 396//396 397//397 429//429 428//428
f 397//397 398//398 430//430 429//429
f 398//398 399//399 431//431 430//430
f 399//399 400//400 432//432 431//431
f 400//400 401//401 433//433 432//432
f 401//401 402//402 434//434 433//433
f 402//402 403//403 435//435 434//434
f 403//403 404//404 436//436 435//435
f 404//404 405//405 437//437 436//436
f 405//405 406//406 438//438 437//437
f 406//406 407//407 439//439 438//438
f 407//407 408//408 440//440 439//439
f 408//408 409//409 441//441 440//440
f 409//409 410//410 442//442 441//441
f 410//410 411//411 443//443 442//442
f 411//411 412//412 444//444 443//443
f 412//412 413//413 445//445 444//444
f 413//413 414//414 446//446 445//445
f 414//414 415//415 447//447 446//446
f 415//415 416//416 448//448 447//447
f 416//416 385//385 417//417 448//448
f 417//417 418//418 450//450 449//449
f 418//418 419//419 451//451 450//450
f 419//419 420//420 452//452 451//451
f 420//420 421//421 453//453 452//452
f 421//421 422//422 454//454 453//453
f 422//422 423//423 455//455 454//454
f 423//423 424//424 456//456 455//455
f 424//424 425//425 457//457 456//456
f 425//425 426//426 458//458 457//457
f 426//426 427//427 459//459 458//458
f 427//427 428//428 460//460 459//459
f 428//428 429//429 461//461 460//460
f 429//429 430//430 462//462 461//461
f 430//430 431//431 463//463 462//462
f 431//431 432//432 464//464 463//463
f 432//432 433//433 465//465 464//464
f 433//433 434//434 466//466 465//465
f 434//434 435//435 467//467 466//466
f 435//435 436//436 468//468 467//467
f 436//436 437//437 469//469 468//468
f 437//437 438//438 470//470 469//469
f 438//438 439//439 471//471 470//470
f 439//439 440//440 472//472 471//471
f 440//440 441//441 473//473 472//472
f 441//441 442//442 474//474 473//473
f 442//442 443//443 475//475 474//474
f 443//443 444//444 476//476 475//475
f 444//444 445//445 477//477 476//476
f 445//445 446//446 478//478 477//477
f 446//446 447//447 479//479 478//478
f 447//447 448//448 480//480 479//479
f 448//448 417//417 449//449 480//480
f 449//449 450//450 482//482 481//481
f 450//450 451//451 483//483 482//482
f 451//451 452//452 484//484 483//483
f 452//452 453//453 485//485 484//484
f 453//453 454//454 486//486 485//485
f 454//454 455//455 487//487 486//486
f 455//455 456//456 488//488 487//487
f 456//456 457//457 489//489 488//488
f 457//457 458//458 490//490 489//489
f 458//458 459//459 491//491 490//490
f 459//459 460//460 492//492 491//491
f 460//460 461//461 493//493 492//492
f 461//461 462//462 494//494 493//493
f 462//462 463//463 495//495 494//494
f 463//463 464//464 496//496 495//495
f 464//464 465//465 497//497 496//496
f 465//465 466//466 498//498 497//497
f 466//466 467//467 499//499 498//498
f 467//467 468//468 500//500 499//499
f 468//468 469//469 501//501 500//500
f 469//469 470//470 502//502 501//501
f 470//470 471//471 503//503 502//502
f 471//471 472//472 504//504 503//503
f 472//472 473//473 505//505 504//504
f 473//473 474//474 506//506 505//505
f 474//474 475//475 507//507 506//506
f 475//475 476//476 508//508 507//507
f 476//476 477//477 509//509 508//508
f 477//477 478//478 510//510 509//509
f 478//478 479//479 511//511 510//510
f 479//479 480//480 512//512 511//511
f 480//480 449//449 481//481 512//512
f 481//481 482//482 514//514 513//513
f 482//482 483//483 515//515 514//514
f 483//483 484//484 516//516 515//515
f 484//484 485//485 517//517 516//516
f 485//485 486//486 518//518 517//517
f 486//486 487//487 519//519 518//518
f 487//487 488//488 520//520 519//519
f 488//488 489//489 521//521 520//520
f 489//489 490//490 522//522 521//521
f 490//490 491//491 523//523 522//522
f 491//491 492//492 524//524 523//523
f 492//492 493//493 525//525 524//524
f 493//493 494//494 526//526 525//525
f 494//494 495//495 527//527 526//526
f 495//495 496//496 528//528 527//527
f 496//496 497//497 529//529 528//528
f 497//497 498//498 530//530 529//529
f 498//498 499//499 531//531 530//530
f 499//499 500//500 532//532 531//531
f 500//500 501//501 533//533 532//532
f 501//501 502//502 534//534 533//533
f 502//502 503//503 535//535 534//534
f 503//503 504//504 536//536 535//535
f 504//504 505//505 537//537 536//536
f 505//505 506//506 538//538 537//537
f 506//506 507//507 539//539 538//538
f 507//507 508//508 540//540 539//539
f 508//508 509//509 541//541 540//540
f 509//509 510//510 542//542 541//541
f 510//510 511//511 543//543 542//542
f 511//511 512//512 544//544 543//543
f 512//512 481//481 513//513 544//544
f 513//513 514//514 546//546 545//545
f 514//514 515//515 547//547 546//546
f 515//515 516//516 548//548 547//547
f 516//516 517//517 549//549 548//548
f 517//517 518//518 550//550 549//549
f 518//518 519//519 551//551 550//550
f 519//519 520//520 552//552 551//551
f 520//520 521//521 553//553 552//552
f 521//521 522//522 554//554 553//553
f 522//522 523//523 555//555 554//554
f 523//523 524//524 556//556 555//555
f 524//524 525//525 557//557 556//556
f 525//525 526//526 558//558 557//557
f 526//526 527//527 559//559 558//558
f 527//527 528//528 560//560 559//559
f 528//528 529//529 561//561 560//560
f 529//529 530//530 562//562 561//561
f 530//530 531//531 563//563 562//562
f 531//531 532//532 564//564 563//563
f 532//532 533//533 565//565 564//564
f 533//533 534//534 566//566 565//565
f 534//534 535//535 567//567 566//566
f 535//535 536//536 568//568 567//567
f 536//536 537//537 569//569 568//568
f 537//537 538//538 570//570 569//569
f 538//538 539//539 571//571 570//570
f 539//539 540//540 572//572 571//571
f 540//540 541//541 573//573 572//572
f 541//541 542//542 574//574 573//573
f 542//542 543//543 575//575 574//574
f 543//543 544//544 576//576 575//575
f 544//544 513//513 545//545 576//576
o koboi_pita
v 1.020000 0.040000 0.000000
v 1.000401 0.040000 -0.171133
v 0.942357 0.040000 -0.335690
v 0.848099 0.040000 -0.487346
v 0.721249 0.040000 -0.620274
v 0.566682 0.040000 -0.729365
v 0.390337 0.040000 -0.810427
v 0.198992 0.040000 -0.860345
v 0.000000 0.040000 -0.877200
v -0.198992 0.040000 -0.860345
v -0.390337 0.040000 -0.810427
v -0.566682 0.040000 -0.729365
v -0.721249 0.040000 -0.620274
v -0.848099 0.040000 -0.487346
v -0.942357 0.040000 -0.335690
v -1.000401 0.040000 -0.171133
v -1.020000 0.040000 -0.000000
v -1.000401 0.040000 0.171133
v -0.942357 0.040000 0.335690
v -0.848099 0.040000 0.487346
v -0.721249 0.040000 0.620274
v -0.566682 0.040000 0.729365
v -0.390337 0.040000 0.810427
v -0.198992 0.040000 0.860345
v -0.000000 0.040000 0.877200
v 0.198992 0.040000 0.860345
v 0.390337 0.040000 0.810427
v 0.566682 0.040000 0.729365
v 0.721249 0.040000 0.620274
v 0.848099 0.040000 0.487346
v 0.942357 0.040000 0.335690
v 1.000401 0.040000 0.171133
v 1.020000 0.220000 0.000000
v 1.000401 0.220000 -0.171133
v 0.942357 0.220000 -0.335690
v 0.848099 0.220000 -0.487346
v 0.721249 0.220000 -0.620274
v 0.566682 0.220000 -0.729365
v 0.390337 0.220000 -0.810427
v 0.198992 0.220000 -0.860345
v 0.000000 0.220000 -0.877200
v -0.198992 0.220000 -0.860345
v -0.390337 0.220000 -0.810427
v -0.566682 0.220000 -0.729365
v -0.721249 0.220000 -0.620274
v -0.848099 0.220000 -0.487346
v -0.942357 0.220000 -0.335690
v -1.000401 0.220000 -0.171133
v -1.020000 0.220000 -0.000000
v -1.000401 0.220000 0.171133
v -0.942357 0.220000 0.335690
v -0.848099 0.220000 0.487346
v -0.721249 0.220000 0.620274
v -0.566682 0.220000 0.729365
v -0.390337 0.220000 0.810427
v -0.198992 0.220000 0.860345
v -0.000000 0.220000 0.877200
v 0.198992 0.220000 0.860345
v 0.390337 0.220000 0.810427
v 0.566682 0.220000 0.729365
v 0.721249 0.220000 0.620274
v 0.848099 0.220000 0.487346
v 0.942357 0.220000 0.335690
v 1.000401 0.220000 0.171133
vn 1.0000 -0.0000 -0.0000
vn 0.9744 -0.0000 -0.2246
vn 0.9015 -0.0000 -0.4328
vn 0.7906 -0.0000 -0.6124
vn 0.6531 -0.0000 -0.7573
vn 0.4993 -0.0000 -0.8665
vn 0.3363 -0.0000 -0.9417
vn 0.1690 -0.0000 -0.9856
vn -0.0000 -0.0000 -1.0000
vn -0.1690 -0.0000 -0.9856
vn -0.3363 -0.0000 -0.9417
vn -0.4993 -0.0000 -0.8665
vn -0.6531 -0.0000 -0.7573
vn -0.7906 -0.0000 -0.6124
vn -0.9015 -0.0000 -0.4328
vn -0.9744 -0.0000 -0.2246
vn -1.0000 -0.0000 -0.0000
vn -0.9744 -0.0000 0.2246
vn -0.9015 -0.0000 0.4328
vn -0.7906 -0.0000 0.6124
vn -0.6531 -0.0000 0.7573
vn -0.4993 -0.0000 0.8665
vn -0.3363 -0.0000 0.9417
vn -0.1690 -0.0000 0.9856
vn -0.0000 -0.0000 1.0000
vn 0.1690 -0.0000 0.9856
vn 0.3363 -0.0000 0.9417
vn 0.4993 -0.0000 0.8665
vn 0.6531 -0.0000 0.7573
vn 0.7906 -0.0000 0.6124
vn 0.9015 -0.0000 0.4328
vn 0.9744 -0.0000 0.2246
s 1
usemtl koboi_pita
f 577//577 578//578 610//578 609//577
f 578//578 579//579 611//579 610//578
f 579//579 580//580 612//580 611//579
f 580//580 581//581 613//581 612//580
f 581//581 582//582 614//582 613//581
f 582//582 583//583 615//583 614//582
f 583//583 584//584 616//584 615//583
f 584//584 585//585 617//585 616//584
f 585//585 586//586 618//586 617//585
f 586//586 587//587 619//587 618//586
f 587//587 588//588 620//588 619//587
f 588//588 589//589 621//589 620//588
f 589//589 590//590 622//590 621//589
f 590//590 591//591 623//591 622//590
f 591//591 592//592 624//592 623//591
f 592//592 593//593 625//593 624//592
f 593//593 594//594 626//594 625//593
f 594//594 595//595 627//595 626//594
f 595//595 596//596 628//596 627//595
f 596//596 597//597 629//597 628//596
f 597//597 598//598 630//598 629//597
f 598//598 599//599 631//599 630//598
f 599//599 600//600 632//600 631//599
f 600//600 601//601 633//601 632//600
f 601//601 602//602 634//602 633//601
f 602//602 603//603 635//603 634//602
f 603//603 604//604 636//604 635//603
f 604//604 605//605 637//605 636//604
f 605//605 606//606 638//606 637//605
f 606//606 607//607 639//607 638//606
f 607//607 608//608 640//608 639//607
f 608//608 577//577 609//577 640//608
