# Blender 5.1.1
# www.blender.org
mtllib peci.mtl
o peci
v 1.060000 0.000000 0.000000
v 1.043896 0.000000 -0.161979
v 0.996074 0.000000 -0.319036
v 0.917987 0.000000 -0.466400
v 0.812007 0.000000 -0.599592
v 0.681355 0.000000 -0.714566
v 0.530000 0.000000 -0.807828
v 0.362541 0.000000 -0.876545
v 0.184067 0.000000 -0.918629
v 0.000000 0.000000 -0.932800
v -0.184067 0.000000 -0.918629
v -0.362541 0.000000 -0.876545
v -0.530000 0.000000 -0.807828
v -0.681355 0.000000 -0.714566
v -0.812007 0.000000 -0.599592
v -0.917987 0.000000 -0.466400
v -0.996074 0.000000 -0.319036
v -1.043896 0.000000 -0.161979
v -1.060000 0.000000 -0.000000
v -1.043896 0.000000 0.161979
v -0.996074 0.000000 0.319036
v -0.917987 0.000000 0.466400
v -0.812007 0.000000 0.599592
v -0.681355 0.000000 0.714566
v -0.530000 0.000000 0.807828
v -0.362541 0.000000 0.876545
v -0.184067 0.000000 0.918629
v -0.000000 0.000000 0.932800
v 0.184067 0.000000 0.918629
v 0.362541 0.000000 0.876545
v 0.530000 0.000000 0.807828
v 0.681355 0.000000 0.714566
v 0.812007 0.000000 0.599592
v 0.917987 0.000000 0.466400
v 0.996074 0.000000 0.319036
v 1.043896 0.000000 0.161979
v 1.050000 0.120000 0.000000
v 1.034048 0.120000 -0.160451
v 0.986677 0.120000 -0.316027
v 0.909327 0.120000 -0.462000
v 0.804347 0.120000 -0.593936
v 0.674927 0.120000 -0.707825
v 0.525000 0.120000 -0.800207
v 0.359121 0.120000 -0.868276
v 0.182331 0.120000 -0.909962
v 0.000000 0.120000 -0.924000
v -0.182331 0.120000 -0.909962
v -0.359121 0.120000 -0.868276
v -0.525000 0.120000 -0.800207
v -0.674927 0.120000 -0.707825
v -0.804347 0.120000 -0.593936
v -0.909327 0.120000 -0.462000
v -0.986677 0.120000 -0.316027
v -1.034048 0.120000 -0.160451
v -1.050000 0.120000 -0.000000
v -1.034048 0.120000 0.160451
v -0.986677 0.120000 0.316027
v -0.909327 0.120000 0.462000
v -0.804347 0.120000 0.593936
v -0.674927 0.120000 0.707825
v -0.525000 0.120000 0.800207
v -0.359121 0.120000 0.868276
v -0.182331 0.120000 0.909962
v -0.000000 0.120000 0.924000
v 0.182331 0.120000 0.909962
v 0.359121 0.120000 0.868276
v 0.525000 0.120000 0.800207
v 0.674927 0.120000 0.707825
v 0.804347 0.120000 0.593936
v 0.909327 0.120000 0.462000
v 0.986677 0.120000 0.316027
v 1.034048 0.120000 0.160451
v 1.000000 0.500000 0.000000
v 0.984808 0.500000 -0.152810
v 0.939693 0.500000 -0.300978
v 0.866025 0.500000 -0.440000
v 0.766044 0.500000 -0.565653
v 0.642788 0.500000 -0.674119
v 0.500000 0.500000 -0.762102
v 0.342020 0.500000 -0.826930
v 0.173648 0.500000 -0.866631
v 0.000000 0.500000 -0.880000
v -0.173648 0.500000 -0.866631
v -0.342020 0.500000 -0.826930
v -0.500000 0.500000 -0.762102
v -0.642788 0.500000 -0.674119
v -0.766044 0.500000 -0.565653
v -0.866025 0.500000 -0.440000
v -0.939693 0.500000 -0.300978
v -0.984808 0.500000 -0.152810
v -1.000000 0.500000 -0.000000
v -0.984808 0.500000 0.152810
v -0.939693 0.500000 0.300978
v -0.866025 0.500000 0.440000
v -0.766044 0.500000 0.565653
v -0.642788 0.500000 0.674119
v -0.500000 0.500000 0.762102
v -0.342020 0.500000 0.826930
v -0.173648 0.500000 0.866631
v -0.000000 0.500000 0.880000
v 0.173648 0.500000 0.866631
v 0.342020 0.500000 0.826930
v 0.500000 0.500000 0.762102
v 0.642788 0.500000 0.674119
v 0.766044 0.500000 0.565653
v 0.866025 0.500000 0.440000
v 0.939693 0.500000 0.300978
v 0.984808 0.500000 0.152810
v 0.970000 0.600000 0.000000
v 0.955263 0.600000 -0.148226
v 0.911502 0.600000 -0.291948
v 0.840045 0.600000 -0.426800
v 0.743063 0.600000 -0.548684
v 0.623504 0.600000 -0.653896
v 0.485000 0.600000 -0.739239
v 0.331760 0.600000 -0.802122
v 0.168439 0.600000 -0.840632
v 0.000000 0.600000 -0.853600
v -0.168439 0.600000 -0.840632
v -0.331760 0.600000 -0.802122
v -0.485000 0.600000 -0.739239
v -0.623504 0.600000 -0.653896
v -0.743063 0.600000 -0.548684
v -0.840045 0.600000 -0.426800
v -0.911502 0.600000 -0.291948
v -0.955263 0.600000 -0.148226
v -0.970000 0.600000 -0.000000
v -0.955263 0.600000 0.148226
v -0.911502 0.600000 0.291948
v -0.840045 0.600000 0.426800
v -0.743063 0.600000 0.548684
v -0.623504 0.600000 0.653896
v -0.485000 0.600000 0.739239
v -0.331760 0.600000 0.802122
v -0.168439 0.600000 0.840632
v -0.000000 0.600000 0.853600
v 0.168439 0.600000 0.840632
v 0.331760 0.600000 0.802122
v 0.485000 0.600000 0.739239
v 0.623504 0.600000 0.653896
v 0.743063 0.600000 0.548684
v 0.840045 0.600000 0.426800
v 0.911502 0.600000 0.291948
v 0.955263 0.600000 0.148226
v 0.850000 0.660000 0.000000
v 0.837087 0.660000 -0.129889
v 0.798739 0.660000 -0.255831
v 0.736122 0.660000 -0.374000
v 0.651138 0.660000 -0.480805
v 0.546369 0.660000 -0.573001
v 0.425000 0.660000 -0.647787
v 0.290717 0.660000 -0.702890
v 0.147601 0.660000 -0.736636
v 0.000000 0.660000 -0.748000
v -0.147601 0.660000 -0.736636
v -0.290717 0.660000 -0.702890
v -0.425000 0.660000 -0.647787
v -0.546369 0.660000 -0.573001
v -0.651138 0.660000 -0.480805
v -0.736122 0.660000 -0.374000
v -0.798739 0.660000 -0.255831
v -0.837087 0.660000 -0.129889
v -0.850000 0.660000 -0.000000
v -0.837087 0.660000 0.129889
v -0.798739 0.660000 0.255831
v -0.736122 0.660000 0.374000
v -0.651138 0.660000 0.480805
v -0.546369 0.660000 0.573001
v -0.425000 0.660000 0.647787
v -0.290717 0.660000 0.702890
v -0.147601 0.660000 0.736636
v -0.000000 0.660000 0.748000
v 0.147601 0.660000 0.736636
v 0.290717 0.660000 0.702890
v 0.425000 0.660000 0.647787
v 0.546369 0.660000 0.573001
v 0.651138 0.660000 0.480805
v 0.736122 0.660000 0.374000
v 0.798739 0.660000 0.255831
v 0.837087 0.660000 0.129889
v 0.000000 0.660000 0.000000
v 0.000000 0.660000 0.000000
v 0.000000 0.660000 0.000000
v 0.000000 0.660000 0.000000
v 0.000000 0.660000 0.000000
v 0.000000 0.660000 0.000000
v 0.000000 0.660000 0.000000
v 0.000000 0.660000 0.000000
v 0.000000 0.660000 0.000000
v 0.000000 0.660000 0.000000
v 0.000000 0.660000 0.000000
v 0.000000 0.660000 0.000000
v 0.000000 0.660000 0.000000
v 0.000000 0.660000 0.000000
v 0.000000 0.660000 0.000000
v 0.000000 0.660000 0.000000
v 0.000000 0.660000 0.000000
v 0.000000 0.660000 0.000000
v 0.000000 0.660000 0.000000
v 0.000000 0.660000 0.000000
v 0.000000 0.660000 0.000000
v 0.000000 0.660000 0.000000
v 0.000000 0.660000 0.000000
v 0.000000 0.660000 0.000000
v 0.000000 0.660000 0.000000
v 0.000000 0.660000 0.000000
v 0.000000 0.660000 0.000000
v 0.000000 0.660000 0.000000
v 0.000000 0.660000 0.000000
v 0.000000 0.660000 0.000000
v 0.000000 0.660000 0.000000
v 0.000000 0.660000 0.000000
v 0.000000 0.660000 0.000000
v 0.000000 0.660000 0.000000
v 0.000000 0.660000 0.000000
v 0.000000 0.660000 0.000000
vn 0.9965 0.0830 -0.0000
vn 0.9773 0.0827 -0.1952
vn 0.9214 0.0817 -0.3799
vn 0.8342 0.0802 -0.5456
vn 0.7225 0.0785 -0.6869
vn 0.5934 0.0768 -0.8012
vn 0.4527 0.0753 -0.8885
vn 0.3050 0.0741 -0.9495
vn 0.1533 0.0734 -0.9854
vn -0.0000 0.0731 -0.9973
vn -0.1533 0.0734 -0.9854
vn -0.3050 0.0741 -0.9495
vn -0.4527 0.0753 -0.8885
vn -0.5934 0.0768 -0.8012
vn -0.7225 0.0785 -0.6869
vn -0.8342 0.0802 -0.5456
vn -0.9214 0.0817 -0.3799
vn -0.9773 0.0827 -0.1952
vn -0.9965 0.0830 -0.0000
vn -0.9773 0.0827 0.1952
vn -0.9214 0.0817 0.3799
vn -0.8342 0.0802 0.5456
vn -0.7225 0.0785 0.6869
vn -0.5934 0.0768 0.8012
vn -0.4527 0.0753 0.8885
vn -0.3050 0.0741 0.9495
vn -0.1533 0.0734 0.9854
vn -0.0000 0.0731 0.9973
vn 0.1533 0.0734 0.9854
vn 0.3050 0.0741 0.9495
vn 0.4527 0.0753 0.8885
vn 0.5934 0.0768 0.8012
vn 0.7225 0.0785 0.6869
vn 0.8342 0.0802 0.5456
vn 0.9214 0.0817 0.3799
vn 0.9773 0.0827 0.1952
vn 0.9943 0.1066 -0.0000
vn 0.9751 0.1062 -0.1949
vn 0.9193 0.1049 -0.3793
vn 0.8323 0.1030 -0.5447
vn 0.7208 0.1008 -0.6858
vn 0.5919 0.0987 -0.7999
vn 0.4516 0.0967 -0.8870
vn 0.3042 0.0953 -0.9478
vn 0.1529 0.0943 -0.9837
vn -0.0000 0.0940 -0.9956
vn -0.1529 0.0943 -0.9837
vn -0.3042 0.0953 -0.9478
vn -0.4516 0.0967 -0.8870
vn -0.5919 0.0987 -0.7999
vn -0.7208 0.1008 -0.6858
vn -0.8323 0.1030 -0.5447
vn -0.9193 0.1049 -0.3793
vn -0.9751 0.1062 -0.1949
vn -0.9943 0.1066 -0.0000
vn -0.9751 0.1062 0.1949
vn -0.9193 0.1049 0.3793
vn -0.8323 0.1030 0.5447
vn -0.7208 0.1008 0.6858
vn -0.5919 0.0987 0.7999
vn -0.4516 0.0967 0.8870
vn -0.3042 0.0953 0.9478
vn -0.1529 0.0943 0.9837
vn -0.0000 0.0940 0.9956
vn 0.1529 0.0943 0.9837
vn 0.3042 0.0953 0.9478
vn 0.4516 0.0967 0.8870
vn 0.5919 0.0987 0.7999
vn 0.7208 0.1008 0.6858
vn 0.8323 0.1030 0.5447
vn 0.9193 0.1049 0.3793
vn 0.9751 0.1062 0.1949
vn 0.9780 0.2085 -0.0000
vn 0.9592 0.2077 -0.1916
vn 0.9048 0.2053 -0.3731
vn 0.8196 0.2019 -0.5361
vn 0.7104 0.1978 -0.6754
vn 0.5838 0.1938 -0.7884
vn 0.4457 0.1901 -0.8748
vn 0.3004 0.1873 -0.9352
vn 0.1511 0.1856 -0.9709
vn -0.0000 0.1850 -0.9827
vn -0.1511 0.1856 -0.9709
vn -0.3004 0.1873 -0.9352
vn -0.4457 0.1901 -0.8748
vn -0.5838 0.1938 -0.7884
vn -0.7104 0.1978 -0.6754
vn -0.8196 0.2019 -0.5361
vn -0.9048 0.2053 -0.3731
vn -0.9592 0.2077 -0.1916
vn -0.9780 0.2085 -0.0000
vn -0.9592 0.2077 0.1916
vn -0.9048 0.2053 0.3731
vn -0.8196 0.2019 0.5361
vn -0.7104 0.1978 0.6754
vn -0.5838 0.1938 0.7884
vn -0.4457 0.1901 0.8748
vn -0.3004 0.1873 0.9352
vn -0.1511 0.1856 0.9709
vn -0.0000 0.1850 0.9827
vn 0.1511 0.1856 0.9709
vn 0.3004 0.1873 0.9352
vn 0.4457 0.1901 0.8748
vn 0.5838 0.1938 0.7884
vn 0.7104 0.1978 0.6754
vn 0.8196 0.2019 0.5361
vn 0.9048 0.2053 0.3731
vn 0.9592 0.2077 0.1916
vn 0.7753 0.6316 -0.0000
vn 0.7610 0.6306 -0.1521
vn 0.7196 0.6278 -0.2968
vn 0.6543 0.6235 -0.4280
vn 0.5695 0.6184 -0.5415
vn 0.4702 0.6131 -0.6349
vn 0.3604 0.6082 -0.7072
vn 0.2437 0.6044 -0.7585
vn 0.1228 0.6019 -0.7891
vn -0.0000 0.6010 -0.7992
vn -0.1228 0.6019 -0.7891
vn -0.2437 0.6044 -0.7585
vn -0.3604 0.6082 -0.7072
vn -0.4702 0.6131 -0.6349
vn -0.5695 0.6184 -0.5415
vn -0.6543 0.6235 -0.4280
vn -0.7196 0.6278 -0.2968
vn -0.7610 0.6306 -0.1521
vn -0.7753 0.6316 -0.0000
vn -0.7610 0.6306 0.1521
vn -0.7196 0.6278 0.2968
vn -0.6543 0.6235 0.4280
vn -0.5695 0.6184 0.5415
vn -0.4702 0.6131 0.6349
vn -0.3604 0.6082 0.7072
vn -0.2437 0.6044 0.7585
vn -0.1228 0.6019 0.7891
vn -0.0000 0.6010 0.7992
vn 0.1228 0.6019 0.7891
vn 0.2437 0.6044 0.7585
vn 0.3604 0.6082 0.7072
vn 0.4702 0.6131 0.6349
vn 0.5695 0.6184 0.5415
vn 0.6543 0.6235 0.4280
vn 0.7196 0.6278 0.2968
vn 0.7610 0.6306 0.1521
vn 0.2434 0.9699 -0.0000
vn 0.2393 0.9697 -0.0485
vn 0.2274 0.9692 -0.0951
vn 0.2082 0.9683 -0.1381
vn 0.1827 0.9672 -0.1762
vn 0.1521 0.9662 -0.2083
vn 0.1174 0.9652 -0.2338
vn 0.0799 0.9644 -0.2522
vn 0.0404 0.9639 -0.2634
vn -0.0000 0.9637 -0.2671
vn -0.0404 0.9639 -0.2634
vn -0.0799 0.9644 -0.2522
vn -0.1174 0.9652 -0.2338
vn -0.1521 0.9662 -0.2083
vn -0.1827 0.9672 -0.1762
vn -0.2082 0.9683 -0.1381
vn -0.2274 0.9692 -0.0951
vn -0.2393 0.9697 -0.0485
vn -0.2434 0.9699 -0.0000
vn -0.2393 0.9697 0.0485
vn -0.2274 0.9692 0.0951
vn -0.2082 0.9683 0.1381
vn -0.1827 0.9672 0.1762
vn -0.1521 0.9662 0.2083
vn -0.1174 0.9652 0.2338
vn -0.0799 0.9644 0.2522
vn -0.0404 0.9639 0.2634
vn -0.0000 0.9637 0.2671
vn 0.0404 0.9639 0.2634
vn 0.0799 0.9644 0.2522
vn 0.1174 0.9652 0.2338
vn 0.1521 0.9662 0.2083
vn 0.1827 0.9672 0.1762
vn 0.2082 0.9683 0.1381
vn 0.2274 0.9692 0.0951
vn 0.2393 0.9697 0.0485
vn -0.0000 1.0000 -0.0000
s 1
usemtl peci
f 1//1 2//2 38//38 37//37
f 2//2 3//3 39//39 38//38
f 3//3 4//4 40//40 39//39
f 4//4 5//5 41//41 40//40
f 5//5 6//6 42//42 41//41
f 6//6 7//7 43//43 42//42
f 7//7 8//8 44//44 43//43
f 8//8 9//9 45//45 44//44
f 9//9 10//10 46//46 45//45
f 10//10 11//11 47//47 46//46
f 11//11 12//12 48//48 47//47
f 12//12 13//13 49//49 48//48
f 13//13 14//14 50//50 49//49
f 14//14 15//15 51//51 50//50
f 15//15 16//16 52//52 51//51
f 16//16 17//17 53//53 52//52
f 17//17 18//18 54//54 53//53
f 18//18 19//19 55//55 54//54
f 19//19 20//20 56//56 55//55
f 20//20 21//21 57//57 56//56
f 21//21 22//22 58//58 57//57
f 22//22 23//23 59//59 58//58
f 23//23 24//24 60//60 59//59
f 24//24 25//25 61//61 60//60
f 25//25 26//26 62//62 61//61
f 26//26 27//27 63//63 62//62
f 27//27 28//28 64//64 63//63
f 28//28 29//29 65//65 64//64
f 29//29 30//30 66//66 65//65
f 30//30 31//31 67//67 66//66
f 31//31 32//32 68//68 67//67
f 32//32 33//33 69//69 68//68
f 33//33 34//34 70//70 69//69
f 34//34 35//35 71//71 70//70
f 35//35 36//36 72//72 71//71
f 36//36 1//1 37//37 72//72
f 37//37 38//38 74//74 73//73
f 38//38 39//39 75//75 74//74
f 39//39 40//40 76//76 75//75
f 40//40 41//41 77//77 76//76
f 41//41 42//42 78//78 77//77
f 42//42 43//43 79//79 78//78
f 43//43 44//44 80//80 79//79
f 44//44 45//45 81//81 80//80
f 45//45 46//46 82//82 81//81
f 46//46 47//47 83//83 82//82
f 47//47 48//48 84//84 83//83
f 48//48 49//49 85//85 84//84
f 49//49 50//50 86//86 85//85
f 50//50 51//51 87//87 86//86
f 51//51 52//52 88//88 87//87
f 52//52 53//53 89//89 88//88
f 53//53 54//54 90//90 89//89
f 54//54 55//55 91//91 90//90
f 55//55 56//56 92//92 91//91
f 56//56 57//57 93//93 92//92
f 57//57 58//58 94//94 93//93
f 58//58 59//59 95//95 94//94
f 59//59 60//60 96//96 95//95
f 60//60 61//61 97//97 96//96
f 61//61 62//62 98//98 97//97
f 62//62 63//63 99//99 98//98
f 63//63 64//64 100//100 99//99
f 64//64 65//65 101//101 100//100
f 65//65 66//66 102//102 101//101
f 66//66 67//67 103//103 102//102
f 67//67 68//68 104//104 103//103
f 68//68 69//69 105//105 104//104
f 69//69 70//70 106//106 105//105
f 70//70 71//71 107//107 106//106
f 71//71 72//72 108//108 107//107
f 72//72 37//37 73//73 108//108
f 73//73 74//74 110//110 109//109
f 74//74 75//75 111//111 110//110
f 75//75 76//76 112//112 111//111
f 76//76 77//77 113//113 112//112
f 77//77 78//78 114//114 113//113
f 78//78 79//79 115//115 114//114
f 79//79 80//80 116//116 115//115
f 80//80 81//81 117//117 116//116
f 81//81 82//82 118//118 117//117
f 82//82 83//83 119//119 118//118
f 83//83 84//84 120//120 119//119
f 84//84 85//85 121//121 120//120
f 85//85 86//86 122//122 121//121
f 86//86 87//87 123//123 122//122
f 87//87 88//88 124//124 123//123
f 88//88 89//89 125//125 124//124
f 89//89 90//90 126//126 125//125
f 90//90 91//91 127//127 126//126
f 91//91 92//92 128//128 127//127
f 92//92 93//93 129//129 128//128
f 93//93 94//94 130//130 129//129
f 94//94 95//95 131//131 130//130
f 95//95 96//96 132//132 131//131
f 96//96 97//97 133//133 132//132
f 97//97 98//98 134//134 133//133
f 98//98 99//99 135//135 134//134
f 99//99 100//100 136//136 135//135
f 100//100 101//101 137//137 136//136
f 101//101 102//102 138//138 137//137
f 102//102 103//103 139//139 138//138
f 103//103 104//104 140//140 139//139
f 104//104 105//105 141//141 140//140
f 105//105 106//106 142//142 141//141
f 106//106 107//107 143//143 142//142
f 107//107 108//108 144//144 143//143
f 108//108 73//73 109//109 144//144
f 109//109 110//110 146//146 145//145
f 110//110 111//111 147//147 146//146
f 111//111 112//112 148//148 147//147
f 112//112 113//113 149//149 148//148
f 113//113 114//114 150//150 149//149
f 114//114 115//115 151//151 150//150
f 115//115 116//116 152//152 151//151
f 116//116 117//117 153//153 152//152
f 117//117 118//118 154//154 153//153
f 118//118 119//119 155//155 154//154
f 119//119 120//120 156//156 155//155
f 120//120 121//121 157//157 156//156
f 121//121 122//122 158//158 157//157
f 122//122 123//123 159//159 158//158
f 123//123 124//124 160//160 159//159
f 124//124 125//125 161//161 160//160
f 125//125 126//126 162//162 161//161
f 126//126 127//127 163//163 162//162
f 127//127 128//128 164//164 163//163
f 128//128 129//129 165//165 164//164
f 129//129 130//130 166//166 165//165
f 130//130 131//131 167//167 166//166
f 131//131 132//132 168//168 167//167
f 132//132 133//133 169//169 168//168
f 133//133 134//134 170//170 169//169
f 134//134 135//135 171//171 170//170
f 135//135 136//136 172//172 171//171
f 136//136 137//137 173//173 172//172
f 137//137 138//138 174//174 173//173
f 138//138 139//139 175//175 174//174
f 139//139 140//140 176//176 175//175
f 140//140 141//141 177//177 176//176
f 141//141 142//142 178//178 177//177
f 142//142 143//143 179//179 178//178
f 143//143 144//144 180//180 179//179
f 144//144 109//109 145//145 180//180
f 145//145 146//146 182//181 181//181
f 146//146 147//147 183//181 182//181
f 147//147 148//148 184//181 183//181
f 148//148 149//149 185//181 184//181
f 149//149 150//150 186//181 185//181
f 150//150 151//151 187//181 186//181
f 151//151 152//152 188//181 187//181
f 152//152 153//153 189//181 188//181
f 153//153 154//154 190//181 189//181
f 154//154 155//155 191//181 190//181
f 155//155 156//156 192//181 191//181
f 156//156 157//157 193//181 192//181
f 157//157 158//158 194//181 193//181
f 158//158 159//159 195//181 194//181
f 159//159 160//160 196//181 195//181
f 160//160 161//161 197//181 196//181
f 161//161 162//162 198//181 197//181
f 162//162 163//163 199//181 198//181
f 163//163 164//164 200//181 199//181
f 164//164 165//165 201//181 200//181
f 165//165 166//166 202//181 201//181
f 166//166 167//167 203//181 202//181
f 167//167 168//168 204//181 203//181
f 168//168 169//169 205//181 204//181
f 169//169 170//170 206//181 205//181
f 170//170 171//171 207//181 206//181
f 171//171 172//172 208//181 207//181
f 172//172 173//173 209//181 208//181
f 173//173 174//174 210//181 209//181
f 174//174 175//175 211//181 210//181
f 175//175 176//176 212//181 211//181
f 176//176 177//177 213//181 212//181
f 177//177 178//178 214//181 213//181
f 178//178 179//179 215//181 214//181
f 179//179 180//180 216//181 215//181
f 180//180 145//145 181//181 216//181
o peci_jahit
v 1.065000 0.000000 0.000000
v 1.048820 0.000000 -0.162743
v 1.000773 0.000000 -0.320541
v 0.922317 0.000000 -0.468600
v 0.815837 0.000000 -0.602421
v 0.684569 0.000000 -0.717937
v 0.532500 0.000000 -0.811639
v 0.364251 0.000000 -0.880680
v 0.184935 0.000000 -0.922962
v 0.000000 0.000000 -0.937200
v -0.184935 0.000000 -0.922962
v -0.364251 0.000000 -0.880680
v -0.532500 0.000000 -0.811639
v -0.684569 0.000000 -0.717937
v -0.815837 0.000000 -0.602421
v -0.922317 0.000000 -0.468600
v -1.000773 0.000000 -0.320541
v -1.048820 0.000000 -0.162743
v -1.065000 0.000000 -0.000000
v -1.048820 0.000000 0.162743
v -1.000773 0.000000 0.320541
v -0.922317 0.000000 0.468600
v -0.815837 0.000000 0.602421
v -0.684569 0.000000 0.717937
v -0.532500 0.000000 0.811639
v -0.364251 0.000000 0.880680
v -0.184935 0.000000 0.922962
v -0.000000 0.000000 0.937200
v 0.184935 0.000000 0.922962
v 0.364251 0.000000 0.880680
v 0.532500 0.000000 0.811639
v 0.684569 0.000000 0.717937
v 0.815837 0.000000 0.602421
v 0.922317 0.000000 0.468600
v 1.000773 0.000000 0.320541
v 1.048820 0.000000 0.162743
v 1.065000 0.035000 0.000000
v 1.048820 0.035000 -0.162743
v 1.000773 0.035000 -0.320541
v 0.922317 0.035000 -0.468600
v 0.815837 0.035000 -0.602421
v 0.684569 0.035000 -0.717937
v 0.532500 0.035000 -0.811639
v 0.364251 0.035000 -0.880680
v 0.184935 0.035000 -0.922962
v 0.000000 0.035000 -0.937200
v -0.184935 0.035000 -0.922962
v -0.364251 0.035000 -0.880680
v -0.532500 0.035000 -0.811639
v -0.684569 0.035000 -0.717937
v -0.815837 0.035000 -0.602421
v -0.922317 0.035000 -0.468600
v -1.000773 0.035000 -0.320541
v -1.048820 0.035000 -0.162743
v -1.065000 0.035000 -0.000000
v -1.048820 0.035000 0.162743
v -1.000773 0.035000 0.320541
v -0.922317 0.035000 0.468600
v -0.815837 0.035000 0.602421
v -0.684569 0.035000 0.717937
v -0.532500 0.035000 0.811639
v -0.364251 0.035000 0.880680
v -0.184935 0.035000 0.922962
v -0.000000 0.035000 0.937200
v 0.184935 0.035000 0.922962
v 0.364251 0.035000 0.880680
v 0.532500 0.035000 0.811639
v 0.684569 0.035000 0.717937
v 0.815837 0.035000 0.602421
v 0.922317 0.035000 0.468600
v 1.000773 0.035000 0.320541
v 1.048820 0.035000 0.162743
vn 1.0000 -0.0000 -0.0000
vn 0.9806 -0.0000 -0.1961
vn 0.9244 -0.0000 -0.3815
vn 0.8366 -0.0000 -0.5478
vn 0.7244 -0.0000 -0.6894
vn 0.5947 -0.0000 -0.8039
vn 0.4536 -0.0000 -0.8912
vn 0.3055 -0.0000 -0.9522
vn 0.1536 -0.0000 -0.9881
vn -0.0000 -0.0000 -1.0000
vn -0.1536 -0.0000 -0.9881
vn -0.3055 -0.0000 -0.9522
vn -0.4536 -0.0000 -0.8912
vn -0.5947 -0.0000 -0.8039
vn -0.7244 -0.0000 -0.6894
vn -0.8366 -0.0000 -0.5478
vn -0.9244 -0.0000 -0.3815
vn -0.9806 -0.0000 -0.1961
vn -1.0000 -0.0000 -0.0000
vn -0.9806 -0.0000 0.1961
vn -0.9244 -0.0000 0.3815
vn -0.8366 -0.0000 0.5478
vn -0.7244 -0.0000 0.6894
vn -0.5947 -0.0000 0.8039
vn -0.4536 -0.0000 0.8912
vn -0.3055 -0.0000 0.9522
vn -0.1536 -0.0000 0.9881
vn -0.0000 -0.0000 1.0000
vn 0.1536 -0.0000 0.9881
vn 0.3055 -0.0000 0.9522
vn 0.4536 -0.0000 0.8912
vn 0.5947 -0.0000 0.8039
vn 0.7244 -0.0000 0.6894
vn 0.8366 -0.0000 0.5478
vn 0.9244 -0.0000 0.3815
vn 0.9806 -0.0000 0.1961
s 1
usemtl peci_jahit
f 217//182 218//183 254//183 253//182
f 218//183 219//184 255//184 254//183
f 219//184 220//185 256//185 255//184
f 220//185 221//186 257//186 256//185
f 221//186 222//187 258//187 257//186
f 222//187 223//188 259//188 258//187
f 223//188 224//189 260//189 259//188
f 224//189 225//190 261//190 260//189
f 225//190 226//191 262//191 261//190
f 226//191 227//192 263//192 262//191
f 227//192 228//193 264//193 263//192
f 228//193 229//194 265//194 264//193
f 229//194 230//195 266//195 265//194
f 230//195 231//196 267//196 266//195
f 231//196 232//197 268//197 267//196
f 232//197 233//198 269//198 268//197
f 233//198 234//199 270//199 269//198
f 234//199 235//200 271//200 270//199
f 235//200 236//201 272//201 271//200
f 236//201 237//202 273//202 272//201
f 237//202 238//203 274//203 273//202
f 238//203 239//204 275//204 274//203
f 239//204 240//205 276//205 275//204
f 240//205 241//206 277//206 276//205
f 241//206 242//207 278//207 277//206
f 242//207 243//208 279//208 278//207
f 243//208 244//209 280//209 279//208
f 244//209 245//210 281//210 280//209
f 245//210 246//211 282//211 281//210
f 246//211 247//212 283//212 282//211
f 247//212 248//213 284//213 283//212
f 248//213 249//214 285//214 284//213
f 249//214 250//215 286//215 285//214
f 250//215 251//216 287//216 286//215
f 251//216 252//217 288//217 287//216
f 252//217 217//182 253//182 288//217
