# Blender 5.1.1
# www.blender.org
o gapura_swarga
v -0.770000 -0.250000 0.770000
v -0.770000 -0.220000 0.800000
v -0.800000 -0.220000 0.770000
v -0.770000 0.220000 0.800000
v -0.770000 0.250000 0.770000
v -0.800000 0.220000 0.770000
v -0.770000 -0.250000 -0.770000
v -0.800000 -0.220000 -0.770000
v -0.770000 -0.220000 -0.800000
v -0.770000 0.250000 -0.770000
v -0.770000 0.220000 -0.800000
v -0.800000 0.220000 -0.770000
v 0.770000 -0.250000 0.770000
v 0.800000 -0.220000 0.770000
v 0.770000 -0.220000 0.800000
v 0.770000 0.250000 0.770000
v 0.770000 0.220000 0.800000
v 0.800000 0.220000 0.770000
v 0.770000 -0.250000 -0.770000
v 0.770000 -0.220000 -0.800000
v 0.800000 -0.220000 -0.770000
v 0.770000 0.250000 -0.770000
v 0.800000 0.220000 -0.770000
v 0.770000 0.220000 -0.800000
v -0.670000 0.250000 0.670000
v -0.670000 0.280000 0.700000
v -0.700000 0.280000 0.670000
v -0.670000 1.420000 0.700000
v -0.670000 1.450000 0.670000
v -0.700000 1.420000 0.670000
v -0.670000 0.250000 -0.670000
v -0.700000 0.280000 -0.670000
v -0.670000 0.280000 -0.700000
v -0.670000 1.450000 -0.670000
v -0.670000 1.420000 -0.700000
v -0.700000 1.420000 -0.670000
v 0.670000 0.250000 0.670000
v 0.700000 0.280000 0.670000
v 0.670000 0.280000 0.700000
v 0.670000 1.450000 0.670000
v 0.670000 1.420000 0.700000
v 0.700000 1.420000 0.670000
v 0.670000 0.250000 -0.670000
v 0.670000 0.280000 -0.700000
v 0.700000 0.280000 -0.670000
v 0.670000 1.450000 -0.670000
v 0.700000 1.420000 -0.670000
v 0.670000 1.420000 -0.700000
v -0.720000 1.390000 0.720000
v -0.720000 1.450000 0.720000
v -0.720000 1.390000 -0.720000
v -0.720000 1.450000 -0.720000
v 0.720000 1.390000 0.720000
v 0.720000 1.450000 0.720000
v 0.720000 1.390000 -0.720000
v 0.720000 1.450000 -0.720000
v -0.670000 1.450000 0.570000
v -0.670000 1.480000 0.600000
v -0.700000 1.480000 0.570000
v -0.670000 2.420000 0.600000
v -0.670000 2.450000 0.570000
v -0.700000 2.420000 0.570000
v -0.670000 1.450000 -0.570000
v -0.700000 1.480000 -0.570000
v -0.670000 1.480000 -0.600000
v -0.670000 2.450000 -0.570000
v -0.670000 2.420000 -0.600000
v -0.700000 2.420000 -0.570000
v 0.470000 1.450000 0.570000
v 0.500000 1.480000 0.570000
v 0.470000 1.480000 0.600000
v 0.470000 2.450000 0.570000
v 0.470000 2.420000 0.600000
v 0.500000 2.420000 0.570000
v 0.470000 1.450000 -0.570000
v 0.470000 1.480000 -0.600000
v 0.500000 1.480000 -0.570000
v 0.470000 2.450000 -0.570000
v 0.500000 2.420000 -0.570000
v 0.470000 2.420000 -0.600000
v -0.720000 2.390000 0.620000
v -0.720000 2.450000 0.620000
v -0.720000 2.390000 -0.620000
v -0.720000 2.450000 -0.620000
v 0.520000 2.390000 0.620000
v 0.520000 2.450000 0.620000
v 0.520000 2.390000 -0.620000
v 0.520000 2.450000 -0.620000
v -0.670000 2.450000 0.470000
v -0.670000 2.480000 0.500000
v -0.700000 2.480000 0.470000
v -0.670000 3.320000 0.500000
v -0.670000 3.350000 0.470000
v -0.700000 3.320000 0.470000
v -0.670000 2.450000 -0.470000
v -0.700000 2.480000 -0.470000
v -0.670000 2.480000 -0.500000
v -0.670000 3.350000 -0.470000
v -0.670000 3.320000 -0.500000
v -0.700000 3.320000 -0.470000
v 0.270000 2.450000 0.470000
v 0.300000 2.480000 0.470000
v 0.270000 2.480000 0.500000
v 0.270000 3.350000 0.470000
v 0.270000 3.320000 0.500000
v 0.300000 3.320000 0.470000
v 0.270000 2.450000 -0.470000
v 0.270000 2.480000 -0.500000
v 0.300000 2.480000 -0.470000
v 0.270000 3.350000 -0.470000
v 0.300000 3.320000 -0.470000
v 0.270000 3.320000 -0.500000
v -0.720000 3.290000 0.520000
v -0.720000 3.350000 0.520000
v -0.720000 3.290000 -0.520000
v -0.720000 3.350000 -0.520000
v 0.320000 3.290000 0.520000
v 0.320000 3.350000 0.520000
v 0.320000 3.290000 -0.520000
v 0.320000 3.350000 -0.520000
v -0.670000 3.350000 0.370000
v -0.670000 3.380000 0.400000
v -0.700000 3.380000 0.370000
v -0.670000 4.120000 0.400000
v -0.670000 4.150000 0.370000
v -0.700000 4.120000 0.370000
v -0.670000 3.350000 -0.370000
v -0.700000 3.380000 -0.370000
v -0.670000 3.380000 -0.400000
v -0.670000 4.150000 -0.370000
v -0.670000 4.120000 -0.400000
v -0.700000 4.120000 -0.370000
v 0.070000 3.350000 0.370000
v 0.100000 3.380000 0.370000
v 0.070000 3.380000 0.400000
v 0.070000 4.150000 0.370000
v 0.070000 4.120000 0.400000
v 0.100000 4.120000 0.370000
v 0.070000 3.350000 -0.370000
v 0.070000 3.380000 -0.400000
v 0.100000 3.380000 -0.370000
v 0.070000 4.150000 -0.370000
v 0.100000 4.120000 -0.370000
v 0.070000 4.120000 -0.400000
v -0.720000 4.090000 0.420000
v -0.720000 4.150000 0.420000
v -0.720000 4.090000 -0.420000
v -0.720000 4.150000 -0.420000
v 0.120000 4.090000 0.420000
v 0.120000 4.150000 0.420000
v 0.120000 4.090000 -0.420000
v 0.120000 4.150000 -0.420000
v -0.670000 4.150000 0.270000
v -0.670000 4.180000 0.300000
v -0.700000 4.180000 0.270000
v -0.670000 4.820000 0.300000
v -0.670000 4.850000 0.270000
v -0.700000 4.820000 0.270000
v -0.670000 4.150000 -0.270000
v -0.700000 4.180000 -0.270000
v -0.670000 4.180000 -0.300000
v -0.670000 4.850000 -0.270000
v -0.670000 4.820000 -0.300000
v -0.700000 4.820000 -0.270000
v -0.130000 4.150000 0.270000
v -0.100000 4.180000 0.270000
v -0.130000 4.180000 0.300000
v -0.130000 4.850000 0.270000
v -0.130000 4.820000 0.300000
v -0.100000 4.820000 0.270000
v -0.130000 4.150000 -0.270000
v -0.130000 4.180000 -0.300000
v -0.100000 4.180000 -0.270000
v -0.130000 4.850000 -0.270000
v -0.100000 4.820000 -0.270000
v -0.130000 4.820000 -0.300000
v -0.720000 4.790000 0.320000
v -0.720000 4.850000 0.320000
v -0.720000 4.790000 -0.320000
v -0.720000 4.850000 -0.320000
v -0.080000 4.790000 0.320000
v -0.080000 4.850000 0.320000
v -0.080000 4.790000 -0.320000
v -0.080000 4.850000 -0.320000
v -0.670000 4.850000 0.170000
v -0.670000 4.880000 0.200000
v -0.700000 4.880000 0.170000
v -0.670000 5.420000 0.200000
v -0.670000 5.450000 0.170000
v -0.700000 5.420000 0.170000
v -0.670000 4.850000 -0.170000
v -0.700000 4.880000 -0.170000
v -0.670000 4.880000 -0.200000
v -0.670000 5.450000 -0.170000
v -0.670000 5.420000 -0.200000
v -0.700000 5.420000 -0.170000
v -0.330000 4.850000 0.170000
v -0.300000 4.880000 0.170000
v -0.330000 4.880000 0.200000
v -0.330000 5.450000 0.170000
v -0.330000 5.420000 0.200000
v -0.300000 5.420000 0.170000
v -0.330000 4.850000 -0.170000
v -0.330000 4.880000 -0.200000
v -0.300000 4.880000 -0.170000
v -0.330000 5.450000 -0.170000
v -0.300000 5.420000 -0.170000
v -0.330000 5.420000 -0.200000
v -0.720000 5.390000 0.220000
v -0.720000 5.450000 0.220000
v -0.720000 5.390000 -0.220000
v -0.720000 5.450000 -0.220000
v -0.280000 5.390000 0.220000
v -0.280000 5.450000 0.220000
v -0.280000 5.390000 -0.220000
v -0.280000 5.450000 -0.220000
v -0.588000 5.450000 0.088000
v -0.588000 5.462000 0.100000
v -0.600000 5.462000 0.088000
v -0.588000 5.938000 0.100000
v -0.588000 5.950000 0.088000
v -0.600000 5.938000 0.088000
v -0.588000 5.450000 -0.088000
v -0.600000 5.462000 -0.088000
v -0.588000 5.462000 -0.100000
v -0.588000 5.950000 -0.088000
v -0.588000 5.938000 -0.100000
v -0.600000 5.938000 -0.088000
v -0.412000 5.450000 0.088000
v -0.400000 5.462000 0.088000
v -0.412000 5.462000 0.100000
v -0.412000 5.950000 0.088000
v -0.412000 5.938000 0.100000
v -0.400000 5.938000 0.088000
v -0.412000 5.450000 -0.088000
v -0.412000 5.462000 -0.100000
v -0.400000 5.462000 -0.088000
v -0.412000 5.950000 -0.088000
v -0.400000 5.938000 -0.088000
v -0.412000 5.938000 -0.100000
v -0.500000 6.190000 0.000000
v -0.500000 5.910000 0.000000
v -0.458855 6.171244 -0.056631
v -0.428735 6.120000 -0.098088
v -0.417710 6.050000 -0.113262
v -0.428735 5.980000 -0.098088
v -0.458855 5.928757 -0.056631
v -0.433426 6.171244 -0.021631
v -0.384691 6.120000 -0.037466
v -0.366852 6.050000 -0.043262
v -0.384691 5.980000 -0.037466
v -0.433426 5.928757 -0.021631
v -0.433426 6.171244 0.021631
v -0.384691 6.120000 0.037466
v -0.366852 6.050000 0.043262
v -0.384691 5.980000 0.037466
v -0.433426 5.928757 0.021631
v -0.458855 6.171244 0.056631
v -0.428735 6.120000 0.098088
v -0.417710 6.050000 0.113262
v -0.428735 5.980000 0.098088
v -0.458855 5.928757 0.056631
v -0.500000 6.171244 0.070000
v -0.500000 6.120000 0.121244
v -0.500000 6.050000 0.140000
v -0.500000 5.980000 0.121244
v -0.500000 5.928757 0.070000
v -0.541145 6.171244 0.056631
v -0.571265 6.120000 0.098088
v -0.582290 6.050000 0.113262
v -0.571265 5.980000 0.098088
v -0.541145 5.928757 0.056631
v -0.566574 6.171244 0.021631
v -0.615309 6.120000 0.037466
v -0.633148 6.050000 0.043262
v -0.615309 5.980000 0.037466
v -0.566574 5.928757 0.021631
v -0.566574 6.171244 -0.021631
v -0.615309 6.120000 -0.037466
v -0.633148 6.050000 -0.043262
v -0.615309 5.980000 -0.037466
v -0.566574 5.928757 -0.021631
v -0.541145 6.171244 -0.056631
v -0.571265 6.120000 -0.098088
v -0.582290 6.050000 -0.113262
v -0.571265 5.980000 -0.098088
v -0.541145 5.928757 -0.056631
v -0.500000 6.171244 -0.070000
v -0.500000 6.120000 -0.121244
v -0.500000 6.050000 -0.140000
v -0.500000 5.980000 -0.121244
v -0.500000 5.928757 -0.070000
v 0.000000 1.050000 0.720000
v 0.162650 1.266956 0.720488
v 0.070554 1.516019 0.553123
v -0.113669 1.266956 0.603662
v -0.112217 1.265507 0.600228
v 0.072006 1.514570 0.549689
v 0.164101 1.265507 0.717054
v 0.001452 1.048550 0.716566
v 0.000000 2.050000 0.720000
v 0.162650 2.266956 0.720488
v 0.070554 2.516020 0.553123
v -0.113669 2.266956 0.603662
v -0.112217 2.265507 0.600228
v 0.072006 2.514570 0.549689
v 0.164101 2.265507 0.717054
v 0.001452 2.048551 0.716566
v 0.000000 3.050000 0.720000
v 0.162650 3.266956 0.720488
v 0.070554 3.516020 0.553123
v -0.113669 3.266956 0.603662
v -0.112217 3.265507 0.600228
v 0.072006 3.514570 0.549689
v 0.164101 3.265507 0.717054
v 0.001452 3.048551 0.716566
v 3.430000 -0.250000 0.770000
v 3.430000 -0.220000 0.800000
v 3.400000 -0.220000 0.770000
v 3.430000 0.220000 0.800000
v 3.430000 0.250000 0.770000
v 3.400000 0.220000 0.770000
v 3.430000 -0.250000 -0.770000
v 3.400000 -0.220000 -0.770000
v 3.430000 -0.220000 -0.800000
v 3.430000 0.250000 -0.770000
v 3.430000 0.220000 -0.800000
v 3.400000 0.220000 -0.770000
v 4.970000 -0.250000 0.770000
v 5.000000 -0.220000 0.770000
v 4.970000 -0.220000 0.800000
v 4.970000 0.250000 0.770000
v 4.970000 0.220000 0.800000
v 5.000000 0.220000 0.770000
v 4.970000 -0.250000 -0.770000
v 4.970000 -0.220000 -0.800000
v 5.000000 -0.220000 -0.770000
v 4.970000 0.250000 -0.770000
v 5.000000 0.220000 -0.770000
v 4.970000 0.220000 -0.800000
v 3.530000 0.250000 0.670000
v 3.530000 0.280000 0.700000
v 3.500000 0.280000 0.670000
v 3.530000 1.420000 0.700000
v 3.530000 1.450000 0.670000
v 3.500000 1.420000 0.670000
v 3.530000 0.250000 -0.670000
v 3.500000 0.280000 -0.670000
v 3.530000 0.280000 -0.700000
v 3.530000 1.450000 -0.670000
v 3.530000 1.420000 -0.700000
v 3.500000 1.420000 -0.670000
v 4.870000 0.250000 0.670000
v 4.900000 0.280000 0.670000
v 4.870000 0.280000 0.700000
v 4.870000 1.450000 0.670000
v 4.870000 1.420000 0.700000
v 4.900000 1.420000 0.670000
v 4.870000 0.250000 -0.670000
v 4.870000 0.280000 -0.700000
v 4.900000 0.280000 -0.670000
v 4.870000 1.450000 -0.670000
v 4.900000 1.420000 -0.670000
v 4.870000 1.420000 -0.700000
v 3.480000 1.390000 0.720000
v 3.480000 1.450000 0.720000
v 3.480000 1.390000 -0.720000
v 3.480000 1.450000 -0.720000
v 4.920000 1.390000 0.720000
v 4.920000 1.450000 0.720000
v 4.920000 1.390000 -0.720000
v 4.920000 1.450000 -0.720000
v 3.730000 1.450000 0.570000
v 3.730000 1.480000 0.600000
v 3.700000 1.480000 0.570000
v 3.730000 2.420000 0.600000
v 3.730000 2.450000 0.570000
v 3.700000 2.420000 0.570000
v 3.730000 1.450000 -0.570000
v 3.700000 1.480000 -0.570000
v 3.730000 1.480000 -0.600000
v 3.730000 2.450000 -0.570000
v 3.730000 2.420000 -0.600000
v 3.700000 2.420000 -0.570000
v 4.870000 1.450000 0.570000
v 4.900000 1.480000 0.570000
v 4.870000 1.480000 0.600000
v 4.870000 2.450000 0.570000
v 4.870000 2.420000 0.600000
v 4.900000 2.420000 0.570000
v 4.870000 1.450000 -0.570000
v 4.870000 1.480000 -0.600000
v 4.900000 1.480000 -0.570000
v 4.870000 2.450000 -0.570000
v 4.900000 2.420000 -0.570000
v 4.870000 2.420000 -0.600000
v 3.680000 2.390000 0.620000
v 3.680000 2.450000 0.620000
v 3.680000 2.390000 -0.620000
v 3.680000 2.450000 -0.620000
v 4.920000 2.390000 0.620000
v 4.920000 2.450000 0.620000
v 4.920000 2.390000 -0.620000
v 4.920000 2.450000 -0.620000
v 3.930000 2.450000 0.470000
v 3.930000 2.480000 0.500000
v 3.900000 2.480000 0.470000
v 3.930000 3.320000 0.500000
v 3.930000 3.350000 0.470000
v 3.900000 3.320000 0.470000
v 3.930000 2.450000 -0.470000
v 3.900000 2.480000 -0.470000
v 3.930000 2.480000 -0.500000
v 3.930000 3.350000 -0.470000
v 3.930000 3.320000 -0.500000
v 3.900000 3.320000 -0.470000
v 4.869999 2.450000 0.470000
v 4.900000 2.480000 0.470000
v 4.869999 2.480000 0.500000
v 4.869999 3.350000 0.470000
v 4.869999 3.320000 0.500000
v 4.900000 3.320000 0.470000
v 4.869999 2.450000 -0.470000
v 4.869999 2.480000 -0.500000
v 4.900000 2.480000 -0.470000
v 4.869999 3.350000 -0.470000
v 4.900000 3.320000 -0.470000
v 4.869999 3.320000 -0.500000
v 3.880000 3.290000 0.520000
v 3.880000 3.350000 0.520000
v 3.880000 3.290000 -0.520000
v 3.880000 3.350000 -0.520000
v 4.920000 3.290000 0.520000
v 4.920000 3.350000 0.520000
v 4.920000 3.290000 -0.520000
v 4.920000 3.350000 -0.520000
v 4.130000 3.350000 0.370000
v 4.130000 3.380000 0.400000
v 4.100000 3.380000 0.370000
v 4.130000 4.120000 0.400000
v 4.130000 4.150000 0.370000
v 4.100000 4.120000 0.370000
v 4.130000 3.350000 -0.370000
v 4.100000 3.380000 -0.370000
v 4.130000 3.380000 -0.400000
v 4.130000 4.150000 -0.370000
v 4.130000 4.120000 -0.400000
v 4.100000 4.120000 -0.370000
v 4.870000 3.350000 0.370000
v 4.900000 3.380000 0.370000
v 4.870000 3.380000 0.400000
v 4.870000 4.150000 0.370000
v 4.870000 4.120000 0.400000
v 4.900000 4.120000 0.370000
v 4.870000 3.350000 -0.370000
v 4.870000 3.380000 -0.400000
v 4.900000 3.380000 -0.370000
v 4.870000 4.150000 -0.370000
v 4.900000 4.120000 -0.370000
v 4.870000 4.120000 -0.400000
v 4.080000 4.090000 0.420000
v 4.080000 4.150000 0.420000
v 4.080000 4.090000 -0.420000
v 4.080000 4.150000 -0.420000
v 4.920000 4.090000 0.420000
v 4.920000 4.150000 0.420000
v 4.920000 4.090000 -0.420000
v 4.920000 4.150000 -0.420000
v 4.330000 4.150000 0.270000
v 4.330000 4.180000 0.300000
v 4.300000 4.180000 0.270000
v 4.330000 4.820000 0.300000
v 4.330000 4.850000 0.270000
v 4.300000 4.820000 0.270000
v 4.330000 4.150000 -0.270000
v 4.300000 4.180000 -0.270000
v 4.330000 4.180000 -0.300000
v 4.330000 4.850000 -0.270000
v 4.330000 4.820000 -0.300000
v 4.300000 4.820000 -0.270000
v 4.870000 4.150000 0.270000
v 4.900000 4.180000 0.270000
v 4.870000 4.180000 0.300000
v 4.870000 4.850000 0.270000
v 4.870000 4.820000 0.300000
v 4.900000 4.820000 0.270000
v 4.870000 4.150000 -0.270000
v 4.870000 4.180000 -0.300000
v 4.900000 4.180000 -0.270000
v 4.870000 4.850000 -0.270000
v 4.900000 4.820000 -0.270000
v 4.870000 4.820000 -0.300000
v 4.280000 4.790000 0.320000
v 4.280000 4.850000 0.320000
v 4.280000 4.790000 -0.320000
v 4.280000 4.850000 -0.320000
v 4.920000 4.790000 0.320000
v 4.920000 4.850000 0.320000
v 4.920000 4.790000 -0.320000
v 4.920000 4.850000 -0.320000
v 4.530000 4.850000 0.170000
v 4.530000 4.880000 0.200000
v 4.500000 4.880000 0.170000
v 4.530000 5.420000 0.200000
v 4.530000 5.450000 0.170000
v 4.500000 5.420000 0.170000
v 4.530000 4.850000 -0.170000
v 4.500000 4.880000 -0.170000
v 4.530000 4.880000 -0.200000
v 4.530000 5.450000 -0.170000
v 4.530000 5.420000 -0.200000
v 4.500000 5.420000 -0.170000
v 4.870000 4.850000 0.170000
v 4.900000 4.880000 0.170000
v 4.870000 4.880000 0.200000
v 4.870000 5.450000 0.170000
v 4.870000 5.420000 0.200000
v 4.900000 5.420000 0.170000
v 4.870000 4.850000 -0.170000
v 4.870000 4.880000 -0.200000
v 4.900000 4.880000 -0.170000
v 4.870000 5.450000 -0.170000
v 4.900000 5.420000 -0.170000
v 4.870000 5.420000 -0.200000
v 4.480000 5.390000 0.220000
v 4.480000 5.450000 0.220000
v 4.480000 5.390000 -0.220000
v 4.480000 5.450000 -0.220000
v 4.920000 5.390000 0.220000
v 4.920000 5.450000 0.220000
v 4.920000 5.390000 -0.220000
v 4.920000 5.450000 -0.220000
v 4.612000 5.450000 0.088000
v 4.612000 5.462000 0.100000
v 4.600000 5.462000 0.088000
v 4.612000 5.938000 0.100000
v 4.612000 5.950000 0.088000
v 4.600000 5.938000 0.088000
v 4.612000 5.450000 -0.088000
v 4.600000 5.462000 -0.088000
v 4.612000 5.462000 -0.100000
v 4.612000 5.950000 -0.088000
v 4.612000 5.938000 -0.100000
v 4.600000 5.938000 -0.088000
v 4.788000 5.450000 0.088000
v 4.800000 5.462000 0.088000
v 4.788000 5.462000 0.100000
v 4.788000 5.950000 0.088000
v 4.788000 5.938000 0.100000
v 4.800000 5.938000 0.088000
v 4.788000 5.450000 -0.088000
v 4.788000 5.462000 -0.100000
v 4.800000 5.462000 -0.088000
v 4.788000 5.950000 -0.088000
v 4.800000 5.938000 -0.088000
v 4.788000 5.938000 -0.100000
v 4.700000 6.190000 0.000000
v 4.700000 5.910000 0.000000
v 4.741145 6.171244 -0.056631
v 4.771265 6.120000 -0.098088
v 4.782290 6.050000 -0.113262
v 4.771265 5.980000 -0.098088
v 4.741145 5.928757 -0.056631
v 4.766574 6.171244 -0.021631
v 4.815309 6.120000 -0.037466
v 4.833148 6.050000 -0.043262
v 4.815309 5.980000 -0.037466
v 4.766574 5.928757 -0.021631
v 4.766574 6.171244 0.021631
v 4.815309 6.120000 0.037466
v 4.833148 6.050000 0.043262
v 4.815309 5.980000 0.037466
v 4.766574 5.928757 0.021631
v 4.741145 6.171244 0.056631
v 4.771265 6.120000 0.098088
v 4.782290 6.050000 0.113262
v 4.771265 5.980000 0.098088
v 4.741145 5.928757 0.056631
v 4.700000 6.171244 0.070000
v 4.700000 6.120000 0.121244
v 4.700000 6.050000 0.140000
v 4.700000 5.980000 0.121244
v 4.700000 5.928757 0.070000
v 4.658855 6.171244 0.056631
v 4.628735 6.120000 0.098088
v 4.617710 6.050000 0.113262
v 4.628735 5.980000 0.098088
v 4.658855 5.928757 0.056631
v 4.633426 6.171244 0.021631
v 4.584691 6.120000 0.037466
v 4.566852 6.050000 0.043262
v 4.584691 5.980000 0.037466
v 4.633426 5.928757 0.021631
v 4.633426 6.171244 -0.021631
v 4.584691 6.120000 -0.037466
v 4.566852 6.050000 -0.043262
v 4.584691 5.980000 -0.037466
v 4.633426 5.928757 -0.021631
v 4.658855 6.171244 -0.056631
v 4.628735 6.120000 -0.098088
v 4.617710 6.050000 -0.113262
v 4.628735 5.980000 -0.098088
v 4.658855 5.928757 -0.056631
v 4.700000 6.171244 -0.070000
v 4.700000 6.120000 -0.121244
v 4.700000 6.050000 -0.140000
v 4.700000 5.980000 -0.121244
v 4.700000 5.928757 -0.070000
v 4.200000 1.050000 0.720000
v 4.313669 1.266956 0.603662
v 4.129446 1.516019 0.553123
v 4.037350 1.266956 0.720488
v 4.035898 1.265507 0.717054
v 4.127994 1.514570 0.549689
v 4.312217 1.265507 0.600228
v 4.198548 1.048550 0.716566
v 4.200000 2.050000 0.720000
v 4.313669 2.266956 0.603662
v 4.129446 2.516020 0.553123
v 4.037350 2.266956 0.720488
v 4.035898 2.265507 0.717054
v 4.127994 2.514570 0.549689
v 4.312217 2.265507 0.600228
v 4.198548 2.048551 0.716566
v 4.200000 3.050000 0.720000
v 4.313669 3.266956 0.603662
v 4.129446 3.516020 0.553123
v 4.037350 3.266956 0.720488
v 4.035898 3.265507 0.717054
v 4.127994 3.514570 0.549689
v 4.312217 3.265507 0.600228
v 4.198548 3.048551 0.716566
v 0.920000 -0.010000 0.630000
v 0.920000 0.010000 0.650000
v 0.900000 0.010000 0.630000
v 0.920000 0.090000 0.650000
v 0.920000 0.110000 0.630000
v 0.900000 0.090000 0.630000
v 0.920000 -0.010000 0.170000
v 0.900000 0.010000 0.170000
v 0.920000 0.010000 0.150000
v 0.920000 0.110000 0.170000
v 0.920000 0.090000 0.150000
v 0.900000 0.090000 0.170000
v 3.280000 -0.010000 0.630000
v 3.300000 0.010000 0.630000
v 3.280000 0.010000 0.650000
v 3.280000 0.110000 0.630000
v 3.280000 0.090000 0.650000
v 3.300000 0.090000 0.630000
v 3.280000 -0.010000 0.170000
v 3.280000 0.010000 0.150000
v 3.300000 0.010000 0.170000
v 3.280000 0.110000 0.170000
v 3.300000 0.090000 0.170000
v 3.280000 0.090000 0.150000
v 0.920000 -0.130000 1.130000
v 0.920000 -0.110000 1.150000
v 0.900000 -0.110000 1.130000
v 0.920000 -0.030000 1.150000
v 0.920000 -0.010000 1.130000
v 0.900000 -0.030000 1.130000
v 0.920000 -0.130000 0.670000
v 0.900000 -0.110000 0.670000
v 0.920000 -0.110000 0.650000
v 0.920000 -0.010000 0.670000
v 0.920000 -0.030000 0.650000
v 0.900000 -0.030000 0.670000
v 3.280000 -0.130000 1.130000
v 3.300000 -0.110000 1.130000
v 3.280000 -0.110000 1.150000
v 3.280000 -0.010000 1.130000
v 3.280000 -0.030000 1.150000
v 3.300000 -0.030000 1.130000
v 3.280000 -0.130000 0.670000
v 3.280000 -0.110000 0.650000
v 3.300000 -0.110000 0.670000
v 3.280000 -0.010000 0.670000
v 3.300000 -0.030000 0.670000
v 3.280000 -0.030000 0.650000
v 0.920000 -0.250000 1.630000
v 0.920000 -0.230000 1.650000
v 0.900000 -0.230000 1.630000
v 0.920000 -0.150000 1.650000
v 0.920000 -0.130000 1.630000
v 0.900000 -0.150000 1.630000
v 0.920000 -0.250000 1.170000
v 0.900000 -0.230000 1.170000
v 0.920000 -0.230000 1.150000
v 0.920000 -0.130000 1.170000
v 0.920000 -0.150000 1.150000
v 0.900000 -0.150000 1.170000
v 3.280000 -0.250000 1.630000
v 3.300000 -0.230000 1.630000
v 3.280000 -0.230000 1.650000
v 3.280000 -0.130000 1.630000
v 3.280000 -0.150000 1.650000
v 3.300000 -0.150000 1.630000
v 3.280000 -0.250000 1.170000
v 3.280000 -0.230000 1.150000
v 3.300000 -0.230000 1.170000
v 3.280000 -0.130000 1.170000
v 3.300000 -0.150000 1.170000
v 3.280000 -0.150000 1.150000
v -1.200000 -0.250000 0.820000
v -1.200000 0.050000 0.820000
v -1.094199 -0.250000 0.854377
v -1.094199 0.050000 0.854377
v -1.028810 -0.250000 0.944377
v -1.028810 0.050000 0.944377
v -1.028810 -0.250000 1.055623
v -1.028810 0.050000 1.055623
v -1.094199 -0.250000 1.145623
v -1.094199 0.050000 1.145623
v -1.200000 -0.250000 1.180000
v -1.200000 0.050000 1.180000
v -1.305801 -0.250000 1.145623
v -1.305801 0.050000 1.145623
v -1.371190 -0.250000 1.055623
v -1.371190 0.050000 1.055623
v -1.371190 -0.250000 0.944377
v -1.371190 0.050000 0.944377
v -1.305801 -0.250000 0.854377
v -1.305801 0.050000 0.854377
v -1.200000 0.050000 1.000000
v -1.150000 0.033374 0.909316
v -1.200000 -0.027884 0.815788
v -1.250000 0.033374 0.909316
v -1.250000 0.029689 0.910874
v -1.200000 -0.031568 0.817345
v -1.150000 0.029689 0.910874
v -1.200000 0.046316 1.001558
v -1.200000 0.050000 1.000000
v -1.303522 0.033374 1.002621
v -1.359014 -0.027884 1.092999
v -1.253037 0.033374 1.088942
v -1.251692 0.029689 1.088156
v -1.357669 -0.031568 1.092212
v -1.302177 0.029689 1.001835
v -1.198655 0.046316 0.999214
v -1.200000 0.050000 1.000000
v -1.145475 0.033374 1.088037
v -1.039445 -0.027884 1.090312
v -1.096449 0.033374 1.000880
v -1.097807 0.029689 1.000116
v -1.040803 -0.031568 1.089548
v -1.146833 0.029689 1.087274
v -1.201358 0.046316 0.999236
v -0.900000 -0.250000 -0.630000
v -0.900000 2.350000 -0.630000
v -0.874019 -0.250000 -0.615000
v -0.874019 2.350000 -0.615000
v -0.874019 -0.250000 -0.585000
v -0.874019 2.350000 -0.585000
v -0.900000 -0.250000 -0.570000
v -0.900000 2.350000 -0.570000
v -0.925981 -0.250000 -0.585000
v -0.925981 2.350000 -0.585000
v -0.925981 -0.250000 -0.615000
v -0.925981 2.350000 -0.615000
v -0.900000 2.150000 -1.150000
v -0.900000 2.450000 -0.650000
v -0.625000 2.150000 -1.076314
v -0.875000 2.450000 -0.643301
v -0.423686 2.150000 -0.875000
v -0.856699 2.450000 -0.625000
v -0.350000 2.150000 -0.600000
v -0.850000 2.450000 -0.600000
v -0.423686 2.150000 -0.325000
v -0.856699 2.450000 -0.575000
v -0.625000 2.150000 -0.123686
v -0.875000 2.450000 -0.556699
v -0.900000 2.150000 -0.050000
v -0.900000 2.450000 -0.550000
v -1.175000 2.150000 -0.123686
v -0.925000 2.450000 -0.556699
v -1.376314 2.150000 -0.325000
v -0.943301 2.450000 -0.575000
v -1.450000 2.150000 -0.600000
v -0.950000 2.450000 -0.600000
v -1.376314 2.150000 -0.875000
v -0.943301 2.450000 -0.625000
v -1.175000 2.150000 -1.076314
v -0.925000 2.450000 -0.643301
v -0.900000 2.050000 -1.160000
v -0.900000 2.170000 -1.160000
v -0.620000 2.050000 -1.084974
v -0.620000 2.170000 -1.084974
v -0.415026 2.050000 -0.880000
v -0.415026 2.170000 -0.880000
v -0.340000 2.050000 -0.600000
v -0.340000 2.170000 -0.600000
v -0.415026 2.050000 -0.320000
v -0.415026 2.170000 -0.320000
v -0.620000 2.050000 -0.115026
v -0.620000 2.170000 -0.115026
v -0.900000 2.050000 -0.040000
v -0.900000 2.170000 -0.040000
v -1.180000 2.050000 -0.115026
v -1.180000 2.170000 -0.115026
v -1.384974 2.050000 -0.320000
v -1.384974 2.170000 -0.320000
v -1.460000 2.050000 -0.600000
v -1.460000 2.170000 -0.600000
v -1.384974 2.050000 -0.880000
v -1.384974 2.170000 -0.880000
v -1.180000 2.050000 -1.084974
v -1.180000 2.170000 -1.084974
v 5.400000 -0.250000 0.820000
v 5.400000 0.050000 0.820000
v 5.505801 -0.250000 0.854377
v 5.505801 0.050000 0.854377
v 5.571190 -0.250000 0.944377
v 5.571190 0.050000 0.944377
v 5.571190 -0.250000 1.055623
v 5.571190 0.050000 1.055623
v 5.505801 -0.250000 1.145623
v 5.505801 0.050000 1.145623
v 5.400000 -0.250000 1.180000
v 5.400000 0.050000 1.180000
v 5.294198 -0.250000 1.145623
v 5.294198 0.050000 1.145623
v 5.228809 -0.250000 1.055623
v 5.228809 0.050000 1.055623
v 5.228809 -0.250000 0.944377
v 5.228809 0.050000 0.944377
v 5.294198 -0.250000 0.854377
v 5.294198 0.050000 0.854377
v 5.400000 0.050000 1.000000
v 5.450000 0.033374 0.909316
v 5.400000 -0.027884 0.815788
v 5.349999 0.033374 0.909316
v 5.349999 0.029689 0.910874
v 5.400000 -0.031568 0.817345
v 5.450000 0.029689 0.910874
v 5.400000 0.046316 1.001558
v 5.400000 0.050000 1.000000
v 5.296478 0.033374 1.002621
v 5.240986 -0.027884 1.092999
v 5.346963 0.033374 1.088942
v 5.348307 0.029689 1.088156
v 5.242331 -0.031568 1.092212
v 5.297823 0.029689 1.001835
v 5.401344 0.046316 0.999214
v 5.400000 0.050000 1.000000
v 5.454525 0.033374 1.088037
v 5.560555 -0.027884 1.090312
v 5.503551 0.033374 1.000880
v 5.502193 0.029689 1.000116
v 5.559197 -0.031568 1.089548
v 5.453167 0.029689 1.087274
v 5.398642 0.046316 0.999236
v 5.100000 -0.250000 -0.630000
v 5.100000 2.350000 -0.630000
v 5.125981 -0.250000 -0.615000
v 5.125981 2.350000 -0.615000
v 5.125981 -0.250000 -0.585000
v 5.125981 2.350000 -0.585000
v 5.100000 -0.250000 -0.570000
v 5.100000 2.350000 -0.570000
v 5.074019 -0.250000 -0.585000
v 5.074019 2.350000 -0.585000
v 5.074019 -0.250000 -0.615000
v 5.074019 2.350000 -0.615000
v 5.100000 2.150000 -1.150000
v 5.100000 2.450000 -0.650000
v 5.375000 2.150000 -1.076314
v 5.125000 2.450000 -0.643301
v 5.576314 2.150000 -0.875000
v 5.143301 2.450000 -0.625000
v 5.650000 2.150000 -0.600000
v 5.150000 2.450000 -0.600000
v 5.576314 2.150000 -0.325000
v 5.143301 2.450000 -0.575000
v 5.375000 2.150000 -0.123686
v 5.125000 2.450000 -0.556699
v 5.100000 2.150000 -0.050000
v 5.100000 2.450000 -0.550000
v 4.825000 2.150000 -0.123686
v 5.075000 2.450000 -0.556699
v 4.623686 2.150000 -0.325000
v 5.056699 2.450000 -0.575000
v 4.550000 2.150000 -0.600000
v 5.050000 2.450000 -0.600000
v 4.623686 2.150000 -0.875000
v 5.056699 2.450000 -0.625000
v 4.825000 2.150000 -1.076314
v 5.075000 2.450000 -0.643301
v 5.100000 2.050000 -1.160000
v 5.100000 2.170000 -1.160000
v 5.380000 2.050000 -1.084974
v 5.380000 2.170000 -1.084974
v 5.584974 2.050000 -0.880000
v 5.584974 2.170000 -0.880000
v 5.660000 2.050000 -0.600000
v 5.660000 2.170000 -0.600000
v 5.584974 2.050000 -0.320000
v 5.584974 2.170000 -0.320000
v 5.380000 2.050000 -0.115026
v 5.380000 2.170000 -0.115026
v 5.100000 2.050000 -0.040000
v 5.100000 2.170000 -0.040000
v 4.820000 2.050000 -0.115026
v 4.820000 2.170000 -0.115026
v 4.615026 2.050000 -0.320000
v 4.615026 2.170000 -0.320000
v 4.540000 2.050000 -0.600000
v 4.540000 2.170000 -0.600000
v 4.615026 2.050000 -0.880000
v 4.615026 2.170000 -0.880000
v 4.820000 2.050000 -1.084974
v 4.820000 2.170000 -1.084974
vn -0.5774 -0.5773 0.5774
vn -0.5774 0.5773 0.5774
vn -0.5774 -0.5773 -0.5774
vn -0.5774 0.5773 -0.5774
vn 0.5774 -0.5773 0.5774
vn 0.5774 0.5773 0.5774
vn 0.5774 -0.5773 -0.5774
vn 0.5774 0.5773 -0.5774
vn -0.7071 -0.7071 -0.0000
vn -0.7071 -0.0000 0.7071
vn -0.7071 0.7071 -0.0000
vn -0.7071 -0.0000 -0.7071
vn -0.0000 -0.7071 -0.7071
vn -0.0000 0.7071 -0.7071
vn 0.7071 -0.0000 -0.7071
vn 0.7071 -0.7071 -0.0000
vn 0.7071 0.7071 -0.0000
vn 0.7071 -0.0000 0.7071
vn -0.0000 -0.7071 0.7071
vn -0.0000 0.7071 0.7071
vn -0.0000 -1.0000 -0.0000
vn -1.0000 -0.0000 -0.0000
vn -0.0000 -0.0000 1.0000
vn -0.0000 1.0000 -0.0000
vn -0.0000 -0.0000 -1.0000
vn 1.0000 -0.0000 -0.0000
vn -0.5773 -0.5774 0.5774
vn -0.5774 0.5774 0.5774
vn -0.5773 -0.5774 -0.5774
vn -0.5774 0.5774 -0.5774
vn 0.5773 -0.5774 0.5774
vn 0.5774 0.5774 0.5774
vn 0.5773 -0.5774 -0.5774
vn 0.5774 0.5774 -0.5774
vn -0.5773 0.5774 0.5774
vn -0.5773 0.5774 -0.5774
vn 0.5773 0.5774 0.5774
vn 0.5773 0.5774 -0.5774
vn -0.5774 -0.5773 0.5773
vn -0.5774 0.5773 0.5773
vn -0.5774 -0.5773 -0.5773
vn -0.5774 0.5773 -0.5773
vn 0.5774 0.5773 0.5773
vn 0.5774 0.5773 -0.5773
vn -0.5774 -0.5774 0.5773
vn -0.5774 0.5774 0.5773
vn -0.5774 -0.5774 -0.5773
vn -0.5774 0.5774 -0.5773
vn 0.5774 -0.5774 0.5773
vn 0.5774 0.5774 0.5773
vn 0.5774 -0.5774 -0.5773
vn 0.5774 0.5774 -0.5773
vn -0.5773 -0.5773 0.5774
vn -0.5773 -0.5773 -0.5774
vn 0.5773 -0.5773 0.5774
vn 0.5773 -0.5773 -0.5774
vn 0.5774 -0.5773 0.5773
vn 0.5774 -0.5773 -0.5773
vn 0.0838 0.9625 -0.2579
vn 0.0838 -0.9625 -0.2579
vn 0.2995 -0.2469 -0.9216
vn 0.2239 0.6892 -0.6892
vn 0.2239 -0.6892 -0.6892
vn 0.2994 0.2469 -0.9216
vn 0.2194 -0.9625 -0.1594
vn 0.7840 -0.2469 -0.5696
vn 0.5862 0.6892 -0.4259
vn 0.5862 -0.6891 -0.4259
vn 0.7840 0.2469 -0.5696
vn 0.2194 0.9625 -0.1594
vn 0.9690 -0.2469 -0.0000
vn 0.7246 0.6892 -0.0000
vn 0.7246 -0.6892 -0.0000
vn 0.9690 0.2469 -0.0000
vn 0.2712 0.9625 -0.0000
vn 0.2712 -0.9625 -0.0000
vn 0.5862 0.6892 0.4259
vn 0.5862 -0.6892 0.4259
vn 0.7840 0.2469 0.5696
vn 0.2194 0.9625 0.1594
vn 0.2194 -0.9625 0.1594
vn 0.7840 -0.2469 0.5696
vn 0.2239 -0.6892 0.6892
vn 0.2994 0.2469 0.9216
vn 0.0838 0.9625 0.2579
vn 0.0838 -0.9625 0.2579
vn 0.2995 -0.2469 0.9216
vn 0.2239 0.6892 0.6892
vn -0.2239 -0.6892 0.6891
vn -0.2994 0.2469 0.9216
vn -0.0838 0.9625 0.2579
vn -0.0838 -0.9625 0.2579
vn -0.2995 -0.2469 0.9216
vn -0.2239 0.6892 0.6891
vn -0.5862 -0.6892 0.4259
vn -0.7840 0.2469 0.5696
vn -0.2194 0.9625 0.1594
vn -0.2194 -0.9625 0.1594
vn -0.7840 -0.2469 0.5696
vn -0.5862 0.6892 0.4259
vn -0.7246 -0.6892 -0.0000
vn -0.9690 0.2469 -0.0000
vn -0.2712 0.9625 -0.0000
vn -0.2712 -0.9625 -0.0000
vn -0.9690 -0.2469 -0.0000
vn -0.7246 0.6891 -0.0000
vn -0.7840 0.2469 -0.5696
vn -0.2194 0.9625 -0.1594
vn -0.2194 -0.9625 -0.1594
vn -0.7840 -0.2469 -0.5696
vn -0.5862 0.6892 -0.4259
vn -0.5862 -0.6892 -0.4259
vn -0.0838 0.9625 -0.2579
vn -0.0838 -0.9625 -0.2579
vn -0.2995 -0.2469 -0.9216
vn -0.2239 0.6892 -0.6892
vn -0.2239 -0.6892 -0.6892
vn -0.2994 0.2469 -0.9216
vn -0.3740 0.2784 0.8846
vn 0.3740 -0.2784 -0.8846
vn -0.5773 0.5773 0.5774
vn -0.5773 0.5773 -0.5774
vn 0.5773 0.5773 0.5774
vn 0.5773 0.5773 -0.5774
vn 0.5773 -0.5774 0.5773
vn 0.5773 0.5774 0.5773
vn 0.5773 -0.5774 -0.5773
vn 0.5773 0.5774 -0.5773
vn 0.2239 -0.6891 -0.6892
vn 0.5862 -0.6892 -0.4259
vn 0.2994 -0.2469 0.9216
vn 0.2239 -0.6892 0.6891
vn -0.2239 -0.6891 0.6892
vn -0.2995 0.2469 0.9216
vn -0.7246 -0.6891 -0.0000
vn -0.2239 0.6892 -0.6891
vn 0.3740 0.2784 0.8846
vn -0.3740 -0.2784 -0.8846
vn -0.5774 -0.5774 0.5774
vn -0.5774 -0.5774 -0.5774
vn 0.3090 -0.0000 -0.9511
vn 0.8090 -0.0000 -0.5878
vn 0.8090 -0.0000 0.5878
vn 0.3090 -0.0000 0.9511
vn -0.3090 -0.0000 0.9511
vn -0.8090 -0.0000 0.5878
vn -0.8090 -0.0000 -0.5878
vn -0.3090 -0.0000 -0.9511
vn -0.0000 0.9836 -0.1803
vn -0.0000 -0.9836 0.1803
vn -0.1557 0.9836 0.0910
vn 0.1557 -0.9836 -0.0910
vn 0.1572 0.9836 0.0884
vn -0.1572 -0.9836 -0.0884
vn 0.5000 -0.0000 -0.8660
vn 0.5000 -0.0000 0.8660
vn -0.5000 -0.0000 0.8660
vn -0.5000 -0.0000 -0.8660
vn 0.1366 0.8495 -0.5097
vn 0.3731 0.8495 -0.3731
vn 0.5097 0.8495 -0.1366
vn 0.5097 0.8495 0.1366
vn 0.3731 0.8495 0.3731
vn 0.1366 0.8495 0.5097
vn -0.1366 0.8495 0.5097
vn -0.3731 0.8495 0.3731
vn -0.5097 0.8495 0.1366
vn -0.5097 0.8495 -0.1366
vn -0.3731 0.8495 -0.3731
vn -0.1366 0.8495 -0.5097
vn 0.2588 -0.0000 -0.9659
vn 0.9659 -0.0000 -0.2588
vn 0.9659 -0.0000 0.2588
vn 0.2588 -0.0000 0.9659
vn -0.2588 -0.0000 0.9659
vn -0.9659 -0.0000 0.2588
vn -0.9659 -0.0000 -0.2588
vn -0.2588 -0.0000 -0.9659
vn 0.2994 -0.2469 -0.9216
vn 0.2239 -0.6892 -0.6891
vn 0.7246 0.6891 -0.0000
vn 0.7246 -0.6891 -0.0000
vn 0.5862 -0.6891 0.4259
vn -0.2994 -0.2469 0.9216
vn -0.2239 0.6892 0.6892
vn -0.7246 0.6892 -0.0000
vn -0.2994 -0.2469 -0.9216
vn -0.3518 0.4290 0.8320
vn 0.3518 -0.4290 -0.8320
vn 0.2239 0.6892 -0.6891
vn 0.2995 0.2469 0.9216
vn 0.2239 0.6892 0.6891
vn -0.5862 -0.6891 -0.4259
vn -0.2239 -0.6892 -0.6891
vn -0.2995 0.2469 -0.9216
vn 0.3518 0.4290 0.8320
vn -0.3518 -0.4290 -0.8320
vn -0.0000 0.8365 -0.5479
vn -0.0000 -0.8365 0.5479
vn -0.4730 0.8365 0.2766
vn 0.4730 -0.8365 -0.2766
vn 0.4775 0.8365 0.2686
vn -0.4775 -0.8365 -0.2686
vt 0.281250 0.906250
vt 0.906250 0.968750
vt 0.218750 0.906250
vt 0.718750 0.906250
vt 0.531250 0.906250
vt 0.593750 0.968750
vt 0.468750 0.968750
vt 0.031250 0.968750
vt 0.093750 0.843750
s 0
f 1/1/1 2/1/1 3/1/1
f 4/1/2 5/1/2 6/1/2
f 7/1/3 8/1/3 9/1/3
f 10/1/4 11/1/4 12/1/4
f 13/1/5 14/1/5 15/1/5
f 16/1/6 17/1/6 18/1/6
f 19/1/7 20/1/7 21/1/7
f 22/1/8 23/1/8 24/1/8
f 1/1/9 8/1/9 7/1/9
f 4/1/10 3/1/10 2/1/10
f 10/1/11 6/1/11 5/1/11
f 9/1/12 12/1/12 11/1/12
f 7/1/13 20/1/13 19/1/13
f 22/1/14 11/1/14 10/1/14
f 21/1/15 24/1/15 23/1/15
f 19/1/16 14/1/16 13/1/16
f 16/1/17 23/1/17 22/1/17
f 15/1/18 18/1/18 17/1/18
f 13/1/19 2/1/19 1/1/19
f 5/1/20 17/1/20 16/1/20
f 19/1/21 1/1/21 7/1/21
f 6/1/22 8/1/22 3/1/22
f 17/1/23 2/1/23 15/1/23
f 10/1/24 16/1/24 22/1/24
f 11/1/25 20/1/25 9/1/25
f 23/1/26 14/1/26 21/1/26
f 25/1/27 26/1/27 27/1/27
f 28/1/28 29/1/28 30/1/28
f 31/1/29 32/1/29 33/1/29
f 34/1/30 35/1/30 36/1/30
f 37/1/31 38/1/31 39/1/31
f 40/1/32 41/1/32 42/1/32
f 43/1/33 44/1/33 45/1/33
f 46/1/34 47/1/34 48/1/34
f 25/1/9 32/1/9 31/1/9
f 28/1/10 27/1/10 26/1/10
f 34/1/11 30/1/11 29/1/11
f 33/1/12 36/1/12 35/1/12
f 31/1/13 44/1/13 43/1/13
f 46/1/14 35/1/14 34/1/14
f 45/1/15 48/1/15 47/1/15
f 43/1/16 38/1/16 37/1/16
f 40/1/17 47/1/17 46/1/17
f 39/1/18 42/1/18 41/1/18
f 37/1/19 26/1/19 25/1/19
f 29/1/20 41/1/20 40/1/20
f 43/1/21 25/1/21 31/1/21
f 30/1/22 32/1/22 27/1/22
f 41/1/23 26/1/23 39/1/23
f 34/1/24 40/1/24 46/1/24
f 35/1/25 44/1/25 33/1/25
f 47/1/26 38/1/26 45/1/26
f 50/2/22 51/2/22 49/2/22
f 52/2/25 55/2/25 51/2/25
f 56/2/26 53/2/26 55/2/26
f 54/2/23 49/2/23 53/2/23
f 55/2/21 49/2/21 51/2/21
f 52/2/24 54/2/24 56/2/24
f 57/3/1 58/3/1 59/3/1
f 60/3/35 61/3/35 62/3/35
f 63/3/3 64/3/3 65/3/3
f 66/3/36 67/3/36 68/3/36
f 69/3/5 70/3/5 71/3/5
f 72/3/37 73/3/37 74/3/37
f 75/3/7 76/3/7 77/3/7
f 78/3/38 79/3/38 80/3/38
f 57/3/9 64/3/9 63/3/9
f 60/3/10 59/3/10 58/3/10
f 66/3/11 62/3/11 61/3/11
f 65/3/12 68/3/12 67/3/12
f 63/3/13 76/3/13 75/3/13
f 78/3/14 67/3/14 66/3/14
f 77/3/15 80/3/15 79/3/15
f 75/3/16 70/3/16 69/3/16
f 72/3/17 79/3/17 78/3/17
f 71/3/18 74/3/18 73/3/18
f 69/3/19 58/3/19 57/3/19
f 61/3/20 73/3/20 72/3/20
f 75/3/21 57/3/21 63/3/21
f 62/3/22 64/3/22 59/3/22
f 73/3/23 58/3/23 71/3/23
f 66/3/24 72/3/24 78/3/24
f 67/3/25 76/3/25 65/3/25
f 79/3/26 70/3/26 77/3/26
f 82/2/22 83/2/22 81/2/22
f 84/2/25 87/2/25 83/2/25
f 88/2/26 85/2/26 87/2/26
f 86/2/23 81/2/23 85/2/23
f 87/2/21 81/2/21 83/2/21
f 84/2/24 86/2/24 88/2/24
f 89/1/27 90/1/27 91/1/27
f 92/1/35 93/1/35 94/1/35
f 95/1/29 96/1/29 97/1/29
f 98/1/36 99/1/36 100/1/36
f 101/1/31 102/1/31 103/1/31
f 104/1/37 105/1/37 106/1/37
f 107/1/33 108/1/33 109/1/33
f 110/1/38 111/1/38 112/1/38
f 89/1/9 96/1/9 95/1/9
f 92/1/10 91/1/10 90/1/10
f 98/1/11 94/1/11 93/1/11
f 97/1/12 100/1/12 99/1/12
f 95/1/13 108/1/13 107/1/13
f 110/1/14 99/1/14 98/1/14
f 109/1/15 112/1/15 111/1/15
f 107/1/16 102/1/16 101/1/16
f 104/1/17 111/1/17 110/1/17
f 103/1/18 106/1/18 105/1/18
f 101/1/19 90/1/19 89/1/19
f 93/1/20 105/1/20 104/1/20
f 107/1/21 89/1/21 95/1/21
f 94/1/22 96/1/22 91/1/22
f 105/1/23 90/1/23 103/1/23
f 98/1/24 104/1/24 110/1/24
f 99/1/25 108/1/25 97/1/25
f 111/1/26 102/1/26 109/1/26
f 114/2/22 115/2/22 113/2/22
f 116/2/25 119/2/25 115/2/25
f 120/2/26 117/2/26 119/2/26
f 118/2/23 113/2/23 117/2/23
f 119/2/21 113/2/21 115/2/21
f 116/2/24 118/2/24 120/2/24
f 121/3/39 122/3/39 123/3/39
f 124/3/40 125/3/40 126/3/40
f 127/3/41 128/3/41 129/3/41
f 130/3/42 131/3/42 132/3/42
f 133/3/5 134/3/5 135/3/5
f 136/3/43 137/3/43 138/3/43
f 139/3/7 140/3/7 141/3/7
f 142/3/44 143/3/44 144/3/44
f 121/3/9 128/3/9 127/3/9
f 124/3/10 123/3/10 122/3/10
f 130/3/11 126/3/11 125/3/11
f 129/3/12 132/3/12 131/3/12
f 127/3/13 140/3/13 139/3/13
f 142/3/14 131/3/14 130/3/14
f 141/3/15 144/3/15 143/3/15
f 139/3/16 134/3/16 133/3/16
f 136/3/17 143/3/17 142/3/17
f 135/3/18 138/3/18 137/3/18
f 133/3/19 122/3/19 121/3/19
f 125/3/20 137/3/20 136/3/20
f 139/3/21 121/3/21 127/3/21
f 126/3/22 128/3/22 123/3/22
f 137/3/23 122/3/23 135/3/23
f 130/3/24 136/3/24 142/3/24
f 131/3/25 140/3/25 129/3/25
f 143/3/26 134/3/26 141/3/26
f 146/2/22 147/2/22 145/2/22
f 148/2/25 151/2/25 147/2/25
f 152/2/26 149/2/26 151/2/26
f 150/2/23 145/2/23 149/2/23
f 151/2/21 145/2/21 147/2/21
f 148/2/24 150/2/24 152/2/24
f 153/1/45 154/1/45 155/1/45
f 156/1/46 157/1/46 158/1/46
f 159/1/47 160/1/47 161/1/47
f 162/1/48 163/1/48 164/1/48
f 165/1/49 166/1/49 167/1/49
f 168/1/50 169/1/50 170/1/50
f 171/1/51 172/1/51 173/1/51
f 174/1/52 175/1/52 176/1/52
f 153/1/9 160/1/9 159/1/9
f 156/1/10 155/1/10 154/1/10
f 162/1/11 158/1/11 157/1/11
f 161/1/12 164/1/12 163/1/12
f 159/1/13 172/1/13 171/1/13
f 174/1/14 163/1/14 162/1/14
f 173/1/15 176/1/15 175/1/15
f 171/1/16 166/1/16 165/1/16
f 168/1/17 175/1/17 174/1/17
f 167/1/18 170/1/18 169/1/18
f 165/1/19 154/1/19 153/1/19
f 157/1/20 169/1/20 168/1/20
f 171/1/21 153/1/21 159/1/21
f 158/1/22 160/1/22 155/1/22
f 169/1/23 154/1/23 167/1/23
f 162/1/24 168/1/24 174/1/24
f 163/1/25 172/1/25 161/1/25
f 175/1/26 166/1/26 173/1/26
f 178/2/22 179/2/22 177/2/22
f 180/2/25 183/2/25 179/2/25
f 184/2/26 181/2/26 183/2/26
f 182/2/23 177/2/23 181/2/23
f 183/2/21 177/2/21 179/2/21
f 180/2/24 182/2/24 184/2/24
f 185/3/53 186/3/53 187/3/53
f 188/3/40 189/3/40 190/3/40
f 191/3/54 192/3/54 193/3/54
f 194/3/42 195/3/42 196/3/42
f 197/3/55 198/3/55 199/3/55
f 200/3/43 201/3/43 202/3/43
f 203/3/56 204/3/56 205/3/56
f 206/3/44 207/3/44 208/3/44
f 185/3/9 192/3/9 191/3/9
f 188/3/10 187/3/10 186/3/10
f 194/3/11 190/3/11 189/3/11
f 193/3/12 196/3/12 195/3/12
f 191/3/13 204/3/13 203/3/13
f 206/3/14 195/3/14 194/3/14
f 205/3/15 208/3/15 207/3/15
f 203/3/16 198/3/16 197/3/16
f 200/3/17 207/3/17 206/3/17
f 199/3/18 202/3/18 201/3/18
f 197/3/19 186/3/19 185/3/19
f 189/3/20 201/3/20 200/3/20
f 203/3/21 185/3/21 191/3/21
f 190/3/22 192/3/22 187/3/22
f 201/3/23 186/3/23 199/3/23
f 194/3/24 200/3/24 206/3/24
f 195/3/25 204/3/25 193/3/25
f 207/3/26 198/3/26 205/3/26
f 210/2/22 211/2/22 209/2/22
f 212/2/25 215/2/25 211/2/25
f 216/2/26 213/2/26 215/2/26
f 214/2/23 209/2/23 213/2/23
f 215/2/21 209/2/21 211/2/21
f 212/2/24 214/2/24 216/2/24
f 217/2/39 218/2/39 219/2/39
f 220/2/35 221/2/35 222/2/35
f 223/2/41 224/2/41 225/2/41
f 226/2/36 227/2/36 228/2/36
f 229/2/57 230/2/57 231/2/57
f 232/2/37 233/2/37 234/2/37
f 235/2/58 236/2/58 237/2/58
f 238/2/38 239/2/38 240/2/38
f 217/2/9 224/2/9 223/2/9
f 220/2/10 219/2/10 218/2/10
f 226/2/11 222/2/11 221/2/11
f 225/2/12 228/2/12 227/2/12
f 223/2/13 236/2/13 235/2/13
f 238/2/14 227/2/14 226/2/14
f 237/2/15 240/2/15 239/2/15
f 235/2/16 230/2/16 229/2/16
f 232/2/17 239/2/17 238/2/17
f 231/2/18 234/2/18 233/2/18
f 229/2/19 218/2/19 217/2/19
f 221/2/20 233/2/20 232/2/20
f 235/2/21 217/2/21 223/2/21
f 222/2/22 224/2/22 219/2/22
f 233/2/23 218/2/23 231/2/23
f 226/2/24 232/2/24 238/2/24
f 227/2/25 236/2/25 225/2/25
f 239/2/26 230/2/26 237/2/26
f 288/2/59 241/2/59 243/2/59
f 242/2/60 292/2/60 247/2/60
f 290/2/61 246/2/61 291/2/61
f 288/2/62 244/2/62 289/2/62
f 292/2/63 246/2/63 247/2/63
f 290/2/64 244/2/64 245/2/64
f 242/2/65 247/2/65 252/2/65
f 245/2/66 251/2/66 246/2/66
f 243/2/67 249/2/67 244/2/67
f 246/2/68 252/2/68 247/2/68
f 244/2/69 250/2/69 245/2/69
f 243/2/70 241/2/70 248/2/70
f 250/2/71 256/2/71 251/2/71
f 248/2/72 254/2/72 249/2/72
f 251/2/73 257/2/73 252/2/73
f 249/2/74 255/2/74 250/2/74
f 248/2/75 241/2/75 253/2/75
f 242/2/76 252/2/76 257/2/76
f 253/2/77 259/2/77 254/2/77
f 257/2/78 261/2/78 262/2/78
f 255/2/79 259/2/79 260/2/79
f 253/2/80 241/2/80 258/2/80
f 242/2/81 257/2/81 262/2/81
f 255/2/82 261/2/82 256/2/82
f 261/2/83 267/2/83 262/2/83
f 259/2/84 265/2/84 260/2/84
f 258/2/85 241/2/85 263/2/85
f 242/2/86 262/2/86 267/2/86
f 260/2/87 266/2/87 261/2/87
f 259/2/88 263/2/88 264/2/88
f 267/2/89 271/2/89 272/2/89
f 264/2/90 270/2/90 265/2/90
f 263/2/91 241/2/91 268/2/91
f 242/2/92 267/2/92 272/2/92
f 265/2/93 271/2/93 266/2/93
f 264/2/94 268/2/94 269/2/94
f 271/2/95 277/2/95 272/2/95
f 269/2/96 275/2/96 270/2/96
f 268/2/97 241/2/97 273/2/97
f 242/2/98 272/2/98 277/2/98
f 270/2/99 276/2/99 271/2/99
f 269/2/100 273/2/100 274/2/100
f 277/2/101 281/2/101 282/2/101
f 274/2/102 280/2/102 275/2/102
f 273/2/103 241/2/103 278/2/103
f 242/2/104 277/2/104 282/2/104
f 276/2/105 280/2/105 281/2/105
f 273/2/106 279/2/106 274/2/106
f 280/2/107 284/2/107 285/2/107
f 278/2/108 241/2/108 283/2/108
f 242/2/109 282/2/109 287/2/109
f 280/2/110 286/2/110 281/2/110
f 278/2/111 284/2/111 279/2/111
f 281/2/112 287/2/112 282/2/112
f 283/2/113 241/2/113 288/2/113
f 242/2/114 287/2/114 292/2/114
f 285/2/115 291/2/115 286/2/115
f 283/2/116 289/2/116 284/2/116
f 286/2/117 292/2/117 287/2/117
f 285/2/118 289/2/118 290/2/118
f 294/2/119 296/2/119 293/2/119
f 297/2/120 299/2/120 300/2/120
f 302/2/119 304/2/119 301/2/119
f 305/2/120 307/2/120 308/2/120
f 310/2/119 312/2/119 309/2/119
f 313/2/120 315/2/120 316/2/120
f 317/1/45 318/1/45 319/1/45
f 320/1/46 321/1/46 322/1/46
f 323/1/47 324/1/47 325/1/47
f 326/1/48 327/1/48 328/1/48
f 329/1/49 330/1/49 331/1/49
f 332/1/50 333/1/50 334/1/50
f 335/1/51 336/1/51 337/1/51
f 338/1/52 339/1/52 340/1/52
f 317/1/9 324/1/9 323/1/9
f 320/1/10 319/1/10 318/1/10
f 326/1/11 322/1/11 321/1/11
f 325/1/12 328/1/12 327/1/12
f 323/1/13 336/1/13 335/1/13
f 338/1/14 327/1/14 326/1/14
f 337/1/15 340/1/15 339/1/15
f 335/1/16 330/1/16 329/1/16
f 332/1/17 339/1/17 338/1/17
f 331/1/18 334/1/18 333/1/18
f 329/1/19 318/1/19 317/1/19
f 321/1/20 333/1/20 332/1/20
f 335/1/21 317/1/21 323/1/21
f 322/1/22 324/1/22 319/1/22
f 333/1/23 318/1/23 331/1/23
f 326/1/24 332/1/24 338/1/24
f 327/1/25 336/1/25 325/1/25
f 339/1/26 330/1/26 337/1/26
f 341/1/27 342/1/27 343/1/27
f 344/1/28 345/1/28 346/1/28
f 347/1/29 348/1/29 349/1/29
f 350/1/30 351/1/30 352/1/30
f 353/1/5 354/1/5 355/1/5
f 356/1/6 357/1/6 358/1/6
f 359/1/7 360/1/7 361/1/7
f 362/1/8 363/1/8 364/1/8
f 341/1/9 348/1/9 347/1/9
f 344/1/10 343/1/10 342/1/10
f 350/1/11 346/1/11 345/1/11
f 349/1/12 352/1/12 351/1/12
f 347/1/13 360/1/13 359/1/13
f 362/1/14 351/1/14 350/1/14
f 361/1/15 364/1/15 363/1/15
f 359/1/16 354/1/16 353/1/16
f 356/1/17 363/1/17 362/1/17
f 355/1/18 358/1/18 357/1/18
f 353/1/19 342/1/19 341/1/19
f 345/1/20 357/1/20 356/1/20
f 359/1/21 341/1/21 347/1/21
f 346/1/22 348/1/22 343/1/22
f 357/1/23 342/1/23 355/1/23
f 350/1/24 356/1/24 362/1/24
f 351/1/25 360/1/25 349/1/25
f 363/1/26 354/1/26 361/1/26
f 366/2/22 367/2/22 365/2/22
f 368/2/25 371/2/25 367/2/25
f 372/2/26 369/2/26 371/2/26
f 370/2/23 365/2/23 369/2/23
f 371/2/21 365/2/21 367/2/21
f 368/2/24 370/2/24 372/2/24
f 373/3/1 374/3/1 375/3/1
f 376/3/121 377/3/121 378/3/121
f 379/3/3 380/3/3 381/3/3
f 382/3/122 383/3/122 384/3/122
f 385/3/5 386/3/5 387/3/5
f 388/3/123 389/3/123 390/3/123
f 391/3/7 392/3/7 393/3/7
f 394/3/124 395/3/124 396/3/124
f 373/3/9 380/3/9 379/3/9
f 376/3/10 375/3/10 374/3/10
f 382/3/11 378/3/11 377/3/11
f 381/3/12 384/3/12 383/3/12
f 379/3/13 392/3/13 391/3/13
f 394/3/14 383/3/14 382/3/14
f 393/3/15 396/3/15 395/3/15
f 391/3/16 386/3/16 385/3/16
f 388/3/17 395/3/17 394/3/17
f 387/3/18 390/3/18 389/3/18
f 385/3/19 374/3/19 373/3/19
f 377/3/20 389/3/20 388/3/20
f 391/3/21 373/3/21 379/3/21
f 378/3/22 380/3/22 375/3/22
f 389/3/23 374/3/23 387/3/23
f 382/3/24 388/3/24 394/3/24
f 383/3/25 392/3/25 381/3/25
f 395/3/26 386/3/26 393/3/26
f 398/2/22 399/2/22 397/2/22
f 400/2/25 403/2/25 399/2/25
f 404/2/26 401/2/26 403/2/26
f 402/2/23 397/2/23 401/2/23
f 403/2/21 397/2/21 399/2/21
f 400/2/24 402/2/24 404/2/24
f 405/1/27 406/1/27 407/1/27
f 408/1/35 409/1/35 410/1/35
f 411/1/29 412/1/29 413/1/29
f 414/1/36 415/1/36 416/1/36
f 417/1/31 418/1/31 419/1/31
f 420/1/37 421/1/37 422/1/37
f 423/1/33 424/1/33 425/1/33
f 426/1/38 427/1/38 428/1/38
f 405/1/9 412/1/9 411/1/9
f 408/1/10 407/1/10 406/1/10
f 414/1/11 410/1/11 409/1/11
f 413/1/12 416/1/12 415/1/12
f 411/1/13 424/1/13 423/1/13
f 426/1/14 415/1/14 414/1/14
f 425/1/15 428/1/15 427/1/15
f 423/1/16 418/1/16 417/1/16
f 420/1/17 427/1/17 426/1/17
f 419/1/18 422/1/18 421/1/18
f 417/1/19 406/1/19 405/1/19
f 409/1/20 421/1/20 420/1/20
f 423/1/21 405/1/21 411/1/21
f 410/1/22 412/1/22 407/1/22
f 421/1/23 406/1/23 419/1/23
f 414/1/24 420/1/24 426/1/24
f 415/1/25 424/1/25 413/1/25
f 427/1/26 418/1/26 425/1/26
f 430/2/22 431/2/22 429/2/22
f 432/2/25 435/2/25 431/2/25
f 436/2/26 433/2/26 435/2/26
f 434/2/23 429/2/23 433/2/23
f 435/2/21 429/2/21 431/2/21
f 432/2/24 434/2/24 436/2/24
f 437/3/53 438/3/53 439/3/53
f 440/3/2 441/3/2 442/3/2
f 443/3/54 444/3/54 445/3/54
f 446/3/4 447/3/4 448/3/4
f 449/3/55 450/3/55 451/3/55
f 452/3/6 453/3/6 454/3/6
f 455/3/56 456/3/56 457/3/56
f 458/3/8 459/3/8 460/3/8
f 437/3/9 444/3/9 443/3/9
f 440/3/10 439/3/10 438/3/10
f 446/3/11 442/3/11 441/3/11
f 445/3/12 448/3/12 447/3/12
f 443/3/13 456/3/13 455/3/13
f 458/3/14 447/3/14 446/3/14
f 457/3/15 460/3/15 459/3/15
f 455/3/16 450/3/16 449/3/16
f 452/3/17 459/3/17 458/3/17
f 451/3/18 454/3/18 453/3/18
f 449/3/19 438/3/19 437/3/19
f 441/3/20 453/3/20 452/3/20
f 455/3/21 437/3/21 443/3/21
f 442/3/22 444/3/22 439/3/22
f 453/3/23 438/3/23 451/3/23
f 446/3/24 452/3/24 458/3/24
f 447/3/25 456/3/25 445/3/25
f 459/3/26 450/3/26 457/3/26
f 462/2/22 463/2/22 461/2/22
f 464/2/25 467/2/25 463/2/25
f 468/2/26 465/2/26 467/2/26
f 466/2/23 461/2/23 465/2/23
f 467/2/21 461/2/21 463/2/21
f 464/2/24 466/2/24 468/2/24
f 469/1/53 470/1/53 471/1/53
f 472/1/121 473/1/121 474/1/121
f 475/1/54 476/1/54 477/1/54
f 478/1/122 479/1/122 480/1/122
f 481/1/125 482/1/125 483/1/125
f 484/1/126 485/1/126 486/1/126
f 487/1/127 488/1/127 489/1/127
f 490/1/128 491/1/128 492/1/128
f 469/1/9 476/1/9 475/1/9
f 472/1/10 471/1/10 470/1/10
f 478/1/11 474/1/11 473/1/11
f 477/1/12 480/1/12 479/1/12
f 475/1/13 488/1/13 487/1/13
f 490/1/14 479/1/14 478/1/14
f 489/1/15 492/1/15 491/1/15
f 487/1/16 482/1/16 481/1/16
f 484/1/17 491/1/17 490/1/17
f 483/1/18 486/1/18 485/1/18
f 481/1/19 470/1/19 469/1/19
f 473/1/20 485/1/20 484/1/20
f 487/1/21 469/1/21 475/1/21
f 474/1/22 476/1/22 471/1/22
f 485/1/23 470/1/23 483/1/23
f 478/1/24 484/1/24 490/1/24
f 479/1/25 488/1/25 477/1/25
f 491/1/26 482/1/26 489/1/26
f 494/2/22 495/2/22 493/2/22
f 496/2/25 499/2/25 495/2/25
f 500/2/26 497/2/26 499/2/26
f 498/2/23 493/2/23 497/2/23
f 499/2/21 493/2/21 495/2/21
f 496/2/24 498/2/24 500/2/24
f 501/3/1 502/3/1 503/3/1
f 504/3/40 505/3/40 506/3/40
f 507/3/3 508/3/3 509/3/3
f 510/3/42 511/3/42 512/3/42
f 513/3/5 514/3/5 515/3/5
f 516/3/43 517/3/43 518/3/43
f 519/3/7 520/3/7 521/3/7
f 522/3/44 523/3/44 524/3/44
f 501/3/9 508/3/9 507/3/9
f 504/3/10 503/3/10 502/3/10
f 510/3/11 506/3/11 505/3/11
f 509/3/12 512/3/12 511/3/12
f 507/3/13 520/3/13 519/3/13
f 522/3/14 511/3/14 510/3/14
f 521/3/15 524/3/15 523/3/15
f 519/3/16 514/3/16 513/3/16
f 516/3/17 523/3/17 522/3/17
f 515/3/18 518/3/18 517/3/18
f 513/3/19 502/3/19 501/3/19
f 505/3/20 517/3/20 516/3/20
f 519/3/21 501/3/21 507/3/21
f 506/3/22 508/3/22 503/3/22
f 517/3/23 502/3/23 515/3/23
f 510/3/24 516/3/24 522/3/24
f 511/3/25 520/3/25 509/3/25
f 523/3/26 514/3/26 521/3/26
f 526/2/22 527/2/22 525/2/22
f 528/2/25 531/2/25 527/2/25
f 532/2/26 529/2/26 531/2/26
f 530/2/23 525/2/23 529/2/23
f 531/2/21 525/2/21 527/2/21
f 528/2/24 530/2/24 532/2/24
f 533/2/1 534/2/1 535/2/1
f 536/2/35 537/2/35 538/2/35
f 539/2/3 540/2/3 541/2/3
f 542/2/36 543/2/36 544/2/36
f 545/2/5 546/2/5 547/2/5
f 548/2/37 549/2/37 550/2/37
f 551/2/7 552/2/7 553/2/7
f 554/2/38 555/2/38 556/2/38
f 533/2/9 540/2/9 539/2/9
f 536/2/10 535/2/10 534/2/10
f 542/2/11 538/2/11 537/2/11
f 541/2/12 544/2/12 543/2/12
f 539/2/13 552/2/13 551/2/13
f 554/2/14 543/2/14 542/2/14
f 553/2/15 556/2/15 555/2/15
f 551/2/16 546/2/16 545/2/16
f 548/2/17 555/2/17 554/2/17
f 547/2/18 550/2/18 549/2/18
f 545/2/19 534/2/19 533/2/19
f 537/2/20 549/2/20 548/2/20
f 551/2/21 533/2/21 539/2/21
f 538/2/22 540/2/22 535/2/22
f 549/2/23 534/2/23 547/2/23
f 542/2/24 548/2/24 554/2/24
f 543/2/25 552/2/25 541/2/25
f 555/2/26 546/2/26 553/2/26
f 606/2/61 562/2/61 607/2/61
f 604/2/62 560/2/62 605/2/62
f 607/2/129 563/2/129 608/2/129
f 606/2/64 560/2/64 561/2/64
f 604/2/59 557/2/59 559/2/59
f 558/2/60 608/2/60 563/2/60
f 563/2/130 567/2/130 568/2/130
f 560/2/69 566/2/69 561/2/69
f 559/2/70 557/2/70 564/2/70
f 558/2/65 563/2/65 568/2/65
f 562/2/66 566/2/66 567/2/66
f 559/2/67 565/2/67 560/2/67
f 567/2/73 573/2/73 568/2/73
f 565/2/74 571/2/74 566/2/74
f 564/2/75 557/2/75 569/2/75
f 558/2/76 568/2/76 573/2/76
f 566/2/71 572/2/71 567/2/71
f 564/2/72 570/2/72 565/2/72
f 572/2/78 578/2/78 573/2/78
f 571/2/79 575/2/79 576/2/79
f 569/2/80 557/2/80 574/2/80
f 558/2/81 573/2/81 578/2/81
f 571/2/82 577/2/82 572/2/82
f 570/2/77 574/2/77 575/2/77
f 575/2/84 581/2/84 576/2/84
f 574/2/85 557/2/85 579/2/85
f 558/2/86 578/2/86 583/2/86
f 577/2/131 581/2/131 582/2/131
f 575/2/88 579/2/88 580/2/88
f 577/2/132 583/2/132 578/2/132
f 579/2/91 557/2/91 584/2/91
f 558/2/92 583/2/92 588/2/92
f 581/2/93 587/2/93 582/2/93
f 579/2/94 585/2/94 580/2/94
f 582/2/133 588/2/133 583/2/133
f 581/2/134 585/2/134 586/2/134
f 558/2/98 588/2/98 593/2/98
f 587/2/99 591/2/99 592/2/99
f 584/2/100 590/2/100 585/2/100
f 588/2/95 592/2/95 593/2/95
f 585/2/96 591/2/96 586/2/96
f 584/2/97 557/2/97 589/2/97
f 558/2/104 593/2/104 598/2/104
f 591/2/105 597/2/105 592/2/105
f 589/2/106 595/2/106 590/2/106
f 592/2/135 598/2/135 593/2/135
f 590/2/102 596/2/102 591/2/102
f 589/2/103 557/2/103 594/2/103
f 558/2/109 598/2/109 603/2/109
f 596/2/110 602/2/110 597/2/110
f 595/2/111 599/2/111 600/2/111
f 597/2/112 603/2/112 598/2/112
f 595/2/107 601/2/107 596/2/107
f 594/2/108 557/2/108 599/2/108
f 601/2/115 607/2/115 602/2/115
f 599/2/136 605/2/136 600/2/136
f 603/2/117 607/2/117 608/2/117
f 601/2/118 605/2/118 606/2/118
f 599/2/113 557/2/113 604/2/113
f 558/2/114 603/2/114 608/2/114
f 610/2/137 612/2/137 609/2/137
f 613/2/138 615/2/138 616/2/138
f 618/2/137 620/2/137 617/2/137
f 621/2/138 623/2/138 624/2/138
f 626/2/137 628/2/137 625/2/137
f 629/2/138 631/2/138 632/2/138
f 633/3/139 634/3/139 635/3/139
f 636/3/28 637/3/28 638/3/28
f 639/3/47 640/3/47 641/3/47
f 642/3/48 643/3/48 644/3/48
f 645/3/49 646/3/49 647/3/49
f 648/3/123 649/3/123 650/3/123
f 651/3/51 652/3/51 653/3/51
f 654/3/124 655/3/124 656/3/124
f 633/3/9 640/3/9 639/3/9
f 636/3/10 635/3/10 634/3/10
f 642/3/11 638/3/11 637/3/11
f 641/3/12 644/3/12 643/3/12
f 639/3/13 652/3/13 651/3/13
f 654/3/14 643/3/14 642/3/14
f 653/3/15 656/3/15 655/3/15
f 651/3/16 646/3/16 645/3/16
f 648/3/17 655/3/17 654/3/17
f 647/3/18 650/3/18 649/3/18
f 645/3/19 634/3/19 633/3/19
f 637/3/20 649/3/20 648/3/20
f 651/3/21 633/3/21 639/3/21
f 638/3/22 640/3/22 635/3/22
f 649/3/23 634/3/23 647/3/23
f 642/3/24 648/3/24 654/3/24
f 643/3/25 652/3/25 641/3/25
f 655/3/26 646/3/26 653/3/26
f 657/3/45 658/3/45 659/3/45
f 660/3/28 661/3/28 662/3/28
f 663/3/140 664/3/140 665/3/140
f 666/3/30 667/3/30 668/3/30
f 669/3/55 670/3/55 671/3/55
f 672/3/50 673/3/50 674/3/50
f 675/3/56 676/3/56 677/3/56
f 678/3/52 679/3/52 680/3/52
f 657/3/9 664/3/9 663/3/9
f 660/3/10 659/3/10 658/3/10
f 666/3/11 662/3/11 661/3/11
f 665/3/12 668/3/12 667/3/12
f 663/3/13 676/3/13 675/3/13
f 678/3/14 667/3/14 666/3/14
f 677/3/15 680/3/15 679/3/15
f 675/3/16 670/3/16 669/3/16
f 672/3/17 679/3/17 678/3/17
f 671/3/18 674/3/18 673/3/18
f 669/3/19 658/3/19 657/3/19
f 661/3/20 673/3/20 672/3/20
f 675/3/21 657/3/21 663/3/21
f 662/3/22 664/3/22 659/3/22
f 673/3/23 658/3/23 671/3/23
f 666/3/24 672/3/24 678/3/24
f 667/3/25 676/3/25 665/3/25
f 679/3/26 670/3/26 677/3/26
f 681/3/139 682/3/139 683/3/139
f 684/3/40 685/3/40 686/3/40
f 687/3/140 688/3/140 689/3/140
f 690/3/4 691/3/4 692/3/4
f 693/3/49 694/3/49 695/3/49
f 696/3/50 697/3/50 698/3/50
f 699/3/51 700/3/51 701/3/51
f 702/3/52 703/3/52 704/3/52
f 681/3/9 688/3/9 687/3/9
f 684/3/10 683/3/10 682/3/10
f 690/3/11 686/3/11 685/3/11
f 689/3/12 692/3/12 691/3/12
f 687/3/13 700/3/13 699/3/13
f 702/3/14 691/3/14 690/3/14
f 701/3/15 704/3/15 703/3/15
f 699/3/16 694/3/16 693/3/16
f 696/3/17 703/3/17 702/3/17
f 695/3/18 698/3/18 697/3/18
f 693/3/19 682/3/19 681/3/19
f 685/3/20 697/3/20 696/3/20
f 699/3/21 681/3/21 687/3/21
f 686/3/22 688/3/22 683/3/22
f 697/3/23 682/3/23 695/3/23
f 690/3/24 696/3/24 702/3/24
f 691/3/25 700/3/25 689/3/25
f 703/3/26 694/3/26 701/3/26
f 706/4/141 707/4/141 705/4/141
f 708/4/142 709/4/142 707/4/142
f 710/4/26 711/4/26 709/4/26
f 712/4/143 713/4/143 711/4/143
f 714/4/144 715/4/144 713/4/144
f 716/4/145 717/4/145 715/4/145
f 718/4/146 719/4/146 717/4/146
f 720/4/22 721/4/22 719/4/22
f 722/4/24 714/4/24 710/4/24
f 722/4/147 723/4/147 721/4/147
f 724/4/148 705/4/148 723/4/148
f 711/4/21 719/4/21 723/4/21
f 726/5/149 728/5/149 725/5/149
f 729/5/150 731/5/150 732/5/150
f 734/6/151 736/6/151 733/6/151
f 737/6/152 739/6/152 740/6/152
f 742/7/153 744/7/153 741/7/153
f 745/7/154 747/7/154 748/7/154
f 750/8/155 751/8/155 749/8/155
f 752/8/26 753/8/26 751/8/26
f 754/8/156 755/8/156 753/8/156
f 756/8/157 757/8/157 755/8/157
f 750/8/24 758/8/24 754/8/24
f 758/8/22 759/8/22 757/8/22
f 760/8/158 749/8/158 759/8/158
f 751/8/21 755/8/21 759/8/21
f 762/6/159 763/6/159 761/6/159
f 764/6/160 765/6/160 763/6/160
f 765/6/161 768/6/161 767/6/161
f 768/6/162 769/6/162 767/6/162
f 770/6/163 771/6/163 769/6/163
f 772/6/164 773/6/164 771/6/164
f 774/6/165 775/6/165 773/6/165
f 775/6/166 778/6/166 777/6/166
f 778/6/167 779/6/167 777/6/167
f 780/6/168 781/6/168 779/6/168
f 782/6/24 774/6/24 766/6/24
f 782/6/169 783/6/169 781/6/169
f 784/6/170 761/6/170 783/6/170
f 767/6/21 775/6/21 783/6/21
f 786/9/171 787/9/171 785/9/171
f 788/9/15 789/9/15 787/9/15
f 790/9/172 791/9/172 789/9/172
f 792/9/173 793/9/173 791/9/173
f 794/9/18 795/9/18 793/9/18
f 796/9/174 797/9/174 795/9/174
f 798/9/175 799/9/175 797/9/175
f 800/9/10 801/9/10 799/9/10
f 802/9/176 803/9/176 801/9/176
f 804/9/177 805/9/177 803/9/177
f 806/9/24 798/9/24 790/9/24
f 806/9/12 807/9/12 805/9/12
f 808/9/178 785/9/178 807/9/178
f 791/9/21 799/9/21 807/9/21
f 810/4/141 811/4/141 809/4/141
f 812/4/142 813/4/142 811/4/142
f 814/4/26 815/4/26 813/4/26
f 816/4/143 817/4/143 815/4/143
f 818/4/144 819/4/144 817/4/144
f 820/4/145 821/4/145 819/4/145
f 822/4/146 823/4/146 821/4/146
f 824/4/22 825/4/22 823/4/22
f 826/4/24 818/4/24 814/4/24
f 826/4/147 827/4/147 825/4/147
f 828/4/148 809/4/148 827/4/148
f 815/4/21 823/4/21 827/4/21
f 830/5/149 832/5/149 829/5/149
f 833/5/150 835/5/150 836/5/150
f 838/6/151 840/6/151 837/6/151
f 841/6/152 843/6/152 844/6/152
f 846/7/153 848/7/153 845/7/153
f 849/7/154 851/7/154 852/7/154
f 854/8/155 855/8/155 853/8/155
f 856/8/26 857/8/26 855/8/26
f 858/8/156 859/8/156 857/8/156
f 860/8/157 861/8/157 859/8/157
f 854/8/24 862/8/24 858/8/24
f 862/8/22 863/8/22 861/8/22
f 864/8/158 853/8/158 863/8/158
f 855/8/21 859/8/21 863/8/21
f 866/6/159 867/6/159 865/6/159
f 868/6/160 869/6/160 867/6/160
f 869/6/161 872/6/161 871/6/161
f 872/6/162 873/6/162 871/6/162
f 873/6/163 876/6/163 875/6/163
f 876/6/164 877/6/164 875/6/164
f 877/6/165 880/6/165 879/6/165
f 880/6/166 881/6/166 879/6/166
f 882/6/167 883/6/167 881/6/167
f 884/6/168 885/6/168 883/6/168
f 886/6/24 878/6/24 870/6/24
f 885/6/169 888/6/169 887/6/169
f 887/6/170 866/6/170 865/6/170
f 871/6/21 879/6/21 887/6/21
f 890/9/171 891/9/171 889/9/171
f 892/9/15 893/9/15 891/9/15
f 894/9/172 895/9/172 893/9/172
f 896/9/173 897/9/173 895/9/173
f 898/9/18 899/9/18 897/9/18
f 900/9/174 901/9/174 899/9/174
f 902/9/175 903/9/175 901/9/175
f 904/9/10 905/9/10 903/9/10
f 906/9/176 907/9/176 905/9/176
f 908/9/177 909/9/177 907/9/177
f 910/9/24 902/9/24 894/9/24
f 910/9/12 911/9/12 909/9/12
f 912/9/178 889/9/178 911/9/178
f 895/9/21 903/9/21 911/9/21
f 1/1/9 3/1/9 8/1/9
f 4/1/10 6/1/10 3/1/10
f 10/1/11 12/1/11 6/1/11
f 9/1/12 8/1/12 12/1/12
f 7/1/13 9/1/13 20/1/13
f 22/1/14 24/1/14 11/1/14
f 21/1/15 20/1/15 24/1/15
f 19/1/16 21/1/16 14/1/16
f 16/1/17 18/1/17 23/1/17
f 15/1/18 14/1/18 18/1/18
f 13/1/19 15/1/19 2/1/19
f 5/1/20 4/1/20 17/1/20
f 19/1/21 13/1/21 1/1/21
f 6/1/22 12/1/22 8/1/22
f 17/1/23 4/1/23 2/1/23
f 10/1/24 5/1/24 16/1/24
f 11/1/25 24/1/25 20/1/25
f 23/1/26 18/1/26 14/1/26
f 25/1/9 27/1/9 32/1/9
f 28/1/10 30/1/10 27/1/10
f 34/1/11 36/1/11 30/1/11
f 33/1/12 32/1/12 36/1/12
f 31/1/13 33/1/13 44/1/13
f 46/1/14 48/1/14 35/1/14
f 45/1/15 44/1/15 48/1/15
f 43/1/16 45/1/16 38/1/16
f 40/1/17 42/1/17 47/1/17
f 39/1/18 38/1/18 42/1/18
f 37/1/19 39/1/19 26/1/19
f 29/1/20 28/1/20 41/1/20
f 43/1/21 37/1/21 25/1/21
f 30/1/22 36/1/22 32/1/22
f 41/1/23 28/1/23 26/1/23
f 34/1/24 29/1/24 40/1/24
f 35/1/25 48/1/25 44/1/25
f 47/1/26 42/1/26 38/1/26
f 50/2/22 52/2/22 51/2/22
f 52/2/25 56/2/25 55/2/25
f 56/2/26 54/2/26 53/2/26
f 54/2/23 50/2/23 49/2/23
f 55/2/21 53/2/21 49/2/21
f 52/2/24 50/2/24 54/2/24
f 57/3/9 59/3/9 64/3/9
f 60/3/10 62/3/10 59/3/10
f 66/3/11 68/3/11 62/3/11
f 65/3/12 64/3/12 68/3/12
f 63/3/13 65/3/13 76/3/13
f 78/3/14 80/3/14 67/3/14
f 77/3/15 76/3/15 80/3/15
f 75/3/16 77/3/16 70/3/16
f 72/3/17 74/3/17 79/3/17
f 71/3/18 70/3/18 74/3/18
f 69/3/19 71/3/19 58/3/19
f 61/3/20 60/3/20 73/3/20
f 75/3/21 69/3/21 57/3/21
f 62/3/22 68/3/22 64/3/22
f 73/3/23 60/3/23 58/3/23
f 66/3/24 61/3/24 72/3/24
f 67/3/25 80/3/25 76/3/25
f 79/3/26 74/3/26 70/3/26
f 82/2/22 84/2/22 83/2/22
f 84/2/25 88/2/25 87/2/25
f 88/2/26 86/2/26 85/2/26
f 86/2/23 82/2/23 81/2/23
f 87/2/21 85/2/21 81/2/21
f 84/2/24 82/2/24 86/2/24
f 89/1/9 91/1/9 96/1/9
f 92/1/10 94/1/10 91/1/10
f 98/1/11 100/1/11 94/1/11
f 97/1/12 96/1/12 100/1/12
f 95/1/13 97/1/13 108/1/13
f 110/1/14 112/1/14 99/1/14
f 109/1/15 108/1/15 112/1/15
f 107/1/16 109/1/16 102/1/16
f 104/1/17 106/1/17 111/1/17
f 103/1/18 102/1/18 106/1/18
f 101/1/19 103/1/19 90/1/19
f 93/1/20 92/1/20 105/1/20
f 107/1/21 101/1/21 89/1/21
f 94/1/22 100/1/22 96/1/22
f 105/1/23 92/1/23 90/1/23
f 98/1/24 93/1/24 104/1/24
f 99/1/25 112/1/25 108/1/25
f 111/1/26 106/1/26 102/1/26
f 114/2/22 116/2/22 115/2/22
f 116/2/25 120/2/25 119/2/25
f 120/2/26 118/2/26 117/2/26
f 118/2/23 114/2/23 113/2/23
f 119/2/21 117/2/21 113/2/21
f 116/2/24 114/2/24 118/2/24
f 121/3/9 123/3/9 128/3/9
f 124/3/10 126/3/10 123/3/10
f 130/3/11 132/3/11 126/3/11
f 129/3/12 128/3/12 132/3/12
f 127/3/13 129/3/13 140/3/13
f 142/3/14 144/3/14 131/3/14
f 141/3/15 140/3/15 144/3/15
f 139/3/16 141/3/16 134/3/16
f 136/3/17 138/3/17 143/3/17
f 135/3/18 134/3/18 138/3/18
f 133/3/19 135/3/19 122/3/19
f 125/3/20 124/3/20 137/3/20
f 139/3/21 133/3/21 121/3/21
f 126/3/22 132/3/22 128/3/22
f 137/3/23 124/3/23 122/3/23
f 130/3/24 125/3/24 136/3/24
f 131/3/25 144/3/25 140/3/25
f 143/3/26 138/3/26 134/3/26
f 146/2/22 148/2/22 147/2/22
f 148/2/25 152/2/25 151/2/25
f 152/2/26 150/2/26 149/2/26
f 150/2/23 146/2/23 145/2/23
f 151/2/21 149/2/21 145/2/21
f 148/2/24 146/2/24 150/2/24
f 153/1/9 155/1/9 160/1/9
f 156/1/10 158/1/10 155/1/10
f 162/1/11 164/1/11 158/1/11
f 161/1/12 160/1/12 164/1/12
f 159/1/13 161/1/13 172/1/13
f 174/1/14 176/1/14 163/1/14
f 173/1/15 172/1/15 176/1/15
f 171/1/16 173/1/16 166/1/16
f 168/1/17 170/1/17 175/1/17
f 167/1/18 166/1/18 170/1/18
f 165/1/19 167/1/19 154/1/19
f 157/1/20 156/1/20 169/1/20
f 171/1/21 165/1/21 153/1/21
f 158/1/22 164/1/22 160/1/22
f 169/1/23 156/1/23 154/1/23
f 162/1/24 157/1/24 168/1/24
f 163/1/25 176/1/25 172/1/25
f 175/1/26 170/1/26 166/1/26
f 178/2/22 180/2/22 179/2/22
f 180/2/25 184/2/25 183/2/25
f 184/2/26 182/2/26 181/2/26
f 182/2/23 178/2/23 177/2/23
f 183/2/21 181/2/21 177/2/21
f 180/2/24 178/2/24 182/2/24
f 185/3/9 187/3/9 192/3/9
f 188/3/10 190/3/10 187/3/10
f 194/3/11 196/3/11 190/3/11
f 193/3/12 192/3/12 196/3/12
f 191/3/13 193/3/13 204/3/13
f 206/3/14 208/3/14 195/3/14
f 205/3/15 204/3/15 208/3/15
f 203/3/16 205/3/16 198/3/16
f 200/3/17 202/3/17 207/3/17
f 199/3/18 198/3/18 202/3/18
f 197/3/19 199/3/19 186/3/19
f 189/3/20 188/3/20 201/3/20
f 203/3/21 197/3/21 185/3/21
f 190/3/22 196/3/22 192/3/22
f 201/3/23 188/3/23 186/3/23
f 194/3/24 189/3/24 200/3/24
f 195/3/25 208/3/25 204/3/25
f 207/3/26 202/3/26 198/3/26
f 210/2/22 212/2/22 211/2/22
f 212/2/25 216/2/25 215/2/25
f 216/2/26 214/2/26 213/2/26
f 214/2/23 210/2/23 209/2/23
f 215/2/21 213/2/21 209/2/21
f 212/2/24 210/2/24 214/2/24
f 217/2/9 219/2/9 224/2/9
f 220/2/10 222/2/10 219/2/10
f 226/2/11 228/2/11 222/2/11
f 225/2/12 224/2/12 228/2/12
f 223/2/13 225/2/13 236/2/13
f 238/2/14 240/2/14 227/2/14
f 237/2/15 236/2/15 240/2/15
f 235/2/16 237/2/16 230/2/16
f 232/2/17 234/2/17 239/2/17
f 231/2/18 230/2/18 234/2/18
f 229/2/19 231/2/19 218/2/19
f 221/2/20 220/2/20 233/2/20
f 235/2/21 229/2/21 217/2/21
f 222/2/22 228/2/22 224/2/22
f 233/2/23 220/2/23 218/2/23
f 226/2/24 221/2/24 232/2/24
f 227/2/25 240/2/25 236/2/25
f 239/2/26 234/2/26 230/2/26
f 290/2/179 245/2/179 246/2/179
f 288/2/62 243/2/62 244/2/62
f 292/2/180 291/2/180 246/2/180
f 290/2/64 289/2/64 244/2/64
f 245/2/66 250/2/66 251/2/66
f 243/2/67 248/2/67 249/2/67
f 246/2/130 251/2/130 252/2/130
f 244/2/69 249/2/69 250/2/69
f 250/2/71 255/2/71 256/2/71
f 248/2/181 253/2/181 254/2/181
f 251/2/182 256/2/182 257/2/182
f 249/2/74 254/2/74 255/2/74
f 253/2/77 258/2/77 259/2/77
f 257/2/183 256/2/183 261/2/183
f 255/2/79 254/2/79 259/2/79
f 255/2/82 260/2/82 261/2/82
f 261/2/83 266/2/83 267/2/83
f 259/2/84 264/2/84 265/2/84
f 260/2/131 265/2/131 266/2/131
f 259/2/88 258/2/88 263/2/88
f 267/2/89 266/2/89 271/2/89
f 264/2/90 269/2/90 270/2/90
f 265/2/184 270/2/184 271/2/184
f 264/2/185 263/2/185 268/2/185
f 271/2/95 276/2/95 277/2/95
f 269/2/96 274/2/96 275/2/96
f 270/2/99 275/2/99 276/2/99
f 269/2/100 268/2/100 273/2/100
f 277/2/135 276/2/135 281/2/135
f 274/2/102 279/2/102 280/2/102
f 276/2/105 275/2/105 280/2/105
f 273/2/186 278/2/186 279/2/186
f 280/2/107 279/2/107 284/2/107
f 280/2/110 285/2/110 286/2/110
f 278/2/111 283/2/111 284/2/111
f 281/2/112 286/2/112 287/2/112
f 285/2/187 290/2/187 291/2/187
f 283/2/116 288/2/116 289/2/116
f 286/2/117 291/2/117 292/2/117
f 285/2/118 284/2/118 289/2/118
f 294/2/188 295/2/188 296/2/188
f 297/2/189 298/2/189 299/2/189
f 302/2/188 303/2/188 304/2/188
f 305/2/189 306/2/189 307/2/189
f 310/2/188 311/2/188 312/2/188
f 313/2/189 314/2/189 315/2/189
f 317/1/9 319/1/9 324/1/9
f 320/1/10 322/1/10 319/1/10
f 326/1/11 328/1/11 322/1/11
f 325/1/12 324/1/12 328/1/12
f 323/1/13 325/1/13 336/1/13
f 338/1/14 340/1/14 327/1/14
f 337/1/15 336/1/15 340/1/15
f 335/1/16 337/1/16 330/1/16
f 332/1/17 334/1/17 339/1/17
f 331/1/18 330/1/18 334/1/18
f 329/1/19 331/1/19 318/1/19
f 321/1/20 320/1/20 333/1/20
f 335/1/21 329/1/21 317/1/21
f 322/1/22 328/1/22 324/1/22
f 333/1/23 320/1/23 318/1/23
f 326/1/24 321/1/24 332/1/24
f 327/1/25 340/1/25 336/1/25
f 339/1/26 334/1/26 330/1/26
f 341/1/9 343/1/9 348/1/9
f 344/1/10 346/1/10 343/1/10
f 350/1/11 352/1/11 346/1/11
f 349/1/12 348/1/12 352/1/12
f 347/1/13 349/1/13 360/1/13
f 362/1/14 364/1/14 351/1/14
f 361/1/15 360/1/15 364/1/15
f 359/1/16 361/1/16 354/1/16
f 356/1/17 358/1/17 363/1/17
f 355/1/18 354/1/18 358/1/18
f 353/1/19 355/1/19 342/1/19
f 345/1/20 344/1/20 357/1/20
f 359/1/21 353/1/21 341/1/21
f 346/1/22 352/1/22 348/1/22
f 357/1/23 344/1/23 342/1/23
f 350/1/24 345/1/24 356/1/24
f 351/1/25 364/1/25 360/1/25
f 363/1/26 358/1/26 354/1/26
f 366/2/22 368/2/22 367/2/22
f 368/2/25 372/2/25 371/2/25
f 372/2/26 370/2/26 369/2/26
f 370/2/23 366/2/23 365/2/23
f 371/2/21 369/2/21 365/2/21
f 368/2/24 366/2/24 370/2/24
f 373/3/9 375/3/9 380/3/9
f 376/3/10 378/3/10 375/3/10
f 382/3/11 384/3/11 378/3/11
f 381/3/12 380/3/12 384/3/12
f 379/3/13 381/3/13 392/3/13
f 394/3/14 396/3/14 383/3/14
f 393/3/15 392/3/15 396/3/15
f 391/3/16 393/3/16 386/3/16
f 388/3/17 390/3/17 395/3/17
f 387/3/18 386/3/18 390/3/18
f 385/3/19 387/3/19 374/3/19
f 377/3/20 376/3/20 389/3/20
f 391/3/21 385/3/21 373/3/21
f 378/3/22 384/3/22 380/3/22
f 389/3/23 376/3/23 374/3/23
f 382/3/24 377/3/24 388/3/24
f 383/3/25 396/3/25 392/3/25
f 395/3/26 390/3/26 386/3/26
f 398/2/22 400/2/22 399/2/22
f 400/2/25 404/2/25 403/2/25
f 404/2/26 402/2/26 401/2/26
f 402/2/23 398/2/23 397/2/23
f 403/2/21 401/2/21 397/2/21
f 400/2/24 398/2/24 402/2/24
f 405/1/9 407/1/9 412/1/9
f 408/1/10 410/1/10 407/1/10
f 414/1/11 416/1/11 410/1/11
f 413/1/12 412/1/12 416/1/12
f 411/1/13 413/1/13 424/1/13
f 426/1/14 428/1/14 415/1/14
f 425/1/15 424/1/15 428/1/15
f 423/1/16 425/1/16 418/1/16
f 420/1/17 422/1/17 427/1/17
f 419/1/18 418/1/18 422/1/18
f 417/1/19 419/1/19 406/1/19
f 409/1/20 408/1/20 421/1/20
f 423/1/21 417/1/21 405/1/21
f 410/1/22 416/1/22 412/1/22
f 421/1/23 408/1/23 406/1/23
f 414/1/24 409/1/24 420/1/24
f 415/1/25 428/1/25 424/1/25
f 427/1/26 422/1/26 418/1/26
f 430/2/22 432/2/22 431/2/22
f 432/2/25 436/2/25 435/2/25
f 436/2/26 434/2/26 433/2/26
f 434/2/23 430/2/23 429/2/23
f 435/2/21 433/2/21 429/2/21
f 432/2/24 430/2/24 434/2/24
f 437/3/9 439/3/9 444/3/9
f 440/3/10 442/3/10 439/3/10
f 446/3/11 448/3/11 442/3/11
f 445/3/12 444/3/12 448/3/12
f 443/3/13 445/3/13 456/3/13
f 458/3/14 460/3/14 447/3/14
f 457/3/15 456/3/15 460/3/15
f 455/3/16 457/3/16 450/3/16
f 452/3/17 454/3/17 459/3/17
f 451/3/18 450/3/18 454/3/18
f 449/3/19 451/3/19 438/3/19
f 441/3/20 440/3/20 453/3/20
f 455/3/21 449/3/21 437/3/21
f 442/3/22 448/3/22 444/3/22
f 453/3/23 440/3/23 438/3/23
f 446/3/24 441/3/24 452/3/24
f 447/3/25 460/3/25 456/3/25
f 459/3/26 454/3/26 450/3/26
f 462/2/22 464/2/22 463/2/22
f 464/2/25 468/2/25 467/2/25
f 468/2/26 466/2/26 465/2/26
f 466/2/23 462/2/23 461/2/23
f 467/2/21 465/2/21 461/2/21
f 464/2/24 462/2/24 466/2/24
f 469/1/9 471/1/9 476/1/9
f 472/1/10 474/1/10 471/1/10
f 478/1/11 480/1/11 474/1/11
f 477/1/12 476/1/12 480/1/12
f 475/1/13 477/1/13 488/1/13
f 490/1/14 492/1/14 479/1/14
f 489/1/15 488/1/15 492/1/15
f 487/1/16 489/1/16 482/1/16
f 484/1/17 486/1/17 491/1/17
f 483/1/18 482/1/18 486/1/18
f 481/1/19 483/1/19 470/1/19
f 473/1/20 472/1/20 485/1/20
f 487/1/21 481/1/21 469/1/21
f 474/1/22 480/1/22 476/1/22
f 485/1/23 472/1/23 470/1/23
f 478/1/24 473/1/24 484/1/24
f 479/1/25 492/1/25 488/1/25
f 491/1/26 486/1/26 482/1/26
f 494/2/22 496/2/22 495/2/22
f 496/2/25 500/2/25 499/2/25
f 500/2/26 498/2/26 497/2/26
f 498/2/23 494/2/23 493/2/23
f 499/2/21 497/2/21 493/2/21
f 496/2/24 494/2/24 498/2/24
f 501/3/9 503/3/9 508/3/9
f 504/3/10 506/3/10 503/3/10
f 510/3/11 512/3/11 506/3/11
f 509/3/12 508/3/12 512/3/12
f 507/3/13 509/3/13 520/3/13
f 522/3/14 524/3/14 511/3/14
f 521/3/15 520/3/15 524/3/15
f 519/3/16 521/3/16 514/3/16
f 516/3/17 518/3/17 523/3/17
f 515/3/18 514/3/18 518/3/18
f 513/3/19 515/3/19 502/3/19
f 505/3/20 504/3/20 517/3/20
f 519/3/21 513/3/21 501/3/21
f 506/3/22 512/3/22 508/3/22
f 517/3/23 504/3/23 502/3/23
f 510/3/24 505/3/24 516/3/24
f 511/3/25 524/3/25 520/3/25
f 523/3/26 518/3/26 514/3/26
f 526/2/22 528/2/22 527/2/22
f 528/2/25 532/2/25 531/2/25
f 532/2/26 530/2/26 529/2/26
f 530/2/23 526/2/23 525/2/23
f 531/2/21 529/2/21 525/2/21
f 528/2/24 526/2/24 530/2/24
f 533/2/9 535/2/9 540/2/9
f 536/2/10 538/2/10 535/2/10
f 542/2/11 544/2/11 538/2/11
f 541/2/12 540/2/12 544/2/12
f 539/2/13 541/2/13 552/2/13
f 554/2/14 556/2/14 543/2/14
f 553/2/15 552/2/15 556/2/15
f 551/2/16 553/2/16 546/2/16
f 548/2/17 550/2/17 555/2/17
f 547/2/18 546/2/18 550/2/18
f 545/2/19 547/2/19 534/2/19
f 537/2/20 536/2/20 549/2/20
f 551/2/21 545/2/21 533/2/21
f 538/2/22 544/2/22 540/2/22
f 549/2/23 536/2/23 534/2/23
f 542/2/24 537/2/24 548/2/24
f 543/2/25 556/2/25 552/2/25
f 555/2/26 550/2/26 546/2/26
f 606/2/179 561/2/179 562/2/179
f 604/2/190 559/2/190 560/2/190
f 607/2/180 562/2/180 563/2/180
f 606/2/64 605/2/64 560/2/64
f 563/2/130 562/2/130 567/2/130
f 560/2/69 565/2/69 566/2/69
f 562/2/66 561/2/66 566/2/66
f 559/2/67 564/2/67 565/2/67
f 567/2/182 572/2/182 573/2/182
f 565/2/74 570/2/74 571/2/74
f 566/2/71 571/2/71 572/2/71
f 564/2/181 569/2/181 570/2/181
f 572/2/183 577/2/183 578/2/183
f 571/2/79 570/2/79 575/2/79
f 571/2/82 576/2/82 577/2/82
f 570/2/77 569/2/77 574/2/77
f 575/2/191 580/2/191 581/2/191
f 577/2/87 576/2/87 581/2/87
f 575/2/192 574/2/192 579/2/192
f 577/2/83 582/2/83 583/2/83
f 581/2/184 586/2/184 587/2/184
f 579/2/94 584/2/94 585/2/94
f 582/2/89 587/2/89 588/2/89
f 581/2/90 580/2/90 585/2/90
f 587/2/99 586/2/99 591/2/99
f 584/2/100 589/2/100 590/2/100
f 588/2/95 587/2/95 592/2/95
f 585/2/96 590/2/96 591/2/96
f 591/2/105 596/2/105 597/2/105
f 589/2/186 594/2/186 595/2/186
f 592/2/135 597/2/135 598/2/135
f 590/2/102 595/2/102 596/2/102
f 596/2/110 601/2/110 602/2/110
f 595/2/111 594/2/111 599/2/111
f 597/2/193 602/2/193 603/2/193
f 595/2/107 600/2/107 601/2/107
f 601/2/187 606/2/187 607/2/187
f 599/2/116 604/2/116 605/2/116
f 603/2/194 602/2/194 607/2/194
f 601/2/195 600/2/195 605/2/195
f 610/2/196 611/2/196 612/2/196
f 613/2/197 614/2/197 615/2/197
f 618/2/196 619/2/196 620/2/196
f 621/2/197 622/2/197 623/2/197
f 626/2/196 627/2/196 628/2/196
f 629/2/197 630/2/197 631/2/197
f 633/3/9 635/3/9 640/3/9
f 636/3/10 638/3/10 635/3/10
f 642/3/11 644/3/11 638/3/11
f 641/3/12 640/3/12 644/3/12
f 639/3/13 641/3/13 652/3/13
f 654/3/14 656/3/14 643/3/14
f 653/3/15 652/3/15 656/3/15
f 651/3/16 653/3/16 646/3/16
f 648/3/17 650/3/17 655/3/17
f 647/3/18 646/3/18 650/3/18
f 645/3/19 647/3/19 634/3/19
f 637/3/20 636/3/20 649/3/20
f 651/3/21 645/3/21 633/3/21
f 638/3/22 644/3/22 640/3/22
f 649/3/23 636/3/23 634/3/23
f 642/3/24 637/3/24 648/3/24
f 643/3/25 656/3/25 652/3/25
f 655/3/26 650/3/26 646/3/26
f 657/3/9 659/3/9 664/3/9
f 660/3/10 662/3/10 659/3/10
f 666/3/11 668/3/11 662/3/11
f 665/3/12 664/3/12 668/3/12
f 663/3/13 665/3/13 676/3/13
f 678/3/14 680/3/14 667/3/14
f 677/3/15 676/3/15 680/3/15
f 675/3/16 677/3/16 670/3/16
f 672/3/17 674/3/17 679/3/17
f 671/3/18 670/3/18 674/3/18
f 669/3/19 671/3/19 658/3/19
f 661/3/20 660/3/20 673/3/20
f 675/3/21 669/3/21 657/3/21
f 662/3/22 668/3/22 664/3/22
f 673/3/23 660/3/23 658/3/23
f 666/3/24 661/3/24 672/3/24
f 667/3/25 680/3/25 676/3/25
f 679/3/26 674/3/26 670/3/26
f 681/3/9 683/3/9 688/3/9
f 684/3/10 686/3/10 683/3/10
f 690/3/11 692/3/11 686/3/11
f 689/3/12 688/3/12 692/3/12
f 687/3/13 689/3/13 700/3/13
f 702/3/14 704/3/14 691/3/14
f 701/3/15 700/3/15 704/3/15
f 699/3/16 701/3/16 694/3/16
f 696/3/17 698/3/17 703/3/17
f 695/3/18 694/3/18 698/3/18
f 693/3/19 695/3/19 682/3/19
f 685/3/20 684/3/20 697/3/20
f 699/3/21 693/3/21 681/3/21
f 686/3/22 692/3/22 688/3/22
f 697/3/23 684/3/23 682/3/23
f 690/3/24 685/3/24 696/3/24
f 691/3/25 704/3/25 700/3/25
f 703/3/26 698/3/26 694/3/26
f 706/4/141 708/4/141 707/4/141
f 708/4/142 710/4/142 709/4/142
f 710/4/26 712/4/26 711/4/26
f 712/4/143 714/4/143 713/4/143
f 714/4/144 716/4/144 715/4/144
f 716/4/145 718/4/145 717/4/145
f 718/4/146 720/4/146 719/4/146
f 720/4/22 722/4/22 721/4/22
f 710/4/24 708/4/24 706/4/24
f 706/4/24 724/4/24 722/4/24
f 722/4/24 720/4/24 718/4/24
f 718/4/24 716/4/24 714/4/24
f 714/4/24 712/4/24 710/4/24
f 710/4/24 706/4/24 722/4/24
f 722/4/24 718/4/24 714/4/24
f 722/4/147 724/4/147 723/4/147
f 724/4/148 706/4/148 705/4/148
f 723/4/21 705/4/21 707/4/21
f 707/4/21 709/4/21 711/4/21
f 711/4/21 713/4/21 715/4/21
f 715/4/21 717/4/21 719/4/21
f 719/4/21 721/4/21 723/4/21
f 723/4/21 707/4/21 711/4/21
f 711/4/21 715/4/21 719/4/21
f 726/5/198 727/5/198 728/5/198
f 729/5/199 730/5/199 731/5/199
f 734/6/200 735/6/200 736/6/200
f 737/6/201 738/6/201 739/6/201
f 742/7/202 743/7/202 744/7/202
f 745/7/203 746/7/203 747/7/203
f 750/8/155 752/8/155 751/8/155
f 752/8/26 754/8/26 753/8/26
f 754/8/156 756/8/156 755/8/156
f 756/8/157 758/8/157 757/8/157
f 754/8/24 752/8/24 750/8/24
f 750/8/24 760/8/24 758/8/24
f 758/8/24 756/8/24 754/8/24
f 758/8/22 760/8/22 759/8/22
f 760/8/158 750/8/158 749/8/158
f 759/8/21 749/8/21 751/8/21
f 751/8/21 753/8/21 755/8/21
f 755/8/21 757/8/21 759/8/21
f 762/6/159 764/6/159 763/6/159
f 764/6/160 766/6/160 765/6/160
f 765/6/161 766/6/161 768/6/161
f 768/6/162 770/6/162 769/6/162
f 770/6/163 772/6/163 771/6/163
f 772/6/164 774/6/164 773/6/164
f 774/6/165 776/6/165 775/6/165
f 775/6/166 776/6/166 778/6/166
f 778/6/167 780/6/167 779/6/167
f 780/6/168 782/6/168 781/6/168
f 766/6/24 764/6/24 762/6/24
f 762/6/24 784/6/24 782/6/24
f 782/6/24 780/6/24 778/6/24
f 778/6/24 776/6/24 774/6/24
f 774/6/24 772/6/24 770/6/24
f 770/6/24 768/6/24 766/6/24
f 766/6/24 762/6/24 782/6/24
f 782/6/24 778/6/24 774/6/24
f 774/6/24 770/6/24 766/6/24
f 782/6/169 784/6/169 783/6/169
f 784/6/170 762/6/170 761/6/170
f 783/6/21 761/6/21 763/6/21
f 763/6/21 765/6/21 767/6/21
f 767/6/21 769/6/21 771/6/21
f 771/6/21 773/6/21 775/6/21
f 775/6/21 777/6/21 779/6/21
f 779/6/21 781/6/21 783/6/21
f 783/6/21 763/6/21 767/6/21
f 767/6/21 771/6/21 775/6/21
f 775/6/21 779/6/21 783/6/21
f 786/9/171 788/9/171 787/9/171
f 788/9/15 790/9/15 789/9/15
f 790/9/172 792/9/172 791/9/172
f 792/9/173 794/9/173 793/9/173
f 794/9/18 796/9/18 795/9/18
f 796/9/174 798/9/174 797/9/174
f 798/9/175 800/9/175 799/9/175
f 800/9/10 802/9/10 801/9/10
f 802/9/176 804/9/176 803/9/176
f 804/9/177 806/9/177 805/9/177
f 790/9/24 788/9/24 786/9/24
f 786/9/24 808/9/24 806/9/24
f 806/9/24 804/9/24 802/9/24
f 802/9/24 800/9/24 798/9/24
f 798/9/24 796/9/24 794/9/24
f 794/9/24 792/9/24 790/9/24
f 790/9/24 786/9/24 806/9/24
f 806/9/24 802/9/24 798/9/24
f 798/9/24 794/9/24 790/9/24
f 806/9/12 808/9/12 807/9/12
f 808/9/178 786/9/178 785/9/178
f 807/9/21 785/9/21 787/9/21
f 787/9/21 789/9/21 791/9/21
f 791/9/21 793/9/21 795/9/21
f 795/9/21 797/9/21 799/9/21
f 799/9/21 801/9/21 803/9/21
f 803/9/21 805/9/21 807/9/21
f 807/9/21 787/9/21 791/9/21
f 791/9/21 795/9/21 799/9/21
f 799/9/21 803/9/21 807/9/21
f 810/4/141 812/4/141 811/4/141
f 812/4/142 814/4/142 813/4/142
f 814/4/26 816/4/26 815/4/26
f 816/4/143 818/4/143 817/4/143
f 818/4/144 820/4/144 819/4/144
f 820/4/145 822/4/145 821/4/145
f 822/4/146 824/4/146 823/4/146
f 824/4/22 826/4/22 825/4/22
f 814/4/24 812/4/24 810/4/24
f 810/4/24 828/4/24 826/4/24
f 826/4/24 824/4/24 822/4/24
f 822/4/24 820/4/24 818/4/24
f 818/4/24 816/4/24 814/4/24
f 814/4/24 810/4/24 826/4/24
f 826/4/24 822/4/24 818/4/24
f 826/4/147 828/4/147 827/4/147
f 828/4/148 810/4/148 809/4/148
f 827/4/21 809/4/21 811/4/21
f 811/4/21 813/4/21 815/4/21
f 815/4/21 817/4/21 819/4/21
f 819/4/21 821/4/21 823/4/21
f 823/4/21 825/4/21 827/4/21
f 827/4/21 811/4/21 815/4/21
f 815/4/21 819/4/21 823/4/21
f 830/5/198 831/5/198 832/5/198
f 833/5/199 834/5/199 835/5/199
f 838/6/200 839/6/200 840/6/200
f 841/6/201 842/6/201 843/6/201
f 846/7/202 847/7/202 848/7/202
f 849/7/203 850/7/203 851/7/203
f 854/8/155 856/8/155 855/8/155
f 856/8/26 858/8/26 857/8/26
f 858/8/156 860/8/156 859/8/156
f 860/8/157 862/8/157 861/8/157
f 858/8/24 856/8/24 854/8/24
f 854/8/24 864/8/24 862/8/24
f 862/8/24 860/8/24 858/8/24
f 862/8/22 864/8/22 863/8/22
f 864/8/158 854/8/158 853/8/158
f 863/8/21 853/8/21 855/8/21
f 855/8/21 857/8/21 859/8/21
f 859/8/21 861/8/21 863/8/21
f 866/6/159 868/6/159 867/6/159
f 868/6/160 870/6/160 869/6/160
f 869/6/161 870/6/161 872/6/161
f 872/6/162 874/6/162 873/6/162
f 873/6/163 874/6/163 876/6/163
f 876/6/164 878/6/164 877/6/164
f 877/6/165 878/6/165 880/6/165
f 880/6/166 882/6/166 881/6/166
f 882/6/167 884/6/167 883/6/167
f 884/6/168 886/6/168 885/6/168
f 870/6/24 868/6/24 866/6/24
f 866/6/24 888/6/24 886/6/24
f 886/6/24 884/6/24 882/6/24
f 882/6/24 880/6/24 878/6/24
f 878/6/24 876/6/24 874/6/24
f 874/6/24 872/6/24 870/6/24
f 870/6/24 866/6/24 886/6/24
f 886/6/24 882/6/24 878/6/24
f 878/6/24 874/6/24 870/6/24
f 885/6/169 886/6/169 888/6/169
f 887/6/170 888/6/170 866/6/170
f 887/6/21 865/6/21 867/6/21
f 867/6/21 869/6/21 871/6/21
f 871/6/21 873/6/21 875/6/21
f 875/6/21 877/6/21 879/6/21
f 879/6/21 881/6/21 883/6/21
f 883/6/21 885/6/21 887/6/21
f 887/6/21 867/6/21 871/6/21
f 871/6/21 875/6/21 879/6/21
f 879/6/21 883/6/21 887/6/21
f 890/9/171 892/9/171 891/9/171
f 892/9/15 894/9/15 893/9/15
f 894/9/172 896/9/172 895/9/172
f 896/9/173 898/9/173 897/9/173
f 898/9/18 900/9/18 899/9/18
f 900/9/174 902/9/174 901/9/174
f 902/9/175 904/9/175 903/9/175
f 904/9/10 906/9/10 905/9/10
f 906/9/176 908/9/176 907/9/176
f 908/9/177 910/9/177 909/9/177
f 894/9/24 892/9/24 890/9/24
f 890/9/24 912/9/24 910/9/24
f 910/9/24 908/9/24 906/9/24
f 906/9/24 904/9/24 902/9/24
f 902/9/24 900/9/24 898/9/24
f 898/9/24 896/9/24 894/9/24
f 894/9/24 890/9/24 910/9/24
f 910/9/24 906/9/24 902/9/24
f 902/9/24 898/9/24 894/9/24
f 910/9/12 912/9/12 911/9/12
f 912/9/178 890/9/178 889/9/178
f 911/9/21 889/9/21 891/9/21
f 891/9/21 893/9/21 895/9/21
f 895/9/21 897/9/21 899/9/21
f 899/9/21 901/9/21 903/9/21
f 903/9/21 905/9/21 907/9/21
f 907/9/21 909/9/21 911/9/21
f 911/9/21 891/9/21 895/9/21
f 895/9/21 899/9/21 903/9/21
f 903/9/21 907/9/21 911/9/21
