# Blender 5.1.1
# www.blender.org
o jam
v -0.278000 -0.060000 0.188000
v -0.278000 -0.048000 0.200000
v -0.290000 -0.048000 0.188000
v -0.278000 0.048000 0.200000
v -0.278000 0.060000 0.188000
v -0.290000 0.048000 0.188000
v -0.278000 -0.060000 -0.188000
v -0.290000 -0.048000 -0.188000
v -0.278000 -0.048000 -0.200000
v -0.278000 0.060000 -0.188000
v -0.278000 0.048000 -0.200000
v -0.290000 0.048000 -0.188000
v 0.278000 -0.060000 0.188000
v 0.290000 -0.048000 0.188000
v 0.278000 -0.048000 0.200000
v 0.278000 0.060000 0.188000
v 0.278000 0.048000 0.200000
v 0.290000 0.048000 0.188000
v 0.278000 -0.060000 -0.188000
v 0.278000 -0.048000 -0.200000
v 0.290000 -0.048000 -0.188000
v 0.278000 0.060000 -0.188000
v 0.290000 0.048000 -0.188000
v 0.278000 0.048000 -0.200000
v -0.208000 0.060000 0.138000
v -0.208000 0.072000 0.150000
v -0.220000 0.072000 0.138000
v -0.208000 1.248000 0.150000
v -0.208000 1.260000 0.138000
v -0.220000 1.248000 0.138000
v -0.208000 0.060000 -0.138000
v -0.220000 0.072000 -0.138000
v -0.208000 0.072000 -0.150000
v -0.208000 1.260000 -0.138000
v -0.208000 1.248000 -0.150000
v -0.220000 1.248000 -0.138000
v 0.208000 0.060000 0.138000
v 0.220000 0.072000 0.138000
v 0.208000 0.072000 0.150000
v 0.208000 1.260000 0.138000
v 0.208000 1.248000 0.150000
v 0.220000 1.248000 0.138000
v 0.208000 0.060000 -0.138000
v 0.208000 0.072000 -0.150000
v 0.220000 0.072000 -0.138000
v 0.208000 1.260000 -0.138000
v 0.220000 1.248000 -0.138000
v 0.208000 1.248000 -0.150000
v -0.117000 0.260000 0.162000
v -0.117000 0.263000 0.165000
v -0.120000 0.263000 0.162000
v -0.117000 1.057000 0.165000
v -0.117000 1.060000 0.162000
v -0.120000 1.057000 0.162000
v -0.117000 0.260000 0.158000
v -0.120000 0.263000 0.158000
v -0.117000 0.263000 0.155000
v -0.117000 1.060000 0.158000
v -0.117000 1.057000 0.155000
v -0.120000 1.057000 0.158000
v 0.117000 0.260000 0.162000
v 0.120000 0.263000 0.162000
v 0.117000 0.263000 0.165000
v 0.117000 1.060000 0.162000
v 0.117000 1.057000 0.165000
v 0.120000 1.057000 0.162000
v 0.117000 0.260000 0.158000
v 0.117000 0.263000 0.155000
v 0.120000 0.263000 0.158000
v 0.117000 1.060000 0.158000
v 0.120000 1.057000 0.158000
v 0.117000 1.057000 0.155000
v 0.000000 0.440000 0.122000
v 0.000000 1.040000 0.122000
v 0.007608 0.440000 0.127528
v 0.007608 1.040000 0.127528
v 0.004702 0.440000 0.136472
v 0.004702 1.040000 0.136472
v -0.004702 0.440000 0.136472
v -0.004702 1.040000 0.136472
v -0.007608 0.440000 0.127528
v -0.007608 1.040000 0.127528
v 0.000000 0.490000 0.140000
v 0.000000 0.490000 0.160000
v 0.035000 0.480622 0.140000
v 0.035000 0.480622 0.160000
v 0.060622 0.455000 0.140000
v 0.060622 0.455000 0.160000
v 0.070000 0.420000 0.140000
v 0.070000 0.420000 0.160000
v 0.060622 0.385000 0.140000
v 0.060622 0.385000 0.160000
v 0.035000 0.359378 0.140000
v 0.035000 0.359378 0.160000
v 0.000000 0.350000 0.140000
v 0.000000 0.350000 0.160000
v -0.035000 0.359378 0.140000
v -0.035000 0.359378 0.160000
v -0.060622 0.385000 0.140000
v -0.060622 0.385000 0.160000
v -0.070000 0.420000 0.140000
v -0.070000 0.420000 0.160000
v -0.060622 0.455000 0.140000
v -0.060622 0.455000 0.160000
v -0.035000 0.480622 0.140000
v -0.035000 0.480622 0.160000
v -0.240000 1.260000 0.160000
v -0.240000 1.280000 0.180000
v -0.260000 1.280000 0.160000
v -0.240000 1.860000 0.180000
v -0.240000 1.880000 0.160000
v -0.260000 1.860000 0.160000
v -0.240000 1.260000 -0.160000
v -0.260000 1.280000 -0.160000
v -0.240000 1.280000 -0.180000
v -0.240000 1.880000 -0.160000
v -0.240000 1.860000 -0.180000
v -0.260000 1.860000 -0.160000
v 0.240000 1.260000 0.160000
v 0.260000 1.280000 0.160000
v 0.240000 1.280000 0.180000
v 0.240000 1.880000 0.160000
v 0.240000 1.860000 0.180000
v 0.260000 1.860000 0.160000
v 0.240000 1.260000 -0.160000
v 0.240000 1.280000 -0.180000
v 0.260000 1.280000 -0.160000
v 0.240000 1.880000 -0.160000
v 0.260000 1.860000 -0.160000
v 0.240000 1.860000 -0.180000
v 0.000000 1.760000 0.190000
v 0.000000 1.760000 0.210000
v 0.072710 1.745537 0.190000
v 0.072710 1.745537 0.210000
v 0.134350 1.704350 0.190000
v 0.134350 1.704350 0.210000
v 0.175537 1.642710 0.190000
v 0.175537 1.642710 0.210000
v 0.190000 1.570000 0.190000
v 0.190000 1.570000 0.210000
v 0.175537 1.497290 0.190000
v 0.175537 1.497290 0.210000
v 0.134350 1.435650 0.190000
v 0.134350 1.435650 0.210000
v 0.072710 1.394463 0.190000
v 0.072710 1.394463 0.210000
v 0.000000 1.380000 0.190000
v 0.000000 1.380000 0.210000
v -0.072710 1.394463 0.190000
v -0.072710 1.394463 0.210000
v -0.134350 1.435650 0.190000
v -0.134350 1.435650 0.210000
v -0.175537 1.497290 0.190000
v -0.175537 1.497290 0.210000
v -0.190000 1.570000 0.190000
v -0.190000 1.570000 0.210000
v -0.175537 1.642710 0.190000
v -0.175537 1.642710 0.210000
v -0.134350 1.704350 0.190000
v -0.134350 1.704350 0.210000
v -0.072710 1.745537 0.190000
v -0.072710 1.745537 0.210000
v 0.000000 1.780000 0.180000
v 0.000000 1.780000 0.195000
v 0.080364 1.764015 0.180000
v 0.080364 1.764015 0.195000
v 0.148492 1.718493 0.180000
v 0.148492 1.718493 0.195000
v 0.194015 1.650364 0.180000
v 0.194015 1.650364 0.195000
v 0.210000 1.570000 0.180000
v 0.210000 1.570000 0.195000
v 0.194015 1.489637 0.180000
v 0.194015 1.489637 0.195000
v 0.148492 1.421508 0.180000
v 0.148492 1.421508 0.195000
v 0.080364 1.375985 0.180000
v 0.080364 1.375985 0.195000
v 0.000000 1.360000 0.180000
v 0.000000 1.360000 0.195000
v -0.080364 1.375985 0.180000
v -0.080364 1.375985 0.195000
v -0.148492 1.421508 0.180000
v -0.148492 1.421508 0.195000
v -0.194015 1.489637 0.180000
v -0.194015 1.489637 0.195000
v -0.210000 1.570000 0.180000
v -0.210000 1.570000 0.195000
v -0.194015 1.650364 0.180000
v -0.194015 1.650364 0.195000
v -0.148492 1.718493 0.180000
v -0.148492 1.718493 0.195000
v -0.080364 1.764015 0.180000
v -0.080364 1.764015 0.195000
v -0.045715 1.586461 0.220000
v 0.033335 1.702008 0.220000
v -0.045715 1.586461 0.210000
v 0.033335 1.702008 0.210000
v -0.033335 1.577992 0.220000
v 0.045715 1.693539 0.220000
v -0.033335 1.577992 0.210000
v 0.045715 1.693539 0.210000
v 0.043884 1.594892 0.220000
v -0.049320 1.631128 0.220000
v 0.043884 1.594892 0.210000
v -0.049320 1.631128 0.210000
v 0.049320 1.608872 0.220000
v -0.043884 1.645108 0.220000
v 0.049320 1.608872 0.210000
v -0.043884 1.645108 0.210000
v 0.000000 2.220000 0.000000
v 0.000000 2.220000 0.120000
v 0.294449 1.710000 -0.000000
v 0.294449 1.710000 0.120000
v -0.294449 1.710000 -0.000000
v -0.294449 1.710000 0.120000
vn -0.5774 -0.5774 0.5773
vn -0.5774 0.5774 0.5773
vn -0.5774 -0.5774 -0.5773
vn -0.5774 0.5774 -0.5773
vn 0.5774 -0.5774 0.5773
vn 0.5774 0.5774 0.5773
vn 0.5774 -0.5774 -0.5773
vn 0.5774 0.5774 -0.5773
vn -0.7071 -0.7071 -0.0000
vn -0.7071 -0.0000 0.7071
vn -0.7071 0.7071 -0.0000
vn -0.7071 -0.0000 -0.7071
vn -0.0000 -0.7071 -0.7071
vn -0.0000 0.7071 -0.7071
vn 0.7071 -0.0000 -0.7071
vn 0.7071 -0.7071 -0.0000
vn 0.7071 0.7071 -0.0000
vn 0.7071 -0.0000 0.7071
vn -0.0000 -0.7071 0.7071
vn -0.0000 0.7071 0.7071
vn -0.0000 -1.0000 -0.0000
vn -1.0000 -0.0000 -0.0000
vn -0.0000 -0.0000 1.0000
vn -0.0000 1.0000 -0.0000
vn -0.0000 -0.0000 -1.0000
vn 1.0000 -0.0000 -0.0000
vn -0.5774 -0.5773 0.5774
vn -0.5773 0.5774 0.5774
vn -0.5774 -0.5773 -0.5774
vn -0.5773 0.5774 -0.5774
vn 0.5774 -0.5773 0.5774
vn 0.5773 0.5774 0.5774
vn 0.5774 -0.5773 -0.5774
vn 0.5773 0.5774 -0.5774
vn 0.5878 -0.0000 -0.8090
vn 0.9511 -0.0000 0.3090
vn -0.9511 -0.0000 0.3090
vn -0.5878 -0.0000 -0.8090
vn 0.2588 0.9659 -0.0000
vn 0.9659 0.2588 -0.0000
vn 0.9659 -0.2588 -0.0000
vn 0.2588 -0.9659 -0.0000
vn -0.2588 -0.9659 -0.0000
vn -0.9659 -0.2588 -0.0000
vn -0.9659 0.2588 -0.0000
vn -0.2588 0.9659 -0.0000
vn -0.5774 0.5773 0.5773
vn -0.5774 0.5773 -0.5773
vn 0.5774 0.5773 0.5773
vn 0.5774 0.5773 -0.5773
vn 0.1951 0.9808 -0.0000
vn 0.5556 0.8315 -0.0000
vn 0.8315 0.5556 -0.0000
vn 0.9808 0.1951 -0.0000
vn 0.9808 -0.1951 -0.0000
vn 0.8315 -0.5556 -0.0000
vn 0.5556 -0.8315 -0.0000
vn 0.1951 -0.9808 -0.0000
vn -0.1951 -0.9808 -0.0000
vn -0.5556 -0.8315 -0.0000
vn -0.8315 -0.5556 -0.0000
vn -0.9808 -0.1951 -0.0000
vn -0.9808 0.1951 -0.0000
vn -0.8315 0.5556 -0.0000
vn -0.5556 0.8315 -0.0000
vn -0.1951 0.9808 -0.0000
vn -0.8253 0.5646 -0.0000
vn 0.8253 -0.5646 -0.0000
vn -0.5647 -0.8253 -0.0000
vn 0.5647 0.8253 -0.0000
vn -0.3624 -0.9320 -0.0000
vn 0.3624 0.9320 -0.0000
vn 0.9320 -0.3624 -0.0000
vn -0.9320 0.3624 -0.0000
vn 0.8660 0.5000 -0.0000
vn -0.8660 0.5000 -0.0000
vn -0.5646 -0.8253 -0.0000
vn 0.5646 0.8253 -0.0000
vt 0.218750 0.968750
vt 0.468750 0.843750
vt 0.906250 0.968750
vt 0.843750 0.906250
vt 0.968750 0.906250
vt 0.031250 0.968750
s 0
f 1/1/1 2/1/1 3/1/1
f 4/1/2 5/1/2 6/1/2
f 7/1/3 8/1/3 9/1/3
f 10/1/4 11/1/4 12/1/4
f 13/1/5 14/1/5 15/1/5
f 16/1/6 17/1/6 18/1/6
f 19/1/7 20/1/7 21/1/7
f 22/1/8 23/1/8 24/1/8
f 1/1/9 8/1/9 7/1/9
f 4/1/10 3/1/10 2/1/10
f 10/1/11 6/1/11 5/1/11
f 9/1/12 12/1/12 11/1/12
f 7/1/13 20/1/13 19/1/13
f 22/1/14 11/1/14 10/1/14
f 21/1/15 24/1/15 23/1/15
f 19/1/16 14/1/16 13/1/16
f 16/1/17 23/1/17 22/1/17
f 15/1/18 18/1/18 17/1/18
f 13/1/19 2/1/19 1/1/19
f 5/1/20 17/1/20 16/1/20
f 19/1/21 1/1/21 7/1/21
f 6/1/22 8/1/22 3/1/22
f 17/1/23 2/1/23 15/1/23
f 10/1/24 16/1/24 22/1/24
f 11/1/25 20/1/25 9/1/25
f 23/1/26 14/1/26 21/1/26
f 25/1/27 26/1/27 27/1/27
f 28/1/28 29/1/28 30/1/28
f 31/1/29 32/1/29 33/1/29
f 34/1/30 35/1/30 36/1/30
f 37/1/31 38/1/31 39/1/31
f 40/1/32 41/1/32 42/1/32
f 43/1/33 44/1/33 45/1/33
f 46/1/34 47/1/34 48/1/34
f 25/1/9 32/1/9 31/1/9
f 28/1/10 27/1/10 26/1/10
f 34/1/11 30/1/11 29/1/11
f 33/1/12 36/1/12 35/1/12
f 31/1/13 44/1/13 43/1/13
f 46/1/14 35/1/14 34/1/14
f 45/1/15 48/1/15 47/1/15
f 43/1/16 38/1/16 37/1/16
f 40/1/17 47/1/17 46/1/17
f 39/1/18 42/1/18 41/1/18
f 37/1/19 26/1/19 25/1/19
f 29/1/20 41/1/20 40/1/20
f 43/1/21 25/1/21 31/1/21
f 30/1/22 32/1/22 27/1/22
f 41/1/23 26/1/23 39/1/23
f 34/1/24 40/1/24 46/1/24
f 35/1/25 44/1/25 33/1/25
f 47/1/26 38/1/26 45/1/26
f 49/2/1 50/2/1 51/2/1
f 52/2/28 53/2/28 54/2/28
f 55/2/3 56/2/3 57/2/3
f 58/2/30 59/2/30 60/2/30
f 61/2/5 62/2/5 63/2/5
f 64/2/32 65/2/32 66/2/32
f 67/2/7 68/2/7 69/2/7
f 70/2/34 71/2/34 72/2/34
f 49/2/9 56/2/9 55/2/9
f 52/2/10 51/2/10 50/2/10
f 58/2/11 54/2/11 53/2/11
f 57/2/12 60/2/12 59/2/12
f 55/2/13 68/2/13 67/2/13
f 70/2/14 59/2/14 58/2/14
f 69/2/15 72/2/15 71/2/15
f 67/2/16 62/2/16 61/2/16
f 64/2/17 71/2/17 70/2/17
f 63/2/18 66/2/18 65/2/18
f 61/2/19 50/2/19 49/2/19
f 53/2/20 65/2/20 64/2/20
f 67/2/21 49/2/21 55/2/21
f 54/2/22 56/2/22 51/2/22
f 65/2/23 50/2/23 63/2/23
f 58/2/24 64/2/24 70/2/24
f 59/2/25 68/2/25 57/2/25
f 71/2/26 62/2/26 69/2/26
f 74/3/35 75/3/35 73/3/35
f 76/3/36 77/3/36 75/3/36
f 78/3/23 79/3/23 77/3/23
f 74/3/24 80/3/24 78/3/24
f 80/3/37 81/3/37 79/3/37
f 82/3/38 73/3/38 81/3/38
f 75/3/21 79/3/21 81/3/21
f 84/3/39 85/3/39 83/3/39
f 86/3/17 87/3/17 85/3/17
f 88/3/40 89/3/40 87/3/40
f 90/3/41 91/3/41 89/3/41
f 92/3/16 93/3/16 91/3/16
f 94/3/42 95/3/42 93/3/42
f 96/3/43 97/3/43 95/3/43
f 98/3/9 99/3/9 97/3/9
f 100/3/44 101/3/44 99/3/44
f 102/3/45 103/3/45 101/3/45
f 104/3/23 96/3/23 88/3/23
f 104/3/11 105/3/11 103/3/11
f 106/3/46 83/3/46 105/3/46
f 89/3/25 97/3/25 105/3/25
f 107/1/27 108/1/27 109/1/27
f 110/1/47 111/1/47 112/1/47
f 113/1/29 114/1/29 115/1/29
f 116/1/48 117/1/48 118/1/48
f 119/1/31 120/1/31 121/1/31
f 122/1/49 123/1/49 124/1/49
f 125/1/33 126/1/33 127/1/33
f 128/1/50 129/1/50 130/1/50
f 107/1/9 114/1/9 113/1/9
f 110/1/10 109/1/10 108/1/10
f 116/1/11 112/1/11 111/1/11
f 115/1/12 118/1/12 117/1/12
f 113/1/13 126/1/13 125/1/13
f 128/1/14 117/1/14 116/1/14
f 127/1/15 130/1/15 129/1/15
f 125/1/16 120/1/16 119/1/16
f 122/1/17 129/1/17 128/1/17
f 121/1/18 124/1/18 123/1/18
f 119/1/19 108/1/19 107/1/19
f 111/1/20 123/1/20 122/1/20
f 125/1/21 107/1/21 113/1/21
f 112/1/22 114/1/22 109/1/22
f 123/1/23 108/1/23 121/1/23
f 116/1/24 122/1/24 128/1/24
f 117/1/25 126/1/25 115/1/25
f 129/1/26 120/1/26 127/1/26
f 132/4/51 133/4/51 131/4/51
f 134/4/52 135/4/52 133/4/52
f 136/4/53 137/4/53 135/4/53
f 138/4/54 139/4/54 137/4/54
f 140/4/55 141/4/55 139/4/55
f 142/4/56 143/4/56 141/4/56
f 144/4/57 145/4/57 143/4/57
f 146/4/58 147/4/58 145/4/58
f 148/4/59 149/4/59 147/4/59
f 150/4/60 151/4/60 149/4/60
f 152/4/61 153/4/61 151/4/61
f 154/4/62 155/4/62 153/4/62
f 156/4/63 157/4/63 155/4/63
f 158/4/64 159/4/64 157/4/64
f 152/4/23 144/4/23 136/4/23
f 160/4/65 161/4/65 159/4/65
f 162/4/66 131/4/66 161/4/66
f 145/4/25 153/4/25 161/4/25
f 164/3/51 165/3/51 163/3/51
f 166/3/52 167/3/52 165/3/52
f 168/3/53 169/3/53 167/3/53
f 170/3/54 171/3/54 169/3/54
f 172/3/55 173/3/55 171/3/55
f 174/3/56 175/3/56 173/3/56
f 176/3/57 177/3/57 175/3/57
f 178/3/58 179/3/58 177/3/58
f 180/3/59 181/3/59 179/3/59
f 181/3/60 184/3/60 183/3/60
f 184/3/61 185/3/61 183/3/61
f 186/3/62 187/3/62 185/3/62
f 188/3/63 189/3/63 187/3/63
f 190/3/64 191/3/64 189/3/64
f 184/3/23 176/3/23 168/3/23
f 191/3/65 194/3/65 193/3/65
f 194/3/66 163/3/66 193/3/66
f 177/3/25 185/3/25 193/3/25
f 196/5/67 197/5/67 195/5/67
f 198/5/25 201/5/25 197/5/25
f 202/5/68 199/5/68 201/5/68
f 199/5/23 196/5/23 195/5/23
f 201/5/69 195/5/69 197/5/69
f 198/5/70 200/5/70 202/5/70
f 204/5/71 205/5/71 203/5/71
f 206/5/25 209/5/25 205/5/25
f 210/5/72 207/5/72 209/5/72
f 207/5/23 204/5/23 203/5/23
f 209/5/73 203/5/73 205/5/73
f 206/5/74 208/5/74 210/5/74
f 212/6/75 213/6/75 211/6/75
f 214/6/21 215/6/21 213/6/21
f 214/6/23 212/6/23 216/6/23
f 216/6/76 211/6/76 215/6/76
f 211/6/25 213/6/25 215/6/25
f 1/1/9 3/1/9 8/1/9
f 4/1/10 6/1/10 3/1/10
f 10/1/11 12/1/11 6/1/11
f 9/1/12 8/1/12 12/1/12
f 7/1/13 9/1/13 20/1/13
f 22/1/14 24/1/14 11/1/14
f 21/1/15 20/1/15 24/1/15
f 19/1/16 21/1/16 14/1/16
f 16/1/17 18/1/17 23/1/17
f 15/1/18 14/1/18 18/1/18
f 13/1/19 15/1/19 2/1/19
f 5/1/20 4/1/20 17/1/20
f 19/1/21 13/1/21 1/1/21
f 6/1/22 12/1/22 8/1/22
f 17/1/23 4/1/23 2/1/23
f 10/1/24 5/1/24 16/1/24
f 11/1/25 24/1/25 20/1/25
f 23/1/26 18/1/26 14/1/26
f 25/1/9 27/1/9 32/1/9
f 28/1/10 30/1/10 27/1/10
f 34/1/11 36/1/11 30/1/11
f 33/1/12 32/1/12 36/1/12
f 31/1/13 33/1/13 44/1/13
f 46/1/14 48/1/14 35/1/14
f 45/1/15 44/1/15 48/1/15
f 43/1/16 45/1/16 38/1/16
f 40/1/17 42/1/17 47/1/17
f 39/1/18 38/1/18 42/1/18
f 37/1/19 39/1/19 26/1/19
f 29/1/20 28/1/20 41/1/20
f 43/1/21 37/1/21 25/1/21
f 30/1/22 36/1/22 32/1/22
f 41/1/23 28/1/23 26/1/23
f 34/1/24 29/1/24 40/1/24
f 35/1/25 48/1/25 44/1/25
f 47/1/26 42/1/26 38/1/26
f 49/2/9 51/2/9 56/2/9
f 52/2/10 54/2/10 51/2/10
f 58/2/11 60/2/11 54/2/11
f 57/2/12 56/2/12 60/2/12
f 55/2/13 57/2/13 68/2/13
f 70/2/14 72/2/14 59/2/14
f 69/2/15 68/2/15 72/2/15
f 67/2/16 69/2/16 62/2/16
f 64/2/17 66/2/17 71/2/17
f 63/2/18 62/2/18 66/2/18
f 61/2/19 63/2/19 50/2/19
f 53/2/20 52/2/20 65/2/20
f 67/2/21 61/2/21 49/2/21
f 54/2/22 60/2/22 56/2/22
f 65/2/23 52/2/23 50/2/23
f 58/2/24 53/2/24 64/2/24
f 59/2/25 72/2/25 68/2/25
f 71/2/26 66/2/26 62/2/26
f 74/3/35 76/3/35 75/3/35
f 76/3/36 78/3/36 77/3/36
f 78/3/23 80/3/23 79/3/23
f 78/3/24 76/3/24 74/3/24
f 74/3/24 82/3/24 80/3/24
f 80/3/37 82/3/37 81/3/37
f 82/3/38 74/3/38 73/3/38
f 81/3/21 73/3/21 75/3/21
f 75/3/21 77/3/21 79/3/21
f 84/3/39 86/3/39 85/3/39
f 86/3/17 88/3/17 87/3/17
f 88/3/40 90/3/40 89/3/40
f 90/3/41 92/3/41 91/3/41
f 92/3/16 94/3/16 93/3/16
f 94/3/42 96/3/42 95/3/42
f 96/3/43 98/3/43 97/3/43
f 98/3/9 100/3/9 99/3/9
f 100/3/44 102/3/44 101/3/44
f 102/3/45 104/3/45 103/3/45
f 88/3/23 86/3/23 84/3/23
f 84/3/23 106/3/23 104/3/23
f 104/3/23 102/3/23 100/3/23
f 100/3/23 98/3/23 96/3/23
f 96/3/23 94/3/23 92/3/23
f 92/3/23 90/3/23 88/3/23
f 88/3/23 84/3/23 104/3/23
f 104/3/23 100/3/23 96/3/23
f 96/3/23 92/3/23 88/3/23
f 104/3/11 106/3/11 105/3/11
f 106/3/46 84/3/46 83/3/46
f 105/3/25 83/3/25 85/3/25
f 85/3/25 87/3/25 89/3/25
f 89/3/25 91/3/25 93/3/25
f 93/3/25 95/3/25 97/3/25
f 97/3/25 99/3/25 101/3/25
f 101/3/25 103/3/25 105/3/25
f 105/3/25 85/3/25 89/3/25
f 89/3/25 93/3/25 97/3/25
f 97/3/25 101/3/25 105/3/25
f 107/1/9 109/1/9 114/1/9
f 110/1/10 112/1/10 109/1/10
f 116/1/11 118/1/11 112/1/11
f 115/1/12 114/1/12 118/1/12
f 113/1/13 115/1/13 126/1/13
f 128/1/14 130/1/14 117/1/14
f 127/1/15 126/1/15 130/1/15
f 125/1/16 127/1/16 120/1/16
f 122/1/17 124/1/17 129/1/17
f 121/1/18 120/1/18 124/1/18
f 119/1/19 121/1/19 108/1/19
f 111/1/20 110/1/20 123/1/20
f 125/1/21 119/1/21 107/1/21
f 112/1/22 118/1/22 114/1/22
f 123/1/23 110/1/23 108/1/23
f 116/1/24 111/1/24 122/1/24
f 117/1/25 130/1/25 126/1/25
f 129/1/26 124/1/26 120/1/26
f 132/4/51 134/4/51 133/4/51
f 134/4/52 136/4/52 135/4/52
f 136/4/53 138/4/53 137/4/53
f 138/4/54 140/4/54 139/4/54
f 140/4/55 142/4/55 141/4/55
f 142/4/56 144/4/56 143/4/56
f 144/4/57 146/4/57 145/4/57
f 146/4/58 148/4/58 147/4/58
f 148/4/59 150/4/59 149/4/59
f 150/4/60 152/4/60 151/4/60
f 152/4/61 154/4/61 153/4/61
f 154/4/62 156/4/62 155/4/62
f 156/4/63 158/4/63 157/4/63
f 158/4/64 160/4/64 159/4/64
f 136/4/23 134/4/23 132/4/23
f 132/4/23 162/4/23 160/4/23
f 160/4/23 158/4/23 156/4/23
f 156/4/23 154/4/23 152/4/23
f 152/4/23 150/4/23 148/4/23
f 148/4/23 146/4/23 144/4/23
f 144/4/23 142/4/23 140/4/23
f 140/4/23 138/4/23 136/4/23
f 136/4/23 132/4/23 160/4/23
f 160/4/23 156/4/23 152/4/23
f 152/4/23 148/4/23 144/4/23
f 144/4/23 140/4/23 136/4/23
f 136/4/23 160/4/23 152/4/23
f 160/4/65 162/4/65 161/4/65
f 162/4/66 132/4/66 131/4/66
f 161/4/25 131/4/25 133/4/25
f 133/4/25 135/4/25 137/4/25
f 137/4/25 139/4/25 141/4/25
f 141/4/25 143/4/25 145/4/25
f 145/4/25 147/4/25 149/4/25
f 149/4/25 151/4/25 153/4/25
f 153/4/25 155/4/25 157/4/25
f 157/4/25 159/4/25 161/4/25
f 161/4/25 133/4/25 137/4/25
f 137/4/25 141/4/25 145/4/25
f 145/4/25 149/4/25 153/4/25
f 153/4/25 157/4/25 161/4/25
f 161/4/25 137/4/25 145/4/25
f 164/3/51 166/3/51 165/3/51
f 166/3/52 168/3/52 167/3/52
f 168/3/53 170/3/53 169/3/53
f 170/3/54 172/3/54 171/3/54
f 172/3/55 174/3/55 173/3/55
f 174/3/56 176/3/56 175/3/56
f 176/3/57 178/3/57 177/3/57
f 178/3/58 180/3/58 179/3/58
f 180/3/59 182/3/59 181/3/59
f 181/3/60 182/3/60 184/3/60
f 184/3/61 186/3/61 185/3/61
f 186/3/62 188/3/62 187/3/62
f 188/3/63 190/3/63 189/3/63
f 190/3/64 192/3/64 191/3/64
f 168/3/23 166/3/23 164/3/23
f 164/3/23 194/3/23 192/3/23
f 192/3/23 190/3/23 188/3/23
f 188/3/23 186/3/23 184/3/23
f 184/3/23 182/3/23 180/3/23
f 180/3/23 178/3/23 176/3/23
f 176/3/23 174/3/23 172/3/23
f 172/3/23 170/3/23 168/3/23
f 168/3/23 164/3/23 192/3/23
f 192/3/23 188/3/23 184/3/23
f 184/3/23 180/3/23 176/3/23
f 176/3/23 172/3/23 168/3/23
f 168/3/23 192/3/23 184/3/23
f 191/3/65 192/3/65 194/3/65
f 194/3/66 164/3/66 163/3/66
f 193/3/25 163/3/25 165/3/25
f 165/3/25 167/3/25 169/3/25
f 169/3/25 171/3/25 173/3/25
f 173/3/25 175/3/25 177/3/25
f 177/3/25 179/3/25 181/3/25
f 181/3/25 183/3/25 185/3/25
f 185/3/25 187/3/25 189/3/25
f 189/3/25 191/3/25 193/3/25
f 193/3/25 165/3/25 169/3/25
f 169/3/25 173/3/25 177/3/25
f 177/3/25 181/3/25 185/3/25
f 185/3/25 189/3/25 193/3/25
f 193/3/25 169/3/25 177/3/25
f 196/5/67 198/5/67 197/5/67
f 198/5/25 202/5/25 201/5/25
f 202/5/68 200/5/68 199/5/68
f 199/5/23 200/5/23 196/5/23
f 201/5/77 199/5/77 195/5/77
f 198/5/78 196/5/78 200/5/78
f 204/5/71 206/5/71 205/5/71
f 206/5/25 210/5/25 209/5/25
f 210/5/72 208/5/72 207/5/72
f 207/5/23 208/5/23 204/5/23
f 209/5/73 207/5/73 203/5/73
f 206/5/74 204/5/74 208/5/74
f 212/6/75 214/6/75 213/6/75
f 214/6/21 216/6/21 215/6/21
f 216/6/76 212/6/76 211/6/76
