# Blender 5.1.1
# www.blender.org
o jendela
v -0.668000 -0.630000 0.028000
v -0.668000 -0.618000 0.040000
v -0.680000 -0.618000 0.028000
v -0.668000 0.618000 0.040000
v -0.668000 0.630000 0.028000
v -0.680000 0.618000 0.028000
v -0.668000 -0.630000 -0.028000
v -0.680000 -0.618000 -0.028000
v -0.668000 -0.618000 -0.040000
v -0.668000 0.630000 -0.028000
v -0.668000 0.618000 -0.040000
v -0.680000 0.618000 -0.028000
v 0.668000 -0.630000 0.028000
v 0.680000 -0.618000 0.028000
v 0.668000 -0.618000 0.040000
v 0.668000 0.630000 0.028000
v 0.668000 0.618000 0.040000
v 0.680000 0.618000 0.028000
v 0.668000 -0.630000 -0.028000
v 0.668000 -0.618000 -0.040000
v 0.680000 -0.618000 -0.028000
v 0.668000 0.630000 -0.028000
v 0.680000 0.618000 -0.028000
v 0.668000 0.618000 -0.040000
v -0.600000 -0.550000 0.045000
v -0.600000 0.550000 0.045000
v -0.600000 -0.550000 0.015000
v -0.600000 0.550000 0.015000
v 0.600000 -0.550000 0.045000
v 0.600000 0.550000 0.045000
v 0.600000 -0.550000 0.015000
v 0.600000 0.550000 0.015000
v -0.025000 -0.550000 0.075000
v -0.025000 0.550000 0.075000
v -0.025000 -0.550000 0.025000
v -0.025000 0.550000 0.025000
v 0.025000 -0.550000 0.075000
v 0.025000 0.550000 0.075000
v 0.025000 -0.550000 0.025000
v 0.025000 0.550000 0.025000
v -0.600000 -0.025000 0.075000
v -0.600000 0.025000 0.075000
v -0.600000 -0.025000 0.025000
v -0.600000 0.025000 0.025000
v 0.600000 -0.025000 0.075000
v 0.600000 0.025000 0.075000
v 0.600000 -0.025000 0.025000
v 0.600000 0.025000 0.025000
v -0.738000 -0.650000 0.158000
v -0.738000 -0.638000 0.170000
v -0.750000 -0.638000 0.158000
v -0.738000 -0.612000 0.170000
v -0.738000 -0.600000 0.158000
v -0.750000 -0.612000 0.158000
v -0.738000 -0.650000 -0.018000
v -0.750000 -0.638000 -0.018000
v -0.738000 -0.638000 -0.030000
v -0.738000 -0.600000 -0.018000
v -0.738000 -0.612000 -0.030000
v -0.750000 -0.612000 -0.018000
v 0.738000 -0.650000 0.158000
v 0.750000 -0.638000 0.158000
v 0.738000 -0.638000 0.170000
v 0.738000 -0.600000 0.158000
v 0.738000 -0.612000 0.170000
v 0.750000 -0.612000 0.158000
v 0.738000 -0.650000 -0.018000
v 0.738000 -0.638000 -0.030000
v 0.750000 -0.638000 -0.018000
v 0.738000 -0.600000 -0.018000
v 0.750000 -0.612000 -0.018000
v 0.738000 -0.612000 -0.030000
v -0.900000 0.730000 0.075000
v 0.900000 0.730000 0.075000
v -0.900000 0.717010 0.082500
v 0.900000 0.717010 0.082500
v -0.900000 0.717010 0.097500
v 0.900000 0.717010 0.097500
v -0.900000 0.730000 0.105000
v 0.900000 0.730000 0.105000
v -0.900000 0.742990 0.097500
v 0.900000 0.742990 0.097500
v -0.900000 0.742990 0.082500
v 0.900000 0.742990 0.082500
v -0.852000 -0.750000 0.122000
v -0.852000 -0.732000 0.140000
v -0.870000 -0.732000 0.122000
v -0.852000 0.682000 0.140000
v -0.852000 0.700000 0.122000
v -0.870000 0.682000 0.122000
v -0.852000 -0.750000 0.098000
v -0.870000 -0.732000 0.098000
v -0.852000 -0.732000 0.080000
v -0.852000 0.700000 0.098000
v -0.852000 0.682000 0.080000
v -0.870000 0.682000 0.098000
v -0.588000 -0.750000 0.122000
v -0.570000 -0.732000 0.122000
v -0.588000 -0.732000 0.140000
v -0.588000 0.700000 0.122000
v -0.588000 0.682000 0.140000
v -0.570000 0.682000 0.122000
v -0.588000 -0.750000 0.098000
v -0.588000 -0.732000 0.080000
v -0.570000 -0.732000 0.098000
v -0.588000 0.700000 0.098000
v -0.570000 0.682000 0.098000
v -0.588000 0.682000 0.080000
v -0.870000 -0.300000 0.145000
v -0.870000 -0.260000 0.145000
v -0.870000 -0.300000 0.075000
v -0.870000 -0.260000 0.075000
v -0.570000 -0.300000 0.145000
v -0.570000 -0.260000 0.145000
v -0.570000 -0.300000 0.075000
v -0.570000 -0.260000 0.075000
v 0.588000 -0.750000 0.122000
v 0.588000 -0.732000 0.140000
v 0.570000 -0.732000 0.122000
v 0.588000 0.682000 0.140000
v 0.588000 0.700000 0.122000
v 0.570000 0.682000 0.122000
v 0.588000 -0.750000 0.098000
v 0.570000 -0.732000 0.098000
v 0.588000 -0.732000 0.080000
v 0.588000 0.700000 0.098000
v 0.588000 0.682000 0.080000
v 0.570000 0.682000 0.098000
v 0.852000 -0.750000 0.122000
v 0.870000 -0.732000 0.122000
v 0.852000 -0.732000 0.140000
v 0.852000 0.700000 0.122000
v 0.852000 0.682000 0.140000
v 0.870000 0.682000 0.122000
v 0.852000 -0.750000 0.098000
v 0.852000 -0.732000 0.080000
v 0.870000 -0.732000 0.098000
v 0.852000 0.700000 0.098000
v 0.870000 0.682000 0.098000
v 0.852000 0.682000 0.080000
v 0.570000 -0.300000 0.145000
v 0.570000 -0.260000 0.145000
v 0.570000 -0.300000 0.075000
v 0.570000 -0.260000 0.075000
v 0.870000 -0.300000 0.145000
v 0.870000 -0.260000 0.145000
v 0.870000 -0.300000 0.075000
v 0.870000 -0.260000 0.075000
v 0.350000 -0.600000 0.000000
v 0.350000 -0.480000 0.000000
v 0.399497 -0.600000 0.020503
v 0.399497 -0.480000 0.020503
v 0.420000 -0.600000 0.070000
v 0.420000 -0.480000 0.070000
v 0.399497 -0.600000 0.119497
v 0.399497 -0.480000 0.119497
v 0.350000 -0.600000 0.140000
v 0.350000 -0.480000 0.140000
v 0.300503 -0.600000 0.119497
v 0.300503 -0.480000 0.119497
v 0.280000 -0.600000 0.070000
v 0.280000 -0.480000 0.070000
v 0.300503 -0.600000 0.020503
v 0.300503 -0.480000 0.020503
v 0.350000 -0.480000 0.070000
v 0.380000 -0.492652 0.005124
v 0.350000 -0.547120 -0.052862
v 0.320000 -0.492652 0.005124
v 0.320000 -0.496163 0.007041
v 0.350000 -0.550630 -0.050944
v 0.380000 -0.496163 0.007041
v 0.350000 -0.483510 0.071918
v 0.350000 -0.480000 0.070000
v 0.278853 -0.492652 0.076856
v 0.243945 -0.547120 0.132026
v 0.309144 -0.492652 0.128649
v 0.310799 -0.496163 0.127681
v 0.245600 -0.550630 0.131058
v 0.280508 -0.496163 0.075888
v 0.351655 -0.483510 0.069032
v 0.350000 -0.480000 0.070000
v 0.391837 -0.492652 0.127954
v 0.457083 -0.547120 0.130234
v 0.421252 -0.492652 0.075659
v 0.419581 -0.496163 0.074719
v 0.455412 -0.550630 0.129294
v 0.390165 -0.496163 0.127013
v 0.348329 -0.483510 0.069060
vn -0.5773 -0.5774 0.5774
vn -0.5773 0.5774 0.5774
vn -0.5773 -0.5774 -0.5774
vn -0.5773 0.5774 -0.5774
vn 0.5773 -0.5774 0.5774
vn 0.5773 0.5774 0.5774
vn 0.5773 -0.5774 -0.5774
vn 0.5773 0.5774 -0.5774
vn -0.7071 -0.7071 -0.0000
vn -0.7071 -0.0000 0.7071
vn -0.7071 0.7071 -0.0000
vn -0.7071 -0.0000 -0.7071
vn -0.0000 -0.7071 -0.7071
vn -0.0000 0.7071 -0.7071
vn 0.7071 -0.0000 -0.7071
vn 0.7071 -0.7071 -0.0000
vn 0.7071 0.7071 -0.0000
vn 0.7071 -0.0000 0.7071
vn -0.0000 -0.7071 0.7071
vn -0.0000 0.7071 0.7071
vn -0.0000 -1.0000 -0.0000
vn -1.0000 -0.0000 -0.0000
vn -0.0000 -0.0000 1.0000
vn -0.0000 1.0000 -0.0000
vn -0.0000 -0.0000 -1.0000
vn 1.0000 -0.0000 -0.0000
vn -0.5773 -0.5774 0.5773
vn -0.5773 0.5774 0.5773
vn -0.5773 -0.5774 -0.5773
vn -0.5773 0.5774 -0.5773
vn 0.5773 -0.5774 0.5773
vn 0.5773 0.5774 0.5773
vn 0.5773 -0.5774 -0.5773
vn 0.5773 0.5774 -0.5773
vn -0.0000 -0.5000 -0.8660
vn -0.0000 -0.5000 0.8660
vn -0.0000 0.5000 0.8660
vn -0.0000 0.5000 -0.8660
vn -0.5774 0.5774 0.5773
vn -0.5774 -0.5774 -0.5774
vn -0.5774 0.5774 -0.5774
vn 0.5774 0.5774 -0.5774
vn 0.3827 -0.0000 -0.9239
vn 0.9239 -0.0000 -0.3827
vn 0.9239 -0.0000 0.3827
vn 0.3827 -0.0000 0.9239
vn -0.3827 -0.0000 0.9239
vn -0.9239 -0.0000 0.3827
vn -0.9239 -0.0000 -0.3827
vn -0.3827 -0.0000 -0.9239
vn -0.0000 0.9815 -0.1914
vn -0.0000 -0.9815 0.1914
vn -0.1652 0.9815 0.0966
vn 0.1652 -0.9815 -0.0966
vn 0.1668 0.9815 0.0938
vn -0.1668 -0.9815 -0.0938
vn -0.0000 0.7289 -0.6847
vn -0.0000 -0.7289 0.6847
vn -0.5910 0.7289 0.3456
vn 0.5910 -0.7289 -0.3456
vn 0.5967 0.7289 0.3357
vn -0.5967 -0.7289 -0.3357
vt 0.031250 0.968750
vt 0.468750 0.843750
vt 0.093750 0.968750
vt 0.906250 0.968750
vt 0.531250 0.843750
vt 0.718750 0.906250
vt 0.531250 0.906250
s 0
f 1/1/1 2/1/1 3/1/1
f 4/1/2 5/1/2 6/1/2
f 7/1/3 8/1/3 9/1/3
f 10/1/4 11/1/4 12/1/4
f 13/1/5 14/1/5 15/1/5
f 16/1/6 17/1/6 18/1/6
f 19/1/7 20/1/7 21/1/7
f 22/1/8 23/1/8 24/1/8
f 1/1/9 8/1/9 7/1/9
f 4/1/10 3/1/10 2/1/10
f 10/1/11 6/1/11 5/1/11
f 9/1/12 12/1/12 11/1/12
f 7/1/13 20/1/13 19/1/13
f 22/1/14 11/1/14 10/1/14
f 21/1/15 24/1/15 23/1/15
f 19/1/16 14/1/16 13/1/16
f 16/1/17 23/1/17 22/1/17
f 15/1/18 18/1/18 17/1/18
f 13/1/19 2/1/19 1/1/19
f 5/1/20 17/1/20 16/1/20
f 19/1/21 1/1/21 7/1/21
f 6/1/22 8/1/22 3/1/22
f 17/1/23 2/1/23 15/1/23
f 10/1/24 16/1/24 22/1/24
f 11/1/25 20/1/25 9/1/25
f 23/1/26 14/1/26 21/1/26
f 26/2/22 27/2/22 25/2/22
f 28/2/25 31/2/25 27/2/25
f 32/2/26 29/2/26 31/2/26
f 30/2/23 25/2/23 29/2/23
f 31/2/21 25/2/21 27/2/21
f 28/2/24 30/2/24 32/2/24
f 34/1/22 35/1/22 33/1/22
f 36/1/25 39/1/25 35/1/25
f 40/1/26 37/1/26 39/1/26
f 38/1/23 33/1/23 37/1/23
f 39/1/21 33/1/21 35/1/21
f 36/1/24 38/1/24 40/1/24
f 42/1/22 43/1/22 41/1/22
f 44/1/25 47/1/25 43/1/25
f 48/1/26 45/1/26 47/1/26
f 46/1/23 41/1/23 45/1/23
f 47/1/21 41/1/21 43/1/21
f 44/1/24 46/1/24 48/1/24
f 49/3/27 50/3/27 51/3/27
f 52/3/28 53/3/28 54/3/28
f 55/3/29 56/3/29 57/3/29
f 58/3/30 59/3/30 60/3/30
f 61/3/31 62/3/31 63/3/31
f 64/3/32 65/3/32 66/3/32
f 67/3/33 68/3/33 69/3/33
f 70/3/34 71/3/34 72/3/34
f 49/3/9 56/3/9 55/3/9
f 52/3/10 51/3/10 50/3/10
f 58/3/11 54/3/11 53/3/11
f 57/3/12 60/3/12 59/3/12
f 55/3/13 68/3/13 67/3/13
f 70/3/14 59/3/14 58/3/14
f 69/3/15 72/3/15 71/3/15
f 67/3/16 62/3/16 61/3/16
f 64/3/17 71/3/17 70/3/17
f 63/3/18 66/3/18 65/3/18
f 61/3/19 50/3/19 49/3/19
f 53/3/20 65/3/20 64/3/20
f 67/3/21 49/3/21 55/3/21
f 54/3/22 56/3/22 51/3/22
f 65/3/23 50/3/23 63/3/23
f 58/3/24 64/3/24 70/3/24
f 59/3/25 68/3/25 57/3/25
f 71/3/26 62/3/26 69/3/26
f 73/4/35 76/4/35 75/4/35
f 76/4/21 77/4/21 75/4/21
f 78/4/36 79/4/36 77/4/36
f 80/4/37 81/4/37 79/4/37
f 74/4/26 82/4/26 78/4/26
f 82/4/24 83/4/24 81/4/24
f 84/4/38 73/4/38 83/4/38
f 75/4/22 79/4/22 83/4/22
f 85/5/27 86/5/27 87/5/27
f 88/5/39 89/5/39 90/5/39
f 91/5/40 92/5/40 93/5/40
f 94/5/41 95/5/41 96/5/41
f 97/5/31 98/5/31 99/5/31
f 100/5/32 101/5/32 102/5/32
f 103/5/7 104/5/7 105/5/7
f 106/5/42 107/5/42 108/5/42
f 85/5/9 92/5/9 91/5/9
f 88/5/10 87/5/10 86/5/10
f 94/5/11 90/5/11 89/5/11
f 93/5/12 96/5/12 95/5/12
f 91/5/13 104/5/13 103/5/13
f 106/5/14 95/5/14 94/5/14
f 105/5/15 108/5/15 107/5/15
f 103/5/16 98/5/16 97/5/16
f 100/5/17 107/5/17 106/5/17
f 99/5/18 102/5/18 101/5/18
f 97/5/19 86/5/19 85/5/19
f 89/5/20 101/5/20 100/5/20
f 103/5/21 85/5/21 91/5/21
f 90/5/22 92/5/22 87/5/22
f 101/5/23 86/5/23 99/5/23
f 94/5/24 100/5/24 106/5/24
f 95/5/25 104/5/25 93/5/25
f 107/5/26 98/5/26 105/5/26
f 110/4/22 111/4/22 109/4/22
f 112/4/25 115/4/25 111/4/25
f 116/4/26 113/4/26 115/4/26
f 114/4/23 109/4/23 113/4/23
f 115/4/21 109/4/21 111/4/21
f 112/4/24 114/4/24 116/4/24
f 117/5/27 118/5/27 119/5/27
f 120/5/39 121/5/39 122/5/39
f 123/5/40 124/5/40 125/5/40
f 126/5/41 127/5/41 128/5/41
f 129/5/31 130/5/31 131/5/31
f 132/5/32 133/5/32 134/5/32
f 135/5/7 136/5/7 137/5/7
f 138/5/42 139/5/42 140/5/42
f 117/5/9 124/5/9 123/5/9
f 120/5/10 119/5/10 118/5/10
f 126/5/11 122/5/11 121/5/11
f 125/5/12 128/5/12 127/5/12
f 123/5/13 136/5/13 135/5/13
f 138/5/14 127/5/14 126/5/14
f 137/5/15 140/5/15 139/5/15
f 135/5/16 130/5/16 129/5/16
f 132/5/17 139/5/17 138/5/17
f 131/5/18 134/5/18 133/5/18
f 129/5/19 118/5/19 117/5/19
f 121/5/20 133/5/20 132/5/20
f 135/5/21 117/5/21 123/5/21
f 122/5/22 124/5/22 119/5/22
f 133/5/23 118/5/23 131/5/23
f 126/5/24 132/5/24 138/5/24
f 127/5/25 136/5/25 125/5/25
f 139/5/26 130/5/26 137/5/26
f 142/4/22 143/4/22 141/4/22
f 144/4/25 147/4/25 143/4/25
f 148/4/26 145/4/26 147/4/26
f 146/4/23 141/4/23 145/4/23
f 147/4/21 141/4/21 143/4/21
f 144/4/24 146/4/24 148/4/24
f 150/6/43 151/6/43 149/6/43
f 152/6/44 153/6/44 151/6/44
f 154/6/45 155/6/45 153/6/45
f 156/6/46 157/6/46 155/6/46
f 158/6/47 159/6/47 157/6/47
f 160/6/48 161/6/48 159/6/48
f 162/6/24 158/6/24 154/6/24
f 162/6/49 163/6/49 161/6/49
f 164/6/50 149/6/50 163/6/50
f 155/6/21 159/6/21 163/6/21
f 166/7/51 168/7/51 165/7/51
f 169/7/52 171/7/52 172/7/52
f 174/7/53 176/7/53 173/7/53
f 177/7/54 179/7/54 180/7/54
f 182/7/55 184/7/55 181/7/55
f 185/7/56 187/7/56 188/7/56
f 1/1/9 3/1/9 8/1/9
f 4/1/10 6/1/10 3/1/10
f 10/1/11 12/1/11 6/1/11
f 9/1/12 8/1/12 12/1/12
f 7/1/13 9/1/13 20/1/13
f 22/1/14 24/1/14 11/1/14
f 21/1/15 20/1/15 24/1/15
f 19/1/16 21/1/16 14/1/16
f 16/1/17 18/1/17 23/1/17
f 15/1/18 14/1/18 18/1/18
f 13/1/19 15/1/19 2/1/19
f 5/1/20 4/1/20 17/1/20
f 19/1/21 13/1/21 1/1/21
f 6/1/22 12/1/22 8/1/22
f 17/1/23 4/1/23 2/1/23
f 10/1/24 5/1/24 16/1/24
f 11/1/25 24/1/25 20/1/25
f 23/1/26 18/1/26 14/1/26
f 26/2/22 28/2/22 27/2/22
f 28/2/25 32/2/25 31/2/25
f 32/2/26 30/2/26 29/2/26
f 30/2/23 26/2/23 25/2/23
f 31/2/21 29/2/21 25/2/21
f 28/2/24 26/2/24 30/2/24
f 34/1/22 36/1/22 35/1/22
f 36/1/25 40/1/25 39/1/25
f 40/1/26 38/1/26 37/1/26
f 38/1/23 34/1/23 33/1/23
f 39/1/21 37/1/21 33/1/21
f 36/1/24 34/1/24 38/1/24
f 42/1/22 44/1/22 43/1/22
f 44/1/25 48/1/25 47/1/25
f 48/1/26 46/1/26 45/1/26
f 46/1/23 42/1/23 41/1/23
f 47/1/21 45/1/21 41/1/21
f 44/1/24 42/1/24 46/1/24
f 49/3/9 51/3/9 56/3/9
f 52/3/10 54/3/10 51/3/10
f 58/3/11 60/3/11 54/3/11
f 57/3/12 56/3/12 60/3/12
f 55/3/13 57/3/13 68/3/13
f 70/3/14 72/3/14 59/3/14
f 69/3/15 68/3/15 72/3/15
f 67/3/16 69/3/16 62/3/16
f 64/3/17 66/3/17 71/3/17
f 63/3/18 62/3/18 66/3/18
f 61/3/19 63/3/19 50/3/19
f 53/3/20 52/3/20 65/3/20
f 67/3/21 61/3/21 49/3/21
f 54/3/22 60/3/22 56/3/22
f 65/3/23 52/3/23 50/3/23
f 58/3/24 53/3/24 64/3/24
f 59/3/25 72/3/25 68/3/25
f 71/3/26 66/3/26 62/3/26
f 73/4/35 74/4/35 76/4/35
f 76/4/21 78/4/21 77/4/21
f 78/4/36 80/4/36 79/4/36
f 80/4/37 82/4/37 81/4/37
f 78/4/26 76/4/26 74/4/26
f 74/4/26 84/4/26 82/4/26
f 82/4/26 80/4/26 78/4/26
f 82/4/24 84/4/24 83/4/24
f 84/4/38 74/4/38 73/4/38
f 83/4/22 73/4/22 75/4/22
f 75/4/22 77/4/22 79/4/22
f 79/4/22 81/4/22 83/4/22
f 85/5/9 87/5/9 92/5/9
f 88/5/10 90/5/10 87/5/10
f 94/5/11 96/5/11 90/5/11
f 93/5/12 92/5/12 96/5/12
f 91/5/13 93/5/13 104/5/13
f 106/5/14 108/5/14 95/5/14
f 105/5/15 104/5/15 108/5/15
f 103/5/16 105/5/16 98/5/16
f 100/5/17 102/5/17 107/5/17
f 99/5/18 98/5/18 102/5/18
f 97/5/19 99/5/19 86/5/19
f 89/5/20 88/5/20 101/5/20
f 103/5/21 97/5/21 85/5/21
f 90/5/22 96/5/22 92/5/22
f 101/5/23 88/5/23 86/5/23
f 94/5/24 89/5/24 100/5/24
f 95/5/25 108/5/25 104/5/25
f 107/5/26 102/5/26 98/5/26
f 110/4/22 112/4/22 111/4/22
f 112/4/25 116/4/25 115/4/25
f 116/4/26 114/4/26 113/4/26
f 114/4/23 110/4/23 109/4/23
f 115/4/21 113/4/21 109/4/21
f 112/4/24 110/4/24 114/4/24
f 117/5/9 119/5/9 124/5/9
f 120/5/10 122/5/10 119/5/10
f 126/5/11 128/5/11 122/5/11
f 125/5/12 124/5/12 128/5/12
f 123/5/13 125/5/13 136/5/13
f 138/5/14 140/5/14 127/5/14
f 137/5/15 136/5/15 140/5/15
f 135/5/16 137/5/16 130/5/16
f 132/5/17 134/5/17 139/5/17
f 131/5/18 130/5/18 134/5/18
f 129/5/19 131/5/19 118/5/19
f 121/5/20 120/5/20 133/5/20
f 135/5/21 129/5/21 117/5/21
f 122/5/22 128/5/22 124/5/22
f 133/5/23 120/5/23 118/5/23
f 126/5/24 121/5/24 132/5/24
f 127/5/25 140/5/25 136/5/25
f 139/5/26 134/5/26 130/5/26
f 142/4/22 144/4/22 143/4/22
f 144/4/25 148/4/25 147/4/25
f 148/4/26 146/4/26 145/4/26
f 146/4/23 142/4/23 141/4/23
f 147/4/21 145/4/21 141/4/21
f 144/4/24 142/4/24 146/4/24
f 150/6/43 152/6/43 151/6/43
f 152/6/44 154/6/44 153/6/44
f 154/6/45 156/6/45 155/6/45
f 156/6/46 158/6/46 157/6/46
f 158/6/47 160/6/47 159/6/47
f 160/6/48 162/6/48 161/6/48
f 154/6/24 152/6/24 150/6/24
f 150/6/24 164/6/24 162/6/24
f 162/6/24 160/6/24 158/6/24
f 158/6/24 156/6/24 154/6/24
f 154/6/24 150/6/24 162/6/24
f 162/6/49 164/6/49 163/6/49
f 164/6/50 150/6/50 149/6/50
f 163/6/21 149/6/21 151/6/21
f 151/6/21 153/6/21 155/6/21
f 155/6/21 157/6/21 159/6/21
f 159/6/21 161/6/21 163/6/21
f 163/6/21 151/6/21 155/6/21
f 166/7/57 167/7/57 168/7/57
f 169/7/58 170/7/58 171/7/58
f 174/7/59 175/7/59 176/7/59
f 177/7/60 178/7/60 179/7/60
f 182/7/61 183/7/61 184/7/61
f 185/7/62 186/7/62 187/7/62
