# Blender 5.1.1
# www.blender.org
o kasur
v -0.033000 -0.140000 0.033000
v -0.033000 -0.128000 0.045000
v -0.045000 -0.128000 0.033000
v -0.033000 0.128000 0.045000
v -0.033000 0.140000 0.033000
v -0.045000 0.128000 0.033000
v -0.033000 -0.140000 -0.033000
v -0.045000 -0.128000 -0.033000
v -0.033000 -0.128000 -0.045000
v -0.033000 0.140000 -0.033000
v -0.033000 0.128000 -0.045000
v -0.045000 0.128000 -0.033000
v 0.033000 -0.140000 0.033000
v 0.045000 -0.128000 0.033000
v 0.033000 -0.128000 0.045000
v 0.033000 0.140000 0.033000
v 0.033000 0.128000 0.045000
v 0.045000 0.128000 0.033000
v 0.033000 -0.140000 -0.033000
v 0.033000 -0.128000 -0.045000
v 0.045000 -0.128000 -0.033000
v 0.033000 0.140000 -0.033000
v 0.045000 0.128000 -0.033000
v 0.033000 0.128000 -0.045000
v -0.033000 -0.140000 -1.827000
v -0.033000 -0.128000 -1.815000
v -0.045000 -0.128000 -1.827000
v -0.033000 0.128000 -1.815000
v -0.033000 0.140000 -1.827000
v -0.045000 0.128000 -1.827000
v -0.033000 -0.140000 -1.893000
v -0.045000 -0.128000 -1.893000
v -0.033000 -0.128000 -1.905000
v -0.033000 0.140000 -1.893000
v -0.033000 0.128000 -1.905000
v -0.045000 0.128000 -1.893000
v 0.033000 -0.140000 -1.827000
v 0.045000 -0.128000 -1.827000
v 0.033000 -0.128000 -1.815000
v 0.033000 0.140000 -1.827000
v 0.033000 0.128000 -1.815000
v 0.045000 0.128000 -1.827000
v 0.033000 -0.140000 -1.893000
v 0.033000 -0.128000 -1.905000
v 0.045000 -0.128000 -1.893000
v 0.033000 0.140000 -1.893000
v 0.045000 0.128000 -1.893000
v 0.033000 0.128000 -1.905000
v 1.487000 -0.140000 0.033000
v 1.487000 -0.128000 0.045000
v 1.475000 -0.128000 0.033000
v 1.487000 0.128000 0.045000
v 1.487000 0.140000 0.033000
v 1.475000 0.128000 0.033000
v 1.487000 -0.140000 -0.033000
v 1.475000 -0.128000 -0.033000
v 1.487000 -0.128000 -0.045000
v 1.487000 0.140000 -0.033000
v 1.487000 0.128000 -0.045000
v 1.475000 0.128000 -0.033000
v 1.553000 -0.140000 0.033000
v 1.565000 -0.128000 0.033000
v 1.553000 -0.128000 0.045000
v 1.553000 0.140000 0.033000
v 1.553000 0.128000 0.045000
v 1.565000 0.128000 0.033000
v 1.553000 -0.140000 -0.033000
v 1.553000 -0.128000 -0.045000
v 1.565000 -0.128000 -0.033000
v 1.553000 0.140000 -0.033000
v 1.565000 0.128000 -0.033000
v 1.553000 0.128000 -0.045000
v 1.487000 -0.140000 -1.827000
v 1.487000 -0.128000 -1.815000
v 1.475000 -0.128000 -1.827000
v 1.487000 0.128000 -1.815000
v 1.487000 0.140000 -1.827000
v 1.475000 0.128000 -1.827000
v 1.487000 -0.140000 -1.893000
v 1.475000 -0.128000 -1.893000
v 1.487000 -0.128000 -1.905000
v 1.487000 0.140000 -1.893000
v 1.487000 0.128000 -1.905000
v 1.475000 0.128000 -1.893000
v 1.553000 -0.140000 -1.827000
v 1.565000 -0.128000 -1.827000
v 1.553000 -0.128000 -1.815000
v 1.553000 0.140000 -1.827000
v 1.553000 0.128000 -1.815000
v 1.565000 0.128000 -1.827000
v 1.553000 -0.140000 -1.893000
v 1.553000 -0.128000 -1.905000
v 1.565000 -0.128000 -1.893000
v 1.553000 0.140000 -1.893000
v 1.565000 0.128000 -1.893000
v 1.553000 0.128000 -1.905000
v -0.038000 0.060000 0.038000
v -0.038000 0.072000 0.050000
v -0.050000 0.072000 0.038000
v -0.038000 0.168000 0.050000
v -0.038000 0.180000 0.038000
v -0.050000 0.168000 0.038000
v -0.038000 0.060000 -1.898000
v -0.050000 0.072000 -1.898000
v -0.038000 0.072000 -1.910000
v -0.038000 0.180000 -1.898000
v -0.038000 0.168000 -1.910000
v -0.050000 0.168000 -1.898000
v 1.558000 0.060000 0.038000
v 1.570000 0.072000 0.038000
v 1.558000 0.072000 0.050000
v 1.558000 0.180000 0.038000
v 1.558000 0.168000 0.050000
v 1.570000 0.168000 0.038000
v 1.558000 0.060000 -1.898000
v 1.558000 0.072000 -1.910000
v 1.570000 0.072000 -1.898000
v 1.558000 0.180000 -1.898000
v 1.570000 0.168000 -1.898000
v 1.558000 0.168000 -1.910000
v -0.058000 -0.140000 -1.862000
v -0.058000 -0.128000 -1.850000
v -0.070000 -0.128000 -1.862000
v -0.058000 0.898000 -1.850000
v -0.058000 0.910000 -1.862000
v -0.070000 0.898000 -1.862000
v -0.058000 -0.140000 -1.918000
v -0.070000 -0.128000 -1.918000
v -0.058000 -0.128000 -1.930000
v -0.058000 0.910000 -1.918000
v -0.058000 0.898000 -1.930000
v -0.070000 0.898000 -1.918000
v 1.578000 -0.140000 -1.862000
v 1.590000 -0.128000 -1.862000
v 1.578000 -0.128000 -1.850000
v 1.578000 0.910000 -1.862000
v 1.578000 0.898000 -1.850000
v 1.590000 0.898000 -1.862000
v 1.578000 -0.140000 -1.918000
v 1.578000 -0.128000 -1.930000
v 1.590000 -0.128000 -1.918000
v 1.578000 0.910000 -1.918000
v 1.590000 0.898000 -1.918000
v 1.578000 0.898000 -1.930000
v -0.088000 0.910000 -1.842000
v -0.088000 0.922000 -1.830000
v -0.100000 0.922000 -1.842000
v -0.088000 0.958000 -1.830000
v -0.088000 0.970000 -1.842000
v -0.100000 0.958000 -1.842000
v -0.088000 0.910000 -1.938000
v -0.100000 0.922000 -1.938000
v -0.088000 0.922000 -1.950000
v -0.088000 0.970000 -1.938000
v -0.088000 0.958000 -1.950000
v -0.100000 0.958000 -1.938000
v 1.608000 0.910000 -1.842000
v 1.620000 0.922000 -1.842000
v 1.608000 0.922000 -1.830000
v 1.608000 0.970000 -1.842000
v 1.608000 0.958000 -1.830000
v 1.620000 0.958000 -1.842000
v 1.608000 0.910000 -1.938000
v 1.608000 0.922000 -1.950000
v 1.620000 0.922000 -1.938000
v 1.608000 0.970000 -1.938000
v 1.620000 0.958000 -1.938000
v 1.608000 0.958000 -1.950000
v 0.291000 0.280000 -1.836000
v 0.291000 0.286000 -1.830000
v 0.285000 0.286000 -1.836000
v 0.291000 0.774000 -1.830000
v 0.291000 0.780000 -1.836000
v 0.285000 0.774000 -1.836000
v 0.291000 0.280000 -1.844000
v 0.285000 0.286000 -1.844000
v 0.291000 0.286000 -1.850000
v 0.291000 0.780000 -1.844000
v 0.291000 0.774000 -1.850000
v 0.285000 0.774000 -1.844000
v 0.329000 0.280000 -1.836000
v 0.335000 0.286000 -1.836000
v 0.329000 0.286000 -1.830000
v 0.329000 0.780000 -1.836000
v 0.329000 0.774000 -1.830000
v 0.335000 0.774000 -1.836000
v 0.329000 0.280000 -1.844000
v 0.329000 0.286000 -1.850000
v 0.335000 0.286000 -1.844000
v 0.329000 0.780000 -1.844000
v 0.335000 0.774000 -1.844000
v 0.329000 0.774000 -1.850000
v 0.591000 0.280000 -1.836000
v 0.591000 0.286000 -1.830000
v 0.585000 0.286000 -1.836000
v 0.591000 0.774000 -1.830000
v 0.591000 0.780000 -1.836000
v 0.585000 0.774000 -1.836000
v 0.591000 0.280000 -1.844000
v 0.585000 0.286000 -1.844000
v 0.591000 0.286000 -1.850000
v 0.591000 0.780000 -1.844000
v 0.591000 0.774000 -1.850000
v 0.585000 0.774000 -1.844000
v 0.629000 0.280000 -1.836000
v 0.635000 0.286000 -1.836000
v 0.629000 0.286000 -1.830000
v 0.629000 0.780000 -1.836000
v 0.629000 0.774000 -1.830000
v 0.635000 0.774000 -1.836000
v 0.629000 0.280000 -1.844000
v 0.629000 0.286000 -1.850000
v 0.635000 0.286000 -1.844000
v 0.629000 0.780000 -1.844000
v 0.635000 0.774000 -1.844000
v 0.629000 0.774000 -1.850000
v 0.891000 0.280000 -1.836000
v 0.891000 0.286000 -1.830000
v 0.885000 0.286000 -1.836000
v 0.891000 0.774000 -1.830000
v 0.891000 0.780000 -1.836000
v 0.885000 0.774000 -1.836000
v 0.891000 0.280000 -1.844000
v 0.885000 0.286000 -1.844000
v 0.891000 0.286000 -1.850000
v 0.891000 0.780000 -1.844000
v 0.891000 0.774000 -1.850000
v 0.885000 0.774000 -1.844000
v 0.929000 0.280000 -1.836000
v 0.935000 0.286000 -1.836000
v 0.929000 0.286000 -1.830000
v 0.929000 0.780000 -1.836000
v 0.929000 0.774000 -1.830000
v 0.935000 0.774000 -1.836000
v 0.929000 0.280000 -1.844000
v 0.929000 0.286000 -1.850000
v 0.935000 0.286000 -1.844000
v 0.929000 0.780000 -1.844000
v 0.935000 0.774000 -1.844000
v 0.929000 0.774000 -1.850000
v 1.191000 0.280000 -1.836000
v 1.191000 0.286000 -1.830000
v 1.185000 0.286000 -1.836000
v 1.191000 0.774000 -1.830000
v 1.191000 0.780000 -1.836000
v 1.185000 0.774000 -1.836000
v 1.191000 0.280000 -1.844000
v 1.185000 0.286000 -1.844000
v 1.191000 0.286000 -1.850000
v 1.191000 0.780000 -1.844000
v 1.191000 0.774000 -1.850000
v 1.185000 0.774000 -1.844000
v 1.229000 0.280000 -1.836000
v 1.235000 0.286000 -1.836000
v 1.229000 0.286000 -1.830000
v 1.229000 0.780000 -1.836000
v 1.229000 0.774000 -1.830000
v 1.235000 0.774000 -1.836000
v 1.229000 0.280000 -1.844000
v 1.229000 0.286000 -1.850000
v 1.235000 0.286000 -1.844000
v 1.229000 0.780000 -1.844000
v 1.235000 0.774000 -1.844000
v 1.229000 0.774000 -1.850000
v -0.058000 -0.140000 0.053000
v -0.058000 -0.128000 0.065000
v -0.070000 -0.128000 0.053000
v -0.058000 0.328000 0.065000
v -0.058000 0.340000 0.053000
v -0.070000 0.328000 0.053000
v -0.058000 -0.140000 0.007000
v -0.070000 -0.128000 0.007000
v -0.058000 -0.128000 -0.005000
v -0.058000 0.340000 0.007000
v -0.058000 0.328000 -0.005000
v -0.070000 0.328000 0.007000
v 1.578000 -0.140000 0.053000
v 1.590000 -0.128000 0.053000
v 1.578000 -0.128000 0.065000
v 1.578000 0.340000 0.053000
v 1.578000 0.328000 0.065000
v 1.590000 0.328000 0.053000
v 1.578000 -0.140000 0.007000
v 1.578000 -0.128000 -0.005000
v 1.590000 -0.128000 0.007000
v 1.578000 0.340000 0.007000
v 1.590000 0.328000 0.007000
v 1.578000 0.328000 -0.005000
v 0.040000 0.180000 -0.090000
v 0.040000 0.230000 -0.040000
v -0.010000 0.230000 -0.090000
v 0.040000 0.330000 -0.040000
v 0.040000 0.380000 -0.090000
v -0.010000 0.330000 -0.090000
v 0.040000 0.180000 -1.810000
v -0.010000 0.230000 -1.810000
v 0.040000 0.230000 -1.860000
v 0.040000 0.380000 -1.810000
v 0.040000 0.330000 -1.860000
v -0.010000 0.330000 -1.810000
v 1.480000 0.180000 -0.090000
v 1.530000 0.230000 -0.090000
v 1.480000 0.230000 -0.040000
v 1.480000 0.380000 -0.090000
v 1.480000 0.330000 -0.040000
v 1.530000 0.330000 -0.090000
v 1.480000 0.180000 -1.810000
v 1.480000 0.230000 -1.860000
v 1.530000 0.230000 -1.810000
v 1.480000 0.380000 -1.810000
v 1.530000 0.330000 -1.810000
v 1.480000 0.330000 -1.860000
v -0.022000 0.360000 -0.038000
v -0.022000 0.378000 -0.020000
v -0.040000 0.378000 -0.038000
v -0.022000 0.402000 -0.020000
v -0.022000 0.420000 -0.038000
v -0.040000 0.402000 -0.038000
v -0.022000 0.360000 -1.178000
v -0.040000 0.378000 -1.178000
v -0.022000 0.378000 -1.196000
v -0.022000 0.420000 -1.178000
v -0.022000 0.402000 -1.196000
v -0.040000 0.402000 -1.178000
v 1.542000 0.360000 -0.038000
v 1.560000 0.378000 -0.038000
v 1.542000 0.378000 -0.020000
v 1.542000 0.420000 -0.038000
v 1.542000 0.402000 -0.020000
v 1.560000 0.402000 -0.038000
v 1.542000 0.360000 -1.178000
v 1.542000 0.378000 -1.196000
v 1.560000 0.378000 -1.178000
v 1.542000 0.420000 -1.178000
v 1.560000 0.402000 -1.178000
v 1.542000 0.402000 -1.196000
v -0.026000 0.360000 -1.130000
v -0.026000 0.384000 -1.106000
v -0.050000 0.384000 -1.130000
v -0.026000 0.416000 -1.106000
v -0.026000 0.440000 -1.130000
v -0.050000 0.416000 -1.130000
v -0.026000 0.360000 -1.202000
v -0.050000 0.384000 -1.202000
v -0.026000 0.384000 -1.226000
v -0.026000 0.440000 -1.202000
v -0.026000 0.416000 -1.226000
v -0.050000 0.416000 -1.202000
v 1.546000 0.360000 -1.130000
v 1.570000 0.384000 -1.130000
v 1.546000 0.384000 -1.106000
v 1.546000 0.440000 -1.130000
v 1.546000 0.416000 -1.106000
v 1.570000 0.416000 -1.130000
v 1.546000 0.360000 -1.202000
v 1.546000 0.384000 -1.226000
v 1.570000 0.384000 -1.202000
v 1.546000 0.440000 -1.202000
v 1.570000 0.416000 -1.202000
v 1.546000 0.416000 -1.226000
v 0.112000 0.380000 -1.442000
v 0.112000 0.422000 -1.400000
v 0.070000 0.422000 -1.442000
v 0.112000 0.478000 -1.400000
v 0.112000 0.520000 -1.442000
v 0.070000 0.478000 -1.442000
v 0.112000 0.380000 -1.738000
v 0.070000 0.422000 -1.738000
v 0.112000 0.422000 -1.780000
v 0.112000 0.520000 -1.738000
v 0.112000 0.478000 -1.780000
v 0.070000 0.478000 -1.738000
v 0.648000 0.380000 -1.442000
v 0.690000 0.422000 -1.442000
v 0.648000 0.422000 -1.400000
v 0.648000 0.520000 -1.442000
v 0.648000 0.478000 -1.400000
v 0.690000 0.478000 -1.442000
v 0.648000 0.380000 -1.738000
v 0.648000 0.422000 -1.780000
v 0.690000 0.422000 -1.738000
v 0.648000 0.520000 -1.738000
v 0.690000 0.478000 -1.738000
v 0.648000 0.478000 -1.780000
v 0.872000 0.380000 -1.442000
v 0.872000 0.422000 -1.400000
v 0.830000 0.422000 -1.442000
v 0.872000 0.478000 -1.400000
v 0.872000 0.520000 -1.442000
v 0.830000 0.478000 -1.442000
v 0.872000 0.380000 -1.738000
v 0.830000 0.422000 -1.738000
v 0.872000 0.422000 -1.780000
v 0.872000 0.520000 -1.738000
v 0.872000 0.478000 -1.780000
v 0.830000 0.478000 -1.738000
v 1.408000 0.380000 -1.442000
v 1.450000 0.422000 -1.442000
v 1.408000 0.422000 -1.400000
v 1.408000 0.520000 -1.442000
v 1.408000 0.478000 -1.400000
v 1.450000 0.478000 -1.442000
v 1.408000 0.380000 -1.738000
v 1.408000 0.422000 -1.780000
v 1.450000 0.422000 -1.738000
v 1.408000 0.520000 -1.738000
v 1.450000 0.478000 -1.738000
v 1.408000 0.478000 -1.780000
vn -0.5774 -0.5774 0.5774
vn -0.5774 0.5774 0.5774
vn -0.5774 -0.5774 -0.5774
vn -0.5774 0.5774 -0.5774
vn 0.5774 -0.5774 0.5774
vn 0.5774 0.5774 0.5774
vn 0.5774 -0.5774 -0.5774
vn 0.5774 0.5774 -0.5774
vn -0.7071 -0.7071 -0.0000
vn -0.7071 -0.0000 0.7071
vn -0.7071 0.7071 -0.0000
vn -0.7071 -0.0000 -0.7071
vn -0.0000 -0.7071 -0.7071
vn -0.0000 0.7071 -0.7071
vn 0.7071 -0.0000 -0.7071
vn 0.7071 -0.7071 -0.0000
vn 0.7071 0.7071 -0.0000
vn 0.7071 -0.0000 0.7071
vn -0.0000 -0.7071 0.7071
vn -0.0000 0.7071 0.7071
vn -0.0000 -1.0000 -0.0000
vn -1.0000 -0.0000 -0.0000
vn -0.0000 -0.0000 1.0000
vn -0.0000 1.0000 -0.0000
vn -0.0000 -0.0000 -1.0000
vn 1.0000 -0.0000 -0.0000
vn -0.5774 -0.5773 0.5774
vn -0.5774 0.5773 0.5774
vn -0.5774 -0.5773 -0.5774
vn -0.5774 0.5773 -0.5774
vn 0.5774 -0.5773 0.5774
vn 0.5774 0.5773 0.5774
vn 0.5774 -0.5773 -0.5774
vn 0.5774 0.5773 -0.5774
vn -0.5773 -0.5773 0.5774
vn -0.5773 0.5773 0.5774
vn -0.5773 -0.5773 -0.5774
vn -0.5773 0.5773 -0.5774
vn 0.5773 -0.5773 0.5774
vn 0.5773 0.5773 0.5774
vn 0.5773 -0.5773 -0.5774
vn 0.5773 0.5773 -0.5774
vn -0.5773 -0.5774 0.5773
vn -0.5774 0.5774 0.5773
vn -0.5774 -0.5774 -0.5773
vn -0.5774 0.5774 -0.5773
vn 0.5774 -0.5774 0.5773
vn 0.5774 0.5774 0.5773
vn 0.5774 -0.5774 -0.5773
vn 0.5774 0.5774 -0.5773
vn -0.5773 -0.5774 0.5774
vn -0.5773 0.5774 0.5774
vn -0.5773 -0.5774 -0.5774
vn -0.5773 0.5774 -0.5774
vn -0.5773 -0.5774 -0.5773
vn 0.5773 -0.5774 0.5774
vn 0.5773 0.5774 0.5774
vn 0.5773 -0.5774 -0.5774
vn 0.5773 0.5774 -0.5774
vn -0.5774 0.5773 0.5773
vn 0.5773 -0.5774 -0.5773
vn -0.5774 -0.5774 0.5773
vn -0.5773 0.5774 -0.5773
vn 0.5773 0.5774 -0.5773
vn -0.5773 0.5774 0.5773
vt 0.031250 0.968750
vt 0.093750 0.968750
vt 0.406250 0.968750
vt 0.531250 0.968750
vt 0.593750 0.968750
vt 0.093750 0.843750
s 0
f 1/1/1 2/1/1 3/1/1
f 4/1/2 5/1/2 6/1/2
f 7/1/3 8/1/3 9/1/3
f 10/1/4 11/1/4 12/1/4
f 13/1/5 14/1/5 15/1/5
f 16/1/6 17/1/6 18/1/6
f 19/1/7 20/1/7 21/1/7
f 22/1/8 23/1/8 24/1/8
f 1/1/9 8/1/9 7/1/9
f 4/1/10 3/1/10 2/1/10
f 10/1/11 6/1/11 5/1/11
f 9/1/12 12/1/12 11/1/12
f 7/1/13 20/1/13 19/1/13
f 22/1/14 11/1/14 10/1/14
f 21/1/15 24/1/15 23/1/15
f 19/1/16 14/1/16 13/1/16
f 16/1/17 23/1/17 22/1/17
f 15/1/18 18/1/18 17/1/18
f 13/1/19 2/1/19 1/1/19
f 5/1/20 17/1/20 16/1/20
f 19/1/21 1/1/21 7/1/21
f 6/1/22 8/1/22 3/1/22
f 17/1/23 2/1/23 15/1/23
f 10/1/24 16/1/24 22/1/24
f 11/1/25 20/1/25 9/1/25
f 23/1/26 14/1/26 21/1/26
f 25/1/27 26/1/27 27/1/27
f 28/1/28 29/1/28 30/1/28
f 31/1/29 32/1/29 33/1/29
f 34/1/30 35/1/30 36/1/30
f 37/1/31 38/1/31 39/1/31
f 40/1/32 41/1/32 42/1/32
f 43/1/33 44/1/33 45/1/33
f 46/1/34 47/1/34 48/1/34
f 25/1/9 32/1/9 31/1/9
f 28/1/10 27/1/10 26/1/10
f 34/1/11 30/1/11 29/1/11
f 33/1/12 36/1/12 35/1/12
f 31/1/13 44/1/13 43/1/13
f 46/1/14 35/1/14 34/1/14
f 45/1/15 48/1/15 47/1/15
f 43/1/16 38/1/16 37/1/16
f 40/1/17 47/1/17 46/1/17
f 39/1/18 42/1/18 41/1/18
f 37/1/19 26/1/19 25/1/19
f 29/1/20 41/1/20 40/1/20
f 43/1/21 25/1/21 31/1/21
f 30/1/22 32/1/22 27/1/22
f 41/1/23 26/1/23 39/1/23
f 34/1/24 40/1/24 46/1/24
f 35/1/25 44/1/25 33/1/25
f 47/1/26 38/1/26 45/1/26
f 49/1/35 50/1/35 51/1/35
f 52/1/36 53/1/36 54/1/36
f 55/1/37 56/1/37 57/1/37
f 58/1/38 59/1/38 60/1/38
f 61/1/39 62/1/39 63/1/39
f 64/1/40 65/1/40 66/1/40
f 67/1/41 68/1/41 69/1/41
f 70/1/42 71/1/42 72/1/42
f 49/1/9 56/1/9 55/1/9
f 52/1/10 51/1/10 50/1/10
f 58/1/11 54/1/11 53/1/11
f 57/1/12 60/1/12 59/1/12
f 55/1/13 68/1/13 67/1/13
f 70/1/14 59/1/14 58/1/14
f 69/1/15 72/1/15 71/1/15
f 67/1/16 62/1/16 61/1/16
f 64/1/17 71/1/17 70/1/17
f 63/1/18 66/1/18 65/1/18
f 61/1/19 50/1/19 49/1/19
f 53/1/20 65/1/20 64/1/20
f 67/1/21 49/1/21 55/1/21
f 54/1/22 56/1/22 51/1/22
f 65/1/23 50/1/23 63/1/23
f 58/1/24 64/1/24 70/1/24
f 59/1/25 68/1/25 57/1/25
f 71/1/26 62/1/26 69/1/26
f 73/1/27 74/1/27 75/1/27
f 76/1/28 77/1/28 78/1/28
f 79/1/29 80/1/29 81/1/29
f 82/1/30 83/1/30 84/1/30
f 85/1/31 86/1/31 87/1/31
f 88/1/32 89/1/32 90/1/32
f 91/1/33 92/1/33 93/1/33
f 94/1/34 95/1/34 96/1/34
f 73/1/9 80/1/9 79/1/9
f 76/1/10 75/1/10 74/1/10
f 82/1/11 78/1/11 77/1/11
f 81/1/12 84/1/12 83/1/12
f 79/1/13 92/1/13 91/1/13
f 94/1/14 83/1/14 82/1/14
f 93/1/15 96/1/15 95/1/15
f 91/1/16 86/1/16 85/1/16
f 88/1/17 95/1/17 94/1/17
f 87/1/18 90/1/18 89/1/18
f 85/1/19 74/1/19 73/1/19
f 77/1/20 89/1/20 88/1/20
f 91/1/21 73/1/21 79/1/21
f 78/1/22 80/1/22 75/1/22
f 89/1/23 74/1/23 87/1/23
f 82/1/24 88/1/24 94/1/24
f 83/1/25 92/1/25 81/1/25
f 95/1/26 86/1/26 93/1/26
f 97/2/43 98/2/43 99/2/43
f 100/2/44 101/2/44 102/2/44
f 103/2/45 104/2/45 105/2/45
f 106/2/46 107/2/46 108/2/46
f 109/2/47 110/2/47 111/2/47
f 112/2/48 113/2/48 114/2/48
f 115/2/49 116/2/49 117/2/49
f 118/2/50 119/2/50 120/2/50
f 97/2/9 104/2/9 103/2/9
f 100/2/10 99/2/10 98/2/10
f 106/2/11 102/2/11 101/2/11
f 105/2/12 108/2/12 107/2/12
f 103/2/13 116/2/13 115/2/13
f 118/2/14 107/2/14 106/2/14
f 117/2/15 120/2/15 119/2/15
f 115/2/16 110/2/16 109/2/16
f 112/2/17 119/2/17 118/2/17
f 111/2/18 114/2/18 113/2/18
f 109/2/19 98/2/19 97/2/19
f 101/2/20 113/2/20 112/2/20
f 115/2/21 97/2/21 103/2/21
f 102/2/22 104/2/22 99/2/22
f 113/2/23 98/2/23 111/2/23
f 106/2/24 112/2/24 118/2/24
f 107/2/25 116/2/25 105/2/25
f 119/2/26 110/2/26 117/2/26
f 121/2/51 122/2/51 123/2/51
f 124/2/52 125/2/52 126/2/52
f 127/2/53 128/2/53 129/2/53
f 130/2/54 131/2/54 132/2/54
f 133/2/47 134/2/47 135/2/47
f 136/2/48 137/2/48 138/2/48
f 139/2/49 140/2/49 141/2/49
f 142/2/50 143/2/50 144/2/50
f 121/2/9 128/2/9 127/2/9
f 124/2/10 123/2/10 122/2/10
f 130/2/11 126/2/11 125/2/11
f 129/2/12 132/2/12 131/2/12
f 127/2/13 140/2/13 139/2/13
f 142/2/14 131/2/14 130/2/14
f 141/2/15 144/2/15 143/2/15
f 139/2/16 134/2/16 133/2/16
f 136/2/17 143/2/17 142/2/17
f 135/2/18 138/2/18 137/2/18
f 133/2/19 122/2/19 121/2/19
f 125/2/20 137/2/20 136/2/20
f 139/2/21 121/2/21 127/2/21
f 126/2/22 128/2/22 123/2/22
f 137/2/23 122/2/23 135/2/23
f 130/2/24 136/2/24 142/2/24
f 131/2/25 140/2/25 129/2/25
f 143/2/26 134/2/26 141/2/26
f 145/1/43 146/1/43 147/1/43
f 148/1/52 149/1/52 150/1/52
f 151/1/55 152/1/55 153/1/55
f 154/1/54 155/1/54 156/1/54
f 157/1/56 158/1/56 159/1/56
f 160/1/57 161/1/57 162/1/57
f 163/1/58 164/1/58 165/1/58
f 166/1/59 167/1/59 168/1/59
f 145/1/9 152/1/9 151/1/9
f 148/1/10 147/1/10 146/1/10
f 154/1/11 150/1/11 149/1/11
f 153/1/12 156/1/12 155/1/12
f 151/1/13 164/1/13 163/1/13
f 166/1/14 155/1/14 154/1/14
f 165/1/15 168/1/15 167/1/15
f 163/1/16 158/1/16 157/1/16
f 160/1/17 167/1/17 166/1/17
f 159/1/18 162/1/18 161/1/18
f 157/1/19 146/1/19 145/1/19
f 149/1/20 161/1/20 160/1/20
f 163/1/21 145/1/21 151/1/21
f 150/1/22 152/1/22 147/1/22
f 161/1/23 146/1/23 159/1/23
f 154/1/24 160/1/24 166/1/24
f 155/1/25 164/1/25 153/1/25
f 167/1/26 158/1/26 165/1/26
f 169/1/27 170/1/27 171/1/27
f 172/1/60 173/1/60 174/1/60
f 175/1/55 176/1/55 177/1/55
f 178/1/46 179/1/46 180/1/46
f 181/1/31 182/1/31 183/1/31
f 184/1/32 185/1/32 186/1/32
f 187/1/61 188/1/61 189/1/61
f 190/1/50 191/1/50 192/1/50
f 169/1/9 176/1/9 175/1/9
f 172/1/10 171/1/10 170/1/10
f 178/1/11 174/1/11 173/1/11
f 177/1/12 180/1/12 179/1/12
f 175/1/13 188/1/13 187/1/13
f 190/1/14 179/1/14 178/1/14
f 189/1/15 192/1/15 191/1/15
f 187/1/16 182/1/16 181/1/16
f 184/1/17 191/1/17 190/1/17
f 183/1/18 186/1/18 185/1/18
f 181/1/19 170/1/19 169/1/19
f 173/1/20 185/1/20 184/1/20
f 187/1/21 169/1/21 175/1/21
f 174/1/22 176/1/22 171/1/22
f 185/1/23 170/1/23 183/1/23
f 178/1/24 184/1/24 190/1/24
f 179/1/25 188/1/25 177/1/25
f 191/1/26 182/1/26 189/1/26
f 193/1/62 194/1/62 195/1/62
f 196/1/44 197/1/44 198/1/44
f 199/1/45 200/1/45 201/1/45
f 202/1/46 203/1/46 204/1/46
f 205/1/47 206/1/47 207/1/47
f 208/1/48 209/1/48 210/1/48
f 211/1/49 212/1/49 213/1/49
f 214/1/50 215/1/50 216/1/50
f 193/1/9 200/1/9 199/1/9
f 196/1/10 195/1/10 194/1/10
f 202/1/11 198/1/11 197/1/11
f 201/1/12 204/1/12 203/1/12
f 199/1/13 212/1/13 211/1/13
f 214/1/14 203/1/14 202/1/14
f 213/1/15 216/1/15 215/1/15
f 211/1/16 206/1/16 205/1/16
f 208/1/17 215/1/17 214/1/17
f 207/1/18 210/1/18 209/1/18
f 205/1/19 194/1/19 193/1/19
f 197/1/20 209/1/20 208/1/20
f 211/1/21 193/1/21 199/1/21
f 198/1/22 200/1/22 195/1/22
f 209/1/23 194/1/23 207/1/23
f 202/1/24 208/1/24 214/1/24
f 203/1/25 212/1/25 201/1/25
f 215/1/26 206/1/26 213/1/26
f 217/1/62 218/1/62 219/1/62
f 220/1/44 221/1/44 222/1/44
f 223/1/45 224/1/45 225/1/45
f 226/1/46 227/1/46 228/1/46
f 229/1/47 230/1/47 231/1/47
f 232/1/48 233/1/48 234/1/48
f 235/1/49 236/1/49 237/1/49
f 238/1/50 239/1/50 240/1/50
f 217/1/9 224/1/9 223/1/9
f 220/1/10 219/1/10 218/1/10
f 226/1/11 222/1/11 221/1/11
f 225/1/12 228/1/12 227/1/12
f 223/1/13 236/1/13 235/1/13
f 238/1/14 227/1/14 226/1/14
f 237/1/15 240/1/15 239/1/15
f 235/1/16 230/1/16 229/1/16
f 232/1/17 239/1/17 238/1/17
f 231/1/18 234/1/18 233/1/18
f 229/1/19 218/1/19 217/1/19
f 221/1/20 233/1/20 232/1/20
f 235/1/21 217/1/21 223/1/21
f 222/1/22 224/1/22 219/1/22
f 233/1/23 218/1/23 231/1/23
f 226/1/24 232/1/24 238/1/24
f 227/1/25 236/1/25 225/1/25
f 239/1/26 230/1/26 237/1/26
f 241/1/27 242/1/27 243/1/27
f 244/1/28 245/1/28 246/1/28
f 247/1/55 248/1/55 249/1/55
f 250/1/46 251/1/46 252/1/46
f 253/1/31 254/1/31 255/1/31
f 256/1/32 257/1/32 258/1/32
f 259/1/61 260/1/61 261/1/61
f 262/1/50 263/1/50 264/1/50
f 241/1/9 248/1/9 247/1/9
f 244/1/10 243/1/10 242/1/10
f 250/1/11 246/1/11 245/1/11
f 249/1/12 252/1/12 251/1/12
f 247/1/13 260/1/13 259/1/13
f 262/1/14 251/1/14 250/1/14
f 261/1/15 264/1/15 263/1/15
f 259/1/16 254/1/16 253/1/16
f 256/1/17 263/1/17 262/1/17
f 255/1/18 258/1/18 257/1/18
f 253/1/19 242/1/19 241/1/19
f 245/1/20 257/1/20 256/1/20
f 259/1/21 241/1/21 247/1/21
f 246/1/22 248/1/22 243/1/22
f 257/1/23 242/1/23 255/1/23
f 250/1/24 256/1/24 262/1/24
f 251/1/25 260/1/25 249/1/25
f 263/1/26 254/1/26 261/1/26
f 265/2/51 266/2/51 267/2/51
f 268/2/52 269/2/52 270/2/52
f 271/2/53 272/2/53 273/2/53
f 274/2/46 275/2/46 276/2/46
f 277/2/47 278/2/47 279/2/47
f 280/2/48 281/2/48 282/2/48
f 283/2/49 284/2/49 285/2/49
f 286/2/50 287/2/50 288/2/50
f 265/2/9 272/2/9 271/2/9
f 268/2/10 267/2/10 266/2/10
f 274/2/11 270/2/11 269/2/11
f 273/2/12 276/2/12 275/2/12
f 271/2/13 284/2/13 283/2/13
f 286/2/14 275/2/14 274/2/14
f 285/2/15 288/2/15 287/2/15
f 283/2/16 278/2/16 277/2/16
f 280/2/17 287/2/17 286/2/17
f 279/2/18 282/2/18 281/2/18
f 277/2/19 266/2/19 265/2/19
f 269/2/20 281/2/20 280/2/20
f 283/2/21 265/2/21 271/2/21
f 270/2/22 272/2/22 267/2/22
f 281/2/23 266/2/23 279/2/23
f 274/2/24 280/2/24 286/2/24
f 275/2/25 284/2/25 273/2/25
f 287/2/26 278/2/26 285/2/26
f 289/3/1 290/3/1 291/3/1
f 292/3/52 293/3/52 294/3/52
f 295/3/55 296/3/55 297/3/55
f 298/3/63 299/3/63 300/3/63
f 301/3/5 302/3/5 303/3/5
f 304/3/6 305/3/6 306/3/6
f 307/3/61 308/3/61 309/3/61
f 310/3/64 311/3/64 312/3/64
f 289/3/9 296/3/9 295/3/9
f 292/3/10 291/3/10 290/3/10
f 298/3/11 294/3/11 293/3/11
f 297/3/12 300/3/12 299/3/12
f 295/3/13 308/3/13 307/3/13
f 310/3/14 299/3/14 298/3/14
f 309/3/15 312/3/15 311/3/15
f 307/3/16 302/3/16 301/3/16
f 304/3/17 311/3/17 310/3/17
f 305/3/18 302/3/18 306/3/18
f 301/3/19 290/3/19 289/3/19
f 293/3/20 305/3/20 304/3/20
f 307/3/21 289/3/21 295/3/21
f 294/3/22 296/3/22 291/3/22
f 305/3/23 290/3/23 303/3/23
f 298/3/24 304/3/24 310/3/24
f 299/3/25 308/3/25 297/3/25
f 311/3/26 302/3/26 309/3/26
f 313/4/27 314/4/27 315/4/27
f 316/4/52 317/4/52 318/4/52
f 319/4/45 320/4/45 321/4/45
f 322/4/46 323/4/46 324/4/46
f 325/4/31 326/4/31 327/4/31
f 328/4/32 329/4/32 330/4/32
f 331/4/49 332/4/49 333/4/49
f 334/4/50 335/4/50 336/4/50
f 313/4/9 320/4/9 319/4/9
f 316/4/10 315/4/10 314/4/10
f 322/4/11 318/4/11 317/4/11
f 321/4/12 324/4/12 323/4/12
f 319/4/13 332/4/13 331/4/13
f 334/4/14 323/4/14 322/4/14
f 333/4/15 336/4/15 335/4/15
f 331/4/16 326/4/16 325/4/16
f 328/4/17 335/4/17 334/4/17
f 327/4/18 330/4/18 329/4/18
f 325/4/19 314/4/19 313/4/19
f 317/4/20 329/4/20 328/4/20
f 331/4/21 313/4/21 319/4/21
f 318/4/22 320/4/22 315/4/22
f 329/4/23 314/4/23 327/4/23
f 322/4/24 328/4/24 334/4/24
f 323/4/25 332/4/25 321/4/25
f 335/4/26 326/4/26 333/4/26
f 337/5/35 338/5/35 339/5/35
f 340/5/36 341/5/36 342/5/36
f 343/5/53 344/5/53 345/5/53
f 346/5/54 347/5/54 348/5/54
f 349/5/5 350/5/5 351/5/5
f 352/5/6 353/5/6 354/5/6
f 355/5/7 356/5/7 357/5/7
f 358/5/8 359/5/8 360/5/8
f 337/5/9 344/5/9 343/5/9
f 340/5/10 339/5/10 338/5/10
f 346/5/11 342/5/11 341/5/11
f 345/5/12 348/5/12 347/5/12
f 343/5/13 356/5/13 355/5/13
f 358/5/14 347/5/14 346/5/14
f 357/5/15 360/5/15 359/5/15
f 355/5/16 350/5/16 349/5/16
f 352/5/17 359/5/17 358/5/17
f 351/5/18 354/5/18 353/5/18
f 349/5/19 338/5/19 337/5/19
f 341/5/20 353/5/20 352/5/20
f 355/5/21 337/5/21 343/5/21
f 342/5/22 344/5/22 339/5/22
f 353/5/23 338/5/23 351/5/23
f 346/5/24 352/5/24 358/5/24
f 347/5/25 356/5/25 345/5/25
f 359/5/26 350/5/26 357/5/26
f 361/6/43 362/6/43 363/6/43
f 364/6/65 365/6/65 366/6/65
f 367/6/55 368/6/55 369/6/55
f 370/6/63 371/6/63 372/6/63
f 373/6/56 374/6/56 375/6/56
f 376/6/57 377/6/57 378/6/57
f 379/6/61 380/6/61 381/6/61
f 382/6/64 383/6/64 384/6/64
f 361/6/9 368/6/9 367/6/9
f 364/6/10 363/6/10 362/6/10
f 370/6/11 366/6/11 365/6/11
f 369/6/12 372/6/12 371/6/12
f 367/6/13 380/6/13 379/6/13
f 382/6/14 371/6/14 370/6/14
f 381/6/15 384/6/15 383/6/15
f 379/6/16 374/6/16 373/6/16
f 376/6/17 383/6/17 382/6/17
f 375/6/18 378/6/18 377/6/18
f 373/6/19 362/6/19 361/6/19
f 365/6/20 377/6/20 376/6/20
f 379/6/21 361/6/21 367/6/21
f 366/6/22 368/6/22 363/6/22
f 377/6/23 362/6/23 375/6/23
f 370/6/24 376/6/24 382/6/24
f 371/6/25 380/6/25 369/6/25
f 383/6/26 374/6/26 381/6/26
f 385/6/43 386/6/43 387/6/43
f 388/6/65 389/6/65 390/6/65
f 391/6/55 392/6/55 393/6/55
f 394/6/63 395/6/63 396/6/63
f 397/6/56 398/6/56 399/6/56
f 400/6/57 401/6/57 402/6/57
f 403/6/58 404/6/58 405/6/58
f 406/6/59 407/6/59 408/6/59
f 385/6/9 392/6/9 391/6/9
f 388/6/10 387/6/10 386/6/10
f 394/6/11 390/6/11 389/6/11
f 393/6/12 396/6/12 395/6/12
f 391/6/13 404/6/13 403/6/13
f 406/6/14 395/6/14 394/6/14
f 405/6/15 408/6/15 407/6/15
f 403/6/16 398/6/16 397/6/16
f 400/6/17 407/6/17 406/6/17
f 399/6/18 402/6/18 401/6/18
f 397/6/19 386/6/19 385/6/19
f 389/6/20 401/6/20 400/6/20
f 403/6/21 385/6/21 391/6/21
f 390/6/22 392/6/22 387/6/22
f 401/6/23 386/6/23 399/6/23
f 394/6/24 400/6/24 406/6/24
f 395/6/25 404/6/25 393/6/25
f 407/6/26 398/6/26 405/6/26
f 1/1/9 3/1/9 8/1/9
f 4/1/10 6/1/10 3/1/10
f 10/1/11 12/1/11 6/1/11
f 9/1/12 8/1/12 12/1/12
f 7/1/13 9/1/13 20/1/13
f 22/1/14 24/1/14 11/1/14
f 21/1/15 20/1/15 24/1/15
f 19/1/16 21/1/16 14/1/16
f 16/1/17 18/1/17 23/1/17
f 15/1/18 14/1/18 18/1/18
f 13/1/19 15/1/19 2/1/19
f 5/1/20 4/1/20 17/1/20
f 19/1/21 13/1/21 1/1/21
f 6/1/22 12/1/22 8/1/22
f 17/1/23 4/1/23 2/1/23
f 10/1/24 5/1/24 16/1/24
f 11/1/25 24/1/25 20/1/25
f 23/1/26 18/1/26 14/1/26
f 25/1/9 27/1/9 32/1/9
f 28/1/10 30/1/10 27/1/10
f 34/1/11 36/1/11 30/1/11
f 33/1/12 32/1/12 36/1/12
f 31/1/13 33/1/13 44/1/13
f 46/1/14 48/1/14 35/1/14
f 45/1/15 44/1/15 48/1/15
f 43/1/16 45/1/16 38/1/16
f 40/1/17 42/1/17 47/1/17
f 39/1/18 38/1/18 42/1/18
f 37/1/19 39/1/19 26/1/19
f 29/1/20 28/1/20 41/1/20
f 43/1/21 37/1/21 25/1/21
f 30/1/22 36/1/22 32/1/22
f 41/1/23 28/1/23 26/1/23
f 34/1/24 29/1/24 40/1/24
f 35/1/25 48/1/25 44/1/25
f 47/1/26 42/1/26 38/1/26
f 49/1/9 51/1/9 56/1/9
f 52/1/10 54/1/10 51/1/10
f 58/1/11 60/1/11 54/1/11
f 57/1/12 56/1/12 60/1/12
f 55/1/13 57/1/13 68/1/13
f 70/1/14 72/1/14 59/1/14
f 69/1/15 68/1/15 72/1/15
f 67/1/16 69/1/16 62/1/16
f 64/1/17 66/1/17 71/1/17
f 63/1/18 62/1/18 66/1/18
f 61/1/19 63/1/19 50/1/19
f 53/1/20 52/1/20 65/1/20
f 67/1/21 61/1/21 49/1/21
f 54/1/22 60/1/22 56/1/22
f 65/1/23 52/1/23 50/1/23
f 58/1/24 53/1/24 64/1/24
f 59/1/25 72/1/25 68/1/25
f 71/1/26 66/1/26 62/1/26
f 73/1/9 75/1/9 80/1/9
f 76/1/10 78/1/10 75/1/10
f 82/1/11 84/1/11 78/1/11
f 81/1/12 80/1/12 84/1/12
f 79/1/13 81/1/13 92/1/13
f 94/1/14 96/1/14 83/1/14
f 93/1/15 92/1/15 96/1/15
f 91/1/16 93/1/16 86/1/16
f 88/1/17 90/1/17 95/1/17
f 87/1/18 86/1/18 90/1/18
f 85/1/19 87/1/19 74/1/19
f 77/1/20 76/1/20 89/1/20
f 91/1/21 85/1/21 73/1/21
f 78/1/22 84/1/22 80/1/22
f 89/1/23 76/1/23 74/1/23
f 82/1/24 77/1/24 88/1/24
f 83/1/25 96/1/25 92/1/25
f 95/1/26 90/1/26 86/1/26
f 97/2/9 99/2/9 104/2/9
f 100/2/10 102/2/10 99/2/10
f 106/2/11 108/2/11 102/2/11
f 105/2/12 104/2/12 108/2/12
f 103/2/13 105/2/13 116/2/13
f 118/2/14 120/2/14 107/2/14
f 117/2/15 116/2/15 120/2/15
f 115/2/16 117/2/16 110/2/16
f 112/2/17 114/2/17 119/2/17
f 111/2/18 110/2/18 114/2/18
f 109/2/19 111/2/19 98/2/19
f 101/2/20 100/2/20 113/2/20
f 115/2/21 109/2/21 97/2/21
f 102/2/22 108/2/22 104/2/22
f 113/2/23 100/2/23 98/2/23
f 106/2/24 101/2/24 112/2/24
f 107/2/25 120/2/25 116/2/25
f 119/2/26 114/2/26 110/2/26
f 121/2/9 123/2/9 128/2/9
f 124/2/10 126/2/10 123/2/10
f 130/2/11 132/2/11 126/2/11
f 129/2/12 128/2/12 132/2/12
f 127/2/13 129/2/13 140/2/13
f 142/2/14 144/2/14 131/2/14
f 141/2/15 140/2/15 144/2/15
f 139/2/16 141/2/16 134/2/16
f 136/2/17 138/2/17 143/2/17
f 135/2/18 134/2/18 138/2/18
f 133/2/19 135/2/19 122/2/19
f 125/2/20 124/2/20 137/2/20
f 139/2/21 133/2/21 121/2/21
f 126/2/22 132/2/22 128/2/22
f 137/2/23 124/2/23 122/2/23
f 130/2/24 125/2/24 136/2/24
f 131/2/25 144/2/25 140/2/25
f 143/2/26 138/2/26 134/2/26
f 145/1/9 147/1/9 152/1/9
f 148/1/10 150/1/10 147/1/10
f 154/1/11 156/1/11 150/1/11
f 153/1/12 152/1/12 156/1/12
f 151/1/13 153/1/13 164/1/13
f 166/1/14 168/1/14 155/1/14
f 165/1/15 164/1/15 168/1/15
f 163/1/16 165/1/16 158/1/16
f 160/1/17 162/1/17 167/1/17
f 159/1/18 158/1/18 162/1/18
f 157/1/19 159/1/19 146/1/19
f 149/1/20 148/1/20 161/1/20
f 163/1/21 157/1/21 145/1/21
f 150/1/22 156/1/22 152/1/22
f 161/1/23 148/1/23 146/1/23
f 154/1/24 149/1/24 160/1/24
f 155/1/25 168/1/25 164/1/25
f 167/1/26 162/1/26 158/1/26
f 169/1/9 171/1/9 176/1/9
f 172/1/10 174/1/10 171/1/10
f 178/1/11 180/1/11 174/1/11
f 177/1/12 176/1/12 180/1/12
f 175/1/13 177/1/13 188/1/13
f 190/1/14 192/1/14 179/1/14
f 189/1/15 188/1/15 192/1/15
f 187/1/16 189/1/16 182/1/16
f 184/1/17 186/1/17 191/1/17
f 183/1/18 182/1/18 186/1/18
f 181/1/19 183/1/19 170/1/19
f 173/1/20 172/1/20 185/1/20
f 187/1/21 181/1/21 169/1/21
f 174/1/22 180/1/22 176/1/22
f 185/1/23 172/1/23 170/1/23
f 178/1/24 173/1/24 184/1/24
f 179/1/25 192/1/25 188/1/25
f 191/1/26 186/1/26 182/1/26
f 193/1/9 195/1/9 200/1/9
f 196/1/10 198/1/10 195/1/10
f 202/1/11 204/1/11 198/1/11
f 201/1/12 200/1/12 204/1/12
f 199/1/13 201/1/13 212/1/13
f 214/1/14 216/1/14 203/1/14
f 213/1/15 212/1/15 216/1/15
f 211/1/16 213/1/16 206/1/16
f 208/1/17 210/1/17 215/1/17
f 207/1/18 206/1/18 210/1/18
f 205/1/19 207/1/19 194/1/19
f 197/1/20 196/1/20 209/1/20
f 211/1/21 205/1/21 193/1/21
f 198/1/22 204/1/22 200/1/22
f 209/1/23 196/1/23 194/1/23
f 202/1/24 197/1/24 208/1/24
f 203/1/25 216/1/25 212/1/25
f 215/1/26 210/1/26 206/1/26
f 217/1/9 219/1/9 224/1/9
f 220/1/10 222/1/10 219/1/10
f 226/1/11 228/1/11 222/1/11
f 225/1/12 224/1/12 228/1/12
f 223/1/13 225/1/13 236/1/13
f 238/1/14 240/1/14 227/1/14
f 237/1/15 236/1/15 240/1/15
f 235/1/16 237/1/16 230/1/16
f 232/1/17 234/1/17 239/1/17
f 231/1/18 230/1/18 234/1/18
f 229/1/19 231/1/19 218/1/19
f 221/1/20 220/1/20 233/1/20
f 235/1/21 229/1/21 217/1/21
f 222/1/22 228/1/22 224/1/22
f 233/1/23 220/1/23 218/1/23
f 226/1/24 221/1/24 232/1/24
f 227/1/25 240/1/25 236/1/25
f 239/1/26 234/1/26 230/1/26
f 241/1/9 243/1/9 248/1/9
f 244/1/10 246/1/10 243/1/10
f 250/1/11 252/1/11 246/1/11
f 249/1/12 248/1/12 252/1/12
f 247/1/13 249/1/13 260/1/13
f 262/1/14 264/1/14 251/1/14
f 261/1/15 260/1/15 264/1/15
f 259/1/16 261/1/16 254/1/16
f 256/1/17 258/1/17 263/1/17
f 255/1/18 254/1/18 258/1/18
f 253/1/19 255/1/19 242/1/19
f 245/1/20 244/1/20 257/1/20
f 259/1/21 253/1/21 241/1/21
f 246/1/22 252/1/22 248/1/22
f 257/1/23 244/1/23 242/1/23
f 250/1/24 245/1/24 256/1/24
f 251/1/25 264/1/25 260/1/25
f 263/1/26 258/1/26 254/1/26
f 265/2/9 267/2/9 272/2/9
f 268/2/10 270/2/10 267/2/10
f 274/2/11 276/2/11 270/2/11
f 273/2/12 272/2/12 276/2/12
f 271/2/13 273/2/13 284/2/13
f 286/2/14 288/2/14 275/2/14
f 285/2/15 284/2/15 288/2/15
f 283/2/16 285/2/16 278/2/16
f 280/2/17 282/2/17 287/2/17
f 279/2/18 278/2/18 282/2/18
f 277/2/19 279/2/19 266/2/19
f 269/2/20 268/2/20 281/2/20
f 283/2/21 277/2/21 265/2/21
f 270/2/22 276/2/22 272/2/22
f 281/2/23 268/2/23 266/2/23
f 274/2/24 269/2/24 280/2/24
f 275/2/25 288/2/25 284/2/25
f 287/2/26 282/2/26 278/2/26
f 289/3/9 291/3/9 296/3/9
f 292/3/10 294/3/10 291/3/10
f 298/3/11 300/3/11 294/3/11
f 297/3/12 296/3/12 300/3/12
f 295/3/13 297/3/13 308/3/13
f 310/3/14 312/3/14 299/3/14
f 309/3/15 308/3/15 312/3/15
f 307/3/16 309/3/16 302/3/16
f 304/3/17 306/3/17 311/3/17
f 305/3/18 303/3/18 302/3/18
f 301/3/19 303/3/19 290/3/19
f 293/3/20 292/3/20 305/3/20
f 307/3/21 301/3/21 289/3/21
f 294/3/22 300/3/22 296/3/22
f 305/3/23 292/3/23 290/3/23
f 298/3/24 293/3/24 304/3/24
f 299/3/25 312/3/25 308/3/25
f 311/3/26 306/3/26 302/3/26
f 313/4/9 315/4/9 320/4/9
f 316/4/10 318/4/10 315/4/10
f 322/4/11 324/4/11 318/4/11
f 321/4/12 320/4/12 324/4/12
f 319/4/13 321/4/13 332/4/13
f 334/4/14 336/4/14 323/4/14
f 333/4/15 332/4/15 336/4/15
f 331/4/16 333/4/16 326/4/16
f 328/4/17 330/4/17 335/4/17
f 327/4/18 326/4/18 330/4/18
f 325/4/19 327/4/19 314/4/19
f 317/4/20 316/4/20 329/4/20
f 331/4/21 325/4/21 313/4/21
f 318/4/22 324/4/22 320/4/22
f 329/4/23 316/4/23 314/4/23
f 322/4/24 317/4/24 328/4/24
f 323/4/25 336/4/25 332/4/25
f 335/4/26 330/4/26 326/4/26
f 337/5/9 339/5/9 344/5/9
f 340/5/10 342/5/10 339/5/10
f 346/5/11 348/5/11 342/5/11
f 345/5/12 344/5/12 348/5/12
f 343/5/13 345/5/13 356/5/13
f 358/5/14 360/5/14 347/5/14
f 357/5/15 356/5/15 360/5/15
f 355/5/16 357/5/16 350/5/16
f 352/5/17 354/5/17 359/5/17
f 351/5/18 350/5/18 354/5/18
f 349/5/19 351/5/19 338/5/19
f 341/5/20 340/5/20 353/5/20
f 355/5/21 349/5/21 337/5/21
f 342/5/22 348/5/22 344/5/22
f 353/5/23 340/5/23 338/5/23
f 346/5/24 341/5/24 352/5/24
f 347/5/25 360/5/25 356/5/25
f 359/5/26 354/5/26 350/5/26
f 361/6/9 363/6/9 368/6/9
f 364/6/10 366/6/10 363/6/10
f 370/6/11 372/6/11 366/6/11
f 369/6/12 368/6/12 372/6/12
f 367/6/13 369/6/13 380/6/13
f 382/6/14 384/6/14 371/6/14
f 381/6/15 380/6/15 384/6/15
f 379/6/16 381/6/16 374/6/16
f 376/6/17 378/6/17 383/6/17
f 375/6/18 374/6/18 378/6/18
f 373/6/19 375/6/19 362/6/19
f 365/6/20 364/6/20 377/6/20
f 379/6/21 373/6/21 361/6/21
f 366/6/22 372/6/22 368/6/22
f 377/6/23 364/6/23 362/6/23
f 370/6/24 365/6/24 376/6/24
f 371/6/25 384/6/25 380/6/25
f 383/6/26 378/6/26 374/6/26
f 385/6/9 387/6/9 392/6/9
f 388/6/10 390/6/10 387/6/10
f 394/6/11 396/6/11 390/6/11
f 393/6/12 392/6/12 396/6/12
f 391/6/13 393/6/13 404/6/13
f 406/6/14 408/6/14 395/6/14
f 405/6/15 404/6/15 408/6/15
f 403/6/16 405/6/16 398/6/16
f 400/6/17 402/6/17 407/6/17
f 399/6/18 398/6/18 402/6/18
f 397/6/19 399/6/19 386/6/19
f 389/6/20 388/6/20 401/6/20
f 403/6/21 397/6/21 385/6/21
f 390/6/22 396/6/22 392/6/22
f 401/6/23 388/6/23 386/6/23
f 394/6/24 389/6/24 400/6/24
f 395/6/25 408/6/25 404/6/25
f 407/6/26 402/6/26 398/6/26
