# Blender 5.1.1
# www.blender.org
o konter
v -1.000000 -0.450000 0.330000
v -1.000000 0.450000 0.330000
v -1.000000 -0.450000 -0.330000
v -1.000000 0.450000 -0.330000
v 1.000000 -0.450000 0.330000
v 1.000000 0.450000 0.330000
v 1.000000 -0.450000 -0.330000
v 1.000000 0.450000 -0.330000
v -0.962000 -0.330000 0.367000
v -0.962000 -0.322000 0.375000
v -0.970000 -0.322000 0.367000
v -0.962000 0.362000 0.375000
v -0.962000 0.370000 0.367000
v -0.970000 0.362000 0.367000
v -0.962000 -0.330000 0.353000
v -0.970000 -0.322000 0.353000
v -0.962000 -0.322000 0.345000
v -0.962000 0.370000 0.353000
v -0.962000 0.362000 0.345000
v -0.970000 0.362000 0.353000
v -0.638000 -0.330000 0.367000
v -0.630000 -0.322000 0.367000
v -0.638000 -0.322000 0.375000
v -0.638000 0.370000 0.367000
v -0.638000 0.362000 0.375000
v -0.630000 0.362000 0.367000
v -0.638000 -0.330000 0.353000
v -0.638000 -0.322000 0.345000
v -0.630000 -0.322000 0.353000
v -0.638000 0.370000 0.353000
v -0.630000 0.362000 0.353000
v -0.638000 0.362000 0.345000
v -0.562000 -0.330000 0.367000
v -0.562000 -0.322000 0.375000
v -0.570000 -0.322000 0.367000
v -0.562000 0.362000 0.375000
v -0.562000 0.370000 0.367000
v -0.570000 0.362000 0.367000
v -0.562000 -0.330000 0.353000
v -0.570000 -0.322000 0.353000
v -0.562000 -0.322000 0.345000
v -0.562000 0.370000 0.353000
v -0.562000 0.362000 0.345000
v -0.570000 0.362000 0.353000
v -0.238000 -0.330000 0.367000
v -0.230000 -0.322000 0.367000
v -0.238000 -0.322000 0.375000
v -0.238000 0.370000 0.367000
v -0.238000 0.362000 0.375000
v -0.230000 0.362000 0.367000
v -0.238000 -0.330000 0.353000
v -0.238000 -0.322000 0.345000
v -0.230000 -0.322000 0.353000
v -0.238000 0.370000 0.353000
v -0.230000 0.362000 0.353000
v -0.238000 0.362000 0.345000
v -0.162000 -0.330000 0.367000
v -0.162000 -0.322000 0.375000
v -0.170000 -0.322000 0.367000
v -0.162000 0.362000 0.375000
v -0.162000 0.370000 0.367000
v -0.170000 0.362000 0.367000
v -0.162000 -0.330000 0.353000
v -0.170000 -0.322000 0.353000
v -0.162000 -0.322000 0.345000
v -0.162000 0.370000 0.353000
v -0.162000 0.362000 0.345000
v -0.170000 0.362000 0.353000
v 0.162000 -0.330000 0.367000
v 0.170000 -0.322000 0.367000
v 0.162000 -0.322000 0.375000
v 0.162000 0.370000 0.367000
v 0.162000 0.362000 0.375000
v 0.170000 0.362000 0.367000
v 0.162000 -0.330000 0.353000
v 0.162000 -0.322000 0.345000
v 0.170000 -0.322000 0.353000
v 0.162000 0.370000 0.353000
v 0.170000 0.362000 0.353000
v 0.162000 0.362000 0.345000
v 0.238000 -0.330000 0.367000
v 0.238000 -0.322000 0.375000
v 0.230000 -0.322000 0.367000
v 0.238000 0.362000 0.375000
v 0.238000 0.370000 0.367000
v 0.230000 0.362000 0.367000
v 0.238000 -0.330000 0.353000
v 0.230000 -0.322000 0.353000
v 0.238000 -0.322000 0.345000
v 0.238000 0.370000 0.353000
v 0.238000 0.362000 0.345000
v 0.230000 0.362000 0.353000
v 0.562000 -0.330000 0.367000
v 0.570000 -0.322000 0.367000
v 0.562000 -0.322000 0.375000
v 0.562000 0.370000 0.367000
v 0.562000 0.362000 0.375000
v 0.570000 0.362000 0.367000
v 0.562000 -0.330000 0.353000
v 0.562000 -0.322000 0.345000
v 0.570000 -0.322000 0.353000
v 0.562000 0.370000 0.353000
v 0.570000 0.362000 0.353000
v 0.562000 0.362000 0.345000
v 0.638000 -0.330000 0.367000
v 0.638000 -0.322000 0.375000
v 0.630000 -0.322000 0.367000
v 0.638000 0.362000 0.375000
v 0.638000 0.370000 0.367000
v 0.630000 0.362000 0.367000
v 0.638000 -0.330000 0.353000
v 0.630000 -0.322000 0.353000
v 0.638000 -0.322000 0.345000
v 0.638000 0.370000 0.353000
v 0.638000 0.362000 0.345000
v 0.630000 0.362000 0.353000
v 0.962000 -0.330000 0.367000
v 0.970000 -0.322000 0.367000
v 0.962000 -0.322000 0.375000
v 0.962000 0.370000 0.367000
v 0.962000 0.362000 0.375000
v 0.970000 0.362000 0.367000
v 0.962000 -0.330000 0.353000
v 0.962000 -0.322000 0.345000
v 0.970000 -0.322000 0.353000
v 0.962000 0.370000 0.353000
v 0.970000 0.362000 0.353000
v 0.962000 0.362000 0.345000
v -1.000000 0.450000 0.390000
v -1.000000 0.500000 0.390000
v -1.000000 0.450000 -0.330000
v -1.000000 0.500000 -0.330000
v 1.000000 0.450000 0.390000
v 1.000000 0.500000 0.390000
v 1.000000 0.450000 -0.330000
v 1.000000 0.500000 -0.330000
v -0.988000 -0.450000 0.378000
v -0.988000 -0.438000 0.390000
v -1.000000 -0.438000 0.378000
v -0.988000 -0.362000 0.390000
v -0.988000 -0.350000 0.378000
v -1.000000 -0.362000 0.378000
v -0.988000 -0.450000 0.322000
v -1.000000 -0.438000 0.322000
v -0.988000 -0.438000 0.310000
v -0.988000 -0.350000 0.322000
v -0.988000 -0.362000 0.310000
v -1.000000 -0.362000 0.322000
v 0.988000 -0.450000 0.378000
v 1.000000 -0.438000 0.378000
v 0.988000 -0.438000 0.390000
v 0.988000 -0.350000 0.378000
v 0.988000 -0.362000 0.390000
v 1.000000 -0.362000 0.378000
v 0.988000 -0.450000 0.322000
v 0.988000 -0.438000 0.310000
v 1.000000 -0.438000 0.322000
v 0.988000 -0.350000 0.322000
v 1.000000 -0.362000 0.322000
v 0.988000 -0.362000 0.310000
vn -1.0000 -0.0000 -0.0000
vn -0.0000 -0.0000 -1.0000
vn 1.0000 -0.0000 -0.0000
vn -0.0000 -0.0000 1.0000
vn -0.0000 -1.0000 -0.0000
vn -0.0000 1.0000 -0.0000
vn -0.5773 -0.5773 0.5774
vn -0.5773 0.5773 0.5774
vn -0.5773 -0.5774 -0.5774
vn -0.5773 0.5774 -0.5774
vn 0.5774 -0.5774 0.5774
vn 0.5774 0.5774 0.5774
vn 0.5773 -0.5774 -0.5773
vn 0.5773 0.5774 -0.5773
vn -0.7071 -0.7071 -0.0000
vn -0.7071 -0.0000 0.7071
vn -0.7071 0.7071 -0.0000
vn -0.7071 -0.0000 -0.7071
vn -0.0000 -0.7071 -0.7071
vn -0.0000 0.7071 -0.7071
vn 0.7071 -0.0000 -0.7071
vn 0.7071 -0.7071 -0.0000
vn 0.7071 0.7071 -0.0000
vn 0.7071 -0.0000 0.7071
vn -0.0000 -0.7071 0.7071
vn -0.0000 0.7071 0.7071
vn -0.5774 -0.5774 0.5773
vn -0.5774 0.5774 0.5773
vn -0.5774 -0.5774 -0.5773
vn -0.5774 0.5774 -0.5773
vn 0.5773 -0.5773 0.5774
vn 0.5773 0.5773 0.5774
vn 0.5773 -0.5773 -0.5774
vn 0.5773 0.5773 -0.5774
vn -0.5773 -0.5773 -0.5774
vn -0.5773 0.5773 -0.5774
vn 0.5774 -0.5774 0.5773
vn 0.5774 0.5774 0.5773
vn 0.5774 -0.5774 -0.5773
vn 0.5774 0.5774 -0.5773
vn -0.5774 -0.5774 0.5774
vn -0.5774 0.5774 0.5774
vn -0.5773 -0.5774 -0.5773
vn -0.5773 0.5774 -0.5773
vn 0.5773 -0.5774 -0.5774
vn 0.5773 0.5774 -0.5774
vt 0.031250 0.968750
vt 0.093750 0.968750
vt 0.156250 0.968750
s 0
f 2/1/1 3/1/1 1/1/1
f 4/1/2 7/1/2 3/1/2
f 8/1/3 5/1/3 7/1/3
f 6/1/4 1/1/4 5/1/4
f 7/1/5 1/1/5 3/1/5
f 4/1/6 6/1/6 8/1/6
f 9/2/7 10/2/7 11/2/7
f 12/2/8 13/2/8 14/2/8
f 15/2/9 16/2/9 17/2/9
f 18/2/10 19/2/10 20/2/10
f 21/2/11 22/2/11 23/2/11
f 24/2/12 25/2/12 26/2/12
f 27/2/13 28/2/13 29/2/13
f 30/2/14 31/2/14 32/2/14
f 9/2/15 16/2/15 15/2/15
f 12/2/16 11/2/16 10/2/16
f 18/2/17 14/2/17 13/2/17
f 17/2/18 20/2/18 19/2/18
f 15/2/19 28/2/19 27/2/19
f 30/2/20 19/2/20 18/2/20
f 29/2/21 32/2/21 31/2/21
f 27/2/22 22/2/22 21/2/22
f 24/2/23 31/2/23 30/2/23
f 23/2/24 26/2/24 25/2/24
f 21/2/25 10/2/25 9/2/25
f 13/2/26 25/2/26 24/2/26
f 27/2/5 9/2/5 15/2/5
f 14/2/1 16/2/1 11/2/1
f 25/2/4 10/2/4 23/2/4
f 18/2/6 24/2/6 30/2/6
f 19/2/2 28/2/2 17/2/2
f 31/2/3 22/2/3 29/2/3
f 33/2/27 34/2/27 35/2/27
f 36/2/28 37/2/28 38/2/28
f 39/2/29 40/2/29 41/2/29
f 42/2/30 43/2/30 44/2/30
f 45/2/31 46/2/31 47/2/31
f 48/2/32 49/2/32 50/2/32
f 51/2/33 52/2/33 53/2/33
f 54/2/34 55/2/34 56/2/34
f 33/2/15 40/2/15 39/2/15
f 36/2/16 35/2/16 34/2/16
f 42/2/17 38/2/17 37/2/17
f 41/2/18 44/2/18 43/2/18
f 39/2/19 52/2/19 51/2/19
f 54/2/20 43/2/20 42/2/20
f 53/2/21 56/2/21 55/2/21
f 51/2/22 46/2/22 45/2/22
f 48/2/23 55/2/23 54/2/23
f 47/2/24 50/2/24 49/2/24
f 45/2/25 34/2/25 33/2/25
f 37/2/26 49/2/26 48/2/26
f 51/2/5 33/2/5 39/2/5
f 38/2/1 40/2/1 35/2/1
f 49/2/4 34/2/4 47/2/4
f 42/2/6 48/2/6 54/2/6
f 43/2/2 52/2/2 41/2/2
f 55/2/3 46/2/3 53/2/3
f 57/2/7 58/2/7 59/2/7
f 60/2/8 61/2/8 62/2/8
f 63/2/35 64/2/35 65/2/35
f 66/2/36 67/2/36 68/2/36
f 69/2/31 70/2/31 71/2/31
f 72/2/32 73/2/32 74/2/32
f 75/2/33 76/2/33 77/2/33
f 78/2/34 79/2/34 80/2/34
f 57/2/15 64/2/15 63/2/15
f 60/2/16 59/2/16 58/2/16
f 66/2/17 62/2/17 61/2/17
f 65/2/18 68/2/18 67/2/18
f 63/2/19 76/2/19 75/2/19
f 78/2/20 67/2/20 66/2/20
f 77/2/21 80/2/21 79/2/21
f 75/2/22 70/2/22 69/2/22
f 72/2/23 79/2/23 78/2/23
f 71/2/24 74/2/24 73/2/24
f 69/2/25 58/2/25 57/2/25
f 61/2/26 73/2/26 72/2/26
f 75/2/5 57/2/5 63/2/5
f 62/2/1 64/2/1 59/2/1
f 73/2/4 58/2/4 71/2/4
f 66/2/6 72/2/6 78/2/6
f 67/2/2 76/2/2 65/2/2
f 79/2/3 70/2/3 77/2/3
f 81/2/7 82/2/7 83/2/7
f 84/2/8 85/2/8 86/2/8
f 87/2/35 88/2/35 89/2/35
f 90/2/36 91/2/36 92/2/36
f 93/2/37 94/2/37 95/2/37
f 96/2/38 97/2/38 98/2/38
f 99/2/39 100/2/39 101/2/39
f 102/2/40 103/2/40 104/2/40
f 81/2/15 88/2/15 87/2/15
f 84/2/16 83/2/16 82/2/16
f 90/2/17 86/2/17 85/2/17
f 89/2/18 92/2/18 91/2/18
f 87/2/19 100/2/19 99/2/19
f 102/2/20 91/2/20 90/2/20
f 101/2/21 104/2/21 103/2/21
f 99/2/22 94/2/22 93/2/22
f 96/2/23 103/2/23 102/2/23
f 95/2/24 98/2/24 97/2/24
f 93/2/25 82/2/25 81/2/25
f 85/2/26 97/2/26 96/2/26
f 99/2/5 81/2/5 87/2/5
f 86/2/1 88/2/1 83/2/1
f 97/2/4 82/2/4 95/2/4
f 90/2/6 96/2/6 102/2/6
f 91/2/2 100/2/2 89/2/2
f 103/2/3 94/2/3 101/2/3
f 105/2/41 106/2/41 107/2/41
f 108/2/42 109/2/42 110/2/42
f 111/2/43 112/2/43 113/2/43
f 114/2/44 115/2/44 116/2/44
f 117/2/31 118/2/31 119/2/31
f 120/2/32 121/2/32 122/2/32
f 123/2/45 124/2/45 125/2/45
f 126/2/46 127/2/46 128/2/46
f 105/2/15 112/2/15 111/2/15
f 108/2/16 107/2/16 106/2/16
f 114/2/17 110/2/17 109/2/17
f 113/2/18 116/2/18 115/2/18
f 111/2/19 124/2/19 123/2/19
f 126/2/20 115/2/20 114/2/20
f 125/2/21 128/2/21 127/2/21
f 123/2/22 118/2/22 117/2/22
f 120/2/23 127/2/23 126/2/23
f 119/2/24 122/2/24 121/2/24
f 117/2/25 106/2/25 105/2/25
f 109/2/26 121/2/26 120/2/26
f 123/2/5 105/2/5 111/2/5
f 110/2/1 112/2/1 107/2/1
f 121/2/4 106/2/4 119/2/4
f 114/2/6 120/2/6 126/2/6
f 115/2/2 124/2/2 113/2/2
f 127/2/3 118/2/3 125/2/3
f 130/3/1 131/3/1 129/3/1
f 132/3/2 135/3/2 131/3/2
f 136/3/3 133/3/3 135/3/3
f 134/3/4 129/3/4 133/3/4
f 135/3/5 129/3/5 131/3/5
f 132/3/6 134/3/6 136/3/6
f 137/1/27 138/1/27 139/1/27
f 140/1/28 141/1/28 142/1/28
f 143/1/29 144/1/29 145/1/29
f 146/1/30 147/1/30 148/1/30
f 149/1/37 150/1/37 151/1/37
f 152/1/38 153/1/38 154/1/38
f 155/1/39 156/1/39 157/1/39
f 158/1/40 159/1/40 160/1/40
f 137/1/15 144/1/15 143/1/15
f 140/1/16 139/1/16 138/1/16
f 146/1/17 142/1/17 141/1/17
f 145/1/18 148/1/18 147/1/18
f 143/1/19 156/1/19 155/1/19
f 158/1/20 147/1/20 146/1/20
f 157/1/21 160/1/21 159/1/21
f 155/1/22 150/1/22 149/1/22
f 152/1/23 159/1/23 158/1/23
f 151/1/24 154/1/24 153/1/24
f 149/1/25 138/1/25 137/1/25
f 141/1/26 153/1/26 152/1/26
f 155/1/5 137/1/5 143/1/5
f 142/1/1 144/1/1 139/1/1
f 153/1/4 138/1/4 151/1/4
f 146/1/6 152/1/6 158/1/6
f 147/1/2 156/1/2 145/1/2
f 159/1/3 150/1/3 157/1/3
f 2/1/1 4/1/1 3/1/1
f 4/1/2 8/1/2 7/1/2
f 8/1/3 6/1/3 5/1/3
f 6/1/4 2/1/4 1/1/4
f 7/1/5 5/1/5 1/1/5
f 4/1/6 2/1/6 6/1/6
f 9/2/15 11/2/15 16/2/15
f 12/2/16 14/2/16 11/2/16
f 18/2/17 20/2/17 14/2/17
f 17/2/18 16/2/18 20/2/18
f 15/2/19 17/2/19 28/2/19
f 30/2/20 32/2/20 19/2/20
f 29/2/21 28/2/21 32/2/21
f 27/2/22 29/2/22 22/2/22
f 24/2/23 26/2/23 31/2/23
f 23/2/24 22/2/24 26/2/24
f 21/2/25 23/2/25 10/2/25
f 13/2/26 12/2/26 25/2/26
f 27/2/5 21/2/5 9/2/5
f 14/2/1 20/2/1 16/2/1
f 25/2/4 12/2/4 10/2/4
f 18/2/6 13/2/6 24/2/6
f 19/2/2 32/2/2 28/2/2
f 31/2/3 26/2/3 22/2/3
f 33/2/15 35/2/15 40/2/15
f 36/2/16 38/2/16 35/2/16
f 42/2/17 44/2/17 38/2/17
f 41/2/18 40/2/18 44/2/18
f 39/2/19 41/2/19 52/2/19
f 54/2/20 56/2/20 43/2/20
f 53/2/21 52/2/21 56/2/21
f 51/2/22 53/2/22 46/2/22
f 48/2/23 50/2/23 55/2/23
f 47/2/24 46/2/24 50/2/24
f 45/2/25 47/2/25 34/2/25
f 37/2/26 36/2/26 49/2/26
f 51/2/5 45/2/5 33/2/5
f 38/2/1 44/2/1 40/2/1
f 49/2/4 36/2/4 34/2/4
f 42/2/6 37/2/6 48/2/6
f 43/2/2 56/2/2 52/2/2
f 55/2/3 50/2/3 46/2/3
f 57/2/15 59/2/15 64/2/15
f 60/2/16 62/2/16 59/2/16
f 66/2/17 68/2/17 62/2/17
f 65/2/18 64/2/18 68/2/18
f 63/2/19 65/2/19 76/2/19
f 78/2/20 80/2/20 67/2/20
f 77/2/21 76/2/21 80/2/21
f 75/2/22 77/2/22 70/2/22
f 72/2/23 74/2/23 79/2/23
f 71/2/24 70/2/24 74/2/24
f 69/2/25 71/2/25 58/2/25
f 61/2/26 60/2/26 73/2/26
f 75/2/5 69/2/5 57/2/5
f 62/2/1 68/2/1 64/2/1
f 73/2/4 60/2/4 58/2/4
f 66/2/6 61/2/6 72/2/6
f 67/2/2 80/2/2 76/2/2
f 79/2/3 74/2/3 70/2/3
f 81/2/15 83/2/15 88/2/15
f 84/2/16 86/2/16 83/2/16
f 90/2/17 92/2/17 86/2/17
f 89/2/18 88/2/18 92/2/18
f 87/2/19 89/2/19 100/2/19
f 102/2/20 104/2/20 91/2/20
f 101/2/21 100/2/21 104/2/21
f 99/2/22 101/2/22 94/2/22
f 96/2/23 98/2/23 103/2/23
f 95/2/24 94/2/24 98/2/24
f 93/2/25 95/2/25 82/2/25
f 85/2/26 84/2/26 97/2/26
f 99/2/5 93/2/5 81/2/5
f 86/2/1 92/2/1 88/2/1
f 97/2/4 84/2/4 82/2/4
f 90/2/6 85/2/6 96/2/6
f 91/2/2 104/2/2 100/2/2
f 103/2/3 98/2/3 94/2/3
f 105/2/15 107/2/15 112/2/15
f 108/2/16 110/2/16 107/2/16
f 114/2/17 116/2/17 110/2/17
f 113/2/18 112/2/18 116/2/18
f 111/2/19 113/2/19 124/2/19
f 126/2/20 128/2/20 115/2/20
f 125/2/21 124/2/21 128/2/21
f 123/2/22 125/2/22 118/2/22
f 120/2/23 122/2/23 127/2/23
f 119/2/24 118/2/24 122/2/24
f 117/2/25 119/2/25 106/2/25
f 109/2/26 108/2/26 121/2/26
f 123/2/5 117/2/5 105/2/5
f 110/2/1 116/2/1 112/2/1
f 121/2/4 108/2/4 106/2/4
f 114/2/6 109/2/6 120/2/6
f 115/2/2 128/2/2 124/2/2
f 127/2/3 122/2/3 118/2/3
f 130/3/1 132/3/1 131/3/1
f 132/3/2 136/3/2 135/3/2
f 136/3/3 134/3/3 133/3/3
f 134/3/4 130/3/4 129/3/4
f 135/3/5 133/3/5 129/3/5
f 132/3/6 130/3/6 134/3/6
f 137/1/15 139/1/15 144/1/15
f 140/1/16 142/1/16 139/1/16
f 146/1/17 148/1/17 142/1/17
f 145/1/18 144/1/18 148/1/18
f 143/1/19 145/1/19 156/1/19
f 158/1/20 160/1/20 147/1/20
f 157/1/21 156/1/21 160/1/21
f 155/1/22 157/1/22 150/1/22
f 152/1/23 154/1/23 159/1/23
f 151/1/24 150/1/24 154/1/24
f 149/1/25 151/1/25 138/1/25
f 141/1/26 140/1/26 153/1/26
f 155/1/5 149/1/5 137/1/5
f 142/1/1 148/1/1 144/1/1
f 153/1/4 140/1/4 138/1/4
f 146/1/6 141/1/6 152/1/6
f 147/1/2 160/1/2 156/1/2
f 159/1/3 154/1/3 150/1/3
