# Blender 5.1.1
# www.blender.org
o kuda_kuda
v -0.056796 -0.867906 -0.096806
v -0.056268 -0.857442 -0.083455
v -0.068181 -0.855403 -0.095369
v 0.030060 0.853970 0.123168
v 0.030733 0.867303 0.112691
v 0.018148 0.856009 0.111254
v -0.056700 -0.865993 -0.112691
v -0.068084 -0.853490 -0.111254
v -0.056027 -0.852660 -0.123168
v 0.030829 0.869216 0.096806
v 0.030301 0.858752 0.083455
v 0.018244 0.857922 0.095369
v -0.030829 -0.869216 -0.096806
v -0.018244 -0.857922 -0.095369
v -0.030301 -0.858752 -0.083455
v 0.056700 0.865993 0.112691
v 0.056027 0.852660 0.123168
v 0.068084 0.853490 0.111254
v -0.030733 -0.867303 -0.112691
v -0.030060 -0.853970 -0.123168
v -0.018148 -0.856009 -0.111254
v 0.056796 0.867906 0.096806
v 0.068181 0.855403 0.095369
v 0.056268 0.857442 0.083455
v 0.590829 -0.869216 -0.096806
v 0.590301 -0.858752 -0.083455
v 0.578244 -0.857922 -0.095369
v 0.503973 0.852660 0.123168
v 0.503300 0.865993 0.112691
v 0.491916 0.853490 0.111254
v 0.590733 -0.867303 -0.112691
v 0.578148 -0.856009 -0.111254
v 0.590060 -0.853970 -0.123168
v 0.503204 0.867906 0.096806
v 0.503732 0.857442 0.083455
v 0.491819 0.855403 0.095369
v 0.616796 -0.867906 -0.096806
v 0.628181 -0.855403 -0.095369
v 0.616268 -0.857442 -0.083455
v 0.529267 0.867303 0.112691
v 0.529940 0.853970 0.123168
v 0.541852 0.856009 0.111254
v 0.616699 -0.865993 -0.112691
v 0.616027 -0.852660 -0.123168
v 0.628084 -0.853490 -0.111254
v 0.529171 0.869216 0.096806
v 0.541756 0.857922 0.095369
v 0.529699 0.858752 0.083455
v 0.267000 -0.841633 -0.151227
v 0.267000 -0.826784 -0.143011
v 0.255000 -0.830101 -0.154543
v 0.267000 0.687839 -0.578547
v 0.267000 0.696055 -0.593396
v 0.255000 0.684523 -0.590080
v 0.267000 -0.846055 -0.166604
v 0.255000 -0.834522 -0.169920
v 0.267000 -0.837839 -0.181453
v 0.267000 0.691633 -0.608773
v 0.267000 0.676785 -0.616989
v 0.255000 0.680101 -0.605457
v 0.293000 -0.841633 -0.151227
v 0.305000 -0.830101 -0.154543
v 0.293000 -0.826784 -0.143011
v 0.293000 0.696055 -0.593396
v 0.293000 0.687839 -0.578547
v 0.305000 0.684522 -0.590080
v 0.293000 -0.846055 -0.166604
v 0.293000 -0.837839 -0.181453
v 0.305000 -0.834522 -0.169920
v 0.293000 0.691634 -0.608773
v 0.305000 0.680101 -0.605457
v 0.293000 0.676785 -0.616989
v -0.058000 -0.155000 0.068000
v -0.058000 -0.143000 0.080000
v -0.070000 -0.143000 0.068000
v -0.058000 -0.127000 0.080000
v -0.058000 -0.115000 0.068000
v -0.070000 -0.127000 0.068000
v -0.058000 -0.155000 0.012000
v -0.070000 -0.143000 0.012000
v -0.058000 -0.143000 0.000000
v -0.058000 -0.115000 0.012000
v -0.058000 -0.127000 -0.000000
v -0.070000 -0.127000 0.012000
v 0.618000 -0.155000 0.068000
v 0.630000 -0.143000 0.068000
v 0.618000 -0.143000 0.080000
v 0.618000 -0.115000 0.068000
v 0.618000 -0.127000 0.080000
v 0.630000 -0.127000 0.068000
v 0.618000 -0.155000 0.012000
v 0.618000 -0.143000 0.000000
v 0.630000 -0.143000 0.012000
v 0.618000 -0.115000 0.012000
v 0.630000 -0.127000 0.012000
v 0.618000 -0.127000 0.000000
v -0.145000 -0.114351 0.044190
v -0.145000 -0.109985 0.049753
v -0.150000 -0.109387 0.044789
v -0.145000 0.555197 0.129960
v -0.145000 0.560759 0.125594
v -0.150000 0.555795 0.124996
v -0.145000 -0.110759 0.014406
v -0.150000 -0.105795 0.015004
v -0.145000 -0.105197 0.010040
v -0.145000 0.564351 0.095810
v -0.145000 0.559985 0.090247
v -0.150000 0.559387 0.095211
v 0.705000 -0.114351 0.044190
v 0.710000 -0.109387 0.044789
v 0.705000 -0.109985 0.049753
v 0.705000 0.560759 0.125594
v 0.705000 0.555197 0.129960
v 0.710000 0.555795 0.124996
v 0.705000 -0.110759 0.014406
v 0.705000 -0.105197 0.010040
v 0.710000 -0.105795 0.015004
v 0.705000 0.564351 0.095810
v 0.710000 0.559387 0.095211
v 0.705000 0.559985 0.090247
v -0.120000 0.075192 0.073996
v -0.120000 0.293610 0.100332
v -0.120000 0.076390 0.064068
v -0.120000 0.294807 0.090404
v 0.280000 0.075192 0.073996
v 0.280000 0.293610 0.100332
v 0.280000 0.076390 0.064068
v 0.280000 0.294807 0.090404
v 0.310000 0.205049 0.060790
v 0.310000 0.383754 0.082338
v 0.310000 0.206246 0.050862
v 0.310000 0.384951 0.072410
v 0.490000 0.205049 0.060790
v 0.490000 0.383754 0.082338
v 0.490000 0.206246 0.050862
v 0.490000 0.384951 0.072410
v 0.080000 -0.015167 0.090781
v 0.080000 0.103970 0.105147
v 0.080000 -0.013970 0.080853
v 0.080000 0.105167 0.095219
v 0.580000 -0.015167 0.090781
v 0.580000 0.103970 0.105147
v 0.580000 -0.013970 0.080853
v 0.580000 0.105167 0.095219
v 0.070000 0.304761 0.053578
v 0.070000 0.404042 0.065550
v 0.070000 0.305958 0.043650
v 0.070000 0.405239 0.055622
v 0.190000 0.304761 0.053578
v 0.190000 0.404042 0.065550
v 0.190000 0.305958 0.043650
v 0.190000 0.405239 0.055622
v 0.960000 -0.175000 -0.050000
v 0.960000 -0.155000 -0.050000
v 1.060000 -0.175000 -0.023205
v 1.060000 -0.155000 -0.023205
v 1.133205 -0.175000 0.050000
v 1.133205 -0.155000 0.050000
v 1.160000 -0.175000 0.150000
v 1.160000 -0.155000 0.150000
v 1.133205 -0.175000 0.250000
v 1.133205 -0.155000 0.250000
v 1.060000 -0.175000 0.323205
v 1.060000 -0.155000 0.323205
v 0.960000 -0.175000 0.350000
v 0.960000 -0.155000 0.350000
v 0.860000 -0.175000 0.323205
v 0.860000 -0.155000 0.323205
v 0.786795 -0.175000 0.250000
v 0.786795 -0.155000 0.250000
v 0.760000 -0.175000 0.150000
v 0.760000 -0.155000 0.150000
v 0.786795 -0.175000 0.050000
v 0.786795 -0.155000 0.050000
v 0.860000 -0.175000 -0.023205
v 0.860000 -0.155000 -0.023205
v 0.960000 -0.875000 0.130000
v 0.960000 -0.175000 0.130000
v 0.977320 -0.875000 0.140000
v 0.977320 -0.175000 0.140000
v 0.977320 -0.875000 0.160000
v 0.977320 -0.175000 0.160000
v 0.960000 -0.875000 0.170000
v 0.960000 -0.175000 0.170000
v 0.942679 -0.875000 0.160000
v 0.942679 -0.175000 0.160000
v 0.942679 -0.875000 0.140000
v 0.942679 -0.175000 0.140000
v 0.880000 -0.155000 0.185000
v 0.880000 -0.135000 0.185000
v 0.904749 -0.155000 0.195251
v 0.904749 -0.135000 0.195251
v 0.915000 -0.155000 0.220000
v 0.915000 -0.135000 0.220000
v 0.904749 -0.155000 0.244749
v 0.904749 -0.135000 0.244749
v 0.880000 -0.155000 0.255000
v 0.880000 -0.135000 0.255000
v 0.855251 -0.155000 0.244749
v 0.855251 -0.135000 0.244749
v 0.845000 -0.155000 0.220000
v 0.845000 -0.135000 0.220000
v 0.855251 -0.155000 0.195251
v 0.855251 -0.135000 0.195251
v 1.010000 -0.155000 0.185000
v 1.010000 -0.135000 0.185000
v 1.034749 -0.155000 0.195251
v 1.034749 -0.135000 0.195251
v 1.045000 -0.155000 0.220000
v 1.045000 -0.135000 0.220000
v 1.034749 -0.155000 0.244749
v 1.034749 -0.135000 0.244749
v 1.010000 -0.155000 0.255000
v 1.010000 -0.135000 0.255000
v 0.985251 -0.155000 0.244749
v 0.985251 -0.135000 0.244749
v 0.975000 -0.155000 0.220000
v 0.975000 -0.135000 0.220000
v 0.985251 -0.155000 0.195251
v 0.985251 -0.135000 0.195251
v 0.880000 -0.155000 0.055000
v 0.880000 -0.135000 0.055000
v 0.904749 -0.155000 0.065251
v 0.904749 -0.135000 0.065251
v 0.915000 -0.155000 0.090000
v 0.915000 -0.135000 0.090000
v 0.904749 -0.155000 0.114749
v 0.904749 -0.135000 0.114749
v 0.880000 -0.155000 0.125000
v 0.880000 -0.135000 0.125000
v 0.855251 -0.155000 0.114749
v 0.855251 -0.135000 0.114749
v 0.845000 -0.155000 0.090000
v 0.845000 -0.135000 0.090000
v 0.855251 -0.155000 0.065251
v 0.855251 -0.135000 0.065251
v 1.010000 -0.155000 0.055000
v 1.010000 -0.135000 0.055000
v 1.034749 -0.155000 0.065251
v 1.034749 -0.135000 0.065251
v 1.045000 -0.155000 0.090000
v 1.045000 -0.135000 0.090000
v 1.034749 -0.155000 0.114749
v 1.034749 -0.135000 0.114749
v 1.010000 -0.155000 0.125000
v 1.010000 -0.135000 0.125000
v 0.985251 -0.155000 0.114749
v 0.985251 -0.135000 0.114749
v 0.975000 -0.155000 0.090000
v 0.975000 -0.135000 0.090000
v 0.985251 -0.155000 0.065251
v 0.985251 -0.135000 0.065251
v 1.030000 -0.155000 0.000000
v 1.030000 -0.015000 0.000000
v 1.065355 -0.155000 0.014645
v 1.065355 -0.015000 0.014645
v 1.080000 -0.155000 0.050000
v 1.080000 -0.015000 0.050000
v 1.065355 -0.155000 0.085355
v 1.065355 -0.015000 0.085355
v 1.030000 -0.155000 0.100000
v 1.030000 -0.015000 0.100000
v 0.994645 -0.155000 0.085355
v 0.994645 -0.015000 0.085355
v 0.980000 -0.155000 0.050000
v 0.980000 -0.015000 0.050000
v 0.994645 -0.155000 0.014645
v 0.994645 -0.015000 0.014645
v 1.020000 -0.075000 0.043000
v 0.995042 0.173751 0.043000
v 1.026965 -0.074301 0.050000
v 1.002007 0.174450 0.050000
v 1.020000 -0.075000 0.057000
v 0.995042 0.173751 0.057000
v 1.013035 -0.075699 0.050000
v 0.988077 0.173052 0.050000
v 1.035000 -0.075000 0.043000
v 1.035000 0.175000 0.043000
v 1.042000 -0.075000 0.050000
v 1.042000 0.175000 0.050000
v 1.035000 -0.075000 0.057000
v 1.035000 0.175000 0.057000
v 1.028000 -0.075000 0.050000
v 1.028000 0.175000 0.050000
v 1.050000 -0.075000 0.043000
v 1.074958 0.173751 0.043000
v 1.056965 -0.075699 0.050000
v 1.081923 0.173052 0.050000
v 1.050000 -0.075000 0.057000
v 1.074958 0.173751 0.057000
v 1.043035 -0.074301 0.050000
v 1.067993 0.174450 0.050000
vn -0.6090 -0.6124 0.5041
vn -0.5512 0.5325 0.6423
vn -0.6020 -0.4744 -0.6423
vn -0.5443 0.6706 -0.5041
vn 0.5443 -0.6706 0.5041
vn 0.6020 0.4744 0.6423
vn 0.5512 -0.5325 -0.6423
vn 0.6090 0.6124 -0.5041
vn -0.7416 -0.6655 -0.0846
vn -0.7105 -0.0489 0.7020
vn -0.6708 0.7368 0.0846
vn -0.7019 0.1202 -0.7020
vn -0.0311 -0.6166 -0.7867
vn 0.0396 0.7857 -0.6174
vn 0.7105 0.0489 -0.7020
vn 0.6708 -0.7368 -0.0846
vn 0.7416 0.6655 0.0846
vn 0.7019 -0.1202 0.7020
vn -0.0396 -0.7857 0.6174
vn 0.0311 0.6166 0.7867
vn -0.0500 -0.9915 -0.1197
vn -0.9987 0.0504 -0.0000
vn -0.0060 -0.1196 0.9928
vn 0.0500 0.9915 0.1197
vn 0.0060 0.1196 -0.9928
vn 0.9987 -0.0504 -0.0000
vn -0.5443 -0.6706 0.5041
vn -0.6020 0.4744 0.6423
vn -0.5512 -0.5325 -0.6423
vn -0.6090 0.6124 -0.5041
vn 0.6090 -0.6124 0.5041
vn 0.5512 0.5325 0.6423
vn 0.6020 -0.4744 -0.6423
vn 0.5443 0.6706 -0.5041
vn -0.6708 -0.7367 -0.0847
vn -0.7019 -0.1202 0.7020
vn -0.7416 0.6655 0.0847
vn -0.7105 0.0489 -0.7020
vn 0.0311 -0.6166 -0.7867
vn -0.0396 0.7857 -0.6174
vn 0.7019 0.1202 -0.7020
vn 0.7416 -0.6655 -0.0846
vn 0.6708 0.7367 0.0846
vn 0.7105 -0.0489 0.7020
vn 0.0396 -0.7857 0.6174
vn -0.0311 0.6166 0.7867
vn 0.0500 -0.9915 -0.1197
vn -0.9987 -0.0504 -0.0000
vn 0.0060 -0.1196 0.9928
vn -0.0500 0.9915 0.1197
vn -0.0060 0.1196 -0.9928
vn 0.9987 0.0504 -0.0000
vn -0.5773 -0.3953 0.7144
vn -0.5773 0.7144 0.3953
vn -0.5774 -0.7144 -0.3953
vn -0.5773 0.3953 -0.7144
vn 0.5773 -0.3953 0.7144
vn 0.5773 0.7144 0.3953
vn 0.5773 -0.7144 -0.3953
vn 0.5774 0.3953 -0.7144
vn -0.7071 -0.6796 0.1954
vn -0.7071 0.1954 0.6796
vn -0.7071 0.6796 -0.1954
vn -0.7071 -0.1954 -0.6796
vn -0.0000 -0.8750 -0.4842
vn -0.0000 0.4842 -0.8750
vn 0.7071 -0.1954 -0.6796
vn 0.7071 -0.6796 0.1954
vn 0.7071 0.6796 -0.1954
vn 0.7071 0.1954 0.6796
vn -0.0000 -0.4842 0.8750
vn -0.0000 0.8750 0.4842
vn -0.0000 -0.9611 0.2764
vn -1.0000 -0.0000 -0.0000
vn -0.0000 0.2764 0.9611
vn -0.0000 0.9611 -0.2764
vn -0.0000 -0.2764 -0.9611
vn 1.0000 -0.0000 -0.0000
vn -0.5773 -0.5774 0.5774
vn -0.5774 0.5773 0.5774
vn -0.5774 -0.5774 -0.5774
vn -0.5774 0.5773 -0.5774
vn 0.5773 -0.5773 0.5774
vn 0.5774 0.5774 0.5773
vn 0.5773 -0.5773 -0.5774
vn 0.5774 0.5774 -0.5773
vn -0.7071 -0.7071 -0.0000
vn -0.7071 -0.0000 0.7071
vn -0.7071 0.7071 -0.0000
vn -0.7071 -0.0000 -0.7071
vn -0.0000 -0.7071 -0.7071
vn -0.0000 0.7071 -0.7071
vn 0.7071 -0.0000 -0.7071
vn 0.7071 -0.7071 -0.0000
vn 0.7071 0.7071 -0.0000
vn 0.7071 -0.0000 0.7071
vn -0.0000 -0.7071 0.7071
vn -0.0000 0.7071 0.7071
vn -0.0000 -1.0000 -0.0000
vn -0.0000 -0.0000 1.0000
vn -0.0000 1.0000 -0.0000
vn -0.0000 -0.0000 -1.0000
vn -0.5773 -0.6423 0.5041
vn -0.5773 0.5041 0.6423
vn -0.5774 -0.5041 -0.6423
vn -0.5773 0.6423 -0.5041
vn 0.5774 -0.6423 0.5041
vn 0.5774 0.5041 0.6423
vn 0.5773 -0.5041 -0.6423
vn 0.5774 0.6423 -0.5041
vn -0.7071 -0.7020 -0.0846
vn -0.7071 -0.0846 0.7020
vn -0.7071 0.7020 0.0846
vn -0.7071 0.0846 -0.7020
vn -0.0000 -0.6174 -0.7867
vn -0.0000 0.7867 -0.6174
vn 0.7071 0.0846 -0.7020
vn 0.7071 -0.7020 -0.0846
vn 0.7071 0.7020 0.0846
vn 0.7071 -0.0847 0.7020
vn -0.0000 -0.7867 0.6174
vn -0.0000 0.6174 0.7867
vn -0.0000 -0.9928 -0.1197
vn -0.0000 -0.1197 0.9928
vn -0.0000 0.9928 0.1197
vn -0.0000 0.1197 -0.9928
vn 0.2588 -0.0000 -0.9659
vn 0.9659 -0.0000 -0.2588
vn 0.9659 -0.0000 0.2588
vn 0.2588 -0.0000 0.9659
vn -0.2588 -0.0000 0.9659
vn -0.9659 -0.0000 0.2588
vn -0.9659 -0.0000 -0.2588
vn -0.2588 -0.0000 -0.9659
vn 0.5000 -0.0000 -0.8660
vn 0.5000 -0.0000 0.8660
vn -0.5000 -0.0000 0.8660
vn -0.5000 -0.0000 -0.8660
vn 0.3827 -0.0000 -0.9239
vn 0.9239 -0.0000 -0.3827
vn 0.9239 -0.0000 0.3827
vn 0.3827 -0.0000 0.9239
vn -0.3827 -0.0000 0.9239
vn -0.9239 -0.0000 0.3827
vn -0.9239 -0.0000 -0.3827
vn -0.3827 -0.0000 -0.9239
vn 0.7036 0.0706 -0.7071
vn 0.7036 0.0706 0.7071
vn -0.0998 0.9950 -0.0000
vn -0.7036 -0.0706 0.7071
vn -0.7036 -0.0706 -0.7071
vn 0.0998 -0.9950 -0.0000
vn 0.7036 -0.0706 -0.7071
vn 0.7036 -0.0706 0.7071
vn 0.0998 0.9950 -0.0000
vn -0.7036 0.0706 0.7071
vn -0.7036 0.0706 -0.7071
vn -0.0998 -0.9950 -0.0000
vn -0.6708 -0.7368 -0.0846
vn -0.7416 0.6655 0.0846
vn 0.6708 0.7368 0.0847
vn -0.7071 -0.7020 -0.0847
vn 0.7071 0.7020 0.0847
vn 0.7071 -0.0846 0.7020
vt 0.156250 0.968750
vt 0.093750 0.968750
vt 0.156250 0.843750
vt 0.281250 0.843750
vt 0.218750 0.843750
vt 0.531250 0.906250
vt 0.343750 0.843750
vt 0.031250 0.968750
vt 0.093750 0.843750
vt 0.468750 0.843750
s 0
f 1/1/1 2/1/1 3/1/1
f 4/1/2 5/1/2 6/1/2
f 7/1/3 8/1/3 9/1/3
f 10/1/4 11/1/4 12/1/4
f 13/1/5 14/1/5 15/1/5
f 16/1/6 17/1/6 18/1/6
f 19/1/7 20/1/7 21/1/7
f 22/1/8 23/1/8 24/1/8
f 7/1/9 3/1/9 8/1/9
f 4/1/10 3/1/10 2/1/10
f 5/1/11 12/1/11 6/1/11
f 9/1/12 12/1/12 11/1/12
f 7/1/13 20/1/13 19/1/13
f 22/1/14 11/1/14 10/1/14
f 21/1/15 24/1/15 23/1/15
f 13/1/16 21/1/16 14/1/16
f 22/1/17 18/1/17 23/1/17
f 15/1/18 18/1/18 17/1/18
f 13/1/19 2/1/19 1/1/19
f 5/1/20 17/1/20 16/1/20
f 19/1/21 1/1/21 7/1/21
f 6/1/22 8/1/22 3/1/22
f 17/1/23 2/1/23 15/1/23
f 10/1/24 16/1/24 22/1/24
f 11/1/25 20/1/25 9/1/25
f 23/1/26 14/1/26 21/1/26
f 25/1/27 26/1/27 27/1/27
f 28/1/28 29/1/28 30/1/28
f 31/1/29 32/1/29 33/1/29
f 34/1/30 35/1/30 36/1/30
f 37/1/31 38/1/31 39/1/31
f 40/1/32 41/1/32 42/1/32
f 43/1/33 44/1/33 45/1/33
f 46/1/34 47/1/34 48/1/34
f 31/1/35 27/1/35 32/1/35
f 26/1/36 30/1/36 27/1/36
f 29/1/37 36/1/37 30/1/37
f 33/1/38 36/1/38 35/1/38
f 31/1/39 44/1/39 43/1/39
f 46/1/40 35/1/40 34/1/40
f 45/1/41 48/1/41 47/1/41
f 43/1/42 38/1/42 37/1/42
f 40/1/43 47/1/43 46/1/43
f 39/1/44 42/1/44 41/1/44
f 37/1/45 26/1/45 25/1/45
f 29/1/46 41/1/46 40/1/46
f 43/1/47 25/1/47 31/1/47
f 30/1/48 32/1/48 27/1/48
f 41/1/49 26/1/49 39/1/49
f 46/1/50 29/1/50 40/1/50
f 33/1/51 48/1/51 44/1/51
f 45/1/52 42/1/52 38/1/52
f 49/1/53 50/1/53 51/1/53
f 52/1/54 53/1/54 54/1/54
f 55/1/55 56/1/55 57/1/55
f 58/1/56 59/1/56 60/1/56
f 61/1/57 62/1/57 63/1/57
f 64/1/58 65/1/58 66/1/58
f 67/1/59 68/1/59 69/1/59
f 70/1/60 71/1/60 72/1/60
f 49/1/61 56/1/61 55/1/61
f 50/1/62 54/1/62 51/1/62
f 53/1/63 60/1/63 54/1/63
f 59/1/64 56/1/64 60/1/64
f 67/1/65 57/1/65 68/1/65
f 58/1/66 72/1/66 59/1/66
f 71/1/67 68/1/67 72/1/67
f 67/1/68 62/1/68 61/1/68
f 70/1/69 66/1/69 71/1/69
f 63/1/70 66/1/70 65/1/70
f 49/1/71 63/1/71 50/1/71
f 53/1/72 65/1/72 64/1/72
f 67/1/73 49/1/73 55/1/73
f 54/1/74 56/1/74 51/1/74
f 65/1/75 50/1/75 63/1/75
f 70/1/76 53/1/76 64/1/76
f 59/1/77 68/1/77 57/1/77
f 69/1/78 66/1/78 62/1/78
f 73/2/79 74/2/79 75/2/79
f 76/2/80 77/2/80 78/2/80
f 79/2/81 80/2/81 81/2/81
f 82/2/82 83/2/82 84/2/82
f 85/2/83 86/2/83 87/2/83
f 88/2/84 89/2/84 90/2/84
f 91/2/85 92/2/85 93/2/85
f 94/2/86 95/2/86 96/2/86
f 73/2/87 80/2/87 79/2/87
f 74/2/88 78/2/88 75/2/88
f 77/2/89 84/2/89 78/2/89
f 81/2/90 84/2/90 83/2/90
f 79/2/91 92/2/91 91/2/91
f 94/2/92 83/2/92 82/2/92
f 93/2/93 96/2/93 95/2/93
f 85/2/94 93/2/94 86/2/94
f 88/2/95 95/2/95 94/2/95
f 87/2/96 90/2/96 89/2/96
f 85/2/97 74/2/97 73/2/97
f 77/2/98 89/2/98 88/2/98
f 79/2/99 85/2/99 73/2/99
f 78/2/74 80/2/74 75/2/74
f 87/2/100 76/2/100 74/2/100
f 94/2/101 77/2/101 88/2/101
f 83/2/102 92/2/102 81/2/102
f 93/2/78 90/2/78 86/2/78
f 97/3/103 98/3/103 99/3/103
f 100/3/104 101/3/104 102/3/104
f 103/3/105 104/3/105 105/3/105
f 106/3/106 107/3/106 108/3/106
f 109/3/107 110/3/107 111/3/107
f 112/3/108 113/3/108 114/3/108
f 115/3/109 116/3/109 117/3/109
f 118/3/110 119/3/110 120/3/110
f 97/3/111 104/3/111 103/3/111
f 100/3/112 99/3/112 98/3/112
f 106/3/113 102/3/113 101/3/113
f 105/3/114 108/3/114 107/3/114
f 103/3/115 116/3/115 115/3/115
f 106/3/116 120/3/116 107/3/116
f 117/3/117 120/3/117 119/3/117
f 115/3/118 110/3/118 109/3/118
f 118/3/119 114/3/119 119/3/119
f 111/3/120 114/3/120 113/3/120
f 109/3/121 98/3/121 97/3/121
f 112/3/122 100/3/122 113/3/122
f 103/3/123 109/3/123 97/3/123
f 102/3/74 104/3/74 99/3/74
f 113/3/124 98/3/124 111/3/124
f 106/3/125 112/3/125 118/3/125
f 107/3/126 116/3/126 105/3/126
f 117/3/78 114/3/78 110/3/78
f 121/4/74 124/4/74 123/4/74
f 123/4/126 128/4/126 127/4/126
f 128/4/78 125/4/78 127/4/78
f 126/4/124 121/4/124 125/4/124
f 127/4/123 121/4/123 123/4/123
f 124/4/125 126/4/125 128/4/125
f 130/5/74 131/5/74 129/5/74
f 131/5/126 136/5/126 135/5/126
f 136/5/78 133/5/78 135/5/78
f 134/5/124 129/5/124 133/5/124
f 131/5/123 133/5/123 129/5/123
f 132/5/125 134/5/125 136/5/125
f 138/6/74 139/6/74 137/6/74
f 140/6/126 143/6/126 139/6/126
f 144/6/78 141/6/78 143/6/78
f 141/6/124 138/6/124 137/6/124
f 143/6/123 137/6/123 139/6/123
f 140/6/125 142/6/125 144/6/125
f 146/7/74 147/7/74 145/7/74
f 148/7/126 151/7/126 147/7/126
f 152/7/78 149/7/78 151/7/78
f 150/7/124 145/7/124 149/7/124
f 151/7/123 145/7/123 147/7/123
f 148/7/125 150/7/125 152/7/125
f 154/2/127 155/2/127 153/2/127
f 155/2/93 158/2/93 157/2/93
f 158/2/128 159/2/128 157/2/128
f 160/2/129 161/2/129 159/2/129
f 162/2/96 163/2/96 161/2/96
f 164/2/130 165/2/130 163/2/130
f 166/2/131 167/2/131 165/2/131
f 168/2/88 169/2/88 167/2/88
f 170/2/132 171/2/132 169/2/132
f 172/2/133 173/2/133 171/2/133
f 174/2/101 166/2/101 158/2/101
f 174/2/90 175/2/90 173/2/90
f 176/2/134 153/2/134 175/2/134
f 159/2/99 167/2/99 175/2/99
f 178/8/135 179/8/135 177/8/135
f 180/8/78 181/8/78 179/8/78
f 182/8/136 183/8/136 181/8/136
f 184/8/137 185/8/137 183/8/137
f 178/8/101 186/8/101 182/8/101
f 186/8/74 187/8/74 185/8/74
f 188/8/138 177/8/138 187/8/138
f 179/8/99 183/8/99 187/8/99
f 190/7/139 191/7/139 189/7/139
f 192/7/140 193/7/140 191/7/140
f 193/7/141 196/7/141 195/7/141
f 196/7/142 197/7/142 195/7/142
f 197/7/143 200/7/143 199/7/143
f 199/7/144 202/7/144 201/7/144
f 202/7/101 198/7/101 194/7/101
f 202/7/145 203/7/145 201/7/145
f 204/7/146 189/7/146 203/7/146
f 195/7/99 199/7/99 203/7/99
f 206/4/139 207/4/139 205/4/139
f 208/4/140 209/4/140 207/4/140
f 209/4/141 212/4/141 211/4/141
f 211/4/142 214/4/142 213/4/142
f 213/4/143 216/4/143 215/4/143
f 215/4/144 218/4/144 217/4/144
f 218/4/101 214/4/101 210/4/101
f 218/4/145 219/4/145 217/4/145
f 220/4/146 205/4/146 219/4/146
f 211/4/99 215/4/99 219/4/99
f 222/5/139 223/5/139 221/5/139
f 223/5/140 226/5/140 225/5/140
f 226/5/141 227/5/141 225/5/141
f 228/5/142 229/5/142 227/5/142
f 230/5/143 231/5/143 229/5/143
f 232/5/144 233/5/144 231/5/144
f 234/5/101 230/5/101 226/5/101
f 234/5/145 235/5/145 233/5/145
f 235/5/146 222/5/146 221/5/146
f 227/5/99 231/5/99 235/5/99
f 238/9/139 239/9/139 237/9/139
f 240/9/140 241/9/140 239/9/140
f 242/9/141 243/9/141 241/9/141
f 243/9/142 246/9/142 245/9/142
f 246/9/143 247/9/143 245/9/143
f 248/9/144 249/9/144 247/9/144
f 250/9/101 246/9/101 242/9/101
f 250/9/145 251/9/145 249/9/145
f 252/9/146 237/9/146 251/9/146
f 243/9/99 247/9/99 251/9/99
f 253/10/139 256/10/139 255/10/139
f 256/10/140 257/10/140 255/10/140
f 257/10/141 260/10/141 259/10/141
f 260/10/142 261/10/142 259/10/142
f 262/10/143 263/10/143 261/10/143
f 263/10/144 266/10/144 265/10/144
f 266/10/101 262/10/101 258/10/101
f 265/10/145 268/10/145 267/10/145
f 268/10/146 253/10/146 267/10/146
f 259/10/99 263/10/99 267/10/99
f 270/8/147 271/8/147 269/8/147
f 271/8/148 274/8/148 273/8/148
f 272/8/149 276/8/149 274/8/149
f 274/8/150 275/8/150 273/8/150
f 275/8/151 270/8/151 269/8/151
f 271/8/152 275/8/152 269/8/152
f 278/8/93 279/8/93 277/8/93
f 280/8/96 281/8/96 279/8/96
f 280/8/101 284/8/101 282/8/101
f 282/8/88 283/8/88 281/8/88
f 284/8/90 277/8/90 283/8/90
f 277/8/99 281/8/99 283/8/99
f 286/8/153 287/8/153 285/8/153
f 287/8/154 290/8/154 289/8/154
f 286/8/155 290/8/155 288/8/155
f 289/8/156 292/8/156 291/8/156
f 292/8/157 285/8/157 291/8/157
f 285/8/158 289/8/158 291/8/158
f 7/1/9 1/1/9 3/1/9
f 4/1/10 6/1/10 3/1/10
f 5/1/11 10/1/11 12/1/11
f 9/1/12 8/1/12 12/1/12
f 7/1/13 9/1/13 20/1/13
f 22/1/14 24/1/14 11/1/14
f 21/1/15 20/1/15 24/1/15
f 13/1/16 19/1/16 21/1/16
f 22/1/17 16/1/17 18/1/17
f 15/1/18 14/1/18 18/1/18
f 13/1/19 15/1/19 2/1/19
f 5/1/20 4/1/20 17/1/20
f 19/1/21 13/1/21 1/1/21
f 6/1/22 12/1/22 8/1/22
f 17/1/23 4/1/23 2/1/23
f 10/1/24 5/1/24 16/1/24
f 11/1/25 24/1/25 20/1/25
f 23/1/26 18/1/26 14/1/26
f 31/1/159 25/1/159 27/1/159
f 26/1/36 28/1/36 30/1/36
f 29/1/160 34/1/160 36/1/160
f 33/1/38 32/1/38 36/1/38
f 31/1/39 33/1/39 44/1/39
f 46/1/40 48/1/40 35/1/40
f 45/1/41 44/1/41 48/1/41
f 43/1/42 45/1/42 38/1/42
f 40/1/161 42/1/161 47/1/161
f 39/1/44 38/1/44 42/1/44
f 37/1/45 39/1/45 26/1/45
f 29/1/46 28/1/46 41/1/46
f 43/1/47 37/1/47 25/1/47
f 30/1/48 36/1/48 32/1/48
f 41/1/49 28/1/49 26/1/49
f 46/1/50 34/1/50 29/1/50
f 33/1/51 35/1/51 48/1/51
f 45/1/52 47/1/52 42/1/52
f 49/1/61 51/1/61 56/1/61
f 50/1/62 52/1/62 54/1/62
f 53/1/63 58/1/63 60/1/63
f 59/1/64 57/1/64 56/1/64
f 67/1/65 55/1/65 57/1/65
f 58/1/66 70/1/66 72/1/66
f 71/1/67 69/1/67 68/1/67
f 67/1/68 69/1/68 62/1/68
f 70/1/69 64/1/69 66/1/69
f 63/1/70 62/1/70 66/1/70
f 49/1/71 61/1/71 63/1/71
f 53/1/72 52/1/72 65/1/72
f 67/1/73 61/1/73 49/1/73
f 54/1/74 60/1/74 56/1/74
f 65/1/75 52/1/75 50/1/75
f 70/1/76 58/1/76 53/1/76
f 59/1/77 72/1/77 68/1/77
f 69/1/78 71/1/78 66/1/78
f 73/2/87 75/2/87 80/2/87
f 74/2/88 76/2/88 78/2/88
f 77/2/89 82/2/89 84/2/89
f 81/2/90 80/2/90 84/2/90
f 79/2/91 81/2/91 92/2/91
f 94/2/92 96/2/92 83/2/92
f 93/2/93 92/2/93 96/2/93
f 85/2/94 91/2/94 93/2/94
f 88/2/95 90/2/95 95/2/95
f 87/2/96 86/2/96 90/2/96
f 85/2/97 87/2/97 74/2/97
f 77/2/98 76/2/98 89/2/98
f 79/2/99 91/2/99 85/2/99
f 78/2/74 84/2/74 80/2/74
f 87/2/100 89/2/100 76/2/100
f 94/2/101 82/2/101 77/2/101
f 83/2/102 96/2/102 92/2/102
f 93/2/78 95/2/78 90/2/78
f 97/3/162 99/3/162 104/3/162
f 100/3/112 102/3/112 99/3/112
f 106/3/113 108/3/113 102/3/113
f 105/3/114 104/3/114 108/3/114
f 103/3/115 105/3/115 116/3/115
f 106/3/116 118/3/116 120/3/116
f 117/3/117 116/3/117 120/3/117
f 115/3/118 117/3/118 110/3/118
f 118/3/163 112/3/163 114/3/163
f 111/3/164 110/3/164 114/3/164
f 109/3/121 111/3/121 98/3/121
f 112/3/122 101/3/122 100/3/122
f 103/3/123 115/3/123 109/3/123
f 102/3/74 108/3/74 104/3/74
f 113/3/124 100/3/124 98/3/124
f 106/3/125 101/3/125 112/3/125
f 107/3/126 120/3/126 116/3/126
f 117/3/78 119/3/78 114/3/78
f 121/4/74 122/4/74 124/4/74
f 123/4/126 124/4/126 128/4/126
f 128/4/78 126/4/78 125/4/78
f 126/4/124 122/4/124 121/4/124
f 127/4/123 125/4/123 121/4/123
f 124/4/125 122/4/125 126/4/125
f 130/5/74 132/5/74 131/5/74
f 131/5/126 132/5/126 136/5/126
f 136/5/78 134/5/78 133/5/78
f 134/5/124 130/5/124 129/5/124
f 131/5/123 135/5/123 133/5/123
f 132/5/125 130/5/125 134/5/125
f 138/6/74 140/6/74 139/6/74
f 140/6/126 144/6/126 143/6/126
f 144/6/78 142/6/78 141/6/78
f 141/6/124 142/6/124 138/6/124
f 143/6/123 141/6/123 137/6/123
f 140/6/125 138/6/125 142/6/125
f 146/7/74 148/7/74 147/7/74
f 148/7/126 152/7/126 151/7/126
f 152/7/78 150/7/78 149/7/78
f 150/7/124 146/7/124 145/7/124
f 151/7/123 149/7/123 145/7/123
f 148/7/125 146/7/125 150/7/125
f 154/2/127 156/2/127 155/2/127
f 155/2/93 156/2/93 158/2/93
f 158/2/128 160/2/128 159/2/128
f 160/2/129 162/2/129 161/2/129
f 162/2/96 164/2/96 163/2/96
f 164/2/130 166/2/130 165/2/130
f 166/2/131 168/2/131 167/2/131
f 168/2/88 170/2/88 169/2/88
f 170/2/132 172/2/132 171/2/132
f 172/2/133 174/2/133 173/2/133
f 158/2/101 156/2/101 154/2/101
f 154/2/101 176/2/101 174/2/101
f 174/2/101 172/2/101 170/2/101
f 170/2/101 168/2/101 166/2/101
f 166/2/101 164/2/101 162/2/101
f 162/2/101 160/2/101 158/2/101
f 158/2/101 154/2/101 174/2/101
f 174/2/101 170/2/101 166/2/101
f 166/2/101 162/2/101 158/2/101
f 174/2/90 176/2/90 175/2/90
f 176/2/134 154/2/134 153/2/134
f 175/2/99 153/2/99 155/2/99
f 155/2/99 157/2/99 159/2/99
f 159/2/99 161/2/99 163/2/99
f 163/2/99 165/2/99 167/2/99
f 167/2/99 169/2/99 171/2/99
f 171/2/99 173/2/99 175/2/99
f 175/2/99 155/2/99 159/2/99
f 159/2/99 163/2/99 167/2/99
f 167/2/99 171/2/99 175/2/99
f 178/8/135 180/8/135 179/8/135
f 180/8/78 182/8/78 181/8/78
f 182/8/136 184/8/136 183/8/136
f 184/8/137 186/8/137 185/8/137
f 182/8/101 180/8/101 178/8/101
f 178/8/101 188/8/101 186/8/101
f 186/8/101 184/8/101 182/8/101
f 186/8/74 188/8/74 187/8/74
f 188/8/138 178/8/138 177/8/138
f 187/8/99 177/8/99 179/8/99
f 179/8/99 181/8/99 183/8/99
f 183/8/99 185/8/99 187/8/99
f 190/7/139 192/7/139 191/7/139
f 192/7/140 194/7/140 193/7/140
f 193/7/141 194/7/141 196/7/141
f 196/7/142 198/7/142 197/7/142
f 197/7/143 198/7/143 200/7/143
f 199/7/144 200/7/144 202/7/144
f 194/7/101 192/7/101 190/7/101
f 190/7/101 204/7/101 202/7/101
f 202/7/101 200/7/101 198/7/101
f 198/7/101 196/7/101 194/7/101
f 194/7/101 190/7/101 202/7/101
f 202/7/145 204/7/145 203/7/145
f 204/7/146 190/7/146 189/7/146
f 203/7/99 189/7/99 191/7/99
f 191/7/99 193/7/99 195/7/99
f 195/7/99 197/7/99 199/7/99
f 199/7/99 201/7/99 203/7/99
f 203/7/99 191/7/99 195/7/99
f 206/4/139 208/4/139 207/4/139
f 208/4/140 210/4/140 209/4/140
f 209/4/141 210/4/141 212/4/141
f 211/4/142 212/4/142 214/4/142
f 213/4/143 214/4/143 216/4/143
f 215/4/144 216/4/144 218/4/144
f 210/4/101 208/4/101 206/4/101
f 206/4/101 220/4/101 218/4/101
f 218/4/101 216/4/101 214/4/101
f 214/4/101 212/4/101 210/4/101
f 210/4/101 206/4/101 218/4/101
f 218/4/145 220/4/145 219/4/145
f 220/4/146 206/4/146 205/4/146
f 219/4/99 205/4/99 207/4/99
f 207/4/99 209/4/99 211/4/99
f 211/4/99 213/4/99 215/4/99
f 215/4/99 217/4/99 219/4/99
f 219/4/99 207/4/99 211/4/99
f 222/5/139 224/5/139 223/5/139
f 223/5/140 224/5/140 226/5/140
f 226/5/141 228/5/141 227/5/141
f 228/5/142 230/5/142 229/5/142
f 230/5/143 232/5/143 231/5/143
f 232/5/144 234/5/144 233/5/144
f 226/5/101 224/5/101 222/5/101
f 222/5/101 236/5/101 234/5/101
f 234/5/101 232/5/101 230/5/101
f 230/5/101 228/5/101 226/5/101
f 226/5/101 222/5/101 234/5/101
f 234/5/145 236/5/145 235/5/145
f 235/5/146 236/5/146 222/5/146
f 235/5/99 221/5/99 223/5/99
f 223/5/99 225/5/99 227/5/99
f 227/5/99 229/5/99 231/5/99
f 231/5/99 233/5/99 235/5/99
f 235/5/99 223/5/99 227/5/99
f 238/9/139 240/9/139 239/9/139
f 240/9/140 242/9/140 241/9/140
f 242/9/141 244/9/141 243/9/141
f 243/9/142 244/9/142 246/9/142
f 246/9/143 248/9/143 247/9/143
f 248/9/144 250/9/144 249/9/144
f 242/9/101 240/9/101 238/9/101
f 238/9/101 252/9/101 250/9/101
f 250/9/101 248/9/101 246/9/101
f 246/9/101 244/9/101 242/9/101
f 242/9/101 238/9/101 250/9/101
f 250/9/145 252/9/145 251/9/145
f 252/9/146 238/9/146 237/9/146
f 251/9/99 237/9/99 239/9/99
f 239/9/99 241/9/99 243/9/99
f 243/9/99 245/9/99 247/9/99
f 247/9/99 249/9/99 251/9/99
f 251/9/99 239/9/99 243/9/99
f 253/10/139 254/10/139 256/10/139
f 256/10/140 258/10/140 257/10/140
f 257/10/141 258/10/141 260/10/141
f 260/10/142 262/10/142 261/10/142
f 262/10/143 264/10/143 263/10/143
f 263/10/144 264/10/144 266/10/144
f 258/10/101 256/10/101 254/10/101
f 254/10/101 268/10/101 266/10/101
f 266/10/101 264/10/101 262/10/101
f 262/10/101 260/10/101 258/10/101
f 258/10/101 254/10/101 266/10/101
f 265/10/145 266/10/145 268/10/145
f 268/10/146 254/10/146 253/10/146
f 267/10/99 253/10/99 255/10/99
f 255/10/99 257/10/99 259/10/99
f 259/10/99 261/10/99 263/10/99
f 263/10/99 265/10/99 267/10/99
f 267/10/99 255/10/99 259/10/99
f 270/8/147 272/8/147 271/8/147
f 271/8/148 272/8/148 274/8/148
f 272/8/149 270/8/149 276/8/149
f 274/8/150 276/8/150 275/8/150
f 275/8/151 276/8/151 270/8/151
f 271/8/152 273/8/152 275/8/152
f 278/8/93 280/8/93 279/8/93
f 280/8/96 282/8/96 281/8/96
f 280/8/101 278/8/101 284/8/101
f 282/8/88 284/8/88 283/8/88
f 284/8/90 278/8/90 277/8/90
f 277/8/99 279/8/99 281/8/99
f 286/8/153 288/8/153 287/8/153
f 287/8/154 288/8/154 290/8/154
f 286/8/155 292/8/155 290/8/155
f 289/8/156 290/8/156 292/8/156
f 292/8/157 286/8/157 285/8/157
f 285/8/158 287/8/158 289/8/158
