# Blender 5.1.1
# www.blender.org
o kulkas
v -0.330000 -0.875000 0.290000
v -0.330000 -0.815000 0.350000
v -0.390000 -0.815000 0.290000
v -0.330000 0.815000 0.350000
v -0.330000 0.875000 0.290000
v -0.390000 0.815000 0.290000
v -0.330000 -0.875000 -0.290000
v -0.390000 -0.815000 -0.290000
v -0.330000 -0.815000 -0.350000
v -0.330000 0.875000 -0.290000
v -0.330000 0.815000 -0.350000
v -0.390000 0.815000 -0.290000
v 0.330000 -0.875000 0.290000
v 0.390000 -0.815000 0.290000
v 0.330000 -0.815000 0.350000
v 0.330000 0.875000 0.290000
v 0.330000 0.815000 0.350000
v 0.390000 0.815000 0.290000
v 0.330000 -0.875000 -0.290000
v 0.330000 -0.815000 -0.350000
v 0.390000 -0.815000 -0.290000
v 0.330000 0.875000 -0.290000
v 0.390000 0.815000 -0.290000
v 0.330000 0.815000 -0.350000
v -0.328000 -0.935000 0.288000
v -0.328000 -0.923000 0.300000
v -0.340000 -0.923000 0.288000
v -0.328000 -0.887000 0.300000
v -0.328000 -0.875000 0.288000
v -0.340000 -0.887000 0.288000
v -0.328000 -0.935000 0.252000
v -0.340000 -0.923000 0.252000
v -0.328000 -0.923000 0.240000
v -0.328000 -0.875000 0.252000
v -0.328000 -0.887000 0.240000
v -0.340000 -0.887000 0.252000
v -0.292000 -0.935000 0.288000
v -0.280000 -0.923000 0.288000
v -0.292000 -0.923000 0.300000
v -0.292000 -0.875000 0.288000
v -0.292000 -0.887000 0.300000
v -0.280000 -0.887000 0.288000
v -0.292000 -0.935000 0.252000
v -0.292000 -0.923000 0.240000
v -0.280000 -0.923000 0.252000
v -0.292000 -0.875000 0.252000
v -0.280000 -0.887000 0.252000
v -0.292000 -0.887000 0.240000
v -0.328000 -0.935000 -0.252000
v -0.328000 -0.923000 -0.240000
v -0.340000 -0.923000 -0.252000
v -0.328000 -0.887000 -0.240000
v -0.328000 -0.875000 -0.252000
v -0.340000 -0.887000 -0.252000
v -0.328000 -0.935000 -0.288000
v -0.340000 -0.923000 -0.288000
v -0.328000 -0.923000 -0.300000
v -0.328000 -0.875000 -0.288000
v -0.328000 -0.887000 -0.300000
v -0.340000 -0.887000 -0.288000
v -0.292000 -0.935000 -0.252000
v -0.280000 -0.923000 -0.252000
v -0.292000 -0.923000 -0.240000
v -0.292000 -0.875000 -0.252000
v -0.292000 -0.887000 -0.240000
v -0.280000 -0.887000 -0.252000
v -0.292000 -0.935000 -0.288000
v -0.292000 -0.923000 -0.300000
v -0.280000 -0.923000 -0.288000
v -0.292000 -0.875000 -0.288000
v -0.280000 -0.887000 -0.288000
v -0.292000 -0.887000 -0.300000
v 0.292000 -0.935000 0.288000
v 0.292000 -0.923000 0.300000
v 0.280000 -0.923000 0.288000
v 0.292000 -0.887000 0.300000
v 0.292000 -0.875000 0.288000
v 0.280000 -0.887000 0.288000
v 0.292000 -0.935000 0.252000
v 0.280000 -0.923000 0.252000
v 0.292000 -0.923000 0.240000
v 0.292000 -0.875000 0.252000
v 0.292000 -0.887000 0.240000
v 0.280000 -0.887000 0.252000
v 0.328000 -0.935000 0.288000
v 0.340000 -0.923000 0.288000
v 0.328000 -0.923000 0.300000
v 0.328000 -0.875000 0.288000
v 0.328000 -0.887000 0.300000
v 0.340000 -0.887000 0.288000
v 0.328000 -0.935000 0.252000
v 0.328000 -0.923000 0.240000
v 0.340000 -0.923000 0.252000
v 0.328000 -0.875000 0.252000
v 0.340000 -0.887000 0.252000
v 0.328000 -0.887000 0.240000
v 0.292000 -0.935000 -0.252000
v 0.292000 -0.923000 -0.240000
v 0.280000 -0.923000 -0.252000
v 0.292000 -0.887000 -0.240000
v 0.292000 -0.875000 -0.252000
v 0.280000 -0.887000 -0.252000
v 0.292000 -0.935000 -0.288000
v 0.280000 -0.923000 -0.288000
v 0.292000 -0.923000 -0.300000
v 0.292000 -0.875000 -0.288000
v 0.292000 -0.887000 -0.300000
v 0.280000 -0.887000 -0.288000
v 0.328000 -0.935000 -0.252000
v 0.340000 -0.923000 -0.252000
v 0.328000 -0.923000 -0.240000
v 0.328000 -0.875000 -0.252000
v 0.328000 -0.887000 -0.240000
v 0.340000 -0.887000 -0.252000
v 0.328000 -0.935000 -0.288000
v 0.328000 -0.923000 -0.300000
v 0.340000 -0.923000 -0.288000
v 0.328000 -0.875000 -0.288000
v 0.340000 -0.887000 -0.288000
v 0.328000 -0.887000 -0.300000
v -0.370000 0.265000 0.365000
v -0.370000 0.285000 0.365000
v -0.370000 0.265000 0.345000
v -0.370000 0.285000 0.345000
v 0.370000 0.265000 0.365000
v 0.370000 0.285000 0.365000
v 0.370000 0.265000 0.345000
v 0.370000 0.285000 0.345000
v 0.282000 0.385000 0.393000
v 0.282000 0.397000 0.405000
v 0.270000 0.397000 0.393000
v 0.282000 0.673000 0.405000
v 0.282000 0.685000 0.393000
v 0.270000 0.673000 0.393000
v 0.282000 0.385000 0.367000
v 0.270000 0.397000 0.367000
v 0.282000 0.397000 0.355000
v 0.282000 0.685000 0.367000
v 0.282000 0.673000 0.355000
v 0.270000 0.673000 0.367000
v 0.298000 0.385000 0.393000
v 0.310000 0.397000 0.393000
v 0.298000 0.397000 0.405000
v 0.298000 0.685000 0.393000
v 0.298000 0.673000 0.405000
v 0.310000 0.673000 0.393000
v 0.298000 0.385000 0.367000
v 0.298000 0.397000 0.355000
v 0.310000 0.397000 0.367000
v 0.298000 0.685000 0.367000
v 0.310000 0.673000 0.367000
v 0.298000 0.673000 0.355000
v 0.282000 -0.315000 0.393000
v 0.282000 -0.303000 0.405000
v 0.270000 -0.303000 0.393000
v 0.282000 0.093000 0.405000
v 0.282000 0.105000 0.393000
v 0.270000 0.093000 0.393000
v 0.282000 -0.315000 0.367000
v 0.270000 -0.303000 0.367000
v 0.282000 -0.303000 0.355000
v 0.282000 0.105000 0.367000
v 0.282000 0.093000 0.355000
v 0.270000 0.093000 0.367000
v 0.298000 -0.315000 0.393000
v 0.310000 -0.303000 0.393000
v 0.298000 -0.303000 0.405000
v 0.298000 0.105000 0.393000
v 0.298000 0.093000 0.405000
v 0.310000 0.093000 0.393000
v 0.298000 -0.315000 0.367000
v 0.298000 -0.303000 0.355000
v 0.310000 -0.303000 0.367000
v 0.298000 0.105000 0.367000
v 0.310000 0.093000 0.367000
v 0.298000 0.093000 0.355000
v -0.260000 0.645000 0.360000
v -0.260000 0.695000 0.360000
v -0.260000 0.645000 0.350000
v -0.260000 0.695000 0.350000
v -0.100000 0.645000 0.360000
v -0.100000 0.695000 0.360000
v -0.100000 0.645000 0.350000
v -0.100000 0.695000 0.350000
v -0.237736 -0.078287 0.361000
v -0.221753 0.121073 0.361000
v -0.237736 -0.078287 0.351000
v -0.221753 0.121073 0.351000
v -0.078247 -0.091073 0.361000
v -0.062264 0.108287 0.361000
v -0.078247 -0.091073 0.351000
v -0.062264 0.108287 0.351000
v -0.150000 0.130000 0.370000
v -0.150000 0.080000 0.370000
v -0.142653 0.126651 0.359887
v -0.137274 0.117500 0.352484
v -0.135305 0.105000 0.349775
v -0.137274 0.092500 0.352484
v -0.142653 0.083349 0.359887
v -0.138112 0.126651 0.366137
v -0.129409 0.117500 0.363310
v -0.126224 0.105000 0.362275
v -0.129409 0.092500 0.363310
v -0.138112 0.083349 0.366137
v -0.138112 0.126651 0.373863
v -0.129409 0.117500 0.376690
v -0.126224 0.105000 0.377725
v -0.129409 0.092500 0.376690
v -0.138112 0.083349 0.373863
v -0.142653 0.126651 0.380113
v -0.137274 0.117500 0.387516
v -0.135305 0.105000 0.390225
v -0.137274 0.092500 0.387516
v -0.142653 0.083349 0.380113
v -0.150000 0.126651 0.382500
v -0.150000 0.117500 0.391651
v -0.150000 0.105000 0.395000
v -0.150000 0.092500 0.391651
v -0.150000 0.083349 0.382500
v -0.157347 0.126651 0.380113
v -0.162726 0.117500 0.387516
v -0.164695 0.105000 0.390225
v -0.162726 0.092500 0.387516
v -0.157347 0.083349 0.380113
v -0.161888 0.126651 0.373863
v -0.170591 0.117500 0.376690
v -0.173776 0.105000 0.377725
v -0.170591 0.092500 0.376690
v -0.161888 0.083349 0.373863
v -0.161888 0.126651 0.366137
v -0.170591 0.117500 0.363310
v -0.173776 0.105000 0.362275
v -0.170591 0.092500 0.363310
v -0.161888 0.083349 0.366137
v -0.157347 0.126651 0.359887
v -0.162726 0.117500 0.352484
v -0.164695 0.105000 0.349775
v -0.162726 0.092500 0.352484
v -0.157347 0.083349 0.359887
v -0.150000 0.126651 0.357500
v -0.150000 0.117500 0.348349
v -0.150000 0.105000 0.345000
v -0.150000 0.092500 0.348349
v -0.150000 0.083349 0.357500
v -0.260000 0.875000 0.110000
v -0.260000 0.915000 0.150000
v -0.300000 0.915000 0.110000
v -0.260000 0.975000 0.150000
v -0.260000 1.015000 0.110000
v -0.300000 0.975000 0.110000
v -0.260000 0.875000 -0.110000
v -0.300000 0.915000 -0.110000
v -0.260000 0.915000 -0.150000
v -0.260000 1.015000 -0.110000
v -0.260000 0.975000 -0.150000
v -0.300000 0.975000 -0.110000
v 0.020000 0.875000 0.110000
v 0.060000 0.915000 0.110000
v 0.020000 0.915000 0.150000
v 0.020000 1.015000 0.110000
v 0.020000 0.975000 0.150000
v 0.060000 0.975000 0.110000
v 0.020000 0.875000 -0.110000
v 0.020000 0.915000 -0.150000
v 0.060000 0.915000 -0.110000
v 0.020000 1.015000 -0.110000
v 0.060000 0.975000 -0.110000
v 0.020000 0.975000 -0.150000
v 0.220000 0.875000 -0.070000
v 0.220000 1.055000 -0.070000
v 0.269497 0.875000 -0.049497
v 0.269497 1.055000 -0.049497
v 0.290000 0.875000 0.000000
v 0.290000 1.055000 0.000000
v 0.269497 0.875000 0.049497
v 0.269497 1.055000 0.049497
v 0.220000 0.875000 0.070000
v 0.220000 1.055000 0.070000
v 0.170503 0.875000 0.049497
v 0.170503 1.055000 0.049497
v 0.150000 0.875000 0.000000
v 0.150000 1.055000 0.000000
v 0.170503 0.875000 -0.049497
v 0.170503 1.055000 -0.049497
vn -0.5774 -0.5773 0.5773
vn -0.5774 0.5773 0.5773
vn -0.5774 -0.5773 -0.5773
vn -0.5774 0.5773 -0.5773
vn 0.5774 -0.5773 0.5773
vn 0.5774 0.5773 0.5773
vn 0.5774 -0.5773 -0.5773
vn 0.5774 0.5773 -0.5773
vn -0.7071 -0.7071 -0.0000
vn -0.7071 -0.0000 0.7071
vn -0.7071 0.7071 -0.0000
vn -0.7071 -0.0000 -0.7071
vn -0.0000 -0.7071 -0.7071
vn -0.0000 0.7071 -0.7071
vn 0.7071 -0.0000 -0.7071
vn 0.7071 -0.7071 -0.0000
vn 0.7071 0.7071 -0.0000
vn 0.7071 -0.0000 0.7071
vn -0.0000 -0.7071 0.7071
vn -0.0000 0.7071 0.7071
vn -0.0000 -1.0000 -0.0000
vn -1.0000 -0.0000 -0.0000
vn -0.0000 -0.0000 1.0000
vn -0.0000 1.0000 -0.0000
vn -0.0000 -0.0000 -1.0000
vn 1.0000 -0.0000 -0.0000
vn -0.5774 -0.5774 0.5773
vn -0.5773 0.5774 0.5773
vn -0.5773 0.5774 -0.5773
vn 0.5774 -0.5774 0.5773
vn 0.5773 0.5774 0.5773
vn 0.5773 0.5774 -0.5773
vn -0.5774 -0.5774 -0.5773
vn 0.5774 -0.5774 -0.5773
vn -0.5773 -0.5773 0.5774
vn -0.5774 0.5773 0.5774
vn -0.5773 -0.5774 -0.5774
vn -0.5774 0.5773 -0.5774
vn 0.5773 -0.5773 0.5774
vn 0.5774 0.5773 0.5774
vn 0.5773 -0.5774 -0.5774
vn 0.5774 0.5773 -0.5774
vn -0.5773 0.5774 -0.5774
vn 0.5773 0.5774 -0.5774
vn -0.9968 0.0799 -0.0000
vn 0.9968 -0.0799 -0.0000
vn -0.0799 -0.9968 -0.0000
vn 0.0799 0.9968 -0.0000
vn 0.0838 -0.9625 -0.2579
vn 0.2994 -0.2469 -0.9216
vn 0.2239 0.6892 -0.6892
vn 0.2239 -0.6892 -0.6892
vn 0.2994 0.2469 -0.9216
vn 0.0838 0.9625 -0.2579
vn 0.5862 0.6892 -0.4259
vn 0.5862 -0.6892 -0.4259
vn 0.7840 0.2469 -0.5696
vn 0.2194 0.9625 -0.1594
vn 0.2194 -0.9625 -0.1594
vn 0.7840 -0.2469 -0.5696
vn 0.7246 -0.6892 -0.0000
vn 0.9690 0.2469 -0.0000
vn 0.2712 0.9625 -0.0000
vn 0.2712 -0.9625 -0.0000
vn 0.9690 -0.2469 -0.0000
vn 0.7246 0.6892 -0.0000
vn 0.5862 -0.6892 0.4259
vn 0.7840 0.2469 0.5696
vn 0.2194 0.9625 0.1594
vn 0.2194 -0.9625 0.1594
vn 0.7840 -0.2469 0.5696
vn 0.5862 0.6891 0.4259
vn 0.2239 -0.6892 0.6892
vn 0.2994 0.2469 0.9216
vn 0.0838 0.9625 0.2579
vn 0.0838 -0.9625 0.2579
vn 0.2994 -0.2469 0.9216
vn 0.2239 0.6892 0.6892
vn -0.2239 -0.6892 0.6892
vn -0.2994 0.2469 0.9216
vn -0.0838 0.9625 0.2579
vn -0.0838 -0.9625 0.2579
vn -0.2994 -0.2469 0.9216
vn -0.2239 0.6892 0.6892
vn -0.7840 0.2469 0.5696
vn -0.2194 0.9625 0.1594
vn -0.2194 -0.9625 0.1594
vn -0.7840 -0.2469 0.5696
vn -0.5862 0.6892 0.4259
vn -0.5862 -0.6892 0.4259
vn -0.2712 0.9625 -0.0000
vn -0.2712 -0.9625 -0.0000
vn -0.9690 -0.2469 -0.0000
vn -0.7246 0.6892 -0.0000
vn -0.7246 -0.6891 -0.0000
vn -0.9690 0.2469 -0.0000
vn -0.2194 -0.9625 -0.1594
vn -0.7840 -0.2469 -0.5696
vn -0.5862 0.6892 -0.4259
vn -0.5862 -0.6892 -0.4259
vn -0.7840 0.2469 -0.5696
vn -0.2194 0.9625 -0.1594
vn -0.0838 -0.9625 -0.2579
vn -0.2994 -0.2469 -0.9216
vn -0.2239 0.6892 -0.6892
vn -0.2239 -0.6892 -0.6892
vn -0.2994 0.2469 -0.9216
vn -0.0838 0.9625 -0.2579
vn -0.5773 -0.5774 0.5774
vn -0.5773 0.5774 0.5774
vn 0.5773 -0.5774 0.5774
vn 0.5773 0.5774 0.5774
vn 0.3827 -0.0000 -0.9239
vn 0.9239 -0.0000 -0.3827
vn 0.9239 -0.0000 0.3827
vn 0.3827 -0.0000 0.9239
vn -0.3827 -0.0000 0.9239
vn -0.9239 -0.0000 0.3827
vn -0.9239 -0.0000 -0.3827
vn -0.3827 -0.0000 -0.9239
vn 0.2239 0.6891 -0.6892
vn 0.7246 0.6891 -0.0000
vn 0.5862 0.6892 0.4259
vn -0.7246 -0.6892 -0.0000
vn -0.2239 0.6891 -0.6892
vt 0.343750 0.968750
vt 0.781250 0.968750
vt 0.843750 0.968750
vt 0.468750 0.968750
vt 0.843750 0.906250
vt 0.718750 0.843750
vt 0.593750 0.843750
vt 0.468750 0.843750
s 0
f 1/1/1 2/1/1 3/1/1
f 4/1/2 5/1/2 6/1/2
f 7/1/3 8/1/3 9/1/3
f 10/1/4 11/1/4 12/1/4
f 13/1/5 14/1/5 15/1/5
f 16/1/6 17/1/6 18/1/6
f 19/1/7 20/1/7 21/1/7
f 22/1/8 23/1/8 24/1/8
f 1/1/9 8/1/9 7/1/9
f 4/1/10 3/1/10 2/1/10
f 10/1/11 6/1/11 5/1/11
f 9/1/12 12/1/12 11/1/12
f 7/1/13 20/1/13 19/1/13
f 22/1/14 11/1/14 10/1/14
f 21/1/15 24/1/15 23/1/15
f 19/1/16 14/1/16 13/1/16
f 16/1/17 23/1/17 22/1/17
f 15/1/18 18/1/18 17/1/18
f 13/1/19 2/1/19 1/1/19
f 5/1/20 17/1/20 16/1/20
f 19/1/21 1/1/21 7/1/21
f 6/1/22 8/1/22 3/1/22
f 17/1/23 2/1/23 15/1/23
f 10/1/24 16/1/24 22/1/24
f 11/1/25 20/1/25 9/1/25
f 23/1/26 14/1/26 21/1/26
f 25/2/27 26/2/27 27/2/27
f 28/2/28 29/2/28 30/2/28
f 31/2/3 32/2/3 33/2/3
f 34/2/29 35/2/29 36/2/29
f 37/2/30 38/2/30 39/2/30
f 40/2/31 41/2/31 42/2/31
f 43/2/7 44/2/7 45/2/7
f 46/2/32 47/2/32 48/2/32
f 25/2/9 32/2/9 31/2/9
f 28/2/10 27/2/10 26/2/10
f 34/2/11 30/2/11 29/2/11
f 33/2/12 36/2/12 35/2/12
f 31/2/13 44/2/13 43/2/13
f 46/2/14 35/2/14 34/2/14
f 45/2/15 48/2/15 47/2/15
f 43/2/16 38/2/16 37/2/16
f 40/2/17 47/2/17 46/2/17
f 39/2/18 42/2/18 41/2/18
f 37/2/19 26/2/19 25/2/19
f 29/2/20 41/2/20 40/2/20
f 43/2/21 25/2/21 31/2/21
f 30/2/22 32/2/22 27/2/22
f 41/2/23 26/2/23 39/2/23
f 34/2/24 40/2/24 46/2/24
f 35/2/25 44/2/25 33/2/25
f 47/2/26 38/2/26 45/2/26
f 49/2/1 50/2/1 51/2/1
f 52/2/28 53/2/28 54/2/28
f 55/2/33 56/2/33 57/2/33
f 58/2/29 59/2/29 60/2/29
f 61/2/5 62/2/5 63/2/5
f 64/2/31 65/2/31 66/2/31
f 67/2/34 68/2/34 69/2/34
f 70/2/32 71/2/32 72/2/32
f 49/2/9 56/2/9 55/2/9
f 52/2/10 51/2/10 50/2/10
f 58/2/11 54/2/11 53/2/11
f 57/2/12 60/2/12 59/2/12
f 55/2/13 68/2/13 67/2/13
f 70/2/14 59/2/14 58/2/14
f 69/2/15 72/2/15 71/2/15
f 67/2/16 62/2/16 61/2/16
f 64/2/17 71/2/17 70/2/17
f 63/2/18 66/2/18 65/2/18
f 61/2/19 50/2/19 49/2/19
f 53/2/20 65/2/20 64/2/20
f 67/2/21 49/2/21 55/2/21
f 54/2/22 56/2/22 51/2/22
f 65/2/23 50/2/23 63/2/23
f 58/2/24 64/2/24 70/2/24
f 59/2/25 68/2/25 57/2/25
f 71/2/26 62/2/26 69/2/26
f 73/2/27 74/2/27 75/2/27
f 76/2/28 77/2/28 78/2/28
f 79/2/3 80/2/3 81/2/3
f 82/2/29 83/2/29 84/2/29
f 85/2/30 86/2/30 87/2/30
f 88/2/31 89/2/31 90/2/31
f 91/2/7 92/2/7 93/2/7
f 94/2/32 95/2/32 96/2/32
f 73/2/9 80/2/9 79/2/9
f 76/2/10 75/2/10 74/2/10
f 82/2/11 78/2/11 77/2/11
f 81/2/12 84/2/12 83/2/12
f 79/2/13 92/2/13 91/2/13
f 94/2/14 83/2/14 82/2/14
f 93/2/15 96/2/15 95/2/15
f 91/2/16 86/2/16 85/2/16
f 88/2/17 95/2/17 94/2/17
f 87/2/18 90/2/18 89/2/18
f 85/2/19 74/2/19 73/2/19
f 77/2/20 89/2/20 88/2/20
f 91/2/21 73/2/21 79/2/21
f 78/2/22 80/2/22 75/2/22
f 89/2/23 74/2/23 87/2/23
f 82/2/24 88/2/24 94/2/24
f 83/2/25 92/2/25 81/2/25
f 95/2/26 86/2/26 93/2/26
f 97/2/1 98/2/1 99/2/1
f 100/2/28 101/2/28 102/2/28
f 103/2/33 104/2/33 105/2/33
f 106/2/29 107/2/29 108/2/29
f 109/2/5 110/2/5 111/2/5
f 112/2/31 113/2/31 114/2/31
f 115/2/34 116/2/34 117/2/34
f 118/2/32 119/2/32 120/2/32
f 97/2/9 104/2/9 103/2/9
f 100/2/10 99/2/10 98/2/10
f 106/2/11 102/2/11 101/2/11
f 105/2/12 108/2/12 107/2/12
f 103/2/13 116/2/13 115/2/13
f 118/2/14 107/2/14 106/2/14
f 117/2/15 120/2/15 119/2/15
f 115/2/16 110/2/16 109/2/16
f 112/2/17 119/2/17 118/2/17
f 111/2/18 114/2/18 113/2/18
f 109/2/19 98/2/19 97/2/19
f 101/2/20 113/2/20 112/2/20
f 115/2/21 97/2/21 103/2/21
f 102/2/22 104/2/22 99/2/22
f 113/2/23 98/2/23 111/2/23
f 106/2/24 112/2/24 118/2/24
f 107/2/25 116/2/25 105/2/25
f 119/2/26 110/2/26 117/2/26
f 122/3/22 123/3/22 121/3/22
f 124/3/25 127/3/25 123/3/25
f 128/3/26 125/3/26 127/3/26
f 126/3/23 121/3/23 125/3/23
f 127/3/21 121/3/21 123/3/21
f 124/3/24 126/3/24 128/3/24
f 129/3/35 130/3/35 131/3/35
f 132/3/36 133/3/36 134/3/36
f 135/3/37 136/3/37 137/3/37
f 138/3/38 139/3/38 140/3/38
f 141/3/39 142/3/39 143/3/39
f 144/3/40 145/3/40 146/3/40
f 147/3/41 148/3/41 149/3/41
f 150/3/42 151/3/42 152/3/42
f 129/3/9 136/3/9 135/3/9
f 132/3/10 131/3/10 130/3/10
f 138/3/11 134/3/11 133/3/11
f 137/3/12 140/3/12 139/3/12
f 135/3/13 148/3/13 147/3/13
f 150/3/14 139/3/14 138/3/14
f 149/3/15 152/3/15 151/3/15
f 147/3/16 142/3/16 141/3/16
f 144/3/17 151/3/17 150/3/17
f 143/3/18 146/3/18 145/3/18
f 141/3/19 130/3/19 129/3/19
f 133/3/20 145/3/20 144/3/20
f 147/3/21 129/3/21 135/3/21
f 134/3/22 136/3/22 131/3/22
f 145/3/23 130/3/23 143/3/23
f 138/3/24 144/3/24 150/3/24
f 139/3/25 148/3/25 137/3/25
f 151/3/26 142/3/26 149/3/26
f 153/3/35 154/3/35 155/3/35
f 156/3/36 157/3/36 158/3/36
f 159/3/37 160/3/37 161/3/37
f 162/3/43 163/3/43 164/3/43
f 165/3/39 166/3/39 167/3/39
f 168/3/40 169/3/40 170/3/40
f 171/3/41 172/3/41 173/3/41
f 174/3/44 175/3/44 176/3/44
f 153/3/9 160/3/9 159/3/9
f 156/3/10 155/3/10 154/3/10
f 162/3/11 158/3/11 157/3/11
f 161/3/12 164/3/12 163/3/12
f 159/3/13 172/3/13 171/3/13
f 174/3/14 163/3/14 162/3/14
f 173/3/15 176/3/15 175/3/15
f 171/3/16 166/3/16 165/3/16
f 168/3/17 175/3/17 174/3/17
f 167/3/18 170/3/18 169/3/18
f 165/3/19 154/3/19 153/3/19
f 157/3/20 169/3/20 168/3/20
f 171/3/21 153/3/21 159/3/21
f 158/3/22 160/3/22 155/3/22
f 169/3/23 154/3/23 167/3/23
f 162/3/24 168/3/24 174/3/24
f 163/3/25 172/3/25 161/3/25
f 175/3/26 166/3/26 173/3/26
f 178/4/22 179/4/22 177/4/22
f 180/4/25 183/4/25 179/4/25
f 184/4/26 181/4/26 183/4/26
f 182/4/23 177/4/23 181/4/23
f 183/4/21 177/4/21 179/4/21
f 180/4/24 182/4/24 184/4/24
f 186/5/45 187/5/45 185/5/45
f 188/5/25 191/5/25 187/5/25
f 192/5/46 189/5/46 191/5/46
f 190/5/23 185/5/23 189/5/23
f 191/5/47 185/5/47 187/5/47
f 188/5/48 190/5/48 192/5/48
f 194/6/49 244/6/49 199/6/49
f 242/6/50 198/6/50 243/6/50
f 241/6/51 195/6/51 196/6/51
f 244/6/52 198/6/52 199/6/52
f 241/6/53 197/6/53 242/6/53
f 240/6/54 193/6/54 195/6/54
f 195/6/55 201/6/55 196/6/55
f 199/6/56 203/6/56 204/6/56
f 196/6/57 202/6/57 197/6/57
f 195/6/58 193/6/58 200/6/58
f 194/6/59 199/6/59 204/6/59
f 198/6/60 202/6/60 203/6/60
f 203/6/61 209/6/61 204/6/61
f 201/6/62 207/6/62 202/6/62
f 200/6/63 193/6/63 205/6/63
f 194/6/64 204/6/64 209/6/64
f 202/6/65 208/6/65 203/6/65
f 200/6/66 206/6/66 201/6/66
f 209/6/67 213/6/67 214/6/67
f 206/6/68 212/6/68 207/6/68
f 205/6/69 193/6/69 210/6/69
f 194/6/70 209/6/70 214/6/70
f 207/6/71 213/6/71 208/6/71
f 206/6/72 210/6/72 211/6/72
f 213/6/73 219/6/73 214/6/73
f 211/6/74 217/6/74 212/6/74
f 210/6/75 193/6/75 215/6/75
f 194/6/76 214/6/76 219/6/76
f 212/6/77 218/6/77 213/6/77
f 210/6/78 216/6/78 211/6/78
f 218/6/79 224/6/79 219/6/79
f 216/6/80 222/6/80 217/6/80
f 215/6/81 193/6/81 220/6/81
f 194/6/82 219/6/82 224/6/82
f 218/6/83 222/6/83 223/6/83
f 215/6/84 221/6/84 216/6/84
f 221/6/85 227/6/85 222/6/85
f 220/6/86 193/6/86 225/6/86
f 194/6/87 224/6/87 229/6/87
f 222/6/88 228/6/88 223/6/88
f 221/6/89 225/6/89 226/6/89
f 223/6/90 229/6/90 224/6/90
f 225/6/91 193/6/91 230/6/91
f 194/6/92 229/6/92 234/6/92
f 227/6/93 233/6/93 228/6/93
f 225/6/94 231/6/94 226/6/94
f 228/6/95 234/6/95 229/6/95
f 226/6/96 232/6/96 227/6/96
f 194/6/97 234/6/97 239/6/97
f 232/6/98 238/6/98 233/6/98
f 230/6/99 236/6/99 231/6/99
f 233/6/100 239/6/100 234/6/100
f 231/6/101 237/6/101 232/6/101
f 230/6/102 193/6/102 235/6/102
f 194/6/103 239/6/103 244/6/103
f 237/6/104 243/6/104 238/6/104
f 235/6/105 241/6/105 236/6/105
f 238/6/106 244/6/106 239/6/106
f 237/6/107 241/6/107 242/6/107
f 235/6/108 193/6/108 240/6/108
f 245/7/109 246/7/109 247/7/109
f 248/7/110 249/7/110 250/7/110
f 251/7/37 252/7/37 253/7/37
f 254/7/43 255/7/43 256/7/43
f 257/7/111 258/7/111 259/7/111
f 260/7/112 261/7/112 262/7/112
f 263/7/41 264/7/41 265/7/41
f 266/7/44 267/7/44 268/7/44
f 245/7/9 252/7/9 251/7/9
f 248/7/10 247/7/10 246/7/10
f 254/7/11 250/7/11 249/7/11
f 253/7/12 256/7/12 255/7/12
f 251/7/13 264/7/13 263/7/13
f 254/7/14 268/7/14 255/7/14
f 265/7/15 268/7/15 267/7/15
f 263/7/16 258/7/16 257/7/16
f 260/7/17 267/7/17 266/7/17
f 259/7/18 262/7/18 261/7/18
f 245/7/19 259/7/19 246/7/19
f 260/7/20 248/7/20 261/7/20
f 263/7/21 245/7/21 251/7/21
f 250/7/22 252/7/22 247/7/22
f 261/7/23 246/7/23 259/7/23
f 254/7/24 260/7/24 266/7/24
f 255/7/25 264/7/25 253/7/25
f 267/7/26 258/7/26 265/7/26
f 270/8/113 271/8/113 269/8/113
f 272/8/114 273/8/114 271/8/114
f 274/8/115 275/8/115 273/8/115
f 276/8/116 277/8/116 275/8/116
f 278/8/117 279/8/117 277/8/117
f 280/8/118 281/8/118 279/8/118
f 282/8/24 278/8/24 274/8/24
f 282/8/119 283/8/119 281/8/119
f 284/8/120 269/8/120 283/8/120
f 275/8/21 279/8/21 283/8/21
f 1/1/9 3/1/9 8/1/9
f 4/1/10 6/1/10 3/1/10
f 10/1/11 12/1/11 6/1/11
f 9/1/12 8/1/12 12/1/12
f 7/1/13 9/1/13 20/1/13
f 22/1/14 24/1/14 11/1/14
f 21/1/15 20/1/15 24/1/15
f 19/1/16 21/1/16 14/1/16
f 16/1/17 18/1/17 23/1/17
f 15/1/18 14/1/18 18/1/18
f 13/1/19 15/1/19 2/1/19
f 5/1/20 4/1/20 17/1/20
f 19/1/21 13/1/21 1/1/21
f 6/1/22 12/1/22 8/1/22
f 17/1/23 4/1/23 2/1/23
f 10/1/24 5/1/24 16/1/24
f 11/1/25 24/1/25 20/1/25
f 23/1/26 18/1/26 14/1/26
f 25/2/9 27/2/9 32/2/9
f 28/2/10 30/2/10 27/2/10
f 34/2/11 36/2/11 30/2/11
f 33/2/12 32/2/12 36/2/12
f 31/2/13 33/2/13 44/2/13
f 46/2/14 48/2/14 35/2/14
f 45/2/15 44/2/15 48/2/15
f 43/2/16 45/2/16 38/2/16
f 40/2/17 42/2/17 47/2/17
f 39/2/18 38/2/18 42/2/18
f 37/2/19 39/2/19 26/2/19
f 29/2/20 28/2/20 41/2/20
f 43/2/21 37/2/21 25/2/21
f 30/2/22 36/2/22 32/2/22
f 41/2/23 28/2/23 26/2/23
f 34/2/24 29/2/24 40/2/24
f 35/2/25 48/2/25 44/2/25
f 47/2/26 42/2/26 38/2/26
f 49/2/9 51/2/9 56/2/9
f 52/2/10 54/2/10 51/2/10
f 58/2/11 60/2/11 54/2/11
f 57/2/12 56/2/12 60/2/12
f 55/2/13 57/2/13 68/2/13
f 70/2/14 72/2/14 59/2/14
f 69/2/15 68/2/15 72/2/15
f 67/2/16 69/2/16 62/2/16
f 64/2/17 66/2/17 71/2/17
f 63/2/18 62/2/18 66/2/18
f 61/2/19 63/2/19 50/2/19
f 53/2/20 52/2/20 65/2/20
f 67/2/21 61/2/21 49/2/21
f 54/2/22 60/2/22 56/2/22
f 65/2/23 52/2/23 50/2/23
f 58/2/24 53/2/24 64/2/24
f 59/2/25 72/2/25 68/2/25
f 71/2/26 66/2/26 62/2/26
f 73/2/9 75/2/9 80/2/9
f 76/2/10 78/2/10 75/2/10
f 82/2/11 84/2/11 78/2/11
f 81/2/12 80/2/12 84/2/12
f 79/2/13 81/2/13 92/2/13
f 94/2/14 96/2/14 83/2/14
f 93/2/15 92/2/15 96/2/15
f 91/2/16 93/2/16 86/2/16
f 88/2/17 90/2/17 95/2/17
f 87/2/18 86/2/18 90/2/18
f 85/2/19 87/2/19 74/2/19
f 77/2/20 76/2/20 89/2/20
f 91/2/21 85/2/21 73/2/21
f 78/2/22 84/2/22 80/2/22
f 89/2/23 76/2/23 74/2/23
f 82/2/24 77/2/24 88/2/24
f 83/2/25 96/2/25 92/2/25
f 95/2/26 90/2/26 86/2/26
f 97/2/9 99/2/9 104/2/9
f 100/2/10 102/2/10 99/2/10
f 106/2/11 108/2/11 102/2/11
f 105/2/12 104/2/12 108/2/12
f 103/2/13 105/2/13 116/2/13
f 118/2/14 120/2/14 107/2/14
f 117/2/15 116/2/15 120/2/15
f 115/2/16 117/2/16 110/2/16
f 112/2/17 114/2/17 119/2/17
f 111/2/18 110/2/18 114/2/18
f 109/2/19 111/2/19 98/2/19
f 101/2/20 100/2/20 113/2/20
f 115/2/21 109/2/21 97/2/21
f 102/2/22 108/2/22 104/2/22
f 113/2/23 100/2/23 98/2/23
f 106/2/24 101/2/24 112/2/24
f 107/2/25 120/2/25 116/2/25
f 119/2/26 114/2/26 110/2/26
f 122/3/22 124/3/22 123/3/22
f 124/3/25 128/3/25 127/3/25
f 128/3/26 126/3/26 125/3/26
f 126/3/23 122/3/23 121/3/23
f 127/3/21 125/3/21 121/3/21
f 124/3/24 122/3/24 126/3/24
f 129/3/9 131/3/9 136/3/9
f 132/3/10 134/3/10 131/3/10
f 138/3/11 140/3/11 134/3/11
f 137/3/12 136/3/12 140/3/12
f 135/3/13 137/3/13 148/3/13
f 150/3/14 152/3/14 139/3/14
f 149/3/15 148/3/15 152/3/15
f 147/3/16 149/3/16 142/3/16
f 144/3/17 146/3/17 151/3/17
f 143/3/18 142/3/18 146/3/18
f 141/3/19 143/3/19 130/3/19
f 133/3/20 132/3/20 145/3/20
f 147/3/21 141/3/21 129/3/21
f 134/3/22 140/3/22 136/3/22
f 145/3/23 132/3/23 130/3/23
f 138/3/24 133/3/24 144/3/24
f 139/3/25 152/3/25 148/3/25
f 151/3/26 146/3/26 142/3/26
f 153/3/9 155/3/9 160/3/9
f 156/3/10 158/3/10 155/3/10
f 162/3/11 164/3/11 158/3/11
f 161/3/12 160/3/12 164/3/12
f 159/3/13 161/3/13 172/3/13
f 174/3/14 176/3/14 163/3/14
f 173/3/15 172/3/15 176/3/15
f 171/3/16 173/3/16 166/3/16
f 168/3/17 170/3/17 175/3/17
f 167/3/18 166/3/18 170/3/18
f 165/3/19 167/3/19 154/3/19
f 157/3/20 156/3/20 169/3/20
f 171/3/21 165/3/21 153/3/21
f 158/3/22 164/3/22 160/3/22
f 169/3/23 156/3/23 154/3/23
f 162/3/24 157/3/24 168/3/24
f 163/3/25 176/3/25 172/3/25
f 175/3/26 170/3/26 166/3/26
f 178/4/22 180/4/22 179/4/22
f 180/4/25 184/4/25 183/4/25
f 184/4/26 182/4/26 181/4/26
f 182/4/23 178/4/23 177/4/23
f 183/4/21 181/4/21 177/4/21
f 180/4/24 178/4/24 182/4/24
f 186/5/45 188/5/45 187/5/45
f 188/5/25 192/5/25 191/5/25
f 192/5/46 190/5/46 189/5/46
f 190/5/23 186/5/23 185/5/23
f 191/5/47 189/5/47 185/5/47
f 188/5/48 186/5/48 190/5/48
f 242/6/50 197/6/50 198/6/50
f 241/6/121 240/6/121 195/6/121
f 244/6/52 243/6/52 198/6/52
f 241/6/53 196/6/53 197/6/53
f 195/6/55 200/6/55 201/6/55
f 199/6/56 198/6/56 203/6/56
f 196/6/57 201/6/57 202/6/57
f 198/6/60 197/6/60 202/6/60
f 203/6/61 208/6/61 209/6/61
f 201/6/62 206/6/62 207/6/62
f 202/6/65 207/6/65 208/6/65
f 200/6/122 205/6/122 206/6/122
f 209/6/67 208/6/67 213/6/67
f 206/6/68 211/6/68 212/6/68
f 207/6/71 212/6/71 213/6/71
f 206/6/123 205/6/123 210/6/123
f 213/6/73 218/6/73 219/6/73
f 211/6/74 216/6/74 217/6/74
f 212/6/77 217/6/77 218/6/77
f 210/6/78 215/6/78 216/6/78
f 218/6/79 223/6/79 224/6/79
f 216/6/80 221/6/80 222/6/80
f 218/6/83 217/6/83 222/6/83
f 215/6/84 220/6/84 221/6/84
f 221/6/85 226/6/85 227/6/85
f 222/6/88 227/6/88 228/6/88
f 221/6/89 220/6/89 225/6/89
f 223/6/90 228/6/90 229/6/90
f 227/6/93 232/6/93 233/6/93
f 225/6/94 230/6/94 231/6/94
f 228/6/124 233/6/124 234/6/124
f 226/6/96 231/6/96 232/6/96
f 232/6/98 237/6/98 238/6/98
f 230/6/99 235/6/99 236/6/99
f 233/6/100 238/6/100 239/6/100
f 231/6/101 236/6/101 237/6/101
f 237/6/104 242/6/104 243/6/104
f 235/6/125 240/6/125 241/6/125
f 238/6/106 243/6/106 244/6/106
f 237/6/107 236/6/107 241/6/107
f 245/7/9 247/7/9 252/7/9
f 248/7/10 250/7/10 247/7/10
f 254/7/11 256/7/11 250/7/11
f 253/7/12 252/7/12 256/7/12
f 251/7/13 253/7/13 264/7/13
f 254/7/14 266/7/14 268/7/14
f 265/7/15 264/7/15 268/7/15
f 263/7/16 265/7/16 258/7/16
f 260/7/17 262/7/17 267/7/17
f 259/7/18 258/7/18 262/7/18
f 245/7/19 257/7/19 259/7/19
f 260/7/20 249/7/20 248/7/20
f 263/7/21 257/7/21 245/7/21
f 250/7/22 256/7/22 252/7/22
f 261/7/23 248/7/23 246/7/23
f 254/7/24 249/7/24 260/7/24
f 255/7/25 268/7/25 264/7/25
f 267/7/26 262/7/26 258/7/26
f 270/8/113 272/8/113 271/8/113
f 272/8/114 274/8/114 273/8/114
f 274/8/115 276/8/115 275/8/115
f 276/8/116 278/8/116 277/8/116
f 278/8/117 280/8/117 279/8/117
f 280/8/118 282/8/118 281/8/118
f 274/8/24 272/8/24 270/8/24
f 270/8/24 284/8/24 282/8/24
f 282/8/24 280/8/24 278/8/24
f 278/8/24 276/8/24 274/8/24
f 274/8/24 270/8/24 282/8/24
f 282/8/119 284/8/119 283/8/119
f 284/8/120 270/8/120 269/8/120
f 283/8/21 269/8/21 271/8/21
f 271/8/21 273/8/21 275/8/21
f 275/8/21 277/8/21 279/8/21
f 279/8/21 281/8/21 283/8/21
f 283/8/21 271/8/21 275/8/21
