# Blender 5.1.1
# www.blender.org
o kursi
v -0.013000 -0.230000 0.013000
v -0.013000 -0.218000 0.025000
v -0.025000 -0.218000 0.013000
v -0.013000 0.218000 0.025000
v -0.013000 0.230000 0.013000
v -0.025000 0.218000 0.013000
v -0.013000 -0.230000 -0.013000
v -0.025000 -0.218000 -0.013000
v -0.013000 -0.218000 -0.025000
v -0.013000 0.230000 -0.013000
v -0.013000 0.218000 -0.025000
v -0.025000 0.218000 -0.013000
v 0.013000 -0.230000 0.013000
v 0.025000 -0.218000 0.013000
v 0.013000 -0.218000 0.025000
v 0.013000 0.230000 0.013000
v 0.013000 0.218000 0.025000
v 0.025000 0.218000 0.013000
v 0.013000 -0.230000 -0.013000
v 0.013000 -0.218000 -0.025000
v 0.025000 -0.218000 -0.013000
v 0.013000 0.230000 -0.013000
v 0.025000 0.218000 -0.013000
v 0.013000 0.218000 -0.025000
v -0.013000 -0.230000 -0.387000
v -0.013000 -0.218000 -0.375000
v -0.025000 -0.218000 -0.387000
v -0.013000 0.218000 -0.375000
v -0.013000 0.230000 -0.387000
v -0.025000 0.218000 -0.387000
v -0.013000 -0.230000 -0.413000
v -0.025000 -0.218000 -0.413000
v -0.013000 -0.218000 -0.425000
v -0.013000 0.230000 -0.413000
v -0.013000 0.218000 -0.425000
v -0.025000 0.218000 -0.413000
v 0.013000 -0.230000 -0.387000
v 0.025000 -0.218000 -0.387000
v 0.013000 -0.218000 -0.375000
v 0.013000 0.230000 -0.387000
v 0.013000 0.218000 -0.375000
v 0.025000 0.218000 -0.387000
v 0.013000 -0.230000 -0.413000
v 0.013000 -0.218000 -0.425000
v 0.025000 -0.218000 -0.413000
v 0.013000 0.230000 -0.413000
v 0.025000 0.218000 -0.413000
v 0.013000 0.218000 -0.425000
v 0.387000 -0.230000 0.013000
v 0.387000 -0.218000 0.025000
v 0.375000 -0.218000 0.013000
v 0.387000 0.218000 0.025000
v 0.387000 0.230000 0.013000
v 0.375000 0.218000 0.013000
v 0.387000 -0.230000 -0.013000
v 0.375000 -0.218000 -0.013000
v 0.387000 -0.218000 -0.025000
v 0.387000 0.230000 -0.013000
v 0.387000 0.218000 -0.025000
v 0.375000 0.218000 -0.013000
v 0.413000 -0.230000 0.013000
v 0.425000 -0.218000 0.013000
v 0.413000 -0.218000 0.025000
v 0.413000 0.230000 0.013000
v 0.413000 0.218000 0.025000
v 0.425000 0.218000 0.013000
v 0.413000 -0.230000 -0.013000
v 0.413000 -0.218000 -0.025000
v 0.425000 -0.218000 -0.013000
v 0.413000 0.230000 -0.013000
v 0.425000 0.218000 -0.013000
v 0.413000 0.218000 -0.025000
v 0.387000 -0.230000 -0.387000
v 0.387000 -0.218000 -0.375000
v 0.375000 -0.218000 -0.387000
v 0.387000 0.218000 -0.375000
v 0.387000 0.230000 -0.387000
v 0.375000 0.218000 -0.387000
v 0.387000 -0.230000 -0.413000
v 0.375000 -0.218000 -0.413000
v 0.387000 -0.218000 -0.425000
v 0.387000 0.230000 -0.413000
v 0.387000 0.218000 -0.425000
v 0.375000 0.218000 -0.413000
v 0.413000 -0.230000 -0.387000
v 0.425000 -0.218000 -0.387000
v 0.413000 -0.218000 -0.375000
v 0.413000 0.230000 -0.387000
v 0.413000 0.218000 -0.375000
v 0.425000 0.218000 -0.387000
v 0.413000 -0.230000 -0.413000
v 0.413000 -0.218000 -0.425000
v 0.425000 -0.218000 -0.413000
v 0.413000 0.230000 -0.413000
v 0.425000 0.218000 -0.413000
v 0.413000 0.218000 -0.425000
v -0.030000 0.230000 0.030000
v -0.030000 0.240000 0.040000
v -0.040000 0.240000 0.030000
v -0.030000 0.270000 0.040000
v -0.030000 0.280000 0.030000
v -0.040000 0.270000 0.030000
v -0.030000 0.230000 -0.430000
v -0.040000 0.240000 -0.430000
v -0.030000 0.240000 -0.440000
v -0.030000 0.280000 -0.430000
v -0.030000 0.270000 -0.440000
v -0.040000 0.270000 -0.430000
v 0.430000 0.230000 0.030000
v 0.440000 0.240000 0.030000
v 0.430000 0.240000 0.040000
v 0.430000 0.280000 0.030000
v 0.430000 0.270000 0.040000
v 0.440000 0.270000 0.030000
v 0.430000 0.230000 -0.430000
v 0.430000 0.240000 -0.440000
v 0.440000 0.240000 -0.430000
v 0.430000 0.280000 -0.430000
v 0.440000 0.270000 -0.430000
v 0.430000 0.270000 -0.440000
v 0.002000 0.280000 0.008000
v 0.002000 0.292000 0.020000
v -0.010000 0.292000 0.008000
v 0.002000 0.308000 0.020000
v 0.002000 0.320000 0.008000
v -0.010000 0.308000 0.008000
v 0.002000 0.280000 -0.388000
v -0.010000 0.292000 -0.388000
v 0.002000 0.292000 -0.400000
v 0.002000 0.320000 -0.388000
v 0.002000 0.308000 -0.400000
v -0.010000 0.308000 -0.388000
v 0.398000 0.280000 0.008000
v 0.410000 0.292000 0.008000
v 0.398000 0.292000 0.020000
v 0.398000 0.320000 0.008000
v 0.398000 0.308000 0.020000
v 0.410000 0.308000 0.008000
v 0.398000 0.280000 -0.388000
v 0.398000 0.292000 -0.400000
v 0.410000 0.292000 -0.388000
v 0.398000 0.320000 -0.388000
v 0.410000 0.308000 -0.388000
v 0.398000 0.308000 -0.400000
v -0.013000 0.280000 -0.387000
v -0.013000 0.292000 -0.375000
v -0.025000 0.292000 -0.387000
v -0.013000 0.768000 -0.375000
v -0.013000 0.780000 -0.387000
v -0.025000 0.768000 -0.387000
v -0.013000 0.280000 -0.413000
v -0.025000 0.292000 -0.413000
v -0.013000 0.292000 -0.425000
v -0.013000 0.780000 -0.413000
v -0.013000 0.768000 -0.425000
v -0.025000 0.768000 -0.413000
v 0.013000 0.280000 -0.387000
v 0.025000 0.292000 -0.387000
v 0.013000 0.292000 -0.375000
v 0.013000 0.780000 -0.387000
v 0.013000 0.768000 -0.375000
v 0.025000 0.768000 -0.387000
v 0.013000 0.280000 -0.413000
v 0.013000 0.292000 -0.425000
v 0.025000 0.292000 -0.413000
v 0.013000 0.780000 -0.413000
v 0.025000 0.768000 -0.413000
v 0.013000 0.768000 -0.425000
v 0.387000 0.280000 -0.387000
v 0.387000 0.292000 -0.375000
v 0.375000 0.292000 -0.387000
v 0.387000 0.768000 -0.375000
v 0.387000 0.780000 -0.387000
v 0.375000 0.768000 -0.387000
v 0.387000 0.280000 -0.413000
v 0.375000 0.292000 -0.413000
v 0.387000 0.292000 -0.425000
v 0.387000 0.780000 -0.413000
v 0.387000 0.768000 -0.425000
v 0.375000 0.768000 -0.413000
v 0.413000 0.280000 -0.387000
v 0.425000 0.292000 -0.387000
v 0.413000 0.292000 -0.375000
v 0.413000 0.780000 -0.387000
v 0.413000 0.768000 -0.375000
v 0.425000 0.768000 -0.387000
v 0.413000 0.280000 -0.413000
v 0.413000 0.292000 -0.425000
v 0.425000 0.292000 -0.413000
v 0.413000 0.780000 -0.413000
v 0.425000 0.768000 -0.413000
v 0.413000 0.768000 -0.425000
v -0.028000 0.650000 -0.392000
v -0.028000 0.662000 -0.380000
v -0.040000 0.662000 -0.392000
v -0.028000 0.758000 -0.380000
v -0.028000 0.770000 -0.392000
v -0.040000 0.758000 -0.392000
v -0.028000 0.650000 -0.408000
v -0.040000 0.662000 -0.408000
v -0.028000 0.662000 -0.420000
v -0.028000 0.770000 -0.408000
v -0.028000 0.758000 -0.420000
v -0.040000 0.758000 -0.408000
v 0.428000 0.650000 -0.392000
v 0.440000 0.662000 -0.392000
v 0.428000 0.662000 -0.380000
v 0.428000 0.770000 -0.392000
v 0.428000 0.758000 -0.380000
v 0.440000 0.758000 -0.392000
v 0.428000 0.650000 -0.408000
v 0.428000 0.662000 -0.420000
v 0.440000 0.662000 -0.408000
v 0.428000 0.770000 -0.408000
v 0.440000 0.758000 -0.408000
v 0.428000 0.758000 -0.420000
v 0.067500 0.330000 -0.395000
v 0.067500 0.337500 -0.387500
v 0.060000 0.337500 -0.395000
v 0.067500 0.642500 -0.387500
v 0.067500 0.650000 -0.395000
v 0.060000 0.642500 -0.395000
v 0.067500 0.330000 -0.405000
v 0.060000 0.337500 -0.405000
v 0.067500 0.337500 -0.412500
v 0.067500 0.650000 -0.405000
v 0.067500 0.642500 -0.412500
v 0.060000 0.642500 -0.405000
v 0.092500 0.330000 -0.395000
v 0.100000 0.337500 -0.395000
v 0.092500 0.337500 -0.387500
v 0.092500 0.650000 -0.395000
v 0.092500 0.642500 -0.387500
v 0.100000 0.642500 -0.395000
v 0.092500 0.330000 -0.405000
v 0.092500 0.337500 -0.412500
v 0.100000 0.337500 -0.405000
v 0.092500 0.650000 -0.405000
v 0.100000 0.642500 -0.405000
v 0.092500 0.642500 -0.412500
v 0.187500 0.330000 -0.395000
v 0.187500 0.337500 -0.387500
v 0.180000 0.337500 -0.395000
v 0.187500 0.642500 -0.387500
v 0.187500 0.650000 -0.395000
v 0.180000 0.642500 -0.395000
v 0.187500 0.330000 -0.405000
v 0.180000 0.337500 -0.405000
v 0.187500 0.337500 -0.412500
v 0.187500 0.650000 -0.405000
v 0.187500 0.642500 -0.412500
v 0.180000 0.642500 -0.405000
v 0.212500 0.330000 -0.395000
v 0.220000 0.337500 -0.395000
v 0.212500 0.337500 -0.387500
v 0.212500 0.650000 -0.395000
v 0.212500 0.642500 -0.387500
v 0.220000 0.642500 -0.395000
v 0.212500 0.330000 -0.405000
v 0.212500 0.337500 -0.412500
v 0.220000 0.337500 -0.405000
v 0.212500 0.650000 -0.405000
v 0.220000 0.642500 -0.405000
v 0.212500 0.642500 -0.412500
v 0.307500 0.330000 -0.395000
v 0.307500 0.337500 -0.387500
v 0.300000 0.337500 -0.395000
v 0.307500 0.642500 -0.387500
v 0.307500 0.650000 -0.395000
v 0.300000 0.642500 -0.395000
v 0.307500 0.330000 -0.405000
v 0.300000 0.337500 -0.405000
v 0.307500 0.337500 -0.412500
v 0.307500 0.650000 -0.405000
v 0.307500 0.642500 -0.412500
v 0.300000 0.642500 -0.405000
v 0.332500 0.330000 -0.395000
v 0.340000 0.337500 -0.395000
v 0.332500 0.337500 -0.387500
v 0.332500 0.650000 -0.395000
v 0.332500 0.642500 -0.387500
v 0.340000 0.642500 -0.395000
v 0.332500 0.330000 -0.405000
v 0.332500 0.337500 -0.412500
v 0.340000 0.337500 -0.405000
v 0.332500 0.650000 -0.405000
v 0.340000 0.642500 -0.405000
v 0.332500 0.642500 -0.412500
v 0.009000 -0.110000 -0.194000
v 0.009000 -0.101000 -0.185000
v 0.000000 -0.101000 -0.194000
v 0.009000 -0.089000 -0.185000
v 0.009000 -0.080000 -0.194000
v 0.000000 -0.089000 -0.194000
v 0.009000 -0.110000 -0.206000
v 0.000000 -0.101000 -0.206000
v 0.009000 -0.101000 -0.215000
v 0.009000 -0.080000 -0.206000
v 0.009000 -0.089000 -0.215000
v 0.000000 -0.089000 -0.206000
v 0.391000 -0.110000 -0.194000
v 0.400000 -0.101000 -0.194000
v 0.391000 -0.101000 -0.185000
v 0.391000 -0.080000 -0.194000
v 0.391000 -0.089000 -0.185000
v 0.400000 -0.089000 -0.194000
v 0.391000 -0.110000 -0.206000
v 0.391000 -0.101000 -0.215000
v 0.400000 -0.101000 -0.206000
v 0.391000 -0.080000 -0.206000
v 0.400000 -0.089000 -0.206000
v 0.391000 -0.089000 -0.215000
vn -0.5773 -0.5774 0.5774
vn -0.5774 0.5774 0.5773
vn -0.5774 -0.5774 -0.5773
vn -0.5773 0.5774 -0.5774
vn 0.5774 -0.5774 0.5773
vn 0.5773 0.5774 0.5774
vn 0.5773 -0.5774 -0.5774
vn 0.5774 0.5774 -0.5773
vn -0.7071 -0.7071 -0.0000
vn -0.7071 -0.0000 0.7071
vn -0.7071 0.7071 -0.0000
vn -0.7071 -0.0000 -0.7071
vn -0.0000 -0.7071 -0.7071
vn -0.0000 0.7071 -0.7071
vn 0.7071 -0.0000 -0.7071
vn 0.7071 -0.7071 -0.0000
vn 0.7071 0.7071 -0.0000
vn 0.7071 -0.0000 0.7071
vn -0.0000 -0.7071 0.7071
vn -0.0000 0.7071 0.7071
vn -0.0000 -1.0000 -0.0000
vn -1.0000 -0.0000 -0.0000
vn -0.0000 -0.0000 1.0000
vn -0.0000 1.0000 -0.0000
vn -0.0000 -0.0000 -1.0000
vn 1.0000 -0.0000 -0.0000
vn -0.5773 -0.5774 0.5773
vn -0.5773 0.5774 0.5774
vn -0.5773 -0.5774 -0.5773
vn -0.5774 0.5773 -0.5774
vn 0.5773 -0.5774 0.5774
vn 0.5773 0.5774 0.5773
vn 0.5774 -0.5773 -0.5774
vn 0.5773 0.5774 -0.5773
vn -0.5774 0.5773 0.5774
vn -0.5774 -0.5773 -0.5774
vn 0.5774 -0.5773 0.5774
vn 0.5774 0.5773 -0.5774
vn -0.5773 -0.5774 -0.5774
vn 0.5773 0.5774 -0.5774
vn -0.5774 -0.5773 0.5773
vn -0.5773 -0.5773 -0.5774
vn -0.5773 0.5773 -0.5774
vn 0.5774 -0.5773 0.5773
vn 0.5774 -0.5774 -0.5774
vn 0.5774 0.5774 -0.5774
vn -0.5774 -0.5773 0.5774
vn 0.5774 0.5774 0.5773
vn 0.5774 -0.5773 -0.5773
vn 0.5774 0.5773 -0.5773
vn -0.5774 -0.5774 0.5773
vn -0.5773 0.5774 0.5773
vn -0.5774 -0.5774 0.5774
vn -0.5774 -0.5774 -0.5774
vn 0.5774 -0.5774 0.5774
vn -0.5773 -0.5773 0.5774
vn 0.5773 -0.5773 0.5774
vn 0.5773 -0.5773 -0.5774
vt 0.031250 0.968750
vt 0.093750 0.968750
vt 0.593750 0.968750
vt 0.156250 0.968750
s 0
f 1/1/1 2/1/1 3/1/1
f 4/1/2 5/1/2 6/1/2
f 7/1/3 8/1/3 9/1/3
f 10/1/4 11/1/4 12/1/4
f 13/1/5 14/1/5 15/1/5
f 16/1/6 17/1/6 18/1/6
f 19/1/7 20/1/7 21/1/7
f 22/1/8 23/1/8 24/1/8
f 1/1/9 8/1/9 7/1/9
f 4/1/10 3/1/10 2/1/10
f 10/1/11 6/1/11 5/1/11
f 9/1/12 12/1/12 11/1/12
f 7/1/13 20/1/13 19/1/13
f 22/1/14 11/1/14 10/1/14
f 21/1/15 24/1/15 23/1/15
f 19/1/16 14/1/16 13/1/16
f 16/1/17 23/1/17 22/1/17
f 15/1/18 18/1/18 17/1/18
f 13/1/19 2/1/19 1/1/19
f 5/1/20 17/1/20 16/1/20
f 19/1/21 1/1/21 7/1/21
f 6/1/22 8/1/22 3/1/22
f 17/1/23 2/1/23 15/1/23
f 10/1/24 16/1/24 22/1/24
f 11/1/25 20/1/25 9/1/25
f 23/1/26 14/1/26 21/1/26
f 25/1/27 26/1/27 27/1/27
f 28/1/28 29/1/28 30/1/28
f 31/1/29 32/1/29 33/1/29
f 34/1/30 35/1/30 36/1/30
f 37/1/31 38/1/31 39/1/31
f 40/1/32 41/1/32 42/1/32
f 43/1/33 44/1/33 45/1/33
f 46/1/34 47/1/34 48/1/34
f 25/1/9 32/1/9 31/1/9
f 28/1/10 27/1/10 26/1/10
f 34/1/11 30/1/11 29/1/11
f 33/1/12 36/1/12 35/1/12
f 31/1/13 44/1/13 43/1/13
f 46/1/14 35/1/14 34/1/14
f 45/1/15 48/1/15 47/1/15
f 43/1/16 38/1/16 37/1/16
f 40/1/17 47/1/17 46/1/17
f 39/1/18 42/1/18 41/1/18
f 37/1/19 26/1/19 25/1/19
f 29/1/20 41/1/20 40/1/20
f 43/1/21 25/1/21 31/1/21
f 30/1/22 32/1/22 27/1/22
f 41/1/23 26/1/23 39/1/23
f 34/1/24 40/1/24 46/1/24
f 35/1/25 44/1/25 33/1/25
f 47/1/26 38/1/26 45/1/26
f 49/1/1 50/1/1 51/1/1
f 52/1/35 53/1/35 54/1/35
f 55/1/36 56/1/36 57/1/36
f 58/1/4 59/1/4 60/1/4
f 61/1/37 62/1/37 63/1/37
f 64/1/6 65/1/6 66/1/6
f 67/1/7 68/1/7 69/1/7
f 70/1/38 71/1/38 72/1/38
f 49/1/9 56/1/9 55/1/9
f 52/1/10 51/1/10 50/1/10
f 58/1/11 54/1/11 53/1/11
f 57/1/12 60/1/12 59/1/12
f 55/1/13 68/1/13 67/1/13
f 70/1/14 59/1/14 58/1/14
f 69/1/15 72/1/15 71/1/15
f 67/1/16 62/1/16 61/1/16
f 64/1/17 71/1/17 70/1/17
f 63/1/18 66/1/18 65/1/18
f 61/1/19 50/1/19 49/1/19
f 53/1/20 65/1/20 64/1/20
f 67/1/21 49/1/21 55/1/21
f 54/1/22 56/1/22 51/1/22
f 65/1/23 50/1/23 63/1/23
f 58/1/24 64/1/24 70/1/24
f 59/1/25 68/1/25 57/1/25
f 71/1/26 62/1/26 69/1/26
f 73/1/1 74/1/1 75/1/1
f 76/1/28 77/1/28 78/1/28
f 79/1/39 80/1/39 81/1/39
f 82/1/4 83/1/4 84/1/4
f 85/1/31 86/1/31 87/1/31
f 88/1/6 89/1/6 90/1/6
f 91/1/7 92/1/7 93/1/7
f 94/1/40 95/1/40 96/1/40
f 73/1/9 80/1/9 79/1/9
f 76/1/10 75/1/10 74/1/10
f 82/1/11 78/1/11 77/1/11
f 81/1/12 84/1/12 83/1/12
f 79/1/13 92/1/13 91/1/13
f 94/1/14 83/1/14 82/1/14
f 93/1/15 96/1/15 95/1/15
f 91/1/16 86/1/16 85/1/16
f 88/1/17 95/1/17 94/1/17
f 87/1/18 90/1/18 89/1/18
f 85/1/19 74/1/19 73/1/19
f 77/1/20 89/1/20 88/1/20
f 91/1/21 73/1/21 79/1/21
f 78/1/22 80/1/22 75/1/22
f 89/1/23 74/1/23 87/1/23
f 82/1/24 88/1/24 94/1/24
f 83/1/25 92/1/25 81/1/25
f 95/1/26 86/1/26 93/1/26
f 97/2/41 98/2/41 99/2/41
f 100/2/28 101/2/28 102/2/28
f 103/2/42 104/2/42 105/2/42
f 106/2/43 107/2/43 108/2/43
f 109/2/44 110/2/44 111/2/44
f 112/2/32 113/2/32 114/2/32
f 115/2/45 116/2/45 117/2/45
f 118/2/46 119/2/46 120/2/46
f 97/2/9 104/2/9 103/2/9
f 100/2/10 99/2/10 98/2/10
f 106/2/11 102/2/11 101/2/11
f 105/2/12 108/2/12 107/2/12
f 103/2/13 116/2/13 115/2/13
f 118/2/14 107/2/14 106/2/14
f 117/2/15 120/2/15 119/2/15
f 115/2/16 110/2/16 109/2/16
f 112/2/17 119/2/17 118/2/17
f 111/2/18 114/2/18 113/2/18
f 109/2/19 98/2/19 97/2/19
f 101/2/20 113/2/20 112/2/20
f 115/2/21 97/2/21 103/2/21
f 102/2/22 104/2/22 99/2/22
f 113/2/23 98/2/23 111/2/23
f 106/2/24 112/2/24 118/2/24
f 107/2/25 116/2/25 105/2/25
f 119/2/26 110/2/26 117/2/26
f 121/3/47 122/3/47 123/3/47
f 124/3/35 125/3/35 126/3/35
f 127/3/36 128/3/36 129/3/36
f 130/3/30 131/3/30 132/3/30
f 133/3/5 134/3/5 135/3/5
f 136/3/48 137/3/48 138/3/48
f 139/3/49 140/3/49 141/3/49
f 142/3/50 143/3/50 144/3/50
f 121/3/9 128/3/9 127/3/9
f 124/3/10 123/3/10 122/3/10
f 130/3/11 126/3/11 125/3/11
f 129/3/12 132/3/12 131/3/12
f 127/3/13 140/3/13 139/3/13
f 142/3/14 131/3/14 130/3/14
f 141/3/15 144/3/15 143/3/15
f 139/3/16 134/3/16 133/3/16
f 136/3/17 143/3/17 142/3/17
f 135/3/18 138/3/18 137/3/18
f 133/3/19 122/3/19 121/3/19
f 125/3/20 137/3/20 136/3/20
f 139/3/21 121/3/21 127/3/21
f 126/3/22 128/3/22 123/3/22
f 137/3/23 122/3/23 135/3/23
f 130/3/24 136/3/24 142/3/24
f 131/3/25 140/3/25 129/3/25
f 143/3/26 134/3/26 141/3/26
f 145/1/51 146/1/51 147/1/51
f 148/1/52 149/1/52 150/1/52
f 151/1/29 152/1/29 153/1/29
f 154/1/43 155/1/43 156/1/43
f 157/1/5 158/1/5 159/1/5
f 160/1/6 161/1/6 162/1/6
f 163/1/33 164/1/33 165/1/33
f 166/1/34 167/1/34 168/1/34
f 145/1/9 152/1/9 151/1/9
f 148/1/10 147/1/10 146/1/10
f 154/1/11 150/1/11 149/1/11
f 153/1/12 156/1/12 155/1/12
f 151/1/13 164/1/13 163/1/13
f 166/1/14 155/1/14 154/1/14
f 165/1/15 168/1/15 167/1/15
f 163/1/16 158/1/16 157/1/16
f 160/1/17 167/1/17 166/1/17
f 159/1/18 162/1/18 161/1/18
f 157/1/19 146/1/19 145/1/19
f 149/1/20 161/1/20 160/1/20
f 163/1/21 145/1/21 151/1/21
f 150/1/22 152/1/22 147/1/22
f 161/1/23 146/1/23 159/1/23
f 154/1/24 160/1/24 166/1/24
f 155/1/25 164/1/25 153/1/25
f 167/1/26 158/1/26 165/1/26
f 169/1/53 170/1/53 171/1/53
f 172/1/28 173/1/28 174/1/28
f 175/1/54 176/1/54 177/1/54
f 178/1/4 179/1/4 180/1/4
f 181/1/55 182/1/55 183/1/55
f 184/1/6 185/1/6 186/1/6
f 187/1/45 188/1/45 189/1/45
f 190/1/40 191/1/40 192/1/40
f 169/1/9 176/1/9 175/1/9
f 172/1/10 171/1/10 170/1/10
f 178/1/11 174/1/11 173/1/11
f 177/1/12 180/1/12 179/1/12
f 175/1/13 188/1/13 187/1/13
f 190/1/14 179/1/14 178/1/14
f 189/1/15 192/1/15 191/1/15
f 187/1/16 182/1/16 181/1/16
f 184/1/17 191/1/17 190/1/17
f 183/1/18 186/1/18 185/1/18
f 181/1/19 170/1/19 169/1/19
f 173/1/20 185/1/20 184/1/20
f 187/1/21 169/1/21 175/1/21
f 174/1/22 176/1/22 171/1/22
f 185/1/23 170/1/23 183/1/23
f 178/1/24 184/1/24 190/1/24
f 179/1/25 188/1/25 177/1/25
f 191/1/26 182/1/26 189/1/26
f 193/2/1 194/2/1 195/2/1
f 196/2/28 197/2/28 198/2/28
f 199/2/39 200/2/39 201/2/39
f 202/2/4 203/2/4 204/2/4
f 205/2/31 206/2/31 207/2/31
f 208/2/6 209/2/6 210/2/6
f 211/2/7 212/2/7 213/2/7
f 214/2/40 215/2/40 216/2/40
f 193/2/9 200/2/9 199/2/9
f 196/2/10 195/2/10 194/2/10
f 202/2/11 198/2/11 197/2/11
f 201/2/12 204/2/12 203/2/12
f 199/2/13 212/2/13 211/2/13
f 214/2/14 203/2/14 202/2/14
f 213/2/15 216/2/15 215/2/15
f 211/2/16 206/2/16 205/2/16
f 208/2/17 215/2/17 214/2/17
f 207/2/18 210/2/18 209/2/18
f 205/2/19 194/2/19 193/2/19
f 197/2/20 209/2/20 208/2/20
f 211/2/21 193/2/21 199/2/21
f 198/2/22 200/2/22 195/2/22
f 209/2/23 194/2/23 207/2/23
f 202/2/24 208/2/24 214/2/24
f 203/2/25 212/2/25 201/2/25
f 215/2/26 206/2/26 213/2/26
f 217/4/53 218/4/53 219/4/53
f 220/4/28 221/4/28 222/4/28
f 223/4/54 224/4/54 225/4/54
f 226/4/4 227/4/4 228/4/4
f 229/4/55 230/4/55 231/4/55
f 232/4/6 233/4/6 234/4/6
f 235/4/45 236/4/45 237/4/45
f 238/4/40 239/4/40 240/4/40
f 217/4/9 224/4/9 223/4/9
f 220/4/10 219/4/10 218/4/10
f 226/4/11 222/4/11 221/4/11
f 225/4/12 228/4/12 227/4/12
f 223/4/13 236/4/13 235/4/13
f 238/4/14 227/4/14 226/4/14
f 237/4/15 240/4/15 239/4/15
f 235/4/16 230/4/16 229/4/16
f 232/4/17 239/4/17 238/4/17
f 231/4/18 234/4/18 233/4/18
f 229/4/19 218/4/19 217/4/19
f 221/4/20 233/4/20 232/4/20
f 235/4/21 217/4/21 223/4/21
f 222/4/22 224/4/22 219/4/22
f 233/4/23 218/4/23 231/4/23
f 226/4/24 232/4/24 238/4/24
f 227/4/25 236/4/25 225/4/25
f 239/4/26 230/4/26 237/4/26
f 241/4/51 242/4/51 243/4/51
f 244/4/28 245/4/28 246/4/28
f 247/4/36 248/4/36 249/4/36
f 250/4/4 251/4/4 252/4/4
f 253/4/5 254/4/5 255/4/5
f 256/4/32 257/4/32 258/4/32
f 259/4/33 260/4/33 261/4/33
f 262/4/40 263/4/40 264/4/40
f 241/4/9 248/4/9 247/4/9
f 244/4/10 243/4/10 242/4/10
f 250/4/11 246/4/11 245/4/11
f 249/4/12 252/4/12 251/4/12
f 247/4/13 260/4/13 259/4/13
f 262/4/14 251/4/14 250/4/14
f 261/4/15 264/4/15 263/4/15
f 259/4/16 254/4/16 253/4/16
f 256/4/17 263/4/17 262/4/17
f 255/4/18 258/4/18 257/4/18
f 253/4/19 242/4/19 241/4/19
f 245/4/20 257/4/20 256/4/20
f 259/4/21 241/4/21 247/4/21
f 246/4/22 248/4/22 243/4/22
f 257/4/23 242/4/23 255/4/23
f 250/4/24 256/4/24 262/4/24
f 251/4/25 260/4/25 249/4/25
f 263/4/26 254/4/26 261/4/26
f 265/4/56 266/4/56 267/4/56
f 268/4/28 269/4/28 270/4/28
f 271/4/42 272/4/42 273/4/42
f 274/4/4 275/4/4 276/4/4
f 277/4/57 278/4/57 279/4/57
f 280/4/6 281/4/6 282/4/6
f 283/4/58 284/4/58 285/4/58
f 286/4/40 287/4/40 288/4/40
f 265/4/9 272/4/9 271/4/9
f 268/4/10 267/4/10 266/4/10
f 274/4/11 270/4/11 269/4/11
f 273/4/12 276/4/12 275/4/12
f 271/4/13 284/4/13 283/4/13
f 286/4/14 275/4/14 274/4/14
f 285/4/15 288/4/15 287/4/15
f 283/4/16 278/4/16 277/4/16
f 280/4/17 287/4/17 286/4/17
f 279/4/18 282/4/18 281/4/18
f 277/4/19 266/4/19 265/4/19
f 269/4/20 281/4/20 280/4/20
f 283/4/21 265/4/21 271/4/21
f 270/4/22 272/4/22 267/4/22
f 281/4/23 266/4/23 279/4/23
f 274/4/24 280/4/24 286/4/24
f 275/4/25 284/4/25 273/4/25
f 287/4/26 278/4/26 285/4/26
f 289/1/1 290/1/1 291/1/1
f 292/1/2 293/1/2 294/1/2
f 295/1/36 296/1/36 297/1/36
f 298/1/30 299/1/30 300/1/30
f 301/1/5 302/1/5 303/1/5
f 304/1/48 305/1/48 306/1/48
f 307/1/45 308/1/45 309/1/45
f 310/1/50 311/1/50 312/1/50
f 289/1/9 296/1/9 295/1/9
f 292/1/10 291/1/10 290/1/10
f 298/1/11 294/1/11 293/1/11
f 297/1/12 300/1/12 299/1/12
f 295/1/13 308/1/13 307/1/13
f 310/1/14 299/1/14 298/1/14
f 309/1/15 312/1/15 311/1/15
f 307/1/16 302/1/16 301/1/16
f 304/1/17 311/1/17 310/1/17
f 303/1/18 306/1/18 305/1/18
f 301/1/19 290/1/19 289/1/19
f 293/1/20 305/1/20 304/1/20
f 307/1/21 289/1/21 295/1/21
f 294/1/22 296/1/22 291/1/22
f 305/1/23 290/1/23 303/1/23
f 298/1/24 304/1/24 310/1/24
f 299/1/25 308/1/25 297/1/25
f 311/1/26 302/1/26 309/1/26
f 1/1/9 3/1/9 8/1/9
f 4/1/10 6/1/10 3/1/10
f 10/1/11 12/1/11 6/1/11
f 9/1/12 8/1/12 12/1/12
f 7/1/13 9/1/13 20/1/13
f 22/1/14 24/1/14 11/1/14
f 21/1/15 20/1/15 24/1/15
f 19/1/16 21/1/16 14/1/16
f 16/1/17 18/1/17 23/1/17
f 15/1/18 14/1/18 18/1/18
f 13/1/19 15/1/19 2/1/19
f 5/1/20 4/1/20 17/1/20
f 19/1/21 13/1/21 1/1/21
f 6/1/22 12/1/22 8/1/22
f 17/1/23 4/1/23 2/1/23
f 10/1/24 5/1/24 16/1/24
f 11/1/25 24/1/25 20/1/25
f 23/1/26 18/1/26 14/1/26
f 25/1/9 27/1/9 32/1/9
f 28/1/10 30/1/10 27/1/10
f 34/1/11 36/1/11 30/1/11
f 33/1/12 32/1/12 36/1/12
f 31/1/13 33/1/13 44/1/13
f 46/1/14 48/1/14 35/1/14
f 45/1/15 44/1/15 48/1/15
f 43/1/16 45/1/16 38/1/16
f 40/1/17 42/1/17 47/1/17
f 39/1/18 38/1/18 42/1/18
f 37/1/19 39/1/19 26/1/19
f 29/1/20 28/1/20 41/1/20
f 43/1/21 37/1/21 25/1/21
f 30/1/22 36/1/22 32/1/22
f 41/1/23 28/1/23 26/1/23
f 34/1/24 29/1/24 40/1/24
f 35/1/25 48/1/25 44/1/25
f 47/1/26 42/1/26 38/1/26
f 49/1/9 51/1/9 56/1/9
f 52/1/10 54/1/10 51/1/10
f 58/1/11 60/1/11 54/1/11
f 57/1/12 56/1/12 60/1/12
f 55/1/13 57/1/13 68/1/13
f 70/1/14 72/1/14 59/1/14
f 69/1/15 68/1/15 72/1/15
f 67/1/16 69/1/16 62/1/16
f 64/1/17 66/1/17 71/1/17
f 63/1/18 62/1/18 66/1/18
f 61/1/19 63/1/19 50/1/19
f 53/1/20 52/1/20 65/1/20
f 67/1/21 61/1/21 49/1/21
f 54/1/22 60/1/22 56/1/22
f 65/1/23 52/1/23 50/1/23
f 58/1/24 53/1/24 64/1/24
f 59/1/25 72/1/25 68/1/25
f 71/1/26 66/1/26 62/1/26
f 73/1/9 75/1/9 80/1/9
f 76/1/10 78/1/10 75/1/10
f 82/1/11 84/1/11 78/1/11
f 81/1/12 80/1/12 84/1/12
f 79/1/13 81/1/13 92/1/13
f 94/1/14 96/1/14 83/1/14
f 93/1/15 92/1/15 96/1/15
f 91/1/16 93/1/16 86/1/16
f 88/1/17 90/1/17 95/1/17
f 87/1/18 86/1/18 90/1/18
f 85/1/19 87/1/19 74/1/19
f 77/1/20 76/1/20 89/1/20
f 91/1/21 85/1/21 73/1/21
f 78/1/22 84/1/22 80/1/22
f 89/1/23 76/1/23 74/1/23
f 82/1/24 77/1/24 88/1/24
f 83/1/25 96/1/25 92/1/25
f 95/1/26 90/1/26 86/1/26
f 97/2/9 99/2/9 104/2/9
f 100/2/10 102/2/10 99/2/10
f 106/2/11 108/2/11 102/2/11
f 105/2/12 104/2/12 108/2/12
f 103/2/13 105/2/13 116/2/13
f 118/2/14 120/2/14 107/2/14
f 117/2/15 116/2/15 120/2/15
f 115/2/16 117/2/16 110/2/16
f 112/2/17 114/2/17 119/2/17
f 111/2/18 110/2/18 114/2/18
f 109/2/19 111/2/19 98/2/19
f 101/2/20 100/2/20 113/2/20
f 115/2/21 109/2/21 97/2/21
f 102/2/22 108/2/22 104/2/22
f 113/2/23 100/2/23 98/2/23
f 106/2/24 101/2/24 112/2/24
f 107/2/25 120/2/25 116/2/25
f 119/2/26 114/2/26 110/2/26
f 121/3/9 123/3/9 128/3/9
f 124/3/10 126/3/10 123/3/10
f 130/3/11 132/3/11 126/3/11
f 129/3/12 128/3/12 132/3/12
f 127/3/13 129/3/13 140/3/13
f 142/3/14 144/3/14 131/3/14
f 141/3/15 140/3/15 144/3/15
f 139/3/16 141/3/16 134/3/16
f 136/3/17 138/3/17 143/3/17
f 135/3/18 134/3/18 138/3/18
f 133/3/19 135/3/19 122/3/19
f 125/3/20 124/3/20 137/3/20
f 139/3/21 133/3/21 121/3/21
f 126/3/22 132/3/22 128/3/22
f 137/3/23 124/3/23 122/3/23
f 130/3/24 125/3/24 136/3/24
f 131/3/25 144/3/25 140/3/25
f 143/3/26 138/3/26 134/3/26
f 145/1/9 147/1/9 152/1/9
f 148/1/10 150/1/10 147/1/10
f 154/1/11 156/1/11 150/1/11
f 153/1/12 152/1/12 156/1/12
f 151/1/13 153/1/13 164/1/13
f 166/1/14 168/1/14 155/1/14
f 165/1/15 164/1/15 168/1/15
f 163/1/16 165/1/16 158/1/16
f 160/1/17 162/1/17 167/1/17
f 159/1/18 158/1/18 162/1/18
f 157/1/19 159/1/19 146/1/19
f 149/1/20 148/1/20 161/1/20
f 163/1/21 157/1/21 145/1/21
f 150/1/22 156/1/22 152/1/22
f 161/1/23 148/1/23 146/1/23
f 154/1/24 149/1/24 160/1/24
f 155/1/25 168/1/25 164/1/25
f 167/1/26 162/1/26 158/1/26
f 169/1/9 171/1/9 176/1/9
f 172/1/10 174/1/10 171/1/10
f 178/1/11 180/1/11 174/1/11
f 177/1/12 176/1/12 180/1/12
f 175/1/13 177/1/13 188/1/13
f 190/1/14 192/1/14 179/1/14
f 189/1/15 188/1/15 192/1/15
f 187/1/16 189/1/16 182/1/16
f 184/1/17 186/1/17 191/1/17
f 183/1/18 182/1/18 186/1/18
f 181/1/19 183/1/19 170/1/19
f 173/1/20 172/1/20 185/1/20
f 187/1/21 181/1/21 169/1/21
f 174/1/22 180/1/22 176/1/22
f 185/1/23 172/1/23 170/1/23
f 178/1/24 173/1/24 184/1/24
f 179/1/25 192/1/25 188/1/25
f 191/1/26 186/1/26 182/1/26
f 193/2/9 195/2/9 200/2/9
f 196/2/10 198/2/10 195/2/10
f 202/2/11 204/2/11 198/2/11
f 201/2/12 200/2/12 204/2/12
f 199/2/13 201/2/13 212/2/13
f 214/2/14 216/2/14 203/2/14
f 213/2/15 212/2/15 216/2/15
f 211/2/16 213/2/16 206/2/16
f 208/2/17 210/2/17 215/2/17
f 207/2/18 206/2/18 210/2/18
f 205/2/19 207/2/19 194/2/19
f 197/2/20 196/2/20 209/2/20
f 211/2/21 205/2/21 193/2/21
f 198/2/22 204/2/22 200/2/22
f 209/2/23 196/2/23 194/2/23
f 202/2/24 197/2/24 208/2/24
f 203/2/25 216/2/25 212/2/25
f 215/2/26 210/2/26 206/2/26
f 217/4/9 219/4/9 224/4/9
f 220/4/10 222/4/10 219/4/10
f 226/4/11 228/4/11 222/4/11
f 225/4/12 224/4/12 228/4/12
f 223/4/13 225/4/13 236/4/13
f 238/4/14 240/4/14 227/4/14
f 237/4/15 236/4/15 240/4/15
f 235/4/16 237/4/16 230/4/16
f 232/4/17 234/4/17 239/4/17
f 231/4/18 230/4/18 234/4/18
f 229/4/19 231/4/19 218/4/19
f 221/4/20 220/4/20 233/4/20
f 235/4/21 229/4/21 217/4/21
f 222/4/22 228/4/22 224/4/22
f 233/4/23 220/4/23 218/4/23
f 226/4/24 221/4/24 232/4/24
f 227/4/25 240/4/25 236/4/25
f 239/4/26 234/4/26 230/4/26
f 241/4/9 243/4/9 248/4/9
f 244/4/10 246/4/10 243/4/10
f 250/4/11 252/4/11 246/4/11
f 249/4/12 248/4/12 252/4/12
f 247/4/13 249/4/13 260/4/13
f 262/4/14 264/4/14 251/4/14
f 261/4/15 260/4/15 264/4/15
f 259/4/16 261/4/16 254/4/16
f 256/4/17 258/4/17 263/4/17
f 255/4/18 254/4/18 258/4/18
f 253/4/19 255/4/19 242/4/19
f 245/4/20 244/4/20 257/4/20
f 259/4/21 253/4/21 241/4/21
f 246/4/22 252/4/22 248/4/22
f 257/4/23 244/4/23 242/4/23
f 250/4/24 245/4/24 256/4/24
f 251/4/25 264/4/25 260/4/25
f 263/4/26 258/4/26 254/4/26
f 265/4/9 267/4/9 272/4/9
f 268/4/10 270/4/10 267/4/10
f 274/4/11 276/4/11 270/4/11
f 273/4/12 272/4/12 276/4/12
f 271/4/13 273/4/13 284/4/13
f 286/4/14 288/4/14 275/4/14
f 285/4/15 284/4/15 288/4/15
f 283/4/16 285/4/16 278/4/16
f 280/4/17 282/4/17 287/4/17
f 279/4/18 278/4/18 282/4/18
f 277/4/19 279/4/19 266/4/19
f 269/4/20 268/4/20 281/4/20
f 283/4/21 277/4/21 265/4/21
f 270/4/22 276/4/22 272/4/22
f 281/4/23 268/4/23 266/4/23
f 274/4/24 269/4/24 280/4/24
f 275/4/25 288/4/25 284/4/25
f 287/4/26 282/4/26 278/4/26
f 289/1/9 291/1/9 296/1/9
f 292/1/10 294/1/10 291/1/10
f 298/1/11 300/1/11 294/1/11
f 297/1/12 296/1/12 300/1/12
f 295/1/13 297/1/13 308/1/13
f 310/1/14 312/1/14 299/1/14
f 309/1/15 308/1/15 312/1/15
f 307/1/16 309/1/16 302/1/16
f 304/1/17 306/1/17 311/1/17
f 303/1/18 302/1/18 306/1/18
f 301/1/19 303/1/19 290/1/19
f 293/1/20 292/1/20 305/1/20
f 307/1/21 301/1/21 289/1/21
f 294/1/22 300/1/22 296/1/22
f 305/1/23 292/1/23 290/1/23
f 298/1/24 293/1/24 304/1/24
f 299/1/25 312/1/25 308/1/25
f 311/1/26 306/1/26 302/1/26
