# Blender 5.1.1
# www.blender.org
o meja_kerja
v -1.000000 -0.450000 0.330000
v -1.000000 0.450000 0.330000
v -1.000000 -0.450000 -0.330000
v -1.000000 0.450000 -0.330000
v 1.000000 -0.450000 0.330000
v 1.000000 0.450000 0.330000
v 1.000000 -0.450000 -0.330000
v 1.000000 0.450000 -0.330000
v -0.962000 -0.330000 0.367000
v -0.962000 -0.322000 0.375000
v -0.970000 -0.322000 0.367000
v -0.962000 0.362000 0.375000
v -0.962000 0.370000 0.367000
v -0.970000 0.362000 0.367000
v -0.962000 -0.330000 0.353000
v -0.970000 -0.322000 0.353000
v -0.962000 -0.322000 0.345000
v -0.962000 0.370000 0.353000
v -0.962000 0.362000 0.345000
v -0.970000 0.362000 0.353000
v -0.638000 -0.330000 0.367000
v -0.630000 -0.322000 0.367000
v -0.638000 -0.322000 0.375000
v -0.638000 0.370000 0.367000
v -0.638000 0.362000 0.375000
v -0.630000 0.362000 0.367000
v -0.638000 -0.330000 0.353000
v -0.638000 -0.322000 0.345000
v -0.630000 -0.322000 0.353000
v -0.638000 0.370000 0.353000
v -0.630000 0.362000 0.353000
v -0.638000 0.362000 0.345000
v -0.562000 -0.330000 0.367000
v -0.562000 -0.322000 0.375000
v -0.570000 -0.322000 0.367000
v -0.562000 0.362000 0.375000
v -0.562000 0.370000 0.367000
v -0.570000 0.362000 0.367000
v -0.562000 -0.330000 0.353000
v -0.570000 -0.322000 0.353000
v -0.562000 -0.322000 0.345000
v -0.562000 0.370000 0.353000
v -0.562000 0.362000 0.345000
v -0.570000 0.362000 0.353000
v -0.238000 -0.330000 0.367000
v -0.230000 -0.322000 0.367000
v -0.238000 -0.322000 0.375000
v -0.238000 0.370000 0.367000
v -0.238000 0.362000 0.375000
v -0.230000 0.362000 0.367000
v -0.238000 -0.330000 0.353000
v -0.238000 -0.322000 0.345000
v -0.230000 -0.322000 0.353000
v -0.238000 0.370000 0.353000
v -0.230000 0.362000 0.353000
v -0.238000 0.362000 0.345000
v -0.162000 -0.330000 0.367000
v -0.162000 -0.322000 0.375000
v -0.170000 -0.322000 0.367000
v -0.162000 0.362000 0.375000
v -0.162000 0.370000 0.367000
v -0.170000 0.362000 0.367000
v -0.162000 -0.330000 0.353000
v -0.170000 -0.322000 0.353000
v -0.162000 -0.322000 0.345000
v -0.162000 0.370000 0.353000
v -0.162000 0.362000 0.345000
v -0.170000 0.362000 0.353000
v 0.162000 -0.330000 0.367000
v 0.170000 -0.322000 0.367000
v 0.162000 -0.322000 0.375000
v 0.162000 0.370000 0.367000
v 0.162000 0.362000 0.375000
v 0.170000 0.362000 0.367000
v 0.162000 -0.330000 0.353000
v 0.162000 -0.322000 0.345000
v 0.170000 -0.322000 0.353000
v 0.162000 0.370000 0.353000
v 0.170000 0.362000 0.353000
v 0.162000 0.362000 0.345000
v 0.238000 -0.330000 0.367000
v 0.238000 -0.322000 0.375000
v 0.230000 -0.322000 0.367000
v 0.238000 0.362000 0.375000
v 0.238000 0.370000 0.367000
v 0.230000 0.362000 0.367000
v 0.238000 -0.330000 0.353000
v 0.230000 -0.322000 0.353000
v 0.238000 -0.322000 0.345000
v 0.238000 0.370000 0.353000
v 0.238000 0.362000 0.345000
v 0.230000 0.362000 0.353000
v 0.562000 -0.330000 0.367000
v 0.570000 -0.322000 0.367000
v 0.562000 -0.322000 0.375000
v 0.562000 0.370000 0.367000
v 0.562000 0.362000 0.375000
v 0.570000 0.362000 0.367000
v 0.562000 -0.330000 0.353000
v 0.562000 -0.322000 0.345000
v 0.570000 -0.322000 0.353000
v 0.562000 0.370000 0.353000
v 0.570000 0.362000 0.353000
v 0.562000 0.362000 0.345000
v 0.638000 -0.330000 0.367000
v 0.638000 -0.322000 0.375000
v 0.630000 -0.322000 0.367000
v 0.638000 0.362000 0.375000
v 0.638000 0.370000 0.367000
v 0.630000 0.362000 0.367000
v 0.638000 -0.330000 0.353000
v 0.630000 -0.322000 0.353000
v 0.638000 -0.322000 0.345000
v 0.638000 0.370000 0.353000
v 0.638000 0.362000 0.345000
v 0.630000 0.362000 0.353000
v 0.962000 -0.330000 0.367000
v 0.970000 -0.322000 0.367000
v 0.962000 -0.322000 0.375000
v 0.962000 0.370000 0.367000
v 0.962000 0.362000 0.375000
v 0.970000 0.362000 0.367000
v 0.962000 -0.330000 0.353000
v 0.962000 -0.322000 0.345000
v 0.970000 -0.322000 0.353000
v 0.962000 0.370000 0.353000
v 0.970000 0.362000 0.353000
v 0.962000 0.362000 0.345000
v -1.000000 0.450000 0.390000
v -1.000000 0.500000 0.390000
v -1.000000 0.450000 -0.330000
v -1.000000 0.500000 -0.330000
v 1.000000 0.450000 0.390000
v 1.000000 0.500000 0.390000
v 1.000000 0.450000 -0.330000
v 1.000000 0.500000 -0.330000
v -0.988000 -0.450000 0.378000
v -0.988000 -0.438000 0.390000
v -1.000000 -0.438000 0.378000
v -0.988000 -0.362000 0.390000
v -0.988000 -0.350000 0.378000
v -1.000000 -0.362000 0.378000
v -0.988000 -0.450000 0.322000
v -1.000000 -0.438000 0.322000
v -0.988000 -0.438000 0.310000
v -0.988000 -0.350000 0.322000
v -0.988000 -0.362000 0.310000
v -1.000000 -0.362000 0.322000
v 0.988000 -0.450000 0.378000
v 1.000000 -0.438000 0.378000
v 0.988000 -0.438000 0.390000
v 0.988000 -0.350000 0.378000
v 0.988000 -0.362000 0.390000
v 1.000000 -0.362000 0.378000
v 0.988000 -0.450000 0.322000
v 0.988000 -0.438000 0.310000
v 1.000000 -0.438000 0.322000
v 0.988000 -0.350000 0.322000
v 1.000000 -0.362000 0.322000
v 0.988000 -0.362000 0.310000
v -0.668000 0.500000 0.288000
v -0.668000 0.512000 0.300000
v -0.680000 0.512000 0.288000
v -0.668000 0.608000 0.300000
v -0.668000 0.620000 0.288000
v -0.680000 0.608000 0.288000
v -0.668000 0.500000 0.072000
v -0.680000 0.512000 0.072000
v -0.668000 0.512000 0.060000
v -0.668000 0.620000 0.072000
v -0.668000 0.608000 0.060000
v -0.680000 0.608000 0.072000
v -0.532000 0.500000 0.288000
v -0.520000 0.512000 0.288000
v -0.532000 0.512000 0.300000
v -0.532000 0.620000 0.288000
v -0.532000 0.608000 0.300000
v -0.520000 0.608000 0.288000
v -0.532000 0.500000 0.072000
v -0.532000 0.512000 0.060000
v -0.520000 0.512000 0.072000
v -0.532000 0.620000 0.072000
v -0.520000 0.608000 0.072000
v -0.532000 0.608000 0.060000
v -0.698000 0.540000 0.328000
v -0.698000 0.552000 0.340000
v -0.710000 0.552000 0.328000
v -0.698000 0.668000 0.340000
v -0.698000 0.680000 0.328000
v -0.710000 0.668000 0.328000
v -0.698000 0.540000 0.312000
v -0.710000 0.552000 0.312000
v -0.698000 0.552000 0.300000
v -0.698000 0.680000 0.312000
v -0.698000 0.668000 0.300000
v -0.710000 0.668000 0.312000
v -0.502000 0.540000 0.328000
v -0.490000 0.552000 0.328000
v -0.502000 0.552000 0.340000
v -0.502000 0.680000 0.328000
v -0.502000 0.668000 0.340000
v -0.490000 0.668000 0.328000
v -0.502000 0.540000 0.312000
v -0.502000 0.552000 0.300000
v -0.490000 0.552000 0.312000
v -0.502000 0.680000 0.312000
v -0.490000 0.668000 0.312000
v -0.502000 0.668000 0.300000
v -0.388000 0.800000 -0.292000
v -0.388000 0.812000 -0.280000
v -0.400000 0.812000 -0.292000
v -0.388000 1.388000 -0.280000
v -0.388000 1.400000 -0.292000
v -0.400000 1.388000 -0.292000
v -0.388000 0.800000 -0.308000
v -0.400000 0.812000 -0.308000
v -0.388000 0.812000 -0.320000
v -0.388000 1.400000 -0.308000
v -0.388000 1.388000 -0.320000
v -0.400000 1.388000 -0.308000
v 0.788000 0.800000 -0.292000
v 0.800000 0.812000 -0.292000
v 0.788000 0.812000 -0.280000
v 0.788000 1.400000 -0.292000
v 0.788000 1.388000 -0.280000
v 0.800000 1.388000 -0.292000
v 0.788000 0.800000 -0.308000
v 0.788000 0.812000 -0.320000
v 0.800000 0.812000 -0.308000
v 0.788000 1.400000 -0.308000
v 0.800000 1.388000 -0.308000
v 0.788000 1.388000 -0.320000
v -0.216000 0.880000 -0.264000
v -0.216000 0.889000 -0.255000
v -0.225000 0.889000 -0.264000
v -0.216000 1.211000 -0.255000
v -0.216000 1.220000 -0.264000
v -0.225000 1.211000 -0.264000
v -0.216000 0.880000 -0.276000
v -0.225000 0.889000 -0.276000
v -0.216000 0.889000 -0.285000
v -0.216000 1.220000 -0.276000
v -0.216000 1.211000 -0.285000
v -0.225000 1.211000 -0.276000
v -0.184000 0.880000 -0.264000
v -0.175000 0.889000 -0.264000
v -0.184000 0.889000 -0.255000
v -0.184000 1.220000 -0.264000
v -0.184000 1.211000 -0.255000
v -0.175000 1.211000 -0.264000
v -0.184000 0.880000 -0.276000
v -0.184000 0.889000 -0.285000
v -0.175000 0.889000 -0.276000
v -0.184000 1.220000 -0.276000
v -0.175000 1.211000 -0.276000
v -0.184000 1.211000 -0.285000
v 0.034000 0.880000 -0.264000
v 0.034000 0.889000 -0.255000
v 0.025000 0.889000 -0.264000
v 0.034000 1.131000 -0.255000
v 0.034000 1.140000 -0.264000
v 0.025000 1.131000 -0.264000
v 0.034000 0.880000 -0.276000
v 0.025000 0.889000 -0.276000
v 0.034000 0.889000 -0.285000
v 0.034000 1.140000 -0.276000
v 0.034000 1.131000 -0.285000
v 0.025000 1.131000 -0.276000
v 0.066000 0.880000 -0.264000
v 0.075000 0.889000 -0.264000
v 0.066000 0.889000 -0.255000
v 0.066000 1.140000 -0.264000
v 0.066000 1.131000 -0.255000
v 0.075000 1.131000 -0.264000
v 0.066000 0.880000 -0.276000
v 0.066000 0.889000 -0.285000
v 0.075000 0.889000 -0.276000
v 0.066000 1.140000 -0.276000
v 0.075000 1.131000 -0.276000
v 0.066000 1.131000 -0.285000
v 0.284000 0.880000 -0.264000
v 0.284000 0.889000 -0.255000
v 0.275000 0.889000 -0.264000
v 0.284000 1.211000 -0.255000
v 0.284000 1.220000 -0.264000
v 0.275000 1.211000 -0.264000
v 0.284000 0.880000 -0.276000
v 0.275000 0.889000 -0.276000
v 0.284000 0.889000 -0.285000
v 0.284000 1.220000 -0.276000
v 0.284000 1.211000 -0.285000
v 0.275000 1.211000 -0.276000
v 0.316000 0.880000 -0.264000
v 0.325000 0.889000 -0.264000
v 0.316000 0.889000 -0.255000
v 0.316000 1.220000 -0.264000
v 0.316000 1.211000 -0.255000
v 0.325000 1.211000 -0.264000
v 0.316000 0.880000 -0.276000
v 0.316000 0.889000 -0.285000
v 0.325000 0.889000 -0.276000
v 0.316000 1.220000 -0.276000
v 0.325000 1.211000 -0.276000
v 0.316000 1.211000 -0.285000
v 0.534000 0.880000 -0.264000
v 0.534000 0.889000 -0.255000
v 0.525000 0.889000 -0.264000
v 0.534000 1.131000 -0.255000
v 0.534000 1.140000 -0.264000
v 0.525000 1.131000 -0.264000
v 0.534000 0.880000 -0.276000
v 0.525000 0.889000 -0.276000
v 0.534000 0.889000 -0.285000
v 0.534000 1.140000 -0.276000
v 0.534000 1.131000 -0.285000
v 0.525000 1.131000 -0.276000
v 0.566000 0.880000 -0.264000
v 0.575000 0.889000 -0.264000
v 0.566000 0.889000 -0.255000
v 0.566000 1.140000 -0.264000
v 0.566000 1.131000 -0.255000
v 0.575000 1.131000 -0.264000
v 0.566000 0.880000 -0.276000
v 0.566000 0.889000 -0.285000
v 0.575000 0.889000 -0.276000
v 0.566000 1.140000 -0.276000
v 0.575000 1.131000 -0.276000
v 0.566000 1.131000 -0.285000
v 0.187000 0.500000 0.143000
v 0.187000 0.512000 0.155000
v 0.175000 0.512000 0.143000
v 0.187000 0.538000 0.155000
v 0.187000 0.550000 0.143000
v 0.175000 0.538000 0.143000
v 0.187000 0.500000 0.117000
v 0.175000 0.512000 0.117000
v 0.187000 0.512000 0.105000
v 0.187000 0.550000 0.117000
v 0.187000 0.538000 0.105000
v 0.175000 0.538000 0.117000
v 0.513000 0.500000 0.143000
v 0.525000 0.512000 0.143000
v 0.513000 0.512000 0.155000
v 0.513000 0.550000 0.143000
v 0.513000 0.538000 0.155000
v 0.525000 0.538000 0.143000
v 0.513000 0.500000 0.117000
v 0.513000 0.512000 0.105000
v 0.525000 0.512000 0.117000
v 0.513000 0.550000 0.117000
v 0.525000 0.538000 0.117000
v 0.513000 0.538000 0.105000
v 0.512000 0.500000 0.168000
v 0.512000 0.512000 0.180000
v 0.500000 0.512000 0.168000
v 0.512000 0.558000 0.180000
v 0.512000 0.570000 0.168000
v 0.500000 0.558000 0.168000
v 0.512000 0.500000 0.092000
v 0.500000 0.512000 0.092000
v 0.512000 0.512000 0.080000
v 0.512000 0.570000 0.092000
v 0.512000 0.558000 0.080000
v 0.500000 0.558000 0.092000
v 0.588000 0.500000 0.168000
v 0.600000 0.512000 0.168000
v 0.588000 0.512000 0.180000
v 0.588000 0.570000 0.168000
v 0.588000 0.558000 0.180000
v 0.600000 0.558000 0.168000
v 0.588000 0.500000 0.092000
v 0.588000 0.512000 0.080000
v 0.600000 0.512000 0.092000
v 0.588000 0.570000 0.092000
v 0.600000 0.558000 0.092000
v 0.588000 0.558000 0.080000
vn -1.0000 -0.0000 -0.0000
vn -0.0000 -0.0000 -1.0000
vn 1.0000 -0.0000 -0.0000
vn -0.0000 -0.0000 1.0000
vn -0.0000 -1.0000 -0.0000
vn -0.0000 1.0000 -0.0000
vn -0.5773 -0.5773 0.5774
vn -0.5773 0.5773 0.5774
vn -0.5773 -0.5774 -0.5774
vn -0.5773 0.5774 -0.5774
vn 0.5774 -0.5774 0.5774
vn 0.5774 0.5774 0.5774
vn 0.5773 -0.5774 -0.5773
vn 0.5773 0.5774 -0.5773
vn -0.7071 -0.7071 -0.0000
vn -0.7071 -0.0000 0.7071
vn -0.7071 0.7071 -0.0000
vn -0.7071 -0.0000 -0.7071
vn -0.0000 -0.7071 -0.7071
vn -0.0000 0.7071 -0.7071
vn 0.7071 -0.0000 -0.7071
vn 0.7071 -0.7071 -0.0000
vn 0.7071 0.7071 -0.0000
vn 0.7071 -0.0000 0.7071
vn -0.0000 -0.7071 0.7071
vn -0.0000 0.7071 0.7071
vn -0.5774 -0.5774 0.5773
vn -0.5774 0.5774 0.5773
vn -0.5774 -0.5774 -0.5773
vn -0.5774 0.5774 -0.5773
vn 0.5773 -0.5773 0.5774
vn 0.5773 0.5773 0.5774
vn 0.5773 -0.5773 -0.5774
vn 0.5773 0.5773 -0.5774
vn -0.5773 -0.5773 -0.5774
vn -0.5773 0.5773 -0.5774
vn 0.5774 -0.5774 0.5773
vn 0.5774 0.5774 0.5773
vn 0.5774 -0.5774 -0.5773
vn 0.5774 0.5774 -0.5773
vn -0.5774 -0.5774 0.5774
vn -0.5774 0.5774 0.5774
vn -0.5773 -0.5774 -0.5773
vn -0.5773 0.5774 -0.5773
vn 0.5773 -0.5774 -0.5774
vn 0.5773 0.5774 -0.5774
vn 0.5774 -0.5773 0.5774
vn 0.5774 0.5773 0.5774
vn -0.5773 0.5774 0.5773
vn 0.5773 0.5774 0.5773
vn -0.5774 -0.5773 0.5774
vn -0.5774 -0.5773 -0.5774
vn 0.5774 -0.5773 -0.5774
vn -0.5773 0.5774 0.5774
vn 0.5773 0.5774 0.5774
vn -0.5773 -0.5774 0.5774
vn 0.5773 -0.5774 0.5774
vn 0.5774 -0.5773 0.5773
vt 0.031250 0.968750
vt 0.093750 0.968750
vt 0.156250 0.968750
vt 0.781250 0.968750
vt 0.843750 0.968750
s 0
f 2/1/1 3/1/1 1/1/1
f 4/1/2 7/1/2 3/1/2
f 8/1/3 5/1/3 7/1/3
f 6/1/4 1/1/4 5/1/4
f 7/1/5 1/1/5 3/1/5
f 4/1/6 6/1/6 8/1/6
f 9/2/7 10/2/7 11/2/7
f 12/2/8 13/2/8 14/2/8
f 15/2/9 16/2/9 17/2/9
f 18/2/10 19/2/10 20/2/10
f 21/2/11 22/2/11 23/2/11
f 24/2/12 25/2/12 26/2/12
f 27/2/13 28/2/13 29/2/13
f 30/2/14 31/2/14 32/2/14
f 9/2/15 16/2/15 15/2/15
f 12/2/16 11/2/16 10/2/16
f 18/2/17 14/2/17 13/2/17
f 17/2/18 20/2/18 19/2/18
f 15/2/19 28/2/19 27/2/19
f 30/2/20 19/2/20 18/2/20
f 29/2/21 32/2/21 31/2/21
f 27/2/22 22/2/22 21/2/22
f 24/2/23 31/2/23 30/2/23
f 23/2/24 26/2/24 25/2/24
f 21/2/25 10/2/25 9/2/25
f 13/2/26 25/2/26 24/2/26
f 27/2/5 9/2/5 15/2/5
f 14/2/1 16/2/1 11/2/1
f 25/2/4 10/2/4 23/2/4
f 18/2/6 24/2/6 30/2/6
f 19/2/2 28/2/2 17/2/2
f 31/2/3 22/2/3 29/2/3
f 33/2/27 34/2/27 35/2/27
f 36/2/28 37/2/28 38/2/28
f 39/2/29 40/2/29 41/2/29
f 42/2/30 43/2/30 44/2/30
f 45/2/31 46/2/31 47/2/31
f 48/2/32 49/2/32 50/2/32
f 51/2/33 52/2/33 53/2/33
f 54/2/34 55/2/34 56/2/34
f 33/2/15 40/2/15 39/2/15
f 36/2/16 35/2/16 34/2/16
f 42/2/17 38/2/17 37/2/17
f 41/2/18 44/2/18 43/2/18
f 39/2/19 52/2/19 51/2/19
f 54/2/20 43/2/20 42/2/20
f 53/2/21 56/2/21 55/2/21
f 51/2/22 46/2/22 45/2/22
f 48/2/23 55/2/23 54/2/23
f 47/2/24 50/2/24 49/2/24
f 45/2/25 34/2/25 33/2/25
f 37/2/26 49/2/26 48/2/26
f 51/2/5 33/2/5 39/2/5
f 38/2/1 40/2/1 35/2/1
f 49/2/4 34/2/4 47/2/4
f 42/2/6 48/2/6 54/2/6
f 43/2/2 52/2/2 41/2/2
f 55/2/3 46/2/3 53/2/3
f 57/2/7 58/2/7 59/2/7
f 60/2/8 61/2/8 62/2/8
f 63/2/35 64/2/35 65/2/35
f 66/2/36 67/2/36 68/2/36
f 69/2/31 70/2/31 71/2/31
f 72/2/32 73/2/32 74/2/32
f 75/2/33 76/2/33 77/2/33
f 78/2/34 79/2/34 80/2/34
f 57/2/15 64/2/15 63/2/15
f 60/2/16 59/2/16 58/2/16
f 66/2/17 62/2/17 61/2/17
f 65/2/18 68/2/18 67/2/18
f 63/2/19 76/2/19 75/2/19
f 78/2/20 67/2/20 66/2/20
f 77/2/21 80/2/21 79/2/21
f 75/2/22 70/2/22 69/2/22
f 72/2/23 79/2/23 78/2/23
f 71/2/24 74/2/24 73/2/24
f 69/2/25 58/2/25 57/2/25
f 61/2/26 73/2/26 72/2/26
f 75/2/5 57/2/5 63/2/5
f 62/2/1 64/2/1 59/2/1
f 73/2/4 58/2/4 71/2/4
f 66/2/6 72/2/6 78/2/6
f 67/2/2 76/2/2 65/2/2
f 79/2/3 70/2/3 77/2/3
f 81/2/7 82/2/7 83/2/7
f 84/2/8 85/2/8 86/2/8
f 87/2/35 88/2/35 89/2/35
f 90/2/36 91/2/36 92/2/36
f 93/2/37 94/2/37 95/2/37
f 96/2/38 97/2/38 98/2/38
f 99/2/39 100/2/39 101/2/39
f 102/2/40 103/2/40 104/2/40
f 81/2/15 88/2/15 87/2/15
f 84/2/16 83/2/16 82/2/16
f 90/2/17 86/2/17 85/2/17
f 89/2/18 92/2/18 91/2/18
f 87/2/19 100/2/19 99/2/19
f 102/2/20 91/2/20 90/2/20
f 101/2/21 104/2/21 103/2/21
f 99/2/22 94/2/22 93/2/22
f 96/2/23 103/2/23 102/2/23
f 95/2/24 98/2/24 97/2/24
f 93/2/25 82/2/25 81/2/25
f 85/2/26 97/2/26 96/2/26
f 99/2/5 81/2/5 87/2/5
f 86/2/1 88/2/1 83/2/1
f 97/2/4 82/2/4 95/2/4
f 90/2/6 96/2/6 102/2/6
f 91/2/2 100/2/2 89/2/2
f 103/2/3 94/2/3 101/2/3
f 105/2/41 106/2/41 107/2/41
f 108/2/42 109/2/42 110/2/42
f 111/2/43 112/2/43 113/2/43
f 114/2/44 115/2/44 116/2/44
f 117/2/31 118/2/31 119/2/31
f 120/2/32 121/2/32 122/2/32
f 123/2/45 124/2/45 125/2/45
f 126/2/46 127/2/46 128/2/46
f 105/2/15 112/2/15 111/2/15
f 108/2/16 107/2/16 106/2/16
f 114/2/17 110/2/17 109/2/17
f 113/2/18 116/2/18 115/2/18
f 111/2/19 124/2/19 123/2/19
f 126/2/20 115/2/20 114/2/20
f 125/2/21 128/2/21 127/2/21
f 123/2/22 118/2/22 117/2/22
f 120/2/23 127/2/23 126/2/23
f 119/2/24 122/2/24 121/2/24
f 117/2/25 106/2/25 105/2/25
f 109/2/26 121/2/26 120/2/26
f 123/2/5 105/2/5 111/2/5
f 110/2/1 112/2/1 107/2/1
f 121/2/4 106/2/4 119/2/4
f 114/2/6 120/2/6 126/2/6
f 115/2/2 124/2/2 113/2/2
f 127/2/3 118/2/3 125/2/3
f 130/3/1 131/3/1 129/3/1
f 132/3/2 135/3/2 131/3/2
f 136/3/3 133/3/3 135/3/3
f 134/3/4 129/3/4 133/3/4
f 135/3/5 129/3/5 131/3/5
f 132/3/6 134/3/6 136/3/6
f 137/1/27 138/1/27 139/1/27
f 140/1/28 141/1/28 142/1/28
f 143/1/29 144/1/29 145/1/29
f 146/1/30 147/1/30 148/1/30
f 149/1/37 150/1/37 151/1/37
f 152/1/38 153/1/38 154/1/38
f 155/1/39 156/1/39 157/1/39
f 158/1/40 159/1/40 160/1/40
f 137/1/15 144/1/15 143/1/15
f 140/1/16 139/1/16 138/1/16
f 146/1/17 142/1/17 141/1/17
f 145/1/18 148/1/18 147/1/18
f 143/1/19 156/1/19 155/1/19
f 158/1/20 147/1/20 146/1/20
f 157/1/21 160/1/21 159/1/21
f 155/1/22 150/1/22 149/1/22
f 152/1/23 159/1/23 158/1/23
f 151/1/24 154/1/24 153/1/24
f 149/1/25 138/1/25 137/1/25
f 141/1/26 153/1/26 152/1/26
f 155/1/5 137/1/5 143/1/5
f 142/1/1 144/1/1 139/1/1
f 153/1/4 138/1/4 151/1/4
f 146/1/6 152/1/6 158/1/6
f 147/1/2 156/1/2 145/1/2
f 159/1/3 150/1/3 157/1/3
f 161/4/7 162/4/7 163/4/7
f 164/4/8 165/4/8 166/4/8
f 167/4/35 168/4/35 169/4/35
f 170/4/36 171/4/36 172/4/36
f 173/4/47 174/4/47 175/4/47
f 176/4/48 177/4/48 178/4/48
f 179/4/33 180/4/33 181/4/33
f 182/4/34 183/4/34 184/4/34
f 161/4/15 168/4/15 167/4/15
f 164/4/16 163/4/16 162/4/16
f 170/4/17 166/4/17 165/4/17
f 169/4/18 172/4/18 171/4/18
f 167/4/19 180/4/19 179/4/19
f 182/4/20 171/4/20 170/4/20
f 181/4/21 184/4/21 183/4/21
f 179/4/22 174/4/22 173/4/22
f 176/4/23 183/4/23 182/4/23
f 175/4/24 178/4/24 177/4/24
f 173/4/25 162/4/25 161/4/25
f 165/4/26 177/4/26 176/4/26
f 179/4/5 161/4/5 167/4/5
f 166/4/1 168/4/1 163/4/1
f 177/4/4 162/4/4 175/4/4
f 170/4/6 176/4/6 182/4/6
f 171/4/2 180/4/2 169/4/2
f 183/4/3 174/4/3 181/4/3
f 185/4/27 186/4/27 187/4/27
f 188/4/49 189/4/49 190/4/49
f 191/4/29 192/4/29 193/4/29
f 194/4/44 195/4/44 196/4/44
f 197/4/37 198/4/37 199/4/37
f 200/4/50 201/4/50 202/4/50
f 203/4/39 204/4/39 205/4/39
f 206/4/14 207/4/14 208/4/14
f 185/4/15 192/4/15 191/4/15
f 188/4/16 187/4/16 186/4/16
f 194/4/17 190/4/17 189/4/17
f 193/4/18 196/4/18 195/4/18
f 191/4/19 204/4/19 203/4/19
f 206/4/20 195/4/20 194/4/20
f 205/4/21 208/4/21 207/4/21
f 203/4/22 198/4/22 197/4/22
f 200/4/23 207/4/23 206/4/23
f 199/4/24 202/4/24 201/4/24
f 197/4/25 186/4/25 185/4/25
f 189/4/26 201/4/26 200/4/26
f 203/4/5 185/4/5 191/4/5
f 190/4/1 192/4/1 187/4/1
f 201/4/4 186/4/4 199/4/4
f 194/4/6 200/4/6 206/4/6
f 195/4/2 204/4/2 193/4/2
f 207/4/3 198/4/3 205/4/3
f 209/2/51 210/2/51 211/2/51
f 212/2/28 213/2/28 214/2/28
f 215/2/52 216/2/52 217/2/52
f 218/2/30 219/2/30 220/2/30
f 221/2/47 222/2/47 223/2/47
f 224/2/38 225/2/38 226/2/38
f 227/2/53 228/2/53 229/2/53
f 230/2/40 231/2/40 232/2/40
f 209/2/15 216/2/15 215/2/15
f 212/2/16 211/2/16 210/2/16
f 218/2/17 214/2/17 213/2/17
f 217/2/18 220/2/18 219/2/18
f 215/2/19 228/2/19 227/2/19
f 230/2/20 219/2/20 218/2/20
f 229/2/21 232/2/21 231/2/21
f 227/2/22 222/2/22 221/2/22
f 224/2/23 231/2/23 230/2/23
f 223/2/24 226/2/24 225/2/24
f 221/2/25 210/2/25 209/2/25
f 213/2/26 225/2/26 224/2/26
f 227/2/5 209/2/5 215/2/5
f 214/2/1 216/2/1 211/2/1
f 225/2/4 210/2/4 223/2/4
f 218/2/6 224/2/6 230/2/6
f 219/2/2 228/2/2 217/2/2
f 231/2/3 222/2/3 229/2/3
f 233/5/7 234/5/7 235/5/7
f 236/5/54 237/5/54 238/5/54
f 239/5/35 240/5/35 241/5/35
f 242/5/10 243/5/10 244/5/10
f 245/5/31 246/5/31 247/5/31
f 248/5/55 249/5/55 250/5/55
f 251/5/33 252/5/33 253/5/33
f 254/5/46 255/5/46 256/5/46
f 233/5/15 240/5/15 239/5/15
f 236/5/16 235/5/16 234/5/16
f 242/5/17 238/5/17 237/5/17
f 241/5/18 244/5/18 243/5/18
f 239/5/19 252/5/19 251/5/19
f 254/5/20 243/5/20 242/5/20
f 253/5/21 256/5/21 255/5/21
f 251/5/22 246/5/22 245/5/22
f 248/5/23 255/5/23 254/5/23
f 247/5/24 250/5/24 249/5/24
f 245/5/25 234/5/25 233/5/25
f 237/5/26 249/5/26 248/5/26
f 251/5/5 233/5/5 239/5/5
f 238/5/1 240/5/1 235/5/1
f 249/5/4 234/5/4 247/5/4
f 242/5/6 248/5/6 254/5/6
f 243/5/2 252/5/2 241/5/2
f 255/5/3 246/5/3 253/5/3
f 257/4/56 258/4/56 259/4/56
f 260/4/54 261/4/54 262/4/54
f 263/4/9 264/4/9 265/4/9
f 266/4/10 267/4/10 268/4/10
f 269/4/57 270/4/57 271/4/57
f 272/4/55 273/4/55 274/4/55
f 275/4/45 276/4/45 277/4/45
f 278/4/46 279/4/46 280/4/46
f 257/4/15 264/4/15 263/4/15
f 260/4/16 259/4/16 258/4/16
f 266/4/17 262/4/17 261/4/17
f 265/4/18 268/4/18 267/4/18
f 263/4/19 276/4/19 275/4/19
f 278/4/20 267/4/20 266/4/20
f 277/4/21 280/4/21 279/4/21
f 275/4/22 270/4/22 269/4/22
f 272/4/23 279/4/23 278/4/23
f 271/4/24 274/4/24 273/4/24
f 269/4/25 258/4/25 257/4/25
f 261/4/26 273/4/26 272/4/26
f 275/4/5 257/4/5 263/4/5
f 262/4/1 264/4/1 259/4/1
f 273/4/4 258/4/4 271/4/4
f 266/4/6 272/4/6 278/4/6
f 267/4/2 276/4/2 265/4/2
f 279/4/3 270/4/3 277/4/3
f 281/5/56 282/5/56 283/5/56
f 284/5/54 285/5/54 286/5/54
f 287/5/9 288/5/9 289/5/9
f 290/5/10 291/5/10 292/5/10
f 293/5/57 294/5/57 295/5/57
f 296/5/55 297/5/55 298/5/55
f 299/5/45 300/5/45 301/5/45
f 302/5/46 303/5/46 304/5/46
f 281/5/15 288/5/15 287/5/15
f 284/5/16 283/5/16 282/5/16
f 290/5/17 286/5/17 285/5/17
f 289/5/18 292/5/18 291/5/18
f 287/5/19 300/5/19 299/5/19
f 302/5/20 291/5/20 290/5/20
f 301/5/21 304/5/21 303/5/21
f 299/5/22 294/5/22 293/5/22
f 296/5/23 303/5/23 302/5/23
f 295/5/24 298/5/24 297/5/24
f 293/5/25 282/5/25 281/5/25
f 285/5/26 297/5/26 296/5/26
f 299/5/5 281/5/5 287/5/5
f 286/5/1 288/5/1 283/5/1
f 297/5/4 282/5/4 295/5/4
f 290/5/6 296/5/6 302/5/6
f 291/5/2 300/5/2 289/5/2
f 303/5/3 294/5/3 301/5/3
f 305/4/7 306/4/7 307/4/7
f 308/4/8 309/4/8 310/4/8
f 311/4/35 312/4/35 313/4/35
f 314/4/36 315/4/36 316/4/36
f 317/4/31 318/4/31 319/4/31
f 320/4/55 321/4/55 322/4/55
f 323/4/33 324/4/33 325/4/33
f 326/4/46 327/4/46 328/4/46
f 305/4/15 312/4/15 311/4/15
f 308/4/16 307/4/16 306/4/16
f 314/4/17 310/4/17 309/4/17
f 313/4/18 316/4/18 315/4/18
f 311/4/19 324/4/19 323/4/19
f 326/4/20 315/4/20 314/4/20
f 325/4/21 328/4/21 327/4/21
f 323/4/22 318/4/22 317/4/22
f 320/4/23 327/4/23 326/4/23
f 319/4/24 322/4/24 321/4/24
f 317/4/25 306/4/25 305/4/25
f 309/4/26 321/4/26 320/4/26
f 323/4/5 305/4/5 311/4/5
f 310/4/1 312/4/1 307/4/1
f 321/4/4 306/4/4 319/4/4
f 314/4/6 320/4/6 326/4/6
f 315/4/2 324/4/2 313/4/2
f 327/4/3 318/4/3 325/4/3
f 329/1/27 330/1/27 331/1/27
f 332/1/54 333/1/54 334/1/54
f 335/1/9 336/1/9 337/1/9
f 338/1/10 339/1/10 340/1/10
f 341/1/58 342/1/58 343/1/58
f 344/1/50 345/1/50 346/1/50
f 347/1/13 348/1/13 349/1/13
f 350/1/14 351/1/14 352/1/14
f 329/1/15 336/1/15 335/1/15
f 332/1/16 331/1/16 330/1/16
f 338/1/17 334/1/17 333/1/17
f 337/1/18 340/1/18 339/1/18
f 335/1/19 348/1/19 347/1/19
f 350/1/20 339/1/20 338/1/20
f 349/1/21 352/1/21 351/1/21
f 347/1/22 342/1/22 341/1/22
f 344/1/23 351/1/23 350/1/23
f 343/1/24 346/1/24 345/1/24
f 341/1/25 330/1/25 329/1/25
f 333/1/26 345/1/26 344/1/26
f 347/1/5 329/1/5 335/1/5
f 334/1/1 336/1/1 331/1/1
f 345/1/4 330/1/4 343/1/4
f 338/1/6 344/1/6 350/1/6
f 339/1/2 348/1/2 337/1/2
f 351/1/3 342/1/3 349/1/3
f 353/5/56 354/5/56 355/5/56
f 356/5/54 357/5/54 358/5/54
f 359/5/9 360/5/9 361/5/9
f 362/5/10 363/5/10 364/5/10
f 365/5/57 366/5/57 367/5/57
f 368/5/55 369/5/55 370/5/55
f 371/5/45 372/5/45 373/5/45
f 374/5/46 375/5/46 376/5/46
f 353/5/15 360/5/15 359/5/15
f 356/5/16 355/5/16 354/5/16
f 362/5/17 358/5/17 357/5/17
f 361/5/18 364/5/18 363/5/18
f 359/5/19 372/5/19 371/5/19
f 374/5/20 363/5/20 362/5/20
f 373/5/21 376/5/21 375/5/21
f 371/5/22 366/5/22 365/5/22
f 368/5/23 375/5/23 374/5/23
f 367/5/24 370/5/24 369/5/24
f 365/5/25 354/5/25 353/5/25
f 357/5/26 369/5/26 368/5/26
f 371/5/5 353/5/5 359/5/5
f 358/5/1 360/5/1 355/5/1
f 369/5/4 354/5/4 367/5/4
f 362/5/6 368/5/6 374/5/6
f 363/5/2 372/5/2 361/5/2
f 375/5/3 366/5/3 373/5/3
f 2/1/1 4/1/1 3/1/1
f 4/1/2 8/1/2 7/1/2
f 8/1/3 6/1/3 5/1/3
f 6/1/4 2/1/4 1/1/4
f 7/1/5 5/1/5 1/1/5
f 4/1/6 2/1/6 6/1/6
f 9/2/15 11/2/15 16/2/15
f 12/2/16 14/2/16 11/2/16
f 18/2/17 20/2/17 14/2/17
f 17/2/18 16/2/18 20/2/18
f 15/2/19 17/2/19 28/2/19
f 30/2/20 32/2/20 19/2/20
f 29/2/21 28/2/21 32/2/21
f 27/2/22 29/2/22 22/2/22
f 24/2/23 26/2/23 31/2/23
f 23/2/24 22/2/24 26/2/24
f 21/2/25 23/2/25 10/2/25
f 13/2/26 12/2/26 25/2/26
f 27/2/5 21/2/5 9/2/5
f 14/2/1 20/2/1 16/2/1
f 25/2/4 12/2/4 10/2/4
f 18/2/6 13/2/6 24/2/6
f 19/2/2 32/2/2 28/2/2
f 31/2/3 26/2/3 22/2/3
f 33/2/15 35/2/15 40/2/15
f 36/2/16 38/2/16 35/2/16
f 42/2/17 44/2/17 38/2/17
f 41/2/18 40/2/18 44/2/18
f 39/2/19 41/2/19 52/2/19
f 54/2/20 56/2/20 43/2/20
f 53/2/21 52/2/21 56/2/21
f 51/2/22 53/2/22 46/2/22
f 48/2/23 50/2/23 55/2/23
f 47/2/24 46/2/24 50/2/24
f 45/2/25 47/2/25 34/2/25
f 37/2/26 36/2/26 49/2/26
f 51/2/5 45/2/5 33/2/5
f 38/2/1 44/2/1 40/2/1
f 49/2/4 36/2/4 34/2/4
f 42/2/6 37/2/6 48/2/6
f 43/2/2 56/2/2 52/2/2
f 55/2/3 50/2/3 46/2/3
f 57/2/15 59/2/15 64/2/15
f 60/2/16 62/2/16 59/2/16
f 66/2/17 68/2/17 62/2/17
f 65/2/18 64/2/18 68/2/18
f 63/2/19 65/2/19 76/2/19
f 78/2/20 80/2/20 67/2/20
f 77/2/21 76/2/21 80/2/21
f 75/2/22 77/2/22 70/2/22
f 72/2/23 74/2/23 79/2/23
f 71/2/24 70/2/24 74/2/24
f 69/2/25 71/2/25 58/2/25
f 61/2/26 60/2/26 73/2/26
f 75/2/5 69/2/5 57/2/5
f 62/2/1 68/2/1 64/2/1
f 73/2/4 60/2/4 58/2/4
f 66/2/6 61/2/6 72/2/6
f 67/2/2 80/2/2 76/2/2
f 79/2/3 74/2/3 70/2/3
f 81/2/15 83/2/15 88/2/15
f 84/2/16 86/2/16 83/2/16
f 90/2/17 92/2/17 86/2/17
f 89/2/18 88/2/18 92/2/18
f 87/2/19 89/2/19 100/2/19
f 102/2/20 104/2/20 91/2/20
f 101/2/21 100/2/21 104/2/21
f 99/2/22 101/2/22 94/2/22
f 96/2/23 98/2/23 103/2/23
f 95/2/24 94/2/24 98/2/24
f 93/2/25 95/2/25 82/2/25
f 85/2/26 84/2/26 97/2/26
f 99/2/5 93/2/5 81/2/5
f 86/2/1 92/2/1 88/2/1
f 97/2/4 84/2/4 82/2/4
f 90/2/6 85/2/6 96/2/6
f 91/2/2 104/2/2 100/2/2
f 103/2/3 98/2/3 94/2/3
f 105/2/15 107/2/15 112/2/15
f 108/2/16 110/2/16 107/2/16
f 114/2/17 116/2/17 110/2/17
f 113/2/18 112/2/18 116/2/18
f 111/2/19 113/2/19 124/2/19
f 126/2/20 128/2/20 115/2/20
f 125/2/21 124/2/21 128/2/21
f 123/2/22 125/2/22 118/2/22
f 120/2/23 122/2/23 127/2/23
f 119/2/24 118/2/24 122/2/24
f 117/2/25 119/2/25 106/2/25
f 109/2/26 108/2/26 121/2/26
f 123/2/5 117/2/5 105/2/5
f 110/2/1 116/2/1 112/2/1
f 121/2/4 108/2/4 106/2/4
f 114/2/6 109/2/6 120/2/6
f 115/2/2 128/2/2 124/2/2
f 127/2/3 122/2/3 118/2/3
f 130/3/1 132/3/1 131/3/1
f 132/3/2 136/3/2 135/3/2
f 136/3/3 134/3/3 133/3/3
f 134/3/4 130/3/4 129/3/4
f 135/3/5 133/3/5 129/3/5
f 132/3/6 130/3/6 134/3/6
f 137/1/15 139/1/15 144/1/15
f 140/1/16 142/1/16 139/1/16
f 146/1/17 148/1/17 142/1/17
f 145/1/18 144/1/18 148/1/18
f 143/1/19 145/1/19 156/1/19
f 158/1/20 160/1/20 147/1/20
f 157/1/21 156/1/21 160/1/21
f 155/1/22 157/1/22 150/1/22
f 152/1/23 154/1/23 159/1/23
f 151/1/24 150/1/24 154/1/24
f 149/1/25 151/1/25 138/1/25
f 141/1/26 140/1/26 153/1/26
f 155/1/5 149/1/5 137/1/5
f 142/1/1 148/1/1 144/1/1
f 153/1/4 140/1/4 138/1/4
f 146/1/6 141/1/6 152/1/6
f 147/1/2 160/1/2 156/1/2
f 159/1/3 154/1/3 150/1/3
f 161/4/15 163/4/15 168/4/15
f 164/4/16 166/4/16 163/4/16
f 170/4/17 172/4/17 166/4/17
f 169/4/18 168/4/18 172/4/18
f 167/4/19 169/4/19 180/4/19
f 182/4/20 184/4/20 171/4/20
f 181/4/21 180/4/21 184/4/21
f 179/4/22 181/4/22 174/4/22
f 176/4/23 178/4/23 183/4/23
f 175/4/24 174/4/24 178/4/24
f 173/4/25 175/4/25 162/4/25
f 165/4/26 164/4/26 177/4/26
f 179/4/5 173/4/5 161/4/5
f 166/4/1 172/4/1 168/4/1
f 177/4/4 164/4/4 162/4/4
f 170/4/6 165/4/6 176/4/6
f 171/4/2 184/4/2 180/4/2
f 183/4/3 178/4/3 174/4/3
f 185/4/15 187/4/15 192/4/15
f 188/4/16 190/4/16 187/4/16
f 194/4/17 196/4/17 190/4/17
f 193/4/18 192/4/18 196/4/18
f 191/4/19 193/4/19 204/4/19
f 206/4/20 208/4/20 195/4/20
f 205/4/21 204/4/21 208/4/21
f 203/4/22 205/4/22 198/4/22
f 200/4/23 202/4/23 207/4/23
f 199/4/24 198/4/24 202/4/24
f 197/4/25 199/4/25 186/4/25
f 189/4/26 188/4/26 201/4/26
f 203/4/5 197/4/5 185/4/5
f 190/4/1 196/4/1 192/4/1
f 201/4/4 188/4/4 186/4/4
f 194/4/6 189/4/6 200/4/6
f 195/4/2 208/4/2 204/4/2
f 207/4/3 202/4/3 198/4/3
f 209/2/15 211/2/15 216/2/15
f 212/2/16 214/2/16 211/2/16
f 218/2/17 220/2/17 214/2/17
f 217/2/18 216/2/18 220/2/18
f 215/2/19 217/2/19 228/2/19
f 230/2/20 232/2/20 219/2/20
f 229/2/21 228/2/21 232/2/21
f 227/2/22 229/2/22 222/2/22
f 224/2/23 226/2/23 231/2/23
f 223/2/24 222/2/24 226/2/24
f 221/2/25 223/2/25 210/2/25
f 213/2/26 212/2/26 225/2/26
f 227/2/5 221/2/5 209/2/5
f 214/2/1 220/2/1 216/2/1
f 225/2/4 212/2/4 210/2/4
f 218/2/6 213/2/6 224/2/6
f 219/2/2 232/2/2 228/2/2
f 231/2/3 226/2/3 222/2/3
f 233/5/15 235/5/15 240/5/15
f 236/5/16 238/5/16 235/5/16
f 242/5/17 244/5/17 238/5/17
f 241/5/18 240/5/18 244/5/18
f 239/5/19 241/5/19 252/5/19
f 254/5/20 256/5/20 243/5/20
f 253/5/21 252/5/21 256/5/21
f 251/5/22 253/5/22 246/5/22
f 248/5/23 250/5/23 255/5/23
f 247/5/24 246/5/24 250/5/24
f 245/5/25 247/5/25 234/5/25
f 237/5/26 236/5/26 249/5/26
f 251/5/5 245/5/5 233/5/5
f 238/5/1 244/5/1 240/5/1
f 249/5/4 236/5/4 234/5/4
f 242/5/6 237/5/6 248/5/6
f 243/5/2 256/5/2 252/5/2
f 255/5/3 250/5/3 246/5/3
f 257/4/15 259/4/15 264/4/15
f 260/4/16 262/4/16 259/4/16
f 266/4/17 268/4/17 262/4/17
f 265/4/18 264/4/18 268/4/18
f 263/4/19 265/4/19 276/4/19
f 278/4/20 280/4/20 267/4/20
f 277/4/21 276/4/21 280/4/21
f 275/4/22 277/4/22 270/4/22
f 272/4/23 274/4/23 279/4/23
f 271/4/24 270/4/24 274/4/24
f 269/4/25 271/4/25 258/4/25
f 261/4/26 260/4/26 273/4/26
f 275/4/5 269/4/5 257/4/5
f 262/4/1 268/4/1 264/4/1
f 273/4/4 260/4/4 258/4/4
f 266/4/6 261/4/6 272/4/6
f 267/4/2 280/4/2 276/4/2
f 279/4/3 274/4/3 270/4/3
f 281/5/15 283/5/15 288/5/15
f 284/5/16 286/5/16 283/5/16
f 290/5/17 292/5/17 286/5/17
f 289/5/18 288/5/18 292/5/18
f 287/5/19 289/5/19 300/5/19
f 302/5/20 304/5/20 291/5/20
f 301/5/21 300/5/21 304/5/21
f 299/5/22 301/5/22 294/5/22
f 296/5/23 298/5/23 303/5/23
f 295/5/24 294/5/24 298/5/24
f 293/5/25 295/5/25 282/5/25
f 285/5/26 284/5/26 297/5/26
f 299/5/5 293/5/5 281/5/5
f 286/5/1 292/5/1 288/5/1
f 297/5/4 284/5/4 282/5/4
f 290/5/6 285/5/6 296/5/6
f 291/5/2 304/5/2 300/5/2
f 303/5/3 298/5/3 294/5/3
f 305/4/15 307/4/15 312/4/15
f 308/4/16 310/4/16 307/4/16
f 314/4/17 316/4/17 310/4/17
f 313/4/18 312/4/18 316/4/18
f 311/4/19 313/4/19 324/4/19
f 326/4/20 328/4/20 315/4/20
f 325/4/21 324/4/21 328/4/21
f 323/4/22 325/4/22 318/4/22
f 320/4/23 322/4/23 327/4/23
f 319/4/24 318/4/24 322/4/24
f 317/4/25 319/4/25 306/4/25
f 309/4/26 308/4/26 321/4/26
f 323/4/5 317/4/5 305/4/5
f 310/4/1 316/4/1 312/4/1
f 321/4/4 308/4/4 306/4/4
f 314/4/6 309/4/6 320/4/6
f 315/4/2 328/4/2 324/4/2
f 327/4/3 322/4/3 318/4/3
f 329/1/15 331/1/15 336/1/15
f 332/1/16 334/1/16 331/1/16
f 338/1/17 340/1/17 334/1/17
f 337/1/18 336/1/18 340/1/18
f 335/1/19 337/1/19 348/1/19
f 350/1/20 352/1/20 339/1/20
f 349/1/21 348/1/21 352/1/21
f 347/1/22 349/1/22 342/1/22
f 344/1/23 346/1/23 351/1/23
f 343/1/24 342/1/24 346/1/24
f 341/1/25 343/1/25 330/1/25
f 333/1/26 332/1/26 345/1/26
f 347/1/5 341/1/5 329/1/5
f 334/1/1 340/1/1 336/1/1
f 345/1/4 332/1/4 330/1/4
f 338/1/6 333/1/6 344/1/6
f 339/1/2 352/1/2 348/1/2
f 351/1/3 346/1/3 342/1/3
f 353/5/15 355/5/15 360/5/15
f 356/5/16 358/5/16 355/5/16
f 362/5/17 364/5/17 358/5/17
f 361/5/18 360/5/18 364/5/18
f 359/5/19 361/5/19 372/5/19
f 374/5/20 376/5/20 363/5/20
f 373/5/21 372/5/21 376/5/21
f 371/5/22 373/5/22 366/5/22
f 368/5/23 370/5/23 375/5/23
f 367/5/24 366/5/24 370/5/24
f 365/5/25 367/5/25 354/5/25
f 357/5/26 356/5/26 369/5/26
f 371/5/5 365/5/5 353/5/5
f 358/5/1 364/5/1 360/5/1
f 369/5/4 356/5/4 354/5/4
f 362/5/6 357/5/6 368/5/6
f 363/5/2 376/5/2 372/5/2
f 375/5/3 370/5/3 366/5/3
