# Blender 5.1.1
# www.blender.org
o meja_panjang
v -0.028000 -0.355000 0.028000
v -0.028000 -0.343000 0.040000
v -0.040000 -0.343000 0.028000
v -0.028000 0.343000 0.040000
v -0.028000 0.355000 0.028000
v -0.040000 0.343000 0.028000
v -0.028000 -0.355000 -0.028000
v -0.040000 -0.343000 -0.028000
v -0.028000 -0.343000 -0.040000
v -0.028000 0.355000 -0.028000
v -0.028000 0.343000 -0.040000
v -0.040000 0.343000 -0.028000
v 0.028000 -0.355000 0.028000
v 0.040000 -0.343000 0.028000
v 0.028000 -0.343000 0.040000
v 0.028000 0.355000 0.028000
v 0.028000 0.343000 0.040000
v 0.040000 0.343000 0.028000
v 0.028000 -0.355000 -0.028000
v 0.028000 -0.343000 -0.040000
v 0.040000 -0.343000 -0.028000
v 0.028000 0.355000 -0.028000
v 0.040000 0.343000 -0.028000
v 0.028000 0.343000 -0.040000
v -0.028000 -0.355000 -0.822000
v -0.028000 -0.343000 -0.810000
v -0.040000 -0.343000 -0.822000
v -0.028000 0.343000 -0.810000
v -0.028000 0.355000 -0.822000
v -0.040000 0.343000 -0.822000
v -0.028000 -0.355000 -0.878000
v -0.040000 -0.343000 -0.878000
v -0.028000 -0.343000 -0.890000
v -0.028000 0.355000 -0.878000
v -0.028000 0.343000 -0.890000
v -0.040000 0.343000 -0.878000
v 0.028000 -0.355000 -0.822000
v 0.040000 -0.343000 -0.822000
v 0.028000 -0.343000 -0.810000
v 0.028000 0.355000 -0.822000
v 0.028000 0.343000 -0.810000
v 0.040000 0.343000 -0.822000
v 0.028000 -0.355000 -0.878000
v 0.028000 -0.343000 -0.890000
v 0.040000 -0.343000 -0.878000
v 0.028000 0.355000 -0.878000
v 0.040000 0.343000 -0.878000
v 0.028000 0.343000 -0.890000
v 3.472000 -0.355000 0.028000
v 3.472000 -0.343000 0.040000
v 3.460000 -0.343000 0.028000
v 3.472000 0.343000 0.040000
v 3.472000 0.355000 0.028000
v 3.460000 0.343000 0.028000
v 3.472000 -0.355000 -0.028000
v 3.460000 -0.343000 -0.028000
v 3.472000 -0.343000 -0.040000
v 3.472000 0.355000 -0.028000
v 3.472000 0.343000 -0.040000
v 3.460000 0.343000 -0.028000
v 3.528000 -0.355000 0.028000
v 3.540000 -0.343000 0.028000
v 3.528000 -0.343000 0.040000
v 3.528000 0.355000 0.028000
v 3.528000 0.343000 0.040000
v 3.540000 0.343000 0.028000
v 3.528000 -0.355000 -0.028000
v 3.528000 -0.343000 -0.040000
v 3.540000 -0.343000 -0.028000
v 3.528000 0.355000 -0.028000
v 3.540000 0.343000 -0.028000
v 3.528000 0.343000 -0.040000
v 3.472000 -0.355000 -0.822000
v 3.472000 -0.343000 -0.810000
v 3.460000 -0.343000 -0.822000
v 3.472000 0.343000 -0.810000
v 3.472000 0.355000 -0.822000
v 3.460000 0.343000 -0.822000
v 3.472000 -0.355000 -0.878000
v 3.460000 -0.343000 -0.878000
v 3.472000 -0.343000 -0.890000
v 3.472000 0.355000 -0.878000
v 3.472000 0.343000 -0.890000
v 3.460000 0.343000 -0.878000
v 3.528000 -0.355000 -0.822000
v 3.540000 -0.343000 -0.822000
v 3.528000 -0.343000 -0.810000
v 3.528000 0.355000 -0.822000
v 3.528000 0.343000 -0.810000
v 3.540000 0.343000 -0.822000
v 3.528000 -0.355000 -0.878000
v 3.528000 -0.343000 -0.890000
v 3.540000 -0.343000 -0.878000
v 3.528000 0.355000 -0.878000
v 3.540000 0.343000 -0.878000
v 3.528000 0.343000 -0.890000
v -0.038000 0.255000 0.038000
v -0.038000 0.267000 0.050000
v -0.050000 0.267000 0.038000
v -0.038000 0.343000 0.050000
v -0.038000 0.355000 0.038000
v -0.050000 0.343000 0.038000
v -0.038000 0.255000 -0.888000
v -0.050000 0.267000 -0.888000
v -0.038000 0.267000 -0.900000
v -0.038000 0.355000 -0.888000
v -0.038000 0.343000 -0.900000
v -0.050000 0.343000 -0.888000
v 3.538000 0.255000 0.038000
v 3.550000 0.267000 0.038000
v 3.538000 0.267000 0.050000
v 3.538000 0.355000 0.038000
v 3.538000 0.343000 0.050000
v 3.550000 0.343000 0.038000
v 3.538000 0.255000 -0.888000
v 3.538000 0.267000 -0.900000
v 3.550000 0.267000 -0.888000
v 3.538000 0.355000 -0.888000
v 3.550000 0.343000 -0.888000
v 3.538000 0.343000 -0.900000
v -0.085000 0.355000 0.085000
v -0.085000 0.370000 0.100000
v -0.100000 0.370000 0.085000
v -0.085000 0.390000 0.100000
v -0.085000 0.405000 0.085000
v -0.100000 0.390000 0.085000
v -0.085000 0.355000 -0.935000
v -0.100000 0.370000 -0.935000
v -0.085000 0.370000 -0.950000
v -0.085000 0.405000 -0.935000
v -0.085000 0.390000 -0.950000
v -0.100000 0.390000 -0.935000
v 3.585000 0.355000 0.085000
v 3.600000 0.370000 0.085000
v 3.585000 0.370000 0.100000
v 3.585000 0.405000 0.085000
v 3.585000 0.390000 0.100000
v 3.600000 0.390000 0.085000
v 3.585000 0.355000 -0.935000
v 3.585000 0.370000 -0.950000
v 3.600000 0.370000 -0.935000
v 3.585000 0.405000 -0.935000
v 3.600000 0.390000 -0.935000
v 3.585000 0.390000 -0.950000
v 0.455000 0.405000 -0.215000
v 0.455000 0.411000 -0.215000
v 0.455000 0.405000 -0.635000
v 0.455000 0.411000 -0.635000
v 3.045000 0.405000 -0.215000
v 3.045000 0.411000 -0.215000
v 3.045000 0.405000 -0.635000
v 3.045000 0.411000 -0.635000
v 0.455000 0.405000 -0.590000
v 0.455000 0.412000 -0.590000
v 0.455000 0.405000 -0.640000
v 0.455000 0.412000 -0.640000
v 3.045000 0.405000 -0.590000
v 3.045000 0.412000 -0.590000
v 3.045000 0.405000 -0.640000
v 3.045000 0.412000 -0.640000
v 0.455000 0.405000 -0.210000
v 0.455000 0.412000 -0.210000
v 0.455000 0.405000 -0.260000
v 0.455000 0.412000 -0.260000
v 3.045000 0.405000 -0.210000
v 3.045000 0.412000 -0.210000
v 3.045000 0.405000 -0.260000
v 3.045000 0.412000 -0.260000
v 1.750000 0.405000 -0.595000
v 1.750000 0.485000 -0.625000
v 1.835000 0.405000 -0.572224
v 1.850000 0.485000 -0.598205
v 1.897224 0.405000 -0.510000
v 1.923205 0.485000 -0.525000
v 1.920000 0.405000 -0.425000
v 1.950000 0.485000 -0.425000
v 1.897224 0.405000 -0.340000
v 1.923205 0.485000 -0.325000
v 1.835000 0.405000 -0.277776
v 1.850000 0.485000 -0.251795
v 1.750000 0.405000 -0.255000
v 1.750000 0.485000 -0.225000
v 1.665000 0.405000 -0.277776
v 1.650000 0.485000 -0.251795
v 1.602776 0.405000 -0.340000
v 1.576795 0.485000 -0.325000
v 1.580000 0.405000 -0.425000
v 1.550000 0.485000 -0.425000
v 1.602776 0.405000 -0.510000
v 1.576795 0.485000 -0.525000
v 1.665000 0.405000 -0.572224
v 1.650000 0.485000 -0.598205
v 1.820000 0.575000 -0.425000
v 1.820000 0.455000 -0.425000
v 1.837634 0.566962 -0.449271
v 1.850542 0.545000 -0.467038
v 1.855267 0.515000 -0.473541
v 1.850542 0.485000 -0.467038
v 1.837634 0.463038 -0.449271
v 1.848532 0.566962 -0.434271
v 1.869418 0.545000 -0.441057
v 1.877063 0.515000 -0.443541
v 1.869418 0.485000 -0.441057
v 1.848532 0.463038 -0.434271
v 1.848532 0.566962 -0.415729
v 1.869418 0.545000 -0.408943
v 1.877063 0.515000 -0.406459
v 1.869418 0.485000 -0.408943
v 1.848532 0.463038 -0.415729
v 1.837634 0.566962 -0.400730
v 1.850542 0.545000 -0.382962
v 1.855267 0.515000 -0.376459
v 1.850542 0.485000 -0.382962
v 1.837634 0.463038 -0.400730
v 1.820000 0.566962 -0.395000
v 1.820000 0.545000 -0.373038
v 1.820000 0.515000 -0.365000
v 1.820000 0.485000 -0.373038
v 1.820000 0.463038 -0.395000
v 1.802366 0.566962 -0.400730
v 1.789458 0.545000 -0.382962
v 1.784733 0.515000 -0.376459
v 1.789458 0.485000 -0.382962
v 1.802366 0.463038 -0.400730
v 1.791468 0.566962 -0.415729
v 1.770582 0.545000 -0.408943
v 1.762937 0.515000 -0.406459
v 1.770582 0.485000 -0.408943
v 1.791468 0.463038 -0.415729
v 1.791468 0.566962 -0.434271
v 1.770582 0.545000 -0.441057
v 1.762937 0.515000 -0.443541
v 1.770582 0.485000 -0.441057
v 1.791468 0.463038 -0.434271
v 1.802366 0.566962 -0.449271
v 1.789458 0.545000 -0.467038
v 1.784733 0.515000 -0.473541
v 1.789458 0.485000 -0.467038
v 1.802366 0.463038 -0.449271
v 1.820000 0.566962 -0.455000
v 1.820000 0.545000 -0.476962
v 1.820000 0.515000 -0.485000
v 1.820000 0.485000 -0.476962
v 1.820000 0.463038 -0.455000
v 1.750000 0.575000 -0.495000
v 1.750000 0.455000 -0.495000
v 1.767634 0.566962 -0.519271
v 1.780542 0.545000 -0.537038
v 1.785267 0.515000 -0.543541
v 1.780542 0.485000 -0.537038
v 1.767634 0.463038 -0.519271
v 1.778532 0.566962 -0.504270
v 1.799418 0.545000 -0.511057
v 1.807063 0.515000 -0.513541
v 1.799418 0.485000 -0.511057
v 1.778532 0.463038 -0.504270
v 1.778532 0.566962 -0.485729
v 1.799418 0.545000 -0.478943
v 1.807063 0.515000 -0.476459
v 1.799418 0.485000 -0.478943
v 1.778532 0.463038 -0.485729
v 1.767634 0.566962 -0.470730
v 1.780542 0.545000 -0.452962
v 1.785267 0.515000 -0.446459
v 1.780542 0.485000 -0.452962
v 1.767634 0.463038 -0.470730
v 1.750000 0.566962 -0.465000
v 1.750000 0.545000 -0.443038
v 1.750000 0.515000 -0.435000
v 1.750000 0.485000 -0.443038
v 1.750000 0.463038 -0.465000
v 1.732366 0.566962 -0.470730
v 1.719458 0.545000 -0.452962
v 1.714733 0.515000 -0.446459
v 1.719458 0.485000 -0.452962
v 1.732366 0.463038 -0.470730
v 1.721468 0.566962 -0.485729
v 1.700582 0.545000 -0.478943
v 1.692937 0.515000 -0.476459
v 1.700582 0.485000 -0.478943
v 1.721468 0.463038 -0.485729
v 1.721468 0.566962 -0.504270
v 1.700582 0.545000 -0.511057
v 1.692937 0.515000 -0.513541
v 1.700582 0.485000 -0.511057
v 1.721468 0.463038 -0.504270
v 1.732366 0.566962 -0.519271
v 1.719458 0.545000 -0.537038
v 1.714733 0.515000 -0.543541
v 1.719458 0.485000 -0.537038
v 1.732366 0.463038 -0.519271
v 1.750000 0.566962 -0.525000
v 1.750000 0.545000 -0.546962
v 1.750000 0.515000 -0.555000
v 1.750000 0.485000 -0.546962
v 1.750000 0.463038 -0.525000
v 1.680000 0.575000 -0.425000
v 1.680000 0.455000 -0.425000
v 1.697634 0.566962 -0.449271
v 1.710542 0.545000 -0.467038
v 1.715267 0.515000 -0.473541
v 1.710542 0.485000 -0.467038
v 1.697634 0.463038 -0.449271
v 1.708532 0.566962 -0.434271
v 1.729418 0.545000 -0.441057
v 1.737063 0.515000 -0.443541
v 1.729418 0.485000 -0.441057
v 1.708532 0.463038 -0.434271
v 1.708532 0.566962 -0.415729
v 1.729418 0.545000 -0.408943
v 1.737063 0.515000 -0.406459
v 1.729418 0.485000 -0.408943
v 1.708532 0.463038 -0.415729
v 1.697634 0.566962 -0.400730
v 1.710542 0.545000 -0.382962
v 1.715267 0.515000 -0.376459
v 1.710542 0.485000 -0.382962
v 1.697634 0.463038 -0.400730
v 1.680000 0.566962 -0.395000
v 1.680000 0.545000 -0.373038
v 1.680000 0.515000 -0.365000
v 1.680000 0.485000 -0.373038
v 1.680000 0.463038 -0.395000
v 1.662366 0.566962 -0.400730
v 1.649458 0.545000 -0.382962
v 1.644733 0.515000 -0.376459
v 1.649458 0.485000 -0.382962
v 1.662366 0.463038 -0.400730
v 1.651468 0.566962 -0.415729
v 1.630582 0.545000 -0.408943
v 1.622937 0.515000 -0.406459
v 1.630582 0.485000 -0.408943
v 1.651468 0.463038 -0.415729
v 1.651468 0.566962 -0.434271
v 1.630582 0.545000 -0.441057
v 1.622937 0.515000 -0.443541
v 1.630582 0.485000 -0.441057
v 1.651468 0.463038 -0.434271
v 1.662366 0.566962 -0.449271
v 1.649458 0.545000 -0.467038
v 1.644733 0.515000 -0.473541
v 1.649458 0.485000 -0.467038
v 1.662366 0.463038 -0.449271
v 1.680000 0.566962 -0.455000
v 1.680000 0.545000 -0.476962
v 1.680000 0.515000 -0.485000
v 1.680000 0.485000 -0.476962
v 1.680000 0.463038 -0.455000
v 1.750000 0.575000 -0.355000
v 1.750000 0.455000 -0.355000
v 1.767634 0.566962 -0.379271
v 1.780542 0.545000 -0.397038
v 1.785267 0.515000 -0.403541
v 1.780542 0.485000 -0.397038
v 1.767634 0.463038 -0.379271
v 1.778532 0.566962 -0.364271
v 1.799418 0.545000 -0.371057
v 1.807063 0.515000 -0.373541
v 1.799418 0.485000 -0.371057
v 1.778532 0.463038 -0.364271
v 1.778532 0.566962 -0.345730
v 1.799418 0.545000 -0.338943
v 1.807063 0.515000 -0.336459
v 1.799418 0.485000 -0.338943
v 1.778532 0.463038 -0.345730
v 1.767634 0.566962 -0.330730
v 1.780542 0.545000 -0.312962
v 1.785267 0.515000 -0.306459
v 1.780542 0.485000 -0.312962
v 1.767634 0.463038 -0.330730
v 1.750000 0.566962 -0.325000
v 1.750000 0.545000 -0.303038
v 1.750000 0.515000 -0.295000
v 1.750000 0.485000 -0.303038
v 1.750000 0.463038 -0.325000
v 1.732366 0.566962 -0.330730
v 1.719458 0.545000 -0.312962
v 1.714733 0.515000 -0.306459
v 1.719458 0.485000 -0.312962
v 1.732366 0.463038 -0.330730
v 1.721468 0.566962 -0.345730
v 1.700582 0.545000 -0.338943
v 1.692937 0.515000 -0.336459
v 1.700582 0.485000 -0.338943
v 1.721468 0.463038 -0.345730
v 1.721468 0.566962 -0.364271
v 1.700582 0.545000 -0.371057
v 1.692937 0.515000 -0.373541
v 1.700582 0.485000 -0.371057
v 1.721468 0.463038 -0.364271
v 1.732366 0.566962 -0.379271
v 1.719458 0.545000 -0.397038
v 1.714733 0.515000 -0.403541
v 1.719458 0.485000 -0.397038
v 1.732366 0.463038 -0.379271
v 1.750000 0.566962 -0.385000
v 1.750000 0.545000 -0.406962
v 1.750000 0.515000 -0.415000
v 1.750000 0.485000 -0.406962
v 1.750000 0.463038 -0.385000
v 0.566000 0.405000 -0.345000
v 0.566000 0.425000 -0.345000
v 0.626000 0.405000 -0.328923
v 0.626000 0.425000 -0.328923
v 0.669923 0.405000 -0.285000
v 0.669923 0.425000 -0.285000
v 0.686000 0.405000 -0.225000
v 0.686000 0.425000 -0.225000
v 0.669923 0.405000 -0.165000
v 0.669923 0.425000 -0.165000
v 0.626000 0.405000 -0.121077
v 0.626000 0.425000 -0.121077
v 0.566000 0.405000 -0.105000
v 0.566000 0.425000 -0.105000
v 0.506000 0.405000 -0.121077
v 0.506000 0.425000 -0.121077
v 0.462077 0.405000 -0.165000
v 0.462077 0.425000 -0.165000
v 0.446000 0.405000 -0.225000
v 0.446000 0.425000 -0.225000
v 0.462077 0.405000 -0.285000
v 0.462077 0.425000 -0.285000
v 0.506000 0.405000 -0.328923
v 0.506000 0.425000 -0.328923
v 0.566000 0.405000 -0.745000
v 0.566000 0.425000 -0.745000
v 0.626000 0.405000 -0.728923
v 0.626000 0.425000 -0.728923
v 0.669923 0.405000 -0.685000
v 0.669923 0.425000 -0.685000
v 0.686000 0.405000 -0.625000
v 0.686000 0.425000 -0.625000
v 0.669923 0.405000 -0.565000
v 0.669923 0.425000 -0.565000
v 0.626000 0.405000 -0.521077
v 0.626000 0.425000 -0.521077
v 0.566000 0.405000 -0.505000
v 0.566000 0.425000 -0.505000
v 0.506000 0.405000 -0.521077
v 0.506000 0.425000 -0.521077
v 0.462077 0.405000 -0.565000
v 0.462077 0.425000 -0.565000
v 0.446000 0.405000 -0.625000
v 0.446000 0.425000 -0.625000
v 0.462077 0.405000 -0.685000
v 0.462077 0.425000 -0.685000
v 0.506000 0.405000 -0.728923
v 0.506000 0.425000 -0.728923
v 0.746000 0.405000 -0.260000
v 0.746000 0.515000 -0.260000
v 0.770749 0.405000 -0.249749
v 0.770749 0.515000 -0.249749
v 0.781000 0.405000 -0.225000
v 0.781000 0.515000 -0.225000
v 0.770749 0.405000 -0.200251
v 0.770749 0.515000 -0.200251
v 0.746000 0.405000 -0.190000
v 0.746000 0.515000 -0.190000
v 0.721251 0.405000 -0.200251
v 0.721251 0.515000 -0.200251
v 0.711000 0.405000 -0.225000
v 0.711000 0.515000 -0.225000
v 0.721251 0.405000 -0.249749
v 0.721251 0.515000 -0.249749
v 2.934000 0.405000 -0.345000
v 2.934000 0.425000 -0.345000
v 2.994000 0.405000 -0.328923
v 2.994000 0.425000 -0.328923
v 3.037923 0.405000 -0.285000
v 3.037923 0.425000 -0.285000
v 3.054000 0.405000 -0.225000
v 3.054000 0.425000 -0.225000
v 3.037923 0.405000 -0.165000
v 3.037923 0.425000 -0.165000
v 2.994000 0.405000 -0.121077
v 2.994000 0.425000 -0.121077
v 2.934000 0.405000 -0.105000
v 2.934000 0.425000 -0.105000
v 2.874000 0.405000 -0.121077
v 2.874000 0.425000 -0.121077
v 2.830077 0.405000 -0.165000
v 2.830077 0.425000 -0.165000
v 2.814000 0.405000 -0.225000
v 2.814000 0.425000 -0.225000
v 2.830077 0.405000 -0.285000
v 2.830077 0.425000 -0.285000
v 2.874000 0.405000 -0.328923
v 2.874000 0.425000 -0.328923
v 2.934000 0.405000 -0.745000
v 2.934000 0.425000 -0.745000
v 2.994000 0.405000 -0.728923
v 2.994000 0.425000 -0.728923
v 3.037923 0.405000 -0.685000
v 3.037923 0.425000 -0.685000
v 3.054000 0.405000 -0.625000
v 3.054000 0.425000 -0.625000
v 3.037923 0.405000 -0.565000
v 3.037923 0.425000 -0.565000
v 2.994000 0.405000 -0.521077
v 2.994000 0.425000 -0.521077
v 2.934000 0.405000 -0.505000
v 2.934000 0.425000 -0.505000
v 2.874000 0.405000 -0.521077
v 2.874000 0.425000 -0.521077
v 2.830077 0.405000 -0.565000
v 2.830077 0.425000 -0.565000
v 2.814000 0.405000 -0.625000
v 2.814000 0.425000 -0.625000
v 2.830077 0.405000 -0.685000
v 2.830077 0.425000 -0.685000
v 2.874000 0.405000 -0.728923
v 2.874000 0.425000 -0.728923
v 3.114000 0.405000 -0.260000
v 3.114000 0.515000 -0.260000
v 3.138749 0.405000 -0.249749
v 3.138749 0.515000 -0.249749
v 3.149000 0.405000 -0.225000
v 3.149000 0.515000 -0.225000
v 3.138749 0.405000 -0.200251
v 3.138749 0.515000 -0.200251
v 3.114000 0.405000 -0.190000
v 3.114000 0.515000 -0.190000
v 3.089251 0.405000 -0.200251
v 3.089251 0.515000 -0.200251
v 3.079000 0.405000 -0.225000
v 3.079000 0.515000 -0.225000
v 3.089251 0.405000 -0.249749
v 3.089251 0.515000 -0.249749
vn -0.5773 -0.5774 0.5774
vn -0.5773 0.5774 0.5774
vn -0.5773 -0.5774 -0.5774
vn -0.5773 0.5774 -0.5774
vn 0.5773 -0.5774 0.5774
vn 0.5773 0.5774 0.5774
vn 0.5773 -0.5774 -0.5774
vn 0.5773 0.5774 -0.5774
vn -0.7071 -0.7071 -0.0000
vn -0.7071 -0.0000 0.7071
vn -0.7071 0.7071 -0.0000
vn -0.7071 -0.0000 -0.7071
vn -0.0000 -0.7071 -0.7071
vn -0.0000 0.7071 -0.7071
vn 0.7071 -0.0000 -0.7071
vn 0.7071 -0.7071 -0.0000
vn 0.7071 0.7071 -0.0000
vn 0.7071 -0.0000 0.7071
vn -0.0000 -0.7071 0.7071
vn -0.0000 0.7071 0.7071
vn -0.0000 -1.0000 -0.0000
vn -1.0000 -0.0000 -0.0000
vn -0.0000 -0.0000 1.0000
vn -0.0000 1.0000 -0.0000
vn -0.0000 -0.0000 -1.0000
vn 1.0000 -0.0000 -0.0000
vn -0.5773 -0.5774 0.5773
vn -0.5773 0.5774 0.5773
vn -0.5773 -0.5774 -0.5773
vn -0.5773 0.5774 -0.5773
vn 0.5773 -0.5774 0.5773
vn 0.5773 0.5774 0.5773
vn 0.5773 -0.5774 -0.5773
vn 0.5773 0.5774 -0.5773
vn -0.5774 -0.5774 0.5773
vn -0.5774 0.5774 0.5773
vn -0.5774 -0.5774 -0.5773
vn -0.5774 0.5774 -0.5773
vn 0.5774 -0.5774 0.5773
vn 0.5774 0.5774 0.5773
vn 0.5774 -0.5774 -0.5773
vn 0.5774 0.5774 -0.5773
vn -0.5774 -0.5773 0.5774
vn -0.5773 -0.5773 -0.5774
vn -0.5773 0.5773 -0.5774
vn 0.5774 -0.5773 0.5773
vn 0.5774 0.5773 0.5773
vn 0.5774 -0.5773 -0.5773
vn 0.5774 0.5773 -0.5773
vn -0.5774 0.5773 0.5774
vn -0.5774 -0.5773 -0.5774
vn -0.5774 0.5773 -0.5774
vn 0.2433 -0.3406 -0.9082
vn 0.6648 -0.3406 -0.6648
vn 0.9082 -0.3406 -0.2433
vn 0.9082 -0.3406 0.2433
vn 0.6648 -0.3406 0.6648
vn 0.2433 -0.3406 0.9082
vn -0.2433 -0.3406 0.9082
vn -0.6648 -0.3406 0.6648
vn -0.9082 -0.3406 0.2433
vn -0.9082 -0.3406 -0.2433
vn -0.6648 -0.3406 -0.6648
vn -0.2433 -0.3406 -0.9082
vn 0.2239 -0.6892 -0.6892
vn 0.2994 0.2469 -0.9216
vn 0.0838 0.9625 -0.2579
vn 0.0838 -0.9625 -0.2579
vn 0.2994 -0.2469 -0.9216
vn 0.2239 0.6892 -0.6892
vn 0.5862 -0.6892 -0.4259
vn 0.7840 0.2469 -0.5696
vn 0.2194 0.9625 -0.1594
vn 0.2194 -0.9625 -0.1594
vn 0.7840 -0.2469 -0.5696
vn 0.5862 0.6892 -0.4259
vn 0.9690 0.2469 -0.0000
vn 0.2712 0.9625 -0.0000
vn 0.2712 -0.9625 -0.0000
vn 0.9690 -0.2469 -0.0000
vn 0.7246 0.6892 -0.0000
vn 0.7246 -0.6892 -0.0000
vn 0.2194 0.9625 0.1594
vn 0.2194 -0.9625 0.1594
vn 0.7840 -0.2469 0.5696
vn 0.5862 0.6892 0.4259
vn 0.5862 -0.6892 0.4259
vn 0.7840 0.2469 0.5696
vn 0.0838 -0.9625 0.2579
vn 0.2994 -0.2469 0.9216
vn 0.2239 0.6892 0.6892
vn 0.2239 -0.6892 0.6892
vn 0.2994 0.2469 0.9216
vn 0.0838 0.9625 0.2579
vn -0.0838 -0.9625 0.2579
vn -0.2994 -0.2469 0.9216
vn -0.2239 0.6892 0.6892
vn -0.2239 -0.6891 0.6892
vn -0.2994 0.2469 0.9216
vn -0.0838 0.9625 0.2579
vn -0.2194 -0.9625 0.1594
vn -0.7840 -0.2469 0.5696
vn -0.5862 0.6892 0.4259
vn -0.5862 -0.6892 0.4259
vn -0.7840 0.2469 0.5696
vn -0.2194 0.9625 0.1594
vn -0.9690 -0.2469 -0.0000
vn -0.7246 0.6892 -0.0000
vn -0.7246 -0.6892 -0.0000
vn -0.9690 0.2469 -0.0000
vn -0.2712 0.9625 -0.0000
vn -0.2712 -0.9625 -0.0000
vn -0.5862 0.6892 -0.4259
vn -0.5862 -0.6892 -0.4259
vn -0.7840 0.2469 -0.5696
vn -0.2194 0.9625 -0.1594
vn -0.2194 -0.9625 -0.1594
vn -0.7840 -0.2469 -0.5696
vn -0.2239 -0.6891 -0.6892
vn -0.2994 0.2469 -0.9216
vn -0.0838 0.9625 -0.2579
vn -0.0838 -0.9625 -0.2579
vn -0.2994 -0.2469 -0.9216
vn -0.2239 0.6892 -0.6892
vn 0.2239 0.6891 -0.6892
vn 0.2239 0.6891 0.6892
vn -0.2239 0.6891 0.6892
vn -0.2239 -0.6892 0.6892
vn -0.2239 -0.6892 -0.6892
vn 0.2239 -0.6891 -0.6892
vn 0.2239 -0.6891 0.6892
vn -0.2239 0.6891 -0.6892
vn 0.2588 -0.0000 -0.9659
vn 0.9659 -0.0000 -0.2588
vn 0.9659 -0.0000 0.2588
vn 0.2588 -0.0000 0.9659
vn -0.2588 -0.0000 0.9659
vn -0.9659 -0.0000 0.2588
vn -0.9659 -0.0000 -0.2588
vn -0.2588 -0.0000 -0.9659
vn 0.3827 -0.0000 -0.9239
vn 0.9239 -0.0000 -0.3827
vn 0.9239 -0.0000 0.3827
vn 0.3827 -0.0000 0.9239
vn -0.3827 -0.0000 0.9239
vn -0.9239 -0.0000 0.3827
vn -0.9239 -0.0000 -0.3827
vn -0.3827 -0.0000 -0.9239
vn 0.2239 0.6892 -0.6891
vn 0.5862 0.6891 0.4259
vn -0.5862 0.6891 0.4259
vn -0.5862 -0.6891 -0.4259
vn -0.2239 0.6892 0.6891
vt 0.031250 0.968750
vt 0.093750 0.968750
vt 0.343750 0.968750
vt 0.468750 0.968750
vt 0.781250 0.906250
vt 0.656250 0.843750
vt 0.718750 0.843750
vt 0.781250 0.843750
vt 0.093750 0.843750
vt 0.468750 0.843750
s 0
f 1/1/1 2/1/1 3/1/1
f 4/1/2 5/1/2 6/1/2
f 7/1/3 8/1/3 9/1/3
f 10/1/4 11/1/4 12/1/4
f 13/1/5 14/1/5 15/1/5
f 16/1/6 17/1/6 18/1/6
f 19/1/7 20/1/7 21/1/7
f 22/1/8 23/1/8 24/1/8
f 1/1/9 8/1/9 7/1/9
f 4/1/10 3/1/10 2/1/10
f 10/1/11 6/1/11 5/1/11
f 9/1/12 12/1/12 11/1/12
f 7/1/13 20/1/13 19/1/13
f 22/1/14 11/1/14 10/1/14
f 21/1/15 24/1/15 23/1/15
f 19/1/16 14/1/16 13/1/16
f 16/1/17 23/1/17 22/1/17
f 15/1/18 18/1/18 17/1/18
f 13/1/19 2/1/19 1/1/19
f 5/1/20 17/1/20 16/1/20
f 19/1/21 1/1/21 7/1/21
f 6/1/22 8/1/22 3/1/22
f 17/1/23 2/1/23 15/1/23
f 10/1/24 16/1/24 22/1/24
f 11/1/25 20/1/25 9/1/25
f 23/1/26 14/1/26 21/1/26
f 25/1/27 26/1/27 27/1/27
f 28/1/28 29/1/28 30/1/28
f 31/1/29 32/1/29 33/1/29
f 34/1/30 35/1/30 36/1/30
f 37/1/31 38/1/31 39/1/31
f 40/1/32 41/1/32 42/1/32
f 43/1/33 44/1/33 45/1/33
f 46/1/34 47/1/34 48/1/34
f 25/1/9 32/1/9 31/1/9
f 28/1/10 27/1/10 26/1/10
f 34/1/11 30/1/11 29/1/11
f 33/1/12 36/1/12 35/1/12
f 31/1/13 44/1/13 43/1/13
f 46/1/14 35/1/14 34/1/14
f 45/1/15 48/1/15 47/1/15
f 43/1/16 38/1/16 37/1/16
f 40/1/17 47/1/17 46/1/17
f 39/1/18 42/1/18 41/1/18
f 37/1/19 26/1/19 25/1/19
f 29/1/20 41/1/20 40/1/20
f 43/1/21 25/1/21 31/1/21
f 30/1/22 32/1/22 27/1/22
f 41/1/23 26/1/23 39/1/23
f 34/1/24 40/1/24 46/1/24
f 35/1/25 44/1/25 33/1/25
f 47/1/26 38/1/26 45/1/26
f 49/1/35 50/1/35 51/1/35
f 52/1/36 53/1/36 54/1/36
f 55/1/37 56/1/37 57/1/37
f 58/1/38 59/1/38 60/1/38
f 61/1/39 62/1/39 63/1/39
f 64/1/40 65/1/40 66/1/40
f 67/1/41 68/1/41 69/1/41
f 70/1/42 71/1/42 72/1/42
f 49/1/9 56/1/9 55/1/9
f 52/1/10 51/1/10 50/1/10
f 58/1/11 54/1/11 53/1/11
f 57/1/12 60/1/12 59/1/12
f 55/1/13 68/1/13 67/1/13
f 70/1/14 59/1/14 58/1/14
f 69/1/15 72/1/15 71/1/15
f 67/1/16 62/1/16 61/1/16
f 64/1/17 71/1/17 70/1/17
f 63/1/18 66/1/18 65/1/18
f 61/1/19 50/1/19 49/1/19
f 53/1/20 65/1/20 64/1/20
f 67/1/21 49/1/21 55/1/21
f 54/1/22 56/1/22 51/1/22
f 65/1/23 50/1/23 63/1/23
f 58/1/24 64/1/24 70/1/24
f 59/1/25 68/1/25 57/1/25
f 71/1/26 62/1/26 69/1/26
f 73/1/35 74/1/35 75/1/35
f 76/1/36 77/1/36 78/1/36
f 79/1/37 80/1/37 81/1/37
f 82/1/38 83/1/38 84/1/38
f 85/1/39 86/1/39 87/1/39
f 88/1/40 89/1/40 90/1/40
f 91/1/41 92/1/41 93/1/41
f 94/1/42 95/1/42 96/1/42
f 73/1/9 80/1/9 79/1/9
f 76/1/10 75/1/10 74/1/10
f 82/1/11 78/1/11 77/1/11
f 81/1/12 84/1/12 83/1/12
f 79/1/13 92/1/13 91/1/13
f 94/1/14 83/1/14 82/1/14
f 93/1/15 96/1/15 95/1/15
f 91/1/16 86/1/16 85/1/16
f 88/1/17 95/1/17 94/1/17
f 87/1/18 90/1/18 89/1/18
f 85/1/19 74/1/19 73/1/19
f 77/1/20 89/1/20 88/1/20
f 91/1/21 73/1/21 79/1/21
f 78/1/22 80/1/22 75/1/22
f 89/1/23 74/1/23 87/1/23
f 82/1/24 88/1/24 94/1/24
f 83/1/25 92/1/25 81/1/25
f 95/1/26 86/1/26 93/1/26
f 97/2/43 98/2/43 99/2/43
f 100/2/2 101/2/2 102/2/2
f 103/2/44 104/2/44 105/2/44
f 106/2/45 107/2/45 108/2/45
f 109/2/46 110/2/46 111/2/46
f 112/2/47 113/2/47 114/2/47
f 115/2/48 116/2/48 117/2/48
f 118/2/49 119/2/49 120/2/49
f 97/2/9 104/2/9 103/2/9
f 100/2/10 99/2/10 98/2/10
f 106/2/11 102/2/11 101/2/11
f 105/2/12 108/2/12 107/2/12
f 103/2/13 116/2/13 115/2/13
f 118/2/14 107/2/14 106/2/14
f 117/2/15 120/2/15 119/2/15
f 115/2/16 110/2/16 109/2/16
f 112/2/17 119/2/17 118/2/17
f 111/2/18 114/2/18 113/2/18
f 109/2/19 98/2/19 97/2/19
f 101/2/20 113/2/20 112/2/20
f 115/2/21 97/2/21 103/2/21
f 102/2/22 104/2/22 99/2/22
f 113/2/23 98/2/23 111/2/23
f 106/2/24 112/2/24 118/2/24
f 107/2/25 116/2/25 105/2/25
f 119/2/26 110/2/26 117/2/26
f 121/2/43 122/2/43 123/2/43
f 124/2/50 125/2/50 126/2/50
f 127/2/51 128/2/51 129/2/51
f 130/2/52 131/2/52 132/2/52
f 133/2/39 134/2/39 135/2/39
f 136/2/40 137/2/40 138/2/40
f 139/2/41 140/2/41 141/2/41
f 142/2/42 143/2/42 144/2/42
f 121/2/9 128/2/9 127/2/9
f 124/2/10 123/2/10 122/2/10
f 130/2/11 126/2/11 125/2/11
f 129/2/12 132/2/12 131/2/12
f 127/2/13 140/2/13 139/2/13
f 142/2/14 131/2/14 130/2/14
f 141/2/15 144/2/15 143/2/15
f 139/2/16 134/2/16 133/2/16
f 136/2/17 143/2/17 142/2/17
f 135/2/18 138/2/18 137/2/18
f 133/2/19 122/2/19 121/2/19
f 125/2/20 137/2/20 136/2/20
f 139/2/21 121/2/21 127/2/21
f 126/2/22 128/2/22 123/2/22
f 137/2/23 122/2/23 135/2/23
f 130/2/24 136/2/24 142/2/24
f 131/2/25 140/2/25 129/2/25
f 143/2/26 134/2/26 141/2/26
f 146/3/22 147/3/22 145/3/22
f 148/3/25 151/3/25 147/3/25
f 152/3/26 149/3/26 151/3/26
f 150/3/23 145/3/23 149/3/23
f 151/3/21 145/3/21 147/3/21
f 148/3/24 150/3/24 152/3/24
f 154/4/22 155/4/22 153/4/22
f 156/4/25 159/4/25 155/4/25
f 160/4/26 157/4/26 159/4/26
f 158/4/23 153/4/23 157/4/23
f 159/4/21 153/4/21 155/4/21
f 156/4/24 158/4/24 160/4/24
f 162/4/22 163/4/22 161/4/22
f 164/4/25 167/4/25 163/4/25
f 168/4/26 165/4/26 167/4/26
f 166/4/23 161/4/23 165/4/23
f 167/4/21 161/4/21 163/4/21
f 164/4/24 166/4/24 168/4/24
f 169/5/53 172/5/53 171/5/53
f 172/5/54 173/5/54 171/5/54
f 174/5/55 175/5/55 173/5/55
f 175/5/56 178/5/56 177/5/56
f 177/5/57 180/5/57 179/5/57
f 180/5/58 181/5/58 179/5/58
f 182/5/59 183/5/59 181/5/59
f 184/5/60 185/5/60 183/5/60
f 186/5/61 187/5/61 185/5/61
f 187/5/62 190/5/62 189/5/62
f 190/5/24 182/5/24 174/5/24
f 190/5/63 191/5/63 189/5/63
f 192/5/64 169/5/64 191/5/64
f 175/5/21 183/5/21 191/5/21
f 243/6/65 199/6/65 244/6/65
f 241/6/66 197/6/66 242/6/66
f 240/6/67 193/6/67 195/6/67
f 194/6/68 244/6/68 199/6/68
f 243/6/69 197/6/69 198/6/69
f 240/6/70 196/6/70 241/6/70
f 198/6/71 204/6/71 199/6/71
f 196/6/72 202/6/72 197/6/72
f 195/6/73 193/6/73 200/6/73
f 194/6/74 199/6/74 204/6/74
f 198/6/75 202/6/75 203/6/75
f 195/6/76 201/6/76 196/6/76
f 201/6/77 207/6/77 202/6/77
f 200/6/78 193/6/78 205/6/78
f 194/6/79 204/6/79 209/6/79
f 203/6/80 207/6/80 208/6/80
f 200/6/81 206/6/81 201/6/81
f 203/6/82 209/6/82 204/6/82
f 205/6/83 193/6/83 210/6/83
f 194/6/84 209/6/84 214/6/84
f 207/6/85 213/6/85 208/6/85
f 206/6/86 210/6/86 211/6/86
f 209/6/87 213/6/87 214/6/87
f 206/6/88 212/6/88 207/6/88
f 194/6/89 214/6/89 219/6/89
f 212/6/90 218/6/90 213/6/90
f 211/6/91 215/6/91 216/6/91
f 214/6/92 218/6/92 219/6/92
f 211/6/93 217/6/93 212/6/93
f 210/6/94 193/6/94 215/6/94
f 194/6/95 219/6/95 224/6/95
f 217/6/96 223/6/96 218/6/96
f 215/6/97 221/6/97 216/6/97
f 219/6/98 223/6/98 224/6/98
f 216/6/99 222/6/99 217/6/99
f 215/6/100 193/6/100 220/6/100
f 194/6/101 224/6/101 229/6/101
f 223/6/102 227/6/102 228/6/102
f 220/6/103 226/6/103 221/6/103
f 223/6/104 229/6/104 224/6/104
f 221/6/105 227/6/105 222/6/105
f 220/6/106 193/6/106 225/6/106
f 228/6/107 232/6/107 233/6/107
f 225/6/108 231/6/108 226/6/108
f 228/6/109 234/6/109 229/6/109
f 226/6/110 232/6/110 227/6/110
f 225/6/111 193/6/111 230/6/111
f 194/6/112 229/6/112 234/6/112
f 230/6/113 236/6/113 231/6/113
f 233/6/114 239/6/114 234/6/114
f 232/6/115 236/6/115 237/6/115
f 230/6/116 193/6/116 235/6/116
f 194/6/117 234/6/117 239/6/117
f 232/6/118 238/6/118 233/6/118
f 238/6/119 244/6/119 239/6/119
f 237/6/120 241/6/120 242/6/120
f 235/6/121 193/6/121 240/6/121
f 194/6/122 239/6/122 244/6/122
f 237/6/123 243/6/123 238/6/123
f 235/6/124 241/6/124 236/6/124
f 296/7/65 250/7/65 251/7/65
f 293/7/66 249/7/66 294/7/66
f 292/7/67 245/7/67 247/7/67
f 246/7/68 296/7/68 251/7/68
f 295/7/69 249/7/69 250/7/69
f 292/7/125 248/7/125 293/7/125
f 251/7/71 255/7/71 256/7/71
f 248/7/72 254/7/72 249/7/72
f 247/7/73 245/7/73 252/7/73
f 246/7/74 251/7/74 256/7/74
f 250/7/75 254/7/75 255/7/75
f 247/7/76 253/7/76 248/7/76
f 253/7/77 259/7/77 254/7/77
f 252/7/78 245/7/78 257/7/78
f 246/7/79 256/7/79 261/7/79
f 254/7/80 260/7/80 255/7/80
f 252/7/81 258/7/81 253/7/81
f 256/7/82 260/7/82 261/7/82
f 257/7/83 245/7/83 262/7/83
f 246/7/84 261/7/84 266/7/84
f 259/7/85 265/7/85 260/7/85
f 258/7/86 262/7/86 263/7/86
f 260/7/87 266/7/87 261/7/87
f 258/7/88 264/7/88 259/7/88
f 246/7/89 266/7/89 271/7/89
f 264/7/90 270/7/90 265/7/90
f 262/7/126 268/7/126 263/7/126
f 266/7/92 270/7/92 271/7/92
f 263/7/93 269/7/93 264/7/93
f 262/7/94 245/7/94 267/7/94
f 246/7/95 271/7/95 276/7/95
f 270/7/96 274/7/96 275/7/96
f 268/7/127 272/7/127 273/7/127
f 270/7/128 276/7/128 271/7/128
f 268/7/99 274/7/99 269/7/99
f 267/7/100 245/7/100 272/7/100
f 246/7/101 276/7/101 281/7/101
f 275/7/102 279/7/102 280/7/102
f 272/7/103 278/7/103 273/7/103
f 276/7/104 280/7/104 281/7/104
f 273/7/105 279/7/105 274/7/105
f 272/7/106 245/7/106 277/7/106
f 280/7/107 284/7/107 285/7/107
f 278/7/108 282/7/108 283/7/108
f 280/7/109 286/7/109 281/7/109
f 278/7/110 284/7/110 279/7/110
f 277/7/111 245/7/111 282/7/111
f 246/7/112 281/7/112 286/7/112
f 283/7/113 287/7/113 288/7/113
f 285/7/114 291/7/114 286/7/114
f 284/7/115 288/7/115 289/7/115
f 282/7/116 245/7/116 287/7/116
f 246/7/117 286/7/117 291/7/117
f 284/7/118 290/7/118 285/7/118
f 291/7/129 295/7/129 296/7/129
f 288/7/120 294/7/120 289/7/120
f 287/7/121 245/7/121 292/7/121
f 246/7/122 291/7/122 296/7/122
f 290/7/123 294/7/123 295/7/123
f 287/7/124 293/7/124 288/7/124
f 346/8/69 302/8/69 347/8/69
f 345/8/70 299/8/70 300/8/70
f 347/8/130 303/8/130 348/8/130
f 345/8/66 301/8/66 346/8/66
f 344/8/67 297/8/67 299/8/67
f 298/8/68 348/8/68 303/8/68
f 302/8/71 308/8/71 303/8/71
f 300/8/72 306/8/72 301/8/72
f 299/8/73 297/8/73 304/8/73
f 298/8/74 303/8/74 308/8/74
f 301/8/75 307/8/75 302/8/75
f 300/8/76 304/8/76 305/8/76
f 308/8/82 312/8/82 313/8/82
f 305/8/77 311/8/77 306/8/77
f 304/8/78 297/8/78 309/8/78
f 298/8/79 308/8/79 313/8/79
f 307/8/80 311/8/80 312/8/80
f 304/8/81 310/8/81 305/8/81
f 312/8/87 318/8/87 313/8/87
f 311/8/88 315/8/88 316/8/88
f 309/8/83 297/8/83 314/8/83
f 298/8/84 313/8/84 318/8/84
f 311/8/85 317/8/85 312/8/85
f 309/8/86 315/8/86 310/8/86
f 315/8/93 321/8/93 316/8/93
f 314/8/94 297/8/94 319/8/94
f 298/8/89 318/8/89 323/8/89
f 316/8/90 322/8/90 317/8/90
f 315/8/91 319/8/91 320/8/91
f 317/8/131 323/8/131 318/8/131
f 319/8/100 297/8/100 324/8/100
f 298/8/95 323/8/95 328/8/95
f 321/8/96 327/8/96 322/8/96
f 319/8/97 325/8/97 320/8/97
f 322/8/128 328/8/128 323/8/128
f 320/8/99 326/8/99 321/8/99
f 298/8/101 328/8/101 333/8/101
f 327/8/102 331/8/102 332/8/102
f 324/8/103 330/8/103 325/8/103
f 327/8/104 333/8/104 328/8/104
f 326/8/105 330/8/105 331/8/105
f 324/8/106 297/8/106 329/8/106
f 298/8/112 333/8/112 338/8/112
f 332/8/107 336/8/107 337/8/107
f 329/8/108 335/8/108 330/8/108
f 333/8/109 337/8/109 338/8/109
f 330/8/110 336/8/110 331/8/110
f 329/8/111 297/8/111 334/8/111
f 298/8/117 338/8/117 343/8/117
f 336/8/118 342/8/118 337/8/118
f 334/8/113 340/8/113 335/8/113
f 337/8/114 343/8/114 338/8/114
f 335/8/115 341/8/115 336/8/115
f 334/8/116 297/8/116 339/8/116
f 341/8/123 347/8/123 342/8/123
f 339/8/124 345/8/124 340/8/124
f 343/8/129 347/8/129 348/8/129
f 341/8/120 345/8/120 346/8/120
f 339/8/121 297/8/121 344/8/121
f 298/8/122 343/8/122 348/8/122
f 398/6/69 354/6/69 399/6/69
f 396/6/125 352/6/125 397/6/125
f 400/6/65 354/6/65 355/6/65
f 398/6/66 352/6/66 353/6/66
f 396/6/67 349/6/67 351/6/67
f 350/6/68 400/6/68 355/6/68
f 354/6/71 360/6/71 355/6/71
f 352/6/72 358/6/72 353/6/72
f 351/6/73 349/6/73 356/6/73
f 350/6/74 355/6/74 360/6/74
f 354/6/75 358/6/75 359/6/75
f 351/6/76 357/6/76 352/6/76
f 360/6/82 364/6/82 365/6/82
f 357/6/77 363/6/77 358/6/77
f 356/6/78 349/6/78 361/6/78
f 350/6/79 360/6/79 365/6/79
f 359/6/80 363/6/80 364/6/80
f 356/6/81 362/6/81 357/6/81
f 364/6/87 370/6/87 365/6/87
f 363/6/88 367/6/88 368/6/88
f 361/6/83 349/6/83 366/6/83
f 350/6/84 365/6/84 370/6/84
f 363/6/85 369/6/85 364/6/85
f 361/6/86 367/6/86 362/6/86
f 368/6/93 372/6/93 373/6/93
f 366/6/94 349/6/94 371/6/94
f 350/6/89 370/6/89 375/6/89
f 368/6/90 374/6/90 369/6/90
f 367/6/126 371/6/126 372/6/126
f 369/6/92 375/6/92 370/6/92
f 371/6/100 349/6/100 376/6/100
f 350/6/95 375/6/95 380/6/95
f 373/6/96 379/6/96 374/6/96
f 371/6/127 377/6/127 372/6/127
f 374/6/128 380/6/128 375/6/128
f 372/6/99 378/6/99 373/6/99
f 350/6/101 380/6/101 385/6/101
f 378/6/102 384/6/102 379/6/102
f 377/6/103 381/6/103 382/6/103
f 380/6/104 384/6/104 385/6/104
f 377/6/105 383/6/105 378/6/105
f 376/6/106 349/6/106 381/6/106
f 350/6/112 385/6/112 390/6/112
f 384/6/107 388/6/107 389/6/107
f 381/6/108 387/6/108 382/6/108
f 385/6/109 389/6/109 390/6/109
f 382/6/110 388/6/110 383/6/110
f 381/6/111 349/6/111 386/6/111
f 350/6/117 390/6/117 395/6/117
f 388/6/118 394/6/118 389/6/118
f 386/6/113 392/6/113 387/6/113
f 389/6/114 395/6/114 390/6/114
f 388/6/115 392/6/115 393/6/115
f 386/6/116 349/6/116 391/6/116
f 393/6/123 399/6/123 394/6/123
f 392/6/132 396/6/132 397/6/132
f 394/6/129 400/6/129 395/6/129
f 392/6/120 398/6/120 393/6/120
f 391/6/121 349/6/121 396/6/121
f 350/6/122 395/6/122 400/6/122
f 402/9/133 403/9/133 401/9/133
f 404/9/15 405/9/15 403/9/15
f 406/9/134 407/9/134 405/9/134
f 408/9/135 409/9/135 407/9/135
f 410/9/18 411/9/18 409/9/18
f 412/9/136 413/9/136 411/9/136
f 414/9/137 415/9/137 413/9/137
f 416/9/10 417/9/10 415/9/10
f 418/9/138 419/9/138 417/9/138
f 420/9/139 421/9/139 419/9/139
f 422/9/24 414/9/24 406/9/24
f 422/9/12 423/9/12 421/9/12
f 424/9/140 401/9/140 423/9/140
f 407/9/21 415/9/21 423/9/21
f 426/9/133 427/9/133 425/9/133
f 428/9/15 429/9/15 427/9/15
f 430/9/134 431/9/134 429/9/134
f 432/9/135 433/9/135 431/9/135
f 434/9/18 435/9/18 433/9/18
f 436/9/136 437/9/136 435/9/136
f 438/9/137 439/9/137 437/9/137
f 440/9/10 441/9/10 439/9/10
f 442/9/138 443/9/138 441/9/138
f 444/9/139 445/9/139 443/9/139
f 446/9/24 438/9/24 430/9/24
f 446/9/12 447/9/12 445/9/12
f 448/9/140 425/9/140 447/9/140
f 431/9/21 439/9/21 447/9/21
f 450/10/141 451/10/141 449/10/141
f 452/10/142 453/10/142 451/10/142
f 454/10/143 455/10/143 453/10/143
f 456/10/144 457/10/144 455/10/144
f 458/10/145 459/10/145 457/10/145
f 460/10/146 461/10/146 459/10/146
f 462/10/24 458/10/24 454/10/24
f 462/10/147 463/10/147 461/10/147
f 464/10/148 449/10/148 463/10/148
f 455/10/21 459/10/21 463/10/21
f 466/9/133 467/9/133 465/9/133
f 468/9/15 469/9/15 467/9/15
f 470/9/134 471/9/134 469/9/134
f 472/9/135 473/9/135 471/9/135
f 474/9/18 475/9/18 473/9/18
f 476/9/136 477/9/136 475/9/136
f 478/9/137 479/9/137 477/9/137
f 480/9/10 481/9/10 479/9/10
f 482/9/138 483/9/138 481/9/138
f 484/9/139 485/9/139 483/9/139
f 486/9/24 478/9/24 470/9/24
f 486/9/12 487/9/12 485/9/12
f 488/9/140 465/9/140 487/9/140
f 471/9/21 479/9/21 487/9/21
f 490/9/133 491/9/133 489/9/133
f 492/9/15 493/9/15 491/9/15
f 494/9/134 495/9/134 493/9/134
f 496/9/135 497/9/135 495/9/135
f 498/9/18 499/9/18 497/9/18
f 500/9/136 501/9/136 499/9/136
f 502/9/137 503/9/137 501/9/137
f 504/9/10 505/9/10 503/9/10
f 506/9/138 507/9/138 505/9/138
f 508/9/139 509/9/139 507/9/139
f 510/9/24 502/9/24 494/9/24
f 510/9/12 511/9/12 509/9/12
f 512/9/140 489/9/140 511/9/140
f 495/9/21 503/9/21 511/9/21
f 514/10/141 515/10/141 513/10/141
f 516/10/142 517/10/142 515/10/142
f 518/10/143 519/10/143 517/10/143
f 520/10/144 521/10/144 519/10/144
f 522/10/145 523/10/145 521/10/145
f 524/10/146 525/10/146 523/10/146
f 526/10/24 522/10/24 518/10/24
f 526/10/147 527/10/147 525/10/147
f 528/10/148 513/10/148 527/10/148
f 519/10/21 523/10/21 527/10/21
f 1/1/9 3/1/9 8/1/9
f 4/1/10 6/1/10 3/1/10
f 10/1/11 12/1/11 6/1/11
f 9/1/12 8/1/12 12/1/12
f 7/1/13 9/1/13 20/1/13
f 22/1/14 24/1/14 11/1/14
f 21/1/15 20/1/15 24/1/15
f 19/1/16 21/1/16 14/1/16
f 16/1/17 18/1/17 23/1/17
f 15/1/18 14/1/18 18/1/18
f 13/1/19 15/1/19 2/1/19
f 5/1/20 4/1/20 17/1/20
f 19/1/21 13/1/21 1/1/21
f 6/1/22 12/1/22 8/1/22
f 17/1/23 4/1/23 2/1/23
f 10/1/24 5/1/24 16/1/24
f 11/1/25 24/1/25 20/1/25
f 23/1/26 18/1/26 14/1/26
f 25/1/9 27/1/9 32/1/9
f 28/1/10 30/1/10 27/1/10
f 34/1/11 36/1/11 30/1/11
f 33/1/12 32/1/12 36/1/12
f 31/1/13 33/1/13 44/1/13
f 46/1/14 48/1/14 35/1/14
f 45/1/15 44/1/15 48/1/15
f 43/1/16 45/1/16 38/1/16
f 40/1/17 42/1/17 47/1/17
f 39/1/18 38/1/18 42/1/18
f 37/1/19 39/1/19 26/1/19
f 29/1/20 28/1/20 41/1/20
f 43/1/21 37/1/21 25/1/21
f 30/1/22 36/1/22 32/1/22
f 41/1/23 28/1/23 26/1/23
f 34/1/24 29/1/24 40/1/24
f 35/1/25 48/1/25 44/1/25
f 47/1/26 42/1/26 38/1/26
f 49/1/9 51/1/9 56/1/9
f 52/1/10 54/1/10 51/1/10
f 58/1/11 60/1/11 54/1/11
f 57/1/12 56/1/12 60/1/12
f 55/1/13 57/1/13 68/1/13
f 70/1/14 72/1/14 59/1/14
f 69/1/15 68/1/15 72/1/15
f 67/1/16 69/1/16 62/1/16
f 64/1/17 66/1/17 71/1/17
f 63/1/18 62/1/18 66/1/18
f 61/1/19 63/1/19 50/1/19
f 53/1/20 52/1/20 65/1/20
f 67/1/21 61/1/21 49/1/21
f 54/1/22 60/1/22 56/1/22
f 65/1/23 52/1/23 50/1/23
f 58/1/24 53/1/24 64/1/24
f 59/1/25 72/1/25 68/1/25
f 71/1/26 66/1/26 62/1/26
f 73/1/9 75/1/9 80/1/9
f 76/1/10 78/1/10 75/1/10
f 82/1/11 84/1/11 78/1/11
f 81/1/12 80/1/12 84/1/12
f 79/1/13 81/1/13 92/1/13
f 94/1/14 96/1/14 83/1/14
f 93/1/15 92/1/15 96/1/15
f 91/1/16 93/1/16 86/1/16
f 88/1/17 90/1/17 95/1/17
f 87/1/18 86/1/18 90/1/18
f 85/1/19 87/1/19 74/1/19
f 77/1/20 76/1/20 89/1/20
f 91/1/21 85/1/21 73/1/21
f 78/1/22 84/1/22 80/1/22
f 89/1/23 76/1/23 74/1/23
f 82/1/24 77/1/24 88/1/24
f 83/1/25 96/1/25 92/1/25
f 95/1/26 90/1/26 86/1/26
f 97/2/9 99/2/9 104/2/9
f 100/2/10 102/2/10 99/2/10
f 106/2/11 108/2/11 102/2/11
f 105/2/12 104/2/12 108/2/12
f 103/2/13 105/2/13 116/2/13
f 118/2/14 120/2/14 107/2/14
f 117/2/15 116/2/15 120/2/15
f 115/2/16 117/2/16 110/2/16
f 112/2/17 114/2/17 119/2/17
f 111/2/18 110/2/18 114/2/18
f 109/2/19 111/2/19 98/2/19
f 101/2/20 100/2/20 113/2/20
f 115/2/21 109/2/21 97/2/21
f 102/2/22 108/2/22 104/2/22
f 113/2/23 100/2/23 98/2/23
f 106/2/24 101/2/24 112/2/24
f 107/2/25 120/2/25 116/2/25
f 119/2/26 114/2/26 110/2/26
f 121/2/9 123/2/9 128/2/9
f 124/2/10 126/2/10 123/2/10
f 130/2/11 132/2/11 126/2/11
f 129/2/12 128/2/12 132/2/12
f 127/2/13 129/2/13 140/2/13
f 142/2/14 144/2/14 131/2/14
f 141/2/15 140/2/15 144/2/15
f 139/2/16 141/2/16 134/2/16
f 136/2/17 138/2/17 143/2/17
f 135/2/18 134/2/18 138/2/18
f 133/2/19 135/2/19 122/2/19
f 125/2/20 124/2/20 137/2/20
f 139/2/21 133/2/21 121/2/21
f 126/2/22 132/2/22 128/2/22
f 137/2/23 124/2/23 122/2/23
f 130/2/24 125/2/24 136/2/24
f 131/2/25 144/2/25 140/2/25
f 143/2/26 138/2/26 134/2/26
f 146/3/22 148/3/22 147/3/22
f 148/3/25 152/3/25 151/3/25
f 152/3/26 150/3/26 149/3/26
f 150/3/23 146/3/23 145/3/23
f 151/3/21 149/3/21 145/3/21
f 148/3/24 146/3/24 150/3/24
f 154/4/22 156/4/22 155/4/22
f 156/4/25 160/4/25 159/4/25
f 160/4/26 158/4/26 157/4/26
f 158/4/23 154/4/23 153/4/23
f 159/4/21 157/4/21 153/4/21
f 156/4/24 154/4/24 158/4/24
f 162/4/22 164/4/22 163/4/22
f 164/4/25 168/4/25 167/4/25
f 168/4/26 166/4/26 165/4/26
f 166/4/23 162/4/23 161/4/23
f 167/4/21 165/4/21 161/4/21
f 164/4/24 162/4/24 166/4/24
f 169/5/53 170/5/53 172/5/53
f 172/5/54 174/5/54 173/5/54
f 174/5/55 176/5/55 175/5/55
f 175/5/56 176/5/56 178/5/56
f 177/5/57 178/5/57 180/5/57
f 180/5/58 182/5/58 181/5/58
f 182/5/59 184/5/59 183/5/59
f 184/5/60 186/5/60 185/5/60
f 186/5/61 188/5/61 187/5/61
f 187/5/62 188/5/62 190/5/62
f 174/5/24 172/5/24 170/5/24
f 170/5/24 192/5/24 190/5/24
f 190/5/24 188/5/24 186/5/24
f 186/5/24 184/5/24 182/5/24
f 182/5/24 180/5/24 178/5/24
f 178/5/24 176/5/24 174/5/24
f 174/5/24 170/5/24 190/5/24
f 190/5/24 186/5/24 182/5/24
f 182/5/24 178/5/24 174/5/24
f 190/5/63 192/5/63 191/5/63
f 192/5/64 170/5/64 169/5/64
f 191/5/21 169/5/21 171/5/21
f 171/5/21 173/5/21 175/5/21
f 175/5/21 177/5/21 179/5/21
f 179/5/21 181/5/21 183/5/21
f 183/5/21 185/5/21 187/5/21
f 187/5/21 189/5/21 191/5/21
f 191/5/21 171/5/21 175/5/21
f 175/5/21 179/5/21 183/5/21
f 183/5/21 187/5/21 191/5/21
f 243/6/65 198/6/65 199/6/65
f 241/6/66 196/6/66 197/6/66
f 243/6/69 242/6/69 197/6/69
f 240/6/149 195/6/149 196/6/149
f 198/6/71 203/6/71 204/6/71
f 196/6/72 201/6/72 202/6/72
f 198/6/75 197/6/75 202/6/75
f 195/6/76 200/6/76 201/6/76
f 201/6/77 206/6/77 207/6/77
f 203/6/80 202/6/80 207/6/80
f 200/6/81 205/6/81 206/6/81
f 203/6/82 208/6/82 209/6/82
f 207/6/85 212/6/85 213/6/85
f 206/6/150 205/6/150 210/6/150
f 209/6/87 208/6/87 213/6/87
f 206/6/88 211/6/88 212/6/88
f 212/6/90 217/6/90 218/6/90
f 211/6/91 210/6/91 215/6/91
f 214/6/92 213/6/92 218/6/92
f 211/6/93 216/6/93 217/6/93
f 217/6/96 222/6/96 223/6/96
f 215/6/127 220/6/127 221/6/127
f 219/6/128 218/6/128 223/6/128
f 216/6/99 221/6/99 222/6/99
f 223/6/102 222/6/102 227/6/102
f 220/6/103 225/6/103 226/6/103
f 223/6/104 228/6/104 229/6/104
f 221/6/105 226/6/105 227/6/105
f 228/6/107 227/6/107 232/6/107
f 225/6/108 230/6/108 231/6/108
f 228/6/109 233/6/109 234/6/109
f 226/6/110 231/6/110 232/6/110
f 230/6/113 235/6/113 236/6/113
f 233/6/114 238/6/114 239/6/114
f 232/6/115 231/6/115 236/6/115
f 232/6/118 237/6/118 238/6/118
f 238/6/129 243/6/129 244/6/129
f 237/6/120 236/6/120 241/6/120
f 237/6/123 242/6/123 243/6/123
f 235/6/132 240/6/132 241/6/132
f 296/7/65 295/7/65 250/7/65
f 293/7/66 248/7/66 249/7/66
f 295/7/69 294/7/69 249/7/69
f 292/7/70 247/7/70 248/7/70
f 251/7/71 250/7/71 255/7/71
f 248/7/72 253/7/72 254/7/72
f 250/7/75 249/7/75 254/7/75
f 247/7/76 252/7/76 253/7/76
f 253/7/77 258/7/77 259/7/77
f 254/7/80 259/7/80 260/7/80
f 252/7/81 257/7/81 258/7/81
f 256/7/82 255/7/82 260/7/82
f 259/7/85 264/7/85 265/7/85
f 258/7/150 257/7/150 262/7/150
f 260/7/87 265/7/87 266/7/87
f 258/7/88 263/7/88 264/7/88
f 264/7/90 269/7/90 270/7/90
f 262/7/91 267/7/91 268/7/91
f 266/7/92 265/7/92 270/7/92
f 263/7/93 268/7/93 269/7/93
f 270/7/96 269/7/96 274/7/96
f 268/7/97 267/7/97 272/7/97
f 270/7/128 275/7/128 276/7/128
f 268/7/99 273/7/99 274/7/99
f 275/7/102 274/7/102 279/7/102
f 272/7/151 277/7/151 278/7/151
f 276/7/104 275/7/104 280/7/104
f 273/7/105 278/7/105 279/7/105
f 280/7/107 279/7/107 284/7/107
f 278/7/108 277/7/108 282/7/108
f 280/7/109 285/7/109 286/7/109
f 278/7/110 283/7/110 284/7/110
f 283/7/113 282/7/113 287/7/113
f 285/7/152 290/7/152 291/7/152
f 284/7/115 283/7/115 288/7/115
f 284/7/118 289/7/118 290/7/118
f 291/7/129 290/7/129 295/7/129
f 288/7/120 293/7/120 294/7/120
f 290/7/123 289/7/123 294/7/123
f 287/7/124 292/7/124 293/7/124
f 346/8/69 301/8/69 302/8/69
f 345/8/125 344/8/125 299/8/125
f 347/8/65 302/8/65 303/8/65
f 345/8/66 300/8/66 301/8/66
f 302/8/71 307/8/71 308/8/71
f 300/8/72 305/8/72 306/8/72
f 301/8/75 306/8/75 307/8/75
f 300/8/76 299/8/76 304/8/76
f 308/8/82 307/8/82 312/8/82
f 305/8/77 310/8/77 311/8/77
f 307/8/80 306/8/80 311/8/80
f 304/8/81 309/8/81 310/8/81
f 312/8/87 317/8/87 318/8/87
f 311/8/88 310/8/88 315/8/88
f 311/8/85 316/8/85 317/8/85
f 309/8/86 314/8/86 315/8/86
f 315/8/93 320/8/93 321/8/93
f 316/8/90 321/8/90 322/8/90
f 315/8/126 314/8/126 319/8/126
f 317/8/92 322/8/92 323/8/92
f 321/8/96 326/8/96 327/8/96
f 319/8/153 324/8/153 325/8/153
f 322/8/128 327/8/128 328/8/128
f 320/8/99 325/8/99 326/8/99
f 327/8/102 326/8/102 331/8/102
f 324/8/151 329/8/151 330/8/151
f 327/8/104 332/8/104 333/8/104
f 326/8/105 325/8/105 330/8/105
f 332/8/107 331/8/107 336/8/107
f 329/8/108 334/8/108 335/8/108
f 333/8/109 332/8/109 337/8/109
f 330/8/110 335/8/110 336/8/110
f 336/8/118 341/8/118 342/8/118
f 334/8/113 339/8/113 340/8/113
f 337/8/114 342/8/114 343/8/114
f 335/8/115 340/8/115 341/8/115
f 341/8/123 346/8/123 347/8/123
f 339/8/124 344/8/124 345/8/124
f 343/8/129 342/8/129 347/8/129
f 341/8/120 340/8/120 345/8/120
f 398/6/69 353/6/69 354/6/69
f 396/6/149 351/6/149 352/6/149
f 400/6/65 399/6/65 354/6/65
f 398/6/66 397/6/66 352/6/66
f 354/6/71 359/6/71 360/6/71
f 352/6/72 357/6/72 358/6/72
f 354/6/75 353/6/75 358/6/75
f 351/6/76 356/6/76 357/6/76
f 360/6/82 359/6/82 364/6/82
f 357/6/77 362/6/77 363/6/77
f 359/6/80 358/6/80 363/6/80
f 356/6/81 361/6/81 362/6/81
f 364/6/87 369/6/87 370/6/87
f 363/6/88 362/6/88 367/6/88
f 363/6/85 368/6/85 369/6/85
f 361/6/86 366/6/86 367/6/86
f 368/6/93 367/6/93 372/6/93
f 368/6/90 373/6/90 374/6/90
f 367/6/91 366/6/91 371/6/91
f 369/6/92 374/6/92 375/6/92
f 373/6/96 378/6/96 379/6/96
f 371/6/97 376/6/97 377/6/97
f 374/6/128 379/6/128 380/6/128
f 372/6/99 377/6/99 378/6/99
f 378/6/102 383/6/102 384/6/102
f 377/6/103 376/6/103 381/6/103
f 380/6/104 379/6/104 384/6/104
f 377/6/105 382/6/105 383/6/105
f 384/6/107 383/6/107 388/6/107
f 381/6/108 386/6/108 387/6/108
f 385/6/109 384/6/109 389/6/109
f 382/6/110 387/6/110 388/6/110
f 388/6/118 393/6/118 394/6/118
f 386/6/113 391/6/113 392/6/113
f 389/6/114 394/6/114 395/6/114
f 388/6/115 387/6/115 392/6/115
f 393/6/123 398/6/123 399/6/123
f 392/6/124 391/6/124 396/6/124
f 394/6/129 399/6/129 400/6/129
f 392/6/120 397/6/120 398/6/120
f 402/9/133 404/9/133 403/9/133
f 404/9/15 406/9/15 405/9/15
f 406/9/134 408/9/134 407/9/134
f 408/9/135 410/9/135 409/9/135
f 410/9/18 412/9/18 411/9/18
f 412/9/136 414/9/136 413/9/136
f 414/9/137 416/9/137 415/9/137
f 416/9/10 418/9/10 417/9/10
f 418/9/138 420/9/138 419/9/138
f 420/9/139 422/9/139 421/9/139
f 406/9/24 404/9/24 402/9/24
f 402/9/24 424/9/24 422/9/24
f 422/9/24 420/9/24 418/9/24
f 418/9/24 416/9/24 414/9/24
f 414/9/24 412/9/24 410/9/24
f 410/9/24 408/9/24 406/9/24
f 406/9/24 402/9/24 422/9/24
f 422/9/24 418/9/24 414/9/24
f 414/9/24 410/9/24 406/9/24
f 422/9/12 424/9/12 423/9/12
f 424/9/140 402/9/140 401/9/140
f 423/9/21 401/9/21 403/9/21
f 403/9/21 405/9/21 407/9/21
f 407/9/21 409/9/21 411/9/21
f 411/9/21 413/9/21 415/9/21
f 415/9/21 417/9/21 419/9/21
f 419/9/21 421/9/21 423/9/21
f 423/9/21 403/9/21 407/9/21
f 407/9/21 411/9/21 415/9/21
f 415/9/21 419/9/21 423/9/21
f 426/9/133 428/9/133 427/9/133
f 428/9/15 430/9/15 429/9/15
f 430/9/134 432/9/134 431/9/134
f 432/9/135 434/9/135 433/9/135
f 434/9/18 436/9/18 435/9/18
f 436/9/136 438/9/136 437/9/136
f 438/9/137 440/9/137 439/9/137
f 440/9/10 442/9/10 441/9/10
f 442/9/138 444/9/138 443/9/138
f 444/9/139 446/9/139 445/9/139
f 430/9/24 428/9/24 426/9/24
f 426/9/24 448/9/24 446/9/24
f 446/9/24 444/9/24 442/9/24
f 442/9/24 440/9/24 438/9/24
f 438/9/24 436/9/24 434/9/24
f 434/9/24 432/9/24 430/9/24
f 430/9/24 426/9/24 446/9/24
f 446/9/24 442/9/24 438/9/24
f 438/9/24 434/9/24 430/9/24
f 446/9/12 448/9/12 447/9/12
f 448/9/140 426/9/140 425/9/140
f 447/9/21 425/9/21 427/9/21
f 427/9/21 429/9/21 431/9/21
f 431/9/21 433/9/21 435/9/21
f 435/9/21 437/9/21 439/9/21
f 439/9/21 441/9/21 443/9/21
f 443/9/21 445/9/21 447/9/21
f 447/9/21 427/9/21 431/9/21
f 431/9/21 435/9/21 439/9/21
f 439/9/21 443/9/21 447/9/21
f 450/10/141 452/10/141 451/10/141
f 452/10/142 454/10/142 453/10/142
f 454/10/143 456/10/143 455/10/143
f 456/10/144 458/10/144 457/10/144
f 458/10/145 460/10/145 459/10/145
f 460/10/146 462/10/146 461/10/146
f 454/10/24 452/10/24 450/10/24
f 450/10/24 464/10/24 462/10/24
f 462/10/24 460/10/24 458/10/24
f 458/10/24 456/10/24 454/10/24
f 454/10/24 450/10/24 462/10/24
f 462/10/147 464/10/147 463/10/147
f 464/10/148 450/10/148 449/10/148
f 463/10/21 449/10/21 451/10/21
f 451/10/21 453/10/21 455/10/21
f 455/10/21 457/10/21 459/10/21
f 459/10/21 461/10/21 463/10/21
f 463/10/21 451/10/21 455/10/21
f 466/9/133 468/9/133 467/9/133
f 468/9/15 470/9/15 469/9/15
f 470/9/134 472/9/134 471/9/134
f 472/9/135 474/9/135 473/9/135
f 474/9/18 476/9/18 475/9/18
f 476/9/136 478/9/136 477/9/136
f 478/9/137 480/9/137 479/9/137
f 480/9/10 482/9/10 481/9/10
f 482/9/138 484/9/138 483/9/138
f 484/9/139 486/9/139 485/9/139
f 470/9/24 468/9/24 466/9/24
f 466/9/24 488/9/24 486/9/24
f 486/9/24 484/9/24 482/9/24
f 482/9/24 480/9/24 478/9/24
f 478/9/24 476/9/24 474/9/24
f 474/9/24 472/9/24 470/9/24
f 470/9/24 466/9/24 486/9/24
f 486/9/24 482/9/24 478/9/24
f 478/9/24 474/9/24 470/9/24
f 486/9/12 488/9/12 487/9/12
f 488/9/140 466/9/140 465/9/140
f 487/9/21 465/9/21 467/9/21
f 467/9/21 469/9/21 471/9/21
f 471/9/21 473/9/21 475/9/21
f 475/9/21 477/9/21 479/9/21
f 479/9/21 481/9/21 483/9/21
f 483/9/21 485/9/21 487/9/21
f 487/9/21 467/9/21 471/9/21
f 471/9/21 475/9/21 479/9/21
f 479/9/21 483/9/21 487/9/21
f 490/9/133 492/9/133 491/9/133
f 492/9/15 494/9/15 493/9/15
f 494/9/134 496/9/134 495/9/134
f 496/9/135 498/9/135 497/9/135
f 498/9/18 500/9/18 499/9/18
f 500/9/136 502/9/136 501/9/136
f 502/9/137 504/9/137 503/9/137
f 504/9/10 506/9/10 505/9/10
f 506/9/138 508/9/138 507/9/138
f 508/9/139 510/9/139 509/9/139
f 494/9/24 492/9/24 490/9/24
f 490/9/24 512/9/24 510/9/24
f 510/9/24 508/9/24 506/9/24
f 506/9/24 504/9/24 502/9/24
f 502/9/24 500/9/24 498/9/24
f 498/9/24 496/9/24 494/9/24
f 494/9/24 490/9/24 510/9/24
f 510/9/24 506/9/24 502/9/24
f 502/9/24 498/9/24 494/9/24
f 510/9/12 512/9/12 511/9/12
f 512/9/140 490/9/140 489/9/140
f 511/9/21 489/9/21 491/9/21
f 491/9/21 493/9/21 495/9/21
f 495/9/21 497/9/21 499/9/21
f 499/9/21 501/9/21 503/9/21
f 503/9/21 505/9/21 507/9/21
f 507/9/21 509/9/21 511/9/21
f 511/9/21 491/9/21 495/9/21
f 495/9/21 499/9/21 503/9/21
f 503/9/21 507/9/21 511/9/21
f 514/10/141 516/10/141 515/10/141
f 516/10/142 518/10/142 517/10/142
f 518/10/143 520/10/143 519/10/143
f 520/10/144 522/10/144 521/10/144
f 522/10/145 524/10/145 523/10/145
f 524/10/146 526/10/146 525/10/146
f 518/10/24 516/10/24 514/10/24
f 514/10/24 528/10/24 526/10/24
f 526/10/24 524/10/24 522/10/24
f 522/10/24 520/10/24 518/10/24
f 518/10/24 514/10/24 526/10/24
f 526/10/147 528/10/147 527/10/147
f 528/10/148 514/10/148 513/10/148
f 527/10/21 513/10/21 515/10/21
f 515/10/21 517/10/21 519/10/21
f 519/10/21 521/10/21 523/10/21
f 523/10/21 525/10/21 527/10/21
f 527/10/21 515/10/21 519/10/21
