# Blender 5.1.1
# www.blender.org
o meja
v -0.028000 -0.355000 0.028000
v -0.028000 -0.343000 0.040000
v -0.040000 -0.343000 0.028000
v -0.028000 0.343000 0.040000
v -0.028000 0.355000 0.028000
v -0.040000 0.343000 0.028000
v -0.028000 -0.355000 -0.028000
v -0.040000 -0.343000 -0.028000
v -0.028000 -0.343000 -0.040000
v -0.028000 0.355000 -0.028000
v -0.028000 0.343000 -0.040000
v -0.040000 0.343000 -0.028000
v 0.028000 -0.355000 0.028000
v 0.040000 -0.343000 0.028000
v 0.028000 -0.343000 0.040000
v 0.028000 0.355000 0.028000
v 0.028000 0.343000 0.040000
v 0.040000 0.343000 0.028000
v 0.028000 -0.355000 -0.028000
v 0.028000 -0.343000 -0.040000
v 0.040000 -0.343000 -0.028000
v 0.028000 0.355000 -0.028000
v 0.040000 0.343000 -0.028000
v 0.028000 0.343000 -0.040000
v -0.028000 -0.355000 -0.822000
v -0.028000 -0.343000 -0.810000
v -0.040000 -0.343000 -0.822000
v -0.028000 0.343000 -0.810000
v -0.028000 0.355000 -0.822000
v -0.040000 0.343000 -0.822000
v -0.028000 -0.355000 -0.878000
v -0.040000 -0.343000 -0.878000
v -0.028000 -0.343000 -0.890000
v -0.028000 0.355000 -0.878000
v -0.028000 0.343000 -0.890000
v -0.040000 0.343000 -0.878000
v 0.028000 -0.355000 -0.822000
v 0.040000 -0.343000 -0.822000
v 0.028000 -0.343000 -0.810000
v 0.028000 0.355000 -0.822000
v 0.028000 0.343000 -0.810000
v 0.040000 0.343000 -0.822000
v 0.028000 -0.355000 -0.878000
v 0.028000 -0.343000 -0.890000
v 0.040000 -0.343000 -0.878000
v 0.028000 0.355000 -0.878000
v 0.040000 0.343000 -0.878000
v 0.028000 0.343000 -0.890000
v 1.272000 -0.355000 0.028000
v 1.272000 -0.343000 0.040000
v 1.260000 -0.343000 0.028000
v 1.272000 0.343000 0.040000
v 1.272000 0.355000 0.028000
v 1.260000 0.343000 0.028000
v 1.272000 -0.355000 -0.028000
v 1.260000 -0.343000 -0.028000
v 1.272000 -0.343000 -0.040000
v 1.272000 0.355000 -0.028000
v 1.272000 0.343000 -0.040000
v 1.260000 0.343000 -0.028000
v 1.328000 -0.355000 0.028000
v 1.340000 -0.343000 0.028000
v 1.328000 -0.343000 0.040000
v 1.328000 0.355000 0.028000
v 1.328000 0.343000 0.040000
v 1.340000 0.343000 0.028000
v 1.328000 -0.355000 -0.028000
v 1.328000 -0.343000 -0.040000
v 1.340000 -0.343000 -0.028000
v 1.328000 0.355000 -0.028000
v 1.340000 0.343000 -0.028000
v 1.328000 0.343000 -0.040000
v 1.272000 -0.355000 -0.822000
v 1.272000 -0.343000 -0.810000
v 1.260000 -0.343000 -0.822000
v 1.272000 0.343000 -0.810000
v 1.272000 0.355000 -0.822000
v 1.260000 0.343000 -0.822000
v 1.272000 -0.355000 -0.878000
v 1.260000 -0.343000 -0.878000
v 1.272000 -0.343000 -0.890000
v 1.272000 0.355000 -0.878000
v 1.272000 0.343000 -0.890000
v 1.260000 0.343000 -0.878000
v 1.328000 -0.355000 -0.822000
v 1.340000 -0.343000 -0.822000
v 1.328000 -0.343000 -0.810000
v 1.328000 0.355000 -0.822000
v 1.328000 0.343000 -0.810000
v 1.340000 0.343000 -0.822000
v 1.328000 -0.355000 -0.878000
v 1.328000 -0.343000 -0.890000
v 1.340000 -0.343000 -0.878000
v 1.328000 0.355000 -0.878000
v 1.340000 0.343000 -0.878000
v 1.328000 0.343000 -0.890000
v -0.038000 0.255000 0.038000
v -0.038000 0.267000 0.050000
v -0.050000 0.267000 0.038000
v -0.038000 0.343000 0.050000
v -0.038000 0.355000 0.038000
v -0.050000 0.343000 0.038000
v -0.038000 0.255000 -0.888000
v -0.050000 0.267000 -0.888000
v -0.038000 0.267000 -0.900000
v -0.038000 0.355000 -0.888000
v -0.038000 0.343000 -0.900000
v -0.050000 0.343000 -0.888000
v 1.338000 0.255000 0.038000
v 1.350000 0.267000 0.038000
v 1.338000 0.267000 0.050000
v 1.338000 0.355000 0.038000
v 1.338000 0.343000 0.050000
v 1.350000 0.343000 0.038000
v 1.338000 0.255000 -0.888000
v 1.338000 0.267000 -0.900000
v 1.350000 0.267000 -0.888000
v 1.338000 0.355000 -0.888000
v 1.350000 0.343000 -0.888000
v 1.338000 0.343000 -0.900000
v -0.085000 0.355000 0.085000
v -0.085000 0.370000 0.100000
v -0.100000 0.370000 0.085000
v -0.085000 0.390000 0.100000
v -0.085000 0.405000 0.085000
v -0.100000 0.390000 0.085000
v -0.085000 0.355000 -0.935000
v -0.100000 0.370000 -0.935000
v -0.085000 0.370000 -0.950000
v -0.085000 0.405000 -0.935000
v -0.085000 0.390000 -0.950000
v -0.100000 0.390000 -0.935000
v 1.385000 0.355000 0.085000
v 1.400000 0.370000 0.085000
v 1.385000 0.370000 0.100000
v 1.385000 0.405000 0.085000
v 1.385000 0.390000 0.100000
v 1.400000 0.390000 0.085000
v 1.385000 0.355000 -0.935000
v 1.385000 0.370000 -0.950000
v 1.400000 0.370000 -0.935000
v 1.385000 0.405000 -0.935000
v 1.400000 0.390000 -0.935000
v 1.385000 0.390000 -0.950000
v 0.125000 0.405000 -0.215000
v 0.125000 0.411000 -0.215000
v 0.125000 0.405000 -0.635000
v 0.125000 0.411000 -0.635000
v 1.175000 0.405000 -0.215000
v 1.175000 0.411000 -0.215000
v 1.175000 0.405000 -0.635000
v 1.175000 0.411000 -0.635000
v 0.125000 0.405000 -0.590000
v 0.125000 0.412000 -0.590000
v 0.125000 0.405000 -0.640000
v 0.125000 0.412000 -0.640000
v 1.175000 0.405000 -0.590000
v 1.175000 0.412000 -0.590000
v 1.175000 0.405000 -0.640000
v 1.175000 0.412000 -0.640000
v 0.125000 0.405000 -0.210000
v 0.125000 0.412000 -0.210000
v 0.125000 0.405000 -0.260000
v 0.125000 0.412000 -0.260000
v 1.175000 0.405000 -0.210000
v 1.175000 0.412000 -0.210000
v 1.175000 0.405000 -0.260000
v 1.175000 0.412000 -0.260000
v 0.650000 0.405000 -0.595000
v 0.650000 0.485000 -0.625000
v 0.735000 0.405000 -0.572224
v 0.750000 0.485000 -0.598205
v 0.797224 0.405000 -0.510000
v 0.823205 0.485000 -0.525000
v 0.820000 0.405000 -0.425000
v 0.850000 0.485000 -0.425000
v 0.797224 0.405000 -0.340000
v 0.823205 0.485000 -0.325000
v 0.735000 0.405000 -0.277776
v 0.750000 0.485000 -0.251795
v 0.650000 0.405000 -0.255000
v 0.650000 0.485000 -0.225000
v 0.565000 0.405000 -0.277776
v 0.550000 0.485000 -0.251795
v 0.502776 0.405000 -0.340000
v 0.476795 0.485000 -0.325000
v 0.480000 0.405000 -0.425000
v 0.450000 0.485000 -0.425000
v 0.502776 0.405000 -0.510000
v 0.476795 0.485000 -0.525000
v 0.565000 0.405000 -0.572224
v 0.550000 0.485000 -0.598205
v 0.720000 0.575000 -0.425000
v 0.720000 0.455000 -0.425000
v 0.737634 0.566962 -0.449271
v 0.750542 0.545000 -0.467038
v 0.755267 0.515000 -0.473541
v 0.750542 0.485000 -0.467038
v 0.737634 0.463038 -0.449271
v 0.748532 0.566962 -0.434271
v 0.769418 0.545000 -0.441057
v 0.777063 0.515000 -0.443541
v 0.769418 0.485000 -0.441057
v 0.748532 0.463038 -0.434271
v 0.748532 0.566962 -0.415729
v 0.769418 0.545000 -0.408943
v 0.777063 0.515000 -0.406459
v 0.769418 0.485000 -0.408943
v 0.748532 0.463038 -0.415729
v 0.737634 0.566962 -0.400730
v 0.750542 0.545000 -0.382962
v 0.755267 0.515000 -0.376459
v 0.750542 0.485000 -0.382962
v 0.737634 0.463038 -0.400730
v 0.720000 0.566962 -0.395000
v 0.720000 0.545000 -0.373038
v 0.720000 0.515000 -0.365000
v 0.720000 0.485000 -0.373038
v 0.720000 0.463038 -0.395000
v 0.702366 0.566962 -0.400730
v 0.689458 0.545000 -0.382962
v 0.684733 0.515000 -0.376459
v 0.689458 0.485000 -0.382962
v 0.702366 0.463038 -0.400730
v 0.691468 0.566962 -0.415729
v 0.670582 0.545000 -0.408943
v 0.662937 0.515000 -0.406459
v 0.670582 0.485000 -0.408943
v 0.691468 0.463038 -0.415729
v 0.691468 0.566962 -0.434271
v 0.670582 0.545000 -0.441057
v 0.662937 0.515000 -0.443541
v 0.670582 0.485000 -0.441057
v 0.691468 0.463038 -0.434271
v 0.702366 0.566962 -0.449271
v 0.689458 0.545000 -0.467038
v 0.684733 0.515000 -0.473541
v 0.689458 0.485000 -0.467038
v 0.702366 0.463038 -0.449271
v 0.720000 0.566962 -0.455000
v 0.720000 0.545000 -0.476962
v 0.720000 0.515000 -0.485000
v 0.720000 0.485000 -0.476962
v 0.720000 0.463038 -0.455000
v 0.650000 0.575000 -0.495000
v 0.650000 0.455000 -0.495000
v 0.667634 0.566962 -0.519271
v 0.680542 0.545000 -0.537038
v 0.685267 0.515000 -0.543541
v 0.680542 0.485000 -0.537038
v 0.667634 0.463038 -0.519271
v 0.678532 0.566962 -0.504270
v 0.699418 0.545000 -0.511057
v 0.707063 0.515000 -0.513541
v 0.699418 0.485000 -0.511057
v 0.678532 0.463038 -0.504270
v 0.678532 0.566962 -0.485729
v 0.699418 0.545000 -0.478943
v 0.707063 0.515000 -0.476459
v 0.699418 0.485000 -0.478943
v 0.678532 0.463038 -0.485729
v 0.667634 0.566962 -0.470730
v 0.680542 0.545000 -0.452962
v 0.685267 0.515000 -0.446459
v 0.680542 0.485000 -0.452962
v 0.667634 0.463038 -0.470730
v 0.650000 0.566962 -0.465000
v 0.650000 0.545000 -0.443038
v 0.650000 0.515000 -0.435000
v 0.650000 0.485000 -0.443038
v 0.650000 0.463038 -0.465000
v 0.632366 0.566962 -0.470730
v 0.619458 0.545000 -0.452962
v 0.614733 0.515000 -0.446459
v 0.619458 0.485000 -0.452962
v 0.632366 0.463038 -0.470730
v 0.621468 0.566962 -0.485729
v 0.600582 0.545000 -0.478943
v 0.592937 0.515000 -0.476459
v 0.600582 0.485000 -0.478943
v 0.621468 0.463038 -0.485729
v 0.621468 0.566962 -0.504270
v 0.600582 0.545000 -0.511057
v 0.592937 0.515000 -0.513541
v 0.600582 0.485000 -0.511057
v 0.621468 0.463038 -0.504270
v 0.632366 0.566962 -0.519271
v 0.619458 0.545000 -0.537038
v 0.614733 0.515000 -0.543541
v 0.619458 0.485000 -0.537038
v 0.632366 0.463038 -0.519271
v 0.650000 0.566962 -0.525000
v 0.650000 0.545000 -0.546962
v 0.650000 0.515000 -0.555000
v 0.650000 0.485000 -0.546962
v 0.650000 0.463038 -0.525000
v 0.580000 0.575000 -0.425000
v 0.580000 0.455000 -0.425000
v 0.597634 0.566962 -0.449271
v 0.610542 0.545000 -0.467038
v 0.615267 0.515000 -0.473541
v 0.610542 0.485000 -0.467038
v 0.597634 0.463038 -0.449271
v 0.608532 0.566962 -0.434271
v 0.629418 0.545000 -0.441057
v 0.637063 0.515000 -0.443541
v 0.629418 0.485000 -0.441057
v 0.608532 0.463038 -0.434271
v 0.608532 0.566962 -0.415729
v 0.629418 0.545000 -0.408943
v 0.637063 0.515000 -0.406459
v 0.629418 0.485000 -0.408943
v 0.608532 0.463038 -0.415729
v 0.597634 0.566962 -0.400730
v 0.610542 0.545000 -0.382962
v 0.615267 0.515000 -0.376459
v 0.610542 0.485000 -0.382962
v 0.597634 0.463038 -0.400730
v 0.580000 0.566962 -0.395000
v 0.580000 0.545000 -0.373038
v 0.580000 0.515000 -0.365000
v 0.580000 0.485000 -0.373038
v 0.580000 0.463038 -0.395000
v 0.562366 0.566962 -0.400730
v 0.549458 0.545000 -0.382962
v 0.544733 0.515000 -0.376459
v 0.549458 0.485000 -0.382962
v 0.562366 0.463038 -0.400730
v 0.551468 0.566962 -0.415729
v 0.530582 0.545000 -0.408943
v 0.522937 0.515000 -0.406459
v 0.530582 0.485000 -0.408943
v 0.551468 0.463038 -0.415729
v 0.551468 0.566962 -0.434271
v 0.530582 0.545000 -0.441057
v 0.522937 0.515000 -0.443541
v 0.530582 0.485000 -0.441057
v 0.551468 0.463038 -0.434271
v 0.562366 0.566962 -0.449271
v 0.549458 0.545000 -0.467038
v 0.544733 0.515000 -0.473541
v 0.549458 0.485000 -0.467038
v 0.562366 0.463038 -0.449271
v 0.580000 0.566962 -0.455000
v 0.580000 0.545000 -0.476962
v 0.580000 0.515000 -0.485000
v 0.580000 0.485000 -0.476962
v 0.580000 0.463038 -0.455000
v 0.650000 0.575000 -0.355000
v 0.650000 0.455000 -0.355000
v 0.667634 0.566962 -0.379271
v 0.680542 0.545000 -0.397038
v 0.685267 0.515000 -0.403541
v 0.680542 0.485000 -0.397038
v 0.667634 0.463038 -0.379271
v 0.678532 0.566962 -0.364271
v 0.699418 0.545000 -0.371057
v 0.707063 0.515000 -0.373541
v 0.699418 0.485000 -0.371057
v 0.678532 0.463038 -0.364271
v 0.678532 0.566962 -0.345730
v 0.699418 0.545000 -0.338943
v 0.707063 0.515000 -0.336459
v 0.699418 0.485000 -0.338943
v 0.678532 0.463038 -0.345730
v 0.667634 0.566962 -0.330730
v 0.680542 0.545000 -0.312962
v 0.685267 0.515000 -0.306459
v 0.680542 0.485000 -0.312962
v 0.667634 0.463038 -0.330730
v 0.650000 0.566962 -0.325000
v 0.650000 0.545000 -0.303038
v 0.650000 0.515000 -0.295000
v 0.650000 0.485000 -0.303038
v 0.650000 0.463038 -0.325000
v 0.632366 0.566962 -0.330730
v 0.619458 0.545000 -0.312962
v 0.614733 0.515000 -0.306459
v 0.619458 0.485000 -0.312962
v 0.632366 0.463038 -0.330730
v 0.621468 0.566962 -0.345730
v 0.600582 0.545000 -0.338943
v 0.592937 0.515000 -0.336459
v 0.600582 0.485000 -0.338943
v 0.621468 0.463038 -0.345730
v 0.621468 0.566962 -0.364271
v 0.600582 0.545000 -0.371057
v 0.592937 0.515000 -0.373541
v 0.600582 0.485000 -0.371057
v 0.621468 0.463038 -0.364271
v 0.632366 0.566962 -0.379271
v 0.619458 0.545000 -0.397038
v 0.614733 0.515000 -0.403541
v 0.619458 0.485000 -0.397038
v 0.632366 0.463038 -0.379271
v 0.650000 0.566962 -0.385000
v 0.650000 0.545000 -0.406962
v 0.650000 0.515000 -0.415000
v 0.650000 0.485000 -0.406962
v 0.650000 0.463038 -0.385000
vn -0.5773 -0.5774 0.5774
vn -0.5773 0.5774 0.5774
vn -0.5773 -0.5774 -0.5774
vn -0.5773 0.5774 -0.5774
vn 0.5773 -0.5774 0.5774
vn 0.5773 0.5774 0.5774
vn 0.5773 -0.5774 -0.5774
vn 0.5773 0.5774 -0.5774
vn -0.7071 -0.7071 -0.0000
vn -0.7071 -0.0000 0.7071
vn -0.7071 0.7071 -0.0000
vn -0.7071 -0.0000 -0.7071
vn -0.0000 -0.7071 -0.7071
vn -0.0000 0.7071 -0.7071
vn 0.7071 -0.0000 -0.7071
vn 0.7071 -0.7071 -0.0000
vn 0.7071 0.7071 -0.0000
vn 0.7071 -0.0000 0.7071
vn -0.0000 -0.7071 0.7071
vn -0.0000 0.7071 0.7071
vn -0.0000 -1.0000 -0.0000
vn -1.0000 -0.0000 -0.0000
vn -0.0000 -0.0000 1.0000
vn -0.0000 1.0000 -0.0000
vn -0.0000 -0.0000 -1.0000
vn 1.0000 -0.0000 -0.0000
vn -0.5773 -0.5774 0.5773
vn -0.5773 0.5774 0.5773
vn -0.5773 -0.5774 -0.5773
vn -0.5773 0.5774 -0.5773
vn 0.5773 -0.5774 0.5773
vn 0.5773 0.5774 0.5773
vn 0.5773 -0.5774 -0.5773
vn 0.5773 0.5774 -0.5773
vn -0.5774 -0.5774 0.5773
vn -0.5774 0.5774 0.5773
vn -0.5774 -0.5774 -0.5773
vn -0.5774 0.5774 -0.5773
vn 0.5774 -0.5774 0.5773
vn 0.5774 0.5774 0.5773
vn 0.5774 -0.5774 -0.5773
vn 0.5774 0.5774 -0.5773
vn -0.5774 -0.5773 0.5774
vn -0.5774 0.5773 0.5774
vn -0.5774 -0.5773 -0.5774
vn -0.5774 0.5773 -0.5774
vn 0.2433 -0.3406 -0.9082
vn 0.6648 -0.3406 -0.6648
vn 0.9082 -0.3406 -0.2433
vn 0.9082 -0.3406 0.2433
vn 0.6648 -0.3406 0.6648
vn 0.2433 -0.3406 0.9082
vn -0.2433 -0.3406 0.9082
vn -0.6648 -0.3406 0.6648
vn -0.9082 -0.3406 0.2433
vn -0.9082 -0.3406 -0.2433
vn -0.6648 -0.3406 -0.6648
vn -0.2433 -0.3406 -0.9082
vn 0.2239 -0.6892 -0.6892
vn 0.2994 0.2469 -0.9216
vn 0.0838 0.9625 -0.2579
vn 0.0838 -0.9625 -0.2579
vn 0.2994 -0.2469 -0.9216
vn 0.2239 0.6892 -0.6892
vn 0.5862 -0.6892 -0.4259
vn 0.7840 0.2469 -0.5696
vn 0.2194 0.9625 -0.1594
vn 0.2194 -0.9625 -0.1594
vn 0.7840 -0.2469 -0.5696
vn 0.5862 0.6891 -0.4259
vn 0.9690 0.2469 -0.0000
vn 0.2712 0.9625 -0.0000
vn 0.2712 -0.9625 -0.0000
vn 0.9690 -0.2469 -0.0000
vn 0.7246 0.6892 -0.0000
vn 0.7246 -0.6892 -0.0000
vn 0.2194 0.9625 0.1594
vn 0.2194 -0.9625 0.1594
vn 0.7840 -0.2469 0.5696
vn 0.5862 0.6891 0.4259
vn 0.5862 -0.6892 0.4259
vn 0.7840 0.2469 0.5696
vn 0.0838 -0.9625 0.2579
vn 0.2994 -0.2469 0.9216
vn 0.2239 0.6892 0.6892
vn 0.2239 -0.6892 0.6891
vn 0.2994 0.2469 0.9216
vn 0.0838 0.9625 0.2579
vn -0.0838 -0.9625 0.2579
vn -0.2994 -0.2469 0.9216
vn -0.2239 0.6891 0.6892
vn -0.2239 -0.6892 0.6891
vn -0.2994 0.2469 0.9216
vn -0.0838 0.9625 0.2579
vn -0.2194 -0.9625 0.1594
vn -0.7840 -0.2469 0.5696
vn -0.5862 0.6892 0.4259
vn -0.5862 -0.6892 0.4259
vn -0.7840 0.2469 0.5696
vn -0.2194 0.9625 0.1594
vn -0.9690 -0.2469 -0.0000
vn -0.7246 0.6892 -0.0000
vn -0.7246 -0.6892 -0.0000
vn -0.9690 0.2469 -0.0000
vn -0.2712 0.9625 -0.0000
vn -0.2712 -0.9625 -0.0000
vn -0.5862 0.6892 -0.4259
vn -0.5862 -0.6892 -0.4259
vn -0.7840 0.2469 -0.5696
vn -0.2194 0.9625 -0.1594
vn -0.2194 -0.9625 -0.1594
vn -0.7840 -0.2469 -0.5696
vn -0.2239 -0.6892 -0.6892
vn -0.2994 0.2469 -0.9216
vn -0.0838 0.9625 -0.2579
vn -0.0838 -0.9625 -0.2579
vn -0.2994 -0.2469 -0.9216
vn -0.2239 0.6891 -0.6892
vn 0.5862 0.6892 0.4259
vn 0.2239 -0.6892 0.6892
vn -0.2239 0.6892 0.6892
vn -0.2239 -0.6892 0.6892
vn -0.5862 0.6891 -0.4259
vn -0.2239 0.6892 -0.6892
vn 0.2239 0.6891 -0.6892
vn 0.2239 -0.6892 -0.6891
vn -0.2239 -0.6892 -0.6891
vn 0.5862 0.6892 -0.4259
vn 0.2239 0.6892 -0.6891
vn -0.2239 0.6892 0.6891
vn -0.2239 -0.6891 0.6892
vn -0.2239 0.6892 -0.6891
vn -0.5862 -0.6891 -0.4259
vt 0.031250 0.968750
vt 0.093750 0.968750
vt 0.343750 0.968750
vt 0.468750 0.968750
vt 0.781250 0.906250
vt 0.656250 0.843750
vt 0.718750 0.843750
vt 0.781250 0.843750
s 0
f 1/1/1 2/1/1 3/1/1
f 4/1/2 5/1/2 6/1/2
f 7/1/3 8/1/3 9/1/3
f 10/1/4 11/1/4 12/1/4
f 13/1/5 14/1/5 15/1/5
f 16/1/6 17/1/6 18/1/6
f 19/1/7 20/1/7 21/1/7
f 22/1/8 23/1/8 24/1/8
f 1/1/9 8/1/9 7/1/9
f 4/1/10 3/1/10 2/1/10
f 10/1/11 6/1/11 5/1/11
f 9/1/12 12/1/12 11/1/12
f 7/1/13 20/1/13 19/1/13
f 22/1/14 11/1/14 10/1/14
f 21/1/15 24/1/15 23/1/15
f 19/1/16 14/1/16 13/1/16
f 16/1/17 23/1/17 22/1/17
f 15/1/18 18/1/18 17/1/18
f 13/1/19 2/1/19 1/1/19
f 5/1/20 17/1/20 16/1/20
f 19/1/21 1/1/21 7/1/21
f 6/1/22 8/1/22 3/1/22
f 17/1/23 2/1/23 15/1/23
f 10/1/24 16/1/24 22/1/24
f 11/1/25 20/1/25 9/1/25
f 23/1/26 14/1/26 21/1/26
f 25/1/27 26/1/27 27/1/27
f 28/1/28 29/1/28 30/1/28
f 31/1/29 32/1/29 33/1/29
f 34/1/30 35/1/30 36/1/30
f 37/1/31 38/1/31 39/1/31
f 40/1/32 41/1/32 42/1/32
f 43/1/33 44/1/33 45/1/33
f 46/1/34 47/1/34 48/1/34
f 25/1/9 32/1/9 31/1/9
f 28/1/10 27/1/10 26/1/10
f 34/1/11 30/1/11 29/1/11
f 33/1/12 36/1/12 35/1/12
f 31/1/13 44/1/13 43/1/13
f 46/1/14 35/1/14 34/1/14
f 45/1/15 48/1/15 47/1/15
f 43/1/16 38/1/16 37/1/16
f 40/1/17 47/1/17 46/1/17
f 39/1/18 42/1/18 41/1/18
f 37/1/19 26/1/19 25/1/19
f 29/1/20 41/1/20 40/1/20
f 43/1/21 25/1/21 31/1/21
f 30/1/22 32/1/22 27/1/22
f 41/1/23 26/1/23 39/1/23
f 34/1/24 40/1/24 46/1/24
f 35/1/25 44/1/25 33/1/25
f 47/1/26 38/1/26 45/1/26
f 49/1/35 50/1/35 51/1/35
f 52/1/36 53/1/36 54/1/36
f 55/1/37 56/1/37 57/1/37
f 58/1/38 59/1/38 60/1/38
f 61/1/39 62/1/39 63/1/39
f 64/1/40 65/1/40 66/1/40
f 67/1/41 68/1/41 69/1/41
f 70/1/42 71/1/42 72/1/42
f 49/1/9 56/1/9 55/1/9
f 52/1/10 51/1/10 50/1/10
f 58/1/11 54/1/11 53/1/11
f 57/1/12 60/1/12 59/1/12
f 55/1/13 68/1/13 67/1/13
f 70/1/14 59/1/14 58/1/14
f 69/1/15 72/1/15 71/1/15
f 67/1/16 62/1/16 61/1/16
f 64/1/17 71/1/17 70/1/17
f 63/1/18 66/1/18 65/1/18
f 61/1/19 50/1/19 49/1/19
f 53/1/20 65/1/20 64/1/20
f 67/1/21 49/1/21 55/1/21
f 54/1/22 56/1/22 51/1/22
f 65/1/23 50/1/23 63/1/23
f 58/1/24 64/1/24 70/1/24
f 59/1/25 68/1/25 57/1/25
f 71/1/26 62/1/26 69/1/26
f 73/1/35 74/1/35 75/1/35
f 76/1/36 77/1/36 78/1/36
f 79/1/37 80/1/37 81/1/37
f 82/1/38 83/1/38 84/1/38
f 85/1/39 86/1/39 87/1/39
f 88/1/40 89/1/40 90/1/40
f 91/1/41 92/1/41 93/1/41
f 94/1/42 95/1/42 96/1/42
f 73/1/9 80/1/9 79/1/9
f 76/1/10 75/1/10 74/1/10
f 82/1/11 78/1/11 77/1/11
f 81/1/12 84/1/12 83/1/12
f 79/1/13 92/1/13 91/1/13
f 94/1/14 83/1/14 82/1/14
f 93/1/15 96/1/15 95/1/15
f 91/1/16 86/1/16 85/1/16
f 88/1/17 95/1/17 94/1/17
f 87/1/18 90/1/18 89/1/18
f 85/1/19 74/1/19 73/1/19
f 77/1/20 89/1/20 88/1/20
f 91/1/21 73/1/21 79/1/21
f 78/1/22 80/1/22 75/1/22
f 89/1/23 74/1/23 87/1/23
f 82/1/24 88/1/24 94/1/24
f 83/1/25 92/1/25 81/1/25
f 95/1/26 86/1/26 93/1/26
f 97/2/1 98/2/1 99/2/1
f 100/2/2 101/2/2 102/2/2
f 103/2/3 104/2/3 105/2/3
f 106/2/4 107/2/4 108/2/4
f 109/2/39 110/2/39 111/2/39
f 112/2/40 113/2/40 114/2/40
f 115/2/41 116/2/41 117/2/41
f 118/2/42 119/2/42 120/2/42
f 97/2/9 104/2/9 103/2/9
f 100/2/10 99/2/10 98/2/10
f 106/2/11 102/2/11 101/2/11
f 105/2/12 108/2/12 107/2/12
f 103/2/13 116/2/13 115/2/13
f 118/2/14 107/2/14 106/2/14
f 117/2/15 120/2/15 119/2/15
f 115/2/16 110/2/16 109/2/16
f 112/2/17 119/2/17 118/2/17
f 111/2/18 114/2/18 113/2/18
f 109/2/19 98/2/19 97/2/19
f 101/2/20 113/2/20 112/2/20
f 115/2/21 97/2/21 103/2/21
f 102/2/22 104/2/22 99/2/22
f 113/2/23 98/2/23 111/2/23
f 106/2/24 112/2/24 118/2/24
f 107/2/25 116/2/25 105/2/25
f 119/2/26 110/2/26 117/2/26
f 121/2/43 122/2/43 123/2/43
f 124/2/44 125/2/44 126/2/44
f 127/2/45 128/2/45 129/2/45
f 130/2/46 131/2/46 132/2/46
f 133/2/39 134/2/39 135/2/39
f 136/2/40 137/2/40 138/2/40
f 139/2/41 140/2/41 141/2/41
f 142/2/42 143/2/42 144/2/42
f 121/2/9 128/2/9 127/2/9
f 124/2/10 123/2/10 122/2/10
f 130/2/11 126/2/11 125/2/11
f 129/2/12 132/2/12 131/2/12
f 127/2/13 140/2/13 139/2/13
f 142/2/14 131/2/14 130/2/14
f 141/2/15 144/2/15 143/2/15
f 139/2/16 134/2/16 133/2/16
f 136/2/17 143/2/17 142/2/17
f 135/2/18 138/2/18 137/2/18
f 133/2/19 122/2/19 121/2/19
f 125/2/20 137/2/20 136/2/20
f 139/2/21 121/2/21 127/2/21
f 126/2/22 128/2/22 123/2/22
f 137/2/23 122/2/23 135/2/23
f 130/2/24 136/2/24 142/2/24
f 131/2/25 140/2/25 129/2/25
f 143/2/26 134/2/26 141/2/26
f 146/3/22 147/3/22 145/3/22
f 148/3/25 151/3/25 147/3/25
f 152/3/26 149/3/26 151/3/26
f 150/3/23 145/3/23 149/3/23
f 151/3/21 145/3/21 147/3/21
f 148/3/24 150/3/24 152/3/24
f 154/4/22 155/4/22 153/4/22
f 156/4/25 159/4/25 155/4/25
f 160/4/26 157/4/26 159/4/26
f 158/4/23 153/4/23 157/4/23
f 159/4/21 153/4/21 155/4/21
f 156/4/24 158/4/24 160/4/24
f 162/4/22 163/4/22 161/4/22
f 164/4/25 167/4/25 163/4/25
f 168/4/26 165/4/26 167/4/26
f 166/4/23 161/4/23 165/4/23
f 167/4/21 161/4/21 163/4/21
f 164/4/24 166/4/24 168/4/24
f 170/5/47 171/5/47 169/5/47
f 172/5/48 173/5/48 171/5/48
f 173/5/49 176/5/49 175/5/49
f 175/5/50 178/5/50 177/5/50
f 178/5/51 179/5/51 177/5/51
f 179/5/52 182/5/52 181/5/52
f 181/5/53 184/5/53 183/5/53
f 184/5/54 185/5/54 183/5/54
f 185/5/55 188/5/55 187/5/55
f 187/5/56 190/5/56 189/5/56
f 190/5/24 182/5/24 174/5/24
f 190/5/57 191/5/57 189/5/57
f 192/5/58 169/5/58 191/5/58
f 175/5/21 183/5/21 191/5/21
f 243/6/59 199/6/59 244/6/59
f 241/6/60 197/6/60 242/6/60
f 240/6/61 193/6/61 195/6/61
f 194/6/62 244/6/62 199/6/62
f 242/6/63 198/6/63 243/6/63
f 240/6/64 196/6/64 241/6/64
f 199/6/65 203/6/65 204/6/65
f 197/6/66 201/6/66 202/6/66
f 195/6/67 193/6/67 200/6/67
f 194/6/68 199/6/68 204/6/68
f 197/6/69 203/6/69 198/6/69
f 196/6/70 200/6/70 201/6/70
f 201/6/71 207/6/71 202/6/71
f 200/6/72 193/6/72 205/6/72
f 194/6/73 204/6/73 209/6/73
f 203/6/74 207/6/74 208/6/74
f 200/6/75 206/6/75 201/6/75
f 203/6/76 209/6/76 204/6/76
f 205/6/77 193/6/77 210/6/77
f 194/6/78 209/6/78 214/6/78
f 207/6/79 213/6/79 208/6/79
f 205/6/80 211/6/80 206/6/80
f 208/6/81 214/6/81 209/6/81
f 206/6/82 212/6/82 207/6/82
f 194/6/83 214/6/83 219/6/83
f 212/6/84 218/6/84 213/6/84
f 211/6/85 215/6/85 216/6/85
f 213/6/86 219/6/86 214/6/86
f 211/6/87 217/6/87 212/6/87
f 210/6/88 193/6/88 215/6/88
f 194/6/89 219/6/89 224/6/89
f 218/6/90 222/6/90 223/6/90
f 215/6/91 221/6/91 216/6/91
f 219/6/92 223/6/92 224/6/92
f 216/6/93 222/6/93 217/6/93
f 215/6/94 193/6/94 220/6/94
f 194/6/95 224/6/95 229/6/95
f 222/6/96 228/6/96 223/6/96
f 221/6/97 225/6/97 226/6/97
f 224/6/98 228/6/98 229/6/98
f 222/6/99 226/6/99 227/6/99
f 220/6/100 193/6/100 225/6/100
f 228/6/101 232/6/101 233/6/101
f 225/6/102 231/6/102 226/6/102
f 228/6/103 234/6/103 229/6/103
f 226/6/104 232/6/104 227/6/104
f 225/6/105 193/6/105 230/6/105
f 194/6/106 229/6/106 234/6/106
f 230/6/107 236/6/107 231/6/107
f 233/6/108 239/6/108 234/6/108
f 232/6/109 236/6/109 237/6/109
f 230/6/110 193/6/110 235/6/110
f 194/6/111 234/6/111 239/6/111
f 233/6/112 237/6/112 238/6/112
f 239/6/113 243/6/113 244/6/113
f 236/6/114 242/6/114 237/6/114
f 235/6/115 193/6/115 240/6/115
f 194/6/116 239/6/116 244/6/116
f 238/6/117 242/6/117 243/6/117
f 236/6/118 240/6/118 241/6/118
f 295/7/59 251/7/59 296/7/59
f 293/7/60 249/7/60 294/7/60
f 292/7/61 245/7/61 247/7/61
f 246/7/62 296/7/62 251/7/62
f 294/7/63 250/7/63 295/7/63
f 293/7/64 247/7/64 248/7/64
f 250/7/65 256/7/65 251/7/65
f 249/7/66 253/7/66 254/7/66
f 247/7/67 245/7/67 252/7/67
f 246/7/68 251/7/68 256/7/68
f 249/7/69 255/7/69 250/7/69
f 247/7/70 253/7/70 248/7/70
f 253/7/71 259/7/71 254/7/71
f 252/7/72 245/7/72 257/7/72
f 246/7/73 256/7/73 261/7/73
f 254/7/74 260/7/74 255/7/74
f 252/7/75 258/7/75 253/7/75
f 256/7/76 260/7/76 261/7/76
f 257/7/77 245/7/77 262/7/77
f 246/7/78 261/7/78 266/7/78
f 259/7/79 265/7/79 260/7/79
f 257/7/119 263/7/119 258/7/119
f 261/7/81 265/7/81 266/7/81
f 259/7/82 263/7/82 264/7/82
f 246/7/83 266/7/83 271/7/83
f 265/7/84 269/7/84 270/7/84
f 263/7/85 267/7/85 268/7/85
f 265/7/120 271/7/120 266/7/120
f 263/7/87 269/7/87 264/7/87
f 262/7/88 245/7/88 267/7/88
f 246/7/89 271/7/89 276/7/89
f 269/7/90 275/7/90 270/7/90
f 267/7/121 273/7/121 268/7/121
f 271/7/122 275/7/122 276/7/122
f 269/7/93 273/7/93 274/7/93
f 267/7/94 245/7/94 272/7/94
f 246/7/95 276/7/95 281/7/95
f 275/7/96 279/7/96 280/7/96
f 273/7/97 277/7/97 278/7/97
f 276/7/98 280/7/98 281/7/98
f 273/7/99 279/7/99 274/7/99
f 272/7/100 245/7/100 277/7/100
f 280/7/101 284/7/101 285/7/101
f 278/7/102 282/7/102 283/7/102
f 280/7/103 286/7/103 281/7/103
f 278/7/104 284/7/104 279/7/104
f 277/7/105 245/7/105 282/7/105
f 246/7/106 281/7/106 286/7/106
f 283/7/123 287/7/123 288/7/123
f 285/7/108 291/7/108 286/7/108
f 283/7/109 289/7/109 284/7/109
f 282/7/110 245/7/110 287/7/110
f 246/7/111 286/7/111 291/7/111
f 284/7/112 290/7/112 285/7/112
f 291/7/113 295/7/113 296/7/113
f 288/7/114 294/7/114 289/7/114
f 287/7/115 245/7/115 292/7/115
f 246/7/116 291/7/116 296/7/116
f 289/7/117 295/7/117 290/7/117
f 287/7/124 293/7/124 288/7/124
f 347/8/63 301/8/63 302/8/63
f 344/8/125 300/8/125 345/8/125
f 348/8/126 302/8/126 303/8/126
f 345/8/60 301/8/60 346/8/60
f 344/8/61 297/8/61 299/8/61
f 298/8/62 348/8/62 303/8/62
f 302/8/65 308/8/65 303/8/65
f 300/8/66 306/8/66 301/8/66
f 299/8/67 297/8/67 304/8/67
f 298/8/68 303/8/68 308/8/68
f 302/8/69 306/8/69 307/8/69
f 300/8/70 304/8/70 305/8/70
f 307/8/76 313/8/76 308/8/76
f 305/8/71 311/8/71 306/8/71
f 304/8/72 297/8/72 309/8/72
f 298/8/73 308/8/73 313/8/73
f 307/8/74 311/8/74 312/8/74
f 305/8/75 309/8/75 310/8/75
f 313/8/81 317/8/81 318/8/81
f 310/8/82 316/8/82 311/8/82
f 309/8/77 297/8/77 314/8/77
f 298/8/78 313/8/78 318/8/78
f 311/8/79 317/8/79 312/8/79
f 309/8/119 315/8/119 310/8/119
f 315/8/87 321/8/87 316/8/87
f 314/8/88 297/8/88 319/8/88
f 298/8/83 318/8/83 323/8/83
f 316/8/84 322/8/84 317/8/84
f 314/8/85 320/8/85 315/8/85
f 317/8/86 323/8/86 318/8/86
f 319/8/94 297/8/94 324/8/94
f 298/8/89 323/8/89 328/8/89
f 321/8/90 327/8/90 322/8/90
f 320/8/121 324/8/121 325/8/121
f 323/8/92 327/8/92 328/8/92
f 320/8/93 326/8/93 321/8/93
f 298/8/95 328/8/95 333/8/95
f 326/8/96 332/8/96 327/8/96
f 324/8/97 330/8/97 325/8/97
f 327/8/98 333/8/98 328/8/98
f 326/8/99 330/8/99 331/8/99
f 324/8/100 297/8/100 329/8/100
f 298/8/106 333/8/106 338/8/106
f 332/8/101 336/8/101 337/8/101
f 329/8/102 335/8/102 330/8/102
f 332/8/103 338/8/103 333/8/103
f 330/8/104 336/8/104 331/8/104
f 329/8/105 297/8/105 334/8/105
f 298/8/111 338/8/111 343/8/111
f 337/8/112 341/8/112 342/8/112
f 334/8/107 340/8/107 335/8/107
f 337/8/108 343/8/108 338/8/108
f 336/8/109 340/8/109 341/8/109
f 334/8/110 297/8/110 339/8/110
f 341/8/117 347/8/117 342/8/117
f 339/8/124 345/8/124 340/8/124
f 342/8/127 348/8/127 343/8/127
f 341/8/114 345/8/114 346/8/114
f 339/8/115 297/8/115 344/8/115
f 298/8/116 343/8/116 348/8/116
f 398/6/63 354/6/63 399/6/63
f 396/6/64 352/6/64 397/6/64
f 400/6/59 354/6/59 355/6/59
f 397/6/60 353/6/60 398/6/60
f 396/6/61 349/6/61 351/6/61
f 350/6/62 400/6/62 355/6/62
f 354/6/65 360/6/65 355/6/65
f 353/6/66 357/6/66 358/6/66
f 351/6/67 349/6/67 356/6/67
f 350/6/68 355/6/68 360/6/68
f 353/6/69 359/6/69 354/6/69
f 351/6/128 357/6/128 352/6/128
f 359/6/76 365/6/76 360/6/76
f 357/6/71 363/6/71 358/6/71
f 356/6/72 349/6/72 361/6/72
f 350/6/73 360/6/73 365/6/73
f 359/6/74 363/6/74 364/6/74
f 357/6/75 361/6/75 362/6/75
f 365/6/81 369/6/81 370/6/81
f 362/6/82 368/6/82 363/6/82
f 361/6/77 349/6/77 366/6/77
f 350/6/78 365/6/78 370/6/78
f 364/6/79 368/6/79 369/6/79
f 361/6/119 367/6/119 362/6/119
f 367/6/87 373/6/87 368/6/87
f 366/6/88 349/6/88 371/6/88
f 350/6/83 370/6/83 375/6/83
f 368/6/84 374/6/84 369/6/84
f 367/6/85 371/6/85 372/6/85
f 369/6/120 375/6/120 370/6/120
f 371/6/94 349/6/94 376/6/94
f 350/6/89 375/6/89 380/6/89
f 373/6/90 379/6/90 374/6/90
f 371/6/121 377/6/121 372/6/121
f 375/6/122 379/6/122 380/6/122
f 373/6/93 377/6/93 378/6/93
f 350/6/95 380/6/95 385/6/95
f 379/6/96 383/6/96 384/6/96
f 377/6/97 381/6/97 382/6/97
f 380/6/98 384/6/98 385/6/98
f 377/6/99 383/6/99 378/6/99
f 376/6/100 349/6/100 381/6/100
f 350/6/106 385/6/106 390/6/106
f 383/6/101 389/6/101 384/6/101
f 381/6/102 387/6/102 382/6/102
f 384/6/103 390/6/103 385/6/103
f 382/6/104 388/6/104 383/6/104
f 381/6/105 349/6/105 386/6/105
f 350/6/111 390/6/111 395/6/111
f 388/6/112 394/6/112 389/6/112
f 387/6/107 391/6/107 392/6/107
f 390/6/108 394/6/108 395/6/108
f 388/6/109 392/6/109 393/6/109
f 386/6/110 349/6/110 391/6/110
f 393/6/117 399/6/117 394/6/117
f 391/6/124 397/6/124 392/6/124
f 394/6/113 400/6/113 395/6/113
f 393/6/114 397/6/114 398/6/114
f 391/6/115 349/6/115 396/6/115
f 350/6/116 395/6/116 400/6/116
f 1/1/9 3/1/9 8/1/9
f 4/1/10 6/1/10 3/1/10
f 10/1/11 12/1/11 6/1/11
f 9/1/12 8/1/12 12/1/12
f 7/1/13 9/1/13 20/1/13
f 22/1/14 24/1/14 11/1/14
f 21/1/15 20/1/15 24/1/15
f 19/1/16 21/1/16 14/1/16
f 16/1/17 18/1/17 23/1/17
f 15/1/18 14/1/18 18/1/18
f 13/1/19 15/1/19 2/1/19
f 5/1/20 4/1/20 17/1/20
f 19/1/21 13/1/21 1/1/21
f 6/1/22 12/1/22 8/1/22
f 17/1/23 4/1/23 2/1/23
f 10/1/24 5/1/24 16/1/24
f 11/1/25 24/1/25 20/1/25
f 23/1/26 18/1/26 14/1/26
f 25/1/9 27/1/9 32/1/9
f 28/1/10 30/1/10 27/1/10
f 34/1/11 36/1/11 30/1/11
f 33/1/12 32/1/12 36/1/12
f 31/1/13 33/1/13 44/1/13
f 46/1/14 48/1/14 35/1/14
f 45/1/15 44/1/15 48/1/15
f 43/1/16 45/1/16 38/1/16
f 40/1/17 42/1/17 47/1/17
f 39/1/18 38/1/18 42/1/18
f 37/1/19 39/1/19 26/1/19
f 29/1/20 28/1/20 41/1/20
f 43/1/21 37/1/21 25/1/21
f 30/1/22 36/1/22 32/1/22
f 41/1/23 28/1/23 26/1/23
f 34/1/24 29/1/24 40/1/24
f 35/1/25 48/1/25 44/1/25
f 47/1/26 42/1/26 38/1/26
f 49/1/9 51/1/9 56/1/9
f 52/1/10 54/1/10 51/1/10
f 58/1/11 60/1/11 54/1/11
f 57/1/12 56/1/12 60/1/12
f 55/1/13 57/1/13 68/1/13
f 70/1/14 72/1/14 59/1/14
f 69/1/15 68/1/15 72/1/15
f 67/1/16 69/1/16 62/1/16
f 64/1/17 66/1/17 71/1/17
f 63/1/18 62/1/18 66/1/18
f 61/1/19 63/1/19 50/1/19
f 53/1/20 52/1/20 65/1/20
f 67/1/21 61/1/21 49/1/21
f 54/1/22 60/1/22 56/1/22
f 65/1/23 52/1/23 50/1/23
f 58/1/24 53/1/24 64/1/24
f 59/1/25 72/1/25 68/1/25
f 71/1/26 66/1/26 62/1/26
f 73/1/9 75/1/9 80/1/9
f 76/1/10 78/1/10 75/1/10
f 82/1/11 84/1/11 78/1/11
f 81/1/12 80/1/12 84/1/12
f 79/1/13 81/1/13 92/1/13
f 94/1/14 96/1/14 83/1/14
f 93/1/15 92/1/15 96/1/15
f 91/1/16 93/1/16 86/1/16
f 88/1/17 90/1/17 95/1/17
f 87/1/18 86/1/18 90/1/18
f 85/1/19 87/1/19 74/1/19
f 77/1/20 76/1/20 89/1/20
f 91/1/21 85/1/21 73/1/21
f 78/1/22 84/1/22 80/1/22
f 89/1/23 76/1/23 74/1/23
f 82/1/24 77/1/24 88/1/24
f 83/1/25 96/1/25 92/1/25
f 95/1/26 90/1/26 86/1/26
f 97/2/9 99/2/9 104/2/9
f 100/2/10 102/2/10 99/2/10
f 106/2/11 108/2/11 102/2/11
f 105/2/12 104/2/12 108/2/12
f 103/2/13 105/2/13 116/2/13
f 118/2/14 120/2/14 107/2/14
f 117/2/15 116/2/15 120/2/15
f 115/2/16 117/2/16 110/2/16
f 112/2/17 114/2/17 119/2/17
f 111/2/18 110/2/18 114/2/18
f 109/2/19 111/2/19 98/2/19
f 101/2/20 100/2/20 113/2/20
f 115/2/21 109/2/21 97/2/21
f 102/2/22 108/2/22 104/2/22
f 113/2/23 100/2/23 98/2/23
f 106/2/24 101/2/24 112/2/24
f 107/2/25 120/2/25 116/2/25
f 119/2/26 114/2/26 110/2/26
f 121/2/9 123/2/9 128/2/9
f 124/2/10 126/2/10 123/2/10
f 130/2/11 132/2/11 126/2/11
f 129/2/12 128/2/12 132/2/12
f 127/2/13 129/2/13 140/2/13
f 142/2/14 144/2/14 131/2/14
f 141/2/15 140/2/15 144/2/15
f 139/2/16 141/2/16 134/2/16
f 136/2/17 138/2/17 143/2/17
f 135/2/18 134/2/18 138/2/18
f 133/2/19 135/2/19 122/2/19
f 125/2/20 124/2/20 137/2/20
f 139/2/21 133/2/21 121/2/21
f 126/2/22 132/2/22 128/2/22
f 137/2/23 124/2/23 122/2/23
f 130/2/24 125/2/24 136/2/24
f 131/2/25 144/2/25 140/2/25
f 143/2/26 138/2/26 134/2/26
f 146/3/22 148/3/22 147/3/22
f 148/3/25 152/3/25 151/3/25
f 152/3/26 150/3/26 149/3/26
f 150/3/23 146/3/23 145/3/23
f 151/3/21 149/3/21 145/3/21
f 148/3/24 146/3/24 150/3/24
f 154/4/22 156/4/22 155/4/22
f 156/4/25 160/4/25 159/4/25
f 160/4/26 158/4/26 157/4/26
f 158/4/23 154/4/23 153/4/23
f 159/4/21 157/4/21 153/4/21
f 156/4/24 154/4/24 158/4/24
f 162/4/22 164/4/22 163/4/22
f 164/4/25 168/4/25 167/4/25
f 168/4/26 166/4/26 165/4/26
f 166/4/23 162/4/23 161/4/23
f 167/4/21 165/4/21 161/4/21
f 164/4/24 162/4/24 166/4/24
f 170/5/47 172/5/47 171/5/47
f 172/5/48 174/5/48 173/5/48
f 173/5/49 174/5/49 176/5/49
f 175/5/50 176/5/50 178/5/50
f 178/5/51 180/5/51 179/5/51
f 179/5/52 180/5/52 182/5/52
f 181/5/53 182/5/53 184/5/53
f 184/5/54 186/5/54 185/5/54
f 185/5/55 186/5/55 188/5/55
f 187/5/56 188/5/56 190/5/56
f 174/5/24 172/5/24 170/5/24
f 170/5/24 192/5/24 190/5/24
f 190/5/24 188/5/24 186/5/24
f 186/5/24 184/5/24 182/5/24
f 182/5/24 180/5/24 178/5/24
f 178/5/24 176/5/24 174/5/24
f 174/5/24 170/5/24 190/5/24
f 190/5/24 186/5/24 182/5/24
f 182/5/24 178/5/24 174/5/24
f 190/5/57 192/5/57 191/5/57
f 192/5/58 170/5/58 169/5/58
f 191/5/21 169/5/21 171/5/21
f 171/5/21 173/5/21 175/5/21
f 175/5/21 177/5/21 179/5/21
f 179/5/21 181/5/21 183/5/21
f 183/5/21 185/5/21 187/5/21
f 187/5/21 189/5/21 191/5/21
f 191/5/21 171/5/21 175/5/21
f 175/5/21 179/5/21 183/5/21
f 183/5/21 187/5/21 191/5/21
f 243/6/59 198/6/59 199/6/59
f 241/6/60 196/6/60 197/6/60
f 242/6/63 197/6/63 198/6/63
f 240/6/129 195/6/129 196/6/129
f 199/6/65 198/6/65 203/6/65
f 197/6/66 196/6/66 201/6/66
f 197/6/69 202/6/69 203/6/69
f 196/6/128 195/6/128 200/6/128
f 201/6/71 206/6/71 207/6/71
f 203/6/74 202/6/74 207/6/74
f 200/6/75 205/6/75 206/6/75
f 203/6/76 208/6/76 209/6/76
f 207/6/79 212/6/79 213/6/79
f 205/6/119 210/6/119 211/6/119
f 208/6/81 213/6/81 214/6/81
f 206/6/82 211/6/82 212/6/82
f 212/6/84 217/6/84 218/6/84
f 211/6/85 210/6/85 215/6/85
f 213/6/120 218/6/120 219/6/120
f 211/6/87 216/6/87 217/6/87
f 218/6/90 217/6/90 222/6/90
f 215/6/130 220/6/130 221/6/130
f 219/6/131 218/6/131 223/6/131
f 216/6/93 221/6/93 222/6/93
f 222/6/96 227/6/96 228/6/96
f 221/6/97 220/6/97 225/6/97
f 224/6/98 223/6/98 228/6/98
f 222/6/99 221/6/99 226/6/99
f 228/6/101 227/6/101 232/6/101
f 225/6/102 230/6/102 231/6/102
f 228/6/103 233/6/103 234/6/103
f 226/6/104 231/6/104 232/6/104
f 230/6/107 235/6/107 236/6/107
f 233/6/108 238/6/108 239/6/108
f 232/6/109 231/6/109 236/6/109
f 233/6/112 232/6/112 237/6/112
f 239/6/113 238/6/113 243/6/113
f 236/6/114 241/6/114 242/6/114
f 238/6/117 237/6/117 242/6/117
f 236/6/132 235/6/132 240/6/132
f 295/7/59 250/7/59 251/7/59
f 293/7/60 248/7/60 249/7/60
f 294/7/63 249/7/63 250/7/63
f 293/7/64 292/7/64 247/7/64
f 250/7/65 255/7/65 256/7/65
f 249/7/66 248/7/66 253/7/66
f 249/7/69 254/7/69 255/7/69
f 247/7/128 252/7/128 253/7/128
f 253/7/71 258/7/71 259/7/71
f 254/7/74 259/7/74 260/7/74
f 252/7/75 257/7/75 258/7/75
f 256/7/76 255/7/76 260/7/76
f 259/7/79 264/7/79 265/7/79
f 257/7/119 262/7/119 263/7/119
f 261/7/81 260/7/81 265/7/81
f 259/7/82 258/7/82 263/7/82
f 265/7/84 264/7/84 269/7/84
f 263/7/85 262/7/85 267/7/85
f 265/7/120 270/7/120 271/7/120
f 263/7/87 268/7/87 269/7/87
f 269/7/90 274/7/90 275/7/90
f 267/7/121 272/7/121 273/7/121
f 271/7/122 270/7/122 275/7/122
f 269/7/93 268/7/93 273/7/93
f 275/7/96 274/7/96 279/7/96
f 273/7/97 272/7/97 277/7/97
f 276/7/98 275/7/98 280/7/98
f 273/7/99 278/7/99 279/7/99
f 280/7/101 279/7/101 284/7/101
f 278/7/102 277/7/102 282/7/102
f 280/7/103 285/7/103 286/7/103
f 278/7/104 283/7/104 284/7/104
f 283/7/107 282/7/107 287/7/107
f 285/7/133 290/7/133 291/7/133
f 283/7/109 288/7/109 289/7/109
f 284/7/112 289/7/112 290/7/112
f 291/7/113 290/7/113 295/7/113
f 288/7/114 293/7/114 294/7/114
f 289/7/117 294/7/117 295/7/117
f 287/7/124 292/7/124 293/7/124
f 347/8/63 346/8/63 301/8/63
f 344/8/129 299/8/129 300/8/129
f 348/8/59 347/8/59 302/8/59
f 345/8/60 300/8/60 301/8/60
f 302/8/65 307/8/65 308/8/65
f 300/8/66 305/8/66 306/8/66
f 302/8/69 301/8/69 306/8/69
f 300/8/128 299/8/128 304/8/128
f 307/8/76 312/8/76 313/8/76
f 305/8/71 310/8/71 311/8/71
f 307/8/74 306/8/74 311/8/74
f 305/8/75 304/8/75 309/8/75
f 313/8/81 312/8/81 317/8/81
f 310/8/82 315/8/82 316/8/82
f 311/8/79 316/8/79 317/8/79
f 309/8/119 314/8/119 315/8/119
f 315/8/87 320/8/87 321/8/87
f 316/8/84 321/8/84 322/8/84
f 314/8/85 319/8/85 320/8/85
f 317/8/120 322/8/120 323/8/120
f 321/8/90 326/8/90 327/8/90
f 320/8/121 319/8/121 324/8/121
f 323/8/122 322/8/122 327/8/122
f 320/8/93 325/8/93 326/8/93
f 326/8/96 331/8/96 332/8/96
f 324/8/97 329/8/97 330/8/97
f 327/8/98 332/8/98 333/8/98
f 326/8/99 325/8/99 330/8/99
f 332/8/101 331/8/101 336/8/101
f 329/8/102 334/8/102 335/8/102
f 332/8/103 337/8/103 338/8/103
f 330/8/104 335/8/104 336/8/104
f 337/8/112 336/8/112 341/8/112
f 334/8/107 339/8/107 340/8/107
f 337/8/108 342/8/108 343/8/108
f 336/8/109 335/8/109 340/8/109
f 341/8/117 346/8/117 347/8/117
f 339/8/124 344/8/124 345/8/124
f 342/8/113 347/8/113 348/8/113
f 341/8/114 340/8/114 345/8/114
f 398/6/63 353/6/63 354/6/63
f 396/6/64 351/6/64 352/6/64
f 400/6/59 399/6/59 354/6/59
f 397/6/60 352/6/60 353/6/60
f 354/6/65 359/6/65 360/6/65
f 353/6/66 352/6/66 357/6/66
f 353/6/69 358/6/69 359/6/69
f 351/6/128 356/6/128 357/6/128
f 359/6/76 364/6/76 365/6/76
f 357/6/71 362/6/71 363/6/71
f 359/6/74 358/6/74 363/6/74
f 357/6/75 356/6/75 361/6/75
f 365/6/81 364/6/81 369/6/81
f 362/6/82 367/6/82 368/6/82
f 364/6/79 363/6/79 368/6/79
f 361/6/119 366/6/119 367/6/119
f 367/6/87 372/6/87 373/6/87
f 368/6/84 373/6/84 374/6/84
f 367/6/85 366/6/85 371/6/85
f 369/6/120 374/6/120 375/6/120
f 373/6/90 378/6/90 379/6/90
f 371/6/121 376/6/121 377/6/121
f 375/6/122 374/6/122 379/6/122
f 373/6/93 372/6/93 377/6/93
f 379/6/96 378/6/96 383/6/96
f 377/6/97 376/6/97 381/6/97
f 380/6/98 379/6/98 384/6/98
f 377/6/99 382/6/99 383/6/99
f 383/6/101 388/6/101 389/6/101
f 381/6/102 386/6/102 387/6/102
f 384/6/103 389/6/103 390/6/103
f 382/6/104 387/6/104 388/6/104
f 388/6/112 393/6/112 394/6/112
f 387/6/123 386/6/123 391/6/123
f 390/6/108 389/6/108 394/6/108
f 388/6/109 387/6/109 392/6/109
f 393/6/117 398/6/117 399/6/117
f 391/6/124 396/6/124 397/6/124
f 394/6/113 399/6/113 400/6/113
f 393/6/114 392/6/114 397/6/114
