# Blender 5.1.1
# www.blender.org
o meja_pot
v -0.023000 -0.425000 0.023000
v -0.023000 -0.413000 0.035000
v -0.035000 -0.413000 0.023000
v -0.023000 0.413000 0.035000
v -0.023000 0.425000 0.023000
v -0.035000 0.413000 0.023000
v -0.023000 -0.425000 -0.023000
v -0.035000 -0.413000 -0.023000
v -0.023000 -0.413000 -0.035000
v -0.023000 0.425000 -0.023000
v -0.023000 0.413000 -0.035000
v -0.035000 0.413000 -0.023000
v 0.023000 -0.425000 0.023000
v 0.035000 -0.413000 0.023000
v 0.023000 -0.413000 0.035000
v 0.023000 0.425000 0.023000
v 0.023000 0.413000 0.035000
v 0.035000 0.413000 0.023000
v 0.023000 -0.425000 -0.023000
v 0.023000 -0.413000 -0.035000
v 0.035000 -0.413000 -0.023000
v 0.023000 0.425000 -0.023000
v 0.035000 0.413000 -0.023000
v 0.023000 0.413000 -0.035000
v -0.023000 -0.425000 -0.657000
v -0.023000 -0.413000 -0.645000
v -0.035000 -0.413000 -0.657000
v -0.023000 0.413000 -0.645000
v -0.023000 0.425000 -0.657000
v -0.035000 0.413000 -0.657000
v -0.023000 -0.425000 -0.703000
v -0.035000 -0.413000 -0.703000
v -0.023000 -0.413000 -0.715000
v -0.023000 0.425000 -0.703000
v -0.023000 0.413000 -0.715000
v -0.035000 0.413000 -0.703000
v 0.023000 -0.425000 -0.657000
v 0.035000 -0.413000 -0.657000
v 0.023000 -0.413000 -0.645000
v 0.023000 0.425000 -0.657000
v 0.023000 0.413000 -0.645000
v 0.035000 0.413000 -0.657000
v 0.023000 -0.425000 -0.703000
v 0.023000 -0.413000 -0.715000
v 0.035000 -0.413000 -0.703000
v 0.023000 0.425000 -0.703000
v 0.035000 0.413000 -0.703000
v 0.023000 0.413000 -0.715000
v 1.557000 -0.425000 0.023000
v 1.557000 -0.413000 0.035000
v 1.545000 -0.413000 0.023000
v 1.557000 0.413000 0.035000
v 1.557000 0.425000 0.023000
v 1.545000 0.413000 0.023000
v 1.557000 -0.425000 -0.023000
v 1.545000 -0.413000 -0.023000
v 1.557000 -0.413000 -0.035000
v 1.557000 0.425000 -0.023000
v 1.557000 0.413000 -0.035000
v 1.545000 0.413000 -0.023000
v 1.603000 -0.425000 0.023000
v 1.615000 -0.413000 0.023000
v 1.603000 -0.413000 0.035000
v 1.603000 0.425000 0.023000
v 1.603000 0.413000 0.035000
v 1.615000 0.413000 0.023000
v 1.603000 -0.425000 -0.023000
v 1.603000 -0.413000 -0.035000
v 1.615000 -0.413000 -0.023000
v 1.603000 0.425000 -0.023000
v 1.615000 0.413000 -0.023000
v 1.603000 0.413000 -0.035000
v 1.557000 -0.425000 -0.657000
v 1.557000 -0.413000 -0.645000
v 1.545000 -0.413000 -0.657000
v 1.557000 0.413000 -0.645000
v 1.557000 0.425000 -0.657000
v 1.545000 0.413000 -0.657000
v 1.557000 -0.425000 -0.703000
v 1.545000 -0.413000 -0.703000
v 1.557000 -0.413000 -0.715000
v 1.557000 0.425000 -0.703000
v 1.557000 0.413000 -0.715000
v 1.545000 0.413000 -0.703000
v 1.603000 -0.425000 -0.657000
v 1.615000 -0.413000 -0.657000
v 1.603000 -0.413000 -0.645000
v 1.603000 0.425000 -0.657000
v 1.603000 0.413000 -0.645000
v 1.615000 0.413000 -0.657000
v 1.603000 -0.425000 -0.703000
v 1.603000 -0.413000 -0.715000
v 1.615000 -0.413000 -0.703000
v 1.603000 0.425000 -0.703000
v 1.615000 0.413000 -0.703000
v 1.603000 0.413000 -0.715000
v -0.048000 0.425000 0.048000
v -0.048000 0.437000 0.060000
v -0.060000 0.437000 0.048000
v -0.048000 0.463000 0.060000
v -0.048000 0.475000 0.048000
v -0.060000 0.463000 0.048000
v -0.048000 0.425000 -0.728000
v -0.060000 0.437000 -0.728000
v -0.048000 0.437000 -0.740000
v -0.048000 0.475000 -0.728000
v -0.048000 0.463000 -0.740000
v -0.060000 0.463000 -0.728000
v 1.628000 0.425000 0.048000
v 1.640000 0.437000 0.048000
v 1.628000 0.437000 0.060000
v 1.628000 0.475000 0.048000
v 1.628000 0.463000 0.060000
v 1.640000 0.463000 0.048000
v 1.628000 0.425000 -0.728000
v 1.628000 0.437000 -0.740000
v 1.640000 0.437000 -0.728000
v 1.628000 0.475000 -0.728000
v 1.640000 0.463000 -0.728000
v 1.628000 0.463000 -0.740000
v -0.001000 -0.225000 0.001000
v -0.001000 -0.216000 0.010000
v -0.010000 -0.216000 0.001000
v -0.001000 -0.204000 0.010000
v -0.001000 -0.195000 0.001000
v -0.010000 -0.204000 0.001000
v -0.001000 -0.225000 -0.681000
v -0.010000 -0.216000 -0.681000
v -0.001000 -0.216000 -0.690000
v -0.001000 -0.195000 -0.681000
v -0.001000 -0.204000 -0.690000
v -0.010000 -0.204000 -0.681000
v 1.581000 -0.225000 0.001000
v 1.590000 -0.216000 0.001000
v 1.581000 -0.216000 0.010000
v 1.581000 -0.195000 0.001000
v 1.581000 -0.204000 0.010000
v 1.590000 -0.204000 0.001000
v 1.581000 -0.225000 -0.681000
v 1.581000 -0.216000 -0.690000
v 1.590000 -0.216000 -0.681000
v 1.581000 -0.195000 -0.681000
v 1.590000 -0.204000 -0.681000
v 1.581000 -0.204000 -0.690000
v 0.193000 0.475000 -0.308000
v 0.193000 0.553000 -0.230000
v 0.115000 0.553000 -0.308000
v 0.193000 0.657000 -0.230000
v 0.193000 0.735000 -0.308000
v 0.115000 0.657000 -0.308000
v 0.193000 0.475000 -0.472000
v 0.115000 0.553000 -0.472000
v 0.193000 0.553000 -0.550000
v 0.193000 0.735000 -0.472000
v 0.193000 0.657000 -0.550000
v 0.115000 0.657000 -0.472000
v 0.487000 0.475000 -0.308000
v 0.565000 0.553000 -0.308000
v 0.487000 0.553000 -0.230000
v 0.487000 0.735000 -0.308000
v 0.487000 0.657000 -0.230000
v 0.565000 0.657000 -0.308000
v 0.487000 0.475000 -0.472000
v 0.487000 0.553000 -0.550000
v 0.565000 0.553000 -0.472000
v 0.487000 0.735000 -0.472000
v 0.565000 0.657000 -0.472000
v 0.487000 0.657000 -0.550000
v 0.172000 0.725000 -0.277000
v 0.172000 0.737000 -0.265000
v 0.160000 0.737000 -0.277000
v 0.172000 0.753000 -0.265000
v 0.172000 0.765000 -0.277000
v 0.160000 0.753000 -0.277000
v 0.172000 0.725000 -0.503000
v 0.160000 0.737000 -0.503000
v 0.172000 0.737000 -0.515000
v 0.172000 0.765000 -0.503000
v 0.172000 0.753000 -0.515000
v 0.160000 0.753000 -0.503000
v 0.508000 0.725000 -0.277000
v 0.520000 0.737000 -0.277000
v 0.508000 0.737000 -0.265000
v 0.508000 0.765000 -0.277000
v 0.508000 0.753000 -0.265000
v 0.520000 0.753000 -0.277000
v 0.508000 0.725000 -0.503000
v 0.508000 0.737000 -0.515000
v 0.520000 0.737000 -0.503000
v 0.508000 0.765000 -0.503000
v 0.520000 0.753000 -0.503000
v 0.508000 0.753000 -0.515000
v 0.940000 0.475000 -0.440000
v 0.940000 0.675000 -0.440000
v 0.998779 0.475000 -0.420902
v 0.998779 0.675000 -0.420902
v 1.035106 0.475000 -0.370902
v 1.035106 0.675000 -0.370902
v 1.035106 0.475000 -0.309098
v 1.035106 0.675000 -0.309098
v 0.998779 0.475000 -0.259098
v 0.998779 0.675000 -0.259098
v 0.940000 0.475000 -0.240000
v 0.940000 0.675000 -0.240000
v 0.881222 0.475000 -0.259098
v 0.881222 0.675000 -0.259098
v 0.844894 0.475000 -0.309098
v 0.844894 0.675000 -0.309098
v 0.844894 0.475000 -0.370902
v 0.844894 0.675000 -0.370902
v 0.881222 0.475000 -0.420902
v 0.881222 0.675000 -0.420902
v 1.060000 0.545000 -0.360000
v 1.295612 0.696285 -0.360000
v 1.069358 0.530425 -0.350000
v 1.304970 0.681710 -0.350000
v 1.069358 0.530425 -0.330000
v 1.304970 0.681710 -0.330000
v 1.060000 0.545000 -0.320000
v 1.295612 0.696285 -0.320000
v 1.050642 0.559575 -0.330000
v 1.286254 0.710859 -0.330000
v 1.050642 0.559575 -0.350000
v 1.286254 0.710859 -0.350000
v 1.306000 0.475000 -0.176000
v 1.306000 0.481000 -0.170000
v 1.300000 0.481000 -0.176000
v 1.306000 0.489000 -0.170000
v 1.306000 0.495000 -0.176000
v 1.300000 0.489000 -0.176000
v 1.306000 0.475000 -0.304000
v 1.300000 0.481000 -0.304000
v 1.306000 0.481000 -0.310000
v 1.306000 0.495000 -0.304000
v 1.306000 0.489000 -0.310000
v 1.300000 0.489000 -0.304000
v 1.374000 0.475000 -0.176000
v 1.380000 0.481000 -0.176000
v 1.374000 0.481000 -0.170000
v 1.374000 0.495000 -0.176000
v 1.374000 0.489000 -0.170000
v 1.380000 0.489000 -0.176000
v 1.374000 0.475000 -0.304000
v 1.374000 0.481000 -0.310000
v 1.380000 0.481000 -0.304000
v 1.374000 0.495000 -0.304000
v 1.380000 0.489000 -0.304000
v 1.374000 0.489000 -0.310000
v 1.334000 0.475000 -0.319000
v 1.334000 0.484000 -0.310000
v 1.325000 0.484000 -0.319000
v 1.334000 0.496000 -0.310000
v 1.334000 0.505000 -0.319000
v 1.325000 0.496000 -0.319000
v 1.334000 0.475000 -0.521000
v 1.325000 0.484000 -0.521000
v 1.334000 0.484000 -0.530000
v 1.334000 0.505000 -0.521000
v 1.334000 0.496000 -0.530000
v 1.325000 0.496000 -0.521000
v 1.346000 0.475000 -0.319000
v 1.355000 0.484000 -0.319000
v 1.346000 0.484000 -0.310000
v 1.346000 0.505000 -0.319000
v 1.346000 0.496000 -0.310000
v 1.355000 0.496000 -0.319000
v 1.346000 0.475000 -0.521000
v 1.346000 0.484000 -0.530000
v 1.355000 0.484000 -0.521000
v 1.346000 0.505000 -0.521000
v 1.355000 0.496000 -0.521000
v 1.346000 0.496000 -0.530000
v 0.690000 -0.195000 -0.130000
v 0.690000 -0.085000 -0.150000
v 0.739497 -0.195000 -0.109497
v 0.753640 -0.085000 -0.123640
v 0.760000 -0.195000 -0.060000
v 0.780000 -0.085000 -0.060000
v 0.739497 -0.195000 -0.010503
v 0.753640 -0.085000 0.003640
v 0.690000 -0.195000 0.010000
v 0.690000 -0.085000 0.030000
v 0.640503 -0.195000 -0.010503
v 0.626360 -0.085000 0.003640
v 0.620000 -0.195000 -0.060000
v 0.600000 -0.085000 -0.060000
v 0.640503 -0.195000 -0.109497
v 0.626360 -0.085000 -0.123640
v 0.890000 -0.195000 -0.130000
v 0.890000 -0.085000 -0.150000
v 0.939498 -0.195000 -0.109497
v 0.953640 -0.085000 -0.123640
v 0.960000 -0.195000 -0.060000
v 0.980000 -0.085000 -0.060000
v 0.939498 -0.195000 -0.010503
v 0.953640 -0.085000 0.003640
v 0.890000 -0.195000 0.010000
v 0.890000 -0.085000 0.030000
v 0.840503 -0.195000 -0.010503
v 0.826360 -0.085000 0.003640
v 0.820000 -0.195000 -0.060000
v 0.800000 -0.085000 -0.060000
v 0.840503 -0.195000 -0.109497
v 0.826360 -0.085000 -0.123640
v 1.090000 -0.195000 -0.130000
v 1.090000 -0.085000 -0.150000
v 1.139498 -0.195000 -0.109497
v 1.153640 -0.085000 -0.123640
v 1.160000 -0.195000 -0.060000
v 1.180000 -0.085000 -0.060000
v 1.139498 -0.195000 -0.010503
v 1.153640 -0.085000 0.003640
v 1.090000 -0.195000 0.010000
v 1.090000 -0.085000 0.030000
v 1.040503 -0.195000 -0.010503
v 1.026360 -0.085000 0.003640
v 1.020000 -0.195000 -0.060000
v 1.000000 -0.085000 -0.060000
v 1.040503 -0.195000 -0.109497
v 1.026360 -0.085000 -0.123640
v 1.090000 -0.195000 -0.608456
v 1.061468 -0.165000 -0.630729
v 1.118532 -0.165000 -0.630729
v 1.090000 0.105000 -0.608456
v 1.118532 0.075000 -0.630729
v 1.061468 0.075000 -0.630729
v 1.218405 -0.195000 -0.566735
v 1.208415 -0.165000 -0.601525
v 1.254580 -0.165000 -0.567984
v 1.218405 0.105000 -0.566735
v 1.254580 0.075000 -0.567984
v 1.208415 0.075000 -0.601525
v 1.297764 -0.195000 -0.457507
v 1.310131 -0.165000 -0.491525
v 1.327764 -0.165000 -0.437254
v 1.297764 0.105000 -0.457507
v 1.327764 0.075000 -0.437254
v 1.310131 0.075000 -0.491525
v 1.297764 -0.195000 -0.322493
v 1.327764 -0.165000 -0.342746
v 1.310131 -0.165000 -0.288475
v 1.297764 0.105000 -0.322493
v 1.310131 0.075000 -0.288475
v 1.327764 0.075000 -0.342746
v 1.218405 -0.195000 -0.213265
v 1.254580 -0.165000 -0.212016
v 1.208415 -0.165000 -0.178475
v 1.218405 0.105000 -0.213265
v 1.208415 0.075000 -0.178475
v 1.254580 0.075000 -0.212016
v 1.090000 -0.195000 -0.171544
v 1.118532 -0.165000 -0.149271
v 1.061468 -0.165000 -0.149271
v 1.090000 0.105000 -0.171544
v 1.061468 0.075000 -0.149271
v 1.118532 0.075000 -0.149271
v 0.961595 -0.195000 -0.213265
v 0.971585 -0.165000 -0.178475
v 0.925420 -0.165000 -0.212016
v 0.961595 0.105000 -0.213265
v 0.925420 0.075000 -0.212016
v 0.971585 0.075000 -0.178475
v 0.882236 -0.195000 -0.322493
v 0.869869 -0.165000 -0.288475
v 0.852236 -0.165000 -0.342746
v 0.882236 0.105000 -0.322493
v 0.852236 0.075000 -0.342746
v 0.869869 0.075000 -0.288475
v 0.882236 -0.195000 -0.457507
v 0.852236 -0.165000 -0.437254
v 0.869869 -0.165000 -0.491525
v 0.882236 0.105000 -0.457507
v 0.869869 0.075000 -0.491525
v 0.852236 0.075000 -0.437254
v 0.961595 -0.195000 -0.566735
v 0.925420 -0.165000 -0.567984
v 0.971585 -0.165000 -0.601525
v 0.961595 0.105000 -0.566735
v 0.971585 0.075000 -0.601525
v 0.925420 0.075000 -0.567984
vn -0.5774 -0.5774 0.5773
vn -0.5774 0.5773 0.5773
vn -0.5774 -0.5774 -0.5773
vn -0.5774 0.5774 -0.5773
vn 0.5774 -0.5774 0.5773
vn 0.5774 0.5774 0.5773
vn 0.5774 -0.5774 -0.5773
vn 0.5774 0.5774 -0.5773
vn -0.7071 -0.7071 -0.0000
vn -0.7071 -0.0000 0.7071
vn -0.7071 0.7071 -0.0000
vn -0.7071 -0.0000 -0.7071
vn -0.0000 -0.7071 -0.7071
vn -0.0000 0.7071 -0.7071
vn 0.7071 -0.0000 -0.7071
vn 0.7071 -0.7071 -0.0000
vn 0.7071 0.7071 -0.0000
vn 0.7071 -0.0000 0.7071
vn -0.0000 -0.7071 0.7071
vn -0.0000 0.7071 0.7071
vn -0.0000 -1.0000 -0.0000
vn -1.0000 -0.0000 -0.0000
vn -0.0000 -0.0000 1.0000
vn -0.0000 1.0000 -0.0000
vn -0.0000 -0.0000 -1.0000
vn 1.0000 -0.0000 -0.0000
vn -0.5773 -0.5774 0.5773
vn -0.5774 0.5774 0.5773
vn -0.5774 -0.5773 -0.5774
vn -0.5774 0.5773 -0.5774
vn 0.5774 -0.5773 0.5774
vn 0.5773 0.5774 0.5773
vn 0.5774 -0.5773 -0.5774
vn 0.5774 0.5773 -0.5774
vn 0.5773 -0.5773 0.5774
vn 0.5773 0.5773 0.5774
vn 0.5773 -0.5773 -0.5774
vn 0.5773 0.5773 -0.5774
vn -0.5774 -0.5773 -0.5773
vn -0.5774 0.5773 -0.5773
vn 0.5774 0.5773 0.5774
vn -0.5774 -0.5774 0.5774
vn -0.5773 0.5774 0.5774
vn -0.5773 -0.5774 -0.5774
vn -0.5773 0.5774 -0.5774
vn 0.5773 -0.5774 0.5774
vn 0.5773 0.5774 0.5774
vn -0.5774 0.5774 0.5774
vn -0.5773 -0.5774 -0.5773
vn -0.5773 0.5774 -0.5773
vn -0.5774 -0.5773 0.5774
vn -0.5774 0.5774 -0.5774
vn 0.5774 0.5774 0.5774
vn 0.5773 0.5774 -0.5774
vn -0.5773 -0.5773 0.5774
vn -0.5773 0.5773 0.5774
vn -0.5773 -0.5773 -0.5774
vn -0.5773 0.5773 -0.5774
vn 0.5773 -0.5774 -0.5774
vn 0.3090 -0.0000 -0.9511
vn 0.8090 -0.0000 -0.5878
vn 0.8090 -0.0000 0.5878
vn 0.3090 -0.0000 0.9511
vn -0.3090 -0.0000 0.9511
vn -0.8090 -0.0000 0.5878
vn -0.8090 -0.0000 -0.5878
vn -0.3090 -0.0000 -0.9511
vn 0.2702 -0.4207 -0.8660
vn 0.5403 -0.8415 -0.0000
vn 0.2702 -0.4207 0.8660
vn -0.2702 0.4207 0.8660
vn 0.8415 0.5403 -0.0000
vn -0.5403 0.8415 -0.0000
vn -0.2702 0.4207 -0.8660
vn -0.8415 -0.5403 -0.0000
vn -0.5774 -0.5773 0.5773
vn 0.5774 -0.5773 0.5773
vn 0.5774 0.5773 0.5773
vn 0.5774 -0.5773 -0.5773
vn 0.5774 0.5773 -0.5773
vn 0.3774 -0.1657 -0.9111
vn 0.9111 -0.1657 -0.3774
vn 0.9111 -0.1657 0.3774
vn 0.3774 -0.1657 0.9111
vn -0.3774 -0.1657 0.9111
vn -0.9111 -0.1657 0.3774
vn -0.9111 -0.1657 -0.3774
vn -0.3774 -0.1657 -0.9111
vn -0.0000 -0.5961 -0.8029
vn -0.0000 0.5961 -0.8029
vn 0.4719 -0.5961 -0.6496
vn 0.4719 0.5961 -0.6496
vn 0.7636 -0.5961 -0.2481
vn 0.7636 0.5961 -0.2481
vn 0.7636 -0.5961 0.2481
vn 0.7636 0.5961 0.2481
vn 0.4719 -0.5961 0.6496
vn 0.4719 0.5961 0.6496
vn -0.0000 -0.5961 0.8029
vn -0.0000 0.5961 0.8029
vn -0.4719 -0.5961 0.6496
vn -0.4719 0.5961 0.6496
vn -0.7636 -0.5961 0.2481
vn -0.7636 0.5961 0.2481
vn -0.7636 -0.5961 -0.2481
vn -0.7636 0.5961 -0.2481
vn -0.4719 -0.5961 -0.6496
vn -0.4719 0.5961 -0.6496
vn 0.2185 -0.7071 -0.6725
vn 0.2185 0.7071 -0.6725
vn 0.5878 -0.0000 -0.8090
vn 0.5721 -0.7071 -0.4156
vn 0.5721 0.7071 -0.4156
vn 0.9511 -0.0000 -0.3090
vn 0.9511 -0.0000 0.3090
vn 0.5721 -0.7071 0.4156
vn 0.5721 0.7071 0.4156
vn 0.5878 -0.0000 0.8090
vn 0.2185 -0.7071 0.6725
vn 0.2185 0.7071 0.6725
vn -0.2185 -0.7071 0.6725
vn -0.2185 0.7071 0.6725
vn -0.5878 -0.0000 0.8090
vn -0.5721 -0.7071 0.4156
vn -0.5721 0.7071 0.4156
vn -0.9511 -0.0000 0.3090
vn -0.9511 -0.0000 -0.3090
vn -0.5721 -0.7071 -0.4156
vn -0.5721 0.7071 -0.4156
vn -0.5878 -0.0000 -0.8090
vn -0.2185 -0.7071 -0.6725
vn -0.2185 0.7071 -0.6725
vt 0.093750 0.968750
vt 0.156250 0.968750
vt 0.593750 0.843750
vt 0.406250 0.843750
vt 0.843750 0.968750
vt 0.031250 0.968750
vt 0.718750 0.906250
s 0
f 1/1/1 2/1/1 3/1/1
f 4/1/2 5/1/2 6/1/2
f 7/1/3 8/1/3 9/1/3
f 10/1/4 11/1/4 12/1/4
f 13/1/5 14/1/5 15/1/5
f 16/1/6 17/1/6 18/1/6
f 19/1/7 20/1/7 21/1/7
f 22/1/8 23/1/8 24/1/8
f 7/1/9 3/1/9 8/1/9
f 4/1/10 3/1/10 2/1/10
f 5/1/11 12/1/11 6/1/11
f 9/1/12 12/1/12 11/1/12
f 19/1/13 9/1/13 20/1/13
f 10/1/14 24/1/14 11/1/14
f 21/1/15 24/1/15 23/1/15
f 13/1/16 21/1/16 14/1/16
f 22/1/17 18/1/17 23/1/17
f 15/1/18 18/1/18 17/1/18
f 1/1/19 15/1/19 2/1/19
f 16/1/20 4/1/20 17/1/20
f 19/1/21 1/1/21 7/1/21
f 6/1/22 8/1/22 3/1/22
f 17/1/23 2/1/23 15/1/23
f 10/1/24 16/1/24 22/1/24
f 11/1/25 20/1/25 9/1/25
f 23/1/26 14/1/26 21/1/26
f 25/1/27 26/1/27 27/1/27
f 28/1/28 29/1/28 30/1/28
f 31/1/29 32/1/29 33/1/29
f 34/1/30 35/1/30 36/1/30
f 37/1/31 38/1/31 39/1/31
f 40/1/32 41/1/32 42/1/32
f 43/1/33 44/1/33 45/1/33
f 46/1/34 47/1/34 48/1/34
f 25/1/9 32/1/9 31/1/9
f 28/1/10 27/1/10 26/1/10
f 34/1/11 30/1/11 29/1/11
f 33/1/12 36/1/12 35/1/12
f 43/1/13 33/1/13 44/1/13
f 34/1/14 48/1/14 35/1/14
f 45/1/15 48/1/15 47/1/15
f 43/1/16 38/1/16 37/1/16
f 40/1/17 47/1/17 46/1/17
f 39/1/18 42/1/18 41/1/18
f 25/1/19 39/1/19 26/1/19
f 40/1/20 28/1/20 41/1/20
f 43/1/21 25/1/21 31/1/21
f 30/1/22 32/1/22 27/1/22
f 41/1/23 26/1/23 39/1/23
f 34/1/24 40/1/24 46/1/24
f 35/1/25 44/1/25 33/1/25
f 47/1/26 38/1/26 45/1/26
f 49/1/1 50/1/1 51/1/1
f 52/1/28 53/1/28 54/1/28
f 55/1/3 56/1/3 57/1/3
f 58/1/4 59/1/4 60/1/4
f 61/1/35 62/1/35 63/1/35
f 64/1/36 65/1/36 66/1/36
f 67/1/37 68/1/37 69/1/37
f 70/1/38 71/1/38 72/1/38
f 49/1/9 56/1/9 55/1/9
f 52/1/10 51/1/10 50/1/10
f 58/1/11 54/1/11 53/1/11
f 57/1/12 60/1/12 59/1/12
f 55/1/13 68/1/13 67/1/13
f 70/1/14 59/1/14 58/1/14
f 69/1/15 72/1/15 71/1/15
f 61/1/16 69/1/16 62/1/16
f 70/1/17 66/1/17 71/1/17
f 63/1/18 66/1/18 65/1/18
f 61/1/19 50/1/19 49/1/19
f 53/1/20 65/1/20 64/1/20
f 55/1/21 61/1/21 49/1/21
f 54/1/22 56/1/22 51/1/22
f 65/1/23 50/1/23 63/1/23
f 70/1/24 53/1/24 64/1/24
f 59/1/25 68/1/25 57/1/25
f 71/1/26 62/1/26 69/1/26
f 73/1/1 74/1/1 75/1/1
f 76/1/28 77/1/28 78/1/28
f 79/1/39 80/1/39 81/1/39
f 82/1/40 83/1/40 84/1/40
f 85/1/31 86/1/31 87/1/31
f 88/1/41 89/1/41 90/1/41
f 91/1/33 92/1/33 93/1/33
f 94/1/34 95/1/34 96/1/34
f 73/1/9 80/1/9 79/1/9
f 76/1/10 75/1/10 74/1/10
f 82/1/11 78/1/11 77/1/11
f 81/1/12 84/1/12 83/1/12
f 79/1/13 92/1/13 91/1/13
f 94/1/14 83/1/14 82/1/14
f 93/1/15 96/1/15 95/1/15
f 91/1/16 86/1/16 85/1/16
f 88/1/17 95/1/17 94/1/17
f 87/1/18 90/1/18 89/1/18
f 85/1/19 74/1/19 73/1/19
f 77/1/20 89/1/20 88/1/20
f 91/1/21 73/1/21 79/1/21
f 78/1/22 80/1/22 75/1/22
f 89/1/23 74/1/23 87/1/23
f 82/1/24 88/1/24 94/1/24
f 83/1/25 92/1/25 81/1/25
f 95/1/26 86/1/26 93/1/26
f 97/2/42 98/2/42 99/2/42
f 100/2/43 101/2/43 102/2/43
f 103/2/44 104/2/44 105/2/44
f 106/2/45 107/2/45 108/2/45
f 109/2/46 110/2/46 111/2/46
f 112/2/47 113/2/47 114/2/47
f 115/2/37 116/2/37 117/2/37
f 118/2/38 119/2/38 120/2/38
f 97/2/9 104/2/9 103/2/9
f 100/2/10 99/2/10 98/2/10
f 106/2/11 102/2/11 101/2/11
f 105/2/12 108/2/12 107/2/12
f 103/2/13 116/2/13 115/2/13
f 118/2/14 107/2/14 106/2/14
f 117/2/15 120/2/15 119/2/15
f 115/2/16 110/2/16 109/2/16
f 112/2/17 119/2/17 118/2/17
f 111/2/18 114/2/18 113/2/18
f 109/2/19 98/2/19 97/2/19
f 101/2/20 113/2/20 112/2/20
f 115/2/21 97/2/21 103/2/21
f 102/2/22 104/2/22 99/2/22
f 113/2/23 98/2/23 111/2/23
f 106/2/24 112/2/24 118/2/24
f 107/2/25 116/2/25 105/2/25
f 119/2/26 110/2/26 117/2/26
f 121/1/42 122/1/42 123/1/42
f 124/1/48 125/1/48 126/1/48
f 127/1/49 128/1/49 129/1/49
f 130/1/50 131/1/50 132/1/50
f 133/1/5 134/1/5 135/1/5
f 136/1/6 137/1/6 138/1/6
f 139/1/7 140/1/7 141/1/7
f 142/1/8 143/1/8 144/1/8
f 121/1/9 128/1/9 127/1/9
f 124/1/10 123/1/10 122/1/10
f 130/1/11 126/1/11 125/1/11
f 129/1/12 132/1/12 131/1/12
f 127/1/13 140/1/13 139/1/13
f 142/1/14 131/1/14 130/1/14
f 141/1/15 144/1/15 143/1/15
f 139/1/16 134/1/16 133/1/16
f 136/1/17 143/1/17 142/1/17
f 135/1/18 138/1/18 137/1/18
f 133/1/19 122/1/19 121/1/19
f 125/1/20 137/1/20 136/1/20
f 139/1/21 121/1/21 127/1/21
f 126/1/22 128/1/22 123/1/22
f 137/1/23 122/1/23 135/1/23
f 130/1/24 136/1/24 142/1/24
f 131/1/25 140/1/25 129/1/25
f 143/1/26 134/1/26 141/1/26
f 145/3/51 146/3/51 147/3/51
f 148/3/48 149/3/48 150/3/48
f 151/3/3 152/3/3 153/3/3
f 154/3/52 155/3/52 156/3/52
f 157/3/5 158/3/5 159/3/5
f 160/3/53 161/3/53 162/3/53
f 163/3/7 164/3/7 165/3/7
f 166/3/54 167/3/54 168/3/54
f 145/3/9 152/3/9 151/3/9
f 148/3/10 147/3/10 146/3/10
f 154/3/11 150/3/11 149/3/11
f 153/3/12 156/3/12 155/3/12
f 151/3/13 164/3/13 163/3/13
f 166/3/14 155/3/14 154/3/14
f 165/3/15 168/3/15 167/3/15
f 163/3/16 158/3/16 157/3/16
f 160/3/17 167/3/17 166/3/17
f 159/3/18 162/3/18 161/3/18
f 157/3/19 146/3/19 145/3/19
f 149/3/20 161/3/20 160/3/20
f 163/3/21 145/3/21 151/3/21
f 150/3/22 152/3/22 147/3/22
f 161/3/23 146/3/23 159/3/23
f 154/3/24 160/3/24 166/3/24
f 155/3/25 164/3/25 153/3/25
f 167/3/26 158/3/26 165/3/26
f 169/4/55 170/4/55 171/4/55
f 172/4/56 173/4/56 174/4/56
f 175/4/57 176/4/57 177/4/57
f 178/4/58 179/4/58 180/4/58
f 181/4/46 182/4/46 183/4/46
f 184/4/47 185/4/47 186/4/47
f 187/4/59 188/4/59 189/4/59
f 190/4/54 191/4/54 192/4/54
f 169/4/9 176/4/9 175/4/9
f 172/4/10 171/4/10 170/4/10
f 178/4/11 174/4/11 173/4/11
f 177/4/12 180/4/12 179/4/12
f 175/4/13 188/4/13 187/4/13
f 190/4/14 179/4/14 178/4/14
f 189/4/15 192/4/15 191/4/15
f 187/4/16 182/4/16 181/4/16
f 184/4/17 191/4/17 190/4/17
f 183/4/18 186/4/18 185/4/18
f 181/4/19 170/4/19 169/4/19
f 173/4/20 185/4/20 184/4/20
f 187/4/21 169/4/21 175/4/21
f 174/4/22 176/4/22 171/4/22
f 185/4/23 170/4/23 183/4/23
f 178/4/24 184/4/24 190/4/24
f 179/4/25 188/4/25 177/4/25
f 191/4/26 182/4/26 189/4/26
f 194/5/60 195/5/60 193/5/60
f 196/5/61 197/5/61 195/5/61
f 198/5/26 199/5/26 197/5/26
f 200/5/62 201/5/62 199/5/62
f 202/5/63 203/5/63 201/5/63
f 204/5/64 205/5/64 203/5/64
f 206/5/65 207/5/65 205/5/65
f 208/5/22 209/5/22 207/5/22
f 210/5/24 202/5/24 198/5/24
f 210/5/66 211/5/66 209/5/66
f 212/5/67 193/5/67 211/5/67
f 199/5/21 207/5/21 211/5/21
f 213/5/68 216/5/68 215/5/68
f 216/5/69 217/5/69 215/5/69
f 218/5/70 219/5/70 217/5/70
f 220/5/71 221/5/71 219/5/71
f 214/5/72 222/5/72 218/5/72
f 222/5/73 223/5/73 221/5/73
f 224/5/74 213/5/74 223/5/74
f 215/5/75 219/5/75 223/5/75
f 225/5/76 226/5/76 227/5/76
f 228/5/2 229/5/2 230/5/2
f 231/5/39 232/5/39 233/5/39
f 234/5/40 235/5/40 236/5/40
f 237/5/77 238/5/77 239/5/77
f 240/5/78 241/5/78 242/5/78
f 243/5/79 244/5/79 245/5/79
f 246/5/80 247/5/80 248/5/80
f 225/5/9 232/5/9 231/5/9
f 228/5/10 227/5/10 226/5/10
f 234/5/11 230/5/11 229/5/11
f 233/5/12 236/5/12 235/5/12
f 231/5/13 244/5/13 243/5/13
f 246/5/14 235/5/14 234/5/14
f 245/5/15 248/5/15 247/5/15
f 243/5/16 238/5/16 237/5/16
f 240/5/17 247/5/17 246/5/17
f 239/5/18 242/5/18 241/5/18
f 237/5/19 226/5/19 225/5/19
f 229/5/20 241/5/20 240/5/20
f 243/5/21 225/5/21 231/5/21
f 230/5/22 232/5/22 227/5/22
f 241/5/23 226/5/23 239/5/23
f 234/5/24 240/5/24 246/5/24
f 235/5/25 244/5/25 233/5/25
f 247/5/26 238/5/26 245/5/26
f 249/6/1 250/6/1 251/6/1
f 252/6/28 253/6/28 254/6/28
f 255/6/3 256/6/3 257/6/3
f 258/6/4 259/6/4 260/6/4
f 261/6/35 262/6/35 263/6/35
f 264/6/36 265/6/36 266/6/36
f 267/6/59 268/6/59 269/6/59
f 270/6/54 271/6/54 272/6/54
f 249/6/9 256/6/9 255/6/9
f 252/6/10 251/6/10 250/6/10
f 258/6/11 254/6/11 253/6/11
f 257/6/12 260/6/12 259/6/12
f 255/6/13 268/6/13 267/6/13
f 270/6/14 259/6/14 258/6/14
f 269/6/15 272/6/15 271/6/15
f 267/6/16 262/6/16 261/6/16
f 264/6/17 271/6/17 270/6/17
f 263/6/18 266/6/18 265/6/18
f 261/6/19 250/6/19 249/6/19
f 253/6/20 265/6/20 264/6/20
f 267/6/21 249/6/21 255/6/21
f 254/6/22 256/6/22 251/6/22
f 265/6/23 250/6/23 263/6/23
f 258/6/24 264/6/24 270/6/24
f 259/6/25 268/6/25 257/6/25
f 271/6/26 262/6/26 269/6/26
f 274/7/81 275/7/81 273/7/81
f 276/7/82 277/7/82 275/7/82
f 278/7/83 279/7/83 277/7/83
f 280/7/84 281/7/84 279/7/84
f 282/7/85 283/7/85 281/7/85
f 283/7/86 286/7/86 285/7/86
f 286/7/24 282/7/24 278/7/24
f 286/7/87 287/7/87 285/7/87
f 287/7/88 274/7/88 273/7/88
f 279/7/21 283/7/21 287/7/21
f 289/7/81 292/7/81 291/7/81
f 292/7/82 293/7/82 291/7/82
f 294/7/83 295/7/83 293/7/83
f 296/7/84 297/7/84 295/7/84
f 298/7/85 299/7/85 297/7/85
f 299/7/86 302/7/86 301/7/86
f 302/7/24 298/7/24 294/7/24
f 302/7/87 303/7/87 301/7/87
f 304/7/88 289/7/88 303/7/88
f 295/7/21 299/7/21 303/7/21
f 306/7/81 307/7/81 305/7/81
f 308/7/82 309/7/82 307/7/82
f 310/7/83 311/7/83 309/7/83
f 311/7/84 314/7/84 313/7/84
f 314/7/85 315/7/85 313/7/85
f 316/7/86 317/7/86 315/7/86
f 318/7/24 314/7/24 310/7/24
f 318/7/87 319/7/87 317/7/87
f 319/7/88 306/7/88 305/7/88
f 311/7/21 315/7/21 319/7/21
f 321/3/89 322/3/89 323/3/89
f 324/3/90 325/3/90 326/3/90
f 327/3/91 328/3/91 329/3/91
f 330/3/92 331/3/92 332/3/92
f 333/3/93 334/3/93 335/3/93
f 336/3/94 337/3/94 338/3/94
f 339/3/95 340/3/95 341/3/95
f 342/3/96 343/3/96 344/3/96
f 345/3/97 346/3/97 347/3/97
f 348/3/98 349/3/98 350/3/98
f 351/3/99 352/3/99 353/3/99
f 354/3/100 355/3/100 356/3/100
f 357/3/101 358/3/101 359/3/101
f 360/3/102 361/3/102 362/3/102
f 363/3/103 364/3/103 365/3/103
f 366/3/104 367/3/104 368/3/104
f 369/3/105 370/3/105 371/3/105
f 372/3/106 373/3/106 374/3/106
f 375/3/107 376/3/107 377/3/107
f 378/3/108 379/3/108 380/3/108
f 323/3/109 327/3/109 321/3/109
f 325/3/110 330/3/110 332/3/110
f 326/3/25 323/3/25 322/3/25
f 329/3/111 332/3/111 331/3/111
f 334/3/112 327/3/112 329/3/112
f 338/3/113 330/3/113 336/3/113
f 335/3/114 338/3/114 337/3/114
f 340/3/16 333/3/16 335/3/16
f 337/3/17 342/3/17 344/3/17
f 341/3/115 344/3/115 343/3/115
f 341/3/116 345/3/116 339/3/116
f 350/3/117 342/3/117 348/3/117
f 347/3/118 350/3/118 349/3/118
f 347/3/119 351/3/119 345/3/119
f 349/3/120 354/3/120 356/3/120
f 353/3/23 356/3/23 355/3/23
f 358/3/121 351/3/121 353/3/121
f 362/3/122 354/3/122 360/3/122
f 359/3/123 362/3/123 361/3/123
f 364/3/124 357/3/124 359/3/124
f 361/3/125 366/3/125 368/3/125
f 365/3/126 368/3/126 367/3/126
f 370/3/9 363/3/9 365/3/9
f 367/3/11 372/3/11 374/3/11
f 371/3/127 374/3/127 373/3/127
f 376/3/128 369/3/128 371/3/128
f 380/3/129 372/3/129 378/3/129
f 377/3/130 380/3/130 379/3/130
f 322/3/131 375/3/131 377/3/131
f 326/3/132 378/3/132 324/3/132
f 339/3/21 363/3/21 375/3/21
f 325/3/60 328/3/60 323/3/60
f 379/3/67 322/3/67 377/3/67
f 372/3/24 348/3/24 336/3/24
f 331/3/61 334/3/61 329/3/61
f 337/3/26 340/3/26 335/3/26
f 343/3/62 346/3/62 341/3/62
f 349/3/63 352/3/63 347/3/63
f 355/3/64 358/3/64 353/3/64
f 361/3/65 364/3/65 359/3/65
f 367/3/22 370/3/22 365/3/22
f 373/3/66 376/3/66 371/3/66
f 7/1/9 1/1/9 3/1/9
f 4/1/10 6/1/10 3/1/10
f 5/1/11 10/1/11 12/1/11
f 9/1/12 8/1/12 12/1/12
f 19/1/13 7/1/13 9/1/13
f 10/1/14 22/1/14 24/1/14
f 21/1/15 20/1/15 24/1/15
f 13/1/16 19/1/16 21/1/16
f 22/1/17 16/1/17 18/1/17
f 15/1/18 14/1/18 18/1/18
f 1/1/19 13/1/19 15/1/19
f 16/1/20 5/1/20 4/1/20
f 19/1/21 13/1/21 1/1/21
f 6/1/22 12/1/22 8/1/22
f 17/1/23 4/1/23 2/1/23
f 10/1/24 5/1/24 16/1/24
f 11/1/25 24/1/25 20/1/25
f 23/1/26 18/1/26 14/1/26
f 25/1/9 27/1/9 32/1/9
f 28/1/10 30/1/10 27/1/10
f 34/1/11 36/1/11 30/1/11
f 33/1/12 32/1/12 36/1/12
f 43/1/13 31/1/13 33/1/13
f 34/1/14 46/1/14 48/1/14
f 45/1/15 44/1/15 48/1/15
f 43/1/16 45/1/16 38/1/16
f 40/1/17 42/1/17 47/1/17
f 39/1/18 38/1/18 42/1/18
f 25/1/19 37/1/19 39/1/19
f 40/1/20 29/1/20 28/1/20
f 43/1/21 37/1/21 25/1/21
f 30/1/22 36/1/22 32/1/22
f 41/1/23 28/1/23 26/1/23
f 34/1/24 29/1/24 40/1/24
f 35/1/25 48/1/25 44/1/25
f 47/1/26 42/1/26 38/1/26
f 49/1/9 51/1/9 56/1/9
f 52/1/10 54/1/10 51/1/10
f 58/1/11 60/1/11 54/1/11
f 57/1/12 56/1/12 60/1/12
f 55/1/13 57/1/13 68/1/13
f 70/1/14 72/1/14 59/1/14
f 69/1/15 68/1/15 72/1/15
f 61/1/16 67/1/16 69/1/16
f 70/1/17 64/1/17 66/1/17
f 63/1/18 62/1/18 66/1/18
f 61/1/19 63/1/19 50/1/19
f 53/1/20 52/1/20 65/1/20
f 55/1/21 67/1/21 61/1/21
f 54/1/22 60/1/22 56/1/22
f 65/1/23 52/1/23 50/1/23
f 70/1/24 58/1/24 53/1/24
f 59/1/25 72/1/25 68/1/25
f 71/1/26 66/1/26 62/1/26
f 73/1/9 75/1/9 80/1/9
f 76/1/10 78/1/10 75/1/10
f 82/1/11 84/1/11 78/1/11
f 81/1/12 80/1/12 84/1/12
f 79/1/13 81/1/13 92/1/13
f 94/1/14 96/1/14 83/1/14
f 93/1/15 92/1/15 96/1/15
f 91/1/16 93/1/16 86/1/16
f 88/1/17 90/1/17 95/1/17
f 87/1/18 86/1/18 90/1/18
f 85/1/19 87/1/19 74/1/19
f 77/1/20 76/1/20 89/1/20
f 91/1/21 85/1/21 73/1/21
f 78/1/22 84/1/22 80/1/22
f 89/1/23 76/1/23 74/1/23
f 82/1/24 77/1/24 88/1/24
f 83/1/25 96/1/25 92/1/25
f 95/1/26 90/1/26 86/1/26
f 97/2/9 99/2/9 104/2/9
f 100/2/10 102/2/10 99/2/10
f 106/2/11 108/2/11 102/2/11
f 105/2/12 104/2/12 108/2/12
f 103/2/13 105/2/13 116/2/13
f 118/2/14 120/2/14 107/2/14
f 117/2/15 116/2/15 120/2/15
f 115/2/16 117/2/16 110/2/16
f 112/2/17 114/2/17 119/2/17
f 111/2/18 110/2/18 114/2/18
f 109/2/19 111/2/19 98/2/19
f 101/2/20 100/2/20 113/2/20
f 115/2/21 109/2/21 97/2/21
f 102/2/22 108/2/22 104/2/22
f 113/2/23 100/2/23 98/2/23
f 106/2/24 101/2/24 112/2/24
f 107/2/25 120/2/25 116/2/25
f 119/2/26 114/2/26 110/2/26
f 121/1/9 123/1/9 128/1/9
f 124/1/10 126/1/10 123/1/10
f 130/1/11 132/1/11 126/1/11
f 129/1/12 128/1/12 132/1/12
f 127/1/13 129/1/13 140/1/13
f 142/1/14 144/1/14 131/1/14
f 141/1/15 140/1/15 144/1/15
f 139/1/16 141/1/16 134/1/16
f 136/1/17 138/1/17 143/1/17
f 135/1/18 134/1/18 138/1/18
f 133/1/19 135/1/19 122/1/19
f 125/1/20 124/1/20 137/1/20
f 139/1/21 133/1/21 121/1/21
f 126/1/22 132/1/22 128/1/22
f 137/1/23 124/1/23 122/1/23
f 130/1/24 125/1/24 136/1/24
f 131/1/25 144/1/25 140/1/25
f 143/1/26 138/1/26 134/1/26
f 145/3/9 147/3/9 152/3/9
f 148/3/10 150/3/10 147/3/10
f 154/3/11 156/3/11 150/3/11
f 153/3/12 152/3/12 156/3/12
f 151/3/13 153/3/13 164/3/13
f 166/3/14 168/3/14 155/3/14
f 165/3/15 164/3/15 168/3/15
f 163/3/16 165/3/16 158/3/16
f 160/3/17 162/3/17 167/3/17
f 159/3/18 158/3/18 162/3/18
f 157/3/19 159/3/19 146/3/19
f 149/3/20 148/3/20 161/3/20
f 163/3/21 157/3/21 145/3/21
f 150/3/22 156/3/22 152/3/22
f 161/3/23 148/3/23 146/3/23
f 154/3/24 149/3/24 160/3/24
f 155/3/25 168/3/25 164/3/25
f 167/3/26 162/3/26 158/3/26
f 169/4/9 171/4/9 176/4/9
f 172/4/10 174/4/10 171/4/10
f 178/4/11 180/4/11 174/4/11
f 177/4/12 176/4/12 180/4/12
f 175/4/13 177/4/13 188/4/13
f 190/4/14 192/4/14 179/4/14
f 189/4/15 188/4/15 192/4/15
f 187/4/16 189/4/16 182/4/16
f 184/4/17 186/4/17 191/4/17
f 183/4/18 182/4/18 186/4/18
f 181/4/19 183/4/19 170/4/19
f 173/4/20 172/4/20 185/4/20
f 187/4/21 181/4/21 169/4/21
f 174/4/22 180/4/22 176/4/22
f 185/4/23 172/4/23 170/4/23
f 178/4/24 173/4/24 184/4/24
f 179/4/25 192/4/25 188/4/25
f 191/4/26 186/4/26 182/4/26
f 194/5/60 196/5/60 195/5/60
f 196/5/61 198/5/61 197/5/61
f 198/5/26 200/5/26 199/5/26
f 200/5/62 202/5/62 201/5/62
f 202/5/63 204/5/63 203/5/63
f 204/5/64 206/5/64 205/5/64
f 206/5/65 208/5/65 207/5/65
f 208/5/22 210/5/22 209/5/22
f 198/5/24 196/5/24 194/5/24
f 194/5/24 212/5/24 210/5/24
f 210/5/24 208/5/24 206/5/24
f 206/5/24 204/5/24 202/5/24
f 202/5/24 200/5/24 198/5/24
f 198/5/24 194/5/24 210/5/24
f 210/5/24 206/5/24 202/5/24
f 210/5/66 212/5/66 211/5/66
f 212/5/67 194/5/67 193/5/67
f 211/5/21 193/5/21 195/5/21
f 195/5/21 197/5/21 199/5/21
f 199/5/21 201/5/21 203/5/21
f 203/5/21 205/5/21 207/5/21
f 207/5/21 209/5/21 211/5/21
f 211/5/21 195/5/21 199/5/21
f 199/5/21 203/5/21 207/5/21
f 213/5/68 214/5/68 216/5/68
f 216/5/69 218/5/69 217/5/69
f 218/5/70 220/5/70 219/5/70
f 220/5/71 222/5/71 221/5/71
f 218/5/72 216/5/72 214/5/72
f 214/5/72 224/5/72 222/5/72
f 222/5/72 220/5/72 218/5/72
f 222/5/73 224/5/73 223/5/73
f 224/5/74 214/5/74 213/5/74
f 223/5/75 213/5/75 215/5/75
f 215/5/75 217/5/75 219/5/75
f 219/5/75 221/5/75 223/5/75
f 225/5/9 227/5/9 232/5/9
f 228/5/10 230/5/10 227/5/10
f 234/5/11 236/5/11 230/5/11
f 233/5/12 232/5/12 236/5/12
f 231/5/13 233/5/13 244/5/13
f 246/5/14 248/5/14 235/5/14
f 245/5/15 244/5/15 248/5/15
f 243/5/16 245/5/16 238/5/16
f 240/5/17 242/5/17 247/5/17
f 239/5/18 238/5/18 242/5/18
f 237/5/19 239/5/19 226/5/19
f 229/5/20 228/5/20 241/5/20
f 243/5/21 237/5/21 225/5/21
f 230/5/22 236/5/22 232/5/22
f 241/5/23 228/5/23 226/5/23
f 234/5/24 229/5/24 240/5/24
f 235/5/25 248/5/25 244/5/25
f 247/5/26 242/5/26 238/5/26
f 249/6/9 251/6/9 256/6/9
f 252/6/10 254/6/10 251/6/10
f 258/6/11 260/6/11 254/6/11
f 257/6/12 256/6/12 260/6/12
f 255/6/13 257/6/13 268/6/13
f 270/6/14 272/6/14 259/6/14
f 269/6/15 268/6/15 272/6/15
f 267/6/16 269/6/16 262/6/16
f 264/6/17 266/6/17 271/6/17
f 263/6/18 262/6/18 266/6/18
f 261/6/19 263/6/19 250/6/19
f 253/6/20 252/6/20 265/6/20
f 267/6/21 261/6/21 249/6/21
f 254/6/22 260/6/22 256/6/22
f 265/6/23 252/6/23 250/6/23
f 258/6/24 253/6/24 264/6/24
f 259/6/25 272/6/25 268/6/25
f 271/6/26 266/6/26 262/6/26
f 274/7/81 276/7/81 275/7/81
f 276/7/82 278/7/82 277/7/82
f 278/7/83 280/7/83 279/7/83
f 280/7/84 282/7/84 281/7/84
f 282/7/85 284/7/85 283/7/85
f 283/7/86 284/7/86 286/7/86
f 278/7/24 276/7/24 274/7/24
f 274/7/24 288/7/24 286/7/24
f 286/7/24 284/7/24 282/7/24
f 282/7/24 280/7/24 278/7/24
f 278/7/24 274/7/24 286/7/24
f 286/7/87 288/7/87 287/7/87
f 287/7/88 288/7/88 274/7/88
f 287/7/21 273/7/21 275/7/21
f 275/7/21 277/7/21 279/7/21
f 279/7/21 281/7/21 283/7/21
f 283/7/21 285/7/21 287/7/21
f 287/7/21 275/7/21 279/7/21
f 289/7/81 290/7/81 292/7/81
f 292/7/82 294/7/82 293/7/82
f 294/7/83 296/7/83 295/7/83
f 296/7/84 298/7/84 297/7/84
f 298/7/85 300/7/85 299/7/85
f 299/7/86 300/7/86 302/7/86
f 294/7/24 292/7/24 290/7/24
f 290/7/24 304/7/24 302/7/24
f 302/7/24 300/7/24 298/7/24
f 298/7/24 296/7/24 294/7/24
f 294/7/24 290/7/24 302/7/24
f 302/7/87 304/7/87 303/7/87
f 304/7/88 290/7/88 289/7/88
f 303/7/21 289/7/21 291/7/21
f 291/7/21 293/7/21 295/7/21
f 295/7/21 297/7/21 299/7/21
f 299/7/21 301/7/21 303/7/21
f 303/7/21 291/7/21 295/7/21
f 306/7/81 308/7/81 307/7/81
f 308/7/82 310/7/82 309/7/82
f 310/7/83 312/7/83 311/7/83
f 311/7/84 312/7/84 314/7/84
f 314/7/85 316/7/85 315/7/85
f 316/7/86 318/7/86 317/7/86
f 310/7/24 308/7/24 306/7/24
f 306/7/24 320/7/24 318/7/24
f 318/7/24 316/7/24 314/7/24
f 314/7/24 312/7/24 310/7/24
f 310/7/24 306/7/24 318/7/24
f 318/7/87 320/7/87 319/7/87
f 319/7/88 320/7/88 306/7/88
f 319/7/21 305/7/21 307/7/21
f 307/7/21 309/7/21 311/7/21
f 311/7/21 313/7/21 315/7/21
f 315/7/21 317/7/21 319/7/21
f 319/7/21 307/7/21 311/7/21
f 323/3/109 328/3/109 327/3/109
f 325/3/110 324/3/110 330/3/110
f 326/3/25 325/3/25 323/3/25
f 329/3/111 328/3/111 332/3/111
f 334/3/112 333/3/112 327/3/112
f 338/3/113 331/3/113 330/3/113
f 335/3/114 334/3/114 338/3/114
f 340/3/16 339/3/16 333/3/16
f 337/3/17 336/3/17 342/3/17
f 341/3/115 340/3/115 344/3/115
f 341/3/116 346/3/116 345/3/116
f 350/3/117 343/3/117 342/3/117
f 347/3/118 346/3/118 350/3/118
f 347/3/119 352/3/119 351/3/119
f 349/3/120 348/3/120 354/3/120
f 353/3/23 352/3/23 356/3/23
f 358/3/121 357/3/121 351/3/121
f 362/3/122 355/3/122 354/3/122
f 359/3/123 358/3/123 362/3/123
f 364/3/124 363/3/124 357/3/124
f 361/3/125 360/3/125 366/3/125
f 365/3/126 364/3/126 368/3/126
f 370/3/9 369/3/9 363/3/9
f 367/3/11 366/3/11 372/3/11
f 371/3/127 370/3/127 374/3/127
f 376/3/128 375/3/128 369/3/128
f 380/3/129 373/3/129 372/3/129
f 377/3/130 376/3/130 380/3/130
f 322/3/131 321/3/131 375/3/131
f 326/3/132 379/3/132 378/3/132
f 375/3/21 321/3/21 327/3/21
f 327/3/21 333/3/21 339/3/21
f 339/3/21 345/3/21 351/3/21
f 351/3/21 357/3/21 363/3/21
f 363/3/21 369/3/21 375/3/21
f 375/3/21 327/3/21 339/3/21
f 339/3/21 351/3/21 363/3/21
f 325/3/60 332/3/60 328/3/60
f 379/3/67 326/3/67 322/3/67
f 336/3/24 330/3/24 324/3/24
f 324/3/24 378/3/24 372/3/24
f 372/3/24 366/3/24 360/3/24
f 360/3/24 354/3/24 348/3/24
f 348/3/24 342/3/24 336/3/24
f 336/3/24 324/3/24 372/3/24
f 372/3/24 360/3/24 348/3/24
f 331/3/61 338/3/61 334/3/61
f 337/3/26 344/3/26 340/3/26
f 343/3/62 350/3/62 346/3/62
f 349/3/63 356/3/63 352/3/63
f 355/3/64 362/3/64 358/3/64
f 361/3/65 368/3/65 364/3/65
f 367/3/22 374/3/22 370/3/22
f 373/3/66 380/3/66 376/3/66
