# Blender 5.1.1
# www.blender.org
o mulut_gua
v -1.300000 -1.300000 0.150000
v -1.300000 1.300000 0.150000
v -1.300000 -1.300000 -0.150000
v -1.300000 1.300000 -0.150000
v 1.300000 -1.300000 0.150000
v 1.300000 1.300000 0.150000
v 1.300000 -1.300000 -0.150000
v 1.300000 1.300000 -0.150000
v 1.750000 -0.467500 0.300000
v 1.750000 -0.588297 0.009046
v 1.750000 -0.904547 -0.170773
v 1.750000 -1.295453 -0.170773
v 1.750000 -1.611703 0.009046
v 1.750000 -1.732500 0.300000
v 2.002752 -0.588297 0.118593
v 2.158961 -0.904547 0.006478
v 2.158961 -1.295453 0.006478
v 2.002752 -1.611703 0.118593
v 2.065176 -0.588297 0.364743
v 2.259966 -0.904547 0.404757
v 2.259966 -1.295453 0.404757
v 2.065176 -1.611703 0.364743
v 1.890267 -0.588297 0.562140
v 1.976956 -0.904547 0.724152
v 1.976956 -1.295453 0.724152
v 1.890267 -1.611703 0.562140
v 1.609733 -0.588297 0.562140
v 1.523044 -0.904547 0.724152
v 1.523044 -1.295453 0.724152
v 1.609733 -1.611703 0.562140
v 1.434824 -0.588297 0.364743
v 1.240034 -0.904547 0.404757
v 1.240034 -1.295453 0.404757
v 1.434824 -1.611703 0.364743
v 1.497248 -0.588297 0.118593
v 1.341039 -0.904547 0.006478
v 1.341039 -1.295453 0.006478
v 1.497248 -1.611703 0.118593
v 1.616789 0.489403 0.300000
v 1.616789 0.346644 -0.043854
v 1.616789 -0.027106 -0.256368
v 1.616789 -0.489087 -0.256368
v 1.616789 -0.862837 -0.043854
v 1.616789 -1.005596 0.300000
v 1.915496 0.346644 0.085610
v 2.100107 -0.027106 -0.046890
v 2.100107 -0.489087 -0.046890
v 1.915496 -0.862837 0.085610
v 1.989271 0.346644 0.376515
v 2.219477 -0.027106 0.423804
v 2.219477 -0.489087 0.423804
v 1.989271 -0.862837 0.376515
v 1.782559 0.346644 0.609802
v 1.885010 -0.027106 0.801270
v 1.885010 -0.489087 0.801270
v 1.782559 -0.862837 0.609802
v 1.451019 0.346644 0.609802
v 1.348568 -0.027106 0.801270
v 1.348568 -0.489087 0.801270
v 1.451019 -0.862837 0.609802
v 1.244308 0.346644 0.376515
v 1.014102 -0.027106 0.423804
v 1.014102 -0.489087 0.423804
v 1.244308 -0.862837 0.376515
v 1.318082 0.346644 0.085610
v 1.133471 -0.027106 -0.046890
v 1.133471 -0.489087 -0.046890
v 1.318082 -0.862837 0.085610
v 1.237437 1.318135 0.300000
v 1.237437 1.153412 -0.096755
v 1.237437 0.722162 -0.341963
v 1.237437 0.189108 -0.341963
v 1.237437 -0.242142 -0.096755
v 1.237437 -0.406865 0.300000
v 1.582099 1.153412 0.052627
v 1.795111 0.722162 -0.100257
v 1.795111 0.189108 -0.100257
v 1.582099 -0.242142 0.052627
v 1.667223 1.153412 0.388286
v 1.932846 0.722162 0.442850
v 1.932846 0.189108 0.442850
v 1.667223 -0.242142 0.388286
v 1.428710 1.153412 0.657464
v 1.546923 0.722162 0.878389
v 1.546923 0.189108 0.878389
v 1.428710 -0.242142 0.657464
v 1.046164 1.153412 0.657464
v 0.927951 0.722162 0.878389
v 0.927951 0.189108 0.878389
v 1.046164 -0.242142 0.657464
v 0.807651 1.153412 0.388286
v 0.542028 0.722162 0.442850
v 0.542028 0.189108 0.442850
v 0.807651 -0.242142 0.388286
v 0.892775 1.153412 0.052627
v 0.679762 0.722162 -0.100258
v 0.679762 0.189108 -0.100258
v 0.892775 -0.242142 0.052627
v 0.669696 1.565035 0.300000
v 0.669696 1.444238 0.009046
v 0.669696 1.127988 -0.170773
v 0.669696 0.737082 -0.170773
v 0.669696 0.420832 0.009046
v 0.669696 0.300035 0.300000
v 0.922448 1.444238 0.118593
v 1.078657 1.127988 0.006478
v 1.078657 0.737082 0.006478
v 0.922448 0.420832 0.118593
v 0.984873 1.444238 0.364743
v 1.179662 1.127988 0.404757
v 1.179662 0.737082 0.404757
v 0.984873 0.420832 0.364743
v 0.809963 1.444238 0.562140
v 0.896652 1.127988 0.724152
v 0.896652 0.737082 0.724152
v 0.809963 0.420832 0.562140
v 0.529429 1.444238 0.562140
v 0.442740 1.127988 0.724152
v 0.442740 0.737082 0.724152
v 0.529429 0.420832 0.562140
v 0.354519 1.444238 0.364743
v 0.159730 1.127988 0.404757
v 0.159730 0.737082 0.404757
v 0.354519 0.420832 0.364743
v 0.416944 1.444238 0.118593
v 0.260735 1.127988 0.006478
v 0.260735 0.737082 0.006478
v 0.416944 0.420832 0.118593
v 0.000000 1.847500 0.300000
v 0.000000 1.704740 -0.043854
v 0.000000 1.330990 -0.256368
v 0.000000 0.869010 -0.256368
v 0.000000 0.495260 -0.043854
v 0.000000 0.352500 0.300000
v 0.298707 1.704740 0.085610
v 0.483318 1.330990 -0.046890
v 0.483318 0.869010 -0.046890
v 0.298707 0.495260 0.085610
v 0.372481 1.704740 0.376515
v 0.602687 1.330990 0.423804
v 0.602687 0.869010 0.423804
v 0.372481 0.495260 0.376515
v 0.165770 1.704740 0.609802
v 0.268221 1.330990 0.801270
v 0.268221 0.869010 0.801270
v 0.165770 0.495260 0.609802
v -0.165770 1.704740 0.609802
v -0.268221 1.330990 0.801270
v -0.268221 0.869010 0.801270
v -0.165770 0.495260 0.609802
v -0.372481 1.704740 0.376515
v -0.602688 1.330990 0.423804
v -0.602688 0.869010 0.423804
v -0.372481 0.495260 0.376515
v -0.298707 1.704740 0.085610
v -0.483318 1.330990 -0.046890
v -0.483318 0.869010 -0.046890
v -0.298707 0.495260 0.085610
v -0.669696 1.795035 0.300000
v -0.669696 1.630312 -0.096755
v -0.669696 1.199062 -0.341963
v -0.669696 0.666008 -0.341963
v -0.669696 0.234758 -0.096755
v -0.669696 0.070035 0.300000
v -0.325034 1.630312 0.052627
v -0.112022 1.199062 -0.100257
v -0.112022 0.666008 -0.100257
v -0.325034 0.234758 0.052627
v -0.239910 1.630312 0.388286
v 0.025713 1.199062 0.442850
v 0.025713 0.666008 0.442850
v -0.239910 0.234758 0.388286
v -0.478423 1.630312 0.657464
v -0.360210 1.199062 0.878389
v -0.360210 0.666008 0.878389
v -0.478423 0.234758 0.657464
v -0.860969 1.630312 0.657464
v -0.979182 1.199062 0.878389
v -0.979182 0.666008 0.878389
v -0.860969 0.234758 0.657464
v -1.099482 1.630312 0.388286
v -1.365105 1.199062 0.442850
v -1.365105 0.666008 0.442850
v -1.099482 0.234758 0.388286
v -1.014358 1.630312 0.052627
v -1.227371 1.199062 -0.100258
v -1.227371 0.666008 -0.100258
v -1.014358 0.234758 0.052627
v -1.237437 1.088135 0.300000
v -1.237437 0.967338 0.009046
v -1.237437 0.651088 -0.170773
v -1.237437 0.260182 -0.170773
v -1.237437 -0.056068 0.009046
v -1.237437 -0.176865 0.300000
v -0.984685 0.967338 0.118593
v -0.828476 0.651088 0.006478
v -0.828476 0.260182 0.006478
v -0.984685 -0.056068 0.118593
v -0.922260 0.967338 0.364743
v -0.727471 0.651088 0.404757
v -0.727471 0.260182 0.404757
v -0.922260 -0.056068 0.364743
v -1.097170 0.967338 0.562140
v -1.010481 0.651088 0.724152
v -1.010481 0.260182 0.724152
v -1.097170 -0.056068 0.562140
v -1.377704 0.967338 0.562140
v -1.464393 0.651088 0.724152
v -1.464393 0.260182 0.724152
v -1.377704 -0.056068 0.562140
v -1.552613 0.967338 0.364743
v -1.747403 0.651088 0.404757
v -1.747403 0.260182 0.404757
v -1.552613 -0.056068 0.364743
v -1.490189 0.967338 0.118593
v -1.646398 0.651088 0.006478
v -1.646398 0.260182 0.006478
v -1.490189 -0.056068 0.118593
v -1.616789 0.489403 0.300000
v -1.616789 0.346644 -0.043854
v -1.616789 -0.027106 -0.256368
v -1.616789 -0.489087 -0.256368
v -1.616789 -0.862837 -0.043854
v -1.616789 -1.005596 0.300000
v -1.318082 0.346644 0.085610
v -1.133471 -0.027106 -0.046890
v -1.133471 -0.489087 -0.046890
v -1.318082 -0.862837 0.085610
v -1.244308 0.346644 0.376515
v -1.014102 -0.027106 0.423804
v -1.014102 -0.489087 0.423804
v -1.244308 -0.862837 0.376515
v -1.451019 0.346644 0.609802
v -1.348568 -0.027106 0.801270
v -1.348568 -0.489087 0.801270
v -1.451019 -0.862837 0.609802
v -1.782559 0.346644 0.609802
v -1.885010 -0.027106 0.801270
v -1.885010 -0.489087 0.801270
v -1.782559 -0.862837 0.609802
v -1.989271 0.346644 0.376515
v -2.219477 -0.027106 0.423804
v -2.219477 -0.489087 0.423804
v -1.989271 -0.862837 0.376515
v -1.915496 0.346644 0.085610
v -2.100107 -0.027106 -0.046890
v -2.100107 -0.489087 -0.046890
v -1.915496 -0.862837 0.085610
v -1.750000 -0.237500 0.300000
v -1.750000 -0.402223 -0.096755
v -1.750000 -0.833473 -0.341963
v -1.750000 -1.366527 -0.341963
v -1.750000 -1.797777 -0.096755
v -1.750000 -1.962500 0.300000
v -1.405338 -0.402223 0.052627
v -1.192326 -0.833473 -0.100257
v -1.192326 -1.366527 -0.100257
v -1.405338 -1.797777 0.052627
v -1.320214 -0.402223 0.388286
v -1.054591 -0.833473 0.442850
v -1.054591 -1.366527 0.442850
v -1.320214 -1.797777 0.388286
v -1.558727 -0.402223 0.657464
v -1.440514 -0.833473 0.878389
v -1.440514 -1.366527 0.878389
v -1.558727 -1.797777 0.657464
v -1.941273 -0.402223 0.657464
v -2.059486 -0.833473 0.878389
v -2.059486 -1.366527 0.878389
v -1.941273 -1.797777 0.657464
v -2.179786 -0.402223 0.388286
v -2.445409 -0.833473 0.442850
v -2.445409 -1.366527 0.442850
v -2.179786 -1.797777 0.388286
v -2.094662 -0.402223 0.052627
v -2.307674 -0.833473 -0.100258
v -2.307674 -1.366527 -0.100258
v -2.094662 -1.797777 0.052627
v -2.318364 -1.300000 0.688449
v -2.324757 -1.220000 0.768193
v -2.398108 -1.220000 0.682055
v -2.324757 0.420000 0.768193
v -2.318364 0.500000 0.688449
v -2.398108 0.420000 0.682055
v -2.219270 -1.300000 -0.547585
v -2.299014 -1.220000 -0.553979
v -2.212876 -1.220000 -0.627330
v -2.219270 0.500000 -0.547585
v -2.212876 0.420000 -0.627330
v -2.299014 0.420000 -0.553979
v -1.580730 -1.300000 0.747586
v -1.500986 -1.220000 0.753979
v -1.587124 -1.220000 0.827330
v -1.580730 0.500000 0.747586
v -1.587124 0.420000 0.827330
v -1.500986 0.420000 0.753979
v -1.481636 -1.300000 -0.488449
v -1.475243 -1.220000 -0.568193
v -1.401892 -1.220000 -0.482055
v -1.481636 0.500000 -0.488449
v -1.401892 0.420000 -0.482055
v -1.475243 0.420000 -0.568193
v 1.580730 -1.300000 0.747586
v 1.587124 -1.220000 0.827330
v 1.500986 -1.220000 0.753979
v 1.587124 0.420000 0.827330
v 1.580730 0.500000 0.747586
v 1.500986 0.420000 0.753979
v 1.481636 -1.300000 -0.488449
v 1.401892 -1.220000 -0.482055
v 1.475243 -1.220000 -0.568193
v 1.481636 0.500000 -0.488449
v 1.475243 0.420000 -0.568193
v 1.401892 0.420000 -0.482055
v 2.318364 -1.300000 0.688449
v 2.398108 -1.220000 0.682055
v 2.324757 -1.220000 0.768193
v 2.318364 0.500000 0.688449
v 2.324757 0.420000 0.768193
v 2.398108 0.420000 0.682055
v 2.219270 -1.300000 -0.547585
v 2.212876 -1.220000 -0.627330
v 2.299014 -1.220000 -0.553979
v 2.219270 0.500000 -0.547585
v 2.299014 0.420000 -0.553979
v 2.212876 0.420000 -0.627330
v -2.150000 1.100000 0.650000
v -2.150000 1.250000 0.800000
v -2.300000 1.250000 0.650000
v -2.150000 1.950000 0.800000
v -2.150000 2.100000 0.650000
v -2.300000 1.950000 0.650000
v -2.150000 1.100000 -0.450000
v -2.300000 1.250000 -0.450000
v -2.150000 1.250000 -0.600000
v -2.150000 2.100000 -0.450000
v -2.150000 1.950000 -0.600000
v -2.300000 1.950000 -0.450000
v 2.150000 1.100000 0.650000
v 2.300000 1.250000 0.650000
v 2.150000 1.250000 0.800000
v 2.150000 2.100000 0.650000
v 2.150000 1.950000 0.800000
v 2.300000 1.950000 0.650000
v 2.150000 1.100000 -0.450000
v 2.150000 1.250000 -0.600000
v 2.300000 1.250000 -0.450000
v 2.150000 2.100000 -0.450000
v 2.300000 1.950000 -0.450000
v 2.150000 1.950000 -0.600000
v -1.400000 1.800000 0.700000
v -1.275000 1.967627 0.912606
v -1.400000 2.205278 1.142436
v -1.525000 1.967627 0.912606
v -1.525000 1.970577 0.909904
v -1.400000 2.208227 1.139735
v -1.275000 1.970577 0.909904
v -1.400000 1.802950 0.697298
v -0.700000 1.800000 0.700000
v -0.455759 1.967627 0.734242
v -0.353428 2.205278 0.975023
v -0.611162 1.967627 0.930074
v -0.613278 1.970577 0.928394
v -0.355544 2.208227 0.973343
v -0.457875 1.970577 0.732562
v -0.702116 1.802950 0.698321
v 0.000000 1.800000 0.700000
v 0.178645 1.967627 0.529965
v 0.430866 2.205278 0.599478
v 0.235446 1.967627 0.773427
v 0.232815 1.970577 0.774040
v 0.428234 2.208227 0.600091
v 0.176014 1.970577 0.530578
v -0.002631 1.802950 0.700614
v 0.700000 1.800000 0.700000
v 0.677854 1.967627 0.454367
v 0.889088 2.205278 0.300006
v 0.903872 1.967627 0.561212
v 0.902718 1.970577 0.563654
v 0.887934 2.208227 0.302448
v 0.676700 1.970577 0.456809
v 0.698845 1.802950 0.702443
v 1.400000 1.800000 0.700000
v 1.193823 1.967627 0.564659
v 1.204213 2.205278 0.303242
v 1.418012 1.967627 0.454029
v 1.419208 1.970577 0.456452
v 1.205409 2.208227 0.305664
v 1.195019 1.970577 0.567082
v 1.401196 1.802950 0.702423
v -2.400000 -1.300000 0.960000
v -2.400000 0.000000 0.960000
v -2.365359 -1.300000 0.980000
v -2.365359 0.000000 0.980000
v -2.365359 -1.300000 1.020000
v -2.365359 0.000000 1.020000
v -2.400000 -1.300000 1.040000
v -2.400000 0.000000 1.040000
v -2.434641 -1.300000 1.020000
v -2.434641 0.000000 1.020000
v -2.434641 -1.300000 0.980000
v -2.434641 0.000000 0.980000
v -2.400000 -0.000000 0.910000
v -2.400000 0.150000 0.880000
v -2.336360 -0.000000 0.936360
v -2.315147 0.150000 0.915147
v -2.310000 -0.000000 1.000000
v -2.280000 0.150000 1.000000
v -2.336360 -0.000000 1.063640
v -2.315147 0.150000 1.084853
v -2.400000 -0.000000 1.090000
v -2.400000 0.150000 1.120000
v -2.463640 -0.000000 1.063640
v -2.484853 0.150000 1.084853
v -2.490000 -0.000000 1.000000
v -2.520000 0.150000 1.000000
v -2.463640 -0.000000 0.936360
v -2.484853 0.150000 0.915147
v -2.400000 0.120000 0.920000
v -2.330718 0.120000 0.960000
v -2.330718 0.120000 1.040000
v -2.400000 0.120000 1.080000
v -2.469282 0.120000 1.040000
v -2.469282 0.120000 0.960000
v -2.400000 0.370000 1.000000
v 2.400000 -1.300000 0.960000
v 2.400000 0.000000 0.960000
v 2.434641 -1.300000 0.980000
v 2.434641 0.000000 0.980000
v 2.434641 -1.300000 1.020000
v 2.434641 0.000000 1.020000
v 2.400000 -1.300000 1.040000
v 2.400000 0.000000 1.040000
v 2.365359 -1.300000 1.020000
v 2.365359 0.000000 1.020000
v 2.365359 -1.300000 0.980000
v 2.365359 0.000000 0.980000
v 2.400000 -0.000000 0.910000
v 2.400000 0.150000 0.880000
v 2.463640 -0.000000 0.936360
v 2.484853 0.150000 0.915147
v 2.490000 -0.000000 1.000000
v 2.520000 0.150000 1.000000
v 2.463640 -0.000000 1.063640
v 2.484853 0.150000 1.084853
v 2.400000 -0.000000 1.090000
v 2.400000 0.150000 1.120000
v 2.336360 -0.000000 1.063640
v 2.315147 0.150000 1.084853
v 2.310000 -0.000000 1.000000
v 2.280000 0.150000 1.000000
v 2.336360 -0.000000 0.936360
v 2.315147 0.150000 0.915147
v 2.400000 0.120000 0.920000
v 2.469282 0.120000 0.960000
v 2.469282 0.120000 1.040000
v 2.400000 0.120000 1.080000
v 2.330718 0.120000 1.040000
v 2.330718 0.120000 0.960000
v 2.400000 0.370000 1.000000
vn -1.0000 -0.0000 -0.0000
vn -0.0000 -0.0000 -1.0000
vn 1.0000 -0.0000 -0.0000
vn -0.0000 -0.0000 1.0000
vn -0.0000 -1.0000 -0.0000
vn -0.0000 1.0000 -0.0000
vn 0.3977 -0.0000 -0.9175
vn 0.1639 0.9111 -0.3783
vn 0.3526 -0.4625 -0.8135
vn 0.3526 0.4625 -0.8135
vn 0.1639 -0.9111 -0.3783
vn 0.3732 -0.9229 -0.0946
vn 0.9693 -0.0000 -0.2458
vn 0.3732 0.9229 -0.0946
vn 0.8436 -0.4925 -0.2139
vn 0.8436 0.4925 -0.2139
vn 0.2975 -0.9176 0.2636
vn 0.7485 -0.0000 0.6632
vn 0.2975 0.9176 0.2636
vn 0.6572 -0.4785 0.5823
vn 0.6572 0.4785 0.5823
vn -0.0000 -0.9082 0.4185
vn -0.0000 0.9082 0.4185
vn -0.0000 -0.4559 0.8900
vn -0.0000 0.4559 0.8900
vn -0.2975 -0.9176 0.2636
vn -0.7485 -0.0000 0.6632
vn -0.2975 0.9176 0.2636
vn -0.6572 -0.4785 0.5823
vn -0.6572 0.4785 0.5823
vn -0.3732 -0.9229 -0.0946
vn -0.9693 -0.0000 -0.2458
vn -0.3732 0.9229 -0.0946
vn -0.8436 -0.4925 -0.2139
vn -0.8436 0.4925 -0.2139
vn -0.1639 -0.9111 -0.3783
vn -0.3977 -0.0000 -0.9175
vn -0.1639 0.9111 -0.3783
vn -0.3526 -0.4625 -0.8135
vn -0.3526 0.4625 -0.8135
vn -0.6216 -0.5774 0.5294
vn -0.6216 0.5774 0.5294
vn -0.5294 -0.5774 -0.6216
vn -0.5294 0.5774 -0.6216
vn 0.5294 -0.5774 0.6216
vn 0.5294 0.5773 0.6216
vn 0.6216 -0.5774 -0.5294
vn 0.6216 0.5774 -0.5294
vn -0.7048 -0.7071 -0.0565
vn -0.7614 -0.0000 0.6483
vn -0.7048 0.7071 -0.0565
vn -0.6483 -0.0000 -0.7614
vn 0.0565 -0.7071 -0.7048
vn 0.0565 0.7071 -0.7048
vn 0.7614 -0.0000 -0.6483
vn 0.7048 -0.7071 0.0565
vn 0.7048 0.7071 0.0565
vn 0.6483 -0.0000 0.7614
vn -0.0565 -0.7071 0.7048
vn -0.0565 0.7071 0.7048
vn -0.9968 -0.0000 -0.0799
vn -0.0799 -0.0000 0.9968
vn 0.0799 -0.0000 -0.9968
vn 0.9968 -0.0000 0.0799
vn -0.5294 -0.5774 0.6216
vn -0.5294 0.5773 0.6216
vn -0.6216 -0.5774 -0.5294
vn -0.6216 0.5774 -0.5294
vn 0.6216 -0.5774 0.5294
vn 0.6216 0.5774 0.5294
vn 0.5294 -0.5774 -0.6216
vn 0.5294 0.5774 -0.6216
vn -0.7048 -0.7071 0.0565
vn -0.6483 -0.0000 0.7614
vn -0.7048 0.7071 0.0565
vn -0.7614 -0.0000 -0.6483
vn -0.0565 -0.7071 -0.7048
vn -0.0565 0.7071 -0.7048
vn 0.6483 -0.0000 -0.7614
vn 0.7048 -0.7071 -0.0565
vn 0.7048 0.7071 -0.0565
vn 0.7614 -0.0000 0.6483
vn 0.0565 -0.7071 0.7048
vn 0.0565 0.7071 0.7048
vn -0.9968 -0.0000 0.0799
vn 0.0799 -0.0000 0.9968
vn -0.0799 -0.0000 -0.9968
vn 0.9968 -0.0000 -0.0799
vn -0.5773 -0.5774 0.5773
vn -0.5773 0.5774 0.5773
vn -0.5773 -0.5774 -0.5773
vn -0.5773 0.5774 -0.5773
vn 0.5773 -0.5774 0.5773
vn 0.5773 0.5774 0.5773
vn 0.5773 -0.5774 -0.5773
vn 0.5773 0.5774 -0.5773
vn -0.7071 -0.7071 -0.0000
vn -0.7071 -0.0000 0.7071
vn -0.7071 0.7071 -0.0000
vn -0.7071 -0.0000 -0.7071
vn -0.0000 -0.7071 -0.7071
vn -0.0000 0.7071 -0.7071
vn 0.7071 -0.0000 -0.7071
vn 0.7071 -0.7071 -0.0000
vn 0.7071 0.7071 -0.0000
vn 0.7071 -0.0000 0.7071
vn -0.0000 -0.7071 0.7071
vn -0.0000 0.7071 0.7071
vn -0.0000 -0.7853 0.6191
vn -0.0000 0.7853 -0.6191
vn 0.4850 -0.7853 0.3849
vn -0.4850 0.7853 -0.3849
vn 0.6030 -0.7853 -0.1407
vn -0.6030 0.7853 0.1407
vn 0.2646 -0.7853 -0.5598
vn -0.2646 0.7853 0.5598
vn -0.2740 -0.7853 -0.5552
vn 0.2740 0.7853 0.5552
vn 0.5000 -0.0000 -0.8660
vn 0.5000 -0.0000 0.8660
vn -0.5000 -0.0000 0.8660
vn -0.5000 -0.0000 -0.8660
vn 0.3763 -0.1817 -0.9085
vn 0.9085 -0.1817 -0.3763
vn 0.9085 -0.1817 0.3763
vn 0.3763 -0.1817 0.9085
vn -0.3763 -0.1817 0.9085
vn -0.9085 -0.1817 0.3763
vn -0.9085 -0.1817 -0.3763
vn -0.3763 -0.1817 -0.9085
vn 0.4818 0.2671 -0.8346
vn 0.9637 0.2671 -0.0000
vn 0.4818 0.2671 0.8346
vn -0.4818 0.2671 0.8346
vn -0.9637 0.2671 -0.0000
vn -0.4818 0.2671 -0.8346
vn -0.0000 -0.6952 0.7188
vn -0.0000 0.6952 -0.7188
vn 0.5631 -0.6952 0.4468
vn -0.5631 0.6952 -0.4468
vn 0.7000 -0.6952 -0.1633
vn -0.7000 0.6952 0.1633
vn 0.3072 -0.6952 -0.6499
vn -0.3072 0.6952 0.6499
vn -0.3181 -0.6952 -0.6446
vn 0.3181 0.6952 0.6446
vt 0.968750 0.906250
vt 0.218750 0.906250
vt 0.281250 0.906250
vt 0.531250 0.906250
vt 0.593750 0.906250
vt 0.031250 0.968750
vt 0.781250 0.968750
vt 0.406250 0.906250
s 0
f 2/1/1 3/1/1 1/1/1
f 4/1/2 7/1/2 3/1/2
f 8/1/3 5/1/3 7/1/3
f 6/1/4 1/1/4 5/1/4
f 7/1/5 1/1/5 3/1/5
f 4/1/6 6/1/6 8/1/6
f 11/2/7 17/2/7 12/2/7
f 10/2/8 9/2/8 15/2/8
f 12/2/9 18/2/9 13/2/9
f 11/2/10 15/2/10 16/2/10
f 14/2/11 13/2/11 18/2/11
f 14/2/12 18/2/12 22/2/12
f 16/2/13 21/2/13 17/2/13
f 15/2/14 9/2/14 19/2/14
f 17/2/15 22/2/15 18/2/15
f 16/2/16 19/2/16 20/2/16
f 14/2/17 22/2/17 26/2/17
f 20/2/18 25/2/18 21/2/18
f 19/2/19 9/2/19 23/2/19
f 22/2/20 25/2/20 26/2/20
f 19/2/21 24/2/21 20/2/21
f 14/2/22 26/2/22 30/2/22
f 24/2/4 29/2/4 25/2/4
f 23/2/23 9/2/23 27/2/23
f 25/2/24 30/2/24 26/2/24
f 23/2/25 28/2/25 24/2/25
f 14/2/26 30/2/26 34/2/26
f 28/2/27 33/2/27 29/2/27
f 27/2/28 9/2/28 31/2/28
f 29/2/29 34/2/29 30/2/29
f 28/2/30 31/2/30 32/2/30
f 14/2/31 34/2/31 38/2/31
f 32/2/32 37/2/32 33/2/32
f 31/2/33 9/2/33 35/2/33
f 34/2/34 37/2/34 38/2/34
f 31/2/35 36/2/35 32/2/35
f 14/2/36 38/2/36 13/2/36
f 36/2/37 12/2/37 37/2/37
f 35/2/38 9/2/38 10/2/38
f 38/2/39 12/2/39 13/2/39
f 35/2/40 11/2/40 36/2/40
f 44/3/11 43/3/11 48/3/11
f 41/3/7 47/3/7 42/3/7
f 40/3/8 39/3/8 45/3/8
f 42/3/9 48/3/9 43/3/9
f 41/3/10 45/3/10 46/3/10
f 46/3/16 49/3/16 50/3/16
f 44/3/12 48/3/12 52/3/12
f 46/3/13 51/3/13 47/3/13
f 45/3/14 39/3/14 49/3/14
f 47/3/15 52/3/15 48/3/15
f 49/3/21 54/3/21 50/3/21
f 44/3/17 52/3/17 56/3/17
f 50/3/18 55/3/18 51/3/18
f 49/3/19 39/3/19 53/3/19
f 52/3/20 55/3/20 56/3/20
f 54/3/25 57/3/25 58/3/25
f 44/3/22 56/3/22 60/3/22
f 54/3/4 59/3/4 55/3/4
f 53/3/23 39/3/23 57/3/23
f 55/3/24 60/3/24 56/3/24
f 58/3/30 61/3/30 62/3/30
f 44/3/26 60/3/26 64/3/26
f 58/3/27 63/3/27 59/3/27
f 57/3/28 39/3/28 61/3/28
f 59/3/29 64/3/29 60/3/29
f 61/3/35 66/3/35 62/3/35
f 44/3/31 64/3/31 68/3/31
f 62/3/32 67/3/32 63/3/32
f 61/3/33 39/3/33 65/3/33
f 64/3/34 67/3/34 68/3/34
f 65/3/40 41/3/40 66/3/40
f 44/3/36 68/3/36 43/3/36
f 66/3/37 42/3/37 67/3/37
f 65/3/38 39/3/38 40/3/38
f 68/3/39 42/3/39 43/3/39
f 72/2/9 78/2/9 73/2/9
f 71/2/10 75/2/10 76/2/10
f 74/2/11 73/2/11 78/2/11
f 71/2/7 77/2/7 72/2/7
f 70/2/8 69/2/8 75/2/8
f 77/2/15 82/2/15 78/2/15
f 76/2/16 79/2/16 80/2/16
f 74/2/12 78/2/12 82/2/12
f 76/2/13 81/2/13 77/2/13
f 75/2/14 69/2/14 79/2/14
f 82/2/20 85/2/20 86/2/20
f 79/2/21 84/2/21 80/2/21
f 74/2/17 82/2/17 86/2/17
f 80/2/18 85/2/18 81/2/18
f 79/2/19 69/2/19 83/2/19
f 85/2/24 90/2/24 86/2/24
f 83/2/25 88/2/25 84/2/25
f 74/2/22 86/2/22 90/2/22
f 84/2/4 89/2/4 85/2/4
f 83/2/23 69/2/23 87/2/23
f 89/2/29 94/2/29 90/2/29
f 88/2/30 91/2/30 92/2/30
f 74/2/26 90/2/26 94/2/26
f 88/2/27 93/2/27 89/2/27
f 87/2/28 69/2/28 91/2/28
f 94/2/34 97/2/34 98/2/34
f 91/2/35 96/2/35 92/2/35
f 74/2/31 94/2/31 98/2/31
f 92/2/32 97/2/32 93/2/32
f 91/2/33 69/2/33 95/2/33
f 98/2/39 72/2/39 73/2/39
f 95/2/40 71/2/40 96/2/40
f 74/2/36 98/2/36 73/2/36
f 96/2/37 72/2/37 97/2/37
f 95/2/38 69/2/38 70/2/38
f 100/3/8 99/3/8 105/3/8
f 102/3/9 108/3/9 103/3/9
f 101/3/10 105/3/10 106/3/10
f 104/3/11 103/3/11 108/3/11
f 101/3/7 107/3/7 102/3/7
f 104/3/12 108/3/12 112/3/12
f 106/3/13 111/3/13 107/3/13
f 105/3/14 99/3/14 109/3/14
f 107/3/15 112/3/15 108/3/15
f 106/3/16 109/3/16 110/3/16
f 104/3/17 112/3/17 116/3/17
f 110/3/18 115/3/18 111/3/18
f 109/3/19 99/3/19 113/3/19
f 112/3/20 115/3/20 116/3/20
f 109/3/21 114/3/21 110/3/21
f 104/3/22 116/3/22 120/3/22
f 114/3/4 119/3/4 115/3/4
f 113/3/23 99/3/23 117/3/23
f 115/3/24 120/3/24 116/3/24
f 113/3/25 118/3/25 114/3/25
f 104/3/26 120/3/26 124/3/26
f 118/3/27 123/3/27 119/3/27
f 117/3/28 99/3/28 121/3/28
f 119/3/29 124/3/29 120/3/29
f 118/3/30 121/3/30 122/3/30
f 104/3/31 124/3/31 128/3/31
f 122/3/32 127/3/32 123/3/32
f 121/3/33 99/3/33 125/3/33
f 124/3/34 127/3/34 128/3/34
f 121/3/35 126/3/35 122/3/35
f 104/3/36 128/3/36 103/3/36
f 126/3/37 102/3/37 127/3/37
f 125/3/38 99/3/38 100/3/38
f 128/3/39 102/3/39 103/3/39
f 125/3/40 101/3/40 126/3/40
f 134/2/11 133/2/11 138/2/11
f 131/2/7 137/2/7 132/2/7
f 130/2/8 129/2/8 135/2/8
f 132/2/9 138/2/9 133/2/9
f 131/2/10 135/2/10 136/2/10
f 137/2/15 142/2/15 138/2/15
f 136/2/16 139/2/16 140/2/16
f 134/2/12 138/2/12 142/2/12
f 136/2/13 141/2/13 137/2/13
f 135/2/14 129/2/14 139/2/14
f 142/2/20 145/2/20 146/2/20
f 139/2/21 144/2/21 140/2/21
f 134/2/17 142/2/17 146/2/17
f 140/2/18 145/2/18 141/2/18
f 139/2/19 129/2/19 143/2/19
f 145/2/24 150/2/24 146/2/24
f 144/2/25 147/2/25 148/2/25
f 134/2/22 146/2/22 150/2/22
f 144/2/4 149/2/4 145/2/4
f 143/2/23 129/2/23 147/2/23
f 149/2/29 154/2/29 150/2/29
f 148/2/30 151/2/30 152/2/30
f 134/2/26 150/2/26 154/2/26
f 148/2/27 153/2/27 149/2/27
f 147/2/28 129/2/28 151/2/28
f 154/2/34 157/2/34 158/2/34
f 151/2/35 156/2/35 152/2/35
f 134/2/31 154/2/31 158/2/31
f 152/2/32 157/2/32 153/2/32
f 151/2/33 129/2/33 155/2/33
f 158/2/39 132/2/39 133/2/39
f 155/2/40 131/2/40 156/2/40
f 134/2/36 158/2/36 133/2/36
f 156/2/37 132/2/37 157/2/37
f 155/2/38 129/2/38 130/2/38
f 162/3/9 168/3/9 163/3/9
f 161/3/10 165/3/10 166/3/10
f 164/3/11 163/3/11 168/3/11
f 161/3/7 167/3/7 162/3/7
f 160/3/8 159/3/8 165/3/8
f 165/3/14 159/3/14 169/3/14
f 167/3/15 172/3/15 168/3/15
f 166/3/16 169/3/16 170/3/16
f 164/3/12 168/3/12 172/3/12
f 166/3/13 171/3/13 167/3/13
f 169/3/19 159/3/19 173/3/19
f 172/3/20 175/3/20 176/3/20
f 169/3/21 174/3/21 170/3/21
f 164/3/17 172/3/17 176/3/17
f 170/3/18 175/3/18 171/3/18
f 173/3/23 159/3/23 177/3/23
f 175/3/24 180/3/24 176/3/24
f 173/3/25 178/3/25 174/3/25
f 164/3/22 176/3/22 180/3/22
f 174/3/4 179/3/4 175/3/4
f 177/3/28 159/3/28 181/3/28
f 179/3/29 184/3/29 180/3/29
f 178/3/30 181/3/30 182/3/30
f 164/3/26 180/3/26 184/3/26
f 178/3/27 183/3/27 179/3/27
f 181/3/33 159/3/33 185/3/33
f 184/3/34 187/3/34 188/3/34
f 181/3/35 186/3/35 182/3/35
f 164/3/31 184/3/31 188/3/31
f 182/3/32 187/3/32 183/3/32
f 185/3/38 159/3/38 160/3/38
f 188/3/39 162/3/39 163/3/39
f 185/3/40 161/3/40 186/3/40
f 164/3/36 188/3/36 163/3/36
f 186/3/37 162/3/37 187/3/37
f 191/2/7 197/2/7 192/2/7
f 190/2/8 189/2/8 195/2/8
f 192/2/9 198/2/9 193/2/9
f 191/2/10 195/2/10 196/2/10
f 194/2/11 193/2/11 198/2/11
f 194/2/12 198/2/12 202/2/12
f 196/2/13 201/2/13 197/2/13
f 195/2/14 189/2/14 199/2/14
f 197/2/15 202/2/15 198/2/15
f 196/2/16 199/2/16 200/2/16
f 194/2/17 202/2/17 206/2/17
f 200/2/18 205/2/18 201/2/18
f 199/2/19 189/2/19 203/2/19
f 202/2/20 205/2/20 206/2/20
f 199/2/21 204/2/21 200/2/21
f 194/2/22 206/2/22 210/2/22
f 204/2/4 209/2/4 205/2/4
f 203/2/23 189/2/23 207/2/23
f 205/2/24 210/2/24 206/2/24
f 204/2/25 207/2/25 208/2/25
f 194/2/26 210/2/26 214/2/26
f 208/2/27 213/2/27 209/2/27
f 207/2/28 189/2/28 211/2/28
f 209/2/29 214/2/29 210/2/29
f 208/2/30 211/2/30 212/2/30
f 194/2/31 214/2/31 218/2/31
f 212/2/32 217/2/32 213/2/32
f 211/2/33 189/2/33 215/2/33
f 214/2/34 217/2/34 218/2/34
f 211/2/35 216/2/35 212/2/35
f 194/2/36 218/2/36 193/2/36
f 216/2/37 192/2/37 217/2/37
f 215/2/38 189/2/38 190/2/38
f 218/2/39 192/2/39 193/2/39
f 215/2/40 191/2/40 216/2/40
f 224/3/11 223/3/11 228/3/11
f 221/3/7 227/3/7 222/3/7
f 220/3/8 219/3/8 225/3/8
f 222/3/9 228/3/9 223/3/9
f 221/3/10 225/3/10 226/3/10
f 226/3/16 229/3/16 230/3/16
f 224/3/12 228/3/12 232/3/12
f 226/3/13 231/3/13 227/3/13
f 225/3/14 219/3/14 229/3/14
f 227/3/15 232/3/15 228/3/15
f 229/3/21 234/3/21 230/3/21
f 224/3/17 232/3/17 236/3/17
f 230/3/18 235/3/18 231/3/18
f 229/3/19 219/3/19 233/3/19
f 232/3/20 235/3/20 236/3/20
f 234/3/25 237/3/25 238/3/25
f 224/3/22 236/3/22 240/3/22
f 234/3/4 239/3/4 235/3/4
f 233/3/23 219/3/23 237/3/23
f 235/3/24 240/3/24 236/3/24
f 238/3/30 241/3/30 242/3/30
f 224/3/26 240/3/26 244/3/26
f 238/3/27 243/3/27 239/3/27
f 237/3/28 219/3/28 241/3/28
f 239/3/29 244/3/29 240/3/29
f 241/3/35 246/3/35 242/3/35
f 224/3/31 244/3/31 248/3/31
f 242/3/32 247/3/32 243/3/32
f 241/3/33 219/3/33 245/3/33
f 244/3/34 247/3/34 248/3/34
f 245/3/40 221/3/40 246/3/40
f 224/3/36 248/3/36 223/3/36
f 246/3/37 222/3/37 247/3/37
f 245/3/38 219/3/38 220/3/38
f 248/3/39 222/3/39 223/3/39
f 252/2/9 258/2/9 253/2/9
f 251/2/10 255/2/10 256/2/10
f 254/2/11 253/2/11 258/2/11
f 251/2/7 257/2/7 252/2/7
f 250/2/8 249/2/8 255/2/8
f 257/2/15 262/2/15 258/2/15
f 256/2/16 259/2/16 260/2/16
f 254/2/12 258/2/12 262/2/12
f 256/2/13 261/2/13 257/2/13
f 255/2/14 249/2/14 259/2/14
f 262/2/20 265/2/20 266/2/20
f 259/2/21 264/2/21 260/2/21
f 254/2/17 262/2/17 266/2/17
f 260/2/18 265/2/18 261/2/18
f 259/2/19 249/2/19 263/2/19
f 266/2/24 269/2/24 270/2/24
f 263/2/25 268/2/25 264/2/25
f 254/2/22 266/2/22 270/2/22
f 264/2/4 269/2/4 265/2/4
f 263/2/23 249/2/23 267/2/23
f 269/2/29 274/2/29 270/2/29
f 268/2/30 271/2/30 272/2/30
f 254/2/26 270/2/26 274/2/26
f 268/2/27 273/2/27 269/2/27
f 267/2/28 249/2/28 271/2/28
f 274/2/34 277/2/34 278/2/34
f 271/2/35 276/2/35 272/2/35
f 254/2/31 274/2/31 278/2/31
f 272/2/32 277/2/32 273/2/32
f 271/2/33 249/2/33 275/2/33
f 278/2/39 252/2/39 253/2/39
f 275/2/40 251/2/40 276/2/40
f 254/2/36 278/2/36 253/2/36
f 276/2/37 252/2/37 277/2/37
f 275/2/38 249/2/38 250/2/38
f 279/3/41 280/3/41 281/3/41
f 282/3/42 283/3/42 284/3/42
f 285/3/43 286/3/43 287/3/43
f 288/3/44 289/3/44 290/3/44
f 291/3/45 292/3/45 293/3/45
f 294/3/46 295/3/46 296/3/46
f 297/3/47 298/3/47 299/3/47
f 300/3/48 301/3/48 302/3/48
f 279/3/49 286/3/49 285/3/49
f 282/3/50 281/3/50 280/3/50
f 288/3/51 284/3/51 283/3/51
f 287/3/52 290/3/52 289/3/52
f 285/3/53 298/3/53 297/3/53
f 300/3/54 289/3/54 288/3/54
f 299/3/55 302/3/55 301/3/55
f 297/3/56 292/3/56 291/3/56
f 294/3/57 301/3/57 300/3/57
f 293/3/58 296/3/58 295/3/58
f 291/3/59 280/3/59 279/3/59
f 283/3/60 295/3/60 294/3/60
f 297/3/5 279/3/5 285/3/5
f 284/3/61 286/3/61 281/3/61
f 295/3/62 280/3/62 293/3/62
f 288/3/6 294/3/6 300/3/6
f 289/3/63 298/3/63 287/3/63
f 301/3/64 292/3/64 299/3/64
f 303/3/65 304/3/65 305/3/65
f 306/3/66 307/3/66 308/3/66
f 309/3/67 310/3/67 311/3/67
f 312/3/68 313/3/68 314/3/68
f 315/3/69 316/3/69 317/3/69
f 318/3/70 319/3/70 320/3/70
f 321/3/71 322/3/71 323/3/71
f 324/3/72 325/3/72 326/3/72
f 303/3/73 310/3/73 309/3/73
f 306/3/74 305/3/74 304/3/74
f 312/3/75 308/3/75 307/3/75
f 311/3/76 314/3/76 313/3/76
f 309/3/77 322/3/77 321/3/77
f 312/3/78 326/3/78 313/3/78
f 323/3/79 326/3/79 325/3/79
f 321/3/80 316/3/80 315/3/80
f 318/3/81 325/3/81 324/3/81
f 317/3/82 320/3/82 319/3/82
f 315/3/83 304/3/83 303/3/83
f 307/3/84 319/3/84 318/3/84
f 321/3/5 303/3/5 309/3/5
f 308/3/85 310/3/85 305/3/85
f 319/3/86 304/3/86 317/3/86
f 312/3/6 318/3/6 324/3/6
f 313/3/87 322/3/87 311/3/87
f 325/3/88 316/3/88 323/3/88
f 327/2/89 328/2/89 329/2/89
f 330/2/90 331/2/90 332/2/90
f 333/2/91 334/2/91 335/2/91
f 336/2/92 337/2/92 338/2/92
f 339/2/93 340/2/93 341/2/93
f 342/2/94 343/2/94 344/2/94
f 345/2/95 346/2/95 347/2/95
f 348/2/96 349/2/96 350/2/96
f 327/2/97 334/2/97 333/2/97
f 330/2/98 329/2/98 328/2/98
f 336/2/99 332/2/99 331/2/99
f 335/2/100 338/2/100 337/2/100
f 333/2/101 346/2/101 345/2/101
f 348/2/102 337/2/102 336/2/102
f 347/2/103 350/2/103 349/2/103
f 345/2/104 340/2/104 339/2/104
f 342/2/105 349/2/105 348/2/105
f 341/2/106 344/2/106 343/2/106
f 339/2/107 328/2/107 327/2/107
f 331/2/108 343/2/108 342/2/108
f 345/2/5 327/2/5 333/2/5
f 332/2/1 334/2/1 329/2/1
f 343/2/4 328/2/4 341/2/4
f 336/2/6 342/2/6 348/2/6
f 337/2/2 346/2/2 335/2/2
f 349/2/3 340/2/3 347/2/3
f 352/4/109 354/4/109 351/4/109
f 355/4/110 357/4/110 358/4/110
f 360/5/111 362/5/111 359/5/111
f 363/5/112 365/5/112 366/5/112
f 368/4/113 370/4/113 367/4/113
f 371/4/114 373/4/114 374/4/114
f 376/5/115 378/5/115 375/5/115
f 379/5/116 381/5/116 382/5/116
f 384/4/117 386/4/117 383/4/117
f 387/4/118 389/4/118 390/4/118
f 392/6/119 393/6/119 391/6/119
f 394/6/3 395/6/3 393/6/3
f 396/6/120 397/6/120 395/6/120
f 398/6/121 399/6/121 397/6/121
f 392/6/6 400/6/6 396/6/6
f 400/6/1 401/6/1 399/6/1
f 402/6/122 391/6/122 401/6/122
f 393/6/5 397/6/5 401/6/5
f 403/7/123 406/7/123 405/7/123
f 405/7/124 408/7/124 407/7/124
f 408/7/125 409/7/125 407/7/125
f 410/7/126 411/7/126 409/7/126
f 411/7/127 414/7/127 413/7/127
f 413/7/128 416/7/128 415/7/128
f 416/7/6 412/7/6 408/7/6
f 415/7/129 418/7/129 417/7/129
f 418/7/130 403/7/130 417/7/130
f 409/7/5 413/7/5 417/7/5
f 419/8/131 425/8/131 420/8/131
f 420/8/132 425/8/132 421/8/132
f 421/8/133 425/8/133 422/8/133
f 422/8/134 425/8/134 423/8/134
f 420/8/5 422/8/5 424/8/5
f 423/8/135 425/8/135 424/8/135
f 424/8/136 425/8/136 419/8/136
f 427/6/119 428/6/119 426/6/119
f 429/6/3 430/6/3 428/6/3
f 431/6/120 432/6/120 430/6/120
f 433/6/121 434/6/121 432/6/121
f 427/6/6 435/6/6 431/6/6
f 435/6/1 436/6/1 434/6/1
f 437/6/122 426/6/122 436/6/122
f 428/6/5 432/6/5 436/6/5
f 439/7/123 440/7/123 438/7/123
f 441/7/124 442/7/124 440/7/124
f 443/7/125 444/7/125 442/7/125
f 445/7/126 446/7/126 444/7/126
f 446/7/127 449/7/127 448/7/127
f 449/7/128 450/7/128 448/7/128
f 451/7/6 447/7/6 443/7/6
f 451/7/129 452/7/129 450/7/129
f 453/7/130 438/7/130 452/7/130
f 444/7/5 448/7/5 452/7/5
f 454/8/131 460/8/131 455/8/131
f 455/8/132 460/8/132 456/8/132
f 456/8/133 460/8/133 457/8/133
f 457/8/134 460/8/134 458/8/134
f 455/8/5 457/8/5 459/8/5
f 458/8/135 460/8/135 459/8/135
f 459/8/136 460/8/136 454/8/136
f 2/1/1 4/1/1 3/1/1
f 4/1/2 8/1/2 7/1/2
f 8/1/3 6/1/3 5/1/3
f 6/1/4 2/1/4 1/1/4
f 7/1/5 5/1/5 1/1/5
f 4/1/6 2/1/6 6/1/6
f 11/2/7 16/2/7 17/2/7
f 12/2/9 17/2/9 18/2/9
f 11/2/10 10/2/10 15/2/10
f 16/2/13 20/2/13 21/2/13
f 17/2/15 21/2/15 22/2/15
f 16/2/16 15/2/16 19/2/16
f 20/2/18 24/2/18 25/2/18
f 22/2/20 21/2/20 25/2/20
f 19/2/21 23/2/21 24/2/21
f 24/2/4 28/2/4 29/2/4
f 25/2/24 29/2/24 30/2/24
f 23/2/25 27/2/25 28/2/25
f 28/2/27 32/2/27 33/2/27
f 29/2/29 33/2/29 34/2/29
f 28/2/30 27/2/30 31/2/30
f 32/2/32 36/2/32 37/2/32
f 34/2/34 33/2/34 37/2/34
f 31/2/35 35/2/35 36/2/35
f 36/2/37 11/2/37 12/2/37
f 38/2/39 37/2/39 12/2/39
f 35/2/40 10/2/40 11/2/40
f 41/3/7 46/3/7 47/3/7
f 42/3/9 47/3/9 48/3/9
f 41/3/10 40/3/10 45/3/10
f 46/3/16 45/3/16 49/3/16
f 46/3/13 50/3/13 51/3/13
f 47/3/15 51/3/15 52/3/15
f 49/3/21 53/3/21 54/3/21
f 50/3/18 54/3/18 55/3/18
f 52/3/20 51/3/20 55/3/20
f 54/3/25 53/3/25 57/3/25
f 54/3/4 58/3/4 59/3/4
f 55/3/24 59/3/24 60/3/24
f 58/3/30 57/3/30 61/3/30
f 58/3/27 62/3/27 63/3/27
f 59/3/29 63/3/29 64/3/29
f 61/3/35 65/3/35 66/3/35
f 62/3/32 66/3/32 67/3/32
f 64/3/34 63/3/34 67/3/34
f 65/3/40 40/3/40 41/3/40
f 66/3/37 41/3/37 42/3/37
f 68/3/39 67/3/39 42/3/39
f 72/2/9 77/2/9 78/2/9
f 71/2/10 70/2/10 75/2/10
f 71/2/7 76/2/7 77/2/7
f 77/2/15 81/2/15 82/2/15
f 76/2/16 75/2/16 79/2/16
f 76/2/13 80/2/13 81/2/13
f 82/2/20 81/2/20 85/2/20
f 79/2/21 83/2/21 84/2/21
f 80/2/18 84/2/18 85/2/18
f 85/2/24 89/2/24 90/2/24
f 83/2/25 87/2/25 88/2/25
f 84/2/4 88/2/4 89/2/4
f 89/2/29 93/2/29 94/2/29
f 88/2/30 87/2/30 91/2/30
f 88/2/27 92/2/27 93/2/27
f 94/2/34 93/2/34 97/2/34
f 91/2/35 95/2/35 96/2/35
f 92/2/32 96/2/32 97/2/32
f 98/2/39 97/2/39 72/2/39
f 95/2/40 70/2/40 71/2/40
f 96/2/37 71/2/37 72/2/37
f 102/3/9 107/3/9 108/3/9
f 101/3/10 100/3/10 105/3/10
f 101/3/7 106/3/7 107/3/7
f 106/3/13 110/3/13 111/3/13
f 107/3/15 111/3/15 112/3/15
f 106/3/16 105/3/16 109/3/16
f 110/3/18 114/3/18 115/3/18
f 112/3/20 111/3/20 115/3/20
f 109/3/21 113/3/21 114/3/21
f 114/3/4 118/3/4 119/3/4
f 115/3/24 119/3/24 120/3/24
f 113/3/25 117/3/25 118/3/25
f 118/3/27 122/3/27 123/3/27
f 119/3/29 123/3/29 124/3/29
f 118/3/30 117/3/30 121/3/30
f 122/3/32 126/3/32 127/3/32
f 124/3/34 123/3/34 127/3/34
f 121/3/35 125/3/35 126/3/35
f 126/3/37 101/3/37 102/3/37
f 128/3/39 127/3/39 102/3/39
f 125/3/40 100/3/40 101/3/40
f 131/2/7 136/2/7 137/2/7
f 132/2/9 137/2/9 138/2/9
f 131/2/10 130/2/10 135/2/10
f 137/2/15 141/2/15 142/2/15
f 136/2/16 135/2/16 139/2/16
f 136/2/13 140/2/13 141/2/13
f 142/2/20 141/2/20 145/2/20
f 139/2/21 143/2/21 144/2/21
f 140/2/18 144/2/18 145/2/18
f 145/2/24 149/2/24 150/2/24
f 144/2/25 143/2/25 147/2/25
f 144/2/4 148/2/4 149/2/4
f 149/2/29 153/2/29 154/2/29
f 148/2/30 147/2/30 151/2/30
f 148/2/27 152/2/27 153/2/27
f 154/2/34 153/2/34 157/2/34
f 151/2/35 155/2/35 156/2/35
f 152/2/32 156/2/32 157/2/32
f 158/2/39 157/2/39 132/2/39
f 155/2/40 130/2/40 131/2/40
f 156/2/37 131/2/37 132/2/37
f 162/3/9 167/3/9 168/3/9
f 161/3/10 160/3/10 165/3/10
f 161/3/7 166/3/7 167/3/7
f 167/3/15 171/3/15 172/3/15
f 166/3/16 165/3/16 169/3/16
f 166/3/13 170/3/13 171/3/13
f 172/3/20 171/3/20 175/3/20
f 169/3/21 173/3/21 174/3/21
f 170/3/18 174/3/18 175/3/18
f 175/3/24 179/3/24 180/3/24
f 173/3/25 177/3/25 178/3/25
f 174/3/4 178/3/4 179/3/4
f 179/3/29 183/3/29 184/3/29
f 178/3/30 177/3/30 181/3/30
f 178/3/27 182/3/27 183/3/27
f 184/3/34 183/3/34 187/3/34
f 181/3/35 185/3/35 186/3/35
f 182/3/32 186/3/32 187/3/32
f 188/3/39 187/3/39 162/3/39
f 185/3/40 160/3/40 161/3/40
f 186/3/37 161/3/37 162/3/37
f 191/2/7 196/2/7 197/2/7
f 192/2/9 197/2/9 198/2/9
f 191/2/10 190/2/10 195/2/10
f 196/2/13 200/2/13 201/2/13
f 197/2/15 201/2/15 202/2/15
f 196/2/16 195/2/16 199/2/16
f 200/2/18 204/2/18 205/2/18
f 202/2/20 201/2/20 205/2/20
f 199/2/21 203/2/21 204/2/21
f 204/2/4 208/2/4 209/2/4
f 205/2/24 209/2/24 210/2/24
f 204/2/25 203/2/25 207/2/25
f 208/2/27 212/2/27 213/2/27
f 209/2/29 213/2/29 214/2/29
f 208/2/30 207/2/30 211/2/30
f 212/2/32 216/2/32 217/2/32
f 214/2/34 213/2/34 217/2/34
f 211/2/35 215/2/35 216/2/35
f 216/2/37 191/2/37 192/2/37
f 218/2/39 217/2/39 192/2/39
f 215/2/40 190/2/40 191/2/40
f 221/3/7 226/3/7 227/3/7
f 222/3/9 227/3/9 228/3/9
f 221/3/10 220/3/10 225/3/10
f 226/3/16 225/3/16 229/3/16
f 226/3/13 230/3/13 231/3/13
f 227/3/15 231/3/15 232/3/15
f 229/3/21 233/3/21 234/3/21
f 230/3/18 234/3/18 235/3/18
f 232/3/20 231/3/20 235/3/20
f 234/3/25 233/3/25 237/3/25
f 234/3/4 238/3/4 239/3/4
f 235/3/24 239/3/24 240/3/24
f 238/3/30 237/3/30 241/3/30
f 238/3/27 242/3/27 243/3/27
f 239/3/29 243/3/29 244/3/29
f 241/3/35 245/3/35 246/3/35
f 242/3/32 246/3/32 247/3/32
f 244/3/34 243/3/34 247/3/34
f 245/3/40 220/3/40 221/3/40
f 246/3/37 221/3/37 222/3/37
f 248/3/39 247/3/39 222/3/39
f 252/2/9 257/2/9 258/2/9
f 251/2/10 250/2/10 255/2/10
f 251/2/7 256/2/7 257/2/7
f 257/2/15 261/2/15 262/2/15
f 256/2/16 255/2/16 259/2/16
f 256/2/13 260/2/13 261/2/13
f 262/2/20 261/2/20 265/2/20
f 259/2/21 263/2/21 264/2/21
f 260/2/18 264/2/18 265/2/18
f 266/2/24 265/2/24 269/2/24
f 263/2/25 267/2/25 268/2/25
f 264/2/4 268/2/4 269/2/4
f 269/2/29 273/2/29 274/2/29
f 268/2/30 267/2/30 271/2/30
f 268/2/27 272/2/27 273/2/27
f 274/2/34 273/2/34 277/2/34
f 271/2/35 275/2/35 276/2/35
f 272/2/32 276/2/32 277/2/32
f 278/2/39 277/2/39 252/2/39
f 275/2/40 250/2/40 251/2/40
f 276/2/37 251/2/37 252/2/37
f 279/3/49 281/3/49 286/3/49
f 282/3/50 284/3/50 281/3/50
f 288/3/51 290/3/51 284/3/51
f 287/3/52 286/3/52 290/3/52
f 285/3/53 287/3/53 298/3/53
f 300/3/54 302/3/54 289/3/54
f 299/3/55 298/3/55 302/3/55
f 297/3/56 299/3/56 292/3/56
f 294/3/57 296/3/57 301/3/57
f 293/3/58 292/3/58 296/3/58
f 291/3/59 293/3/59 280/3/59
f 283/3/60 282/3/60 295/3/60
f 297/3/5 291/3/5 279/3/5
f 284/3/61 290/3/61 286/3/61
f 295/3/62 282/3/62 280/3/62
f 288/3/6 283/3/6 294/3/6
f 289/3/63 302/3/63 298/3/63
f 301/3/64 296/3/64 292/3/64
f 303/3/73 305/3/73 310/3/73
f 306/3/74 308/3/74 305/3/74
f 312/3/75 314/3/75 308/3/75
f 311/3/76 310/3/76 314/3/76
f 309/3/77 311/3/77 322/3/77
f 312/3/78 324/3/78 326/3/78
f 323/3/79 322/3/79 326/3/79
f 321/3/80 323/3/80 316/3/80
f 318/3/81 320/3/81 325/3/81
f 317/3/82 316/3/82 320/3/82
f 315/3/83 317/3/83 304/3/83
f 307/3/84 306/3/84 319/3/84
f 321/3/5 315/3/5 303/3/5
f 308/3/85 314/3/85 310/3/85
f 319/3/86 306/3/86 304/3/86
f 312/3/6 307/3/6 318/3/6
f 313/3/87 326/3/87 322/3/87
f 325/3/88 320/3/88 316/3/88
f 327/2/97 329/2/97 334/2/97
f 330/2/98 332/2/98 329/2/98
f 336/2/99 338/2/99 332/2/99
f 335/2/100 334/2/100 338/2/100
f 333/2/101 335/2/101 346/2/101
f 348/2/102 350/2/102 337/2/102
f 347/2/103 346/2/103 350/2/103
f 345/2/104 347/2/104 340/2/104
f 342/2/105 344/2/105 349/2/105
f 341/2/106 340/2/106 344/2/106
f 339/2/107 341/2/107 328/2/107
f 331/2/108 330/2/108 343/2/108
f 345/2/5 339/2/5 327/2/5
f 332/2/1 338/2/1 334/2/1
f 343/2/4 330/2/4 328/2/4
f 336/2/6 331/2/6 342/2/6
f 337/2/2 350/2/2 346/2/2
f 349/2/3 344/2/3 340/2/3
f 352/4/137 353/4/137 354/4/137
f 355/4/138 356/4/138 357/4/138
f 360/5/139 361/5/139 362/5/139
f 363/5/140 364/5/140 365/5/140
f 368/4/141 369/4/141 370/4/141
f 371/4/142 372/4/142 373/4/142
f 376/5/143 377/5/143 378/5/143
f 379/5/144 380/5/144 381/5/144
f 384/4/145 385/4/145 386/4/145
f 387/4/146 388/4/146 389/4/146
f 392/6/119 394/6/119 393/6/119
f 394/6/3 396/6/3 395/6/3
f 396/6/120 398/6/120 397/6/120
f 398/6/121 400/6/121 399/6/121
f 396/6/6 394/6/6 392/6/6
f 392/6/6 402/6/6 400/6/6
f 400/6/6 398/6/6 396/6/6
f 400/6/1 402/6/1 401/6/1
f 402/6/122 392/6/122 391/6/122
f 401/6/5 391/6/5 393/6/5
f 393/6/5 395/6/5 397/6/5
f 397/6/5 399/6/5 401/6/5
f 403/7/123 404/7/123 406/7/123
f 405/7/124 406/7/124 408/7/124
f 408/7/125 410/7/125 409/7/125
f 410/7/126 412/7/126 411/7/126
f 411/7/127 412/7/127 414/7/127
f 413/7/128 414/7/128 416/7/128
f 408/7/6 406/7/6 404/7/6
f 404/7/6 418/7/6 416/7/6
f 416/7/6 414/7/6 412/7/6
f 412/7/6 410/7/6 408/7/6
f 408/7/6 404/7/6 416/7/6
f 415/7/129 416/7/129 418/7/129
f 418/7/130 404/7/130 403/7/130
f 417/7/5 403/7/5 405/7/5
f 405/7/5 407/7/5 409/7/5
f 409/7/5 411/7/5 413/7/5
f 413/7/5 415/7/5 417/7/5
f 417/7/5 405/7/5 409/7/5
f 424/8/5 419/8/5 420/8/5
f 420/8/5 421/8/5 422/8/5
f 422/8/5 423/8/5 424/8/5
f 427/6/119 429/6/119 428/6/119
f 429/6/3 431/6/3 430/6/3
f 431/6/120 433/6/120 432/6/120
f 433/6/121 435/6/121 434/6/121
f 431/6/6 429/6/6 427/6/6
f 427/6/6 437/6/6 435/6/6
f 435/6/6 433/6/6 431/6/6
f 435/6/1 437/6/1 436/6/1
f 437/6/122 427/6/122 426/6/122
f 436/6/5 426/6/5 428/6/5
f 428/6/5 430/6/5 432/6/5
f 432/6/5 434/6/5 436/6/5
f 439/7/123 441/7/123 440/7/123
f 441/7/124 443/7/124 442/7/124
f 443/7/125 445/7/125 444/7/125
f 445/7/126 447/7/126 446/7/126
f 446/7/127 447/7/127 449/7/127
f 449/7/128 451/7/128 450/7/128
f 443/7/6 441/7/6 439/7/6
f 439/7/6 453/7/6 451/7/6
f 451/7/6 449/7/6 447/7/6
f 447/7/6 445/7/6 443/7/6
f 443/7/6 439/7/6 451/7/6
f 451/7/129 453/7/129 452/7/129
f 453/7/130 439/7/130 438/7/130
f 452/7/5 438/7/5 440/7/5
f 440/7/5 442/7/5 444/7/5
f 444/7/5 446/7/5 448/7/5
f 448/7/5 450/7/5 452/7/5
f 452/7/5 440/7/5 444/7/5
f 459/8/5 454/8/5 455/8/5
f 455/8/5 456/8/5 457/8/5
f 457/8/5 458/8/5 459/8/5
