# Blender 5.1.1
# www.blender.org
o pancuran
v -0.630000 -0.060000 0.630000
v -0.630000 -0.040000 0.650000
v -0.650000 -0.040000 0.630000
v -0.630000 0.040000 0.650000
v -0.630000 0.060000 0.630000
v -0.650000 0.040000 0.630000
v -0.630000 -0.060000 -0.630000
v -0.650000 -0.040000 -0.630000
v -0.630000 -0.040000 -0.650000
v -0.630000 0.060000 -0.630000
v -0.630000 0.040000 -0.650000
v -0.650000 0.040000 -0.630000
v 0.630000 -0.060000 0.630000
v 0.650000 -0.040000 0.630000
v 0.630000 -0.040000 0.650000
v 0.630000 0.060000 0.630000
v 0.630000 0.040000 0.650000
v 0.650000 0.040000 0.630000
v 0.630000 -0.060000 -0.630000
v 0.630000 -0.040000 -0.650000
v 0.650000 -0.040000 -0.630000
v 0.630000 0.060000 -0.630000
v 0.650000 0.040000 -0.630000
v 0.630000 0.040000 -0.650000
v -0.580000 0.060000 0.580000
v -0.580000 0.070000 0.580000
v -0.580000 0.060000 -0.580000
v -0.580000 0.070000 -0.580000
v 0.580000 0.060000 0.580000
v 0.580000 0.070000 0.580000
v 0.580000 0.060000 -0.580000
v 0.580000 0.070000 -0.580000
v 0.250000 0.065000 -0.250000
v 0.250000 0.077000 -0.250000
v 0.250000 0.065000 -0.350000
v 0.250000 0.077000 -0.350000
v 0.350000 0.065000 -0.250000
v 0.350000 0.077000 -0.250000
v 0.350000 0.065000 -0.350000
v 0.350000 0.077000 -0.350000
v -0.650000 0.060000 -0.590000
v -0.650000 1.960000 -0.590000
v -0.650000 0.060000 -0.650000
v -0.650000 1.960000 -0.650000
v 0.650000 0.060000 -0.590000
v 0.650000 1.960000 -0.590000
v 0.650000 0.060000 -0.650000
v 0.650000 1.960000 -0.650000
v -0.651000 0.340000 -0.589000
v -0.651000 0.352000 -0.589000
v -0.651000 0.340000 -0.651000
v -0.651000 0.352000 -0.651000
v 0.651000 0.340000 -0.589000
v 0.651000 0.352000 -0.589000
v 0.651000 0.340000 -0.651000
v 0.651000 0.352000 -0.651000
v -0.651000 0.620000 -0.589000
v -0.651000 0.632000 -0.589000
v -0.651000 0.620000 -0.651000
v -0.651000 0.632000 -0.651000
v 0.651000 0.620000 -0.589000
v 0.651000 0.632000 -0.589000
v 0.651000 0.620000 -0.651000
v 0.651000 0.632000 -0.651000
v -0.651000 0.900000 -0.589000
v -0.651000 0.912000 -0.589000
v -0.651000 0.900000 -0.651000
v -0.651000 0.912000 -0.651000
v 0.651000 0.900000 -0.589000
v 0.651000 0.912000 -0.589000
v 0.651000 0.900000 -0.651000
v 0.651000 0.912000 -0.651000
v -0.651000 1.180000 -0.589000
v -0.651000 1.192000 -0.589000
v -0.651000 1.180000 -0.651000
v -0.651000 1.192000 -0.651000
v 0.651000 1.180000 -0.589000
v 0.651000 1.192000 -0.589000
v 0.651000 1.180000 -0.651000
v 0.651000 1.192000 -0.651000
v -0.651000 1.460000 -0.589000
v -0.651000 1.472000 -0.589000
v -0.651000 1.460000 -0.651000
v -0.651000 1.472000 -0.651000
v 0.651000 1.460000 -0.589000
v 0.651000 1.472000 -0.589000
v 0.651000 1.460000 -0.651000
v 0.651000 1.472000 -0.651000
v -0.651000 1.740000 -0.589000
v -0.651000 1.752000 -0.589000
v -0.651000 1.740000 -0.651000
v -0.651000 1.752000 -0.651000
v 0.651000 1.740000 -0.589000
v 0.651000 1.752000 -0.589000
v 0.651000 1.740000 -0.651000
v 0.651000 1.752000 -0.651000
v 0.000000 1.140000 -0.585000
v 0.000000 1.890000 -0.585000
v 0.012990 1.140000 -0.577500
v 0.012990 1.890000 -0.577500
v 0.012990 1.140000 -0.562500
v 0.012990 1.890000 -0.562500
v 0.000000 1.140000 -0.555000
v 0.000000 1.890000 -0.555000
v -0.012990 1.140000 -0.562500
v -0.012990 1.890000 -0.562500
v -0.012990 1.140000 -0.577500
v -0.012990 1.890000 -0.577500
v 0.000000 1.905000 -0.570000
v 0.000000 1.905000 -0.270000
v 0.012990 1.897500 -0.570000
v 0.012990 1.897500 -0.270000
v 0.012990 1.882500 -0.570000
v 0.012990 1.882500 -0.270000
v 0.000000 1.875000 -0.570000
v 0.000000 1.875000 -0.270000
v -0.012990 1.882500 -0.570000
v -0.012990 1.882500 -0.270000
v -0.012990 1.897500 -0.570000
v -0.012990 1.897500 -0.270000
v 0.000000 1.860000 -0.380000
v 0.000000 1.900000 -0.340000
v 0.045000 1.860000 -0.367942
v 0.025000 1.900000 -0.333301
v 0.077942 1.860000 -0.335000
v 0.043301 1.900000 -0.315000
v 0.090000 1.860000 -0.290000
v 0.050000 1.900000 -0.290000
v 0.077942 1.860000 -0.245000
v 0.043301 1.900000 -0.265000
v 0.045000 1.860000 -0.212058
v 0.025000 1.900000 -0.246699
v 0.000000 1.860000 -0.200000
v 0.000000 1.900000 -0.240000
v -0.045000 1.860000 -0.212058
v -0.025000 1.900000 -0.246699
v -0.077942 1.860000 -0.245000
v -0.043301 1.900000 -0.265000
v -0.090000 1.860000 -0.290000
v -0.050000 1.900000 -0.290000
v -0.077942 1.860000 -0.335000
v -0.043301 1.900000 -0.315000
v -0.045000 1.860000 -0.367942
v -0.025000 1.900000 -0.333301
v 0.142000 1.040000 -0.572000
v 0.142000 1.052000 -0.560000
v 0.130000 1.052000 -0.572000
v 0.142000 1.088000 -0.560000
v 0.142000 1.100000 -0.572000
v 0.130000 1.088000 -0.572000
v 0.142000 1.040000 -0.588000
v 0.130000 1.052000 -0.588000
v 0.142000 1.052000 -0.600000
v 0.142000 1.100000 -0.588000
v 0.142000 1.088000 -0.600000
v 0.130000 1.088000 -0.588000
v 0.218000 1.040000 -0.572000
v 0.230000 1.052000 -0.572000
v 0.218000 1.052000 -0.560000
v 0.218000 1.100000 -0.572000
v 0.218000 1.088000 -0.560000
v 0.230000 1.088000 -0.572000
v 0.218000 1.040000 -0.588000
v 0.218000 1.052000 -0.600000
v 0.230000 1.052000 -0.588000
v 0.218000 1.100000 -0.588000
v 0.230000 1.088000 -0.588000
v 0.218000 1.088000 -0.600000
v -0.650000 1.990000 0.612500
v -0.650000 2.015000 0.612500
v -0.650000 1.990000 0.587500
v -0.650000 2.015000 0.587500
v 0.650000 1.990000 0.612500
v 0.650000 2.015000 0.612500
v 0.650000 1.990000 0.587500
v 0.650000 2.015000 0.587500
v -0.615000 0.240000 0.610000
v -0.615000 1.990000 0.610000
v -0.615000 0.240000 0.570000
v -0.615000 1.990000 0.570000
v -0.485000 0.240000 0.610000
v -0.485000 1.990000 0.610000
v -0.485000 0.240000 0.570000
v -0.485000 1.990000 0.570000
v -0.495000 0.240000 0.570000
v -0.495000 1.990000 0.570000
v -0.495000 0.240000 0.530000
v -0.495000 1.990000 0.530000
v -0.365000 0.240000 0.570000
v -0.365000 1.990000 0.570000
v -0.365000 0.240000 0.530000
v -0.365000 1.990000 0.530000
v -0.375000 0.240000 0.610000
v -0.375000 1.990000 0.610000
v -0.375000 0.240000 0.570000
v -0.375000 1.990000 0.570000
v -0.245000 0.240000 0.610000
v -0.245000 1.990000 0.610000
v -0.245000 0.240000 0.570000
v -0.245000 1.990000 0.570000
v -0.255000 0.240000 0.570000
v -0.255000 1.990000 0.570000
v -0.255000 0.240000 0.530000
v -0.255000 1.990000 0.530000
v -0.125000 0.240000 0.570000
v -0.125000 1.990000 0.570000
v -0.125000 0.240000 0.530000
v -0.125000 1.990000 0.530000
v -0.135000 0.240000 0.610000
v -0.135000 1.990000 0.610000
v -0.135000 0.240000 0.570000
v -0.135000 1.990000 0.570000
v -0.005000 0.240000 0.610000
v -0.005000 1.990000 0.610000
v -0.005000 0.240000 0.570000
v -0.005000 1.990000 0.570000
v 0.380000 0.060000 0.040000
v 0.380000 0.360000 0.020000
v 0.460000 0.060000 0.061436
v 0.470000 0.360000 0.044115
v 0.518564 0.060000 0.120000
v 0.535885 0.360000 0.110000
v 0.540000 0.060000 0.200000
v 0.560000 0.360000 0.200000
v 0.518564 0.060000 0.280000
v 0.535885 0.360000 0.290000
v 0.460000 0.060000 0.338564
v 0.470000 0.360000 0.355885
v 0.380000 0.060000 0.360000
v 0.380000 0.360000 0.380000
v 0.300000 0.060000 0.338564
v 0.290000 0.360000 0.355885
v 0.241436 0.060000 0.280000
v 0.224115 0.360000 0.290000
v 0.220000 0.060000 0.200000
v 0.200000 0.360000 0.200000
v 0.241436 0.060000 0.120000
v 0.224115 0.360000 0.110000
v 0.300000 0.060000 0.061436
v 0.290000 0.360000 0.044115
v 0.380000 0.380000 0.140000
v 0.380000 0.460000 0.140000
v 0.422426 0.380000 0.157574
v 0.422426 0.460000 0.157574
v 0.440000 0.380000 0.200000
v 0.440000 0.460000 0.200000
v 0.422426 0.380000 0.242426
v 0.422426 0.460000 0.242426
v 0.380000 0.380000 0.260000
v 0.380000 0.460000 0.260000
v 0.337574 0.380000 0.242426
v 0.337574 0.460000 0.242426
v 0.320000 0.380000 0.200000
v 0.320000 0.460000 0.200000
v 0.337574 0.380000 0.157574
v 0.337574 0.460000 0.157574
v 0.365000 0.410000 0.150000
v 0.365000 0.435000 0.150000
v 0.365000 0.410000 -0.050000
v 0.365000 0.435000 -0.050000
v 0.395000 0.410000 0.150000
v 0.395000 0.435000 0.150000
v 0.395000 0.410000 -0.050000
v 0.395000 0.435000 -0.050000
vn -0.5774 -0.5774 0.5774
vn -0.5774 0.5774 0.5774
vn -0.5774 -0.5774 -0.5774
vn -0.5774 0.5774 -0.5774
vn 0.5774 -0.5774 0.5774
vn 0.5774 0.5774 0.5774
vn 0.5774 -0.5774 -0.5774
vn 0.5774 0.5774 -0.5774
vn -0.7071 -0.7071 -0.0000
vn -0.7071 -0.0000 0.7071
vn -0.7071 0.7071 -0.0000
vn -0.7071 -0.0000 -0.7071
vn -0.0000 -0.7071 -0.7071
vn -0.0000 0.7071 -0.7071
vn 0.7071 -0.0000 -0.7071
vn 0.7071 -0.7071 -0.0000
vn 0.7071 0.7071 -0.0000
vn 0.7071 -0.0000 0.7071
vn -0.0000 -0.7071 0.7071
vn -0.0000 0.7071 0.7071
vn -0.0000 -1.0000 -0.0000
vn -1.0000 -0.0000 -0.0000
vn -0.0000 -0.0000 1.0000
vn -0.0000 1.0000 -0.0000
vn -0.0000 -0.0000 -1.0000
vn 1.0000 -0.0000 -0.0000
vn 0.5000 -0.0000 -0.8660
vn 0.5000 -0.0000 0.8660
vn -0.5000 -0.0000 0.8660
vn -0.5000 -0.0000 -0.8660
vn 0.5000 0.8660 -0.0000
vn 0.5000 -0.8660 -0.0000
vn -0.5000 -0.8660 -0.0000
vn -0.5000 0.8660 -0.0000
vn 0.1862 0.6947 -0.6947
vn 0.5086 0.6947 -0.5086
vn 0.6947 0.6947 -0.1862
vn 0.6947 0.6947 0.1862
vn 0.5086 0.6947 0.5086
vn 0.1862 0.6947 0.6947
vn -0.1862 0.6947 0.6947
vn -0.5086 0.6947 0.5086
vn -0.6947 0.6947 0.1862
vn -0.6947 0.6947 -0.1862
vn -0.5086 0.6947 -0.5086
vn -0.1862 0.6947 -0.6947
vn -0.5774 -0.5773 0.5773
vn -0.5774 0.5773 0.5773
vn -0.5774 -0.5773 -0.5773
vn -0.5774 0.5773 -0.5773
vn 0.5774 -0.5773 0.5773
vn 0.5774 0.5773 0.5773
vn 0.5774 -0.5773 -0.5773
vn 0.5774 0.5773 -0.5773
vn 0.2583 -0.0643 -0.9639
vn 0.7056 -0.0643 -0.7056
vn 0.9639 -0.0643 -0.2583
vn 0.9639 -0.0643 0.2583
vn 0.7056 -0.0643 0.7056
vn 0.2583 -0.0643 0.9639
vn -0.2583 -0.0643 0.9639
vn -0.7056 -0.0643 0.7056
vn -0.9639 -0.0643 0.2583
vn -0.9639 -0.0643 -0.2583
vn -0.7056 -0.0643 -0.7056
vn -0.2583 -0.0643 -0.9639
vn 0.3827 -0.0000 -0.9239
vn 0.9239 -0.0000 -0.3827
vn 0.9239 -0.0000 0.3827
vn 0.3827 -0.0000 0.9239
vn -0.3827 -0.0000 0.9239
vn -0.9239 -0.0000 0.3827
vn -0.9239 -0.0000 -0.3827
vn -0.3827 -0.0000 -0.9239
vt 0.781250 0.906250
vt 0.093750 0.843750
vt 0.781250 0.968750
vt 0.843750 0.968750
vt 0.531250 0.968750
vt 0.906250 0.968750
s 0
f 1/1/1 2/1/1 3/1/1
f 4/1/2 5/1/2 6/1/2
f 7/1/3 8/1/3 9/1/3
f 10/1/4 11/1/4 12/1/4
f 13/1/5 14/1/5 15/1/5
f 16/1/6 17/1/6 18/1/6
f 19/1/7 20/1/7 21/1/7
f 22/1/8 23/1/8 24/1/8
f 1/1/9 8/1/9 7/1/9
f 4/1/10 3/1/10 2/1/10
f 10/1/11 6/1/11 5/1/11
f 9/1/12 12/1/12 11/1/12
f 7/1/13 20/1/13 19/1/13
f 22/1/14 11/1/14 10/1/14
f 21/1/15 24/1/15 23/1/15
f 19/1/16 14/1/16 13/1/16
f 16/1/17 23/1/17 22/1/17
f 15/1/18 18/1/18 17/1/18
f 13/1/19 2/1/19 1/1/19
f 5/1/20 17/1/20 16/1/20
f 19/1/21 1/1/21 7/1/21
f 6/1/22 8/1/22 3/1/22
f 17/1/23 2/1/23 15/1/23
f 10/1/24 16/1/24 22/1/24
f 11/1/25 20/1/25 9/1/25
f 23/1/26 14/1/26 21/1/26
f 26/2/22 27/2/22 25/2/22
f 28/2/25 31/2/25 27/2/25
f 32/2/26 29/2/26 31/2/26
f 30/2/23 25/2/23 29/2/23
f 31/2/21 25/2/21 27/2/21
f 28/2/24 30/2/24 32/2/24
f 34/3/22 35/3/22 33/3/22
f 36/3/25 39/3/25 35/3/25
f 40/3/26 37/3/26 39/3/26
f 38/3/23 33/3/23 37/3/23
f 39/3/21 33/3/21 35/3/21
f 36/3/24 38/3/24 40/3/24
f 42/2/22 43/2/22 41/2/22
f 44/2/25 47/2/25 43/2/25
f 48/2/26 45/2/26 47/2/26
f 46/2/23 41/2/23 45/2/23
f 47/2/21 41/2/21 43/2/21
f 44/2/24 46/2/24 48/2/24
f 50/1/22 51/1/22 49/1/22
f 52/1/25 55/1/25 51/1/25
f 56/1/26 53/1/26 55/1/26
f 54/1/23 49/1/23 53/1/23
f 55/1/21 49/1/21 51/1/21
f 52/1/24 54/1/24 56/1/24
f 58/1/22 59/1/22 57/1/22
f 60/1/25 63/1/25 59/1/25
f 64/1/26 61/1/26 63/1/26
f 62/1/23 57/1/23 61/1/23
f 63/1/21 57/1/21 59/1/21
f 60/1/24 62/1/24 64/1/24
f 66/1/22 67/1/22 65/1/22
f 68/1/25 71/1/25 67/1/25
f 72/1/26 69/1/26 71/1/26
f 70/1/23 65/1/23 69/1/23
f 71/1/21 65/1/21 67/1/21
f 68/1/24 70/1/24 72/1/24
f 74/1/22 75/1/22 73/1/22
f 76/1/25 79/1/25 75/1/25
f 80/1/26 77/1/26 79/1/26
f 78/1/23 73/1/23 77/1/23
f 79/1/21 73/1/21 75/1/21
f 76/1/24 78/1/24 80/1/24
f 82/1/22 83/1/22 81/1/22
f 84/1/25 87/1/25 83/1/25
f 88/1/26 85/1/26 87/1/26
f 86/1/23 81/1/23 85/1/23
f 87/1/21 81/1/21 83/1/21
f 84/1/24 86/1/24 88/1/24
f 90/1/22 91/1/22 89/1/22
f 92/1/25 95/1/25 91/1/25
f 96/1/26 93/1/26 95/1/26
f 94/1/23 89/1/23 93/1/23
f 95/1/21 89/1/21 91/1/21
f 92/1/24 94/1/24 96/1/24
f 98/4/27 99/4/27 97/4/27
f 100/4/26 101/4/26 99/4/26
f 102/4/28 103/4/28 101/4/28
f 104/4/29 105/4/29 103/4/29
f 98/4/24 106/4/24 102/4/24
f 106/4/22 107/4/22 105/4/22
f 108/4/30 97/4/30 107/4/30
f 99/4/21 103/4/21 107/4/21
f 110/4/31 111/4/31 109/4/31
f 112/4/26 113/4/26 111/4/26
f 114/4/32 115/4/32 113/4/32
f 116/4/33 117/4/33 115/4/33
f 110/4/23 118/4/23 114/4/23
f 118/4/22 119/4/22 117/4/22
f 119/4/34 110/4/34 109/4/34
f 111/4/25 115/4/25 119/4/25
f 122/4/35 123/4/35 121/4/35
f 123/4/36 126/4/36 125/4/36
f 125/4/37 128/4/37 127/4/37
f 128/4/38 129/4/38 127/4/38
f 130/4/39 131/4/39 129/4/39
f 132/4/40 133/4/40 131/4/40
f 134/4/41 135/4/41 133/4/41
f 136/4/42 137/4/42 135/4/42
f 138/4/43 139/4/43 137/4/43
f 140/4/44 141/4/44 139/4/44
f 142/4/24 134/4/24 126/4/24
f 142/4/45 143/4/45 141/4/45
f 143/4/46 122/4/46 121/4/46
f 127/4/21 135/4/21 143/4/21
f 145/4/47 146/4/47 147/4/47
f 148/4/48 149/4/48 150/4/48
f 151/4/49 152/4/49 153/4/49
f 154/4/50 155/4/50 156/4/50
f 157/4/51 158/4/51 159/4/51
f 160/4/52 161/4/52 162/4/52
f 163/4/53 164/4/53 165/4/53
f 166/4/54 167/4/54 168/4/54
f 145/4/9 152/4/9 151/4/9
f 148/4/10 147/4/10 146/4/10
f 154/4/11 150/4/11 149/4/11
f 153/4/12 156/4/12 155/4/12
f 151/4/13 164/4/13 163/4/13
f 166/4/14 155/4/14 154/4/14
f 165/4/15 168/4/15 167/4/15
f 163/4/16 158/4/16 157/4/16
f 160/4/17 167/4/17 166/4/17
f 159/4/18 162/4/18 161/4/18
f 157/4/19 146/4/19 145/4/19
f 149/4/20 161/4/20 160/4/20
f 163/4/21 145/4/21 151/4/21
f 150/4/22 152/4/22 147/4/22
f 161/4/23 146/4/23 159/4/23
f 154/4/24 160/4/24 166/4/24
f 155/4/25 164/4/25 153/4/25
f 167/4/26 158/4/26 165/4/26
f 170/4/22 171/4/22 169/4/22
f 172/4/25 175/4/25 171/4/25
f 176/4/26 173/4/26 175/4/26
f 174/4/23 169/4/23 173/4/23
f 175/4/21 169/4/21 171/4/21
f 172/4/24 174/4/24 176/4/24
f 178/2/22 179/2/22 177/2/22
f 180/2/25 183/2/25 179/2/25
f 184/2/26 181/2/26 183/2/26
f 182/2/23 177/2/23 181/2/23
f 183/2/21 177/2/21 179/2/21
f 180/2/24 182/2/24 184/2/24
f 186/5/22 187/5/22 185/5/22
f 188/5/25 191/5/25 187/5/25
f 192/5/26 189/5/26 191/5/26
f 190/5/23 185/5/23 189/5/23
f 191/5/21 185/5/21 187/5/21
f 188/5/24 190/5/24 192/5/24
f 194/2/22 195/2/22 193/2/22
f 196/2/25 199/2/25 195/2/25
f 200/2/26 197/2/26 199/2/26
f 198/2/23 193/2/23 197/2/23
f 199/2/21 193/2/21 195/2/21
f 196/2/24 198/2/24 200/2/24
f 202/5/22 203/5/22 201/5/22
f 204/5/25 207/5/25 203/5/25
f 208/5/26 205/5/26 207/5/26
f 206/5/23 201/5/23 205/5/23
f 207/5/21 201/5/21 203/5/21
f 204/5/24 206/5/24 208/5/24
f 210/2/22 211/2/22 209/2/22
f 212/2/25 215/2/25 211/2/25
f 216/2/26 213/2/26 215/2/26
f 214/2/23 209/2/23 213/2/23
f 215/2/21 209/2/21 211/2/21
f 212/2/24 214/2/24 216/2/24
f 218/1/55 219/1/55 217/1/55
f 220/1/56 221/1/56 219/1/56
f 222/1/57 223/1/57 221/1/57
f 224/1/58 225/1/58 223/1/58
f 226/1/59 227/1/59 225/1/59
f 228/1/60 229/1/60 227/1/60
f 230/1/61 231/1/61 229/1/61
f 232/1/62 233/1/62 231/1/62
f 233/1/63 236/1/63 235/1/63
f 236/1/64 237/1/64 235/1/64
f 238/1/24 230/1/24 222/1/24
f 238/1/65 239/1/65 237/1/65
f 240/1/66 217/1/66 239/1/66
f 223/1/21 231/1/21 239/1/21
f 242/6/67 243/6/67 241/6/67
f 244/6/68 245/6/68 243/6/68
f 246/6/69 247/6/69 245/6/69
f 248/6/70 249/6/70 247/6/70
f 250/6/71 251/6/71 249/6/71
f 252/6/72 253/6/72 251/6/72
f 254/6/24 250/6/24 246/6/24
f 254/6/73 255/6/73 253/6/73
f 256/6/74 241/6/74 255/6/74
f 247/6/21 251/6/21 255/6/21
f 258/6/22 259/6/22 257/6/22
f 260/6/25 263/6/25 259/6/25
f 264/6/26 261/6/26 263/6/26
f 262/6/23 257/6/23 261/6/23
f 263/6/21 257/6/21 259/6/21
f 260/6/24 262/6/24 264/6/24
f 1/1/9 3/1/9 8/1/9
f 4/1/10 6/1/10 3/1/10
f 10/1/11 12/1/11 6/1/11
f 9/1/12 8/1/12 12/1/12
f 7/1/13 9/1/13 20/1/13
f 22/1/14 24/1/14 11/1/14
f 21/1/15 20/1/15 24/1/15
f 19/1/16 21/1/16 14/1/16
f 16/1/17 18/1/17 23/1/17
f 15/1/18 14/1/18 18/1/18
f 13/1/19 15/1/19 2/1/19
f 5/1/20 4/1/20 17/1/20
f 19/1/21 13/1/21 1/1/21
f 6/1/22 12/1/22 8/1/22
f 17/1/23 4/1/23 2/1/23
f 10/1/24 5/1/24 16/1/24
f 11/1/25 24/1/25 20/1/25
f 23/1/26 18/1/26 14/1/26
f 26/2/22 28/2/22 27/2/22
f 28/2/25 32/2/25 31/2/25
f 32/2/26 30/2/26 29/2/26
f 30/2/23 26/2/23 25/2/23
f 31/2/21 29/2/21 25/2/21
f 28/2/24 26/2/24 30/2/24
f 34/3/22 36/3/22 35/3/22
f 36/3/25 40/3/25 39/3/25
f 40/3/26 38/3/26 37/3/26
f 38/3/23 34/3/23 33/3/23
f 39/3/21 37/3/21 33/3/21
f 36/3/24 34/3/24 38/3/24
f 42/2/22 44/2/22 43/2/22
f 44/2/25 48/2/25 47/2/25
f 48/2/26 46/2/26 45/2/26
f 46/2/23 42/2/23 41/2/23
f 47/2/21 45/2/21 41/2/21
f 44/2/24 42/2/24 46/2/24
f 50/1/22 52/1/22 51/1/22
f 52/1/25 56/1/25 55/1/25
f 56/1/26 54/1/26 53/1/26
f 54/1/23 50/1/23 49/1/23
f 55/1/21 53/1/21 49/1/21
f 52/1/24 50/1/24 54/1/24
f 58/1/22 60/1/22 59/1/22
f 60/1/25 64/1/25 63/1/25
f 64/1/26 62/1/26 61/1/26
f 62/1/23 58/1/23 57/1/23
f 63/1/21 61/1/21 57/1/21
f 60/1/24 58/1/24 62/1/24
f 66/1/22 68/1/22 67/1/22
f 68/1/25 72/1/25 71/1/25
f 72/1/26 70/1/26 69/1/26
f 70/1/23 66/1/23 65/1/23
f 71/1/21 69/1/21 65/1/21
f 68/1/24 66/1/24 70/1/24
f 74/1/22 76/1/22 75/1/22
f 76/1/25 80/1/25 79/1/25
f 80/1/26 78/1/26 77/1/26
f 78/1/23 74/1/23 73/1/23
f 79/1/21 77/1/21 73/1/21
f 76/1/24 74/1/24 78/1/24
f 82/1/22 84/1/22 83/1/22
f 84/1/25 88/1/25 87/1/25
f 88/1/26 86/1/26 85/1/26
f 86/1/23 82/1/23 81/1/23
f 87/1/21 85/1/21 81/1/21
f 84/1/24 82/1/24 86/1/24
f 90/1/22 92/1/22 91/1/22
f 92/1/25 96/1/25 95/1/25
f 96/1/26 94/1/26 93/1/26
f 94/1/23 90/1/23 89/1/23
f 95/1/21 93/1/21 89/1/21
f 92/1/24 90/1/24 94/1/24
f 98/4/27 100/4/27 99/4/27
f 100/4/26 102/4/26 101/4/26
f 102/4/28 104/4/28 103/4/28
f 104/4/29 106/4/29 105/4/29
f 102/4/24 100/4/24 98/4/24
f 98/4/24 108/4/24 106/4/24
f 106/4/24 104/4/24 102/4/24
f 106/4/22 108/4/22 107/4/22
f 108/4/30 98/4/30 97/4/30
f 107/4/21 97/4/21 99/4/21
f 99/4/21 101/4/21 103/4/21
f 103/4/21 105/4/21 107/4/21
f 110/4/31 112/4/31 111/4/31
f 112/4/26 114/4/26 113/4/26
f 114/4/32 116/4/32 115/4/32
f 116/4/33 118/4/33 117/4/33
f 114/4/23 112/4/23 110/4/23
f 110/4/23 120/4/23 118/4/23
f 118/4/23 116/4/23 114/4/23
f 118/4/22 120/4/22 119/4/22
f 119/4/34 120/4/34 110/4/34
f 119/4/25 109/4/25 111/4/25
f 111/4/25 113/4/25 115/4/25
f 115/4/25 117/4/25 119/4/25
f 122/4/35 124/4/35 123/4/35
f 123/4/36 124/4/36 126/4/36
f 125/4/37 126/4/37 128/4/37
f 128/4/38 130/4/38 129/4/38
f 130/4/39 132/4/39 131/4/39
f 132/4/40 134/4/40 133/4/40
f 134/4/41 136/4/41 135/4/41
f 136/4/42 138/4/42 137/4/42
f 138/4/43 140/4/43 139/4/43
f 140/4/44 142/4/44 141/4/44
f 126/4/24 124/4/24 122/4/24
f 122/4/24 144/4/24 142/4/24
f 142/4/24 140/4/24 138/4/24
f 138/4/24 136/4/24 134/4/24
f 134/4/24 132/4/24 130/4/24
f 130/4/24 128/4/24 126/4/24
f 126/4/24 122/4/24 142/4/24
f 142/4/24 138/4/24 134/4/24
f 134/4/24 130/4/24 126/4/24
f 142/4/45 144/4/45 143/4/45
f 143/4/46 144/4/46 122/4/46
f 143/4/21 121/4/21 123/4/21
f 123/4/21 125/4/21 127/4/21
f 127/4/21 129/4/21 131/4/21
f 131/4/21 133/4/21 135/4/21
f 135/4/21 137/4/21 139/4/21
f 139/4/21 141/4/21 143/4/21
f 143/4/21 123/4/21 127/4/21
f 127/4/21 131/4/21 135/4/21
f 135/4/21 139/4/21 143/4/21
f 145/4/9 147/4/9 152/4/9
f 148/4/10 150/4/10 147/4/10
f 154/4/11 156/4/11 150/4/11
f 153/4/12 152/4/12 156/4/12
f 151/4/13 153/4/13 164/4/13
f 166/4/14 168/4/14 155/4/14
f 165/4/15 164/4/15 168/4/15
f 163/4/16 165/4/16 158/4/16
f 160/4/17 162/4/17 167/4/17
f 159/4/18 158/4/18 162/4/18
f 157/4/19 159/4/19 146/4/19
f 149/4/20 148/4/20 161/4/20
f 163/4/21 157/4/21 145/4/21
f 150/4/22 156/4/22 152/4/22
f 161/4/23 148/4/23 146/4/23
f 154/4/24 149/4/24 160/4/24
f 155/4/25 168/4/25 164/4/25
f 167/4/26 162/4/26 158/4/26
f 170/4/22 172/4/22 171/4/22
f 172/4/25 176/4/25 175/4/25
f 176/4/26 174/4/26 173/4/26
f 174/4/23 170/4/23 169/4/23
f 175/4/21 173/4/21 169/4/21
f 172/4/24 170/4/24 174/4/24
f 178/2/22 180/2/22 179/2/22
f 180/2/25 184/2/25 183/2/25
f 184/2/26 182/2/26 181/2/26
f 182/2/23 178/2/23 177/2/23
f 183/2/21 181/2/21 177/2/21
f 180/2/24 178/2/24 182/2/24
f 186/5/22 188/5/22 187/5/22
f 188/5/25 192/5/25 191/5/25
f 192/5/26 190/5/26 189/5/26
f 190/5/23 186/5/23 185/5/23
f 191/5/21 189/5/21 185/5/21
f 188/5/24 186/5/24 190/5/24
f 194/2/22 196/2/22 195/2/22
f 196/2/25 200/2/25 199/2/25
f 200/2/26 198/2/26 197/2/26
f 198/2/23 194/2/23 193/2/23
f 199/2/21 197/2/21 193/2/21
f 196/2/24 194/2/24 198/2/24
f 202/5/22 204/5/22 203/5/22
f 204/5/25 208/5/25 207/5/25
f 208/5/26 206/5/26 205/5/26
f 206/5/23 202/5/23 201/5/23
f 207/5/21 205/5/21 201/5/21
f 204/5/24 202/5/24 206/5/24
f 210/2/22 212/2/22 211/2/22
f 212/2/25 216/2/25 215/2/25
f 216/2/26 214/2/26 213/2/26
f 214/2/23 210/2/23 209/2/23
f 215/2/21 213/2/21 209/2/21
f 212/2/24 210/2/24 214/2/24
f 218/1/55 220/1/55 219/1/55
f 220/1/56 222/1/56 221/1/56
f 222/1/57 224/1/57 223/1/57
f 224/1/58 226/1/58 225/1/58
f 226/1/59 228/1/59 227/1/59
f 228/1/60 230/1/60 229/1/60
f 230/1/61 232/1/61 231/1/61
f 232/1/62 234/1/62 233/1/62
f 233/1/63 234/1/63 236/1/63
f 236/1/64 238/1/64 237/1/64
f 222/1/24 220/1/24 218/1/24
f 218/1/24 240/1/24 238/1/24
f 238/1/24 236/1/24 234/1/24
f 234/1/24 232/1/24 230/1/24
f 230/1/24 228/1/24 226/1/24
f 226/1/24 224/1/24 222/1/24
f 222/1/24 218/1/24 238/1/24
f 238/1/24 234/1/24 230/1/24
f 230/1/24 226/1/24 222/1/24
f 238/1/65 240/1/65 239/1/65
f 240/1/66 218/1/66 217/1/66
f 239/1/21 217/1/21 219/1/21
f 219/1/21 221/1/21 223/1/21
f 223/1/21 225/1/21 227/1/21
f 227/1/21 229/1/21 231/1/21
f 231/1/21 233/1/21 235/1/21
f 235/1/21 237/1/21 239/1/21
f 239/1/21 219/1/21 223/1/21
f 223/1/21 227/1/21 231/1/21
f 231/1/21 235/1/21 239/1/21
f 242/6/67 244/6/67 243/6/67
f 244/6/68 246/6/68 245/6/68
f 246/6/69 248/6/69 247/6/69
f 248/6/70 250/6/70 249/6/70
f 250/6/71 252/6/71 251/6/71
f 252/6/72 254/6/72 253/6/72
f 246/6/24 244/6/24 242/6/24
f 242/6/24 256/6/24 254/6/24
f 254/6/24 252/6/24 250/6/24
f 250/6/24 248/6/24 246/6/24
f 246/6/24 242/6/24 254/6/24
f 254/6/73 256/6/73 255/6/73
f 256/6/74 242/6/74 241/6/74
f 255/6/21 241/6/21 243/6/21
f 243/6/21 245/6/21 247/6/21
f 247/6/21 249/6/21 251/6/21
f 251/6/21 253/6/21 255/6/21
f 255/6/21 243/6/21 247/6/21
f 258/6/22 260/6/22 259/6/22
f 260/6/25 264/6/25 263/6/25
f 264/6/26 262/6/26 261/6/26
f 262/6/23 258/6/23 257/6/23
f 263/6/21 261/6/21 257/6/21
f 260/6/24 258/6/24 262/6/24
