# Blender 5.1.1
# www.blender.org
o peti
v -0.535000 -0.275000 0.295000
v -0.535000 -0.260000 0.310000
v -0.550000 -0.260000 0.295000
v -0.535000 0.260000 0.310000
v -0.535000 0.275000 0.295000
v -0.550000 0.260000 0.295000
v -0.535000 -0.275000 -0.295000
v -0.550000 -0.260000 -0.295000
v -0.535000 -0.260000 -0.310000
v -0.535000 0.275000 -0.295000
v -0.535000 0.260000 -0.310000
v -0.550000 0.260000 -0.295000
v 0.535000 -0.275000 0.295000
v 0.550000 -0.260000 0.295000
v 0.535000 -0.260000 0.310000
v 0.535000 0.275000 0.295000
v 0.535000 0.260000 0.310000
v 0.550000 0.260000 0.295000
v 0.535000 -0.275000 -0.295000
v 0.535000 -0.260000 -0.310000
v 0.550000 -0.260000 -0.295000
v 0.535000 0.275000 -0.295000
v 0.550000 0.260000 -0.295000
v 0.535000 0.260000 -0.310000
v -0.550000 0.275000 -0.310000
v 0.550000 0.275000 -0.310000
v -0.550000 0.120000 -0.268468
v 0.550000 0.120000 -0.268468
v -0.550000 0.006532 -0.155000
v 0.550000 0.006532 -0.155000
v -0.550000 -0.035000 0.000000
v 0.550000 -0.035000 0.000000
v -0.550000 0.006532 0.155000
v 0.550000 0.006532 0.155000
v -0.550000 0.120000 0.268468
v 0.550000 0.120000 0.268468
v -0.550000 0.275000 0.310000
v 0.550000 0.275000 0.310000
v -0.550000 0.430000 0.268468
v 0.550000 0.430000 0.268468
v -0.550000 0.543468 0.155000
v 0.550000 0.543468 0.155000
v -0.550000 0.585000 0.000000
v 0.550000 0.585000 0.000000
v -0.550000 0.543468 -0.155000
v 0.550000 0.543468 -0.155000
v -0.550000 0.430000 -0.268468
v 0.550000 0.430000 -0.268468
v -0.410000 -0.275000 0.315000
v -0.410000 -0.270000 0.320000
v -0.415000 -0.270000 0.315000
v -0.410000 0.280000 0.320000
v -0.410000 0.285000 0.315000
v -0.415000 0.280000 0.315000
v -0.410000 -0.275000 -0.315000
v -0.415000 -0.270000 -0.315000
v -0.410000 -0.270000 -0.320000
v -0.410000 0.285000 -0.315000
v -0.410000 0.280000 -0.320000
v -0.415000 0.280000 -0.315000
v -0.350000 -0.275000 0.315000
v -0.345000 -0.270000 0.315000
v -0.350000 -0.270000 0.320000
v -0.350000 0.285000 0.315000
v -0.350000 0.280000 0.320000
v -0.345000 0.280000 0.315000
v -0.350000 -0.275000 -0.315000
v -0.350000 -0.270000 -0.320000
v -0.345000 -0.270000 -0.315000
v -0.350000 0.285000 -0.315000
v -0.345000 0.280000 -0.315000
v -0.350000 0.280000 -0.320000
v -0.415000 0.275000 -0.320000
v -0.345000 0.275000 -0.320000
v -0.415000 0.115000 -0.277128
v -0.345000 0.115000 -0.277128
v -0.415000 -0.002128 -0.160000
v -0.345000 -0.002128 -0.160000
v -0.415000 -0.045000 0.000000
v -0.345000 -0.045000 0.000000
v -0.415000 -0.002128 0.160000
v -0.345000 -0.002128 0.160000
v -0.415000 0.115000 0.277128
v -0.345000 0.115000 0.277128
v -0.415000 0.275000 0.320000
v -0.345000 0.275000 0.320000
v -0.415000 0.435000 0.277128
v -0.345000 0.435000 0.277128
v -0.415000 0.552128 0.160000
v -0.345000 0.552128 0.160000
v -0.415000 0.595000 0.000000
v -0.345000 0.595000 0.000000
v -0.415000 0.552128 -0.160000
v -0.345000 0.552128 -0.160000
v -0.415000 0.435000 -0.277128
v -0.345000 0.435000 -0.277128
v 0.350000 -0.275000 0.315000
v 0.350000 -0.270000 0.320000
v 0.345000 -0.270000 0.315000
v 0.350000 0.280000 0.320000
v 0.350000 0.285000 0.315000
v 0.345000 0.280000 0.315000
v 0.350000 -0.275000 -0.315000
v 0.345000 -0.270000 -0.315000
v 0.350000 -0.270000 -0.320000
v 0.350000 0.285000 -0.315000
v 0.350000 0.280000 -0.320000
v 0.345000 0.280000 -0.315000
v 0.410000 -0.275000 0.315000
v 0.415000 -0.270000 0.315000
v 0.410000 -0.270000 0.320000
v 0.410000 0.285000 0.315000
v 0.410000 0.280000 0.320000
v 0.415000 0.280000 0.315000
v 0.410000 -0.275000 -0.315000
v 0.410000 -0.270000 -0.320000
v 0.415000 -0.270000 -0.315000
v 0.410000 0.285000 -0.315000
v 0.415000 0.280000 -0.315000
v 0.410000 0.280000 -0.320000
v 0.345000 0.275000 -0.320000
v 0.415000 0.275000 -0.320000
v 0.345000 0.115000 -0.277128
v 0.415000 0.115000 -0.277128
v 0.345000 -0.002128 -0.160000
v 0.415000 -0.002128 -0.160000
v 0.345000 -0.045000 0.000000
v 0.415000 -0.045000 0.000000
v 0.345000 -0.002128 0.160000
v 0.415000 -0.002128 0.160000
v 0.345000 0.115000 0.277128
v 0.415000 0.115000 0.277128
v 0.345000 0.275000 0.320000
v 0.415000 0.275000 0.320000
v 0.345000 0.435000 0.277128
v 0.415000 0.435000 0.277128
v 0.345000 0.552128 0.160000
v 0.415000 0.552128 0.160000
v 0.345000 0.595000 0.000000
v 0.415000 0.595000 0.000000
v 0.345000 0.552128 -0.160000
v 0.415000 0.552128 -0.160000
v 0.345000 0.435000 -0.277128
v 0.415000 0.435000 -0.277128
v -0.051000 0.155000 0.326000
v -0.051000 0.164000 0.335000
v -0.060000 0.164000 0.326000
v -0.051000 0.286000 0.335000
v -0.051000 0.295000 0.326000
v -0.060000 0.286000 0.326000
v -0.051000 0.155000 0.314000
v -0.060000 0.164000 0.314000
v -0.051000 0.164000 0.305000
v -0.051000 0.295000 0.314000
v -0.051000 0.286000 0.305000
v -0.060000 0.286000 0.314000
v 0.051000 0.155000 0.326000
v 0.060000 0.164000 0.326000
v 0.051000 0.164000 0.335000
v 0.051000 0.295000 0.326000
v 0.051000 0.286000 0.335000
v 0.060000 0.286000 0.326000
v 0.051000 0.155000 0.314000
v 0.051000 0.164000 0.305000
v 0.060000 0.164000 0.314000
v 0.051000 0.295000 0.314000
v 0.060000 0.286000 0.314000
v 0.051000 0.286000 0.305000
v -0.540000 -0.155000 0.314500
v -0.540000 -0.143000 0.314500
v -0.540000 -0.155000 0.309500
v -0.540000 -0.143000 0.309500
v 0.540000 -0.155000 0.314500
v 0.540000 -0.143000 0.314500
v 0.540000 -0.155000 0.309500
v 0.540000 -0.143000 0.309500
v -0.540000 -0.005000 0.314500
v -0.540000 0.007000 0.314500
v -0.540000 -0.005000 0.309500
v -0.540000 0.007000 0.309500
v 0.540000 -0.005000 0.314500
v 0.540000 0.007000 0.314500
v 0.540000 -0.005000 0.309500
v 0.540000 0.007000 0.309500
v -0.540000 0.145000 0.314500
v -0.540000 0.157000 0.314500
v -0.540000 0.145000 0.309500
v -0.540000 0.157000 0.309500
v 0.540000 0.145000 0.314500
v 0.540000 0.157000 0.314500
v 0.540000 0.145000 0.309500
v 0.540000 0.157000 0.309500
vn -0.5773 -0.5773 0.5774
vn -0.5773 0.5773 0.5774
vn -0.5773 -0.5773 -0.5774
vn -0.5773 0.5773 -0.5774
vn 0.5773 -0.5773 0.5774
vn 0.5773 0.5773 0.5774
vn 0.5773 -0.5773 -0.5774
vn 0.5773 0.5773 -0.5774
vn -0.7071 -0.7071 -0.0000
vn -0.7071 -0.0000 0.7071
vn -0.7071 0.7071 -0.0000
vn -0.7071 -0.0000 -0.7071
vn -0.0000 -0.7071 -0.7071
vn -0.0000 0.7071 -0.7071
vn 0.7071 -0.0000 -0.7071
vn 0.7071 -0.7071 -0.0000
vn 0.7071 0.7071 -0.0000
vn 0.7071 -0.0000 0.7071
vn -0.0000 -0.7071 0.7071
vn -0.0000 0.7071 0.7071
vn -0.0000 -1.0000 -0.0000
vn -1.0000 -0.0000 -0.0000
vn -0.0000 -0.0000 1.0000
vn -0.0000 1.0000 -0.0000
vn -0.0000 -0.0000 -1.0000
vn 1.0000 -0.0000 -0.0000
vn -0.0000 -0.2588 -0.9659
vn -0.0000 -0.9659 -0.2588
vn -0.0000 -0.9659 0.2588
vn -0.0000 -0.2588 0.9659
vn -0.0000 0.2588 0.9659
vn -0.0000 0.9659 0.2588
vn -0.0000 0.9659 -0.2588
vn -0.0000 0.2588 -0.9659
vn -0.5774 -0.5774 0.5774
vn -0.5774 0.5774 0.5774
vn -0.5774 -0.5774 -0.5774
vn -0.5774 0.5774 -0.5774
vn 0.5774 -0.5774 0.5774
vn 0.5774 0.5774 0.5774
vn 0.5774 -0.5774 -0.5774
vn 0.5774 0.5774 -0.5774
vn -0.5773 -0.5774 0.5774
vn -0.5773 0.5774 0.5774
vn -0.5773 -0.5774 -0.5774
vn -0.5773 0.5774 -0.5774
vn 0.5773 -0.5774 0.5774
vn 0.5773 0.5774 0.5774
vn 0.5773 -0.5774 -0.5774
vn 0.5773 0.5774 -0.5774
vt 0.093750 0.968750
vt 0.781250 0.968750
vt 0.906250 0.968750
vt 0.031250 0.968750
s 0
f 1/1/1 2/1/1 3/1/1
f 4/1/2 5/1/2 6/1/2
f 7/1/3 8/1/3 9/1/3
f 10/1/4 11/1/4 12/1/4
f 13/1/5 14/1/5 15/1/5
f 16/1/6 17/1/6 18/1/6
f 19/1/7 20/1/7 21/1/7
f 22/1/8 23/1/8 24/1/8
f 1/1/9 8/1/9 7/1/9
f 4/1/10 3/1/10 2/1/10
f 10/1/11 6/1/11 5/1/11
f 9/1/12 12/1/12 11/1/12
f 7/1/13 20/1/13 19/1/13
f 22/1/14 11/1/14 10/1/14
f 21/1/15 24/1/15 23/1/15
f 19/1/16 14/1/16 13/1/16
f 16/1/17 23/1/17 22/1/17
f 15/1/18 18/1/18 17/1/18
f 13/1/19 2/1/19 1/1/19
f 5/1/20 17/1/20 16/1/20
f 19/1/21 1/1/21 7/1/21
f 6/1/22 8/1/22 3/1/22
f 17/1/23 2/1/23 15/1/23
f 10/1/24 16/1/24 22/1/24
f 11/1/25 20/1/25 9/1/25
f 23/1/26 14/1/26 21/1/26
f 26/1/27 27/1/27 25/1/27
f 28/1/13 29/1/13 27/1/13
f 30/1/28 31/1/28 29/1/28
f 32/1/29 33/1/29 31/1/29
f 34/1/19 35/1/19 33/1/19
f 36/1/30 37/1/30 35/1/30
f 38/1/31 39/1/31 37/1/31
f 40/1/20 41/1/20 39/1/20
f 42/1/32 43/1/32 41/1/32
f 43/1/33 46/1/33 45/1/33
f 46/1/26 38/1/26 30/1/26
f 46/1/14 47/1/14 45/1/14
f 48/1/34 25/1/34 47/1/34
f 31/1/22 39/1/22 47/1/22
f 49/2/35 50/2/35 51/2/35
f 52/2/36 53/2/36 54/2/36
f 55/2/37 56/2/37 57/2/37
f 58/2/38 59/2/38 60/2/38
f 61/2/39 62/2/39 63/2/39
f 64/2/40 65/2/40 66/2/40
f 67/2/41 68/2/41 69/2/41
f 70/2/42 71/2/42 72/2/42
f 49/2/9 56/2/9 55/2/9
f 52/2/10 51/2/10 50/2/10
f 58/2/11 54/2/11 53/2/11
f 57/2/12 60/2/12 59/2/12
f 55/2/13 68/2/13 67/2/13
f 70/2/14 59/2/14 58/2/14
f 69/2/15 72/2/15 71/2/15
f 67/2/16 62/2/16 61/2/16
f 64/2/17 71/2/17 70/2/17
f 63/2/18 66/2/18 65/2/18
f 61/2/19 50/2/19 49/2/19
f 53/2/20 65/2/20 64/2/20
f 67/2/21 49/2/21 55/2/21
f 54/2/22 56/2/22 51/2/22
f 65/2/23 50/2/23 63/2/23
f 58/2/24 64/2/24 70/2/24
f 59/2/25 68/2/25 57/2/25
f 71/2/26 62/2/26 69/2/26
f 74/2/27 75/2/27 73/2/27
f 76/2/13 77/2/13 75/2/13
f 78/2/28 79/2/28 77/2/28
f 80/2/29 81/2/29 79/2/29
f 82/2/19 83/2/19 81/2/19
f 84/2/30 85/2/30 83/2/30
f 86/2/31 87/2/31 85/2/31
f 88/2/20 89/2/20 87/2/20
f 90/2/32 91/2/32 89/2/32
f 92/2/33 93/2/33 91/2/33
f 94/2/26 86/2/26 78/2/26
f 94/2/14 95/2/14 93/2/14
f 95/2/34 74/2/34 73/2/34
f 79/2/22 87/2/22 95/2/22
f 97/2/35 98/2/35 99/2/35
f 100/2/36 101/2/36 102/2/36
f 103/2/37 104/2/37 105/2/37
f 106/2/38 107/2/38 108/2/38
f 109/2/39 110/2/39 111/2/39
f 112/2/40 113/2/40 114/2/40
f 115/2/41 116/2/41 117/2/41
f 118/2/42 119/2/42 120/2/42
f 97/2/9 104/2/9 103/2/9
f 100/2/10 99/2/10 98/2/10
f 106/2/11 102/2/11 101/2/11
f 105/2/12 108/2/12 107/2/12
f 103/2/13 116/2/13 115/2/13
f 118/2/14 107/2/14 106/2/14
f 117/2/15 120/2/15 119/2/15
f 115/2/16 110/2/16 109/2/16
f 112/2/17 119/2/17 118/2/17
f 111/2/18 114/2/18 113/2/18
f 109/2/19 98/2/19 97/2/19
f 101/2/20 113/2/20 112/2/20
f 115/2/21 97/2/21 103/2/21
f 102/2/22 104/2/22 99/2/22
f 113/2/23 98/2/23 111/2/23
f 106/2/24 112/2/24 118/2/24
f 107/2/25 116/2/25 105/2/25
f 119/2/26 110/2/26 117/2/26
f 122/2/27 123/2/27 121/2/27
f 124/2/13 125/2/13 123/2/13
f 126/2/28 127/2/28 125/2/28
f 128/2/29 129/2/29 127/2/29
f 130/2/19 131/2/19 129/2/19
f 132/2/30 133/2/30 131/2/30
f 134/2/31 135/2/31 133/2/31
f 136/2/20 137/2/20 135/2/20
f 138/2/32 139/2/32 137/2/32
f 140/2/33 141/2/33 139/2/33
f 142/2/26 134/2/26 126/2/26
f 142/2/14 143/2/14 141/2/14
f 143/2/34 122/2/34 121/2/34
f 127/2/22 135/2/22 143/2/22
f 145/3/43 146/3/43 147/3/43
f 148/3/44 149/3/44 150/3/44
f 151/3/45 152/3/45 153/3/45
f 154/3/46 155/3/46 156/3/46
f 157/3/47 158/3/47 159/3/47
f 160/3/48 161/3/48 162/3/48
f 163/3/49 164/3/49 165/3/49
f 166/3/50 167/3/50 168/3/50
f 145/3/9 152/3/9 151/3/9
f 148/3/10 147/3/10 146/3/10
f 154/3/11 150/3/11 149/3/11
f 153/3/12 156/3/12 155/3/12
f 151/3/13 164/3/13 163/3/13
f 166/3/14 155/3/14 154/3/14
f 165/3/15 168/3/15 167/3/15
f 163/3/16 158/3/16 157/3/16
f 160/3/17 167/3/17 166/3/17
f 159/3/18 162/3/18 161/3/18
f 157/3/19 146/3/19 145/3/19
f 149/3/20 161/3/20 160/3/20
f 163/3/21 145/3/21 151/3/21
f 150/3/22 152/3/22 147/3/22
f 161/3/23 146/3/23 159/3/23
f 154/3/24 160/3/24 166/3/24
f 155/3/25 164/3/25 153/3/25
f 167/3/26 158/3/26 165/3/26
f 170/4/22 171/4/22 169/4/22
f 172/4/25 175/4/25 171/4/25
f 176/4/26 173/4/26 175/4/26
f 174/4/23 169/4/23 173/4/23
f 175/4/21 169/4/21 171/4/21
f 172/4/24 174/4/24 176/4/24
f 178/4/22 179/4/22 177/4/22
f 180/4/25 183/4/25 179/4/25
f 184/4/26 181/4/26 183/4/26
f 182/4/23 177/4/23 181/4/23
f 183/4/21 177/4/21 179/4/21
f 180/4/24 182/4/24 184/4/24
f 186/4/22 187/4/22 185/4/22
f 188/4/25 191/4/25 187/4/25
f 192/4/26 189/4/26 191/4/26
f 190/4/23 185/4/23 189/4/23
f 191/4/21 185/4/21 187/4/21
f 188/4/24 190/4/24 192/4/24
f 1/1/9 3/1/9 8/1/9
f 4/1/10 6/1/10 3/1/10
f 10/1/11 12/1/11 6/1/11
f 9/1/12 8/1/12 12/1/12
f 7/1/13 9/1/13 20/1/13
f 22/1/14 24/1/14 11/1/14
f 21/1/15 20/1/15 24/1/15
f 19/1/16 21/1/16 14/1/16
f 16/1/17 18/1/17 23/1/17
f 15/1/18 14/1/18 18/1/18
f 13/1/19 15/1/19 2/1/19
f 5/1/20 4/1/20 17/1/20
f 19/1/21 13/1/21 1/1/21
f 6/1/22 12/1/22 8/1/22
f 17/1/23 4/1/23 2/1/23
f 10/1/24 5/1/24 16/1/24
f 11/1/25 24/1/25 20/1/25
f 23/1/26 18/1/26 14/1/26
f 26/1/27 28/1/27 27/1/27
f 28/1/13 30/1/13 29/1/13
f 30/1/28 32/1/28 31/1/28
f 32/1/29 34/1/29 33/1/29
f 34/1/19 36/1/19 35/1/19
f 36/1/30 38/1/30 37/1/30
f 38/1/31 40/1/31 39/1/31
f 40/1/20 42/1/20 41/1/20
f 42/1/32 44/1/32 43/1/32
f 43/1/33 44/1/33 46/1/33
f 30/1/26 28/1/26 26/1/26
f 26/1/26 48/1/26 46/1/26
f 46/1/26 44/1/26 42/1/26
f 42/1/26 40/1/26 38/1/26
f 38/1/26 36/1/26 34/1/26
f 34/1/26 32/1/26 30/1/26
f 30/1/26 26/1/26 46/1/26
f 46/1/26 42/1/26 38/1/26
f 38/1/26 34/1/26 30/1/26
f 46/1/14 48/1/14 47/1/14
f 48/1/34 26/1/34 25/1/34
f 47/1/22 25/1/22 27/1/22
f 27/1/22 29/1/22 31/1/22
f 31/1/22 33/1/22 35/1/22
f 35/1/22 37/1/22 39/1/22
f 39/1/22 41/1/22 43/1/22
f 43/1/22 45/1/22 47/1/22
f 47/1/22 27/1/22 31/1/22
f 31/1/22 35/1/22 39/1/22
f 39/1/22 43/1/22 47/1/22
f 49/2/9 51/2/9 56/2/9
f 52/2/10 54/2/10 51/2/10
f 58/2/11 60/2/11 54/2/11
f 57/2/12 56/2/12 60/2/12
f 55/2/13 57/2/13 68/2/13
f 70/2/14 72/2/14 59/2/14
f 69/2/15 68/2/15 72/2/15
f 67/2/16 69/2/16 62/2/16
f 64/2/17 66/2/17 71/2/17
f 63/2/18 62/2/18 66/2/18
f 61/2/19 63/2/19 50/2/19
f 53/2/20 52/2/20 65/2/20
f 67/2/21 61/2/21 49/2/21
f 54/2/22 60/2/22 56/2/22
f 65/2/23 52/2/23 50/2/23
f 58/2/24 53/2/24 64/2/24
f 59/2/25 72/2/25 68/2/25
f 71/2/26 66/2/26 62/2/26
f 74/2/27 76/2/27 75/2/27
f 76/2/13 78/2/13 77/2/13
f 78/2/28 80/2/28 79/2/28
f 80/2/29 82/2/29 81/2/29
f 82/2/19 84/2/19 83/2/19
f 84/2/30 86/2/30 85/2/30
f 86/2/31 88/2/31 87/2/31
f 88/2/20 90/2/20 89/2/20
f 90/2/32 92/2/32 91/2/32
f 92/2/33 94/2/33 93/2/33
f 78/2/26 76/2/26 74/2/26
f 74/2/26 96/2/26 94/2/26
f 94/2/26 92/2/26 90/2/26
f 90/2/26 88/2/26 86/2/26
f 86/2/26 84/2/26 82/2/26
f 82/2/26 80/2/26 78/2/26
f 78/2/26 74/2/26 94/2/26
f 94/2/26 90/2/26 86/2/26
f 86/2/26 82/2/26 78/2/26
f 94/2/14 96/2/14 95/2/14
f 95/2/34 96/2/34 74/2/34
f 95/2/22 73/2/22 75/2/22
f 75/2/22 77/2/22 79/2/22
f 79/2/22 81/2/22 83/2/22
f 83/2/22 85/2/22 87/2/22
f 87/2/22 89/2/22 91/2/22
f 91/2/22 93/2/22 95/2/22
f 95/2/22 75/2/22 79/2/22
f 79/2/22 83/2/22 87/2/22
f 87/2/22 91/2/22 95/2/22
f 97/2/9 99/2/9 104/2/9
f 100/2/10 102/2/10 99/2/10
f 106/2/11 108/2/11 102/2/11
f 105/2/12 104/2/12 108/2/12
f 103/2/13 105/2/13 116/2/13
f 118/2/14 120/2/14 107/2/14
f 117/2/15 116/2/15 120/2/15
f 115/2/16 117/2/16 110/2/16
f 112/2/17 114/2/17 119/2/17
f 111/2/18 110/2/18 114/2/18
f 109/2/19 111/2/19 98/2/19
f 101/2/20 100/2/20 113/2/20
f 115/2/21 109/2/21 97/2/21
f 102/2/22 108/2/22 104/2/22
f 113/2/23 100/2/23 98/2/23
f 106/2/24 101/2/24 112/2/24
f 107/2/25 120/2/25 116/2/25
f 119/2/26 114/2/26 110/2/26
f 122/2/27 124/2/27 123/2/27
f 124/2/13 126/2/13 125/2/13
f 126/2/28 128/2/28 127/2/28
f 128/2/29 130/2/29 129/2/29
f 130/2/19 132/2/19 131/2/19
f 132/2/30 134/2/30 133/2/30
f 134/2/31 136/2/31 135/2/31
f 136/2/20 138/2/20 137/2/20
f 138/2/32 140/2/32 139/2/32
f 140/2/33 142/2/33 141/2/33
f 126/2/26 124/2/26 122/2/26
f 122/2/26 144/2/26 142/2/26
f 142/2/26 140/2/26 138/2/26
f 138/2/26 136/2/26 134/2/26
f 134/2/26 132/2/26 130/2/26
f 130/2/26 128/2/26 126/2/26
f 126/2/26 122/2/26 142/2/26
f 142/2/26 138/2/26 134/2/26
f 134/2/26 130/2/26 126/2/26
f 142/2/14 144/2/14 143/2/14
f 143/2/34 144/2/34 122/2/34
f 143/2/22 121/2/22 123/2/22
f 123/2/22 125/2/22 127/2/22
f 127/2/22 129/2/22 131/2/22
f 131/2/22 133/2/22 135/2/22
f 135/2/22 137/2/22 139/2/22
f 139/2/22 141/2/22 143/2/22
f 143/2/22 123/2/22 127/2/22
f 127/2/22 131/2/22 135/2/22
f 135/2/22 139/2/22 143/2/22
f 145/3/9 147/3/9 152/3/9
f 148/3/10 150/3/10 147/3/10
f 154/3/11 156/3/11 150/3/11
f 153/3/12 152/3/12 156/3/12
f 151/3/13 153/3/13 164/3/13
f 166/3/14 168/3/14 155/3/14
f 165/3/15 164/3/15 168/3/15
f 163/3/16 165/3/16 158/3/16
f 160/3/17 162/3/17 167/3/17
f 159/3/18 158/3/18 162/3/18
f 157/3/19 159/3/19 146/3/19
f 149/3/20 148/3/20 161/3/20
f 163/3/21 157/3/21 145/3/21
f 150/3/22 156/3/22 152/3/22
f 161/3/23 148/3/23 146/3/23
f 154/3/24 149/3/24 160/3/24
f 155/3/25 168/3/25 164/3/25
f 167/3/26 162/3/26 158/3/26
f 170/4/22 172/4/22 171/4/22
f 172/4/25 176/4/25 175/4/25
f 176/4/26 174/4/26 173/4/26
f 174/4/23 170/4/23 169/4/23
f 175/4/21 173/4/21 169/4/21
f 172/4/24 170/4/24 174/4/24
f 178/4/22 180/4/22 179/4/22
f 180/4/25 184/4/25 183/4/25
f 184/4/26 182/4/26 181/4/26
f 182/4/23 178/4/23 177/4/23
f 183/4/21 181/4/21 177/4/21
f 180/4/24 178/4/24 182/4/24
f 186/4/22 188/4/22 187/4/22
f 188/4/25 192/4/25 191/4/25
f 192/4/26 190/4/26 189/4/26
f 190/4/23 186/4/23 185/4/23
f 191/4/21 189/4/21 185/4/21
f 188/4/24 186/4/24 190/4/24
