# Blender 5.1.1
# www.blender.org
o rak_bibit
v -0.013000 -0.750000 0.013000
v -0.013000 -0.738000 0.025000
v -0.025000 -0.738000 0.013000
v -0.013000 0.738000 0.025000
v -0.013000 0.750000 0.013000
v -0.025000 0.738000 0.013000
v -0.013000 -0.750000 -0.013000
v -0.025000 -0.738000 -0.013000
v -0.013000 -0.738000 -0.025000
v -0.013000 0.750000 -0.013000
v -0.013000 0.738000 -0.025000
v -0.025000 0.738000 -0.013000
v 0.013000 -0.750000 0.013000
v 0.025000 -0.738000 0.013000
v 0.013000 -0.738000 0.025000
v 0.013000 0.750000 0.013000
v 0.013000 0.738000 0.025000
v 0.025000 0.738000 0.013000
v 0.013000 -0.750000 -0.013000
v 0.013000 -0.738000 -0.025000
v 0.025000 -0.738000 -0.013000
v 0.013000 0.750000 -0.013000
v 0.025000 0.738000 -0.013000
v 0.013000 0.738000 -0.025000
v -0.013000 -0.750000 -0.477000
v -0.013000 -0.738000 -0.465000
v -0.025000 -0.738000 -0.477000
v -0.013000 0.738000 -0.465000
v -0.013000 0.750000 -0.477000
v -0.025000 0.738000 -0.477000
v -0.013000 -0.750000 -0.503000
v -0.025000 -0.738000 -0.503000
v -0.013000 -0.738000 -0.515000
v -0.013000 0.750000 -0.503000
v -0.013000 0.738000 -0.515000
v -0.025000 0.738000 -0.503000
v 0.013000 -0.750000 -0.477000
v 0.025000 -0.738000 -0.477000
v 0.013000 -0.738000 -0.465000
v 0.013000 0.750000 -0.477000
v 0.013000 0.738000 -0.465000
v 0.025000 0.738000 -0.477000
v 0.013000 -0.750000 -0.503000
v 0.013000 -0.738000 -0.515000
v 0.025000 -0.738000 -0.503000
v 0.013000 0.750000 -0.503000
v 0.025000 0.738000 -0.503000
v 0.013000 0.738000 -0.515000
v 1.727000 -0.750000 0.013000
v 1.727000 -0.738000 0.025000
v 1.715000 -0.738000 0.013000
v 1.727000 0.738000 0.025000
v 1.727000 0.750000 0.013000
v 1.715000 0.738000 0.013000
v 1.727000 -0.750000 -0.013000
v 1.715000 -0.738000 -0.013000
v 1.727000 -0.738000 -0.025000
v 1.727000 0.750000 -0.013000
v 1.727000 0.738000 -0.025000
v 1.715000 0.738000 -0.013000
v 1.753000 -0.750000 0.013000
v 1.765000 -0.738000 0.013000
v 1.753000 -0.738000 0.025000
v 1.753000 0.750000 0.013000
v 1.753000 0.738000 0.025000
v 1.765000 0.738000 0.013000
v 1.753000 -0.750000 -0.013000
v 1.753000 -0.738000 -0.025000
v 1.765000 -0.738000 -0.013000
v 1.753000 0.750000 -0.013000
v 1.765000 0.738000 -0.013000
v 1.753000 0.738000 -0.025000
v 1.727000 -0.750000 -0.477000
v 1.727000 -0.738000 -0.465000
v 1.715000 -0.738000 -0.477000
v 1.727000 0.738000 -0.465000
v 1.727000 0.750000 -0.477000
v 1.715000 0.738000 -0.477000
v 1.727000 -0.750000 -0.503000
v 1.715000 -0.738000 -0.503000
v 1.727000 -0.738000 -0.515000
v 1.727000 0.750000 -0.503000
v 1.727000 0.738000 -0.515000
v 1.715000 0.738000 -0.503000
v 1.753000 -0.750000 -0.477000
v 1.765000 -0.738000 -0.477000
v 1.753000 -0.738000 -0.465000
v 1.753000 0.750000 -0.477000
v 1.753000 0.738000 -0.465000
v 1.765000 0.738000 -0.477000
v 1.753000 -0.750000 -0.503000
v 1.753000 -0.738000 -0.515000
v 1.765000 -0.738000 -0.503000
v 1.753000 0.750000 -0.503000
v 1.765000 0.738000 -0.503000
v 1.753000 0.738000 -0.515000
v -0.021000 -0.500000 0.021000
v -0.021000 -0.491000 0.030000
v -0.030000 -0.491000 0.021000
v -0.021000 -0.479000 0.030000
v -0.021000 -0.470000 0.021000
v -0.030000 -0.479000 0.021000
v -0.021000 -0.500000 -0.511000
v -0.030000 -0.491000 -0.511000
v -0.021000 -0.491000 -0.520000
v -0.021000 -0.470000 -0.511000
v -0.021000 -0.479000 -0.520000
v -0.030000 -0.479000 -0.511000
v 1.761000 -0.500000 0.021000
v 1.770000 -0.491000 0.021000
v 1.761000 -0.491000 0.030000
v 1.761000 -0.470000 0.021000
v 1.761000 -0.479000 0.030000
v 1.770000 -0.479000 0.021000
v 1.761000 -0.500000 -0.511000
v 1.761000 -0.491000 -0.520000
v 1.770000 -0.491000 -0.511000
v 1.761000 -0.470000 -0.511000
v 1.770000 -0.479000 -0.511000
v 1.761000 -0.479000 -0.520000
v 0.170000 -0.470000 -0.325000
v 0.170000 -0.340000 -0.345000
v 0.226569 -0.470000 -0.301569
v 0.240711 -0.340000 -0.315711
v 0.250000 -0.470000 -0.245000
v 0.270000 -0.340000 -0.245000
v 0.226569 -0.470000 -0.188431
v 0.240711 -0.340000 -0.174289
v 0.170000 -0.470000 -0.165000
v 0.170000 -0.340000 -0.145000
v 0.113431 -0.470000 -0.188431
v 0.099289 -0.340000 -0.174289
v 0.090000 -0.470000 -0.245000
v 0.070000 -0.340000 -0.245000
v 0.113431 -0.470000 -0.301569
v 0.099289 -0.340000 -0.315711
v 0.170000 -0.340000 -0.330000
v 0.170000 -0.330000 -0.330000
v 0.230104 -0.340000 -0.305104
v 0.230104 -0.330000 -0.305104
v 0.255000 -0.340000 -0.245000
v 0.255000 -0.330000 -0.245000
v 0.230104 -0.340000 -0.184896
v 0.230104 -0.330000 -0.184896
v 0.170000 -0.340000 -0.160000
v 0.170000 -0.330000 -0.160000
v 0.109896 -0.340000 -0.184896
v 0.109896 -0.330000 -0.184896
v 0.085000 -0.340000 -0.245000
v 0.085000 -0.330000 -0.245000
v 0.109896 -0.340000 -0.305104
v 0.109896 -0.330000 -0.305104
v 0.170000 -0.340000 -0.245000
v 0.200000 -0.348337 -0.301978
v 0.170000 -0.397531 -0.350310
v 0.140000 -0.348337 -0.301978
v 0.140000 -0.351848 -0.300060
v 0.170000 -0.401041 -0.348392
v 0.200000 -0.351848 -0.300060
v 0.170000 -0.343510 -0.243082
v 0.170000 -0.340000 -0.245000
v 0.105671 -0.348337 -0.242131
v 0.079096 -0.397531 -0.191835
v 0.135961 -0.348337 -0.190339
v 0.137617 -0.351848 -0.191307
v 0.080751 -0.401041 -0.192803
v 0.107326 -0.351848 -0.243099
v 0.171655 -0.343510 -0.245968
v 0.170000 -0.340000 -0.245000
v 0.204953 -0.348337 -0.190919
v 0.261786 -0.397531 -0.193371
v 0.234368 -0.348337 -0.243213
v 0.232697 -0.351848 -0.244153
v 0.260114 -0.401041 -0.194311
v 0.203281 -0.351848 -0.191859
v 0.168329 -0.343510 -0.245940
v 0.520000 -0.470000 -0.325000
v 0.520000 -0.340000 -0.345000
v 0.576569 -0.470000 -0.301569
v 0.590711 -0.340000 -0.315711
v 0.600000 -0.470000 -0.245000
v 0.620000 -0.340000 -0.245000
v 0.576569 -0.470000 -0.188431
v 0.590711 -0.340000 -0.174289
v 0.520000 -0.470000 -0.165000
v 0.520000 -0.340000 -0.145000
v 0.463431 -0.470000 -0.188431
v 0.449289 -0.340000 -0.174289
v 0.440000 -0.470000 -0.245000
v 0.420000 -0.340000 -0.245000
v 0.463431 -0.470000 -0.301569
v 0.449289 -0.340000 -0.315711
v 0.520000 -0.340000 -0.330000
v 0.520000 -0.330000 -0.330000
v 0.580104 -0.340000 -0.305104
v 0.580104 -0.330000 -0.305104
v 0.605000 -0.340000 -0.245000
v 0.605000 -0.330000 -0.245000
v 0.580104 -0.340000 -0.184896
v 0.580104 -0.330000 -0.184896
v 0.520000 -0.340000 -0.160000
v 0.520000 -0.330000 -0.160000
v 0.459896 -0.340000 -0.184896
v 0.459896 -0.330000 -0.184896
v 0.435000 -0.340000 -0.245000
v 0.435000 -0.330000 -0.245000
v 0.459896 -0.340000 -0.305104
v 0.459896 -0.330000 -0.305104
v 0.520000 -0.340000 -0.245000
v 0.488264 -0.348337 -0.301029
v 0.431385 -0.397531 -0.301899
v 0.455846 -0.348337 -0.250541
v 0.457459 -0.351848 -0.249505
v 0.432998 -0.401041 -0.300863
v 0.489877 -0.351848 -0.299993
v 0.521614 -0.343510 -0.243964
v 0.520000 -0.340000 -0.245000
v 0.487657 -0.348337 -0.189319
v 0.515621 -0.397531 -0.139781
v 0.547605 -0.348337 -0.186824
v 0.547685 -0.351848 -0.188740
v 0.515701 -0.401041 -0.141697
v 0.487736 -0.351848 -0.191235
v 0.520080 -0.343510 -0.246916
v 0.520000 -0.340000 -0.245000
v 0.584393 -0.348337 -0.245191
v 0.613037 -0.397531 -0.294339
v 0.556282 -0.348337 -0.298199
v 0.554588 -0.351848 -0.297300
v 0.611342 -0.401041 -0.293441
v 0.582699 -0.351848 -0.244293
v 0.518306 -0.343510 -0.244102
v 0.870000 -0.470000 -0.325000
v 0.870000 -0.340000 -0.345000
v 0.926569 -0.470000 -0.301569
v 0.940711 -0.340000 -0.315711
v 0.950000 -0.470000 -0.245000
v 0.970000 -0.340000 -0.245000
v 0.926569 -0.470000 -0.188431
v 0.940711 -0.340000 -0.174289
v 0.870000 -0.470000 -0.165000
v 0.870000 -0.340000 -0.145000
v 0.813431 -0.470000 -0.188431
v 0.799289 -0.340000 -0.174289
v 0.790000 -0.470000 -0.245000
v 0.770000 -0.340000 -0.245000
v 0.813431 -0.470000 -0.301569
v 0.799289 -0.340000 -0.315711
v 0.870000 -0.340000 -0.330000
v 0.870000 -0.330000 -0.330000
v 0.930104 -0.340000 -0.305104
v 0.930104 -0.330000 -0.305104
v 0.955000 -0.340000 -0.245000
v 0.955000 -0.330000 -0.245000
v 0.930104 -0.340000 -0.184896
v 0.930104 -0.330000 -0.184896
v 0.870000 -0.340000 -0.160000
v 0.870000 -0.330000 -0.160000
v 0.809896 -0.340000 -0.184896
v 0.809896 -0.330000 -0.184896
v 0.785000 -0.340000 -0.245000
v 0.785000 -0.330000 -0.245000
v 0.809896 -0.340000 -0.305104
v 0.809896 -0.330000 -0.305104
v 0.870000 -0.340000 -0.245000
v 0.805706 -0.348337 -0.248568
v 0.774242 -0.397531 -0.201176
v 0.830674 -0.348337 -0.194010
v 0.832418 -0.351848 -0.194808
v 0.775986 -0.401041 -0.201974
v 0.807449 -0.351848 -0.249366
v 0.871744 -0.343510 -0.245798
v 0.870000 -0.340000 -0.245000
v 0.899379 -0.348337 -0.187699
v 0.956173 -0.397531 -0.184465
v 0.933868 -0.348337 -0.236796
v 0.932299 -0.351848 -0.237898
v 0.954603 -0.401041 -0.185568
v 0.897810 -0.351848 -0.188802
v 0.868431 -0.343510 -0.246102
v 0.870000 -0.340000 -0.245000
v 0.904631 -0.348337 -0.299288
v 0.878750 -0.397531 -0.349946
v 0.844838 -0.348337 -0.304274
v 0.844679 -0.351848 -0.302363
v 0.878591 -0.401041 -0.348035
v 0.904471 -0.351848 -0.297377
v 0.869841 -0.343510 -0.243089
v 1.220000 -0.470000 -0.325000
v 1.220000 -0.340000 -0.345000
v 1.276569 -0.470000 -0.301569
v 1.290711 -0.340000 -0.315711
v 1.300000 -0.470000 -0.245000
v 1.320000 -0.340000 -0.245000
v 1.276569 -0.470000 -0.188431
v 1.290711 -0.340000 -0.174289
v 1.220000 -0.470000 -0.165000
v 1.220000 -0.340000 -0.145000
v 1.163432 -0.470000 -0.188431
v 1.149289 -0.340000 -0.174289
v 1.140000 -0.470000 -0.245000
v 1.120000 -0.340000 -0.245000
v 1.163432 -0.470000 -0.301569
v 1.149289 -0.340000 -0.315711
v 1.220000 -0.340000 -0.330000
v 1.220000 -0.330000 -0.330000
v 1.280104 -0.340000 -0.305104
v 1.280104 -0.330000 -0.305104
v 1.305000 -0.340000 -0.245000
v 1.305000 -0.330000 -0.245000
v 1.280104 -0.340000 -0.184896
v 1.280104 -0.330000 -0.184896
v 1.220000 -0.340000 -0.160000
v 1.220000 -0.330000 -0.160000
v 1.159896 -0.340000 -0.184896
v 1.159896 -0.330000 -0.184896
v 1.135000 -0.340000 -0.245000
v 1.135000 -0.330000 -0.245000
v 1.159896 -0.340000 -0.305104
v 1.159896 -0.330000 -0.305104
v 1.220000 -0.340000 -0.245000
v 1.182260 -0.348337 -0.192826
v 1.205139 -0.397531 -0.140744
v 1.241659 -0.348337 -0.184359
v 1.241930 -0.351848 -0.186257
v 1.205409 -0.401041 -0.142642
v 1.182530 -0.351848 -0.194724
v 1.220271 -0.343510 -0.246899
v 1.220000 -0.340000 -0.245000
v 1.284090 -0.348337 -0.238762
v 1.317497 -0.397531 -0.284805
v 1.261412 -0.348337 -0.294311
v 1.259636 -0.351848 -0.293586
v 1.315722 -0.401041 -0.284080
v 1.282315 -0.351848 -0.238037
v 1.218225 -0.343510 -0.244275
v 1.220000 -0.340000 -0.245000
v 1.193029 -0.348337 -0.303473
v 1.136419 -0.397531 -0.309065
v 1.156528 -0.348337 -0.255853
v 1.158050 -0.351848 -0.254686
v 1.137941 -0.401041 -0.307899
v 1.194551 -0.351848 -0.302306
v 1.221522 -0.343510 -0.243833
v 1.570000 -0.470000 -0.325000
v 1.570000 -0.340000 -0.345000
v 1.626568 -0.470000 -0.301569
v 1.640711 -0.340000 -0.315711
v 1.650000 -0.470000 -0.245000
v 1.670000 -0.340000 -0.245000
v 1.626568 -0.470000 -0.188431
v 1.640711 -0.340000 -0.174289
v 1.570000 -0.470000 -0.165000
v 1.570000 -0.340000 -0.145000
v 1.513431 -0.470000 -0.188431
v 1.499289 -0.340000 -0.174289
v 1.490000 -0.470000 -0.245000
v 1.470000 -0.340000 -0.245000
v 1.513431 -0.470000 -0.301569
v 1.499289 -0.340000 -0.315711
v 1.570000 -0.340000 -0.330000
v 1.570000 -0.330000 -0.330000
v 1.630104 -0.340000 -0.305104
v 1.630104 -0.330000 -0.305104
v 1.655000 -0.340000 -0.245000
v 1.655000 -0.330000 -0.245000
v 1.630104 -0.340000 -0.184896
v 1.630104 -0.330000 -0.184896
v 1.570000 -0.340000 -0.160000
v 1.570000 -0.330000 -0.160000
v 1.509896 -0.340000 -0.184896
v 1.509896 -0.330000 -0.184896
v 1.485000 -0.340000 -0.245000
v 1.485000 -0.330000 -0.245000
v 1.509896 -0.340000 -0.305104
v 1.509896 -0.330000 -0.305104
v 1.570000 -0.340000 -0.245000
v 1.593512 -0.348337 -0.185053
v 1.649699 -0.397531 -0.176165
v 1.632730 -0.348337 -0.230461
v 1.631279 -0.351848 -0.231714
v 1.648247 -0.401041 -0.177418
v 1.592060 -0.351848 -0.186306
v 1.568549 -0.343510 -0.246254
v 1.570000 -0.340000 -0.245000
v 1.609877 -0.348337 -0.295560
v 1.589183 -0.397531 -0.348548
v 1.550881 -0.348337 -0.306490
v 1.550532 -0.351848 -0.304604
v 1.588834 -0.401041 -0.346662
v 1.609528 -0.351848 -0.293674
v 1.569651 -0.343510 -0.243114
v 1.570000 -0.340000 -0.245000
v 1.506224 -0.348337 -0.253898
v 1.470932 -0.397531 -0.209284
v 1.526574 -0.348337 -0.197454
v 1.528378 -0.351848 -0.198104
v 1.472736 -0.401041 -0.209934
v 1.508028 -0.351848 -0.254548
v 1.571804 -0.343510 -0.245650
v -0.021000 -0.000000 0.021000
v -0.021000 0.009000 0.030000
v -0.030000 0.009000 0.021000
v -0.021000 0.021000 0.030000
v -0.021000 0.030000 0.021000
v -0.030000 0.021000 0.021000
v -0.021000 -0.000000 -0.511000
v -0.030000 0.009000 -0.511000
v -0.021000 0.009000 -0.520000
v -0.021000 0.030000 -0.511000
v -0.021000 0.021000 -0.520000
v -0.030000 0.021000 -0.511000
v 1.761000 -0.000000 0.021000
v 1.770000 0.009000 0.021000
v 1.761000 0.009000 0.030000
v 1.761000 0.030000 0.021000
v 1.761000 0.021000 0.030000
v 1.770000 0.021000 0.021000
v 1.761000 -0.000000 -0.511000
v 1.761000 0.009000 -0.520000
v 1.770000 0.009000 -0.511000
v 1.761000 0.030000 -0.511000
v 1.770000 0.021000 -0.511000
v 1.761000 0.021000 -0.520000
v 0.170000 0.030000 -0.325000
v 0.170000 0.160000 -0.345000
v 0.226569 0.030000 -0.301569
v 0.240711 0.160000 -0.315711
v 0.250000 0.030000 -0.245000
v 0.270000 0.160000 -0.245000
v 0.226569 0.030000 -0.188431
v 0.240711 0.160000 -0.174289
v 0.170000 0.030000 -0.165000
v 0.170000 0.160000 -0.145000
v 0.113431 0.030000 -0.188431
v 0.099289 0.160000 -0.174289
v 0.090000 0.030000 -0.245000
v 0.070000 0.160000 -0.245000
v 0.113431 0.030000 -0.301569
v 0.099289 0.160000 -0.315711
v 0.170000 0.160000 -0.330000
v 0.170000 0.170000 -0.330000
v 0.230104 0.160000 -0.305104
v 0.230104 0.170000 -0.305104
v 0.255000 0.160000 -0.245000
v 0.255000 0.170000 -0.245000
v 0.230104 0.160000 -0.184896
v 0.230104 0.170000 -0.184896
v 0.170000 0.160000 -0.160000
v 0.170000 0.170000 -0.160000
v 0.109896 0.160000 -0.184896
v 0.109896 0.170000 -0.184896
v 0.085000 0.160000 -0.245000
v 0.085000 0.170000 -0.245000
v 0.109896 0.160000 -0.305104
v 0.109896 0.170000 -0.305104
v 0.170000 0.160000 -0.245000
v 0.200000 0.145190 -0.313825
v 0.170000 0.088086 -0.376637
v 0.140000 0.145190 -0.313825
v 0.140000 0.141680 -0.311908
v 0.170000 0.084576 -0.374720
v 0.200000 0.141680 -0.311908
v 0.170000 0.156490 -0.243082
v 0.170000 0.160000 -0.245000
v 0.095444 0.145190 -0.236150
v 0.056369 0.088086 -0.178543
v 0.125735 0.145190 -0.184358
v 0.127390 0.141680 -0.185326
v 0.058025 0.084576 -0.179512
v 0.097099 0.141680 -0.237118
v 0.171655 0.156490 -0.245968
v 0.170000 0.160000 -0.245000
v 0.215279 0.145190 -0.185110
v 0.284732 0.088086 -0.180463
v 0.244694 0.145190 -0.237405
v 0.243023 0.141680 -0.238345
v 0.283061 0.084576 -0.181404
v 0.213607 0.141680 -0.186051
v 0.168329 0.156490 -0.245940
v 0.520000 0.030000 -0.325000
v 0.520000 0.160000 -0.345000
v 0.576569 0.030000 -0.301569
v 0.590711 0.160000 -0.315711
v 0.600000 0.030000 -0.245000
v 0.620000 0.160000 -0.245000
v 0.576569 0.030000 -0.188431
v 0.590711 0.160000 -0.174289
v 0.520000 0.030000 -0.165000
v 0.520000 0.160000 -0.145000
v 0.463431 0.030000 -0.188431
v 0.449289 0.160000 -0.174289
v 0.440000 0.030000 -0.245000
v 0.420000 0.160000 -0.245000
v 0.463431 0.030000 -0.301569
v 0.449289 0.160000 -0.315711
v 0.520000 0.160000 -0.330000
v 0.520000 0.170000 -0.330000
v 0.580104 0.160000 -0.305104
v 0.580104 0.170000 -0.305104
v 0.605000 0.160000 -0.245000
v 0.605000 0.170000 -0.245000
v 0.580104 0.160000 -0.184896
v 0.580104 0.170000 -0.184896
v 0.520000 0.160000 -0.160000
v 0.520000 0.170000 -0.160000
v 0.459896 0.160000 -0.184896
v 0.459896 0.170000 -0.184896
v 0.435000 0.160000 -0.245000
v 0.435000 0.170000 -0.245000
v 0.459896 0.160000 -0.305104
v 0.459896 0.170000 -0.305104
v 0.520000 0.160000 -0.245000
v 0.478295 0.145190 -0.307431
v 0.409231 0.088086 -0.316124
v 0.445876 0.145190 -0.256942
v 0.447490 0.141680 -0.255906
v 0.410845 0.084576 -0.315088
v 0.479908 0.141680 -0.306394
v 0.521614 0.156490 -0.243964
v 0.520000 0.160000 -0.245000
v 0.487164 0.145190 -0.177482
v 0.514526 0.088086 -0.113476
v 0.547112 0.145190 -0.174987
v 0.547192 0.141680 -0.176903
v 0.514606 0.084576 -0.115393
v 0.487244 0.141680 -0.179398
v 0.520080 0.156490 -0.246916
v 0.520000 0.160000 -0.245000
v 0.594860 0.145190 -0.250742
v 0.636296 0.088086 -0.306674
v 0.566749 0.145190 -0.303749
v 0.565054 0.141680 -0.302851
v 0.634601 0.084576 -0.305776
v 0.593165 0.141680 -0.249844
v 0.518306 0.156490 -0.244102
v 0.870000 0.030000 -0.325000
v 0.870000 0.160000 -0.345000
v 0.926569 0.030000 -0.301569
v 0.940711 0.160000 -0.315711
v 0.950000 0.030000 -0.245000
v 0.970000 0.160000 -0.245000
v 0.926569 0.030000 -0.188431
v 0.940711 0.160000 -0.174289
v 0.870000 0.030000 -0.165000
v 0.870000 0.160000 -0.145000
v 0.813431 0.030000 -0.188431
v 0.799289 0.160000 -0.174289
v 0.790000 0.030000 -0.245000
v 0.770000 0.160000 -0.245000
v 0.813431 0.030000 -0.301569
v 0.799289 0.160000 -0.315711
v 0.870000 0.160000 -0.330000
v 0.870000 0.170000 -0.330000
v 0.930104 0.160000 -0.305104
v 0.930104 0.170000 -0.305104
v 0.955000 0.160000 -0.245000
v 0.955000 0.170000 -0.245000
v 0.930104 0.160000 -0.184896
v 0.930104 0.170000 -0.184896
v 0.870000 0.160000 -0.160000
v 0.870000 0.170000 -0.160000
v 0.809896 0.160000 -0.184896
v 0.809896 0.170000 -0.184896
v 0.785000 0.160000 -0.245000
v 0.785000 0.170000 -0.245000
v 0.809896 0.160000 -0.305104
v 0.809896 0.170000 -0.305104
v 0.870000 0.160000 -0.245000
v 0.794933 0.145190 -0.243637
v 0.750302 0.088086 -0.190220
v 0.819902 0.145190 -0.189080
v 0.821645 0.141680 -0.189878
v 0.752046 0.084576 -0.191018
v 0.796677 0.141680 -0.244436
v 0.871744 0.156490 -0.245798
v 0.870000 0.160000 -0.245000
v 0.909073 0.145190 -0.180889
v 0.977716 0.088086 -0.169332
v 0.943563 0.145190 -0.229986
v 0.941994 0.141680 -0.231088
v 0.976147 0.084576 -0.170434
v 0.907504 0.141680 -0.181992
v 0.868431 0.156490 -0.246102
v 0.870000 0.160000 -0.245000
v 0.905615 0.145190 -0.311095
v 0.880938 0.088086 -0.376182
v 0.845822 0.145190 -0.316080
v 0.845663 0.141680 -0.314169
v 0.880778 0.084576 -0.374271
v 0.905456 0.141680 -0.309184
v 0.869841 0.156490 -0.243089
v 1.220000 0.030000 -0.325000
v 1.220000 0.160000 -0.345000
v 1.276569 0.030000 -0.301569
v 1.290711 0.160000 -0.315711
v 1.300000 0.030000 -0.245000
v 1.320000 0.160000 -0.245000
v 1.276569 0.030000 -0.188431
v 1.290711 0.160000 -0.174289
v 1.220000 0.030000 -0.165000
v 1.220000 0.160000 -0.145000
v 1.163432 0.030000 -0.188431
v 1.149289 0.160000 -0.174289
v 1.140000 0.030000 -0.245000
v 1.120000 0.160000 -0.245000
v 1.163432 0.030000 -0.301569
v 1.149289 0.160000 -0.315711
v 1.220000 0.160000 -0.330000
v 1.220000 0.170000 -0.330000
v 1.280104 0.160000 -0.305104
v 1.280104 0.170000 -0.305104
v 1.305000 0.160000 -0.245000
v 1.305000 0.170000 -0.245000
v 1.280104 0.160000 -0.184896
v 1.280104 0.170000 -0.184896
v 1.220000 0.160000 -0.160000
v 1.220000 0.170000 -0.160000
v 1.159896 0.160000 -0.184896
v 1.159896 0.170000 -0.184896
v 1.135000 0.160000 -0.245000
v 1.135000 0.170000 -0.245000
v 1.159896 0.160000 -0.305104
v 1.159896 0.170000 -0.305104
v 1.220000 0.160000 -0.245000
v 1.180588 0.145190 -0.181097
v 1.201423 0.088086 -0.114680
v 1.239987 0.145190 -0.172630
v 1.240258 0.141680 -0.174528
v 1.201694 0.084576 -0.116578
v 1.180858 0.141680 -0.182996
v 1.220271 0.156490 -0.246899
v 1.220000 0.160000 -0.245000
v 1.295059 0.145190 -0.243240
v 1.341872 0.088086 -0.294756
v 1.272380 0.145190 -0.298789
v 1.270605 0.141680 -0.298064
v 1.340096 0.084576 -0.294031
v 1.293283 0.141680 -0.242515
v 1.218225 0.156490 -0.244275
v 1.220000 0.160000 -0.245000
v 1.183626 0.145190 -0.310680
v 1.115524 0.088086 -0.325082
v 1.147125 0.145190 -0.263060
v 1.148647 0.141680 -0.261893
v 1.117046 0.084576 -0.323915
v 1.185148 0.141680 -0.309513
v 1.221522 0.156490 -0.243833
v 1.570000 0.030000 -0.325000
v 1.570000 0.160000 -0.345000
v 1.626568 0.030000 -0.301569
v 1.640711 0.160000 -0.315711
v 1.650000 0.030000 -0.245000
v 1.670000 0.160000 -0.245000
v 1.626568 0.030000 -0.188431
v 1.640711 0.160000 -0.174289
v 1.570000 0.030000 -0.165000
v 1.570000 0.160000 -0.145000
v 1.513431 0.030000 -0.188431
v 1.499289 0.160000 -0.174289
v 1.490000 0.030000 -0.245000
v 1.470000 0.160000 -0.245000
v 1.513431 0.030000 -0.301569
v 1.499289 0.160000 -0.315711
v 1.570000 0.160000 -0.330000
v 1.570000 0.170000 -0.330000
v 1.630104 0.160000 -0.305104
v 1.630104 0.170000 -0.305104
v 1.655000 0.160000 -0.245000
v 1.655000 0.170000 -0.245000
v 1.630104 0.160000 -0.184896
v 1.630104 0.170000 -0.184896
v 1.570000 0.160000 -0.160000
v 1.570000 0.170000 -0.160000
v 1.509896 0.160000 -0.184896
v 1.509896 0.170000 -0.184896
v 1.485000 0.160000 -0.245000
v 1.485000 0.170000 -0.245000
v 1.509896 0.160000 -0.305104
v 1.509896 0.170000 -0.305104
v 1.570000 0.160000 -0.245000
v 1.602478 0.145190 -0.177309
v 1.669623 0.088086 -0.158956
v 1.641696 0.145190 -0.222717
v 1.640245 0.141680 -0.223970
v 1.668172 0.084576 -0.160210
v 1.601027 0.141680 -0.178562
v 1.568549 0.156490 -0.246254
v 1.570000 0.160000 -0.245000
v 1.612035 0.145190 -0.307209
v 1.593979 0.088086 -0.374435
v 1.553039 0.145190 -0.318139
v 1.552690 0.141680 -0.316253
v 1.593630 0.084576 -0.372549
v 1.611686 0.141680 -0.305323
v 1.569651 0.156490 -0.243114
v 1.570000 0.160000 -0.245000
v 1.495079 0.145190 -0.249879
v 1.446165 0.088086 -0.200355
v 1.515428 0.145190 -0.193436
v 1.517233 0.141680 -0.194086
v 1.447969 0.084576 -0.201005
v 1.496883 0.141680 -0.250530
v 1.571804 0.156490 -0.245650
v -0.021000 0.500000 0.021000
v -0.021000 0.509000 0.030000
v -0.030000 0.509000 0.021000
v -0.021000 0.521000 0.030000
v -0.021000 0.530000 0.021000
v -0.030000 0.521000 0.021000
v -0.021000 0.500000 -0.511000
v -0.030000 0.509000 -0.511000
v -0.021000 0.509000 -0.520000
v -0.021000 0.530000 -0.511000
v -0.021000 0.521000 -0.520000
v -0.030000 0.521000 -0.511000
v 1.761000 0.500000 0.021000
v 1.770000 0.509000 0.021000
v 1.761000 0.509000 0.030000
v 1.761000 0.530000 0.021000
v 1.761000 0.521000 0.030000
v 1.770000 0.521000 0.021000
v 1.761000 0.500000 -0.511000
v 1.761000 0.509000 -0.520000
v 1.770000 0.509000 -0.511000
v 1.761000 0.530000 -0.511000
v 1.770000 0.521000 -0.511000
v 1.761000 0.521000 -0.520000
v 0.170000 0.530000 -0.325000
v 0.170000 0.660000 -0.345000
v 0.226569 0.530000 -0.301569
v 0.240711 0.660000 -0.315711
v 0.250000 0.530000 -0.245000
v 0.270000 0.660000 -0.245000
v 0.226569 0.530000 -0.188431
v 0.240711 0.660000 -0.174289
v 0.170000 0.530000 -0.165000
v 0.170000 0.660000 -0.145000
v 0.113431 0.530000 -0.188431
v 0.099289 0.660000 -0.174289
v 0.090000 0.530000 -0.245000
v 0.070000 0.660000 -0.245000
v 0.113431 0.530000 -0.301569
v 0.099289 0.660000 -0.315711
v 0.170000 0.660000 -0.330000
v 0.170000 0.670000 -0.330000
v 0.230104 0.660000 -0.305104
v 0.230104 0.670000 -0.305104
v 0.255000 0.660000 -0.245000
v 0.255000 0.670000 -0.245000
v 0.230104 0.660000 -0.184896
v 0.230104 0.670000 -0.184896
v 0.170000 0.660000 -0.160000
v 0.170000 0.670000 -0.160000
v 0.109896 0.660000 -0.184896
v 0.109896 0.670000 -0.184896
v 0.085000 0.660000 -0.245000
v 0.085000 0.670000 -0.245000
v 0.109896 0.660000 -0.305104
v 0.109896 0.670000 -0.305104
v 0.170000 0.660000 -0.245000
v 0.200000 0.638718 -0.325673
v 0.170000 0.573703 -0.402965
v 0.140000 0.638718 -0.325673
v 0.140000 0.635208 -0.323755
v 0.170000 0.570193 -0.401047
v 0.200000 0.635208 -0.323755
v 0.170000 0.656490 -0.243082
v 0.170000 0.660000 -0.245000
v 0.085217 0.638718 -0.230169
v 0.033643 0.573703 -0.165252
v 0.115508 0.638718 -0.178376
v 0.117163 0.635208 -0.179345
v 0.035299 0.570193 -0.166220
v 0.086873 0.635208 -0.231137
v 0.171655 0.656490 -0.245968
v 0.170000 0.660000 -0.245000
v 0.225605 0.638718 -0.179302
v 0.307678 0.573703 -0.167556
v 0.255020 0.638718 -0.231597
v 0.253349 0.635208 -0.232537
v 0.306007 0.570193 -0.168496
v 0.223933 0.635208 -0.180242
v 0.168329 0.656490 -0.245940
v 0.520000 0.530000 -0.325000
v 0.520000 0.660000 -0.345000
v 0.576569 0.530000 -0.301569
v 0.590711 0.660000 -0.315711
v 0.600000 0.530000 -0.245000
v 0.620000 0.660000 -0.245000
v 0.576569 0.530000 -0.188431
v 0.590711 0.660000 -0.174289
v 0.520000 0.530000 -0.165000
v 0.520000 0.660000 -0.145000
v 0.463431 0.530000 -0.188431
v 0.449289 0.660000 -0.174289
v 0.440000 0.530000 -0.245000
v 0.420000 0.660000 -0.245000
v 0.463431 0.530000 -0.301569
v 0.449289 0.660000 -0.315711
v 0.520000 0.660000 -0.330000
v 0.520000 0.670000 -0.330000
v 0.580104 0.660000 -0.305104
v 0.580104 0.670000 -0.305104
v 0.605000 0.660000 -0.245000
v 0.605000 0.670000 -0.245000
v 0.580104 0.660000 -0.184896
v 0.580104 0.670000 -0.184896
v 0.520000 0.660000 -0.160000
v 0.520000 0.670000 -0.160000
v 0.459896 0.660000 -0.184896
v 0.459896 0.670000 -0.184896
v 0.435000 0.660000 -0.245000
v 0.435000 0.670000 -0.245000
v 0.459896 0.660000 -0.305104
v 0.459896 0.670000 -0.305104
v 0.520000 0.660000 -0.245000
v 0.468325 0.638718 -0.313832
v 0.387077 0.573703 -0.330349
v 0.435907 0.638718 -0.263344
v 0.437521 0.635208 -0.262307
v 0.388691 0.570193 -0.329313
v 0.469939 0.635208 -0.312796
v 0.521614 0.656490 -0.243964
v 0.520000 0.660000 -0.245000
v 0.486672 0.638718 -0.165644
v 0.513432 0.573703 -0.087172
v 0.546620 0.638718 -0.163150
v 0.546699 0.635208 -0.165066
v 0.513511 0.570193 -0.089088
v 0.486751 0.635208 -0.167561
v 0.520080 0.656490 -0.246916
v 0.520000 0.660000 -0.245000
v 0.605326 0.638718 -0.256293
v 0.659555 0.573703 -0.319009
v 0.577215 0.638718 -0.309300
v 0.575521 0.635208 -0.308402
v 0.657861 0.570193 -0.318111
v 0.603632 0.635208 -0.255394
v 0.518306 0.656490 -0.244102
v 0.870000 0.530000 -0.325000
v 0.870000 0.660000 -0.345000
v 0.926569 0.530000 -0.301569
v 0.940711 0.660000 -0.315711
v 0.950000 0.530000 -0.245000
v 0.970000 0.660000 -0.245000
v 0.926569 0.530000 -0.188431
v 0.940711 0.660000 -0.174289
v 0.870000 0.530000 -0.165000
v 0.870000 0.660000 -0.145000
v 0.813431 0.530000 -0.188431
v 0.799289 0.660000 -0.174289
v 0.790000 0.530000 -0.245000
v 0.770000 0.660000 -0.245000
v 0.813431 0.530000 -0.301569
v 0.799289 0.660000 -0.315711
v 0.870000 0.660000 -0.330000
v 0.870000 0.670000 -0.330000
v 0.930104 0.660000 -0.305104
v 0.930104 0.670000 -0.305104
v 0.955000 0.660000 -0.245000
v 0.955000 0.670000 -0.245000
v 0.930104 0.660000 -0.184896
v 0.930104 0.670000 -0.184896
v 0.870000 0.660000 -0.160000
v 0.870000 0.670000 -0.160000
v 0.809896 0.660000 -0.184896
v 0.809896 0.670000 -0.184896
v 0.785000 0.660000 -0.245000
v 0.785000 0.670000 -0.245000
v 0.809896 0.660000 -0.305104
v 0.809896 0.670000 -0.305104
v 0.870000 0.660000 -0.245000
v 0.784160 0.638718 -0.238707
v 0.726363 0.573703 -0.179263
v 0.809129 0.638718 -0.184149
v 0.810873 0.635208 -0.184947
v 0.728107 0.570193 -0.180061
v 0.785904 0.635208 -0.239505
v 0.871744 0.656490 -0.245798
v 0.870000 0.660000 -0.245000
v 0.918768 0.638718 -0.174079
v 0.999259 0.573703 -0.154198
v 0.953257 0.638718 -0.223176
v 0.951688 0.635208 -0.224278
v 0.997690 0.570193 -0.155300
v 0.917199 0.635208 -0.175181
v 0.868431 0.656490 -0.246102
v 0.870000 0.660000 -0.245000
v 0.906599 0.638718 -0.322901
v 0.883125 0.573703 -0.402419
v 0.846807 0.638718 -0.327886
v 0.846647 0.635208 -0.325975
v 0.882966 0.570193 -0.400508
v 0.906440 0.635208 -0.320990
v 0.869841 0.656490 -0.243089
v 1.220000 0.530000 -0.325000
v 1.220000 0.660000 -0.345000
v 1.276569 0.530000 -0.301569
v 1.290711 0.660000 -0.315711
v 1.300000 0.530000 -0.245000
v 1.320000 0.660000 -0.245000
v 1.276569 0.530000 -0.188431
v 1.290711 0.660000 -0.174289
v 1.220000 0.530000 -0.165000
v 1.220000 0.660000 -0.145000
v 1.163432 0.530000 -0.188431
v 1.149289 0.660000 -0.174289
v 1.140000 0.530000 -0.245000
v 1.120000 0.660000 -0.245000
v 1.163432 0.530000 -0.301569
v 1.149289 0.660000 -0.315711
v 1.220000 0.660000 -0.330000
v 1.220000 0.670000 -0.330000
v 1.280104 0.660000 -0.305104
v 1.280104 0.670000 -0.305104
v 1.305000 0.660000 -0.245000
v 1.305000 0.670000 -0.245000
v 1.280104 0.660000 -0.184896
v 1.280104 0.670000 -0.184896
v 1.220000 0.660000 -0.160000
v 1.220000 0.670000 -0.160000
v 1.159896 0.660000 -0.184896
v 1.159896 0.670000 -0.184896
v 1.135000 0.660000 -0.245000
v 1.135000 0.670000 -0.245000
v 1.159896 0.660000 -0.305104
v 1.159896 0.670000 -0.305104
v 1.220000 0.660000 -0.245000
v 1.178916 0.638718 -0.169368
v 1.197708 0.573703 -0.088616
v 1.238315 0.638718 -0.160901
v 1.238586 0.635208 -0.162800
v 1.197979 0.570193 -0.090514
v 1.179186 0.635208 -0.171267
v 1.220271 0.656490 -0.246899
v 1.220000 0.660000 -0.245000
v 1.306027 0.638718 -0.247718
v 1.366246 0.573703 -0.304707
v 1.283349 0.638718 -0.303267
v 1.281573 0.635208 -0.302542
v 1.364471 0.570193 -0.303982
v 1.304252 0.635208 -0.246993
v 1.218225 0.656490 -0.244275
v 1.220000 0.660000 -0.245000
v 1.174223 0.638718 -0.317887
v 1.094628 0.573703 -0.341098
v 1.137722 0.638718 -0.270267
v 1.139244 0.635208 -0.269101
v 1.096150 0.570193 -0.339932
v 1.175745 0.635208 -0.316721
v 1.221522 0.656490 -0.243833
v 1.570000 0.530000 -0.325000
v 1.570000 0.660000 -0.345000
v 1.626568 0.530000 -0.301569
v 1.640711 0.660000 -0.315711
v 1.650000 0.530000 -0.245000
v 1.670000 0.660000 -0.245000
v 1.626568 0.530000 -0.188431
v 1.640711 0.660000 -0.174289
v 1.570000 0.530000 -0.165000
v 1.570000 0.660000 -0.145000
v 1.513431 0.530000 -0.188431
v 1.499289 0.660000 -0.174289
v 1.490000 0.530000 -0.245000
v 1.470000 0.660000 -0.245000
v 1.513431 0.530000 -0.301569
v 1.499289 0.660000 -0.315711
v 1.570000 0.660000 -0.330000
v 1.570000 0.670000 -0.330000
v 1.630104 0.660000 -0.305104
v 1.630104 0.670000 -0.305104
v 1.655000 0.660000 -0.245000
v 1.655000 0.670000 -0.245000
v 1.630104 0.660000 -0.184896
v 1.630104 0.670000 -0.184896
v 1.570000 0.660000 -0.160000
v 1.570000 0.670000 -0.160000
v 1.509896 0.660000 -0.184896
v 1.509896 0.670000 -0.184896
v 1.485000 0.660000 -0.245000
v 1.485000 0.670000 -0.245000
v 1.509896 0.660000 -0.305104
v 1.509896 0.670000 -0.305104
v 1.570000 0.660000 -0.245000
v 1.611444 0.638718 -0.169565
v 1.689548 0.573703 -0.141747
v 1.650663 0.638718 -0.214973
v 1.649211 0.635208 -0.216226
v 1.688097 0.570193 -0.143001
v 1.609993 0.635208 -0.170818
v 1.568549 0.656490 -0.246254
v 1.570000 0.660000 -0.245000
v 1.614194 0.638718 -0.318858
v 1.598775 0.573703 -0.400322
v 1.555197 0.638718 -0.329788
v 1.554848 0.635208 -0.327902
v 1.598426 0.570193 -0.398436
v 1.613844 0.635208 -0.316972
v 1.569651 0.656490 -0.243114
v 1.570000 0.660000 -0.245000
v 1.483934 0.638718 -0.245861
v 1.421398 0.573703 -0.191425
v 1.504283 0.638718 -0.189418
v 1.506087 0.635208 -0.190068
v 1.423202 0.570193 -0.192076
v 1.485738 0.635208 -0.246512
v 1.571804 0.656490 -0.245650
vn -0.5773 -0.5774 0.5774
vn -0.5774 0.5773 0.5774
vn -0.5774 -0.5773 -0.5773
vn -0.5773 0.5774 -0.5774
vn 0.5774 -0.5773 0.5773
vn 0.5773 0.5774 0.5774
vn 0.5773 -0.5774 -0.5774
vn 0.5774 0.5773 -0.5773
vn -0.7071 -0.7071 -0.0000
vn -0.7071 -0.0000 0.7071
vn -0.7071 0.7071 -0.0000
vn -0.7071 -0.0000 -0.7071
vn -0.0000 -0.7071 -0.7071
vn -0.0000 0.7071 -0.7071
vn 0.7071 -0.0000 -0.7071
vn 0.7071 -0.7071 -0.0000
vn 0.7071 0.7071 -0.0000
vn 0.7071 -0.0000 0.7071
vn -0.0000 -0.7071 0.7071
vn -0.0000 0.7071 0.7071
vn -0.0000 -1.0000 -0.0000
vn -1.0000 -0.0000 -0.0000
vn -0.0000 -0.0000 1.0000
vn -0.0000 1.0000 -0.0000
vn -0.0000 -0.0000 -1.0000
vn 1.0000 -0.0000 -0.0000
vn -0.5773 -0.5773 0.5774
vn -0.5773 0.5773 0.5774
vn -0.5773 -0.5773 -0.5774
vn -0.5773 0.5773 -0.5774
vn 0.5773 -0.5773 0.5774
vn 0.5773 0.5773 0.5774
vn 0.5773 -0.5773 -0.5774
vn 0.5773 0.5773 -0.5774
vn -0.5774 -0.5773 -0.5774
vn 0.5774 -0.5773 0.5774
vn 0.5774 0.5773 -0.5774
vn -0.5774 -0.5774 0.5773
vn -0.5774 0.5774 0.5773
vn 0.5774 -0.5774 0.5773
vn 0.5774 0.5774 0.5773
vn 0.5774 -0.5774 -0.5773
vn 0.5773 0.5774 -0.5773
vn 0.3789 -0.1407 -0.9147
vn 0.9147 -0.1407 -0.3789
vn 0.9147 -0.1407 0.3789
vn 0.3789 -0.1407 0.9147
vn -0.3789 -0.1407 0.9147
vn -0.9147 -0.1407 0.3789
vn -0.9147 -0.1407 -0.3789
vn -0.3789 -0.1407 -0.9147
vn 0.3827 -0.0000 -0.9239
vn 0.9239 -0.0000 -0.3827
vn 0.9239 -0.0000 0.3827
vn 0.3827 -0.0000 0.9239
vn -0.3827 -0.0000 0.9239
vn -0.9239 -0.0000 0.3827
vn -0.9239 -0.0000 -0.3827
vn -0.3827 -0.0000 -0.9239
vn -0.0000 0.9895 -0.1448
vn -0.0000 -0.9895 0.1448
vn -0.1250 0.9895 0.0731
vn 0.1250 -0.9895 -0.0731
vn 0.1262 0.9895 0.0710
vn -0.1262 -0.9895 -0.0710
vn -0.1218 0.9895 -0.0782
vn 0.1218 -0.9895 0.0782
vn -0.0060 0.9895 0.1447
vn 0.0060 -0.9895 -0.1447
vn 0.1279 0.9895 -0.0678
vn -0.1279 -0.9895 0.0678
vn -0.1317 0.9895 0.0603
vn 0.1317 -0.9895 -0.0603
vn 0.1185 0.9895 0.0832
vn -0.1185 -0.9895 -0.0832
vn 0.0120 0.9895 -0.1443
vn -0.0120 -0.9895 0.1443
vn -0.0204 0.9895 0.1433
vn 0.0204 -0.9895 -0.1433
vn 0.1340 0.9895 -0.0547
vn -0.1340 -0.9895 0.0547
vn -0.1149 0.9895 -0.0881
vn 0.1149 -0.9895 0.0881
vn 0.1096 0.9895 0.0946
vn -0.1096 -0.9895 -0.0946
vn 0.0264 0.9895 -0.1424
vn -0.0264 -0.9895 0.1424
vn -0.1362 0.9895 0.0491
vn 0.1362 -0.9895 -0.0491
vn -0.5774 -0.5774 0.5774
vn -0.5774 0.5774 0.5774
vn -0.5774 0.5773 -0.5774
vn -0.0000 0.9776 -0.2104
vn -0.0000 -0.9776 0.2104
vn -0.1816 0.9776 0.1062
vn 0.1816 -0.9776 -0.1062
vn 0.1833 0.9776 0.1031
vn -0.1833 -0.9776 -0.1031
vn -0.1770 0.9776 -0.1137
vn 0.1770 -0.9776 0.1137
vn -0.0087 0.9776 0.2102
vn 0.0087 -0.9776 -0.2102
vn 0.1858 0.9776 -0.0986
vn -0.1858 -0.9776 0.0986
vn -0.1913 0.9776 0.0875
vn 0.1913 -0.9776 -0.0875
vn 0.1721 0.9776 0.1209
vn -0.1721 -0.9776 -0.1209
vn 0.0175 0.9776 -0.2096
vn -0.0175 -0.9776 0.2096
vn -0.0297 0.9776 0.2083
vn 0.0297 -0.9776 -0.2083
vn 0.1948 0.9776 -0.0795
vn -0.1948 -0.9776 0.0795
vn -0.1670 0.9776 -0.1280
vn 0.1670 -0.9776 0.1280
vn 0.1592 0.9776 0.1375
vn -0.1592 -0.9776 -0.1375
vn 0.0383 0.9776 -0.2068
vn -0.0383 -0.9776 0.2068
vn -0.1979 0.9776 0.0713
vn 0.1979 -0.9776 -0.0713
vn -0.5773 0.5774 0.5774
vn 0.5773 -0.5774 0.5773
vn 0.5773 -0.5774 -0.5773
vn -0.0000 0.9669 -0.2551
vn -0.0000 -0.9669 0.2551
vn -0.2202 0.9669 0.1288
vn 0.2202 -0.9669 -0.1288
vn 0.2223 0.9669 0.1251
vn -0.2223 -0.9669 -0.1251
vn -0.2146 0.9669 -0.1378
vn 0.2146 -0.9669 0.1378
vn -0.0106 0.9669 0.2549
vn 0.0106 -0.9669 -0.2549
vn 0.2253 0.9669 -0.1195
vn -0.2253 -0.9669 0.1195
vn -0.2319 0.9669 0.1061
vn 0.2319 -0.9669 -0.1061
vn 0.2087 0.9669 0.1466
vn -0.2087 -0.9669 -0.1466
vn 0.0212 0.9669 -0.2542
vn -0.0212 -0.9669 0.2542
vn -0.0360 0.9669 0.2525
vn 0.0360 -0.9669 -0.2525
vn 0.2362 0.9669 -0.0964
vn -0.2362 -0.9669 0.0964
vn -0.2024 0.9669 -0.1552
vn 0.2024 -0.9669 0.1552
vn 0.1930 0.9669 0.1667
vn -0.1930 -0.9669 -0.1667
vn 0.0465 0.9669 -0.2508
vn -0.0465 -0.9669 0.2508
vn -0.2400 0.9669 0.0865
vn 0.2400 -0.9669 -0.0865
vn -0.0000 0.7008 -0.7133
vn -0.0000 -0.7008 0.7133
vn -0.6158 0.7008 0.3601
vn 0.6158 -0.7008 -0.3601
vn 0.6217 0.7008 0.3497
vn -0.6217 -0.7008 -0.3497
vn -0.6002 0.7008 -0.3854
vn 0.6002 -0.7008 0.3854
vn -0.0297 0.7008 0.7127
vn 0.0297 -0.7008 -0.7127
vn 0.6302 0.7008 -0.3342
vn -0.6302 -0.7008 0.3342
vn -0.6486 0.7008 0.2968
vn 0.6486 -0.7008 -0.2968
vn 0.5837 0.7008 0.4100
vn -0.5837 -0.7008 -0.4100
vn 0.0593 0.7008 -0.7109
vn -0.0593 -0.7008 0.7109
vn -0.1007 0.7008 0.7062
vn 0.1007 -0.7008 -0.7062
vn 0.6604 0.7008 -0.2696
vn -0.6604 -0.7008 0.2696
vn -0.5661 0.7008 -0.4340
vn 0.5661 -0.7008 0.4340
vn 0.5398 0.7008 0.4663
vn -0.5398 -0.7008 -0.4663
vn 0.1299 0.7008 -0.7014
vn -0.1299 -0.7008 0.7014
vn -0.6710 0.7008 0.2419
vn 0.6710 -0.7008 -0.2419
vn -0.0000 0.7399 -0.6727
vn -0.0000 -0.7399 0.6727
vn -0.5807 0.7399 0.3396
vn 0.5807 -0.7399 -0.3396
vn 0.5863 0.7399 0.3298
vn -0.5863 -0.7399 -0.3298
vn -0.5660 0.7399 -0.3635
vn 0.5660 -0.7399 0.3635
vn -0.0280 0.7399 0.6721
vn 0.0280 -0.7399 -0.6721
vn 0.5943 0.7399 -0.3152
vn -0.5943 -0.7399 0.3152
vn -0.6117 0.7399 0.2799
vn 0.6117 -0.7399 -0.2799
vn 0.5504 0.7399 0.3867
vn -0.5504 -0.7399 -0.3867
vn 0.0559 0.7399 -0.6704
vn -0.0559 -0.7399 0.6704
vn -0.0949 0.7399 0.6660
vn 0.0949 -0.7399 -0.6660
vn 0.6228 0.7399 -0.2543
vn -0.6228 -0.7399 0.2543
vn -0.5339 0.7399 -0.4092
vn 0.5339 -0.7399 0.4092
vn 0.5091 0.7399 0.4397
vn -0.5091 -0.7399 -0.4397
vn 0.1225 0.7399 -0.6614
vn -0.1225 -0.7399 0.6614
vn -0.6328 0.7399 0.2281
vn 0.6328 -0.7399 -0.2281
vn -0.0000 0.7653 -0.6437
vn -0.0000 -0.7653 0.6437
vn -0.5557 0.7653 0.3250
vn 0.5557 -0.7653 -0.3250
vn 0.5610 0.7653 0.3156
vn -0.5610 -0.7653 -0.3156
vn -0.5417 0.7653 -0.3478
vn 0.5417 -0.7653 0.3478
vn -0.0268 0.7653 0.6432
vn 0.0268 -0.7653 -0.6432
vn 0.5687 0.7653 -0.3016
vn -0.5687 -0.7653 0.3016
vn -0.5853 0.7653 0.2679
vn 0.5853 -0.7653 -0.2679
vn 0.5267 0.7653 0.3700
vn -0.5267 -0.7653 -0.3700
vn 0.0535 0.7653 -0.6415
vn -0.0535 -0.7653 0.6415
vn -0.0908 0.7653 0.6373
vn 0.0908 -0.7653 -0.6373
vn 0.5960 0.7653 -0.2433
vn -0.5960 -0.7653 0.2433
vn -0.5109 0.7653 -0.3916
vn 0.5109 -0.7653 0.3916
vn 0.4872 0.7653 0.4208
vn -0.4872 -0.7653 -0.4208
vn 0.1173 0.7653 -0.6329
vn -0.1173 -0.7653 0.6329
vn -0.6056 0.7653 0.2183
vn 0.6056 -0.7653 -0.2183
vt 0.093750 0.968750
vt 0.156250 0.968750
vt 0.718750 0.906250
vt 0.406250 0.843750
vt 0.656250 0.906250
vt 0.531250 0.906250
s 0
f 1/1/1 2/1/1 3/1/1
f 4/1/2 5/1/2 6/1/2
f 7/1/3 8/1/3 9/1/3
f 10/1/4 11/1/4 12/1/4
f 13/1/5 14/1/5 15/1/5
f 16/1/6 17/1/6 18/1/6
f 19/1/7 20/1/7 21/1/7
f 22/1/8 23/1/8 24/1/8
f 1/1/9 8/1/9 7/1/9
f 4/1/10 3/1/10 2/1/10
f 10/1/11 6/1/11 5/1/11
f 9/1/12 12/1/12 11/1/12
f 7/1/13 20/1/13 19/1/13
f 22/1/14 11/1/14 10/1/14
f 21/1/15 24/1/15 23/1/15
f 19/1/16 14/1/16 13/1/16
f 16/1/17 23/1/17 22/1/17
f 15/1/18 18/1/18 17/1/18
f 13/1/19 2/1/19 1/1/19
f 5/1/20 17/1/20 16/1/20
f 19/1/21 1/1/21 7/1/21
f 6/1/22 8/1/22 3/1/22
f 17/1/23 2/1/23 15/1/23
f 10/1/24 16/1/24 22/1/24
f 11/1/25 20/1/25 9/1/25
f 23/1/26 14/1/26 21/1/26
f 25/1/27 26/1/27 27/1/27
f 28/1/28 29/1/28 30/1/28
f 31/1/29 32/1/29 33/1/29
f 34/1/30 35/1/30 36/1/30
f 37/1/31 38/1/31 39/1/31
f 40/1/32 41/1/32 42/1/32
f 43/1/33 44/1/33 45/1/33
f 46/1/34 47/1/34 48/1/34
f 25/1/9 32/1/9 31/1/9
f 28/1/10 27/1/10 26/1/10
f 34/1/11 30/1/11 29/1/11
f 33/1/12 36/1/12 35/1/12
f 31/1/13 44/1/13 43/1/13
f 46/1/14 35/1/14 34/1/14
f 45/1/15 48/1/15 47/1/15
f 43/1/16 38/1/16 37/1/16
f 40/1/17 47/1/17 46/1/17
f 39/1/18 42/1/18 41/1/18
f 37/1/19 26/1/19 25/1/19
f 29/1/20 41/1/20 40/1/20
f 43/1/21 25/1/21 31/1/21
f 30/1/22 32/1/22 27/1/22
f 41/1/23 26/1/23 39/1/23
f 34/1/24 40/1/24 46/1/24
f 35/1/25 44/1/25 33/1/25
f 47/1/26 38/1/26 45/1/26
f 49/1/27 50/1/27 51/1/27
f 52/1/2 53/1/2 54/1/2
f 55/1/35 56/1/35 57/1/35
f 58/1/30 59/1/30 60/1/30
f 61/1/36 62/1/36 63/1/36
f 64/1/32 65/1/32 66/1/32
f 67/1/33 68/1/33 69/1/33
f 70/1/37 71/1/37 72/1/37
f 49/1/9 56/1/9 55/1/9
f 52/1/10 51/1/10 50/1/10
f 58/1/11 54/1/11 53/1/11
f 57/1/12 60/1/12 59/1/12
f 55/1/13 68/1/13 67/1/13
f 70/1/14 59/1/14 58/1/14
f 69/1/15 72/1/15 71/1/15
f 67/1/16 62/1/16 61/1/16
f 64/1/17 71/1/17 70/1/17
f 63/1/18 66/1/18 65/1/18
f 61/1/19 50/1/19 49/1/19
f 53/1/20 65/1/20 64/1/20
f 67/1/21 49/1/21 55/1/21
f 54/1/22 56/1/22 51/1/22
f 65/1/23 50/1/23 63/1/23
f 58/1/24 64/1/24 70/1/24
f 59/1/25 68/1/25 57/1/25
f 71/1/26 62/1/26 69/1/26
f 73/1/27 74/1/27 75/1/27
f 76/1/28 77/1/28 78/1/28
f 79/1/29 80/1/29 81/1/29
f 82/1/30 83/1/30 84/1/30
f 85/1/31 86/1/31 87/1/31
f 88/1/32 89/1/32 90/1/32
f 91/1/33 92/1/33 93/1/33
f 94/1/34 95/1/34 96/1/34
f 73/1/9 80/1/9 79/1/9
f 76/1/10 75/1/10 74/1/10
f 82/1/11 78/1/11 77/1/11
f 81/1/12 84/1/12 83/1/12
f 79/1/13 92/1/13 91/1/13
f 94/1/14 83/1/14 82/1/14
f 93/1/15 96/1/15 95/1/15
f 91/1/16 86/1/16 85/1/16
f 88/1/17 95/1/17 94/1/17
f 87/1/18 90/1/18 89/1/18
f 85/1/19 74/1/19 73/1/19
f 77/1/20 89/1/20 88/1/20
f 91/1/21 73/1/21 79/1/21
f 78/1/22 80/1/22 75/1/22
f 89/1/23 74/1/23 87/1/23
f 82/1/24 88/1/24 94/1/24
f 83/1/25 92/1/25 81/1/25
f 95/1/26 86/1/26 93/1/26
f 97/2/38 98/2/38 99/2/38
f 100/2/39 101/2/39 102/2/39
f 103/2/35 104/2/35 105/2/35
f 106/2/30 107/2/30 108/2/30
f 109/2/40 110/2/40 111/2/40
f 112/2/41 113/2/41 114/2/41
f 115/2/42 116/2/42 117/2/42
f 118/2/43 119/2/43 120/2/43
f 97/2/9 104/2/9 103/2/9
f 100/2/10 99/2/10 98/2/10
f 106/2/11 102/2/11 101/2/11
f 105/2/12 108/2/12 107/2/12
f 103/2/13 116/2/13 115/2/13
f 118/2/14 107/2/14 106/2/14
f 117/2/15 120/2/15 119/2/15
f 115/2/16 110/2/16 109/2/16
f 112/2/17 119/2/17 118/2/17
f 111/2/18 114/2/18 113/2/18
f 109/2/19 98/2/19 97/2/19
f 101/2/20 113/2/20 112/2/20
f 115/2/21 97/2/21 103/2/21
f 102/2/22 104/2/22 99/2/22
f 113/2/23 98/2/23 111/2/23
f 106/2/24 112/2/24 118/2/24
f 107/2/25 116/2/25 105/2/25
f 119/2/26 110/2/26 117/2/26
f 122/3/44 123/3/44 121/3/44
f 124/3/45 125/3/45 123/3/45
f 126/3/46 127/3/46 125/3/46
f 128/3/47 129/3/47 127/3/47
f 130/3/48 131/3/48 129/3/48
f 131/3/49 134/3/49 133/3/49
f 134/3/24 130/3/24 126/3/24
f 134/3/50 135/3/50 133/3/50
f 136/3/51 121/3/51 135/3/51
f 127/3/21 131/3/21 135/3/21
f 138/4/52 139/4/52 137/4/52
f 140/4/53 141/4/53 139/4/53
f 142/4/54 143/4/54 141/4/54
f 144/4/55 145/4/55 143/4/55
f 146/4/56 147/4/56 145/4/56
f 148/4/57 149/4/57 147/4/57
f 150/4/24 146/4/24 142/4/24
f 150/4/58 151/4/58 149/4/58
f 152/4/59 137/4/59 151/4/59
f 143/4/21 147/4/21 151/4/21
f 154/5/60 156/5/60 153/5/60
f 157/5/61 159/5/61 160/5/61
f 162/6/62 164/6/62 161/6/62
f 165/6/63 167/6/63 168/6/63
f 170/5/64 172/5/64 169/5/64
f 173/5/65 175/5/65 176/5/65
f 178/3/44 179/3/44 177/3/44
f 180/3/45 181/3/45 179/3/45
f 182/3/46 183/3/46 181/3/46
f 184/3/47 185/3/47 183/3/47
f 186/3/48 187/3/48 185/3/48
f 187/3/49 190/3/49 189/3/49
f 190/3/24 186/3/24 182/3/24
f 190/3/50 191/3/50 189/3/50
f 192/3/51 177/3/51 191/3/51
f 183/3/21 187/3/21 191/3/21
f 194/4/52 195/4/52 193/4/52
f 196/4/53 197/4/53 195/4/53
f 198/4/54 199/4/54 197/4/54
f 200/4/55 201/4/55 199/4/55
f 202/4/56 203/4/56 201/4/56
f 204/4/57 205/4/57 203/4/57
f 206/4/24 202/4/24 198/4/24
f 206/4/58 207/4/58 205/4/58
f 208/4/59 193/4/59 207/4/59
f 199/4/21 203/4/21 207/4/21
f 210/5/66 212/5/66 209/5/66
f 213/5/67 215/5/67 216/5/67
f 218/6/68 220/6/68 217/6/68
f 221/6/69 223/6/69 224/6/69
f 226/5/70 228/5/70 225/5/70
f 229/5/71 231/5/71 232/5/71
f 233/3/44 236/3/44 235/3/44
f 236/3/45 237/3/45 235/3/45
f 237/3/46 240/3/46 239/3/46
f 240/3/47 241/3/47 239/3/47
f 241/3/48 244/3/48 243/3/48
f 244/3/49 245/3/49 243/3/49
f 246/3/24 242/3/24 238/3/24
f 246/3/50 247/3/50 245/3/50
f 248/3/51 233/3/51 247/3/51
f 239/3/21 243/3/21 247/3/21
f 250/4/52 251/4/52 249/4/52
f 252/4/53 253/4/53 251/4/53
f 254/4/54 255/4/54 253/4/54
f 256/4/55 257/4/55 255/4/55
f 258/4/56 259/4/56 257/4/56
f 260/4/57 261/4/57 259/4/57
f 262/4/24 258/4/24 254/4/24
f 262/4/58 263/4/58 261/4/58
f 264/4/59 249/4/59 263/4/59
f 255/4/21 259/4/21 263/4/21
f 266/5/72 268/5/72 265/5/72
f 269/5/73 271/5/73 272/5/73
f 274/6/74 276/6/74 273/6/74
f 277/6/75 279/6/75 280/6/75
f 282/5/76 284/5/76 281/5/76
f 285/5/77 287/5/77 288/5/77
f 289/3/44 292/3/44 291/3/44
f 291/3/45 294/3/45 293/3/45
f 293/3/46 296/3/46 295/3/46
f 296/3/47 297/3/47 295/3/47
f 298/3/48 299/3/48 297/3/48
f 300/3/49 301/3/49 299/3/49
f 302/3/24 298/3/24 294/3/24
f 302/3/50 303/3/50 301/3/50
f 304/3/51 289/3/51 303/3/51
f 295/3/21 299/3/21 303/3/21
f 306/4/52 307/4/52 305/4/52
f 308/4/53 309/4/53 307/4/53
f 310/4/54 311/4/54 309/4/54
f 312/4/55 313/4/55 311/4/55
f 314/4/56 315/4/56 313/4/56
f 316/4/57 317/4/57 315/4/57
f 318/4/24 314/4/24 310/4/24
f 318/4/58 319/4/58 317/4/58
f 320/4/59 305/4/59 319/4/59
f 311/4/21 315/4/21 319/4/21
f 322/5/78 324/5/78 321/5/78
f 325/5/79 327/5/79 328/5/79
f 330/6/80 332/6/80 329/6/80
f 333/6/81 335/6/81 336/6/81
f 338/5/82 340/5/82 337/5/82
f 341/5/83 343/5/83 344/5/83
f 346/3/44 347/3/44 345/3/44
f 348/3/45 349/3/45 347/3/45
f 349/3/46 352/3/46 351/3/46
f 352/3/47 353/3/47 351/3/47
f 353/3/48 356/3/48 355/3/48
f 356/3/49 357/3/49 355/3/49
f 358/3/24 354/3/24 350/3/24
f 358/3/50 359/3/50 357/3/50
f 359/3/51 346/3/51 345/3/51
f 351/3/21 355/3/21 359/3/21
f 362/4/52 363/4/52 361/4/52
f 364/4/53 365/4/53 363/4/53
f 366/4/54 367/4/54 365/4/54
f 368/4/55 369/4/55 367/4/55
f 370/4/56 371/4/56 369/4/56
f 372/4/57 373/4/57 371/4/57
f 374/4/24 370/4/24 366/4/24
f 374/4/58 375/4/58 373/4/58
f 376/4/59 361/4/59 375/4/59
f 367/4/21 371/4/21 375/4/21
f 378/5/84 380/5/84 377/5/84
f 381/5/85 383/5/85 384/5/85
f 386/6/86 388/6/86 385/6/86
f 389/6/87 391/6/87 392/6/87
f 394/5/88 396/5/88 393/5/88
f 397/5/89 399/5/89 400/5/89
f 401/2/90 402/2/90 403/2/90
f 404/2/91 405/2/91 406/2/91
f 407/2/35 408/2/35 409/2/35
f 410/2/92 411/2/92 412/2/92
f 413/2/31 414/2/31 415/2/31
f 416/2/32 417/2/32 418/2/32
f 419/2/33 420/2/33 421/2/33
f 422/2/34 423/2/34 424/2/34
f 401/2/9 408/2/9 407/2/9
f 404/2/10 403/2/10 402/2/10
f 410/2/11 406/2/11 405/2/11
f 409/2/12 412/2/12 411/2/12
f 407/2/13 420/2/13 419/2/13
f 422/2/14 411/2/14 410/2/14
f 421/2/15 424/2/15 423/2/15
f 419/2/16 414/2/16 413/2/16
f 416/2/17 423/2/17 422/2/17
f 415/2/18 418/2/18 417/2/18
f 413/2/19 402/2/19 401/2/19
f 405/2/20 417/2/20 416/2/20
f 419/2/21 401/2/21 407/2/21
f 406/2/22 408/2/22 403/2/22
f 417/2/23 402/2/23 415/2/23
f 410/2/24 416/2/24 422/2/24
f 411/2/25 420/2/25 409/2/25
f 423/2/26 414/2/26 421/2/26
f 426/3/44 427/3/44 425/3/44
f 428/3/45 429/3/45 427/3/45
f 429/3/46 432/3/46 431/3/46
f 432/3/47 433/3/47 431/3/47
f 434/3/48 435/3/48 433/3/48
f 436/3/49 437/3/49 435/3/49
f 438/3/24 434/3/24 430/3/24
f 438/3/50 439/3/50 437/3/50
f 439/3/51 426/3/51 425/3/51
f 431/3/21 435/3/21 439/3/21
f 442/4/52 443/4/52 441/4/52
f 444/4/53 445/4/53 443/4/53
f 446/4/54 447/4/54 445/4/54
f 448/4/55 449/4/55 447/4/55
f 450/4/56 451/4/56 449/4/56
f 452/4/57 453/4/57 451/4/57
f 454/4/24 450/4/24 446/4/24
f 454/4/58 455/4/58 453/4/58
f 456/4/59 441/4/59 455/4/59
f 447/4/21 451/4/21 455/4/21
f 458/5/93 460/5/93 457/5/93
f 461/5/94 463/5/94 464/5/94
f 466/6/95 468/6/95 465/6/95
f 469/6/96 471/6/96 472/6/96
f 474/5/97 476/5/97 473/5/97
f 477/5/98 479/5/98 480/5/98
f 482/3/44 483/3/44 481/3/44
f 484/3/45 485/3/45 483/3/45
f 486/3/46 487/3/46 485/3/46
f 488/3/47 489/3/47 487/3/47
f 490/3/48 491/3/48 489/3/48
f 491/3/49 494/3/49 493/3/49
f 494/3/24 490/3/24 486/3/24
f 494/3/50 495/3/50 493/3/50
f 496/3/51 481/3/51 495/3/51
f 487/3/21 491/3/21 495/3/21
f 498/4/52 499/4/52 497/4/52
f 500/4/53 501/4/53 499/4/53
f 502/4/54 503/4/54 501/4/54
f 504/4/55 505/4/55 503/4/55
f 506/4/56 507/4/56 505/4/56
f 508/4/57 509/4/57 507/4/57
f 510/4/24 506/4/24 502/4/24
f 510/4/58 511/4/58 509/4/58
f 512/4/59 497/4/59 511/4/59
f 503/4/21 507/4/21 511/4/21
f 514/5/99 516/5/99 513/5/99
f 517/5/100 519/5/100 520/5/100
f 522/6/101 524/6/101 521/6/101
f 525/6/102 527/6/102 528/6/102
f 530/5/103 532/5/103 529/5/103
f 533/5/104 535/5/104 536/5/104
f 537/3/44 540/3/44 539/3/44
f 540/3/45 541/3/45 539/3/45
f 541/3/46 544/3/46 543/3/46
f 544/3/47 545/3/47 543/3/47
f 545/3/48 548/3/48 547/3/48
f 548/3/49 549/3/49 547/3/49
f 550/3/24 546/3/24 542/3/24
f 550/3/50 551/3/50 549/3/50
f 552/3/51 537/3/51 551/3/51
f 543/3/21 547/3/21 551/3/21
f 554/4/52 555/4/52 553/4/52
f 556/4/53 557/4/53 555/4/53
f 558/4/54 559/4/54 557/4/54
f 560/4/55 561/4/55 559/4/55
f 562/4/56 563/4/56 561/4/56
f 564/4/57 565/4/57 563/4/57
f 566/4/24 562/4/24 558/4/24
f 566/4/58 567/4/58 565/4/58
f 568/4/59 553/4/59 567/4/59
f 559/4/21 563/4/21 567/4/21
f 570/5/105 572/5/105 569/5/105
f 573/5/106 575/5/106 576/5/106
f 578/6/107 580/6/107 577/6/107
f 581/6/108 583/6/108 584/6/108
f 586/5/109 588/5/109 585/5/109
f 589/5/110 591/5/110 592/5/110
f 593/3/44 596/3/44 595/3/44
f 595/3/45 598/3/45 597/3/45
f 597/3/46 600/3/46 599/3/46
f 600/3/47 601/3/47 599/3/47
f 602/3/48 603/3/48 601/3/48
f 604/3/49 605/3/49 603/3/49
f 606/3/24 602/3/24 598/3/24
f 606/3/50 607/3/50 605/3/50
f 608/3/51 593/3/51 607/3/51
f 599/3/21 603/3/21 607/3/21
f 610/4/52 611/4/52 609/4/52
f 612/4/53 613/4/53 611/4/53
f 614/4/54 615/4/54 613/4/54
f 616/4/55 617/4/55 615/4/55
f 618/4/56 619/4/56 617/4/56
f 620/4/57 621/4/57 619/4/57
f 622/4/24 618/4/24 614/4/24
f 622/4/58 623/4/58 621/4/58
f 624/4/59 609/4/59 623/4/59
f 615/4/21 619/4/21 623/4/21
f 626/5/111 628/5/111 625/5/111
f 629/5/112 631/5/112 632/5/112
f 634/6/113 636/6/113 633/6/113
f 637/6/114 639/6/114 640/6/114
f 642/5/115 644/5/115 641/5/115
f 645/5/116 647/5/116 648/5/116
f 650/3/44 651/3/44 649/3/44
f 652/3/45 653/3/45 651/3/45
f 653/3/46 656/3/46 655/3/46
f 656/3/47 657/3/47 655/3/47
f 657/3/48 660/3/48 659/3/48
f 660/3/49 661/3/49 659/3/49
f 662/3/24 658/3/24 654/3/24
f 662/3/50 663/3/50 661/3/50
f 663/3/51 650/3/51 649/3/51
f 655/3/21 659/3/21 663/3/21
f 666/4/52 667/4/52 665/4/52
f 668/4/53 669/4/53 667/4/53
f 670/4/54 671/4/54 669/4/54
f 672/4/55 673/4/55 671/4/55
f 674/4/56 675/4/56 673/4/56
f 676/4/57 677/4/57 675/4/57
f 678/4/24 674/4/24 670/4/24
f 678/4/58 679/4/58 677/4/58
f 680/4/59 665/4/59 679/4/59
f 671/4/21 675/4/21 679/4/21
f 682/5/117 684/5/117 681/5/117
f 685/5/118 687/5/118 688/5/118
f 690/6/119 692/6/119 689/6/119
f 693/6/120 695/6/120 696/6/120
f 698/5/121 700/5/121 697/5/121
f 701/5/122 703/5/122 704/5/122
f 705/2/1 706/2/1 707/2/1
f 708/2/123 709/2/123 710/2/123
f 711/2/29 712/2/29 713/2/29
f 714/2/30 715/2/30 716/2/30
f 717/2/124 718/2/124 719/2/124
f 720/2/41 721/2/41 722/2/41
f 723/2/125 724/2/125 725/2/125
f 726/2/43 727/2/43 728/2/43
f 705/2/9 712/2/9 711/2/9
f 708/2/10 707/2/10 706/2/10
f 714/2/11 710/2/11 709/2/11
f 713/2/12 716/2/12 715/2/12
f 711/2/13 724/2/13 723/2/13
f 726/2/14 715/2/14 714/2/14
f 725/2/15 728/2/15 727/2/15
f 723/2/16 718/2/16 717/2/16
f 720/2/17 727/2/17 726/2/17
f 719/2/18 722/2/18 721/2/18
f 717/2/19 706/2/19 705/2/19
f 709/2/20 721/2/20 720/2/20
f 723/2/21 705/2/21 711/2/21
f 710/2/22 712/2/22 707/2/22
f 721/2/23 706/2/23 719/2/23
f 714/2/24 720/2/24 726/2/24
f 715/2/25 724/2/25 713/2/25
f 727/2/26 718/2/26 725/2/26
f 730/3/44 731/3/44 729/3/44
f 732/3/45 733/3/45 731/3/45
f 734/3/46 735/3/46 733/3/46
f 736/3/47 737/3/47 735/3/47
f 738/3/48 739/3/48 737/3/48
f 740/3/49 741/3/49 739/3/49
f 742/3/24 738/3/24 734/3/24
f 742/3/50 743/3/50 741/3/50
f 744/3/51 729/3/51 743/3/51
f 735/3/21 739/3/21 743/3/21
f 746/4/52 747/4/52 745/4/52
f 748/4/53 749/4/53 747/4/53
f 750/4/54 751/4/54 749/4/54
f 752/4/55 753/4/55 751/4/55
f 754/4/56 755/4/56 753/4/56
f 756/4/57 757/4/57 755/4/57
f 758/4/24 754/4/24 750/4/24
f 758/4/58 759/4/58 757/4/58
f 760/4/59 745/4/59 759/4/59
f 751/4/21 755/4/21 759/4/21
f 762/5/126 764/5/126 761/5/126
f 765/5/127 767/5/127 768/5/127
f 770/6/128 772/6/128 769/6/128
f 773/6/129 775/6/129 776/6/129
f 778/5/130 780/5/130 777/5/130
f 781/5/131 783/5/131 784/5/131
f 785/3/44 788/3/44 787/3/44
f 788/3/45 789/3/45 787/3/45
f 789/3/46 792/3/46 791/3/46
f 792/3/47 793/3/47 791/3/47
f 794/3/48 795/3/48 793/3/48
f 795/3/49 798/3/49 797/3/49
f 798/3/24 794/3/24 790/3/24
f 798/3/50 799/3/50 797/3/50
f 800/3/51 785/3/51 799/3/51
f 791/3/21 795/3/21 799/3/21
f 802/4/52 803/4/52 801/4/52
f 804/4/53 805/4/53 803/4/53
f 806/4/54 807/4/54 805/4/54
f 808/4/55 809/4/55 807/4/55
f 810/4/56 811/4/56 809/4/56
f 812/4/57 813/4/57 811/4/57
f 814/4/24 810/4/24 806/4/24
f 814/4/58 815/4/58 813/4/58
f 816/4/59 801/4/59 815/4/59
f 807/4/21 811/4/21 815/4/21
f 818/5/132 820/5/132 817/5/132
f 821/5/133 823/5/133 824/5/133
f 826/6/134 828/6/134 825/6/134
f 829/6/135 831/6/135 832/6/135
f 834/5/136 836/5/136 833/5/136
f 837/5/137 839/5/137 840/5/137
f 841/3/44 844/3/44 843/3/44
f 844/3/45 845/3/45 843/3/45
f 845/3/46 848/3/46 847/3/46
f 848/3/47 849/3/47 847/3/47
f 849/3/48 852/3/48 851/3/48
f 851/3/49 854/3/49 853/3/49
f 854/3/24 850/3/24 846/3/24
f 854/3/50 855/3/50 853/3/50
f 856/3/51 841/3/51 855/3/51
f 847/3/21 851/3/21 855/3/21
f 858/4/52 859/4/52 857/4/52
f 860/4/53 861/4/53 859/4/53
f 862/4/54 863/4/54 861/4/54
f 864/4/55 865/4/55 863/4/55
f 866/4/56 867/4/56 865/4/56
f 868/4/57 869/4/57 867/4/57
f 870/4/24 866/4/24 862/4/24
f 870/4/58 871/4/58 869/4/58
f 872/4/59 857/4/59 871/4/59
f 863/4/21 867/4/21 871/4/21
f 874/5/138 876/5/138 873/5/138
f 877/5/139 879/5/139 880/5/139
f 882/6/140 884/6/140 881/6/140
f 885/6/141 887/6/141 888/6/141
f 890/5/142 892/5/142 889/5/142
f 893/5/143 895/5/143 896/5/143
f 897/3/44 900/3/44 899/3/44
f 900/3/45 901/3/45 899/3/45
f 901/3/46 904/3/46 903/3/46
f 904/3/47 905/3/47 903/3/47
f 906/3/48 907/3/48 905/3/48
f 908/3/49 909/3/49 907/3/49
f 910/3/24 906/3/24 902/3/24
f 910/3/50 911/3/50 909/3/50
f 912/3/51 897/3/51 911/3/51
f 903/3/21 907/3/21 911/3/21
f 914/4/52 915/4/52 913/4/52
f 916/4/53 917/4/53 915/4/53
f 918/4/54 919/4/54 917/4/54
f 920/4/55 921/4/55 919/4/55
f 922/4/56 923/4/56 921/4/56
f 924/4/57 925/4/57 923/4/57
f 926/4/24 922/4/24 918/4/24
f 926/4/58 927/4/58 925/4/58
f 928/4/59 913/4/59 927/4/59
f 919/4/21 923/4/21 927/4/21
f 930/5/144 932/5/144 929/5/144
f 933/5/145 935/5/145 936/5/145
f 938/6/146 940/6/146 937/6/146
f 941/6/147 943/6/147 944/6/147
f 946/5/148 948/5/148 945/5/148
f 949/5/149 951/5/149 952/5/149
f 954/3/44 955/3/44 953/3/44
f 956/3/45 957/3/45 955/3/45
f 957/3/46 960/3/46 959/3/46
f 960/3/47 961/3/47 959/3/47
f 961/3/48 964/3/48 963/3/48
f 964/3/49 965/3/49 963/3/49
f 966/3/24 962/3/24 958/3/24
f 966/3/50 967/3/50 965/3/50
f 967/3/51 954/3/51 953/3/51
f 959/3/21 963/3/21 967/3/21
f 970/4/52 971/4/52 969/4/52
f 972/4/53 973/4/53 971/4/53
f 974/4/54 975/4/54 973/4/54
f 976/4/55 977/4/55 975/4/55
f 978/4/56 979/4/56 977/4/56
f 980/4/57 981/4/57 979/4/57
f 982/4/24 978/4/24 974/4/24
f 982/4/58 983/4/58 981/4/58
f 984/4/59 969/4/59 983/4/59
f 975/4/21 979/4/21 983/4/21
f 986/5/150 988/5/150 985/5/150
f 989/5/151 991/5/151 992/5/151
f 994/6/152 996/6/152 993/6/152
f 997/6/153 999/6/153 1000/6/153
f 1002/5/154 1004/5/154 1001/5/154
f 1005/5/155 1007/5/155 1008/5/155
f 1/1/9 3/1/9 8/1/9
f 4/1/10 6/1/10 3/1/10
f 10/1/11 12/1/11 6/1/11
f 9/1/12 8/1/12 12/1/12
f 7/1/13 9/1/13 20/1/13
f 22/1/14 24/1/14 11/1/14
f 21/1/15 20/1/15 24/1/15
f 19/1/16 21/1/16 14/1/16
f 16/1/17 18/1/17 23/1/17
f 15/1/18 14/1/18 18/1/18
f 13/1/19 15/1/19 2/1/19
f 5/1/20 4/1/20 17/1/20
f 19/1/21 13/1/21 1/1/21
f 6/1/22 12/1/22 8/1/22
f 17/1/23 4/1/23 2/1/23
f 10/1/24 5/1/24 16/1/24
f 11/1/25 24/1/25 20/1/25
f 23/1/26 18/1/26 14/1/26
f 25/1/9 27/1/9 32/1/9
f 28/1/10 30/1/10 27/1/10
f 34/1/11 36/1/11 30/1/11
f 33/1/12 32/1/12 36/1/12
f 31/1/13 33/1/13 44/1/13
f 46/1/14 48/1/14 35/1/14
f 45/1/15 44/1/15 48/1/15
f 43/1/16 45/1/16 38/1/16
f 40/1/17 42/1/17 47/1/17
f 39/1/18 38/1/18 42/1/18
f 37/1/19 39/1/19 26/1/19
f 29/1/20 28/1/20 41/1/20
f 43/1/21 37/1/21 25/1/21
f 30/1/22 36/1/22 32/1/22
f 41/1/23 28/1/23 26/1/23
f 34/1/24 29/1/24 40/1/24
f 35/1/25 48/1/25 44/1/25
f 47/1/26 42/1/26 38/1/26
f 49/1/9 51/1/9 56/1/9
f 52/1/10 54/1/10 51/1/10
f 58/1/11 60/1/11 54/1/11
f 57/1/12 56/1/12 60/1/12
f 55/1/13 57/1/13 68/1/13
f 70/1/14 72/1/14 59/1/14
f 69/1/15 68/1/15 72/1/15
f 67/1/16 69/1/16 62/1/16
f 64/1/17 66/1/17 71/1/17
f 63/1/18 62/1/18 66/1/18
f 61/1/19 63/1/19 50/1/19
f 53/1/20 52/1/20 65/1/20
f 67/1/21 61/1/21 49/1/21
f 54/1/22 60/1/22 56/1/22
f 65/1/23 52/1/23 50/1/23
f 58/1/24 53/1/24 64/1/24
f 59/1/25 72/1/25 68/1/25
f 71/1/26 66/1/26 62/1/26
f 73/1/9 75/1/9 80/1/9
f 76/1/10 78/1/10 75/1/10
f 82/1/11 84/1/11 78/1/11
f 81/1/12 80/1/12 84/1/12
f 79/1/13 81/1/13 92/1/13
f 94/1/14 96/1/14 83/1/14
f 93/1/15 92/1/15 96/1/15
f 91/1/16 93/1/16 86/1/16
f 88/1/17 90/1/17 95/1/17
f 87/1/18 86/1/18 90/1/18
f 85/1/19 87/1/19 74/1/19
f 77/1/20 76/1/20 89/1/20
f 91/1/21 85/1/21 73/1/21
f 78/1/22 84/1/22 80/1/22
f 89/1/23 76/1/23 74/1/23
f 82/1/24 77/1/24 88/1/24
f 83/1/25 96/1/25 92/1/25
f 95/1/26 90/1/26 86/1/26
f 97/2/9 99/2/9 104/2/9
f 100/2/10 102/2/10 99/2/10
f 106/2/11 108/2/11 102/2/11
f 105/2/12 104/2/12 108/2/12
f 103/2/13 105/2/13 116/2/13
f 118/2/14 120/2/14 107/2/14
f 117/2/15 116/2/15 120/2/15
f 115/2/16 117/2/16 110/2/16
f 112/2/17 114/2/17 119/2/17
f 111/2/18 110/2/18 114/2/18
f 109/2/19 111/2/19 98/2/19
f 101/2/20 100/2/20 113/2/20
f 115/2/21 109/2/21 97/2/21
f 102/2/22 108/2/22 104/2/22
f 113/2/23 100/2/23 98/2/23
f 106/2/24 101/2/24 112/2/24
f 107/2/25 120/2/25 116/2/25
f 119/2/26 114/2/26 110/2/26
f 122/3/44 124/3/44 123/3/44
f 124/3/45 126/3/45 125/3/45
f 126/3/46 128/3/46 127/3/46
f 128/3/47 130/3/47 129/3/47
f 130/3/48 132/3/48 131/3/48
f 131/3/49 132/3/49 134/3/49
f 126/3/24 124/3/24 122/3/24
f 122/3/24 136/3/24 134/3/24
f 134/3/24 132/3/24 130/3/24
f 130/3/24 128/3/24 126/3/24
f 126/3/24 122/3/24 134/3/24
f 134/3/50 136/3/50 135/3/50
f 136/3/51 122/3/51 121/3/51
f 135/3/21 121/3/21 123/3/21
f 123/3/21 125/3/21 127/3/21
f 127/3/21 129/3/21 131/3/21
f 131/3/21 133/3/21 135/3/21
f 135/3/21 123/3/21 127/3/21
f 138/4/52 140/4/52 139/4/52
f 140/4/53 142/4/53 141/4/53
f 142/4/54 144/4/54 143/4/54
f 144/4/55 146/4/55 145/4/55
f 146/4/56 148/4/56 147/4/56
f 148/4/57 150/4/57 149/4/57
f 142/4/24 140/4/24 138/4/24
f 138/4/24 152/4/24 150/4/24
f 150/4/24 148/4/24 146/4/24
f 146/4/24 144/4/24 142/4/24
f 142/4/24 138/4/24 150/4/24
f 150/4/58 152/4/58 151/4/58
f 152/4/59 138/4/59 137/4/59
f 151/4/21 137/4/21 139/4/21
f 139/4/21 141/4/21 143/4/21
f 143/4/21 145/4/21 147/4/21
f 147/4/21 149/4/21 151/4/21
f 151/4/21 139/4/21 143/4/21
f 154/5/156 155/5/156 156/5/156
f 157/5/157 158/5/157 159/5/157
f 162/6/158 163/6/158 164/6/158
f 165/6/159 166/6/159 167/6/159
f 170/5/160 171/5/160 172/5/160
f 173/5/161 174/5/161 175/5/161
f 178/3/44 180/3/44 179/3/44
f 180/3/45 182/3/45 181/3/45
f 182/3/46 184/3/46 183/3/46
f 184/3/47 186/3/47 185/3/47
f 186/3/48 188/3/48 187/3/48
f 187/3/49 188/3/49 190/3/49
f 182/3/24 180/3/24 178/3/24
f 178/3/24 192/3/24 190/3/24
f 190/3/24 188/3/24 186/3/24
f 186/3/24 184/3/24 182/3/24
f 182/3/24 178/3/24 190/3/24
f 190/3/50 192/3/50 191/3/50
f 192/3/51 178/3/51 177/3/51
f 191/3/21 177/3/21 179/3/21
f 179/3/21 181/3/21 183/3/21
f 183/3/21 185/3/21 187/3/21
f 187/3/21 189/3/21 191/3/21
f 191/3/21 179/3/21 183/3/21
f 194/4/52 196/4/52 195/4/52
f 196/4/53 198/4/53 197/4/53
f 198/4/54 200/4/54 199/4/54
f 200/4/55 202/4/55 201/4/55
f 202/4/56 204/4/56 203/4/56
f 204/4/57 206/4/57 205/4/57
f 198/4/24 196/4/24 194/4/24
f 194/4/24 208/4/24 206/4/24
f 206/4/24 204/4/24 202/4/24
f 202/4/24 200/4/24 198/4/24
f 198/4/24 194/4/24 206/4/24
f 206/4/58 208/4/58 207/4/58
f 208/4/59 194/4/59 193/4/59
f 207/4/21 193/4/21 195/4/21
f 195/4/21 197/4/21 199/4/21
f 199/4/21 201/4/21 203/4/21
f 203/4/21 205/4/21 207/4/21
f 207/4/21 195/4/21 199/4/21
f 210/5/162 211/5/162 212/5/162
f 213/5/163 214/5/163 215/5/163
f 218/6/164 219/6/164 220/6/164
f 221/6/165 222/6/165 223/6/165
f 226/5/166 227/5/166 228/5/166
f 229/5/167 230/5/167 231/5/167
f 233/3/44 234/3/44 236/3/44
f 236/3/45 238/3/45 237/3/45
f 237/3/46 238/3/46 240/3/46
f 240/3/47 242/3/47 241/3/47
f 241/3/48 242/3/48 244/3/48
f 244/3/49 246/3/49 245/3/49
f 238/3/24 236/3/24 234/3/24
f 234/3/24 248/3/24 246/3/24
f 246/3/24 244/3/24 242/3/24
f 242/3/24 240/3/24 238/3/24
f 238/3/24 234/3/24 246/3/24
f 246/3/50 248/3/50 247/3/50
f 248/3/51 234/3/51 233/3/51
f 247/3/21 233/3/21 235/3/21
f 235/3/21 237/3/21 239/3/21
f 239/3/21 241/3/21 243/3/21
f 243/3/21 245/3/21 247/3/21
f 247/3/21 235/3/21 239/3/21
f 250/4/52 252/4/52 251/4/52
f 252/4/53 254/4/53 253/4/53
f 254/4/54 256/4/54 255/4/54
f 256/4/55 258/4/55 257/4/55
f 258/4/56 260/4/56 259/4/56
f 260/4/57 262/4/57 261/4/57
f 254/4/24 252/4/24 250/4/24
f 250/4/24 264/4/24 262/4/24
f 262/4/24 260/4/24 258/4/24
f 258/4/24 256/4/24 254/4/24
f 254/4/24 250/4/24 262/4/24
f 262/4/58 264/4/58 263/4/58
f 264/4/59 250/4/59 249/4/59
f 263/4/21 249/4/21 251/4/21
f 251/4/21 253/4/21 255/4/21
f 255/4/21 257/4/21 259/4/21
f 259/4/21 261/4/21 263/4/21
f 263/4/21 251/4/21 255/4/21
f 266/5/168 267/5/168 268/5/168
f 269/5/169 270/5/169 271/5/169
f 274/6/170 275/6/170 276/6/170
f 277/6/171 278/6/171 279/6/171
f 282/5/172 283/5/172 284/5/172
f 285/5/173 286/5/173 287/5/173
f 289/3/44 290/3/44 292/3/44
f 291/3/45 292/3/45 294/3/45
f 293/3/46 294/3/46 296/3/46
f 296/3/47 298/3/47 297/3/47
f 298/3/48 300/3/48 299/3/48
f 300/3/49 302/3/49 301/3/49
f 294/3/24 292/3/24 290/3/24
f 290/3/24 304/3/24 302/3/24
f 302/3/24 300/3/24 298/3/24
f 298/3/24 296/3/24 294/3/24
f 294/3/24 290/3/24 302/3/24
f 302/3/50 304/3/50 303/3/50
f 304/3/51 290/3/51 289/3/51
f 303/3/21 289/3/21 291/3/21
f 291/3/21 293/3/21 295/3/21
f 295/3/21 297/3/21 299/3/21
f 299/3/21 301/3/21 303/3/21
f 303/3/21 291/3/21 295/3/21
f 306/4/52 308/4/52 307/4/52
f 308/4/53 310/4/53 309/4/53
f 310/4/54 312/4/54 311/4/54
f 312/4/55 314/4/55 313/4/55
f 314/4/56 316/4/56 315/4/56
f 316/4/57 318/4/57 317/4/57
f 310/4/24 308/4/24 306/4/24
f 306/4/24 320/4/24 318/4/24
f 318/4/24 316/4/24 314/4/24
f 314/4/24 312/4/24 310/4/24
f 310/4/24 306/4/24 318/4/24
f 318/4/58 320/4/58 319/4/58
f 320/4/59 306/4/59 305/4/59
f 319/4/21 305/4/21 307/4/21
f 307/4/21 309/4/21 311/4/21
f 311/4/21 313/4/21 315/4/21
f 315/4/21 317/4/21 319/4/21
f 319/4/21 307/4/21 311/4/21
f 322/5/174 323/5/174 324/5/174
f 325/5/175 326/5/175 327/5/175
f 330/6/176 331/6/176 332/6/176
f 333/6/177 334/6/177 335/6/177
f 338/5/178 339/5/178 340/5/178
f 341/5/179 342/5/179 343/5/179
f 346/3/44 348/3/44 347/3/44
f 348/3/45 350/3/45 349/3/45
f 349/3/46 350/3/46 352/3/46
f 352/3/47 354/3/47 353/3/47
f 353/3/48 354/3/48 356/3/48
f 356/3/49 358/3/49 357/3/49
f 350/3/24 348/3/24 346/3/24
f 346/3/24 360/3/24 358/3/24
f 358/3/24 356/3/24 354/3/24
f 354/3/24 352/3/24 350/3/24
f 350/3/24 346/3/24 358/3/24
f 358/3/50 360/3/50 359/3/50
f 359/3/51 360/3/51 346/3/51
f 359/3/21 345/3/21 347/3/21
f 347/3/21 349/3/21 351/3/21
f 351/3/21 353/3/21 355/3/21
f 355/3/21 357/3/21 359/3/21
f 359/3/21 347/3/21 351/3/21
f 362/4/52 364/4/52 363/4/52
f 364/4/53 366/4/53 365/4/53
f 366/4/54 368/4/54 367/4/54
f 368/4/55 370/4/55 369/4/55
f 370/4/56 372/4/56 371/4/56
f 372/4/57 374/4/57 373/4/57
f 366/4/24 364/4/24 362/4/24
f 362/4/24 376/4/24 374/4/24
f 374/4/24 372/4/24 370/4/24
f 370/4/24 368/4/24 366/4/24
f 366/4/24 362/4/24 374/4/24
f 374/4/58 376/4/58 375/4/58
f 376/4/59 362/4/59 361/4/59
f 375/4/21 361/4/21 363/4/21
f 363/4/21 365/4/21 367/4/21
f 367/4/21 369/4/21 371/4/21
f 371/4/21 373/4/21 375/4/21
f 375/4/21 363/4/21 367/4/21
f 378/5/180 379/5/180 380/5/180
f 381/5/181 382/5/181 383/5/181
f 386/6/182 387/6/182 388/6/182
f 389/6/183 390/6/183 391/6/183
f 394/5/184 395/5/184 396/5/184
f 397/5/185 398/5/185 399/5/185
f 401/2/9 403/2/9 408/2/9
f 404/2/10 406/2/10 403/2/10
f 410/2/11 412/2/11 406/2/11
f 409/2/12 408/2/12 412/2/12
f 407/2/13 409/2/13 420/2/13
f 422/2/14 424/2/14 411/2/14
f 421/2/15 420/2/15 424/2/15
f 419/2/16 421/2/16 414/2/16
f 416/2/17 418/2/17 423/2/17
f 415/2/18 414/2/18 418/2/18
f 413/2/19 415/2/19 402/2/19
f 405/2/20 404/2/20 417/2/20
f 419/2/21 413/2/21 401/2/21
f 406/2/22 412/2/22 408/2/22
f 417/2/23 404/2/23 402/2/23
f 410/2/24 405/2/24 416/2/24
f 411/2/25 424/2/25 420/2/25
f 423/2/26 418/2/26 414/2/26
f 426/3/44 428/3/44 427/3/44
f 428/3/45 430/3/45 429/3/45
f 429/3/46 430/3/46 432/3/46
f 432/3/47 434/3/47 433/3/47
f 434/3/48 436/3/48 435/3/48
f 436/3/49 438/3/49 437/3/49
f 430/3/24 428/3/24 426/3/24
f 426/3/24 440/3/24 438/3/24
f 438/3/24 436/3/24 434/3/24
f 434/3/24 432/3/24 430/3/24
f 430/3/24 426/3/24 438/3/24
f 438/3/50 440/3/50 439/3/50
f 439/3/51 440/3/51 426/3/51
f 439/3/21 425/3/21 427/3/21
f 427/3/21 429/3/21 431/3/21
f 431/3/21 433/3/21 435/3/21
f 435/3/21 437/3/21 439/3/21
f 439/3/21 427/3/21 431/3/21
f 442/4/52 444/4/52 443/4/52
f 444/4/53 446/4/53 445/4/53
f 446/4/54 448/4/54 447/4/54
f 448/4/55 450/4/55 449/4/55
f 450/4/56 452/4/56 451/4/56
f 452/4/57 454/4/57 453/4/57
f 446/4/24 444/4/24 442/4/24
f 442/4/24 456/4/24 454/4/24
f 454/4/24 452/4/24 450/4/24
f 450/4/24 448/4/24 446/4/24
f 446/4/24 442/4/24 454/4/24
f 454/4/58 456/4/58 455/4/58
f 456/4/59 442/4/59 441/4/59
f 455/4/21 441/4/21 443/4/21
f 443/4/21 445/4/21 447/4/21
f 447/4/21 449/4/21 451/4/21
f 451/4/21 453/4/21 455/4/21
f 455/4/21 443/4/21 447/4/21
f 458/5/186 459/5/186 460/5/186
f 461/5/187 462/5/187 463/5/187
f 466/6/188 467/6/188 468/6/188
f 469/6/189 470/6/189 471/6/189
f 474/5/190 475/5/190 476/5/190
f 477/5/191 478/5/191 479/5/191
f 482/3/44 484/3/44 483/3/44
f 484/3/45 486/3/45 485/3/45
f 486/3/46 488/3/46 487/3/46
f 488/3/47 490/3/47 489/3/47
f 490/3/48 492/3/48 491/3/48
f 491/3/49 492/3/49 494/3/49
f 486/3/24 484/3/24 482/3/24
f 482/3/24 496/3/24 494/3/24
f 494/3/24 492/3/24 490/3/24
f 490/3/24 488/3/24 486/3/24
f 486/3/24 482/3/24 494/3/24
f 494/3/50 496/3/50 495/3/50
f 496/3/51 482/3/51 481/3/51
f 495/3/21 481/3/21 483/3/21
f 483/3/21 485/3/21 487/3/21
f 487/3/21 489/3/21 491/3/21
f 491/3/21 493/3/21 495/3/21
f 495/3/21 483/3/21 487/3/21
f 498/4/52 500/4/52 499/4/52
f 500/4/53 502/4/53 501/4/53
f 502/4/54 504/4/54 503/4/54
f 504/4/55 506/4/55 505/4/55
f 506/4/56 508/4/56 507/4/56
f 508/4/57 510/4/57 509/4/57
f 502/4/24 500/4/24 498/4/24
f 498/4/24 512/4/24 510/4/24
f 510/4/24 508/4/24 506/4/24
f 506/4/24 504/4/24 502/4/24
f 502/4/24 498/4/24 510/4/24
f 510/4/58 512/4/58 511/4/58
f 512/4/59 498/4/59 497/4/59
f 511/4/21 497/4/21 499/4/21
f 499/4/21 501/4/21 503/4/21
f 503/4/21 505/4/21 507/4/21
f 507/4/21 509/4/21 511/4/21
f 511/4/21 499/4/21 503/4/21
f 514/5/192 515/5/192 516/5/192
f 517/5/193 518/5/193 519/5/193
f 522/6/194 523/6/194 524/6/194
f 525/6/195 526/6/195 527/6/195
f 530/5/196 531/5/196 532/5/196
f 533/5/197 534/5/197 535/5/197
f 537/3/44 538/3/44 540/3/44
f 540/3/45 542/3/45 541/3/45
f 541/3/46 542/3/46 544/3/46
f 544/3/47 546/3/47 545/3/47
f 545/3/48 546/3/48 548/3/48
f 548/3/49 550/3/49 549/3/49
f 542/3/24 540/3/24 538/3/24
f 538/3/24 552/3/24 550/3/24
f 550/3/24 548/3/24 546/3/24
f 546/3/24 544/3/24 542/3/24
f 542/3/24 538/3/24 550/3/24
f 550/3/50 552/3/50 551/3/50
f 552/3/51 538/3/51 537/3/51
f 551/3/21 537/3/21 539/3/21
f 539/3/21 541/3/21 543/3/21
f 543/3/21 545/3/21 547/3/21
f 547/3/21 549/3/21 551/3/21
f 551/3/21 539/3/21 543/3/21
f 554/4/52 556/4/52 555/4/52
f 556/4/53 558/4/53 557/4/53
f 558/4/54 560/4/54 559/4/54
f 560/4/55 562/4/55 561/4/55
f 562/4/56 564/4/56 563/4/56
f 564/4/57 566/4/57 565/4/57
f 558/4/24 556/4/24 554/4/24
f 554/4/24 568/4/24 566/4/24
f 566/4/24 564/4/24 562/4/24
f 562/4/24 560/4/24 558/4/24
f 558/4/24 554/4/24 566/4/24
f 566/4/58 568/4/58 567/4/58
f 568/4/59 554/4/59 553/4/59
f 567/4/21 553/4/21 555/4/21
f 555/4/21 557/4/21 559/4/21
f 559/4/21 561/4/21 563/4/21
f 563/4/21 565/4/21 567/4/21
f 567/4/21 555/4/21 559/4/21
f 570/5/198 571/5/198 572/5/198
f 573/5/199 574/5/199 575/5/199
f 578/6/200 579/6/200 580/6/200
f 581/6/201 582/6/201 583/6/201
f 586/5/202 587/5/202 588/5/202
f 589/5/203 590/5/203 591/5/203
f 593/3/44 594/3/44 596/3/44
f 595/3/45 596/3/45 598/3/45
f 597/3/46 598/3/46 600/3/46
f 600/3/47 602/3/47 601/3/47
f 602/3/48 604/3/48 603/3/48
f 604/3/49 606/3/49 605/3/49
f 598/3/24 596/3/24 594/3/24
f 594/3/24 608/3/24 606/3/24
f 606/3/24 604/3/24 602/3/24
f 602/3/24 600/3/24 598/3/24
f 598/3/24 594/3/24 606/3/24
f 606/3/50 608/3/50 607/3/50
f 608/3/51 594/3/51 593/3/51
f 607/3/21 593/3/21 595/3/21
f 595/3/21 597/3/21 599/3/21
f 599/3/21 601/3/21 603/3/21
f 603/3/21 605/3/21 607/3/21
f 607/3/21 595/3/21 599/3/21
f 610/4/52 612/4/52 611/4/52
f 612/4/53 614/4/53 613/4/53
f 614/4/54 616/4/54 615/4/54
f 616/4/55 618/4/55 617/4/55
f 618/4/56 620/4/56 619/4/56
f 620/4/57 622/4/57 621/4/57
f 614/4/24 612/4/24 610/4/24
f 610/4/24 624/4/24 622/4/24
f 622/4/24 620/4/24 618/4/24
f 618/4/24 616/4/24 614/4/24
f 614/4/24 610/4/24 622/4/24
f 622/4/58 624/4/58 623/4/58
f 624/4/59 610/4/59 609/4/59
f 623/4/21 609/4/21 611/4/21
f 611/4/21 613/4/21 615/4/21
f 615/4/21 617/4/21 619/4/21
f 619/4/21 621/4/21 623/4/21
f 623/4/21 611/4/21 615/4/21
f 626/5/204 627/5/204 628/5/204
f 629/5/205 630/5/205 631/5/205
f 634/6/206 635/6/206 636/6/206
f 637/6/207 638/6/207 639/6/207
f 642/5/208 643/5/208 644/5/208
f 645/5/209 646/5/209 647/5/209
f 650/3/44 652/3/44 651/3/44
f 652/3/45 654/3/45 653/3/45
f 653/3/46 654/3/46 656/3/46
f 656/3/47 658/3/47 657/3/47
f 657/3/48 658/3/48 660/3/48
f 660/3/49 662/3/49 661/3/49
f 654/3/24 652/3/24 650/3/24
f 650/3/24 664/3/24 662/3/24
f 662/3/24 660/3/24 658/3/24
f 658/3/24 656/3/24 654/3/24
f 654/3/24 650/3/24 662/3/24
f 662/3/50 664/3/50 663/3/50
f 663/3/51 664/3/51 650/3/51
f 663/3/21 649/3/21 651/3/21
f 651/3/21 653/3/21 655/3/21
f 655/3/21 657/3/21 659/3/21
f 659/3/21 661/3/21 663/3/21
f 663/3/21 651/3/21 655/3/21
f 666/4/52 668/4/52 667/4/52
f 668/4/53 670/4/53 669/4/53
f 670/4/54 672/4/54 671/4/54
f 672/4/55 674/4/55 673/4/55
f 674/4/56 676/4/56 675/4/56
f 676/4/57 678/4/57 677/4/57
f 670/4/24 668/4/24 666/4/24
f 666/4/24 680/4/24 678/4/24
f 678/4/24 676/4/24 674/4/24
f 674/4/24 672/4/24 670/4/24
f 670/4/24 666/4/24 678/4/24
f 678/4/58 680/4/58 679/4/58
f 680/4/59 666/4/59 665/4/59
f 679/4/21 665/4/21 667/4/21
f 667/4/21 669/4/21 671/4/21
f 671/4/21 673/4/21 675/4/21
f 675/4/21 677/4/21 679/4/21
f 679/4/21 667/4/21 671/4/21
f 682/5/210 683/5/210 684/5/210
f 685/5/211 686/5/211 687/5/211
f 690/6/212 691/6/212 692/6/212
f 693/6/213 694/6/213 695/6/213
f 698/5/214 699/5/214 700/5/214
f 701/5/215 702/5/215 703/5/215
f 705/2/9 707/2/9 712/2/9
f 708/2/10 710/2/10 707/2/10
f 714/2/11 716/2/11 710/2/11
f 713/2/12 712/2/12 716/2/12
f 711/2/13 713/2/13 724/2/13
f 726/2/14 728/2/14 715/2/14
f 725/2/15 724/2/15 728/2/15
f 723/2/16 725/2/16 718/2/16
f 720/2/17 722/2/17 727/2/17
f 719/2/18 718/2/18 722/2/18
f 717/2/19 719/2/19 706/2/19
f 709/2/20 708/2/20 721/2/20
f 723/2/21 717/2/21 705/2/21
f 710/2/22 716/2/22 712/2/22
f 721/2/23 708/2/23 706/2/23
f 714/2/24 709/2/24 720/2/24
f 715/2/25 728/2/25 724/2/25
f 727/2/26 722/2/26 718/2/26
f 730/3/44 732/3/44 731/3/44
f 732/3/45 734/3/45 733/3/45
f 734/3/46 736/3/46 735/3/46
f 736/3/47 738/3/47 737/3/47
f 738/3/48 740/3/48 739/3/48
f 740/3/49 742/3/49 741/3/49
f 734/3/24 732/3/24 730/3/24
f 730/3/24 744/3/24 742/3/24
f 742/3/24 740/3/24 738/3/24
f 738/3/24 736/3/24 734/3/24
f 734/3/24 730/3/24 742/3/24
f 742/3/50 744/3/50 743/3/50
f 744/3/51 730/3/51 729/3/51
f 743/3/21 729/3/21 731/3/21
f 731/3/21 733/3/21 735/3/21
f 735/3/21 737/3/21 739/3/21
f 739/3/21 741/3/21 743/3/21
f 743/3/21 731/3/21 735/3/21
f 746/4/52 748/4/52 747/4/52
f 748/4/53 750/4/53 749/4/53
f 750/4/54 752/4/54 751/4/54
f 752/4/55 754/4/55 753/4/55
f 754/4/56 756/4/56 755/4/56
f 756/4/57 758/4/57 757/4/57
f 750/4/24 748/4/24 746/4/24
f 746/4/24 760/4/24 758/4/24
f 758/4/24 756/4/24 754/4/24
f 754/4/24 752/4/24 750/4/24
f 750/4/24 746/4/24 758/4/24
f 758/4/58 760/4/58 759/4/58
f 760/4/59 746/4/59 745/4/59
f 759/4/21 745/4/21 747/4/21
f 747/4/21 749/4/21 751/4/21
f 751/4/21 753/4/21 755/4/21
f 755/4/21 757/4/21 759/4/21
f 759/4/21 747/4/21 751/4/21
f 762/5/216 763/5/216 764/5/216
f 765/5/217 766/5/217 767/5/217
f 770/6/218 771/6/218 772/6/218
f 773/6/219 774/6/219 775/6/219
f 778/5/220 779/5/220 780/5/220
f 781/5/221 782/5/221 783/5/221
f 785/3/44 786/3/44 788/3/44
f 788/3/45 790/3/45 789/3/45
f 789/3/46 790/3/46 792/3/46
f 792/3/47 794/3/47 793/3/47
f 794/3/48 796/3/48 795/3/48
f 795/3/49 796/3/49 798/3/49
f 790/3/24 788/3/24 786/3/24
f 786/3/24 800/3/24 798/3/24
f 798/3/24 796/3/24 794/3/24
f 794/3/24 792/3/24 790/3/24
f 790/3/24 786/3/24 798/3/24
f 798/3/50 800/3/50 799/3/50
f 800/3/51 786/3/51 785/3/51
f 799/3/21 785/3/21 787/3/21
f 787/3/21 789/3/21 791/3/21
f 791/3/21 793/3/21 795/3/21
f 795/3/21 797/3/21 799/3/21
f 799/3/21 787/3/21 791/3/21
f 802/4/52 804/4/52 803/4/52
f 804/4/53 806/4/53 805/4/53
f 806/4/54 808/4/54 807/4/54
f 808/4/55 810/4/55 809/4/55
f 810/4/56 812/4/56 811/4/56
f 812/4/57 814/4/57 813/4/57
f 806/4/24 804/4/24 802/4/24
f 802/4/24 816/4/24 814/4/24
f 814/4/24 812/4/24 810/4/24
f 810/4/24 808/4/24 806/4/24
f 806/4/24 802/4/24 814/4/24
f 814/4/58 816/4/58 815/4/58
f 816/4/59 802/4/59 801/4/59
f 815/4/21 801/4/21 803/4/21
f 803/4/21 805/4/21 807/4/21
f 807/4/21 809/4/21 811/4/21
f 811/4/21 813/4/21 815/4/21
f 815/4/21 803/4/21 807/4/21
f 818/5/222 819/5/222 820/5/222
f 821/5/223 822/5/223 823/5/223
f 826/6/224 827/6/224 828/6/224
f 829/6/225 830/6/225 831/6/225
f 834/5/226 835/5/226 836/5/226
f 837/5/227 838/5/227 839/5/227
f 841/3/44 842/3/44 844/3/44
f 844/3/45 846/3/45 845/3/45
f 845/3/46 846/3/46 848/3/46
f 848/3/47 850/3/47 849/3/47
f 849/3/48 850/3/48 852/3/48
f 851/3/49 852/3/49 854/3/49
f 846/3/24 844/3/24 842/3/24
f 842/3/24 856/3/24 854/3/24
f 854/3/24 852/3/24 850/3/24
f 850/3/24 848/3/24 846/3/24
f 846/3/24 842/3/24 854/3/24
f 854/3/50 856/3/50 855/3/50
f 856/3/51 842/3/51 841/3/51
f 855/3/21 841/3/21 843/3/21
f 843/3/21 845/3/21 847/3/21
f 847/3/21 849/3/21 851/3/21
f 851/3/21 853/3/21 855/3/21
f 855/3/21 843/3/21 847/3/21
f 858/4/52 860/4/52 859/4/52
f 860/4/53 862/4/53 861/4/53
f 862/4/54 864/4/54 863/4/54
f 864/4/55 866/4/55 865/4/55
f 866/4/56 868/4/56 867/4/56
f 868/4/57 870/4/57 869/4/57
f 862/4/24 860/4/24 858/4/24
f 858/4/24 872/4/24 870/4/24
f 870/4/24 868/4/24 866/4/24
f 866/4/24 864/4/24 862/4/24
f 862/4/24 858/4/24 870/4/24
f 870/4/58 872/4/58 871/4/58
f 872/4/59 858/4/59 857/4/59
f 871/4/21 857/4/21 859/4/21
f 859/4/21 861/4/21 863/4/21
f 863/4/21 865/4/21 867/4/21
f 867/4/21 869/4/21 871/4/21
f 871/4/21 859/4/21 863/4/21
f 874/5/228 875/5/228 876/5/228
f 877/5/229 878/5/229 879/5/229
f 882/6/230 883/6/230 884/6/230
f 885/6/231 886/6/231 887/6/231
f 890/5/232 891/5/232 892/5/232
f 893/5/233 894/5/233 895/5/233
f 897/3/44 898/3/44 900/3/44
f 900/3/45 902/3/45 901/3/45
f 901/3/46 902/3/46 904/3/46
f 904/3/47 906/3/47 905/3/47
f 906/3/48 908/3/48 907/3/48
f 908/3/49 910/3/49 909/3/49
f 902/3/24 900/3/24 898/3/24
f 898/3/24 912/3/24 910/3/24
f 910/3/24 908/3/24 906/3/24
f 906/3/24 904/3/24 902/3/24
f 902/3/24 898/3/24 910/3/24
f 910/3/50 912/3/50 911/3/50
f 912/3/51 898/3/51 897/3/51
f 911/3/21 897/3/21 899/3/21
f 899/3/21 901/3/21 903/3/21
f 903/3/21 905/3/21 907/3/21
f 907/3/21 909/3/21 911/3/21
f 911/3/21 899/3/21 903/3/21
f 914/4/52 916/4/52 915/4/52
f 916/4/53 918/4/53 917/4/53
f 918/4/54 920/4/54 919/4/54
f 920/4/55 922/4/55 921/4/55
f 922/4/56 924/4/56 923/4/56
f 924/4/57 926/4/57 925/4/57
f 918/4/24 916/4/24 914/4/24
f 914/4/24 928/4/24 926/4/24
f 926/4/24 924/4/24 922/4/24
f 922/4/24 920/4/24 918/4/24
f 918/4/24 914/4/24 926/4/24
f 926/4/58 928/4/58 927/4/58
f 928/4/59 914/4/59 913/4/59
f 927/4/21 913/4/21 915/4/21
f 915/4/21 917/4/21 919/4/21
f 919/4/21 921/4/21 923/4/21
f 923/4/21 925/4/21 927/4/21
f 927/4/21 915/4/21 919/4/21
f 930/5/234 931/5/234 932/5/234
f 933/5/235 934/5/235 935/5/235
f 938/6/236 939/6/236 940/6/236
f 941/6/237 942/6/237 943/6/237
f 946/5/238 947/5/238 948/5/238
f 949/5/239 950/5/239 951/5/239
f 954/3/44 956/3/44 955/3/44
f 956/3/45 958/3/45 957/3/45
f 957/3/46 958/3/46 960/3/46
f 960/3/47 962/3/47 961/3/47
f 961/3/48 962/3/48 964/3/48
f 964/3/49 966/3/49 965/3/49
f 958/3/24 956/3/24 954/3/24
f 954/3/24 968/3/24 966/3/24
f 966/3/24 964/3/24 962/3/24
f 962/3/24 960/3/24 958/3/24
f 958/3/24 954/3/24 966/3/24
f 966/3/50 968/3/50 967/3/50
f 967/3/51 968/3/51 954/3/51
f 967/3/21 953/3/21 955/3/21
f 955/3/21 957/3/21 959/3/21
f 959/3/21 961/3/21 963/3/21
f 963/3/21 965/3/21 967/3/21
f 967/3/21 955/3/21 959/3/21
f 970/4/52 972/4/52 971/4/52
f 972/4/53 974/4/53 973/4/53
f 974/4/54 976/4/54 975/4/54
f 976/4/55 978/4/55 977/4/55
f 978/4/56 980/4/56 979/4/56
f 980/4/57 982/4/57 981/4/57
f 974/4/24 972/4/24 970/4/24
f 970/4/24 984/4/24 982/4/24
f 982/4/24 980/4/24 978/4/24
f 978/4/24 976/4/24 974/4/24
f 974/4/24 970/4/24 982/4/24
f 982/4/58 984/4/58 983/4/58
f 984/4/59 970/4/59 969/4/59
f 983/4/21 969/4/21 971/4/21
f 971/4/21 973/4/21 975/4/21
f 975/4/21 977/4/21 979/4/21
f 979/4/21 981/4/21 983/4/21
f 983/4/21 971/4/21 975/4/21
f 986/5/240 987/5/240 988/5/240
f 989/5/241 990/5/241 991/5/241
f 994/6/242 995/6/242 996/6/242
f 997/6/243 998/6/243 999/6/243
f 1002/5/244 1003/5/244 1004/5/244
f 1005/5/245 1006/5/245 1007/5/245
