# Blender 5.1.1
# www.blender.org
o tungku
v -0.790000 -0.500000 0.340000
v -0.790000 -0.490000 0.350000
v -0.800000 -0.490000 0.340000
v -0.790000 0.490000 0.350000
v -0.790000 0.500000 0.340000
v -0.800000 0.490000 0.340000
v -0.790000 -0.500000 -0.340000
v -0.800000 -0.490000 -0.340000
v -0.790000 -0.490000 -0.350000
v -0.790000 0.500000 -0.340000
v -0.790000 0.490000 -0.350000
v -0.800000 0.490000 -0.340000
v 0.790000 -0.500000 0.340000
v 0.800000 -0.490000 0.340000
v 0.790000 -0.490000 0.350000
v 0.790000 0.500000 0.340000
v 0.790000 0.490000 0.350000
v 0.800000 0.490000 0.340000
v 0.790000 -0.500000 -0.340000
v 0.790000 -0.490000 -0.350000
v 0.800000 -0.490000 -0.340000
v 0.790000 0.500000 -0.340000
v 0.800000 0.490000 -0.340000
v 0.790000 0.490000 -0.350000
v -0.802500 -0.320000 0.352500
v -0.802500 -0.305000 0.352500
v -0.802500 -0.320000 -0.352500
v -0.802500 -0.305000 -0.352500
v 0.802500 -0.320000 0.352500
v 0.802500 -0.305000 0.352500
v 0.802500 -0.320000 -0.352500
v 0.802500 -0.305000 -0.352500
v -0.802500 -0.140000 0.352500
v -0.802500 -0.125000 0.352500
v -0.802500 -0.140000 -0.352500
v -0.802500 -0.125000 -0.352500
v 0.802500 -0.140000 0.352500
v 0.802500 -0.125000 0.352500
v 0.802500 -0.140000 -0.352500
v 0.802500 -0.125000 -0.352500
v -0.802500 0.040000 0.352500
v -0.802500 0.055000 0.352500
v -0.802500 0.040000 -0.352500
v -0.802500 0.055000 -0.352500
v 0.802500 0.040000 0.352500
v 0.802500 0.055000 0.352500
v 0.802500 0.040000 -0.352500
v 0.802500 0.055000 -0.352500
v -0.802500 0.220000 0.352500
v -0.802500 0.235000 0.352500
v -0.802500 0.220000 -0.352500
v -0.802500 0.235000 -0.352500
v 0.802500 0.220000 0.352500
v 0.802500 0.235000 0.352500
v 0.802500 0.220000 -0.352500
v 0.802500 0.235000 -0.352500
v -0.802500 0.400000 0.352500
v -0.802500 0.415000 0.352500
v -0.802500 0.400000 -0.352500
v -0.802500 0.415000 -0.352500
v 0.802500 0.400000 0.352500
v 0.802500 0.415000 0.352500
v 0.802500 0.400000 -0.352500
v 0.802500 0.415000 -0.352500
v -0.418000 -0.380000 0.378000
v -0.418000 -0.368000 0.390000
v -0.430000 -0.368000 0.378000
v -0.418000 0.248000 0.390000
v -0.418000 0.260000 0.378000
v -0.430000 0.248000 0.378000
v -0.418000 -0.380000 0.302000
v -0.430000 -0.368000 0.302000
v -0.418000 -0.368000 0.290000
v -0.418000 0.260000 0.302000
v -0.418000 0.248000 0.290000
v -0.430000 0.248000 0.302000
v 0.418000 -0.380000 0.378000
v 0.430000 -0.368000 0.378000
v 0.418000 -0.368000 0.390000
v 0.418000 0.260000 0.378000
v 0.418000 0.248000 0.390000
v 0.430000 0.248000 0.378000
v 0.418000 -0.380000 0.302000
v 0.418000 -0.368000 0.290000
v 0.430000 -0.368000 0.302000
v 0.418000 0.260000 0.302000
v 0.430000 0.248000 0.302000
v 0.418000 0.248000 0.290000
v -0.868000 0.500000 0.428000
v -0.868000 0.512000 0.440000
v -0.880000 0.512000 0.428000
v -0.868000 0.588000 0.440000
v -0.868000 0.600000 0.428000
v -0.880000 0.588000 0.428000
v -0.868000 0.500000 -0.368000
v -0.880000 0.512000 -0.368000
v -0.868000 0.512000 -0.380000
v -0.868000 0.600000 -0.368000
v -0.868000 0.588000 -0.380000
v -0.880000 0.588000 -0.368000
v 0.868000 0.500000 0.428000
v 0.880000 0.512000 0.428000
v 0.868000 0.512000 0.440000
v 0.868000 0.600000 0.428000
v 0.868000 0.588000 0.440000
v 0.880000 0.588000 0.428000
v 0.868000 0.500000 -0.368000
v 0.868000 0.512000 -0.380000
v 0.880000 0.512000 -0.368000
v 0.868000 0.600000 -0.368000
v 0.880000 0.588000 -0.368000
v 0.868000 0.588000 -0.380000
v -0.538000 0.600000 0.138000
v -0.538000 0.612000 0.150000
v -0.550000 0.612000 0.138000
v -0.538000 2.288000 0.150000
v -0.538000 2.300000 0.138000
v -0.550000 2.288000 0.138000
v -0.538000 0.600000 -0.338000
v -0.550000 0.612000 -0.338000
v -0.538000 0.612000 -0.350000
v -0.538000 2.300000 -0.338000
v -0.538000 2.288000 -0.350000
v -0.550000 2.288000 -0.338000
v 0.538000 0.600000 0.138000
v 0.550000 0.612000 0.138000
v 0.538000 0.612000 0.150000
v 0.538000 2.300000 0.138000
v 0.538000 2.288000 0.150000
v 0.550000 2.288000 0.138000
v 0.538000 0.600000 -0.338000
v 0.538000 0.612000 -0.350000
v 0.550000 0.612000 -0.338000
v 0.538000 2.300000 -0.338000
v 0.550000 2.288000 -0.338000
v 0.538000 2.288000 -0.350000
v -0.552500 0.800000 0.152500
v -0.552500 0.815000 0.152500
v -0.552500 0.800000 -0.352500
v -0.552500 0.815000 -0.352500
v 0.552500 0.800000 0.152500
v 0.552500 0.815000 0.152500
v 0.552500 0.800000 -0.352500
v 0.552500 0.815000 -0.352500
v -0.552500 1.050000 0.152500
v -0.552500 1.065000 0.152500
v -0.552500 1.050000 -0.352500
v -0.552500 1.065000 -0.352500
v 0.552500 1.050000 0.152500
v 0.552500 1.065000 0.152500
v 0.552500 1.050000 -0.352500
v 0.552500 1.065000 -0.352500
v -0.552500 1.300000 0.152500
v -0.552500 1.315000 0.152500
v -0.552500 1.300000 -0.352500
v -0.552500 1.315000 -0.352500
v 0.552500 1.300000 0.152500
v 0.552500 1.315000 0.152500
v 0.552500 1.300000 -0.352500
v 0.552500 1.315000 -0.352500
v -0.552500 1.550000 0.152500
v -0.552500 1.565000 0.152500
v -0.552500 1.550000 -0.352500
v -0.552500 1.565000 -0.352500
v 0.552500 1.550000 0.152500
v 0.552500 1.565000 0.152500
v 0.552500 1.550000 -0.352500
v 0.552500 1.565000 -0.352500
v -0.552500 1.800000 0.152500
v -0.552500 1.815000 0.152500
v -0.552500 1.800000 -0.352500
v -0.552500 1.815000 -0.352500
v 0.552500 1.800000 0.152500
v 0.552500 1.815000 0.152500
v 0.552500 1.800000 -0.352500
v 0.552500 1.815000 -0.352500
v -0.552500 2.050000 0.152500
v -0.552500 2.065000 0.152500
v -0.552500 2.050000 -0.352500
v -0.552500 2.065000 -0.352500
v 0.552500 2.050000 0.152500
v 0.552500 2.065000 0.152500
v 0.552500 2.050000 -0.352500
v 0.552500 2.065000 -0.352500
v -0.938000 -0.500000 0.808000
v -0.938000 -0.488000 0.820000
v -0.950000 -0.488000 0.808000
v -0.938000 -0.432000 0.820000
v -0.938000 -0.420000 0.808000
v -0.950000 -0.432000 0.808000
v -0.938000 -0.500000 0.232000
v -0.950000 -0.488000 0.232000
v -0.938000 -0.488000 0.220000
v -0.938000 -0.420000 0.232000
v -0.938000 -0.432000 0.220000
v -0.950000 -0.432000 0.232000
v 0.938000 -0.500000 0.808000
v 0.950000 -0.488000 0.808000
v 0.938000 -0.488000 0.820000
v 0.938000 -0.420000 0.808000
v 0.938000 -0.432000 0.820000
v 0.950000 -0.432000 0.808000
v 0.938000 -0.500000 0.232000
v 0.938000 -0.488000 0.220000
v 0.950000 -0.488000 0.232000
v 0.938000 -0.420000 0.232000
v 0.950000 -0.432000 0.232000
v 0.938000 -0.432000 0.220000
v -0.320686 -0.300000 0.103126
v 0.252516 -0.300000 -0.074186
v -0.317915 -0.335000 0.112086
v 0.255287 -0.335000 -0.065226
v -0.310343 -0.360622 0.136563
v 0.262859 -0.360622 -0.040749
v -0.300000 -0.370000 0.170000
v 0.273202 -0.370000 -0.007312
v -0.289657 -0.360622 0.203437
v 0.283545 -0.360622 0.026125
v -0.282085 -0.335000 0.227914
v 0.291117 -0.335000 0.050602
v -0.279314 -0.300000 0.236874
v 0.293888 -0.300000 0.059561
v -0.282085 -0.265000 0.227914
v 0.291117 -0.265000 0.050602
v -0.289657 -0.239378 0.203437
v 0.283545 -0.239378 0.026125
v -0.300000 -0.230000 0.170000
v 0.273202 -0.230000 -0.007312
v -0.310343 -0.239378 0.136563
v 0.262859 -0.239378 -0.040749
v -0.317915 -0.265000 0.112086
v 0.255287 -0.265000 -0.065226
v -0.279314 -0.300000 -0.016874
v 0.293888 -0.300000 0.160439
v -0.282085 -0.335000 -0.007914
v 0.291117 -0.335000 0.169398
v -0.289657 -0.360622 0.016563
v 0.283545 -0.360622 0.193875
v -0.300000 -0.370000 0.050000
v 0.273202 -0.370000 0.227312
v -0.310343 -0.360622 0.083437
v 0.262859 -0.360622 0.260749
v -0.317915 -0.335000 0.107914
v 0.255287 -0.335000 0.285226
v -0.320686 -0.300000 0.116874
v 0.252516 -0.300000 0.294186
v -0.317915 -0.265000 0.107914
v 0.255287 -0.265000 0.285226
v -0.310343 -0.239378 0.083437
v 0.262859 -0.239378 0.260749
v -0.300000 -0.230000 0.050000
v 0.273202 -0.230000 0.227312
v -0.289657 -0.239378 0.016563
v 0.283545 -0.239378 0.193875
v -0.282085 -0.265000 -0.007914
v 0.291117 -0.265000 0.169398
v 0.000000 -0.380000 -0.070000
v 0.000000 -0.330000 -0.070000
v 0.129313 -0.380000 -0.027984
v 0.129313 -0.330000 -0.027984
v 0.209232 -0.380000 0.082016
v 0.209232 -0.330000 0.082016
v 0.209232 -0.380000 0.217984
v 0.209232 -0.330000 0.217984
v 0.129313 -0.380000 0.327984
v 0.129313 -0.330000 0.327984
v 0.000000 -0.380000 0.370000
v 0.000000 -0.330000 0.370000
v -0.129313 -0.380000 0.327984
v -0.129313 -0.330000 0.327984
v -0.209232 -0.380000 0.217984
v -0.209232 -0.330000 0.217984
v -0.209232 -0.380000 0.082016
v -0.209232 -0.330000 0.082016
v -0.129313 -0.380000 -0.027984
v -0.129313 -0.330000 -0.027984
v 0.000000 -0.330000 0.030000
v 0.093820 -0.330000 0.075181
v 0.116991 -0.330000 0.176703
v 0.052066 -0.330000 0.258116
v -0.052066 -0.330000 0.258116
v -0.116991 -0.330000 0.176703
v -0.093820 -0.330000 0.075181
v 0.000000 0.090000 0.150000
v -0.150000 -0.330000 0.050000
v -0.071817 -0.330000 0.087651
v -0.052507 -0.330000 0.172252
v -0.106612 -0.330000 0.240097
v -0.193388 -0.330000 0.240097
v -0.247493 -0.330000 0.172252
v -0.228183 -0.330000 0.087651
v -0.150000 -0.030000 0.150000
v 0.160000 -0.330000 0.070000
v 0.222547 -0.330000 0.100121
v 0.237994 -0.330000 0.167802
v 0.194711 -0.330000 0.222078
v 0.125289 -0.330000 0.222078
v 0.082006 -0.330000 0.167802
v 0.097453 -0.330000 0.100121
v 0.160000 -0.010000 0.150000
v -0.630000 0.600000 0.090000
v -0.630000 0.620000 0.110000
v -0.650000 0.620000 0.090000
v -0.630000 0.800000 0.110000
v -0.630000 0.820000 0.090000
v -0.650000 0.800000 0.090000
v -0.630000 0.600000 0.010000
v -0.650000 0.620000 0.010000
v -0.630000 0.620000 -0.010000
v -0.630000 0.820000 0.010000
v -0.630000 0.800000 -0.010000
v -0.650000 0.800000 0.010000
v -0.370000 0.600000 0.090000
v -0.350000 0.620000 0.090000
v -0.370000 0.620000 0.110000
v -0.370000 0.820000 0.090000
v -0.370000 0.800000 0.110000
v -0.350000 0.800000 0.090000
v -0.370000 0.600000 0.010000
v -0.370000 0.620000 -0.010000
v -0.350000 0.620000 0.010000
v -0.370000 0.820000 0.010000
v -0.350000 0.800000 0.010000
v -0.370000 0.800000 -0.010000
v -0.500000 0.790000 0.115000
v -0.500000 0.790000 0.135000
v -0.460000 0.779282 0.115000
v -0.460000 0.779282 0.135000
v -0.430718 0.750000 0.115000
v -0.430718 0.750000 0.135000
v -0.420000 0.710000 0.115000
v -0.420000 0.710000 0.135000
v -0.430718 0.670000 0.115000
v -0.430718 0.670000 0.135000
v -0.460000 0.640718 0.115000
v -0.460000 0.640718 0.135000
v -0.500000 0.630000 0.115000
v -0.500000 0.630000 0.135000
v -0.540000 0.640718 0.115000
v -0.540000 0.640718 0.135000
v -0.569282 0.670000 0.115000
v -0.569282 0.670000 0.135000
v -0.580000 0.710000 0.115000
v -0.580000 0.710000 0.135000
v -0.569282 0.750000 0.115000
v -0.569282 0.750000 0.135000
v -0.540000 0.779282 0.115000
v -0.540000 0.779282 0.135000
v 0.500000 0.600000 0.000000
v 0.500000 0.850000 0.000000
v 0.535355 0.600000 0.014645
v 0.535355 0.850000 0.014645
v 0.550000 0.600000 0.050000
v 0.550000 0.850000 0.050000
v 0.535355 0.600000 0.085355
v 0.535355 0.850000 0.085355
v 0.500000 0.600000 0.100000
v 0.500000 0.850000 0.100000
v 0.464645 0.600000 0.085355
v 0.464645 0.850000 0.085355
v 0.450000 0.600000 0.050000
v 0.450000 0.850000 0.050000
v 0.464645 0.600000 0.014645
v 0.464645 0.850000 0.014645
v 0.250000 0.600000 0.000000
v 0.250000 0.850000 0.000000
v 0.285355 0.600000 0.014645
v 0.285355 0.850000 0.014645
v 0.300000 0.600000 0.050000
v 0.300000 0.850000 0.050000
v 0.285355 0.600000 0.085355
v 0.285355 0.850000 0.085355
v 0.250000 0.600000 0.100000
v 0.250000 0.850000 0.100000
v 0.214645 0.600000 0.085355
v 0.214645 0.850000 0.085355
v 0.200000 0.600000 0.050000
v 0.200000 0.850000 0.050000
v 0.214645 0.600000 0.014645
v 0.214645 0.850000 0.014645
vn -0.5774 -0.5774 0.5774
vn -0.5774 0.5774 0.5774
vn -0.5774 -0.5774 -0.5774
vn -0.5774 0.5774 -0.5774
vn 0.5774 -0.5774 0.5774
vn 0.5774 0.5774 0.5774
vn 0.5774 -0.5774 -0.5774
vn 0.5774 0.5774 -0.5774
vn -0.7071 -0.7071 -0.0000
vn -0.7071 -0.0000 0.7071
vn -0.7071 0.7071 -0.0000
vn -0.7071 -0.0000 -0.7071
vn -0.0000 -0.7071 -0.7071
vn -0.0000 0.7071 -0.7071
vn 0.7071 -0.0000 -0.7071
vn 0.7071 -0.7071 -0.0000
vn 0.7071 0.7071 -0.0000
vn 0.7071 -0.0000 0.7071
vn -0.0000 -0.7071 0.7071
vn -0.0000 0.7071 0.7071
vn -0.0000 -1.0000 -0.0000
vn -1.0000 -0.0000 -0.0000
vn -0.0000 -0.0000 1.0000
vn -0.0000 1.0000 -0.0000
vn -0.0000 -0.0000 -1.0000
vn 1.0000 -0.0000 -0.0000
vn -0.5774 -0.5773 0.5774
vn -0.5774 0.5773 0.5774
vn -0.5774 -0.5773 -0.5773
vn -0.5774 0.5773 -0.5774
vn 0.5774 -0.5773 0.5774
vn 0.5774 0.5773 0.5774
vn 0.5774 -0.5773 -0.5773
vn 0.5774 0.5773 -0.5774
vn -0.5774 -0.5774 0.5773
vn -0.5774 0.5774 0.5773
vn -0.5774 -0.5774 -0.5773
vn -0.5774 0.5774 -0.5773
vn 0.5774 -0.5774 0.5773
vn 0.5774 0.5774 0.5773
vn 0.5774 -0.5774 -0.5773
vn 0.5774 0.5774 -0.5773
vn -0.5773 -0.5774 0.5774
vn -0.5773 -0.5774 -0.5774
vn -0.5773 0.5773 -0.5774
vn 0.5773 -0.5774 0.5774
vn 0.5773 -0.5774 -0.5774
vn 0.5773 0.5773 -0.5774
vn -0.5773 -0.5774 0.5773
vn -0.5773 0.5774 0.5773
vn -0.5773 -0.5773 -0.5774
vn 0.5773 -0.5774 0.5773
vn 0.5773 0.5774 0.5773
vn 0.5773 -0.5773 -0.5774
vn -0.2855 -0.2588 -0.9228
vn -0.2090 -0.7071 -0.6755
vn -0.0765 -0.9659 -0.2473
vn 0.0765 -0.9659 0.2473
vn 0.2090 -0.7071 0.6755
vn 0.2855 -0.2588 0.9228
vn 0.2855 0.2588 0.9228
vn 0.2090 0.7071 0.6755
vn 0.0765 0.9659 0.2473
vn -0.0765 0.9659 -0.2473
vn 0.9553 -0.0000 -0.2955
vn -0.2090 0.7071 -0.6755
vn -0.2855 0.2588 -0.9228
vn -0.9553 -0.0000 0.2955
vn 0.2855 -0.2588 -0.9228
vn 0.2090 -0.7071 -0.6755
vn 0.0765 -0.9659 -0.2473
vn -0.0765 -0.9659 0.2473
vn -0.2090 -0.7071 0.6755
vn -0.2855 -0.2588 0.9228
vn -0.2855 0.2588 0.9228
vn -0.2090 0.7071 0.6755
vn -0.0765 0.9659 0.2473
vn 0.0765 0.9659 -0.2473
vn 0.9553 -0.0000 0.2955
vn 0.2090 0.7071 -0.6755
vn 0.2855 0.2588 -0.9228
vn -0.9553 -0.0000 -0.2955
vn 0.3090 -0.0000 -0.9511
vn 0.8090 -0.0000 -0.5878
vn 0.8090 -0.0000 0.5878
vn 0.3090 -0.0000 0.9511
vn -0.3090 -0.0000 0.9511
vn -0.8090 -0.0000 0.5878
vn -0.8090 -0.0000 -0.5878
vn -0.3090 -0.0000 -0.9511
vn 0.4202 0.2493 -0.8725
vn 0.9441 0.2493 -0.2155
vn 0.7571 0.2493 0.6038
vn -0.0000 0.2493 0.9684
vn -0.7571 0.2493 0.6038
vn -0.9441 0.2493 -0.2155
vn -0.4202 0.2493 -0.8725
vn 0.4155 0.2876 -0.8629
vn 0.9337 0.2876 -0.2131
vn 0.7488 0.2876 0.5971
vn -0.0000 0.2876 0.9577
vn -0.7488 0.2876 0.5971
vn -0.9337 0.2876 -0.2131
vn -0.4155 0.2876 -0.8629
vn 0.4233 0.2197 -0.8789
vn 0.9511 0.2197 -0.2171
vn 0.7627 0.2197 0.6083
vn -0.0000 0.2197 0.9756
vn -0.7627 0.2197 0.6083
vn -0.9511 0.2197 -0.2171
vn -0.4233 0.2197 -0.8789
vn 0.5773 -0.5774 -0.5773
vn 0.5773 0.5774 -0.5773
vn 0.2588 0.9659 -0.0000
vn 0.9659 0.2588 -0.0000
vn 0.9659 -0.2588 -0.0000
vn 0.2588 -0.9659 -0.0000
vn -0.2588 -0.9659 -0.0000
vn -0.9659 -0.2588 -0.0000
vn -0.9659 0.2588 -0.0000
vn -0.2588 0.9659 -0.0000
vn 0.3827 -0.0000 -0.9239
vn 0.9239 -0.0000 -0.3827
vn 0.9239 -0.0000 0.3827
vn 0.3827 -0.0000 0.9239
vn -0.3827 -0.0000 0.9239
vn -0.9239 -0.0000 0.3827
vn -0.9239 -0.0000 -0.3827
vn -0.3827 -0.0000 -0.9239
vt 0.093750 0.906250
vt 0.156250 0.906250
vt 0.968750 0.906250
vt 0.218750 0.906250
vt 0.281250 0.906250
vt 0.031250 0.968750
vt 0.343750 0.906250
vt 0.406250 0.906250
vt 0.218750 0.968750
vt 0.843750 0.906250
vt 0.906250 0.968750
s 0
f 1/1/1 2/1/1 3/1/1
f 4/1/2 5/1/2 6/1/2
f 7/1/3 8/1/3 9/1/3
f 10/1/4 11/1/4 12/1/4
f 13/1/5 14/1/5 15/1/5
f 16/1/6 17/1/6 18/1/6
f 19/1/7 20/1/7 21/1/7
f 22/1/8 23/1/8 24/1/8
f 1/1/9 8/1/9 7/1/9
f 4/1/10 3/1/10 2/1/10
f 10/1/11 6/1/11 5/1/11
f 9/1/12 12/1/12 11/1/12
f 7/1/13 20/1/13 19/1/13
f 22/1/14 11/1/14 10/1/14
f 21/1/15 24/1/15 23/1/15
f 19/1/16 14/1/16 13/1/16
f 16/1/17 23/1/17 22/1/17
f 15/1/18 18/1/18 17/1/18
f 13/1/19 2/1/19 1/1/19
f 5/1/20 17/1/20 16/1/20
f 19/1/21 1/1/21 7/1/21
f 6/1/22 8/1/22 3/1/22
f 17/1/23 2/1/23 15/1/23
f 10/1/24 16/1/24 22/1/24
f 11/1/25 20/1/25 9/1/25
f 23/1/26 14/1/26 21/1/26
f 26/2/22 27/2/22 25/2/22
f 28/2/25 31/2/25 27/2/25
f 32/2/26 29/2/26 31/2/26
f 30/2/23 25/2/23 29/2/23
f 31/2/21 25/2/21 27/2/21
f 28/2/24 30/2/24 32/2/24
f 34/2/22 35/2/22 33/2/22
f 36/2/25 39/2/25 35/2/25
f 40/2/26 37/2/26 39/2/26
f 38/2/23 33/2/23 37/2/23
f 39/2/21 33/2/21 35/2/21
f 36/2/24 38/2/24 40/2/24
f 42/2/22 43/2/22 41/2/22
f 44/2/25 47/2/25 43/2/25
f 48/2/26 45/2/26 47/2/26
f 46/2/23 41/2/23 45/2/23
f 47/2/21 41/2/21 43/2/21
f 44/2/24 46/2/24 48/2/24
f 50/2/22 51/2/22 49/2/22
f 52/2/25 55/2/25 51/2/25
f 56/2/26 53/2/26 55/2/26
f 54/2/23 49/2/23 53/2/23
f 55/2/21 49/2/21 51/2/21
f 52/2/24 54/2/24 56/2/24
f 58/2/22 59/2/22 57/2/22
f 60/2/25 63/2/25 59/2/25
f 64/2/26 61/2/26 63/2/26
f 62/2/23 57/2/23 61/2/23
f 63/2/21 57/2/21 59/2/21
f 60/2/24 62/2/24 64/2/24
f 65/3/27 66/3/27 67/3/27
f 68/3/28 69/3/28 70/3/28
f 71/3/29 72/3/29 73/3/29
f 74/3/30 75/3/30 76/3/30
f 77/3/31 78/3/31 79/3/31
f 80/3/32 81/3/32 82/3/32
f 83/3/33 84/3/33 85/3/33
f 86/3/34 87/3/34 88/3/34
f 65/3/9 72/3/9 71/3/9
f 68/3/10 67/3/10 66/3/10
f 74/3/11 70/3/11 69/3/11
f 73/3/12 76/3/12 75/3/12
f 71/3/13 84/3/13 83/3/13
f 86/3/14 75/3/14 74/3/14
f 85/3/15 88/3/15 87/3/15
f 83/3/16 78/3/16 77/3/16
f 80/3/17 87/3/17 86/3/17
f 79/3/18 82/3/18 81/3/18
f 77/3/19 66/3/19 65/3/19
f 69/3/20 81/3/20 80/3/20
f 83/3/21 65/3/21 71/3/21
f 70/3/22 72/3/22 67/3/22
f 81/3/23 66/3/23 79/3/23
f 74/3/24 80/3/24 86/3/24
f 75/3/25 84/3/25 73/3/25
f 87/3/26 78/3/26 85/3/26
f 89/4/35 90/4/35 91/4/35
f 92/4/36 93/4/36 94/4/36
f 95/4/37 96/4/37 97/4/37
f 98/4/38 99/4/38 100/4/38
f 101/4/39 102/4/39 103/4/39
f 104/4/40 105/4/40 106/4/40
f 107/4/41 108/4/41 109/4/41
f 110/4/42 111/4/42 112/4/42
f 89/4/9 96/4/9 95/4/9
f 92/4/10 91/4/10 90/4/10
f 98/4/11 94/4/11 93/4/11
f 97/4/12 100/4/12 99/4/12
f 95/4/13 108/4/13 107/4/13
f 110/4/14 99/4/14 98/4/14
f 109/4/15 112/4/15 111/4/15
f 107/4/16 102/4/16 101/4/16
f 104/4/17 111/4/17 110/4/17
f 103/4/18 106/4/18 105/4/18
f 101/4/19 90/4/19 89/4/19
f 93/4/20 105/4/20 104/4/20
f 107/4/21 89/4/21 95/4/21
f 94/4/22 96/4/22 91/4/22
f 105/4/23 90/4/23 103/4/23
f 98/4/24 104/4/24 110/4/24
f 99/4/25 108/4/25 97/4/25
f 111/4/26 102/4/26 109/4/26
f 113/1/43 114/1/43 115/1/43
f 116/1/28 117/1/28 118/1/28
f 119/1/44 120/1/44 121/1/44
f 122/1/45 123/1/45 124/1/45
f 125/1/46 126/1/46 127/1/46
f 128/1/32 129/1/32 130/1/32
f 131/1/47 132/1/47 133/1/47
f 134/1/48 135/1/48 136/1/48
f 113/1/9 120/1/9 119/1/9
f 116/1/10 115/1/10 114/1/10
f 122/1/11 118/1/11 117/1/11
f 121/1/12 124/1/12 123/1/12
f 119/1/13 132/1/13 131/1/13
f 134/1/14 123/1/14 122/1/14
f 133/1/15 136/1/15 135/1/15
f 131/1/16 126/1/16 125/1/16
f 128/1/17 135/1/17 134/1/17
f 127/1/18 130/1/18 129/1/18
f 125/1/19 114/1/19 113/1/19
f 117/1/20 129/1/20 128/1/20
f 131/1/21 113/1/21 119/1/21
f 118/1/22 120/1/22 115/1/22
f 129/1/23 114/1/23 127/1/23
f 122/1/24 128/1/24 134/1/24
f 123/1/25 132/1/25 121/1/25
f 135/1/26 126/1/26 133/1/26
f 138/2/22 139/2/22 137/2/22
f 140/2/25 143/2/25 139/2/25
f 144/2/26 141/2/26 143/2/26
f 142/2/23 137/2/23 141/2/23
f 143/2/21 137/2/21 139/2/21
f 140/2/24 142/2/24 144/2/24
f 146/2/22 147/2/22 145/2/22
f 148/2/25 151/2/25 147/2/25
f 152/2/26 149/2/26 151/2/26
f 150/2/23 145/2/23 149/2/23
f 151/2/21 145/2/21 147/2/21
f 148/2/24 150/2/24 152/2/24
f 154/2/22 155/2/22 153/2/22
f 156/2/25 159/2/25 155/2/25
f 160/2/26 157/2/26 159/2/26
f 158/2/23 153/2/23 157/2/23
f 159/2/21 153/2/21 155/2/21
f 156/2/24 158/2/24 160/2/24
f 162/2/22 163/2/22 161/2/22
f 164/2/25 167/2/25 163/2/25
f 168/2/26 165/2/26 167/2/26
f 166/2/23 161/2/23 165/2/23
f 167/2/21 161/2/21 163/2/21
f 164/2/24 166/2/24 168/2/24
f 170/2/22 171/2/22 169/2/22
f 172/2/25 175/2/25 171/2/25
f 176/2/26 173/2/26 175/2/26
f 174/2/23 169/2/23 173/2/23
f 175/2/21 169/2/21 171/2/21
f 172/2/24 174/2/24 176/2/24
f 178/2/22 179/2/22 177/2/22
f 180/2/25 183/2/25 179/2/25
f 184/2/26 181/2/26 183/2/26
f 182/2/23 177/2/23 181/2/23
f 183/2/21 177/2/21 179/2/21
f 180/2/24 182/2/24 184/2/24
f 185/5/49 186/5/49 187/5/49
f 188/5/50 189/5/50 190/5/50
f 191/5/51 192/5/51 193/5/51
f 194/5/45 195/5/45 196/5/45
f 197/5/52 198/5/52 199/5/52
f 200/5/53 201/5/53 202/5/53
f 203/5/54 204/5/54 205/5/54
f 206/5/48 207/5/48 208/5/48
f 185/5/9 192/5/9 191/5/9
f 188/5/10 187/5/10 186/5/10
f 194/5/11 190/5/11 189/5/11
f 193/5/12 196/5/12 195/5/12
f 191/5/13 204/5/13 203/5/13
f 206/5/14 195/5/14 194/5/14
f 205/5/15 208/5/15 207/5/15
f 203/5/16 198/5/16 197/5/16
f 200/5/17 207/5/17 206/5/17
f 199/5/18 202/5/18 201/5/18
f 197/5/19 186/5/19 185/5/19
f 189/5/20 201/5/20 200/5/20
f 203/5/21 185/5/21 191/5/21
f 190/5/22 192/5/22 187/5/22
f 201/5/23 186/5/23 199/5/23
f 194/5/24 200/5/24 206/5/24
f 195/5/25 204/5/25 193/5/25
f 207/5/26 198/5/26 205/5/26
f 210/6/55 211/6/55 209/6/55
f 212/6/56 213/6/56 211/6/56
f 214/6/57 215/6/57 213/6/57
f 216/6/58 217/6/58 215/6/58
f 218/6/59 219/6/59 217/6/59
f 220/6/60 221/6/60 219/6/60
f 221/6/61 224/6/61 223/6/61
f 224/6/62 225/6/62 223/6/62
f 226/6/63 227/6/63 225/6/63
f 227/6/64 230/6/64 229/6/64
f 230/6/65 222/6/65 214/6/65
f 230/6/66 231/6/66 229/6/66
f 232/6/67 209/6/67 231/6/67
f 215/6/68 223/6/68 231/6/68
f 234/6/69 235/6/69 233/6/69
f 236/6/70 237/6/70 235/6/70
f 237/6/71 240/6/71 239/6/71
f 240/6/72 241/6/72 239/6/72
f 242/6/73 243/6/73 241/6/73
f 244/6/74 245/6/74 243/6/74
f 246/6/75 247/6/75 245/6/75
f 248/6/76 249/6/76 247/6/76
f 250/6/77 251/6/77 249/6/77
f 252/6/78 253/6/78 251/6/78
f 254/6/79 246/6/79 238/6/79
f 254/6/80 255/6/80 253/6/80
f 256/6/81 233/6/81 255/6/81
f 239/6/82 247/6/82 255/6/82
f 258/7/83 259/7/83 257/7/83
f 260/7/84 261/7/84 259/7/84
f 262/7/26 263/7/26 261/7/26
f 264/7/85 265/7/85 263/7/85
f 266/7/86 267/7/86 265/7/86
f 268/7/87 269/7/87 267/7/87
f 270/7/88 271/7/88 269/7/88
f 272/7/22 273/7/22 271/7/22
f 274/7/24 266/7/24 262/7/24
f 274/7/89 275/7/89 273/7/89
f 276/7/90 257/7/90 275/7/90
f 263/7/21 271/7/21 275/7/21
f 277/8/91 284/8/91 278/8/91
f 278/8/92 284/8/92 279/8/92
f 279/8/93 284/8/93 280/8/93
f 280/8/94 284/8/94 281/8/94
f 281/8/95 284/8/95 282/8/95
f 278/8/21 280/8/21 282/8/21
f 282/8/96 284/8/96 283/8/96
f 283/8/97 284/8/97 277/8/97
f 285/7/98 292/7/98 286/7/98
f 286/7/99 292/7/99 287/7/99
f 287/7/100 292/7/100 288/7/100
f 288/7/101 292/7/101 289/7/101
f 289/7/102 292/7/102 290/7/102
f 286/7/21 288/7/21 290/7/21
f 290/7/103 292/7/103 291/7/103
f 291/7/104 292/7/104 285/7/104
f 293/7/105 300/7/105 294/7/105
f 294/7/106 300/7/106 295/7/106
f 295/7/107 300/7/107 296/7/107
f 296/7/108 300/7/108 297/7/108
f 297/7/109 300/7/109 298/7/109
f 294/7/21 296/7/21 298/7/21
f 298/7/110 300/7/110 299/7/110
f 299/7/111 300/7/111 293/7/111
f 301/9/35 302/9/35 303/9/35
f 304/9/36 305/9/36 306/9/36
f 307/9/3 308/9/3 309/9/3
f 310/9/4 311/9/4 312/9/4
f 313/9/52 314/9/52 315/9/52
f 316/9/53 317/9/53 318/9/53
f 319/9/112 320/9/112 321/9/112
f 322/9/113 323/9/113 324/9/113
f 301/9/9 308/9/9 307/9/9
f 304/9/10 303/9/10 302/9/10
f 310/9/11 306/9/11 305/9/11
f 309/9/12 312/9/12 311/9/12
f 307/9/13 320/9/13 319/9/13
f 322/9/14 311/9/14 310/9/14
f 321/9/15 324/9/15 323/9/15
f 319/9/16 314/9/16 313/9/16
f 316/9/17 323/9/17 322/9/17
f 315/9/18 318/9/18 317/9/18
f 313/9/19 302/9/19 301/9/19
f 305/9/20 317/9/20 316/9/20
f 319/9/21 301/9/21 307/9/21
f 306/9/22 308/9/22 303/9/22
f 317/9/23 302/9/23 315/9/23
f 310/9/24 316/9/24 322/9/24
f 311/9/25 320/9/25 309/9/25
f 323/9/26 314/9/26 321/9/26
f 326/10/114 327/10/114 325/10/114
f 328/10/17 329/10/17 327/10/17
f 330/10/115 331/10/115 329/10/115
f 332/10/116 333/10/116 331/10/116
f 334/10/16 335/10/16 333/10/16
f 336/10/117 337/10/117 335/10/117
f 338/10/118 339/10/118 337/10/118
f 340/10/9 341/10/9 339/10/9
f 342/10/119 343/10/119 341/10/119
f 344/10/120 345/10/120 343/10/120
f 346/10/23 338/10/23 330/10/23
f 346/10/11 347/10/11 345/10/11
f 348/10/121 325/10/121 347/10/121
f 331/10/25 339/10/25 347/10/25
f 350/11/122 351/11/122 349/11/122
f 352/11/123 353/11/123 351/11/123
f 354/11/124 355/11/124 353/11/124
f 356/11/125 357/11/125 355/11/125
f 358/11/126 359/11/126 357/11/126
f 360/11/127 361/11/127 359/11/127
f 362/11/24 358/11/24 354/11/24
f 362/11/128 363/11/128 361/11/128
f 364/11/129 349/11/129 363/11/129
f 355/11/21 359/11/21 363/11/21
f 366/11/122 367/11/122 365/11/122
f 368/11/123 369/11/123 367/11/123
f 370/11/124 371/11/124 369/11/124
f 372/11/125 373/11/125 371/11/125
f 374/11/126 375/11/126 373/11/126
f 376/11/127 377/11/127 375/11/127
f 378/11/24 374/11/24 370/11/24
f 378/11/128 379/11/128 377/11/128
f 380/11/129 365/11/129 379/11/129
f 371/11/21 375/11/21 379/11/21
f 1/1/9 3/1/9 8/1/9
f 4/1/10 6/1/10 3/1/10
f 10/1/11 12/1/11 6/1/11
f 9/1/12 8/1/12 12/1/12
f 7/1/13 9/1/13 20/1/13
f 22/1/14 24/1/14 11/1/14
f 21/1/15 20/1/15 24/1/15
f 19/1/16 21/1/16 14/1/16
f 16/1/17 18/1/17 23/1/17
f 15/1/18 14/1/18 18/1/18
f 13/1/19 15/1/19 2/1/19
f 5/1/20 4/1/20 17/1/20
f 19/1/21 13/1/21 1/1/21
f 6/1/22 12/1/22 8/1/22
f 17/1/23 4/1/23 2/1/23
f 10/1/24 5/1/24 16/1/24
f 11/1/25 24/1/25 20/1/25
f 23/1/26 18/1/26 14/1/26
f 26/2/22 28/2/22 27/2/22
f 28/2/25 32/2/25 31/2/25
f 32/2/26 30/2/26 29/2/26
f 30/2/23 26/2/23 25/2/23
f 31/2/21 29/2/21 25/2/21
f 28/2/24 26/2/24 30/2/24
f 34/2/22 36/2/22 35/2/22
f 36/2/25 40/2/25 39/2/25
f 40/2/26 38/2/26 37/2/26
f 38/2/23 34/2/23 33/2/23
f 39/2/21 37/2/21 33/2/21
f 36/2/24 34/2/24 38/2/24
f 42/2/22 44/2/22 43/2/22
f 44/2/25 48/2/25 47/2/25
f 48/2/26 46/2/26 45/2/26
f 46/2/23 42/2/23 41/2/23
f 47/2/21 45/2/21 41/2/21
f 44/2/24 42/2/24 46/2/24
f 50/2/22 52/2/22 51/2/22
f 52/2/25 56/2/25 55/2/25
f 56/2/26 54/2/26 53/2/26
f 54/2/23 50/2/23 49/2/23
f 55/2/21 53/2/21 49/2/21
f 52/2/24 50/2/24 54/2/24
f 58/2/22 60/2/22 59/2/22
f 60/2/25 64/2/25 63/2/25
f 64/2/26 62/2/26 61/2/26
f 62/2/23 58/2/23 57/2/23
f 63/2/21 61/2/21 57/2/21
f 60/2/24 58/2/24 62/2/24
f 65/3/9 67/3/9 72/3/9
f 68/3/10 70/3/10 67/3/10
f 74/3/11 76/3/11 70/3/11
f 73/3/12 72/3/12 76/3/12
f 71/3/13 73/3/13 84/3/13
f 86/3/14 88/3/14 75/3/14
f 85/3/15 84/3/15 88/3/15
f 83/3/16 85/3/16 78/3/16
f 80/3/17 82/3/17 87/3/17
f 79/3/18 78/3/18 82/3/18
f 77/3/19 79/3/19 66/3/19
f 69/3/20 68/3/20 81/3/20
f 83/3/21 77/3/21 65/3/21
f 70/3/22 76/3/22 72/3/22
f 81/3/23 68/3/23 66/3/23
f 74/3/24 69/3/24 80/3/24
f 75/3/25 88/3/25 84/3/25
f 87/3/26 82/3/26 78/3/26
f 89/4/9 91/4/9 96/4/9
f 92/4/10 94/4/10 91/4/10
f 98/4/11 100/4/11 94/4/11
f 97/4/12 96/4/12 100/4/12
f 95/4/13 97/4/13 108/4/13
f 110/4/14 112/4/14 99/4/14
f 109/4/15 108/4/15 112/4/15
f 107/4/16 109/4/16 102/4/16
f 104/4/17 106/4/17 111/4/17
f 103/4/18 102/4/18 106/4/18
f 101/4/19 103/4/19 90/4/19
f 93/4/20 92/4/20 105/4/20
f 107/4/21 101/4/21 89/4/21
f 94/4/22 100/4/22 96/4/22
f 105/4/23 92/4/23 90/4/23
f 98/4/24 93/4/24 104/4/24
f 99/4/25 112/4/25 108/4/25
f 111/4/26 106/4/26 102/4/26
f 113/1/9 115/1/9 120/1/9
f 116/1/10 118/1/10 115/1/10
f 122/1/11 124/1/11 118/1/11
f 121/1/12 120/1/12 124/1/12
f 119/1/13 121/1/13 132/1/13
f 134/1/14 136/1/14 123/1/14
f 133/1/15 132/1/15 136/1/15
f 131/1/16 133/1/16 126/1/16
f 128/1/17 130/1/17 135/1/17
f 127/1/18 126/1/18 130/1/18
f 125/1/19 127/1/19 114/1/19
f 117/1/20 116/1/20 129/1/20
f 131/1/21 125/1/21 113/1/21
f 118/1/22 124/1/22 120/1/22
f 129/1/23 116/1/23 114/1/23
f 122/1/24 117/1/24 128/1/24
f 123/1/25 136/1/25 132/1/25
f 135/1/26 130/1/26 126/1/26
f 138/2/22 140/2/22 139/2/22
f 140/2/25 144/2/25 143/2/25
f 144/2/26 142/2/26 141/2/26
f 142/2/23 138/2/23 137/2/23
f 143/2/21 141/2/21 137/2/21
f 140/2/24 138/2/24 142/2/24
f 146/2/22 148/2/22 147/2/22
f 148/2/25 152/2/25 151/2/25
f 152/2/26 150/2/26 149/2/26
f 150/2/23 146/2/23 145/2/23
f 151/2/21 149/2/21 145/2/21
f 148/2/24 146/2/24 150/2/24
f 154/2/22 156/2/22 155/2/22
f 156/2/25 160/2/25 159/2/25
f 160/2/26 158/2/26 157/2/26
f 158/2/23 154/2/23 153/2/23
f 159/2/21 157/2/21 153/2/21
f 156/2/24 154/2/24 158/2/24
f 162/2/22 164/2/22 163/2/22
f 164/2/25 168/2/25 167/2/25
f 168/2/26 166/2/26 165/2/26
f 166/2/23 162/2/23 161/2/23
f 167/2/21 165/2/21 161/2/21
f 164/2/24 162/2/24 166/2/24
f 170/2/22 172/2/22 171/2/22
f 172/2/25 176/2/25 175/2/25
f 176/2/26 174/2/26 173/2/26
f 174/2/23 170/2/23 169/2/23
f 175/2/21 173/2/21 169/2/21
f 172/2/24 170/2/24 174/2/24
f 178/2/22 180/2/22 179/2/22
f 180/2/25 184/2/25 183/2/25
f 184/2/26 182/2/26 181/2/26
f 182/2/23 178/2/23 177/2/23
f 183/2/21 181/2/21 177/2/21
f 180/2/24 178/2/24 182/2/24
f 185/5/9 187/5/9 192/5/9
f 188/5/10 190/5/10 187/5/10
f 194/5/11 196/5/11 190/5/11
f 193/5/12 192/5/12 196/5/12
f 191/5/13 193/5/13 204/5/13
f 206/5/14 208/5/14 195/5/14
f 205/5/15 204/5/15 208/5/15
f 203/5/16 205/5/16 198/5/16
f 200/5/17 202/5/17 207/5/17
f 199/5/18 198/5/18 202/5/18
f 197/5/19 199/5/19 186/5/19
f 189/5/20 188/5/20 201/5/20
f 203/5/21 197/5/21 185/5/21
f 190/5/22 196/5/22 192/5/22
f 201/5/23 188/5/23 186/5/23
f 194/5/24 189/5/24 200/5/24
f 195/5/25 208/5/25 204/5/25
f 207/5/26 202/5/26 198/5/26
f 210/6/55 212/6/55 211/6/55
f 212/6/56 214/6/56 213/6/56
f 214/6/57 216/6/57 215/6/57
f 216/6/58 218/6/58 217/6/58
f 218/6/59 220/6/59 219/6/59
f 220/6/60 222/6/60 221/6/60
f 221/6/61 222/6/61 224/6/61
f 224/6/62 226/6/62 225/6/62
f 226/6/63 228/6/63 227/6/63
f 227/6/64 228/6/64 230/6/64
f 214/6/65 212/6/65 210/6/65
f 210/6/65 232/6/65 230/6/65
f 230/6/65 228/6/65 226/6/65
f 226/6/65 224/6/65 222/6/65
f 222/6/65 220/6/65 218/6/65
f 218/6/65 216/6/65 214/6/65
f 214/6/65 210/6/65 230/6/65
f 230/6/65 226/6/65 222/6/65
f 222/6/65 218/6/65 214/6/65
f 230/6/66 232/6/66 231/6/66
f 232/6/67 210/6/67 209/6/67
f 231/6/68 209/6/68 211/6/68
f 211/6/68 213/6/68 215/6/68
f 215/6/68 217/6/68 219/6/68
f 219/6/68 221/6/68 223/6/68
f 223/6/68 225/6/68 227/6/68
f 227/6/68 229/6/68 231/6/68
f 231/6/68 211/6/68 215/6/68
f 215/6/68 219/6/68 223/6/68
f 223/6/68 227/6/68 231/6/68
f 234/6/69 236/6/69 235/6/69
f 236/6/70 238/6/70 237/6/70
f 237/6/71 238/6/71 240/6/71
f 240/6/72 242/6/72 241/6/72
f 242/6/73 244/6/73 243/6/73
f 244/6/74 246/6/74 245/6/74
f 246/6/75 248/6/75 247/6/75
f 248/6/76 250/6/76 249/6/76
f 250/6/77 252/6/77 251/6/77
f 252/6/78 254/6/78 253/6/78
f 238/6/79 236/6/79 234/6/79
f 234/6/79 256/6/79 254/6/79
f 254/6/79 252/6/79 250/6/79
f 250/6/79 248/6/79 246/6/79
f 246/6/79 244/6/79 242/6/79
f 242/6/79 240/6/79 238/6/79
f 238/6/79 234/6/79 254/6/79
f 254/6/79 250/6/79 246/6/79
f 246/6/79 242/6/79 238/6/79
f 254/6/80 256/6/80 255/6/80
f 256/6/81 234/6/81 233/6/81
f 255/6/82 233/6/82 235/6/82
f 235/6/82 237/6/82 239/6/82
f 239/6/82 241/6/82 243/6/82
f 243/6/82 245/6/82 247/6/82
f 247/6/82 249/6/82 251/6/82
f 251/6/82 253/6/82 255/6/82
f 255/6/82 235/6/82 239/6/82
f 239/6/82 243/6/82 247/6/82
f 247/6/82 251/6/82 255/6/82
f 258/7/83 260/7/83 259/7/83
f 260/7/84 262/7/84 261/7/84
f 262/7/26 264/7/26 263/7/26
f 264/7/85 266/7/85 265/7/85
f 266/7/86 268/7/86 267/7/86
f 268/7/87 270/7/87 269/7/87
f 270/7/88 272/7/88 271/7/88
f 272/7/22 274/7/22 273/7/22
f 262/7/24 260/7/24 258/7/24
f 258/7/24 276/7/24 274/7/24
f 274/7/24 272/7/24 270/7/24
f 270/7/24 268/7/24 266/7/24
f 266/7/24 264/7/24 262/7/24
f 262/7/24 258/7/24 274/7/24
f 274/7/24 270/7/24 266/7/24
f 274/7/89 276/7/89 275/7/89
f 276/7/90 258/7/90 257/7/90
f 275/7/21 257/7/21 259/7/21
f 259/7/21 261/7/21 263/7/21
f 263/7/21 265/7/21 267/7/21
f 267/7/21 269/7/21 271/7/21
f 271/7/21 273/7/21 275/7/21
f 275/7/21 259/7/21 263/7/21
f 263/7/21 267/7/21 271/7/21
f 283/8/21 277/8/21 278/8/21
f 278/8/21 279/8/21 280/8/21
f 280/8/21 281/8/21 282/8/21
f 282/8/21 283/8/21 278/8/21
f 291/7/21 285/7/21 286/7/21
f 286/7/21 287/7/21 288/7/21
f 288/7/21 289/7/21 290/7/21
f 290/7/21 291/7/21 286/7/21
f 299/7/21 293/7/21 294/7/21
f 294/7/21 295/7/21 296/7/21
f 296/7/21 297/7/21 298/7/21
f 298/7/21 299/7/21 294/7/21
f 301/9/9 303/9/9 308/9/9
f 304/9/10 306/9/10 303/9/10
f 310/9/11 312/9/11 306/9/11
f 309/9/12 308/9/12 312/9/12
f 307/9/13 309/9/13 320/9/13
f 322/9/14 324/9/14 311/9/14
f 321/9/15 320/9/15 324/9/15
f 319/9/16 321/9/16 314/9/16
f 316/9/17 318/9/17 323/9/17
f 315/9/18 314/9/18 318/9/18
f 313/9/19 315/9/19 302/9/19
f 305/9/20 304/9/20 317/9/20
f 319/9/21 313/9/21 301/9/21
f 306/9/22 312/9/22 308/9/22
f 317/9/23 304/9/23 302/9/23
f 310/9/24 305/9/24 316/9/24
f 311/9/25 324/9/25 320/9/25
f 323/9/26 318/9/26 314/9/26
f 326/10/114 328/10/114 327/10/114
f 328/10/17 330/10/17 329/10/17
f 330/10/115 332/10/115 331/10/115
f 332/10/116 334/10/116 333/10/116
f 334/10/16 336/10/16 335/10/16
f 336/10/117 338/10/117 337/10/117
f 338/10/118 340/10/118 339/10/118
f 340/10/9 342/10/9 341/10/9
f 342/10/119 344/10/119 343/10/119
f 344/10/120 346/10/120 345/10/120
f 330/10/23 328/10/23 326/10/23
f 326/10/23 348/10/23 346/10/23
f 346/10/23 344/10/23 342/10/23
f 342/10/23 340/10/23 338/10/23
f 338/10/23 336/10/23 334/10/23
f 334/10/23 332/10/23 330/10/23
f 330/10/23 326/10/23 346/10/23
f 346/10/23 342/10/23 338/10/23
f 338/10/23 334/10/23 330/10/23
f 346/10/11 348/10/11 347/10/11
f 348/10/121 326/10/121 325/10/121
f 347/10/25 325/10/25 327/10/25
f 327/10/25 329/10/25 331/10/25
f 331/10/25 333/10/25 335/10/25
f 335/10/25 337/10/25 339/10/25
f 339/10/25 341/10/25 343/10/25
f 343/10/25 345/10/25 347/10/25
f 347/10/25 327/10/25 331/10/25
f 331/10/25 335/10/25 339/10/25
f 339/10/25 343/10/25 347/10/25
f 350/11/122 352/11/122 351/11/122
f 352/11/123 354/11/123 353/11/123
f 354/11/124 356/11/124 355/11/124
f 356/11/125 358/11/125 357/11/125
f 358/11/126 360/11/126 359/11/126
f 360/11/127 362/11/127 361/11/127
f 354/11/24 352/11/24 350/11/24
f 350/11/24 364/11/24 362/11/24
f 362/11/24 360/11/24 358/11/24
f 358/11/24 356/11/24 354/11/24
f 354/11/24 350/11/24 362/11/24
f 362/11/128 364/11/128 363/11/128
f 364/11/129 350/11/129 349/11/129
f 363/11/21 349/11/21 351/11/21
f 351/11/21 353/11/21 355/11/21
f 355/11/21 357/11/21 359/11/21
f 359/11/21 361/11/21 363/11/21
f 363/11/21 351/11/21 355/11/21
f 366/11/122 368/11/122 367/11/122
f 368/11/123 370/11/123 369/11/123
f 370/11/124 372/11/124 371/11/124
f 372/11/125 374/11/125 373/11/125
f 374/11/126 376/11/126 375/11/126
f 376/11/127 378/11/127 377/11/127
f 370/11/24 368/11/24 366/11/24
f 366/11/24 380/11/24 378/11/24
f 378/11/24 376/11/24 374/11/24
f 374/11/24 372/11/24 370/11/24
f 370/11/24 366/11/24 378/11/24
f 378/11/128 380/11/128 379/11/128
f 380/11/129 366/11/129 365/11/129
f 379/11/21 365/11/21 367/11/21
f 367/11/21 369/11/21 371/11/21
f 371/11/21 373/11/21 375/11/21
f 375/11/21 377/11/21 379/11/21
f 379/11/21 367/11/21 371/11/21
