# Blender 5.1.1
# www.blender.org
o tungku_tempa
v -0.855000 -0.425000 0.580000
v -0.855000 -0.405000 0.600000
v -0.875000 -0.405000 0.580000
v -0.855000 0.405000 0.600000
v -0.855000 0.425000 0.580000
v -0.875000 0.405000 0.580000
v -0.855000 -0.425000 -0.580000
v -0.875000 -0.405000 -0.580000
v -0.855000 -0.405000 -0.600000
v -0.855000 0.425000 -0.580000
v -0.855000 0.405000 -0.600000
v -0.875000 0.405000 -0.580000
v 0.855000 -0.425000 0.580000
v 0.875000 -0.405000 0.580000
v 0.855000 -0.405000 0.600000
v 0.855000 0.425000 0.580000
v 0.855000 0.405000 0.600000
v 0.875000 0.405000 0.580000
v 0.855000 -0.425000 -0.580000
v 0.855000 -0.405000 -0.600000
v 0.875000 -0.405000 -0.580000
v 0.855000 0.425000 -0.580000
v 0.875000 0.405000 -0.580000
v 0.855000 0.405000 -0.600000
v -0.880000 -0.225000 0.605000
v -0.880000 -0.195000 0.605000
v -0.880000 -0.225000 -0.605000
v -0.880000 -0.195000 -0.605000
v 0.880000 -0.225000 0.605000
v 0.880000 -0.195000 0.605000
v 0.880000 -0.225000 -0.605000
v 0.880000 -0.195000 -0.605000
v -0.880000 0.025000 0.605000
v -0.880000 0.055000 0.605000
v -0.880000 0.025000 -0.605000
v -0.880000 0.055000 -0.605000
v 0.880000 0.025000 0.605000
v 0.880000 0.055000 0.605000
v 0.880000 0.025000 -0.605000
v 0.880000 0.055000 -0.605000
v -0.880000 0.275000 0.605000
v -0.880000 0.305000 0.605000
v -0.880000 0.275000 -0.605000
v -0.880000 0.305000 -0.605000
v 0.880000 0.275000 0.605000
v 0.880000 0.305000 0.605000
v 0.880000 0.275000 -0.605000
v 0.880000 0.305000 -0.605000
v -0.663000 0.425000 0.388000
v -0.663000 0.437000 0.400000
v -0.675000 0.437000 0.388000
v -0.663000 0.473000 0.400000
v -0.663000 0.485000 0.388000
v -0.675000 0.473000 0.388000
v -0.663000 0.425000 -0.388000
v -0.675000 0.437000 -0.388000
v -0.663000 0.437000 -0.400000
v -0.663000 0.485000 -0.388000
v -0.663000 0.473000 -0.400000
v -0.675000 0.473000 -0.388000
v 0.663000 0.425000 0.388000
v 0.675000 0.437000 0.388000
v 0.663000 0.437000 0.400000
v 0.663000 0.485000 0.388000
v 0.663000 0.473000 0.400000
v 0.675000 0.473000 0.388000
v 0.663000 0.425000 -0.388000
v 0.663000 0.437000 -0.400000
v 0.675000 0.437000 -0.388000
v 0.663000 0.485000 -0.388000
v 0.675000 0.473000 -0.388000
v 0.663000 0.473000 -0.400000
v -0.560000 0.585000 0.100000
v -0.560000 0.558640 0.036360
v -0.560000 0.495000 0.010000
v -0.560000 0.431360 0.036360
v -0.560000 0.405000 0.100000
v -0.504887 0.558640 0.068180
v -0.482058 0.495000 0.055000
v -0.504887 0.431360 0.068180
v -0.504887 0.558640 0.131820
v -0.482058 0.495000 0.145000
v -0.504887 0.431360 0.131820
v -0.560000 0.558640 0.163640
v -0.560000 0.495000 0.190000
v -0.560000 0.431360 0.163640
v -0.615114 0.558640 0.131820
v -0.637942 0.495000 0.145000
v -0.615114 0.431360 0.131820
v -0.615113 0.558640 0.068180
v -0.637942 0.495000 0.055000
v -0.615113 0.431360 0.068180
v 0.080000 0.585000 0.100000
v 0.080000 0.558640 0.036360
v 0.080000 0.495000 0.010000
v 0.080000 0.431360 0.036360
v 0.080000 0.405000 0.100000
v 0.135114 0.558640 0.068180
v 0.157942 0.495000 0.055000
v 0.135114 0.431360 0.068180
v 0.135114 0.558640 0.131820
v 0.157942 0.495000 0.145000
v 0.135114 0.431360 0.131820
v 0.080000 0.558640 0.163640
v 0.080000 0.495000 0.190000
v 0.080000 0.431360 0.163640
v 0.024886 0.558640 0.131820
v 0.002058 0.495000 0.145000
v 0.024886 0.431360 0.131820
v 0.024886 0.558640 0.068180
v 0.002058 0.495000 0.055000
v 0.024886 0.431360 0.068180
v 0.440000 0.585000 0.100000
v 0.440000 0.558640 0.036360
v 0.440000 0.495000 0.010000
v 0.440000 0.431360 0.036360
v 0.440000 0.405000 0.100000
v 0.495114 0.558640 0.068180
v 0.517942 0.495000 0.055000
v 0.495114 0.431360 0.068180
v 0.495114 0.558640 0.131820
v 0.517942 0.495000 0.145000
v 0.495114 0.431360 0.131820
v 0.440000 0.558640 0.163640
v 0.440000 0.495000 0.190000
v 0.440000 0.431360 0.163640
v 0.384886 0.558640 0.131820
v 0.362058 0.495000 0.145000
v 0.384886 0.431360 0.131820
v 0.384886 0.558640 0.068180
v 0.362058 0.495000 0.055000
v 0.384886 0.431360 0.068180
v -0.420000 0.585000 -0.150000
v -0.420000 0.558640 -0.213640
v -0.420000 0.495000 -0.240000
v -0.420000 0.431360 -0.213640
v -0.420000 0.405000 -0.150000
v -0.364886 0.558640 -0.181820
v -0.342058 0.495000 -0.195000
v -0.364886 0.431360 -0.181820
v -0.364886 0.558640 -0.118180
v -0.342058 0.495000 -0.105000
v -0.364886 0.431360 -0.118180
v -0.420000 0.558640 -0.086360
v -0.420000 0.495000 -0.060000
v -0.420000 0.431360 -0.086360
v -0.475114 0.558640 -0.118180
v -0.497942 0.495000 -0.105000
v -0.475114 0.431360 -0.118180
v -0.475114 0.558640 -0.181820
v -0.497942 0.495000 -0.195000
v -0.475114 0.431360 -0.181820
v -0.060000 0.585000 -0.150000
v -0.060000 0.558640 -0.213640
v -0.060000 0.495000 -0.240000
v -0.060000 0.431360 -0.213640
v -0.060000 0.405000 -0.150000
v -0.004886 0.558640 -0.181820
v 0.017942 0.495000 -0.195000
v -0.004886 0.431360 -0.181820
v -0.004886 0.558640 -0.118180
v 0.017942 0.495000 -0.105000
v -0.004886 0.431360 -0.118180
v -0.060000 0.558640 -0.086360
v -0.060000 0.495000 -0.060000
v -0.060000 0.431360 -0.086360
v -0.115114 0.558640 -0.118180
v -0.137942 0.495000 -0.105000
v -0.115114 0.431360 -0.118180
v -0.115114 0.558640 -0.181820
v -0.137942 0.495000 -0.195000
v -0.115114 0.431360 -0.181820
v 0.580000 0.585000 -0.150000
v 0.580000 0.558640 -0.213640
v 0.580000 0.495000 -0.240000
v 0.580000 0.431360 -0.213640
v 0.580000 0.405000 -0.150000
v 0.635113 0.558640 -0.181820
v 0.657942 0.495000 -0.195000
v 0.635113 0.431360 -0.181820
v 0.635113 0.558640 -0.118180
v 0.657942 0.495000 -0.105000
v 0.635113 0.431360 -0.118180
v 0.580000 0.558640 -0.086360
v 0.580000 0.495000 -0.060000
v 0.580000 0.431360 -0.086360
v 0.524886 0.558640 -0.118180
v 0.502058 0.495000 -0.105000
v 0.524886 0.431360 -0.118180
v 0.524886 0.558640 -0.181820
v 0.502058 0.495000 -0.195000
v 0.524886 0.431360 -0.181820
v -0.560000 0.585000 -0.400000
v -0.560000 0.558640 -0.463640
v -0.560000 0.495000 -0.490000
v -0.560000 0.431360 -0.463640
v -0.560000 0.405000 -0.400000
v -0.504887 0.558640 -0.431820
v -0.482058 0.495000 -0.445000
v -0.504887 0.431360 -0.431820
v -0.504887 0.558640 -0.368180
v -0.482058 0.495000 -0.355000
v -0.504887 0.431360 -0.368180
v -0.560000 0.558640 -0.336360
v -0.560000 0.495000 -0.310000
v -0.560000 0.431360 -0.336360
v -0.615114 0.558640 -0.368180
v -0.637942 0.495000 -0.355000
v -0.615114 0.431360 -0.368180
v -0.615113 0.558640 -0.431820
v -0.637942 0.495000 -0.445000
v -0.615113 0.431360 -0.431820
v 0.080000 0.585000 -0.400000
v 0.080000 0.558640 -0.463640
v 0.080000 0.495000 -0.490000
v 0.080000 0.431360 -0.463640
v 0.080000 0.405000 -0.400000
v 0.135114 0.558640 -0.431820
v 0.157942 0.495000 -0.445000
v 0.135114 0.431360 -0.431820
v 0.135114 0.558640 -0.368180
v 0.157942 0.495000 -0.355000
v 0.135114 0.431360 -0.368180
v 0.080000 0.558640 -0.336360
v 0.080000 0.495000 -0.310000
v 0.080000 0.431360 -0.336360
v 0.024886 0.558640 -0.368180
v 0.002058 0.495000 -0.355000
v 0.024886 0.431360 -0.368180
v 0.024886 0.558640 -0.431820
v 0.002058 0.495000 -0.445000
v 0.024886 0.431360 -0.431820
v 0.440000 0.585000 -0.400000
v 0.440000 0.558640 -0.463640
v 0.440000 0.495000 -0.490000
v 0.440000 0.431360 -0.463640
v 0.440000 0.405000 -0.400000
v 0.495114 0.558640 -0.431820
v 0.517942 0.495000 -0.445000
v 0.495114 0.431360 -0.431820
v 0.495114 0.558640 -0.368180
v 0.517942 0.495000 -0.355000
v 0.495114 0.431360 -0.368180
v 0.440000 0.558640 -0.336360
v 0.440000 0.495000 -0.310000
v 0.440000 0.431360 -0.336360
v 0.384886 0.558640 -0.368180
v 0.362058 0.495000 -0.355000
v 0.384886 0.431360 -0.368180
v 0.384886 0.558640 -0.431820
v 0.362058 0.495000 -0.445000
v 0.384886 0.431360 -0.431820
v -0.636396 1.325000 -0.636396
v -0.212132 1.925000 -0.212132
v 0.636396 1.325000 -0.636396
v 0.212132 1.925000 -0.212132
v 0.636396 1.325000 0.636396
v 0.212132 1.925000 0.212132
v -0.636396 1.325000 0.636396
v -0.212132 1.925000 0.212132
v -0.198000 1.875000 0.198000
v -0.198000 1.887000 0.210000
v -0.210000 1.887000 0.198000
v -0.198000 3.063000 0.210000
v -0.198000 3.075000 0.198000
v -0.210000 3.063000 0.198000
v -0.198000 1.875000 -0.198000
v -0.210000 1.887000 -0.198000
v -0.198000 1.887000 -0.210000
v -0.198000 3.075000 -0.198000
v -0.198000 3.063000 -0.210000
v -0.210000 3.063000 -0.198000
v 0.198000 1.875000 0.198000
v 0.210000 1.887000 0.198000
v 0.198000 1.887000 0.210000
v 0.198000 3.075000 0.198000
v 0.198000 3.063000 0.210000
v 0.210000 3.063000 0.198000
v 0.198000 1.875000 -0.198000
v 0.198000 1.887000 -0.210000
v 0.210000 1.887000 -0.198000
v 0.198000 3.075000 -0.198000
v 0.210000 3.063000 -0.198000
v 0.198000 3.063000 -0.210000
v -0.633000 0.425000 0.463000
v -0.633000 0.437000 0.475000
v -0.645000 0.437000 0.463000
v -0.633000 1.363000 0.475000
v -0.633000 1.375000 0.463000
v -0.645000 1.363000 0.463000
v -0.633000 0.425000 0.437000
v -0.645000 0.437000 0.437000
v -0.633000 0.437000 0.425000
v -0.633000 1.375000 0.437000
v -0.633000 1.363000 0.425000
v -0.645000 1.363000 0.437000
v -0.607000 0.425000 0.463000
v -0.595000 0.437000 0.463000
v -0.607000 0.437000 0.475000
v -0.607000 1.375000 0.463000
v -0.607000 1.363000 0.475000
v -0.595000 1.363000 0.463000
v -0.607000 0.425000 0.437000
v -0.607000 0.437000 0.425000
v -0.595000 0.437000 0.437000
v -0.607000 1.375000 0.437000
v -0.595000 1.363000 0.437000
v -0.607000 1.363000 0.425000
v 0.607000 0.425000 0.463000
v 0.607000 0.437000 0.475000
v 0.595000 0.437000 0.463000
v 0.607000 1.363000 0.475000
v 0.607000 1.375000 0.463000
v 0.595000 1.363000 0.463000
v 0.607000 0.425000 0.437000
v 0.595000 0.437000 0.437000
v 0.607000 0.437000 0.425000
v 0.607000 1.375000 0.437000
v 0.607000 1.363000 0.425000
v 0.595000 1.363000 0.437000
v 0.633000 0.425000 0.463000
v 0.645000 0.437000 0.463000
v 0.633000 0.437000 0.475000
v 0.633000 1.375000 0.463000
v 0.633000 1.363000 0.475000
v 0.645000 1.363000 0.463000
v 0.633000 0.425000 0.437000
v 0.633000 0.437000 0.425000
v 0.645000 0.437000 0.437000
v 0.633000 1.375000 0.437000
v 0.645000 1.363000 0.437000
v 0.633000 1.363000 0.425000
v 0.655809 0.197120 0.413000
v 0.659355 0.208584 0.425000
v 0.647891 0.212131 0.413000
v 0.675904 0.262083 0.425000
v 0.679451 0.273547 0.413000
v 0.664440 0.265629 0.413000
v 0.655809 0.197120 0.087000
v 0.647891 0.212131 0.087000
v 0.659355 0.208584 0.075000
v 0.679451 0.273547 0.087000
v 0.675904 0.262083 0.075000
v 0.664440 0.265629 0.087000
v 1.110549 0.056453 0.413000
v 1.125560 0.064370 0.413000
v 1.114095 0.067917 0.425000
v 1.134191 0.132880 0.413000
v 1.130645 0.121416 0.425000
v 1.142109 0.117869 0.413000
v 1.110549 0.056453 0.087000
v 1.114095 0.067917 0.075000
v 1.125560 0.064370 0.087000
v 1.134191 0.132880 0.087000
v 1.142109 0.117869 0.087000
v 1.130645 0.121416 0.075000
v 0.693817 0.247774 0.358000
v 0.706229 0.287898 0.400000
v 0.666105 0.300310 0.358000
v 0.722778 0.341397 0.400000
v 0.735190 0.381521 0.358000
v 0.682654 0.353809 0.358000
v 0.693817 0.247774 0.142000
v 0.666105 0.300310 0.142000
v 0.706229 0.287898 0.100000
v 0.735190 0.381521 0.142000
v 0.722778 0.341397 0.100000
v 0.682654 0.353809 0.142000
v 1.014810 0.148479 0.358000
v 1.067346 0.176191 0.358000
v 1.027222 0.188603 0.400000
v 1.056183 0.282226 0.358000
v 1.043771 0.242102 0.400000
v 1.083895 0.229690 0.358000
v 1.014810 0.148479 0.142000
v 1.027222 0.188603 0.100000
v 1.067346 0.176191 0.142000
v 1.056183 0.282226 0.142000
v 1.083895 0.229690 0.142000
v 1.043771 0.242102 0.100000
v -0.641000 0.435000 0.506000
v -0.641000 0.444000 0.515000
v -0.650000 0.444000 0.506000
v -0.641000 0.456000 0.515000
v -0.641000 0.465000 0.506000
v -0.650000 0.456000 0.506000
v -0.641000 0.435000 0.494000
v -0.650000 0.444000 0.494000
v -0.641000 0.444000 0.485000
v -0.641000 0.465000 0.494000
v -0.641000 0.456000 0.485000
v -0.650000 0.456000 0.494000
v -0.159000 0.435000 0.506000
v -0.150000 0.444000 0.506000
v -0.159000 0.444000 0.515000
v -0.159000 0.465000 0.506000
v -0.159000 0.456000 0.515000
v -0.150000 0.456000 0.506000
v -0.159000 0.435000 0.494000
v -0.159000 0.444000 0.485000
v -0.150000 0.444000 0.494000
v -0.159000 0.465000 0.494000
v -0.150000 0.456000 0.494000
v -0.159000 0.456000 0.485000
v 0.160500 0.435000 0.537000
v 0.160500 0.445500 0.547500
v 0.150000 0.445500 0.537000
v 0.160500 0.459500 0.547500
v 0.160500 0.470000 0.537000
v 0.150000 0.459500 0.537000
v 0.160500 0.435000 0.523000
v 0.150000 0.445500 0.523000
v 0.160500 0.445500 0.512500
v 0.160500 0.470000 0.523000
v 0.160500 0.459500 0.512500
v 0.150000 0.459500 0.523000
v 0.439500 0.435000 0.537000
v 0.450000 0.445500 0.537000
v 0.439500 0.445500 0.547500
v 0.439500 0.470000 0.537000
v 0.439500 0.459500 0.547500
v 0.450000 0.459500 0.537000
v 0.439500 0.435000 0.523000
v 0.439500 0.445500 0.512500
v 0.450000 0.445500 0.523000
v 0.439500 0.470000 0.523000
v 0.450000 0.459500 0.523000
v 0.439500 0.459500 0.512500
v 0.422000 0.435000 0.578000
v 0.422000 0.447000 0.590000
v 0.410000 0.447000 0.578000
v 0.422000 0.503000 0.590000
v 0.422000 0.515000 0.578000
v 0.410000 0.503000 0.578000
v 0.422000 0.435000 0.482000
v 0.410000 0.447000 0.482000
v 0.422000 0.447000 0.470000
v 0.422000 0.515000 0.482000
v 0.422000 0.503000 0.470000
v 0.410000 0.503000 0.482000
v 0.478000 0.435000 0.578000
v 0.490000 0.447000 0.578000
v 0.478000 0.447000 0.590000
v 0.478000 0.515000 0.578000
v 0.478000 0.503000 0.590000
v 0.490000 0.503000 0.578000
v 0.478000 0.435000 0.482000
v 0.478000 0.447000 0.470000
v 0.490000 0.447000 0.482000
v 0.478000 0.515000 0.482000
v 0.490000 0.503000 0.482000
v 0.478000 0.503000 0.470000
vn -0.5774 -0.5774 0.5774
vn -0.5774 0.5774 0.5774
vn -0.5774 -0.5774 -0.5774
vn -0.5774 0.5774 -0.5774
vn 0.5774 -0.5774 0.5774
vn 0.5774 0.5774 0.5774
vn 0.5774 -0.5774 -0.5774
vn 0.5774 0.5774 -0.5774
vn -0.7071 -0.7071 -0.0000
vn -0.7071 -0.0000 0.7071
vn -0.7071 0.7071 -0.0000
vn -0.7071 -0.0000 -0.7071
vn -0.0000 -0.7071 -0.7071
vn -0.0000 0.7071 -0.7071
vn 0.7071 -0.0000 -0.7071
vn 0.7071 -0.7071 -0.0000
vn 0.7071 0.7071 -0.0000
vn 0.7071 -0.0000 0.7071
vn -0.0000 -0.7071 0.7071
vn -0.0000 0.7071 0.7071
vn -0.0000 -1.0000 -0.0000
vn -1.0000 -0.0000 -0.0000
vn -0.0000 -0.0000 1.0000
vn -0.0000 1.0000 -0.0000
vn -0.0000 -0.0000 -1.0000
vn 1.0000 -0.0000 -0.0000
vn -0.5773 -0.5773 0.5774
vn -0.5773 0.5773 0.5774
vn -0.5773 -0.5773 -0.5774
vn -0.5773 0.5773 -0.5774
vn 0.5773 -0.5773 0.5774
vn 0.5773 0.5773 0.5774
vn 0.5773 -0.5773 -0.5774
vn 0.5773 0.5773 -0.5774
vn 0.4706 -0.3377 -0.8152
vn 0.2157 0.9021 -0.3737
vn 0.2157 -0.9021 -0.3737
vn 0.4706 0.3377 -0.8152
vn 0.4315 0.9021 -0.0000
vn 0.4315 -0.9021 -0.0000
vn 0.9413 0.3377 -0.0000
vn 0.9413 -0.3377 -0.0000
vn 0.4706 -0.3377 0.8152
vn 0.2157 0.9021 0.3737
vn 0.2157 -0.9021 0.3737
vn 0.4706 0.3377 0.8152
vn -0.4706 -0.3377 0.8152
vn -0.2157 0.9021 0.3737
vn -0.2157 -0.9021 0.3737
vn -0.4706 0.3377 0.8152
vn -0.9413 -0.3377 -0.0000
vn -0.4315 0.9021 -0.0000
vn -0.4315 -0.9021 -0.0000
vn -0.9413 0.3377 -0.0000
vn -0.4706 -0.3377 -0.8152
vn -0.2157 0.9021 -0.3737
vn -0.2157 -0.9021 -0.3737
vn -0.4706 0.3377 -0.8152
vn -0.0000 0.5774 -0.8165
vn 0.8165 0.5774 -0.0000
vn -0.0000 0.5774 0.8165
vn -0.8165 0.5774 -0.0000
vn -0.5774 -0.5773 0.5773
vn -0.5773 0.5774 0.5774
vn -0.5774 -0.5773 -0.5773
vn -0.5773 0.5774 -0.5774
vn 0.5774 -0.5773 0.5773
vn 0.5773 0.5774 0.5774
vn 0.5774 -0.5773 -0.5773
vn 0.5773 0.5774 -0.5774
vn -0.5773 -0.5774 0.5773
vn 0.5773 -0.5774 0.5774
vn -0.5773 -0.5774 0.5774
vn 0.5773 -0.5774 0.5773
vn -0.7222 -0.3809 0.5773
vn -0.3809 0.7222 0.5773
vn -0.7222 -0.3809 -0.5773
vn -0.3809 0.7222 -0.5773
vn 0.3809 -0.7222 0.5774
vn 0.7222 0.3809 0.5773
vn 0.3809 -0.7222 -0.5774
vn 0.7222 0.3809 -0.5773
vn -0.8845 -0.4666 -0.0000
vn -0.6755 0.2090 0.7071
vn -0.4666 0.8845 -0.0000
vn -0.6755 0.2090 -0.7071
vn -0.2090 -0.6755 -0.7071
vn 0.2090 0.6755 -0.7071
vn 0.6755 -0.2090 -0.7071
vn 0.4666 -0.8845 -0.0000
vn 0.8845 0.4666 -0.0000
vn 0.6755 -0.2090 0.7071
vn -0.2090 -0.6755 0.7071
vn 0.2090 0.6755 0.7071
vn -0.2955 -0.9553 -0.0000
vn -0.9553 0.2955 -0.0000
vn 0.2955 0.9553 -0.0000
vn 0.9553 -0.2955 -0.0000
vn -0.7222 -0.3809 0.5774
vn -0.3809 0.7222 0.5774
vn -0.7222 -0.3809 -0.5774
vn -0.3809 0.7222 -0.5774
vn -0.5774 -0.5773 0.5774
vn -0.5774 0.5773 0.5774
vn -0.5774 -0.5773 -0.5774
vn -0.5774 0.5773 -0.5774
vn 0.5774 -0.5773 0.5774
vn 0.5774 0.5773 0.5774
vn 0.5773 -0.5774 -0.5773
vn 0.5773 0.5774 -0.5773
vn 0.5774 -0.5773 -0.5774
vn 0.5774 0.5773 -0.5774
vn -0.5774 -0.5774 0.5773
vn -0.5773 -0.5774 -0.5773
vn 0.5774 -0.5774 0.5773
vn 0.5773 0.5774 0.5773
vn 0.5774 0.5774 -0.5773
vn 0.8165 0.5773 -0.0000
vn -0.8165 0.5773 -0.0000
vt 0.281250 0.906250
vt 0.218750 0.906250
vt 0.468750 0.906250
vt 0.406250 0.906250
vt 0.343750 0.906250
vt 0.781250 0.968750
vt 0.093750 0.968750
vt 0.593750 0.843750
vt 0.843750 0.968750
vt 0.031250 0.968750
s 0
f 1/1/1 2/1/1 3/1/1
f 4/1/2 5/1/2 6/1/2
f 7/1/3 8/1/3 9/1/3
f 10/1/4 11/1/4 12/1/4
f 13/1/5 14/1/5 15/1/5
f 16/1/6 17/1/6 18/1/6
f 19/1/7 20/1/7 21/1/7
f 22/1/8 23/1/8 24/1/8
f 1/1/9 8/1/9 7/1/9
f 4/1/10 3/1/10 2/1/10
f 10/1/11 6/1/11 5/1/11
f 9/1/12 12/1/12 11/1/12
f 7/1/13 20/1/13 19/1/13
f 22/1/14 11/1/14 10/1/14
f 21/1/15 24/1/15 23/1/15
f 19/1/16 14/1/16 13/1/16
f 16/1/17 23/1/17 22/1/17
f 15/1/18 18/1/18 17/1/18
f 13/1/19 2/1/19 1/1/19
f 5/1/20 17/1/20 16/1/20
f 19/1/21 1/1/21 7/1/21
f 6/1/22 8/1/22 3/1/22
f 17/1/23 2/1/23 15/1/23
f 10/1/24 16/1/24 22/1/24
f 11/1/25 20/1/25 9/1/25
f 23/1/26 14/1/26 21/1/26
f 26/2/22 27/2/22 25/2/22
f 28/2/25 31/2/25 27/2/25
f 32/2/26 29/2/26 31/2/26
f 30/2/23 25/2/23 29/2/23
f 31/2/21 25/2/21 27/2/21
f 28/2/24 30/2/24 32/2/24
f 34/2/22 35/2/22 33/2/22
f 36/2/25 39/2/25 35/2/25
f 40/2/26 37/2/26 39/2/26
f 38/2/23 33/2/23 37/2/23
f 39/2/21 33/2/21 35/2/21
f 36/2/24 38/2/24 40/2/24
f 42/2/22 43/2/22 41/2/22
f 44/2/25 47/2/25 43/2/25
f 48/2/26 45/2/26 47/2/26
f 46/2/23 41/2/23 45/2/23
f 47/2/21 41/2/21 43/2/21
f 44/2/24 46/2/24 48/2/24
f 49/3/27 50/3/27 51/3/27
f 52/3/28 53/3/28 54/3/28
f 55/3/29 56/3/29 57/3/29
f 58/3/30 59/3/30 60/3/30
f 61/3/31 62/3/31 63/3/31
f 64/3/32 65/3/32 66/3/32
f 67/3/33 68/3/33 69/3/33
f 70/3/34 71/3/34 72/3/34
f 49/3/9 56/3/9 55/3/9
f 52/3/10 51/3/10 50/3/10
f 58/3/11 54/3/11 53/3/11
f 57/3/12 60/3/12 59/3/12
f 55/3/13 68/3/13 67/3/13
f 70/3/14 59/3/14 58/3/14
f 69/3/15 72/3/15 71/3/15
f 67/3/16 62/3/16 61/3/16
f 64/3/17 71/3/17 70/3/17
f 63/3/18 66/3/18 65/3/18
f 61/3/19 50/3/19 49/3/19
f 53/3/20 65/3/20 64/3/20
f 67/3/21 49/3/21 55/3/21
f 54/3/22 56/3/22 51/3/22
f 65/3/23 50/3/23 63/3/23
f 58/3/24 64/3/24 70/3/24
f 59/3/25 68/3/25 57/3/25
f 71/3/26 62/3/26 69/3/26
f 75/4/35 80/4/35 76/4/35
f 74/4/36 73/4/36 78/4/36
f 77/4/37 76/4/37 80/4/37
f 74/4/38 79/4/38 75/4/38
f 78/4/39 73/4/39 81/4/39
f 77/4/40 80/4/40 83/4/40
f 78/4/41 82/4/41 79/4/41
f 79/4/42 83/4/42 80/4/42
f 82/4/43 86/4/43 83/4/43
f 81/4/44 73/4/44 84/4/44
f 77/4/45 83/4/45 86/4/45
f 81/4/46 85/4/46 82/4/46
f 85/4/47 89/4/47 86/4/47
f 84/4/48 73/4/48 87/4/48
f 77/4/49 86/4/49 89/4/49
f 84/4/50 88/4/50 85/4/50
f 89/4/51 91/4/51 92/4/51
f 87/4/52 73/4/52 90/4/52
f 77/4/53 89/4/53 92/4/53
f 87/4/54 91/4/54 88/4/54
f 92/4/55 75/4/55 76/4/55
f 90/4/56 73/4/56 74/4/56
f 77/4/57 92/4/57 76/4/57
f 91/4/58 74/4/58 75/4/58
f 95/5/35 100/5/35 96/5/35
f 94/5/36 93/5/36 98/5/36
f 97/5/37 96/5/37 100/5/37
f 94/5/38 99/5/38 95/5/38
f 99/5/42 103/5/42 100/5/42
f 98/5/39 93/5/39 101/5/39
f 97/5/40 100/5/40 103/5/40
f 98/5/41 102/5/41 99/5/41
f 102/5/43 106/5/43 103/5/43
f 101/5/44 93/5/44 104/5/44
f 97/5/45 103/5/45 106/5/45
f 101/5/46 105/5/46 102/5/46
f 105/5/47 109/5/47 106/5/47
f 104/5/48 93/5/48 107/5/48
f 97/5/49 106/5/49 109/5/49
f 104/5/50 108/5/50 105/5/50
f 107/5/54 111/5/54 108/5/54
f 109/5/51 111/5/51 112/5/51
f 107/5/52 93/5/52 110/5/52
f 97/5/53 109/5/53 112/5/53
f 97/5/57 112/5/57 96/5/57
f 110/5/58 95/5/58 111/5/58
f 111/5/55 96/5/55 112/5/55
f 110/5/56 93/5/56 94/5/56
f 114/5/38 119/5/38 115/5/38
f 115/5/35 120/5/35 116/5/35
f 114/5/36 113/5/36 118/5/36
f 117/5/37 116/5/37 120/5/37
f 119/5/42 123/5/42 120/5/42
f 118/5/39 113/5/39 121/5/39
f 117/5/40 120/5/40 123/5/40
f 119/5/41 121/5/41 122/5/41
f 123/5/43 125/5/43 126/5/43
f 121/5/44 113/5/44 124/5/44
f 117/5/45 123/5/45 126/5/45
f 121/5/46 125/5/46 122/5/46
f 124/5/50 128/5/50 125/5/50
f 126/5/47 128/5/47 129/5/47
f 124/5/48 113/5/48 127/5/48
f 117/5/49 126/5/49 129/5/49
f 117/5/53 129/5/53 132/5/53
f 127/5/54 131/5/54 128/5/54
f 128/5/51 132/5/51 129/5/51
f 127/5/52 113/5/52 130/5/52
f 117/5/57 132/5/57 116/5/57
f 131/5/58 114/5/58 115/5/58
f 131/5/55 116/5/55 132/5/55
f 130/5/56 113/5/56 114/5/56
f 137/4/37 136/4/37 140/4/37
f 134/4/38 139/4/38 135/4/38
f 135/4/35 140/4/35 136/4/35
f 134/4/36 133/4/36 138/4/36
f 137/4/40 140/4/40 143/4/40
f 138/4/41 142/4/41 139/4/41
f 139/4/42 143/4/42 140/4/42
f 138/4/39 133/4/39 141/4/39
f 137/4/45 143/4/45 146/4/45
f 141/4/46 145/4/46 142/4/46
f 142/4/43 146/4/43 143/4/43
f 141/4/44 133/4/44 144/4/44
f 137/4/49 146/4/49 149/4/49
f 144/4/50 148/4/50 145/4/50
f 146/4/47 148/4/47 149/4/47
f 144/4/48 133/4/48 147/4/48
f 137/4/53 149/4/53 152/4/53
f 147/4/54 151/4/54 148/4/54
f 148/4/51 152/4/51 149/4/51
f 147/4/52 133/4/52 150/4/52
f 150/4/56 133/4/56 134/4/56
f 137/4/57 152/4/57 136/4/57
f 150/4/58 135/4/58 151/4/58
f 151/4/55 136/4/55 152/4/55
f 157/5/37 156/5/37 160/5/37
f 154/5/38 159/5/38 155/5/38
f 155/5/35 160/5/35 156/5/35
f 154/5/36 153/5/36 158/5/36
f 157/5/40 160/5/40 163/5/40
f 158/5/41 162/5/41 159/5/41
f 159/5/42 163/5/42 160/5/42
f 158/5/39 153/5/39 161/5/39
f 157/5/45 163/5/45 166/5/45
f 161/5/46 165/5/46 162/5/46
f 162/5/43 166/5/43 163/5/43
f 161/5/44 153/5/44 164/5/44
f 157/5/49 166/5/49 169/5/49
f 164/5/50 168/5/50 165/5/50
f 166/5/47 168/5/47 169/5/47
f 164/5/48 153/5/48 167/5/48
f 167/5/52 153/5/52 170/5/52
f 157/5/53 169/5/53 172/5/53
f 167/5/54 171/5/54 168/5/54
f 169/5/51 171/5/51 172/5/51
f 171/5/55 156/5/55 172/5/55
f 170/5/56 153/5/56 154/5/56
f 157/5/57 172/5/57 156/5/57
f 170/5/58 155/5/58 171/5/58
f 175/5/35 180/5/35 176/5/35
f 174/5/36 173/5/36 178/5/36
f 177/5/37 176/5/37 180/5/37
f 175/5/38 178/5/38 179/5/38
f 178/5/39 173/5/39 181/5/39
f 177/5/40 180/5/40 183/5/40
f 178/5/41 182/5/41 179/5/41
f 179/5/42 183/5/42 180/5/42
f 183/5/43 185/5/43 186/5/43
f 181/5/44 173/5/44 184/5/44
f 177/5/45 183/5/45 186/5/45
f 181/5/46 185/5/46 182/5/46
f 185/5/47 189/5/47 186/5/47
f 184/5/48 173/5/48 187/5/48
f 177/5/49 186/5/49 189/5/49
f 184/5/50 188/5/50 185/5/50
f 188/5/51 192/5/51 189/5/51
f 187/5/52 173/5/52 190/5/52
f 177/5/53 189/5/53 192/5/53
f 187/5/54 191/5/54 188/5/54
f 192/5/55 175/5/55 176/5/55
f 190/5/56 173/5/56 174/5/56
f 177/5/57 192/5/57 176/5/57
f 190/5/58 175/5/58 191/5/58
f 195/4/35 200/4/35 196/4/35
f 194/4/36 193/4/36 198/4/36
f 197/4/37 196/4/37 200/4/37
f 194/4/38 199/4/38 195/4/38
f 200/4/42 202/4/42 203/4/42
f 198/4/39 193/4/39 201/4/39
f 197/4/40 200/4/40 203/4/40
f 198/4/41 202/4/41 199/4/41
f 202/4/43 206/4/43 203/4/43
f 201/4/44 193/4/44 204/4/44
f 197/4/45 203/4/45 206/4/45
f 201/4/46 205/4/46 202/4/46
f 205/4/47 209/4/47 206/4/47
f 204/4/48 193/4/48 207/4/48
f 197/4/49 206/4/49 209/4/49
f 204/4/50 208/4/50 205/4/50
f 208/4/51 212/4/51 209/4/51
f 207/4/52 193/4/52 210/4/52
f 197/4/53 209/4/53 212/4/53
f 207/4/54 211/4/54 208/4/54
f 212/4/55 195/4/55 196/4/55
f 210/4/56 193/4/56 194/4/56
f 197/4/57 212/4/57 196/4/57
f 211/4/58 194/4/58 195/4/58
f 214/5/38 219/5/38 215/5/38
f 216/5/35 219/5/35 220/5/35
f 214/5/36 213/5/36 218/5/36
f 217/5/37 216/5/37 220/5/37
f 220/5/42 222/5/42 223/5/42
f 218/5/39 213/5/39 221/5/39
f 217/5/40 220/5/40 223/5/40
f 218/5/41 222/5/41 219/5/41
f 222/5/43 226/5/43 223/5/43
f 221/5/44 213/5/44 224/5/44
f 217/5/45 223/5/45 226/5/45
f 221/5/46 225/5/46 222/5/46
f 225/5/50 227/5/50 228/5/50
f 225/5/47 229/5/47 226/5/47
f 224/5/48 213/5/48 227/5/48
f 217/5/49 226/5/49 229/5/49
f 217/5/53 229/5/53 232/5/53
f 227/5/54 231/5/54 228/5/54
f 228/5/51 232/5/51 229/5/51
f 227/5/52 213/5/52 230/5/52
f 217/5/57 232/5/57 216/5/57
f 230/5/58 215/5/58 231/5/58
f 231/5/55 216/5/55 232/5/55
f 230/5/56 213/5/56 214/5/56
f 235/5/35 240/5/35 236/5/35
f 234/5/36 233/5/36 238/5/36
f 237/5/37 236/5/37 240/5/37
f 234/5/38 239/5/38 235/5/38
f 238/5/39 233/5/39 241/5/39
f 237/5/40 240/5/40 243/5/40
f 238/5/41 242/5/41 239/5/41
f 239/5/42 243/5/42 240/5/42
f 242/5/43 246/5/43 243/5/43
f 241/5/44 233/5/44 244/5/44
f 237/5/45 243/5/45 246/5/45
f 242/5/46 244/5/46 245/5/46
f 245/5/47 249/5/47 246/5/47
f 244/5/48 233/5/48 247/5/48
f 237/5/49 246/5/49 249/5/49
f 244/5/50 248/5/50 245/5/50
f 248/5/51 252/5/51 249/5/51
f 247/5/52 233/5/52 250/5/52
f 237/5/53 249/5/53 252/5/53
f 247/5/54 251/5/54 248/5/54
f 251/5/55 236/5/55 252/5/55
f 250/5/56 233/5/56 234/5/56
f 237/5/57 252/5/57 236/5/57
f 250/5/58 235/5/58 251/5/58
f 254/6/59 255/6/59 253/6/59
f 256/6/60 257/6/60 255/6/60
f 254/6/24 258/6/24 256/6/24
f 258/6/61 259/6/61 257/6/61
f 260/6/62 253/6/62 259/6/62
f 255/6/21 259/6/21 253/6/21
f 261/6/63 262/6/63 263/6/63
f 264/6/64 265/6/64 266/6/64
f 267/6/65 268/6/65 269/6/65
f 270/6/66 271/6/66 272/6/66
f 273/6/67 274/6/67 275/6/67
f 276/6/68 277/6/68 278/6/68
f 279/6/69 280/6/69 281/6/69
f 282/6/70 283/6/70 284/6/70
f 261/6/9 268/6/9 267/6/9
f 264/6/10 263/6/10 262/6/10
f 270/6/11 266/6/11 265/6/11
f 269/6/12 272/6/12 271/6/12
f 267/6/13 280/6/13 279/6/13
f 282/6/14 271/6/14 270/6/14
f 281/6/15 284/6/15 283/6/15
f 279/6/16 274/6/16 273/6/16
f 276/6/17 283/6/17 282/6/17
f 275/6/18 278/6/18 277/6/18
f 273/6/19 262/6/19 261/6/19
f 265/6/20 277/6/20 276/6/20
f 279/6/21 261/6/21 267/6/21
f 266/6/22 268/6/22 263/6/22
f 277/6/23 262/6/23 275/6/23
f 270/6/24 276/6/24 282/6/24
f 271/6/25 280/6/25 269/6/25
f 283/6/26 274/6/26 281/6/26
f 285/6/71 286/6/71 287/6/71
f 288/6/64 289/6/64 290/6/64
f 291/6/3 292/6/3 293/6/3
f 294/6/66 295/6/66 296/6/66
f 297/6/72 298/6/72 299/6/72
f 300/6/68 301/6/68 302/6/68
f 303/6/33 304/6/33 305/6/33
f 306/6/70 307/6/70 308/6/70
f 285/6/9 292/6/9 291/6/9
f 288/6/10 287/6/10 286/6/10
f 294/6/11 290/6/11 289/6/11
f 293/6/12 296/6/12 295/6/12
f 291/6/13 304/6/13 303/6/13
f 306/6/14 295/6/14 294/6/14
f 305/6/15 308/6/15 307/6/15
f 303/6/16 298/6/16 297/6/16
f 300/6/17 307/6/17 306/6/17
f 299/6/18 302/6/18 301/6/18
f 297/6/19 286/6/19 285/6/19
f 289/6/20 301/6/20 300/6/20
f 303/6/21 285/6/21 291/6/21
f 290/6/22 292/6/22 287/6/22
f 301/6/23 286/6/23 299/6/23
f 294/6/24 300/6/24 306/6/24
f 295/6/25 304/6/25 293/6/25
f 307/6/26 298/6/26 305/6/26
f 309/6/73 310/6/73 311/6/73
f 312/6/64 313/6/64 314/6/64
f 315/6/29 316/6/29 317/6/29
f 318/6/66 319/6/66 320/6/66
f 321/6/74 322/6/74 323/6/74
f 324/6/68 325/6/68 326/6/68
f 327/6/7 328/6/7 329/6/7
f 330/6/70 331/6/70 332/6/70
f 309/6/9 316/6/9 315/6/9
f 312/6/10 311/6/10 310/6/10
f 318/6/11 314/6/11 313/6/11
f 317/6/12 320/6/12 319/6/12
f 315/6/13 328/6/13 327/6/13
f 330/6/14 319/6/14 318/6/14
f 329/6/15 332/6/15 331/6/15
f 327/6/16 322/6/16 321/6/16
f 324/6/17 331/6/17 330/6/17
f 323/6/18 326/6/18 325/6/18
f 321/6/19 310/6/19 309/6/19
f 313/6/20 325/6/20 324/6/20
f 327/6/21 309/6/21 315/6/21
f 314/6/22 316/6/22 311/6/22
f 325/6/23 310/6/23 323/6/23
f 318/6/24 324/6/24 330/6/24
f 319/6/25 328/6/25 317/6/25
f 331/6/26 322/6/26 329/6/26
f 333/7/75 334/7/75 335/7/75
f 336/7/76 337/7/76 338/7/76
f 339/7/77 340/7/77 341/7/77
f 342/7/78 343/7/78 344/7/78
f 345/7/79 346/7/79 347/7/79
f 348/7/80 349/7/80 350/7/80
f 351/7/81 352/7/81 353/7/81
f 354/7/82 355/7/82 356/7/82
f 333/7/83 340/7/83 339/7/83
f 334/7/84 338/7/84 335/7/84
f 342/7/85 338/7/85 337/7/85
f 343/7/86 340/7/86 344/7/86
f 351/7/87 341/7/87 352/7/87
f 354/7/88 343/7/88 342/7/88
f 353/7/89 356/7/89 355/7/89
f 351/7/90 346/7/90 345/7/90
f 348/7/91 355/7/91 354/7/91
f 349/7/92 346/7/92 350/7/92
f 333/7/93 347/7/93 334/7/93
f 337/7/94 349/7/94 348/7/94
f 351/7/95 333/7/95 339/7/95
f 338/7/96 340/7/96 335/7/96
f 349/7/23 334/7/23 347/7/23
f 342/7/97 348/7/97 354/7/97
f 343/7/25 352/7/25 341/7/25
f 355/7/98 346/7/98 353/7/98
f 357/8/99 358/8/99 359/8/99
f 360/8/100 361/8/100 362/8/100
f 363/8/101 364/8/101 365/8/101
f 366/8/102 367/8/102 368/8/102
f 369/8/79 370/8/79 371/8/79
f 372/8/80 373/8/80 374/8/80
f 375/8/81 376/8/81 377/8/81
f 378/8/82 379/8/82 380/8/82
f 357/8/83 364/8/83 363/8/83
f 360/8/84 359/8/84 358/8/84
f 366/8/85 362/8/85 361/8/85
f 367/8/86 364/8/86 368/8/86
f 363/8/87 376/8/87 375/8/87
f 378/8/88 367/8/88 366/8/88
f 377/8/89 380/8/89 379/8/89
f 375/8/90 370/8/90 369/8/90
f 372/8/91 379/8/91 378/8/91
f 373/8/92 370/8/92 374/8/92
f 369/8/93 358/8/93 357/8/93
f 361/8/94 373/8/94 372/8/94
f 375/8/95 357/8/95 363/8/95
f 362/8/96 364/8/96 359/8/96
f 371/8/23 360/8/23 358/8/23
f 366/8/97 372/8/97 378/8/97
f 367/8/25 376/8/25 365/8/25
f 379/8/98 370/8/98 377/8/98
f 381/9/103 382/9/103 383/9/103
f 384/9/104 385/9/104 386/9/104
f 387/9/105 388/9/105 389/9/105
f 390/9/106 391/9/106 392/9/106
f 393/9/107 394/9/107 395/9/107
f 396/9/108 397/9/108 398/9/108
f 399/9/109 400/9/109 401/9/109
f 402/9/110 403/9/110 404/9/110
f 381/9/9 388/9/9 387/9/9
f 384/9/10 383/9/10 382/9/10
f 390/9/11 386/9/11 385/9/11
f 389/9/12 392/9/12 391/9/12
f 387/9/13 400/9/13 399/9/13
f 402/9/14 391/9/14 390/9/14
f 401/9/15 404/9/15 403/9/15
f 399/9/16 394/9/16 393/9/16
f 396/9/17 403/9/17 402/9/17
f 395/9/18 398/9/18 397/9/18
f 393/9/19 382/9/19 381/9/19
f 385/9/20 397/9/20 396/9/20
f 399/9/21 381/9/21 387/9/21
f 386/9/22 388/9/22 383/9/22
f 397/9/23 382/9/23 395/9/23
f 390/9/24 396/9/24 402/9/24
f 391/9/25 400/9/25 389/9/25
f 403/9/26 394/9/26 401/9/26
f 405/10/1 406/10/1 407/10/1
f 408/10/2 409/10/2 410/10/2
f 411/10/3 412/10/3 413/10/3
f 414/10/4 415/10/4 416/10/4
f 417/10/107 418/10/107 419/10/107
f 420/10/108 421/10/108 422/10/108
f 423/10/111 424/10/111 425/10/111
f 426/10/112 427/10/112 428/10/112
f 405/10/9 412/10/9 411/10/9
f 408/10/10 407/10/10 406/10/10
f 414/10/11 410/10/11 409/10/11
f 413/10/12 416/10/12 415/10/12
f 411/10/13 424/10/13 423/10/13
f 426/10/14 415/10/14 414/10/14
f 425/10/15 428/10/15 427/10/15
f 423/10/16 418/10/16 417/10/16
f 420/10/17 427/10/17 426/10/17
f 419/10/18 422/10/18 421/10/18
f 417/10/19 406/10/19 405/10/19
f 409/10/20 421/10/20 420/10/20
f 423/10/21 405/10/21 411/10/21
f 410/10/22 412/10/22 407/10/22
f 421/10/23 406/10/23 419/10/23
f 414/10/24 420/10/24 426/10/24
f 415/10/25 424/10/25 413/10/25
f 427/10/26 418/10/26 425/10/26
f 429/6/113 430/6/113 431/6/113
f 432/6/64 433/6/64 434/6/64
f 435/6/114 436/6/114 437/6/114
f 438/6/4 439/6/4 440/6/4
f 441/6/115 442/6/115 443/6/115
f 444/6/116 445/6/116 446/6/116
f 447/6/109 448/6/109 449/6/109
f 450/6/117 451/6/117 452/6/117
f 429/6/9 436/6/9 435/6/9
f 432/6/10 431/6/10 430/6/10
f 438/6/11 434/6/11 433/6/11
f 437/6/12 440/6/12 439/6/12
f 435/6/13 448/6/13 447/6/13
f 450/6/14 439/6/14 438/6/14
f 449/6/15 452/6/15 451/6/15
f 447/6/16 442/6/16 441/6/16
f 444/6/17 451/6/17 450/6/17
f 443/6/18 446/6/18 445/6/18
f 441/6/19 430/6/19 429/6/19
f 433/6/20 445/6/20 444/6/20
f 447/6/21 429/6/21 435/6/21
f 434/6/22 436/6/22 431/6/22
f 445/6/23 430/6/23 443/6/23
f 438/6/24 444/6/24 450/6/24
f 439/6/25 448/6/25 437/6/25
f 451/6/26 442/6/26 449/6/26
f 1/1/9 3/1/9 8/1/9
f 4/1/10 6/1/10 3/1/10
f 10/1/11 12/1/11 6/1/11
f 9/1/12 8/1/12 12/1/12
f 7/1/13 9/1/13 20/1/13
f 22/1/14 24/1/14 11/1/14
f 21/1/15 20/1/15 24/1/15
f 19/1/16 21/1/16 14/1/16
f 16/1/17 18/1/17 23/1/17
f 15/1/18 14/1/18 18/1/18
f 13/1/19 15/1/19 2/1/19
f 5/1/20 4/1/20 17/1/20
f 19/1/21 13/1/21 1/1/21
f 6/1/22 12/1/22 8/1/22
f 17/1/23 4/1/23 2/1/23
f 10/1/24 5/1/24 16/1/24
f 11/1/25 24/1/25 20/1/25
f 23/1/26 18/1/26 14/1/26
f 26/2/22 28/2/22 27/2/22
f 28/2/25 32/2/25 31/2/25
f 32/2/26 30/2/26 29/2/26
f 30/2/23 26/2/23 25/2/23
f 31/2/21 29/2/21 25/2/21
f 28/2/24 26/2/24 30/2/24
f 34/2/22 36/2/22 35/2/22
f 36/2/25 40/2/25 39/2/25
f 40/2/26 38/2/26 37/2/26
f 38/2/23 34/2/23 33/2/23
f 39/2/21 37/2/21 33/2/21
f 36/2/24 34/2/24 38/2/24
f 42/2/22 44/2/22 43/2/22
f 44/2/25 48/2/25 47/2/25
f 48/2/26 46/2/26 45/2/26
f 46/2/23 42/2/23 41/2/23
f 47/2/21 45/2/21 41/2/21
f 44/2/24 42/2/24 46/2/24
f 49/3/9 51/3/9 56/3/9
f 52/3/10 54/3/10 51/3/10
f 58/3/11 60/3/11 54/3/11
f 57/3/12 56/3/12 60/3/12
f 55/3/13 57/3/13 68/3/13
f 70/3/14 72/3/14 59/3/14
f 69/3/15 68/3/15 72/3/15
f 67/3/16 69/3/16 62/3/16
f 64/3/17 66/3/17 71/3/17
f 63/3/18 62/3/18 66/3/18
f 61/3/19 63/3/19 50/3/19
f 53/3/20 52/3/20 65/3/20
f 67/3/21 61/3/21 49/3/21
f 54/3/22 60/3/22 56/3/22
f 65/3/23 52/3/23 50/3/23
f 58/3/24 53/3/24 64/3/24
f 59/3/25 72/3/25 68/3/25
f 71/3/26 66/3/26 62/3/26
f 75/4/35 79/4/35 80/4/35
f 74/4/38 78/4/38 79/4/38
f 78/4/41 81/4/41 82/4/41
f 79/4/42 82/4/42 83/4/42
f 82/4/43 85/4/43 86/4/43
f 81/4/46 84/4/46 85/4/46
f 85/4/47 88/4/47 89/4/47
f 84/4/50 87/4/50 88/4/50
f 89/4/51 88/4/51 91/4/51
f 87/4/54 90/4/54 91/4/54
f 92/4/55 91/4/55 75/4/55
f 91/4/58 90/4/58 74/4/58
f 95/5/35 99/5/35 100/5/35
f 94/5/38 98/5/38 99/5/38
f 99/5/42 102/5/42 103/5/42
f 98/5/41 101/5/41 102/5/41
f 102/5/43 105/5/43 106/5/43
f 101/5/46 104/5/46 105/5/46
f 105/5/47 108/5/47 109/5/47
f 104/5/50 107/5/50 108/5/50
f 107/5/54 110/5/54 111/5/54
f 109/5/51 108/5/51 111/5/51
f 110/5/58 94/5/58 95/5/58
f 111/5/55 95/5/55 96/5/55
f 114/5/38 118/5/38 119/5/38
f 115/5/35 119/5/35 120/5/35
f 119/5/42 122/5/42 123/5/42
f 119/5/41 118/5/41 121/5/41
f 123/5/43 122/5/43 125/5/43
f 121/5/46 124/5/46 125/5/46
f 124/5/50 127/5/50 128/5/50
f 126/5/47 125/5/47 128/5/47
f 127/5/54 130/5/54 131/5/54
f 128/5/51 131/5/51 132/5/51
f 131/5/58 130/5/58 114/5/58
f 131/5/55 115/5/55 116/5/55
f 134/4/38 138/4/38 139/4/38
f 135/4/35 139/4/35 140/4/35
f 138/4/41 141/4/41 142/4/41
f 139/4/42 142/4/42 143/4/42
f 141/4/46 144/4/46 145/4/46
f 142/4/43 145/4/43 146/4/43
f 144/4/50 147/4/50 148/4/50
f 146/4/47 145/4/47 148/4/47
f 147/4/54 150/4/54 151/4/54
f 148/4/51 151/4/51 152/4/51
f 150/4/58 134/4/58 135/4/58
f 151/4/55 135/4/55 136/4/55
f 154/5/38 158/5/38 159/5/38
f 155/5/35 159/5/35 160/5/35
f 158/5/41 161/5/41 162/5/41
f 159/5/42 162/5/42 163/5/42
f 161/5/46 164/5/46 165/5/46
f 162/5/43 165/5/43 166/5/43
f 164/5/50 167/5/50 168/5/50
f 166/5/47 165/5/47 168/5/47
f 167/5/54 170/5/54 171/5/54
f 169/5/51 168/5/51 171/5/51
f 171/5/55 155/5/55 156/5/55
f 170/5/58 154/5/58 155/5/58
f 175/5/35 179/5/35 180/5/35
f 175/5/38 174/5/38 178/5/38
f 178/5/41 181/5/41 182/5/41
f 179/5/42 182/5/42 183/5/42
f 183/5/43 182/5/43 185/5/43
f 181/5/46 184/5/46 185/5/46
f 185/5/47 188/5/47 189/5/47
f 184/5/50 187/5/50 188/5/50
f 188/5/51 191/5/51 192/5/51
f 187/5/54 190/5/54 191/5/54
f 192/5/55 191/5/55 175/5/55
f 190/5/58 174/5/58 175/5/58
f 195/4/35 199/4/35 200/4/35
f 194/4/38 198/4/38 199/4/38
f 200/4/42 199/4/42 202/4/42
f 198/4/41 201/4/41 202/4/41
f 202/4/43 205/4/43 206/4/43
f 201/4/46 204/4/46 205/4/46
f 205/4/47 208/4/47 209/4/47
f 204/4/50 207/4/50 208/4/50
f 208/4/51 211/4/51 212/4/51
f 207/4/54 210/4/54 211/4/54
f 212/4/55 211/4/55 195/4/55
f 211/4/58 210/4/58 194/4/58
f 214/5/38 218/5/38 219/5/38
f 216/5/35 215/5/35 219/5/35
f 220/5/42 219/5/42 222/5/42
f 218/5/41 221/5/41 222/5/41
f 222/5/43 225/5/43 226/5/43
f 221/5/46 224/5/46 225/5/46
f 225/5/50 224/5/50 227/5/50
f 225/5/47 228/5/47 229/5/47
f 227/5/54 230/5/54 231/5/54
f 228/5/51 231/5/51 232/5/51
f 230/5/58 214/5/58 215/5/58
f 231/5/55 215/5/55 216/5/55
f 235/5/35 239/5/35 240/5/35
f 234/5/38 238/5/38 239/5/38
f 238/5/41 241/5/41 242/5/41
f 239/5/42 242/5/42 243/5/42
f 242/5/43 245/5/43 246/5/43
f 242/5/46 241/5/46 244/5/46
f 245/5/47 248/5/47 249/5/47
f 244/5/50 247/5/50 248/5/50
f 248/5/51 251/5/51 252/5/51
f 247/5/54 250/5/54 251/5/54
f 251/5/55 235/5/55 236/5/55
f 250/5/58 234/5/58 235/5/58
f 254/6/59 256/6/59 255/6/59
f 256/6/118 258/6/118 257/6/118
f 254/6/24 260/6/24 258/6/24
f 258/6/61 260/6/61 259/6/61
f 260/6/119 254/6/119 253/6/119
f 255/6/21 257/6/21 259/6/21
f 261/6/9 263/6/9 268/6/9
f 264/6/10 266/6/10 263/6/10
f 270/6/11 272/6/11 266/6/11
f 269/6/12 268/6/12 272/6/12
f 267/6/13 269/6/13 280/6/13
f 282/6/14 284/6/14 271/6/14
f 281/6/15 280/6/15 284/6/15
f 279/6/16 281/6/16 274/6/16
f 276/6/17 278/6/17 283/6/17
f 275/6/18 274/6/18 278/6/18
f 273/6/19 275/6/19 262/6/19
f 265/6/20 264/6/20 277/6/20
f 279/6/21 273/6/21 261/6/21
f 266/6/22 272/6/22 268/6/22
f 277/6/23 264/6/23 262/6/23
f 270/6/24 265/6/24 276/6/24
f 271/6/25 284/6/25 280/6/25
f 283/6/26 278/6/26 274/6/26
f 285/6/9 287/6/9 292/6/9
f 288/6/10 290/6/10 287/6/10
f 294/6/11 296/6/11 290/6/11
f 293/6/12 292/6/12 296/6/12
f 291/6/13 293/6/13 304/6/13
f 306/6/14 308/6/14 295/6/14
f 305/6/15 304/6/15 308/6/15
f 303/6/16 305/6/16 298/6/16
f 300/6/17 302/6/17 307/6/17
f 299/6/18 298/6/18 302/6/18
f 297/6/19 299/6/19 286/6/19
f 289/6/20 288/6/20 301/6/20
f 303/6/21 297/6/21 285/6/21
f 290/6/22 296/6/22 292/6/22
f 301/6/23 288/6/23 286/6/23
f 294/6/24 289/6/24 300/6/24
f 295/6/25 308/6/25 304/6/25
f 307/6/26 302/6/26 298/6/26
f 309/6/9 311/6/9 316/6/9
f 312/6/10 314/6/10 311/6/10
f 318/6/11 320/6/11 314/6/11
f 317/6/12 316/6/12 320/6/12
f 315/6/13 317/6/13 328/6/13
f 330/6/14 332/6/14 319/6/14
f 329/6/15 328/6/15 332/6/15
f 327/6/16 329/6/16 322/6/16
f 324/6/17 326/6/17 331/6/17
f 323/6/18 322/6/18 326/6/18
f 321/6/19 323/6/19 310/6/19
f 313/6/20 312/6/20 325/6/20
f 327/6/21 321/6/21 309/6/21
f 314/6/22 320/6/22 316/6/22
f 325/6/23 312/6/23 310/6/23
f 318/6/24 313/6/24 324/6/24
f 319/6/25 332/6/25 328/6/25
f 331/6/26 326/6/26 322/6/26
f 333/7/83 335/7/83 340/7/83
f 334/7/84 336/7/84 338/7/84
f 342/7/85 344/7/85 338/7/85
f 343/7/86 341/7/86 340/7/86
f 351/7/87 339/7/87 341/7/87
f 354/7/88 356/7/88 343/7/88
f 353/7/89 352/7/89 356/7/89
f 351/7/90 353/7/90 346/7/90
f 348/7/91 350/7/91 355/7/91
f 349/7/92 347/7/92 346/7/92
f 333/7/93 345/7/93 347/7/93
f 337/7/94 336/7/94 349/7/94
f 351/7/95 345/7/95 333/7/95
f 338/7/96 344/7/96 340/7/96
f 349/7/23 336/7/23 334/7/23
f 342/7/97 337/7/97 348/7/97
f 343/7/25 356/7/25 352/7/25
f 355/7/98 350/7/98 346/7/98
f 357/8/83 359/8/83 364/8/83
f 360/8/84 362/8/84 359/8/84
f 366/8/85 368/8/85 362/8/85
f 367/8/86 365/8/86 364/8/86
f 363/8/87 365/8/87 376/8/87
f 378/8/88 380/8/88 367/8/88
f 377/8/89 376/8/89 380/8/89
f 375/8/90 377/8/90 370/8/90
f 372/8/91 374/8/91 379/8/91
f 373/8/92 371/8/92 370/8/92
f 369/8/93 371/8/93 358/8/93
f 361/8/94 360/8/94 373/8/94
f 375/8/95 369/8/95 357/8/95
f 362/8/96 368/8/96 364/8/96
f 371/8/23 373/8/23 360/8/23
f 366/8/97 361/8/97 372/8/97
f 367/8/25 380/8/25 376/8/25
f 379/8/98 374/8/98 370/8/98
f 381/9/9 383/9/9 388/9/9
f 384/9/10 386/9/10 383/9/10
f 390/9/11 392/9/11 386/9/11
f 389/9/12 388/9/12 392/9/12
f 387/9/13 389/9/13 400/9/13
f 402/9/14 404/9/14 391/9/14
f 401/9/15 400/9/15 404/9/15
f 399/9/16 401/9/16 394/9/16
f 396/9/17 398/9/17 403/9/17
f 395/9/18 394/9/18 398/9/18
f 393/9/19 395/9/19 382/9/19
f 385/9/20 384/9/20 397/9/20
f 399/9/21 393/9/21 381/9/21
f 386/9/22 392/9/22 388/9/22
f 397/9/23 384/9/23 382/9/23
f 390/9/24 385/9/24 396/9/24
f 391/9/25 404/9/25 400/9/25
f 403/9/26 398/9/26 394/9/26
f 405/10/9 407/10/9 412/10/9
f 408/10/10 410/10/10 407/10/10
f 414/10/11 416/10/11 410/10/11
f 413/10/12 412/10/12 416/10/12
f 411/10/13 413/10/13 424/10/13
f 426/10/14 428/10/14 415/10/14
f 425/10/15 424/10/15 428/10/15
f 423/10/16 425/10/16 418/10/16
f 420/10/17 422/10/17 427/10/17
f 419/10/18 418/10/18 422/10/18
f 417/10/19 419/10/19 406/10/19
f 409/10/20 408/10/20 421/10/20
f 423/10/21 417/10/21 405/10/21
f 410/10/22 416/10/22 412/10/22
f 421/10/23 408/10/23 406/10/23
f 414/10/24 409/10/24 420/10/24
f 415/10/25 428/10/25 424/10/25
f 427/10/26 422/10/26 418/10/26
f 429/6/9 431/6/9 436/6/9
f 432/6/10 434/6/10 431/6/10
f 438/6/11 440/6/11 434/6/11
f 437/6/12 436/6/12 440/6/12
f 435/6/13 437/6/13 448/6/13
f 450/6/14 452/6/14 439/6/14
f 449/6/15 448/6/15 452/6/15
f 447/6/16 449/6/16 442/6/16
f 444/6/17 446/6/17 451/6/17
f 443/6/18 442/6/18 446/6/18
f 441/6/19 443/6/19 430/6/19
f 433/6/20 432/6/20 445/6/20
f 447/6/21 441/6/21 429/6/21
f 434/6/22 440/6/22 436/6/22
f 445/6/23 432/6/23 430/6/23
f 438/6/24 433/6/24 444/6/24
f 439/6/25 452/6/25 448/6/25
f 451/6/26 446/6/26 442/6/26
