# Blender 5.1.1
# www.blender.org
o tv
v -0.685000 -0.250000 0.235000
v -0.685000 -0.235000 0.250000
v -0.700000 -0.235000 0.235000
v -0.685000 0.235000 0.250000
v -0.685000 0.250000 0.235000
v -0.700000 0.235000 0.235000
v -0.685000 -0.250000 -0.235000
v -0.700000 -0.235000 -0.235000
v -0.685000 -0.235000 -0.250000
v -0.685000 0.250000 -0.235000
v -0.685000 0.235000 -0.250000
v -0.700000 0.235000 -0.235000
v 0.685000 -0.250000 0.235000
v 0.700000 -0.235000 0.235000
v 0.685000 -0.235000 0.250000
v 0.685000 0.250000 0.235000
v 0.685000 0.235000 0.250000
v 0.700000 0.235000 0.235000
v 0.685000 -0.250000 -0.235000
v 0.685000 -0.235000 -0.250000
v 0.700000 -0.235000 -0.235000
v 0.685000 0.250000 -0.235000
v 0.700000 0.235000 -0.235000
v 0.685000 0.235000 -0.250000
v -0.634000 -0.180000 0.264000
v -0.634000 -0.174000 0.270000
v -0.640000 -0.174000 0.264000
v -0.634000 0.174000 0.270000
v -0.634000 0.180000 0.264000
v -0.640000 0.174000 0.264000
v -0.634000 -0.180000 0.256000
v -0.640000 -0.174000 0.256000
v -0.634000 -0.174000 0.250000
v -0.634000 0.180000 0.256000
v -0.634000 0.174000 0.250000
v -0.640000 0.174000 0.256000
v -0.046000 -0.180000 0.264000
v -0.040000 -0.174000 0.264000
v -0.046000 -0.174000 0.270000
v -0.046000 0.180000 0.264000
v -0.046000 0.174000 0.270000
v -0.040000 0.174000 0.264000
v -0.046000 -0.180000 0.256000
v -0.046000 -0.174000 0.250000
v -0.040000 -0.174000 0.256000
v -0.046000 0.180000 0.256000
v -0.040000 0.174000 0.256000
v -0.046000 0.174000 0.250000
v -0.144000 0.010000 0.279000
v -0.144000 0.016000 0.285000
v -0.150000 0.016000 0.279000
v -0.144000 0.034000 0.285000
v -0.144000 0.040000 0.279000
v -0.150000 0.034000 0.279000
v -0.144000 0.010000 0.271000
v -0.150000 0.016000 0.271000
v -0.144000 0.016000 0.265000
v -0.144000 0.040000 0.271000
v -0.144000 0.034000 0.265000
v -0.150000 0.034000 0.271000
v -0.096000 0.010000 0.279000
v -0.090000 0.016000 0.279000
v -0.096000 0.016000 0.285000
v -0.096000 0.040000 0.279000
v -0.096000 0.034000 0.285000
v -0.090000 0.034000 0.279000
v -0.096000 0.010000 0.271000
v -0.096000 0.016000 0.265000
v -0.090000 0.016000 0.271000
v -0.096000 0.040000 0.271000
v -0.090000 0.034000 0.271000
v -0.096000 0.034000 0.265000
v 0.046000 -0.180000 0.264000
v 0.046000 -0.174000 0.270000
v 0.040000 -0.174000 0.264000
v 0.046000 0.174000 0.270000
v 0.046000 0.180000 0.264000
v 0.040000 0.174000 0.264000
v 0.046000 -0.180000 0.256000
v 0.040000 -0.174000 0.256000
v 0.046000 -0.174000 0.250000
v 0.046000 0.180000 0.256000
v 0.046000 0.174000 0.250000
v 0.040000 0.174000 0.256000
v 0.634000 -0.180000 0.264000
v 0.640000 -0.174000 0.264000
v 0.634000 -0.174000 0.270000
v 0.634000 0.180000 0.264000
v 0.634000 0.174000 0.270000
v 0.640000 0.174000 0.264000
v 0.634000 -0.180000 0.256000
v 0.634000 -0.174000 0.250000
v 0.640000 -0.174000 0.256000
v 0.634000 0.180000 0.256000
v 0.640000 0.174000 0.256000
v 0.634000 0.174000 0.250000
v 0.096000 0.010000 0.279000
v 0.096000 0.016000 0.285000
v 0.090000 0.016000 0.279000
v 0.096000 0.034000 0.285000
v 0.096000 0.040000 0.279000
v 0.090000 0.034000 0.279000
v 0.096000 0.010000 0.271000
v 0.090000 0.016000 0.271000
v 0.096000 0.016000 0.265000
v 0.096000 0.040000 0.271000
v 0.096000 0.034000 0.265000
v 0.090000 0.034000 0.271000
v 0.144000 0.010000 0.279000
v 0.150000 0.016000 0.279000
v 0.144000 0.016000 0.285000
v 0.144000 0.040000 0.279000
v 0.144000 0.034000 0.285000
v 0.150000 0.034000 0.279000
v 0.144000 0.010000 0.271000
v 0.144000 0.016000 0.265000
v 0.150000 0.016000 0.271000
v 0.144000 0.040000 0.271000
v 0.150000 0.034000 0.271000
v 0.144000 0.034000 0.265000
v -0.340000 0.250000 0.215000
v -0.340000 0.300000 0.265000
v -0.390000 0.300000 0.215000
v -0.340000 0.760000 0.265000
v -0.340000 0.810000 0.215000
v -0.390000 0.760000 0.215000
v -0.340000 0.250000 -0.235000
v -0.390000 0.300000 -0.235000
v -0.340000 0.300000 -0.285000
v -0.340000 0.810000 -0.235000
v -0.340000 0.760000 -0.285000
v -0.390000 0.760000 -0.235000
v 0.340000 0.250000 0.215000
v 0.390000 0.300000 0.215000
v 0.340000 0.300000 0.265000
v 0.340000 0.810000 0.215000
v 0.340000 0.760000 0.265000
v 0.390000 0.760000 0.215000
v 0.340000 0.250000 -0.235000
v 0.340000 0.300000 -0.285000
v 0.390000 0.300000 -0.235000
v 0.340000 0.810000 -0.235000
v 0.390000 0.760000 -0.235000
v 0.340000 0.760000 -0.285000
v -0.388000 0.240000 0.268000
v -0.388000 0.252000 0.280000
v -0.400000 0.252000 0.268000
v -0.388000 0.808000 0.280000
v -0.388000 0.820000 0.268000
v -0.400000 0.808000 0.268000
v -0.388000 0.240000 0.252000
v -0.400000 0.252000 0.252000
v -0.388000 0.252000 0.240000
v -0.388000 0.820000 0.252000
v -0.388000 0.808000 0.240000
v -0.400000 0.808000 0.252000
v 0.388000 0.240000 0.268000
v 0.400000 0.252000 0.268000
v 0.388000 0.252000 0.280000
v 0.388000 0.820000 0.268000
v 0.388000 0.808000 0.280000
v 0.400000 0.808000 0.268000
v 0.388000 0.240000 0.252000
v 0.388000 0.252000 0.240000
v 0.400000 0.252000 0.252000
v 0.388000 0.820000 0.252000
v 0.400000 0.808000 0.252000
v 0.388000 0.808000 0.240000
v -0.334000 0.320000 0.289000
v -0.334000 0.326000 0.295000
v -0.340000 0.326000 0.289000
v -0.334000 0.734000 0.295000
v -0.334000 0.740000 0.289000
v -0.340000 0.734000 0.289000
v -0.334000 0.320000 0.281000
v -0.340000 0.326000 0.281000
v -0.334000 0.326000 0.275000
v -0.334000 0.740000 0.281000
v -0.334000 0.734000 0.275000
v -0.340000 0.734000 0.281000
v 0.214000 0.320000 0.289000
v 0.220000 0.326000 0.289000
v 0.214000 0.326000 0.295000
v 0.214000 0.740000 0.289000
v 0.214000 0.734000 0.295000
v 0.220000 0.734000 0.289000
v 0.214000 0.320000 0.281000
v 0.214000 0.326000 0.275000
v 0.220000 0.326000 0.281000
v 0.214000 0.740000 0.281000
v 0.220000 0.734000 0.281000
v 0.214000 0.734000 0.275000
v -0.297000 0.360000 0.297000
v -0.297000 0.363000 0.300000
v -0.300000 0.363000 0.297000
v -0.297000 0.697000 0.300000
v -0.297000 0.700000 0.297000
v -0.300000 0.697000 0.297000
v -0.297000 0.360000 0.293000
v -0.300000 0.363000 0.293000
v -0.297000 0.363000 0.290000
v -0.297000 0.700000 0.293000
v -0.297000 0.697000 0.290000
v -0.300000 0.697000 0.293000
v 0.177000 0.360000 0.297000
v 0.180000 0.363000 0.297000
v 0.177000 0.363000 0.300000
v 0.177000 0.700000 0.297000
v 0.177000 0.697000 0.300000
v 0.180000 0.697000 0.297000
v 0.177000 0.360000 0.293000
v 0.177000 0.363000 0.290000
v 0.180000 0.363000 0.293000
v 0.177000 0.700000 0.293000
v 0.180000 0.697000 0.293000
v 0.177000 0.697000 0.290000
v 0.300000 0.405000 0.290000
v 0.300000 0.405000 0.320000
v 0.324749 0.394749 0.290000
v 0.324749 0.394749 0.320000
v 0.335000 0.370000 0.290000
v 0.335000 0.370000 0.320000
v 0.324749 0.345251 0.290000
v 0.324749 0.345251 0.320000
v 0.300000 0.335000 0.290000
v 0.300000 0.335000 0.320000
v 0.275251 0.345251 0.290000
v 0.275251 0.345251 0.320000
v 0.265000 0.370000 0.290000
v 0.265000 0.370000 0.320000
v 0.275251 0.394749 0.290000
v 0.275251 0.394749 0.320000
v 0.300000 0.535000 0.290000
v 0.300000 0.535000 0.320000
v 0.324749 0.524749 0.290000
v 0.324749 0.524749 0.320000
v 0.335000 0.500000 0.290000
v 0.335000 0.500000 0.320000
v 0.324749 0.475251 0.290000
v 0.324749 0.475251 0.320000
v 0.300000 0.465000 0.290000
v 0.300000 0.465000 0.320000
v 0.275251 0.475251 0.290000
v 0.275251 0.475251 0.320000
v 0.265000 0.500000 0.290000
v 0.265000 0.500000 0.320000
v 0.275251 0.524749 0.290000
v 0.275251 0.524749 0.320000
v 0.000000 0.810000 -0.060000
v 0.000000 0.840000 -0.060000
v 0.035355 0.810000 -0.045355
v 0.035355 0.840000 -0.045355
v 0.050000 0.810000 -0.010000
v 0.050000 0.840000 -0.010000
v 0.035355 0.810000 0.025355
v 0.035355 0.840000 0.025355
v 0.000000 0.810000 0.040000
v 0.000000 0.840000 0.040000
v -0.035355 0.810000 0.025355
v -0.035355 0.840000 0.025355
v -0.050000 0.810000 -0.010000
v -0.050000 0.840000 -0.010000
v -0.035355 0.810000 -0.045355
v -0.035355 0.840000 -0.045355
v -0.000000 0.830000 -0.018000
v -0.195734 1.235201 -0.018000
v 0.006851 0.833309 -0.012472
v -0.188883 1.238511 -0.012472
v 0.004234 0.832045 -0.003528
v -0.191500 1.237247 -0.003528
v -0.004234 0.827955 -0.003528
v -0.199969 1.233156 -0.003528
v -0.006851 0.826691 -0.012472
v -0.202585 1.231892 -0.012472
v 0.000000 0.830000 -0.018000
v 0.195734 1.235201 -0.018000
v 0.006851 0.826691 -0.012472
v 0.202585 1.231892 -0.012472
v 0.004234 0.827955 -0.003528
v 0.199969 1.233156 -0.003528
v -0.004234 0.832045 -0.003528
v 0.191500 1.237247 -0.003528
v -0.006851 0.833309 -0.012472
v 0.188883 1.238511 -0.012472
v 0.550000 0.250000 -0.060000
v 0.550000 0.430000 -0.060000
v 0.592426 0.250000 -0.042426
v 0.592426 0.430000 -0.042426
v 0.610000 0.250000 0.000000
v 0.610000 0.430000 0.000000
v 0.592426 0.250000 0.042426
v 0.592426 0.430000 0.042426
v 0.550000 0.250000 0.060000
v 0.550000 0.430000 0.060000
v 0.507574 0.250000 0.042426
v 0.507574 0.430000 0.042426
v 0.490000 0.250000 0.000000
v 0.490000 0.430000 0.000000
v 0.507574 0.250000 -0.042426
v 0.507574 0.430000 -0.042426
v 0.550000 0.410000 0.000000
v 0.580000 0.385852 -0.070717
v 0.550000 0.319657 -0.132054
v 0.520000 0.385852 -0.070717
v 0.520000 0.382551 -0.068458
v 0.550000 0.316356 -0.129795
v 0.580000 0.382551 -0.068458
v 0.550000 0.406699 0.002259
v 0.600000 0.585000 0.000000
v 0.600000 0.515000 0.000000
v 0.610286 0.580311 -0.014158
v 0.617816 0.567500 -0.024522
v 0.620573 0.550000 -0.028316
v 0.617816 0.532500 -0.024522
v 0.610286 0.519689 -0.014158
v 0.616643 0.580311 -0.005408
v 0.628827 0.567500 -0.009367
v 0.633287 0.550000 -0.010816
v 0.628827 0.532500 -0.009367
v 0.616643 0.519689 -0.005408
v 0.616643 0.580311 0.005408
v 0.628827 0.567500 0.009367
v 0.633287 0.550000 0.010816
v 0.628827 0.532500 0.009367
v 0.616643 0.519689 0.005408
v 0.610286 0.580311 0.014158
v 0.617816 0.567500 0.024522
v 0.620573 0.550000 0.028316
v 0.617816 0.532500 0.024522
v 0.610286 0.519689 0.014158
v 0.600000 0.580311 0.017500
v 0.600000 0.567500 0.030311
v 0.600000 0.550000 0.035000
v 0.600000 0.532500 0.030311
v 0.600000 0.519689 0.017500
v 0.589714 0.580311 0.014158
v 0.582184 0.567500 0.024522
v 0.579428 0.550000 0.028316
v 0.582184 0.532500 0.024522
v 0.589714 0.519689 0.014158
v 0.583357 0.580311 0.005408
v 0.571173 0.567500 0.009367
v 0.566713 0.550000 0.010816
v 0.571173 0.532500 0.009367
v 0.583357 0.519689 0.005408
v 0.583357 0.580311 -0.005408
v 0.571173 0.567500 -0.009367
v 0.566713 0.550000 -0.010816
v 0.571173 0.532500 -0.009367
v 0.583357 0.519689 -0.005408
v 0.589714 0.580311 -0.014158
v 0.582184 0.567500 -0.024522
v 0.579428 0.550000 -0.028316
v 0.582184 0.532500 -0.024522
v 0.589714 0.519689 -0.014158
v 0.600000 0.580311 -0.017500
v 0.600000 0.567500 -0.030311
v 0.600000 0.550000 -0.035000
v 0.600000 0.532500 -0.030311
v 0.600000 0.519689 -0.017500
v 0.550000 0.410000 0.000000
v 0.473811 0.385852 0.009805
v 0.436010 0.319657 0.066667
v 0.504102 0.385852 0.061597
v 0.506051 0.382551 0.060457
v 0.437960 0.316356 0.065527
v 0.475761 0.382551 0.008665
v 0.551950 0.406699 -0.001140
v 0.524758 0.585000 -0.043160
v 0.524758 0.515000 -0.043160
v 0.535044 0.580311 -0.057318
v 0.542574 0.567500 -0.067682
v 0.545330 0.550000 -0.071476
v 0.542574 0.532500 -0.067682
v 0.535044 0.519689 -0.057318
v 0.541401 0.580311 -0.048568
v 0.553585 0.567500 -0.052527
v 0.558045 0.550000 -0.053976
v 0.553585 0.532500 -0.052527
v 0.541401 0.519689 -0.048568
v 0.541401 0.580311 -0.037753
v 0.553585 0.567500 -0.033794
v 0.558045 0.550000 -0.032345
v 0.553585 0.532500 -0.033794
v 0.541401 0.519689 -0.037753
v 0.535044 0.580311 -0.029003
v 0.542574 0.567500 -0.018638
v 0.545330 0.550000 -0.014845
v 0.542574 0.532500 -0.018638
v 0.535044 0.519689 -0.029003
v 0.524758 0.580311 -0.025660
v 0.524758 0.567500 -0.012850
v 0.524758 0.550000 -0.008160
v 0.524758 0.532500 -0.012850
v 0.524758 0.519689 -0.025660
v 0.514471 0.580311 -0.029003
v 0.506941 0.567500 -0.018638
v 0.504185 0.550000 -0.014845
v 0.506941 0.532500 -0.018638
v 0.514471 0.519689 -0.029003
v 0.508114 0.580311 -0.037753
v 0.495930 0.567500 -0.033794
v 0.491471 0.550000 -0.032345
v 0.495930 0.532500 -0.033794
v 0.508114 0.519689 -0.037753
v 0.508114 0.580311 -0.048568
v 0.495930 0.567500 -0.052527
v 0.491471 0.550000 -0.053976
v 0.495930 0.532500 -0.052527
v 0.508114 0.519689 -0.048568
v 0.514471 0.580311 -0.057318
v 0.506941 0.567500 -0.067682
v 0.504185 0.550000 -0.071476
v 0.506941 0.532500 -0.067682
v 0.514471 0.519689 -0.057318
v 0.524758 0.580311 -0.060660
v 0.524758 0.567500 -0.073471
v 0.524758 0.550000 -0.078160
v 0.524758 0.532500 -0.073471
v 0.524758 0.519689 -0.060660
v 0.550000 0.410000 0.000000
v 0.596927 0.385852 0.060817
v 0.665095 0.319657 0.064741
v 0.626343 0.385852 0.008523
v 0.624375 0.382551 0.007415
v 0.663126 0.316356 0.063633
v 0.594959 0.382551 0.059710
v 0.548032 0.406699 -0.001107
v 0.525487 0.585000 0.043579
v 0.525487 0.515000 0.043579
v 0.535773 0.580311 0.029421
v 0.543303 0.567500 0.019057
v 0.546059 0.550000 0.015263
v 0.543303 0.532500 0.019057
v 0.535773 0.519689 0.029421
v 0.542130 0.580311 0.038171
v 0.554314 0.567500 0.034212
v 0.558774 0.550000 0.032763
v 0.554314 0.532500 0.034212
v 0.542130 0.519689 0.038171
v 0.542130 0.580311 0.048987
v 0.554314 0.567500 0.052945
v 0.558774 0.550000 0.054394
v 0.554314 0.532500 0.052945
v 0.542130 0.519689 0.048987
v 0.535773 0.580311 0.057737
v 0.543303 0.567500 0.068101
v 0.546059 0.550000 0.071894
v 0.543303 0.532500 0.068101
v 0.535773 0.519689 0.057737
v 0.525487 0.580311 0.061079
v 0.525487 0.567500 0.073890
v 0.525487 0.550000 0.078579
v 0.525487 0.532500 0.073890
v 0.525487 0.519689 0.061079
v 0.515201 0.580311 0.057737
v 0.507671 0.567500 0.068101
v 0.504914 0.550000 0.071894
v 0.507671 0.532500 0.068101
v 0.515201 0.519689 0.057737
v 0.508843 0.580311 0.048987
v 0.496660 0.567500 0.052945
v 0.492200 0.550000 0.054394
v 0.496660 0.532500 0.052945
v 0.508843 0.519689 0.048987
v 0.508843 0.580311 0.038171
v 0.496660 0.567500 0.034212
v 0.492200 0.550000 0.032763
v 0.496660 0.532500 0.034212
v 0.508843 0.519689 0.038171
v 0.515201 0.580311 0.029421
v 0.507671 0.567500 0.019057
v 0.504914 0.550000 0.015263
v 0.507671 0.532500 0.019057
v 0.515201 0.519689 0.029421
v 0.525487 0.580311 0.026079
v 0.525487 0.567500 0.013268
v 0.525487 0.550000 0.008579
v 0.525487 0.532500 0.013268
v 0.525487 0.519689 0.026079
vn -0.5774 -0.5773 0.5773
vn -0.5774 0.5773 0.5773
vn -0.5774 -0.5773 -0.5773
vn -0.5774 0.5773 -0.5773
vn 0.5774 -0.5773 0.5773
vn 0.5774 0.5773 0.5773
vn 0.5774 -0.5773 -0.5773
vn 0.5774 0.5773 -0.5773
vn -0.7071 -0.7071 -0.0000
vn -0.7071 -0.0000 0.7071
vn -0.7071 0.7071 -0.0000
vn -0.7071 -0.0000 -0.7071
vn -0.0000 -0.7071 -0.7071
vn -0.0000 0.7071 -0.7071
vn 0.7071 -0.0000 -0.7071
vn 0.7071 -0.7071 -0.0000
vn 0.7071 0.7071 -0.0000
vn 0.7071 -0.0000 0.7071
vn -0.0000 -0.7071 0.7071
vn -0.0000 0.7071 0.7071
vn -0.0000 -1.0000 -0.0000
vn -1.0000 -0.0000 -0.0000
vn -0.0000 -0.0000 1.0000
vn -0.0000 1.0000 -0.0000
vn -0.0000 -0.0000 -1.0000
vn 1.0000 -0.0000 -0.0000
vn 0.5774 -0.5774 0.5774
vn 0.5774 0.5774 0.5774
vn 0.5774 -0.5773 -0.5774
vn 0.5774 0.5773 -0.5774
vn -0.5774 -0.5773 0.5774
vn -0.5774 0.5773 0.5774
vn -0.5774 -0.5773 -0.5774
vn -0.5774 0.5773 -0.5774
vn 0.5773 -0.5773 0.5774
vn 0.5774 0.5773 0.5774
vn 0.5773 -0.5773 -0.5774
vn -0.5774 -0.5774 0.5774
vn -0.5774 0.5774 0.5774
vn -0.5773 -0.5773 0.5774
vn -0.5773 -0.5773 -0.5774
vn 0.5774 -0.5773 0.5774
vn -0.5774 -0.5774 0.5773
vn -0.5773 -0.5774 -0.5774
vn -0.5773 0.5774 -0.5774
vn 0.5774 -0.5774 0.5773
vn 0.5773 -0.5774 -0.5774
vn 0.5773 0.5774 -0.5774
vn -0.5774 0.5774 0.5773
vn -0.5774 -0.5774 -0.5773
vn -0.5774 0.5774 -0.5773
vn 0.5774 0.5774 0.5773
vn 0.5774 -0.5774 -0.5773
vn 0.5774 0.5774 -0.5773
vn -0.5773 0.5773 0.5774
vn -0.5773 0.5773 -0.5774
vn 0.5773 0.5773 0.5774
vn 0.5773 0.5773 -0.5774
vn 0.3827 0.9239 -0.0000
vn 0.9239 0.3827 -0.0000
vn 0.9239 -0.3827 -0.0000
vn 0.3827 -0.9239 -0.0000
vn -0.3827 -0.9239 -0.0000
vn -0.9239 -0.3827 -0.0000
vn -0.9239 0.3827 -0.0000
vn -0.3827 0.9239 -0.0000
vn 0.3827 -0.0000 -0.9239
vn 0.9239 -0.0000 -0.3827
vn 0.9239 -0.0000 0.3827
vn 0.3827 -0.0000 0.9239
vn -0.3827 -0.0000 0.9239
vn -0.9239 -0.0000 0.3827
vn -0.9239 -0.0000 -0.3827
vn -0.3827 -0.0000 -0.9239
vn 0.5293 0.2557 -0.8090
vn 0.8564 0.4137 0.3090
vn -0.4350 0.9004 -0.0000
vn -0.8564 -0.4137 0.3090
vn -0.5293 -0.2557 -0.8090
vn 0.4350 -0.9004 -0.0000
vn 0.5293 -0.2557 -0.8090
vn 0.8564 -0.4137 0.3090
vn 0.4350 0.9004 -0.0000
vn -0.8564 0.4137 0.3090
vn -0.5293 0.2557 -0.8090
vn -0.4350 -0.9004 -0.0000
vn -0.0000 0.9463 -0.3231
vn -0.0000 -0.9463 0.3231
vn 0.0838 -0.9625 -0.2579
vn 0.2994 -0.2469 -0.9216
vn 0.2239 0.6892 -0.6892
vn 0.2239 -0.6892 -0.6892
vn 0.2994 0.2469 -0.9216
vn 0.0838 0.9625 -0.2579
vn 0.5862 -0.6892 -0.4259
vn 0.7840 0.2469 -0.5696
vn 0.2194 0.9625 -0.1594
vn 0.2194 -0.9625 -0.1594
vn 0.7840 -0.2469 -0.5696
vn 0.5862 0.6891 -0.4259
vn 0.7246 -0.6892 -0.0000
vn 0.9690 0.2469 -0.0000
vn 0.2712 0.9625 -0.0000
vn 0.2712 -0.9625 -0.0000
vn 0.9690 -0.2469 -0.0000
vn 0.7246 0.6892 -0.0000
vn 0.5862 -0.6892 0.4259
vn 0.7840 0.2469 0.5696
vn 0.2194 0.9625 0.1594
vn 0.2194 -0.9625 0.1594
vn 0.7840 -0.2469 0.5696
vn 0.5862 0.6892 0.4259
vn 0.2239 -0.6892 0.6892
vn 0.2994 0.2469 0.9216
vn 0.0838 0.9625 0.2579
vn 0.0838 -0.9625 0.2579
vn 0.2994 -0.2469 0.9216
vn 0.2239 0.6892 0.6892
vn -0.2994 0.2469 0.9216
vn -0.0838 0.9625 0.2579
vn -0.0838 -0.9625 0.2579
vn -0.2994 -0.2469 0.9216
vn -0.2239 0.6892 0.6892
vn -0.2239 -0.6892 0.6891
vn -0.2194 0.9625 0.1594
vn -0.2194 -0.9625 0.1594
vn -0.7840 -0.2469 0.5696
vn -0.5862 0.6892 0.4259
vn -0.5862 -0.6892 0.4259
vn -0.7840 0.2469 0.5696
vn -0.2712 -0.9625 -0.0000
vn -0.9690 -0.2469 -0.0000
vn -0.7246 0.6892 -0.0000
vn -0.7246 -0.6892 -0.0000
vn -0.9690 0.2469 -0.0000
vn -0.2712 0.9625 -0.0000
vn -0.2194 -0.9625 -0.1594
vn -0.7840 -0.2469 -0.5696
vn -0.5862 0.6892 -0.4259
vn -0.5862 -0.6892 -0.4259
vn -0.7840 0.2469 -0.5696
vn -0.2194 0.9625 -0.1594
vn -0.0838 -0.9625 -0.2579
vn -0.2994 -0.2469 -0.9216
vn -0.2239 0.6892 -0.6892
vn -0.2239 -0.6891 -0.6892
vn -0.2994 0.2469 -0.9216
vn -0.0838 0.9625 -0.2579
vn -0.2789 0.9463 0.1631
vn 0.2789 -0.9463 -0.1631
vn 0.5862 0.6892 -0.4259
vn -0.2239 -0.6892 0.6892
vn -0.5862 0.6891 0.4259
vn -0.2239 -0.6892 -0.6892
vn 0.2816 0.9463 0.1584
vn -0.2816 -0.9463 -0.1584
vn 0.5862 -0.6891 0.4259
vn -0.4350 0.9005 -0.0000
vn -0.4349 0.9005 -0.0000
vn 0.4349 0.9005 -0.0000
vn -0.0000 0.6797 -0.7335
vn -0.0000 -0.6797 0.7335
vn 0.7246 -0.6891 -0.0000
vn -0.6332 0.6797 0.3703
vn 0.6332 -0.6797 -0.3703
vn 0.2239 -0.6892 -0.6891
vn 0.6393 0.6797 0.3596
vn -0.6393 -0.6797 -0.3596
vn 0.2239 -0.6892 0.6891
vn -0.2239 0.6891 -0.6892
vt 0.093750 0.968750
vt 0.031250 0.968750
vt 0.906250 0.968750
vt 0.781250 0.968750
vt 0.968750 0.968750
vt 0.031250 0.906250
vt 0.843750 0.968750
vt 0.718750 0.906250
vt 0.531250 0.906250
vt 0.656250 0.843750
s 0
f 1/1/1 2/1/1 3/1/1
f 4/1/2 5/1/2 6/1/2
f 7/1/3 8/1/3 9/1/3
f 10/1/4 11/1/4 12/1/4
f 13/1/5 14/1/5 15/1/5
f 16/1/6 17/1/6 18/1/6
f 19/1/7 20/1/7 21/1/7
f 22/1/8 23/1/8 24/1/8
f 1/1/9 8/1/9 7/1/9
f 4/1/10 3/1/10 2/1/10
f 10/1/11 6/1/11 5/1/11
f 9/1/12 12/1/12 11/1/12
f 7/1/13 20/1/13 19/1/13
f 22/1/14 11/1/14 10/1/14
f 21/1/15 24/1/15 23/1/15
f 19/1/16 14/1/16 13/1/16
f 16/1/17 23/1/17 22/1/17
f 15/1/18 18/1/18 17/1/18
f 13/1/19 2/1/19 1/1/19
f 5/1/20 17/1/20 16/1/20
f 19/1/21 1/1/21 7/1/21
f 6/1/22 8/1/22 3/1/22
f 17/1/23 2/1/23 15/1/23
f 10/1/24 16/1/24 22/1/24
f 11/1/25 20/1/25 9/1/25
f 23/1/26 14/1/26 21/1/26
f 25/2/1 26/2/1 27/2/1
f 28/2/2 29/2/2 30/2/2
f 31/2/3 32/2/3 33/2/3
f 34/2/4 35/2/4 36/2/4
f 37/2/27 38/2/27 39/2/27
f 40/2/28 41/2/28 42/2/28
f 43/2/29 44/2/29 45/2/29
f 46/2/30 47/2/30 48/2/30
f 25/2/9 32/2/9 31/2/9
f 28/2/10 27/2/10 26/2/10
f 34/2/11 30/2/11 29/2/11
f 33/2/12 36/2/12 35/2/12
f 31/2/13 44/2/13 43/2/13
f 46/2/14 35/2/14 34/2/14
f 45/2/15 48/2/15 47/2/15
f 43/2/16 38/2/16 37/2/16
f 40/2/17 47/2/17 46/2/17
f 39/2/18 42/2/18 41/2/18
f 37/2/19 26/2/19 25/2/19
f 29/2/20 41/2/20 40/2/20
f 43/2/21 25/2/21 31/2/21
f 30/2/22 32/2/22 27/2/22
f 41/2/23 26/2/23 39/2/23
f 34/2/24 40/2/24 46/2/24
f 35/2/25 44/2/25 33/2/25
f 47/2/26 38/2/26 45/2/26
f 49/3/31 50/3/31 51/3/31
f 52/3/32 53/3/32 54/3/32
f 55/3/33 56/3/33 57/3/33
f 58/3/34 59/3/34 60/3/34
f 61/3/35 62/3/35 63/3/35
f 64/3/36 65/3/36 66/3/36
f 67/3/37 68/3/37 69/3/37
f 70/3/30 71/3/30 72/3/30
f 49/3/9 56/3/9 55/3/9
f 52/3/10 51/3/10 50/3/10
f 58/3/11 54/3/11 53/3/11
f 57/3/12 60/3/12 59/3/12
f 55/3/13 68/3/13 67/3/13
f 70/3/14 59/3/14 58/3/14
f 69/3/15 72/3/15 71/3/15
f 67/3/16 62/3/16 61/3/16
f 64/3/17 71/3/17 70/3/17
f 63/3/18 66/3/18 65/3/18
f 61/3/19 50/3/19 49/3/19
f 53/3/20 65/3/20 64/3/20
f 67/3/21 49/3/21 55/3/21
f 54/3/22 56/3/22 51/3/22
f 65/3/23 50/3/23 63/3/23
f 58/3/24 64/3/24 70/3/24
f 59/3/25 68/3/25 57/3/25
f 71/3/26 62/3/26 69/3/26
f 73/2/38 74/2/38 75/2/38
f 76/2/39 77/2/39 78/2/39
f 79/2/33 80/2/33 81/2/33
f 82/2/34 83/2/34 84/2/34
f 85/2/5 86/2/5 87/2/5
f 88/2/6 89/2/6 90/2/6
f 91/2/7 92/2/7 93/2/7
f 94/2/8 95/2/8 96/2/8
f 73/2/9 80/2/9 79/2/9
f 76/2/10 75/2/10 74/2/10
f 82/2/11 78/2/11 77/2/11
f 81/2/12 84/2/12 83/2/12
f 79/2/13 92/2/13 91/2/13
f 94/2/14 83/2/14 82/2/14
f 93/2/15 96/2/15 95/2/15
f 91/2/16 86/2/16 85/2/16
f 88/2/17 95/2/17 94/2/17
f 87/2/18 90/2/18 89/2/18
f 85/2/19 74/2/19 73/2/19
f 77/2/20 89/2/20 88/2/20
f 91/2/21 73/2/21 79/2/21
f 78/2/22 80/2/22 75/2/22
f 89/2/23 74/2/23 87/2/23
f 82/2/24 88/2/24 94/2/24
f 83/2/25 92/2/25 81/2/25
f 95/2/26 86/2/26 93/2/26
f 97/3/40 98/3/40 99/3/40
f 100/3/32 101/3/32 102/3/32
f 103/3/41 104/3/41 105/3/41
f 106/3/34 107/3/34 108/3/34
f 109/3/42 110/3/42 111/3/42
f 112/3/36 113/3/36 114/3/36
f 115/3/29 116/3/29 117/3/29
f 118/3/30 119/3/30 120/3/30
f 97/3/9 104/3/9 103/3/9
f 100/3/10 99/3/10 98/3/10
f 106/3/11 102/3/11 101/3/11
f 105/3/12 108/3/12 107/3/12
f 103/3/13 116/3/13 115/3/13
f 118/3/14 107/3/14 106/3/14
f 117/3/15 120/3/15 119/3/15
f 115/3/16 110/3/16 109/3/16
f 112/3/17 119/3/17 118/3/17
f 111/3/18 114/3/18 113/3/18
f 109/3/19 98/3/19 97/3/19
f 101/3/20 113/3/20 112/3/20
f 115/3/21 97/3/21 103/3/21
f 102/3/22 104/3/22 99/3/22
f 113/3/23 98/3/23 111/3/23
f 106/3/24 112/3/24 118/3/24
f 107/3/25 116/3/25 105/3/25
f 119/3/26 110/3/26 117/3/26
f 121/4/43 122/4/43 123/4/43
f 124/4/39 125/4/39 126/4/39
f 127/4/44 128/4/44 129/4/44
f 130/4/45 131/4/45 132/4/45
f 133/4/46 134/4/46 135/4/46
f 136/4/28 137/4/28 138/4/28
f 139/4/47 140/4/47 141/4/47
f 142/4/48 143/4/48 144/4/48
f 121/4/9 128/4/9 127/4/9
f 124/4/10 123/4/10 122/4/10
f 130/4/11 126/4/11 125/4/11
f 129/4/12 132/4/12 131/4/12
f 127/4/13 140/4/13 139/4/13
f 142/4/14 131/4/14 130/4/14
f 141/4/15 144/4/15 143/4/15
f 139/4/16 134/4/16 133/4/16
f 136/4/17 143/4/17 142/4/17
f 135/4/18 138/4/18 137/4/18
f 133/4/19 122/4/19 121/4/19
f 125/4/20 137/4/20 136/4/20
f 139/4/21 121/4/21 127/4/21
f 126/4/22 128/4/22 123/4/22
f 137/4/23 122/4/23 135/4/23
f 130/4/24 136/4/24 142/4/24
f 131/4/25 140/4/25 129/4/25
f 143/4/26 134/4/26 141/4/26
f 145/2/43 146/2/43 147/2/43
f 148/2/49 149/2/49 150/2/49
f 151/2/50 152/2/50 153/2/50
f 154/2/51 155/2/51 156/2/51
f 157/2/46 158/2/46 159/2/46
f 160/2/52 161/2/52 162/2/52
f 163/2/53 164/2/53 165/2/53
f 166/2/54 167/2/54 168/2/54
f 145/2/9 152/2/9 151/2/9
f 148/2/10 147/2/10 146/2/10
f 154/2/11 150/2/11 149/2/11
f 153/2/12 156/2/12 155/2/12
f 151/2/13 164/2/13 163/2/13
f 166/2/14 155/2/14 154/2/14
f 165/2/15 168/2/15 167/2/15
f 163/2/16 158/2/16 157/2/16
f 160/2/17 167/2/17 166/2/17
f 159/2/18 162/2/18 161/2/18
f 157/2/19 146/2/19 145/2/19
f 149/2/20 161/2/20 160/2/20
f 163/2/21 145/2/21 151/2/21
f 150/2/22 152/2/22 147/2/22
f 161/2/23 146/2/23 159/2/23
f 154/2/24 160/2/24 166/2/24
f 155/2/25 164/2/25 153/2/25
f 167/2/26 158/2/26 165/2/26
f 169/5/40 170/5/40 171/5/40
f 172/5/32 173/5/32 174/5/32
f 175/5/33 176/5/33 177/5/33
f 178/5/34 179/5/34 180/5/34
f 181/5/27 182/5/27 183/5/27
f 184/5/6 185/5/6 186/5/6
f 187/5/29 188/5/29 189/5/29
f 190/5/30 191/5/30 192/5/30
f 169/5/9 176/5/9 175/5/9
f 172/5/10 171/5/10 170/5/10
f 178/5/11 174/5/11 173/5/11
f 177/5/12 180/5/12 179/5/12
f 175/5/13 188/5/13 187/5/13
f 190/5/14 179/5/14 178/5/14
f 189/5/15 192/5/15 191/5/15
f 187/5/16 182/5/16 181/5/16
f 184/5/17 191/5/17 190/5/17
f 183/5/18 186/5/18 185/5/18
f 181/5/19 170/5/19 169/5/19
f 173/5/20 185/5/20 184/5/20
f 187/5/21 169/5/21 175/5/21
f 174/5/22 176/5/22 171/5/22
f 185/5/23 170/5/23 183/5/23
f 178/5/24 184/5/24 190/5/24
f 179/5/25 188/5/25 177/5/25
f 191/5/26 182/5/26 189/5/26
f 193/6/31 194/6/31 195/6/31
f 196/6/55 197/6/55 198/6/55
f 199/6/33 200/6/33 201/6/33
f 202/6/56 203/6/56 204/6/56
f 205/6/42 206/6/42 207/6/42
f 208/6/57 209/6/57 210/6/57
f 211/6/29 212/6/29 213/6/29
f 214/6/58 215/6/58 216/6/58
f 193/6/9 200/6/9 199/6/9
f 196/6/10 195/6/10 194/6/10
f 202/6/11 198/6/11 197/6/11
f 201/6/12 204/6/12 203/6/12
f 199/6/13 212/6/13 211/6/13
f 214/6/14 203/6/14 202/6/14
f 213/6/15 216/6/15 215/6/15
f 211/6/16 206/6/16 205/6/16
f 208/6/17 215/6/17 214/6/17
f 207/6/18 210/6/18 209/6/18
f 205/6/19 194/6/19 193/6/19
f 197/6/20 209/6/20 208/6/20
f 211/6/21 193/6/21 199/6/21
f 198/6/22 200/6/22 195/6/22
f 209/6/23 194/6/23 207/6/23
f 202/6/24 208/6/24 214/6/24
f 203/6/25 212/6/25 201/6/25
f 215/6/26 206/6/26 213/6/26
f 218/3/59 219/3/59 217/3/59
f 220/3/60 221/3/60 219/3/60
f 222/3/61 223/3/61 221/3/61
f 224/3/62 225/3/62 223/3/62
f 226/3/63 227/3/63 225/3/63
f 228/3/64 229/3/64 227/3/64
f 230/3/23 226/3/23 222/3/23
f 230/3/65 231/3/65 229/3/65
f 232/3/66 217/3/66 231/3/66
f 223/3/25 227/3/25 231/3/25
f 234/3/59 235/3/59 233/3/59
f 236/3/60 237/3/60 235/3/60
f 238/3/61 239/3/61 237/3/61
f 240/3/62 241/3/62 239/3/62
f 242/3/63 243/3/63 241/3/63
f 244/3/64 245/3/64 243/3/64
f 246/3/23 242/3/23 238/3/23
f 246/3/65 247/3/65 245/3/65
f 248/3/66 233/3/66 247/3/66
f 239/3/25 243/3/25 247/3/25
f 250/4/67 251/4/67 249/4/67
f 252/4/68 253/4/68 251/4/68
f 254/4/69 255/4/69 253/4/69
f 256/4/70 257/4/70 255/4/70
f 258/4/71 259/4/71 257/4/71
f 260/4/72 261/4/72 259/4/72
f 262/4/24 258/4/24 254/4/24
f 262/4/73 263/4/73 261/4/73
f 264/4/74 249/4/74 263/4/74
f 255/4/21 259/4/21 263/4/21
f 266/7/75 267/7/75 265/7/75
f 267/7/76 270/7/76 269/7/76
f 270/7/23 271/7/23 269/7/23
f 266/7/77 272/7/77 270/7/77
f 271/7/78 274/7/78 273/7/78
f 274/7/79 265/7/79 273/7/79
f 267/7/80 271/7/80 273/7/80
f 275/7/81 278/7/81 277/7/81
f 278/7/82 279/7/82 277/7/82
f 280/7/23 281/7/23 279/7/23
f 276/7/83 282/7/83 280/7/83
f 282/7/84 283/7/84 281/7/84
f 284/7/85 275/7/85 283/7/85
f 277/7/86 281/7/86 283/7/86
f 286/8/67 287/8/67 285/8/67
f 288/8/68 289/8/68 287/8/68
f 290/8/69 291/8/69 289/8/69
f 292/8/70 293/8/70 291/8/70
f 294/8/71 295/8/71 293/8/71
f 296/8/72 297/8/72 295/8/72
f 298/8/24 294/8/24 290/8/24
f 298/8/73 299/8/73 297/8/73
f 300/8/74 285/8/74 299/8/74
f 291/8/21 295/8/21 299/8/21
f 302/9/87 304/9/87 301/9/87
f 305/9/88 307/9/88 308/9/88
f 310/10/89 360/10/89 315/10/89
f 358/10/90 314/10/90 359/10/90
f 357/10/91 311/10/91 312/10/91
f 359/10/92 315/10/92 360/10/92
f 357/10/93 313/10/93 358/10/93
f 356/10/94 309/10/94 311/10/94
f 314/10/95 320/10/95 315/10/95
f 313/10/96 317/10/96 318/10/96
f 311/10/97 309/10/97 316/10/97
f 310/10/98 315/10/98 320/10/98
f 313/10/99 319/10/99 314/10/99
f 312/10/100 316/10/100 317/10/100
f 319/10/101 325/10/101 320/10/101
f 317/10/102 323/10/102 318/10/102
f 316/10/103 309/10/103 321/10/103
f 310/10/104 320/10/104 325/10/104
f 318/10/105 324/10/105 319/10/105
f 316/10/106 322/10/106 317/10/106
f 325/10/107 329/10/107 330/10/107
f 322/10/108 328/10/108 323/10/108
f 321/10/109 309/10/109 326/10/109
f 310/10/110 325/10/110 330/10/110
f 323/10/111 329/10/111 324/10/111
f 321/10/112 327/10/112 322/10/112
f 330/10/113 334/10/113 335/10/113
f 327/10/114 333/10/114 328/10/114
f 326/10/115 309/10/115 331/10/115
f 310/10/116 330/10/116 335/10/116
f 328/10/117 334/10/117 329/10/117
f 326/10/118 332/10/118 327/10/118
f 332/10/119 338/10/119 333/10/119
f 331/10/120 309/10/120 336/10/120
f 310/10/121 335/10/121 340/10/121
f 333/10/122 339/10/122 334/10/122
f 332/10/123 336/10/123 337/10/123
f 334/10/124 340/10/124 335/10/124
f 336/10/125 309/10/125 341/10/125
f 310/10/126 340/10/126 345/10/126
f 339/10/127 343/10/127 344/10/127
f 337/10/128 341/10/128 342/10/128
f 339/10/129 345/10/129 340/10/129
f 337/10/130 343/10/130 338/10/130
f 310/10/131 345/10/131 350/10/131
f 344/10/132 348/10/132 349/10/132
f 341/10/133 347/10/133 342/10/133
f 344/10/134 350/10/134 345/10/134
f 342/10/135 348/10/135 343/10/135
f 341/10/136 309/10/136 346/10/136
f 310/10/137 350/10/137 355/10/137
f 348/10/138 354/10/138 349/10/138
f 347/10/139 351/10/139 352/10/139
f 349/10/140 355/10/140 350/10/140
f 347/10/141 353/10/141 348/10/141
f 346/10/142 309/10/142 351/10/142
f 310/10/143 355/10/143 360/10/143
f 353/10/144 359/10/144 354/10/144
f 351/10/145 357/10/145 352/10/145
f 354/10/146 360/10/146 355/10/146
f 353/10/147 357/10/147 358/10/147
f 351/10/148 309/10/148 356/10/148
f 362/9/149 364/9/149 361/9/149
f 365/9/150 367/9/150 368/9/150
f 416/10/94 369/10/94 371/10/94
f 370/10/89 420/10/89 375/10/89
f 418/10/90 374/10/90 419/10/90
f 417/10/91 371/10/91 372/10/91
f 419/10/92 375/10/92 420/10/92
f 417/10/93 373/10/93 418/10/93
f 370/10/98 375/10/98 380/10/98
f 373/10/99 379/10/99 374/10/99
f 371/10/151 377/10/151 372/10/151
f 375/10/95 379/10/95 380/10/95
f 372/10/96 378/10/96 373/10/96
f 371/10/97 369/10/97 376/10/97
f 378/10/105 384/10/105 379/10/105
f 376/10/106 382/10/106 377/10/106
f 379/10/101 385/10/101 380/10/101
f 378/10/102 382/10/102 383/10/102
f 376/10/103 369/10/103 381/10/103
f 370/10/104 380/10/104 385/10/104
f 382/10/112 386/10/112 387/10/112
f 384/10/107 390/10/107 385/10/107
f 382/10/108 388/10/108 383/10/108
f 381/10/109 369/10/109 386/10/109
f 370/10/110 385/10/110 390/10/110
f 384/10/111 388/10/111 389/10/111
f 389/10/113 395/10/113 390/10/113
f 388/10/114 392/10/114 393/10/114
f 386/10/115 369/10/115 391/10/115
f 370/10/116 390/10/116 395/10/116
f 388/10/117 394/10/117 389/10/117
f 387/10/118 391/10/118 392/10/118
f 394/10/152 400/10/152 395/10/152
f 392/10/119 398/10/119 393/10/119
f 391/10/120 369/10/120 396/10/120
f 370/10/121 395/10/121 400/10/121
f 394/10/122 398/10/122 399/10/122
f 391/10/123 397/10/123 392/10/123
f 399/10/129 405/10/129 400/10/129
f 397/10/130 403/10/130 398/10/130
f 396/10/125 369/10/125 401/10/125
f 370/10/126 400/10/126 405/10/126
f 399/10/127 403/10/127 404/10/127
f 397/10/153 401/10/153 402/10/153
f 405/10/134 409/10/134 410/10/134
f 402/10/135 408/10/135 403/10/135
f 401/10/136 369/10/136 406/10/136
f 370/10/131 405/10/131 410/10/131
f 403/10/132 409/10/132 404/10/132
f 401/10/133 407/10/133 402/10/133
f 408/10/141 412/10/141 413/10/141
f 406/10/142 369/10/142 411/10/142
f 370/10/137 410/10/137 415/10/137
f 408/10/138 414/10/138 409/10/138
f 407/10/139 411/10/139 412/10/139
f 409/10/140 415/10/140 410/10/140
f 411/10/148 369/10/148 416/10/148
f 370/10/143 415/10/143 420/10/143
f 413/10/144 419/10/144 414/10/144
f 411/10/145 417/10/145 412/10/145
f 415/10/154 419/10/154 420/10/154
f 412/10/147 418/10/147 413/10/147
f 422/9/155 424/9/155 421/9/155
f 425/9/156 427/9/156 428/9/156
f 479/10/92 435/10/92 480/10/92
f 477/10/93 433/10/93 478/10/93
f 476/10/94 429/10/94 431/10/94
f 430/10/89 480/10/89 435/10/89
f 479/10/90 433/10/90 434/10/90
f 477/10/91 431/10/91 432/10/91
f 434/10/95 440/10/95 435/10/95
f 433/10/96 437/10/96 438/10/96
f 431/10/97 429/10/97 436/10/97
f 430/10/98 435/10/98 440/10/98
f 433/10/99 439/10/99 434/10/99
f 432/10/151 436/10/151 437/10/151
f 437/10/102 443/10/102 438/10/102
f 436/10/103 429/10/103 441/10/103
f 430/10/104 440/10/104 445/10/104
f 438/10/105 444/10/105 439/10/105
f 437/10/106 441/10/106 442/10/106
f 439/10/101 445/10/101 440/10/101
f 441/10/109 429/10/109 446/10/109
f 430/10/110 445/10/110 450/10/110
f 444/10/111 448/10/111 449/10/111
f 441/10/112 447/10/112 442/10/112
f 444/10/157 450/10/157 445/10/157
f 442/10/108 448/10/108 443/10/108
f 430/10/116 450/10/116 455/10/116
f 449/10/117 453/10/117 454/10/117
f 447/10/118 451/10/118 452/10/118
f 450/10/113 454/10/113 455/10/113
f 447/10/114 453/10/114 448/10/114
f 446/10/115 429/10/115 451/10/115
f 430/10/121 455/10/121 460/10/121
f 454/10/122 458/10/122 459/10/122
f 452/10/123 456/10/123 457/10/123
f 454/10/152 460/10/152 455/10/152
f 452/10/119 458/10/119 453/10/119
f 451/10/120 429/10/120 456/10/120
f 430/10/126 460/10/126 465/10/126
f 458/10/127 464/10/127 459/10/127
f 456/10/128 462/10/128 457/10/128
f 459/10/129 465/10/129 460/10/129
f 457/10/130 463/10/130 458/10/130
f 456/10/125 429/10/125 461/10/125
f 463/10/132 469/10/132 464/10/132
f 462/10/133 466/10/133 467/10/133
f 464/10/134 470/10/134 465/10/134
f 462/10/135 468/10/135 463/10/135
f 461/10/136 429/10/136 466/10/136
f 430/10/131 465/10/131 470/10/131
f 467/10/139 471/10/139 472/10/139
f 469/10/140 475/10/140 470/10/140
f 467/10/141 473/10/141 468/10/141
f 466/10/142 429/10/142 471/10/142
f 430/10/137 470/10/137 475/10/137
f 468/10/138 474/10/138 469/10/138
f 474/10/146 480/10/146 475/10/146
f 472/10/147 478/10/147 473/10/147
f 471/10/148 429/10/148 476/10/148
f 430/10/143 475/10/143 480/10/143
f 474/10/144 478/10/144 479/10/144
f 472/10/145 476/10/145 477/10/145
f 1/1/9 3/1/9 8/1/9
f 4/1/10 6/1/10 3/1/10
f 10/1/11 12/1/11 6/1/11
f 9/1/12 8/1/12 12/1/12
f 7/1/13 9/1/13 20/1/13
f 22/1/14 24/1/14 11/1/14
f 21/1/15 20/1/15 24/1/15
f 19/1/16 21/1/16 14/1/16
f 16/1/17 18/1/17 23/1/17
f 15/1/18 14/1/18 18/1/18
f 13/1/19 15/1/19 2/1/19
f 5/1/20 4/1/20 17/1/20
f 19/1/21 13/1/21 1/1/21
f 6/1/22 12/1/22 8/1/22
f 17/1/23 4/1/23 2/1/23
f 10/1/24 5/1/24 16/1/24
f 11/1/25 24/1/25 20/1/25
f 23/1/26 18/1/26 14/1/26
f 25/2/9 27/2/9 32/2/9
f 28/2/10 30/2/10 27/2/10
f 34/2/11 36/2/11 30/2/11
f 33/2/12 32/2/12 36/2/12
f 31/2/13 33/2/13 44/2/13
f 46/2/14 48/2/14 35/2/14
f 45/2/15 44/2/15 48/2/15
f 43/2/16 45/2/16 38/2/16
f 40/2/17 42/2/17 47/2/17
f 39/2/18 38/2/18 42/2/18
f 37/2/19 39/2/19 26/2/19
f 29/2/20 28/2/20 41/2/20
f 43/2/21 37/2/21 25/2/21
f 30/2/22 36/2/22 32/2/22
f 41/2/23 28/2/23 26/2/23
f 34/2/24 29/2/24 40/2/24
f 35/2/25 48/2/25 44/2/25
f 47/2/26 42/2/26 38/2/26
f 49/3/9 51/3/9 56/3/9
f 52/3/10 54/3/10 51/3/10
f 58/3/11 60/3/11 54/3/11
f 57/3/12 56/3/12 60/3/12
f 55/3/13 57/3/13 68/3/13
f 70/3/14 72/3/14 59/3/14
f 69/3/15 68/3/15 72/3/15
f 67/3/16 69/3/16 62/3/16
f 64/3/17 66/3/17 71/3/17
f 63/3/18 62/3/18 66/3/18
f 61/3/19 63/3/19 50/3/19
f 53/3/20 52/3/20 65/3/20
f 67/3/21 61/3/21 49/3/21
f 54/3/22 60/3/22 56/3/22
f 65/3/23 52/3/23 50/3/23
f 58/3/24 53/3/24 64/3/24
f 59/3/25 72/3/25 68/3/25
f 71/3/26 66/3/26 62/3/26
f 73/2/9 75/2/9 80/2/9
f 76/2/10 78/2/10 75/2/10
f 82/2/11 84/2/11 78/2/11
f 81/2/12 80/2/12 84/2/12
f 79/2/13 81/2/13 92/2/13
f 94/2/14 96/2/14 83/2/14
f 93/2/15 92/2/15 96/2/15
f 91/2/16 93/2/16 86/2/16
f 88/2/17 90/2/17 95/2/17
f 87/2/18 86/2/18 90/2/18
f 85/2/19 87/2/19 74/2/19
f 77/2/20 76/2/20 89/2/20
f 91/2/21 85/2/21 73/2/21
f 78/2/22 84/2/22 80/2/22
f 89/2/23 76/2/23 74/2/23
f 82/2/24 77/2/24 88/2/24
f 83/2/25 96/2/25 92/2/25
f 95/2/26 90/2/26 86/2/26
f 97/3/9 99/3/9 104/3/9
f 100/3/10 102/3/10 99/3/10
f 106/3/11 108/3/11 102/3/11
f 105/3/12 104/3/12 108/3/12
f 103/3/13 105/3/13 116/3/13
f 118/3/14 120/3/14 107/3/14
f 117/3/15 116/3/15 120/3/15
f 115/3/16 117/3/16 110/3/16
f 112/3/17 114/3/17 119/3/17
f 111/3/18 110/3/18 114/3/18
f 109/3/19 111/3/19 98/3/19
f 101/3/20 100/3/20 113/3/20
f 115/3/21 109/3/21 97/3/21
f 102/3/22 108/3/22 104/3/22
f 113/3/23 100/3/23 98/3/23
f 106/3/24 101/3/24 112/3/24
f 107/3/25 120/3/25 116/3/25
f 119/3/26 114/3/26 110/3/26
f 121/4/9 123/4/9 128/4/9
f 124/4/10 126/4/10 123/4/10
f 130/4/11 132/4/11 126/4/11
f 129/4/12 128/4/12 132/4/12
f 127/4/13 129/4/13 140/4/13
f 142/4/14 144/4/14 131/4/14
f 141/4/15 140/4/15 144/4/15
f 139/4/16 141/4/16 134/4/16
f 136/4/17 138/4/17 143/4/17
f 135/4/18 134/4/18 138/4/18
f 133/4/19 135/4/19 122/4/19
f 125/4/20 124/4/20 137/4/20
f 139/4/21 133/4/21 121/4/21
f 126/4/22 132/4/22 128/4/22
f 137/4/23 124/4/23 122/4/23
f 130/4/24 125/4/24 136/4/24
f 131/4/25 144/4/25 140/4/25
f 143/4/26 138/4/26 134/4/26
f 145/2/9 147/2/9 152/2/9
f 148/2/10 150/2/10 147/2/10
f 154/2/11 156/2/11 150/2/11
f 153/2/12 152/2/12 156/2/12
f 151/2/13 153/2/13 164/2/13
f 166/2/14 168/2/14 155/2/14
f 165/2/15 164/2/15 168/2/15
f 163/2/16 165/2/16 158/2/16
f 160/2/17 162/2/17 167/2/17
f 159/2/18 158/2/18 162/2/18
f 157/2/19 159/2/19 146/2/19
f 149/2/20 148/2/20 161/2/20
f 163/2/21 157/2/21 145/2/21
f 150/2/22 156/2/22 152/2/22
f 161/2/23 148/2/23 146/2/23
f 154/2/24 149/2/24 160/2/24
f 155/2/25 168/2/25 164/2/25
f 167/2/26 162/2/26 158/2/26
f 169/5/9 171/5/9 176/5/9
f 172/5/10 174/5/10 171/5/10
f 178/5/11 180/5/11 174/5/11
f 177/5/12 176/5/12 180/5/12
f 175/5/13 177/5/13 188/5/13
f 190/5/14 192/5/14 179/5/14
f 189/5/15 188/5/15 192/5/15
f 187/5/16 189/5/16 182/5/16
f 184/5/17 186/5/17 191/5/17
f 183/5/18 182/5/18 186/5/18
f 181/5/19 183/5/19 170/5/19
f 173/5/20 172/5/20 185/5/20
f 187/5/21 181/5/21 169/5/21
f 174/5/22 180/5/22 176/5/22
f 185/5/23 172/5/23 170/5/23
f 178/5/24 173/5/24 184/5/24
f 179/5/25 192/5/25 188/5/25
f 191/5/26 186/5/26 182/5/26
f 193/6/9 195/6/9 200/6/9
f 196/6/10 198/6/10 195/6/10
f 202/6/11 204/6/11 198/6/11
f 201/6/12 200/6/12 204/6/12
f 199/6/13 201/6/13 212/6/13
f 214/6/14 216/6/14 203/6/14
f 213/6/15 212/6/15 216/6/15
f 211/6/16 213/6/16 206/6/16
f 208/6/17 210/6/17 215/6/17
f 207/6/18 206/6/18 210/6/18
f 205/6/19 207/6/19 194/6/19
f 197/6/20 196/6/20 209/6/20
f 211/6/21 205/6/21 193/6/21
f 198/6/22 204/6/22 200/6/22
f 209/6/23 196/6/23 194/6/23
f 202/6/24 197/6/24 208/6/24
f 203/6/25 216/6/25 212/6/25
f 215/6/26 210/6/26 206/6/26
f 218/3/59 220/3/59 219/3/59
f 220/3/60 222/3/60 221/3/60
f 222/3/61 224/3/61 223/3/61
f 224/3/62 226/3/62 225/3/62
f 226/3/63 228/3/63 227/3/63
f 228/3/64 230/3/64 229/3/64
f 222/3/23 220/3/23 218/3/23
f 218/3/23 232/3/23 230/3/23
f 230/3/23 228/3/23 226/3/23
f 226/3/23 224/3/23 222/3/23
f 222/3/23 218/3/23 230/3/23
f 230/3/65 232/3/65 231/3/65
f 232/3/66 218/3/66 217/3/66
f 231/3/25 217/3/25 219/3/25
f 219/3/25 221/3/25 223/3/25
f 223/3/25 225/3/25 227/3/25
f 227/3/25 229/3/25 231/3/25
f 231/3/25 219/3/25 223/3/25
f 234/3/59 236/3/59 235/3/59
f 236/3/60 238/3/60 237/3/60
f 238/3/61 240/3/61 239/3/61
f 240/3/62 242/3/62 241/3/62
f 242/3/63 244/3/63 243/3/63
f 244/3/64 246/3/64 245/3/64
f 238/3/23 236/3/23 234/3/23
f 234/3/23 248/3/23 246/3/23
f 246/3/23 244/3/23 242/3/23
f 242/3/23 240/3/23 238/3/23
f 238/3/23 234/3/23 246/3/23
f 246/3/65 248/3/65 247/3/65
f 248/3/66 234/3/66 233/3/66
f 247/3/25 233/3/25 235/3/25
f 235/3/25 237/3/25 239/3/25
f 239/3/25 241/3/25 243/3/25
f 243/3/25 245/3/25 247/3/25
f 247/3/25 235/3/25 239/3/25
f 250/4/67 252/4/67 251/4/67
f 252/4/68 254/4/68 253/4/68
f 254/4/69 256/4/69 255/4/69
f 256/4/70 258/4/70 257/4/70
f 258/4/71 260/4/71 259/4/71
f 260/4/72 262/4/72 261/4/72
f 254/4/24 252/4/24 250/4/24
f 250/4/24 264/4/24 262/4/24
f 262/4/24 260/4/24 258/4/24
f 258/4/24 256/4/24 254/4/24
f 254/4/24 250/4/24 262/4/24
f 262/4/73 264/4/73 263/4/73
f 264/4/74 250/4/74 249/4/74
f 263/4/21 249/4/21 251/4/21
f 251/4/21 253/4/21 255/4/21
f 255/4/21 257/4/21 259/4/21
f 259/4/21 261/4/21 263/4/21
f 263/4/21 251/4/21 255/4/21
f 266/7/75 268/7/75 267/7/75
f 267/7/76 268/7/76 270/7/76
f 270/7/23 272/7/23 271/7/23
f 270/7/158 268/7/158 266/7/158
f 266/7/159 274/7/159 272/7/159
f 271/7/78 272/7/78 274/7/78
f 274/7/79 266/7/79 265/7/79
f 273/7/80 265/7/80 267/7/80
f 267/7/80 269/7/80 271/7/80
f 275/7/81 276/7/81 278/7/81
f 278/7/82 280/7/82 279/7/82
f 280/7/23 282/7/23 281/7/23
f 280/7/160 278/7/160 276/7/160
f 276/7/160 284/7/160 282/7/160
f 282/7/84 284/7/84 283/7/84
f 284/7/85 276/7/85 275/7/85
f 283/7/86 275/7/86 277/7/86
f 277/7/86 279/7/86 281/7/86
f 286/8/67 288/8/67 287/8/67
f 288/8/68 290/8/68 289/8/68
f 290/8/69 292/8/69 291/8/69
f 292/8/70 294/8/70 293/8/70
f 294/8/71 296/8/71 295/8/71
f 296/8/72 298/8/72 297/8/72
f 290/8/24 288/8/24 286/8/24
f 286/8/24 300/8/24 298/8/24
f 298/8/24 296/8/24 294/8/24
f 294/8/24 292/8/24 290/8/24
f 290/8/24 286/8/24 298/8/24
f 298/8/73 300/8/73 299/8/73
f 300/8/74 286/8/74 285/8/74
f 299/8/21 285/8/21 287/8/21
f 287/8/21 289/8/21 291/8/21
f 291/8/21 293/8/21 295/8/21
f 295/8/21 297/8/21 299/8/21
f 299/8/21 287/8/21 291/8/21
f 302/9/161 303/9/161 304/9/161
f 305/9/162 306/9/162 307/9/162
f 358/10/90 313/10/90 314/10/90
f 357/10/91 356/10/91 311/10/91
f 359/10/92 314/10/92 315/10/92
f 357/10/93 312/10/93 313/10/93
f 314/10/95 319/10/95 320/10/95
f 313/10/96 312/10/96 317/10/96
f 313/10/99 318/10/99 319/10/99
f 312/10/151 311/10/151 316/10/151
f 319/10/163 324/10/163 325/10/163
f 317/10/102 322/10/102 323/10/102
f 318/10/105 323/10/105 324/10/105
f 316/10/106 321/10/106 322/10/106
f 325/10/157 324/10/157 329/10/157
f 322/10/108 327/10/108 328/10/108
f 323/10/111 328/10/111 329/10/111
f 321/10/112 326/10/112 327/10/112
f 330/10/113 329/10/113 334/10/113
f 327/10/114 332/10/114 333/10/114
f 328/10/117 333/10/117 334/10/117
f 326/10/118 331/10/118 332/10/118
f 332/10/119 337/10/119 338/10/119
f 333/10/122 338/10/122 339/10/122
f 332/10/123 331/10/123 336/10/123
f 334/10/152 339/10/152 340/10/152
f 339/10/127 338/10/127 343/10/127
f 337/10/128 336/10/128 341/10/128
f 339/10/129 344/10/129 345/10/129
f 337/10/130 342/10/130 343/10/130
f 344/10/132 343/10/132 348/10/132
f 341/10/133 346/10/133 347/10/133
f 344/10/134 349/10/134 350/10/134
f 342/10/135 347/10/135 348/10/135
f 348/10/138 353/10/138 354/10/138
f 347/10/139 346/10/139 351/10/139
f 349/10/140 354/10/140 355/10/140
f 347/10/141 352/10/141 353/10/141
f 353/10/144 358/10/144 359/10/144
f 351/10/145 356/10/145 357/10/145
f 354/10/154 359/10/154 360/10/154
f 353/10/147 352/10/147 357/10/147
f 362/9/164 363/9/164 364/9/164
f 365/9/165 366/9/165 367/9/165
f 418/10/90 373/10/90 374/10/90
f 417/10/91 416/10/91 371/10/91
f 419/10/166 374/10/166 375/10/166
f 417/10/93 372/10/93 373/10/93
f 373/10/99 378/10/99 379/10/99
f 371/10/151 376/10/151 377/10/151
f 375/10/95 374/10/95 379/10/95
f 372/10/96 377/10/96 378/10/96
f 378/10/105 383/10/105 384/10/105
f 376/10/106 381/10/106 382/10/106
f 379/10/101 384/10/101 385/10/101
f 378/10/102 377/10/102 382/10/102
f 382/10/112 381/10/112 386/10/112
f 384/10/157 389/10/157 390/10/157
f 382/10/108 387/10/108 388/10/108
f 384/10/111 383/10/111 388/10/111
f 389/10/113 394/10/113 395/10/113
f 388/10/114 387/10/114 392/10/114
f 388/10/117 393/10/117 394/10/117
f 387/10/118 386/10/118 391/10/118
f 394/10/152 399/10/152 400/10/152
f 392/10/119 397/10/119 398/10/119
f 394/10/122 393/10/122 398/10/122
f 391/10/123 396/10/123 397/10/123
f 399/10/129 404/10/129 405/10/129
f 397/10/130 402/10/130 403/10/130
f 399/10/127 398/10/127 403/10/127
f 397/10/128 396/10/128 401/10/128
f 405/10/134 404/10/134 409/10/134
f 402/10/135 407/10/135 408/10/135
f 403/10/132 408/10/132 409/10/132
f 401/10/133 406/10/133 407/10/133
f 408/10/141 407/10/141 412/10/141
f 408/10/138 413/10/138 414/10/138
f 407/10/139 406/10/139 411/10/139
f 409/10/140 414/10/140 415/10/140
f 413/10/144 418/10/144 419/10/144
f 411/10/145 416/10/145 417/10/145
f 415/10/154 414/10/154 419/10/154
f 412/10/147 417/10/147 418/10/147
f 422/9/167 423/9/167 424/9/167
f 425/9/168 426/9/168 427/9/168
f 479/10/166 434/10/166 435/10/166
f 477/10/93 432/10/93 433/10/93
f 479/10/90 478/10/90 433/10/90
f 477/10/91 476/10/91 431/10/91
f 434/10/95 439/10/95 440/10/95
f 433/10/96 432/10/96 437/10/96
f 433/10/99 438/10/99 439/10/99
f 432/10/151 431/10/151 436/10/151
f 437/10/102 442/10/102 443/10/102
f 438/10/105 443/10/105 444/10/105
f 437/10/106 436/10/106 441/10/106
f 439/10/101 444/10/101 445/10/101
f 444/10/111 443/10/111 448/10/111
f 441/10/112 446/10/112 447/10/112
f 444/10/107 449/10/107 450/10/107
f 442/10/108 447/10/108 448/10/108
f 449/10/117 448/10/117 453/10/117
f 447/10/118 446/10/118 451/10/118
f 450/10/169 449/10/169 454/10/169
f 447/10/114 452/10/114 453/10/114
f 454/10/122 453/10/122 458/10/122
f 452/10/123 451/10/123 456/10/123
f 454/10/152 459/10/152 460/10/152
f 452/10/119 457/10/119 458/10/119
f 458/10/127 463/10/127 464/10/127
f 456/10/128 461/10/128 462/10/128
f 459/10/129 464/10/129 465/10/129
f 457/10/130 462/10/130 463/10/130
f 463/10/132 468/10/132 469/10/132
f 462/10/133 461/10/133 466/10/133
f 464/10/134 469/10/134 470/10/134
f 462/10/135 467/10/135 468/10/135
f 467/10/139 466/10/139 471/10/139
f 469/10/140 474/10/140 475/10/140
f 467/10/141 472/10/141 473/10/141
f 468/10/138 473/10/138 474/10/138
f 474/10/154 479/10/154 480/10/154
f 472/10/147 477/10/147 478/10/147
f 474/10/144 473/10/144 478/10/144
f 472/10/170 471/10/170 476/10/170
